<svg xmlns="http://www.w3.org/2000/svg" width="108" height="56">
  <path d="M 53,9 L 53,10 L 52,11 L 52,17 L 50,19 L 50,21 L 48,23 L 47,23 L 45,25 L 44,25 L 44,27 L 43,28 L 43,29 L 42,30 L 42,33 L 44,33 L 45,32 L 46,33 L 50,33 L 51,34 L 52,34 L 53,35 L 53,34 L 54,33 L 55,33 L 57,35 L 58,35 L 59,36 L 58,37 L 58,38 L 59,38 L 60,37 L 62,39 L 61,40 L 54,40 L 53,39 L 53,40 L 52,41 L 51,40 L 51,39 L 50,38 L 51,37 L 51,36 L 49,36 L 50,37 L 49,38 L 48,38 L 47,37 L 46,37 L 44,35 L 44,36 L 43,37 L 42,36 L 42,37 L 40,39 L 41,40 L 40,41 L 39,41 L 38,42 L 37,42 L 36,43 L 34,43 L 32,45 L 31,44 L 28,44 L 28,45 L 29,45 L 30,46 L 31,46 L 34,49 L 35,49 L 37,51 L 37,52 L 38,53 L 42,53 L 43,54 L 44,54 L 45,55 L 46,54 L 47,54 L 48,53 L 49,53 L 50,52 L 51,52 L 52,51 L 53,51 L 54,50 L 55,50 L 56,49 L 56,45 L 57,44 L 57,43 L 58,42 L 60,44 L 59,45 L 60,46 L 60,47 L 61,48 L 61,49 L 61,48 L 62,47 L 62,46 L 64,44 L 65,44 L 66,43 L 67,43 L 67,39 L 68,38 L 69,39 L 72,39 L 72,38 L 71,37 L 70,37 L 69,38 L 67,38 L 66,39 L 64,39 L 63,38 L 63,37 L 65,35 L 66,36 L 67,36 L 68,35 L 69,35 L 71,33 L 72,33 L 73,32 L 73,31 L 75,29 L 79,29 L 78,28 L 77,28 L 76,27 L 77,26 L 79,26 L 78,25 L 77,25 L 76,24 L 76,23 L 75,22 L 75,21 L 74,20 L 70,20 L 68,18 L 68,17 L 69,16 L 70,17 L 71,17 L 69,15 L 66,15 L 64,13 L 64,12 L 62,10 L 62,9 L 61,9 L 60,10 L 59,10 L 59,11 L 58,12 L 56,10 L 57,9 Z" fill="none" stroke="black" stroke-width="1"/>
</svg>