<svg xmlns="http://www.w3.org/2000/svg" width="98" height="64">
  <path d="M 41,0 L 40,1 L 38,1 L 36,3 L 36,4 L 35,5 L 34,4 L 32,4 L 31,5 L 30,5 L 30,6 L 28,8 L 26,8 L 26,9 L 25,10 L 27,12 L 25,14 L 23,14 L 22,15 L 22,16 L 21,17 L 21,19 L 20,20 L 24,20 L 25,21 L 26,21 L 27,20 L 28,20 L 29,21 L 29,22 L 30,22 L 31,23 L 31,25 L 30,26 L 30,27 L 32,29 L 35,29 L 38,26 L 40,26 L 41,27 L 42,27 L 43,26 L 44,26 L 44,24 L 43,23 L 43,22 L 44,21 L 46,21 L 48,19 L 52,19 L 53,20 L 56,20 L 57,19 L 57,17 L 56,16 L 56,15 L 55,14 L 57,12 L 58,12 L 58,11 L 57,11 L 55,9 L 55,8 L 51,8 L 49,6 L 49,5 L 48,4 L 47,4 L 44,1 L 43,1 L 42,0 Z" fill="none" stroke="black" stroke-width="1"/>
</svg>