<svg xmlns="http://www.w3.org/2000/svg" width="148" height="220">
  <path d="M 134,33 L 134,34 L 132,36 L 131,36 L 130,37 L 129,37 L 127,39 L 126,39 L 126,40 L 125,41 L 124,41 L 123,42 L 122,42 L 122,43 L 120,45 L 120,48 L 119,49 L 118,49 L 118,50 L 117,51 L 117,52 L 115,54 L 112,54 L 111,55 L 110,55 L 110,56 L 108,58 L 108,59 L 107,60 L 107,61 L 106,62 L 105,62 L 104,63 L 103,63 L 101,65 L 97,65 L 97,68 L 96,69 L 95,68 L 89,68 L 89,70 L 87,72 L 85,72 L 84,73 L 83,73 L 80,76 L 74,76 L 74,78 L 75,79 L 75,86 L 76,87 L 76,88 L 77,89 L 77,90 L 74,93 L 73,93 L 71,95 L 71,98 L 70,99 L 70,100 L 68,102 L 68,104 L 67,105 L 66,105 L 64,107 L 63,107 L 62,108 L 62,111 L 61,112 L 61,115 L 57,119 L 56,119 L 54,121 L 53,121 L 52,122 L 56,122 L 57,123 L 57,124 L 58,124 L 59,125 L 60,125 L 61,126 L 65,126 L 71,132 L 71,133 L 72,134 L 72,135 L 73,135 L 73,133 L 74,132 L 75,132 L 77,134 L 77,135 L 78,135 L 78,133 L 81,130 L 84,130 L 85,129 L 88,129 L 88,128 L 89,127 L 89,126 L 90,125 L 91,126 L 92,125 L 93,125 L 94,124 L 94,123 L 96,121 L 96,119 L 97,118 L 97,117 L 101,113 L 103,113 L 106,110 L 106,108 L 105,108 L 104,107 L 103,107 L 102,106 L 101,106 L 99,104 L 100,103 L 101,103 L 102,104 L 102,102 L 99,102 L 98,101 L 99,100 L 100,100 L 100,99 L 103,96 L 104,96 L 104,95 L 105,94 L 106,94 L 106,92 L 102,88 L 103,87 L 104,87 L 107,90 L 108,89 L 107,88 L 106,88 L 105,87 L 105,86 L 106,85 L 107,85 L 108,86 L 112,86 L 113,85 L 113,84 L 114,83 L 114,82 L 113,82 L 112,81 L 110,81 L 109,80 L 109,79 L 110,78 L 111,79 L 113,79 L 114,80 L 115,80 L 116,81 L 118,81 L 119,82 L 119,81 L 117,79 L 117,76 L 119,74 L 121,74 L 123,76 L 124,76 L 124,75 L 123,74 L 124,73 L 125,73 L 130,78 L 131,77 L 132,77 L 132,76 L 133,75 L 134,76 L 136,76 L 137,75 L 139,75 L 140,76 L 144,76 L 145,75 L 147,75 L 147,72 L 144,69 L 144,68 L 143,68 L 140,65 L 140,64 L 138,62 L 138,61 L 139,60 L 139,59 L 142,56 L 142,52 L 144,50 L 144,49 L 143,48 L 143,47 L 140,44 L 140,43 L 137,40 L 137,39 L 138,38 L 138,37 L 139,36 L 140,36 L 140,34 L 139,33 Z" fill="none" stroke="black" stroke-width="1"/>
</svg>