<svg xmlns="http://www.w3.org/2000/svg" width="215" height="106">
  <path d="M 128,49 L 127,50 L 126,50 L 125,51 L 124,51 L 121,54 L 122,55 L 121,56 L 121,57 L 120,58 L 120,59 L 122,61 L 123,61 L 127,65 L 124,68 L 125,69 L 124,70 L 124,71 L 125,71 L 126,72 L 127,71 L 128,71 L 130,73 L 130,74 L 129,75 L 128,74 L 127,75 L 127,76 L 128,75 L 129,76 L 129,77 L 127,79 L 127,80 L 128,81 L 129,81 L 131,83 L 133,81 L 134,82 L 134,83 L 138,83 L 140,85 L 144,85 L 145,86 L 149,86 L 150,87 L 153,87 L 154,86 L 155,86 L 157,88 L 159,86 L 160,86 L 161,87 L 162,87 L 163,88 L 170,88 L 171,87 L 172,87 L 173,86 L 174,86 L 175,85 L 179,85 L 180,84 L 182,84 L 182,82 L 181,81 L 181,80 L 180,79 L 180,78 L 176,74 L 176,73 L 175,72 L 173,72 L 172,71 L 162,71 L 160,69 L 159,69 L 158,68 L 150,68 L 148,66 L 147,66 L 143,62 L 143,61 L 142,60 L 142,58 L 141,57 L 141,56 L 140,55 L 140,53 L 139,52 L 139,50 L 136,50 L 135,49 Z" fill="none" stroke="black" stroke-width="1"/>
</svg>