<svg xmlns="http://www.w3.org/2000/svg" width="183" height="98">
  <path d="M 169,33 L 163,39 L 158,39 L 157,40 L 156,40 L 155,41 L 155,43 L 157,45 L 157,50 L 155,52 L 156,53 L 156,54 L 157,55 L 157,57 L 156,58 L 156,60 L 155,61 L 155,62 L 153,64 L 153,65 L 154,65 L 155,66 L 155,67 L 157,67 L 159,69 L 161,69 L 162,70 L 163,70 L 164,71 L 164,72 L 166,74 L 168,74 L 169,75 L 174,75 L 175,76 L 182,76 L 182,73 L 181,72 L 181,71 L 180,70 L 180,61 L 179,60 L 179,56 L 178,55 L 178,53 L 177,52 L 177,51 L 174,48 L 174,47 L 173,46 L 173,45 L 172,44 L 172,36 L 173,35 L 173,33 Z" fill="none" stroke="black" stroke-width="1"/>
</svg>