<svg xmlns="http://www.w3.org/2000/svg" width="172" height="189">
  <path d="M 53,128 L 53,129 L 52,130 L 51,130 L 49,132 L 48,132 L 46,134 L 44,134 L 39,139 L 33,139 L 32,140 L 31,140 L 27,144 L 26,144 L 24,146 L 24,148 L 20,152 L 20,153 L 21,154 L 21,157 L 20,158 L 21,159 L 21,161 L 23,161 L 24,162 L 26,162 L 27,163 L 32,163 L 33,164 L 34,164 L 39,169 L 42,166 L 48,166 L 49,167 L 50,167 L 51,168 L 52,168 L 53,169 L 57,169 L 60,172 L 61,172 L 63,174 L 64,174 L 65,175 L 66,175 L 67,176 L 68,176 L 69,177 L 70,177 L 71,178 L 72,178 L 73,179 L 77,179 L 78,180 L 80,180 L 81,181 L 86,181 L 88,183 L 89,183 L 89,179 L 90,178 L 90,177 L 91,176 L 91,173 L 90,172 L 90,170 L 89,169 L 89,168 L 87,166 L 87,165 L 86,164 L 87,163 L 87,160 L 86,159 L 86,158 L 84,156 L 83,156 L 82,157 L 80,155 L 77,155 L 76,154 L 74,154 L 73,153 L 73,151 L 71,149 L 71,146 L 68,143 L 67,143 L 65,141 L 65,140 L 64,139 L 62,139 L 61,138 L 59,138 L 58,137 L 58,136 L 57,135 L 53,135 L 52,134 L 53,133 L 54,133 L 55,132 L 56,132 L 56,130 L 55,129 L 54,129 Z" fill="none" stroke="black" stroke-width="1"/>
  <path d="M 51,114 L 51,115 L 49,117 L 49,118 L 50,118 L 51,119 L 54,119 L 55,120 L 58,120 L 59,121 L 61,121 L 62,122 L 63,122 L 64,123 L 67,123 L 68,124 L 69,124 L 69,122 L 68,121 L 68,120 L 67,119 L 67,118 L 63,114 Z" fill="none" stroke="black" stroke-width="1"/>
</svg>