<svg xmlns="http://www.w3.org/2000/svg" width="172" height="189">
  <path d="M 19,67 L 18,68 L 17,68 L 16,69 L 15,68 L 12,68 L 11,69 L 6,69 L 6,71 L 3,74 L 3,75 L 2,76 L 2,77 L 1,78 L 1,79 L 0,80 L 0,84 L 2,84 L 4,86 L 4,88 L 7,88 L 8,89 L 9,89 L 16,96 L 16,98 L 17,99 L 17,100 L 18,101 L 18,102 L 20,104 L 20,105 L 22,107 L 22,110 L 21,111 L 21,112 L 19,114 L 19,117 L 16,120 L 16,121 L 17,122 L 17,124 L 16,125 L 16,133 L 21,138 L 21,139 L 22,140 L 22,141 L 23,142 L 24,142 L 25,143 L 27,143 L 31,139 L 32,139 L 33,138 L 39,138 L 44,133 L 46,133 L 48,131 L 49,131 L 51,129 L 52,129 L 52,127 L 49,124 L 49,123 L 46,120 L 45,120 L 44,119 L 44,114 L 46,112 L 47,112 L 47,110 L 46,109 L 46,107 L 45,106 L 45,104 L 46,103 L 46,102 L 47,101 L 47,100 L 46,99 L 46,97 L 45,96 L 45,95 L 42,92 L 42,87 L 43,86 L 43,84 L 44,83 L 44,81 L 45,80 L 45,77 L 44,76 L 44,73 L 43,73 L 41,71 L 35,71 L 34,70 L 34,69 L 33,69 L 32,70 L 27,70 L 26,69 L 25,69 L 24,70 L 23,69 L 22,69 L 21,68 L 20,68 Z" fill="none" stroke="black" stroke-width="1"/>
</svg>