<svg xmlns="http://www.w3.org/2000/svg" width="247" height="218">
  <path d="M 146,66 L 145,67 L 144,67 L 143,68 L 140,68 L 139,69 L 137,69 L 136,70 L 134,70 L 133,71 L 131,71 L 130,70 L 128,70 L 127,71 L 126,71 L 125,72 L 124,71 L 124,70 L 104,70 L 103,69 L 97,69 L 95,71 L 95,72 L 90,77 L 88,77 L 86,79 L 86,80 L 82,84 L 81,84 L 80,85 L 79,85 L 78,86 L 74,86 L 73,87 L 71,87 L 70,88 L 69,88 L 65,92 L 66,93 L 67,93 L 68,94 L 69,94 L 71,96 L 71,97 L 73,99 L 73,100 L 89,100 L 90,101 L 91,101 L 92,102 L 94,102 L 95,103 L 98,103 L 99,104 L 100,104 L 101,105 L 100,106 L 100,107 L 114,107 L 115,106 L 117,106 L 118,105 L 120,105 L 121,104 L 123,104 L 124,103 L 130,103 L 131,104 L 134,104 L 135,105 L 136,105 L 137,106 L 138,106 L 139,107 L 141,107 L 142,108 L 143,108 L 145,110 L 147,110 L 147,109 L 146,109 L 145,108 L 145,107 L 146,106 L 148,106 L 148,104 L 147,104 L 146,103 L 147,102 L 146,101 L 149,98 L 149,97 L 151,95 L 152,95 L 153,94 L 154,94 L 154,93 L 156,91 L 157,91 L 158,90 L 158,89 L 159,88 L 160,88 L 162,86 L 162,84 L 164,82 L 165,82 L 166,81 L 167,81 L 168,80 L 170,80 L 171,79 L 171,78 L 172,77 L 172,76 L 175,73 L 170,73 L 169,72 L 166,72 L 164,70 L 163,70 L 162,69 L 161,69 L 160,68 L 159,68 L 158,67 L 156,67 L 155,66 Z" fill="none" stroke="black" stroke-width="1"/>
</svg>