<svg xmlns="http://www.w3.org/2000/svg" width="247" height="218">
  <path d="M 89,0 L 88,1 L 87,1 L 86,2 L 85,2 L 81,6 L 79,6 L 78,7 L 76,7 L 75,8 L 74,8 L 73,9 L 72,9 L 72,10 L 70,12 L 70,13 L 68,15 L 68,16 L 65,19 L 65,20 L 64,21 L 64,22 L 63,23 L 63,25 L 62,26 L 62,27 L 61,28 L 61,29 L 57,33 L 57,34 L 56,35 L 56,36 L 55,37 L 55,38 L 54,39 L 54,40 L 52,42 L 52,44 L 50,46 L 50,48 L 49,49 L 49,50 L 48,51 L 48,52 L 47,53 L 47,54 L 46,55 L 46,56 L 45,57 L 45,58 L 43,60 L 43,61 L 42,62 L 42,63 L 37,68 L 36,68 L 33,71 L 32,71 L 31,72 L 41,82 L 42,82 L 46,86 L 47,86 L 48,87 L 49,87 L 51,89 L 52,89 L 53,90 L 57,90 L 58,91 L 61,91 L 62,92 L 64,92 L 69,87 L 70,87 L 71,86 L 73,86 L 74,85 L 78,85 L 79,84 L 80,84 L 81,83 L 82,83 L 85,80 L 85,79 L 88,76 L 90,76 L 94,72 L 94,71 L 97,68 L 103,68 L 104,69 L 125,69 L 126,68 L 126,67 L 127,66 L 127,62 L 126,61 L 126,59 L 125,58 L 125,57 L 124,56 L 124,55 L 123,54 L 123,53 L 122,52 L 122,50 L 121,49 L 121,46 L 120,45 L 120,44 L 119,43 L 119,42 L 117,40 L 117,38 L 116,37 L 116,31 L 113,31 L 112,32 L 111,32 L 110,31 L 108,31 L 107,30 L 106,31 L 101,31 L 100,32 L 99,31 L 98,32 L 97,32 L 92,27 L 92,26 L 91,25 L 91,24 L 90,23 L 90,18 L 91,17 L 92,17 L 91,16 L 91,15 L 90,14 L 90,0 Z" fill="none" stroke="black" stroke-width="1"/>
</svg>