<svg xmlns="http://www.w3.org/2000/svg" width="215" height="106">
  <path d="M 58,1 L 57,2 L 55,2 L 54,3 L 47,3 L 46,4 L 43,4 L 42,5 L 39,5 L 38,6 L 35,6 L 33,8 L 31,8 L 31,9 L 32,9 L 34,11 L 34,13 L 32,15 L 32,16 L 31,17 L 31,18 L 30,19 L 29,19 L 25,23 L 24,23 L 21,26 L 17,26 L 15,24 L 14,24 L 10,28 L 7,28 L 6,27 L 5,28 L 5,29 L 1,33 L 1,37 L 0,38 L 1,39 L 2,39 L 3,40 L 3,42 L 11,42 L 12,43 L 15,43 L 16,44 L 16,46 L 17,47 L 19,47 L 20,46 L 23,46 L 25,44 L 26,44 L 27,43 L 29,43 L 32,46 L 41,46 L 43,48 L 50,48 L 51,49 L 53,47 L 53,46 L 54,45 L 54,42 L 56,40 L 58,40 L 59,39 L 60,39 L 61,40 L 61,42 L 60,43 L 62,43 L 62,41 L 63,40 L 63,39 L 65,37 L 65,34 L 66,33 L 67,33 L 69,35 L 69,36 L 65,40 L 65,41 L 66,41 L 66,40 L 68,38 L 69,39 L 70,38 L 71,38 L 74,35 L 78,35 L 75,35 L 74,34 L 70,34 L 69,33 L 69,32 L 68,31 L 68,30 L 67,30 L 64,27 L 64,26 L 62,24 L 62,20 L 59,20 L 58,19 L 58,18 L 59,17 L 60,18 L 61,18 L 61,17 L 60,16 L 61,15 L 59,15 L 58,14 L 58,13 L 59,12 L 60,13 L 61,13 L 60,12 L 61,11 L 62,11 L 59,8 L 60,7 L 61,7 L 62,8 L 62,6 L 63,5 L 64,5 L 64,3 L 65,2 L 65,1 Z" fill="none" stroke="black" stroke-width="1"/>
</svg>