<svg xmlns="http://www.w3.org/2000/svg" width="177" height="132">
  <path d="M 64,128 L 65,128 Z" fill="none" stroke="black" stroke-width="1"/>
  <path d="M 82,77 L 81,78 L 81,81 L 80,82 L 77,82 L 75,84 L 75,85 L 74,86 L 74,88 L 73,89 L 73,90 L 72,91 L 72,92 L 71,93 L 71,94 L 73,96 L 73,100 L 72,101 L 72,102 L 69,105 L 69,106 L 68,107 L 68,108 L 66,110 L 66,114 L 64,116 L 64,117 L 63,118 L 63,119 L 64,120 L 64,122 L 66,124 L 66,125 L 67,126 L 73,126 L 74,127 L 82,127 L 83,128 L 90,128 L 91,127 L 92,127 L 93,128 L 93,129 L 94,129 L 95,130 L 100,130 L 102,128 L 103,128 L 104,127 L 105,127 L 105,125 L 106,124 L 106,123 L 107,122 L 107,121 L 108,120 L 108,119 L 109,118 L 109,117 L 110,116 L 110,111 L 113,108 L 113,106 L 111,104 L 111,99 L 110,99 L 109,98 L 109,95 L 108,95 L 107,94 L 106,94 L 103,91 L 98,91 L 97,90 L 96,90 L 94,88 L 93,88 L 86,81 L 85,81 L 84,80 L 84,77 Z" fill="none" stroke="black" stroke-width="1"/>
</svg>