<svg xmlns="http://www.w3.org/2000/svg" width="247" height="218">
  <path d="M 52,136 L 51,137 L 49,137 L 48,138 L 46,138 L 45,139 L 44,139 L 42,141 L 42,143 L 44,145 L 44,146 L 46,148 L 46,150 L 47,150 L 48,151 L 48,153 L 49,154 L 49,155 L 48,156 L 49,157 L 49,158 L 52,161 L 52,163 L 53,164 L 53,166 L 54,167 L 54,168 L 55,169 L 54,170 L 54,171 L 55,172 L 55,173 L 57,175 L 57,176 L 59,178 L 59,180 L 62,183 L 62,185 L 66,189 L 65,190 L 65,191 L 64,192 L 65,193 L 65,198 L 66,199 L 66,200 L 65,201 L 65,203 L 66,203 L 73,210 L 74,210 L 76,212 L 77,212 L 78,213 L 83,213 L 86,216 L 87,216 L 88,217 L 89,217 L 90,216 L 90,213 L 89,212 L 89,211 L 88,210 L 88,208 L 87,207 L 87,206 L 86,205 L 86,204 L 85,203 L 86,202 L 85,201 L 85,195 L 82,192 L 82,186 L 84,184 L 84,170 L 77,163 L 77,162 L 75,160 L 75,154 L 71,150 L 70,150 L 68,148 L 67,148 L 64,145 L 64,142 L 63,142 L 62,141 L 60,141 L 55,136 Z" fill="none" stroke="black" stroke-width="1"/>
</svg>