<svg xmlns="http://www.w3.org/2000/svg" width="177" height="132">
  <path d="M 80,67 L 78,69 L 78,70 L 80,68 Z" fill="none" stroke="black" stroke-width="1"/>
  <path d="M 52,45 L 52,51 L 49,54 L 49,55 L 48,56 L 48,57 L 47,58 L 47,59 L 48,60 L 48,62 L 47,63 L 48,64 L 48,65 L 50,65 L 51,66 L 51,67 L 48,70 L 48,72 L 51,72 L 53,74 L 54,74 L 59,79 L 59,80 L 60,81 L 60,83 L 58,85 L 57,85 L 56,86 L 51,86 L 50,85 L 50,81 L 49,80 L 49,78 L 47,76 L 47,75 L 45,73 L 45,72 L 43,70 L 43,69 L 44,68 L 45,69 L 45,68 L 44,68 L 42,66 L 42,65 L 41,64 L 41,67 L 40,68 L 40,70 L 34,76 L 31,76 L 30,77 L 30,78 L 29,79 L 27,79 L 26,80 L 25,80 L 25,81 L 24,82 L 23,82 L 23,83 L 22,84 L 22,85 L 24,85 L 25,86 L 26,86 L 28,88 L 29,88 L 32,91 L 33,91 L 34,92 L 35,92 L 36,93 L 38,93 L 39,94 L 42,94 L 43,95 L 44,95 L 45,96 L 46,96 L 48,98 L 51,98 L 61,108 L 61,109 L 62,110 L 62,111 L 63,112 L 64,112 L 65,111 L 65,110 L 67,108 L 67,107 L 68,106 L 68,105 L 71,102 L 71,101 L 72,100 L 72,96 L 70,94 L 70,93 L 71,92 L 71,91 L 72,90 L 72,89 L 73,88 L 73,86 L 74,85 L 74,84 L 76,82 L 76,81 L 75,80 L 75,77 L 74,76 L 75,75 L 75,74 L 74,73 L 74,72 L 75,71 L 75,70 L 76,69 L 76,67 L 75,67 L 74,66 L 75,65 L 75,64 L 77,62 L 77,61 L 78,60 L 77,59 L 77,58 L 75,58 L 73,60 L 73,61 L 71,63 L 70,62 L 70,54 L 69,53 L 69,52 L 68,51 L 66,53 L 65,52 L 65,51 L 66,50 L 63,50 L 63,54 L 62,55 L 61,54 L 59,54 L 58,53 L 58,51 L 56,49 L 56,48 L 53,45 Z" fill="none" stroke="black" stroke-width="1"/>
  <path d="M 59,43 L 59,45 Z" fill="none" stroke="black" stroke-width="1"/>
</svg>