<svg xmlns="http://www.w3.org/2000/svg" width="177" height="132">
  <path d="M 29,54 L 29,55 Z" fill="none" stroke="black" stroke-width="1"/>
  <path d="M 29,43 L 29,44 Z" fill="none" stroke="black" stroke-width="1"/>
  <path d="M 42,31 L 42,32 L 40,34 L 33,34 L 33,39 L 34,40 L 34,42 L 33,43 L 33,45 L 31,47 L 31,50 L 32,51 L 32,53 L 31,54 L 31,56 L 32,56 L 31,55 L 32,54 L 33,54 L 34,55 L 34,58 L 34,57 L 36,55 L 37,55 L 40,58 L 40,57 L 41,56 L 43,58 L 43,60 L 44,61 L 44,62 L 44,60 L 43,59 L 43,58 L 44,57 L 47,57 L 47,56 L 48,55 L 48,54 L 51,51 L 51,42 L 50,42 L 45,37 L 45,35 L 44,34 L 45,33 L 46,33 L 47,32 L 50,32 L 51,31 L 46,31 L 45,32 L 43,32 Z" fill="none" stroke="black" stroke-width="1"/>
  <path d="M 20,0 L 19,1 L 17,1 L 16,2 L 14,2 L 12,4 L 11,4 L 9,6 L 8,6 L 8,7 L 9,8 L 9,13 L 8,14 L 8,16 L 7,17 L 7,18 L 5,20 L 5,22 L 4,23 L 4,24 L 3,25 L 3,26 L 2,27 L 2,28 L 0,30 L 0,33 L 1,34 L 1,39 L 2,40 L 2,41 L 3,42 L 3,43 L 4,44 L 4,45 L 9,50 L 9,52 L 8,53 L 8,54 L 7,55 L 7,56 L 5,58 L 6,59 L 7,59 L 8,60 L 8,72 L 7,73 L 10,76 L 10,78 L 9,79 L 12,82 L 13,82 L 14,83 L 15,83 L 16,84 L 16,86 L 17,85 L 18,85 L 20,83 L 22,83 L 22,82 L 23,81 L 24,81 L 24,80 L 25,79 L 26,79 L 27,78 L 29,78 L 29,77 L 31,75 L 34,75 L 39,70 L 39,68 L 40,67 L 40,64 L 41,63 L 41,62 L 40,61 L 39,61 L 38,60 L 36,60 L 35,61 L 34,60 L 31,60 L 28,57 L 27,57 L 26,56 L 26,54 L 25,53 L 25,44 L 27,42 L 27,40 L 26,39 L 26,36 L 25,36 L 24,35 L 24,39 L 23,40 L 21,38 L 21,37 L 20,36 L 20,33 L 19,33 L 19,34 L 18,35 L 18,36 L 16,38 L 14,36 L 13,36 L 11,34 L 12,33 L 12,32 L 10,30 L 10,29 L 11,28 L 13,28 L 14,29 L 18,29 L 19,28 L 21,28 L 22,29 L 23,29 L 20,26 L 19,26 L 17,24 L 17,23 L 19,21 L 23,21 L 23,14 L 24,13 L 24,7 L 25,6 L 30,6 L 32,8 L 32,10 L 30,12 L 30,13 L 29,14 L 29,15 L 31,15 L 31,14 L 34,11 L 35,11 L 37,13 L 37,15 L 36,16 L 35,16 L 34,17 L 34,18 L 32,20 L 31,20 L 31,21 L 33,21 L 34,22 L 34,26 L 33,27 L 33,28 L 32,29 L 33,29 L 34,28 L 39,28 L 39,25 L 41,23 L 41,22 L 42,21 L 42,19 L 43,18 L 43,15 L 45,13 L 46,13 L 47,14 L 55,14 L 54,13 L 54,12 L 53,11 L 55,9 L 55,7 L 54,8 L 54,9 L 53,10 L 52,10 L 51,9 L 51,7 L 45,7 L 44,6 L 39,6 L 38,5 L 36,5 L 35,4 L 34,4 L 33,3 L 33,2 L 32,2 L 30,0 L 24,0 L 23,1 L 21,1 Z" fill="none" stroke="black" stroke-width="1"/>
</svg>