<svg xmlns="http://www.w3.org/2000/svg" width="63" height="124">
  <path d="M 42,48 L 42,49 L 44,51 L 46,49 L 45,48 Z" fill="none" stroke="black" stroke-width="1"/>
  <path d="M 52,41 L 51,42 L 51,45 L 50,46 L 50,47 L 49,48 L 50,48 L 51,47 L 51,45 L 52,44 Z" fill="none" stroke="black" stroke-width="1"/>
  <path d="M 42,16 L 40,18 L 39,18 L 38,19 L 39,20 L 39,24 L 41,26 L 41,29 L 39,31 L 39,32 L 40,33 L 43,33 L 44,34 L 45,34 L 45,33 L 43,31 L 43,28 L 44,27 L 44,26 L 46,24 L 47,24 L 48,25 L 48,27 L 47,28 L 47,29 L 48,30 L 48,35 L 47,36 L 48,36 L 49,35 L 50,35 L 52,33 L 52,32 L 51,31 L 51,30 L 52,29 L 53,29 L 53,26 L 52,25 L 52,24 L 51,23 L 51,21 L 50,20 L 50,18 L 47,18 L 46,17 L 45,17 L 44,16 Z" fill="none" stroke="black" stroke-width="1"/>
</svg>