<svg xmlns="http://www.w3.org/2000/svg" width="40" height="70">
  <path d="M 6,0 L 5,1 L 4,1 L 5,2 L 5,3 L 3,5 L 2,4 L 2,2 L 1,3 L 1,6 L 3,6 L 4,5 L 5,5 L 7,7 L 6,8 L 6,12 L 7,13 L 7,16 L 9,18 L 9,19 L 8,20 L 10,20 L 11,21 L 11,20 L 13,18 L 14,18 L 15,17 L 18,17 L 19,16 L 20,16 L 19,15 L 19,14 L 20,13 L 22,13 L 22,12 L 23,11 L 23,10 L 24,9 L 24,8 L 23,7 L 23,6 L 22,5 L 22,3 L 21,3 L 19,5 L 18,5 L 16,3 L 14,3 L 12,5 L 11,4 L 11,3 L 10,2 L 8,2 L 7,1 L 7,0 Z" fill="none" stroke="black" stroke-width="1"/>
</svg>