<svg xmlns="http://www.w3.org/2000/svg" width="63" height="124">
  <path d="M 9,110 L 5,114 L 4,113 L 3,113 L 3,114 L 4,115 L 3,116 L 2,116 L 1,117 L 1,119 L 0,120 L 0,123 L 2,121 L 2,120 L 3,119 L 1,117 L 2,116 L 4,116 L 5,115 L 6,115 L 6,114 L 7,113 L 8,113 L 9,112 Z" fill="none" stroke="black" stroke-width="1"/>
  <path d="M 15,100 L 14,101 L 13,101 L 13,102 L 14,102 L 16,100 Z" fill="none" stroke="black" stroke-width="1"/>
  <path d="M 19,92 L 19,95 L 20,95 L 20,94 L 19,93 Z" fill="none" stroke="black" stroke-width="1"/>
  <path d="M 36,84 L 34,86 L 35,86 L 36,85 Z" fill="none" stroke="black" stroke-width="1"/>
  <path d="M 31,81 L 31,82 L 30,83 L 29,82 L 27,84 L 25,84 L 23,86 L 23,87 L 24,88 L 26,88 L 26,87 L 31,82 Z" fill="none" stroke="black" stroke-width="1"/>
</svg>