<svg xmlns="http://www.w3.org/2000/svg" width="70" height="60">
  <path d="M 47,5 L 47,6 L 45,8 L 45,9 L 44,10 L 45,10 L 46,11 L 46,12 L 45,13 L 44,13 L 46,13 L 47,12 L 48,12 L 48,11 L 49,10 L 49,9 L 48,9 L 47,8 L 47,7 L 48,6 L 48,5 Z" fill="none" stroke="black" stroke-width="1"/>
  <path d="M 65,0 L 65,1 L 64,2 L 64,5 L 63,6 L 63,7 L 59,11 L 58,11 L 57,12 L 56,12 L 55,13 L 54,13 L 54,14 L 53,15 L 53,17 L 51,19 L 51,20 L 47,24 L 46,24 L 44,26 L 43,26 L 42,27 L 41,27 L 40,28 L 38,28 L 37,29 L 36,29 L 35,30 L 35,31 L 36,32 L 37,32 L 38,33 L 38,32 L 40,30 L 41,30 L 42,31 L 45,31 L 46,30 L 46,29 L 47,28 L 48,28 L 52,32 L 52,33 L 53,32 L 54,32 L 55,31 L 55,30 L 56,29 L 56,26 L 57,25 L 58,25 L 59,24 L 60,24 L 60,21 L 61,20 L 61,19 L 60,18 L 61,17 L 62,17 L 63,16 L 64,16 L 65,15 L 66,16 L 66,13 L 67,12 L 68,12 L 67,12 L 66,11 L 66,9 L 65,8 L 66,7 L 66,5 L 67,4 L 68,5 L 69,5 L 69,4 L 68,3 L 68,2 L 67,1 L 68,0 Z" fill="none" stroke="black" stroke-width="1"/>
</svg>