<svg xmlns="http://www.w3.org/2000/svg" width="44" height="86">
  <path d="M 22,43 L 19,46 L 14,46 L 12,44 L 10,44 L 9,45 L 9,47 L 8,48 L 8,50 L 7,51 L 7,52 L 4,55 L 7,55 L 8,56 L 7,57 L 8,58 L 8,59 L 9,60 L 9,61 L 8,62 L 7,62 L 6,61 L 6,63 L 5,64 L 6,65 L 6,67 L 7,67 L 8,68 L 9,67 L 10,67 L 11,68 L 12,68 L 13,67 L 14,67 L 15,68 L 16,67 L 17,67 L 17,62 L 18,61 L 19,62 L 19,60 L 20,59 L 21,59 L 21,58 L 20,57 L 20,56 L 21,55 L 19,53 L 19,52 L 20,51 L 21,51 L 22,50 L 22,47 L 23,46 L 23,43 Z" fill="none" stroke="black" stroke-width="1"/>
</svg>