<svg xmlns="http://www.w3.org/2000/svg" width="44" height="86">
  <path d="M 23,50 L 21,52 L 20,52 L 20,53 L 22,55 L 21,56 L 21,57 L 22,58 L 22,59 L 21,60 L 20,60 L 20,62 L 19,63 L 18,62 L 18,67 L 17,68 L 16,68 L 15,69 L 14,68 L 13,68 L 12,69 L 11,69 L 10,68 L 9,68 L 8,69 L 6,69 L 6,72 L 5,73 L 4,72 L 3,73 L 2,73 L 1,74 L 0,74 L 1,75 L 1,76 L 0,77 L 0,78 L 2,80 L 1,81 L 1,82 L 2,83 L 2,84 L 3,83 L 3,82 L 4,81 L 5,82 L 6,81 L 7,81 L 8,80 L 10,80 L 10,78 L 11,77 L 13,77 L 14,76 L 15,77 L 16,77 L 17,78 L 17,81 L 18,82 L 18,83 L 21,83 L 22,84 L 22,85 L 24,83 L 26,83 L 26,79 L 27,78 L 27,76 L 26,75 L 26,71 L 25,70 L 25,69 L 24,68 L 24,65 L 25,64 L 25,63 L 26,62 L 26,60 L 27,59 L 28,59 L 29,58 L 32,58 L 34,60 L 34,61 L 34,51 L 33,51 L 32,52 L 28,52 L 26,50 Z" fill="none" stroke="black" stroke-width="1"/>
</svg>