<svg xmlns="http://www.w3.org/2000/svg" width="228" height="164">
  <path d="M 27,91 L 26,92 L 27,93 L 28,93 L 28,92 Z" fill="none" stroke="black" stroke-width="1"/>
  <path d="M 37,87 L 36,88 L 35,88 L 34,89 L 34,90 L 33,91 L 33,92 L 34,93 L 34,94 L 35,95 L 35,96 L 36,97 L 36,99 L 37,100 L 37,104 L 36,105 L 36,107 L 34,109 L 34,116 L 32,118 L 31,118 L 30,119 L 30,120 L 32,120 L 33,121 L 34,121 L 39,116 L 41,118 L 41,119 L 43,121 L 43,122 L 45,124 L 46,124 L 47,125 L 48,125 L 49,124 L 49,123 L 50,122 L 53,122 L 54,121 L 54,120 L 55,119 L 56,120 L 58,120 L 59,121 L 61,121 L 62,122 L 69,122 L 70,123 L 74,123 L 75,122 L 78,122 L 79,121 L 81,121 L 83,119 L 84,119 L 90,113 L 90,112 L 91,111 L 91,109 L 88,112 L 87,112 L 82,117 L 81,116 L 76,116 L 72,112 L 70,112 L 69,113 L 67,113 L 65,111 L 65,110 L 63,110 L 62,109 L 61,109 L 58,106 L 57,106 L 48,97 L 48,96 L 47,95 L 47,94 L 46,94 L 43,91 L 43,90 L 42,89 L 41,89 L 39,87 Z" fill="none" stroke="black" stroke-width="1"/>
  <path d="M 24,87 L 24,88 Z" fill="none" stroke="black" stroke-width="1"/>
</svg>