<svg xmlns="http://www.w3.org/2000/svg" width="228" height="164">
  <path d="M 143,86 L 141,88 L 140,88 L 140,89 L 138,91 L 134,91 L 133,90 L 133,89 L 132,88 L 131,89 L 132,90 L 132,91 L 131,92 L 130,92 L 128,94 L 127,94 L 123,98 L 122,98 L 121,99 L 120,99 L 120,102 L 119,103 L 118,103 L 115,106 L 116,107 L 117,106 L 117,105 L 118,104 L 120,104 L 121,103 L 121,102 L 123,100 L 124,100 L 125,99 L 126,99 L 126,97 L 127,96 L 131,96 L 135,92 L 136,92 L 137,91 L 138,91 L 139,90 L 141,90 L 142,89 L 145,89 L 146,88 L 146,86 Z" fill="none" stroke="black" stroke-width="1"/>
  <path d="M 170,72 L 169,73 L 168,73 L 167,74 L 166,74 L 164,76 L 163,76 L 163,77 L 162,78 L 161,78 L 158,81 L 158,82 L 156,84 L 157,84 L 158,83 L 159,83 L 161,81 L 162,81 L 162,80 L 163,79 L 165,79 L 167,77 L 167,76 L 168,75 L 169,75 L 171,73 L 171,72 Z" fill="none" stroke="black" stroke-width="1"/>
  <path d="M 186,49 L 185,50 L 185,51 L 184,52 L 184,53 L 184,52 L 185,51 L 186,51 Z" fill="none" stroke="black" stroke-width="1"/>
  <path d="M 191,43 L 191,44 L 192,44 L 192,43 Z" fill="none" stroke="black" stroke-width="1"/>
  <path d="M 198,32 L 197,33 L 197,34 L 196,35 L 196,36 L 194,38 L 194,40 L 195,40 L 196,39 L 196,36 L 197,35 L 197,34 L 199,32 Z" fill="none" stroke="black" stroke-width="1"/>
  <path d="M 225,0 L 222,3 L 220,3 L 217,6 L 217,8 L 215,10 L 215,11 L 213,13 L 211,13 L 210,14 L 209,14 L 207,16 L 207,17 L 206,18 L 206,20 L 207,21 L 208,20 L 208,19 L 209,18 L 210,18 L 211,17 L 213,17 L 216,14 L 216,13 L 218,11 L 218,10 L 220,8 L 220,4 L 221,3 L 222,4 L 223,4 L 224,5 L 224,4 L 226,2 L 226,1 L 227,0 Z" fill="none" stroke="black" stroke-width="1"/>
  <path d="M 214,0 L 213,1 L 213,3 L 214,3 L 214,2 L 215,1 L 215,0 Z" fill="none" stroke="black" stroke-width="1"/>
</svg>