<svg xmlns="http://www.w3.org/2000/svg" width="48" height="174">
  <path d="M 23,53 L 22,54 L 21,54 L 20,55 L 20,56 L 16,60 L 14,60 L 11,63 L 11,64 L 9,66 L 9,68 L 10,69 L 10,71 L 9,72 L 9,73 L 7,75 L 7,78 L 6,79 L 6,82 L 7,83 L 7,84 L 8,85 L 8,89 L 9,90 L 8,91 L 8,103 L 7,104 L 7,109 L 6,110 L 6,114 L 4,116 L 4,120 L 6,122 L 6,123 L 7,124 L 7,125 L 8,126 L 8,130 L 9,131 L 9,133 L 7,135 L 7,136 L 6,137 L 6,139 L 5,140 L 5,146 L 6,147 L 6,148 L 7,149 L 7,151 L 6,152 L 6,153 L 5,154 L 5,156 L 4,157 L 4,158 L 3,159 L 3,164 L 4,165 L 4,169 L 5,170 L 5,172 L 6,173 L 7,173 L 8,172 L 8,169 L 9,168 L 9,165 L 10,164 L 10,163 L 11,162 L 11,161 L 12,160 L 12,159 L 13,158 L 14,158 L 15,157 L 16,157 L 17,158 L 17,159 L 18,160 L 26,160 L 27,161 L 27,166 L 28,167 L 28,170 L 28,168 L 29,167 L 29,166 L 30,165 L 30,164 L 29,163 L 29,157 L 28,156 L 27,157 L 27,158 L 26,159 L 25,159 L 22,156 L 22,151 L 21,150 L 21,148 L 20,147 L 20,146 L 18,144 L 17,144 L 15,142 L 15,141 L 14,140 L 14,138 L 13,137 L 13,132 L 14,131 L 14,129 L 15,128 L 15,127 L 16,126 L 16,124 L 17,123 L 17,121 L 18,120 L 18,118 L 19,117 L 19,116 L 20,115 L 20,111 L 21,110 L 21,109 L 22,108 L 23,108 L 24,107 L 25,107 L 24,107 L 23,106 L 23,104 L 24,103 L 27,103 L 28,104 L 28,105 L 27,106 L 35,106 L 36,107 L 37,107 L 38,108 L 38,109 L 45,116 L 45,121 L 46,121 L 46,120 L 47,119 L 47,115 L 46,115 L 41,110 L 41,109 L 40,108 L 40,104 L 39,103 L 39,101 L 38,100 L 38,98 L 37,97 L 37,94 L 36,93 L 36,91 L 35,90 L 35,89 L 33,87 L 33,86 L 32,85 L 32,81 L 31,80 L 31,76 L 30,75 L 30,73 L 29,72 L 29,67 L 28,67 L 26,65 L 26,64 L 27,63 L 28,63 L 28,62 L 27,61 L 27,60 L 26,59 L 26,60 L 25,61 L 24,60 L 24,58 L 25,57 L 25,55 Z" fill="none" stroke="black" stroke-width="1"/>
</svg>