<svg xmlns="http://www.w3.org/2000/svg" width="463" height="477">
  <path d="M 263,333 L 262,334 L 264,334 L 265,335 L 270,335 L 271,336 L 272,336 L 271,336 L 269,334 L 266,334 L 265,333 Z" fill="none" stroke="black" stroke-width="1"/>
  <path d="M 238,332 L 236,334 L 235,334 L 237,334 L 239,336 L 239,337 L 241,339 L 242,339 L 243,340 L 246,340 L 247,341 L 248,341 L 248,339 L 247,338 L 245,338 L 242,335 L 242,334 L 241,333 L 242,332 Z" fill="none" stroke="black" stroke-width="1"/>
  <path d="M 178,283 L 177,284 L 176,284 L 175,285 L 173,285 L 172,286 L 171,285 L 170,286 L 168,286 L 167,287 L 165,287 L 164,286 L 160,286 L 159,285 L 156,285 L 155,284 L 153,284 L 152,285 L 151,285 L 150,286 L 149,286 L 146,289 L 145,289 L 144,290 L 143,290 L 142,291 L 140,291 L 139,292 L 132,292 L 131,291 L 130,292 L 129,292 L 129,293 L 128,294 L 127,294 L 126,295 L 125,295 L 116,304 L 114,304 L 113,305 L 108,305 L 108,306 L 107,307 L 107,308 L 104,311 L 99,311 L 98,310 L 97,310 L 94,313 L 95,313 L 97,315 L 97,320 L 96,321 L 96,322 L 94,324 L 94,325 L 92,327 L 92,328 L 90,330 L 89,329 L 89,330 L 87,332 L 87,333 L 85,335 L 84,335 L 83,336 L 82,336 L 82,338 L 81,339 L 79,339 L 79,342 L 78,343 L 78,344 L 77,345 L 77,347 L 76,348 L 76,350 L 75,351 L 75,353 L 74,354 L 74,355 L 73,356 L 73,359 L 72,360 L 72,363 L 71,364 L 71,366 L 70,367 L 70,371 L 69,372 L 69,378 L 68,379 L 69,380 L 68,381 L 68,389 L 69,390 L 68,391 L 69,392 L 69,395 L 68,396 L 69,397 L 69,404 L 70,405 L 69,406 L 69,407 L 70,408 L 70,409 L 69,410 L 69,430 L 68,431 L 68,433 L 69,434 L 69,438 L 70,439 L 70,448 L 71,449 L 70,450 L 70,457 L 69,458 L 69,461 L 68,462 L 68,468 L 69,468 L 70,469 L 70,474 L 69,475 L 69,476 L 70,475 L 70,474 L 71,473 L 72,473 L 72,472 L 76,468 L 77,468 L 79,466 L 79,465 L 83,461 L 83,460 L 85,458 L 86,458 L 87,457 L 88,457 L 93,452 L 93,451 L 96,448 L 96,447 L 97,446 L 97,445 L 98,444 L 98,443 L 99,442 L 99,441 L 103,437 L 103,435 L 104,434 L 103,433 L 103,431 L 105,429 L 105,426 L 107,424 L 107,423 L 108,422 L 109,422 L 115,416 L 116,416 L 118,414 L 120,414 L 124,410 L 125,410 L 126,411 L 128,411 L 129,412 L 131,412 L 130,411 L 130,409 L 129,408 L 129,407 L 128,406 L 128,404 L 129,403 L 130,404 L 130,403 L 131,402 L 129,400 L 129,398 L 130,397 L 130,395 L 131,394 L 131,393 L 132,392 L 132,391 L 143,380 L 144,380 L 148,376 L 150,376 L 152,374 L 155,374 L 156,375 L 157,375 L 158,374 L 160,374 L 161,373 L 163,373 L 171,365 L 171,363 L 166,358 L 166,350 L 167,349 L 167,347 L 168,346 L 168,345 L 169,344 L 170,344 L 170,343 L 171,342 L 171,341 L 172,340 L 172,339 L 173,338 L 173,336 L 175,334 L 176,334 L 178,332 L 179,332 L 182,329 L 180,327 L 181,326 L 182,326 L 185,323 L 189,323 L 190,324 L 189,325 L 188,325 L 184,329 L 184,331 L 186,333 L 189,333 L 195,327 L 195,322 L 194,321 L 194,316 L 192,316 L 190,318 L 189,318 L 187,316 L 187,313 L 188,312 L 188,303 L 192,299 L 193,299 L 194,298 L 194,297 L 195,296 L 195,295 L 196,294 L 196,293 L 197,292 L 197,291 L 196,290 L 195,290 L 194,291 L 193,291 L 191,289 L 188,289 L 187,290 L 186,290 L 186,291 L 185,292 L 185,295 L 183,297 L 182,296 L 182,295 L 181,294 L 179,294 L 177,292 L 177,291 L 176,290 L 176,289 L 177,288 L 177,286 L 178,285 L 178,284 L 179,283 Z" fill="none" stroke="black" stroke-width="1"/>
</svg>