<svg xmlns="http://www.w3.org/2000/svg" width="463" height="477">
  <path d="M 221,250 L 217,254 L 216,254 L 214,256 L 213,256 L 211,258 L 209,258 L 210,259 L 208,261 L 208,263 L 207,264 L 207,266 L 205,268 L 205,269 L 204,270 L 203,270 L 202,271 L 202,273 L 202,272 L 206,268 L 207,268 L 215,260 L 216,260 L 217,259 L 219,259 L 220,258 L 221,258 L 223,256 L 223,253 L 222,252 L 222,250 Z" fill="none" stroke="black" stroke-width="1"/>
  <path d="M 185,125 L 184,126 L 182,126 L 181,127 L 179,127 L 178,128 L 176,128 L 175,127 L 174,127 L 172,129 L 170,129 L 169,130 L 167,130 L 166,131 L 165,131 L 164,132 L 162,132 L 161,133 L 160,133 L 159,132 L 154,132 L 153,131 L 149,131 L 148,130 L 145,130 L 144,131 L 142,131 L 141,132 L 140,132 L 139,133 L 138,133 L 138,134 L 137,135 L 136,135 L 136,136 L 135,137 L 134,137 L 134,138 L 132,140 L 131,139 L 130,140 L 130,142 L 129,143 L 130,144 L 130,145 L 129,146 L 130,147 L 130,148 L 129,149 L 130,150 L 130,151 L 129,152 L 130,153 L 130,154 L 131,155 L 130,156 L 132,158 L 131,159 L 133,161 L 133,163 L 134,164 L 134,165 L 138,165 L 139,166 L 139,167 L 140,167 L 141,168 L 141,169 L 143,171 L 142,172 L 144,174 L 144,176 L 145,177 L 145,182 L 146,183 L 146,184 L 147,185 L 147,186 L 148,187 L 148,189 L 147,190 L 148,191 L 148,192 L 147,193 L 147,194 L 146,195 L 147,196 L 146,197 L 146,198 L 145,199 L 145,200 L 146,201 L 145,202 L 145,203 L 144,204 L 145,205 L 147,203 L 149,203 L 150,202 L 150,201 L 154,197 L 155,197 L 157,195 L 159,197 L 159,199 L 158,200 L 158,201 L 157,202 L 157,203 L 156,204 L 156,206 L 154,208 L 154,209 L 150,213 L 150,214 L 149,215 L 150,215 L 151,216 L 151,219 L 150,220 L 150,221 L 148,223 L 149,223 L 151,221 L 152,221 L 154,219 L 157,219 L 158,220 L 157,221 L 157,222 L 154,225 L 154,226 L 155,227 L 154,228 L 154,229 L 153,230 L 153,231 L 154,230 L 155,230 L 155,229 L 158,226 L 160,226 L 161,225 L 162,225 L 163,226 L 163,225 L 164,224 L 164,222 L 167,219 L 168,219 L 173,214 L 173,213 L 175,211 L 176,211 L 176,210 L 180,206 L 181,206 L 185,202 L 185,201 L 187,199 L 187,198 L 191,194 L 192,194 L 193,195 L 195,195 L 194,194 L 194,193 L 195,192 L 198,192 L 199,193 L 199,196 L 200,196 L 200,195 L 202,193 L 203,193 L 204,192 L 204,190 L 200,190 L 199,189 L 199,187 L 200,186 L 200,185 L 201,184 L 201,182 L 202,181 L 202,180 L 201,179 L 201,177 L 202,176 L 202,175 L 205,172 L 204,172 L 203,171 L 203,169 L 206,166 L 207,166 L 208,165 L 209,165 L 210,164 L 211,164 L 212,163 L 213,163 L 215,161 L 216,161 L 217,160 L 219,160 L 222,157 L 226,157 L 228,159 L 235,159 L 236,160 L 235,161 L 234,161 L 236,161 L 237,162 L 237,163 L 236,164 L 235,163 L 233,163 L 232,164 L 231,164 L 230,163 L 228,163 L 227,164 L 225,164 L 224,165 L 224,166 L 221,169 L 220,169 L 220,170 L 219,171 L 218,171 L 218,174 L 217,175 L 217,178 L 218,179 L 218,180 L 217,181 L 217,187 L 215,189 L 214,189 L 213,190 L 213,193 L 212,194 L 212,195 L 213,194 L 214,194 L 215,195 L 215,196 L 216,197 L 215,198 L 215,199 L 208,206 L 208,207 L 207,208 L 208,209 L 209,209 L 210,210 L 210,211 L 209,212 L 207,212 L 204,215 L 202,215 L 201,216 L 200,216 L 199,217 L 198,217 L 195,220 L 195,221 L 194,222 L 193,222 L 192,223 L 191,223 L 189,225 L 188,225 L 186,227 L 185,227 L 182,230 L 181,230 L 181,235 L 176,240 L 175,240 L 172,243 L 172,244 L 169,247 L 169,248 L 161,256 L 160,256 L 159,257 L 158,257 L 156,259 L 156,260 L 155,261 L 155,262 L 152,265 L 151,265 L 151,266 L 150,267 L 149,267 L 145,271 L 145,272 L 143,274 L 144,275 L 144,276 L 142,278 L 142,279 L 132,289 L 132,291 L 139,291 L 140,290 L 142,290 L 143,289 L 144,289 L 145,288 L 146,288 L 149,285 L 150,285 L 151,284 L 152,284 L 153,283 L 155,283 L 156,284 L 159,284 L 160,285 L 164,285 L 165,286 L 167,286 L 168,285 L 170,285 L 171,284 L 172,285 L 173,284 L 175,284 L 176,283 L 177,283 L 178,282 L 179,282 L 180,281 L 180,279 L 183,276 L 183,275 L 185,273 L 185,272 L 187,270 L 188,270 L 191,267 L 191,266 L 194,263 L 195,263 L 195,261 L 194,260 L 194,259 L 195,258 L 197,258 L 198,259 L 199,259 L 197,257 L 197,255 L 198,254 L 199,254 L 200,255 L 201,254 L 201,250 L 199,248 L 201,246 L 202,246 L 202,245 L 203,244 L 202,243 L 202,241 L 203,240 L 203,239 L 205,237 L 207,237 L 209,235 L 208,235 L 207,234 L 207,233 L 208,232 L 212,232 L 213,231 L 214,231 L 215,232 L 215,234 L 214,235 L 215,235 L 215,234 L 218,231 L 218,229 L 220,227 L 222,227 L 226,231 L 226,234 L 227,233 L 228,233 L 231,230 L 231,229 L 232,228 L 232,226 L 231,226 L 230,227 L 229,226 L 229,225 L 230,224 L 234,224 L 240,218 L 241,218 L 244,215 L 244,214 L 247,211 L 248,211 L 250,209 L 251,209 L 252,208 L 253,209 L 253,210 L 251,212 L 251,215 L 250,216 L 250,218 L 249,219 L 249,221 L 248,222 L 248,224 L 247,225 L 247,227 L 248,227 L 250,225 L 251,225 L 251,224 L 254,221 L 254,220 L 256,218 L 256,217 L 258,215 L 258,214 L 259,213 L 260,213 L 261,212 L 261,211 L 263,209 L 264,209 L 268,205 L 268,204 L 267,203 L 267,202 L 266,201 L 266,199 L 265,198 L 265,197 L 264,196 L 264,195 L 263,194 L 263,192 L 262,191 L 262,184 L 263,183 L 263,178 L 262,177 L 262,176 L 259,173 L 259,172 L 258,171 L 258,170 L 255,167 L 255,166 L 254,165 L 254,164 L 253,163 L 253,161 L 252,160 L 252,153 L 253,152 L 253,150 L 254,149 L 253,148 L 254,147 L 253,146 L 252,146 L 251,145 L 251,144 L 250,144 L 249,143 L 249,141 L 248,140 L 248,138 L 247,138 L 246,137 L 246,136 L 242,136 L 241,135 L 236,135 L 235,134 L 231,134 L 230,133 L 229,133 L 228,134 L 226,134 L 225,135 L 223,135 L 222,136 L 219,136 L 218,135 L 214,135 L 213,134 L 208,134 L 207,133 L 203,133 L 202,132 L 201,132 L 198,129 L 197,129 L 196,128 L 196,127 L 193,127 L 192,126 L 188,126 L 187,125 Z" fill="none" stroke="black" stroke-width="1"/>
</svg>