<svg xmlns="http://www.w3.org/2000/svg" width="415" height="237">
  <path d="M 291,9 L 291,10 L 290,11 L 289,11 L 288,10 L 288,11 L 287,12 L 286,12 L 285,11 L 285,12 L 284,13 L 283,12 L 282,12 L 282,13 L 281,14 L 280,13 L 279,13 L 279,14 L 278,15 L 277,14 L 277,15 L 276,16 L 275,15 L 275,16 L 274,17 L 273,17 L 272,18 L 270,18 L 269,19 L 268,19 L 267,18 L 262,18 L 261,17 L 257,17 L 256,16 L 252,16 L 251,15 L 250,15 L 250,16 L 249,17 L 248,16 L 247,16 L 247,17 L 246,18 L 244,16 L 244,17 L 243,18 L 238,18 L 237,17 L 236,17 L 235,18 L 233,18 L 232,19 L 230,19 L 229,20 L 225,20 L 224,19 L 223,19 L 222,20 L 219,20 L 217,22 L 216,22 L 215,23 L 214,23 L 214,24 L 212,26 L 212,32 L 213,33 L 213,34 L 214,35 L 214,36 L 215,36 L 219,40 L 219,41 L 222,41 L 228,47 L 228,49 L 229,50 L 229,51 L 230,52 L 230,54 L 231,55 L 231,56 L 235,60 L 234,61 L 234,63 L 233,64 L 234,64 L 236,66 L 236,68 L 237,69 L 237,70 L 238,71 L 238,83 L 237,84 L 237,86 L 238,87 L 237,88 L 237,103 L 238,104 L 238,106 L 239,107 L 239,108 L 240,109 L 240,110 L 241,111 L 241,113 L 242,114 L 243,114 L 245,116 L 247,116 L 248,117 L 248,118 L 249,119 L 249,120 L 253,124 L 253,125 L 254,126 L 254,127 L 256,129 L 255,130 L 256,131 L 258,129 L 259,129 L 260,128 L 260,127 L 261,126 L 262,126 L 262,125 L 263,124 L 265,124 L 266,125 L 270,125 L 271,126 L 270,127 L 272,129 L 272,131 L 273,132 L 272,133 L 272,134 L 274,136 L 274,137 L 275,137 L 276,138 L 276,139 L 279,139 L 280,140 L 280,138 L 281,137 L 281,135 L 282,134 L 282,133 L 283,132 L 283,130 L 284,129 L 284,127 L 285,126 L 285,125 L 286,124 L 286,122 L 287,121 L 287,119 L 288,118 L 288,115 L 289,114 L 289,112 L 290,111 L 291,112 L 291,110 L 292,109 L 293,109 L 294,108 L 295,108 L 297,106 L 298,106 L 299,105 L 299,104 L 300,103 L 301,103 L 301,101 L 302,100 L 302,98 L 303,97 L 303,95 L 304,94 L 304,92 L 305,91 L 305,88 L 306,87 L 306,85 L 307,84 L 307,81 L 308,80 L 308,78 L 307,77 L 307,76 L 308,75 L 307,74 L 307,72 L 306,71 L 306,70 L 307,69 L 306,68 L 306,66 L 305,65 L 305,64 L 306,63 L 305,63 L 304,62 L 305,61 L 305,59 L 306,58 L 306,56 L 307,55 L 307,52 L 308,51 L 309,51 L 309,50 L 311,48 L 311,47 L 313,45 L 313,44 L 314,43 L 315,43 L 315,42 L 318,39 L 319,39 L 320,38 L 321,38 L 325,34 L 326,34 L 327,33 L 328,33 L 328,31 L 329,30 L 330,31 L 330,28 L 331,27 L 331,24 L 332,23 L 332,20 L 333,19 L 333,16 L 334,15 L 334,13 L 333,12 L 328,12 L 327,11 L 323,11 L 322,10 L 317,10 L 316,9 L 313,9 L 312,10 L 310,10 L 309,11 L 307,11 L 306,12 L 303,12 L 302,11 L 297,11 L 296,10 L 292,10 Z" fill="none" stroke="black" stroke-width="1"/>
</svg>