<svg xmlns="http://www.w3.org/2000/svg" width="415" height="237">
  <path d="M 339,9 L 338,10 L 336,10 L 336,11 L 335,12 L 335,15 L 334,16 L 334,19 L 333,20 L 333,23 L 332,24 L 332,27 L 331,28 L 331,31 L 330,32 L 329,31 L 329,33 L 328,34 L 327,34 L 326,35 L 325,35 L 321,39 L 320,39 L 319,40 L 318,40 L 316,42 L 316,43 L 315,44 L 314,44 L 314,45 L 312,47 L 312,48 L 310,50 L 310,51 L 309,52 L 308,52 L 308,55 L 307,56 L 307,58 L 306,59 L 306,61 L 305,62 L 306,62 L 307,63 L 306,64 L 306,65 L 307,66 L 307,68 L 308,69 L 307,70 L 307,71 L 308,72 L 308,74 L 309,75 L 308,76 L 308,77 L 309,78 L 309,80 L 308,81 L 308,84 L 307,85 L 307,87 L 306,88 L 306,91 L 305,92 L 305,94 L 304,95 L 304,97 L 303,98 L 303,100 L 302,101 L 302,103 L 301,104 L 300,104 L 300,105 L 298,107 L 297,107 L 295,109 L 294,109 L 293,110 L 292,110 L 292,112 L 291,113 L 290,112 L 290,114 L 289,115 L 289,118 L 288,119 L 288,121 L 287,122 L 287,124 L 286,125 L 286,126 L 285,127 L 285,129 L 284,130 L 284,132 L 283,133 L 283,134 L 282,135 L 282,137 L 281,138 L 281,140 L 282,140 L 283,141 L 283,142 L 285,144 L 284,145 L 286,147 L 286,148 L 288,150 L 288,151 L 290,153 L 289,154 L 291,156 L 291,157 L 292,157 L 293,158 L 293,159 L 297,159 L 298,160 L 302,160 L 303,161 L 307,161 L 308,162 L 313,162 L 314,161 L 315,162 L 316,161 L 317,161 L 318,160 L 319,160 L 321,158 L 323,158 L 324,157 L 326,157 L 327,156 L 329,156 L 330,155 L 331,155 L 332,156 L 332,155 L 333,154 L 334,155 L 338,155 L 339,156 L 340,155 L 340,154 L 341,153 L 342,153 L 342,152 L 343,151 L 344,151 L 344,150 L 345,149 L 346,149 L 347,148 L 348,148 L 349,147 L 351,147 L 352,146 L 355,146 L 356,147 L 360,147 L 361,148 L 366,148 L 367,149 L 368,149 L 369,148 L 371,148 L 372,147 L 373,147 L 374,146 L 376,146 L 377,145 L 379,145 L 380,144 L 380,143 L 381,142 L 381,140 L 382,139 L 382,138 L 383,137 L 383,135 L 384,134 L 384,132 L 389,127 L 389,126 L 390,125 L 391,125 L 391,124 L 392,123 L 392,121 L 394,119 L 395,119 L 395,117 L 396,116 L 397,116 L 397,115 L 398,114 L 399,114 L 399,113 L 400,112 L 400,111 L 401,110 L 401,108 L 402,107 L 402,105 L 403,104 L 403,103 L 404,102 L 404,100 L 405,99 L 405,97 L 406,96 L 406,94 L 407,93 L 407,92 L 406,91 L 406,90 L 407,89 L 406,88 L 406,87 L 407,86 L 406,85 L 406,83 L 407,82 L 407,80 L 408,79 L 408,78 L 409,77 L 409,75 L 410,74 L 410,72 L 411,71 L 411,69 L 412,68 L 412,66 L 413,65 L 413,62 L 414,61 L 414,59 L 413,59 L 412,58 L 412,57 L 411,56 L 411,55 L 409,53 L 404,53 L 403,52 L 398,52 L 397,51 L 397,50 L 396,50 L 394,48 L 393,48 L 392,47 L 392,46 L 390,46 L 389,45 L 385,45 L 384,44 L 379,44 L 378,43 L 376,43 L 375,42 L 375,41 L 374,41 L 373,40 L 373,39 L 371,37 L 371,36 L 370,35 L 370,34 L 368,32 L 369,31 L 368,31 L 367,30 L 367,28 L 366,27 L 366,26 L 365,25 L 365,24 L 363,24 L 362,23 L 362,22 L 361,22 L 360,21 L 360,20 L 359,20 L 357,18 L 356,18 L 355,17 L 355,16 L 350,16 L 349,15 L 346,15 L 345,14 L 345,13 L 344,13 L 343,12 L 343,11 L 341,11 L 340,10 L 341,9 Z" fill="none" stroke="black" stroke-width="1"/>
</svg>