<svg xmlns="http://www.w3.org/2000/svg" width="463" height="477">
  <path d="M 258,37 L 257,38 L 256,38 L 255,39 L 253,39 L 252,40 L 246,40 L 245,39 L 240,39 L 239,38 L 235,38 L 234,39 L 233,39 L 232,40 L 231,40 L 230,41 L 229,41 L 229,42 L 227,44 L 225,44 L 224,45 L 222,45 L 221,44 L 216,44 L 215,43 L 211,43 L 210,42 L 208,42 L 208,44 L 207,45 L 207,48 L 206,49 L 206,51 L 205,52 L 205,54 L 204,55 L 204,57 L 203,58 L 203,60 L 202,61 L 202,62 L 201,63 L 201,65 L 200,66 L 200,68 L 201,69 L 200,70 L 200,71 L 201,72 L 200,73 L 200,74 L 201,75 L 201,76 L 200,77 L 200,79 L 199,80 L 199,82 L 198,83 L 198,85 L 197,86 L 197,87 L 196,88 L 196,90 L 195,91 L 195,93 L 194,94 L 194,95 L 193,96 L 193,97 L 192,98 L 191,98 L 191,99 L 190,100 L 189,100 L 189,102 L 188,103 L 187,103 L 186,104 L 186,106 L 185,107 L 185,108 L 184,109 L 183,109 L 183,110 L 178,115 L 178,117 L 177,118 L 177,120 L 176,121 L 176,122 L 175,123 L 175,125 L 174,126 L 175,126 L 176,127 L 178,127 L 179,126 L 181,126 L 182,125 L 184,125 L 185,124 L 187,124 L 188,125 L 192,125 L 193,126 L 196,126 L 197,127 L 197,128 L 198,128 L 201,131 L 202,131 L 203,132 L 207,132 L 208,133 L 213,133 L 214,134 L 218,134 L 219,135 L 222,135 L 223,134 L 225,134 L 226,133 L 228,133 L 229,132 L 230,132 L 231,133 L 235,133 L 236,134 L 241,134 L 242,135 L 246,135 L 247,136 L 247,137 L 248,137 L 249,138 L 249,140 L 250,141 L 250,143 L 251,143 L 252,144 L 252,143 L 253,142 L 253,141 L 254,140 L 255,140 L 258,137 L 259,138 L 260,137 L 261,137 L 261,136 L 262,135 L 263,135 L 263,134 L 264,133 L 264,131 L 267,128 L 267,127 L 268,126 L 269,126 L 271,124 L 272,124 L 274,122 L 275,122 L 276,121 L 277,121 L 277,120 L 278,119 L 279,119 L 279,118 L 280,117 L 281,117 L 281,116 L 282,115 L 283,115 L 283,114 L 288,109 L 288,108 L 289,107 L 290,107 L 290,105 L 291,104 L 292,105 L 292,104 L 293,103 L 294,103 L 296,101 L 297,101 L 297,99 L 300,96 L 301,96 L 301,95 L 304,92 L 305,92 L 306,91 L 307,91 L 307,90 L 309,88 L 310,88 L 312,86 L 313,86 L 313,85 L 314,84 L 314,78 L 315,77 L 315,75 L 316,74 L 316,73 L 317,72 L 317,70 L 318,69 L 318,68 L 319,67 L 319,65 L 320,64 L 320,63 L 321,62 L 321,60 L 322,59 L 322,57 L 323,56 L 323,55 L 324,54 L 324,52 L 325,51 L 325,50 L 326,49 L 326,45 L 325,44 L 325,43 L 324,43 L 324,44 L 323,45 L 322,44 L 319,47 L 318,47 L 316,49 L 314,49 L 312,51 L 311,50 L 306,50 L 305,49 L 300,49 L 299,48 L 295,48 L 294,47 L 294,46 L 293,46 L 292,45 L 293,44 L 292,44 L 290,42 L 285,42 L 284,41 L 279,41 L 278,40 L 273,40 L 272,39 L 267,39 L 266,38 L 261,38 L 260,37 Z" fill="none" stroke="black" stroke-width="1"/>
</svg>