<svg xmlns="http://www.w3.org/2000/svg" width="415" height="237">
  <path d="M 88,63 L 87,64 L 84,64 L 82,66 L 81,66 L 81,67 L 80,68 L 79,67 L 78,68 L 77,68 L 76,69 L 74,69 L 73,70 L 71,70 L 70,71 L 67,71 L 65,73 L 64,72 L 64,74 L 63,75 L 62,75 L 62,76 L 61,77 L 60,77 L 60,78 L 59,79 L 58,79 L 57,80 L 56,80 L 54,82 L 53,82 L 52,83 L 51,83 L 50,84 L 48,84 L 47,85 L 45,85 L 44,84 L 40,84 L 39,85 L 38,84 L 38,85 L 34,89 L 33,89 L 32,90 L 31,90 L 30,89 L 29,90 L 26,90 L 25,91 L 23,91 L 22,92 L 21,92 L 20,91 L 19,92 L 18,92 L 17,93 L 16,93 L 16,98 L 15,99 L 15,103 L 14,104 L 14,106 L 13,107 L 12,107 L 11,108 L 10,108 L 9,109 L 8,108 L 7,108 L 6,109 L 5,109 L 3,111 L 3,115 L 2,116 L 2,120 L 1,121 L 1,125 L 0,126 L 0,129 L 3,129 L 4,130 L 8,130 L 9,131 L 13,131 L 14,132 L 18,132 L 19,133 L 22,133 L 24,135 L 26,135 L 27,136 L 26,137 L 28,137 L 29,138 L 29,139 L 33,139 L 34,140 L 38,140 L 39,141 L 42,141 L 43,142 L 44,142 L 45,143 L 46,143 L 47,144 L 47,145 L 49,147 L 49,148 L 50,148 L 51,149 L 51,150 L 54,153 L 54,154 L 56,156 L 56,157 L 58,159 L 58,160 L 60,162 L 60,163 L 62,163 L 63,164 L 63,165 L 64,165 L 66,167 L 67,167 L 68,168 L 67,169 L 68,170 L 72,170 L 73,169 L 74,170 L 75,170 L 77,168 L 78,168 L 79,167 L 80,167 L 81,166 L 82,166 L 83,165 L 84,165 L 84,164 L 85,163 L 86,163 L 86,162 L 87,161 L 88,161 L 89,160 L 90,160 L 91,159 L 92,160 L 93,160 L 94,159 L 96,159 L 97,158 L 99,158 L 100,157 L 101,158 L 102,158 L 103,157 L 105,157 L 106,156 L 107,156 L 108,155 L 109,156 L 109,155 L 110,154 L 112,154 L 113,153 L 114,153 L 114,151 L 115,150 L 116,151 L 116,149 L 117,148 L 118,148 L 118,147 L 119,146 L 120,146 L 121,145 L 122,145 L 123,144 L 124,144 L 125,145 L 126,144 L 128,144 L 129,143 L 131,143 L 132,142 L 133,142 L 134,143 L 135,142 L 137,142 L 138,141 L 139,141 L 140,140 L 141,140 L 141,139 L 142,138 L 142,136 L 143,135 L 143,132 L 144,131 L 145,131 L 145,130 L 147,128 L 149,128 L 149,127 L 150,126 L 151,127 L 151,126 L 152,125 L 153,125 L 153,124 L 154,123 L 155,123 L 155,122 L 156,121 L 157,121 L 157,120 L 158,119 L 159,119 L 159,117 L 160,116 L 158,116 L 155,113 L 155,112 L 154,111 L 154,109 L 153,108 L 153,102 L 152,101 L 152,100 L 151,100 L 150,99 L 149,99 L 147,97 L 143,97 L 142,96 L 141,96 L 138,93 L 137,93 L 135,91 L 134,91 L 132,89 L 131,89 L 129,87 L 128,87 L 122,81 L 121,81 L 120,80 L 120,79 L 115,74 L 115,73 L 114,73 L 113,72 L 113,71 L 109,67 L 109,66 L 108,66 L 106,64 L 103,64 L 102,63 Z" fill="none" stroke="black" stroke-width="1"/>
</svg>