<svg xmlns="http://www.w3.org/2000/svg" width="415" height="237">
  <path d="M 160,117 L 160,119 L 159,120 L 158,120 L 158,121 L 157,122 L 156,122 L 156,123 L 155,124 L 154,124 L 154,125 L 153,126 L 152,126 L 152,127 L 151,128 L 150,127 L 150,128 L 149,129 L 147,129 L 146,130 L 146,131 L 145,132 L 144,132 L 144,135 L 143,136 L 143,138 L 142,139 L 142,140 L 141,141 L 140,141 L 139,142 L 138,142 L 137,143 L 135,143 L 134,144 L 133,143 L 132,143 L 131,144 L 129,144 L 128,145 L 126,145 L 125,146 L 124,145 L 123,145 L 122,146 L 121,146 L 120,147 L 119,147 L 119,148 L 118,149 L 117,149 L 117,151 L 116,152 L 115,151 L 115,153 L 114,154 L 113,154 L 112,155 L 110,155 L 110,156 L 109,157 L 108,156 L 107,157 L 106,157 L 105,158 L 103,158 L 102,159 L 101,159 L 100,158 L 99,159 L 97,159 L 96,160 L 94,160 L 93,161 L 92,161 L 91,160 L 90,161 L 89,161 L 88,162 L 87,162 L 87,163 L 86,164 L 85,164 L 85,165 L 84,166 L 83,166 L 82,167 L 81,167 L 80,168 L 79,168 L 78,169 L 77,169 L 75,171 L 74,171 L 73,170 L 72,171 L 68,171 L 67,170 L 67,171 L 68,172 L 68,173 L 69,174 L 69,175 L 68,176 L 69,177 L 69,179 L 74,184 L 74,185 L 75,186 L 75,187 L 74,188 L 74,191 L 75,192 L 74,193 L 75,194 L 75,196 L 76,197 L 75,198 L 76,199 L 76,201 L 78,203 L 78,204 L 80,206 L 80,207 L 81,208 L 82,208 L 83,209 L 83,210 L 84,210 L 87,213 L 87,214 L 92,219 L 93,219 L 94,220 L 94,221 L 95,221 L 98,224 L 99,224 L 100,225 L 104,225 L 105,226 L 104,227 L 106,227 L 109,230 L 110,230 L 111,231 L 111,232 L 112,232 L 115,235 L 116,235 L 117,236 L 119,236 L 120,235 L 120,233 L 121,232 L 122,232 L 123,231 L 124,231 L 125,230 L 127,230 L 128,229 L 129,230 L 130,230 L 131,229 L 133,229 L 134,228 L 135,228 L 136,229 L 138,227 L 139,227 L 141,225 L 142,225 L 142,224 L 143,223 L 144,223 L 145,222 L 146,222 L 148,220 L 149,220 L 150,219 L 151,220 L 152,219 L 153,219 L 158,214 L 159,214 L 161,212 L 163,212 L 164,211 L 165,212 L 166,212 L 167,211 L 168,211 L 169,210 L 170,210 L 170,209 L 171,208 L 172,208 L 173,207 L 173,205 L 175,203 L 176,203 L 176,202 L 177,201 L 178,201 L 179,200 L 180,200 L 182,198 L 183,198 L 184,197 L 185,197 L 186,196 L 187,196 L 192,191 L 193,191 L 193,190 L 194,189 L 195,189 L 196,188 L 197,188 L 199,186 L 200,186 L 201,185 L 202,186 L 202,185 L 203,184 L 206,184 L 207,183 L 207,182 L 208,181 L 208,179 L 209,178 L 209,177 L 210,176 L 210,174 L 215,169 L 216,169 L 217,168 L 218,168 L 219,167 L 220,167 L 222,165 L 223,165 L 224,164 L 225,164 L 225,163 L 226,162 L 227,162 L 227,161 L 228,160 L 229,160 L 229,159 L 230,158 L 231,158 L 231,157 L 232,156 L 233,156 L 234,155 L 234,153 L 235,152 L 235,150 L 236,149 L 236,148 L 237,147 L 237,145 L 238,144 L 238,143 L 237,143 L 235,145 L 233,145 L 232,146 L 231,146 L 230,147 L 229,147 L 228,146 L 226,146 L 225,147 L 224,146 L 219,146 L 218,145 L 218,144 L 217,144 L 216,143 L 216,142 L 215,142 L 213,140 L 212,140 L 211,141 L 204,141 L 203,140 L 202,140 L 201,139 L 200,139 L 199,138 L 197,138 L 196,137 L 194,137 L 193,136 L 191,136 L 190,135 L 189,135 L 188,134 L 187,134 L 184,131 L 183,131 L 182,130 L 181,130 L 180,129 L 180,128 L 179,128 L 178,127 L 178,126 L 176,124 L 175,124 L 171,120 L 169,120 L 168,119 L 164,119 L 162,117 Z" fill="none" stroke="black" stroke-width="1"/>
</svg>