<svg xmlns="http://www.w3.org/2000/svg" width="463" height="477">
  <path d="M 56,108 L 56,109 L 55,110 L 54,110 L 54,111 L 52,113 L 51,113 L 49,115 L 48,114 L 47,115 L 44,115 L 43,116 L 42,116 L 41,117 L 40,117 L 39,118 L 38,118 L 36,120 L 35,120 L 35,121 L 34,122 L 33,122 L 33,123 L 32,124 L 33,125 L 32,126 L 32,127 L 31,128 L 31,130 L 30,131 L 30,132 L 29,133 L 29,135 L 28,136 L 28,138 L 26,140 L 25,140 L 25,141 L 24,142 L 23,142 L 23,143 L 22,144 L 21,144 L 21,145 L 20,146 L 19,146 L 19,147 L 18,148 L 17,148 L 16,149 L 15,149 L 13,151 L 12,151 L 11,152 L 10,152 L 9,153 L 8,153 L 4,157 L 4,159 L 3,160 L 3,161 L 2,162 L 2,164 L 1,165 L 1,166 L 0,167 L 2,167 L 3,168 L 2,169 L 2,170 L 3,171 L 2,172 L 2,173 L 4,175 L 4,176 L 5,176 L 6,177 L 7,177 L 8,178 L 8,179 L 9,179 L 10,180 L 10,181 L 11,181 L 14,184 L 15,184 L 16,185 L 16,186 L 17,186 L 18,187 L 18,188 L 19,188 L 20,189 L 21,189 L 22,190 L 22,191 L 23,191 L 24,192 L 24,193 L 25,194 L 25,198 L 28,201 L 29,201 L 30,202 L 30,204 L 32,206 L 32,208 L 33,209 L 33,210 L 34,211 L 35,211 L 36,212 L 35,213 L 36,213 L 38,215 L 38,218 L 39,219 L 38,220 L 38,221 L 39,222 L 38,223 L 39,224 L 39,225 L 38,226 L 41,229 L 41,230 L 42,230 L 43,231 L 43,232 L 44,233 L 44,234 L 45,235 L 45,236 L 44,237 L 44,238 L 43,239 L 43,240 L 42,241 L 42,242 L 41,243 L 41,244 L 42,245 L 41,246 L 42,247 L 42,254 L 44,256 L 43,257 L 46,260 L 46,261 L 48,261 L 49,262 L 49,263 L 52,263 L 53,264 L 56,264 L 57,265 L 60,265 L 60,263 L 61,262 L 63,262 L 64,261 L 64,259 L 65,258 L 65,257 L 67,255 L 67,254 L 74,247 L 75,247 L 77,245 L 78,245 L 82,241 L 83,241 L 86,238 L 87,238 L 87,234 L 96,225 L 97,225 L 98,224 L 99,224 L 99,218 L 101,216 L 102,216 L 103,215 L 104,215 L 104,214 L 107,211 L 108,211 L 110,209 L 111,209 L 113,207 L 117,207 L 118,206 L 120,206 L 121,207 L 123,207 L 126,204 L 129,204 L 130,203 L 133,203 L 136,200 L 138,200 L 139,199 L 142,199 L 143,200 L 143,201 L 144,202 L 144,203 L 144,202 L 145,201 L 144,200 L 144,199 L 145,198 L 145,197 L 146,196 L 145,195 L 146,194 L 146,193 L 147,192 L 147,191 L 146,190 L 147,189 L 147,187 L 146,186 L 146,185 L 145,184 L 145,183 L 144,182 L 144,177 L 143,176 L 143,174 L 141,172 L 142,171 L 140,169 L 140,168 L 139,168 L 138,167 L 138,166 L 134,166 L 133,165 L 133,164 L 132,163 L 132,161 L 130,159 L 131,158 L 129,156 L 130,155 L 129,154 L 129,153 L 128,152 L 129,151 L 129,150 L 128,149 L 129,148 L 129,147 L 128,146 L 129,145 L 129,144 L 128,143 L 129,142 L 129,140 L 130,139 L 127,139 L 126,138 L 126,139 L 125,140 L 124,139 L 123,139 L 122,140 L 120,140 L 119,141 L 117,141 L 116,142 L 114,142 L 112,144 L 111,144 L 110,145 L 109,145 L 108,146 L 107,145 L 106,146 L 101,146 L 100,145 L 96,145 L 95,144 L 91,144 L 90,143 L 86,143 L 85,142 L 85,141 L 84,141 L 83,140 L 83,139 L 81,137 L 82,136 L 80,134 L 80,133 L 78,131 L 78,130 L 76,128 L 77,127 L 75,125 L 75,124 L 73,124 L 72,123 L 69,123 L 68,122 L 68,121 L 67,121 L 66,120 L 66,119 L 64,117 L 64,116 L 65,115 L 64,114 L 64,112 L 62,110 L 63,109 L 59,109 L 58,108 Z" fill="none" stroke="black" stroke-width="1"/>
</svg>