<svg xmlns="http://www.w3.org/2000/svg" width="280" height="187">
  <path d="M 190,1 L 189,2 L 188,2 L 187,3 L 185,3 L 184,4 L 183,3 L 181,3 L 180,4 L 178,4 L 177,5 L 176,4 L 175,4 L 174,5 L 171,5 L 170,4 L 168,4 L 167,3 L 163,3 L 162,2 L 158,2 L 157,3 L 156,2 L 154,2 L 153,3 L 151,3 L 150,4 L 149,4 L 148,3 L 147,4 L 145,4 L 144,5 L 143,5 L 142,6 L 141,6 L 139,8 L 138,7 L 137,7 L 136,8 L 133,8 L 132,9 L 131,8 L 130,8 L 129,9 L 127,9 L 126,10 L 127,11 L 127,12 L 129,14 L 129,16 L 130,17 L 130,18 L 131,19 L 131,21 L 132,22 L 132,23 L 133,24 L 133,26 L 134,27 L 134,30 L 135,31 L 135,32 L 137,32 L 139,34 L 140,34 L 141,35 L 142,35 L 143,36 L 143,37 L 149,43 L 149,45 L 150,46 L 150,47 L 151,48 L 151,50 L 152,51 L 152,56 L 153,56 L 155,58 L 156,58 L 157,59 L 158,59 L 160,61 L 161,61 L 162,62 L 165,62 L 168,65 L 168,66 L 169,66 L 170,67 L 170,68 L 173,71 L 173,72 L 174,72 L 175,73 L 175,74 L 176,74 L 177,75 L 177,76 L 178,77 L 178,78 L 179,79 L 179,80 L 182,83 L 183,83 L 184,84 L 185,84 L 186,85 L 187,85 L 188,86 L 189,86 L 190,87 L 190,88 L 193,91 L 193,92 L 194,93 L 194,94 L 195,94 L 196,95 L 197,95 L 198,94 L 200,94 L 201,93 L 202,94 L 203,94 L 204,93 L 206,93 L 207,92 L 208,93 L 212,93 L 213,94 L 216,94 L 217,95 L 221,95 L 222,96 L 225,96 L 226,95 L 227,95 L 228,94 L 229,95 L 229,93 L 230,92 L 231,93 L 231,91 L 232,90 L 233,91 L 234,90 L 235,90 L 237,88 L 238,88 L 238,87 L 239,86 L 240,86 L 240,85 L 241,84 L 242,84 L 242,83 L 243,82 L 244,82 L 245,81 L 246,81 L 247,80 L 248,81 L 249,81 L 250,80 L 253,80 L 254,81 L 257,81 L 258,82 L 262,82 L 263,83 L 267,83 L 268,84 L 271,84 L 272,85 L 276,85 L 277,86 L 279,86 L 279,85 L 277,83 L 276,83 L 275,82 L 275,81 L 274,81 L 272,79 L 272,78 L 270,76 L 270,75 L 268,73 L 268,71 L 267,70 L 268,69 L 267,68 L 267,66 L 266,65 L 267,64 L 266,63 L 266,60 L 267,59 L 267,58 L 266,57 L 266,56 L 261,51 L 261,49 L 260,48 L 261,47 L 261,46 L 260,45 L 260,44 L 259,43 L 259,41 L 260,40 L 259,40 L 257,38 L 256,38 L 255,37 L 255,36 L 253,36 L 252,35 L 252,34 L 250,32 L 250,31 L 248,29 L 248,28 L 246,26 L 246,25 L 243,22 L 243,21 L 242,21 L 241,20 L 241,19 L 239,17 L 239,16 L 238,16 L 237,15 L 236,15 L 235,14 L 232,14 L 231,13 L 227,13 L 226,12 L 222,12 L 221,11 L 221,10 L 219,10 L 218,9 L 219,8 L 217,8 L 215,6 L 212,6 L 211,5 L 207,5 L 206,4 L 202,4 L 201,3 L 197,3 L 196,2 L 193,2 L 192,1 Z" fill="none" stroke="black" stroke-width="1"/>
</svg>