<svg xmlns="http://www.w3.org/2000/svg" width="526" height="224">
  <path d="M 299,24 L 298,25 L 297,25 L 296,26 L 295,26 L 295,27 L 294,28 L 293,28 L 293,29 L 292,30 L 291,30 L 291,31 L 290,32 L 289,32 L 287,34 L 286,34 L 285,35 L 284,34 L 284,36 L 283,37 L 282,36 L 282,38 L 281,39 L 280,38 L 279,39 L 278,39 L 277,40 L 274,40 L 273,39 L 269,39 L 268,38 L 265,38 L 264,37 L 260,37 L 259,36 L 258,37 L 256,37 L 255,38 L 254,38 L 253,37 L 252,38 L 250,38 L 249,39 L 248,39 L 247,40 L 246,40 L 245,39 L 244,39 L 243,40 L 241,40 L 240,41 L 239,40 L 238,40 L 237,41 L 231,41 L 230,42 L 229,42 L 227,44 L 227,46 L 228,46 L 229,47 L 231,47 L 233,49 L 233,50 L 234,51 L 233,52 L 234,52 L 235,53 L 234,54 L 234,55 L 236,57 L 236,58 L 238,60 L 237,61 L 238,62 L 238,64 L 237,65 L 237,67 L 238,68 L 237,69 L 238,70 L 238,71 L 237,72 L 238,72 L 239,73 L 238,74 L 239,75 L 239,76 L 238,77 L 239,78 L 240,78 L 241,79 L 240,80 L 242,82 L 242,83 L 243,84 L 243,85 L 242,86 L 242,87 L 241,88 L 241,89 L 242,90 L 242,93 L 243,94 L 243,95 L 244,96 L 247,96 L 248,97 L 248,98 L 249,98 L 251,100 L 251,101 L 254,104 L 253,105 L 256,108 L 256,111 L 257,112 L 256,113 L 257,114 L 257,115 L 256,116 L 258,118 L 259,118 L 260,119 L 260,120 L 261,120 L 266,125 L 266,127 L 268,129 L 268,130 L 269,131 L 269,132 L 271,134 L 271,135 L 272,135 L 275,138 L 276,138 L 277,139 L 277,140 L 278,141 L 279,141 L 280,142 L 281,142 L 283,144 L 283,145 L 284,146 L 284,147 L 285,148 L 285,149 L 286,149 L 287,150 L 290,150 L 291,149 L 291,148 L 293,146 L 295,146 L 296,145 L 296,144 L 299,141 L 300,141 L 301,140 L 304,140 L 305,139 L 305,137 L 307,135 L 307,133 L 308,132 L 308,130 L 313,125 L 314,125 L 315,124 L 317,124 L 318,123 L 319,123 L 320,122 L 321,122 L 324,119 L 325,119 L 325,118 L 327,116 L 327,115 L 333,109 L 334,109 L 335,108 L 336,108 L 337,107 L 338,107 L 339,106 L 342,106 L 343,105 L 345,105 L 346,104 L 347,104 L 348,103 L 349,103 L 350,104 L 354,104 L 355,103 L 379,103 L 381,101 L 380,100 L 380,93 L 381,92 L 381,90 L 382,89 L 382,88 L 383,87 L 383,86 L 384,85 L 384,83 L 383,82 L 384,81 L 383,80 L 384,79 L 384,78 L 383,77 L 384,76 L 383,75 L 383,70 L 382,69 L 382,68 L 381,68 L 378,65 L 376,65 L 375,64 L 376,63 L 374,61 L 374,60 L 373,59 L 372,59 L 371,58 L 371,57 L 370,57 L 366,53 L 366,52 L 362,52 L 361,51 L 360,51 L 357,48 L 356,48 L 355,47 L 355,46 L 354,46 L 351,43 L 349,43 L 348,42 L 349,41 L 345,41 L 344,40 L 343,40 L 340,37 L 339,37 L 338,36 L 338,35 L 337,35 L 332,30 L 329,30 L 328,29 L 324,29 L 323,28 L 320,28 L 319,27 L 315,27 L 314,26 L 310,26 L 309,25 L 306,25 L 305,24 L 302,24 L 301,25 L 300,25 Z" fill="none" stroke="black" stroke-width="1"/>
</svg>