<svg xmlns="http://www.w3.org/2000/svg" width="526" height="224">
  <path d="M 459,113 L 456,116 L 458,116 L 460,114 Z" fill="none" stroke="black" stroke-width="1"/>
  <path d="M 448,0 L 448,1 L 447,2 L 446,1 L 445,2 L 444,2 L 442,4 L 441,4 L 440,5 L 439,5 L 439,6 L 438,7 L 437,7 L 432,12 L 431,12 L 430,13 L 429,13 L 428,14 L 427,14 L 425,16 L 424,16 L 423,17 L 422,17 L 422,18 L 421,19 L 420,19 L 419,20 L 419,22 L 417,24 L 416,24 L 416,25 L 415,26 L 414,26 L 413,27 L 412,27 L 411,28 L 410,28 L 409,27 L 408,28 L 406,28 L 404,30 L 403,30 L 398,35 L 397,35 L 396,36 L 395,35 L 394,36 L 393,36 L 391,38 L 390,38 L 389,39 L 388,39 L 388,40 L 387,41 L 386,41 L 384,43 L 383,43 L 381,45 L 380,44 L 379,44 L 378,45 L 376,45 L 375,46 L 374,46 L 373,45 L 372,46 L 370,46 L 369,47 L 368,47 L 367,48 L 366,48 L 366,50 L 365,51 L 366,51 L 367,52 L 367,53 L 370,56 L 371,56 L 372,57 L 372,58 L 373,58 L 375,60 L 375,61 L 377,63 L 376,64 L 378,64 L 381,67 L 382,67 L 383,68 L 383,69 L 384,70 L 384,75 L 385,76 L 384,77 L 385,78 L 385,79 L 384,80 L 385,81 L 384,82 L 385,83 L 385,85 L 384,86 L 384,87 L 383,88 L 383,89 L 382,90 L 382,92 L 381,93 L 381,100 L 382,101 L 381,102 L 381,103 L 385,103 L 386,102 L 387,102 L 388,103 L 390,103 L 391,104 L 389,106 L 392,109 L 393,108 L 396,108 L 397,107 L 396,106 L 397,105 L 397,103 L 398,102 L 399,102 L 400,101 L 401,101 L 403,103 L 404,103 L 405,104 L 406,104 L 407,103 L 408,103 L 410,105 L 411,104 L 412,104 L 414,106 L 416,106 L 417,105 L 418,105 L 419,106 L 420,106 L 420,104 L 421,103 L 427,103 L 429,105 L 429,107 L 430,108 L 431,108 L 432,107 L 434,107 L 435,108 L 435,106 L 433,106 L 432,105 L 432,103 L 434,101 L 435,102 L 435,103 L 436,104 L 437,103 L 439,103 L 437,101 L 437,100 L 439,98 L 441,98 L 442,97 L 446,97 L 447,98 L 449,98 L 450,99 L 451,99 L 452,100 L 455,100 L 457,102 L 457,103 L 458,103 L 460,105 L 460,106 L 462,106 L 463,105 L 462,104 L 463,103 L 464,103 L 465,102 L 466,102 L 467,103 L 470,103 L 474,107 L 474,108 L 475,109 L 475,110 L 481,110 L 482,111 L 482,112 L 481,113 L 480,113 L 479,114 L 469,114 L 468,115 L 465,115 L 466,116 L 466,117 L 467,118 L 467,119 L 468,120 L 468,121 L 469,120 L 471,120 L 472,121 L 473,121 L 474,120 L 478,120 L 479,119 L 479,118 L 480,117 L 481,117 L 482,116 L 483,117 L 485,117 L 487,119 L 490,119 L 491,118 L 491,117 L 493,115 L 496,115 L 497,114 L 497,112 L 498,111 L 500,111 L 501,112 L 504,112 L 506,114 L 506,115 L 508,115 L 509,114 L 512,114 L 512,112 L 513,111 L 515,111 L 517,113 L 518,113 L 520,111 L 524,111 L 524,110 L 525,109 L 525,106 L 524,106 L 523,105 L 523,104 L 522,104 L 521,105 L 520,105 L 519,104 L 518,104 L 517,103 L 515,103 L 515,105 L 514,106 L 513,105 L 512,106 L 510,106 L 509,105 L 509,104 L 512,101 L 512,98 L 509,98 L 508,97 L 505,97 L 504,96 L 501,96 L 500,95 L 500,94 L 498,94 L 497,93 L 497,92 L 494,89 L 495,88 L 493,86 L 493,79 L 492,78 L 493,77 L 492,76 L 492,75 L 493,74 L 493,73 L 494,72 L 494,71 L 495,70 L 495,69 L 496,68 L 496,67 L 495,66 L 495,65 L 494,64 L 494,63 L 493,63 L 492,62 L 492,61 L 489,58 L 490,57 L 490,56 L 489,55 L 490,54 L 489,53 L 489,52 L 490,51 L 489,50 L 489,47 L 488,46 L 487,46 L 486,45 L 487,44 L 486,44 L 484,42 L 484,41 L 483,40 L 483,38 L 481,36 L 481,34 L 480,34 L 476,30 L 476,26 L 475,25 L 475,24 L 474,24 L 473,23 L 473,22 L 472,22 L 471,21 L 470,21 L 469,20 L 469,19 L 468,19 L 467,18 L 467,17 L 466,17 L 463,14 L 462,14 L 461,13 L 461,12 L 460,12 L 459,11 L 459,10 L 458,10 L 457,9 L 456,9 L 455,8 L 455,7 L 453,5 L 453,4 L 454,3 L 453,2 L 453,1 L 454,0 Z" fill="none" stroke="black" stroke-width="1"/>
</svg>