<svg xmlns="http://www.w3.org/2000/svg" width="355" height="237">
  <path d="M 252,44 L 251,45 L 249,45 L 248,46 L 214,46 L 213,45 L 209,45 L 207,47 L 206,47 L 197,56 L 196,56 L 196,57 L 195,58 L 194,58 L 193,59 L 190,59 L 188,61 L 187,61 L 182,66 L 171,66 L 170,67 L 168,67 L 167,68 L 159,68 L 158,69 L 156,69 L 155,70 L 154,70 L 144,80 L 143,80 L 143,81 L 139,85 L 139,86 L 137,88 L 135,88 L 134,89 L 133,89 L 132,90 L 122,90 L 121,91 L 119,91 L 118,92 L 116,92 L 113,95 L 111,95 L 111,96 L 109,98 L 109,99 L 108,100 L 108,101 L 107,102 L 107,104 L 108,104 L 110,106 L 112,106 L 113,107 L 113,108 L 114,109 L 115,109 L 117,111 L 119,111 L 120,112 L 123,112 L 124,113 L 128,113 L 129,114 L 133,114 L 134,115 L 137,115 L 138,116 L 142,116 L 143,117 L 144,117 L 149,112 L 150,112 L 151,111 L 152,111 L 152,110 L 153,109 L 172,109 L 173,110 L 175,110 L 178,113 L 178,114 L 185,121 L 186,121 L 191,126 L 193,126 L 194,127 L 195,127 L 196,128 L 197,128 L 198,129 L 199,129 L 200,130 L 201,130 L 202,131 L 203,131 L 204,132 L 214,132 L 215,133 L 216,133 L 217,134 L 219,134 L 220,135 L 221,135 L 222,136 L 224,136 L 225,137 L 226,137 L 227,138 L 228,138 L 229,139 L 231,139 L 233,141 L 235,141 L 237,143 L 237,145 L 238,144 L 239,145 L 241,143 L 247,143 L 248,142 L 249,142 L 250,143 L 251,142 L 253,142 L 254,141 L 255,141 L 256,142 L 257,141 L 261,141 L 262,140 L 263,140 L 264,139 L 265,139 L 266,138 L 267,138 L 268,139 L 269,138 L 272,138 L 273,139 L 276,139 L 277,138 L 278,139 L 279,139 L 279,137 L 280,136 L 281,136 L 282,135 L 283,135 L 284,134 L 285,134 L 286,135 L 287,134 L 289,134 L 290,133 L 291,134 L 292,133 L 293,133 L 295,131 L 301,131 L 302,130 L 303,130 L 304,131 L 305,130 L 307,130 L 308,129 L 309,129 L 310,130 L 318,130 L 319,129 L 320,129 L 321,130 L 322,129 L 325,129 L 326,130 L 328,130 L 329,129 L 330,129 L 331,130 L 332,129 L 334,129 L 335,128 L 336,128 L 337,129 L 341,129 L 342,128 L 343,129 L 345,129 L 346,128 L 347,128 L 348,129 L 349,128 L 351,128 L 352,127 L 354,127 L 353,127 L 352,126 L 352,125 L 351,125 L 350,124 L 349,124 L 348,123 L 347,123 L 345,121 L 345,120 L 344,119 L 344,117 L 341,117 L 336,112 L 338,110 L 338,108 L 335,105 L 335,104 L 333,102 L 328,102 L 327,101 L 326,101 L 325,100 L 325,99 L 323,99 L 322,98 L 321,98 L 319,96 L 318,96 L 316,94 L 315,94 L 313,92 L 312,92 L 311,91 L 311,90 L 309,90 L 307,88 L 307,87 L 304,84 L 303,84 L 300,81 L 298,81 L 296,79 L 295,79 L 294,78 L 291,78 L 290,77 L 288,77 L 285,74 L 285,73 L 283,71 L 283,70 L 282,69 L 282,68 L 280,66 L 280,65 L 278,63 L 277,63 L 276,62 L 275,62 L 273,60 L 272,60 L 271,59 L 270,59 L 268,57 L 265,57 L 264,56 L 264,55 L 263,56 L 262,55 L 261,55 L 256,50 L 256,45 L 255,45 L 254,44 Z" fill="none" stroke="black" stroke-width="1"/>
</svg>