<svg xmlns="http://www.w3.org/2000/svg" width="280" height="187">
  <path d="M 170,104 L 169,105 L 168,105 L 167,106 L 166,106 L 165,107 L 161,107 L 160,108 L 159,108 L 158,107 L 157,108 L 155,108 L 154,109 L 153,109 L 152,110 L 150,110 L 149,111 L 148,111 L 146,113 L 145,113 L 144,114 L 143,114 L 142,113 L 141,114 L 138,114 L 137,113 L 134,113 L 133,112 L 129,112 L 128,111 L 126,111 L 125,112 L 124,112 L 123,111 L 122,112 L 119,112 L 118,113 L 117,112 L 116,113 L 113,113 L 112,114 L 111,113 L 110,114 L 107,114 L 106,115 L 105,114 L 104,114 L 102,116 L 101,116 L 100,117 L 100,118 L 99,119 L 97,117 L 96,117 L 95,118 L 93,118 L 92,119 L 91,118 L 90,118 L 89,119 L 87,119 L 86,118 L 85,119 L 81,119 L 80,118 L 79,118 L 78,119 L 76,119 L 75,120 L 74,119 L 73,119 L 72,120 L 70,120 L 69,119 L 66,119 L 65,120 L 64,119 L 63,119 L 62,120 L 54,120 L 53,119 L 52,119 L 51,120 L 49,120 L 48,121 L 47,120 L 46,120 L 45,121 L 39,121 L 37,123 L 36,123 L 35,124 L 34,123 L 33,124 L 31,124 L 30,125 L 29,124 L 28,124 L 27,125 L 26,125 L 25,126 L 24,126 L 27,126 L 28,127 L 31,127 L 32,128 L 33,128 L 34,129 L 35,129 L 39,133 L 39,134 L 40,135 L 42,135 L 43,136 L 42,137 L 44,137 L 46,139 L 47,139 L 48,140 L 49,140 L 50,141 L 50,142 L 53,142 L 54,143 L 58,143 L 59,144 L 60,144 L 62,146 L 62,147 L 63,148 L 62,149 L 63,150 L 63,151 L 64,152 L 64,153 L 65,154 L 66,154 L 67,155 L 67,156 L 70,156 L 71,157 L 73,157 L 76,160 L 78,160 L 79,161 L 79,162 L 80,162 L 82,164 L 82,165 L 83,166 L 83,167 L 84,168 L 84,171 L 85,171 L 87,173 L 87,176 L 88,177 L 88,178 L 89,179 L 88,180 L 88,181 L 90,181 L 91,182 L 93,182 L 95,184 L 117,184 L 118,185 L 122,185 L 123,184 L 125,184 L 126,185 L 126,186 L 126,185 L 127,184 L 127,182 L 128,181 L 128,180 L 129,179 L 130,179 L 130,178 L 131,177 L 132,177 L 132,176 L 133,175 L 134,175 L 135,174 L 135,172 L 139,168 L 141,168 L 142,167 L 143,167 L 144,166 L 145,166 L 146,165 L 150,165 L 151,164 L 152,164 L 153,165 L 154,164 L 156,164 L 157,163 L 158,163 L 159,162 L 160,162 L 163,159 L 164,159 L 164,158 L 165,157 L 166,157 L 166,156 L 167,155 L 168,155 L 169,154 L 170,154 L 171,153 L 172,153 L 173,152 L 175,152 L 176,151 L 177,152 L 178,152 L 179,151 L 181,151 L 182,150 L 183,151 L 186,151 L 187,152 L 190,152 L 190,151 L 189,150 L 189,147 L 188,146 L 188,145 L 189,144 L 189,143 L 190,142 L 190,141 L 189,140 L 189,139 L 187,137 L 188,136 L 187,136 L 185,134 L 186,133 L 186,132 L 185,131 L 186,130 L 185,130 L 184,129 L 185,128 L 185,127 L 184,126 L 185,125 L 184,124 L 184,122 L 185,121 L 185,119 L 184,118 L 185,117 L 183,115 L 183,114 L 181,112 L 181,111 L 182,110 L 181,110 L 180,109 L 181,108 L 180,107 L 180,106 L 179,105 L 177,105 L 176,104 Z" fill="none" stroke="black" stroke-width="1"/>
</svg>