<svg xmlns="http://www.w3.org/2000/svg" width="526" height="224">
  <path d="M 234,94 L 233,95 L 231,95 L 230,96 L 229,96 L 228,95 L 227,96 L 225,96 L 224,97 L 223,97 L 222,98 L 221,98 L 220,99 L 219,99 L 219,100 L 218,101 L 217,101 L 217,102 L 216,103 L 215,103 L 212,106 L 211,106 L 210,107 L 209,107 L 208,108 L 206,108 L 205,109 L 204,108 L 203,108 L 202,109 L 198,109 L 197,110 L 196,110 L 195,111 L 194,111 L 193,112 L 191,112 L 188,115 L 188,117 L 186,119 L 185,119 L 185,120 L 184,121 L 183,121 L 183,122 L 182,123 L 181,123 L 181,124 L 180,125 L 180,127 L 179,128 L 179,133 L 180,134 L 180,135 L 182,137 L 182,138 L 185,141 L 185,143 L 181,147 L 181,157 L 182,158 L 182,159 L 184,161 L 184,165 L 185,165 L 186,166 L 186,167 L 189,170 L 189,171 L 190,172 L 190,174 L 189,175 L 189,178 L 186,181 L 185,181 L 184,182 L 184,183 L 183,184 L 183,185 L 179,189 L 177,189 L 176,190 L 176,191 L 175,192 L 175,202 L 174,203 L 173,203 L 172,204 L 172,205 L 170,207 L 169,207 L 166,210 L 165,210 L 164,211 L 163,211 L 161,213 L 160,213 L 155,218 L 154,218 L 152,220 L 150,220 L 148,222 L 149,222 L 150,221 L 151,221 L 152,220 L 153,220 L 154,221 L 157,221 L 159,223 L 164,223 L 165,222 L 168,222 L 169,223 L 170,222 L 176,222 L 177,223 L 178,223 L 180,221 L 184,221 L 185,222 L 187,222 L 189,220 L 192,220 L 193,219 L 194,219 L 195,218 L 198,218 L 199,217 L 203,217 L 204,216 L 205,216 L 207,214 L 208,214 L 209,213 L 213,213 L 214,214 L 215,213 L 217,213 L 223,207 L 222,206 L 222,204 L 225,201 L 226,201 L 228,199 L 230,199 L 231,198 L 232,198 L 233,197 L 234,197 L 236,195 L 237,195 L 240,192 L 240,191 L 242,189 L 243,189 L 245,187 L 247,187 L 249,185 L 250,185 L 252,183 L 253,183 L 254,182 L 255,182 L 260,177 L 261,177 L 268,170 L 269,170 L 269,169 L 268,168 L 269,167 L 269,166 L 270,165 L 271,165 L 274,162 L 274,161 L 275,160 L 276,160 L 276,159 L 278,157 L 280,157 L 281,156 L 282,156 L 282,155 L 284,153 L 284,152 L 285,151 L 287,151 L 286,150 L 285,150 L 284,149 L 284,148 L 283,147 L 283,146 L 282,145 L 282,144 L 281,143 L 280,143 L 279,142 L 278,142 L 276,140 L 276,139 L 275,139 L 272,136 L 271,136 L 270,135 L 270,134 L 268,132 L 268,131 L 267,130 L 267,129 L 265,127 L 265,125 L 261,121 L 260,121 L 259,120 L 259,119 L 258,119 L 255,116 L 256,115 L 256,114 L 255,113 L 256,112 L 255,111 L 255,108 L 252,105 L 253,104 L 250,101 L 250,100 L 249,99 L 248,99 L 247,98 L 247,97 L 244,97 L 243,96 L 239,96 L 238,95 L 235,95 Z" fill="none" stroke="black" stroke-width="1"/>
</svg>