<svg xmlns="http://www.w3.org/2000/svg" width="111" height="142">
  <path d="M 54,15 L 53,16 L 53,17 L 54,16 Z" fill="none" stroke="black" stroke-width="1"/>
  <path d="M 50,14 L 50,16 Z" fill="none" stroke="black" stroke-width="1"/>
  <path d="M 27,12 L 26,13 L 24,13 L 23,14 L 23,18 L 21,20 L 21,21 L 8,34 L 7,34 L 5,36 L 4,36 L 3,37 L 4,38 L 7,38 L 9,40 L 9,42 L 8,43 L 8,44 L 7,45 L 7,48 L 6,49 L 5,49 L 4,50 L 4,51 L 5,52 L 5,56 L 6,57 L 6,58 L 4,60 L 4,61 L 3,62 L 3,68 L 5,68 L 6,67 L 10,67 L 11,68 L 11,71 L 9,73 L 10,74 L 1,83 L 1,85 L 2,86 L 2,89 L 1,90 L 1,91 L 0,92 L 0,97 L 2,99 L 2,100 L 3,100 L 4,101 L 6,101 L 7,102 L 8,102 L 9,103 L 11,103 L 12,102 L 14,102 L 15,101 L 17,101 L 18,100 L 19,100 L 21,98 L 22,98 L 23,97 L 24,97 L 25,96 L 26,96 L 27,95 L 34,95 L 34,94 L 35,93 L 35,90 L 36,89 L 37,89 L 38,88 L 39,88 L 40,87 L 40,86 L 41,85 L 41,84 L 42,83 L 42,74 L 45,71 L 45,70 L 46,69 L 46,68 L 47,67 L 49,67 L 51,69 L 51,70 L 52,69 L 53,69 L 54,68 L 54,67 L 55,66 L 55,65 L 56,64 L 56,63 L 58,61 L 57,60 L 57,57 L 58,56 L 59,56 L 60,55 L 61,55 L 61,54 L 64,51 L 64,50 L 65,49 L 66,49 L 67,48 L 69,48 L 70,49 L 72,49 L 73,50 L 81,50 L 80,49 L 80,45 L 82,43 L 83,43 L 84,42 L 93,42 L 95,44 L 96,44 L 97,45 L 98,45 L 99,44 L 101,44 L 102,45 L 103,45 L 104,46 L 106,46 L 106,45 L 107,44 L 109,44 L 109,41 L 107,41 L 105,39 L 103,39 L 101,37 L 101,36 L 100,36 L 99,35 L 98,35 L 97,34 L 96,34 L 95,33 L 95,32 L 94,31 L 93,31 L 90,28 L 90,27 L 91,26 L 90,25 L 90,24 L 88,24 L 87,23 L 86,23 L 85,22 L 84,22 L 83,21 L 83,19 L 82,20 L 81,20 L 80,21 L 78,21 L 77,22 L 75,22 L 74,21 L 71,21 L 70,20 L 69,20 L 68,19 L 67,19 L 68,20 L 68,29 L 67,30 L 67,31 L 66,32 L 66,33 L 65,34 L 65,35 L 64,36 L 60,36 L 59,35 L 65,29 L 65,27 L 63,27 L 62,28 L 62,29 L 61,30 L 61,31 L 59,33 L 58,33 L 57,34 L 56,34 L 55,35 L 53,35 L 52,36 L 45,36 L 43,34 L 44,33 L 45,33 L 46,32 L 48,32 L 49,31 L 49,30 L 52,27 L 53,27 L 49,27 L 47,25 L 46,25 L 45,24 L 45,23 L 46,22 L 48,22 L 51,19 L 46,19 L 43,22 L 42,22 L 42,23 L 43,24 L 44,24 L 45,25 L 45,27 L 44,28 L 44,29 L 43,30 L 41,30 L 40,29 L 39,29 L 37,31 L 36,31 L 35,30 L 35,29 L 34,28 L 34,27 L 35,26 L 35,25 L 37,23 L 37,22 L 36,21 L 36,16 L 37,15 L 37,14 L 38,13 L 37,12 L 36,12 L 35,13 L 29,13 L 28,12 Z" fill="none" stroke="black" stroke-width="1"/>
  <path d="M 41,2 L 40,3 L 38,3 L 36,5 L 36,6 L 38,4 L 39,4 L 40,5 L 41,5 L 42,4 L 42,3 L 43,2 Z" fill="none" stroke="black" stroke-width="1"/>
  <path d="M 49,0 L 49,2 L 45,6 L 45,8 L 47,6 L 48,6 L 49,7 L 49,8 L 50,9 L 50,10 L 51,11 L 52,11 L 55,8 L 55,6 L 57,4 L 59,4 L 59,3 L 56,3 L 55,2 L 53,2 L 52,1 L 51,1 L 50,0 Z" fill="none" stroke="black" stroke-width="1"/>
</svg>