<svg xmlns="http://www.w3.org/2000/svg" width="157" height="146">
  <path d="M 57,17 L 57,18 L 56,19 L 56,23 L 55,24 L 55,26 L 56,27 L 56,32 L 55,33 L 55,36 L 54,37 L 53,37 L 51,39 L 49,39 L 49,40 L 48,41 L 48,42 L 47,43 L 47,44 L 46,45 L 46,46 L 44,48 L 42,48 L 41,49 L 38,49 L 37,50 L 35,50 L 32,53 L 32,55 L 31,56 L 31,58 L 30,59 L 30,61 L 29,62 L 29,63 L 28,64 L 28,66 L 27,67 L 28,68 L 27,69 L 26,69 L 24,71 L 24,72 L 22,74 L 20,74 L 19,75 L 18,75 L 17,74 L 17,76 L 18,77 L 18,78 L 21,81 L 21,82 L 23,84 L 23,85 L 24,86 L 24,93 L 26,93 L 28,95 L 28,96 L 27,97 L 27,98 L 26,99 L 26,100 L 27,101 L 27,103 L 28,103 L 29,104 L 29,105 L 31,107 L 34,107 L 35,108 L 39,108 L 40,107 L 42,107 L 42,105 L 43,104 L 43,101 L 44,100 L 44,99 L 47,96 L 48,96 L 49,95 L 52,95 L 54,93 L 55,93 L 56,94 L 59,94 L 60,93 L 61,93 L 62,92 L 64,92 L 65,91 L 72,91 L 74,89 L 75,89 L 77,87 L 77,86 L 79,84 L 79,81 L 82,78 L 82,77 L 85,74 L 87,74 L 88,73 L 90,73 L 90,70 L 93,67 L 93,66 L 97,62 L 97,61 L 102,56 L 102,54 L 104,52 L 104,49 L 106,47 L 107,47 L 106,46 L 106,45 L 108,43 L 108,42 L 106,40 L 106,37 L 107,36 L 106,35 L 106,34 L 105,34 L 103,32 L 99,32 L 98,33 L 97,33 L 96,34 L 95,34 L 93,32 L 91,32 L 90,33 L 89,32 L 89,27 L 88,26 L 88,25 L 89,24 L 89,22 L 88,22 L 87,21 L 83,21 L 82,20 L 81,20 L 80,21 L 79,21 L 78,20 L 77,20 L 76,19 L 70,19 L 68,17 Z" fill="none" stroke="black" stroke-width="1"/>
</svg>