<svg xmlns="http://www.w3.org/2000/svg" width="111" height="142">
  <path d="M 84,43 L 83,44 L 82,44 L 81,45 L 81,49 L 82,50 L 83,50 L 84,51 L 85,51 L 87,53 L 88,53 L 90,55 L 91,55 L 92,56 L 92,58 L 93,58 L 94,59 L 94,61 L 93,62 L 92,62 L 91,63 L 91,73 L 90,74 L 90,75 L 89,76 L 87,76 L 86,77 L 85,77 L 84,78 L 81,78 L 80,79 L 76,79 L 74,81 L 75,81 L 78,84 L 78,86 L 81,89 L 82,89 L 83,90 L 84,90 L 85,91 L 86,91 L 87,92 L 87,93 L 88,93 L 89,94 L 91,94 L 92,95 L 94,95 L 94,92 L 96,90 L 97,90 L 97,88 L 98,87 L 97,86 L 97,83 L 99,81 L 100,81 L 100,80 L 99,79 L 101,77 L 101,76 L 103,74 L 104,74 L 104,73 L 108,69 L 109,69 L 107,67 L 107,66 L 109,64 L 110,64 L 109,63 L 108,63 L 104,59 L 104,58 L 105,57 L 106,57 L 106,56 L 107,55 L 107,53 L 106,52 L 106,51 L 104,49 L 103,49 L 99,45 L 98,46 L 97,46 L 96,45 L 95,45 L 93,43 Z" fill="none" stroke="black" stroke-width="1"/>
</svg>