<svg xmlns="http://www.w3.org/2000/svg" width="355" height="237">
  <path d="M 280,138 L 280,139 L 279,140 L 278,140 L 277,139 L 276,140 L 273,140 L 272,139 L 269,139 L 268,140 L 267,139 L 266,139 L 265,140 L 264,140 L 263,141 L 262,141 L 261,142 L 257,142 L 256,143 L 255,142 L 254,142 L 253,143 L 251,143 L 250,144 L 249,143 L 248,143 L 247,144 L 241,144 L 239,146 L 238,145 L 237,146 L 237,151 L 238,150 L 243,150 L 244,151 L 248,151 L 249,152 L 250,152 L 251,153 L 251,154 L 252,155 L 252,166 L 250,168 L 250,169 L 248,171 L 248,172 L 244,176 L 244,177 L 243,178 L 243,179 L 241,181 L 241,183 L 240,184 L 240,199 L 241,199 L 242,200 L 244,200 L 245,201 L 246,201 L 247,202 L 249,202 L 250,203 L 250,204 L 252,206 L 253,206 L 254,207 L 255,207 L 257,205 L 269,205 L 269,202 L 270,201 L 276,201 L 277,202 L 279,202 L 280,203 L 281,203 L 282,204 L 284,204 L 285,205 L 295,205 L 294,204 L 294,203 L 293,202 L 293,201 L 292,200 L 292,193 L 291,192 L 291,190 L 290,189 L 290,186 L 291,185 L 293,185 L 295,183 L 295,182 L 296,181 L 298,181 L 299,182 L 302,182 L 303,183 L 313,183 L 314,184 L 315,184 L 316,183 L 319,183 L 320,184 L 321,184 L 322,185 L 323,185 L 324,186 L 325,186 L 326,187 L 332,187 L 333,188 L 335,188 L 336,189 L 338,189 L 339,190 L 340,190 L 341,191 L 342,191 L 343,192 L 343,191 L 344,190 L 343,189 L 343,188 L 342,187 L 342,184 L 341,183 L 340,183 L 339,182 L 339,179 L 338,178 L 338,177 L 337,176 L 337,175 L 336,174 L 335,174 L 334,173 L 334,172 L 332,172 L 329,169 L 327,169 L 326,168 L 323,168 L 322,167 L 322,166 L 321,166 L 319,164 L 319,163 L 318,162 L 318,161 L 317,160 L 318,159 L 317,158 L 317,157 L 316,156 L 315,156 L 314,155 L 310,155 L 309,154 L 306,154 L 305,153 L 305,152 L 304,152 L 303,151 L 302,151 L 300,149 L 298,149 L 297,148 L 298,147 L 296,147 L 294,145 L 294,144 L 291,141 L 290,141 L 289,140 L 288,140 L 287,139 L 284,139 L 283,138 Z" fill="none" stroke="black" stroke-width="1"/>
</svg>