<svg xmlns="http://www.w3.org/2000/svg" width="526" height="224">
  <path d="M 92,114 L 92,115 L 89,118 L 87,118 L 87,121 L 88,122 L 88,124 L 89,125 L 89,132 L 90,133 L 90,134 L 91,135 L 91,136 L 92,137 L 91,138 L 81,138 L 80,137 L 78,137 L 77,136 L 76,136 L 75,135 L 73,135 L 72,134 L 66,134 L 66,137 L 65,138 L 53,138 L 51,140 L 50,140 L 49,139 L 48,139 L 45,136 L 45,135 L 43,135 L 42,134 L 41,134 L 40,133 L 38,133 L 37,132 L 35,132 L 34,131 L 29,131 L 29,132 L 28,133 L 27,133 L 25,135 L 18,135 L 17,134 L 4,134 L 0,138 L 3,138 L 8,143 L 8,144 L 9,145 L 9,146 L 12,149 L 12,150 L 13,151 L 13,153 L 14,154 L 15,154 L 18,157 L 18,159 L 20,161 L 20,164 L 21,165 L 21,173 L 20,174 L 19,174 L 19,175 L 17,177 L 16,177 L 16,178 L 20,182 L 21,182 L 22,183 L 26,183 L 27,184 L 33,184 L 35,186 L 37,186 L 38,187 L 44,187 L 45,186 L 46,186 L 47,185 L 50,185 L 51,186 L 56,186 L 59,183 L 60,183 L 62,181 L 63,181 L 64,180 L 66,180 L 67,181 L 68,181 L 71,184 L 71,185 L 72,185 L 73,184 L 75,184 L 76,185 L 78,185 L 79,186 L 81,186 L 82,187 L 79,190 L 79,191 L 80,190 L 81,190 L 82,189 L 84,189 L 85,190 L 85,189 L 86,188 L 91,188 L 92,187 L 98,187 L 101,190 L 104,187 L 106,187 L 107,186 L 109,186 L 111,184 L 115,184 L 116,185 L 117,185 L 119,187 L 119,188 L 120,189 L 121,189 L 122,190 L 123,190 L 124,189 L 124,188 L 126,186 L 128,186 L 129,185 L 133,185 L 134,186 L 144,186 L 145,185 L 151,185 L 152,186 L 157,186 L 158,187 L 158,188 L 161,191 L 162,191 L 165,194 L 165,195 L 166,196 L 166,197 L 167,198 L 167,199 L 171,203 L 172,203 L 173,202 L 174,202 L 174,192 L 175,191 L 175,190 L 177,188 L 179,188 L 182,185 L 182,184 L 183,183 L 183,182 L 185,180 L 186,180 L 188,178 L 188,175 L 189,174 L 189,172 L 188,171 L 188,170 L 185,167 L 185,166 L 184,166 L 183,165 L 183,161 L 181,159 L 181,158 L 180,157 L 180,147 L 184,143 L 184,141 L 181,138 L 181,137 L 179,135 L 179,134 L 178,133 L 178,130 L 177,129 L 177,128 L 175,128 L 174,129 L 170,129 L 169,128 L 147,128 L 145,126 L 143,126 L 142,125 L 139,125 L 138,124 L 137,124 L 136,123 L 135,123 L 134,122 L 132,122 L 131,121 L 129,121 L 128,120 L 122,120 L 121,119 L 120,119 L 119,118 L 118,118 L 117,117 L 116,117 L 115,116 L 112,116 L 111,117 L 110,117 L 109,116 L 99,116 L 98,115 L 95,115 L 94,114 Z" fill="none" stroke="black" stroke-width="1"/>
</svg>