<svg xmlns="http://www.w3.org/2000/svg" width="202" height="154">
  <path d="M 66,53 L 65,54 L 61,54 L 60,55 L 45,55 L 44,56 L 42,56 L 41,57 L 39,57 L 42,60 L 42,61 L 44,63 L 44,65 L 43,66 L 43,67 L 38,72 L 37,72 L 37,73 L 36,74 L 36,75 L 37,76 L 39,76 L 40,77 L 41,77 L 42,78 L 42,79 L 43,79 L 44,80 L 45,80 L 46,79 L 46,78 L 47,77 L 47,76 L 48,75 L 50,75 L 53,78 L 53,79 L 54,80 L 57,80 L 59,82 L 58,83 L 58,89 L 59,90 L 59,91 L 60,92 L 60,95 L 61,96 L 61,97 L 62,98 L 62,99 L 64,99 L 65,100 L 73,100 L 74,99 L 85,99 L 86,98 L 87,98 L 88,97 L 92,97 L 92,96 L 93,95 L 94,95 L 94,94 L 95,93 L 97,93 L 98,94 L 98,95 L 100,97 L 102,97 L 106,101 L 106,104 L 107,105 L 107,106 L 108,107 L 109,106 L 111,106 L 112,107 L 113,106 L 114,107 L 115,107 L 117,109 L 117,110 L 120,110 L 121,109 L 123,109 L 125,107 L 125,106 L 124,105 L 124,104 L 123,103 L 123,101 L 122,100 L 122,97 L 121,96 L 121,93 L 120,92 L 120,91 L 119,90 L 119,89 L 116,86 L 116,85 L 117,84 L 117,82 L 116,81 L 115,81 L 114,80 L 114,76 L 113,76 L 112,75 L 112,74 L 111,73 L 110,73 L 109,72 L 109,71 L 110,70 L 110,69 L 108,69 L 107,68 L 107,66 L 106,65 L 106,64 L 104,64 L 103,63 L 101,63 L 100,62 L 99,62 L 97,60 L 94,60 L 93,61 L 89,61 L 88,60 L 84,60 L 83,59 L 83,58 L 82,57 L 80,57 L 79,56 L 78,56 L 76,54 L 75,54 L 74,53 Z" fill="none" stroke="black" stroke-width="1"/>
</svg>