<svg xmlns="http://www.w3.org/2000/svg" width="355" height="237">
  <path d="M 19,83 L 18,84 L 16,84 L 15,85 L 12,85 L 11,86 L 10,86 L 9,87 L 8,87 L 7,88 L 6,88 L 6,94 L 5,95 L 4,95 L 4,96 L 3,97 L 3,98 L 2,99 L 2,100 L 3,101 L 3,102 L 4,103 L 4,104 L 5,105 L 5,106 L 6,106 L 7,107 L 7,108 L 8,109 L 8,110 L 9,111 L 9,115 L 10,116 L 10,117 L 11,118 L 11,119 L 12,120 L 12,133 L 11,134 L 10,134 L 10,136 L 6,140 L 5,140 L 5,141 L 4,142 L 4,146 L 3,147 L 3,148 L 1,150 L 1,151 L 0,152 L 0,159 L 1,160 L 1,161 L 2,162 L 2,169 L 3,170 L 3,184 L 2,185 L 2,189 L 1,190 L 1,196 L 0,197 L 0,202 L 1,203 L 4,203 L 5,204 L 6,204 L 7,205 L 7,206 L 8,206 L 9,207 L 12,207 L 13,206 L 15,206 L 16,205 L 17,205 L 19,203 L 19,202 L 21,200 L 22,200 L 23,201 L 27,201 L 28,200 L 29,200 L 30,199 L 31,199 L 31,196 L 30,195 L 30,192 L 33,189 L 44,189 L 45,190 L 45,191 L 46,192 L 48,192 L 49,193 L 50,193 L 51,194 L 60,194 L 60,193 L 61,192 L 62,192 L 63,191 L 63,189 L 65,187 L 68,187 L 69,186 L 70,186 L 71,185 L 72,185 L 72,182 L 74,180 L 75,181 L 77,181 L 79,183 L 83,183 L 84,184 L 87,184 L 88,185 L 88,186 L 89,186 L 90,187 L 90,188 L 91,189 L 91,190 L 93,192 L 93,193 L 97,193 L 100,196 L 101,196 L 102,197 L 114,197 L 115,198 L 116,198 L 117,199 L 119,199 L 119,198 L 120,197 L 120,195 L 121,194 L 121,192 L 122,191 L 122,190 L 123,189 L 123,188 L 124,187 L 124,186 L 125,185 L 125,183 L 126,182 L 126,179 L 127,178 L 127,177 L 128,176 L 128,174 L 129,173 L 129,171 L 130,170 L 130,167 L 131,166 L 131,165 L 130,166 L 129,165 L 129,164 L 130,163 L 130,154 L 129,153 L 129,142 L 131,140 L 131,139 L 132,138 L 132,135 L 131,134 L 131,128 L 127,124 L 127,118 L 128,117 L 129,117 L 131,115 L 133,115 L 129,115 L 128,114 L 124,114 L 123,113 L 120,113 L 119,112 L 117,112 L 115,110 L 114,110 L 112,108 L 112,107 L 110,107 L 108,109 L 107,109 L 106,108 L 105,109 L 102,109 L 101,108 L 97,108 L 96,107 L 93,107 L 92,106 L 88,106 L 87,105 L 84,105 L 83,104 L 79,104 L 78,103 L 75,103 L 74,102 L 73,102 L 72,101 L 71,101 L 69,99 L 67,99 L 66,98 L 66,97 L 63,97 L 61,95 L 61,94 L 60,94 L 59,93 L 55,93 L 54,92 L 52,92 L 51,91 L 50,91 L 49,90 L 46,90 L 45,91 L 44,91 L 43,90 L 41,90 L 40,89 L 39,89 L 38,88 L 31,88 L 30,87 L 28,87 L 27,86 L 26,86 L 25,85 L 23,85 L 22,84 L 21,84 L 20,83 Z" fill="none" stroke="black" stroke-width="1"/>
</svg>