<svg xmlns="http://www.w3.org/2000/svg" width="331" height="204">
  <path d="M 145,0 L 144,1 L 144,4 L 143,5 L 142,5 L 141,6 L 140,6 L 139,7 L 136,7 L 135,8 L 135,10 L 133,12 L 132,12 L 132,13 L 131,14 L 122,14 L 121,13 L 120,13 L 119,12 L 117,12 L 115,10 L 115,9 L 104,9 L 102,11 L 102,14 L 103,15 L 103,18 L 102,19 L 101,19 L 100,20 L 99,20 L 98,21 L 94,21 L 93,20 L 92,20 L 91,21 L 91,22 L 88,25 L 87,25 L 86,26 L 84,26 L 83,27 L 80,27 L 79,26 L 78,26 L 77,25 L 77,24 L 76,24 L 75,23 L 72,23 L 70,21 L 69,22 L 69,23 L 67,25 L 67,26 L 65,28 L 65,29 L 64,30 L 64,31 L 63,32 L 63,33 L 60,36 L 60,37 L 59,38 L 59,42 L 60,42 L 61,43 L 61,46 L 62,47 L 62,48 L 64,50 L 64,51 L 65,52 L 65,54 L 64,55 L 63,55 L 63,56 L 64,57 L 64,61 L 67,64 L 67,65 L 68,66 L 72,66 L 73,67 L 73,68 L 75,70 L 75,71 L 78,71 L 79,70 L 80,70 L 82,72 L 83,72 L 84,73 L 89,73 L 90,72 L 92,72 L 94,74 L 94,76 L 94,75 L 95,74 L 96,74 L 97,73 L 100,73 L 101,74 L 101,75 L 102,75 L 103,76 L 102,77 L 102,78 L 101,79 L 101,85 L 103,85 L 105,83 L 106,84 L 106,83 L 107,82 L 108,82 L 110,80 L 111,81 L 114,81 L 115,82 L 119,82 L 120,83 L 123,83 L 124,84 L 125,84 L 126,83 L 129,86 L 129,87 L 130,87 L 131,88 L 132,88 L 134,90 L 134,91 L 133,92 L 132,92 L 132,96 L 131,97 L 130,97 L 130,99 L 135,99 L 136,98 L 137,98 L 138,97 L 141,97 L 143,95 L 146,95 L 147,94 L 152,94 L 153,93 L 155,93 L 156,92 L 164,92 L 165,93 L 169,93 L 170,94 L 172,94 L 174,96 L 174,97 L 173,98 L 173,100 L 177,100 L 178,99 L 179,99 L 180,98 L 181,98 L 185,94 L 185,93 L 184,92 L 184,88 L 185,87 L 185,86 L 186,85 L 186,81 L 185,81 L 184,80 L 184,78 L 183,77 L 183,75 L 181,73 L 181,68 L 179,66 L 179,65 L 177,63 L 177,59 L 178,58 L 178,56 L 177,55 L 177,53 L 176,52 L 176,45 L 177,44 L 178,44 L 178,42 L 179,41 L 180,41 L 180,40 L 181,39 L 181,38 L 184,35 L 185,35 L 185,34 L 186,33 L 186,28 L 187,27 L 187,25 L 188,24 L 188,22 L 189,21 L 189,20 L 190,19 L 188,19 L 187,18 L 186,18 L 185,17 L 173,17 L 172,16 L 171,16 L 168,13 L 164,13 L 163,12 L 163,11 L 161,9 L 161,8 L 160,7 L 160,6 L 159,6 L 158,5 L 158,4 L 155,4 L 154,3 L 150,3 L 148,1 L 146,1 Z" fill="none" stroke="black" stroke-width="1"/>
</svg>