<svg xmlns="http://www.w3.org/2000/svg" width="331" height="204">
  <path d="M 89,117 L 88,118 L 87,118 L 87,119 L 84,122 L 84,123 L 85,122 L 86,122 L 87,121 L 90,121 L 90,120 L 91,119 L 90,118 L 91,117 Z" fill="none" stroke="black" stroke-width="1"/>
  <path d="M 110,81 L 108,83 L 107,83 L 107,84 L 106,85 L 105,84 L 103,86 L 101,86 L 100,87 L 100,92 L 99,93 L 100,94 L 100,95 L 99,96 L 99,97 L 98,98 L 98,103 L 97,104 L 98,105 L 98,108 L 99,109 L 99,110 L 98,111 L 98,112 L 97,113 L 97,114 L 96,115 L 95,115 L 94,116 L 94,117 L 95,118 L 95,121 L 94,122 L 93,122 L 93,123 L 92,124 L 91,124 L 91,126 L 90,127 L 89,127 L 87,129 L 86,129 L 85,128 L 83,130 L 82,130 L 80,132 L 81,133 L 80,134 L 80,137 L 81,137 L 82,138 L 82,139 L 84,139 L 85,140 L 85,141 L 86,141 L 87,142 L 88,142 L 89,143 L 89,144 L 91,144 L 94,147 L 96,147 L 97,148 L 100,148 L 101,149 L 104,149 L 105,150 L 109,150 L 110,151 L 112,151 L 113,150 L 114,151 L 115,151 L 116,150 L 122,150 L 123,151 L 127,151 L 128,152 L 131,152 L 132,153 L 135,153 L 136,154 L 139,154 L 140,155 L 144,155 L 145,156 L 148,156 L 149,157 L 151,157 L 152,156 L 152,154 L 156,150 L 158,150 L 158,145 L 160,143 L 162,143 L 165,140 L 166,140 L 167,139 L 168,139 L 172,135 L 175,135 L 175,132 L 176,131 L 176,130 L 177,129 L 181,129 L 183,127 L 187,127 L 186,127 L 184,125 L 186,123 L 189,123 L 190,122 L 191,122 L 192,121 L 195,121 L 195,120 L 198,117 L 200,117 L 201,116 L 201,114 L 202,113 L 203,113 L 203,111 L 205,109 L 206,109 L 207,108 L 207,107 L 208,106 L 208,105 L 210,103 L 211,103 L 211,102 L 210,102 L 209,101 L 210,100 L 211,100 L 211,98 L 209,98 L 208,97 L 206,97 L 205,96 L 198,96 L 197,97 L 194,97 L 193,96 L 188,96 L 187,95 L 185,95 L 181,99 L 180,99 L 179,100 L 178,100 L 177,101 L 173,101 L 172,100 L 172,98 L 173,97 L 173,96 L 172,95 L 170,95 L 169,94 L 165,94 L 164,93 L 156,93 L 155,94 L 153,94 L 152,95 L 147,95 L 146,96 L 143,96 L 141,98 L 138,98 L 137,99 L 136,99 L 135,100 L 130,100 L 129,99 L 129,97 L 130,96 L 131,96 L 131,92 L 132,91 L 133,91 L 133,90 L 132,89 L 131,89 L 130,88 L 129,88 L 128,87 L 128,86 L 126,84 L 125,85 L 124,85 L 123,84 L 120,84 L 119,83 L 115,83 L 114,82 L 111,82 Z" fill="none" stroke="black" stroke-width="1"/>
</svg>