<svg xmlns="http://www.w3.org/2000/svg" width="331" height="204">
  <path d="M 75,138 L 73,140 L 72,140 L 71,141 L 67,141 L 66,142 L 65,142 L 63,144 L 61,144 L 60,145 L 59,145 L 58,146 L 58,147 L 55,150 L 54,149 L 54,148 L 50,148 L 48,150 L 48,151 L 49,152 L 47,154 L 47,155 L 45,157 L 45,158 L 41,162 L 39,162 L 38,163 L 37,163 L 36,164 L 33,164 L 32,165 L 26,165 L 25,166 L 22,166 L 20,168 L 19,168 L 18,167 L 15,167 L 14,168 L 13,168 L 13,171 L 12,172 L 11,172 L 10,173 L 9,173 L 8,174 L 6,174 L 5,175 L 4,175 L 3,176 L 3,177 L 2,178 L 2,181 L 3,182 L 3,186 L 1,188 L 0,188 L 0,189 L 2,189 L 3,190 L 4,190 L 5,189 L 6,189 L 7,188 L 8,188 L 9,187 L 10,187 L 14,183 L 16,183 L 21,178 L 26,178 L 27,177 L 30,177 L 31,176 L 32,176 L 33,175 L 37,175 L 38,174 L 45,174 L 47,176 L 48,176 L 49,177 L 52,177 L 53,178 L 67,178 L 68,179 L 69,179 L 70,180 L 70,181 L 73,181 L 74,182 L 78,182 L 80,184 L 81,184 L 83,186 L 84,186 L 86,188 L 87,188 L 88,189 L 90,189 L 91,190 L 91,195 L 92,196 L 92,198 L 94,198 L 95,199 L 96,199 L 97,200 L 98,200 L 99,201 L 101,201 L 102,202 L 119,202 L 119,201 L 118,200 L 118,198 L 120,196 L 120,195 L 121,194 L 121,189 L 122,188 L 123,188 L 123,187 L 125,185 L 126,185 L 127,184 L 127,183 L 128,182 L 128,180 L 126,178 L 126,177 L 125,176 L 127,174 L 129,174 L 130,173 L 131,173 L 132,172 L 134,172 L 135,171 L 137,171 L 137,170 L 140,167 L 141,167 L 142,166 L 142,164 L 144,162 L 146,162 L 150,158 L 149,158 L 148,157 L 145,157 L 144,156 L 140,156 L 139,155 L 136,155 L 135,154 L 132,154 L 131,153 L 128,153 L 127,152 L 123,152 L 122,151 L 116,151 L 115,152 L 114,152 L 113,151 L 112,152 L 110,152 L 109,151 L 105,151 L 104,150 L 101,150 L 100,149 L 97,149 L 96,148 L 94,148 L 91,145 L 89,145 L 88,144 L 88,143 L 87,143 L 86,142 L 85,142 L 84,141 L 84,140 L 82,140 L 81,139 L 81,138 L 79,138 L 77,140 L 76,139 L 76,138 Z" fill="none" stroke="black" stroke-width="1"/>
</svg>