<svg xmlns="http://www.w3.org/2000/svg" width="331" height="204">
  <path d="M 270,122 L 268,124 L 266,124 L 265,123 L 262,123 L 261,124 L 259,124 L 258,125 L 257,125 L 256,126 L 255,126 L 255,127 L 254,128 L 253,128 L 250,131 L 249,131 L 248,132 L 246,132 L 245,133 L 243,133 L 242,134 L 241,134 L 240,135 L 240,140 L 239,141 L 238,141 L 238,144 L 237,145 L 232,145 L 231,146 L 230,146 L 229,147 L 226,147 L 225,148 L 224,148 L 223,149 L 220,149 L 219,150 L 217,150 L 215,152 L 214,152 L 213,153 L 209,153 L 207,155 L 206,155 L 205,154 L 202,154 L 200,156 L 199,156 L 198,157 L 197,156 L 196,156 L 195,155 L 194,155 L 193,156 L 192,155 L 191,155 L 190,156 L 178,156 L 177,157 L 176,157 L 176,158 L 175,159 L 167,159 L 166,158 L 165,158 L 163,156 L 162,156 L 161,155 L 161,152 L 160,151 L 160,150 L 159,151 L 156,151 L 153,154 L 153,156 L 146,163 L 144,163 L 143,164 L 143,166 L 141,168 L 140,168 L 138,170 L 138,171 L 137,172 L 135,172 L 134,173 L 132,173 L 131,174 L 130,174 L 129,175 L 127,175 L 126,176 L 127,177 L 127,178 L 129,180 L 129,182 L 128,183 L 128,184 L 126,186 L 125,186 L 124,187 L 124,188 L 123,189 L 122,189 L 122,194 L 121,195 L 121,196 L 119,198 L 119,200 L 120,201 L 120,202 L 129,202 L 130,201 L 135,201 L 136,200 L 137,200 L 138,199 L 142,199 L 143,198 L 144,198 L 145,197 L 148,197 L 149,196 L 150,196 L 151,195 L 154,195 L 155,194 L 158,194 L 159,193 L 161,193 L 162,192 L 163,192 L 164,191 L 165,191 L 167,189 L 169,189 L 171,187 L 172,187 L 173,188 L 180,188 L 181,189 L 182,189 L 184,191 L 184,192 L 185,192 L 188,195 L 193,195 L 194,196 L 195,195 L 196,195 L 197,194 L 198,194 L 199,193 L 200,193 L 201,192 L 202,192 L 203,193 L 204,193 L 205,194 L 207,194 L 209,196 L 209,197 L 210,197 L 211,198 L 212,198 L 213,199 L 214,199 L 215,200 L 217,200 L 218,201 L 222,201 L 223,202 L 225,202 L 226,203 L 228,203 L 229,202 L 230,202 L 233,199 L 234,199 L 239,194 L 243,194 L 244,193 L 248,193 L 250,191 L 250,187 L 248,187 L 247,186 L 248,185 L 248,184 L 249,183 L 249,182 L 252,179 L 252,178 L 253,177 L 253,175 L 257,171 L 257,170 L 256,169 L 258,167 L 259,167 L 259,165 L 260,164 L 260,162 L 261,161 L 261,160 L 262,159 L 263,159 L 267,155 L 268,155 L 269,154 L 271,154 L 271,152 L 272,151 L 272,148 L 270,146 L 270,144 L 271,143 L 271,141 L 270,141 L 269,140 L 265,140 L 264,141 L 262,141 L 260,139 L 260,137 L 262,135 L 264,135 L 265,134 L 265,133 L 268,130 L 269,130 L 274,125 L 276,125 L 277,124 L 278,125 L 281,125 L 280,124 L 280,123 L 279,122 L 278,123 L 277,122 L 273,122 L 272,123 L 271,122 Z" fill="none" stroke="black" stroke-width="1"/>
</svg>