<svg xmlns="http://www.w3.org/2000/svg" width="305" height="231">
  <path d="M 266,80 L 265,81 L 262,81 L 261,82 L 259,82 L 258,83 L 257,83 L 255,85 L 251,85 L 250,86 L 249,86 L 248,87 L 246,87 L 244,89 L 243,88 L 242,88 L 240,86 L 239,86 L 237,84 L 236,84 L 235,83 L 233,83 L 232,84 L 222,84 L 221,85 L 220,85 L 219,86 L 218,86 L 217,87 L 215,87 L 214,88 L 211,88 L 210,89 L 201,89 L 199,91 L 198,91 L 197,92 L 196,92 L 195,93 L 192,93 L 191,94 L 190,94 L 189,95 L 188,95 L 186,97 L 185,97 L 181,101 L 180,101 L 179,102 L 177,102 L 172,107 L 170,107 L 167,110 L 165,110 L 163,112 L 163,113 L 162,114 L 162,119 L 161,120 L 161,121 L 160,122 L 159,122 L 158,123 L 158,128 L 157,129 L 157,130 L 155,132 L 155,133 L 154,134 L 154,140 L 155,140 L 156,141 L 156,142 L 157,143 L 157,145 L 156,146 L 156,149 L 155,150 L 154,150 L 154,152 L 152,154 L 150,154 L 148,156 L 148,158 L 146,160 L 146,168 L 147,169 L 147,170 L 148,171 L 148,173 L 151,173 L 152,172 L 156,172 L 157,171 L 159,171 L 159,170 L 160,169 L 162,169 L 170,177 L 171,177 L 172,178 L 171,179 L 172,180 L 172,181 L 173,182 L 173,183 L 175,185 L 175,186 L 176,187 L 176,188 L 183,195 L 184,194 L 186,194 L 187,193 L 189,193 L 191,191 L 193,191 L 194,190 L 195,190 L 196,189 L 198,189 L 199,188 L 200,188 L 203,185 L 204,185 L 205,184 L 206,184 L 207,183 L 207,182 L 208,181 L 208,180 L 209,179 L 209,178 L 212,175 L 213,175 L 213,174 L 214,173 L 220,173 L 221,174 L 230,174 L 231,175 L 243,175 L 244,176 L 250,176 L 251,177 L 252,177 L 254,179 L 255,179 L 256,180 L 257,179 L 268,179 L 269,178 L 273,178 L 273,168 L 272,167 L 272,160 L 271,159 L 271,158 L 270,157 L 270,150 L 271,149 L 271,148 L 273,146 L 273,145 L 274,144 L 274,140 L 275,139 L 275,138 L 276,137 L 277,137 L 280,134 L 280,132 L 281,131 L 282,131 L 282,118 L 281,117 L 281,116 L 280,115 L 280,114 L 279,113 L 279,109 L 278,108 L 278,107 L 277,106 L 277,105 L 276,105 L 275,104 L 275,103 L 274,102 L 274,101 L 273,100 L 273,99 L 272,98 L 272,97 L 273,96 L 273,95 L 274,94 L 274,93 L 275,92 L 276,92 L 276,84 L 274,84 L 273,83 L 272,83 L 271,82 L 270,82 L 269,81 L 267,81 Z" fill="none" stroke="black" stroke-width="1"/>
</svg>