<svg xmlns="http://www.w3.org/2000/svg" width="291" height="198">
  <path d="M 252,63 L 250,65 L 249,65 L 248,66 L 247,66 L 246,67 L 245,66 L 239,66 L 238,67 L 237,67 L 237,68 L 236,69 L 235,69 L 235,70 L 233,72 L 230,72 L 229,73 L 229,74 L 225,78 L 225,79 L 224,80 L 224,81 L 223,82 L 220,82 L 219,83 L 218,83 L 218,85 L 215,88 L 214,88 L 214,91 L 216,93 L 216,94 L 215,95 L 215,100 L 213,102 L 212,102 L 211,103 L 209,103 L 208,104 L 206,104 L 205,105 L 204,105 L 203,106 L 200,106 L 199,107 L 193,107 L 192,106 L 188,106 L 187,105 L 185,105 L 184,104 L 178,104 L 177,103 L 174,103 L 173,104 L 171,104 L 170,105 L 159,105 L 158,106 L 157,106 L 156,107 L 154,107 L 153,108 L 152,108 L 151,109 L 147,109 L 146,110 L 138,110 L 137,111 L 135,111 L 134,110 L 133,110 L 134,110 L 135,111 L 136,111 L 138,113 L 138,116 L 140,116 L 141,117 L 141,121 L 140,122 L 140,123 L 139,124 L 139,126 L 138,127 L 138,133 L 137,134 L 137,136 L 136,137 L 133,137 L 133,139 L 132,140 L 129,140 L 129,142 L 131,144 L 130,145 L 129,145 L 128,146 L 129,147 L 129,148 L 128,149 L 128,150 L 129,151 L 128,152 L 128,153 L 126,155 L 126,157 L 128,157 L 129,158 L 129,159 L 131,161 L 132,161 L 134,163 L 136,163 L 137,164 L 141,164 L 143,166 L 144,166 L 145,167 L 154,167 L 155,168 L 156,168 L 157,169 L 158,169 L 159,170 L 161,170 L 162,171 L 163,171 L 164,172 L 165,172 L 166,173 L 168,173 L 169,172 L 171,172 L 172,173 L 173,173 L 174,174 L 176,174 L 177,175 L 179,175 L 181,177 L 180,178 L 180,182 L 181,183 L 181,187 L 183,189 L 182,190 L 182,192 L 184,192 L 187,195 L 189,195 L 191,197 L 198,197 L 199,196 L 199,192 L 198,191 L 198,188 L 199,187 L 199,186 L 201,184 L 202,184 L 203,183 L 205,183 L 206,182 L 207,182 L 208,181 L 209,181 L 209,177 L 208,177 L 207,176 L 206,176 L 205,175 L 204,175 L 203,174 L 201,174 L 200,173 L 199,173 L 198,172 L 198,171 L 199,170 L 202,170 L 203,169 L 216,169 L 218,167 L 219,167 L 220,168 L 222,168 L 223,167 L 225,167 L 227,165 L 228,165 L 229,164 L 230,164 L 233,161 L 234,161 L 234,160 L 241,153 L 243,153 L 244,152 L 245,152 L 246,151 L 247,151 L 251,147 L 252,147 L 252,146 L 254,144 L 255,144 L 256,143 L 258,143 L 259,142 L 263,142 L 264,141 L 264,140 L 265,139 L 267,139 L 267,137 L 264,140 L 262,140 L 261,141 L 259,141 L 258,142 L 257,142 L 255,144 L 254,143 L 254,141 L 255,140 L 256,140 L 257,139 L 258,139 L 260,137 L 261,137 L 263,135 L 264,135 L 264,133 L 268,129 L 269,129 L 270,128 L 271,128 L 274,125 L 274,124 L 275,123 L 275,122 L 276,121 L 276,120 L 277,119 L 277,118 L 279,116 L 279,113 L 281,111 L 281,110 L 282,109 L 282,108 L 283,107 L 283,105 L 285,103 L 285,101 L 286,100 L 287,100 L 287,98 L 288,97 L 288,92 L 287,91 L 287,89 L 288,88 L 289,88 L 290,87 L 290,84 L 289,83 L 287,83 L 286,84 L 281,84 L 280,83 L 279,83 L 277,81 L 276,81 L 275,82 L 272,82 L 271,81 L 271,80 L 269,78 L 269,77 L 265,77 L 263,75 L 263,74 L 260,71 L 260,67 L 259,66 L 259,65 L 257,65 L 256,64 L 255,64 L 254,63 Z" fill="none" stroke="black" stroke-width="1"/>
</svg>