<svg xmlns="http://www.w3.org/2000/svg" width="305" height="231">
  <path d="M 54,77 L 53,78 L 45,78 L 44,79 L 44,80 L 40,84 L 38,84 L 40,86 L 39,87 L 38,87 L 37,88 L 36,88 L 35,89 L 34,88 L 34,87 L 34,88 L 33,89 L 32,89 L 31,90 L 31,91 L 30,92 L 29,92 L 28,93 L 26,93 L 26,94 L 22,98 L 22,99 L 21,100 L 21,101 L 20,102 L 20,103 L 19,104 L 19,106 L 18,107 L 18,108 L 17,109 L 16,109 L 15,110 L 15,111 L 14,112 L 13,112 L 13,113 L 12,114 L 11,114 L 9,116 L 8,116 L 6,118 L 6,120 L 5,121 L 5,124 L 4,125 L 4,127 L 5,128 L 5,129 L 7,131 L 8,131 L 10,133 L 10,135 L 8,137 L 8,143 L 9,144 L 10,144 L 11,145 L 11,146 L 12,146 L 17,151 L 17,153 L 18,154 L 18,155 L 19,156 L 19,158 L 21,158 L 22,159 L 23,159 L 24,160 L 25,160 L 26,159 L 26,158 L 27,157 L 27,155 L 28,154 L 28,153 L 29,152 L 29,151 L 30,150 L 36,150 L 37,149 L 38,149 L 40,147 L 41,147 L 43,145 L 44,145 L 46,143 L 46,142 L 48,140 L 52,140 L 53,141 L 56,141 L 57,142 L 61,142 L 62,143 L 69,143 L 70,144 L 71,144 L 73,146 L 74,146 L 76,148 L 76,149 L 77,149 L 79,151 L 82,151 L 83,152 L 85,152 L 87,154 L 98,154 L 100,156 L 100,157 L 103,160 L 104,160 L 108,164 L 108,165 L 109,166 L 110,166 L 112,164 L 113,164 L 114,165 L 115,165 L 117,167 L 119,167 L 120,168 L 122,168 L 123,169 L 123,170 L 124,170 L 126,172 L 126,173 L 134,173 L 136,175 L 137,175 L 138,174 L 140,174 L 141,173 L 147,173 L 147,171 L 146,170 L 146,169 L 145,168 L 145,160 L 147,158 L 147,156 L 150,153 L 152,153 L 153,152 L 153,150 L 154,149 L 155,149 L 155,146 L 156,145 L 156,143 L 155,142 L 155,141 L 154,141 L 153,140 L 153,134 L 154,133 L 154,132 L 156,130 L 156,129 L 157,128 L 157,123 L 159,121 L 160,121 L 160,120 L 161,119 L 161,114 L 162,113 L 162,112 L 163,111 L 153,101 L 150,101 L 149,100 L 148,100 L 144,96 L 144,95 L 140,95 L 139,96 L 137,96 L 136,95 L 135,95 L 134,94 L 133,94 L 132,93 L 130,93 L 129,94 L 128,94 L 127,93 L 126,93 L 125,92 L 124,92 L 123,91 L 121,91 L 120,92 L 119,92 L 118,91 L 117,91 L 116,90 L 115,90 L 114,89 L 111,89 L 110,90 L 107,90 L 106,89 L 104,89 L 103,88 L 102,88 L 101,87 L 100,88 L 89,88 L 88,87 L 87,87 L 86,86 L 85,86 L 84,85 L 83,85 L 82,84 L 70,84 L 69,83 L 68,83 L 66,81 L 65,81 L 64,80 L 63,80 L 62,79 L 61,80 L 60,79 L 59,79 L 58,78 L 57,78 L 56,77 Z" fill="none" stroke="black" stroke-width="1"/>
</svg>