<svg xmlns="http://www.w3.org/2000/svg" width="291" height="198">
  <path d="M 118,0 L 114,4 L 114,5 L 112,7 L 111,7 L 109,9 L 105,9 L 104,10 L 106,12 L 107,12 L 111,16 L 111,18 L 112,19 L 112,22 L 111,23 L 111,24 L 110,25 L 110,33 L 108,35 L 108,36 L 105,39 L 103,39 L 102,40 L 101,40 L 101,41 L 100,42 L 101,43 L 101,48 L 97,52 L 97,58 L 98,59 L 98,60 L 99,61 L 99,62 L 100,63 L 100,78 L 101,78 L 102,79 L 102,80 L 104,80 L 105,81 L 105,83 L 102,86 L 102,88 L 104,90 L 105,90 L 106,91 L 108,91 L 115,98 L 117,98 L 118,99 L 124,99 L 127,102 L 127,103 L 128,104 L 128,108 L 129,109 L 134,109 L 135,110 L 137,110 L 138,109 L 146,109 L 147,108 L 151,108 L 152,107 L 153,107 L 154,106 L 156,106 L 157,105 L 158,105 L 159,104 L 170,104 L 171,103 L 173,103 L 173,100 L 172,99 L 171,99 L 169,101 L 168,101 L 166,99 L 166,96 L 167,95 L 167,91 L 168,90 L 168,89 L 169,88 L 169,87 L 170,86 L 171,86 L 171,84 L 172,83 L 172,82 L 173,81 L 174,81 L 174,80 L 175,79 L 175,78 L 176,77 L 177,77 L 177,76 L 178,75 L 177,75 L 176,74 L 176,73 L 174,71 L 174,65 L 173,64 L 173,63 L 172,62 L 173,61 L 170,58 L 170,56 L 171,55 L 174,55 L 175,56 L 177,56 L 179,54 L 180,54 L 181,53 L 182,53 L 183,52 L 183,51 L 185,49 L 185,48 L 184,47 L 184,45 L 185,44 L 186,44 L 187,43 L 186,42 L 186,39 L 184,37 L 184,36 L 182,34 L 182,33 L 183,32 L 182,32 L 181,31 L 181,30 L 180,29 L 180,28 L 179,27 L 179,26 L 172,19 L 172,18 L 171,17 L 171,16 L 169,14 L 169,13 L 168,12 L 168,11 L 167,10 L 168,9 L 167,9 L 159,1 L 157,1 L 157,2 L 156,3 L 154,3 L 153,4 L 149,4 L 148,5 L 138,5 L 137,6 L 135,6 L 134,7 L 133,7 L 131,5 L 123,5 L 122,4 L 122,3 L 121,2 L 120,2 L 119,1 L 119,0 Z" fill="none" stroke="black" stroke-width="1"/>
</svg>