<svg xmlns="http://www.w3.org/2000/svg" width="291" height="198">
  <path d="M 102,91 L 101,92 L 98,92 L 97,93 L 96,93 L 95,92 L 91,92 L 90,93 L 89,93 L 88,94 L 86,94 L 85,95 L 84,95 L 83,96 L 83,104 L 81,106 L 75,106 L 74,107 L 64,107 L 63,108 L 61,108 L 60,109 L 60,110 L 59,111 L 59,114 L 58,115 L 59,116 L 59,117 L 61,119 L 61,120 L 62,121 L 61,122 L 63,124 L 63,125 L 64,125 L 66,127 L 67,127 L 69,129 L 70,129 L 71,130 L 76,130 L 77,129 L 79,129 L 80,130 L 81,130 L 82,131 L 83,131 L 84,132 L 84,131 L 85,130 L 86,131 L 86,130 L 87,129 L 88,129 L 90,131 L 91,130 L 93,130 L 94,129 L 93,128 L 95,126 L 96,126 L 97,127 L 98,127 L 100,129 L 103,129 L 106,132 L 107,132 L 109,134 L 112,134 L 113,135 L 114,135 L 115,136 L 114,137 L 117,137 L 119,139 L 124,139 L 125,138 L 126,138 L 127,139 L 132,139 L 132,137 L 133,136 L 136,136 L 136,134 L 137,133 L 137,127 L 138,126 L 138,124 L 139,123 L 139,122 L 140,121 L 140,117 L 138,117 L 137,116 L 137,113 L 136,112 L 135,112 L 134,111 L 133,111 L 132,110 L 129,110 L 127,108 L 127,104 L 126,103 L 126,102 L 124,100 L 118,100 L 117,99 L 115,99 L 108,92 L 106,92 L 105,91 Z" fill="none" stroke="black" stroke-width="1"/>
</svg>