<svg xmlns="http://www.w3.org/2000/svg" width="232" height="305">
  <path d="M 157,188 L 156,189 L 150,189 L 147,192 L 147,193 L 146,194 L 146,195 L 145,196 L 144,196 L 140,200 L 138,200 L 127,211 L 127,212 L 126,213 L 126,214 L 123,217 L 123,218 L 122,219 L 122,221 L 121,222 L 121,226 L 120,227 L 120,231 L 119,232 L 119,236 L 118,237 L 118,239 L 117,240 L 117,241 L 116,242 L 115,242 L 114,243 L 114,244 L 110,248 L 109,248 L 107,250 L 107,251 L 105,253 L 104,253 L 104,254 L 103,255 L 103,256 L 101,258 L 100,258 L 98,260 L 96,260 L 96,262 L 97,263 L 97,270 L 96,271 L 96,277 L 97,277 L 98,278 L 98,279 L 101,282 L 101,283 L 103,285 L 103,286 L 104,286 L 108,290 L 109,290 L 110,289 L 112,289 L 113,290 L 114,290 L 115,291 L 115,292 L 116,293 L 116,295 L 117,296 L 117,297 L 123,297 L 124,296 L 125,296 L 126,295 L 127,295 L 128,294 L 130,294 L 132,292 L 139,292 L 140,291 L 141,291 L 142,292 L 143,292 L 144,293 L 145,293 L 146,294 L 148,294 L 153,299 L 154,298 L 160,298 L 161,299 L 162,298 L 163,299 L 164,299 L 165,300 L 168,300 L 169,299 L 170,300 L 171,300 L 173,302 L 173,303 L 174,304 L 184,304 L 185,303 L 193,303 L 194,302 L 196,302 L 197,301 L 199,301 L 199,300 L 198,299 L 198,298 L 199,297 L 199,296 L 200,295 L 200,293 L 201,292 L 200,292 L 197,289 L 197,288 L 196,287 L 196,279 L 195,278 L 195,267 L 196,266 L 196,265 L 197,264 L 198,264 L 198,257 L 200,255 L 200,254 L 202,252 L 202,251 L 205,248 L 205,247 L 206,246 L 206,244 L 208,242 L 209,242 L 212,239 L 212,238 L 215,235 L 215,234 L 216,233 L 216,232 L 218,230 L 218,229 L 219,228 L 219,226 L 220,225 L 220,224 L 219,223 L 218,223 L 217,222 L 215,222 L 214,221 L 214,219 L 213,218 L 213,217 L 212,216 L 212,214 L 208,210 L 198,210 L 197,211 L 193,211 L 192,210 L 189,210 L 187,208 L 186,208 L 185,207 L 184,207 L 183,206 L 182,207 L 181,206 L 180,206 L 178,204 L 178,203 L 177,202 L 176,202 L 175,201 L 174,202 L 171,202 L 170,201 L 169,201 L 167,199 L 164,199 L 159,194 L 157,194 L 156,193 L 156,192 L 157,191 L 157,189 L 158,188 Z" fill="none" stroke="black" stroke-width="1"/>
</svg>