<svg xmlns="http://www.w3.org/2000/svg" width="308" height="163">
  <path d="M 63,0 L 62,1 L 55,1 L 53,3 L 51,3 L 50,4 L 49,4 L 48,5 L 47,5 L 46,6 L 42,6 L 41,7 L 42,7 L 43,8 L 44,8 L 45,9 L 46,8 L 47,9 L 48,9 L 49,10 L 52,10 L 53,9 L 54,10 L 54,11 L 55,12 L 55,14 L 54,15 L 54,16 L 55,17 L 55,20 L 56,21 L 56,22 L 55,23 L 55,25 L 52,28 L 52,29 L 51,30 L 50,30 L 50,31 L 46,35 L 47,36 L 52,36 L 53,37 L 53,38 L 54,39 L 54,40 L 53,41 L 53,44 L 52,45 L 52,48 L 51,49 L 54,52 L 54,53 L 55,54 L 55,55 L 56,56 L 55,57 L 55,59 L 53,61 L 53,62 L 51,64 L 50,64 L 44,70 L 43,70 L 43,71 L 42,72 L 42,73 L 41,74 L 41,77 L 40,78 L 43,78 L 44,77 L 48,77 L 50,75 L 51,75 L 52,74 L 53,74 L 54,73 L 55,73 L 58,70 L 59,70 L 61,68 L 73,68 L 74,67 L 80,67 L 81,68 L 90,68 L 91,69 L 92,69 L 94,71 L 95,71 L 96,72 L 97,72 L 99,74 L 99,76 L 100,76 L 105,81 L 106,81 L 107,82 L 108,82 L 109,83 L 110,83 L 111,84 L 112,84 L 113,85 L 114,85 L 115,86 L 116,86 L 117,87 L 117,94 L 118,95 L 118,97 L 119,98 L 120,98 L 121,99 L 122,99 L 126,103 L 130,103 L 131,104 L 136,104 L 137,105 L 141,105 L 142,106 L 150,106 L 151,107 L 152,107 L 154,105 L 155,105 L 156,106 L 157,105 L 158,105 L 158,104 L 159,103 L 161,103 L 164,100 L 165,100 L 166,99 L 167,99 L 168,98 L 169,98 L 170,97 L 170,96 L 172,94 L 170,92 L 167,92 L 165,90 L 165,89 L 168,86 L 169,86 L 170,85 L 171,85 L 172,84 L 177,84 L 178,83 L 180,83 L 181,84 L 182,84 L 183,83 L 183,78 L 184,77 L 185,77 L 183,75 L 184,74 L 185,74 L 186,73 L 197,73 L 198,72 L 199,72 L 200,71 L 203,71 L 202,71 L 201,70 L 199,70 L 198,71 L 193,71 L 192,70 L 191,70 L 189,68 L 188,68 L 186,66 L 185,66 L 184,65 L 184,64 L 182,62 L 183,61 L 182,60 L 182,59 L 180,57 L 180,56 L 179,55 L 180,54 L 180,51 L 181,50 L 181,46 L 178,43 L 178,41 L 177,40 L 176,40 L 175,39 L 174,39 L 173,38 L 171,38 L 170,37 L 170,30 L 167,27 L 165,27 L 164,26 L 163,26 L 160,23 L 160,22 L 157,19 L 150,19 L 149,18 L 145,18 L 144,17 L 139,17 L 138,16 L 137,16 L 136,15 L 136,14 L 130,14 L 128,12 L 127,12 L 126,11 L 125,11 L 124,10 L 120,10 L 119,11 L 117,11 L 116,12 L 108,12 L 107,13 L 97,13 L 95,11 L 95,10 L 94,9 L 93,9 L 92,8 L 91,9 L 88,9 L 87,8 L 86,8 L 85,7 L 84,8 L 83,7 L 77,7 L 76,8 L 71,3 L 69,3 L 68,2 L 67,2 L 66,1 L 65,1 L 64,0 Z" fill="none" stroke="black" stroke-width="1"/>
</svg>