<svg xmlns="http://www.w3.org/2000/svg" width="308" height="163">
  <path d="M 74,68 L 73,69 L 61,69 L 59,71 L 58,71 L 55,74 L 54,74 L 53,75 L 52,75 L 51,76 L 50,76 L 48,78 L 47,78 L 45,80 L 44,80 L 41,83 L 39,83 L 38,84 L 37,84 L 33,88 L 32,88 L 32,89 L 31,90 L 31,91 L 30,92 L 30,93 L 27,96 L 26,96 L 24,98 L 25,98 L 26,99 L 26,104 L 25,105 L 22,105 L 21,106 L 17,106 L 16,107 L 11,107 L 10,108 L 9,108 L 8,109 L 7,109 L 5,111 L 4,111 L 3,112 L 2,112 L 2,113 L 1,114 L 1,115 L 0,116 L 0,120 L 1,121 L 1,123 L 6,128 L 7,127 L 10,127 L 15,132 L 19,132 L 21,134 L 21,135 L 22,136 L 22,138 L 23,138 L 24,139 L 28,139 L 29,140 L 31,140 L 32,141 L 33,141 L 34,142 L 34,145 L 36,147 L 36,148 L 37,149 L 37,151 L 44,151 L 45,152 L 48,152 L 49,153 L 50,153 L 51,154 L 52,154 L 53,153 L 53,152 L 54,151 L 59,151 L 60,152 L 61,152 L 64,155 L 64,156 L 65,157 L 65,158 L 67,160 L 67,161 L 70,161 L 71,162 L 72,162 L 73,161 L 74,161 L 75,160 L 79,160 L 80,159 L 81,159 L 82,158 L 82,156 L 84,154 L 93,154 L 94,153 L 95,153 L 96,154 L 97,154 L 98,153 L 99,153 L 99,152 L 100,151 L 101,151 L 102,152 L 102,151 L 103,150 L 106,150 L 106,148 L 105,147 L 105,146 L 107,144 L 111,144 L 111,143 L 110,143 L 109,142 L 108,142 L 107,141 L 107,140 L 105,138 L 105,137 L 108,134 L 109,134 L 107,132 L 106,132 L 104,130 L 104,128 L 103,127 L 103,126 L 101,126 L 99,124 L 98,124 L 96,122 L 96,121 L 95,120 L 95,119 L 94,118 L 94,116 L 95,115 L 95,114 L 94,113 L 93,113 L 92,112 L 92,111 L 93,110 L 92,109 L 92,106 L 93,105 L 94,105 L 95,106 L 99,106 L 100,107 L 100,108 L 101,108 L 102,109 L 104,109 L 105,108 L 105,105 L 106,104 L 106,103 L 107,102 L 107,100 L 108,99 L 109,99 L 109,98 L 108,97 L 108,96 L 109,95 L 109,93 L 108,92 L 109,91 L 110,91 L 111,90 L 113,90 L 115,88 L 116,88 L 116,87 L 115,87 L 114,86 L 113,86 L 112,85 L 111,85 L 110,84 L 109,84 L 108,83 L 107,83 L 106,82 L 105,82 L 100,77 L 99,77 L 98,76 L 98,74 L 97,73 L 96,73 L 95,72 L 94,72 L 92,70 L 91,70 L 90,69 L 81,69 L 80,68 Z" fill="none" stroke="black" stroke-width="1"/>
</svg>