<svg xmlns="http://www.w3.org/2000/svg" width="232" height="305">
  <path d="M 142,104 L 141,105 L 135,105 L 135,106 L 134,107 L 133,107 L 132,108 L 131,108 L 130,109 L 128,109 L 127,110 L 126,110 L 125,111 L 124,111 L 122,113 L 122,115 L 121,116 L 121,117 L 120,118 L 119,118 L 119,119 L 117,121 L 117,122 L 115,124 L 115,125 L 114,126 L 114,127 L 111,130 L 111,132 L 110,133 L 110,137 L 109,138 L 108,138 L 106,140 L 105,140 L 105,141 L 103,143 L 103,144 L 102,145 L 102,146 L 99,149 L 99,154 L 98,155 L 98,160 L 95,163 L 94,163 L 93,164 L 92,164 L 91,165 L 91,167 L 90,168 L 90,169 L 89,170 L 89,171 L 87,173 L 87,176 L 88,175 L 94,175 L 95,174 L 102,174 L 103,173 L 109,173 L 110,172 L 111,173 L 112,173 L 113,174 L 114,174 L 119,179 L 119,180 L 123,180 L 124,179 L 125,179 L 125,178 L 126,177 L 127,177 L 128,176 L 134,176 L 135,177 L 136,177 L 137,178 L 139,178 L 140,177 L 141,177 L 142,178 L 142,179 L 143,180 L 143,184 L 142,185 L 142,190 L 141,191 L 141,196 L 140,197 L 140,199 L 144,195 L 145,195 L 145,194 L 146,193 L 146,192 L 150,188 L 156,188 L 157,187 L 158,187 L 159,188 L 158,189 L 158,191 L 157,192 L 157,193 L 159,193 L 164,198 L 167,198 L 169,200 L 170,200 L 171,201 L 174,201 L 175,200 L 176,201 L 177,201 L 179,203 L 179,204 L 180,205 L 181,205 L 182,206 L 183,205 L 184,206 L 185,206 L 186,207 L 187,207 L 189,209 L 192,209 L 193,210 L 197,210 L 198,209 L 206,209 L 206,208 L 205,208 L 203,206 L 203,200 L 205,198 L 205,196 L 204,195 L 203,195 L 200,192 L 200,191 L 199,190 L 199,188 L 200,187 L 200,184 L 201,183 L 201,181 L 204,178 L 205,178 L 207,176 L 208,176 L 208,175 L 209,174 L 210,174 L 210,173 L 212,171 L 213,171 L 213,170 L 214,169 L 214,167 L 215,166 L 215,165 L 216,164 L 216,163 L 217,162 L 217,161 L 221,157 L 221,156 L 222,155 L 224,155 L 225,154 L 226,154 L 226,153 L 228,151 L 229,151 L 229,150 L 230,149 L 231,149 L 231,148 L 230,148 L 229,147 L 228,147 L 226,145 L 226,144 L 225,143 L 225,141 L 224,141 L 220,137 L 217,137 L 214,134 L 214,133 L 212,131 L 212,129 L 211,128 L 211,127 L 208,127 L 207,126 L 206,126 L 205,125 L 200,125 L 199,124 L 198,124 L 197,123 L 196,123 L 195,122 L 194,123 L 193,122 L 192,122 L 191,121 L 190,121 L 188,119 L 185,119 L 184,118 L 180,118 L 179,117 L 176,117 L 175,116 L 171,116 L 169,114 L 168,115 L 167,114 L 166,114 L 165,113 L 164,113 L 163,112 L 162,112 L 161,111 L 158,111 L 157,110 L 156,110 L 154,108 L 153,108 L 152,107 L 146,107 L 145,106 L 144,106 Z" fill="none" stroke="black" stroke-width="1"/>
</svg>