<svg xmlns="http://www.w3.org/2000/svg" width="232" height="305">
  <path d="M 110,173 L 109,174 L 103,174 L 102,175 L 95,175 L 94,176 L 88,176 L 87,177 L 80,177 L 80,178 L 81,179 L 81,180 L 83,182 L 83,184 L 82,185 L 82,187 L 81,188 L 81,189 L 79,191 L 78,191 L 77,192 L 76,192 L 76,193 L 75,194 L 71,194 L 70,195 L 69,195 L 69,196 L 68,197 L 67,197 L 66,198 L 62,198 L 62,199 L 61,200 L 60,200 L 59,201 L 58,201 L 57,202 L 56,202 L 55,203 L 53,203 L 52,204 L 51,204 L 50,205 L 49,205 L 49,206 L 48,207 L 47,207 L 45,209 L 44,209 L 44,214 L 43,215 L 43,220 L 42,221 L 42,225 L 43,226 L 44,226 L 45,227 L 45,229 L 46,230 L 46,233 L 47,234 L 47,235 L 48,236 L 47,237 L 47,242 L 49,244 L 49,245 L 50,246 L 51,246 L 52,247 L 52,248 L 55,251 L 55,252 L 56,253 L 57,253 L 58,254 L 58,255 L 60,257 L 62,257 L 65,254 L 66,254 L 67,253 L 68,253 L 69,252 L 70,252 L 70,251 L 71,250 L 72,250 L 73,251 L 74,251 L 76,253 L 76,254 L 78,254 L 79,255 L 83,255 L 84,256 L 85,255 L 86,256 L 86,257 L 89,260 L 91,260 L 92,259 L 98,259 L 100,257 L 101,257 L 102,256 L 102,255 L 103,254 L 103,253 L 104,252 L 105,252 L 106,251 L 106,250 L 109,247 L 110,247 L 113,244 L 113,243 L 115,241 L 116,241 L 116,240 L 117,239 L 117,237 L 118,236 L 118,232 L 119,231 L 119,227 L 120,226 L 120,222 L 121,221 L 121,219 L 122,218 L 122,217 L 125,214 L 125,213 L 126,212 L 126,211 L 138,199 L 139,199 L 139,197 L 140,196 L 140,191 L 141,190 L 141,185 L 142,184 L 142,180 L 141,179 L 141,178 L 140,178 L 139,179 L 137,179 L 136,178 L 135,178 L 134,177 L 128,177 L 127,178 L 126,178 L 126,179 L 125,180 L 124,180 L 123,181 L 119,181 L 118,180 L 118,179 L 114,175 L 113,175 L 112,174 L 111,174 Z" fill="none" stroke="black" stroke-width="1"/>
</svg>