<svg xmlns="http://www.w3.org/2000/svg" width="283" height="247">
  <path d="M 152,115 L 151,116 L 145,116 L 144,117 L 140,117 L 139,118 L 135,118 L 134,119 L 131,119 L 130,120 L 127,120 L 126,121 L 124,121 L 123,122 L 122,122 L 122,123 L 123,124 L 123,125 L 124,126 L 124,133 L 123,134 L 123,136 L 120,139 L 120,140 L 119,141 L 119,142 L 118,143 L 118,144 L 119,145 L 119,163 L 118,164 L 118,167 L 115,170 L 112,170 L 111,171 L 108,171 L 107,172 L 106,172 L 105,173 L 104,173 L 103,174 L 102,174 L 101,175 L 99,175 L 96,178 L 94,178 L 93,179 L 93,189 L 94,190 L 94,204 L 95,205 L 95,217 L 96,218 L 96,224 L 97,225 L 97,227 L 98,228 L 98,229 L 104,235 L 105,235 L 106,236 L 107,235 L 123,235 L 124,234 L 130,234 L 131,233 L 146,233 L 149,230 L 150,230 L 152,228 L 152,227 L 153,226 L 154,226 L 157,223 L 158,223 L 160,221 L 162,221 L 163,220 L 166,220 L 167,219 L 169,219 L 170,218 L 171,218 L 174,215 L 174,214 L 180,208 L 180,206 L 182,204 L 182,202 L 188,196 L 189,196 L 190,195 L 190,193 L 191,192 L 191,191 L 192,190 L 193,190 L 193,189 L 194,188 L 194,187 L 196,185 L 199,185 L 199,184 L 200,183 L 200,182 L 201,181 L 201,180 L 202,179 L 202,177 L 204,175 L 204,174 L 205,173 L 205,172 L 206,171 L 206,170 L 207,169 L 207,168 L 208,167 L 208,166 L 209,165 L 209,164 L 210,163 L 210,162 L 211,161 L 211,160 L 212,159 L 212,158 L 213,157 L 213,156 L 214,155 L 214,154 L 215,153 L 215,151 L 216,150 L 216,149 L 217,148 L 217,146 L 218,145 L 218,143 L 219,142 L 219,140 L 220,139 L 220,136 L 221,135 L 221,131 L 222,130 L 222,126 L 223,125 L 213,125 L 212,124 L 206,124 L 205,123 L 201,123 L 200,122 L 196,122 L 195,121 L 191,121 L 190,120 L 187,120 L 186,119 L 183,119 L 182,118 L 178,118 L 177,117 L 173,117 L 172,116 L 165,116 L 164,115 Z" fill="none" stroke="black" stroke-width="1"/>
</svg>