<svg xmlns="http://www.w3.org/2000/svg" width="232" height="305">
  <path d="M 95,73 L 94,74 L 92,74 L 91,75 L 88,75 L 87,76 L 84,76 L 83,77 L 80,77 L 79,78 L 76,78 L 75,79 L 72,79 L 71,80 L 68,80 L 67,81 L 64,81 L 63,82 L 59,82 L 58,83 L 55,83 L 54,84 L 50,84 L 49,85 L 45,85 L 44,86 L 39,86 L 38,87 L 31,87 L 30,88 L 24,88 L 23,89 L 23,93 L 22,94 L 22,98 L 21,99 L 21,102 L 20,103 L 20,105 L 19,106 L 19,108 L 18,109 L 18,111 L 17,112 L 17,113 L 16,114 L 16,116 L 15,117 L 15,118 L 14,119 L 14,120 L 13,121 L 13,122 L 12,123 L 12,124 L 11,125 L 11,126 L 10,127 L 10,128 L 9,129 L 9,130 L 8,131 L 8,132 L 7,133 L 7,134 L 6,135 L 6,136 L 5,137 L 5,138 L 3,140 L 3,142 L 2,143 L 2,144 L 1,145 L 1,146 L 0,147 L 0,148 L 6,148 L 7,149 L 8,149 L 9,150 L 11,150 L 17,156 L 27,156 L 28,157 L 32,157 L 33,158 L 35,158 L 36,159 L 37,159 L 39,161 L 40,161 L 43,164 L 44,164 L 51,171 L 61,171 L 62,172 L 63,172 L 64,173 L 68,173 L 69,174 L 70,174 L 71,175 L 73,175 L 74,176 L 86,176 L 86,173 L 88,171 L 88,170 L 89,169 L 89,168 L 90,167 L 90,165 L 92,163 L 93,163 L 94,162 L 95,162 L 97,160 L 97,155 L 98,154 L 98,149 L 101,146 L 101,145 L 102,144 L 102,143 L 104,141 L 104,140 L 105,139 L 106,139 L 108,137 L 109,137 L 109,133 L 110,132 L 110,130 L 113,127 L 113,126 L 114,125 L 114,124 L 116,122 L 116,121 L 118,119 L 118,118 L 119,117 L 120,117 L 120,116 L 121,115 L 121,113 L 124,110 L 125,110 L 126,109 L 127,109 L 128,108 L 129,108 L 129,107 L 127,105 L 126,105 L 125,104 L 124,104 L 123,103 L 122,103 L 118,99 L 117,99 L 116,98 L 117,97 L 116,97 L 109,90 L 107,90 L 105,88 L 105,87 L 104,86 L 104,85 L 103,84 L 103,83 L 98,78 L 98,77 L 97,76 L 97,75 Z" fill="none" stroke="black" stroke-width="1"/>
</svg>