<svg xmlns="http://www.w3.org/2000/svg" width="217" height="185">
  <path d="M 8,0 L 8,1 L 7,2 L 7,4 L 6,5 L 6,7 L 5,8 L 4,8 L 1,11 L 2,12 L 2,13 L 1,14 L 0,14 L 0,16 L 7,16 L 9,18 L 11,18 L 12,19 L 12,21 L 14,23 L 14,27 L 17,30 L 17,33 L 16,34 L 16,35 L 18,37 L 18,39 L 17,40 L 17,42 L 18,42 L 20,44 L 20,45 L 19,46 L 20,47 L 21,47 L 24,50 L 25,50 L 27,52 L 31,52 L 33,54 L 37,54 L 38,55 L 38,56 L 39,56 L 40,57 L 44,57 L 45,58 L 45,59 L 46,60 L 47,60 L 48,61 L 48,63 L 47,64 L 44,64 L 44,74 L 45,75 L 45,76 L 47,76 L 48,77 L 48,78 L 52,78 L 53,79 L 53,80 L 59,80 L 60,81 L 61,81 L 61,80 L 62,79 L 62,76 L 63,75 L 63,74 L 65,72 L 65,71 L 69,67 L 70,67 L 75,62 L 76,62 L 77,61 L 77,60 L 78,59 L 78,57 L 79,56 L 79,55 L 80,54 L 80,52 L 82,50 L 82,43 L 83,42 L 83,41 L 82,41 L 81,40 L 76,40 L 75,39 L 75,38 L 74,38 L 67,31 L 67,30 L 63,26 L 63,25 L 62,25 L 60,23 L 60,22 L 57,19 L 57,15 L 55,17 L 54,17 L 52,15 L 52,12 L 51,11 L 50,11 L 48,9 L 47,9 L 46,8 L 40,8 L 39,7 L 33,7 L 32,6 L 30,6 L 29,5 L 25,5 L 24,4 L 21,4 L 19,2 L 17,2 L 16,1 L 15,1 L 14,0 Z" fill="none" stroke="black" stroke-width="1"/>
</svg>