<svg xmlns="http://www.w3.org/2000/svg" width="283" height="247">
  <path d="M 96,0 L 96,9 L 95,10 L 95,13 L 94,14 L 94,21 L 93,22 L 91,22 L 90,23 L 89,23 L 88,24 L 86,24 L 85,25 L 82,25 L 81,26 L 80,26 L 79,27 L 78,27 L 75,30 L 75,32 L 73,34 L 73,39 L 71,41 L 71,43 L 69,45 L 69,50 L 66,53 L 66,54 L 65,55 L 65,57 L 57,65 L 56,65 L 55,66 L 43,66 L 42,67 L 40,67 L 38,69 L 37,69 L 36,70 L 30,70 L 29,69 L 24,69 L 22,71 L 20,71 L 19,72 L 18,72 L 17,73 L 15,73 L 15,74 L 17,74 L 18,75 L 20,75 L 28,83 L 28,84 L 30,86 L 30,87 L 31,88 L 31,89 L 32,90 L 32,91 L 35,91 L 36,92 L 39,92 L 41,94 L 49,94 L 50,93 L 52,93 L 52,92 L 53,91 L 55,91 L 55,89 L 57,87 L 64,87 L 65,88 L 66,87 L 67,87 L 70,90 L 70,92 L 71,92 L 74,95 L 75,95 L 76,94 L 77,94 L 77,90 L 75,90 L 74,89 L 73,89 L 72,88 L 68,88 L 67,87 L 68,86 L 76,86 L 79,89 L 81,89 L 82,90 L 82,91 L 81,92 L 82,92 L 83,93 L 86,93 L 87,94 L 88,94 L 89,93 L 92,93 L 92,92 L 93,91 L 94,91 L 95,90 L 101,90 L 101,89 L 100,89 L 99,88 L 99,87 L 98,86 L 98,83 L 99,82 L 100,83 L 103,83 L 104,82 L 105,82 L 106,81 L 106,80 L 107,79 L 107,78 L 109,76 L 110,77 L 110,76 L 108,74 L 108,73 L 109,72 L 111,72 L 112,73 L 113,72 L 114,72 L 114,71 L 113,70 L 113,69 L 114,68 L 115,68 L 115,66 L 117,64 L 118,65 L 119,64 L 121,64 L 123,62 L 123,61 L 126,58 L 126,56 L 125,55 L 125,54 L 124,53 L 124,49 L 128,45 L 129,45 L 129,44 L 132,41 L 132,40 L 131,40 L 130,39 L 129,39 L 127,37 L 126,37 L 124,35 L 123,35 L 122,34 L 121,34 L 120,33 L 119,33 L 116,30 L 116,29 L 115,28 L 115,26 L 114,25 L 114,22 L 113,22 L 111,20 L 111,19 L 109,17 L 109,15 L 108,14 L 108,13 L 106,11 L 106,10 L 103,7 L 103,5 L 102,4 L 102,3 L 100,1 L 99,1 L 98,0 Z" fill="none" stroke="black" stroke-width="1"/>
</svg>