<svg xmlns="http://www.w3.org/2000/svg" width="283" height="247">
  <path d="M 57,88 L 56,89 L 56,91 L 55,92 L 53,92 L 53,93 L 52,94 L 50,94 L 49,95 L 41,95 L 39,93 L 36,93 L 35,92 L 32,92 L 31,91 L 31,90 L 23,90 L 22,91 L 21,91 L 20,92 L 19,92 L 16,95 L 15,95 L 10,100 L 10,108 L 9,109 L 9,110 L 8,111 L 8,113 L 7,114 L 7,115 L 6,116 L 6,118 L 5,119 L 5,120 L 4,121 L 4,129 L 6,131 L 6,133 L 7,134 L 7,135 L 8,136 L 8,137 L 9,138 L 9,141 L 10,142 L 10,143 L 11,144 L 11,145 L 12,146 L 12,147 L 13,148 L 13,150 L 14,151 L 14,152 L 12,154 L 12,155 L 10,157 L 10,158 L 9,159 L 9,160 L 8,161 L 8,163 L 7,164 L 7,166 L 5,168 L 5,170 L 4,171 L 4,174 L 0,178 L 0,183 L 2,185 L 3,185 L 4,186 L 4,187 L 6,189 L 8,189 L 9,190 L 10,190 L 14,194 L 15,194 L 18,197 L 18,198 L 20,198 L 21,199 L 22,199 L 24,201 L 25,201 L 25,200 L 26,199 L 27,199 L 29,197 L 29,196 L 31,194 L 32,194 L 35,191 L 36,191 L 38,189 L 38,188 L 40,186 L 41,186 L 42,185 L 43,185 L 43,184 L 44,183 L 45,183 L 46,182 L 47,182 L 49,180 L 54,180 L 56,178 L 57,178 L 58,177 L 59,177 L 59,176 L 60,175 L 64,175 L 64,174 L 65,173 L 66,173 L 67,172 L 69,172 L 70,173 L 71,172 L 72,173 L 73,173 L 74,174 L 75,174 L 77,176 L 78,176 L 79,175 L 85,175 L 86,174 L 87,175 L 88,175 L 89,176 L 90,176 L 91,177 L 91,178 L 93,178 L 94,177 L 96,177 L 99,174 L 101,174 L 102,173 L 103,173 L 104,172 L 105,172 L 106,171 L 107,171 L 108,170 L 111,170 L 112,169 L 115,169 L 117,167 L 117,164 L 118,163 L 118,145 L 117,144 L 117,143 L 118,142 L 118,141 L 119,140 L 119,139 L 122,136 L 122,134 L 123,133 L 123,126 L 122,125 L 122,124 L 121,123 L 121,122 L 120,122 L 118,120 L 118,119 L 117,118 L 117,112 L 116,111 L 116,106 L 115,105 L 115,103 L 114,102 L 114,101 L 113,100 L 114,99 L 113,99 L 111,101 L 109,101 L 108,102 L 107,102 L 106,101 L 105,102 L 104,102 L 103,101 L 103,100 L 102,100 L 101,99 L 98,99 L 97,98 L 90,98 L 89,99 L 81,99 L 80,98 L 76,98 L 75,97 L 74,97 L 73,96 L 72,96 L 71,95 L 67,95 L 66,94 L 65,94 L 64,93 L 63,93 L 61,91 L 61,90 L 62,89 L 62,88 Z" fill="none" stroke="black" stroke-width="1"/>
</svg>