<svg xmlns="http://www.w3.org/2000/svg" width="159" height="225">
  <path d="M 150,0 L 147,3 L 144,3 L 144,5 L 143,6 L 141,6 L 139,4 L 138,4 L 137,5 L 136,5 L 135,6 L 133,6 L 132,7 L 130,7 L 129,8 L 127,8 L 126,9 L 125,9 L 124,8 L 124,7 L 120,7 L 119,6 L 115,6 L 113,4 L 111,4 L 109,2 L 104,2 L 103,1 L 99,1 L 98,2 L 96,2 L 95,3 L 94,3 L 92,5 L 91,5 L 93,7 L 94,7 L 95,8 L 95,9 L 96,10 L 96,16 L 95,17 L 95,20 L 94,21 L 94,23 L 93,24 L 93,30 L 92,31 L 92,36 L 95,39 L 96,39 L 98,41 L 98,43 L 99,44 L 100,44 L 101,45 L 99,47 L 99,48 L 100,49 L 101,49 L 102,50 L 100,52 L 100,54 L 99,55 L 99,57 L 98,58 L 98,59 L 99,60 L 100,60 L 101,61 L 101,62 L 102,62 L 103,63 L 103,64 L 105,64 L 107,66 L 107,67 L 110,67 L 111,68 L 111,69 L 113,71 L 119,71 L 120,70 L 122,70 L 123,71 L 129,71 L 130,70 L 133,70 L 135,68 L 135,65 L 136,64 L 137,64 L 138,63 L 140,65 L 140,66 L 141,66 L 141,65 L 142,64 L 143,64 L 143,63 L 142,62 L 146,58 L 147,58 L 147,56 L 148,55 L 148,53 L 149,52 L 149,51 L 150,50 L 150,49 L 151,48 L 151,46 L 150,45 L 150,43 L 148,41 L 148,40 L 149,39 L 149,38 L 150,37 L 150,36 L 149,35 L 149,33 L 148,32 L 148,30 L 149,29 L 149,21 L 150,20 L 150,17 L 151,16 L 151,12 L 152,11 L 152,9 L 153,8 L 153,6 L 158,1 L 156,1 L 155,0 Z" fill="none" stroke="black" stroke-width="1"/>
</svg>