<svg xmlns="http://www.w3.org/2000/svg" width="159" height="225">
  <path d="M 90,36 L 90,37 L 86,41 L 85,41 L 85,42 L 84,43 L 84,44 L 83,45 L 83,46 L 78,51 L 77,51 L 73,55 L 73,56 L 72,57 L 71,57 L 70,58 L 69,58 L 69,59 L 68,60 L 67,60 L 66,61 L 64,61 L 63,62 L 58,62 L 57,63 L 53,63 L 48,68 L 48,69 L 42,75 L 42,76 L 41,77 L 41,78 L 42,79 L 42,80 L 43,81 L 43,82 L 44,82 L 47,85 L 47,86 L 48,87 L 51,87 L 55,91 L 55,92 L 56,92 L 59,95 L 59,96 L 61,98 L 62,98 L 63,99 L 63,100 L 64,101 L 64,104 L 65,105 L 65,106 L 67,106 L 70,109 L 70,110 L 74,114 L 75,114 L 76,115 L 77,115 L 78,116 L 79,116 L 81,118 L 81,119 L 82,120 L 82,125 L 83,126 L 83,127 L 84,128 L 84,130 L 83,131 L 83,134 L 87,134 L 88,133 L 89,133 L 90,132 L 96,132 L 99,129 L 100,129 L 101,130 L 104,130 L 104,129 L 105,128 L 104,127 L 104,126 L 105,125 L 110,125 L 111,124 L 111,123 L 112,122 L 112,121 L 111,120 L 111,113 L 112,112 L 112,110 L 114,108 L 115,108 L 117,106 L 118,106 L 119,105 L 120,105 L 121,104 L 121,103 L 123,101 L 123,100 L 125,98 L 126,98 L 126,97 L 124,95 L 126,93 L 125,92 L 125,89 L 126,88 L 126,87 L 127,86 L 126,85 L 126,84 L 127,83 L 127,82 L 130,79 L 130,76 L 131,75 L 132,75 L 132,74 L 133,73 L 132,72 L 132,71 L 130,71 L 129,72 L 123,72 L 122,71 L 120,71 L 119,72 L 113,72 L 110,69 L 110,68 L 107,68 L 106,67 L 106,66 L 105,65 L 103,65 L 102,64 L 102,63 L 101,63 L 100,62 L 100,61 L 99,61 L 97,59 L 97,58 L 98,57 L 98,55 L 99,54 L 99,52 L 101,50 L 100,50 L 98,48 L 98,47 L 100,45 L 99,45 L 97,43 L 97,41 L 96,40 L 95,40 L 91,36 Z" fill="none" stroke="black" stroke-width="1"/>
</svg>