<svg xmlns="http://www.w3.org/2000/svg" width="159" height="225">
  <path d="M 41,75 L 40,76 L 39,76 L 38,77 L 38,78 L 34,82 L 33,82 L 33,83 L 29,87 L 29,88 L 28,89 L 27,89 L 26,90 L 25,90 L 24,91 L 24,92 L 23,93 L 23,94 L 22,95 L 22,97 L 21,98 L 21,99 L 20,100 L 20,101 L 14,107 L 14,109 L 15,110 L 15,112 L 16,113 L 16,116 L 17,117 L 17,119 L 18,120 L 18,121 L 19,122 L 19,123 L 20,123 L 25,128 L 25,135 L 24,136 L 25,137 L 25,138 L 28,141 L 28,142 L 31,142 L 32,143 L 37,143 L 38,144 L 39,144 L 40,143 L 51,143 L 52,142 L 54,142 L 55,143 L 58,143 L 57,142 L 57,140 L 58,139 L 59,139 L 62,136 L 63,137 L 67,137 L 67,136 L 68,135 L 69,135 L 70,136 L 70,137 L 72,137 L 73,136 L 74,136 L 75,135 L 81,135 L 82,134 L 82,131 L 83,130 L 83,128 L 82,127 L 82,126 L 81,125 L 81,120 L 80,119 L 80,118 L 79,117 L 78,117 L 77,116 L 76,116 L 75,115 L 74,115 L 69,110 L 69,109 L 67,107 L 65,107 L 64,106 L 64,105 L 63,104 L 63,101 L 62,100 L 62,99 L 61,99 L 58,96 L 58,95 L 56,93 L 55,93 L 54,92 L 54,91 L 51,88 L 48,88 L 46,86 L 46,85 L 44,83 L 43,83 L 42,82 L 42,81 L 41,80 L 41,79 L 40,78 L 40,77 L 41,76 Z" fill="none" stroke="black" stroke-width="1"/>
</svg>