<svg xmlns="http://www.w3.org/2000/svg" width="261" height="141">
  <path d="M 252,70 L 252,72 L 249,75 L 248,75 L 247,76 L 244,76 L 243,77 L 240,77 L 239,78 L 238,78 L 237,79 L 236,79 L 235,80 L 234,80 L 233,81 L 232,81 L 230,83 L 229,83 L 228,84 L 225,84 L 224,85 L 218,85 L 217,84 L 215,84 L 214,85 L 213,85 L 213,86 L 214,87 L 214,88 L 215,89 L 215,90 L 217,92 L 217,93 L 219,95 L 219,96 L 221,98 L 221,99 L 222,100 L 222,101 L 223,102 L 223,107 L 222,108 L 222,109 L 221,110 L 220,110 L 218,108 L 217,108 L 216,109 L 214,109 L 214,122 L 213,123 L 213,125 L 212,126 L 212,127 L 213,127 L 214,128 L 215,127 L 219,127 L 220,128 L 221,128 L 222,129 L 224,129 L 225,130 L 226,130 L 229,133 L 230,133 L 232,135 L 233,135 L 235,137 L 237,137 L 238,138 L 243,138 L 245,140 L 246,140 L 246,139 L 248,137 L 248,136 L 250,134 L 250,131 L 249,130 L 249,128 L 251,126 L 251,125 L 252,124 L 252,121 L 253,120 L 253,113 L 254,112 L 254,111 L 258,107 L 259,107 L 260,106 L 260,102 L 258,100 L 258,98 L 257,97 L 257,90 L 258,89 L 258,85 L 257,84 L 256,84 L 255,83 L 255,82 L 254,81 L 254,80 L 253,79 L 253,72 L 252,71 Z" fill="none" stroke="black" stroke-width="1"/>
</svg>