<svg xmlns="http://www.w3.org/2000/svg" width="155" height="369">
  <path d="M 49,194 L 48,195 L 47,195 L 45,197 L 44,197 L 43,198 L 41,198 L 40,199 L 38,199 L 36,197 L 33,197 L 32,198 L 27,198 L 25,200 L 24,200 L 21,203 L 19,203 L 19,208 L 20,209 L 20,211 L 22,213 L 22,217 L 20,219 L 19,219 L 16,222 L 16,223 L 15,224 L 15,231 L 14,232 L 14,235 L 13,236 L 13,237 L 11,239 L 11,241 L 12,242 L 12,245 L 10,247 L 10,248 L 8,250 L 8,251 L 7,252 L 6,252 L 5,251 L 5,255 L 4,256 L 4,257 L 3,258 L 3,259 L 2,260 L 2,268 L 1,269 L 1,270 L 0,271 L 0,272 L 1,273 L 1,274 L 2,275 L 2,276 L 3,277 L 4,277 L 5,278 L 6,278 L 8,280 L 11,280 L 13,282 L 14,282 L 16,284 L 15,285 L 16,285 L 17,286 L 17,288 L 18,289 L 18,290 L 20,292 L 22,292 L 25,295 L 27,295 L 28,296 L 39,296 L 41,294 L 42,294 L 43,293 L 44,293 L 45,292 L 52,292 L 53,291 L 54,291 L 55,290 L 56,290 L 57,289 L 58,289 L 59,288 L 69,288 L 73,292 L 78,287 L 78,286 L 79,285 L 79,284 L 80,283 L 80,281 L 81,280 L 81,279 L 82,278 L 82,277 L 84,275 L 85,275 L 86,274 L 87,274 L 87,273 L 91,269 L 91,266 L 90,265 L 90,264 L 89,263 L 89,262 L 87,260 L 86,260 L 84,258 L 83,258 L 82,257 L 81,257 L 75,251 L 75,249 L 74,248 L 74,233 L 73,232 L 73,228 L 72,227 L 72,226 L 71,225 L 71,224 L 70,223 L 70,222 L 69,222 L 63,216 L 63,215 L 62,214 L 62,213 L 59,210 L 59,208 L 57,206 L 57,202 L 55,202 L 54,201 L 53,201 L 51,199 L 51,196 L 52,195 L 52,194 Z" fill="none" stroke="black" stroke-width="1"/>
</svg>