<svg xmlns="http://www.w3.org/2000/svg" width="173" height="118">
  <path d="M 89,0 L 89,3 L 88,4 L 87,4 L 86,5 L 84,5 L 83,6 L 78,6 L 78,11 L 79,12 L 79,15 L 76,18 L 77,19 L 77,22 L 78,23 L 79,23 L 80,24 L 85,24 L 86,25 L 87,25 L 88,26 L 89,26 L 89,25 L 90,24 L 97,31 L 97,32 L 98,33 L 98,35 L 97,36 L 97,37 L 86,48 L 86,49 L 88,49 L 90,51 L 90,52 L 88,54 L 88,55 L 89,56 L 89,57 L 92,57 L 93,58 L 92,59 L 92,60 L 91,61 L 91,66 L 90,67 L 90,69 L 89,70 L 89,72 L 90,72 L 91,73 L 93,73 L 94,74 L 99,74 L 102,77 L 110,77 L 111,76 L 114,76 L 115,75 L 117,75 L 118,74 L 130,74 L 131,75 L 133,75 L 134,76 L 137,76 L 138,75 L 138,71 L 142,67 L 142,64 L 141,63 L 141,57 L 140,56 L 140,49 L 141,48 L 141,47 L 143,45 L 143,44 L 146,41 L 150,41 L 150,40 L 151,39 L 160,39 L 161,38 L 167,38 L 168,37 L 170,37 L 172,35 L 172,31 L 171,30 L 171,27 L 170,26 L 170,25 L 169,25 L 168,24 L 167,24 L 166,23 L 166,18 L 165,17 L 164,17 L 163,16 L 163,15 L 161,13 L 158,13 L 155,10 L 155,9 L 151,9 L 150,8 L 143,8 L 142,9 L 133,9 L 132,8 L 131,8 L 130,7 L 129,7 L 128,6 L 127,6 L 126,5 L 121,5 L 120,6 L 116,6 L 115,7 L 102,7 L 100,5 L 100,4 L 99,3 L 98,3 L 97,2 L 96,2 L 95,1 L 92,1 L 91,0 Z" fill="none" stroke="black" stroke-width="1"/>
</svg>