<svg xmlns="http://www.w3.org/2000/svg" width="155" height="369">
  <path d="M 69,94 L 68,95 L 67,95 L 66,96 L 65,96 L 64,97 L 61,97 L 60,98 L 57,98 L 54,101 L 52,101 L 51,102 L 50,102 L 48,104 L 47,104 L 46,103 L 45,103 L 44,102 L 43,102 L 42,101 L 34,101 L 33,102 L 32,101 L 31,102 L 29,102 L 28,103 L 25,103 L 18,110 L 18,111 L 17,112 L 17,113 L 16,114 L 16,115 L 13,118 L 13,120 L 12,121 L 12,122 L 13,123 L 13,129 L 12,130 L 12,131 L 10,133 L 10,134 L 8,136 L 8,137 L 7,138 L 7,146 L 8,147 L 8,148 L 9,149 L 9,150 L 10,151 L 10,157 L 11,158 L 11,159 L 12,160 L 12,161 L 13,162 L 13,163 L 14,164 L 14,168 L 15,169 L 15,178 L 14,179 L 14,182 L 15,183 L 15,190 L 16,191 L 16,192 L 17,193 L 17,194 L 18,194 L 20,196 L 20,200 L 19,201 L 19,202 L 21,202 L 24,199 L 25,199 L 27,197 L 32,197 L 33,196 L 36,196 L 38,198 L 40,198 L 41,197 L 43,197 L 44,196 L 45,196 L 47,194 L 48,194 L 49,193 L 53,193 L 53,188 L 54,187 L 54,186 L 62,178 L 62,177 L 64,175 L 64,174 L 65,173 L 65,172 L 66,171 L 66,170 L 69,167 L 70,167 L 73,164 L 74,164 L 77,161 L 78,161 L 79,160 L 87,160 L 88,159 L 89,159 L 90,160 L 90,159 L 94,155 L 95,155 L 96,154 L 100,154 L 101,155 L 109,155 L 110,154 L 112,154 L 112,152 L 114,150 L 115,150 L 116,149 L 118,149 L 119,148 L 123,148 L 124,147 L 128,147 L 129,146 L 132,146 L 132,145 L 130,143 L 129,143 L 125,139 L 124,139 L 123,138 L 121,138 L 118,135 L 118,134 L 117,134 L 114,131 L 114,126 L 118,122 L 118,119 L 119,118 L 119,116 L 121,114 L 121,112 L 122,111 L 122,109 L 123,108 L 123,107 L 124,106 L 124,105 L 126,103 L 121,103 L 120,102 L 116,102 L 115,101 L 112,101 L 111,102 L 109,102 L 108,103 L 104,103 L 103,104 L 100,104 L 99,103 L 97,103 L 96,102 L 94,102 L 93,101 L 93,100 L 91,100 L 90,99 L 89,99 L 88,98 L 85,98 L 84,97 L 83,97 L 82,96 L 80,96 L 79,95 L 75,95 L 74,94 Z" fill="none" stroke="black" stroke-width="1"/>
</svg>