<svg xmlns="http://www.w3.org/2000/svg" width="120" height="84">
  <path d="M 66,5 L 66,6 L 65,7 L 64,7 L 64,8 L 63,9 L 63,10 L 61,12 L 60,12 L 59,11 L 58,11 L 55,14 L 55,15 L 54,16 L 54,17 L 53,18 L 53,19 L 52,20 L 52,21 L 51,22 L 51,26 L 50,27 L 49,27 L 49,28 L 50,29 L 49,30 L 49,31 L 50,32 L 50,34 L 53,37 L 53,38 L 57,38 L 59,40 L 59,41 L 60,41 L 61,42 L 63,42 L 64,43 L 67,43 L 68,42 L 68,41 L 69,40 L 70,40 L 71,39 L 72,39 L 73,38 L 76,38 L 78,40 L 78,41 L 79,42 L 80,42 L 82,44 L 83,44 L 87,48 L 91,48 L 92,47 L 94,47 L 96,45 L 95,44 L 95,39 L 94,38 L 94,33 L 92,33 L 91,32 L 91,31 L 89,29 L 88,29 L 87,28 L 86,28 L 84,26 L 84,17 L 82,15 L 82,14 L 79,11 L 78,11 L 77,10 L 77,9 L 75,7 L 71,7 L 70,6 L 69,6 L 68,5 Z" fill="none" stroke="black" stroke-width="1"/>
</svg>