<svg xmlns="http://www.w3.org/2000/svg" width="92" height="59">
  <path d="M 29,0 L 27,2 L 22,2 L 20,4 L 20,6 L 21,6 L 22,5 L 23,5 L 24,6 L 24,8 L 25,8 L 27,10 L 26,11 L 25,11 L 26,12 L 26,19 L 32,25 L 33,25 L 37,29 L 37,30 L 38,30 L 40,32 L 44,32 L 45,33 L 51,33 L 52,34 L 52,35 L 53,36 L 53,41 L 55,43 L 55,44 L 56,45 L 56,46 L 59,46 L 60,45 L 62,45 L 64,43 L 68,43 L 69,42 L 77,42 L 78,41 L 79,41 L 80,40 L 81,40 L 82,39 L 87,39 L 88,38 L 89,38 L 90,39 L 91,39 L 91,38 L 90,37 L 90,36 L 87,33 L 87,32 L 84,29 L 84,27 L 83,26 L 83,12 L 82,11 L 82,10 L 76,4 L 74,4 L 73,3 L 71,3 L 70,2 L 58,2 L 57,3 L 55,3 L 54,4 L 51,4 L 50,5 L 42,5 L 39,2 L 34,2 L 33,1 L 31,1 L 30,0 Z" fill="none" stroke="black" stroke-width="1"/>
</svg>