<svg xmlns="http://www.w3.org/2000/svg" width="173" height="118">
  <path d="M 80,25 L 78,27 L 78,28 L 75,31 L 69,31 L 67,29 L 67,27 L 66,26 L 63,26 L 62,27 L 61,27 L 61,28 L 58,31 L 56,31 L 56,32 L 54,34 L 54,35 L 53,36 L 53,37 L 52,38 L 52,45 L 53,46 L 53,48 L 54,49 L 54,52 L 53,53 L 52,53 L 50,55 L 48,55 L 46,57 L 45,57 L 43,59 L 42,59 L 41,60 L 40,60 L 39,61 L 36,61 L 35,62 L 33,62 L 31,64 L 31,65 L 30,66 L 30,70 L 29,71 L 30,72 L 30,74 L 35,74 L 36,75 L 36,76 L 37,77 L 37,78 L 38,78 L 41,81 L 41,82 L 42,82 L 43,83 L 48,83 L 51,80 L 51,79 L 52,78 L 54,78 L 55,79 L 56,79 L 57,80 L 57,81 L 58,82 L 58,84 L 59,85 L 59,86 L 60,87 L 61,87 L 62,86 L 62,84 L 64,82 L 67,82 L 68,81 L 68,80 L 69,79 L 70,79 L 71,78 L 72,78 L 73,77 L 75,79 L 76,79 L 77,78 L 78,78 L 82,74 L 87,74 L 88,73 L 88,70 L 89,69 L 89,67 L 90,66 L 90,61 L 91,60 L 91,59 L 92,58 L 89,58 L 88,57 L 88,56 L 87,55 L 87,54 L 89,52 L 89,51 L 88,50 L 86,50 L 85,49 L 85,48 L 96,37 L 96,36 L 97,35 L 97,33 L 96,32 L 96,31 L 90,25 L 90,26 L 89,27 L 88,27 L 87,26 L 86,26 L 85,25 Z" fill="none" stroke="black" stroke-width="1"/>
</svg>