<svg xmlns="http://www.w3.org/2000/svg" width="124" height="97">
  <path d="M 14,45 L 14,56 L 15,57 L 15,58 L 14,59 L 14,60 L 13,61 L 12,60 L 12,59 L 12,61 L 13,62 L 13,66 L 14,67 L 14,68 L 12,70 L 12,71 L 11,72 L 11,73 L 10,74 L 5,74 L 4,73 L 4,80 L 5,81 L 5,84 L 6,83 L 8,83 L 9,84 L 10,84 L 16,90 L 17,90 L 18,91 L 18,92 L 20,92 L 21,93 L 22,93 L 24,95 L 27,95 L 28,94 L 28,93 L 29,92 L 29,91 L 30,90 L 31,90 L 34,87 L 36,87 L 37,86 L 38,86 L 41,83 L 41,78 L 42,77 L 42,76 L 44,74 L 45,74 L 46,73 L 46,72 L 47,71 L 49,71 L 51,69 L 51,68 L 50,67 L 48,67 L 46,65 L 46,64 L 40,58 L 40,56 L 38,54 L 38,51 L 37,50 L 33,50 L 32,49 L 28,49 L 26,47 L 22,47 L 21,46 L 15,46 Z" fill="none" stroke="black" stroke-width="1"/>
</svg>