<svg xmlns="http://www.w3.org/2000/svg" width="57" height="51">
  <path d="M 38,31 L 38,34 L 37,35 L 37,36 L 33,40 L 32,40 L 28,44 L 28,45 L 29,46 L 31,46 L 32,45 L 33,46 L 33,47 L 32,48 L 31,48 L 32,48 L 33,49 L 36,49 L 37,50 L 39,50 L 40,49 L 40,47 L 39,46 L 41,44 L 42,45 L 43,45 L 44,46 L 42,48 L 44,48 L 44,46 L 43,45 L 43,43 L 44,42 L 46,42 L 45,41 L 46,40 L 47,40 L 48,41 L 48,44 L 49,45 L 50,44 L 50,43 L 49,44 L 48,43 L 48,41 L 49,40 L 49,39 L 48,38 L 47,38 L 46,37 L 45,37 L 44,36 L 43,36 L 40,33 L 39,33 L 38,32 Z" fill="none" stroke="black" stroke-width="1"/>
</svg>