<svg xmlns="http://www.w3.org/2000/svg" width="113" height="113">
  <path d="M 42,68 L 40,70 L 36,70 L 34,72 L 33,72 L 33,73 L 35,75 L 41,75 L 42,74 L 43,74 L 44,75 L 46,75 L 46,74 L 47,73 L 53,73 L 53,72 L 52,71 L 51,71 L 50,72 L 49,72 L 48,71 L 47,71 L 46,70 L 46,69 L 45,68 Z" fill="none" stroke="black" stroke-width="1"/>
  <path d="M 50,17 L 50,23 L 51,24 L 51,27 L 52,26 L 53,27 L 53,29 L 50,32 L 50,33 L 52,35 L 52,36 L 49,39 L 49,40 L 47,42 L 47,44 L 45,46 L 45,47 L 46,48 L 45,49 L 45,52 L 46,53 L 46,54 L 45,55 L 45,58 L 44,59 L 43,59 L 42,58 L 39,58 L 38,59 L 38,61 L 36,63 L 38,63 L 39,62 L 41,62 L 43,60 L 46,60 L 47,61 L 48,61 L 48,57 L 49,56 L 49,55 L 50,54 L 50,51 L 51,50 L 51,49 L 52,48 L 52,46 L 53,45 L 55,47 L 55,49 L 56,50 L 56,51 L 59,54 L 59,58 L 60,59 L 58,61 L 59,62 L 59,63 L 58,64 L 58,65 L 56,67 L 55,67 L 54,68 L 55,69 L 59,69 L 61,67 L 65,67 L 64,66 L 65,65 L 67,65 L 68,64 L 69,64 L 69,59 L 72,56 L 73,56 L 75,54 L 75,53 L 76,52 L 76,51 L 75,50 L 75,49 L 73,47 L 73,45 L 75,43 L 75,42 L 74,41 L 68,41 L 65,38 L 64,38 L 63,37 L 63,36 L 62,35 L 62,33 L 61,32 L 61,30 L 60,29 L 60,28 L 58,26 L 58,25 L 56,23 L 56,22 L 53,19 L 53,18 L 52,18 L 51,17 Z" fill="none" stroke="black" stroke-width="1"/>
</svg>