<svg xmlns="http://www.w3.org/2000/svg" width="120" height="112">
  <path d="M 4,72 L 4,75 L 3,76 L 3,84 L 2,85 L 2,87 L 1,88 L 1,98 L 0,99 L 1,99 L 2,98 L 3,98 L 4,99 L 5,99 L 6,100 L 7,100 L 9,102 L 10,102 L 11,103 L 13,103 L 14,104 L 16,104 L 18,106 L 19,106 L 21,104 L 22,104 L 27,99 L 28,99 L 29,98 L 33,98 L 34,97 L 34,96 L 33,96 L 32,97 L 31,97 L 30,96 L 30,95 L 31,94 L 32,94 L 33,93 L 34,93 L 36,91 L 38,91 L 40,93 L 40,94 L 41,95 L 40,96 L 40,97 L 38,99 L 36,99 L 36,100 L 37,101 L 39,101 L 39,100 L 42,97 L 45,97 L 46,98 L 46,100 L 44,102 L 46,104 L 47,104 L 48,103 L 49,103 L 50,104 L 50,106 L 54,106 L 55,107 L 55,109 L 56,110 L 56,111 L 57,111 L 58,110 L 58,106 L 56,108 L 54,106 L 54,105 L 55,104 L 55,99 L 56,98 L 56,97 L 57,96 L 57,85 L 56,84 L 57,83 L 57,82 L 58,81 L 58,79 L 59,78 L 59,76 L 60,75 L 56,75 L 55,74 L 41,74 L 41,75 L 39,77 L 35,77 L 34,78 L 26,78 L 25,77 L 20,77 L 19,76 L 17,76 L 16,75 L 14,75 L 13,74 L 12,74 L 11,73 L 7,73 L 6,72 Z" fill="none" stroke="black" stroke-width="1"/>
</svg>