<svg xmlns="http://www.w3.org/2000/svg" width="120" height="112">
  <path d="M 15,34 L 14,35 L 14,36 L 13,37 L 12,37 L 12,39 L 11,40 L 10,40 L 9,41 L 8,41 L 6,43 L 5,43 L 5,51 L 4,52 L 4,53 L 3,54 L 3,57 L 2,58 L 2,68 L 3,69 L 3,71 L 6,71 L 7,72 L 11,72 L 12,73 L 13,73 L 14,74 L 16,74 L 17,75 L 19,75 L 20,76 L 25,76 L 26,77 L 34,77 L 35,76 L 39,76 L 40,75 L 40,74 L 41,73 L 55,73 L 56,74 L 61,74 L 62,73 L 67,73 L 69,71 L 69,68 L 67,66 L 68,65 L 68,64 L 69,63 L 69,60 L 68,59 L 68,58 L 67,58 L 66,57 L 66,56 L 65,56 L 64,55 L 63,55 L 62,54 L 61,54 L 59,52 L 58,52 L 57,51 L 56,51 L 55,50 L 53,50 L 50,47 L 49,47 L 48,46 L 42,46 L 41,45 L 36,45 L 34,43 L 33,43 L 32,42 L 32,41 L 31,41 L 30,40 L 29,40 L 27,38 L 19,38 Z" fill="none" stroke="black" stroke-width="1"/>
</svg>