<svg xmlns="http://www.w3.org/2000/svg" width="120" height="112">
  <path d="M 53,0 L 51,2 L 51,6 L 50,7 L 50,10 L 51,11 L 51,12 L 56,17 L 56,20 L 57,20 L 58,21 L 70,21 L 71,22 L 72,22 L 73,23 L 73,24 L 74,25 L 74,26 L 80,32 L 80,33 L 81,34 L 81,35 L 82,36 L 83,36 L 85,38 L 86,38 L 87,39 L 89,39 L 90,38 L 91,38 L 92,37 L 93,37 L 94,36 L 96,36 L 97,35 L 100,35 L 101,34 L 104,34 L 107,31 L 108,31 L 109,30 L 113,30 L 115,28 L 115,27 L 116,26 L 116,24 L 117,23 L 117,17 L 119,15 L 119,12 L 118,12 L 117,11 L 115,11 L 114,10 L 107,10 L 106,9 L 104,9 L 103,10 L 101,10 L 100,11 L 90,11 L 89,10 L 78,10 L 77,9 L 76,9 L 75,8 L 74,8 L 73,7 L 70,7 L 69,6 L 67,6 L 66,5 L 65,5 L 62,2 L 61,2 L 60,1 L 57,1 L 56,0 Z" fill="none" stroke="black" stroke-width="1"/>
</svg>