<svg xmlns="http://www.w3.org/2000/svg" width="98" height="68">
  <path d="M 5,23 L 4,24 L 4,32 L 3,33 L 3,38 L 2,39 L 2,47 L 1,48 L 1,51 L 0,52 L 0,55 L 1,55 L 2,56 L 5,56 L 6,57 L 7,57 L 10,60 L 11,60 L 12,61 L 14,61 L 15,62 L 18,62 L 19,63 L 20,63 L 21,64 L 22,64 L 23,65 L 34,65 L 35,66 L 45,66 L 46,65 L 48,65 L 49,64 L 51,64 L 51,63 L 52,62 L 52,61 L 51,60 L 51,56 L 52,55 L 52,54 L 53,53 L 53,51 L 52,50 L 52,49 L 51,48 L 51,46 L 50,46 L 49,45 L 46,45 L 43,42 L 43,41 L 40,38 L 40,35 L 39,34 L 39,32 L 36,29 L 36,28 L 34,28 L 33,27 L 22,27 L 21,26 L 20,26 L 19,25 L 17,25 L 16,24 L 12,24 L 11,23 Z" fill="none" stroke="black" stroke-width="1"/>
</svg>