<svg xmlns="http://www.w3.org/2000/svg" width="98" height="68">
  <path d="M 96,10 L 95,11 L 94,11 L 93,12 L 89,12 L 88,11 L 79,11 L 78,12 L 76,12 L 75,13 L 75,14 L 77,16 L 76,17 L 77,17 L 78,18 L 78,21 L 79,22 L 79,24 L 80,25 L 80,30 L 73,37 L 73,39 L 74,40 L 74,41 L 75,42 L 75,43 L 78,46 L 79,46 L 82,49 L 82,50 L 84,52 L 84,55 L 80,59 L 80,60 L 81,60 L 83,62 L 84,62 L 84,61 L 85,60 L 85,59 L 84,58 L 84,57 L 85,56 L 85,55 L 88,52 L 88,50 L 89,49 L 89,47 L 90,46 L 90,43 L 91,42 L 91,40 L 92,39 L 91,38 L 91,32 L 92,31 L 92,30 L 93,29 L 93,27 L 94,26 L 94,25 L 95,24 L 95,13 L 96,12 L 96,11 L 97,10 Z" fill="none" stroke="black" stroke-width="1"/>
</svg>