<svg xmlns="http://www.w3.org/2000/svg" width="103" height="114">
  <path d="M 31,28 L 30,29 L 30,31 L 25,36 L 25,37 L 18,44 L 18,45 L 7,56 L 7,57 L 6,58 L 6,59 L 3,62 L 3,63 L 2,64 L 2,65 L 1,66 L 1,68 L 0,69 L 0,83 L 1,84 L 1,86 L 2,87 L 2,88 L 3,89 L 3,90 L 5,92 L 5,93 L 7,95 L 7,96 L 8,97 L 8,98 L 9,99 L 10,99 L 11,100 L 11,101 L 15,105 L 15,109 L 16,110 L 16,113 L 17,113 L 18,112 L 19,112 L 20,111 L 21,111 L 23,109 L 25,109 L 27,107 L 28,107 L 29,106 L 30,106 L 36,100 L 36,99 L 39,96 L 39,95 L 41,93 L 41,91 L 42,90 L 42,87 L 43,86 L 43,76 L 44,75 L 44,72 L 45,71 L 45,69 L 46,68 L 46,67 L 49,64 L 50,64 L 52,62 L 52,53 L 50,51 L 50,49 L 49,48 L 49,47 L 48,46 L 48,45 L 46,43 L 46,42 L 45,42 L 42,39 L 42,38 L 41,37 L 41,36 L 40,35 L 40,31 L 39,31 L 38,30 L 36,30 L 35,29 L 33,29 L 32,28 Z" fill="none" stroke="black" stroke-width="1"/>
</svg>