<svg xmlns="http://www.w3.org/2000/svg" width="103" height="114">
  <path d="M 101,59 L 101,61 L 102,62 L 102,63 L 99,66 L 99,68 L 98,69 L 98,72 L 99,73 L 99,74 L 99,71 L 100,70 L 100,69 L 102,67 L 102,59 Z" fill="none" stroke="black" stroke-width="1"/>
  <path d="M 53,53 L 53,62 L 50,65 L 49,65 L 47,67 L 47,68 L 46,69 L 46,71 L 45,72 L 45,75 L 44,76 L 44,80 L 46,80 L 48,78 L 49,78 L 50,77 L 51,77 L 52,76 L 53,76 L 54,75 L 56,75 L 57,74 L 59,74 L 60,73 L 69,73 L 71,75 L 72,75 L 73,76 L 74,76 L 75,77 L 76,77 L 77,78 L 78,78 L 79,79 L 80,79 L 81,80 L 85,80 L 86,81 L 94,81 L 95,80 L 99,80 L 99,79 L 100,78 L 100,77 L 99,76 L 98,76 L 96,74 L 96,68 L 95,67 L 94,67 L 92,65 L 92,64 L 91,63 L 91,61 L 86,61 L 85,60 L 83,60 L 82,59 L 60,59 L 59,58 L 57,58 L 53,54 Z" fill="none" stroke="black" stroke-width="1"/>
</svg>