<svg xmlns="http://www.w3.org/2000/svg" width="386" height="67">
  <path d="M 7,9 L 8,9 Z" fill="none" stroke="black" stroke-width="1"/>
  <path d="M 7,3 L 8,3 Z" fill="none" stroke="black" stroke-width="1"/>
  <path d="M 31,2 L 30,3 L 28,3 L 28,4 L 29,5 L 29,6 L 28,7 L 27,6 L 27,7 L 28,8 L 27,9 L 25,9 L 22,12 L 21,12 L 20,13 L 20,14 L 19,15 L 19,16 L 22,19 L 22,17 L 23,16 L 24,17 L 25,17 L 26,18 L 27,18 L 27,16 L 26,15 L 25,15 L 24,14 L 25,13 L 27,13 L 29,15 L 30,15 L 31,14 L 32,15 L 33,14 L 33,13 L 32,13 L 31,12 L 32,11 L 39,11 L 40,10 L 42,10 L 43,9 L 45,9 L 45,8 L 44,7 L 45,6 L 45,5 L 43,3 L 39,3 L 39,5 L 40,6 L 40,8 L 39,9 L 38,8 L 38,7 L 37,7 L 34,4 L 35,3 L 37,3 L 36,3 L 35,2 L 34,2 L 33,3 L 32,3 Z" fill="none" stroke="black" stroke-width="1"/>
  <path d="M 11,2 L 13,2 Z" fill="none" stroke="black" stroke-width="1"/>
  <path d="M 18,0 L 18,1 L 19,1 L 20,2 L 22,2 L 23,3 L 23,4 L 22,5 L 20,5 L 19,4 L 18,4 L 17,3 L 15,3 L 15,4 L 14,5 L 10,5 L 12,7 L 11,8 L 10,8 L 11,8 L 12,9 L 9,12 L 9,13 L 8,14 L 6,14 L 5,13 L 3,13 L 2,12 L 1,12 L 0,11 L 0,12 L 2,12 L 4,14 L 3,15 L 1,15 L 3,15 L 5,17 L 9,17 L 10,16 L 10,14 L 11,13 L 12,13 L 13,12 L 14,12 L 15,13 L 21,7 L 23,7 L 23,6 L 25,4 L 25,3 L 23,1 L 21,1 L 20,0 Z" fill="none" stroke="black" stroke-width="1"/>
</svg>