<svg xmlns="http://www.w3.org/2000/svg" width="160" height="136">
  <path d="M 15,133 L 14,134 L 14,135 L 17,135 L 17,134 L 16,133 Z" fill="none" stroke="black" stroke-width="1"/>
  <path d="M 35,128 L 35,131 L 36,130 L 36,128 Z" fill="none" stroke="black" stroke-width="1"/>
  <path d="M 26,128 L 26,132 L 28,134 L 30,134 L 30,132 Z" fill="none" stroke="black" stroke-width="1"/>
  <path d="M 40,113 L 40,114 L 39,115 L 39,116 L 42,116 L 43,115 L 43,114 L 42,113 Z" fill="none" stroke="black" stroke-width="1"/>
  <path d="M 15,106 L 16,106 L 17,107 L 18,106 L 19,106 L 20,107 L 21,107 L 20,107 L 19,106 Z" fill="none" stroke="black" stroke-width="1"/>
  <path d="M 39,103 L 39,104 Z" fill="none" stroke="black" stroke-width="1"/>
  <path d="M 5,102 L 6,103 L 6,102 Z" fill="none" stroke="black" stroke-width="1"/>
  <path d="M 3,97 L 2,98 L 1,98 L 0,99 L 1,100 L 1,101 L 2,101 L 4,99 L 5,99 L 6,98 L 5,97 Z" fill="none" stroke="black" stroke-width="1"/>
</svg>