<svg xmlns="http://www.w3.org/2000/svg" width="84" height="38">
  <path d="M 39,24 L 38,25 L 37,25 L 37,28 L 39,26 L 41,26 L 42,25 L 42,24 Z" fill="none" stroke="black" stroke-width="1"/>
  <path d="M 38,0 L 37,1 L 36,1 L 35,2 L 33,2 L 33,3 L 34,3 L 35,4 L 35,6 L 36,7 L 36,10 L 35,11 L 34,11 L 33,10 L 33,9 L 34,8 L 33,7 L 33,5 L 33,6 L 32,7 L 32,9 L 31,10 L 30,9 L 30,8 L 28,6 L 29,5 L 28,5 L 27,4 L 26,4 L 27,5 L 27,6 L 25,8 L 24,8 L 23,9 L 22,9 L 21,10 L 20,9 L 18,9 L 18,10 L 19,10 L 21,12 L 21,13 L 22,14 L 22,19 L 23,20 L 30,20 L 31,21 L 31,22 L 30,23 L 31,23 L 32,24 L 33,24 L 34,25 L 35,25 L 35,24 L 36,23 L 36,22 L 35,22 L 34,21 L 35,20 L 37,20 L 38,19 L 40,19 L 41,18 L 39,16 L 38,16 L 37,15 L 37,13 L 39,11 L 41,11 L 43,9 L 43,6 L 42,5 L 42,3 L 43,2 L 42,1 L 40,1 L 39,0 Z" fill="none" stroke="black" stroke-width="1"/>
</svg>