<svg xmlns="http://www.w3.org/2000/svg" width="170" height="207">
  <path d="M 156,204 L 155,205 L 154,205 L 154,206 L 158,206 L 158,204 Z" fill="none" stroke="black" stroke-width="1"/>
  <path d="M 134,193 L 134,197 L 137,194 L 137,193 Z" fill="none" stroke="black" stroke-width="1"/>
  <path d="M 121,186 L 123,186 L 125,188 L 125,187 L 124,186 Z" fill="none" stroke="black" stroke-width="1"/>
  <path d="M 118,184 L 117,185 L 116,185 L 117,186 L 118,186 L 119,185 L 119,184 Z" fill="none" stroke="black" stroke-width="1"/>
  <path d="M 87,175 L 88,175 Z" fill="none" stroke="black" stroke-width="1"/>
  <path d="M 101,152 L 99,154 L 99,156 L 98,157 L 97,157 L 96,158 L 93,158 L 92,159 L 92,160 L 89,163 L 87,163 L 89,165 L 87,167 L 84,167 L 83,168 L 79,168 L 78,169 L 76,169 L 77,170 L 78,170 L 79,169 L 80,169 L 81,170 L 80,171 L 82,171 L 83,172 L 83,173 L 84,174 L 85,174 L 88,171 L 91,171 L 92,170 L 93,170 L 94,171 L 91,174 L 90,174 L 90,175 L 91,176 L 90,177 L 87,177 L 88,177 L 90,179 L 91,179 L 92,178 L 91,177 L 92,176 L 93,176 L 94,175 L 95,176 L 95,178 L 96,178 L 97,179 L 96,180 L 94,180 L 93,181 L 92,181 L 91,182 L 90,182 L 91,182 L 92,183 L 91,184 L 90,184 L 91,185 L 96,185 L 95,185 L 94,184 L 96,182 L 102,182 L 100,180 L 101,179 L 109,179 L 110,180 L 109,181 L 109,182 L 110,183 L 113,180 L 114,180 L 116,178 L 117,178 L 117,177 L 118,176 L 120,178 L 120,180 L 119,181 L 117,181 L 116,182 L 115,182 L 115,183 L 116,182 L 118,182 L 119,181 L 120,181 L 120,179 L 121,178 L 122,178 L 123,179 L 123,180 L 124,181 L 124,182 L 122,184 L 121,184 L 123,184 L 125,182 L 128,182 L 129,181 L 130,181 L 131,180 L 129,180 L 128,179 L 130,177 L 130,176 L 128,176 L 126,178 L 125,178 L 124,179 L 123,179 L 122,178 L 123,177 L 123,176 L 124,175 L 124,174 L 123,173 L 124,172 L 125,172 L 127,170 L 128,171 L 128,172 L 127,173 L 127,174 L 130,174 L 131,173 L 132,173 L 133,174 L 133,175 L 134,175 L 134,174 L 135,173 L 136,173 L 137,174 L 136,175 L 136,176 L 135,177 L 135,180 L 132,183 L 131,183 L 129,185 L 129,186 L 130,187 L 129,188 L 129,189 L 130,190 L 132,188 L 132,187 L 134,185 L 135,186 L 135,187 L 134,188 L 135,188 L 137,186 L 138,187 L 138,188 L 136,190 L 136,191 L 138,191 L 139,190 L 139,189 L 140,188 L 140,187 L 144,183 L 146,183 L 147,184 L 145,186 L 144,186 L 143,187 L 143,189 L 142,190 L 142,192 L 141,193 L 141,194 L 140,195 L 139,195 L 138,196 L 139,196 L 141,194 L 142,194 L 142,193 L 143,192 L 143,191 L 146,188 L 147,188 L 148,189 L 148,190 L 145,193 L 145,194 L 143,196 L 143,197 L 142,198 L 141,198 L 140,199 L 140,200 L 141,201 L 146,201 L 147,200 L 148,201 L 148,202 L 149,202 L 150,203 L 150,204 L 151,204 L 151,203 L 152,202 L 151,201 L 151,200 L 150,200 L 149,199 L 148,199 L 147,198 L 148,197 L 150,197 L 152,195 L 152,194 L 154,192 L 155,193 L 155,195 L 154,196 L 154,199 L 155,200 L 156,200 L 158,202 L 159,202 L 160,203 L 164,203 L 166,201 L 168,201 L 167,201 L 166,200 L 167,199 L 169,199 L 168,198 L 168,197 L 167,197 L 166,196 L 167,195 L 169,195 L 168,194 L 168,193 L 166,193 L 165,194 L 164,194 L 163,195 L 162,195 L 161,194 L 162,193 L 162,192 L 161,192 L 160,191 L 160,190 L 155,190 L 154,189 L 153,189 L 152,188 L 153,187 L 159,187 L 159,185 L 158,184 L 158,183 L 157,183 L 156,182 L 155,182 L 154,181 L 154,180 L 153,180 L 152,181 L 151,181 L 148,178 L 149,177 L 148,176 L 148,174 L 145,177 L 143,175 L 143,172 L 145,170 L 145,169 L 144,168 L 144,167 L 145,166 L 145,165 L 146,164 L 145,163 L 145,160 L 144,159 L 143,159 L 140,156 L 141,155 L 141,154 L 140,153 L 140,152 L 136,156 L 136,157 L 129,164 L 129,165 L 128,166 L 127,166 L 126,165 L 126,164 L 124,164 L 122,162 L 122,161 L 121,161 L 120,162 L 119,162 L 118,163 L 117,163 L 117,165 L 114,168 L 114,171 L 111,174 L 110,173 L 110,172 L 109,173 L 109,174 L 108,175 L 106,175 L 105,176 L 103,176 L 102,175 L 102,172 L 101,171 L 101,168 L 102,167 L 102,166 L 104,164 L 104,163 L 105,162 L 105,160 L 106,159 L 106,157 L 105,156 L 105,155 L 102,152 Z" fill="none" stroke="black" stroke-width="1"/>
</svg>