<svg xmlns="http://www.w3.org/2000/svg" width="170" height="207">
  <path d="M 48,128 L 50,128 Z" fill="none" stroke="black" stroke-width="1"/>
  <path d="M 38,98 L 37,99 L 39,99 L 40,98 Z" fill="none" stroke="black" stroke-width="1"/>
  <path d="M 46,93 L 45,94 L 45,95 L 44,96 L 44,97 L 45,97 L 45,96 L 46,95 L 47,95 L 48,94 L 48,93 Z" fill="none" stroke="black" stroke-width="1"/>
  <path d="M 42,93 L 40,95 L 40,96 L 42,96 L 42,94 L 43,93 Z" fill="none" stroke="black" stroke-width="1"/>
  <path d="M 53,89 L 51,91 L 48,91 L 49,91 L 52,94 L 55,94 L 56,93 L 57,93 L 57,91 L 56,90 L 55,90 L 54,89 Z" fill="none" stroke="black" stroke-width="1"/>
  <path d="M 14,69 L 15,70 L 16,69 Z" fill="none" stroke="black" stroke-width="1"/>
  <path d="M 5,43 L 5,45 L 4,46 L 4,48 L 5,49 L 6,49 L 7,50 L 5,52 L 6,53 L 5,54 L 4,54 L 5,55 L 6,54 L 7,54 L 9,52 L 10,52 L 11,51 L 12,51 L 13,50 L 14,50 L 15,49 L 16,49 L 17,48 L 17,47 L 18,46 L 19,46 L 20,45 L 21,45 L 22,44 L 21,43 L 18,43 L 17,44 L 10,44 L 9,43 Z" fill="none" stroke="black" stroke-width="1"/>
  <path d="M 9,34 L 8,35 L 7,35 L 7,36 L 8,36 L 9,35 L 12,35 L 12,34 Z" fill="none" stroke="black" stroke-width="1"/>
  <path d="M 46,33 L 45,34 L 42,34 L 40,36 L 40,37 L 38,39 L 37,39 L 36,40 L 35,40 L 34,41 L 31,41 L 30,42 L 30,43 L 29,44 L 28,44 L 27,45 L 25,45 L 24,46 L 23,46 L 22,47 L 21,47 L 19,49 L 19,50 L 17,52 L 16,52 L 15,53 L 14,53 L 13,54 L 12,54 L 11,55 L 10,55 L 8,57 L 9,58 L 10,57 L 9,56 L 10,55 L 11,55 L 12,56 L 13,56 L 14,55 L 17,55 L 18,56 L 21,56 L 22,57 L 24,57 L 25,56 L 26,56 L 27,55 L 30,55 L 31,54 L 32,54 L 33,55 L 33,56 L 32,57 L 31,57 L 30,58 L 29,58 L 28,59 L 26,59 L 25,60 L 20,60 L 19,59 L 18,59 L 17,58 L 14,58 L 13,59 L 12,59 L 12,60 L 13,59 L 14,59 L 15,58 L 16,58 L 17,59 L 17,60 L 16,61 L 14,61 L 13,62 L 14,63 L 13,64 L 12,64 L 11,63 L 11,64 L 12,65 L 12,67 L 15,67 L 16,66 L 16,65 L 17,64 L 18,64 L 19,65 L 19,66 L 18,67 L 18,68 L 20,68 L 22,70 L 23,69 L 24,69 L 25,68 L 26,68 L 27,67 L 28,67 L 29,66 L 29,65 L 30,64 L 31,64 L 32,63 L 33,63 L 34,62 L 36,62 L 38,60 L 46,60 L 47,61 L 49,61 L 50,62 L 52,62 L 53,63 L 53,64 L 52,65 L 49,65 L 47,63 L 38,63 L 37,64 L 35,64 L 34,65 L 33,65 L 34,66 L 34,67 L 33,68 L 32,68 L 30,70 L 28,70 L 27,71 L 25,71 L 23,73 L 22,73 L 22,76 L 23,76 L 24,75 L 24,74 L 25,73 L 27,73 L 28,74 L 26,76 L 27,76 L 28,77 L 26,79 L 28,81 L 29,81 L 30,82 L 28,84 L 27,84 L 27,86 L 29,84 L 30,84 L 31,83 L 32,83 L 34,81 L 36,81 L 37,82 L 38,82 L 39,81 L 40,81 L 41,82 L 39,84 L 38,84 L 37,85 L 36,85 L 35,86 L 32,86 L 30,88 L 29,88 L 28,89 L 29,90 L 29,96 L 30,97 L 30,101 L 31,101 L 32,100 L 33,100 L 35,98 L 35,97 L 38,94 L 38,93 L 39,92 L 39,90 L 42,87 L 43,87 L 44,88 L 43,89 L 43,91 L 45,91 L 45,90 L 46,89 L 47,89 L 48,88 L 49,88 L 50,87 L 51,87 L 52,86 L 53,87 L 57,87 L 60,84 L 61,85 L 61,86 L 60,87 L 60,88 L 61,89 L 60,90 L 60,92 L 62,94 L 63,94 L 64,95 L 66,95 L 68,97 L 68,98 L 67,99 L 66,98 L 65,98 L 64,97 L 63,97 L 62,96 L 61,96 L 60,95 L 59,96 L 58,96 L 57,97 L 50,97 L 48,99 L 48,100 L 47,101 L 46,101 L 45,102 L 40,102 L 39,101 L 36,101 L 35,102 L 36,102 L 38,104 L 39,103 L 45,103 L 46,102 L 48,102 L 49,101 L 50,101 L 51,100 L 52,100 L 53,99 L 54,100 L 60,100 L 62,102 L 62,103 L 61,104 L 60,104 L 59,103 L 58,103 L 57,102 L 56,102 L 55,103 L 52,103 L 51,104 L 50,104 L 49,105 L 48,105 L 47,106 L 36,106 L 37,106 L 38,107 L 39,106 L 40,107 L 40,108 L 44,108 L 45,109 L 44,110 L 43,110 L 42,111 L 41,111 L 40,112 L 38,112 L 38,114 L 39,114 L 44,119 L 43,120 L 43,121 L 52,121 L 53,120 L 57,120 L 58,121 L 57,122 L 56,122 L 55,123 L 54,123 L 53,124 L 45,124 L 45,126 L 46,126 L 48,124 L 49,125 L 53,125 L 54,126 L 55,125 L 57,125 L 58,124 L 60,124 L 61,125 L 60,126 L 59,126 L 58,127 L 57,127 L 56,128 L 53,128 L 52,129 L 52,131 L 54,131 L 55,132 L 58,129 L 59,130 L 60,129 L 64,129 L 65,128 L 66,129 L 66,130 L 65,131 L 65,132 L 64,133 L 63,132 L 63,131 L 62,132 L 60,132 L 58,134 L 58,135 L 57,136 L 57,137 L 59,135 L 60,135 L 62,133 L 63,134 L 63,135 L 59,139 L 58,139 L 58,140 L 57,141 L 57,143 L 60,146 L 62,146 L 64,148 L 70,148 L 71,149 L 70,150 L 68,150 L 72,150 L 73,151 L 71,153 L 67,153 L 67,155 L 71,155 L 72,156 L 71,157 L 68,157 L 70,157 L 71,158 L 72,158 L 74,156 L 73,156 L 72,155 L 73,154 L 74,154 L 74,150 L 76,148 L 77,148 L 78,149 L 77,150 L 77,152 L 78,152 L 79,153 L 78,154 L 77,154 L 77,155 L 78,155 L 79,156 L 75,160 L 75,161 L 76,162 L 80,162 L 82,164 L 81,165 L 73,165 L 74,166 L 79,166 L 80,165 L 83,165 L 84,164 L 85,164 L 87,162 L 89,162 L 91,160 L 91,159 L 93,157 L 96,157 L 97,156 L 98,156 L 98,154 L 101,151 L 100,151 L 99,150 L 98,150 L 97,149 L 96,149 L 94,147 L 92,147 L 90,145 L 90,144 L 89,144 L 88,143 L 88,142 L 91,139 L 92,139 L 93,138 L 94,138 L 94,137 L 98,133 L 98,132 L 97,132 L 96,133 L 95,133 L 94,134 L 92,132 L 92,130 L 89,130 L 87,128 L 87,124 L 86,123 L 86,122 L 84,120 L 84,119 L 83,118 L 81,118 L 80,119 L 75,119 L 74,120 L 72,120 L 71,121 L 67,121 L 59,113 L 51,113 L 48,116 L 44,116 L 43,115 L 43,113 L 44,112 L 46,112 L 47,111 L 47,110 L 48,109 L 50,109 L 51,110 L 52,109 L 56,109 L 57,108 L 58,108 L 59,109 L 61,107 L 62,108 L 63,108 L 64,107 L 64,106 L 67,103 L 68,103 L 69,104 L 70,104 L 70,103 L 72,101 L 72,100 L 71,99 L 72,98 L 71,97 L 71,95 L 70,94 L 69,94 L 65,90 L 66,89 L 68,89 L 70,87 L 71,87 L 72,86 L 72,85 L 73,84 L 73,82 L 74,81 L 74,80 L 72,78 L 71,78 L 70,79 L 66,79 L 64,77 L 65,76 L 60,76 L 60,78 L 58,80 L 58,83 L 57,84 L 56,84 L 55,83 L 55,82 L 54,82 L 52,80 L 51,80 L 51,81 L 48,84 L 48,85 L 47,86 L 41,86 L 39,88 L 39,89 L 38,90 L 37,90 L 35,92 L 35,93 L 32,96 L 31,95 L 31,94 L 32,93 L 32,89 L 34,87 L 35,88 L 36,87 L 37,87 L 43,81 L 45,81 L 45,78 L 46,77 L 46,76 L 45,75 L 42,75 L 41,76 L 35,76 L 34,77 L 31,77 L 30,76 L 30,75 L 31,74 L 31,73 L 32,72 L 38,72 L 41,69 L 40,69 L 39,68 L 40,67 L 41,67 L 42,66 L 44,66 L 45,67 L 47,67 L 49,69 L 55,69 L 56,68 L 56,67 L 58,65 L 59,65 L 59,64 L 61,62 L 60,61 L 59,61 L 58,60 L 58,59 L 57,58 L 56,58 L 55,59 L 53,59 L 52,58 L 51,58 L 50,59 L 44,59 L 43,58 L 38,58 L 36,60 L 33,60 L 32,61 L 32,62 L 30,64 L 29,64 L 28,65 L 26,65 L 25,66 L 24,66 L 22,68 L 21,68 L 20,67 L 20,65 L 24,61 L 25,61 L 26,60 L 27,61 L 28,60 L 30,60 L 32,58 L 33,58 L 34,57 L 33,56 L 34,55 L 34,54 L 35,53 L 35,52 L 34,51 L 33,51 L 32,52 L 31,52 L 29,54 L 28,54 L 27,55 L 23,55 L 22,56 L 21,55 L 19,55 L 17,53 L 18,52 L 19,52 L 20,51 L 20,50 L 21,49 L 22,49 L 24,47 L 26,47 L 27,46 L 28,46 L 29,45 L 30,45 L 31,44 L 32,44 L 34,42 L 36,42 L 37,41 L 38,41 L 38,40 L 43,35 L 44,36 L 45,36 L 46,35 Z" fill="none" stroke="black" stroke-width="1"/>
  <path d="M 1,26 L 1,27 L 0,28 L 1,28 L 3,30 L 2,31 L 3,32 L 13,32 L 15,34 L 14,35 L 16,35 L 17,36 L 19,36 L 21,38 L 20,39 L 10,39 L 9,40 L 8,40 L 11,40 L 12,41 L 25,41 L 26,42 L 27,41 L 28,41 L 31,38 L 32,38 L 34,36 L 35,36 L 36,35 L 37,35 L 38,34 L 39,34 L 37,34 L 36,35 L 35,35 L 34,36 L 33,36 L 31,38 L 27,38 L 26,37 L 27,36 L 28,36 L 29,35 L 26,32 L 25,32 L 24,31 L 24,30 L 23,29 L 19,29 L 18,28 L 16,28 L 16,30 L 14,32 L 12,30 L 11,31 L 10,31 L 9,30 L 8,30 L 6,28 L 6,27 L 5,26 Z" fill="none" stroke="black" stroke-width="1"/>
  <path d="M 3,19 L 2,20 L 2,21 L 1,22 L 1,24 L 2,24 L 3,23 L 5,23 L 5,22 L 4,21 L 5,20 L 4,19 Z" fill="none" stroke="black" stroke-width="1"/>
  <path d="M 5,9 L 4,10 L 3,10 L 3,11 L 4,12 L 4,10 L 5,9 L 6,10 L 6,13 L 5,14 L 4,14 L 3,15 L 3,16 L 5,16 L 7,14 L 8,14 L 7,13 L 7,12 L 8,11 L 8,10 L 7,10 L 6,9 Z" fill="none" stroke="black" stroke-width="1"/>
  <path d="M 7,7 L 8,8 L 9,8 L 9,7 Z" fill="none" stroke="black" stroke-width="1"/>
  <path d="M 7,2 L 8,3 L 10,3 L 11,4 L 11,6 L 12,7 L 14,5 L 12,3 L 11,4 L 10,3 L 10,2 Z" fill="none" stroke="black" stroke-width="1"/>
  <path d="M 8,0 L 12,0 L 13,1 L 14,0 Z" fill="none" stroke="black" stroke-width="1"/>
</svg>