<svg xmlns="http://www.w3.org/2000/svg" width="52" height="132">
  <path d="M 3,0 L 2,1 L 0,1 L 5,6 L 5,7 L 7,9 L 7,10 L 8,11 L 8,13 L 7,14 L 7,15 L 10,18 L 10,19 L 12,17 L 12,16 L 13,15 L 15,17 L 12,20 L 12,23 L 14,25 L 14,26 L 16,28 L 16,29 L 19,32 L 19,33 L 20,34 L 20,35 L 21,35 L 23,33 L 24,33 L 26,35 L 25,36 L 24,36 L 25,36 L 28,39 L 28,41 L 30,41 L 31,40 L 30,39 L 31,38 L 31,37 L 32,36 L 32,35 L 29,32 L 29,31 L 28,31 L 27,30 L 27,27 L 26,26 L 27,25 L 28,25 L 29,26 L 29,25 L 27,23 L 28,22 L 29,22 L 27,20 L 27,19 L 26,19 L 25,18 L 26,17 L 25,16 L 25,14 L 25,15 L 24,16 L 23,16 L 22,17 L 21,16 L 21,14 L 22,13 L 20,13 L 19,12 L 18,12 L 17,13 L 16,13 L 15,12 L 16,11 L 12,11 L 11,10 L 11,9 L 12,8 L 11,7 L 11,8 L 10,9 L 9,9 L 7,7 L 7,6 L 5,4 L 5,0 L 4,1 Z" fill="none" stroke="black" stroke-width="1"/>
</svg>