<svg xmlns="http://www.w3.org/2000/svg" width="52" height="132">
  <path d="M 36,80 L 35,81 L 33,81 L 32,82 L 30,82 L 29,83 L 29,84 L 27,86 L 23,86 L 22,87 L 20,87 L 19,88 L 18,88 L 18,89 L 17,90 L 17,91 L 18,92 L 18,93 L 19,94 L 20,94 L 21,95 L 23,95 L 26,98 L 27,98 L 30,101 L 34,101 L 35,102 L 36,102 L 37,103 L 37,104 L 38,105 L 38,106 L 40,108 L 40,111 L 39,112 L 39,115 L 38,116 L 38,118 L 36,120 L 36,121 L 33,124 L 33,125 L 30,128 L 31,129 L 32,129 L 32,127 L 33,126 L 34,127 L 34,131 L 36,129 L 36,127 L 38,125 L 38,124 L 39,123 L 39,122 L 40,121 L 41,121 L 42,120 L 43,120 L 43,119 L 44,118 L 44,116 L 46,114 L 46,113 L 47,112 L 47,101 L 46,100 L 45,100 L 42,97 L 42,93 L 41,92 L 41,89 L 40,88 L 40,81 L 39,81 L 38,80 Z" fill="none" stroke="black" stroke-width="1"/>
</svg>