<svg xmlns="http://www.w3.org/2000/svg" width="121" height="114">
  <path d="M 105,27 L 103,29 L 102,29 L 101,30 L 99,30 L 98,31 L 97,31 L 96,32 L 96,34 L 95,35 L 92,35 L 92,37 L 87,42 L 86,42 L 85,43 L 80,43 L 79,44 L 77,44 L 76,45 L 75,45 L 75,46 L 74,47 L 73,47 L 72,48 L 72,49 L 69,52 L 66,52 L 64,54 L 64,55 L 63,56 L 62,56 L 60,58 L 60,59 L 59,60 L 58,60 L 57,61 L 56,61 L 56,62 L 55,63 L 54,63 L 52,65 L 51,65 L 50,66 L 48,66 L 48,68 L 47,69 L 45,69 L 44,70 L 43,70 L 40,73 L 39,73 L 39,74 L 38,75 L 37,75 L 36,76 L 34,76 L 34,78 L 36,80 L 38,80 L 39,79 L 41,81 L 39,83 L 39,84 L 37,86 L 36,86 L 35,87 L 35,88 L 36,89 L 36,90 L 35,91 L 35,94 L 36,95 L 36,99 L 39,102 L 39,104 L 40,105 L 40,106 L 41,107 L 41,110 L 42,111 L 42,113 L 44,113 L 46,111 L 49,111 L 48,110 L 49,109 L 50,109 L 50,108 L 51,107 L 52,107 L 53,106 L 54,106 L 56,104 L 57,104 L 57,102 L 59,100 L 60,100 L 61,99 L 63,99 L 63,98 L 64,97 L 63,97 L 62,96 L 65,93 L 65,92 L 67,90 L 66,89 L 66,88 L 68,86 L 68,85 L 71,82 L 71,81 L 72,80 L 72,76 L 73,75 L 73,73 L 75,71 L 76,71 L 79,68 L 81,68 L 82,67 L 83,67 L 85,65 L 86,65 L 87,64 L 88,64 L 89,63 L 90,63 L 90,62 L 92,60 L 93,60 L 94,61 L 95,61 L 98,64 L 99,64 L 99,63 L 100,62 L 101,63 L 102,62 L 102,61 L 101,60 L 100,60 L 99,59 L 97,59 L 96,58 L 96,51 L 98,49 L 99,49 L 100,48 L 101,48 L 102,47 L 103,47 L 105,45 L 105,44 L 106,43 L 106,42 L 107,41 L 107,40 L 108,39 L 108,37 L 113,32 L 114,32 L 115,31 L 115,30 L 114,30 L 113,29 L 112,29 L 111,28 L 111,27 Z" fill="none" stroke="black" stroke-width="1"/>
</svg>