<svg xmlns="http://www.w3.org/2000/svg" width="81" height="76">
  <path d="M 64,19 L 62,21 L 61,21 L 60,22 L 57,22 L 57,28 L 56,29 L 56,30 L 54,32 L 54,33 L 50,37 L 50,38 L 49,39 L 49,40 L 45,44 L 45,45 L 43,47 L 42,47 L 40,49 L 39,49 L 38,50 L 36,50 L 34,52 L 34,54 L 35,55 L 35,56 L 37,56 L 38,57 L 38,58 L 56,58 L 56,57 L 57,56 L 60,56 L 60,51 L 61,50 L 61,49 L 62,48 L 62,43 L 61,42 L 62,41 L 62,40 L 63,39 L 63,35 L 64,34 L 64,31 L 65,30 L 66,30 L 66,29 L 68,27 L 68,26 L 69,25 L 69,19 Z" fill="none" stroke="black" stroke-width="1"/>
</svg>