<svg xmlns="http://www.w3.org/2000/svg" width="60" height="97">
  <path d="M 22,0 L 23,1 L 23,16 L 22,17 L 22,19 L 21,20 L 21,22 L 20,23 L 20,24 L 18,26 L 18,29 L 20,31 L 20,33 L 22,33 L 23,32 L 28,32 L 29,33 L 31,33 L 31,32 L 32,31 L 32,29 L 33,28 L 33,27 L 34,26 L 34,25 L 35,24 L 36,24 L 36,18 L 37,17 L 37,15 L 38,14 L 38,12 L 40,10 L 41,10 L 42,11 L 43,11 L 42,10 L 41,10 L 38,7 L 36,7 L 35,6 L 35,5 L 34,4 L 33,4 L 32,3 L 31,3 L 30,2 L 29,2 L 28,1 L 26,1 L 25,0 Z" fill="none" stroke="black" stroke-width="1"/>
</svg>