<svg xmlns="http://www.w3.org/2000/svg" width="60" height="97">
  <path d="M 17,29 L 17,33 L 16,34 L 16,35 L 15,36 L 15,46 L 14,47 L 14,48 L 12,50 L 12,51 L 11,52 L 11,53 L 9,55 L 9,56 L 5,60 L 4,60 L 3,61 L 2,61 L 1,62 L 0,62 L 1,62 L 2,61 L 3,62 L 5,62 L 6,63 L 6,65 L 7,66 L 8,66 L 9,67 L 9,68 L 12,68 L 15,65 L 19,65 L 21,63 L 21,61 L 22,60 L 23,60 L 24,59 L 27,59 L 27,58 L 28,57 L 28,54 L 29,53 L 29,52 L 30,51 L 30,50 L 31,49 L 31,48 L 32,47 L 32,46 L 36,42 L 38,42 L 42,38 L 42,33 L 39,30 L 38,31 L 35,31 L 34,32 L 32,32 L 32,33 L 31,34 L 29,34 L 28,33 L 23,33 L 22,34 L 20,34 L 19,33 L 19,31 Z" fill="none" stroke="black" stroke-width="1"/>
</svg>