<svg xmlns="http://www.w3.org/2000/svg" width="101" height="66">
  <path d="M 10,41 L 9,42 L 10,43 L 11,42 L 11,41 Z" fill="none" stroke="black" stroke-width="1"/>
  <path d="M 17,39 L 16,40 L 17,40 Z" fill="none" stroke="black" stroke-width="1"/>
  <path d="M 20,34 L 21,34 Z" fill="none" stroke="black" stroke-width="1"/>
  <path d="M 13,34 L 12,35 L 12,36 L 13,36 Z" fill="none" stroke="black" stroke-width="1"/>
  <path d="M 8,34 L 7,35 L 6,35 L 8,35 Z" fill="none" stroke="black" stroke-width="1"/>
  <path d="M 28,8 L 27,9 L 26,9 L 25,10 L 22,10 L 22,14 L 20,16 L 20,18 L 19,19 L 13,19 L 12,18 L 10,18 L 9,19 L 5,19 L 4,18 L 3,18 L 2,19 L 1,19 L 0,20 L 1,21 L 2,21 L 3,22 L 4,22 L 5,23 L 5,24 L 6,24 L 8,22 L 9,22 L 10,21 L 11,22 L 11,23 L 10,24 L 9,24 L 7,26 L 7,27 L 8,27 L 9,28 L 11,28 L 12,29 L 11,30 L 10,30 L 11,31 L 12,30 L 12,28 L 14,26 L 15,26 L 16,27 L 14,29 L 14,31 L 15,30 L 17,30 L 18,29 L 19,29 L 21,27 L 23,27 L 24,28 L 25,27 L 27,27 L 28,28 L 28,30 L 29,31 L 28,32 L 27,32 L 26,31 L 26,29 L 25,30 L 23,30 L 22,29 L 20,31 L 20,32 L 27,32 L 28,33 L 28,34 L 27,35 L 26,34 L 23,34 L 23,35 L 22,36 L 21,36 L 21,37 L 22,36 L 23,37 L 23,38 L 22,39 L 22,40 L 23,41 L 25,41 L 26,40 L 27,40 L 28,41 L 26,43 L 27,44 L 27,45 L 28,46 L 29,45 L 29,44 L 30,43 L 31,44 L 31,46 L 32,46 L 33,47 L 33,48 L 34,47 L 34,46 L 36,44 L 36,43 L 40,39 L 41,39 L 42,38 L 42,37 L 43,36 L 43,33 L 44,32 L 44,30 L 45,29 L 45,27 L 46,26 L 46,24 L 43,21 L 43,20 L 42,19 L 42,15 L 41,14 L 41,13 L 40,13 L 39,12 L 38,12 L 37,11 L 37,9 L 35,9 L 34,8 Z" fill="none" stroke="black" stroke-width="1"/>
</svg>