<svg xmlns="http://www.w3.org/2000/svg" width="88" height="75">
  <path d="M 7,0 L 6,1 L 6,3 L 5,4 L 5,6 L 4,7 L 4,13 L 3,14 L 2,14 L 2,15 L 1,16 L 1,17 L 0,18 L 0,20 L 1,20 L 2,19 L 5,19 L 6,18 L 8,20 L 9,20 L 9,19 L 10,18 L 21,18 L 22,19 L 23,19 L 25,21 L 26,21 L 28,23 L 29,23 L 30,24 L 31,24 L 32,25 L 34,25 L 35,26 L 35,27 L 38,27 L 40,29 L 40,32 L 41,32 L 42,33 L 43,33 L 44,34 L 44,35 L 49,35 L 49,30 L 54,25 L 54,24 L 55,23 L 55,22 L 53,20 L 53,17 L 52,16 L 52,11 L 51,10 L 51,8 L 50,8 L 48,6 L 46,6 L 45,5 L 43,5 L 41,3 L 40,3 L 39,2 L 38,2 L 37,3 L 36,3 L 35,4 L 28,4 L 27,3 L 25,3 L 24,4 L 23,4 L 22,5 L 21,5 L 20,6 L 19,6 L 15,2 L 14,2 L 13,1 L 9,1 L 8,0 Z" fill="none" stroke="black" stroke-width="1"/>
</svg>