<svg xmlns="http://www.w3.org/2000/svg" width="60" height="97">
  <path d="M 42,39 L 38,43 L 36,43 L 33,46 L 33,47 L 32,48 L 32,49 L 31,50 L 31,51 L 30,52 L 30,53 L 29,54 L 29,57 L 28,58 L 28,59 L 27,60 L 24,60 L 23,61 L 22,61 L 22,66 L 23,67 L 23,68 L 24,69 L 26,69 L 27,70 L 30,70 L 32,72 L 36,72 L 37,73 L 40,73 L 41,74 L 42,74 L 44,76 L 45,76 L 46,77 L 48,77 L 49,78 L 50,78 L 52,80 L 52,81 L 53,82 L 54,82 L 57,79 L 57,77 L 58,76 L 58,73 L 57,72 L 57,71 L 56,70 L 56,69 L 59,66 L 57,64 L 57,58 L 56,57 L 56,56 L 57,55 L 57,54 L 58,53 L 59,53 L 59,49 L 57,47 L 57,46 L 56,46 L 55,45 L 55,44 L 54,43 L 53,43 L 51,41 L 47,41 L 45,39 Z" fill="none" stroke="black" stroke-width="1"/>
</svg>