<svg xmlns="http://www.w3.org/2000/svg" width="101" height="66">
  <path d="M 86,26 L 85,27 L 84,27 L 82,29 L 81,29 L 80,30 L 79,29 L 73,29 L 71,27 L 70,28 L 68,28 L 66,30 L 60,30 L 59,31 L 58,31 L 58,32 L 56,34 L 56,37 L 55,38 L 53,38 L 54,39 L 55,39 L 58,42 L 58,43 L 60,45 L 60,46 L 65,51 L 66,51 L 67,52 L 68,52 L 71,55 L 72,55 L 74,57 L 77,57 L 78,58 L 78,59 L 82,63 L 82,64 L 83,65 L 84,65 L 85,64 L 86,64 L 87,63 L 89,65 L 92,65 L 92,64 L 93,63 L 93,61 L 92,60 L 92,59 L 91,58 L 91,56 L 90,55 L 90,49 L 89,48 L 89,43 L 95,37 L 96,37 L 97,36 L 97,35 L 98,34 L 100,34 L 100,33 L 99,32 L 99,31 L 98,30 L 98,27 L 96,27 L 95,26 L 94,27 L 93,27 L 92,26 Z" fill="none" stroke="black" stroke-width="1"/>
</svg>