<svg xmlns="http://www.w3.org/2000/svg" width="111" height="116">
  <path d="M 33,34 L 33,36 L 28,41 L 21,41 L 22,41 L 23,42 L 22,43 L 22,47 L 24,47 L 25,48 L 24,49 L 24,50 L 23,51 L 22,50 L 22,49 L 21,49 L 21,50 L 22,51 L 22,52 L 23,53 L 24,53 L 25,52 L 25,51 L 26,50 L 27,51 L 27,53 L 26,54 L 27,55 L 27,57 L 26,58 L 29,61 L 31,61 L 32,62 L 31,63 L 27,63 L 28,64 L 30,64 L 31,65 L 33,63 L 36,63 L 37,62 L 38,63 L 38,64 L 37,65 L 34,65 L 33,66 L 34,66 L 35,67 L 36,67 L 37,68 L 39,68 L 40,69 L 41,69 L 42,70 L 44,70 L 46,72 L 47,72 L 49,74 L 50,74 L 50,73 L 52,71 L 52,70 L 56,66 L 56,65 L 57,64 L 52,64 L 51,63 L 50,63 L 49,62 L 48,62 L 47,61 L 46,61 L 42,57 L 41,57 L 40,56 L 40,51 L 38,49 L 37,49 L 34,46 L 34,39 L 36,37 L 35,36 L 35,35 L 34,34 Z" fill="none" stroke="black" stroke-width="1"/>
</svg>