<svg xmlns="http://www.w3.org/2000/svg" width="111" height="116">
  <path d="M 81,88 L 81,89 L 80,90 L 80,93 L 79,94 L 79,95 L 78,96 L 80,98 L 80,99 L 82,101 L 83,101 L 85,103 L 86,103 L 87,104 L 88,104 L 90,106 L 91,106 L 92,107 L 93,107 L 94,108 L 95,108 L 96,109 L 97,109 L 99,111 L 102,111 L 103,112 L 104,112 L 105,113 L 106,113 L 108,115 L 110,115 L 110,113 L 109,112 L 109,109 L 108,108 L 108,107 L 107,106 L 107,104 L 108,103 L 108,102 L 106,100 L 106,98 L 105,97 L 103,97 L 101,95 L 101,93 L 100,92 L 97,92 L 96,91 L 93,91 L 92,92 L 88,92 L 84,88 Z" fill="none" stroke="black" stroke-width="1"/>
</svg>