<svg xmlns="http://www.w3.org/2000/svg" width="81" height="81">
  <path d="M 15,0 L 13,2 L 11,2 L 9,4 L 9,5 L 5,9 L 2,9 L 2,11 L 1,12 L 1,16 L 0,17 L 1,17 L 6,22 L 6,29 L 7,30 L 7,31 L 6,32 L 6,33 L 3,36 L 3,37 L 4,38 L 10,38 L 11,39 L 12,38 L 13,38 L 15,36 L 16,36 L 17,35 L 23,35 L 24,36 L 25,36 L 26,35 L 26,31 L 27,30 L 27,29 L 30,26 L 30,20 L 31,19 L 31,18 L 34,15 L 36,15 L 37,14 L 37,13 L 36,12 L 32,12 L 31,11 L 31,10 L 27,10 L 26,9 L 25,9 L 24,8 L 23,8 L 22,7 L 21,7 L 18,4 L 18,3 Z" fill="none" stroke="black" stroke-width="1"/>
</svg>