<svg xmlns="http://www.w3.org/2000/svg" width="81" height="81">
  <path d="M 29,45 L 29,46 L 27,48 L 26,48 L 21,53 L 21,58 L 22,59 L 22,65 L 23,66 L 23,68 L 24,69 L 24,70 L 25,71 L 25,73 L 24,74 L 24,75 L 23,76 L 27,76 L 28,77 L 29,77 L 30,78 L 31,78 L 32,79 L 33,78 L 34,78 L 36,76 L 43,76 L 46,79 L 49,79 L 50,80 L 52,80 L 53,79 L 55,79 L 56,78 L 57,79 L 58,79 L 58,78 L 59,77 L 59,76 L 60,75 L 60,71 L 59,71 L 58,70 L 54,70 L 53,69 L 52,69 L 51,68 L 50,68 L 48,66 L 47,66 L 46,65 L 46,61 L 49,58 L 49,56 L 48,55 L 43,55 L 42,54 L 42,51 L 41,50 L 40,50 L 39,49 L 35,49 L 34,48 L 33,48 L 32,47 L 31,47 Z" fill="none" stroke="black" stroke-width="1"/>
</svg>