<svg xmlns="http://www.w3.org/2000/svg" width="96" height="71">
  <path d="M 35,20 L 32,23 L 31,23 L 31,24 L 30,25 L 26,25 L 25,26 L 23,26 L 22,27 L 19,27 L 18,26 L 17,26 L 15,28 L 11,28 L 10,29 L 8,29 L 2,35 L 2,37 L 0,39 L 1,40 L 1,46 L 2,47 L 3,47 L 4,46 L 7,46 L 8,45 L 14,45 L 15,46 L 16,46 L 18,48 L 19,48 L 26,55 L 27,55 L 29,53 L 31,53 L 32,52 L 33,52 L 35,50 L 35,49 L 36,48 L 36,45 L 37,44 L 37,43 L 40,40 L 41,40 L 42,39 L 42,36 L 41,36 L 39,34 L 39,30 L 40,29 L 40,28 L 39,27 L 39,23 L 38,23 Z" fill="none" stroke="black" stroke-width="1"/>
</svg>