<svg xmlns="http://www.w3.org/2000/svg" width="55" height="80">
  <path d="M 12,16 L 11,17 L 11,18 L 10,19 L 9,19 L 9,20 L 8,21 L 8,23 L 7,24 L 7,30 L 6,31 L 6,32 L 5,33 L 5,34 L 3,36 L 3,40 L 1,42 L 1,43 L 0,44 L 0,46 L 2,48 L 4,48 L 5,49 L 7,49 L 7,47 L 12,42 L 13,42 L 14,41 L 16,41 L 17,40 L 28,40 L 29,41 L 31,41 L 32,40 L 36,40 L 37,39 L 41,39 L 41,34 L 40,33 L 39,33 L 37,31 L 33,31 L 32,30 L 31,30 L 30,29 L 29,29 L 22,22 L 22,16 L 21,16 L 20,17 L 15,17 L 14,16 Z" fill="none" stroke="black" stroke-width="1"/>
</svg>