<svg xmlns="http://www.w3.org/2000/svg" width="81" height="81">
  <path d="M 66,22 L 65,23 L 64,23 L 64,24 L 63,25 L 61,25 L 62,26 L 62,31 L 61,32 L 62,33 L 62,36 L 61,37 L 61,38 L 60,39 L 58,39 L 57,40 L 56,40 L 55,41 L 55,51 L 54,52 L 54,53 L 52,55 L 51,55 L 50,56 L 50,58 L 47,61 L 47,65 L 48,65 L 50,67 L 51,67 L 52,68 L 53,68 L 54,69 L 58,69 L 59,70 L 60,70 L 60,68 L 59,67 L 61,65 L 61,63 L 68,56 L 70,56 L 71,55 L 75,55 L 76,54 L 75,53 L 75,46 L 78,43 L 78,42 L 79,41 L 79,34 L 80,33 L 80,32 L 79,32 L 78,31 L 78,27 L 76,27 L 74,25 L 72,25 L 71,24 L 69,24 L 67,22 Z" fill="none" stroke="black" stroke-width="1"/>
</svg>