<svg xmlns="http://www.w3.org/2000/svg" width="160" height="49">
  <path d="M 51,34 L 52,35 L 56,35 L 57,34 Z" fill="none" stroke="black" stroke-width="1"/>
  <path d="M 30,21 L 29,22 L 28,22 L 24,26 L 23,26 L 23,27 L 20,30 L 19,30 L 16,33 L 15,33 L 13,35 L 12,35 L 11,36 L 2,36 L 1,35 L 1,36 L 0,37 L 0,39 L 1,40 L 1,41 L 2,42 L 2,45 L 3,46 L 3,48 L 4,48 L 7,45 L 9,45 L 10,44 L 11,44 L 13,42 L 16,42 L 17,41 L 18,41 L 19,40 L 21,40 L 22,39 L 23,39 L 24,38 L 25,38 L 26,37 L 28,37 L 29,36 L 36,36 L 35,35 L 36,34 L 38,34 L 39,35 L 46,35 L 46,34 L 47,33 L 49,33 L 50,32 L 52,32 L 53,31 L 55,31 L 55,29 L 57,27 L 57,25 L 56,24 L 56,23 L 44,23 L 43,22 L 41,22 L 40,21 Z" fill="none" stroke="black" stroke-width="1"/>
</svg>