<svg xmlns="http://www.w3.org/2000/svg" width="195" height="236">
  <path d="M 36,0 L 36,1 L 34,3 L 32,3 L 31,4 L 30,4 L 29,5 L 28,5 L 27,6 L 26,6 L 25,7 L 24,7 L 22,9 L 21,9 L 20,10 L 17,10 L 16,11 L 15,10 L 5,10 L 4,11 L 0,11 L 0,12 L 3,15 L 3,17 L 4,17 L 11,24 L 11,25 L 12,26 L 12,27 L 23,38 L 23,39 L 27,43 L 27,44 L 30,47 L 30,48 L 32,50 L 32,51 L 33,52 L 33,53 L 34,54 L 34,56 L 36,58 L 36,61 L 37,62 L 37,69 L 36,70 L 36,72 L 35,73 L 35,82 L 39,82 L 40,83 L 42,83 L 43,84 L 44,84 L 45,85 L 46,85 L 50,89 L 51,89 L 53,91 L 54,91 L 62,99 L 62,100 L 63,101 L 64,101 L 66,103 L 69,103 L 70,102 L 70,101 L 68,99 L 68,98 L 67,97 L 67,94 L 68,93 L 69,93 L 69,89 L 68,88 L 68,85 L 67,84 L 67,83 L 66,82 L 66,81 L 65,80 L 65,77 L 64,76 L 64,75 L 63,74 L 63,66 L 62,65 L 62,54 L 61,53 L 61,52 L 60,51 L 60,49 L 59,48 L 59,44 L 58,43 L 58,40 L 57,39 L 57,22 L 58,21 L 58,19 L 59,18 L 59,16 L 60,15 L 60,14 L 61,13 L 61,8 L 62,7 L 62,5 L 61,4 L 59,4 L 58,3 L 53,3 L 52,2 L 49,2 L 48,1 L 44,1 L 43,0 Z" fill="none" stroke="black" stroke-width="1"/>
</svg>