<svg xmlns="http://www.w3.org/2000/svg" width="195" height="236">
  <path d="M 35,83 L 35,85 L 36,86 L 36,87 L 38,89 L 38,90 L 39,91 L 39,93 L 42,96 L 42,98 L 43,99 L 43,100 L 44,101 L 44,102 L 45,103 L 45,106 L 46,107 L 46,119 L 45,120 L 45,121 L 43,123 L 43,124 L 41,126 L 40,126 L 40,127 L 39,128 L 39,129 L 38,130 L 38,131 L 39,132 L 39,134 L 42,134 L 45,137 L 45,138 L 48,141 L 51,141 L 52,142 L 55,142 L 57,144 L 58,144 L 59,145 L 59,146 L 62,149 L 63,149 L 65,151 L 66,151 L 69,154 L 71,154 L 72,155 L 75,155 L 76,156 L 80,156 L 81,155 L 83,155 L 84,154 L 90,154 L 91,155 L 94,155 L 95,156 L 96,156 L 97,157 L 97,158 L 99,158 L 99,157 L 101,155 L 102,155 L 103,154 L 109,154 L 107,154 L 104,151 L 104,150 L 102,148 L 102,147 L 96,141 L 95,141 L 94,140 L 93,140 L 92,139 L 91,139 L 89,137 L 89,136 L 87,134 L 86,134 L 84,132 L 83,132 L 81,130 L 81,129 L 80,128 L 79,128 L 78,127 L 78,126 L 69,117 L 69,116 L 67,114 L 67,105 L 68,104 L 66,104 L 64,102 L 63,102 L 61,100 L 61,99 L 54,92 L 53,92 L 51,90 L 50,90 L 46,86 L 45,86 L 44,85 L 43,85 L 42,84 L 40,84 L 39,83 Z" fill="none" stroke="black" stroke-width="1"/>
</svg>