<svg xmlns="http://www.w3.org/2000/svg" width="195" height="236">
  <path d="M 37,135 L 37,137 L 36,138 L 36,141 L 37,142 L 37,145 L 38,146 L 38,148 L 39,149 L 41,149 L 42,150 L 42,152 L 46,156 L 46,157 L 47,158 L 47,159 L 48,160 L 48,165 L 49,166 L 49,167 L 50,168 L 52,168 L 53,169 L 53,172 L 51,174 L 51,175 L 50,176 L 50,177 L 51,178 L 53,178 L 54,179 L 62,179 L 63,180 L 64,180 L 66,182 L 66,183 L 67,182 L 68,182 L 69,181 L 72,181 L 73,182 L 75,182 L 76,183 L 77,183 L 78,184 L 82,184 L 83,185 L 90,185 L 91,184 L 92,184 L 93,183 L 100,183 L 101,184 L 102,184 L 102,183 L 105,180 L 105,179 L 104,178 L 104,177 L 105,176 L 105,170 L 102,167 L 100,167 L 99,166 L 98,166 L 95,163 L 95,160 L 96,159 L 96,157 L 95,157 L 94,156 L 91,156 L 90,155 L 84,155 L 83,156 L 81,156 L 80,157 L 76,157 L 75,156 L 72,156 L 71,155 L 69,155 L 66,152 L 65,152 L 63,150 L 62,150 L 58,146 L 58,145 L 57,145 L 55,143 L 52,143 L 51,142 L 48,142 L 44,138 L 44,137 L 42,135 Z" fill="none" stroke="black" stroke-width="1"/>
</svg>