<svg xmlns="http://www.w3.org/2000/svg" width="195" height="236">
  <path d="M 103,155 L 102,156 L 101,156 L 100,157 L 100,158 L 99,159 L 97,159 L 96,160 L 96,163 L 98,165 L 99,165 L 100,166 L 102,166 L 106,170 L 106,176 L 105,177 L 105,178 L 106,179 L 106,180 L 103,183 L 103,184 L 104,185 L 104,188 L 103,189 L 103,190 L 104,191 L 105,191 L 111,197 L 111,198 L 112,199 L 117,199 L 118,198 L 119,198 L 120,197 L 122,197 L 123,198 L 124,198 L 126,200 L 126,203 L 127,204 L 127,205 L 130,208 L 130,210 L 131,211 L 131,212 L 136,217 L 137,217 L 138,218 L 138,219 L 139,219 L 141,217 L 143,217 L 144,216 L 145,216 L 148,213 L 149,213 L 150,212 L 150,211 L 159,202 L 160,202 L 160,200 L 158,198 L 158,197 L 156,195 L 156,194 L 155,194 L 153,192 L 152,192 L 151,191 L 150,191 L 148,189 L 146,189 L 145,188 L 143,188 L 140,185 L 140,182 L 139,181 L 139,178 L 138,177 L 138,174 L 136,172 L 136,171 L 130,165 L 129,165 L 127,163 L 126,163 L 125,162 L 124,162 L 123,161 L 122,161 L 121,160 L 120,160 L 119,159 L 116,159 L 114,157 L 112,157 L 110,155 Z" fill="none" stroke="black" stroke-width="1"/>
</svg>