<svg xmlns="http://www.w3.org/2000/svg" width="55" height="80">
  <path d="M 35,0 L 32,3 L 31,3 L 30,4 L 30,6 L 29,7 L 29,9 L 28,10 L 28,11 L 27,12 L 27,13 L 25,15 L 24,15 L 23,16 L 23,22 L 29,28 L 30,28 L 31,29 L 32,29 L 33,30 L 37,30 L 39,32 L 40,32 L 41,33 L 44,33 L 45,32 L 47,32 L 46,31 L 46,30 L 47,29 L 47,27 L 49,25 L 49,24 L 50,23 L 50,21 L 53,18 L 53,17 L 52,16 L 52,13 L 53,12 L 53,9 L 54,8 L 53,7 L 53,6 L 52,5 L 52,3 L 51,4 L 48,4 L 46,2 L 43,2 L 42,1 L 41,1 L 40,0 Z" fill="none" stroke="black" stroke-width="1"/>
</svg>