<svg xmlns="http://www.w3.org/2000/svg" width="123" height="76">
  <path d="M 51,0 L 50,1 L 49,1 L 48,2 L 48,3 L 47,4 L 45,4 L 44,5 L 43,4 L 37,4 L 36,5 L 35,5 L 34,6 L 34,8 L 35,9 L 35,10 L 33,12 L 32,12 L 32,14 L 31,15 L 30,15 L 29,16 L 29,18 L 31,18 L 32,19 L 36,19 L 37,18 L 42,18 L 43,19 L 45,19 L 48,22 L 48,24 L 47,25 L 47,27 L 51,31 L 53,31 L 54,32 L 54,33 L 58,33 L 59,32 L 61,32 L 64,29 L 64,28 L 65,27 L 67,27 L 68,26 L 69,26 L 70,25 L 70,16 L 71,15 L 72,15 L 76,11 L 77,11 L 78,10 L 79,10 L 80,9 L 81,9 L 82,8 L 84,8 L 84,7 L 85,6 L 85,3 L 83,3 L 82,2 L 75,2 L 74,3 L 73,3 L 72,4 L 65,4 L 64,3 L 60,3 L 59,2 L 58,2 L 57,1 L 55,1 L 54,0 Z" fill="none" stroke="black" stroke-width="1"/>
</svg>