<svg xmlns="http://www.w3.org/2000/svg" width="123" height="76">
  <path d="M 108,22 L 107,23 L 105,23 L 101,27 L 101,30 L 99,32 L 99,33 L 98,34 L 97,34 L 96,35 L 95,35 L 94,36 L 93,36 L 94,36 L 95,37 L 93,39 L 93,40 L 92,41 L 92,43 L 93,43 L 94,44 L 94,46 L 96,48 L 96,49 L 97,50 L 97,51 L 100,54 L 102,54 L 103,53 L 103,52 L 105,50 L 111,50 L 112,49 L 116,49 L 120,45 L 122,45 L 122,41 L 120,39 L 120,38 L 119,37 L 119,36 L 118,36 L 112,30 L 112,29 L 111,28 L 111,26 L 108,23 Z" fill="none" stroke="black" stroke-width="1"/>
</svg>