<svg xmlns="http://www.w3.org/2000/svg" width="96" height="67">
  <path d="M 23,10 L 13,20 L 12,20 L 10,18 L 8,18 L 7,17 L 5,17 L 3,19 L 3,23 L 2,24 L 2,26 L 1,27 L 1,28 L 0,29 L 1,30 L 0,31 L 0,33 L 2,35 L 2,36 L 8,42 L 10,42 L 11,41 L 12,42 L 18,42 L 19,41 L 20,41 L 20,40 L 21,39 L 22,39 L 22,38 L 23,37 L 21,35 L 21,34 L 24,31 L 25,31 L 27,29 L 41,29 L 42,28 L 42,26 L 44,24 L 44,21 L 42,19 L 41,19 L 39,21 L 38,21 L 36,23 L 34,23 L 33,22 L 32,22 L 30,20 L 30,17 L 28,15 L 28,14 L 24,10 Z" fill="none" stroke="black" stroke-width="1"/>
</svg>