<svg xmlns="http://www.w3.org/2000/svg" width="96" height="67">
  <path d="M 76,21 L 73,24 L 72,24 L 74,26 L 74,31 L 73,32 L 73,33 L 75,35 L 75,36 L 76,37 L 76,41 L 75,42 L 73,42 L 71,44 L 70,44 L 68,46 L 68,49 L 69,50 L 69,52 L 68,53 L 68,55 L 69,56 L 65,60 L 65,62 L 67,64 L 69,64 L 71,66 L 76,66 L 82,60 L 82,59 L 83,58 L 83,56 L 84,55 L 84,54 L 85,53 L 86,53 L 87,52 L 88,52 L 89,51 L 90,51 L 91,50 L 91,49 L 92,48 L 92,47 L 94,45 L 95,45 L 95,44 L 94,43 L 94,40 L 91,37 L 91,36 L 90,35 L 89,35 L 88,34 L 87,34 L 84,31 L 84,30 L 83,29 L 83,25 L 84,24 L 81,21 L 80,22 L 77,22 Z" fill="none" stroke="black" stroke-width="1"/>
</svg>