<svg xmlns="http://www.w3.org/2000/svg" width="96" height="67">
  <path d="M 42,29 L 41,30 L 27,30 L 25,32 L 24,32 L 22,34 L 22,35 L 24,37 L 23,38 L 23,39 L 22,40 L 21,40 L 21,41 L 20,42 L 19,42 L 18,43 L 17,43 L 17,44 L 19,46 L 19,48 L 22,51 L 22,53 L 21,54 L 21,56 L 22,57 L 22,58 L 24,60 L 24,61 L 25,61 L 32,54 L 35,54 L 36,53 L 36,52 L 37,51 L 39,51 L 40,50 L 43,50 L 44,49 L 49,49 L 50,50 L 51,50 L 52,49 L 53,49 L 54,48 L 54,47 L 55,46 L 55,42 L 53,40 L 52,40 L 51,39 L 50,39 L 48,37 L 48,36 L 47,35 L 47,34 L 46,33 L 46,32 L 45,31 L 45,30 L 44,30 L 43,29 Z" fill="none" stroke="black" stroke-width="1"/>
</svg>