<svg xmlns="http://www.w3.org/2000/svg" width="93" height="99">
  <path d="M 53,54 L 52,55 L 48,55 L 47,56 L 46,56 L 45,57 L 44,57 L 42,59 L 42,65 L 41,66 L 41,67 L 40,68 L 37,68 L 35,70 L 33,70 L 33,73 L 36,76 L 36,77 L 37,77 L 38,78 L 40,78 L 41,79 L 41,80 L 42,81 L 46,81 L 47,82 L 47,84 L 48,85 L 50,85 L 52,87 L 52,88 L 55,88 L 57,90 L 57,92 L 58,93 L 58,94 L 57,95 L 57,97 L 58,97 L 59,98 L 63,98 L 68,93 L 69,93 L 70,94 L 70,95 L 71,95 L 71,92 L 72,91 L 72,89 L 74,87 L 74,84 L 73,83 L 73,81 L 74,80 L 74,72 L 73,71 L 73,65 L 70,68 L 69,68 L 67,66 L 67,64 L 66,63 L 66,62 L 64,62 L 60,58 L 59,58 L 57,56 L 57,55 L 56,55 L 55,54 Z" fill="none" stroke="black" stroke-width="1"/>
</svg>