<svg xmlns="http://www.w3.org/2000/svg" width="160" height="49">
  <path d="M 124,15 L 124,18 L 123,19 L 122,19 L 121,18 L 121,17 L 120,17 L 115,22 L 111,22 L 110,21 L 106,21 L 103,24 L 102,24 L 101,25 L 99,25 L 98,26 L 97,26 L 95,28 L 94,28 L 94,30 L 93,31 L 93,32 L 95,34 L 95,36 L 94,37 L 95,37 L 96,36 L 100,36 L 102,34 L 107,34 L 109,32 L 111,32 L 114,29 L 117,29 L 118,28 L 119,28 L 121,26 L 122,26 L 123,25 L 135,25 L 135,23 L 136,22 L 135,22 L 134,21 L 133,21 L 131,19 L 130,19 L 129,18 L 128,18 L 126,16 L 126,15 Z" fill="none" stroke="black" stroke-width="1"/>
</svg>