<svg xmlns="http://www.w3.org/2000/svg" width="75" height="83">
  <path d="M 21,48 L 15,54 L 13,54 L 10,57 L 10,58 L 9,59 L 8,59 L 8,60 L 7,61 L 7,67 L 8,68 L 8,72 L 10,74 L 11,74 L 12,75 L 13,75 L 15,77 L 17,77 L 18,78 L 19,78 L 20,79 L 20,80 L 22,80 L 23,81 L 24,81 L 25,82 L 36,82 L 37,81 L 38,81 L 39,82 L 41,82 L 40,81 L 40,78 L 41,77 L 41,76 L 40,76 L 39,75 L 39,74 L 32,67 L 32,66 L 31,65 L 31,63 L 32,62 L 29,59 L 29,58 L 28,57 L 29,56 L 29,54 L 30,53 L 28,51 L 28,49 L 27,48 Z" fill="none" stroke="black" stroke-width="1"/>
</svg>