<svg xmlns="http://www.w3.org/2000/svg" width="160" height="49">
  <path d="M 127,0 L 127,3 L 126,4 L 126,6 L 127,7 L 127,10 L 125,12 L 125,14 L 126,14 L 127,15 L 127,16 L 128,17 L 129,17 L 130,18 L 131,18 L 133,20 L 134,20 L 135,21 L 137,21 L 138,20 L 139,20 L 140,19 L 143,19 L 144,18 L 147,18 L 148,17 L 152,17 L 153,16 L 158,16 L 158,11 L 159,10 L 158,10 L 157,9 L 156,9 L 155,10 L 144,10 L 143,9 L 142,9 L 141,8 L 139,8 L 138,7 L 138,6 L 137,6 L 136,5 L 134,5 L 132,3 L 131,3 L 130,2 L 129,2 Z" fill="none" stroke="black" stroke-width="1"/>
</svg>