<svg xmlns="http://www.w3.org/2000/svg" width="73" height="71">
  <path d="M 27,25 L 27,32 L 26,33 L 26,35 L 28,37 L 28,38 L 27,39 L 26,39 L 26,40 L 23,43 L 23,44 L 22,45 L 22,49 L 23,50 L 23,51 L 25,53 L 26,53 L 27,54 L 28,54 L 30,56 L 30,57 L 33,60 L 33,63 L 34,64 L 34,65 L 36,67 L 37,67 L 38,68 L 40,68 L 41,67 L 42,68 L 45,68 L 46,69 L 49,69 L 50,70 L 56,70 L 55,70 L 54,69 L 54,68 L 55,67 L 54,67 L 53,66 L 52,66 L 51,65 L 50,65 L 45,60 L 45,59 L 43,57 L 43,55 L 44,54 L 44,50 L 43,49 L 42,49 L 39,46 L 39,42 L 40,41 L 40,37 L 41,36 L 41,35 L 42,34 L 42,33 L 41,33 L 38,30 L 35,30 L 34,29 L 33,29 L 32,28 L 32,27 L 30,25 Z" fill="none" stroke="black" stroke-width="1"/>
</svg>