<svg xmlns="http://www.w3.org/2000/svg" width="75" height="83">
  <path d="M 34,0 L 33,1 L 33,2 L 32,3 L 32,4 L 30,6 L 29,6 L 28,7 L 27,7 L 26,8 L 25,8 L 25,9 L 24,10 L 24,12 L 23,13 L 23,14 L 22,15 L 22,16 L 23,16 L 24,17 L 24,18 L 26,20 L 27,20 L 28,21 L 29,21 L 30,22 L 32,22 L 33,23 L 35,23 L 36,24 L 37,24 L 41,28 L 41,29 L 44,26 L 45,26 L 46,25 L 47,25 L 49,23 L 50,23 L 51,22 L 52,22 L 53,21 L 61,21 L 62,22 L 63,22 L 64,23 L 65,23 L 68,26 L 70,26 L 71,25 L 71,22 L 73,20 L 73,19 L 74,18 L 74,16 L 71,13 L 69,13 L 67,11 L 66,11 L 65,10 L 65,9 L 64,8 L 63,8 L 61,6 L 60,6 L 59,5 L 52,5 L 51,4 L 48,4 L 47,3 L 44,3 L 43,2 L 42,3 L 40,3 L 39,2 L 38,2 L 36,0 Z" fill="none" stroke="black" stroke-width="1"/>
</svg>