<svg xmlns="http://www.w3.org/2000/svg" width="96" height="65">
  <path d="M 22,9 L 20,11 L 18,11 L 17,12 L 13,12 L 12,13 L 8,13 L 7,12 L 6,12 L 5,13 L 4,13 L 3,14 L 2,14 L 0,16 L 5,21 L 5,22 L 6,23 L 6,28 L 8,30 L 8,32 L 9,33 L 9,34 L 7,36 L 7,37 L 5,39 L 5,41 L 4,42 L 4,43 L 3,44 L 3,47 L 10,47 L 11,46 L 12,46 L 13,45 L 14,45 L 15,44 L 15,42 L 16,41 L 17,41 L 19,39 L 20,39 L 21,38 L 23,38 L 23,37 L 24,36 L 26,36 L 27,35 L 28,35 L 32,31 L 32,27 L 31,26 L 31,25 L 30,25 L 29,24 L 28,24 L 25,21 L 25,17 L 28,14 L 27,14 L 23,10 L 23,9 Z" fill="none" stroke="black" stroke-width="1"/>
</svg>