<svg xmlns="http://www.w3.org/2000/svg" width="96" height="65">
  <path d="M 29,14 L 26,17 L 26,21 L 28,23 L 29,23 L 30,24 L 31,24 L 32,25 L 32,26 L 33,27 L 33,31 L 28,36 L 27,36 L 26,37 L 24,37 L 24,38 L 23,39 L 21,39 L 20,40 L 19,40 L 17,42 L 16,42 L 16,44 L 22,44 L 23,45 L 26,45 L 27,44 L 30,44 L 31,45 L 32,44 L 33,44 L 34,43 L 41,43 L 44,40 L 45,40 L 45,39 L 50,34 L 51,34 L 52,33 L 55,33 L 56,34 L 56,35 L 56,29 L 52,25 L 52,24 L 49,21 L 47,21 L 46,20 L 45,20 L 44,19 L 41,19 L 40,18 L 37,18 L 36,17 L 35,17 L 33,15 L 33,14 Z" fill="none" stroke="black" stroke-width="1"/>
</svg>