<svg xmlns="http://www.w3.org/2000/svg" width="81" height="63">
  <path d="M 30,0 L 29,1 L 29,3 L 28,4 L 28,5 L 25,8 L 18,8 L 17,9 L 14,9 L 12,11 L 11,11 L 10,10 L 9,11 L 8,11 L 7,12 L 6,12 L 4,14 L 3,14 L 2,15 L 1,15 L 1,16 L 0,17 L 0,19 L 1,20 L 1,21 L 8,21 L 9,22 L 10,22 L 13,25 L 13,26 L 15,28 L 15,33 L 18,33 L 23,38 L 25,38 L 26,39 L 26,40 L 27,40 L 29,42 L 30,42 L 32,44 L 34,44 L 34,41 L 35,40 L 36,40 L 36,35 L 35,34 L 35,33 L 34,32 L 34,31 L 33,30 L 33,28 L 35,26 L 36,26 L 37,25 L 38,25 L 38,23 L 37,22 L 38,21 L 39,21 L 40,20 L 42,20 L 42,16 L 40,14 L 40,12 L 39,12 L 38,11 L 38,9 L 39,8 L 40,8 L 40,3 L 39,2 L 35,2 L 34,1 L 31,1 Z" fill="none" stroke="black" stroke-width="1"/>
</svg>