<svg xmlns="http://www.w3.org/2000/svg" width="81" height="63">
  <path d="M 40,21 L 39,22 L 38,22 L 39,23 L 39,25 L 38,26 L 37,26 L 36,27 L 35,27 L 34,28 L 34,30 L 35,31 L 35,32 L 36,33 L 36,34 L 37,35 L 37,40 L 36,41 L 35,41 L 35,44 L 36,45 L 37,45 L 39,47 L 39,48 L 38,49 L 38,50 L 37,51 L 36,51 L 34,53 L 33,53 L 32,54 L 32,60 L 33,61 L 35,61 L 36,62 L 38,62 L 39,61 L 40,61 L 40,60 L 41,59 L 41,58 L 43,56 L 48,56 L 50,54 L 50,52 L 49,51 L 50,50 L 50,48 L 51,47 L 51,45 L 49,43 L 49,42 L 50,41 L 50,39 L 51,38 L 52,38 L 53,37 L 53,36 L 54,35 L 55,35 L 55,34 L 56,33 L 56,32 L 55,31 L 55,30 L 54,29 L 54,28 L 53,27 L 53,26 L 51,26 L 50,25 L 49,25 L 48,24 L 47,24 L 46,23 L 45,23 L 43,21 Z" fill="none" stroke="black" stroke-width="1"/>
</svg>