<svg xmlns="http://www.w3.org/2000/svg" width="78" height="70">
  <path d="M 30,11 L 28,13 L 27,13 L 25,15 L 23,15 L 20,18 L 20,22 L 21,23 L 21,24 L 23,26 L 23,27 L 24,28 L 24,29 L 25,30 L 25,31 L 26,32 L 27,32 L 32,37 L 32,38 L 38,44 L 39,44 L 40,45 L 41,45 L 44,48 L 45,47 L 45,46 L 46,45 L 50,45 L 52,43 L 52,41 L 51,40 L 49,40 L 47,38 L 47,32 L 49,30 L 50,30 L 52,28 L 53,28 L 53,27 L 54,26 L 54,25 L 53,24 L 52,24 L 51,23 L 48,23 L 46,21 L 45,21 L 43,19 L 42,19 L 41,18 L 41,17 L 39,17 L 34,12 L 31,12 Z" fill="none" stroke="black" stroke-width="1"/>
</svg>