<svg xmlns="http://www.w3.org/2000/svg" width="82" height="122">
  <path d="M 13,0 L 12,1 L 11,1 L 10,2 L 9,2 L 8,3 L 4,3 L 3,4 L 1,4 L 1,8 L 2,9 L 2,10 L 1,11 L 1,12 L 0,13 L 0,14 L 1,15 L 1,16 L 4,19 L 4,21 L 5,22 L 5,24 L 6,25 L 6,27 L 7,27 L 6,26 L 6,24 L 5,23 L 6,22 L 7,22 L 8,23 L 8,25 L 10,25 L 11,26 L 9,28 L 12,28 L 12,26 L 11,26 L 8,23 L 9,22 L 10,22 L 12,24 L 13,24 L 14,25 L 15,24 L 16,25 L 22,25 L 22,22 L 21,21 L 21,18 L 20,17 L 20,15 L 19,14 L 19,13 L 17,11 L 17,10 L 16,9 L 16,3 L 17,2 L 17,1 L 16,0 Z" fill="none" stroke="black" stroke-width="1"/>
</svg>