<svg xmlns="http://www.w3.org/2000/svg" width="96" height="65">
  <path d="M 57,32 L 57,35 L 56,36 L 56,42 L 57,43 L 57,49 L 58,50 L 58,53 L 59,54 L 59,55 L 60,56 L 60,63 L 59,64 L 62,64 L 63,63 L 64,63 L 65,62 L 66,62 L 67,61 L 69,61 L 69,58 L 70,57 L 71,57 L 71,56 L 72,55 L 73,55 L 73,49 L 74,48 L 74,47 L 76,45 L 76,44 L 77,43 L 77,42 L 79,40 L 79,39 L 80,38 L 81,38 L 82,37 L 82,33 L 77,33 L 76,34 L 75,34 L 74,35 L 73,35 L 72,34 L 71,34 L 70,33 L 69,33 L 68,32 Z" fill="none" stroke="black" stroke-width="1"/>
</svg>