<svg xmlns="http://www.w3.org/2000/svg" width="96" height="65">
  <path d="M 79,3 L 79,4 L 76,7 L 75,7 L 73,9 L 72,9 L 71,10 L 70,9 L 65,9 L 65,15 L 64,16 L 64,18 L 63,19 L 63,20 L 60,23 L 60,25 L 59,26 L 59,28 L 58,29 L 57,29 L 57,31 L 68,31 L 69,32 L 70,32 L 71,33 L 72,33 L 73,34 L 74,34 L 75,33 L 76,33 L 77,32 L 82,32 L 83,33 L 83,35 L 84,34 L 85,34 L 86,33 L 87,33 L 88,32 L 89,32 L 90,31 L 91,31 L 92,30 L 93,30 L 93,26 L 94,25 L 94,24 L 95,23 L 95,18 L 93,18 L 91,16 L 91,15 L 90,14 L 90,12 L 88,10 L 87,10 L 86,9 L 86,8 L 83,5 L 82,5 L 81,4 L 80,4 Z" fill="none" stroke="black" stroke-width="1"/>
</svg>