<svg xmlns="http://www.w3.org/2000/svg" width="78" height="70">
  <path d="M 59,35 L 58,36 L 58,37 L 57,38 L 57,39 L 56,40 L 55,40 L 54,41 L 53,41 L 53,43 L 50,46 L 46,46 L 46,47 L 44,49 L 44,53 L 45,54 L 45,55 L 46,56 L 46,57 L 50,61 L 50,62 L 51,63 L 51,66 L 54,66 L 57,69 L 57,68 L 58,67 L 63,67 L 64,68 L 65,67 L 66,67 L 68,65 L 69,65 L 71,63 L 71,61 L 69,59 L 69,58 L 70,57 L 70,56 L 69,55 L 70,54 L 72,54 L 73,53 L 74,53 L 75,52 L 75,51 L 76,50 L 76,48 L 77,47 L 77,41 L 75,41 L 74,40 L 70,40 L 69,39 L 69,38 L 67,38 L 66,39 L 65,39 L 64,38 L 64,36 L 63,35 Z" fill="none" stroke="black" stroke-width="1"/>
</svg>