<svg xmlns="http://www.w3.org/2000/svg" width="51" height="64">
  <path d="M 8,1 L 8,2 L 9,3 L 9,4 L 8,5 L 8,6 L 7,7 L 6,7 L 6,8 L 4,10 L 3,10 L 3,12 L 2,13 L 2,14 L 4,16 L 4,18 L 3,19 L 3,21 L 2,22 L 3,23 L 3,25 L 0,28 L 1,29 L 1,31 L 2,31 L 3,30 L 5,30 L 6,31 L 6,32 L 10,32 L 11,33 L 14,33 L 14,32 L 13,31 L 13,29 L 15,27 L 18,27 L 19,26 L 20,26 L 24,22 L 24,21 L 23,20 L 23,18 L 24,17 L 24,16 L 23,15 L 23,14 L 25,12 L 24,11 L 24,8 L 23,7 L 23,6 L 22,5 L 22,3 L 21,3 L 20,2 L 19,2 L 18,1 Z" fill="none" stroke="black" stroke-width="1"/>
</svg>