<svg xmlns="http://www.w3.org/2000/svg" width="113" height="105">
  <path d="M 99,62 L 98,63 L 96,63 L 95,64 L 94,64 L 94,65 L 90,69 L 89,69 L 89,71 L 86,74 L 86,75 L 82,79 L 82,80 L 81,81 L 80,81 L 79,82 L 78,82 L 77,83 L 77,85 L 74,88 L 74,89 L 72,91 L 72,93 L 70,95 L 70,96 L 72,98 L 72,99 L 74,99 L 75,100 L 76,100 L 78,102 L 82,102 L 83,101 L 85,101 L 86,100 L 87,100 L 88,99 L 89,99 L 90,98 L 92,98 L 93,97 L 96,97 L 99,94 L 100,94 L 101,93 L 104,93 L 105,92 L 106,92 L 108,90 L 109,90 L 110,89 L 110,88 L 111,87 L 110,86 L 110,85 L 108,83 L 112,79 L 112,76 L 107,71 L 107,70 L 105,68 L 104,68 L 101,65 L 101,63 L 100,62 Z" fill="none" stroke="black" stroke-width="1"/>
</svg>