<svg xmlns="http://www.w3.org/2000/svg" width="84" height="105">
  <path d="M 57,32 L 55,34 L 52,34 L 52,36 L 51,37 L 49,37 L 48,38 L 48,39 L 45,42 L 43,42 L 40,45 L 37,45 L 39,45 L 41,47 L 41,48 L 42,49 L 42,53 L 44,55 L 44,57 L 45,57 L 46,58 L 48,58 L 51,61 L 53,61 L 54,62 L 54,63 L 60,63 L 61,62 L 65,62 L 66,63 L 66,64 L 67,64 L 68,65 L 72,65 L 73,66 L 73,67 L 74,67 L 74,66 L 75,65 L 75,59 L 76,58 L 76,57 L 77,56 L 77,53 L 78,52 L 78,51 L 75,51 L 71,47 L 72,46 L 72,43 L 70,41 L 69,41 L 68,40 L 68,39 L 64,35 L 62,35 L 61,34 L 60,34 L 59,33 L 58,33 Z" fill="none" stroke="black" stroke-width="1"/>
</svg>