<svg xmlns="http://www.w3.org/2000/svg" width="96" height="96">
  <path d="M 9,0 L 8,1 L 7,1 L 5,3 L 4,3 L 3,4 L 0,4 L 0,6 L 1,6 L 2,7 L 2,10 L 3,11 L 4,11 L 6,13 L 6,14 L 7,15 L 7,17 L 8,18 L 8,19 L 11,22 L 12,21 L 13,22 L 13,23 L 14,22 L 16,24 L 16,25 L 17,25 L 18,26 L 18,30 L 17,31 L 18,32 L 18,33 L 17,34 L 18,34 L 19,35 L 20,34 L 21,35 L 22,34 L 23,35 L 24,34 L 25,35 L 25,36 L 25,35 L 26,34 L 27,34 L 29,36 L 31,36 L 32,37 L 33,36 L 34,36 L 35,37 L 34,38 L 35,39 L 36,38 L 37,38 L 38,37 L 39,37 L 40,36 L 41,36 L 41,34 L 43,32 L 41,32 L 40,31 L 40,24 L 41,23 L 41,21 L 42,20 L 42,19 L 43,18 L 43,16 L 40,16 L 39,15 L 38,15 L 37,14 L 36,14 L 35,13 L 34,13 L 33,12 L 32,12 L 31,11 L 31,10 L 30,9 L 29,9 L 28,8 L 27,8 L 26,7 L 25,7 L 23,5 L 22,5 L 20,3 L 19,3 L 18,2 L 17,2 L 16,1 L 13,1 L 12,0 Z" fill="none" stroke="black" stroke-width="1"/>
</svg>