<svg xmlns="http://www.w3.org/2000/svg" width="96" height="96">
  <path d="M 43,33 L 42,34 L 42,36 L 41,37 L 40,37 L 39,38 L 38,38 L 37,39 L 36,39 L 35,40 L 35,41 L 42,48 L 42,49 L 43,50 L 43,51 L 39,55 L 39,56 L 37,58 L 37,59 L 39,61 L 40,61 L 43,64 L 43,65 L 44,66 L 44,67 L 45,68 L 45,74 L 46,74 L 47,73 L 48,73 L 50,71 L 51,71 L 52,70 L 53,70 L 54,69 L 56,69 L 62,63 L 62,62 L 64,60 L 64,59 L 65,58 L 66,58 L 66,55 L 67,54 L 67,53 L 68,52 L 68,46 L 59,37 L 58,38 L 57,38 L 56,37 L 55,37 L 54,36 L 52,36 L 51,35 L 50,35 L 49,34 L 44,34 Z" fill="none" stroke="black" stroke-width="1"/>
</svg>