<svg xmlns="http://www.w3.org/2000/svg" width="84" height="105">
  <path d="M 52,62 L 52,64 L 50,66 L 50,67 L 51,68 L 51,69 L 53,71 L 53,72 L 55,74 L 55,75 L 54,76 L 53,76 L 54,76 L 56,78 L 57,78 L 58,79 L 58,80 L 57,81 L 57,82 L 55,84 L 55,85 L 59,89 L 59,90 L 60,91 L 60,92 L 62,94 L 62,99 L 61,100 L 61,101 L 59,103 L 59,104 L 62,104 L 64,102 L 65,102 L 66,101 L 68,101 L 69,100 L 71,100 L 72,99 L 73,99 L 74,98 L 79,98 L 79,96 L 80,95 L 83,95 L 83,94 L 82,93 L 82,91 L 83,90 L 83,88 L 80,85 L 80,82 L 79,81 L 78,81 L 75,78 L 75,75 L 74,75 L 72,73 L 72,71 L 73,70 L 73,68 L 72,67 L 72,66 L 68,66 L 67,65 L 66,65 L 65,64 L 65,63 L 61,63 L 60,64 L 54,64 L 53,63 L 53,62 Z" fill="none" stroke="black" stroke-width="1"/>
</svg>