<svg xmlns="http://www.w3.org/2000/svg" width="84" height="77">
  <path d="M 40,5 L 39,6 L 37,6 L 36,7 L 36,8 L 28,16 L 27,16 L 22,21 L 22,22 L 21,23 L 21,27 L 19,29 L 18,29 L 18,30 L 17,31 L 17,35 L 18,36 L 18,37 L 19,38 L 21,38 L 22,39 L 22,43 L 23,43 L 24,42 L 28,42 L 33,37 L 34,37 L 35,38 L 37,38 L 38,37 L 40,37 L 42,35 L 43,35 L 43,34 L 44,33 L 44,30 L 46,28 L 47,28 L 48,27 L 52,27 L 53,26 L 53,25 L 56,22 L 56,19 L 57,18 L 57,17 L 56,17 L 54,15 L 54,12 L 55,11 L 55,10 L 54,10 L 53,9 L 51,9 L 49,7 L 46,7 L 45,6 L 45,5 Z" fill="none" stroke="black" stroke-width="1"/>
</svg>