<svg xmlns="http://www.w3.org/2000/svg" width="84" height="77">
  <path d="M 24,43 L 23,44 L 22,44 L 21,45 L 21,46 L 20,47 L 20,51 L 19,52 L 18,52 L 17,53 L 16,53 L 15,54 L 14,54 L 13,55 L 12,55 L 11,56 L 10,56 L 9,57 L 9,58 L 7,60 L 6,60 L 6,61 L 4,63 L 4,64 L 3,65 L 3,66 L 1,68 L 1,69 L 0,70 L 0,76 L 2,76 L 3,75 L 7,75 L 8,74 L 9,74 L 10,73 L 13,73 L 16,70 L 18,70 L 19,69 L 28,69 L 29,68 L 30,68 L 35,63 L 36,63 L 37,62 L 36,61 L 36,53 L 33,50 L 33,49 L 32,49 L 26,43 Z" fill="none" stroke="black" stroke-width="1"/>
</svg>