<svg xmlns="http://www.w3.org/2000/svg" width="82" height="122">
  <path d="M 18,1 L 18,2 L 17,3 L 17,9 L 18,10 L 18,11 L 20,13 L 20,14 L 21,15 L 21,17 L 22,18 L 22,21 L 23,22 L 23,25 L 27,25 L 27,24 L 28,23 L 26,21 L 27,20 L 28,20 L 30,22 L 31,21 L 32,22 L 32,23 L 31,24 L 31,25 L 33,25 L 32,24 L 32,23 L 33,22 L 35,24 L 35,23 L 36,22 L 36,21 L 37,20 L 37,19 L 41,15 L 42,15 L 43,14 L 44,14 L 45,13 L 48,13 L 49,12 L 48,11 L 48,10 L 47,10 L 45,8 L 43,8 L 42,7 L 39,7 L 38,6 L 37,6 L 36,5 L 33,5 L 32,4 L 31,5 L 28,5 L 27,4 L 26,4 L 25,3 L 24,3 L 23,2 L 21,2 L 20,1 Z" fill="none" stroke="black" stroke-width="1"/>
</svg>