<svg xmlns="http://www.w3.org/2000/svg" width="82" height="122">
  <path d="M 49,13 L 48,14 L 45,14 L 44,15 L 43,15 L 42,16 L 41,16 L 38,19 L 38,20 L 37,21 L 37,22 L 36,23 L 37,24 L 37,28 L 38,29 L 38,30 L 39,31 L 38,32 L 40,32 L 42,34 L 43,34 L 44,35 L 45,35 L 45,32 L 46,31 L 47,32 L 47,33 L 50,36 L 49,37 L 48,37 L 48,39 L 49,40 L 49,41 L 50,41 L 51,42 L 51,43 L 53,45 L 53,47 L 54,48 L 54,49 L 52,51 L 52,57 L 51,58 L 52,59 L 52,60 L 51,61 L 51,68 L 48,71 L 49,72 L 45,76 L 45,78 L 44,79 L 50,79 L 51,80 L 50,81 L 48,81 L 48,83 L 52,83 L 53,84 L 54,84 L 55,85 L 57,85 L 59,87 L 60,87 L 61,88 L 62,88 L 64,90 L 65,90 L 66,91 L 67,91 L 69,93 L 70,93 L 71,92 L 72,92 L 74,90 L 75,90 L 75,89 L 77,87 L 77,86 L 78,85 L 78,75 L 79,74 L 79,73 L 80,72 L 80,62 L 81,61 L 81,54 L 80,53 L 80,52 L 79,51 L 79,50 L 78,49 L 78,41 L 76,39 L 76,38 L 75,37 L 75,36 L 74,35 L 74,34 L 73,33 L 73,32 L 72,31 L 72,30 L 71,29 L 71,28 L 67,24 L 67,23 L 68,22 L 67,21 L 67,20 L 66,19 L 65,19 L 64,18 L 63,18 L 62,17 L 61,17 L 57,13 Z" fill="none" stroke="black" stroke-width="1"/>
</svg>