<svg xmlns="http://www.w3.org/2000/svg" width="82" height="122">
  <path d="M 48,84 L 49,85 L 48,86 L 49,87 L 49,88 L 48,89 L 46,87 L 45,87 L 44,88 L 44,89 L 46,91 L 46,92 L 47,92 L 48,93 L 49,93 L 50,94 L 51,94 L 52,95 L 51,96 L 48,96 L 47,95 L 45,95 L 44,94 L 44,93 L 44,103 L 40,107 L 40,109 L 39,110 L 38,109 L 38,108 L 38,109 L 37,110 L 35,108 L 35,109 L 36,110 L 36,112 L 38,114 L 38,115 L 39,116 L 39,118 L 43,118 L 44,117 L 46,117 L 47,116 L 48,116 L 49,115 L 50,115 L 51,116 L 54,116 L 55,117 L 58,117 L 59,118 L 60,118 L 62,120 L 63,120 L 64,121 L 66,121 L 66,119 L 65,118 L 65,113 L 64,113 L 63,112 L 63,111 L 62,110 L 62,108 L 61,107 L 61,106 L 62,105 L 62,104 L 63,103 L 63,102 L 69,96 L 69,94 L 67,92 L 66,92 L 65,91 L 64,91 L 62,89 L 61,89 L 60,88 L 59,88 L 57,86 L 55,86 L 54,85 L 53,85 L 52,84 Z" fill="none" stroke="black" stroke-width="1"/>
</svg>