<svg xmlns="http://www.w3.org/2000/svg" width="82" height="128">
  <path d="M 43,22 L 43,26 L 42,27 L 42,29 L 39,32 L 39,34 L 37,36 L 37,37 L 35,39 L 35,40 L 34,41 L 34,43 L 33,44 L 31,44 L 32,45 L 33,45 L 34,46 L 34,47 L 38,51 L 39,51 L 40,52 L 40,53 L 41,54 L 41,57 L 43,59 L 43,58 L 44,57 L 51,57 L 52,56 L 57,56 L 58,57 L 60,57 L 61,58 L 64,58 L 64,56 L 66,54 L 66,50 L 65,49 L 65,48 L 64,47 L 64,44 L 63,43 L 63,41 L 62,40 L 62,38 L 60,38 L 59,37 L 58,37 L 56,35 L 56,34 L 53,31 L 53,30 L 52,29 L 52,26 L 50,26 L 46,22 Z" fill="none" stroke="black" stroke-width="1"/>
</svg>