<svg xmlns="http://www.w3.org/2000/svg" width="353" height="246">
  <path d="M 297,0 L 295,2 L 295,3 L 294,4 L 295,5 L 295,6 L 297,8 L 297,12 L 298,13 L 298,15 L 299,16 L 299,17 L 300,18 L 300,19 L 301,20 L 301,21 L 302,22 L 302,24 L 305,27 L 305,28 L 306,29 L 305,30 L 307,32 L 307,39 L 306,40 L 306,43 L 308,43 L 309,42 L 310,42 L 311,41 L 311,39 L 312,38 L 315,38 L 316,39 L 316,40 L 319,40 L 320,41 L 320,42 L 320,40 L 321,39 L 321,37 L 322,36 L 322,35 L 323,34 L 323,33 L 324,32 L 324,29 L 323,29 L 322,28 L 322,26 L 320,24 L 320,21 L 321,20 L 321,19 L 320,18 L 319,18 L 318,17 L 318,16 L 317,15 L 317,12 L 316,12 L 314,10 L 314,5 L 301,5 L 299,3 L 298,3 L 297,2 Z" fill="none" stroke="black" stroke-width="1"/>
</svg>