<svg xmlns="http://www.w3.org/2000/svg" width="63" height="107">
  <path d="M 0,0 L 0,3 L 1,4 L 1,5 L 4,8 L 4,9 L 5,10 L 6,10 L 7,11 L 9,11 L 10,12 L 10,14 L 11,15 L 11,17 L 12,18 L 12,21 L 13,22 L 13,23 L 14,24 L 14,28 L 12,30 L 12,33 L 14,33 L 15,34 L 15,35 L 17,35 L 18,34 L 23,34 L 24,33 L 23,32 L 23,28 L 26,25 L 27,25 L 30,22 L 33,22 L 34,21 L 37,21 L 38,22 L 39,22 L 41,24 L 42,23 L 43,23 L 48,18 L 49,18 L 50,17 L 51,17 L 52,16 L 54,16 L 57,13 L 57,12 L 58,11 L 58,3 L 57,2 L 56,2 L 55,3 L 53,3 L 52,4 L 51,4 L 50,5 L 41,5 L 40,4 L 38,4 L 37,3 L 35,3 L 34,2 L 29,2 L 28,1 L 27,2 L 25,2 L 24,3 L 12,3 L 11,2 L 10,2 L 9,1 L 5,1 L 4,0 Z" fill="none" stroke="black" stroke-width="1"/>
</svg>