<svg xmlns="http://www.w3.org/2000/svg" width="63" height="107">
  <path d="M 35,46 L 34,47 L 29,47 L 26,50 L 20,50 L 20,51 L 19,52 L 19,57 L 20,58 L 20,61 L 21,62 L 21,68 L 20,69 L 20,70 L 19,71 L 19,76 L 20,77 L 21,77 L 22,78 L 22,80 L 24,82 L 24,83 L 25,84 L 25,85 L 26,86 L 26,85 L 27,84 L 33,84 L 34,85 L 35,85 L 36,84 L 37,84 L 38,83 L 39,83 L 40,82 L 40,81 L 41,80 L 41,79 L 44,76 L 44,74 L 43,73 L 43,72 L 42,71 L 42,69 L 39,66 L 39,65 L 38,64 L 38,60 L 36,58 L 37,57 L 37,56 L 38,55 L 38,47 L 37,46 Z" fill="none" stroke="black" stroke-width="1"/>
</svg>