<svg xmlns="http://www.w3.org/2000/svg" width="353" height="246">
  <path d="M 339,5 L 338,6 L 338,7 L 336,9 L 330,9 L 329,10 L 328,10 L 327,9 L 325,9 L 324,8 L 321,8 L 320,7 L 315,7 L 315,10 L 316,11 L 317,11 L 318,12 L 318,15 L 319,16 L 319,17 L 320,17 L 322,19 L 322,20 L 321,21 L 321,24 L 323,26 L 323,28 L 324,28 L 325,29 L 325,30 L 328,33 L 329,33 L 330,34 L 331,34 L 332,35 L 333,35 L 334,36 L 338,36 L 338,33 L 339,32 L 340,32 L 341,31 L 345,31 L 346,30 L 350,30 L 352,28 L 352,25 L 351,24 L 351,22 L 347,18 L 347,17 L 345,15 L 345,12 L 346,11 L 346,10 L 345,9 L 345,8 L 344,8 L 343,7 L 342,7 L 341,6 L 341,5 Z" fill="none" stroke="black" stroke-width="1"/>
</svg>