<svg xmlns="http://www.w3.org/2000/svg" width="353" height="246">
  <path d="M 312,39 L 312,41 L 310,43 L 309,43 L 308,44 L 306,44 L 306,49 L 305,50 L 305,51 L 304,52 L 304,54 L 301,57 L 301,58 L 299,60 L 297,60 L 295,62 L 294,62 L 293,63 L 293,66 L 291,68 L 291,69 L 290,70 L 289,70 L 286,73 L 286,75 L 287,76 L 286,77 L 286,80 L 285,81 L 285,82 L 284,83 L 284,84 L 283,85 L 283,86 L 284,87 L 284,88 L 286,88 L 287,89 L 290,89 L 292,91 L 294,91 L 295,92 L 297,92 L 298,93 L 299,93 L 300,94 L 301,94 L 302,93 L 303,93 L 303,92 L 307,88 L 307,78 L 308,77 L 309,77 L 312,74 L 314,74 L 315,73 L 315,72 L 316,71 L 317,71 L 319,69 L 319,64 L 320,63 L 320,61 L 321,60 L 321,59 L 322,58 L 322,55 L 323,54 L 324,54 L 325,53 L 325,51 L 326,50 L 326,46 L 323,46 L 322,45 L 322,43 L 320,43 L 319,42 L 319,41 L 316,41 L 315,40 L 315,39 Z" fill="none" stroke="black" stroke-width="1"/>
</svg>