<svg xmlns="http://www.w3.org/2000/svg" width="219" height="125">
  <path d="M 12,0 L 11,1 L 8,1 L 7,2 L 7,3 L 6,4 L 5,4 L 4,5 L 4,7 L 3,8 L 3,9 L 2,10 L 1,10 L 0,11 L 0,12 L 3,15 L 4,15 L 5,16 L 5,17 L 6,18 L 6,19 L 8,21 L 8,22 L 9,23 L 9,24 L 10,25 L 10,26 L 11,27 L 11,28 L 12,29 L 12,31 L 13,32 L 13,36 L 14,37 L 14,39 L 15,40 L 15,42 L 16,43 L 16,45 L 18,47 L 18,48 L 19,49 L 19,50 L 20,51 L 20,52 L 21,53 L 21,55 L 23,57 L 23,58 L 24,59 L 24,60 L 26,62 L 26,63 L 29,66 L 29,67 L 31,69 L 31,70 L 32,71 L 32,73 L 33,73 L 34,72 L 35,72 L 36,71 L 37,71 L 38,70 L 41,70 L 42,69 L 43,70 L 44,69 L 44,66 L 43,65 L 43,62 L 42,61 L 42,53 L 44,51 L 44,48 L 43,47 L 43,46 L 41,46 L 40,45 L 39,45 L 38,44 L 37,44 L 36,43 L 35,43 L 34,42 L 34,41 L 33,40 L 33,39 L 32,38 L 32,37 L 31,36 L 30,36 L 27,33 L 27,28 L 29,26 L 29,24 L 30,23 L 30,18 L 29,17 L 28,17 L 26,15 L 24,15 L 23,14 L 20,14 L 19,13 L 19,4 L 18,3 L 18,2 L 16,0 Z" fill="none" stroke="black" stroke-width="1"/>
</svg>