<svg xmlns="http://www.w3.org/2000/svg" width="190" height="110">
  <path d="M 35,56 L 34,57 L 31,57 L 30,58 L 27,58 L 26,59 L 25,59 L 24,60 L 21,60 L 20,61 L 19,61 L 18,62 L 18,63 L 17,64 L 16,64 L 16,65 L 17,66 L 17,69 L 15,71 L 15,79 L 16,80 L 16,83 L 17,84 L 17,88 L 18,89 L 18,90 L 19,90 L 21,92 L 26,92 L 27,93 L 28,93 L 29,94 L 30,94 L 37,101 L 37,102 L 38,103 L 38,104 L 41,104 L 42,103 L 43,103 L 44,102 L 45,103 L 46,102 L 47,102 L 48,103 L 49,102 L 50,102 L 51,101 L 51,100 L 53,98 L 54,98 L 54,97 L 55,96 L 61,96 L 62,95 L 62,90 L 63,89 L 63,88 L 66,85 L 66,77 L 64,75 L 64,73 L 63,72 L 63,71 L 62,71 L 60,69 L 60,67 L 57,67 L 54,64 L 49,64 L 47,62 L 47,61 L 46,61 L 45,60 L 45,58 L 43,58 L 42,57 L 40,57 L 39,56 Z" fill="none" stroke="black" stroke-width="1"/>
</svg>