<svg xmlns="http://www.w3.org/2000/svg" width="219" height="125">
  <path d="M 42,70 L 41,71 L 38,71 L 37,72 L 36,72 L 35,73 L 34,73 L 33,74 L 32,74 L 32,76 L 33,77 L 33,84 L 32,85 L 32,87 L 31,88 L 30,88 L 29,89 L 28,89 L 27,88 L 26,89 L 26,92 L 27,92 L 29,94 L 29,95 L 30,96 L 29,97 L 33,101 L 33,102 L 35,104 L 35,108 L 33,110 L 33,113 L 34,114 L 34,115 L 34,112 L 35,111 L 40,111 L 41,112 L 41,115 L 40,116 L 44,116 L 45,117 L 47,117 L 49,119 L 49,120 L 52,123 L 57,123 L 58,124 L 59,124 L 59,123 L 60,122 L 61,122 L 62,121 L 63,121 L 66,118 L 71,118 L 71,117 L 72,116 L 76,116 L 77,117 L 80,117 L 80,115 L 77,112 L 77,111 L 75,109 L 75,107 L 76,106 L 76,102 L 79,99 L 81,99 L 82,98 L 83,98 L 84,97 L 87,97 L 88,96 L 89,96 L 89,95 L 90,94 L 90,92 L 87,89 L 84,89 L 83,88 L 82,88 L 81,87 L 81,86 L 79,86 L 78,85 L 77,85 L 76,86 L 75,85 L 74,85 L 73,86 L 72,85 L 71,86 L 70,86 L 69,87 L 66,87 L 65,86 L 65,85 L 64,84 L 64,83 L 58,77 L 57,77 L 56,76 L 55,76 L 54,75 L 49,75 L 47,73 L 46,73 L 45,72 L 45,71 L 44,70 L 43,71 Z" fill="none" stroke="black" stroke-width="1"/>
</svg>