<svg xmlns="http://www.w3.org/2000/svg" width="190" height="110">
  <path d="M 74,55 L 73,56 L 69,56 L 68,57 L 64,57 L 63,56 L 62,56 L 62,57 L 61,58 L 62,59 L 61,60 L 61,61 L 60,62 L 62,64 L 62,66 L 61,67 L 61,69 L 62,70 L 63,70 L 64,71 L 64,72 L 65,73 L 65,75 L 67,77 L 67,85 L 64,88 L 64,89 L 63,90 L 63,95 L 61,97 L 55,97 L 55,98 L 54,99 L 53,99 L 52,100 L 52,101 L 51,102 L 51,103 L 53,103 L 54,104 L 54,105 L 55,105 L 56,106 L 59,106 L 62,109 L 66,105 L 67,105 L 70,102 L 72,102 L 73,103 L 74,103 L 75,104 L 76,104 L 77,103 L 78,103 L 79,102 L 80,102 L 81,101 L 84,101 L 84,99 L 85,98 L 86,98 L 89,95 L 90,95 L 91,94 L 91,93 L 93,91 L 94,91 L 95,90 L 95,89 L 97,87 L 97,86 L 99,84 L 99,83 L 101,81 L 102,81 L 103,80 L 104,80 L 105,81 L 109,81 L 110,80 L 111,80 L 111,77 L 112,76 L 113,76 L 113,75 L 117,71 L 116,71 L 114,69 L 112,69 L 111,68 L 111,67 L 108,64 L 108,61 L 106,59 L 103,59 L 102,58 L 95,58 L 94,57 L 91,57 L 90,56 L 83,56 L 82,55 Z" fill="none" stroke="black" stroke-width="1"/>
</svg>