<svg xmlns="http://www.w3.org/2000/svg" width="219" height="125">
  <path d="M 109,84 L 108,85 L 107,85 L 106,86 L 105,86 L 104,87 L 103,87 L 102,86 L 101,86 L 100,85 L 98,85 L 95,88 L 94,88 L 91,91 L 91,94 L 90,95 L 90,96 L 89,97 L 88,97 L 87,98 L 84,98 L 83,99 L 82,99 L 81,100 L 79,100 L 77,102 L 77,106 L 76,107 L 76,109 L 78,111 L 78,112 L 81,115 L 81,116 L 83,116 L 84,117 L 85,117 L 86,116 L 88,116 L 88,115 L 90,113 L 91,113 L 93,111 L 96,111 L 97,110 L 102,110 L 103,111 L 111,111 L 113,109 L 118,109 L 119,110 L 122,110 L 123,111 L 126,111 L 127,112 L 128,112 L 129,113 L 134,113 L 135,112 L 135,110 L 136,109 L 136,107 L 135,106 L 135,105 L 134,105 L 132,103 L 132,102 L 131,102 L 129,100 L 129,98 L 130,97 L 130,96 L 131,95 L 130,94 L 130,91 L 129,91 L 128,90 L 126,90 L 124,88 L 124,87 L 122,87 L 120,85 L 115,85 L 114,84 Z" fill="none" stroke="black" stroke-width="1"/>
</svg>