<svg xmlns="http://www.w3.org/2000/svg" width="219" height="125">
  <path d="M 188,40 L 186,42 L 185,42 L 184,43 L 181,43 L 180,44 L 179,44 L 178,45 L 177,45 L 176,46 L 175,46 L 174,47 L 174,49 L 173,50 L 173,51 L 170,54 L 169,54 L 168,55 L 161,55 L 161,56 L 160,57 L 159,57 L 160,58 L 160,62 L 159,63 L 159,64 L 156,67 L 156,69 L 154,71 L 154,73 L 155,74 L 155,79 L 154,80 L 154,83 L 155,84 L 169,84 L 170,85 L 171,85 L 172,86 L 173,86 L 174,87 L 175,87 L 176,88 L 176,90 L 178,92 L 178,93 L 179,94 L 180,94 L 181,93 L 182,93 L 182,92 L 183,91 L 184,91 L 188,87 L 189,87 L 201,75 L 201,74 L 208,67 L 209,67 L 209,66 L 211,64 L 212,64 L 213,63 L 214,63 L 214,62 L 218,58 L 217,58 L 216,57 L 216,56 L 215,56 L 212,53 L 209,53 L 207,51 L 205,51 L 204,50 L 202,50 L 200,48 L 200,47 L 198,45 L 198,42 L 194,42 L 193,41 L 192,41 L 191,40 Z" fill="none" stroke="black" stroke-width="1"/>
</svg>