<svg xmlns="http://www.w3.org/2000/svg" width="99" height="161">
  <path d="M 24,119 L 23,120 L 13,120 L 12,121 L 11,121 L 7,125 L 7,126 L 6,127 L 6,131 L 5,132 L 5,133 L 3,135 L 3,136 L 2,137 L 2,142 L 0,144 L 0,148 L 2,150 L 2,151 L 3,152 L 5,152 L 6,153 L 8,153 L 10,155 L 13,155 L 16,158 L 17,158 L 18,159 L 18,160 L 20,160 L 20,159 L 22,157 L 22,156 L 23,155 L 23,154 L 24,153 L 24,152 L 26,150 L 26,149 L 27,148 L 27,147 L 28,146 L 28,144 L 29,143 L 30,143 L 30,142 L 31,141 L 32,141 L 31,140 L 32,139 L 32,138 L 33,137 L 33,135 L 35,133 L 35,132 L 37,130 L 38,130 L 39,129 L 39,128 L 36,128 L 28,120 L 27,120 L 26,119 Z" fill="none" stroke="black" stroke-width="1"/>
</svg>