<svg xmlns="http://www.w3.org/2000/svg" width="99" height="161">
  <path d="M 69,30 L 65,34 L 65,35 L 64,36 L 64,37 L 63,38 L 63,39 L 60,42 L 59,42 L 58,43 L 57,43 L 48,52 L 47,52 L 46,53 L 45,53 L 43,55 L 42,55 L 42,57 L 40,59 L 40,61 L 37,64 L 37,65 L 36,66 L 36,69 L 38,71 L 44,71 L 45,72 L 45,73 L 46,73 L 47,74 L 51,74 L 54,77 L 54,78 L 58,82 L 61,82 L 61,76 L 61,78 L 60,79 L 56,75 L 56,73 L 57,72 L 57,71 L 58,70 L 58,68 L 62,64 L 63,64 L 65,62 L 66,62 L 67,61 L 68,61 L 70,59 L 72,59 L 73,58 L 74,58 L 75,57 L 77,57 L 78,56 L 81,56 L 82,55 L 83,55 L 84,54 L 86,54 L 87,53 L 88,53 L 89,52 L 91,52 L 92,51 L 93,51 L 94,50 L 95,50 L 96,49 L 96,48 L 98,46 L 97,45 L 96,45 L 95,44 L 92,44 L 91,43 L 90,43 L 89,42 L 88,42 L 81,35 L 80,35 L 78,33 L 77,33 L 76,32 L 75,32 L 74,31 L 72,31 L 71,30 Z" fill="none" stroke="black" stroke-width="1"/>
</svg>