<svg xmlns="http://www.w3.org/2000/svg" width="70" height="131">
  <path d="M 33,84 L 33,87 Z" fill="none" stroke="black" stroke-width="1"/>
  <path d="M 16,66 L 14,68 L 14,69 L 13,70 L 12,70 L 10,72 L 9,72 L 9,73 L 10,74 L 10,76 L 11,77 L 11,82 L 10,83 L 9,83 L 6,86 L 2,86 L 0,88 L 0,90 L 1,91 L 1,92 L 2,93 L 2,95 L 3,96 L 3,109 L 2,110 L 2,112 L 1,113 L 1,114 L 3,114 L 4,115 L 6,115 L 7,116 L 8,116 L 9,117 L 10,117 L 12,119 L 13,119 L 20,126 L 21,126 L 22,127 L 23,127 L 24,128 L 27,128 L 28,129 L 29,129 L 30,130 L 31,130 L 32,129 L 32,128 L 33,127 L 33,124 L 34,123 L 34,122 L 33,122 L 32,123 L 31,122 L 31,120 L 32,119 L 32,114 L 33,113 L 33,110 L 34,109 L 34,106 L 33,105 L 33,100 L 34,99 L 34,94 L 32,94 L 31,93 L 31,91 L 30,90 L 30,88 L 29,87 L 29,86 L 30,85 L 28,83 L 28,82 L 27,81 L 27,78 L 26,77 L 26,76 L 27,75 L 27,73 L 26,72 L 26,71 L 24,69 L 23,69 L 21,67 L 21,66 Z" fill="none" stroke="black" stroke-width="1"/>
</svg>