<svg xmlns="http://www.w3.org/2000/svg" width="83" height="88">
  <path d="M 18,46 L 18,49 L 17,50 L 17,51 L 16,52 L 12,52 L 11,53 L 8,53 L 4,49 L 1,49 L 1,51 L 0,52 L 0,58 L 1,59 L 1,60 L 2,61 L 2,64 L 3,65 L 3,67 L 4,68 L 4,70 L 6,72 L 7,72 L 9,74 L 10,74 L 11,75 L 11,76 L 13,78 L 13,79 L 14,80 L 14,81 L 16,83 L 17,83 L 18,84 L 18,85 L 22,85 L 23,86 L 24,86 L 25,87 L 27,87 L 28,86 L 30,86 L 31,85 L 34,85 L 35,84 L 36,84 L 37,83 L 43,83 L 44,82 L 44,81 L 45,80 L 45,79 L 46,78 L 46,72 L 45,71 L 45,70 L 44,69 L 44,64 L 45,63 L 45,61 L 46,60 L 46,55 L 48,53 L 47,53 L 46,52 L 40,52 L 39,53 L 34,53 L 33,54 L 25,54 L 21,50 L 21,49 L 20,48 L 20,47 L 19,46 Z" fill="none" stroke="black" stroke-width="1"/>
</svg>