<svg xmlns="http://www.w3.org/2000/svg" width="88" height="70">
  <path d="M 37,31 L 36,32 L 34,32 L 33,33 L 31,33 L 27,37 L 26,37 L 26,39 L 25,40 L 24,40 L 21,43 L 21,44 L 24,47 L 24,48 L 25,49 L 25,50 L 29,54 L 29,56 L 31,58 L 31,59 L 32,59 L 33,60 L 33,61 L 35,63 L 35,64 L 36,65 L 37,65 L 41,69 L 44,69 L 45,68 L 49,68 L 49,67 L 50,66 L 50,63 L 51,62 L 52,62 L 51,61 L 51,59 L 50,58 L 50,53 L 51,52 L 51,51 L 52,50 L 53,50 L 54,49 L 56,49 L 57,48 L 58,48 L 59,47 L 60,47 L 61,46 L 62,46 L 64,44 L 65,44 L 67,42 L 67,40 L 66,39 L 66,37 L 65,36 L 65,35 L 64,35 L 62,33 L 62,32 L 59,32 L 58,33 L 56,33 L 55,34 L 51,34 L 50,33 L 48,33 L 47,32 L 42,32 L 41,31 Z" fill="none" stroke="black" stroke-width="1"/>
</svg>