<svg xmlns="http://www.w3.org/2000/svg" width="70" height="131">
  <path d="M 28,27 L 27,28 L 26,28 L 23,31 L 19,31 L 17,33 L 17,35 L 16,36 L 16,38 L 13,41 L 11,41 L 10,42 L 10,45 L 9,46 L 9,48 L 8,49 L 8,55 L 6,57 L 6,58 L 5,59 L 5,60 L 4,61 L 4,62 L 3,63 L 3,65 L 4,66 L 4,67 L 6,69 L 6,70 L 7,71 L 10,71 L 12,69 L 13,69 L 13,68 L 16,65 L 20,65 L 21,64 L 21,62 L 22,61 L 22,56 L 21,55 L 21,54 L 19,52 L 20,51 L 21,51 L 24,54 L 24,55 L 25,54 L 26,54 L 29,51 L 30,51 L 31,50 L 31,49 L 35,45 L 35,44 L 37,42 L 38,42 L 40,40 L 38,38 L 38,37 L 37,36 L 37,34 L 34,31 L 34,30 L 32,28 L 32,27 Z" fill="none" stroke="black" stroke-width="1"/>
</svg>