<svg xmlns="http://www.w3.org/2000/svg" width="115" height="62">
  <path d="M 90,23 L 90,24 L 89,25 L 89,28 L 88,29 L 88,32 L 89,33 L 84,38 L 80,38 L 79,39 L 79,47 L 80,48 L 80,50 L 82,50 L 87,55 L 87,58 L 90,61 L 91,61 L 92,60 L 96,60 L 99,57 L 100,57 L 101,56 L 105,56 L 105,50 L 106,49 L 108,49 L 109,48 L 111,48 L 112,47 L 114,47 L 114,45 L 112,45 L 111,44 L 111,42 L 110,41 L 110,40 L 109,40 L 107,38 L 107,37 L 105,35 L 104,35 L 103,34 L 99,34 L 98,33 L 98,32 L 97,31 L 97,30 L 95,28 L 95,26 L 94,25 L 93,25 L 91,23 Z" fill="none" stroke="black" stroke-width="1"/>
</svg>