<svg xmlns="http://www.w3.org/2000/svg" width="88" height="70">
  <path d="M 22,0 L 22,1 L 20,3 L 20,6 L 18,8 L 18,9 L 16,11 L 14,11 L 13,12 L 13,13 L 12,14 L 11,14 L 10,15 L 9,15 L 9,17 L 8,18 L 8,19 L 5,22 L 5,23 L 4,24 L 4,25 L 2,27 L 2,28 L 0,30 L 0,36 L 3,39 L 5,39 L 9,43 L 9,45 L 10,46 L 10,47 L 11,47 L 12,48 L 16,48 L 20,44 L 20,43 L 24,39 L 25,39 L 25,37 L 26,36 L 27,36 L 31,32 L 33,32 L 34,31 L 36,31 L 37,30 L 39,30 L 39,29 L 40,28 L 40,25 L 39,24 L 39,23 L 38,22 L 37,22 L 36,21 L 36,20 L 33,17 L 31,17 L 30,16 L 30,9 L 29,8 L 28,8 L 26,6 L 26,3 L 25,2 L 25,1 L 24,0 Z" fill="none" stroke="black" stroke-width="1"/>
</svg>