<svg xmlns="http://www.w3.org/2000/svg" width="115" height="62">
  <path d="M 32,0 L 31,1 L 30,1 L 29,2 L 28,2 L 27,3 L 23,3 L 22,2 L 18,2 L 17,3 L 16,3 L 15,4 L 13,4 L 12,5 L 11,5 L 10,6 L 8,6 L 6,8 L 6,10 L 4,12 L 4,13 L 2,15 L 2,16 L 1,17 L 1,18 L 0,19 L 1,20 L 1,21 L 2,22 L 2,25 L 3,26 L 4,26 L 6,28 L 6,35 L 13,35 L 14,36 L 22,36 L 22,35 L 23,34 L 23,31 L 24,30 L 26,30 L 27,31 L 33,31 L 34,30 L 36,30 L 36,29 L 38,27 L 39,27 L 40,26 L 42,26 L 46,22 L 47,22 L 48,21 L 48,20 L 50,18 L 50,14 L 49,13 L 49,12 L 48,11 L 48,9 L 46,7 L 46,6 L 45,6 L 44,5 L 44,2 L 43,1 L 43,0 Z" fill="none" stroke="black" stroke-width="1"/>
</svg>