<svg xmlns="http://www.w3.org/2000/svg" width="115" height="62">
  <path d="M 60,6 L 59,7 L 58,7 L 57,8 L 55,8 L 54,9 L 49,9 L 49,11 L 50,12 L 50,13 L 51,14 L 51,18 L 49,20 L 53,24 L 53,25 L 56,28 L 57,28 L 58,29 L 59,29 L 63,33 L 63,35 L 65,37 L 65,38 L 66,39 L 66,40 L 67,41 L 70,41 L 73,38 L 79,38 L 80,37 L 84,37 L 88,33 L 87,32 L 87,29 L 88,28 L 88,25 L 89,24 L 89,23 L 88,22 L 88,21 L 87,20 L 86,20 L 85,19 L 84,19 L 80,15 L 78,15 L 77,14 L 76,14 L 75,13 L 74,13 L 73,12 L 72,12 L 71,11 L 70,11 L 69,10 L 66,10 L 63,7 L 62,7 L 61,6 Z" fill="none" stroke="black" stroke-width="1"/>
</svg>