<svg xmlns="http://www.w3.org/2000/svg" width="70" height="131">
  <path d="M 63,0 L 62,1 L 61,1 L 60,2 L 60,3 L 59,4 L 59,6 L 58,7 L 50,7 L 44,13 L 44,14 L 42,16 L 42,17 L 41,18 L 39,18 L 38,19 L 36,19 L 35,20 L 33,20 L 33,28 L 35,30 L 35,31 L 38,34 L 38,36 L 39,37 L 39,38 L 40,39 L 42,39 L 43,38 L 44,39 L 45,39 L 47,37 L 47,36 L 54,29 L 54,28 L 56,26 L 56,25 L 54,23 L 55,22 L 56,22 L 57,23 L 58,23 L 58,22 L 59,21 L 60,21 L 63,18 L 64,18 L 65,17 L 66,17 L 68,15 L 69,15 L 68,15 L 67,14 L 67,13 L 65,11 L 65,3 L 66,2 L 66,0 Z" fill="none" stroke="black" stroke-width="1"/>
</svg>