<svg xmlns="http://www.w3.org/2000/svg" width="83" height="168">
  <path d="M 19,105 L 17,107 L 17,108 L 16,109 L 16,110 L 15,111 L 15,112 L 14,113 L 14,114 L 13,115 L 13,116 L 10,119 L 10,122 L 9,123 L 9,125 L 8,126 L 5,126 L 3,128 L 3,130 L 6,130 L 7,131 L 7,132 L 9,134 L 9,139 L 10,140 L 13,140 L 14,139 L 20,139 L 21,140 L 21,139 L 24,136 L 25,136 L 27,134 L 27,126 L 28,125 L 28,124 L 30,122 L 30,121 L 31,120 L 31,118 L 32,117 L 32,110 L 30,110 L 26,106 L 23,106 L 22,105 Z" fill="none" stroke="black" stroke-width="1"/>
</svg>