<svg xmlns="http://www.w3.org/2000/svg" width="83" height="168">
  <path d="M 44,35 L 44,36 L 43,37 L 42,37 L 41,36 L 38,36 L 37,37 L 37,39 L 36,40 L 35,39 L 33,39 L 33,40 L 32,41 L 31,40 L 31,38 L 30,39 L 29,39 L 29,40 L 27,42 L 26,42 L 25,43 L 23,43 L 22,42 L 19,42 L 18,43 L 18,45 L 19,46 L 19,50 L 17,52 L 17,53 L 16,54 L 16,55 L 15,56 L 15,57 L 13,59 L 13,60 L 12,61 L 12,62 L 11,63 L 11,66 L 12,67 L 12,72 L 13,72 L 14,73 L 17,73 L 17,72 L 18,71 L 26,71 L 27,72 L 28,72 L 29,73 L 31,73 L 32,74 L 33,74 L 35,72 L 35,71 L 36,70 L 36,68 L 37,67 L 37,66 L 38,65 L 39,65 L 40,64 L 41,64 L 42,63 L 44,63 L 45,64 L 46,63 L 47,63 L 47,62 L 48,61 L 48,60 L 49,59 L 51,59 L 51,58 L 52,57 L 53,57 L 55,55 L 55,54 L 53,52 L 53,50 L 52,49 L 52,48 L 51,48 L 50,47 L 50,46 L 49,45 L 49,43 L 48,42 L 48,40 L 47,40 L 46,39 L 46,35 Z" fill="none" stroke="black" stroke-width="1"/>
</svg>