<svg xmlns="http://www.w3.org/2000/svg" width="122" height="103">
  <path d="M 30,33 L 29,34 L 29,40 L 30,41 L 30,42 L 31,43 L 31,45 L 32,46 L 32,47 L 33,48 L 33,49 L 34,50 L 34,62 L 35,63 L 36,63 L 38,65 L 38,67 L 39,68 L 39,70 L 42,70 L 45,73 L 46,72 L 46,71 L 48,69 L 48,67 L 47,67 L 46,66 L 47,65 L 48,65 L 49,64 L 49,62 L 50,61 L 50,54 L 48,56 L 47,55 L 47,54 L 49,52 L 49,51 L 48,51 L 47,52 L 46,51 L 46,50 L 47,49 L 47,46 L 46,45 L 46,40 L 45,39 L 46,38 L 36,38 L 35,37 L 34,37 L 32,35 L 32,34 L 31,33 Z" fill="none" stroke="black" stroke-width="1"/>
</svg>