<svg xmlns="http://www.w3.org/2000/svg" width="54" height="108">
  <path d="M 34,46 L 34,50 L 33,51 L 32,50 L 25,50 L 24,49 L 24,48 L 21,48 L 20,47 L 11,47 L 11,49 L 10,50 L 9,50 L 10,51 L 10,54 L 14,54 L 15,55 L 18,55 L 22,59 L 22,62 L 23,63 L 23,70 L 22,71 L 22,74 L 21,75 L 21,79 L 22,79 L 23,80 L 23,83 L 23,82 L 25,80 L 26,80 L 29,77 L 30,77 L 32,75 L 36,75 L 36,74 L 37,73 L 39,73 L 39,69 L 38,68 L 38,67 L 35,64 L 36,63 L 34,61 L 34,57 L 33,56 L 33,55 L 34,54 L 34,53 L 35,52 L 35,50 L 36,49 L 36,47 L 35,46 Z" fill="none" stroke="black" stroke-width="1"/>
</svg>