<svg xmlns="http://www.w3.org/2000/svg" width="54" height="108">
  <path d="M 30,26 L 30,27 L 26,31 L 25,31 L 24,32 L 24,33 L 23,34 L 22,34 L 20,36 L 15,36 L 14,37 L 13,37 L 11,39 L 11,40 L 10,41 L 10,42 L 9,43 L 8,43 L 7,44 L 3,44 L 2,45 L 0,45 L 0,48 L 5,48 L 6,49 L 7,49 L 8,50 L 9,49 L 10,49 L 10,47 L 11,46 L 20,46 L 21,47 L 24,47 L 25,48 L 25,49 L 32,49 L 33,50 L 33,41 L 34,40 L 34,39 L 35,38 L 35,37 L 37,35 L 37,33 L 35,31 L 34,31 L 32,29 L 32,28 Z" fill="none" stroke="black" stroke-width="1"/>
</svg>