<svg xmlns="http://www.w3.org/2000/svg" width="54" height="108">
  <path d="M 37,74 L 37,75 L 36,76 L 32,76 L 30,78 L 29,78 L 26,81 L 25,81 L 24,82 L 24,83 L 23,84 L 23,85 L 22,86 L 21,85 L 20,86 L 19,86 L 18,87 L 17,87 L 15,89 L 14,89 L 14,90 L 16,92 L 16,97 L 17,98 L 18,98 L 19,99 L 19,102 L 18,103 L 19,103 L 20,104 L 21,104 L 22,103 L 23,103 L 24,102 L 25,102 L 27,100 L 34,100 L 35,99 L 36,100 L 36,101 L 35,102 L 35,107 L 37,105 L 38,105 L 39,104 L 40,104 L 41,103 L 44,103 L 45,102 L 47,102 L 50,99 L 51,99 L 52,98 L 52,97 L 53,96 L 53,90 L 52,90 L 50,88 L 50,87 L 49,86 L 48,87 L 45,84 L 44,84 L 43,83 L 43,82 L 42,82 L 41,81 L 41,78 L 40,77 L 40,75 L 39,74 Z" fill="none" stroke="black" stroke-width="1"/>
</svg>