<svg xmlns="http://www.w3.org/2000/svg" width="54" height="108">
  <path d="M 9,9 L 9,10 L 8,11 L 6,11 L 6,12 L 5,13 L 5,14 L 6,15 L 6,16 L 8,18 L 8,19 L 9,20 L 9,21 L 10,22 L 7,25 L 7,26 L 6,27 L 6,28 L 5,29 L 5,35 L 6,36 L 6,37 L 7,38 L 7,39 L 9,41 L 9,42 L 9,41 L 10,40 L 10,39 L 13,36 L 14,36 L 15,35 L 20,35 L 22,33 L 23,33 L 23,32 L 25,30 L 26,30 L 29,27 L 29,26 L 26,23 L 26,19 L 25,18 L 25,17 L 26,16 L 26,14 L 24,12 L 23,12 L 22,13 L 20,13 L 19,12 L 19,11 L 18,11 L 17,12 L 15,12 L 13,10 L 11,10 L 10,9 Z" fill="none" stroke="black" stroke-width="1"/>
</svg>