<svg xmlns="http://www.w3.org/2000/svg" width="45" height="70">
  <path d="M 1,36 L 1,37 L 2,38 L 1,39 L 1,45 L 2,45 L 3,46 L 3,50 L 6,50 L 7,51 L 7,53 L 6,54 L 6,56 L 5,57 L 5,58 L 3,60 L 2,60 L 2,62 L 1,63 L 0,63 L 0,65 L 1,66 L 3,66 L 3,65 L 4,64 L 5,64 L 6,65 L 8,65 L 10,67 L 12,67 L 13,66 L 14,66 L 15,67 L 15,68 L 17,68 L 18,67 L 19,67 L 21,69 L 22,69 L 22,68 L 23,67 L 23,66 L 24,65 L 24,63 L 25,62 L 25,59 L 26,58 L 26,57 L 27,56 L 27,52 L 26,52 L 24,50 L 23,50 L 20,47 L 19,47 L 16,44 L 15,44 L 12,41 L 11,41 L 10,40 L 9,40 L 8,39 L 8,38 L 7,38 L 5,36 Z" fill="none" stroke="black" stroke-width="1"/>
</svg>