<svg xmlns="http://www.w3.org/2000/svg" width="50" height="40">
  <path d="M 8,17 L 10,17 Z" fill="none" stroke="black" stroke-width="1"/>
  <path d="M 27,9 L 27,10 L 26,11 L 26,12 L 27,13 L 27,14 L 28,14 L 29,13 L 30,13 L 31,14 L 32,13 L 32,11 L 31,11 L 30,10 L 29,10 L 28,9 Z" fill="none" stroke="black" stroke-width="1"/>
  <path d="M 20,0 L 20,1 L 19,2 L 15,2 L 15,3 L 14,4 L 11,4 L 11,6 L 12,7 L 11,8 L 10,8 L 9,7 L 8,8 L 11,8 L 12,9 L 11,10 L 11,11 L 12,12 L 11,13 L 7,13 L 6,12 L 6,11 L 6,12 L 5,13 L 5,15 L 5,14 L 6,13 L 9,13 L 14,18 L 14,19 L 17,22 L 16,23 L 16,24 L 17,23 L 23,23 L 24,24 L 24,25 L 26,25 L 26,24 L 29,21 L 30,21 L 31,20 L 32,20 L 32,17 L 31,16 L 29,16 L 28,17 L 26,17 L 23,14 L 24,13 L 24,10 L 23,9 L 23,8 L 25,6 L 27,6 L 27,5 L 25,3 L 25,2 L 23,2 L 21,0 Z" fill="none" stroke="black" stroke-width="1"/>
</svg>