<svg xmlns="http://www.w3.org/2000/svg" width="54" height="108">
  <path d="M 43,45 L 39,49 L 39,50 L 40,50 L 43,47 Z" fill="none" stroke="black" stroke-width="1"/>
  <path d="M 34,14 L 33,15 L 33,16 L 32,17 L 33,18 L 33,22 L 34,21 L 35,21 L 36,22 L 36,23 L 37,24 L 37,25 L 38,24 L 38,23 L 37,22 L 37,20 L 36,21 L 35,20 L 35,18 L 34,17 Z" fill="none" stroke="black" stroke-width="1"/>
  <path d="M 41,0 L 40,1 L 40,3 L 41,4 L 41,6 L 40,7 L 40,8 L 41,8 L 41,7 L 42,6 L 42,4 L 41,3 L 42,2 L 42,0 Z" fill="none" stroke="black" stroke-width="1"/>
</svg>