<svg xmlns="http://www.w3.org/2000/svg" width="45" height="70">
  <path d="M 7,26 L 7,27 L 6,28 L 5,28 L 5,31 L 3,33 L 3,34 L 2,35 L 5,35 L 7,37 L 8,37 L 9,38 L 9,39 L 10,39 L 11,40 L 12,40 L 15,43 L 16,43 L 19,46 L 20,46 L 23,49 L 24,49 L 26,51 L 30,51 L 31,50 L 31,49 L 32,48 L 32,47 L 33,46 L 33,45 L 34,44 L 34,43 L 35,42 L 35,41 L 36,40 L 36,39 L 34,37 L 34,34 L 33,34 L 31,32 L 31,30 L 30,30 L 29,29 L 24,29 L 23,28 L 23,27 L 22,27 L 21,26 L 17,26 L 16,27 L 15,26 Z" fill="none" stroke="black" stroke-width="1"/>
</svg>