<svg xmlns="http://www.w3.org/2000/svg" width="45" height="70">
  <path d="M 39,0 L 39,1 L 38,2 L 38,4 L 37,5 L 36,5 L 34,7 L 33,7 L 30,10 L 26,10 L 25,9 L 24,9 L 23,8 L 21,8 L 21,13 L 20,14 L 18,14 L 17,13 L 13,13 L 13,18 L 14,18 L 15,19 L 15,22 L 16,22 L 17,23 L 17,25 L 21,25 L 22,26 L 23,26 L 24,27 L 24,28 L 29,28 L 30,29 L 31,29 L 32,30 L 32,32 L 33,33 L 34,33 L 35,34 L 35,37 L 36,38 L 37,38 L 37,36 L 38,35 L 38,33 L 39,32 L 39,31 L 40,30 L 41,30 L 41,29 L 42,28 L 42,22 L 43,21 L 43,20 L 44,19 L 43,19 L 42,18 L 42,13 L 41,12 L 41,5 L 40,4 L 40,3 L 39,2 Z" fill="none" stroke="black" stroke-width="1"/>
</svg>