<svg xmlns="http://www.w3.org/2000/svg" width="77" height="108">
  <path d="M 35,29 L 35,33 L 36,34 L 36,38 L 35,39 L 35,44 L 38,47 L 39,47 L 41,49 L 42,49 L 45,52 L 46,52 L 47,53 L 51,53 L 52,54 L 52,55 L 53,55 L 54,56 L 55,56 L 56,57 L 58,57 L 58,56 L 59,55 L 59,53 L 60,52 L 60,51 L 61,50 L 61,49 L 63,47 L 64,47 L 64,45 L 65,44 L 65,43 L 67,41 L 67,37 L 66,36 L 66,35 L 65,35 L 64,34 L 59,34 L 58,33 L 57,33 L 55,31 L 54,31 L 53,30 L 45,30 L 44,31 L 40,31 L 39,30 L 38,30 L 37,29 Z" fill="none" stroke="black" stroke-width="1"/>
</svg>