<svg xmlns="http://www.w3.org/2000/svg" width="135" height="85">
  <path d="M 82,22 L 81,23 L 80,23 L 79,24 L 77,24 L 76,25 L 74,25 L 72,27 L 71,27 L 69,29 L 66,29 L 65,30 L 62,30 L 61,29 L 60,29 L 59,28 L 57,28 L 56,27 L 54,27 L 53,28 L 53,32 L 46,39 L 45,39 L 44,40 L 43,40 L 39,44 L 36,44 L 36,46 L 37,46 L 38,47 L 38,50 L 39,51 L 40,51 L 41,52 L 41,53 L 44,56 L 45,56 L 46,57 L 47,57 L 48,58 L 50,58 L 51,59 L 55,59 L 56,60 L 57,60 L 60,63 L 60,65 L 62,67 L 62,68 L 64,70 L 64,72 L 65,72 L 66,71 L 68,71 L 69,70 L 71,70 L 72,69 L 74,69 L 75,70 L 79,70 L 80,69 L 80,68 L 81,67 L 87,67 L 88,68 L 89,68 L 89,67 L 92,64 L 92,61 L 93,60 L 93,55 L 96,52 L 97,52 L 98,51 L 101,51 L 102,50 L 102,49 L 101,49 L 99,47 L 98,47 L 97,46 L 97,44 L 95,42 L 95,39 L 92,36 L 92,35 L 91,34 L 91,33 L 88,30 L 88,29 L 87,28 L 87,26 L 86,26 L 85,25 L 85,24 L 84,23 L 84,22 Z" fill="none" stroke="black" stroke-width="1"/>
</svg>