<svg xmlns="http://www.w3.org/2000/svg" width="135" height="85">
  <path d="M 62,0 L 62,3 L 60,5 L 59,5 L 58,6 L 56,6 L 54,4 L 53,4 L 53,6 L 51,8 L 51,9 L 50,10 L 50,20 L 52,22 L 52,23 L 54,25 L 54,26 L 56,26 L 57,27 L 59,27 L 60,28 L 61,28 L 62,29 L 65,29 L 66,28 L 69,28 L 71,26 L 72,26 L 74,24 L 76,24 L 77,23 L 79,23 L 80,22 L 81,22 L 82,21 L 87,21 L 89,23 L 93,23 L 94,22 L 95,22 L 96,21 L 96,20 L 100,16 L 100,15 L 101,14 L 101,9 L 100,8 L 100,6 L 99,5 L 99,3 L 98,2 L 96,2 L 95,1 L 87,1 L 86,2 L 85,2 L 84,1 L 81,1 L 80,2 L 79,2 L 78,3 L 77,3 L 76,4 L 70,4 L 66,0 Z" fill="none" stroke="black" stroke-width="1"/>
</svg>