<svg xmlns="http://www.w3.org/2000/svg" width="135" height="85">
  <path d="M 40,14 L 39,15 L 38,15 L 37,16 L 35,16 L 35,18 L 33,20 L 31,20 L 30,21 L 30,22 L 29,23 L 27,23 L 24,26 L 22,26 L 21,25 L 20,25 L 19,26 L 17,26 L 16,25 L 15,25 L 13,27 L 13,29 L 11,31 L 8,31 L 7,32 L 5,32 L 4,33 L 1,33 L 0,34 L 1,35 L 1,36 L 6,36 L 8,38 L 8,40 L 9,40 L 10,41 L 11,41 L 12,42 L 13,42 L 14,43 L 14,45 L 15,46 L 15,47 L 17,47 L 18,48 L 18,49 L 19,49 L 20,50 L 29,50 L 29,49 L 31,47 L 33,47 L 35,45 L 35,44 L 36,43 L 39,43 L 43,39 L 44,39 L 45,38 L 46,38 L 52,32 L 52,28 L 53,27 L 53,25 L 51,23 L 51,22 L 49,20 L 48,21 L 46,21 L 43,18 L 43,15 L 42,14 Z" fill="none" stroke="black" stroke-width="1"/>
</svg>