<svg xmlns="http://www.w3.org/2000/svg" width="73" height="47">
  <path d="M 54,26 L 54,27 L 52,29 L 51,29 L 50,30 L 49,30 L 48,31 L 47,31 L 46,32 L 45,32 L 45,33 L 49,33 L 50,32 L 51,32 L 53,34 L 53,35 L 54,36 L 56,36 L 57,37 L 58,37 L 59,36 L 60,36 L 61,37 L 63,37 L 64,38 L 64,39 L 65,40 L 65,43 L 67,45 L 69,45 L 70,46 L 71,45 L 71,42 L 72,41 L 72,39 L 71,38 L 71,37 L 68,34 L 67,34 L 65,32 L 65,31 L 64,30 L 63,30 L 62,29 L 61,29 L 60,28 L 58,28 L 57,27 L 56,27 L 55,26 Z" fill="none" stroke="black" stroke-width="1"/>
</svg>