<svg xmlns="http://www.w3.org/2000/svg" width="78" height="57">
  <path d="M 8,22 L 8,25 L 7,26 L 6,26 L 6,28 L 5,29 L 3,29 L 3,32 L 2,33 L 2,34 L 1,35 L 0,35 L 0,38 L 1,39 L 1,42 L 3,42 L 4,41 L 5,41 L 6,40 L 7,40 L 8,41 L 8,42 L 9,43 L 9,44 L 11,44 L 12,45 L 12,46 L 13,46 L 15,44 L 16,45 L 16,49 L 18,51 L 18,52 L 21,52 L 22,51 L 25,51 L 26,50 L 27,50 L 28,49 L 30,49 L 32,51 L 32,54 L 34,56 L 36,56 L 37,55 L 37,46 L 38,45 L 38,44 L 40,42 L 40,40 L 38,40 L 37,39 L 35,39 L 33,37 L 33,35 L 32,34 L 32,33 L 31,32 L 28,32 L 27,31 L 27,30 L 26,29 L 25,29 L 24,28 L 23,28 L 22,27 L 20,27 L 19,26 L 19,25 L 18,24 L 15,24 L 14,23 L 12,23 L 11,22 Z" fill="none" stroke="black" stroke-width="1"/>
</svg>