<svg xmlns="http://www.w3.org/2000/svg" width="78" height="57">
  <path d="M 41,0 L 39,2 L 38,2 L 37,1 L 36,1 L 36,2 L 35,3 L 35,6 L 33,8 L 34,8 L 35,9 L 36,9 L 40,13 L 40,14 L 39,15 L 40,16 L 40,17 L 42,19 L 42,22 L 43,22 L 45,24 L 45,26 L 46,27 L 47,27 L 48,28 L 48,30 L 51,33 L 51,34 L 52,35 L 54,35 L 55,34 L 55,33 L 56,32 L 56,31 L 58,29 L 58,28 L 59,27 L 59,25 L 63,21 L 63,18 L 58,13 L 57,13 L 56,12 L 56,11 L 52,7 L 52,6 L 51,5 L 51,4 L 50,3 L 49,3 L 46,0 Z" fill="none" stroke="black" stroke-width="1"/>
</svg>