<svg xmlns="http://www.w3.org/2000/svg" width="72" height="61">
  <path d="M 22,8 L 22,15 L 21,16 L 16,16 L 16,17 L 15,18 L 13,18 L 12,19 L 11,19 L 11,20 L 10,21 L 10,23 L 11,24 L 11,27 L 10,28 L 9,28 L 8,29 L 7,29 L 6,30 L 4,30 L 2,28 L 2,27 L 0,29 L 0,30 L 1,31 L 2,31 L 4,33 L 4,34 L 8,38 L 8,39 L 9,39 L 10,38 L 12,38 L 13,39 L 14,39 L 16,41 L 17,41 L 18,40 L 23,40 L 24,41 L 24,42 L 25,41 L 25,40 L 26,39 L 27,39 L 28,40 L 28,41 L 31,41 L 32,42 L 33,42 L 34,43 L 37,43 L 40,40 L 40,36 L 39,35 L 39,33 L 38,32 L 38,31 L 36,29 L 36,28 L 38,26 L 39,26 L 40,25 L 40,24 L 39,24 L 37,22 L 37,21 L 38,20 L 38,17 L 36,19 L 34,17 L 34,16 L 33,17 L 31,15 L 31,14 L 29,12 L 29,8 Z" fill="none" stroke="black" stroke-width="1"/>
</svg>