<svg xmlns="http://www.w3.org/2000/svg" width="60" height="93">
  <path d="M 55,51 L 54,52 L 53,52 L 52,53 L 51,53 L 50,54 L 51,55 L 50,56 L 49,56 L 48,57 L 46,55 L 45,55 L 44,54 L 43,54 L 43,56 L 41,58 L 41,59 L 39,61 L 39,62 L 38,63 L 38,66 L 36,68 L 36,71 L 37,72 L 37,75 L 36,76 L 37,76 L 38,77 L 41,77 L 43,75 L 43,72 L 44,71 L 44,68 L 45,67 L 46,68 L 47,68 L 48,67 L 49,67 L 50,66 L 51,66 L 52,65 L 54,65 L 57,62 L 59,62 L 59,57 L 58,56 L 58,55 L 57,54 L 57,53 Z" fill="none" stroke="black" stroke-width="1"/>
</svg>