<svg xmlns="http://www.w3.org/2000/svg" width="69" height="90">
  <path d="M 40,44 L 40,46 L 39,47 L 39,48 L 38,49 L 38,50 L 37,51 L 21,51 L 21,52 L 19,54 L 19,56 L 18,57 L 18,60 L 17,61 L 17,64 L 16,65 L 16,67 L 14,69 L 13,69 L 11,71 L 11,72 L 10,73 L 5,73 L 2,76 L 1,76 L 0,77 L 0,85 L 1,86 L 2,86 L 3,87 L 5,87 L 6,88 L 7,88 L 8,89 L 38,89 L 39,88 L 40,88 L 41,87 L 43,87 L 44,86 L 46,86 L 47,85 L 49,85 L 50,84 L 57,84 L 57,79 L 58,78 L 60,78 L 60,76 L 61,75 L 64,75 L 65,74 L 66,74 L 66,66 L 67,65 L 67,64 L 68,63 L 67,62 L 67,53 L 68,52 L 68,51 L 66,51 L 65,52 L 63,52 L 62,53 L 55,53 L 54,52 L 53,52 L 48,47 L 48,44 Z" fill="none" stroke="black" stroke-width="1"/>
</svg>