<svg xmlns="http://www.w3.org/2000/svg" width="72" height="53">
  <path d="M 42,22 L 42,25 L 41,26 L 41,27 L 40,28 L 40,30 L 42,32 L 41,33 L 39,33 L 38,34 L 37,33 L 35,33 L 34,34 L 34,37 L 33,38 L 33,40 L 32,41 L 29,41 L 29,43 L 28,44 L 28,47 L 26,49 L 28,49 L 29,50 L 38,50 L 39,49 L 44,49 L 45,50 L 50,50 L 53,47 L 56,47 L 56,46 L 58,44 L 58,43 L 59,42 L 60,42 L 62,40 L 63,40 L 64,39 L 65,39 L 65,38 L 66,37 L 71,37 L 71,36 L 69,36 L 68,35 L 68,34 L 67,33 L 67,31 L 66,31 L 65,30 L 64,30 L 63,29 L 62,29 L 61,28 L 61,26 L 60,25 L 55,25 L 54,24 L 54,23 L 53,22 L 50,22 L 49,23 L 46,23 L 45,22 Z" fill="none" stroke="black" stroke-width="1"/>
</svg>