<svg xmlns="http://www.w3.org/2000/svg" width="193" height="96">
  <path d="M 108,16 L 108,17 L 107,18 L 107,22 L 106,23 L 106,25 L 107,26 L 107,27 L 108,28 L 108,39 L 107,40 L 106,40 L 105,41 L 104,41 L 103,42 L 103,43 L 100,46 L 100,47 L 99,48 L 99,51 L 98,52 L 98,54 L 97,55 L 97,56 L 96,57 L 96,58 L 95,59 L 95,60 L 93,62 L 93,63 L 92,64 L 92,69 L 93,69 L 95,71 L 99,71 L 100,70 L 105,70 L 106,71 L 107,71 L 108,72 L 110,72 L 111,73 L 111,80 L 112,81 L 112,82 L 113,83 L 113,84 L 115,86 L 115,87 L 118,90 L 118,91 L 123,91 L 124,92 L 125,92 L 126,93 L 131,93 L 132,94 L 134,94 L 135,95 L 142,95 L 143,94 L 151,94 L 152,93 L 154,93 L 154,87 L 155,86 L 155,77 L 154,77 L 152,75 L 152,74 L 150,72 L 150,71 L 149,71 L 148,70 L 148,69 L 147,68 L 147,59 L 146,58 L 146,54 L 145,54 L 143,52 L 143,50 L 142,49 L 142,48 L 141,47 L 141,43 L 142,42 L 142,41 L 143,40 L 143,39 L 141,37 L 140,37 L 138,35 L 137,35 L 136,34 L 136,33 L 134,31 L 134,30 L 133,29 L 133,26 L 132,25 L 132,24 L 131,23 L 131,22 L 130,21 L 130,20 L 129,19 L 129,18 L 128,17 L 125,17 L 124,18 L 122,18 L 120,20 L 117,20 L 115,18 L 114,18 L 113,17 L 111,17 L 110,16 Z" fill="none" stroke="black" stroke-width="1"/>
</svg>