<svg xmlns="http://www.w3.org/2000/svg" width="110" height="100">
  <path d="M 57,22 L 56,23 L 54,23 L 52,25 L 51,25 L 51,26 L 50,27 L 48,27 L 48,28 L 47,29 L 46,29 L 46,31 L 45,32 L 42,32 L 41,33 L 39,33 L 39,34 L 38,35 L 38,37 L 37,38 L 35,38 L 35,39 L 33,41 L 33,42 L 28,47 L 22,47 L 21,46 L 18,46 L 17,47 L 11,47 L 10,48 L 7,48 L 7,49 L 8,49 L 12,53 L 12,58 L 11,59 L 11,69 L 12,70 L 12,75 L 13,76 L 13,78 L 12,79 L 12,80 L 11,81 L 10,81 L 6,85 L 5,85 L 4,86 L 4,87 L 7,90 L 7,91 L 28,91 L 29,92 L 30,92 L 31,93 L 33,93 L 38,98 L 38,99 L 39,99 L 39,98 L 41,96 L 41,95 L 42,94 L 43,94 L 43,93 L 44,92 L 44,80 L 45,79 L 45,77 L 47,75 L 47,74 L 49,72 L 49,71 L 50,70 L 54,70 L 55,69 L 56,69 L 57,68 L 59,68 L 60,67 L 62,67 L 62,66 L 63,65 L 63,64 L 64,63 L 64,58 L 65,57 L 65,56 L 67,54 L 67,50 L 68,49 L 68,47 L 67,46 L 67,42 L 66,41 L 65,41 L 64,40 L 64,38 L 63,37 L 63,35 L 61,33 L 61,26 L 60,25 L 59,25 L 58,24 L 58,22 Z" fill="none" stroke="black" stroke-width="1"/>
</svg>