<svg xmlns="http://www.w3.org/2000/svg" width="69" height="90">
  <path d="M 18,0 L 17,1 L 16,1 L 15,2 L 14,2 L 12,4 L 11,4 L 10,5 L 9,5 L 8,6 L 8,8 L 9,9 L 9,10 L 11,12 L 11,18 L 12,19 L 12,21 L 13,22 L 13,26 L 14,27 L 14,31 L 16,33 L 16,36 L 17,37 L 17,38 L 18,39 L 18,48 L 19,48 L 21,50 L 37,50 L 37,49 L 38,48 L 38,47 L 39,46 L 39,44 L 40,43 L 49,43 L 49,42 L 50,41 L 50,32 L 49,31 L 49,26 L 47,24 L 44,24 L 43,23 L 43,21 L 42,20 L 42,19 L 41,18 L 41,17 L 40,16 L 40,7 L 27,7 L 26,6 L 26,5 L 23,2 L 23,1 L 22,1 L 21,0 Z" fill="none" stroke="black" stroke-width="1"/>
</svg>