<svg xmlns="http://www.w3.org/2000/svg" width="89" height="80">
  <path d="M 27,40 L 27,41 L 24,44 L 21,44 L 20,45 L 16,45 L 14,47 L 13,47 L 12,48 L 11,48 L 8,51 L 7,51 L 6,50 L 5,50 L 4,49 L 3,49 L 3,50 L 1,52 L 1,53 L 0,54 L 0,59 L 1,60 L 1,61 L 2,61 L 3,62 L 3,65 L 4,66 L 4,67 L 5,67 L 6,68 L 6,71 L 7,72 L 7,77 L 9,79 L 12,79 L 13,78 L 16,78 L 17,77 L 22,77 L 23,76 L 26,76 L 27,75 L 30,75 L 31,74 L 33,74 L 34,73 L 34,71 L 35,70 L 35,66 L 36,65 L 36,64 L 37,63 L 37,51 L 36,50 L 36,48 L 35,47 L 35,45 L 33,45 L 32,44 L 31,44 L 30,43 L 30,42 L 29,41 L 29,40 Z" fill="none" stroke="black" stroke-width="1"/>
</svg>