<svg xmlns="http://www.w3.org/2000/svg" width="89" height="80">
  <path d="M 48,30 L 47,31 L 45,31 L 44,32 L 43,32 L 42,33 L 40,33 L 39,34 L 38,34 L 37,35 L 34,35 L 34,38 L 33,39 L 32,39 L 31,40 L 30,40 L 30,41 L 31,42 L 31,43 L 32,43 L 33,44 L 35,44 L 36,45 L 36,47 L 37,48 L 37,50 L 38,51 L 38,63 L 37,64 L 37,65 L 36,66 L 36,69 L 37,69 L 38,70 L 40,70 L 41,69 L 42,69 L 42,68 L 45,65 L 47,65 L 48,64 L 52,64 L 53,63 L 56,63 L 58,61 L 59,61 L 59,60 L 58,59 L 58,55 L 57,54 L 57,52 L 60,49 L 60,47 L 57,44 L 57,43 L 56,42 L 56,40 L 55,39 L 55,38 L 54,37 L 54,33 L 53,32 L 53,31 L 52,30 Z" fill="none" stroke="black" stroke-width="1"/>
</svg>