<svg xmlns="http://www.w3.org/2000/svg" width="89" height="80">
  <path d="M 52,0 L 49,3 L 49,4 L 48,5 L 48,13 L 47,14 L 47,15 L 46,16 L 45,16 L 45,17 L 46,18 L 46,19 L 47,20 L 47,21 L 48,22 L 48,23 L 51,26 L 51,27 L 53,29 L 53,30 L 54,31 L 54,32 L 55,33 L 55,37 L 56,38 L 56,39 L 57,40 L 57,42 L 58,43 L 58,44 L 61,47 L 61,49 L 58,52 L 58,54 L 59,55 L 59,59 L 60,60 L 71,60 L 72,61 L 76,61 L 76,60 L 77,59 L 77,58 L 78,57 L 78,56 L 77,55 L 77,53 L 79,51 L 79,50 L 78,49 L 77,49 L 76,48 L 76,34 L 77,33 L 77,29 L 78,28 L 78,26 L 79,25 L 79,23 L 80,22 L 80,20 L 81,19 L 82,19 L 83,20 L 85,20 L 86,19 L 86,18 L 87,17 L 87,16 L 88,15 L 88,10 L 86,8 L 86,7 L 79,0 L 72,0 L 71,1 L 70,1 L 67,4 L 64,4 L 63,3 L 62,3 L 61,2 L 59,2 L 58,1 L 55,1 L 54,0 Z" fill="none" stroke="black" stroke-width="1"/>
</svg>