<svg xmlns="http://www.w3.org/2000/svg" width="70" height="51">
  <path d="M 20,12 L 18,14 L 16,14 L 15,13 L 12,13 L 11,14 L 11,16 L 12,17 L 12,18 L 11,19 L 11,21 L 13,21 L 14,22 L 15,22 L 16,23 L 16,26 L 17,26 L 18,27 L 18,30 L 22,30 L 24,32 L 30,32 L 31,33 L 32,33 L 33,34 L 33,35 L 34,35 L 35,36 L 35,39 L 37,39 L 38,40 L 40,40 L 40,37 L 41,36 L 41,33 L 40,32 L 40,31 L 39,30 L 39,29 L 38,28 L 38,26 L 39,25 L 39,22 L 38,21 L 38,20 L 36,20 L 36,21 L 35,22 L 31,22 L 30,21 L 30,20 L 29,20 L 27,18 L 27,17 L 24,17 L 22,15 L 22,14 L 21,13 L 21,12 Z" fill="none" stroke="black" stroke-width="1"/>
</svg>