<svg xmlns="http://www.w3.org/2000/svg" width="110" height="100">
  <path d="M 5,0 L 5,2 L 4,3 L 4,5 L 3,6 L 3,8 L 2,9 L 2,13 L 1,14 L 1,19 L 0,20 L 0,37 L 1,38 L 1,45 L 2,46 L 2,47 L 3,48 L 6,48 L 7,47 L 10,47 L 11,46 L 17,46 L 18,45 L 21,45 L 22,46 L 28,46 L 32,42 L 32,41 L 34,39 L 34,38 L 35,37 L 37,37 L 37,35 L 38,34 L 38,33 L 39,32 L 41,32 L 42,31 L 45,31 L 45,29 L 46,28 L 47,28 L 47,27 L 48,26 L 50,26 L 50,25 L 51,24 L 52,24 L 54,22 L 56,22 L 56,21 L 55,20 L 55,19 L 54,18 L 54,16 L 53,15 L 53,14 L 50,14 L 49,13 L 48,13 L 47,14 L 44,14 L 43,13 L 43,10 L 42,9 L 42,8 L 32,8 L 31,7 L 29,7 L 28,6 L 25,6 L 24,5 L 22,5 L 21,4 L 19,4 L 18,3 L 16,3 L 15,2 L 13,2 L 12,1 L 8,1 L 7,0 Z" fill="none" stroke="black" stroke-width="1"/>
</svg>