<svg xmlns="http://www.w3.org/2000/svg" width="110" height="100">
  <path d="M 99,7 L 97,9 L 85,9 L 84,8 L 72,8 L 71,9 L 70,9 L 69,10 L 64,10 L 63,11 L 60,11 L 59,12 L 57,12 L 56,13 L 55,13 L 54,14 L 54,15 L 55,16 L 55,18 L 56,19 L 56,20 L 57,21 L 58,21 L 59,22 L 59,24 L 60,24 L 62,26 L 62,33 L 64,35 L 64,37 L 65,38 L 65,40 L 66,40 L 68,42 L 68,46 L 69,47 L 69,49 L 68,50 L 68,51 L 70,51 L 71,52 L 71,53 L 72,54 L 72,55 L 73,56 L 74,56 L 75,57 L 77,57 L 78,58 L 79,58 L 81,60 L 82,60 L 83,61 L 85,61 L 85,60 L 86,59 L 86,51 L 87,50 L 87,49 L 91,45 L 93,45 L 94,46 L 97,46 L 98,47 L 100,47 L 101,48 L 102,48 L 103,49 L 106,49 L 109,46 L 109,45 L 108,44 L 108,41 L 107,40 L 107,37 L 106,36 L 106,33 L 105,32 L 105,27 L 104,26 L 104,17 L 103,16 L 103,12 L 102,11 L 102,9 L 100,7 Z" fill="none" stroke="black" stroke-width="1"/>
</svg>