<svg xmlns="http://www.w3.org/2000/svg" width="78" height="156">
  <path d="M 58,99 L 56,101 L 56,103 L 53,106 L 53,109 L 54,110 L 54,112 L 55,111 L 56,111 L 58,113 L 58,115 L 59,116 L 59,118 L 60,119 L 60,128 L 59,129 L 59,131 L 61,131 L 62,132 L 63,132 L 64,133 L 64,135 L 65,136 L 65,140 L 66,141 L 66,144 L 67,145 L 67,146 L 68,147 L 68,148 L 69,149 L 69,150 L 70,151 L 70,155 L 71,155 L 72,154 L 75,154 L 76,153 L 76,151 L 77,150 L 77,147 L 75,145 L 75,144 L 74,143 L 74,139 L 72,139 L 71,138 L 71,135 L 69,133 L 69,132 L 68,131 L 68,129 L 67,128 L 67,120 L 66,119 L 66,117 L 65,116 L 65,114 L 64,113 L 64,110 L 63,109 L 63,107 L 62,106 L 62,105 L 61,104 L 61,103 L 59,101 L 59,100 Z" fill="none" stroke="black" stroke-width="1"/>
</svg>