<svg xmlns="http://www.w3.org/2000/svg" width="78" height="156">
  <path d="M 17,43 L 17,47 L 18,48 L 18,50 L 19,51 L 19,57 L 22,60 L 22,62 L 23,63 L 23,67 L 24,68 L 24,77 L 25,78 L 25,83 L 26,84 L 26,87 L 27,88 L 27,91 L 28,92 L 28,95 L 29,96 L 29,97 L 30,96 L 37,96 L 45,104 L 45,105 L 47,107 L 49,105 L 50,105 L 51,106 L 52,106 L 55,103 L 55,101 L 58,98 L 58,97 L 57,97 L 56,96 L 55,96 L 54,95 L 52,95 L 50,93 L 50,92 L 49,91 L 49,90 L 48,90 L 45,87 L 42,87 L 40,85 L 40,84 L 39,83 L 39,81 L 38,80 L 38,75 L 37,74 L 37,67 L 36,66 L 36,58 L 37,57 L 37,56 L 36,55 L 36,51 L 35,50 L 35,48 L 34,47 L 33,47 L 32,46 L 26,46 L 25,45 L 23,45 L 22,44 L 20,44 L 19,43 Z" fill="none" stroke="black" stroke-width="1"/>
</svg>