<svg xmlns="http://www.w3.org/2000/svg" width="75" height="104">
  <path d="M 50,41 L 50,43 L 48,45 L 46,45 L 46,46 L 45,47 L 44,47 L 44,48 L 43,49 L 41,49 L 40,50 L 40,52 L 39,53 L 39,54 L 40,54 L 42,56 L 42,61 L 43,62 L 43,65 L 42,66 L 42,67 L 41,68 L 41,72 L 42,73 L 42,76 L 43,77 L 43,80 L 45,82 L 45,85 L 44,86 L 44,88 L 43,89 L 42,89 L 41,90 L 42,91 L 42,94 L 43,95 L 44,95 L 46,97 L 46,99 L 47,99 L 48,100 L 49,99 L 51,101 L 52,101 L 53,100 L 55,102 L 55,103 L 59,103 L 61,101 L 62,101 L 66,97 L 70,97 L 71,96 L 71,93 L 72,92 L 73,92 L 73,88 L 74,87 L 74,83 L 73,82 L 73,79 L 72,78 L 72,76 L 73,75 L 73,74 L 72,73 L 72,69 L 71,68 L 71,67 L 70,66 L 70,65 L 69,64 L 69,63 L 66,60 L 66,59 L 64,57 L 64,56 L 63,56 L 62,55 L 62,54 L 59,51 L 59,50 L 58,50 L 56,48 L 56,47 L 55,46 L 55,45 L 54,45 L 53,44 L 53,43 L 52,43 Z" fill="none" stroke="black" stroke-width="1"/>
</svg>