<svg xmlns="http://www.w3.org/2000/svg" width="94" height="57">
  <path d="M 35,0 L 35,2 L 31,6 L 30,6 L 29,5 L 28,5 L 28,7 L 27,8 L 26,8 L 24,10 L 24,13 L 23,14 L 23,15 L 25,15 L 26,16 L 28,16 L 29,17 L 32,17 L 33,18 L 35,18 L 36,19 L 38,19 L 39,20 L 41,20 L 42,21 L 44,21 L 45,22 L 46,22 L 47,23 L 48,23 L 50,25 L 51,25 L 55,21 L 55,19 L 58,16 L 58,14 L 59,13 L 58,12 L 58,11 L 57,10 L 57,8 L 56,7 L 56,5 L 55,4 L 54,4 L 53,3 L 53,2 L 52,2 L 51,1 L 51,0 L 48,3 L 41,3 L 40,2 L 38,2 L 36,0 Z" fill="none" stroke="black" stroke-width="1"/>
</svg>