<svg xmlns="http://www.w3.org/2000/svg" width="372" height="356">
  <path d="M 161,194 L 161,196 L 160,197 L 159,197 L 156,200 L 156,202 L 157,203 L 160,203 L 160,201 L 159,200 L 161,198 L 162,198 L 163,197 L 163,194 Z" fill="none" stroke="black" stroke-width="1"/>
  <path d="M 169,184 L 169,186 L 167,188 L 167,190 L 168,190 L 170,188 L 170,184 Z" fill="none" stroke="black" stroke-width="1"/>
  <path d="M 174,168 L 174,170 L 175,171 L 174,172 L 172,172 L 172,173 L 177,173 L 177,170 L 175,168 Z" fill="none" stroke="black" stroke-width="1"/>
  <path d="M 175,118 L 175,123 L 177,123 L 177,122 L 176,121 L 177,120 L 179,120 L 179,118 Z" fill="none" stroke="black" stroke-width="1"/>
  <path d="M 167,87 L 167,91 L 168,92 L 169,92 L 169,87 Z" fill="none" stroke="black" stroke-width="1"/>
  <path d="M 110,23 L 110,27 L 111,27 L 111,26 L 112,25 L 112,23 Z" fill="none" stroke="black" stroke-width="1"/>
  <path d="M 108,14 L 106,16 L 105,16 L 105,17 L 108,17 L 109,16 L 110,16 L 110,14 Z" fill="none" stroke="black" stroke-width="1"/>
  <path d="M 106,0 L 105,1 L 105,3 L 106,3 L 107,4 L 107,6 L 109,6 L 110,5 L 110,3 L 109,3 L 107,1 L 107,0 Z" fill="none" stroke="black" stroke-width="1"/>
</svg>