<svg xmlns="http://www.w3.org/2000/svg" width="337" height="334">
  <path d="M 60,44 L 60,45 L 59,46 L 58,46 L 57,47 L 56,47 L 54,45 L 50,45 L 50,46 L 51,47 L 51,48 L 52,49 L 52,53 L 53,54 L 53,55 L 51,57 L 47,57 L 46,58 L 45,58 L 43,60 L 43,62 L 42,63 L 42,64 L 40,66 L 38,66 L 37,67 L 36,67 L 34,65 L 33,65 L 31,67 L 28,67 L 27,66 L 27,63 L 26,62 L 27,61 L 27,60 L 28,59 L 29,59 L 28,58 L 27,58 L 26,59 L 26,62 L 25,63 L 26,64 L 26,65 L 24,67 L 22,67 L 21,66 L 20,66 L 19,67 L 15,67 L 14,68 L 12,66 L 11,66 L 10,65 L 9,66 L 3,66 L 2,65 L 1,65 L 1,66 L 0,67 L 0,68 L 2,70 L 5,70 L 6,71 L 7,71 L 9,73 L 10,73 L 12,75 L 12,76 L 14,74 L 17,74 L 19,76 L 19,77 L 20,78 L 24,78 L 25,77 L 26,78 L 27,78 L 28,77 L 29,77 L 30,78 L 32,78 L 33,77 L 34,77 L 36,75 L 38,75 L 39,74 L 40,74 L 41,73 L 44,73 L 47,70 L 47,69 L 48,68 L 48,67 L 49,66 L 54,66 L 55,67 L 56,66 L 57,66 L 59,64 L 59,63 L 56,60 L 56,58 L 57,57 L 61,57 L 62,56 L 62,55 L 63,54 L 63,48 L 62,47 L 61,47 L 60,46 L 61,45 Z" fill="none" stroke="black" stroke-width="1"/>
  <path d="M 66,27 L 67,28 L 67,27 Z" fill="none" stroke="black" stroke-width="1"/>
  <path d="M 40,24 L 40,25 L 42,25 L 41,25 Z" fill="none" stroke="black" stroke-width="1"/>
  <path d="M 40,19 L 39,20 L 39,22 L 40,21 L 41,21 L 42,22 L 43,22 L 44,23 L 44,24 L 45,24 L 46,25 L 47,25 L 50,28 L 51,28 L 54,31 L 55,31 L 56,32 L 57,32 L 58,33 L 60,33 L 61,34 L 62,34 L 63,35 L 63,36 L 66,39 L 66,40 L 67,41 L 67,42 L 68,43 L 68,44 L 69,45 L 69,48 L 68,49 L 69,50 L 69,51 L 71,53 L 71,54 L 72,54 L 72,53 L 74,51 L 74,50 L 73,49 L 75,47 L 75,46 L 73,44 L 73,43 L 71,41 L 70,41 L 69,40 L 68,40 L 65,37 L 65,36 L 64,36 L 62,34 L 61,34 L 59,32 L 59,31 L 58,30 L 57,30 L 56,29 L 54,29 L 48,23 L 44,23 L 43,22 L 43,21 L 42,20 L 41,20 Z" fill="none" stroke="black" stroke-width="1"/>
  <path d="M 28,16 L 27,17 L 25,17 L 26,18 L 27,18 L 29,20 L 33,20 L 33,18 L 32,17 L 31,17 L 30,16 Z" fill="none" stroke="black" stroke-width="1"/>
  <path d="M 19,0 L 19,1 L 20,2 L 21,2 L 22,3 L 22,2 L 21,1 L 21,0 Z" fill="none" stroke="black" stroke-width="1"/>
</svg>