<svg xmlns="http://www.w3.org/2000/svg" width="215" height="155">
  <path d="M 199,151 L 201,153 L 202,153 L 203,154 L 206,154 L 205,153 L 203,153 L 202,152 L 201,152 L 200,151 Z" fill="none" stroke="black" stroke-width="1"/>
  <path d="M 212,150 L 211,151 L 214,151 L 214,150 Z" fill="none" stroke="black" stroke-width="1"/>
  <path d="M 191,139 L 191,140 L 192,139 Z" fill="none" stroke="black" stroke-width="1"/>
  <path d="M 161,138 L 161,139 L 162,138 Z" fill="none" stroke="black" stroke-width="1"/>
  <path d="M 151,116 L 150,117 L 150,118 L 151,119 L 151,120 L 152,120 L 153,121 L 153,120 L 154,119 L 156,121 L 156,122 L 157,122 L 158,123 L 159,123 L 160,124 L 160,125 L 161,125 L 162,126 L 162,128 L 163,129 L 163,130 L 165,130 L 166,131 L 167,131 L 167,129 L 168,128 L 166,128 L 166,129 L 165,130 L 163,128 L 163,127 L 160,124 L 161,123 L 162,123 L 162,122 L 161,121 L 161,120 L 160,119 L 159,120 L 158,120 L 156,118 L 155,118 L 154,119 L 153,118 L 153,117 L 152,116 Z" fill="none" stroke="black" stroke-width="1"/>
  <path d="M 188,112 L 190,114 L 191,114 L 192,115 L 192,116 L 193,116 L 194,115 L 194,114 L 192,112 Z" fill="none" stroke="black" stroke-width="1"/>
  <path d="M 164,104 L 164,105 L 165,106 L 165,108 L 165,104 Z" fill="none" stroke="black" stroke-width="1"/>
  <path d="M 96,102 L 95,103 L 95,104 L 93,106 L 93,107 L 95,109 L 94,110 L 95,111 L 95,112 L 96,113 L 98,113 L 100,115 L 100,117 L 102,119 L 103,119 L 104,120 L 105,120 L 109,124 L 109,126 L 111,128 L 112,128 L 113,129 L 115,129 L 117,131 L 118,130 L 121,130 L 122,131 L 128,131 L 129,132 L 136,132 L 137,133 L 139,133 L 140,134 L 146,134 L 147,135 L 149,135 L 150,136 L 149,137 L 146,137 L 148,137 L 150,139 L 155,139 L 156,138 L 157,138 L 158,137 L 158,136 L 154,136 L 153,135 L 153,134 L 154,133 L 157,133 L 158,134 L 159,133 L 155,133 L 154,132 L 153,132 L 152,131 L 150,131 L 149,130 L 147,130 L 143,126 L 144,125 L 146,125 L 147,124 L 148,124 L 148,123 L 145,123 L 144,122 L 139,122 L 138,121 L 136,121 L 135,120 L 135,118 L 136,117 L 136,116 L 133,116 L 132,117 L 130,117 L 129,118 L 125,118 L 124,119 L 121,119 L 121,120 L 119,122 L 114,122 L 111,119 L 111,117 L 107,113 L 107,111 L 102,111 L 99,108 L 99,107 L 97,105 L 97,102 Z" fill="none" stroke="black" stroke-width="1"/>
</svg>