<svg xmlns="http://www.w3.org/2000/svg" width="337" height="334">
  <path d="M 182,162 L 182,163 L 183,164 L 187,164 L 188,165 L 188,166 L 189,167 L 190,166 L 189,166 L 187,164 L 186,164 L 185,163 L 184,163 L 183,162 Z" fill="none" stroke="black" stroke-width="1"/>
  <path d="M 202,141 L 202,142 L 204,142 L 206,144 L 206,146 L 208,148 L 209,148 L 210,149 L 211,149 L 212,150 L 216,150 L 217,151 L 218,151 L 217,150 L 217,148 L 215,146 L 215,145 L 214,145 L 213,146 L 212,145 L 209,145 L 207,143 L 206,143 L 204,141 Z" fill="none" stroke="black" stroke-width="1"/>
  <path d="M 177,126 L 176,127 L 176,130 L 180,134 L 181,134 L 182,135 L 184,135 L 185,134 L 187,134 L 188,135 L 190,135 L 191,136 L 193,136 L 194,135 L 194,134 L 190,130 L 189,130 L 188,129 L 181,129 L 178,126 Z" fill="none" stroke="black" stroke-width="1"/>
  <path d="M 184,122 L 184,123 L 186,123 L 187,124 L 188,124 L 186,122 Z" fill="none" stroke="black" stroke-width="1"/>
  <path d="M 168,122 L 168,123 Z" fill="none" stroke="black" stroke-width="1"/>
  <path d="M 143,117 L 143,118 L 144,118 L 145,119 L 146,119 L 144,117 Z" fill="none" stroke="black" stroke-width="1"/>
  <path d="M 140,113 L 139,114 L 139,115 L 141,117 L 141,113 Z" fill="none" stroke="black" stroke-width="1"/>
  <path d="M 191,111 L 194,114 L 193,115 L 193,118 L 194,119 L 194,121 L 195,122 L 195,123 L 197,125 L 198,125 L 202,129 L 202,130 L 206,134 L 206,132 L 205,131 L 205,130 L 204,129 L 204,128 L 204,129 L 203,130 L 202,129 L 202,127 L 201,126 L 201,125 L 200,124 L 201,123 L 200,122 L 200,121 L 199,121 L 196,118 L 196,117 L 197,116 L 197,115 L 194,112 L 194,111 Z" fill="none" stroke="black" stroke-width="1"/>
  <path d="M 142,106 L 141,107 L 141,108 L 140,109 L 139,109 L 139,110 L 140,110 L 141,109 L 144,109 L 145,110 L 145,111 L 146,112 L 145,113 L 147,113 L 148,114 L 149,114 L 150,115 L 149,116 L 150,117 L 152,117 L 152,116 L 153,115 L 152,114 L 151,114 L 150,115 L 149,114 L 149,113 L 147,111 L 147,110 L 146,109 L 145,109 L 144,108 L 144,106 Z" fill="none" stroke="black" stroke-width="1"/>
  <path d="M 128,105 L 128,107 L 129,108 L 129,106 Z" fill="none" stroke="black" stroke-width="1"/>
  <path d="M 136,104 L 135,105 L 135,106 L 136,107 L 138,107 L 138,105 L 137,104 Z" fill="none" stroke="black" stroke-width="1"/>
  <path d="M 156,99 L 157,99 L 158,100 L 159,100 L 161,102 L 162,102 L 164,104 L 164,105 L 165,105 L 167,107 L 168,107 L 169,108 L 170,108 L 171,109 L 172,109 L 173,110 L 174,110 L 175,111 L 175,113 L 176,113 L 177,114 L 177,113 L 178,112 L 180,114 L 181,114 L 181,113 L 177,109 L 176,109 L 173,106 L 171,106 L 170,105 L 168,105 L 163,100 L 162,100 L 161,99 Z" fill="none" stroke="black" stroke-width="1"/>
  <path d="M 129,99 L 128,100 L 128,101 L 130,103 L 131,102 L 132,102 L 132,101 L 131,101 Z" fill="none" stroke="black" stroke-width="1"/>
  <path d="M 115,90 L 115,91 L 117,91 L 117,90 Z" fill="none" stroke="black" stroke-width="1"/>
  <path d="M 127,84 L 127,85 L 129,87 L 130,87 L 131,88 L 131,89 L 135,93 L 136,93 L 138,95 L 140,95 L 141,96 L 142,96 L 143,95 L 141,95 L 140,94 L 139,94 L 137,92 L 137,90 L 135,88 L 134,88 L 132,86 L 131,86 L 129,84 Z" fill="none" stroke="black" stroke-width="1"/>
  <path d="M 101,66 L 100,67 L 100,72 L 105,77 L 106,77 L 108,79 L 108,83 L 111,86 L 112,86 L 113,87 L 115,87 L 116,86 L 118,86 L 119,85 L 119,84 L 118,83 L 118,82 L 117,81 L 117,80 L 116,80 L 113,77 L 112,77 L 110,75 L 110,74 L 107,71 L 107,70 L 105,68 L 105,67 L 102,67 Z" fill="none" stroke="black" stroke-width="1"/>
  <path d="M 98,58 L 97,59 L 97,62 L 98,63 L 98,64 L 99,64 L 99,59 Z" fill="none" stroke="black" stroke-width="1"/>
</svg>