<svg xmlns="http://www.w3.org/2000/svg" width="337" height="334">
  <path d="M 334,304 L 336,304 Z" fill="none" stroke="black" stroke-width="1"/>
  <path d="M 327,290 L 326,291 L 326,292 L 329,295 L 329,294 L 330,293 L 328,291 L 328,290 Z" fill="none" stroke="black" stroke-width="1"/>
  <path d="M 324,278 L 323,279 L 323,282 L 324,282 L 325,283 L 326,283 L 327,284 L 327,282 L 326,282 L 325,281 L 325,279 Z" fill="none" stroke="black" stroke-width="1"/>
  <path d="M 311,261 L 310,262 L 310,263 L 311,262 L 313,264 L 315,264 L 315,262 L 314,261 Z" fill="none" stroke="black" stroke-width="1"/>
  <path d="M 309,246 L 309,247 L 310,248 L 313,248 L 314,249 L 314,248 L 312,248 L 310,246 Z" fill="none" stroke="black" stroke-width="1"/>
  <path d="M 309,237 L 307,239 L 306,239 L 307,240 L 311,240 L 310,239 L 310,238 Z" fill="none" stroke="black" stroke-width="1"/>
  <path d="M 295,233 L 295,234 L 294,235 L 294,237 L 297,237 L 298,238 L 298,244 L 299,244 L 300,243 L 303,243 L 303,241 L 302,241 L 299,238 L 298,238 L 297,237 L 297,235 Z" fill="none" stroke="black" stroke-width="1"/>
  <path d="M 309,229 L 309,231 L 310,232 L 310,234 L 311,234 L 311,233 L 310,232 L 310,231 L 309,230 Z" fill="none" stroke="black" stroke-width="1"/>
  <path d="M 304,224 L 302,226 L 305,226 L 306,225 L 306,224 Z" fill="none" stroke="black" stroke-width="1"/>
  <path d="M 309,219 L 309,224 Z" fill="none" stroke="black" stroke-width="1"/>
  <path d="M 285,213 L 284,214 L 284,217 L 285,218 L 285,220 L 286,221 L 286,226 L 287,227 L 287,228 L 288,229 L 289,228 L 292,228 L 293,229 L 293,230 L 294,231 L 294,229 L 293,229 L 292,228 L 293,227 L 294,227 L 294,224 L 293,223 L 293,221 L 292,220 L 292,219 L 291,218 L 291,221 L 290,222 L 289,222 L 288,221 L 288,219 L 287,218 L 287,216 L 285,214 Z" fill="none" stroke="black" stroke-width="1"/>
  <path d="M 298,205 L 298,207 L 300,207 L 300,206 L 299,205 Z" fill="none" stroke="black" stroke-width="1"/>
  <path d="M 298,198 L 298,200 L 299,201 L 300,200 L 299,199 L 299,198 Z" fill="none" stroke="black" stroke-width="1"/>
  <path d="M 288,162 L 288,164 L 289,165 L 291,165 L 291,162 Z" fill="none" stroke="black" stroke-width="1"/>
  <path d="M 273,147 L 273,148 L 272,149 L 272,154 L 278,154 L 279,153 L 279,152 L 280,151 L 281,151 L 281,147 Z" fill="none" stroke="black" stroke-width="1"/>
</svg>