<svg xmlns="http://www.w3.org/2000/svg" width="450" height="392">
  <path d="M 422,388 L 422,389 L 421,390 L 421,391 L 423,391 L 423,388 Z" fill="none" stroke="black" stroke-width="1"/>
  <path d="M 436,387 L 436,390 L 437,391 L 440,391 L 442,389 L 442,388 L 440,388 L 439,389 L 437,387 Z" fill="none" stroke="black" stroke-width="1"/>
  <path d="M 403,377 L 403,378 L 404,379 L 408,379 L 408,377 L 407,377 L 406,378 L 405,377 Z" fill="none" stroke="black" stroke-width="1"/>
  <path d="M 447,376 L 447,377 L 446,378 L 446,379 L 449,379 L 449,376 Z" fill="none" stroke="black" stroke-width="1"/>
  <path d="M 393,376 L 392,377 L 392,379 L 395,379 L 395,376 Z" fill="none" stroke="black" stroke-width="1"/>
  <path d="M 433,373 L 432,374 L 431,374 L 431,375 L 432,376 L 432,377 L 433,378 L 435,378 L 435,377 L 437,375 L 437,374 L 436,374 L 435,373 Z" fill="none" stroke="black" stroke-width="1"/>
  <path d="M 437,367 L 437,368 L 439,368 L 440,369 L 441,369 L 441,368 L 440,367 Z" fill="none" stroke="black" stroke-width="1"/>
  <path d="M 430,362 L 429,363 L 429,365 L 431,365 L 433,363 L 433,362 Z" fill="none" stroke="black" stroke-width="1"/>
  <path d="M 385,350 L 385,353 L 386,353 L 387,352 L 387,350 Z" fill="none" stroke="black" stroke-width="1"/>
  <path d="M 371,342 L 371,343 L 372,344 L 372,346 L 374,346 L 375,345 L 375,343 L 374,343 L 373,342 Z" fill="none" stroke="black" stroke-width="1"/>
  <path d="M 380,333 L 380,334 L 382,334 L 383,335 L 383,336 L 384,336 L 384,333 Z" fill="none" stroke="black" stroke-width="1"/>
</svg>