<svg xmlns="http://www.w3.org/2000/svg" width="466" height="341">
  <path d="M 459,266 L 458,267 L 458,269 L 460,271 L 461,271 L 462,272 L 463,272 L 465,270 L 465,269 L 463,267 L 463,266 Z" fill="none" stroke="black" stroke-width="1"/>
  <path d="M 446,260 L 444,262 L 444,263 L 446,265 L 447,265 L 449,263 L 449,262 L 447,260 Z" fill="none" stroke="black" stroke-width="1"/>
  <path d="M 380,260 L 378,262 L 378,264 L 379,264 L 380,265 L 382,265 L 382,260 Z" fill="none" stroke="black" stroke-width="1"/>
  <path d="M 288,205 L 288,206 L 289,207 L 291,207 L 292,206 L 292,205 Z" fill="none" stroke="black" stroke-width="1"/>
  <path d="M 383,184 L 383,185 L 384,186 L 384,187 L 386,187 L 386,185 L 385,184 Z" fill="none" stroke="black" stroke-width="1"/>
  <path d="M 366,182 L 365,183 L 365,185 L 368,185 L 369,184 L 370,184 L 370,182 Z" fill="none" stroke="black" stroke-width="1"/>
  <path d="M 250,182 L 249,183 L 249,184 L 250,185 L 254,185 L 254,183 L 252,183 L 251,182 Z" fill="none" stroke="black" stroke-width="1"/>
  <path d="M 380,179 L 380,181 L 383,181 L 383,179 Z" fill="none" stroke="black" stroke-width="1"/>
  <path d="M 347,175 L 347,179 L 348,179 L 349,180 L 356,180 L 356,177 L 355,177 L 354,176 L 353,176 L 352,175 Z" fill="none" stroke="black" stroke-width="1"/>
  <path d="M 338,169 L 337,170 L 334,170 L 334,172 L 337,175 L 337,176 L 344,176 L 345,175 L 345,172 L 344,171 L 344,170 L 343,169 Z" fill="none" stroke="black" stroke-width="1"/>
  <path d="M 281,163 L 280,164 L 280,169 L 281,170 L 281,171 L 282,171 L 282,167 L 283,166 L 283,163 Z" fill="none" stroke="black" stroke-width="1"/>
  <path d="M 358,104 L 358,108 L 359,109 L 361,109 L 361,104 Z" fill="none" stroke="black" stroke-width="1"/>
  <path d="M 346,100 L 346,101 L 347,102 L 347,103 L 348,104 L 350,104 L 350,100 Z" fill="none" stroke="black" stroke-width="1"/>
  <path d="M 337,87 L 337,88 L 338,89 L 337,90 L 337,93 L 340,93 L 340,88 L 339,88 L 338,87 Z" fill="none" stroke="black" stroke-width="1"/>
</svg>