<svg xmlns="http://www.w3.org/2000/svg" width="671" height="155">
  <path d="M 308,153 L 308,154 L 309,154 L 309,153 Z" fill="none" stroke="black" stroke-width="1"/>
  <path d="M 313,152 L 313,154 L 314,154 L 314,152 Z" fill="none" stroke="black" stroke-width="1"/>
  <path d="M 276,150 L 277,151 L 277,150 Z" fill="none" stroke="black" stroke-width="1"/>
  <path d="M 309,148 L 311,150 L 312,150 L 312,149 L 311,148 Z" fill="none" stroke="black" stroke-width="1"/>
  <path d="M 331,141 L 330,142 L 331,142 Z" fill="none" stroke="black" stroke-width="1"/>
  <path d="M 250,134 L 250,135 L 251,135 L 251,134 Z" fill="none" stroke="black" stroke-width="1"/>
  <path d="M 291,130 L 290,131 L 291,131 Z" fill="none" stroke="black" stroke-width="1"/>
  <path d="M 248,127 L 246,129 L 248,129 L 249,128 L 250,128 L 250,127 Z" fill="none" stroke="black" stroke-width="1"/>
  <path d="M 220,125 L 220,127 L 221,126 L 221,125 Z" fill="none" stroke="black" stroke-width="1"/>
  <path d="M 300,121 L 299,122 L 299,123 L 300,124 L 301,123 L 302,123 L 301,122 L 301,121 Z" fill="none" stroke="black" stroke-width="1"/>
  <path d="M 287,121 L 287,122 Z" fill="none" stroke="black" stroke-width="1"/>
  <path d="M 282,119 L 285,119 Z" fill="none" stroke="black" stroke-width="1"/>
  <path d="M 253,110 L 254,111 L 254,112 L 255,111 L 255,110 Z" fill="none" stroke="black" stroke-width="1"/>
  <path d="M 244,110 L 245,110 Z" fill="none" stroke="black" stroke-width="1"/>
  <path d="M 179,107 L 180,107 Z" fill="none" stroke="black" stroke-width="1"/>
  <path d="M 176,103 L 176,104 Z" fill="none" stroke="black" stroke-width="1"/>
  <path d="M 152,94 L 153,95 L 154,95 L 154,94 Z" fill="none" stroke="black" stroke-width="1"/>
  <path d="M 225,89 L 225,91 Z" fill="none" stroke="black" stroke-width="1"/>
  <path d="M 243,85 L 243,86 L 244,85 Z" fill="none" stroke="black" stroke-width="1"/>
  <path d="M 250,84 L 250,85 Z" fill="none" stroke="black" stroke-width="1"/>
  <path d="M 212,82 L 211,83 L 212,83 Z" fill="none" stroke="black" stroke-width="1"/>
  <path d="M 220,81 L 220,82 L 221,82 L 221,81 Z" fill="none" stroke="black" stroke-width="1"/>
  <path d="M 249,75 L 248,76 L 250,76 L 250,75 Z" fill="none" stroke="black" stroke-width="1"/>
  <path d="M 203,75 L 202,76 L 202,77 L 203,77 Z" fill="none" stroke="black" stroke-width="1"/>
  <path d="M 285,71 L 287,73 L 288,73 L 288,72 L 287,71 Z" fill="none" stroke="black" stroke-width="1"/>
  <path d="M 276,67 L 276,69 L 278,69 L 278,68 L 277,68 Z" fill="none" stroke="black" stroke-width="1"/>
  <path d="M 198,66 L 196,68 L 197,68 L 198,67 Z" fill="none" stroke="black" stroke-width="1"/>
  <path d="M 215,64 L 215,67 L 216,67 L 219,70 L 221,70 L 220,69 L 219,69 L 218,68 L 219,67 L 219,66 L 217,64 Z" fill="none" stroke="black" stroke-width="1"/>
  <path d="M 193,63 L 193,64 L 194,65 L 196,65 L 197,64 L 197,63 Z" fill="none" stroke="black" stroke-width="1"/>
  <path d="M 182,60 L 183,61 L 183,60 Z" fill="none" stroke="black" stroke-width="1"/>
  <path d="M 221,57 L 218,60 L 219,61 L 221,59 Z" fill="none" stroke="black" stroke-width="1"/>
  <path d="M 189,55 L 189,56 L 190,57 L 191,57 L 191,55 Z" fill="none" stroke="black" stroke-width="1"/>
  <path d="M 177,53 L 177,55 L 178,54 Z" fill="none" stroke="black" stroke-width="1"/>
  <path d="M 207,52 L 207,53 L 208,52 Z" fill="none" stroke="black" stroke-width="1"/>
  <path d="M 256,51 L 255,52 L 256,53 L 257,52 L 257,51 Z" fill="none" stroke="black" stroke-width="1"/>
  <path d="M 191,51 L 190,52 L 191,52 Z" fill="none" stroke="black" stroke-width="1"/>
  <path d="M 144,51 L 144,52 L 146,54 L 147,54 L 145,52 L 145,51 Z" fill="none" stroke="black" stroke-width="1"/>
  <path d="M 163,47 L 162,48 L 162,49 L 164,49 L 164,48 Z" fill="none" stroke="black" stroke-width="1"/>
  <path d="M 179,45 L 179,46 L 182,49 L 183,49 L 183,47 L 181,45 Z" fill="none" stroke="black" stroke-width="1"/>
  <path d="M 200,43 L 201,44 L 202,44 L 201,43 Z" fill="none" stroke="black" stroke-width="1"/>
  <path d="M 163,43 L 163,44 L 164,43 Z" fill="none" stroke="black" stroke-width="1"/>
  <path d="M 156,42 L 154,44 L 156,44 L 158,46 L 159,46 L 160,45 L 160,44 L 159,44 L 158,43 L 157,43 Z" fill="none" stroke="black" stroke-width="1"/>
  <path d="M 164,41 L 165,41 Z" fill="none" stroke="black" stroke-width="1"/>
  <path d="M 148,41 L 148,42 L 149,43 L 151,43 L 149,41 Z" fill="none" stroke="black" stroke-width="1"/>
  <path d="M 186,40 L 187,41 L 187,42 L 188,41 L 187,40 Z" fill="none" stroke="black" stroke-width="1"/>
  <path d="M 168,37 L 171,40 L 172,40 L 173,41 L 174,41 L 175,42 L 177,42 L 178,41 L 178,40 L 174,40 L 173,39 L 172,39 L 170,37 Z" fill="none" stroke="black" stroke-width="1"/>
  <path d="M 162,36 L 162,38 L 164,38 L 164,37 L 163,36 Z" fill="none" stroke="black" stroke-width="1"/>
  <path d="M 180,34 L 180,35 L 182,37 L 183,37 L 184,36 L 184,35 L 183,34 Z" fill="none" stroke="black" stroke-width="1"/>
  <path d="M 155,30 L 154,31 L 153,31 L 153,33 L 154,34 L 156,34 L 156,33 L 157,32 Z" fill="none" stroke="black" stroke-width="1"/>
  <path d="M 142,30 L 140,32 L 140,33 L 141,34 L 141,35 L 142,35 L 143,36 L 143,37 L 144,37 L 146,39 L 147,38 L 148,38 L 147,37 L 147,36 L 146,36 L 145,35 L 145,33 L 144,33 L 143,32 L 143,31 Z" fill="none" stroke="black" stroke-width="1"/>
  <path d="M 228,29 L 229,30 L 230,29 Z" fill="none" stroke="black" stroke-width="1"/>
  <path d="M 218,26 L 217,27 L 218,27 Z" fill="none" stroke="black" stroke-width="1"/>
  <path d="M 149,26 L 148,27 L 150,29 L 152,29 L 152,28 L 151,27 L 151,26 Z" fill="none" stroke="black" stroke-width="1"/>
  <path d="M 134,26 L 134,29 L 135,30 L 139,30 L 139,27 L 138,27 L 137,26 Z" fill="none" stroke="black" stroke-width="1"/>
  <path d="M 101,26 L 102,27 L 103,27 L 103,26 Z" fill="none" stroke="black" stroke-width="1"/>
  <path d="M 197,25 L 192,30 L 191,30 L 191,33 L 192,34 L 193,33 L 194,33 L 194,32 L 195,31 L 195,30 L 194,29 L 194,28 L 195,27 L 197,27 L 198,26 L 198,25 Z" fill="none" stroke="black" stroke-width="1"/>
  <path d="M 158,24 L 158,26 L 159,25 Z" fill="none" stroke="black" stroke-width="1"/>
  <path d="M 124,24 L 124,25 L 125,26 L 127,26 L 128,27 L 129,27 L 129,25 L 128,25 L 127,24 Z" fill="none" stroke="black" stroke-width="1"/>
  <path d="M 144,21 L 144,23 L 145,23 L 146,22 L 146,21 Z" fill="none" stroke="black" stroke-width="1"/>
  <path d="M 131,18 L 131,23 L 133,23 L 134,22 L 134,19 L 133,18 Z" fill="none" stroke="black" stroke-width="1"/>
  <path d="M 125,17 L 124,18 L 124,19 L 125,20 L 127,20 L 128,19 L 128,18 L 127,18 L 126,17 Z" fill="none" stroke="black" stroke-width="1"/>
  <path d="M 108,13 L 108,15 L 109,16 L 110,16 L 111,17 L 112,17 L 113,18 L 118,18 L 118,17 L 117,17 L 116,16 L 115,16 L 113,14 L 112,14 L 111,13 Z" fill="none" stroke="black" stroke-width="1"/>
  <path d="M 160,12 L 159,13 L 160,13 Z" fill="none" stroke="black" stroke-width="1"/>
  <path d="M 102,12 L 102,14 L 105,14 L 105,13 L 104,12 Z" fill="none" stroke="black" stroke-width="1"/>
  <path d="M 95,11 L 96,12 L 97,11 Z" fill="none" stroke="black" stroke-width="1"/>
  <path d="M 249,9 L 249,11 L 250,11 L 250,10 Z" fill="none" stroke="black" stroke-width="1"/>
  <path d="M 149,7 L 149,8 L 150,8 L 151,7 Z" fill="none" stroke="black" stroke-width="1"/>
  <path d="M 153,3 L 152,4 L 152,5 L 154,5 L 155,4 L 155,3 Z" fill="none" stroke="black" stroke-width="1"/>
  <path d="M 132,3 L 132,4 L 131,5 L 131,6 L 132,6 L 133,5 L 133,3 Z" fill="none" stroke="black" stroke-width="1"/>
  <path d="M 138,2 L 136,4 L 136,5 L 139,5 L 140,4 L 140,3 L 139,2 Z" fill="none" stroke="black" stroke-width="1"/>
  <path d="M 211,0 L 213,0 Z" fill="none" stroke="black" stroke-width="1"/>
</svg>