<svg xmlns="http://www.w3.org/2000/svg" width="190" height="185">
  <path d="M 7,74 L 6,75 L 4,75 L 3,76 L 1,76 L 0,77 L 1,78 L 2,78 L 3,79 L 9,79 L 10,78 L 10,75 L 9,74 Z" fill="none" stroke="black" stroke-width="1"/>
  <path d="M 2,65 L 1,66 L 0,66 L 2,66 Z" fill="none" stroke="black" stroke-width="1"/>
  <path d="M 79,62 L 79,63 L 80,64 L 81,64 L 81,63 L 80,62 Z" fill="none" stroke="black" stroke-width="1"/>
  <path d="M 88,57 L 88,58 L 89,59 L 91,59 L 92,60 L 93,59 L 94,60 L 94,61 L 95,62 L 95,64 L 96,65 L 98,65 L 99,66 L 101,66 L 103,64 L 101,64 L 98,61 L 98,60 L 97,60 L 95,58 L 90,58 L 89,57 Z" fill="none" stroke="black" stroke-width="1"/>
  <path d="M 41,52 L 40,53 L 38,53 L 37,54 L 36,54 L 32,58 L 31,58 L 30,59 L 28,59 L 27,58 L 26,59 L 24,59 L 24,63 L 23,64 L 23,65 L 21,67 L 20,67 L 19,66 L 20,65 L 20,62 L 19,61 L 18,62 L 17,61 L 17,59 L 16,60 L 11,60 L 15,60 L 16,61 L 15,62 L 14,62 L 15,63 L 15,66 L 16,67 L 17,67 L 19,69 L 21,69 L 23,71 L 25,69 L 27,69 L 28,70 L 29,70 L 31,72 L 33,72 L 34,73 L 34,77 L 35,78 L 35,79 L 37,81 L 38,81 L 40,83 L 41,82 L 42,82 L 43,81 L 44,81 L 45,82 L 45,83 L 46,83 L 47,82 L 48,82 L 49,83 L 50,83 L 51,82 L 53,82 L 54,81 L 55,81 L 56,82 L 61,82 L 63,80 L 65,80 L 66,81 L 68,79 L 68,77 L 67,76 L 68,75 L 67,74 L 67,73 L 68,72 L 69,72 L 69,70 L 70,69 L 70,68 L 67,65 L 67,64 L 66,63 L 66,61 L 67,60 L 65,58 L 62,58 L 61,59 L 57,59 L 56,58 L 55,58 L 54,57 L 54,56 L 53,55 L 51,55 L 50,54 L 48,54 L 47,53 L 45,53 L 44,52 Z" fill="none" stroke="black" stroke-width="1"/>
  <path d="M 9,48 L 10,48 L 11,49 L 10,50 L 8,50 L 11,50 L 12,51 L 12,52 L 13,53 L 12,54 L 11,54 L 12,55 L 13,55 L 15,53 L 17,53 L 13,49 L 13,48 Z" fill="none" stroke="black" stroke-width="1"/>
  <path d="M 15,47 L 15,48 L 16,48 L 20,52 L 21,51 L 22,51 L 23,52 L 24,51 L 23,50 L 23,49 L 22,48 L 20,48 L 19,47 Z" fill="none" stroke="black" stroke-width="1"/>
  <path d="M 31,0 L 30,1 L 30,2 L 31,2 Z" fill="none" stroke="black" stroke-width="1"/>
</svg>