<svg xmlns="http://www.w3.org/2000/svg" width="121" height="114">
  <path d="M 0,98 L 0,103 L 1,104 L 1,99 Z" fill="none" stroke="black" stroke-width="1"/>
  <path d="M 2,95 L 1,96 L 0,96 L 3,96 L 3,95 Z" fill="none" stroke="black" stroke-width="1"/>
  <path d="M 91,13 L 90,14 L 87,14 L 87,16 L 85,18 L 85,19 L 81,23 L 80,23 L 79,24 L 77,24 L 77,26 L 76,27 L 76,28 L 75,29 L 75,32 L 74,33 L 74,35 L 73,36 L 73,37 L 72,38 L 72,39 L 68,43 L 68,44 L 66,46 L 65,46 L 64,47 L 63,47 L 62,48 L 60,48 L 59,49 L 58,49 L 58,50 L 57,51 L 56,51 L 55,52 L 55,53 L 54,54 L 53,54 L 51,56 L 51,57 L 49,59 L 47,59 L 46,60 L 44,60 L 42,62 L 41,62 L 39,64 L 38,64 L 35,67 L 29,67 L 28,68 L 28,69 L 22,75 L 21,75 L 21,76 L 20,77 L 19,76 L 18,77 L 17,77 L 17,78 L 16,79 L 16,80 L 15,81 L 13,81 L 12,82 L 10,82 L 11,83 L 10,84 L 11,85 L 10,86 L 9,86 L 7,88 L 8,88 L 9,87 L 10,87 L 11,88 L 10,89 L 10,91 L 9,92 L 5,92 L 7,92 L 8,93 L 7,94 L 6,94 L 5,95 L 5,96 L 7,96 L 8,97 L 7,98 L 4,98 L 4,99 L 3,100 L 4,101 L 3,102 L 3,103 L 4,104 L 3,105 L 4,105 L 5,106 L 13,106 L 14,105 L 17,105 L 20,108 L 22,108 L 23,107 L 24,108 L 26,108 L 28,110 L 27,111 L 27,112 L 28,111 L 29,111 L 30,112 L 31,112 L 32,111 L 33,111 L 34,112 L 35,112 L 36,113 L 41,113 L 41,111 L 40,110 L 40,107 L 39,106 L 39,105 L 38,104 L 38,102 L 35,99 L 35,95 L 34,94 L 34,91 L 35,90 L 35,89 L 34,88 L 34,87 L 36,85 L 37,85 L 38,84 L 38,83 L 40,81 L 39,80 L 38,81 L 36,81 L 33,78 L 33,76 L 34,75 L 36,75 L 37,74 L 38,74 L 38,73 L 39,72 L 40,72 L 43,69 L 44,69 L 45,68 L 47,68 L 47,66 L 48,65 L 50,65 L 51,64 L 52,64 L 54,62 L 55,62 L 55,61 L 56,60 L 57,60 L 58,59 L 59,59 L 59,58 L 62,55 L 63,55 L 63,54 L 66,51 L 69,51 L 71,49 L 71,48 L 73,46 L 74,46 L 74,45 L 75,44 L 76,44 L 77,43 L 79,43 L 80,42 L 85,42 L 86,41 L 87,41 L 91,37 L 91,35 L 92,34 L 95,34 L 95,32 L 97,30 L 98,30 L 98,29 L 97,28 L 93,28 L 92,27 L 90,27 L 89,26 L 89,23 L 94,18 L 93,17 L 94,16 L 94,14 L 93,13 Z" fill="none" stroke="black" stroke-width="1"/>
</svg>