<svg xmlns="http://www.w3.org/2000/svg" width="26" height="77">
  <path d="M 19,0 L 19,5 L 18,6 L 17,5 L 14,5 L 12,7 L 11,7 L 10,8 L 9,8 L 8,9 L 8,10 L 7,11 L 9,13 L 8,14 L 7,14 L 7,15 L 8,15 L 10,17 L 9,18 L 8,18 L 7,19 L 10,19 L 11,20 L 10,21 L 10,22 L 9,23 L 11,23 L 12,24 L 11,25 L 11,26 L 12,26 L 13,27 L 14,27 L 16,29 L 16,28 L 17,27 L 17,26 L 19,24 L 19,19 L 20,18 L 20,17 L 22,15 L 22,12 L 21,11 L 21,7 L 20,6 L 20,4 L 21,3 L 20,2 L 20,0 Z" fill="none" stroke="black" stroke-width="1"/>
</svg>