<svg xmlns="http://www.w3.org/2000/svg" width="527" height="460">
  <path d="M 5,231 L 6,232 L 7,231 Z" fill="none" stroke="black" stroke-width="1"/>
  <path d="M 9,206 L 8,207 L 7,207 L 7,208 L 8,209 L 8,210 L 7,211 L 5,211 L 4,212 L 4,216 L 5,217 L 8,217 L 9,216 L 11,216 L 12,215 L 12,212 L 10,210 L 10,207 Z" fill="none" stroke="black" stroke-width="1"/>
  <path d="M 13,187 L 12,188 L 11,188 L 9,190 L 10,191 L 10,192 L 11,192 L 12,191 L 13,191 L 13,188 L 14,187 Z" fill="none" stroke="black" stroke-width="1"/>
  <path d="M 4,180 L 3,181 L 3,182 L 4,183 L 4,185 L 6,185 L 7,184 L 8,184 L 10,182 L 10,181 L 9,180 Z" fill="none" stroke="black" stroke-width="1"/>
  <path d="M 3,172 L 2,173 L 3,174 L 2,175 L 3,176 L 3,177 L 4,176 L 5,176 L 5,173 L 4,172 Z" fill="none" stroke="black" stroke-width="1"/>
  <path d="M 11,170 L 11,175 L 12,174 L 13,174 L 13,173 L 14,172 L 14,171 L 13,170 Z" fill="none" stroke="black" stroke-width="1"/>
  <path d="M 2,167 L 2,169 L 3,170 L 4,170 L 5,169 L 5,168 L 4,167 Z" fill="none" stroke="black" stroke-width="1"/>
  <path d="M 11,161 L 11,162 L 10,163 L 10,164 L 12,166 L 15,166 L 16,165 L 17,165 L 17,164 L 16,164 L 15,165 L 14,165 L 12,163 L 12,161 Z" fill="none" stroke="black" stroke-width="1"/>
  <path d="M 12,154 L 11,155 L 11,158 L 12,157 L 12,156 L 13,155 Z" fill="none" stroke="black" stroke-width="1"/>
  <path d="M 1,152 L 1,154 L 0,155 L 0,162 L 1,163 L 3,163 L 3,161 L 4,160 L 3,159 L 3,154 L 2,154 L 1,153 L 2,152 Z" fill="none" stroke="black" stroke-width="1"/>
  <path d="M 11,144 L 12,145 L 11,146 L 11,151 L 12,152 L 13,152 L 13,151 L 14,150 L 15,150 L 15,149 L 16,148 L 12,144 Z" fill="none" stroke="black" stroke-width="1"/>
  <path d="M 2,141 L 3,141 Z" fill="none" stroke="black" stroke-width="1"/>
  <path d="M 3,134 L 2,135 L 2,139 L 3,139 L 7,135 L 6,135 L 5,134 Z" fill="none" stroke="black" stroke-width="1"/>
  <path d="M 12,131 L 10,133 L 12,133 L 13,134 L 13,135 L 14,135 L 15,134 L 15,132 L 14,131 Z" fill="none" stroke="black" stroke-width="1"/>
  <path d="M 3,124 L 3,125 L 1,127 L 2,128 L 1,129 L 1,131 L 2,132 L 3,131 Z" fill="none" stroke="black" stroke-width="1"/>
  <path d="M 8,107 L 7,108 L 6,108 L 5,109 L 4,109 L 4,111 L 3,112 L 3,116 L 4,117 L 4,118 L 5,119 L 5,120 L 6,121 L 5,122 L 6,122 L 7,123 L 7,125 L 8,126 L 8,127 L 10,127 L 11,126 L 12,126 L 12,125 L 11,124 L 8,124 L 7,123 L 8,122 L 9,122 L 9,121 L 8,120 L 8,118 L 6,118 L 4,116 L 5,115 L 5,112 L 7,110 L 7,109 L 8,108 Z" fill="none" stroke="black" stroke-width="1"/>
  <path d="M 1,105 L 3,107 L 3,105 Z" fill="none" stroke="black" stroke-width="1"/>
</svg>