<svg xmlns="http://www.w3.org/2000/svg" width="84" height="77">
  <path d="M 57,19 L 57,22 L 54,25 L 54,26 L 52,28 L 48,28 L 47,29 L 46,29 L 45,30 L 45,33 L 44,34 L 44,35 L 43,36 L 42,36 L 40,38 L 38,38 L 37,39 L 35,39 L 34,38 L 33,38 L 28,43 L 27,43 L 32,48 L 33,48 L 34,49 L 34,50 L 37,53 L 37,61 L 38,62 L 38,63 L 39,63 L 40,64 L 45,64 L 46,63 L 47,63 L 54,56 L 54,55 L 56,53 L 56,52 L 57,51 L 57,50 L 58,49 L 58,48 L 59,47 L 59,44 L 60,43 L 60,41 L 61,40 L 61,38 L 64,35 L 64,34 L 68,30 L 70,30 L 69,30 L 67,28 L 67,27 L 66,26 L 66,25 L 64,23 L 64,21 L 63,20 L 59,20 L 58,19 Z" fill="none" stroke="black" stroke-width="1"/>
</svg>