<svg xmlns="http://www.w3.org/2000/svg" width="94" height="122">
  <path d="M 52,81 L 51,82 L 51,84 L 50,85 L 48,85 L 47,86 L 45,86 L 43,88 L 42,88 L 42,89 L 41,90 L 41,91 L 39,93 L 38,93 L 36,95 L 36,96 L 34,98 L 33,98 L 31,100 L 31,104 L 29,106 L 29,107 L 28,108 L 28,109 L 26,111 L 26,113 L 30,113 L 31,114 L 37,114 L 41,118 L 43,118 L 44,119 L 47,119 L 48,120 L 51,120 L 52,121 L 53,121 L 53,119 L 54,118 L 53,117 L 53,116 L 55,114 L 55,113 L 57,111 L 57,108 L 58,107 L 59,107 L 59,106 L 60,105 L 68,105 L 69,106 L 69,103 L 68,103 L 67,102 L 67,99 L 66,99 L 65,98 L 65,93 L 64,92 L 63,92 L 62,91 L 60,91 L 59,90 L 59,88 L 58,88 L 57,87 L 57,85 L 56,85 L 55,84 L 55,83 L 54,82 L 54,81 Z" fill="none" stroke="black" stroke-width="1"/>
</svg>