<svg xmlns="http://www.w3.org/2000/svg" width="40" height="43">
  <path d="M 18,35 L 18,37 L 19,38 L 19,39 L 18,40 L 18,42 L 19,41 L 19,40 L 20,39 L 21,40 L 21,39 L 20,38 L 20,35 Z" fill="none" stroke="black" stroke-width="1"/>
  <path d="M 22,29 L 21,30 L 21,32 L 22,32 L 24,34 L 25,34 L 25,33 L 22,30 Z" fill="none" stroke="black" stroke-width="1"/>
  <path d="M 15,19 L 14,20 L 13,20 L 12,21 L 13,22 L 12,23 L 10,23 L 7,26 L 7,30 L 10,33 L 10,34 L 11,35 L 11,36 L 12,37 L 13,37 L 12,36 L 15,33 L 15,32 L 16,31 L 16,26 L 17,25 L 17,22 L 15,20 L 16,19 Z" fill="none" stroke="black" stroke-width="1"/>
</svg>