<svg xmlns="http://www.w3.org/2000/svg" width="84" height="38">
  <path d="M 5,26 L 5,27 L 6,27 L 7,28 L 8,28 L 9,29 L 10,29 L 10,28 L 9,27 L 8,27 L 7,26 Z" fill="none" stroke="black" stroke-width="1"/>
  <path d="M 17,21 L 17,22 L 16,23 L 16,24 L 15,25 L 15,26 L 13,28 L 13,29 L 14,30 L 14,31 L 15,31 L 15,29 L 16,28 L 16,26 L 17,25 L 17,24 L 18,23 L 18,21 Z" fill="none" stroke="black" stroke-width="1"/>
  <path d="M 6,12 L 5,13 L 3,13 L 2,14 L 0,14 L 0,15 L 1,16 L 1,17 L 2,18 L 2,19 L 3,20 L 5,20 L 6,21 L 6,22 L 7,23 L 11,23 L 12,24 L 11,25 L 12,25 L 12,24 L 15,21 L 15,20 L 16,19 L 16,18 L 15,17 L 15,14 L 14,13 L 14,12 L 13,12 L 13,14 L 12,15 L 11,15 L 10,14 L 10,13 L 9,12 Z" fill="none" stroke="black" stroke-width="1"/>
  <path d="M 10,3 L 10,6 L 11,7 L 11,10 L 12,10 L 12,8 L 13,7 L 14,7 L 14,6 L 13,6 L 11,4 L 11,3 Z" fill="none" stroke="black" stroke-width="1"/>
</svg>