<svg xmlns="http://www.w3.org/2000/svg" width="101" height="41">
  <path d="M 50,3 L 50,6 L 49,7 L 49,9 L 48,10 L 50,12 L 50,13 L 49,14 L 45,14 L 44,13 L 43,13 L 42,12 L 39,12 L 38,13 L 38,14 L 36,16 L 36,19 L 35,20 L 35,23 L 36,23 L 38,25 L 38,27 L 39,28 L 39,30 L 44,30 L 45,31 L 47,31 L 49,29 L 51,29 L 52,28 L 54,28 L 55,27 L 58,27 L 58,26 L 56,24 L 56,18 L 57,17 L 57,14 L 59,12 L 59,11 L 62,8 L 62,7 L 63,6 L 63,5 L 62,5 L 61,4 L 60,4 L 59,5 L 53,5 L 52,4 L 51,4 Z" fill="none" stroke="black" stroke-width="1"/>
</svg>