<svg xmlns="http://www.w3.org/2000/svg" width="51" height="37">
  <path d="M 21,2 L 20,3 L 19,3 L 18,4 L 16,4 L 16,5 L 15,6 L 15,8 L 14,9 L 14,10 L 13,11 L 11,11 L 10,10 L 9,10 L 9,11 L 8,12 L 7,12 L 6,11 L 5,11 L 3,9 L 2,9 L 2,10 L 3,11 L 1,13 L 1,14 L 0,15 L 0,18 L 1,19 L 1,21 L 2,22 L 4,22 L 5,23 L 6,23 L 8,21 L 11,21 L 12,20 L 17,20 L 18,21 L 21,21 L 22,20 L 22,19 L 23,18 L 23,15 L 24,14 L 24,11 L 23,11 L 22,10 L 22,9 L 23,8 L 23,7 L 22,6 L 22,3 Z" fill="none" stroke="black" stroke-width="1"/>
</svg>