<svg xmlns="http://www.w3.org/2000/svg" width="51" height="37">
  <path d="M 39,13 L 38,14 L 37,14 L 37,15 L 36,16 L 36,17 L 35,18 L 35,20 L 34,21 L 34,22 L 35,23 L 35,25 L 34,26 L 32,26 L 31,27 L 31,29 L 30,30 L 30,32 L 31,33 L 32,33 L 34,35 L 35,35 L 36,36 L 36,35 L 37,34 L 38,34 L 38,31 L 41,28 L 43,28 L 44,27 L 47,27 L 47,26 L 48,25 L 49,25 L 49,24 L 50,23 L 50,22 L 49,21 L 49,20 L 48,19 L 48,18 L 47,17 L 47,15 L 44,15 L 43,14 L 41,14 L 40,13 Z" fill="none" stroke="black" stroke-width="1"/>
</svg>