<svg xmlns="http://www.w3.org/2000/svg" width="69" height="58">
  <path d="M 18,3 L 17,4 L 17,5 L 16,6 L 15,6 L 15,7 L 14,8 L 11,8 L 10,9 L 8,9 L 6,11 L 6,18 L 5,19 L 4,19 L 4,20 L 3,21 L 3,22 L 5,24 L 5,25 L 4,26 L 4,27 L 2,29 L 2,30 L 1,31 L 0,31 L 1,32 L 12,32 L 13,33 L 14,33 L 15,34 L 17,34 L 18,33 L 19,33 L 19,32 L 20,31 L 22,31 L 23,30 L 25,30 L 26,29 L 26,28 L 25,27 L 24,27 L 23,26 L 22,26 L 20,24 L 20,23 L 21,22 L 21,21 L 22,20 L 21,19 L 21,18 L 23,16 L 23,15 L 21,15 L 20,14 L 20,13 L 22,11 L 23,12 L 24,12 L 23,11 L 24,10 L 24,9 L 25,8 L 23,6 L 22,6 L 19,3 Z" fill="none" stroke="black" stroke-width="1"/>
</svg>