<svg xmlns="http://www.w3.org/2000/svg" width="63" height="44">
  <path d="M 20,31 L 20,33 L 23,33 L 24,32 L 24,31 Z" fill="none" stroke="black" stroke-width="1"/>
  <path d="M 26,29 L 26,30 L 28,30 L 29,31 L 34,31 L 35,30 L 36,30 L 32,30 L 31,29 Z" fill="none" stroke="black" stroke-width="1"/>
  <path d="M 26,25 L 25,26 L 26,27 L 32,27 L 32,26 L 28,26 L 27,25 Z" fill="none" stroke="black" stroke-width="1"/>
  <path d="M 29,15 L 28,16 L 27,16 L 26,17 L 25,17 L 24,18 L 23,18 L 22,19 L 21,19 L 20,18 L 17,18 L 16,19 L 14,19 L 13,18 L 12,18 L 11,19 L 8,19 L 7,20 L 5,20 L 5,21 L 11,21 L 12,22 L 16,22 L 17,23 L 18,23 L 19,24 L 20,24 L 21,23 L 22,23 L 23,22 L 27,22 L 29,24 L 33,24 L 36,27 L 36,28 L 37,28 L 38,29 L 39,29 L 41,31 L 42,31 L 43,30 L 43,29 L 42,28 L 42,27 L 40,25 L 40,24 L 38,22 L 37,22 L 36,21 L 33,21 L 32,20 L 32,18 Z" fill="none" stroke="black" stroke-width="1"/>
</svg>