<svg xmlns="http://www.w3.org/2000/svg" width="63" height="44">
  <path d="M 40,36 L 40,37 L 41,38 L 44,38 L 44,37 L 42,37 L 41,36 Z" fill="none" stroke="black" stroke-width="1"/>
  <path d="M 47,30 L 45,32 L 44,32 L 43,31 L 43,32 L 42,33 L 39,33 L 38,32 L 36,32 L 35,33 L 34,33 L 33,34 L 32,33 L 30,33 L 30,35 L 37,35 L 37,34 L 36,33 L 37,32 L 38,32 L 39,33 L 39,34 L 42,34 L 43,35 L 45,35 L 46,36 L 48,36 L 49,37 L 50,37 L 52,39 L 53,39 L 55,41 L 56,41 L 58,43 L 59,42 L 61,42 L 61,40 L 62,39 L 61,38 L 60,39 L 57,36 L 56,36 L 54,34 L 53,34 L 51,32 L 50,33 L 48,31 L 48,30 Z" fill="none" stroke="black" stroke-width="1"/>
</svg>