<svg xmlns="http://www.w3.org/2000/svg" width="82" height="72">
  <path d="M 28,45 L 28,48 L 29,48 L 30,49 L 31,48 L 31,47 L 29,45 Z" fill="none" stroke="black" stroke-width="1"/>
  <path d="M 23,21 L 22,22 L 21,22 L 20,23 L 19,23 L 18,24 L 15,24 L 14,25 L 14,26 L 15,27 L 15,28 L 16,29 L 16,30 L 15,31 L 15,33 L 19,37 L 19,38 L 20,39 L 20,43 L 21,44 L 21,40 L 22,39 L 22,38 L 23,37 L 26,37 L 27,38 L 27,39 L 29,41 L 29,42 L 30,43 L 32,43 L 31,42 L 31,41 L 30,40 L 30,38 L 31,37 L 30,36 L 30,33 L 29,32 L 28,32 L 27,31 L 28,30 L 27,29 L 27,28 L 26,27 L 26,26 L 25,25 L 25,23 L 26,22 L 25,21 Z" fill="none" stroke="black" stroke-width="1"/>
</svg>