<svg xmlns="http://www.w3.org/2000/svg" width="82" height="72">
  <path d="M 24,0 L 23,1 L 24,2 L 23,3 L 23,4 L 22,5 L 22,8 L 23,9 L 25,9 L 26,10 L 27,10 L 28,11 L 32,11 L 33,12 L 33,13 L 32,14 L 28,14 L 30,16 L 32,16 L 33,15 L 35,15 L 36,16 L 36,17 L 37,16 L 40,16 L 42,18 L 43,18 L 44,19 L 44,20 L 45,21 L 46,21 L 46,18 L 45,17 L 45,13 L 46,12 L 44,10 L 43,10 L 42,9 L 40,9 L 38,7 L 38,6 L 35,6 L 34,5 L 34,3 L 31,3 L 30,2 L 29,2 L 28,1 L 26,1 L 25,0 Z" fill="none" stroke="black" stroke-width="1"/>
</svg>