<svg xmlns="http://www.w3.org/2000/svg" width="60" height="52">
  <path d="M 46,0 L 45,1 L 44,1 L 40,5 L 38,5 L 39,6 L 38,7 L 38,8 L 34,12 L 35,13 L 33,15 L 32,15 L 31,16 L 31,17 L 36,22 L 36,23 L 37,24 L 37,25 L 39,27 L 40,27 L 41,28 L 41,29 L 42,29 L 43,30 L 43,32 L 44,33 L 46,33 L 47,34 L 48,33 L 47,32 L 48,31 L 47,30 L 48,29 L 51,29 L 52,28 L 53,28 L 54,27 L 54,26 L 52,24 L 52,21 L 53,20 L 55,20 L 58,23 L 58,24 L 57,25 L 56,25 L 58,25 L 59,24 L 59,22 L 53,16 L 53,15 L 52,14 L 52,12 L 47,7 L 47,5 L 48,4 L 48,3 L 46,1 Z" fill="none" stroke="black" stroke-width="1"/>
</svg>