<svg xmlns="http://www.w3.org/2000/svg" width="60" height="51">
  <path d="M 38,24 L 38,25 L 37,26 L 36,26 L 35,27 L 34,27 L 33,28 L 31,28 L 30,29 L 31,29 L 32,30 L 32,31 L 31,32 L 31,35 L 32,36 L 32,34 L 34,32 L 35,32 L 37,30 L 38,31 L 38,32 L 37,33 L 37,35 L 38,35 L 39,36 L 40,36 L 41,37 L 42,37 L 44,39 L 44,42 L 45,42 L 46,43 L 47,43 L 48,44 L 50,44 L 49,44 L 48,43 L 47,43 L 44,40 L 44,38 L 45,37 L 46,37 L 47,38 L 48,38 L 49,39 L 50,39 L 51,40 L 51,41 L 53,43 L 54,43 L 54,41 L 53,40 L 52,40 L 51,39 L 50,39 L 49,38 L 49,37 L 51,35 L 52,36 L 54,36 L 55,37 L 57,37 L 58,38 L 58,39 L 59,40 L 59,38 L 57,36 L 53,36 L 51,34 L 51,32 L 49,30 L 49,29 L 51,27 L 52,28 L 53,28 L 54,29 L 55,29 L 56,28 L 57,28 L 58,27 L 57,26 L 57,25 L 55,25 L 54,24 L 53,25 L 52,24 L 50,24 L 49,25 L 44,25 L 43,24 L 42,24 L 40,26 L 39,25 L 39,24 Z" fill="none" stroke="black" stroke-width="1"/>
</svg>