<svg xmlns="http://www.w3.org/2000/svg" width="77" height="66">
  <path d="M 29,20 L 28,21 L 24,21 L 24,25 L 22,27 L 22,28 L 23,28 L 24,29 L 24,31 L 25,31 L 26,32 L 26,35 L 29,38 L 29,39 L 30,40 L 32,40 L 33,41 L 34,41 L 35,42 L 39,42 L 40,43 L 45,43 L 46,44 L 47,44 L 48,45 L 49,45 L 50,44 L 50,43 L 51,42 L 55,42 L 56,41 L 60,41 L 61,40 L 59,38 L 59,37 L 58,37 L 57,36 L 57,34 L 56,34 L 55,33 L 55,27 L 58,24 L 58,23 L 59,22 L 60,22 L 60,21 L 57,21 L 56,22 L 55,22 L 54,23 L 52,23 L 51,22 L 51,21 L 48,21 L 48,23 L 47,24 L 46,23 L 44,23 L 43,22 L 40,22 L 39,21 L 36,21 L 35,20 Z" fill="none" stroke="black" stroke-width="1"/>
</svg>