<svg xmlns="http://www.w3.org/2000/svg" width="52" height="61">
  <path d="M 6,39 L 6,41 L 7,41 L 8,40 L 7,39 Z" fill="none" stroke="black" stroke-width="1"/>
  <path d="M 2,15 L 1,16 L 0,16 L 0,18 L 1,19 L 1,24 L 2,25 L 2,28 L 1,29 L 1,31 L 2,32 L 3,32 L 4,33 L 4,34 L 5,34 L 6,35 L 4,37 L 9,37 L 10,38 L 10,41 L 8,43 L 9,44 L 9,46 L 10,47 L 12,47 L 13,46 L 15,46 L 15,45 L 16,44 L 15,43 L 16,42 L 15,41 L 15,39 L 14,39 L 13,38 L 15,36 L 15,33 L 14,32 L 13,32 L 12,31 L 11,31 L 10,30 L 10,25 L 7,22 L 7,21 L 6,20 L 6,19 L 3,16 L 3,15 Z" fill="none" stroke="black" stroke-width="1"/>
</svg>