<svg xmlns="http://www.w3.org/2000/svg" width="69" height="58">
  <path d="M 52,0 L 51,1 L 50,1 L 50,2 L 49,3 L 49,5 L 47,7 L 44,7 L 40,3 L 39,3 L 38,4 L 37,4 L 37,5 L 38,6 L 37,7 L 37,9 L 38,9 L 39,10 L 39,12 L 40,13 L 41,13 L 42,14 L 40,16 L 41,17 L 42,16 L 43,16 L 44,17 L 44,19 L 46,21 L 46,23 L 47,24 L 47,29 L 48,30 L 48,31 L 47,32 L 47,34 L 45,36 L 45,37 L 47,37 L 48,36 L 49,36 L 49,35 L 50,34 L 50,33 L 51,32 L 53,32 L 54,33 L 55,33 L 57,35 L 60,35 L 61,36 L 62,36 L 64,34 L 65,34 L 66,33 L 67,33 L 68,32 L 68,31 L 66,29 L 66,28 L 67,27 L 65,27 L 63,25 L 63,23 L 62,22 L 62,19 L 63,18 L 63,17 L 62,16 L 62,15 L 61,14 L 61,11 L 63,9 L 63,8 L 62,7 L 62,3 L 60,3 L 59,2 L 54,2 L 53,1 L 53,0 Z" fill="none" stroke="black" stroke-width="1"/>
</svg>