<svg xmlns="http://www.w3.org/2000/svg" width="44" height="73">
  <path d="M 22,20 L 20,22 L 18,22 L 18,23 L 19,24 L 19,27 L 18,28 L 17,28 L 16,29 L 14,29 L 13,30 L 12,30 L 11,31 L 10,30 L 8,30 L 7,31 L 5,31 L 5,32 L 7,34 L 7,35 L 5,37 L 4,37 L 3,38 L 2,38 L 1,39 L 1,42 L 3,44 L 3,45 L 4,44 L 8,44 L 9,43 L 10,43 L 11,44 L 12,44 L 13,45 L 15,45 L 16,44 L 20,44 L 21,45 L 22,45 L 23,46 L 24,46 L 25,47 L 29,47 L 30,46 L 33,46 L 33,44 L 32,43 L 32,42 L 31,41 L 33,39 L 35,39 L 35,36 L 36,35 L 36,34 L 35,33 L 34,33 L 31,30 L 31,28 L 29,26 L 29,25 L 30,24 L 30,23 L 28,23 L 26,21 L 25,21 L 24,20 Z" fill="none" stroke="black" stroke-width="1"/>
</svg>