<svg xmlns="http://www.w3.org/2000/svg" width="72" height="41">
  <path d="M 2,12 L 2,15 L 1,16 L 1,17 L 0,18 L 0,19 L 1,20 L 1,24 L 2,25 L 3,25 L 5,27 L 6,26 L 8,26 L 9,27 L 10,27 L 11,28 L 11,31 L 10,32 L 10,33 L 9,34 L 9,36 L 11,36 L 12,37 L 13,37 L 14,38 L 14,40 L 15,39 L 15,38 L 17,36 L 21,36 L 22,37 L 23,37 L 23,33 L 24,32 L 24,31 L 25,30 L 25,28 L 27,26 L 26,25 L 25,25 L 24,24 L 24,22 L 22,20 L 22,18 L 20,16 L 20,15 L 19,14 L 18,14 L 17,13 L 10,13 L 9,14 L 5,14 L 4,13 L 3,13 Z" fill="none" stroke="black" stroke-width="1"/>
</svg>