<svg xmlns="http://www.w3.org/2000/svg" width="73" height="65">
  <path d="M 16,16 L 14,18 L 14,19 L 13,20 L 14,21 L 14,23 L 13,24 L 12,24 L 11,25 L 8,25 L 4,29 L 4,30 L 3,31 L 2,31 L 1,32 L 1,34 L 0,35 L 0,36 L 2,38 L 2,40 L 4,42 L 5,42 L 6,43 L 11,43 L 13,45 L 14,45 L 14,41 L 16,39 L 17,39 L 18,38 L 23,38 L 24,37 L 24,36 L 27,33 L 28,33 L 29,32 L 29,31 L 30,30 L 30,29 L 31,28 L 30,27 L 30,24 L 32,22 L 31,21 L 29,21 L 28,20 L 28,19 L 26,17 L 26,16 L 23,16 L 22,17 L 21,16 Z" fill="none" stroke="black" stroke-width="1"/>
</svg>