<svg xmlns="http://www.w3.org/2000/svg" width="73" height="65">
  <path d="M 48,33 L 48,34 L 49,35 L 49,37 L 48,38 L 48,40 L 47,41 L 44,41 L 42,43 L 41,43 L 41,45 L 40,46 L 41,47 L 41,48 L 42,48 L 44,50 L 47,50 L 48,51 L 48,52 L 49,53 L 54,53 L 56,55 L 56,56 L 58,58 L 58,59 L 59,59 L 60,60 L 60,61 L 61,61 L 62,62 L 62,63 L 65,63 L 66,64 L 67,64 L 68,63 L 69,63 L 69,61 L 70,60 L 70,59 L 72,57 L 72,56 L 69,53 L 69,52 L 68,51 L 68,50 L 64,46 L 64,45 L 62,43 L 61,43 L 59,41 L 59,40 L 58,39 L 58,37 L 57,37 L 55,35 L 55,34 L 54,33 Z" fill="none" stroke="black" stroke-width="1"/>
</svg>