<svg xmlns="http://www.w3.org/2000/svg" width="78" height="104">
  <path d="M 27,35 L 26,36 L 26,37 L 24,39 L 22,39 L 21,38 L 16,38 L 16,39 L 15,40 L 17,42 L 17,43 L 20,46 L 20,47 L 19,48 L 17,48 L 16,49 L 15,49 L 14,50 L 12,50 L 13,51 L 13,53 L 14,54 L 15,54 L 16,55 L 18,55 L 19,56 L 20,56 L 23,59 L 23,60 L 21,62 L 20,62 L 19,61 L 19,66 L 18,67 L 19,68 L 21,68 L 22,69 L 22,71 L 23,72 L 23,73 L 24,73 L 27,76 L 27,77 L 28,78 L 28,79 L 29,80 L 29,82 L 30,82 L 32,84 L 32,90 L 34,92 L 33,93 L 33,94 L 35,92 L 36,93 L 37,92 L 37,90 L 39,88 L 39,85 L 37,83 L 36,83 L 35,82 L 36,81 L 38,81 L 37,80 L 37,79 L 36,78 L 37,77 L 38,77 L 38,75 L 41,72 L 43,72 L 45,74 L 45,75 L 44,76 L 45,76 L 46,75 L 47,75 L 48,74 L 49,74 L 50,75 L 54,75 L 54,74 L 55,73 L 55,72 L 56,71 L 56,70 L 58,68 L 59,68 L 60,67 L 60,66 L 58,66 L 57,65 L 57,64 L 51,58 L 51,56 L 49,56 L 48,55 L 48,54 L 45,54 L 44,53 L 44,52 L 39,52 L 37,50 L 37,49 L 36,48 L 36,42 L 34,40 L 34,39 L 33,39 L 32,38 L 32,36 L 30,36 L 29,35 Z" fill="none" stroke="black" stroke-width="1"/>
</svg>