<svg xmlns="http://www.w3.org/2000/svg" width="101" height="41">
  <path d="M 64,5 L 64,6 L 63,7 L 63,8 L 60,11 L 60,12 L 58,14 L 58,17 L 57,18 L 57,24 L 59,26 L 59,27 L 61,29 L 61,31 L 62,30 L 63,30 L 65,32 L 66,32 L 68,30 L 71,30 L 71,29 L 72,28 L 72,27 L 73,26 L 75,26 L 76,25 L 82,25 L 83,26 L 83,27 L 85,29 L 85,30 L 86,31 L 87,31 L 90,34 L 93,31 L 98,31 L 99,32 L 100,31 L 98,29 L 98,23 L 95,20 L 95,17 L 93,15 L 92,15 L 91,14 L 89,14 L 88,13 L 86,13 L 83,10 L 81,10 L 79,8 L 77,8 L 76,9 L 75,9 L 74,8 L 73,8 L 70,5 Z" fill="none" stroke="black" stroke-width="1"/>
</svg>