<svg xmlns="http://www.w3.org/2000/svg" width="82" height="72">
  <path d="M 41,58 L 41,60 L 40,61 L 39,60 L 39,59 L 39,62 L 38,63 L 38,64 L 39,65 L 43,65 L 44,66 L 52,66 L 53,67 L 54,67 L 55,68 L 56,68 L 57,69 L 57,70 L 58,71 L 62,71 L 63,70 L 69,70 L 70,69 L 80,69 L 80,68 L 81,67 L 81,65 L 80,66 L 77,66 L 76,67 L 75,67 L 74,68 L 73,68 L 72,67 L 72,64 L 71,64 L 70,65 L 68,65 L 67,64 L 62,64 L 61,63 L 53,63 L 52,64 L 50,64 L 47,61 L 48,60 L 48,59 L 47,59 L 45,61 L 44,61 L 42,59 L 42,58 Z" fill="none" stroke="black" stroke-width="1"/>
</svg>