<svg xmlns="http://www.w3.org/2000/svg" width="84" height="87">
  <path d="M 23,71 L 22,72 L 22,73 L 26,73 L 26,71 Z" fill="none" stroke="black" stroke-width="1"/>
  <path d="M 37,70 L 37,71 L 39,73 L 40,73 L 40,72 L 38,70 Z" fill="none" stroke="black" stroke-width="1"/>
  <path d="M 37,63 L 34,66 L 36,66 L 37,65 Z" fill="none" stroke="black" stroke-width="1"/>
  <path d="M 42,62 L 39,65 L 39,66 L 40,67 L 40,68 L 41,68 L 42,67 Z" fill="none" stroke="black" stroke-width="1"/>
  <path d="M 22,59 L 22,60 L 23,61 L 24,61 L 25,60 L 25,59 Z" fill="none" stroke="black" stroke-width="1"/>
  <path d="M 34,54 L 34,55 L 35,56 L 35,57 L 37,57 L 37,55 L 36,55 L 35,54 Z" fill="none" stroke="black" stroke-width="1"/>
  <path d="M 21,53 L 21,57 L 22,57 L 22,56 L 24,54 L 24,53 Z" fill="none" stroke="black" stroke-width="1"/>
  <path d="M 29,48 L 28,49 L 32,53 L 32,50 L 31,49 L 30,49 Z" fill="none" stroke="black" stroke-width="1"/>
</svg>