<svg xmlns="http://www.w3.org/2000/svg" width="57" height="42">
  <path d="M 2,11 L 2,12 L 3,13 L 3,12 Z" fill="none" stroke="black" stroke-width="1"/>
  <path d="M 19,0 L 18,1 L 19,2 L 19,3 L 18,4 L 17,4 L 16,3 L 14,3 L 13,4 L 12,4 L 11,3 L 8,3 L 7,4 L 4,4 L 2,6 L 0,6 L 0,9 L 4,9 L 5,10 L 7,10 L 8,11 L 7,12 L 5,12 L 6,12 L 7,13 L 7,14 L 6,15 L 4,15 L 3,16 L 0,16 L 3,16 L 4,17 L 5,17 L 6,18 L 6,19 L 7,20 L 9,20 L 11,18 L 12,19 L 13,19 L 14,20 L 15,20 L 16,21 L 19,21 L 19,19 L 18,18 L 18,17 L 17,16 L 19,14 L 20,14 L 21,15 L 23,15 L 23,14 L 22,13 L 23,12 L 24,12 L 25,13 L 26,12 L 26,10 L 25,9 L 26,8 L 26,6 L 28,4 L 28,3 L 25,0 L 22,0 L 21,1 L 20,0 Z" fill="none" stroke="black" stroke-width="1"/>
</svg>