<svg xmlns="http://www.w3.org/2000/svg" width="148" height="220">
  <path d="M 36,47 L 36,48 L 37,49 L 37,50 L 36,51 L 36,52 L 35,53 L 33,53 L 31,55 L 30,54 L 29,55 L 28,54 L 27,54 L 26,53 L 24,53 L 24,55 L 26,57 L 26,59 L 27,60 L 27,61 L 28,62 L 29,62 L 30,63 L 30,64 L 33,67 L 33,68 L 32,69 L 25,69 L 24,68 L 23,68 L 22,69 L 22,70 L 23,71 L 21,73 L 21,74 L 18,77 L 18,78 L 17,79 L 17,80 L 18,81 L 18,82 L 17,83 L 17,85 L 16,86 L 16,87 L 15,88 L 15,90 L 14,91 L 13,91 L 13,92 L 11,94 L 10,94 L 9,95 L 9,96 L 7,98 L 4,98 L 3,99 L 3,100 L 5,102 L 5,106 L 7,108 L 7,109 L 15,117 L 15,118 L 16,119 L 16,120 L 17,121 L 22,121 L 23,122 L 24,122 L 25,123 L 30,123 L 31,124 L 32,123 L 42,123 L 43,124 L 47,124 L 48,123 L 50,123 L 53,120 L 54,120 L 56,118 L 57,118 L 60,115 L 60,112 L 61,111 L 61,108 L 63,106 L 64,106 L 66,104 L 67,104 L 67,102 L 69,100 L 69,99 L 70,98 L 70,95 L 73,92 L 74,92 L 76,90 L 76,89 L 75,88 L 75,87 L 74,86 L 74,79 L 73,78 L 73,76 L 74,75 L 80,75 L 83,72 L 84,72 L 83,72 L 81,70 L 80,70 L 78,68 L 77,68 L 76,67 L 69,67 L 65,63 L 64,63 L 63,62 L 62,62 L 62,64 L 63,65 L 63,67 L 64,68 L 63,69 L 62,69 L 61,68 L 61,67 L 60,66 L 60,65 L 59,64 L 59,66 L 58,67 L 57,66 L 57,61 L 58,60 L 56,60 L 54,58 L 54,57 L 51,57 L 49,55 L 48,55 L 42,49 L 41,49 L 40,48 L 39,48 L 38,47 L 37,48 Z" fill="none" stroke="black" stroke-width="1"/>
</svg>