<svg xmlns="http://www.w3.org/2000/svg" width="57" height="42">
  <path d="M 23,30 L 24,31 L 25,31 L 25,30 Z" fill="none" stroke="black" stroke-width="1"/>
  <path d="M 27,11 L 27,12 L 25,14 L 24,13 L 23,13 L 24,14 L 24,15 L 23,16 L 21,16 L 20,15 L 19,15 L 18,16 L 19,17 L 19,18 L 20,19 L 20,22 L 21,22 L 22,23 L 23,23 L 25,25 L 25,27 L 25,25 L 26,24 L 27,25 L 28,25 L 29,24 L 30,24 L 31,23 L 32,24 L 32,25 L 31,26 L 30,26 L 30,27 L 31,26 L 32,26 L 33,25 L 34,25 L 35,26 L 35,27 L 36,28 L 37,27 L 39,27 L 40,26 L 41,26 L 41,25 L 40,24 L 40,20 L 39,19 L 38,19 L 37,18 L 37,16 L 36,15 L 32,15 L 31,14 L 29,14 L 27,12 Z" fill="none" stroke="black" stroke-width="1"/>
</svg>