<svg xmlns="http://www.w3.org/2000/svg" width="78" height="35">
  <path d="M 3,0 L 3,7 L 2,8 L 2,13 L 3,13 L 5,15 L 4,16 L 2,16 L 2,18 L 1,19 L 1,25 L 0,26 L 0,28 L 2,28 L 4,26 L 5,26 L 6,27 L 8,27 L 9,26 L 10,26 L 11,25 L 15,25 L 17,27 L 17,28 L 18,27 L 19,27 L 20,26 L 22,28 L 23,28 L 23,27 L 25,25 L 24,24 L 25,23 L 27,23 L 26,22 L 26,21 L 19,14 L 19,11 L 18,10 L 18,8 L 19,7 L 19,6 L 17,4 L 14,4 L 13,3 L 10,3 L 10,4 L 11,5 L 11,6 L 13,8 L 13,10 L 12,11 L 11,10 L 11,9 L 10,9 L 8,7 L 8,5 L 7,4 L 7,2 L 5,0 Z" fill="none" stroke="black" stroke-width="1"/>
</svg>