<svg xmlns="http://www.w3.org/2000/svg" width="41" height="47">
  <path d="M 11,12 L 10,13 L 7,13 L 7,14 L 6,15 L 2,15 L 1,16 L 0,16 L 0,17 L 2,19 L 2,21 L 3,22 L 3,23 L 4,24 L 6,24 L 8,26 L 16,26 L 17,27 L 22,27 L 25,30 L 26,30 L 27,31 L 27,32 L 28,33 L 28,34 L 30,36 L 31,35 L 32,35 L 35,32 L 37,32 L 38,31 L 38,30 L 39,29 L 39,26 L 40,25 L 40,21 L 37,21 L 36,20 L 34,20 L 33,19 L 28,19 L 26,17 L 25,17 L 23,15 L 21,15 L 20,14 L 20,13 L 18,13 L 17,12 Z" fill="none" stroke="black" stroke-width="1"/>
</svg>