<svg xmlns="http://www.w3.org/2000/svg" width="110" height="52">
  <path d="M 24,0 L 22,2 L 21,2 L 21,3 L 20,4 L 19,4 L 18,5 L 18,7 L 16,9 L 15,9 L 14,8 L 12,8 L 11,9 L 11,14 L 12,15 L 12,20 L 14,20 L 15,21 L 15,24 L 16,24 L 17,23 L 23,23 L 24,24 L 24,27 L 26,29 L 26,30 L 30,30 L 32,32 L 32,35 L 34,37 L 34,38 L 31,41 L 31,42 L 32,43 L 33,43 L 34,42 L 35,42 L 36,43 L 37,43 L 38,42 L 41,42 L 43,44 L 43,47 L 48,47 L 49,48 L 53,48 L 54,49 L 54,50 L 56,50 L 57,51 L 58,50 L 60,50 L 61,49 L 61,48 L 62,47 L 62,45 L 64,43 L 65,43 L 65,42 L 64,41 L 64,40 L 63,39 L 62,39 L 60,37 L 59,37 L 58,36 L 57,36 L 56,35 L 54,35 L 53,34 L 53,33 L 52,33 L 50,31 L 50,30 L 52,28 L 53,28 L 53,27 L 54,26 L 54,25 L 51,22 L 51,21 L 50,20 L 50,17 L 49,16 L 49,12 L 48,11 L 48,9 L 47,8 L 45,8 L 44,7 L 43,7 L 42,6 L 38,6 L 37,5 L 35,5 L 34,4 L 33,4 L 31,2 L 30,2 L 29,1 L 28,1 L 27,0 Z" fill="none" stroke="black" stroke-width="1"/>
</svg>