<svg xmlns="http://www.w3.org/2000/svg" width="95" height="40">
  <path d="M 48,0 L 46,2 L 46,3 L 45,4 L 44,4 L 44,7 L 45,7 L 46,8 L 46,9 L 47,10 L 47,12 L 48,13 L 48,14 L 50,16 L 50,17 L 51,17 L 53,19 L 54,19 L 55,20 L 55,21 L 60,21 L 61,22 L 62,22 L 64,24 L 64,26 L 66,26 L 67,27 L 67,31 L 68,31 L 69,32 L 70,32 L 71,31 L 73,31 L 74,30 L 76,30 L 78,32 L 80,32 L 81,33 L 82,33 L 85,36 L 87,36 L 88,37 L 92,37 L 93,36 L 94,36 L 94,34 L 93,33 L 93,26 L 94,25 L 94,23 L 92,21 L 91,21 L 89,19 L 89,14 L 82,14 L 80,12 L 80,8 L 79,7 L 74,7 L 73,8 L 68,8 L 67,7 L 66,7 L 64,5 L 63,5 L 61,3 L 58,3 L 57,2 L 56,2 L 54,0 Z" fill="none" stroke="black" stroke-width="1"/>
</svg>