<svg xmlns="http://www.w3.org/2000/svg" width="79" height="67">
  <path d="M 57,28 L 56,29 L 53,29 L 53,30 L 52,31 L 51,31 L 51,32 L 49,34 L 45,34 L 43,32 L 38,32 L 38,33 L 36,35 L 34,35 L 34,36 L 32,38 L 31,38 L 31,40 L 30,41 L 29,41 L 27,43 L 27,45 L 28,46 L 28,48 L 33,48 L 35,50 L 37,50 L 38,51 L 38,55 L 39,56 L 39,59 L 40,60 L 42,60 L 43,61 L 47,61 L 50,64 L 50,65 L 51,66 L 51,64 L 54,61 L 55,61 L 55,59 L 56,58 L 56,57 L 57,56 L 58,56 L 59,55 L 61,55 L 62,54 L 64,54 L 64,53 L 65,52 L 65,51 L 66,50 L 69,50 L 70,49 L 73,49 L 75,47 L 78,47 L 78,45 L 77,45 L 76,44 L 76,39 L 75,38 L 73,38 L 72,37 L 71,37 L 70,36 L 70,35 L 68,33 L 68,32 L 67,32 L 65,30 L 64,30 L 63,29 L 63,28 Z" fill="none" stroke="black" stroke-width="1"/>
</svg>