<svg xmlns="http://www.w3.org/2000/svg" width="261" height="141">
  <path d="M 43,48 L 43,49 L 42,50 L 35,50 L 32,53 L 31,53 L 30,52 L 28,52 L 26,54 L 25,54 L 24,55 L 23,55 L 22,56 L 20,56 L 18,54 L 17,54 L 15,56 L 13,56 L 12,57 L 10,57 L 9,58 L 7,58 L 6,59 L 5,59 L 4,60 L 2,60 L 1,61 L 0,61 L 0,63 L 1,63 L 4,66 L 4,67 L 5,68 L 5,69 L 7,71 L 7,74 L 9,76 L 9,77 L 10,78 L 16,78 L 17,79 L 20,79 L 24,83 L 24,85 L 25,86 L 25,87 L 26,88 L 26,103 L 25,104 L 25,106 L 24,107 L 24,111 L 25,112 L 25,113 L 26,113 L 28,115 L 29,115 L 33,119 L 33,120 L 34,121 L 41,121 L 41,119 L 42,118 L 42,117 L 43,116 L 43,115 L 45,113 L 45,112 L 46,111 L 48,111 L 50,109 L 50,108 L 51,107 L 52,107 L 53,106 L 56,106 L 58,108 L 58,110 L 59,111 L 65,111 L 67,109 L 67,108 L 69,106 L 69,105 L 68,105 L 66,103 L 66,100 L 65,99 L 68,96 L 68,93 L 67,92 L 67,87 L 68,86 L 73,86 L 74,85 L 76,85 L 77,84 L 78,84 L 78,81 L 79,80 L 81,80 L 82,81 L 85,81 L 85,80 L 86,79 L 86,75 L 82,71 L 82,70 L 81,69 L 81,66 L 82,65 L 82,63 L 86,59 L 86,58 L 87,57 L 86,56 L 86,55 L 85,54 L 85,53 L 84,52 L 84,51 L 84,54 L 83,55 L 79,55 L 79,56 L 78,57 L 78,58 L 77,59 L 74,59 L 74,60 L 73,61 L 70,61 L 69,62 L 65,62 L 64,61 L 62,61 L 61,60 L 61,59 L 59,59 L 58,58 L 57,58 L 56,57 L 56,56 L 55,55 L 52,55 L 51,54 L 51,53 L 50,52 L 49,52 L 47,50 L 46,50 L 45,49 L 44,49 Z" fill="none" stroke="black" stroke-width="1"/>
</svg>