<svg xmlns="http://www.w3.org/2000/svg" width="72" height="70">
  <path d="M 62,46 L 60,48 L 60,49 L 58,51 L 57,51 L 54,54 L 48,54 L 47,53 L 46,53 L 45,54 L 45,56 L 44,57 L 44,58 L 43,59 L 43,62 L 44,63 L 43,64 L 44,65 L 46,65 L 47,66 L 48,66 L 49,65 L 51,65 L 52,64 L 55,64 L 56,65 L 57,65 L 59,67 L 59,68 L 60,69 L 61,69 L 62,68 L 62,65 L 61,64 L 60,64 L 59,63 L 59,59 L 61,57 L 62,58 L 62,60 L 63,60 L 62,59 L 64,57 L 68,57 L 69,56 L 70,56 L 71,55 L 71,50 L 70,50 L 69,49 L 68,49 L 67,48 L 66,48 L 65,47 L 65,46 Z" fill="none" stroke="black" stroke-width="1"/>
</svg>