<svg xmlns="http://www.w3.org/2000/svg" width="42" height="39">
  <path d="M 9,0 L 8,1 L 7,1 L 6,2 L 5,1 L 3,1 L 3,2 L 2,3 L 2,4 L 3,4 L 4,5 L 4,7 L 3,8 L 3,9 L 2,10 L 2,13 L 3,14 L 1,16 L 1,20 L 2,20 L 3,19 L 6,19 L 8,17 L 12,17 L 13,18 L 14,18 L 15,19 L 15,20 L 17,20 L 18,19 L 23,19 L 26,16 L 26,15 L 27,14 L 28,14 L 29,15 L 30,14 L 30,12 L 29,11 L 29,6 L 28,6 L 27,5 L 26,5 L 25,6 L 24,5 L 21,5 L 20,6 L 20,7 L 19,8 L 18,8 L 17,7 L 16,7 L 14,5 L 14,4 L 15,3 L 15,2 L 12,2 L 11,1 L 11,0 Z" fill="none" stroke="black" stroke-width="1"/>
</svg>