<svg xmlns="http://www.w3.org/2000/svg" width="77" height="66">
  <path d="M 11,25 L 10,26 L 10,28 L 14,32 L 14,37 L 11,40 L 11,41 L 12,42 L 13,42 L 14,43 L 14,44 L 15,44 L 16,43 L 18,45 L 19,45 L 21,47 L 21,49 L 25,49 L 26,50 L 27,49 L 29,49 L 30,50 L 32,50 L 33,51 L 33,52 L 35,50 L 35,47 L 34,46 L 34,42 L 33,42 L 32,41 L 30,41 L 28,39 L 28,38 L 25,35 L 25,32 L 24,32 L 23,31 L 23,29 L 22,29 L 21,28 L 21,27 L 20,27 L 19,28 L 18,28 L 16,26 L 14,26 L 13,25 Z" fill="none" stroke="black" stroke-width="1"/>
</svg>