<svg xmlns="http://www.w3.org/2000/svg" width="51" height="37">
  <path d="M 26,0 L 25,1 L 22,1 L 22,2 L 23,3 L 23,6 L 24,7 L 24,8 L 23,9 L 23,10 L 24,10 L 25,11 L 25,14 L 24,15 L 24,18 L 23,19 L 23,20 L 25,20 L 26,19 L 26,18 L 27,17 L 29,17 L 30,16 L 35,16 L 36,15 L 36,14 L 37,13 L 38,13 L 39,12 L 40,12 L 41,13 L 43,13 L 44,14 L 47,14 L 49,12 L 49,7 L 47,7 L 45,5 L 45,4 L 41,4 L 40,5 L 36,5 L 34,3 L 34,2 L 33,2 L 32,3 L 31,3 L 29,1 L 28,1 L 27,0 Z" fill="none" stroke="black" stroke-width="1"/>
</svg>