<svg xmlns="http://www.w3.org/2000/svg" width="101" height="41">
  <path d="M 5,11 L 4,12 L 4,13 L 3,14 L 1,14 L 1,15 L 2,16 L 2,21 L 0,23 L 0,26 L 1,27 L 1,28 L 2,29 L 2,30 L 3,31 L 4,31 L 7,34 L 8,34 L 13,39 L 15,39 L 16,40 L 17,40 L 18,39 L 21,39 L 21,36 L 22,35 L 20,33 L 19,33 L 17,31 L 17,30 L 18,29 L 18,28 L 19,27 L 19,22 L 20,21 L 20,20 L 22,18 L 21,18 L 20,17 L 20,16 L 18,18 L 16,18 L 15,17 L 14,17 L 13,16 L 13,14 L 11,12 L 9,12 L 8,11 Z" fill="none" stroke="black" stroke-width="1"/>
</svg>