<svg xmlns="http://www.w3.org/2000/svg" width="82" height="72">
  <path d="M 12,9 L 11,10 L 10,10 L 10,11 L 9,12 L 5,12 L 4,13 L 4,14 L 2,16 L 1,16 L 0,17 L 1,18 L 3,18 L 4,19 L 4,20 L 8,24 L 8,25 L 9,26 L 9,28 L 8,29 L 8,30 L 7,31 L 8,32 L 8,33 L 10,35 L 9,36 L 10,37 L 11,37 L 12,38 L 13,37 L 12,36 L 13,35 L 12,34 L 13,33 L 14,33 L 14,31 L 15,30 L 15,29 L 14,28 L 14,27 L 13,26 L 13,25 L 14,24 L 14,19 L 17,16 L 17,13 L 16,12 L 16,11 L 15,11 L 14,10 L 14,9 Z" fill="none" stroke="black" stroke-width="1"/>
</svg>