<svg xmlns="http://www.w3.org/2000/svg" width="183" height="165">
  <path d="M 11,0 L 5,6 L 5,7 L 3,9 L 3,10 L 1,12 L 0,12 L 0,14 L 1,15 L 1,16 L 2,17 L 2,18 L 7,23 L 7,24 L 8,25 L 8,29 L 9,30 L 10,30 L 11,31 L 11,33 L 13,35 L 13,36 L 14,37 L 14,39 L 15,40 L 15,41 L 16,42 L 16,44 L 17,45 L 16,46 L 13,46 L 12,47 L 12,49 L 10,51 L 10,54 L 9,55 L 9,56 L 10,57 L 11,57 L 12,58 L 12,59 L 10,61 L 9,61 L 8,62 L 8,64 L 11,67 L 13,67 L 14,68 L 15,68 L 17,70 L 17,72 L 15,74 L 14,74 L 14,76 L 16,78 L 16,79 L 17,79 L 18,80 L 20,80 L 21,81 L 22,81 L 23,82 L 23,87 L 22,88 L 22,89 L 20,91 L 19,91 L 15,95 L 14,95 L 15,96 L 15,97 L 16,97 L 18,99 L 19,99 L 21,101 L 22,101 L 23,102 L 24,102 L 25,103 L 26,103 L 28,105 L 29,105 L 30,106 L 32,106 L 34,108 L 34,110 L 37,113 L 39,113 L 40,114 L 41,114 L 42,115 L 43,115 L 44,116 L 45,116 L 46,115 L 49,115 L 52,118 L 52,120 L 54,122 L 54,120 L 55,119 L 56,119 L 56,117 L 58,115 L 58,114 L 57,113 L 58,112 L 61,112 L 63,110 L 65,110 L 66,111 L 66,112 L 69,112 L 70,111 L 72,111 L 73,110 L 73,107 L 74,106 L 74,105 L 71,102 L 71,100 L 75,96 L 75,95 L 76,94 L 76,93 L 78,91 L 78,88 L 79,87 L 79,86 L 80,85 L 80,82 L 81,81 L 82,81 L 86,77 L 87,77 L 87,76 L 88,75 L 89,75 L 89,73 L 90,72 L 91,72 L 91,67 L 88,64 L 89,63 L 87,61 L 87,58 L 86,57 L 84,57 L 83,56 L 83,55 L 82,54 L 82,53 L 84,51 L 87,51 L 88,50 L 88,47 L 82,47 L 81,46 L 81,45 L 80,44 L 77,44 L 76,43 L 74,45 L 72,45 L 71,46 L 66,46 L 65,45 L 64,45 L 63,44 L 62,44 L 59,41 L 52,41 L 50,39 L 50,38 L 49,37 L 48,37 L 46,35 L 45,35 L 43,33 L 42,33 L 39,30 L 39,29 L 34,24 L 34,23 L 33,23 L 32,22 L 36,18 L 34,16 L 34,13 L 32,11 L 31,11 L 29,9 L 29,8 L 24,8 L 23,7 L 21,7 L 20,6 L 19,6 L 18,5 L 16,5 L 15,4 L 14,4 L 13,3 L 13,2 L 12,2 L 11,1 Z" fill="none" stroke="black" stroke-width="1"/>
</svg>