<svg xmlns="http://www.w3.org/2000/svg" width="355" height="149">
  <path d="M 228,123 L 227,124 L 228,125 L 230,125 L 231,126 L 231,125 L 230,124 L 229,124 Z" fill="none" stroke="black" stroke-width="1"/>
  <path d="M 207,33 L 207,34 L 210,37 L 210,38 L 209,39 L 207,37 L 204,37 L 204,39 L 205,40 L 204,41 L 200,41 L 199,40 L 198,40 L 197,39 L 193,39 L 192,38 L 188,38 L 187,37 L 186,37 L 185,38 L 185,41 L 184,42 L 183,42 L 182,41 L 182,40 L 183,39 L 183,37 L 182,36 L 180,36 L 180,40 L 179,41 L 178,40 L 172,40 L 173,41 L 173,42 L 172,43 L 168,43 L 167,44 L 166,44 L 166,45 L 163,48 L 163,49 L 162,50 L 162,51 L 161,52 L 161,55 L 159,57 L 159,59 L 160,60 L 160,61 L 159,62 L 159,64 L 155,68 L 155,70 L 154,71 L 155,72 L 155,77 L 156,78 L 156,79 L 160,83 L 164,83 L 165,84 L 166,84 L 170,88 L 170,89 L 171,89 L 174,92 L 175,92 L 178,95 L 178,97 L 177,98 L 177,99 L 175,101 L 175,103 L 176,103 L 177,104 L 177,105 L 178,105 L 179,106 L 181,106 L 182,107 L 183,107 L 184,108 L 186,108 L 187,109 L 192,109 L 193,110 L 193,111 L 194,112 L 195,112 L 198,115 L 198,118 L 200,120 L 196,124 L 197,124 L 198,125 L 198,126 L 203,131 L 203,132 L 205,134 L 206,134 L 208,136 L 209,136 L 211,138 L 212,138 L 214,140 L 214,141 L 215,142 L 222,142 L 225,145 L 226,145 L 227,146 L 228,146 L 229,147 L 234,147 L 235,146 L 237,146 L 239,144 L 240,145 L 243,145 L 245,147 L 245,148 L 250,148 L 250,145 L 251,144 L 254,147 L 254,145 L 252,143 L 252,142 L 247,137 L 246,137 L 244,135 L 243,135 L 242,134 L 240,134 L 239,133 L 237,133 L 236,132 L 230,132 L 229,131 L 230,130 L 231,130 L 232,129 L 233,129 L 234,128 L 233,127 L 232,128 L 230,128 L 229,127 L 225,127 L 224,126 L 224,125 L 222,125 L 221,124 L 222,123 L 225,123 L 226,122 L 222,122 L 221,121 L 222,120 L 221,120 L 220,119 L 219,119 L 216,116 L 216,115 L 217,114 L 215,112 L 214,112 L 213,111 L 211,111 L 210,110 L 211,109 L 214,109 L 215,110 L 220,110 L 221,111 L 221,113 L 224,116 L 225,116 L 228,119 L 229,119 L 230,120 L 231,120 L 232,121 L 233,120 L 232,120 L 231,119 L 232,118 L 234,118 L 235,119 L 236,119 L 237,120 L 237,121 L 238,121 L 239,122 L 245,122 L 246,123 L 246,124 L 247,125 L 250,125 L 252,123 L 253,124 L 254,124 L 255,125 L 256,125 L 258,127 L 259,127 L 260,128 L 261,128 L 262,129 L 266,129 L 267,130 L 272,130 L 273,131 L 278,131 L 279,132 L 287,132 L 288,133 L 290,133 L 291,134 L 294,134 L 296,136 L 298,136 L 299,137 L 307,137 L 308,138 L 311,138 L 312,137 L 316,137 L 317,136 L 323,136 L 324,135 L 325,135 L 326,134 L 329,134 L 330,133 L 332,133 L 333,132 L 334,132 L 336,130 L 337,130 L 338,129 L 339,129 L 340,128 L 341,128 L 344,125 L 344,124 L 346,122 L 347,122 L 353,116 L 353,113 L 354,112 L 354,108 L 351,108 L 350,107 L 350,102 L 349,101 L 349,96 L 348,95 L 348,94 L 347,94 L 346,95 L 344,93 L 342,93 L 341,94 L 340,94 L 339,93 L 339,92 L 338,91 L 339,90 L 338,90 L 337,89 L 335,89 L 332,86 L 332,85 L 330,83 L 330,84 L 331,85 L 330,86 L 326,86 L 324,84 L 323,84 L 322,83 L 321,83 L 320,82 L 319,82 L 315,78 L 313,78 L 312,77 L 311,77 L 310,78 L 309,78 L 307,76 L 307,75 L 306,75 L 305,74 L 304,74 L 299,69 L 298,69 L 297,68 L 295,68 L 293,66 L 291,66 L 289,64 L 288,64 L 287,63 L 286,63 L 285,62 L 284,62 L 283,61 L 282,61 L 281,60 L 279,60 L 278,59 L 276,59 L 274,57 L 273,57 L 272,56 L 271,56 L 270,55 L 267,55 L 266,54 L 264,54 L 263,53 L 258,53 L 257,54 L 251,54 L 250,53 L 247,53 L 246,52 L 245,52 L 244,51 L 245,50 L 244,49 L 240,49 L 241,50 L 240,51 L 233,51 L 233,56 L 232,57 L 230,57 L 229,58 L 226,58 L 225,57 L 227,55 L 228,55 L 229,54 L 230,54 L 230,53 L 228,53 L 227,52 L 228,51 L 229,51 L 230,50 L 231,50 L 231,49 L 232,48 L 226,48 L 222,52 L 221,52 L 220,51 L 224,47 L 221,47 L 220,46 L 216,46 L 215,45 L 215,44 L 210,44 L 208,42 L 209,41 L 214,41 L 215,42 L 218,42 L 219,43 L 224,43 L 225,42 L 225,39 L 223,39 L 222,38 L 219,38 L 218,39 L 215,36 L 213,36 L 212,35 L 211,35 L 209,33 Z" fill="none" stroke="black" stroke-width="1"/>
</svg>