<svg xmlns="http://www.w3.org/2000/svg" width="155" height="369">
  <path d="M 111,0 L 110,1 L 109,1 L 108,2 L 107,2 L 106,3 L 104,3 L 102,5 L 102,6 L 98,10 L 97,10 L 93,14 L 88,14 L 87,15 L 81,15 L 80,16 L 71,16 L 69,18 L 69,19 L 67,21 L 67,22 L 64,25 L 56,25 L 55,26 L 53,26 L 52,27 L 50,27 L 48,29 L 47,29 L 45,31 L 43,31 L 42,32 L 41,32 L 40,33 L 38,33 L 37,34 L 24,34 L 23,35 L 20,35 L 19,36 L 18,36 L 17,37 L 17,39 L 19,41 L 19,45 L 18,46 L 16,46 L 15,47 L 14,47 L 14,48 L 13,49 L 13,50 L 14,51 L 14,55 L 13,56 L 13,57 L 11,59 L 10,59 L 6,63 L 6,66 L 7,67 L 16,67 L 19,70 L 19,78 L 21,80 L 22,80 L 23,81 L 23,82 L 24,83 L 24,89 L 25,89 L 26,90 L 28,90 L 29,91 L 30,91 L 31,92 L 32,92 L 33,93 L 33,101 L 34,100 L 42,100 L 43,101 L 44,101 L 45,102 L 46,102 L 47,103 L 48,103 L 50,101 L 51,101 L 52,100 L 54,100 L 57,97 L 60,97 L 61,96 L 64,96 L 65,95 L 66,95 L 67,94 L 68,94 L 69,93 L 74,93 L 75,94 L 79,94 L 80,95 L 82,95 L 83,96 L 84,96 L 85,97 L 88,97 L 89,98 L 90,98 L 91,99 L 93,99 L 94,100 L 94,101 L 96,101 L 97,102 L 99,102 L 100,103 L 103,103 L 104,102 L 108,102 L 109,101 L 111,101 L 112,100 L 115,100 L 116,101 L 120,101 L 121,102 L 126,102 L 128,100 L 128,99 L 127,98 L 127,96 L 126,95 L 126,94 L 125,93 L 125,92 L 124,91 L 124,90 L 123,89 L 123,86 L 122,85 L 122,84 L 121,83 L 121,82 L 120,81 L 120,79 L 118,77 L 118,69 L 119,68 L 119,67 L 120,66 L 120,64 L 121,63 L 121,62 L 122,61 L 122,59 L 123,58 L 123,57 L 124,56 L 124,48 L 130,42 L 131,42 L 134,39 L 135,39 L 136,38 L 137,38 L 138,37 L 145,37 L 145,36 L 144,35 L 144,34 L 142,32 L 142,31 L 135,24 L 133,24 L 132,23 L 130,23 L 129,22 L 126,22 L 116,12 L 116,11 L 115,10 L 115,8 L 113,6 L 113,5 L 112,4 L 112,3 L 111,2 Z" fill="none" stroke="black" stroke-width="1"/>
</svg>