<svg xmlns="http://www.w3.org/2000/svg" width="39" height="42">
  <path d="M 28,10 L 25,13 L 24,13 L 26,15 L 26,16 L 27,17 L 27,20 L 28,21 L 27,22 L 25,22 L 23,24 L 21,24 L 20,25 L 19,25 L 18,24 L 16,26 L 15,26 L 14,25 L 13,25 L 12,24 L 11,24 L 10,25 L 10,26 L 9,27 L 9,28 L 10,28 L 12,30 L 13,30 L 14,31 L 14,33 L 13,34 L 13,35 L 16,38 L 19,38 L 20,39 L 21,38 L 22,39 L 23,39 L 25,41 L 27,39 L 27,38 L 28,37 L 28,35 L 27,34 L 30,31 L 32,31 L 33,30 L 35,30 L 36,31 L 37,31 L 37,30 L 38,29 L 38,28 L 36,28 L 35,27 L 35,25 L 36,24 L 36,20 L 37,19 L 37,15 L 36,16 L 33,13 L 33,12 L 31,10 Z" fill="none" stroke="black" stroke-width="1"/>
</svg>