<svg xmlns="http://www.w3.org/2000/svg" width="65" height="133">
  <path d="M 28,43 L 25,46 L 24,46 L 24,47 L 23,48 L 21,48 L 21,49 L 20,50 L 20,51 L 19,52 L 18,52 L 17,53 L 16,52 L 14,52 L 13,53 L 12,53 L 11,54 L 10,54 L 10,55 L 9,56 L 9,58 L 8,59 L 8,60 L 5,63 L 6,64 L 6,66 L 5,67 L 5,73 L 6,74 L 6,75 L 7,76 L 7,86 L 8,87 L 8,91 L 12,91 L 13,92 L 14,92 L 15,93 L 17,93 L 18,94 L 18,95 L 19,96 L 19,97 L 20,98 L 28,98 L 29,99 L 29,100 L 31,100 L 34,103 L 35,103 L 36,104 L 37,104 L 37,103 L 40,100 L 42,100 L 44,98 L 45,99 L 48,96 L 48,90 L 49,89 L 50,89 L 50,83 L 49,82 L 49,81 L 50,80 L 50,73 L 51,72 L 51,69 L 52,68 L 52,63 L 50,63 L 49,62 L 49,61 L 48,60 L 48,59 L 47,58 L 47,57 L 45,57 L 44,58 L 43,57 L 40,57 L 37,54 L 30,54 L 29,53 L 29,52 L 30,51 L 30,44 L 29,43 Z" fill="none" stroke="black" stroke-width="1"/>
</svg>