<svg xmlns="http://www.w3.org/2000/svg" width="99" height="161">
  <path d="M 49,0 L 49,1 L 48,2 L 48,3 L 46,5 L 40,5 L 39,6 L 38,6 L 37,7 L 34,7 L 33,8 L 33,9 L 34,10 L 34,11 L 35,12 L 34,13 L 34,14 L 33,15 L 33,17 L 32,18 L 32,19 L 31,20 L 31,24 L 30,25 L 30,30 L 31,31 L 31,34 L 30,35 L 30,39 L 31,40 L 31,42 L 30,43 L 30,44 L 31,45 L 32,45 L 33,46 L 34,46 L 35,47 L 35,48 L 37,50 L 37,51 L 38,52 L 38,54 L 39,55 L 39,57 L 40,58 L 41,57 L 41,55 L 42,54 L 43,54 L 45,52 L 46,52 L 47,51 L 48,51 L 57,42 L 58,42 L 59,41 L 60,41 L 62,39 L 62,38 L 63,37 L 63,36 L 64,35 L 64,34 L 68,30 L 68,28 L 69,27 L 69,25 L 70,24 L 70,11 L 69,10 L 69,8 L 68,7 L 68,6 L 67,5 L 67,4 L 62,4 L 61,5 L 55,5 L 50,0 Z" fill="none" stroke="black" stroke-width="1"/>
</svg>