<svg xmlns="http://www.w3.org/2000/svg" width="148" height="135">
  <path d="M 1,105 L 1,106 L 2,106 L 3,107 L 4,106 L 5,106 L 5,105 Z" fill="none" stroke="black" stroke-width="1"/>
  <path d="M 55,60 L 54,61 L 55,62 L 58,62 L 60,60 L 61,60 Z" fill="none" stroke="black" stroke-width="1"/>
  <path d="M 78,50 L 76,52 L 74,52 L 73,53 L 73,55 L 70,58 L 67,58 L 67,59 L 68,60 L 68,62 L 67,63 L 66,62 L 65,62 L 65,63 L 66,63 L 67,64 L 67,65 L 66,66 L 65,66 L 63,64 L 61,64 L 60,65 L 56,65 L 54,67 L 54,68 L 52,70 L 52,72 L 50,74 L 49,74 L 45,78 L 45,79 L 42,82 L 41,82 L 40,83 L 40,84 L 38,86 L 36,86 L 36,88 L 35,89 L 34,89 L 33,90 L 31,90 L 30,91 L 29,91 L 28,90 L 26,90 L 25,91 L 27,91 L 28,90 L 29,91 L 29,93 L 28,94 L 28,95 L 27,96 L 26,96 L 25,95 L 25,94 L 24,94 L 22,96 L 22,98 L 21,99 L 18,99 L 17,100 L 18,101 L 19,101 L 20,102 L 20,104 L 19,105 L 18,105 L 17,106 L 15,106 L 14,107 L 12,105 L 11,106 L 10,106 L 9,107 L 8,106 L 7,106 L 7,108 L 8,109 L 7,110 L 6,110 L 6,113 L 4,115 L 3,115 L 2,116 L 1,116 L 1,118 L 0,119 L 0,121 L 1,122 L 1,125 L 2,125 L 4,127 L 4,128 L 5,129 L 7,129 L 8,130 L 10,130 L 13,133 L 14,133 L 15,134 L 17,134 L 18,133 L 20,133 L 22,131 L 23,131 L 23,130 L 25,128 L 28,128 L 30,130 L 30,129 L 31,128 L 33,128 L 35,126 L 39,126 L 40,127 L 41,127 L 42,128 L 43,128 L 44,129 L 46,127 L 49,127 L 49,125 L 50,124 L 50,123 L 51,122 L 51,119 L 53,117 L 55,117 L 55,116 L 56,115 L 56,110 L 58,108 L 58,107 L 59,106 L 59,105 L 61,103 L 61,100 L 62,99 L 62,98 L 64,96 L 66,96 L 67,97 L 68,97 L 69,98 L 73,98 L 75,100 L 78,100 L 78,99 L 79,98 L 79,97 L 80,96 L 81,96 L 81,95 L 80,94 L 80,92 L 81,91 L 81,90 L 83,88 L 84,88 L 86,86 L 88,86 L 89,85 L 91,85 L 91,82 L 92,81 L 96,81 L 97,82 L 98,81 L 98,71 L 95,68 L 95,67 L 92,67 L 91,66 L 90,66 L 88,64 L 88,63 L 87,62 L 87,61 L 86,61 L 85,60 L 84,60 L 82,58 L 82,56 L 83,55 L 83,53 L 80,50 Z" fill="none" stroke="black" stroke-width="1"/>
</svg>