<svg xmlns="http://www.w3.org/2000/svg" width="117" height="87">
  <path d="M 64,25 L 63,26 L 62,26 L 60,28 L 58,28 L 55,31 L 55,32 L 53,34 L 53,38 L 51,40 L 51,42 L 50,43 L 50,44 L 51,45 L 50,46 L 50,47 L 53,47 L 62,56 L 62,57 L 63,58 L 63,59 L 65,61 L 65,62 L 66,63 L 65,64 L 65,67 L 66,68 L 66,69 L 69,72 L 69,73 L 73,77 L 73,81 L 77,81 L 78,80 L 81,80 L 82,81 L 83,81 L 84,82 L 85,82 L 86,83 L 92,83 L 93,82 L 95,82 L 96,83 L 98,83 L 99,84 L 101,84 L 102,85 L 104,85 L 105,86 L 108,86 L 109,85 L 109,83 L 108,82 L 108,80 L 106,78 L 107,77 L 107,75 L 106,74 L 106,73 L 107,72 L 108,73 L 110,71 L 108,69 L 108,61 L 109,60 L 109,59 L 108,59 L 106,57 L 106,55 L 105,54 L 105,53 L 102,50 L 102,49 L 98,45 L 98,44 L 95,44 L 94,45 L 91,45 L 89,43 L 89,42 L 81,42 L 79,40 L 79,37 L 78,36 L 78,35 L 77,34 L 76,34 L 72,30 L 71,30 L 70,29 L 69,29 L 68,28 L 67,28 Z" fill="none" stroke="black" stroke-width="1"/>
</svg>