<svg xmlns="http://www.w3.org/2000/svg" width="149" height="134">
  <path d="M 116,63 L 115,64 L 112,64 L 111,65 L 104,65 L 103,66 L 100,66 L 100,70 L 98,72 L 98,73 L 95,76 L 95,77 L 94,78 L 94,79 L 83,90 L 82,90 L 82,93 L 83,93 L 84,92 L 85,93 L 85,94 L 93,102 L 94,102 L 98,106 L 99,106 L 101,108 L 103,108 L 103,107 L 106,104 L 115,104 L 116,105 L 118,103 L 119,103 L 120,104 L 121,104 L 123,106 L 125,106 L 126,107 L 130,107 L 132,109 L 132,110 L 135,113 L 135,114 L 137,116 L 138,116 L 139,117 L 143,117 L 144,118 L 145,118 L 146,117 L 146,116 L 147,115 L 147,114 L 148,113 L 148,111 L 143,106 L 143,105 L 142,104 L 142,103 L 141,102 L 141,101 L 140,100 L 140,95 L 139,94 L 139,91 L 141,89 L 141,88 L 142,87 L 142,86 L 143,85 L 143,84 L 144,83 L 144,81 L 146,79 L 146,78 L 147,77 L 147,75 L 148,74 L 148,69 L 146,69 L 145,70 L 144,70 L 143,71 L 141,71 L 140,70 L 138,70 L 136,68 L 135,68 L 134,67 L 132,67 L 131,66 L 129,66 L 128,65 L 122,65 L 121,64 L 119,64 L 118,63 Z" fill="none" stroke="black" stroke-width="1"/>
</svg>