<svg xmlns="http://www.w3.org/2000/svg" width="73" height="61">
  <path d="M 14,0 L 14,6 L 11,9 L 6,9 L 5,10 L 5,12 L 6,13 L 6,14 L 5,15 L 5,21 L 4,22 L 4,24 L 3,25 L 3,28 L 2,29 L 2,31 L 0,33 L 0,40 L 1,40 L 1,39 L 3,37 L 3,36 L 5,34 L 6,34 L 7,35 L 5,37 L 5,38 L 4,39 L 4,40 L 3,41 L 5,41 L 4,40 L 6,38 L 7,39 L 7,38 L 8,37 L 9,38 L 9,40 L 8,41 L 7,41 L 7,42 L 9,40 L 10,41 L 10,43 L 11,43 L 12,42 L 12,38 L 13,37 L 14,37 L 15,38 L 14,39 L 14,43 L 15,43 L 15,42 L 16,41 L 16,37 L 15,36 L 15,33 L 16,32 L 16,30 L 17,29 L 17,27 L 18,26 L 18,25 L 20,23 L 21,23 L 23,21 L 24,21 L 24,17 L 25,16 L 25,13 L 21,13 L 20,12 L 20,11 L 19,10 L 19,9 L 18,8 L 18,5 L 17,4 L 17,2 L 15,0 Z" fill="none" stroke="black" stroke-width="1"/>
</svg>