<svg xmlns="http://www.w3.org/2000/svg" width="96" height="69">
  <path d="M 46,25 L 45,26 L 45,27 L 42,30 L 40,30 L 38,32 L 38,33 L 37,34 L 36,34 L 35,35 L 35,36 L 36,37 L 36,38 L 37,39 L 37,40 L 35,42 L 34,42 L 32,40 L 27,40 L 26,41 L 25,41 L 25,42 L 22,45 L 22,46 L 21,47 L 21,49 L 24,52 L 24,53 L 26,53 L 28,55 L 30,55 L 32,57 L 32,58 L 36,62 L 36,67 L 38,67 L 39,68 L 40,67 L 42,67 L 42,66 L 44,64 L 45,64 L 46,63 L 47,63 L 48,62 L 49,62 L 50,61 L 52,61 L 53,62 L 54,62 L 55,61 L 57,61 L 60,64 L 61,63 L 64,63 L 64,60 L 63,59 L 63,58 L 62,57 L 62,50 L 63,49 L 63,48 L 64,47 L 61,44 L 61,42 L 60,41 L 60,40 L 59,39 L 59,36 L 58,35 L 57,35 L 56,34 L 56,33 L 55,32 L 55,29 L 53,27 L 51,27 L 50,26 L 49,26 L 48,25 Z" fill="none" stroke="black" stroke-width="1"/>
</svg>