<svg xmlns="http://www.w3.org/2000/svg" width="63" height="53">
  <path d="M 7,16 L 6,17 L 5,17 L 0,22 L 0,24 L 1,25 L 1,27 L 2,28 L 2,29 L 4,29 L 5,28 L 7,28 L 11,32 L 11,33 L 12,33 L 13,34 L 14,34 L 16,36 L 16,37 L 14,39 L 14,41 L 15,42 L 17,42 L 18,41 L 19,41 L 21,39 L 23,39 L 25,41 L 26,41 L 27,40 L 28,40 L 28,39 L 25,36 L 24,36 L 22,34 L 22,32 L 23,31 L 23,28 L 22,27 L 22,26 L 21,26 L 20,25 L 20,23 L 19,23 L 18,22 L 18,21 L 17,20 L 17,18 L 16,18 L 14,16 L 10,16 L 9,17 L 8,16 Z" fill="none" stroke="black" stroke-width="1"/>
</svg>