<svg xmlns="http://www.w3.org/2000/svg" width="63" height="53">
  <path d="M 52,33 L 55,36 L 56,36 L 57,37 L 58,37 L 59,38 L 61,38 L 61,37 L 60,37 L 59,36 L 57,36 L 54,33 Z" fill="none" stroke="black" stroke-width="1"/>
  <path d="M 45,33 L 43,35 L 43,36 L 40,39 L 40,41 L 37,44 L 36,44 L 37,45 L 38,45 L 39,46 L 39,47 L 41,49 L 42,49 L 44,47 L 46,47 L 51,52 L 53,52 L 56,49 L 61,49 L 62,48 L 61,47 L 61,46 L 60,45 L 60,44 L 59,43 L 59,42 L 58,41 L 57,41 L 56,40 L 55,40 L 49,34 L 46,34 Z" fill="none" stroke="black" stroke-width="1"/>
</svg>