<svg xmlns="http://www.w3.org/2000/svg" width="67" height="47">
  <path d="M 65,0 L 64,1 L 63,1 L 60,4 L 59,4 L 57,6 L 53,6 L 52,5 L 51,5 L 50,4 L 49,4 L 48,3 L 48,2 L 47,2 L 45,4 L 44,4 L 43,5 L 41,5 L 40,6 L 39,6 L 39,11 L 43,15 L 43,17 L 44,18 L 45,18 L 46,19 L 46,21 L 47,22 L 47,24 L 48,25 L 50,25 L 52,27 L 54,27 L 56,25 L 58,25 L 59,24 L 62,24 L 63,25 L 63,26 L 64,27 L 65,27 L 66,26 L 66,20 L 65,19 L 65,18 L 64,17 L 64,15 L 63,14 L 63,13 L 62,12 L 62,7 L 63,6 L 64,6 L 64,5 L 65,4 Z" fill="none" stroke="black" stroke-width="1"/>
</svg>