<svg xmlns="http://www.w3.org/2000/svg" width="66" height="71">
  <path d="M 48,55 L 48,56 L 49,56 Z" fill="none" stroke="black" stroke-width="1"/>
  <path d="M 38,39 L 37,40 L 36,40 L 35,41 L 33,41 L 33,44 L 31,46 L 33,48 L 33,49 L 34,50 L 33,51 L 35,53 L 31,57 L 30,57 L 29,58 L 28,58 L 27,59 L 26,59 L 22,63 L 24,63 L 26,65 L 26,66 L 27,67 L 31,67 L 32,66 L 35,66 L 37,68 L 37,70 L 37,69 L 38,68 L 39,68 L 39,67 L 38,66 L 38,65 L 39,64 L 40,64 L 40,62 L 42,60 L 42,59 L 40,59 L 39,58 L 39,57 L 40,56 L 41,57 L 43,57 L 44,58 L 45,57 L 45,56 L 46,55 L 46,52 L 47,51 L 48,51 L 50,53 L 50,54 L 51,54 L 51,53 L 53,51 L 54,52 L 55,52 L 53,50 L 53,47 L 52,46 L 53,45 L 54,45 L 55,44 L 55,43 L 54,42 L 55,41 L 56,41 L 55,40 L 55,39 L 53,39 L 51,41 L 51,42 L 48,45 L 47,45 L 44,42 L 43,43 L 41,43 L 38,40 Z" fill="none" stroke="black" stroke-width="1"/>
</svg>