<svg xmlns="http://www.w3.org/2000/svg" width="68" height="28">
  <path d="M 38,2 L 37,3 L 36,3 L 35,4 L 34,4 L 33,5 L 32,5 L 31,6 L 28,6 L 26,8 L 25,8 L 23,10 L 23,11 L 20,14 L 20,18 L 21,18 L 22,17 L 24,17 L 25,18 L 24,19 L 23,19 L 23,20 L 24,21 L 24,20 L 25,19 L 26,20 L 27,20 L 30,17 L 33,17 L 34,18 L 35,18 L 35,17 L 36,16 L 37,16 L 38,17 L 40,15 L 41,15 L 42,14 L 43,14 L 43,13 L 42,13 L 41,12 L 41,11 L 42,10 L 42,8 L 41,8 L 39,6 L 39,5 L 40,4 L 39,3 L 39,2 Z" fill="none" stroke="black" stroke-width="1"/>
</svg>