<svg xmlns="http://www.w3.org/2000/svg" width="51" height="44">
  <path d="M 41,18 L 40,19 L 40,20 L 37,23 L 36,23 L 35,24 L 34,23 L 34,24 L 33,25 L 32,25 L 32,27 L 31,28 L 31,29 L 30,30 L 30,32 L 29,33 L 30,34 L 30,35 L 31,36 L 31,40 L 32,40 L 34,42 L 34,43 L 35,43 L 36,42 L 37,42 L 39,40 L 40,41 L 42,39 L 43,39 L 45,37 L 46,38 L 48,38 L 49,39 L 49,37 L 48,36 L 48,35 L 50,33 L 50,32 L 48,30 L 48,28 L 50,26 L 49,25 L 49,21 L 50,20 L 50,19 L 48,19 L 47,18 Z" fill="none" stroke="black" stroke-width="1"/>
</svg>