<svg xmlns="http://www.w3.org/2000/svg" width="71" height="82">
  <path d="M 38,67 L 39,67 Z" fill="none" stroke="black" stroke-width="1"/>
  <path d="M 34,44 L 33,45 L 33,47 L 31,49 L 28,49 L 26,47 L 25,47 L 24,46 L 22,46 L 21,47 L 21,48 L 19,50 L 18,50 L 17,51 L 17,53 L 16,54 L 16,56 L 17,57 L 17,58 L 18,59 L 18,62 L 19,63 L 19,65 L 17,67 L 17,68 L 18,69 L 18,74 L 19,75 L 19,77 L 20,78 L 20,80 L 22,78 L 23,79 L 23,81 L 24,80 L 24,79 L 23,79 L 22,78 L 23,77 L 25,77 L 27,75 L 27,74 L 28,73 L 29,73 L 30,74 L 30,73 L 33,70 L 34,70 L 34,69 L 33,69 L 32,68 L 30,68 L 29,67 L 30,66 L 33,66 L 34,67 L 35,66 L 33,66 L 32,65 L 34,63 L 35,63 L 37,65 L 39,63 L 40,64 L 41,64 L 42,65 L 42,64 L 44,62 L 43,62 L 41,60 L 43,58 L 44,59 L 44,60 L 45,59 L 47,59 L 47,58 L 46,58 L 45,57 L 45,56 L 44,56 L 43,55 L 43,54 L 42,54 L 41,53 L 41,52 L 40,52 L 39,51 L 39,50 L 40,49 L 38,47 L 38,46 L 37,45 L 38,44 Z" fill="none" stroke="black" stroke-width="1"/>
</svg>