<svg xmlns="http://www.w3.org/2000/svg" width="76" height="94">
  <path d="M 41,28 L 37,32 L 37,33 L 35,35 L 35,36 L 32,39 L 32,40 L 31,41 L 30,41 L 27,44 L 26,43 L 24,43 L 23,42 L 22,43 L 21,42 L 17,42 L 16,43 L 15,42 L 14,43 L 13,42 L 12,43 L 11,43 L 10,44 L 7,44 L 6,45 L 4,45 L 3,46 L 3,47 L 5,49 L 5,50 L 7,52 L 7,54 L 6,55 L 6,57 L 8,59 L 8,61 L 7,62 L 9,64 L 9,66 L 7,68 L 7,69 L 8,68 L 9,68 L 10,67 L 11,67 L 13,65 L 20,65 L 22,63 L 22,62 L 21,61 L 23,59 L 25,59 L 26,58 L 28,58 L 30,60 L 31,60 L 32,59 L 32,58 L 34,56 L 36,56 L 37,55 L 39,57 L 39,59 L 40,60 L 42,60 L 44,58 L 44,56 L 45,55 L 45,53 L 46,52 L 46,51 L 47,50 L 48,51 L 49,50 L 51,50 L 52,49 L 53,49 L 53,48 L 55,46 L 52,43 L 52,40 L 53,39 L 52,38 L 52,37 L 51,37 L 50,36 L 50,35 L 47,32 L 47,31 L 46,30 L 46,29 L 45,28 Z" fill="none" stroke="black" stroke-width="1"/>
</svg>