<svg xmlns="http://www.w3.org/2000/svg" width="77" height="54">
  <path d="M 62,23 L 60,25 L 59,25 L 58,26 L 56,26 L 55,27 L 52,27 L 51,28 L 49,28 L 46,31 L 46,33 L 47,33 L 48,34 L 48,38 L 49,39 L 49,41 L 50,42 L 51,42 L 52,43 L 52,44 L 50,46 L 50,47 L 51,48 L 52,48 L 53,49 L 53,50 L 55,50 L 56,51 L 57,51 L 58,50 L 59,50 L 60,49 L 61,49 L 63,51 L 64,51 L 65,52 L 67,52 L 68,53 L 69,52 L 69,50 L 68,49 L 67,49 L 66,48 L 66,46 L 68,44 L 68,43 L 69,42 L 70,42 L 71,41 L 71,40 L 70,39 L 70,37 L 69,37 L 68,36 L 68,35 L 67,34 L 67,33 L 66,32 L 66,30 L 65,30 L 63,28 L 63,23 Z" fill="none" stroke="black" stroke-width="1"/>
</svg>