<svg xmlns="http://www.w3.org/2000/svg" width="77" height="61">
  <path d="M 33,28 L 32,29 L 30,29 L 29,30 L 28,30 L 27,31 L 26,31 L 25,32 L 24,32 L 23,33 L 22,33 L 20,35 L 19,35 L 16,38 L 15,38 L 14,39 L 12,39 L 10,41 L 9,41 L 8,42 L 5,42 L 4,43 L 3,43 L 2,44 L 0,44 L 1,45 L 1,46 L 0,47 L 0,48 L 1,49 L 1,52 L 8,59 L 11,56 L 14,56 L 15,55 L 16,55 L 17,56 L 18,55 L 21,58 L 22,57 L 24,57 L 25,58 L 26,57 L 29,57 L 30,58 L 32,58 L 33,59 L 34,59 L 35,58 L 37,58 L 38,59 L 39,58 L 40,58 L 41,57 L 42,58 L 42,59 L 45,56 L 45,52 L 42,49 L 42,48 L 43,47 L 43,42 L 41,40 L 41,38 L 43,36 L 43,34 L 44,33 L 42,31 L 41,31 L 40,30 L 39,31 L 36,28 Z" fill="none" stroke="black" stroke-width="1"/>
</svg>