<svg xmlns="http://www.w3.org/2000/svg" width="70" height="60">
  <path d="M 28,19 L 26,21 L 24,21 L 23,22 L 22,22 L 21,23 L 21,24 L 20,25 L 20,26 L 21,27 L 21,28 L 22,29 L 22,31 L 21,32 L 21,33 L 20,34 L 20,35 L 17,38 L 17,39 L 15,41 L 16,42 L 18,42 L 19,43 L 24,43 L 24,40 L 27,37 L 30,37 L 31,38 L 37,38 L 37,33 L 36,33 L 34,31 L 34,30 L 32,30 L 32,32 L 30,34 L 28,34 L 27,33 L 26,33 L 25,32 L 25,28 L 23,28 L 22,27 L 24,25 L 25,25 L 30,20 L 30,19 Z" fill="none" stroke="black" stroke-width="1"/>
</svg>