<svg xmlns="http://www.w3.org/2000/svg" width="65" height="59">
  <path d="M 36,33 L 35,34 L 35,35 L 34,36 L 33,36 L 31,38 L 30,38 L 29,39 L 27,39 L 26,38 L 25,38 L 24,37 L 23,37 L 22,38 L 21,38 L 20,39 L 19,39 L 19,40 L 18,41 L 18,42 L 16,44 L 15,43 L 14,43 L 13,44 L 13,47 L 12,48 L 12,49 L 11,50 L 10,50 L 11,51 L 11,54 L 9,56 L 9,57 L 12,57 L 14,55 L 16,55 L 17,54 L 18,54 L 19,55 L 20,54 L 21,54 L 22,55 L 23,54 L 26,54 L 27,53 L 29,53 L 30,52 L 31,52 L 32,51 L 33,52 L 33,53 L 36,56 L 41,56 L 42,55 L 44,55 L 47,58 L 49,58 L 50,57 L 51,57 L 52,56 L 54,56 L 58,52 L 58,50 L 60,48 L 60,47 L 59,46 L 58,46 L 57,45 L 56,45 L 55,44 L 55,43 L 52,40 L 50,40 L 49,41 L 47,41 L 46,40 L 46,39 L 45,38 L 45,36 L 44,35 L 44,34 L 43,34 L 41,36 L 38,33 Z" fill="none" stroke="black" stroke-width="1"/>
</svg>