<svg xmlns="http://www.w3.org/2000/svg" width="121" height="80">
  <path d="M 92,0 L 87,5 L 84,5 L 82,3 L 82,2 L 81,1 L 80,2 L 79,2 L 79,3 L 78,4 L 77,4 L 78,5 L 78,8 L 77,9 L 77,10 L 78,11 L 78,12 L 77,13 L 77,15 L 76,16 L 76,18 L 77,19 L 77,23 L 76,24 L 76,27 L 77,28 L 77,29 L 80,32 L 80,34 L 82,36 L 82,39 L 83,40 L 85,40 L 86,41 L 88,41 L 89,42 L 90,42 L 91,41 L 93,41 L 94,42 L 94,43 L 95,44 L 99,40 L 100,40 L 101,41 L 103,39 L 103,38 L 104,37 L 105,37 L 107,39 L 108,39 L 109,40 L 112,40 L 113,41 L 113,47 L 116,44 L 116,43 L 119,40 L 119,39 L 120,38 L 120,37 L 119,36 L 119,34 L 118,33 L 117,33 L 117,35 L 115,37 L 114,37 L 112,35 L 112,34 L 113,33 L 113,32 L 112,31 L 112,26 L 111,25 L 110,26 L 106,26 L 106,27 L 105,28 L 103,26 L 103,24 L 102,23 L 103,22 L 103,21 L 102,20 L 99,20 L 98,19 L 99,18 L 99,17 L 101,15 L 101,12 L 104,9 L 103,8 L 101,8 L 100,7 L 100,6 L 99,5 L 99,3 L 100,2 L 98,0 L 97,1 L 94,1 L 93,0 Z" fill="none" stroke="black" stroke-width="1"/>
</svg>