<svg xmlns="http://www.w3.org/2000/svg" width="54" height="49">
  <path d="M 36,25 L 30,31 L 29,31 L 28,32 L 27,32 L 26,31 L 25,31 L 25,33 L 24,34 L 24,36 L 26,38 L 26,39 L 27,40 L 27,42 L 29,42 L 32,45 L 32,46 L 34,48 L 34,47 L 35,46 L 38,46 L 39,45 L 40,45 L 39,44 L 39,41 L 40,40 L 41,40 L 42,41 L 44,41 L 45,42 L 45,43 L 46,43 L 46,42 L 49,39 L 50,39 L 51,40 L 52,40 L 53,39 L 53,38 L 51,36 L 51,33 L 50,33 L 49,32 L 48,32 L 47,31 L 47,30 L 46,30 L 45,29 L 45,28 L 43,26 L 42,26 L 40,28 L 38,28 L 37,27 L 37,26 Z" fill="none" stroke="black" stroke-width="1"/>
</svg>