<svg xmlns="http://www.w3.org/2000/svg" width="77" height="54">
  <path d="M 51,3 L 51,4 L 49,6 L 49,9 L 50,10 L 48,12 L 48,15 L 47,16 L 48,17 L 47,18 L 47,19 L 46,20 L 45,20 L 44,21 L 43,21 L 42,22 L 42,24 L 44,26 L 45,26 L 46,27 L 51,27 L 52,26 L 55,26 L 56,25 L 58,25 L 59,24 L 60,24 L 61,23 L 61,22 L 59,20 L 59,19 L 62,16 L 64,16 L 65,15 L 71,15 L 72,14 L 72,13 L 73,12 L 73,11 L 75,9 L 76,9 L 76,8 L 75,7 L 75,6 L 69,6 L 68,5 L 58,5 L 57,4 L 56,4 L 55,3 Z" fill="none" stroke="black" stroke-width="1"/>
</svg>