<svg xmlns="http://www.w3.org/2000/svg" width="74" height="67">
  <path d="M 62,30 L 61,31 L 60,31 L 59,32 L 58,32 L 57,33 L 57,35 L 56,36 L 55,35 L 54,35 L 53,34 L 52,34 L 51,33 L 48,33 L 48,34 L 47,35 L 47,36 L 46,37 L 46,38 L 48,40 L 48,41 L 51,44 L 51,46 L 50,47 L 50,48 L 49,49 L 47,49 L 45,51 L 44,51 L 42,53 L 41,53 L 40,54 L 38,54 L 38,55 L 39,56 L 39,57 L 43,57 L 45,59 L 45,60 L 46,61 L 46,65 L 47,66 L 48,66 L 49,65 L 52,65 L 53,64 L 55,64 L 56,65 L 58,65 L 59,66 L 61,66 L 63,64 L 62,64 L 61,63 L 61,61 L 60,61 L 57,58 L 59,56 L 59,55 L 60,54 L 60,53 L 59,52 L 61,50 L 66,50 L 67,49 L 68,49 L 69,48 L 70,48 L 70,47 L 71,46 L 72,46 L 73,45 L 73,43 L 70,40 L 67,40 L 66,39 L 66,38 L 67,37 L 68,37 L 69,36 L 69,35 L 68,34 L 67,34 L 64,31 L 63,31 Z" fill="none" stroke="black" stroke-width="1"/>
</svg>