<svg xmlns="http://www.w3.org/2000/svg" width="51" height="55">
  <path d="M 40,20 L 35,25 L 33,25 L 32,26 L 30,26 L 29,27 L 28,27 L 27,28 L 26,28 L 26,29 L 24,31 L 24,34 L 21,37 L 20,37 L 16,41 L 16,42 L 17,43 L 16,44 L 16,45 L 14,47 L 14,49 L 13,50 L 13,51 L 12,52 L 12,53 L 13,53 L 14,54 L 18,54 L 19,53 L 19,52 L 20,51 L 21,51 L 23,49 L 26,49 L 27,50 L 29,48 L 30,48 L 31,47 L 32,47 L 33,48 L 33,46 L 34,45 L 35,45 L 36,46 L 36,45 L 37,44 L 36,43 L 37,42 L 35,40 L 35,39 L 33,37 L 33,36 L 34,35 L 34,34 L 35,33 L 38,33 L 39,32 L 40,32 L 40,25 L 41,24 L 43,24 L 41,22 L 41,20 Z" fill="none" stroke="black" stroke-width="1"/>
</svg>