<svg xmlns="http://www.w3.org/2000/svg" width="228" height="164">
  <path d="M 39,117 L 34,122 L 33,122 L 32,121 L 30,121 L 30,124 L 31,125 L 31,127 L 30,128 L 30,129 L 29,130 L 28,130 L 27,131 L 25,131 L 24,130 L 20,130 L 18,128 L 17,128 L 16,127 L 15,127 L 14,128 L 14,130 L 15,130 L 16,131 L 16,132 L 17,133 L 13,137 L 12,137 L 10,139 L 11,140 L 11,141 L 13,143 L 15,141 L 20,141 L 22,143 L 22,144 L 23,145 L 23,146 L 25,144 L 26,144 L 28,142 L 29,142 L 30,141 L 31,141 L 32,140 L 36,140 L 37,141 L 38,141 L 40,143 L 41,143 L 42,144 L 43,144 L 45,146 L 46,146 L 47,147 L 48,147 L 49,148 L 50,148 L 51,149 L 53,149 L 54,150 L 55,150 L 56,151 L 57,151 L 58,152 L 58,153 L 59,152 L 59,150 L 60,149 L 59,148 L 59,147 L 55,143 L 55,142 L 54,142 L 51,139 L 50,139 L 48,137 L 48,136 L 47,135 L 49,133 L 48,132 L 49,131 L 49,130 L 48,129 L 49,128 L 48,127 L 48,126 L 47,126 L 46,125 L 45,125 L 42,122 L 42,121 L 40,119 L 40,118 Z" fill="none" stroke="black" stroke-width="1"/>
</svg>