<svg xmlns="http://www.w3.org/2000/svg" width="57" height="55">
  <path d="M 47,28 L 46,29 L 45,29 L 43,31 L 41,31 L 40,32 L 38,32 L 38,34 L 36,36 L 34,36 L 32,38 L 28,38 L 27,39 L 24,39 L 23,40 L 22,40 L 22,41 L 21,42 L 24,45 L 23,46 L 23,47 L 22,48 L 22,52 L 24,52 L 26,54 L 28,52 L 28,50 L 29,49 L 30,49 L 32,47 L 35,47 L 36,48 L 39,48 L 40,49 L 42,49 L 45,46 L 48,46 L 49,45 L 50,45 L 50,41 L 51,40 L 51,36 L 53,34 L 54,34 L 54,32 L 53,32 L 49,28 Z" fill="none" stroke="black" stroke-width="1"/>
</svg>