<svg xmlns="http://www.w3.org/2000/svg" width="125" height="93">
  <path d="M 88,33 L 87,34 L 86,34 L 84,36 L 84,38 L 85,39 L 85,41 L 86,42 L 86,43 L 79,50 L 78,50 L 77,51 L 76,51 L 75,50 L 74,50 L 73,51 L 72,51 L 72,52 L 70,54 L 70,55 L 69,56 L 69,57 L 67,59 L 67,60 L 64,63 L 62,63 L 61,64 L 61,66 L 60,67 L 60,68 L 59,69 L 59,70 L 58,71 L 50,71 L 49,70 L 47,70 L 46,69 L 46,75 L 43,78 L 43,79 L 41,81 L 41,82 L 40,83 L 40,85 L 41,85 L 42,84 L 44,84 L 45,83 L 47,83 L 48,82 L 51,82 L 52,81 L 53,81 L 54,80 L 55,80 L 58,77 L 60,77 L 62,75 L 64,75 L 67,72 L 68,72 L 70,70 L 71,70 L 77,64 L 77,61 L 78,60 L 79,60 L 80,59 L 80,57 L 83,54 L 83,53 L 84,52 L 86,52 L 87,51 L 88,51 L 89,50 L 89,47 L 91,45 L 92,45 L 94,43 L 94,42 L 96,40 L 97,40 L 97,39 L 101,35 L 100,35 L 99,36 L 98,36 L 97,35 L 96,35 L 95,34 L 93,36 L 91,36 Z" fill="none" stroke="black" stroke-width="1"/>
</svg>