<svg xmlns="http://www.w3.org/2000/svg" width="39" height="41">
  <path d="M 9,6 L 9,8 L 5,12 L 5,14 L 6,14 L 7,15 L 2,20 L 0,20 L 0,21 L 1,22 L 2,22 L 3,23 L 3,24 L 4,25 L 4,26 L 6,28 L 6,29 L 8,29 L 10,27 L 11,27 L 12,28 L 14,26 L 16,26 L 18,24 L 19,24 L 20,23 L 25,23 L 28,26 L 35,26 L 35,22 L 34,21 L 34,20 L 33,19 L 33,18 L 31,16 L 31,15 L 30,15 L 28,13 L 24,13 L 23,12 L 23,11 L 22,11 L 21,12 L 19,12 L 18,11 L 18,10 L 17,9 L 16,9 L 15,8 L 15,7 L 14,6 Z" fill="none" stroke="black" stroke-width="1"/>
</svg>