<svg xmlns="http://www.w3.org/2000/svg" width="228" height="164">
  <path d="M 115,117 L 114,118 L 112,118 L 112,120 L 113,119 L 114,119 L 115,118 Z" fill="none" stroke="black" stroke-width="1"/>
  <path d="M 87,117 L 84,120 L 83,120 L 81,122 L 79,122 L 78,123 L 75,123 L 74,124 L 70,124 L 69,123 L 62,123 L 61,122 L 59,122 L 58,121 L 56,121 L 55,120 L 55,121 L 53,123 L 50,123 L 50,124 L 49,125 L 49,127 L 50,128 L 49,129 L 50,130 L 50,131 L 49,132 L 50,133 L 48,135 L 49,136 L 49,137 L 50,138 L 51,138 L 54,141 L 55,141 L 56,142 L 56,143 L 60,147 L 60,145 L 62,143 L 62,142 L 66,138 L 67,138 L 67,137 L 69,135 L 70,135 L 71,134 L 73,134 L 74,133 L 76,133 L 77,134 L 81,134 L 83,132 L 84,133 L 87,133 L 88,132 L 88,131 L 89,130 L 94,130 L 95,129 L 95,128 L 96,127 L 98,127 L 96,127 L 93,130 L 92,129 L 91,129 L 90,128 L 90,124 L 89,123 L 89,122 L 87,120 Z" fill="none" stroke="black" stroke-width="1"/>
  <path d="M 104,105 L 103,106 L 103,107 L 102,108 L 102,109 L 101,110 L 100,110 L 99,111 L 99,112 L 98,113 L 98,114 L 96,116 L 94,116 L 94,117 L 93,118 L 93,119 L 94,120 L 95,120 L 95,117 L 96,116 L 98,116 L 98,115 L 100,113 L 100,112 L 101,111 L 102,111 L 104,109 L 106,109 L 107,108 L 109,108 L 110,107 L 106,107 Z" fill="none" stroke="black" stroke-width="1"/>
</svg>