<svg xmlns="http://www.w3.org/2000/svg" width="69" height="58">
  <path d="M 34,29 L 33,30 L 31,30 L 29,32 L 28,32 L 27,33 L 24,33 L 23,34 L 18,34 L 17,35 L 17,37 L 18,37 L 19,38 L 19,39 L 20,39 L 21,40 L 21,41 L 22,42 L 27,42 L 28,43 L 28,45 L 34,45 L 35,46 L 40,46 L 41,47 L 41,49 L 43,49 L 44,50 L 46,50 L 47,49 L 47,48 L 46,47 L 46,46 L 45,45 L 45,40 L 46,39 L 46,38 L 45,38 L 44,37 L 44,36 L 46,34 L 46,32 L 47,31 L 47,30 L 46,29 L 45,29 L 44,30 L 44,31 L 43,32 L 41,32 L 40,31 L 39,31 L 38,30 L 36,30 L 35,29 Z" fill="none" stroke="black" stroke-width="1"/>
</svg>