<svg xmlns="http://www.w3.org/2000/svg" width="39" height="41">
  <path d="M 17,14 L 16,15 L 15,15 L 14,16 L 13,16 L 12,17 L 12,19 L 13,19 L 16,22 L 16,24 L 15,25 L 14,25 L 14,26 L 13,27 L 13,29 L 12,30 L 12,31 L 13,31 L 14,32 L 14,33 L 16,35 L 16,36 L 17,37 L 17,39 L 18,38 L 19,38 L 21,40 L 22,40 L 22,39 L 24,37 L 27,37 L 29,39 L 33,39 L 34,38 L 35,38 L 36,37 L 37,37 L 37,36 L 36,35 L 36,31 L 38,29 L 38,28 L 36,26 L 35,27 L 31,27 L 30,26 L 30,25 L 29,24 L 27,24 L 26,23 L 26,22 L 24,20 L 24,18 L 23,17 L 23,16 L 22,15 L 21,16 L 20,16 L 18,14 Z" fill="none" stroke="black" stroke-width="1"/>
</svg>