<svg xmlns="http://www.w3.org/2000/svg" width="68" height="42">
  <path d="M 40,26 L 39,27 L 38,27 L 38,28 L 37,29 L 34,29 L 33,28 L 30,28 L 29,29 L 28,29 L 28,32 L 27,33 L 28,34 L 29,34 L 30,33 L 32,33 L 33,34 L 33,35 L 36,35 L 37,36 L 37,37 L 36,38 L 36,39 L 37,40 L 38,40 L 39,41 L 40,41 L 40,40 L 42,38 L 45,38 L 46,39 L 47,38 L 48,38 L 49,39 L 50,39 L 51,40 L 51,41 L 52,41 L 54,39 L 55,39 L 55,37 L 54,37 L 52,35 L 52,34 L 54,32 L 54,31 L 51,28 L 44,28 L 42,26 Z" fill="none" stroke="black" stroke-width="1"/>
</svg>