<svg xmlns="http://www.w3.org/2000/svg" width="77" height="32">
  <path d="M 43,0 L 42,1 L 42,3 L 44,5 L 44,6 L 45,7 L 47,7 L 48,8 L 50,8 L 52,10 L 52,11 L 54,13 L 54,14 L 55,15 L 58,15 L 60,17 L 62,17 L 63,16 L 64,16 L 67,13 L 69,13 L 70,12 L 71,12 L 73,10 L 73,9 L 74,8 L 74,7 L 75,6 L 75,4 L 76,3 L 73,3 L 72,2 L 71,3 L 70,3 L 69,4 L 66,4 L 64,2 L 62,2 L 61,1 L 59,1 L 58,0 L 57,0 L 58,1 L 56,3 L 54,3 L 53,4 L 52,4 L 51,3 L 49,3 L 48,2 L 47,2 L 45,0 Z" fill="none" stroke="black" stroke-width="1"/>
</svg>