<svg xmlns="http://www.w3.org/2000/svg" width="189" height="217">
  <path d="M 10,163 L 9,164 L 6,164 L 5,165 L 3,165 L 1,167 L 1,168 L 4,168 L 5,167 L 9,167 L 10,166 L 12,166 L 13,165 L 11,163 Z" fill="none" stroke="black" stroke-width="1"/>
  <path d="M 8,159 L 6,161 L 5,161 L 4,162 L 0,162 L 7,162 L 8,161 Z" fill="none" stroke="black" stroke-width="1"/>
  <path d="M 43,130 L 42,131 L 40,131 L 39,132 L 40,133 L 40,132 L 41,131 L 42,132 L 43,132 L 44,133 L 45,133 L 46,132 L 44,130 Z" fill="none" stroke="black" stroke-width="1"/>
  <path d="M 62,115 L 62,117 L 61,118 L 61,121 L 60,122 L 60,123 L 61,122 L 65,122 L 66,123 L 64,125 L 65,125 L 66,124 L 67,124 L 69,122 L 70,122 L 71,123 L 67,127 L 66,127 L 65,128 L 63,128 L 62,127 L 62,126 L 61,125 L 60,126 L 59,126 L 56,129 L 55,129 L 53,131 L 52,130 L 51,131 L 50,131 L 49,132 L 48,132 L 48,135 L 50,133 L 53,133 L 54,134 L 53,135 L 52,135 L 49,138 L 51,140 L 51,141 L 50,142 L 49,141 L 48,141 L 47,140 L 46,140 L 45,139 L 43,139 L 42,140 L 42,141 L 41,142 L 39,142 L 37,144 L 35,144 L 36,144 L 37,145 L 36,146 L 34,146 L 27,153 L 27,154 L 29,154 L 30,155 L 29,156 L 28,156 L 27,157 L 26,157 L 25,158 L 24,158 L 23,159 L 22,159 L 21,160 L 20,160 L 20,162 L 22,162 L 24,160 L 26,160 L 27,159 L 28,160 L 28,161 L 27,162 L 25,162 L 24,163 L 25,164 L 25,165 L 26,166 L 29,166 L 30,165 L 32,165 L 33,164 L 34,164 L 35,163 L 36,163 L 37,162 L 38,162 L 39,161 L 40,161 L 41,160 L 41,159 L 42,158 L 40,158 L 39,159 L 38,159 L 37,158 L 39,156 L 41,156 L 42,155 L 43,155 L 46,152 L 47,152 L 48,153 L 49,153 L 50,154 L 49,155 L 48,155 L 47,156 L 46,156 L 45,157 L 45,158 L 46,157 L 47,157 L 48,158 L 49,158 L 50,159 L 49,160 L 47,160 L 45,162 L 42,162 L 40,164 L 41,164 L 42,165 L 41,166 L 40,166 L 39,167 L 40,168 L 39,169 L 35,169 L 34,168 L 30,168 L 29,169 L 28,169 L 28,170 L 27,171 L 26,170 L 26,169 L 25,168 L 24,168 L 22,166 L 22,165 L 19,165 L 18,166 L 15,166 L 14,167 L 16,169 L 18,169 L 19,170 L 18,171 L 13,171 L 12,170 L 12,169 L 11,168 L 10,169 L 7,169 L 7,170 L 9,170 L 11,172 L 11,173 L 12,174 L 12,175 L 13,175 L 14,176 L 14,178 L 15,179 L 15,180 L 16,180 L 17,179 L 18,180 L 20,180 L 21,181 L 23,181 L 24,182 L 25,182 L 26,183 L 27,183 L 28,184 L 29,183 L 30,183 L 31,184 L 31,185 L 33,187 L 39,187 L 40,186 L 41,186 L 41,184 L 42,183 L 43,183 L 45,181 L 49,181 L 50,180 L 51,180 L 52,179 L 54,179 L 55,180 L 56,180 L 58,182 L 59,182 L 59,178 L 58,177 L 58,176 L 57,175 L 57,170 L 59,168 L 59,167 L 60,166 L 60,163 L 63,160 L 63,159 L 68,154 L 69,154 L 70,153 L 71,153 L 72,152 L 81,152 L 82,153 L 86,153 L 87,152 L 89,152 L 90,151 L 91,151 L 90,150 L 90,146 L 89,145 L 89,144 L 88,143 L 88,142 L 86,142 L 84,140 L 84,136 L 88,132 L 89,132 L 89,131 L 90,130 L 90,129 L 91,128 L 92,128 L 92,126 L 91,126 L 90,125 L 88,125 L 86,123 L 78,123 L 77,122 L 75,122 L 74,121 L 72,121 L 71,120 L 70,120 L 69,119 L 69,118 L 64,118 L 63,117 L 63,116 Z" fill="none" stroke="black" stroke-width="1"/>
  <path d="M 55,112 L 55,113 L 57,113 L 58,112 Z" fill="none" stroke="black" stroke-width="1"/>
</svg>