<svg xmlns="http://www.w3.org/2000/svg" width="40" height="37">
  <path d="M 23,0 L 23,5 L 22,6 L 21,6 L 20,5 L 19,5 L 19,7 L 17,9 L 16,9 L 19,12 L 19,13 L 18,14 L 18,15 L 17,16 L 16,16 L 16,18 L 15,19 L 16,20 L 17,20 L 18,21 L 19,21 L 20,20 L 21,20 L 22,19 L 25,19 L 26,18 L 27,18 L 28,19 L 31,19 L 33,17 L 34,17 L 35,16 L 37,16 L 38,15 L 39,15 L 39,14 L 38,14 L 37,13 L 37,12 L 35,12 L 34,11 L 33,11 L 32,10 L 32,7 L 33,6 L 32,5 L 31,5 L 30,4 L 30,2 L 29,2 L 28,1 L 27,1 L 26,0 Z" fill="none" stroke="black" stroke-width="1"/>
</svg>