<svg xmlns="http://www.w3.org/2000/svg" width="94" height="122">
  <path d="M 63,57 L 63,58 L 61,60 L 60,60 L 59,61 L 58,61 L 58,62 L 57,63 L 56,63 L 55,64 L 55,65 L 54,66 L 50,66 L 49,67 L 49,71 L 48,72 L 48,76 L 49,77 L 49,78 L 51,80 L 54,80 L 55,81 L 55,82 L 56,83 L 56,84 L 57,84 L 58,85 L 58,87 L 59,87 L 60,88 L 60,90 L 62,90 L 63,91 L 64,91 L 65,92 L 70,92 L 71,93 L 73,93 L 73,88 L 74,87 L 76,87 L 77,88 L 78,88 L 79,89 L 83,89 L 86,86 L 87,86 L 89,84 L 90,84 L 90,82 L 91,81 L 91,77 L 92,76 L 93,76 L 93,75 L 92,74 L 92,71 L 91,70 L 91,68 L 90,67 L 90,66 L 87,63 L 87,62 L 86,61 L 86,60 L 85,59 L 83,59 L 81,57 Z" fill="none" stroke="black" stroke-width="1"/>
</svg>