<svg xmlns="http://www.w3.org/2000/svg" width="108" height="56">
  <path d="M 103,21 L 102,22 L 102,23 L 103,24 L 103,25 L 106,25 L 106,22 L 105,22 L 104,21 Z" fill="none" stroke="black" stroke-width="1"/>
  <path d="M 88,15 L 88,20 L 89,20 L 89,19 L 90,18 L 90,17 L 89,16 L 89,15 Z" fill="none" stroke="black" stroke-width="1"/>
  <path d="M 93,12 L 93,13 L 92,14 L 91,14 L 93,16 L 93,20 L 94,20 L 95,21 L 96,20 L 97,20 L 98,21 L 99,21 L 100,20 L 101,20 L 101,19 L 100,19 L 99,18 L 99,17 L 98,17 L 97,16 L 97,15 L 96,15 L 96,16 L 95,17 L 94,16 L 94,12 Z" fill="none" stroke="black" stroke-width="1"/>
  <path d="M 96,8 L 96,11 L 97,11 L 98,12 L 98,13 L 99,13 L 99,12 L 100,11 L 101,11 L 102,12 L 102,13 L 103,14 L 103,16 L 106,16 L 106,15 L 107,14 L 106,13 L 106,12 L 104,12 L 102,10 L 100,10 L 99,9 L 99,8 Z" fill="none" stroke="black" stroke-width="1"/>
</svg>