<svg xmlns="http://www.w3.org/2000/svg" width="82" height="67">
  <path d="M 34,39 L 31,42 L 28,42 L 27,43 L 27,46 L 28,47 L 26,49 L 25,49 L 24,50 L 24,54 L 23,55 L 23,58 L 27,58 L 28,59 L 33,59 L 34,60 L 38,60 L 39,61 L 47,61 L 48,62 L 56,62 L 56,61 L 57,60 L 59,60 L 60,59 L 62,59 L 63,60 L 63,62 L 65,64 L 71,64 L 72,65 L 76,65 L 77,64 L 80,64 L 81,63 L 81,60 L 78,60 L 77,59 L 77,58 L 75,58 L 74,57 L 72,57 L 71,56 L 67,56 L 65,54 L 64,54 L 63,53 L 62,53 L 61,54 L 54,54 L 53,53 L 52,53 L 51,52 L 50,52 L 46,48 L 46,47 L 45,47 L 44,48 L 42,48 L 41,47 L 40,47 L 39,46 L 38,46 L 37,45 L 36,45 L 35,44 L 35,42 L 34,41 Z" fill="none" stroke="black" stroke-width="1"/>
</svg>