<svg xmlns="http://www.w3.org/2000/svg" width="63" height="64">
  <path d="M 42,23 L 40,25 L 39,25 L 39,26 L 38,27 L 38,33 L 36,35 L 33,35 L 32,34 L 31,34 L 30,33 L 29,33 L 28,32 L 26,32 L 26,33 L 27,34 L 27,35 L 25,37 L 25,39 L 26,40 L 26,44 L 27,45 L 27,46 L 24,49 L 23,49 L 22,50 L 22,54 L 23,55 L 23,57 L 24,58 L 24,60 L 25,60 L 26,61 L 27,61 L 28,62 L 29,62 L 30,63 L 31,63 L 31,62 L 32,61 L 32,59 L 33,58 L 33,57 L 34,56 L 35,56 L 37,54 L 40,54 L 40,51 L 42,49 L 42,48 L 43,47 L 43,46 L 44,45 L 44,34 L 45,33 L 45,26 L 44,25 L 44,24 L 43,23 Z" fill="none" stroke="black" stroke-width="1"/>
</svg>