<svg xmlns="http://www.w3.org/2000/svg" width="50" height="52">
  <path d="M 28,0 L 26,2 L 25,2 L 25,3 L 24,4 L 24,6 L 23,7 L 23,8 L 22,9 L 20,9 L 20,12 L 21,13 L 21,14 L 22,15 L 22,19 L 23,19 L 24,20 L 29,20 L 33,24 L 34,24 L 35,25 L 37,25 L 38,26 L 39,26 L 39,25 L 40,24 L 41,24 L 42,23 L 43,23 L 44,22 L 44,20 L 43,19 L 44,18 L 45,18 L 46,17 L 46,14 L 45,13 L 44,13 L 43,12 L 43,11 L 42,10 L 42,9 L 43,8 L 44,8 L 46,6 L 46,5 L 47,4 L 47,3 L 45,3 L 44,2 L 44,1 L 42,1 L 41,0 L 40,1 L 38,1 L 37,0 Z" fill="none" stroke="black" stroke-width="1"/>
</svg>