<svg xmlns="http://www.w3.org/2000/svg" width="54" height="46">
  <path d="M 49,0 L 49,1 L 48,2 L 46,2 L 43,5 L 41,5 L 40,6 L 34,6 L 33,7 L 30,7 L 28,9 L 26,9 L 25,10 L 22,10 L 21,11 L 20,11 L 20,13 L 21,14 L 21,18 L 20,19 L 19,19 L 19,20 L 18,21 L 18,22 L 17,23 L 16,23 L 16,24 L 15,25 L 15,26 L 23,26 L 23,24 L 24,23 L 25,23 L 26,24 L 28,24 L 29,23 L 35,23 L 36,22 L 37,22 L 38,21 L 38,20 L 39,19 L 45,19 L 46,20 L 46,21 L 49,21 L 49,20 L 47,18 L 47,17 L 49,15 L 49,11 L 51,9 L 51,8 L 50,7 L 50,5 L 52,3 L 53,3 L 53,2 L 52,2 L 50,0 Z" fill="none" stroke="black" stroke-width="1"/>
</svg>