<svg xmlns="http://www.w3.org/2000/svg" width="72" height="72">
  <path d="M 28,0 L 28,1 L 27,2 L 27,3 L 24,6 L 23,6 L 24,7 L 24,8 L 23,9 L 22,9 L 22,10 L 21,11 L 20,11 L 19,10 L 17,10 L 16,9 L 15,9 L 15,11 L 14,12 L 14,13 L 13,14 L 13,17 L 14,17 L 15,18 L 15,19 L 17,21 L 17,20 L 18,19 L 20,19 L 21,18 L 26,18 L 27,19 L 28,19 L 29,20 L 30,20 L 31,21 L 31,22 L 32,23 L 33,23 L 34,24 L 36,24 L 37,23 L 38,23 L 37,22 L 37,21 L 38,20 L 40,20 L 41,19 L 42,19 L 44,17 L 44,14 L 43,15 L 41,15 L 40,14 L 40,13 L 39,14 L 37,14 L 34,11 L 32,11 L 30,9 L 30,8 L 31,7 L 31,6 L 32,5 L 32,4 L 33,3 L 33,2 L 32,1 L 30,1 L 29,0 Z" fill="none" stroke="black" stroke-width="1"/>
</svg>