<svg xmlns="http://www.w3.org/2000/svg" width="108" height="79">
  <path d="M 27,21 L 26,22 L 22,22 L 21,23 L 20,23 L 19,24 L 19,25 L 16,28 L 15,28 L 16,29 L 16,32 L 17,33 L 17,41 L 18,42 L 20,42 L 21,41 L 22,41 L 23,42 L 23,43 L 24,44 L 24,45 L 23,46 L 25,46 L 26,47 L 28,45 L 28,44 L 30,42 L 31,42 L 32,41 L 40,41 L 41,42 L 47,42 L 48,43 L 50,43 L 50,39 L 48,39 L 47,38 L 46,38 L 45,37 L 45,35 L 43,33 L 42,33 L 39,30 L 39,27 L 38,26 L 38,22 L 37,22 L 36,23 L 33,23 L 32,22 L 30,22 L 29,21 Z" fill="none" stroke="black" stroke-width="1"/>
</svg>