<svg xmlns="http://www.w3.org/2000/svg" width="72" height="49">
  <path d="M 34,19 L 34,22 L 35,23 L 35,28 L 36,29 L 36,33 L 35,34 L 35,35 L 36,35 L 37,36 L 37,38 L 39,38 L 40,39 L 40,40 L 42,40 L 43,41 L 43,48 L 46,45 L 46,44 L 47,43 L 47,39 L 48,38 L 50,38 L 53,35 L 57,35 L 58,36 L 62,36 L 64,38 L 70,38 L 71,37 L 71,35 L 70,34 L 70,30 L 69,29 L 69,27 L 68,27 L 67,26 L 65,26 L 64,25 L 61,25 L 60,24 L 58,24 L 55,27 L 54,27 L 53,28 L 51,28 L 50,27 L 47,27 L 46,26 L 45,26 L 44,25 L 44,24 L 42,22 L 42,20 L 36,20 L 35,19 Z" fill="none" stroke="black" stroke-width="1"/>
</svg>