<svg xmlns="http://www.w3.org/2000/svg" width="108" height="79">
  <path d="M 64,38 L 62,40 L 61,40 L 60,41 L 59,40 L 51,40 L 51,43 L 50,44 L 54,48 L 54,49 L 55,49 L 56,50 L 56,51 L 57,51 L 59,53 L 58,54 L 59,55 L 59,57 L 61,59 L 61,61 L 62,61 L 63,62 L 63,64 L 62,65 L 61,65 L 61,71 L 62,72 L 62,76 L 63,76 L 65,78 L 65,77 L 66,76 L 67,76 L 68,77 L 69,77 L 70,78 L 71,78 L 73,76 L 78,76 L 80,78 L 83,78 L 84,77 L 86,77 L 88,75 L 90,75 L 90,71 L 94,67 L 95,67 L 96,66 L 98,66 L 99,65 L 100,65 L 101,64 L 102,64 L 103,63 L 104,63 L 105,64 L 106,64 L 106,63 L 107,62 L 105,60 L 105,59 L 94,59 L 93,58 L 93,57 L 89,57 L 88,56 L 88,54 L 84,54 L 83,53 L 83,52 L 79,52 L 78,51 L 78,50 L 74,50 L 73,49 L 73,44 L 72,43 L 72,40 L 71,40 L 70,39 L 68,39 L 67,38 Z" fill="none" stroke="black" stroke-width="1"/>
</svg>