<svg xmlns="http://www.w3.org/2000/svg" width="93" height="53">
  <path d="M 62,0 L 60,2 L 59,2 L 57,4 L 56,4 L 55,5 L 52,5 L 51,6 L 46,6 L 45,7 L 43,7 L 42,8 L 42,9 L 41,10 L 41,11 L 40,12 L 39,12 L 38,13 L 37,13 L 36,14 L 35,14 L 35,15 L 36,16 L 36,18 L 37,19 L 37,25 L 39,27 L 39,31 L 38,32 L 38,33 L 39,34 L 42,34 L 43,35 L 49,35 L 50,34 L 51,34 L 51,33 L 52,32 L 52,31 L 53,30 L 53,29 L 54,28 L 55,28 L 56,27 L 56,26 L 57,25 L 57,24 L 58,23 L 59,23 L 61,21 L 62,21 L 63,20 L 65,20 L 66,19 L 67,20 L 68,19 L 69,19 L 70,18 L 71,18 L 71,17 L 70,16 L 70,14 L 73,11 L 73,6 L 71,4 L 70,4 L 69,3 L 68,3 L 67,2 L 66,2 L 65,1 L 64,1 L 63,0 Z" fill="none" stroke="black" stroke-width="1"/>
</svg>