<svg xmlns="http://www.w3.org/2000/svg" width="72" height="41">
  <path d="M 17,0 L 17,1 L 16,2 L 16,5 L 15,6 L 13,6 L 12,7 L 13,8 L 13,9 L 14,10 L 14,12 L 17,12 L 18,13 L 19,13 L 21,15 L 21,16 L 23,18 L 23,20 L 25,22 L 25,24 L 26,24 L 27,25 L 31,25 L 32,24 L 33,24 L 35,22 L 35,21 L 36,20 L 36,18 L 39,15 L 42,15 L 43,16 L 44,16 L 45,15 L 45,14 L 43,12 L 43,11 L 40,8 L 39,8 L 38,9 L 37,9 L 35,7 L 35,5 L 32,5 L 31,6 L 30,6 L 26,2 L 23,2 L 21,0 Z" fill="none" stroke="black" stroke-width="1"/>
</svg>