<svg xmlns="http://www.w3.org/2000/svg" width="137" height="141">
  <path d="M 36,19 L 35,20 L 33,20 L 32,21 L 28,21 L 27,22 L 26,22 L 25,23 L 25,24 L 22,27 L 21,27 L 20,28 L 19,28 L 18,29 L 16,29 L 14,31 L 13,31 L 11,33 L 11,36 L 12,37 L 12,38 L 13,39 L 14,39 L 15,40 L 15,41 L 16,42 L 16,43 L 18,45 L 19,45 L 20,46 L 20,47 L 22,49 L 22,50 L 23,51 L 23,52 L 21,54 L 20,53 L 20,52 L 19,53 L 20,54 L 20,55 L 21,55 L 22,54 L 24,56 L 24,57 L 23,58 L 18,58 L 16,56 L 15,56 L 14,57 L 13,57 L 12,56 L 13,55 L 12,55 L 12,57 L 11,58 L 8,58 L 6,56 L 4,56 L 3,55 L 2,55 L 2,56 L 1,57 L 1,59 L 0,60 L 0,63 L 1,64 L 1,65 L 4,68 L 4,69 L 5,69 L 8,72 L 9,72 L 10,73 L 10,74 L 13,77 L 14,77 L 15,78 L 17,78 L 18,79 L 20,79 L 21,80 L 22,80 L 24,82 L 24,83 L 26,85 L 26,89 L 30,89 L 31,88 L 31,83 L 32,82 L 34,82 L 35,81 L 36,81 L 37,80 L 39,80 L 41,82 L 41,83 L 42,83 L 43,84 L 44,83 L 47,83 L 48,82 L 50,82 L 51,81 L 52,81 L 53,80 L 56,80 L 57,79 L 58,79 L 59,78 L 60,78 L 61,77 L 63,77 L 64,76 L 66,76 L 67,75 L 68,75 L 68,73 L 69,72 L 69,71 L 70,70 L 70,68 L 71,67 L 71,65 L 68,62 L 68,59 L 67,58 L 67,56 L 66,55 L 66,54 L 65,55 L 64,55 L 63,56 L 62,55 L 61,55 L 57,51 L 57,50 L 56,50 L 54,52 L 53,52 L 52,51 L 52,50 L 51,49 L 51,48 L 50,47 L 50,44 L 51,43 L 51,42 L 52,41 L 52,40 L 51,39 L 51,38 L 50,37 L 50,36 L 49,35 L 49,34 L 47,32 L 46,32 L 42,28 L 42,24 L 40,22 L 39,22 L 38,21 L 38,19 Z" fill="none" stroke="black" stroke-width="1"/>
</svg>