<svg xmlns="http://www.w3.org/2000/svg" width="79" height="67">
  <path d="M 17,0 L 16,1 L 14,1 L 13,2 L 12,2 L 11,1 L 9,1 L 9,2 L 6,5 L 5,5 L 2,8 L 2,11 L 3,12 L 3,13 L 0,16 L 0,18 L 1,19 L 5,19 L 11,25 L 11,27 L 14,30 L 14,32 L 15,32 L 18,35 L 18,37 L 19,37 L 20,38 L 23,38 L 24,39 L 24,40 L 26,42 L 26,43 L 29,40 L 30,40 L 30,38 L 31,37 L 32,37 L 33,36 L 33,35 L 34,34 L 36,34 L 37,33 L 37,32 L 36,31 L 36,29 L 32,25 L 32,22 L 34,20 L 34,17 L 33,16 L 33,12 L 32,11 L 32,10 L 31,9 L 31,7 L 30,6 L 28,6 L 25,3 L 24,3 L 23,2 L 21,2 L 19,0 Z" fill="none" stroke="black" stroke-width="1"/>
</svg>