<svg xmlns="http://www.w3.org/2000/svg" width="173" height="118">
  <path d="M 32,33 L 31,34 L 27,34 L 26,35 L 25,35 L 23,37 L 23,38 L 22,39 L 22,40 L 21,41 L 21,42 L 18,45 L 18,46 L 17,47 L 16,47 L 15,48 L 13,48 L 12,49 L 11,49 L 10,50 L 6,50 L 5,51 L 0,51 L 0,56 L 1,57 L 2,57 L 5,60 L 5,62 L 4,63 L 4,70 L 5,71 L 5,72 L 9,72 L 10,73 L 13,73 L 15,75 L 15,76 L 17,76 L 18,75 L 18,73 L 19,72 L 19,70 L 20,69 L 22,69 L 23,70 L 25,70 L 26,71 L 28,71 L 29,70 L 29,66 L 30,65 L 30,64 L 33,61 L 35,61 L 36,60 L 39,60 L 40,59 L 41,59 L 42,58 L 43,58 L 45,56 L 46,56 L 48,54 L 50,54 L 52,52 L 53,52 L 53,49 L 52,48 L 52,46 L 51,45 L 51,41 L 44,41 L 42,39 L 42,38 L 39,35 L 38,35 L 36,33 Z" fill="none" stroke="black" stroke-width="1"/>
</svg>