<svg xmlns="http://www.w3.org/2000/svg" width="183" height="165">
  <path d="M 139,115 L 139,116 L 136,119 L 136,120 L 134,122 L 126,122 L 125,123 L 124,123 L 123,124 L 118,124 L 117,123 L 114,123 L 113,124 L 112,124 L 110,126 L 109,126 L 108,127 L 107,127 L 106,128 L 105,128 L 105,131 L 104,132 L 104,134 L 103,135 L 103,136 L 102,137 L 102,138 L 103,139 L 104,139 L 105,140 L 105,141 L 104,142 L 105,143 L 107,143 L 108,144 L 108,146 L 111,149 L 111,150 L 113,150 L 115,152 L 115,153 L 113,155 L 114,156 L 114,157 L 112,159 L 111,159 L 110,160 L 108,160 L 108,161 L 109,161 L 110,162 L 110,163 L 111,164 L 118,164 L 118,163 L 119,162 L 119,160 L 120,159 L 121,159 L 124,156 L 124,155 L 126,153 L 127,153 L 128,152 L 129,152 L 131,150 L 133,150 L 134,149 L 137,149 L 139,147 L 142,147 L 143,148 L 144,148 L 145,149 L 149,149 L 150,150 L 151,150 L 152,151 L 156,151 L 157,150 L 160,150 L 161,149 L 165,149 L 164,148 L 164,147 L 163,146 L 163,145 L 161,143 L 161,142 L 160,141 L 160,134 L 161,133 L 161,131 L 159,129 L 159,127 L 158,126 L 158,122 L 159,121 L 159,119 L 156,119 L 154,117 L 151,117 L 150,116 L 148,116 L 147,115 Z" fill="none" stroke="black" stroke-width="1"/>
</svg>