<svg xmlns="http://www.w3.org/2000/svg" width="119" height="77">
  <path d="M 98,44 L 96,46 L 92,46 L 91,47 L 90,47 L 89,46 L 88,46 L 86,48 L 85,48 L 83,50 L 83,51 L 84,51 L 85,50 L 86,50 L 87,51 L 87,52 L 88,53 L 88,54 L 87,55 L 87,56 L 86,57 L 85,57 L 83,59 L 82,59 L 80,61 L 80,63 L 81,64 L 81,68 L 82,69 L 82,72 L 83,73 L 83,74 L 85,76 L 87,76 L 91,72 L 94,72 L 95,71 L 95,70 L 96,69 L 96,68 L 97,67 L 97,66 L 99,64 L 100,64 L 101,65 L 102,65 L 103,66 L 104,66 L 105,67 L 108,67 L 108,66 L 110,64 L 112,64 L 112,63 L 110,61 L 110,60 L 109,59 L 109,52 L 110,51 L 110,50 L 109,50 L 108,49 L 107,49 L 106,48 L 105,48 L 104,47 L 103,47 L 102,46 L 100,46 Z" fill="none" stroke="black" stroke-width="1"/>
</svg>