<svg xmlns="http://www.w3.org/2000/svg" width="59" height="95">
  <path d="M 21,38 L 17,42 L 17,44 L 16,45 L 15,45 L 14,44 L 13,44 L 12,43 L 10,43 L 9,44 L 8,44 L 8,45 L 10,47 L 10,52 L 9,53 L 9,54 L 8,55 L 8,56 L 9,56 L 11,58 L 11,60 L 12,60 L 15,63 L 17,61 L 21,61 L 23,63 L 23,64 L 24,64 L 25,65 L 26,65 L 28,63 L 30,63 L 31,64 L 31,65 L 35,65 L 36,64 L 36,61 L 35,60 L 35,59 L 34,58 L 34,55 L 32,53 L 32,52 L 30,50 L 30,48 L 29,47 L 29,46 L 28,45 L 28,44 L 27,43 L 27,42 L 25,40 L 25,38 Z" fill="none" stroke="black" stroke-width="1"/>
</svg>