<svg xmlns="http://www.w3.org/2000/svg" width="96" height="66">
  <path d="M 81,21 L 79,23 L 78,23 L 77,22 L 76,22 L 76,23 L 78,25 L 76,27 L 77,28 L 75,30 L 74,30 L 73,31 L 70,31 L 68,29 L 68,28 L 67,29 L 62,29 L 61,30 L 60,30 L 60,31 L 59,32 L 58,32 L 59,33 L 58,34 L 54,34 L 54,36 L 55,37 L 55,45 L 56,45 L 59,48 L 64,48 L 66,50 L 67,50 L 68,49 L 70,49 L 70,48 L 71,47 L 72,47 L 72,44 L 73,43 L 73,42 L 75,40 L 76,40 L 78,38 L 79,38 L 80,37 L 81,37 L 82,36 L 84,36 L 84,35 L 83,34 L 83,33 L 82,32 L 82,31 L 83,30 L 84,30 L 85,31 L 86,31 L 87,30 L 91,30 L 91,29 L 92,28 L 94,28 L 94,27 L 95,26 L 95,23 L 94,23 L 92,21 L 91,22 L 85,22 L 84,21 Z" fill="none" stroke="black" stroke-width="1"/>
</svg>