<svg xmlns="http://www.w3.org/2000/svg" width="117" height="110">
  <path d="M 83,0 L 82,1 L 81,1 L 75,7 L 66,7 L 65,6 L 63,6 L 62,5 L 59,5 L 58,4 L 55,4 L 54,5 L 53,5 L 52,6 L 51,6 L 49,8 L 48,8 L 46,10 L 45,10 L 45,11 L 44,12 L 42,12 L 41,13 L 40,13 L 39,14 L 37,14 L 33,18 L 32,18 L 31,19 L 30,19 L 30,24 L 31,24 L 32,25 L 33,25 L 34,26 L 34,27 L 35,28 L 35,31 L 36,32 L 36,34 L 38,34 L 39,35 L 41,35 L 42,36 L 45,36 L 46,37 L 47,37 L 50,40 L 50,41 L 52,43 L 52,45 L 53,46 L 53,47 L 54,47 L 55,48 L 55,53 L 56,54 L 56,57 L 57,58 L 57,70 L 58,71 L 58,76 L 59,77 L 59,78 L 60,79 L 66,79 L 69,76 L 69,75 L 72,72 L 78,72 L 78,67 L 76,65 L 75,65 L 73,63 L 73,62 L 74,61 L 77,61 L 78,60 L 78,58 L 79,57 L 87,57 L 88,58 L 91,55 L 91,54 L 90,53 L 90,52 L 89,51 L 89,49 L 90,48 L 88,48 L 87,49 L 86,48 L 85,48 L 84,47 L 84,46 L 85,45 L 85,43 L 86,42 L 86,29 L 87,28 L 89,28 L 90,27 L 91,27 L 93,29 L 94,29 L 94,28 L 95,27 L 95,22 L 94,21 L 94,20 L 93,19 L 93,18 L 91,16 L 91,15 L 89,13 L 89,12 L 87,10 L 87,9 L 86,8 L 86,7 L 85,6 L 85,5 L 86,4 L 87,4 Z" fill="none" stroke="black" stroke-width="1"/>
</svg>