<svg xmlns="http://www.w3.org/2000/svg" width="261" height="141">
  <path d="M 253,0 L 252,1 L 247,1 L 246,2 L 242,2 L 241,3 L 235,3 L 234,4 L 229,4 L 228,5 L 223,5 L 222,6 L 217,6 L 216,7 L 215,6 L 214,6 L 213,5 L 212,5 L 211,4 L 209,4 L 208,5 L 203,5 L 202,6 L 197,6 L 196,7 L 191,7 L 190,8 L 189,8 L 188,9 L 187,9 L 187,10 L 186,11 L 185,11 L 184,12 L 182,12 L 181,13 L 178,13 L 178,14 L 179,15 L 179,17 L 180,18 L 180,20 L 181,21 L 181,23 L 182,24 L 182,25 L 183,26 L 183,28 L 184,29 L 184,31 L 185,32 L 185,43 L 187,43 L 188,44 L 192,44 L 195,47 L 195,49 L 196,50 L 196,51 L 195,52 L 195,54 L 196,55 L 196,63 L 195,64 L 195,65 L 187,73 L 187,74 L 186,75 L 186,77 L 185,78 L 185,80 L 184,81 L 184,83 L 185,83 L 186,84 L 189,84 L 190,85 L 192,85 L 193,86 L 202,86 L 208,80 L 209,80 L 210,79 L 214,83 L 217,83 L 218,84 L 224,84 L 225,83 L 228,83 L 229,82 L 230,82 L 232,80 L 233,80 L 234,79 L 235,79 L 236,78 L 237,78 L 238,77 L 239,77 L 240,76 L 243,76 L 244,75 L 247,75 L 248,74 L 249,74 L 251,72 L 251,70 L 252,69 L 252,68 L 253,67 L 253,58 L 252,57 L 252,53 L 251,52 L 251,51 L 250,50 L 250,49 L 249,48 L 249,47 L 248,46 L 248,40 L 247,39 L 247,38 L 246,37 L 246,36 L 245,35 L 245,27 L 246,26 L 246,25 L 248,23 L 248,22 L 250,20 L 250,19 L 251,18 L 251,12 L 250,11 L 250,10 L 251,9 L 251,7 L 254,4 L 254,3 L 255,2 L 255,1 L 256,0 Z" fill="none" stroke="black" stroke-width="1"/>
</svg>