<svg xmlns="http://www.w3.org/2000/svg" width="261" height="141">
  <path d="M 159,9 L 158,10 L 153,10 L 152,11 L 147,11 L 146,12 L 141,12 L 139,14 L 138,14 L 135,17 L 135,22 L 136,23 L 136,27 L 135,28 L 135,31 L 133,33 L 133,34 L 132,35 L 132,37 L 131,38 L 131,41 L 130,42 L 130,43 L 127,46 L 127,54 L 129,56 L 129,58 L 131,58 L 134,61 L 134,71 L 135,72 L 135,73 L 138,76 L 138,80 L 136,82 L 136,83 L 138,85 L 138,88 L 140,88 L 141,89 L 145,89 L 146,90 L 146,91 L 148,93 L 151,93 L 154,96 L 154,97 L 155,97 L 156,98 L 158,98 L 159,97 L 160,97 L 164,93 L 166,93 L 167,92 L 168,92 L 169,91 L 171,91 L 171,90 L 172,89 L 173,89 L 175,87 L 176,87 L 178,85 L 179,85 L 180,84 L 181,84 L 182,83 L 183,83 L 183,81 L 184,80 L 184,78 L 185,77 L 185,75 L 186,74 L 186,73 L 194,65 L 194,64 L 195,63 L 195,55 L 194,54 L 194,52 L 195,51 L 195,50 L 194,49 L 194,47 L 192,45 L 188,45 L 187,44 L 185,44 L 184,43 L 184,32 L 183,31 L 183,29 L 182,28 L 182,26 L 181,25 L 181,24 L 180,23 L 180,21 L 179,20 L 179,18 L 178,17 L 178,15 L 177,14 L 177,13 L 176,13 L 175,12 L 174,13 L 173,12 L 171,12 L 170,11 L 168,11 L 167,12 L 165,12 L 164,11 L 163,11 L 162,10 L 160,10 Z" fill="none" stroke="black" stroke-width="1"/>
</svg>