<svg xmlns="http://www.w3.org/2000/svg" width="180" height="137">
  <path d="M 16,61 L 15,62 L 13,62 L 12,63 L 11,63 L 11,64 L 6,69 L 6,71 L 7,72 L 7,77 L 6,78 L 6,80 L 5,81 L 5,82 L 4,83 L 4,84 L 3,85 L 3,86 L 2,87 L 2,89 L 1,90 L 1,91 L 0,92 L 1,93 L 1,96 L 0,97 L 0,98 L 1,98 L 3,100 L 5,100 L 6,101 L 9,101 L 10,102 L 10,103 L 11,104 L 11,105 L 12,106 L 12,114 L 15,114 L 16,113 L 17,114 L 18,114 L 19,115 L 19,116 L 18,117 L 17,117 L 17,118 L 24,118 L 24,117 L 23,116 L 25,114 L 29,114 L 31,112 L 33,112 L 34,113 L 34,114 L 35,115 L 35,117 L 36,118 L 38,118 L 39,119 L 44,119 L 45,118 L 47,118 L 48,117 L 49,117 L 50,118 L 56,118 L 57,117 L 59,117 L 59,115 L 58,114 L 58,113 L 57,112 L 57,106 L 56,105 L 56,104 L 55,104 L 53,102 L 53,100 L 52,99 L 52,96 L 53,95 L 53,89 L 52,88 L 52,87 L 50,85 L 50,83 L 49,82 L 50,81 L 49,80 L 49,77 L 48,76 L 48,72 L 47,71 L 47,70 L 46,69 L 46,68 L 45,68 L 44,67 L 44,66 L 42,66 L 41,65 L 40,65 L 39,64 L 36,64 L 35,63 L 28,63 L 27,62 L 23,62 L 22,61 Z" fill="none" stroke="black" stroke-width="1"/>
</svg>