<svg xmlns="http://www.w3.org/2000/svg" width="180" height="137">
  <path d="M 145,79 L 144,80 L 143,80 L 141,82 L 141,83 L 140,84 L 139,84 L 139,85 L 138,86 L 138,88 L 137,89 L 137,92 L 138,93 L 138,95 L 140,97 L 140,99 L 139,100 L 139,101 L 136,104 L 136,106 L 135,107 L 135,111 L 134,112 L 133,112 L 133,119 L 134,120 L 134,124 L 133,125 L 130,125 L 129,126 L 130,126 L 131,127 L 131,131 L 132,132 L 133,132 L 135,134 L 136,134 L 137,135 L 144,135 L 145,136 L 148,136 L 150,134 L 150,133 L 152,131 L 154,131 L 155,132 L 155,133 L 156,134 L 158,134 L 159,135 L 164,135 L 165,134 L 168,134 L 169,133 L 171,133 L 172,132 L 174,132 L 174,131 L 175,130 L 175,125 L 176,124 L 176,123 L 177,122 L 176,121 L 176,111 L 175,110 L 175,103 L 176,102 L 177,102 L 177,101 L 178,100 L 178,99 L 179,98 L 179,95 L 178,94 L 178,93 L 177,93 L 176,92 L 173,92 L 172,91 L 170,91 L 169,90 L 168,90 L 166,88 L 165,88 L 164,87 L 163,87 L 161,85 L 161,83 L 158,80 L 152,80 L 151,79 Z" fill="none" stroke="black" stroke-width="1"/>
</svg>