<svg xmlns="http://www.w3.org/2000/svg" width="101" height="62">
  <path d="M 34,14 L 31,17 L 30,17 L 30,19 L 28,21 L 27,21 L 26,22 L 25,22 L 24,23 L 22,23 L 21,24 L 20,24 L 20,25 L 17,28 L 16,27 L 16,26 L 15,25 L 14,25 L 13,24 L 12,24 L 10,22 L 5,22 L 3,24 L 2,24 L 1,25 L 1,28 L 0,29 L 0,31 L 1,32 L 3,32 L 4,33 L 4,34 L 6,36 L 7,36 L 9,34 L 10,34 L 12,36 L 12,38 L 11,39 L 11,41 L 13,43 L 13,46 L 14,46 L 16,48 L 17,48 L 18,49 L 20,49 L 21,50 L 29,50 L 29,48 L 31,46 L 33,46 L 33,44 L 34,43 L 35,43 L 36,42 L 40,42 L 41,41 L 43,41 L 45,39 L 46,39 L 46,37 L 48,35 L 49,35 L 51,33 L 52,33 L 53,32 L 51,30 L 51,29 L 49,27 L 51,25 L 51,24 L 52,23 L 53,23 L 53,20 L 52,19 L 50,19 L 49,20 L 47,18 L 45,18 L 43,16 L 44,15 L 44,14 Z" fill="none" stroke="black" stroke-width="1"/>
</svg>