<svg xmlns="http://www.w3.org/2000/svg" width="97" height="43">
  <path d="M 51,6 L 48,9 L 46,9 L 45,10 L 44,10 L 43,11 L 40,11 L 40,12 L 38,14 L 37,14 L 37,16 L 36,17 L 36,21 L 35,22 L 35,24 L 37,26 L 40,26 L 42,24 L 43,24 L 46,27 L 49,27 L 51,29 L 51,32 L 50,33 L 51,34 L 51,38 L 52,39 L 56,39 L 57,40 L 58,40 L 59,41 L 64,41 L 65,40 L 64,39 L 64,35 L 65,34 L 68,34 L 69,35 L 70,35 L 71,34 L 73,34 L 74,33 L 76,33 L 78,31 L 79,31 L 81,29 L 81,27 L 80,26 L 81,25 L 82,25 L 81,24 L 82,23 L 83,23 L 85,21 L 86,21 L 87,20 L 89,20 L 89,19 L 92,16 L 94,16 L 95,15 L 96,15 L 95,15 L 93,13 L 89,13 L 88,12 L 82,12 L 80,10 L 80,9 L 79,8 L 76,8 L 75,9 L 65,9 L 64,10 L 60,10 L 59,9 L 59,6 Z" fill="none" stroke="black" stroke-width="1"/>
</svg>