<svg xmlns="http://www.w3.org/2000/svg" width="180" height="138">
  <path d="M 128,97 L 126,99 L 124,99 L 123,100 L 122,100 L 121,99 L 120,99 L 120,101 L 119,102 L 119,103 L 118,104 L 118,105 L 111,112 L 109,112 L 108,113 L 105,113 L 104,114 L 103,113 L 99,113 L 98,112 L 87,112 L 86,113 L 83,113 L 82,112 L 79,112 L 79,114 L 81,116 L 81,118 L 84,121 L 84,122 L 85,123 L 85,125 L 86,125 L 87,124 L 88,125 L 99,125 L 100,126 L 100,128 L 101,129 L 101,132 L 102,132 L 103,133 L 103,134 L 104,134 L 105,135 L 105,137 L 106,137 L 107,136 L 109,136 L 110,135 L 117,135 L 118,134 L 120,134 L 127,127 L 128,127 L 129,126 L 130,126 L 131,125 L 141,125 L 142,124 L 145,124 L 146,123 L 148,123 L 149,122 L 150,122 L 150,121 L 152,119 L 153,119 L 154,118 L 155,118 L 156,117 L 160,117 L 159,116 L 158,116 L 155,113 L 155,112 L 153,110 L 153,108 L 152,107 L 152,104 L 149,104 L 148,103 L 145,103 L 144,102 L 140,102 L 138,100 L 136,100 L 134,98 L 131,98 L 130,97 Z" fill="none" stroke="black" stroke-width="1"/>
</svg>