<svg xmlns="http://www.w3.org/2000/svg" width="109" height="131">
  <path d="M 10,0 L 10,1 L 8,3 L 8,4 L 6,6 L 3,6 L 5,8 L 5,9 L 4,10 L 4,11 L 5,11 L 8,14 L 8,16 L 9,17 L 9,18 L 10,18 L 12,20 L 12,21 L 16,21 L 17,22 L 17,24 L 18,24 L 19,25 L 18,26 L 17,26 L 15,28 L 14,28 L 13,29 L 12,29 L 11,30 L 10,30 L 8,32 L 6,32 L 5,33 L 6,34 L 7,34 L 8,35 L 7,36 L 7,37 L 4,40 L 3,40 L 2,39 L 2,41 L 1,42 L 0,42 L 2,44 L 4,44 L 9,49 L 9,50 L 13,54 L 14,54 L 15,55 L 22,55 L 23,54 L 28,54 L 29,53 L 41,53 L 42,54 L 49,54 L 51,56 L 53,56 L 54,55 L 56,55 L 57,54 L 58,54 L 59,53 L 61,53 L 63,55 L 63,56 L 64,56 L 65,57 L 65,58 L 66,59 L 67,59 L 68,60 L 69,60 L 70,61 L 72,61 L 73,60 L 72,59 L 72,57 L 73,56 L 75,56 L 75,54 L 74,53 L 74,45 L 73,44 L 73,43 L 72,43 L 70,41 L 70,40 L 69,40 L 68,39 L 68,37 L 67,36 L 67,33 L 66,32 L 65,32 L 64,31 L 60,31 L 59,30 L 57,30 L 55,28 L 55,27 L 54,26 L 54,24 L 53,24 L 51,22 L 50,22 L 49,21 L 48,21 L 46,19 L 46,14 L 45,13 L 44,13 L 43,12 L 43,10 L 44,9 L 43,8 L 43,7 L 39,7 L 37,9 L 33,9 L 32,8 L 26,8 L 25,9 L 21,9 L 20,8 L 19,8 L 17,6 L 18,5 L 18,1 L 12,1 L 11,0 Z" fill="none" stroke="black" stroke-width="1"/>
</svg>