<svg xmlns="http://www.w3.org/2000/svg" width="109" height="87">
  <path d="M 83,13 L 81,15 L 75,15 L 75,17 L 74,18 L 74,24 L 72,26 L 72,27 L 67,32 L 67,38 L 65,40 L 65,42 L 69,42 L 70,43 L 70,46 L 71,47 L 71,49 L 73,51 L 73,52 L 74,53 L 74,54 L 75,55 L 75,56 L 77,56 L 78,57 L 77,58 L 77,65 L 76,66 L 76,69 L 75,70 L 75,73 L 77,75 L 77,76 L 78,75 L 79,75 L 80,74 L 82,74 L 82,73 L 84,71 L 87,71 L 89,69 L 92,69 L 93,68 L 94,68 L 95,67 L 95,66 L 96,65 L 97,65 L 97,64 L 98,63 L 98,62 L 99,61 L 98,60 L 98,54 L 99,53 L 99,48 L 102,45 L 102,43 L 101,42 L 101,38 L 102,37 L 103,37 L 104,38 L 105,37 L 105,35 L 106,34 L 106,33 L 107,32 L 107,30 L 108,29 L 105,29 L 104,28 L 102,28 L 101,27 L 101,25 L 99,25 L 98,24 L 97,24 L 96,23 L 96,21 L 95,20 L 95,17 L 94,17 L 91,14 L 89,14 L 88,13 Z" fill="none" stroke="black" stroke-width="1"/>
</svg>