<svg xmlns="http://www.w3.org/2000/svg" width="117" height="110">
  <path d="M 5,59 L 5,64 L 6,65 L 6,68 L 2,72 L 2,76 L 0,78 L 6,84 L 6,85 L 7,86 L 7,100 L 8,101 L 8,103 L 11,106 L 11,107 L 12,108 L 13,108 L 14,107 L 15,107 L 17,109 L 18,109 L 20,107 L 24,107 L 25,108 L 26,108 L 26,105 L 27,104 L 27,103 L 28,102 L 30,102 L 31,103 L 34,103 L 35,104 L 38,104 L 39,105 L 47,105 L 47,102 L 49,100 L 52,100 L 53,101 L 55,101 L 55,100 L 56,99 L 56,97 L 55,96 L 54,96 L 51,93 L 51,92 L 50,92 L 49,91 L 49,89 L 48,89 L 47,88 L 47,87 L 45,85 L 41,85 L 40,84 L 38,84 L 35,81 L 34,81 L 33,80 L 31,80 L 30,79 L 28,79 L 27,78 L 27,77 L 26,76 L 26,72 L 27,71 L 28,71 L 28,70 L 27,69 L 25,69 L 24,68 L 23,68 L 22,67 L 22,66 L 20,64 L 20,63 L 19,63 L 17,61 L 15,61 L 14,60 L 14,59 L 12,59 L 10,61 L 7,61 L 6,60 L 6,59 Z" fill="none" stroke="black" stroke-width="1"/>
</svg>