<svg xmlns="http://www.w3.org/2000/svg" width="133" height="116">
  <path d="M 86,37 L 85,38 L 84,38 L 83,39 L 81,39 L 80,40 L 77,40 L 74,43 L 73,43 L 72,44 L 68,44 L 67,45 L 65,45 L 64,46 L 60,46 L 59,45 L 58,45 L 57,44 L 56,44 L 55,43 L 53,43 L 53,45 L 50,48 L 50,51 L 49,52 L 49,59 L 52,62 L 53,62 L 55,64 L 56,64 L 57,65 L 58,65 L 59,66 L 61,66 L 62,67 L 63,67 L 64,68 L 65,68 L 66,69 L 68,69 L 69,70 L 71,70 L 73,68 L 74,68 L 75,67 L 75,66 L 76,65 L 76,64 L 78,62 L 79,62 L 80,61 L 89,61 L 92,58 L 93,58 L 94,57 L 95,57 L 96,56 L 96,54 L 98,52 L 100,52 L 99,51 L 99,50 L 98,49 L 98,48 L 97,47 L 97,46 L 96,45 L 96,39 L 94,39 L 93,38 L 88,38 L 87,37 Z" fill="none" stroke="black" stroke-width="1"/>
</svg>