<svg xmlns="http://www.w3.org/2000/svg" width="104" height="44">
  <path d="M 82,15 L 81,16 L 81,17 L 80,18 L 77,18 L 77,23 L 76,24 L 72,24 L 72,28 L 71,29 L 61,29 L 60,30 L 52,30 L 52,31 L 53,31 L 54,32 L 52,34 L 51,34 L 50,35 L 47,35 L 46,34 L 41,34 L 40,33 L 39,34 L 38,34 L 44,34 L 46,36 L 45,37 L 42,37 L 41,38 L 45,38 L 46,39 L 47,39 L 49,41 L 51,41 L 52,42 L 53,41 L 61,41 L 62,40 L 64,40 L 65,41 L 66,41 L 67,42 L 68,42 L 68,41 L 69,40 L 70,40 L 72,38 L 75,41 L 77,41 L 77,39 L 78,38 L 79,38 L 80,39 L 80,40 L 84,40 L 85,41 L 85,42 L 85,41 L 86,40 L 89,40 L 91,38 L 92,38 L 95,35 L 96,36 L 97,36 L 99,34 L 101,34 L 102,33 L 102,32 L 103,31 L 103,26 L 102,26 L 99,23 L 98,23 L 96,21 L 96,16 L 95,15 L 94,16 L 88,16 L 87,15 Z" fill="none" stroke="black" stroke-width="1"/>
</svg>