<svg xmlns="http://www.w3.org/2000/svg" width="371" height="206">
  <path d="M 369,183 L 366,186 L 365,186 L 364,187 L 364,190 L 362,192 L 361,191 L 361,189 L 360,189 L 359,190 L 358,190 L 357,191 L 357,192 L 360,192 L 361,193 L 361,194 L 360,195 L 356,195 L 356,197 L 357,197 L 358,198 L 358,199 L 359,199 L 361,197 L 362,198 L 362,202 L 360,204 L 360,205 L 363,205 L 363,197 L 364,196 L 364,195 L 365,194 L 365,193 L 364,192 L 366,190 L 367,190 L 367,189 L 366,188 L 367,187 L 369,187 L 370,186 L 370,183 Z" fill="none" stroke="black" stroke-width="1"/>
</svg>