<svg xmlns="http://www.w3.org/2000/svg" width="371" height="206">
  <path d="M 274,165 L 274,166 L 275,167 L 275,168 L 276,168 L 277,169 L 277,170 L 278,170 L 278,166 L 277,166 L 276,165 Z" fill="none" stroke="black" stroke-width="1"/>
  <path d="M 273,158 L 273,159 L 275,159 L 276,160 L 277,160 L 278,161 L 279,161 L 279,159 L 276,159 L 275,158 Z" fill="none" stroke="black" stroke-width="1"/>
  <path d="M 273,146 L 273,150 L 272,151 L 271,150 L 271,149 L 270,149 L 269,150 L 270,151 L 269,152 L 265,152 L 268,155 L 268,154 L 269,153 L 270,154 L 270,155 L 271,155 L 271,153 L 272,152 L 273,153 L 273,154 L 274,155 L 275,155 L 277,157 L 278,157 L 279,156 L 278,155 L 277,155 L 275,153 L 276,152 L 279,152 L 280,151 L 282,151 L 282,149 L 281,148 L 281,147 L 280,147 L 280,151 L 279,152 L 274,147 L 274,146 Z" fill="none" stroke="black" stroke-width="1"/>
</svg>