<svg xmlns="http://www.w3.org/2000/svg" width="60" height="44">
  <path d="M 34,16 L 33,17 L 31,17 L 31,20 L 30,21 L 28,19 L 26,21 L 25,21 L 24,22 L 24,23 L 25,24 L 25,25 L 27,27 L 27,28 L 28,29 L 28,32 L 27,33 L 26,32 L 24,34 L 23,34 L 21,36 L 20,36 L 20,39 L 22,41 L 21,42 L 21,43 L 23,43 L 24,42 L 28,42 L 28,41 L 29,40 L 30,40 L 31,39 L 35,39 L 37,41 L 38,41 L 39,40 L 40,40 L 40,39 L 41,38 L 42,38 L 42,36 L 43,35 L 44,35 L 45,36 L 46,36 L 48,34 L 47,33 L 48,32 L 48,31 L 47,31 L 45,29 L 44,29 L 41,26 L 42,25 L 42,24 L 43,23 L 43,20 L 42,19 L 42,18 L 41,18 L 40,19 L 39,19 L 37,17 L 36,17 L 35,16 Z" fill="none" stroke="black" stroke-width="1"/>
</svg>