<svg xmlns="http://www.w3.org/2000/svg" width="84" height="38">
  <path d="M 20,33 L 20,34 L 19,35 L 17,35 L 18,36 L 19,36 L 20,37 L 24,37 L 24,36 L 23,36 L 21,34 L 21,33 Z" fill="none" stroke="black" stroke-width="1"/>
  <path d="M 30,26 L 30,27 L 32,29 L 32,33 L 33,34 L 34,33 L 34,31 L 35,30 L 35,27 L 33,27 L 32,26 Z" fill="none" stroke="black" stroke-width="1"/>
  <path d="M 20,26 L 19,27 L 19,29 L 20,30 L 22,30 L 24,32 L 29,32 L 29,31 L 27,29 L 26,29 L 25,28 L 24,28 L 22,26 Z" fill="none" stroke="black" stroke-width="1"/>
</svg>