<svg xmlns="http://www.w3.org/2000/svg" width="48" height="54">
  <path d="M 27,16 L 26,17 L 23,17 L 22,18 L 19,18 L 18,19 L 16,19 L 16,20 L 17,21 L 17,22 L 19,24 L 19,26 L 18,27 L 17,26 L 17,25 L 16,25 L 14,23 L 14,21 L 13,21 L 9,25 L 9,26 L 10,27 L 10,28 L 9,29 L 9,30 L 10,31 L 10,32 L 11,33 L 12,33 L 13,34 L 17,34 L 18,33 L 19,33 L 20,34 L 21,34 L 23,32 L 26,32 L 26,30 L 27,29 L 26,28 L 25,28 L 24,27 L 26,25 L 27,25 L 28,24 L 30,24 L 30,23 L 31,22 L 33,22 L 33,19 L 32,18 L 32,17 L 30,17 L 29,16 Z" fill="none" stroke="black" stroke-width="1"/>
  <path d="M 46,9 L 45,10 L 43,10 L 44,11 L 45,11 L 47,9 Z" fill="none" stroke="black" stroke-width="1"/>
  <path d="M 37,0 L 35,2 L 34,2 L 33,3 L 29,3 L 25,7 L 25,8 L 24,9 L 24,10 L 21,13 L 19,13 L 18,14 L 15,14 L 14,13 L 13,14 L 12,14 L 11,15 L 9,15 L 8,14 L 3,19 L 3,20 L 2,21 L 2,23 L 3,23 L 4,24 L 5,24 L 6,25 L 7,25 L 6,24 L 5,24 L 4,23 L 5,22 L 8,22 L 11,19 L 11,17 L 12,16 L 13,16 L 14,15 L 16,15 L 17,16 L 18,16 L 19,15 L 21,15 L 22,14 L 30,14 L 31,15 L 33,15 L 34,16 L 34,15 L 35,14 L 35,12 L 36,11 L 37,11 L 37,7 L 36,6 L 36,5 L 35,4 L 35,3 L 38,0 Z" fill="none" stroke="black" stroke-width="1"/>
</svg>