<svg xmlns="http://www.w3.org/2000/svg" width="337" height="334">
  <path d="M 288,332 L 289,333 L 289,332 Z" fill="none" stroke="black" stroke-width="1"/>
  <path d="M 294,312 L 295,313 L 295,314 L 297,316 L 298,315 L 299,315 L 299,314 L 298,313 L 297,313 L 296,312 Z" fill="none" stroke="black" stroke-width="1"/>
  <path d="M 282,301 L 284,301 L 285,302 L 282,305 L 283,306 L 284,306 L 285,307 L 286,307 L 287,308 L 288,307 L 288,306 L 285,303 L 285,301 Z" fill="none" stroke="black" stroke-width="1"/>
  <path d="M 235,291 L 235,292 L 237,294 L 237,296 L 240,299 L 240,300 L 241,301 L 241,302 L 242,303 L 243,303 L 246,306 L 247,306 L 248,307 L 248,309 L 249,310 L 250,310 L 255,315 L 257,315 L 259,317 L 261,317 L 264,320 L 267,320 L 268,321 L 268,323 L 269,324 L 270,324 L 272,326 L 275,326 L 277,328 L 278,328 L 279,327 L 281,327 L 281,325 L 278,322 L 277,322 L 276,321 L 275,321 L 270,316 L 269,316 L 266,313 L 265,313 L 263,311 L 261,311 L 259,309 L 259,308 L 258,308 L 254,304 L 254,302 L 252,302 L 251,301 L 250,301 L 249,300 L 248,300 L 247,299 L 247,298 L 246,298 L 243,295 L 242,295 L 240,293 L 240,294 L 239,295 Z" fill="none" stroke="black" stroke-width="1"/>
</svg>