<svg xmlns="http://www.w3.org/2000/svg" width="671" height="155">
  <path d="M 62,54 L 62,55 L 65,58 L 65,60 L 66,60 L 67,59 L 67,57 L 66,56 L 66,55 L 65,55 L 64,54 Z" fill="none" stroke="black" stroke-width="1"/>
  <path d="M 75,52 L 75,56 L 76,56 L 79,59 L 84,59 L 85,60 L 85,61 L 86,62 L 89,62 L 89,61 L 88,60 L 88,59 L 87,59 L 85,57 L 85,55 L 81,55 L 80,54 L 79,54 L 77,52 Z" fill="none" stroke="black" stroke-width="1"/>
  <path d="M 80,41 L 80,44 L 81,45 L 81,46 L 82,47 L 82,48 L 83,48 L 84,49 L 85,49 L 85,47 L 84,46 L 84,43 L 82,41 Z" fill="none" stroke="black" stroke-width="1"/>
  <path d="M 11,40 L 11,41 L 13,43 L 13,44 L 15,44 L 16,45 L 18,45 L 18,43 L 17,43 L 16,42 L 16,40 Z" fill="none" stroke="black" stroke-width="1"/>
  <path d="M 51,39 L 51,41 L 53,43 L 53,46 L 54,46 L 54,41 L 52,39 Z" fill="none" stroke="black" stroke-width="1"/>
  <path d="M 44,38 L 44,39 L 46,41 L 49,41 L 49,38 Z" fill="none" stroke="black" stroke-width="1"/>
  <path d="M 0,36 L 0,40 L 1,40 L 2,41 L 4,41 L 4,39 L 2,37 L 2,36 Z" fill="none" stroke="black" stroke-width="1"/>
  <path d="M 40,33 L 40,35 L 38,37 L 38,40 L 40,40 L 40,39 L 41,38 L 41,33 Z" fill="none" stroke="black" stroke-width="1"/>
  <path d="M 47,28 L 47,30 L 46,31 L 45,31 L 45,35 L 47,35 L 48,34 L 48,28 Z" fill="none" stroke="black" stroke-width="1"/>
  <path d="M 6,23 L 5,24 L 5,25 L 4,26 L 4,27 L 5,28 L 5,29 L 6,30 L 7,30 L 7,23 Z" fill="none" stroke="black" stroke-width="1"/>
</svg>