<svg xmlns="http://www.w3.org/2000/svg" width="466" height="341">
  <path d="M 268,332 L 267,333 L 266,333 L 264,335 L 264,336 L 263,337 L 263,338 L 265,340 L 279,340 L 280,339 L 280,338 L 278,336 L 276,336 L 275,335 L 274,335 L 273,334 L 272,334 L 271,333 L 270,333 L 269,332 Z" fill="none" stroke="black" stroke-width="1"/>
  <path d="M 307,316 L 306,317 L 304,317 L 297,324 L 296,324 L 295,325 L 294,325 L 293,326 L 292,326 L 292,327 L 291,328 L 290,327 L 290,328 L 289,329 L 289,331 L 290,332 L 291,332 L 292,333 L 293,333 L 294,334 L 295,334 L 296,333 L 297,333 L 301,329 L 303,329 L 304,330 L 306,330 L 307,329 L 307,328 L 308,327 L 308,326 L 309,325 L 309,323 L 310,322 L 310,318 L 308,316 Z" fill="none" stroke="black" stroke-width="1"/>
  <path d="M 299,293 L 299,295 L 298,296 L 298,297 L 297,298 L 295,296 L 294,296 L 294,299 L 295,299 L 296,300 L 298,300 L 299,299 L 299,298 L 300,297 L 300,296 L 301,295 L 301,293 Z" fill="none" stroke="black" stroke-width="1"/>
  <path d="M 303,285 L 303,286 L 304,286 L 304,285 Z" fill="none" stroke="black" stroke-width="1"/>
  <path d="M 307,282 L 307,284 L 308,284 L 308,282 Z" fill="none" stroke="black" stroke-width="1"/>
  <path d="M 308,278 L 308,280 L 309,280 L 309,278 Z" fill="none" stroke="black" stroke-width="1"/>
  <path d="M 303,277 L 303,279 L 304,279 L 304,277 Z" fill="none" stroke="black" stroke-width="1"/>
  <path d="M 309,275 L 309,276 L 310,276 L 310,275 Z" fill="none" stroke="black" stroke-width="1"/>
  <path d="M 306,274 L 306,275 L 307,276 L 307,274 Z" fill="none" stroke="black" stroke-width="1"/>
  <path d="M 309,271 L 309,273 L 310,273 L 310,271 Z" fill="none" stroke="black" stroke-width="1"/>
  <path d="M 315,254 L 313,256 L 313,257 L 314,257 L 315,256 L 316,256 L 317,255 L 317,254 Z" fill="none" stroke="black" stroke-width="1"/>
  <path d="M 312,247 L 312,248 L 313,248 L 313,247 Z" fill="none" stroke="black" stroke-width="1"/>
</svg>