<svg xmlns="http://www.w3.org/2000/svg" width="466" height="341">
  <path d="M 202,103 L 202,105 L 203,106 L 203,107 L 204,108 L 205,108 L 205,103 Z" fill="none" stroke="black" stroke-width="1"/>
  <path d="M 191,90 L 190,91 L 189,91 L 189,97 L 191,97 L 191,94 L 192,93 L 192,90 Z" fill="none" stroke="black" stroke-width="1"/>
  <path d="M 179,82 L 177,84 L 177,88 L 179,88 L 180,87 L 180,85 L 181,84 L 181,82 Z" fill="none" stroke="black" stroke-width="1"/>
  <path d="M 159,70 L 159,71 L 160,72 L 161,72 L 162,73 L 162,74 L 164,74 L 165,73 L 165,72 L 163,70 Z" fill="none" stroke="black" stroke-width="1"/>
  <path d="M 161,53 L 161,55 L 163,55 L 164,56 L 166,56 L 166,53 Z" fill="none" stroke="black" stroke-width="1"/>
</svg>