<svg xmlns="http://www.w3.org/2000/svg" width="450" height="392">
  <path d="M 229,346 L 229,348 L 230,349 L 230,350 L 231,350 L 231,347 L 230,346 Z" fill="none" stroke="black" stroke-width="1"/>
  <path d="M 243,338 L 243,339 L 244,339 L 245,340 L 245,342 L 246,342 L 246,338 Z" fill="none" stroke="black" stroke-width="1"/>
  <path d="M 216,335 L 216,336 L 219,339 L 219,340 L 218,341 L 218,342 L 220,342 L 221,343 L 222,343 L 223,344 L 224,344 L 224,342 L 223,341 L 223,339 L 222,339 L 218,335 Z" fill="none" stroke="black" stroke-width="1"/>
  <path d="M 210,324 L 209,325 L 209,328 L 210,328 L 213,331 L 214,331 L 214,328 L 213,328 L 211,326 L 211,324 Z" fill="none" stroke="black" stroke-width="1"/>
  <path d="M 196,313 L 196,314 L 197,315 L 198,315 L 200,317 L 201,317 L 201,315 L 200,314 L 200,313 Z" fill="none" stroke="black" stroke-width="1"/>
  <path d="M 203,309 L 203,311 L 205,313 L 205,314 L 206,314 L 206,311 L 204,309 Z" fill="none" stroke="black" stroke-width="1"/>
  <path d="M 190,300 L 190,304 L 193,304 L 193,302 L 192,302 L 191,301 L 191,300 Z" fill="none" stroke="black" stroke-width="1"/>
  <path d="M 190,292 L 190,298 L 191,298 L 192,297 L 193,297 L 193,296 L 194,295 L 195,295 L 195,294 L 193,294 L 192,293 L 192,292 Z" fill="none" stroke="black" stroke-width="1"/>
  <path d="M 187,285 L 187,286 L 188,287 L 189,287 L 190,288 L 190,289 L 191,290 L 192,290 L 192,288 L 191,287 L 191,285 Z" fill="none" stroke="black" stroke-width="1"/>
  <path d="M 194,283 L 194,285 L 195,286 L 196,286 L 196,285 L 195,284 L 195,283 Z" fill="none" stroke="black" stroke-width="1"/>
  <path d="M 185,265 L 185,266 L 186,267 L 186,268 L 187,269 L 189,269 L 190,268 L 191,268 L 192,267 L 192,266 L 188,266 L 187,265 Z" fill="none" stroke="black" stroke-width="1"/>
  <path d="M 190,261 L 190,264 L 191,264 L 191,261 Z" fill="none" stroke="black" stroke-width="1"/>
</svg>