<svg xmlns="http://www.w3.org/2000/svg" width="450" height="392">
  <path d="M 122,239 L 122,240 L 123,241 L 123,243 L 126,243 L 126,242 L 125,242 L 124,241 L 124,239 Z" fill="none" stroke="black" stroke-width="1"/>
  <path d="M 35,231 L 34,232 L 35,232 Z" fill="none" stroke="black" stroke-width="1"/>
  <path d="M 0,218 L 0,220 L 1,221 L 1,220 L 2,219 L 1,218 Z" fill="none" stroke="black" stroke-width="1"/>
  <path d="M 171,217 L 171,219 L 170,220 L 170,221 L 172,221 L 172,220 L 173,219 L 174,219 L 175,220 L 176,220 L 177,221 L 178,221 L 178,219 L 177,218 L 174,218 L 173,217 Z" fill="none" stroke="black" stroke-width="1"/>
  <path d="M 134,215 L 134,217 L 135,218 L 136,218 L 137,219 L 137,224 L 138,224 L 139,223 L 141,223 L 141,221 L 140,221 L 139,220 L 139,218 L 138,217 L 138,216 L 137,215 Z" fill="none" stroke="black" stroke-width="1"/>
  <path d="M 170,201 L 170,202 L 169,203 L 169,204 L 171,206 L 172,206 L 173,205 L 174,205 L 174,204 L 173,204 L 172,203 L 171,203 L 170,202 Z" fill="none" stroke="black" stroke-width="1"/>
  <path d="M 160,201 L 160,202 L 161,203 L 163,203 L 164,204 L 165,203 L 166,203 L 165,202 L 163,202 L 162,201 Z" fill="none" stroke="black" stroke-width="1"/>
  <path d="M 126,195 L 126,196 L 125,197 L 123,197 L 122,198 L 123,199 L 125,199 L 126,200 L 126,201 L 127,201 L 127,199 L 128,198 L 128,197 L 129,196 L 128,195 Z" fill="none" stroke="black" stroke-width="1"/>
  <path d="M 115,184 L 114,185 L 113,185 L 113,187 L 114,187 L 115,188 L 115,189 L 116,190 L 116,191 L 117,192 L 118,192 L 118,190 L 117,189 L 117,188 L 116,187 L 116,184 Z" fill="none" stroke="black" stroke-width="1"/>
  <path d="M 161,183 L 161,186 L 162,186 L 163,187 L 163,186 L 162,185 L 162,184 Z" fill="none" stroke="black" stroke-width="1"/>
  <path d="M 158,175 L 159,176 L 159,177 L 163,181 L 163,179 L 164,178 L 161,175 Z" fill="none" stroke="black" stroke-width="1"/>
  <path d="M 86,173 L 86,174 L 88,174 L 88,173 Z" fill="none" stroke="black" stroke-width="1"/>
  <path d="M 76,170 L 76,171 L 79,174 L 80,174 L 80,173 L 77,170 Z" fill="none" stroke="black" stroke-width="1"/>
  <path d="M 144,169 L 143,170 L 144,170 L 145,171 L 145,172 L 146,172 L 146,171 Z" fill="none" stroke="black" stroke-width="1"/>
  <path d="M 105,167 L 104,168 L 96,168 L 97,168 L 98,169 L 100,169 L 101,170 L 102,170 L 103,171 L 106,171 L 108,173 L 108,176 L 109,177 L 109,176 L 110,175 L 110,174 L 109,173 L 109,171 Z" fill="none" stroke="black" stroke-width="1"/>
  <path d="M 143,163 L 142,164 L 144,166 L 145,166 L 146,165 L 149,165 L 147,163 L 146,164 L 144,164 Z" fill="none" stroke="black" stroke-width="1"/>
  <path d="M 3,158 L 2,159 L 3,160 L 4,159 L 5,159 L 4,159 Z" fill="none" stroke="black" stroke-width="1"/>
  <path d="M 130,157 L 130,159 L 131,159 L 132,160 L 134,160 L 134,159 L 133,158 L 132,158 L 131,157 Z" fill="none" stroke="black" stroke-width="1"/>
  <path d="M 82,154 L 82,155 L 83,156 L 83,154 Z" fill="none" stroke="black" stroke-width="1"/>
  <path d="M 144,150 L 144,151 L 143,152 L 143,153 L 144,153 Z" fill="none" stroke="black" stroke-width="1"/>
  <path d="M 87,138 L 87,139 L 88,139 L 89,140 L 92,140 L 92,139 L 91,138 L 90,138 L 89,139 L 88,138 Z" fill="none" stroke="black" stroke-width="1"/>
  <path d="M 141,136 L 140,137 L 138,137 L 138,138 L 139,139 L 140,139 L 141,138 L 142,138 L 143,137 L 142,136 Z" fill="none" stroke="black" stroke-width="1"/>
  <path d="M 105,134 L 104,135 L 105,136 L 106,136 L 106,135 Z" fill="none" stroke="black" stroke-width="1"/>
  <path d="M 93,134 L 93,137 L 94,137 L 96,139 L 97,138 L 96,137 L 99,134 Z" fill="none" stroke="black" stroke-width="1"/>
  <path d="M 71,130 L 71,132 L 72,133 L 73,132 L 74,132 L 75,133 L 76,133 L 76,131 L 74,131 L 73,130 Z" fill="none" stroke="black" stroke-width="1"/>
  <path d="M 24,130 L 23,131 L 22,131 L 22,132 L 24,134 L 24,135 L 26,135 L 27,134 L 27,133 L 26,132 L 26,131 L 25,130 Z" fill="none" stroke="black" stroke-width="1"/>
  <path d="M 128,81 L 128,82 L 129,83 L 130,83 Z" fill="none" stroke="black" stroke-width="1"/>
</svg>