<svg xmlns="http://www.w3.org/2000/svg" width="372" height="356">
  <path d="M 319,354 L 319,355 L 321,355 L 321,354 Z" fill="none" stroke="black" stroke-width="1"/>
  <path d="M 297,325 L 297,327 L 296,328 L 295,328 L 297,330 L 297,333 L 299,331 L 300,331 L 300,330 L 302,328 L 303,328 L 303,327 L 302,327 L 300,329 L 298,327 L 299,326 L 299,325 Z" fill="none" stroke="black" stroke-width="1"/>
  <path d="M 356,323 L 356,324 Z" fill="none" stroke="black" stroke-width="1"/>
  <path d="M 370,304 L 369,305 L 369,306 L 371,306 L 371,305 Z" fill="none" stroke="black" stroke-width="1"/>
  <path d="M 364,304 L 365,304 Z" fill="none" stroke="black" stroke-width="1"/>
  <path d="M 272,303 L 272,305 L 273,305 L 273,303 Z" fill="none" stroke="black" stroke-width="1"/>
  <path d="M 228,303 L 228,305 L 229,306 L 229,307 L 230,308 L 230,310 L 231,310 L 231,309 L 233,307 L 232,307 L 231,306 L 230,306 L 229,305 L 229,303 Z" fill="none" stroke="black" stroke-width="1"/>
  <path d="M 196,298 L 196,300 L 197,300 L 197,298 Z" fill="none" stroke="black" stroke-width="1"/>
  <path d="M 156,298 L 156,299 L 155,300 L 154,300 L 154,301 L 157,301 L 157,298 Z" fill="none" stroke="black" stroke-width="1"/>
  <path d="M 185,296 L 186,296 Z" fill="none" stroke="black" stroke-width="1"/>
  <path d="M 183,296 L 183,298 Z" fill="none" stroke="black" stroke-width="1"/>
  <path d="M 324,294 L 324,296 L 325,297 L 325,298 L 326,298 L 327,297 L 327,296 L 328,295 L 327,294 Z" fill="none" stroke="black" stroke-width="1"/>
  <path d="M 232,294 L 232,295 L 233,296 L 233,297 L 234,298 L 234,294 Z" fill="none" stroke="black" stroke-width="1"/>
  <path d="M 269,293 L 269,294 L 268,295 L 268,296 L 267,297 L 267,299 L 268,300 L 271,300 L 272,301 L 273,301 L 275,299 L 275,298 L 273,296 L 274,295 L 273,294 L 272,294 L 271,293 Z" fill="none" stroke="black" stroke-width="1"/>
  <path d="M 204,287 L 204,288 L 206,288 L 206,287 Z" fill="none" stroke="black" stroke-width="1"/>
  <path d="M 161,286 L 161,289 L 164,289 L 164,286 Z" fill="none" stroke="black" stroke-width="1"/>
  <path d="M 192,285 L 192,286 L 190,288 L 189,288 L 189,289 L 190,289 L 191,288 L 193,288 L 193,285 Z" fill="none" stroke="black" stroke-width="1"/>
  <path d="M 165,280 L 165,283 L 166,283 L 166,282 L 167,281 L 169,281 L 169,280 Z" fill="none" stroke="black" stroke-width="1"/>
  <path d="M 269,278 L 269,281 L 272,281 L 272,278 Z" fill="none" stroke="black" stroke-width="1"/>
  <path d="M 263,277 L 263,279 L 264,279 L 264,277 Z" fill="none" stroke="black" stroke-width="1"/>
  <path d="M 154,277 L 154,278 L 155,279 L 155,282 L 156,282 L 156,281 L 158,279 L 157,279 L 156,278 L 156,277 Z" fill="none" stroke="black" stroke-width="1"/>
  <path d="M 277,275 L 277,276 L 276,277 L 276,278 L 277,278 L 278,277 L 280,277 L 280,276 L 279,275 Z" fill="none" stroke="black" stroke-width="1"/>
  <path d="M 245,273 L 244,274 L 243,274 L 242,275 L 241,275 L 238,278 L 240,278 L 241,279 L 245,279 L 246,278 L 247,278 L 248,277 L 248,276 L 249,275 L 247,273 Z" fill="none" stroke="black" stroke-width="1"/>
  <path d="M 169,268 L 169,269 L 171,269 L 171,268 Z" fill="none" stroke="black" stroke-width="1"/>
</svg>