<svg xmlns="http://www.w3.org/2000/svg" width="372" height="356">
  <path d="M 2,292 L 2,293 L 0,295 L 0,297 L 1,296 L 1,294 L 2,293 Z" fill="none" stroke="black" stroke-width="1"/>
  <path d="M 91,284 L 91,285 L 93,287 L 94,287 L 94,286 L 93,285 L 92,285 Z" fill="none" stroke="black" stroke-width="1"/>
  <path d="M 46,278 L 45,279 L 45,280 L 46,281 L 46,282 L 47,282 L 48,281 L 48,278 Z" fill="none" stroke="black" stroke-width="1"/>
  <path d="M 58,260 L 58,261 L 57,262 L 57,263 L 58,263 L 59,262 L 58,261 Z" fill="none" stroke="black" stroke-width="1"/>
  <path d="M 94,258 L 94,259 Z" fill="none" stroke="black" stroke-width="1"/>
  <path d="M 80,254 L 81,255 L 80,256 L 80,257 L 81,258 L 81,259 L 83,257 L 85,259 L 86,258 L 86,256 L 85,257 L 84,256 L 83,256 L 82,255 L 83,254 Z" fill="none" stroke="black" stroke-width="1"/>
</svg>