<svg xmlns="http://www.w3.org/2000/svg" width="341" height="80">
  <path d="M 120,53 L 120,56 L 121,56 L 122,55 L 123,55 L 123,54 L 122,54 L 121,53 Z" fill="none" stroke="black" stroke-width="1"/>
  <path d="M 129,50 L 129,52 L 130,53 L 130,54 L 131,54 L 132,53 L 132,50 Z" fill="none" stroke="black" stroke-width="1"/>
  <path d="M 104,45 L 104,46 L 105,47 L 105,49 L 106,49 L 106,45 Z" fill="none" stroke="black" stroke-width="1"/>
  <path d="M 70,40 L 68,42 L 67,42 L 67,44 L 70,44 L 70,43 L 71,42 L 71,40 Z" fill="none" stroke="black" stroke-width="1"/>
  <path d="M 4,32 L 3,33 L 2,33 L 2,35 L 5,35 L 7,33 L 7,32 Z" fill="none" stroke="black" stroke-width="1"/>
  <path d="M 39,8 L 39,11 L 40,12 L 43,12 L 43,9 L 42,9 L 41,8 Z" fill="none" stroke="black" stroke-width="1"/>
  <path d="M 8,1 L 8,2 L 11,2 L 11,1 Z" fill="none" stroke="black" stroke-width="1"/>
  <path d="M 14,0 L 14,3 L 12,5 L 12,7 L 14,7 L 15,6 L 15,0 Z" fill="none" stroke="black" stroke-width="1"/>
  <path d="M 0,0 L 0,2 L 1,2 L 2,1 L 3,2 L 4,2 L 4,0 Z" fill="none" stroke="black" stroke-width="1"/>
</svg>