<svg xmlns="http://www.w3.org/2000/svg" width="98" height="64">
  <path d="M 61,38 L 59,40 L 59,41 L 57,43 L 57,44 L 56,45 L 56,47 L 54,49 L 54,50 L 53,51 L 53,52 L 52,53 L 52,54 L 51,55 L 51,63 L 52,63 L 52,61 L 54,59 L 54,57 L 55,56 L 55,54 L 56,53 L 56,51 L 57,50 L 57,49 L 58,48 L 58,47 L 60,45 L 60,43 L 62,41 L 62,38 Z" fill="none" stroke="black" stroke-width="1"/>
  <path d="M 48,20 L 46,22 L 44,22 L 44,23 L 45,24 L 45,26 L 44,27 L 43,27 L 42,28 L 41,28 L 40,27 L 38,27 L 35,30 L 32,30 L 29,27 L 29,26 L 30,25 L 30,23 L 29,23 L 28,22 L 28,21 L 27,21 L 26,22 L 25,22 L 24,21 L 20,21 L 19,22 L 19,23 L 18,24 L 17,24 L 17,25 L 16,26 L 16,28 L 17,27 L 18,27 L 19,28 L 19,30 L 18,31 L 18,34 L 19,35 L 20,35 L 21,36 L 22,35 L 23,36 L 24,36 L 25,37 L 27,37 L 28,38 L 30,38 L 31,37 L 33,37 L 35,39 L 35,41 L 36,42 L 37,42 L 39,44 L 40,44 L 41,45 L 41,46 L 40,47 L 38,47 L 38,51 L 37,52 L 37,53 L 36,54 L 35,54 L 35,56 L 39,56 L 40,57 L 41,57 L 42,58 L 43,58 L 44,59 L 45,59 L 45,58 L 46,57 L 46,56 L 47,55 L 47,54 L 48,53 L 49,53 L 50,52 L 50,49 L 51,48 L 51,45 L 52,44 L 53,44 L 51,42 L 51,39 L 52,38 L 52,37 L 53,36 L 54,36 L 55,35 L 54,34 L 54,31 L 55,30 L 55,29 L 54,29 L 51,26 L 52,25 L 52,24 L 53,23 L 54,24 L 54,25 L 56,25 L 54,23 L 55,22 L 55,21 L 53,21 L 52,20 Z" fill="none" stroke="black" stroke-width="1"/>
</svg>