<svg xmlns="http://www.w3.org/2000/svg" width="189" height="217">
  <path d="M 91,74 L 90,75 L 91,76 L 92,76 L 92,75 L 93,74 Z" fill="none" stroke="black" stroke-width="1"/>
  <path d="M 105,52 L 104,53 L 105,54 L 106,53 L 108,53 L 107,53 L 106,52 Z" fill="none" stroke="black" stroke-width="1"/>
  <path d="M 75,49 L 73,51 L 73,52 L 72,53 L 72,54 L 71,55 L 71,56 L 73,54 L 74,54 L 74,53 L 75,52 Z" fill="none" stroke="black" stroke-width="1"/>
  <path d="M 125,48 L 126,48 Z" fill="none" stroke="black" stroke-width="1"/>
  <path d="M 91,42 L 90,43 L 90,44 L 89,45 L 88,45 L 87,44 L 86,44 L 85,43 L 84,43 L 82,45 L 82,48 L 81,49 L 79,47 L 77,49 L 77,50 L 78,51 L 79,50 L 79,49 L 80,48 L 81,49 L 82,49 L 83,48 L 84,49 L 85,49 L 86,48 L 86,47 L 87,46 L 90,46 L 90,45 L 92,43 Z" fill="none" stroke="black" stroke-width="1"/>
  <path d="M 136,28 L 133,31 L 134,31 L 135,30 L 137,30 L 137,29 Z" fill="none" stroke="black" stroke-width="1"/>
  <path d="M 125,24 L 125,25 L 126,26 L 129,26 L 129,25 L 127,25 L 126,24 Z" fill="none" stroke="black" stroke-width="1"/>
  <path d="M 106,24 L 105,25 L 107,27 L 106,28 L 104,28 L 104,30 L 103,31 L 102,30 L 100,30 L 99,29 L 98,29 L 97,30 L 96,30 L 96,31 L 95,32 L 96,33 L 96,34 L 97,34 L 99,32 L 102,32 L 103,33 L 102,34 L 103,34 L 104,35 L 106,35 L 108,33 L 109,33 L 110,32 L 111,32 L 112,33 L 109,36 L 108,36 L 109,36 L 110,37 L 107,40 L 106,39 L 104,39 L 102,41 L 101,40 L 98,40 L 97,41 L 97,42 L 96,43 L 94,43 L 94,44 L 93,45 L 93,46 L 95,46 L 96,45 L 98,45 L 99,44 L 100,44 L 101,43 L 102,43 L 103,42 L 104,42 L 104,41 L 105,40 L 106,40 L 107,41 L 106,42 L 106,43 L 109,40 L 110,40 L 111,41 L 113,41 L 114,42 L 115,41 L 116,41 L 118,39 L 119,40 L 119,41 L 119,40 L 122,37 L 122,36 L 123,35 L 128,35 L 128,33 L 129,32 L 128,31 L 128,29 L 127,28 L 123,28 L 122,29 L 123,30 L 120,33 L 120,34 L 119,35 L 118,35 L 118,37 L 117,38 L 116,37 L 116,34 L 117,33 L 118,33 L 118,32 L 119,31 L 119,30 L 118,29 L 118,28 L 119,27 L 119,26 L 118,25 L 115,25 L 115,28 L 114,29 L 113,29 L 112,30 L 111,30 L 110,29 L 110,28 L 109,27 L 108,27 L 107,26 L 107,24 Z" fill="none" stroke="black" stroke-width="1"/>
  <path d="M 143,22 L 142,23 L 143,23 L 144,22 Z" fill="none" stroke="black" stroke-width="1"/>
  <path d="M 122,15 L 121,16 L 120,16 L 118,18 L 118,19 L 117,20 L 116,20 L 115,21 L 114,21 L 113,22 L 113,23 L 112,24 L 112,27 L 113,26 L 113,24 L 114,23 L 118,23 L 118,22 L 120,20 L 121,20 L 121,19 L 122,18 Z" fill="none" stroke="black" stroke-width="1"/>
  <path d="M 147,8 L 147,10 L 146,11 L 144,11 L 142,9 L 142,10 L 141,11 L 140,10 L 140,11 L 143,11 L 144,12 L 143,13 L 135,13 L 137,13 L 138,14 L 137,15 L 135,15 L 136,16 L 138,16 L 139,17 L 138,18 L 135,18 L 137,18 L 138,19 L 136,21 L 133,21 L 133,22 L 134,22 L 135,21 L 137,21 L 138,22 L 138,23 L 138,22 L 140,20 L 141,20 L 142,19 L 143,19 L 144,18 L 145,19 L 150,19 L 150,18 L 149,17 L 149,16 L 153,12 L 152,11 L 152,10 L 150,8 Z" fill="none" stroke="black" stroke-width="1"/>
  <path d="M 144,8 L 145,9 L 145,8 Z" fill="none" stroke="black" stroke-width="1"/>
  <path d="M 158,2 L 158,3 L 161,3 L 159,3 Z" fill="none" stroke="black" stroke-width="1"/>
  <path d="M 163,0 L 163,1 L 164,2 L 164,4 L 163,5 L 156,5 L 157,6 L 156,7 L 155,7 L 154,6 L 153,7 L 152,7 L 153,8 L 159,8 L 160,9 L 160,10 L 158,12 L 157,11 L 155,11 L 155,13 L 152,16 L 152,17 L 154,19 L 153,20 L 152,20 L 151,21 L 147,21 L 146,22 L 146,23 L 144,25 L 144,26 L 145,26 L 146,25 L 147,25 L 148,26 L 149,26 L 150,27 L 149,28 L 145,28 L 145,29 L 144,30 L 142,30 L 141,29 L 142,28 L 142,27 L 141,26 L 138,26 L 138,27 L 139,28 L 139,29 L 140,29 L 142,31 L 141,32 L 136,32 L 135,33 L 131,33 L 130,34 L 130,35 L 131,36 L 130,37 L 124,37 L 124,38 L 123,39 L 126,39 L 128,37 L 129,38 L 134,38 L 135,37 L 136,37 L 137,38 L 140,38 L 141,37 L 142,37 L 143,36 L 144,36 L 146,38 L 146,39 L 145,40 L 142,40 L 141,41 L 140,41 L 139,42 L 138,41 L 137,41 L 136,42 L 134,42 L 133,41 L 129,41 L 128,42 L 123,42 L 122,43 L 124,43 L 125,44 L 124,45 L 124,46 L 125,45 L 127,45 L 128,46 L 128,47 L 129,48 L 130,48 L 131,49 L 130,50 L 127,50 L 126,51 L 124,51 L 123,52 L 122,51 L 122,50 L 121,49 L 121,45 L 120,45 L 120,47 L 117,50 L 115,50 L 114,49 L 115,48 L 116,48 L 114,48 L 113,49 L 112,48 L 110,50 L 111,51 L 112,50 L 113,51 L 118,51 L 119,50 L 120,51 L 120,52 L 119,53 L 114,53 L 113,54 L 110,54 L 109,55 L 107,55 L 106,56 L 104,56 L 103,55 L 102,56 L 103,57 L 104,56 L 105,56 L 106,57 L 106,58 L 105,59 L 102,59 L 101,60 L 104,60 L 105,59 L 107,59 L 110,56 L 113,56 L 114,57 L 114,58 L 112,60 L 111,60 L 110,59 L 108,61 L 108,62 L 110,64 L 113,64 L 114,65 L 113,66 L 109,66 L 108,65 L 106,65 L 105,66 L 104,65 L 104,64 L 105,63 L 106,63 L 103,63 L 101,65 L 102,65 L 103,66 L 102,67 L 99,67 L 95,71 L 100,71 L 101,70 L 102,70 L 103,69 L 104,69 L 105,68 L 107,68 L 108,69 L 106,71 L 111,71 L 112,70 L 113,70 L 113,68 L 114,67 L 116,69 L 116,72 L 115,73 L 113,73 L 113,77 L 112,78 L 111,77 L 111,76 L 110,75 L 110,74 L 109,73 L 106,73 L 104,75 L 103,74 L 103,72 L 101,74 L 98,74 L 98,76 L 97,77 L 96,76 L 96,74 L 95,74 L 95,76 L 92,79 L 90,79 L 89,80 L 82,80 L 83,80 L 85,82 L 88,82 L 89,83 L 88,84 L 86,84 L 87,85 L 86,86 L 85,86 L 84,85 L 84,84 L 83,83 L 83,85 L 82,86 L 81,86 L 80,85 L 78,85 L 79,86 L 78,87 L 77,87 L 77,88 L 78,89 L 79,89 L 80,88 L 81,88 L 82,87 L 84,87 L 85,88 L 84,89 L 83,89 L 82,90 L 81,90 L 80,91 L 77,91 L 76,90 L 74,90 L 75,90 L 76,91 L 76,94 L 75,95 L 77,95 L 78,96 L 77,97 L 76,97 L 75,98 L 76,98 L 77,99 L 76,100 L 72,100 L 70,102 L 69,102 L 68,101 L 68,100 L 67,99 L 67,98 L 63,102 L 63,103 L 64,102 L 66,102 L 67,101 L 68,101 L 69,102 L 67,104 L 66,104 L 65,105 L 65,107 L 69,103 L 71,103 L 72,102 L 73,103 L 73,104 L 75,104 L 77,106 L 77,108 L 76,109 L 73,106 L 72,106 L 71,105 L 70,106 L 69,106 L 68,107 L 68,108 L 67,109 L 67,110 L 68,111 L 69,111 L 71,113 L 70,114 L 69,114 L 68,113 L 67,113 L 66,112 L 65,112 L 64,113 L 64,114 L 65,115 L 65,116 L 67,116 L 68,117 L 69,117 L 70,118 L 70,119 L 71,119 L 72,120 L 74,120 L 75,121 L 77,121 L 78,122 L 86,122 L 88,124 L 90,124 L 91,125 L 92,125 L 93,126 L 93,127 L 94,126 L 94,123 L 95,122 L 95,120 L 96,119 L 96,115 L 97,114 L 97,111 L 98,110 L 98,105 L 97,104 L 97,101 L 98,100 L 99,100 L 101,98 L 103,98 L 104,97 L 110,97 L 111,96 L 111,93 L 110,92 L 110,91 L 115,86 L 116,86 L 116,85 L 117,84 L 117,83 L 120,80 L 121,80 L 123,78 L 124,78 L 124,76 L 125,75 L 126,75 L 126,72 L 124,70 L 124,69 L 122,67 L 122,65 L 123,64 L 124,64 L 125,63 L 127,63 L 128,62 L 128,61 L 129,60 L 129,59 L 131,57 L 131,55 L 132,54 L 132,53 L 134,51 L 135,51 L 137,49 L 141,49 L 142,50 L 146,50 L 147,51 L 152,51 L 153,50 L 153,49 L 154,48 L 154,46 L 153,45 L 153,41 L 152,40 L 152,37 L 153,36 L 160,36 L 162,38 L 163,37 L 165,37 L 166,36 L 168,36 L 170,38 L 173,38 L 174,39 L 175,39 L 176,40 L 181,40 L 182,41 L 183,41 L 184,40 L 184,39 L 185,38 L 184,38 L 182,36 L 182,35 L 183,34 L 184,34 L 186,32 L 186,31 L 188,29 L 188,28 L 187,27 L 187,26 L 186,25 L 186,24 L 185,23 L 182,23 L 181,22 L 178,22 L 174,18 L 171,18 L 170,17 L 171,16 L 172,16 L 171,15 L 168,15 L 167,14 L 167,13 L 166,12 L 166,11 L 165,10 L 165,9 L 164,9 L 163,8 L 164,7 L 163,6 L 165,4 L 166,4 L 168,2 L 167,1 L 165,1 L 164,0 Z" fill="none" stroke="black" stroke-width="1"/>
</svg>