<svg xmlns="http://www.w3.org/2000/svg" width="231" height="171">
  <path d="M 21,34 L 20,35 L 21,36 L 22,35 Z" fill="none" stroke="black" stroke-width="1"/>
  <path d="M 20,22 L 20,23 L 19,24 L 20,25 L 21,25 L 22,26 L 23,25 L 24,25 L 25,24 L 25,23 L 24,22 Z" fill="none" stroke="black" stroke-width="1"/>
  <path d="M 14,16 L 14,18 L 15,18 L 16,19 L 16,20 L 17,19 L 18,19 L 18,17 L 16,17 L 15,16 Z" fill="none" stroke="black" stroke-width="1"/>
  <path d="M 33,11 L 34,11 Z" fill="none" stroke="black" stroke-width="1"/>
  <path d="M 3,11 L 3,12 L 2,13 L 1,13 L 3,13 L 5,15 L 5,17 L 4,18 L 2,18 L 1,19 L 0,19 L 0,20 L 1,21 L 4,21 L 4,19 L 5,18 L 6,19 L 7,19 L 8,20 L 8,21 L 10,23 L 8,25 L 6,25 L 4,27 L 3,27 L 2,28 L 4,30 L 10,30 L 11,29 L 12,29 L 13,28 L 13,27 L 14,26 L 13,25 L 13,24 L 12,24 L 11,23 L 11,20 L 7,16 L 7,13 L 6,13 L 5,12 L 5,11 Z" fill="none" stroke="black" stroke-width="1"/>
  <path d="M 19,7 L 20,8 L 20,7 Z" fill="none" stroke="black" stroke-width="1"/>
  <path d="M 39,0 L 36,3 L 35,3 L 36,4 L 37,4 L 41,0 Z" fill="none" stroke="black" stroke-width="1"/>
</svg>