<svg xmlns="http://www.w3.org/2000/svg" width="128" height="142">
  <path d="M 104,65 L 99,70 L 99,71 L 95,75 L 94,75 L 92,77 L 92,78 L 90,80 L 90,86 L 92,88 L 92,89 L 93,90 L 93,91 L 92,92 L 92,94 L 91,95 L 91,96 L 90,97 L 89,97 L 89,99 L 88,100 L 88,104 L 87,105 L 87,106 L 85,108 L 85,109 L 83,111 L 83,112 L 82,113 L 82,118 L 83,119 L 83,120 L 84,120 L 85,121 L 85,122 L 84,123 L 83,123 L 83,125 L 84,126 L 84,127 L 85,127 L 86,128 L 90,128 L 91,127 L 92,127 L 97,122 L 98,122 L 100,120 L 106,120 L 107,121 L 108,121 L 113,126 L 114,126 L 116,128 L 116,129 L 119,132 L 122,132 L 123,131 L 123,129 L 126,126 L 126,123 L 127,122 L 127,117 L 126,116 L 126,114 L 125,115 L 124,114 L 124,111 L 123,110 L 124,109 L 124,106 L 122,104 L 122,93 L 121,92 L 121,90 L 122,89 L 122,87 L 124,85 L 124,84 L 126,82 L 126,81 L 125,81 L 124,80 L 122,80 L 121,79 L 121,77 L 119,77 L 118,76 L 116,76 L 110,70 L 110,69 L 108,69 L 106,67 L 106,65 Z" fill="none" stroke="black" stroke-width="1"/>
</svg>