<svg xmlns="http://www.w3.org/2000/svg" width="153" height="139">
  <path d="M 134,74 L 133,75 L 131,75 L 129,77 L 129,78 L 128,79 L 128,80 L 127,81 L 127,82 L 126,83 L 126,84 L 122,88 L 121,88 L 119,90 L 118,90 L 118,91 L 116,93 L 114,93 L 110,97 L 109,97 L 108,98 L 107,98 L 105,100 L 103,100 L 101,102 L 99,102 L 98,103 L 96,103 L 95,104 L 94,104 L 93,105 L 91,105 L 90,106 L 88,106 L 87,107 L 86,107 L 84,109 L 83,109 L 72,120 L 73,121 L 74,121 L 81,128 L 81,131 L 80,132 L 83,135 L 83,136 L 85,138 L 86,137 L 97,137 L 98,136 L 100,136 L 101,135 L 110,135 L 111,134 L 112,134 L 114,132 L 115,132 L 117,130 L 118,130 L 120,128 L 126,128 L 127,127 L 128,127 L 129,128 L 129,130 L 131,130 L 132,131 L 138,131 L 139,130 L 141,130 L 142,129 L 142,128 L 143,127 L 144,127 L 145,126 L 146,126 L 147,125 L 151,125 L 152,124 L 152,122 L 149,119 L 149,115 L 148,114 L 148,113 L 147,112 L 147,109 L 149,107 L 149,105 L 148,104 L 148,103 L 146,101 L 146,99 L 145,98 L 145,97 L 144,96 L 144,95 L 142,93 L 142,80 L 140,78 L 140,77 L 137,74 Z" fill="none" stroke="black" stroke-width="1"/>
</svg>