<svg xmlns="http://www.w3.org/2000/svg" width="139" height="80">
  <path d="M 31,25 L 31,27 L 30,28 L 30,30 L 32,32 L 32,33 L 33,34 L 33,35 L 34,36 L 34,37 L 35,38 L 35,39 L 36,40 L 36,41 L 37,42 L 37,44 L 38,45 L 39,45 L 41,47 L 42,47 L 43,48 L 44,48 L 45,49 L 46,49 L 47,50 L 48,50 L 49,51 L 51,51 L 52,52 L 53,52 L 55,54 L 56,54 L 71,69 L 71,72 L 72,72 L 73,71 L 75,71 L 77,73 L 77,74 L 87,74 L 88,75 L 93,75 L 94,76 L 95,76 L 96,77 L 99,77 L 101,79 L 103,79 L 104,78 L 106,78 L 107,77 L 109,77 L 110,78 L 115,78 L 116,77 L 119,77 L 118,76 L 117,76 L 115,74 L 114,74 L 113,73 L 112,73 L 111,72 L 110,72 L 109,71 L 108,71 L 105,68 L 105,67 L 103,65 L 103,64 L 102,64 L 100,62 L 100,61 L 98,59 L 98,55 L 96,53 L 96,52 L 95,52 L 94,51 L 93,51 L 92,50 L 91,50 L 89,48 L 88,48 L 83,43 L 83,42 L 78,37 L 78,35 L 77,34 L 77,33 L 76,33 L 75,32 L 73,32 L 72,31 L 70,31 L 69,30 L 66,30 L 65,29 L 56,29 L 55,30 L 46,30 L 45,29 L 42,29 L 41,28 L 39,28 L 38,27 L 37,27 L 36,26 L 35,26 L 34,25 Z" fill="none" stroke="black" stroke-width="1"/>
</svg>