<svg xmlns="http://www.w3.org/2000/svg" width="160" height="103">
  <path d="M 110,37 L 107,40 L 105,40 L 104,41 L 100,41 L 99,42 L 98,42 L 96,44 L 94,44 L 93,45 L 88,45 L 87,46 L 76,46 L 75,45 L 70,45 L 70,47 L 68,49 L 65,49 L 65,51 L 60,56 L 59,56 L 58,57 L 57,57 L 52,62 L 49,62 L 49,69 L 50,70 L 50,71 L 49,72 L 49,81 L 50,82 L 50,85 L 53,88 L 54,88 L 55,87 L 58,87 L 59,86 L 66,86 L 67,85 L 68,85 L 69,84 L 72,84 L 73,83 L 84,83 L 85,82 L 87,82 L 88,81 L 90,81 L 91,80 L 92,80 L 93,79 L 94,79 L 95,78 L 97,78 L 98,79 L 106,79 L 107,80 L 107,81 L 107,80 L 108,79 L 108,78 L 109,77 L 108,76 L 108,73 L 109,72 L 109,71 L 110,70 L 110,69 L 112,67 L 112,62 L 113,61 L 113,60 L 115,58 L 115,54 L 116,53 L 116,52 L 121,47 L 121,44 L 123,42 L 124,42 L 127,39 L 127,38 L 126,37 L 123,37 L 122,38 L 121,37 L 115,37 L 114,38 L 113,38 L 112,37 Z" fill="none" stroke="black" stroke-width="1"/>
</svg>