<svg xmlns="http://www.w3.org/2000/svg" width="114" height="69">
  <path d="M 40,3 L 39,4 L 39,6 L 40,7 L 37,10 L 37,11 L 36,12 L 36,26 L 37,27 L 37,31 L 38,32 L 38,35 L 39,36 L 39,38 L 40,39 L 40,40 L 42,42 L 42,43 L 43,44 L 43,45 L 44,44 L 48,44 L 49,43 L 50,43 L 56,37 L 58,37 L 59,36 L 65,36 L 66,35 L 66,30 L 67,29 L 67,28 L 69,26 L 69,25 L 71,23 L 70,22 L 70,21 L 67,18 L 67,13 L 66,12 L 66,9 L 67,8 L 67,6 L 66,5 L 66,4 L 65,4 L 64,3 L 61,3 L 60,4 L 45,4 L 44,3 Z" fill="none" stroke="black" stroke-width="1"/>
</svg>