<svg xmlns="http://www.w3.org/2000/svg" width="86" height="53">
  <path d="M 77,5 L 77,7 L 74,10 L 72,10 L 70,8 L 69,9 L 68,9 L 68,10 L 67,11 L 66,11 L 66,13 L 65,14 L 65,15 L 64,16 L 63,16 L 59,20 L 57,20 L 56,21 L 53,21 L 52,22 L 50,22 L 50,24 L 48,26 L 48,27 L 51,30 L 53,30 L 54,31 L 54,32 L 55,32 L 56,33 L 56,34 L 57,34 L 58,33 L 59,33 L 60,34 L 71,23 L 75,23 L 75,22 L 76,21 L 76,20 L 77,19 L 77,17 L 80,14 L 81,14 L 83,12 L 83,11 L 84,10 L 84,8 L 85,7 L 85,5 Z" fill="none" stroke="black" stroke-width="1"/>
</svg>