<svg xmlns="http://www.w3.org/2000/svg" width="30" height="61">
  <path d="M 1,37 L 1,38 L 3,40 L 3,47 L 4,48 L 4,51 L 3,52 L 5,54 L 5,60 L 7,60 L 7,59 L 8,58 L 8,57 L 9,56 L 10,56 L 10,53 L 13,50 L 14,50 L 16,52 L 16,53 L 16,50 L 15,49 L 15,48 L 16,47 L 18,49 L 18,48 L 19,47 L 21,47 L 22,48 L 21,49 L 21,50 L 22,49 L 22,48 L 23,47 L 24,47 L 25,48 L 26,48 L 27,47 L 27,46 L 28,45 L 28,42 L 29,41 L 29,40 L 27,40 L 24,37 L 19,37 L 18,38 L 15,38 L 14,39 L 14,40 L 13,41 L 12,41 L 11,40 L 5,40 L 2,37 Z" fill="none" stroke="black" stroke-width="1"/>
</svg>