<svg xmlns="http://www.w3.org/2000/svg" width="75" height="65">
  <path d="M 6,0 L 3,3 L 2,3 L 2,4 L 1,5 L 1,11 L 0,12 L 0,14 L 2,16 L 2,17 L 1,18 L 2,18 L 4,20 L 4,23 L 5,24 L 5,30 L 8,30 L 9,31 L 10,31 L 12,33 L 15,33 L 16,32 L 17,32 L 18,33 L 21,33 L 22,34 L 29,34 L 31,36 L 32,36 L 33,37 L 33,36 L 32,35 L 33,34 L 33,29 L 32,28 L 32,27 L 30,27 L 22,19 L 22,18 L 21,18 L 20,17 L 20,16 L 18,14 L 18,13 L 16,11 L 16,8 L 17,7 L 17,6 L 18,5 L 18,1 L 14,1 L 13,0 Z" fill="none" stroke="black" stroke-width="1"/>
</svg>