<svg xmlns="http://www.w3.org/2000/svg" width="215" height="106">
  <path d="M 106,55 L 106,56 L 110,56 L 109,55 Z" fill="none" stroke="black" stroke-width="1"/>
  <path d="M 64,12 L 64,13 L 65,13 L 66,14 L 66,13 L 65,12 Z" fill="none" stroke="black" stroke-width="1"/>
  <path d="M 69,0 L 68,1 L 67,1 L 65,3 L 65,4 L 66,4 L 67,5 L 68,5 L 69,6 L 68,7 L 68,8 L 69,9 L 69,10 L 70,10 L 69,9 L 69,8 L 70,7 L 70,6 L 68,4 L 68,3 L 69,2 L 70,2 L 71,3 L 71,4 L 73,6 L 73,8 L 72,9 L 73,9 L 74,10 L 74,13 L 73,14 L 73,18 L 72,19 L 72,20 L 71,21 L 70,21 L 69,22 L 68,22 L 67,21 L 67,20 L 65,22 L 63,20 L 63,19 L 64,18 L 66,18 L 67,17 L 69,17 L 69,16 L 68,16 L 67,17 L 65,17 L 64,18 L 63,18 L 63,24 L 65,26 L 65,27 L 67,29 L 68,29 L 69,30 L 69,31 L 70,31 L 71,30 L 73,30 L 74,31 L 75,31 L 76,32 L 78,32 L 79,33 L 81,33 L 83,35 L 84,34 L 85,35 L 92,35 L 93,34 L 94,34 L 95,35 L 95,36 L 96,35 L 98,35 L 99,36 L 99,37 L 101,39 L 101,42 L 102,43 L 102,44 L 103,45 L 103,47 L 107,51 L 108,51 L 109,52 L 114,52 L 115,51 L 123,51 L 124,50 L 125,50 L 126,49 L 127,49 L 128,48 L 135,48 L 136,49 L 137,49 L 135,47 L 135,46 L 134,45 L 134,44 L 130,40 L 130,39 L 128,37 L 128,27 L 129,26 L 129,24 L 125,20 L 125,19 L 123,19 L 122,18 L 122,17 L 121,17 L 120,16 L 118,16 L 117,15 L 115,15 L 114,14 L 113,14 L 112,13 L 111,13 L 110,12 L 109,12 L 108,11 L 107,11 L 106,10 L 104,10 L 103,9 L 101,9 L 100,8 L 99,8 L 98,7 L 96,7 L 95,6 L 93,6 L 92,5 L 90,5 L 89,4 L 87,4 L 86,3 L 78,3 L 77,2 L 75,2 L 74,1 L 73,1 L 72,0 Z" fill="none" stroke="black" stroke-width="1"/>
</svg>