<svg xmlns="http://www.w3.org/2000/svg" width="150" height="72">
  <path d="M 79,8 L 77,10 L 76,10 L 76,12 L 75,13 L 74,13 L 75,13 L 76,14 L 76,16 L 77,17 L 76,18 L 76,20 L 75,21 L 75,22 L 74,23 L 74,25 L 72,27 L 72,28 L 69,31 L 68,31 L 67,32 L 66,32 L 64,34 L 64,36 L 65,37 L 65,38 L 67,40 L 67,41 L 68,42 L 68,43 L 69,44 L 69,45 L 72,45 L 76,49 L 76,50 L 85,59 L 85,63 L 87,65 L 87,66 L 91,70 L 91,71 L 92,71 L 92,69 L 94,67 L 94,64 L 95,63 L 95,60 L 96,59 L 96,56 L 97,55 L 97,52 L 99,50 L 99,49 L 100,48 L 100,47 L 101,46 L 101,43 L 103,41 L 102,40 L 102,39 L 101,38 L 101,37 L 99,35 L 99,34 L 100,33 L 100,31 L 98,29 L 98,27 L 100,25 L 101,25 L 102,24 L 103,24 L 103,23 L 104,22 L 102,20 L 102,18 L 103,17 L 100,14 L 100,11 L 101,10 L 95,10 L 94,9 L 86,9 L 85,8 Z" fill="none" stroke="black" stroke-width="1"/>
</svg>