<svg xmlns="http://www.w3.org/2000/svg" width="153" height="139">
  <path d="M 103,0 L 102,1 L 101,1 L 99,3 L 97,3 L 98,4 L 98,6 L 97,7 L 97,8 L 91,14 L 91,15 L 90,16 L 89,16 L 87,18 L 86,18 L 84,20 L 83,20 L 80,23 L 79,23 L 78,24 L 70,24 L 68,26 L 66,26 L 65,27 L 64,27 L 63,28 L 60,28 L 58,30 L 56,30 L 55,31 L 53,31 L 51,33 L 51,34 L 59,34 L 60,35 L 61,35 L 62,36 L 63,36 L 64,37 L 68,37 L 69,38 L 72,38 L 73,39 L 75,39 L 76,40 L 77,40 L 81,44 L 82,44 L 86,48 L 86,49 L 92,55 L 92,56 L 96,60 L 97,59 L 100,59 L 101,60 L 110,60 L 111,61 L 112,61 L 115,64 L 116,64 L 118,66 L 119,66 L 120,67 L 121,67 L 122,68 L 123,68 L 124,69 L 125,69 L 126,70 L 127,70 L 128,71 L 130,71 L 131,72 L 133,72 L 134,73 L 137,73 L 140,76 L 141,75 L 141,71 L 140,70 L 140,69 L 137,66 L 137,62 L 138,61 L 138,60 L 140,58 L 140,57 L 141,56 L 141,54 L 142,53 L 142,50 L 143,49 L 143,46 L 142,45 L 142,43 L 140,41 L 140,40 L 137,37 L 137,36 L 138,35 L 139,35 L 139,30 L 137,28 L 137,27 L 136,26 L 136,25 L 128,17 L 126,17 L 125,16 L 125,15 L 115,5 L 115,4 L 114,4 L 112,2 L 111,2 L 110,1 L 109,1 L 108,0 L 106,0 L 105,1 L 104,1 Z" fill="none" stroke="black" stroke-width="1"/>
</svg>