<svg xmlns="http://www.w3.org/2000/svg" width="153" height="139">
  <path d="M 6,23 L 5,24 L 5,25 L 4,26 L 4,41 L 6,43 L 6,45 L 2,49 L 2,50 L 1,51 L 1,52 L 0,53 L 0,54 L 4,54 L 6,56 L 7,56 L 8,57 L 8,58 L 7,59 L 8,59 L 9,60 L 11,60 L 12,61 L 12,62 L 11,63 L 12,64 L 12,68 L 15,68 L 18,71 L 19,71 L 20,72 L 20,74 L 21,75 L 23,75 L 24,76 L 24,77 L 29,82 L 31,82 L 32,83 L 34,83 L 35,84 L 35,86 L 37,86 L 38,87 L 42,87 L 43,86 L 43,82 L 44,81 L 45,81 L 45,80 L 46,79 L 56,79 L 57,78 L 62,78 L 63,77 L 64,77 L 65,76 L 66,76 L 68,74 L 69,74 L 70,73 L 71,73 L 76,68 L 77,68 L 80,65 L 83,65 L 85,63 L 91,63 L 92,62 L 93,62 L 94,61 L 95,61 L 95,60 L 91,56 L 91,55 L 85,49 L 85,48 L 82,45 L 81,45 L 77,41 L 76,41 L 75,40 L 73,40 L 72,39 L 69,39 L 68,38 L 64,38 L 63,37 L 62,37 L 61,36 L 60,36 L 59,35 L 48,35 L 46,33 L 43,33 L 42,32 L 39,32 L 38,31 L 34,31 L 29,26 L 26,26 L 25,25 L 25,26 L 23,28 L 21,26 L 20,26 L 17,23 L 11,23 L 10,24 L 8,24 L 7,23 Z" fill="none" stroke="black" stroke-width="1"/>
</svg>