<svg xmlns="http://www.w3.org/2000/svg" width="187" height="119">
  <path d="M 21,0 L 19,2 L 18,2 L 17,3 L 16,3 L 15,4 L 14,4 L 12,6 L 11,6 L 10,7 L 9,7 L 8,8 L 3,8 L 2,9 L 2,11 L 4,13 L 4,15 L 6,17 L 6,24 L 4,26 L 4,27 L 1,30 L 1,32 L 0,33 L 0,39 L 6,45 L 6,46 L 7,47 L 7,48 L 8,49 L 10,49 L 11,50 L 13,50 L 14,49 L 15,49 L 16,48 L 24,48 L 25,47 L 28,47 L 29,46 L 30,46 L 31,45 L 32,45 L 36,41 L 36,40 L 39,37 L 42,37 L 42,34 L 43,33 L 43,31 L 44,30 L 44,29 L 45,28 L 45,24 L 44,23 L 44,22 L 40,18 L 39,18 L 34,13 L 34,12 L 32,10 L 32,9 L 31,8 L 31,7 L 30,6 L 30,5 L 28,3 L 28,2 L 26,0 Z" fill="none" stroke="black" stroke-width="1"/>
</svg>