<svg xmlns="http://www.w3.org/2000/svg" width="187" height="119">
  <path d="M 88,25 L 85,28 L 85,34 L 84,35 L 84,36 L 83,37 L 82,37 L 80,39 L 76,39 L 75,40 L 73,38 L 72,38 L 72,39 L 71,40 L 70,40 L 70,41 L 66,45 L 66,46 L 64,48 L 64,49 L 62,51 L 62,52 L 61,53 L 61,54 L 60,55 L 60,56 L 59,57 L 59,58 L 56,61 L 55,61 L 52,64 L 56,68 L 56,71 L 55,72 L 55,73 L 54,74 L 54,75 L 51,78 L 50,78 L 52,78 L 55,81 L 56,81 L 57,82 L 57,83 L 59,83 L 60,82 L 64,82 L 65,81 L 67,81 L 68,80 L 69,80 L 70,79 L 71,79 L 72,78 L 73,78 L 75,76 L 80,76 L 80,75 L 82,73 L 83,73 L 85,71 L 90,71 L 93,74 L 94,74 L 95,73 L 96,73 L 97,72 L 99,72 L 100,71 L 102,71 L 103,70 L 105,70 L 107,72 L 108,72 L 109,73 L 114,73 L 115,74 L 117,74 L 118,73 L 118,72 L 119,71 L 120,71 L 121,72 L 122,72 L 122,71 L 123,70 L 123,68 L 122,67 L 122,65 L 121,64 L 122,63 L 122,61 L 119,58 L 118,58 L 117,57 L 117,50 L 116,49 L 116,48 L 115,47 L 115,45 L 114,44 L 114,43 L 113,43 L 112,42 L 112,39 L 101,39 L 99,37 L 98,37 L 90,29 L 90,28 L 89,27 L 89,26 Z" fill="none" stroke="black" stroke-width="1"/>
</svg>