<svg xmlns="http://www.w3.org/2000/svg" width="119" height="121">
  <path d="M 3,0 L 0,3 L 0,5 L 1,6 L 1,7 L 3,9 L 3,10 L 4,11 L 3,12 L 5,14 L 6,14 L 8,16 L 10,16 L 9,16 L 8,15 L 8,12 L 10,10 L 13,10 L 14,9 L 15,9 L 16,8 L 17,8 L 18,9 L 18,10 L 21,10 L 22,9 L 23,9 L 24,10 L 25,10 L 28,13 L 28,14 L 29,13 L 30,13 L 32,11 L 33,11 L 34,10 L 34,9 L 35,8 L 33,6 L 33,3 L 32,2 L 31,2 L 30,3 L 29,3 L 28,2 L 28,0 L 27,1 L 26,1 L 25,0 L 24,1 L 20,1 L 18,3 L 12,3 L 11,2 L 7,2 L 5,0 Z" fill="none" stroke="black" stroke-width="1"/>
</svg>