<svg xmlns="http://www.w3.org/2000/svg" width="118" height="105">
  <path d="M 1,46 L 1,49 L 0,50 L 0,53 L 2,55 L 2,56 L 3,57 L 2,58 L 2,59 L 3,60 L 5,60 L 6,61 L 9,61 L 10,62 L 10,63 L 8,65 L 7,65 L 9,67 L 12,67 L 13,68 L 12,69 L 9,69 L 12,69 L 13,70 L 14,70 L 15,71 L 15,72 L 14,73 L 13,72 L 13,74 L 14,75 L 15,74 L 16,74 L 17,75 L 16,76 L 16,77 L 17,77 L 19,79 L 19,80 L 20,80 L 21,81 L 22,81 L 24,83 L 24,84 L 25,85 L 25,86 L 28,89 L 29,89 L 30,88 L 31,89 L 31,92 L 32,93 L 32,90 L 31,89 L 31,87 L 30,86 L 29,86 L 28,87 L 27,86 L 27,85 L 28,84 L 28,83 L 26,85 L 25,84 L 25,82 L 24,81 L 23,81 L 22,80 L 23,79 L 24,79 L 25,78 L 25,77 L 23,77 L 23,79 L 22,80 L 21,79 L 21,78 L 19,76 L 19,75 L 17,73 L 18,72 L 19,72 L 20,73 L 22,73 L 22,71 L 21,71 L 20,70 L 21,69 L 22,69 L 19,66 L 18,66 L 17,65 L 17,64 L 18,63 L 18,62 L 17,61 L 17,59 L 18,58 L 17,57 L 18,56 L 18,53 L 21,50 L 21,48 L 22,47 L 21,47 L 20,48 L 19,48 L 18,49 L 16,49 L 16,53 L 15,54 L 15,55 L 13,57 L 12,57 L 11,58 L 9,58 L 8,57 L 7,57 L 6,56 L 7,55 L 10,55 L 11,54 L 12,54 L 13,53 L 13,52 L 14,51 L 14,49 L 12,47 L 11,47 L 7,51 L 6,50 L 6,49 L 7,48 L 7,47 L 3,47 L 2,46 Z" fill="none" stroke="black" stroke-width="1"/>
</svg>