<svg xmlns="http://www.w3.org/2000/svg" width="77" height="108">
  <path d="M 34,45 L 34,46 L 30,50 L 30,51 L 29,52 L 29,53 L 28,54 L 28,55 L 24,59 L 24,60 L 23,61 L 23,62 L 22,63 L 22,65 L 21,66 L 21,70 L 24,70 L 25,71 L 28,71 L 29,70 L 31,70 L 33,72 L 33,76 L 34,77 L 34,81 L 35,82 L 35,84 L 37,84 L 38,83 L 42,83 L 43,82 L 43,81 L 44,80 L 44,79 L 47,76 L 47,75 L 49,73 L 49,72 L 50,71 L 50,70 L 51,69 L 51,65 L 55,61 L 56,61 L 56,59 L 57,58 L 56,58 L 55,57 L 54,57 L 53,56 L 52,56 L 51,55 L 51,54 L 47,54 L 46,53 L 45,53 L 42,50 L 41,50 L 39,48 L 38,48 L 35,45 Z" fill="none" stroke="black" stroke-width="1"/>
</svg>