<svg xmlns="http://www.w3.org/2000/svg" width="386" height="67">
  <path d="M 333,40 L 332,41 L 331,41 L 332,41 L 333,42 L 339,42 L 340,43 L 339,44 L 341,44 L 342,43 L 344,43 L 345,44 L 346,44 L 348,46 L 347,47 L 346,47 L 353,47 L 355,49 L 358,49 L 360,51 L 361,51 L 362,52 L 362,53 L 364,53 L 365,54 L 369,54 L 370,55 L 370,56 L 374,60 L 374,61 L 375,62 L 375,63 L 376,63 L 377,64 L 378,64 L 379,65 L 379,66 L 380,65 L 383,65 L 381,65 L 380,64 L 381,63 L 385,63 L 385,62 L 384,62 L 383,61 L 383,59 L 382,58 L 383,57 L 380,57 L 379,56 L 379,55 L 380,54 L 379,54 L 375,50 L 375,49 L 374,49 L 373,48 L 372,48 L 374,50 L 373,51 L 372,51 L 371,50 L 370,50 L 369,49 L 369,47 L 368,47 L 366,49 L 364,47 L 365,46 L 366,46 L 367,45 L 366,45 L 365,46 L 364,46 L 363,45 L 364,44 L 364,43 L 357,43 L 356,42 L 355,42 L 354,43 L 353,42 L 352,43 L 350,41 L 349,42 L 345,42 L 344,41 L 342,41 L 341,40 L 340,40 L 339,41 L 338,40 L 337,41 L 335,41 L 334,40 Z" fill="none" stroke="black" stroke-width="1"/>
</svg>