<svg xmlns="http://www.w3.org/2000/svg" width="45" height="40">
  <path d="M 17,13 L 16,14 L 16,15 L 17,16 L 17,17 L 16,18 L 16,19 L 15,20 L 14,20 L 13,21 L 13,25 L 12,26 L 11,26 L 11,31 L 10,32 L 10,36 L 11,36 L 13,38 L 14,38 L 15,39 L 18,39 L 19,38 L 20,38 L 21,37 L 22,37 L 23,38 L 24,38 L 25,37 L 25,36 L 26,35 L 28,35 L 31,32 L 30,31 L 30,30 L 29,29 L 29,27 L 30,26 L 28,26 L 27,25 L 27,24 L 28,23 L 28,22 L 27,21 L 23,21 L 21,19 L 21,18 L 20,17 L 20,15 L 18,13 Z" fill="none" stroke="black" stroke-width="1"/>
</svg>