<svg xmlns="http://www.w3.org/2000/svg" width="40" height="64">
  <path d="M 22,21 L 22,22 L 21,23 L 20,23 L 20,28 L 19,29 L 19,30 L 20,31 L 20,34 L 21,35 L 21,38 L 22,39 L 22,40 L 23,41 L 23,44 L 24,45 L 24,46 L 26,46 L 27,47 L 28,47 L 29,48 L 30,48 L 31,47 L 32,47 L 32,46 L 34,44 L 36,44 L 37,43 L 38,43 L 39,42 L 39,40 L 36,40 L 33,37 L 33,36 L 34,35 L 34,33 L 33,32 L 33,28 L 32,27 L 32,26 L 31,26 L 30,25 L 29,25 L 28,26 L 27,26 L 26,25 L 26,23 L 25,22 L 23,22 Z" fill="none" stroke="black" stroke-width="1"/>
</svg>