<svg xmlns="http://www.w3.org/2000/svg" width="36" height="38">
  <path d="M 24,0 L 23,1 L 22,1 L 22,8 L 21,9 L 18,9 L 18,10 L 19,11 L 19,13 L 18,14 L 17,14 L 15,16 L 15,18 L 14,19 L 14,20 L 15,21 L 15,24 L 14,25 L 14,27 L 13,28 L 13,29 L 15,31 L 16,31 L 16,30 L 18,28 L 21,28 L 22,29 L 23,29 L 24,28 L 27,28 L 28,27 L 29,27 L 30,28 L 33,28 L 33,27 L 34,26 L 35,26 L 35,25 L 34,24 L 34,23 L 30,19 L 30,18 L 31,17 L 31,16 L 32,15 L 32,14 L 30,12 L 30,11 L 27,8 L 27,6 L 28,5 L 28,4 L 29,3 L 29,2 L 28,1 L 26,1 L 25,0 Z" fill="none" stroke="black" stroke-width="1"/>
</svg>