<svg xmlns="http://www.w3.org/2000/svg" width="42" height="60">
  <path d="M 26,40 L 25,41 L 26,42 L 26,43 L 27,44 L 27,45 L 28,46 L 28,50 L 27,51 L 27,54 L 28,54 L 29,53 L 29,50 L 30,49 L 30,47 L 27,44 L 27,40 Z" fill="none" stroke="black" stroke-width="1"/>
  <path d="M 0,38 L 0,41 L 2,43 L 2,44 L 3,45 L 3,46 L 4,47 L 4,48 L 5,49 L 5,51 L 6,52 L 6,55 L 7,56 L 7,59 L 8,58 L 8,53 L 9,52 L 9,51 L 10,50 L 11,51 L 11,54 L 10,55 L 10,59 L 11,58 L 12,58 L 13,57 L 14,57 L 14,48 L 16,46 L 17,47 L 17,48 L 16,49 L 16,54 L 19,51 L 20,51 L 21,52 L 17,56 L 19,58 L 20,57 L 21,57 L 21,55 L 22,54 L 22,53 L 23,52 L 24,52 L 24,49 L 25,48 L 25,46 L 24,45 L 24,44 L 22,42 L 22,40 L 24,38 L 21,38 L 20,39 L 19,39 L 18,40 L 18,41 L 17,42 L 14,42 L 13,41 L 10,41 L 8,39 L 1,39 Z" fill="none" stroke="black" stroke-width="1"/>
</svg>