<svg xmlns="http://www.w3.org/2000/svg" width="107" height="49">
  <path d="M 79,0 L 79,1 L 78,2 L 78,7 L 76,9 L 75,9 L 75,12 L 74,13 L 74,16 L 75,17 L 81,17 L 83,19 L 83,20 L 81,22 L 81,26 L 82,27 L 82,29 L 83,30 L 85,28 L 86,28 L 89,31 L 89,32 L 90,32 L 92,30 L 92,28 L 95,25 L 96,25 L 97,24 L 98,24 L 99,23 L 100,23 L 103,20 L 106,20 L 105,20 L 104,19 L 104,18 L 103,17 L 103,15 L 105,13 L 105,12 L 104,11 L 103,12 L 100,12 L 99,11 L 98,11 L 97,10 L 97,9 L 96,8 L 96,6 L 95,5 L 92,5 L 90,7 L 88,7 L 87,6 L 86,6 L 81,1 L 81,0 Z" fill="none" stroke="black" stroke-width="1"/>
</svg>