<svg xmlns="http://www.w3.org/2000/svg" width="66" height="48">
  <path d="M 47,14 L 46,15 L 43,15 L 43,16 L 41,18 L 40,18 L 39,19 L 38,19 L 38,20 L 37,21 L 37,24 L 35,26 L 35,27 L 34,28 L 32,28 L 31,27 L 31,29 L 29,31 L 28,31 L 28,32 L 27,33 L 26,33 L 26,35 L 21,40 L 19,40 L 20,41 L 20,43 L 26,43 L 29,40 L 31,40 L 32,41 L 35,41 L 36,40 L 37,40 L 37,39 L 40,36 L 41,36 L 42,35 L 42,34 L 44,32 L 45,32 L 45,28 L 48,25 L 49,25 L 50,24 L 50,23 L 52,21 L 52,19 L 51,18 L 51,16 L 50,15 L 49,15 L 48,14 Z" fill="none" stroke="black" stroke-width="1"/>
</svg>