<svg xmlns="http://www.w3.org/2000/svg" width="62" height="67">
  <path d="M 9,21 L 7,23 L 5,23 L 4,24 L 4,26 L 3,27 L 3,30 L 4,31 L 4,32 L 3,33 L 1,33 L 0,34 L 0,36 L 1,37 L 1,38 L 2,39 L 3,39 L 6,42 L 6,43 L 7,43 L 8,42 L 10,44 L 11,44 L 12,45 L 12,46 L 15,46 L 15,45 L 16,44 L 17,45 L 19,45 L 20,44 L 22,44 L 22,40 L 24,38 L 25,39 L 27,39 L 27,38 L 26,37 L 26,36 L 27,35 L 28,35 L 29,34 L 29,33 L 26,30 L 26,29 L 25,29 L 24,28 L 23,28 L 22,29 L 20,29 L 18,27 L 17,27 L 14,24 L 14,23 L 13,23 L 12,22 L 10,22 Z" fill="none" stroke="black" stroke-width="1"/>
</svg>