<svg xmlns="http://www.w3.org/2000/svg" width="76" height="64">
  <path d="M 69,20 L 68,21 L 67,21 L 64,24 L 52,24 L 51,25 L 50,25 L 48,27 L 47,27 L 46,28 L 45,28 L 45,29 L 44,30 L 44,33 L 43,34 L 45,34 L 46,35 L 49,35 L 50,36 L 51,35 L 54,35 L 56,37 L 56,39 L 57,40 L 61,40 L 63,42 L 62,43 L 62,44 L 61,45 L 60,45 L 60,48 L 61,49 L 61,52 L 62,53 L 62,56 L 63,57 L 63,59 L 65,61 L 66,61 L 67,62 L 67,63 L 67,61 L 68,60 L 68,48 L 71,45 L 73,45 L 74,44 L 74,40 L 72,38 L 72,31 L 73,30 L 73,29 L 75,27 L 75,23 L 74,22 L 74,21 L 73,21 L 72,20 Z" fill="none" stroke="black" stroke-width="1"/>
</svg>