<svg xmlns="http://www.w3.org/2000/svg" width="89" height="40">
  <path d="M 57,0 L 56,1 L 55,1 L 54,2 L 47,2 L 46,3 L 45,2 L 42,2 L 42,3 L 41,4 L 41,11 L 42,12 L 42,13 L 43,14 L 43,17 L 41,19 L 40,19 L 40,20 L 44,20 L 45,21 L 51,21 L 52,22 L 53,21 L 54,21 L 55,20 L 57,20 L 58,19 L 59,19 L 60,20 L 60,21 L 61,22 L 62,22 L 63,23 L 68,23 L 67,22 L 67,18 L 68,17 L 68,15 L 69,14 L 69,11 L 70,10 L 70,9 L 71,8 L 72,8 L 72,7 L 73,6 L 74,6 L 74,5 L 73,5 L 72,4 L 71,4 L 71,5 L 70,6 L 69,6 L 67,4 L 64,4 L 63,3 L 63,2 L 62,1 L 59,1 L 58,0 Z" fill="none" stroke="black" stroke-width="1"/>
</svg>