<svg xmlns="http://www.w3.org/2000/svg" width="83" height="45">
  <path d="M 54,8 L 53,9 L 53,13 L 51,15 L 50,15 L 50,16 L 48,18 L 48,19 L 50,21 L 50,24 L 51,25 L 51,26 L 52,27 L 52,28 L 57,28 L 58,27 L 59,27 L 61,25 L 66,25 L 67,26 L 68,25 L 72,25 L 73,24 L 74,25 L 77,25 L 78,24 L 81,24 L 81,23 L 82,22 L 81,22 L 80,21 L 80,20 L 79,19 L 79,18 L 78,18 L 76,16 L 75,16 L 73,14 L 73,13 L 72,13 L 70,11 L 67,11 L 67,13 L 65,15 L 64,15 L 62,13 L 60,13 L 59,14 L 57,12 L 58,11 L 58,10 L 57,9 L 55,9 Z" fill="none" stroke="black" stroke-width="1"/>
</svg>