<svg xmlns="http://www.w3.org/2000/svg" width="35" height="48">
  <path d="M 15,0 L 14,1 L 14,3 L 13,4 L 12,4 L 9,7 L 8,7 L 7,8 L 2,8 L 3,9 L 3,12 L 2,13 L 0,13 L 1,14 L 1,17 L 2,18 L 2,19 L 6,19 L 10,23 L 10,29 L 11,30 L 11,31 L 13,31 L 14,30 L 15,30 L 16,29 L 17,29 L 16,28 L 16,25 L 17,24 L 17,23 L 16,22 L 17,21 L 17,15 L 18,14 L 18,12 L 19,11 L 19,10 L 20,9 L 22,9 L 22,8 L 23,7 L 24,7 L 25,6 L 26,6 L 27,5 L 27,2 L 19,2 L 18,1 L 17,1 L 16,0 Z" fill="none" stroke="black" stroke-width="1"/>
</svg>