<svg xmlns="http://www.w3.org/2000/svg" width="74" height="59">
  <path d="M 24,9 L 24,11 L 23,12 L 23,13 L 22,14 L 22,20 L 23,21 L 23,24 L 22,25 L 22,27 L 23,28 L 23,29 L 25,29 L 28,32 L 28,33 L 30,33 L 31,34 L 32,34 L 33,35 L 33,36 L 34,37 L 34,39 L 36,41 L 38,41 L 39,40 L 39,39 L 41,37 L 41,35 L 42,34 L 42,33 L 44,31 L 44,30 L 43,30 L 41,28 L 41,27 L 40,26 L 40,25 L 39,25 L 37,23 L 37,22 L 36,22 L 35,21 L 35,20 L 34,20 L 33,19 L 32,19 L 31,18 L 31,17 L 30,17 L 29,16 L 29,15 L 28,14 L 28,11 L 27,11 L 26,10 L 25,10 Z" fill="none" stroke="black" stroke-width="1"/>
</svg>