<svg xmlns="http://www.w3.org/2000/svg" width="53" height="49">
  <path d="M 30,22 L 29,23 L 25,23 L 24,24 L 23,23 L 22,23 L 21,24 L 20,24 L 19,25 L 19,27 L 18,28 L 18,30 L 19,31 L 24,31 L 25,32 L 25,34 L 27,36 L 27,40 L 28,41 L 28,43 L 30,45 L 30,46 L 33,46 L 34,47 L 37,47 L 38,48 L 39,48 L 39,47 L 38,46 L 38,44 L 39,43 L 43,43 L 44,44 L 44,45 L 45,45 L 45,43 L 47,41 L 47,40 L 46,39 L 46,33 L 43,30 L 39,30 L 38,29 L 38,28 L 37,27 L 37,24 L 36,23 L 33,23 L 32,22 Z" fill="none" stroke="black" stroke-width="1"/>
</svg>