<svg xmlns="http://www.w3.org/2000/svg" width="78" height="69">
  <path d="M 70,35 L 69,36 L 68,36 L 66,38 L 61,38 L 60,39 L 59,39 L 59,40 L 56,43 L 55,43 L 54,44 L 53,44 L 52,45 L 49,45 L 47,43 L 44,43 L 43,44 L 43,45 L 42,46 L 41,46 L 40,47 L 40,50 L 39,51 L 39,53 L 38,54 L 38,55 L 33,60 L 32,60 L 32,63 L 31,64 L 37,64 L 38,63 L 39,63 L 40,62 L 41,62 L 42,63 L 45,63 L 47,65 L 47,66 L 50,66 L 52,68 L 53,68 L 53,67 L 54,66 L 55,66 L 56,65 L 56,64 L 59,61 L 59,58 L 60,57 L 61,57 L 66,52 L 67,52 L 67,50 L 69,48 L 69,47 L 70,46 L 70,45 L 74,41 L 74,40 L 77,37 L 76,37 L 75,36 L 74,36 L 73,35 Z" fill="none" stroke="black" stroke-width="1"/>
</svg>