<svg xmlns="http://www.w3.org/2000/svg" width="70" height="102">
  <path d="M 50,36 L 49,37 L 47,37 L 46,38 L 45,38 L 44,39 L 44,41 L 43,42 L 42,42 L 40,44 L 40,45 L 41,46 L 41,49 L 42,50 L 42,52 L 37,57 L 37,59 L 38,60 L 38,61 L 39,62 L 39,67 L 41,67 L 45,63 L 46,63 L 49,60 L 50,60 L 50,59 L 51,58 L 52,58 L 53,57 L 61,57 L 62,58 L 63,58 L 66,55 L 66,54 L 67,53 L 67,50 L 68,49 L 68,48 L 69,47 L 69,45 L 68,44 L 68,42 L 67,41 L 67,39 L 65,37 L 63,37 L 61,39 L 58,39 L 56,37 L 53,37 L 52,36 Z" fill="none" stroke="black" stroke-width="1"/>
</svg>