<svg xmlns="http://www.w3.org/2000/svg" width="85" height="45">
  <path d="M 12,0 L 10,2 L 11,3 L 8,6 L 8,8 L 7,9 L 7,10 L 6,11 L 5,11 L 5,13 L 7,15 L 12,15 L 13,16 L 15,16 L 16,17 L 20,17 L 22,19 L 22,20 L 23,20 L 25,22 L 25,23 L 26,24 L 28,24 L 29,25 L 33,25 L 34,24 L 35,24 L 35,23 L 36,22 L 36,21 L 37,20 L 41,20 L 42,19 L 42,16 L 43,15 L 43,13 L 44,12 L 44,11 L 43,11 L 42,12 L 40,12 L 39,13 L 38,13 L 36,15 L 35,15 L 34,16 L 33,15 L 33,13 L 32,13 L 30,11 L 29,11 L 28,10 L 27,10 L 26,9 L 26,8 L 25,7 L 25,6 L 22,3 L 22,2 L 23,1 L 18,1 L 17,2 L 14,2 Z" fill="none" stroke="black" stroke-width="1"/>
</svg>