<svg xmlns="http://www.w3.org/2000/svg" width="85" height="45">
  <path d="M 44,13 L 44,15 L 43,16 L 43,19 L 47,23 L 56,23 L 58,25 L 58,26 L 59,26 L 60,27 L 61,27 L 61,26 L 62,25 L 63,25 L 64,26 L 65,26 L 66,27 L 67,27 L 68,28 L 68,29 L 77,29 L 77,28 L 78,27 L 79,27 L 80,26 L 80,25 L 81,24 L 81,22 L 82,21 L 81,20 L 77,20 L 76,19 L 75,19 L 74,20 L 72,20 L 70,18 L 69,19 L 65,19 L 64,18 L 62,18 L 62,19 L 61,20 L 60,20 L 58,18 L 57,18 L 56,17 L 55,17 L 54,16 L 52,16 L 50,14 L 49,14 L 48,13 Z" fill="none" stroke="black" stroke-width="1"/>
</svg>