<svg xmlns="http://www.w3.org/2000/svg" width="47" height="53">
  <path d="M 37,0 L 37,1 L 36,2 L 36,3 L 32,7 L 31,7 L 30,6 L 22,6 L 21,7 L 20,7 L 20,8 L 19,9 L 18,9 L 15,12 L 14,12 L 10,16 L 6,16 L 5,17 L 4,17 L 1,20 L 1,21 L 2,22 L 5,22 L 6,23 L 8,23 L 9,24 L 9,25 L 11,27 L 16,27 L 16,26 L 17,25 L 19,25 L 19,23 L 21,21 L 28,21 L 29,22 L 30,22 L 32,24 L 33,24 L 34,25 L 37,25 L 39,27 L 44,22 L 44,21 L 45,20 L 45,19 L 46,18 L 46,16 L 42,12 L 42,11 L 41,10 L 41,7 L 40,6 L 40,4 L 39,3 L 39,1 L 38,0 Z" fill="none" stroke="black" stroke-width="1"/>
</svg>