<svg xmlns="http://www.w3.org/2000/svg" width="113" height="82">
  <path d="M 23,0 L 22,1 L 17,1 L 16,2 L 13,2 L 12,3 L 10,3 L 9,4 L 7,4 L 6,5 L 6,6 L 7,7 L 7,19 L 8,20 L 8,23 L 6,25 L 5,25 L 4,26 L 3,26 L 1,28 L 1,29 L 0,30 L 0,33 L 7,40 L 7,41 L 9,41 L 10,42 L 11,42 L 12,41 L 13,41 L 14,40 L 18,40 L 22,36 L 25,36 L 26,35 L 27,35 L 28,36 L 30,36 L 31,35 L 31,34 L 32,33 L 32,32 L 35,29 L 39,29 L 45,23 L 46,23 L 45,22 L 45,21 L 46,20 L 46,19 L 48,17 L 49,18 L 53,18 L 54,17 L 56,19 L 61,19 L 62,18 L 62,17 L 61,16 L 61,14 L 59,12 L 59,11 L 57,9 L 53,9 L 52,8 L 52,7 L 51,6 L 50,6 L 49,5 L 43,5 L 41,3 L 39,3 L 37,1 L 33,1 L 32,2 L 30,2 L 29,3 L 26,0 Z" fill="none" stroke="black" stroke-width="1"/>
</svg>