<svg xmlns="http://www.w3.org/2000/svg" width="113" height="82">
  <path d="M 75,21 L 74,22 L 75,23 L 77,23 L 78,24 L 78,25 L 75,28 L 75,29 L 76,30 L 76,31 L 79,34 L 79,35 L 77,37 L 76,37 L 74,39 L 71,39 L 69,41 L 69,42 L 67,44 L 66,44 L 64,46 L 63,46 L 63,47 L 61,49 L 60,49 L 58,51 L 58,52 L 57,53 L 57,54 L 61,58 L 63,58 L 64,59 L 66,59 L 69,62 L 71,62 L 69,60 L 70,59 L 72,59 L 76,63 L 77,63 L 82,68 L 84,68 L 85,67 L 89,67 L 92,70 L 92,71 L 93,71 L 94,72 L 96,72 L 99,75 L 101,73 L 104,73 L 105,74 L 105,76 L 106,76 L 107,77 L 108,77 L 111,74 L 111,73 L 112,72 L 112,67 L 111,66 L 111,64 L 107,60 L 107,59 L 104,56 L 104,54 L 103,53 L 104,52 L 104,50 L 103,49 L 103,47 L 106,44 L 105,43 L 105,42 L 103,40 L 101,40 L 100,39 L 98,39 L 97,38 L 97,37 L 95,35 L 95,34 L 94,33 L 94,32 L 90,28 L 88,28 L 87,27 L 86,27 L 85,26 L 84,26 L 80,22 L 79,23 L 78,22 L 77,22 L 76,21 Z" fill="none" stroke="black" stroke-width="1"/>
</svg>