<svg xmlns="http://www.w3.org/2000/svg" width="76" height="48">
  <path d="M 55,8 L 54,9 L 54,11 L 53,12 L 52,12 L 51,13 L 48,13 L 47,14 L 47,15 L 48,15 L 51,18 L 51,19 L 52,19 L 53,20 L 53,21 L 54,21 L 55,22 L 55,23 L 53,25 L 52,25 L 52,29 L 50,31 L 50,32 L 51,32 L 52,33 L 53,33 L 55,31 L 57,31 L 58,30 L 62,30 L 64,28 L 65,28 L 66,29 L 69,29 L 70,30 L 72,30 L 73,29 L 74,29 L 74,28 L 75,27 L 75,23 L 74,22 L 72,22 L 70,20 L 69,20 L 68,19 L 68,15 L 65,15 L 64,14 L 64,12 L 62,10 L 61,10 L 60,9 L 57,9 L 56,8 Z" fill="none" stroke="black" stroke-width="1"/>
</svg>