<svg xmlns="http://www.w3.org/2000/svg" width="76" height="48">
  <path d="M 44,0 L 44,1 L 43,2 L 41,2 L 40,3 L 39,3 L 36,6 L 35,6 L 35,7 L 33,9 L 30,9 L 29,10 L 28,10 L 27,11 L 26,11 L 26,12 L 25,13 L 24,13 L 22,15 L 24,15 L 25,16 L 26,16 L 27,17 L 30,17 L 31,18 L 34,18 L 35,19 L 36,19 L 37,20 L 38,20 L 39,19 L 41,19 L 41,17 L 43,15 L 44,15 L 44,14 L 45,13 L 47,13 L 48,12 L 51,12 L 52,11 L 53,11 L 53,9 L 54,8 L 54,7 L 53,6 L 53,5 L 52,5 L 51,4 L 50,4 L 49,3 L 49,2 L 48,2 L 47,1 L 46,1 L 45,0 Z" fill="none" stroke="black" stroke-width="1"/>
</svg>