<svg xmlns="http://www.w3.org/2000/svg" width="71" height="58">
  <path d="M 56,0 L 55,1 L 52,1 L 48,5 L 44,5 L 43,6 L 42,6 L 41,7 L 40,7 L 39,6 L 35,6 L 34,7 L 34,9 L 33,10 L 33,14 L 31,16 L 30,16 L 29,17 L 28,17 L 28,18 L 27,19 L 27,22 L 26,23 L 24,23 L 24,29 L 25,30 L 25,31 L 26,32 L 27,32 L 28,31 L 31,31 L 32,32 L 32,33 L 34,35 L 37,35 L 39,37 L 39,38 L 40,38 L 41,39 L 42,39 L 42,38 L 43,37 L 46,37 L 47,36 L 51,36 L 51,35 L 52,34 L 53,34 L 53,33 L 55,31 L 56,31 L 55,30 L 55,29 L 54,28 L 55,27 L 54,27 L 53,26 L 53,23 L 52,22 L 52,16 L 53,15 L 54,15 L 55,14 L 58,14 L 58,10 L 59,9 L 59,7 L 58,7 L 57,6 L 57,3 L 58,2 L 58,1 L 57,0 Z" fill="none" stroke="black" stroke-width="1"/>
</svg>