<svg xmlns="http://www.w3.org/2000/svg" width="71" height="58">
  <path d="M 2,28 L 2,29 L 0,31 L 0,35 L 2,37 L 2,39 L 4,41 L 4,48 L 5,49 L 5,50 L 9,50 L 10,51 L 14,51 L 15,50 L 17,50 L 19,52 L 22,52 L 23,53 L 30,53 L 30,51 L 31,50 L 31,47 L 32,46 L 32,43 L 33,42 L 33,41 L 34,40 L 34,38 L 33,37 L 33,35 L 31,33 L 31,32 L 28,32 L 27,33 L 26,33 L 24,31 L 24,30 L 23,29 L 23,28 L 21,28 L 21,29 L 19,31 L 18,31 L 17,32 L 16,31 L 15,31 L 13,29 L 11,29 L 9,31 L 8,31 L 6,29 L 5,29 L 4,28 Z" fill="none" stroke="black" stroke-width="1"/>
</svg>