<svg xmlns="http://www.w3.org/2000/svg" width="65" height="73">
  <path d="M 22,17 L 20,19 L 20,20 L 19,21 L 18,21 L 17,22 L 15,22 L 14,21 L 13,21 L 11,19 L 11,20 L 9,22 L 8,22 L 6,24 L 6,27 L 5,28 L 4,28 L 4,29 L 2,31 L 2,33 L 0,35 L 0,37 L 1,37 L 4,40 L 4,42 L 5,43 L 5,45 L 6,46 L 6,48 L 5,49 L 5,50 L 4,51 L 4,52 L 5,52 L 7,54 L 7,56 L 8,57 L 8,59 L 9,60 L 9,61 L 11,59 L 13,59 L 13,58 L 15,56 L 15,55 L 17,53 L 18,53 L 21,50 L 21,48 L 22,47 L 25,47 L 25,45 L 26,44 L 28,44 L 28,40 L 29,39 L 29,34 L 28,33 L 27,33 L 26,32 L 25,32 L 24,31 L 24,29 L 23,28 L 23,25 L 22,24 L 22,23 L 21,22 L 22,21 Z" fill="none" stroke="black" stroke-width="1"/>
</svg>