<svg xmlns="http://www.w3.org/2000/svg" width="69" height="56">
  <path d="M 9,22 L 8,23 L 6,23 L 5,24 L 5,28 L 4,29 L 4,30 L 1,33 L 0,33 L 0,37 L 1,38 L 1,40 L 2,40 L 3,41 L 4,41 L 5,42 L 5,43 L 6,44 L 6,47 L 7,47 L 8,46 L 11,46 L 13,44 L 14,44 L 15,43 L 17,43 L 18,44 L 18,45 L 21,45 L 21,43 L 20,42 L 21,41 L 23,41 L 23,40 L 24,39 L 24,38 L 25,37 L 25,34 L 29,30 L 30,30 L 30,29 L 31,28 L 31,24 L 28,24 L 27,23 L 23,23 L 22,24 L 19,24 L 18,23 L 16,23 L 15,24 L 15,25 L 14,26 L 12,26 L 11,25 L 11,24 Z" fill="none" stroke="black" stroke-width="1"/>
</svg>