<svg xmlns="http://www.w3.org/2000/svg" width="65" height="73">
  <path d="M 26,45 L 26,47 L 25,48 L 22,48 L 22,50 L 18,54 L 17,54 L 16,55 L 16,56 L 14,58 L 14,59 L 13,60 L 11,60 L 9,62 L 9,63 L 10,64 L 10,65 L 14,69 L 15,68 L 15,67 L 16,66 L 19,66 L 22,69 L 22,71 L 23,72 L 26,72 L 27,71 L 28,71 L 29,70 L 31,70 L 32,69 L 38,69 L 39,68 L 40,68 L 41,67 L 41,65 L 43,63 L 44,63 L 46,61 L 46,57 L 44,57 L 43,56 L 39,56 L 38,55 L 36,55 L 33,52 L 33,51 L 32,50 L 32,46 L 31,45 Z" fill="none" stroke="black" stroke-width="1"/>
</svg>