<svg xmlns="http://www.w3.org/2000/svg" width="44" height="65">
  <path d="M 34,0 L 33,1 L 31,1 L 30,2 L 27,2 L 27,3 L 26,4 L 26,6 L 25,7 L 25,8 L 24,9 L 23,9 L 22,10 L 22,12 L 19,15 L 19,16 L 15,20 L 15,21 L 14,22 L 14,23 L 12,25 L 12,27 L 13,28 L 15,28 L 18,25 L 18,23 L 20,21 L 21,21 L 23,19 L 25,19 L 28,16 L 28,15 L 30,13 L 31,13 L 33,15 L 34,15 L 35,14 L 37,14 L 38,15 L 40,15 L 41,14 L 42,14 L 43,13 L 43,10 L 42,9 L 40,9 L 39,8 L 39,6 L 37,4 L 37,3 L 38,2 L 38,1 L 37,1 L 36,0 Z" fill="none" stroke="black" stroke-width="1"/>
</svg>