<svg xmlns="http://www.w3.org/2000/svg" width="65" height="55">
  <path d="M 44,1 L 43,2 L 43,3 L 41,5 L 41,7 L 40,8 L 40,9 L 39,10 L 39,14 L 37,16 L 37,17 L 36,18 L 36,23 L 35,24 L 37,26 L 37,27 L 39,29 L 39,31 L 38,32 L 38,34 L 39,35 L 39,36 L 40,37 L 40,38 L 42,38 L 43,39 L 43,44 L 45,44 L 46,45 L 47,45 L 47,44 L 52,39 L 54,39 L 54,38 L 55,37 L 58,37 L 59,36 L 63,36 L 64,37 L 64,34 L 62,32 L 62,29 L 59,26 L 59,22 L 58,21 L 57,21 L 56,20 L 56,19 L 55,19 L 54,18 L 54,16 L 53,15 L 53,13 L 54,12 L 53,11 L 53,7 L 54,6 L 54,5 L 52,3 L 48,3 L 47,2 L 46,2 L 45,1 Z" fill="none" stroke="black" stroke-width="1"/>
</svg>