<svg xmlns="http://www.w3.org/2000/svg" width="86" height="54">
  <path d="M 26,32 L 24,34 L 24,35 L 23,36 L 20,36 L 19,37 L 18,37 L 16,39 L 14,39 L 13,40 L 12,40 L 11,41 L 10,41 L 9,42 L 9,48 L 10,48 L 11,49 L 13,49 L 14,50 L 15,50 L 17,52 L 18,52 L 19,53 L 20,53 L 22,51 L 26,51 L 26,50 L 27,49 L 28,49 L 29,50 L 31,50 L 32,49 L 33,49 L 35,47 L 37,47 L 37,45 L 36,44 L 36,43 L 37,42 L 37,41 L 36,41 L 33,38 L 33,37 L 32,36 L 32,35 L 30,33 L 30,32 Z" fill="none" stroke="black" stroke-width="1"/>
</svg>