<svg xmlns="http://www.w3.org/2000/svg" width="70" height="65">
  <path d="M 60,0 L 59,1 L 55,1 L 54,2 L 52,2 L 52,3 L 51,4 L 48,4 L 47,5 L 46,5 L 45,4 L 43,4 L 42,3 L 34,3 L 33,4 L 32,4 L 30,6 L 30,10 L 33,10 L 34,11 L 34,12 L 36,12 L 37,13 L 37,15 L 39,15 L 40,16 L 40,18 L 41,19 L 41,20 L 43,20 L 43,19 L 44,18 L 44,17 L 46,15 L 49,15 L 50,14 L 50,13 L 51,12 L 52,12 L 53,11 L 54,11 L 55,12 L 58,12 L 59,13 L 61,13 L 64,10 L 64,9 L 65,8 L 66,8 L 67,7 L 69,7 L 69,5 L 67,3 L 67,2 L 65,0 Z" fill="none" stroke="black" stroke-width="1"/>
</svg>