<svg xmlns="http://www.w3.org/2000/svg" width="55" height="45">
  <path d="M 3,0 L 3,2 L 2,3 L 2,4 L 0,6 L 0,8 L 2,8 L 3,9 L 3,15 L 4,16 L 4,17 L 6,17 L 6,16 L 7,15 L 8,15 L 9,14 L 12,14 L 13,13 L 14,13 L 15,12 L 20,12 L 21,13 L 21,15 L 22,16 L 22,18 L 23,18 L 24,19 L 24,20 L 25,21 L 25,22 L 28,22 L 28,20 L 29,19 L 30,19 L 30,15 L 31,14 L 33,14 L 35,12 L 35,11 L 34,11 L 33,10 L 33,7 L 32,6 L 28,6 L 27,5 L 25,5 L 24,4 L 20,4 L 18,2 L 12,2 L 11,3 L 6,3 L 5,2 L 5,1 L 4,1 Z" fill="none" stroke="black" stroke-width="1"/>
</svg>