<svg xmlns="http://www.w3.org/2000/svg" width="55" height="45">
  <path d="M 38,10 L 37,11 L 36,11 L 36,12 L 33,15 L 31,15 L 31,19 L 30,20 L 29,20 L 29,29 L 28,30 L 27,30 L 27,32 L 28,33 L 28,34 L 32,34 L 34,36 L 34,37 L 35,37 L 36,38 L 38,38 L 39,39 L 39,41 L 40,41 L 41,40 L 42,40 L 43,41 L 43,42 L 42,43 L 42,44 L 43,44 L 45,42 L 46,42 L 47,41 L 50,41 L 49,40 L 49,39 L 48,38 L 48,37 L 49,36 L 49,33 L 52,30 L 52,29 L 53,28 L 53,27 L 54,26 L 53,25 L 51,25 L 49,23 L 49,21 L 48,20 L 47,20 L 46,19 L 46,18 L 45,17 L 45,14 L 46,13 L 46,10 Z" fill="none" stroke="black" stroke-width="1"/>
</svg>