<svg xmlns="http://www.w3.org/2000/svg" width="34" height="44">
  <path d="M 0,12 L 0,13 L 2,13 L 2,12 Z" fill="none" stroke="black" stroke-width="1"/>
  <path d="M 11,5 L 10,6 L 8,6 L 7,7 L 7,11 L 6,12 L 6,13 L 4,15 L 4,21 L 3,22 L 3,23 L 2,24 L 4,24 L 6,26 L 8,26 L 10,28 L 12,28 L 13,29 L 16,26 L 16,23 L 17,22 L 18,22 L 19,21 L 19,17 L 20,16 L 20,15 L 19,15 L 18,14 L 18,11 L 15,8 L 15,7 L 13,7 L 12,6 L 12,5 Z" fill="none" stroke="black" stroke-width="1"/>
  <path d="M 3,0 L 3,3 L 4,3 L 5,4 L 8,4 L 8,3 L 6,1 L 5,1 L 4,0 Z" fill="none" stroke="black" stroke-width="1"/>
</svg>