<svg xmlns="http://www.w3.org/2000/svg" width="78" height="104">
  <path d="M 58,0 L 57,1 L 56,1 L 55,2 L 51,2 L 49,4 L 48,4 L 48,6 L 47,7 L 46,7 L 45,8 L 40,8 L 40,9 L 41,10 L 41,13 L 40,14 L 40,17 L 39,18 L 38,17 L 38,18 L 39,19 L 39,21 L 33,27 L 32,27 L 31,26 L 28,26 L 27,25 L 26,25 L 23,22 L 22,22 L 21,21 L 20,21 L 18,23 L 18,24 L 19,25 L 19,27 L 21,27 L 22,28 L 23,28 L 25,30 L 25,31 L 26,32 L 26,34 L 29,34 L 30,35 L 32,35 L 33,36 L 33,38 L 34,38 L 35,39 L 35,40 L 37,42 L 37,48 L 38,49 L 38,50 L 39,51 L 44,51 L 45,52 L 45,53 L 48,53 L 49,54 L 49,55 L 51,55 L 52,56 L 52,58 L 58,64 L 58,65 L 60,65 L 61,66 L 61,67 L 62,67 L 63,68 L 63,69 L 64,70 L 66,70 L 67,71 L 67,72 L 68,72 L 70,70 L 71,70 L 71,67 L 72,66 L 72,65 L 73,64 L 73,59 L 72,58 L 72,57 L 71,56 L 71,54 L 70,53 L 70,51 L 69,50 L 69,49 L 68,48 L 68,47 L 69,46 L 73,46 L 75,44 L 75,43 L 77,41 L 77,39 L 75,37 L 75,36 L 74,36 L 73,35 L 73,34 L 71,34 L 70,33 L 69,33 L 66,30 L 66,28 L 67,27 L 67,21 L 68,20 L 68,15 L 67,14 L 67,12 L 64,9 L 64,7 L 65,6 L 65,3 L 64,3 L 62,1 L 61,1 L 60,0 Z" fill="none" stroke="black" stroke-width="1"/>
</svg>