<svg xmlns="http://www.w3.org/2000/svg" width="46" height="54">
  <path d="M 21,0 L 21,1 L 20,2 L 20,3 L 18,5 L 17,5 L 16,6 L 16,9 L 15,10 L 15,11 L 18,11 L 19,10 L 20,10 L 22,12 L 22,13 L 26,17 L 28,17 L 29,16 L 31,16 L 32,17 L 33,17 L 34,16 L 37,19 L 38,19 L 39,20 L 41,18 L 41,17 L 42,16 L 42,15 L 43,14 L 43,13 L 44,12 L 44,11 L 45,10 L 45,9 L 44,8 L 44,6 L 43,5 L 43,4 L 42,5 L 38,5 L 36,3 L 29,3 L 28,2 L 28,1 L 27,1 L 26,2 L 24,2 L 23,1 L 22,1 Z" fill="none" stroke="black" stroke-width="1"/>
</svg>