<svg xmlns="http://www.w3.org/2000/svg" width="202" height="154">
  <path d="M 94,0 L 93,1 L 92,1 L 90,3 L 89,3 L 86,6 L 85,6 L 86,7 L 86,8 L 85,9 L 84,9 L 83,10 L 83,12 L 79,16 L 78,16 L 77,17 L 75,17 L 73,19 L 72,19 L 69,22 L 68,22 L 67,23 L 67,24 L 64,27 L 61,27 L 60,28 L 56,28 L 55,29 L 54,29 L 53,30 L 52,30 L 50,32 L 48,32 L 47,33 L 46,33 L 45,34 L 43,34 L 41,36 L 38,36 L 35,33 L 33,33 L 31,35 L 30,35 L 29,36 L 28,36 L 25,39 L 24,39 L 23,40 L 22,40 L 21,41 L 20,41 L 19,42 L 17,42 L 15,44 L 10,44 L 9,43 L 6,43 L 6,45 L 5,46 L 5,50 L 4,51 L 4,52 L 1,55 L 1,56 L 0,57 L 0,60 L 3,63 L 4,62 L 5,62 L 8,59 L 9,59 L 9,58 L 10,57 L 11,57 L 12,56 L 13,56 L 14,55 L 16,55 L 17,54 L 20,54 L 21,55 L 23,55 L 25,53 L 26,53 L 27,54 L 28,53 L 32,53 L 33,54 L 34,53 L 36,55 L 36,56 L 37,57 L 38,57 L 39,56 L 41,56 L 42,55 L 44,55 L 45,54 L 60,54 L 61,53 L 65,53 L 66,52 L 74,52 L 75,53 L 76,53 L 78,55 L 79,55 L 80,56 L 82,56 L 84,58 L 84,59 L 88,59 L 89,60 L 93,60 L 94,59 L 97,59 L 99,61 L 100,61 L 101,62 L 103,62 L 104,63 L 112,63 L 114,61 L 115,61 L 116,62 L 119,62 L 120,61 L 121,61 L 124,58 L 125,58 L 133,50 L 134,50 L 135,49 L 137,49 L 138,48 L 139,48 L 140,47 L 141,47 L 142,46 L 143,46 L 144,45 L 145,45 L 146,44 L 152,44 L 153,43 L 175,43 L 176,42 L 177,42 L 177,41 L 180,38 L 182,38 L 184,36 L 185,36 L 190,31 L 191,31 L 193,29 L 194,29 L 195,28 L 196,28 L 199,25 L 200,25 L 201,24 L 201,23 L 196,18 L 196,17 L 195,16 L 195,15 L 194,14 L 194,13 L 192,11 L 191,11 L 187,7 L 187,6 L 182,6 L 181,5 L 175,5 L 174,6 L 164,6 L 163,5 L 159,5 L 158,6 L 156,6 L 155,7 L 155,8 L 153,10 L 152,10 L 151,9 L 150,9 L 148,7 L 148,6 L 147,5 L 146,5 L 145,4 L 141,4 L 139,6 L 137,6 L 136,7 L 134,7 L 131,10 L 128,7 L 122,7 L 121,8 L 116,8 L 116,9 L 115,10 L 114,9 L 112,9 L 111,10 L 110,10 L 109,11 L 108,10 L 108,9 L 111,6 L 109,6 L 108,5 L 106,5 L 105,4 L 103,4 L 102,5 L 101,5 L 100,4 L 100,3 L 98,1 L 97,1 L 96,0 Z" fill="none" stroke="black" stroke-width="1"/>
</svg>