<svg xmlns="http://www.w3.org/2000/svg" width="157" height="146">
  <path d="M 146,0 L 140,6 L 138,6 L 137,7 L 136,6 L 132,6 L 131,7 L 130,7 L 128,9 L 127,9 L 126,10 L 122,10 L 121,11 L 118,11 L 117,12 L 116,12 L 115,13 L 112,13 L 110,15 L 108,15 L 107,14 L 103,14 L 101,16 L 100,16 L 99,15 L 93,15 L 92,16 L 91,15 L 88,15 L 87,16 L 82,16 L 80,14 L 77,14 L 76,13 L 75,13 L 74,14 L 73,14 L 72,15 L 71,15 L 70,16 L 69,16 L 69,17 L 70,18 L 76,18 L 77,19 L 78,19 L 79,20 L 80,20 L 81,19 L 82,19 L 83,20 L 87,20 L 88,21 L 89,21 L 90,22 L 90,24 L 89,25 L 89,26 L 90,27 L 90,32 L 91,31 L 93,31 L 95,33 L 96,33 L 97,32 L 98,32 L 99,31 L 113,31 L 116,28 L 117,28 L 117,27 L 118,26 L 119,26 L 120,27 L 121,27 L 122,28 L 126,28 L 127,29 L 128,29 L 129,28 L 131,28 L 133,26 L 137,26 L 138,25 L 139,25 L 141,23 L 142,23 L 154,11 L 154,10 L 156,8 L 156,4 L 155,4 L 153,2 L 152,2 L 151,1 L 149,1 L 148,0 Z" fill="none" stroke="black" stroke-width="1"/>
</svg>