<svg xmlns="http://www.w3.org/2000/svg" width="157" height="146">
  <path d="M 78,89 L 77,90 L 74,90 L 72,92 L 65,92 L 64,93 L 62,93 L 61,94 L 60,94 L 59,95 L 56,95 L 55,94 L 54,94 L 52,96 L 49,96 L 48,97 L 47,97 L 45,99 L 45,100 L 44,101 L 44,104 L 43,105 L 43,107 L 46,107 L 50,111 L 54,111 L 55,110 L 57,110 L 58,111 L 58,113 L 60,113 L 61,114 L 61,115 L 62,116 L 63,116 L 68,121 L 75,121 L 76,122 L 76,124 L 75,125 L 75,126 L 74,127 L 79,132 L 79,134 L 78,135 L 78,136 L 77,137 L 76,137 L 76,138 L 77,139 L 78,139 L 79,140 L 79,141 L 81,143 L 81,145 L 84,145 L 85,144 L 89,144 L 90,145 L 96,145 L 96,143 L 95,142 L 95,139 L 94,138 L 94,131 L 93,130 L 93,129 L 90,126 L 90,124 L 91,123 L 91,122 L 92,121 L 92,120 L 93,119 L 93,118 L 94,117 L 96,117 L 97,116 L 99,116 L 99,115 L 98,114 L 98,113 L 97,112 L 96,112 L 94,110 L 94,108 L 93,107 L 93,105 L 95,103 L 95,102 L 96,101 L 94,99 L 93,99 L 91,97 L 91,96 L 90,95 L 90,94 L 89,93 L 89,92 L 81,92 Z" fill="none" stroke="black" stroke-width="1"/>
</svg>