<svg xmlns="http://www.w3.org/2000/svg" width="188" height="124">
  <path d="M 99,0 L 97,2 L 96,2 L 96,3 L 95,4 L 95,5 L 92,8 L 92,9 L 90,11 L 90,13 L 91,14 L 91,19 L 90,20 L 90,21 L 86,25 L 86,26 L 84,28 L 84,29 L 83,30 L 83,31 L 79,35 L 78,35 L 78,36 L 77,37 L 77,40 L 76,41 L 76,42 L 74,44 L 69,44 L 67,42 L 62,42 L 61,43 L 59,43 L 59,44 L 58,45 L 58,46 L 57,47 L 57,48 L 56,49 L 56,51 L 59,54 L 59,55 L 60,56 L 60,63 L 61,64 L 61,67 L 62,68 L 62,70 L 65,70 L 66,69 L 67,69 L 68,70 L 70,70 L 70,69 L 75,64 L 76,64 L 78,62 L 85,62 L 87,60 L 88,60 L 89,59 L 91,59 L 92,58 L 93,58 L 94,57 L 97,57 L 98,56 L 99,56 L 100,57 L 101,57 L 102,58 L 106,58 L 106,57 L 108,55 L 108,52 L 111,49 L 113,49 L 109,45 L 109,44 L 111,42 L 111,41 L 110,41 L 109,40 L 109,39 L 110,38 L 110,36 L 111,35 L 112,35 L 116,31 L 117,31 L 117,25 L 118,24 L 119,24 L 121,22 L 125,22 L 127,20 L 127,19 L 128,18 L 128,16 L 130,14 L 130,11 L 126,11 L 125,12 L 124,12 L 123,13 L 122,13 L 121,14 L 120,14 L 118,16 L 117,16 L 116,17 L 114,17 L 113,18 L 111,18 L 110,19 L 108,19 L 107,18 L 106,18 L 105,17 L 103,17 L 102,16 L 101,16 L 100,15 L 100,14 L 98,12 L 98,7 L 99,6 L 99,5 L 100,4 L 100,1 Z" fill="none" stroke="black" stroke-width="1"/>
</svg>