<svg xmlns="http://www.w3.org/2000/svg" width="125" height="93">
  <path d="M 20,79 L 21,80 L 22,80 L 22,79 Z" fill="none" stroke="black" stroke-width="1"/>
  <path d="M 21,35 L 19,37 L 19,39 L 17,41 L 16,41 L 15,42 L 14,42 L 13,43 L 12,43 L 11,44 L 8,44 L 8,45 L 10,47 L 10,48 L 11,49 L 11,51 L 12,52 L 12,56 L 13,57 L 13,59 L 12,60 L 12,69 L 13,70 L 13,74 L 12,75 L 12,76 L 10,78 L 10,79 L 11,80 L 11,81 L 10,82 L 8,82 L 7,83 L 6,83 L 5,82 L 4,83 L 2,83 L 1,84 L 0,84 L 0,87 L 2,89 L 2,90 L 3,91 L 3,92 L 5,90 L 5,88 L 4,88 L 3,87 L 3,86 L 4,85 L 6,85 L 7,86 L 8,86 L 9,85 L 10,85 L 11,86 L 11,87 L 11,85 L 14,82 L 15,82 L 15,81 L 16,80 L 16,79 L 18,77 L 18,76 L 19,75 L 20,75 L 20,74 L 21,73 L 24,73 L 25,74 L 23,76 L 22,76 L 22,77 L 24,77 L 26,75 L 27,75 L 29,73 L 30,74 L 30,76 L 29,77 L 29,82 L 29,81 L 30,80 L 31,80 L 33,82 L 34,81 L 35,81 L 36,82 L 36,83 L 37,83 L 38,82 L 40,82 L 40,81 L 42,79 L 42,78 L 45,75 L 45,69 L 44,68 L 42,68 L 41,69 L 40,69 L 39,70 L 37,70 L 35,68 L 35,64 L 33,62 L 33,61 L 29,57 L 31,55 L 31,49 L 32,48 L 33,48 L 35,46 L 35,45 L 34,44 L 34,43 L 35,42 L 33,42 L 32,41 L 30,41 L 28,39 L 27,39 L 26,38 L 25,38 L 24,37 L 23,37 L 22,36 L 22,35 Z" fill="none" stroke="black" stroke-width="1"/>
</svg>