<svg xmlns="http://www.w3.org/2000/svg" width="73" height="73">
  <path d="M 24,0 L 23,1 L 23,10 L 24,11 L 24,13 L 19,18 L 19,19 L 22,19 L 25,22 L 25,23 L 24,24 L 24,26 L 23,27 L 24,28 L 24,29 L 25,30 L 25,31 L 28,34 L 28,35 L 30,37 L 30,38 L 31,39 L 32,39 L 36,35 L 37,35 L 38,34 L 39,34 L 40,33 L 42,33 L 44,31 L 44,27 L 45,26 L 46,26 L 46,24 L 47,23 L 47,22 L 46,21 L 46,19 L 47,18 L 49,18 L 49,17 L 48,16 L 48,15 L 47,14 L 47,11 L 43,11 L 42,10 L 41,10 L 40,9 L 39,9 L 38,8 L 37,8 L 33,4 L 32,4 L 31,3 L 30,3 L 28,1 L 27,1 L 26,0 Z" fill="none" stroke="black" stroke-width="1"/>
</svg>