<svg xmlns="http://www.w3.org/2000/svg" width="73" height="73">
  <path d="M 44,32 L 42,34 L 40,34 L 39,35 L 38,35 L 37,36 L 36,36 L 32,40 L 31,40 L 30,39 L 30,43 L 29,44 L 29,46 L 30,46 L 33,49 L 32,50 L 32,51 L 33,52 L 34,52 L 35,53 L 35,55 L 36,56 L 39,56 L 40,57 L 42,57 L 42,56 L 43,55 L 43,54 L 44,53 L 47,53 L 49,55 L 50,55 L 51,56 L 51,59 L 52,60 L 53,60 L 53,58 L 54,57 L 55,57 L 56,56 L 58,56 L 59,55 L 60,56 L 61,56 L 62,55 L 64,55 L 64,54 L 63,53 L 63,52 L 65,50 L 65,49 L 66,48 L 66,44 L 65,43 L 65,42 L 64,41 L 59,41 L 58,40 L 57,40 L 56,39 L 55,39 L 52,36 L 52,34 L 51,33 L 50,33 L 49,34 L 48,34 L 47,33 L 46,33 L 45,32 Z" fill="none" stroke="black" stroke-width="1"/>
</svg>