<svg xmlns="http://www.w3.org/2000/svg" width="105" height="72">
  <path d="M 72,41 L 71,42 L 71,44 L 70,45 L 70,46 L 66,50 L 65,50 L 64,51 L 64,55 L 63,56 L 60,56 L 60,57 L 59,58 L 59,59 L 57,61 L 57,62 L 56,63 L 56,64 L 59,67 L 59,69 L 60,69 L 61,68 L 62,69 L 63,68 L 64,68 L 66,66 L 67,66 L 68,65 L 69,65 L 70,64 L 74,64 L 75,65 L 75,66 L 76,67 L 79,67 L 80,68 L 82,68 L 83,69 L 84,69 L 85,70 L 87,70 L 88,71 L 91,71 L 92,70 L 92,68 L 93,67 L 94,67 L 95,66 L 95,64 L 96,63 L 97,63 L 99,61 L 101,61 L 102,60 L 103,60 L 103,59 L 102,58 L 103,57 L 103,56 L 102,55 L 101,55 L 100,54 L 99,54 L 98,53 L 90,53 L 89,52 L 88,52 L 87,51 L 87,50 L 85,50 L 80,45 L 79,45 L 77,43 L 75,43 L 73,41 Z" fill="none" stroke="black" stroke-width="1"/>
</svg>