<svg xmlns="http://www.w3.org/2000/svg" width="83" height="100">
  <path d="M 11,35 L 10,36 L 9,36 L 8,37 L 7,37 L 5,39 L 4,39 L 3,40 L 2,39 L 1,40 L 1,41 L 0,42 L 0,43 L 1,44 L 2,44 L 4,46 L 4,50 L 6,52 L 7,51 L 8,51 L 9,50 L 10,50 L 11,51 L 12,51 L 15,54 L 15,61 L 14,62 L 14,63 L 16,63 L 17,64 L 22,64 L 23,63 L 26,63 L 27,64 L 28,64 L 31,67 L 32,67 L 33,66 L 33,64 L 32,63 L 33,62 L 33,60 L 32,59 L 32,58 L 30,56 L 30,54 L 33,51 L 34,52 L 35,52 L 36,51 L 37,51 L 37,50 L 39,48 L 39,47 L 40,46 L 40,45 L 38,43 L 35,43 L 34,42 L 29,42 L 28,41 L 26,41 L 25,40 L 24,40 L 23,39 L 21,39 L 20,38 L 17,38 L 15,36 L 15,35 Z" fill="none" stroke="black" stroke-width="1"/>
</svg>