<svg xmlns="http://www.w3.org/2000/svg" width="95" height="92">
  <path d="M 82,29 L 79,32 L 79,33 L 77,35 L 71,35 L 70,36 L 69,36 L 68,35 L 67,36 L 67,37 L 68,38 L 68,39 L 67,40 L 67,42 L 68,43 L 68,44 L 67,45 L 62,45 L 61,46 L 61,48 L 68,55 L 68,56 L 69,57 L 69,59 L 71,61 L 71,64 L 72,65 L 73,65 L 75,67 L 75,69 L 76,69 L 77,68 L 77,66 L 82,61 L 83,61 L 86,58 L 87,58 L 90,55 L 91,55 L 92,54 L 90,52 L 90,51 L 89,50 L 89,49 L 87,47 L 87,46 L 90,43 L 90,42 L 89,41 L 89,39 L 86,36 L 86,35 L 85,34 L 85,33 L 84,32 L 84,29 Z" fill="none" stroke="black" stroke-width="1"/>
</svg>