<svg xmlns="http://www.w3.org/2000/svg" width="180" height="109">
  <path d="M 117,0 L 116,1 L 115,1 L 111,5 L 111,7 L 110,8 L 110,10 L 108,12 L 108,13 L 107,14 L 107,15 L 111,19 L 111,20 L 112,20 L 115,23 L 115,24 L 116,25 L 116,28 L 117,29 L 117,31 L 118,32 L 118,33 L 119,34 L 119,35 L 121,37 L 121,41 L 123,43 L 123,45 L 124,45 L 125,46 L 125,47 L 126,48 L 128,48 L 129,49 L 129,45 L 130,44 L 130,43 L 131,42 L 131,41 L 133,39 L 133,38 L 139,32 L 147,32 L 151,28 L 152,28 L 152,27 L 153,26 L 153,24 L 155,22 L 156,22 L 157,21 L 159,21 L 160,20 L 172,20 L 172,19 L 173,18 L 173,17 L 172,16 L 171,16 L 170,15 L 169,15 L 166,12 L 166,11 L 165,10 L 165,9 L 164,9 L 163,8 L 151,8 L 150,7 L 149,7 L 148,6 L 140,6 L 139,5 L 138,5 L 137,4 L 134,4 L 133,3 L 132,3 L 131,2 L 130,2 L 129,1 L 128,1 L 127,0 Z" fill="none" stroke="black" stroke-width="1"/>
</svg>