<svg xmlns="http://www.w3.org/2000/svg" width="119" height="87">
  <path d="M 24,38 L 22,40 L 20,40 L 19,41 L 16,41 L 15,40 L 13,40 L 12,41 L 10,39 L 4,39 L 2,41 L 2,44 L 3,45 L 3,46 L 0,49 L 0,52 L 3,55 L 3,56 L 4,57 L 4,60 L 3,61 L 3,63 L 4,64 L 4,66 L 5,66 L 8,69 L 8,70 L 12,74 L 15,74 L 17,72 L 17,70 L 16,69 L 16,68 L 17,67 L 17,65 L 19,63 L 24,63 L 26,61 L 28,61 L 29,60 L 31,62 L 31,63 L 33,65 L 33,68 L 36,71 L 37,71 L 38,72 L 40,72 L 42,70 L 43,70 L 44,69 L 45,69 L 46,68 L 49,68 L 51,66 L 52,66 L 52,65 L 51,65 L 49,63 L 47,63 L 46,62 L 46,61 L 49,58 L 50,58 L 52,56 L 52,48 L 49,48 L 48,49 L 46,49 L 45,48 L 43,48 L 42,47 L 41,47 L 39,49 L 38,49 L 37,48 L 35,48 L 34,49 L 33,49 L 32,48 L 31,48 L 30,47 L 29,47 L 27,45 L 27,44 L 30,41 L 31,41 L 31,40 L 30,40 L 29,39 L 28,39 L 27,38 Z" fill="none" stroke="black" stroke-width="1"/>
</svg>