<svg xmlns="http://www.w3.org/2000/svg" width="188" height="122">
  <path d="M 61,32 L 60,33 L 59,33 L 59,34 L 56,37 L 55,37 L 53,39 L 51,39 L 50,38 L 45,38 L 43,40 L 39,40 L 38,39 L 37,39 L 36,38 L 36,37 L 33,37 L 30,34 L 29,34 L 28,33 L 24,33 L 22,35 L 22,36 L 20,38 L 20,39 L 18,41 L 13,41 L 13,43 L 12,44 L 12,45 L 13,46 L 13,47 L 14,48 L 14,49 L 15,50 L 15,55 L 14,56 L 14,57 L 13,58 L 13,60 L 14,61 L 14,62 L 15,63 L 15,64 L 18,67 L 18,74 L 19,74 L 22,77 L 22,79 L 21,80 L 21,81 L 22,81 L 24,83 L 26,83 L 27,84 L 29,84 L 30,83 L 35,83 L 36,84 L 37,84 L 38,85 L 39,85 L 40,86 L 41,86 L 42,87 L 45,87 L 46,86 L 48,86 L 50,84 L 52,84 L 54,82 L 57,82 L 58,83 L 59,83 L 59,82 L 58,81 L 58,78 L 59,77 L 59,74 L 60,73 L 60,72 L 63,69 L 64,69 L 64,68 L 68,64 L 68,61 L 66,59 L 66,57 L 65,56 L 65,52 L 66,51 L 66,49 L 67,48 L 67,47 L 68,46 L 68,45 L 69,44 L 69,42 L 74,37 L 75,37 L 75,35 L 76,34 L 75,33 L 74,33 L 73,34 L 65,34 L 64,33 L 62,33 Z" fill="none" stroke="black" stroke-width="1"/>
</svg>