<svg xmlns="http://www.w3.org/2000/svg" width="139" height="160">
  <path d="M 104,74 L 103,75 L 103,76 L 102,77 L 102,82 L 103,83 L 103,86 L 104,87 L 104,94 L 103,95 L 103,98 L 102,99 L 102,101 L 98,105 L 97,105 L 95,107 L 95,112 L 100,117 L 100,118 L 99,119 L 99,120 L 96,123 L 96,126 L 92,130 L 91,130 L 90,131 L 89,131 L 89,134 L 90,135 L 92,135 L 93,136 L 93,137 L 94,138 L 94,140 L 95,141 L 95,143 L 97,145 L 97,147 L 98,148 L 98,149 L 100,151 L 100,152 L 101,153 L 102,153 L 105,156 L 105,159 L 106,159 L 107,158 L 123,158 L 124,159 L 128,159 L 128,153 L 127,152 L 127,145 L 129,143 L 129,141 L 130,140 L 130,138 L 129,137 L 129,135 L 130,134 L 130,132 L 131,131 L 131,128 L 130,127 L 130,125 L 133,122 L 134,122 L 134,114 L 136,112 L 136,111 L 137,110 L 137,108 L 138,107 L 138,101 L 137,100 L 137,97 L 133,93 L 132,93 L 127,88 L 127,86 L 125,84 L 125,83 L 124,82 L 123,82 L 122,81 L 119,81 L 118,82 L 116,82 L 115,81 L 114,81 L 112,79 L 112,77 L 110,75 L 109,75 L 108,74 L 107,75 L 106,75 L 105,74 Z" fill="none" stroke="black" stroke-width="1"/>
</svg>