<svg xmlns="http://www.w3.org/2000/svg" width="207" height="117">
  <path d="M 49,45 L 47,47 L 46,47 L 42,51 L 42,53 L 41,54 L 41,55 L 40,56 L 40,57 L 39,58 L 34,58 L 34,59 L 33,60 L 30,60 L 29,61 L 28,61 L 27,62 L 25,62 L 22,65 L 19,65 L 18,66 L 18,67 L 20,69 L 20,70 L 21,71 L 20,72 L 19,72 L 18,73 L 18,77 L 19,78 L 19,79 L 16,82 L 14,82 L 14,83 L 13,84 L 11,84 L 11,87 L 9,89 L 6,89 L 5,88 L 4,89 L 3,88 L 1,88 L 0,89 L 0,90 L 2,92 L 4,92 L 5,91 L 7,91 L 8,90 L 11,90 L 12,91 L 15,91 L 16,92 L 17,92 L 18,93 L 19,93 L 20,94 L 22,94 L 23,95 L 24,95 L 26,97 L 27,97 L 29,99 L 30,99 L 33,102 L 34,102 L 35,103 L 38,103 L 40,105 L 40,106 L 38,108 L 38,109 L 39,110 L 39,112 L 40,112 L 41,111 L 43,111 L 44,110 L 47,110 L 48,109 L 50,109 L 51,108 L 53,108 L 54,109 L 56,109 L 57,110 L 60,110 L 61,111 L 64,111 L 65,110 L 65,109 L 64,108 L 63,108 L 62,107 L 62,106 L 61,105 L 61,103 L 62,102 L 62,101 L 63,100 L 63,99 L 64,98 L 64,97 L 65,96 L 65,92 L 67,90 L 67,88 L 68,87 L 68,85 L 69,84 L 69,82 L 70,81 L 70,80 L 71,79 L 71,78 L 72,77 L 72,71 L 71,70 L 71,69 L 70,68 L 69,68 L 66,65 L 66,63 L 65,63 L 64,62 L 64,60 L 61,57 L 61,56 L 60,55 L 57,55 L 56,54 L 56,52 L 55,51 L 55,49 L 56,48 L 53,48 L 50,45 Z" fill="none" stroke="black" stroke-width="1"/>
</svg>