<svg xmlns="http://www.w3.org/2000/svg" width="207" height="117">
  <path d="M 73,72 L 73,77 L 72,78 L 72,79 L 71,80 L 71,81 L 70,82 L 70,84 L 69,85 L 69,87 L 68,88 L 68,90 L 66,92 L 66,96 L 65,97 L 65,98 L 64,99 L 64,100 L 63,101 L 63,102 L 62,103 L 62,105 L 63,106 L 63,107 L 64,107 L 66,109 L 66,110 L 64,112 L 63,112 L 67,116 L 68,116 L 69,115 L 71,115 L 72,116 L 80,116 L 81,115 L 83,115 L 84,114 L 85,114 L 89,110 L 92,110 L 94,108 L 94,107 L 96,105 L 96,102 L 97,101 L 98,101 L 100,99 L 101,99 L 103,97 L 105,97 L 106,96 L 112,96 L 112,95 L 110,93 L 108,93 L 105,90 L 103,90 L 102,89 L 101,89 L 98,86 L 98,81 L 100,79 L 100,78 L 101,77 L 101,76 L 91,76 L 90,77 L 87,77 L 86,76 L 84,76 L 83,75 L 80,75 L 78,73 L 76,73 L 75,72 Z" fill="none" stroke="black" stroke-width="1"/>
</svg>