<svg xmlns="http://www.w3.org/2000/svg" width="183" height="113">
  <path d="M 27,53 L 26,54 L 24,54 L 23,55 L 20,55 L 19,56 L 17,56 L 16,57 L 11,57 L 10,58 L 9,58 L 8,59 L 3,59 L 2,60 L 1,60 L 0,61 L 2,63 L 3,63 L 4,62 L 6,62 L 7,63 L 9,63 L 10,64 L 10,65 L 8,67 L 8,68 L 7,69 L 7,70 L 8,71 L 8,77 L 9,78 L 9,79 L 10,80 L 10,81 L 11,82 L 11,84 L 12,85 L 12,86 L 13,87 L 13,88 L 14,89 L 14,93 L 15,94 L 13,96 L 12,95 L 11,95 L 9,97 L 8,97 L 9,98 L 10,98 L 11,99 L 10,100 L 9,100 L 8,101 L 6,101 L 5,102 L 5,103 L 4,104 L 5,105 L 5,107 L 6,108 L 5,109 L 6,110 L 6,112 L 7,112 L 9,110 L 10,110 L 11,109 L 13,109 L 14,110 L 16,110 L 17,109 L 19,109 L 20,108 L 21,109 L 22,109 L 23,108 L 25,108 L 26,107 L 27,108 L 30,108 L 31,109 L 34,109 L 35,108 L 37,108 L 38,107 L 42,107 L 44,105 L 46,105 L 47,104 L 47,103 L 46,103 L 45,102 L 44,102 L 43,101 L 46,98 L 48,98 L 49,97 L 57,97 L 58,98 L 60,98 L 60,96 L 59,95 L 59,93 L 56,90 L 55,90 L 54,89 L 53,89 L 52,88 L 51,88 L 49,86 L 49,85 L 46,85 L 45,84 L 42,84 L 41,83 L 40,83 L 39,82 L 38,82 L 37,81 L 37,80 L 36,79 L 36,76 L 35,76 L 33,74 L 33,70 L 35,68 L 36,68 L 37,67 L 38,67 L 39,66 L 40,66 L 41,65 L 41,64 L 42,63 L 42,60 L 38,56 L 37,56 L 36,55 L 33,55 L 32,54 L 30,54 L 29,53 Z" fill="none" stroke="black" stroke-width="1"/>
</svg>