<svg xmlns="http://www.w3.org/2000/svg" width="156" height="65">
  <path d="M 59,1 L 55,5 L 53,5 L 52,6 L 51,6 L 50,7 L 48,7 L 47,8 L 44,8 L 43,9 L 40,9 L 39,10 L 37,10 L 36,11 L 37,12 L 37,14 L 36,15 L 36,20 L 37,21 L 37,25 L 36,26 L 36,30 L 38,32 L 38,33 L 41,36 L 41,39 L 43,41 L 41,43 L 41,44 L 42,44 L 43,43 L 44,43 L 45,42 L 46,42 L 48,40 L 51,40 L 52,39 L 53,39 L 54,38 L 55,38 L 56,37 L 62,37 L 63,38 L 72,38 L 73,37 L 78,37 L 79,36 L 80,36 L 81,35 L 86,35 L 87,36 L 90,36 L 91,35 L 90,34 L 89,34 L 88,33 L 86,33 L 85,32 L 83,32 L 82,31 L 82,30 L 84,28 L 84,27 L 83,26 L 83,24 L 80,21 L 80,19 L 79,18 L 79,15 L 80,14 L 80,10 L 81,9 L 76,9 L 75,8 L 73,8 L 70,5 L 70,4 L 71,3 L 72,3 L 71,2 L 69,2 L 68,1 L 67,1 L 66,2 L 65,2 L 64,3 L 63,3 L 62,2 L 61,2 L 60,1 Z" fill="none" stroke="black" stroke-width="1"/>
</svg>