<svg xmlns="http://www.w3.org/2000/svg" width="148" height="83">
  <path d="M 73,29 L 72,30 L 71,30 L 70,31 L 69,31 L 68,32 L 66,32 L 65,33 L 65,37 L 66,38 L 66,43 L 67,44 L 67,47 L 66,48 L 66,56 L 65,57 L 65,60 L 66,61 L 66,62 L 67,63 L 67,71 L 68,72 L 68,73 L 69,74 L 70,74 L 71,75 L 75,75 L 76,76 L 77,76 L 78,77 L 79,77 L 80,76 L 82,76 L 84,78 L 85,78 L 86,79 L 87,79 L 88,80 L 94,80 L 96,82 L 100,82 L 101,81 L 105,81 L 107,79 L 110,79 L 111,80 L 113,80 L 114,79 L 117,79 L 118,80 L 119,80 L 120,79 L 121,79 L 122,78 L 123,78 L 124,77 L 125,77 L 125,76 L 124,75 L 124,73 L 123,72 L 124,71 L 124,70 L 127,67 L 128,67 L 128,66 L 129,65 L 131,65 L 132,64 L 133,64 L 135,62 L 139,62 L 140,61 L 141,61 L 142,60 L 143,60 L 145,58 L 145,55 L 142,52 L 143,51 L 144,51 L 146,49 L 147,49 L 147,46 L 146,45 L 146,44 L 143,44 L 142,45 L 141,45 L 140,44 L 140,41 L 138,39 L 137,39 L 135,37 L 135,36 L 134,35 L 133,36 L 132,35 L 129,35 L 128,34 L 126,34 L 125,35 L 117,35 L 116,36 L 114,36 L 113,35 L 112,35 L 109,32 L 108,33 L 100,33 L 99,34 L 98,33 L 93,33 L 91,31 L 90,31 L 89,30 L 87,30 L 86,29 L 85,29 L 84,30 L 83,29 L 81,31 L 80,30 L 80,29 L 78,29 L 76,31 L 74,29 Z" fill="none" stroke="black" stroke-width="1"/>
</svg>