<svg xmlns="http://www.w3.org/2000/svg" width="223" height="128">
  <path d="M 209,0 L 208,1 L 201,1 L 200,2 L 197,2 L 196,1 L 187,1 L 186,2 L 185,2 L 184,3 L 182,3 L 181,4 L 180,4 L 179,5 L 178,5 L 177,6 L 174,6 L 173,7 L 171,7 L 168,10 L 168,12 L 167,13 L 167,14 L 168,15 L 168,17 L 170,19 L 170,20 L 169,21 L 168,21 L 167,22 L 165,22 L 164,21 L 164,26 L 160,30 L 159,30 L 157,32 L 156,32 L 155,33 L 154,33 L 154,35 L 155,35 L 156,36 L 156,37 L 158,39 L 158,40 L 157,41 L 157,43 L 156,44 L 156,45 L 154,47 L 153,47 L 152,48 L 151,48 L 150,49 L 148,49 L 147,50 L 144,50 L 143,49 L 143,50 L 144,51 L 144,52 L 145,53 L 145,54 L 147,56 L 147,59 L 148,59 L 149,58 L 152,58 L 153,57 L 155,57 L 157,55 L 158,55 L 161,52 L 162,52 L 165,49 L 166,49 L 167,48 L 171,48 L 172,49 L 175,49 L 176,48 L 180,48 L 181,49 L 182,48 L 183,48 L 184,49 L 184,48 L 185,47 L 185,46 L 186,45 L 190,45 L 191,46 L 192,46 L 193,47 L 194,47 L 195,46 L 199,46 L 200,45 L 206,45 L 207,44 L 212,44 L 213,43 L 215,43 L 216,42 L 217,42 L 218,41 L 219,41 L 220,40 L 221,40 L 222,39 L 221,38 L 221,37 L 220,36 L 220,34 L 221,33 L 221,31 L 220,30 L 220,28 L 219,27 L 219,17 L 220,16 L 220,15 L 221,14 L 221,6 L 222,5 L 222,3 L 221,2 L 220,2 L 219,1 L 215,1 L 214,0 Z" fill="none" stroke="black" stroke-width="1"/>
</svg>