<svg xmlns="http://www.w3.org/2000/svg" width="125" height="102">
  <path d="M 82,33 L 80,35 L 79,35 L 79,36 L 77,38 L 76,38 L 75,39 L 74,39 L 73,40 L 72,40 L 70,42 L 70,44 L 68,46 L 68,47 L 67,48 L 67,49 L 63,53 L 63,60 L 62,61 L 62,62 L 61,63 L 61,64 L 60,65 L 60,66 L 58,68 L 57,68 L 56,69 L 57,69 L 59,71 L 59,72 L 60,73 L 60,74 L 61,75 L 61,76 L 62,77 L 62,78 L 64,80 L 64,81 L 65,82 L 65,83 L 66,84 L 67,84 L 68,85 L 69,84 L 70,84 L 71,85 L 72,85 L 74,87 L 73,88 L 75,88 L 76,89 L 77,89 L 80,92 L 81,92 L 82,93 L 83,92 L 87,96 L 88,96 L 89,97 L 90,97 L 91,98 L 93,98 L 96,101 L 96,99 L 100,95 L 100,93 L 101,92 L 101,88 L 100,87 L 100,85 L 98,83 L 99,82 L 99,78 L 100,77 L 100,73 L 102,71 L 110,71 L 113,68 L 113,67 L 115,65 L 116,65 L 117,64 L 117,63 L 116,63 L 112,59 L 112,58 L 111,57 L 111,56 L 110,55 L 110,54 L 109,53 L 109,49 L 108,48 L 110,46 L 110,45 L 103,45 L 101,43 L 94,43 L 91,40 L 91,39 L 90,39 L 89,38 L 89,37 L 88,36 L 88,35 L 87,34 L 85,34 L 84,33 Z" fill="none" stroke="black" stroke-width="1"/>
</svg>