<svg xmlns="http://www.w3.org/2000/svg" width="164" height="138">
  <path d="M 100,69 L 99,70 L 98,70 L 97,71 L 94,71 L 93,70 L 91,70 L 91,73 L 88,76 L 87,76 L 86,77 L 84,77 L 83,78 L 82,78 L 81,79 L 78,79 L 77,78 L 71,78 L 69,80 L 68,80 L 66,82 L 65,82 L 64,83 L 62,83 L 62,87 L 60,89 L 57,89 L 56,90 L 56,91 L 57,92 L 55,94 L 54,94 L 53,95 L 53,96 L 54,97 L 56,97 L 58,99 L 58,100 L 60,102 L 56,106 L 52,106 L 51,107 L 49,107 L 48,108 L 48,109 L 46,111 L 45,111 L 47,113 L 50,113 L 53,116 L 53,117 L 54,118 L 54,119 L 53,120 L 53,121 L 48,126 L 48,127 L 45,130 L 45,133 L 43,135 L 44,136 L 45,136 L 46,137 L 48,137 L 51,134 L 52,134 L 54,132 L 54,130 L 53,129 L 53,128 L 54,127 L 54,126 L 58,122 L 61,122 L 62,121 L 63,121 L 65,119 L 66,119 L 70,115 L 76,115 L 78,113 L 80,113 L 82,115 L 82,117 L 83,118 L 86,118 L 87,117 L 93,117 L 93,115 L 95,113 L 96,113 L 97,112 L 97,110 L 98,109 L 98,107 L 99,106 L 100,106 L 102,104 L 103,104 L 104,105 L 115,105 L 116,104 L 118,104 L 119,103 L 121,103 L 123,101 L 123,99 L 125,97 L 127,97 L 127,96 L 128,95 L 130,95 L 131,94 L 132,94 L 133,93 L 134,93 L 135,92 L 137,92 L 138,91 L 139,91 L 140,90 L 142,90 L 143,89 L 145,89 L 148,86 L 153,86 L 153,84 L 152,84 L 151,83 L 151,82 L 150,81 L 150,80 L 149,80 L 148,79 L 146,79 L 145,78 L 144,79 L 141,79 L 139,77 L 139,76 L 138,76 L 136,74 L 137,73 L 136,72 L 135,73 L 131,73 L 130,72 L 129,72 L 128,71 L 113,71 L 112,70 L 106,70 L 105,69 Z" fill="none" stroke="black" stroke-width="1"/>
</svg>