<svg xmlns="http://www.w3.org/2000/svg" width="164" height="138">
  <path d="M 66,64 L 66,66 L 65,67 L 64,66 L 63,66 L 62,65 L 57,65 L 56,66 L 55,66 L 54,67 L 51,67 L 50,68 L 50,69 L 49,70 L 49,71 L 48,72 L 46,72 L 45,73 L 43,73 L 42,74 L 41,74 L 40,75 L 37,75 L 36,76 L 35,76 L 35,77 L 37,79 L 38,79 L 39,80 L 41,80 L 42,81 L 43,81 L 44,82 L 47,82 L 48,83 L 48,84 L 49,84 L 50,85 L 51,85 L 52,86 L 53,86 L 54,87 L 55,87 L 56,88 L 56,89 L 57,88 L 60,88 L 61,87 L 61,83 L 62,82 L 64,82 L 65,81 L 66,81 L 68,79 L 69,79 L 71,77 L 77,77 L 78,78 L 81,78 L 82,77 L 83,77 L 84,76 L 86,76 L 87,75 L 88,75 L 90,73 L 90,72 L 86,72 L 85,71 L 83,71 L 82,70 L 74,70 L 73,69 L 71,69 Z" fill="none" stroke="black" stroke-width="1"/>
</svg>