<svg xmlns="http://www.w3.org/2000/svg" width="125" height="102">
  <path d="M 22,23 L 18,27 L 13,27 L 12,28 L 11,28 L 10,29 L 9,29 L 9,31 L 8,32 L 8,33 L 5,36 L 4,36 L 3,35 L 2,35 L 2,37 L 3,38 L 3,39 L 4,40 L 4,41 L 5,42 L 5,44 L 7,46 L 7,47 L 8,48 L 7,49 L 7,51 L 6,52 L 6,53 L 4,55 L 4,57 L 3,58 L 3,59 L 2,60 L 2,67 L 1,68 L 1,69 L 0,70 L 1,71 L 1,72 L 2,73 L 3,72 L 4,72 L 7,69 L 8,69 L 9,68 L 11,68 L 12,67 L 14,67 L 15,66 L 20,66 L 21,65 L 23,65 L 24,64 L 28,64 L 29,65 L 30,65 L 31,66 L 32,66 L 33,65 L 34,65 L 35,64 L 37,64 L 38,63 L 39,63 L 41,61 L 41,60 L 40,60 L 38,58 L 38,57 L 40,55 L 42,55 L 45,52 L 45,50 L 44,49 L 44,46 L 43,45 L 43,39 L 42,38 L 42,37 L 41,37 L 40,36 L 39,36 L 38,35 L 36,35 L 36,36 L 34,38 L 31,38 L 30,37 L 29,37 L 27,35 L 27,32 L 26,31 L 26,28 L 25,27 L 25,25 L 24,24 L 23,24 Z" fill="none" stroke="black" stroke-width="1"/>
</svg>