<svg xmlns="http://www.w3.org/2000/svg" width="96" height="99">
  <path d="M 13,37 L 13,40 L 12,41 L 12,42 L 8,46 L 7,46 L 6,45 L 5,45 L 4,44 L 4,42 L 1,42 L 0,43 L 0,47 L 1,48 L 0,49 L 4,53 L 4,57 L 5,58 L 5,60 L 4,61 L 4,62 L 5,63 L 5,64 L 8,67 L 9,67 L 11,65 L 15,69 L 17,69 L 18,70 L 21,70 L 23,72 L 25,72 L 26,73 L 28,73 L 33,78 L 36,78 L 37,79 L 38,79 L 39,80 L 42,80 L 44,82 L 45,82 L 47,80 L 53,80 L 53,76 L 54,75 L 55,75 L 60,70 L 59,69 L 58,69 L 57,68 L 56,69 L 55,69 L 52,66 L 52,65 L 53,64 L 53,63 L 54,62 L 53,61 L 53,58 L 52,57 L 53,56 L 53,54 L 52,54 L 48,50 L 47,50 L 46,49 L 46,48 L 44,46 L 44,44 L 43,43 L 43,42 L 42,41 L 42,39 L 41,40 L 41,41 L 40,42 L 35,42 L 33,44 L 30,44 L 29,43 L 28,43 L 27,42 L 26,42 L 25,41 L 25,40 L 23,42 L 20,42 L 19,41 L 18,41 L 15,38 L 14,38 Z" fill="none" stroke="black" stroke-width="1"/>
</svg>