<svg xmlns="http://www.w3.org/2000/svg" width="133" height="94">
  <path d="M 91,9 L 90,10 L 90,14 L 89,15 L 89,18 L 92,21 L 92,22 L 93,23 L 93,24 L 92,25 L 87,25 L 86,26 L 85,26 L 85,27 L 84,28 L 84,29 L 85,30 L 85,32 L 83,34 L 81,34 L 80,33 L 78,33 L 77,34 L 77,36 L 81,40 L 81,42 L 79,44 L 78,44 L 77,45 L 75,45 L 76,46 L 76,47 L 78,49 L 78,53 L 77,54 L 77,55 L 75,57 L 74,57 L 71,60 L 71,62 L 70,63 L 70,65 L 69,66 L 70,67 L 70,68 L 73,71 L 73,72 L 72,73 L 72,74 L 73,75 L 73,76 L 76,76 L 77,75 L 83,75 L 83,73 L 86,70 L 86,69 L 88,67 L 89,67 L 90,66 L 92,66 L 92,65 L 93,64 L 94,64 L 97,67 L 101,67 L 102,68 L 103,68 L 104,69 L 105,69 L 110,64 L 111,64 L 113,62 L 115,64 L 118,64 L 119,63 L 120,63 L 121,62 L 121,58 L 122,57 L 122,54 L 121,53 L 121,52 L 119,50 L 121,48 L 122,48 L 123,47 L 124,47 L 125,46 L 125,44 L 126,43 L 126,40 L 125,39 L 124,39 L 123,38 L 123,37 L 124,36 L 124,35 L 125,34 L 126,34 L 127,33 L 128,33 L 132,29 L 132,27 L 131,26 L 131,25 L 130,24 L 130,23 L 129,22 L 128,22 L 128,24 L 127,25 L 127,26 L 126,27 L 125,27 L 124,26 L 122,26 L 120,24 L 120,23 L 119,22 L 116,22 L 116,25 L 115,26 L 113,26 L 112,25 L 110,25 L 109,24 L 108,24 L 107,23 L 107,21 L 106,20 L 106,19 L 104,19 L 103,18 L 103,17 L 102,16 L 101,16 L 99,14 L 98,14 L 96,12 L 95,12 L 94,11 L 94,10 L 93,9 Z" fill="none" stroke="black" stroke-width="1"/>
</svg>