<svg xmlns="http://www.w3.org/2000/svg" width="101" height="118">
  <path d="M 28,21 L 26,23 L 25,23 L 25,25 L 24,26 L 23,26 L 23,28 L 22,29 L 22,33 L 20,35 L 20,36 L 19,37 L 19,38 L 18,39 L 18,40 L 16,42 L 16,43 L 14,45 L 16,47 L 16,48 L 17,49 L 17,50 L 18,51 L 18,53 L 13,58 L 12,58 L 11,59 L 10,59 L 10,60 L 9,61 L 9,62 L 10,62 L 12,64 L 12,67 L 11,68 L 12,69 L 13,69 L 16,72 L 16,78 L 18,80 L 23,80 L 25,82 L 26,82 L 27,83 L 29,83 L 34,78 L 37,78 L 38,77 L 38,75 L 40,73 L 40,72 L 41,71 L 42,71 L 43,70 L 44,70 L 45,69 L 46,69 L 48,67 L 48,66 L 49,65 L 50,65 L 51,64 L 51,63 L 54,60 L 55,60 L 53,58 L 53,57 L 56,54 L 54,52 L 53,52 L 52,51 L 48,51 L 47,50 L 47,49 L 46,48 L 46,47 L 45,46 L 45,45 L 44,45 L 42,43 L 42,42 L 41,41 L 41,38 L 42,37 L 42,27 L 41,26 L 40,26 L 38,24 L 34,24 L 32,22 L 31,22 L 30,21 Z" fill="none" stroke="black" stroke-width="1"/>
</svg>