<svg xmlns="http://www.w3.org/2000/svg" width="101" height="118">
  <path d="M 54,61 L 52,63 L 52,64 L 50,66 L 49,66 L 49,67 L 46,70 L 45,70 L 44,71 L 43,71 L 42,72 L 41,72 L 41,73 L 39,75 L 39,77 L 37,79 L 34,79 L 29,84 L 27,84 L 26,83 L 25,83 L 23,81 L 18,81 L 15,78 L 15,72 L 13,70 L 12,70 L 11,69 L 11,70 L 9,72 L 8,72 L 7,73 L 6,73 L 5,74 L 7,76 L 7,77 L 8,78 L 8,81 L 7,82 L 7,86 L 5,88 L 4,88 L 3,89 L 0,89 L 1,89 L 3,91 L 3,92 L 5,92 L 6,93 L 4,95 L 3,95 L 2,96 L 2,98 L 3,98 L 5,96 L 7,96 L 8,97 L 8,99 L 9,100 L 9,101 L 8,102 L 8,103 L 5,106 L 5,107 L 7,107 L 8,106 L 10,106 L 12,108 L 18,108 L 21,111 L 21,113 L 22,112 L 23,112 L 24,111 L 25,111 L 26,110 L 27,110 L 28,109 L 31,109 L 32,110 L 32,111 L 33,111 L 34,110 L 35,111 L 35,109 L 36,108 L 38,108 L 39,109 L 39,108 L 40,107 L 40,104 L 39,103 L 40,102 L 40,99 L 42,97 L 44,97 L 44,94 L 46,92 L 49,92 L 50,93 L 51,92 L 51,84 L 52,83 L 52,81 L 51,80 L 51,77 L 50,76 L 50,71 L 51,70 L 51,69 L 53,67 L 55,67 L 55,63 L 54,62 Z" fill="none" stroke="black" stroke-width="1"/>
</svg>