<svg xmlns="http://www.w3.org/2000/svg" width="101" height="118">
  <path d="M 40,0 L 40,2 L 39,3 L 39,4 L 38,5 L 38,6 L 37,7 L 35,7 L 35,8 L 34,9 L 34,13 L 35,14 L 34,15 L 33,15 L 32,14 L 32,16 L 31,17 L 31,18 L 32,19 L 31,20 L 30,20 L 31,21 L 32,21 L 34,23 L 38,23 L 40,25 L 41,25 L 43,27 L 43,37 L 42,38 L 42,41 L 43,42 L 43,43 L 44,44 L 45,44 L 46,45 L 46,46 L 47,47 L 47,48 L 48,49 L 48,50 L 52,50 L 53,51 L 54,51 L 57,54 L 58,54 L 62,50 L 67,50 L 68,49 L 73,49 L 73,48 L 72,47 L 72,46 L 74,44 L 75,44 L 76,43 L 77,43 L 80,40 L 80,39 L 79,38 L 79,33 L 78,32 L 78,31 L 77,31 L 74,28 L 73,28 L 72,27 L 72,25 L 73,24 L 73,23 L 72,23 L 69,20 L 67,20 L 65,18 L 65,16 L 63,14 L 57,14 L 54,11 L 53,11 L 51,9 L 51,7 L 50,6 L 50,5 L 46,1 L 45,1 L 44,0 L 43,1 L 42,1 L 41,0 Z" fill="none" stroke="black" stroke-width="1"/>
</svg>