<svg xmlns="http://www.w3.org/2000/svg" width="199" height="136">
  <path d="M 111,20 L 110,21 L 108,21 L 107,22 L 105,22 L 104,23 L 102,23 L 101,24 L 94,24 L 93,25 L 91,25 L 90,26 L 90,27 L 88,29 L 88,30 L 87,31 L 86,31 L 86,33 L 82,37 L 82,39 L 80,41 L 80,42 L 79,43 L 75,43 L 74,44 L 70,44 L 69,45 L 59,45 L 58,44 L 53,44 L 52,43 L 49,43 L 48,42 L 44,42 L 43,41 L 41,41 L 40,42 L 33,42 L 31,44 L 25,44 L 23,46 L 22,46 L 21,47 L 20,47 L 19,48 L 18,48 L 19,49 L 19,50 L 20,51 L 20,53 L 19,54 L 21,56 L 23,56 L 24,57 L 25,57 L 26,58 L 27,58 L 28,59 L 32,59 L 33,60 L 34,60 L 35,59 L 36,59 L 37,58 L 38,58 L 39,59 L 52,59 L 53,60 L 54,60 L 55,59 L 63,59 L 64,60 L 69,60 L 70,61 L 71,61 L 73,63 L 76,63 L 77,64 L 82,64 L 86,68 L 87,68 L 88,69 L 90,69 L 91,70 L 92,70 L 93,71 L 94,71 L 95,72 L 96,72 L 98,70 L 99,71 L 99,72 L 102,72 L 103,73 L 103,74 L 107,74 L 108,75 L 108,76 L 112,76 L 113,77 L 118,77 L 119,76 L 120,76 L 120,73 L 121,72 L 124,72 L 125,73 L 125,75 L 127,75 L 128,76 L 128,77 L 131,77 L 132,78 L 132,82 L 133,82 L 134,83 L 134,84 L 136,84 L 137,85 L 138,85 L 139,84 L 140,85 L 141,85 L 146,90 L 146,91 L 147,92 L 147,94 L 148,95 L 149,95 L 152,98 L 158,98 L 161,101 L 161,103 L 162,104 L 164,104 L 167,107 L 168,107 L 169,108 L 173,108 L 174,107 L 174,106 L 175,105 L 175,102 L 180,97 L 181,97 L 182,96 L 187,96 L 188,97 L 189,96 L 190,96 L 191,97 L 192,97 L 193,98 L 195,98 L 196,97 L 196,95 L 197,94 L 197,93 L 198,92 L 198,91 L 194,87 L 193,87 L 191,85 L 189,85 L 187,83 L 187,81 L 188,80 L 188,79 L 187,78 L 187,76 L 186,75 L 186,74 L 185,73 L 185,72 L 183,72 L 181,70 L 181,67 L 180,66 L 180,64 L 176,60 L 175,60 L 174,59 L 172,59 L 169,56 L 168,56 L 167,55 L 167,54 L 168,53 L 168,52 L 170,50 L 171,50 L 172,49 L 175,49 L 172,46 L 170,46 L 169,45 L 169,44 L 170,43 L 171,43 L 172,42 L 172,41 L 169,41 L 168,42 L 169,43 L 168,44 L 168,45 L 167,46 L 166,46 L 165,45 L 164,45 L 163,44 L 156,44 L 155,43 L 154,43 L 153,42 L 153,41 L 152,40 L 151,40 L 150,39 L 150,38 L 151,37 L 152,38 L 153,38 L 153,36 L 152,35 L 152,34 L 153,33 L 155,33 L 156,32 L 153,29 L 152,29 L 148,25 L 146,25 L 145,24 L 144,24 L 143,23 L 140,23 L 139,22 L 137,22 L 136,21 L 132,21 L 131,20 Z" fill="none" stroke="black" stroke-width="1"/>
</svg>