<svg xmlns="http://www.w3.org/2000/svg" width="101" height="118">
  <path d="M 87,12 L 86,13 L 85,13 L 81,17 L 81,20 L 80,21 L 80,22 L 78,24 L 74,24 L 73,25 L 73,27 L 74,27 L 77,30 L 78,30 L 79,31 L 79,32 L 80,33 L 80,38 L 81,39 L 81,40 L 77,44 L 76,44 L 75,45 L 74,45 L 73,46 L 73,47 L 74,48 L 74,54 L 77,57 L 77,62 L 78,63 L 78,65 L 82,69 L 82,72 L 83,73 L 83,74 L 89,74 L 90,73 L 92,73 L 93,72 L 93,69 L 94,68 L 98,68 L 99,67 L 99,66 L 100,65 L 99,64 L 99,63 L 98,62 L 98,61 L 97,60 L 97,58 L 96,57 L 96,56 L 92,52 L 92,51 L 96,47 L 96,42 L 97,41 L 97,40 L 98,39 L 98,36 L 99,35 L 99,33 L 98,33 L 97,32 L 97,29 L 96,28 L 96,26 L 95,25 L 95,21 L 93,19 L 93,18 L 90,15 L 90,14 L 92,12 Z" fill="none" stroke="black" stroke-width="1"/>
</svg>