<svg xmlns="http://www.w3.org/2000/svg" width="96" height="69">
  <path d="M 24,15 L 23,16 L 22,16 L 22,17 L 21,18 L 21,21 L 22,22 L 22,25 L 21,26 L 20,26 L 19,27 L 15,27 L 14,28 L 13,27 L 13,25 L 11,25 L 9,23 L 8,23 L 7,24 L 6,24 L 6,27 L 3,30 L 2,30 L 0,32 L 2,34 L 2,35 L 4,37 L 4,39 L 3,40 L 3,41 L 4,42 L 4,45 L 5,45 L 8,42 L 9,42 L 9,41 L 11,39 L 15,39 L 16,40 L 16,41 L 17,42 L 17,43 L 16,44 L 16,45 L 15,46 L 15,47 L 16,48 L 17,48 L 18,47 L 19,47 L 20,48 L 20,47 L 21,46 L 21,45 L 24,42 L 24,41 L 25,40 L 26,40 L 27,39 L 32,39 L 34,41 L 35,41 L 36,40 L 36,39 L 35,38 L 35,37 L 34,36 L 34,35 L 36,33 L 37,33 L 37,32 L 39,30 L 39,29 L 37,29 L 35,27 L 34,27 L 32,25 L 32,23 L 29,20 L 29,19 L 28,18 L 28,17 L 27,16 L 27,15 Z" fill="none" stroke="black" stroke-width="1"/>
</svg>