<svg xmlns="http://www.w3.org/2000/svg" width="67" height="91">
  <path d="M 8,48 L 4,52 L 4,54 L 7,57 L 8,57 L 9,58 L 11,58 L 14,61 L 14,63 L 15,63 L 17,65 L 18,65 L 20,67 L 20,68 L 21,69 L 21,75 L 20,76 L 20,77 L 15,82 L 15,83 L 16,84 L 16,85 L 17,86 L 17,87 L 19,89 L 21,89 L 22,90 L 25,90 L 27,88 L 27,87 L 26,86 L 26,84 L 27,83 L 27,82 L 29,80 L 29,79 L 28,78 L 28,75 L 29,74 L 29,72 L 30,71 L 30,69 L 29,68 L 29,67 L 26,64 L 26,63 L 25,62 L 25,61 L 27,59 L 28,59 L 30,57 L 31,57 L 32,56 L 33,56 L 33,53 L 30,53 L 29,52 L 28,52 L 25,49 L 25,48 L 24,48 L 23,49 L 16,49 L 15,50 L 14,50 L 13,49 L 10,49 L 9,48 Z" fill="none" stroke="black" stroke-width="1"/>
</svg>