<svg xmlns="http://www.w3.org/2000/svg" width="115" height="69">
  <path d="M 38,0 L 37,1 L 38,2 L 38,7 L 36,9 L 33,9 L 31,7 L 30,7 L 29,8 L 29,11 L 30,12 L 30,13 L 29,14 L 29,15 L 28,16 L 29,17 L 29,19 L 32,19 L 34,17 L 38,21 L 37,22 L 37,23 L 39,23 L 40,22 L 42,24 L 42,25 L 43,24 L 47,28 L 49,28 L 51,26 L 51,25 L 52,24 L 53,24 L 53,22 L 55,20 L 55,18 L 56,17 L 56,12 L 55,11 L 55,9 L 54,8 L 53,8 L 52,7 L 51,8 L 50,7 L 50,6 L 49,5 L 46,5 L 45,6 L 44,5 L 43,5 L 41,3 L 41,2 L 40,1 L 40,0 Z" fill="none" stroke="black" stroke-width="1"/>
</svg>