<svg xmlns="http://www.w3.org/2000/svg" width="115" height="69">
  <path d="M 88,30 L 88,32 L 89,31 Z" fill="none" stroke="black" stroke-width="1"/>
  <path d="M 89,7 L 88,8 L 84,8 L 83,9 L 81,9 L 80,10 L 81,11 L 78,14 L 77,14 L 76,15 L 75,15 L 74,16 L 73,16 L 74,17 L 72,19 L 72,20 L 71,21 L 66,21 L 64,23 L 65,24 L 63,26 L 63,27 L 62,28 L 64,30 L 65,30 L 66,31 L 68,31 L 70,33 L 69,34 L 68,34 L 69,35 L 68,36 L 67,36 L 67,37 L 68,37 L 70,39 L 69,40 L 72,43 L 72,45 L 73,45 L 73,44 L 74,43 L 75,43 L 77,41 L 76,40 L 76,39 L 75,38 L 75,37 L 76,36 L 78,36 L 79,35 L 81,37 L 80,38 L 80,39 L 81,39 L 82,38 L 84,38 L 85,37 L 84,36 L 84,35 L 85,34 L 85,31 L 86,30 L 86,28 L 87,27 L 88,28 L 89,28 L 90,29 L 91,29 L 92,28 L 93,28 L 94,27 L 96,27 L 99,24 L 100,25 L 100,26 L 102,24 L 103,24 L 105,22 L 108,22 L 110,24 L 112,24 L 112,23 L 113,22 L 112,21 L 112,20 L 113,19 L 114,19 L 114,15 L 109,15 L 108,14 L 108,12 L 107,13 L 106,13 L 105,14 L 98,14 L 96,12 L 94,12 L 91,9 L 90,9 L 89,8 Z" fill="none" stroke="black" stroke-width="1"/>
</svg>