<svg xmlns="http://www.w3.org/2000/svg" width="115" height="69">
  <path d="M 6,24 L 5,25 L 4,25 L 2,27 L 1,27 L 0,28 L 0,29 L 1,30 L 1,31 L 4,34 L 4,35 L 5,36 L 5,38 L 4,39 L 4,41 L 3,42 L 3,45 L 4,46 L 4,47 L 2,49 L 2,50 L 1,51 L 1,53 L 2,54 L 2,55 L 0,57 L 0,59 L 1,59 L 5,63 L 5,64 L 6,65 L 6,66 L 7,66 L 8,65 L 10,65 L 11,66 L 12,65 L 15,68 L 15,66 L 16,65 L 17,65 L 18,64 L 18,62 L 20,60 L 21,60 L 22,59 L 26,59 L 27,60 L 29,60 L 32,63 L 32,64 L 33,65 L 34,65 L 35,66 L 38,66 L 42,62 L 44,62 L 45,63 L 46,63 L 47,64 L 47,65 L 48,66 L 49,65 L 49,64 L 50,63 L 51,63 L 52,62 L 53,62 L 54,63 L 55,62 L 55,61 L 56,60 L 56,59 L 55,58 L 55,57 L 54,56 L 53,56 L 51,54 L 51,53 L 50,53 L 47,50 L 47,49 L 46,49 L 45,50 L 44,50 L 43,49 L 42,49 L 39,46 L 38,46 L 37,45 L 36,45 L 35,46 L 34,46 L 33,45 L 33,44 L 32,44 L 31,43 L 29,43 L 28,42 L 21,42 L 18,39 L 20,37 L 20,36 L 18,34 L 18,33 L 17,33 L 13,29 L 13,28 L 12,27 L 11,27 L 10,26 L 10,25 L 9,24 Z" fill="none" stroke="black" stroke-width="1"/>
</svg>