<svg xmlns="http://www.w3.org/2000/svg" width="67" height="35">
  <path d="M 6,4 L 5,5 L 4,5 L 3,6 L 3,8 L 1,10 L 0,10 L 0,13 L 3,16 L 5,16 L 6,17 L 6,18 L 8,18 L 10,20 L 13,20 L 14,19 L 18,19 L 19,18 L 20,18 L 21,19 L 22,19 L 25,22 L 25,23 L 27,23 L 28,24 L 29,24 L 30,25 L 30,26 L 31,27 L 32,27 L 33,28 L 33,24 L 32,23 L 34,21 L 34,18 L 33,18 L 31,16 L 31,14 L 30,13 L 30,11 L 31,10 L 30,9 L 30,8 L 29,8 L 28,7 L 26,7 L 22,11 L 19,11 L 18,10 L 17,10 L 15,8 L 15,7 L 13,5 L 11,5 L 10,4 Z" fill="none" stroke="black" stroke-width="1"/>
</svg>