<svg xmlns="http://www.w3.org/2000/svg" width="67" height="35">
  <path d="M 58,14 L 58,15 L 57,16 L 56,16 L 56,17 L 54,19 L 49,19 L 49,20 L 48,21 L 47,21 L 44,24 L 43,24 L 40,21 L 39,22 L 37,20 L 36,20 L 35,19 L 35,18 L 35,21 L 33,23 L 35,23 L 38,26 L 39,26 L 41,28 L 41,31 L 40,32 L 39,32 L 39,34 L 43,34 L 44,33 L 43,32 L 45,30 L 46,30 L 47,31 L 48,31 L 52,27 L 53,28 L 54,28 L 56,30 L 55,31 L 57,33 L 59,33 L 60,34 L 63,34 L 65,32 L 65,31 L 66,30 L 66,25 L 65,24 L 65,22 L 64,21 L 64,20 L 63,19 L 63,17 L 62,16 L 62,15 L 61,15 L 60,14 Z" fill="none" stroke="black" stroke-width="1"/>
</svg>