<svg xmlns="http://www.w3.org/2000/svg" width="65" height="59">
  <path d="M 17,2 L 16,3 L 15,3 L 14,4 L 13,3 L 10,3 L 10,4 L 9,5 L 9,7 L 8,8 L 8,10 L 5,13 L 5,14 L 4,15 L 5,16 L 1,20 L 0,20 L 0,21 L 3,24 L 3,26 L 4,27 L 5,27 L 6,28 L 7,28 L 8,29 L 11,29 L 12,28 L 15,31 L 15,32 L 16,33 L 16,37 L 15,38 L 15,39 L 16,40 L 16,43 L 17,42 L 17,41 L 18,40 L 18,39 L 19,38 L 20,38 L 21,37 L 22,37 L 23,36 L 24,36 L 24,35 L 23,34 L 24,33 L 22,31 L 22,30 L 24,28 L 21,25 L 21,23 L 20,22 L 21,21 L 22,21 L 23,22 L 24,22 L 25,23 L 26,23 L 26,22 L 27,21 L 27,20 L 26,19 L 26,18 L 27,17 L 27,16 L 26,15 L 27,14 L 27,13 L 26,12 L 25,12 L 23,10 L 23,9 L 21,7 L 20,7 L 19,6 L 19,5 L 17,3 Z" fill="none" stroke="black" stroke-width="1"/>
</svg>