<svg xmlns="http://www.w3.org/2000/svg" width="66" height="40">
  <path d="M 58,0 L 56,2 L 55,2 L 54,3 L 52,3 L 51,2 L 50,2 L 46,6 L 44,6 L 43,7 L 42,7 L 41,8 L 41,12 L 39,14 L 39,15 L 40,16 L 41,16 L 42,17 L 42,18 L 43,19 L 44,19 L 45,20 L 46,20 L 48,18 L 50,18 L 52,20 L 53,20 L 54,21 L 54,22 L 55,22 L 55,21 L 56,20 L 56,19 L 57,18 L 57,17 L 58,16 L 58,15 L 59,14 L 59,12 L 60,11 L 61,11 L 64,8 L 64,5 L 65,4 L 65,1 L 64,1 L 63,2 L 62,2 L 60,0 Z" fill="none" stroke="black" stroke-width="1"/>
</svg>