<svg xmlns="http://www.w3.org/2000/svg" width="66" height="40">
  <path d="M 38,16 L 38,17 L 35,20 L 32,20 L 30,22 L 29,22 L 28,23 L 28,24 L 26,26 L 26,27 L 24,29 L 24,30 L 25,30 L 26,29 L 27,29 L 28,30 L 30,30 L 32,32 L 32,33 L 30,35 L 31,36 L 31,37 L 32,38 L 33,38 L 34,39 L 37,39 L 41,35 L 42,35 L 42,34 L 44,32 L 45,32 L 46,31 L 47,31 L 50,28 L 51,28 L 51,26 L 53,24 L 53,21 L 52,21 L 50,19 L 48,19 L 46,21 L 45,21 L 44,20 L 43,20 L 41,18 L 41,17 L 40,17 L 39,16 Z" fill="none" stroke="black" stroke-width="1"/>
</svg>