<svg xmlns="http://www.w3.org/2000/svg" width="66" height="71">
  <path d="M 37,17 L 35,19 L 34,19 L 33,20 L 32,19 L 30,19 L 28,21 L 27,21 L 25,23 L 25,25 L 24,26 L 24,28 L 23,29 L 23,30 L 22,31 L 22,34 L 24,36 L 24,37 L 25,38 L 25,40 L 26,40 L 27,41 L 29,41 L 30,42 L 32,42 L 32,41 L 33,40 L 35,40 L 36,39 L 37,39 L 38,38 L 39,39 L 39,40 L 41,42 L 43,42 L 44,41 L 44,39 L 41,36 L 40,36 L 38,34 L 38,33 L 40,31 L 40,28 L 42,26 L 42,25 L 46,21 L 46,20 L 44,20 L 43,21 L 42,21 L 41,22 L 40,22 L 38,20 L 38,19 L 37,18 Z" fill="none" stroke="black" stroke-width="1"/>
</svg>