<svg xmlns="http://www.w3.org/2000/svg" width="66" height="71">
  <path d="M 61,21 L 61,22 L 64,22 L 65,23 L 65,22 L 64,21 Z" fill="none" stroke="black" stroke-width="1"/>
  <path d="M 47,19 L 47,21 L 43,25 L 43,26 L 41,28 L 41,31 L 39,33 L 39,34 L 40,35 L 41,35 L 45,39 L 45,42 L 47,44 L 48,44 L 50,42 L 50,41 L 52,39 L 52,37 L 54,35 L 55,36 L 58,36 L 59,37 L 60,36 L 59,35 L 59,32 L 60,31 L 60,29 L 61,28 L 63,28 L 62,27 L 61,28 L 60,28 L 60,29 L 59,30 L 58,30 L 57,31 L 56,30 L 56,29 L 60,25 L 62,25 L 59,25 L 58,24 L 56,24 L 53,21 L 53,20 L 52,19 Z" fill="none" stroke="black" stroke-width="1"/>
  <path d="M 63,17 L 63,18 L 64,18 L 64,17 Z" fill="none" stroke="black" stroke-width="1"/>
</svg>