<svg xmlns="http://www.w3.org/2000/svg" width="66" height="71">
  <path d="M 4,31 L 3,32 L 3,33 L 2,34 L 1,34 L 0,35 L 0,38 L 1,38 L 4,41 L 3,42 L 4,43 L 4,44 L 5,45 L 5,46 L 7,48 L 7,51 L 10,51 L 12,53 L 12,54 L 11,55 L 11,57 L 13,59 L 13,62 L 14,63 L 14,65 L 16,65 L 17,66 L 19,66 L 21,64 L 21,63 L 26,58 L 27,58 L 28,57 L 29,57 L 30,56 L 31,56 L 34,53 L 32,51 L 33,50 L 32,49 L 32,48 L 30,46 L 32,44 L 32,43 L 30,43 L 29,42 L 27,42 L 26,41 L 25,41 L 24,40 L 24,38 L 23,37 L 23,36 L 21,34 L 20,35 L 19,35 L 18,36 L 12,36 L 11,37 L 10,36 L 9,36 Z" fill="none" stroke="black" stroke-width="1"/>
</svg>