<svg xmlns="http://www.w3.org/2000/svg" width="76" height="94">
  <path d="M 45,6 L 45,7 L 43,9 L 43,10 L 42,11 L 42,13 L 43,14 L 43,13 L 44,12 L 45,13 L 46,12 L 47,12 L 48,13 L 48,14 L 47,15 L 47,16 L 46,17 L 46,20 L 45,21 L 44,21 L 43,22 L 43,24 L 44,25 L 44,26 L 47,29 L 47,30 L 48,31 L 48,32 L 51,35 L 51,36 L 52,36 L 53,37 L 53,38 L 54,39 L 54,40 L 55,41 L 57,39 L 57,37 L 58,36 L 60,36 L 61,35 L 62,35 L 64,37 L 64,36 L 65,35 L 67,35 L 68,34 L 69,35 L 69,34 L 70,33 L 71,33 L 72,34 L 73,33 L 74,33 L 74,30 L 75,29 L 75,26 L 73,24 L 73,23 L 72,22 L 72,21 L 71,20 L 72,19 L 70,17 L 69,17 L 68,16 L 68,14 L 66,16 L 63,16 L 62,15 L 61,15 L 59,13 L 59,12 L 58,11 L 60,9 L 60,8 L 59,7 L 57,7 L 56,6 L 55,6 L 54,7 L 52,7 L 51,8 L 48,8 L 46,6 Z" fill="none" stroke="black" stroke-width="1"/>
</svg>