<svg xmlns="http://www.w3.org/2000/svg" width="71" height="82">
  <path d="M 40,0 L 40,3 L 39,4 L 38,4 L 37,5 L 36,4 L 35,4 L 35,5 L 34,6 L 33,5 L 32,6 L 30,6 L 30,7 L 29,8 L 27,6 L 26,6 L 25,7 L 23,7 L 23,9 L 20,12 L 18,10 L 18,13 L 21,16 L 19,18 L 19,19 L 18,20 L 17,20 L 16,21 L 14,21 L 13,22 L 12,21 L 12,22 L 11,23 L 11,26 L 12,26 L 13,27 L 16,27 L 17,26 L 19,26 L 20,27 L 20,28 L 22,28 L 23,29 L 25,29 L 28,32 L 28,36 L 29,37 L 29,41 L 30,42 L 31,42 L 32,43 L 32,44 L 33,44 L 34,43 L 38,43 L 38,41 L 39,40 L 39,38 L 40,37 L 40,36 L 41,35 L 41,34 L 42,33 L 42,32 L 41,31 L 41,25 L 45,21 L 45,20 L 46,19 L 48,19 L 49,20 L 51,18 L 51,15 L 50,14 L 48,14 L 47,13 L 47,11 L 46,10 L 46,7 L 44,5 L 44,3 L 45,2 L 45,1 L 44,0 Z" fill="none" stroke="black" stroke-width="1"/>
</svg>