<svg xmlns="http://www.w3.org/2000/svg" width="71" height="82">
  <path d="M 10,26 L 10,28 L 13,31 L 11,33 L 10,33 L 10,34 L 9,35 L 9,37 L 10,38 L 8,40 L 7,40 L 6,41 L 4,41 L 4,42 L 5,43 L 4,44 L 4,45 L 3,46 L 3,47 L 2,48 L 2,49 L 1,50 L 1,51 L 0,52 L 0,54 L 1,55 L 1,57 L 2,58 L 3,58 L 4,59 L 6,59 L 7,60 L 9,60 L 10,61 L 10,62 L 11,63 L 13,63 L 14,62 L 15,63 L 15,64 L 17,66 L 18,65 L 18,63 L 17,62 L 17,59 L 16,58 L 16,57 L 15,56 L 15,54 L 16,53 L 16,51 L 18,49 L 19,49 L 20,48 L 20,47 L 22,45 L 24,45 L 25,46 L 26,46 L 28,48 L 31,48 L 32,47 L 32,45 L 31,44 L 31,43 L 30,43 L 28,41 L 28,37 L 27,36 L 27,32 L 25,30 L 23,30 L 22,29 L 20,29 L 19,28 L 19,27 L 17,27 L 16,28 L 13,28 L 12,27 L 11,27 Z" fill="none" stroke="black" stroke-width="1"/>
</svg>