<svg xmlns="http://www.w3.org/2000/svg" width="30" height="57">
  <path d="M 27,10 L 24,13 L 23,13 L 22,14 L 21,14 L 20,15 L 19,15 L 17,17 L 16,17 L 15,18 L 13,18 L 12,17 L 10,17 L 8,15 L 7,16 L 7,18 L 4,21 L 4,26 L 5,27 L 5,32 L 6,33 L 6,34 L 7,35 L 7,36 L 8,37 L 8,39 L 12,43 L 13,43 L 14,42 L 15,42 L 16,41 L 18,41 L 18,40 L 19,39 L 19,38 L 20,37 L 20,35 L 21,34 L 21,31 L 22,30 L 22,26 L 23,25 L 23,23 L 24,22 L 24,21 L 23,20 L 24,19 L 24,18 L 26,16 L 26,14 L 27,13 Z" fill="none" stroke="black" stroke-width="1"/>
</svg>