<svg xmlns="http://www.w3.org/2000/svg" width="81" height="68">
  <path d="M 77,36 L 78,37 L 78,36 Z" fill="none" stroke="black" stroke-width="1"/>
  <path d="M 60,9 L 59,10 L 58,10 L 56,12 L 55,12 L 55,13 L 58,16 L 58,17 L 61,20 L 61,23 L 63,25 L 63,27 L 58,32 L 59,33 L 59,34 L 60,35 L 60,38 L 62,40 L 62,41 L 66,45 L 68,45 L 69,44 L 69,41 L 70,40 L 73,40 L 73,39 L 70,39 L 69,38 L 69,37 L 70,36 L 71,37 L 74,37 L 74,35 L 75,34 L 75,33 L 76,32 L 78,32 L 79,33 L 80,33 L 79,32 L 79,30 L 78,29 L 78,27 L 77,26 L 77,21 L 76,20 L 76,18 L 74,16 L 74,15 L 73,16 L 71,16 L 69,14 L 69,13 L 67,13 L 66,12 L 64,12 L 63,11 L 62,11 Z" fill="none" stroke="black" stroke-width="1"/>
</svg>