<svg xmlns="http://www.w3.org/2000/svg" width="81" height="68">
  <path d="M 51,12 L 50,13 L 46,13 L 45,14 L 44,14 L 43,15 L 40,15 L 36,19 L 36,21 L 35,22 L 33,22 L 33,23 L 32,24 L 31,24 L 30,25 L 30,26 L 31,27 L 32,27 L 33,28 L 34,27 L 37,30 L 36,31 L 37,32 L 32,37 L 31,37 L 28,40 L 29,41 L 31,41 L 33,43 L 33,44 L 34,44 L 35,45 L 35,46 L 34,47 L 34,48 L 35,49 L 38,49 L 40,47 L 42,47 L 43,48 L 42,49 L 42,51 L 44,51 L 44,49 L 46,47 L 50,47 L 52,49 L 54,49 L 54,47 L 56,45 L 58,47 L 60,47 L 61,46 L 64,46 L 65,45 L 61,41 L 61,40 L 59,38 L 59,35 L 58,34 L 58,33 L 57,32 L 62,27 L 62,25 L 60,23 L 60,20 L 57,17 L 57,16 L 54,13 L 54,12 Z" fill="none" stroke="black" stroke-width="1"/>
</svg>