<svg xmlns="http://www.w3.org/2000/svg" width="81" height="68">
  <path d="M 18,0 L 16,2 L 15,2 L 14,3 L 14,5 L 15,6 L 15,10 L 14,11 L 13,11 L 11,9 L 11,8 L 10,7 L 6,7 L 5,6 L 3,6 L 3,9 L 2,10 L 2,11 L 0,13 L 0,18 L 1,19 L 1,20 L 0,21 L 0,22 L 1,23 L 2,23 L 3,22 L 3,20 L 4,19 L 5,19 L 7,21 L 7,23 L 8,24 L 9,24 L 11,26 L 11,30 L 12,31 L 12,33 L 14,31 L 15,31 L 16,30 L 17,30 L 17,28 L 18,27 L 19,27 L 20,28 L 22,28 L 24,26 L 24,25 L 25,24 L 30,24 L 31,23 L 32,23 L 32,22 L 33,21 L 35,21 L 35,19 L 38,16 L 37,16 L 36,15 L 36,14 L 37,13 L 37,12 L 38,11 L 38,10 L 40,8 L 42,8 L 42,5 L 43,4 L 43,3 L 42,2 L 41,2 L 40,1 L 38,1 L 37,2 L 36,2 L 35,3 L 33,3 L 31,1 L 30,1 L 29,2 L 28,2 L 27,3 L 22,3 L 21,2 L 21,1 L 20,1 L 19,0 Z" fill="none" stroke="black" stroke-width="1"/>
</svg>