<svg xmlns="http://www.w3.org/2000/svg" width="82" height="100">
  <path d="M 40,52 L 42,52 Z" fill="none" stroke="black" stroke-width="1"/>
  <path d="M 52,23 L 51,24 L 50,24 L 49,25 L 47,25 L 45,27 L 46,28 L 46,29 L 47,30 L 46,31 L 45,31 L 44,32 L 43,32 L 42,31 L 40,31 L 39,32 L 39,33 L 40,34 L 38,36 L 34,36 L 33,37 L 33,38 L 32,39 L 31,39 L 31,40 L 34,43 L 34,44 L 33,45 L 33,46 L 32,47 L 31,47 L 30,48 L 30,49 L 29,50 L 29,55 L 30,56 L 30,59 L 32,61 L 33,61 L 34,62 L 33,63 L 33,64 L 35,64 L 36,65 L 38,65 L 39,64 L 40,64 L 40,63 L 41,62 L 41,60 L 40,60 L 38,58 L 38,56 L 37,56 L 36,55 L 36,52 L 37,51 L 38,51 L 40,49 L 41,50 L 42,50 L 42,49 L 43,48 L 44,48 L 44,47 L 45,46 L 48,46 L 48,45 L 50,43 L 51,44 L 54,44 L 55,43 L 56,43 L 57,44 L 57,40 L 58,39 L 58,37 L 56,37 L 55,36 L 55,33 L 60,28 L 60,27 L 59,26 L 58,26 L 55,29 L 54,28 L 54,27 L 55,26 L 55,25 L 54,24 L 53,24 Z" fill="none" stroke="black" stroke-width="1"/>
</svg>