<svg xmlns="http://www.w3.org/2000/svg" width="82" height="100">
  <path d="M 27,70 L 27,71 L 26,72 L 25,72 L 24,71 L 23,71 L 22,72 L 21,72 L 21,73 L 22,72 L 23,73 L 23,74 L 22,75 L 21,75 L 20,76 L 19,76 L 16,79 L 15,79 L 13,81 L 13,88 L 14,89 L 14,94 L 15,94 L 16,95 L 17,95 L 18,96 L 20,96 L 21,97 L 25,97 L 27,99 L 28,98 L 29,99 L 29,97 L 31,95 L 33,95 L 34,96 L 34,95 L 35,94 L 35,93 L 36,92 L 37,92 L 38,91 L 39,91 L 40,90 L 41,90 L 41,87 L 42,86 L 42,84 L 43,83 L 43,81 L 44,80 L 42,80 L 41,81 L 40,81 L 39,82 L 38,82 L 37,83 L 36,83 L 34,81 L 32,81 L 30,79 L 30,78 L 28,76 L 29,75 L 29,74 L 30,73 L 29,72 L 31,70 Z" fill="none" stroke="black" stroke-width="1"/>
</svg>