<svg xmlns="http://www.w3.org/2000/svg" width="82" height="100">
  <path d="M 10,22 L 8,24 L 8,27 L 9,27 L 10,26 L 11,26 L 12,27 L 12,29 L 11,30 L 8,30 L 7,31 L 6,31 L 6,34 L 5,35 L 4,35 L 3,36 L 2,36 L 2,38 L 0,40 L 1,41 L 1,42 L 2,43 L 4,43 L 5,42 L 6,42 L 7,43 L 7,42 L 8,41 L 9,41 L 10,42 L 11,41 L 10,40 L 10,39 L 9,38 L 9,37 L 10,36 L 11,37 L 12,37 L 13,38 L 13,40 L 14,41 L 14,42 L 15,41 L 16,41 L 17,42 L 20,42 L 21,43 L 21,44 L 20,45 L 25,45 L 26,44 L 26,43 L 27,42 L 29,44 L 30,43 L 31,44 L 33,44 L 33,43 L 30,40 L 30,36 L 29,35 L 29,34 L 28,33 L 28,31 L 29,30 L 32,30 L 33,29 L 33,24 L 32,23 L 31,23 L 30,24 L 24,24 L 23,25 L 22,25 L 21,26 L 19,26 L 18,25 L 15,25 L 12,22 Z" fill="none" stroke="black" stroke-width="1"/>
</svg>