<svg xmlns="http://www.w3.org/2000/svg" width="121" height="80">
  <path d="M 104,38 L 104,39 L 101,42 L 100,41 L 99,41 L 95,45 L 93,43 L 93,42 L 91,42 L 90,43 L 89,43 L 88,42 L 86,42 L 85,41 L 83,41 L 82,40 L 81,41 L 81,42 L 79,44 L 78,43 L 77,44 L 76,43 L 75,43 L 74,44 L 74,46 L 73,47 L 73,48 L 70,51 L 70,53 L 72,55 L 73,55 L 74,56 L 74,59 L 75,60 L 75,61 L 77,61 L 78,60 L 79,60 L 81,62 L 81,67 L 79,69 L 76,69 L 76,71 L 77,72 L 77,73 L 78,74 L 78,76 L 79,76 L 79,75 L 81,73 L 85,73 L 86,72 L 85,71 L 85,70 L 87,68 L 89,68 L 90,69 L 91,69 L 92,68 L 93,68 L 92,67 L 92,66 L 91,65 L 94,62 L 96,62 L 97,61 L 98,61 L 98,60 L 99,59 L 101,59 L 102,58 L 102,57 L 103,56 L 103,55 L 102,54 L 102,50 L 103,49 L 103,48 L 104,47 L 104,46 L 106,44 L 106,42 L 107,41 L 109,41 L 108,40 L 107,40 L 105,38 Z" fill="none" stroke="black" stroke-width="1"/>
</svg>