<svg xmlns="http://www.w3.org/2000/svg" width="121" height="80">
  <path d="M 73,6 L 73,7 L 70,10 L 68,10 L 66,12 L 63,12 L 59,16 L 58,16 L 56,14 L 55,14 L 54,15 L 54,17 L 51,20 L 49,20 L 48,21 L 47,21 L 46,20 L 46,19 L 45,19 L 44,20 L 43,19 L 42,19 L 40,17 L 40,16 L 39,15 L 39,14 L 38,14 L 37,15 L 36,15 L 36,18 L 34,20 L 33,19 L 32,20 L 30,20 L 29,21 L 33,25 L 33,26 L 34,27 L 33,28 L 34,29 L 33,30 L 35,32 L 35,33 L 37,35 L 38,35 L 40,37 L 43,37 L 44,36 L 45,36 L 46,37 L 47,36 L 48,36 L 49,37 L 52,34 L 53,34 L 54,35 L 55,35 L 56,36 L 56,38 L 57,39 L 58,39 L 60,41 L 60,42 L 61,42 L 62,41 L 63,42 L 64,42 L 66,44 L 66,46 L 67,47 L 67,50 L 68,51 L 69,51 L 72,48 L 72,47 L 73,46 L 73,44 L 75,42 L 76,42 L 77,43 L 78,42 L 79,43 L 80,42 L 80,41 L 81,40 L 81,36 L 79,34 L 79,32 L 76,29 L 76,28 L 75,27 L 75,24 L 76,23 L 76,19 L 75,18 L 75,16 L 76,15 L 76,13 L 77,12 L 77,11 L 76,10 L 76,9 L 77,8 L 77,6 Z" fill="none" stroke="black" stroke-width="1"/>
</svg>