<svg xmlns="http://www.w3.org/2000/svg" width="121" height="80">
  <path d="M 52,35 L 49,38 L 48,37 L 47,37 L 46,38 L 45,37 L 44,37 L 43,38 L 42,38 L 45,41 L 45,42 L 46,43 L 44,45 L 42,45 L 42,47 L 41,48 L 41,50 L 40,51 L 38,51 L 37,52 L 37,53 L 38,54 L 38,56 L 37,57 L 36,57 L 35,58 L 33,58 L 33,60 L 30,63 L 29,63 L 28,64 L 28,67 L 29,68 L 29,69 L 31,71 L 31,73 L 32,72 L 33,72 L 36,75 L 36,76 L 38,78 L 39,78 L 40,79 L 43,79 L 44,78 L 45,78 L 46,79 L 46,78 L 48,76 L 48,74 L 49,73 L 50,73 L 51,72 L 52,72 L 52,69 L 53,68 L 54,68 L 55,67 L 58,67 L 58,65 L 57,65 L 56,66 L 55,66 L 54,65 L 54,62 L 57,59 L 59,59 L 62,62 L 65,62 L 66,63 L 68,63 L 69,62 L 70,62 L 71,61 L 74,61 L 74,60 L 73,59 L 73,56 L 72,56 L 69,53 L 69,52 L 68,52 L 66,50 L 66,47 L 65,46 L 65,44 L 64,43 L 63,43 L 62,42 L 61,43 L 60,43 L 59,42 L 59,41 L 58,40 L 57,40 L 55,38 L 55,36 L 54,36 L 53,35 Z" fill="none" stroke="black" stroke-width="1"/>
</svg>