<svg xmlns="http://www.w3.org/2000/svg" width="70" height="140">
  <path d="M 43,81 L 42,82 L 41,82 L 40,83 L 37,83 L 36,84 L 35,84 L 31,88 L 30,88 L 28,90 L 27,89 L 26,89 L 25,90 L 25,93 L 27,95 L 27,96 L 28,97 L 28,99 L 27,100 L 26,100 L 27,101 L 27,102 L 30,105 L 30,107 L 31,108 L 31,110 L 32,111 L 32,112 L 33,113 L 32,114 L 33,114 L 35,116 L 37,116 L 39,114 L 44,114 L 45,115 L 45,116 L 47,116 L 48,117 L 49,117 L 49,115 L 51,113 L 53,113 L 54,112 L 57,112 L 58,111 L 59,111 L 62,108 L 63,108 L 62,107 L 64,105 L 64,104 L 67,101 L 67,100 L 68,99 L 68,98 L 69,97 L 66,94 L 65,95 L 64,94 L 64,93 L 63,94 L 62,93 L 61,94 L 60,94 L 59,93 L 58,93 L 57,92 L 56,92 L 53,89 L 53,87 L 52,86 L 51,86 L 50,85 L 50,84 L 49,83 L 47,83 L 46,82 L 47,81 Z" fill="none" stroke="black" stroke-width="1"/>
</svg>