<svg xmlns="http://www.w3.org/2000/svg" width="70" height="140">
  <path d="M 4,71 L 4,72 L 3,73 L 3,75 L 1,77 L 1,78 L 0,79 L 0,87 L 2,85 L 4,87 L 5,86 L 6,87 L 7,87 L 8,88 L 11,88 L 12,89 L 12,92 L 11,93 L 10,93 L 12,95 L 12,98 L 13,99 L 13,100 L 14,101 L 14,102 L 15,103 L 16,103 L 17,104 L 22,104 L 23,105 L 23,106 L 24,107 L 24,108 L 26,110 L 27,110 L 28,109 L 29,109 L 30,110 L 30,111 L 30,108 L 29,107 L 29,105 L 26,102 L 26,101 L 25,100 L 26,99 L 27,99 L 27,97 L 26,96 L 26,95 L 24,93 L 24,89 L 23,88 L 23,87 L 22,87 L 21,86 L 20,86 L 18,84 L 17,84 L 16,83 L 15,83 L 12,80 L 12,78 L 10,78 L 8,76 L 8,74 L 6,72 L 5,72 Z" fill="none" stroke="black" stroke-width="1"/>
</svg>