<svg xmlns="http://www.w3.org/2000/svg" width="70" height="140">
  <path d="M 14,0 L 13,1 L 13,4 L 12,5 L 10,5 L 9,6 L 9,9 L 8,10 L 9,11 L 9,14 L 8,15 L 8,16 L 7,17 L 6,16 L 4,16 L 4,18 L 5,19 L 5,22 L 6,23 L 6,25 L 7,26 L 7,27 L 9,29 L 9,30 L 10,31 L 11,30 L 16,35 L 16,37 L 17,38 L 17,39 L 19,41 L 19,43 L 18,44 L 18,45 L 16,47 L 16,49 L 15,50 L 15,52 L 14,53 L 13,53 L 14,54 L 17,54 L 20,51 L 21,51 L 23,53 L 23,54 L 24,55 L 27,55 L 27,54 L 28,53 L 31,53 L 32,54 L 35,54 L 38,51 L 39,52 L 40,52 L 41,53 L 44,53 L 44,52 L 46,50 L 47,50 L 48,49 L 51,49 L 51,47 L 53,45 L 54,45 L 54,43 L 53,42 L 53,41 L 52,40 L 52,39 L 51,38 L 50,38 L 48,36 L 47,36 L 45,34 L 45,29 L 44,28 L 44,26 L 43,25 L 44,24 L 43,23 L 43,22 L 42,21 L 41,21 L 40,20 L 41,19 L 43,19 L 46,16 L 46,14 L 45,13 L 45,10 L 44,9 L 44,6 L 41,6 L 39,8 L 38,8 L 37,9 L 36,9 L 35,10 L 34,10 L 33,11 L 32,11 L 31,12 L 30,12 L 29,13 L 28,13 L 24,17 L 24,18 L 23,19 L 22,18 L 21,19 L 20,19 L 19,18 L 19,17 L 18,16 L 18,15 L 16,13 L 17,12 L 16,11 L 16,3 L 17,2 L 17,0 Z" fill="none" stroke="black" stroke-width="1"/>
</svg>