<svg xmlns="http://www.w3.org/2000/svg" width="106" height="65">
  <path d="M 88,9 L 87,10 L 86,10 L 86,11 L 85,12 L 82,12 L 81,13 L 78,13 L 76,15 L 76,16 L 74,18 L 75,19 L 75,20 L 73,22 L 72,22 L 72,23 L 71,24 L 69,22 L 68,22 L 67,23 L 66,23 L 67,24 L 67,25 L 65,27 L 65,29 L 66,30 L 66,33 L 67,34 L 67,35 L 67,34 L 68,33 L 69,33 L 71,35 L 73,35 L 74,34 L 76,34 L 77,35 L 79,35 L 80,34 L 80,33 L 84,29 L 85,29 L 86,28 L 87,28 L 88,29 L 88,30 L 90,32 L 91,32 L 99,40 L 99,41 L 103,41 L 105,39 L 104,38 L 104,36 L 105,35 L 105,33 L 104,32 L 104,31 L 103,30 L 101,30 L 100,29 L 100,27 L 101,26 L 101,24 L 100,23 L 100,22 L 98,20 L 98,16 L 97,15 L 97,14 L 96,14 L 95,13 L 94,13 L 92,11 L 91,11 L 89,9 Z" fill="none" stroke="black" stroke-width="1"/>
</svg>