<svg xmlns="http://www.w3.org/2000/svg" width="122" height="69">
  <path d="M 61,21 L 60,22 L 59,22 L 58,23 L 56,23 L 55,24 L 55,25 L 52,28 L 49,28 L 48,27 L 44,27 L 44,29 L 41,32 L 41,33 L 42,34 L 42,36 L 39,39 L 40,39 L 43,42 L 45,42 L 46,41 L 47,41 L 48,42 L 49,41 L 50,41 L 51,42 L 52,42 L 53,43 L 53,44 L 54,45 L 52,47 L 52,50 L 56,54 L 56,55 L 57,55 L 58,56 L 59,55 L 61,57 L 61,58 L 62,59 L 62,61 L 64,63 L 65,63 L 66,64 L 66,65 L 67,66 L 67,67 L 68,68 L 69,68 L 71,66 L 73,66 L 75,68 L 76,67 L 76,66 L 77,65 L 79,65 L 82,62 L 83,62 L 84,61 L 85,62 L 86,62 L 87,61 L 88,62 L 89,62 L 88,61 L 88,60 L 86,58 L 85,58 L 84,57 L 84,54 L 83,53 L 83,52 L 80,52 L 76,48 L 76,44 L 79,41 L 80,41 L 81,40 L 82,40 L 84,38 L 84,37 L 83,36 L 83,34 L 82,33 L 82,28 L 83,27 L 83,26 L 80,23 L 72,23 L 71,24 L 69,24 L 68,23 L 67,23 L 66,22 L 65,22 L 64,21 Z" fill="none" stroke="black" stroke-width="1"/>
</svg>