<svg xmlns="http://www.w3.org/2000/svg" width="122" height="69">
  <path d="M 24,0 L 23,1 L 22,1 L 21,2 L 18,2 L 16,4 L 14,2 L 13,2 L 12,1 L 12,2 L 11,3 L 11,5 L 9,7 L 7,7 L 6,6 L 5,6 L 4,5 L 3,5 L 2,6 L 1,6 L 0,7 L 0,8 L 3,11 L 3,12 L 5,14 L 5,18 L 6,19 L 6,21 L 7,22 L 7,25 L 8,25 L 9,26 L 9,28 L 8,29 L 9,29 L 12,32 L 12,31 L 14,29 L 15,29 L 16,30 L 16,32 L 15,33 L 15,34 L 14,35 L 14,39 L 12,41 L 11,41 L 11,42 L 14,45 L 14,46 L 15,47 L 16,46 L 18,46 L 19,45 L 20,45 L 22,43 L 23,43 L 23,42 L 24,41 L 26,41 L 27,42 L 27,43 L 29,45 L 30,44 L 31,44 L 32,43 L 33,43 L 34,42 L 37,42 L 38,41 L 38,39 L 41,36 L 41,34 L 40,33 L 40,32 L 43,29 L 43,27 L 44,26 L 46,26 L 46,21 L 44,19 L 44,16 L 42,14 L 42,13 L 41,12 L 40,12 L 39,11 L 39,10 L 38,11 L 36,11 L 34,9 L 34,8 L 33,7 L 32,7 L 31,8 L 29,6 L 29,5 L 28,4 L 28,3 L 27,2 L 27,1 L 26,0 Z" fill="none" stroke="black" stroke-width="1"/>
</svg>