<svg xmlns="http://www.w3.org/2000/svg" width="119" height="69">
  <path d="M 21,0 L 20,1 L 19,1 L 19,2 L 20,3 L 20,5 L 21,6 L 23,6 L 24,7 L 24,8 L 25,9 L 23,11 L 22,11 L 21,12 L 18,12 L 17,13 L 17,15 L 16,16 L 16,18 L 17,19 L 17,20 L 16,21 L 17,22 L 17,25 L 18,26 L 18,27 L 19,27 L 20,28 L 20,29 L 21,30 L 22,30 L 25,33 L 26,33 L 28,31 L 29,31 L 30,30 L 32,30 L 33,31 L 34,31 L 35,30 L 39,30 L 40,31 L 44,31 L 46,33 L 49,33 L 50,34 L 51,34 L 52,33 L 54,33 L 55,34 L 59,34 L 59,33 L 60,32 L 61,32 L 63,34 L 64,34 L 66,36 L 68,36 L 69,37 L 71,37 L 72,38 L 73,38 L 75,36 L 76,36 L 72,32 L 71,32 L 70,31 L 69,31 L 67,29 L 66,29 L 65,28 L 65,27 L 69,23 L 69,22 L 70,21 L 70,18 L 71,17 L 71,16 L 72,15 L 71,14 L 69,14 L 68,15 L 66,15 L 65,16 L 61,16 L 60,15 L 57,15 L 55,13 L 53,13 L 52,12 L 51,12 L 50,11 L 48,11 L 47,10 L 47,9 L 46,8 L 46,7 L 43,7 L 42,6 L 42,3 L 39,0 L 38,0 L 37,1 L 28,1 L 27,2 L 26,2 L 25,1 L 24,1 L 23,0 Z" fill="none" stroke="black" stroke-width="1"/>
</svg>