<svg xmlns="http://www.w3.org/2000/svg" width="119" height="69">
  <path d="M 42,32 L 42,35 L 44,37 L 44,38 L 46,40 L 46,41 L 47,42 L 47,44 L 46,45 L 43,45 L 41,47 L 41,48 L 38,51 L 38,53 L 39,54 L 38,55 L 38,56 L 39,56 L 40,57 L 42,57 L 43,58 L 45,58 L 46,59 L 48,59 L 49,60 L 52,60 L 53,61 L 54,61 L 55,62 L 56,62 L 57,63 L 59,63 L 60,62 L 61,62 L 62,63 L 64,63 L 65,62 L 66,62 L 67,63 L 68,63 L 69,64 L 70,64 L 71,65 L 71,66 L 73,64 L 73,63 L 78,58 L 80,58 L 81,57 L 82,57 L 82,52 L 81,51 L 81,50 L 80,49 L 78,49 L 77,48 L 77,47 L 73,43 L 73,41 L 74,40 L 74,38 L 73,39 L 72,39 L 71,38 L 69,38 L 68,37 L 66,37 L 64,35 L 63,35 L 61,33 L 60,33 L 60,34 L 59,35 L 55,35 L 54,34 L 52,34 L 51,35 L 50,35 L 49,34 L 46,34 L 44,32 Z" fill="none" stroke="black" stroke-width="1"/>
</svg>