<svg xmlns="http://www.w3.org/2000/svg" width="83" height="96">
  <path d="M 22,23 L 21,24 L 20,24 L 20,25 L 18,27 L 18,28 L 16,30 L 14,30 L 11,27 L 11,25 L 10,24 L 8,24 L 7,25 L 6,25 L 5,26 L 4,26 L 3,25 L 2,26 L 3,27 L 2,28 L 3,29 L 3,30 L 4,31 L 4,34 L 5,35 L 5,36 L 6,37 L 6,38 L 7,39 L 6,40 L 6,41 L 8,43 L 7,44 L 7,45 L 6,46 L 5,46 L 5,47 L 4,48 L 3,48 L 3,49 L 2,50 L 1,50 L 3,52 L 4,52 L 5,53 L 6,53 L 7,54 L 7,56 L 8,57 L 7,58 L 7,59 L 6,60 L 5,60 L 6,61 L 6,63 L 8,65 L 8,71 L 9,72 L 9,73 L 11,73 L 10,72 L 11,71 L 12,71 L 12,70 L 13,69 L 14,69 L 15,68 L 17,70 L 17,71 L 18,72 L 21,72 L 25,68 L 25,67 L 29,63 L 31,63 L 34,60 L 34,58 L 39,53 L 40,53 L 41,52 L 42,53 L 43,53 L 44,54 L 45,54 L 46,53 L 46,52 L 47,51 L 41,45 L 40,45 L 38,43 L 39,42 L 39,41 L 38,40 L 39,39 L 35,35 L 34,35 L 32,37 L 31,37 L 30,38 L 28,36 L 28,34 L 26,32 L 27,31 L 28,31 L 29,30 L 29,27 L 28,26 L 28,25 L 26,25 L 25,24 L 23,24 Z" fill="none" stroke="black" stroke-width="1"/>
</svg>