<svg xmlns="http://www.w3.org/2000/svg" width="83" height="96">
  <path d="M 50,47 L 49,48 L 49,49 L 48,50 L 48,51 L 47,52 L 47,53 L 45,55 L 44,55 L 43,54 L 42,54 L 41,53 L 40,54 L 39,54 L 35,58 L 35,60 L 31,64 L 29,64 L 26,67 L 27,67 L 28,68 L 31,68 L 32,67 L 35,70 L 34,71 L 34,73 L 35,74 L 35,75 L 37,75 L 39,77 L 36,80 L 36,83 L 34,85 L 34,86 L 33,87 L 36,87 L 38,89 L 38,90 L 37,91 L 38,92 L 38,94 L 39,95 L 39,94 L 40,93 L 44,93 L 45,92 L 46,93 L 47,93 L 48,92 L 48,91 L 49,90 L 49,87 L 50,86 L 52,86 L 53,87 L 57,87 L 59,89 L 59,90 L 60,91 L 61,91 L 61,87 L 60,86 L 60,84 L 62,82 L 63,82 L 65,80 L 66,80 L 67,81 L 68,81 L 69,82 L 69,83 L 74,83 L 75,82 L 76,82 L 76,81 L 77,80 L 77,79 L 75,77 L 75,76 L 77,74 L 77,73 L 78,72 L 78,71 L 80,69 L 80,67 L 78,65 L 79,64 L 79,62 L 77,60 L 77,58 L 78,57 L 78,55 L 76,53 L 76,52 L 75,51 L 74,51 L 73,52 L 72,52 L 71,53 L 70,53 L 69,54 L 68,54 L 67,55 L 66,54 L 64,54 L 63,53 L 64,52 L 63,51 L 64,50 L 62,48 L 59,48 L 58,47 L 56,47 L 55,48 L 54,47 Z" fill="none" stroke="black" stroke-width="1"/>
</svg>