<svg xmlns="http://www.w3.org/2000/svg" width="85" height="60">
  <path d="M 45,21 L 44,22 L 43,22 L 43,23 L 42,24 L 42,25 L 43,26 L 43,28 L 45,30 L 45,32 L 44,33 L 42,33 L 42,34 L 44,36 L 44,38 L 43,39 L 44,40 L 43,41 L 44,42 L 43,43 L 43,45 L 45,47 L 45,49 L 46,50 L 47,50 L 48,51 L 51,51 L 52,52 L 52,53 L 53,54 L 54,54 L 55,55 L 56,54 L 58,54 L 59,55 L 60,55 L 61,56 L 63,56 L 64,55 L 66,55 L 67,56 L 67,57 L 68,58 L 70,58 L 71,59 L 73,59 L 73,58 L 74,57 L 74,54 L 76,52 L 77,52 L 77,50 L 76,49 L 76,48 L 77,47 L 77,43 L 76,42 L 76,41 L 74,39 L 73,40 L 70,40 L 69,39 L 68,39 L 67,38 L 66,38 L 64,36 L 64,34 L 61,31 L 61,30 L 60,29 L 60,28 L 55,23 L 54,23 L 53,22 L 51,22 L 50,21 L 49,22 L 48,22 L 47,21 Z" fill="none" stroke="black" stroke-width="1"/>
</svg>