<svg xmlns="http://www.w3.org/2000/svg" width="85" height="60">
  <path d="M 69,0 L 67,2 L 66,2 L 65,1 L 62,1 L 61,2 L 61,3 L 60,4 L 60,6 L 58,8 L 57,8 L 56,7 L 55,7 L 54,6 L 51,9 L 51,12 L 52,13 L 52,16 L 51,17 L 50,17 L 50,19 L 51,20 L 51,21 L 53,21 L 54,22 L 55,22 L 61,28 L 61,29 L 63,29 L 66,26 L 65,25 L 66,24 L 66,23 L 69,20 L 69,18 L 70,17 L 70,15 L 71,14 L 71,13 L 72,12 L 75,12 L 76,13 L 77,12 L 78,12 L 79,11 L 80,12 L 80,13 L 81,13 L 82,12 L 83,12 L 84,11 L 84,10 L 77,3 L 76,4 L 75,3 L 73,3 L 72,4 L 71,4 L 70,3 L 70,2 L 69,1 Z" fill="none" stroke="black" stroke-width="1"/>
</svg>