<svg xmlns="http://www.w3.org/2000/svg" width="74" height="119">
  <path d="M 22,28 L 21,29 L 21,30 L 20,31 L 19,31 L 18,32 L 17,32 L 17,36 L 11,42 L 11,43 L 10,44 L 10,45 L 9,46 L 9,47 L 6,50 L 6,51 L 7,52 L 12,52 L 13,53 L 14,53 L 16,55 L 16,56 L 17,57 L 19,57 L 20,58 L 23,58 L 24,57 L 25,57 L 25,55 L 26,54 L 27,54 L 30,51 L 31,51 L 32,52 L 33,52 L 34,51 L 36,53 L 36,55 L 37,56 L 37,57 L 39,59 L 39,61 L 40,62 L 41,62 L 42,61 L 43,61 L 44,60 L 47,63 L 48,63 L 49,64 L 56,64 L 57,63 L 57,59 L 53,55 L 53,54 L 52,53 L 52,52 L 48,48 L 48,47 L 49,46 L 49,45 L 51,43 L 51,41 L 52,40 L 52,39 L 54,37 L 54,36 L 55,35 L 56,35 L 55,34 L 54,34 L 52,32 L 51,32 L 50,33 L 49,33 L 48,34 L 45,34 L 44,35 L 42,35 L 41,36 L 39,36 L 38,37 L 36,37 L 34,39 L 33,39 L 27,33 L 26,33 L 22,29 Z" fill="none" stroke="black" stroke-width="1"/>
</svg>