<svg xmlns="http://www.w3.org/2000/svg" width="74" height="119">
  <path d="M 44,61 L 43,62 L 42,62 L 31,73 L 28,73 L 25,76 L 25,78 L 26,79 L 26,82 L 28,84 L 29,84 L 32,87 L 32,89 L 33,90 L 33,91 L 32,92 L 31,92 L 30,93 L 28,93 L 27,94 L 26,94 L 25,95 L 25,98 L 26,99 L 26,101 L 25,102 L 25,103 L 27,103 L 28,104 L 31,104 L 32,103 L 34,103 L 35,102 L 38,102 L 40,100 L 43,100 L 44,99 L 45,99 L 46,98 L 47,98 L 48,97 L 48,94 L 49,93 L 49,91 L 50,90 L 50,89 L 51,88 L 51,87 L 52,86 L 52,85 L 50,83 L 50,82 L 48,80 L 49,79 L 50,79 L 51,78 L 52,78 L 54,76 L 54,74 L 52,72 L 52,70 L 55,67 L 55,65 L 49,65 L 48,64 L 47,64 Z" fill="none" stroke="black" stroke-width="1"/>
</svg>