<svg xmlns="http://www.w3.org/2000/svg" width="89" height="129">
  <path d="M 87,0 L 87,1 L 86,2 L 83,2 L 81,4 L 80,4 L 79,5 L 76,5 L 75,6 L 74,6 L 73,7 L 73,9 L 72,10 L 71,10 L 67,14 L 66,14 L 65,15 L 64,15 L 63,16 L 62,16 L 62,17 L 61,18 L 61,19 L 56,24 L 56,25 L 54,27 L 54,28 L 52,30 L 51,30 L 48,33 L 48,34 L 47,35 L 47,36 L 45,38 L 44,38 L 43,37 L 40,37 L 38,35 L 38,34 L 37,33 L 32,33 L 31,32 L 30,32 L 29,31 L 28,31 L 25,28 L 24,28 L 25,29 L 25,30 L 23,32 L 23,34 L 22,35 L 22,37 L 23,38 L 23,39 L 25,41 L 27,41 L 28,42 L 30,42 L 31,43 L 32,43 L 33,44 L 37,44 L 38,43 L 39,43 L 41,45 L 42,45 L 43,46 L 44,46 L 45,47 L 45,51 L 46,52 L 46,54 L 44,56 L 45,57 L 45,59 L 44,60 L 44,63 L 43,64 L 44,65 L 44,67 L 43,68 L 43,70 L 44,71 L 45,70 L 46,70 L 48,72 L 51,69 L 53,69 L 55,71 L 55,73 L 57,75 L 57,79 L 58,79 L 59,80 L 60,80 L 61,81 L 61,82 L 67,82 L 68,81 L 70,81 L 71,82 L 71,81 L 72,80 L 72,75 L 71,74 L 71,73 L 72,72 L 72,69 L 73,68 L 73,67 L 75,65 L 75,63 L 74,62 L 74,60 L 73,59 L 73,58 L 72,57 L 72,55 L 71,54 L 71,53 L 72,52 L 72,48 L 73,47 L 73,44 L 74,43 L 74,42 L 77,39 L 77,38 L 78,37 L 78,31 L 77,30 L 77,28 L 76,27 L 76,26 L 75,25 L 75,24 L 74,23 L 74,21 L 76,19 L 76,18 L 80,14 L 80,13 L 81,12 L 81,11 L 82,10 L 82,9 L 88,3 L 88,0 Z" fill="none" stroke="black" stroke-width="1"/>
</svg>