<svg xmlns="http://www.w3.org/2000/svg" width="106" height="123">
  <path d="M 57,72 L 56,73 L 54,73 L 53,74 L 53,77 L 54,77 L 55,78 L 53,80 L 53,81 L 52,82 L 52,83 L 50,85 L 49,85 L 48,86 L 48,88 L 47,89 L 47,90 L 45,92 L 47,94 L 47,96 L 46,97 L 46,98 L 47,98 L 48,99 L 50,99 L 52,97 L 53,98 L 54,97 L 55,97 L 56,98 L 58,96 L 60,96 L 61,97 L 61,98 L 63,100 L 67,100 L 68,101 L 69,100 L 70,100 L 71,99 L 71,98 L 72,97 L 72,95 L 71,94 L 72,93 L 71,92 L 71,91 L 72,90 L 72,89 L 74,87 L 73,86 L 73,85 L 72,85 L 71,84 L 70,84 L 69,83 L 73,79 L 72,78 L 72,77 L 71,76 L 70,76 L 69,75 L 68,76 L 66,76 L 65,75 L 63,77 L 62,77 L 61,76 L 60,76 L 57,73 Z" fill="none" stroke="black" stroke-width="1"/>
</svg>