<svg xmlns="http://www.w3.org/2000/svg" width="71" height="62">
  <path d="M 34,10 L 33,11 L 27,11 L 26,12 L 19,12 L 18,13 L 17,13 L 15,15 L 14,14 L 12,14 L 11,13 L 7,13 L 6,14 L 5,14 L 4,15 L 1,15 L 0,14 L 0,16 L 2,18 L 2,20 L 4,22 L 4,24 L 7,24 L 8,25 L 8,28 L 13,28 L 15,26 L 19,26 L 20,25 L 20,24 L 22,22 L 26,22 L 27,23 L 28,23 L 29,24 L 30,24 L 31,25 L 31,26 L 32,26 L 33,25 L 34,25 L 35,26 L 38,26 L 40,24 L 40,23 L 41,22 L 43,22 L 43,17 L 44,16 L 44,15 L 42,13 L 41,13 L 39,11 L 38,11 L 37,10 Z" fill="none" stroke="black" stroke-width="1"/>
</svg>