<svg xmlns="http://www.w3.org/2000/svg" width="106" height="123">
  <path d="M 73,38 L 72,39 L 71,39 L 70,40 L 69,40 L 68,41 L 65,41 L 64,42 L 63,42 L 62,43 L 61,43 L 60,44 L 56,44 L 55,45 L 53,45 L 51,47 L 53,49 L 53,50 L 56,53 L 56,54 L 53,57 L 53,59 L 54,60 L 54,61 L 56,63 L 56,69 L 57,70 L 57,71 L 58,72 L 58,73 L 60,75 L 61,75 L 62,76 L 63,76 L 65,74 L 66,75 L 68,75 L 69,74 L 70,75 L 73,75 L 74,74 L 76,74 L 77,75 L 79,75 L 81,77 L 81,78 L 82,79 L 84,79 L 85,80 L 87,80 L 90,77 L 90,75 L 91,74 L 90,73 L 92,71 L 93,71 L 94,72 L 95,71 L 99,71 L 100,72 L 101,72 L 102,71 L 102,69 L 103,68 L 103,66 L 102,65 L 103,64 L 103,61 L 104,60 L 104,58 L 103,57 L 105,55 L 105,53 L 104,52 L 104,48 L 103,48 L 102,47 L 101,47 L 99,45 L 98,45 L 97,46 L 93,46 L 92,45 L 91,45 L 90,44 L 88,44 L 87,43 L 85,43 L 82,40 L 82,39 L 81,38 L 75,38 L 74,39 Z" fill="none" stroke="black" stroke-width="1"/>
</svg>