<svg xmlns="http://www.w3.org/2000/svg" width="182" height="136">
  <path d="M 180,61 L 179,62 L 178,62 L 177,63 L 176,63 L 175,64 L 174,64 L 173,63 L 172,63 L 171,64 L 169,64 L 168,63 L 159,63 L 157,65 L 158,66 L 158,68 L 156,70 L 155,70 L 154,69 L 153,70 L 151,70 L 149,68 L 148,68 L 147,67 L 144,67 L 143,68 L 143,70 L 145,72 L 144,73 L 144,74 L 143,75 L 143,76 L 141,78 L 141,79 L 139,81 L 138,81 L 138,82 L 141,85 L 142,85 L 144,87 L 145,87 L 146,88 L 148,88 L 149,89 L 150,89 L 152,91 L 154,91 L 155,92 L 156,92 L 160,96 L 158,98 L 160,100 L 160,101 L 162,103 L 162,105 L 163,106 L 163,107 L 165,109 L 165,110 L 167,112 L 167,115 L 167,114 L 168,113 L 170,113 L 171,114 L 173,114 L 174,113 L 177,113 L 178,112 L 178,105 L 177,104 L 177,102 L 176,101 L 176,98 L 177,97 L 177,95 L 178,94 L 178,93 L 179,92 L 179,90 L 180,89 L 179,89 L 177,87 L 176,87 L 175,86 L 174,86 L 170,82 L 169,82 L 168,81 L 173,76 L 176,76 L 177,75 L 177,74 L 178,73 L 178,70 L 177,69 L 179,67 L 179,66 L 181,64 L 181,62 Z" fill="none" stroke="black" stroke-width="1"/>
</svg>