<svg xmlns="http://www.w3.org/2000/svg" width="106" height="123">
  <path d="M 9,73 L 8,74 L 7,74 L 6,75 L 5,75 L 3,77 L 1,77 L 0,78 L 1,79 L 1,81 L 2,82 L 2,83 L 1,84 L 1,86 L 2,87 L 4,87 L 6,89 L 7,89 L 12,94 L 12,96 L 13,96 L 15,98 L 17,96 L 20,96 L 21,95 L 22,95 L 23,94 L 25,94 L 27,96 L 27,97 L 28,98 L 28,99 L 29,100 L 29,101 L 30,102 L 31,101 L 32,101 L 34,103 L 34,104 L 35,105 L 37,105 L 38,104 L 39,105 L 39,106 L 40,106 L 42,108 L 42,109 L 44,111 L 44,114 L 46,116 L 46,121 L 47,121 L 48,122 L 51,122 L 53,120 L 53,119 L 55,117 L 57,117 L 58,116 L 59,116 L 60,115 L 59,114 L 59,113 L 62,110 L 62,107 L 59,104 L 59,103 L 60,102 L 61,102 L 62,101 L 62,100 L 60,98 L 60,97 L 58,97 L 56,99 L 55,98 L 54,98 L 53,99 L 52,98 L 50,100 L 48,100 L 47,99 L 46,99 L 45,98 L 45,97 L 46,96 L 46,94 L 44,92 L 46,90 L 46,89 L 44,87 L 41,87 L 39,85 L 38,85 L 37,84 L 37,82 L 36,82 L 35,81 L 34,81 L 33,80 L 31,80 L 28,77 L 26,77 L 24,75 L 22,75 L 21,76 L 18,73 L 16,73 L 15,74 L 13,74 L 12,73 Z" fill="none" stroke="black" stroke-width="1"/>
</svg>