<svg xmlns="http://www.w3.org/2000/svg" width="182" height="136">
  <path d="M 130,80 L 129,81 L 128,81 L 128,83 L 129,84 L 129,85 L 134,90 L 135,90 L 137,92 L 138,92 L 142,96 L 140,98 L 137,98 L 136,99 L 136,100 L 138,102 L 138,103 L 136,105 L 135,105 L 135,106 L 137,106 L 141,110 L 140,111 L 137,111 L 136,112 L 135,112 L 134,113 L 134,114 L 133,115 L 133,116 L 134,116 L 137,119 L 139,119 L 140,120 L 141,120 L 146,125 L 146,127 L 147,128 L 147,131 L 148,132 L 150,132 L 151,133 L 151,134 L 152,135 L 153,134 L 155,134 L 157,132 L 158,132 L 159,131 L 160,131 L 161,130 L 163,130 L 161,128 L 165,124 L 165,121 L 167,119 L 167,118 L 168,117 L 168,116 L 167,116 L 166,115 L 166,112 L 164,110 L 164,109 L 162,107 L 162,106 L 161,105 L 161,103 L 159,101 L 159,100 L 157,98 L 159,96 L 156,93 L 155,93 L 154,92 L 152,92 L 150,90 L 149,90 L 148,89 L 146,89 L 145,88 L 144,88 L 142,86 L 141,86 L 137,82 L 137,81 L 136,81 L 135,80 L 134,80 L 133,81 L 132,81 L 131,80 Z" fill="none" stroke="black" stroke-width="1"/>
</svg>