<svg xmlns="http://www.w3.org/2000/svg" width="99" height="107">
  <path d="M 22,0 L 21,1 L 21,3 L 19,5 L 19,7 L 17,9 L 17,10 L 13,14 L 13,15 L 10,18 L 10,19 L 9,20 L 9,21 L 8,22 L 8,23 L 9,24 L 9,25 L 10,26 L 10,27 L 11,28 L 11,31 L 9,33 L 9,34 L 8,35 L 7,35 L 5,37 L 4,37 L 2,39 L 2,40 L 3,41 L 2,42 L 2,45 L 1,46 L 1,47 L 0,48 L 1,49 L 3,49 L 4,48 L 6,48 L 8,46 L 13,46 L 14,47 L 17,47 L 18,46 L 23,46 L 24,47 L 25,47 L 26,46 L 27,46 L 28,45 L 32,45 L 33,46 L 37,46 L 38,45 L 39,45 L 40,44 L 43,44 L 44,43 L 43,42 L 44,41 L 44,40 L 45,39 L 45,38 L 44,37 L 44,36 L 42,34 L 41,34 L 39,32 L 37,32 L 36,31 L 34,31 L 32,29 L 32,28 L 30,26 L 30,24 L 29,23 L 29,19 L 34,14 L 34,12 L 32,10 L 32,9 L 31,8 L 31,7 L 30,6 L 30,4 L 29,3 L 29,2 L 28,1 L 27,1 L 26,0 L 25,1 L 24,0 Z" fill="none" stroke="black" stroke-width="1"/>
</svg>