<svg xmlns="http://www.w3.org/2000/svg" width="125" height="93">
  <path d="M 47,26 L 47,29 L 45,31 L 44,31 L 43,32 L 42,32 L 42,34 L 41,35 L 41,39 L 39,41 L 36,41 L 36,42 L 35,43 L 35,44 L 36,45 L 36,46 L 33,49 L 32,49 L 32,55 L 30,57 L 34,61 L 34,62 L 36,64 L 36,68 L 37,69 L 39,69 L 40,68 L 41,68 L 42,67 L 44,67 L 45,68 L 46,68 L 47,69 L 49,69 L 50,70 L 58,70 L 58,69 L 59,68 L 59,67 L 60,66 L 60,64 L 59,63 L 59,62 L 58,61 L 58,59 L 55,56 L 55,54 L 56,53 L 56,52 L 57,51 L 57,48 L 56,47 L 56,46 L 55,46 L 53,44 L 53,43 L 54,42 L 54,41 L 57,38 L 57,35 L 59,33 L 56,30 L 56,29 L 53,29 L 51,27 L 48,27 Z" fill="none" stroke="black" stroke-width="1"/>
</svg>