<svg xmlns="http://www.w3.org/2000/svg" width="105" height="72">
  <path d="M 79,0 L 77,2 L 76,2 L 75,3 L 75,4 L 74,5 L 73,5 L 72,6 L 71,6 L 71,7 L 70,8 L 70,11 L 69,12 L 69,13 L 67,15 L 64,15 L 62,13 L 61,13 L 60,14 L 59,14 L 58,15 L 56,15 L 55,16 L 56,17 L 54,19 L 53,19 L 52,20 L 51,20 L 51,21 L 52,22 L 52,24 L 53,25 L 53,27 L 60,27 L 62,25 L 63,25 L 64,26 L 65,26 L 66,27 L 66,28 L 67,29 L 67,32 L 68,33 L 68,35 L 71,38 L 71,39 L 72,40 L 73,40 L 75,42 L 77,42 L 79,44 L 80,44 L 81,43 L 82,43 L 83,42 L 87,42 L 87,41 L 88,40 L 94,40 L 94,39 L 95,38 L 97,38 L 97,37 L 98,36 L 104,36 L 102,34 L 102,33 L 101,32 L 101,30 L 102,29 L 102,28 L 101,27 L 101,26 L 99,24 L 99,23 L 91,15 L 91,8 L 92,7 L 92,3 L 89,0 L 85,0 L 84,1 L 81,1 L 80,0 Z" fill="none" stroke="black" stroke-width="1"/>
</svg>