<svg xmlns="http://www.w3.org/2000/svg" width="83" height="100">
  <path d="M 55,0 L 54,1 L 52,1 L 52,5 L 51,6 L 49,6 L 48,7 L 39,7 L 39,8 L 38,9 L 36,9 L 36,10 L 35,11 L 29,11 L 29,12 L 28,13 L 24,13 L 23,14 L 22,14 L 22,15 L 26,19 L 28,19 L 29,20 L 29,21 L 30,21 L 31,22 L 39,22 L 40,23 L 41,23 L 42,24 L 43,24 L 45,26 L 45,27 L 47,29 L 48,29 L 48,28 L 50,26 L 51,26 L 52,25 L 55,25 L 56,24 L 57,24 L 58,23 L 59,23 L 59,22 L 60,21 L 61,22 L 64,22 L 66,24 L 66,26 L 69,26 L 70,25 L 72,25 L 72,24 L 74,22 L 75,22 L 75,21 L 80,16 L 80,14 L 79,13 L 79,4 L 81,2 L 82,2 L 77,2 L 76,1 L 68,1 L 67,0 L 64,0 L 63,1 L 58,1 L 57,0 Z" fill="none" stroke="black" stroke-width="1"/>
</svg>