<svg xmlns="http://www.w3.org/2000/svg" width="185" height="118">
  <path d="M 69,5 L 69,6 L 68,7 L 68,9 L 67,10 L 67,12 L 64,15 L 63,15 L 63,16 L 65,18 L 65,19 L 69,23 L 65,27 L 63,27 L 61,29 L 61,30 L 59,32 L 59,34 L 62,37 L 62,40 L 60,42 L 60,46 L 59,47 L 59,50 L 61,52 L 62,52 L 64,54 L 65,54 L 66,55 L 67,55 L 69,57 L 72,57 L 73,58 L 74,58 L 75,59 L 80,59 L 84,63 L 87,60 L 90,60 L 91,59 L 93,59 L 94,60 L 96,60 L 99,63 L 100,63 L 102,65 L 105,65 L 106,66 L 109,66 L 112,69 L 114,69 L 115,68 L 116,68 L 118,66 L 119,66 L 120,65 L 121,65 L 121,64 L 122,63 L 124,63 L 125,62 L 130,62 L 131,61 L 131,59 L 133,57 L 134,57 L 135,56 L 139,56 L 137,54 L 137,51 L 136,50 L 135,50 L 134,49 L 133,49 L 132,48 L 131,48 L 130,47 L 130,46 L 128,44 L 128,40 L 127,39 L 127,38 L 126,38 L 125,39 L 123,39 L 120,36 L 120,35 L 118,33 L 118,29 L 119,28 L 120,28 L 122,26 L 123,26 L 124,25 L 125,25 L 125,24 L 127,22 L 127,19 L 128,18 L 128,17 L 126,19 L 125,19 L 124,18 L 122,18 L 121,17 L 117,17 L 116,16 L 114,16 L 113,15 L 109,15 L 108,16 L 107,16 L 106,17 L 97,17 L 96,16 L 95,16 L 94,15 L 89,15 L 88,14 L 84,14 L 83,13 L 82,13 L 81,14 L 78,14 L 77,13 L 76,13 L 75,12 L 75,9 L 73,7 L 73,6 L 72,5 Z" fill="none" stroke="black" stroke-width="1"/>
</svg>