<svg xmlns="http://www.w3.org/2000/svg" width="185" height="118">
  <path d="M 91,60 L 90,61 L 87,61 L 84,64 L 84,71 L 83,72 L 83,73 L 81,75 L 73,75 L 72,74 L 66,74 L 65,75 L 61,75 L 58,78 L 58,80 L 59,81 L 59,82 L 61,84 L 61,86 L 65,90 L 66,90 L 71,95 L 71,98 L 72,99 L 72,101 L 73,102 L 74,102 L 75,103 L 75,104 L 78,107 L 79,107 L 80,108 L 81,108 L 82,109 L 83,108 L 86,108 L 88,106 L 90,106 L 91,107 L 92,107 L 93,108 L 94,108 L 95,109 L 96,109 L 97,110 L 98,110 L 99,111 L 100,111 L 102,113 L 105,113 L 106,114 L 107,114 L 108,115 L 112,115 L 113,114 L 118,114 L 118,110 L 119,109 L 119,106 L 122,103 L 122,99 L 121,98 L 121,97 L 120,96 L 120,94 L 124,90 L 124,87 L 123,86 L 123,83 L 119,79 L 119,77 L 120,76 L 120,75 L 121,74 L 121,73 L 122,72 L 122,65 L 123,64 L 122,64 L 122,65 L 121,66 L 120,66 L 119,67 L 118,67 L 116,69 L 115,69 L 114,70 L 112,70 L 109,67 L 106,67 L 105,66 L 102,66 L 100,64 L 99,64 L 96,61 L 94,61 L 93,60 Z" fill="none" stroke="black" stroke-width="1"/>
</svg>