<svg xmlns="http://www.w3.org/2000/svg" width="230" height="103">
  <path d="M 0,0 L 0,1 L 1,2 L 1,5 L 4,8 L 4,9 L 5,9 L 7,11 L 8,11 L 9,12 L 10,12 L 12,14 L 12,15 L 13,16 L 13,17 L 14,18 L 14,20 L 12,22 L 12,24 L 11,25 L 11,26 L 10,27 L 10,28 L 8,30 L 7,30 L 6,31 L 6,34 L 9,37 L 10,37 L 11,38 L 12,38 L 13,39 L 14,39 L 15,40 L 17,40 L 18,41 L 21,41 L 22,42 L 30,42 L 31,43 L 33,43 L 34,44 L 35,43 L 43,43 L 45,45 L 46,44 L 48,44 L 49,43 L 49,42 L 56,35 L 58,35 L 59,34 L 65,34 L 66,33 L 72,33 L 73,32 L 74,32 L 75,31 L 76,31 L 77,30 L 78,30 L 82,26 L 84,26 L 89,21 L 89,20 L 91,18 L 92,18 L 93,17 L 94,17 L 97,14 L 97,13 L 96,13 L 95,12 L 94,12 L 93,11 L 85,11 L 84,10 L 83,10 L 79,6 L 79,5 L 76,5 L 75,4 L 71,4 L 70,3 L 68,3 L 67,2 L 59,2 L 58,1 L 56,1 L 55,2 L 49,2 L 48,3 L 44,3 L 43,4 L 42,4 L 41,3 L 28,3 L 27,2 L 18,2 L 17,1 L 13,1 L 12,0 Z" fill="none" stroke="black" stroke-width="1"/>
</svg>