<svg xmlns="http://www.w3.org/2000/svg" width="156" height="65">
  <path d="M 104,0 L 103,1 L 102,1 L 101,2 L 100,2 L 99,3 L 98,3 L 97,4 L 96,4 L 95,5 L 94,5 L 93,6 L 92,6 L 91,7 L 90,7 L 89,8 L 87,8 L 86,9 L 82,9 L 81,10 L 81,14 L 80,15 L 80,18 L 81,19 L 81,21 L 84,24 L 84,26 L 85,27 L 85,28 L 83,30 L 83,31 L 85,31 L 86,32 L 88,32 L 89,33 L 90,33 L 92,35 L 91,36 L 91,37 L 97,37 L 98,36 L 99,36 L 100,35 L 101,35 L 102,34 L 105,34 L 106,33 L 109,33 L 110,34 L 113,34 L 114,35 L 115,35 L 116,36 L 117,36 L 119,38 L 120,38 L 122,40 L 123,40 L 124,41 L 125,41 L 127,43 L 128,43 L 129,44 L 132,44 L 133,45 L 134,45 L 135,44 L 138,44 L 139,43 L 140,43 L 141,42 L 142,42 L 144,40 L 145,40 L 148,37 L 148,32 L 149,31 L 150,32 L 152,32 L 153,31 L 154,31 L 154,30 L 152,28 L 152,26 L 151,25 L 151,24 L 152,23 L 152,21 L 155,18 L 154,18 L 153,17 L 152,17 L 149,14 L 147,14 L 145,12 L 144,12 L 143,11 L 143,8 L 142,8 L 141,7 L 140,7 L 139,6 L 138,6 L 137,5 L 136,5 L 135,4 L 130,4 L 129,5 L 127,5 L 126,6 L 119,6 L 118,5 L 116,5 L 113,2 L 110,2 L 109,1 L 108,1 L 107,0 Z" fill="none" stroke="black" stroke-width="1"/>
</svg>