<svg xmlns="http://www.w3.org/2000/svg" width="222" height="101">
  <path d="M 11,24 L 11,27 L 10,28 L 10,30 L 9,31 L 9,32 L 7,34 L 7,42 L 6,43 L 5,43 L 3,45 L 3,47 L 4,48 L 4,51 L 3,52 L 3,54 L 2,55 L 2,57 L 3,58 L 3,60 L 2,61 L 2,63 L 0,65 L 0,72 L 1,73 L 1,80 L 10,80 L 11,81 L 24,81 L 25,82 L 26,82 L 27,81 L 31,81 L 32,80 L 38,80 L 39,79 L 41,79 L 42,80 L 50,80 L 51,81 L 53,81 L 54,82 L 58,82 L 59,83 L 62,83 L 62,79 L 63,78 L 64,78 L 66,76 L 67,76 L 70,73 L 70,68 L 72,66 L 72,63 L 71,62 L 71,52 L 72,51 L 72,49 L 70,49 L 69,48 L 68,48 L 66,46 L 66,45 L 65,44 L 65,41 L 66,40 L 62,36 L 58,36 L 57,37 L 52,37 L 51,38 L 47,38 L 46,37 L 45,37 L 44,36 L 41,36 L 39,34 L 38,34 L 37,33 L 36,33 L 35,32 L 34,32 L 33,31 L 32,31 L 31,30 L 30,30 L 29,29 L 27,29 L 25,31 L 22,31 L 21,32 L 20,31 L 19,31 L 18,30 L 17,30 L 13,26 L 13,25 L 12,25 Z" fill="none" stroke="black" stroke-width="1"/>
</svg>