<svg xmlns="http://www.w3.org/2000/svg" width="82" height="82">
  <path d="M 34,30 L 32,32 L 24,32 L 23,33 L 19,33 L 20,34 L 20,36 L 19,37 L 19,39 L 18,40 L 18,41 L 17,42 L 15,42 L 15,46 L 16,46 L 17,47 L 19,47 L 20,48 L 23,48 L 24,49 L 25,49 L 27,47 L 28,47 L 29,46 L 30,46 L 31,47 L 30,48 L 31,48 L 32,49 L 33,49 L 34,50 L 35,50 L 37,52 L 37,53 L 38,54 L 40,54 L 41,53 L 41,52 L 42,51 L 43,51 L 44,50 L 44,48 L 45,47 L 45,45 L 46,44 L 46,42 L 45,42 L 43,40 L 42,40 L 40,38 L 40,36 L 39,35 L 38,35 L 37,34 L 37,32 L 36,31 L 35,31 Z" fill="none" stroke="black" stroke-width="1"/>
</svg>