<svg xmlns="http://www.w3.org/2000/svg" width="82" height="82">
  <path d="M 44,12 L 43,13 L 42,13 L 42,14 L 39,17 L 40,18 L 38,20 L 39,20 L 40,21 L 40,22 L 39,23 L 38,23 L 36,25 L 36,27 L 35,28 L 34,28 L 35,29 L 35,30 L 36,30 L 38,32 L 38,34 L 39,34 L 41,36 L 41,38 L 42,39 L 43,39 L 45,41 L 46,41 L 48,43 L 48,44 L 49,45 L 49,46 L 52,49 L 53,49 L 54,48 L 56,48 L 57,49 L 58,49 L 61,52 L 61,53 L 62,54 L 62,55 L 64,55 L 65,54 L 65,53 L 66,52 L 65,51 L 65,50 L 62,47 L 62,46 L 61,46 L 59,44 L 59,41 L 57,39 L 56,39 L 55,38 L 55,37 L 56,36 L 56,26 L 57,25 L 57,22 L 56,23 L 54,21 L 54,20 L 53,19 L 53,18 L 52,17 L 52,16 L 51,16 L 49,14 L 49,13 L 48,13 L 47,12 Z" fill="none" stroke="black" stroke-width="1"/>
</svg>