<svg xmlns="http://www.w3.org/2000/svg" width="69" height="130">
  <path d="M 8,84 L 7,85 L 8,86 L 8,87 L 7,88 L 5,86 L 5,87 L 4,88 L 5,89 L 5,92 L 5,89 L 6,88 L 7,88 L 8,89 L 9,88 L 10,88 L 10,86 Z" fill="none" stroke="black" stroke-width="1"/>
  <path d="M 3,74 L 2,75 L 2,76 L 4,78 L 4,75 Z" fill="none" stroke="black" stroke-width="1"/>
  <path d="M 0,56 L 0,57 L 2,57 L 2,56 Z" fill="none" stroke="black" stroke-width="1"/>
  <path d="M 9,34 L 9,35 L 8,36 L 7,36 L 6,37 L 5,37 L 5,38 L 4,39 L 1,39 L 1,40 L 4,40 L 6,38 L 7,38 L 7,37 L 8,36 L 10,36 L 11,37 L 17,37 L 18,38 L 19,38 L 20,39 L 18,41 L 17,41 L 16,40 L 15,41 L 13,39 L 9,39 L 6,42 L 4,42 L 3,43 L 3,44 L 5,44 L 7,46 L 6,47 L 9,47 L 10,48 L 11,48 L 12,47 L 14,47 L 15,48 L 14,49 L 13,49 L 12,50 L 9,50 L 8,49 L 4,49 L 3,50 L 3,51 L 4,51 L 5,50 L 7,50 L 8,51 L 7,52 L 6,52 L 5,53 L 3,53 L 3,54 L 4,54 L 5,53 L 7,55 L 6,56 L 8,56 L 9,57 L 10,56 L 13,56 L 14,55 L 21,55 L 22,56 L 25,56 L 26,55 L 26,54 L 28,52 L 29,53 L 29,54 L 30,55 L 27,58 L 20,58 L 19,57 L 16,57 L 14,59 L 11,59 L 10,60 L 7,60 L 6,59 L 3,59 L 3,62 L 4,63 L 5,63 L 7,65 L 6,66 L 5,66 L 6,67 L 5,68 L 4,68 L 3,67 L 3,65 L 2,66 L 1,66 L 3,68 L 3,71 L 4,72 L 4,71 L 6,69 L 7,70 L 8,69 L 8,68 L 7,67 L 7,66 L 8,65 L 10,67 L 10,68 L 11,69 L 11,70 L 10,71 L 9,71 L 9,72 L 8,73 L 7,72 L 6,73 L 7,74 L 6,75 L 6,76 L 7,76 L 8,77 L 7,78 L 8,79 L 9,79 L 10,78 L 10,77 L 11,76 L 11,75 L 12,74 L 13,74 L 11,74 L 9,72 L 10,71 L 11,71 L 12,72 L 13,72 L 13,68 L 12,69 L 11,68 L 11,67 L 12,66 L 14,66 L 15,67 L 15,75 L 14,76 L 13,76 L 13,78 L 12,79 L 14,81 L 13,82 L 10,82 L 10,83 L 11,84 L 12,84 L 14,82 L 15,83 L 16,82 L 16,81 L 17,80 L 17,78 L 18,77 L 20,77 L 21,76 L 21,74 L 22,73 L 23,74 L 23,73 L 24,72 L 26,72 L 27,73 L 21,79 L 20,79 L 20,82 L 18,84 L 18,85 L 17,86 L 15,86 L 15,87 L 16,88 L 17,88 L 18,87 L 19,87 L 20,86 L 22,86 L 23,87 L 21,89 L 20,89 L 19,90 L 16,90 L 15,91 L 12,91 L 12,93 L 11,94 L 10,93 L 10,90 L 8,92 L 8,93 L 9,93 L 10,94 L 12,94 L 12,93 L 13,92 L 16,92 L 17,91 L 20,91 L 22,89 L 24,89 L 25,90 L 26,90 L 27,91 L 30,91 L 31,90 L 31,89 L 29,87 L 28,87 L 27,86 L 27,85 L 26,84 L 27,83 L 27,82 L 26,82 L 25,81 L 29,77 L 29,76 L 30,75 L 30,74 L 31,73 L 31,71 L 33,69 L 34,69 L 35,68 L 35,66 L 31,62 L 31,60 L 34,57 L 37,57 L 37,56 L 39,54 L 40,54 L 41,53 L 43,53 L 45,51 L 45,49 L 43,47 L 43,44 L 42,43 L 40,43 L 39,42 L 38,42 L 34,46 L 33,46 L 32,45 L 29,45 L 28,44 L 29,43 L 29,40 L 30,39 L 30,38 L 31,37 L 32,37 L 33,36 L 34,36 L 33,36 L 32,35 L 27,35 L 26,36 L 19,36 L 18,35 L 10,35 Z" fill="none" stroke="black" stroke-width="1"/>
</svg>