<svg xmlns="http://www.w3.org/2000/svg" width="98" height="44">
  <path d="M 74,13 L 74,14 L 72,16 L 71,16 L 70,17 L 62,17 L 61,18 L 58,18 L 56,20 L 56,22 L 57,23 L 57,24 L 58,25 L 59,25 L 61,27 L 62,27 L 63,28 L 63,29 L 64,29 L 65,28 L 66,28 L 68,30 L 68,31 L 67,32 L 67,33 L 69,35 L 69,37 L 68,38 L 68,40 L 69,40 L 70,41 L 71,41 L 72,40 L 75,40 L 76,39 L 78,39 L 82,35 L 83,35 L 84,34 L 85,34 L 87,32 L 87,29 L 88,28 L 91,28 L 91,26 L 92,25 L 93,25 L 95,23 L 97,23 L 97,21 L 96,21 L 94,19 L 93,19 L 92,18 L 87,18 L 86,17 L 83,17 L 80,14 L 79,14 L 78,13 Z" fill="none" stroke="black" stroke-width="1"/>
</svg>