<svg xmlns="http://www.w3.org/2000/svg" width="52" height="36">
  <path d="M 24,1 L 22,3 L 19,3 L 19,8 L 20,9 L 21,9 L 22,10 L 23,10 L 26,13 L 25,14 L 25,15 L 24,16 L 24,18 L 26,18 L 27,19 L 30,19 L 32,21 L 32,22 L 33,22 L 35,24 L 35,25 L 36,24 L 38,26 L 40,26 L 41,27 L 43,27 L 44,28 L 51,28 L 51,23 L 49,21 L 48,21 L 46,19 L 46,17 L 45,17 L 44,16 L 44,15 L 45,14 L 46,14 L 48,12 L 49,12 L 50,11 L 48,11 L 47,10 L 45,10 L 44,9 L 42,9 L 41,8 L 40,8 L 36,4 L 33,4 L 32,3 L 28,3 L 26,1 Z" fill="none" stroke="black" stroke-width="1"/>
</svg>