<svg xmlns="http://www.w3.org/2000/svg" width="98" height="44">
  <path d="M 54,22 L 53,23 L 52,23 L 51,24 L 47,24 L 46,25 L 46,26 L 45,27 L 44,27 L 43,28 L 42,28 L 42,32 L 43,32 L 44,33 L 44,35 L 46,35 L 47,36 L 47,38 L 49,38 L 50,39 L 50,40 L 51,41 L 51,42 L 58,42 L 59,43 L 67,43 L 68,42 L 69,42 L 69,41 L 68,41 L 67,40 L 67,38 L 68,37 L 68,35 L 66,33 L 66,32 L 67,31 L 67,30 L 66,29 L 65,29 L 64,30 L 63,30 L 62,29 L 62,28 L 61,28 L 59,26 L 58,26 L 56,24 L 56,23 L 55,22 Z" fill="none" stroke="black" stroke-width="1"/>
</svg>