<svg xmlns="http://www.w3.org/2000/svg" width="66" height="74">
  <path d="M 5,24 L 4,25 L 4,27 L 3,28 L 4,29 L 4,31 L 3,32 L 3,33 L 1,35 L 1,42 L 0,43 L 0,45 L 1,46 L 3,46 L 5,44 L 6,44 L 9,47 L 9,48 L 10,49 L 10,52 L 11,52 L 13,54 L 13,55 L 12,56 L 13,56 L 16,59 L 16,60 L 19,60 L 20,59 L 21,59 L 21,58 L 23,56 L 23,55 L 24,54 L 24,51 L 23,50 L 23,47 L 20,47 L 19,46 L 18,46 L 16,44 L 16,40 L 15,39 L 15,37 L 14,36 L 15,35 L 11,31 L 13,29 L 14,29 L 14,28 L 12,28 L 11,27 L 11,25 L 10,24 Z" fill="none" stroke="black" stroke-width="1"/>
</svg>