<svg xmlns="http://www.w3.org/2000/svg" width="66" height="74">
  <path d="M 30,36 L 29,37 L 22,37 L 24,39 L 24,40 L 25,40 L 26,41 L 23,44 L 22,43 L 21,44 L 22,45 L 22,46 L 23,46 L 24,47 L 24,50 L 25,51 L 25,54 L 24,55 L 24,56 L 22,58 L 22,59 L 21,60 L 20,60 L 19,61 L 18,61 L 19,61 L 20,62 L 20,64 L 21,65 L 21,66 L 22,67 L 22,68 L 23,69 L 24,69 L 27,72 L 27,73 L 28,73 L 28,69 L 31,66 L 29,64 L 29,63 L 31,61 L 32,61 L 33,62 L 34,61 L 35,61 L 38,58 L 38,57 L 39,56 L 39,55 L 38,54 L 38,51 L 37,50 L 37,43 L 39,41 L 38,40 L 37,40 L 35,38 L 35,36 Z" fill="none" stroke="black" stroke-width="1"/>
</svg>