<svg xmlns="http://www.w3.org/2000/svg" width="82" height="82">
  <path d="M 23,0 L 23,3 L 22,4 L 21,4 L 21,6 L 20,7 L 18,7 L 17,8 L 16,8 L 16,10 L 15,11 L 5,11 L 5,12 L 7,14 L 7,15 L 6,16 L 6,18 L 5,19 L 4,19 L 3,18 L 1,18 L 0,19 L 0,26 L 1,27 L 2,27 L 3,26 L 12,26 L 14,28 L 15,28 L 16,29 L 17,29 L 19,31 L 19,32 L 23,32 L 24,31 L 32,31 L 34,29 L 33,28 L 34,27 L 35,27 L 35,25 L 38,22 L 39,22 L 39,21 L 38,21 L 37,20 L 39,18 L 38,17 L 41,14 L 41,13 L 42,12 L 43,12 L 44,11 L 43,10 L 43,8 L 44,7 L 44,6 L 42,4 L 41,4 L 39,2 L 37,2 L 36,1 L 34,1 L 33,0 Z" fill="none" stroke="black" stroke-width="1"/>
</svg>