<svg xmlns="http://www.w3.org/2000/svg" width="68" height="53">
  <path d="M 5,12 L 4,13 L 2,13 L 1,14 L 1,15 L 0,16 L 1,17 L 3,17 L 4,18 L 4,21 L 3,22 L 6,25 L 4,27 L 6,29 L 6,30 L 9,33 L 9,34 L 11,34 L 14,37 L 14,38 L 15,38 L 18,41 L 19,41 L 20,42 L 22,42 L 23,41 L 25,41 L 26,42 L 28,42 L 30,40 L 33,40 L 34,39 L 34,38 L 36,36 L 36,34 L 35,34 L 34,33 L 34,31 L 31,31 L 30,30 L 30,29 L 28,27 L 26,27 L 26,28 L 25,29 L 19,23 L 19,19 L 17,19 L 16,18 L 16,17 L 15,16 L 15,15 L 14,15 L 13,16 L 12,15 L 11,15 L 9,13 L 7,13 L 6,12 Z" fill="none" stroke="black" stroke-width="1"/>
</svg>