<svg xmlns="http://www.w3.org/2000/svg" width="68" height="53">
  <path d="M 34,9 L 33,10 L 33,11 L 32,12 L 31,12 L 30,13 L 28,11 L 27,11 L 26,12 L 24,12 L 23,13 L 19,13 L 19,14 L 18,15 L 16,15 L 16,16 L 17,17 L 17,18 L 19,18 L 20,19 L 20,23 L 25,28 L 25,27 L 26,26 L 28,26 L 31,29 L 31,30 L 34,30 L 35,31 L 35,33 L 36,33 L 37,34 L 37,35 L 39,35 L 40,34 L 40,32 L 41,31 L 41,29 L 43,27 L 42,26 L 42,25 L 41,25 L 40,24 L 39,24 L 38,23 L 38,19 L 39,18 L 39,17 L 40,16 L 40,15 L 38,13 L 38,12 L 35,9 Z" fill="none" stroke="black" stroke-width="1"/>
</svg>