<svg xmlns="http://www.w3.org/2000/svg" width="67" height="52">
  <path d="M 45,24 L 43,26 L 43,30 L 42,31 L 42,34 L 40,36 L 39,36 L 38,37 L 39,37 L 40,38 L 40,40 L 41,40 L 42,41 L 42,42 L 41,43 L 42,43 L 43,44 L 44,44 L 45,45 L 47,45 L 49,47 L 50,47 L 51,48 L 52,47 L 56,47 L 56,46 L 57,45 L 61,45 L 62,44 L 64,44 L 66,42 L 66,41 L 65,40 L 65,39 L 64,38 L 63,39 L 62,38 L 61,39 L 60,38 L 60,37 L 59,36 L 59,35 L 58,34 L 58,29 L 57,30 L 56,29 L 55,30 L 53,30 L 47,24 Z" fill="none" stroke="black" stroke-width="1"/>
</svg>