<svg xmlns="http://www.w3.org/2000/svg" width="59" height="51">
  <path d="M 20,18 L 18,20 L 15,20 L 14,19 L 13,19 L 13,20 L 12,21 L 10,21 L 10,26 L 11,27 L 11,29 L 9,31 L 9,32 L 8,33 L 7,33 L 6,34 L 5,34 L 4,35 L 4,36 L 5,37 L 6,37 L 7,36 L 9,36 L 11,38 L 11,40 L 10,41 L 10,44 L 11,45 L 12,45 L 13,44 L 14,44 L 16,42 L 17,42 L 17,39 L 18,38 L 18,37 L 19,36 L 19,34 L 20,33 L 22,33 L 24,31 L 24,28 L 26,26 L 27,27 L 27,28 L 28,27 L 29,28 L 30,28 L 30,27 L 32,25 L 34,25 L 33,24 L 33,23 L 31,21 L 31,20 L 29,20 L 28,19 L 25,19 L 24,18 Z" fill="none" stroke="black" stroke-width="1"/>
</svg>