<svg xmlns="http://www.w3.org/2000/svg" width="107" height="64">
  <path d="M 26,32 L 26,36 L 24,38 L 22,38 L 21,39 L 18,39 L 16,41 L 16,42 L 15,43 L 15,48 L 16,49 L 17,49 L 18,50 L 19,50 L 20,51 L 20,52 L 21,52 L 22,51 L 24,51 L 25,52 L 26,51 L 27,51 L 29,49 L 31,49 L 32,50 L 34,50 L 35,49 L 37,49 L 37,48 L 39,46 L 39,45 L 40,44 L 40,40 L 39,39 L 39,38 L 38,38 L 37,37 L 37,35 L 36,34 L 34,34 L 33,35 L 32,35 L 31,34 L 30,34 L 29,33 L 28,33 L 27,32 Z" fill="none" stroke="black" stroke-width="1"/>
</svg>