<svg xmlns="http://www.w3.org/2000/svg" width="120" height="39">
  <path d="M 110,0 L 109,1 L 107,1 L 106,2 L 101,2 L 101,3 L 100,4 L 98,4 L 98,6 L 96,8 L 94,8 L 93,9 L 90,9 L 89,10 L 86,10 L 85,11 L 83,11 L 83,14 L 84,15 L 84,18 L 85,19 L 85,25 L 88,28 L 89,28 L 90,27 L 92,27 L 93,28 L 94,28 L 95,27 L 96,27 L 96,26 L 97,25 L 98,25 L 99,24 L 100,24 L 101,23 L 105,23 L 106,24 L 108,24 L 109,23 L 109,18 L 110,17 L 110,15 L 114,11 L 117,11 L 119,9 L 119,8 L 117,6 L 117,4 L 119,2 L 119,0 L 117,0 L 116,1 L 115,1 L 114,0 Z" fill="none" stroke="black" stroke-width="1"/>
</svg>