<svg xmlns="http://www.w3.org/2000/svg" width="59" height="51">
  <path d="M 46,27 L 45,28 L 43,28 L 43,29 L 42,30 L 42,31 L 41,32 L 41,33 L 40,34 L 38,34 L 38,37 L 35,40 L 35,41 L 34,42 L 34,43 L 32,45 L 33,46 L 32,47 L 31,47 L 31,48 L 35,48 L 36,49 L 39,49 L 40,50 L 41,50 L 41,49 L 42,48 L 42,47 L 43,46 L 45,46 L 46,45 L 50,45 L 50,42 L 51,41 L 52,41 L 53,40 L 54,40 L 56,38 L 56,37 L 58,35 L 58,34 L 57,34 L 56,33 L 56,32 L 55,31 L 54,31 L 51,28 L 49,28 L 48,27 Z" fill="none" stroke="black" stroke-width="1"/>
</svg>