<svg xmlns="http://www.w3.org/2000/svg" width="107" height="64">
  <path d="M 59,19 L 58,20 L 55,20 L 54,21 L 52,21 L 51,22 L 50,22 L 49,21 L 48,21 L 47,20 L 43,20 L 42,21 L 42,23 L 41,24 L 41,25 L 40,26 L 39,26 L 38,25 L 37,26 L 37,27 L 38,28 L 38,30 L 37,31 L 37,32 L 36,33 L 38,35 L 38,37 L 39,37 L 40,38 L 40,39 L 41,40 L 41,44 L 40,45 L 40,46 L 38,48 L 38,49 L 39,50 L 40,50 L 41,51 L 45,51 L 47,53 L 47,59 L 48,60 L 52,60 L 53,61 L 55,61 L 57,63 L 60,63 L 60,62 L 61,61 L 61,59 L 62,58 L 65,58 L 70,63 L 72,63 L 73,62 L 74,62 L 76,60 L 78,60 L 79,59 L 79,58 L 81,56 L 81,54 L 82,53 L 81,52 L 79,52 L 78,51 L 78,49 L 75,46 L 75,42 L 76,41 L 76,37 L 77,36 L 77,35 L 78,34 L 77,33 L 75,33 L 74,32 L 74,31 L 73,30 L 72,30 L 71,29 L 71,28 L 70,27 L 70,26 L 69,25 L 66,25 L 63,22 L 63,19 Z" fill="none" stroke="black" stroke-width="1"/>
</svg>