<svg xmlns="http://www.w3.org/2000/svg" width="67" height="48">
  <path d="M 27,0 L 25,2 L 25,3 L 24,4 L 23,4 L 23,6 L 22,7 L 19,7 L 18,8 L 18,9 L 17,10 L 15,10 L 15,15 L 16,16 L 16,21 L 17,21 L 18,22 L 18,23 L 20,25 L 20,26 L 21,27 L 21,28 L 22,28 L 23,27 L 26,27 L 27,26 L 28,26 L 29,25 L 33,25 L 34,26 L 35,26 L 35,24 L 36,23 L 39,23 L 40,22 L 40,21 L 41,20 L 42,20 L 42,19 L 43,18 L 43,17 L 44,16 L 45,16 L 44,15 L 44,14 L 42,12 L 42,11 L 43,10 L 43,7 L 39,7 L 38,6 L 38,5 L 36,5 L 35,4 L 35,3 L 34,4 L 32,4 L 31,3 L 31,2 L 30,2 L 29,1 L 28,1 Z" fill="none" stroke="black" stroke-width="1"/>
</svg>