<svg xmlns="http://www.w3.org/2000/svg" width="86" height="69">
  <path d="M 77,43 L 75,45 L 74,45 L 74,47 L 75,48 L 75,49 L 73,51 L 72,50 L 71,51 L 67,51 L 67,52 L 66,53 L 65,53 L 64,52 L 64,50 L 61,47 L 60,47 L 59,48 L 54,48 L 52,50 L 51,50 L 50,51 L 47,48 L 48,47 L 49,47 L 49,45 L 45,45 L 44,46 L 44,48 L 43,49 L 41,49 L 39,47 L 38,47 L 36,49 L 39,52 L 38,53 L 39,54 L 40,54 L 42,56 L 43,56 L 44,57 L 45,57 L 46,58 L 48,58 L 49,59 L 50,59 L 52,61 L 52,62 L 53,63 L 54,63 L 55,64 L 65,64 L 66,65 L 66,66 L 67,66 L 68,67 L 69,67 L 70,68 L 72,68 L 73,67 L 74,67 L 76,65 L 77,65 L 79,63 L 82,63 L 85,60 L 85,57 L 84,56 L 84,55 L 85,54 L 85,51 L 84,51 L 81,48 L 81,47 L 80,46 L 80,45 L 79,44 L 78,44 Z" fill="none" stroke="black" stroke-width="1"/>
</svg>