<svg xmlns="http://www.w3.org/2000/svg" width="90" height="97">
  <path d="M 79,44 L 79,45 L 77,47 L 75,47 L 74,48 L 71,48 L 70,47 L 66,47 L 65,48 L 58,48 L 57,49 L 55,49 L 55,50 L 54,51 L 49,51 L 48,52 L 48,53 L 47,54 L 47,55 L 46,56 L 42,56 L 40,54 L 36,54 L 35,55 L 35,56 L 34,57 L 34,59 L 32,61 L 32,64 L 31,65 L 31,69 L 32,69 L 33,70 L 33,71 L 34,71 L 35,72 L 36,72 L 37,71 L 41,71 L 42,72 L 42,76 L 45,79 L 46,79 L 47,80 L 47,83 L 48,84 L 48,89 L 50,91 L 50,93 L 52,93 L 53,94 L 55,94 L 56,93 L 57,93 L 59,95 L 60,95 L 61,96 L 62,95 L 63,95 L 65,93 L 66,93 L 66,92 L 68,90 L 68,87 L 69,86 L 69,85 L 70,84 L 70,77 L 69,76 L 69,75 L 70,74 L 72,74 L 72,72 L 70,70 L 72,68 L 73,68 L 74,67 L 76,67 L 77,68 L 78,68 L 79,69 L 80,69 L 81,70 L 84,70 L 85,69 L 86,69 L 87,68 L 88,68 L 89,67 L 89,59 L 88,58 L 88,57 L 87,56 L 87,55 L 86,54 L 86,53 L 85,52 L 85,50 L 86,49 L 86,48 L 85,47 L 84,47 L 82,45 L 81,45 L 80,44 Z" fill="none" stroke="black" stroke-width="1"/>
</svg>