<svg xmlns="http://www.w3.org/2000/svg" width="97" height="68">
  <path d="M 68,0 L 64,4 L 62,4 L 61,5 L 61,7 L 59,9 L 59,10 L 57,12 L 55,12 L 53,14 L 52,14 L 51,15 L 49,15 L 44,10 L 41,10 L 41,12 L 40,13 L 40,14 L 39,15 L 36,15 L 34,13 L 32,13 L 31,12 L 26,12 L 25,13 L 23,13 L 21,15 L 20,15 L 19,16 L 19,19 L 20,19 L 22,21 L 22,22 L 23,22 L 25,24 L 25,25 L 26,24 L 28,24 L 30,26 L 30,27 L 29,28 L 30,29 L 30,32 L 29,33 L 31,33 L 32,34 L 34,34 L 35,35 L 37,35 L 39,37 L 42,37 L 44,35 L 45,35 L 45,34 L 46,33 L 48,33 L 50,31 L 50,30 L 51,29 L 52,29 L 54,27 L 56,27 L 56,26 L 57,25 L 58,25 L 59,26 L 61,26 L 62,27 L 65,27 L 68,24 L 69,25 L 73,25 L 74,24 L 77,24 L 78,23 L 78,22 L 77,21 L 77,20 L 76,19 L 75,19 L 74,18 L 74,17 L 75,16 L 75,15 L 74,14 L 75,13 L 75,12 L 73,10 L 73,5 L 72,5 L 71,4 L 71,3 L 70,3 L 69,2 L 69,1 Z" fill="none" stroke="black" stroke-width="1"/>
</svg>