<svg xmlns="http://www.w3.org/2000/svg" width="86" height="69">
  <path d="M 67,27 L 67,28 L 66,29 L 65,29 L 65,30 L 64,31 L 63,31 L 62,32 L 60,32 L 59,33 L 59,34 L 58,35 L 57,35 L 55,37 L 54,37 L 53,36 L 50,36 L 48,38 L 46,38 L 46,40 L 44,42 L 45,43 L 45,44 L 49,44 L 50,45 L 50,47 L 49,48 L 48,48 L 50,50 L 51,49 L 52,49 L 54,47 L 59,47 L 60,46 L 61,46 L 65,50 L 65,52 L 66,52 L 66,51 L 67,50 L 71,50 L 72,49 L 73,50 L 74,49 L 74,48 L 73,47 L 73,45 L 74,44 L 75,44 L 77,42 L 78,43 L 79,43 L 81,45 L 81,46 L 82,46 L 84,44 L 84,42 L 82,40 L 82,39 L 83,38 L 83,36 L 84,35 L 84,34 L 82,32 L 81,32 L 79,30 L 79,29 L 78,29 L 77,28 L 76,28 L 75,27 L 71,27 L 70,28 L 69,27 Z" fill="none" stroke="black" stroke-width="1"/>
</svg>