<svg xmlns="http://www.w3.org/2000/svg" width="96" height="76">
  <path d="M 40,0 L 38,2 L 38,3 L 37,4 L 38,5 L 38,6 L 37,7 L 36,7 L 36,8 L 34,10 L 32,10 L 31,9 L 25,9 L 24,8 L 23,8 L 21,10 L 21,14 L 22,15 L 22,18 L 23,19 L 23,21 L 24,22 L 24,24 L 25,25 L 25,29 L 24,30 L 24,35 L 26,37 L 28,37 L 29,38 L 31,38 L 32,39 L 33,39 L 34,40 L 38,40 L 40,38 L 45,38 L 46,39 L 50,39 L 51,40 L 52,40 L 53,41 L 54,41 L 55,42 L 58,42 L 59,41 L 59,39 L 60,38 L 60,34 L 61,33 L 61,32 L 62,31 L 62,30 L 63,29 L 64,29 L 64,28 L 62,26 L 62,22 L 61,21 L 61,18 L 60,17 L 60,16 L 59,15 L 59,12 L 58,12 L 57,11 L 57,9 L 58,8 L 58,7 L 57,6 L 58,5 L 58,3 L 59,2 L 58,1 L 56,1 L 55,2 L 48,2 L 47,1 L 42,1 L 41,0 Z" fill="none" stroke="black" stroke-width="1"/>
</svg>