<svg xmlns="http://www.w3.org/2000/svg" width="80" height="88">
  <path d="M 54,10 L 52,12 L 52,14 L 50,16 L 49,16 L 49,17 L 48,18 L 39,18 L 39,19 L 37,21 L 37,36 L 33,40 L 31,40 L 30,41 L 29,41 L 27,43 L 24,43 L 23,44 L 23,45 L 22,46 L 22,47 L 21,48 L 21,50 L 22,50 L 24,52 L 25,52 L 26,53 L 31,53 L 32,52 L 32,51 L 36,47 L 38,47 L 39,48 L 50,48 L 51,49 L 51,50 L 52,50 L 53,51 L 56,51 L 56,48 L 57,47 L 57,46 L 58,45 L 58,43 L 59,42 L 59,38 L 62,35 L 63,35 L 64,34 L 65,34 L 67,32 L 68,32 L 69,31 L 69,29 L 68,28 L 68,27 L 69,26 L 68,25 L 68,23 L 70,21 L 71,21 L 71,19 L 70,19 L 69,18 L 69,16 L 70,15 L 70,14 L 69,13 L 68,13 L 67,12 L 64,12 L 62,14 L 61,14 L 60,13 L 59,13 L 56,10 Z" fill="none" stroke="black" stroke-width="1"/>
</svg>