<svg xmlns="http://www.w3.org/2000/svg" width="94" height="110">
  <path d="M 67,39 L 66,40 L 65,40 L 64,41 L 64,43 L 62,45 L 62,46 L 61,47 L 59,47 L 58,46 L 56,46 L 55,47 L 55,48 L 54,49 L 52,49 L 51,50 L 50,50 L 49,51 L 49,57 L 48,58 L 48,59 L 46,61 L 46,62 L 45,63 L 45,64 L 44,65 L 44,66 L 42,68 L 42,69 L 41,70 L 41,71 L 40,72 L 41,73 L 42,73 L 43,72 L 44,72 L 46,74 L 46,76 L 47,77 L 47,78 L 49,80 L 50,80 L 51,79 L 51,78 L 53,76 L 60,76 L 61,77 L 63,77 L 64,78 L 68,78 L 68,76 L 69,75 L 69,70 L 67,68 L 67,67 L 66,66 L 68,64 L 69,64 L 72,61 L 75,61 L 76,62 L 78,62 L 80,60 L 80,59 L 79,59 L 78,58 L 78,56 L 79,55 L 79,53 L 78,52 L 77,52 L 75,50 L 73,50 L 72,49 L 70,49 L 68,47 L 68,46 L 71,43 L 70,42 L 70,41 L 69,41 Z" fill="none" stroke="black" stroke-width="1"/>
</svg>