<svg xmlns="http://www.w3.org/2000/svg" width="116" height="46">
  <path d="M 113,0 L 112,1 L 111,1 L 109,3 L 107,3 L 106,4 L 104,4 L 103,5 L 102,5 L 101,4 L 98,4 L 98,8 L 99,9 L 97,11 L 92,11 L 91,10 L 90,10 L 89,9 L 85,9 L 83,7 L 82,7 L 82,8 L 81,9 L 80,9 L 80,10 L 78,12 L 77,12 L 78,13 L 78,24 L 79,25 L 82,25 L 86,29 L 86,30 L 92,30 L 96,34 L 98,34 L 99,33 L 100,33 L 101,32 L 103,32 L 103,31 L 105,29 L 107,29 L 108,30 L 110,30 L 110,29 L 112,27 L 112,25 L 114,23 L 115,23 L 115,21 L 113,19 L 113,18 L 112,17 L 112,15 L 111,15 L 110,14 L 111,13 L 111,12 L 112,11 L 113,11 L 114,10 L 114,8 L 115,7 L 115,6 L 114,5 L 114,4 L 113,3 Z" fill="none" stroke="black" stroke-width="1"/>
</svg>