<svg xmlns="http://www.w3.org/2000/svg" width="116" height="46">
  <path d="M 25,3 L 24,4 L 23,4 L 22,5 L 22,9 L 21,10 L 21,14 L 20,15 L 19,15 L 16,18 L 14,18 L 13,19 L 12,19 L 11,20 L 10,20 L 9,21 L 7,21 L 6,22 L 4,22 L 3,23 L 4,23 L 5,24 L 5,26 L 6,27 L 5,28 L 5,30 L 4,31 L 4,32 L 1,35 L 1,37 L 0,38 L 0,44 L 4,44 L 5,45 L 6,45 L 7,44 L 8,45 L 16,45 L 17,44 L 18,44 L 20,42 L 20,40 L 21,39 L 22,39 L 22,38 L 24,36 L 25,36 L 26,35 L 29,35 L 30,34 L 34,34 L 35,35 L 36,35 L 37,36 L 39,36 L 40,35 L 41,35 L 41,29 L 43,27 L 43,23 L 44,22 L 44,20 L 45,19 L 45,17 L 46,16 L 46,14 L 44,12 L 44,11 L 45,10 L 45,9 L 46,8 L 46,5 L 45,6 L 39,6 L 38,5 L 36,5 L 35,6 L 33,4 L 28,4 L 27,3 Z" fill="none" stroke="black" stroke-width="1"/>
</svg>