<svg xmlns="http://www.w3.org/2000/svg" width="96" height="76">
  <path d="M 75,28 L 74,29 L 69,29 L 68,30 L 67,30 L 66,29 L 65,29 L 64,30 L 63,30 L 63,31 L 62,32 L 62,33 L 61,34 L 61,38 L 60,39 L 60,42 L 62,44 L 62,45 L 63,45 L 64,46 L 64,47 L 65,48 L 65,50 L 66,51 L 66,52 L 65,53 L 65,54 L 63,56 L 62,56 L 61,57 L 60,57 L 60,59 L 58,61 L 60,63 L 60,64 L 59,65 L 58,65 L 59,66 L 59,67 L 60,68 L 61,68 L 61,67 L 63,65 L 68,65 L 69,64 L 73,64 L 74,65 L 77,65 L 79,63 L 80,63 L 83,60 L 86,60 L 87,61 L 88,60 L 88,59 L 90,57 L 90,55 L 91,54 L 93,54 L 93,53 L 94,52 L 94,51 L 95,50 L 95,49 L 94,48 L 93,48 L 91,46 L 91,41 L 89,39 L 89,38 L 88,37 L 88,34 L 84,34 L 83,33 L 82,33 L 80,31 L 79,31 L 77,29 L 77,28 Z" fill="none" stroke="black" stroke-width="1"/>
</svg>