<svg xmlns="http://www.w3.org/2000/svg" width="96" height="76">
  <path d="M 40,39 L 38,41 L 36,41 L 35,42 L 33,42 L 33,44 L 34,45 L 34,46 L 36,46 L 38,48 L 38,50 L 40,52 L 40,53 L 41,54 L 41,56 L 38,59 L 38,63 L 39,64 L 39,66 L 42,69 L 42,73 L 43,73 L 44,72 L 45,72 L 46,71 L 47,71 L 48,70 L 49,71 L 54,71 L 56,69 L 58,69 L 59,68 L 58,67 L 58,66 L 57,65 L 58,64 L 59,64 L 59,63 L 57,61 L 59,59 L 59,57 L 60,56 L 61,56 L 62,55 L 63,55 L 64,54 L 64,53 L 65,52 L 65,51 L 64,50 L 64,48 L 63,47 L 63,46 L 62,46 L 61,45 L 61,44 L 59,42 L 58,43 L 55,43 L 54,42 L 53,42 L 52,41 L 51,41 L 50,40 L 46,40 L 45,39 Z" fill="none" stroke="black" stroke-width="1"/>
</svg>