<svg xmlns="http://www.w3.org/2000/svg" width="137" height="62">
  <path d="M 119,28 L 118,29 L 117,29 L 117,30 L 116,31 L 116,32 L 115,33 L 115,35 L 114,36 L 114,37 L 113,38 L 113,39 L 109,43 L 108,43 L 106,45 L 104,45 L 102,47 L 102,48 L 99,51 L 94,51 L 94,52 L 93,53 L 93,56 L 92,57 L 93,58 L 93,57 L 94,56 L 95,56 L 96,55 L 98,55 L 99,56 L 101,56 L 101,55 L 102,54 L 106,54 L 107,55 L 109,55 L 110,54 L 116,54 L 117,53 L 118,53 L 119,54 L 121,54 L 120,53 L 117,53 L 116,52 L 117,51 L 118,51 L 119,50 L 120,50 L 123,53 L 123,55 L 126,58 L 129,58 L 132,55 L 132,49 L 134,47 L 135,47 L 136,46 L 136,43 L 135,42 L 135,41 L 132,38 L 132,36 L 131,35 L 131,28 L 128,28 L 127,29 L 125,29 L 124,30 L 123,30 L 121,28 Z" fill="none" stroke="black" stroke-width="1"/>
</svg>