<svg xmlns="http://www.w3.org/2000/svg" width="137" height="62">
  <path d="M 98,9 L 97,10 L 95,10 L 94,11 L 93,11 L 92,12 L 91,11 L 89,13 L 86,13 L 85,12 L 84,12 L 83,11 L 82,11 L 81,10 L 80,10 L 79,11 L 77,11 L 76,12 L 74,12 L 73,11 L 70,11 L 69,12 L 67,12 L 66,13 L 64,13 L 64,14 L 65,15 L 65,20 L 64,21 L 64,23 L 66,23 L 67,22 L 71,22 L 72,23 L 72,25 L 70,27 L 70,32 L 69,33 L 62,33 L 61,34 L 58,34 L 57,35 L 57,36 L 58,37 L 58,39 L 56,41 L 55,41 L 55,42 L 59,42 L 60,41 L 61,42 L 61,43 L 62,44 L 68,44 L 69,43 L 71,43 L 72,42 L 76,42 L 77,43 L 78,43 L 79,44 L 82,44 L 83,43 L 84,43 L 84,42 L 87,39 L 88,39 L 90,37 L 92,37 L 94,35 L 95,35 L 95,34 L 96,33 L 98,33 L 99,34 L 100,34 L 101,33 L 101,31 L 102,30 L 102,29 L 103,28 L 103,27 L 105,25 L 105,23 L 106,22 L 106,21 L 107,20 L 107,19 L 108,18 L 108,14 L 107,13 L 105,13 L 103,11 L 103,10 L 104,9 Z" fill="none" stroke="black" stroke-width="1"/>
</svg>