<svg xmlns="http://www.w3.org/2000/svg" width="137" height="62">
  <path d="M 27,27 L 26,28 L 25,28 L 24,29 L 23,29 L 21,31 L 14,31 L 13,32 L 10,32 L 9,33 L 8,33 L 7,34 L 6,34 L 6,35 L 4,37 L 3,37 L 3,40 L 2,41 L 1,41 L 1,42 L 0,43 L 0,46 L 3,49 L 3,50 L 4,51 L 4,53 L 5,54 L 8,54 L 9,53 L 12,53 L 13,54 L 18,54 L 19,55 L 25,55 L 26,56 L 27,56 L 26,55 L 28,53 L 29,53 L 30,54 L 30,56 L 32,56 L 33,57 L 36,57 L 37,58 L 39,58 L 40,59 L 41,59 L 42,60 L 44,58 L 45,58 L 45,57 L 46,56 L 46,51 L 48,49 L 48,48 L 49,47 L 49,43 L 51,41 L 53,41 L 54,40 L 56,40 L 57,39 L 57,37 L 56,36 L 56,35 L 58,33 L 57,32 L 53,32 L 51,34 L 49,34 L 47,32 L 47,31 L 43,31 L 41,29 L 40,29 L 39,28 L 38,28 L 37,27 L 35,27 L 34,28 L 30,28 L 29,27 Z" fill="none" stroke="black" stroke-width="1"/>
</svg>