<svg xmlns="http://www.w3.org/2000/svg" width="77" height="63">
  <path d="M 16,27 L 15,28 L 14,28 L 13,29 L 10,29 L 8,31 L 6,31 L 7,32 L 7,33 L 8,34 L 8,37 L 7,38 L 7,41 L 6,42 L 7,42 L 8,43 L 8,46 L 7,47 L 7,49 L 8,50 L 8,53 L 10,55 L 10,56 L 13,56 L 14,57 L 14,59 L 15,60 L 16,59 L 20,59 L 21,60 L 21,61 L 22,62 L 24,62 L 25,61 L 26,61 L 27,62 L 28,62 L 29,61 L 30,61 L 32,59 L 33,59 L 37,55 L 37,53 L 36,53 L 35,52 L 36,51 L 36,50 L 35,50 L 34,49 L 30,49 L 27,46 L 27,45 L 28,44 L 28,43 L 29,42 L 29,40 L 24,40 L 23,39 L 22,39 L 21,38 L 21,34 L 20,33 L 20,32 L 21,31 L 22,31 L 22,30 L 21,29 L 21,28 L 20,28 L 19,27 L 18,27 L 17,28 Z" fill="none" stroke="black" stroke-width="1"/>
</svg>