<svg xmlns="http://www.w3.org/2000/svg" width="77" height="63">
  <path d="M 17,0 L 16,1 L 13,1 L 12,2 L 11,2 L 11,3 L 10,4 L 10,6 L 8,8 L 8,10 L 10,12 L 10,13 L 7,16 L 4,16 L 1,19 L 1,21 L 0,22 L 0,28 L 3,28 L 4,29 L 4,31 L 5,31 L 6,30 L 8,30 L 10,28 L 13,28 L 14,27 L 15,27 L 16,26 L 17,27 L 18,26 L 19,26 L 20,27 L 21,27 L 22,28 L 22,29 L 23,30 L 25,30 L 26,31 L 28,31 L 29,32 L 31,32 L 30,31 L 30,29 L 32,27 L 34,27 L 35,28 L 37,28 L 40,31 L 42,31 L 42,28 L 44,26 L 44,25 L 46,23 L 47,23 L 48,22 L 49,22 L 49,19 L 46,16 L 46,14 L 43,14 L 42,15 L 40,15 L 39,14 L 38,14 L 37,13 L 35,13 L 34,14 L 32,14 L 29,11 L 29,8 L 28,7 L 28,6 L 27,5 L 27,4 L 25,2 L 24,2 L 23,1 L 20,1 L 19,0 Z" fill="none" stroke="black" stroke-width="1"/>
</svg>