<svg xmlns="http://www.w3.org/2000/svg" width="101" height="66">
  <path d="M 47,0 L 38,9 L 38,11 L 39,11 L 40,12 L 41,12 L 42,13 L 42,14 L 43,15 L 43,19 L 44,20 L 44,21 L 47,24 L 47,26 L 46,27 L 46,29 L 45,30 L 45,32 L 44,33 L 44,35 L 45,35 L 46,34 L 47,34 L 48,35 L 49,35 L 50,36 L 52,36 L 53,37 L 55,37 L 55,34 L 57,32 L 57,31 L 58,30 L 59,30 L 60,29 L 66,29 L 68,27 L 70,27 L 74,23 L 74,22 L 75,21 L 75,20 L 74,19 L 74,12 L 70,8 L 69,8 L 66,5 L 60,5 L 59,4 L 55,4 L 54,3 L 53,3 L 52,2 L 48,2 L 47,1 Z" fill="none" stroke="black" stroke-width="1"/>
</svg>