<svg xmlns="http://www.w3.org/2000/svg" width="60" height="97">
  <path d="M 12,75 L 12,76 L 13,75 Z" fill="none" stroke="black" stroke-width="1"/>
  <path d="M 21,64 L 19,66 L 15,66 L 12,69 L 10,69 L 10,71 L 12,73 L 13,73 L 13,72 L 14,71 L 15,71 L 16,70 L 17,71 L 17,73 L 16,74 L 15,74 L 15,75 L 16,76 L 14,78 L 14,80 L 16,82 L 16,84 L 19,84 L 21,82 L 26,82 L 27,81 L 33,81 L 34,82 L 34,83 L 33,84 L 32,83 L 29,83 L 28,84 L 23,84 L 20,87 L 19,86 L 18,86 L 17,87 L 16,87 L 13,84 L 13,83 L 12,83 L 11,84 L 11,87 L 12,88 L 12,92 L 11,93 L 11,95 L 12,96 L 13,95 L 13,94 L 14,93 L 15,94 L 15,95 L 17,95 L 18,96 L 19,96 L 20,95 L 25,95 L 26,96 L 29,96 L 29,94 L 31,92 L 32,92 L 32,89 L 33,88 L 36,88 L 37,87 L 38,87 L 39,86 L 45,86 L 46,87 L 49,87 L 53,83 L 51,81 L 51,80 L 50,79 L 49,79 L 48,78 L 46,78 L 45,77 L 44,77 L 42,75 L 41,75 L 40,74 L 37,74 L 36,73 L 32,73 L 30,71 L 27,71 L 26,70 L 24,70 L 22,68 L 22,67 L 21,66 Z" fill="none" stroke="black" stroke-width="1"/>
</svg>