<svg xmlns="http://www.w3.org/2000/svg" width="88" height="75">
  <path d="M 50,35 L 49,36 L 44,36 L 44,41 L 42,43 L 42,44 L 41,45 L 41,46 L 40,47 L 40,50 L 39,51 L 38,51 L 36,53 L 34,53 L 33,54 L 30,54 L 29,55 L 28,55 L 27,56 L 26,56 L 24,58 L 24,59 L 25,60 L 25,61 L 26,62 L 26,65 L 25,66 L 25,67 L 26,68 L 26,69 L 30,69 L 31,70 L 32,70 L 33,71 L 37,71 L 38,72 L 44,72 L 46,74 L 47,74 L 47,70 L 48,69 L 48,67 L 49,66 L 52,66 L 55,63 L 55,62 L 58,59 L 60,59 L 62,57 L 62,55 L 61,54 L 61,53 L 62,52 L 63,52 L 63,51 L 64,50 L 65,50 L 65,49 L 67,47 L 67,45 L 65,45 L 64,44 L 64,43 L 63,42 L 63,41 L 62,41 L 60,39 L 56,39 L 55,38 L 53,38 Z" fill="none" stroke="black" stroke-width="1"/>
</svg>