<svg xmlns="http://www.w3.org/2000/svg" width="111" height="116">
  <path d="M 12,0 L 11,1 L 10,1 L 9,2 L 9,3 L 7,5 L 6,5 L 3,8 L 3,9 L 2,10 L 2,13 L 0,15 L 0,16 L 2,18 L 2,19 L 4,21 L 5,21 L 7,23 L 8,23 L 10,25 L 11,25 L 12,26 L 13,26 L 14,27 L 14,28 L 15,27 L 16,28 L 16,29 L 15,30 L 15,32 L 16,32 L 18,34 L 18,35 L 21,38 L 21,40 L 28,40 L 32,36 L 32,34 L 33,33 L 32,32 L 31,32 L 30,31 L 30,29 L 29,28 L 29,23 L 28,22 L 28,18 L 29,17 L 29,15 L 25,11 L 25,10 L 23,8 L 23,7 L 21,5 L 20,5 L 18,3 L 18,2 L 16,2 L 15,1 L 14,1 L 13,0 Z" fill="none" stroke="black" stroke-width="1"/>
</svg>