<svg xmlns="http://www.w3.org/2000/svg" width="111" height="116">
  <path d="M 58,64 L 57,65 L 57,66 L 53,70 L 53,71 L 51,73 L 51,77 L 52,77 L 53,78 L 54,78 L 55,79 L 56,79 L 57,80 L 58,80 L 60,82 L 60,84 L 61,84 L 62,85 L 65,85 L 67,87 L 68,87 L 76,95 L 78,95 L 78,94 L 79,93 L 79,90 L 80,89 L 80,88 L 81,87 L 82,87 L 82,86 L 79,83 L 78,83 L 77,82 L 77,78 L 73,74 L 73,73 L 72,72 L 71,72 L 70,71 L 70,70 L 68,70 L 67,69 L 64,69 L 63,68 L 63,67 L 61,65 L 60,65 L 59,64 Z" fill="none" stroke="black" stroke-width="1"/>
</svg>