<svg xmlns="http://www.w3.org/2000/svg" width="126" height="128">
  <path d="M 49,71 L 47,73 L 46,73 L 44,75 L 42,75 L 41,76 L 38,76 L 37,77 L 32,77 L 31,76 L 30,76 L 29,75 L 26,75 L 26,76 L 24,78 L 23,78 L 19,82 L 20,83 L 20,84 L 13,91 L 12,91 L 11,92 L 9,92 L 9,94 L 10,95 L 11,95 L 12,96 L 13,96 L 17,100 L 19,100 L 20,101 L 38,101 L 39,100 L 41,100 L 42,101 L 43,101 L 45,103 L 47,103 L 50,100 L 51,100 L 51,99 L 52,98 L 52,96 L 51,95 L 51,92 L 50,91 L 50,87 L 49,86 L 49,85 L 50,84 L 50,83 L 51,82 L 51,81 L 52,80 L 52,79 L 53,78 L 53,77 L 55,75 L 55,71 Z" fill="none" stroke="black" stroke-width="1"/>
</svg>