<svg xmlns="http://www.w3.org/2000/svg" width="88" height="75">
  <path d="M 58,7 L 57,8 L 52,8 L 52,10 L 53,11 L 53,16 L 54,17 L 54,20 L 56,22 L 56,23 L 55,24 L 55,25 L 50,30 L 50,34 L 53,37 L 55,37 L 56,38 L 60,38 L 62,40 L 63,40 L 64,41 L 64,42 L 65,43 L 65,44 L 69,44 L 70,45 L 71,44 L 73,44 L 74,43 L 75,43 L 81,37 L 81,36 L 80,35 L 85,30 L 86,30 L 87,29 L 87,27 L 86,26 L 85,26 L 84,25 L 83,25 L 80,22 L 80,21 L 77,18 L 77,17 L 76,17 L 74,15 L 74,14 L 73,13 L 71,13 L 69,11 L 68,11 L 64,7 Z" fill="none" stroke="black" stroke-width="1"/>
</svg>