<svg xmlns="http://www.w3.org/2000/svg" width="126" height="128">
  <path d="M 6,92 L 6,94 L 4,96 L 4,97 L 3,98 L 2,98 L 2,99 L 1,100 L 0,100 L 0,101 L 1,102 L 1,105 L 4,108 L 4,109 L 6,111 L 7,111 L 8,112 L 9,112 L 10,113 L 11,113 L 12,114 L 16,114 L 17,115 L 17,116 L 25,116 L 26,117 L 26,118 L 28,118 L 29,119 L 30,119 L 31,120 L 33,120 L 35,122 L 36,122 L 37,123 L 38,122 L 42,122 L 43,123 L 44,123 L 45,124 L 46,124 L 48,126 L 48,127 L 50,127 L 51,126 L 51,124 L 52,123 L 52,122 L 54,120 L 54,116 L 56,114 L 56,113 L 57,112 L 57,111 L 58,110 L 58,106 L 55,106 L 50,101 L 47,104 L 45,104 L 43,102 L 42,102 L 41,101 L 39,101 L 38,102 L 20,102 L 19,101 L 17,101 L 13,97 L 12,97 L 11,96 L 10,96 L 8,94 L 8,93 L 7,92 Z" fill="none" stroke="black" stroke-width="1"/>
</svg>