<svg xmlns="http://www.w3.org/2000/svg" width="126" height="128">
  <path d="M 88,52 L 85,55 L 84,55 L 83,56 L 82,56 L 81,57 L 78,57 L 77,58 L 71,58 L 70,57 L 70,56 L 69,57 L 66,57 L 65,56 L 64,57 L 64,58 L 62,60 L 62,61 L 61,62 L 61,63 L 54,70 L 55,70 L 56,71 L 56,75 L 54,77 L 54,78 L 53,79 L 53,80 L 52,81 L 52,82 L 51,83 L 51,84 L 50,85 L 50,86 L 51,87 L 51,91 L 52,92 L 52,95 L 53,96 L 53,98 L 52,99 L 52,100 L 51,101 L 55,105 L 58,105 L 58,104 L 59,103 L 59,101 L 60,100 L 60,99 L 61,98 L 62,98 L 62,97 L 64,95 L 66,95 L 67,96 L 72,96 L 73,95 L 75,95 L 76,94 L 77,94 L 78,93 L 78,92 L 79,91 L 79,90 L 80,89 L 80,87 L 81,86 L 81,84 L 82,83 L 80,83 L 79,82 L 78,82 L 77,81 L 77,78 L 80,75 L 80,72 L 81,71 L 81,70 L 82,69 L 83,69 L 84,68 L 88,68 L 89,67 L 89,66 L 88,65 L 88,62 L 90,60 L 92,60 L 93,59 L 93,58 L 96,55 L 98,55 L 97,55 L 96,54 L 95,54 L 93,52 Z" fill="none" stroke="black" stroke-width="1"/>
</svg>