<svg xmlns="http://www.w3.org/2000/svg" width="126" height="128">
  <path d="M 100,0 L 99,1 L 99,2 L 98,3 L 98,4 L 97,5 L 97,6 L 96,7 L 96,10 L 94,12 L 94,13 L 91,16 L 90,16 L 83,23 L 76,23 L 75,24 L 73,24 L 72,25 L 64,25 L 62,27 L 62,28 L 61,29 L 61,38 L 62,39 L 62,40 L 67,45 L 67,46 L 64,49 L 64,51 L 66,51 L 67,52 L 67,54 L 66,55 L 66,56 L 69,56 L 70,55 L 71,56 L 71,57 L 77,57 L 78,56 L 81,56 L 82,55 L 83,55 L 84,54 L 85,54 L 88,51 L 93,51 L 95,53 L 96,53 L 97,54 L 98,54 L 99,53 L 100,53 L 101,54 L 101,53 L 102,52 L 103,52 L 103,51 L 104,50 L 105,50 L 106,49 L 106,48 L 108,46 L 109,46 L 109,44 L 110,43 L 111,43 L 112,42 L 112,41 L 111,40 L 111,38 L 113,36 L 114,36 L 115,35 L 121,35 L 122,36 L 123,35 L 125,35 L 125,32 L 124,31 L 123,31 L 122,30 L 114,30 L 113,29 L 111,29 L 109,27 L 109,26 L 110,25 L 110,24 L 112,22 L 112,19 L 110,19 L 108,17 L 108,16 L 107,15 L 107,10 L 106,9 L 106,8 L 105,7 L 105,6 L 101,2 L 101,0 Z" fill="none" stroke="black" stroke-width="1"/>
</svg>