<svg xmlns="http://www.w3.org/2000/svg" width="81" height="81">
  <path d="M 37,12 L 38,13 L 38,14 L 36,16 L 34,16 L 32,18 L 32,19 L 31,20 L 31,26 L 28,29 L 28,30 L 27,31 L 27,36 L 29,36 L 30,37 L 30,40 L 31,41 L 31,42 L 32,43 L 32,44 L 31,45 L 30,45 L 31,46 L 32,46 L 33,47 L 34,47 L 35,48 L 39,48 L 40,49 L 41,49 L 43,51 L 43,54 L 48,54 L 49,55 L 50,55 L 51,54 L 52,54 L 53,53 L 53,52 L 54,51 L 54,41 L 56,39 L 57,39 L 58,38 L 60,38 L 60,37 L 61,36 L 61,33 L 60,32 L 61,31 L 61,26 L 60,25 L 61,24 L 63,24 L 63,23 L 62,22 L 62,21 L 61,20 L 60,20 L 59,19 L 58,19 L 57,18 L 53,18 L 52,19 L 51,18 L 50,18 L 48,16 L 46,16 L 45,15 L 44,15 L 43,14 L 41,14 L 40,13 L 40,12 Z" fill="none" stroke="black" stroke-width="1"/>
</svg>