<svg xmlns="http://www.w3.org/2000/svg" width="96" height="71">
  <path d="M 83,7 L 82,8 L 79,8 L 78,9 L 78,10 L 77,11 L 77,15 L 79,17 L 75,21 L 75,22 L 72,25 L 72,30 L 71,31 L 71,35 L 70,36 L 70,38 L 71,38 L 72,39 L 72,42 L 71,43 L 71,46 L 72,47 L 74,47 L 75,48 L 76,48 L 77,47 L 79,47 L 80,46 L 83,46 L 84,47 L 84,48 L 86,46 L 88,46 L 88,45 L 89,44 L 89,40 L 90,39 L 90,37 L 91,36 L 91,35 L 92,34 L 93,34 L 93,30 L 94,29 L 94,28 L 95,27 L 95,25 L 93,23 L 93,22 L 92,21 L 92,19 L 93,18 L 93,16 L 90,13 L 90,11 L 88,9 L 88,8 L 84,8 Z" fill="none" stroke="black" stroke-width="1"/>
</svg>