<svg xmlns="http://www.w3.org/2000/svg" width="93" height="99">
  <path d="M 51,24 L 49,26 L 48,26 L 47,27 L 47,29 L 45,31 L 43,31 L 42,32 L 37,32 L 35,30 L 35,29 L 34,28 L 27,28 L 27,29 L 26,30 L 26,32 L 25,33 L 25,37 L 24,38 L 24,39 L 23,40 L 21,40 L 19,42 L 19,47 L 18,48 L 18,50 L 20,52 L 27,52 L 30,55 L 30,59 L 29,60 L 29,61 L 28,62 L 28,63 L 29,64 L 29,65 L 30,65 L 31,66 L 32,66 L 33,67 L 33,69 L 35,69 L 37,67 L 40,67 L 40,66 L 41,65 L 41,59 L 44,56 L 45,56 L 46,55 L 47,55 L 48,54 L 52,54 L 53,53 L 55,53 L 56,52 L 56,50 L 54,48 L 54,47 L 53,46 L 53,43 L 52,42 L 52,41 L 55,38 L 54,37 L 54,30 L 55,29 L 55,26 L 53,24 Z" fill="none" stroke="black" stroke-width="1"/>
</svg>