<svg xmlns="http://www.w3.org/2000/svg" width="93" height="99">
  <path d="M 18,52 L 18,53 L 12,59 L 11,59 L 9,61 L 1,61 L 0,62 L 0,65 L 1,66 L 3,66 L 6,69 L 6,71 L 4,73 L 4,74 L 2,76 L 2,82 L 3,83 L 3,84 L 4,85 L 4,88 L 5,89 L 5,91 L 6,91 L 8,93 L 9,93 L 11,95 L 13,93 L 13,92 L 14,91 L 15,91 L 16,90 L 17,90 L 18,89 L 21,89 L 22,90 L 25,90 L 28,87 L 28,86 L 29,85 L 29,84 L 30,83 L 30,82 L 31,81 L 36,81 L 37,80 L 38,80 L 38,79 L 37,78 L 36,78 L 35,77 L 35,76 L 32,73 L 32,67 L 31,67 L 30,66 L 29,66 L 28,65 L 28,64 L 27,63 L 27,62 L 28,61 L 28,60 L 29,59 L 29,55 L 27,53 L 20,53 L 19,52 Z" fill="none" stroke="black" stroke-width="1"/>
</svg>