<svg xmlns="http://www.w3.org/2000/svg" width="93" height="99">
  <path d="M 88,20 L 83,25 L 78,25 L 76,23 L 74,23 L 72,21 L 71,21 L 68,24 L 68,25 L 64,29 L 59,29 L 57,27 L 56,27 L 56,29 L 55,30 L 55,37 L 56,38 L 53,41 L 53,42 L 54,43 L 54,46 L 55,47 L 55,48 L 57,50 L 57,52 L 56,53 L 56,54 L 57,54 L 58,55 L 58,56 L 59,57 L 60,57 L 64,61 L 66,61 L 66,58 L 67,57 L 67,56 L 69,54 L 69,53 L 70,52 L 71,52 L 71,51 L 77,45 L 78,45 L 79,44 L 80,44 L 81,43 L 82,43 L 82,35 L 84,33 L 84,32 L 89,27 L 89,26 L 91,24 L 92,24 L 90,22 L 90,21 L 89,21 Z" fill="none" stroke="black" stroke-width="1"/>
</svg>