<svg xmlns="http://www.w3.org/2000/svg" width="160" height="49">
  <path d="M 91,2 L 91,3 L 90,4 L 89,4 L 88,5 L 83,5 L 83,6 L 82,7 L 82,8 L 81,9 L 81,10 L 77,14 L 74,14 L 73,13 L 70,13 L 69,14 L 68,14 L 67,15 L 66,15 L 66,16 L 62,20 L 62,23 L 68,23 L 69,22 L 75,22 L 78,25 L 80,25 L 81,26 L 85,26 L 86,27 L 87,27 L 88,28 L 93,28 L 94,27 L 95,27 L 97,25 L 98,25 L 99,24 L 101,24 L 102,23 L 103,23 L 106,20 L 108,20 L 108,18 L 109,17 L 109,16 L 108,15 L 108,13 L 107,12 L 104,12 L 103,11 L 103,10 L 102,9 L 100,9 L 98,7 L 98,5 L 94,5 L 92,3 L 92,2 Z" fill="none" stroke="black" stroke-width="1"/>
</svg>