<svg xmlns="http://www.w3.org/2000/svg" width="160" height="49">
  <path d="M 57,22 L 57,24 L 58,25 L 58,27 L 56,29 L 56,31 L 58,31 L 59,32 L 60,32 L 61,33 L 60,34 L 59,34 L 63,34 L 64,35 L 68,35 L 69,34 L 69,32 L 70,31 L 71,32 L 71,36 L 72,36 L 74,34 L 75,35 L 75,37 L 80,37 L 81,38 L 83,38 L 85,40 L 86,40 L 87,41 L 89,41 L 90,40 L 91,40 L 93,38 L 93,37 L 94,36 L 94,34 L 92,32 L 92,31 L 93,30 L 93,29 L 88,29 L 87,28 L 86,28 L 85,27 L 81,27 L 80,26 L 78,26 L 75,23 L 69,23 L 68,24 L 62,24 L 61,23 L 61,22 Z" fill="none" stroke="black" stroke-width="1"/>
</svg>