<svg xmlns="http://www.w3.org/2000/svg" width="58" height="73">
  <path d="M 43,0 L 42,1 L 37,1 L 36,2 L 35,2 L 34,3 L 31,3 L 28,6 L 27,6 L 27,7 L 26,8 L 25,7 L 22,7 L 19,10 L 18,10 L 17,11 L 14,11 L 14,13 L 13,14 L 12,14 L 11,15 L 11,20 L 12,21 L 12,22 L 13,23 L 12,24 L 12,27 L 11,28 L 11,31 L 12,30 L 12,29 L 13,28 L 13,27 L 14,26 L 18,26 L 19,25 L 20,25 L 22,23 L 23,23 L 24,22 L 25,22 L 26,21 L 37,21 L 36,20 L 37,19 L 37,18 L 38,17 L 38,16 L 39,15 L 39,14 L 40,13 L 41,13 L 42,12 L 42,11 L 43,10 L 44,10 L 48,6 L 51,6 L 52,5 L 52,4 L 51,4 L 50,3 L 49,3 L 47,1 L 46,1 L 45,0 Z" fill="none" stroke="black" stroke-width="1"/>
</svg>