<svg xmlns="http://www.w3.org/2000/svg" width="123" height="76">
  <path d="M 28,18 L 27,19 L 26,19 L 26,20 L 25,21 L 24,21 L 24,22 L 23,23 L 22,22 L 21,22 L 21,23 L 20,24 L 18,24 L 16,26 L 16,27 L 14,29 L 12,29 L 11,30 L 11,33 L 12,34 L 12,35 L 10,37 L 6,37 L 5,38 L 4,38 L 4,39 L 3,40 L 3,43 L 0,46 L 0,49 L 1,49 L 2,50 L 6,50 L 9,47 L 14,47 L 15,48 L 16,48 L 17,49 L 20,49 L 22,51 L 25,51 L 26,50 L 26,48 L 28,46 L 29,46 L 29,44 L 30,43 L 33,43 L 34,42 L 35,42 L 38,39 L 41,39 L 42,40 L 42,39 L 43,38 L 44,38 L 47,35 L 50,35 L 51,34 L 52,34 L 53,33 L 53,32 L 51,32 L 46,27 L 46,25 L 47,24 L 47,22 L 45,20 L 43,20 L 42,19 L 37,19 L 36,20 L 32,20 L 31,19 L 29,19 Z" fill="none" stroke="black" stroke-width="1"/>
</svg>