<svg xmlns="http://www.w3.org/2000/svg" width="123" height="76">
  <path d="M 82,9 L 81,10 L 80,10 L 79,11 L 78,11 L 77,12 L 76,12 L 72,16 L 71,16 L 71,25 L 69,27 L 68,27 L 67,28 L 65,28 L 65,29 L 62,32 L 62,33 L 63,33 L 65,35 L 66,35 L 67,36 L 68,36 L 69,37 L 70,37 L 71,36 L 73,36 L 74,37 L 85,37 L 87,35 L 88,35 L 89,34 L 92,34 L 93,35 L 94,35 L 95,34 L 96,34 L 97,33 L 98,33 L 98,32 L 100,30 L 100,27 L 105,22 L 107,22 L 107,18 L 106,17 L 105,17 L 104,16 L 102,16 L 101,17 L 100,17 L 99,18 L 94,18 L 92,16 L 92,15 L 87,10 L 86,10 L 85,9 Z" fill="none" stroke="black" stroke-width="1"/>
</svg>