<svg xmlns="http://www.w3.org/2000/svg" width="58" height="73">
  <path d="M 43,11 L 43,12 L 41,14 L 40,14 L 40,15 L 39,16 L 39,17 L 38,18 L 38,19 L 37,20 L 38,21 L 38,25 L 37,26 L 37,30 L 34,33 L 33,33 L 32,34 L 32,35 L 34,37 L 34,39 L 32,41 L 31,41 L 31,43 L 30,44 L 30,45 L 28,47 L 28,49 L 30,49 L 31,50 L 33,50 L 35,52 L 36,52 L 46,42 L 47,42 L 47,41 L 48,40 L 49,40 L 49,39 L 50,38 L 50,36 L 53,33 L 57,33 L 57,30 L 56,29 L 56,27 L 55,26 L 55,25 L 54,24 L 54,23 L 51,20 L 51,18 L 49,16 L 49,13 L 48,12 L 47,12 L 46,11 Z" fill="none" stroke="black" stroke-width="1"/>
</svg>