<svg xmlns="http://www.w3.org/2000/svg" width="123" height="76">
  <path d="M 89,35 L 88,36 L 87,36 L 85,38 L 74,38 L 73,37 L 71,37 L 70,38 L 69,38 L 67,40 L 64,40 L 61,43 L 62,43 L 63,44 L 64,44 L 66,46 L 66,49 L 68,51 L 68,53 L 71,56 L 71,57 L 72,58 L 72,59 L 73,60 L 73,62 L 74,63 L 74,66 L 73,67 L 74,67 L 75,68 L 76,68 L 77,69 L 78,69 L 81,66 L 82,66 L 83,65 L 87,65 L 88,66 L 88,67 L 89,67 L 90,68 L 91,68 L 92,69 L 92,70 L 93,70 L 97,74 L 101,74 L 102,75 L 102,73 L 101,72 L 101,71 L 100,70 L 100,68 L 101,67 L 103,67 L 104,66 L 105,66 L 105,62 L 104,61 L 104,60 L 101,57 L 101,55 L 100,55 L 96,51 L 96,50 L 95,49 L 95,48 L 93,46 L 93,44 L 92,44 L 91,43 L 91,41 L 92,40 L 92,39 L 94,37 L 93,37 L 92,36 L 92,35 Z" fill="none" stroke="black" stroke-width="1"/>
</svg>