<svg xmlns="http://www.w3.org/2000/svg" width="96" height="67">
  <path d="M 44,0 L 43,1 L 42,1 L 39,4 L 38,4 L 37,3 L 36,3 L 35,2 L 34,2 L 33,1 L 30,1 L 28,3 L 28,5 L 27,6 L 27,7 L 26,8 L 25,8 L 25,10 L 29,14 L 29,15 L 31,17 L 31,20 L 32,21 L 33,21 L 34,22 L 36,22 L 38,20 L 39,20 L 41,18 L 42,18 L 44,20 L 45,20 L 45,19 L 47,17 L 51,17 L 53,19 L 54,19 L 55,20 L 59,20 L 60,21 L 61,21 L 62,22 L 64,22 L 65,23 L 67,23 L 68,24 L 71,24 L 72,23 L 73,23 L 75,21 L 75,20 L 69,14 L 67,14 L 66,13 L 65,13 L 62,10 L 62,9 L 58,9 L 54,5 L 53,5 L 52,4 L 52,3 L 51,3 L 50,2 L 49,2 L 48,1 L 48,0 Z" fill="none" stroke="black" stroke-width="1"/>
</svg>