<svg xmlns="http://www.w3.org/2000/svg" width="96" height="67">
  <path d="M 47,18 L 46,19 L 46,20 L 45,21 L 45,24 L 43,26 L 43,28 L 44,29 L 45,29 L 46,30 L 46,31 L 47,32 L 47,33 L 48,34 L 48,35 L 49,36 L 49,37 L 50,38 L 51,38 L 52,39 L 53,39 L 55,41 L 57,41 L 58,42 L 60,42 L 61,43 L 63,43 L 64,44 L 66,44 L 67,45 L 68,45 L 70,43 L 71,43 L 73,41 L 75,41 L 75,37 L 74,36 L 74,35 L 72,33 L 72,32 L 73,31 L 73,26 L 72,25 L 68,25 L 67,24 L 65,24 L 64,23 L 62,23 L 61,22 L 60,22 L 59,21 L 55,21 L 54,20 L 53,20 L 51,18 Z" fill="none" stroke="black" stroke-width="1"/>
</svg>