<svg xmlns="http://www.w3.org/2000/svg" width="93" height="99">
  <path d="M 63,0 L 63,4 L 62,5 L 62,6 L 60,8 L 59,8 L 58,9 L 57,9 L 56,8 L 51,8 L 50,9 L 47,9 L 46,10 L 44,10 L 44,11 L 42,13 L 39,13 L 32,20 L 31,20 L 30,21 L 30,22 L 29,23 L 29,27 L 34,27 L 36,29 L 36,30 L 37,31 L 42,31 L 43,30 L 45,30 L 46,29 L 46,27 L 48,25 L 49,25 L 51,23 L 53,23 L 56,26 L 57,26 L 59,28 L 64,28 L 67,25 L 67,24 L 71,20 L 71,18 L 75,14 L 74,13 L 74,11 L 75,10 L 75,8 L 74,7 L 74,4 L 73,3 L 71,3 L 70,2 L 68,2 L 67,1 L 65,1 L 64,0 Z" fill="none" stroke="black" stroke-width="1"/>
</svg>