<svg xmlns="http://www.w3.org/2000/svg" width="73" height="71">
  <path d="M 19,0 L 15,4 L 11,4 L 10,5 L 4,5 L 3,6 L 3,7 L 1,9 L 1,11 L 4,14 L 4,15 L 5,16 L 5,20 L 4,21 L 3,21 L 2,22 L 0,22 L 0,24 L 1,25 L 1,26 L 2,27 L 2,29 L 1,30 L 3,32 L 4,32 L 5,33 L 7,33 L 15,41 L 18,41 L 19,40 L 22,43 L 25,40 L 25,39 L 26,38 L 27,38 L 27,37 L 25,35 L 25,33 L 26,32 L 26,20 L 25,20 L 22,17 L 22,16 L 21,15 L 21,12 L 22,11 L 22,9 L 26,5 L 25,5 L 24,4 L 23,4 L 21,2 L 21,0 Z" fill="none" stroke="black" stroke-width="1"/>
</svg>