<svg xmlns="http://www.w3.org/2000/svg" width="73" height="71">
  <path d="M 40,3 L 39,4 L 27,4 L 27,5 L 23,9 L 23,11 L 22,12 L 22,15 L 23,16 L 23,17 L 25,19 L 26,19 L 27,20 L 27,24 L 30,24 L 33,27 L 33,28 L 34,28 L 35,29 L 38,29 L 41,32 L 42,32 L 42,31 L 45,28 L 46,28 L 49,25 L 50,25 L 51,24 L 54,24 L 55,25 L 64,25 L 65,24 L 65,23 L 66,22 L 66,20 L 67,19 L 68,19 L 69,18 L 69,17 L 70,16 L 70,14 L 71,13 L 71,12 L 72,11 L 72,10 L 69,7 L 63,7 L 62,8 L 60,8 L 59,7 L 57,7 L 56,6 L 54,6 L 52,4 L 51,4 L 50,3 Z" fill="none" stroke="black" stroke-width="1"/>
</svg>