<svg xmlns="http://www.w3.org/2000/svg" width="73" height="71">
  <path d="M 51,25 L 50,26 L 49,26 L 46,29 L 45,29 L 43,31 L 43,34 L 42,35 L 42,36 L 41,37 L 41,41 L 40,42 L 40,46 L 42,48 L 43,48 L 45,50 L 45,54 L 44,55 L 44,57 L 46,59 L 46,60 L 50,64 L 51,64 L 52,65 L 53,65 L 54,66 L 56,66 L 57,65 L 57,62 L 53,58 L 54,57 L 54,54 L 55,53 L 56,53 L 56,47 L 57,46 L 57,43 L 59,41 L 60,41 L 61,40 L 63,40 L 64,39 L 66,39 L 67,38 L 68,38 L 69,37 L 70,37 L 70,36 L 69,35 L 69,33 L 70,32 L 70,29 L 67,26 L 55,26 L 54,25 Z" fill="none" stroke="black" stroke-width="1"/>
</svg>