<svg xmlns="http://www.w3.org/2000/svg" width="195" height="236">
  <path d="M 161,201 L 161,202 L 160,203 L 159,203 L 151,211 L 151,212 L 149,214 L 148,214 L 145,217 L 144,217 L 143,218 L 141,218 L 139,220 L 139,221 L 141,223 L 141,230 L 142,231 L 143,231 L 144,232 L 145,232 L 146,231 L 158,231 L 159,230 L 169,230 L 170,231 L 171,231 L 173,233 L 175,233 L 176,234 L 178,234 L 179,235 L 181,235 L 182,234 L 188,234 L 189,235 L 190,234 L 190,233 L 193,230 L 194,230 L 194,228 L 193,227 L 193,221 L 191,221 L 190,220 L 190,219 L 189,218 L 189,215 L 187,213 L 187,212 L 186,212 L 182,208 L 182,206 L 181,206 L 180,205 L 175,205 L 174,204 L 172,204 L 171,203 L 170,203 L 169,202 L 168,202 L 167,201 Z" fill="none" stroke="black" stroke-width="1"/>
</svg>