<svg xmlns="http://www.w3.org/2000/svg" width="113" height="105">
  <path d="M 27,36 L 26,37 L 22,37 L 21,38 L 19,38 L 18,39 L 15,39 L 14,40 L 13,40 L 11,42 L 10,42 L 5,47 L 4,47 L 0,51 L 0,54 L 3,57 L 4,57 L 5,58 L 5,59 L 7,61 L 7,64 L 8,65 L 8,66 L 10,66 L 11,67 L 11,73 L 12,73 L 13,72 L 14,72 L 16,70 L 17,70 L 18,69 L 20,71 L 25,71 L 27,69 L 35,69 L 36,70 L 37,70 L 38,71 L 39,71 L 42,74 L 44,74 L 47,71 L 47,70 L 48,69 L 48,67 L 49,66 L 49,63 L 47,63 L 45,61 L 44,61 L 43,60 L 42,60 L 40,58 L 40,56 L 39,56 L 38,55 L 38,52 L 45,45 L 45,41 L 44,41 L 43,40 L 43,38 L 41,36 Z" fill="none" stroke="black" stroke-width="1"/>
</svg>