<svg xmlns="http://www.w3.org/2000/svg" width="113" height="105">
  <path d="M 18,70 L 17,71 L 16,71 L 14,73 L 13,73 L 12,74 L 12,76 L 11,77 L 10,77 L 8,79 L 8,80 L 7,81 L 7,82 L 9,84 L 9,85 L 8,86 L 8,87 L 7,88 L 7,90 L 6,91 L 6,92 L 4,94 L 3,94 L 3,96 L 2,97 L 2,98 L 1,99 L 3,99 L 7,103 L 7,104 L 8,104 L 9,103 L 10,103 L 12,101 L 13,101 L 14,100 L 15,100 L 16,99 L 17,100 L 18,100 L 20,98 L 23,98 L 24,97 L 31,97 L 33,95 L 33,94 L 34,93 L 34,91 L 36,89 L 36,87 L 38,85 L 38,81 L 39,80 L 40,80 L 41,79 L 41,77 L 42,76 L 42,75 L 39,72 L 38,72 L 37,71 L 36,71 L 35,70 L 27,70 L 25,72 L 20,72 Z" fill="none" stroke="black" stroke-width="1"/>
</svg>