<svg xmlns="http://www.w3.org/2000/svg" width="113" height="105">
  <path d="M 67,0 L 66,1 L 65,1 L 61,5 L 60,5 L 59,6 L 59,14 L 60,15 L 60,20 L 58,22 L 58,32 L 57,33 L 54,33 L 53,34 L 51,34 L 50,35 L 48,35 L 46,37 L 45,37 L 44,38 L 44,40 L 45,40 L 46,41 L 46,45 L 39,52 L 39,55 L 40,55 L 41,56 L 41,58 L 42,59 L 43,59 L 44,60 L 45,60 L 47,62 L 49,62 L 50,63 L 50,64 L 52,64 L 53,65 L 53,66 L 55,66 L 56,67 L 57,67 L 58,68 L 64,68 L 65,67 L 67,67 L 68,66 L 69,66 L 70,65 L 71,66 L 72,66 L 73,65 L 73,63 L 78,58 L 78,57 L 79,56 L 79,51 L 80,50 L 80,49 L 81,48 L 81,41 L 83,39 L 83,38 L 81,36 L 81,30 L 82,29 L 85,29 L 85,26 L 83,24 L 83,23 L 82,23 L 81,22 L 81,21 L 79,19 L 79,18 L 78,17 L 77,17 L 76,16 L 76,15 L 74,13 L 74,12 L 73,11 L 73,9 L 72,8 L 72,6 L 71,5 L 71,3 L 69,1 L 69,0 Z" fill="none" stroke="black" stroke-width="1"/>
</svg>