<svg xmlns="http://www.w3.org/2000/svg" width="88" height="131">
  <path d="M 49,30 L 48,31 L 46,31 L 45,32 L 44,32 L 43,33 L 36,33 L 35,34 L 34,34 L 33,35 L 32,35 L 31,36 L 27,36 L 24,39 L 23,39 L 22,40 L 20,40 L 19,41 L 18,41 L 17,42 L 16,42 L 15,43 L 12,43 L 12,44 L 11,45 L 10,45 L 9,46 L 1,46 L 0,47 L 0,49 L 2,51 L 2,53 L 3,54 L 3,56 L 4,57 L 4,59 L 5,60 L 5,61 L 7,63 L 7,64 L 8,64 L 10,66 L 10,67 L 12,69 L 12,70 L 13,70 L 14,71 L 14,72 L 16,74 L 16,77 L 15,78 L 12,78 L 12,84 L 14,86 L 14,87 L 12,89 L 12,96 L 11,97 L 11,98 L 10,99 L 10,104 L 9,105 L 9,106 L 4,111 L 4,112 L 5,112 L 6,113 L 8,113 L 9,114 L 16,114 L 18,116 L 20,116 L 23,113 L 23,112 L 24,111 L 25,111 L 26,110 L 28,110 L 29,109 L 32,109 L 38,103 L 38,102 L 39,101 L 39,96 L 40,95 L 40,94 L 41,93 L 41,92 L 45,88 L 45,87 L 46,86 L 46,85 L 48,83 L 48,73 L 49,72 L 49,71 L 50,70 L 50,69 L 51,68 L 51,66 L 50,65 L 50,64 L 49,63 L 49,60 L 48,59 L 48,56 L 47,55 L 47,50 L 48,49 L 48,45 L 49,44 L 49,43 L 50,42 L 50,41 L 51,40 L 51,30 Z" fill="none" stroke="black" stroke-width="1"/>
</svg>