<svg xmlns="http://www.w3.org/2000/svg" width="113" height="105">
  <path d="M 50,65 L 50,66 L 49,67 L 49,69 L 48,70 L 48,71 L 44,75 L 43,75 L 43,76 L 42,77 L 42,79 L 40,81 L 39,81 L 39,85 L 37,87 L 37,90 L 40,90 L 41,91 L 45,91 L 46,92 L 53,92 L 54,93 L 57,93 L 58,92 L 64,92 L 65,93 L 66,93 L 68,95 L 69,95 L 71,93 L 71,91 L 73,89 L 73,88 L 76,85 L 76,83 L 78,81 L 79,81 L 80,80 L 81,80 L 81,79 L 85,75 L 85,74 L 88,71 L 88,69 L 86,67 L 79,67 L 78,66 L 76,66 L 75,65 L 74,65 L 72,67 L 71,67 L 70,66 L 69,67 L 68,67 L 67,68 L 65,68 L 64,69 L 58,69 L 57,68 L 56,68 L 55,67 L 53,67 L 52,66 L 52,65 Z" fill="none" stroke="black" stroke-width="1"/>
</svg>