<svg xmlns="http://www.w3.org/2000/svg" width="88" height="131">
  <path d="M 57,68 L 56,69 L 51,69 L 51,70 L 50,71 L 50,72 L 49,73 L 49,83 L 47,85 L 47,86 L 46,87 L 46,88 L 42,92 L 42,93 L 41,94 L 41,95 L 40,96 L 40,101 L 39,102 L 39,103 L 32,110 L 31,110 L 32,111 L 32,113 L 34,115 L 35,115 L 38,118 L 38,119 L 43,124 L 43,127 L 55,127 L 56,128 L 58,128 L 59,127 L 61,129 L 64,129 L 65,130 L 68,130 L 69,129 L 72,129 L 73,128 L 74,128 L 76,126 L 77,126 L 78,125 L 81,125 L 82,126 L 83,126 L 83,121 L 80,118 L 80,117 L 79,116 L 79,115 L 78,114 L 77,114 L 75,112 L 74,112 L 73,111 L 73,110 L 71,108 L 71,107 L 70,106 L 70,104 L 69,103 L 69,101 L 68,100 L 68,89 L 69,88 L 69,79 L 70,78 L 70,72 L 69,71 L 69,69 L 68,69 L 67,68 Z" fill="none" stroke="black" stroke-width="1"/>
</svg>