<svg xmlns="http://www.w3.org/2000/svg" width="78" height="70">
  <path d="M 15,0 L 14,1 L 13,1 L 12,2 L 10,2 L 9,3 L 7,3 L 6,4 L 5,4 L 4,5 L 4,8 L 3,9 L 3,15 L 2,16 L 1,16 L 1,19 L 0,20 L 4,24 L 4,27 L 1,30 L 1,31 L 2,31 L 4,33 L 5,33 L 7,35 L 8,35 L 10,37 L 10,38 L 11,38 L 11,37 L 12,36 L 13,36 L 18,31 L 24,31 L 24,30 L 23,29 L 23,28 L 22,27 L 22,26 L 20,24 L 20,23 L 19,22 L 19,18 L 23,14 L 25,14 L 27,12 L 28,12 L 30,10 L 30,6 L 28,4 L 28,3 L 26,1 L 25,1 L 24,0 Z" fill="none" stroke="black" stroke-width="1"/>
</svg>