<svg xmlns="http://www.w3.org/2000/svg" width="81" height="63">
  <path d="M 41,3 L 41,8 L 40,9 L 39,9 L 39,11 L 40,11 L 41,12 L 41,14 L 43,16 L 43,20 L 45,22 L 46,22 L 47,23 L 48,23 L 49,24 L 50,24 L 51,25 L 53,25 L 54,26 L 54,27 L 55,28 L 55,29 L 66,29 L 67,30 L 68,30 L 69,31 L 70,31 L 71,32 L 74,32 L 75,33 L 75,32 L 76,31 L 77,31 L 78,32 L 79,32 L 80,31 L 80,25 L 78,23 L 78,22 L 77,21 L 77,20 L 74,17 L 74,15 L 70,11 L 69,11 L 68,10 L 66,10 L 65,9 L 65,8 L 63,6 L 62,6 L 60,4 L 59,4 L 58,3 L 52,3 L 51,4 L 48,4 L 47,3 Z" fill="none" stroke="black" stroke-width="1"/>
</svg>