<svg xmlns="http://www.w3.org/2000/svg" width="51" height="64">
  <path d="M 33,0 L 33,2 L 31,4 L 30,4 L 29,3 L 28,3 L 28,4 L 27,5 L 26,4 L 23,4 L 23,5 L 24,6 L 24,7 L 25,8 L 25,11 L 26,12 L 24,14 L 24,15 L 25,16 L 25,17 L 24,18 L 24,20 L 25,21 L 25,22 L 23,24 L 23,25 L 24,25 L 26,27 L 26,28 L 27,28 L 29,30 L 30,30 L 31,31 L 32,31 L 33,32 L 34,32 L 35,33 L 36,33 L 37,34 L 38,34 L 40,36 L 42,36 L 43,35 L 48,35 L 49,36 L 49,37 L 50,37 L 50,33 L 49,33 L 48,32 L 49,31 L 49,29 L 48,28 L 48,27 L 46,25 L 46,24 L 45,23 L 46,22 L 46,19 L 49,16 L 49,15 L 50,14 L 48,14 L 47,13 L 47,9 L 46,8 L 46,7 L 45,6 L 42,6 L 41,5 L 41,4 L 40,4 L 39,3 L 39,2 L 36,2 L 34,0 Z" fill="none" stroke="black" stroke-width="1"/>
</svg>