<svg xmlns="http://www.w3.org/2000/svg" width="51" height="64">
  <path d="M 22,25 L 20,27 L 19,27 L 18,28 L 15,28 L 14,29 L 14,31 L 15,32 L 15,33 L 14,34 L 14,40 L 13,41 L 13,43 L 12,44 L 12,45 L 10,47 L 9,47 L 8,48 L 6,48 L 7,49 L 7,50 L 6,51 L 6,52 L 9,55 L 10,55 L 11,56 L 12,56 L 16,60 L 16,61 L 17,61 L 19,63 L 19,62 L 20,61 L 20,60 L 21,59 L 22,59 L 23,58 L 23,54 L 24,53 L 24,52 L 30,46 L 31,46 L 38,39 L 38,38 L 39,37 L 39,36 L 38,35 L 37,35 L 36,34 L 35,34 L 34,33 L 33,33 L 32,32 L 31,32 L 30,31 L 29,31 L 27,29 L 26,29 L 25,28 L 25,27 L 24,26 L 23,26 Z" fill="none" stroke="black" stroke-width="1"/>
</svg>