<svg xmlns="http://www.w3.org/2000/svg" width="84" height="105">
  <path d="M 14,18 L 13,19 L 11,19 L 10,20 L 9,20 L 8,21 L 7,21 L 6,22 L 4,22 L 3,23 L 0,23 L 2,25 L 2,27 L 5,30 L 5,31 L 6,32 L 6,33 L 8,35 L 8,38 L 9,38 L 11,40 L 14,40 L 15,41 L 15,42 L 16,42 L 17,43 L 17,44 L 20,44 L 22,46 L 22,47 L 23,47 L 24,46 L 26,46 L 27,45 L 36,45 L 37,44 L 40,44 L 43,41 L 45,41 L 47,39 L 47,38 L 49,36 L 50,36 L 49,35 L 48,35 L 46,33 L 46,32 L 44,30 L 44,29 L 43,28 L 41,28 L 40,27 L 40,26 L 39,25 L 38,25 L 37,24 L 33,24 L 32,25 L 31,24 L 28,24 L 27,25 L 24,25 L 23,24 L 21,24 L 20,23 L 19,23 L 18,22 L 18,21 L 17,21 L 16,20 L 16,18 Z" fill="none" stroke="black" stroke-width="1"/>
</svg>