<svg xmlns="http://www.w3.org/2000/svg" width="84" height="105">
  <path d="M 27,46 L 26,47 L 24,47 L 23,48 L 23,52 L 25,52 L 26,53 L 25,54 L 25,55 L 22,58 L 22,61 L 21,62 L 22,63 L 22,64 L 24,66 L 24,67 L 25,68 L 25,70 L 24,71 L 25,71 L 26,72 L 26,76 L 27,76 L 29,78 L 31,78 L 32,79 L 33,79 L 34,78 L 35,78 L 36,77 L 36,76 L 37,75 L 37,72 L 40,69 L 43,69 L 44,70 L 45,69 L 50,69 L 50,68 L 49,67 L 49,66 L 51,64 L 51,62 L 48,59 L 46,59 L 45,58 L 44,58 L 43,57 L 43,55 L 41,53 L 41,49 L 40,48 L 40,47 L 39,46 Z" fill="none" stroke="black" stroke-width="1"/>
</svg>