<svg xmlns="http://www.w3.org/2000/svg" width="84" height="105">
  <path d="M 33,0 L 30,3 L 32,5 L 32,6 L 33,7 L 32,8 L 32,9 L 30,11 L 29,11 L 27,13 L 26,13 L 25,14 L 22,14 L 21,15 L 20,15 L 17,18 L 17,20 L 18,20 L 19,21 L 19,22 L 20,22 L 21,23 L 23,23 L 24,24 L 27,24 L 28,23 L 31,23 L 32,24 L 33,23 L 37,23 L 38,24 L 39,24 L 41,26 L 41,27 L 43,27 L 45,29 L 45,30 L 47,32 L 47,33 L 48,34 L 49,34 L 51,36 L 51,34 L 52,33 L 55,33 L 57,31 L 58,32 L 59,32 L 60,33 L 61,33 L 62,34 L 64,34 L 64,30 L 63,30 L 62,29 L 62,28 L 59,25 L 59,23 L 62,20 L 63,20 L 64,19 L 66,19 L 67,18 L 68,19 L 69,19 L 67,17 L 67,16 L 66,15 L 66,13 L 65,12 L 65,11 L 64,10 L 63,10 L 61,8 L 61,5 L 60,5 L 59,4 L 59,3 L 56,3 L 55,2 L 52,2 L 50,0 L 49,1 L 47,1 L 46,0 Z" fill="none" stroke="black" stroke-width="1"/>
</svg>