<svg xmlns="http://www.w3.org/2000/svg" width="84" height="77">
  <path d="M 62,0 L 60,2 L 60,5 L 59,6 L 59,7 L 57,9 L 56,9 L 56,11 L 55,12 L 55,15 L 56,16 L 57,16 L 58,17 L 58,18 L 59,19 L 63,19 L 65,21 L 65,23 L 67,25 L 67,26 L 68,27 L 68,28 L 69,29 L 70,29 L 71,30 L 73,30 L 74,31 L 74,32 L 75,32 L 76,33 L 78,33 L 79,32 L 81,32 L 82,31 L 82,30 L 83,29 L 83,24 L 81,22 L 81,21 L 80,20 L 80,19 L 76,15 L 76,14 L 78,12 L 78,11 L 79,10 L 79,9 L 78,9 L 76,7 L 75,7 L 74,6 L 75,5 L 76,5 L 76,4 L 74,2 L 74,1 L 73,0 L 67,0 L 66,1 L 65,0 Z" fill="none" stroke="black" stroke-width="1"/>
</svg>