<svg xmlns="http://www.w3.org/2000/svg" width="96" height="96">
  <path d="M 84,13 L 83,14 L 82,14 L 81,15 L 77,15 L 75,17 L 73,17 L 72,18 L 66,18 L 65,19 L 63,19 L 62,20 L 55,20 L 54,19 L 50,19 L 49,18 L 48,18 L 47,17 L 46,17 L 45,16 L 44,16 L 44,18 L 43,19 L 43,20 L 42,21 L 42,23 L 41,24 L 41,31 L 43,31 L 44,32 L 44,33 L 49,33 L 50,34 L 51,34 L 52,35 L 54,35 L 55,36 L 56,36 L 57,37 L 58,37 L 59,36 L 68,45 L 69,45 L 69,44 L 70,43 L 70,42 L 71,41 L 72,41 L 73,40 L 75,40 L 75,39 L 77,37 L 80,37 L 81,36 L 81,31 L 83,29 L 83,28 L 87,24 L 88,24 L 90,22 L 92,22 L 93,21 L 93,20 L 94,19 L 94,17 L 95,16 L 95,15 L 94,15 L 93,14 L 92,14 L 91,13 Z" fill="none" stroke="black" stroke-width="1"/>
</svg>