<svg xmlns="http://www.w3.org/2000/svg" width="69" height="58">
  <path d="M 24,11 L 23,12 L 22,12 L 21,13 L 20,13 L 19,14 L 12,14 L 11,13 L 7,17 L 2,17 L 0,19 L 0,24 L 4,24 L 5,23 L 13,23 L 13,22 L 15,20 L 16,21 L 17,20 L 18,20 L 19,19 L 20,19 L 21,20 L 19,22 L 18,22 L 17,23 L 15,23 L 18,23 L 19,22 L 22,22 L 23,23 L 29,23 L 30,24 L 32,24 L 37,19 L 37,18 L 38,17 L 38,16 L 37,15 L 39,13 L 40,13 L 40,12 L 39,11 L 36,11 L 35,12 L 32,12 L 31,11 Z" fill="none" stroke="black" stroke-width="1"/>
</svg>