<svg xmlns="http://www.w3.org/2000/svg" width="75" height="83">
  <path d="M 53,22 L 52,23 L 51,23 L 50,24 L 49,24 L 47,26 L 46,26 L 45,27 L 44,27 L 42,29 L 42,32 L 43,32 L 44,33 L 41,36 L 41,38 L 39,40 L 39,41 L 36,44 L 35,44 L 33,46 L 32,46 L 31,47 L 30,47 L 30,48 L 29,49 L 29,51 L 30,52 L 44,52 L 46,50 L 46,48 L 47,47 L 48,47 L 51,44 L 52,44 L 53,43 L 54,43 L 55,42 L 56,42 L 57,43 L 61,43 L 62,42 L 66,42 L 67,41 L 69,41 L 72,38 L 72,36 L 71,35 L 71,28 L 70,27 L 68,27 L 65,24 L 64,24 L 63,23 L 62,23 L 61,22 Z" fill="none" stroke="black" stroke-width="1"/>
</svg>