<svg xmlns="http://www.w3.org/2000/svg" width="75" height="83">
  <path d="M 24,21 L 23,22 L 23,23 L 18,28 L 18,29 L 16,31 L 16,39 L 15,40 L 14,40 L 13,41 L 12,41 L 11,42 L 10,42 L 5,47 L 5,48 L 4,49 L 3,49 L 3,50 L 1,52 L 1,53 L 0,54 L 0,59 L 1,60 L 1,62 L 2,63 L 3,63 L 6,60 L 7,60 L 7,59 L 8,58 L 9,58 L 9,57 L 13,53 L 15,53 L 21,47 L 27,47 L 28,48 L 29,48 L 29,47 L 30,46 L 31,46 L 32,45 L 33,45 L 35,43 L 36,43 L 38,41 L 38,40 L 40,38 L 40,36 L 43,33 L 42,33 L 41,32 L 41,30 L 40,29 L 40,28 L 37,25 L 36,25 L 35,24 L 33,24 L 32,23 L 30,23 L 29,22 L 28,22 L 27,21 Z" fill="none" stroke="black" stroke-width="1"/>
</svg>