<svg xmlns="http://www.w3.org/2000/svg" width="76" height="38">
  <path d="M 16,14 L 14,16 L 11,16 L 5,22 L 5,23 L 4,24 L 1,24 L 1,30 L 0,31 L 0,32 L 3,32 L 4,31 L 8,31 L 9,30 L 13,30 L 14,31 L 9,36 L 13,36 L 14,35 L 15,35 L 16,34 L 21,34 L 23,36 L 24,36 L 25,35 L 26,35 L 27,34 L 28,35 L 28,36 L 29,37 L 30,37 L 31,36 L 32,36 L 33,35 L 33,34 L 32,33 L 32,31 L 30,29 L 29,29 L 26,26 L 26,25 L 24,23 L 24,20 L 25,19 L 25,18 L 26,17 L 21,17 L 20,16 L 19,16 L 18,15 L 18,14 Z" fill="none" stroke="black" stroke-width="1"/>
  <path d="M 23,10 L 23,11 L 26,11 L 26,10 Z" fill="none" stroke="black" stroke-width="1"/>
</svg>