<svg xmlns="http://www.w3.org/2000/svg" width="89" height="60">
  <path d="M 13,0 L 12,1 L 11,1 L 10,2 L 7,2 L 10,5 L 9,6 L 8,6 L 8,7 L 11,7 L 12,8 L 12,9 L 11,10 L 10,10 L 9,11 L 10,11 L 11,10 L 14,10 L 15,11 L 16,11 L 17,12 L 18,12 L 19,13 L 19,14 L 20,14 L 22,16 L 25,16 L 26,15 L 32,15 L 33,14 L 34,14 L 35,15 L 36,15 L 36,14 L 38,12 L 40,12 L 42,10 L 43,10 L 42,9 L 42,7 L 40,5 L 38,5 L 37,4 L 37,3 L 33,3 L 34,4 L 33,5 L 30,5 L 28,3 L 26,3 L 24,1 L 24,0 L 23,1 L 22,1 L 21,2 L 20,2 L 18,0 Z" fill="none" stroke="black" stroke-width="1"/>
</svg>