<svg xmlns="http://www.w3.org/2000/svg" width="89" height="60">
  <path d="M 77,37 L 76,38 L 73,38 L 70,41 L 68,41 L 67,40 L 64,40 L 63,39 L 60,39 L 58,41 L 57,41 L 57,43 L 54,46 L 53,46 L 52,47 L 52,50 L 51,51 L 51,55 L 50,56 L 50,58 L 52,58 L 53,59 L 54,59 L 55,58 L 57,58 L 58,57 L 60,57 L 61,56 L 63,56 L 64,57 L 65,57 L 65,54 L 66,53 L 66,48 L 67,47 L 67,46 L 68,45 L 71,45 L 72,46 L 77,46 L 78,47 L 80,47 L 81,48 L 82,48 L 83,49 L 85,49 L 86,48 L 86,46 L 88,44 L 88,42 L 87,41 L 87,40 L 86,39 L 85,39 L 84,38 L 81,38 L 80,37 Z" fill="none" stroke="black" stroke-width="1"/>
</svg>