<svg xmlns="http://www.w3.org/2000/svg" width="115" height="33">
  <path d="M 24,6 L 23,7 L 22,7 L 20,9 L 18,9 L 17,10 L 16,10 L 14,12 L 12,12 L 11,13 L 10,13 L 8,15 L 8,16 L 6,18 L 4,18 L 3,19 L 1,19 L 1,23 L 0,24 L 0,25 L 1,26 L 1,28 L 0,29 L 0,30 L 2,32 L 3,31 L 5,31 L 6,32 L 15,32 L 16,31 L 17,31 L 18,30 L 20,30 L 23,27 L 28,27 L 28,26 L 29,25 L 31,25 L 32,24 L 31,23 L 31,20 L 30,19 L 29,19 L 28,18 L 28,16 L 27,15 L 27,12 L 29,10 L 29,9 L 28,8 L 28,7 L 27,6 Z" fill="none" stroke="black" stroke-width="1"/>
</svg>