<svg xmlns="http://www.w3.org/2000/svg" width="84" height="45">
  <path d="M 16,11 L 15,12 L 14,12 L 12,14 L 11,14 L 11,16 L 12,16 L 13,17 L 13,21 L 15,23 L 16,23 L 17,24 L 17,25 L 18,25 L 19,26 L 19,27 L 20,28 L 20,29 L 21,29 L 22,30 L 23,30 L 25,32 L 25,33 L 26,34 L 26,35 L 28,35 L 29,36 L 30,36 L 31,37 L 31,38 L 32,37 L 33,37 L 34,36 L 35,36 L 36,35 L 40,35 L 42,33 L 44,33 L 44,30 L 43,29 L 43,23 L 45,21 L 46,21 L 46,20 L 47,19 L 47,18 L 46,17 L 45,17 L 44,16 L 43,16 L 42,15 L 40,17 L 39,17 L 38,18 L 34,18 L 32,16 L 30,16 L 29,15 L 27,15 L 26,14 L 23,14 L 22,15 L 20,15 L 19,14 L 19,13 L 18,13 L 17,12 L 17,11 Z" fill="none" stroke="black" stroke-width="1"/>
</svg>