<svg xmlns="http://www.w3.org/2000/svg" width="69" height="130">
  <path d="M 22,90 L 20,92 L 17,92 L 16,93 L 13,93 L 13,94 L 12,95 L 10,95 L 9,94 L 8,94 L 7,93 L 6,94 L 6,95 L 7,96 L 6,97 L 6,102 L 7,102 L 7,99 L 6,98 L 7,97 L 8,97 L 9,98 L 9,99 L 11,99 L 11,98 L 12,97 L 14,99 L 15,98 L 16,98 L 13,95 L 14,94 L 16,94 L 18,96 L 19,96 L 20,97 L 19,98 L 20,99 L 21,98 L 24,98 L 25,99 L 24,100 L 22,100 L 18,104 L 17,104 L 18,105 L 23,105 L 24,104 L 27,104 L 28,105 L 27,106 L 26,106 L 25,107 L 22,107 L 21,108 L 20,108 L 22,110 L 21,111 L 20,111 L 18,109 L 18,108 L 17,108 L 16,107 L 15,108 L 14,107 L 13,107 L 12,106 L 12,110 L 11,111 L 11,113 L 12,114 L 12,115 L 13,116 L 14,116 L 16,118 L 17,118 L 20,121 L 21,121 L 22,122 L 23,122 L 24,123 L 27,123 L 28,122 L 28,121 L 29,120 L 29,119 L 30,118 L 30,115 L 29,114 L 29,113 L 30,112 L 29,111 L 29,109 L 32,106 L 32,105 L 34,103 L 34,102 L 33,102 L 31,100 L 31,99 L 30,99 L 29,98 L 29,93 L 30,92 L 27,92 L 26,91 L 25,91 L 24,90 Z" fill="none" stroke="black" stroke-width="1"/>
</svg>