<svg xmlns="http://www.w3.org/2000/svg" width="80" height="48">
  <path d="M 69,4 L 68,5 L 67,5 L 66,6 L 65,6 L 63,8 L 62,8 L 61,9 L 58,9 L 58,10 L 57,11 L 56,11 L 55,10 L 52,10 L 51,9 L 50,9 L 49,10 L 48,10 L 48,11 L 50,13 L 50,14 L 49,15 L 49,16 L 50,17 L 50,18 L 49,19 L 49,20 L 46,23 L 46,25 L 47,26 L 47,27 L 48,27 L 49,28 L 49,29 L 50,30 L 50,32 L 55,32 L 56,33 L 57,33 L 59,31 L 59,30 L 60,29 L 60,28 L 62,26 L 63,26 L 64,25 L 66,25 L 67,24 L 69,24 L 71,22 L 72,22 L 73,21 L 73,18 L 74,17 L 74,16 L 75,15 L 75,14 L 79,10 L 78,9 L 78,6 L 77,6 L 76,5 L 76,4 Z" fill="none" stroke="black" stroke-width="1"/>
</svg>