<svg xmlns="http://www.w3.org/2000/svg" width="115" height="33">
  <path d="M 77,7 L 77,8 L 78,9 L 78,12 L 77,13 L 77,21 L 81,21 L 81,20 L 82,19 L 84,19 L 87,22 L 89,22 L 90,21 L 91,21 L 93,23 L 95,23 L 96,24 L 97,24 L 99,26 L 100,26 L 101,27 L 102,27 L 103,28 L 105,28 L 106,27 L 110,27 L 111,28 L 111,29 L 112,29 L 113,30 L 113,31 L 114,32 L 114,30 L 112,28 L 112,27 L 113,26 L 113,22 L 114,21 L 112,21 L 111,20 L 108,20 L 107,19 L 107,18 L 105,18 L 104,19 L 102,19 L 101,18 L 100,18 L 99,17 L 96,17 L 95,16 L 95,15 L 94,14 L 93,14 L 92,13 L 90,13 L 88,15 L 85,15 L 81,11 L 81,10 L 80,9 L 80,7 Z" fill="none" stroke="black" stroke-width="1"/>
</svg>