<svg xmlns="http://www.w3.org/2000/svg" width="69" height="58">
  <path d="M 12,26 L 11,27 L 9,27 L 8,28 L 8,30 L 9,31 L 9,35 L 8,36 L 7,36 L 6,37 L 5,37 L 5,39 L 6,40 L 7,40 L 9,42 L 9,43 L 11,43 L 12,44 L 12,49 L 11,50 L 11,51 L 10,52 L 9,52 L 9,53 L 10,54 L 11,54 L 14,57 L 15,57 L 15,56 L 16,55 L 17,55 L 18,54 L 20,54 L 21,53 L 25,53 L 26,52 L 29,52 L 30,51 L 31,51 L 32,50 L 33,50 L 33,49 L 34,48 L 34,47 L 33,46 L 33,42 L 32,41 L 32,38 L 34,36 L 35,36 L 36,35 L 38,35 L 39,34 L 39,32 L 38,31 L 36,31 L 35,30 L 36,29 L 35,29 L 34,28 L 34,27 L 32,27 L 31,26 L 22,26 L 21,27 L 18,27 L 17,26 Z" fill="none" stroke="black" stroke-width="1"/>
</svg>