<svg xmlns="http://www.w3.org/2000/svg" width="81" height="51">
  <path d="M 22,0 L 21,1 L 20,1 L 19,2 L 19,5 L 20,6 L 20,10 L 21,11 L 21,12 L 20,13 L 20,14 L 22,16 L 25,16 L 26,17 L 26,20 L 28,22 L 28,23 L 29,23 L 30,24 L 31,24 L 33,26 L 35,26 L 36,25 L 37,26 L 39,24 L 39,22 L 38,21 L 38,17 L 40,15 L 40,13 L 42,11 L 43,11 L 44,12 L 45,12 L 47,10 L 51,10 L 54,13 L 56,13 L 57,12 L 58,13 L 62,13 L 63,12 L 63,11 L 62,11 L 61,10 L 62,9 L 61,8 L 60,8 L 59,9 L 58,9 L 56,7 L 56,4 L 54,2 L 50,2 L 47,5 L 41,5 L 40,4 L 39,4 L 37,2 L 34,2 L 32,0 L 31,0 L 30,1 L 29,0 L 28,1 L 25,1 L 24,0 Z" fill="none" stroke="black" stroke-width="1"/>
</svg>