<svg xmlns="http://www.w3.org/2000/svg" width="64" height="58">
  <path d="M 45,32 L 45,33 L 44,34 L 41,34 L 39,36 L 36,36 L 35,37 L 32,37 L 31,38 L 29,38 L 29,42 L 30,43 L 30,44 L 31,45 L 31,46 L 33,48 L 33,51 L 34,51 L 35,52 L 35,57 L 37,57 L 38,56 L 39,56 L 42,53 L 43,53 L 46,50 L 50,50 L 51,49 L 55,49 L 56,50 L 57,50 L 60,47 L 60,46 L 61,45 L 61,43 L 62,42 L 62,38 L 63,37 L 63,36 L 62,35 L 61,35 L 59,33 L 57,33 L 56,32 L 54,32 L 53,33 L 49,33 L 48,32 Z" fill="none" stroke="black" stroke-width="1"/>
</svg>