<svg xmlns="http://www.w3.org/2000/svg" width="91" height="62">
  <path d="M 49,17 L 49,18 L 47,20 L 43,20 L 42,21 L 42,23 L 41,24 L 41,25 L 42,25 L 44,27 L 44,31 L 45,31 L 49,35 L 50,35 L 51,34 L 52,35 L 53,35 L 54,36 L 54,37 L 55,38 L 55,39 L 56,40 L 56,41 L 57,42 L 58,42 L 59,43 L 63,43 L 64,42 L 65,42 L 66,43 L 66,40 L 67,39 L 67,38 L 68,37 L 69,37 L 71,35 L 72,35 L 72,34 L 71,33 L 71,32 L 72,31 L 72,30 L 73,29 L 73,28 L 70,25 L 69,25 L 66,22 L 66,20 L 64,18 L 59,18 L 58,19 L 56,19 L 55,18 L 55,17 Z" fill="none" stroke="black" stroke-width="1"/>
</svg>