<svg xmlns="http://www.w3.org/2000/svg" width="94" height="66">
  <path d="M 28,0 L 27,1 L 26,1 L 25,2 L 24,2 L 22,4 L 21,4 L 21,5 L 20,6 L 20,10 L 21,11 L 22,10 L 23,10 L 26,13 L 26,14 L 28,16 L 28,19 L 29,20 L 29,22 L 31,24 L 31,26 L 32,26 L 33,25 L 34,25 L 39,30 L 40,30 L 40,29 L 41,28 L 43,28 L 44,27 L 45,27 L 46,26 L 48,26 L 49,25 L 51,25 L 52,26 L 53,26 L 54,27 L 54,25 L 56,23 L 56,22 L 57,21 L 57,20 L 56,20 L 55,19 L 55,18 L 53,18 L 52,17 L 52,16 L 51,15 L 51,14 L 49,14 L 47,12 L 46,12 L 41,7 L 41,5 L 38,2 L 38,1 L 37,1 L 35,3 L 34,3 L 32,1 L 31,1 L 30,0 Z" fill="none" stroke="black" stroke-width="1"/>
</svg>