<svg xmlns="http://www.w3.org/2000/svg" width="73" height="57">
  <path d="M 8,7 L 9,8 L 9,10 L 7,12 L 6,12 L 5,13 L 5,14 L 4,15 L 2,15 L 1,16 L 0,16 L 0,18 L 1,19 L 1,20 L 2,21 L 2,22 L 3,22 L 6,25 L 8,25 L 9,26 L 9,27 L 12,30 L 13,30 L 14,31 L 15,31 L 16,32 L 24,32 L 25,33 L 27,33 L 28,34 L 30,34 L 31,35 L 32,35 L 32,30 L 33,29 L 35,29 L 35,28 L 36,27 L 37,27 L 38,26 L 38,25 L 37,24 L 35,24 L 34,23 L 33,23 L 31,21 L 30,21 L 29,20 L 25,20 L 23,18 L 23,17 L 21,17 L 20,16 L 19,16 L 16,13 L 16,11 L 12,7 Z" fill="none" stroke="black" stroke-width="1"/>
</svg>