<svg xmlns="http://www.w3.org/2000/svg" width="73" height="57">
  <path d="M 21,0 L 19,2 L 19,3 L 17,5 L 16,5 L 16,6 L 14,8 L 17,11 L 17,13 L 19,15 L 20,15 L 21,16 L 23,16 L 24,17 L 24,18 L 25,19 L 29,19 L 30,20 L 31,20 L 33,22 L 34,22 L 35,23 L 37,23 L 38,24 L 39,24 L 41,22 L 42,22 L 43,21 L 44,21 L 44,20 L 46,18 L 46,15 L 48,13 L 49,13 L 49,12 L 48,12 L 46,10 L 46,7 L 44,7 L 43,6 L 40,6 L 37,3 L 34,3 L 32,5 L 30,5 L 29,4 L 26,4 L 25,3 L 25,1 L 22,1 Z" fill="none" stroke="black" stroke-width="1"/>
</svg>