<svg xmlns="http://www.w3.org/2000/svg" width="91" height="62">
  <path d="M 41,30 L 40,31 L 39,31 L 40,32 L 39,33 L 38,33 L 38,34 L 37,35 L 36,35 L 34,37 L 32,37 L 31,38 L 29,38 L 29,40 L 30,41 L 30,42 L 31,43 L 31,46 L 30,47 L 32,49 L 32,54 L 34,56 L 36,56 L 38,58 L 39,58 L 40,59 L 40,60 L 42,60 L 43,61 L 46,61 L 47,60 L 48,60 L 51,57 L 51,56 L 52,55 L 53,55 L 52,54 L 52,53 L 53,52 L 53,51 L 55,49 L 53,47 L 53,45 L 54,44 L 55,44 L 55,43 L 56,42 L 55,41 L 55,40 L 54,39 L 54,38 L 53,37 L 53,36 L 52,36 L 51,35 L 50,36 L 49,36 L 45,32 L 44,32 L 43,31 L 43,30 Z" fill="none" stroke="black" stroke-width="1"/>
</svg>