<svg xmlns="http://www.w3.org/2000/svg" width="64" height="116">
  <path d="M 14,0 L 13,1 L 12,1 L 11,2 L 10,2 L 10,4 L 8,6 L 7,6 L 7,7 L 5,9 L 4,9 L 3,10 L 2,10 L 1,11 L 1,13 L 2,13 L 4,15 L 4,16 L 2,18 L 2,19 L 0,21 L 0,24 L 2,26 L 3,26 L 4,27 L 11,27 L 12,26 L 14,26 L 14,22 L 13,21 L 13,20 L 12,20 L 11,19 L 11,18 L 9,16 L 10,15 L 10,14 L 11,13 L 11,11 L 12,10 L 13,10 L 14,11 L 14,12 L 15,13 L 15,16 L 16,17 L 16,19 L 18,21 L 18,22 L 23,27 L 23,33 L 25,33 L 27,31 L 27,29 L 28,28 L 28,18 L 27,17 L 27,16 L 26,15 L 26,14 L 25,13 L 25,10 L 24,9 L 24,5 L 21,5 L 19,3 L 19,2 L 18,2 L 16,0 Z" fill="none" stroke="black" stroke-width="1"/>
</svg>