<svg xmlns="http://www.w3.org/2000/svg" width="64" height="116">
  <path d="M 12,27 L 11,28 L 10,28 L 11,29 L 11,32 L 12,33 L 12,34 L 15,37 L 15,38 L 19,42 L 19,44 L 21,46 L 21,48 L 22,49 L 22,51 L 23,52 L 22,53 L 22,55 L 23,56 L 23,58 L 26,61 L 24,63 L 25,64 L 25,67 L 24,68 L 24,69 L 25,70 L 27,70 L 28,71 L 28,70 L 29,69 L 30,69 L 33,66 L 34,66 L 35,65 L 35,63 L 33,61 L 33,60 L 32,59 L 33,58 L 32,57 L 31,57 L 30,56 L 30,54 L 28,52 L 28,51 L 27,50 L 27,48 L 28,47 L 29,47 L 28,46 L 28,45 L 27,44 L 26,44 L 22,40 L 22,39 L 20,37 L 20,36 L 17,33 L 17,31 L 16,30 L 15,30 L 14,29 L 14,27 Z" fill="none" stroke="black" stroke-width="1"/>
</svg>