<svg xmlns="http://www.w3.org/2000/svg" width="64" height="116">
  <path d="M 33,67 L 30,70 L 29,70 L 29,71 L 28,72 L 27,72 L 27,74 L 31,78 L 31,81 L 32,82 L 32,83 L 36,87 L 36,89 L 37,90 L 37,91 L 38,91 L 39,92 L 39,93 L 41,95 L 41,96 L 44,99 L 44,104 L 45,105 L 45,107 L 46,107 L 47,108 L 47,109 L 48,110 L 49,110 L 50,111 L 50,112 L 53,115 L 54,115 L 54,114 L 55,113 L 58,113 L 59,112 L 60,113 L 62,113 L 63,114 L 63,113 L 61,111 L 60,111 L 56,107 L 56,106 L 55,106 L 53,104 L 53,101 L 52,100 L 52,99 L 51,98 L 51,97 L 50,96 L 50,95 L 49,94 L 49,93 L 47,91 L 47,90 L 46,89 L 46,87 L 45,86 L 45,85 L 44,84 L 44,83 L 41,80 L 41,78 L 39,76 L 39,75 L 38,74 L 38,72 L 36,70 L 36,69 L 34,67 Z" fill="none" stroke="black" stroke-width="1"/>
</svg>