<svg xmlns="http://www.w3.org/2000/svg" width="94" height="57">
  <path d="M 21,15 L 20,16 L 20,17 L 18,19 L 17,19 L 17,20 L 16,21 L 13,21 L 12,20 L 12,21 L 11,22 L 11,23 L 8,26 L 7,26 L 6,27 L 6,28 L 4,30 L 4,31 L 2,33 L 2,34 L 1,35 L 1,37 L 0,38 L 0,42 L 1,42 L 2,43 L 6,43 L 7,44 L 9,44 L 10,45 L 12,45 L 13,46 L 15,46 L 16,47 L 18,47 L 19,48 L 22,48 L 23,49 L 25,49 L 26,50 L 35,50 L 35,48 L 36,47 L 36,45 L 37,44 L 37,43 L 38,42 L 38,41 L 40,39 L 40,38 L 42,36 L 42,35 L 48,29 L 48,28 L 49,27 L 49,25 L 48,24 L 47,24 L 46,23 L 45,23 L 44,22 L 42,22 L 41,21 L 39,21 L 38,20 L 36,20 L 35,19 L 33,19 L 32,18 L 29,18 L 28,17 L 26,17 L 25,16 L 23,16 L 22,15 Z" fill="none" stroke="black" stroke-width="1"/>
</svg>