<svg xmlns="http://www.w3.org/2000/svg" width="94" height="57">
  <path d="M 60,13 L 59,14 L 59,16 L 56,19 L 56,21 L 51,26 L 50,26 L 50,27 L 49,28 L 49,29 L 43,35 L 43,36 L 41,38 L 41,39 L 39,41 L 39,42 L 38,43 L 38,44 L 37,45 L 37,47 L 36,48 L 36,50 L 37,51 L 37,52 L 38,53 L 38,56 L 41,56 L 42,55 L 43,55 L 44,56 L 48,56 L 49,55 L 50,55 L 51,54 L 53,54 L 54,53 L 57,53 L 58,52 L 63,52 L 64,51 L 65,51 L 66,50 L 78,50 L 79,51 L 91,51 L 93,49 L 93,43 L 92,42 L 92,40 L 91,39 L 91,33 L 90,32 L 90,31 L 86,27 L 85,27 L 83,25 L 82,25 L 80,23 L 79,23 L 77,21 L 77,20 L 76,19 L 76,17 L 75,16 L 75,15 L 68,15 L 67,16 L 65,16 L 63,14 L 62,14 L 61,13 Z" fill="none" stroke="black" stroke-width="1"/>
</svg>