<svg xmlns="http://www.w3.org/2000/svg" width="78" height="156">
  <path d="M 6,0 L 6,1 L 5,2 L 4,2 L 4,3 L 2,5 L 1,5 L 1,7 L 2,8 L 2,10 L 3,11 L 3,12 L 4,13 L 4,16 L 6,18 L 4,20 L 3,20 L 2,19 L 1,19 L 1,21 L 0,22 L 1,23 L 1,24 L 2,25 L 2,27 L 3,28 L 3,29 L 4,30 L 5,30 L 7,32 L 8,32 L 10,34 L 11,34 L 16,39 L 16,40 L 17,41 L 17,42 L 19,42 L 20,43 L 22,43 L 23,44 L 25,44 L 26,45 L 32,45 L 33,46 L 34,46 L 35,45 L 37,47 L 37,48 L 38,48 L 37,47 L 37,46 L 36,45 L 35,45 L 34,44 L 34,43 L 33,42 L 33,41 L 32,40 L 32,38 L 31,37 L 31,30 L 30,30 L 28,28 L 27,28 L 26,27 L 25,27 L 24,26 L 24,25 L 22,23 L 22,22 L 21,21 L 18,21 L 17,20 L 16,20 L 13,17 L 13,16 L 12,15 L 12,13 L 11,12 L 11,11 L 10,10 L 10,7 L 9,6 L 10,5 L 10,3 L 9,2 L 9,0 Z" fill="none" stroke="black" stroke-width="1"/>
</svg>