<svg xmlns="http://www.w3.org/2000/svg" width="137" height="63">
  <path d="M 106,25 L 106,27 L 105,28 L 105,32 L 104,33 L 104,34 L 103,35 L 103,37 L 101,39 L 101,40 L 100,41 L 100,43 L 101,42 L 102,42 L 103,41 L 105,43 L 105,42 L 106,41 L 108,41 L 108,40 L 110,38 L 113,38 L 113,37 L 114,36 L 120,36 L 121,37 L 127,37 L 128,38 L 130,38 L 131,39 L 134,39 L 134,38 L 136,36 L 136,35 L 135,34 L 135,33 L 132,33 L 131,32 L 131,31 L 125,31 L 123,29 L 123,28 L 120,28 L 119,27 L 115,27 L 114,26 L 109,26 L 108,25 Z" fill="none" stroke="black" stroke-width="1"/>
</svg>