<svg xmlns="http://www.w3.org/2000/svg" width="137" height="63">
  <path d="M 82,16 L 81,17 L 72,17 L 72,18 L 71,19 L 71,22 L 70,23 L 70,24 L 69,25 L 69,26 L 68,27 L 69,27 L 70,28 L 70,30 L 72,32 L 72,34 L 75,34 L 76,35 L 77,35 L 78,36 L 78,38 L 79,39 L 79,40 L 81,42 L 82,42 L 82,41 L 84,39 L 84,38 L 85,37 L 89,37 L 91,39 L 92,39 L 93,40 L 93,41 L 96,44 L 99,44 L 99,41 L 100,40 L 100,39 L 102,37 L 102,35 L 103,34 L 103,33 L 104,32 L 104,28 L 105,27 L 105,25 L 104,24 L 97,24 L 96,25 L 93,25 L 92,26 L 91,26 L 90,25 L 89,25 L 88,24 L 88,22 L 86,20 L 86,18 L 85,17 L 83,17 Z" fill="none" stroke="black" stroke-width="1"/>
</svg>