<svg xmlns="http://www.w3.org/2000/svg" width="36" height="61">
  <path d="M 20,25 L 19,26 L 18,26 L 17,27 L 16,27 L 16,29 L 14,31 L 14,34 L 13,35 L 12,35 L 12,36 L 11,37 L 7,37 L 5,39 L 3,39 L 2,40 L 2,44 L 4,46 L 4,49 L 6,51 L 6,56 L 7,57 L 7,60 L 13,60 L 15,58 L 16,58 L 20,54 L 20,53 L 21,52 L 21,51 L 24,48 L 27,48 L 28,47 L 33,47 L 33,46 L 35,44 L 35,41 L 34,40 L 33,40 L 32,39 L 32,37 L 31,36 L 31,35 L 29,35 L 26,32 L 27,31 L 26,30 L 26,29 L 25,28 L 25,26 L 24,25 Z" fill="none" stroke="black" stroke-width="1"/>
</svg>