<svg xmlns="http://www.w3.org/2000/svg" width="90" height="101">
  <path d="M 55,39 L 54,40 L 53,40 L 51,42 L 50,42 L 49,43 L 48,43 L 49,44 L 49,46 L 48,47 L 48,51 L 46,53 L 46,54 L 45,55 L 45,56 L 44,57 L 42,57 L 41,58 L 39,58 L 38,59 L 36,59 L 36,60 L 37,60 L 40,63 L 40,69 L 44,73 L 44,74 L 45,75 L 46,75 L 47,76 L 47,77 L 52,82 L 53,82 L 54,83 L 55,82 L 55,81 L 57,79 L 58,79 L 59,78 L 61,78 L 66,73 L 66,72 L 69,69 L 76,69 L 77,68 L 80,68 L 81,69 L 82,69 L 82,68 L 84,66 L 84,65 L 86,63 L 87,63 L 89,61 L 89,59 L 86,56 L 85,56 L 83,54 L 83,52 L 82,51 L 82,50 L 81,49 L 81,48 L 80,48 L 77,45 L 75,45 L 74,44 L 73,44 L 72,43 L 71,43 L 70,42 L 63,42 L 62,41 L 61,41 L 60,40 L 57,40 L 56,39 Z" fill="none" stroke="black" stroke-width="1"/>
</svg>