<svg xmlns="http://www.w3.org/2000/svg" width="76" height="79">
  <path d="M 12,26 L 6,32 L 3,32 L 2,33 L 0,33 L 2,35 L 2,36 L 4,38 L 4,40 L 5,41 L 6,41 L 7,40 L 8,41 L 9,41 L 11,43 L 12,43 L 14,45 L 15,45 L 19,49 L 19,50 L 20,51 L 20,52 L 23,55 L 23,58 L 24,59 L 24,60 L 25,61 L 25,62 L 26,63 L 26,65 L 28,67 L 28,69 L 29,70 L 29,75 L 31,75 L 32,76 L 33,76 L 35,78 L 37,78 L 36,77 L 36,75 L 37,74 L 37,71 L 36,70 L 36,68 L 40,64 L 41,64 L 41,63 L 42,62 L 44,62 L 44,60 L 43,59 L 43,51 L 42,50 L 42,49 L 41,49 L 39,47 L 38,47 L 31,40 L 31,39 L 30,39 L 27,36 L 27,35 L 26,34 L 26,33 L 25,32 L 25,31 L 24,30 L 24,27 L 22,27 L 22,28 L 21,29 L 18,29 L 17,28 L 16,28 L 15,27 L 13,27 Z" fill="none" stroke="black" stroke-width="1"/>
</svg>