<svg xmlns="http://www.w3.org/2000/svg" width="76" height="79">
  <path d="M 58,18 L 56,20 L 54,20 L 53,21 L 51,21 L 50,22 L 49,22 L 48,23 L 48,24 L 49,25 L 49,27 L 50,28 L 51,28 L 52,27 L 53,28 L 53,29 L 54,30 L 53,31 L 53,35 L 54,35 L 55,36 L 55,37 L 54,38 L 54,39 L 52,41 L 52,42 L 50,44 L 49,44 L 48,45 L 47,45 L 46,46 L 46,47 L 45,48 L 43,48 L 43,50 L 44,51 L 44,59 L 45,60 L 45,62 L 46,63 L 47,63 L 48,64 L 48,65 L 49,66 L 49,67 L 50,67 L 51,68 L 53,68 L 56,65 L 57,65 L 58,64 L 59,64 L 61,62 L 62,62 L 64,60 L 65,60 L 65,59 L 63,57 L 63,55 L 64,54 L 65,54 L 66,53 L 67,53 L 67,52 L 69,50 L 70,50 L 72,48 L 73,48 L 74,47 L 74,46 L 75,45 L 74,44 L 74,41 L 73,40 L 73,37 L 74,36 L 74,35 L 73,34 L 73,32 L 70,29 L 69,29 L 68,28 L 68,27 L 69,26 L 69,24 L 68,24 L 67,25 L 63,25 L 62,24 L 62,23 L 60,21 L 60,20 Z" fill="none" stroke="black" stroke-width="1"/>
</svg>