<svg xmlns="http://www.w3.org/2000/svg" width="77" height="34">
  <path d="M 67,19 L 66,20 L 65,20 L 67,20 L 68,21 L 70,21 L 71,20 L 71,19 Z" fill="none" stroke="black" stroke-width="1"/>
  <path d="M 57,0 L 55,2 L 55,3 L 54,4 L 54,6 L 58,10 L 58,11 L 59,11 L 60,12 L 60,13 L 61,14 L 61,16 L 60,17 L 60,19 L 61,19 L 62,18 L 65,18 L 66,17 L 70,17 L 71,16 L 73,16 L 73,13 L 75,11 L 76,11 L 76,10 L 75,9 L 76,8 L 76,5 L 70,5 L 69,4 L 68,4 L 67,5 L 66,5 L 63,2 L 63,1 L 62,1 L 61,0 Z" fill="none" stroke="black" stroke-width="1"/>
</svg>