<svg xmlns="http://www.w3.org/2000/svg" width="69" height="88">
  <path d="M 0,27 L 0,33 L 1,34 L 1,36 L 2,37 L 2,44 L 3,45 L 3,46 L 4,47 L 4,48 L 5,49 L 6,49 L 7,50 L 6,51 L 7,51 L 8,52 L 8,53 L 9,54 L 9,55 L 11,57 L 12,57 L 13,58 L 16,58 L 17,59 L 19,57 L 22,57 L 24,55 L 26,55 L 28,57 L 30,57 L 31,56 L 32,56 L 33,55 L 35,55 L 35,53 L 34,52 L 34,49 L 32,47 L 32,46 L 34,44 L 34,42 L 33,43 L 32,42 L 29,42 L 27,40 L 24,43 L 23,43 L 23,44 L 22,45 L 20,45 L 19,44 L 19,43 L 15,43 L 14,42 L 13,42 L 12,43 L 11,42 L 11,41 L 8,38 L 8,35 L 9,34 L 8,33 L 8,31 L 9,30 L 7,30 L 5,28 L 4,28 L 3,27 Z" fill="none" stroke="black" stroke-width="1"/>
</svg>