<svg xmlns="http://www.w3.org/2000/svg" width="69" height="88">
  <path d="M 48,37 L 47,38 L 46,38 L 45,39 L 44,39 L 43,40 L 37,40 L 36,41 L 35,41 L 35,44 L 33,46 L 33,47 L 35,49 L 35,52 L 36,53 L 36,55 L 41,60 L 41,61 L 44,64 L 44,65 L 45,65 L 46,66 L 50,66 L 51,67 L 51,66 L 53,64 L 53,63 L 55,61 L 56,61 L 57,60 L 58,60 L 59,59 L 60,59 L 62,57 L 62,56 L 63,55 L 63,54 L 66,51 L 65,50 L 65,48 L 67,46 L 68,46 L 68,45 L 67,44 L 67,41 L 65,41 L 64,40 L 60,40 L 59,39 L 59,38 L 58,37 L 58,38 L 57,39 L 55,39 L 54,38 L 53,38 L 52,37 Z" fill="none" stroke="black" stroke-width="1"/>
</svg>