<svg xmlns="http://www.w3.org/2000/svg" width="95" height="66">
  <path d="M 14,35 L 13,36 L 12,36 L 11,37 L 10,37 L 9,38 L 6,38 L 5,39 L 4,39 L 3,40 L 3,41 L 2,42 L 1,42 L 0,43 L 0,45 L 1,46 L 2,46 L 3,47 L 3,48 L 4,49 L 4,50 L 6,52 L 7,52 L 8,53 L 8,54 L 11,57 L 12,57 L 13,58 L 15,58 L 16,59 L 16,60 L 17,60 L 18,61 L 19,61 L 20,62 L 21,62 L 22,61 L 23,61 L 26,58 L 27,58 L 27,57 L 28,56 L 28,52 L 30,50 L 30,45 L 31,44 L 31,43 L 30,42 L 30,40 L 29,40 L 28,41 L 25,41 L 24,40 L 21,40 L 20,39 L 21,38 L 20,37 L 20,36 L 17,36 L 16,35 Z" fill="none" stroke="black" stroke-width="1"/>
</svg>