<svg xmlns="http://www.w3.org/2000/svg" width="131" height="101">
  <path d="M 7,62 L 5,64 L 4,64 L 3,65 L 3,67 L 4,68 L 1,71 L 1,72 L 0,73 L 0,74 L 1,74 L 4,77 L 4,81 L 5,82 L 6,82 L 9,85 L 10,85 L 11,84 L 16,84 L 17,85 L 17,92 L 18,92 L 19,93 L 19,97 L 21,99 L 23,99 L 24,100 L 31,100 L 32,99 L 33,99 L 34,98 L 36,98 L 37,97 L 41,97 L 42,96 L 44,96 L 45,95 L 46,95 L 48,93 L 48,90 L 47,89 L 47,88 L 49,86 L 52,86 L 53,85 L 54,85 L 54,84 L 56,82 L 55,81 L 54,81 L 53,80 L 51,80 L 49,78 L 49,77 L 47,77 L 46,76 L 45,76 L 43,74 L 43,72 L 44,71 L 44,70 L 43,69 L 42,69 L 40,67 L 39,67 L 38,66 L 37,66 L 32,71 L 31,71 L 30,70 L 26,70 L 25,69 L 22,69 L 21,70 L 18,70 L 17,71 L 15,71 L 13,69 L 12,69 L 10,67 L 10,66 L 7,63 Z" fill="none" stroke="black" stroke-width="1"/>
</svg>