<svg xmlns="http://www.w3.org/2000/svg" width="131" height="101">
  <path d="M 55,32 L 53,34 L 52,34 L 52,36 L 50,38 L 50,40 L 47,43 L 47,44 L 46,45 L 46,46 L 44,48 L 44,56 L 40,60 L 39,60 L 37,62 L 36,62 L 37,63 L 37,65 L 38,65 L 39,66 L 40,66 L 42,68 L 43,68 L 45,70 L 45,71 L 44,72 L 44,74 L 45,75 L 46,75 L 47,76 L 49,76 L 50,77 L 50,78 L 51,79 L 53,79 L 54,80 L 55,80 L 56,81 L 57,81 L 58,80 L 59,80 L 59,78 L 58,78 L 57,77 L 57,74 L 58,73 L 58,71 L 59,70 L 59,66 L 61,64 L 62,64 L 63,63 L 63,62 L 64,61 L 64,60 L 63,59 L 63,58 L 62,57 L 62,53 L 66,49 L 66,45 L 67,44 L 67,42 L 68,41 L 68,39 L 69,38 L 69,36 L 65,36 L 62,33 L 59,33 L 58,32 Z" fill="none" stroke="black" stroke-width="1"/>
</svg>