<svg xmlns="http://www.w3.org/2000/svg" width="101" height="78">
  <path d="M 19,9 L 17,11 L 15,11 L 14,12 L 14,13 L 13,14 L 13,18 L 11,20 L 10,20 L 9,21 L 6,21 L 5,22 L 4,22 L 4,23 L 2,25 L 2,26 L 0,28 L 0,29 L 1,29 L 2,30 L 2,32 L 1,33 L 1,34 L 2,34 L 6,38 L 6,40 L 7,41 L 9,41 L 10,40 L 13,40 L 14,41 L 15,41 L 16,42 L 18,42 L 19,43 L 22,43 L 26,39 L 27,39 L 27,35 L 28,34 L 33,34 L 35,32 L 35,31 L 36,30 L 37,30 L 38,29 L 38,27 L 39,26 L 40,26 L 41,25 L 42,25 L 43,26 L 49,26 L 50,27 L 51,27 L 52,28 L 54,28 L 55,27 L 56,27 L 58,29 L 58,28 L 59,27 L 60,27 L 56,23 L 55,23 L 54,22 L 54,21 L 55,20 L 56,20 L 57,19 L 59,19 L 60,18 L 58,16 L 58,15 L 56,13 L 53,13 L 51,15 L 49,13 L 48,13 L 47,12 L 45,12 L 44,11 L 44,10 L 43,9 L 39,9 L 38,10 L 37,10 L 36,9 Z" fill="none" stroke="black" stroke-width="1"/>
</svg>