<svg xmlns="http://www.w3.org/2000/svg" width="166" height="119">
  <path d="M 128,51 L 128,52 L 124,56 L 124,59 L 123,60 L 123,61 L 122,62 L 121,62 L 119,64 L 118,64 L 117,65 L 116,65 L 114,67 L 110,67 L 109,68 L 109,69 L 110,70 L 110,71 L 111,71 L 112,72 L 112,74 L 111,75 L 111,77 L 112,77 L 114,79 L 114,81 L 118,85 L 118,86 L 119,87 L 117,89 L 116,89 L 116,90 L 119,93 L 119,95 L 118,96 L 119,96 L 121,98 L 121,99 L 123,99 L 124,100 L 125,100 L 127,102 L 129,100 L 132,100 L 135,103 L 135,104 L 137,106 L 139,106 L 141,104 L 141,100 L 143,98 L 146,98 L 148,96 L 148,95 L 149,94 L 150,94 L 150,93 L 151,92 L 152,92 L 152,91 L 155,88 L 157,88 L 158,87 L 159,88 L 159,89 L 161,89 L 162,88 L 164,88 L 165,89 L 165,83 L 164,83 L 163,82 L 163,81 L 161,79 L 162,78 L 162,75 L 158,71 L 158,69 L 159,68 L 159,67 L 161,65 L 162,65 L 163,64 L 163,57 L 161,55 L 161,54 L 160,53 L 157,53 L 155,55 L 151,55 L 150,54 L 147,54 L 146,53 L 136,53 L 135,52 L 133,52 L 132,51 Z" fill="none" stroke="black" stroke-width="1"/>
</svg>