<svg xmlns="http://www.w3.org/2000/svg" width="131" height="101">
  <path d="M 103,11 L 102,12 L 101,12 L 97,16 L 95,16 L 95,23 L 93,25 L 89,25 L 87,27 L 85,27 L 83,29 L 81,29 L 80,30 L 79,30 L 76,33 L 76,34 L 74,36 L 70,36 L 70,38 L 69,39 L 69,41 L 68,42 L 68,44 L 67,45 L 67,49 L 68,50 L 71,50 L 72,51 L 73,51 L 74,52 L 77,52 L 78,53 L 92,53 L 93,52 L 95,52 L 95,51 L 98,48 L 103,48 L 104,47 L 106,47 L 107,46 L 109,46 L 109,45 L 110,44 L 113,44 L 115,42 L 117,42 L 118,41 L 121,41 L 122,40 L 126,40 L 128,38 L 129,38 L 130,37 L 130,33 L 128,33 L 127,32 L 126,32 L 122,28 L 122,27 L 121,27 L 118,24 L 118,23 L 117,22 L 117,21 L 116,21 L 114,19 L 114,17 L 113,17 L 112,16 L 112,15 L 111,14 L 110,14 L 107,11 Z" fill="none" stroke="black" stroke-width="1"/>
</svg>