<svg xmlns="http://www.w3.org/2000/svg" width="74" height="103">
  <path d="M 3,0 L 3,2 L 2,3 L 2,6 L 1,7 L 1,9 L 0,10 L 0,12 L 1,12 L 3,14 L 3,15 L 5,17 L 5,24 L 6,25 L 7,25 L 9,27 L 11,27 L 12,28 L 14,28 L 15,29 L 16,29 L 17,30 L 22,30 L 24,28 L 25,28 L 25,26 L 24,25 L 24,23 L 23,22 L 23,21 L 22,20 L 22,18 L 20,16 L 20,15 L 19,14 L 19,13 L 18,12 L 18,10 L 17,9 L 17,8 L 15,8 L 14,9 L 12,7 L 16,3 L 18,3 L 18,2 L 17,1 L 17,0 L 16,1 L 5,1 L 4,0 Z" fill="none" stroke="black" stroke-width="1"/>
</svg>