<svg xmlns="http://www.w3.org/2000/svg" width="99" height="76">
  <path d="M 98,11 L 97,12 L 97,14 L 96,15 L 95,15 L 94,16 L 94,18 L 96,16 L 96,15 L 98,13 Z" fill="none" stroke="black" stroke-width="1"/>
  <path d="M 75,0 L 75,3 L 74,4 L 74,7 L 75,8 L 75,9 L 74,10 L 74,11 L 72,13 L 72,14 L 71,15 L 71,16 L 72,17 L 72,19 L 71,20 L 71,21 L 69,23 L 72,23 L 73,24 L 75,24 L 76,25 L 79,25 L 80,24 L 80,22 L 81,21 L 81,17 L 84,14 L 84,13 L 86,11 L 87,11 L 88,12 L 88,15 L 91,15 L 92,14 L 92,12 L 93,11 L 93,10 L 94,9 L 93,8 L 93,7 L 91,5 L 91,3 L 89,1 L 89,0 L 88,0 L 86,2 L 83,2 L 82,1 L 80,1 L 79,0 L 78,1 L 77,1 L 76,0 Z" fill="none" stroke="black" stroke-width="1"/>
</svg>