<svg xmlns="http://www.w3.org/2000/svg" width="99" height="76">
  <path d="M 68,23 L 67,24 L 64,24 L 62,26 L 61,26 L 60,27 L 60,28 L 59,29 L 58,29 L 56,31 L 55,30 L 52,30 L 51,31 L 51,33 L 49,35 L 50,36 L 50,39 L 49,40 L 48,40 L 48,41 L 47,42 L 46,42 L 45,41 L 42,44 L 40,44 L 39,43 L 37,45 L 33,45 L 33,47 L 34,48 L 35,48 L 40,53 L 41,53 L 42,54 L 43,54 L 44,55 L 44,56 L 48,56 L 49,55 L 54,55 L 55,54 L 56,54 L 57,55 L 58,55 L 59,54 L 59,53 L 60,52 L 61,52 L 61,50 L 62,49 L 62,45 L 66,41 L 67,41 L 68,40 L 69,40 L 70,39 L 75,39 L 76,38 L 77,38 L 78,39 L 79,39 L 80,38 L 81,38 L 81,37 L 80,36 L 80,34 L 79,33 L 80,32 L 80,31 L 79,30 L 79,28 L 78,27 L 78,26 L 76,26 L 75,25 L 73,25 L 72,24 L 69,24 Z" fill="none" stroke="black" stroke-width="1"/>
</svg>