<svg xmlns="http://www.w3.org/2000/svg" width="60" height="53">
  <path d="M 45,0 L 44,1 L 41,1 L 40,2 L 37,2 L 36,3 L 35,3 L 34,4 L 33,4 L 32,5 L 29,5 L 28,6 L 26,6 L 25,7 L 24,7 L 23,8 L 21,8 L 20,7 L 18,7 L 17,8 L 13,8 L 11,10 L 9,10 L 8,11 L 9,12 L 9,15 L 8,16 L 8,17 L 6,19 L 5,19 L 4,18 L 4,17 L 2,19 L 2,20 L 5,23 L 5,24 L 6,24 L 7,25 L 7,27 L 8,26 L 11,26 L 14,23 L 17,23 L 22,28 L 24,28 L 25,27 L 26,27 L 29,24 L 31,24 L 32,23 L 36,23 L 37,22 L 38,22 L 39,21 L 40,21 L 42,19 L 47,19 L 47,18 L 51,14 L 52,14 L 53,13 L 53,9 L 52,8 L 52,7 L 51,8 L 50,7 L 48,7 L 45,4 L 45,3 L 46,2 L 45,1 Z" fill="none" stroke="black" stroke-width="1"/>
</svg>