<svg xmlns="http://www.w3.org/2000/svg" width="51" height="101">
  <path d="M 6,31 L 5,32 L 5,33 L 7,35 L 9,35 L 10,36 L 11,36 L 11,35 L 10,34 L 10,33 L 9,32 L 9,33 L 8,34 L 7,34 L 6,33 L 7,32 L 7,31 Z" fill="none" stroke="black" stroke-width="1"/>
  <path d="M 3,0 L 1,2 L 0,2 L 0,7 L 1,8 L 1,9 L 2,10 L 2,11 L 4,13 L 4,14 L 5,15 L 7,15 L 13,21 L 13,25 L 14,26 L 14,28 L 15,27 L 17,29 L 17,31 L 18,31 L 19,32 L 19,33 L 20,34 L 20,37 L 21,38 L 22,38 L 23,37 L 24,37 L 25,36 L 28,36 L 29,35 L 29,32 L 28,31 L 28,29 L 27,28 L 27,26 L 28,25 L 27,24 L 27,23 L 25,21 L 25,20 L 26,19 L 26,16 L 25,15 L 25,14 L 24,14 L 22,12 L 23,11 L 22,10 L 21,10 L 18,7 L 16,7 L 15,6 L 15,5 L 14,5 L 13,4 L 13,1 L 12,0 L 10,0 L 8,2 L 5,2 Z" fill="none" stroke="black" stroke-width="1"/>
</svg>