<svg xmlns="http://www.w3.org/2000/svg" width="74" height="103">
  <path d="M 8,58 L 9,59 L 9,60 L 10,61 L 10,68 L 8,70 L 8,71 L 9,72 L 10,72 L 11,73 L 11,74 L 14,77 L 14,78 L 15,79 L 16,79 L 17,80 L 17,83 L 18,84 L 18,85 L 19,86 L 19,87 L 20,87 L 22,89 L 24,89 L 26,91 L 26,94 L 28,96 L 29,96 L 33,100 L 33,101 L 34,102 L 35,101 L 37,101 L 41,97 L 42,97 L 43,96 L 47,96 L 47,94 L 48,93 L 48,92 L 49,91 L 49,90 L 50,89 L 50,87 L 51,86 L 51,77 L 52,76 L 52,75 L 53,74 L 50,71 L 51,70 L 50,69 L 50,68 L 48,66 L 48,63 L 43,63 L 42,62 L 40,62 L 39,61 L 37,61 L 36,60 L 34,60 L 33,59 L 30,59 L 29,58 L 23,58 L 22,59 L 14,59 L 13,58 Z" fill="none" stroke="black" stroke-width="1"/>
</svg>