<svg xmlns="http://www.w3.org/2000/svg" width="84" height="87">
  <path d="M 51,53 L 49,55 L 48,55 L 47,56 L 47,57 L 49,57 L 50,56 L 52,56 L 54,54 L 54,53 Z" fill="none" stroke="black" stroke-width="1"/>
  <path d="M 59,51 L 59,52 L 58,53 L 58,54 L 59,53 L 60,53 L 61,54 L 63,54 L 64,53 L 66,53 L 66,52 L 65,52 L 64,51 Z" fill="none" stroke="black" stroke-width="1"/>
  <path d="M 47,37 L 46,38 L 49,41 L 47,43 L 47,44 L 48,45 L 51,42 L 50,41 L 50,39 L 51,38 L 50,38 L 49,37 Z" fill="none" stroke="black" stroke-width="1"/>
</svg>