<svg xmlns="http://www.w3.org/2000/svg" width="149" height="158">
  <path d="M 37,128 L 37,131 L 38,132 L 38,134 L 39,134 L 39,131 L 38,130 L 38,129 L 39,128 Z" fill="none" stroke="black" stroke-width="1"/>
  <path d="M 36,91 L 37,92 L 37,93 L 36,94 L 36,96 L 35,97 L 36,98 L 36,99 L 34,101 L 34,104 L 33,105 L 34,106 L 34,110 L 35,111 L 35,110 L 36,109 L 37,110 L 37,111 L 38,110 L 41,110 L 42,111 L 43,110 L 44,110 L 46,112 L 45,113 L 45,114 L 44,115 L 45,116 L 46,116 L 49,119 L 48,120 L 47,120 L 46,119 L 45,119 L 44,120 L 42,120 L 41,119 L 41,118 L 41,119 L 39,121 L 39,122 L 40,123 L 40,125 L 40,123 L 41,122 L 44,122 L 47,125 L 47,126 L 49,128 L 51,128 L 52,129 L 52,130 L 53,131 L 53,132 L 52,133 L 52,135 L 51,136 L 51,148 L 50,149 L 50,151 L 51,152 L 51,156 L 52,157 L 54,157 L 55,156 L 58,156 L 59,155 L 62,155 L 63,154 L 65,154 L 66,153 L 66,151 L 67,150 L 69,150 L 69,149 L 70,148 L 70,146 L 71,145 L 71,143 L 72,142 L 72,140 L 73,139 L 74,139 L 74,138 L 75,137 L 75,128 L 76,127 L 76,126 L 77,125 L 77,120 L 79,118 L 79,116 L 78,115 L 78,114 L 77,113 L 77,110 L 76,109 L 76,108 L 73,105 L 72,105 L 70,103 L 69,103 L 65,99 L 64,99 L 63,98 L 63,96 L 61,96 L 59,94 L 58,94 L 58,97 L 59,97 L 60,98 L 59,99 L 57,99 L 56,98 L 54,98 L 53,99 L 50,99 L 49,100 L 48,99 L 48,97 L 47,96 L 47,95 L 47,96 L 46,97 L 45,97 L 44,96 L 43,96 L 42,97 L 40,97 L 39,96 L 39,95 L 37,93 L 37,91 Z" fill="none" stroke="black" stroke-width="1"/>
</svg>