<svg xmlns="http://www.w3.org/2000/svg" width="122" height="77">
  <path d="M 1,2 L 1,7 L 0,8 L 0,12 L 3,15 L 3,16 L 4,17 L 4,19 L 3,20 L 2,20 L 2,21 L 3,22 L 3,23 L 4,23 L 6,25 L 6,26 L 9,26 L 10,27 L 10,28 L 11,29 L 11,32 L 12,33 L 12,34 L 10,36 L 10,39 L 13,42 L 13,46 L 15,46 L 16,47 L 18,45 L 18,44 L 19,43 L 20,43 L 20,42 L 22,40 L 23,40 L 25,42 L 25,43 L 27,43 L 28,44 L 28,45 L 30,45 L 31,46 L 33,46 L 35,48 L 35,49 L 37,49 L 38,50 L 39,49 L 44,49 L 45,50 L 46,50 L 46,48 L 47,47 L 47,46 L 46,45 L 46,42 L 48,40 L 48,38 L 49,37 L 49,36 L 50,35 L 50,33 L 54,29 L 54,28 L 55,27 L 55,25 L 48,18 L 47,18 L 46,17 L 45,17 L 43,15 L 43,13 L 42,12 L 40,12 L 38,14 L 32,8 L 32,6 L 23,6 L 22,5 L 20,5 L 19,4 L 19,3 L 11,3 L 10,2 Z" fill="none" stroke="black" stroke-width="1"/>
</svg>