<svg xmlns="http://www.w3.org/2000/svg" width="227" height="108">
  <path d="M 31,18 L 30,19 L 30,20 L 27,23 L 25,23 L 24,24 L 24,25 L 22,27 L 22,28 L 21,29 L 20,29 L 19,30 L 19,37 L 16,40 L 15,40 L 12,43 L 11,43 L 11,44 L 10,45 L 10,46 L 9,47 L 9,53 L 6,56 L 6,57 L 4,59 L 3,59 L 1,61 L 0,61 L 0,66 L 1,67 L 1,68 L 2,69 L 2,70 L 3,71 L 3,72 L 7,76 L 8,76 L 9,77 L 10,77 L 13,80 L 14,80 L 16,82 L 17,82 L 18,83 L 19,83 L 22,86 L 22,87 L 23,88 L 23,94 L 24,95 L 24,96 L 25,97 L 25,98 L 28,101 L 28,102 L 29,103 L 29,104 L 32,104 L 33,103 L 35,103 L 36,102 L 37,102 L 38,101 L 40,101 L 40,99 L 42,97 L 42,96 L 44,94 L 45,94 L 45,93 L 47,91 L 47,89 L 48,88 L 48,87 L 49,86 L 49,83 L 51,81 L 52,81 L 53,80 L 54,80 L 54,79 L 55,78 L 55,77 L 59,73 L 59,68 L 58,68 L 57,67 L 57,66 L 56,66 L 55,65 L 54,65 L 50,61 L 49,61 L 48,60 L 47,60 L 45,58 L 42,58 L 42,59 L 41,60 L 39,60 L 36,57 L 36,56 L 35,55 L 35,49 L 34,48 L 34,47 L 32,45 L 31,45 L 30,44 L 30,41 L 31,40 L 31,39 L 32,38 L 32,37 L 31,36 L 31,30 L 34,27 L 35,27 L 39,23 L 37,21 L 35,21 L 33,19 L 33,18 Z" fill="none" stroke="black" stroke-width="1"/>
</svg>