<svg xmlns="http://www.w3.org/2000/svg" width="180" height="138">
  <path d="M 19,21 L 15,25 L 15,26 L 14,27 L 14,28 L 13,29 L 12,29 L 11,30 L 10,30 L 9,31 L 9,34 L 8,35 L 8,36 L 7,37 L 7,39 L 5,41 L 5,42 L 4,43 L 3,43 L 2,44 L 2,45 L 0,47 L 0,48 L 7,48 L 8,49 L 8,51 L 7,52 L 7,53 L 11,53 L 11,52 L 10,51 L 11,50 L 13,50 L 13,49 L 14,48 L 16,48 L 17,47 L 18,47 L 19,48 L 20,48 L 21,49 L 21,50 L 19,52 L 19,53 L 18,54 L 18,55 L 24,55 L 25,56 L 25,60 L 24,61 L 25,62 L 26,62 L 27,63 L 31,63 L 32,62 L 38,62 L 39,63 L 43,63 L 45,61 L 49,61 L 48,60 L 48,52 L 44,52 L 43,51 L 42,51 L 41,50 L 41,49 L 43,47 L 43,40 L 42,39 L 42,37 L 43,36 L 44,36 L 44,35 L 45,34 L 45,33 L 44,33 L 42,31 L 42,29 L 39,26 L 38,26 L 37,25 L 24,25 L 23,24 L 22,24 Z" fill="none" stroke="black" stroke-width="1"/>
</svg>