<svg xmlns="http://www.w3.org/2000/svg" width="227" height="108">
  <path d="M 56,6 L 56,7 L 57,8 L 56,9 L 56,10 L 55,11 L 55,16 L 54,17 L 54,18 L 53,19 L 51,19 L 50,20 L 48,20 L 47,21 L 44,21 L 43,22 L 39,22 L 40,23 L 35,28 L 34,28 L 32,30 L 32,36 L 33,37 L 33,38 L 32,39 L 32,40 L 31,41 L 31,44 L 32,44 L 35,47 L 35,48 L 36,49 L 36,55 L 37,56 L 37,57 L 39,59 L 41,59 L 41,58 L 42,57 L 45,57 L 47,59 L 48,59 L 49,60 L 50,60 L 54,64 L 55,64 L 56,65 L 57,65 L 58,66 L 58,67 L 59,67 L 59,66 L 60,65 L 60,64 L 65,59 L 65,58 L 66,57 L 66,55 L 68,53 L 68,52 L 70,50 L 70,49 L 71,48 L 72,48 L 73,47 L 74,47 L 75,46 L 76,46 L 77,45 L 79,45 L 81,43 L 83,43 L 85,41 L 85,40 L 89,36 L 100,36 L 100,30 L 93,23 L 93,22 L 92,21 L 92,19 L 90,17 L 89,17 L 88,16 L 87,16 L 85,14 L 84,14 L 83,13 L 82,13 L 81,12 L 80,12 L 77,9 L 76,9 L 75,8 L 74,8 L 72,6 Z" fill="none" stroke="black" stroke-width="1"/>
</svg>