<svg xmlns="http://www.w3.org/2000/svg" width="185" height="162">
  <path d="M 91,79 L 91,81 L 93,83 L 92,84 L 92,90 L 91,91 L 91,92 L 90,93 L 90,94 L 89,95 L 89,96 L 88,97 L 88,109 L 87,110 L 87,118 L 86,119 L 86,121 L 83,124 L 82,124 L 80,126 L 79,126 L 75,130 L 74,130 L 74,131 L 71,134 L 71,135 L 70,136 L 70,138 L 69,139 L 69,144 L 73,144 L 76,147 L 78,147 L 79,148 L 84,148 L 85,149 L 89,149 L 91,151 L 92,151 L 93,152 L 93,153 L 94,154 L 94,155 L 95,156 L 97,156 L 98,157 L 100,157 L 101,158 L 102,158 L 102,157 L 105,154 L 105,153 L 106,152 L 111,152 L 112,151 L 119,151 L 119,150 L 121,148 L 122,148 L 125,145 L 126,145 L 126,141 L 125,140 L 125,139 L 124,138 L 124,135 L 123,134 L 123,133 L 119,129 L 119,127 L 120,126 L 120,119 L 121,118 L 121,117 L 122,116 L 122,115 L 127,110 L 128,110 L 128,106 L 129,105 L 129,104 L 130,103 L 128,101 L 128,99 L 129,98 L 129,97 L 128,97 L 127,98 L 126,98 L 124,96 L 123,96 L 122,95 L 117,95 L 116,96 L 115,96 L 115,97 L 114,98 L 113,98 L 112,99 L 111,99 L 110,98 L 111,97 L 110,97 L 108,95 L 110,93 L 110,92 L 111,91 L 111,90 L 112,89 L 116,89 L 116,87 L 117,86 L 115,86 L 114,87 L 114,88 L 113,89 L 111,89 L 110,88 L 106,88 L 105,87 L 105,86 L 104,85 L 97,85 L 96,84 L 95,84 L 94,83 L 95,82 L 92,79 Z" fill="none" stroke="black" stroke-width="1"/>
</svg>