<svg xmlns="http://www.w3.org/2000/svg" width="194" height="126">
  <path d="M 169,18 L 168,19 L 157,19 L 157,20 L 156,21 L 155,21 L 154,22 L 153,22 L 153,23 L 152,24 L 152,26 L 148,30 L 146,30 L 144,32 L 143,32 L 143,36 L 138,41 L 138,42 L 136,44 L 136,45 L 135,46 L 135,47 L 134,48 L 134,49 L 132,51 L 129,51 L 133,55 L 133,56 L 139,62 L 139,64 L 140,65 L 140,66 L 141,67 L 141,68 L 143,70 L 143,73 L 146,73 L 149,70 L 151,70 L 152,69 L 153,69 L 154,68 L 157,68 L 157,67 L 158,66 L 163,66 L 163,65 L 164,64 L 164,63 L 165,62 L 165,60 L 170,55 L 171,55 L 174,52 L 177,52 L 178,51 L 179,51 L 180,50 L 181,50 L 181,49 L 180,49 L 179,48 L 175,48 L 174,47 L 168,47 L 167,46 L 166,46 L 165,45 L 164,45 L 163,44 L 165,42 L 166,42 L 167,41 L 170,41 L 171,40 L 173,40 L 174,41 L 175,41 L 176,42 L 184,42 L 186,44 L 187,43 L 187,42 L 186,41 L 186,40 L 187,39 L 187,36 L 191,32 L 191,31 L 192,30 L 193,30 L 193,29 L 191,27 L 191,26 L 188,26 L 185,23 L 185,22 L 181,22 L 180,21 L 178,21 L 177,20 L 171,20 L 170,19 L 170,18 Z" fill="none" stroke="black" stroke-width="1"/>
</svg>