<svg xmlns="http://www.w3.org/2000/svg" width="106" height="69">
  <path d="M 49,0 L 48,1 L 47,1 L 46,2 L 45,2 L 44,3 L 44,4 L 43,5 L 42,5 L 41,6 L 39,6 L 38,7 L 35,7 L 34,8 L 24,8 L 23,9 L 22,9 L 21,10 L 20,10 L 13,17 L 11,17 L 10,18 L 3,18 L 2,19 L 0,19 L 0,25 L 3,25 L 4,26 L 4,27 L 6,27 L 7,28 L 7,32 L 8,33 L 8,37 L 9,37 L 11,39 L 11,41 L 9,43 L 10,44 L 11,44 L 13,46 L 14,46 L 15,47 L 17,47 L 17,41 L 18,40 L 19,40 L 19,39 L 21,37 L 22,37 L 24,35 L 24,33 L 25,32 L 26,32 L 27,31 L 28,31 L 29,30 L 30,30 L 33,27 L 34,27 L 35,26 L 38,26 L 39,25 L 40,25 L 43,22 L 43,21 L 45,19 L 47,19 L 48,20 L 51,17 L 53,17 L 53,13 L 54,12 L 54,11 L 55,10 L 56,10 L 57,9 L 57,8 L 58,7 L 58,5 L 57,4 L 57,3 L 56,3 L 53,0 Z" fill="none" stroke="black" stroke-width="1"/>
</svg>