<svg xmlns="http://www.w3.org/2000/svg" width="185" height="162">
  <path d="M 50,58 L 50,59 L 46,63 L 46,67 L 45,68 L 45,69 L 42,72 L 41,72 L 37,76 L 36,76 L 34,78 L 33,78 L 31,80 L 29,80 L 28,81 L 27,81 L 26,82 L 25,82 L 21,86 L 21,87 L 19,89 L 19,90 L 14,95 L 14,96 L 12,98 L 12,100 L 10,102 L 10,103 L 9,104 L 9,105 L 8,106 L 8,107 L 7,108 L 7,109 L 6,110 L 6,112 L 5,113 L 5,115 L 7,117 L 7,118 L 8,119 L 8,120 L 7,121 L 7,122 L 0,129 L 0,134 L 1,135 L 1,136 L 3,138 L 3,140 L 4,141 L 4,143 L 2,145 L 2,150 L 5,150 L 6,149 L 7,149 L 8,148 L 12,148 L 14,146 L 14,145 L 15,144 L 15,142 L 16,141 L 16,140 L 17,139 L 23,139 L 25,137 L 28,137 L 29,136 L 30,136 L 31,135 L 31,134 L 43,122 L 44,122 L 49,117 L 50,117 L 51,116 L 52,116 L 55,113 L 56,113 L 58,111 L 58,102 L 59,101 L 59,99 L 60,98 L 60,96 L 61,95 L 61,93 L 62,92 L 62,90 L 70,82 L 71,82 L 72,81 L 73,81 L 75,79 L 77,79 L 77,78 L 76,77 L 76,74 L 77,73 L 78,73 L 78,72 L 77,71 L 75,71 L 73,69 L 73,63 L 70,60 L 71,59 L 68,59 L 67,60 L 65,60 L 62,63 L 61,62 L 58,62 L 55,59 L 54,59 L 53,58 Z" fill="none" stroke="black" stroke-width="1"/>
</svg>