<svg xmlns="http://www.w3.org/2000/svg" width="227" height="108">
  <path d="M 89,37 L 86,40 L 86,41 L 83,44 L 81,44 L 79,46 L 77,46 L 76,47 L 75,47 L 74,48 L 73,48 L 72,49 L 71,49 L 71,50 L 69,52 L 69,53 L 67,55 L 67,57 L 66,58 L 66,59 L 61,64 L 61,65 L 60,66 L 60,72 L 63,75 L 64,75 L 65,76 L 78,76 L 79,77 L 80,77 L 84,81 L 84,83 L 85,84 L 86,84 L 87,85 L 87,86 L 86,87 L 86,88 L 85,89 L 84,89 L 84,91 L 85,92 L 85,99 L 83,101 L 83,102 L 84,102 L 85,103 L 88,103 L 89,102 L 90,102 L 91,101 L 94,101 L 95,100 L 97,100 L 98,99 L 104,99 L 109,104 L 110,104 L 111,105 L 112,105 L 113,106 L 113,107 L 116,107 L 116,106 L 113,103 L 113,101 L 114,100 L 114,99 L 116,97 L 116,96 L 117,95 L 117,93 L 118,92 L 118,89 L 119,88 L 123,88 L 124,89 L 137,89 L 138,90 L 139,90 L 140,91 L 141,91 L 142,92 L 145,92 L 146,93 L 148,93 L 150,91 L 150,90 L 152,88 L 153,88 L 154,87 L 154,86 L 155,85 L 156,85 L 156,80 L 157,79 L 157,75 L 158,74 L 158,73 L 160,71 L 159,71 L 158,70 L 151,70 L 150,71 L 147,71 L 146,72 L 136,72 L 133,69 L 132,69 L 129,66 L 128,66 L 126,64 L 125,64 L 123,62 L 121,62 L 120,61 L 117,61 L 114,58 L 114,56 L 113,55 L 113,54 L 112,53 L 112,49 L 111,48 L 111,45 L 110,44 L 110,42 L 109,41 L 107,41 L 104,38 L 102,38 L 101,37 Z" fill="none" stroke="black" stroke-width="1"/>
</svg>