<svg xmlns="http://www.w3.org/2000/svg" width="227" height="108">
  <path d="M 166,0 L 165,1 L 163,1 L 161,3 L 158,3 L 157,4 L 155,4 L 154,5 L 152,5 L 151,4 L 146,4 L 146,5 L 145,6 L 145,8 L 144,9 L 144,10 L 141,13 L 137,13 L 136,14 L 135,14 L 134,15 L 128,15 L 127,14 L 117,14 L 116,15 L 114,15 L 113,16 L 111,16 L 110,17 L 108,17 L 106,19 L 105,19 L 104,20 L 103,20 L 102,21 L 101,21 L 100,22 L 99,22 L 97,24 L 96,24 L 96,25 L 101,30 L 101,36 L 102,37 L 104,37 L 107,40 L 109,40 L 111,42 L 111,44 L 112,45 L 112,48 L 113,49 L 113,53 L 114,54 L 114,55 L 115,56 L 115,58 L 117,60 L 119,60 L 123,56 L 123,55 L 126,52 L 127,52 L 128,51 L 129,51 L 131,49 L 132,49 L 133,48 L 135,48 L 136,47 L 137,47 L 138,46 L 139,46 L 140,45 L 145,45 L 151,39 L 152,39 L 156,35 L 157,35 L 158,34 L 160,34 L 161,33 L 165,33 L 167,31 L 167,30 L 168,29 L 168,27 L 172,23 L 174,23 L 175,22 L 177,22 L 178,21 L 179,21 L 180,20 L 181,20 L 182,19 L 183,19 L 183,18 L 185,16 L 185,15 L 187,13 L 187,12 L 188,11 L 188,9 L 186,7 L 186,6 L 185,6 L 183,4 L 177,4 L 176,3 L 173,3 L 170,0 Z" fill="none" stroke="black" stroke-width="1"/>
</svg>