<svg xmlns="http://www.w3.org/2000/svg" width="194" height="126">
  <path d="M 80,30 L 77,33 L 75,33 L 74,34 L 71,34 L 71,35 L 67,39 L 67,40 L 64,43 L 63,43 L 62,44 L 61,44 L 61,45 L 60,46 L 59,46 L 59,47 L 58,48 L 58,51 L 57,52 L 57,53 L 56,54 L 56,58 L 55,59 L 55,60 L 57,60 L 58,61 L 58,62 L 59,63 L 58,64 L 60,66 L 59,67 L 60,68 L 60,69 L 61,68 L 62,69 L 65,69 L 66,70 L 67,69 L 69,71 L 69,76 L 68,77 L 69,78 L 69,79 L 70,79 L 71,80 L 70,81 L 70,83 L 71,84 L 71,86 L 72,87 L 72,89 L 73,89 L 74,90 L 75,90 L 76,91 L 77,91 L 78,90 L 81,90 L 82,89 L 85,89 L 86,88 L 87,89 L 91,89 L 94,92 L 95,92 L 96,91 L 100,91 L 101,92 L 114,92 L 115,91 L 116,92 L 118,92 L 119,93 L 120,92 L 122,94 L 124,92 L 126,92 L 126,91 L 128,89 L 129,90 L 130,90 L 131,89 L 133,89 L 134,88 L 136,88 L 137,89 L 137,90 L 140,90 L 142,88 L 142,87 L 141,86 L 141,82 L 143,80 L 144,80 L 143,79 L 143,78 L 141,76 L 141,75 L 142,74 L 142,70 L 140,68 L 140,67 L 139,66 L 139,65 L 138,64 L 138,62 L 132,56 L 132,55 L 128,51 L 124,51 L 123,50 L 120,50 L 119,51 L 115,51 L 114,50 L 112,50 L 111,49 L 108,49 L 107,48 L 105,48 L 103,46 L 103,45 L 104,44 L 103,44 L 102,43 L 102,42 L 101,41 L 102,40 L 102,39 L 92,39 L 90,37 L 89,37 L 88,36 L 87,36 L 83,32 L 82,32 Z" fill="none" stroke="black" stroke-width="1"/>
</svg>