<svg xmlns="http://www.w3.org/2000/svg" width="180" height="138">
  <path d="M 145,0 L 144,1 L 141,1 L 140,2 L 138,2 L 135,5 L 134,5 L 131,8 L 130,8 L 128,10 L 127,10 L 126,11 L 126,15 L 125,16 L 124,16 L 123,17 L 122,17 L 118,21 L 118,22 L 117,23 L 117,27 L 116,28 L 116,33 L 115,34 L 114,34 L 114,35 L 112,37 L 111,37 L 110,38 L 110,39 L 111,40 L 112,40 L 113,41 L 114,41 L 115,42 L 116,42 L 117,43 L 117,44 L 119,46 L 119,52 L 120,53 L 120,56 L 121,57 L 121,58 L 122,59 L 122,60 L 123,61 L 123,63 L 124,64 L 124,68 L 125,69 L 125,76 L 124,77 L 124,80 L 123,81 L 123,83 L 122,84 L 122,86 L 121,87 L 121,88 L 119,90 L 119,92 L 118,93 L 118,95 L 120,97 L 120,98 L 121,98 L 122,99 L 123,99 L 124,98 L 126,98 L 128,96 L 130,96 L 131,97 L 134,97 L 136,99 L 138,99 L 140,101 L 144,101 L 145,102 L 148,102 L 149,103 L 152,103 L 152,101 L 154,99 L 154,98 L 156,96 L 157,96 L 159,94 L 160,94 L 161,93 L 162,93 L 164,91 L 166,91 L 167,90 L 168,90 L 169,89 L 170,89 L 171,88 L 173,88 L 174,87 L 175,87 L 177,85 L 178,85 L 179,84 L 179,83 L 177,81 L 177,80 L 175,78 L 174,78 L 169,73 L 169,72 L 166,69 L 166,67 L 165,66 L 164,66 L 163,65 L 163,64 L 162,63 L 161,63 L 158,60 L 157,60 L 155,58 L 155,57 L 154,56 L 154,55 L 153,54 L 153,52 L 152,51 L 152,45 L 153,44 L 153,41 L 154,40 L 154,28 L 155,27 L 155,26 L 156,25 L 156,24 L 157,23 L 157,22 L 159,20 L 159,18 L 160,17 L 160,9 L 162,7 L 162,2 L 149,2 L 147,0 Z" fill="none" stroke="black" stroke-width="1"/>
</svg>