<svg xmlns="http://www.w3.org/2000/svg" width="133" height="116">
  <path d="M 39,42 L 38,43 L 32,43 L 33,44 L 33,45 L 32,46 L 30,46 L 29,47 L 29,50 L 27,52 L 25,52 L 24,53 L 23,53 L 22,52 L 21,52 L 20,53 L 18,53 L 18,54 L 17,55 L 17,56 L 16,57 L 15,57 L 14,58 L 14,62 L 15,63 L 15,65 L 16,66 L 16,67 L 23,67 L 24,68 L 25,68 L 26,69 L 28,69 L 30,71 L 31,71 L 32,72 L 35,72 L 36,73 L 41,73 L 42,74 L 44,74 L 45,75 L 49,75 L 50,76 L 53,76 L 54,77 L 55,77 L 55,74 L 56,73 L 56,69 L 57,68 L 57,66 L 56,65 L 55,65 L 53,63 L 52,63 L 48,59 L 48,52 L 49,51 L 49,49 L 48,48 L 48,47 L 47,46 L 44,46 L 40,42 Z" fill="none" stroke="black" stroke-width="1"/>
</svg>