<svg xmlns="http://www.w3.org/2000/svg" width="109" height="131">
  <path d="M 81,70 L 80,71 L 79,71 L 78,72 L 78,74 L 77,75 L 77,77 L 76,78 L 76,79 L 72,83 L 72,84 L 67,89 L 67,90 L 62,95 L 62,96 L 60,98 L 59,98 L 55,102 L 54,102 L 53,103 L 52,103 L 51,104 L 48,104 L 47,105 L 46,105 L 45,106 L 44,106 L 48,106 L 49,107 L 51,107 L 52,108 L 57,108 L 58,109 L 60,109 L 62,107 L 66,107 L 71,112 L 72,112 L 76,116 L 77,116 L 78,117 L 78,118 L 77,119 L 77,120 L 80,123 L 81,123 L 82,124 L 83,124 L 84,125 L 86,125 L 88,127 L 89,126 L 92,126 L 93,127 L 95,127 L 97,129 L 98,129 L 99,130 L 100,130 L 100,129 L 102,127 L 103,127 L 105,125 L 106,125 L 104,123 L 104,119 L 105,118 L 105,109 L 106,108 L 106,106 L 107,105 L 107,103 L 108,102 L 108,96 L 107,95 L 107,91 L 105,91 L 104,90 L 104,89 L 101,89 L 100,88 L 100,83 L 99,83 L 98,82 L 98,80 L 97,80 L 96,79 L 96,78 L 95,78 L 94,77 L 94,74 L 93,73 L 93,71 L 82,71 Z" fill="none" stroke="black" stroke-width="1"/>
</svg>