<svg xmlns="http://www.w3.org/2000/svg" width="106" height="69">
  <path d="M 66,6 L 65,7 L 59,7 L 58,8 L 58,9 L 56,11 L 55,11 L 55,12 L 54,13 L 54,15 L 55,15 L 56,16 L 57,16 L 58,17 L 59,17 L 60,18 L 60,19 L 59,20 L 59,26 L 58,27 L 58,28 L 59,29 L 59,30 L 60,31 L 60,33 L 58,35 L 57,35 L 56,36 L 55,36 L 54,37 L 54,41 L 55,40 L 58,40 L 59,41 L 59,42 L 61,42 L 63,44 L 63,45 L 78,45 L 80,43 L 85,43 L 86,44 L 86,45 L 90,45 L 91,44 L 92,44 L 93,43 L 93,42 L 95,40 L 97,40 L 98,39 L 102,39 L 105,36 L 103,34 L 103,33 L 102,32 L 100,32 L 98,30 L 98,29 L 100,27 L 101,27 L 102,26 L 101,25 L 101,22 L 100,22 L 99,21 L 98,21 L 97,20 L 96,20 L 95,19 L 94,19 L 93,18 L 93,17 L 90,17 L 89,16 L 88,16 L 87,15 L 85,15 L 84,14 L 83,14 L 76,7 L 71,7 L 70,6 Z" fill="none" stroke="black" stroke-width="1"/>
</svg>