<svg xmlns="http://www.w3.org/2000/svg" width="89" height="125">
  <path d="M 9,40 L 9,41 L 7,43 L 6,43 L 6,45 L 7,46 L 7,47 L 6,48 L 6,49 L 4,51 L 1,51 L 1,53 L 0,54 L 0,62 L 3,65 L 3,66 L 2,67 L 2,68 L 1,69 L 0,69 L 0,82 L 1,83 L 3,83 L 4,84 L 19,84 L 20,85 L 26,85 L 27,84 L 27,82 L 28,81 L 28,79 L 29,78 L 29,75 L 30,74 L 30,72 L 31,71 L 31,70 L 32,69 L 32,67 L 34,65 L 34,62 L 36,60 L 36,54 L 34,52 L 33,52 L 31,50 L 31,49 L 30,50 L 30,51 L 29,52 L 25,52 L 24,53 L 23,53 L 22,52 L 21,52 L 18,49 L 18,47 L 17,46 L 17,45 L 14,42 L 13,42 L 11,40 Z" fill="none" stroke="black" stroke-width="1"/>
</svg>