<svg xmlns="http://www.w3.org/2000/svg" width="143" height="138">
  <path d="M 35,0 L 34,1 L 32,1 L 31,2 L 26,2 L 25,1 L 24,1 L 23,2 L 23,3 L 22,4 L 14,4 L 14,5 L 13,6 L 11,6 L 10,7 L 6,7 L 5,8 L 5,11 L 3,13 L 3,17 L 4,17 L 6,19 L 7,19 L 8,20 L 11,17 L 12,17 L 13,18 L 14,18 L 16,20 L 17,20 L 20,23 L 21,23 L 22,24 L 23,24 L 24,25 L 25,25 L 28,28 L 28,31 L 30,33 L 45,33 L 46,34 L 50,34 L 51,35 L 52,35 L 54,37 L 55,37 L 56,38 L 57,38 L 58,39 L 59,39 L 60,40 L 61,40 L 62,41 L 65,41 L 66,40 L 65,39 L 65,38 L 67,36 L 67,35 L 68,34 L 68,33 L 69,32 L 70,32 L 70,29 L 71,28 L 71,27 L 73,25 L 75,25 L 75,24 L 76,23 L 77,23 L 78,22 L 77,21 L 78,20 L 76,18 L 78,16 L 78,15 L 80,13 L 82,13 L 84,11 L 85,11 L 86,10 L 83,7 L 78,7 L 77,6 L 77,4 L 72,4 L 71,3 L 70,3 L 69,4 L 59,4 L 58,3 L 55,3 L 54,2 L 47,2 L 46,1 L 46,0 L 44,0 L 43,1 L 37,1 L 36,0 Z" fill="none" stroke="black" stroke-width="1"/>
</svg>