<svg xmlns="http://www.w3.org/2000/svg" width="89" height="125">
  <path d="M 62,40 L 61,41 L 61,42 L 60,43 L 59,43 L 59,44 L 56,47 L 55,47 L 54,48 L 51,48 L 49,50 L 48,50 L 47,51 L 44,51 L 43,52 L 41,52 L 40,53 L 38,53 L 37,54 L 37,60 L 35,62 L 35,65 L 33,67 L 33,69 L 32,70 L 32,71 L 31,72 L 31,74 L 30,75 L 30,78 L 29,79 L 29,81 L 28,82 L 28,83 L 37,83 L 38,84 L 39,84 L 40,85 L 42,85 L 43,86 L 45,86 L 46,87 L 47,87 L 47,85 L 48,84 L 48,83 L 53,78 L 54,78 L 55,77 L 56,77 L 57,76 L 58,76 L 59,75 L 60,75 L 61,74 L 64,74 L 65,75 L 66,75 L 67,76 L 68,76 L 69,77 L 69,78 L 71,80 L 72,80 L 73,79 L 74,79 L 74,78 L 75,77 L 76,77 L 77,76 L 77,70 L 78,69 L 79,69 L 79,64 L 75,60 L 75,59 L 74,58 L 74,56 L 73,55 L 73,54 L 72,53 L 71,53 L 70,52 L 70,48 L 69,48 L 68,47 L 67,47 L 65,45 L 65,41 L 64,40 Z" fill="none" stroke="black" stroke-width="1"/>
</svg>