<svg xmlns="http://www.w3.org/2000/svg" width="164" height="138">
  <path d="M 79,0 L 78,1 L 76,1 L 75,2 L 73,2 L 71,4 L 70,3 L 70,5 L 68,7 L 69,8 L 68,9 L 66,9 L 64,11 L 63,11 L 62,10 L 61,10 L 60,11 L 60,13 L 61,14 L 60,15 L 59,15 L 59,16 L 60,17 L 60,18 L 59,19 L 58,19 L 57,20 L 57,23 L 59,25 L 59,28 L 58,29 L 57,29 L 55,27 L 55,26 L 53,24 L 52,24 L 50,22 L 50,21 L 48,19 L 47,19 L 46,18 L 46,17 L 47,16 L 48,17 L 48,16 L 46,16 L 46,17 L 44,19 L 44,20 L 45,20 L 47,22 L 47,23 L 48,24 L 48,31 L 50,33 L 50,34 L 51,35 L 51,36 L 53,38 L 54,38 L 55,39 L 55,40 L 60,45 L 62,45 L 63,46 L 67,46 L 68,47 L 69,47 L 70,48 L 72,48 L 72,47 L 73,46 L 73,43 L 75,41 L 77,41 L 78,40 L 80,40 L 81,39 L 82,39 L 87,34 L 90,34 L 91,33 L 92,33 L 93,32 L 97,32 L 98,33 L 98,34 L 99,34 L 99,32 L 100,31 L 100,28 L 102,26 L 102,25 L 103,24 L 103,23 L 105,21 L 105,20 L 108,17 L 121,17 L 121,16 L 122,15 L 122,14 L 124,12 L 124,11 L 125,10 L 126,10 L 128,8 L 126,8 L 123,5 L 123,4 L 122,5 L 121,4 L 120,4 L 119,5 L 117,3 L 112,3 L 111,2 L 110,2 L 109,1 L 108,1 L 107,2 L 106,1 L 105,2 L 100,2 L 99,1 L 94,1 L 93,0 L 83,0 L 82,1 L 80,1 Z" fill="none" stroke="black" stroke-width="1"/>
</svg>