<svg xmlns="http://www.w3.org/2000/svg" width="159" height="225">
  <path d="M 116,120 L 116,121 L 117,122 L 116,123 L 115,123 L 114,122 L 113,122 L 112,123 L 112,124 L 110,126 L 105,126 L 105,127 L 106,128 L 105,129 L 105,130 L 104,131 L 101,131 L 100,130 L 99,130 L 96,133 L 90,133 L 89,134 L 88,134 L 87,135 L 82,135 L 81,136 L 75,136 L 74,137 L 73,137 L 72,138 L 70,138 L 69,137 L 69,136 L 68,136 L 68,137 L 67,138 L 63,138 L 62,137 L 59,140 L 58,140 L 58,142 L 59,143 L 58,144 L 55,144 L 54,143 L 52,143 L 51,144 L 40,144 L 40,148 L 39,149 L 39,155 L 40,155 L 41,156 L 45,156 L 46,157 L 47,157 L 48,158 L 49,158 L 51,160 L 51,161 L 60,161 L 61,162 L 62,162 L 65,165 L 67,165 L 68,166 L 69,166 L 71,168 L 71,169 L 72,170 L 72,171 L 73,172 L 73,173 L 76,176 L 79,176 L 79,174 L 80,173 L 80,172 L 81,171 L 81,170 L 82,169 L 82,168 L 83,167 L 83,166 L 85,164 L 85,162 L 87,160 L 87,159 L 92,154 L 92,153 L 94,151 L 94,150 L 99,145 L 100,145 L 101,144 L 102,144 L 103,143 L 105,143 L 107,141 L 108,141 L 110,139 L 111,139 L 115,135 L 116,135 L 118,133 L 118,132 L 119,131 L 119,127 L 123,123 L 123,122 L 122,121 L 120,123 L 119,122 L 119,121 L 117,121 Z" fill="none" stroke="black" stroke-width="1"/>
</svg>