<svg xmlns="http://www.w3.org/2000/svg" width="133" height="116">
  <path d="M 32,0 L 31,1 L 30,1 L 29,2 L 28,2 L 27,3 L 26,3 L 24,5 L 20,5 L 19,6 L 13,6 L 13,8 L 14,9 L 14,10 L 15,11 L 15,13 L 16,14 L 16,23 L 15,24 L 15,26 L 14,27 L 14,29 L 13,30 L 13,31 L 12,32 L 11,32 L 11,33 L 10,34 L 10,36 L 9,37 L 8,37 L 2,43 L 1,43 L 0,44 L 0,45 L 3,45 L 4,46 L 7,46 L 8,47 L 10,47 L 12,49 L 14,49 L 15,50 L 16,50 L 17,51 L 17,52 L 20,52 L 21,51 L 22,51 L 23,52 L 24,52 L 25,51 L 27,51 L 28,50 L 28,47 L 30,45 L 32,45 L 32,44 L 31,43 L 32,42 L 38,42 L 39,41 L 40,41 L 44,45 L 47,45 L 49,47 L 49,48 L 52,45 L 52,43 L 53,42 L 51,40 L 51,39 L 50,38 L 50,34 L 49,34 L 48,33 L 47,33 L 44,30 L 44,27 L 45,26 L 45,24 L 44,23 L 44,20 L 45,19 L 45,18 L 40,18 L 39,19 L 36,19 L 35,18 L 35,16 L 34,15 L 35,14 L 35,10 L 34,9 L 33,9 L 32,8 L 32,4 L 33,3 L 33,2 L 32,1 Z" fill="none" stroke="black" stroke-width="1"/>
</svg>