<svg xmlns="http://www.w3.org/2000/svg" width="74" height="67">
  <path d="M 37,0 L 36,1 L 36,2 L 32,6 L 33,7 L 33,8 L 34,9 L 35,9 L 36,10 L 36,11 L 37,12 L 37,13 L 38,13 L 39,14 L 39,15 L 40,16 L 40,18 L 41,18 L 42,17 L 44,17 L 45,18 L 45,20 L 43,22 L 44,23 L 44,24 L 43,25 L 44,26 L 44,27 L 46,29 L 46,30 L 48,32 L 51,32 L 52,33 L 53,33 L 54,34 L 55,34 L 56,35 L 56,33 L 58,31 L 59,31 L 60,30 L 61,30 L 62,29 L 63,30 L 64,30 L 67,33 L 68,33 L 69,34 L 70,34 L 70,33 L 71,32 L 71,31 L 70,30 L 70,29 L 69,29 L 68,28 L 68,27 L 67,26 L 67,25 L 64,22 L 64,21 L 63,21 L 62,20 L 62,17 L 61,16 L 61,15 L 58,15 L 57,16 L 56,16 L 55,15 L 55,14 L 54,13 L 53,13 L 51,11 L 51,10 L 50,9 L 49,9 L 48,8 L 48,7 L 46,5 L 45,6 L 42,3 L 42,2 L 41,1 L 39,1 L 38,0 Z" fill="none" stroke="black" stroke-width="1"/>
</svg>