<svg xmlns="http://www.w3.org/2000/svg" width="49" height="62">
  <path d="M 18,22 L 17,23 L 13,23 L 12,24 L 8,24 L 8,27 L 7,28 L 6,28 L 6,31 L 11,36 L 14,36 L 15,37 L 15,38 L 16,39 L 16,40 L 17,40 L 18,41 L 18,43 L 19,44 L 22,44 L 23,45 L 24,45 L 24,44 L 25,43 L 26,44 L 27,44 L 29,46 L 31,44 L 28,41 L 27,41 L 25,39 L 25,37 L 26,36 L 29,39 L 30,39 L 32,41 L 32,40 L 31,39 L 32,38 L 33,38 L 34,37 L 34,36 L 33,35 L 30,35 L 29,34 L 30,33 L 30,32 L 28,30 L 28,29 L 25,26 L 24,26 L 22,24 L 21,24 L 19,22 Z" fill="none" stroke="black" stroke-width="1"/>
</svg>