<svg xmlns="http://www.w3.org/2000/svg" width="43" height="69">
  <path d="M 12,0 L 11,1 L 10,1 L 8,3 L 3,3 L 3,4 L 1,6 L 1,8 L 0,9 L 0,18 L 1,19 L 1,20 L 2,21 L 2,22 L 3,23 L 3,27 L 4,27 L 6,29 L 6,30 L 10,30 L 11,29 L 12,29 L 13,28 L 16,28 L 17,29 L 18,29 L 19,30 L 20,30 L 21,29 L 22,29 L 22,28 L 20,26 L 20,24 L 21,23 L 22,23 L 22,22 L 21,21 L 21,20 L 20,19 L 20,16 L 19,15 L 19,14 L 18,14 L 17,13 L 17,11 L 18,10 L 18,8 L 19,7 L 18,6 L 18,5 L 17,4 L 16,4 L 15,3 L 15,2 L 14,1 L 14,0 Z" fill="none" stroke="black" stroke-width="1"/>
</svg>