<svg xmlns="http://www.w3.org/2000/svg" width="49" height="62">
  <path d="M 15,0 L 14,1 L 12,1 L 11,2 L 10,2 L 9,3 L 8,3 L 8,5 L 7,6 L 7,9 L 6,10 L 5,10 L 4,11 L 5,12 L 5,14 L 6,15 L 6,18 L 7,18 L 8,19 L 8,21 L 9,22 L 9,23 L 12,23 L 13,22 L 17,22 L 18,21 L 19,21 L 21,23 L 22,23 L 24,25 L 25,25 L 25,21 L 24,21 L 22,19 L 21,19 L 20,18 L 20,12 L 21,11 L 22,11 L 22,10 L 23,9 L 24,9 L 25,10 L 27,10 L 28,11 L 29,11 L 29,7 L 28,7 L 27,6 L 24,6 L 23,5 L 23,4 L 22,3 L 20,3 L 18,1 L 18,0 Z" fill="none" stroke="black" stroke-width="1"/>
</svg>