<svg xmlns="http://www.w3.org/2000/svg" width="74" height="67">
  <path d="M 24,5 L 24,8 L 23,9 L 23,10 L 24,11 L 24,13 L 26,15 L 26,22 L 25,23 L 27,25 L 27,26 L 25,28 L 23,26 L 20,26 L 19,27 L 18,27 L 17,26 L 17,22 L 15,22 L 13,24 L 12,24 L 11,25 L 9,25 L 9,28 L 8,29 L 7,29 L 7,31 L 8,31 L 9,32 L 8,33 L 4,33 L 3,34 L 2,34 L 1,35 L 1,39 L 0,40 L 0,41 L 2,39 L 3,39 L 4,40 L 4,41 L 6,43 L 7,43 L 8,44 L 7,45 L 8,46 L 8,47 L 9,48 L 11,46 L 12,46 L 13,45 L 14,45 L 15,46 L 17,46 L 18,47 L 19,47 L 23,43 L 23,42 L 24,41 L 24,40 L 27,37 L 28,37 L 31,34 L 31,33 L 34,30 L 34,28 L 35,27 L 36,28 L 38,28 L 38,27 L 39,26 L 41,26 L 43,24 L 43,23 L 42,22 L 44,20 L 44,18 L 42,18 L 41,19 L 40,19 L 39,18 L 39,16 L 38,15 L 38,14 L 37,14 L 36,13 L 36,12 L 35,11 L 35,10 L 34,10 L 32,8 L 32,7 L 31,6 L 28,6 L 27,5 Z" fill="none" stroke="black" stroke-width="1"/>
</svg>