<svg xmlns="http://www.w3.org/2000/svg" width="56" height="55">
  <path d="M 36,14 L 35,15 L 33,15 L 34,16 L 34,17 L 37,20 L 37,23 L 36,24 L 36,25 L 34,27 L 33,27 L 33,34 L 31,36 L 31,37 L 30,38 L 31,39 L 31,41 L 32,42 L 32,44 L 34,44 L 35,43 L 38,43 L 39,42 L 40,42 L 41,43 L 42,43 L 43,44 L 46,44 L 47,43 L 55,43 L 55,42 L 54,41 L 54,35 L 51,32 L 50,32 L 49,31 L 49,27 L 47,25 L 47,22 L 46,21 L 46,20 L 44,18 L 44,17 L 43,16 L 43,15 L 41,15 L 40,14 Z" fill="none" stroke="black" stroke-width="1"/>
</svg>