<svg xmlns="http://www.w3.org/2000/svg" width="73" height="48">
  <path d="M 36,16 L 36,18 L 33,21 L 33,22 L 32,23 L 30,23 L 29,24 L 31,26 L 32,26 L 33,27 L 33,29 L 32,30 L 32,32 L 34,34 L 34,35 L 31,38 L 30,38 L 30,42 L 31,43 L 31,44 L 32,44 L 33,45 L 36,45 L 37,46 L 38,45 L 39,45 L 40,44 L 43,44 L 44,45 L 51,45 L 52,46 L 55,46 L 56,47 L 58,47 L 58,39 L 59,38 L 58,37 L 58,36 L 59,35 L 59,32 L 57,30 L 56,30 L 51,25 L 51,24 L 50,23 L 50,22 L 49,22 L 48,21 L 48,19 L 47,18 L 44,18 L 43,17 L 42,17 L 41,16 Z" fill="none" stroke="black" stroke-width="1"/>
</svg>