<svg xmlns="http://www.w3.org/2000/svg" width="56" height="55">
  <path d="M 27,0 L 26,1 L 23,1 L 22,2 L 17,2 L 15,4 L 14,4 L 13,5 L 9,5 L 8,4 L 7,4 L 5,2 L 4,3 L 4,4 L 3,5 L 2,5 L 2,6 L 1,7 L 1,12 L 0,13 L 3,16 L 4,16 L 6,18 L 8,18 L 9,19 L 10,18 L 11,18 L 12,17 L 13,17 L 14,18 L 15,18 L 16,19 L 17,18 L 21,18 L 22,17 L 23,17 L 25,15 L 25,13 L 26,12 L 30,12 L 32,14 L 35,14 L 34,13 L 34,12 L 33,11 L 33,8 L 34,7 L 31,7 L 30,6 L 29,6 L 28,5 L 28,4 L 27,3 Z" fill="none" stroke="black" stroke-width="1"/>
</svg>