<svg xmlns="http://www.w3.org/2000/svg" width="35" height="88">
  <path d="M 21,34 L 21,37 L 20,38 L 20,39 L 19,40 L 20,41 L 20,43 L 21,44 L 21,45 L 24,48 L 24,50 L 25,51 L 25,54 L 27,56 L 27,60 L 28,61 L 28,62 L 24,66 L 24,67 L 23,68 L 23,69 L 22,70 L 22,71 L 21,72 L 21,73 L 20,74 L 25,74 L 25,73 L 24,72 L 25,71 L 25,70 L 26,69 L 26,68 L 27,67 L 27,65 L 28,64 L 28,63 L 30,61 L 30,58 L 33,55 L 33,52 L 32,51 L 32,44 L 33,43 L 33,42 L 34,41 L 34,39 L 32,37 L 30,37 L 29,36 L 27,38 L 26,38 L 25,37 L 24,37 L 22,35 L 22,34 Z" fill="none" stroke="black" stroke-width="1"/>
</svg>