<svg xmlns="http://www.w3.org/2000/svg" width="47" height="78">
  <path d="M 1,16 L 0,17 L 0,18 L 0,17 L 1,16 L 2,16 Z" fill="none" stroke="black" stroke-width="1"/>
  <path d="M 15,0 L 14,1 L 13,1 L 13,4 L 12,5 L 12,7 L 11,8 L 11,10 L 7,14 L 6,14 L 6,16 L 7,17 L 7,24 L 8,25 L 8,28 L 7,29 L 7,34 L 8,34 L 10,36 L 10,40 L 13,43 L 16,43 L 16,42 L 18,40 L 19,40 L 19,39 L 20,38 L 20,37 L 21,36 L 21,35 L 22,34 L 23,34 L 24,33 L 24,29 L 23,28 L 21,30 L 19,30 L 18,29 L 17,29 L 16,28 L 17,27 L 17,25 L 15,23 L 15,14 L 16,13 L 15,12 L 15,11 L 16,10 L 16,8 L 18,6 L 18,5 L 20,3 L 20,2 L 21,1 L 16,1 Z" fill="none" stroke="black" stroke-width="1"/>
</svg>