<svg xmlns="http://www.w3.org/2000/svg" width="47" height="78">
  <path d="M 24,75 L 25,76 L 25,77 L 26,76 L 27,76 L 27,75 Z" fill="none" stroke="black" stroke-width="1"/>
  <path d="M 24,70 L 24,71 L 23,72 L 24,72 Z" fill="none" stroke="black" stroke-width="1"/>
  <path d="M 6,48 L 7,49 L 7,50 L 7,48 Z" fill="none" stroke="black" stroke-width="1"/>
  <path d="M 6,22 L 6,23 L 5,24 L 5,25 L 4,26 L 4,28 L 3,29 L 3,33 L 2,34 L 2,38 L 1,39 L 1,42 L 2,43 L 2,44 L 3,45 L 2,46 L 2,52 L 3,52 L 4,51 L 3,50 L 3,48 L 2,47 L 2,46 L 3,45 L 4,46 L 4,44 L 5,43 L 6,43 L 7,42 L 10,45 L 10,48 L 12,48 L 14,50 L 14,53 L 16,53 L 18,55 L 18,56 L 19,57 L 19,59 L 20,60 L 21,60 L 25,64 L 25,67 L 26,67 L 28,69 L 28,70 L 29,71 L 29,72 L 30,72 L 31,73 L 31,74 L 31,67 L 28,64 L 28,62 L 26,60 L 25,60 L 24,59 L 24,55 L 23,54 L 23,53 L 22,52 L 22,51 L 19,48 L 19,47 L 18,46 L 18,45 L 17,44 L 17,43 L 16,44 L 13,44 L 9,40 L 9,36 L 8,35 L 7,35 L 6,34 L 6,29 L 7,28 L 7,25 L 6,24 Z" fill="none" stroke="black" stroke-width="1"/>
</svg>