<svg xmlns="http://www.w3.org/2000/svg" width="41" height="52">
  <path d="M 5,20 L 4,21 L 5,22 L 6,22 L 7,23 L 7,24 L 8,25 L 8,26 L 11,29 L 11,31 L 12,32 L 12,34 L 11,35 L 11,36 L 12,36 L 15,39 L 16,39 L 17,40 L 18,40 L 21,43 L 23,41 L 23,40 L 22,39 L 24,37 L 25,37 L 28,34 L 29,34 L 28,33 L 28,32 L 25,32 L 24,31 L 24,30 L 21,27 L 21,26 L 20,25 L 19,25 L 18,24 L 18,23 L 17,23 L 16,22 L 15,23 L 14,23 L 13,22 L 12,22 L 11,23 L 9,23 L 8,22 L 7,22 Z" fill="none" stroke="black" stroke-width="1"/>
</svg>