<svg xmlns="http://www.w3.org/2000/svg" width="52" height="85">
  <path d="M 50,26 L 49,27 L 47,27 L 47,28 L 43,32 L 38,32 L 37,33 L 36,33 L 34,35 L 34,36 L 33,37 L 30,37 L 27,34 L 27,33 L 26,32 L 26,31 L 25,31 L 25,32 L 20,37 L 18,37 L 18,38 L 17,39 L 15,39 L 14,40 L 12,40 L 9,43 L 7,43 L 7,44 L 8,45 L 5,48 L 5,50 L 6,51 L 6,53 L 7,52 L 11,52 L 12,53 L 17,53 L 18,52 L 20,52 L 22,54 L 23,54 L 24,55 L 25,55 L 26,56 L 27,56 L 27,55 L 29,53 L 33,53 L 34,52 L 35,52 L 36,51 L 37,51 L 38,52 L 38,51 L 39,50 L 39,49 L 40,48 L 40,47 L 42,45 L 44,45 L 45,44 L 45,43 L 47,41 L 47,40 L 48,39 L 48,38 L 49,37 L 49,35 L 50,34 L 50,32 L 51,31 L 51,30 L 50,29 Z" fill="none" stroke="black" stroke-width="1"/>
</svg>