<svg xmlns="http://www.w3.org/2000/svg" width="47" height="84">
  <path d="M 38,0 L 37,1 L 33,1 L 32,2 L 32,3 L 31,4 L 31,7 L 30,8 L 30,9 L 27,12 L 26,12 L 24,14 L 24,16 L 23,17 L 23,19 L 22,20 L 22,21 L 27,26 L 27,28 L 25,30 L 25,33 L 26,34 L 26,35 L 27,36 L 27,38 L 29,40 L 29,44 L 30,45 L 32,45 L 32,43 L 35,40 L 35,38 L 33,36 L 33,33 L 31,31 L 32,30 L 32,28 L 34,26 L 33,25 L 33,23 L 34,22 L 34,21 L 35,20 L 36,20 L 36,17 L 35,16 L 35,14 L 38,11 L 37,10 L 37,8 L 36,7 L 36,4 L 37,3 L 37,2 L 38,1 Z" fill="none" stroke="black" stroke-width="1"/>
</svg>