<svg xmlns="http://www.w3.org/2000/svg" width="53" height="73">
  <path d="M 3,14 L 2,15 L 2,16 L 1,17 L 1,19 L 0,20 L 0,23 L 1,24 L 1,25 L 0,26 L 0,27 L 1,28 L 1,29 L 2,30 L 2,31 L 1,32 L 1,43 L 3,45 L 6,45 L 8,47 L 9,47 L 10,48 L 13,48 L 13,45 L 14,44 L 14,42 L 19,37 L 21,37 L 23,39 L 25,39 L 27,37 L 27,34 L 28,33 L 29,33 L 30,32 L 30,30 L 29,29 L 27,29 L 26,28 L 26,27 L 25,26 L 25,25 L 24,25 L 22,23 L 22,19 L 20,17 L 20,16 L 15,16 L 13,14 L 12,14 L 10,16 L 5,16 L 4,15 L 4,14 Z" fill="none" stroke="black" stroke-width="1"/>
</svg>