<svg xmlns="http://www.w3.org/2000/svg" width="98" height="64">
  <path d="M 93,20 L 93,23 L 92,24 L 91,23 L 89,23 L 89,24 L 88,25 L 87,24 L 87,22 L 86,23 L 86,24 L 84,26 L 83,26 L 83,27 L 82,28 L 82,29 L 81,30 L 81,31 L 79,33 L 78,32 L 77,32 L 77,36 L 78,37 L 78,38 L 79,39 L 79,40 L 77,42 L 77,43 L 78,44 L 78,45 L 79,46 L 79,48 L 80,47 L 81,48 L 81,49 L 80,50 L 79,50 L 79,51 L 78,52 L 78,53 L 82,53 L 82,46 L 85,43 L 86,43 L 87,42 L 86,41 L 89,38 L 90,38 L 90,37 L 88,37 L 87,36 L 87,35 L 88,34 L 88,32 L 87,31 L 90,28 L 90,27 L 91,26 L 92,27 L 92,28 L 93,27 L 93,25 L 94,24 L 94,23 L 96,21 L 97,21 L 97,20 Z" fill="none" stroke="black" stroke-width="1"/>
</svg>