<svg xmlns="http://www.w3.org/2000/svg" width="58" height="88">
  <path d="M 33,70 L 33,71 L 35,73 L 36,73 L 36,70 L 35,71 L 34,70 Z" fill="none" stroke="black" stroke-width="1"/>
  <path d="M 41,56 L 40,57 L 40,59 L 41,60 L 40,61 L 39,61 L 38,60 L 37,60 L 36,59 L 35,59 L 35,60 L 36,61 L 36,62 L 37,63 L 36,64 L 35,64 L 34,63 L 34,62 L 33,61 L 32,62 L 34,64 L 34,65 L 36,67 L 36,68 L 37,68 L 39,70 L 39,67 L 38,66 L 38,65 L 37,64 L 39,62 L 43,66 L 43,68 L 42,69 L 42,71 L 43,71 L 44,72 L 44,74 L 45,75 L 45,77 L 47,79 L 47,81 L 48,82 L 48,87 L 49,87 L 50,86 L 55,86 L 57,84 L 57,78 L 55,76 L 55,69 L 54,68 L 53,68 L 51,70 L 49,68 L 49,67 L 48,66 L 48,59 L 47,58 L 47,57 L 46,57 L 45,56 Z" fill="none" stroke="black" stroke-width="1"/>
</svg>