<svg xmlns="http://www.w3.org/2000/svg" width="73" height="61">
  <path d="M 58,24 L 58,28 L 56,30 L 56,31 L 55,32 L 51,32 L 50,33 L 51,34 L 51,35 L 52,35 L 53,34 L 54,35 L 54,36 L 53,37 L 53,40 L 54,41 L 54,42 L 55,43 L 55,48 L 56,49 L 55,50 L 55,52 L 56,53 L 56,60 L 60,56 L 61,56 L 61,53 L 62,52 L 64,52 L 64,51 L 65,50 L 67,50 L 67,40 L 68,39 L 68,38 L 69,37 L 72,37 L 72,33 L 70,35 L 69,35 L 68,34 L 68,31 L 67,30 L 67,29 L 66,28 L 65,28 L 63,26 L 62,26 L 60,24 Z" fill="none" stroke="black" stroke-width="1"/>
</svg>