<svg xmlns="http://www.w3.org/2000/svg" width="35" height="88">
  <path d="M 6,61 L 6,63 L 5,64 L 5,66 L 5,65 L 6,64 Z" fill="none" stroke="black" stroke-width="1"/>
  <path d="M 3,54 L 3,55 Z" fill="none" stroke="black" stroke-width="1"/>
  <path d="M 2,51 L 1,52 L 2,52 L 3,51 Z" fill="none" stroke="black" stroke-width="1"/>
  <path d="M 7,47 L 7,52 L 8,51 L 8,48 Z" fill="none" stroke="black" stroke-width="1"/>
  <path d="M 17,40 L 16,41 L 14,41 L 13,42 L 12,42 L 12,45 L 13,46 L 12,47 L 12,49 L 11,50 L 13,52 L 12,53 L 11,53 L 11,54 L 13,56 L 13,59 L 12,60 L 9,57 L 9,59 L 11,59 L 12,60 L 11,61 L 9,61 L 8,62 L 8,65 L 9,64 L 10,64 L 10,62 L 11,61 L 12,62 L 13,62 L 14,63 L 14,64 L 13,65 L 13,68 L 14,69 L 14,71 L 13,72 L 13,75 L 12,76 L 12,77 L 10,79 L 9,79 L 9,81 L 10,82 L 10,87 L 11,87 L 14,84 L 14,82 L 15,81 L 15,79 L 16,78 L 16,75 L 17,74 L 18,74 L 19,73 L 20,73 L 20,72 L 21,71 L 21,70 L 22,69 L 22,68 L 23,67 L 23,66 L 27,62 L 27,61 L 26,60 L 26,56 L 24,54 L 24,51 L 23,50 L 23,48 L 20,45 L 20,44 L 19,43 L 19,41 L 18,40 Z" fill="none" stroke="black" stroke-width="1"/>
</svg>