<svg xmlns="http://www.w3.org/2000/svg" width="72" height="70">
  <path d="M 37,8 L 38,9 L 38,12 L 37,13 L 37,15 L 38,16 L 38,17 L 39,18 L 39,24 L 38,25 L 38,29 L 40,31 L 40,32 L 41,33 L 41,37 L 42,38 L 42,45 L 41,46 L 41,56 L 42,56 L 43,57 L 44,56 L 44,54 L 46,52 L 47,52 L 48,53 L 54,53 L 57,50 L 58,50 L 59,49 L 59,48 L 62,45 L 63,45 L 63,44 L 62,44 L 61,43 L 61,41 L 60,41 L 59,40 L 59,38 L 58,38 L 57,37 L 57,34 L 55,34 L 54,33 L 54,26 L 53,26 L 51,24 L 51,17 L 49,17 L 48,16 L 48,15 L 46,15 L 45,14 L 45,12 L 44,12 L 43,11 L 43,9 L 39,9 L 38,8 Z" fill="none" stroke="black" stroke-width="1"/>
</svg>