<svg xmlns="http://www.w3.org/2000/svg" width="104" height="44">
  <path d="M 53,0 L 51,2 L 49,2 L 48,3 L 45,3 L 43,1 L 38,1 L 36,3 L 35,3 L 34,2 L 33,2 L 32,1 L 31,1 L 31,2 L 30,3 L 28,1 L 28,3 L 27,4 L 28,4 L 31,7 L 31,9 L 32,10 L 32,13 L 33,13 L 34,14 L 35,14 L 36,15 L 36,16 L 38,16 L 39,17 L 39,19 L 40,18 L 41,19 L 42,19 L 43,20 L 43,22 L 45,24 L 45,31 L 46,32 L 51,32 L 51,30 L 52,29 L 60,29 L 61,28 L 71,28 L 71,24 L 72,23 L 76,23 L 76,20 L 74,20 L 70,16 L 70,13 L 69,12 L 66,12 L 65,11 L 65,9 L 64,9 L 63,8 L 62,8 L 61,7 L 61,5 L 60,4 L 57,4 L 56,3 L 56,2 L 54,0 Z" fill="none" stroke="black" stroke-width="1"/>
</svg>