<svg xmlns="http://www.w3.org/2000/svg" width="83" height="64">
  <path d="M 1,0 L 0,1 L 0,22 L 1,23 L 1,24 L 2,24 L 3,25 L 3,26 L 5,26 L 6,27 L 6,28 L 10,28 L 11,29 L 13,29 L 14,30 L 15,30 L 16,31 L 16,34 L 17,35 L 17,40 L 21,40 L 22,41 L 22,42 L 26,42 L 27,43 L 27,44 L 27,41 L 26,40 L 27,39 L 28,39 L 26,37 L 26,36 L 27,35 L 27,28 L 26,27 L 26,22 L 27,21 L 27,20 L 28,19 L 28,10 L 27,9 L 27,7 L 26,8 L 25,8 L 24,9 L 19,9 L 18,10 L 17,9 L 13,9 L 12,8 L 12,7 L 10,7 L 6,3 L 5,3 L 2,0 Z" fill="none" stroke="black" stroke-width="1"/>
</svg>