<svg xmlns="http://www.w3.org/2000/svg" width="90" height="85">
  <path d="M 41,0 L 39,2 L 37,2 L 37,7 L 35,9 L 33,9 L 32,10 L 29,10 L 29,12 L 28,13 L 27,13 L 26,14 L 26,18 L 27,19 L 27,21 L 28,22 L 28,24 L 27,25 L 27,27 L 26,28 L 27,28 L 28,29 L 29,29 L 30,30 L 30,31 L 31,32 L 32,32 L 35,35 L 35,36 L 37,36 L 38,35 L 39,35 L 40,34 L 41,34 L 42,33 L 44,35 L 46,35 L 48,37 L 49,37 L 52,34 L 55,34 L 55,33 L 56,32 L 57,32 L 61,28 L 61,27 L 66,22 L 65,21 L 65,20 L 64,19 L 64,18 L 63,17 L 64,16 L 63,15 L 63,13 L 60,13 L 59,14 L 56,14 L 54,12 L 52,12 L 51,11 L 51,8 L 52,7 L 52,5 L 49,2 L 45,2 L 44,1 L 43,1 L 42,0 Z" fill="none" stroke="black" stroke-width="1"/>
</svg>