<svg xmlns="http://www.w3.org/2000/svg" width="109" height="87">
  <path d="M 23,25 L 21,27 L 15,27 L 15,28 L 14,29 L 14,30 L 13,31 L 12,31 L 10,33 L 7,33 L 6,34 L 5,34 L 3,36 L 3,38 L 4,39 L 4,42 L 3,43 L 3,44 L 1,46 L 0,46 L 0,47 L 2,49 L 2,52 L 3,53 L 3,54 L 2,55 L 5,55 L 6,56 L 6,59 L 10,59 L 12,61 L 12,62 L 14,62 L 14,61 L 15,60 L 16,60 L 17,59 L 18,60 L 20,60 L 21,61 L 22,61 L 23,62 L 24,62 L 25,63 L 25,64 L 26,64 L 27,65 L 32,65 L 33,66 L 33,67 L 34,67 L 35,66 L 36,66 L 37,65 L 38,65 L 39,64 L 41,64 L 42,63 L 43,63 L 45,61 L 46,61 L 47,60 L 48,60 L 48,59 L 47,58 L 47,57 L 46,56 L 46,54 L 49,51 L 49,50 L 50,49 L 54,49 L 54,48 L 53,48 L 50,45 L 50,44 L 51,43 L 52,43 L 46,43 L 45,44 L 44,44 L 43,43 L 43,39 L 41,39 L 40,38 L 39,38 L 38,37 L 36,37 L 33,34 L 33,33 L 32,32 L 31,32 L 30,31 L 27,31 L 26,30 L 26,29 L 24,27 L 24,25 Z" fill="none" stroke="black" stroke-width="1"/>
</svg>