<svg xmlns="http://www.w3.org/2000/svg" width="39" height="43">
  <path d="M 28,2 L 27,3 L 21,3 L 20,4 L 18,4 L 17,5 L 16,5 L 16,6 L 12,10 L 10,10 L 10,11 L 8,13 L 10,13 L 13,10 L 17,10 L 18,11 L 17,12 L 17,13 L 19,15 L 18,16 L 18,17 L 19,16 L 20,16 L 21,15 L 21,14 L 22,13 L 25,13 L 25,11 L 27,9 L 28,9 L 30,11 L 32,11 L 33,10 L 34,10 L 34,9 L 35,8 L 38,8 L 38,6 L 37,5 L 35,5 L 34,4 L 34,3 L 33,4 L 31,2 Z" fill="none" stroke="black" stroke-width="1"/>
  <path d="M 12,0 L 11,1 L 11,3 L 13,5 L 13,6 L 14,5 L 14,4 L 15,3 L 16,3 L 17,2 L 16,2 L 15,1 L 15,0 Z" fill="none" stroke="black" stroke-width="1"/>
</svg>