<svg xmlns="http://www.w3.org/2000/svg" width="90" height="58">
  <path d="M 45,0 L 45,6 L 44,7 L 44,8 L 43,9 L 43,11 L 42,12 L 42,14 L 41,15 L 39,15 L 35,19 L 35,23 L 39,23 L 40,24 L 40,28 L 41,29 L 41,36 L 46,36 L 47,35 L 50,35 L 55,30 L 57,30 L 58,29 L 60,29 L 63,26 L 67,26 L 68,25 L 71,25 L 72,26 L 74,26 L 75,27 L 77,27 L 78,28 L 81,28 L 82,27 L 84,27 L 85,26 L 85,25 L 84,24 L 84,23 L 83,22 L 83,20 L 84,19 L 84,17 L 85,16 L 85,15 L 87,13 L 87,12 L 88,11 L 88,10 L 87,9 L 87,8 L 86,8 L 85,7 L 84,7 L 83,6 L 80,6 L 79,7 L 72,7 L 69,4 L 64,4 L 61,7 L 60,7 L 59,8 L 56,8 L 55,7 L 54,7 L 48,1 L 47,1 L 46,0 Z" fill="none" stroke="black" stroke-width="1"/>
</svg>