<svg xmlns="http://www.w3.org/2000/svg" width="90" height="58">
  <path d="M 68,26 L 67,27 L 63,27 L 60,30 L 58,30 L 57,31 L 55,31 L 50,36 L 47,36 L 46,37 L 40,37 L 40,40 L 42,42 L 42,47 L 43,48 L 44,48 L 47,51 L 48,51 L 49,52 L 49,57 L 51,57 L 52,56 L 55,56 L 56,57 L 58,55 L 59,55 L 60,54 L 65,54 L 67,52 L 68,52 L 69,51 L 73,51 L 74,50 L 74,49 L 75,48 L 82,48 L 83,47 L 83,46 L 85,44 L 85,41 L 86,40 L 87,40 L 87,39 L 88,38 L 88,37 L 89,36 L 89,33 L 88,32 L 88,31 L 86,29 L 85,29 L 84,28 L 82,28 L 81,29 L 78,29 L 77,28 L 75,28 L 74,27 L 72,27 L 71,26 Z" fill="none" stroke="black" stroke-width="1"/>
</svg>