<svg xmlns="http://www.w3.org/2000/svg" width="64" height="77">
  <path d="M 9,0 L 7,2 L 7,3 L 6,4 L 6,6 L 5,7 L 5,9 L 6,10 L 6,11 L 7,12 L 7,13 L 6,14 L 6,15 L 7,15 L 10,18 L 10,19 L 11,20 L 11,23 L 10,24 L 11,24 L 12,25 L 18,25 L 19,26 L 23,26 L 24,25 L 27,25 L 28,26 L 31,26 L 33,28 L 33,29 L 34,30 L 34,32 L 37,32 L 37,31 L 38,30 L 38,29 L 41,26 L 42,26 L 43,25 L 44,25 L 44,24 L 45,23 L 46,23 L 46,22 L 47,21 L 48,21 L 49,20 L 49,18 L 48,17 L 48,14 L 47,13 L 46,13 L 45,12 L 40,12 L 39,11 L 39,10 L 34,10 L 33,9 L 32,9 L 31,8 L 31,7 L 30,7 L 29,6 L 28,6 L 27,5 L 25,5 L 24,4 L 23,5 L 22,5 L 22,6 L 21,7 L 19,7 L 18,6 L 18,5 L 17,4 L 13,4 L 12,3 L 12,0 Z" fill="none" stroke="black" stroke-width="1"/>
</svg>