<svg xmlns="http://www.w3.org/2000/svg" width="64" height="77">
  <path d="M 43,26 L 42,27 L 41,27 L 39,29 L 39,30 L 38,31 L 38,32 L 37,33 L 33,33 L 33,34 L 30,37 L 30,38 L 28,40 L 28,41 L 27,42 L 26,42 L 25,43 L 26,43 L 27,44 L 27,46 L 28,47 L 28,48 L 30,50 L 31,50 L 32,51 L 33,51 L 34,52 L 35,52 L 36,53 L 36,56 L 37,57 L 37,58 L 38,59 L 38,63 L 39,64 L 39,66 L 40,66 L 41,65 L 43,65 L 45,63 L 47,63 L 48,64 L 48,65 L 50,67 L 51,67 L 52,66 L 52,63 L 53,62 L 55,62 L 55,61 L 57,59 L 57,58 L 56,58 L 55,57 L 56,56 L 56,53 L 55,52 L 56,51 L 57,51 L 59,49 L 60,49 L 61,48 L 61,47 L 60,46 L 60,44 L 61,43 L 61,42 L 63,40 L 63,36 L 62,35 L 62,34 L 61,33 L 61,31 L 58,31 L 57,30 L 56,30 L 54,28 L 53,28 L 52,27 L 45,27 L 44,26 Z" fill="none" stroke="black" stroke-width="1"/>
</svg>