<svg xmlns="http://www.w3.org/2000/svg" width="110" height="75">
  <path d="M 61,28 L 60,29 L 58,29 L 58,30 L 56,32 L 55,32 L 54,33 L 52,33 L 50,35 L 49,35 L 47,33 L 43,33 L 42,34 L 42,35 L 41,36 L 41,39 L 38,42 L 38,43 L 37,44 L 36,44 L 38,46 L 38,47 L 39,48 L 39,50 L 38,51 L 38,55 L 41,58 L 41,59 L 42,60 L 42,61 L 43,62 L 46,62 L 47,63 L 47,64 L 50,64 L 53,67 L 53,68 L 54,68 L 56,70 L 58,70 L 59,71 L 59,73 L 60,73 L 61,74 L 64,74 L 66,72 L 71,72 L 72,73 L 73,73 L 73,71 L 74,70 L 74,68 L 76,66 L 76,65 L 77,64 L 77,56 L 78,55 L 78,52 L 79,51 L 79,50 L 81,48 L 82,48 L 86,44 L 87,44 L 88,43 L 88,42 L 86,42 L 85,41 L 84,41 L 83,40 L 82,40 L 80,38 L 79,38 L 76,35 L 75,35 L 74,34 L 70,34 L 69,33 L 69,31 L 66,28 Z" fill="none" stroke="black" stroke-width="1"/>
</svg>