<svg xmlns="http://www.w3.org/2000/svg" width="131" height="113">
  <path d="M 23,68 L 22,69 L 20,69 L 19,70 L 17,70 L 14,73 L 13,73 L 12,74 L 10,74 L 8,72 L 7,73 L 6,73 L 7,74 L 7,77 L 6,78 L 7,78 L 8,79 L 8,80 L 6,82 L 6,83 L 5,84 L 3,84 L 3,87 L 1,89 L 0,89 L 0,92 L 1,92 L 2,93 L 2,97 L 3,97 L 4,98 L 4,100 L 5,101 L 8,101 L 9,102 L 13,102 L 14,103 L 14,105 L 15,106 L 15,108 L 17,108 L 18,109 L 21,109 L 22,110 L 23,110 L 25,112 L 28,109 L 29,109 L 31,107 L 37,107 L 38,106 L 39,106 L 40,105 L 40,104 L 41,103 L 41,102 L 42,101 L 42,100 L 44,98 L 44,97 L 45,96 L 45,90 L 46,89 L 46,82 L 44,80 L 44,77 L 43,76 L 42,76 L 41,75 L 41,73 L 40,72 L 40,71 L 36,71 L 35,72 L 31,72 L 28,69 L 26,69 L 25,68 Z" fill="none" stroke="black" stroke-width="1"/>
</svg>