<svg xmlns="http://www.w3.org/2000/svg" width="131" height="113">
  <path d="M 74,54 L 73,55 L 71,55 L 70,56 L 69,56 L 67,58 L 66,57 L 58,57 L 57,58 L 54,58 L 54,63 L 51,66 L 50,66 L 49,67 L 48,67 L 47,68 L 44,68 L 43,69 L 43,70 L 42,71 L 41,71 L 41,72 L 42,73 L 42,75 L 43,75 L 45,77 L 45,80 L 47,82 L 47,89 L 46,90 L 46,96 L 45,97 L 45,98 L 43,100 L 43,101 L 44,101 L 46,103 L 47,103 L 48,104 L 48,105 L 47,106 L 47,107 L 48,108 L 48,109 L 55,109 L 55,108 L 56,107 L 66,107 L 66,105 L 67,104 L 68,104 L 69,103 L 71,103 L 71,101 L 72,100 L 73,100 L 73,97 L 74,96 L 82,96 L 83,95 L 83,79 L 81,77 L 81,75 L 82,74 L 82,73 L 83,72 L 83,71 L 84,70 L 84,69 L 85,68 L 85,67 L 86,66 L 86,65 L 88,63 L 88,61 L 87,60 L 86,60 L 85,59 L 84,59 L 81,56 L 79,56 L 77,54 Z" fill="none" stroke="black" stroke-width="1"/>
</svg>