<svg xmlns="http://www.w3.org/2000/svg" width="77" height="84">
  <path d="M 36,0 L 35,1 L 35,2 L 34,3 L 34,5 L 33,6 L 33,7 L 32,8 L 32,9 L 31,10 L 31,11 L 30,12 L 30,13 L 29,14 L 29,18 L 30,19 L 30,23 L 33,23 L 34,24 L 35,24 L 36,25 L 37,25 L 38,26 L 42,26 L 44,28 L 45,28 L 47,30 L 48,30 L 49,31 L 49,32 L 56,32 L 58,30 L 58,27 L 59,26 L 59,25 L 60,24 L 60,23 L 61,22 L 61,21 L 63,19 L 64,19 L 65,18 L 69,18 L 70,17 L 70,16 L 71,15 L 71,13 L 70,13 L 69,12 L 69,11 L 70,10 L 66,6 L 65,6 L 63,4 L 62,4 L 60,2 L 60,1 L 59,0 L 56,0 L 55,1 L 54,1 L 53,2 L 52,2 L 52,3 L 50,5 L 47,5 L 46,4 L 44,4 L 43,3 L 42,3 L 41,2 L 41,1 L 40,0 Z" fill="none" stroke="black" stroke-width="1"/>
</svg>