<svg xmlns="http://www.w3.org/2000/svg" width="180" height="137">
  <path d="M 121,74 L 120,75 L 118,75 L 117,76 L 110,76 L 110,80 L 109,81 L 109,82 L 106,85 L 105,85 L 104,84 L 99,84 L 98,85 L 97,85 L 96,86 L 87,86 L 86,85 L 83,85 L 82,84 L 81,84 L 79,82 L 78,82 L 77,81 L 72,81 L 71,80 L 70,80 L 69,79 L 68,79 L 67,78 L 63,78 L 62,79 L 60,79 L 58,81 L 52,81 L 51,82 L 50,82 L 51,83 L 51,85 L 53,87 L 53,88 L 54,89 L 54,95 L 53,96 L 53,99 L 54,100 L 54,102 L 55,103 L 56,103 L 57,104 L 57,105 L 58,106 L 58,112 L 59,113 L 59,114 L 60,115 L 60,119 L 67,119 L 68,120 L 71,120 L 72,121 L 82,121 L 83,120 L 84,120 L 85,121 L 90,121 L 91,122 L 91,124 L 96,124 L 100,128 L 103,128 L 104,127 L 110,127 L 111,128 L 129,128 L 130,127 L 129,127 L 128,126 L 130,124 L 133,124 L 133,120 L 132,119 L 132,112 L 133,111 L 134,111 L 134,107 L 135,106 L 135,104 L 138,101 L 138,100 L 139,99 L 139,97 L 137,95 L 137,93 L 136,92 L 136,89 L 137,88 L 137,86 L 138,85 L 138,84 L 139,83 L 140,83 L 140,82 L 138,80 L 138,79 L 134,79 L 133,78 L 130,78 L 129,77 L 128,77 L 127,76 L 126,76 L 125,75 L 124,75 L 123,74 Z" fill="none" stroke="black" stroke-width="1"/>
</svg>