<svg xmlns="http://www.w3.org/2000/svg" width="105" height="58">
  <path d="M 39,13 L 38,14 L 37,14 L 36,15 L 35,15 L 34,16 L 26,16 L 25,17 L 21,17 L 20,18 L 20,19 L 23,22 L 23,24 L 21,26 L 21,27 L 20,28 L 23,31 L 25,31 L 26,30 L 27,30 L 28,31 L 29,31 L 32,34 L 32,35 L 31,36 L 35,36 L 36,37 L 37,37 L 38,38 L 38,40 L 40,42 L 41,42 L 42,41 L 44,41 L 45,40 L 51,40 L 52,41 L 56,41 L 57,42 L 64,42 L 64,41 L 66,39 L 66,35 L 68,33 L 68,32 L 65,29 L 65,26 L 64,26 L 63,25 L 63,24 L 61,24 L 60,23 L 59,23 L 58,22 L 57,22 L 50,15 L 48,15 L 47,14 L 45,14 L 44,13 Z" fill="none" stroke="black" stroke-width="1"/>
</svg>