<svg xmlns="http://www.w3.org/2000/svg" width="92" height="59">
  <path d="M 13,5 L 12,6 L 11,6 L 10,7 L 9,7 L 9,8 L 7,10 L 4,10 L 3,11 L 3,13 L 2,14 L 2,15 L 3,16 L 3,17 L 4,17 L 6,19 L 7,19 L 8,20 L 8,22 L 7,23 L 7,24 L 8,25 L 8,27 L 7,28 L 7,31 L 6,32 L 6,34 L 5,35 L 5,36 L 4,37 L 4,38 L 1,41 L 0,41 L 1,41 L 2,42 L 3,42 L 9,48 L 9,50 L 12,53 L 15,53 L 16,52 L 17,52 L 18,53 L 19,53 L 20,52 L 20,51 L 21,50 L 21,49 L 22,48 L 23,48 L 23,47 L 24,46 L 26,46 L 27,45 L 28,45 L 28,44 L 29,43 L 29,37 L 28,36 L 28,32 L 30,30 L 30,27 L 31,26 L 31,25 L 25,19 L 25,12 L 24,11 L 25,10 L 26,10 L 25,9 L 24,9 L 23,8 L 23,6 L 22,6 L 21,7 L 20,7 L 19,6 L 19,5 L 18,6 L 17,6 L 16,7 L 15,7 Z" fill="none" stroke="black" stroke-width="1"/>
</svg>