<svg xmlns="http://www.w3.org/2000/svg" width="120" height="84">
  <path d="M 40,0 L 39,1 L 39,2 L 38,3 L 34,3 L 33,2 L 31,2 L 30,1 L 24,1 L 22,3 L 19,3 L 18,4 L 15,4 L 15,5 L 14,6 L 14,7 L 13,8 L 11,8 L 10,9 L 8,9 L 7,10 L 6,10 L 6,11 L 5,12 L 5,14 L 4,15 L 3,15 L 1,17 L 1,19 L 0,20 L 0,22 L 2,22 L 3,23 L 4,22 L 5,22 L 6,21 L 7,21 L 8,20 L 9,20 L 11,22 L 11,23 L 12,23 L 13,24 L 16,24 L 17,25 L 18,25 L 19,26 L 20,26 L 21,27 L 20,28 L 25,28 L 26,29 L 27,29 L 28,30 L 29,30 L 30,29 L 32,29 L 33,30 L 33,32 L 35,32 L 36,33 L 39,33 L 40,32 L 40,31 L 42,29 L 42,28 L 43,27 L 48,27 L 49,26 L 50,26 L 50,22 L 51,21 L 51,20 L 52,19 L 52,18 L 53,17 L 53,16 L 54,15 L 54,14 L 56,12 L 54,12 L 50,8 L 50,6 L 45,1 L 44,1 L 43,0 Z" fill="none" stroke="black" stroke-width="1"/>
</svg>