<svg xmlns="http://www.w3.org/2000/svg" width="155" height="369">
  <path d="M 129,147 L 128,148 L 124,148 L 123,149 L 119,149 L 118,150 L 116,150 L 115,151 L 114,151 L 113,152 L 113,154 L 112,155 L 110,155 L 109,156 L 101,156 L 100,155 L 96,155 L 95,156 L 94,156 L 91,159 L 91,160 L 90,161 L 89,160 L 88,160 L 87,161 L 79,161 L 78,162 L 77,162 L 74,165 L 73,165 L 70,168 L 69,168 L 67,170 L 67,171 L 66,172 L 66,173 L 65,174 L 65,175 L 63,177 L 63,178 L 55,186 L 55,187 L 54,188 L 54,193 L 53,194 L 53,195 L 52,196 L 52,199 L 53,200 L 54,200 L 55,201 L 57,201 L 58,202 L 58,206 L 60,208 L 60,210 L 63,213 L 63,214 L 64,215 L 64,216 L 69,221 L 70,221 L 71,222 L 71,223 L 72,224 L 72,225 L 73,226 L 73,227 L 74,228 L 74,232 L 75,233 L 75,248 L 76,249 L 76,251 L 81,256 L 82,256 L 83,257 L 84,257 L 86,259 L 87,259 L 90,262 L 90,263 L 91,264 L 91,265 L 92,266 L 92,267 L 93,267 L 96,264 L 96,263 L 98,261 L 99,261 L 100,260 L 101,260 L 106,255 L 106,254 L 112,248 L 116,248 L 117,247 L 122,247 L 123,246 L 125,246 L 126,245 L 127,245 L 127,244 L 128,243 L 129,243 L 130,242 L 131,242 L 131,241 L 136,236 L 137,236 L 141,232 L 141,231 L 142,230 L 142,229 L 143,228 L 143,227 L 144,226 L 145,226 L 148,223 L 148,222 L 149,221 L 150,221 L 150,217 L 151,216 L 151,210 L 152,209 L 152,207 L 153,206 L 153,203 L 154,202 L 154,196 L 153,195 L 153,194 L 152,194 L 149,191 L 149,190 L 148,189 L 148,188 L 147,187 L 147,186 L 146,185 L 146,184 L 145,183 L 145,178 L 144,177 L 144,174 L 143,173 L 143,159 L 142,158 L 142,155 L 141,154 L 141,152 L 137,148 L 136,148 L 135,147 Z" fill="none" stroke="black" stroke-width="1"/>
</svg>