<svg xmlns="http://www.w3.org/2000/svg" width="240" height="239">
  <path d="M 38,48 L 37,49 L 31,49 L 30,50 L 14,50 L 12,52 L 11,52 L 5,58 L 5,60 L 4,61 L 4,63 L 3,64 L 3,68 L 2,69 L 2,72 L 1,73 L 1,81 L 0,82 L 0,84 L 1,85 L 1,87 L 2,88 L 2,89 L 1,90 L 1,91 L 0,92 L 0,93 L 2,95 L 2,97 L 3,98 L 3,100 L 2,101 L 2,102 L 7,102 L 8,103 L 9,103 L 10,104 L 12,104 L 14,106 L 17,106 L 18,107 L 22,107 L 23,108 L 25,108 L 26,109 L 32,109 L 33,110 L 39,110 L 40,111 L 41,111 L 43,113 L 44,113 L 46,115 L 46,118 L 47,119 L 48,119 L 50,117 L 51,118 L 51,122 L 54,125 L 54,126 L 55,127 L 56,127 L 57,128 L 57,129 L 61,133 L 61,134 L 67,140 L 68,140 L 69,141 L 69,142 L 74,142 L 75,143 L 76,143 L 82,137 L 83,137 L 89,131 L 90,131 L 92,129 L 97,129 L 98,128 L 103,128 L 104,127 L 106,127 L 107,128 L 107,126 L 109,124 L 109,123 L 110,122 L 110,116 L 109,115 L 109,114 L 112,111 L 113,111 L 113,104 L 112,103 L 112,100 L 111,99 L 111,98 L 110,97 L 109,97 L 108,96 L 107,96 L 106,95 L 103,95 L 102,94 L 101,94 L 100,93 L 96,93 L 95,92 L 94,92 L 93,91 L 92,91 L 89,88 L 89,84 L 88,83 L 88,80 L 87,79 L 87,78 L 82,73 L 81,73 L 80,72 L 74,72 L 73,71 L 72,71 L 71,70 L 70,70 L 69,69 L 68,69 L 67,68 L 66,68 L 56,58 L 56,57 L 52,53 L 52,52 L 50,50 L 50,49 L 49,48 Z" fill="none" stroke="black" stroke-width="1"/>
</svg>