<svg xmlns="http://www.w3.org/2000/svg" width="240" height="239">
  <path d="M 103,0 L 102,1 L 102,2 L 101,3 L 101,4 L 100,5 L 99,5 L 99,6 L 98,7 L 98,9 L 96,11 L 95,11 L 90,16 L 90,18 L 88,20 L 88,22 L 82,28 L 82,29 L 78,33 L 77,33 L 76,34 L 74,34 L 73,35 L 70,35 L 69,36 L 67,36 L 65,38 L 64,38 L 61,41 L 60,41 L 60,42 L 57,45 L 56,45 L 53,48 L 50,48 L 51,49 L 51,50 L 53,52 L 53,53 L 57,57 L 57,58 L 66,67 L 67,67 L 68,68 L 69,68 L 70,69 L 71,69 L 72,70 L 73,70 L 74,71 L 80,71 L 81,72 L 82,72 L 88,78 L 88,79 L 89,80 L 89,83 L 90,84 L 90,88 L 92,90 L 93,90 L 94,91 L 95,91 L 96,92 L 100,92 L 101,93 L 102,93 L 103,94 L 106,94 L 107,95 L 108,95 L 109,96 L 110,96 L 112,98 L 112,99 L 112,98 L 113,97 L 114,97 L 115,96 L 116,96 L 116,95 L 117,94 L 118,94 L 118,93 L 119,92 L 120,92 L 121,91 L 123,91 L 124,90 L 127,90 L 128,89 L 129,89 L 130,88 L 132,88 L 133,87 L 137,87 L 141,83 L 142,83 L 142,82 L 148,76 L 148,72 L 149,71 L 149,66 L 150,65 L 150,60 L 151,59 L 152,59 L 154,57 L 155,57 L 155,56 L 156,55 L 157,55 L 158,54 L 159,54 L 160,53 L 162,53 L 163,52 L 164,52 L 165,51 L 166,51 L 167,50 L 168,50 L 168,49 L 169,48 L 173,48 L 174,47 L 175,47 L 175,46 L 176,45 L 177,45 L 178,44 L 182,44 L 182,43 L 183,42 L 184,42 L 185,41 L 186,41 L 187,40 L 187,39 L 188,38 L 188,36 L 189,35 L 189,33 L 187,31 L 187,30 L 186,29 L 186,28 L 181,28 L 180,27 L 178,27 L 177,26 L 176,26 L 175,25 L 171,25 L 170,24 L 169,24 L 168,23 L 158,23 L 151,16 L 150,16 L 147,13 L 146,13 L 144,11 L 143,11 L 142,10 L 140,10 L 139,9 L 135,9 L 134,8 L 124,8 L 118,2 L 116,2 L 115,1 L 114,1 L 113,0 Z" fill="none" stroke="black" stroke-width="1"/>
</svg>