<svg xmlns="http://www.w3.org/2000/svg" width="232" height="305">
  <path d="M 82,0 L 83,1 L 83,6 L 82,7 L 82,8 L 81,9 L 81,16 L 80,17 L 79,16 L 78,16 L 77,17 L 76,17 L 76,18 L 75,19 L 74,19 L 73,20 L 73,21 L 71,23 L 71,32 L 70,33 L 70,45 L 71,46 L 71,51 L 72,52 L 72,57 L 75,60 L 75,61 L 77,63 L 77,70 L 76,71 L 76,73 L 73,76 L 73,77 L 72,78 L 75,78 L 76,77 L 79,77 L 80,76 L 83,76 L 84,75 L 87,75 L 88,74 L 91,74 L 92,73 L 94,73 L 95,72 L 98,75 L 98,76 L 99,77 L 99,78 L 104,83 L 104,84 L 105,85 L 105,86 L 106,87 L 106,88 L 107,89 L 109,89 L 116,96 L 117,96 L 118,97 L 117,98 L 118,98 L 122,102 L 123,102 L 124,103 L 125,103 L 126,104 L 127,104 L 130,107 L 130,108 L 131,107 L 132,107 L 133,106 L 134,106 L 134,105 L 135,104 L 141,104 L 142,103 L 144,105 L 145,105 L 146,106 L 152,106 L 153,107 L 154,107 L 156,109 L 157,109 L 158,110 L 161,110 L 162,111 L 163,111 L 164,112 L 165,112 L 166,113 L 167,113 L 168,114 L 169,113 L 171,115 L 175,115 L 176,116 L 179,116 L 180,117 L 184,117 L 185,118 L 188,118 L 190,120 L 191,120 L 192,121 L 193,121 L 194,122 L 195,121 L 196,122 L 197,122 L 198,123 L 199,123 L 200,124 L 205,124 L 206,125 L 207,125 L 208,126 L 210,126 L 207,123 L 207,109 L 208,108 L 208,100 L 207,99 L 207,96 L 206,95 L 206,93 L 204,91 L 204,84 L 205,83 L 205,82 L 206,81 L 206,70 L 207,69 L 207,65 L 206,65 L 205,64 L 205,63 L 206,62 L 207,62 L 206,62 L 205,61 L 203,61 L 202,60 L 202,59 L 201,58 L 201,55 L 200,54 L 200,50 L 199,49 L 199,47 L 198,46 L 198,45 L 197,44 L 197,43 L 196,42 L 195,42 L 193,40 L 192,40 L 191,39 L 188,39 L 187,38 L 186,38 L 185,37 L 184,37 L 183,36 L 182,36 L 181,35 L 179,35 L 177,33 L 175,33 L 174,32 L 173,32 L 172,31 L 170,31 L 169,30 L 168,30 L 167,29 L 165,29 L 164,28 L 157,28 L 155,30 L 154,30 L 152,32 L 151,32 L 150,33 L 148,33 L 147,32 L 146,32 L 143,29 L 139,29 L 138,28 L 135,28 L 134,27 L 132,27 L 131,26 L 129,26 L 129,28 L 128,29 L 127,29 L 126,30 L 125,30 L 123,28 L 123,27 L 116,20 L 115,20 L 114,19 L 112,19 L 111,18 L 109,18 L 107,16 L 107,14 L 105,14 L 103,12 L 102,12 L 101,11 L 100,11 L 99,10 L 98,10 L 97,9 L 96,9 L 95,8 L 92,8 L 89,5 L 89,3 L 88,2 L 88,1 L 87,1 L 86,0 Z" fill="none" stroke="black" stroke-width="1"/>
</svg>