<svg xmlns="http://www.w3.org/2000/svg" width="305" height="231">
  <path d="M 10,0 L 10,1 L 11,1 L 12,2 L 12,6 L 11,7 L 11,18 L 10,19 L 10,20 L 9,21 L 9,28 L 11,30 L 11,32 L 12,33 L 12,36 L 13,37 L 13,45 L 12,46 L 12,60 L 16,64 L 16,65 L 17,66 L 17,68 L 19,70 L 19,71 L 21,73 L 24,73 L 28,77 L 29,77 L 30,78 L 30,80 L 31,81 L 31,82 L 32,83 L 33,83 L 34,84 L 35,84 L 36,85 L 36,86 L 35,87 L 35,88 L 36,87 L 37,87 L 38,86 L 39,86 L 37,84 L 38,83 L 40,83 L 43,80 L 43,79 L 45,77 L 53,77 L 54,76 L 56,76 L 57,77 L 58,77 L 59,78 L 60,78 L 61,79 L 62,78 L 63,79 L 64,79 L 65,80 L 66,80 L 68,82 L 69,82 L 70,83 L 82,83 L 83,84 L 84,84 L 85,85 L 86,85 L 87,86 L 88,86 L 89,87 L 100,87 L 101,86 L 102,87 L 103,87 L 104,88 L 106,88 L 107,89 L 110,89 L 111,88 L 114,88 L 115,89 L 116,89 L 117,90 L 118,90 L 119,91 L 120,91 L 121,90 L 123,90 L 124,91 L 125,91 L 126,92 L 127,92 L 128,93 L 129,93 L 130,92 L 132,92 L 133,93 L 134,93 L 135,94 L 136,94 L 137,95 L 139,95 L 140,94 L 144,94 L 145,95 L 145,96 L 148,99 L 149,99 L 150,100 L 153,100 L 163,110 L 164,110 L 165,109 L 167,109 L 170,106 L 172,106 L 177,101 L 179,101 L 180,100 L 181,100 L 185,96 L 186,96 L 188,94 L 189,94 L 190,93 L 191,93 L 192,92 L 195,92 L 196,91 L 197,91 L 198,90 L 199,90 L 201,88 L 209,88 L 207,86 L 206,86 L 205,85 L 204,85 L 203,84 L 202,84 L 199,81 L 198,81 L 195,78 L 195,77 L 194,76 L 194,75 L 193,74 L 193,68 L 192,67 L 192,61 L 191,60 L 191,58 L 191,59 L 189,61 L 185,61 L 184,62 L 183,62 L 182,63 L 180,63 L 178,61 L 178,60 L 177,59 L 177,57 L 174,54 L 174,52 L 170,48 L 170,47 L 168,45 L 167,45 L 165,43 L 162,43 L 161,42 L 159,42 L 158,41 L 156,41 L 151,36 L 150,36 L 149,35 L 148,35 L 145,32 L 143,32 L 142,31 L 141,31 L 139,29 L 138,29 L 137,28 L 131,28 L 130,27 L 128,27 L 127,26 L 126,26 L 121,21 L 121,18 L 120,17 L 120,14 L 119,13 L 118,13 L 117,12 L 114,12 L 113,11 L 110,11 L 109,10 L 108,10 L 107,9 L 104,9 L 102,7 L 101,7 L 100,6 L 98,6 L 97,5 L 95,5 L 94,4 L 90,4 L 89,3 L 74,3 L 73,4 L 66,4 L 65,3 L 59,3 L 57,5 L 47,5 L 46,4 L 45,4 L 44,3 L 43,3 L 42,2 L 41,2 L 40,1 L 33,1 L 32,2 L 15,2 L 14,1 L 13,1 L 12,0 Z" fill="none" stroke="black" stroke-width="1"/>
</svg>