<svg xmlns="http://www.w3.org/2000/svg" width="305" height="231">
  <path d="M 48,141 L 47,142 L 47,143 L 44,146 L 43,146 L 41,148 L 40,148 L 38,150 L 37,150 L 36,151 L 30,151 L 30,152 L 29,153 L 29,154 L 28,155 L 28,157 L 27,158 L 27,159 L 25,161 L 25,162 L 24,163 L 24,165 L 23,166 L 23,167 L 21,169 L 21,170 L 20,171 L 20,172 L 17,175 L 17,176 L 13,180 L 12,180 L 11,181 L 11,183 L 10,184 L 10,185 L 7,188 L 7,189 L 5,191 L 5,192 L 3,194 L 3,201 L 2,202 L 1,202 L 1,203 L 0,204 L 0,215 L 1,216 L 1,224 L 2,225 L 2,226 L 4,228 L 10,228 L 11,227 L 22,227 L 23,228 L 26,228 L 27,229 L 35,229 L 36,230 L 39,230 L 41,228 L 43,228 L 45,226 L 46,226 L 47,225 L 50,225 L 51,224 L 52,224 L 54,222 L 55,222 L 56,221 L 63,221 L 65,219 L 65,216 L 66,215 L 67,215 L 68,214 L 69,214 L 70,213 L 70,212 L 73,209 L 76,209 L 78,207 L 78,203 L 77,202 L 77,200 L 76,199 L 76,196 L 78,194 L 80,194 L 81,193 L 83,193 L 84,192 L 88,192 L 90,194 L 92,194 L 93,193 L 96,193 L 97,192 L 107,192 L 108,193 L 109,193 L 110,192 L 111,192 L 112,191 L 114,191 L 114,188 L 113,187 L 113,185 L 110,182 L 109,182 L 106,179 L 108,177 L 112,177 L 114,175 L 115,175 L 116,174 L 116,173 L 120,169 L 119,168 L 117,168 L 115,166 L 114,166 L 113,165 L 112,165 L 110,167 L 109,167 L 107,165 L 107,164 L 104,161 L 103,161 L 99,157 L 99,156 L 98,155 L 87,155 L 85,153 L 83,153 L 82,152 L 79,152 L 77,150 L 76,150 L 75,149 L 75,148 L 74,147 L 73,147 L 71,145 L 70,145 L 69,144 L 62,144 L 61,143 L 57,143 L 56,142 L 53,142 L 52,141 Z" fill="none" stroke="black" stroke-width="1"/>
</svg>