<svg xmlns="http://www.w3.org/2000/svg" width="240" height="239">
  <path d="M 148,77 L 143,82 L 143,83 L 142,84 L 141,84 L 137,88 L 133,88 L 132,89 L 130,89 L 129,90 L 128,90 L 127,91 L 124,91 L 123,92 L 121,92 L 120,93 L 119,93 L 119,94 L 118,95 L 117,95 L 117,96 L 116,97 L 115,97 L 114,98 L 113,98 L 113,103 L 114,104 L 114,111 L 113,112 L 112,112 L 110,114 L 110,115 L 111,116 L 111,122 L 110,123 L 110,124 L 108,126 L 108,128 L 107,129 L 106,128 L 104,128 L 103,129 L 98,129 L 97,130 L 92,130 L 90,132 L 89,132 L 83,138 L 82,138 L 77,143 L 77,145 L 76,146 L 76,153 L 78,153 L 79,154 L 79,155 L 81,155 L 82,154 L 85,154 L 86,155 L 89,155 L 90,156 L 96,156 L 97,157 L 99,157 L 100,158 L 102,156 L 103,157 L 103,158 L 104,159 L 105,159 L 106,160 L 112,160 L 113,161 L 116,161 L 117,162 L 120,162 L 121,163 L 133,163 L 134,162 L 139,162 L 140,161 L 144,161 L 145,160 L 153,160 L 154,161 L 155,161 L 156,162 L 157,162 L 158,161 L 164,161 L 165,162 L 169,162 L 171,164 L 176,164 L 177,163 L 177,162 L 178,161 L 178,160 L 180,158 L 180,157 L 181,156 L 181,155 L 186,150 L 187,150 L 189,148 L 190,148 L 191,147 L 192,147 L 194,145 L 195,145 L 196,144 L 197,144 L 201,140 L 201,139 L 202,138 L 202,137 L 203,136 L 203,130 L 202,129 L 202,122 L 203,121 L 203,114 L 202,113 L 202,111 L 199,111 L 198,112 L 196,112 L 192,108 L 192,107 L 191,108 L 190,107 L 186,107 L 185,106 L 183,106 L 182,105 L 182,104 L 181,103 L 180,103 L 179,102 L 178,102 L 178,103 L 177,104 L 176,104 L 175,105 L 174,105 L 173,106 L 172,106 L 169,109 L 167,109 L 164,106 L 164,105 L 163,105 L 161,103 L 161,102 L 158,99 L 158,98 L 157,98 L 155,96 L 155,95 L 153,93 L 153,88 L 154,87 L 153,86 L 153,85 L 152,84 L 152,81 L 151,80 L 151,78 L 150,78 L 149,77 Z" fill="none" stroke="black" stroke-width="1"/>
</svg>