<svg xmlns="http://www.w3.org/2000/svg" width="217" height="185">
  <path d="M 153,79 L 152,80 L 151,80 L 149,82 L 148,82 L 146,84 L 145,84 L 143,86 L 142,86 L 141,87 L 140,87 L 139,88 L 137,88 L 136,89 L 135,89 L 134,90 L 132,90 L 131,91 L 129,91 L 129,92 L 134,97 L 134,103 L 139,108 L 139,112 L 138,113 L 138,116 L 140,118 L 140,119 L 141,120 L 141,122 L 139,124 L 139,125 L 138,126 L 138,127 L 137,128 L 137,137 L 136,138 L 135,138 L 133,140 L 135,142 L 135,144 L 134,145 L 134,146 L 133,147 L 137,151 L 137,153 L 133,157 L 133,159 L 135,161 L 135,165 L 134,166 L 133,166 L 133,167 L 131,169 L 131,170 L 130,171 L 138,171 L 139,172 L 142,172 L 143,173 L 143,174 L 148,174 L 149,175 L 150,175 L 151,176 L 153,176 L 154,177 L 165,177 L 166,176 L 167,176 L 168,177 L 168,178 L 174,178 L 175,179 L 177,179 L 178,180 L 182,180 L 183,181 L 183,182 L 185,184 L 187,184 L 187,180 L 188,179 L 189,179 L 190,178 L 195,178 L 195,176 L 196,175 L 196,172 L 198,170 L 191,163 L 191,161 L 190,160 L 190,156 L 191,155 L 191,154 L 192,153 L 192,152 L 193,151 L 194,151 L 195,150 L 196,150 L 198,148 L 199,148 L 200,147 L 201,147 L 202,146 L 207,146 L 208,145 L 212,145 L 213,144 L 216,144 L 216,139 L 215,139 L 214,138 L 216,136 L 215,136 L 214,135 L 212,135 L 209,132 L 208,132 L 207,131 L 207,130 L 206,130 L 204,128 L 203,128 L 200,125 L 200,123 L 199,122 L 199,121 L 198,120 L 198,119 L 197,118 L 197,116 L 195,114 L 195,111 L 194,110 L 194,108 L 193,107 L 193,100 L 194,99 L 194,98 L 195,97 L 195,93 L 194,94 L 194,95 L 193,96 L 191,96 L 190,95 L 190,94 L 188,92 L 187,92 L 186,91 L 185,91 L 184,90 L 183,90 L 182,89 L 181,89 L 180,88 L 178,88 L 177,87 L 176,87 L 175,86 L 174,86 L 173,85 L 174,84 L 173,84 L 172,85 L 165,85 L 164,84 L 159,84 L 158,83 L 157,83 Z" fill="none" stroke="black" stroke-width="1"/>
</svg>