<svg xmlns="http://www.w3.org/2000/svg" width="355" height="237">
  <path d="M 153,110 L 153,111 L 152,112 L 151,112 L 150,113 L 149,113 L 144,118 L 143,118 L 142,117 L 138,117 L 137,116 L 131,116 L 129,118 L 128,118 L 128,124 L 132,128 L 132,134 L 133,135 L 133,138 L 132,139 L 132,140 L 130,142 L 130,153 L 131,154 L 131,163 L 130,164 L 130,165 L 131,164 L 132,165 L 132,166 L 131,167 L 131,170 L 130,171 L 130,173 L 129,174 L 129,176 L 128,177 L 128,178 L 127,179 L 127,182 L 126,183 L 126,185 L 125,186 L 125,187 L 124,188 L 124,189 L 123,190 L 123,191 L 122,192 L 122,194 L 121,195 L 121,197 L 120,198 L 120,200 L 119,201 L 119,202 L 118,203 L 118,205 L 117,206 L 117,208 L 116,209 L 116,214 L 115,215 L 115,216 L 114,217 L 113,217 L 111,219 L 111,220 L 110,221 L 110,222 L 109,223 L 108,223 L 108,225 L 109,225 L 110,224 L 113,224 L 115,226 L 116,226 L 117,227 L 117,230 L 118,231 L 118,232 L 120,234 L 120,235 L 123,235 L 124,236 L 136,236 L 136,234 L 137,233 L 137,229 L 139,227 L 146,227 L 147,226 L 148,226 L 149,225 L 151,225 L 152,224 L 153,224 L 154,223 L 155,223 L 156,222 L 159,222 L 160,221 L 161,221 L 162,220 L 163,220 L 164,219 L 167,219 L 168,218 L 169,218 L 171,216 L 172,216 L 173,215 L 174,215 L 176,213 L 177,213 L 177,211 L 179,209 L 185,209 L 186,210 L 189,210 L 190,211 L 192,211 L 193,210 L 196,210 L 198,212 L 200,210 L 200,209 L 202,207 L 203,207 L 203,206 L 208,201 L 221,201 L 222,202 L 229,202 L 231,200 L 232,200 L 232,199 L 233,198 L 238,198 L 239,199 L 239,184 L 240,183 L 240,181 L 242,179 L 242,178 L 243,177 L 243,176 L 247,172 L 247,171 L 249,169 L 249,168 L 251,166 L 251,155 L 250,154 L 250,153 L 249,153 L 248,152 L 244,152 L 243,151 L 238,151 L 237,152 L 236,151 L 236,143 L 235,142 L 233,142 L 231,140 L 229,140 L 228,139 L 227,139 L 226,138 L 225,138 L 224,137 L 222,137 L 221,136 L 220,136 L 219,135 L 217,135 L 216,134 L 215,134 L 214,133 L 204,133 L 203,132 L 202,132 L 201,131 L 200,131 L 199,130 L 198,130 L 197,129 L 196,129 L 195,128 L 194,128 L 193,127 L 191,127 L 186,122 L 185,122 L 177,114 L 177,113 L 175,111 L 173,111 L 172,110 Z" fill="none" stroke="black" stroke-width="1"/>
</svg>