<svg xmlns="http://www.w3.org/2000/svg" width="305" height="231">
  <path d="M 184,2 L 182,4 L 181,4 L 178,7 L 177,7 L 175,9 L 174,9 L 173,10 L 172,10 L 170,12 L 168,12 L 167,13 L 165,13 L 165,14 L 164,15 L 163,15 L 154,24 L 152,22 L 153,21 L 152,20 L 147,20 L 145,18 L 145,16 L 142,13 L 142,12 L 136,12 L 135,13 L 134,13 L 133,14 L 131,14 L 129,16 L 125,16 L 124,17 L 121,17 L 122,18 L 122,21 L 126,25 L 127,25 L 128,26 L 130,26 L 131,27 L 137,27 L 138,28 L 139,28 L 141,30 L 142,30 L 143,31 L 145,31 L 148,34 L 149,34 L 150,35 L 151,35 L 156,40 L 158,40 L 159,41 L 161,41 L 162,42 L 165,42 L 167,44 L 168,44 L 171,47 L 171,48 L 175,52 L 175,54 L 178,57 L 178,59 L 179,60 L 179,61 L 180,62 L 182,62 L 183,61 L 184,61 L 185,60 L 189,60 L 190,59 L 190,58 L 191,57 L 192,58 L 192,60 L 193,61 L 193,67 L 194,68 L 194,74 L 195,75 L 195,76 L 196,77 L 196,78 L 198,80 L 199,80 L 202,83 L 203,83 L 204,84 L 205,84 L 206,85 L 207,85 L 210,88 L 211,87 L 214,87 L 215,86 L 217,86 L 218,85 L 219,85 L 220,84 L 221,84 L 222,83 L 232,83 L 233,82 L 235,82 L 236,83 L 237,83 L 239,85 L 240,85 L 242,87 L 243,87 L 244,88 L 246,86 L 248,86 L 249,85 L 250,85 L 251,84 L 255,84 L 257,82 L 258,82 L 259,81 L 261,81 L 262,80 L 265,80 L 266,79 L 267,80 L 269,80 L 270,81 L 271,81 L 272,82 L 273,82 L 274,83 L 276,83 L 277,84 L 277,85 L 278,85 L 279,84 L 280,84 L 281,83 L 282,83 L 283,82 L 286,82 L 287,81 L 289,81 L 292,78 L 292,77 L 293,76 L 293,63 L 294,62 L 294,59 L 295,58 L 295,56 L 296,55 L 296,54 L 297,53 L 297,51 L 298,50 L 298,48 L 299,47 L 300,47 L 301,46 L 301,44 L 302,43 L 302,42 L 303,41 L 303,40 L 304,39 L 304,35 L 303,34 L 303,31 L 302,30 L 302,28 L 301,27 L 301,26 L 300,25 L 300,24 L 298,22 L 298,20 L 297,19 L 297,16 L 296,15 L 296,9 L 297,8 L 298,8 L 297,8 L 296,7 L 293,7 L 292,6 L 291,6 L 290,5 L 285,5 L 284,4 L 281,4 L 280,3 L 277,3 L 277,4 L 276,5 L 276,8 L 275,9 L 275,10 L 273,12 L 271,12 L 270,13 L 253,13 L 252,12 L 249,12 L 248,11 L 244,11 L 243,10 L 240,10 L 239,9 L 235,9 L 234,8 L 231,8 L 230,7 L 224,7 L 223,6 L 219,6 L 218,5 L 208,5 L 207,4 L 200,4 L 199,3 L 189,3 L 188,2 Z" fill="none" stroke="black" stroke-width="1"/>
</svg>