<svg xmlns="http://www.w3.org/2000/svg" width="355" height="237">
  <path d="M 50,0 L 48,2 L 42,2 L 41,3 L 40,3 L 37,6 L 36,6 L 35,7 L 31,7 L 30,8 L 29,8 L 28,9 L 27,9 L 28,10 L 27,11 L 26,11 L 26,17 L 27,18 L 27,21 L 28,22 L 28,24 L 30,26 L 30,27 L 31,28 L 31,29 L 32,30 L 32,32 L 33,33 L 33,36 L 34,37 L 34,41 L 33,42 L 33,43 L 32,44 L 32,45 L 31,46 L 31,48 L 29,50 L 28,50 L 28,52 L 27,53 L 27,55 L 26,56 L 26,57 L 25,58 L 25,60 L 24,61 L 24,64 L 23,65 L 23,78 L 22,79 L 22,80 L 20,82 L 21,83 L 22,83 L 23,84 L 25,84 L 26,85 L 27,85 L 28,86 L 30,86 L 31,87 L 38,87 L 39,88 L 40,88 L 41,89 L 43,89 L 44,90 L 45,90 L 46,89 L 49,89 L 50,90 L 51,90 L 52,91 L 54,91 L 55,92 L 59,92 L 60,93 L 61,93 L 62,94 L 62,95 L 63,96 L 66,96 L 67,97 L 67,98 L 69,98 L 71,100 L 72,100 L 73,101 L 74,101 L 75,102 L 78,102 L 79,103 L 83,103 L 84,104 L 87,104 L 88,105 L 92,105 L 93,106 L 96,106 L 97,107 L 101,107 L 102,108 L 105,108 L 106,107 L 107,108 L 108,108 L 109,107 L 109,106 L 108,105 L 107,105 L 106,104 L 106,102 L 107,101 L 107,100 L 108,99 L 108,98 L 110,96 L 110,95 L 111,94 L 113,94 L 116,91 L 118,91 L 119,90 L 121,90 L 122,89 L 132,89 L 133,88 L 134,88 L 135,87 L 137,87 L 138,86 L 138,85 L 142,81 L 142,80 L 143,79 L 144,79 L 154,69 L 155,69 L 156,68 L 158,68 L 159,67 L 167,67 L 168,66 L 170,66 L 171,65 L 182,65 L 187,60 L 188,60 L 190,58 L 193,58 L 194,57 L 195,57 L 195,56 L 196,55 L 197,55 L 206,46 L 207,46 L 208,45 L 205,45 L 203,43 L 203,42 L 202,41 L 201,41 L 200,40 L 199,40 L 198,39 L 196,39 L 193,36 L 193,35 L 192,35 L 188,31 L 183,31 L 182,30 L 180,30 L 179,29 L 178,29 L 177,28 L 176,28 L 174,26 L 172,26 L 171,27 L 169,27 L 168,26 L 162,26 L 161,25 L 160,25 L 159,24 L 156,24 L 155,23 L 154,23 L 153,22 L 153,21 L 152,21 L 151,20 L 151,19 L 148,16 L 148,14 L 147,13 L 146,13 L 145,12 L 143,12 L 142,11 L 141,11 L 140,10 L 135,10 L 133,8 L 129,8 L 128,9 L 123,9 L 122,8 L 119,8 L 118,7 L 113,7 L 112,6 L 105,6 L 104,5 L 99,5 L 98,4 L 95,4 L 94,3 L 86,3 L 85,2 L 55,2 L 54,1 L 53,1 L 52,0 Z" fill="none" stroke="black" stroke-width="1"/>
</svg>