<svg xmlns="http://www.w3.org/2000/svg" width="280" height="187">
  <path d="M 89,0 L 88,1 L 86,1 L 85,2 L 81,2 L 80,3 L 79,3 L 78,4 L 74,4 L 73,5 L 69,5 L 68,4 L 65,4 L 63,6 L 62,6 L 60,8 L 58,8 L 57,9 L 55,9 L 54,10 L 50,10 L 45,15 L 44,15 L 42,17 L 41,17 L 39,19 L 30,19 L 27,22 L 26,22 L 25,23 L 24,23 L 23,24 L 22,24 L 21,25 L 16,25 L 15,26 L 14,26 L 13,27 L 12,27 L 11,28 L 10,28 L 9,29 L 8,29 L 6,31 L 4,31 L 2,33 L 0,33 L 1,34 L 1,39 L 5,43 L 6,43 L 7,44 L 8,43 L 9,44 L 9,45 L 12,45 L 14,47 L 15,47 L 16,48 L 17,48 L 19,50 L 20,50 L 21,51 L 22,51 L 25,54 L 25,55 L 27,57 L 27,58 L 28,59 L 28,60 L 30,62 L 30,63 L 32,65 L 34,65 L 35,66 L 38,66 L 39,67 L 40,67 L 42,69 L 44,69 L 47,72 L 48,72 L 52,76 L 52,77 L 53,78 L 55,78 L 56,79 L 56,80 L 57,80 L 59,82 L 60,82 L 62,84 L 63,84 L 65,86 L 66,86 L 67,87 L 69,87 L 70,88 L 70,89 L 71,89 L 72,90 L 77,90 L 80,93 L 80,94 L 83,97 L 83,99 L 81,101 L 85,105 L 88,105 L 89,106 L 89,108 L 90,109 L 90,110 L 91,111 L 92,111 L 93,112 L 94,112 L 95,113 L 96,113 L 97,114 L 97,115 L 98,115 L 99,116 L 98,117 L 99,118 L 99,117 L 101,115 L 102,115 L 104,113 L 105,113 L 106,114 L 107,113 L 110,113 L 111,112 L 112,113 L 113,112 L 116,112 L 117,111 L 118,112 L 119,111 L 122,111 L 123,110 L 124,111 L 125,111 L 126,110 L 128,110 L 129,111 L 133,111 L 134,112 L 137,112 L 138,113 L 141,113 L 142,112 L 143,113 L 144,113 L 145,112 L 146,112 L 148,110 L 149,110 L 150,109 L 152,109 L 153,108 L 154,108 L 155,107 L 157,107 L 158,106 L 159,107 L 160,107 L 161,106 L 165,106 L 166,105 L 167,105 L 168,104 L 169,104 L 170,103 L 174,103 L 174,101 L 177,98 L 178,98 L 179,97 L 185,97 L 186,96 L 187,96 L 188,97 L 189,96 L 191,96 L 192,95 L 193,95 L 194,96 L 195,96 L 195,95 L 194,95 L 193,94 L 193,93 L 192,92 L 192,91 L 189,88 L 189,87 L 188,87 L 187,86 L 186,86 L 185,85 L 184,85 L 183,84 L 182,84 L 178,80 L 178,79 L 177,78 L 177,77 L 176,76 L 176,75 L 175,75 L 174,74 L 174,73 L 173,73 L 172,72 L 172,71 L 169,68 L 169,67 L 168,67 L 167,66 L 167,65 L 165,63 L 162,63 L 161,62 L 160,62 L 158,60 L 157,60 L 156,59 L 155,59 L 153,57 L 152,57 L 151,56 L 151,51 L 150,50 L 150,48 L 149,47 L 149,46 L 148,45 L 148,43 L 142,37 L 142,36 L 141,36 L 140,35 L 139,35 L 137,33 L 135,33 L 134,32 L 134,31 L 133,30 L 133,27 L 132,26 L 132,24 L 131,23 L 131,22 L 130,21 L 130,19 L 129,18 L 129,17 L 128,16 L 128,14 L 126,12 L 126,11 L 125,10 L 120,10 L 119,11 L 117,11 L 116,12 L 115,11 L 111,11 L 110,10 L 108,10 L 107,9 L 107,6 L 106,5 L 106,4 L 104,2 L 102,2 L 101,1 L 97,1 L 96,0 Z" fill="none" stroke="black" stroke-width="1"/>
</svg>