<svg xmlns="http://www.w3.org/2000/svg" width="415" height="237">
  <path d="M 115,0 L 115,1 L 113,3 L 112,3 L 112,4 L 111,5 L 110,5 L 110,11 L 109,12 L 108,12 L 108,14 L 107,15 L 106,14 L 106,16 L 105,17 L 104,17 L 104,19 L 103,20 L 103,26 L 102,27 L 102,31 L 101,32 L 100,32 L 100,33 L 99,34 L 98,34 L 96,36 L 95,36 L 94,37 L 93,37 L 93,39 L 92,40 L 91,40 L 91,46 L 90,47 L 90,51 L 89,52 L 89,56 L 88,57 L 88,61 L 87,62 L 86,62 L 86,63 L 87,63 L 88,62 L 102,62 L 103,63 L 106,63 L 108,65 L 109,65 L 110,66 L 110,67 L 114,71 L 114,72 L 115,72 L 116,73 L 116,74 L 121,79 L 121,80 L 122,80 L 128,86 L 129,86 L 131,88 L 132,88 L 134,90 L 135,90 L 137,92 L 138,92 L 141,95 L 142,95 L 143,96 L 147,96 L 149,98 L 150,98 L 151,99 L 152,99 L 153,100 L 153,101 L 154,102 L 154,108 L 155,109 L 155,111 L 156,112 L 156,113 L 158,115 L 160,115 L 161,116 L 162,116 L 164,118 L 168,118 L 169,119 L 171,119 L 175,123 L 176,123 L 179,126 L 179,127 L 180,127 L 181,128 L 181,129 L 182,129 L 183,130 L 184,130 L 187,133 L 188,133 L 189,134 L 190,134 L 191,135 L 193,135 L 194,136 L 196,136 L 197,137 L 199,137 L 200,138 L 201,138 L 202,139 L 203,139 L 204,140 L 211,140 L 212,139 L 213,139 L 215,141 L 216,141 L 217,142 L 217,143 L 218,143 L 219,144 L 219,145 L 224,145 L 225,146 L 226,145 L 228,145 L 229,146 L 230,146 L 231,145 L 232,145 L 233,144 L 235,144 L 237,142 L 239,142 L 238,141 L 239,140 L 239,139 L 240,138 L 241,138 L 241,137 L 242,136 L 243,136 L 245,134 L 246,134 L 247,133 L 248,133 L 249,132 L 250,132 L 251,131 L 254,131 L 254,130 L 255,129 L 253,127 L 253,126 L 252,125 L 252,124 L 248,120 L 248,119 L 247,118 L 247,117 L 245,117 L 243,115 L 242,115 L 240,113 L 240,111 L 239,110 L 239,109 L 238,108 L 238,107 L 237,106 L 237,104 L 236,103 L 236,88 L 237,87 L 236,86 L 236,84 L 237,83 L 237,71 L 236,70 L 236,69 L 235,68 L 235,66 L 234,65 L 233,65 L 232,64 L 233,63 L 233,61 L 234,60 L 230,56 L 230,55 L 229,54 L 229,52 L 228,51 L 228,50 L 227,49 L 227,47 L 222,42 L 219,42 L 218,41 L 218,40 L 215,37 L 214,37 L 213,36 L 213,35 L 212,34 L 212,33 L 211,32 L 211,26 L 209,24 L 209,22 L 207,22 L 206,21 L 206,20 L 204,20 L 203,19 L 204,18 L 202,18 L 201,17 L 201,16 L 199,16 L 198,15 L 198,14 L 193,14 L 192,13 L 188,13 L 187,12 L 183,12 L 182,11 L 178,11 L 177,10 L 172,10 L 171,9 L 167,9 L 166,8 L 162,8 L 161,7 L 156,7 L 155,6 L 151,6 L 150,5 L 145,5 L 144,4 L 140,4 L 139,3 L 135,3 L 134,2 L 130,2 L 129,1 L 124,1 L 123,0 L 119,0 L 118,1 L 116,1 Z" fill="none" stroke="black" stroke-width="1"/>
</svg>