<svg xmlns="http://www.w3.org/2000/svg" width="463" height="477">
  <path d="M 429,0 L 428,1 L 427,1 L 425,3 L 424,3 L 421,6 L 421,8 L 420,9 L 420,10 L 419,11 L 418,11 L 417,10 L 417,9 L 415,11 L 415,12 L 412,15 L 412,16 L 411,17 L 411,18 L 410,19 L 408,17 L 408,13 L 412,9 L 412,8 L 411,9 L 409,9 L 407,11 L 407,12 L 406,13 L 406,14 L 402,18 L 402,19 L 400,21 L 398,21 L 395,24 L 394,24 L 393,25 L 392,25 L 390,27 L 388,27 L 386,29 L 381,29 L 380,30 L 376,30 L 375,31 L 368,31 L 367,32 L 364,32 L 363,33 L 361,33 L 360,34 L 359,34 L 358,35 L 357,35 L 356,36 L 355,36 L 354,37 L 352,37 L 351,38 L 349,38 L 347,40 L 345,40 L 343,42 L 326,42 L 326,44 L 327,45 L 327,49 L 326,50 L 326,51 L 325,52 L 325,54 L 324,55 L 324,56 L 323,57 L 323,59 L 322,60 L 322,62 L 321,63 L 321,64 L 320,65 L 320,67 L 319,68 L 319,69 L 318,70 L 318,72 L 317,73 L 317,74 L 316,75 L 316,77 L 315,78 L 315,84 L 314,85 L 314,86 L 313,87 L 312,87 L 310,89 L 309,89 L 308,90 L 308,91 L 307,92 L 306,92 L 305,93 L 304,93 L 302,95 L 302,96 L 301,97 L 300,97 L 298,99 L 298,101 L 297,102 L 296,102 L 294,104 L 293,104 L 293,105 L 292,106 L 291,105 L 291,107 L 290,108 L 289,108 L 289,109 L 284,114 L 284,115 L 283,116 L 282,116 L 282,117 L 281,118 L 280,118 L 280,119 L 279,120 L 278,120 L 278,121 L 277,122 L 276,122 L 275,123 L 274,123 L 272,125 L 271,125 L 269,127 L 268,127 L 268,128 L 265,131 L 265,133 L 264,134 L 264,135 L 263,136 L 262,136 L 262,137 L 261,138 L 260,138 L 259,139 L 258,138 L 255,141 L 254,141 L 254,142 L 253,143 L 253,144 L 252,145 L 253,145 L 255,147 L 254,148 L 255,149 L 254,150 L 254,152 L 253,153 L 253,160 L 254,161 L 254,163 L 255,164 L 255,165 L 256,166 L 256,167 L 259,170 L 259,171 L 260,172 L 260,173 L 263,176 L 263,177 L 264,178 L 264,183 L 263,184 L 263,191 L 264,192 L 264,194 L 265,195 L 265,196 L 266,197 L 266,198 L 267,199 L 267,201 L 268,202 L 268,203 L 269,204 L 269,205 L 271,203 L 272,203 L 275,200 L 276,200 L 277,199 L 278,199 L 281,196 L 282,196 L 283,195 L 284,195 L 285,194 L 290,194 L 291,193 L 293,193 L 294,192 L 295,192 L 296,191 L 297,191 L 299,189 L 300,189 L 301,190 L 301,191 L 305,191 L 307,193 L 307,195 L 308,196 L 308,197 L 310,199 L 312,199 L 313,200 L 313,201 L 315,201 L 318,198 L 318,191 L 320,189 L 321,189 L 321,186 L 322,185 L 323,185 L 324,184 L 324,183 L 327,180 L 328,180 L 329,179 L 330,179 L 330,178 L 333,175 L 333,174 L 336,171 L 337,171 L 337,169 L 339,167 L 341,167 L 342,166 L 342,163 L 343,162 L 344,163 L 344,165 L 345,164 L 345,163 L 347,161 L 346,160 L 345,160 L 344,159 L 345,158 L 347,158 L 348,159 L 349,158 L 350,158 L 350,157 L 351,156 L 350,156 L 349,155 L 349,153 L 350,152 L 353,152 L 354,151 L 354,150 L 355,149 L 355,148 L 356,147 L 358,147 L 359,146 L 358,145 L 356,145 L 355,144 L 358,141 L 359,142 L 362,142 L 363,141 L 363,140 L 364,139 L 364,137 L 366,135 L 367,135 L 367,132 L 368,131 L 368,129 L 369,128 L 374,128 L 375,127 L 375,126 L 376,125 L 376,123 L 378,121 L 380,121 L 381,120 L 383,120 L 387,116 L 385,114 L 386,113 L 387,113 L 388,114 L 390,112 L 390,111 L 391,110 L 392,110 L 396,106 L 396,105 L 398,103 L 398,102 L 399,101 L 400,101 L 401,100 L 401,99 L 402,98 L 403,98 L 403,97 L 405,95 L 406,95 L 413,88 L 413,87 L 414,86 L 414,85 L 416,83 L 416,81 L 418,79 L 420,79 L 420,78 L 421,77 L 422,77 L 423,76 L 423,74 L 422,74 L 421,73 L 421,72 L 422,71 L 422,67 L 423,66 L 424,66 L 425,67 L 427,65 L 427,64 L 428,63 L 430,63 L 431,64 L 430,65 L 430,67 L 429,68 L 428,68 L 428,72 L 429,72 L 430,71 L 431,71 L 433,69 L 434,69 L 435,68 L 437,68 L 438,67 L 443,67 L 444,66 L 447,66 L 448,65 L 456,65 L 456,58 L 457,57 L 459,57 L 459,56 L 460,55 L 460,53 L 461,52 L 461,48 L 462,47 L 461,46 L 461,43 L 460,43 L 459,44 L 458,43 L 458,42 L 457,41 L 457,40 L 458,39 L 458,38 L 459,37 L 460,37 L 460,34 L 459,33 L 455,33 L 454,34 L 445,34 L 444,33 L 446,31 L 448,31 L 449,30 L 449,27 L 447,27 L 446,28 L 446,30 L 444,32 L 442,30 L 443,29 L 443,28 L 444,27 L 444,26 L 445,25 L 446,25 L 448,23 L 450,23 L 450,20 L 449,19 L 449,15 L 448,14 L 447,14 L 446,15 L 445,15 L 444,14 L 444,13 L 445,12 L 445,7 L 444,6 L 444,5 L 443,4 L 442,4 L 442,6 L 440,8 L 440,9 L 441,10 L 440,11 L 439,11 L 438,12 L 436,12 L 435,11 L 434,12 L 432,10 L 431,10 L 428,7 L 428,3 L 429,2 Z" fill="none" stroke="black" stroke-width="1"/>
</svg>