<svg xmlns="http://www.w3.org/2000/svg" width="155" height="369">
  <path d="M 59,289 L 58,290 L 57,290 L 56,291 L 55,291 L 54,292 L 53,292 L 52,293 L 45,293 L 44,294 L 43,294 L 42,295 L 41,295 L 39,297 L 33,297 L 33,305 L 34,306 L 34,308 L 35,309 L 35,310 L 36,311 L 36,314 L 37,314 L 38,315 L 38,318 L 39,319 L 39,321 L 41,323 L 42,323 L 43,324 L 43,328 L 41,330 L 41,332 L 40,333 L 40,336 L 39,337 L 39,338 L 36,341 L 36,342 L 35,343 L 35,344 L 33,346 L 33,350 L 34,350 L 35,351 L 41,351 L 45,355 L 45,357 L 46,358 L 47,358 L 48,359 L 49,359 L 51,361 L 52,361 L 53,362 L 55,362 L 56,363 L 59,363 L 60,364 L 61,364 L 62,365 L 62,366 L 63,367 L 63,368 L 70,368 L 70,367 L 71,366 L 74,366 L 75,365 L 77,365 L 79,363 L 79,362 L 81,360 L 82,360 L 84,358 L 85,358 L 86,357 L 87,357 L 92,352 L 92,351 L 94,349 L 96,349 L 98,347 L 98,344 L 99,343 L 99,342 L 98,342 L 97,341 L 97,335 L 98,334 L 98,331 L 97,331 L 96,330 L 91,330 L 90,329 L 87,329 L 86,328 L 86,327 L 83,324 L 83,323 L 82,322 L 83,321 L 83,314 L 79,310 L 78,310 L 77,309 L 77,308 L 76,307 L 76,306 L 75,305 L 75,303 L 74,302 L 74,299 L 73,298 L 73,296 L 72,295 L 72,292 L 69,289 Z" fill="none" stroke="black" stroke-width="1"/>
</svg>