<svg xmlns="http://www.w3.org/2000/svg" width="291" height="198">
  <path d="M 211,5 L 211,6 L 210,7 L 209,7 L 207,9 L 207,10 L 206,11 L 206,12 L 205,13 L 205,14 L 203,16 L 202,16 L 201,17 L 200,17 L 197,20 L 196,20 L 195,21 L 193,21 L 192,22 L 191,22 L 190,23 L 188,23 L 186,25 L 184,25 L 183,26 L 181,26 L 180,27 L 181,28 L 181,29 L 182,30 L 182,31 L 183,31 L 184,32 L 183,33 L 183,34 L 185,36 L 185,37 L 187,39 L 187,42 L 188,43 L 186,45 L 185,45 L 185,47 L 186,48 L 186,49 L 184,51 L 184,52 L 182,54 L 181,54 L 180,55 L 179,55 L 177,57 L 175,57 L 174,56 L 171,56 L 171,58 L 174,61 L 173,62 L 174,63 L 174,64 L 175,65 L 175,71 L 177,73 L 177,74 L 178,74 L 179,75 L 178,76 L 178,77 L 177,78 L 176,78 L 176,79 L 175,80 L 175,81 L 174,82 L 173,82 L 173,83 L 172,84 L 172,86 L 171,87 L 170,87 L 170,88 L 169,89 L 169,90 L 168,91 L 168,95 L 167,96 L 167,99 L 168,100 L 169,100 L 171,98 L 172,98 L 174,100 L 174,102 L 177,102 L 178,103 L 184,103 L 185,104 L 187,104 L 188,105 L 192,105 L 193,106 L 199,106 L 200,105 L 203,105 L 204,104 L 205,104 L 206,103 L 208,103 L 209,102 L 211,102 L 212,101 L 213,101 L 214,100 L 214,95 L 215,94 L 215,93 L 213,91 L 213,88 L 214,87 L 215,87 L 217,85 L 217,83 L 218,82 L 219,82 L 220,81 L 223,81 L 223,80 L 224,79 L 224,78 L 228,74 L 228,73 L 230,71 L 233,71 L 234,70 L 234,69 L 235,68 L 236,68 L 236,67 L 237,66 L 238,66 L 239,65 L 245,65 L 246,66 L 247,65 L 248,65 L 249,64 L 250,64 L 252,62 L 254,62 L 255,63 L 256,63 L 257,64 L 261,64 L 261,62 L 260,61 L 260,60 L 258,58 L 258,57 L 257,56 L 257,53 L 256,53 L 255,52 L 255,48 L 256,47 L 256,46 L 259,43 L 259,42 L 260,41 L 260,40 L 261,39 L 261,38 L 263,36 L 263,35 L 265,33 L 265,32 L 267,30 L 267,26 L 268,25 L 268,19 L 269,18 L 269,14 L 270,13 L 270,10 L 266,10 L 265,11 L 254,11 L 253,12 L 252,11 L 251,11 L 249,9 L 248,9 L 247,8 L 241,8 L 240,7 L 228,7 L 227,6 L 218,6 L 217,5 Z" fill="none" stroke="black" stroke-width="1"/>
</svg>