<svg xmlns="http://www.w3.org/2000/svg" width="291" height="198">
  <path d="M 109,23 L 108,24 L 107,24 L 106,25 L 105,25 L 104,24 L 94,24 L 93,25 L 90,25 L 89,26 L 87,26 L 85,24 L 81,24 L 80,25 L 78,25 L 77,26 L 75,26 L 74,27 L 74,30 L 75,31 L 75,33 L 76,34 L 76,38 L 73,41 L 70,41 L 68,43 L 68,44 L 66,46 L 65,46 L 64,47 L 63,47 L 63,50 L 60,53 L 53,53 L 52,54 L 51,54 L 49,56 L 48,56 L 47,57 L 44,57 L 43,58 L 42,58 L 40,60 L 38,60 L 36,62 L 33,62 L 32,61 L 24,61 L 23,60 L 20,60 L 19,59 L 8,59 L 7,60 L 3,60 L 2,61 L 2,63 L 1,64 L 1,65 L 0,66 L 0,67 L 1,68 L 1,69 L 2,69 L 3,70 L 4,70 L 5,71 L 6,71 L 8,73 L 14,73 L 15,74 L 15,75 L 16,75 L 17,76 L 22,76 L 23,77 L 27,77 L 28,78 L 35,78 L 39,82 L 39,83 L 41,85 L 42,85 L 43,86 L 45,86 L 49,90 L 49,97 L 51,97 L 52,98 L 53,98 L 54,99 L 55,99 L 57,101 L 57,103 L 60,106 L 60,108 L 61,107 L 63,107 L 64,106 L 74,106 L 75,105 L 81,105 L 82,104 L 82,96 L 84,94 L 85,94 L 86,93 L 88,93 L 89,92 L 90,92 L 91,91 L 95,91 L 96,92 L 97,92 L 98,91 L 101,91 L 102,90 L 103,90 L 101,88 L 101,86 L 104,83 L 104,81 L 102,81 L 101,80 L 101,79 L 100,79 L 99,78 L 99,63 L 98,62 L 98,61 L 97,60 L 97,59 L 96,58 L 96,52 L 100,48 L 100,43 L 99,42 L 100,41 L 100,40 L 101,39 L 102,39 L 103,38 L 105,38 L 107,36 L 107,35 L 109,33 L 109,25 L 110,24 L 110,23 Z" fill="none" stroke="black" stroke-width="1"/>
</svg>