<svg xmlns="http://www.w3.org/2000/svg" width="180" height="137">
  <path d="M 115,0 L 115,1 L 113,3 L 113,4 L 112,5 L 112,11 L 111,12 L 111,15 L 110,16 L 109,16 L 108,17 L 107,17 L 106,18 L 105,18 L 104,19 L 103,19 L 102,20 L 101,20 L 99,22 L 99,23 L 97,25 L 96,25 L 95,26 L 94,26 L 93,27 L 91,27 L 90,28 L 85,28 L 84,29 L 84,30 L 86,30 L 87,31 L 89,31 L 90,32 L 90,33 L 91,34 L 91,35 L 92,36 L 92,41 L 93,42 L 93,43 L 94,44 L 94,45 L 95,46 L 95,47 L 96,48 L 96,51 L 97,52 L 97,56 L 98,57 L 98,66 L 99,67 L 99,69 L 100,70 L 100,71 L 102,73 L 105,73 L 106,74 L 108,74 L 109,75 L 117,75 L 118,74 L 120,74 L 121,73 L 123,73 L 124,74 L 125,74 L 126,75 L 127,75 L 128,76 L 129,76 L 130,77 L 133,77 L 134,78 L 138,78 L 139,79 L 139,80 L 140,81 L 141,81 L 143,79 L 144,79 L 145,78 L 149,78 L 149,74 L 151,72 L 151,71 L 152,70 L 152,69 L 155,66 L 155,65 L 156,64 L 156,61 L 157,60 L 157,58 L 159,56 L 159,52 L 158,52 L 155,49 L 155,47 L 154,46 L 154,43 L 153,43 L 152,42 L 152,39 L 151,38 L 151,37 L 150,36 L 150,34 L 149,33 L 149,25 L 145,25 L 144,24 L 142,24 L 139,21 L 137,21 L 134,18 L 134,17 L 133,16 L 133,14 L 132,14 L 131,13 L 132,12 L 131,11 L 130,11 L 128,9 L 125,9 L 123,7 L 122,7 L 121,6 L 120,6 L 118,4 L 118,3 L 117,2 L 117,1 L 116,0 Z" fill="none" stroke="black" stroke-width="1"/>
</svg>