<svg xmlns="http://www.w3.org/2000/svg" width="283" height="247">
  <path d="M 220,27 L 218,29 L 214,29 L 213,30 L 211,30 L 210,31 L 207,31 L 206,32 L 203,32 L 202,31 L 200,31 L 199,32 L 197,32 L 197,34 L 198,35 L 198,37 L 197,38 L 198,39 L 198,40 L 200,40 L 201,41 L 201,44 L 204,47 L 204,48 L 203,49 L 197,49 L 194,52 L 194,54 L 193,55 L 193,61 L 194,61 L 195,62 L 196,62 L 197,61 L 198,61 L 199,62 L 201,62 L 203,64 L 204,64 L 205,63 L 210,63 L 211,64 L 210,65 L 209,65 L 211,65 L 212,66 L 211,67 L 197,67 L 194,64 L 191,64 L 190,63 L 189,63 L 186,60 L 187,59 L 189,59 L 189,57 L 188,56 L 188,54 L 189,53 L 189,52 L 190,51 L 190,49 L 189,49 L 188,48 L 188,46 L 190,44 L 190,41 L 188,39 L 187,39 L 185,37 L 184,37 L 183,36 L 182,36 L 181,35 L 180,35 L 179,34 L 179,33 L 180,32 L 180,30 L 179,29 L 169,29 L 168,30 L 166,30 L 165,31 L 160,31 L 159,32 L 156,32 L 155,33 L 153,33 L 152,34 L 149,34 L 147,36 L 146,36 L 146,42 L 145,43 L 145,45 L 147,47 L 148,47 L 149,48 L 149,49 L 150,50 L 150,51 L 151,52 L 151,55 L 152,56 L 152,60 L 151,61 L 151,63 L 149,65 L 148,65 L 146,67 L 145,67 L 143,69 L 142,69 L 138,73 L 138,80 L 137,81 L 137,82 L 136,83 L 135,83 L 134,84 L 133,84 L 132,85 L 132,86 L 131,87 L 127,87 L 126,88 L 124,88 L 123,89 L 123,90 L 122,91 L 118,91 L 117,92 L 115,92 L 113,94 L 113,95 L 114,96 L 114,98 L 115,99 L 114,100 L 115,101 L 115,102 L 116,103 L 116,105 L 117,106 L 117,111 L 118,112 L 118,118 L 119,119 L 119,120 L 120,121 L 123,121 L 124,120 L 126,120 L 127,119 L 130,119 L 131,118 L 134,118 L 135,117 L 139,117 L 140,116 L 144,116 L 145,115 L 151,115 L 152,114 L 164,114 L 165,115 L 172,115 L 173,116 L 177,116 L 178,117 L 182,117 L 183,118 L 186,118 L 187,119 L 190,119 L 191,120 L 195,120 L 196,121 L 200,121 L 201,122 L 205,122 L 206,123 L 212,123 L 213,124 L 230,124 L 231,123 L 238,123 L 239,122 L 244,122 L 245,121 L 249,121 L 250,120 L 254,120 L 255,119 L 258,119 L 259,118 L 263,118 L 264,117 L 267,117 L 268,116 L 271,116 L 271,115 L 272,114 L 272,113 L 275,110 L 275,108 L 276,107 L 276,100 L 274,98 L 274,97 L 271,94 L 271,89 L 270,88 L 270,83 L 269,82 L 269,70 L 270,69 L 270,60 L 272,58 L 272,57 L 274,55 L 275,55 L 275,54 L 276,53 L 277,53 L 278,52 L 279,52 L 280,53 L 280,46 L 281,45 L 281,44 L 282,43 L 282,38 L 281,37 L 279,37 L 278,36 L 276,36 L 275,35 L 275,34 L 274,33 L 258,33 L 257,32 L 256,32 L 255,31 L 252,31 L 251,30 L 249,30 L 248,29 L 247,29 L 246,28 L 239,28 L 238,27 Z" fill="none" stroke="black" stroke-width="1"/>
</svg>