<svg xmlns="http://www.w3.org/2000/svg" width="331" height="204">
  <path d="M 275,26 L 274,27 L 273,27 L 272,28 L 272,29 L 269,32 L 267,30 L 264,30 L 263,31 L 261,31 L 260,30 L 257,30 L 256,29 L 250,29 L 249,30 L 249,32 L 248,33 L 247,33 L 245,35 L 244,35 L 243,36 L 242,36 L 240,38 L 239,38 L 238,39 L 235,39 L 234,40 L 233,40 L 232,41 L 231,41 L 230,42 L 227,42 L 226,43 L 225,43 L 224,44 L 223,44 L 222,45 L 220,45 L 219,46 L 218,46 L 217,47 L 210,47 L 209,48 L 209,52 L 208,53 L 208,55 L 207,56 L 195,56 L 194,55 L 191,55 L 190,54 L 190,53 L 188,51 L 188,50 L 187,49 L 187,46 L 186,46 L 184,44 L 181,44 L 180,45 L 177,45 L 177,52 L 178,53 L 178,55 L 179,56 L 179,58 L 178,59 L 178,63 L 180,65 L 180,66 L 182,68 L 182,73 L 184,75 L 184,77 L 185,78 L 185,80 L 186,80 L 187,81 L 187,85 L 186,86 L 186,87 L 185,88 L 185,92 L 186,93 L 186,94 L 187,94 L 188,95 L 193,95 L 194,96 L 197,96 L 198,95 L 205,95 L 206,96 L 208,96 L 209,97 L 211,97 L 212,98 L 212,100 L 211,101 L 210,101 L 211,101 L 212,102 L 212,103 L 211,104 L 210,104 L 209,105 L 209,106 L 208,107 L 208,108 L 206,110 L 205,110 L 204,111 L 204,113 L 203,114 L 202,114 L 202,116 L 200,118 L 198,118 L 196,120 L 196,121 L 195,122 L 192,122 L 191,123 L 190,123 L 189,124 L 186,124 L 185,125 L 186,126 L 187,126 L 188,127 L 187,128 L 183,128 L 181,130 L 177,130 L 177,131 L 176,132 L 176,135 L 175,136 L 172,136 L 168,140 L 167,140 L 166,141 L 165,141 L 162,144 L 160,144 L 159,145 L 159,150 L 160,149 L 161,150 L 161,151 L 162,152 L 162,155 L 163,155 L 165,157 L 166,157 L 167,158 L 175,158 L 175,157 L 176,156 L 177,156 L 178,155 L 190,155 L 191,154 L 192,154 L 193,155 L 194,154 L 195,154 L 196,155 L 197,155 L 198,156 L 199,155 L 200,155 L 202,153 L 205,153 L 206,154 L 207,154 L 209,152 L 213,152 L 214,151 L 215,151 L 217,149 L 219,149 L 220,148 L 223,148 L 224,147 L 225,147 L 226,146 L 229,146 L 230,145 L 231,145 L 232,144 L 237,144 L 237,141 L 238,140 L 239,140 L 239,135 L 241,133 L 242,133 L 243,132 L 245,132 L 246,131 L 247,131 L 244,128 L 244,125 L 245,124 L 245,123 L 248,120 L 248,119 L 249,118 L 249,114 L 250,113 L 250,111 L 251,110 L 254,110 L 255,111 L 260,111 L 262,109 L 264,109 L 265,108 L 266,108 L 267,107 L 268,107 L 269,106 L 270,106 L 273,103 L 274,103 L 275,102 L 276,102 L 278,100 L 280,100 L 283,103 L 286,103 L 288,101 L 290,101 L 291,100 L 292,100 L 293,99 L 295,99 L 297,97 L 298,97 L 299,96 L 300,96 L 301,95 L 305,95 L 306,94 L 309,94 L 311,92 L 311,91 L 313,89 L 314,89 L 317,86 L 318,86 L 320,84 L 322,84 L 323,83 L 324,83 L 327,80 L 327,78 L 329,76 L 330,76 L 330,75 L 329,74 L 326,74 L 325,73 L 322,73 L 321,74 L 320,74 L 319,75 L 313,75 L 312,74 L 310,74 L 308,72 L 302,72 L 301,71 L 297,71 L 296,70 L 295,70 L 290,65 L 290,64 L 291,63 L 292,63 L 293,62 L 293,61 L 294,60 L 295,60 L 295,52 L 294,51 L 294,48 L 292,46 L 292,44 L 290,42 L 289,42 L 287,40 L 287,38 L 286,37 L 286,36 L 283,33 L 283,32 L 282,31 L 282,30 L 278,26 Z" fill="none" stroke="black" stroke-width="1"/>
</svg>