<svg xmlns="http://www.w3.org/2000/svg" width="89" height="34">
  <path d="M 80,9 L 79,10 L 79,12 L 80,11 L 81,12 L 81,16 L 80,17 L 79,16 L 78,16 L 77,15 L 76,16 L 73,16 L 73,17 L 72,18 L 71,18 L 70,17 L 70,15 L 68,15 L 67,14 L 66,14 L 67,15 L 68,15 L 69,16 L 67,18 L 66,18 L 65,19 L 64,18 L 64,20 L 68,20 L 69,21 L 71,21 L 72,22 L 73,22 L 75,24 L 75,26 L 77,28 L 79,28 L 80,29 L 81,29 L 81,28 L 82,27 L 83,28 L 83,27 L 87,23 L 88,23 L 88,21 L 86,19 L 86,18 L 85,17 L 85,15 L 84,14 L 84,13 Z" fill="none" stroke="black" stroke-width="1"/>
</svg>