<svg xmlns="http://www.w3.org/2000/svg" width="115" height="161">
  <path d="M 44,54 L 43,55 L 43,57 L 42,58 L 42,59 L 39,62 L 36,62 L 34,64 L 34,65 L 32,67 L 30,67 L 29,68 L 24,68 L 23,69 L 23,70 L 22,71 L 22,72 L 26,76 L 26,77 L 27,78 L 27,87 L 26,88 L 26,90 L 25,91 L 25,102 L 28,105 L 28,107 L 29,108 L 30,108 L 32,110 L 31,111 L 31,113 L 37,113 L 38,112 L 40,112 L 46,106 L 47,106 L 51,102 L 53,102 L 54,101 L 56,101 L 57,100 L 62,100 L 63,99 L 63,96 L 64,95 L 64,94 L 66,92 L 66,91 L 67,90 L 68,90 L 71,87 L 73,87 L 75,85 L 75,83 L 77,81 L 77,80 L 78,79 L 78,72 L 77,71 L 73,71 L 70,68 L 70,66 L 69,65 L 69,64 L 66,61 L 66,60 L 65,60 L 64,59 L 58,59 L 57,58 L 55,58 L 53,56 L 53,55 L 52,54 Z" fill="none" stroke="black" stroke-width="1"/>
</svg>