<svg xmlns="http://www.w3.org/2000/svg" width="115" height="161">
  <path d="M 57,7 L 56,8 L 55,8 L 54,9 L 54,10 L 53,11 L 53,16 L 49,20 L 49,25 L 50,25 L 51,26 L 56,26 L 59,29 L 59,30 L 58,31 L 58,32 L 56,34 L 56,35 L 57,36 L 57,38 L 54,41 L 52,41 L 51,42 L 50,42 L 50,43 L 49,44 L 49,49 L 48,50 L 48,51 L 47,52 L 47,53 L 52,53 L 54,55 L 54,56 L 55,57 L 57,57 L 58,58 L 64,58 L 65,59 L 66,59 L 67,60 L 67,61 L 70,64 L 70,65 L 71,66 L 71,68 L 73,70 L 77,70 L 78,71 L 78,66 L 86,58 L 87,58 L 87,57 L 88,56 L 89,56 L 94,51 L 94,48 L 95,47 L 99,47 L 100,46 L 102,46 L 102,45 L 103,44 L 104,44 L 105,43 L 106,43 L 107,42 L 109,42 L 110,41 L 110,40 L 112,38 L 112,37 L 113,36 L 114,36 L 114,35 L 112,33 L 111,33 L 110,32 L 106,32 L 105,33 L 98,33 L 97,34 L 96,34 L 95,35 L 94,35 L 88,29 L 88,28 L 87,27 L 87,25 L 86,24 L 86,21 L 85,20 L 79,20 L 78,21 L 75,18 L 75,16 L 74,15 L 73,15 L 72,14 L 70,14 L 69,13 L 69,12 L 67,10 L 66,10 L 65,9 L 61,9 L 60,8 L 58,8 Z" fill="none" stroke="black" stroke-width="1"/>
</svg>