<svg xmlns="http://www.w3.org/2000/svg" width="134" height="92">
  <path d="M 98,44 L 94,48 L 93,48 L 91,50 L 90,50 L 85,55 L 85,58 L 81,62 L 80,62 L 80,63 L 81,64 L 81,67 L 82,68 L 82,70 L 83,71 L 83,73 L 81,75 L 81,78 L 80,79 L 80,80 L 79,81 L 79,83 L 80,83 L 81,84 L 88,84 L 89,85 L 93,85 L 94,86 L 96,86 L 97,87 L 98,87 L 99,88 L 100,88 L 101,89 L 103,89 L 104,90 L 110,90 L 111,91 L 113,91 L 113,88 L 114,87 L 114,82 L 115,81 L 116,81 L 122,75 L 123,75 L 126,72 L 127,72 L 133,66 L 133,58 L 132,58 L 131,57 L 127,57 L 126,56 L 123,56 L 122,55 L 120,55 L 119,54 L 117,54 L 114,51 L 114,50 L 113,49 L 111,49 L 110,48 L 108,48 L 107,47 L 104,47 L 102,45 L 101,45 L 100,44 Z" fill="none" stroke="black" stroke-width="1"/>
</svg>