<svg xmlns="http://www.w3.org/2000/svg" width="148" height="66">
  <path d="M 56,7 L 56,16 L 57,17 L 57,18 L 56,19 L 54,19 L 52,21 L 51,21 L 51,22 L 52,23 L 53,23 L 54,24 L 54,25 L 55,26 L 56,26 L 57,27 L 59,27 L 60,28 L 64,28 L 65,29 L 66,29 L 69,32 L 69,33 L 71,33 L 72,34 L 73,34 L 75,36 L 75,38 L 77,40 L 78,39 L 81,39 L 83,37 L 84,37 L 85,36 L 86,36 L 87,35 L 88,35 L 88,33 L 87,32 L 86,32 L 84,30 L 83,30 L 79,26 L 79,25 L 78,24 L 78,23 L 77,22 L 77,16 L 76,15 L 76,14 L 75,13 L 74,13 L 73,12 L 67,12 L 66,11 L 64,11 L 62,9 L 61,9 L 59,7 Z" fill="none" stroke="black" stroke-width="1"/>
</svg>