<svg xmlns="http://www.w3.org/2000/svg" width="41" height="49">
  <path d="M 22,0 L 21,1 L 21,2 L 19,4 L 18,4 L 16,6 L 15,5 L 14,5 L 13,4 L 12,4 L 12,6 L 11,7 L 10,7 L 10,8 L 8,10 L 7,10 L 6,11 L 1,11 L 1,12 L 0,13 L 0,15 L 5,15 L 6,16 L 2,20 L 1,20 L 1,23 L 0,24 L 0,25 L 1,26 L 1,27 L 3,29 L 3,30 L 4,31 L 8,31 L 9,32 L 10,32 L 13,29 L 14,29 L 14,28 L 15,27 L 15,26 L 16,25 L 16,24 L 17,23 L 18,23 L 19,22 L 18,21 L 18,20 L 16,18 L 16,16 L 15,15 L 16,14 L 16,13 L 18,11 L 19,11 L 20,10 L 21,10 L 24,7 L 25,7 L 25,6 L 26,5 L 27,5 L 26,5 L 24,3 L 24,2 L 23,1 L 23,0 Z" fill="none" stroke="black" stroke-width="1"/>
</svg>