<svg xmlns="http://www.w3.org/2000/svg" width="47" height="54">
  <path d="M 1,17 L 1,24 L 4,27 L 4,28 L 3,29 L 3,30 L 1,32 L 1,33 L 0,34 L 0,35 L 1,36 L 0,37 L 1,37 L 2,38 L 3,38 L 4,39 L 5,39 L 6,40 L 6,41 L 8,41 L 10,43 L 10,44 L 11,45 L 11,46 L 12,47 L 12,48 L 16,52 L 16,53 L 19,53 L 20,52 L 21,52 L 22,51 L 22,50 L 23,49 L 24,49 L 24,46 L 23,46 L 19,42 L 19,39 L 20,38 L 20,37 L 19,36 L 18,36 L 17,35 L 17,34 L 14,31 L 14,28 L 13,28 L 12,27 L 12,26 L 10,24 L 9,24 L 7,22 L 7,20 L 6,19 L 6,17 Z" fill="none" stroke="black" stroke-width="1"/>
</svg>