<svg xmlns="http://www.w3.org/2000/svg" width="134" height="92">
  <path d="M 56,16 L 55,17 L 54,17 L 53,18 L 52,18 L 50,20 L 49,20 L 46,23 L 45,23 L 44,24 L 40,24 L 39,23 L 37,23 L 36,22 L 31,22 L 30,23 L 29,23 L 28,24 L 28,25 L 27,26 L 27,27 L 25,29 L 25,33 L 31,39 L 34,39 L 35,40 L 39,40 L 40,41 L 41,41 L 42,42 L 43,42 L 44,43 L 60,43 L 61,44 L 63,44 L 64,45 L 65,45 L 66,46 L 68,46 L 69,47 L 74,47 L 74,42 L 73,41 L 73,39 L 72,38 L 72,37 L 70,35 L 69,35 L 67,33 L 67,29 L 66,28 L 65,28 L 64,27 L 64,26 L 63,25 L 63,24 L 62,23 L 62,20 L 63,19 L 64,19 L 64,16 Z" fill="none" stroke="black" stroke-width="1"/>
</svg>