<svg xmlns="http://www.w3.org/2000/svg" width="134" height="92">
  <path d="M 14,29 L 13,30 L 12,30 L 5,37 L 5,38 L 1,42 L 0,42 L 0,43 L 1,43 L 2,44 L 3,44 L 5,46 L 6,46 L 7,47 L 8,47 L 10,49 L 11,49 L 15,53 L 16,53 L 18,55 L 18,56 L 22,60 L 23,60 L 24,61 L 26,61 L 28,63 L 29,63 L 31,65 L 32,65 L 33,66 L 35,66 L 37,68 L 38,68 L 39,69 L 40,69 L 41,68 L 41,64 L 42,63 L 42,62 L 43,61 L 43,60 L 44,59 L 44,58 L 45,57 L 45,49 L 46,48 L 46,45 L 45,44 L 44,44 L 43,43 L 42,43 L 41,42 L 40,42 L 39,41 L 35,41 L 34,40 L 31,40 L 24,33 L 24,30 L 23,30 L 22,29 Z" fill="none" stroke="black" stroke-width="1"/>
</svg>