<svg xmlns="http://www.w3.org/2000/svg" width="97" height="61">
  <path d="M 82,0 L 81,1 L 78,1 L 77,2 L 75,2 L 74,3 L 73,3 L 72,4 L 71,4 L 70,5 L 68,5 L 67,6 L 65,6 L 65,10 L 66,11 L 66,12 L 65,13 L 64,13 L 64,14 L 62,16 L 62,17 L 61,18 L 61,19 L 60,20 L 60,27 L 59,28 L 59,30 L 60,31 L 61,31 L 62,32 L 63,32 L 66,35 L 67,35 L 68,34 L 70,34 L 71,33 L 73,33 L 74,32 L 75,32 L 76,31 L 77,31 L 78,30 L 79,30 L 80,29 L 82,29 L 83,28 L 85,28 L 86,27 L 94,27 L 94,26 L 95,25 L 95,24 L 94,23 L 94,20 L 96,18 L 96,15 L 93,12 L 93,11 L 91,9 L 91,5 L 90,4 L 89,4 L 86,1 L 86,0 Z" fill="none" stroke="black" stroke-width="1"/>
</svg>