<svg xmlns="http://www.w3.org/2000/svg" width="83" height="74">
  <path d="M 57,18 L 56,19 L 55,19 L 54,20 L 52,20 L 51,21 L 49,21 L 48,20 L 47,20 L 46,19 L 45,19 L 44,20 L 43,20 L 42,21 L 41,21 L 40,22 L 39,22 L 38,23 L 37,23 L 36,24 L 37,25 L 37,27 L 39,29 L 39,31 L 38,32 L 37,32 L 35,34 L 34,34 L 33,35 L 32,35 L 32,37 L 31,38 L 31,39 L 32,39 L 33,40 L 33,41 L 32,42 L 32,44 L 30,46 L 29,46 L 29,47 L 28,48 L 27,48 L 27,49 L 26,50 L 25,50 L 24,51 L 23,51 L 22,52 L 14,52 L 14,54 L 12,56 L 12,64 L 11,65 L 11,66 L 10,67 L 10,68 L 16,68 L 17,69 L 21,69 L 22,70 L 25,70 L 26,71 L 31,71 L 32,72 L 34,72 L 35,73 L 35,72 L 36,71 L 36,70 L 38,68 L 38,61 L 39,60 L 39,59 L 40,58 L 40,57 L 41,56 L 41,55 L 44,52 L 44,51 L 47,48 L 47,47 L 48,46 L 48,44 L 49,43 L 49,41 L 50,40 L 50,39 L 51,38 L 51,37 L 52,36 L 52,35 L 53,34 L 53,33 L 55,31 L 55,30 L 56,29 L 56,26 L 58,24 L 58,22 L 61,19 L 61,18 Z" fill="none" stroke="black" stroke-width="1"/>
</svg>