<svg xmlns="http://www.w3.org/2000/svg" width="97" height="61">
  <path d="M 58,1 L 57,2 L 56,2 L 52,6 L 51,6 L 50,7 L 45,7 L 44,8 L 39,8 L 38,9 L 36,9 L 36,10 L 32,14 L 31,13 L 28,13 L 25,16 L 24,16 L 23,17 L 22,17 L 22,19 L 20,21 L 20,22 L 21,23 L 21,25 L 24,28 L 24,33 L 27,33 L 28,32 L 29,32 L 31,30 L 42,30 L 43,29 L 45,29 L 46,28 L 47,28 L 48,27 L 52,27 L 53,28 L 55,28 L 56,29 L 58,29 L 58,28 L 59,27 L 59,20 L 60,19 L 60,18 L 61,17 L 61,16 L 63,14 L 63,13 L 64,12 L 65,12 L 65,11 L 64,10 L 64,5 L 62,3 L 61,3 L 60,2 L 60,1 Z" fill="none" stroke="black" stroke-width="1"/>
</svg>