<svg xmlns="http://www.w3.org/2000/svg" width="97" height="61">
  <path d="M 48,28 L 47,29 L 46,29 L 45,30 L 43,30 L 42,31 L 31,31 L 29,33 L 28,33 L 27,34 L 24,34 L 23,33 L 16,33 L 16,35 L 13,38 L 12,38 L 11,37 L 9,37 L 8,38 L 8,39 L 7,40 L 2,40 L 2,41 L 3,42 L 3,43 L 1,45 L 1,47 L 0,48 L 4,48 L 5,49 L 9,49 L 10,50 L 13,50 L 14,51 L 14,53 L 15,54 L 15,55 L 17,57 L 17,58 L 19,58 L 20,59 L 20,60 L 22,58 L 22,57 L 23,56 L 24,56 L 25,55 L 26,55 L 27,54 L 29,54 L 30,53 L 34,53 L 35,52 L 37,52 L 37,50 L 38,49 L 39,49 L 40,48 L 43,48 L 44,47 L 51,47 L 51,45 L 55,41 L 56,41 L 58,39 L 59,39 L 60,38 L 63,38 L 63,37 L 64,36 L 65,36 L 65,35 L 63,33 L 62,33 L 61,32 L 60,32 L 58,30 L 56,30 L 55,29 L 53,29 L 52,28 Z" fill="none" stroke="black" stroke-width="1"/>
</svg>