<svg xmlns="http://www.w3.org/2000/svg" width="69" height="66">
  <path d="M 58,28 L 50,36 L 49,36 L 48,37 L 47,37 L 46,38 L 45,38 L 44,39 L 40,39 L 39,40 L 36,40 L 35,39 L 31,39 L 29,41 L 27,41 L 27,42 L 21,48 L 21,49 L 20,50 L 20,51 L 19,52 L 19,53 L 18,54 L 18,55 L 17,56 L 16,56 L 16,58 L 27,58 L 28,57 L 32,57 L 33,56 L 43,56 L 44,57 L 45,56 L 48,56 L 49,55 L 50,55 L 52,53 L 53,53 L 54,52 L 55,52 L 56,51 L 57,51 L 58,50 L 59,50 L 60,49 L 62,49 L 63,48 L 63,47 L 64,46 L 64,45 L 65,44 L 65,43 L 66,42 L 66,34 L 68,32 L 68,30 L 66,30 L 65,29 L 63,29 L 62,28 Z" fill="none" stroke="black" stroke-width="1"/>
</svg>