<svg xmlns="http://www.w3.org/2000/svg" width="91" height="62">
  <path d="M 49,9 L 49,11 L 47,13 L 47,15 L 48,16 L 48,18 L 47,19 L 47,20 L 44,23 L 43,23 L 41,25 L 37,25 L 36,26 L 36,28 L 34,30 L 34,32 L 40,32 L 42,34 L 44,34 L 46,32 L 47,32 L 48,31 L 50,31 L 51,32 L 54,32 L 56,34 L 56,33 L 57,32 L 57,31 L 58,30 L 60,30 L 61,29 L 63,29 L 64,30 L 64,32 L 63,33 L 65,35 L 68,35 L 69,34 L 71,34 L 72,35 L 74,35 L 74,32 L 75,31 L 77,31 L 78,30 L 78,29 L 72,23 L 70,23 L 68,21 L 67,21 L 65,19 L 62,19 L 61,18 L 58,18 L 57,17 L 57,15 L 56,14 L 55,14 L 54,13 L 54,12 L 51,12 L 50,11 L 50,10 Z" fill="none" stroke="black" stroke-width="1"/>
</svg>