<svg xmlns="http://www.w3.org/2000/svg" width="91" height="62">
  <path d="M 30,32 L 29,33 L 27,33 L 26,34 L 23,34 L 22,35 L 20,35 L 17,38 L 17,39 L 16,40 L 18,42 L 18,43 L 23,43 L 24,44 L 25,44 L 26,45 L 27,44 L 28,44 L 29,45 L 29,46 L 30,47 L 35,47 L 36,48 L 36,49 L 37,50 L 37,49 L 39,47 L 41,47 L 42,46 L 43,46 L 45,44 L 45,43 L 49,39 L 50,39 L 50,38 L 51,37 L 52,37 L 53,36 L 54,36 L 55,35 L 55,34 L 54,33 L 51,33 L 50,32 L 48,32 L 47,33 L 46,33 L 44,35 L 42,35 L 40,33 L 34,33 L 33,32 Z" fill="none" stroke="black" stroke-width="1"/>
</svg>