<svg xmlns="http://www.w3.org/2000/svg" width="54" height="69">
  <path d="M 31,26 L 31,27 L 30,28 L 28,28 L 28,29 L 26,31 L 25,31 L 24,32 L 23,32 L 22,33 L 21,32 L 19,32 L 18,33 L 17,33 L 16,34 L 16,36 L 15,37 L 14,37 L 14,39 L 15,40 L 16,40 L 17,39 L 20,39 L 22,41 L 22,43 L 25,43 L 26,44 L 26,45 L 27,46 L 29,46 L 30,45 L 34,45 L 35,46 L 36,46 L 36,43 L 38,41 L 43,41 L 44,40 L 44,39 L 43,39 L 42,38 L 41,38 L 40,37 L 37,37 L 35,39 L 31,39 L 30,38 L 23,38 L 22,37 L 23,36 L 30,36 L 32,34 L 33,34 L 34,33 L 38,33 L 39,32 L 39,31 L 38,31 L 36,29 L 34,29 L 33,30 L 31,30 L 30,31 L 29,30 L 29,29 L 30,28 L 32,28 L 32,27 Z" fill="none" stroke="black" stroke-width="1"/>
</svg>