<svg xmlns="http://www.w3.org/2000/svg" width="134" height="92">
  <path d="M 46,44 L 47,45 L 47,48 L 46,49 L 46,57 L 45,58 L 45,59 L 44,60 L 44,61 L 43,62 L 43,63 L 42,64 L 42,68 L 41,69 L 41,71 L 45,75 L 46,75 L 47,76 L 48,76 L 49,77 L 50,77 L 51,78 L 52,78 L 53,79 L 54,79 L 55,80 L 56,80 L 57,81 L 58,81 L 59,82 L 63,82 L 64,83 L 68,83 L 69,84 L 75,84 L 76,83 L 78,83 L 78,81 L 79,80 L 79,79 L 80,78 L 80,75 L 82,73 L 82,71 L 81,70 L 81,68 L 80,67 L 80,64 L 79,63 L 79,62 L 78,61 L 78,60 L 77,59 L 77,52 L 76,51 L 76,50 L 75,49 L 75,48 L 69,48 L 68,47 L 66,47 L 65,46 L 64,46 L 63,45 L 61,45 L 60,44 Z" fill="none" stroke="black" stroke-width="1"/>
</svg>