<svg xmlns="http://www.w3.org/2000/svg" width="115" height="161">
  <path d="M 75,86 L 73,88 L 71,88 L 68,91 L 67,91 L 67,92 L 65,94 L 65,95 L 64,96 L 64,99 L 62,101 L 57,101 L 56,102 L 54,102 L 53,103 L 51,103 L 47,107 L 46,107 L 40,113 L 38,113 L 37,114 L 32,114 L 32,117 L 31,118 L 31,119 L 30,120 L 30,122 L 29,123 L 29,125 L 28,126 L 27,126 L 26,127 L 26,130 L 27,131 L 27,134 L 28,135 L 28,136 L 29,137 L 29,138 L 30,139 L 30,140 L 31,141 L 31,142 L 32,143 L 32,144 L 33,145 L 33,146 L 34,147 L 34,148 L 36,148 L 37,149 L 41,149 L 42,150 L 45,150 L 46,151 L 47,151 L 48,152 L 49,152 L 50,153 L 52,153 L 54,155 L 55,155 L 56,156 L 57,156 L 61,160 L 62,159 L 62,152 L 63,151 L 63,150 L 64,149 L 64,143 L 66,141 L 66,140 L 68,138 L 68,137 L 69,136 L 69,131 L 68,130 L 68,129 L 67,128 L 67,125 L 68,124 L 68,123 L 69,122 L 69,118 L 70,117 L 69,116 L 70,115 L 70,112 L 71,111 L 71,108 L 72,107 L 72,106 L 73,105 L 73,103 L 74,102 L 74,94 L 75,93 Z" fill="none" stroke="black" stroke-width="1"/>
</svg>