<svg xmlns="http://www.w3.org/2000/svg" width="88" height="131">
  <path d="M 60,0 L 61,1 L 61,5 L 59,7 L 59,8 L 58,9 L 58,10 L 57,11 L 57,12 L 56,13 L 56,16 L 55,17 L 55,26 L 53,28 L 53,29 L 52,30 L 52,40 L 51,41 L 51,42 L 50,43 L 50,44 L 49,45 L 49,49 L 48,50 L 48,55 L 49,56 L 49,59 L 50,60 L 50,63 L 51,64 L 51,65 L 52,66 L 52,68 L 56,68 L 57,67 L 67,67 L 68,68 L 69,68 L 73,64 L 73,63 L 76,60 L 76,55 L 80,51 L 80,45 L 81,44 L 81,43 L 82,42 L 82,41 L 83,40 L 83,38 L 84,37 L 84,36 L 85,35 L 85,30 L 86,29 L 86,26 L 87,25 L 87,22 L 86,21 L 86,20 L 85,19 L 85,17 L 86,16 L 86,15 L 87,14 L 87,12 L 83,8 L 82,8 L 81,7 L 80,7 L 78,5 L 76,5 L 75,4 L 74,4 L 73,3 L 72,3 L 71,2 L 68,2 L 67,1 L 63,1 L 62,0 Z" fill="none" stroke="black" stroke-width="1"/>
</svg>