<svg xmlns="http://www.w3.org/2000/svg" width="119" height="121">
  <path d="M 86,91 L 84,93 L 84,95 L 86,97 L 87,97 L 88,98 L 88,99 L 89,100 L 89,101 L 90,102 L 90,103 L 91,104 L 91,109 L 93,111 L 93,114 L 94,115 L 94,116 L 95,117 L 96,117 L 97,118 L 97,120 L 97,119 L 99,117 L 100,117 L 101,116 L 104,116 L 105,117 L 106,116 L 107,117 L 108,117 L 109,118 L 110,118 L 111,117 L 113,117 L 114,116 L 116,116 L 118,114 L 117,113 L 117,112 L 116,112 L 112,108 L 112,106 L 114,104 L 109,104 L 108,103 L 108,102 L 110,100 L 109,99 L 109,98 L 108,97 L 107,97 L 106,96 L 101,96 L 100,95 L 99,95 L 98,94 L 97,94 L 95,92 L 94,92 L 93,91 Z" fill="none" stroke="black" stroke-width="1"/>
</svg>