<svg xmlns="http://www.w3.org/2000/svg" width="84" height="87">
  <path d="M 26,35 L 26,36 L 25,37 L 25,38 L 26,39 L 26,40 L 27,41 L 27,42 L 28,43 L 28,44 L 25,47 L 23,47 L 21,45 L 21,44 L 20,44 L 18,42 L 18,41 L 17,41 L 16,42 L 15,42 L 18,45 L 18,50 L 20,52 L 21,52 L 24,55 L 25,55 L 26,56 L 27,56 L 28,55 L 30,55 L 31,56 L 33,56 L 34,57 L 34,58 L 36,60 L 37,60 L 38,59 L 39,59 L 44,54 L 49,54 L 50,53 L 51,53 L 51,51 L 50,50 L 50,49 L 47,46 L 47,45 L 46,46 L 43,46 L 41,44 L 40,44 L 37,41 L 37,40 L 36,40 L 35,39 L 34,39 L 33,38 L 29,38 L 28,37 L 29,36 L 29,35 Z" fill="none" stroke="black" stroke-width="1"/>
</svg>