<svg xmlns="http://www.w3.org/2000/svg" width="70" height="87">
  <path d="M 40,40 L 40,43 L 39,44 L 39,48 L 40,49 L 40,56 L 41,57 L 41,58 L 42,59 L 42,62 L 45,65 L 45,66 L 46,67 L 46,70 L 47,70 L 48,69 L 49,70 L 49,72 L 50,72 L 51,71 L 52,71 L 54,73 L 54,76 L 56,78 L 55,79 L 55,80 L 56,81 L 56,83 L 57,84 L 57,85 L 61,85 L 62,86 L 63,86 L 63,83 L 66,80 L 67,80 L 68,79 L 69,79 L 68,78 L 68,77 L 66,75 L 66,74 L 61,69 L 61,68 L 59,66 L 59,65 L 58,64 L 58,63 L 57,62 L 57,61 L 56,60 L 56,59 L 55,58 L 55,53 L 54,52 L 54,50 L 51,47 L 51,45 L 49,47 L 46,44 L 46,43 L 45,42 L 43,42 L 42,41 L 42,40 Z" fill="none" stroke="black" stroke-width="1"/>
</svg>