<svg xmlns="http://www.w3.org/2000/svg" width="54" height="69">
  <path d="M 3,66 L 3,68 L 6,68 L 6,67 L 5,67 L 4,66 Z" fill="none" stroke="black" stroke-width="1"/>
  <path d="M 6,39 L 5,40 L 5,43 L 4,44 L 5,44 L 6,45 L 7,45 L 8,46 L 8,47 L 9,48 L 9,50 L 8,51 L 7,51 L 6,52 L 6,54 L 4,56 L 3,56 L 3,58 L 2,59 L 1,59 L 0,60 L 0,62 L 2,64 L 3,64 L 5,62 L 6,63 L 7,63 L 8,64 L 9,64 L 11,66 L 12,66 L 12,64 L 11,63 L 11,61 L 10,60 L 10,59 L 9,58 L 9,57 L 10,56 L 12,56 L 14,54 L 14,52 L 15,51 L 17,53 L 17,51 L 19,49 L 22,49 L 23,50 L 23,52 L 26,52 L 26,50 L 27,49 L 27,47 L 25,45 L 25,44 L 22,44 L 21,43 L 21,41 L 20,40 L 17,40 L 16,41 L 15,41 L 14,40 L 8,40 L 7,39 Z" fill="none" stroke="black" stroke-width="1"/>
</svg>