<svg xmlns="http://www.w3.org/2000/svg" width="114" height="79">
  <path d="M 20,49 L 19,50 L 19,51 L 17,53 L 17,54 L 16,55 L 14,55 L 13,56 L 11,56 L 9,58 L 4,58 L 3,57 L 2,57 L 2,60 L 1,61 L 1,64 L 0,65 L 0,68 L 2,70 L 2,73 L 1,74 L 1,75 L 2,75 L 3,74 L 5,74 L 6,75 L 7,75 L 8,76 L 10,76 L 10,75 L 11,74 L 12,74 L 13,73 L 15,73 L 16,74 L 19,74 L 22,77 L 23,77 L 24,78 L 30,78 L 31,77 L 36,77 L 36,76 L 37,75 L 38,75 L 38,68 L 35,65 L 34,65 L 31,62 L 31,61 L 32,60 L 32,58 L 29,55 L 29,53 L 28,52 L 27,52 L 26,51 L 24,51 L 22,49 Z" fill="none" stroke="black" stroke-width="1"/>
</svg>