<svg xmlns="http://www.w3.org/2000/svg" width="114" height="79">
  <path d="M 23,11 L 23,15 L 21,17 L 21,18 L 18,21 L 18,25 L 17,26 L 17,37 L 20,40 L 20,41 L 22,43 L 22,48 L 24,50 L 26,50 L 27,51 L 28,51 L 30,53 L 30,55 L 33,58 L 34,57 L 34,56 L 38,52 L 38,51 L 39,50 L 46,50 L 51,45 L 51,44 L 56,39 L 58,39 L 59,38 L 59,37 L 61,35 L 61,34 L 60,33 L 59,33 L 57,31 L 57,29 L 55,27 L 54,27 L 53,26 L 53,22 L 51,20 L 50,21 L 49,21 L 48,22 L 46,22 L 45,23 L 44,23 L 43,24 L 40,24 L 39,25 L 38,25 L 37,24 L 37,23 L 36,22 L 35,22 L 33,20 L 33,19 L 32,18 L 32,17 L 31,16 L 31,14 L 30,13 L 29,13 L 27,11 Z" fill="none" stroke="black" stroke-width="1"/>
</svg>