<svg xmlns="http://www.w3.org/2000/svg" width="114" height="79">
  <path d="M 95,0 L 94,1 L 93,1 L 92,2 L 91,2 L 90,3 L 88,3 L 87,4 L 85,4 L 84,5 L 83,5 L 82,6 L 81,6 L 80,7 L 79,7 L 78,8 L 71,8 L 70,7 L 61,7 L 58,10 L 57,10 L 57,11 L 56,12 L 55,12 L 55,13 L 54,14 L 54,15 L 51,18 L 51,19 L 54,22 L 54,26 L 55,26 L 58,29 L 58,31 L 59,32 L 60,32 L 62,34 L 63,34 L 64,35 L 64,34 L 65,33 L 69,33 L 70,32 L 71,32 L 72,31 L 73,31 L 75,29 L 81,29 L 83,27 L 85,27 L 86,26 L 87,26 L 88,25 L 89,25 L 90,24 L 96,24 L 97,25 L 99,25 L 100,26 L 102,26 L 103,27 L 104,27 L 105,28 L 106,28 L 107,29 L 107,27 L 108,26 L 108,24 L 111,21 L 111,20 L 113,18 L 113,11 L 111,9 L 111,7 L 109,5 L 109,3 L 108,2 L 105,2 L 104,1 L 101,1 L 100,0 Z" fill="none" stroke="black" stroke-width="1"/>
</svg>