<svg xmlns="http://www.w3.org/2000/svg" width="62" height="48">
  <path d="M 37,28 L 37,29 L 35,31 L 34,31 L 33,32 L 33,33 L 32,34 L 31,34 L 30,35 L 29,34 L 27,34 L 26,33 L 27,32 L 27,31 L 26,30 L 24,30 L 21,33 L 21,35 L 19,37 L 18,37 L 17,38 L 11,38 L 9,40 L 10,41 L 13,41 L 14,42 L 13,43 L 12,43 L 12,44 L 15,44 L 16,43 L 17,43 L 19,41 L 20,41 L 21,42 L 25,42 L 26,43 L 28,43 L 29,44 L 30,44 L 31,45 L 32,45 L 34,47 L 36,47 L 37,46 L 38,46 L 39,45 L 40,45 L 40,44 L 47,37 L 48,37 L 53,32 L 53,30 L 52,30 L 51,31 L 45,31 L 43,29 L 42,29 L 41,28 Z" fill="none" stroke="black" stroke-width="1"/>
</svg>