<svg xmlns="http://www.w3.org/2000/svg" width="128" height="89">
  <path d="M 71,15 L 70,16 L 69,16 L 68,17 L 66,17 L 65,18 L 63,18 L 61,20 L 59,20 L 58,21 L 56,21 L 55,20 L 53,20 L 53,21 L 52,22 L 51,22 L 47,26 L 47,28 L 46,29 L 46,32 L 48,34 L 47,35 L 47,38 L 48,39 L 48,40 L 45,43 L 45,44 L 39,50 L 38,50 L 32,56 L 32,57 L 31,58 L 30,58 L 29,59 L 28,59 L 27,60 L 29,62 L 29,64 L 30,65 L 30,67 L 32,69 L 32,70 L 33,70 L 34,71 L 35,71 L 37,73 L 40,73 L 41,74 L 48,74 L 49,75 L 50,75 L 50,74 L 51,73 L 52,73 L 55,70 L 57,70 L 62,65 L 62,64 L 63,63 L 63,60 L 62,59 L 63,58 L 63,57 L 68,52 L 70,52 L 73,49 L 76,49 L 76,47 L 74,45 L 74,43 L 75,42 L 75,41 L 74,40 L 74,39 L 73,38 L 73,37 L 72,36 L 72,35 L 71,34 L 71,23 L 72,22 L 72,21 L 75,18 L 75,16 L 74,15 Z" fill="none" stroke="black" stroke-width="1"/>
</svg>