<svg xmlns="http://www.w3.org/2000/svg" width="128" height="89">
  <path d="M 96,0 L 94,2 L 93,2 L 88,7 L 87,7 L 86,8 L 82,8 L 77,13 L 76,13 L 75,14 L 75,15 L 76,16 L 76,18 L 73,21 L 73,22 L 72,23 L 72,34 L 73,35 L 73,36 L 74,37 L 74,38 L 75,39 L 75,40 L 76,41 L 76,42 L 75,43 L 75,45 L 77,47 L 77,49 L 80,49 L 81,48 L 82,48 L 83,47 L 84,47 L 85,46 L 93,46 L 94,45 L 95,45 L 100,40 L 105,40 L 105,39 L 108,36 L 109,36 L 109,35 L 110,34 L 111,34 L 112,33 L 114,33 L 113,32 L 113,31 L 112,30 L 112,28 L 113,27 L 113,26 L 114,25 L 114,22 L 116,20 L 116,17 L 115,16 L 115,15 L 114,14 L 114,11 L 111,8 L 111,7 L 110,6 L 109,6 L 104,1 L 103,1 L 102,0 Z" fill="none" stroke="black" stroke-width="1"/>
</svg>