<svg xmlns="http://www.w3.org/2000/svg" width="128" height="89">
  <path d="M 112,34 L 111,35 L 110,35 L 110,36 L 109,37 L 108,37 L 106,39 L 106,40 L 105,41 L 100,41 L 95,46 L 94,46 L 93,47 L 85,47 L 84,48 L 83,48 L 82,49 L 81,49 L 80,50 L 73,50 L 70,53 L 68,53 L 64,57 L 64,58 L 63,59 L 64,60 L 64,63 L 63,64 L 63,65 L 58,70 L 64,70 L 65,71 L 72,71 L 73,70 L 74,70 L 75,69 L 76,69 L 77,68 L 78,68 L 79,67 L 81,67 L 82,66 L 84,66 L 85,65 L 86,65 L 87,64 L 88,64 L 89,63 L 94,63 L 95,64 L 98,64 L 99,65 L 102,65 L 103,66 L 104,66 L 105,65 L 110,65 L 111,64 L 112,64 L 113,63 L 114,63 L 116,61 L 117,61 L 118,60 L 119,60 L 120,59 L 121,59 L 123,57 L 127,57 L 127,55 L 122,50 L 122,49 L 120,47 L 120,46 L 118,44 L 118,42 L 117,41 L 117,39 L 116,38 L 116,37 L 115,36 L 115,34 Z" fill="none" stroke="black" stroke-width="1"/>
</svg>