<svg xmlns="http://www.w3.org/2000/svg" width="187" height="119">
  <path d="M 45,29 L 45,30 L 44,31 L 44,33 L 43,34 L 43,37 L 42,38 L 39,38 L 37,40 L 37,41 L 32,46 L 31,46 L 30,47 L 29,47 L 28,48 L 25,48 L 24,49 L 16,49 L 15,50 L 14,50 L 13,51 L 10,51 L 9,52 L 9,59 L 10,60 L 10,61 L 14,65 L 14,66 L 15,66 L 17,68 L 19,68 L 20,69 L 21,69 L 22,70 L 23,70 L 27,74 L 33,74 L 34,75 L 35,75 L 36,76 L 37,76 L 39,78 L 49,78 L 50,77 L 51,77 L 53,75 L 53,74 L 54,73 L 54,72 L 55,71 L 55,68 L 51,64 L 55,60 L 56,60 L 58,58 L 58,57 L 59,56 L 59,55 L 60,54 L 60,53 L 61,52 L 61,51 L 63,49 L 63,48 L 65,46 L 65,45 L 69,41 L 69,40 L 68,40 L 67,39 L 59,39 L 58,38 L 57,38 L 56,37 L 55,37 L 53,35 L 52,35 L 48,31 L 47,31 Z" fill="none" stroke="black" stroke-width="1"/>
</svg>