<svg xmlns="http://www.w3.org/2000/svg" width="187" height="119">
  <path d="M 103,71 L 102,72 L 100,72 L 99,73 L 97,73 L 96,74 L 95,74 L 94,75 L 93,75 L 90,72 L 85,72 L 83,74 L 82,74 L 81,75 L 81,76 L 80,77 L 75,77 L 73,79 L 72,79 L 71,80 L 70,80 L 69,81 L 68,81 L 67,82 L 65,82 L 64,83 L 60,83 L 59,84 L 57,84 L 57,86 L 61,90 L 62,90 L 66,94 L 66,95 L 68,97 L 68,98 L 70,98 L 70,96 L 71,95 L 75,95 L 76,96 L 75,97 L 75,98 L 76,99 L 77,99 L 79,101 L 79,104 L 80,104 L 80,100 L 82,98 L 83,98 L 86,101 L 86,102 L 85,103 L 83,101 L 82,101 L 83,102 L 82,103 L 82,104 L 88,110 L 88,111 L 87,112 L 85,112 L 85,114 L 86,115 L 86,116 L 88,118 L 89,117 L 90,117 L 91,116 L 102,116 L 108,110 L 109,110 L 118,101 L 119,101 L 120,100 L 124,100 L 124,99 L 125,98 L 125,97 L 127,95 L 128,95 L 133,90 L 133,86 L 131,86 L 129,84 L 129,83 L 125,79 L 125,74 L 123,72 L 122,73 L 121,73 L 120,72 L 119,72 L 119,73 L 117,75 L 115,75 L 114,74 L 109,74 L 108,73 L 107,73 L 105,71 Z" fill="none" stroke="black" stroke-width="1"/>
</svg>