<svg xmlns="http://www.w3.org/2000/svg" width="104" height="94">
  <path d="M 54,0 L 54,1 L 52,3 L 51,3 L 49,5 L 47,5 L 46,6 L 45,6 L 45,10 L 44,11 L 40,11 L 37,8 L 37,7 L 35,5 L 34,5 L 34,6 L 31,9 L 29,9 L 26,6 L 24,6 L 23,7 L 23,8 L 22,9 L 22,12 L 25,15 L 25,17 L 24,18 L 24,28 L 25,28 L 26,29 L 26,30 L 27,31 L 27,32 L 28,33 L 28,34 L 29,35 L 29,37 L 30,37 L 31,38 L 34,38 L 35,37 L 36,37 L 37,36 L 39,38 L 40,38 L 41,37 L 44,37 L 45,36 L 45,35 L 46,34 L 46,33 L 47,32 L 47,31 L 49,29 L 50,29 L 52,31 L 53,31 L 54,32 L 55,32 L 56,33 L 61,33 L 62,32 L 61,31 L 61,29 L 63,27 L 63,26 L 65,24 L 65,22 L 64,21 L 64,19 L 66,17 L 66,15 L 68,13 L 68,12 L 67,11 L 67,9 L 68,8 L 67,8 L 65,6 L 65,5 L 61,5 L 57,1 L 56,1 L 55,0 Z" fill="none" stroke="black" stroke-width="1"/>
</svg>