<svg xmlns="http://www.w3.org/2000/svg" width="95" height="66">
  <path d="M 15,24 L 14,25 L 11,25 L 10,26 L 7,26 L 5,28 L 4,28 L 4,29 L 2,31 L 2,33 L 0,35 L 0,37 L 1,38 L 1,40 L 5,40 L 6,41 L 7,41 L 8,42 L 9,42 L 10,43 L 11,43 L 13,45 L 14,45 L 15,46 L 17,46 L 18,47 L 24,47 L 27,50 L 28,50 L 29,51 L 30,50 L 38,58 L 38,57 L 39,56 L 39,55 L 40,54 L 40,51 L 39,50 L 39,45 L 35,41 L 35,37 L 34,36 L 31,36 L 30,35 L 30,33 L 29,32 L 29,31 L 24,26 L 23,26 L 21,24 Z" fill="none" stroke="black" stroke-width="1"/>
</svg>