<svg xmlns="http://www.w3.org/2000/svg" width="100" height="102">
  <path d="M 24,0 L 23,1 L 22,1 L 22,2 L 23,3 L 23,4 L 24,5 L 24,15 L 21,18 L 21,19 L 22,20 L 22,21 L 23,21 L 26,24 L 26,30 L 25,31 L 25,32 L 23,34 L 26,37 L 27,37 L 28,38 L 30,38 L 31,39 L 32,39 L 33,40 L 36,40 L 37,41 L 40,41 L 41,40 L 42,40 L 44,38 L 45,38 L 46,37 L 50,37 L 52,35 L 52,32 L 51,31 L 51,29 L 52,28 L 52,26 L 53,25 L 53,18 L 55,16 L 55,14 L 53,14 L 52,13 L 46,13 L 44,11 L 43,11 L 38,6 L 37,6 L 34,3 L 34,1 L 33,0 Z" fill="none" stroke="black" stroke-width="1"/>
</svg>