<svg xmlns="http://www.w3.org/2000/svg" width="100" height="102">
  <path d="M 52,53 L 52,55 L 51,56 L 48,56 L 48,57 L 49,58 L 49,61 L 50,62 L 50,68 L 48,70 L 48,71 L 46,73 L 46,74 L 45,75 L 45,78 L 44,79 L 44,80 L 42,82 L 42,83 L 40,85 L 40,86 L 42,88 L 42,92 L 40,94 L 39,94 L 41,96 L 41,97 L 45,101 L 53,101 L 54,100 L 60,100 L 61,99 L 62,99 L 63,98 L 64,98 L 65,97 L 66,97 L 67,96 L 68,96 L 73,91 L 74,91 L 75,90 L 77,90 L 78,89 L 78,88 L 79,87 L 80,87 L 80,85 L 79,84 L 79,83 L 77,81 L 76,81 L 75,80 L 75,79 L 67,71 L 67,70 L 66,69 L 66,67 L 65,66 L 65,65 L 64,64 L 64,63 L 63,62 L 63,61 L 64,60 L 63,59 L 62,59 L 60,57 L 59,57 L 58,56 L 57,56 L 55,54 L 54,54 L 53,53 Z" fill="none" stroke="black" stroke-width="1"/>
</svg>