<svg xmlns="http://www.w3.org/2000/svg" width="106" height="57">
  <path d="M 25,20 L 23,22 L 22,22 L 21,23 L 20,23 L 21,23 L 25,27 L 26,27 L 29,30 L 29,32 L 32,35 L 32,38 L 33,39 L 33,41 L 34,41 L 35,42 L 35,48 L 36,48 L 37,49 L 38,49 L 39,50 L 40,50 L 42,52 L 45,52 L 47,54 L 48,53 L 49,54 L 52,54 L 54,56 L 55,56 L 59,52 L 60,52 L 62,50 L 62,49 L 63,48 L 63,46 L 64,45 L 65,45 L 65,43 L 66,42 L 69,42 L 70,41 L 72,41 L 72,38 L 71,37 L 71,36 L 66,31 L 66,30 L 65,30 L 64,29 L 58,29 L 56,27 L 55,27 L 54,26 L 52,28 L 47,28 L 46,27 L 45,27 L 44,26 L 42,26 L 40,24 L 39,25 L 36,25 L 35,24 L 34,24 L 31,21 L 29,21 L 28,20 Z" fill="none" stroke="black" stroke-width="1"/>
</svg>