<svg xmlns="http://www.w3.org/2000/svg" width="61" height="110">
  <path d="M 57,26 L 57,30 L 58,30 L 58,26 Z" fill="none" stroke="black" stroke-width="1"/>
  <path d="M 22,0 L 21,1 L 21,3 L 19,5 L 19,11 L 21,13 L 23,13 L 26,16 L 26,25 L 27,26 L 27,27 L 28,27 L 30,29 L 30,31 L 34,35 L 36,35 L 37,36 L 40,36 L 42,38 L 43,38 L 44,39 L 44,40 L 45,40 L 46,39 L 49,39 L 50,40 L 52,40 L 53,41 L 54,41 L 55,42 L 58,42 L 59,41 L 60,41 L 60,40 L 59,41 L 57,39 L 57,36 L 56,35 L 56,34 L 55,33 L 55,28 L 54,28 L 53,27 L 54,26 L 53,25 L 53,24 L 54,23 L 55,23 L 55,20 L 53,20 L 50,17 L 51,16 L 52,16 L 53,17 L 54,17 L 55,18 L 56,17 L 57,18 L 57,19 L 57,17 L 56,16 L 57,15 L 58,15 L 57,14 L 58,13 L 59,13 L 58,13 L 55,10 L 55,9 L 51,9 L 50,8 L 50,6 L 49,6 L 48,5 L 48,4 L 44,0 L 38,0 L 36,2 L 33,2 L 32,3 L 30,3 L 28,1 L 27,1 L 26,0 Z" fill="none" stroke="black" stroke-width="1"/>
</svg>