<svg xmlns="http://www.w3.org/2000/svg" width="119" height="71">
  <path d="M 12,17 L 11,18 L 1,18 L 0,19 L 0,20 L 1,21 L 1,22 L 2,23 L 2,24 L 3,25 L 3,27 L 4,28 L 4,29 L 12,37 L 12,38 L 13,38 L 16,41 L 16,42 L 17,43 L 17,45 L 18,45 L 21,48 L 22,48 L 24,50 L 25,50 L 27,52 L 28,52 L 29,53 L 29,54 L 34,59 L 34,63 L 35,63 L 36,64 L 37,64 L 38,65 L 38,66 L 39,67 L 39,70 L 40,70 L 41,69 L 41,68 L 42,67 L 42,66 L 44,64 L 45,64 L 46,63 L 47,63 L 47,60 L 48,59 L 48,58 L 49,57 L 49,56 L 48,55 L 49,54 L 49,52 L 48,51 L 48,50 L 44,46 L 44,45 L 43,44 L 43,41 L 39,37 L 39,34 L 38,33 L 38,32 L 37,31 L 37,30 L 36,29 L 36,28 L 35,28 L 32,25 L 31,25 L 30,24 L 29,24 L 28,23 L 27,23 L 24,20 L 23,20 L 22,19 L 20,19 L 19,18 L 19,17 Z" fill="none" stroke="black" stroke-width="1"/>
</svg>