<svg xmlns="http://www.w3.org/2000/svg" width="54" height="69">
  <path d="M 27,0 L 25,2 L 21,2 L 20,3 L 21,4 L 21,6 L 22,7 L 23,6 L 24,6 L 26,8 L 27,8 L 29,10 L 29,11 L 31,13 L 30,14 L 29,14 L 28,15 L 25,15 L 24,16 L 24,17 L 25,17 L 26,18 L 27,18 L 28,19 L 28,20 L 29,21 L 31,21 L 32,22 L 32,26 L 33,27 L 37,27 L 38,26 L 39,26 L 40,25 L 41,25 L 41,22 L 42,21 L 43,21 L 46,18 L 46,16 L 47,15 L 47,14 L 48,13 L 48,10 L 53,5 L 52,4 L 52,2 L 51,2 L 49,0 L 48,0 L 47,1 L 41,1 L 40,0 L 35,0 L 34,1 L 31,1 L 30,0 Z" fill="none" stroke="black" stroke-width="1"/>
</svg>