<svg xmlns="http://www.w3.org/2000/svg" width="160" height="103">
  <path d="M 68,0 L 68,2 L 66,4 L 62,4 L 61,5 L 60,5 L 59,6 L 58,6 L 58,7 L 57,8 L 57,11 L 56,12 L 56,16 L 57,16 L 58,17 L 57,18 L 57,26 L 58,27 L 58,29 L 59,30 L 59,31 L 61,33 L 62,33 L 63,34 L 64,34 L 65,35 L 66,35 L 67,36 L 67,38 L 68,39 L 68,40 L 69,41 L 69,42 L 70,43 L 70,44 L 75,44 L 76,45 L 87,45 L 88,44 L 93,44 L 94,43 L 96,43 L 98,41 L 99,41 L 100,40 L 104,40 L 105,39 L 107,39 L 110,36 L 112,36 L 113,37 L 114,37 L 115,36 L 121,36 L 122,37 L 123,36 L 126,36 L 127,35 L 129,35 L 130,34 L 131,34 L 131,33 L 134,30 L 135,30 L 136,29 L 137,29 L 138,28 L 139,28 L 140,27 L 141,27 L 142,26 L 143,26 L 144,25 L 145,25 L 146,24 L 149,24 L 151,22 L 157,22 L 157,21 L 159,19 L 159,16 L 157,16 L 155,14 L 152,14 L 151,13 L 150,13 L 149,12 L 144,12 L 143,11 L 133,11 L 132,10 L 132,9 L 131,8 L 129,8 L 128,9 L 127,9 L 126,8 L 125,9 L 123,9 L 122,10 L 120,10 L 119,11 L 119,12 L 118,13 L 116,13 L 115,14 L 113,14 L 112,13 L 112,11 L 107,11 L 106,10 L 102,10 L 100,8 L 96,8 L 95,7 L 91,7 L 90,6 L 89,6 L 88,5 L 87,5 L 86,4 L 82,4 L 81,3 L 78,3 L 77,2 L 75,2 L 74,1 L 73,1 L 72,0 Z" fill="none" stroke="black" stroke-width="1"/>
</svg>