<svg xmlns="http://www.w3.org/2000/svg" width="160" height="103">
  <path d="M 151,23 L 149,25 L 146,25 L 145,26 L 144,26 L 143,27 L 142,27 L 141,28 L 140,28 L 139,29 L 138,29 L 137,30 L 136,30 L 135,31 L 134,31 L 132,33 L 132,34 L 131,35 L 130,35 L 129,36 L 127,36 L 127,37 L 128,38 L 128,39 L 124,43 L 123,43 L 122,44 L 122,47 L 117,52 L 117,53 L 116,54 L 116,58 L 114,60 L 114,61 L 113,62 L 113,67 L 111,69 L 111,70 L 110,71 L 110,72 L 109,73 L 109,76 L 110,77 L 109,78 L 109,79 L 108,80 L 108,81 L 107,82 L 117,82 L 118,83 L 118,84 L 121,87 L 122,87 L 123,88 L 129,88 L 130,87 L 141,87 L 142,86 L 143,86 L 144,85 L 145,85 L 147,83 L 150,83 L 151,82 L 154,82 L 154,77 L 153,76 L 153,75 L 152,74 L 152,73 L 151,72 L 151,64 L 149,62 L 149,59 L 150,58 L 150,56 L 151,55 L 151,54 L 152,53 L 152,51 L 154,49 L 154,46 L 153,45 L 153,41 L 152,40 L 152,39 L 151,38 L 151,35 L 152,34 L 152,33 L 155,30 L 155,29 L 156,28 L 156,23 Z" fill="none" stroke="black" stroke-width="1"/>
</svg>