<svg xmlns="http://www.w3.org/2000/svg" width="117" height="87">
  <path d="M 47,0 L 46,1 L 45,1 L 44,2 L 43,2 L 42,3 L 40,3 L 39,4 L 37,4 L 36,5 L 25,5 L 24,6 L 21,6 L 20,7 L 19,7 L 18,8 L 11,8 L 10,9 L 7,9 L 7,10 L 6,11 L 5,11 L 3,13 L 3,14 L 0,17 L 3,17 L 5,19 L 6,19 L 8,21 L 10,21 L 11,22 L 12,22 L 14,24 L 15,24 L 16,25 L 17,25 L 24,32 L 25,32 L 29,36 L 30,36 L 31,37 L 32,37 L 33,38 L 35,38 L 39,42 L 40,42 L 42,44 L 47,44 L 48,45 L 50,45 L 49,44 L 49,43 L 50,42 L 50,40 L 52,38 L 52,34 L 54,32 L 54,31 L 58,27 L 60,27 L 61,26 L 60,25 L 60,23 L 61,22 L 61,19 L 63,17 L 63,16 L 67,12 L 69,12 L 70,11 L 71,11 L 72,10 L 73,10 L 74,9 L 73,9 L 69,5 L 69,4 L 59,4 L 58,3 L 58,1 L 50,1 L 49,0 Z" fill="none" stroke="black" stroke-width="1"/>
</svg>