<svg xmlns="http://www.w3.org/2000/svg" width="117" height="87">
  <path d="M 103,4 L 102,5 L 99,5 L 97,7 L 96,7 L 95,8 L 94,8 L 93,9 L 82,9 L 81,10 L 74,10 L 73,11 L 72,11 L 71,12 L 70,12 L 69,13 L 67,13 L 64,16 L 64,17 L 62,19 L 62,22 L 61,23 L 61,25 L 63,25 L 64,24 L 67,27 L 68,27 L 69,28 L 70,28 L 71,29 L 72,29 L 76,33 L 77,33 L 79,35 L 79,36 L 80,37 L 80,40 L 81,41 L 89,41 L 90,42 L 90,43 L 91,44 L 94,44 L 95,43 L 98,43 L 99,44 L 99,45 L 103,49 L 103,50 L 106,53 L 106,54 L 107,55 L 107,57 L 108,58 L 110,58 L 111,57 L 112,57 L 113,56 L 113,53 L 112,52 L 114,50 L 114,49 L 115,48 L 115,46 L 116,45 L 116,37 L 115,36 L 115,34 L 114,33 L 114,32 L 113,31 L 113,30 L 112,29 L 112,28 L 111,27 L 111,22 L 110,21 L 110,20 L 109,19 L 109,16 L 110,15 L 109,15 L 108,14 L 108,11 L 109,10 L 109,6 L 107,4 Z" fill="none" stroke="black" stroke-width="1"/>
</svg>