<svg xmlns="http://www.w3.org/2000/svg" width="187" height="119">
  <path d="M 113,33 L 113,42 L 114,42 L 115,43 L 115,44 L 116,45 L 116,47 L 117,48 L 117,49 L 118,50 L 118,57 L 119,57 L 123,61 L 123,63 L 122,64 L 123,65 L 123,67 L 124,68 L 124,70 L 123,71 L 126,74 L 126,79 L 130,83 L 130,84 L 131,85 L 133,85 L 134,86 L 135,86 L 136,85 L 138,85 L 139,86 L 141,86 L 142,87 L 143,87 L 144,88 L 145,88 L 148,91 L 150,91 L 151,92 L 152,92 L 153,93 L 154,93 L 155,94 L 161,94 L 162,93 L 178,93 L 179,94 L 180,94 L 181,95 L 186,95 L 186,92 L 182,88 L 182,87 L 179,84 L 179,83 L 178,82 L 178,79 L 179,78 L 178,77 L 178,76 L 176,74 L 176,73 L 175,72 L 175,71 L 167,63 L 164,63 L 163,62 L 163,61 L 162,61 L 161,60 L 156,60 L 154,58 L 153,58 L 149,54 L 147,54 L 146,53 L 145,53 L 144,52 L 143,52 L 139,48 L 138,48 L 131,41 L 130,41 L 129,40 L 128,40 L 126,38 L 125,38 L 124,37 L 122,37 L 120,35 L 119,35 L 117,33 Z" fill="none" stroke="black" stroke-width="1"/>
</svg>