<svg xmlns="http://www.w3.org/2000/svg" width="74" height="100">
  <path d="M 3,0 L 2,1 L 0,1 L 0,3 L 1,4 L 1,8 L 4,11 L 4,12 L 8,16 L 8,17 L 9,18 L 9,19 L 10,20 L 11,20 L 12,21 L 13,21 L 14,22 L 16,22 L 17,23 L 18,23 L 20,25 L 20,26 L 22,28 L 22,30 L 27,30 L 28,31 L 31,31 L 32,32 L 48,32 L 50,34 L 51,34 L 52,35 L 53,35 L 54,36 L 55,36 L 56,37 L 58,37 L 59,38 L 60,38 L 61,39 L 62,39 L 63,40 L 63,41 L 64,42 L 66,42 L 68,40 L 68,36 L 64,32 L 64,31 L 63,30 L 63,14 L 60,11 L 59,12 L 56,12 L 55,13 L 50,13 L 49,12 L 49,11 L 41,11 L 36,6 L 36,5 L 35,4 L 33,6 L 30,6 L 29,5 L 27,5 L 26,4 L 24,4 L 23,3 L 21,3 L 20,2 L 18,2 L 17,3 L 11,3 L 10,2 L 9,2 L 8,1 L 7,1 L 6,0 Z" fill="none" stroke="black" stroke-width="1"/>
</svg>