<svg xmlns="http://www.w3.org/2000/svg" width="120" height="62">
  <path d="M 51,7 L 49,9 L 49,10 L 50,11 L 50,13 L 48,15 L 47,15 L 46,16 L 45,16 L 44,17 L 43,17 L 36,24 L 35,24 L 33,26 L 32,26 L 30,28 L 28,28 L 29,29 L 29,33 L 28,34 L 28,35 L 32,39 L 32,38 L 33,37 L 34,37 L 35,38 L 36,38 L 37,37 L 39,37 L 40,36 L 45,36 L 46,35 L 50,35 L 51,34 L 52,34 L 53,33 L 55,33 L 56,32 L 58,32 L 59,31 L 60,31 L 61,30 L 65,30 L 66,29 L 74,29 L 75,28 L 79,28 L 80,27 L 81,27 L 83,25 L 84,25 L 85,24 L 86,24 L 86,23 L 82,19 L 81,19 L 79,17 L 79,16 L 77,14 L 77,9 L 76,8 L 75,8 L 74,7 L 72,7 L 71,8 L 63,8 L 62,7 Z" fill="none" stroke="black" stroke-width="1"/>
</svg>