<svg xmlns="http://www.w3.org/2000/svg" width="68" height="99">
  <path d="M 3,0 L 2,1 L 2,2 L 1,3 L 0,3 L 0,6 L 2,8 L 2,9 L 3,10 L 3,11 L 4,12 L 4,15 L 5,16 L 5,17 L 6,18 L 6,20 L 5,21 L 5,28 L 6,29 L 6,33 L 2,37 L 2,39 L 7,39 L 8,40 L 11,40 L 12,41 L 13,41 L 14,40 L 15,40 L 15,39 L 16,38 L 17,38 L 19,36 L 20,36 L 21,35 L 22,35 L 23,34 L 25,34 L 26,33 L 27,33 L 28,32 L 28,28 L 27,27 L 27,26 L 30,23 L 32,23 L 33,22 L 34,22 L 35,21 L 36,21 L 38,19 L 38,18 L 37,17 L 39,15 L 41,15 L 41,14 L 40,13 L 40,11 L 39,10 L 39,8 L 38,7 L 35,7 L 34,6 L 33,6 L 32,5 L 29,5 L 28,4 L 19,4 L 18,3 L 14,3 L 13,2 L 12,2 L 10,0 Z" fill="none" stroke="black" stroke-width="1"/>
</svg>