<svg xmlns="http://www.w3.org/2000/svg" width="110" height="79">
  <path d="M 13,0 L 12,1 L 10,1 L 10,5 L 8,7 L 8,8 L 7,9 L 7,14 L 6,15 L 6,16 L 3,19 L 6,19 L 7,20 L 8,20 L 10,22 L 11,22 L 12,23 L 13,23 L 14,24 L 15,24 L 16,25 L 18,25 L 19,26 L 21,26 L 22,27 L 24,27 L 28,31 L 28,33 L 29,34 L 30,34 L 31,35 L 32,35 L 34,37 L 34,38 L 36,40 L 38,40 L 38,39 L 39,38 L 56,38 L 60,34 L 60,33 L 62,31 L 64,31 L 64,30 L 66,28 L 66,25 L 56,25 L 54,23 L 53,23 L 52,22 L 51,22 L 50,21 L 49,21 L 47,19 L 46,19 L 45,18 L 43,18 L 42,17 L 41,17 L 40,16 L 38,16 L 37,15 L 34,15 L 33,14 L 32,14 L 31,13 L 30,13 L 28,11 L 28,10 L 27,10 L 24,7 L 23,7 L 22,6 L 21,6 L 20,5 L 19,5 L 18,4 L 18,2 L 17,2 L 15,0 Z" fill="none" stroke="black" stroke-width="1"/>
</svg>