<svg xmlns="http://www.w3.org/2000/svg" width="61" height="91">
  <path d="M 35,40 L 32,43 L 30,43 L 31,44 L 30,45 L 30,46 L 29,47 L 28,47 L 25,50 L 24,50 L 22,48 L 22,47 L 24,45 L 25,45 L 24,45 L 23,44 L 21,44 L 19,46 L 18,46 L 17,47 L 16,47 L 14,49 L 12,49 L 10,47 L 9,47 L 9,48 L 10,49 L 9,50 L 8,50 L 6,52 L 6,53 L 5,54 L 8,54 L 9,55 L 8,56 L 6,56 L 7,57 L 6,58 L 1,58 L 0,59 L 3,59 L 6,62 L 8,62 L 9,63 L 13,59 L 14,59 L 15,60 L 16,60 L 17,61 L 19,61 L 20,60 L 24,60 L 25,59 L 26,59 L 26,58 L 27,57 L 29,57 L 31,55 L 35,55 L 36,54 L 39,54 L 39,53 L 41,51 L 44,51 L 45,50 L 46,50 L 44,48 L 44,47 L 43,46 L 42,46 L 40,44 L 39,44 L 38,45 L 36,43 L 36,41 Z" fill="none" stroke="black" stroke-width="1"/>
</svg>