<svg xmlns="http://www.w3.org/2000/svg" width="150" height="72">
  <path d="M 11,0 L 10,1 L 9,1 L 8,2 L 5,2 L 4,3 L 0,3 L 1,3 L 2,4 L 2,6 L 3,6 L 4,7 L 5,7 L 6,8 L 7,8 L 10,11 L 11,11 L 12,12 L 12,13 L 13,14 L 14,14 L 15,15 L 16,15 L 17,16 L 20,16 L 21,17 L 23,17 L 24,18 L 25,18 L 26,19 L 28,19 L 29,20 L 30,20 L 32,22 L 33,22 L 34,23 L 35,23 L 36,24 L 37,24 L 39,26 L 51,26 L 52,25 L 53,25 L 54,24 L 58,24 L 63,29 L 63,32 L 64,33 L 66,31 L 67,31 L 68,30 L 69,30 L 71,28 L 71,27 L 73,25 L 73,23 L 74,22 L 74,21 L 75,20 L 75,18 L 76,17 L 75,16 L 75,14 L 74,14 L 72,12 L 71,12 L 70,11 L 70,10 L 67,10 L 66,11 L 64,11 L 63,10 L 62,10 L 61,9 L 52,9 L 51,10 L 47,10 L 46,9 L 44,9 L 43,8 L 42,8 L 41,7 L 38,7 L 37,8 L 36,7 L 34,7 L 32,5 L 31,5 L 29,3 L 20,3 L 19,2 L 18,2 L 16,0 Z" fill="none" stroke="black" stroke-width="1"/>
</svg>