<svg xmlns="http://www.w3.org/2000/svg" width="93" height="96">
  <path d="M 42,40 L 36,46 L 36,47 L 34,49 L 33,49 L 32,50 L 28,50 L 27,51 L 26,51 L 25,52 L 25,53 L 24,54 L 23,54 L 23,55 L 24,56 L 26,56 L 27,57 L 28,57 L 29,58 L 30,58 L 32,60 L 32,65 L 33,66 L 33,67 L 36,70 L 37,70 L 38,71 L 39,71 L 42,74 L 42,75 L 43,76 L 43,79 L 44,80 L 45,80 L 46,79 L 47,80 L 48,80 L 51,77 L 52,77 L 53,76 L 54,76 L 54,74 L 58,70 L 59,70 L 60,69 L 61,69 L 63,67 L 64,67 L 65,66 L 68,66 L 70,64 L 70,63 L 71,62 L 72,62 L 72,61 L 71,60 L 69,60 L 68,59 L 68,58 L 67,57 L 63,57 L 61,55 L 58,55 L 55,52 L 54,52 L 52,50 L 51,50 L 50,49 L 50,48 L 47,45 L 45,45 L 44,44 L 44,40 Z" fill="none" stroke="black" stroke-width="1"/>
</svg>