<svg xmlns="http://www.w3.org/2000/svg" width="95" height="58">
  <path d="M 55,24 L 54,25 L 53,25 L 51,27 L 50,27 L 48,29 L 47,29 L 46,30 L 44,30 L 42,32 L 42,33 L 41,34 L 41,38 L 42,39 L 42,40 L 43,41 L 42,42 L 42,47 L 41,48 L 42,48 L 43,49 L 43,50 L 47,50 L 48,51 L 48,52 L 50,52 L 52,54 L 53,54 L 53,53 L 54,52 L 59,52 L 61,54 L 69,54 L 70,53 L 72,55 L 72,56 L 73,57 L 75,57 L 75,51 L 76,50 L 76,49 L 75,49 L 74,48 L 74,47 L 73,46 L 73,45 L 72,44 L 72,42 L 71,41 L 71,39 L 70,38 L 70,37 L 68,35 L 68,34 L 65,31 L 63,31 L 61,29 L 61,28 L 59,26 L 59,24 Z" fill="none" stroke="black" stroke-width="1"/>
</svg>