<svg xmlns="http://www.w3.org/2000/svg" width="68" height="99">
  <path d="M 3,40 L 2,41 L 2,42 L 1,43 L 1,48 L 2,48 L 3,49 L 3,52 L 4,53 L 4,55 L 5,56 L 5,59 L 6,60 L 6,61 L 7,62 L 7,64 L 8,65 L 7,66 L 7,67 L 25,67 L 26,68 L 27,68 L 28,69 L 29,69 L 30,70 L 32,70 L 33,71 L 35,71 L 36,70 L 36,69 L 37,68 L 38,68 L 38,67 L 40,65 L 41,65 L 43,63 L 43,62 L 47,58 L 48,58 L 50,56 L 51,56 L 53,54 L 53,52 L 52,51 L 52,50 L 51,49 L 51,46 L 48,46 L 47,45 L 45,45 L 44,44 L 40,44 L 39,43 L 32,43 L 31,42 L 25,42 L 23,44 L 21,44 L 20,45 L 19,45 L 18,44 L 18,43 L 17,42 L 16,42 L 15,41 L 14,41 L 13,42 L 12,42 L 11,41 L 8,41 L 7,40 Z" fill="none" stroke="black" stroke-width="1"/>
</svg>