<svg xmlns="http://www.w3.org/2000/svg" width="75" height="65">
  <path d="M 28,55 L 28,56 L 29,56 L 30,57 L 31,57 L 32,56 L 31,56 L 30,55 Z" fill="none" stroke="black" stroke-width="1"/>
  <path d="M 4,31 L 4,35 L 3,36 L 3,38 L 2,39 L 3,40 L 3,44 L 2,45 L 2,46 L 1,47 L 1,50 L 0,51 L 1,52 L 12,52 L 13,53 L 14,53 L 16,55 L 20,55 L 21,56 L 24,56 L 25,55 L 26,55 L 24,53 L 25,52 L 26,52 L 27,51 L 30,51 L 31,52 L 33,52 L 35,54 L 35,56 L 36,56 L 36,52 L 35,51 L 35,50 L 29,44 L 29,43 L 27,41 L 27,40 L 24,37 L 24,35 L 22,35 L 21,34 L 18,34 L 17,33 L 16,33 L 15,34 L 12,34 L 10,32 L 9,32 L 8,31 Z" fill="none" stroke="black" stroke-width="1"/>
</svg>