<svg xmlns="http://www.w3.org/2000/svg" width="165" height="85">
  <path d="M 14,27 L 14,33 L 12,35 L 12,36 L 9,39 L 5,39 L 4,40 L 4,42 L 3,43 L 3,44 L 2,45 L 0,45 L 0,55 L 2,57 L 2,58 L 3,59 L 4,59 L 5,60 L 5,64 L 7,64 L 11,68 L 11,69 L 12,69 L 14,71 L 15,71 L 18,74 L 21,74 L 23,76 L 28,76 L 28,72 L 26,70 L 26,68 L 25,67 L 25,63 L 26,62 L 27,62 L 26,62 L 24,60 L 24,56 L 26,54 L 27,54 L 28,53 L 29,53 L 29,51 L 30,50 L 30,48 L 31,47 L 32,47 L 32,46 L 31,46 L 30,45 L 29,45 L 28,44 L 28,43 L 27,42 L 27,40 L 26,39 L 26,38 L 25,38 L 24,37 L 24,36 L 22,34 L 22,33 L 20,31 L 19,31 L 18,30 L 18,29 L 17,28 L 16,28 L 15,27 Z" fill="none" stroke="black" stroke-width="1"/>
</svg>