<svg xmlns="http://www.w3.org/2000/svg" width="47" height="81">
  <path d="M 43,0 L 41,2 L 40,2 L 37,5 L 36,5 L 34,7 L 33,7 L 31,9 L 32,10 L 32,12 L 31,13 L 31,15 L 30,16 L 30,17 L 28,19 L 28,23 L 27,24 L 27,28 L 26,29 L 26,35 L 25,36 L 26,37 L 26,38 L 27,39 L 27,41 L 28,42 L 28,44 L 27,45 L 27,47 L 28,48 L 30,46 L 31,46 L 32,45 L 33,45 L 36,42 L 36,41 L 37,40 L 39,40 L 40,39 L 41,39 L 41,36 L 42,35 L 41,34 L 42,33 L 42,30 L 44,28 L 43,27 L 43,26 L 44,25 L 44,24 L 45,23 L 45,17 L 46,16 L 46,10 L 45,10 L 44,9 L 46,7 L 46,2 L 45,2 L 44,1 L 44,0 Z" fill="none" stroke="black" stroke-width="1"/>
</svg>