<svg xmlns="http://www.w3.org/2000/svg" width="47" height="81">
  <path d="M 40,40 L 39,41 L 37,41 L 37,42 L 33,46 L 32,46 L 31,47 L 30,47 L 28,49 L 27,48 L 26,48 L 26,49 L 25,50 L 25,55 L 24,56 L 24,57 L 23,58 L 23,59 L 22,60 L 22,61 L 21,62 L 21,63 L 20,64 L 20,65 L 18,67 L 18,68 L 16,70 L 16,72 L 15,73 L 15,79 L 16,79 L 17,80 L 18,80 L 18,78 L 19,77 L 20,77 L 21,76 L 24,76 L 25,77 L 26,77 L 27,78 L 29,78 L 29,72 L 30,71 L 33,71 L 34,72 L 35,71 L 35,68 L 36,67 L 36,66 L 35,65 L 36,64 L 36,63 L 37,62 L 37,61 L 38,60 L 38,58 L 41,55 L 41,54 L 42,53 L 42,52 L 43,51 L 43,49 L 44,48 L 44,43 L 42,41 L 42,40 Z" fill="none" stroke="black" stroke-width="1"/>
</svg>