<svg xmlns="http://www.w3.org/2000/svg" width="51" height="100">
  <path d="M 0,34 L 0,36 L 1,36 L 1,34 Z" fill="none" stroke="black" stroke-width="1"/>
  <path d="M 1,24 L 1,25 L 2,26 L 0,28 L 0,30 L 1,30 L 2,31 L 3,31 L 3,26 L 4,25 L 4,24 Z" fill="none" stroke="black" stroke-width="1"/>
  <path d="M 4,19 L 3,20 L 0,20 L 0,21 L 2,21 L 3,22 L 5,22 L 5,21 L 6,20 L 5,19 Z" fill="none" stroke="black" stroke-width="1"/>
  <path d="M 19,0 L 19,1 L 18,2 L 17,2 L 16,3 L 15,3 L 14,4 L 13,4 L 12,5 L 11,5 L 11,6 L 12,7 L 11,8 L 10,8 L 9,9 L 8,8 L 8,7 L 7,7 L 6,8 L 6,10 L 7,11 L 6,12 L 6,13 L 8,13 L 9,14 L 8,15 L 6,15 L 6,16 L 7,16 L 8,17 L 9,17 L 10,16 L 11,16 L 12,15 L 11,14 L 11,12 L 12,11 L 13,12 L 13,13 L 14,13 L 15,14 L 15,13 L 17,11 L 17,10 L 16,9 L 18,7 L 19,8 L 20,8 L 20,7 L 18,7 L 17,6 L 18,5 L 19,5 L 19,4 L 20,3 L 20,0 Z" fill="none" stroke="black" stroke-width="1"/>
</svg>