<svg xmlns="http://www.w3.org/2000/svg" width="65" height="76">
  <path d="M 40,7 L 37,10 L 36,10 L 36,11 L 35,12 L 35,15 L 36,16 L 36,20 L 33,23 L 33,24 L 31,26 L 30,26 L 30,27 L 29,28 L 29,29 L 24,34 L 24,38 L 23,39 L 23,44 L 24,44 L 25,45 L 25,47 L 26,47 L 28,49 L 29,49 L 30,50 L 30,51 L 32,53 L 33,53 L 34,54 L 36,54 L 37,55 L 44,55 L 45,54 L 46,54 L 47,53 L 49,53 L 50,52 L 63,52 L 63,51 L 62,50 L 62,45 L 61,44 L 61,41 L 60,40 L 60,37 L 59,36 L 59,35 L 58,35 L 57,34 L 55,34 L 54,35 L 51,35 L 50,36 L 49,36 L 50,37 L 49,38 L 48,38 L 48,39 L 45,42 L 43,42 L 42,41 L 41,41 L 40,40 L 40,37 L 41,36 L 41,35 L 42,34 L 44,34 L 46,32 L 46,30 L 47,29 L 48,29 L 49,28 L 49,26 L 50,25 L 50,18 L 49,18 L 48,17 L 48,15 L 49,14 L 50,15 L 50,13 L 48,11 L 48,10 L 47,9 L 45,9 L 44,8 L 42,8 L 41,7 Z" fill="none" stroke="black" stroke-width="1"/>
</svg>