<svg xmlns="http://www.w3.org/2000/svg" width="56" height="83">
  <path d="M 20,43 L 20,44 L 16,48 L 15,48 L 14,49 L 13,49 L 12,50 L 10,50 L 9,51 L 6,51 L 7,52 L 6,53 L 6,56 L 7,57 L 7,58 L 9,60 L 9,65 L 8,66 L 8,68 L 7,69 L 7,70 L 6,71 L 6,72 L 3,75 L 3,77 L 2,78 L 2,79 L 1,80 L 1,81 L 0,82 L 1,82 L 2,81 L 4,81 L 5,80 L 6,81 L 7,80 L 12,80 L 13,81 L 14,81 L 16,79 L 18,79 L 18,78 L 19,77 L 19,75 L 20,74 L 20,71 L 21,70 L 21,68 L 22,67 L 22,66 L 23,65 L 23,64 L 28,59 L 28,57 L 27,56 L 27,55 L 24,52 L 24,51 L 23,50 L 23,48 L 22,47 L 22,44 L 21,44 Z" fill="none" stroke="black" stroke-width="1"/>
</svg>