<svg xmlns="http://www.w3.org/2000/svg" width="56" height="83">
  <path d="M 52,34 L 52,37 L 51,38 L 51,39 L 48,42 L 46,42 L 45,43 L 44,43 L 42,45 L 41,45 L 39,47 L 38,47 L 36,49 L 36,53 L 33,56 L 33,57 L 31,59 L 29,59 L 24,64 L 24,65 L 23,66 L 23,67 L 22,68 L 22,70 L 21,71 L 21,74 L 20,75 L 20,77 L 19,78 L 19,79 L 20,79 L 21,80 L 22,80 L 25,77 L 25,76 L 26,75 L 27,75 L 28,76 L 28,79 L 31,79 L 32,78 L 33,78 L 33,74 L 34,73 L 37,73 L 38,72 L 38,70 L 40,68 L 41,68 L 41,66 L 42,65 L 46,65 L 47,64 L 49,64 L 50,63 L 50,61 L 49,60 L 49,57 L 50,56 L 50,51 L 52,49 L 52,46 L 51,45 L 51,43 L 52,42 L 52,41 L 53,40 L 53,38 L 54,37 L 54,36 Z" fill="none" stroke="black" stroke-width="1"/>
</svg>