<svg xmlns="http://www.w3.org/2000/svg" width="70" height="70">
  <path d="M 18,47 L 17,48 L 15,48 L 13,50 L 12,50 L 11,51 L 10,51 L 9,52 L 8,52 L 8,54 L 6,56 L 5,56 L 6,56 L 7,57 L 8,57 L 9,58 L 9,59 L 10,60 L 10,61 L 11,62 L 14,62 L 16,64 L 20,64 L 21,63 L 23,63 L 24,64 L 27,64 L 28,63 L 29,64 L 30,64 L 31,63 L 32,64 L 32,66 L 34,66 L 35,67 L 36,67 L 37,68 L 37,69 L 38,68 L 40,68 L 40,66 L 42,64 L 42,60 L 43,59 L 44,59 L 44,57 L 43,57 L 42,56 L 42,55 L 36,49 L 35,49 L 34,48 L 26,48 L 25,47 Z" fill="none" stroke="black" stroke-width="1"/>
</svg>