<svg xmlns="http://www.w3.org/2000/svg" width="69" height="51">
  <path d="M 28,0 L 28,1 L 27,2 L 27,5 L 25,7 L 23,7 L 22,8 L 18,8 L 18,10 L 17,11 L 16,11 L 15,12 L 15,16 L 18,16 L 19,17 L 20,17 L 22,19 L 23,19 L 27,23 L 27,24 L 29,24 L 30,25 L 31,24 L 32,25 L 33,25 L 34,26 L 35,26 L 36,27 L 39,27 L 39,24 L 40,23 L 46,23 L 46,21 L 47,20 L 49,20 L 51,18 L 52,18 L 53,17 L 53,16 L 54,15 L 54,14 L 56,12 L 56,11 L 57,10 L 57,8 L 56,9 L 55,9 L 54,8 L 53,9 L 50,9 L 49,8 L 47,8 L 46,9 L 42,9 L 40,7 L 37,7 L 35,5 L 35,4 L 34,3 L 34,2 L 33,2 L 32,1 L 31,1 L 30,0 Z" fill="none" stroke="black" stroke-width="1"/>
</svg>