<svg xmlns="http://www.w3.org/2000/svg" width="55" height="71">
  <path d="M 23,0 L 22,1 L 21,1 L 20,2 L 19,2 L 19,6 L 18,7 L 18,8 L 17,9 L 17,15 L 15,17 L 15,18 L 14,19 L 13,19 L 11,21 L 10,21 L 10,22 L 9,23 L 9,33 L 10,33 L 11,34 L 11,35 L 13,35 L 14,36 L 15,36 L 16,37 L 17,36 L 18,36 L 22,32 L 23,32 L 24,31 L 27,31 L 28,32 L 28,34 L 28,33 L 30,31 L 30,30 L 33,27 L 33,22 L 31,20 L 31,18 L 32,17 L 32,16 L 33,15 L 33,14 L 34,13 L 34,12 L 35,11 L 35,7 L 33,5 L 32,5 L 31,6 L 29,4 L 27,4 Z" fill="none" stroke="black" stroke-width="1"/>
</svg>