<svg xmlns="http://www.w3.org/2000/svg" width="47" height="52">
  <path d="M 6,16 L 6,20 L 5,21 L 2,21 L 1,22 L 0,22 L 0,26 L 1,27 L 1,29 L 2,30 L 2,31 L 4,31 L 5,32 L 5,33 L 7,35 L 7,36 L 6,37 L 8,39 L 8,40 L 9,40 L 10,39 L 11,39 L 13,41 L 13,42 L 14,43 L 16,43 L 17,44 L 18,44 L 19,43 L 22,43 L 23,42 L 23,41 L 22,40 L 22,36 L 20,34 L 20,31 L 21,30 L 21,27 L 22,26 L 22,23 L 23,22 L 23,21 L 25,19 L 23,17 L 21,19 L 20,19 L 19,18 L 13,18 L 12,17 L 10,17 L 9,16 Z" fill="none" stroke="black" stroke-width="1"/>
</svg>