<svg xmlns="http://www.w3.org/2000/svg" width="63" height="66">
  <path d="M 24,20 L 23,21 L 15,21 L 14,22 L 13,22 L 12,23 L 11,23 L 10,24 L 9,24 L 9,25 L 8,26 L 7,26 L 7,28 L 6,29 L 6,31 L 5,32 L 5,34 L 6,35 L 6,38 L 4,40 L 4,45 L 3,46 L 3,48 L 2,49 L 2,51 L 4,49 L 5,49 L 6,48 L 7,48 L 9,46 L 14,46 L 17,43 L 18,43 L 19,42 L 22,42 L 25,39 L 28,39 L 29,38 L 31,38 L 32,39 L 36,39 L 37,38 L 37,36 L 39,34 L 39,33 L 40,32 L 40,31 L 39,31 L 38,30 L 38,27 L 37,27 L 30,20 Z" fill="none" stroke="black" stroke-width="1"/>
</svg>