<svg xmlns="http://www.w3.org/2000/svg" width="108" height="31">
  <path d="M 89,9 L 87,11 L 87,15 L 86,16 L 86,17 L 84,19 L 84,20 L 85,20 L 87,22 L 86,23 L 85,23 L 86,23 L 87,24 L 89,24 L 90,25 L 91,24 L 92,25 L 92,26 L 92,25 L 93,24 L 94,25 L 94,26 L 95,27 L 96,27 L 97,28 L 96,29 L 97,29 L 98,30 L 99,29 L 99,28 L 100,27 L 100,26 L 102,24 L 102,23 L 103,22 L 103,21 L 107,17 L 107,16 L 106,16 L 105,15 L 105,14 L 104,13 L 104,10 L 102,10 L 101,9 L 100,10 L 91,10 L 90,9 Z" fill="none" stroke="black" stroke-width="1"/>
</svg>