<svg xmlns="http://www.w3.org/2000/svg" width="44" height="75">
  <path d="M 17,23 L 17,24 L 14,27 L 13,27 L 12,28 L 11,28 L 10,29 L 9,29 L 8,30 L 6,30 L 4,32 L 4,33 L 3,34 L 4,35 L 4,36 L 5,37 L 5,39 L 6,40 L 6,41 L 7,42 L 7,43 L 9,45 L 12,42 L 13,43 L 13,45 L 12,46 L 12,49 L 13,50 L 13,49 L 15,47 L 16,48 L 16,50 L 15,51 L 15,52 L 16,53 L 16,57 L 18,57 L 20,55 L 21,55 L 21,54 L 22,53 L 22,49 L 23,48 L 23,46 L 24,45 L 24,43 L 22,41 L 22,39 L 23,38 L 23,36 L 22,35 L 22,34 L 21,33 L 21,32 L 20,31 L 20,30 L 19,29 L 19,27 L 20,26 L 18,24 L 18,23 Z" fill="none" stroke="black" stroke-width="1"/>
</svg>