<svg xmlns="http://www.w3.org/2000/svg" width="44" height="75">
  <path d="M 28,41 L 28,42 L 27,43 L 25,43 L 25,45 L 24,46 L 24,48 L 23,49 L 23,53 L 22,54 L 22,55 L 21,56 L 20,56 L 18,58 L 17,58 L 17,60 L 20,60 L 21,61 L 22,61 L 24,63 L 24,65 L 26,67 L 26,68 L 27,69 L 27,70 L 29,70 L 30,71 L 30,72 L 29,73 L 28,73 L 27,72 L 26,72 L 26,73 L 27,74 L 28,74 L 29,73 L 34,73 L 35,72 L 37,72 L 38,71 L 39,72 L 39,71 L 38,70 L 38,69 L 39,68 L 39,65 L 41,63 L 41,62 L 42,61 L 42,54 L 43,53 L 43,49 L 41,49 L 40,48 L 36,48 L 35,47 L 34,47 L 30,43 L 29,43 L 28,42 Z" fill="none" stroke="black" stroke-width="1"/>
</svg>