<svg xmlns="http://www.w3.org/2000/svg" width="53" height="74">
  <path d="M 4,30 L 2,32 L 2,35 L 1,36 L 1,37 L 0,38 L 0,45 L 2,47 L 1,48 L 1,51 L 2,51 L 3,50 L 6,50 L 10,54 L 10,55 L 11,56 L 11,58 L 12,58 L 13,59 L 18,59 L 19,60 L 21,60 L 25,64 L 25,61 L 26,60 L 26,58 L 28,56 L 28,54 L 29,53 L 29,52 L 31,50 L 31,48 L 30,48 L 29,47 L 29,46 L 26,46 L 25,47 L 24,47 L 23,46 L 20,46 L 19,45 L 18,45 L 16,43 L 16,41 L 14,39 L 14,38 L 12,36 L 12,35 L 9,32 L 8,32 L 6,30 Z" fill="none" stroke="black" stroke-width="1"/>
</svg>