<svg xmlns="http://www.w3.org/2000/svg" width="53" height="74">
  <path d="M 7,9 L 6,10 L 6,11 L 5,12 L 5,14 L 4,15 L 3,15 L 2,16 L 2,20 L 3,21 L 3,24 L 4,25 L 4,27 L 3,28 L 3,30 L 4,29 L 6,29 L 8,31 L 9,31 L 13,35 L 13,36 L 15,38 L 15,39 L 17,41 L 17,43 L 18,44 L 19,44 L 20,45 L 23,45 L 24,46 L 25,46 L 26,45 L 28,45 L 28,42 L 27,41 L 27,36 L 28,35 L 26,33 L 26,32 L 25,31 L 25,29 L 24,28 L 24,26 L 23,25 L 23,23 L 18,18 L 18,17 L 12,11 L 12,10 L 11,9 Z" fill="none" stroke="black" stroke-width="1"/>
</svg>