<svg xmlns="http://www.w3.org/2000/svg" width="45" height="78">
  <path d="M 27,1 L 27,3 L 25,5 L 25,6 L 23,8 L 21,8 L 20,9 L 19,9 L 18,10 L 16,10 L 15,11 L 14,11 L 11,14 L 11,15 L 10,16 L 10,17 L 9,18 L 9,21 L 8,22 L 10,24 L 11,23 L 13,23 L 14,22 L 17,22 L 18,23 L 20,23 L 21,22 L 22,22 L 23,21 L 24,21 L 24,19 L 25,18 L 25,17 L 27,15 L 30,15 L 30,13 L 31,12 L 31,11 L 32,10 L 32,8 L 33,7 L 34,7 L 35,6 L 35,5 L 33,3 L 33,1 L 31,1 L 30,2 L 29,1 Z" fill="none" stroke="black" stroke-width="1"/>
</svg>