<svg xmlns="http://www.w3.org/2000/svg" width="51" height="49">
  <path d="M 9,27 L 7,29 L 6,29 L 5,30 L 0,30 L 0,31 L 1,31 L 2,32 L 2,36 L 3,37 L 3,38 L 4,38 L 5,39 L 6,39 L 7,40 L 7,46 L 9,48 L 11,48 L 11,47 L 12,46 L 13,46 L 11,44 L 11,41 L 12,40 L 13,41 L 13,42 L 13,40 L 14,39 L 17,39 L 18,40 L 17,41 L 16,41 L 15,42 L 15,44 L 16,44 L 17,43 L 17,41 L 18,40 L 19,40 L 20,39 L 21,39 L 22,38 L 24,38 L 25,37 L 25,36 L 24,35 L 24,32 L 23,31 L 18,31 L 17,32 L 16,31 L 15,31 L 14,30 L 13,30 L 12,29 L 11,29 Z" fill="none" stroke="black" stroke-width="1"/>
</svg>