<svg xmlns="http://www.w3.org/2000/svg" width="54" height="49">
  <path d="M 51,23 L 50,24 L 52,24 L 52,23 Z" fill="none" stroke="black" stroke-width="1"/>
  <path d="M 52,18 L 52,21 L 53,21 L 53,19 Z" fill="none" stroke="black" stroke-width="1"/>
  <path d="M 20,0 L 19,1 L 19,6 L 17,8 L 20,11 L 21,11 L 22,12 L 22,13 L 23,13 L 24,14 L 27,14 L 28,15 L 34,15 L 36,17 L 36,18 L 37,19 L 37,21 L 39,21 L 40,22 L 42,22 L 43,21 L 44,21 L 44,20 L 46,18 L 48,18 L 48,17 L 49,16 L 49,14 L 48,13 L 48,12 L 46,12 L 44,14 L 43,13 L 43,11 L 41,11 L 40,12 L 34,12 L 33,11 L 33,10 L 34,9 L 35,9 L 36,10 L 37,10 L 38,9 L 39,9 L 39,8 L 40,7 L 41,8 L 42,8 L 42,7 L 41,6 L 41,5 L 42,4 L 44,6 L 44,7 L 45,7 L 46,6 L 47,7 L 47,8 L 48,9 L 49,9 L 51,11 L 51,12 L 52,12 L 52,11 L 50,9 L 50,8 L 48,8 L 46,6 L 46,4 L 47,3 L 48,4 L 48,5 L 49,5 L 49,4 L 48,3 L 48,0 L 47,0 L 46,1 L 47,2 L 47,3 L 45,5 L 44,4 L 44,2 L 43,2 L 42,3 L 35,3 L 34,2 L 30,2 L 30,3 L 29,4 L 28,4 L 27,3 L 26,3 L 25,2 L 23,2 L 21,0 Z" fill="none" stroke="black" stroke-width="1"/>
</svg>