<svg xmlns="http://www.w3.org/2000/svg" width="86" height="53">
  <path d="M 35,35 L 32,38 L 31,38 L 29,40 L 24,40 L 23,39 L 20,39 L 19,38 L 16,38 L 15,39 L 14,39 L 12,41 L 11,41 L 9,43 L 8,43 L 7,44 L 6,44 L 5,45 L 4,45 L 2,47 L 2,48 L 1,49 L 0,49 L 5,49 L 6,50 L 7,50 L 8,51 L 11,51 L 12,52 L 23,52 L 24,51 L 26,51 L 27,50 L 28,50 L 29,51 L 31,51 L 32,50 L 33,50 L 34,51 L 34,52 L 35,52 L 35,51 L 36,50 L 36,46 L 35,45 L 35,38 L 36,37 L 36,35 Z" fill="none" stroke="black" stroke-width="1"/>
</svg>