<svg xmlns="http://www.w3.org/2000/svg" width="70" height="51">
  <path d="M 39,0 L 39,1 L 38,2 L 38,4 L 37,5 L 37,6 L 34,9 L 33,9 L 31,11 L 31,13 L 30,14 L 30,15 L 29,16 L 29,17 L 28,18 L 29,19 L 29,23 L 31,23 L 32,22 L 39,22 L 40,23 L 43,23 L 44,24 L 46,24 L 46,22 L 47,21 L 49,21 L 52,24 L 53,24 L 55,26 L 56,26 L 56,22 L 54,22 L 52,20 L 51,20 L 50,19 L 48,19 L 47,18 L 46,18 L 43,15 L 41,15 L 40,14 L 40,9 L 43,6 L 43,4 L 41,2 L 41,1 L 40,0 Z" fill="none" stroke="black" stroke-width="1"/>
</svg>