<svg xmlns="http://www.w3.org/2000/svg" width="50" height="51">
  <path d="M 24,0 L 22,2 L 22,4 L 23,4 L 24,5 L 24,6 L 23,7 L 24,8 L 24,12 L 23,13 L 21,13 L 21,14 L 20,15 L 20,16 L 19,17 L 15,17 L 14,18 L 12,18 L 12,19 L 11,20 L 11,23 L 14,26 L 16,26 L 18,28 L 18,29 L 21,32 L 21,31 L 24,28 L 27,28 L 28,27 L 30,27 L 31,26 L 31,25 L 34,22 L 34,20 L 35,19 L 36,19 L 37,18 L 44,18 L 44,17 L 48,13 L 49,13 L 49,12 L 47,12 L 46,11 L 39,11 L 38,12 L 36,12 L 35,11 L 33,11 L 32,10 L 31,10 L 29,8 L 29,7 L 28,6 L 28,1 L 27,0 Z" fill="none" stroke="black" stroke-width="1"/>
</svg>