<svg xmlns="http://www.w3.org/2000/svg" width="68" height="36">
  <path d="M 54,0 L 53,1 L 46,1 L 45,2 L 42,2 L 42,5 L 44,7 L 46,7 L 47,8 L 47,10 L 48,11 L 48,9 L 50,7 L 51,7 L 54,4 L 57,4 L 58,5 L 54,9 L 53,9 L 53,10 L 51,12 L 51,13 L 52,13 L 53,14 L 53,15 L 52,16 L 51,16 L 50,15 L 50,16 L 52,16 L 53,17 L 53,19 L 52,20 L 51,19 L 50,19 L 50,21 L 51,20 L 53,22 L 53,23 L 51,25 L 50,25 L 51,26 L 51,27 L 52,26 L 54,28 L 54,29 L 56,27 L 57,28 L 57,35 L 58,34 L 63,34 L 64,35 L 64,32 L 65,31 L 66,31 L 67,30 L 67,28 L 66,27 L 65,27 L 64,26 L 63,26 L 62,25 L 62,24 L 59,21 L 59,11 L 58,10 L 58,8 L 59,7 L 59,4 L 58,3 L 58,1 L 57,1 L 56,0 Z" fill="none" stroke="black" stroke-width="1"/>
</svg>