<svg xmlns="http://www.w3.org/2000/svg" width="59" height="35">
  <path d="M 56,33 L 55,34 L 54,34 L 56,34 Z" fill="none" stroke="black" stroke-width="1"/>
  <path d="M 46,31 L 44,33 L 48,33 L 48,31 Z" fill="none" stroke="black" stroke-width="1"/>
  <path d="M 56,20 L 56,21 L 57,21 L 57,20 Z" fill="none" stroke="black" stroke-width="1"/>
  <path d="M 52,18 L 52,19 L 54,19 L 54,18 Z" fill="none" stroke="black" stroke-width="1"/>
  <path d="M 32,13 L 31,14 L 30,14 L 29,15 L 28,15 L 28,17 L 32,17 L 33,18 L 34,18 L 35,19 L 38,19 L 40,21 L 40,23 L 41,23 L 42,24 L 42,27 L 43,28 L 44,27 L 44,26 L 45,25 L 47,27 L 47,29 L 48,29 L 50,27 L 53,27 L 54,28 L 55,28 L 56,27 L 57,27 L 58,26 L 58,23 L 57,23 L 57,24 L 55,26 L 50,26 L 48,24 L 48,22 L 47,22 L 46,21 L 46,19 L 45,18 L 45,17 L 44,16 L 39,16 L 38,15 L 37,15 L 35,13 Z" fill="none" stroke="black" stroke-width="1"/>
</svg>