<svg xmlns="http://www.w3.org/2000/svg" width="52" height="65">
  <path d="M 50,53 L 50,55 L 51,54 L 51,53 Z" fill="none" stroke="black" stroke-width="1"/>
  <path d="M 27,30 L 26,31 L 25,31 L 28,34 L 28,41 L 25,44 L 25,46 L 24,47 L 24,50 L 23,51 L 23,52 L 22,53 L 22,55 L 21,56 L 21,57 L 20,58 L 20,60 L 19,61 L 21,63 L 21,64 L 22,64 L 22,62 L 23,61 L 23,60 L 24,59 L 26,59 L 27,60 L 25,62 L 26,63 L 27,63 L 28,62 L 28,60 L 29,59 L 30,59 L 31,60 L 31,61 L 35,57 L 36,58 L 37,58 L 38,57 L 38,56 L 39,55 L 44,55 L 47,52 L 47,51 L 46,51 L 45,50 L 46,49 L 46,48 L 45,47 L 45,45 L 44,45 L 42,43 L 42,41 L 41,40 L 40,40 L 38,38 L 37,38 L 35,36 L 35,34 L 33,32 L 31,32 L 30,31 L 29,31 L 28,30 Z" fill="none" stroke="black" stroke-width="1"/>
</svg>