<svg xmlns="http://www.w3.org/2000/svg" width="52" height="65">
  <path d="M 15,0 L 12,3 L 11,3 L 4,10 L 4,11 L 3,12 L 3,13 L 2,14 L 2,15 L 1,16 L 1,17 L 0,18 L 0,19 L 1,20 L 1,21 L 2,21 L 3,22 L 3,23 L 5,23 L 6,24 L 6,25 L 7,25 L 8,24 L 9,24 L 10,23 L 11,23 L 12,22 L 13,22 L 14,21 L 20,21 L 22,23 L 22,24 L 24,26 L 24,30 L 26,30 L 27,29 L 28,29 L 29,30 L 30,30 L 31,31 L 33,31 L 34,30 L 34,19 L 33,18 L 34,17 L 34,9 L 33,8 L 33,7 L 29,3 L 28,3 L 27,2 L 22,2 L 22,3 L 21,4 L 19,4 Z" fill="none" stroke="black" stroke-width="1"/>
</svg>