<svg xmlns="http://www.w3.org/2000/svg" width="100" height="70">
  <path d="M 29,43 L 27,45 L 25,45 L 24,46 L 22,46 L 21,47 L 9,47 L 8,48 L 7,48 L 6,47 L 5,47 L 6,48 L 2,52 L 2,53 L 1,54 L 1,56 L 0,57 L 1,58 L 1,63 L 2,63 L 3,64 L 3,65 L 3,63 L 4,62 L 7,65 L 7,68 L 9,68 L 10,67 L 11,68 L 11,69 L 11,68 L 14,65 L 17,65 L 19,63 L 20,63 L 20,62 L 21,61 L 21,60 L 22,59 L 24,59 L 24,57 L 25,56 L 26,56 L 29,53 L 30,54 L 30,53 L 29,53 L 28,52 L 28,51 L 29,50 L 29,49 L 31,47 L 33,49 L 33,47 L 34,46 L 33,45 L 33,43 Z" fill="none" stroke="black" stroke-width="1"/>
</svg>