<svg xmlns="http://www.w3.org/2000/svg" width="100" height="70">
  <path d="M 73,26 L 71,28 L 69,28 L 68,27 L 67,28 L 66,28 L 66,29 L 64,31 L 63,31 L 61,33 L 55,33 L 54,34 L 52,34 L 48,38 L 47,38 L 45,40 L 42,40 L 41,41 L 40,41 L 39,42 L 35,42 L 34,43 L 34,45 L 35,45 L 36,46 L 36,47 L 35,48 L 36,49 L 37,49 L 38,50 L 40,50 L 41,49 L 41,48 L 40,47 L 40,46 L 41,45 L 43,47 L 44,47 L 45,46 L 46,46 L 48,44 L 49,45 L 50,44 L 53,44 L 54,43 L 55,43 L 56,42 L 57,42 L 58,41 L 61,41 L 62,40 L 64,40 L 65,39 L 66,39 L 67,38 L 69,38 L 70,37 L 72,37 L 73,36 L 75,36 L 75,35 L 76,34 L 78,34 L 79,35 L 80,35 L 81,34 L 81,33 L 75,33 L 74,32 L 75,31 L 76,31 L 77,30 L 76,30 L 74,28 L 74,27 Z" fill="none" stroke="black" stroke-width="1"/>
</svg>