<svg xmlns="http://www.w3.org/2000/svg" width="67" height="61">
  <path d="M 50,36 L 50,38 L 47,41 L 46,41 L 45,42 L 39,42 L 38,43 L 35,43 L 34,44 L 33,44 L 31,46 L 30,46 L 26,50 L 26,51 L 25,52 L 24,52 L 25,52 L 27,54 L 27,56 L 28,57 L 29,57 L 30,58 L 33,58 L 35,60 L 36,60 L 38,58 L 39,58 L 40,59 L 42,59 L 43,58 L 44,58 L 45,57 L 44,56 L 44,55 L 45,54 L 48,57 L 50,57 L 52,55 L 53,55 L 54,54 L 55,54 L 56,53 L 57,53 L 59,51 L 62,51 L 64,49 L 66,49 L 65,49 L 63,47 L 63,45 L 62,44 L 62,43 L 60,41 L 59,41 L 58,40 L 57,40 L 56,39 L 55,39 L 54,38 L 52,38 Z" fill="none" stroke="black" stroke-width="1"/>
</svg>