<svg xmlns="http://www.w3.org/2000/svg" width="41" height="33">
  <path d="M 13,3 L 12,4 L 12,5 L 11,6 L 10,6 L 9,5 L 7,5 L 6,6 L 6,7 L 5,8 L 5,9 L 6,10 L 6,11 L 7,12 L 7,14 L 8,14 L 9,15 L 9,16 L 10,16 L 11,17 L 12,17 L 14,19 L 14,22 L 15,23 L 17,23 L 19,25 L 20,25 L 21,26 L 23,26 L 24,27 L 24,28 L 25,28 L 27,26 L 27,25 L 28,24 L 28,23 L 29,22 L 29,19 L 30,18 L 31,18 L 30,17 L 28,17 L 27,16 L 26,16 L 25,15 L 21,15 L 20,14 L 18,14 L 16,12 L 16,10 L 17,9 L 18,9 L 18,6 L 17,6 L 15,4 L 15,3 Z" fill="none" stroke="black" stroke-width="1"/>
</svg>