<svg xmlns="http://www.w3.org/2000/svg" width="67" height="61">
  <path d="M 16,0 L 15,1 L 14,1 L 13,2 L 13,3 L 12,4 L 9,4 L 7,6 L 6,6 L 6,8 L 4,10 L 1,10 L 1,11 L 0,12 L 0,13 L 3,16 L 5,16 L 5,15 L 6,14 L 11,14 L 12,15 L 13,15 L 18,20 L 18,21 L 19,21 L 20,20 L 20,19 L 21,18 L 23,18 L 25,20 L 28,20 L 29,21 L 31,21 L 33,23 L 36,23 L 37,22 L 37,14 L 35,12 L 35,10 L 34,9 L 34,8 L 32,6 L 30,6 L 27,3 L 27,2 L 26,1 L 24,1 L 23,2 L 19,2 L 18,1 L 17,1 Z" fill="none" stroke="black" stroke-width="1"/>
</svg>