<svg xmlns="http://www.w3.org/2000/svg" width="96" height="50">
  <path d="M 1,0 L 0,1 L 1,1 L 3,3 L 3,4 L 5,6 L 7,6 L 10,9 L 10,10 L 11,11 L 11,13 L 13,15 L 13,22 L 16,22 L 21,17 L 24,17 L 25,18 L 32,18 L 33,19 L 33,20 L 34,19 L 35,19 L 39,15 L 39,12 L 40,11 L 40,10 L 43,7 L 44,7 L 45,6 L 45,5 L 43,5 L 43,7 L 42,8 L 41,7 L 40,7 L 39,6 L 35,6 L 34,7 L 33,7 L 31,9 L 30,9 L 28,11 L 27,10 L 27,9 L 26,8 L 26,6 L 25,5 L 24,5 L 23,4 L 21,4 L 20,3 L 18,3 L 16,1 L 15,1 L 14,0 L 12,0 L 11,1 L 7,1 L 6,0 Z" fill="none" stroke="black" stroke-width="1"/>
</svg>