<svg xmlns="http://www.w3.org/2000/svg" width="137" height="180">
  <path d="M 56,84 L 55,85 L 57,85 Z" fill="none" stroke="black" stroke-width="1"/>
  <path d="M 51,80 L 50,81 L 51,82 L 54,82 L 52,80 Z" fill="none" stroke="black" stroke-width="1"/>
  <path d="M 44,71 L 46,71 L 48,73 L 50,73 L 49,72 L 47,72 L 46,71 Z" fill="none" stroke="black" stroke-width="1"/>
  <path d="M 51,68 L 50,69 L 51,69 Z" fill="none" stroke="black" stroke-width="1"/>
  <path d="M 6,0 L 6,1 L 5,2 L 4,2 L 4,3 L 3,4 L 3,12 L 2,13 L 2,21 L 0,23 L 0,30 L 7,37 L 7,38 L 6,39 L 6,43 L 8,45 L 8,46 L 11,49 L 11,50 L 13,52 L 14,52 L 16,54 L 16,55 L 19,58 L 19,59 L 20,60 L 20,65 L 21,66 L 21,67 L 23,69 L 22,70 L 22,77 L 29,84 L 29,85 L 30,86 L 30,87 L 29,88 L 29,93 L 30,94 L 30,95 L 32,97 L 32,100 L 34,102 L 34,103 L 38,107 L 42,107 L 43,108 L 43,109 L 44,110 L 44,111 L 47,114 L 47,115 L 51,115 L 53,113 L 54,113 L 55,112 L 57,112 L 57,105 L 58,104 L 58,103 L 60,101 L 60,100 L 61,99 L 61,98 L 63,96 L 64,96 L 65,95 L 64,95 L 63,94 L 63,93 L 62,92 L 59,92 L 58,91 L 59,90 L 62,90 L 63,89 L 63,88 L 61,88 L 61,89 L 60,90 L 59,89 L 59,88 L 58,88 L 57,87 L 51,87 L 50,86 L 51,85 L 51,84 L 46,84 L 45,83 L 46,82 L 48,82 L 47,82 L 46,81 L 46,80 L 47,79 L 42,79 L 41,78 L 40,79 L 39,79 L 38,78 L 37,78 L 36,77 L 36,76 L 37,75 L 38,75 L 39,76 L 41,76 L 41,75 L 42,74 L 43,75 L 46,75 L 44,75 L 43,74 L 42,74 L 41,75 L 40,74 L 36,74 L 35,73 L 37,71 L 40,71 L 41,72 L 42,71 L 41,70 L 35,70 L 33,68 L 31,68 L 30,67 L 29,67 L 28,66 L 28,64 L 29,63 L 30,63 L 31,64 L 31,65 L 32,65 L 33,66 L 35,66 L 36,67 L 40,67 L 39,66 L 39,65 L 40,64 L 41,65 L 42,64 L 43,64 L 44,65 L 44,67 L 45,67 L 46,68 L 47,68 L 47,66 L 45,66 L 44,65 L 45,64 L 47,64 L 47,62 L 45,62 L 43,64 L 42,63 L 42,62 L 44,60 L 47,60 L 47,58 L 46,57 L 40,57 L 38,55 L 38,54 L 41,51 L 42,52 L 42,53 L 43,53 L 42,52 L 43,51 L 43,49 L 42,48 L 41,48 L 40,47 L 39,47 L 38,48 L 40,48 L 41,49 L 41,51 L 40,52 L 39,51 L 38,51 L 37,50 L 34,50 L 33,51 L 30,51 L 29,50 L 29,49 L 30,48 L 31,48 L 32,49 L 33,48 L 34,48 L 35,47 L 36,47 L 36,46 L 37,45 L 39,45 L 38,44 L 38,42 L 39,41 L 41,43 L 42,43 L 42,41 L 41,41 L 40,42 L 39,41 L 39,40 L 37,40 L 36,39 L 32,39 L 31,38 L 31,37 L 32,36 L 31,35 L 30,36 L 29,35 L 29,34 L 28,34 L 27,35 L 23,35 L 20,38 L 18,38 L 17,37 L 19,35 L 20,35 L 22,33 L 26,33 L 27,32 L 28,32 L 26,32 L 25,31 L 26,30 L 27,30 L 27,29 L 28,28 L 28,26 L 27,26 L 26,27 L 19,27 L 18,28 L 17,28 L 14,31 L 13,31 L 12,30 L 13,29 L 13,28 L 14,27 L 15,27 L 17,25 L 19,25 L 20,24 L 22,24 L 24,22 L 24,21 L 23,20 L 23,19 L 21,17 L 20,17 L 19,18 L 18,18 L 17,17 L 19,15 L 18,15 L 17,14 L 18,13 L 19,13 L 18,13 L 17,12 L 16,12 L 15,13 L 14,13 L 13,14 L 12,14 L 11,13 L 13,11 L 14,11 L 16,9 L 13,6 L 12,6 L 12,7 L 11,8 L 10,8 L 9,7 L 10,6 L 10,5 L 9,6 L 8,6 L 7,5 L 9,3 L 10,3 L 10,2 L 8,0 Z" fill="none" stroke="black" stroke-width="1"/>
</svg>