<svg xmlns="http://www.w3.org/2000/svg" width="137" height="180">
  <path d="M 72,98 L 70,100 L 69,100 L 68,101 L 67,100 L 65,100 L 64,101 L 63,101 L 59,105 L 58,105 L 58,112 L 57,113 L 55,113 L 54,114 L 53,114 L 51,116 L 48,116 L 46,118 L 45,118 L 42,121 L 41,121 L 41,123 L 42,124 L 42,125 L 41,126 L 40,126 L 38,128 L 37,128 L 35,130 L 34,130 L 33,131 L 32,131 L 32,132 L 31,133 L 31,134 L 29,136 L 29,139 L 30,140 L 30,142 L 31,143 L 37,143 L 38,144 L 42,144 L 43,145 L 44,145 L 45,146 L 48,146 L 49,147 L 50,147 L 51,148 L 54,148 L 57,151 L 67,151 L 68,152 L 69,152 L 70,151 L 71,151 L 74,148 L 77,148 L 78,147 L 86,147 L 87,146 L 90,146 L 91,145 L 93,145 L 95,143 L 96,143 L 97,142 L 98,142 L 98,141 L 97,141 L 92,136 L 91,136 L 90,135 L 90,134 L 91,133 L 91,132 L 92,131 L 92,129 L 90,129 L 89,130 L 88,130 L 87,131 L 86,131 L 82,135 L 79,135 L 77,137 L 76,137 L 75,138 L 71,138 L 71,139 L 67,143 L 65,143 L 64,144 L 63,144 L 62,143 L 62,141 L 63,140 L 64,140 L 65,139 L 66,139 L 67,138 L 64,138 L 63,137 L 62,137 L 61,136 L 60,136 L 59,135 L 58,135 L 57,134 L 55,134 L 54,133 L 54,132 L 55,131 L 56,131 L 57,132 L 61,132 L 63,134 L 64,134 L 65,135 L 67,135 L 67,133 L 69,131 L 70,131 L 71,130 L 78,130 L 79,129 L 80,129 L 81,128 L 84,128 L 86,126 L 90,126 L 91,125 L 92,125 L 92,124 L 91,124 L 90,125 L 87,125 L 86,126 L 84,126 L 83,127 L 78,127 L 77,128 L 75,126 L 76,125 L 80,125 L 82,123 L 85,123 L 86,122 L 90,122 L 91,121 L 94,121 L 95,120 L 96,120 L 97,119 L 98,119 L 99,118 L 107,118 L 105,118 L 104,117 L 105,116 L 109,116 L 110,115 L 108,113 L 107,113 L 106,114 L 105,114 L 104,113 L 103,113 L 102,112 L 98,112 L 97,111 L 98,110 L 101,110 L 100,109 L 100,108 L 98,108 L 96,110 L 95,110 L 94,111 L 93,111 L 92,110 L 89,110 L 88,109 L 86,109 L 84,107 L 85,106 L 84,105 L 84,102 L 84,103 L 83,104 L 82,104 L 80,106 L 79,106 L 78,105 L 82,101 L 81,101 L 73,109 L 73,110 L 72,111 L 71,111 L 70,110 L 70,107 L 72,105 L 73,105 L 75,103 L 76,103 L 77,102 L 75,102 L 74,103 L 70,103 L 69,102 L 70,101 L 72,101 Z" fill="none" stroke="black" stroke-width="1"/>
</svg>