<svg xmlns="http://www.w3.org/2000/svg" width="243" height="92">
  <path d="M 120,22 L 119,23 L 118,23 L 117,24 L 117,32 L 118,32 L 120,34 L 120,36 L 123,36 L 124,37 L 128,37 L 129,36 L 133,36 L 134,37 L 137,37 L 138,38 L 142,38 L 143,37 L 156,37 L 157,38 L 162,38 L 165,41 L 166,41 L 165,40 L 166,39 L 167,39 L 168,40 L 169,40 L 170,39 L 173,39 L 174,38 L 176,38 L 177,39 L 179,39 L 180,38 L 187,38 L 188,37 L 189,37 L 189,35 L 187,33 L 187,29 L 186,28 L 184,28 L 182,26 L 179,26 L 178,25 L 175,25 L 174,24 L 172,24 L 171,23 L 170,23 L 169,22 L 163,22 L 162,23 L 161,23 L 160,24 L 153,24 L 152,23 L 148,23 L 147,22 L 143,22 L 142,23 L 139,23 L 138,24 L 129,24 L 128,23 L 127,23 L 126,22 Z" fill="none" stroke="black" stroke-width="1"/>
</svg>