<svg xmlns="http://www.w3.org/2000/svg" width="243" height="92">
  <path d="M 81,24 L 78,27 L 77,27 L 76,28 L 75,28 L 68,35 L 68,36 L 62,42 L 58,42 L 57,43 L 55,43 L 54,44 L 51,44 L 51,46 L 50,47 L 49,47 L 48,48 L 47,48 L 46,49 L 45,49 L 44,50 L 43,50 L 42,51 L 41,51 L 40,52 L 39,52 L 39,54 L 43,54 L 44,55 L 48,55 L 49,56 L 57,56 L 58,57 L 60,57 L 63,60 L 64,60 L 64,59 L 65,58 L 68,58 L 69,57 L 76,57 L 78,55 L 78,52 L 79,51 L 79,48 L 81,46 L 82,46 L 83,45 L 83,44 L 84,43 L 85,43 L 91,37 L 93,39 L 97,39 L 97,38 L 98,37 L 100,37 L 101,38 L 102,37 L 106,37 L 107,36 L 110,36 L 111,37 L 120,37 L 119,36 L 119,34 L 118,33 L 117,33 L 116,32 L 116,25 L 115,24 L 109,24 L 108,25 L 103,25 L 102,26 L 97,26 L 96,27 L 89,27 L 88,26 L 86,26 L 84,24 Z" fill="none" stroke="black" stroke-width="1"/>
</svg>