<svg xmlns="http://www.w3.org/2000/svg" width="243" height="92">
  <path d="M 124,45 L 123,46 L 122,46 L 123,47 L 124,47 L 125,48 L 127,48 L 128,49 L 130,49 L 132,51 L 133,51 L 136,54 L 136,55 L 137,56 L 139,56 L 141,58 L 143,58 L 144,59 L 146,59 L 147,60 L 149,60 L 150,61 L 154,61 L 155,62 L 164,62 L 165,61 L 164,60 L 164,59 L 163,58 L 162,58 L 161,57 L 159,57 L 158,56 L 157,56 L 155,54 L 154,54 L 152,52 L 151,52 L 150,51 L 148,51 L 147,50 L 146,50 L 145,49 L 144,49 L 143,48 L 139,48 L 138,47 L 133,47 L 132,46 L 130,46 L 129,45 Z" fill="none" stroke="black" stroke-width="1"/>
</svg>