<svg xmlns="http://www.w3.org/2000/svg" width="243" height="92">
  <path d="M 36,54 L 35,55 L 34,55 L 33,56 L 32,56 L 29,59 L 27,59 L 25,61 L 23,61 L 22,62 L 21,62 L 20,63 L 19,63 L 18,64 L 16,64 L 15,65 L 13,65 L 12,66 L 12,68 L 10,70 L 10,71 L 9,72 L 8,72 L 7,73 L 6,73 L 4,71 L 4,72 L 3,73 L 3,74 L 1,76 L 1,77 L 0,78 L 1,79 L 1,84 L 0,85 L 0,86 L 1,87 L 1,91 L 2,91 L 4,89 L 8,89 L 8,87 L 9,86 L 10,86 L 11,85 L 15,85 L 16,84 L 23,84 L 23,81 L 25,79 L 26,79 L 34,71 L 34,70 L 35,69 L 35,66 L 44,57 L 44,56 L 43,55 L 39,55 L 38,54 Z" fill="none" stroke="black" stroke-width="1"/>
</svg>