<svg xmlns="http://www.w3.org/2000/svg" width="62" height="65">
  <path d="M 33,0 L 31,2 L 29,2 L 28,3 L 26,3 L 24,5 L 23,5 L 20,8 L 19,8 L 17,10 L 16,10 L 10,16 L 9,16 L 8,17 L 7,17 L 6,18 L 5,18 L 2,21 L 1,21 L 0,22 L 0,23 L 1,24 L 1,25 L 2,25 L 3,26 L 6,26 L 9,29 L 10,29 L 13,32 L 13,33 L 12,34 L 13,35 L 14,35 L 14,34 L 16,32 L 17,32 L 18,31 L 20,31 L 20,30 L 21,29 L 22,29 L 24,27 L 25,27 L 26,26 L 27,26 L 28,25 L 28,24 L 30,22 L 31,22 L 31,20 L 32,19 L 32,18 L 34,16 L 34,9 L 33,8 L 33,7 L 34,6 L 34,1 Z" fill="none" stroke="black" stroke-width="1"/>
</svg>