<svg xmlns="http://www.w3.org/2000/svg" width="127" height="69">
  <path d="M 74,11 L 73,12 L 72,12 L 71,13 L 70,13 L 69,14 L 68,14 L 67,15 L 66,15 L 65,16 L 63,16 L 61,18 L 60,18 L 58,20 L 57,20 L 56,21 L 55,21 L 54,22 L 53,22 L 49,26 L 48,26 L 48,27 L 47,28 L 46,28 L 45,29 L 44,29 L 44,30 L 42,32 L 42,33 L 39,36 L 39,38 L 40,39 L 40,44 L 38,46 L 38,48 L 39,49 L 46,42 L 47,42 L 51,38 L 51,37 L 52,36 L 55,36 L 56,35 L 56,33 L 57,32 L 58,32 L 60,30 L 63,30 L 63,29 L 65,27 L 66,27 L 67,26 L 68,27 L 69,27 L 70,28 L 74,28 L 75,27 L 75,24 L 74,23 L 74,21 L 75,20 L 75,17 L 76,16 L 76,14 L 75,13 L 75,11 Z" fill="none" stroke="black" stroke-width="1"/>
</svg>