<svg xmlns="http://www.w3.org/2000/svg" width="127" height="69">
  <path d="M 37,38 L 36,39 L 36,40 L 27,49 L 26,49 L 25,50 L 24,50 L 22,52 L 21,52 L 20,51 L 22,49 L 21,49 L 19,51 L 19,52 L 17,54 L 15,54 L 12,57 L 10,57 L 11,58 L 12,58 L 13,59 L 15,59 L 16,60 L 17,60 L 18,61 L 18,64 L 19,65 L 19,66 L 21,66 L 22,67 L 23,67 L 24,68 L 27,68 L 28,67 L 28,65 L 30,63 L 30,62 L 33,59 L 34,59 L 34,58 L 35,57 L 35,56 L 36,55 L 36,54 L 37,53 L 37,52 L 38,51 L 38,49 L 37,48 L 37,46 L 39,44 L 39,39 L 38,38 Z" fill="none" stroke="black" stroke-width="1"/>
</svg>