<svg xmlns="http://www.w3.org/2000/svg" width="49" height="45">
  <path d="M 40,25 L 39,26 L 37,26 L 36,27 L 35,27 L 33,29 L 32,29 L 31,30 L 30,30 L 28,32 L 28,33 L 27,34 L 27,35 L 25,37 L 23,37 L 22,38 L 21,38 L 20,39 L 17,39 L 16,40 L 16,41 L 15,42 L 14,42 L 14,43 L 19,43 L 20,44 L 21,44 L 22,43 L 27,43 L 28,44 L 33,44 L 34,43 L 37,43 L 38,42 L 40,42 L 41,41 L 42,41 L 43,40 L 46,40 L 47,39 L 47,37 L 48,36 L 48,34 L 47,34 L 45,32 L 45,31 L 44,30 L 44,29 L 43,28 L 43,25 Z" fill="none" stroke="black" stroke-width="1"/>
</svg>