<svg xmlns="http://www.w3.org/2000/svg" width="76" height="78">
  <path d="M 33,15 L 33,17 L 34,17 L 37,20 L 37,21 L 39,23 L 39,24 L 40,25 L 40,28 L 39,29 L 39,30 L 35,34 L 35,35 L 34,36 L 34,37 L 33,38 L 33,49 L 35,47 L 36,47 L 37,46 L 38,46 L 39,45 L 40,45 L 40,44 L 42,42 L 42,41 L 44,39 L 44,38 L 46,36 L 46,34 L 50,30 L 51,30 L 51,29 L 49,27 L 49,26 L 48,26 L 47,27 L 46,27 L 46,28 L 45,29 L 44,28 L 44,26 L 45,25 L 45,24 L 43,24 L 39,20 L 39,19 L 38,18 L 39,17 L 39,16 L 38,16 L 37,17 L 36,17 L 35,16 L 34,16 Z" fill="none" stroke="black" stroke-width="1"/>
  <path d="M 33,4 L 32,5 L 32,7 L 33,8 L 33,7 L 34,6 L 33,5 Z" fill="none" stroke="black" stroke-width="1"/>
  <path d="M 17,3 L 19,3 Z" fill="none" stroke="black" stroke-width="1"/>
  <path d="M 23,2 L 22,3 L 21,3 L 22,4 L 23,4 L 24,3 Z" fill="none" stroke="black" stroke-width="1"/>
  <path d="M 15,2 L 14,3 L 10,3 L 10,4 L 13,4 L 14,5 L 16,5 L 17,6 L 20,6 L 21,7 L 23,7 L 25,9 L 26,9 L 27,10 L 31,10 L 32,11 L 31,12 L 32,12 L 32,11 L 31,10 L 30,10 L 29,9 L 30,8 L 30,7 L 29,8 L 28,7 L 27,7 L 26,6 L 26,5 L 25,5 L 24,6 L 20,6 L 19,5 L 16,5 L 15,4 Z" fill="none" stroke="black" stroke-width="1"/>
  <path d="M 28,1 L 28,2 L 27,3 L 28,4 L 28,5 L 30,5 L 30,3 L 29,2 L 30,1 L 31,1 L 32,2 L 32,1 Z" fill="none" stroke="black" stroke-width="1"/>
  <path d="M 2,0 L 1,1 L 0,1 L 0,2 L 3,2 L 4,3 L 5,2 L 7,4 L 8,4 L 8,3 L 7,2 L 6,3 L 3,0 Z" fill="none" stroke="black" stroke-width="1"/>
</svg>