<svg xmlns="http://www.w3.org/2000/svg" width="183" height="98">
  <path d="M 120,58 L 119,59 L 118,59 L 116,61 L 116,65 L 112,69 L 111,69 L 110,70 L 107,70 L 106,71 L 103,71 L 102,72 L 101,72 L 100,71 L 97,71 L 96,70 L 93,70 L 92,71 L 86,71 L 85,72 L 84,72 L 84,73 L 85,74 L 86,74 L 87,75 L 87,77 L 88,78 L 88,80 L 89,81 L 89,82 L 90,83 L 90,85 L 91,86 L 91,87 L 94,90 L 95,90 L 97,92 L 105,92 L 106,93 L 107,93 L 109,95 L 119,95 L 120,96 L 122,96 L 123,97 L 124,97 L 125,96 L 126,96 L 129,93 L 129,90 L 131,88 L 131,87 L 135,83 L 135,81 L 137,79 L 137,78 L 138,77 L 138,76 L 141,73 L 141,72 L 144,69 L 143,69 L 142,68 L 142,67 L 141,66 L 141,65 L 139,63 L 138,63 L 135,60 L 134,60 L 133,59 L 123,59 L 122,58 Z" fill="none" stroke="black" stroke-width="1"/>
</svg>