<svg xmlns="http://www.w3.org/2000/svg" width="183" height="98">
  <path d="M 107,18 L 104,21 L 103,21 L 103,22 L 101,24 L 101,25 L 100,26 L 100,30 L 101,30 L 102,31 L 104,31 L 108,35 L 108,38 L 107,39 L 107,41 L 108,41 L 109,42 L 109,46 L 117,54 L 117,55 L 118,55 L 119,56 L 120,56 L 121,57 L 122,57 L 123,58 L 133,58 L 134,59 L 135,59 L 138,62 L 139,62 L 142,65 L 142,66 L 143,67 L 143,68 L 145,68 L 146,67 L 148,67 L 149,66 L 150,66 L 151,65 L 152,65 L 152,64 L 154,62 L 154,61 L 155,60 L 155,58 L 156,57 L 156,55 L 155,54 L 155,53 L 154,52 L 156,50 L 156,45 L 154,43 L 154,41 L 155,40 L 155,35 L 153,35 L 151,33 L 146,33 L 145,32 L 143,32 L 142,31 L 138,31 L 137,30 L 136,30 L 135,29 L 134,29 L 133,28 L 132,28 L 131,27 L 130,27 L 129,26 L 128,26 L 126,24 L 125,24 L 122,21 L 118,21 L 117,20 L 116,20 L 115,19 L 114,19 L 113,18 Z" fill="none" stroke="black" stroke-width="1"/>
</svg>