<svg xmlns="http://www.w3.org/2000/svg" width="183" height="98">
  <path d="M 85,13 L 85,14 L 78,21 L 76,21 L 75,22 L 72,22 L 72,28 L 69,31 L 68,31 L 67,32 L 66,32 L 64,34 L 63,34 L 62,35 L 61,35 L 61,36 L 60,37 L 60,38 L 61,38 L 62,39 L 64,39 L 65,40 L 67,40 L 68,41 L 69,41 L 70,42 L 70,43 L 72,43 L 73,44 L 73,45 L 77,49 L 77,51 L 76,52 L 76,62 L 78,64 L 78,65 L 82,69 L 82,70 L 83,71 L 83,72 L 84,71 L 85,71 L 86,70 L 92,70 L 93,69 L 96,69 L 97,70 L 100,70 L 101,71 L 102,71 L 103,70 L 106,70 L 107,69 L 110,69 L 111,68 L 112,68 L 115,65 L 115,61 L 118,58 L 119,58 L 120,57 L 119,57 L 118,56 L 117,56 L 116,55 L 116,54 L 108,46 L 108,42 L 107,42 L 106,41 L 106,39 L 107,38 L 107,35 L 104,32 L 102,32 L 101,31 L 100,31 L 99,30 L 99,26 L 100,25 L 100,24 L 102,22 L 102,21 L 103,20 L 99,16 L 98,16 L 97,15 L 92,15 L 91,14 L 89,14 L 88,13 Z" fill="none" stroke="black" stroke-width="1"/>
</svg>