<svg xmlns="http://www.w3.org/2000/svg" width="43" height="49">
  <path d="M 29,0 L 26,3 L 26,4 L 25,5 L 25,6 L 27,6 L 28,7 L 27,8 L 29,10 L 27,12 L 23,12 L 22,13 L 22,14 L 21,15 L 20,15 L 20,25 L 23,25 L 24,26 L 25,26 L 26,27 L 28,27 L 30,29 L 31,29 L 32,30 L 33,30 L 35,32 L 36,32 L 37,33 L 39,33 L 40,32 L 40,31 L 41,30 L 41,27 L 40,27 L 37,24 L 37,23 L 38,22 L 38,21 L 39,20 L 40,20 L 41,19 L 41,17 L 42,16 L 42,12 L 40,10 L 40,9 L 38,9 L 35,6 L 35,2 L 33,2 L 32,1 L 30,1 Z" fill="none" stroke="black" stroke-width="1"/>
</svg>