<svg xmlns="http://www.w3.org/2000/svg" width="183" height="98">
  <path d="M 45,0 L 44,1 L 43,1 L 42,2 L 40,2 L 39,3 L 37,3 L 36,4 L 35,4 L 34,5 L 32,5 L 31,4 L 29,4 L 28,3 L 27,3 L 26,2 L 20,2 L 18,4 L 17,4 L 16,5 L 16,6 L 10,12 L 9,12 L 2,19 L 2,20 L 1,21 L 1,22 L 0,23 L 0,27 L 1,27 L 2,26 L 4,26 L 5,25 L 12,25 L 13,26 L 14,25 L 15,25 L 16,24 L 19,24 L 20,25 L 21,25 L 22,26 L 24,26 L 25,27 L 33,27 L 34,28 L 36,28 L 37,29 L 39,29 L 40,30 L 42,30 L 43,31 L 45,31 L 46,32 L 47,32 L 48,33 L 50,33 L 51,34 L 53,34 L 54,35 L 55,35 L 56,36 L 57,36 L 58,37 L 59,37 L 60,36 L 60,35 L 61,34 L 62,34 L 63,33 L 64,33 L 66,31 L 67,31 L 68,30 L 69,30 L 71,28 L 71,22 L 72,21 L 75,21 L 76,20 L 78,20 L 84,14 L 84,13 L 85,12 L 85,10 L 84,9 L 85,8 L 85,5 L 84,4 L 80,4 L 79,5 L 78,5 L 77,6 L 76,6 L 75,7 L 74,7 L 73,8 L 68,8 L 67,7 L 66,7 L 63,4 L 62,4 L 61,3 L 54,3 L 53,2 L 52,2 L 50,0 Z" fill="none" stroke="black" stroke-width="1"/>
</svg>