<svg xmlns="http://www.w3.org/2000/svg" width="247" height="218">
  <path d="M 175,74 L 173,76 L 173,77 L 172,78 L 172,79 L 170,81 L 168,81 L 167,82 L 166,82 L 165,83 L 164,83 L 163,84 L 163,86 L 160,89 L 159,89 L 159,90 L 157,92 L 156,92 L 155,93 L 155,94 L 154,95 L 153,95 L 152,96 L 151,96 L 150,97 L 150,98 L 147,101 L 148,102 L 147,103 L 148,103 L 149,104 L 149,106 L 148,107 L 146,107 L 146,108 L 147,108 L 148,109 L 148,110 L 147,111 L 147,112 L 149,114 L 149,115 L 150,115 L 153,118 L 154,118 L 155,119 L 156,119 L 159,122 L 160,122 L 161,123 L 162,123 L 165,126 L 167,126 L 169,128 L 170,128 L 172,130 L 173,130 L 174,131 L 175,131 L 178,134 L 180,134 L 182,136 L 183,136 L 184,137 L 185,136 L 186,137 L 188,137 L 190,139 L 192,139 L 193,140 L 194,140 L 195,141 L 196,140 L 197,141 L 199,139 L 199,138 L 200,137 L 201,137 L 203,135 L 204,135 L 206,133 L 207,133 L 210,130 L 211,130 L 214,127 L 216,127 L 217,126 L 218,126 L 219,125 L 221,125 L 222,124 L 226,124 L 227,123 L 240,123 L 240,122 L 241,121 L 241,120 L 242,119 L 242,118 L 243,117 L 243,116 L 246,113 L 246,111 L 245,110 L 242,110 L 241,109 L 240,109 L 239,108 L 238,108 L 237,107 L 236,107 L 235,106 L 235,105 L 233,103 L 232,103 L 231,102 L 227,102 L 226,101 L 224,101 L 223,100 L 222,100 L 221,99 L 220,99 L 219,98 L 217,98 L 216,97 L 215,97 L 214,96 L 209,96 L 208,95 L 207,95 L 206,94 L 205,94 L 204,93 L 203,93 L 200,90 L 200,89 L 199,88 L 199,87 L 197,85 L 197,84 L 196,84 L 195,83 L 193,83 L 192,82 L 191,82 L 188,79 L 187,79 L 183,75 L 179,75 L 178,74 Z" fill="none" stroke="black" stroke-width="1"/>
</svg>