<svg xmlns="http://www.w3.org/2000/svg" width="177" height="132">
  <path d="M 111,89 L 111,93 L 110,94 L 110,98 L 111,98 L 112,99 L 112,104 L 114,106 L 114,108 L 111,111 L 111,116 L 110,117 L 110,118 L 109,119 L 109,120 L 108,121 L 108,122 L 107,123 L 107,124 L 106,125 L 106,127 L 113,127 L 114,128 L 116,128 L 117,127 L 129,127 L 130,126 L 135,126 L 136,127 L 136,128 L 137,128 L 138,129 L 141,129 L 142,130 L 143,130 L 143,126 L 147,122 L 147,121 L 149,119 L 150,120 L 153,120 L 157,116 L 158,116 L 160,118 L 164,118 L 167,115 L 168,115 L 172,111 L 173,111 L 173,110 L 174,109 L 174,108 L 176,106 L 176,104 L 175,103 L 174,103 L 172,101 L 165,101 L 164,102 L 163,102 L 162,101 L 161,101 L 160,100 L 158,100 L 157,99 L 150,99 L 149,100 L 146,100 L 145,99 L 144,99 L 142,97 L 140,97 L 138,95 L 137,95 L 136,94 L 126,94 L 125,93 L 124,93 L 123,92 L 121,92 L 120,91 L 119,91 L 117,89 Z" fill="none" stroke="black" stroke-width="1"/>
</svg>