<svg xmlns="http://www.w3.org/2000/svg" width="247" height="218">
  <path d="M 30,72 L 29,73 L 28,73 L 26,75 L 25,75 L 24,76 L 23,76 L 22,77 L 20,77 L 19,78 L 17,78 L 16,79 L 12,79 L 10,81 L 9,81 L 6,84 L 5,84 L 4,85 L 4,87 L 5,88 L 5,89 L 6,90 L 6,91 L 4,93 L 4,95 L 3,96 L 3,97 L 4,98 L 4,99 L 5,100 L 5,102 L 6,103 L 6,108 L 5,109 L 5,110 L 4,111 L 4,112 L 3,113 L 3,114 L 2,115 L 2,117 L 1,118 L 1,121 L 0,122 L 1,123 L 3,123 L 4,122 L 10,122 L 12,124 L 13,124 L 14,125 L 14,126 L 15,126 L 16,127 L 18,127 L 19,128 L 24,128 L 25,129 L 27,129 L 28,128 L 29,128 L 30,127 L 32,127 L 33,126 L 34,126 L 35,125 L 36,125 L 37,124 L 38,125 L 39,125 L 40,126 L 40,127 L 41,127 L 42,128 L 42,129 L 41,130 L 39,130 L 38,131 L 37,131 L 37,132 L 36,133 L 36,134 L 37,135 L 38,135 L 40,133 L 41,133 L 44,130 L 45,131 L 45,133 L 42,136 L 41,136 L 40,137 L 41,138 L 41,139 L 42,140 L 44,138 L 45,138 L 46,137 L 48,137 L 49,136 L 51,136 L 52,135 L 55,135 L 60,140 L 61,140 L 61,139 L 62,138 L 62,135 L 63,134 L 63,132 L 64,131 L 65,131 L 66,130 L 67,130 L 67,129 L 68,128 L 69,128 L 70,127 L 73,127 L 75,125 L 76,125 L 77,124 L 78,124 L 79,123 L 80,123 L 83,120 L 84,120 L 87,117 L 88,117 L 91,114 L 91,113 L 92,112 L 93,112 L 97,108 L 98,108 L 99,107 L 99,106 L 100,105 L 99,105 L 98,104 L 95,104 L 94,103 L 92,103 L 91,102 L 90,102 L 89,101 L 73,101 L 72,100 L 72,99 L 70,97 L 70,96 L 69,95 L 68,95 L 67,94 L 66,94 L 65,93 L 62,93 L 61,92 L 58,92 L 57,91 L 53,91 L 52,90 L 51,90 L 49,88 L 48,88 L 47,87 L 46,87 L 42,83 L 41,83 Z" fill="none" stroke="black" stroke-width="1"/>
</svg>