<svg xmlns="http://www.w3.org/2000/svg" width="149" height="134">
  <path d="M 8,0 L 7,1 L 7,3 L 5,5 L 5,7 L 4,8 L 4,11 L 3,12 L 3,14 L 2,15 L 2,16 L 1,17 L 1,20 L 0,21 L 0,31 L 1,32 L 1,33 L 4,36 L 4,37 L 6,39 L 6,40 L 7,41 L 7,42 L 8,43 L 8,55 L 7,56 L 7,57 L 6,58 L 6,59 L 4,61 L 4,62 L 13,71 L 13,72 L 14,73 L 14,74 L 16,76 L 16,81 L 17,82 L 19,82 L 20,83 L 21,83 L 23,85 L 23,86 L 24,86 L 26,88 L 29,88 L 35,94 L 45,94 L 46,95 L 48,95 L 49,96 L 50,96 L 51,97 L 53,97 L 54,98 L 59,98 L 60,97 L 63,97 L 64,96 L 65,96 L 66,95 L 67,95 L 68,94 L 69,94 L 71,92 L 72,92 L 73,91 L 79,91 L 80,90 L 81,90 L 82,89 L 83,89 L 93,79 L 93,78 L 94,77 L 94,76 L 96,74 L 96,72 L 95,72 L 93,70 L 91,70 L 90,69 L 89,69 L 88,68 L 87,68 L 86,67 L 83,67 L 81,65 L 80,65 L 79,64 L 66,64 L 65,63 L 63,63 L 62,62 L 61,62 L 60,61 L 58,61 L 57,60 L 56,60 L 55,59 L 54,59 L 52,57 L 51,57 L 46,52 L 46,51 L 47,50 L 47,48 L 48,47 L 49,47 L 49,44 L 47,44 L 46,43 L 46,41 L 43,38 L 43,35 L 42,35 L 41,34 L 39,34 L 38,33 L 35,33 L 34,32 L 31,32 L 30,31 L 29,31 L 25,27 L 25,25 L 26,24 L 28,24 L 29,23 L 31,23 L 31,21 L 30,21 L 27,18 L 27,15 L 17,5 L 16,5 L 15,4 L 11,4 L 9,2 L 9,1 Z" fill="none" stroke="black" stroke-width="1"/>
</svg>