<svg xmlns="http://www.w3.org/2000/svg" width="139" height="80">
  <path d="M 101,0 L 99,2 L 98,1 L 89,1 L 87,3 L 87,4 L 88,5 L 88,7 L 84,11 L 83,11 L 81,13 L 80,13 L 79,14 L 78,14 L 75,17 L 74,17 L 72,19 L 71,19 L 70,20 L 69,20 L 64,25 L 63,25 L 61,27 L 62,28 L 65,28 L 66,29 L 69,29 L 70,30 L 72,30 L 73,31 L 75,31 L 76,32 L 77,32 L 78,33 L 78,34 L 79,33 L 80,33 L 81,32 L 88,32 L 89,31 L 92,31 L 93,30 L 95,30 L 96,29 L 103,29 L 104,30 L 106,30 L 107,31 L 109,31 L 110,32 L 111,32 L 112,33 L 116,33 L 117,32 L 119,32 L 120,31 L 122,31 L 123,30 L 124,30 L 126,28 L 129,28 L 130,29 L 130,17 L 129,17 L 126,14 L 122,14 L 121,13 L 120,13 L 117,10 L 117,9 L 114,6 L 114,5 L 113,4 L 109,4 L 108,3 L 106,3 L 104,1 L 103,1 L 102,0 Z" fill="none" stroke="black" stroke-width="1"/>
</svg>