<svg xmlns="http://www.w3.org/2000/svg" width="149" height="134">
  <path d="M 14,82 L 14,83 L 17,86 L 17,87 L 19,89 L 19,91 L 20,92 L 20,95 L 19,96 L 19,99 L 18,100 L 18,102 L 17,103 L 17,104 L 15,106 L 15,107 L 14,108 L 14,112 L 16,114 L 21,114 L 22,115 L 23,115 L 24,116 L 25,116 L 26,117 L 28,117 L 29,118 L 30,118 L 31,119 L 32,119 L 35,122 L 36,122 L 38,124 L 39,124 L 40,125 L 42,125 L 43,126 L 44,126 L 45,127 L 46,127 L 47,128 L 51,128 L 52,129 L 53,129 L 54,130 L 55,130 L 56,131 L 58,131 L 59,132 L 62,132 L 63,133 L 72,133 L 73,132 L 78,132 L 77,131 L 80,128 L 81,128 L 86,123 L 87,123 L 88,122 L 89,122 L 91,120 L 92,120 L 95,117 L 96,117 L 97,116 L 98,116 L 100,114 L 101,114 L 104,111 L 104,109 L 101,109 L 99,107 L 98,107 L 94,103 L 93,103 L 84,94 L 84,93 L 83,94 L 82,94 L 81,93 L 81,91 L 80,91 L 79,92 L 73,92 L 72,93 L 71,93 L 69,95 L 68,95 L 67,96 L 66,96 L 65,97 L 64,97 L 63,98 L 60,98 L 59,99 L 54,99 L 53,98 L 51,98 L 50,97 L 49,97 L 48,96 L 46,96 L 45,95 L 35,95 L 29,89 L 26,89 L 24,87 L 23,87 L 22,86 L 22,85 L 21,84 L 20,84 L 19,83 L 17,83 L 16,82 Z" fill="none" stroke="black" stroke-width="1"/>
</svg>