<svg xmlns="http://www.w3.org/2000/svg" width="139" height="80">
  <path d="M 0,11 L 0,12 L 1,13 L 1,17 L 0,18 L 0,20 L 2,22 L 2,35 L 4,37 L 4,38 L 5,39 L 5,40 L 6,41 L 6,43 L 8,45 L 8,46 L 9,47 L 9,49 L 7,51 L 7,54 L 8,55 L 8,56 L 9,57 L 9,61 L 11,63 L 16,63 L 17,64 L 18,64 L 19,65 L 21,65 L 22,66 L 25,66 L 26,67 L 30,67 L 31,68 L 32,68 L 33,69 L 34,69 L 35,70 L 39,70 L 40,71 L 44,71 L 46,73 L 50,73 L 51,74 L 56,74 L 57,75 L 57,77 L 59,77 L 60,76 L 62,76 L 62,75 L 64,73 L 66,73 L 67,72 L 69,72 L 70,71 L 70,69 L 56,55 L 55,55 L 53,53 L 52,53 L 51,52 L 49,52 L 48,51 L 47,51 L 46,50 L 45,50 L 44,49 L 43,49 L 42,48 L 41,48 L 39,46 L 38,46 L 36,44 L 36,42 L 35,41 L 35,40 L 34,39 L 34,38 L 33,37 L 33,36 L 32,35 L 32,34 L 31,33 L 31,32 L 29,30 L 29,28 L 30,27 L 30,25 L 29,24 L 28,24 L 27,23 L 26,23 L 25,22 L 23,22 L 22,21 L 21,21 L 19,19 L 18,19 L 15,16 L 14,16 L 13,15 L 12,15 L 11,14 L 9,14 L 8,13 L 7,13 L 6,12 L 5,12 L 4,11 Z" fill="none" stroke="black" stroke-width="1"/>
</svg>