<svg xmlns="http://www.w3.org/2000/svg" width="189" height="141">
  <path d="M 154,0 L 152,2 L 151,2 L 150,3 L 150,4 L 149,5 L 149,6 L 147,8 L 146,8 L 146,10 L 145,11 L 144,11 L 143,12 L 141,12 L 140,13 L 135,13 L 134,12 L 134,17 L 133,18 L 133,22 L 135,24 L 135,25 L 137,27 L 137,44 L 138,45 L 138,46 L 147,55 L 147,56 L 148,57 L 148,58 L 149,59 L 149,62 L 150,63 L 150,68 L 151,68 L 152,69 L 152,71 L 162,81 L 162,86 L 164,86 L 165,87 L 166,87 L 167,88 L 168,88 L 170,90 L 171,90 L 172,91 L 172,92 L 182,102 L 182,103 L 183,103 L 183,102 L 185,100 L 185,99 L 186,98 L 186,97 L 187,96 L 187,84 L 186,83 L 186,82 L 185,81 L 185,80 L 183,78 L 183,77 L 180,74 L 180,73 L 179,72 L 179,62 L 180,61 L 180,58 L 181,57 L 181,56 L 182,55 L 182,53 L 183,52 L 183,49 L 184,48 L 184,46 L 186,44 L 186,42 L 187,41 L 187,40 L 188,39 L 188,38 L 187,38 L 184,35 L 184,34 L 181,31 L 181,27 L 179,27 L 178,26 L 178,25 L 176,23 L 176,20 L 175,19 L 175,18 L 174,17 L 174,12 L 176,10 L 175,9 L 174,10 L 174,11 L 173,12 L 172,12 L 171,11 L 170,12 L 169,12 L 168,11 L 169,10 L 168,10 L 167,11 L 166,11 L 166,13 L 165,14 L 166,15 L 166,16 L 167,17 L 166,18 L 161,18 L 160,17 L 160,16 L 159,16 L 158,15 L 158,14 L 159,13 L 159,12 L 156,12 L 154,10 L 154,9 L 155,8 L 156,8 L 156,7 L 157,6 L 158,6 L 159,7 L 160,7 L 161,8 L 163,8 L 162,7 L 160,7 L 159,6 L 160,5 L 161,5 L 160,5 L 157,2 L 156,2 Z" fill="none" stroke="black" stroke-width="1"/>
</svg>