<svg xmlns="http://www.w3.org/2000/svg" width="189" height="141">
  <path d="M 130,12 L 129,13 L 128,13 L 126,15 L 124,15 L 123,16 L 123,18 L 121,20 L 120,20 L 119,21 L 114,21 L 113,22 L 112,22 L 111,21 L 111,20 L 104,20 L 103,19 L 99,19 L 97,21 L 95,21 L 93,23 L 92,23 L 91,24 L 90,24 L 89,25 L 88,25 L 87,26 L 86,26 L 83,29 L 83,32 L 84,33 L 84,39 L 83,40 L 83,43 L 82,44 L 82,46 L 83,46 L 84,47 L 85,47 L 87,49 L 88,49 L 92,53 L 92,54 L 93,55 L 93,57 L 95,59 L 95,60 L 97,62 L 98,62 L 100,64 L 101,64 L 103,66 L 104,66 L 105,67 L 106,67 L 107,68 L 108,68 L 112,72 L 112,79 L 123,90 L 123,91 L 124,92 L 124,96 L 123,97 L 123,108 L 123,107 L 124,106 L 125,106 L 126,107 L 126,110 L 134,110 L 135,109 L 136,109 L 139,106 L 140,106 L 142,104 L 143,104 L 145,102 L 146,102 L 146,101 L 152,95 L 152,94 L 153,93 L 153,91 L 152,90 L 153,89 L 155,89 L 157,87 L 158,87 L 159,86 L 160,87 L 161,87 L 161,81 L 151,71 L 151,69 L 150,69 L 149,68 L 149,63 L 148,62 L 148,59 L 147,58 L 147,57 L 146,56 L 146,55 L 137,46 L 137,45 L 136,44 L 136,27 L 134,25 L 134,24 L 132,22 L 132,18 L 133,17 L 133,12 Z" fill="none" stroke="black" stroke-width="1"/>
</svg>