<svg xmlns="http://www.w3.org/2000/svg" width="130" height="102">
  <path d="M 7,93 L 7,94 L 8,94 L 9,93 Z" fill="none" stroke="black" stroke-width="1"/>
  <path d="M 13,90 L 16,90 Z" fill="none" stroke="black" stroke-width="1"/>
  <path d="M 8,87 L 8,88 L 9,88 L 10,89 L 11,89 L 9,87 Z" fill="none" stroke="black" stroke-width="1"/>
  <path d="M 2,44 L 2,45 L 1,46 L 1,48 L 0,49 L 0,50 L 3,53 L 3,55 L 4,56 L 4,58 L 6,60 L 5,61 L 4,61 L 4,65 L 5,66 L 4,67 L 4,68 L 3,69 L 3,70 L 2,71 L 2,75 L 1,76 L 1,77 L 2,78 L 2,83 L 4,83 L 5,84 L 6,83 L 7,83 L 8,82 L 9,83 L 9,84 L 10,85 L 11,85 L 12,86 L 14,86 L 16,88 L 17,87 L 20,87 L 21,88 L 21,89 L 20,90 L 19,90 L 19,91 L 21,91 L 22,92 L 21,93 L 18,93 L 18,94 L 19,95 L 19,97 L 20,96 L 21,97 L 22,97 L 24,95 L 24,91 L 25,90 L 26,90 L 26,89 L 27,88 L 31,88 L 34,85 L 36,85 L 37,84 L 39,84 L 39,83 L 37,83 L 34,80 L 34,79 L 33,79 L 32,78 L 31,78 L 29,76 L 29,75 L 27,73 L 27,72 L 26,72 L 25,71 L 23,73 L 22,72 L 21,73 L 20,72 L 20,71 L 21,70 L 21,66 L 20,65 L 20,58 L 22,56 L 22,55 L 23,54 L 23,53 L 22,52 L 22,51 L 21,50 L 21,47 L 20,46 L 19,46 L 17,48 L 15,48 L 14,49 L 12,49 L 11,48 L 10,48 L 7,45 L 5,45 L 4,44 Z" fill="none" stroke="black" stroke-width="1"/>
</svg>