<svg xmlns="http://www.w3.org/2000/svg" width="189" height="141">
  <path d="M 81,47 L 78,50 L 78,53 L 74,57 L 73,57 L 72,58 L 70,58 L 69,59 L 56,59 L 51,64 L 46,64 L 46,66 L 50,70 L 50,74 L 52,76 L 52,78 L 55,81 L 55,82 L 57,84 L 57,87 L 54,90 L 54,93 L 57,96 L 57,97 L 59,99 L 59,103 L 60,104 L 60,106 L 62,108 L 63,108 L 64,109 L 64,110 L 66,110 L 67,109 L 73,109 L 76,112 L 77,112 L 79,114 L 80,113 L 80,112 L 81,111 L 82,112 L 85,112 L 90,117 L 94,117 L 95,118 L 98,118 L 99,119 L 102,119 L 104,121 L 106,121 L 106,120 L 109,117 L 111,117 L 112,116 L 114,116 L 116,114 L 119,114 L 120,113 L 121,113 L 122,112 L 124,112 L 125,111 L 125,107 L 124,107 L 124,108 L 123,109 L 122,108 L 122,97 L 123,96 L 123,92 L 122,91 L 122,90 L 111,79 L 111,72 L 108,69 L 107,69 L 106,68 L 105,68 L 104,67 L 103,67 L 101,65 L 100,65 L 98,63 L 97,63 L 94,60 L 94,59 L 92,57 L 92,55 L 91,54 L 91,53 L 88,50 L 87,50 L 85,48 L 84,48 L 83,47 Z" fill="none" stroke="black" stroke-width="1"/>
</svg>