<svg xmlns="http://www.w3.org/2000/svg" width="153" height="139">
  <path d="M 97,60 L 95,62 L 94,62 L 93,63 L 92,63 L 91,64 L 85,64 L 83,66 L 80,66 L 77,69 L 76,69 L 71,74 L 70,74 L 69,75 L 68,75 L 66,77 L 65,77 L 64,78 L 63,78 L 62,79 L 57,79 L 56,80 L 46,80 L 46,81 L 45,82 L 44,82 L 44,86 L 43,87 L 45,89 L 47,89 L 48,90 L 49,90 L 54,95 L 55,95 L 56,96 L 57,96 L 60,99 L 60,102 L 68,110 L 68,111 L 69,112 L 69,115 L 71,117 L 71,120 L 83,108 L 84,108 L 86,106 L 87,106 L 88,105 L 90,105 L 91,104 L 93,104 L 94,103 L 95,103 L 96,102 L 98,102 L 99,101 L 101,101 L 103,99 L 105,99 L 107,97 L 108,97 L 109,96 L 110,96 L 114,92 L 116,92 L 117,91 L 117,90 L 118,89 L 119,89 L 121,87 L 122,87 L 125,84 L 125,83 L 126,82 L 126,81 L 127,80 L 127,79 L 128,78 L 128,77 L 131,74 L 133,74 L 133,73 L 131,73 L 130,72 L 128,72 L 127,71 L 126,71 L 125,70 L 124,70 L 123,69 L 122,69 L 121,68 L 120,68 L 119,67 L 118,67 L 116,65 L 115,65 L 112,62 L 111,62 L 110,61 L 101,61 L 100,60 Z" fill="none" stroke="black" stroke-width="1"/>
</svg>