<svg xmlns="http://www.w3.org/2000/svg" width="189" height="141">
  <path d="M 44,60 L 43,61 L 42,61 L 40,63 L 38,63 L 37,62 L 29,62 L 28,63 L 27,63 L 25,65 L 23,65 L 22,66 L 21,66 L 18,69 L 17,69 L 16,68 L 14,70 L 14,71 L 13,72 L 13,82 L 4,91 L 4,92 L 3,93 L 2,93 L 0,95 L 3,98 L 3,99 L 4,100 L 4,103 L 5,104 L 9,104 L 10,105 L 11,105 L 15,109 L 17,109 L 20,112 L 21,112 L 23,114 L 24,114 L 26,116 L 27,116 L 33,122 L 33,123 L 35,125 L 35,128 L 36,129 L 38,129 L 39,130 L 39,131 L 40,131 L 41,132 L 42,132 L 45,135 L 46,135 L 47,136 L 49,136 L 50,137 L 51,137 L 52,138 L 53,138 L 54,139 L 54,140 L 55,140 L 56,139 L 56,138 L 57,137 L 57,136 L 61,132 L 61,130 L 59,128 L 59,113 L 60,112 L 60,111 L 62,109 L 63,109 L 62,109 L 59,106 L 59,104 L 58,103 L 58,99 L 56,97 L 56,96 L 53,93 L 53,90 L 56,87 L 56,84 L 54,82 L 54,81 L 51,78 L 51,76 L 49,74 L 49,70 L 45,66 L 45,60 Z" fill="none" stroke="black" stroke-width="1"/>
</svg>