<svg xmlns="http://www.w3.org/2000/svg" width="128" height="142">
  <path d="M 27,0 L 25,2 L 24,2 L 22,4 L 21,4 L 19,6 L 19,7 L 13,13 L 13,14 L 12,15 L 12,17 L 11,18 L 11,29 L 10,30 L 10,31 L 9,32 L 9,37 L 10,38 L 10,43 L 9,44 L 9,45 L 8,46 L 8,47 L 11,47 L 12,48 L 15,48 L 18,51 L 20,51 L 21,52 L 23,52 L 24,51 L 31,51 L 32,52 L 36,52 L 38,54 L 40,54 L 41,55 L 44,55 L 45,56 L 45,55 L 46,54 L 46,53 L 47,52 L 52,52 L 55,49 L 56,49 L 59,46 L 59,45 L 60,44 L 61,44 L 63,42 L 63,41 L 65,39 L 65,38 L 66,37 L 66,35 L 65,34 L 65,31 L 63,29 L 63,28 L 58,23 L 57,23 L 55,21 L 54,21 L 52,19 L 51,19 L 48,16 L 46,16 L 42,12 L 41,12 L 40,11 L 36,11 L 34,9 L 34,6 L 33,5 L 33,4 L 31,2 L 28,2 L 27,1 Z" fill="none" stroke="black" stroke-width="1"/>
</svg>