<svg xmlns="http://www.w3.org/2000/svg" width="128" height="142">
  <path d="M 67,36 L 67,37 L 66,38 L 66,39 L 64,41 L 64,42 L 61,45 L 60,45 L 60,46 L 56,50 L 55,50 L 52,53 L 47,53 L 47,54 L 46,55 L 46,56 L 47,57 L 47,58 L 46,59 L 46,60 L 48,62 L 48,66 L 49,67 L 49,74 L 51,76 L 51,82 L 52,83 L 52,84 L 54,86 L 55,86 L 58,89 L 59,89 L 61,91 L 61,92 L 62,92 L 62,91 L 68,85 L 68,84 L 69,83 L 70,83 L 71,82 L 72,82 L 74,80 L 79,80 L 80,81 L 81,81 L 82,82 L 85,82 L 87,80 L 89,80 L 91,78 L 91,77 L 94,74 L 95,74 L 98,71 L 98,70 L 104,64 L 102,62 L 99,62 L 98,61 L 98,57 L 97,56 L 98,55 L 98,54 L 96,54 L 95,53 L 94,53 L 93,52 L 94,51 L 94,50 L 93,50 L 91,48 L 87,48 L 86,47 L 85,47 L 84,46 L 84,45 L 83,45 L 82,44 L 81,44 L 80,43 L 78,43 L 77,42 L 76,42 L 73,39 L 72,39 L 71,38 L 70,38 L 69,37 L 69,36 Z" fill="none" stroke="black" stroke-width="1"/>
</svg>