<svg xmlns="http://www.w3.org/2000/svg" width="128" height="142">
  <path d="M 8,48 L 8,49 L 10,51 L 9,52 L 9,53 L 7,55 L 6,55 L 2,59 L 2,62 L 4,64 L 4,65 L 3,66 L 2,66 L 1,67 L 0,67 L 0,69 L 2,71 L 3,71 L 7,75 L 8,75 L 11,78 L 11,79 L 13,81 L 13,82 L 15,84 L 15,85 L 16,85 L 18,87 L 19,87 L 20,88 L 20,89 L 21,89 L 22,90 L 23,90 L 26,93 L 27,93 L 28,94 L 29,94 L 30,95 L 31,95 L 33,97 L 34,97 L 35,98 L 35,99 L 36,100 L 36,101 L 39,101 L 41,103 L 43,103 L 44,104 L 45,104 L 46,105 L 49,105 L 50,104 L 51,104 L 53,102 L 54,102 L 55,101 L 56,101 L 57,100 L 57,98 L 58,97 L 58,96 L 60,94 L 60,91 L 59,90 L 58,90 L 55,87 L 54,87 L 51,84 L 51,83 L 50,82 L 50,76 L 48,74 L 48,67 L 47,66 L 47,62 L 45,60 L 45,59 L 46,58 L 46,57 L 45,57 L 44,56 L 41,56 L 40,55 L 38,55 L 36,53 L 32,53 L 31,52 L 24,52 L 23,53 L 21,53 L 20,52 L 18,52 L 15,49 L 12,49 L 11,48 Z" fill="none" stroke="black" stroke-width="1"/>
</svg>