<svg xmlns="http://www.w3.org/2000/svg" width="128" height="142">
  <path d="M 74,81 L 72,83 L 71,83 L 70,84 L 69,84 L 69,85 L 63,91 L 63,92 L 62,93 L 61,93 L 61,94 L 59,96 L 59,97 L 58,98 L 58,100 L 57,101 L 57,106 L 56,107 L 56,108 L 55,109 L 55,115 L 52,118 L 52,119 L 50,121 L 50,122 L 48,124 L 48,125 L 47,126 L 47,130 L 46,131 L 46,132 L 48,134 L 49,134 L 50,135 L 51,135 L 53,137 L 54,137 L 55,138 L 56,138 L 57,139 L 57,140 L 59,140 L 60,141 L 62,141 L 63,140 L 65,140 L 67,138 L 69,138 L 70,137 L 72,137 L 73,136 L 74,136 L 75,135 L 78,135 L 80,133 L 81,133 L 85,129 L 85,128 L 84,128 L 83,127 L 83,126 L 82,125 L 82,123 L 83,122 L 84,122 L 84,121 L 83,121 L 82,120 L 82,119 L 81,118 L 81,113 L 82,112 L 82,111 L 84,109 L 84,108 L 86,106 L 86,105 L 87,104 L 87,100 L 88,99 L 88,97 L 89,96 L 90,96 L 90,95 L 91,94 L 91,92 L 92,91 L 92,90 L 91,89 L 91,88 L 89,86 L 89,81 L 87,81 L 85,83 L 82,83 L 81,82 L 80,82 L 79,81 Z" fill="none" stroke="black" stroke-width="1"/>
</svg>