<svg xmlns="http://www.w3.org/2000/svg" width="118" height="105">
  <path d="M 37,51 L 37,52 L 38,52 Z" fill="none" stroke="black" stroke-width="1"/>
  <path d="M 34,36 L 34,37 L 33,38 L 33,39 L 35,37 L 36,37 L 36,36 Z" fill="none" stroke="black" stroke-width="1"/>
  <path d="M 47,23 L 44,26 L 44,27 L 40,31 L 39,31 L 37,33 L 40,33 L 40,32 L 41,31 L 42,32 L 44,30 L 44,29 L 46,27 L 47,27 L 47,25 L 48,24 L 48,23 Z" fill="none" stroke="black" stroke-width="1"/>
  <path d="M 60,0 L 59,1 L 57,1 L 56,2 L 55,2 L 53,4 L 53,8 L 54,9 L 54,11 L 55,12 L 55,16 L 56,17 L 55,18 L 54,18 L 52,20 L 52,21 L 51,22 L 51,23 L 50,24 L 50,25 L 49,26 L 49,28 L 46,31 L 46,32 L 48,34 L 49,34 L 50,35 L 50,36 L 49,37 L 48,36 L 47,36 L 45,34 L 43,34 L 43,35 L 42,36 L 41,36 L 44,36 L 49,41 L 49,42 L 48,43 L 44,39 L 41,39 L 41,41 L 42,42 L 44,42 L 45,43 L 45,45 L 47,45 L 48,44 L 49,44 L 50,43 L 55,43 L 56,44 L 54,46 L 52,46 L 51,45 L 50,46 L 49,46 L 48,47 L 47,47 L 47,51 L 46,52 L 44,52 L 43,51 L 44,50 L 43,50 L 42,51 L 41,51 L 40,50 L 42,48 L 40,48 L 39,49 L 38,49 L 40,51 L 41,51 L 42,52 L 43,51 L 45,53 L 44,54 L 43,54 L 43,55 L 42,56 L 43,57 L 42,58 L 40,58 L 40,59 L 41,59 L 43,61 L 43,62 L 45,62 L 48,65 L 48,66 L 49,67 L 51,67 L 51,65 L 50,64 L 50,63 L 51,62 L 54,65 L 56,65 L 56,62 L 55,61 L 56,60 L 57,60 L 58,61 L 58,62 L 59,62 L 59,57 L 62,54 L 64,54 L 67,51 L 67,50 L 69,48 L 69,46 L 68,45 L 68,42 L 70,40 L 70,39 L 76,33 L 76,32 L 77,31 L 77,24 L 76,23 L 76,22 L 75,21 L 75,8 L 72,5 L 71,5 L 70,4 L 69,4 L 68,3 L 68,1 L 67,0 Z" fill="none" stroke="black" stroke-width="1"/>
</svg>