<svg xmlns="http://www.w3.org/2000/svg" width="120" height="77">
  <path d="M 70,9 L 65,14 L 64,14 L 62,16 L 61,16 L 60,17 L 59,17 L 57,19 L 57,20 L 56,21 L 56,22 L 57,23 L 56,24 L 56,25 L 55,26 L 54,26 L 54,28 L 55,29 L 55,30 L 52,33 L 52,34 L 54,34 L 55,35 L 54,36 L 54,37 L 55,38 L 54,39 L 53,39 L 53,40 L 54,40 L 54,39 L 55,38 L 56,39 L 56,38 L 57,37 L 58,37 L 57,36 L 56,37 L 55,36 L 55,34 L 57,32 L 59,32 L 60,31 L 62,31 L 63,32 L 62,33 L 61,33 L 60,34 L 58,34 L 59,34 L 61,36 L 61,38 L 57,42 L 58,43 L 59,43 L 60,44 L 60,45 L 59,46 L 59,47 L 60,47 L 63,50 L 64,50 L 65,51 L 66,51 L 62,47 L 63,46 L 64,46 L 65,45 L 66,45 L 68,43 L 68,42 L 69,41 L 69,40 L 70,39 L 69,39 L 68,38 L 68,37 L 69,36 L 70,37 L 71,37 L 72,38 L 72,40 L 71,41 L 71,45 L 72,46 L 72,47 L 73,48 L 74,48 L 75,49 L 74,50 L 73,50 L 73,51 L 72,52 L 71,51 L 71,50 L 70,49 L 70,48 L 69,47 L 68,48 L 68,49 L 69,50 L 69,51 L 70,52 L 73,52 L 74,53 L 75,53 L 76,54 L 76,52 L 77,51 L 78,52 L 78,53 L 79,52 L 78,51 L 79,50 L 79,49 L 84,44 L 88,44 L 89,43 L 90,43 L 91,42 L 92,42 L 98,36 L 98,33 L 97,32 L 97,31 L 96,31 L 94,29 L 93,29 L 92,28 L 91,28 L 90,27 L 89,27 L 86,24 L 85,24 L 84,23 L 83,23 L 82,22 L 82,21 L 81,21 L 79,19 L 78,19 L 77,18 L 77,17 L 75,15 L 75,14 L 73,12 L 73,11 L 71,9 Z" fill="none" stroke="black" stroke-width="1"/>
</svg>