<svg xmlns="http://www.w3.org/2000/svg" width="561" height="243">
  <path d="M 248,169 L 247,170 L 246,170 L 248,172 L 248,171 L 249,170 Z" fill="none" stroke="black" stroke-width="1"/>
  <path d="M 292,168 L 293,169 L 293,168 Z" fill="none" stroke="black" stroke-width="1"/>
  <path d="M 255,165 L 255,166 L 258,166 L 257,166 L 256,165 Z" fill="none" stroke="black" stroke-width="1"/>
  <path d="M 291,164 L 290,165 L 290,167 L 291,166 Z" fill="none" stroke="black" stroke-width="1"/>
  <path d="M 285,163 L 285,165 L 284,166 L 282,166 L 282,168 L 283,167 L 284,167 L 286,165 L 286,163 Z" fill="none" stroke="black" stroke-width="1"/>
  <path d="M 276,161 L 277,162 L 278,162 L 278,161 Z" fill="none" stroke="black" stroke-width="1"/>
  <path d="M 272,160 L 271,161 L 271,164 L 272,165 L 273,164 L 274,165 L 275,165 L 276,164 L 275,164 L 274,163 L 274,160 Z" fill="none" stroke="black" stroke-width="1"/>
  <path d="M 279,159 L 281,159 Z" fill="none" stroke="black" stroke-width="1"/>
  <path d="M 352,149 L 351,150 L 351,151 L 353,151 L 353,149 Z" fill="none" stroke="black" stroke-width="1"/>
  <path d="M 302,149 L 301,150 L 303,150 Z" fill="none" stroke="black" stroke-width="1"/>
  <path d="M 373,133 L 373,135 L 375,135 L 375,134 L 376,133 L 377,134 L 377,135 L 379,135 L 379,134 L 377,134 L 376,133 Z" fill="none" stroke="black" stroke-width="1"/>
  <path d="M 369,133 L 368,134 L 367,134 L 366,135 L 366,136 L 367,135 L 368,135 L 369,134 Z" fill="none" stroke="black" stroke-width="1"/>
  <path d="M 327,133 L 326,134 L 327,134 L 328,133 L 330,133 Z" fill="none" stroke="black" stroke-width="1"/>
  <path d="M 385,102 L 386,102 L 388,104 L 387,105 L 386,105 L 387,105 L 388,106 L 388,107 L 386,109 L 385,109 L 384,108 L 384,105 L 382,103 L 381,104 L 380,104 L 379,105 L 379,106 L 380,107 L 382,107 L 383,108 L 382,109 L 380,109 L 380,111 L 381,112 L 381,115 L 380,116 L 379,115 L 379,114 L 378,113 L 378,111 L 377,110 L 377,109 L 372,109 L 371,110 L 370,110 L 366,114 L 366,117 L 368,117 L 370,119 L 370,121 L 371,120 L 372,120 L 373,121 L 371,123 L 371,124 L 372,124 L 373,125 L 373,126 L 374,125 L 374,124 L 375,123 L 376,124 L 377,123 L 378,124 L 380,122 L 381,123 L 381,124 L 379,126 L 378,126 L 375,129 L 378,129 L 382,125 L 383,125 L 384,124 L 384,123 L 382,123 L 381,122 L 382,121 L 385,121 L 388,118 L 389,119 L 389,120 L 387,122 L 388,123 L 389,123 L 391,121 L 392,121 L 393,120 L 394,120 L 390,120 L 389,119 L 390,118 L 392,118 L 392,117 L 391,117 L 390,116 L 391,115 L 393,115 L 394,116 L 395,116 L 396,117 L 397,117 L 399,115 L 398,114 L 397,114 L 396,113 L 397,112 L 399,112 L 400,113 L 403,113 L 404,112 L 404,111 L 405,110 L 404,109 L 401,109 L 400,108 L 400,107 L 402,105 L 402,104 L 401,103 L 399,103 L 398,104 L 396,104 L 394,102 L 393,102 L 391,104 L 389,104 L 387,102 Z" fill="none" stroke="black" stroke-width="1"/>
  <path d="M 388,98 L 387,99 L 389,99 Z" fill="none" stroke="black" stroke-width="1"/>
  <path d="M 403,86 L 402,87 L 401,87 L 400,88 L 399,88 L 400,89 L 399,90 L 398,90 L 397,91 L 397,93 L 396,94 L 392,94 L 394,96 L 393,97 L 392,97 L 391,96 L 390,96 L 390,97 L 391,98 L 392,98 L 393,99 L 392,100 L 391,100 L 393,100 L 394,99 L 395,100 L 397,100 L 400,97 L 404,97 L 403,96 L 403,95 L 404,94 L 405,94 L 406,95 L 406,96 L 408,96 L 409,95 L 409,94 L 407,92 L 406,92 L 405,91 L 403,91 L 403,92 L 402,93 L 401,92 L 401,91 L 400,90 L 403,87 Z" fill="none" stroke="black" stroke-width="1"/>
  <path d="M 386,68 L 385,69 L 387,69 Z" fill="none" stroke="black" stroke-width="1"/>
  <path d="M 380,56 L 379,57 L 377,57 L 373,61 L 372,61 L 371,62 L 370,62 L 368,64 L 366,64 L 365,65 L 364,65 L 363,66 L 360,66 L 359,67 L 356,67 L 355,68 L 355,69 L 354,70 L 353,70 L 352,71 L 351,71 L 350,72 L 349,72 L 348,73 L 345,73 L 344,74 L 343,74 L 342,75 L 340,75 L 339,76 L 335,76 L 334,77 L 333,77 L 333,78 L 331,80 L 331,81 L 330,82 L 330,84 L 329,85 L 328,85 L 323,90 L 323,91 L 322,92 L 322,94 L 323,94 L 325,96 L 324,97 L 322,97 L 322,98 L 321,99 L 321,105 L 320,106 L 320,108 L 321,108 L 322,109 L 322,111 L 324,111 L 325,112 L 324,113 L 321,113 L 319,111 L 318,112 L 317,112 L 313,116 L 311,116 L 305,122 L 305,128 L 304,129 L 300,129 L 299,128 L 298,129 L 297,129 L 295,131 L 294,131 L 293,132 L 291,132 L 290,133 L 288,133 L 286,135 L 285,135 L 283,137 L 282,137 L 278,141 L 278,142 L 276,144 L 276,147 L 277,148 L 278,148 L 280,150 L 280,151 L 279,152 L 278,152 L 276,150 L 272,150 L 274,152 L 274,153 L 273,154 L 272,153 L 271,153 L 267,149 L 267,148 L 259,148 L 258,149 L 256,149 L 254,151 L 253,151 L 252,152 L 251,152 L 245,158 L 245,160 L 244,161 L 243,161 L 242,162 L 240,162 L 239,163 L 239,164 L 238,165 L 234,165 L 233,166 L 232,166 L 233,167 L 234,166 L 235,166 L 236,165 L 238,167 L 238,169 L 241,169 L 242,168 L 243,168 L 243,166 L 241,164 L 241,163 L 243,161 L 244,161 L 245,162 L 245,164 L 246,165 L 245,166 L 246,167 L 249,167 L 249,166 L 250,165 L 251,166 L 253,166 L 252,165 L 252,164 L 253,163 L 254,163 L 255,162 L 255,161 L 257,159 L 257,156 L 259,154 L 262,154 L 263,155 L 264,155 L 265,156 L 264,157 L 262,157 L 261,158 L 261,160 L 265,160 L 266,159 L 267,159 L 270,156 L 271,157 L 271,158 L 273,158 L 272,157 L 273,156 L 275,156 L 276,157 L 276,155 L 277,154 L 279,154 L 280,153 L 282,153 L 283,152 L 282,151 L 283,150 L 284,150 L 285,149 L 289,149 L 290,150 L 290,152 L 289,153 L 289,154 L 288,155 L 288,156 L 289,155 L 290,155 L 290,153 L 291,152 L 291,151 L 293,149 L 294,149 L 295,148 L 299,148 L 301,146 L 303,146 L 304,147 L 304,143 L 305,142 L 306,142 L 307,143 L 306,144 L 306,145 L 307,146 L 307,144 L 309,142 L 309,141 L 310,140 L 311,140 L 310,140 L 309,139 L 308,139 L 306,141 L 305,141 L 304,140 L 309,135 L 312,135 L 312,134 L 313,133 L 315,135 L 317,135 L 317,134 L 314,134 L 313,133 L 314,132 L 315,132 L 316,131 L 317,131 L 318,130 L 320,132 L 322,132 L 322,131 L 321,130 L 321,129 L 324,126 L 325,126 L 327,128 L 328,128 L 330,126 L 330,125 L 331,124 L 333,124 L 334,123 L 338,123 L 338,122 L 341,119 L 341,117 L 339,117 L 338,116 L 340,114 L 341,114 L 343,112 L 344,112 L 345,113 L 345,112 L 346,111 L 348,111 L 349,110 L 350,111 L 350,108 L 351,107 L 351,106 L 352,105 L 354,105 L 355,106 L 357,106 L 357,105 L 359,103 L 360,103 L 361,102 L 361,100 L 362,99 L 364,99 L 365,100 L 366,100 L 367,99 L 368,100 L 369,99 L 369,98 L 370,97 L 374,97 L 374,96 L 375,95 L 375,94 L 374,94 L 373,95 L 372,95 L 371,94 L 373,92 L 376,92 L 376,91 L 375,90 L 376,89 L 377,89 L 380,86 L 383,86 L 385,84 L 386,84 L 386,83 L 388,81 L 388,79 L 387,79 L 386,78 L 384,78 L 382,76 L 376,76 L 375,77 L 373,75 L 373,74 L 374,73 L 374,72 L 375,71 L 375,69 L 376,68 L 378,68 L 379,67 L 380,67 L 381,66 L 381,65 L 382,64 L 384,64 L 384,63 L 385,62 L 385,61 L 387,59 L 388,60 L 388,61 L 387,62 L 389,62 L 390,61 L 391,61 L 392,60 L 392,58 L 390,58 L 389,57 L 389,56 Z" fill="none" stroke="black" stroke-width="1"/>
</svg>