<svg xmlns="http://www.w3.org/2000/svg" width="61" height="110">
  <path d="M 11,28 L 11,29 L 10,30 L 10,31 L 6,35 L 5,35 L 4,36 L 2,36 L 0,38 L 0,41 L 4,45 L 4,46 L 5,46 L 7,48 L 7,49 L 8,50 L 8,53 L 7,54 L 8,55 L 8,60 L 7,61 L 7,66 L 6,67 L 7,68 L 6,69 L 6,71 L 10,75 L 9,76 L 9,77 L 10,78 L 11,78 L 12,79 L 14,79 L 15,80 L 17,80 L 18,81 L 18,82 L 20,84 L 20,85 L 21,84 L 21,81 L 22,80 L 22,79 L 23,78 L 23,77 L 24,76 L 24,75 L 25,74 L 25,73 L 30,68 L 30,65 L 32,63 L 32,62 L 33,61 L 33,60 L 36,57 L 35,56 L 35,53 L 23,41 L 23,40 L 17,34 L 17,32 L 16,31 L 16,30 L 15,30 L 14,29 L 13,29 L 12,28 Z" fill="none" stroke="black" stroke-width="1"/>
</svg>