<svg xmlns="http://www.w3.org/2000/svg" width="104" height="107">
  <path d="M 49,18 L 48,19 L 47,19 L 46,20 L 43,20 L 39,24 L 35,24 L 34,25 L 33,25 L 33,26 L 32,27 L 31,27 L 30,28 L 30,32 L 31,33 L 31,34 L 34,37 L 34,39 L 35,40 L 35,41 L 36,42 L 35,43 L 35,44 L 37,46 L 37,48 L 39,50 L 39,51 L 40,51 L 41,52 L 41,55 L 45,55 L 51,49 L 52,49 L 53,48 L 56,48 L 57,47 L 58,47 L 59,46 L 60,46 L 62,44 L 62,42 L 57,37 L 57,36 L 56,35 L 56,32 L 55,31 L 55,30 L 54,29 L 53,29 L 52,28 L 53,27 L 53,24 L 54,23 L 54,22 L 53,22 L 52,21 L 53,20 L 52,20 L 51,19 L 50,19 Z" fill="none" stroke="black" stroke-width="1"/>
</svg>