<svg xmlns="http://www.w3.org/2000/svg" width="100" height="92">
  <path d="M 61,53 L 60,54 L 59,54 L 49,64 L 49,65 L 46,68 L 46,71 L 45,72 L 45,73 L 46,74 L 46,75 L 48,77 L 48,79 L 49,80 L 49,81 L 50,82 L 50,86 L 51,87 L 51,89 L 50,90 L 50,91 L 51,90 L 51,89 L 52,88 L 52,85 L 53,84 L 53,83 L 54,82 L 56,82 L 57,81 L 59,81 L 61,83 L 64,83 L 66,85 L 66,87 L 69,90 L 70,89 L 73,89 L 74,88 L 74,86 L 77,83 L 81,83 L 82,82 L 85,82 L 87,80 L 90,80 L 92,78 L 94,78 L 94,77 L 92,75 L 92,74 L 90,72 L 90,69 L 89,68 L 89,67 L 91,65 L 92,65 L 94,63 L 94,62 L 92,60 L 91,60 L 90,61 L 89,60 L 89,59 L 88,58 L 87,58 L 86,59 L 85,59 L 84,58 L 81,58 L 80,57 L 78,57 L 77,56 L 74,56 L 73,55 L 71,55 L 70,54 L 64,54 L 63,53 Z" fill="none" stroke="black" stroke-width="1"/>
</svg>