<svg xmlns="http://www.w3.org/2000/svg" width="76" height="108">
  <path d="M 19,66 L 17,68 L 16,68 L 15,69 L 13,69 L 12,70 L 11,70 L 10,71 L 10,75 L 9,76 L 9,78 L 10,79 L 11,79 L 12,80 L 10,82 L 10,84 L 11,85 L 11,86 L 10,87 L 10,88 L 9,89 L 10,89 L 11,90 L 11,91 L 13,91 L 14,90 L 17,90 L 18,91 L 19,91 L 20,90 L 24,90 L 25,91 L 27,91 L 30,94 L 30,95 L 33,98 L 34,97 L 35,97 L 36,96 L 38,96 L 39,95 L 41,95 L 42,96 L 42,97 L 43,98 L 43,102 L 41,104 L 41,105 L 43,107 L 44,107 L 45,106 L 46,106 L 49,103 L 54,103 L 55,104 L 55,105 L 56,105 L 56,100 L 57,99 L 57,94 L 56,93 L 57,92 L 57,89 L 56,88 L 56,87 L 55,86 L 54,86 L 53,85 L 53,84 L 49,80 L 47,80 L 45,78 L 43,78 L 42,77 L 41,77 L 38,74 L 37,74 L 36,73 L 28,73 L 27,72 L 25,72 L 22,69 L 21,69 L 19,67 Z" fill="none" stroke="black" stroke-width="1"/>
</svg>