<svg xmlns="http://www.w3.org/2000/svg" width="117" height="165">
  <path d="M 51,51 L 51,53 L 56,58 L 56,59 L 57,59 L 57,57 L 56,56 L 55,56 L 54,55 L 54,53 L 52,51 Z" fill="none" stroke="black" stroke-width="1"/>
  <path d="M 14,23 L 13,24 L 9,24 L 9,25 L 11,27 L 11,28 L 13,30 L 13,36 L 13,35 L 14,34 L 15,35 L 15,36 L 17,38 L 17,41 L 18,42 L 18,47 L 19,47 L 22,50 L 23,50 L 25,52 L 26,52 L 27,53 L 29,53 L 35,59 L 35,60 L 36,61 L 37,61 L 39,63 L 39,64 L 40,65 L 41,65 L 43,67 L 43,68 L 44,69 L 44,70 L 43,71 L 43,72 L 42,73 L 43,74 L 43,76 L 45,76 L 46,75 L 55,75 L 56,74 L 57,75 L 62,75 L 62,71 L 60,71 L 58,69 L 58,67 L 57,66 L 57,64 L 55,64 L 54,63 L 54,62 L 53,62 L 52,63 L 51,62 L 51,59 L 50,58 L 50,57 L 48,55 L 48,54 L 47,53 L 46,53 L 41,48 L 40,48 L 35,43 L 35,42 L 34,41 L 34,40 L 32,40 L 31,39 L 28,39 L 27,38 L 27,37 L 26,37 L 24,35 L 24,34 L 23,33 L 23,32 L 22,31 L 22,29 L 19,26 L 18,26 L 17,25 L 17,24 L 15,24 Z" fill="none" stroke="black" stroke-width="1"/>
</svg>