<svg xmlns="http://www.w3.org/2000/svg" width="74" height="100">
  <path d="M 23,31 L 21,33 L 21,35 L 22,36 L 22,37 L 23,38 L 23,39 L 25,41 L 25,42 L 29,46 L 29,47 L 30,48 L 30,49 L 29,50 L 29,56 L 27,58 L 27,59 L 26,60 L 26,64 L 27,65 L 28,64 L 30,64 L 31,65 L 31,66 L 30,67 L 31,68 L 38,68 L 39,67 L 40,67 L 42,69 L 43,69 L 44,70 L 47,70 L 48,71 L 51,71 L 52,72 L 56,72 L 57,73 L 62,73 L 62,72 L 65,69 L 67,69 L 69,71 L 71,71 L 71,67 L 72,66 L 73,66 L 73,65 L 71,65 L 70,64 L 70,61 L 69,60 L 69,57 L 68,56 L 68,55 L 67,54 L 66,54 L 65,53 L 65,43 L 64,43 L 62,41 L 62,40 L 61,40 L 60,39 L 59,39 L 58,38 L 56,38 L 55,37 L 54,37 L 53,36 L 52,36 L 51,35 L 50,35 L 48,33 L 32,33 L 31,32 L 28,32 L 27,31 Z" fill="none" stroke="black" stroke-width="1"/>
</svg>