<svg xmlns="http://www.w3.org/2000/svg" width="67" height="49">
  <path d="M 27,25 L 26,26 L 21,26 L 20,27 L 19,27 L 17,29 L 16,28 L 14,30 L 12,30 L 10,32 L 9,31 L 9,30 L 3,30 L 3,31 L 2,32 L 1,31 L 0,31 L 1,32 L 1,34 L 4,37 L 4,41 L 5,40 L 8,40 L 9,41 L 10,41 L 11,42 L 14,42 L 15,43 L 23,43 L 24,44 L 29,44 L 30,45 L 31,45 L 34,48 L 35,48 L 35,47 L 36,46 L 36,43 L 37,42 L 38,42 L 41,39 L 42,39 L 43,40 L 44,40 L 45,41 L 46,41 L 47,40 L 45,40 L 44,39 L 44,35 L 41,35 L 40,34 L 37,34 L 34,31 L 34,30 L 31,30 L 29,28 L 29,26 L 28,25 Z" fill="none" stroke="black" stroke-width="1"/>
</svg>