<svg xmlns="http://www.w3.org/2000/svg" width="57" height="63">
  <path d="M 36,30 L 34,32 L 34,33 L 32,35 L 32,37 L 31,38 L 30,38 L 29,39 L 29,41 L 28,42 L 28,44 L 26,46 L 26,52 L 25,53 L 24,53 L 24,54 L 23,55 L 23,57 L 24,57 L 31,50 L 33,50 L 33,49 L 34,48 L 34,47 L 36,45 L 37,46 L 37,51 L 38,51 L 40,53 L 41,52 L 41,48 L 42,47 L 42,46 L 43,45 L 43,41 L 44,40 L 44,39 L 45,38 L 44,38 L 43,39 L 42,38 L 42,36 L 43,35 L 45,35 L 46,34 L 46,32 L 44,34 L 43,34 L 41,32 L 39,32 L 37,30 Z" fill="none" stroke="black" stroke-width="1"/>
</svg>