<svg xmlns="http://www.w3.org/2000/svg" width="98" height="50">
  <path d="M 27,1 L 26,2 L 24,2 L 21,5 L 19,5 L 18,4 L 17,4 L 15,2 L 15,5 L 14,6 L 12,6 L 7,11 L 6,11 L 2,15 L 1,15 L 0,16 L 0,17 L 1,18 L 2,18 L 3,19 L 3,22 L 2,23 L 4,23 L 5,24 L 6,24 L 8,26 L 9,26 L 10,27 L 11,27 L 12,28 L 16,28 L 18,30 L 21,30 L 21,28 L 19,26 L 19,25 L 23,21 L 22,20 L 22,18 L 21,17 L 21,16 L 20,15 L 20,14 L 21,13 L 21,12 L 24,9 L 25,9 L 26,8 L 27,8 L 28,7 L 28,6 L 30,4 L 30,3 L 29,3 Z" fill="none" stroke="black" stroke-width="1"/>
</svg>