<svg xmlns="http://www.w3.org/2000/svg" width="48" height="49">
  <path d="M 7,20 L 6,21 L 6,23 L 5,24 L 4,24 L 4,25 L 3,26 L 2,26 L 1,27 L 1,28 L 0,29 L 0,33 L 1,34 L 1,35 L 4,38 L 7,38 L 8,39 L 8,40 L 10,42 L 11,42 L 12,43 L 13,43 L 14,44 L 14,47 L 15,47 L 16,46 L 17,47 L 17,48 L 17,46 L 16,45 L 16,44 L 17,43 L 18,43 L 18,39 L 16,37 L 14,37 L 13,36 L 13,34 L 17,30 L 17,29 L 19,27 L 18,27 L 16,25 L 15,25 L 14,24 L 13,24 L 11,22 L 10,22 L 8,20 Z" fill="none" stroke="black" stroke-width="1"/>
</svg>