<svg xmlns="http://www.w3.org/2000/svg" width="57" height="63">
  <path d="M 54,17 L 54,18 L 53,19 L 53,21 L 55,19 L 55,18 L 56,17 Z" fill="none" stroke="black" stroke-width="1"/>
  <path d="M 51,0 L 49,2 L 47,2 L 46,3 L 46,4 L 45,5 L 45,10 L 43,12 L 43,14 L 41,16 L 41,22 L 39,24 L 39,27 L 37,29 L 39,31 L 42,31 L 43,30 L 43,29 L 44,28 L 45,28 L 46,27 L 46,24 L 45,23 L 46,22 L 46,21 L 48,19 L 48,18 L 50,16 L 51,16 L 53,14 L 53,13 L 54,12 L 54,11 L 55,10 L 55,8 L 56,7 L 55,6 L 55,2 L 54,2 L 53,1 L 53,0 Z" fill="none" stroke="black" stroke-width="1"/>
</svg>