<svg xmlns="http://www.w3.org/2000/svg" width="70" height="42">
  <path d="M 9,5 L 9,9 L 7,11 L 4,11 L 3,12 L 2,12 L 1,13 L 0,13 L 0,14 L 1,15 L 1,17 L 2,18 L 2,21 L 3,21 L 4,22 L 5,22 L 9,26 L 14,26 L 14,25 L 16,23 L 17,23 L 20,20 L 21,20 L 22,19 L 27,19 L 27,17 L 26,16 L 26,15 L 25,14 L 25,13 L 24,12 L 22,14 L 21,14 L 19,12 L 20,11 L 22,11 L 21,10 L 20,10 L 19,11 L 18,11 L 17,10 L 17,9 L 14,9 L 13,8 L 12,8 Z" fill="none" stroke="black" stroke-width="1"/>
  <path d="M 9,0 L 9,2 L 10,2 L 11,3 L 11,4 L 12,5 L 13,5 L 14,6 L 15,6 L 16,7 L 18,7 L 18,6 L 17,6 L 16,5 L 16,4 L 15,3 L 13,3 L 12,2 L 12,1 L 11,1 L 10,0 Z" fill="none" stroke="black" stroke-width="1"/>
</svg>