<svg xmlns="http://www.w3.org/2000/svg" width="70" height="67">
  <path d="M 29,40 L 28,41 L 26,41 L 25,42 L 25,43 L 23,45 L 21,45 L 20,44 L 20,43 L 18,43 L 18,45 L 17,46 L 17,49 L 21,53 L 22,53 L 24,55 L 24,56 L 25,56 L 29,60 L 29,61 L 31,61 L 32,62 L 34,62 L 35,63 L 38,63 L 39,64 L 53,64 L 54,65 L 55,65 L 56,66 L 60,66 L 60,65 L 61,64 L 61,63 L 60,63 L 59,62 L 59,59 L 58,58 L 56,58 L 55,57 L 55,56 L 50,56 L 47,53 L 47,51 L 46,51 L 45,50 L 41,50 L 39,48 L 39,47 L 38,46 L 37,46 L 36,45 L 36,44 L 35,43 L 35,42 L 34,41 L 34,40 Z" fill="none" stroke="black" stroke-width="1"/>
</svg>