<svg xmlns="http://www.w3.org/2000/svg" width="54" height="45">
  <path d="M 3,0 L 3,1 L 2,2 L 0,2 L 0,3 L 1,3 L 3,5 L 3,6 L 4,7 L 0,11 L 0,13 L 1,14 L 1,15 L 2,16 L 2,17 L 3,18 L 4,18 L 5,19 L 8,19 L 11,22 L 11,23 L 14,20 L 14,19 L 13,18 L 11,18 L 10,17 L 10,16 L 9,15 L 9,14 L 10,13 L 11,14 L 12,14 L 15,17 L 17,17 L 18,18 L 18,19 L 19,20 L 19,23 L 20,24 L 22,24 L 22,23 L 24,21 L 25,21 L 28,18 L 28,13 L 27,12 L 24,12 L 19,7 L 19,6 L 17,4 L 17,3 L 11,3 L 10,2 L 7,2 L 6,1 L 4,1 Z" fill="none" stroke="black" stroke-width="1"/>
</svg>