<svg xmlns="http://www.w3.org/2000/svg" width="92" height="40">
  <path d="M 19,32 L 18,33 L 18,35 L 20,37 L 21,37 L 21,36 L 20,36 L 19,35 Z" fill="none" stroke="black" stroke-width="1"/>
  <path d="M 36,10 L 34,12 L 33,12 L 31,14 L 28,14 L 28,17 L 27,18 L 27,23 L 24,26 L 22,26 L 22,29 L 24,31 L 26,31 L 27,32 L 27,30 L 29,28 L 30,29 L 30,30 L 31,31 L 31,32 L 32,33 L 32,34 L 33,35 L 33,37 L 32,38 L 33,38 L 34,39 L 35,38 L 39,38 L 40,37 L 40,36 L 41,35 L 45,35 L 46,34 L 45,33 L 45,32 L 41,28 L 41,27 L 40,26 L 39,26 L 38,25 L 38,23 L 40,21 L 42,21 L 42,19 L 39,16 L 40,15 L 40,12 L 38,10 Z" fill="none" stroke="black" stroke-width="1"/>
</svg>