<svg xmlns="http://www.w3.org/2000/svg" width="80" height="97">
  <path d="M 56,30 L 56,31 L 54,33 L 53,33 L 52,34 L 51,34 L 50,35 L 47,35 L 46,36 L 41,36 L 40,37 L 38,37 L 36,39 L 36,41 L 37,42 L 37,49 L 38,49 L 41,52 L 42,52 L 44,54 L 46,54 L 47,55 L 48,55 L 49,56 L 50,56 L 51,57 L 62,57 L 65,60 L 66,60 L 67,61 L 67,62 L 69,64 L 69,65 L 70,65 L 71,64 L 73,64 L 72,63 L 72,61 L 74,59 L 75,60 L 75,58 L 76,57 L 76,56 L 77,55 L 77,51 L 76,50 L 77,49 L 77,47 L 78,46 L 78,45 L 77,46 L 75,46 L 66,37 L 65,37 L 64,36 L 62,36 L 61,35 L 60,35 L 56,31 Z" fill="none" stroke="black" stroke-width="1"/>
</svg>