<svg xmlns="http://www.w3.org/2000/svg" width="76" height="108">
  <path d="M 39,0 L 38,1 L 30,1 L 29,2 L 28,2 L 28,3 L 33,8 L 33,9 L 34,10 L 34,13 L 42,13 L 43,14 L 43,15 L 49,21 L 50,21 L 55,26 L 55,27 L 56,28 L 56,29 L 57,30 L 58,30 L 59,31 L 59,34 L 60,35 L 60,38 L 61,39 L 61,41 L 62,41 L 63,42 L 63,43 L 65,43 L 66,44 L 66,45 L 67,46 L 68,46 L 68,44 L 70,42 L 70,40 L 72,38 L 72,37 L 71,37 L 69,35 L 69,32 L 68,31 L 68,28 L 67,27 L 67,26 L 66,25 L 66,14 L 63,14 L 61,12 L 61,11 L 59,9 L 59,8 L 58,7 L 58,6 L 57,6 L 56,5 L 56,4 L 55,3 L 53,3 L 52,2 L 50,2 L 49,1 L 48,1 L 47,0 Z" fill="none" stroke="black" stroke-width="1"/>
</svg>