<svg xmlns="http://www.w3.org/2000/svg" width="76" height="108">
  <path d="M 31,14 L 30,15 L 27,15 L 27,17 L 26,18 L 25,18 L 25,20 L 24,21 L 24,22 L 22,24 L 22,25 L 24,25 L 25,26 L 27,26 L 30,29 L 30,33 L 32,35 L 32,36 L 33,37 L 33,39 L 35,41 L 36,41 L 39,44 L 40,44 L 42,46 L 44,46 L 45,47 L 45,49 L 46,50 L 47,50 L 51,54 L 53,54 L 58,59 L 58,60 L 59,61 L 59,62 L 60,63 L 60,64 L 63,67 L 64,67 L 65,68 L 67,68 L 68,67 L 72,67 L 72,66 L 73,65 L 75,65 L 75,55 L 73,53 L 71,53 L 68,50 L 68,47 L 67,47 L 65,45 L 65,44 L 63,44 L 62,43 L 62,42 L 61,42 L 60,41 L 60,39 L 59,38 L 59,35 L 58,34 L 58,31 L 57,31 L 55,29 L 55,28 L 54,27 L 54,26 L 50,22 L 49,22 L 42,15 L 42,14 Z" fill="none" stroke="black" stroke-width="1"/>
</svg>