<svg xmlns="http://www.w3.org/2000/svg" width="61" height="110">
  <path d="M 26,26 L 25,27 L 23,27 L 23,28 L 22,29 L 18,29 L 17,30 L 17,31 L 18,32 L 18,34 L 24,40 L 24,41 L 36,53 L 36,56 L 37,57 L 36,58 L 37,58 L 38,59 L 38,62 L 39,63 L 39,64 L 40,65 L 40,66 L 42,68 L 42,69 L 44,71 L 45,71 L 48,74 L 51,74 L 51,69 L 53,67 L 53,66 L 52,65 L 52,63 L 53,62 L 53,59 L 54,58 L 54,57 L 55,56 L 55,54 L 57,52 L 57,51 L 58,50 L 58,49 L 59,48 L 59,46 L 60,45 L 60,42 L 59,42 L 58,43 L 55,43 L 54,42 L 53,42 L 52,41 L 50,41 L 49,40 L 46,40 L 45,41 L 44,41 L 43,40 L 43,39 L 42,39 L 40,37 L 37,37 L 36,36 L 34,36 L 29,31 L 29,29 L 28,28 L 27,28 L 26,27 Z" fill="none" stroke="black" stroke-width="1"/>
</svg>