<svg xmlns="http://www.w3.org/2000/svg" width="80" height="97">
  <path d="M 72,0 L 72,1 L 69,4 L 69,5 L 68,6 L 67,6 L 67,7 L 66,8 L 66,12 L 63,15 L 62,15 L 61,16 L 59,16 L 59,18 L 58,19 L 58,23 L 57,24 L 57,31 L 60,34 L 61,34 L 62,35 L 64,35 L 65,36 L 66,36 L 75,45 L 77,45 L 78,44 L 78,42 L 79,41 L 79,35 L 78,34 L 78,31 L 77,30 L 76,30 L 75,29 L 76,28 L 76,27 L 74,25 L 74,23 L 75,22 L 75,16 L 76,15 L 76,14 L 77,13 L 78,13 L 76,11 L 76,4 L 75,3 L 75,1 L 74,1 L 73,0 Z" fill="none" stroke="black" stroke-width="1"/>
</svg>