<svg xmlns="http://www.w3.org/2000/svg" width="215" height="106">
  <path d="M 180,85 L 179,86 L 175,86 L 174,87 L 173,87 L 172,88 L 171,88 L 172,88 L 173,89 L 172,90 L 173,91 L 178,91 L 179,92 L 180,91 L 182,91 L 183,92 L 185,92 L 187,94 L 187,95 L 188,96 L 188,97 L 189,98 L 191,98 L 192,99 L 192,100 L 191,101 L 194,104 L 194,105 L 195,104 L 196,105 L 197,104 L 202,104 L 203,103 L 205,103 L 206,102 L 207,102 L 208,101 L 209,101 L 210,100 L 214,100 L 214,97 L 210,97 L 209,96 L 208,96 L 206,94 L 202,94 L 201,93 L 200,93 L 198,91 L 197,91 L 195,89 L 194,89 L 191,86 L 189,86 L 188,85 Z" fill="none" stroke="black" stroke-width="1"/>
</svg>