<svg xmlns="http://www.w3.org/2000/svg" width="103" height="72">
  <path d="M 21,4 L 20,5 L 12,5 L 10,7 L 7,7 L 6,8 L 3,8 L 3,13 L 0,16 L 0,26 L 1,26 L 3,28 L 3,29 L 4,30 L 4,33 L 5,34 L 5,37 L 7,37 L 8,38 L 9,38 L 9,37 L 15,31 L 17,31 L 18,30 L 19,30 L 20,29 L 21,29 L 22,28 L 25,28 L 26,27 L 31,27 L 32,26 L 35,26 L 36,25 L 44,25 L 45,26 L 46,26 L 48,28 L 52,28 L 52,27 L 53,26 L 53,25 L 56,22 L 56,21 L 57,20 L 57,15 L 58,14 L 58,13 L 61,10 L 61,9 L 60,9 L 59,8 L 55,8 L 54,7 L 39,7 L 38,8 L 31,8 L 29,6 L 28,6 L 27,5 L 26,5 L 25,4 Z" fill="none" stroke="black" stroke-width="1"/>
</svg>