<svg xmlns="http://www.w3.org/2000/svg" width="75" height="59">
  <path d="M 42,25 L 42,28 L 44,30 L 45,30 L 46,29 L 47,29 L 46,28 L 47,27 L 47,26 L 46,25 Z" fill="none" stroke="black" stroke-width="1"/>
  <path d="M 33,22 L 32,23 L 33,24 L 30,27 L 27,27 L 23,31 L 25,33 L 25,35 L 28,35 L 30,37 L 30,38 L 29,39 L 29,40 L 30,40 L 31,41 L 31,42 L 33,44 L 36,44 L 37,43 L 38,43 L 42,39 L 43,39 L 43,38 L 44,37 L 44,36 L 47,33 L 47,32 L 43,32 L 40,29 L 40,25 L 39,25 L 36,22 Z" fill="none" stroke="black" stroke-width="1"/>
</svg>