<svg xmlns="http://www.w3.org/2000/svg" width="54" height="48">
  <path d="M 8,2 L 8,3 L 7,4 L 6,4 L 3,7 L 1,7 L 0,8 L 1,9 L 2,9 L 3,10 L 2,11 L 2,12 L 3,13 L 4,13 L 6,15 L 5,16 L 5,17 L 6,18 L 8,18 L 11,21 L 10,22 L 10,23 L 12,23 L 13,24 L 14,24 L 15,23 L 16,23 L 17,24 L 18,23 L 19,23 L 19,22 L 18,21 L 18,20 L 20,18 L 19,17 L 19,16 L 20,15 L 20,14 L 18,12 L 18,11 L 16,11 L 15,10 L 14,10 L 13,9 L 12,9 L 11,8 L 11,6 L 10,5 L 10,4 L 9,3 L 9,2 Z" fill="none" stroke="black" stroke-width="1"/>
</svg>