<svg xmlns="http://www.w3.org/2000/svg" width="54" height="48">
  <path d="M 25,20 L 24,21 L 23,21 L 22,22 L 21,22 L 19,24 L 18,24 L 17,25 L 16,24 L 15,24 L 14,25 L 13,25 L 12,24 L 12,25 L 13,26 L 13,27 L 14,28 L 14,31 L 15,32 L 16,32 L 17,33 L 17,34 L 19,36 L 19,38 L 20,39 L 22,39 L 23,38 L 25,38 L 27,40 L 27,41 L 29,41 L 30,40 L 33,43 L 33,47 L 34,47 L 36,45 L 37,45 L 41,41 L 41,40 L 42,39 L 42,38 L 44,36 L 44,35 L 45,34 L 46,34 L 46,33 L 47,32 L 47,30 L 46,29 L 46,24 L 45,23 L 41,23 L 40,22 L 39,22 L 38,23 L 37,22 L 35,22 L 34,21 L 33,21 L 32,22 L 30,20 Z" fill="none" stroke="black" stroke-width="1"/>
</svg>