<svg xmlns="http://www.w3.org/2000/svg" width="97" height="71">
  <path d="M 73,22 L 72,23 L 73,23 L 74,24 L 74,23 Z" fill="none" stroke="black" stroke-width="1"/>
  <path d="M 59,0 L 58,1 L 57,1 L 57,3 L 58,4 L 57,5 L 56,5 L 55,4 L 55,2 L 54,1 L 53,1 L 52,2 L 51,2 L 51,3 L 52,4 L 49,7 L 48,7 L 47,8 L 48,9 L 55,9 L 56,10 L 57,10 L 58,11 L 58,14 L 59,14 L 60,15 L 60,17 L 59,18 L 60,19 L 60,20 L 61,21 L 63,21 L 64,22 L 66,22 L 68,24 L 68,25 L 71,25 L 70,24 L 70,19 L 71,18 L 71,17 L 68,17 L 67,16 L 66,16 L 64,14 L 64,13 L 63,12 L 63,7 L 62,6 L 62,5 L 61,4 L 61,3 L 60,2 L 60,1 Z" fill="none" stroke="black" stroke-width="1"/>
</svg>