<svg xmlns="http://www.w3.org/2000/svg" width="50" height="52">
  <path d="M 15,6 L 15,7 L 13,9 L 14,10 L 15,10 L 16,11 L 16,12 L 15,13 L 14,13 L 13,14 L 13,16 L 14,17 L 14,18 L 12,20 L 12,24 L 10,26 L 10,27 L 12,29 L 12,30 L 11,31 L 8,31 L 7,30 L 7,29 L 1,29 L 1,33 L 0,34 L 1,34 L 2,35 L 2,36 L 3,37 L 3,38 L 4,39 L 5,39 L 7,41 L 9,41 L 10,42 L 12,42 L 13,43 L 16,43 L 16,42 L 17,41 L 20,41 L 21,42 L 23,42 L 23,36 L 24,35 L 26,35 L 26,33 L 25,32 L 24,32 L 21,29 L 22,28 L 22,26 L 24,24 L 25,24 L 26,23 L 26,21 L 24,21 L 23,20 L 22,20 L 21,19 L 21,15 L 20,14 L 20,13 L 19,12 L 19,9 L 20,8 L 19,8 L 18,7 L 17,7 L 16,6 Z" fill="none" stroke="black" stroke-width="1"/>
</svg>