<svg xmlns="http://www.w3.org/2000/svg" width="63" height="56">
  <path d="M 30,43 L 29,44 L 29,45 L 30,46 L 30,47 L 31,48 L 31,51 L 32,52 L 33,52 L 33,51 L 32,50 L 32,48 L 33,47 L 33,46 Z" fill="none" stroke="black" stroke-width="1"/>
  <path d="M 26,38 L 25,39 L 26,40 L 26,43 L 27,43 L 28,42 L 28,40 Z" fill="none" stroke="black" stroke-width="1"/>
  <path d="M 19,31 L 19,33 L 20,34 L 21,34 L 22,35 L 23,35 L 21,33 L 21,32 L 20,31 Z" fill="none" stroke="black" stroke-width="1"/>
  <path d="M 6,16 L 5,17 L 5,19 L 7,21 L 7,22 L 8,23 L 8,24 L 9,25 L 10,25 L 11,26 L 14,26 L 13,25 L 14,24 L 12,22 L 12,20 L 11,19 L 11,18 L 10,17 L 8,17 L 7,16 Z" fill="none" stroke="black" stroke-width="1"/>
  <path d="M 1,8 L 1,9 L 0,10 L 0,12 L 2,12 L 2,10 L 3,9 L 3,8 L 2,9 Z" fill="none" stroke="black" stroke-width="1"/>
  <path d="M 0,3 L 0,5 L 1,6 L 2,6 L 1,5 L 1,4 Z" fill="none" stroke="black" stroke-width="1"/>
  <path d="M 3,1 L 4,2 L 6,2 L 7,1 Z" fill="none" stroke="black" stroke-width="1"/>
</svg>