<svg xmlns="http://www.w3.org/2000/svg" width="70" height="57">
  <path d="M 26,29 L 24,31 L 23,31 L 25,33 L 25,34 L 26,35 L 26,37 L 27,37 L 30,40 L 30,41 L 31,42 L 31,43 L 33,43 L 33,40 L 34,39 L 34,37 L 32,35 L 31,35 L 29,33 L 29,32 Z" fill="none" stroke="black" stroke-width="1"/>
  <path d="M 23,18 L 25,20 L 25,19 L 24,18 Z" fill="none" stroke="black" stroke-width="1"/>
  <path d="M 2,6 L 0,8 L 1,9 L 1,10 L 3,10 L 4,11 L 5,11 L 7,13 L 8,13 L 10,15 L 11,15 L 11,13 L 10,13 L 9,12 L 8,12 L 6,10 L 6,9 L 4,9 L 2,7 Z" fill="none" stroke="black" stroke-width="1"/>
</svg>