<svg xmlns="http://www.w3.org/2000/svg" width="42" height="83">
  <path d="M 11,0 L 11,3 L 12,4 L 12,6 L 11,7 L 11,8 L 10,9 L 10,10 L 11,11 L 11,12 L 12,12 L 15,15 L 16,15 L 17,16 L 17,19 L 21,23 L 21,24 L 24,27 L 24,28 L 26,30 L 26,31 L 27,31 L 28,32 L 28,34 L 29,35 L 29,36 L 30,37 L 30,39 L 31,39 L 33,41 L 35,41 L 36,42 L 35,43 L 36,44 L 36,45 L 39,45 L 39,43 L 38,42 L 38,38 L 37,37 L 37,34 L 34,31 L 34,30 L 33,29 L 33,28 L 30,25 L 30,24 L 28,22 L 28,21 L 26,19 L 26,18 L 25,17 L 25,16 L 24,15 L 24,14 L 23,13 L 23,12 L 22,11 L 22,9 L 21,8 L 20,8 L 17,5 L 16,5 L 13,2 L 13,0 Z" fill="none" stroke="black" stroke-width="1"/>
</svg>