<svg xmlns="http://www.w3.org/2000/svg" width="238" height="90">
  <path d="M 115,48 L 114,49 L 112,49 L 111,50 L 109,50 L 108,51 L 107,51 L 106,50 L 104,50 L 103,51 L 94,51 L 93,52 L 88,52 L 87,53 L 85,53 L 85,55 L 81,59 L 81,63 L 80,64 L 80,65 L 79,66 L 79,68 L 80,69 L 80,71 L 82,69 L 82,68 L 84,66 L 85,66 L 88,63 L 89,63 L 90,62 L 92,62 L 93,61 L 95,61 L 96,60 L 98,60 L 100,58 L 105,58 L 109,54 L 113,54 L 117,50 L 118,50 L 119,49 L 118,49 L 117,48 Z" fill="none" stroke="black" stroke-width="1"/>
  <path d="M 143,46 L 145,46 Z" fill="none" stroke="black" stroke-width="1"/>
  <path d="M 127,45 L 128,46 L 130,46 L 131,45 Z" fill="none" stroke="black" stroke-width="1"/>
  <path d="M 93,45 L 92,46 L 91,46 L 91,47 L 92,47 L 93,46 Z" fill="none" stroke="black" stroke-width="1"/>
  <path d="M 155,40 L 155,41 L 157,43 L 158,42 L 158,40 Z" fill="none" stroke="black" stroke-width="1"/>
  <path d="M 107,36 L 106,37 L 105,37 L 104,38 L 103,38 L 102,39 L 101,39 L 100,38 L 99,38 L 98,37 L 98,38 L 96,40 L 96,42 L 97,41 L 98,41 L 99,40 L 101,40 L 102,41 L 106,41 L 106,40 L 107,39 L 108,39 L 109,38 L 110,38 L 108,36 Z" fill="none" stroke="black" stroke-width="1"/>
  <path d="M 120,35 L 120,37 L 121,36 L 121,35 Z" fill="none" stroke="black" stroke-width="1"/>
  <path d="M 139,28 L 139,29 L 140,29 L 140,28 Z" fill="none" stroke="black" stroke-width="1"/>
</svg>