<svg xmlns="http://www.w3.org/2000/svg" width="238" height="90">
  <path d="M 176,43 L 176,44 L 175,45 L 174,45 L 173,46 L 173,47 L 174,47 L 175,46 L 176,46 L 177,45 L 179,45 L 178,45 Z" fill="none" stroke="black" stroke-width="1"/>
  <path d="M 177,34 L 178,34 Z" fill="none" stroke="black" stroke-width="1"/>
  <path d="M 187,28 L 183,32 L 183,33 L 182,34 L 181,34 L 181,35 L 180,36 L 180,38 L 178,40 L 178,41 L 179,42 L 181,42 L 182,41 L 182,40 L 183,39 L 184,39 L 186,37 L 186,35 L 187,34 L 186,33 L 186,31 L 188,29 L 190,29 L 191,30 L 192,30 L 192,28 Z" fill="none" stroke="black" stroke-width="1"/>
</svg>