<svg xmlns="http://www.w3.org/2000/svg" width="44" height="64">
  <path d="M 15,30 L 14,31 L 12,31 L 11,32 L 10,32 L 9,33 L 9,37 L 11,39 L 11,41 L 10,42 L 6,42 L 4,40 L 3,40 L 2,39 L 2,36 L 1,37 L 1,38 L 0,39 L 0,44 L 1,43 L 3,45 L 2,46 L 3,47 L 3,53 L 4,54 L 4,55 L 5,56 L 5,62 L 6,63 L 6,62 L 7,61 L 8,61 L 8,59 L 10,57 L 10,54 L 11,53 L 12,53 L 13,52 L 15,52 L 15,51 L 16,50 L 16,49 L 17,48 L 18,48 L 19,47 L 19,44 L 20,43 L 21,43 L 21,41 L 22,40 L 22,39 L 21,38 L 21,36 L 22,35 L 22,34 L 23,33 L 23,32 L 20,32 L 19,31 L 17,31 L 16,30 Z" fill="none" stroke="black" stroke-width="1"/>
</svg>