<svg xmlns="http://www.w3.org/2000/svg" width="67" height="64">
  <path d="M 54,57 L 55,58 L 56,58 L 55,57 Z" fill="none" stroke="black" stroke-width="1"/>
  <path d="M 45,49 L 44,50 L 48,54 L 49,54 L 50,55 L 50,54 L 49,54 L 46,51 L 46,50 Z" fill="none" stroke="black" stroke-width="1"/>
  <path d="M 63,34 L 63,39 L 62,40 L 62,41 L 63,42 L 64,41 L 65,41 L 66,40 L 66,37 L 64,35 L 64,34 Z" fill="none" stroke="black" stroke-width="1"/>
  <path d="M 37,29 L 35,31 L 35,33 L 34,34 L 32,32 L 33,31 L 32,31 L 32,33 L 33,34 L 34,34 L 35,35 L 35,36 L 36,37 L 37,37 L 37,36 L 38,35 L 43,40 L 43,41 L 44,42 L 46,42 L 48,44 L 48,45 L 50,47 L 50,50 L 52,50 L 54,52 L 55,52 L 56,53 L 57,53 L 58,54 L 58,55 L 59,56 L 59,57 L 60,58 L 61,58 L 62,57 L 62,52 L 63,51 L 63,50 L 62,51 L 61,51 L 59,49 L 57,51 L 56,50 L 56,48 L 57,47 L 58,47 L 57,47 L 56,46 L 56,45 L 53,42 L 53,40 L 54,39 L 59,39 L 58,38 L 56,38 L 55,37 L 53,37 L 50,34 L 49,35 L 50,36 L 50,39 L 49,40 L 47,40 L 45,38 L 45,37 L 46,36 L 46,35 L 44,33 L 44,32 L 42,30 L 41,30 L 40,29 L 39,30 L 38,30 Z" fill="none" stroke="black" stroke-width="1"/>
</svg>