<svg xmlns="http://www.w3.org/2000/svg" width="67" height="60">
  <path d="M 1,12 L 0,13 L 0,14 L 2,14 L 4,16 L 4,18 L 3,19 L 3,27 L 2,28 L 2,29 L 1,30 L 2,31 L 2,34 L 1,35 L 1,36 L 2,36 L 2,35 L 4,33 L 5,33 L 6,32 L 9,32 L 10,31 L 11,31 L 12,32 L 11,33 L 11,34 L 10,35 L 10,36 L 12,36 L 12,35 L 13,34 L 13,32 L 12,32 L 11,31 L 12,30 L 13,30 L 14,29 L 14,27 L 15,26 L 16,26 L 18,24 L 19,24 L 19,22 L 20,21 L 20,18 L 19,19 L 18,19 L 17,20 L 15,18 L 15,17 L 14,17 L 12,19 L 11,19 L 10,18 L 10,17 L 9,17 L 7,15 L 6,15 L 5,14 L 4,14 L 3,13 L 2,13 Z" fill="none" stroke="black" stroke-width="1"/>
  <path d="M 9,3 L 10,4 L 11,4 L 12,5 L 12,6 L 12,5 L 13,4 L 12,3 Z" fill="none" stroke="black" stroke-width="1"/>
  <path d="M 22,1 L 22,3 L 23,4 L 23,7 L 22,8 L 22,9 L 21,10 L 21,11 L 23,9 L 23,8 L 24,7 L 26,7 L 31,12 L 32,12 L 34,14 L 34,11 L 32,9 L 32,8 L 31,7 L 30,7 L 25,2 L 24,2 L 23,1 Z" fill="none" stroke="black" stroke-width="1"/>
  <path d="M 3,0 L 2,1 L 3,2 L 3,3 L 1,5 L 1,7 L 2,8 L 2,7 L 3,6 L 3,3 L 4,2 L 4,0 Z" fill="none" stroke="black" stroke-width="1"/>
</svg>