<svg xmlns="http://www.w3.org/2000/svg" width="130" height="102">
  <path d="M 95,66 L 94,67 L 92,67 L 92,69 L 91,70 L 90,69 L 89,69 L 88,70 L 87,69 L 87,68 L 86,67 L 85,67 L 85,68 L 84,69 L 82,69 L 82,73 L 81,74 L 77,74 L 77,75 L 76,76 L 73,76 L 72,77 L 71,77 L 70,76 L 68,76 L 67,77 L 65,77 L 65,79 L 64,80 L 63,80 L 61,78 L 60,78 L 60,80 L 58,82 L 52,82 L 52,83 L 50,85 L 49,85 L 48,84 L 48,83 L 43,83 L 42,82 L 41,82 L 40,83 L 40,84 L 39,85 L 37,85 L 36,86 L 34,86 L 31,89 L 27,89 L 27,90 L 26,91 L 25,91 L 25,93 L 29,97 L 28,98 L 25,98 L 25,99 L 26,99 L 27,98 L 30,98 L 31,99 L 30,100 L 29,100 L 28,101 L 26,101 L 29,101 L 30,100 L 31,100 L 32,99 L 33,99 L 32,98 L 33,97 L 34,97 L 35,98 L 36,98 L 37,97 L 43,97 L 44,96 L 45,96 L 46,95 L 48,95 L 49,96 L 49,97 L 50,97 L 51,96 L 51,95 L 52,94 L 53,94 L 54,93 L 56,93 L 57,94 L 58,93 L 60,93 L 63,90 L 64,90 L 65,91 L 68,88 L 69,89 L 69,90 L 70,91 L 71,90 L 72,90 L 72,89 L 73,88 L 74,89 L 75,89 L 74,88 L 75,87 L 80,87 L 80,86 L 81,85 L 82,86 L 85,86 L 86,85 L 88,85 L 89,86 L 89,85 L 90,84 L 91,84 L 92,83 L 94,85 L 100,85 L 100,84 L 101,83 L 101,81 L 102,80 L 102,77 L 100,75 L 100,74 L 99,73 L 99,71 L 100,70 L 100,66 Z" fill="none" stroke="black" stroke-width="1"/>
</svg>