<svg xmlns="http://www.w3.org/2000/svg" width="63" height="64">
  <path d="M 16,0 L 15,1 L 12,1 L 11,2 L 10,2 L 9,3 L 7,3 L 6,4 L 4,4 L 3,5 L 2,5 L 1,6 L 0,6 L 0,7 L 2,9 L 2,10 L 4,12 L 4,13 L 5,14 L 5,17 L 6,17 L 11,22 L 12,22 L 13,23 L 14,23 L 15,24 L 20,24 L 22,26 L 23,26 L 24,27 L 24,28 L 25,29 L 25,30 L 26,31 L 28,31 L 29,32 L 30,32 L 31,33 L 32,33 L 33,34 L 36,34 L 37,33 L 37,27 L 38,26 L 38,25 L 39,24 L 40,24 L 43,21 L 43,18 L 42,18 L 41,17 L 41,15 L 42,14 L 42,13 L 36,7 L 36,5 L 37,4 L 37,3 L 35,3 L 34,2 L 30,2 L 29,1 L 24,1 L 23,0 Z" fill="none" stroke="black" stroke-width="1"/>
</svg>