<svg xmlns="http://www.w3.org/2000/svg" width="61" height="83">
  <path d="M 32,13 L 31,14 L 29,14 L 28,15 L 25,15 L 24,16 L 24,17 L 26,19 L 26,20 L 28,20 L 29,21 L 29,25 L 30,26 L 30,27 L 31,28 L 30,29 L 30,31 L 28,33 L 24,33 L 24,34 L 23,35 L 23,37 L 22,38 L 21,38 L 21,42 L 23,42 L 24,43 L 26,43 L 27,44 L 28,44 L 29,43 L 32,46 L 35,46 L 37,48 L 38,48 L 39,49 L 42,49 L 43,48 L 49,48 L 50,47 L 50,46 L 48,46 L 47,45 L 47,44 L 48,43 L 47,43 L 46,44 L 45,44 L 43,42 L 43,41 L 42,40 L 42,39 L 44,37 L 48,37 L 49,38 L 52,38 L 54,36 L 58,36 L 60,34 L 60,32 L 59,31 L 55,31 L 53,29 L 52,29 L 49,26 L 48,26 L 47,25 L 46,25 L 45,24 L 44,25 L 43,25 L 43,26 L 42,27 L 40,27 L 39,26 L 39,25 L 40,24 L 41,24 L 42,23 L 41,22 L 41,21 L 40,21 L 39,22 L 38,22 L 37,23 L 35,23 L 34,22 L 35,21 L 35,20 L 34,19 L 34,18 L 35,17 L 36,17 L 36,15 L 35,14 L 35,13 Z" fill="none" stroke="black" stroke-width="1"/>
</svg>