<svg xmlns="http://www.w3.org/2000/svg" width="73" height="75">
  <path d="M 32,30 L 30,32 L 28,32 L 27,33 L 25,33 L 24,34 L 21,34 L 20,35 L 18,35 L 17,36 L 12,36 L 11,37 L 9,37 L 6,40 L 4,38 L 4,42 L 5,43 L 4,44 L 3,44 L 3,45 L 2,46 L 2,47 L 4,47 L 6,45 L 11,45 L 12,46 L 13,46 L 14,47 L 17,47 L 18,48 L 18,49 L 21,49 L 22,50 L 29,50 L 31,48 L 32,48 L 32,46 L 35,43 L 36,43 L 37,42 L 38,42 L 41,39 L 41,36 L 42,35 L 41,34 L 41,33 L 40,33 L 38,31 L 37,31 L 36,30 Z" fill="none" stroke="black" stroke-width="1"/>
</svg>