<svg xmlns="http://www.w3.org/2000/svg" width="73" height="75">
  <path d="M 6,46 L 5,47 L 5,48 L 4,49 L 3,49 L 3,50 L 2,51 L 2,52 L 1,53 L 1,54 L 0,55 L 0,57 L 1,58 L 2,58 L 3,59 L 4,59 L 5,60 L 5,64 L 4,65 L 4,66 L 3,67 L 3,68 L 2,69 L 2,71 L 3,72 L 3,73 L 6,73 L 7,74 L 9,74 L 9,73 L 11,71 L 11,70 L 15,66 L 18,66 L 19,65 L 20,65 L 21,64 L 23,64 L 25,62 L 25,58 L 23,56 L 23,55 L 22,54 L 22,53 L 21,52 L 21,50 L 18,50 L 17,49 L 17,48 L 14,48 L 13,47 L 12,47 L 11,46 Z" fill="none" stroke="black" stroke-width="1"/>
</svg>