<svg xmlns="http://www.w3.org/2000/svg" width="52" height="112">
  <path d="M 33,79 L 32,80 L 32,89 L 30,91 L 31,92 L 32,92 L 33,93 L 33,99 L 34,100 L 34,102 L 35,103 L 35,109 L 36,109 L 37,108 L 38,108 L 39,107 L 40,107 L 41,108 L 41,111 L 41,110 L 43,108 L 44,108 L 45,107 L 46,108 L 46,109 L 44,111 L 47,111 L 49,109 L 49,99 L 48,98 L 48,97 L 47,97 L 45,95 L 45,90 L 47,88 L 47,87 L 49,85 L 49,83 L 47,81 L 46,82 L 45,82 L 44,83 L 40,83 L 39,82 L 39,81 L 37,81 L 35,79 Z" fill="none" stroke="black" stroke-width="1"/>
</svg>