<svg xmlns="http://www.w3.org/2000/svg" width="61" height="83">
  <path d="M 34,63 L 34,64 L 35,65 L 35,63 Z" fill="none" stroke="black" stroke-width="1"/>
  <path d="M 15,43 L 15,45 L 14,46 L 14,47 L 15,48 L 15,49 L 16,49 L 17,50 L 18,50 L 20,52 L 20,53 L 19,54 L 19,58 L 20,59 L 20,64 L 22,66 L 22,67 L 23,68 L 23,69 L 24,70 L 24,71 L 25,72 L 25,74 L 29,78 L 31,78 L 32,79 L 33,79 L 34,80 L 36,80 L 37,81 L 38,81 L 39,82 L 41,82 L 41,80 L 37,76 L 37,74 L 36,74 L 35,73 L 35,70 L 34,69 L 34,68 L 32,68 L 31,67 L 29,67 L 28,66 L 29,65 L 30,65 L 31,64 L 30,63 L 29,63 L 28,62 L 29,61 L 31,61 L 26,61 L 25,60 L 26,59 L 32,59 L 33,60 L 34,60 L 35,59 L 37,59 L 37,58 L 35,56 L 34,56 L 33,55 L 34,54 L 33,53 L 32,53 L 31,52 L 32,51 L 34,51 L 36,53 L 37,52 L 38,53 L 39,53 L 39,51 L 38,51 L 37,50 L 35,50 L 34,49 L 34,48 L 35,47 L 32,47 L 29,44 L 28,45 L 27,45 L 26,44 L 24,44 L 23,43 Z" fill="none" stroke="black" stroke-width="1"/>
</svg>