<svg xmlns="http://www.w3.org/2000/svg" width="60" height="90">
  <path d="M 4,67 L 4,71 L 6,73 L 5,74 L 5,76 L 4,77 L 4,78 L 5,79 L 5,80 L 6,81 L 7,81 L 8,82 L 8,83 L 9,84 L 10,84 L 11,85 L 12,85 L 15,88 L 16,88 L 17,89 L 20,89 L 20,87 L 22,85 L 24,85 L 24,84 L 25,83 L 26,83 L 27,82 L 31,82 L 32,81 L 33,82 L 36,82 L 37,81 L 37,80 L 36,79 L 37,78 L 37,76 L 36,77 L 33,77 L 31,75 L 30,75 L 27,72 L 27,71 L 26,71 L 25,70 L 24,70 L 21,73 L 16,73 L 15,72 L 11,72 L 9,70 L 9,69 L 7,69 L 6,68 L 6,67 Z" fill="none" stroke="black" stroke-width="1"/>
</svg>