<svg xmlns="http://www.w3.org/2000/svg" width="127" height="131">
  <path d="M 33,52 L 32,53 L 32,56 L 29,59 L 29,60 L 28,61 L 27,60 L 26,61 L 25,61 L 23,59 L 24,58 L 23,58 L 23,60 L 22,61 L 21,61 L 20,62 L 20,65 L 19,66 L 18,66 L 17,67 L 17,68 L 16,69 L 16,71 L 17,72 L 17,75 L 16,76 L 15,75 L 15,74 L 14,73 L 12,73 L 14,75 L 15,75 L 16,76 L 16,78 L 15,79 L 15,82 L 16,83 L 16,84 L 17,85 L 17,87 L 16,88 L 15,87 L 15,86 L 14,85 L 14,86 L 13,87 L 12,87 L 12,88 L 11,89 L 11,91 L 9,93 L 9,94 L 11,94 L 13,96 L 14,96 L 15,97 L 15,98 L 16,99 L 16,100 L 17,101 L 17,103 L 20,103 L 21,102 L 21,101 L 22,100 L 22,99 L 23,98 L 23,97 L 24,96 L 24,94 L 25,93 L 25,91 L 26,90 L 26,89 L 25,88 L 24,89 L 23,89 L 21,87 L 21,86 L 20,85 L 20,84 L 19,83 L 19,80 L 18,79 L 19,78 L 19,76 L 18,75 L 20,73 L 20,70 L 25,65 L 26,65 L 27,64 L 29,64 L 30,65 L 31,65 L 32,66 L 37,66 L 38,65 L 39,65 L 40,66 L 42,66 L 42,65 L 43,64 L 43,61 L 42,60 L 42,59 L 43,58 L 43,57 L 41,55 L 41,54 L 38,54 L 36,52 Z" fill="none" stroke="black" stroke-width="1"/>
</svg>