<svg xmlns="http://www.w3.org/2000/svg" width="63" height="61">
  <path d="M 61,54 L 61,55 L 62,55 L 62,54 Z" fill="none" stroke="black" stroke-width="1"/>
  <path d="M 35,51 L 35,55 L 37,57 L 38,57 L 38,53 L 37,52 L 37,51 Z" fill="none" stroke="black" stroke-width="1"/>
  <path d="M 47,44 L 45,46 L 43,46 L 43,49 L 44,50 L 44,51 L 43,52 L 42,52 L 42,55 L 43,56 L 44,56 L 45,55 L 47,55 L 47,54 L 46,53 L 46,52 L 48,50 L 48,48 L 49,47 L 49,46 L 48,45 L 48,44 Z" fill="none" stroke="black" stroke-width="1"/>
  <path d="M 54,40 L 51,43 L 51,48 L 50,49 L 50,52 L 49,53 L 49,56 L 48,57 L 47,57 L 46,58 L 47,59 L 47,60 L 50,60 L 51,59 L 51,58 L 50,57 L 51,56 L 54,56 L 55,55 L 55,53 L 54,53 L 52,51 L 52,48 L 53,47 L 53,46 L 54,45 L 55,45 L 56,46 L 56,47 L 56,44 L 55,43 L 55,42 L 54,41 Z" fill="none" stroke="black" stroke-width="1"/>
</svg>