<svg xmlns="http://www.w3.org/2000/svg" width="190" height="185">
  <path d="M 68,80 L 66,82 L 64,82 L 63,83 L 64,83 L 65,84 L 61,88 L 57,88 L 55,86 L 52,86 L 46,92 L 45,91 L 44,91 L 43,90 L 36,90 L 35,91 L 35,93 L 36,94 L 37,94 L 38,93 L 39,93 L 40,94 L 41,94 L 45,98 L 45,99 L 46,100 L 47,99 L 48,100 L 48,102 L 49,102 L 50,103 L 47,106 L 48,107 L 48,110 L 49,111 L 49,112 L 50,112 L 51,111 L 55,111 L 57,109 L 57,108 L 56,107 L 59,104 L 59,102 L 60,101 L 60,97 L 63,94 L 64,95 L 64,96 L 62,98 L 62,102 L 61,103 L 62,104 L 62,105 L 64,105 L 66,107 L 67,107 L 68,106 L 70,108 L 69,109 L 70,110 L 71,110 L 72,109 L 73,109 L 75,111 L 75,110 L 76,109 L 77,109 L 79,107 L 80,107 L 80,106 L 83,103 L 83,101 L 82,100 L 81,100 L 79,98 L 79,93 L 78,94 L 76,92 L 76,87 L 74,87 L 72,89 L 71,88 L 71,87 L 68,84 Z" fill="none" stroke="black" stroke-width="1"/>
</svg>