<svg xmlns="http://www.w3.org/2000/svg" width="215" height="155">
  <path d="M 102,52 L 102,54 L 103,55 L 104,55 L 104,53 L 103,52 Z" fill="none" stroke="black" stroke-width="1"/>
  <path d="M 85,41 L 85,42 L 84,43 L 84,44 L 85,44 L 86,43 L 86,42 Z" fill="none" stroke="black" stroke-width="1"/>
  <path d="M 63,33 L 62,34 L 61,34 L 61,35 L 59,37 L 59,38 L 58,39 L 58,42 L 57,43 L 56,43 L 55,44 L 50,44 L 49,45 L 49,51 L 51,53 L 52,53 L 53,54 L 58,54 L 59,55 L 62,55 L 63,56 L 64,56 L 68,60 L 69,60 L 72,63 L 73,63 L 75,65 L 76,65 L 79,68 L 80,68 L 83,71 L 84,71 L 85,72 L 88,72 L 89,73 L 90,73 L 89,72 L 90,71 L 93,71 L 95,69 L 99,69 L 100,70 L 101,70 L 102,71 L 105,71 L 106,70 L 107,70 L 109,68 L 110,68 L 111,67 L 108,64 L 102,64 L 100,62 L 98,62 L 97,61 L 96,61 L 94,59 L 93,59 L 92,58 L 88,58 L 87,57 L 86,57 L 85,56 L 84,56 L 83,57 L 82,57 L 81,56 L 81,54 L 82,53 L 82,51 L 83,50 L 82,49 L 82,47 L 81,46 L 81,45 L 75,39 L 72,39 L 66,33 Z" fill="none" stroke="black" stroke-width="1"/>
  <path d="M 98,0 L 97,1 L 95,1 L 94,2 L 94,4 L 95,4 L 96,3 L 99,3 L 100,4 L 104,4 L 105,3 L 107,3 L 109,1 L 109,0 L 108,0 L 108,1 L 107,2 L 106,1 L 101,1 L 100,0 Z" fill="none" stroke="black" stroke-width="1"/>
</svg>