<svg xmlns="http://www.w3.org/2000/svg" width="215" height="155">
  <path d="M 111,68 L 110,69 L 109,69 L 107,71 L 106,71 L 105,72 L 102,72 L 101,71 L 100,71 L 99,70 L 95,70 L 93,72 L 90,72 L 91,73 L 90,74 L 89,74 L 88,73 L 88,75 L 89,75 L 95,81 L 96,81 L 98,83 L 98,85 L 99,85 L 100,86 L 101,86 L 106,91 L 106,92 L 108,94 L 109,94 L 110,95 L 110,96 L 111,97 L 111,104 L 112,105 L 112,108 L 113,109 L 113,110 L 114,110 L 115,111 L 117,111 L 118,112 L 119,112 L 120,113 L 120,115 L 121,116 L 121,118 L 124,118 L 125,117 L 129,117 L 130,116 L 132,116 L 133,115 L 137,115 L 137,113 L 133,113 L 132,114 L 130,114 L 129,115 L 128,115 L 127,114 L 126,114 L 125,113 L 125,112 L 124,111 L 124,108 L 122,106 L 121,106 L 120,105 L 120,101 L 119,100 L 119,98 L 117,98 L 115,96 L 113,96 L 112,95 L 112,94 L 107,89 L 105,89 L 103,87 L 103,84 L 102,83 L 102,82 L 100,80 L 100,77 L 101,76 L 102,76 L 103,75 L 104,75 L 105,76 L 113,76 L 114,75 L 114,70 L 112,68 Z" fill="none" stroke="black" stroke-width="1"/>
  <path d="M 114,57 L 114,59 L 117,62 L 117,60 L 118,59 L 117,58 L 116,58 L 115,57 Z" fill="none" stroke="black" stroke-width="1"/>
</svg>