<svg xmlns="http://www.w3.org/2000/svg" width="70" height="67">
  <path d="M 58,28 L 58,29 L 57,30 L 58,31 L 58,34 L 56,36 L 55,36 L 55,37 L 51,41 L 49,41 L 49,42 L 47,44 L 47,47 L 44,50 L 43,49 L 42,49 L 41,48 L 41,50 L 40,51 L 39,51 L 38,52 L 36,52 L 36,54 L 34,56 L 31,56 L 30,57 L 33,60 L 34,60 L 35,61 L 36,61 L 37,62 L 37,63 L 39,65 L 41,65 L 42,66 L 45,66 L 45,65 L 48,62 L 52,62 L 53,63 L 57,63 L 58,62 L 58,61 L 59,60 L 59,59 L 60,58 L 61,58 L 64,55 L 66,55 L 67,54 L 66,53 L 66,52 L 67,51 L 68,51 L 69,50 L 69,49 L 67,47 L 66,47 L 65,46 L 65,44 L 64,43 L 63,43 L 62,42 L 62,41 L 63,40 L 63,39 L 64,38 L 64,33 L 61,30 L 60,30 Z" fill="none" stroke="black" stroke-width="1"/>
</svg>