<svg xmlns="http://www.w3.org/2000/svg" width="215" height="155">
  <path d="M 61,83 L 60,84 L 50,84 L 49,85 L 48,85 L 47,86 L 46,86 L 43,89 L 43,90 L 42,91 L 42,95 L 39,98 L 38,98 L 37,99 L 35,99 L 34,98 L 34,97 L 32,97 L 31,98 L 31,101 L 32,100 L 35,100 L 36,101 L 41,101 L 42,100 L 48,100 L 47,99 L 47,98 L 46,98 L 44,96 L 44,95 L 45,94 L 47,96 L 50,96 L 51,97 L 52,97 L 53,96 L 53,95 L 52,94 L 52,93 L 51,92 L 51,91 L 50,91 L 49,90 L 49,89 L 48,88 L 49,87 L 50,87 L 51,88 L 51,89 L 52,89 L 53,90 L 53,91 L 54,91 L 55,92 L 56,92 L 57,93 L 58,93 L 58,91 L 59,90 L 60,91 L 60,92 L 61,92 L 61,91 L 60,90 L 60,89 L 61,88 L 64,91 L 67,91 L 69,93 L 73,93 L 74,94 L 75,94 L 76,95 L 80,95 L 81,96 L 83,96 L 84,97 L 86,97 L 90,101 L 90,103 L 91,104 L 91,105 L 93,105 L 94,104 L 94,103 L 96,101 L 92,97 L 92,91 L 91,90 L 74,90 L 73,89 L 69,89 L 68,88 L 66,88 L 65,87 L 65,84 L 64,83 Z" fill="none" stroke="black" stroke-width="1"/>
</svg>