<svg xmlns="http://www.w3.org/2000/svg" width="215" height="155">
  <path d="M 45,103 L 46,104 L 45,105 L 46,106 L 47,106 L 46,105 L 47,104 L 48,104 L 47,103 Z" fill="none" stroke="black" stroke-width="1"/>
  <path d="M 6,88 L 5,89 L 6,90 L 6,91 L 9,94 L 9,100 L 6,103 L 5,103 L 1,107 L 0,107 L 2,109 L 2,110 L 5,113 L 6,113 L 7,114 L 8,114 L 9,115 L 9,116 L 11,116 L 13,114 L 14,114 L 16,116 L 23,116 L 24,115 L 28,115 L 29,116 L 30,116 L 31,117 L 34,117 L 35,116 L 36,116 L 37,115 L 38,115 L 40,113 L 42,113 L 43,112 L 44,113 L 45,112 L 45,111 L 44,110 L 44,108 L 40,104 L 38,104 L 37,103 L 36,103 L 35,102 L 34,102 L 33,103 L 30,103 L 26,99 L 27,98 L 29,98 L 30,99 L 30,100 L 30,96 L 29,95 L 28,95 L 27,94 L 24,94 L 23,95 L 21,95 L 20,94 L 20,93 L 17,93 L 16,92 L 14,92 L 13,91 L 13,89 L 11,89 L 10,88 Z" fill="none" stroke="black" stroke-width="1"/>
</svg>