<svg xmlns="http://www.w3.org/2000/svg" width="190" height="185">
  <path d="M 173,146 L 172,147 L 171,147 L 168,150 L 167,150 L 164,153 L 164,155 L 163,156 L 162,156 L 162,157 L 161,158 L 161,160 L 160,161 L 155,161 L 154,162 L 149,162 L 148,161 L 145,161 L 147,161 L 148,162 L 147,163 L 141,163 L 142,163 L 144,165 L 145,165 L 146,166 L 145,167 L 146,168 L 146,169 L 145,170 L 145,173 L 144,174 L 144,175 L 143,176 L 142,175 L 142,171 L 143,170 L 142,169 L 142,167 L 140,165 L 137,165 L 136,166 L 133,166 L 132,167 L 131,167 L 129,169 L 129,170 L 127,172 L 127,173 L 126,174 L 126,175 L 125,176 L 125,178 L 124,179 L 124,180 L 123,181 L 124,181 L 125,180 L 132,180 L 133,181 L 134,181 L 135,180 L 136,180 L 140,176 L 141,176 L 143,178 L 142,179 L 140,179 L 139,180 L 140,180 L 141,181 L 142,181 L 142,180 L 143,179 L 143,178 L 144,177 L 145,177 L 146,176 L 148,176 L 149,177 L 153,177 L 154,176 L 159,176 L 160,175 L 160,174 L 162,172 L 163,173 L 163,175 L 162,176 L 162,179 L 166,183 L 167,183 L 168,184 L 169,184 L 173,180 L 174,180 L 176,178 L 176,172 L 173,169 L 173,168 L 172,167 L 174,165 L 178,165 L 179,166 L 181,166 L 182,167 L 182,169 L 184,169 L 184,167 L 186,165 L 187,165 L 189,163 L 189,160 L 187,160 L 184,157 L 184,156 L 183,155 L 183,154 L 182,153 L 182,152 L 181,151 L 181,150 L 178,147 L 177,147 L 176,146 Z" fill="none" stroke="black" stroke-width="1"/>
</svg>