<svg xmlns="http://www.w3.org/2000/svg" width="190" height="185">
  <path d="M 82,105 L 81,106 L 81,107 L 80,108 L 79,108 L 78,109 L 78,110 L 77,111 L 77,113 L 78,114 L 79,114 L 80,115 L 81,115 L 82,116 L 83,116 L 84,117 L 85,117 L 86,118 L 87,117 L 90,117 L 91,118 L 97,118 L 98,119 L 98,120 L 99,120 L 100,121 L 104,121 L 106,123 L 107,123 L 108,124 L 110,124 L 111,125 L 112,125 L 113,126 L 117,126 L 119,128 L 120,128 L 121,129 L 123,129 L 126,132 L 127,132 L 130,135 L 130,138 L 131,138 L 134,141 L 134,143 L 135,144 L 135,147 L 136,148 L 136,149 L 138,151 L 139,151 L 140,152 L 140,154 L 145,154 L 148,157 L 146,159 L 144,157 L 141,157 L 140,158 L 139,157 L 138,157 L 138,158 L 139,159 L 140,159 L 141,160 L 143,160 L 144,159 L 145,160 L 148,160 L 149,161 L 151,161 L 152,160 L 152,159 L 153,158 L 153,157 L 151,155 L 150,155 L 144,149 L 143,149 L 142,148 L 142,147 L 140,145 L 140,144 L 139,143 L 139,140 L 142,137 L 142,134 L 143,133 L 143,132 L 145,130 L 147,130 L 149,128 L 149,127 L 150,126 L 150,119 L 148,119 L 146,121 L 140,121 L 139,120 L 134,120 L 132,118 L 131,118 L 130,117 L 123,117 L 122,118 L 119,115 L 117,115 L 115,113 L 104,113 L 103,112 L 90,112 L 88,110 L 87,110 Z" fill="none" stroke="black" stroke-width="1"/>
</svg>