<svg xmlns="http://www.w3.org/2000/svg" width="238" height="90">
  <path d="M 234,20 L 234,21 L 233,22 L 234,22 Z" fill="none" stroke="black" stroke-width="1"/>
  <path d="M 236,16 L 236,18 L 236,17 L 237,16 Z" fill="none" stroke="black" stroke-width="1"/>
  <path d="M 202,5 L 203,6 L 203,9 L 204,9 L 204,6 L 203,5 Z" fill="none" stroke="black" stroke-width="1"/>
  <path d="M 231,2 L 231,3 L 230,4 L 230,5 L 229,6 L 227,6 L 228,6 L 229,7 L 229,9 L 228,10 L 228,11 L 227,12 L 225,12 L 226,13 L 225,14 L 226,15 L 226,16 L 225,17 L 225,18 L 224,19 L 224,22 L 225,23 L 225,24 L 226,25 L 227,25 L 229,23 L 229,22 L 230,21 L 231,21 L 230,20 L 229,20 L 228,19 L 228,18 L 227,17 L 227,16 L 228,15 L 229,16 L 230,16 L 232,18 L 232,17 L 231,16 L 230,16 L 229,15 L 230,14 L 232,14 L 233,15 L 234,15 L 235,14 L 235,12 L 234,11 L 232,11 L 231,10 L 232,9 L 235,9 L 234,8 L 234,3 L 233,2 Z" fill="none" stroke="black" stroke-width="1"/>
  <path d="M 210,0 L 209,1 L 209,3 L 208,4 L 208,5 L 206,7 L 206,9 L 207,8 L 207,7 L 209,5 L 209,3 L 210,2 Z" fill="none" stroke="black" stroke-width="1"/>
</svg>