<svg xmlns="http://www.w3.org/2000/svg" width="221" height="219">
  <path d="M 8,169 L 8,172 L 9,172 L 10,173 L 10,176 L 10,175 L 11,174 L 11,173 L 10,172 L 10,171 L 9,170 L 9,169 Z" fill="none" stroke="black" stroke-width="1"/>
  <path d="M 0,167 L 0,171 L 1,172 L 1,173 L 3,175 L 4,175 L 4,174 L 3,173 L 3,172 L 2,171 L 2,170 L 1,169 L 1,167 Z" fill="none" stroke="black" stroke-width="1"/>
  <path d="M 13,132 L 13,133 L 12,134 L 13,135 L 13,136 L 12,137 L 12,139 L 10,141 L 10,142 L 9,143 L 9,145 L 8,146 L 8,153 L 9,153 L 10,154 L 10,155 L 11,156 L 11,161 L 14,164 L 14,165 L 15,166 L 15,167 L 16,168 L 16,169 L 17,170 L 17,171 L 19,173 L 19,174 L 18,175 L 18,178 L 19,179 L 17,181 L 16,181 L 14,179 L 14,176 L 12,178 L 13,178 L 14,179 L 14,183 L 13,184 L 10,184 L 9,183 L 9,179 L 8,179 L 7,178 L 7,177 L 7,178 L 6,179 L 6,180 L 7,181 L 7,182 L 12,187 L 12,188 L 14,190 L 14,191 L 16,193 L 16,194 L 17,195 L 17,205 L 23,211 L 23,212 L 24,213 L 24,217 L 25,218 L 26,217 L 27,217 L 28,216 L 31,216 L 32,215 L 39,215 L 40,214 L 41,214 L 42,213 L 42,212 L 44,210 L 45,210 L 50,205 L 51,205 L 52,204 L 52,203 L 57,198 L 58,198 L 61,195 L 62,195 L 66,191 L 67,191 L 68,190 L 69,190 L 71,188 L 72,188 L 73,187 L 73,186 L 75,184 L 75,183 L 78,180 L 78,178 L 79,177 L 79,176 L 80,175 L 80,174 L 81,173 L 81,159 L 82,158 L 82,147 L 78,143 L 74,143 L 73,144 L 72,144 L 71,143 L 67,143 L 66,144 L 62,144 L 60,146 L 60,147 L 58,149 L 57,149 L 56,150 L 51,150 L 50,149 L 49,149 L 48,148 L 47,148 L 45,146 L 39,146 L 38,147 L 38,149 L 37,150 L 35,148 L 34,148 L 28,142 L 23,142 L 22,141 L 21,141 L 19,139 L 19,137 L 18,136 L 18,135 L 17,134 L 17,133 L 16,133 L 15,132 Z" fill="none" stroke="black" stroke-width="1"/>
</svg>