<svg xmlns="http://www.w3.org/2000/svg" width="124" height="97">
  <path d="M 80,65 L 80,66 L 78,68 L 77,68 L 76,69 L 75,69 L 74,70 L 54,70 L 53,69 L 52,69 L 49,72 L 47,72 L 47,73 L 45,75 L 44,75 L 43,76 L 43,77 L 42,78 L 42,83 L 38,87 L 37,87 L 36,88 L 34,88 L 31,91 L 30,91 L 30,92 L 29,93 L 29,94 L 28,95 L 29,96 L 30,95 L 36,95 L 37,96 L 42,96 L 43,95 L 44,95 L 45,94 L 47,94 L 49,92 L 49,91 L 50,90 L 53,90 L 54,89 L 54,88 L 56,86 L 60,86 L 61,87 L 61,86 L 66,81 L 67,81 L 68,80 L 69,80 L 72,77 L 74,77 L 75,78 L 77,78 L 78,77 L 87,77 L 88,76 L 92,76 L 93,77 L 97,77 L 98,76 L 100,78 L 100,79 L 101,79 L 103,77 L 104,77 L 105,78 L 106,77 L 113,77 L 114,78 L 114,79 L 115,78 L 116,78 L 117,77 L 120,77 L 122,75 L 122,74 L 123,73 L 122,72 L 121,72 L 120,71 L 117,71 L 116,70 L 115,70 L 114,69 L 105,69 L 104,68 L 89,68 L 88,67 L 86,67 L 85,66 L 83,66 L 82,65 Z" fill="none" stroke="black" stroke-width="1"/>
</svg>