<svg xmlns="http://www.w3.org/2000/svg" width="124" height="90">
  <path d="M 16,2 L 16,4 L 15,5 L 14,5 L 14,9 L 13,10 L 12,9 L 12,11 L 13,11 L 14,10 L 16,10 L 17,11 L 19,11 L 20,10 L 21,11 L 22,11 L 23,12 L 25,12 L 30,7 L 31,7 L 32,6 L 30,4 L 30,3 L 27,3 L 25,5 L 21,5 L 20,6 Z" fill="none" stroke="black" stroke-width="1"/>
  <path d="M 46,1 L 46,3 L 45,4 L 43,2 L 40,2 L 41,3 L 41,5 L 40,6 L 39,5 L 39,4 L 38,3 L 38,2 L 36,2 L 36,3 L 35,4 L 37,4 L 39,6 L 39,7 L 40,6 L 45,6 L 45,5 L 47,3 L 47,1 Z" fill="none" stroke="black" stroke-width="1"/>
</svg>