<svg xmlns="http://www.w3.org/2000/svg" width="124" height="90">
  <path d="M 101,37 L 101,39 L 100,40 L 98,40 L 98,42 L 97,43 L 97,44 L 98,45 L 104,45 L 102,45 L 101,44 L 101,42 L 102,41 L 102,40 L 101,39 Z" fill="none" stroke="black" stroke-width="1"/>
  <path d="M 95,37 L 94,38 L 95,39 L 96,38 Z" fill="none" stroke="black" stroke-width="1"/>
  <path d="M 95,8 L 96,8 Z" fill="none" stroke="black" stroke-width="1"/>
  <path d="M 50,5 L 49,6 L 49,7 L 48,8 L 47,8 L 47,15 L 45,17 L 45,18 L 44,19 L 44,21 L 43,22 L 43,32 L 42,33 L 42,39 L 41,40 L 41,41 L 40,42 L 40,43 L 38,45 L 38,48 L 39,49 L 39,51 L 40,52 L 40,53 L 41,54 L 41,58 L 42,58 L 43,59 L 45,59 L 46,60 L 48,60 L 49,59 L 50,59 L 51,60 L 51,61 L 52,61 L 53,62 L 64,62 L 65,63 L 74,63 L 75,62 L 77,62 L 78,63 L 83,63 L 83,62 L 85,60 L 86,60 L 86,59 L 87,58 L 87,57 L 86,57 L 83,54 L 83,52 L 84,51 L 85,51 L 85,49 L 87,47 L 87,46 L 88,45 L 89,45 L 89,43 L 90,42 L 90,40 L 91,39 L 89,37 L 89,33 L 92,30 L 95,30 L 96,29 L 97,30 L 98,30 L 98,29 L 99,28 L 99,27 L 98,26 L 98,25 L 99,24 L 100,25 L 100,23 L 104,19 L 104,18 L 103,17 L 102,18 L 101,18 L 100,17 L 100,16 L 99,15 L 99,13 L 98,14 L 97,14 L 95,16 L 96,16 L 97,17 L 97,19 L 95,21 L 92,21 L 91,20 L 91,18 L 90,17 L 90,16 L 90,17 L 89,18 L 88,18 L 87,17 L 87,15 L 89,13 L 88,13 L 86,15 L 83,15 L 83,16 L 81,18 L 80,18 L 76,14 L 73,14 L 72,15 L 71,15 L 70,14 L 67,14 L 65,12 L 64,13 L 63,12 L 63,11 L 64,10 L 62,10 L 60,12 L 59,12 L 58,11 L 57,11 L 56,10 L 54,10 L 51,7 L 51,5 Z" fill="none" stroke="black" stroke-width="1"/>
  <path d="M 102,0 L 99,3 L 99,4 L 98,5 L 98,7 L 99,6 L 99,5 L 102,2 Z" fill="none" stroke="black" stroke-width="1"/>
</svg>