<svg xmlns="http://www.w3.org/2000/svg" width="143" height="150">
  <path d="M 52,11 L 52,15 L 51,16 L 51,18 L 50,19 L 50,26 L 49,27 L 48,26 L 47,26 L 47,28 L 46,29 L 46,30 L 45,31 L 45,32 L 46,32 L 47,33 L 48,33 L 49,34 L 49,35 L 48,36 L 47,36 L 47,37 L 46,38 L 45,38 L 44,39 L 44,40 L 45,41 L 45,42 L 46,43 L 45,44 L 45,45 L 44,46 L 44,49 L 43,50 L 43,52 L 44,53 L 44,65 L 45,66 L 45,70 L 44,71 L 44,73 L 43,74 L 43,79 L 42,80 L 42,81 L 43,82 L 43,83 L 41,85 L 41,88 L 42,88 L 44,90 L 45,90 L 47,92 L 48,92 L 49,93 L 50,93 L 52,95 L 54,95 L 56,97 L 59,97 L 60,98 L 61,98 L 62,99 L 66,99 L 66,93 L 68,91 L 68,90 L 69,89 L 69,87 L 70,86 L 70,81 L 69,80 L 69,73 L 70,72 L 70,68 L 74,64 L 74,60 L 73,59 L 73,58 L 72,57 L 72,53 L 71,53 L 70,52 L 70,51 L 69,50 L 70,49 L 70,45 L 69,44 L 69,38 L 68,37 L 68,33 L 66,31 L 64,31 L 63,30 L 63,28 L 64,27 L 64,26 L 65,25 L 62,25 L 61,24 L 61,16 L 60,15 L 60,12 L 59,11 Z" fill="none" stroke="black" stroke-width="1"/>
  <path d="M 56,7 L 56,9 L 57,8 Z" fill="none" stroke="black" stroke-width="1"/>
  <path d="M 51,7 L 53,7 Z" fill="none" stroke="black" stroke-width="1"/>
  <path d="M 53,0 L 54,0 Z" fill="none" stroke="black" stroke-width="1"/>
</svg>