<svg xmlns="http://www.w3.org/2000/svg" width="59" height="95">
  <path d="M 10,0 L 9,1 L 8,1 L 7,2 L 7,3 L 6,4 L 6,5 L 5,6 L 5,9 L 6,10 L 6,16 L 7,17 L 7,18 L 6,19 L 5,19 L 4,20 L 4,22 L 3,23 L 2,23 L 2,24 L 3,25 L 8,25 L 10,27 L 10,28 L 11,29 L 11,31 L 10,32 L 9,32 L 8,33 L 6,31 L 6,30 L 5,29 L 4,29 L 4,30 L 5,31 L 5,32 L 3,34 L 2,34 L 2,35 L 0,37 L 0,39 L 1,39 L 5,43 L 6,43 L 7,44 L 8,43 L 9,43 L 10,42 L 12,42 L 13,43 L 14,43 L 15,44 L 16,44 L 16,42 L 21,37 L 25,37 L 25,36 L 26,35 L 26,29 L 25,28 L 25,27 L 24,26 L 24,23 L 23,22 L 23,16 L 22,15 L 22,14 L 21,13 L 18,13 L 17,12 L 16,12 L 15,11 L 15,10 L 11,6 L 11,5 L 12,4 L 12,2 L 11,1 L 11,0 Z" fill="none" stroke="black" stroke-width="1"/>
</svg>