<svg xmlns="http://www.w3.org/2000/svg" width="143" height="150">
  <path d="M 83,56 L 83,57 L 82,58 L 79,58 L 76,61 L 75,61 L 75,64 L 71,68 L 71,72 L 70,73 L 70,80 L 71,81 L 71,86 L 70,87 L 70,89 L 69,90 L 69,91 L 67,93 L 67,98 L 68,99 L 68,100 L 70,100 L 71,101 L 76,101 L 77,100 L 79,100 L 80,99 L 84,99 L 85,100 L 89,100 L 90,101 L 98,101 L 99,100 L 100,100 L 101,99 L 102,99 L 102,95 L 101,95 L 100,94 L 100,93 L 95,88 L 95,87 L 96,86 L 96,83 L 95,82 L 95,81 L 94,80 L 94,71 L 93,70 L 94,69 L 94,66 L 93,66 L 92,65 L 90,65 L 87,62 L 86,62 L 84,60 L 84,59 L 83,58 Z" fill="none" stroke="black" stroke-width="1"/>
</svg>