<svg xmlns="http://www.w3.org/2000/svg" width="143" height="150">
  <path d="M 103,99 L 102,100 L 101,100 L 100,101 L 99,101 L 98,102 L 90,102 L 89,101 L 85,101 L 84,100 L 80,100 L 79,101 L 77,101 L 76,102 L 74,102 L 74,104 L 75,105 L 75,106 L 74,107 L 74,108 L 69,113 L 68,113 L 65,116 L 65,120 L 68,123 L 69,123 L 72,126 L 72,132 L 73,133 L 83,133 L 84,134 L 90,134 L 91,135 L 96,135 L 97,136 L 99,136 L 104,141 L 104,142 L 105,143 L 105,144 L 107,146 L 107,147 L 109,149 L 117,149 L 118,148 L 122,148 L 123,147 L 129,147 L 130,148 L 133,148 L 134,149 L 138,149 L 139,148 L 139,147 L 141,145 L 142,145 L 141,144 L 141,142 L 140,142 L 139,141 L 137,141 L 136,142 L 134,140 L 134,139 L 133,138 L 130,138 L 128,136 L 128,135 L 127,136 L 126,136 L 125,135 L 125,133 L 124,132 L 124,131 L 123,130 L 123,129 L 122,130 L 119,130 L 118,129 L 117,129 L 116,128 L 113,128 L 112,127 L 111,127 L 106,122 L 107,121 L 107,120 L 108,119 L 107,119 L 105,117 L 105,116 L 104,115 L 105,114 L 104,114 L 103,113 L 103,112 L 104,111 L 104,110 L 105,109 L 105,103 L 104,102 L 104,101 L 103,100 Z" fill="none" stroke="black" stroke-width="1"/>
</svg>