<svg xmlns="http://www.w3.org/2000/svg" width="103" height="114">
  <path d="M 23,0 L 22,1 L 18,1 L 17,2 L 9,2 L 12,5 L 13,5 L 14,6 L 15,6 L 18,9 L 19,9 L 21,11 L 23,11 L 25,13 L 26,13 L 28,15 L 28,17 L 29,18 L 29,20 L 31,22 L 31,27 L 32,27 L 33,28 L 35,28 L 36,29 L 38,29 L 39,30 L 40,30 L 41,31 L 41,32 L 42,32 L 43,31 L 44,31 L 44,30 L 45,29 L 48,29 L 49,30 L 49,31 L 50,32 L 50,35 L 51,36 L 51,39 L 52,40 L 53,40 L 54,41 L 55,41 L 56,40 L 55,39 L 55,33 L 56,32 L 59,32 L 60,33 L 62,33 L 64,35 L 64,36 L 65,37 L 68,37 L 67,36 L 67,35 L 68,34 L 68,30 L 67,29 L 67,28 L 66,27 L 66,25 L 65,25 L 65,26 L 64,27 L 63,27 L 61,25 L 60,25 L 58,23 L 58,22 L 58,23 L 57,24 L 58,25 L 58,27 L 57,28 L 56,27 L 56,26 L 55,25 L 54,26 L 51,23 L 51,19 L 50,18 L 50,13 L 48,11 L 48,10 L 47,9 L 47,8 L 46,7 L 46,6 L 44,4 L 43,4 L 40,1 L 40,0 L 38,2 L 34,2 L 33,1 L 30,1 L 29,0 Z" fill="none" stroke="black" stroke-width="1"/>
</svg>