<svg xmlns="http://www.w3.org/2000/svg" width="120" height="112">
  <path d="M 62,74 L 60,76 L 60,78 L 59,79 L 59,81 L 58,82 L 58,83 L 57,84 L 58,85 L 58,96 L 57,97 L 57,98 L 56,99 L 56,104 L 61,104 L 62,103 L 64,103 L 67,100 L 67,99 L 68,98 L 69,98 L 72,95 L 73,95 L 73,94 L 75,92 L 76,92 L 77,91 L 80,91 L 81,90 L 97,90 L 98,89 L 99,89 L 100,88 L 101,88 L 101,87 L 103,85 L 102,84 L 102,83 L 101,82 L 100,82 L 99,81 L 97,81 L 96,80 L 95,80 L 94,79 L 88,79 L 87,80 L 86,80 L 85,81 L 80,81 L 79,80 L 78,80 L 73,75 L 71,75 L 70,74 Z" fill="none" stroke="black" stroke-width="1"/>
</svg>