<svg xmlns="http://www.w3.org/2000/svg" width="113" height="113">
  <path d="M 76,43 L 74,45 L 74,47 L 76,49 L 76,50 L 77,51 L 77,52 L 76,53 L 76,54 L 73,57 L 72,57 L 70,59 L 70,65 L 71,66 L 71,68 L 69,70 L 68,69 L 68,68 L 68,71 L 70,73 L 71,73 L 72,74 L 73,73 L 74,74 L 74,75 L 73,76 L 75,78 L 75,80 L 76,81 L 76,82 L 77,83 L 77,88 L 75,90 L 75,91 L 76,92 L 76,94 L 78,96 L 78,97 L 79,98 L 80,98 L 82,100 L 82,101 L 84,103 L 84,104 L 85,104 L 88,107 L 91,107 L 92,106 L 94,108 L 95,108 L 98,111 L 99,111 L 100,112 L 102,110 L 104,110 L 105,111 L 108,111 L 108,101 L 109,100 L 109,98 L 110,97 L 110,89 L 111,88 L 111,85 L 110,84 L 110,82 L 109,81 L 109,71 L 110,70 L 110,67 L 111,66 L 111,65 L 112,64 L 112,49 L 111,48 L 111,47 L 108,44 L 107,44 L 106,43 L 101,43 L 100,44 L 95,44 L 94,45 L 91,45 L 89,47 L 87,47 L 84,44 L 81,44 L 80,43 Z" fill="none" stroke="black" stroke-width="1"/>
</svg>