<svg xmlns="http://www.w3.org/2000/svg" width="113" height="113">
  <path d="M 43,0 L 39,4 L 38,4 L 35,7 L 34,7 L 33,8 L 31,8 L 30,9 L 30,12 L 31,13 L 31,14 L 29,16 L 27,14 L 26,14 L 26,15 L 25,16 L 24,15 L 24,13 L 25,12 L 25,10 L 24,11 L 23,11 L 22,12 L 21,12 L 19,14 L 17,14 L 16,15 L 15,15 L 14,16 L 13,16 L 10,19 L 9,19 L 8,20 L 7,20 L 6,21 L 3,21 L 2,22 L 3,23 L 1,25 L 0,24 L 0,26 L 2,28 L 2,29 L 3,30 L 5,30 L 6,29 L 9,32 L 9,33 L 11,35 L 11,36 L 10,37 L 11,38 L 11,39 L 13,41 L 14,41 L 16,43 L 16,47 L 17,48 L 17,52 L 16,53 L 14,51 L 14,52 L 15,52 L 20,57 L 21,57 L 22,56 L 24,58 L 25,58 L 25,55 L 24,56 L 23,56 L 22,55 L 22,54 L 23,53 L 23,52 L 24,51 L 25,51 L 25,50 L 27,48 L 28,48 L 29,47 L 29,45 L 33,41 L 35,41 L 38,38 L 39,39 L 40,39 L 41,38 L 41,36 L 43,34 L 43,32 L 44,31 L 44,30 L 46,28 L 48,28 L 48,22 L 49,21 L 49,17 L 48,16 L 48,1 L 47,0 Z" fill="none" stroke="black" stroke-width="1"/>
</svg>