<svg xmlns="http://www.w3.org/2000/svg" width="55" height="77">
  <path d="M 37,21 L 36,22 L 36,23 L 33,26 L 31,26 L 31,27 L 29,29 L 26,29 L 25,28 L 24,28 L 23,27 L 19,27 L 18,26 L 17,27 L 17,30 L 16,31 L 16,35 L 15,36 L 15,37 L 14,38 L 13,38 L 12,39 L 11,39 L 10,40 L 10,42 L 11,43 L 11,54 L 10,55 L 10,56 L 8,58 L 8,60 L 7,61 L 7,62 L 6,63 L 5,63 L 4,64 L 3,64 L 3,65 L 2,66 L 2,67 L 0,69 L 0,71 L 2,73 L 2,75 L 3,76 L 4,76 L 6,74 L 7,74 L 9,72 L 10,72 L 12,70 L 13,70 L 14,69 L 15,69 L 18,66 L 18,64 L 19,63 L 19,62 L 21,60 L 21,59 L 23,57 L 23,56 L 24,55 L 25,55 L 26,54 L 26,52 L 29,49 L 29,48 L 30,47 L 30,42 L 32,40 L 32,39 L 31,39 L 30,38 L 30,36 L 29,35 L 29,34 L 30,33 L 30,32 L 33,29 L 34,29 L 35,28 L 38,28 L 39,27 L 40,28 L 43,28 L 44,29 L 44,31 L 44,30 L 45,29 L 46,29 L 45,28 L 45,27 L 44,26 L 44,25 L 43,25 L 42,24 L 41,24 L 39,22 L 38,22 Z" fill="none" stroke="black" stroke-width="1"/>
</svg>