<svg xmlns="http://www.w3.org/2000/svg" width="121" height="114">
  <path d="M 114,4 L 114,5 L 113,6 L 113,7 L 114,8 L 115,8 L 114,8 L 113,7 L 115,5 L 115,4 Z" fill="none" stroke="black" stroke-width="1"/>
  <path d="M 94,0 L 95,1 L 94,2 L 92,2 L 89,5 L 88,5 L 88,6 L 87,7 L 87,13 L 90,13 L 91,12 L 93,12 L 95,14 L 95,16 L 94,17 L 95,18 L 90,23 L 90,26 L 92,26 L 93,27 L 97,27 L 99,29 L 101,29 L 102,28 L 103,28 L 105,26 L 111,26 L 112,27 L 112,28 L 113,28 L 114,29 L 115,29 L 119,25 L 119,24 L 120,23 L 118,21 L 118,19 L 117,19 L 116,18 L 116,17 L 117,16 L 117,15 L 118,14 L 120,14 L 119,14 L 118,13 L 119,12 L 119,10 L 118,10 L 117,9 L 116,10 L 116,12 L 115,13 L 114,13 L 113,12 L 113,11 L 112,11 L 111,10 L 111,9 L 108,12 L 107,12 L 104,15 L 102,15 L 101,14 L 101,11 L 100,10 L 100,9 L 101,8 L 101,7 L 100,6 L 100,5 L 99,6 L 97,6 L 95,4 L 95,0 Z" fill="none" stroke="black" stroke-width="1"/>
</svg>