<svg xmlns="http://www.w3.org/2000/svg" width="52" height="132">
  <path d="M 22,38 L 22,39 L 23,40 L 23,41 L 24,41 L 27,44 L 27,46 L 28,47 L 28,48 L 30,50 L 30,52 L 31,53 L 31,54 L 32,55 L 32,58 L 33,59 L 33,61 L 34,62 L 34,63 L 33,64 L 33,66 L 34,67 L 33,68 L 33,72 L 32,73 L 32,74 L 31,75 L 31,81 L 32,81 L 33,80 L 35,80 L 36,79 L 38,79 L 39,80 L 40,80 L 41,81 L 42,80 L 42,76 L 43,75 L 43,73 L 44,72 L 44,71 L 47,68 L 47,63 L 46,62 L 46,61 L 48,59 L 49,59 L 51,57 L 50,56 L 50,53 L 49,52 L 49,46 L 47,44 L 47,43 L 46,43 L 45,42 L 45,41 L 43,39 L 41,39 L 44,42 L 44,44 L 43,45 L 43,46 L 45,48 L 45,52 L 44,53 L 42,53 L 40,51 L 40,48 L 38,48 L 36,46 L 38,44 L 36,44 L 37,45 L 36,46 L 34,46 L 31,43 L 31,42 L 26,42 L 24,40 L 24,39 L 23,38 Z" fill="none" stroke="black" stroke-width="1"/>
  <path d="M 41,32 L 41,34 L 43,36 L 44,36 L 44,35 L 43,34 L 43,33 L 42,32 Z" fill="none" stroke="black" stroke-width="1"/>
</svg>