<svg xmlns="http://www.w3.org/2000/svg" width="65" height="81">
  <path d="M 38,18 L 37,19 L 35,19 L 34,20 L 33,20 L 32,19 L 29,19 L 27,21 L 27,23 L 26,24 L 28,26 L 28,27 L 27,28 L 27,29 L 25,31 L 24,31 L 22,29 L 21,29 L 20,30 L 17,30 L 16,31 L 14,31 L 10,35 L 10,36 L 13,36 L 14,37 L 16,37 L 17,38 L 17,39 L 18,40 L 19,40 L 20,41 L 20,43 L 21,43 L 25,39 L 29,39 L 30,40 L 31,40 L 32,41 L 32,43 L 34,45 L 34,46 L 35,46 L 36,47 L 37,47 L 38,46 L 40,46 L 41,45 L 41,43 L 42,42 L 43,42 L 44,41 L 45,41 L 46,40 L 49,40 L 49,32 L 50,31 L 50,30 L 48,28 L 48,27 L 49,26 L 49,25 L 50,24 L 50,23 L 48,21 L 47,21 L 46,22 L 44,22 L 42,20 L 41,20 L 40,19 L 39,19 Z" fill="none" stroke="black" stroke-width="1"/>
</svg>