<svg xmlns="http://www.w3.org/2000/svg" width="180" height="109">
  <path d="M 113,28 L 110,31 L 108,31 L 106,33 L 103,33 L 102,34 L 101,34 L 96,39 L 96,40 L 90,46 L 88,46 L 87,47 L 84,47 L 83,48 L 82,48 L 81,49 L 80,49 L 79,50 L 78,50 L 77,51 L 69,51 L 68,52 L 65,52 L 65,53 L 69,57 L 69,58 L 70,59 L 70,60 L 71,60 L 73,62 L 73,65 L 72,66 L 72,67 L 74,67 L 78,71 L 79,71 L 80,72 L 80,73 L 81,74 L 82,74 L 83,75 L 84,75 L 85,74 L 92,74 L 93,73 L 96,76 L 101,76 L 102,75 L 103,75 L 105,73 L 111,73 L 111,71 L 115,67 L 116,67 L 117,66 L 118,66 L 119,65 L 120,65 L 121,64 L 128,64 L 130,62 L 133,62 L 132,61 L 132,60 L 131,59 L 131,51 L 130,51 L 128,49 L 126,49 L 124,47 L 124,46 L 123,46 L 122,45 L 122,43 L 120,41 L 120,37 L 118,35 L 118,34 L 117,33 L 117,32 L 116,31 L 116,29 L 115,28 Z" fill="none" stroke="black" stroke-width="1"/>
</svg>