<svg xmlns="http://www.w3.org/2000/svg" width="106" height="65">
  <path d="M 42,11 L 42,12 L 44,14 L 44,16 L 41,19 L 41,20 L 35,26 L 34,26 L 32,24 L 32,23 L 31,22 L 31,21 L 28,18 L 28,17 L 26,15 L 25,15 L 24,14 L 23,14 L 21,16 L 20,16 L 17,19 L 16,19 L 13,22 L 13,23 L 9,27 L 8,27 L 6,29 L 6,30 L 5,31 L 4,31 L 3,32 L 2,32 L 1,33 L 0,33 L 1,34 L 1,36 L 2,37 L 2,42 L 3,43 L 4,43 L 6,45 L 7,45 L 9,47 L 9,48 L 10,49 L 10,50 L 11,51 L 11,53 L 14,56 L 14,58 L 15,59 L 16,59 L 17,60 L 17,62 L 18,63 L 19,63 L 24,58 L 25,58 L 26,59 L 27,59 L 28,58 L 28,57 L 31,54 L 31,50 L 30,49 L 30,48 L 29,47 L 29,46 L 30,45 L 30,44 L 31,43 L 32,43 L 33,42 L 34,42 L 35,41 L 36,42 L 36,44 L 38,44 L 39,45 L 40,45 L 41,44 L 41,43 L 44,40 L 44,39 L 45,38 L 45,37 L 46,36 L 46,35 L 47,34 L 47,32 L 46,31 L 49,28 L 51,28 L 51,27 L 52,26 L 52,21 L 53,20 L 49,16 L 49,15 L 48,14 L 48,12 L 45,12 L 44,13 L 43,12 L 43,11 Z" fill="none" stroke="black" stroke-width="1"/>
</svg>