<svg xmlns="http://www.w3.org/2000/svg" width="119" height="77">
  <path d="M 75,0 L 74,1 L 72,1 L 72,2 L 71,3 L 67,3 L 66,4 L 65,4 L 64,3 L 63,3 L 63,4 L 64,5 L 64,6 L 65,7 L 65,8 L 64,9 L 62,9 L 61,10 L 60,10 L 59,11 L 58,11 L 56,13 L 55,13 L 54,14 L 54,15 L 53,16 L 53,19 L 52,20 L 51,20 L 51,22 L 52,22 L 53,23 L 56,23 L 57,24 L 58,24 L 59,25 L 60,25 L 61,26 L 61,31 L 62,32 L 62,33 L 63,34 L 64,34 L 67,37 L 70,37 L 72,35 L 77,35 L 78,34 L 79,34 L 82,31 L 88,31 L 89,30 L 92,30 L 92,28 L 93,27 L 93,26 L 94,25 L 94,23 L 96,21 L 96,17 L 95,16 L 94,16 L 93,15 L 93,11 L 92,10 L 90,10 L 86,6 L 86,4 L 87,3 L 87,2 L 85,0 L 83,2 L 82,2 L 81,3 L 80,3 L 78,1 L 77,1 L 76,0 Z" fill="none" stroke="black" stroke-width="1"/>
</svg>