<svg xmlns="http://www.w3.org/2000/svg" width="77" height="66">
  <path d="M 69,40 L 68,41 L 61,41 L 60,42 L 56,42 L 55,43 L 51,43 L 51,44 L 49,46 L 48,46 L 47,45 L 46,45 L 45,44 L 40,44 L 39,43 L 35,43 L 35,46 L 36,47 L 36,51 L 37,52 L 37,53 L 36,54 L 36,55 L 42,61 L 42,63 L 43,63 L 43,62 L 44,61 L 44,60 L 45,59 L 47,59 L 48,58 L 49,59 L 49,60 L 51,60 L 52,61 L 54,61 L 56,63 L 58,61 L 59,62 L 60,62 L 61,63 L 62,63 L 63,62 L 66,62 L 66,60 L 67,59 L 68,59 L 68,58 L 70,56 L 70,52 L 71,51 L 71,50 L 75,46 L 75,43 L 76,42 L 76,41 L 73,41 L 72,40 Z" fill="none" stroke="black" stroke-width="1"/>
</svg>