<svg xmlns="http://www.w3.org/2000/svg" width="82" height="92">
  <path d="M 21,17 L 21,22 L 20,23 L 18,23 L 18,24 L 17,25 L 13,25 L 13,27 L 12,28 L 11,28 L 7,32 L 7,34 L 6,35 L 5,35 L 1,39 L 1,40 L 0,41 L 0,45 L 1,45 L 5,49 L 6,49 L 7,50 L 7,51 L 10,51 L 12,53 L 16,53 L 17,54 L 20,54 L 21,55 L 23,55 L 23,54 L 25,52 L 24,51 L 24,46 L 25,45 L 26,45 L 27,44 L 28,44 L 29,43 L 30,43 L 33,40 L 34,40 L 35,39 L 35,38 L 37,36 L 35,36 L 34,35 L 34,33 L 33,33 L 32,32 L 32,30 L 31,30 L 30,29 L 30,25 L 28,25 L 27,24 L 27,19 L 26,19 L 25,18 L 25,17 Z" fill="none" stroke="black" stroke-width="1"/>
</svg>