<svg xmlns="http://www.w3.org/2000/svg" width="69" height="130">
  <path d="M 5,31 L 4,32 L 6,32 L 7,33 L 8,33 L 6,31 Z" fill="none" stroke="black" stroke-width="1"/>
  <path d="M 46,9 L 47,10 L 48,9 Z" fill="none" stroke="black" stroke-width="1"/>
  <path d="M 50,6 L 49,7 L 52,7 L 52,6 Z" fill="none" stroke="black" stroke-width="1"/>
  <path d="M 58,2 L 58,4 L 59,5 L 63,5 L 64,6 L 63,7 L 60,7 L 59,8 L 58,8 L 57,7 L 57,6 L 56,5 L 54,5 L 56,7 L 55,8 L 54,8 L 54,9 L 55,10 L 55,11 L 56,11 L 57,12 L 57,13 L 58,14 L 57,15 L 56,15 L 51,10 L 51,9 L 50,9 L 50,10 L 55,15 L 56,15 L 59,18 L 58,19 L 56,19 L 54,17 L 53,17 L 49,13 L 47,13 L 44,10 L 44,9 L 43,9 L 42,10 L 41,10 L 39,12 L 38,11 L 37,12 L 35,12 L 34,13 L 34,14 L 35,15 L 34,16 L 34,17 L 45,17 L 46,18 L 45,19 L 43,19 L 42,20 L 41,20 L 40,21 L 38,21 L 37,20 L 30,20 L 29,21 L 23,21 L 27,21 L 28,22 L 29,22 L 30,23 L 31,23 L 35,27 L 35,28 L 34,29 L 33,28 L 32,28 L 29,25 L 28,25 L 27,24 L 23,24 L 22,25 L 20,25 L 23,25 L 24,24 L 25,25 L 25,26 L 24,27 L 21,27 L 20,28 L 19,28 L 18,27 L 18,26 L 17,25 L 16,26 L 16,27 L 18,29 L 18,30 L 17,31 L 16,31 L 15,30 L 15,29 L 14,28 L 13,28 L 10,31 L 12,33 L 12,34 L 18,34 L 19,35 L 26,35 L 27,34 L 32,34 L 33,35 L 35,35 L 37,33 L 37,32 L 39,30 L 39,29 L 43,25 L 43,24 L 44,23 L 45,23 L 46,22 L 50,22 L 52,20 L 53,20 L 54,21 L 55,21 L 56,22 L 59,22 L 60,21 L 61,21 L 62,20 L 62,19 L 63,18 L 63,16 L 65,14 L 66,14 L 66,13 L 67,12 L 68,12 L 68,11 L 67,10 L 67,8 L 66,8 L 65,7 L 65,6 L 64,5 L 64,4 L 63,3 L 61,3 L 60,4 L 59,3 L 59,2 Z" fill="none" stroke="black" stroke-width="1"/>
  <path d="M 49,0 L 48,1 L 47,1 L 47,2 L 49,2 L 50,3 L 51,2 L 52,2 L 52,1 L 51,0 Z" fill="none" stroke="black" stroke-width="1"/>
</svg>