<svg xmlns="http://www.w3.org/2000/svg" width="72" height="53">
  <path d="M 25,14 L 25,18 L 24,19 L 23,19 L 23,20 L 22,21 L 16,21 L 15,20 L 14,21 L 14,22 L 13,23 L 13,28 L 12,29 L 11,29 L 10,30 L 8,30 L 7,29 L 6,29 L 6,31 L 3,34 L 3,37 L 2,38 L 2,43 L 1,44 L 1,46 L 0,47 L 0,50 L 1,50 L 3,52 L 5,50 L 7,50 L 8,51 L 9,51 L 9,50 L 10,49 L 11,49 L 12,48 L 13,48 L 14,47 L 17,47 L 18,48 L 23,48 L 24,49 L 25,49 L 27,47 L 27,44 L 28,43 L 28,41 L 29,40 L 32,40 L 32,38 L 33,37 L 33,34 L 35,32 L 37,32 L 38,33 L 39,32 L 41,32 L 39,30 L 39,28 L 40,27 L 40,26 L 41,25 L 41,22 L 39,20 L 39,18 L 38,18 L 37,17 L 35,17 L 34,18 L 30,18 L 27,15 L 27,14 Z" fill="none" stroke="black" stroke-width="1"/>
</svg>