<svg xmlns="http://www.w3.org/2000/svg" width="78" height="61">
  <path d="M 48,15 L 48,16 L 49,17 L 49,18 L 47,20 L 45,20 L 44,19 L 43,19 L 41,21 L 41,22 L 40,23 L 40,24 L 39,25 L 38,25 L 36,23 L 34,23 L 33,24 L 32,24 L 32,25 L 33,26 L 33,28 L 34,29 L 33,30 L 30,30 L 29,29 L 28,29 L 26,31 L 24,31 L 23,30 L 20,30 L 19,31 L 19,34 L 20,35 L 22,35 L 24,37 L 24,38 L 25,39 L 26,39 L 28,41 L 28,42 L 29,43 L 29,45 L 30,46 L 30,48 L 31,49 L 31,52 L 32,53 L 32,54 L 33,55 L 33,56 L 36,59 L 36,60 L 38,60 L 39,59 L 40,60 L 41,60 L 42,59 L 43,59 L 44,58 L 45,58 L 45,56 L 46,55 L 46,53 L 47,52 L 47,47 L 48,46 L 48,43 L 51,40 L 51,38 L 52,37 L 53,37 L 54,38 L 56,38 L 57,37 L 58,37 L 58,32 L 59,31 L 59,30 L 60,29 L 60,24 L 59,23 L 56,23 L 55,22 L 55,21 L 54,21 L 53,20 L 52,20 L 51,19 L 51,16 L 50,15 Z" fill="none" stroke="black" stroke-width="1"/>
</svg>