<svg xmlns="http://www.w3.org/2000/svg" width="78" height="61">
  <path d="M 57,3 L 54,6 L 53,6 L 52,5 L 47,5 L 46,6 L 45,6 L 43,8 L 42,8 L 40,6 L 39,6 L 38,5 L 36,5 L 34,7 L 35,8 L 34,9 L 32,9 L 31,10 L 31,12 L 32,12 L 33,13 L 33,14 L 32,15 L 32,18 L 33,19 L 34,19 L 35,20 L 35,22 L 36,22 L 38,24 L 39,24 L 39,23 L 40,22 L 40,21 L 43,18 L 44,18 L 45,19 L 47,19 L 48,18 L 48,17 L 47,16 L 47,15 L 48,14 L 50,14 L 52,16 L 52,19 L 53,19 L 54,20 L 55,20 L 56,21 L 56,22 L 58,22 L 58,20 L 59,19 L 59,18 L 60,17 L 60,16 L 61,15 L 61,10 L 60,9 L 60,8 L 59,7 L 59,4 L 58,3 Z" fill="none" stroke="black" stroke-width="1"/>
</svg>