<svg xmlns="http://www.w3.org/2000/svg" width="78" height="61">
  <path d="M 19,8 L 15,12 L 14,12 L 13,13 L 11,13 L 10,12 L 4,12 L 3,13 L 3,17 L 0,20 L 1,21 L 1,22 L 7,22 L 8,23 L 9,23 L 10,24 L 12,24 L 16,28 L 16,29 L 17,30 L 17,31 L 18,31 L 20,29 L 23,29 L 24,30 L 26,30 L 28,28 L 29,28 L 30,29 L 33,29 L 32,28 L 32,26 L 31,25 L 31,24 L 32,23 L 33,23 L 34,22 L 34,20 L 33,20 L 31,18 L 31,15 L 32,14 L 32,13 L 31,13 L 30,12 L 28,12 L 27,11 L 25,11 L 24,10 L 23,10 L 22,9 L 21,9 L 20,8 Z" fill="none" stroke="black" stroke-width="1"/>
</svg>