<svg xmlns="http://www.w3.org/2000/svg" width="50" height="52">
  <path d="M 27,21 L 27,23 L 25,25 L 24,25 L 23,26 L 23,28 L 22,29 L 24,31 L 25,31 L 27,33 L 27,35 L 26,36 L 24,36 L 24,42 L 23,43 L 21,43 L 20,42 L 17,42 L 17,43 L 16,44 L 16,48 L 18,50 L 22,50 L 23,51 L 24,51 L 25,50 L 26,50 L 27,49 L 28,49 L 28,48 L 30,46 L 31,46 L 33,48 L 34,48 L 34,47 L 38,43 L 39,43 L 40,42 L 41,42 L 43,40 L 43,39 L 44,38 L 44,37 L 45,36 L 47,36 L 49,38 L 49,36 L 45,32 L 45,31 L 44,30 L 44,23 L 43,24 L 42,24 L 41,25 L 40,25 L 40,26 L 39,27 L 38,27 L 37,26 L 35,26 L 34,25 L 33,25 L 29,21 Z" fill="none" stroke="black" stroke-width="1"/>
</svg>