<svg xmlns="http://www.w3.org/2000/svg" width="72" height="61">
  <path d="M 55,33 L 54,34 L 53,34 L 52,35 L 50,35 L 49,36 L 47,36 L 46,37 L 46,38 L 45,39 L 44,39 L 43,38 L 41,38 L 41,40 L 37,44 L 36,44 L 36,48 L 37,49 L 37,51 L 36,52 L 36,55 L 35,56 L 35,57 L 36,57 L 38,59 L 38,60 L 41,60 L 42,59 L 44,59 L 45,58 L 48,58 L 49,57 L 49,55 L 52,52 L 53,52 L 54,53 L 56,53 L 57,52 L 58,52 L 59,53 L 61,53 L 64,50 L 66,50 L 66,49 L 68,47 L 70,47 L 71,46 L 71,44 L 70,45 L 67,45 L 66,44 L 66,43 L 64,41 L 64,37 L 62,39 L 61,39 L 60,38 L 60,37 L 58,37 L 57,36 L 57,35 L 56,34 L 56,33 Z" fill="none" stroke="black" stroke-width="1"/>
</svg>