<svg xmlns="http://www.w3.org/2000/svg" width="56" height="59">
  <path d="M 36,27 L 36,28 L 35,29 L 35,31 L 34,32 L 28,32 L 28,33 L 27,34 L 23,34 L 23,40 L 24,41 L 25,41 L 26,42 L 26,46 L 29,46 L 32,49 L 32,51 L 34,51 L 35,52 L 36,52 L 39,49 L 41,49 L 44,46 L 44,45 L 47,42 L 48,43 L 48,44 L 49,45 L 51,45 L 52,44 L 53,44 L 54,43 L 55,43 L 55,40 L 54,39 L 54,37 L 55,36 L 55,35 L 54,35 L 53,34 L 53,33 L 48,33 L 47,32 L 47,31 L 46,30 L 43,30 L 42,29 L 38,29 L 37,28 L 37,27 Z" fill="none" stroke="black" stroke-width="1"/>
</svg>