<svg xmlns="http://www.w3.org/2000/svg" width="56" height="59">
  <path d="M 6,20 L 4,22 L 4,23 L 3,24 L 3,29 L 4,30 L 3,31 L 3,32 L 1,34 L 1,37 L 0,38 L 0,55 L 1,54 L 2,54 L 3,55 L 4,55 L 5,56 L 6,56 L 7,57 L 9,57 L 10,58 L 12,58 L 12,57 L 14,55 L 16,55 L 15,54 L 18,51 L 20,51 L 21,52 L 22,52 L 24,54 L 25,54 L 27,52 L 28,52 L 29,51 L 31,51 L 31,49 L 29,47 L 26,47 L 25,46 L 25,42 L 24,42 L 22,40 L 22,34 L 21,34 L 20,33 L 20,32 L 18,32 L 17,31 L 17,27 L 16,26 L 16,25 L 14,23 L 13,23 L 12,22 L 10,22 L 9,21 L 8,21 L 7,20 Z" fill="none" stroke="black" stroke-width="1"/>
</svg>