<svg xmlns="http://www.w3.org/2000/svg" width="60" height="93">
  <path d="M 26,52 L 26,53 L 25,54 L 25,56 L 24,57 L 24,59 L 23,60 L 23,61 L 21,63 L 20,63 L 20,65 L 19,66 L 17,66 L 16,67 L 16,71 L 14,73 L 12,73 L 11,74 L 11,78 L 12,79 L 13,79 L 14,80 L 14,82 L 15,83 L 15,88 L 16,88 L 17,89 L 17,90 L 20,90 L 21,91 L 23,91 L 24,92 L 26,92 L 26,90 L 27,89 L 28,89 L 28,87 L 29,86 L 30,86 L 33,83 L 33,79 L 35,77 L 35,76 L 36,75 L 36,72 L 35,71 L 35,68 L 37,66 L 37,63 L 38,62 L 38,61 L 40,59 L 40,58 L 42,56 L 42,55 L 41,55 L 40,56 L 38,56 L 36,54 L 36,53 L 35,52 L 34,52 L 33,53 L 32,53 L 31,54 L 30,54 L 29,53 L 28,53 L 27,52 Z" fill="none" stroke="black" stroke-width="1"/>
</svg>