<svg xmlns="http://www.w3.org/2000/svg" width="60" height="93">
  <path d="M 4,6 L 3,7 L 3,9 L 4,10 L 4,16 L 3,17 L 3,19 L 5,21 L 5,22 L 10,22 L 11,23 L 14,23 L 15,24 L 15,25 L 14,26 L 14,27 L 15,27 L 16,28 L 16,29 L 15,30 L 15,31 L 16,32 L 17,32 L 19,34 L 19,35 L 20,36 L 20,38 L 21,39 L 21,41 L 20,42 L 20,43 L 21,44 L 21,45 L 20,46 L 20,47 L 25,47 L 26,48 L 26,51 L 27,51 L 28,52 L 29,52 L 30,53 L 31,53 L 32,52 L 33,52 L 34,51 L 35,51 L 37,53 L 37,54 L 38,55 L 40,55 L 41,54 L 42,54 L 43,53 L 44,53 L 45,54 L 46,54 L 48,56 L 49,55 L 50,55 L 49,54 L 51,52 L 52,52 L 53,51 L 54,51 L 54,49 L 50,49 L 49,48 L 49,46 L 47,44 L 46,44 L 45,43 L 44,43 L 43,42 L 43,40 L 42,39 L 42,37 L 40,37 L 38,35 L 38,34 L 36,32 L 34,32 L 31,29 L 31,28 L 28,25 L 28,24 L 27,23 L 27,22 L 25,20 L 24,20 L 23,19 L 19,19 L 18,18 L 18,17 L 16,15 L 15,15 L 14,14 L 12,14 L 11,15 L 10,15 L 6,11 L 6,8 Z" fill="none" stroke="black" stroke-width="1"/>
  <path d="M 7,0 L 6,1 L 8,3 L 7,4 L 6,4 L 12,4 L 11,3 L 10,3 L 9,4 L 8,3 L 8,1 Z" fill="none" stroke="black" stroke-width="1"/>
</svg>