<svg xmlns="http://www.w3.org/2000/svg" width="70" height="51">
  <path d="M 10,0 L 10,9 L 11,9 L 13,11 L 13,12 L 15,12 L 16,13 L 18,13 L 20,11 L 21,11 L 22,12 L 22,13 L 23,14 L 23,15 L 24,16 L 27,16 L 28,17 L 28,18 L 29,19 L 30,19 L 31,20 L 31,21 L 35,21 L 35,20 L 36,19 L 40,19 L 40,18 L 41,17 L 42,17 L 43,18 L 44,18 L 44,15 L 43,14 L 43,13 L 42,12 L 42,11 L 41,10 L 41,9 L 40,8 L 40,5 L 39,4 L 39,3 L 38,3 L 37,4 L 34,4 L 33,5 L 31,5 L 30,4 L 25,4 L 24,3 L 21,3 L 20,2 L 13,2 L 12,1 L 11,1 Z" fill="none" stroke="black" stroke-width="1"/>
</svg>