<svg xmlns="http://www.w3.org/2000/svg" width="60" height="93">
  <path d="M 1,42 L 1,44 L 0,45 L 0,48 L 1,48 L 2,49 L 2,51 L 3,51 L 4,52 L 4,53 L 5,54 L 5,58 L 4,59 L 4,60 L 5,61 L 5,63 L 4,64 L 4,68 L 5,69 L 5,74 L 4,75 L 4,76 L 6,76 L 8,78 L 10,78 L 10,74 L 12,72 L 14,72 L 15,71 L 15,67 L 17,65 L 19,65 L 19,63 L 20,62 L 21,62 L 22,61 L 22,60 L 23,59 L 23,57 L 24,56 L 24,54 L 25,53 L 25,48 L 20,48 L 19,47 L 19,46 L 20,45 L 20,44 L 19,43 L 16,43 L 15,44 L 15,45 L 14,46 L 12,46 L 11,45 L 7,45 L 5,43 L 4,43 L 3,42 Z" fill="none" stroke="black" stroke-width="1"/>
</svg>