<svg xmlns="http://www.w3.org/2000/svg" width="56" height="59">
  <path d="M 26,0 L 25,1 L 24,1 L 23,2 L 21,2 L 20,3 L 17,3 L 15,5 L 15,10 L 14,11 L 14,16 L 13,17 L 13,18 L 14,19 L 12,21 L 13,22 L 14,22 L 17,25 L 17,26 L 18,27 L 18,31 L 20,31 L 21,32 L 21,33 L 27,33 L 27,32 L 28,31 L 34,31 L 34,29 L 35,28 L 35,27 L 36,26 L 37,26 L 38,27 L 38,28 L 42,28 L 42,25 L 44,23 L 44,22 L 47,19 L 47,16 L 46,16 L 43,13 L 43,8 L 44,7 L 44,5 L 45,4 L 44,3 L 43,3 L 42,4 L 34,4 L 33,3 L 33,2 L 31,0 Z" fill="none" stroke="black" stroke-width="1"/>
</svg>