<svg xmlns="http://www.w3.org/2000/svg" width="67" height="50">
  <path d="M 24,22 L 24,23 L 20,27 L 19,27 L 17,25 L 16,25 L 16,26 L 15,27 L 11,27 L 11,28 L 10,29 L 3,29 L 6,32 L 6,38 L 5,39 L 5,41 L 6,41 L 7,42 L 8,42 L 9,43 L 10,43 L 11,44 L 11,45 L 12,45 L 13,46 L 14,46 L 15,45 L 16,45 L 17,46 L 18,45 L 19,45 L 20,44 L 21,44 L 23,42 L 24,43 L 25,42 L 27,42 L 28,41 L 29,41 L 30,42 L 31,42 L 31,39 L 34,36 L 34,32 L 36,30 L 36,25 L 34,23 L 34,22 L 33,22 L 32,23 L 27,23 L 26,22 Z" fill="none" stroke="black" stroke-width="1"/>
</svg>