<svg xmlns="http://www.w3.org/2000/svg" width="70" height="51">
  <path d="M 10,21 L 10,22 L 9,23 L 5,23 L 4,22 L 2,22 L 2,24 L 1,25 L 1,27 L 0,28 L 1,29 L 1,31 L 3,31 L 5,33 L 5,36 L 6,37 L 6,38 L 8,38 L 11,41 L 14,41 L 15,42 L 15,43 L 16,44 L 16,45 L 17,45 L 19,47 L 20,47 L 21,48 L 21,49 L 22,49 L 23,50 L 26,50 L 28,48 L 29,48 L 30,47 L 33,47 L 33,41 L 34,40 L 34,36 L 33,36 L 32,35 L 32,34 L 31,34 L 30,33 L 24,33 L 22,31 L 18,31 L 17,30 L 17,27 L 16,27 L 15,26 L 15,23 L 14,23 L 13,22 L 11,22 Z" fill="none" stroke="black" stroke-width="1"/>
</svg>