<svg xmlns="http://www.w3.org/2000/svg" width="72" height="62">
  <path d="M 18,0 L 18,2 L 17,3 L 17,4 L 16,5 L 16,6 L 15,7 L 15,9 L 14,10 L 14,12 L 13,13 L 14,14 L 14,16 L 13,17 L 10,17 L 9,18 L 7,18 L 4,21 L 4,23 L 3,24 L 1,24 L 0,25 L 0,29 L 2,29 L 3,28 L 5,28 L 6,27 L 7,27 L 8,26 L 13,26 L 16,29 L 16,30 L 24,30 L 26,28 L 26,25 L 28,23 L 33,23 L 35,21 L 36,21 L 37,20 L 37,19 L 38,18 L 38,16 L 37,16 L 35,14 L 34,14 L 33,13 L 33,12 L 32,11 L 32,10 L 29,10 L 26,7 L 24,7 L 23,6 L 23,5 L 22,4 L 22,1 L 21,0 Z" fill="none" stroke="black" stroke-width="1"/>
</svg>