<svg xmlns="http://www.w3.org/2000/svg" width="78" height="57">
  <path d="M 27,8 L 25,10 L 25,14 L 21,18 L 20,18 L 20,20 L 19,21 L 18,21 L 18,23 L 20,25 L 20,26 L 22,26 L 23,27 L 24,27 L 25,28 L 26,28 L 28,30 L 28,31 L 31,31 L 33,33 L 33,34 L 34,35 L 34,37 L 35,38 L 37,38 L 38,39 L 42,39 L 44,41 L 46,41 L 47,40 L 48,40 L 49,39 L 49,36 L 50,35 L 51,35 L 50,34 L 50,33 L 47,30 L 47,28 L 46,28 L 44,26 L 44,24 L 43,23 L 42,23 L 41,22 L 41,19 L 39,17 L 39,16 L 38,15 L 39,14 L 39,13 L 36,10 L 35,10 L 34,9 L 29,9 L 28,8 Z" fill="none" stroke="black" stroke-width="1"/>
</svg>