<svg xmlns="http://www.w3.org/2000/svg" width="100" height="84">
  <path d="M 27,49 L 26,50 L 23,50 L 23,51 L 21,53 L 19,53 L 18,52 L 15,52 L 15,55 L 14,56 L 14,58 L 15,59 L 15,60 L 18,63 L 18,69 L 19,69 L 21,71 L 21,76 L 22,77 L 22,83 L 26,83 L 27,82 L 28,82 L 28,81 L 29,80 L 29,79 L 30,78 L 31,78 L 31,77 L 34,74 L 34,73 L 35,72 L 36,72 L 38,70 L 38,69 L 39,68 L 39,67 L 40,66 L 40,61 L 38,59 L 38,55 L 37,54 L 36,54 L 35,53 L 35,52 L 34,51 L 31,51 L 30,50 L 29,50 L 28,49 Z" fill="none" stroke="black" stroke-width="1"/>
</svg>