<svg xmlns="http://www.w3.org/2000/svg" width="135" height="85">
  <path d="M 102,11 L 102,14 L 101,15 L 101,16 L 97,20 L 97,21 L 95,23 L 94,23 L 93,24 L 89,24 L 87,22 L 85,22 L 85,23 L 86,24 L 86,25 L 87,25 L 88,26 L 88,28 L 89,29 L 89,30 L 92,33 L 92,34 L 93,35 L 93,36 L 96,39 L 96,42 L 98,44 L 98,46 L 99,46 L 101,48 L 104,48 L 105,47 L 106,47 L 106,46 L 107,45 L 110,45 L 111,44 L 112,44 L 112,43 L 113,42 L 114,42 L 114,39 L 117,36 L 123,36 L 124,35 L 124,33 L 125,32 L 125,31 L 128,28 L 129,28 L 130,27 L 131,27 L 131,24 L 132,23 L 132,21 L 133,20 L 133,19 L 134,18 L 134,17 L 131,17 L 130,16 L 126,16 L 125,15 L 122,15 L 120,13 L 117,13 L 116,14 L 108,14 L 106,12 L 104,12 L 103,11 Z" fill="none" stroke="black" stroke-width="1"/>
</svg>