<svg xmlns="http://www.w3.org/2000/svg" width="135" height="85">
  <path d="M 35,46 L 33,48 L 31,48 L 30,49 L 30,50 L 29,51 L 22,51 L 22,55 L 23,56 L 24,56 L 25,57 L 26,57 L 28,59 L 28,62 L 27,63 L 25,63 L 25,67 L 28,70 L 28,71 L 31,74 L 31,75 L 32,76 L 32,78 L 33,79 L 35,79 L 39,83 L 39,84 L 40,83 L 45,83 L 46,84 L 49,81 L 52,81 L 53,80 L 54,80 L 55,79 L 55,78 L 59,74 L 60,74 L 61,73 L 62,73 L 63,72 L 63,70 L 61,68 L 61,67 L 59,65 L 59,63 L 57,61 L 56,61 L 55,60 L 51,60 L 50,59 L 48,59 L 47,58 L 46,58 L 45,57 L 44,57 L 40,53 L 40,52 L 39,52 L 37,50 L 37,47 L 36,47 Z" fill="none" stroke="black" stroke-width="1"/>
</svg>