<svg xmlns="http://www.w3.org/2000/svg" width="100" height="84">
  <path d="M 57,19 L 55,21 L 55,22 L 54,23 L 53,23 L 52,22 L 46,22 L 46,23 L 45,24 L 45,26 L 44,27 L 44,34 L 43,35 L 43,38 L 42,39 L 42,40 L 41,41 L 41,42 L 40,43 L 40,46 L 41,47 L 41,49 L 40,50 L 38,50 L 37,51 L 35,51 L 36,52 L 36,53 L 37,53 L 39,55 L 39,59 L 40,60 L 41,60 L 42,59 L 44,59 L 45,58 L 46,58 L 50,54 L 55,54 L 57,52 L 57,51 L 58,50 L 59,50 L 60,49 L 61,49 L 62,50 L 62,51 L 63,51 L 65,53 L 67,51 L 67,50 L 70,47 L 70,37 L 69,37 L 67,35 L 67,32 L 66,31 L 66,27 L 67,26 L 67,24 L 66,25 L 64,25 L 63,24 L 60,24 L 59,23 L 59,22 L 57,20 Z" fill="none" stroke="black" stroke-width="1"/>
</svg>