<svg xmlns="http://www.w3.org/2000/svg" width="100" height="84">
  <path d="M 37,24 L 36,25 L 34,25 L 33,26 L 31,26 L 30,27 L 28,27 L 27,28 L 26,28 L 25,29 L 24,29 L 21,32 L 21,33 L 19,35 L 18,35 L 17,36 L 14,36 L 11,39 L 10,38 L 5,38 L 3,40 L 2,40 L 1,41 L 1,46 L 0,47 L 0,52 L 1,53 L 1,55 L 2,56 L 2,57 L 4,59 L 4,61 L 5,61 L 6,60 L 7,60 L 8,59 L 9,59 L 10,58 L 11,58 L 14,55 L 14,52 L 15,51 L 18,51 L 19,52 L 21,52 L 22,51 L 22,50 L 23,49 L 26,49 L 27,48 L 28,48 L 29,49 L 30,49 L 31,50 L 37,50 L 38,49 L 40,49 L 40,47 L 39,46 L 39,43 L 40,42 L 40,41 L 41,40 L 41,39 L 42,38 L 42,35 L 43,34 L 43,27 L 44,26 L 44,25 L 40,25 L 39,24 Z" fill="none" stroke="black" stroke-width="1"/>
</svg>