<svg xmlns="http://www.w3.org/2000/svg" width="77" height="108">
  <path d="M 19,70 L 18,71 L 17,71 L 15,73 L 15,74 L 14,75 L 14,77 L 12,79 L 6,79 L 4,81 L 4,84 L 3,85 L 2,85 L 2,86 L 1,87 L 0,87 L 0,89 L 1,90 L 1,92 L 2,93 L 4,93 L 5,94 L 7,94 L 8,95 L 15,95 L 16,96 L 17,96 L 18,97 L 21,97 L 22,96 L 23,96 L 24,95 L 25,95 L 25,93 L 26,92 L 27,92 L 30,89 L 30,88 L 32,86 L 34,86 L 34,82 L 33,81 L 33,77 L 32,76 L 32,72 L 31,71 L 29,71 L 28,72 L 25,72 L 24,71 L 21,71 L 20,70 Z" fill="none" stroke="black" stroke-width="1"/>
</svg>