<svg xmlns="http://www.w3.org/2000/svg" width="100" height="84">
  <path d="M 72,0 L 72,1 L 71,2 L 70,2 L 69,3 L 68,3 L 68,4 L 66,6 L 63,6 L 62,7 L 61,7 L 59,9 L 59,14 L 58,15 L 58,20 L 60,22 L 60,23 L 63,23 L 64,24 L 66,24 L 67,23 L 68,24 L 68,26 L 67,27 L 67,31 L 68,32 L 68,35 L 69,36 L 70,36 L 71,37 L 71,43 L 72,43 L 74,41 L 76,41 L 77,40 L 78,40 L 82,36 L 83,36 L 83,35 L 82,34 L 82,31 L 84,29 L 86,29 L 86,27 L 87,26 L 87,25 L 90,22 L 90,21 L 91,20 L 96,20 L 97,19 L 99,19 L 99,15 L 98,14 L 98,13 L 97,12 L 97,11 L 96,10 L 94,10 L 93,9 L 92,9 L 91,8 L 84,8 L 83,7 L 81,7 L 80,6 L 78,6 L 76,4 L 76,2 L 75,1 L 75,0 Z" fill="none" stroke="black" stroke-width="1"/>
</svg>