<svg xmlns="http://www.w3.org/2000/svg" width="78" height="156">
  <path d="M 49,106 L 47,108 L 47,112 L 46,113 L 46,114 L 45,115 L 45,116 L 43,118 L 41,118 L 40,117 L 39,117 L 39,119 L 38,120 L 38,122 L 37,123 L 37,125 L 36,126 L 36,130 L 35,131 L 35,135 L 36,136 L 37,136 L 38,137 L 45,137 L 46,138 L 49,138 L 50,139 L 55,139 L 56,140 L 58,140 L 59,139 L 62,139 L 63,138 L 64,138 L 64,136 L 63,135 L 63,133 L 62,133 L 61,132 L 59,132 L 58,131 L 58,129 L 59,128 L 59,119 L 58,118 L 58,116 L 57,115 L 57,113 L 56,112 L 55,112 L 54,113 L 53,112 L 53,110 L 52,109 L 52,107 L 51,107 L 50,106 Z" fill="none" stroke="black" stroke-width="1"/>
</svg>