<svg xmlns="http://www.w3.org/2000/svg" width="77" height="108">
  <path d="M 74,23 L 74,24 L 75,25 L 76,25 L 76,24 L 75,24 Z" fill="none" stroke="black" stroke-width="1"/>
  <path d="M 65,0 L 64,1 L 63,1 L 63,3 L 61,5 L 60,5 L 59,6 L 58,6 L 57,7 L 56,7 L 56,9 L 57,10 L 57,13 L 56,14 L 56,15 L 55,16 L 55,18 L 54,19 L 54,24 L 53,25 L 53,29 L 54,30 L 55,30 L 57,32 L 58,32 L 59,33 L 64,33 L 65,34 L 66,34 L 67,35 L 67,36 L 68,35 L 68,26 L 69,25 L 70,25 L 71,24 L 71,23 L 72,22 L 72,13 L 71,12 L 71,8 L 72,7 L 72,6 L 74,4 L 74,2 L 72,2 L 71,1 L 69,1 L 68,0 Z" fill="none" stroke="black" stroke-width="1"/>
</svg>