<svg xmlns="http://www.w3.org/2000/svg" width="72" height="61">
  <path d="M 40,0 L 40,4 L 39,5 L 39,6 L 38,7 L 36,7 L 35,6 L 33,6 L 32,7 L 31,7 L 30,8 L 30,12 L 32,14 L 32,15 L 33,16 L 34,15 L 35,16 L 35,17 L 36,18 L 38,16 L 39,17 L 39,20 L 38,21 L 38,22 L 39,23 L 40,23 L 41,24 L 41,25 L 39,27 L 38,27 L 37,28 L 37,29 L 39,31 L 39,32 L 40,33 L 40,35 L 41,36 L 41,37 L 43,37 L 44,38 L 45,38 L 45,37 L 47,35 L 49,35 L 49,31 L 48,30 L 48,27 L 49,26 L 50,26 L 50,25 L 51,24 L 51,21 L 52,20 L 54,20 L 54,18 L 55,17 L 56,17 L 56,12 L 55,12 L 54,11 L 54,6 L 53,5 L 53,3 L 52,3 L 51,2 L 48,2 L 46,0 L 42,0 L 41,1 Z" fill="none" stroke="black" stroke-width="1"/>
</svg>