<svg xmlns="http://www.w3.org/2000/svg" width="81" height="52">
  <path d="M 39,27 L 38,28 L 36,28 L 35,29 L 31,29 L 30,30 L 25,30 L 24,31 L 19,31 L 16,34 L 15,34 L 15,35 L 14,36 L 12,36 L 12,37 L 13,38 L 13,40 L 14,41 L 14,43 L 15,44 L 15,45 L 16,45 L 17,46 L 19,46 L 21,48 L 29,48 L 30,47 L 33,47 L 35,49 L 38,49 L 39,50 L 43,50 L 44,51 L 48,51 L 51,48 L 51,47 L 52,46 L 52,45 L 53,44 L 53,43 L 57,39 L 57,38 L 58,37 L 58,32 L 59,31 L 56,31 L 55,30 L 53,30 L 52,29 L 50,29 L 49,28 L 45,28 L 44,27 Z" fill="none" stroke="black" stroke-width="1"/>
</svg>