<svg xmlns="http://www.w3.org/2000/svg" width="89" height="80">
  <path d="M 29,6 L 29,8 L 27,10 L 27,11 L 26,12 L 26,17 L 25,18 L 25,19 L 24,20 L 24,22 L 25,23 L 25,25 L 26,25 L 27,26 L 28,26 L 29,27 L 30,27 L 34,31 L 34,34 L 37,34 L 38,33 L 39,33 L 40,32 L 42,32 L 43,31 L 44,31 L 45,30 L 47,30 L 48,29 L 52,29 L 50,27 L 50,26 L 47,23 L 47,22 L 46,21 L 46,20 L 45,19 L 45,18 L 44,17 L 44,16 L 43,15 L 42,15 L 40,13 L 39,13 L 38,12 L 36,12 L 35,11 L 34,11 L 32,9 L 32,8 L 31,7 L 31,6 Z" fill="none" stroke="black" stroke-width="1"/>
</svg>