<svg xmlns="http://www.w3.org/2000/svg" width="69" height="90">
  <path d="M 41,7 L 41,16 L 42,17 L 42,18 L 43,19 L 43,20 L 44,21 L 44,23 L 47,23 L 50,26 L 50,31 L 51,32 L 51,41 L 50,42 L 50,43 L 49,44 L 49,47 L 53,51 L 54,51 L 55,52 L 62,52 L 63,51 L 65,51 L 66,50 L 68,50 L 68,48 L 67,47 L 67,43 L 68,42 L 68,41 L 65,38 L 65,33 L 64,32 L 64,29 L 63,29 L 62,28 L 62,27 L 61,26 L 61,23 L 60,23 L 59,22 L 59,21 L 58,20 L 58,15 L 57,14 L 57,13 L 53,9 L 51,9 L 50,8 L 49,8 L 48,7 Z" fill="none" stroke="black" stroke-width="1"/>
</svg>