<svg xmlns="http://www.w3.org/2000/svg" width="130" height="102">
  <path d="M 61,11 L 60,12 L 60,13 L 59,14 L 59,17 L 57,19 L 57,20 L 56,21 L 56,22 L 54,24 L 54,29 L 53,30 L 53,33 L 54,33 L 55,34 L 55,35 L 56,36 L 61,36 L 62,37 L 63,37 L 64,38 L 60,42 L 60,44 L 59,45 L 59,47 L 58,48 L 58,49 L 57,50 L 57,51 L 56,52 L 55,52 L 54,53 L 54,55 L 55,56 L 55,58 L 53,60 L 52,59 L 52,58 L 51,57 L 50,57 L 48,59 L 48,60 L 49,61 L 49,62 L 50,62 L 51,63 L 51,65 L 52,66 L 52,67 L 51,68 L 51,69 L 50,70 L 48,70 L 47,69 L 46,69 L 46,70 L 50,74 L 50,75 L 49,76 L 47,76 L 44,73 L 43,73 L 42,74 L 41,74 L 40,73 L 39,73 L 36,76 L 36,77 L 35,78 L 35,80 L 37,82 L 40,82 L 41,81 L 42,81 L 43,82 L 48,82 L 49,83 L 49,84 L 50,84 L 51,83 L 51,82 L 52,81 L 58,81 L 59,80 L 59,78 L 60,77 L 61,77 L 63,79 L 64,79 L 64,77 L 65,76 L 67,76 L 68,75 L 70,75 L 71,76 L 72,76 L 73,75 L 76,75 L 76,74 L 77,73 L 81,73 L 81,69 L 79,67 L 78,67 L 77,66 L 76,66 L 75,65 L 75,63 L 74,63 L 72,61 L 72,59 L 73,58 L 73,55 L 72,54 L 72,52 L 71,51 L 71,49 L 73,47 L 74,47 L 76,49 L 76,48 L 78,46 L 78,44 L 79,43 L 78,43 L 78,44 L 77,45 L 76,45 L 74,43 L 75,42 L 74,41 L 75,40 L 82,40 L 83,39 L 84,39 L 84,38 L 83,38 L 82,37 L 82,36 L 83,35 L 81,35 L 80,34 L 81,33 L 81,31 L 82,30 L 84,32 L 85,32 L 86,33 L 86,34 L 87,35 L 87,36 L 88,37 L 87,38 L 87,39 L 88,39 L 89,38 L 89,35 L 88,34 L 88,33 L 85,30 L 85,29 L 82,26 L 81,26 L 80,25 L 80,24 L 79,23 L 79,20 L 78,19 L 78,17 L 77,16 L 77,15 L 72,15 L 70,13 L 66,13 L 65,12 L 64,12 L 63,11 Z" fill="none" stroke="black" stroke-width="1"/>
</svg>