<svg xmlns="http://www.w3.org/2000/svg" width="72" height="49">
  <path d="M 25,0 L 22,3 L 21,3 L 19,5 L 14,5 L 13,6 L 11,6 L 10,7 L 8,7 L 7,8 L 7,10 L 8,11 L 8,15 L 6,17 L 5,17 L 4,18 L 2,18 L 1,17 L 0,17 L 0,21 L 1,22 L 1,23 L 2,24 L 4,24 L 6,26 L 7,26 L 7,25 L 8,24 L 13,24 L 14,23 L 19,23 L 20,24 L 20,25 L 21,25 L 22,26 L 22,27 L 25,27 L 26,28 L 26,29 L 27,30 L 28,30 L 30,32 L 34,32 L 35,33 L 35,29 L 34,28 L 34,23 L 33,22 L 33,19 L 30,19 L 28,17 L 28,12 L 29,11 L 29,9 L 30,8 L 30,5 L 32,3 L 32,2 L 31,1 L 31,0 L 30,0 L 29,1 L 27,1 L 26,0 Z" fill="none" stroke="black" stroke-width="1"/>
</svg>