<svg xmlns="http://www.w3.org/2000/svg" width="193" height="96">
  <path d="M 144,0 L 143,1 L 134,1 L 133,2 L 132,2 L 132,4 L 131,5 L 131,8 L 130,9 L 130,10 L 129,11 L 129,14 L 128,15 L 128,16 L 130,18 L 130,19 L 131,20 L 131,21 L 132,22 L 132,23 L 133,24 L 133,25 L 134,26 L 134,29 L 135,30 L 135,31 L 137,33 L 137,34 L 138,34 L 140,36 L 141,36 L 143,38 L 145,38 L 147,36 L 148,36 L 149,35 L 150,35 L 151,34 L 152,34 L 153,33 L 163,33 L 164,32 L 169,32 L 170,31 L 171,31 L 172,30 L 174,30 L 176,28 L 177,28 L 178,27 L 179,27 L 180,26 L 180,25 L 179,24 L 179,22 L 181,20 L 182,20 L 183,19 L 184,19 L 186,17 L 187,17 L 187,16 L 186,16 L 181,11 L 179,11 L 178,10 L 175,10 L 172,7 L 171,7 L 170,6 L 170,5 L 169,4 L 169,3 L 168,3 L 167,2 L 166,2 L 165,1 L 160,1 L 159,0 Z" fill="none" stroke="black" stroke-width="1"/>
</svg>