<svg xmlns="http://www.w3.org/2000/svg" width="193" height="96">
  <path d="M 180,27 L 179,28 L 178,28 L 177,29 L 176,29 L 174,31 L 172,31 L 171,32 L 170,32 L 169,33 L 164,33 L 163,34 L 153,34 L 152,35 L 151,35 L 150,36 L 149,36 L 148,37 L 147,37 L 145,39 L 144,39 L 144,40 L 143,41 L 143,42 L 142,43 L 142,47 L 143,48 L 143,49 L 144,50 L 144,52 L 145,53 L 146,53 L 147,54 L 147,58 L 148,59 L 148,68 L 149,69 L 149,70 L 150,70 L 151,71 L 151,72 L 153,74 L 153,75 L 154,76 L 155,76 L 156,77 L 156,86 L 155,87 L 155,93 L 171,93 L 173,91 L 174,91 L 177,88 L 182,88 L 182,87 L 185,84 L 186,84 L 187,83 L 187,81 L 188,80 L 188,77 L 189,76 L 189,73 L 190,72 L 190,70 L 192,68 L 192,66 L 191,65 L 190,65 L 189,64 L 189,55 L 188,54 L 188,53 L 187,52 L 187,49 L 185,47 L 185,43 L 184,42 L 184,38 L 183,37 L 183,35 L 182,34 L 182,28 L 181,27 Z" fill="none" stroke="black" stroke-width="1"/>
</svg>