<svg xmlns="http://www.w3.org/2000/svg" width="82" height="129">
  <path d="M 22,40 L 22,42 L 21,43 L 20,43 L 20,44 L 21,44 L 22,43 L 22,41 L 23,40 Z" fill="none" stroke="black" stroke-width="1"/>
  <path d="M 3,24 L 5,24 L 6,25 L 5,26 L 5,29 L 4,30 L 2,28 L 2,27 L 1,28 L 0,27 L 0,35 L 1,36 L 1,37 L 2,38 L 2,43 L 1,44 L 1,45 L 0,46 L 0,49 L 1,49 L 2,50 L 8,50 L 11,53 L 12,53 L 13,54 L 13,55 L 15,57 L 19,57 L 20,56 L 22,56 L 25,59 L 25,60 L 26,61 L 27,60 L 27,59 L 29,57 L 30,57 L 31,56 L 33,56 L 33,55 L 34,54 L 36,54 L 36,52 L 39,49 L 38,49 L 37,48 L 37,47 L 36,46 L 34,46 L 33,45 L 31,45 L 29,47 L 27,47 L 26,46 L 22,46 L 21,47 L 21,48 L 20,49 L 19,48 L 17,48 L 16,49 L 15,48 L 14,48 L 12,46 L 13,45 L 14,45 L 15,46 L 16,46 L 17,45 L 17,42 L 19,40 L 19,38 L 22,35 L 24,35 L 24,33 L 22,31 L 21,31 L 20,30 L 19,30 L 18,31 L 16,29 L 15,29 L 14,28 L 14,27 L 12,25 L 11,25 L 12,25 L 13,26 L 12,27 L 10,27 L 10,28 L 9,29 L 8,28 L 8,27 L 5,24 Z" fill="none" stroke="black" stroke-width="1"/>
</svg>