<svg xmlns="http://www.w3.org/2000/svg" width="153" height="110">
  <path d="M 90,4 L 89,5 L 89,6 L 88,7 L 88,8 L 86,10 L 82,10 L 82,11 L 81,12 L 81,14 L 80,15 L 80,16 L 79,17 L 79,23 L 80,24 L 80,27 L 81,28 L 81,34 L 83,36 L 83,37 L 84,38 L 84,42 L 85,43 L 85,45 L 84,46 L 84,49 L 85,50 L 85,52 L 86,53 L 86,54 L 87,55 L 87,57 L 86,58 L 86,60 L 87,61 L 87,62 L 90,65 L 90,67 L 92,69 L 93,69 L 95,67 L 96,67 L 97,66 L 98,66 L 99,65 L 101,65 L 102,64 L 108,64 L 110,62 L 111,62 L 112,61 L 115,61 L 116,60 L 115,59 L 115,57 L 113,55 L 113,54 L 111,54 L 108,51 L 107,51 L 106,50 L 106,49 L 103,46 L 103,45 L 101,43 L 101,41 L 100,40 L 103,37 L 103,30 L 104,29 L 105,29 L 106,28 L 109,28 L 110,27 L 111,27 L 113,25 L 116,25 L 116,23 L 115,23 L 114,22 L 113,22 L 112,21 L 112,19 L 111,18 L 111,15 L 109,13 L 109,12 L 107,10 L 105,10 L 104,11 L 100,11 L 97,8 L 97,7 L 96,7 L 93,4 Z" fill="none" stroke="black" stroke-width="1"/>
</svg>