<svg xmlns="http://www.w3.org/2000/svg" width="91" height="82">
  <path d="M 82,0 L 80,2 L 79,2 L 79,3 L 77,5 L 76,5 L 75,4 L 76,3 L 74,3 L 74,6 L 73,7 L 73,8 L 72,9 L 71,9 L 69,11 L 66,11 L 65,12 L 64,12 L 62,14 L 61,14 L 57,18 L 57,22 L 58,22 L 59,23 L 62,23 L 63,24 L 64,24 L 65,25 L 65,24 L 66,23 L 66,22 L 69,19 L 71,19 L 72,18 L 73,18 L 73,16 L 75,14 L 76,14 L 78,12 L 80,12 L 81,11 L 84,11 L 85,10 L 86,10 L 86,9 L 88,7 L 89,7 L 90,6 L 89,5 L 89,3 L 88,2 L 87,2 L 86,1 L 85,1 L 84,0 Z" fill="none" stroke="black" stroke-width="1"/>
</svg>