<svg xmlns="http://www.w3.org/2000/svg" width="102" height="63">
  <path d="M 82,30 L 82,32 L 77,37 L 76,36 L 70,36 L 69,37 L 64,37 L 60,41 L 60,42 L 59,43 L 55,43 L 53,45 L 50,45 L 50,46 L 49,47 L 49,48 L 50,49 L 50,50 L 49,51 L 48,51 L 47,50 L 47,51 L 46,52 L 49,55 L 49,56 L 51,58 L 51,59 L 54,62 L 58,62 L 59,61 L 64,61 L 65,62 L 72,62 L 73,61 L 78,61 L 79,60 L 82,60 L 83,61 L 85,61 L 85,60 L 86,59 L 88,59 L 88,58 L 89,57 L 90,57 L 90,53 L 91,52 L 92,52 L 92,48 L 91,47 L 91,46 L 92,45 L 95,45 L 96,44 L 99,44 L 99,40 L 100,39 L 101,39 L 101,36 L 98,36 L 97,37 L 92,37 L 91,36 L 88,36 L 86,34 L 84,34 L 83,33 L 83,32 L 82,31 Z" fill="none" stroke="black" stroke-width="1"/>
</svg>