<svg xmlns="http://www.w3.org/2000/svg" width="104" height="44">
  <path d="M 9,2 L 6,5 L 4,5 L 4,9 L 3,10 L 3,11 L 0,14 L 0,15 L 1,15 L 2,16 L 2,23 L 4,23 L 5,24 L 5,27 L 6,27 L 7,28 L 7,30 L 8,30 L 9,31 L 9,33 L 10,33 L 11,34 L 11,35 L 12,35 L 13,36 L 13,37 L 14,37 L 15,38 L 16,38 L 17,39 L 18,39 L 19,40 L 19,43 L 23,39 L 23,38 L 24,37 L 24,36 L 25,35 L 25,34 L 27,32 L 28,32 L 29,31 L 33,31 L 34,32 L 36,30 L 36,29 L 37,28 L 38,29 L 38,31 L 42,31 L 42,29 L 41,28 L 43,26 L 41,24 L 41,22 L 38,19 L 38,17 L 36,17 L 35,16 L 35,15 L 34,15 L 33,14 L 32,14 L 31,13 L 31,10 L 30,9 L 30,7 L 28,5 L 20,5 L 18,3 L 14,3 L 13,2 Z" fill="none" stroke="black" stroke-width="1"/>
</svg>