<svg xmlns="http://www.w3.org/2000/svg" width="153" height="110">
  <path d="M 34,11 L 33,12 L 31,12 L 31,14 L 30,15 L 22,15 L 21,16 L 20,16 L 20,20 L 19,21 L 16,21 L 15,22 L 12,22 L 12,23 L 13,24 L 13,28 L 12,29 L 11,29 L 11,33 L 10,34 L 9,34 L 9,35 L 8,36 L 6,36 L 6,41 L 5,42 L 6,43 L 7,43 L 8,44 L 9,44 L 10,45 L 10,47 L 11,47 L 12,48 L 12,49 L 11,50 L 11,51 L 12,51 L 13,52 L 17,52 L 18,51 L 19,51 L 20,50 L 21,51 L 22,51 L 23,52 L 26,52 L 29,49 L 30,49 L 32,47 L 33,47 L 34,46 L 35,46 L 36,47 L 37,47 L 38,48 L 41,48 L 42,49 L 42,50 L 46,54 L 46,57 L 47,58 L 47,59 L 52,64 L 52,65 L 55,65 L 55,64 L 56,63 L 56,61 L 55,60 L 55,56 L 56,55 L 56,51 L 57,50 L 57,48 L 56,47 L 56,45 L 53,42 L 53,41 L 52,40 L 51,40 L 50,39 L 50,37 L 51,36 L 51,31 L 49,29 L 49,25 L 47,23 L 47,22 L 49,20 L 49,18 L 48,17 L 48,16 L 46,14 L 46,13 L 42,13 L 41,12 L 41,11 Z" fill="none" stroke="black" stroke-width="1"/>
</svg>