<svg xmlns="http://www.w3.org/2000/svg" width="114" height="84">
  <path d="M 40,36 L 39,37 L 38,37 L 37,38 L 35,38 L 34,39 L 31,39 L 30,40 L 27,40 L 26,39 L 26,38 L 25,37 L 24,38 L 24,39 L 22,41 L 15,41 L 15,44 L 11,48 L 10,48 L 9,49 L 8,49 L 7,50 L 6,50 L 6,51 L 5,52 L 4,52 L 4,53 L 2,55 L 2,59 L 1,60 L 1,61 L 0,62 L 0,63 L 4,67 L 3,68 L 3,69 L 2,70 L 2,74 L 3,75 L 3,77 L 9,83 L 15,83 L 15,82 L 14,81 L 14,78 L 18,74 L 25,74 L 26,73 L 27,73 L 28,72 L 29,72 L 31,70 L 34,70 L 37,67 L 41,67 L 42,66 L 49,66 L 50,65 L 50,58 L 51,57 L 51,54 L 52,53 L 52,52 L 53,51 L 53,49 L 54,48 L 54,36 L 52,38 L 45,38 L 44,37 L 43,37 L 42,36 Z" fill="none" stroke="black" stroke-width="1"/>
</svg>