<svg xmlns="http://www.w3.org/2000/svg" width="114" height="84">
  <path d="M 107,13 L 106,14 L 101,14 L 100,15 L 93,15 L 92,14 L 87,14 L 86,15 L 82,15 L 81,14 L 80,15 L 77,15 L 76,16 L 75,16 L 75,17 L 73,19 L 73,20 L 71,22 L 69,22 L 68,23 L 66,23 L 60,29 L 59,29 L 58,30 L 58,31 L 56,33 L 56,34 L 55,35 L 55,48 L 54,49 L 54,51 L 53,52 L 53,53 L 52,54 L 52,57 L 51,58 L 51,65 L 56,65 L 57,66 L 66,66 L 67,67 L 69,67 L 69,63 L 70,62 L 71,62 L 71,59 L 72,58 L 77,58 L 78,57 L 81,57 L 81,55 L 82,54 L 96,54 L 96,53 L 97,52 L 100,52 L 100,50 L 101,49 L 104,49 L 105,50 L 105,51 L 107,51 L 108,50 L 109,50 L 110,49 L 110,48 L 109,47 L 109,46 L 108,45 L 108,41 L 107,40 L 107,27 L 108,26 L 110,26 L 110,19 L 111,18 L 112,18 L 113,17 L 113,14 L 111,14 L 110,13 Z" fill="none" stroke="black" stroke-width="1"/>
</svg>