<svg xmlns="http://www.w3.org/2000/svg" width="108" height="62">
  <path d="M 86,2 L 85,3 L 78,3 L 77,4 L 73,4 L 70,7 L 67,7 L 65,9 L 64,9 L 63,10 L 62,10 L 61,11 L 54,11 L 51,14 L 51,17 L 52,18 L 52,22 L 53,23 L 54,23 L 55,24 L 55,25 L 56,26 L 56,28 L 57,29 L 57,30 L 58,31 L 58,32 L 60,34 L 64,34 L 64,33 L 65,32 L 65,31 L 66,30 L 70,30 L 74,34 L 75,34 L 77,36 L 78,36 L 84,30 L 85,30 L 85,25 L 86,24 L 88,24 L 88,23 L 91,20 L 94,20 L 97,17 L 101,17 L 102,16 L 104,16 L 105,15 L 106,15 L 107,14 L 107,12 L 103,8 L 103,6 L 102,5 L 102,3 L 93,3 L 92,2 Z" fill="none" stroke="black" stroke-width="1"/>
</svg>