<svg xmlns="http://www.w3.org/2000/svg" width="45" height="124">
  <path d="M 30,86 L 30,87 L 28,89 L 28,91 L 23,96 L 22,96 L 21,95 L 21,92 L 20,92 L 19,93 L 19,95 L 14,100 L 13,100 L 10,103 L 7,103 L 6,104 L 6,105 L 5,106 L 5,109 L 6,110 L 6,111 L 5,112 L 5,114 L 3,116 L 2,116 L 1,117 L 0,117 L 0,119 L 1,120 L 1,121 L 2,122 L 3,122 L 4,123 L 9,123 L 9,122 L 16,115 L 16,114 L 17,113 L 17,112 L 20,109 L 20,108 L 21,107 L 23,107 L 24,106 L 24,104 L 25,103 L 25,102 L 26,101 L 27,101 L 28,100 L 28,99 L 29,98 L 29,97 L 30,96 L 30,92 L 32,90 L 32,89 L 30,87 Z" fill="none" stroke="black" stroke-width="1"/>
</svg>