<svg xmlns="http://www.w3.org/2000/svg" width="52" height="128">
  <path d="M 41,82 L 37,86 L 37,87 L 33,91 L 29,91 L 28,92 L 28,93 L 24,97 L 24,99 L 22,101 L 22,105 L 24,105 L 25,106 L 26,106 L 28,108 L 28,109 L 29,110 L 29,111 L 30,112 L 31,112 L 33,110 L 34,111 L 40,111 L 42,109 L 42,108 L 41,107 L 40,107 L 38,105 L 38,104 L 37,103 L 37,101 L 38,100 L 39,100 L 40,99 L 41,99 L 42,98 L 42,96 L 43,95 L 43,94 L 42,93 L 42,90 L 43,89 L 43,88 L 44,87 L 44,85 L 46,83 L 46,82 Z" fill="none" stroke="black" stroke-width="1"/>
</svg>