<svg xmlns="http://www.w3.org/2000/svg" width="92" height="40">
  <path d="M 78,8 L 75,11 L 74,11 L 74,12 L 72,14 L 72,15 L 71,16 L 70,16 L 70,19 L 71,20 L 72,19 L 74,19 L 75,20 L 75,21 L 74,22 L 74,24 L 73,25 L 71,25 L 71,27 L 73,29 L 73,30 L 74,31 L 74,32 L 75,33 L 75,34 L 80,39 L 80,37 L 83,34 L 85,34 L 86,35 L 86,32 L 87,31 L 88,31 L 89,30 L 89,27 L 88,26 L 88,22 L 90,20 L 91,20 L 90,20 L 88,18 L 88,17 L 87,16 L 85,16 L 84,15 L 84,14 L 83,14 L 81,12 L 81,11 Z" fill="none" stroke="black" stroke-width="1"/>
</svg>