<svg xmlns="http://www.w3.org/2000/svg" width="64" height="96">
  <path d="M 36,0 L 36,2 L 35,3 L 35,4 L 33,6 L 32,5 L 30,7 L 26,7 L 25,8 L 23,8 L 22,9 L 21,9 L 19,11 L 16,11 L 16,13 L 18,15 L 17,16 L 18,17 L 18,18 L 17,19 L 17,23 L 13,27 L 12,27 L 11,28 L 11,29 L 10,30 L 11,31 L 11,32 L 12,33 L 11,34 L 10,34 L 10,35 L 9,36 L 13,36 L 14,37 L 15,37 L 16,38 L 22,38 L 25,41 L 26,41 L 26,40 L 27,39 L 27,38 L 28,37 L 28,33 L 26,31 L 26,28 L 25,27 L 25,25 L 24,24 L 24,23 L 27,20 L 27,19 L 28,18 L 29,18 L 30,17 L 32,17 L 33,18 L 36,18 L 37,17 L 39,17 L 41,15 L 41,10 L 42,9 L 42,7 L 41,6 L 41,3 L 40,3 L 39,2 L 38,2 Z" fill="none" stroke="black" stroke-width="1"/>
</svg>