<svg xmlns="http://www.w3.org/2000/svg" width="90" height="58">
  <path d="M 17,13 L 17,14 L 16,15 L 15,15 L 14,14 L 13,14 L 12,15 L 11,15 L 10,16 L 9,16 L 8,17 L 6,17 L 5,18 L 4,18 L 1,21 L 1,25 L 0,26 L 2,28 L 2,29 L 5,29 L 7,31 L 7,33 L 8,33 L 9,34 L 10,34 L 11,35 L 11,37 L 14,37 L 16,39 L 16,42 L 19,45 L 21,45 L 21,44 L 22,43 L 25,43 L 25,42 L 27,40 L 32,40 L 33,41 L 39,41 L 39,37 L 40,36 L 40,29 L 39,28 L 39,24 L 35,24 L 34,23 L 34,22 L 32,22 L 31,23 L 30,23 L 29,22 L 28,22 L 26,20 L 26,19 L 21,19 L 20,18 L 20,13 Z" fill="none" stroke="black" stroke-width="1"/>
</svg>