<svg xmlns="http://www.w3.org/2000/svg" width="231" height="171">
  <path d="M 166,55 L 165,56 L 165,59 L 164,60 L 164,63 L 166,65 L 166,66 L 168,68 L 166,70 L 166,71 L 167,72 L 168,72 L 170,74 L 170,75 L 171,76 L 171,80 L 169,82 L 168,82 L 167,81 L 167,82 L 166,83 L 166,85 L 167,85 L 168,86 L 170,86 L 171,87 L 172,87 L 173,88 L 174,88 L 175,89 L 175,88 L 176,87 L 176,86 L 177,85 L 177,84 L 180,81 L 182,81 L 183,80 L 188,80 L 190,82 L 197,82 L 197,76 L 196,75 L 196,74 L 195,73 L 195,71 L 194,70 L 194,66 L 193,65 L 193,63 L 192,62 L 191,62 L 190,61 L 190,60 L 189,60 L 188,59 L 187,59 L 186,58 L 179,58 L 178,59 L 175,59 L 174,58 L 172,58 L 170,56 L 169,56 L 168,55 Z" fill="none" stroke="black" stroke-width="1"/>
</svg>