<svg xmlns="http://www.w3.org/2000/svg" width="231" height="171">
  <path d="M 183,81 L 182,82 L 180,82 L 178,84 L 178,85 L 177,86 L 177,87 L 176,88 L 176,90 L 177,90 L 178,91 L 179,91 L 181,93 L 182,93 L 186,97 L 186,98 L 189,101 L 189,102 L 190,103 L 190,104 L 191,105 L 191,107 L 193,109 L 193,111 L 194,111 L 195,110 L 196,110 L 197,109 L 201,109 L 201,108 L 199,106 L 199,105 L 197,103 L 197,94 L 194,91 L 194,89 L 195,88 L 195,86 L 196,85 L 196,83 L 190,83 L 188,81 Z" fill="none" stroke="black" stroke-width="1"/>
</svg>