<svg xmlns="http://www.w3.org/2000/svg" width="65" height="91">
  <path d="M 24,0 L 23,1 L 23,2 L 21,4 L 20,4 L 19,5 L 19,9 L 18,10 L 18,11 L 16,13 L 16,15 L 14,17 L 12,17 L 11,18 L 9,18 L 8,17 L 8,16 L 7,16 L 5,14 L 5,13 L 4,13 L 3,14 L 3,15 L 2,16 L 2,18 L 0,20 L 0,23 L 1,23 L 3,25 L 3,27 L 4,28 L 4,32 L 5,33 L 5,35 L 6,36 L 9,33 L 10,33 L 10,32 L 11,31 L 11,30 L 12,29 L 16,29 L 16,28 L 17,27 L 18,28 L 19,28 L 20,29 L 22,29 L 23,30 L 27,30 L 28,29 L 29,29 L 30,30 L 31,30 L 33,28 L 33,21 L 32,21 L 31,20 L 31,12 L 29,10 L 29,4 L 27,2 L 27,1 L 26,0 Z" fill="none" stroke="black" stroke-width="1"/>
</svg>