<svg xmlns="http://www.w3.org/2000/svg" width="65" height="91">
  <path d="M 40,54 L 40,55 L 39,56 L 39,58 L 38,59 L 38,60 L 36,62 L 36,68 L 35,69 L 35,70 L 34,71 L 34,73 L 33,74 L 32,74 L 32,75 L 30,77 L 28,77 L 28,80 L 27,81 L 27,82 L 30,85 L 30,86 L 32,88 L 32,90 L 33,89 L 35,89 L 38,86 L 47,86 L 48,87 L 48,86 L 50,84 L 51,84 L 54,87 L 55,87 L 56,86 L 56,84 L 58,82 L 58,81 L 59,80 L 59,79 L 58,78 L 58,76 L 56,74 L 56,73 L 55,72 L 55,70 L 54,69 L 54,62 L 53,61 L 53,60 L 49,60 L 48,59 L 47,59 L 44,56 L 44,55 L 43,55 L 42,54 Z" fill="none" stroke="black" stroke-width="1"/>
</svg>