<svg xmlns="http://www.w3.org/2000/svg" width="231" height="171">
  <path d="M 219,141 L 218,142 L 215,142 L 214,143 L 213,143 L 212,144 L 212,147 L 213,148 L 213,149 L 214,150 L 214,151 L 215,152 L 215,154 L 218,157 L 218,158 L 220,160 L 220,161 L 221,162 L 221,164 L 222,165 L 222,166 L 221,167 L 221,168 L 222,168 L 224,170 L 227,170 L 228,169 L 229,169 L 230,168 L 230,164 L 229,163 L 229,161 L 230,160 L 230,148 L 229,148 L 226,145 L 226,144 L 225,144 L 223,142 L 222,142 L 221,141 Z" fill="none" stroke="black" stroke-width="1"/>
</svg>