<svg xmlns="http://www.w3.org/2000/svg" width="61" height="79">
  <path d="M 8,2 L 5,5 L 3,5 L 2,6 L 0,6 L 0,10 L 1,11 L 1,12 L 2,13 L 1,14 L 1,18 L 2,18 L 4,20 L 5,20 L 6,21 L 6,22 L 8,24 L 9,24 L 10,25 L 10,37 L 9,38 L 9,40 L 14,40 L 15,41 L 16,41 L 16,40 L 18,38 L 19,38 L 20,37 L 22,37 L 23,36 L 25,36 L 25,35 L 24,34 L 24,32 L 23,31 L 23,25 L 21,23 L 21,22 L 20,21 L 20,20 L 19,19 L 19,17 L 18,16 L 18,11 L 19,10 L 18,9 L 18,8 L 17,7 L 17,4 L 18,3 L 17,2 Z" fill="none" stroke="black" stroke-width="1"/>
</svg>