<svg xmlns="http://www.w3.org/2000/svg" width="107" height="89">
  <path d="M 44,30 L 44,32 L 43,33 L 43,36 L 42,37 L 42,39 L 38,43 L 38,44 L 37,45 L 37,51 L 38,52 L 39,52 L 40,53 L 41,53 L 42,54 L 44,54 L 45,55 L 46,55 L 47,56 L 48,56 L 50,58 L 52,58 L 53,59 L 54,59 L 55,60 L 56,60 L 57,61 L 60,61 L 61,62 L 62,62 L 63,63 L 63,64 L 64,65 L 65,65 L 67,67 L 72,67 L 74,65 L 75,65 L 77,63 L 77,62 L 78,61 L 79,61 L 79,60 L 80,59 L 80,58 L 81,57 L 81,56 L 82,55 L 82,54 L 83,53 L 83,52 L 82,51 L 82,49 L 81,48 L 81,45 L 80,45 L 79,44 L 79,42 L 77,42 L 75,44 L 73,44 L 70,41 L 70,40 L 68,38 L 68,36 L 67,37 L 66,37 L 64,35 L 61,35 L 60,34 L 57,34 L 56,33 L 53,33 L 52,32 L 51,32 L 50,31 L 49,31 L 48,30 Z" fill="none" stroke="black" stroke-width="1"/>
</svg>