<svg xmlns="http://www.w3.org/2000/svg" width="73" height="68">
  <path d="M 47,29 L 46,30 L 46,36 L 44,38 L 41,38 L 41,42 L 40,43 L 40,44 L 36,48 L 36,50 L 35,51 L 35,52 L 34,53 L 34,54 L 35,55 L 38,55 L 39,56 L 42,56 L 44,58 L 45,58 L 46,57 L 47,58 L 47,60 L 49,62 L 49,63 L 51,65 L 53,65 L 55,63 L 57,63 L 58,64 L 58,66 L 59,66 L 60,67 L 60,65 L 61,64 L 61,62 L 62,61 L 65,61 L 66,60 L 70,60 L 72,58 L 72,55 L 71,54 L 70,54 L 64,48 L 64,45 L 63,44 L 63,38 L 62,38 L 61,37 L 60,37 L 59,36 L 57,36 L 55,34 L 55,33 L 54,32 L 54,31 L 52,29 Z" fill="none" stroke="black" stroke-width="1"/>
</svg>