<svg xmlns="http://www.w3.org/2000/svg" width="89" height="34">
  <path d="M 17,0 L 17,3 L 18,3 L 19,4 L 18,5 L 17,5 L 16,6 L 14,6 L 13,7 L 12,7 L 11,8 L 9,8 L 8,9 L 7,9 L 6,10 L 5,10 L 4,11 L 3,11 L 1,13 L 0,13 L 0,15 L 7,15 L 11,19 L 12,18 L 13,18 L 14,19 L 15,19 L 16,20 L 16,21 L 18,21 L 19,20 L 20,20 L 21,19 L 22,19 L 23,18 L 24,18 L 25,17 L 30,17 L 31,16 L 36,16 L 37,15 L 39,15 L 40,14 L 41,14 L 42,13 L 42,10 L 40,8 L 40,7 L 39,7 L 37,5 L 37,4 L 36,3 L 36,2 L 35,1 L 34,1 L 34,2 L 35,3 L 35,4 L 36,5 L 36,6 L 39,9 L 39,10 L 41,12 L 40,13 L 39,13 L 37,11 L 37,10 L 36,9 L 35,9 L 33,7 L 32,7 L 31,6 L 32,5 L 32,4 L 30,6 L 28,4 L 28,3 L 26,3 L 25,4 L 23,2 L 22,3 L 21,2 L 19,2 L 18,1 L 18,0 Z" fill="none" stroke="black" stroke-width="1"/>
</svg>