<svg xmlns="http://www.w3.org/2000/svg" width="116" height="84">
  <path d="M 51,10 L 50,11 L 45,11 L 44,12 L 43,12 L 40,15 L 39,15 L 38,16 L 37,16 L 36,17 L 34,17 L 32,19 L 31,19 L 28,22 L 27,22 L 27,24 L 26,25 L 19,25 L 18,26 L 16,26 L 15,27 L 4,27 L 3,28 L 3,36 L 2,37 L 2,38 L 1,39 L 1,40 L 0,41 L 0,46 L 8,46 L 9,47 L 10,47 L 11,48 L 13,48 L 14,47 L 15,47 L 17,45 L 19,45 L 20,46 L 20,52 L 21,52 L 22,53 L 23,53 L 24,54 L 26,54 L 27,55 L 29,55 L 30,56 L 31,56 L 33,58 L 34,58 L 38,62 L 38,64 L 40,66 L 45,66 L 45,65 L 46,64 L 46,62 L 47,61 L 47,49 L 46,48 L 46,46 L 47,45 L 49,45 L 49,39 L 50,38 L 52,38 L 52,36 L 53,35 L 54,35 L 54,31 L 55,30 L 56,30 L 56,15 L 58,13 L 58,12 L 59,11 L 59,10 Z" fill="none" stroke="black" stroke-width="1"/>
</svg>