<svg xmlns="http://www.w3.org/2000/svg" width="123" height="103">
  <path d="M 48,55 L 47,56 L 46,56 L 45,57 L 43,57 L 42,58 L 41,58 L 40,59 L 43,62 L 43,63 L 44,64 L 44,67 L 45,68 L 45,70 L 44,71 L 44,72 L 43,73 L 43,75 L 42,76 L 42,77 L 41,78 L 41,79 L 39,81 L 39,82 L 38,83 L 38,86 L 37,87 L 37,92 L 42,92 L 43,93 L 43,96 L 45,96 L 46,97 L 46,100 L 49,100 L 51,102 L 53,102 L 55,100 L 57,100 L 61,96 L 62,96 L 63,95 L 63,92 L 65,90 L 65,88 L 66,87 L 66,81 L 67,80 L 67,79 L 68,78 L 68,77 L 67,76 L 67,72 L 66,71 L 66,70 L 56,60 L 55,60 L 54,59 L 53,59 L 52,58 L 51,58 Z" fill="none" stroke="black" stroke-width="1"/>
</svg>