<svg xmlns="http://www.w3.org/2000/svg" width="93" height="100">
  <path d="M 59,42 L 58,43 L 58,44 L 55,47 L 55,51 L 53,53 L 51,53 L 50,54 L 49,54 L 48,55 L 48,57 L 46,59 L 44,59 L 43,60 L 42,60 L 42,63 L 41,64 L 41,69 L 42,70 L 42,73 L 47,73 L 48,72 L 50,72 L 51,71 L 53,71 L 54,72 L 58,72 L 59,73 L 61,73 L 62,74 L 64,74 L 65,75 L 66,75 L 68,77 L 74,77 L 75,76 L 76,76 L 76,74 L 77,73 L 77,69 L 78,68 L 78,65 L 77,64 L 77,60 L 76,59 L 76,58 L 75,57 L 75,54 L 74,53 L 74,47 L 73,46 L 71,46 L 69,48 L 67,48 L 65,46 L 62,46 L 61,45 L 61,42 Z" fill="none" stroke="black" stroke-width="1"/>
</svg>