<svg xmlns="http://www.w3.org/2000/svg" width="124" height="88">
  <path d="M 56,0 L 54,2 L 54,3 L 53,4 L 53,5 L 52,6 L 50,6 L 49,7 L 47,7 L 44,10 L 43,9 L 42,9 L 41,8 L 40,9 L 37,9 L 36,8 L 35,9 L 35,14 L 36,15 L 36,17 L 37,18 L 37,19 L 36,20 L 36,21 L 35,22 L 35,24 L 34,25 L 34,26 L 36,26 L 37,27 L 41,27 L 42,26 L 43,27 L 45,27 L 46,28 L 48,28 L 49,29 L 49,30 L 51,32 L 51,33 L 53,35 L 53,39 L 51,41 L 51,44 L 54,47 L 54,50 L 56,52 L 57,52 L 58,53 L 58,54 L 59,55 L 63,55 L 64,54 L 66,54 L 66,49 L 67,48 L 67,47 L 71,43 L 71,41 L 72,40 L 72,37 L 76,33 L 76,32 L 77,31 L 77,21 L 78,20 L 78,18 L 79,17 L 79,15 L 75,11 L 75,10 L 71,10 L 69,8 L 66,8 L 65,9 L 63,9 L 58,4 L 58,3 L 57,2 L 57,0 Z" fill="none" stroke="black" stroke-width="1"/>
</svg>