<svg xmlns="http://www.w3.org/2000/svg" width="105" height="94">
  <path d="M 52,0 L 50,2 L 48,2 L 48,4 L 47,5 L 44,5 L 44,8 L 43,9 L 43,10 L 42,11 L 37,11 L 37,14 L 36,15 L 35,15 L 32,18 L 31,18 L 29,20 L 29,27 L 28,28 L 28,31 L 27,32 L 27,43 L 26,44 L 26,45 L 24,47 L 24,50 L 25,51 L 25,57 L 24,58 L 24,60 L 25,61 L 30,61 L 31,60 L 32,61 L 35,61 L 36,60 L 37,61 L 38,61 L 39,62 L 42,59 L 44,59 L 45,58 L 47,58 L 47,57 L 48,56 L 48,55 L 50,53 L 50,46 L 48,44 L 48,43 L 47,42 L 47,32 L 46,31 L 46,30 L 47,29 L 47,27 L 49,25 L 50,25 L 51,24 L 54,24 L 55,23 L 58,23 L 59,22 L 59,18 L 58,17 L 58,15 L 57,14 L 57,12 L 56,11 L 56,8 L 55,7 L 55,5 L 52,2 Z" fill="none" stroke="black" stroke-width="1"/>
</svg>