<svg xmlns="http://www.w3.org/2000/svg" width="93" height="100">
  <path d="M 51,72 L 50,73 L 48,73 L 47,74 L 42,74 L 41,75 L 41,84 L 40,85 L 39,85 L 38,86 L 37,86 L 37,89 L 40,92 L 40,94 L 43,94 L 44,95 L 49,95 L 50,96 L 53,96 L 54,97 L 55,97 L 56,98 L 65,98 L 66,99 L 67,99 L 68,98 L 68,97 L 70,95 L 73,95 L 74,96 L 77,96 L 78,97 L 82,97 L 83,96 L 83,93 L 84,92 L 84,87 L 86,85 L 89,85 L 90,84 L 92,84 L 92,82 L 91,81 L 91,80 L 90,79 L 90,77 L 89,77 L 87,75 L 85,75 L 84,76 L 82,76 L 81,77 L 75,77 L 74,78 L 68,78 L 66,76 L 65,76 L 64,75 L 62,75 L 61,74 L 59,74 L 58,73 L 54,73 L 53,72 Z" fill="none" stroke="black" stroke-width="1"/>
</svg>