<svg xmlns="http://www.w3.org/2000/svg" width="105" height="94">
  <path d="M 12,15 L 11,16 L 10,16 L 8,18 L 5,18 L 3,20 L 1,20 L 1,21 L 2,22 L 2,27 L 1,28 L 1,45 L 3,47 L 3,52 L 2,53 L 2,55 L 1,56 L 1,70 L 2,71 L 2,75 L 0,77 L 0,82 L 2,84 L 2,87 L 4,87 L 7,90 L 7,91 L 9,93 L 14,93 L 15,92 L 17,92 L 19,90 L 19,88 L 20,87 L 20,86 L 23,83 L 25,83 L 27,81 L 27,80 L 28,79 L 28,78 L 29,77 L 29,75 L 30,74 L 30,73 L 31,72 L 31,71 L 30,70 L 30,68 L 29,67 L 29,62 L 25,62 L 23,60 L 23,58 L 24,57 L 24,51 L 23,50 L 23,47 L 25,45 L 25,44 L 26,43 L 26,32 L 27,31 L 27,28 L 28,27 L 28,21 L 25,21 L 24,22 L 21,22 L 20,21 L 19,21 L 18,20 L 18,15 Z" fill="none" stroke="black" stroke-width="1"/>
</svg>