<svg xmlns="http://www.w3.org/2000/svg" width="53" height="208">
  <path d="M 43,58 L 41,60 L 41,61 L 38,64 L 37,64 L 36,65 L 34,65 L 33,66 L 22,66 L 21,67 L 20,67 L 19,68 L 19,70 L 18,71 L 18,77 L 17,78 L 17,93 L 28,93 L 29,92 L 30,92 L 31,91 L 31,90 L 34,87 L 35,87 L 36,86 L 38,86 L 40,84 L 43,84 L 45,82 L 46,82 L 47,81 L 52,81 L 52,78 L 51,77 L 51,76 L 50,75 L 50,71 L 49,70 L 49,66 L 48,65 L 48,63 L 47,62 L 47,61 L 46,60 L 46,59 L 45,59 L 44,58 Z" fill="none" stroke="black" stroke-width="1"/>
</svg>