<svg xmlns="http://www.w3.org/2000/svg" width="89" height="34">
  <path d="M 58,13 L 57,14 L 55,14 L 54,15 L 51,15 L 50,16 L 48,16 L 47,17 L 45,17 L 44,16 L 43,17 L 42,16 L 37,16 L 36,17 L 31,17 L 34,20 L 33,21 L 33,22 L 32,23 L 30,23 L 30,24 L 29,25 L 29,26 L 28,27 L 28,29 L 27,30 L 27,31 L 28,30 L 28,29 L 31,26 L 34,26 L 35,25 L 38,25 L 39,26 L 40,25 L 40,24 L 41,23 L 42,23 L 45,20 L 49,20 L 50,21 L 51,21 L 52,22 L 53,22 L 54,21 L 58,21 L 59,22 L 60,22 L 61,21 L 61,19 L 60,18 L 61,17 L 61,16 L 62,15 L 63,15 L 63,14 L 59,14 Z" fill="none" stroke="black" stroke-width="1"/>
</svg>