<svg xmlns="http://www.w3.org/2000/svg" width="53" height="208">
  <path d="M 34,88 L 32,90 L 32,91 L 30,93 L 29,93 L 28,94 L 16,94 L 15,95 L 14,95 L 13,94 L 13,99 L 12,100 L 12,103 L 13,102 L 14,102 L 16,104 L 15,105 L 15,106 L 14,107 L 14,115 L 13,116 L 13,126 L 14,127 L 14,131 L 15,132 L 15,134 L 14,135 L 14,136 L 13,137 L 13,138 L 12,139 L 12,141 L 17,141 L 18,140 L 19,140 L 19,139 L 20,138 L 22,138 L 24,136 L 25,136 L 25,135 L 27,133 L 28,133 L 30,131 L 31,132 L 34,132 L 35,131 L 35,123 L 36,122 L 36,120 L 37,119 L 37,114 L 35,112 L 35,95 L 36,94 L 36,89 L 35,88 Z" fill="none" stroke="black" stroke-width="1"/>
</svg>