<svg xmlns="http://www.w3.org/2000/svg" width="124" height="88">
  <path d="M 81,7 L 80,8 L 79,8 L 77,10 L 76,10 L 76,11 L 80,15 L 80,17 L 79,18 L 79,20 L 78,21 L 78,31 L 77,32 L 77,33 L 73,37 L 73,40 L 72,41 L 72,43 L 68,47 L 68,48 L 67,49 L 67,69 L 68,70 L 68,77 L 70,79 L 79,79 L 80,80 L 82,80 L 83,81 L 86,81 L 87,82 L 89,82 L 90,83 L 91,83 L 92,84 L 93,84 L 94,85 L 109,85 L 110,86 L 113,86 L 114,87 L 116,87 L 117,86 L 120,86 L 121,85 L 122,85 L 122,84 L 123,83 L 123,78 L 122,77 L 122,75 L 118,75 L 117,74 L 117,72 L 116,71 L 115,71 L 114,70 L 112,70 L 111,69 L 111,68 L 110,67 L 110,66 L 109,66 L 108,65 L 108,61 L 106,61 L 105,60 L 105,57 L 104,57 L 103,56 L 103,53 L 97,53 L 96,54 L 93,54 L 92,53 L 92,50 L 91,49 L 91,42 L 90,41 L 90,29 L 89,28 L 89,18 L 88,17 L 88,16 L 87,15 L 87,11 L 85,9 L 85,8 L 84,8 L 83,7 L 82,8 Z" fill="none" stroke="black" stroke-width="1"/>
</svg>