<svg xmlns="http://www.w3.org/2000/svg" width="103" height="114">
  <path d="M 13,0 L 13,2 L 12,3 L 12,12 L 9,15 L 9,18 L 11,20 L 15,20 L 16,21 L 17,21 L 18,22 L 20,22 L 21,23 L 26,23 L 28,25 L 38,25 L 41,28 L 41,29 L 42,30 L 42,33 L 43,34 L 43,35 L 48,40 L 49,40 L 52,37 L 53,37 L 54,36 L 54,34 L 55,33 L 55,32 L 56,31 L 59,31 L 61,29 L 61,27 L 62,26 L 62,23 L 64,21 L 66,21 L 66,18 L 67,17 L 67,14 L 65,12 L 64,12 L 62,10 L 61,10 L 60,9 L 56,9 L 55,8 L 54,8 L 53,7 L 53,4 L 52,3 L 52,2 L 51,1 L 50,1 L 49,0 L 44,0 L 44,1 L 43,2 L 42,2 L 41,1 L 30,1 L 29,2 L 21,2 L 20,3 L 19,3 L 18,2 L 17,2 L 16,1 L 15,1 L 14,0 Z" fill="none" stroke="black" stroke-width="1"/>
</svg>