<svg xmlns="http://www.w3.org/2000/svg" width="103" height="114">
  <path d="M 78,15 L 74,19 L 71,19 L 68,16 L 68,17 L 67,18 L 67,21 L 66,22 L 64,22 L 63,23 L 63,26 L 62,27 L 62,29 L 59,32 L 56,32 L 56,33 L 55,34 L 55,36 L 53,38 L 52,38 L 49,41 L 49,46 L 50,47 L 50,56 L 51,57 L 51,58 L 53,60 L 53,61 L 56,64 L 57,64 L 58,65 L 61,65 L 62,66 L 63,66 L 64,67 L 65,67 L 66,68 L 69,68 L 70,69 L 72,69 L 74,71 L 76,71 L 77,72 L 81,72 L 82,71 L 81,70 L 81,66 L 80,65 L 80,63 L 79,62 L 79,59 L 78,58 L 78,56 L 77,55 L 77,51 L 80,48 L 81,48 L 81,47 L 85,43 L 87,43 L 87,38 L 88,37 L 88,36 L 92,32 L 92,31 L 93,30 L 93,29 L 96,26 L 96,25 L 98,23 L 99,23 L 100,22 L 101,22 L 102,21 L 101,21 L 100,20 L 98,20 L 97,19 L 94,19 L 93,18 L 91,18 L 90,17 L 81,17 L 79,15 Z" fill="none" stroke="black" stroke-width="1"/>
</svg>