<svg xmlns="http://www.w3.org/2000/svg" width="103" height="114">
  <path d="M 8,19 L 8,23 L 7,24 L 7,26 L 6,27 L 6,28 L 5,29 L 5,30 L 4,31 L 2,31 L 2,32 L 1,33 L 1,35 L 2,36 L 2,37 L 3,38 L 3,42 L 1,44 L 1,45 L 0,46 L 0,47 L 2,49 L 2,54 L 3,55 L 3,59 L 5,59 L 6,58 L 9,58 L 10,59 L 13,59 L 14,58 L 20,58 L 21,57 L 23,57 L 24,56 L 37,56 L 38,55 L 39,55 L 40,56 L 41,56 L 42,57 L 45,57 L 46,56 L 49,56 L 49,47 L 48,46 L 48,41 L 42,35 L 42,34 L 41,33 L 41,30 L 40,29 L 40,28 L 38,26 L 28,26 L 26,24 L 21,24 L 20,23 L 18,23 L 17,22 L 16,22 L 15,21 L 11,21 L 9,19 Z" fill="none" stroke="black" stroke-width="1"/>
</svg>