<svg xmlns="http://www.w3.org/2000/svg" width="117" height="124">
  <path d="M 24,10 L 23,11 L 22,11 L 21,12 L 20,12 L 19,13 L 19,14 L 16,17 L 16,18 L 15,19 L 15,20 L 11,24 L 11,25 L 10,26 L 10,31 L 9,32 L 7,32 L 4,35 L 4,36 L 3,37 L 2,37 L 0,39 L 0,43 L 1,44 L 1,46 L 2,47 L 2,50 L 3,51 L 3,53 L 4,54 L 4,58 L 5,59 L 3,61 L 3,64 L 15,64 L 16,63 L 18,63 L 20,65 L 21,65 L 22,64 L 22,60 L 24,58 L 25,59 L 26,59 L 27,60 L 29,60 L 31,62 L 32,62 L 33,63 L 34,63 L 35,64 L 36,64 L 40,68 L 40,69 L 41,70 L 41,71 L 42,71 L 43,72 L 44,72 L 45,73 L 46,73 L 49,70 L 49,69 L 50,68 L 50,59 L 52,57 L 52,56 L 51,55 L 51,53 L 50,52 L 50,49 L 51,48 L 51,44 L 53,42 L 53,41 L 54,40 L 54,39 L 55,38 L 55,36 L 56,35 L 56,27 L 57,26 L 57,25 L 58,24 L 59,24 L 61,22 L 61,20 L 59,18 L 58,18 L 56,16 L 56,15 L 55,14 L 55,11 L 54,11 L 53,12 L 50,12 L 49,13 L 47,13 L 46,12 L 43,12 L 42,11 L 27,11 L 26,10 Z" fill="none" stroke="black" stroke-width="1"/>
</svg>