<svg xmlns="http://www.w3.org/2000/svg" width="103" height="114">
  <path d="M 55,64 L 55,73 L 57,75 L 57,78 L 58,78 L 60,80 L 60,83 L 61,84 L 61,90 L 62,91 L 62,96 L 64,96 L 65,97 L 65,107 L 64,108 L 64,111 L 66,111 L 67,112 L 68,112 L 69,113 L 74,113 L 75,112 L 80,112 L 81,111 L 81,108 L 82,107 L 83,107 L 83,106 L 84,105 L 84,86 L 85,85 L 85,83 L 87,81 L 87,77 L 81,77 L 80,76 L 80,73 L 77,73 L 76,72 L 74,72 L 72,70 L 70,70 L 69,69 L 66,69 L 65,68 L 64,68 L 63,67 L 62,67 L 61,66 L 58,66 L 57,65 L 56,65 Z" fill="none" stroke="black" stroke-width="1"/>
</svg>