<svg xmlns="http://www.w3.org/2000/svg" width="117" height="124">
  <path d="M 82,0 L 82,8 L 81,9 L 81,14 L 79,16 L 71,16 L 70,17 L 68,17 L 65,20 L 62,20 L 62,22 L 59,25 L 58,25 L 58,26 L 57,27 L 57,35 L 56,36 L 56,38 L 55,39 L 55,40 L 54,41 L 54,42 L 52,44 L 52,48 L 51,49 L 51,52 L 52,53 L 52,55 L 53,56 L 53,57 L 54,58 L 57,58 L 58,59 L 59,59 L 61,61 L 67,61 L 68,60 L 71,60 L 72,61 L 73,61 L 74,62 L 74,64 L 73,65 L 73,67 L 74,68 L 74,69 L 76,69 L 77,70 L 77,72 L 78,72 L 79,73 L 79,74 L 82,74 L 83,75 L 83,76 L 84,77 L 85,77 L 86,78 L 89,78 L 90,79 L 90,80 L 95,80 L 95,78 L 96,77 L 96,76 L 97,75 L 97,74 L 98,73 L 99,73 L 100,72 L 100,64 L 101,63 L 102,63 L 104,61 L 106,61 L 107,60 L 108,60 L 108,58 L 109,57 L 109,53 L 108,53 L 107,52 L 107,46 L 106,45 L 106,41 L 105,40 L 106,39 L 107,39 L 107,38 L 108,37 L 109,37 L 109,35 L 108,34 L 108,27 L 107,26 L 107,24 L 108,23 L 109,23 L 109,20 L 110,19 L 110,18 L 111,17 L 113,17 L 115,15 L 116,15 L 116,14 L 113,11 L 111,11 L 110,12 L 109,12 L 107,10 L 106,10 L 103,7 L 102,7 L 101,6 L 98,6 L 95,3 L 89,3 L 88,2 L 87,2 L 85,0 Z" fill="none" stroke="black" stroke-width="1"/>
</svg>