<svg xmlns="http://www.w3.org/2000/svg" width="117" height="124">
  <path d="M 52,58 L 51,59 L 51,68 L 50,69 L 50,70 L 47,73 L 47,74 L 43,78 L 43,80 L 44,81 L 44,82 L 46,84 L 46,85 L 47,86 L 47,87 L 49,87 L 50,88 L 51,88 L 54,91 L 54,92 L 55,93 L 58,93 L 59,94 L 63,94 L 67,90 L 67,89 L 68,88 L 69,88 L 71,86 L 73,86 L 74,85 L 76,85 L 77,84 L 78,84 L 80,82 L 80,81 L 81,80 L 83,80 L 83,77 L 82,76 L 82,75 L 79,75 L 78,74 L 78,73 L 77,73 L 76,72 L 76,70 L 74,70 L 73,69 L 73,68 L 72,67 L 72,65 L 73,64 L 73,62 L 72,62 L 71,61 L 68,61 L 67,62 L 61,62 L 59,60 L 58,60 L 57,59 L 54,59 L 53,58 Z" fill="none" stroke="black" stroke-width="1"/>
</svg>