<svg xmlns="http://www.w3.org/2000/svg" width="90" height="93">
  <path d="M 48,59 L 48,60 L 45,63 L 44,63 L 43,64 L 40,64 L 39,65 L 38,65 L 37,66 L 27,66 L 25,68 L 25,71 L 23,73 L 23,74 L 22,75 L 21,75 L 19,77 L 18,77 L 18,79 L 17,80 L 17,83 L 18,83 L 22,87 L 22,88 L 24,88 L 25,89 L 27,89 L 29,91 L 36,91 L 37,90 L 44,90 L 46,92 L 53,92 L 54,91 L 56,91 L 57,90 L 58,90 L 60,88 L 60,87 L 59,87 L 58,86 L 58,82 L 59,81 L 59,79 L 58,78 L 58,77 L 57,76 L 57,64 L 56,63 L 56,62 L 55,62 L 53,60 L 52,60 L 51,59 Z" fill="none" stroke="black" stroke-width="1"/>
</svg>