<svg xmlns="http://www.w3.org/2000/svg" width="64" height="77">
  <path d="M 10,25 L 9,26 L 9,27 L 8,28 L 7,28 L 7,31 L 5,33 L 5,34 L 4,35 L 7,35 L 8,34 L 15,34 L 16,33 L 17,33 L 19,31 L 23,31 L 24,32 L 24,33 L 25,34 L 25,35 L 23,37 L 20,37 L 19,38 L 18,38 L 17,39 L 16,39 L 15,40 L 13,40 L 16,40 L 17,41 L 21,41 L 22,42 L 25,42 L 26,41 L 27,41 L 27,40 L 29,38 L 29,37 L 32,34 L 32,33 L 33,32 L 33,30 L 32,29 L 32,28 L 31,27 L 28,27 L 27,26 L 24,26 L 23,27 L 19,27 L 18,26 L 12,26 L 11,25 Z" fill="none" stroke="black" stroke-width="1"/>
</svg>