<svg xmlns="http://www.w3.org/2000/svg" width="90" height="93">
  <path d="M 28,0 L 27,1 L 25,1 L 24,2 L 23,2 L 22,3 L 19,3 L 18,4 L 17,4 L 15,6 L 13,6 L 13,7 L 12,8 L 12,11 L 11,12 L 10,12 L 10,14 L 11,15 L 11,22 L 14,22 L 18,26 L 21,26 L 22,25 L 28,25 L 29,26 L 31,26 L 32,27 L 34,27 L 38,31 L 38,32 L 39,33 L 39,34 L 40,35 L 41,35 L 42,36 L 47,36 L 48,37 L 50,37 L 51,38 L 52,38 L 53,39 L 53,37 L 56,34 L 58,34 L 60,36 L 61,36 L 62,37 L 65,37 L 66,36 L 67,37 L 68,37 L 68,36 L 69,35 L 69,34 L 71,32 L 72,32 L 72,31 L 71,30 L 71,29 L 70,28 L 70,27 L 65,22 L 64,23 L 62,23 L 61,22 L 61,21 L 59,21 L 58,22 L 48,12 L 48,11 L 46,9 L 45,9 L 44,8 L 42,8 L 38,4 L 35,4 L 31,0 Z" fill="none" stroke="black" stroke-width="1"/>
</svg>