<svg xmlns="http://www.w3.org/2000/svg" width="93" height="90">
  <path d="M 40,46 L 40,49 L 39,50 L 39,55 L 38,56 L 38,57 L 35,60 L 35,61 L 32,64 L 32,65 L 31,66 L 30,66 L 29,67 L 29,68 L 26,71 L 26,72 L 25,73 L 25,76 L 24,77 L 24,79 L 23,80 L 23,81 L 22,82 L 22,83 L 21,84 L 22,84 L 24,86 L 25,86 L 26,85 L 28,85 L 32,89 L 35,89 L 36,88 L 37,88 L 38,87 L 40,87 L 41,86 L 44,86 L 44,85 L 45,84 L 45,83 L 46,82 L 47,82 L 47,79 L 48,78 L 49,78 L 49,76 L 50,75 L 52,75 L 52,73 L 53,72 L 54,72 L 54,71 L 56,69 L 57,69 L 57,68 L 58,67 L 59,67 L 59,65 L 61,63 L 62,63 L 63,62 L 63,58 L 61,58 L 58,55 L 58,54 L 57,53 L 57,52 L 53,48 L 53,47 L 49,47 L 48,46 Z" fill="none" stroke="black" stroke-width="1"/>
</svg>