<svg xmlns="http://www.w3.org/2000/svg" width="96" height="126">
  <path d="M 29,0 L 28,1 L 24,1 L 24,6 L 22,8 L 22,10 L 20,12 L 20,15 L 21,15 L 22,16 L 23,16 L 26,19 L 27,19 L 28,20 L 30,20 L 32,22 L 33,22 L 38,27 L 40,27 L 41,28 L 42,28 L 44,30 L 44,31 L 45,32 L 45,33 L 46,34 L 47,34 L 48,35 L 48,36 L 51,39 L 52,39 L 54,41 L 54,42 L 56,44 L 56,45 L 57,45 L 59,47 L 60,47 L 68,55 L 69,55 L 71,57 L 73,57 L 74,58 L 77,58 L 78,59 L 79,59 L 80,60 L 80,61 L 84,65 L 85,65 L 85,62 L 86,61 L 86,59 L 87,58 L 87,56 L 88,55 L 88,54 L 89,53 L 90,53 L 90,52 L 92,50 L 92,47 L 94,45 L 94,40 L 95,39 L 95,35 L 93,35 L 92,34 L 92,33 L 89,33 L 88,32 L 88,31 L 84,31 L 83,30 L 83,29 L 80,29 L 79,28 L 79,27 L 76,27 L 75,26 L 75,25 L 74,25 L 73,24 L 73,22 L 70,22 L 69,21 L 69,20 L 68,20 L 67,19 L 66,19 L 65,18 L 58,18 L 57,17 L 57,16 L 56,15 L 54,15 L 53,14 L 49,14 L 48,13 L 48,12 L 47,11 L 47,10 L 46,10 L 45,9 L 45,8 L 43,8 L 42,7 L 40,7 L 39,6 L 39,4 L 37,4 L 36,3 L 36,1 L 34,1 L 33,0 Z" fill="none" stroke="black" stroke-width="1"/>
</svg>