<svg xmlns="http://www.w3.org/2000/svg" width="93" height="90">
  <path d="M 78,15 L 78,26 L 77,27 L 77,29 L 76,30 L 76,31 L 75,32 L 74,32 L 74,34 L 72,36 L 71,36 L 69,38 L 66,38 L 66,39 L 64,41 L 63,41 L 63,44 L 62,45 L 61,45 L 60,44 L 54,44 L 53,45 L 52,45 L 52,46 L 53,46 L 54,47 L 54,48 L 58,52 L 58,53 L 59,54 L 59,55 L 61,57 L 63,57 L 64,58 L 64,59 L 66,59 L 68,57 L 69,57 L 69,56 L 70,55 L 71,55 L 73,53 L 75,53 L 75,50 L 76,49 L 78,49 L 79,48 L 84,48 L 84,47 L 85,46 L 87,46 L 87,44 L 88,43 L 89,43 L 90,42 L 91,42 L 91,37 L 92,36 L 92,35 L 91,34 L 91,33 L 90,32 L 90,31 L 89,30 L 89,24 L 88,23 L 88,16 L 87,15 L 84,15 L 83,16 L 80,16 L 79,15 Z" fill="none" stroke="black" stroke-width="1"/>
</svg>