<svg xmlns="http://www.w3.org/2000/svg" width="190" height="110">
  <path d="M 150,5 L 149,6 L 148,6 L 147,7 L 143,7 L 142,6 L 137,6 L 136,7 L 135,7 L 134,8 L 133,8 L 133,14 L 132,15 L 128,15 L 128,16 L 127,17 L 125,17 L 123,19 L 121,19 L 121,20 L 120,21 L 120,22 L 118,24 L 116,24 L 116,25 L 117,26 L 117,27 L 118,28 L 121,28 L 122,27 L 123,28 L 124,28 L 125,29 L 125,32 L 121,36 L 121,37 L 122,38 L 123,37 L 124,38 L 124,40 L 123,41 L 123,42 L 124,43 L 124,44 L 125,45 L 125,46 L 124,47 L 124,48 L 122,50 L 122,51 L 121,52 L 120,52 L 119,53 L 118,53 L 117,54 L 117,55 L 116,56 L 113,56 L 112,57 L 111,57 L 111,58 L 110,59 L 108,59 L 108,60 L 109,61 L 109,64 L 112,67 L 112,68 L 114,68 L 116,70 L 119,70 L 120,69 L 122,69 L 122,68 L 123,67 L 128,67 L 130,69 L 130,70 L 131,71 L 131,74 L 132,74 L 132,73 L 133,72 L 140,72 L 141,71 L 142,71 L 144,69 L 144,68 L 145,67 L 145,65 L 147,63 L 148,63 L 149,62 L 150,62 L 151,61 L 152,61 L 153,60 L 156,60 L 157,59 L 158,59 L 160,57 L 163,57 L 164,58 L 165,58 L 166,59 L 170,59 L 172,57 L 172,52 L 173,51 L 173,50 L 175,48 L 175,47 L 176,46 L 176,42 L 177,41 L 177,40 L 182,35 L 183,35 L 184,34 L 187,34 L 187,30 L 188,29 L 188,28 L 189,27 L 189,23 L 188,22 L 188,18 L 183,18 L 182,17 L 180,17 L 178,19 L 176,17 L 175,17 L 174,16 L 173,16 L 172,15 L 171,15 L 169,13 L 169,12 L 168,11 L 168,8 L 167,7 L 166,7 L 165,6 L 159,6 L 158,5 Z" fill="none" stroke="black" stroke-width="1"/>
</svg>