<svg xmlns="http://www.w3.org/2000/svg" width="130" height="125">
  <path d="M 65,112 L 65,114 L 65,113 L 66,112 Z" fill="none" stroke="black" stroke-width="1"/>
  <path d="M 102,46 L 101,47 L 99,47 L 96,50 L 96,51 L 94,53 L 93,53 L 92,54 L 88,54 L 87,55 L 81,55 L 79,57 L 78,57 L 77,58 L 76,58 L 75,59 L 74,59 L 73,60 L 71,60 L 70,61 L 68,61 L 67,60 L 66,60 L 65,59 L 62,59 L 61,58 L 56,58 L 55,59 L 55,63 L 54,64 L 54,69 L 55,70 L 55,71 L 58,74 L 58,89 L 57,90 L 57,91 L 53,95 L 53,96 L 51,98 L 51,106 L 53,108 L 53,109 L 54,110 L 54,111 L 55,112 L 55,115 L 54,116 L 54,121 L 55,121 L 57,123 L 57,124 L 58,124 L 58,122 L 59,121 L 59,120 L 60,119 L 60,118 L 62,116 L 62,115 L 61,115 L 60,114 L 60,113 L 61,112 L 60,111 L 60,110 L 61,109 L 63,109 L 63,108 L 64,107 L 64,104 L 67,101 L 68,101 L 69,100 L 69,99 L 70,98 L 71,98 L 72,97 L 72,96 L 74,94 L 74,93 L 76,91 L 76,88 L 77,87 L 77,86 L 76,85 L 76,81 L 77,80 L 78,81 L 78,83 L 80,83 L 81,84 L 81,86 L 82,86 L 84,84 L 85,84 L 86,83 L 88,85 L 87,86 L 87,87 L 86,88 L 85,88 L 86,89 L 86,91 L 85,92 L 85,93 L 84,94 L 83,94 L 81,96 L 81,97 L 80,98 L 78,98 L 78,102 L 71,109 L 70,109 L 70,110 L 69,111 L 70,111 L 72,109 L 73,109 L 76,106 L 77,106 L 77,105 L 82,100 L 82,99 L 84,97 L 85,97 L 85,96 L 86,95 L 86,94 L 87,93 L 87,92 L 90,89 L 90,88 L 91,87 L 91,86 L 92,85 L 92,83 L 93,82 L 93,81 L 94,80 L 94,77 L 97,74 L 97,73 L 98,72 L 98,71 L 100,69 L 101,69 L 102,68 L 102,67 L 103,66 L 103,65 L 104,64 L 105,64 L 105,63 L 106,62 L 106,61 L 108,59 L 109,59 L 110,58 L 110,57 L 108,57 L 106,55 L 106,51 L 105,50 L 105,48 L 103,46 Z" fill="none" stroke="black" stroke-width="1"/>
</svg>