<svg xmlns="http://www.w3.org/2000/svg" width="93" height="90">
  <path d="M 26,19 L 24,21 L 24,22 L 23,23 L 22,23 L 22,24 L 21,25 L 21,27 L 20,28 L 20,30 L 19,31 L 19,34 L 18,35 L 16,35 L 15,36 L 15,37 L 14,38 L 12,38 L 12,41 L 14,41 L 15,42 L 30,42 L 32,44 L 34,44 L 35,45 L 47,45 L 47,42 L 48,41 L 48,37 L 49,36 L 49,33 L 50,32 L 50,23 L 49,22 L 49,20 L 48,20 L 47,21 L 46,21 L 45,22 L 44,22 L 42,24 L 40,24 L 39,25 L 38,25 L 36,23 L 35,23 L 31,19 Z" fill="none" stroke="black" stroke-width="1"/>
</svg>