<svg xmlns="http://www.w3.org/2000/svg" width="93" height="90">
  <path d="M 81,0 L 80,1 L 76,1 L 74,3 L 70,3 L 68,5 L 67,5 L 64,8 L 64,9 L 59,14 L 56,14 L 55,15 L 54,15 L 51,18 L 51,19 L 50,20 L 50,22 L 51,23 L 51,32 L 50,33 L 50,36 L 49,37 L 49,41 L 48,42 L 48,45 L 49,46 L 51,46 L 51,45 L 52,44 L 53,44 L 54,43 L 60,43 L 61,44 L 62,44 L 62,41 L 63,40 L 64,40 L 65,39 L 65,38 L 66,37 L 69,37 L 71,35 L 72,35 L 73,34 L 73,32 L 74,31 L 75,31 L 75,30 L 76,29 L 76,27 L 77,26 L 77,15 L 78,14 L 79,14 L 80,15 L 81,15 L 81,13 L 82,12 L 82,0 Z" fill="none" stroke="black" stroke-width="1"/>
</svg>