<svg xmlns="http://www.w3.org/2000/svg" width="135" height="115">
  <path d="M 69,35 L 68,36 L 67,36 L 66,37 L 65,37 L 64,38 L 54,38 L 53,39 L 50,39 L 49,40 L 48,40 L 47,41 L 45,41 L 44,42 L 44,43 L 48,47 L 49,47 L 50,48 L 51,48 L 55,52 L 56,52 L 58,54 L 58,55 L 59,56 L 59,58 L 60,59 L 60,60 L 61,61 L 61,63 L 62,63 L 66,67 L 70,67 L 71,66 L 73,66 L 75,68 L 77,68 L 78,69 L 80,69 L 81,70 L 85,70 L 86,71 L 91,71 L 93,73 L 94,73 L 95,74 L 96,74 L 98,76 L 101,76 L 102,77 L 107,77 L 108,76 L 109,76 L 110,75 L 115,75 L 115,74 L 116,73 L 116,72 L 117,71 L 117,66 L 116,65 L 116,63 L 114,63 L 113,62 L 111,62 L 110,61 L 106,61 L 105,60 L 104,60 L 102,58 L 102,57 L 100,55 L 99,55 L 98,54 L 97,54 L 96,53 L 95,53 L 93,51 L 93,47 L 92,46 L 91,46 L 90,45 L 87,45 L 86,44 L 82,44 L 80,42 L 80,41 L 79,41 L 78,40 L 78,39 L 76,37 L 76,36 L 72,36 L 71,35 Z" fill="none" stroke="black" stroke-width="1"/>
</svg>