<svg xmlns="http://www.w3.org/2000/svg" width="64" height="77">
  <path d="M 11,40 L 10,41 L 10,42 L 13,42 L 14,43 L 12,45 L 11,45 L 10,44 L 9,44 L 8,43 L 7,43 L 5,45 L 1,45 L 1,47 L 3,49 L 6,49 L 11,54 L 12,54 L 13,55 L 13,56 L 12,57 L 11,57 L 9,55 L 8,55 L 7,54 L 7,55 L 6,56 L 4,56 L 3,57 L 3,58 L 2,59 L 2,61 L 0,63 L 4,67 L 4,68 L 5,69 L 5,71 L 6,72 L 6,73 L 8,75 L 8,76 L 18,76 L 18,75 L 19,74 L 21,74 L 21,73 L 23,71 L 28,71 L 30,69 L 31,69 L 31,67 L 32,66 L 38,66 L 38,64 L 37,63 L 37,59 L 36,58 L 36,57 L 35,56 L 35,53 L 34,53 L 33,52 L 32,52 L 31,51 L 30,51 L 27,48 L 27,47 L 26,46 L 26,44 L 25,44 L 24,43 L 22,43 L 21,42 L 17,42 L 16,41 L 13,41 L 12,40 Z" fill="none" stroke="black" stroke-width="1"/>
</svg>