<svg xmlns="http://www.w3.org/2000/svg" width="135" height="115">
  <path d="M 37,0 L 36,1 L 36,5 L 34,7 L 33,7 L 31,5 L 29,5 L 28,6 L 23,6 L 23,10 L 21,12 L 21,14 L 20,15 L 20,34 L 19,35 L 19,36 L 18,37 L 17,37 L 17,40 L 16,41 L 16,42 L 17,42 L 18,43 L 20,43 L 21,44 L 22,44 L 23,45 L 37,45 L 38,44 L 40,44 L 43,41 L 44,41 L 45,40 L 47,40 L 48,39 L 49,39 L 50,38 L 53,38 L 54,37 L 64,37 L 65,36 L 66,36 L 67,35 L 68,35 L 66,33 L 66,32 L 64,30 L 63,30 L 62,29 L 60,29 L 59,28 L 59,27 L 58,26 L 58,25 L 56,23 L 56,22 L 55,21 L 55,19 L 59,15 L 58,15 L 57,14 L 56,14 L 55,13 L 54,13 L 53,12 L 53,11 L 52,10 L 52,9 L 49,6 L 48,6 L 47,5 L 46,5 L 45,4 L 44,4 L 42,2 L 40,2 L 39,1 L 38,1 Z" fill="none" stroke="black" stroke-width="1"/>
</svg>