<svg xmlns="http://www.w3.org/2000/svg" width="35" height="139">
  <path d="M 12,0 L 11,1 L 10,1 L 10,13 L 9,14 L 9,15 L 10,16 L 10,17 L 7,20 L 6,19 L 5,20 L 5,29 L 6,30 L 6,37 L 7,38 L 7,42 L 8,43 L 8,52 L 10,54 L 9,55 L 9,59 L 18,59 L 20,57 L 21,57 L 23,55 L 24,55 L 25,54 L 29,54 L 30,53 L 32,53 L 32,51 L 31,50 L 31,48 L 30,47 L 30,43 L 29,43 L 28,42 L 28,38 L 27,37 L 27,32 L 25,30 L 25,29 L 26,28 L 26,27 L 28,25 L 28,21 L 27,20 L 27,19 L 26,18 L 26,16 L 27,15 L 27,14 L 28,13 L 30,13 L 30,12 L 31,11 L 31,10 L 32,9 L 32,8 L 29,8 L 28,7 L 27,7 L 23,3 L 23,2 L 21,2 L 20,1 L 17,1 L 16,0 Z" fill="none" stroke="black" stroke-width="1"/>
</svg>