<svg xmlns="http://www.w3.org/2000/svg" width="110" height="156">
  <path d="M 70,0 L 65,5 L 65,7 L 64,8 L 63,8 L 62,9 L 61,9 L 60,10 L 52,10 L 51,9 L 47,9 L 46,8 L 45,8 L 45,10 L 42,13 L 41,13 L 42,14 L 42,16 L 41,17 L 41,18 L 45,18 L 47,20 L 48,20 L 49,21 L 50,21 L 52,23 L 52,24 L 53,25 L 53,26 L 54,27 L 54,30 L 55,30 L 56,31 L 58,31 L 59,32 L 59,33 L 60,34 L 60,37 L 62,39 L 66,39 L 67,40 L 68,40 L 71,43 L 73,43 L 74,44 L 78,44 L 79,45 L 85,45 L 86,46 L 87,46 L 88,47 L 89,47 L 90,48 L 91,48 L 94,51 L 96,51 L 96,50 L 100,46 L 100,45 L 101,44 L 101,43 L 102,42 L 102,37 L 103,36 L 103,35 L 106,32 L 106,31 L 108,29 L 109,29 L 107,29 L 106,28 L 102,28 L 101,27 L 97,27 L 92,22 L 91,22 L 90,21 L 89,21 L 88,20 L 88,15 L 87,14 L 87,11 L 86,10 L 83,10 L 81,8 L 81,6 L 79,6 L 76,3 L 74,3 L 72,1 L 72,0 Z" fill="none" stroke="black" stroke-width="1"/>
</svg>