<svg xmlns="http://www.w3.org/2000/svg" width="190" height="110">
  <path d="M 33,0 L 32,1 L 31,1 L 30,2 L 29,2 L 29,3 L 28,4 L 28,5 L 27,6 L 27,7 L 26,8 L 26,12 L 27,13 L 27,15 L 26,16 L 26,17 L 23,20 L 22,20 L 22,21 L 21,22 L 21,26 L 23,28 L 23,29 L 20,32 L 18,32 L 18,33 L 17,34 L 16,34 L 15,35 L 9,35 L 8,36 L 3,36 L 3,41 L 2,42 L 2,44 L 0,46 L 0,51 L 2,53 L 3,53 L 5,55 L 5,56 L 6,57 L 6,58 L 7,59 L 7,60 L 8,60 L 9,61 L 10,61 L 11,62 L 12,62 L 13,63 L 17,63 L 17,62 L 19,60 L 20,60 L 21,59 L 24,59 L 25,58 L 26,58 L 27,57 L 30,57 L 31,56 L 34,56 L 35,55 L 39,55 L 40,56 L 42,56 L 43,57 L 45,57 L 46,58 L 46,60 L 47,60 L 48,61 L 48,62 L 49,63 L 54,63 L 57,66 L 61,66 L 61,64 L 59,62 L 60,61 L 60,60 L 61,59 L 60,58 L 61,57 L 61,56 L 62,55 L 56,49 L 56,39 L 57,38 L 57,37 L 58,36 L 59,36 L 62,33 L 62,32 L 63,31 L 63,25 L 62,24 L 62,22 L 63,21 L 62,20 L 62,17 L 61,16 L 60,16 L 59,15 L 59,14 L 58,14 L 57,13 L 56,13 L 54,11 L 53,11 L 52,10 L 52,7 L 49,4 L 48,4 L 47,3 L 46,3 L 44,1 L 43,1 L 42,2 L 40,0 Z" fill="none" stroke="black" stroke-width="1"/>
</svg>