<svg xmlns="http://www.w3.org/2000/svg" width="135" height="115">
  <path d="M 10,42 L 10,51 L 9,52 L 9,56 L 8,57 L 8,58 L 7,59 L 6,59 L 6,60 L 2,64 L 1,64 L 0,65 L 0,71 L 3,74 L 5,74 L 6,75 L 6,77 L 7,78 L 10,78 L 12,80 L 12,83 L 13,84 L 13,89 L 14,89 L 15,90 L 16,90 L 21,95 L 25,95 L 26,96 L 30,96 L 31,97 L 38,97 L 39,96 L 40,96 L 41,95 L 41,91 L 42,90 L 42,83 L 41,82 L 41,81 L 40,80 L 40,75 L 45,70 L 50,70 L 51,69 L 52,69 L 54,67 L 55,67 L 58,64 L 60,64 L 60,61 L 59,60 L 59,59 L 58,58 L 58,56 L 57,55 L 57,54 L 56,53 L 55,53 L 51,49 L 50,49 L 49,48 L 48,48 L 43,43 L 43,42 L 40,45 L 38,45 L 37,46 L 23,46 L 22,45 L 21,45 L 20,44 L 18,44 L 17,43 L 16,43 L 15,42 Z" fill="none" stroke="black" stroke-width="1"/>
</svg>