<svg xmlns="http://www.w3.org/2000/svg" width="135" height="115">
  <path d="M 61,64 L 60,65 L 58,65 L 55,68 L 54,68 L 52,70 L 51,70 L 50,71 L 45,71 L 41,75 L 41,80 L 42,81 L 42,82 L 43,83 L 43,90 L 42,91 L 42,95 L 48,95 L 50,97 L 53,97 L 54,98 L 59,98 L 60,99 L 64,99 L 65,98 L 65,96 L 67,94 L 69,94 L 71,92 L 76,92 L 77,91 L 84,91 L 85,90 L 86,90 L 88,88 L 92,88 L 93,89 L 94,89 L 96,87 L 97,87 L 97,84 L 98,83 L 98,82 L 99,81 L 99,80 L 100,79 L 100,77 L 98,77 L 96,75 L 95,75 L 94,74 L 93,74 L 91,72 L 86,72 L 85,71 L 81,71 L 80,70 L 78,70 L 77,69 L 75,69 L 73,67 L 71,67 L 70,68 L 66,68 L 62,64 Z" fill="none" stroke="black" stroke-width="1"/>
</svg>