<svg xmlns="http://www.w3.org/2000/svg" width="87" height="122">
  <path d="M 70,12 L 69,13 L 65,13 L 64,14 L 62,14 L 61,15 L 58,15 L 58,18 L 59,19 L 59,20 L 60,21 L 60,25 L 59,26 L 59,27 L 56,30 L 56,31 L 55,32 L 55,33 L 52,36 L 52,38 L 49,41 L 49,42 L 47,44 L 45,44 L 45,46 L 46,46 L 47,47 L 47,48 L 49,48 L 50,49 L 50,52 L 52,52 L 53,53 L 61,53 L 62,52 L 63,52 L 64,51 L 65,51 L 65,49 L 71,43 L 73,43 L 74,44 L 74,45 L 75,46 L 76,46 L 76,40 L 78,38 L 79,38 L 82,35 L 82,34 L 83,33 L 84,33 L 84,32 L 85,31 L 85,27 L 86,26 L 86,18 L 81,18 L 80,17 L 79,17 L 78,16 L 76,16 L 75,15 L 75,12 Z" fill="none" stroke="black" stroke-width="1"/>
</svg>