<svg xmlns="http://www.w3.org/2000/svg" width="91" height="102">
  <path d="M 27,19 L 27,20 L 26,21 L 26,22 L 25,23 L 25,27 L 24,28 L 24,30 L 23,31 L 23,37 L 24,37 L 25,38 L 25,41 L 26,42 L 26,43 L 27,44 L 27,45 L 28,45 L 29,46 L 29,47 L 30,48 L 30,49 L 32,51 L 39,51 L 40,50 L 40,46 L 39,45 L 40,44 L 40,43 L 42,41 L 46,41 L 48,43 L 50,43 L 51,44 L 52,44 L 53,45 L 55,45 L 56,46 L 57,46 L 58,45 L 58,38 L 57,37 L 57,35 L 54,32 L 53,32 L 52,31 L 51,31 L 50,30 L 49,30 L 46,27 L 46,26 L 45,25 L 42,25 L 39,22 L 38,22 L 37,21 L 36,21 L 35,20 L 34,20 L 33,19 Z" fill="none" stroke="black" stroke-width="1"/>
</svg>