<svg xmlns="http://www.w3.org/2000/svg" width="98" height="124">
  <path d="M 11,33 L 10,34 L 7,34 L 6,35 L 5,35 L 4,34 L 2,34 L 1,35 L 1,41 L 2,42 L 2,51 L 1,52 L 1,53 L 0,54 L 0,55 L 1,56 L 1,57 L 3,59 L 3,61 L 4,61 L 5,62 L 5,63 L 7,65 L 7,66 L 8,67 L 8,68 L 9,69 L 9,70 L 10,70 L 15,75 L 15,77 L 16,78 L 16,84 L 17,85 L 17,87 L 19,87 L 20,88 L 21,88 L 23,90 L 24,90 L 24,88 L 25,87 L 27,87 L 28,86 L 29,86 L 30,87 L 31,86 L 38,86 L 38,84 L 39,83 L 40,83 L 41,84 L 43,84 L 44,85 L 46,85 L 47,86 L 48,86 L 49,87 L 49,85 L 48,85 L 47,84 L 47,83 L 46,82 L 46,81 L 45,80 L 45,79 L 43,77 L 43,76 L 42,75 L 42,74 L 41,73 L 41,71 L 40,70 L 41,69 L 41,66 L 43,64 L 44,64 L 45,63 L 46,64 L 47,64 L 48,63 L 49,63 L 50,62 L 53,62 L 55,60 L 56,60 L 56,58 L 57,57 L 57,55 L 56,54 L 58,52 L 58,50 L 59,49 L 60,49 L 61,48 L 60,48 L 57,45 L 56,45 L 55,44 L 52,44 L 51,43 L 49,43 L 48,42 L 48,41 L 47,41 L 43,37 L 40,37 L 39,36 L 32,36 L 31,37 L 25,37 L 24,36 L 22,36 L 21,35 L 19,35 L 18,34 L 18,33 Z" fill="none" stroke="black" stroke-width="1"/>
</svg>