<svg xmlns="http://www.w3.org/2000/svg" width="110" height="156">
  <path d="M 54,31 L 53,32 L 52,32 L 51,33 L 40,33 L 39,34 L 37,34 L 37,37 L 39,37 L 42,40 L 42,42 L 43,43 L 43,48 L 41,50 L 40,50 L 39,51 L 36,51 L 35,52 L 35,53 L 34,54 L 34,55 L 33,56 L 33,57 L 32,58 L 32,59 L 31,60 L 30,60 L 29,61 L 38,61 L 40,63 L 41,63 L 42,64 L 44,64 L 45,65 L 47,65 L 48,66 L 48,67 L 50,69 L 50,70 L 51,71 L 51,74 L 52,74 L 55,77 L 55,78 L 56,79 L 56,80 L 57,80 L 58,81 L 72,81 L 74,79 L 74,78 L 75,77 L 75,75 L 77,73 L 78,73 L 78,71 L 77,70 L 77,69 L 76,68 L 76,65 L 75,65 L 74,64 L 74,58 L 75,57 L 75,55 L 76,54 L 76,50 L 77,49 L 77,48 L 78,47 L 78,45 L 74,45 L 73,44 L 71,44 L 68,41 L 67,41 L 66,40 L 62,40 L 59,37 L 59,34 L 58,33 L 58,32 L 56,32 L 55,31 Z" fill="none" stroke="black" stroke-width="1"/>
</svg>