<svg xmlns="http://www.w3.org/2000/svg" width="109" height="87">
  <path d="M 61,42 L 60,43 L 53,43 L 52,44 L 51,44 L 51,45 L 53,47 L 54,47 L 55,48 L 55,49 L 54,50 L 50,50 L 50,51 L 47,54 L 47,56 L 48,57 L 48,58 L 49,59 L 49,60 L 48,61 L 47,61 L 46,62 L 45,62 L 43,64 L 42,64 L 41,65 L 39,65 L 38,66 L 37,66 L 36,67 L 35,67 L 38,67 L 39,68 L 40,68 L 42,70 L 42,73 L 43,74 L 43,76 L 41,78 L 40,78 L 40,79 L 39,80 L 38,80 L 38,82 L 45,82 L 46,83 L 47,83 L 49,85 L 50,85 L 51,86 L 54,86 L 56,84 L 57,84 L 59,82 L 61,82 L 63,80 L 64,80 L 65,79 L 66,79 L 67,78 L 70,78 L 71,77 L 72,77 L 73,76 L 73,74 L 74,73 L 74,70 L 75,69 L 75,66 L 76,65 L 76,58 L 77,57 L 75,57 L 74,56 L 74,55 L 73,54 L 73,53 L 72,52 L 72,51 L 70,49 L 70,47 L 69,46 L 69,43 L 65,43 L 64,42 Z" fill="none" stroke="black" stroke-width="1"/>
</svg>