<svg xmlns="http://www.w3.org/2000/svg" width="87" height="122">
  <path d="M 36,82 L 35,83 L 34,83 L 33,84 L 32,84 L 31,85 L 30,85 L 29,86 L 28,86 L 26,88 L 23,88 L 22,89 L 17,89 L 16,88 L 14,88 L 12,86 L 12,85 L 9,85 L 8,84 L 2,84 L 2,85 L 1,86 L 1,88 L 0,89 L 0,97 L 1,98 L 1,106 L 0,107 L 0,111 L 5,116 L 5,119 L 7,121 L 10,121 L 11,120 L 12,120 L 13,121 L 18,121 L 20,119 L 21,119 L 22,118 L 24,118 L 25,117 L 25,116 L 27,114 L 27,111 L 28,110 L 28,108 L 29,107 L 29,105 L 31,103 L 32,103 L 32,102 L 33,101 L 33,100 L 34,99 L 34,98 L 35,97 L 35,96 L 37,94 L 40,94 L 41,93 L 42,93 L 43,92 L 43,87 L 42,86 L 42,84 L 40,82 Z" fill="none" stroke="black" stroke-width="1"/>
</svg>