<svg xmlns="http://www.w3.org/2000/svg" width="87" height="122">
  <path d="M 18,0 L 17,1 L 17,2 L 16,3 L 16,4 L 15,5 L 15,6 L 14,7 L 14,9 L 16,11 L 16,16 L 14,18 L 14,20 L 13,21 L 13,22 L 11,24 L 11,25 L 10,26 L 10,28 L 9,29 L 9,30 L 8,31 L 8,35 L 9,36 L 9,37 L 10,38 L 10,42 L 11,43 L 11,45 L 28,45 L 30,47 L 31,47 L 32,48 L 32,49 L 33,50 L 33,51 L 34,52 L 34,53 L 35,53 L 36,54 L 38,54 L 39,55 L 39,56 L 40,56 L 41,57 L 42,56 L 43,56 L 45,54 L 45,52 L 46,51 L 47,51 L 48,52 L 49,52 L 49,49 L 47,49 L 46,48 L 46,47 L 45,47 L 44,46 L 44,44 L 45,43 L 47,43 L 48,42 L 48,41 L 51,38 L 51,36 L 54,33 L 54,32 L 55,31 L 55,30 L 58,27 L 58,26 L 59,25 L 59,21 L 58,20 L 58,19 L 57,18 L 57,15 L 49,15 L 48,14 L 42,14 L 40,16 L 39,16 L 38,17 L 34,17 L 32,15 L 32,9 L 29,6 L 27,6 L 26,5 L 25,5 L 20,0 Z" fill="none" stroke="black" stroke-width="1"/>
</svg>