<svg xmlns="http://www.w3.org/2000/svg" width="67" height="222">
  <path d="M 5,90 L 6,91 L 7,90 Z" fill="none" stroke="black" stroke-width="1"/>
  <path d="M 11,0 L 11,1 L 10,2 L 11,3 L 11,7 L 12,8 L 12,9 L 13,10 L 13,11 L 15,13 L 15,16 L 14,17 L 14,18 L 15,19 L 15,22 L 16,23 L 16,24 L 17,25 L 17,26 L 18,27 L 18,29 L 19,30 L 19,32 L 20,33 L 20,39 L 19,40 L 19,42 L 18,43 L 15,43 L 14,44 L 15,45 L 15,47 L 14,48 L 14,49 L 15,50 L 14,51 L 14,59 L 15,60 L 15,64 L 18,64 L 19,65 L 18,66 L 17,66 L 17,68 L 18,68 L 19,69 L 18,70 L 14,70 L 14,72 L 13,73 L 12,73 L 12,76 L 13,77 L 13,78 L 14,79 L 13,80 L 13,81 L 12,82 L 12,83 L 11,84 L 12,85 L 12,87 L 13,87 L 14,88 L 18,88 L 18,87 L 17,86 L 17,85 L 18,84 L 21,84 L 19,82 L 20,81 L 21,81 L 20,81 L 18,79 L 17,79 L 16,78 L 17,77 L 18,77 L 19,76 L 20,76 L 19,76 L 18,75 L 19,74 L 21,74 L 19,72 L 19,71 L 18,70 L 19,69 L 20,69 L 21,68 L 22,69 L 23,68 L 24,68 L 24,65 L 25,64 L 28,64 L 29,65 L 30,65 L 33,62 L 34,62 L 30,58 L 30,54 L 31,53 L 31,45 L 30,44 L 30,36 L 31,35 L 31,33 L 32,32 L 32,31 L 31,30 L 31,28 L 32,27 L 32,24 L 31,23 L 31,20 L 32,19 L 32,18 L 31,17 L 31,12 L 30,11 L 30,7 L 29,6 L 29,4 L 28,4 L 27,3 L 25,3 L 24,2 L 24,1 L 19,1 L 18,0 Z" fill="none" stroke="black" stroke-width="1"/>
</svg>