<svg xmlns="http://www.w3.org/2000/svg" width="67" height="222">
  <path d="M 17,97 L 16,98 L 16,101 L 15,102 L 14,101 L 10,101 L 10,102 L 11,102 L 12,101 L 13,102 L 14,102 L 15,103 L 14,104 L 10,104 L 11,104 L 12,105 L 13,104 L 14,104 L 15,105 L 16,104 L 17,104 L 18,105 L 20,105 L 21,106 L 21,104 L 20,103 L 18,103 L 17,102 L 17,101 L 19,99 L 18,99 L 17,98 Z" fill="none" stroke="black" stroke-width="1"/>
  <path d="M 19,96 L 20,96 Z" fill="none" stroke="black" stroke-width="1"/>
  <path d="M 33,63 L 30,66 L 30,69 L 29,70 L 29,71 L 31,71 L 32,72 L 32,73 L 30,75 L 29,74 L 29,75 L 31,77 L 30,78 L 28,78 L 28,80 L 29,81 L 29,82 L 30,83 L 29,84 L 28,84 L 29,85 L 29,87 L 28,88 L 26,88 L 26,91 L 27,92 L 27,93 L 28,94 L 26,96 L 25,96 L 25,98 L 26,99 L 27,99 L 28,100 L 27,101 L 26,101 L 26,103 L 25,104 L 23,104 L 23,105 L 24,106 L 27,106 L 28,105 L 30,105 L 31,104 L 32,104 L 33,105 L 33,106 L 32,107 L 31,107 L 30,108 L 27,108 L 26,109 L 25,109 L 25,110 L 24,111 L 30,111 L 31,112 L 31,113 L 32,113 L 33,114 L 35,114 L 37,112 L 37,109 L 38,108 L 38,97 L 41,94 L 41,93 L 43,91 L 43,90 L 41,88 L 41,86 L 40,85 L 40,80 L 41,79 L 41,76 L 42,75 L 42,70 L 43,69 L 43,68 L 42,68 L 41,69 L 38,69 L 35,66 L 35,63 Z" fill="none" stroke="black" stroke-width="1"/>
</svg>