<svg xmlns="http://www.w3.org/2000/svg" width="110" height="156">
  <path d="M 29,62 L 29,63 L 28,64 L 28,66 L 27,67 L 27,70 L 25,72 L 25,73 L 23,75 L 21,75 L 20,76 L 19,76 L 17,78 L 12,78 L 11,79 L 11,84 L 10,85 L 10,88 L 9,89 L 9,94 L 10,95 L 10,97 L 11,98 L 15,98 L 16,97 L 18,97 L 19,98 L 22,98 L 23,99 L 24,99 L 25,100 L 29,100 L 30,101 L 30,102 L 32,104 L 32,105 L 34,107 L 41,107 L 42,106 L 52,106 L 53,105 L 59,105 L 61,103 L 64,103 L 64,102 L 65,101 L 65,100 L 67,98 L 67,97 L 68,96 L 68,95 L 69,94 L 69,92 L 71,90 L 71,89 L 72,88 L 72,87 L 73,86 L 73,85 L 74,84 L 74,83 L 73,82 L 58,82 L 57,81 L 56,81 L 55,80 L 55,79 L 54,78 L 54,77 L 52,75 L 51,75 L 50,74 L 50,71 L 49,70 L 49,69 L 47,67 L 47,66 L 45,66 L 44,65 L 42,65 L 41,64 L 40,64 L 38,62 Z" fill="none" stroke="black" stroke-width="1"/>
</svg>