<svg xmlns="http://www.w3.org/2000/svg" width="110" height="156">
  <path d="M 16,98 L 15,99 L 12,99 L 12,100 L 10,102 L 10,103 L 7,106 L 7,117 L 6,118 L 6,121 L 3,124 L 3,125 L 2,126 L 2,127 L 1,128 L 1,130 L 0,131 L 0,133 L 1,134 L 1,135 L 2,136 L 2,140 L 1,141 L 1,149 L 2,150 L 2,153 L 3,153 L 4,152 L 6,152 L 7,153 L 8,153 L 9,152 L 12,152 L 13,151 L 20,151 L 21,152 L 21,153 L 23,153 L 24,154 L 26,154 L 27,155 L 33,155 L 34,154 L 38,154 L 38,146 L 39,145 L 39,144 L 40,143 L 40,142 L 41,141 L 41,136 L 42,135 L 42,133 L 41,132 L 41,127 L 48,120 L 48,119 L 49,118 L 51,118 L 51,117 L 53,115 L 54,115 L 54,110 L 55,109 L 55,106 L 53,106 L 52,107 L 42,107 L 41,108 L 34,108 L 31,105 L 31,104 L 29,102 L 29,101 L 25,101 L 24,100 L 23,100 L 22,99 L 19,99 L 18,98 Z" fill="none" stroke="black" stroke-width="1"/>
</svg>