<svg xmlns="http://www.w3.org/2000/svg" width="103" height="114">
  <path d="M 38,56 L 37,57 L 24,57 L 23,58 L 21,58 L 20,59 L 14,59 L 13,60 L 10,60 L 9,59 L 6,59 L 5,60 L 5,64 L 6,65 L 6,67 L 7,68 L 7,74 L 8,75 L 8,76 L 9,77 L 9,81 L 8,82 L 8,85 L 7,86 L 7,87 L 6,88 L 6,95 L 8,95 L 13,100 L 14,100 L 15,101 L 17,101 L 21,105 L 21,111 L 22,112 L 26,112 L 27,111 L 28,111 L 30,109 L 36,109 L 37,110 L 49,110 L 50,109 L 52,109 L 53,108 L 57,108 L 58,107 L 64,107 L 64,97 L 62,97 L 61,96 L 61,91 L 60,90 L 60,84 L 59,83 L 59,80 L 58,79 L 57,79 L 56,78 L 56,75 L 54,73 L 54,63 L 52,61 L 52,60 L 50,58 L 50,57 L 46,57 L 45,58 L 42,58 L 41,57 L 40,57 L 39,56 Z" fill="none" stroke="black" stroke-width="1"/>
</svg>