<svg xmlns="http://www.w3.org/2000/svg" width="96" height="126">
  <path d="M 19,16 L 19,17 L 18,18 L 18,20 L 17,21 L 17,22 L 14,25 L 13,25 L 8,30 L 7,30 L 7,31 L 6,32 L 4,32 L 2,34 L 0,34 L 0,38 L 1,39 L 1,40 L 3,42 L 3,46 L 4,47 L 4,48 L 5,49 L 5,59 L 6,60 L 6,72 L 7,73 L 7,80 L 8,81 L 8,84 L 11,84 L 12,83 L 18,83 L 21,80 L 23,80 L 23,76 L 24,75 L 25,75 L 27,73 L 28,73 L 29,72 L 29,69 L 30,68 L 30,67 L 31,66 L 31,64 L 32,63 L 32,61 L 33,60 L 33,59 L 34,58 L 34,57 L 36,55 L 36,54 L 37,53 L 37,52 L 40,49 L 41,49 L 42,48 L 44,48 L 47,45 L 48,45 L 50,43 L 53,43 L 53,41 L 52,40 L 51,40 L 47,36 L 47,35 L 46,35 L 44,33 L 44,32 L 43,31 L 43,30 L 42,29 L 41,29 L 40,28 L 38,28 L 33,23 L 32,23 L 30,21 L 28,21 L 27,20 L 26,20 L 23,17 L 22,17 L 21,16 Z" fill="none" stroke="black" stroke-width="1"/>
</svg>