<svg xmlns="http://www.w3.org/2000/svg" width="130" height="125">
  <path d="M 34,33 L 33,34 L 31,34 L 31,37 L 30,38 L 28,38 L 26,40 L 25,40 L 25,41 L 24,42 L 23,42 L 21,44 L 19,44 L 19,46 L 17,48 L 16,48 L 15,49 L 15,51 L 14,52 L 13,52 L 13,53 L 12,54 L 11,54 L 10,55 L 10,56 L 9,57 L 8,57 L 8,59 L 7,60 L 5,60 L 5,62 L 4,63 L 3,63 L 3,66 L 2,67 L 1,67 L 1,68 L 0,69 L 0,71 L 3,74 L 6,74 L 10,78 L 12,78 L 13,79 L 14,79 L 17,82 L 17,83 L 26,92 L 27,91 L 29,91 L 30,92 L 30,93 L 32,93 L 33,92 L 39,98 L 39,99 L 40,100 L 42,100 L 44,102 L 45,102 L 48,105 L 50,105 L 50,98 L 52,96 L 52,95 L 56,91 L 56,90 L 57,89 L 57,74 L 54,71 L 54,70 L 53,69 L 53,64 L 54,63 L 54,56 L 55,55 L 55,53 L 53,53 L 52,52 L 46,52 L 45,53 L 42,53 L 41,54 L 40,54 L 39,55 L 38,54 L 38,51 L 35,48 L 35,42 L 36,41 L 36,35 L 35,34 L 35,33 Z" fill="none" stroke="black" stroke-width="1"/>
</svg>