<svg xmlns="http://www.w3.org/2000/svg" width="190" height="110">
  <path d="M 102,12 L 101,13 L 99,13 L 98,14 L 96,14 L 94,16 L 92,16 L 91,17 L 87,17 L 86,18 L 83,18 L 82,19 L 74,19 L 72,17 L 69,17 L 68,18 L 63,18 L 63,20 L 64,21 L 63,22 L 63,24 L 64,25 L 64,31 L 63,32 L 63,33 L 59,37 L 58,37 L 58,38 L 57,39 L 57,49 L 64,56 L 68,56 L 69,55 L 73,55 L 74,54 L 82,54 L 83,55 L 90,55 L 91,56 L 94,56 L 95,57 L 102,57 L 103,58 L 106,58 L 107,59 L 108,58 L 110,58 L 110,57 L 111,56 L 112,56 L 113,55 L 116,55 L 116,54 L 118,52 L 119,52 L 120,51 L 121,51 L 121,50 L 123,48 L 123,47 L 124,46 L 124,45 L 123,44 L 123,43 L 122,42 L 122,41 L 123,40 L 123,38 L 122,39 L 120,37 L 120,36 L 124,32 L 124,29 L 123,29 L 122,28 L 121,29 L 118,29 L 116,27 L 116,26 L 115,25 L 115,24 L 116,23 L 118,23 L 119,22 L 119,21 L 120,20 L 120,19 L 121,18 L 123,18 L 123,17 L 122,17 L 121,16 L 119,16 L 118,15 L 115,15 L 114,14 L 112,14 L 110,12 Z" fill="none" stroke="black" stroke-width="1"/>
</svg>