<svg xmlns="http://www.w3.org/2000/svg" width="116" height="82">
  <path d="M 33,19 L 31,21 L 24,21 L 23,22 L 20,22 L 19,23 L 17,23 L 16,24 L 9,24 L 9,28 L 8,29 L 7,29 L 7,31 L 6,32 L 3,32 L 3,34 L 2,35 L 2,40 L 1,41 L 1,46 L 0,47 L 0,49 L 2,51 L 2,53 L 3,54 L 3,58 L 4,59 L 4,67 L 2,69 L 2,70 L 9,70 L 10,71 L 15,71 L 16,72 L 19,72 L 20,73 L 26,73 L 27,72 L 31,72 L 35,68 L 39,68 L 40,67 L 42,67 L 43,66 L 44,66 L 45,65 L 48,65 L 49,64 L 52,64 L 52,63 L 54,61 L 54,57 L 55,56 L 55,53 L 54,52 L 54,49 L 50,45 L 50,44 L 49,43 L 49,37 L 50,36 L 50,34 L 51,33 L 51,31 L 50,30 L 50,28 L 49,27 L 49,25 L 48,24 L 48,23 L 47,23 L 46,22 L 46,21 L 45,20 L 45,19 Z" fill="none" stroke="black" stroke-width="1"/>
</svg>