<svg xmlns="http://www.w3.org/2000/svg" width="159" height="172">
  <path d="M 62,0 L 61,1 L 60,1 L 59,2 L 54,2 L 50,6 L 50,8 L 49,9 L 49,10 L 46,13 L 46,18 L 44,20 L 43,20 L 41,22 L 40,22 L 39,23 L 38,23 L 37,24 L 35,24 L 34,23 L 29,23 L 28,24 L 25,24 L 24,25 L 23,25 L 21,27 L 20,27 L 19,28 L 12,28 L 11,29 L 11,30 L 10,31 L 10,32 L 9,33 L 9,39 L 8,40 L 8,42 L 6,44 L 6,47 L 4,49 L 3,49 L 0,52 L 0,53 L 1,54 L 1,60 L 2,61 L 2,64 L 3,65 L 3,66 L 4,67 L 4,71 L 5,72 L 5,75 L 4,76 L 4,80 L 3,81 L 3,83 L 7,83 L 8,82 L 10,82 L 11,81 L 13,81 L 13,79 L 14,78 L 14,77 L 15,76 L 16,76 L 18,74 L 18,73 L 20,71 L 20,70 L 21,69 L 21,68 L 22,67 L 22,66 L 23,65 L 23,64 L 25,62 L 25,61 L 26,60 L 27,60 L 28,59 L 41,59 L 43,57 L 47,57 L 48,56 L 51,56 L 52,55 L 56,55 L 57,56 L 67,56 L 68,57 L 69,57 L 70,58 L 71,58 L 72,59 L 73,59 L 74,60 L 75,60 L 77,62 L 79,62 L 79,58 L 80,57 L 80,55 L 81,54 L 84,54 L 84,52 L 85,51 L 86,51 L 86,47 L 87,46 L 87,41 L 88,40 L 88,38 L 87,38 L 86,37 L 86,29 L 89,26 L 89,20 L 84,15 L 84,9 L 83,9 L 81,7 L 77,7 L 76,6 L 76,5 L 73,2 L 73,1 L 69,1 L 68,0 Z" fill="none" stroke="black" stroke-width="1"/>
</svg>