<svg xmlns="http://www.w3.org/2000/svg" width="159" height="172">
  <path d="M 16,92 L 15,93 L 12,93 L 11,94 L 11,99 L 10,100 L 10,104 L 11,105 L 11,108 L 12,109 L 14,109 L 15,110 L 15,115 L 14,116 L 18,116 L 19,115 L 23,115 L 24,116 L 26,116 L 27,117 L 27,119 L 29,119 L 30,120 L 30,122 L 32,122 L 33,123 L 35,123 L 36,124 L 36,125 L 37,125 L 38,126 L 38,127 L 39,128 L 39,129 L 43,129 L 44,130 L 46,130 L 48,132 L 48,133 L 55,133 L 56,134 L 57,134 L 58,135 L 59,135 L 60,136 L 60,137 L 63,137 L 64,138 L 64,140 L 65,140 L 66,141 L 66,142 L 69,142 L 70,143 L 70,144 L 73,144 L 74,145 L 74,146 L 78,146 L 79,147 L 79,148 L 82,148 L 83,149 L 83,150 L 85,150 L 86,151 L 93,151 L 94,150 L 94,145 L 93,144 L 93,139 L 92,138 L 92,137 L 90,135 L 90,131 L 88,129 L 88,127 L 87,127 L 86,126 L 86,125 L 85,124 L 83,124 L 82,123 L 79,123 L 78,122 L 77,122 L 74,119 L 74,116 L 73,115 L 73,103 L 70,103 L 69,102 L 59,102 L 58,101 L 56,101 L 55,100 L 54,100 L 53,99 L 49,99 L 48,98 L 48,97 L 45,97 L 44,96 L 39,96 L 38,97 L 31,97 L 30,96 L 21,96 L 19,94 L 19,92 Z" fill="none" stroke="black" stroke-width="1"/>
</svg>