<svg xmlns="http://www.w3.org/2000/svg" width="130" height="125">
  <path d="M 45,27 L 44,28 L 43,28 L 43,30 L 42,31 L 40,31 L 40,32 L 39,33 L 36,33 L 36,34 L 37,35 L 37,41 L 36,42 L 36,48 L 39,51 L 39,54 L 40,53 L 41,53 L 42,52 L 45,52 L 46,51 L 52,51 L 53,52 L 55,52 L 56,53 L 56,55 L 55,56 L 55,58 L 56,57 L 61,57 L 62,58 L 65,58 L 66,59 L 67,59 L 68,60 L 70,60 L 71,59 L 73,59 L 74,58 L 75,58 L 76,57 L 77,57 L 78,56 L 79,56 L 81,54 L 87,54 L 88,53 L 92,53 L 93,52 L 94,52 L 95,51 L 95,49 L 94,48 L 94,47 L 93,46 L 92,46 L 91,45 L 91,42 L 90,42 L 89,41 L 89,40 L 88,40 L 87,39 L 87,38 L 85,38 L 84,37 L 84,36 L 82,36 L 81,35 L 81,34 L 79,34 L 78,33 L 74,33 L 73,32 L 73,31 L 72,30 L 69,30 L 68,29 L 63,29 L 62,30 L 56,30 L 53,27 Z" fill="none" stroke="black" stroke-width="1"/>
</svg>