<svg xmlns="http://www.w3.org/2000/svg" width="134" height="122">
  <path d="M 76,19 L 76,20 L 73,23 L 72,23 L 71,24 L 71,25 L 68,28 L 66,28 L 65,29 L 64,29 L 62,31 L 61,31 L 59,33 L 57,33 L 56,34 L 52,34 L 51,33 L 49,33 L 48,32 L 46,32 L 45,31 L 43,31 L 42,32 L 41,32 L 40,33 L 40,34 L 39,35 L 39,36 L 40,37 L 40,38 L 39,39 L 39,40 L 38,41 L 38,42 L 39,43 L 39,45 L 41,47 L 41,48 L 42,49 L 42,52 L 41,53 L 41,59 L 38,62 L 38,63 L 37,64 L 37,65 L 39,67 L 41,67 L 42,68 L 46,68 L 47,67 L 49,67 L 50,68 L 51,68 L 52,69 L 57,69 L 60,72 L 60,74 L 61,74 L 63,72 L 65,72 L 66,71 L 66,70 L 69,67 L 69,63 L 72,60 L 73,60 L 75,58 L 76,58 L 77,57 L 78,57 L 80,55 L 80,54 L 81,53 L 81,50 L 85,46 L 85,45 L 86,44 L 87,44 L 88,43 L 91,43 L 90,42 L 90,39 L 89,38 L 89,34 L 88,33 L 88,32 L 87,31 L 87,30 L 86,29 L 86,28 L 84,26 L 84,23 L 83,22 L 81,22 L 78,19 Z" fill="none" stroke="black" stroke-width="1"/>
</svg>