<svg xmlns="http://www.w3.org/2000/svg" width="104" height="123">
  <path d="M 78,0 L 78,4 L 77,5 L 77,6 L 76,7 L 74,7 L 74,9 L 73,10 L 69,10 L 69,11 L 68,12 L 65,12 L 65,18 L 64,19 L 61,19 L 61,26 L 62,26 L 63,27 L 63,28 L 62,29 L 61,29 L 61,32 L 62,33 L 62,42 L 61,43 L 59,43 L 59,50 L 62,50 L 64,48 L 66,48 L 68,46 L 71,46 L 72,45 L 73,45 L 74,44 L 76,44 L 77,43 L 78,43 L 79,42 L 80,42 L 84,38 L 85,38 L 86,37 L 88,37 L 88,36 L 89,35 L 90,35 L 90,34 L 91,33 L 91,23 L 92,22 L 92,18 L 91,17 L 91,16 L 90,15 L 90,12 L 89,11 L 89,10 L 88,9 L 88,5 L 87,5 L 86,4 L 86,3 L 85,3 L 84,2 L 83,3 L 82,3 L 81,2 L 80,2 Z" fill="none" stroke="black" stroke-width="1"/>
</svg>