<svg xmlns="http://www.w3.org/2000/svg" width="130" height="125">
  <path d="M 122,36 L 121,37 L 122,38 L 122,39 L 122,38 L 123,37 L 123,36 Z" fill="none" stroke="black" stroke-width="1"/>
  <path d="M 44,0 L 44,7 L 45,8 L 45,14 L 46,15 L 46,16 L 47,17 L 47,18 L 48,19 L 48,20 L 47,21 L 47,26 L 53,26 L 56,29 L 62,29 L 63,28 L 68,28 L 69,29 L 72,29 L 74,31 L 74,32 L 78,32 L 79,33 L 81,33 L 82,34 L 82,35 L 84,35 L 85,36 L 85,37 L 87,37 L 88,38 L 88,39 L 89,39 L 90,40 L 90,41 L 91,41 L 92,42 L 92,45 L 93,45 L 95,47 L 95,48 L 96,49 L 99,46 L 101,46 L 102,45 L 103,45 L 106,48 L 106,50 L 107,51 L 107,55 L 108,56 L 110,56 L 111,57 L 112,56 L 113,56 L 114,55 L 115,55 L 114,54 L 114,52 L 115,51 L 116,52 L 116,53 L 117,52 L 117,49 L 118,48 L 118,43 L 119,42 L 119,33 L 120,32 L 121,32 L 121,30 L 120,31 L 119,30 L 119,28 L 120,27 L 120,26 L 123,23 L 124,23 L 125,22 L 125,21 L 126,20 L 126,15 L 127,14 L 127,12 L 129,10 L 129,9 L 128,9 L 126,11 L 124,9 L 124,8 L 125,7 L 126,8 L 127,7 L 127,5 L 128,4 L 125,4 L 124,3 L 124,2 L 123,1 L 121,1 L 120,2 L 120,3 L 117,6 L 116,6 L 114,8 L 109,8 L 108,7 L 96,7 L 93,10 L 88,10 L 87,11 L 86,11 L 85,10 L 84,10 L 83,9 L 82,9 L 80,7 L 79,7 L 78,6 L 74,6 L 73,5 L 73,4 L 70,4 L 69,3 L 63,3 L 62,2 L 59,2 L 58,1 L 52,1 L 51,0 Z" fill="none" stroke="black" stroke-width="1"/>
</svg>