<svg xmlns="http://www.w3.org/2000/svg" width="121" height="134">
  <path d="M 65,59 L 63,61 L 63,62 L 62,63 L 60,63 L 56,67 L 55,67 L 54,68 L 53,68 L 52,69 L 50,69 L 49,70 L 47,70 L 46,71 L 45,71 L 44,72 L 42,72 L 41,71 L 33,71 L 32,72 L 32,76 L 33,77 L 33,79 L 34,80 L 34,82 L 35,83 L 35,88 L 36,89 L 36,91 L 37,92 L 37,93 L 38,94 L 38,95 L 39,96 L 39,97 L 41,99 L 41,101 L 42,102 L 42,105 L 41,106 L 41,108 L 42,109 L 43,109 L 45,111 L 46,111 L 47,112 L 48,112 L 49,113 L 50,113 L 51,112 L 51,110 L 52,109 L 53,109 L 55,111 L 57,111 L 58,112 L 61,112 L 62,111 L 64,111 L 65,110 L 73,110 L 74,109 L 77,109 L 78,110 L 83,110 L 83,107 L 84,106 L 86,106 L 85,105 L 85,102 L 86,101 L 89,101 L 89,99 L 90,98 L 92,98 L 92,93 L 93,92 L 95,92 L 95,90 L 96,89 L 97,89 L 97,87 L 98,86 L 101,86 L 97,82 L 97,81 L 96,80 L 96,74 L 93,71 L 87,71 L 86,70 L 85,70 L 84,69 L 84,68 L 81,65 L 81,64 L 80,63 L 80,60 L 75,60 L 75,61 L 74,62 L 71,62 L 68,59 Z" fill="none" stroke="black" stroke-width="1"/>
</svg>