<svg xmlns="http://www.w3.org/2000/svg" width="169" height="169">
  <path d="M 58,0 L 57,1 L 56,1 L 54,3 L 48,3 L 47,4 L 45,4 L 44,5 L 43,5 L 42,6 L 41,6 L 39,8 L 34,8 L 33,9 L 32,9 L 31,8 L 28,8 L 27,9 L 26,9 L 25,10 L 25,14 L 24,15 L 20,15 L 19,14 L 18,14 L 15,11 L 14,12 L 13,12 L 11,10 L 10,10 L 9,11 L 5,11 L 4,10 L 1,10 L 0,11 L 0,14 L 3,17 L 2,18 L 2,22 L 3,23 L 3,27 L 4,27 L 5,26 L 6,26 L 7,25 L 14,25 L 15,26 L 16,26 L 17,27 L 22,27 L 23,26 L 28,26 L 29,27 L 30,27 L 31,28 L 32,28 L 33,29 L 33,30 L 37,34 L 37,35 L 36,36 L 36,39 L 35,40 L 35,41 L 34,42 L 34,45 L 33,46 L 33,47 L 35,47 L 36,46 L 40,46 L 44,50 L 45,49 L 46,49 L 47,48 L 51,48 L 52,47 L 58,47 L 59,48 L 62,48 L 64,50 L 66,50 L 67,49 L 68,49 L 69,48 L 69,44 L 70,43 L 70,42 L 71,41 L 71,40 L 73,38 L 74,38 L 74,36 L 73,35 L 73,34 L 71,32 L 71,29 L 69,27 L 67,27 L 66,26 L 66,25 L 67,24 L 67,18 L 66,17 L 66,15 L 67,14 L 67,11 L 69,9 L 69,6 L 68,5 L 68,4 L 66,4 L 65,5 L 64,5 L 63,4 L 63,1 L 62,0 Z" fill="none" stroke="black" stroke-width="1"/>
</svg>