<svg xmlns="http://www.w3.org/2000/svg" width="92" height="118">
  <path d="M 9,19 L 4,24 L 4,27 L 2,29 L 0,29 L 1,30 L 1,31 L 0,32 L 1,32 L 4,29 L 5,29 L 10,24 L 10,22 L 11,21 L 11,20 L 10,19 Z" fill="none" stroke="black" stroke-width="1"/>
  <path d="M 23,12 L 20,15 L 19,15 L 19,18 L 20,19 L 20,20 L 19,21 L 18,20 L 18,25 L 19,26 L 20,26 L 21,27 L 20,28 L 18,28 L 18,29 L 19,30 L 19,31 L 20,32 L 20,35 L 19,36 L 18,35 L 18,34 L 17,34 L 16,33 L 16,27 L 15,26 L 15,25 L 13,25 L 13,27 L 12,28 L 10,28 L 11,29 L 10,30 L 9,30 L 8,31 L 7,31 L 6,32 L 5,32 L 2,35 L 1,35 L 1,36 L 4,39 L 6,39 L 7,38 L 7,37 L 9,35 L 11,37 L 12,37 L 13,38 L 15,38 L 16,39 L 18,37 L 22,37 L 23,38 L 26,38 L 27,37 L 31,37 L 32,38 L 33,38 L 34,37 L 36,37 L 36,36 L 37,35 L 42,35 L 44,33 L 46,33 L 48,31 L 48,30 L 49,29 L 49,28 L 50,27 L 50,25 L 51,24 L 52,24 L 52,22 L 53,21 L 53,17 L 54,16 L 54,15 L 53,14 L 47,14 L 46,13 L 40,13 L 39,14 L 38,14 L 37,15 L 33,15 L 31,13 L 29,13 L 28,12 Z" fill="none" stroke="black" stroke-width="1"/>
  <path d="M 35,9 L 33,11 L 34,12 L 37,12 L 38,11 L 38,9 Z" fill="none" stroke="black" stroke-width="1"/>
  <path d="M 20,7 L 20,10 L 19,11 L 18,11 L 17,10 L 18,9 L 17,9 L 16,10 L 15,10 L 17,10 L 18,11 L 17,12 L 15,12 L 14,13 L 17,16 L 15,18 L 13,16 L 13,15 L 13,16 L 14,17 L 14,18 L 15,18 L 16,19 L 15,20 L 14,20 L 13,21 L 13,22 L 16,22 L 15,21 L 16,20 L 16,18 L 17,17 L 17,15 L 16,14 L 18,12 L 19,12 L 22,9 L 22,8 L 21,8 Z" fill="none" stroke="black" stroke-width="1"/>
  <path d="M 23,1 L 23,5 L 22,6 L 23,6 L 24,7 L 24,9 L 28,9 L 29,10 L 30,10 L 33,7 L 34,7 L 35,6 L 34,5 L 29,5 L 28,6 L 27,6 L 26,7 L 24,7 L 23,6 Z" fill="none" stroke="black" stroke-width="1"/>
  <path d="M 27,0 L 26,1 L 25,1 L 25,4 L 26,3 L 27,3 L 29,1 L 29,0 Z" fill="none" stroke="black" stroke-width="1"/>
</svg>