<svg xmlns="http://www.w3.org/2000/svg" width="83" height="64">
  <path d="M 59,19 L 59,22 L 57,24 L 54,24 L 54,26 L 53,27 L 52,27 L 54,29 L 54,32 L 53,33 L 53,34 L 52,35 L 51,35 L 51,39 L 52,40 L 52,43 L 51,44 L 49,44 L 48,45 L 47,45 L 47,49 L 48,49 L 49,50 L 49,51 L 51,53 L 53,53 L 54,54 L 54,59 L 59,59 L 60,60 L 60,61 L 61,62 L 62,62 L 63,63 L 64,63 L 65,62 L 67,62 L 67,60 L 72,55 L 74,55 L 74,53 L 75,52 L 75,50 L 76,49 L 76,48 L 77,47 L 77,38 L 79,36 L 79,35 L 81,33 L 82,34 L 82,31 L 81,30 L 81,28 L 80,27 L 80,26 L 81,25 L 79,25 L 78,24 L 78,23 L 77,23 L 75,21 L 74,21 L 73,22 L 72,22 L 71,23 L 63,23 L 60,20 L 60,19 Z" fill="none" stroke="black" stroke-width="1"/>
</svg>