<svg xmlns="http://www.w3.org/2000/svg" width="114" height="77">
  <path d="M 51,0 L 50,1 L 49,1 L 47,3 L 44,3 L 43,4 L 42,4 L 41,5 L 40,5 L 39,6 L 38,6 L 38,7 L 37,8 L 36,8 L 33,11 L 32,11 L 31,12 L 29,12 L 28,11 L 27,11 L 24,8 L 19,8 L 18,7 L 17,7 L 16,8 L 15,8 L 13,10 L 12,10 L 10,12 L 10,14 L 11,15 L 11,16 L 10,17 L 10,21 L 11,22 L 11,24 L 9,26 L 7,26 L 6,27 L 6,28 L 4,30 L 4,31 L 3,32 L 3,34 L 2,35 L 2,42 L 1,43 L 1,47 L 0,48 L 0,53 L 1,53 L 2,54 L 2,58 L 3,59 L 3,60 L 4,61 L 4,62 L 6,64 L 6,65 L 7,66 L 11,66 L 12,67 L 13,67 L 16,70 L 16,71 L 17,72 L 17,73 L 18,73 L 19,72 L 21,72 L 27,66 L 28,66 L 31,63 L 31,61 L 33,59 L 33,57 L 34,56 L 34,55 L 35,54 L 35,53 L 40,48 L 40,43 L 38,43 L 37,42 L 37,27 L 38,26 L 39,26 L 39,22 L 40,21 L 45,21 L 45,19 L 46,18 L 47,18 L 48,17 L 48,15 L 49,14 L 50,14 L 50,11 L 51,10 L 52,10 L 53,9 L 53,7 L 54,6 L 57,6 L 58,5 L 59,5 L 60,4 L 60,1 L 57,1 L 56,0 Z" fill="none" stroke="black" stroke-width="1"/>
</svg>