<svg xmlns="http://www.w3.org/2000/svg" width="148" height="82">
  <path d="M 55,6 L 53,8 L 51,8 L 50,9 L 49,9 L 48,10 L 44,10 L 43,9 L 36,9 L 35,10 L 30,10 L 29,11 L 28,11 L 26,13 L 18,13 L 17,14 L 13,14 L 12,15 L 11,15 L 10,16 L 8,16 L 8,18 L 7,19 L 7,21 L 5,23 L 4,23 L 4,24 L 2,26 L 2,27 L 1,28 L 1,29 L 0,30 L 0,36 L 1,35 L 4,35 L 6,33 L 7,33 L 8,32 L 9,33 L 9,34 L 13,34 L 14,35 L 23,35 L 26,38 L 26,39 L 27,40 L 27,41 L 32,41 L 32,40 L 33,39 L 34,39 L 35,38 L 37,38 L 38,37 L 47,37 L 48,36 L 53,36 L 54,37 L 56,37 L 57,38 L 59,38 L 60,39 L 63,39 L 64,40 L 65,40 L 68,43 L 68,44 L 76,44 L 76,42 L 77,41 L 78,41 L 78,37 L 77,37 L 75,35 L 75,34 L 74,33 L 74,32 L 73,31 L 73,24 L 72,23 L 72,20 L 70,18 L 70,17 L 69,16 L 69,15 L 68,14 L 68,13 L 66,11 L 65,11 L 64,10 L 60,10 L 58,8 L 58,7 L 57,6 Z" fill="none" stroke="black" stroke-width="1"/>
</svg>