<svg xmlns="http://www.w3.org/2000/svg" width="116" height="82">
  <path d="M 93,22 L 92,23 L 91,23 L 90,24 L 90,25 L 89,26 L 89,29 L 88,30 L 88,32 L 89,33 L 89,35 L 88,36 L 88,37 L 87,38 L 87,39 L 85,41 L 84,41 L 83,40 L 80,40 L 79,39 L 78,39 L 76,41 L 75,41 L 74,40 L 69,40 L 68,41 L 66,41 L 64,43 L 60,43 L 58,45 L 58,46 L 56,48 L 54,48 L 55,49 L 55,52 L 56,53 L 56,56 L 55,57 L 55,61 L 53,63 L 53,64 L 54,64 L 55,65 L 58,65 L 59,66 L 61,66 L 62,67 L 64,67 L 65,68 L 67,68 L 68,69 L 73,69 L 74,70 L 76,70 L 77,71 L 78,71 L 79,72 L 80,72 L 81,73 L 81,76 L 80,77 L 80,78 L 79,79 L 79,80 L 81,80 L 82,81 L 88,81 L 89,80 L 90,80 L 90,79 L 91,78 L 92,78 L 92,77 L 94,75 L 94,74 L 96,72 L 96,70 L 98,68 L 98,67 L 99,66 L 99,63 L 101,61 L 101,60 L 103,58 L 103,54 L 107,50 L 107,49 L 108,48 L 111,48 L 112,47 L 112,45 L 114,43 L 114,38 L 115,37 L 115,36 L 112,33 L 110,33 L 109,32 L 107,32 L 106,31 L 104,31 L 98,25 L 98,24 L 97,23 L 96,23 L 95,22 Z" fill="none" stroke="black" stroke-width="1"/>
</svg>