<svg xmlns="http://www.w3.org/2000/svg" width="148" height="82">
  <path d="M 54,38 L 53,39 L 53,40 L 54,41 L 54,42 L 55,43 L 55,44 L 56,45 L 55,46 L 55,49 L 56,50 L 56,53 L 57,54 L 57,55 L 58,56 L 58,57 L 62,61 L 62,62 L 63,63 L 61,65 L 61,74 L 62,75 L 62,76 L 63,77 L 63,78 L 64,79 L 64,80 L 65,80 L 66,81 L 68,81 L 70,79 L 84,79 L 85,78 L 86,78 L 87,77 L 89,77 L 90,76 L 91,76 L 92,75 L 92,74 L 94,72 L 95,72 L 96,71 L 97,71 L 99,69 L 101,69 L 102,68 L 108,68 L 111,65 L 114,65 L 114,63 L 115,62 L 115,61 L 114,61 L 112,59 L 105,59 L 104,60 L 101,60 L 100,59 L 98,59 L 97,58 L 96,58 L 95,57 L 92,57 L 91,56 L 90,56 L 89,55 L 86,55 L 84,53 L 84,52 L 82,50 L 81,50 L 80,49 L 79,49 L 76,46 L 76,45 L 68,45 L 67,44 L 67,43 L 65,41 L 64,41 L 63,40 L 60,40 L 59,39 L 57,39 L 56,38 Z" fill="none" stroke="black" stroke-width="1"/>
</svg>