<svg xmlns="http://www.w3.org/2000/svg" width="91" height="110">
  <path d="M 50,50 L 48,52 L 47,52 L 46,53 L 46,54 L 45,55 L 44,55 L 42,57 L 41,57 L 40,58 L 39,58 L 38,59 L 37,59 L 36,60 L 36,61 L 37,61 L 39,63 L 40,63 L 41,64 L 41,69 L 40,70 L 40,71 L 39,72 L 39,76 L 40,77 L 43,77 L 45,79 L 45,81 L 46,82 L 46,83 L 47,83 L 48,84 L 48,86 L 49,87 L 49,90 L 50,91 L 50,94 L 51,95 L 51,98 L 48,101 L 47,101 L 46,102 L 45,102 L 44,103 L 43,103 L 42,104 L 42,105 L 43,105 L 45,107 L 46,107 L 47,108 L 48,108 L 49,109 L 50,109 L 51,108 L 56,108 L 59,105 L 64,105 L 64,96 L 65,95 L 65,94 L 67,92 L 68,92 L 68,90 L 69,89 L 69,88 L 72,85 L 72,84 L 74,82 L 74,81 L 78,77 L 78,75 L 76,73 L 76,70 L 75,69 L 75,67 L 74,66 L 74,58 L 69,53 L 67,53 L 66,54 L 61,54 L 60,53 L 56,53 L 54,51 L 51,51 Z" fill="none" stroke="black" stroke-width="1"/>
</svg>