<svg xmlns="http://www.w3.org/2000/svg" width="79" height="103">
  <path d="M 37,0 L 36,1 L 27,1 L 26,2 L 24,2 L 23,3 L 22,3 L 22,5 L 23,6 L 23,8 L 24,9 L 24,10 L 25,11 L 25,12 L 26,13 L 26,15 L 25,16 L 25,23 L 23,25 L 23,27 L 22,28 L 22,29 L 21,30 L 21,33 L 20,34 L 20,37 L 18,39 L 17,39 L 16,40 L 15,40 L 13,42 L 12,42 L 10,44 L 9,44 L 7,46 L 6,46 L 5,47 L 5,49 L 10,54 L 10,62 L 11,63 L 11,65 L 12,66 L 12,67 L 13,67 L 14,66 L 19,66 L 20,65 L 21,65 L 22,64 L 29,64 L 30,63 L 32,63 L 33,62 L 34,62 L 37,59 L 39,59 L 42,56 L 43,56 L 43,55 L 44,54 L 44,53 L 45,52 L 46,52 L 46,50 L 47,49 L 47,48 L 48,47 L 48,46 L 50,44 L 51,44 L 52,43 L 52,42 L 51,41 L 51,40 L 50,39 L 50,38 L 49,37 L 49,28 L 51,26 L 50,25 L 50,24 L 46,20 L 46,19 L 45,18 L 45,17 L 44,16 L 44,13 L 43,12 L 43,9 L 44,8 L 43,7 L 43,6 L 42,5 L 42,4 L 41,3 L 41,2 L 42,1 L 42,0 Z" fill="none" stroke="black" stroke-width="1"/>
</svg>