<svg xmlns="http://www.w3.org/2000/svg" width="91" height="110">
  <path d="M 62,0 L 61,1 L 60,1 L 58,3 L 55,3 L 54,4 L 53,3 L 52,4 L 52,6 L 50,8 L 47,8 L 47,9 L 43,13 L 43,17 L 41,19 L 41,20 L 39,22 L 39,25 L 38,26 L 38,27 L 36,29 L 36,31 L 34,33 L 34,34 L 32,36 L 32,37 L 33,38 L 33,39 L 34,40 L 34,44 L 37,44 L 38,45 L 39,45 L 40,46 L 40,47 L 42,47 L 43,48 L 46,48 L 47,47 L 48,47 L 51,50 L 54,50 L 56,52 L 60,52 L 61,53 L 66,53 L 67,52 L 69,52 L 69,51 L 71,49 L 72,49 L 74,47 L 75,47 L 77,45 L 78,45 L 80,43 L 81,43 L 82,42 L 83,42 L 84,41 L 84,38 L 85,37 L 85,34 L 86,33 L 86,32 L 87,31 L 87,29 L 89,27 L 89,20 L 90,19 L 90,17 L 89,16 L 89,15 L 88,14 L 88,13 L 87,12 L 87,10 L 86,9 L 81,9 L 80,8 L 80,7 L 79,6 L 79,5 L 77,3 L 68,3 L 67,2 L 63,2 L 62,1 Z" fill="none" stroke="black" stroke-width="1"/>
</svg>