<svg xmlns="http://www.w3.org/2000/svg" width="114" height="77">
  <path d="M 95,23 L 93,25 L 90,25 L 86,29 L 86,30 L 85,31 L 84,31 L 81,34 L 81,35 L 80,36 L 80,38 L 78,40 L 78,42 L 77,43 L 77,44 L 76,45 L 76,46 L 72,50 L 72,51 L 68,55 L 68,56 L 69,57 L 69,58 L 73,62 L 73,65 L 72,66 L 72,70 L 73,71 L 74,71 L 75,72 L 76,72 L 78,74 L 80,74 L 81,73 L 84,73 L 85,74 L 86,74 L 88,76 L 89,76 L 90,75 L 92,75 L 93,76 L 93,74 L 94,73 L 94,71 L 95,70 L 95,68 L 96,67 L 97,67 L 98,66 L 102,66 L 103,65 L 109,65 L 109,63 L 111,61 L 111,55 L 109,53 L 109,52 L 108,51 L 108,49 L 107,48 L 107,47 L 108,46 L 108,43 L 109,42 L 109,41 L 110,40 L 110,39 L 111,38 L 111,36 L 110,35 L 110,33 L 111,32 L 112,32 L 112,31 L 113,30 L 113,27 L 112,27 L 111,26 L 111,25 L 107,25 L 106,24 L 100,24 L 99,23 Z" fill="none" stroke="black" stroke-width="1"/>
</svg>