<svg xmlns="http://www.w3.org/2000/svg" width="148" height="82">
  <path d="M 134,17 L 133,18 L 132,18 L 132,20 L 129,23 L 129,24 L 128,25 L 128,26 L 127,27 L 127,28 L 124,31 L 123,31 L 122,32 L 120,32 L 118,34 L 117,34 L 115,36 L 114,36 L 112,38 L 112,39 L 111,40 L 111,42 L 112,43 L 112,51 L 111,52 L 111,58 L 112,58 L 114,60 L 115,60 L 116,61 L 116,62 L 115,63 L 115,64 L 123,64 L 128,59 L 128,58 L 129,57 L 130,57 L 131,56 L 132,56 L 133,55 L 133,52 L 138,47 L 138,37 L 144,31 L 145,31 L 146,30 L 146,27 L 147,26 L 147,20 L 146,20 L 145,19 L 143,19 L 142,20 L 141,20 L 139,18 L 138,18 L 137,17 Z" fill="none" stroke="black" stroke-width="1"/>
</svg>