<svg xmlns="http://www.w3.org/2000/svg" width="125" height="104">
  <path d="M 20,0 L 19,1 L 18,1 L 17,2 L 16,2 L 15,3 L 13,3 L 12,4 L 12,5 L 11,6 L 10,6 L 9,7 L 5,7 L 5,8 L 2,11 L 2,13 L 1,14 L 1,21 L 0,22 L 0,24 L 1,25 L 1,30 L 2,30 L 3,31 L 3,33 L 4,34 L 4,35 L 6,35 L 7,36 L 7,39 L 9,39 L 10,40 L 10,41 L 11,41 L 12,42 L 12,43 L 14,43 L 15,44 L 15,47 L 29,47 L 30,48 L 30,50 L 35,50 L 36,49 L 36,48 L 37,47 L 37,46 L 38,45 L 38,44 L 39,43 L 39,41 L 40,40 L 40,37 L 41,36 L 41,25 L 42,24 L 42,20 L 43,19 L 45,19 L 45,18 L 46,17 L 46,16 L 48,14 L 49,14 L 49,10 L 48,9 L 48,4 L 47,3 L 47,0 L 43,0 L 42,1 L 41,1 L 40,2 L 39,2 L 38,3 L 37,3 L 35,5 L 33,5 L 32,4 L 31,4 L 30,3 L 28,3 L 27,2 L 26,2 L 25,1 L 22,1 L 21,0 Z" fill="none" stroke="black" stroke-width="1"/>
</svg>