<svg xmlns="http://www.w3.org/2000/svg" width="96" height="66">
  <path d="M 7,0 L 6,1 L 3,1 L 3,2 L 2,3 L 1,3 L 1,6 L 0,7 L 0,9 L 1,10 L 1,11 L 3,13 L 3,16 L 2,17 L 2,20 L 8,20 L 9,19 L 10,19 L 10,18 L 11,17 L 13,17 L 15,15 L 17,17 L 15,19 L 14,19 L 15,19 L 16,20 L 16,22 L 15,23 L 12,20 L 12,21 L 15,24 L 16,24 L 17,25 L 18,25 L 21,28 L 22,28 L 23,29 L 27,29 L 28,28 L 32,28 L 33,29 L 34,29 L 33,28 L 33,27 L 34,26 L 34,25 L 35,24 L 34,23 L 34,20 L 33,19 L 32,19 L 31,18 L 31,17 L 30,16 L 30,14 L 29,13 L 29,12 L 28,12 L 27,11 L 26,11 L 24,9 L 24,8 L 23,7 L 23,4 L 24,3 L 22,1 L 21,1 L 20,2 L 17,2 L 16,1 L 14,1 L 13,2 L 13,3 L 11,5 L 9,5 L 8,4 L 9,3 L 9,2 Z" fill="none" stroke="black" stroke-width="1"/>
</svg>