<svg xmlns="http://www.w3.org/2000/svg" width="90" height="85">
  <path d="M 8,52 L 6,54 L 5,54 L 5,55 L 4,56 L 2,56 L 3,56 L 5,58 L 6,58 L 7,59 L 7,60 L 9,60 L 10,61 L 9,62 L 9,63 L 10,64 L 10,66 L 11,67 L 11,70 L 10,71 L 9,70 L 8,71 L 8,72 L 6,74 L 6,76 L 7,76 L 8,77 L 9,77 L 15,83 L 16,83 L 17,84 L 20,84 L 21,83 L 22,83 L 25,80 L 30,80 L 33,83 L 40,83 L 41,82 L 44,82 L 45,83 L 46,83 L 47,84 L 48,84 L 48,83 L 46,81 L 46,80 L 47,79 L 48,79 L 49,78 L 49,77 L 50,76 L 50,73 L 49,72 L 49,70 L 50,69 L 47,66 L 47,64 L 45,64 L 44,63 L 44,62 L 43,61 L 40,61 L 39,60 L 39,59 L 38,59 L 37,58 L 35,58 L 34,57 L 28,57 L 27,58 L 25,58 L 24,59 L 23,58 L 22,59 L 21,59 L 20,58 L 19,58 L 18,57 L 16,57 L 15,56 L 14,56 L 13,55 L 13,54 L 12,53 L 11,53 L 10,52 Z" fill="none" stroke="black" stroke-width="1"/>
</svg>