<svg xmlns="http://www.w3.org/2000/svg" width="125" height="104">
  <path d="M 48,15 L 47,16 L 47,17 L 46,18 L 46,19 L 45,20 L 43,20 L 43,24 L 42,25 L 42,36 L 41,37 L 41,40 L 40,41 L 40,43 L 39,44 L 39,45 L 38,46 L 38,47 L 37,48 L 37,49 L 35,51 L 35,53 L 36,54 L 36,56 L 37,56 L 38,55 L 39,55 L 40,54 L 44,54 L 45,55 L 45,56 L 51,56 L 52,57 L 52,59 L 54,59 L 55,60 L 55,62 L 61,62 L 62,63 L 71,63 L 72,64 L 72,66 L 73,66 L 73,65 L 76,62 L 76,61 L 77,60 L 77,58 L 80,55 L 81,55 L 81,53 L 83,51 L 83,50 L 85,48 L 85,41 L 84,40 L 84,39 L 83,38 L 83,35 L 84,34 L 84,33 L 85,32 L 85,29 L 82,26 L 81,26 L 80,25 L 78,25 L 77,24 L 69,24 L 68,23 L 67,23 L 65,21 L 64,21 L 63,20 L 61,20 L 60,19 L 59,19 L 58,18 L 57,18 L 56,17 L 54,17 L 53,16 L 52,16 L 51,15 Z" fill="none" stroke="black" stroke-width="1"/>
</svg>