<svg xmlns="http://www.w3.org/2000/svg" width="125" height="104">
  <path d="M 104,34 L 103,35 L 102,35 L 102,37 L 100,39 L 99,39 L 98,40 L 98,41 L 96,43 L 86,43 L 86,48 L 84,50 L 84,51 L 82,53 L 82,55 L 81,56 L 80,56 L 78,58 L 78,60 L 77,61 L 77,62 L 74,65 L 74,66 L 77,66 L 78,67 L 78,68 L 79,68 L 80,69 L 80,73 L 79,74 L 79,77 L 81,79 L 81,82 L 82,83 L 82,86 L 83,87 L 83,90 L 84,91 L 84,92 L 85,92 L 86,93 L 87,93 L 88,94 L 89,94 L 90,95 L 92,95 L 94,97 L 94,98 L 95,99 L 96,99 L 97,100 L 97,102 L 100,102 L 101,103 L 105,103 L 107,101 L 107,100 L 108,99 L 108,98 L 110,96 L 110,95 L 111,94 L 111,87 L 110,87 L 109,86 L 109,84 L 108,83 L 108,82 L 109,81 L 109,78 L 110,77 L 110,74 L 111,73 L 111,72 L 112,71 L 112,70 L 113,69 L 117,69 L 117,67 L 118,66 L 118,65 L 120,63 L 120,62 L 122,60 L 122,59 L 123,58 L 123,53 L 124,52 L 124,49 L 123,49 L 122,48 L 121,48 L 120,47 L 119,47 L 117,45 L 116,45 L 113,42 L 113,41 L 112,40 L 112,39 L 111,38 L 111,37 L 109,35 L 107,35 L 106,34 Z" fill="none" stroke="black" stroke-width="1"/>
</svg>