<svg xmlns="http://www.w3.org/2000/svg" width="121" height="134">
  <path d="M 7,54 L 7,55 L 6,56 L 6,57 L 5,58 L 5,61 L 4,62 L 4,65 L 3,66 L 3,67 L 4,68 L 4,70 L 5,70 L 6,71 L 6,78 L 5,79 L 5,80 L 3,82 L 3,83 L 2,84 L 2,85 L 0,87 L 0,89 L 3,92 L 3,93 L 7,93 L 9,95 L 10,95 L 11,96 L 11,102 L 16,107 L 16,113 L 13,116 L 13,124 L 14,124 L 15,125 L 15,127 L 14,128 L 14,133 L 20,133 L 21,132 L 23,132 L 24,131 L 27,131 L 28,130 L 35,130 L 37,128 L 49,128 L 49,126 L 50,125 L 50,122 L 52,120 L 52,119 L 50,117 L 50,114 L 49,114 L 48,113 L 47,113 L 46,112 L 45,112 L 43,110 L 42,110 L 40,108 L 40,106 L 41,105 L 41,102 L 40,101 L 40,99 L 38,97 L 38,96 L 37,95 L 37,94 L 36,93 L 36,92 L 35,91 L 35,89 L 34,88 L 34,83 L 33,82 L 33,80 L 32,79 L 32,77 L 31,76 L 31,72 L 32,71 L 30,69 L 30,67 L 29,67 L 28,66 L 28,65 L 27,64 L 27,63 L 26,62 L 26,61 L 24,59 L 23,59 L 22,58 L 21,58 L 20,57 L 19,57 L 17,55 L 11,55 L 10,54 Z" fill="none" stroke="black" stroke-width="1"/>
</svg>