<svg xmlns="http://www.w3.org/2000/svg" width="121" height="134">
  <path d="M 58,14 L 57,15 L 55,15 L 54,16 L 50,16 L 49,17 L 48,17 L 47,18 L 46,18 L 46,20 L 45,21 L 42,21 L 40,23 L 39,23 L 39,24 L 38,25 L 37,25 L 34,28 L 34,31 L 32,33 L 31,33 L 30,34 L 27,34 L 26,35 L 24,35 L 23,34 L 22,34 L 21,33 L 19,33 L 19,36 L 18,37 L 18,42 L 17,43 L 17,44 L 15,46 L 15,47 L 13,49 L 13,50 L 12,51 L 12,53 L 11,54 L 17,54 L 19,56 L 20,56 L 21,57 L 22,57 L 23,58 L 24,58 L 27,61 L 27,62 L 28,63 L 28,64 L 29,65 L 29,66 L 30,66 L 31,67 L 31,69 L 32,70 L 41,70 L 42,71 L 44,71 L 45,70 L 46,70 L 47,69 L 49,69 L 50,68 L 52,68 L 53,67 L 54,67 L 55,66 L 56,66 L 60,62 L 62,62 L 62,61 L 65,58 L 67,58 L 66,57 L 66,54 L 67,53 L 67,48 L 66,48 L 65,47 L 64,47 L 63,48 L 62,48 L 61,47 L 60,47 L 58,45 L 58,39 L 59,38 L 59,36 L 60,35 L 60,34 L 61,33 L 61,31 L 62,30 L 62,27 L 63,26 L 63,24 L 64,23 L 64,22 L 66,20 L 66,19 L 67,18 L 67,16 L 66,15 L 63,15 L 62,14 Z" fill="none" stroke="black" stroke-width="1"/>
</svg>