<svg xmlns="http://www.w3.org/2000/svg" width="121" height="134">
  <path d="M 84,0 L 80,4 L 80,5 L 79,6 L 78,6 L 76,8 L 76,9 L 75,10 L 75,11 L 71,15 L 71,16 L 70,17 L 68,17 L 68,18 L 67,19 L 67,20 L 65,22 L 65,23 L 64,24 L 64,26 L 63,27 L 63,30 L 62,31 L 62,33 L 61,34 L 61,35 L 60,36 L 60,38 L 59,39 L 59,45 L 60,46 L 61,46 L 62,47 L 63,47 L 64,46 L 65,46 L 66,47 L 67,47 L 68,48 L 68,53 L 67,54 L 67,57 L 71,61 L 74,61 L 74,60 L 75,59 L 80,59 L 81,60 L 81,63 L 82,64 L 82,65 L 85,68 L 85,69 L 86,69 L 87,70 L 93,70 L 96,73 L 101,73 L 104,70 L 105,70 L 106,69 L 109,69 L 110,68 L 110,67 L 111,66 L 111,57 L 114,54 L 114,49 L 116,47 L 116,45 L 119,42 L 119,39 L 120,38 L 120,34 L 119,33 L 119,30 L 120,29 L 120,27 L 119,26 L 119,17 L 118,16 L 118,12 L 117,11 L 116,11 L 115,10 L 113,10 L 112,9 L 111,9 L 107,13 L 106,13 L 105,14 L 104,14 L 102,12 L 101,12 L 98,9 L 97,9 L 95,7 L 95,3 L 93,1 L 92,1 L 91,0 Z" fill="none" stroke="black" stroke-width="1"/>
</svg>