<svg xmlns="http://www.w3.org/2000/svg" width="115" height="109">
  <path d="M 14,50 L 14,52 L 13,53 L 12,53 L 12,55 L 11,56 L 9,56 L 9,61 L 8,62 L 6,62 L 6,64 L 5,65 L 2,65 L 2,68 L 3,69 L 2,70 L 0,70 L 0,78 L 1,78 L 2,79 L 2,84 L 3,84 L 5,86 L 6,86 L 7,87 L 7,88 L 8,88 L 9,89 L 9,91 L 12,94 L 15,94 L 16,95 L 17,95 L 19,97 L 19,98 L 20,99 L 20,98 L 23,95 L 23,94 L 26,91 L 27,91 L 28,90 L 29,90 L 29,89 L 30,88 L 29,87 L 29,86 L 28,85 L 28,84 L 30,82 L 30,81 L 34,77 L 34,76 L 35,75 L 35,72 L 38,69 L 39,69 L 40,68 L 40,67 L 45,62 L 45,60 L 46,59 L 46,58 L 45,58 L 44,57 L 43,57 L 42,58 L 36,58 L 35,57 L 27,57 L 25,55 L 23,55 L 21,53 L 20,53 L 18,51 L 18,50 Z" fill="none" stroke="black" stroke-width="1"/>
</svg>