<svg xmlns="http://www.w3.org/2000/svg" width="115" height="109">
  <path d="M 57,54 L 56,55 L 55,55 L 53,57 L 52,57 L 51,58 L 50,58 L 49,59 L 47,59 L 46,60 L 46,62 L 41,67 L 41,68 L 39,70 L 38,70 L 36,72 L 36,75 L 35,76 L 35,77 L 31,81 L 31,82 L 29,84 L 29,85 L 30,86 L 30,87 L 31,88 L 30,89 L 30,90 L 29,91 L 28,91 L 27,92 L 26,92 L 24,94 L 24,95 L 21,98 L 21,100 L 24,103 L 26,103 L 27,104 L 29,104 L 30,105 L 32,105 L 35,108 L 36,108 L 36,107 L 38,105 L 38,104 L 39,103 L 40,103 L 41,102 L 41,100 L 42,99 L 42,97 L 43,96 L 45,96 L 46,95 L 47,95 L 48,94 L 52,94 L 53,93 L 61,93 L 63,91 L 64,91 L 65,90 L 70,90 L 71,89 L 71,80 L 67,76 L 67,74 L 66,73 L 66,72 L 65,71 L 65,67 L 64,66 L 64,64 L 65,63 L 65,62 L 66,61 L 66,57 L 64,55 L 64,54 Z" fill="none" stroke="black" stroke-width="1"/>
</svg>