<svg xmlns="http://www.w3.org/2000/svg" width="115" height="109">
  <path d="M 110,0 L 110,1 L 109,2 L 102,2 L 100,4 L 94,4 L 93,5 L 90,5 L 89,6 L 87,6 L 86,7 L 85,7 L 84,6 L 80,6 L 78,4 L 68,4 L 66,2 L 65,2 L 64,1 L 63,2 L 62,2 L 60,4 L 59,4 L 59,5 L 57,7 L 57,8 L 55,10 L 55,13 L 54,14 L 54,16 L 55,17 L 55,18 L 56,19 L 56,21 L 57,22 L 58,22 L 59,23 L 60,23 L 61,24 L 61,25 L 62,26 L 63,26 L 64,27 L 67,27 L 68,28 L 70,28 L 73,31 L 73,33 L 76,36 L 76,41 L 75,42 L 75,45 L 76,46 L 76,47 L 77,47 L 79,45 L 80,46 L 81,46 L 83,48 L 84,48 L 85,49 L 86,49 L 88,51 L 89,51 L 91,53 L 92,53 L 93,52 L 93,51 L 95,49 L 97,49 L 98,48 L 98,46 L 97,45 L 97,41 L 98,40 L 98,39 L 97,38 L 97,36 L 100,33 L 101,33 L 103,31 L 104,31 L 105,30 L 106,30 L 107,31 L 112,31 L 114,29 L 114,25 L 113,24 L 112,24 L 110,22 L 110,20 L 109,19 L 109,18 L 107,16 L 107,12 L 108,11 L 108,9 L 109,8 L 109,7 L 111,5 L 111,1 Z" fill="none" stroke="black" stroke-width="1"/>
</svg>