<svg xmlns="http://www.w3.org/2000/svg" width="79" height="131">
  <path d="M 13,84 L 12,85 L 10,85 L 9,86 L 4,86 L 3,87 L 3,91 L 2,92 L 2,96 L 0,98 L 0,103 L 1,104 L 1,113 L 2,114 L 2,116 L 1,117 L 1,120 L 2,121 L 2,124 L 8,124 L 9,125 L 16,125 L 17,126 L 19,126 L 20,127 L 25,127 L 27,125 L 28,125 L 29,124 L 30,125 L 31,125 L 33,127 L 43,127 L 45,129 L 49,129 L 50,130 L 51,130 L 52,129 L 54,129 L 55,128 L 58,128 L 59,127 L 59,122 L 60,121 L 60,120 L 58,118 L 58,117 L 55,114 L 53,114 L 52,113 L 50,113 L 48,111 L 47,111 L 45,109 L 45,108 L 44,108 L 42,106 L 40,106 L 36,102 L 34,102 L 32,100 L 26,100 L 25,99 L 25,98 L 24,98 L 23,97 L 23,96 L 21,94 L 19,94 L 17,92 L 17,84 Z" fill="none" stroke="black" stroke-width="1"/>
</svg>