<svg xmlns="http://www.w3.org/2000/svg" width="79" height="131">
  <path d="M 37,0 L 36,1 L 33,1 L 33,5 L 38,5 L 39,6 L 39,7 L 40,7 L 41,8 L 40,9 L 40,13 L 41,14 L 40,15 L 38,15 L 38,19 L 37,20 L 34,20 L 34,24 L 33,25 L 29,25 L 29,26 L 28,27 L 26,27 L 26,34 L 25,35 L 24,35 L 24,42 L 25,42 L 26,43 L 26,51 L 27,52 L 27,53 L 28,54 L 28,55 L 29,56 L 29,57 L 30,58 L 30,59 L 31,60 L 31,68 L 30,69 L 30,71 L 29,72 L 29,79 L 30,79 L 32,77 L 34,77 L 37,74 L 40,74 L 42,76 L 43,76 L 44,77 L 45,77 L 46,78 L 46,79 L 50,79 L 51,80 L 57,80 L 58,81 L 70,81 L 70,78 L 69,77 L 69,76 L 68,75 L 68,71 L 67,71 L 66,70 L 66,68 L 63,65 L 63,64 L 62,63 L 62,60 L 63,59 L 63,57 L 64,56 L 64,48 L 63,47 L 62,47 L 59,44 L 59,43 L 56,40 L 56,39 L 52,35 L 52,34 L 53,33 L 54,33 L 54,26 L 55,25 L 56,25 L 56,10 L 55,9 L 55,7 L 54,6 L 54,5 L 53,5 L 52,4 L 49,4 L 48,3 L 48,1 L 44,1 L 43,0 Z" fill="none" stroke="black" stroke-width="1"/>
</svg>