<svg xmlns="http://www.w3.org/2000/svg" width="50" height="72">
  <path d="M 19,45 L 19,47 L 17,49 L 15,49 L 14,50 L 8,50 L 7,49 L 4,49 L 4,50 L 2,52 L 2,55 L 1,56 L 1,59 L 0,60 L 2,62 L 2,63 L 3,64 L 3,65 L 4,66 L 4,67 L 5,68 L 15,68 L 16,69 L 17,69 L 19,71 L 24,71 L 25,70 L 30,70 L 31,69 L 32,69 L 33,68 L 35,68 L 35,67 L 34,66 L 33,66 L 32,65 L 31,65 L 30,64 L 30,63 L 29,62 L 29,59 L 28,58 L 28,57 L 27,57 L 25,55 L 25,51 L 24,50 L 24,49 L 23,49 Z" fill="none" stroke="black" stroke-width="1"/>
</svg>