<svg xmlns="http://www.w3.org/2000/svg" width="79" height="131">
  <path d="M 27,75 L 22,80 L 22,81 L 20,83 L 18,83 L 18,92 L 19,93 L 21,93 L 24,96 L 24,97 L 25,97 L 26,98 L 26,99 L 32,99 L 34,101 L 36,101 L 40,105 L 42,105 L 44,107 L 45,107 L 46,108 L 46,109 L 47,110 L 48,110 L 50,112 L 52,112 L 53,113 L 55,113 L 59,117 L 59,118 L 61,120 L 61,121 L 60,122 L 60,127 L 65,127 L 67,125 L 74,125 L 74,117 L 73,116 L 73,113 L 75,111 L 75,105 L 74,104 L 74,103 L 71,100 L 71,97 L 72,96 L 72,94 L 73,93 L 73,92 L 74,91 L 74,90 L 78,86 L 78,84 L 77,83 L 75,83 L 74,82 L 58,82 L 57,81 L 51,81 L 50,80 L 46,80 L 45,79 L 45,78 L 44,78 L 43,77 L 42,77 L 40,75 L 37,75 L 34,78 L 32,78 L 30,80 L 29,80 L 28,79 L 28,75 Z" fill="none" stroke="black" stroke-width="1"/>
</svg>