<svg xmlns="http://www.w3.org/2000/svg" width="62" height="90">
  <path d="M 12,55 L 12,57 L 10,59 L 10,60 L 9,61 L 9,62 L 8,63 L 8,69 L 9,70 L 9,71 L 8,72 L 8,73 L 7,74 L 7,75 L 6,76 L 5,76 L 5,77 L 11,83 L 11,85 L 12,86 L 12,87 L 13,88 L 14,88 L 15,89 L 20,89 L 20,88 L 22,86 L 23,87 L 23,86 L 24,85 L 24,84 L 23,83 L 24,82 L 25,82 L 26,81 L 26,80 L 24,78 L 25,77 L 26,77 L 28,79 L 31,76 L 32,76 L 34,74 L 35,74 L 36,73 L 37,73 L 37,72 L 38,71 L 38,70 L 35,70 L 34,69 L 32,69 L 31,68 L 30,68 L 26,64 L 24,64 L 23,63 L 21,63 L 19,61 L 18,61 L 17,60 L 17,59 L 15,57 L 15,56 L 14,55 Z" fill="none" stroke="black" stroke-width="1"/>
</svg>