<svg xmlns="http://www.w3.org/2000/svg" width="134" height="122">
  <path d="M 105,27 L 102,30 L 100,30 L 99,31 L 97,31 L 96,32 L 95,32 L 94,33 L 92,33 L 91,34 L 90,34 L 90,38 L 91,39 L 91,42 L 92,43 L 95,43 L 96,44 L 98,44 L 99,45 L 101,45 L 102,44 L 107,44 L 109,46 L 111,46 L 113,48 L 114,48 L 115,49 L 116,49 L 117,50 L 117,51 L 120,51 L 121,52 L 122,52 L 122,51 L 123,50 L 124,50 L 124,49 L 125,48 L 125,47 L 126,46 L 126,45 L 125,44 L 125,38 L 126,37 L 126,36 L 127,35 L 127,34 L 125,34 L 124,33 L 122,33 L 120,31 L 119,31 L 116,28 L 115,28 L 114,27 Z" fill="none" stroke="black" stroke-width="1"/>
</svg>