<svg xmlns="http://www.w3.org/2000/svg" width="89" height="138">
  <path d="M 38,0 L 37,1 L 36,1 L 36,2 L 32,6 L 32,9 L 31,10 L 31,11 L 28,14 L 27,14 L 26,15 L 25,15 L 23,17 L 22,17 L 20,19 L 20,23 L 17,26 L 19,26 L 20,27 L 22,27 L 25,30 L 26,30 L 32,36 L 32,38 L 36,42 L 37,42 L 38,43 L 41,43 L 42,44 L 49,44 L 50,43 L 50,42 L 51,41 L 51,40 L 53,38 L 54,38 L 55,37 L 55,36 L 61,30 L 63,30 L 64,29 L 67,29 L 69,27 L 70,27 L 71,26 L 72,26 L 74,24 L 74,22 L 75,21 L 75,20 L 77,18 L 77,17 L 78,16 L 78,14 L 73,9 L 71,9 L 70,8 L 67,8 L 66,7 L 66,6 L 65,6 L 64,5 L 63,5 L 61,3 L 59,3 L 57,1 L 52,1 L 51,2 L 49,2 L 48,1 L 46,1 L 45,0 Z" fill="none" stroke="black" stroke-width="1"/>
</svg>