<svg xmlns="http://www.w3.org/2000/svg" width="134" height="122">
  <path d="M 97,0 L 96,1 L 95,1 L 91,5 L 91,8 L 88,11 L 88,12 L 87,13 L 85,13 L 83,15 L 83,16 L 82,17 L 81,17 L 80,18 L 79,18 L 79,19 L 81,21 L 83,21 L 85,23 L 85,26 L 87,28 L 87,29 L 88,30 L 88,31 L 89,32 L 89,33 L 91,33 L 92,32 L 94,32 L 95,31 L 96,31 L 97,30 L 99,30 L 100,29 L 102,29 L 105,26 L 114,26 L 115,27 L 116,27 L 119,30 L 120,30 L 122,32 L 124,32 L 125,33 L 128,33 L 129,32 L 129,30 L 130,29 L 130,28 L 131,27 L 131,25 L 133,23 L 132,22 L 131,22 L 129,20 L 129,18 L 128,17 L 128,13 L 127,12 L 127,11 L 126,10 L 126,9 L 125,8 L 125,7 L 124,6 L 123,7 L 122,7 L 121,6 L 121,5 L 119,3 L 117,3 L 116,4 L 115,4 L 113,6 L 112,6 L 110,4 L 110,3 L 108,1 L 104,1 L 103,0 Z" fill="none" stroke="black" stroke-width="1"/>
</svg>