<svg xmlns="http://www.w3.org/2000/svg" width="89" height="138">
  <path d="M 17,27 L 15,29 L 13,29 L 11,31 L 11,34 L 12,35 L 12,36 L 11,37 L 11,39 L 10,40 L 10,43 L 9,44 L 9,45 L 8,46 L 8,50 L 6,52 L 6,63 L 5,64 L 5,65 L 3,67 L 3,69 L 0,72 L 1,73 L 3,73 L 4,74 L 5,74 L 9,78 L 12,78 L 13,79 L 14,79 L 15,80 L 17,80 L 18,81 L 19,81 L 20,82 L 21,82 L 22,83 L 22,84 L 24,86 L 24,89 L 25,89 L 26,88 L 30,88 L 31,89 L 37,89 L 38,90 L 42,90 L 43,91 L 43,92 L 50,92 L 51,91 L 52,91 L 53,90 L 53,82 L 52,81 L 52,71 L 53,70 L 53,66 L 54,65 L 54,62 L 55,61 L 55,50 L 52,47 L 51,47 L 49,45 L 42,45 L 41,44 L 38,44 L 37,43 L 36,43 L 31,38 L 31,36 L 26,31 L 25,31 L 22,28 L 20,28 L 19,27 Z" fill="none" stroke="black" stroke-width="1"/>
</svg>