<svg xmlns="http://www.w3.org/2000/svg" width="134" height="122">
  <path d="M 36,65 L 36,66 L 35,67 L 35,69 L 34,70 L 34,74 L 35,75 L 35,93 L 33,95 L 33,103 L 35,105 L 35,107 L 36,108 L 36,109 L 37,109 L 38,110 L 41,110 L 42,111 L 42,114 L 40,116 L 39,116 L 40,116 L 41,117 L 46,117 L 47,116 L 49,116 L 52,113 L 52,111 L 54,109 L 54,108 L 55,107 L 55,96 L 57,94 L 57,90 L 58,89 L 58,88 L 59,87 L 59,84 L 60,83 L 60,81 L 61,80 L 61,79 L 60,78 L 60,75 L 59,74 L 59,72 L 57,70 L 52,70 L 51,69 L 50,69 L 49,68 L 47,68 L 46,69 L 42,69 L 41,68 L 39,68 Z" fill="none" stroke="black" stroke-width="1"/>
</svg>