<svg xmlns="http://www.w3.org/2000/svg" width="134" height="122">
  <path d="M 31,39 L 29,41 L 29,44 L 27,46 L 26,46 L 25,47 L 23,47 L 22,48 L 20,48 L 19,47 L 17,47 L 15,45 L 12,45 L 11,46 L 10,46 L 9,47 L 7,47 L 7,48 L 3,52 L 3,53 L 2,54 L 2,55 L 1,56 L 1,58 L 0,59 L 0,62 L 3,65 L 3,66 L 4,67 L 4,73 L 2,75 L 2,78 L 3,79 L 3,85 L 5,87 L 5,91 L 3,93 L 3,94 L 2,95 L 2,97 L 1,98 L 1,102 L 3,104 L 3,105 L 4,106 L 4,108 L 5,109 L 6,109 L 8,111 L 8,115 L 6,117 L 6,118 L 8,120 L 9,120 L 10,121 L 12,121 L 13,120 L 14,120 L 17,117 L 18,117 L 18,116 L 19,115 L 20,115 L 21,114 L 22,114 L 23,113 L 24,113 L 25,112 L 28,112 L 30,110 L 31,110 L 32,109 L 35,109 L 35,108 L 34,107 L 34,105 L 32,103 L 32,95 L 34,93 L 34,75 L 33,74 L 33,70 L 34,69 L 34,67 L 35,66 L 35,65 L 37,63 L 37,62 L 40,59 L 40,53 L 41,52 L 41,49 L 40,48 L 40,47 L 38,45 L 38,43 L 37,42 L 37,41 L 36,40 L 35,40 L 34,39 Z" fill="none" stroke="black" stroke-width="1"/>
</svg>