<svg xmlns="http://www.w3.org/2000/svg" width="115" height="109">
  <path d="M 79,46 L 78,47 L 78,48 L 77,49 L 77,50 L 76,51 L 75,51 L 73,53 L 69,53 L 68,52 L 67,52 L 66,53 L 65,53 L 65,55 L 67,57 L 67,61 L 66,62 L 66,63 L 65,64 L 65,66 L 66,67 L 66,71 L 67,72 L 67,73 L 68,74 L 68,76 L 72,80 L 72,89 L 78,89 L 79,90 L 83,90 L 84,89 L 85,89 L 86,88 L 88,88 L 90,86 L 91,86 L 91,85 L 90,84 L 90,83 L 89,82 L 89,78 L 88,78 L 87,77 L 87,72 L 88,71 L 88,67 L 89,66 L 89,59 L 90,58 L 90,56 L 91,55 L 91,54 L 89,52 L 88,52 L 86,50 L 85,50 L 84,49 L 83,49 L 81,47 L 80,47 Z" fill="none" stroke="black" stroke-width="1"/>
</svg>