<svg xmlns="http://www.w3.org/2000/svg" width="116" height="82">
  <path d="M 48,0 L 48,2 L 47,3 L 47,7 L 49,9 L 49,10 L 47,12 L 47,15 L 46,16 L 46,20 L 47,21 L 47,22 L 48,22 L 49,23 L 49,24 L 50,25 L 50,27 L 51,28 L 51,30 L 52,31 L 52,33 L 51,34 L 51,36 L 50,37 L 50,43 L 51,44 L 51,45 L 53,47 L 56,47 L 57,46 L 57,45 L 60,42 L 64,42 L 66,40 L 68,40 L 69,39 L 74,39 L 75,40 L 76,40 L 78,38 L 79,38 L 80,39 L 83,39 L 84,40 L 85,40 L 86,39 L 86,38 L 87,37 L 87,36 L 88,35 L 88,33 L 87,32 L 87,30 L 88,29 L 88,26 L 89,25 L 89,24 L 91,22 L 92,22 L 88,18 L 88,16 L 87,16 L 86,15 L 86,14 L 85,14 L 83,12 L 82,12 L 81,11 L 81,6 L 80,6 L 79,5 L 79,1 L 74,1 L 73,0 L 70,0 L 69,1 L 61,1 L 60,2 L 58,2 L 57,3 L 54,3 L 53,2 L 51,2 L 49,0 Z" fill="none" stroke="black" stroke-width="1"/>
</svg>