<svg xmlns="http://www.w3.org/2000/svg" width="66" height="87">
  <path d="M 14,6 L 14,12 L 13,13 L 13,15 L 9,19 L 8,19 L 6,21 L 5,21 L 3,19 L 1,19 L 1,21 L 0,22 L 0,23 L 1,23 L 3,25 L 3,28 L 4,28 L 8,32 L 8,35 L 7,36 L 6,36 L 5,37 L 5,38 L 6,39 L 6,41 L 7,41 L 8,42 L 9,42 L 10,43 L 14,43 L 15,42 L 17,42 L 18,43 L 18,44 L 19,45 L 19,47 L 20,48 L 20,49 L 21,50 L 21,51 L 22,52 L 22,55 L 23,55 L 24,56 L 25,56 L 28,53 L 30,53 L 31,54 L 32,53 L 34,53 L 34,50 L 35,49 L 35,46 L 34,45 L 36,43 L 37,43 L 38,42 L 38,38 L 35,35 L 34,35 L 33,34 L 33,33 L 32,32 L 31,32 L 29,30 L 29,29 L 28,28 L 28,23 L 27,23 L 26,22 L 26,20 L 25,19 L 25,16 L 22,13 L 22,12 L 24,10 L 22,8 L 22,6 L 21,6 L 19,8 L 18,7 L 17,7 L 16,6 Z" fill="none" stroke="black" stroke-width="1"/>
</svg>