<svg xmlns="http://www.w3.org/2000/svg" width="62" height="90">
  <path d="M 54,44 L 53,45 L 48,45 L 47,46 L 41,46 L 40,47 L 38,47 L 37,48 L 35,48 L 34,49 L 33,49 L 32,50 L 31,50 L 29,52 L 23,52 L 21,50 L 20,50 L 18,48 L 16,48 L 14,50 L 14,52 L 13,53 L 13,54 L 14,54 L 16,56 L 16,57 L 18,59 L 18,60 L 19,60 L 21,62 L 23,62 L 24,63 L 26,63 L 30,67 L 31,67 L 32,68 L 34,68 L 35,69 L 38,69 L 39,70 L 39,69 L 40,68 L 41,68 L 42,67 L 42,66 L 46,62 L 46,61 L 52,55 L 52,54 L 54,52 L 54,51 L 55,50 L 55,49 L 56,48 L 56,46 L 57,45 L 57,44 Z" fill="none" stroke="black" stroke-width="1"/>
</svg>