<svg xmlns="http://www.w3.org/2000/svg" width="62" height="90">
  <path d="M 7,0 L 6,1 L 6,2 L 4,4 L 4,5 L 3,6 L 3,7 L 2,8 L 2,13 L 1,14 L 1,15 L 0,16 L 0,18 L 1,19 L 1,20 L 2,21 L 2,22 L 3,23 L 2,24 L 2,28 L 4,30 L 4,31 L 5,31 L 6,30 L 8,32 L 8,33 L 9,34 L 9,35 L 10,36 L 10,37 L 11,38 L 11,42 L 12,43 L 12,45 L 13,46 L 14,46 L 15,47 L 18,47 L 20,49 L 21,49 L 23,51 L 29,51 L 31,49 L 32,49 L 33,48 L 34,48 L 34,45 L 32,43 L 32,42 L 31,41 L 31,40 L 30,39 L 30,35 L 31,34 L 31,31 L 30,30 L 30,26 L 29,25 L 29,23 L 30,22 L 30,21 L 31,20 L 31,18 L 34,15 L 34,13 L 31,13 L 30,14 L 26,14 L 25,13 L 24,13 L 23,12 L 22,12 L 20,10 L 20,9 L 19,9 L 17,7 L 14,7 L 13,6 L 12,6 L 11,5 L 10,5 L 8,3 L 8,0 Z" fill="none" stroke="black" stroke-width="1"/>
</svg>