<svg xmlns="http://www.w3.org/2000/svg" width="101" height="127">
  <path d="M 51,83 L 51,84 L 50,85 L 48,85 L 47,86 L 43,86 L 42,87 L 39,87 L 38,88 L 37,88 L 36,89 L 35,89 L 34,90 L 32,90 L 31,91 L 27,91 L 26,90 L 24,90 L 23,89 L 20,89 L 19,88 L 16,88 L 15,89 L 14,89 L 14,96 L 13,97 L 12,97 L 12,98 L 16,102 L 16,103 L 19,106 L 19,107 L 21,109 L 22,109 L 24,111 L 24,119 L 23,120 L 23,122 L 22,123 L 22,126 L 26,126 L 27,125 L 28,125 L 29,124 L 34,124 L 35,123 L 36,123 L 36,122 L 37,121 L 38,121 L 38,118 L 39,117 L 40,117 L 40,114 L 41,113 L 42,113 L 42,105 L 43,104 L 44,104 L 44,102 L 45,101 L 51,101 L 51,100 L 52,99 L 56,99 L 56,97 L 57,96 L 60,96 L 60,94 L 61,93 L 64,93 L 64,90 L 65,89 L 67,89 L 67,88 L 66,88 L 65,87 L 64,87 L 63,86 L 62,86 L 61,85 L 60,85 L 59,84 L 56,84 L 55,83 Z" fill="none" stroke="black" stroke-width="1"/>
</svg>