<svg xmlns="http://www.w3.org/2000/svg" width="101" height="127">
  <path d="M 81,48 L 80,49 L 77,49 L 74,52 L 72,52 L 71,53 L 70,53 L 70,54 L 68,56 L 67,56 L 66,57 L 64,57 L 63,58 L 59,58 L 59,60 L 60,61 L 60,62 L 61,63 L 61,64 L 62,65 L 62,68 L 63,69 L 63,73 L 62,74 L 62,76 L 61,77 L 61,79 L 60,80 L 60,84 L 61,84 L 62,85 L 63,85 L 64,86 L 65,86 L 66,87 L 67,87 L 68,88 L 74,88 L 75,89 L 83,89 L 83,85 L 84,84 L 85,84 L 85,82 L 82,82 L 81,81 L 81,69 L 82,68 L 84,68 L 84,59 L 83,58 L 83,55 L 84,54 L 85,54 L 85,53 L 84,53 L 83,52 L 83,48 Z" fill="none" stroke="black" stroke-width="1"/>
</svg>