<svg xmlns="http://www.w3.org/2000/svg" width="104" height="123">
  <path d="M 45,63 L 44,64 L 42,64 L 42,67 L 41,68 L 38,68 L 38,70 L 37,71 L 34,71 L 34,73 L 33,74 L 29,74 L 29,75 L 28,76 L 22,76 L 22,78 L 21,79 L 20,79 L 20,87 L 19,88 L 18,88 L 18,91 L 17,92 L 16,92 L 16,95 L 15,96 L 14,96 L 14,97 L 13,98 L 12,98 L 11,99 L 6,99 L 5,100 L 4,100 L 3,101 L 0,101 L 0,102 L 3,105 L 3,107 L 4,107 L 5,108 L 5,112 L 6,113 L 6,114 L 7,115 L 7,118 L 10,118 L 11,119 L 13,119 L 15,121 L 17,121 L 18,120 L 19,120 L 20,119 L 23,119 L 25,121 L 27,121 L 28,122 L 30,122 L 31,121 L 33,121 L 34,120 L 35,120 L 36,119 L 36,116 L 39,113 L 42,113 L 43,114 L 44,114 L 45,115 L 46,115 L 46,114 L 47,113 L 47,112 L 46,111 L 46,110 L 47,109 L 47,108 L 49,106 L 50,106 L 51,105 L 52,105 L 52,103 L 51,102 L 51,101 L 50,100 L 50,99 L 48,97 L 48,87 L 49,86 L 49,82 L 50,81 L 50,77 L 51,76 L 51,75 L 52,74 L 52,72 L 53,71 L 53,70 L 52,69 L 52,64 L 51,63 Z" fill="none" stroke="black" stroke-width="1"/>
</svg>