<svg xmlns="http://www.w3.org/2000/svg" width="101" height="127">
  <path d="M 20,34 L 17,37 L 17,41 L 16,42 L 16,43 L 13,46 L 12,46 L 10,48 L 10,50 L 6,54 L 5,54 L 5,55 L 0,60 L 0,62 L 2,62 L 3,63 L 7,63 L 8,64 L 8,66 L 11,66 L 12,67 L 13,67 L 14,68 L 14,69 L 15,70 L 15,72 L 16,73 L 16,87 L 19,87 L 20,88 L 23,88 L 24,89 L 26,89 L 27,90 L 31,90 L 32,89 L 34,89 L 35,88 L 36,88 L 37,87 L 38,87 L 39,86 L 42,86 L 43,85 L 47,85 L 48,84 L 50,84 L 50,83 L 51,82 L 55,82 L 56,83 L 59,83 L 59,80 L 60,79 L 60,77 L 61,76 L 61,74 L 62,73 L 62,69 L 61,68 L 61,65 L 60,64 L 60,63 L 59,62 L 59,61 L 58,60 L 58,57 L 55,57 L 54,56 L 51,56 L 50,55 L 49,55 L 46,52 L 46,51 L 45,50 L 45,46 L 44,46 L 43,45 L 42,45 L 40,43 L 39,43 L 38,42 L 36,42 L 35,41 L 31,41 L 29,39 L 28,39 L 27,38 L 27,37 L 25,37 L 23,35 L 23,34 Z" fill="none" stroke="black" stroke-width="1"/>
</svg>