<svg xmlns="http://www.w3.org/2000/svg" width="101" height="127">
  <path d="M 52,2 L 52,3 L 53,3 L 53,2 Z" fill="none" stroke="black" stroke-width="1"/>
  <path d="M 36,0 L 36,9 L 35,10 L 35,12 L 34,13 L 34,14 L 33,15 L 33,17 L 31,19 L 31,20 L 29,22 L 29,23 L 27,25 L 26,25 L 26,32 L 24,34 L 24,35 L 25,36 L 27,36 L 28,37 L 28,38 L 29,38 L 31,40 L 35,40 L 36,41 L 38,41 L 39,42 L 40,42 L 42,44 L 43,44 L 44,45 L 46,45 L 47,44 L 48,44 L 49,43 L 50,43 L 51,42 L 52,42 L 54,40 L 54,39 L 56,37 L 56,35 L 54,33 L 56,31 L 56,26 L 57,25 L 57,23 L 61,19 L 61,17 L 60,16 L 57,19 L 56,18 L 56,17 L 57,16 L 57,15 L 59,13 L 58,12 L 58,11 L 56,11 L 54,9 L 55,8 L 54,7 L 53,8 L 52,7 L 52,6 L 51,6 L 50,5 L 48,7 L 48,9 L 47,10 L 46,10 L 45,9 L 45,6 L 46,5 L 46,3 L 46,5 L 45,6 L 44,6 L 43,5 L 44,4 L 44,3 L 43,2 L 42,3 L 41,3 L 40,2 L 40,1 L 39,2 L 37,0 Z" fill="none" stroke="black" stroke-width="1"/>
</svg>