<svg xmlns="http://www.w3.org/2000/svg" width="92" height="118">
  <path d="M 78,53 L 77,54 L 76,54 L 75,55 L 63,55 L 62,56 L 60,56 L 58,58 L 57,58 L 56,59 L 55,59 L 53,61 L 52,61 L 51,62 L 49,62 L 48,63 L 42,63 L 41,64 L 40,64 L 39,65 L 38,65 L 38,66 L 37,67 L 33,67 L 32,66 L 30,66 L 29,65 L 26,65 L 25,64 L 24,65 L 24,69 L 25,70 L 25,82 L 26,82 L 27,83 L 27,89 L 28,90 L 28,92 L 29,93 L 29,95 L 28,96 L 28,97 L 27,98 L 27,103 L 28,104 L 28,107 L 32,111 L 33,111 L 35,113 L 36,113 L 37,114 L 38,114 L 41,117 L 43,117 L 43,116 L 44,115 L 48,115 L 48,111 L 49,110 L 52,110 L 52,106 L 53,105 L 55,105 L 54,104 L 54,100 L 55,99 L 54,99 L 53,98 L 53,97 L 48,97 L 47,96 L 47,92 L 48,91 L 51,91 L 52,90 L 55,90 L 55,88 L 60,83 L 60,82 L 61,81 L 62,81 L 65,78 L 65,76 L 68,73 L 69,73 L 71,71 L 71,70 L 72,69 L 72,65 L 76,61 L 80,61 L 81,60 L 81,53 Z" fill="none" stroke="black" stroke-width="1"/>
</svg>