<svg xmlns="http://www.w3.org/2000/svg" width="92" height="118">
  <path d="M 38,38 L 36,40 L 34,40 L 33,41 L 31,41 L 30,40 L 28,40 L 27,41 L 26,41 L 25,42 L 23,42 L 22,41 L 21,41 L 20,40 L 19,40 L 18,41 L 18,42 L 19,43 L 19,45 L 18,46 L 17,45 L 17,44 L 15,42 L 16,41 L 15,41 L 14,40 L 14,41 L 15,42 L 15,46 L 16,47 L 16,49 L 15,50 L 13,48 L 13,44 L 11,42 L 11,40 L 10,39 L 9,39 L 9,40 L 7,42 L 7,43 L 8,44 L 8,51 L 9,52 L 9,59 L 8,60 L 8,63 L 9,63 L 10,64 L 11,64 L 14,67 L 16,67 L 17,66 L 19,66 L 20,65 L 21,65 L 22,64 L 24,64 L 25,63 L 26,64 L 29,64 L 30,65 L 32,65 L 33,66 L 37,66 L 37,64 L 35,62 L 35,55 L 36,54 L 37,54 L 38,53 L 39,53 L 39,50 L 38,50 L 37,49 L 37,45 L 38,44 L 38,41 L 40,39 L 40,38 Z" fill="none" stroke="black" stroke-width="1"/>
</svg>