<svg xmlns="http://www.w3.org/2000/svg" width="169" height="169">
  <path d="M 137,95 L 135,97 L 134,96 L 133,96 L 132,97 L 130,97 L 129,98 L 126,98 L 125,97 L 124,97 L 123,96 L 121,96 L 120,97 L 119,97 L 118,96 L 116,98 L 112,98 L 110,100 L 110,101 L 106,105 L 103,105 L 101,103 L 99,103 L 97,105 L 96,105 L 94,107 L 90,107 L 89,108 L 88,108 L 88,110 L 89,111 L 90,111 L 92,113 L 92,115 L 96,119 L 97,119 L 100,122 L 101,122 L 102,123 L 104,123 L 108,127 L 107,128 L 107,130 L 105,132 L 105,133 L 106,134 L 106,135 L 107,135 L 108,136 L 109,136 L 111,138 L 115,138 L 116,139 L 122,139 L 123,138 L 131,138 L 132,137 L 141,137 L 142,136 L 144,136 L 145,135 L 147,135 L 149,133 L 154,133 L 155,134 L 161,134 L 163,132 L 164,132 L 166,130 L 168,130 L 168,128 L 167,127 L 167,126 L 166,126 L 161,121 L 160,121 L 159,120 L 159,119 L 155,115 L 155,112 L 154,111 L 154,105 L 153,104 L 153,103 L 148,103 L 147,102 L 146,102 L 145,101 L 145,100 L 143,100 L 142,99 L 141,99 Z" fill="none" stroke="black" stroke-width="1"/>
</svg>