<svg xmlns="http://www.w3.org/2000/svg" width="110" height="52">
  <path d="M 68,13 L 67,14 L 67,15 L 66,16 L 66,17 L 65,18 L 65,19 L 63,21 L 60,21 L 59,22 L 60,22 L 61,23 L 62,23 L 63,24 L 64,24 L 66,26 L 67,26 L 68,27 L 71,27 L 72,28 L 72,31 L 73,31 L 74,32 L 78,32 L 81,35 L 83,35 L 84,36 L 86,36 L 87,37 L 88,37 L 89,38 L 92,38 L 93,39 L 94,39 L 95,38 L 96,38 L 97,37 L 97,36 L 96,35 L 95,35 L 94,34 L 92,34 L 91,33 L 91,31 L 90,30 L 90,29 L 88,29 L 86,27 L 86,23 L 87,22 L 87,20 L 86,19 L 86,18 L 87,17 L 85,15 L 84,15 L 83,14 L 83,13 L 79,13 L 78,14 L 78,15 L 77,16 L 74,16 L 73,15 L 72,15 L 71,14 L 70,14 L 69,13 Z" fill="none" stroke="black" stroke-width="1"/>
</svg>