<svg xmlns="http://www.w3.org/2000/svg" width="153" height="110">
  <path d="M 113,26 L 111,28 L 110,28 L 109,29 L 106,29 L 105,30 L 104,30 L 104,37 L 101,40 L 102,41 L 102,43 L 104,45 L 104,46 L 107,49 L 107,50 L 108,50 L 111,53 L 113,53 L 114,54 L 114,55 L 116,57 L 116,59 L 117,60 L 116,61 L 118,63 L 118,66 L 119,66 L 120,65 L 122,65 L 123,66 L 123,67 L 124,68 L 124,71 L 122,73 L 122,76 L 121,77 L 121,79 L 122,80 L 122,86 L 121,87 L 121,88 L 123,88 L 126,91 L 126,94 L 128,96 L 128,97 L 129,98 L 129,100 L 128,101 L 127,101 L 126,102 L 126,103 L 127,103 L 128,104 L 131,104 L 132,105 L 134,105 L 135,106 L 136,106 L 139,109 L 141,109 L 142,108 L 143,108 L 144,109 L 145,108 L 146,108 L 147,109 L 148,109 L 148,108 L 149,107 L 149,105 L 150,104 L 150,100 L 152,98 L 152,86 L 151,86 L 150,85 L 150,75 L 149,75 L 148,74 L 148,71 L 146,69 L 146,68 L 144,68 L 141,65 L 141,63 L 140,62 L 140,60 L 139,59 L 139,58 L 138,57 L 138,51 L 137,50 L 137,46 L 136,45 L 136,42 L 137,41 L 137,38 L 133,34 L 133,33 L 134,32 L 134,31 L 133,30 L 132,30 L 131,29 L 130,29 L 129,28 L 129,27 L 123,27 L 122,26 Z" fill="none" stroke="black" stroke-width="1"/>
</svg>