<svg xmlns="http://www.w3.org/2000/svg" width="193" height="96">
  <path d="M 40,21 L 39,22 L 37,22 L 36,23 L 36,24 L 33,27 L 33,28 L 32,29 L 31,29 L 29,31 L 29,32 L 28,33 L 28,35 L 27,36 L 27,37 L 25,39 L 23,39 L 21,41 L 20,41 L 17,44 L 17,45 L 15,47 L 15,52 L 13,54 L 10,54 L 9,55 L 9,56 L 8,57 L 6,57 L 5,58 L 4,58 L 4,59 L 3,60 L 3,61 L 2,62 L 2,68 L 1,69 L 1,70 L 0,71 L 0,74 L 3,74 L 5,76 L 6,76 L 7,77 L 9,77 L 10,78 L 21,78 L 23,80 L 25,80 L 26,81 L 31,81 L 32,82 L 39,82 L 40,83 L 55,83 L 56,82 L 57,82 L 58,81 L 59,81 L 60,80 L 61,80 L 62,79 L 61,78 L 61,75 L 60,75 L 58,73 L 58,72 L 56,72 L 54,70 L 54,69 L 55,68 L 55,67 L 61,61 L 61,60 L 60,59 L 60,58 L 58,56 L 58,53 L 61,50 L 62,50 L 64,48 L 64,45 L 66,43 L 66,42 L 65,42 L 64,41 L 64,39 L 65,38 L 66,38 L 68,36 L 68,34 L 69,33 L 69,32 L 71,30 L 71,24 L 70,23 L 69,23 L 68,24 L 67,24 L 65,26 L 64,26 L 63,27 L 62,26 L 53,26 L 52,25 L 51,25 L 50,24 L 49,24 L 48,23 L 46,23 L 45,22 L 44,22 L 43,21 Z" fill="none" stroke="black" stroke-width="1"/>
</svg>