<svg xmlns="http://www.w3.org/2000/svg" width="169" height="169">
  <path d="M 36,47 L 35,48 L 33,48 L 31,50 L 31,56 L 35,60 L 35,62 L 36,63 L 36,66 L 35,67 L 34,67 L 34,68 L 32,70 L 32,72 L 31,73 L 31,75 L 30,76 L 30,77 L 28,79 L 28,84 L 29,85 L 29,94 L 30,95 L 30,96 L 31,97 L 32,97 L 33,98 L 34,98 L 35,99 L 36,99 L 37,100 L 39,100 L 40,101 L 40,104 L 44,108 L 45,108 L 47,106 L 52,106 L 54,108 L 55,108 L 56,109 L 57,109 L 58,110 L 60,110 L 61,109 L 60,108 L 60,105 L 62,103 L 62,102 L 63,101 L 63,100 L 64,99 L 64,98 L 63,97 L 62,97 L 61,96 L 61,95 L 60,94 L 60,90 L 57,87 L 57,84 L 56,83 L 56,68 L 57,67 L 57,65 L 58,64 L 59,64 L 60,63 L 60,61 L 64,57 L 65,57 L 67,55 L 67,50 L 66,51 L 64,51 L 62,49 L 59,49 L 58,48 L 52,48 L 51,49 L 47,49 L 46,50 L 45,50 L 44,51 L 40,47 Z" fill="none" stroke="black" stroke-width="1"/>
</svg>