<svg xmlns="http://www.w3.org/2000/svg" width="169" height="169">
  <path d="M 65,99 L 64,100 L 64,101 L 63,102 L 63,103 L 61,105 L 61,108 L 62,109 L 60,111 L 58,111 L 57,110 L 56,110 L 55,109 L 54,109 L 52,107 L 47,107 L 43,111 L 43,113 L 44,114 L 44,115 L 42,117 L 42,123 L 43,124 L 41,126 L 41,128 L 40,129 L 40,130 L 41,131 L 41,132 L 40,133 L 39,133 L 38,134 L 38,138 L 39,138 L 40,139 L 40,141 L 39,142 L 38,142 L 36,144 L 36,146 L 37,146 L 39,148 L 40,148 L 42,150 L 42,152 L 43,153 L 43,158 L 44,159 L 44,161 L 45,161 L 46,162 L 45,163 L 45,166 L 46,167 L 46,168 L 49,168 L 51,166 L 51,165 L 52,164 L 55,164 L 56,163 L 58,163 L 59,162 L 60,162 L 61,161 L 61,160 L 64,157 L 65,157 L 65,156 L 67,154 L 68,154 L 71,151 L 72,151 L 73,150 L 74,150 L 75,149 L 80,149 L 81,148 L 82,148 L 83,147 L 84,147 L 85,146 L 88,146 L 90,148 L 91,148 L 92,149 L 93,149 L 94,150 L 95,150 L 99,146 L 99,144 L 104,139 L 105,139 L 106,138 L 110,138 L 109,137 L 108,137 L 107,136 L 106,136 L 105,135 L 105,134 L 104,133 L 104,132 L 106,130 L 106,128 L 107,127 L 104,124 L 102,124 L 101,123 L 100,123 L 97,120 L 96,120 L 91,115 L 91,113 L 90,112 L 89,112 L 87,110 L 87,106 L 85,104 L 79,104 L 78,103 L 77,103 L 74,100 L 73,100 L 72,99 L 69,99 L 68,100 L 67,100 L 66,99 Z" fill="none" stroke="black" stroke-width="1"/>
</svg>