<svg xmlns="http://www.w3.org/2000/svg" width="91" height="127">
  <path d="M 25,65 L 25,66 L 23,68 L 22,68 L 21,69 L 19,69 L 18,70 L 17,69 L 11,69 L 10,70 L 9,70 L 8,69 L 3,69 L 3,70 L 1,72 L 0,72 L 0,74 L 1,75 L 1,76 L 2,77 L 1,78 L 1,79 L 0,80 L 0,82 L 1,83 L 2,83 L 3,84 L 3,90 L 6,93 L 7,93 L 8,94 L 10,94 L 11,95 L 11,96 L 12,96 L 13,97 L 18,97 L 19,98 L 19,99 L 20,100 L 20,106 L 21,107 L 21,110 L 25,114 L 25,115 L 26,115 L 31,120 L 32,120 L 33,121 L 33,122 L 34,123 L 34,124 L 35,124 L 36,123 L 38,123 L 39,122 L 40,122 L 41,121 L 45,121 L 47,123 L 47,125 L 51,125 L 52,126 L 61,126 L 62,125 L 63,125 L 66,122 L 66,119 L 67,118 L 67,111 L 66,110 L 66,106 L 64,104 L 64,99 L 63,99 L 59,95 L 56,95 L 55,94 L 56,93 L 57,93 L 55,93 L 55,95 L 54,96 L 53,95 L 53,94 L 47,94 L 46,95 L 45,94 L 45,93 L 46,92 L 49,92 L 48,92 L 47,91 L 47,90 L 44,87 L 43,87 L 40,84 L 40,83 L 39,82 L 40,81 L 41,81 L 42,80 L 42,76 L 44,74 L 44,71 L 42,71 L 41,70 L 41,69 L 38,66 L 37,66 L 36,67 L 34,67 L 33,66 L 32,66 L 31,65 Z" fill="none" stroke="black" stroke-width="1"/>
</svg>