<svg xmlns="http://www.w3.org/2000/svg" width="99" height="47">
  <path d="M 9,14 L 9,15 L 7,17 L 3,17 L 1,19 L 0,19 L 0,23 L 1,23 L 2,24 L 2,25 L 1,26 L 1,27 L 0,28 L 0,33 L 1,34 L 1,37 L 2,38 L 3,38 L 4,39 L 4,40 L 5,41 L 6,41 L 7,42 L 11,42 L 12,41 L 13,41 L 14,40 L 15,40 L 16,39 L 17,39 L 19,37 L 20,38 L 22,38 L 23,39 L 24,39 L 25,40 L 26,40 L 27,41 L 31,41 L 32,40 L 39,40 L 40,39 L 43,39 L 44,40 L 47,40 L 48,41 L 49,41 L 51,43 L 52,43 L 54,45 L 56,45 L 57,44 L 57,42 L 58,41 L 58,36 L 57,35 L 57,34 L 56,34 L 55,33 L 55,32 L 54,31 L 54,25 L 53,24 L 53,21 L 52,20 L 52,16 L 51,16 L 50,15 L 48,15 L 45,18 L 42,18 L 41,17 L 41,16 L 39,16 L 38,17 L 36,17 L 35,18 L 34,18 L 33,19 L 30,19 L 29,18 L 27,18 L 25,16 L 25,15 L 15,15 L 14,16 L 11,16 L 10,15 L 10,14 Z" fill="none" stroke="black" stroke-width="1"/>
</svg>