<svg xmlns="http://www.w3.org/2000/svg" width="91" height="127">
  <path d="M 65,0 L 65,6 L 64,7 L 63,7 L 63,8 L 62,9 L 61,9 L 61,10 L 60,11 L 59,11 L 59,14 L 57,16 L 57,18 L 56,19 L 54,19 L 53,20 L 52,20 L 52,24 L 53,25 L 53,27 L 55,29 L 55,40 L 58,43 L 59,43 L 60,44 L 60,50 L 59,51 L 59,53 L 58,54 L 58,55 L 61,55 L 61,54 L 62,53 L 63,53 L 68,48 L 71,48 L 73,46 L 76,46 L 78,44 L 78,43 L 81,40 L 80,39 L 80,38 L 81,37 L 82,38 L 83,38 L 83,36 L 82,35 L 82,34 L 81,34 L 81,37 L 80,38 L 78,36 L 78,34 L 77,33 L 77,32 L 76,31 L 76,28 L 75,27 L 75,25 L 74,24 L 74,23 L 73,22 L 73,20 L 72,19 L 72,16 L 71,15 L 71,7 L 70,6 L 70,5 L 69,4 L 69,3 L 66,0 Z" fill="none" stroke="black" stroke-width="1"/>
</svg>