<svg xmlns="http://www.w3.org/2000/svg" width="58" height="88">
  <path d="M 54,48 L 53,49 L 51,49 L 49,51 L 48,51 L 46,49 L 42,53 L 42,54 L 41,55 L 40,55 L 39,56 L 38,56 L 37,55 L 35,55 L 34,54 L 33,54 L 30,57 L 30,59 L 31,60 L 31,61 L 32,62 L 31,63 L 30,63 L 29,64 L 28,64 L 27,65 L 15,65 L 15,69 L 16,70 L 16,74 L 17,75 L 17,76 L 18,77 L 18,80 L 19,81 L 19,86 L 20,86 L 21,87 L 24,87 L 25,86 L 28,86 L 31,83 L 32,83 L 35,80 L 36,80 L 36,77 L 37,76 L 42,76 L 42,75 L 43,74 L 43,71 L 44,70 L 47,70 L 47,68 L 48,67 L 50,67 L 53,64 L 54,64 L 55,63 L 56,63 L 56,54 L 57,53 L 57,49 L 56,48 Z" fill="none" stroke="black" stroke-width="1"/>
</svg>