<svg xmlns="http://www.w3.org/2000/svg" width="71" height="41">
  <path d="M 40,0 L 40,1 L 38,3 L 37,3 L 36,4 L 35,4 L 34,3 L 31,3 L 30,2 L 29,2 L 28,3 L 28,5 L 27,6 L 26,6 L 26,10 L 31,15 L 31,19 L 29,21 L 28,21 L 27,22 L 27,24 L 28,24 L 29,25 L 28,26 L 27,26 L 29,28 L 30,28 L 31,29 L 31,30 L 32,31 L 34,29 L 35,29 L 38,26 L 40,26 L 42,28 L 47,28 L 49,26 L 52,26 L 53,25 L 54,25 L 54,24 L 57,21 L 60,21 L 61,20 L 59,18 L 59,17 L 60,16 L 58,16 L 57,15 L 56,15 L 55,14 L 53,14 L 52,13 L 51,13 L 50,12 L 49,12 L 48,11 L 46,11 L 45,10 L 44,10 L 42,8 L 42,7 L 44,5 L 43,4 L 43,2 L 44,1 L 45,1 L 43,1 L 42,0 Z" fill="none" stroke="black" stroke-width="1"/>
</svg>