<svg xmlns="http://www.w3.org/2000/svg" width="93" height="100">
  <path d="M 28,26 L 28,27 L 26,29 L 26,30 L 25,31 L 25,34 L 23,36 L 23,37 L 21,39 L 20,39 L 19,40 L 17,40 L 17,41 L 18,42 L 18,43 L 19,44 L 19,45 L 21,45 L 22,46 L 25,46 L 26,47 L 26,49 L 28,49 L 30,51 L 33,51 L 34,52 L 36,50 L 37,50 L 41,54 L 41,59 L 43,59 L 44,58 L 46,58 L 47,57 L 47,55 L 49,53 L 50,53 L 51,52 L 53,52 L 54,51 L 54,47 L 57,44 L 57,43 L 58,42 L 58,38 L 53,38 L 52,37 L 52,36 L 51,37 L 49,37 L 49,38 L 48,39 L 44,39 L 43,38 L 43,37 L 42,37 L 41,36 L 41,34 L 40,34 L 38,32 L 38,30 L 37,30 L 36,29 L 36,28 L 33,28 L 31,26 L 30,27 L 29,26 Z" fill="none" stroke="black" stroke-width="1"/>
</svg>