<svg xmlns="http://www.w3.org/2000/svg" width="93" height="100">
  <path d="M 10,0 L 9,1 L 8,1 L 7,2 L 4,2 L 1,5 L 0,5 L 0,7 L 1,7 L 5,11 L 6,11 L 8,13 L 8,15 L 9,15 L 10,16 L 10,19 L 9,20 L 11,22 L 13,22 L 14,23 L 15,23 L 16,24 L 16,32 L 17,33 L 16,34 L 16,36 L 15,37 L 17,39 L 19,39 L 20,38 L 21,38 L 22,37 L 22,36 L 24,34 L 24,31 L 25,30 L 25,29 L 27,27 L 27,26 L 28,25 L 29,25 L 30,26 L 30,22 L 22,14 L 22,13 L 21,12 L 21,6 L 20,5 L 20,2 L 17,2 L 16,1 L 15,1 L 14,0 Z" fill="none" stroke="black" stroke-width="1"/>
</svg>