<svg xmlns="http://www.w3.org/2000/svg" width="65" height="91">
  <path d="M 34,25 L 34,28 L 31,31 L 32,32 L 32,40 L 33,41 L 33,42 L 34,43 L 34,44 L 35,45 L 35,46 L 36,47 L 36,48 L 39,51 L 39,52 L 40,53 L 42,53 L 43,54 L 44,54 L 45,55 L 45,56 L 47,58 L 48,58 L 49,59 L 53,59 L 54,60 L 54,61 L 57,61 L 58,60 L 61,60 L 62,59 L 62,58 L 63,57 L 63,56 L 64,55 L 64,53 L 61,50 L 61,49 L 60,49 L 56,45 L 56,43 L 57,42 L 57,41 L 58,40 L 59,40 L 60,39 L 60,37 L 61,36 L 61,35 L 62,34 L 62,33 L 61,32 L 61,31 L 60,30 L 54,30 L 53,29 L 53,28 L 50,28 L 49,27 L 49,26 L 39,26 L 38,25 Z" fill="none" stroke="black" stroke-width="1"/>
</svg>