<svg xmlns="http://www.w3.org/2000/svg" width="51" height="120">
  <path d="M 33,70 L 32,71 L 32,72 L 29,75 L 29,76 L 24,81 L 20,81 L 20,85 L 21,86 L 21,87 L 22,87 L 23,88 L 23,93 L 24,93 L 25,94 L 25,101 L 26,101 L 27,102 L 27,104 L 25,106 L 25,108 L 26,108 L 28,110 L 28,115 L 29,116 L 29,117 L 30,118 L 31,118 L 32,119 L 38,119 L 39,118 L 41,118 L 42,117 L 45,117 L 46,116 L 49,116 L 49,111 L 50,110 L 50,104 L 49,103 L 49,102 L 48,101 L 48,100 L 47,99 L 47,96 L 46,95 L 46,94 L 45,93 L 45,92 L 44,91 L 44,90 L 43,89 L 43,88 L 42,87 L 42,86 L 41,85 L 41,83 L 40,82 L 40,81 L 39,80 L 38,80 L 36,78 L 36,77 L 35,76 L 35,72 Z" fill="none" stroke="black" stroke-width="1"/>
</svg>