<svg xmlns="http://www.w3.org/2000/svg" width="51" height="120">
  <path d="M 19,0 L 17,2 L 16,2 L 14,4 L 10,4 L 10,5 L 7,8 L 6,8 L 6,13 L 7,14 L 7,15 L 11,19 L 11,20 L 16,20 L 17,19 L 21,19 L 24,22 L 24,25 L 25,26 L 25,27 L 26,28 L 27,28 L 29,30 L 30,30 L 31,31 L 32,31 L 34,29 L 34,28 L 35,27 L 35,25 L 36,24 L 36,23 L 38,21 L 38,20 L 39,19 L 39,18 L 40,17 L 40,16 L 41,15 L 41,14 L 42,13 L 42,5 L 44,3 L 45,3 L 45,2 L 44,1 L 40,1 L 39,0 L 29,0 L 28,1 L 26,1 L 25,0 Z" fill="none" stroke="black" stroke-width="1"/>
</svg>