<svg xmlns="http://www.w3.org/2000/svg" width="58" height="88">
  <path d="M 18,30 L 17,31 L 14,31 L 11,34 L 10,34 L 9,35 L 9,37 L 8,38 L 8,39 L 7,40 L 7,41 L 6,42 L 6,43 L 5,44 L 5,48 L 8,51 L 8,56 L 9,56 L 10,57 L 11,57 L 12,58 L 12,59 L 13,60 L 13,61 L 14,62 L 14,64 L 27,64 L 28,63 L 29,63 L 30,62 L 31,62 L 30,61 L 30,60 L 29,59 L 29,57 L 32,54 L 32,52 L 33,51 L 33,50 L 35,48 L 35,44 L 33,42 L 33,41 L 32,40 L 32,39 L 31,38 L 31,36 L 30,35 L 30,32 L 28,32 L 27,31 L 21,31 L 20,30 Z" fill="none" stroke="black" stroke-width="1"/>
</svg>