<svg xmlns="http://www.w3.org/2000/svg" width="62" height="80">
  <path d="M 11,0 L 11,1 L 10,2 L 9,2 L 9,3 L 7,5 L 7,6 L 4,9 L 4,11 L 2,13 L 2,16 L 4,16 L 5,17 L 5,18 L 6,19 L 6,23 L 5,24 L 5,25 L 3,27 L 3,32 L 4,32 L 5,33 L 6,33 L 7,34 L 7,35 L 8,36 L 8,37 L 7,38 L 7,41 L 9,43 L 9,44 L 12,47 L 16,47 L 19,44 L 20,44 L 20,43 L 21,42 L 22,42 L 22,41 L 23,40 L 23,35 L 22,34 L 22,33 L 21,32 L 22,31 L 23,31 L 24,30 L 24,29 L 25,28 L 25,27 L 26,26 L 26,22 L 27,21 L 27,18 L 25,16 L 25,15 L 24,14 L 24,8 L 23,7 L 23,4 L 21,2 L 20,2 L 19,1 L 18,1 L 17,0 Z" fill="none" stroke="black" stroke-width="1"/>
</svg>