<svg xmlns="http://www.w3.org/2000/svg" width="63" height="107">
  <path d="M 48,38 L 46,40 L 46,41 L 45,42 L 45,43 L 44,44 L 44,45 L 43,46 L 38,46 L 39,47 L 39,55 L 38,56 L 38,57 L 37,58 L 39,60 L 39,64 L 40,65 L 40,66 L 43,69 L 43,71 L 44,72 L 44,73 L 45,74 L 45,76 L 46,77 L 47,77 L 48,78 L 49,78 L 50,79 L 53,79 L 54,78 L 55,79 L 56,79 L 58,77 L 58,76 L 60,74 L 60,73 L 61,72 L 62,72 L 62,70 L 61,70 L 60,69 L 59,69 L 55,65 L 55,64 L 54,63 L 54,62 L 53,61 L 54,60 L 54,59 L 56,57 L 56,56 L 57,55 L 57,49 L 55,47 L 55,44 L 54,43 L 54,41 L 53,41 L 50,38 Z" fill="none" stroke="black" stroke-width="1"/>
</svg>