<svg xmlns="http://www.w3.org/2000/svg" width="83" height="88">
  <path d="M 38,21 L 37,22 L 35,22 L 35,25 L 32,28 L 31,28 L 29,30 L 28,30 L 27,31 L 26,31 L 25,32 L 24,32 L 23,33 L 21,33 L 20,34 L 19,34 L 19,35 L 18,36 L 18,41 L 19,42 L 19,44 L 20,45 L 20,46 L 21,47 L 21,48 L 22,49 L 22,50 L 25,53 L 33,53 L 34,52 L 39,52 L 40,51 L 46,51 L 47,52 L 48,52 L 49,53 L 50,53 L 50,52 L 52,50 L 52,49 L 53,48 L 53,47 L 54,46 L 54,40 L 53,39 L 53,36 L 55,34 L 55,32 L 54,32 L 53,31 L 52,31 L 51,30 L 50,30 L 46,26 L 46,25 L 45,24 L 44,24 L 43,23 L 41,23 L 39,21 Z" fill="none" stroke="black" stroke-width="1"/>
</svg>