<svg xmlns="http://www.w3.org/2000/svg" width="65" height="63">
  <path d="M 15,0 L 14,1 L 12,1 L 11,2 L 9,2 L 8,3 L 7,3 L 6,4 L 5,4 L 6,5 L 6,8 L 5,9 L 3,9 L 0,12 L 0,14 L 1,14 L 3,16 L 4,16 L 6,18 L 6,19 L 7,20 L 8,20 L 8,19 L 10,17 L 11,17 L 12,16 L 15,16 L 17,18 L 19,18 L 20,19 L 21,19 L 24,22 L 26,20 L 27,20 L 28,19 L 30,19 L 31,18 L 33,18 L 34,17 L 36,17 L 36,9 L 34,7 L 33,7 L 30,4 L 30,3 L 29,3 L 27,1 L 26,1 L 25,2 L 24,2 L 23,1 L 22,1 L 21,0 Z" fill="none" stroke="black" stroke-width="1"/>
</svg>