<svg xmlns="http://www.w3.org/2000/svg" width="83" height="88">
  <path d="M 54,0 L 53,1 L 53,2 L 51,4 L 50,4 L 49,5 L 48,5 L 47,6 L 46,6 L 45,7 L 45,8 L 43,10 L 43,19 L 42,20 L 42,22 L 43,22 L 44,23 L 45,23 L 47,25 L 47,26 L 50,29 L 51,29 L 52,30 L 53,30 L 54,31 L 55,31 L 56,32 L 56,34 L 54,36 L 54,39 L 55,40 L 55,41 L 56,41 L 57,40 L 61,40 L 62,39 L 63,39 L 65,37 L 66,37 L 68,39 L 69,39 L 70,40 L 73,40 L 74,39 L 74,36 L 76,34 L 78,34 L 80,32 L 80,30 L 81,29 L 81,27 L 82,26 L 78,22 L 78,19 L 74,15 L 72,15 L 71,14 L 71,12 L 70,11 L 70,3 L 65,3 L 62,6 L 59,6 L 57,4 L 57,3 L 56,2 L 56,1 L 55,0 Z" fill="none" stroke="black" stroke-width="1"/>
</svg>