<svg xmlns="http://www.w3.org/2000/svg" width="83" height="88">
  <path d="M 65,38 L 63,40 L 62,40 L 61,41 L 57,41 L 56,42 L 55,42 L 55,46 L 54,47 L 54,48 L 53,49 L 53,50 L 51,52 L 51,53 L 50,54 L 48,54 L 47,55 L 47,60 L 46,61 L 46,63 L 45,64 L 45,69 L 46,70 L 46,71 L 47,72 L 47,78 L 52,83 L 58,83 L 59,82 L 64,82 L 67,79 L 71,79 L 74,76 L 75,76 L 75,71 L 74,70 L 74,68 L 73,67 L 73,66 L 72,66 L 70,64 L 70,63 L 68,61 L 68,60 L 67,59 L 67,57 L 68,56 L 68,55 L 69,54 L 69,53 L 70,52 L 70,51 L 72,49 L 72,43 L 73,42 L 73,41 L 70,41 L 69,40 L 68,40 L 66,38 Z" fill="none" stroke="black" stroke-width="1"/>
</svg>