<svg xmlns="http://www.w3.org/2000/svg" width="53" height="42">
  <path d="M 25,25 L 25,26 L 24,27 L 15,27 L 13,29 L 5,29 L 5,30 L 4,31 L 4,32 L 3,33 L 3,36 L 5,36 L 7,34 L 8,34 L 9,33 L 13,33 L 15,35 L 15,38 L 16,37 L 17,37 L 18,38 L 18,35 L 19,34 L 20,35 L 21,35 L 22,36 L 28,36 L 29,35 L 30,35 L 31,36 L 39,36 L 42,39 L 43,39 L 44,40 L 45,40 L 46,39 L 48,39 L 50,41 L 51,41 L 51,40 L 52,39 L 52,36 L 50,34 L 48,34 L 47,33 L 45,33 L 43,31 L 42,31 L 40,29 L 36,29 L 34,27 L 34,25 Z" fill="none" stroke="black" stroke-width="1"/>
</svg>