<svg xmlns="http://www.w3.org/2000/svg" width="66" height="87">
  <path d="M 56,35 L 55,36 L 51,36 L 51,37 L 50,38 L 47,38 L 46,37 L 45,37 L 44,36 L 38,36 L 38,37 L 39,38 L 39,42 L 37,44 L 36,44 L 35,45 L 36,46 L 36,49 L 35,50 L 35,54 L 36,54 L 38,56 L 38,59 L 39,60 L 40,60 L 42,62 L 42,63 L 45,63 L 46,64 L 45,65 L 45,66 L 44,67 L 43,67 L 43,72 L 44,73 L 46,73 L 47,72 L 50,72 L 51,71 L 52,71 L 54,69 L 55,69 L 57,67 L 58,67 L 58,66 L 59,65 L 59,64 L 60,63 L 60,62 L 61,61 L 63,61 L 63,59 L 64,58 L 64,48 L 65,47 L 65,45 L 63,43 L 64,42 L 64,40 L 63,39 L 63,38 L 62,37 L 61,37 L 59,35 Z" fill="none" stroke="black" stroke-width="1"/>
</svg>