<svg xmlns="http://www.w3.org/2000/svg" width="72" height="72">
  <path d="M 45,17 L 42,20 L 41,20 L 40,21 L 38,21 L 38,22 L 39,23 L 38,24 L 37,24 L 36,25 L 33,25 L 32,26 L 32,28 L 34,28 L 36,30 L 37,30 L 38,31 L 38,32 L 39,33 L 40,33 L 42,35 L 42,36 L 43,36 L 44,37 L 45,37 L 46,38 L 46,39 L 47,39 L 48,40 L 48,42 L 53,42 L 54,43 L 54,44 L 61,44 L 63,46 L 64,46 L 64,45 L 63,44 L 63,40 L 64,39 L 65,39 L 66,40 L 68,40 L 69,39 L 70,39 L 71,38 L 71,34 L 70,33 L 70,31 L 69,32 L 68,32 L 67,33 L 63,33 L 62,32 L 62,27 L 59,27 L 58,26 L 57,26 L 56,25 L 54,25 L 49,20 L 48,20 Z" fill="none" stroke="black" stroke-width="1"/>
</svg>