<svg xmlns="http://www.w3.org/2000/svg" width="79" height="57">
  <path d="M 54,21 L 53,22 L 52,22 L 51,23 L 50,23 L 49,22 L 48,22 L 47,23 L 44,23 L 43,24 L 41,24 L 41,25 L 40,26 L 40,27 L 41,28 L 41,32 L 40,33 L 39,33 L 39,35 L 37,37 L 36,37 L 36,38 L 35,39 L 34,39 L 34,40 L 37,43 L 38,43 L 39,44 L 40,44 L 41,43 L 47,43 L 46,43 L 45,42 L 46,41 L 48,41 L 49,40 L 55,40 L 56,41 L 58,41 L 59,40 L 63,40 L 64,39 L 66,39 L 66,37 L 67,36 L 67,33 L 68,32 L 69,32 L 70,31 L 70,30 L 71,29 L 71,28 L 67,28 L 66,27 L 63,27 L 61,25 L 61,21 Z" fill="none" stroke="black" stroke-width="1"/>
</svg>