<svg xmlns="http://www.w3.org/2000/svg" width="90" height="85">
  <path d="M 20,15 L 18,17 L 18,18 L 17,19 L 15,19 L 14,20 L 8,20 L 7,21 L 6,21 L 5,20 L 5,18 L 4,18 L 3,17 L 0,20 L 0,22 L 1,23 L 1,24 L 2,24 L 3,25 L 4,25 L 6,27 L 6,30 L 7,30 L 8,31 L 9,31 L 11,33 L 11,34 L 10,35 L 10,38 L 11,38 L 12,39 L 17,39 L 18,40 L 18,45 L 19,46 L 19,49 L 21,51 L 21,55 L 22,56 L 22,58 L 23,57 L 24,58 L 25,57 L 27,57 L 28,56 L 34,56 L 35,57 L 37,57 L 38,58 L 39,58 L 40,59 L 40,60 L 43,60 L 43,57 L 42,56 L 42,53 L 41,52 L 41,49 L 40,48 L 40,47 L 39,46 L 39,44 L 38,44 L 37,43 L 37,42 L 36,41 L 36,40 L 35,39 L 35,38 L 34,37 L 34,35 L 32,33 L 31,33 L 29,31 L 29,30 L 28,30 L 27,29 L 26,29 L 25,28 L 26,27 L 26,25 L 27,24 L 27,22 L 26,21 L 26,19 L 25,18 L 25,15 Z" fill="none" stroke="black" stroke-width="1"/>
</svg>