<svg xmlns="http://www.w3.org/2000/svg" width="90" height="85">
  <path d="M 66,23 L 62,27 L 62,28 L 57,33 L 56,33 L 56,34 L 55,35 L 52,35 L 49,38 L 48,38 L 46,36 L 44,36 L 42,34 L 41,35 L 40,35 L 39,36 L 38,36 L 37,37 L 35,37 L 36,38 L 36,39 L 37,40 L 37,41 L 38,42 L 38,43 L 39,43 L 40,44 L 40,46 L 41,47 L 41,48 L 42,49 L 42,52 L 43,53 L 43,56 L 44,57 L 44,61 L 45,62 L 45,63 L 47,63 L 48,64 L 48,66 L 50,68 L 51,68 L 52,67 L 53,67 L 54,66 L 57,66 L 59,64 L 60,64 L 60,63 L 61,62 L 61,61 L 62,60 L 68,60 L 70,58 L 71,58 L 72,59 L 72,57 L 75,54 L 76,54 L 77,53 L 79,53 L 81,51 L 81,48 L 82,47 L 82,46 L 83,45 L 83,44 L 84,43 L 84,42 L 85,41 L 85,39 L 86,38 L 89,38 L 84,33 L 84,31 L 83,30 L 79,30 L 78,29 L 78,25 L 76,27 L 75,26 L 73,26 L 72,25 L 72,24 L 71,23 L 70,23 L 68,25 L 67,25 L 66,24 Z" fill="none" stroke="black" stroke-width="1"/>
</svg>