<svg xmlns="http://www.w3.org/2000/svg" width="65" height="63">
  <path d="M 52,11 L 51,12 L 47,12 L 46,13 L 42,13 L 41,14 L 40,14 L 38,12 L 37,12 L 37,17 L 36,18 L 34,18 L 33,19 L 31,19 L 30,20 L 28,20 L 27,21 L 26,21 L 25,22 L 25,23 L 26,23 L 29,26 L 29,27 L 30,28 L 31,28 L 35,32 L 35,33 L 37,35 L 37,41 L 38,42 L 38,43 L 39,43 L 40,44 L 40,46 L 43,49 L 43,50 L 44,49 L 44,44 L 45,43 L 47,43 L 49,41 L 50,41 L 51,42 L 52,42 L 53,43 L 57,43 L 58,42 L 58,39 L 59,38 L 59,34 L 63,30 L 63,28 L 64,27 L 64,24 L 62,22 L 62,20 L 63,19 L 63,17 L 59,13 L 54,13 Z" fill="none" stroke="black" stroke-width="1"/>
</svg>