<svg xmlns="http://www.w3.org/2000/svg" width="88" height="46">
  <path d="M 69,0 L 69,1 L 68,2 L 67,2 L 66,1 L 66,2 L 65,3 L 65,6 L 64,7 L 63,7 L 61,9 L 57,9 L 57,10 L 56,11 L 56,15 L 55,16 L 55,17 L 54,18 L 54,22 L 55,23 L 57,23 L 58,24 L 58,25 L 60,25 L 61,26 L 61,29 L 62,30 L 63,30 L 64,29 L 66,29 L 68,31 L 68,32 L 69,32 L 70,33 L 70,35 L 74,35 L 75,36 L 76,36 L 78,34 L 84,34 L 87,31 L 87,26 L 86,25 L 86,24 L 85,23 L 85,21 L 86,20 L 86,19 L 87,18 L 86,17 L 86,13 L 87,12 L 87,9 L 86,9 L 85,8 L 85,7 L 83,7 L 82,8 L 81,8 L 79,6 L 78,6 L 76,4 L 76,3 L 75,3 L 74,2 L 72,2 L 71,1 L 71,0 Z" fill="none" stroke="black" stroke-width="1"/>
</svg>