<svg xmlns="http://www.w3.org/2000/svg" width="54" height="55">
  <path d="M 33,27 L 31,29 L 31,32 L 32,33 L 32,37 L 31,38 L 31,39 L 30,40 L 29,40 L 28,41 L 28,42 L 30,44 L 31,44 L 32,45 L 33,45 L 35,47 L 35,48 L 36,49 L 36,50 L 37,50 L 38,51 L 38,54 L 40,54 L 41,53 L 45,53 L 47,51 L 48,51 L 49,50 L 50,50 L 51,49 L 51,46 L 50,45 L 50,44 L 53,41 L 53,36 L 49,32 L 49,31 L 47,31 L 46,30 L 45,30 L 44,29 L 43,29 L 42,28 L 41,28 L 40,29 L 39,29 L 38,28 L 35,28 L 34,27 Z" fill="none" stroke="black" stroke-width="1"/>
</svg>