<svg xmlns="http://www.w3.org/2000/svg" width="108" height="56">
  <path d="M 27,0 L 26,1 L 26,2 L 25,3 L 24,3 L 22,5 L 21,5 L 21,7 L 20,8 L 20,9 L 18,11 L 17,11 L 15,13 L 13,11 L 12,12 L 11,12 L 9,14 L 8,14 L 7,13 L 6,13 L 2,17 L 0,17 L 0,19 L 1,19 L 3,21 L 4,21 L 7,24 L 7,27 L 12,27 L 13,28 L 13,29 L 14,29 L 15,30 L 15,31 L 16,31 L 17,32 L 17,33 L 18,34 L 18,38 L 19,39 L 20,38 L 21,38 L 23,40 L 25,40 L 26,39 L 27,39 L 28,38 L 35,38 L 36,39 L 39,39 L 41,37 L 41,36 L 38,36 L 37,35 L 38,34 L 39,34 L 39,33 L 40,32 L 41,32 L 41,30 L 42,29 L 42,28 L 43,27 L 43,23 L 42,22 L 41,22 L 40,21 L 40,19 L 38,17 L 38,15 L 37,15 L 35,13 L 34,13 L 32,11 L 33,10 L 33,9 L 34,8 L 36,8 L 36,7 L 37,6 L 37,5 L 36,5 L 35,4 L 35,3 L 32,0 Z" fill="none" stroke="black" stroke-width="1"/>
</svg>