<svg xmlns="http://www.w3.org/2000/svg" width="130" height="102">
  <path d="M 86,0 L 85,1 L 83,1 L 81,3 L 80,3 L 79,4 L 79,5 L 78,6 L 78,8 L 79,9 L 79,10 L 78,11 L 77,11 L 77,12 L 76,13 L 76,14 L 77,14 L 78,15 L 78,16 L 79,17 L 79,19 L 80,20 L 80,23 L 81,24 L 81,25 L 82,25 L 86,29 L 86,30 L 89,33 L 89,34 L 90,35 L 90,38 L 88,40 L 87,40 L 86,41 L 86,42 L 85,43 L 80,43 L 79,44 L 79,46 L 77,48 L 77,49 L 76,50 L 74,48 L 73,48 L 72,49 L 72,51 L 73,52 L 73,54 L 74,55 L 74,58 L 73,59 L 73,61 L 74,62 L 75,62 L 76,63 L 76,65 L 77,65 L 78,66 L 79,66 L 81,68 L 84,68 L 84,67 L 85,66 L 85,65 L 86,64 L 87,64 L 87,63 L 85,61 L 86,60 L 86,58 L 85,59 L 84,59 L 83,58 L 82,58 L 81,57 L 81,56 L 80,57 L 80,59 L 79,60 L 78,60 L 76,58 L 75,58 L 74,57 L 74,55 L 75,54 L 75,53 L 76,52 L 77,52 L 79,54 L 79,52 L 81,50 L 82,50 L 83,49 L 84,49 L 85,50 L 86,50 L 87,49 L 90,52 L 91,52 L 92,53 L 92,54 L 90,56 L 90,59 L 89,60 L 90,60 L 91,61 L 92,61 L 93,62 L 92,63 L 90,63 L 91,64 L 91,66 L 94,66 L 95,65 L 100,65 L 101,66 L 102,66 L 102,65 L 101,65 L 100,64 L 99,64 L 98,63 L 98,61 L 99,60 L 100,61 L 102,61 L 103,62 L 103,63 L 103,62 L 104,61 L 105,61 L 106,60 L 108,60 L 110,62 L 111,62 L 112,61 L 114,61 L 114,55 L 116,53 L 118,53 L 119,54 L 120,54 L 120,53 L 117,50 L 117,49 L 118,48 L 114,48 L 113,47 L 113,46 L 114,45 L 116,45 L 117,44 L 118,44 L 118,42 L 117,41 L 117,39 L 118,38 L 119,38 L 122,41 L 122,43 L 121,44 L 122,45 L 126,45 L 127,46 L 128,46 L 129,45 L 129,44 L 128,43 L 128,41 L 129,40 L 128,39 L 126,39 L 123,36 L 123,35 L 122,34 L 121,34 L 118,31 L 118,27 L 119,26 L 119,25 L 115,21 L 115,20 L 114,19 L 114,14 L 113,13 L 113,12 L 112,12 L 111,11 L 111,6 L 109,6 L 108,5 L 105,5 L 104,4 L 103,4 L 101,2 L 98,5 L 97,5 L 96,6 L 94,4 L 93,4 L 92,3 L 92,2 L 90,0 Z" fill="none" stroke="black" stroke-width="1"/>
</svg>