<svg xmlns="http://www.w3.org/2000/svg" width="72" height="59">
  <path d="M 12,0 L 11,1 L 13,3 L 13,4 L 11,6 L 11,8 L 6,13 L 7,14 L 7,15 L 8,16 L 8,17 L 7,18 L 4,18 L 6,20 L 6,22 L 5,23 L 5,25 L 7,27 L 7,30 L 11,30 L 12,31 L 14,31 L 15,30 L 17,30 L 18,29 L 19,29 L 20,30 L 21,30 L 22,31 L 22,32 L 23,33 L 24,33 L 25,34 L 26,33 L 28,33 L 29,34 L 30,34 L 30,30 L 34,26 L 34,24 L 35,23 L 35,22 L 36,21 L 36,17 L 33,17 L 32,16 L 31,16 L 30,15 L 29,15 L 28,14 L 27,14 L 26,13 L 24,13 L 21,10 L 21,9 L 18,6 L 18,5 L 17,4 L 17,2 L 16,1 L 15,1 L 14,0 Z" fill="none" stroke="black" stroke-width="1"/>
</svg>