<svg xmlns="http://www.w3.org/2000/svg" width="49" height="51">
  <path d="M 28,17 L 27,18 L 26,18 L 24,20 L 23,19 L 23,20 L 22,21 L 21,21 L 20,22 L 23,22 L 24,23 L 24,24 L 23,25 L 23,27 L 24,28 L 24,30 L 26,32 L 26,33 L 25,34 L 26,35 L 26,36 L 31,36 L 32,35 L 36,35 L 38,37 L 39,36 L 41,36 L 42,37 L 45,37 L 46,38 L 47,37 L 48,37 L 48,36 L 47,35 L 47,32 L 44,32 L 43,31 L 40,31 L 38,29 L 38,28 L 35,25 L 35,24 L 33,22 L 32,22 L 31,21 L 31,19 L 29,17 Z" fill="none" stroke="black" stroke-width="1"/>
</svg>