<svg xmlns="http://www.w3.org/2000/svg" width="84" height="87">
  <path d="M 25,30 L 25,32 L 27,34 L 27,32 Z" fill="none" stroke="black" stroke-width="1"/>
  <path d="M 4,29 L 1,32 L 0,32 L 4,32 L 6,34 L 7,34 L 10,37 L 11,37 L 12,38 L 12,39 L 13,40 L 15,40 L 16,41 L 17,40 L 19,42 L 19,43 L 23,47 L 23,48 L 24,48 L 25,49 L 26,48 L 26,46 L 25,46 L 24,45 L 22,45 L 20,43 L 20,41 L 19,40 L 19,36 L 15,36 L 14,35 L 12,35 L 11,34 L 10,34 L 8,32 L 8,31 L 7,30 L 7,29 Z" fill="none" stroke="black" stroke-width="1"/>
  <path d="M 12,26 L 12,27 L 13,28 L 13,27 Z" fill="none" stroke="black" stroke-width="1"/>
</svg>