<svg xmlns="http://www.w3.org/2000/svg" width="110" height="75">
  <path d="M 18,10 L 17,11 L 17,15 L 16,16 L 15,16 L 12,19 L 11,19 L 11,21 L 9,23 L 9,24 L 8,25 L 8,26 L 5,29 L 5,34 L 4,35 L 4,36 L 1,39 L 0,39 L 0,41 L 1,42 L 0,43 L 1,44 L 1,45 L 2,46 L 2,47 L 3,48 L 3,50 L 4,50 L 6,48 L 7,48 L 9,50 L 9,51 L 11,51 L 12,52 L 14,50 L 15,51 L 15,55 L 19,55 L 21,57 L 21,59 L 23,61 L 25,61 L 26,62 L 28,62 L 29,61 L 31,61 L 32,60 L 33,60 L 34,61 L 37,61 L 39,59 L 40,59 L 40,58 L 37,55 L 37,51 L 38,50 L 38,48 L 37,47 L 37,46 L 35,44 L 36,43 L 37,43 L 37,42 L 40,39 L 40,36 L 41,35 L 41,34 L 43,32 L 47,32 L 47,27 L 48,26 L 48,24 L 49,23 L 49,22 L 50,21 L 50,19 L 51,18 L 41,18 L 40,17 L 40,16 L 39,15 L 39,13 L 38,13 L 37,12 L 28,12 L 27,13 L 23,13 L 20,10 Z" fill="none" stroke="black" stroke-width="1"/>
</svg>