<svg xmlns="http://www.w3.org/2000/svg" width="77" height="84">
  <path d="M 25,21 L 24,22 L 23,22 L 22,23 L 19,23 L 18,24 L 17,24 L 16,25 L 15,25 L 13,27 L 12,27 L 8,31 L 7,31 L 6,32 L 6,33 L 5,34 L 5,37 L 4,38 L 4,46 L 3,47 L 3,48 L 1,50 L 1,52 L 0,53 L 0,55 L 3,58 L 4,58 L 5,59 L 5,62 L 6,63 L 6,65 L 7,65 L 8,66 L 10,66 L 11,67 L 11,69 L 13,69 L 14,70 L 17,70 L 18,69 L 19,69 L 19,68 L 20,67 L 21,67 L 23,65 L 23,63 L 25,61 L 26,61 L 26,60 L 29,57 L 28,56 L 28,49 L 27,48 L 27,46 L 28,45 L 28,44 L 33,39 L 36,39 L 37,38 L 39,38 L 40,37 L 44,37 L 43,36 L 46,33 L 47,33 L 48,32 L 48,31 L 47,31 L 45,29 L 44,29 L 42,27 L 38,27 L 37,26 L 36,26 L 35,25 L 34,25 L 33,24 L 28,24 L 26,22 L 26,21 Z" fill="none" stroke="black" stroke-width="1"/>
</svg>