<svg xmlns="http://www.w3.org/2000/svg" width="110" height="75">
  <path d="M 65,0 L 64,1 L 63,1 L 62,2 L 61,2 L 60,3 L 59,2 L 58,2 L 58,4 L 57,5 L 57,7 L 54,10 L 52,10 L 51,11 L 50,11 L 50,12 L 52,14 L 52,18 L 51,19 L 51,21 L 50,22 L 50,23 L 49,24 L 49,26 L 48,27 L 48,33 L 49,34 L 50,34 L 52,32 L 54,32 L 55,31 L 56,31 L 57,30 L 57,29 L 58,28 L 60,28 L 61,27 L 66,27 L 70,31 L 70,33 L 74,33 L 75,34 L 76,34 L 79,37 L 80,37 L 82,39 L 83,39 L 84,40 L 85,40 L 86,41 L 88,41 L 89,42 L 90,42 L 91,41 L 92,41 L 93,40 L 96,40 L 97,39 L 98,39 L 99,38 L 100,38 L 101,39 L 101,40 L 102,41 L 103,41 L 103,37 L 102,36 L 102,32 L 103,31 L 103,30 L 104,29 L 104,28 L 105,27 L 105,26 L 106,25 L 106,24 L 107,23 L 107,21 L 108,20 L 108,19 L 109,18 L 109,16 L 106,13 L 106,11 L 105,10 L 105,9 L 106,8 L 105,7 L 100,7 L 100,8 L 98,10 L 98,11 L 96,13 L 93,13 L 92,12 L 90,12 L 89,11 L 89,9 L 87,9 L 86,10 L 85,10 L 84,9 L 83,9 L 82,8 L 77,8 L 76,7 L 77,6 L 76,6 L 75,5 L 74,5 L 73,4 L 70,4 L 69,3 L 68,3 L 67,2 L 67,1 L 66,0 Z" fill="none" stroke="black" stroke-width="1"/>
</svg>