<svg xmlns="http://www.w3.org/2000/svg" width="117" height="110">
  <path d="M 91,48 L 90,49 L 90,51 L 91,52 L 91,53 L 92,54 L 92,55 L 88,59 L 87,58 L 79,58 L 79,60 L 77,62 L 74,62 L 74,63 L 75,64 L 76,64 L 79,67 L 79,72 L 78,73 L 72,73 L 70,75 L 70,76 L 66,80 L 60,80 L 59,79 L 59,80 L 57,82 L 56,82 L 56,85 L 55,86 L 53,86 L 52,85 L 51,85 L 51,88 L 50,89 L 50,91 L 51,91 L 52,92 L 52,93 L 54,95 L 55,95 L 57,97 L 57,99 L 56,100 L 56,101 L 59,104 L 59,105 L 61,107 L 63,107 L 64,108 L 70,108 L 71,109 L 79,109 L 80,108 L 85,108 L 86,107 L 88,107 L 89,106 L 90,106 L 91,105 L 92,105 L 93,104 L 93,103 L 96,100 L 97,100 L 98,99 L 99,99 L 100,98 L 101,98 L 102,97 L 103,97 L 104,96 L 105,96 L 105,93 L 106,92 L 106,86 L 107,85 L 107,84 L 109,82 L 109,81 L 110,80 L 111,80 L 112,79 L 112,78 L 113,77 L 113,69 L 114,68 L 114,67 L 115,66 L 115,65 L 116,64 L 116,59 L 111,59 L 110,58 L 108,58 L 106,56 L 105,56 L 103,54 L 102,54 L 99,51 L 98,51 L 97,50 L 95,50 L 94,49 L 93,49 L 92,48 Z" fill="none" stroke="black" stroke-width="1"/>
</svg>