<svg xmlns="http://www.w3.org/2000/svg" width="173" height="118">
  <path d="M 20,70 L 20,72 L 19,73 L 19,75 L 17,77 L 16,77 L 18,79 L 19,79 L 20,80 L 20,81 L 21,81 L 22,82 L 22,88 L 23,88 L 24,89 L 24,90 L 25,91 L 26,91 L 27,92 L 27,93 L 28,93 L 29,94 L 29,95 L 30,95 L 31,96 L 31,97 L 32,97 L 34,99 L 35,99 L 36,100 L 36,101 L 38,103 L 38,104 L 39,104 L 40,105 L 42,105 L 44,107 L 44,112 L 45,112 L 46,113 L 46,115 L 48,115 L 49,116 L 51,116 L 52,117 L 56,117 L 56,116 L 58,114 L 59,114 L 60,113 L 61,113 L 63,111 L 63,110 L 64,109 L 64,108 L 65,107 L 65,105 L 66,104 L 66,101 L 67,100 L 67,98 L 66,97 L 66,96 L 67,95 L 67,93 L 66,93 L 64,91 L 63,91 L 62,90 L 62,89 L 61,88 L 60,88 L 58,86 L 58,85 L 57,84 L 57,82 L 56,81 L 56,80 L 55,80 L 54,79 L 52,79 L 52,80 L 48,84 L 43,84 L 42,83 L 41,83 L 40,82 L 40,81 L 38,79 L 37,79 L 36,78 L 36,77 L 35,76 L 35,75 L 30,75 L 29,74 L 29,72 L 26,72 L 25,71 L 23,71 L 22,70 Z" fill="none" stroke="black" stroke-width="1"/>
</svg>