<svg xmlns="http://www.w3.org/2000/svg" width="63" height="69">
  <path d="M 47,32 L 47,34 L 45,36 L 45,37 L 43,39 L 42,39 L 42,40 L 40,42 L 33,42 L 29,46 L 28,46 L 27,47 L 24,47 L 24,50 L 25,51 L 25,52 L 26,52 L 27,51 L 29,51 L 30,52 L 31,52 L 33,54 L 33,56 L 34,57 L 34,58 L 37,61 L 37,62 L 39,64 L 41,64 L 42,65 L 43,65 L 44,66 L 45,66 L 46,67 L 47,67 L 48,68 L 50,68 L 50,64 L 51,63 L 52,63 L 52,59 L 53,58 L 56,58 L 56,57 L 57,56 L 58,56 L 58,55 L 60,53 L 62,53 L 62,49 L 61,48 L 61,47 L 60,46 L 60,45 L 58,43 L 58,42 L 55,42 L 54,41 L 53,41 L 52,40 L 52,38 L 50,36 L 49,36 L 48,35 L 48,33 Z" fill="none" stroke="black" stroke-width="1"/>
</svg>