<svg xmlns="http://www.w3.org/2000/svg" width="131" height="92">
  <path d="M 86,16 L 86,17 L 85,18 L 84,18 L 82,20 L 81,20 L 81,21 L 84,24 L 84,26 L 83,27 L 82,26 L 81,27 L 79,27 L 78,28 L 76,26 L 75,26 L 74,27 L 72,27 L 71,26 L 71,25 L 69,23 L 67,25 L 67,27 L 66,28 L 65,28 L 65,31 L 66,32 L 66,33 L 67,33 L 68,34 L 68,35 L 66,37 L 66,38 L 65,39 L 65,45 L 64,46 L 63,46 L 62,45 L 62,44 L 61,44 L 61,45 L 58,48 L 58,49 L 57,50 L 57,52 L 58,53 L 58,55 L 59,56 L 59,58 L 58,59 L 58,60 L 55,63 L 50,63 L 50,64 L 51,64 L 52,65 L 54,65 L 55,66 L 58,66 L 59,67 L 60,67 L 61,68 L 62,68 L 64,70 L 64,72 L 66,74 L 67,74 L 68,75 L 68,76 L 67,77 L 68,78 L 69,78 L 70,79 L 70,80 L 72,80 L 73,81 L 79,81 L 80,80 L 82,82 L 83,82 L 84,83 L 84,86 L 83,87 L 84,87 L 85,88 L 86,88 L 88,90 L 89,90 L 90,89 L 91,89 L 93,87 L 95,89 L 96,89 L 97,90 L 98,90 L 99,91 L 100,91 L 102,89 L 103,89 L 103,88 L 106,85 L 108,85 L 111,88 L 112,88 L 113,87 L 114,87 L 115,86 L 115,85 L 116,84 L 122,84 L 123,83 L 125,83 L 127,81 L 128,81 L 130,79 L 130,78 L 129,77 L 129,76 L 127,74 L 127,73 L 121,73 L 119,71 L 119,70 L 117,70 L 116,71 L 114,71 L 113,72 L 110,72 L 108,70 L 109,69 L 111,69 L 111,68 L 112,67 L 110,65 L 111,64 L 110,64 L 109,63 L 109,62 L 108,62 L 105,59 L 104,60 L 102,58 L 101,59 L 100,59 L 99,58 L 98,58 L 97,57 L 96,57 L 91,52 L 92,51 L 93,51 L 94,52 L 95,51 L 95,49 L 94,49 L 92,47 L 91,47 L 89,45 L 89,44 L 90,43 L 91,44 L 92,44 L 93,45 L 94,45 L 95,46 L 97,46 L 96,45 L 96,44 L 95,43 L 95,41 L 94,40 L 94,37 L 93,36 L 93,35 L 94,34 L 99,39 L 98,40 L 99,41 L 99,42 L 100,43 L 100,44 L 101,44 L 102,45 L 102,46 L 103,47 L 103,48 L 103,47 L 104,46 L 105,47 L 105,49 L 104,50 L 105,50 L 106,49 L 106,47 L 107,46 L 106,45 L 105,46 L 102,43 L 103,42 L 105,42 L 106,43 L 109,43 L 110,42 L 110,39 L 109,38 L 109,37 L 108,36 L 108,35 L 107,34 L 106,35 L 105,34 L 103,34 L 101,32 L 100,32 L 99,33 L 98,32 L 97,32 L 95,30 L 95,29 L 94,28 L 94,27 L 93,26 L 93,24 L 87,18 L 87,16 Z" fill="none" stroke="black" stroke-width="1"/>
</svg>