<svg xmlns="http://www.w3.org/2000/svg" width="119" height="77">
  <path d="M 34,18 L 33,19 L 32,19 L 31,20 L 30,20 L 29,21 L 29,24 L 28,25 L 27,25 L 25,27 L 22,27 L 21,26 L 21,25 L 20,25 L 19,26 L 18,26 L 17,27 L 16,27 L 15,28 L 15,32 L 17,32 L 20,35 L 22,35 L 23,36 L 24,36 L 25,37 L 26,37 L 27,38 L 32,38 L 36,42 L 36,44 L 37,45 L 37,46 L 38,47 L 38,49 L 39,50 L 41,50 L 42,51 L 42,53 L 43,54 L 43,59 L 45,59 L 46,60 L 47,60 L 48,59 L 48,57 L 50,55 L 51,55 L 51,54 L 52,53 L 53,53 L 55,51 L 58,51 L 58,49 L 60,47 L 60,45 L 62,43 L 62,42 L 63,41 L 63,40 L 64,39 L 64,37 L 65,36 L 64,35 L 63,35 L 61,33 L 61,32 L 60,31 L 60,26 L 59,26 L 58,25 L 57,25 L 56,24 L 53,24 L 52,23 L 51,23 L 50,22 L 48,22 L 47,23 L 46,23 L 44,21 L 39,21 L 36,18 Z" fill="none" stroke="black" stroke-width="1"/>
</svg>