<svg xmlns="http://www.w3.org/2000/svg" width="131" height="92">
  <path d="M 39,63 L 38,64 L 39,64 Z" fill="none" stroke="black" stroke-width="1"/>
  <path d="M 45,22 L 44,23 L 39,23 L 39,24 L 35,28 L 35,29 L 34,30 L 33,30 L 33,31 L 34,32 L 34,36 L 35,37 L 35,39 L 34,40 L 34,41 L 32,43 L 31,43 L 30,44 L 29,43 L 25,43 L 24,44 L 24,48 L 23,49 L 22,49 L 21,50 L 20,50 L 18,52 L 17,52 L 15,54 L 13,54 L 12,53 L 12,52 L 15,49 L 16,49 L 17,48 L 15,46 L 14,46 L 12,44 L 10,44 L 9,43 L 8,43 L 7,44 L 9,46 L 10,46 L 13,49 L 12,50 L 12,51 L 10,53 L 9,53 L 8,54 L 6,54 L 5,55 L 3,55 L 3,56 L 4,57 L 4,58 L 5,58 L 6,59 L 7,59 L 8,60 L 10,60 L 13,63 L 12,64 L 12,67 L 13,68 L 13,69 L 14,70 L 15,70 L 16,71 L 17,71 L 18,72 L 18,73 L 19,74 L 19,76 L 20,77 L 20,78 L 21,78 L 23,80 L 28,80 L 29,81 L 30,80 L 32,80 L 31,79 L 32,78 L 32,77 L 30,75 L 30,74 L 29,73 L 28,73 L 24,69 L 24,68 L 25,67 L 25,66 L 26,65 L 27,66 L 29,64 L 28,63 L 30,61 L 33,61 L 32,60 L 32,59 L 33,58 L 34,58 L 34,57 L 36,55 L 37,55 L 38,56 L 40,56 L 41,57 L 41,58 L 42,57 L 43,57 L 44,58 L 44,59 L 45,58 L 48,61 L 48,64 L 49,65 L 49,63 L 50,62 L 55,62 L 57,60 L 57,59 L 58,58 L 58,56 L 57,55 L 57,53 L 56,52 L 56,50 L 57,49 L 57,48 L 60,45 L 60,44 L 61,43 L 62,43 L 63,44 L 63,45 L 64,45 L 64,39 L 65,38 L 65,37 L 67,35 L 67,34 L 66,34 L 65,33 L 65,32 L 61,28 L 61,26 L 59,24 L 56,24 L 55,25 L 54,25 L 53,24 L 52,24 L 51,23 L 50,23 L 49,22 Z" fill="none" stroke="black" stroke-width="1"/>
</svg>