<svg xmlns="http://www.w3.org/2000/svg" width="119" height="77">
  <path d="M 5,33 L 5,34 L 3,36 L 2,36 L 0,38 L 0,44 L 1,45 L 1,48 L 2,49 L 2,50 L 3,51 L 3,54 L 5,54 L 6,55 L 7,55 L 9,57 L 14,57 L 15,58 L 16,58 L 17,59 L 18,59 L 20,61 L 20,62 L 21,63 L 21,65 L 23,67 L 23,68 L 24,68 L 25,69 L 27,69 L 28,70 L 29,70 L 31,72 L 32,72 L 35,75 L 35,76 L 39,76 L 42,73 L 42,67 L 41,66 L 41,61 L 42,60 L 42,54 L 41,53 L 41,51 L 39,51 L 37,49 L 37,47 L 36,46 L 36,45 L 35,44 L 35,42 L 32,39 L 27,39 L 26,38 L 25,38 L 24,37 L 23,37 L 22,36 L 20,36 L 17,33 Z" fill="none" stroke="black" stroke-width="1"/>
</svg>