<svg xmlns="http://www.w3.org/2000/svg" width="89" height="70">
  <path d="M 54,0 L 52,2 L 49,2 L 48,3 L 46,3 L 44,5 L 43,5 L 42,6 L 41,6 L 40,7 L 40,8 L 36,12 L 35,12 L 35,14 L 34,15 L 34,16 L 33,17 L 33,18 L 35,20 L 35,21 L 36,22 L 36,23 L 33,26 L 32,26 L 30,28 L 28,28 L 30,30 L 30,31 L 31,32 L 31,33 L 32,33 L 34,35 L 34,36 L 35,36 L 36,37 L 39,37 L 40,38 L 43,38 L 51,46 L 51,50 L 52,50 L 53,49 L 56,49 L 58,51 L 59,50 L 59,45 L 58,45 L 57,44 L 57,41 L 58,40 L 60,40 L 60,39 L 61,38 L 61,36 L 60,35 L 60,31 L 61,30 L 61,29 L 62,28 L 62,20 L 60,18 L 59,18 L 58,17 L 58,15 L 56,13 L 56,9 L 57,8 L 58,8 L 58,3 L 59,2 L 59,1 L 58,1 L 57,0 Z" fill="none" stroke="black" stroke-width="1"/>
</svg>