<svg xmlns="http://www.w3.org/2000/svg" width="183" height="165">
  <path d="M 88,76 L 88,77 L 87,78 L 86,78 L 82,82 L 81,82 L 81,85 L 80,86 L 80,87 L 79,88 L 79,91 L 77,93 L 77,94 L 76,95 L 76,96 L 72,100 L 72,102 L 74,104 L 75,103 L 78,103 L 79,104 L 80,103 L 81,103 L 82,104 L 82,105 L 84,105 L 86,107 L 86,108 L 87,109 L 87,110 L 88,111 L 89,110 L 92,110 L 95,113 L 95,114 L 94,115 L 93,114 L 90,114 L 89,115 L 88,115 L 86,113 L 85,113 L 85,115 L 86,116 L 86,117 L 87,118 L 87,120 L 88,119 L 90,119 L 91,120 L 92,120 L 93,121 L 94,121 L 95,122 L 97,122 L 98,123 L 98,124 L 99,125 L 102,125 L 104,127 L 106,127 L 107,126 L 108,126 L 109,125 L 110,125 L 112,123 L 113,123 L 114,122 L 117,122 L 118,123 L 123,123 L 124,122 L 125,122 L 126,121 L 129,121 L 128,120 L 128,119 L 126,117 L 125,117 L 121,113 L 121,111 L 119,109 L 119,108 L 121,106 L 121,104 L 118,101 L 118,97 L 119,96 L 119,95 L 118,94 L 118,93 L 119,92 L 118,91 L 119,90 L 116,90 L 115,89 L 113,89 L 111,87 L 111,86 L 112,85 L 111,84 L 110,84 L 109,83 L 108,84 L 107,84 L 106,83 L 106,81 L 105,80 L 104,80 L 103,79 L 101,79 L 99,81 L 97,81 L 96,80 L 95,80 L 93,78 L 92,78 L 91,77 L 91,76 Z" fill="none" stroke="black" stroke-width="1"/>
  <path d="M 101,59 L 101,61 L 103,63 L 105,63 L 105,60 L 104,59 Z" fill="none" stroke="black" stroke-width="1"/>
</svg>