<svg xmlns="http://www.w3.org/2000/svg" width="91" height="75">
  <path d="M 7,36 L 6,37 L 3,37 L 3,38 L 2,39 L 0,39 L 0,42 L 1,42 L 2,43 L 2,48 L 3,49 L 3,54 L 0,57 L 2,59 L 2,61 L 4,63 L 6,63 L 8,65 L 9,64 L 10,64 L 10,63 L 13,60 L 19,60 L 21,62 L 22,62 L 23,63 L 26,63 L 28,65 L 29,65 L 31,67 L 32,67 L 33,68 L 38,68 L 39,67 L 40,67 L 40,66 L 41,65 L 41,61 L 40,60 L 40,56 L 39,55 L 39,54 L 37,52 L 37,50 L 33,50 L 32,49 L 28,49 L 27,48 L 27,45 L 24,45 L 23,44 L 21,44 L 20,43 L 20,41 L 19,41 L 18,40 L 18,39 L 17,39 L 16,38 L 12,38 L 11,37 L 11,36 Z" fill="none" stroke="black" stroke-width="1"/>
</svg>