<svg xmlns="http://www.w3.org/2000/svg" width="355" height="149">
  <path d="M 34,31 L 33,32 L 33,33 L 36,33 L 37,32 L 38,32 L 35,32 Z" fill="none" stroke="black" stroke-width="1"/>
  <path d="M 8,30 L 6,32 L 4,32 L 2,34 L 3,34 L 4,35 L 6,35 L 7,36 L 8,36 L 9,37 L 11,37 L 12,36 L 14,36 L 15,35 L 18,35 L 18,34 L 19,33 L 17,33 L 16,32 L 15,32 L 14,31 L 13,31 L 11,33 L 9,31 L 9,30 Z" fill="none" stroke="black" stroke-width="1"/>
  <path d="M 1,29 L 1,30 L 0,31 L 1,32 L 3,30 L 5,30 L 4,29 L 3,30 L 2,29 Z" fill="none" stroke="black" stroke-width="1"/>
  <path d="M 12,27 L 12,28 L 13,29 L 14,29 L 14,28 L 13,28 Z" fill="none" stroke="black" stroke-width="1"/>
  <path d="M 30,26 L 29,27 L 28,27 L 28,28 L 27,29 L 28,30 L 32,30 L 33,29 L 33,26 Z" fill="none" stroke="black" stroke-width="1"/>
  <path d="M 9,25 L 8,26 L 7,26 L 7,27 L 8,28 L 9,28 Z" fill="none" stroke="black" stroke-width="1"/>
  <path d="M 16,24 L 15,25 L 15,26 L 16,26 L 17,27 L 17,28 L 18,29 L 18,30 L 20,30 L 21,29 L 22,29 L 21,29 L 20,28 L 19,28 L 16,25 Z" fill="none" stroke="black" stroke-width="1"/>
  <path d="M 74,15 L 75,16 L 74,17 L 71,17 L 70,18 L 69,18 L 68,19 L 67,19 L 66,20 L 70,24 L 71,24 L 72,23 L 73,23 L 75,21 L 76,21 L 78,19 L 77,18 L 77,16 L 76,15 Z" fill="none" stroke="black" stroke-width="1"/>
  <path d="M 79,11 L 78,12 L 78,14 L 79,15 L 79,16 L 80,17 L 82,17 L 84,15 L 85,15 L 84,14 L 84,13 L 83,13 L 82,12 L 81,12 L 80,11 Z" fill="none" stroke="black" stroke-width="1"/>
  <path d="M 73,8 L 73,9 L 74,10 L 73,11 L 70,11 L 67,14 L 65,12 L 65,11 L 64,11 L 64,12 L 65,13 L 64,14 L 63,14 L 62,13 L 61,13 L 60,12 L 58,12 L 58,13 L 57,14 L 52,14 L 56,14 L 57,15 L 57,16 L 56,17 L 57,18 L 59,18 L 60,17 L 62,17 L 63,16 L 64,16 L 65,17 L 66,17 L 67,16 L 68,16 L 73,11 L 74,11 L 74,9 Z" fill="none" stroke="black" stroke-width="1"/>
  <path d="M 117,3 L 118,3 Z" fill="none" stroke="black" stroke-width="1"/>
  <path d="M 83,3 L 82,4 L 82,5 L 83,5 L 84,6 L 85,6 L 86,5 L 86,4 L 85,4 L 84,3 Z" fill="none" stroke="black" stroke-width="1"/>
  <path d="M 95,1 L 94,2 L 95,2 L 96,3 L 96,1 Z" fill="none" stroke="black" stroke-width="1"/>
  <path d="M 110,0 L 108,2 L 104,2 L 104,3 L 106,3 L 107,4 L 107,5 L 106,6 L 105,5 L 105,6 L 106,7 L 104,9 L 103,9 L 102,8 L 102,7 L 101,6 L 100,6 L 99,5 L 99,6 L 98,7 L 97,7 L 95,5 L 93,5 L 93,8 L 94,9 L 93,10 L 91,10 L 89,8 L 88,9 L 88,10 L 89,10 L 90,11 L 92,11 L 93,12 L 94,12 L 95,13 L 95,14 L 94,15 L 93,15 L 91,13 L 88,13 L 88,14 L 87,15 L 88,16 L 87,17 L 89,19 L 88,20 L 86,20 L 85,19 L 85,18 L 84,18 L 83,19 L 80,19 L 80,21 L 79,22 L 78,22 L 77,23 L 76,23 L 75,24 L 75,25 L 74,26 L 73,26 L 74,27 L 74,28 L 72,30 L 73,31 L 75,31 L 76,32 L 75,33 L 74,33 L 73,34 L 72,34 L 71,33 L 69,33 L 68,32 L 68,31 L 67,30 L 65,30 L 64,29 L 65,28 L 66,28 L 66,27 L 65,27 L 64,26 L 65,25 L 68,25 L 67,25 L 65,23 L 64,23 L 63,22 L 59,22 L 59,23 L 60,23 L 61,24 L 62,24 L 64,26 L 63,27 L 61,27 L 60,26 L 58,26 L 58,27 L 59,27 L 60,28 L 60,29 L 62,29 L 63,30 L 62,31 L 58,31 L 57,30 L 58,29 L 57,29 L 56,28 L 56,24 L 51,24 L 49,26 L 48,26 L 47,25 L 49,23 L 49,22 L 48,22 L 48,24 L 47,25 L 46,25 L 45,24 L 44,24 L 43,25 L 42,25 L 41,26 L 41,27 L 43,27 L 44,28 L 44,29 L 46,29 L 47,30 L 48,30 L 50,28 L 53,28 L 54,27 L 55,28 L 55,29 L 53,31 L 51,31 L 50,32 L 51,33 L 51,34 L 53,36 L 53,37 L 54,38 L 54,39 L 53,40 L 52,40 L 51,39 L 51,38 L 49,36 L 48,36 L 47,35 L 46,35 L 45,34 L 45,33 L 44,32 L 41,32 L 40,33 L 40,34 L 39,35 L 39,36 L 37,38 L 36,38 L 35,37 L 35,36 L 36,35 L 35,35 L 34,36 L 34,37 L 33,38 L 32,37 L 32,35 L 31,35 L 30,36 L 30,37 L 31,37 L 32,38 L 31,39 L 30,39 L 30,40 L 29,41 L 29,42 L 30,43 L 31,43 L 33,45 L 32,46 L 31,46 L 30,45 L 29,45 L 28,44 L 28,45 L 27,46 L 27,47 L 26,48 L 26,49 L 25,50 L 24,50 L 22,52 L 21,52 L 20,53 L 19,52 L 19,51 L 20,50 L 21,50 L 23,48 L 24,48 L 24,47 L 25,46 L 25,41 L 26,40 L 26,38 L 27,37 L 27,35 L 26,34 L 26,33 L 25,33 L 23,35 L 23,36 L 18,41 L 18,43 L 19,44 L 17,46 L 17,47 L 16,48 L 15,48 L 14,47 L 14,46 L 16,44 L 16,39 L 17,38 L 17,37 L 16,37 L 15,38 L 13,38 L 12,39 L 9,39 L 5,43 L 5,44 L 6,44 L 7,45 L 6,46 L 6,47 L 8,49 L 11,49 L 13,51 L 13,54 L 16,57 L 19,57 L 20,58 L 29,58 L 29,57 L 30,56 L 34,56 L 35,57 L 37,57 L 38,58 L 39,57 L 38,57 L 37,56 L 37,54 L 39,52 L 40,52 L 42,50 L 46,50 L 47,51 L 48,51 L 49,52 L 49,53 L 53,57 L 54,57 L 55,58 L 55,59 L 58,62 L 58,67 L 59,67 L 60,66 L 62,66 L 63,67 L 64,67 L 65,68 L 66,68 L 67,69 L 74,69 L 75,68 L 76,68 L 77,67 L 78,67 L 79,66 L 80,66 L 82,64 L 86,64 L 89,67 L 90,67 L 91,68 L 93,68 L 94,69 L 96,69 L 97,70 L 98,70 L 99,69 L 100,69 L 101,68 L 101,65 L 102,64 L 103,64 L 105,62 L 108,62 L 109,63 L 109,62 L 110,61 L 110,54 L 111,53 L 110,52 L 110,50 L 112,48 L 112,46 L 113,45 L 113,44 L 114,43 L 114,41 L 117,38 L 118,38 L 121,35 L 121,34 L 122,33 L 134,33 L 135,32 L 138,32 L 141,29 L 142,29 L 143,28 L 144,29 L 144,30 L 145,31 L 146,31 L 148,33 L 148,34 L 151,34 L 152,35 L 152,36 L 153,36 L 154,37 L 155,37 L 156,38 L 159,38 L 160,39 L 161,39 L 162,40 L 163,40 L 166,43 L 167,43 L 168,42 L 168,41 L 169,40 L 169,39 L 171,37 L 177,37 L 177,36 L 176,35 L 175,35 L 174,36 L 173,36 L 172,35 L 171,36 L 169,36 L 168,35 L 169,34 L 170,34 L 171,33 L 168,33 L 167,32 L 163,32 L 162,31 L 160,31 L 159,30 L 156,30 L 155,29 L 156,28 L 155,27 L 156,26 L 157,26 L 158,27 L 160,27 L 161,28 L 166,28 L 167,29 L 172,29 L 173,30 L 178,30 L 179,29 L 181,29 L 182,28 L 182,27 L 183,26 L 184,26 L 185,25 L 191,25 L 192,24 L 193,24 L 193,22 L 191,20 L 189,20 L 188,19 L 187,19 L 186,18 L 186,17 L 182,17 L 181,16 L 182,15 L 180,13 L 179,13 L 178,12 L 177,12 L 174,15 L 173,15 L 172,14 L 173,13 L 173,12 L 171,12 L 170,13 L 168,13 L 167,14 L 166,13 L 166,10 L 164,8 L 158,8 L 154,12 L 154,14 L 153,15 L 153,16 L 152,17 L 152,18 L 151,19 L 151,20 L 150,21 L 150,29 L 148,31 L 147,31 L 146,30 L 148,28 L 148,21 L 146,19 L 145,19 L 144,20 L 143,19 L 143,18 L 144,17 L 146,17 L 150,13 L 150,12 L 149,13 L 148,13 L 147,14 L 146,14 L 145,15 L 143,15 L 142,14 L 143,13 L 144,13 L 145,12 L 146,12 L 146,11 L 143,11 L 142,10 L 143,9 L 147,9 L 148,10 L 149,9 L 150,9 L 151,8 L 152,8 L 153,7 L 153,6 L 154,5 L 153,4 L 151,4 L 149,2 L 146,2 L 145,3 L 142,3 L 141,2 L 141,1 L 140,1 L 137,4 L 136,4 L 135,3 L 134,3 L 134,4 L 133,5 L 133,6 L 134,7 L 138,7 L 139,8 L 139,9 L 138,10 L 137,9 L 135,9 L 135,10 L 133,12 L 132,12 L 132,13 L 133,14 L 134,14 L 135,15 L 134,16 L 132,16 L 131,15 L 130,16 L 130,17 L 131,18 L 130,19 L 128,19 L 125,22 L 123,22 L 122,21 L 122,20 L 123,19 L 123,18 L 124,17 L 124,14 L 122,14 L 121,13 L 122,12 L 124,12 L 125,11 L 125,8 L 126,7 L 125,6 L 123,6 L 115,14 L 115,15 L 111,19 L 110,19 L 106,23 L 107,23 L 108,24 L 105,27 L 105,28 L 103,30 L 101,30 L 100,29 L 100,28 L 100,30 L 99,31 L 98,30 L 98,27 L 99,26 L 99,25 L 100,24 L 101,24 L 100,23 L 100,22 L 101,21 L 103,21 L 103,19 L 101,17 L 104,14 L 106,14 L 112,8 L 113,8 L 113,7 L 108,7 L 107,6 L 108,5 L 111,5 L 112,4 L 115,4 L 114,4 L 113,3 L 115,1 L 114,1 L 113,2 L 111,0 Z" fill="none" stroke="black" stroke-width="1"/>
</svg>