<svg xmlns="http://www.w3.org/2000/svg" width="89" height="60">
  <path d="M 11,11 L 10,12 L 7,12 L 7,13 L 9,15 L 11,15 L 13,17 L 12,18 L 9,18 L 8,19 L 6,19 L 5,18 L 5,15 L 3,13 L 1,13 L 1,15 L 3,17 L 3,18 L 2,19 L 0,19 L 0,20 L 1,20 L 2,21 L 3,21 L 4,22 L 4,23 L 5,23 L 5,22 L 6,21 L 7,21 L 9,23 L 11,23 L 12,24 L 13,24 L 14,25 L 15,25 L 16,26 L 16,29 L 15,30 L 15,33 L 14,34 L 14,36 L 15,37 L 17,37 L 17,36 L 19,34 L 19,32 L 20,31 L 20,29 L 19,28 L 19,25 L 18,24 L 18,23 L 20,21 L 20,20 L 21,19 L 21,16 L 20,15 L 19,15 L 18,14 L 18,13 L 17,13 L 16,12 L 15,12 L 14,11 Z" fill="none" stroke="black" stroke-width="1"/>
</svg>