<svg xmlns="http://www.w3.org/2000/svg" width="89" height="60">
  <path d="M 37,31 L 37,32 L 35,34 L 33,34 L 32,35 L 30,35 L 28,37 L 26,37 L 25,36 L 22,36 L 21,35 L 19,35 L 18,36 L 18,38 L 20,38 L 21,39 L 21,40 L 19,42 L 18,42 L 17,41 L 16,41 L 15,42 L 15,43 L 16,44 L 17,43 L 28,43 L 29,42 L 31,42 L 32,43 L 31,44 L 30,44 L 29,45 L 28,45 L 28,46 L 27,47 L 26,47 L 25,48 L 26,48 L 27,47 L 28,47 L 29,48 L 28,49 L 28,50 L 29,50 L 30,49 L 30,47 L 31,46 L 32,47 L 32,46 L 33,45 L 34,45 L 35,46 L 36,46 L 37,47 L 37,48 L 38,49 L 40,49 L 41,48 L 42,48 L 44,50 L 43,51 L 44,51 L 45,52 L 44,53 L 44,54 L 46,56 L 47,56 L 48,57 L 49,57 L 49,56 L 50,55 L 50,51 L 51,50 L 51,47 L 53,45 L 52,44 L 50,44 L 49,43 L 49,39 L 50,38 L 50,37 L 51,36 L 48,33 L 48,32 L 46,32 L 46,33 L 45,34 L 44,34 L 42,32 L 40,32 L 39,31 Z" fill="none" stroke="black" stroke-width="1"/>
</svg>