<svg xmlns="http://www.w3.org/2000/svg" width="84" height="87">
  <path d="M 82,77 L 81,78 L 80,78 L 79,79 L 78,79 L 76,81 L 76,86 L 77,86 L 78,85 L 78,84 L 79,83 L 80,83 L 80,82 L 82,80 L 82,79 L 83,78 L 83,77 Z" fill="none" stroke="black" stroke-width="1"/>
  <path d="M 52,73 L 52,74 L 53,74 L 54,75 L 55,75 L 56,74 L 56,73 Z" fill="none" stroke="black" stroke-width="1"/>
  <path d="M 73,71 L 72,72 L 70,72 L 74,72 L 75,71 Z" fill="none" stroke="black" stroke-width="1"/>
  <path d="M 66,69 L 65,70 L 66,70 L 67,69 L 69,69 Z" fill="none" stroke="black" stroke-width="1"/>
  <path d="M 63,66 L 63,67 L 65,67 L 64,66 Z" fill="none" stroke="black" stroke-width="1"/>
</svg>