<svg xmlns="http://www.w3.org/2000/svg" width="96" height="66">
  <path d="M 35,21 L 35,23 L 36,24 L 35,25 L 35,26 L 34,27 L 34,28 L 35,29 L 35,32 L 37,32 L 38,33 L 39,33 L 40,34 L 40,35 L 39,36 L 35,36 L 34,35 L 32,35 L 31,34 L 28,34 L 27,33 L 23,33 L 21,35 L 21,36 L 20,37 L 22,37 L 23,38 L 27,38 L 28,39 L 31,39 L 32,40 L 33,40 L 34,41 L 35,41 L 36,42 L 35,43 L 35,44 L 36,45 L 36,47 L 37,47 L 38,48 L 39,48 L 41,50 L 41,52 L 42,53 L 42,54 L 45,54 L 47,52 L 48,52 L 48,49 L 50,47 L 51,47 L 52,46 L 53,46 L 54,45 L 54,37 L 53,36 L 53,33 L 52,32 L 52,30 L 51,30 L 50,29 L 50,28 L 49,27 L 49,26 L 48,25 L 48,24 L 47,23 L 47,22 L 46,22 L 45,21 L 42,21 L 41,22 L 40,21 Z" fill="none" stroke="black" stroke-width="1"/>
</svg>