<svg xmlns="http://www.w3.org/2000/svg" width="79" height="69">
  <path d="M 45,48 L 44,49 L 43,49 L 42,50 L 41,50 L 40,51 L 39,51 L 37,53 L 34,53 L 33,54 L 32,54 L 31,55 L 20,55 L 19,54 L 19,57 L 17,59 L 16,58 L 13,58 L 11,60 L 9,60 L 8,59 L 8,60 L 9,61 L 9,63 L 10,64 L 10,65 L 11,65 L 12,66 L 13,66 L 14,67 L 18,67 L 19,68 L 21,66 L 25,66 L 27,64 L 29,64 L 30,63 L 30,62 L 31,61 L 37,61 L 34,58 L 34,56 L 35,55 L 36,55 L 39,52 L 40,52 L 42,50 L 43,50 L 44,49 L 45,49 Z" fill="none" stroke="black" stroke-width="1"/>
</svg>