<svg xmlns="http://www.w3.org/2000/svg" width="57" height="55">
  <path d="M 21,0 L 21,1 L 19,3 L 19,4 L 18,5 L 14,5 L 13,6 L 11,6 L 10,5 L 9,5 L 8,4 L 7,4 L 4,7 L 2,7 L 3,8 L 3,9 L 1,11 L 0,11 L 2,13 L 5,13 L 4,12 L 5,11 L 9,11 L 10,12 L 10,13 L 12,13 L 15,16 L 15,18 L 16,19 L 15,20 L 17,22 L 19,22 L 20,21 L 24,21 L 25,20 L 26,20 L 27,21 L 29,21 L 30,20 L 30,19 L 31,18 L 32,18 L 34,16 L 34,15 L 35,14 L 35,10 L 34,9 L 34,5 L 32,3 L 31,3 L 30,2 L 26,2 L 24,0 Z" fill="none" stroke="black" stroke-width="1"/>
</svg>