<svg xmlns="http://www.w3.org/2000/svg" width="80" height="48">
  <path d="M 15,5 L 14,6 L 12,6 L 11,7 L 10,7 L 9,8 L 8,8 L 8,11 L 5,14 L 3,14 L 2,15 L 0,15 L 0,17 L 4,21 L 5,21 L 6,22 L 6,24 L 5,25 L 4,25 L 3,26 L 3,30 L 2,31 L 2,35 L 3,35 L 4,36 L 7,36 L 8,35 L 9,35 L 9,33 L 11,31 L 15,31 L 16,32 L 18,32 L 19,31 L 20,31 L 21,30 L 22,30 L 24,28 L 25,28 L 26,27 L 26,26 L 25,25 L 25,22 L 26,21 L 21,16 L 21,13 L 20,12 L 20,11 L 18,9 L 18,6 L 17,5 Z" fill="none" stroke="black" stroke-width="1"/>
</svg>