<svg xmlns="http://www.w3.org/2000/svg" width="80" height="48">
  <path d="M 35,27 L 32,30 L 29,30 L 27,28 L 26,28 L 25,29 L 24,29 L 22,31 L 21,31 L 20,32 L 19,32 L 18,33 L 16,33 L 15,32 L 11,32 L 10,33 L 10,35 L 9,36 L 8,36 L 8,37 L 9,37 L 11,39 L 11,40 L 14,43 L 16,43 L 18,45 L 18,46 L 19,47 L 26,47 L 26,46 L 27,45 L 30,45 L 31,44 L 32,44 L 33,43 L 37,43 L 38,42 L 40,42 L 41,41 L 42,41 L 43,40 L 44,40 L 46,38 L 49,38 L 49,37 L 51,35 L 55,35 L 55,33 L 50,33 L 49,32 L 49,30 L 48,29 L 48,28 L 47,28 L 46,27 L 45,28 L 41,28 L 40,27 Z" fill="none" stroke="black" stroke-width="1"/>
</svg>