<svg xmlns="http://www.w3.org/2000/svg" width="79" height="69">
  <path d="M 66,0 L 66,3 L 64,5 L 63,5 L 61,7 L 59,7 L 58,8 L 56,8 L 55,9 L 54,9 L 53,10 L 53,11 L 52,12 L 52,13 L 49,16 L 48,16 L 48,17 L 47,18 L 43,18 L 42,19 L 42,20 L 41,21 L 38,21 L 36,23 L 35,23 L 36,24 L 36,25 L 37,26 L 37,29 L 39,31 L 39,32 L 40,31 L 41,31 L 44,28 L 49,28 L 50,29 L 51,29 L 52,30 L 53,30 L 54,31 L 55,31 L 56,32 L 57,32 L 58,31 L 60,31 L 60,30 L 62,28 L 64,28 L 65,27 L 65,26 L 67,24 L 69,24 L 70,23 L 75,23 L 75,22 L 78,19 L 78,17 L 77,16 L 76,16 L 74,14 L 72,14 L 70,12 L 70,11 L 71,10 L 71,8 L 72,7 L 71,7 L 70,6 L 70,5 L 72,3 L 72,2 L 71,2 L 69,0 Z" fill="none" stroke="black" stroke-width="1"/>
</svg>