<svg xmlns="http://www.w3.org/2000/svg" width="84" height="45">
  <path d="M 70,17 L 69,18 L 68,18 L 67,19 L 64,19 L 63,20 L 58,20 L 57,19 L 56,19 L 55,18 L 48,18 L 48,19 L 47,20 L 47,21 L 46,22 L 45,22 L 44,23 L 44,29 L 45,30 L 45,33 L 44,34 L 42,34 L 41,35 L 43,35 L 44,36 L 44,37 L 45,37 L 46,38 L 46,41 L 47,42 L 49,42 L 50,43 L 52,43 L 53,44 L 53,43 L 54,42 L 54,40 L 58,36 L 59,36 L 60,35 L 62,35 L 63,34 L 64,34 L 66,32 L 66,31 L 67,30 L 68,30 L 69,29 L 75,29 L 76,30 L 79,30 L 80,29 L 81,29 L 82,28 L 83,28 L 83,24 L 82,23 L 82,21 L 80,21 L 79,20 L 75,20 L 73,18 L 72,18 L 71,17 Z" fill="none" stroke="black" stroke-width="1"/>
</svg>