<svg xmlns="http://www.w3.org/2000/svg" width="69" height="58">
  <path d="M 49,0 L 47,2 L 45,2 L 44,3 L 42,3 L 40,5 L 39,5 L 38,6 L 36,6 L 35,7 L 34,7 L 33,8 L 27,8 L 26,7 L 24,7 L 23,6 L 22,6 L 21,5 L 20,5 L 19,6 L 17,6 L 16,5 L 15,6 L 12,6 L 11,7 L 10,7 L 9,8 L 5,8 L 4,9 L 3,8 L 2,8 L 1,9 L 1,13 L 0,14 L 0,15 L 2,17 L 2,18 L 3,17 L 6,17 L 7,18 L 7,20 L 12,20 L 13,19 L 14,19 L 17,16 L 20,16 L 23,19 L 26,19 L 26,18 L 28,16 L 36,16 L 37,15 L 39,15 L 41,13 L 42,13 L 44,11 L 45,11 L 46,10 L 46,9 L 51,4 L 51,3 L 52,2 L 52,1 L 51,0 Z" fill="none" stroke="black" stroke-width="1"/>
</svg>