<svg xmlns="http://www.w3.org/2000/svg" width="96" height="66">
  <path d="M 12,37 L 12,40 L 11,41 L 9,41 L 7,39 L 7,38 L 6,38 L 6,42 L 7,43 L 6,44 L 6,45 L 5,46 L 5,48 L 6,49 L 7,49 L 8,50 L 8,51 L 9,52 L 9,54 L 8,55 L 8,56 L 12,60 L 12,61 L 13,61 L 14,62 L 17,62 L 19,64 L 19,65 L 20,65 L 22,63 L 23,63 L 24,62 L 24,61 L 25,60 L 34,60 L 34,56 L 36,54 L 37,54 L 38,53 L 39,53 L 40,52 L 40,50 L 39,49 L 38,49 L 37,48 L 36,48 L 35,47 L 35,45 L 34,44 L 34,43 L 35,42 L 34,42 L 33,41 L 32,41 L 31,40 L 28,40 L 27,39 L 23,39 L 22,38 L 15,38 L 14,37 Z" fill="none" stroke="black" stroke-width="1"/>
</svg>