<svg xmlns="http://www.w3.org/2000/svg" width="69" height="58">
  <path d="M 41,14 L 39,16 L 37,16 L 36,17 L 28,17 L 27,18 L 27,20 L 25,22 L 25,25 L 31,25 L 32,26 L 34,26 L 35,27 L 35,28 L 36,28 L 37,29 L 36,30 L 38,30 L 40,32 L 40,34 L 39,35 L 39,36 L 42,36 L 43,35 L 44,36 L 45,35 L 46,35 L 48,37 L 51,37 L 53,39 L 54,39 L 55,40 L 61,40 L 64,37 L 65,37 L 65,36 L 67,34 L 68,34 L 62,28 L 63,27 L 63,26 L 64,25 L 64,24 L 63,24 L 62,23 L 62,24 L 61,25 L 60,25 L 59,26 L 57,26 L 56,27 L 54,27 L 53,26 L 50,26 L 49,25 L 49,24 L 48,23 L 48,22 L 47,21 L 47,19 L 45,17 L 45,16 L 44,16 L 42,14 Z" fill="none" stroke="black" stroke-width="1"/>
</svg>