<svg xmlns="http://www.w3.org/2000/svg" width="46" height="32">
  <path d="M 39,1 L 38,2 L 35,2 L 33,4 L 32,4 L 30,6 L 29,6 L 28,7 L 27,7 L 27,8 L 26,9 L 22,9 L 22,10 L 23,11 L 23,12 L 24,13 L 24,15 L 22,17 L 21,17 L 21,18 L 17,22 L 15,22 L 12,25 L 10,25 L 9,26 L 10,27 L 10,29 L 11,29 L 13,31 L 22,31 L 22,29 L 24,27 L 24,26 L 23,25 L 23,24 L 24,23 L 29,23 L 29,22 L 31,20 L 33,20 L 34,21 L 35,21 L 37,19 L 37,17 L 38,16 L 45,16 L 45,12 L 42,9 L 42,7 L 41,6 L 41,5 L 43,3 L 43,2 L 42,1 Z" fill="none" stroke="black" stroke-width="1"/>
</svg>