<svg xmlns="http://www.w3.org/2000/svg" width="77" height="32">
  <path d="M 44,8 L 44,9 L 42,11 L 42,14 L 38,18 L 38,19 L 37,20 L 37,21 L 38,22 L 37,23 L 38,24 L 38,25 L 40,27 L 43,27 L 44,28 L 46,28 L 47,29 L 49,29 L 50,28 L 51,28 L 52,27 L 55,27 L 56,28 L 57,28 L 58,29 L 63,29 L 64,28 L 65,28 L 68,31 L 71,31 L 70,30 L 70,29 L 71,28 L 71,27 L 73,25 L 73,24 L 74,23 L 74,22 L 71,19 L 71,13 L 70,13 L 69,14 L 67,14 L 64,17 L 63,17 L 62,18 L 60,18 L 58,16 L 55,16 L 53,14 L 53,13 L 51,11 L 51,10 L 50,9 L 48,9 L 47,8 Z" fill="none" stroke="black" stroke-width="1"/>
</svg>