<svg xmlns="http://www.w3.org/2000/svg" width="82" height="67">
  <path d="M 33,9 L 33,10 L 34,11 L 33,12 L 32,12 L 30,10 L 29,10 L 28,11 L 20,11 L 18,13 L 17,13 L 16,12 L 15,12 L 15,13 L 17,15 L 16,16 L 15,16 L 15,18 L 17,20 L 18,20 L 19,21 L 18,22 L 18,23 L 16,25 L 16,26 L 18,26 L 19,25 L 19,24 L 21,22 L 21,20 L 23,18 L 28,18 L 29,17 L 30,17 L 33,14 L 37,14 L 37,13 L 36,13 L 35,12 L 36,11 L 37,11 L 37,10 L 36,9 Z" fill="none" stroke="black" stroke-width="1"/>
  <path d="M 25,0 L 22,3 L 18,3 L 18,4 L 19,5 L 22,5 L 23,6 L 23,7 L 24,8 L 26,8 L 26,7 L 28,5 L 29,6 L 31,4 L 31,3 L 29,1 L 28,1 L 27,0 Z" fill="none" stroke="black" stroke-width="1"/>
</svg>