<svg xmlns="http://www.w3.org/2000/svg" width="47" height="54">
  <path d="M 44,5 L 40,9 L 38,9 L 38,10 L 37,11 L 36,11 L 35,12 L 34,11 L 33,11 L 32,10 L 33,9 L 33,8 L 32,7 L 31,7 L 30,8 L 29,8 L 27,10 L 27,11 L 26,12 L 26,13 L 24,15 L 24,16 L 23,17 L 24,18 L 24,21 L 27,24 L 27,30 L 28,30 L 29,29 L 30,29 L 32,27 L 33,27 L 34,26 L 37,26 L 36,25 L 36,23 L 35,22 L 35,21 L 36,20 L 36,19 L 39,16 L 41,16 L 41,15 L 42,14 L 42,13 L 43,12 L 43,11 L 46,8 L 46,7 L 45,6 L 45,5 Z" fill="none" stroke="black" stroke-width="1"/>
</svg>