<svg xmlns="http://www.w3.org/2000/svg" width="91" height="62">
  <path d="M 51,0 L 49,2 L 48,2 L 47,3 L 47,4 L 49,6 L 49,7 L 48,8 L 48,9 L 49,8 L 51,10 L 51,11 L 54,11 L 55,12 L 55,13 L 56,13 L 58,15 L 58,17 L 61,17 L 62,18 L 65,18 L 67,20 L 68,20 L 70,22 L 72,22 L 78,28 L 80,28 L 80,27 L 81,26 L 82,26 L 83,27 L 84,27 L 85,26 L 85,25 L 86,24 L 86,23 L 88,21 L 88,18 L 89,17 L 88,16 L 88,15 L 87,14 L 88,13 L 88,12 L 90,10 L 90,8 L 88,6 L 86,6 L 86,7 L 85,8 L 84,7 L 83,7 L 82,6 L 80,6 L 79,5 L 77,5 L 75,3 L 74,3 L 73,2 L 72,2 L 71,1 L 68,1 L 65,4 L 62,4 L 60,2 L 59,2 L 57,0 Z" fill="none" stroke="black" stroke-width="1"/>
</svg>