<svg xmlns="http://www.w3.org/2000/svg" width="83" height="74">
  <path d="M 26,14 L 25,15 L 22,15 L 20,17 L 20,18 L 17,21 L 16,21 L 14,23 L 13,23 L 12,24 L 11,24 L 11,26 L 7,30 L 7,35 L 6,36 L 2,36 L 2,38 L 0,40 L 0,46 L 3,49 L 7,49 L 8,50 L 10,50 L 11,51 L 22,51 L 23,50 L 24,50 L 25,49 L 26,49 L 26,48 L 27,47 L 28,47 L 28,46 L 29,45 L 30,45 L 31,44 L 31,42 L 32,41 L 32,40 L 31,40 L 30,39 L 30,38 L 31,37 L 31,35 L 32,34 L 33,34 L 34,33 L 35,33 L 37,31 L 38,31 L 38,29 L 36,27 L 36,25 L 35,24 L 37,22 L 38,22 L 39,21 L 38,21 L 36,19 L 35,19 L 34,18 L 33,18 L 29,14 Z" fill="none" stroke="black" stroke-width="1"/>
</svg>