<svg xmlns="http://www.w3.org/2000/svg" width="81" height="76">
  <path d="M 33,53 L 30,56 L 30,57 L 28,59 L 27,59 L 26,60 L 25,60 L 24,61 L 22,61 L 21,62 L 20,62 L 19,63 L 16,63 L 15,64 L 12,64 L 11,65 L 5,65 L 5,66 L 4,67 L 4,68 L 1,71 L 1,73 L 0,74 L 0,75 L 5,75 L 6,74 L 15,74 L 16,73 L 18,73 L 19,72 L 21,72 L 22,71 L 24,71 L 25,70 L 29,70 L 30,69 L 32,69 L 33,68 L 36,68 L 37,67 L 38,67 L 40,65 L 41,65 L 46,60 L 46,59 L 38,59 L 37,58 L 37,57 L 35,57 L 34,56 L 34,55 L 33,54 Z" fill="none" stroke="black" stroke-width="1"/>
</svg>