<svg xmlns="http://www.w3.org/2000/svg" width="69" height="66">
  <path d="M 19,18 L 19,19 L 20,20 L 20,21 L 19,22 L 18,22 L 17,23 L 15,23 L 14,24 L 11,24 L 11,25 L 10,26 L 10,27 L 9,28 L 9,34 L 8,35 L 8,36 L 6,38 L 6,39 L 5,40 L 4,40 L 4,43 L 3,44 L 3,48 L 2,49 L 2,50 L 1,51 L 2,52 L 2,57 L 1,58 L 1,59 L 0,60 L 0,65 L 4,65 L 5,64 L 6,64 L 6,62 L 7,61 L 11,61 L 11,60 L 12,59 L 15,59 L 15,56 L 16,55 L 17,55 L 17,54 L 18,53 L 18,52 L 19,51 L 19,50 L 20,49 L 20,48 L 26,42 L 26,41 L 27,40 L 29,40 L 31,38 L 31,32 L 30,32 L 29,31 L 29,30 L 23,30 L 22,29 L 22,28 L 24,26 L 25,26 L 25,24 L 24,23 L 24,22 L 25,21 L 25,20 L 24,19 L 22,19 L 21,18 Z" fill="none" stroke="black" stroke-width="1"/>
</svg>