<svg xmlns="http://www.w3.org/2000/svg" width="83" height="74">
  <path d="M 67,0 L 66,1 L 65,1 L 64,2 L 62,2 L 62,3 L 60,5 L 59,5 L 58,6 L 56,6 L 54,4 L 53,4 L 53,5 L 52,6 L 49,6 L 48,7 L 45,7 L 44,8 L 43,8 L 40,5 L 40,4 L 39,3 L 38,3 L 37,2 L 36,2 L 35,1 L 34,1 L 34,2 L 33,3 L 32,3 L 32,4 L 30,6 L 28,6 L 28,9 L 32,9 L 33,10 L 33,12 L 32,13 L 31,13 L 30,14 L 33,17 L 34,17 L 35,18 L 36,18 L 38,20 L 39,20 L 40,21 L 41,20 L 42,20 L 43,19 L 44,19 L 45,18 L 46,18 L 47,19 L 48,19 L 49,20 L 51,20 L 52,19 L 54,19 L 55,18 L 56,18 L 57,17 L 61,17 L 62,18 L 62,19 L 67,19 L 68,18 L 68,17 L 69,16 L 69,15 L 71,13 L 74,13 L 75,14 L 77,14 L 78,13 L 80,13 L 81,12 L 82,12 L 82,10 L 80,10 L 79,9 L 79,8 L 77,6 L 77,5 L 76,4 L 76,2 L 73,2 L 72,1 L 68,1 Z" fill="none" stroke="black" stroke-width="1"/>
</svg>