<svg xmlns="http://www.w3.org/2000/svg" width="97" height="61">
  <path d="M 34,26 L 33,27 L 31,27 L 30,28 L 28,28 L 27,29 L 26,29 L 25,30 L 24,30 L 23,31 L 22,31 L 21,32 L 19,32 L 18,33 L 16,33 L 15,34 L 14,34 L 13,35 L 12,35 L 12,36 L 11,37 L 8,37 L 7,38 L 6,38 L 4,40 L 3,40 L 0,43 L 0,45 L 1,46 L 2,46 L 3,47 L 5,47 L 12,54 L 13,54 L 17,58 L 18,58 L 19,59 L 21,59 L 22,60 L 23,59 L 24,59 L 27,56 L 27,55 L 35,47 L 36,47 L 37,46 L 45,46 L 46,47 L 47,47 L 49,45 L 49,44 L 50,43 L 50,42 L 51,41 L 51,38 L 52,37 L 52,35 L 53,34 L 52,33 L 52,31 L 49,28 L 49,27 L 48,27 L 47,26 Z" fill="none" stroke="black" stroke-width="1"/>
</svg>