<svg xmlns="http://www.w3.org/2000/svg" width="77" height="54">
  <path d="M 0,14 L 0,15 L 3,15 L 3,14 Z" fill="none" stroke="black" stroke-width="1"/>
  <path d="M 40,0 L 40,1 L 39,2 L 38,2 L 37,1 L 37,3 L 36,4 L 33,4 L 32,3 L 31,3 L 30,4 L 28,4 L 27,3 L 26,3 L 26,4 L 25,5 L 19,5 L 16,8 L 15,7 L 14,7 L 14,8 L 13,9 L 10,9 L 9,10 L 5,10 L 5,11 L 6,12 L 6,13 L 5,14 L 5,15 L 6,15 L 6,14 L 7,13 L 8,14 L 8,16 L 7,17 L 5,17 L 5,19 L 6,19 L 8,21 L 7,22 L 6,22 L 6,25 L 7,25 L 8,26 L 8,27 L 9,28 L 9,29 L 10,30 L 12,28 L 12,27 L 14,25 L 15,26 L 19,26 L 20,25 L 21,25 L 22,24 L 26,24 L 27,25 L 30,25 L 31,24 L 34,24 L 36,22 L 41,22 L 43,20 L 44,20 L 45,19 L 46,19 L 46,18 L 47,17 L 46,16 L 47,15 L 47,12 L 49,10 L 48,9 L 48,6 L 50,4 L 50,2 L 46,2 L 45,1 L 44,1 L 43,2 L 42,1 L 41,1 Z" fill="none" stroke="black" stroke-width="1"/>
</svg>