<svg xmlns="http://www.w3.org/2000/svg" width="97" height="61">
  <path d="M 68,13 L 66,15 L 66,16 L 62,20 L 61,20 L 57,24 L 56,24 L 55,25 L 53,25 L 52,26 L 51,26 L 50,27 L 50,28 L 53,31 L 53,33 L 54,34 L 53,35 L 53,37 L 52,38 L 52,40 L 53,40 L 54,39 L 59,39 L 60,40 L 62,40 L 63,41 L 67,41 L 68,40 L 69,40 L 72,37 L 73,37 L 75,35 L 76,35 L 77,34 L 78,34 L 79,33 L 87,33 L 87,32 L 90,29 L 91,29 L 91,28 L 95,24 L 95,23 L 96,22 L 96,21 L 95,20 L 95,19 L 86,19 L 85,18 L 74,18 L 73,17 L 72,17 L 71,16 L 70,16 L 69,15 L 69,14 Z" fill="none" stroke="black" stroke-width="1"/>
</svg>