<svg xmlns="http://www.w3.org/2000/svg" width="134" height="92">
  <path d="M 85,0 L 84,1 L 82,1 L 80,3 L 77,3 L 76,2 L 74,2 L 73,1 L 73,2 L 74,3 L 74,4 L 73,5 L 73,6 L 69,10 L 69,11 L 68,12 L 67,12 L 65,14 L 65,19 L 64,20 L 63,20 L 63,23 L 64,24 L 64,25 L 65,26 L 65,27 L 66,27 L 68,29 L 68,33 L 69,34 L 70,34 L 73,37 L 73,38 L 74,39 L 74,41 L 75,42 L 75,47 L 76,48 L 76,49 L 77,50 L 77,51 L 78,52 L 78,59 L 79,60 L 79,61 L 81,61 L 84,58 L 84,55 L 90,49 L 91,49 L 93,47 L 94,47 L 98,43 L 99,43 L 99,42 L 98,41 L 98,39 L 97,38 L 97,33 L 95,31 L 95,30 L 93,28 L 93,27 L 92,26 L 92,25 L 93,24 L 93,21 L 92,20 L 92,19 L 91,18 L 91,17 L 92,16 L 92,14 L 93,13 L 93,12 L 94,11 L 95,11 L 95,10 L 91,6 L 91,5 L 90,4 L 90,3 L 89,2 L 89,1 L 88,0 Z" fill="none" stroke="black" stroke-width="1"/>
</svg>