<svg xmlns="http://www.w3.org/2000/svg" width="41" height="49">
  <path d="M 19,23 L 18,24 L 17,24 L 17,25 L 16,26 L 16,27 L 15,28 L 15,29 L 14,30 L 13,30 L 10,33 L 9,33 L 8,32 L 5,32 L 5,37 L 6,38 L 6,40 L 7,41 L 7,42 L 8,43 L 9,43 L 11,45 L 14,45 L 15,46 L 17,46 L 18,47 L 20,47 L 21,48 L 22,48 L 23,47 L 26,47 L 27,46 L 28,46 L 29,45 L 30,45 L 38,37 L 38,35 L 40,33 L 39,32 L 34,32 L 33,31 L 33,26 L 32,25 L 31,25 L 29,27 L 27,27 L 26,26 L 26,25 L 27,24 L 25,24 L 24,25 L 23,24 L 22,24 L 21,23 Z" fill="none" stroke="black" stroke-width="1"/>
</svg>