<svg xmlns="http://www.w3.org/2000/svg" width="148" height="66">
  <path d="M 89,33 L 89,35 L 88,36 L 87,36 L 86,37 L 85,37 L 84,38 L 83,38 L 82,39 L 84,39 L 86,41 L 86,44 L 87,45 L 87,47 L 88,48 L 88,49 L 93,54 L 94,54 L 95,53 L 96,53 L 97,52 L 104,52 L 105,51 L 109,51 L 110,52 L 111,52 L 114,55 L 118,55 L 119,56 L 121,56 L 122,55 L 126,55 L 127,56 L 132,56 L 135,59 L 135,60 L 138,63 L 139,63 L 140,64 L 145,64 L 146,65 L 147,65 L 147,64 L 146,63 L 146,61 L 145,60 L 145,58 L 144,57 L 144,56 L 143,56 L 142,55 L 142,50 L 141,49 L 140,50 L 133,50 L 131,48 L 130,48 L 128,46 L 127,46 L 125,44 L 124,44 L 121,41 L 120,41 L 119,40 L 118,40 L 117,39 L 116,39 L 115,38 L 114,38 L 113,37 L 110,37 L 109,36 L 107,36 L 106,35 L 104,35 L 103,34 L 100,34 L 99,33 Z" fill="none" stroke="black" stroke-width="1"/>
</svg>