<svg xmlns="http://www.w3.org/2000/svg" width="137" height="63">
  <path d="M 33,0 L 30,3 L 23,3 L 22,4 L 21,4 L 19,6 L 17,6 L 8,15 L 8,18 L 7,19 L 7,22 L 8,23 L 8,26 L 10,28 L 10,29 L 11,30 L 11,34 L 9,36 L 9,37 L 8,38 L 8,39 L 2,45 L 0,45 L 0,46 L 1,47 L 1,52 L 2,52 L 3,53 L 3,54 L 4,55 L 4,57 L 5,58 L 5,60 L 6,61 L 7,61 L 8,62 L 10,62 L 11,61 L 12,61 L 13,60 L 14,60 L 17,57 L 17,50 L 19,48 L 19,47 L 21,45 L 21,44 L 22,43 L 22,42 L 23,41 L 23,40 L 24,39 L 27,39 L 28,40 L 28,27 L 29,26 L 29,25 L 30,24 L 31,24 L 32,23 L 33,23 L 33,16 L 34,15 L 34,13 L 35,12 L 35,9 L 36,8 L 36,2 L 35,1 L 35,0 Z" fill="none" stroke="black" stroke-width="1"/>
</svg>