<svg xmlns="http://www.w3.org/2000/svg" width="70" height="67">
  <path d="M 24,0 L 22,2 L 19,2 L 18,3 L 15,3 L 14,2 L 10,2 L 9,3 L 8,3 L 7,4 L 3,4 L 2,3 L 1,4 L 1,5 L 0,6 L 0,7 L 1,7 L 3,9 L 4,9 L 5,8 L 5,7 L 7,5 L 8,5 L 10,7 L 10,8 L 9,9 L 9,13 L 8,14 L 8,15 L 7,16 L 7,18 L 6,19 L 6,20 L 7,21 L 7,25 L 8,26 L 8,31 L 12,31 L 13,32 L 14,32 L 15,31 L 17,31 L 18,30 L 28,30 L 29,31 L 31,31 L 32,30 L 33,31 L 37,31 L 39,29 L 39,28 L 40,27 L 40,26 L 39,26 L 37,24 L 37,23 L 39,21 L 39,20 L 38,20 L 36,18 L 36,16 L 35,15 L 35,11 L 34,11 L 33,10 L 33,8 L 36,5 L 34,5 L 33,4 L 32,4 L 29,1 L 29,0 Z" fill="none" stroke="black" stroke-width="1"/>
</svg>