<svg xmlns="http://www.w3.org/2000/svg" width="45" height="44">
  <path d="M 30,18 L 30,19 L 28,21 L 28,22 L 23,27 L 22,27 L 21,28 L 19,28 L 18,29 L 10,29 L 9,30 L 8,30 L 7,29 L 7,28 L 6,28 L 5,29 L 4,29 L 3,30 L 2,30 L 1,31 L 1,32 L 2,33 L 2,36 L 1,37 L 0,37 L 0,38 L 1,38 L 3,40 L 4,40 L 5,41 L 5,42 L 6,43 L 12,43 L 13,42 L 17,42 L 20,39 L 23,39 L 24,38 L 24,37 L 26,35 L 27,35 L 28,34 L 29,34 L 30,33 L 30,32 L 32,30 L 32,29 L 33,28 L 33,27 L 34,26 L 34,25 L 35,24 L 35,23 L 32,20 L 32,19 L 31,18 Z" fill="none" stroke="black" stroke-width="1"/>
</svg>