<svg xmlns="http://www.w3.org/2000/svg" width="64" height="116">
  <path d="M 39,0 L 38,1 L 35,1 L 32,4 L 28,4 L 27,5 L 25,5 L 25,9 L 26,10 L 26,13 L 27,14 L 27,15 L 28,16 L 28,17 L 29,18 L 29,28 L 28,29 L 28,31 L 25,34 L 24,34 L 24,35 L 27,38 L 28,38 L 30,40 L 30,41 L 32,43 L 32,44 L 33,44 L 36,47 L 38,47 L 39,48 L 39,47 L 42,44 L 42,36 L 43,35 L 43,34 L 44,33 L 44,32 L 45,31 L 45,27 L 46,26 L 46,23 L 47,22 L 47,17 L 46,16 L 46,13 L 45,12 L 45,8 L 44,7 L 44,4 L 43,3 L 43,2 L 42,1 L 41,1 L 40,0 Z" fill="none" stroke="black" stroke-width="1"/>
</svg>