<svg xmlns="http://www.w3.org/2000/svg" width="243" height="200">
  <path d="M 207,191 L 207,192 L 206,193 L 206,196 L 207,197 L 210,197 L 212,195 L 212,192 L 211,191 Z" fill="none" stroke="black" stroke-width="1"/>
  <path d="M 235,180 L 234,181 L 234,182 L 233,183 L 233,184 L 232,185 L 232,186 L 231,187 L 231,189 L 229,191 L 228,191 L 227,192 L 228,192 L 230,190 L 231,190 L 232,189 L 234,189 L 234,188 L 235,187 L 235,185 L 236,184 L 236,182 L 235,181 Z" fill="none" stroke="black" stroke-width="1"/>
  <path d="M 242,172 L 240,174 L 238,174 L 236,176 L 236,177 L 237,178 L 239,176 L 240,176 L 242,174 Z" fill="none" stroke="black" stroke-width="1"/>
</svg>