<svg xmlns="http://www.w3.org/2000/svg" width="243" height="200">
  <path d="M 59,32 L 59,33 L 58,34 L 62,34 L 60,32 Z" fill="none" stroke="black" stroke-width="1"/>
  <path d="M 48,17 L 50,19 L 51,19 L 52,20 L 54,20 L 55,21 L 56,21 L 57,20 L 60,20 L 60,19 L 58,17 L 57,17 L 56,18 L 51,18 L 50,17 Z" fill="none" stroke="black" stroke-width="1"/>
  <path d="M 7,5 L 7,6 L 8,7 L 8,8 L 14,8 L 14,7 L 12,7 L 11,6 L 10,6 L 9,5 Z" fill="none" stroke="black" stroke-width="1"/>
  <path d="M 11,2 L 11,3 L 12,3 L 13,4 L 15,4 L 16,5 L 17,5 L 17,4 L 16,4 L 15,3 L 13,3 L 12,2 Z" fill="none" stroke="black" stroke-width="1"/>
  <path d="M 4,2 L 3,3 L 0,3 L 2,5 L 4,5 L 5,4 L 4,3 Z" fill="none" stroke="black" stroke-width="1"/>
  <path d="M 26,0 L 25,1 L 25,2 L 27,2 L 28,3 L 29,3 L 29,1 L 28,1 L 27,0 Z" fill="none" stroke="black" stroke-width="1"/>
</svg>