<svg xmlns="http://www.w3.org/2000/svg" width="61" height="91">
  <path d="M 49,11 L 51,13 L 52,12 L 52,11 Z" fill="none" stroke="black" stroke-width="1"/>
  <path d="M 42,9 L 43,10 L 43,11 L 45,11 L 46,12 L 47,11 L 46,10 L 45,10 L 44,9 Z" fill="none" stroke="black" stroke-width="1"/>
  <path d="M 45,4 L 45,7 L 46,8 L 51,8 L 52,9 L 53,9 L 48,4 Z" fill="none" stroke="black" stroke-width="1"/>
  <path d="M 57,0 L 55,2 L 55,3 L 56,3 L 57,2 L 58,2 L 59,1 L 60,1 L 60,0 Z" fill="none" stroke="black" stroke-width="1"/>
</svg>