<svg xmlns="http://www.w3.org/2000/svg" width="371" height="206">
  <path d="M 32,5 L 32,6 L 31,7 L 30,6 L 29,7 L 24,7 L 24,8 L 25,8 L 26,9 L 27,9 L 28,10 L 30,10 L 31,11 L 31,12 L 33,14 L 33,17 L 32,18 L 28,18 L 27,17 L 29,15 L 30,15 L 29,14 L 29,13 L 28,12 L 27,12 L 26,13 L 24,13 L 23,12 L 23,11 L 22,10 L 21,10 L 20,9 L 16,9 L 17,9 L 18,10 L 18,12 L 16,14 L 14,12 L 10,12 L 13,15 L 16,15 L 17,16 L 16,17 L 12,17 L 10,15 L 9,16 L 11,18 L 12,18 L 13,19 L 14,19 L 16,21 L 16,22 L 15,23 L 13,21 L 11,21 L 10,20 L 9,20 L 8,19 L 7,19 L 6,18 L 5,19 L 7,21 L 9,21 L 10,22 L 9,23 L 10,23 L 11,24 L 11,25 L 10,26 L 9,26 L 8,25 L 7,25 L 6,24 L 5,24 L 4,23 L 2,23 L 0,25 L 0,26 L 1,26 L 2,25 L 4,25 L 5,26 L 6,26 L 7,27 L 8,27 L 9,28 L 10,27 L 12,27 L 13,26 L 19,26 L 19,25 L 20,24 L 23,24 L 24,23 L 26,25 L 28,25 L 29,24 L 30,25 L 34,25 L 36,23 L 37,24 L 37,26 L 38,25 L 39,25 L 41,27 L 39,29 L 38,29 L 36,31 L 34,31 L 32,33 L 31,33 L 30,34 L 31,35 L 36,35 L 37,36 L 38,35 L 40,35 L 42,33 L 43,34 L 43,35 L 42,36 L 42,37 L 41,38 L 30,38 L 29,39 L 19,39 L 18,40 L 16,40 L 15,41 L 14,41 L 13,42 L 11,42 L 10,41 L 8,41 L 7,42 L 7,43 L 9,45 L 12,45 L 14,43 L 32,43 L 34,45 L 34,46 L 33,47 L 33,50 L 34,51 L 35,51 L 36,52 L 39,49 L 40,49 L 41,48 L 42,48 L 43,49 L 41,51 L 41,52 L 37,56 L 39,56 L 40,55 L 41,55 L 42,56 L 41,57 L 41,58 L 42,58 L 43,59 L 42,60 L 39,60 L 40,61 L 40,62 L 39,63 L 37,63 L 36,64 L 33,64 L 32,65 L 30,65 L 29,64 L 29,63 L 28,62 L 28,63 L 27,64 L 27,66 L 28,67 L 28,68 L 31,68 L 32,67 L 35,67 L 36,68 L 38,68 L 39,67 L 42,67 L 43,68 L 45,68 L 46,67 L 48,67 L 52,63 L 53,64 L 53,68 L 59,68 L 60,69 L 59,70 L 60,70 L 61,69 L 62,70 L 62,72 L 63,72 L 65,74 L 66,74 L 67,75 L 74,75 L 75,76 L 77,76 L 78,77 L 80,77 L 81,78 L 87,78 L 88,77 L 88,67 L 87,66 L 87,65 L 85,63 L 84,63 L 83,62 L 82,62 L 79,59 L 79,58 L 80,57 L 80,56 L 83,53 L 84,53 L 85,52 L 89,52 L 91,50 L 91,40 L 90,39 L 90,38 L 88,36 L 86,36 L 78,28 L 78,27 L 77,26 L 77,25 L 76,24 L 76,20 L 74,18 L 74,17 L 73,16 L 72,16 L 70,14 L 70,13 L 68,11 L 68,10 L 66,10 L 65,11 L 64,11 L 64,15 L 65,16 L 65,18 L 66,19 L 66,20 L 65,21 L 65,22 L 64,23 L 64,25 L 63,26 L 61,26 L 59,24 L 59,21 L 58,22 L 57,22 L 55,24 L 55,27 L 54,28 L 53,27 L 53,33 L 52,34 L 51,33 L 51,29 L 50,28 L 50,27 L 49,26 L 49,24 L 48,23 L 47,23 L 46,22 L 44,22 L 41,19 L 42,18 L 43,18 L 45,20 L 48,20 L 48,19 L 49,18 L 49,15 L 47,13 L 47,12 L 45,12 L 44,13 L 43,12 L 43,10 L 40,7 L 39,7 L 38,6 L 35,6 L 34,5 Z" fill="none" stroke="black" stroke-width="1"/>
</svg>