<svg xmlns="http://www.w3.org/2000/svg" width="371" height="206">
  <path d="M 124,0 L 124,2 L 125,3 L 125,4 L 126,5 L 126,6 L 124,8 L 123,8 L 122,9 L 123,10 L 122,11 L 121,11 L 120,10 L 118,10 L 116,8 L 113,8 L 112,9 L 112,10 L 111,11 L 111,12 L 109,14 L 107,14 L 106,13 L 106,12 L 105,12 L 102,9 L 96,9 L 96,10 L 97,11 L 97,13 L 98,14 L 98,15 L 99,15 L 100,16 L 100,19 L 101,20 L 101,21 L 100,22 L 98,20 L 98,19 L 97,18 L 97,17 L 96,16 L 96,15 L 95,15 L 94,14 L 93,14 L 92,13 L 92,11 L 89,8 L 86,8 L 83,11 L 79,11 L 79,12 L 78,13 L 78,14 L 79,15 L 79,19 L 78,20 L 77,20 L 77,24 L 78,25 L 78,26 L 79,27 L 79,28 L 86,35 L 88,35 L 91,38 L 91,39 L 92,40 L 92,50 L 89,53 L 85,53 L 84,54 L 83,54 L 81,56 L 81,57 L 80,58 L 80,59 L 82,61 L 83,61 L 84,62 L 85,62 L 88,65 L 88,66 L 89,67 L 89,77 L 88,78 L 88,79 L 90,79 L 91,78 L 95,78 L 96,77 L 99,77 L 100,76 L 101,76 L 102,75 L 102,74 L 101,73 L 101,72 L 103,70 L 104,70 L 105,71 L 106,71 L 107,70 L 109,70 L 110,69 L 111,69 L 112,68 L 113,68 L 114,69 L 115,69 L 116,68 L 116,67 L 117,66 L 118,66 L 119,67 L 123,67 L 124,66 L 125,66 L 125,65 L 127,63 L 129,63 L 132,60 L 133,60 L 134,59 L 136,59 L 137,58 L 139,58 L 140,57 L 141,57 L 141,55 L 142,54 L 144,56 L 147,56 L 148,57 L 152,53 L 155,53 L 155,51 L 154,50 L 156,48 L 156,47 L 155,46 L 155,44 L 156,43 L 159,46 L 162,46 L 163,45 L 163,44 L 164,43 L 165,43 L 162,43 L 161,42 L 163,40 L 164,40 L 164,39 L 163,38 L 163,37 L 162,36 L 162,34 L 163,33 L 164,34 L 164,35 L 166,37 L 166,38 L 167,38 L 168,39 L 169,38 L 170,38 L 170,36 L 169,36 L 168,35 L 168,34 L 169,33 L 169,32 L 167,30 L 168,29 L 168,27 L 169,26 L 167,24 L 163,24 L 162,23 L 158,23 L 155,26 L 154,25 L 154,23 L 156,21 L 156,20 L 157,19 L 154,19 L 153,20 L 150,20 L 149,19 L 152,16 L 153,16 L 153,12 L 147,12 L 145,10 L 146,9 L 147,9 L 148,8 L 147,8 L 145,6 L 144,7 L 143,7 L 143,8 L 142,9 L 140,9 L 139,8 L 138,8 L 136,6 L 136,5 L 137,4 L 134,4 L 133,3 L 132,3 L 130,1 L 129,1 L 128,0 Z" fill="none" stroke="black" stroke-width="1"/>
</svg>