<svg xmlns="http://www.w3.org/2000/svg" width="52" height="34">
  <path d="M 29,4 L 28,5 L 28,6 L 27,7 L 23,7 L 23,8 L 22,9 L 22,11 L 20,13 L 18,13 L 17,14 L 16,14 L 15,13 L 14,14 L 14,15 L 15,15 L 16,16 L 15,17 L 14,17 L 13,18 L 13,20 L 14,21 L 15,21 L 16,22 L 17,22 L 18,21 L 19,21 L 21,23 L 21,25 L 20,26 L 20,27 L 21,28 L 21,29 L 22,30 L 22,31 L 24,31 L 25,32 L 25,33 L 28,33 L 28,32 L 26,30 L 26,29 L 27,28 L 27,27 L 29,25 L 34,25 L 35,24 L 35,22 L 34,21 L 34,18 L 33,17 L 34,16 L 34,14 L 35,13 L 35,10 L 34,9 L 34,7 L 32,5 L 32,4 Z" fill="none" stroke="black" stroke-width="1"/>
</svg>