<svg xmlns="http://www.w3.org/2000/svg" width="33" height="46">
  <path d="M 29,0 L 28,1 L 24,1 L 22,3 L 17,3 L 16,4 L 16,5 L 15,6 L 15,7 L 17,9 L 17,11 L 16,12 L 16,14 L 17,15 L 17,16 L 18,16 L 19,15 L 20,15 L 22,17 L 22,19 L 23,20 L 23,23 L 21,25 L 21,27 L 22,27 L 23,28 L 24,28 L 27,25 L 29,25 L 30,24 L 30,23 L 27,20 L 28,19 L 28,18 L 29,17 L 29,15 L 27,13 L 27,10 L 25,8 L 25,6 L 26,5 L 27,6 L 28,6 L 28,5 L 29,4 L 30,5 L 31,5 L 32,4 L 32,1 L 31,0 Z" fill="none" stroke="black" stroke-width="1"/>
</svg>