<svg xmlns="http://www.w3.org/2000/svg" width="33" height="46">
  <path d="M 30,25 L 29,26 L 27,26 L 24,29 L 23,29 L 22,28 L 21,28 L 20,27 L 19,27 L 19,28 L 18,29 L 18,30 L 17,31 L 17,32 L 16,33 L 16,36 L 17,37 L 17,38 L 16,39 L 16,40 L 17,41 L 16,42 L 12,42 L 12,43 L 13,43 L 14,44 L 14,45 L 15,45 L 15,43 L 16,42 L 17,43 L 17,44 L 18,44 L 19,43 L 24,43 L 25,44 L 25,43 L 23,41 L 24,40 L 25,40 L 27,38 L 27,35 L 28,34 L 28,31 L 31,28 L 31,27 L 30,26 Z" fill="none" stroke="black" stroke-width="1"/>
</svg>