<svg xmlns="http://www.w3.org/2000/svg" width="43" height="42">
  <path d="M 0,11 L 0,12 L 1,12 L 2,13 L 3,13 L 3,11 Z" fill="none" stroke="black" stroke-width="1"/>
  <path d="M 6,4 L 6,6 L 5,7 L 4,6 L 4,5 L 2,5 L 1,6 L 1,8 L 2,7 L 2,6 L 3,5 L 4,6 L 4,9 L 6,11 L 5,12 L 5,13 L 9,13 L 10,14 L 8,16 L 5,16 L 5,19 L 4,20 L 1,20 L 0,21 L 0,22 L 1,23 L 2,23 L 3,24 L 4,24 L 5,23 L 6,23 L 7,24 L 6,25 L 6,26 L 8,24 L 9,24 L 10,25 L 9,26 L 9,27 L 17,27 L 18,26 L 19,26 L 19,25 L 20,24 L 21,24 L 22,23 L 25,23 L 25,21 L 24,21 L 23,20 L 23,17 L 22,16 L 22,14 L 23,13 L 20,13 L 17,10 L 16,10 L 15,9 L 15,5 L 14,5 L 13,4 Z" fill="none" stroke="black" stroke-width="1"/>
</svg>