<svg xmlns="http://www.w3.org/2000/svg" width="44" height="52">
  <path d="M 16,16 L 16,18 L 15,19 L 15,21 L 12,24 L 11,24 L 10,25 L 10,30 L 11,31 L 11,37 L 12,37 L 13,38 L 16,38 L 17,37 L 18,37 L 18,36 L 21,33 L 22,33 L 23,32 L 24,32 L 25,33 L 29,33 L 30,32 L 33,32 L 34,31 L 35,31 L 36,30 L 36,29 L 35,28 L 35,27 L 36,26 L 36,25 L 37,24 L 37,19 L 36,19 L 35,18 L 35,16 L 34,16 L 33,17 L 29,17 L 28,18 L 26,18 L 25,19 L 19,19 L 18,18 L 18,17 L 17,16 Z" fill="none" stroke="black" stroke-width="1"/>
</svg>