<svg xmlns="http://www.w3.org/2000/svg" width="52" height="57">
  <path d="M 13,0 L 12,1 L 12,3 L 14,3 L 15,4 L 15,9 L 14,10 L 14,15 L 15,16 L 15,18 L 16,19 L 16,20 L 14,22 L 13,22 L 11,24 L 11,25 L 10,26 L 10,27 L 11,28 L 10,29 L 13,29 L 14,30 L 14,31 L 15,32 L 17,32 L 20,29 L 22,29 L 23,28 L 23,27 L 24,26 L 23,25 L 23,24 L 22,23 L 22,18 L 21,17 L 21,16 L 24,13 L 25,13 L 26,12 L 26,10 L 25,9 L 24,9 L 22,7 L 22,4 L 21,4 L 20,5 L 19,5 L 18,4 L 18,0 L 17,0 L 16,1 L 14,1 Z" fill="none" stroke="black" stroke-width="1"/>
</svg>