<svg xmlns="http://www.w3.org/2000/svg" width="82" height="67">
  <path d="M 23,30 L 22,31 L 21,31 L 20,32 L 18,32 L 17,33 L 14,33 L 13,34 L 12,34 L 11,35 L 11,36 L 7,40 L 7,47 L 6,48 L 5,48 L 3,50 L 2,50 L 2,54 L 1,55 L 2,56 L 2,58 L 1,59 L 1,60 L 0,61 L 0,64 L 2,66 L 3,66 L 3,65 L 4,64 L 5,64 L 6,63 L 7,63 L 8,62 L 10,62 L 11,61 L 13,61 L 14,60 L 15,60 L 16,59 L 19,59 L 20,58 L 22,58 L 22,55 L 23,54 L 23,50 L 25,48 L 26,48 L 27,47 L 26,46 L 26,43 L 28,41 L 31,41 L 33,39 L 33,38 L 32,38 L 31,37 L 30,37 L 28,35 L 27,35 L 26,34 L 26,33 L 25,32 L 25,30 Z" fill="none" stroke="black" stroke-width="1"/>
</svg>