<svg xmlns="http://www.w3.org/2000/svg" width="52" height="57">
  <path d="M 20,30 L 17,33 L 16,33 L 15,34 L 15,37 L 16,38 L 15,39 L 14,39 L 14,40 L 13,41 L 13,42 L 11,44 L 11,49 L 10,50 L 10,53 L 13,53 L 15,55 L 17,55 L 19,53 L 20,53 L 20,51 L 21,50 L 21,48 L 22,47 L 22,46 L 24,44 L 25,44 L 26,45 L 27,44 L 28,44 L 31,41 L 32,41 L 33,40 L 33,38 L 34,37 L 34,36 L 35,35 L 39,35 L 39,34 L 38,33 L 37,33 L 35,31 L 34,31 L 33,30 L 31,30 L 29,32 L 25,32 L 23,30 Z" fill="none" stroke="black" stroke-width="1"/>
</svg>