<svg xmlns="http://www.w3.org/2000/svg" width="90" height="101">
  <path d="M 33,17 L 33,18 L 28,23 L 27,23 L 25,25 L 19,25 L 19,29 L 18,30 L 18,32 L 17,33 L 17,34 L 20,37 L 20,38 L 21,39 L 21,40 L 24,43 L 24,44 L 25,45 L 25,47 L 24,48 L 23,48 L 23,49 L 24,50 L 26,50 L 27,51 L 30,51 L 32,53 L 32,55 L 35,58 L 38,58 L 39,57 L 41,57 L 42,56 L 44,56 L 44,55 L 45,54 L 45,53 L 47,51 L 47,47 L 48,46 L 48,44 L 47,43 L 48,42 L 49,42 L 45,38 L 45,37 L 44,36 L 44,34 L 43,33 L 43,30 L 42,29 L 42,27 L 43,26 L 43,23 L 42,23 L 41,22 L 41,21 L 39,21 L 37,19 L 36,19 L 34,17 Z" fill="none" stroke="black" stroke-width="1"/>
</svg>