<svg xmlns="http://www.w3.org/2000/svg" width="76" height="79">
  <path d="M 41,0 L 41,1 L 40,2 L 39,2 L 38,1 L 35,1 L 34,2 L 27,2 L 25,4 L 25,5 L 19,11 L 17,11 L 16,12 L 15,12 L 14,13 L 14,14 L 12,16 L 12,18 L 13,19 L 13,23 L 12,24 L 12,25 L 13,26 L 15,26 L 16,27 L 17,27 L 18,28 L 21,28 L 21,27 L 22,26 L 24,26 L 25,27 L 25,30 L 26,31 L 26,32 L 27,33 L 27,34 L 28,35 L 28,36 L 30,38 L 31,38 L 32,39 L 32,40 L 38,46 L 39,46 L 41,48 L 42,48 L 43,47 L 45,47 L 45,46 L 47,44 L 48,44 L 49,43 L 50,43 L 51,42 L 51,41 L 53,39 L 53,38 L 54,37 L 54,36 L 53,36 L 52,35 L 52,31 L 53,30 L 52,29 L 52,28 L 51,29 L 50,29 L 48,27 L 48,25 L 47,24 L 47,23 L 44,23 L 43,22 L 43,21 L 42,20 L 42,15 L 41,14 L 42,13 L 42,12 L 43,11 L 43,10 L 44,9 L 44,3 L 45,2 L 46,2 L 45,2 L 43,0 Z" fill="none" stroke="black" stroke-width="1"/>
</svg>