<svg xmlns="http://www.w3.org/2000/svg" width="69" height="88">
  <path d="M 14,14 L 14,15 L 13,16 L 12,16 L 9,19 L 9,21 L 10,22 L 10,25 L 9,26 L 9,28 L 10,29 L 10,30 L 9,31 L 9,33 L 10,34 L 9,35 L 9,38 L 12,41 L 12,42 L 13,41 L 14,41 L 15,42 L 19,42 L 20,43 L 20,44 L 22,44 L 22,43 L 23,42 L 24,42 L 26,40 L 26,38 L 24,36 L 24,35 L 25,34 L 25,31 L 24,30 L 24,28 L 22,26 L 21,26 L 20,25 L 20,24 L 19,23 L 19,22 L 20,21 L 20,17 L 19,16 L 19,15 L 18,15 L 17,14 Z" fill="none" stroke="black" stroke-width="1"/>
</svg>