<svg xmlns="http://www.w3.org/2000/svg" width="66" height="70">
  <path d="M 13,0 L 11,2 L 10,2 L 9,3 L 8,3 L 7,4 L 6,4 L 5,5 L 5,6 L 3,8 L 3,9 L 1,11 L 1,14 L 0,15 L 0,16 L 1,17 L 1,18 L 2,19 L 2,23 L 1,24 L 1,25 L 3,27 L 3,30 L 4,30 L 5,31 L 5,32 L 7,32 L 10,35 L 11,35 L 13,37 L 12,38 L 13,39 L 14,39 L 17,36 L 18,36 L 17,35 L 18,34 L 19,34 L 20,33 L 22,33 L 28,27 L 29,27 L 33,23 L 32,22 L 32,18 L 31,18 L 30,17 L 30,10 L 25,10 L 24,11 L 23,11 L 20,8 L 19,8 L 17,6 L 17,2 L 15,0 Z" fill="none" stroke="black" stroke-width="1"/>
</svg>