<svg xmlns="http://www.w3.org/2000/svg" width="58" height="48">
  <path d="M 47,21 L 46,22 L 44,22 L 41,25 L 37,25 L 36,24 L 34,24 L 33,23 L 32,23 L 30,25 L 29,25 L 28,26 L 26,26 L 25,27 L 25,28 L 24,29 L 20,29 L 19,30 L 17,30 L 14,33 L 14,35 L 15,36 L 15,38 L 14,39 L 14,41 L 15,42 L 15,44 L 16,44 L 17,45 L 17,46 L 18,47 L 20,47 L 19,46 L 20,45 L 21,45 L 22,46 L 22,44 L 24,42 L 27,42 L 28,41 L 28,40 L 31,37 L 34,37 L 35,36 L 48,36 L 49,35 L 50,35 L 51,34 L 52,34 L 53,33 L 56,33 L 57,32 L 56,31 L 56,28 L 55,27 L 55,26 L 52,23 L 51,23 L 49,21 Z" fill="none" stroke="black" stroke-width="1"/>
</svg>