<svg xmlns="http://www.w3.org/2000/svg" width="60" height="53">
  <path d="M 14,24 L 11,27 L 8,27 L 7,28 L 6,28 L 6,31 L 5,32 L 5,33 L 2,36 L 2,38 L 0,40 L 1,40 L 3,42 L 4,42 L 8,46 L 8,47 L 9,48 L 9,51 L 10,52 L 11,52 L 13,50 L 14,50 L 14,49 L 15,48 L 16,48 L 17,47 L 18,47 L 19,46 L 22,46 L 23,47 L 25,47 L 26,46 L 31,46 L 36,41 L 36,40 L 37,39 L 37,38 L 36,38 L 33,35 L 33,34 L 32,33 L 31,33 L 30,32 L 30,31 L 29,31 L 27,29 L 27,27 L 26,28 L 25,28 L 24,29 L 22,29 L 17,24 Z" fill="none" stroke="black" stroke-width="1"/>
</svg>