<svg xmlns="http://www.w3.org/2000/svg" width="55" height="68">
  <path d="M 26,0 L 26,7 L 27,8 L 27,12 L 29,14 L 29,19 L 28,20 L 28,25 L 27,26 L 26,26 L 27,26 L 28,27 L 30,27 L 31,26 L 32,26 L 33,25 L 34,25 L 35,24 L 37,24 L 39,26 L 39,27 L 40,27 L 41,26 L 43,26 L 44,27 L 45,27 L 46,28 L 48,28 L 49,29 L 52,29 L 54,27 L 54,26 L 53,25 L 53,23 L 52,22 L 52,21 L 51,20 L 51,19 L 50,19 L 48,17 L 43,17 L 42,16 L 41,16 L 40,15 L 39,15 L 34,10 L 33,10 L 32,9 L 32,6 L 31,5 L 31,4 L 29,2 L 29,1 L 28,0 Z" fill="none" stroke="black" stroke-width="1"/>
</svg>