<svg xmlns="http://www.w3.org/2000/svg" width="66" height="70">
  <path d="M 51,23 L 50,24 L 48,24 L 47,25 L 46,25 L 45,26 L 38,26 L 37,25 L 35,25 L 34,24 L 33,24 L 29,28 L 28,28 L 24,32 L 26,34 L 26,36 L 27,37 L 26,38 L 26,39 L 28,41 L 28,42 L 29,42 L 30,43 L 31,43 L 32,44 L 33,44 L 34,45 L 34,46 L 35,47 L 35,48 L 36,48 L 38,50 L 39,50 L 40,51 L 40,54 L 41,54 L 43,56 L 45,54 L 47,54 L 48,53 L 49,53 L 51,55 L 54,55 L 55,56 L 56,56 L 57,55 L 58,55 L 60,53 L 60,52 L 63,49 L 63,47 L 65,45 L 65,43 L 63,41 L 63,40 L 62,40 L 61,39 L 61,37 L 60,36 L 60,35 L 54,29 L 54,26 L 52,24 L 52,23 Z" fill="none" stroke="black" stroke-width="1"/>
</svg>