<svg xmlns="http://www.w3.org/2000/svg" width="101" height="78">
  <path d="M 89,22 L 89,23 L 88,24 L 88,26 L 87,27 L 86,27 L 85,28 L 85,29 L 83,31 L 81,31 L 80,32 L 79,32 L 78,33 L 77,33 L 76,34 L 75,34 L 75,35 L 74,36 L 73,36 L 72,37 L 71,37 L 70,38 L 70,42 L 72,44 L 72,45 L 73,45 L 75,47 L 75,48 L 77,50 L 77,52 L 78,52 L 79,51 L 89,51 L 92,48 L 93,48 L 94,47 L 94,44 L 95,43 L 95,42 L 94,41 L 96,39 L 98,39 L 100,37 L 100,36 L 99,35 L 99,32 L 98,32 L 96,30 L 96,29 L 93,26 L 93,25 L 92,25 L 90,23 L 90,22 Z" fill="none" stroke="black" stroke-width="1"/>
</svg>