<svg xmlns="http://www.w3.org/2000/svg" width="166" height="119">
  <path d="M 57,55 L 56,56 L 55,56 L 53,58 L 52,58 L 51,59 L 50,59 L 48,61 L 45,61 L 44,62 L 42,62 L 40,64 L 40,65 L 39,66 L 39,67 L 38,68 L 37,68 L 38,68 L 39,69 L 40,69 L 41,70 L 43,70 L 46,73 L 47,73 L 48,74 L 48,75 L 49,76 L 49,77 L 50,78 L 50,80 L 51,81 L 52,81 L 56,85 L 56,87 L 53,90 L 52,90 L 51,91 L 51,92 L 50,93 L 51,93 L 53,95 L 54,95 L 55,96 L 54,97 L 53,97 L 53,103 L 52,104 L 52,105 L 51,106 L 51,107 L 50,108 L 51,109 L 51,114 L 52,115 L 52,116 L 56,116 L 57,115 L 58,115 L 59,114 L 61,114 L 62,113 L 64,113 L 66,111 L 69,114 L 69,115 L 71,117 L 71,118 L 75,118 L 75,116 L 77,114 L 77,113 L 79,111 L 79,110 L 80,109 L 81,109 L 82,108 L 85,108 L 86,107 L 87,107 L 88,106 L 88,102 L 89,101 L 89,100 L 91,98 L 93,98 L 95,96 L 112,96 L 113,97 L 114,97 L 115,96 L 117,96 L 118,95 L 118,93 L 115,90 L 115,89 L 116,88 L 117,88 L 118,87 L 117,86 L 117,85 L 113,81 L 113,79 L 112,78 L 111,78 L 110,77 L 110,75 L 111,74 L 111,72 L 110,72 L 109,71 L 109,70 L 108,69 L 108,68 L 104,68 L 104,69 L 102,71 L 100,71 L 99,70 L 97,70 L 96,69 L 96,67 L 95,67 L 93,65 L 93,64 L 92,65 L 90,65 L 89,66 L 88,66 L 87,65 L 87,64 L 85,62 L 85,61 L 84,60 L 77,60 L 74,57 L 73,57 L 72,56 L 67,56 L 65,58 L 62,58 L 60,56 L 58,56 Z" fill="none" stroke="black" stroke-width="1"/>
</svg>