<svg xmlns="http://www.w3.org/2000/svg" width="74" height="103">
  <path d="M 4,25 L 3,26 L 2,26 L 1,27 L 1,28 L 0,29 L 0,31 L 4,35 L 4,38 L 3,39 L 5,41 L 5,42 L 6,42 L 7,43 L 7,49 L 6,50 L 7,51 L 7,52 L 8,53 L 7,54 L 7,55 L 8,56 L 8,57 L 13,57 L 14,58 L 22,58 L 23,57 L 29,57 L 30,58 L 33,58 L 34,59 L 36,59 L 37,60 L 39,60 L 40,61 L 42,61 L 43,62 L 49,62 L 50,63 L 50,64 L 51,63 L 51,59 L 50,58 L 49,58 L 48,57 L 48,54 L 49,53 L 48,52 L 47,52 L 46,51 L 45,51 L 41,47 L 41,46 L 40,46 L 39,47 L 38,46 L 38,45 L 35,42 L 36,41 L 37,41 L 37,40 L 36,40 L 35,39 L 33,39 L 32,38 L 31,39 L 29,37 L 29,35 L 30,34 L 26,30 L 26,29 L 24,29 L 22,31 L 17,31 L 16,30 L 15,30 L 14,29 L 12,29 L 11,28 L 9,28 L 7,26 L 6,26 L 5,25 Z" fill="none" stroke="black" stroke-width="1"/>
</svg>