<svg xmlns="http://www.w3.org/2000/svg" width="74" height="103">
  <path d="M 59,71 L 59,72 L 60,72 L 60,71 Z" fill="none" stroke="black" stroke-width="1"/>
  <path d="M 68,63 L 67,64 L 66,64 L 64,66 L 64,67 L 63,68 L 63,72 L 62,73 L 62,74 L 61,75 L 60,74 L 60,80 L 61,81 L 61,82 L 62,83 L 62,87 L 61,88 L 60,88 L 59,87 L 59,84 L 56,81 L 56,77 L 55,76 L 55,75 L 53,75 L 53,76 L 52,77 L 52,86 L 51,87 L 51,89 L 50,90 L 50,91 L 49,92 L 49,93 L 48,94 L 48,97 L 50,99 L 51,99 L 53,101 L 53,102 L 55,102 L 56,101 L 57,101 L 57,100 L 59,98 L 60,98 L 61,97 L 64,97 L 65,96 L 66,96 L 67,95 L 68,95 L 68,92 L 69,91 L 70,91 L 71,90 L 70,89 L 71,88 L 71,85 L 73,83 L 73,78 L 72,78 L 71,77 L 71,73 L 72,72 L 72,71 L 73,70 L 73,69 L 72,68 L 72,67 L 71,67 L 68,64 Z" fill="none" stroke="black" stroke-width="1"/>
</svg>