<svg xmlns="http://www.w3.org/2000/svg" width="95" height="66">
  <path d="M 53,35 L 52,36 L 51,36 L 50,37 L 54,37 L 54,36 Z" fill="none" stroke="black" stroke-width="1"/>
  <path d="M 65,32 L 64,33 L 63,33 L 63,34 L 61,36 L 59,36 L 57,38 L 57,39 L 56,40 L 49,40 L 47,38 L 44,38 L 43,37 L 42,37 L 41,38 L 40,38 L 39,37 L 38,37 L 37,38 L 35,38 L 34,37 L 33,38 L 32,38 L 31,39 L 31,42 L 32,43 L 32,44 L 31,45 L 31,50 L 29,52 L 29,56 L 30,56 L 32,54 L 33,54 L 34,53 L 35,53 L 36,52 L 46,52 L 47,51 L 56,51 L 57,50 L 59,50 L 60,49 L 62,49 L 65,46 L 66,46 L 68,44 L 69,44 L 67,42 L 68,41 L 68,38 L 66,36 L 66,34 L 65,33 Z" fill="none" stroke="black" stroke-width="1"/>
</svg>