<svg xmlns="http://www.w3.org/2000/svg" width="95" height="66">
  <path d="M 93,0 L 91,2 L 90,1 L 89,2 L 89,5 L 88,6 L 88,7 L 86,9 L 86,10 L 85,11 L 84,11 L 83,12 L 82,12 L 74,20 L 74,21 L 72,23 L 71,23 L 68,26 L 67,26 L 66,27 L 66,33 L 67,34 L 67,36 L 69,38 L 69,41 L 68,42 L 70,44 L 70,46 L 71,47 L 71,48 L 72,49 L 73,49 L 75,51 L 76,51 L 77,50 L 77,49 L 78,48 L 78,45 L 79,44 L 79,43 L 80,42 L 80,40 L 82,38 L 86,38 L 87,37 L 87,36 L 85,34 L 85,33 L 84,32 L 84,28 L 85,27 L 85,24 L 86,23 L 87,23 L 88,24 L 88,28 L 91,28 L 91,27 L 93,25 L 93,24 L 92,23 L 92,18 L 93,17 L 92,16 L 92,12 L 91,11 L 91,10 L 92,9 L 92,8 L 93,7 L 93,5 L 91,3 L 92,2 L 94,2 L 93,1 Z" fill="none" stroke="black" stroke-width="1"/>
</svg>