<svg xmlns="http://www.w3.org/2000/svg" width="62" height="70">
  <path d="M 1,0 L 1,3 L 0,4 L 0,8 L 1,9 L 1,10 L 3,12 L 3,13 L 2,14 L 4,16 L 7,16 L 8,17 L 9,17 L 10,18 L 11,18 L 13,20 L 13,21 L 15,21 L 17,23 L 17,24 L 17,23 L 18,22 L 18,21 L 19,20 L 21,20 L 23,22 L 25,22 L 26,21 L 26,19 L 25,19 L 24,18 L 22,18 L 21,17 L 20,17 L 17,14 L 16,14 L 15,13 L 15,12 L 13,10 L 13,9 L 12,9 L 11,8 L 11,7 L 9,5 L 9,3 L 8,2 L 7,3 L 7,4 L 6,5 L 3,5 L 2,4 L 2,0 Z" fill="none" stroke="black" stroke-width="1"/>
</svg>