<svg xmlns="http://www.w3.org/2000/svg" width="60" height="76">
  <path d="M 15,31 L 13,33 L 11,33 L 10,32 L 10,37 L 9,38 L 9,39 L 8,40 L 8,43 L 7,44 L 6,44 L 3,47 L 2,47 L 1,48 L 0,48 L 0,49 L 1,50 L 1,53 L 5,57 L 5,61 L 7,63 L 8,62 L 9,62 L 11,64 L 11,65 L 12,65 L 13,66 L 14,66 L 15,67 L 15,68 L 17,70 L 17,65 L 16,64 L 16,63 L 15,62 L 18,59 L 20,59 L 22,61 L 22,60 L 23,59 L 25,59 L 26,60 L 29,60 L 29,59 L 30,58 L 32,58 L 33,57 L 33,56 L 34,55 L 35,55 L 36,54 L 36,50 L 37,49 L 37,45 L 35,43 L 34,43 L 32,41 L 31,41 L 30,40 L 30,39 L 29,39 L 28,38 L 27,38 L 26,37 L 26,36 L 25,35 L 23,35 L 22,34 L 22,33 L 21,32 L 20,32 L 19,31 Z" fill="none" stroke="black" stroke-width="1"/>
</svg>