<svg xmlns="http://www.w3.org/2000/svg" width="55" height="68">
  <path d="M 25,11 L 25,13 L 24,14 L 24,16 L 18,22 L 17,22 L 15,24 L 14,24 L 13,25 L 9,25 L 8,26 L 8,27 L 9,28 L 9,29 L 8,30 L 8,31 L 9,30 L 14,30 L 15,31 L 14,32 L 12,32 L 11,33 L 11,36 L 12,37 L 14,37 L 15,38 L 16,38 L 18,40 L 20,40 L 22,42 L 27,42 L 28,43 L 28,42 L 29,41 L 30,41 L 30,40 L 31,39 L 33,39 L 33,36 L 36,33 L 38,33 L 38,32 L 39,31 L 39,28 L 38,27 L 38,26 L 37,25 L 35,25 L 34,26 L 33,26 L 32,27 L 31,27 L 30,28 L 28,28 L 27,27 L 26,27 L 25,26 L 22,26 L 21,25 L 19,25 L 18,24 L 20,22 L 21,22 L 21,21 L 22,20 L 23,20 L 23,19 L 26,16 L 26,11 Z" fill="none" stroke="black" stroke-width="1"/>
</svg>