<svg xmlns="http://www.w3.org/2000/svg" width="99" height="76">
  <path d="M 34,49 L 33,50 L 32,50 L 31,51 L 30,51 L 29,52 L 28,52 L 27,53 L 22,53 L 22,54 L 21,55 L 20,55 L 19,56 L 16,56 L 16,57 L 15,58 L 13,58 L 12,59 L 11,59 L 10,60 L 7,60 L 6,61 L 5,61 L 5,62 L 3,64 L 3,65 L 1,67 L 0,67 L 1,68 L 1,69 L 6,69 L 7,70 L 8,70 L 9,71 L 11,71 L 14,74 L 14,75 L 15,75 L 17,73 L 18,73 L 19,72 L 21,72 L 22,71 L 23,71 L 24,70 L 32,70 L 34,72 L 35,71 L 36,71 L 37,70 L 38,70 L 40,68 L 40,66 L 41,65 L 41,64 L 40,63 L 40,61 L 41,60 L 42,60 L 43,59 L 43,58 L 44,57 L 43,56 L 43,55 L 42,55 L 41,54 L 40,54 L 35,49 Z" fill="none" stroke="black" stroke-width="1"/>
</svg>