<svg xmlns="http://www.w3.org/2000/svg" width="122" height="103">
  <path d="M 118,24 L 117,25 L 116,25 L 116,26 L 118,28 L 118,29 L 117,30 L 115,30 L 118,33 L 120,33 L 121,32 L 120,32 L 119,31 L 119,30 L 120,29 L 120,28 L 121,27 L 121,26 L 119,26 L 118,25 Z" fill="none" stroke="black" stroke-width="1"/>
  <path d="M 94,18 L 94,21 L 98,21 L 98,19 L 97,19 L 96,18 Z" fill="none" stroke="black" stroke-width="1"/>
  <path d="M 106,16 L 105,17 L 104,17 L 104,19 L 105,20 L 106,20 L 107,21 L 107,22 L 109,22 L 109,16 Z" fill="none" stroke="black" stroke-width="1"/>
  <path d="M 89,4 L 88,5 L 88,13 L 89,13 L 90,14 L 93,14 L 93,11 L 92,10 L 92,9 L 91,8 L 91,4 Z" fill="none" stroke="black" stroke-width="1"/>
</svg>