<svg xmlns="http://www.w3.org/2000/svg" width="58" height="48">
  <path d="M 28,6 L 28,7 L 27,8 L 27,9 L 26,10 L 25,10 L 23,12 L 23,14 L 19,18 L 12,18 L 11,19 L 11,20 L 9,22 L 8,22 L 7,23 L 5,23 L 3,25 L 3,26 L 4,27 L 4,31 L 7,34 L 9,34 L 13,38 L 14,38 L 15,39 L 17,39 L 18,40 L 19,40 L 21,42 L 25,42 L 26,41 L 27,41 L 28,42 L 31,42 L 31,39 L 32,38 L 33,38 L 34,37 L 34,36 L 35,35 L 35,33 L 38,30 L 37,29 L 37,26 L 39,24 L 40,24 L 41,23 L 41,22 L 42,21 L 42,20 L 40,18 L 40,17 L 39,16 L 39,13 L 38,12 L 38,11 L 37,10 L 37,9 L 36,9 L 35,8 L 32,8 L 30,6 Z" fill="none" stroke="black" stroke-width="1"/>
</svg>