<svg xmlns="http://www.w3.org/2000/svg" width="47" height="150">
  <path d="M 12,20 L 11,21 L 11,22 L 13,22 L 12,21 Z" fill="none" stroke="black" stroke-width="1"/>
  <path d="M 26,4 L 24,6 L 24,7 L 23,8 L 22,8 L 21,7 L 20,7 L 22,9 L 22,10 L 23,11 L 23,15 L 22,16 L 22,17 L 21,18 L 21,22 L 19,24 L 16,24 L 15,25 L 14,25 L 14,35 L 15,36 L 15,37 L 16,38 L 16,41 L 17,42 L 18,42 L 19,41 L 19,40 L 20,39 L 20,38 L 21,37 L 23,37 L 24,36 L 25,36 L 26,37 L 28,37 L 28,36 L 30,34 L 31,34 L 32,33 L 35,33 L 37,35 L 41,35 L 41,29 L 40,28 L 40,25 L 38,23 L 38,17 L 36,15 L 36,14 L 32,10 L 32,6 L 31,5 L 28,5 L 27,4 Z" fill="none" stroke="black" stroke-width="1"/>
  <path d="M 27,0 L 26,1 L 27,2 L 28,2 L 28,1 Z" fill="none" stroke="black" stroke-width="1"/>
</svg>