<svg xmlns="http://www.w3.org/2000/svg" width="83" height="168">
  <path d="M 72,0 L 72,3 L 73,4 L 73,6 L 75,8 L 75,9 L 74,10 L 73,10 L 72,11 L 71,10 L 70,11 L 70,12 L 69,13 L 69,14 L 70,15 L 70,17 L 69,18 L 69,19 L 68,20 L 68,21 L 67,22 L 67,23 L 65,25 L 64,24 L 64,22 L 66,20 L 65,19 L 65,18 L 63,20 L 63,22 L 60,25 L 60,27 L 63,30 L 62,31 L 59,31 L 58,32 L 57,31 L 57,30 L 58,29 L 57,28 L 57,27 L 56,27 L 53,30 L 52,30 L 51,31 L 50,31 L 48,33 L 48,36 L 49,36 L 50,37 L 50,38 L 49,39 L 47,39 L 48,39 L 49,40 L 49,42 L 50,43 L 50,45 L 52,45 L 53,46 L 55,46 L 56,45 L 57,45 L 58,44 L 59,44 L 62,41 L 62,37 L 64,35 L 64,34 L 65,33 L 65,32 L 67,30 L 72,30 L 75,27 L 76,27 L 76,26 L 77,25 L 78,25 L 78,24 L 82,20 L 82,16 L 81,15 L 81,12 L 80,11 L 80,10 L 79,9 L 79,3 L 78,4 L 76,2 L 76,0 Z" fill="none" stroke="black" stroke-width="1"/>
</svg>