<svg xmlns="http://www.w3.org/2000/svg" width="65" height="133">
  <path d="M 59,0 L 59,1 L 58,2 L 58,3 L 56,5 L 55,5 L 55,8 L 51,12 L 51,13 L 50,14 L 49,14 L 49,15 L 48,16 L 47,16 L 44,19 L 39,19 L 38,20 L 38,21 L 37,22 L 37,23 L 35,25 L 35,29 L 31,33 L 30,33 L 29,34 L 28,34 L 27,35 L 25,35 L 24,34 L 23,34 L 23,35 L 24,35 L 25,36 L 25,37 L 26,38 L 26,40 L 28,42 L 29,42 L 31,44 L 31,51 L 30,52 L 30,53 L 37,53 L 40,56 L 43,56 L 44,57 L 45,56 L 47,56 L 48,57 L 48,58 L 49,59 L 49,60 L 50,61 L 50,62 L 54,62 L 54,60 L 55,59 L 54,58 L 54,57 L 55,56 L 55,52 L 56,51 L 56,50 L 55,49 L 55,48 L 56,47 L 57,47 L 60,44 L 61,44 L 62,43 L 62,37 L 63,36 L 63,34 L 64,33 L 64,30 L 62,30 L 61,29 L 61,28 L 62,27 L 62,24 L 61,23 L 61,16 L 62,15 L 62,11 L 63,10 L 63,9 L 61,7 L 61,6 L 60,5 L 60,0 Z" fill="none" stroke="black" stroke-width="1"/>
</svg>