<svg xmlns="http://www.w3.org/2000/svg" width="47" height="150">
  <path d="M 40,77 L 37,80 L 37,81 L 36,82 L 37,82 L 40,79 Z" fill="none" stroke="black" stroke-width="1"/>
  <path d="M 32,34 L 31,35 L 30,35 L 29,36 L 29,37 L 28,38 L 26,38 L 25,37 L 24,37 L 23,38 L 23,43 L 24,44 L 24,45 L 26,47 L 26,48 L 25,49 L 25,53 L 24,54 L 24,61 L 25,62 L 25,65 L 24,66 L 24,67 L 26,67 L 27,68 L 27,71 L 26,72 L 26,74 L 25,75 L 25,81 L 23,83 L 22,83 L 21,84 L 22,85 L 27,85 L 28,84 L 30,84 L 31,83 L 31,82 L 32,81 L 32,80 L 33,79 L 35,79 L 34,78 L 34,77 L 36,75 L 36,68 L 35,68 L 33,66 L 34,65 L 34,62 L 33,61 L 33,57 L 35,55 L 37,55 L 38,56 L 38,58 L 39,59 L 39,60 L 40,61 L 40,63 L 41,63 L 42,64 L 43,64 L 43,63 L 44,62 L 44,60 L 45,59 L 45,58 L 46,57 L 46,52 L 44,50 L 44,49 L 43,48 L 43,46 L 42,45 L 42,43 L 41,42 L 41,39 L 42,38 L 42,37 L 41,36 L 37,36 L 35,34 Z" fill="none" stroke="black" stroke-width="1"/>
</svg>