<svg xmlns="http://www.w3.org/2000/svg" width="47" height="150">
  <path d="M 20,85 L 19,86 L 18,86 L 18,87 L 19,88 L 19,89 L 18,90 L 18,94 L 17,95 L 17,96 L 18,97 L 17,98 L 17,100 L 16,101 L 15,101 L 15,106 L 14,107 L 14,110 L 13,111 L 13,118 L 12,119 L 12,120 L 13,121 L 13,127 L 12,128 L 11,128 L 11,134 L 7,138 L 6,137 L 4,139 L 2,139 L 0,141 L 0,142 L 1,142 L 2,143 L 2,144 L 6,148 L 6,149 L 14,149 L 14,146 L 15,145 L 15,141 L 16,140 L 16,139 L 17,138 L 17,136 L 18,135 L 18,134 L 19,133 L 19,132 L 20,131 L 20,128 L 21,127 L 21,123 L 23,121 L 23,117 L 24,116 L 24,115 L 25,114 L 25,113 L 26,112 L 26,109 L 28,107 L 28,104 L 29,103 L 29,98 L 30,97 L 30,95 L 31,94 L 31,91 L 30,90 L 30,88 L 29,87 L 29,86 L 30,85 L 28,85 L 27,86 L 22,86 L 21,85 Z" fill="none" stroke="black" stroke-width="1"/>
</svg>