<svg xmlns="http://www.w3.org/2000/svg" width="75" height="75">
  <path d="M 68,0 L 68,3 L 67,4 L 66,4 L 65,5 L 64,5 L 62,7 L 61,7 L 60,8 L 60,14 L 59,15 L 59,18 L 58,19 L 58,21 L 57,22 L 57,30 L 56,31 L 56,37 L 55,38 L 55,39 L 56,39 L 57,40 L 58,40 L 60,42 L 61,42 L 61,40 L 62,39 L 62,37 L 63,36 L 63,34 L 64,33 L 64,30 L 65,29 L 65,23 L 66,22 L 66,20 L 67,19 L 67,17 L 68,16 L 68,14 L 70,12 L 70,10 L 71,9 L 71,6 L 72,5 L 72,4 L 73,3 L 73,1 L 74,0 Z" fill="none" stroke="black" stroke-width="1"/>
</svg>