<svg xmlns="http://www.w3.org/2000/svg" width="65" height="133">
  <path d="M 6,92 L 5,93 L 5,95 L 6,96 L 6,97 L 5,98 L 5,105 L 4,106 L 4,108 L 3,109 L 3,110 L 1,112 L 1,113 L 0,114 L 0,122 L 4,122 L 5,121 L 7,123 L 8,123 L 10,125 L 14,125 L 15,124 L 16,125 L 16,126 L 18,128 L 18,131 L 19,132 L 23,132 L 24,131 L 27,131 L 28,130 L 30,130 L 31,131 L 35,131 L 36,130 L 36,127 L 37,126 L 37,120 L 39,118 L 40,118 L 42,116 L 43,116 L 44,115 L 45,115 L 45,112 L 44,112 L 43,111 L 43,110 L 39,106 L 39,105 L 36,105 L 35,104 L 34,104 L 31,101 L 29,101 L 28,100 L 28,99 L 20,99 L 18,97 L 18,96 L 17,95 L 17,94 L 15,94 L 14,93 L 13,93 L 12,92 Z" fill="none" stroke="black" stroke-width="1"/>
</svg>