<svg xmlns="http://www.w3.org/2000/svg" width="75" height="75">
  <path d="M 45,39 L 45,41 L 44,42 L 44,44 L 41,47 L 41,52 L 40,53 L 40,54 L 39,55 L 36,55 L 35,54 L 34,54 L 33,55 L 32,55 L 31,54 L 31,52 L 30,51 L 29,51 L 28,52 L 27,52 L 26,53 L 26,59 L 24,61 L 23,61 L 21,63 L 21,64 L 19,66 L 19,67 L 17,69 L 18,70 L 19,70 L 22,73 L 23,73 L 24,74 L 29,74 L 30,73 L 31,73 L 34,70 L 35,70 L 36,69 L 38,69 L 40,67 L 48,67 L 50,65 L 51,65 L 52,64 L 53,64 L 54,63 L 53,62 L 55,60 L 55,59 L 56,58 L 56,54 L 57,53 L 57,52 L 58,51 L 58,50 L 59,49 L 59,48 L 60,47 L 60,45 L 61,44 L 61,43 L 60,43 L 58,41 L 57,41 L 56,40 L 48,40 L 47,39 Z" fill="none" stroke="black" stroke-width="1"/>
</svg>