<svg xmlns="http://www.w3.org/2000/svg" width="75" height="75">
  <path d="M 27,10 L 26,11 L 21,11 L 19,13 L 18,13 L 16,15 L 16,19 L 18,21 L 18,22 L 19,23 L 19,27 L 21,27 L 22,28 L 23,28 L 24,29 L 26,29 L 27,30 L 27,32 L 28,33 L 26,35 L 26,37 L 23,40 L 23,41 L 22,42 L 23,43 L 23,44 L 24,44 L 25,45 L 25,51 L 26,52 L 27,51 L 28,51 L 29,50 L 30,50 L 32,52 L 32,54 L 33,54 L 34,53 L 35,53 L 36,54 L 39,54 L 39,53 L 40,52 L 40,47 L 43,44 L 43,42 L 44,41 L 44,39 L 45,38 L 47,38 L 48,39 L 54,39 L 54,38 L 55,37 L 55,31 L 56,30 L 56,22 L 57,21 L 57,20 L 53,20 L 52,19 L 50,19 L 49,20 L 46,20 L 45,21 L 41,21 L 39,19 L 39,16 L 37,14 L 37,13 L 36,14 L 32,14 L 30,12 L 29,12 Z" fill="none" stroke="black" stroke-width="1"/>
</svg>