<svg xmlns="http://www.w3.org/2000/svg" width="95" height="66">
  <path d="M 68,45 L 66,47 L 65,47 L 62,50 L 60,50 L 59,51 L 57,51 L 56,52 L 47,52 L 46,53 L 36,53 L 35,54 L 34,54 L 33,55 L 32,55 L 32,57 L 33,57 L 34,58 L 34,60 L 38,60 L 39,61 L 39,62 L 43,62 L 44,63 L 46,63 L 47,64 L 53,64 L 54,65 L 64,65 L 65,64 L 68,64 L 69,63 L 70,63 L 71,62 L 74,62 L 75,61 L 76,61 L 77,60 L 78,60 L 78,59 L 79,58 L 76,55 L 76,53 L 73,50 L 72,50 L 70,48 L 70,47 L 69,46 L 69,45 Z" fill="none" stroke="black" stroke-width="1"/>
</svg>