<svg xmlns="http://www.w3.org/2000/svg" width="83" height="168">
  <path d="M 18,72 L 18,73 L 17,74 L 14,74 L 13,73 L 12,73 L 12,75 L 13,76 L 12,77 L 12,78 L 13,79 L 13,80 L 15,82 L 15,84 L 16,85 L 16,87 L 15,88 L 15,89 L 16,90 L 16,91 L 18,93 L 18,94 L 19,95 L 19,97 L 18,98 L 18,101 L 19,102 L 19,104 L 22,104 L 23,105 L 26,105 L 30,109 L 33,109 L 33,108 L 32,107 L 32,105 L 34,103 L 35,103 L 35,99 L 34,98 L 34,88 L 33,87 L 33,86 L 32,85 L 32,79 L 33,78 L 33,76 L 31,74 L 29,74 L 28,73 L 27,73 L 26,72 Z" fill="none" stroke="black" stroke-width="1"/>
</svg>