<svg xmlns="http://www.w3.org/2000/svg" width="83" height="168">
  <path d="M 3,131 L 3,132 L 1,134 L 1,136 L 0,137 L 0,146 L 1,147 L 1,152 L 2,152 L 3,153 L 3,154 L 5,156 L 5,160 L 6,161 L 7,161 L 8,162 L 8,164 L 7,165 L 6,165 L 6,167 L 9,167 L 10,166 L 12,166 L 13,167 L 19,167 L 20,166 L 24,166 L 24,165 L 25,164 L 26,164 L 27,165 L 28,165 L 28,164 L 31,161 L 31,159 L 33,157 L 32,156 L 32,154 L 30,154 L 29,153 L 28,153 L 27,152 L 25,152 L 24,151 L 24,147 L 23,146 L 23,145 L 21,143 L 21,141 L 20,140 L 14,140 L 13,141 L 10,141 L 8,139 L 8,134 L 6,132 L 6,131 Z" fill="none" stroke="black" stroke-width="1"/>
</svg>