<svg xmlns="http://www.w3.org/2000/svg" width="78" height="97">
  <path d="M 69,0 L 68,1 L 67,1 L 65,3 L 62,3 L 61,4 L 57,4 L 56,5 L 54,5 L 52,7 L 52,8 L 51,9 L 50,9 L 49,10 L 47,10 L 46,9 L 45,9 L 44,10 L 44,12 L 42,14 L 40,14 L 39,15 L 36,15 L 35,16 L 37,18 L 37,21 L 40,24 L 40,28 L 43,31 L 43,42 L 44,43 L 44,44 L 47,47 L 48,47 L 50,49 L 53,49 L 53,48 L 54,47 L 54,42 L 57,39 L 57,35 L 59,33 L 61,33 L 61,31 L 65,27 L 67,27 L 68,26 L 71,26 L 71,24 L 70,23 L 71,22 L 71,20 L 72,19 L 72,17 L 73,16 L 73,15 L 74,14 L 74,13 L 75,12 L 75,10 L 76,9 L 76,7 L 75,6 L 76,5 L 76,3 L 77,2 L 77,0 Z" fill="none" stroke="black" stroke-width="1"/>
</svg>