<svg xmlns="http://www.w3.org/2000/svg" width="60" height="88">
  <path d="M 55,44 L 53,46 L 49,46 L 49,47 L 47,49 L 39,49 L 38,50 L 36,50 L 35,51 L 34,51 L 33,52 L 31,52 L 30,51 L 29,52 L 27,52 L 26,53 L 26,54 L 25,55 L 23,55 L 23,57 L 22,58 L 18,58 L 18,59 L 17,60 L 15,60 L 14,61 L 14,62 L 13,63 L 13,64 L 12,65 L 10,65 L 8,67 L 8,69 L 11,69 L 12,70 L 15,70 L 16,71 L 16,72 L 17,72 L 18,73 L 18,74 L 20,74 L 21,75 L 21,77 L 22,78 L 22,87 L 23,86 L 32,86 L 33,87 L 35,87 L 38,84 L 39,84 L 43,80 L 44,80 L 44,79 L 45,78 L 45,77 L 46,76 L 47,76 L 48,75 L 50,75 L 51,74 L 52,74 L 53,73 L 55,73 L 56,72 L 56,70 L 55,69 L 55,66 L 57,64 L 57,63 L 59,61 L 59,49 L 58,48 L 58,47 L 57,46 L 57,45 L 56,44 Z" fill="none" stroke="black" stroke-width="1"/>
</svg>