<svg xmlns="http://www.w3.org/2000/svg" width="60" height="88">
  <path d="M 54,0 L 53,1 L 46,1 L 44,3 L 43,3 L 42,4 L 41,4 L 40,5 L 40,7 L 39,8 L 39,10 L 40,11 L 40,13 L 39,14 L 39,15 L 38,16 L 37,16 L 37,17 L 36,18 L 35,18 L 35,19 L 34,20 L 33,20 L 32,21 L 32,22 L 31,23 L 31,26 L 29,28 L 29,33 L 30,34 L 30,35 L 29,36 L 29,37 L 28,38 L 28,39 L 27,40 L 27,41 L 26,42 L 26,43 L 25,44 L 23,44 L 23,45 L 24,46 L 24,47 L 25,48 L 25,50 L 26,51 L 29,51 L 30,50 L 31,51 L 33,51 L 34,50 L 35,50 L 36,49 L 38,49 L 39,48 L 47,48 L 48,47 L 48,46 L 49,45 L 53,45 L 55,43 L 56,43 L 56,42 L 55,41 L 55,40 L 54,39 L 54,33 L 55,32 L 55,26 L 54,25 L 54,17 L 55,16 L 55,15 L 56,14 L 56,13 L 55,12 L 55,11 L 54,10 L 54,8 L 53,7 L 53,2 L 54,1 Z" fill="none" stroke="black" stroke-width="1"/>
</svg>