<svg xmlns="http://www.w3.org/2000/svg" width="62" height="99">
  <path d="M 54,48 L 53,49 L 52,49 L 52,52 L 51,53 L 49,53 L 49,55 L 48,56 L 41,56 L 40,55 L 34,55 L 33,56 L 30,56 L 29,55 L 25,55 L 24,54 L 24,53 L 23,53 L 22,52 L 21,52 L 20,51 L 19,51 L 18,52 L 17,52 L 15,54 L 13,54 L 13,55 L 14,56 L 14,57 L 16,59 L 16,63 L 17,64 L 18,64 L 20,66 L 20,67 L 21,68 L 21,74 L 22,74 L 23,75 L 23,76 L 25,78 L 25,82 L 27,84 L 30,81 L 30,80 L 35,75 L 40,75 L 41,76 L 44,76 L 45,77 L 48,77 L 48,74 L 50,72 L 50,69 L 51,68 L 51,67 L 53,65 L 54,65 L 54,64 L 55,63 L 56,63 L 56,62 L 57,61 L 58,61 L 58,60 L 59,59 L 59,57 L 58,56 L 58,54 L 59,53 L 59,51 L 58,50 L 57,50 L 56,49 L 55,49 Z" fill="none" stroke="black" stroke-width="1"/>
</svg>