<svg xmlns="http://www.w3.org/2000/svg" width="62" height="99">
  <path d="M 6,53 L 6,58 L 5,59 L 5,60 L 2,63 L 3,64 L 2,65 L 2,67 L 3,68 L 3,70 L 4,71 L 4,73 L 3,74 L 3,76 L 4,77 L 4,82 L 5,83 L 5,87 L 7,87 L 8,88 L 8,89 L 9,90 L 9,92 L 10,93 L 10,95 L 11,96 L 11,97 L 14,97 L 15,96 L 17,96 L 19,98 L 19,96 L 20,95 L 20,92 L 21,91 L 21,90 L 22,89 L 22,88 L 24,86 L 24,78 L 22,76 L 22,75 L 21,75 L 20,74 L 20,68 L 19,67 L 19,66 L 18,65 L 17,65 L 15,63 L 15,59 L 13,57 L 13,56 L 12,55 L 12,54 L 11,53 Z" fill="none" stroke="black" stroke-width="1"/>
</svg>