<svg xmlns="http://www.w3.org/2000/svg" width="75" height="79">
  <path d="M 41,43 L 40,44 L 39,44 L 39,47 L 38,48 L 38,50 L 37,51 L 37,57 L 36,58 L 36,61 L 38,63 L 38,64 L 39,65 L 39,66 L 43,66 L 44,67 L 45,67 L 48,70 L 48,71 L 49,72 L 50,72 L 51,73 L 51,74 L 52,75 L 52,77 L 54,77 L 55,78 L 56,77 L 56,76 L 63,69 L 71,69 L 71,67 L 72,66 L 72,65 L 74,63 L 74,54 L 73,53 L 73,51 L 71,51 L 70,50 L 70,49 L 69,49 L 68,48 L 68,47 L 65,47 L 64,46 L 61,46 L 61,47 L 60,48 L 59,47 L 58,47 L 56,45 L 56,44 L 55,44 L 54,43 L 53,43 L 52,44 L 51,44 L 50,43 Z" fill="none" stroke="black" stroke-width="1"/>
</svg>