<svg xmlns="http://www.w3.org/2000/svg" width="75" height="79">
  <path d="M 14,28 L 13,29 L 7,29 L 3,33 L 2,33 L 1,34 L 1,35 L 0,36 L 0,38 L 1,38 L 2,39 L 3,39 L 6,42 L 9,42 L 10,43 L 11,43 L 12,44 L 13,44 L 14,45 L 15,45 L 16,46 L 17,46 L 18,47 L 20,47 L 24,51 L 25,51 L 26,52 L 27,52 L 29,54 L 29,55 L 31,55 L 33,57 L 34,57 L 35,58 L 36,57 L 36,51 L 37,50 L 37,48 L 38,47 L 38,44 L 39,43 L 39,42 L 37,40 L 37,39 L 36,39 L 35,38 L 35,37 L 34,36 L 32,38 L 28,38 L 27,37 L 27,36 L 26,36 L 25,35 L 22,35 L 21,34 L 20,34 L 19,33 L 18,33 L 15,30 L 15,29 Z" fill="none" stroke="black" stroke-width="1"/>
</svg>