<svg xmlns="http://www.w3.org/2000/svg" width="75" height="79">
  <path d="M 21,0 L 20,1 L 19,1 L 19,2 L 16,5 L 14,5 L 13,6 L 8,6 L 8,10 L 7,11 L 7,12 L 6,13 L 6,14 L 5,15 L 5,19 L 6,19 L 9,22 L 10,22 L 12,24 L 12,25 L 13,25 L 14,26 L 14,27 L 16,29 L 16,30 L 18,32 L 19,32 L 20,33 L 21,33 L 22,34 L 25,34 L 26,35 L 27,35 L 28,36 L 28,37 L 32,37 L 34,35 L 36,37 L 36,38 L 37,38 L 38,39 L 38,40 L 40,42 L 40,43 L 41,42 L 50,42 L 51,43 L 52,43 L 53,42 L 53,38 L 54,37 L 54,32 L 53,31 L 53,29 L 52,29 L 50,27 L 48,27 L 47,28 L 44,28 L 44,29 L 43,30 L 42,29 L 42,28 L 41,27 L 41,26 L 40,26 L 38,24 L 38,23 L 37,23 L 38,24 L 37,25 L 37,26 L 36,27 L 35,27 L 32,24 L 32,21 L 33,20 L 33,17 L 32,16 L 31,16 L 28,13 L 28,11 L 29,10 L 29,9 L 28,8 L 29,7 L 29,6 L 28,5 L 28,4 L 27,3 L 28,2 L 27,2 L 26,1 L 26,0 Z" fill="none" stroke="black" stroke-width="1"/>
</svg>