<svg xmlns="http://www.w3.org/2000/svg" width="83" height="89">
  <path d="M 52,0 L 52,1 L 50,3 L 49,3 L 48,4 L 46,4 L 43,7 L 41,7 L 40,8 L 40,9 L 39,10 L 38,10 L 36,12 L 36,13 L 35,14 L 35,15 L 33,17 L 32,17 L 29,20 L 29,22 L 30,22 L 31,23 L 31,28 L 30,29 L 30,30 L 29,31 L 29,34 L 31,36 L 31,37 L 33,39 L 33,40 L 42,40 L 42,39 L 43,38 L 45,38 L 46,39 L 48,39 L 49,40 L 50,39 L 51,39 L 52,38 L 53,39 L 53,40 L 54,41 L 55,41 L 56,42 L 57,42 L 58,41 L 58,39 L 60,37 L 61,37 L 62,36 L 63,36 L 63,35 L 65,33 L 66,33 L 67,32 L 68,32 L 69,31 L 71,31 L 71,29 L 73,27 L 74,27 L 76,25 L 76,24 L 77,23 L 77,17 L 78,16 L 79,16 L 79,13 L 80,12 L 82,12 L 82,10 L 81,10 L 80,9 L 79,9 L 78,8 L 73,8 L 72,7 L 72,4 L 66,4 L 65,3 L 63,3 L 62,2 L 61,2 L 59,0 Z" fill="none" stroke="black" stroke-width="1"/>
</svg>