<svg xmlns="http://www.w3.org/2000/svg" width="62" height="99">
  <path d="M 46,0 L 46,3 L 45,4 L 44,4 L 44,10 L 43,11 L 43,12 L 40,15 L 39,15 L 38,16 L 38,18 L 37,19 L 35,19 L 34,20 L 33,20 L 32,21 L 31,21 L 30,22 L 30,23 L 29,24 L 28,24 L 27,25 L 26,25 L 25,26 L 25,28 L 23,30 L 23,33 L 22,34 L 22,37 L 24,39 L 26,39 L 27,38 L 28,38 L 29,39 L 30,39 L 32,41 L 34,41 L 39,46 L 39,48 L 37,50 L 37,51 L 36,52 L 36,54 L 40,54 L 41,55 L 48,55 L 48,53 L 49,52 L 51,52 L 51,49 L 52,48 L 53,48 L 54,47 L 55,48 L 57,48 L 57,45 L 56,45 L 54,43 L 54,38 L 52,36 L 52,35 L 53,34 L 54,34 L 56,32 L 57,32 L 58,31 L 59,31 L 60,30 L 61,31 L 61,26 L 60,26 L 59,25 L 59,21 L 60,20 L 60,17 L 61,16 L 61,9 L 60,8 L 60,5 L 57,2 L 54,2 L 53,1 L 49,1 L 48,0 Z" fill="none" stroke="black" stroke-width="1"/>
</svg>