<svg xmlns="http://www.w3.org/2000/svg" width="62" height="99">
  <path d="M 9,26 L 9,27 L 8,28 L 0,28 L 0,34 L 1,35 L 0,36 L 1,37 L 1,43 L 0,44 L 1,45 L 1,46 L 3,48 L 3,49 L 4,49 L 5,50 L 5,51 L 6,52 L 11,52 L 12,53 L 15,53 L 17,51 L 18,51 L 19,50 L 20,50 L 21,51 L 22,51 L 23,52 L 24,52 L 25,53 L 25,54 L 29,54 L 30,55 L 33,55 L 34,54 L 35,54 L 35,52 L 36,51 L 36,50 L 38,48 L 38,46 L 34,42 L 32,42 L 30,40 L 29,40 L 28,39 L 27,39 L 26,40 L 24,40 L 21,37 L 21,34 L 22,33 L 22,30 L 21,29 L 20,29 L 18,27 L 18,26 L 17,27 L 16,27 L 15,28 L 14,27 L 12,27 L 11,26 Z" fill="none" stroke="black" stroke-width="1"/>
</svg>