<svg xmlns="http://www.w3.org/2000/svg" width="83" height="89">
  <path d="M 21,21 L 19,23 L 18,23 L 17,24 L 14,24 L 13,25 L 12,25 L 11,26 L 10,26 L 9,27 L 6,27 L 5,28 L 4,28 L 2,30 L 0,30 L 0,32 L 1,33 L 1,34 L 4,34 L 5,35 L 5,36 L 6,36 L 7,37 L 7,38 L 4,41 L 4,42 L 3,43 L 4,43 L 6,45 L 10,45 L 12,47 L 13,46 L 17,46 L 20,49 L 22,49 L 23,50 L 25,50 L 26,51 L 28,51 L 27,50 L 27,49 L 28,48 L 28,46 L 24,42 L 24,39 L 23,38 L 23,36 L 24,35 L 24,33 L 25,32 L 26,32 L 28,34 L 28,31 L 29,30 L 29,29 L 30,28 L 30,23 L 29,23 L 28,22 L 28,21 Z" fill="none" stroke="black" stroke-width="1"/>
</svg>