<svg xmlns="http://www.w3.org/2000/svg" width="83" height="89">
  <path d="M 9,46 L 9,47 L 8,48 L 8,52 L 7,53 L 7,56 L 8,57 L 8,59 L 7,60 L 7,63 L 8,64 L 8,66 L 7,67 L 6,67 L 6,68 L 5,69 L 4,69 L 3,70 L 4,71 L 4,72 L 5,73 L 5,74 L 9,78 L 9,79 L 10,80 L 10,83 L 9,84 L 9,87 L 10,88 L 14,88 L 15,87 L 17,87 L 19,85 L 19,84 L 20,83 L 21,83 L 22,82 L 27,82 L 27,80 L 26,80 L 25,79 L 25,78 L 24,77 L 24,76 L 25,75 L 25,74 L 27,72 L 27,70 L 29,68 L 29,63 L 28,62 L 28,53 L 27,52 L 26,52 L 25,51 L 23,51 L 22,50 L 20,50 L 17,47 L 13,47 L 12,48 L 10,46 Z" fill="none" stroke="black" stroke-width="1"/>
</svg>