<svg xmlns="http://www.w3.org/2000/svg" width="78" height="90">
  <path d="M 29,50 L 29,51 L 28,52 L 28,54 L 27,55 L 26,55 L 25,56 L 24,55 L 21,55 L 17,59 L 16,59 L 15,60 L 13,60 L 12,61 L 10,61 L 8,63 L 6,63 L 3,66 L 2,66 L 2,67 L 1,68 L 1,72 L 0,73 L 0,76 L 2,78 L 3,78 L 6,81 L 6,82 L 8,84 L 8,85 L 10,87 L 11,87 L 12,86 L 14,86 L 15,85 L 16,85 L 17,84 L 19,84 L 20,83 L 21,83 L 22,82 L 26,82 L 27,83 L 31,83 L 32,82 L 33,82 L 33,77 L 34,76 L 34,75 L 35,74 L 36,74 L 36,73 L 37,72 L 38,72 L 38,71 L 39,70 L 40,70 L 40,67 L 41,66 L 43,66 L 43,65 L 45,63 L 47,63 L 47,62 L 48,61 L 48,60 L 46,58 L 46,56 L 45,55 L 45,54 L 44,53 L 43,53 L 43,54 L 42,55 L 41,54 L 39,54 L 38,53 L 36,53 L 36,54 L 35,55 L 33,53 L 33,51 L 32,51 L 31,50 Z" fill="none" stroke="black" stroke-width="1"/>
</svg>