<svg xmlns="http://www.w3.org/2000/svg" width="78" height="90">
  <path d="M 66,36 L 65,37 L 64,37 L 64,38 L 63,39 L 62,39 L 62,43 L 61,44 L 60,44 L 60,47 L 59,48 L 59,50 L 58,51 L 57,51 L 57,55 L 56,56 L 54,56 L 54,57 L 53,58 L 51,58 L 51,61 L 50,62 L 48,62 L 48,63 L 47,64 L 45,64 L 44,65 L 44,66 L 43,67 L 41,67 L 41,70 L 40,71 L 39,71 L 39,72 L 38,73 L 37,73 L 37,74 L 36,75 L 35,75 L 35,76 L 34,77 L 34,81 L 35,81 L 36,80 L 47,80 L 48,81 L 48,82 L 49,83 L 49,86 L 50,86 L 51,87 L 51,88 L 52,89 L 58,89 L 59,88 L 61,88 L 62,87 L 63,87 L 63,84 L 64,83 L 64,82 L 66,80 L 67,80 L 71,76 L 77,76 L 77,74 L 76,74 L 75,73 L 75,72 L 74,71 L 73,71 L 70,68 L 69,68 L 68,67 L 68,63 L 69,62 L 69,61 L 70,60 L 70,59 L 71,58 L 71,54 L 72,53 L 71,52 L 71,49 L 72,48 L 72,45 L 71,44 L 71,43 L 67,39 L 67,38 L 66,37 Z" fill="none" stroke="black" stroke-width="1"/>
</svg>