<svg xmlns="http://www.w3.org/2000/svg" width="60" height="88">
  <path d="M 15,30 L 11,34 L 11,35 L 7,39 L 5,37 L 5,40 L 3,42 L 3,43 L 2,44 L 2,45 L 1,46 L 1,49 L 0,50 L 0,52 L 1,53 L 1,55 L 2,56 L 2,61 L 1,62 L 1,66 L 2,67 L 3,67 L 4,68 L 4,69 L 5,70 L 6,70 L 7,71 L 7,67 L 10,64 L 12,64 L 12,63 L 13,62 L 13,61 L 15,59 L 17,59 L 17,58 L 18,57 L 22,57 L 22,55 L 23,54 L 25,54 L 25,53 L 26,52 L 24,50 L 24,48 L 23,47 L 23,46 L 22,45 L 22,44 L 23,43 L 25,43 L 25,42 L 26,41 L 26,40 L 27,39 L 27,38 L 28,37 L 28,36 L 29,35 L 29,34 L 28,33 L 28,32 L 25,32 L 24,31 L 21,31 L 20,30 Z" fill="none" stroke="black" stroke-width="1"/>
</svg>