<svg xmlns="http://www.w3.org/2000/svg" width="122" height="103">
  <path d="M 45,0 L 44,1 L 43,1 L 40,4 L 38,4 L 37,5 L 34,5 L 33,6 L 32,6 L 31,7 L 30,7 L 29,8 L 29,11 L 30,12 L 30,13 L 31,14 L 31,15 L 30,16 L 30,17 L 29,18 L 29,26 L 30,27 L 30,32 L 31,32 L 33,34 L 33,35 L 34,36 L 35,36 L 36,37 L 46,37 L 46,31 L 45,32 L 44,31 L 44,30 L 45,29 L 46,29 L 47,28 L 47,27 L 46,26 L 46,24 L 45,23 L 45,12 L 44,11 L 44,7 L 45,6 L 43,4 L 45,2 L 45,1 L 46,0 Z" fill="none" stroke="black" stroke-width="1"/>
</svg>