<svg xmlns="http://www.w3.org/2000/svg" width="78" height="90">
  <path d="M 63,0 L 62,1 L 62,2 L 61,3 L 60,3 L 58,5 L 58,7 L 57,8 L 57,10 L 56,11 L 56,12 L 55,13 L 53,13 L 53,14 L 52,15 L 49,15 L 48,16 L 48,17 L 47,18 L 44,18 L 44,22 L 43,23 L 41,23 L 41,24 L 40,25 L 38,25 L 37,26 L 37,28 L 36,29 L 36,30 L 34,32 L 33,32 L 32,33 L 31,33 L 30,34 L 29,34 L 26,37 L 24,37 L 23,38 L 23,41 L 24,41 L 25,42 L 25,43 L 26,43 L 27,44 L 27,45 L 28,46 L 28,49 L 31,49 L 32,50 L 33,50 L 34,51 L 34,53 L 35,54 L 35,53 L 36,52 L 38,52 L 39,53 L 41,53 L 42,54 L 42,53 L 43,52 L 44,52 L 46,54 L 46,55 L 47,56 L 47,58 L 49,60 L 49,61 L 50,61 L 50,58 L 51,57 L 53,57 L 53,56 L 54,55 L 56,55 L 56,51 L 57,50 L 58,50 L 58,48 L 59,47 L 59,44 L 60,43 L 61,43 L 61,39 L 62,38 L 63,38 L 63,37 L 64,36 L 65,36 L 65,35 L 67,33 L 68,33 L 68,32 L 69,31 L 70,31 L 70,29 L 69,28 L 69,25 L 70,24 L 70,22 L 69,21 L 69,18 L 70,17 L 70,13 L 71,12 L 71,11 L 69,11 L 67,9 L 66,9 L 65,8 L 66,7 L 66,6 L 69,3 L 69,2 L 68,2 L 67,1 L 67,0 Z" fill="none" stroke="black" stroke-width="1"/>
</svg>