<svg xmlns="http://www.w3.org/2000/svg" width="94" height="66">
  <path d="M 9,9 L 9,10 L 8,11 L 7,11 L 7,13 L 9,15 L 7,17 L 7,18 L 6,19 L 6,20 L 7,21 L 6,22 L 5,22 L 5,23 L 1,27 L 0,27 L 0,28 L 1,29 L 10,29 L 11,30 L 12,30 L 13,31 L 13,32 L 14,33 L 14,34 L 15,35 L 15,36 L 16,37 L 16,38 L 18,40 L 21,40 L 22,41 L 22,43 L 26,47 L 27,47 L 27,46 L 28,45 L 28,44 L 27,43 L 27,41 L 29,39 L 30,39 L 32,37 L 36,37 L 36,36 L 38,34 L 38,33 L 39,32 L 39,31 L 34,26 L 33,26 L 32,27 L 31,27 L 30,26 L 30,24 L 28,22 L 28,20 L 27,19 L 27,16 L 25,14 L 25,13 L 23,11 L 22,11 L 21,12 L 18,9 L 17,9 L 16,10 L 12,10 L 11,9 Z" fill="none" stroke="black" stroke-width="1"/>
</svg>