<svg xmlns="http://www.w3.org/2000/svg" width="73" height="89">
  <path d="M 21,38 L 21,39 L 20,40 L 19,40 L 18,41 L 17,41 L 16,42 L 14,42 L 13,43 L 13,45 L 11,47 L 9,47 L 7,49 L 4,49 L 4,50 L 3,51 L 2,51 L 2,52 L 1,53 L 0,53 L 0,57 L 1,57 L 2,58 L 2,59 L 3,60 L 3,61 L 1,63 L 1,64 L 0,65 L 13,65 L 15,67 L 17,67 L 19,69 L 19,70 L 20,71 L 20,72 L 23,75 L 23,76 L 24,77 L 24,79 L 25,80 L 25,83 L 26,84 L 26,85 L 29,85 L 32,88 L 34,88 L 35,87 L 36,87 L 38,85 L 38,84 L 41,81 L 41,79 L 42,78 L 42,77 L 44,75 L 44,73 L 45,72 L 46,72 L 47,71 L 49,71 L 50,70 L 49,69 L 49,66 L 50,65 L 51,65 L 52,64 L 53,64 L 53,61 L 54,60 L 54,58 L 55,57 L 56,57 L 57,56 L 57,55 L 48,55 L 47,54 L 46,54 L 45,53 L 44,53 L 42,51 L 40,51 L 39,50 L 38,50 L 36,48 L 36,47 L 35,47 L 34,46 L 32,46 L 31,45 L 28,45 L 24,41 L 24,40 L 22,38 Z" fill="none" stroke="black" stroke-width="1"/>
</svg>