<svg xmlns="http://www.w3.org/2000/svg" width="73" height="89">
  <path d="M 36,0 L 35,1 L 34,1 L 33,2 L 30,2 L 28,4 L 27,4 L 26,5 L 25,5 L 24,6 L 23,6 L 23,8 L 19,12 L 19,13 L 18,14 L 17,13 L 15,13 L 15,16 L 16,16 L 17,17 L 17,19 L 18,20 L 18,24 L 19,25 L 19,32 L 20,33 L 20,34 L 21,35 L 21,36 L 25,40 L 25,41 L 28,44 L 31,44 L 32,45 L 34,45 L 35,46 L 36,46 L 37,47 L 37,48 L 38,49 L 39,49 L 40,50 L 42,50 L 44,52 L 45,52 L 46,53 L 47,53 L 48,54 L 57,54 L 57,48 L 56,47 L 56,46 L 54,44 L 53,44 L 52,43 L 52,31 L 55,28 L 55,26 L 54,25 L 54,23 L 52,21 L 52,20 L 51,19 L 51,17 L 50,16 L 50,11 L 51,10 L 51,5 L 52,4 L 44,4 L 43,3 L 43,2 L 41,2 L 40,1 L 40,0 Z" fill="none" stroke="black" stroke-width="1"/>
</svg>