<svg xmlns="http://www.w3.org/2000/svg" width="94" height="122">
  <path d="M 28,0 L 27,1 L 23,1 L 20,4 L 20,6 L 19,7 L 18,7 L 18,8 L 17,9 L 16,9 L 15,10 L 7,10 L 7,12 L 8,13 L 8,15 L 9,16 L 10,16 L 11,17 L 11,20 L 9,22 L 8,22 L 8,23 L 7,24 L 7,26 L 9,28 L 8,29 L 8,30 L 6,32 L 6,33 L 5,34 L 5,36 L 7,38 L 7,39 L 8,39 L 9,40 L 10,40 L 11,39 L 13,41 L 14,41 L 15,42 L 15,43 L 19,43 L 21,45 L 21,46 L 22,47 L 22,48 L 23,49 L 23,51 L 24,50 L 25,50 L 26,49 L 31,49 L 31,44 L 32,43 L 32,41 L 33,40 L 33,35 L 34,34 L 34,32 L 37,29 L 38,29 L 39,28 L 39,27 L 40,26 L 40,20 L 39,20 L 38,19 L 39,18 L 37,16 L 37,13 L 36,13 L 35,12 L 34,12 L 32,10 L 32,7 L 29,4 L 29,2 L 28,1 Z" fill="none" stroke="black" stroke-width="1"/>
</svg>