<svg xmlns="http://www.w3.org/2000/svg" width="94" height="122">
  <path d="M 26,50 L 25,51 L 24,51 L 23,52 L 23,53 L 22,54 L 21,53 L 20,53 L 19,52 L 17,52 L 15,54 L 15,55 L 14,56 L 14,57 L 13,58 L 11,58 L 11,59 L 12,60 L 12,61 L 13,62 L 11,64 L 9,64 L 8,63 L 7,64 L 8,65 L 7,66 L 5,66 L 3,64 L 3,66 L 2,67 L 1,67 L 1,70 L 3,72 L 1,74 L 0,74 L 1,75 L 0,76 L 0,77 L 4,77 L 7,80 L 11,80 L 13,82 L 14,82 L 15,83 L 16,83 L 18,85 L 19,85 L 20,86 L 21,86 L 22,87 L 23,87 L 24,88 L 25,88 L 27,90 L 28,90 L 30,92 L 32,92 L 33,93 L 34,93 L 35,94 L 36,94 L 38,92 L 39,92 L 40,91 L 40,90 L 41,89 L 41,88 L 42,87 L 43,87 L 45,85 L 47,85 L 48,84 L 50,84 L 50,82 L 51,81 L 48,78 L 48,77 L 47,76 L 47,75 L 45,75 L 44,74 L 44,73 L 43,73 L 42,72 L 41,72 L 40,71 L 40,70 L 39,70 L 38,69 L 38,67 L 39,66 L 39,64 L 38,64 L 37,63 L 37,61 L 36,60 L 36,59 L 35,58 L 35,56 L 34,55 L 34,53 L 33,53 L 32,52 L 32,51 L 31,50 Z" fill="none" stroke="black" stroke-width="1"/>
</svg>