<svg xmlns="http://www.w3.org/2000/svg" width="86" height="91">
  <path d="M 43,0 L 42,1 L 41,1 L 40,2 L 39,2 L 38,3 L 38,7 L 40,7 L 41,8 L 41,9 L 44,12 L 44,13 L 45,14 L 45,18 L 47,20 L 51,20 L 53,18 L 54,18 L 59,13 L 60,13 L 61,14 L 61,15 L 60,16 L 60,20 L 61,21 L 61,24 L 62,25 L 62,27 L 64,29 L 64,31 L 66,33 L 66,34 L 69,37 L 76,37 L 77,36 L 78,36 L 78,35 L 79,34 L 79,32 L 78,31 L 78,29 L 79,28 L 80,28 L 80,26 L 81,25 L 82,25 L 83,24 L 83,23 L 84,22 L 84,20 L 85,19 L 85,17 L 82,17 L 81,16 L 81,12 L 80,12 L 79,11 L 79,8 L 78,8 L 77,7 L 74,7 L 73,6 L 70,6 L 69,5 L 67,5 L 63,1 L 57,1 L 56,0 Z" fill="none" stroke="black" stroke-width="1"/>
</svg>