<svg xmlns="http://www.w3.org/2000/svg" width="86" height="91">
  <path d="M 16,21 L 16,23 L 15,24 L 14,24 L 13,23 L 12,23 L 12,26 L 11,27 L 11,32 L 9,34 L 8,34 L 8,35 L 6,37 L 6,39 L 4,41 L 4,43 L 7,46 L 8,46 L 9,47 L 9,48 L 15,48 L 16,49 L 16,50 L 17,50 L 19,52 L 20,52 L 21,53 L 23,53 L 24,54 L 26,54 L 27,55 L 28,55 L 29,56 L 32,56 L 33,55 L 36,55 L 37,56 L 38,56 L 39,57 L 42,57 L 42,52 L 41,51 L 41,50 L 37,46 L 37,44 L 38,43 L 38,40 L 36,38 L 36,37 L 34,35 L 32,35 L 31,34 L 30,34 L 28,32 L 28,31 L 29,30 L 28,29 L 28,27 L 27,27 L 26,26 L 26,25 L 24,23 L 24,22 L 23,22 L 22,21 Z" fill="none" stroke="black" stroke-width="1"/>
</svg>