<svg xmlns="http://www.w3.org/2000/svg" width="86" height="91">
  <path d="M 36,6 L 35,7 L 33,7 L 32,8 L 31,8 L 31,9 L 29,11 L 28,10 L 27,10 L 26,9 L 25,9 L 23,11 L 23,13 L 21,15 L 20,15 L 20,20 L 22,20 L 23,21 L 24,21 L 25,22 L 25,23 L 27,25 L 27,26 L 28,26 L 29,27 L 29,29 L 30,30 L 29,31 L 29,32 L 30,33 L 31,33 L 32,34 L 34,34 L 37,37 L 37,38 L 38,39 L 40,37 L 41,37 L 43,35 L 46,35 L 46,34 L 47,33 L 49,33 L 50,32 L 52,32 L 52,31 L 53,30 L 54,30 L 57,27 L 57,26 L 59,24 L 60,24 L 60,21 L 59,20 L 59,16 L 60,15 L 60,14 L 59,14 L 54,19 L 53,19 L 51,21 L 47,21 L 44,18 L 44,14 L 43,13 L 43,12 L 40,9 L 40,8 L 38,8 L 37,7 L 37,6 Z" fill="none" stroke="black" stroke-width="1"/>
</svg>