<svg xmlns="http://www.w3.org/2000/svg" width="86" height="91">
  <path d="M 59,25 L 58,26 L 58,27 L 54,31 L 53,31 L 53,32 L 52,33 L 50,33 L 49,34 L 47,34 L 47,35 L 46,36 L 43,36 L 41,38 L 40,38 L 39,39 L 39,43 L 38,44 L 38,46 L 42,50 L 42,51 L 43,52 L 43,57 L 44,57 L 45,58 L 45,61 L 48,64 L 49,64 L 50,65 L 51,65 L 52,64 L 52,63 L 53,62 L 60,62 L 62,64 L 63,64 L 64,65 L 66,65 L 67,66 L 76,66 L 77,65 L 81,65 L 82,64 L 82,63 L 80,61 L 80,60 L 79,59 L 79,58 L 78,57 L 78,51 L 79,50 L 79,49 L 80,48 L 80,47 L 83,44 L 82,43 L 82,42 L 81,41 L 81,40 L 79,38 L 79,37 L 77,37 L 76,38 L 69,38 L 65,34 L 65,33 L 63,31 L 63,29 L 61,27 L 61,25 Z" fill="none" stroke="black" stroke-width="1"/>
</svg>