<svg xmlns="http://www.w3.org/2000/svg" width="92" height="51">
  <path d="M 41,13 L 41,14 Z" fill="none" stroke="black" stroke-width="1"/>
  <path d="M 55,3 L 53,5 L 53,7 L 52,8 L 51,8 L 50,9 L 51,10 L 50,11 L 49,11 L 50,12 L 48,14 L 47,14 L 46,13 L 46,14 L 47,14 L 48,15 L 49,15 L 50,16 L 49,17 L 44,17 L 43,18 L 42,17 L 42,16 L 40,16 L 39,15 L 39,16 L 38,17 L 40,17 L 41,18 L 51,18 L 52,17 L 54,19 L 51,22 L 50,22 L 49,23 L 49,24 L 50,25 L 50,26 L 51,26 L 53,28 L 53,30 L 56,33 L 57,33 L 59,35 L 59,37 L 60,38 L 61,38 L 62,39 L 63,39 L 64,40 L 66,40 L 67,41 L 70,41 L 71,40 L 72,40 L 73,39 L 81,39 L 81,37 L 83,35 L 83,34 L 84,33 L 84,32 L 86,30 L 86,26 L 89,23 L 90,23 L 91,22 L 91,21 L 90,20 L 89,20 L 88,19 L 86,19 L 84,17 L 83,17 L 81,15 L 80,15 L 79,14 L 78,14 L 77,13 L 76,13 L 75,12 L 74,12 L 72,10 L 71,10 L 70,9 L 69,9 L 67,7 L 63,7 L 60,4 L 56,4 Z" fill="none" stroke="black" stroke-width="1"/>
</svg>