<svg xmlns="http://www.w3.org/2000/svg" width="94" height="122">
  <path d="M 48,17 L 47,18 L 46,18 L 45,19 L 42,19 L 41,20 L 41,26 L 40,27 L 40,28 L 38,30 L 37,30 L 35,32 L 35,34 L 34,35 L 34,40 L 33,41 L 33,43 L 32,44 L 32,50 L 33,51 L 33,52 L 34,52 L 35,53 L 35,55 L 36,56 L 36,58 L 37,59 L 37,60 L 38,61 L 38,63 L 39,63 L 40,64 L 40,66 L 39,67 L 39,69 L 40,69 L 41,70 L 41,71 L 42,71 L 43,72 L 44,72 L 45,73 L 45,74 L 47,74 L 47,72 L 48,71 L 48,67 L 50,65 L 54,65 L 54,64 L 56,62 L 57,62 L 57,61 L 58,60 L 59,60 L 60,59 L 61,59 L 62,58 L 62,57 L 63,56 L 67,56 L 68,55 L 68,54 L 70,52 L 70,51 L 69,50 L 69,49 L 68,49 L 67,48 L 67,45 L 66,44 L 65,44 L 62,41 L 62,40 L 60,40 L 57,37 L 57,35 L 55,33 L 55,30 L 54,29 L 54,26 L 55,25 L 55,23 L 56,22 L 56,20 L 55,19 L 49,19 L 48,18 Z" fill="none" stroke="black" stroke-width="1"/>
</svg>