<svg xmlns="http://www.w3.org/2000/svg" width="91" height="62">
  <path d="M 18,13 L 17,14 L 13,14 L 10,17 L 9,17 L 6,20 L 5,20 L 4,21 L 1,21 L 1,22 L 0,23 L 0,24 L 1,25 L 1,26 L 2,27 L 2,28 L 1,29 L 4,32 L 4,33 L 7,36 L 7,37 L 10,37 L 11,38 L 11,39 L 12,40 L 12,41 L 16,41 L 18,39 L 18,38 L 20,36 L 21,36 L 22,35 L 24,35 L 25,36 L 26,36 L 27,35 L 28,35 L 29,36 L 29,37 L 31,37 L 32,36 L 34,36 L 36,34 L 37,34 L 37,33 L 38,32 L 39,32 L 38,31 L 39,30 L 40,30 L 41,29 L 43,29 L 43,27 L 42,26 L 41,26 L 40,25 L 40,24 L 41,23 L 41,21 L 42,20 L 42,18 L 41,17 L 40,18 L 39,17 L 35,17 L 33,19 L 32,19 L 30,17 L 28,17 L 27,16 L 26,16 L 24,14 L 23,14 L 22,13 Z" fill="none" stroke="black" stroke-width="1"/>
</svg>