<svg xmlns="http://www.w3.org/2000/svg" width="92" height="51">
  <path d="M 29,21 L 27,23 L 27,24 L 25,26 L 24,26 L 24,27 L 23,28 L 22,27 L 21,27 L 21,28 L 20,29 L 20,33 L 18,35 L 18,36 L 19,36 L 20,35 L 23,35 L 24,36 L 27,36 L 29,38 L 29,39 L 30,39 L 31,40 L 33,40 L 34,41 L 36,41 L 39,44 L 39,45 L 41,47 L 43,47 L 44,46 L 45,46 L 46,45 L 50,45 L 51,46 L 51,47 L 54,47 L 55,48 L 56,48 L 57,49 L 58,49 L 59,50 L 60,49 L 60,48 L 61,47 L 62,47 L 63,46 L 65,46 L 66,45 L 67,45 L 67,43 L 68,42 L 67,42 L 66,41 L 64,41 L 63,40 L 62,40 L 61,39 L 60,39 L 58,37 L 58,35 L 57,34 L 56,34 L 52,30 L 52,28 L 51,27 L 50,27 L 49,26 L 49,25 L 48,24 L 47,24 L 46,25 L 44,25 L 42,23 L 39,23 L 39,24 L 38,25 L 37,24 L 36,24 L 35,23 L 34,24 L 32,22 L 31,22 L 30,23 L 29,22 Z" fill="none" stroke="black" stroke-width="1"/>
</svg>