<svg xmlns="http://www.w3.org/2000/svg" width="96" height="54">
  <path d="M 62,25 L 61,26 L 62,27 L 62,28 L 62,27 L 63,26 Z" fill="none" stroke="black" stroke-width="1"/>
  <path d="M 60,0 L 56,4 L 56,5 L 55,6 L 55,10 L 56,11 L 56,15 L 57,16 L 57,18 L 58,19 L 58,20 L 59,21 L 59,22 L 60,23 L 61,23 L 62,22 L 66,26 L 66,27 L 66,25 L 67,24 L 69,26 L 70,26 L 71,27 L 72,27 L 73,28 L 73,30 L 74,30 L 75,31 L 75,33 L 76,33 L 77,34 L 77,35 L 78,35 L 78,33 L 79,32 L 82,32 L 83,31 L 83,30 L 84,29 L 86,29 L 86,28 L 87,27 L 87,26 L 90,23 L 92,23 L 93,24 L 94,24 L 95,25 L 95,21 L 94,20 L 94,19 L 93,18 L 93,17 L 92,16 L 88,16 L 87,15 L 87,14 L 86,14 L 84,12 L 83,13 L 82,13 L 81,12 L 80,12 L 79,11 L 79,10 L 77,8 L 77,5 L 76,4 L 74,4 L 73,3 L 72,3 L 70,1 L 69,1 L 68,0 L 67,0 L 66,1 L 65,1 L 64,2 L 62,0 Z" fill="none" stroke="black" stroke-width="1"/>
</svg>