<svg xmlns="http://www.w3.org/2000/svg" width="96" height="54">
  <path d="M 43,34 L 44,35 L 45,35 L 46,36 L 45,37 L 46,37 L 46,35 L 45,35 L 44,34 Z" fill="none" stroke="black" stroke-width="1"/>
  <path d="M 50,13 L 49,14 L 46,14 L 46,15 L 45,16 L 43,16 L 42,17 L 42,18 L 41,19 L 37,19 L 36,20 L 32,20 L 28,24 L 28,25 L 27,26 L 27,27 L 26,28 L 26,32 L 27,33 L 27,37 L 26,38 L 25,38 L 25,41 L 26,42 L 26,47 L 27,48 L 30,48 L 31,49 L 33,49 L 33,48 L 34,47 L 35,47 L 35,46 L 36,45 L 38,45 L 38,44 L 37,43 L 37,42 L 38,41 L 38,39 L 41,36 L 41,33 L 40,32 L 41,31 L 44,31 L 44,30 L 45,29 L 46,30 L 48,28 L 49,29 L 50,28 L 50,27 L 51,26 L 52,27 L 52,28 L 54,28 L 55,27 L 56,28 L 57,28 L 59,26 L 59,25 L 60,24 L 58,22 L 58,21 L 57,20 L 57,19 L 56,18 L 56,16 L 53,16 L 51,14 L 51,13 Z" fill="none" stroke="black" stroke-width="1"/>
</svg>