<svg xmlns="http://www.w3.org/2000/svg" width="96" height="54">
  <path d="M 21,23 L 20,24 L 18,24 L 18,25 L 17,26 L 15,26 L 14,27 L 13,27 L 12,26 L 11,26 L 9,24 L 6,24 L 4,26 L 4,28 L 2,30 L 2,33 L 3,32 L 4,32 L 5,31 L 6,31 L 7,32 L 8,32 L 9,33 L 9,35 L 7,37 L 6,37 L 3,40 L 2,40 L 1,41 L 0,40 L 0,41 L 1,42 L 1,43 L 2,44 L 2,45 L 3,46 L 2,47 L 2,52 L 3,53 L 4,53 L 5,52 L 6,52 L 7,53 L 11,53 L 12,52 L 13,52 L 16,49 L 18,49 L 18,47 L 19,46 L 25,46 L 25,42 L 24,41 L 24,38 L 25,37 L 26,37 L 26,33 L 25,32 L 25,28 L 26,27 L 26,26 L 27,25 L 27,24 L 26,24 L 25,23 Z" fill="none" stroke="black" stroke-width="1"/>
</svg>