<svg xmlns="http://www.w3.org/2000/svg" width="56" height="42">
  <path d="M 38,0 L 35,3 L 34,3 L 33,4 L 29,4 L 28,3 L 27,3 L 26,4 L 25,4 L 23,2 L 22,2 L 20,4 L 20,7 L 22,9 L 22,11 L 23,12 L 23,13 L 20,16 L 20,17 L 18,19 L 17,18 L 16,19 L 16,20 L 15,21 L 15,22 L 16,23 L 17,23 L 18,22 L 22,22 L 23,23 L 23,24 L 29,24 L 29,22 L 31,20 L 31,19 L 32,18 L 33,18 L 34,17 L 35,18 L 36,18 L 37,17 L 45,17 L 45,13 L 44,12 L 44,7 L 43,6 L 43,3 L 41,3 L 40,2 L 40,0 Z" fill="none" stroke="black" stroke-width="1"/>
</svg>