<svg xmlns="http://www.w3.org/2000/svg" width="73" height="110">
  <path d="M 3,0 L 0,3 L 0,4 L 1,4 L 2,5 L 1,6 L 1,10 L 2,11 L 2,13 L 3,14 L 3,15 L 5,17 L 5,19 L 7,21 L 7,22 L 6,23 L 6,26 L 5,27 L 9,31 L 9,34 L 8,35 L 8,36 L 12,36 L 13,35 L 13,34 L 16,31 L 17,31 L 18,30 L 20,30 L 22,28 L 22,27 L 23,26 L 23,24 L 21,22 L 21,21 L 22,20 L 22,19 L 23,18 L 22,17 L 22,15 L 20,13 L 19,13 L 18,12 L 18,10 L 17,9 L 16,9 L 13,6 L 12,6 L 11,5 L 11,4 L 9,2 L 9,1 L 7,1 L 6,0 Z" fill="none" stroke="black" stroke-width="1"/>
</svg>