<svg xmlns="http://www.w3.org/2000/svg" width="73" height="110">
  <path d="M 38,2 L 37,3 L 34,3 L 33,4 L 33,5 L 34,6 L 34,7 L 35,8 L 35,9 L 32,12 L 25,12 L 24,11 L 20,11 L 19,10 L 19,12 L 20,12 L 23,15 L 23,17 L 24,18 L 23,19 L 23,20 L 22,21 L 22,22 L 24,24 L 24,25 L 25,25 L 27,23 L 29,23 L 30,22 L 30,21 L 31,20 L 35,20 L 36,21 L 36,22 L 39,25 L 40,25 L 42,27 L 42,28 L 44,28 L 46,26 L 46,25 L 48,23 L 50,23 L 51,22 L 51,20 L 53,18 L 55,18 L 55,17 L 56,16 L 56,15 L 57,14 L 58,14 L 58,13 L 56,11 L 56,10 L 54,8 L 52,8 L 51,7 L 49,7 L 48,6 L 47,6 L 46,5 L 46,4 L 45,3 L 42,3 L 41,2 Z" fill="none" stroke="black" stroke-width="1"/>
</svg>