<svg xmlns="http://www.w3.org/2000/svg" width="73" height="110">
  <path d="M 31,21 L 31,22 L 29,24 L 27,24 L 25,26 L 24,26 L 23,27 L 23,28 L 20,31 L 18,31 L 17,32 L 16,32 L 14,34 L 14,35 L 12,37 L 8,37 L 8,38 L 10,40 L 10,41 L 11,42 L 11,44 L 9,46 L 8,46 L 8,49 L 7,50 L 10,53 L 14,53 L 17,56 L 18,55 L 22,55 L 22,54 L 24,52 L 26,52 L 27,51 L 33,51 L 34,52 L 35,52 L 36,53 L 37,53 L 38,54 L 39,54 L 39,51 L 41,49 L 41,44 L 42,43 L 42,42 L 44,40 L 45,40 L 45,38 L 42,35 L 42,33 L 43,32 L 43,31 L 44,30 L 44,29 L 42,29 L 41,28 L 41,27 L 40,26 L 39,26 L 35,22 L 35,21 Z" fill="none" stroke="black" stroke-width="1"/>
</svg>