<svg xmlns="http://www.w3.org/2000/svg" width="86" height="91">
  <path d="M 6,46 L 6,47 L 4,49 L 4,50 L 1,53 L 0,53 L 0,54 L 1,55 L 1,56 L 2,56 L 4,58 L 4,59 L 3,60 L 3,63 L 4,64 L 4,65 L 5,66 L 5,70 L 8,73 L 8,74 L 9,74 L 10,75 L 10,76 L 9,77 L 8,77 L 7,78 L 5,78 L 4,79 L 4,81 L 5,82 L 5,85 L 3,87 L 3,88 L 5,90 L 6,90 L 7,89 L 10,89 L 11,88 L 12,88 L 13,87 L 14,87 L 15,86 L 18,86 L 19,85 L 20,85 L 22,83 L 29,83 L 33,79 L 34,79 L 35,78 L 35,77 L 36,76 L 36,75 L 39,72 L 40,72 L 40,71 L 42,69 L 44,69 L 47,66 L 49,66 L 49,65 L 48,65 L 44,61 L 44,58 L 39,58 L 38,57 L 37,57 L 36,56 L 33,56 L 32,57 L 29,57 L 28,56 L 27,56 L 26,55 L 24,55 L 23,54 L 21,54 L 20,53 L 19,53 L 17,51 L 16,51 L 15,50 L 15,49 L 9,49 L 8,48 L 8,47 L 7,47 Z" fill="none" stroke="black" stroke-width="1"/>
</svg>