<svg xmlns="http://www.w3.org/2000/svg" width="75" height="56">
  <path d="M 35,0 L 34,1 L 31,1 L 30,2 L 28,2 L 27,3 L 26,3 L 24,5 L 23,5 L 23,8 L 22,9 L 22,13 L 21,14 L 21,15 L 20,16 L 20,18 L 22,20 L 22,21 L 23,22 L 23,24 L 24,24 L 25,25 L 25,26 L 26,26 L 27,27 L 28,27 L 30,29 L 30,30 L 32,30 L 34,28 L 36,28 L 37,27 L 39,27 L 40,28 L 41,28 L 42,29 L 43,29 L 46,32 L 47,32 L 50,29 L 49,28 L 49,27 L 47,25 L 47,18 L 45,16 L 45,15 L 43,13 L 43,8 L 44,7 L 45,7 L 43,5 L 43,4 L 42,3 L 42,2 L 41,2 L 40,1 L 39,1 L 38,0 Z" fill="none" stroke="black" stroke-width="1"/>
</svg>