<svg xmlns="http://www.w3.org/2000/svg" width="75" height="56">
  <path d="M 56,5 L 55,6 L 53,6 L 52,7 L 51,7 L 50,8 L 44,8 L 44,13 L 46,15 L 46,16 L 48,18 L 48,25 L 50,27 L 50,28 L 53,28 L 55,30 L 56,29 L 57,29 L 58,28 L 59,28 L 60,29 L 61,29 L 63,31 L 64,31 L 65,32 L 67,32 L 69,34 L 69,33 L 71,31 L 71,30 L 72,29 L 70,27 L 70,25 L 71,24 L 71,23 L 72,22 L 73,22 L 74,21 L 74,18 L 73,18 L 71,16 L 71,14 L 70,13 L 70,12 L 65,12 L 64,11 L 64,10 L 62,8 L 61,8 L 60,7 L 60,6 L 59,5 Z" fill="none" stroke="black" stroke-width="1"/>
</svg>