<svg xmlns="http://www.w3.org/2000/svg" width="73" height="110">
  <path d="M 64,12 L 63,13 L 62,13 L 61,14 L 59,14 L 58,15 L 57,15 L 57,16 L 56,17 L 56,18 L 55,19 L 53,19 L 52,20 L 52,22 L 50,24 L 48,24 L 47,25 L 47,26 L 45,28 L 45,30 L 44,31 L 44,32 L 43,33 L 43,35 L 46,38 L 46,40 L 45,41 L 44,41 L 43,42 L 43,43 L 42,44 L 42,49 L 40,51 L 40,54 L 39,55 L 39,56 L 40,56 L 41,57 L 42,57 L 43,58 L 49,58 L 51,56 L 51,55 L 53,53 L 53,51 L 51,49 L 51,47 L 53,45 L 53,43 L 55,41 L 55,40 L 56,39 L 57,39 L 58,38 L 58,33 L 59,32 L 59,29 L 60,28 L 61,28 L 62,29 L 63,29 L 63,27 L 64,26 L 67,26 L 67,21 L 68,20 L 69,20 L 70,19 L 70,17 L 72,15 L 72,14 L 69,14 L 68,13 L 68,12 Z" fill="none" stroke="black" stroke-width="1"/>
</svg>