<svg xmlns="http://www.w3.org/2000/svg" width="82" height="128">
  <path d="M 8,0 L 7,1 L 6,1 L 5,2 L 3,2 L 2,3 L 0,3 L 1,3 L 2,4 L 2,6 L 3,6 L 4,5 L 5,5 L 6,6 L 5,7 L 5,8 L 4,9 L 3,9 L 2,8 L 2,10 L 3,9 L 4,10 L 5,10 L 6,11 L 6,13 L 5,14 L 4,13 L 4,12 L 3,12 L 4,13 L 4,14 L 5,14 L 7,16 L 7,18 L 8,19 L 9,18 L 10,18 L 13,21 L 15,21 L 16,22 L 15,23 L 12,23 L 10,21 L 9,21 L 11,23 L 12,23 L 13,24 L 13,25 L 14,25 L 17,28 L 18,28 L 19,29 L 19,30 L 24,35 L 24,36 L 26,38 L 27,38 L 29,40 L 29,42 L 30,43 L 33,43 L 33,41 L 34,40 L 34,39 L 36,37 L 36,36 L 38,34 L 38,32 L 41,29 L 41,27 L 42,26 L 42,22 L 43,21 L 44,21 L 44,19 L 43,19 L 40,16 L 39,16 L 38,15 L 36,15 L 34,13 L 33,13 L 32,12 L 29,12 L 26,9 L 26,5 L 25,6 L 23,6 L 22,5 L 21,5 L 19,3 L 18,3 L 17,2 L 14,2 L 13,1 L 10,1 L 9,0 Z" fill="none" stroke="black" stroke-width="1"/>
</svg>