<svg xmlns="http://www.w3.org/2000/svg" width="82" height="128">
  <path d="M 52,57 L 51,58 L 44,58 L 44,60 L 45,61 L 45,62 L 46,63 L 46,64 L 47,65 L 47,67 L 48,68 L 48,69 L 47,70 L 47,72 L 48,73 L 48,74 L 50,76 L 54,76 L 56,74 L 57,74 L 58,73 L 60,75 L 61,74 L 62,74 L 66,78 L 67,78 L 68,79 L 69,79 L 71,81 L 71,78 L 72,77 L 72,76 L 73,75 L 75,75 L 75,70 L 74,69 L 74,64 L 75,63 L 75,61 L 71,61 L 70,62 L 68,62 L 67,61 L 67,60 L 65,60 L 64,59 L 61,59 L 60,58 L 58,58 L 57,57 Z" fill="none" stroke="black" stroke-width="1"/>
</svg>