<svg xmlns="http://www.w3.org/2000/svg" width="82" height="128">
  <path d="M 61,75 L 60,76 L 59,76 L 58,77 L 57,77 L 56,78 L 52,78 L 51,79 L 49,79 L 49,80 L 51,82 L 51,84 L 52,85 L 52,86 L 56,90 L 56,91 L 58,93 L 58,98 L 59,99 L 59,100 L 60,101 L 60,102 L 61,103 L 61,105 L 63,105 L 64,104 L 66,104 L 67,103 L 68,104 L 70,104 L 71,103 L 71,97 L 72,96 L 72,95 L 73,94 L 73,88 L 72,87 L 72,84 L 71,83 L 71,82 L 69,80 L 68,80 L 67,79 L 66,79 L 62,75 Z" fill="none" stroke="black" stroke-width="1"/>
</svg>