<svg xmlns="http://www.w3.org/2000/svg" width="94" height="66">
  <path d="M 32,38 L 30,40 L 29,40 L 28,41 L 28,43 L 29,44 L 29,45 L 28,46 L 28,48 L 27,49 L 27,50 L 28,51 L 29,51 L 30,52 L 31,52 L 32,53 L 32,54 L 35,57 L 35,58 L 36,59 L 36,60 L 37,60 L 39,62 L 40,62 L 41,63 L 41,64 L 42,65 L 43,64 L 44,64 L 45,63 L 47,63 L 47,62 L 49,60 L 50,60 L 51,59 L 51,57 L 50,56 L 50,53 L 49,53 L 48,52 L 48,50 L 49,49 L 47,49 L 45,47 L 45,45 L 43,45 L 42,44 L 42,40 L 41,40 L 40,39 L 37,39 L 36,38 Z" fill="none" stroke="black" stroke-width="1"/>
</svg>