<svg xmlns="http://www.w3.org/2000/svg" width="114" height="78">
  <path d="M 11,5 L 11,12 L 10,13 L 10,14 L 6,18 L 4,18 L 3,19 L 2,19 L 1,20 L 0,20 L 0,23 L 4,27 L 4,29 L 3,30 L 3,32 L 4,33 L 4,35 L 3,36 L 3,37 L 2,38 L 5,41 L 6,41 L 7,42 L 7,44 L 10,44 L 10,43 L 11,42 L 11,41 L 12,40 L 12,39 L 14,37 L 14,36 L 16,34 L 16,33 L 18,31 L 19,31 L 19,30 L 23,26 L 24,26 L 25,25 L 26,25 L 26,23 L 27,22 L 27,12 L 26,12 L 25,11 L 25,10 L 23,8 L 23,7 L 22,6 L 22,5 Z" fill="none" stroke="black" stroke-width="1"/>
</svg>