<svg xmlns="http://www.w3.org/2000/svg" width="62" height="80">
  <path d="M 28,20 L 28,21 L 27,22 L 27,26 L 26,27 L 26,28 L 25,29 L 25,30 L 23,32 L 22,32 L 23,33 L 23,34 L 24,35 L 24,40 L 23,41 L 23,42 L 22,43 L 21,43 L 21,44 L 20,45 L 19,45 L 16,48 L 13,48 L 13,50 L 14,51 L 14,53 L 18,53 L 19,54 L 24,54 L 25,53 L 26,53 L 27,52 L 28,52 L 33,57 L 35,57 L 36,58 L 37,58 L 38,59 L 38,61 L 44,67 L 44,68 L 45,68 L 46,69 L 46,70 L 47,70 L 48,71 L 49,71 L 50,72 L 51,72 L 52,73 L 56,73 L 57,72 L 57,71 L 58,70 L 58,67 L 60,65 L 60,63 L 61,62 L 61,53 L 56,53 L 55,52 L 55,51 L 52,48 L 51,48 L 45,42 L 45,38 L 44,37 L 44,34 L 43,33 L 43,31 L 40,28 L 40,27 L 38,25 L 37,25 L 36,24 L 35,24 L 34,23 L 34,22 L 32,20 Z" fill="none" stroke="black" stroke-width="1"/>
</svg>