<svg xmlns="http://www.w3.org/2000/svg" width="102" height="109">
  <path d="M 12,37 L 11,38 L 11,39 L 10,40 L 9,40 L 8,41 L 0,41 L 0,42 L 1,43 L 1,49 L 2,50 L 2,51 L 4,53 L 4,54 L 8,54 L 11,57 L 11,58 L 12,58 L 13,59 L 14,59 L 17,62 L 17,63 L 20,66 L 20,68 L 21,69 L 21,72 L 22,73 L 22,77 L 27,82 L 28,82 L 32,86 L 32,87 L 37,87 L 38,88 L 39,87 L 43,87 L 44,86 L 45,86 L 46,85 L 46,81 L 45,80 L 45,78 L 44,77 L 44,71 L 45,70 L 45,69 L 46,68 L 46,67 L 47,66 L 47,63 L 46,62 L 46,59 L 45,58 L 45,56 L 44,55 L 44,54 L 42,52 L 42,51 L 41,50 L 39,50 L 38,49 L 38,48 L 37,47 L 35,47 L 33,45 L 33,44 L 29,44 L 25,40 L 24,40 L 23,39 L 20,39 L 19,38 L 18,38 L 17,37 Z" fill="none" stroke="black" stroke-width="1"/>
</svg>