<svg xmlns="http://www.w3.org/2000/svg" width="62" height="80">
  <path d="M 27,53 L 26,54 L 25,54 L 24,55 L 19,55 L 18,54 L 14,54 L 11,57 L 7,57 L 6,58 L 2,58 L 1,59 L 0,59 L 0,64 L 1,64 L 2,65 L 2,70 L 4,72 L 4,73 L 9,78 L 10,78 L 11,79 L 16,79 L 18,77 L 19,77 L 22,74 L 27,74 L 28,75 L 29,75 L 30,76 L 31,76 L 33,78 L 36,78 L 37,77 L 40,77 L 41,76 L 43,76 L 44,75 L 46,75 L 47,74 L 47,71 L 46,71 L 45,70 L 45,69 L 44,69 L 43,68 L 43,67 L 37,61 L 37,59 L 36,59 L 35,58 L 33,58 L 28,53 Z" fill="none" stroke="black" stroke-width="1"/>
</svg>