<svg xmlns="http://www.w3.org/2000/svg" width="114" height="78">
  <path d="M 28,22 L 27,23 L 27,25 L 26,26 L 25,26 L 24,27 L 23,27 L 20,30 L 20,31 L 19,32 L 18,32 L 17,33 L 17,34 L 15,36 L 15,37 L 13,39 L 13,40 L 12,41 L 12,42 L 11,43 L 11,44 L 10,45 L 8,45 L 8,48 L 10,50 L 10,56 L 9,57 L 9,58 L 7,60 L 7,61 L 6,62 L 7,63 L 7,64 L 8,65 L 8,66 L 11,69 L 12,69 L 13,70 L 14,70 L 15,71 L 21,71 L 22,72 L 23,72 L 24,73 L 25,73 L 28,76 L 28,77 L 36,77 L 37,76 L 38,76 L 38,75 L 40,73 L 44,73 L 44,68 L 43,67 L 43,66 L 42,65 L 42,63 L 45,60 L 45,53 L 42,50 L 42,49 L 41,48 L 41,47 L 40,46 L 40,42 L 39,41 L 39,39 L 42,36 L 40,34 L 39,34 L 37,32 L 37,30 L 36,29 L 36,28 L 32,24 L 31,24 L 30,23 L 29,23 Z" fill="none" stroke="black" stroke-width="1"/>
</svg>