<svg xmlns="http://www.w3.org/2000/svg" width="114" height="78">
  <path d="M 31,0 L 30,1 L 27,1 L 26,2 L 23,2 L 23,6 L 24,7 L 24,8 L 26,10 L 26,11 L 27,11 L 28,12 L 28,21 L 29,22 L 30,22 L 31,23 L 32,23 L 37,28 L 37,29 L 38,30 L 38,32 L 39,33 L 40,33 L 44,37 L 46,37 L 47,38 L 58,38 L 59,39 L 61,39 L 62,40 L 62,38 L 63,37 L 64,37 L 66,35 L 67,35 L 71,31 L 72,31 L 73,30 L 74,30 L 75,29 L 79,29 L 78,28 L 78,22 L 79,21 L 79,19 L 80,18 L 80,17 L 81,16 L 81,15 L 83,13 L 83,12 L 85,10 L 66,10 L 65,9 L 59,9 L 58,8 L 57,8 L 56,7 L 55,7 L 53,5 L 52,5 L 51,4 L 50,4 L 49,3 L 48,3 L 47,2 L 45,2 L 44,1 L 43,1 L 42,0 Z" fill="none" stroke="black" stroke-width="1"/>
</svg>