<svg xmlns="http://www.w3.org/2000/svg" width="102" height="109">
  <path d="M 14,0 L 12,2 L 12,4 L 13,5 L 13,9 L 14,10 L 14,11 L 15,12 L 15,13 L 18,16 L 18,23 L 15,26 L 15,28 L 16,29 L 16,30 L 17,31 L 17,36 L 18,37 L 19,37 L 20,38 L 23,38 L 24,39 L 25,39 L 29,43 L 33,43 L 34,44 L 34,45 L 35,46 L 37,46 L 39,48 L 39,49 L 41,49 L 42,48 L 44,48 L 48,44 L 48,43 L 49,42 L 50,42 L 51,41 L 52,41 L 53,40 L 53,38 L 54,37 L 55,37 L 56,36 L 56,35 L 57,34 L 57,32 L 55,32 L 54,31 L 53,31 L 52,30 L 51,30 L 50,29 L 48,29 L 47,28 L 46,28 L 44,26 L 44,25 L 40,21 L 40,20 L 39,19 L 39,18 L 37,16 L 37,12 L 38,11 L 38,8 L 37,8 L 36,7 L 36,6 L 35,6 L 34,5 L 34,4 L 33,3 L 31,3 L 30,2 L 19,2 L 18,1 L 16,1 L 15,0 Z" fill="none" stroke="black" stroke-width="1"/>
</svg>