<svg xmlns="http://www.w3.org/2000/svg" width="114" height="78">
  <path d="M 80,29 L 79,30 L 75,30 L 74,31 L 73,31 L 72,32 L 71,32 L 67,36 L 66,36 L 64,38 L 63,38 L 63,42 L 64,42 L 65,43 L 65,44 L 66,44 L 67,45 L 67,48 L 66,49 L 66,53 L 68,55 L 68,56 L 69,57 L 69,58 L 73,62 L 73,63 L 74,64 L 75,64 L 76,65 L 78,65 L 79,66 L 80,66 L 81,67 L 82,67 L 83,68 L 86,68 L 87,67 L 101,67 L 102,66 L 103,66 L 104,65 L 105,65 L 108,62 L 108,59 L 109,58 L 109,53 L 110,52 L 111,52 L 112,51 L 112,50 L 113,49 L 113,43 L 110,40 L 109,40 L 107,38 L 106,38 L 105,37 L 101,37 L 100,36 L 99,36 L 97,34 L 94,34 L 93,33 L 87,33 L 86,32 L 82,32 L 80,30 Z" fill="none" stroke="black" stroke-width="1"/>
</svg>