<svg xmlns="http://www.w3.org/2000/svg" width="82" height="96">
  <path d="M 26,0 L 25,1 L 23,1 L 22,2 L 21,2 L 20,3 L 11,3 L 10,2 L 6,2 L 5,3 L 5,4 L 3,6 L 3,7 L 2,8 L 2,9 L 1,10 L 1,12 L 0,13 L 0,19 L 1,19 L 2,20 L 2,21 L 3,22 L 7,22 L 8,23 L 14,23 L 15,24 L 18,24 L 20,26 L 21,26 L 22,27 L 26,27 L 27,28 L 28,28 L 30,30 L 35,30 L 37,28 L 37,26 L 38,25 L 38,24 L 40,22 L 41,22 L 42,21 L 43,21 L 44,20 L 45,20 L 46,19 L 49,19 L 54,14 L 55,14 L 55,13 L 54,12 L 54,10 L 50,10 L 49,9 L 49,7 L 47,7 L 46,6 L 45,6 L 43,4 L 42,4 L 41,3 L 39,3 L 38,2 L 36,2 L 34,0 Z" fill="none" stroke="black" stroke-width="1"/>
</svg>