<svg xmlns="http://www.w3.org/2000/svg" width="82" height="96">
  <path d="M 56,13 L 56,14 L 55,15 L 54,15 L 49,20 L 46,20 L 45,21 L 44,21 L 43,22 L 42,22 L 41,23 L 40,23 L 39,24 L 39,25 L 38,26 L 38,28 L 35,31 L 32,31 L 35,34 L 35,36 L 39,36 L 40,37 L 48,37 L 49,38 L 51,38 L 52,39 L 53,39 L 54,40 L 55,40 L 56,41 L 57,41 L 58,42 L 58,43 L 61,43 L 62,42 L 68,42 L 69,41 L 71,41 L 72,40 L 80,40 L 81,39 L 80,38 L 80,35 L 77,35 L 76,34 L 74,34 L 72,32 L 72,30 L 66,24 L 66,23 L 65,22 L 65,18 L 66,17 L 66,16 L 65,15 L 65,14 L 58,14 L 57,13 Z" fill="none" stroke="black" stroke-width="1"/>
</svg>