<svg xmlns="http://www.w3.org/2000/svg" width="94" height="66">
  <path d="M 49,26 L 48,27 L 46,27 L 45,28 L 44,28 L 43,29 L 41,29 L 41,30 L 40,31 L 40,32 L 39,33 L 39,34 L 37,36 L 37,38 L 40,38 L 41,39 L 42,39 L 43,40 L 43,44 L 45,44 L 46,45 L 46,47 L 47,48 L 49,48 L 50,49 L 49,50 L 49,52 L 50,52 L 51,53 L 51,55 L 55,55 L 56,56 L 57,56 L 58,55 L 58,54 L 59,53 L 60,53 L 61,52 L 61,51 L 64,48 L 65,49 L 69,49 L 66,46 L 66,45 L 65,44 L 65,40 L 63,38 L 63,33 L 62,32 L 61,32 L 60,31 L 59,31 L 58,30 L 58,28 L 57,27 L 55,27 L 54,28 L 53,27 L 52,27 L 51,26 Z" fill="none" stroke="black" stroke-width="1"/>
</svg>