<svg xmlns="http://www.w3.org/2000/svg" width="102" height="109">
  <path d="M 81,22 L 81,25 L 77,29 L 76,29 L 75,30 L 74,30 L 73,31 L 59,31 L 58,32 L 58,34 L 57,35 L 57,36 L 55,38 L 54,38 L 54,40 L 52,42 L 51,42 L 50,43 L 49,43 L 49,44 L 44,49 L 42,49 L 42,50 L 43,51 L 43,52 L 45,54 L 45,55 L 46,56 L 46,58 L 47,59 L 47,62 L 48,63 L 48,66 L 47,67 L 47,68 L 48,68 L 49,67 L 50,67 L 53,64 L 54,64 L 58,60 L 59,60 L 64,55 L 75,55 L 76,54 L 79,54 L 80,53 L 83,53 L 84,52 L 87,52 L 87,50 L 85,48 L 85,47 L 84,46 L 84,40 L 89,35 L 89,31 L 88,30 L 88,29 L 87,28 L 87,26 L 85,24 L 84,24 L 83,23 L 83,22 Z" fill="none" stroke="black" stroke-width="1"/>
</svg>