<svg xmlns="http://www.w3.org/2000/svg" width="102" height="109">
  <path d="M 84,53 L 83,54 L 80,54 L 79,55 L 76,55 L 75,56 L 64,56 L 59,61 L 58,61 L 54,65 L 53,65 L 50,68 L 49,68 L 48,69 L 46,69 L 46,70 L 45,71 L 45,77 L 46,78 L 46,80 L 47,81 L 47,85 L 49,87 L 58,87 L 59,88 L 65,88 L 66,87 L 70,87 L 74,83 L 74,82 L 75,81 L 75,80 L 77,78 L 78,78 L 79,77 L 80,77 L 81,76 L 86,76 L 87,75 L 91,75 L 93,73 L 97,73 L 100,70 L 100,69 L 101,68 L 100,68 L 99,67 L 99,66 L 96,63 L 96,62 L 94,60 L 94,59 L 93,58 L 93,57 L 92,56 L 91,56 L 90,55 L 89,55 L 88,54 L 88,53 Z" fill="none" stroke="black" stroke-width="1"/>
</svg>