<svg xmlns="http://www.w3.org/2000/svg" width="102" height="109">
  <path d="M 93,74 L 91,76 L 87,76 L 86,77 L 81,77 L 80,78 L 79,78 L 78,79 L 77,79 L 76,80 L 76,81 L 75,82 L 75,83 L 70,88 L 66,88 L 65,89 L 59,89 L 58,88 L 49,88 L 47,86 L 46,86 L 45,87 L 44,87 L 43,88 L 39,88 L 38,89 L 38,97 L 37,98 L 37,100 L 35,102 L 42,102 L 43,103 L 44,103 L 46,105 L 47,105 L 48,106 L 49,106 L 50,107 L 52,107 L 53,108 L 58,108 L 59,107 L 62,107 L 63,106 L 64,106 L 65,105 L 66,105 L 67,104 L 73,104 L 74,105 L 80,105 L 81,106 L 84,106 L 85,105 L 85,104 L 86,103 L 86,101 L 89,98 L 90,98 L 96,92 L 96,86 L 95,85 L 95,83 L 94,82 L 95,81 L 95,78 L 96,77 L 96,74 Z" fill="none" stroke="black" stroke-width="1"/>
</svg>