<svg xmlns="http://www.w3.org/2000/svg" width="104" height="72">
  <path d="M 3,35 L 3,37 L 2,38 L 2,39 L 0,41 L 0,44 L 1,45 L 1,46 L 3,48 L 4,48 L 5,49 L 7,49 L 9,51 L 10,51 L 13,54 L 14,54 L 20,60 L 22,60 L 24,58 L 29,58 L 31,60 L 31,61 L 33,63 L 35,63 L 36,64 L 37,64 L 38,65 L 44,65 L 45,66 L 48,66 L 49,67 L 50,67 L 51,68 L 52,68 L 53,69 L 56,69 L 56,66 L 55,65 L 54,65 L 50,61 L 50,57 L 49,56 L 49,54 L 48,53 L 48,52 L 47,51 L 47,50 L 48,49 L 48,48 L 49,47 L 49,42 L 50,41 L 51,41 L 51,39 L 49,39 L 48,38 L 42,38 L 41,37 L 35,37 L 34,38 L 33,38 L 32,39 L 31,39 L 30,40 L 27,40 L 26,41 L 21,41 L 20,40 L 18,40 L 17,39 L 16,39 L 15,38 L 14,38 L 12,36 L 11,36 L 10,35 Z" fill="none" stroke="black" stroke-width="1"/>
</svg>