<svg xmlns="http://www.w3.org/2000/svg" width="104" height="72">
  <path d="M 64,25 L 58,31 L 57,31 L 55,33 L 55,35 L 54,36 L 54,37 L 52,39 L 52,41 L 51,42 L 50,42 L 50,47 L 49,48 L 49,49 L 48,50 L 48,51 L 49,52 L 49,53 L 50,54 L 50,56 L 51,57 L 51,61 L 54,64 L 55,64 L 57,66 L 57,70 L 58,71 L 66,71 L 67,70 L 68,70 L 69,69 L 70,69 L 70,68 L 72,66 L 73,66 L 74,65 L 81,65 L 82,64 L 83,64 L 85,62 L 86,62 L 87,61 L 88,61 L 93,56 L 93,53 L 92,52 L 91,52 L 90,51 L 89,51 L 88,50 L 86,50 L 85,49 L 81,49 L 80,48 L 79,48 L 78,47 L 77,47 L 76,46 L 75,46 L 72,43 L 72,36 L 71,35 L 70,35 L 69,34 L 69,30 L 68,29 L 68,28 L 67,28 L 66,27 L 65,27 L 64,26 Z" fill="none" stroke="black" stroke-width="1"/>
</svg>