<svg xmlns="http://www.w3.org/2000/svg" width="82" height="96">
  <path d="M 35,37 L 35,40 L 34,41 L 34,42 L 32,44 L 31,44 L 31,49 L 32,49 L 33,50 L 33,51 L 34,51 L 37,54 L 37,56 L 38,57 L 38,58 L 39,59 L 39,63 L 34,68 L 34,74 L 35,75 L 35,76 L 37,78 L 37,80 L 38,81 L 38,82 L 39,82 L 40,83 L 41,83 L 43,85 L 43,86 L 44,87 L 44,88 L 46,90 L 46,91 L 49,94 L 49,95 L 58,95 L 58,94 L 60,92 L 60,91 L 61,90 L 61,88 L 62,87 L 62,80 L 63,79 L 65,79 L 65,72 L 64,71 L 64,64 L 62,62 L 62,60 L 61,59 L 61,58 L 59,56 L 59,47 L 58,46 L 58,44 L 57,43 L 57,42 L 56,42 L 55,41 L 54,41 L 53,40 L 52,40 L 51,39 L 49,39 L 48,38 L 40,38 L 39,37 Z" fill="none" stroke="black" stroke-width="1"/>
</svg>