<svg xmlns="http://www.w3.org/2000/svg" width="120" height="100">
  <path d="M 38,28 L 37,29 L 37,30 L 33,34 L 32,34 L 31,35 L 30,35 L 29,36 L 26,36 L 25,35 L 24,35 L 23,34 L 18,34 L 17,33 L 16,33 L 15,32 L 14,32 L 13,31 L 11,31 L 10,30 L 8,30 L 8,34 L 7,35 L 5,35 L 5,42 L 4,43 L 4,45 L 3,46 L 3,47 L 1,49 L 1,50 L 0,51 L 0,54 L 1,55 L 1,56 L 4,59 L 5,59 L 6,60 L 7,60 L 9,62 L 10,62 L 12,64 L 16,64 L 17,63 L 18,63 L 20,61 L 24,61 L 27,58 L 28,58 L 32,54 L 33,54 L 33,53 L 34,52 L 37,52 L 41,48 L 42,48 L 43,47 L 45,47 L 45,45 L 46,44 L 50,44 L 50,43 L 51,42 L 51,40 L 49,38 L 49,33 L 48,32 L 48,31 L 47,30 L 47,29 L 46,28 Z" fill="none" stroke="black" stroke-width="1"/>
</svg>