<svg xmlns="http://www.w3.org/2000/svg" width="78" height="94">
  <path d="M 54,41 L 54,42 L 53,43 L 52,43 L 52,45 L 51,46 L 50,46 L 47,49 L 43,49 L 42,50 L 37,50 L 37,52 L 38,53 L 38,54 L 40,56 L 40,57 L 41,58 L 41,59 L 42,60 L 42,69 L 41,70 L 41,72 L 40,73 L 40,76 L 38,78 L 38,81 L 45,81 L 47,83 L 47,84 L 48,85 L 48,86 L 49,87 L 49,92 L 50,93 L 55,93 L 56,92 L 57,92 L 58,91 L 58,90 L 60,88 L 60,86 L 61,85 L 61,83 L 62,82 L 62,79 L 63,78 L 63,77 L 64,76 L 64,75 L 65,74 L 65,72 L 66,71 L 66,69 L 67,68 L 67,66 L 68,65 L 68,64 L 69,63 L 69,58 L 71,56 L 71,54 L 72,53 L 73,53 L 73,51 L 77,47 L 76,46 L 74,46 L 73,47 L 68,47 L 67,46 L 66,46 L 62,42 L 61,42 L 60,41 Z" fill="none" stroke="black" stroke-width="1"/>
</svg>