<svg xmlns="http://www.w3.org/2000/svg" width="120" height="100">
  <path d="M 67,19 L 67,20 L 66,21 L 66,22 L 65,23 L 65,24 L 64,25 L 64,28 L 63,29 L 63,31 L 62,32 L 62,34 L 60,36 L 60,37 L 58,39 L 57,39 L 56,40 L 52,40 L 52,42 L 51,43 L 51,44 L 50,45 L 46,45 L 46,49 L 45,50 L 45,58 L 47,58 L 48,59 L 48,60 L 49,61 L 49,62 L 50,63 L 50,64 L 52,66 L 52,67 L 53,68 L 53,69 L 55,71 L 55,72 L 56,73 L 58,73 L 59,74 L 60,74 L 61,75 L 65,75 L 66,74 L 67,74 L 68,73 L 70,73 L 71,72 L 71,71 L 73,69 L 74,69 L 75,68 L 76,68 L 80,64 L 80,61 L 82,59 L 82,58 L 80,56 L 80,55 L 79,54 L 79,48 L 80,47 L 80,46 L 81,45 L 81,40 L 80,39 L 80,38 L 79,37 L 78,37 L 77,36 L 78,35 L 78,31 L 77,30 L 77,29 L 76,28 L 76,26 L 72,22 L 72,21 L 70,19 Z" fill="none" stroke="black" stroke-width="1"/>
</svg>