<svg xmlns="http://www.w3.org/2000/svg" width="91" height="62">
  <path d="M 78,2 L 77,3 L 76,3 L 76,6 L 75,7 L 72,7 L 72,8 L 71,9 L 68,9 L 69,10 L 69,11 L 68,12 L 67,12 L 66,13 L 66,14 L 67,15 L 67,17 L 66,18 L 66,19 L 67,20 L 67,22 L 69,24 L 70,24 L 74,28 L 74,29 L 73,30 L 73,31 L 72,32 L 72,33 L 73,34 L 74,34 L 75,33 L 77,33 L 78,34 L 79,34 L 81,36 L 82,36 L 84,34 L 85,34 L 85,33 L 84,32 L 84,30 L 85,29 L 86,29 L 87,28 L 87,26 L 86,25 L 86,20 L 87,19 L 88,19 L 88,17 L 89,16 L 90,16 L 90,15 L 89,15 L 88,14 L 88,13 L 85,10 L 84,10 L 83,9 L 83,7 L 81,5 L 81,3 L 80,2 Z" fill="none" stroke="black" stroke-width="1"/>
</svg>