<svg xmlns="http://www.w3.org/2000/svg" width="120" height="100">
  <path d="M 43,48 L 42,49 L 41,49 L 37,53 L 34,53 L 34,54 L 33,55 L 32,55 L 28,59 L 27,59 L 24,62 L 20,62 L 18,64 L 17,64 L 16,65 L 13,65 L 13,68 L 11,70 L 10,70 L 10,71 L 14,75 L 14,78 L 13,79 L 13,80 L 19,86 L 20,86 L 22,88 L 23,88 L 24,89 L 26,89 L 27,90 L 28,89 L 30,89 L 31,90 L 32,89 L 38,89 L 38,85 L 40,83 L 41,83 L 43,81 L 44,82 L 46,82 L 47,83 L 51,83 L 53,81 L 58,81 L 59,80 L 59,79 L 60,78 L 62,78 L 64,76 L 65,76 L 61,76 L 60,75 L 59,75 L 58,74 L 56,74 L 54,72 L 54,71 L 52,69 L 52,68 L 51,67 L 51,66 L 49,64 L 49,63 L 48,62 L 48,61 L 47,60 L 47,59 L 45,59 L 44,58 L 44,50 L 45,49 L 45,48 Z" fill="none" stroke="black" stroke-width="1"/>
</svg>