<svg xmlns="http://www.w3.org/2000/svg" width="120" height="100">
  <path d="M 108,48 L 106,50 L 104,50 L 104,53 L 102,55 L 100,55 L 99,56 L 98,56 L 95,59 L 94,59 L 93,60 L 90,60 L 89,59 L 87,59 L 86,58 L 86,57 L 85,58 L 83,58 L 83,59 L 81,61 L 81,64 L 76,69 L 75,69 L 74,70 L 73,70 L 72,71 L 72,72 L 70,74 L 68,74 L 67,75 L 66,75 L 66,76 L 65,77 L 64,77 L 62,79 L 60,79 L 60,81 L 61,82 L 61,87 L 62,88 L 62,90 L 65,93 L 65,94 L 69,98 L 70,98 L 71,99 L 74,99 L 75,98 L 77,98 L 79,96 L 83,96 L 84,95 L 84,94 L 86,92 L 88,92 L 91,89 L 92,89 L 93,88 L 94,88 L 95,87 L 96,87 L 97,86 L 97,85 L 98,84 L 98,82 L 100,80 L 102,80 L 102,79 L 103,78 L 105,78 L 105,74 L 106,73 L 109,73 L 109,72 L 111,70 L 114,70 L 114,69 L 115,68 L 117,68 L 117,67 L 118,66 L 118,64 L 119,63 L 119,62 L 118,61 L 118,60 L 117,59 L 117,57 L 116,57 L 114,55 L 114,53 L 110,49 L 110,48 Z" fill="none" stroke="black" stroke-width="1"/>
</svg>