<svg xmlns="http://www.w3.org/2000/svg" width="120" height="100">
  <path d="M 73,0 L 73,2 L 71,4 L 71,9 L 70,10 L 70,11 L 69,12 L 69,14 L 68,15 L 68,17 L 67,18 L 70,18 L 73,21 L 73,22 L 77,26 L 77,28 L 78,29 L 78,30 L 79,31 L 79,35 L 78,36 L 79,36 L 81,38 L 81,39 L 82,40 L 82,45 L 81,46 L 81,47 L 80,48 L 80,54 L 81,55 L 81,56 L 82,57 L 85,57 L 86,56 L 87,57 L 87,58 L 89,58 L 90,59 L 93,59 L 94,58 L 95,58 L 98,55 L 99,55 L 100,54 L 102,54 L 103,53 L 103,50 L 104,49 L 106,49 L 108,47 L 109,47 L 109,45 L 108,44 L 107,44 L 106,43 L 106,42 L 105,42 L 104,43 L 103,43 L 99,39 L 95,39 L 94,38 L 94,36 L 95,35 L 95,34 L 96,33 L 96,32 L 91,27 L 91,26 L 90,25 L 90,21 L 89,20 L 89,18 L 87,16 L 85,16 L 81,12 L 81,11 L 79,9 L 79,7 L 77,5 L 77,3 L 75,1 L 75,0 Z" fill="none" stroke="black" stroke-width="1"/>
</svg>