<svg xmlns="http://www.w3.org/2000/svg" width="97" height="95">
  <path d="M 65,0 L 64,1 L 59,1 L 57,3 L 53,3 L 52,2 L 50,2 L 49,1 L 47,3 L 46,3 L 45,4 L 45,9 L 46,10 L 46,14 L 45,15 L 45,16 L 49,20 L 49,22 L 50,23 L 50,27 L 49,28 L 49,29 L 48,30 L 48,32 L 49,33 L 49,35 L 50,36 L 50,37 L 51,38 L 51,39 L 52,40 L 52,42 L 53,43 L 53,44 L 54,45 L 54,47 L 55,46 L 56,46 L 57,45 L 62,45 L 64,47 L 64,49 L 65,49 L 66,50 L 67,50 L 67,48 L 68,47 L 68,43 L 69,42 L 69,41 L 70,40 L 71,40 L 74,37 L 76,37 L 78,35 L 80,35 L 81,34 L 83,34 L 84,33 L 85,33 L 89,29 L 92,29 L 93,30 L 94,29 L 95,29 L 95,27 L 96,26 L 96,25 L 95,24 L 95,21 L 94,20 L 94,19 L 93,19 L 92,18 L 92,17 L 91,17 L 90,16 L 90,15 L 89,16 L 85,16 L 83,18 L 81,18 L 80,19 L 77,19 L 76,18 L 75,18 L 70,13 L 70,12 L 67,9 L 67,7 L 66,6 L 66,1 Z" fill="none" stroke="black" stroke-width="1"/>
</svg>