<svg xmlns="http://www.w3.org/2000/svg" width="78" height="94">
  <path d="M 26,15 L 25,16 L 24,16 L 23,17 L 22,17 L 21,18 L 20,18 L 19,19 L 18,19 L 17,20 L 16,20 L 15,21 L 13,21 L 12,22 L 10,22 L 8,24 L 8,26 L 7,27 L 7,31 L 8,32 L 8,33 L 14,39 L 14,41 L 15,42 L 17,42 L 18,43 L 21,43 L 22,44 L 22,47 L 24,49 L 26,49 L 27,50 L 33,50 L 34,49 L 42,49 L 43,48 L 47,48 L 50,45 L 51,45 L 51,43 L 52,42 L 53,42 L 53,36 L 51,34 L 51,26 L 50,25 L 49,25 L 46,22 L 45,22 L 44,21 L 43,21 L 42,20 L 41,20 L 40,19 L 39,19 L 38,18 L 36,18 L 35,17 L 34,17 L 33,16 L 32,16 L 31,15 Z" fill="none" stroke="black" stroke-width="1"/>
</svg>