<svg xmlns="http://www.w3.org/2000/svg" width="97" height="95">
  <path d="M 57,46 L 56,47 L 55,47 L 54,48 L 54,49 L 52,51 L 41,51 L 40,52 L 35,52 L 35,53 L 33,55 L 32,55 L 29,58 L 27,58 L 27,61 L 29,63 L 29,66 L 30,67 L 30,75 L 32,77 L 33,77 L 34,78 L 36,78 L 38,80 L 39,80 L 40,81 L 40,82 L 41,83 L 43,83 L 44,84 L 44,86 L 47,89 L 47,90 L 51,94 L 52,94 L 53,93 L 54,93 L 55,92 L 55,90 L 56,89 L 57,89 L 58,88 L 59,88 L 59,87 L 61,85 L 63,85 L 64,84 L 64,83 L 66,81 L 66,78 L 68,76 L 68,75 L 69,74 L 72,74 L 72,73 L 73,72 L 73,71 L 75,69 L 75,68 L 77,66 L 77,64 L 78,63 L 75,60 L 75,59 L 73,57 L 73,56 L 71,54 L 70,54 L 67,51 L 66,51 L 65,50 L 64,50 L 63,49 L 63,47 L 62,46 Z" fill="none" stroke="black" stroke-width="1"/>
</svg>