<svg xmlns="http://www.w3.org/2000/svg" width="104" height="72">
  <path d="M 70,0 L 69,1 L 69,2 L 65,6 L 65,9 L 64,10 L 64,13 L 63,14 L 64,15 L 64,17 L 65,18 L 65,26 L 66,26 L 67,27 L 68,27 L 69,28 L 69,29 L 70,30 L 70,34 L 71,34 L 73,36 L 73,43 L 75,45 L 76,45 L 77,46 L 78,46 L 79,47 L 80,47 L 81,48 L 85,48 L 86,49 L 88,49 L 89,50 L 90,50 L 91,51 L 92,51 L 94,53 L 96,53 L 97,52 L 98,52 L 101,49 L 101,48 L 102,47 L 102,44 L 103,43 L 103,39 L 101,39 L 100,38 L 99,38 L 97,36 L 96,36 L 89,29 L 89,28 L 90,27 L 90,24 L 86,20 L 86,19 L 87,18 L 88,18 L 89,17 L 89,14 L 87,12 L 86,12 L 84,10 L 83,10 L 82,9 L 81,9 L 77,5 L 77,4 L 76,3 L 76,0 Z" fill="none" stroke="black" stroke-width="1"/>
</svg>