<svg xmlns="http://www.w3.org/2000/svg" width="97" height="95">
  <path d="M 34,9 L 33,10 L 33,13 L 32,14 L 32,17 L 31,18 L 31,19 L 27,23 L 26,23 L 25,24 L 23,24 L 23,26 L 17,32 L 16,32 L 15,33 L 14,33 L 12,35 L 11,35 L 10,36 L 3,36 L 2,37 L 1,37 L 0,38 L 0,41 L 4,45 L 8,45 L 9,46 L 10,46 L 11,47 L 12,47 L 13,48 L 16,48 L 17,49 L 18,49 L 21,52 L 21,53 L 22,54 L 22,55 L 24,55 L 25,56 L 25,57 L 29,57 L 32,54 L 33,54 L 34,53 L 34,52 L 35,51 L 40,51 L 41,50 L 52,50 L 53,49 L 53,45 L 52,44 L 52,43 L 51,42 L 51,40 L 50,39 L 50,38 L 49,37 L 49,36 L 48,35 L 48,33 L 47,32 L 47,30 L 48,29 L 48,28 L 49,27 L 49,23 L 48,22 L 48,20 L 44,16 L 44,15 L 45,14 L 45,10 L 44,9 L 38,9 L 37,10 L 36,9 Z" fill="none" stroke="black" stroke-width="1"/>
</svg>