<svg xmlns="http://www.w3.org/2000/svg" width="78" height="94">
  <path d="M 49,0 L 48,1 L 48,2 L 47,3 L 47,5 L 46,6 L 46,7 L 42,11 L 41,11 L 39,13 L 38,13 L 36,15 L 36,17 L 38,17 L 39,18 L 40,18 L 41,19 L 42,19 L 43,20 L 44,20 L 45,21 L 46,21 L 49,24 L 50,24 L 52,26 L 52,34 L 54,36 L 54,40 L 60,40 L 61,41 L 62,41 L 66,45 L 67,45 L 68,46 L 73,46 L 74,45 L 76,45 L 75,44 L 75,43 L 73,41 L 73,39 L 72,38 L 72,29 L 73,28 L 73,26 L 74,25 L 74,22 L 74,24 L 72,26 L 71,25 L 71,23 L 72,22 L 72,17 L 64,17 L 63,16 L 61,16 L 60,15 L 60,14 L 58,12 L 55,12 L 53,10 L 53,7 L 54,6 L 54,3 L 53,3 L 50,0 Z" fill="none" stroke="black" stroke-width="1"/>
</svg>