<svg xmlns="http://www.w3.org/2000/svg" width="61" height="91">
  <path d="M 45,15 L 45,16 L 44,17 L 43,16 L 39,16 L 38,17 L 35,17 L 34,18 L 28,18 L 27,17 L 25,17 L 25,18 L 24,19 L 23,18 L 23,17 L 22,16 L 19,16 L 18,17 L 18,18 L 17,19 L 17,20 L 16,21 L 16,22 L 17,23 L 16,24 L 13,24 L 13,25 L 15,27 L 15,28 L 14,29 L 13,29 L 14,30 L 15,30 L 16,31 L 15,32 L 13,32 L 12,33 L 10,33 L 10,34 L 9,35 L 7,33 L 7,38 L 8,39 L 7,40 L 6,40 L 6,43 L 7,44 L 9,44 L 11,42 L 12,43 L 12,44 L 11,45 L 11,47 L 12,48 L 14,48 L 16,46 L 17,46 L 18,45 L 19,45 L 21,43 L 23,43 L 24,44 L 26,44 L 28,42 L 29,42 L 33,38 L 31,38 L 30,37 L 31,36 L 35,36 L 36,35 L 33,35 L 32,34 L 33,33 L 34,33 L 34,31 L 36,29 L 37,29 L 38,28 L 39,28 L 41,26 L 42,26 L 42,25 L 43,24 L 44,24 L 45,23 L 46,23 L 48,21 L 48,20 L 49,19 L 49,15 Z" fill="none" stroke="black" stroke-width="1"/>
</svg>