<svg xmlns="http://www.w3.org/2000/svg" width="75" height="57">
  <path d="M 34,20 L 33,21 L 32,21 L 31,22 L 29,22 L 28,23 L 27,23 L 27,28 L 26,29 L 25,29 L 24,30 L 16,30 L 16,31 L 15,32 L 15,36 L 14,37 L 14,38 L 16,40 L 17,40 L 18,41 L 18,42 L 21,45 L 21,46 L 22,47 L 21,48 L 21,49 L 27,55 L 27,56 L 28,55 L 31,55 L 32,54 L 32,52 L 31,51 L 31,49 L 32,48 L 32,47 L 33,46 L 37,46 L 38,47 L 38,48 L 37,49 L 34,49 L 34,50 L 35,51 L 36,51 L 37,52 L 40,52 L 42,54 L 42,55 L 43,55 L 44,54 L 45,54 L 47,52 L 48,52 L 49,51 L 51,53 L 52,53 L 52,50 L 53,49 L 53,48 L 54,47 L 54,46 L 53,46 L 50,43 L 50,40 L 52,38 L 53,38 L 49,34 L 49,29 L 48,28 L 48,26 L 46,26 L 45,25 L 44,25 L 43,24 L 40,24 L 37,21 L 36,21 L 35,20 Z" fill="none" stroke="black" stroke-width="1"/>
</svg>