<svg xmlns="http://www.w3.org/2000/svg" width="58" height="42">
  <path d="M 17,16 L 16,17 L 16,18 L 17,19 L 17,21 L 16,22 L 16,23 L 15,24 L 14,23 L 14,22 L 13,21 L 13,20 L 12,20 L 13,21 L 13,22 L 14,23 L 14,25 L 15,25 L 16,26 L 17,26 L 22,31 L 22,32 L 25,32 L 26,33 L 27,33 L 27,29 L 26,28 L 26,25 L 28,23 L 31,23 L 31,22 L 30,22 L 28,20 L 28,19 L 27,19 L 25,17 L 21,17 L 20,16 Z" fill="none" stroke="black" stroke-width="1"/>
  <path d="M 9,15 L 10,16 L 12,16 L 11,15 Z" fill="none" stroke="black" stroke-width="1"/>
</svg>