<svg xmlns="http://www.w3.org/2000/svg" width="148" height="135">
  <path d="M 45,0 L 44,1 L 42,1 L 41,2 L 40,2 L 40,3 L 39,4 L 39,5 L 42,8 L 42,9 L 45,12 L 45,13 L 46,14 L 46,15 L 44,17 L 44,21 L 41,24 L 41,25 L 40,26 L 40,27 L 42,29 L 42,30 L 44,32 L 45,32 L 46,33 L 46,34 L 49,37 L 49,41 L 53,41 L 56,44 L 60,44 L 61,45 L 62,45 L 64,47 L 65,47 L 67,49 L 67,53 L 66,54 L 66,58 L 67,57 L 70,57 L 72,55 L 72,53 L 74,51 L 76,51 L 78,49 L 80,49 L 81,48 L 81,47 L 82,46 L 82,45 L 83,44 L 83,43 L 84,42 L 87,42 L 88,43 L 89,43 L 90,44 L 91,44 L 91,43 L 92,42 L 93,42 L 95,40 L 96,40 L 98,38 L 98,37 L 99,36 L 100,36 L 101,35 L 102,35 L 103,36 L 104,36 L 106,38 L 106,39 L 113,39 L 113,36 L 114,35 L 118,35 L 120,33 L 119,32 L 119,31 L 118,30 L 118,29 L 116,27 L 116,25 L 117,24 L 114,24 L 112,22 L 111,22 L 107,18 L 106,18 L 105,17 L 104,17 L 103,16 L 97,16 L 96,15 L 95,15 L 92,12 L 91,12 L 90,11 L 87,11 L 86,12 L 82,12 L 79,9 L 76,9 L 74,7 L 73,7 L 71,5 L 63,5 L 62,6 L 60,6 L 59,7 L 55,7 L 54,6 L 53,6 L 52,5 L 52,4 L 51,4 L 50,3 L 50,2 L 49,1 L 46,1 Z" fill="none" stroke="black" stroke-width="1"/>
</svg>