<svg xmlns="http://www.w3.org/2000/svg" width="148" height="220">
  <path d="M 104,0 L 103,1 L 99,1 L 99,2 L 98,3 L 97,2 L 96,2 L 95,3 L 95,4 L 96,5 L 96,7 L 94,9 L 93,9 L 92,8 L 91,9 L 90,9 L 88,7 L 87,7 L 87,8 L 82,13 L 81,13 L 80,12 L 76,12 L 76,17 L 73,20 L 70,20 L 69,21 L 70,22 L 70,24 L 71,25 L 69,27 L 67,27 L 66,26 L 65,27 L 63,27 L 61,29 L 60,29 L 59,30 L 58,30 L 58,32 L 59,33 L 60,33 L 61,34 L 62,34 L 64,36 L 64,37 L 63,38 L 61,38 L 60,37 L 59,37 L 58,38 L 57,38 L 55,40 L 53,40 L 52,41 L 47,41 L 46,42 L 45,41 L 44,42 L 43,42 L 43,43 L 42,44 L 42,45 L 43,46 L 42,47 L 41,47 L 41,48 L 42,48 L 48,54 L 49,54 L 51,56 L 55,56 L 56,57 L 57,56 L 56,56 L 54,54 L 54,53 L 52,51 L 52,49 L 53,48 L 54,49 L 54,50 L 55,50 L 57,52 L 57,53 L 58,54 L 59,54 L 60,55 L 60,56 L 62,56 L 63,57 L 63,59 L 62,60 L 62,61 L 63,61 L 64,62 L 65,62 L 69,66 L 76,66 L 77,67 L 78,67 L 80,69 L 81,69 L 83,71 L 87,71 L 88,70 L 88,68 L 89,67 L 95,67 L 96,68 L 96,65 L 97,64 L 101,64 L 103,62 L 104,62 L 105,61 L 106,61 L 106,60 L 107,59 L 107,58 L 109,56 L 109,55 L 110,54 L 111,54 L 112,53 L 115,53 L 116,52 L 116,51 L 117,50 L 117,49 L 118,48 L 119,48 L 119,45 L 121,43 L 121,42 L 122,41 L 123,41 L 124,40 L 125,40 L 125,39 L 126,38 L 127,38 L 129,36 L 130,36 L 131,35 L 132,35 L 133,34 L 133,33 L 134,32 L 135,32 L 135,31 L 136,30 L 136,22 L 138,20 L 137,20 L 136,19 L 136,18 L 129,11 L 129,10 L 128,9 L 127,9 L 125,7 L 122,7 L 121,6 L 117,6 L 116,5 L 114,5 L 113,4 L 111,4 L 108,1 L 107,1 L 106,0 Z" fill="none" stroke="black" stroke-width="1"/>
</svg>