<svg xmlns="http://www.w3.org/2000/svg" width="82" height="92">
  <path d="M 59,59 L 59,60 L 58,61 L 58,63 L 57,64 L 54,64 L 53,65 L 52,65 L 50,67 L 50,68 L 49,69 L 46,69 L 45,70 L 44,70 L 44,71 L 42,73 L 42,79 L 41,80 L 42,81 L 42,82 L 43,83 L 43,84 L 45,86 L 45,90 L 47,90 L 49,88 L 50,89 L 52,89 L 53,88 L 59,88 L 60,89 L 60,91 L 63,91 L 63,90 L 64,89 L 64,84 L 65,83 L 66,83 L 66,81 L 67,80 L 68,80 L 68,79 L 71,76 L 81,76 L 81,74 L 79,72 L 79,65 L 78,64 L 78,63 L 77,63 L 75,61 L 69,61 L 68,62 L 63,62 L 61,60 L 60,60 Z" fill="none" stroke="black" stroke-width="1"/>
</svg>