<svg xmlns="http://www.w3.org/2000/svg" width="65" height="63">
  <path d="M 12,17 L 11,18 L 10,18 L 9,19 L 9,20 L 8,21 L 7,21 L 7,22 L 6,23 L 8,25 L 8,27 L 7,28 L 7,38 L 6,39 L 6,41 L 5,42 L 3,42 L 3,43 L 2,44 L 2,45 L 1,46 L 1,48 L 2,48 L 3,49 L 4,49 L 5,50 L 6,50 L 7,51 L 8,51 L 11,54 L 11,58 L 12,59 L 13,59 L 14,60 L 14,62 L 15,62 L 16,61 L 22,61 L 23,60 L 25,60 L 25,59 L 28,56 L 33,56 L 35,54 L 36,54 L 36,52 L 37,51 L 40,51 L 41,50 L 42,50 L 42,49 L 39,46 L 39,44 L 38,44 L 37,43 L 37,42 L 36,41 L 36,35 L 34,33 L 34,32 L 31,29 L 30,29 L 28,27 L 28,26 L 26,24 L 25,24 L 21,20 L 20,20 L 19,19 L 17,19 L 15,17 Z" fill="none" stroke="black" stroke-width="1"/>
</svg>