<svg xmlns="http://www.w3.org/2000/svg" width="95" height="40">
  <path d="M 16,1 L 15,2 L 14,2 L 13,3 L 11,3 L 10,4 L 10,6 L 9,7 L 8,7 L 8,9 L 7,10 L 6,10 L 6,13 L 1,18 L 1,20 L 0,21 L 0,28 L 1,29 L 1,30 L 3,32 L 3,33 L 4,33 L 5,34 L 5,35 L 6,35 L 9,38 L 12,38 L 13,37 L 14,37 L 15,36 L 17,36 L 19,34 L 22,34 L 23,35 L 26,35 L 25,34 L 26,33 L 28,33 L 29,32 L 29,31 L 30,30 L 31,30 L 32,29 L 32,25 L 31,24 L 31,21 L 32,20 L 32,17 L 31,17 L 29,15 L 29,14 L 28,14 L 25,11 L 25,8 L 27,6 L 27,5 L 24,5 L 23,4 L 22,4 L 20,2 L 19,2 L 18,1 Z" fill="none" stroke="black" stroke-width="1"/>
</svg>