<svg xmlns="http://www.w3.org/2000/svg" width="55" height="33">
  <path d="M 32,7 L 31,8 L 28,8 L 27,9 L 25,9 L 24,8 L 23,8 L 21,10 L 19,10 L 18,11 L 12,11 L 10,13 L 10,15 L 11,15 L 11,14 L 12,13 L 13,13 L 14,12 L 15,12 L 16,13 L 16,15 L 15,16 L 16,16 L 17,15 L 18,15 L 19,16 L 19,17 L 20,17 L 20,15 L 21,14 L 26,14 L 27,15 L 30,15 L 31,16 L 31,17 L 33,19 L 33,20 L 34,21 L 32,23 L 32,25 L 33,26 L 33,25 L 32,24 L 33,23 L 35,23 L 36,24 L 35,25 L 36,25 L 37,24 L 38,24 L 40,22 L 43,22 L 44,21 L 44,19 L 45,18 L 50,18 L 51,17 L 50,17 L 49,16 L 49,15 L 48,15 L 47,14 L 42,14 L 41,15 L 38,12 L 38,11 L 37,10 L 36,10 L 35,11 L 32,8 Z" fill="none" stroke="black" stroke-width="1"/>
</svg>