<svg xmlns="http://www.w3.org/2000/svg" width="43" height="42">
  <path d="M 34,0 L 33,1 L 28,1 L 27,2 L 26,2 L 25,3 L 24,3 L 25,3 L 26,4 L 26,5 L 25,6 L 22,6 L 21,5 L 18,5 L 17,6 L 17,7 L 16,8 L 16,9 L 17,9 L 20,12 L 23,12 L 24,13 L 23,14 L 23,16 L 24,17 L 24,20 L 25,20 L 26,21 L 26,24 L 27,24 L 27,23 L 28,22 L 29,22 L 32,25 L 33,25 L 34,24 L 33,23 L 33,19 L 34,18 L 34,17 L 36,15 L 35,14 L 35,13 L 36,12 L 37,12 L 38,13 L 38,14 L 39,13 L 40,13 L 42,11 L 42,10 L 41,9 L 41,8 L 42,7 L 42,5 L 41,4 L 40,4 L 39,5 L 38,5 L 37,4 L 36,4 L 34,2 Z" fill="none" stroke="black" stroke-width="1"/>
</svg>