<svg xmlns="http://www.w3.org/2000/svg" width="68" height="53">
  <path d="M 43,28 L 42,29 L 42,31 L 41,32 L 41,34 L 39,36 L 37,36 L 35,38 L 35,39 L 33,41 L 30,41 L 30,43 L 32,45 L 32,47 L 33,47 L 34,48 L 37,48 L 38,47 L 40,47 L 41,48 L 43,48 L 43,47 L 45,45 L 51,45 L 55,49 L 55,50 L 56,51 L 57,51 L 58,52 L 60,52 L 61,51 L 62,51 L 63,50 L 63,45 L 62,45 L 61,44 L 60,44 L 59,43 L 59,42 L 58,41 L 56,41 L 55,40 L 55,39 L 53,37 L 52,37 L 50,35 L 50,34 L 49,33 L 49,31 L 48,31 L 45,28 Z" fill="none" stroke="black" stroke-width="1"/>
</svg>