<svg xmlns="http://www.w3.org/2000/svg" width="52" height="34">
  <path d="M 34,3 L 33,4 L 33,5 L 35,7 L 35,9 L 36,10 L 36,13 L 37,14 L 38,13 L 39,13 L 40,14 L 39,15 L 39,16 L 38,17 L 38,18 L 37,19 L 36,19 L 35,18 L 35,21 L 36,22 L 36,23 L 40,23 L 41,22 L 43,22 L 45,24 L 45,25 L 45,24 L 46,23 L 49,23 L 49,20 L 47,18 L 47,17 L 48,16 L 49,17 L 50,17 L 51,18 L 51,21 L 51,17 L 50,16 L 50,15 L 49,14 L 48,15 L 47,15 L 46,16 L 45,16 L 44,15 L 46,13 L 47,13 L 48,12 L 47,11 L 46,11 L 44,9 L 44,8 L 42,6 L 42,4 L 41,3 Z" fill="none" stroke="black" stroke-width="1"/>
</svg>