<svg xmlns="http://www.w3.org/2000/svg" width="137" height="141">
  <path d="M 61,78 L 60,79 L 59,79 L 58,80 L 57,80 L 56,81 L 53,81 L 52,82 L 51,82 L 50,83 L 48,83 L 47,84 L 44,84 L 43,85 L 42,84 L 41,84 L 40,83 L 40,82 L 39,81 L 37,81 L 36,82 L 35,82 L 34,83 L 32,83 L 32,88 L 30,90 L 27,90 L 27,93 L 28,94 L 28,101 L 27,102 L 26,102 L 26,104 L 22,108 L 20,108 L 19,109 L 10,109 L 9,110 L 6,110 L 5,111 L 5,112 L 7,114 L 7,116 L 6,117 L 6,124 L 7,125 L 7,126 L 9,128 L 9,129 L 10,130 L 10,131 L 12,133 L 15,133 L 16,132 L 17,132 L 19,134 L 19,140 L 20,139 L 21,140 L 24,140 L 24,139 L 27,136 L 30,136 L 31,135 L 32,135 L 33,134 L 33,133 L 34,132 L 37,132 L 38,133 L 38,135 L 39,135 L 40,136 L 40,137 L 42,137 L 43,138 L 49,138 L 50,137 L 52,137 L 53,136 L 54,136 L 55,135 L 57,135 L 58,134 L 59,134 L 60,133 L 62,133 L 63,132 L 65,132 L 66,131 L 68,131 L 70,129 L 71,129 L 73,131 L 75,131 L 76,130 L 77,130 L 78,129 L 79,129 L 81,127 L 83,127 L 84,128 L 85,128 L 88,125 L 95,125 L 95,121 L 94,121 L 93,120 L 93,117 L 92,116 L 92,115 L 91,115 L 85,109 L 81,109 L 80,108 L 80,107 L 79,107 L 76,104 L 76,103 L 74,101 L 73,101 L 72,100 L 72,99 L 69,96 L 69,95 L 68,94 L 67,94 L 65,92 L 64,92 L 63,91 L 63,89 L 64,88 L 64,85 L 63,84 L 63,81 L 62,80 L 62,78 Z" fill="none" stroke="black" stroke-width="1"/>
</svg>