<svg xmlns="http://www.w3.org/2000/svg" width="130" height="102">
  <path d="M 50,32 L 49,33 L 49,36 L 48,37 L 48,38 L 47,39 L 47,41 L 46,42 L 43,42 L 41,44 L 40,43 L 39,43 L 38,42 L 37,42 L 36,41 L 32,41 L 30,43 L 28,43 L 28,44 L 27,45 L 25,43 L 22,43 L 21,44 L 21,46 L 22,47 L 22,50 L 23,51 L 23,52 L 24,53 L 24,54 L 23,55 L 23,56 L 21,58 L 21,65 L 22,66 L 22,69 L 24,67 L 26,67 L 27,66 L 28,66 L 29,65 L 30,65 L 31,66 L 32,66 L 33,67 L 32,68 L 30,68 L 29,69 L 28,69 L 26,71 L 27,71 L 28,72 L 28,73 L 30,75 L 30,76 L 31,77 L 32,77 L 33,78 L 34,78 L 35,77 L 35,76 L 41,70 L 42,70 L 44,68 L 47,68 L 48,69 L 50,69 L 50,68 L 51,67 L 51,66 L 50,65 L 50,63 L 49,63 L 48,62 L 48,61 L 47,60 L 47,59 L 50,56 L 50,55 L 49,54 L 49,53 L 50,52 L 51,52 L 51,50 L 52,49 L 54,49 L 55,50 L 56,50 L 57,49 L 57,48 L 58,47 L 58,45 L 59,44 L 59,42 L 63,38 L 62,38 L 61,37 L 56,37 L 54,35 L 54,34 L 53,34 L 52,33 L 52,32 Z" fill="none" stroke="black" stroke-width="1"/>
</svg>