<svg xmlns="http://www.w3.org/2000/svg" width="131" height="92">
  <path d="M 0,0 L 0,7 L 1,7 L 2,8 L 2,9 L 3,10 L 3,15 L 4,16 L 4,17 L 8,21 L 8,22 L 7,23 L 7,27 L 9,29 L 10,29 L 12,31 L 12,32 L 14,34 L 16,34 L 17,33 L 20,36 L 21,35 L 21,34 L 22,33 L 23,33 L 26,36 L 26,37 L 24,39 L 22,39 L 21,40 L 22,41 L 21,42 L 20,42 L 19,43 L 21,45 L 22,45 L 23,46 L 23,44 L 25,42 L 29,42 L 30,43 L 31,42 L 32,42 L 33,41 L 33,40 L 34,39 L 34,37 L 33,36 L 33,32 L 32,31 L 32,30 L 30,30 L 29,31 L 28,31 L 27,30 L 29,28 L 29,27 L 28,27 L 25,24 L 23,24 L 22,23 L 22,20 L 25,17 L 27,17 L 29,19 L 27,21 L 27,22 L 28,22 L 30,24 L 30,25 L 31,25 L 33,27 L 35,27 L 38,24 L 38,23 L 39,22 L 44,22 L 45,21 L 46,21 L 43,18 L 43,16 L 42,15 L 40,15 L 39,14 L 38,14 L 36,12 L 35,12 L 34,11 L 33,11 L 32,10 L 31,10 L 29,8 L 28,8 L 26,6 L 25,6 L 24,5 L 24,4 L 23,3 L 20,3 L 19,2 L 19,0 L 13,0 L 12,1 L 4,1 L 3,0 Z" fill="none" stroke="black" stroke-width="1"/>
</svg>