<svg xmlns="http://www.w3.org/2000/svg" width="73" height="65">
  <path d="M 32,23 L 31,24 L 31,27 L 32,28 L 31,29 L 31,30 L 30,31 L 30,32 L 28,34 L 27,34 L 25,36 L 25,37 L 23,39 L 18,39 L 17,40 L 16,40 L 15,41 L 15,45 L 16,45 L 20,49 L 21,49 L 22,48 L 25,48 L 26,49 L 26,51 L 27,52 L 28,52 L 29,51 L 30,51 L 33,54 L 34,53 L 35,53 L 36,52 L 37,52 L 39,50 L 43,50 L 42,49 L 41,49 L 40,48 L 40,47 L 39,46 L 40,45 L 40,43 L 41,42 L 42,42 L 44,40 L 47,40 L 47,38 L 48,37 L 48,35 L 47,34 L 47,33 L 43,29 L 40,29 L 38,27 L 38,25 L 36,23 Z" fill="none" stroke="black" stroke-width="1"/>
</svg>