<svg xmlns="http://www.w3.org/2000/svg" width="72" height="41">
  <path d="M 49,7 L 47,9 L 46,9 L 45,10 L 44,10 L 44,12 L 46,14 L 46,15 L 44,17 L 43,17 L 42,16 L 39,16 L 37,18 L 37,20 L 36,21 L 36,22 L 35,23 L 35,24 L 38,24 L 40,26 L 45,26 L 46,25 L 58,25 L 59,26 L 61,26 L 62,27 L 64,27 L 66,25 L 66,24 L 67,23 L 68,23 L 69,22 L 69,20 L 70,19 L 71,19 L 71,18 L 70,18 L 69,17 L 69,16 L 68,16 L 67,15 L 67,14 L 65,12 L 65,11 L 64,10 L 59,10 L 57,8 L 57,7 Z" fill="none" stroke="black" stroke-width="1"/>
</svg>