<svg xmlns="http://www.w3.org/2000/svg" width="261" height="141">
  <path d="M 117,7 L 116,8 L 114,8 L 113,9 L 107,9 L 106,10 L 102,10 L 100,12 L 99,12 L 98,13 L 97,13 L 96,14 L 91,14 L 90,13 L 88,13 L 87,14 L 84,14 L 83,15 L 81,15 L 80,16 L 80,17 L 79,18 L 79,20 L 78,21 L 78,23 L 75,26 L 74,26 L 73,25 L 72,25 L 72,29 L 74,31 L 74,34 L 73,35 L 74,36 L 73,37 L 73,39 L 74,40 L 74,41 L 75,42 L 75,43 L 76,44 L 76,45 L 77,46 L 77,47 L 79,47 L 80,48 L 81,48 L 82,49 L 83,49 L 85,51 L 85,52 L 86,53 L 86,54 L 87,55 L 87,56 L 88,57 L 87,58 L 87,59 L 83,63 L 83,65 L 82,66 L 82,69 L 83,70 L 83,71 L 87,75 L 87,79 L 86,80 L 86,82 L 87,82 L 88,83 L 89,83 L 91,85 L 91,86 L 92,87 L 105,87 L 106,86 L 110,86 L 111,85 L 116,85 L 117,86 L 118,86 L 119,87 L 120,87 L 121,88 L 122,88 L 123,89 L 132,89 L 133,88 L 137,88 L 137,85 L 135,83 L 135,82 L 137,80 L 137,76 L 134,73 L 134,72 L 133,71 L 133,61 L 131,59 L 129,59 L 128,58 L 128,56 L 126,54 L 126,46 L 129,43 L 129,42 L 130,41 L 130,38 L 131,37 L 131,35 L 132,34 L 132,33 L 134,31 L 134,28 L 135,27 L 135,23 L 134,22 L 134,17 L 133,16 L 132,16 L 131,15 L 131,14 L 129,14 L 123,8 L 120,8 L 119,7 Z" fill="none" stroke="black" stroke-width="1"/>
</svg>