<svg xmlns="http://www.w3.org/2000/svg" width="68" height="53">
  <path d="M 48,0 L 47,1 L 46,1 L 45,2 L 43,2 L 43,4 L 42,5 L 42,6 L 43,6 L 44,7 L 45,7 L 47,9 L 47,14 L 46,15 L 45,15 L 44,16 L 41,16 L 40,17 L 40,18 L 39,19 L 39,23 L 40,23 L 41,24 L 42,24 L 43,25 L 43,26 L 44,27 L 45,27 L 48,30 L 49,30 L 50,31 L 50,32 L 51,32 L 53,30 L 54,30 L 55,29 L 56,29 L 56,28 L 55,27 L 58,24 L 60,24 L 61,25 L 64,25 L 64,24 L 66,22 L 66,20 L 65,19 L 65,18 L 66,17 L 66,15 L 67,14 L 67,11 L 66,11 L 64,9 L 61,9 L 60,8 L 60,6 L 61,5 L 61,4 L 60,3 L 59,3 L 58,2 L 55,2 L 54,1 L 50,1 L 49,0 Z" fill="none" stroke="black" stroke-width="1"/>
</svg>