<svg xmlns="http://www.w3.org/2000/svg" width="44" height="86">
  <path d="M 26,0 L 25,1 L 25,2 L 24,3 L 24,4 L 25,5 L 24,6 L 24,7 L 25,7 L 26,6 L 28,6 L 29,5 L 30,5 L 31,6 L 31,10 L 28,13 L 26,11 L 25,11 L 24,12 L 24,13 L 23,14 L 21,12 L 21,10 L 20,9 L 20,8 L 21,7 L 20,6 L 19,7 L 18,7 L 17,6 L 16,6 L 16,13 L 15,14 L 14,14 L 13,15 L 11,15 L 9,17 L 10,18 L 10,19 L 12,19 L 13,18 L 15,18 L 16,19 L 17,19 L 18,20 L 19,20 L 20,21 L 22,21 L 23,22 L 23,23 L 24,24 L 24,25 L 25,26 L 25,29 L 26,30 L 26,36 L 25,37 L 25,38 L 24,39 L 24,40 L 23,41 L 23,42 L 24,43 L 24,46 L 23,47 L 23,49 L 26,49 L 28,51 L 32,51 L 33,50 L 34,50 L 35,49 L 36,49 L 36,48 L 37,47 L 39,47 L 39,46 L 40,45 L 40,41 L 43,38 L 43,37 L 42,36 L 42,35 L 41,34 L 42,33 L 42,32 L 41,31 L 41,29 L 39,27 L 39,24 L 38,23 L 38,22 L 33,17 L 33,14 L 32,13 L 32,7 L 33,6 L 33,4 L 30,4 L 28,2 L 28,1 L 27,1 Z" fill="none" stroke="black" stroke-width="1"/>
</svg>