<svg xmlns="http://www.w3.org/2000/svg" width="67" height="52">
  <path d="M 6,25 L 6,26 L 4,28 L 3,28 L 3,30 L 4,31 L 4,34 L 7,37 L 7,39 L 11,43 L 12,43 L 14,45 L 16,45 L 17,46 L 17,47 L 18,48 L 18,49 L 20,49 L 21,50 L 21,51 L 23,51 L 24,50 L 25,50 L 26,51 L 28,51 L 29,50 L 29,49 L 30,48 L 32,48 L 31,47 L 31,46 L 30,46 L 28,44 L 27,44 L 26,43 L 26,42 L 23,39 L 23,38 L 22,38 L 21,37 L 21,35 L 22,34 L 21,33 L 20,33 L 19,32 L 19,28 L 18,28 L 17,27 L 17,26 L 16,26 L 15,25 L 13,25 L 11,27 L 8,27 L 7,26 L 7,25 Z" fill="none" stroke="black" stroke-width="1"/>
</svg>