<svg xmlns="http://www.w3.org/2000/svg" width="48" height="54">
  <path d="M 31,24 L 30,25 L 28,25 L 27,26 L 26,26 L 25,27 L 26,27 L 28,29 L 27,30 L 27,32 L 26,33 L 23,33 L 22,34 L 23,35 L 23,36 L 24,36 L 25,37 L 25,39 L 24,40 L 26,40 L 27,41 L 30,41 L 31,42 L 32,42 L 32,39 L 33,38 L 32,37 L 32,35 L 35,32 L 36,32 L 37,33 L 35,35 L 36,35 L 37,36 L 37,35 L 39,33 L 40,34 L 40,35 L 42,33 L 42,32 L 43,31 L 43,29 L 41,27 L 40,27 L 39,28 L 36,28 L 35,27 L 33,27 L 32,26 L 34,24 Z" fill="none" stroke="black" stroke-width="1"/>
</svg>