<svg xmlns="http://www.w3.org/2000/svg" width="78" height="104">
  <path d="M 60,68 L 59,69 L 58,69 L 57,70 L 57,71 L 56,72 L 56,73 L 55,74 L 55,75 L 54,76 L 50,76 L 49,75 L 48,75 L 47,76 L 46,76 L 45,77 L 42,77 L 42,78 L 43,79 L 43,82 L 44,83 L 44,87 L 45,88 L 45,89 L 46,90 L 48,90 L 49,91 L 54,91 L 55,92 L 55,93 L 57,95 L 58,94 L 59,94 L 59,92 L 60,91 L 60,83 L 59,82 L 59,80 L 60,79 L 61,79 L 62,78 L 63,78 L 63,75 L 64,74 L 65,74 L 66,73 L 67,73 L 66,72 L 66,71 L 64,71 L 62,69 L 62,68 Z" fill="none" stroke="black" stroke-width="1"/>
</svg>