<svg xmlns="http://www.w3.org/2000/svg" width="78" height="104">
  <path d="M 14,67 L 13,68 L 13,70 L 12,71 L 12,73 L 10,75 L 9,75 L 8,76 L 5,76 L 4,75 L 3,75 L 2,76 L 0,76 L 0,79 L 1,80 L 1,85 L 0,86 L 0,88 L 1,89 L 1,90 L 4,93 L 4,94 L 5,95 L 5,96 L 6,97 L 6,98 L 9,98 L 11,100 L 14,100 L 17,103 L 18,103 L 19,102 L 20,102 L 23,99 L 23,98 L 26,95 L 27,95 L 28,94 L 26,92 L 28,90 L 31,93 L 31,95 L 32,95 L 32,93 L 33,92 L 31,90 L 31,84 L 30,83 L 29,83 L 28,82 L 28,80 L 27,79 L 27,78 L 26,77 L 26,76 L 24,74 L 23,74 L 22,73 L 22,72 L 21,71 L 21,69 L 19,69 L 18,68 L 15,68 Z" fill="none" stroke="black" stroke-width="1"/>
</svg>