<svg xmlns="http://www.w3.org/2000/svg" width="69" height="130">
  <path d="M 44,101 L 43,102 L 43,105 L 42,106 L 41,106 L 41,107 L 40,108 L 38,108 L 37,107 L 36,107 L 34,105 L 33,105 L 33,106 L 30,109 L 30,111 L 31,112 L 30,113 L 30,114 L 31,115 L 31,118 L 30,119 L 30,120 L 29,121 L 29,122 L 28,123 L 29,123 L 30,124 L 28,126 L 28,127 L 29,127 L 30,126 L 31,126 L 33,128 L 34,128 L 35,129 L 36,128 L 44,128 L 45,127 L 51,127 L 52,126 L 53,126 L 53,125 L 54,124 L 55,124 L 56,123 L 57,123 L 60,120 L 60,119 L 61,118 L 62,118 L 64,116 L 64,115 L 62,113 L 59,113 L 57,111 L 54,111 L 53,110 L 53,109 L 52,108 L 52,107 L 51,106 L 51,105 L 48,102 L 48,101 Z" fill="none" stroke="black" stroke-width="1"/>
</svg>