<svg xmlns="http://www.w3.org/2000/svg" width="63" height="69">
  <path d="M 11,0 L 11,1 L 9,3 L 8,3 L 8,4 L 6,6 L 4,6 L 5,7 L 5,8 L 6,9 L 7,9 L 8,10 L 8,11 L 9,12 L 8,13 L 8,15 L 9,16 L 9,20 L 11,20 L 12,21 L 18,21 L 19,22 L 21,22 L 22,23 L 23,23 L 24,24 L 25,24 L 26,25 L 26,26 L 29,26 L 30,25 L 34,25 L 35,24 L 35,22 L 34,21 L 34,19 L 37,16 L 37,15 L 36,14 L 36,11 L 33,11 L 32,12 L 31,12 L 30,11 L 30,10 L 28,8 L 27,8 L 25,6 L 19,6 L 17,4 L 17,3 L 15,1 L 13,1 L 12,0 Z" fill="none" stroke="black" stroke-width="1"/>
</svg>