<svg xmlns="http://www.w3.org/2000/svg" width="59" height="95">
  <path d="M 27,33 L 27,35 L 26,36 L 26,40 L 28,42 L 28,43 L 29,44 L 29,45 L 30,46 L 30,47 L 31,48 L 31,50 L 33,52 L 33,53 L 35,55 L 35,58 L 36,59 L 36,60 L 37,61 L 37,62 L 38,62 L 39,63 L 39,64 L 40,65 L 41,65 L 42,66 L 43,66 L 44,67 L 44,68 L 43,69 L 43,70 L 44,71 L 50,71 L 52,73 L 54,73 L 54,67 L 55,66 L 55,65 L 56,64 L 57,64 L 57,55 L 58,54 L 58,53 L 56,51 L 55,51 L 53,49 L 52,49 L 51,48 L 49,48 L 48,47 L 47,47 L 46,46 L 46,45 L 44,43 L 44,41 L 43,40 L 43,39 L 42,38 L 41,38 L 40,37 L 39,37 L 38,36 L 33,36 L 31,34 L 30,34 L 29,33 Z" fill="none" stroke="black" stroke-width="1"/>
</svg>