<svg xmlns="http://www.w3.org/2000/svg" width="355" height="149">
  <path d="M 143,29 L 142,30 L 141,30 L 138,33 L 135,33 L 134,34 L 122,34 L 122,35 L 118,39 L 117,39 L 115,41 L 115,43 L 114,44 L 114,45 L 113,46 L 113,48 L 111,50 L 111,52 L 112,53 L 111,54 L 111,61 L 110,62 L 110,63 L 109,64 L 108,63 L 105,63 L 103,65 L 102,65 L 102,68 L 100,70 L 99,70 L 98,71 L 97,71 L 96,70 L 94,70 L 93,69 L 91,69 L 90,68 L 89,68 L 86,65 L 82,65 L 80,67 L 79,67 L 78,68 L 77,68 L 76,69 L 75,69 L 74,70 L 67,70 L 66,69 L 65,69 L 64,68 L 63,68 L 62,67 L 60,67 L 59,68 L 58,68 L 57,67 L 57,62 L 54,59 L 54,58 L 53,58 L 48,53 L 48,52 L 47,52 L 46,51 L 42,51 L 40,53 L 39,53 L 38,54 L 38,56 L 39,56 L 40,57 L 39,58 L 39,60 L 42,63 L 42,64 L 44,66 L 44,68 L 45,68 L 46,69 L 47,69 L 50,72 L 52,72 L 53,73 L 55,73 L 56,74 L 60,74 L 61,75 L 64,75 L 66,77 L 67,77 L 69,79 L 69,80 L 76,87 L 76,88 L 77,88 L 78,89 L 76,91 L 76,99 L 75,100 L 75,101 L 78,101 L 80,103 L 80,104 L 82,104 L 83,103 L 84,104 L 87,104 L 89,106 L 89,107 L 90,107 L 91,108 L 91,109 L 92,109 L 93,110 L 97,110 L 98,109 L 100,109 L 101,108 L 109,108 L 111,110 L 112,110 L 114,112 L 117,112 L 120,115 L 124,115 L 125,114 L 128,114 L 129,115 L 130,115 L 133,118 L 134,118 L 135,119 L 141,119 L 142,120 L 143,120 L 144,121 L 145,121 L 149,125 L 150,125 L 152,127 L 155,127 L 157,125 L 157,123 L 161,119 L 161,117 L 162,116 L 162,114 L 163,113 L 164,113 L 165,112 L 165,111 L 167,109 L 167,108 L 176,99 L 176,98 L 177,97 L 177,95 L 175,93 L 174,93 L 171,90 L 170,90 L 169,89 L 169,88 L 166,85 L 165,85 L 164,84 L 160,84 L 155,79 L 155,78 L 154,77 L 154,72 L 153,71 L 154,70 L 154,68 L 158,64 L 158,62 L 159,61 L 159,60 L 158,59 L 158,57 L 160,55 L 160,52 L 161,51 L 161,50 L 162,49 L 162,48 L 165,45 L 165,43 L 163,41 L 162,41 L 161,40 L 160,40 L 159,39 L 156,39 L 155,38 L 154,38 L 153,37 L 152,37 L 151,36 L 151,35 L 148,35 L 147,34 L 147,33 L 146,32 L 145,32 L 143,30 Z" fill="none" stroke="black" stroke-width="1"/>
</svg>