<svg xmlns="http://www.w3.org/2000/svg" width="148" height="135">
  <path d="M 124,13 L 124,15 L 120,19 L 120,21 L 118,23 L 118,24 L 117,25 L 117,27 L 119,29 L 119,30 L 120,31 L 120,32 L 121,33 L 118,36 L 114,36 L 114,39 L 113,40 L 106,40 L 105,39 L 105,38 L 104,37 L 103,37 L 102,36 L 101,36 L 100,37 L 99,37 L 99,38 L 96,41 L 95,41 L 93,43 L 92,43 L 92,44 L 91,45 L 90,45 L 89,44 L 88,44 L 87,43 L 84,43 L 84,44 L 83,45 L 83,46 L 82,47 L 82,48 L 81,49 L 81,50 L 84,53 L 84,55 L 83,56 L 83,58 L 84,59 L 85,59 L 86,60 L 87,60 L 88,61 L 88,62 L 89,63 L 89,64 L 90,65 L 91,65 L 92,66 L 95,66 L 96,67 L 96,68 L 99,71 L 99,81 L 100,82 L 100,84 L 101,85 L 102,85 L 103,86 L 105,84 L 109,84 L 110,85 L 111,85 L 112,86 L 112,87 L 111,88 L 110,88 L 114,88 L 115,89 L 118,89 L 119,90 L 127,90 L 128,89 L 134,89 L 135,90 L 135,92 L 140,92 L 144,88 L 145,88 L 146,87 L 146,86 L 147,85 L 147,80 L 146,80 L 145,79 L 143,79 L 142,78 L 141,78 L 140,77 L 140,76 L 138,74 L 138,72 L 139,71 L 140,71 L 141,70 L 141,68 L 140,67 L 139,67 L 138,66 L 136,66 L 132,62 L 132,60 L 134,58 L 135,58 L 136,57 L 136,56 L 135,56 L 133,54 L 133,53 L 134,52 L 134,49 L 136,47 L 136,45 L 138,43 L 141,43 L 140,42 L 140,40 L 139,39 L 139,38 L 138,37 L 138,35 L 137,34 L 137,33 L 135,31 L 135,29 L 134,29 L 132,27 L 132,23 L 131,22 L 131,21 L 126,16 L 126,15 L 125,14 L 125,13 Z" fill="none" stroke="black" stroke-width="1"/>
</svg>