<svg xmlns="http://www.w3.org/2000/svg" width="52" height="61">
  <path d="M 20,30 L 19,31 L 18,31 L 16,33 L 16,36 L 14,38 L 15,38 L 16,39 L 16,41 L 17,42 L 16,43 L 17,44 L 16,45 L 16,46 L 15,47 L 13,47 L 12,48 L 11,48 L 12,49 L 12,53 L 13,53 L 14,52 L 18,52 L 19,51 L 22,51 L 23,52 L 24,52 L 26,54 L 26,57 L 27,57 L 28,58 L 29,58 L 30,59 L 30,60 L 31,59 L 31,58 L 32,57 L 34,57 L 35,56 L 36,56 L 37,55 L 37,54 L 40,51 L 40,49 L 41,48 L 41,46 L 40,45 L 40,44 L 39,43 L 39,41 L 38,41 L 37,42 L 34,42 L 33,41 L 33,39 L 32,38 L 31,38 L 30,37 L 28,37 L 27,38 L 23,38 L 22,37 L 22,36 L 20,34 L 20,33 L 21,32 L 21,31 Z" fill="none" stroke="black" stroke-width="1"/>
</svg>