<svg xmlns="http://www.w3.org/2000/svg" width="62" height="48">
  <path d="M 30,22 L 29,23 L 28,23 L 27,24 L 24,24 L 23,25 L 22,24 L 21,24 L 18,27 L 17,27 L 17,28 L 18,29 L 18,30 L 19,30 L 21,32 L 22,31 L 23,32 L 25,32 L 26,33 L 26,35 L 27,36 L 27,37 L 28,38 L 28,39 L 27,40 L 27,41 L 26,42 L 26,44 L 27,45 L 29,45 L 30,46 L 32,46 L 34,44 L 34,42 L 32,40 L 32,36 L 37,31 L 38,31 L 39,32 L 40,32 L 40,31 L 39,30 L 39,28 L 38,27 L 38,26 L 37,26 L 36,25 L 36,23 L 32,23 L 31,22 Z" fill="none" stroke="black" stroke-width="1"/>
</svg>