<svg xmlns="http://www.w3.org/2000/svg" width="98" height="64">
  <path d="M 14,28 L 13,29 L 11,29 L 11,31 L 10,32 L 10,34 L 7,37 L 7,38 L 5,40 L 4,40 L 3,41 L 1,41 L 1,42 L 0,43 L 0,44 L 2,46 L 2,49 L 3,50 L 3,53 L 4,54 L 4,55 L 5,56 L 5,58 L 6,58 L 7,59 L 8,58 L 11,58 L 12,57 L 13,57 L 14,56 L 15,56 L 16,57 L 20,57 L 21,56 L 22,56 L 23,57 L 24,57 L 25,58 L 27,58 L 28,57 L 32,57 L 33,56 L 34,56 L 34,54 L 35,53 L 36,53 L 36,52 L 37,51 L 37,47 L 38,46 L 40,46 L 40,45 L 39,45 L 37,43 L 36,43 L 34,41 L 34,39 L 33,38 L 31,38 L 30,39 L 28,39 L 27,38 L 25,38 L 24,37 L 23,37 L 22,36 L 21,37 L 20,36 L 19,36 L 17,34 L 17,31 L 18,30 L 18,28 L 17,28 L 16,29 L 15,28 Z" fill="none" stroke="black" stroke-width="1"/>
</svg>