<svg xmlns="http://www.w3.org/2000/svg" width="81" height="51">
  <path d="M 18,15 L 17,16 L 16,16 L 15,17 L 12,17 L 11,18 L 7,18 L 6,19 L 4,19 L 3,20 L 2,20 L 2,21 L 3,22 L 4,22 L 5,23 L 5,27 L 3,29 L 1,29 L 1,31 L 0,32 L 1,32 L 2,33 L 6,33 L 7,32 L 9,32 L 10,33 L 12,33 L 14,35 L 15,35 L 17,37 L 17,38 L 18,38 L 19,39 L 22,39 L 23,38 L 28,38 L 29,37 L 30,37 L 30,35 L 29,34 L 29,31 L 30,30 L 30,29 L 32,27 L 33,27 L 31,25 L 30,25 L 29,24 L 28,24 L 27,23 L 27,22 L 25,20 L 25,17 L 22,17 L 20,15 Z" fill="none" stroke="black" stroke-width="1"/>
</svg>