<svg xmlns="http://www.w3.org/2000/svg" width="97" height="68">
  <path d="M 25,34 L 24,35 L 22,35 L 21,36 L 19,36 L 18,35 L 13,35 L 12,36 L 13,37 L 14,37 L 15,38 L 15,40 L 17,40 L 18,41 L 18,43 L 19,43 L 20,44 L 22,44 L 23,45 L 23,46 L 24,47 L 24,48 L 25,49 L 25,52 L 26,53 L 26,56 L 27,57 L 28,57 L 29,58 L 30,58 L 31,59 L 31,60 L 33,60 L 34,59 L 35,60 L 35,61 L 37,61 L 38,62 L 38,63 L 42,63 L 43,64 L 43,65 L 44,64 L 45,64 L 47,66 L 50,66 L 51,67 L 51,66 L 52,65 L 52,64 L 51,63 L 51,59 L 53,57 L 53,56 L 54,55 L 55,55 L 57,53 L 60,53 L 62,51 L 61,50 L 60,50 L 59,51 L 56,51 L 55,50 L 55,49 L 54,48 L 53,48 L 52,47 L 50,47 L 47,44 L 45,44 L 44,43 L 44,42 L 41,39 L 41,38 L 39,38 L 37,36 L 35,36 L 34,35 L 32,35 L 31,34 Z" fill="none" stroke="black" stroke-width="1"/>
</svg>