<svg xmlns="http://www.w3.org/2000/svg" width="98" height="44">
  <path d="M 29,4 L 29,6 L 31,8 L 31,10 L 32,11 L 29,14 L 28,14 L 27,13 L 26,13 L 25,14 L 24,14 L 24,16 L 23,17 L 25,19 L 25,20 L 24,21 L 23,21 L 22,22 L 21,22 L 20,23 L 21,24 L 21,25 L 25,25 L 26,26 L 27,26 L 28,27 L 32,27 L 34,25 L 37,28 L 37,29 L 38,30 L 39,30 L 40,31 L 41,31 L 41,28 L 42,27 L 43,27 L 44,26 L 45,26 L 45,25 L 47,23 L 51,23 L 52,22 L 53,22 L 54,21 L 55,21 L 55,19 L 54,19 L 51,16 L 51,14 L 50,15 L 49,15 L 47,17 L 45,17 L 42,14 L 42,12 L 41,11 L 40,11 L 39,10 L 39,6 L 38,6 L 36,4 Z" fill="none" stroke="black" stroke-width="1"/>
</svg>