<svg xmlns="http://www.w3.org/2000/svg" width="63" height="124">
  <path d="M 37,11 L 35,13 L 35,15 L 36,16 L 38,14 L 38,13 L 39,12 L 40,12 L 41,13 L 41,12 L 42,11 L 40,11 L 39,12 L 38,11 Z" fill="none" stroke="black" stroke-width="1"/>
  <path d="M 46,0 L 44,2 L 43,2 L 43,3 L 45,5 L 45,7 L 44,8 L 43,8 L 44,8 L 45,9 L 45,12 L 42,15 L 44,15 L 45,16 L 46,16 L 47,17 L 52,17 L 52,16 L 51,15 L 51,12 L 52,11 L 52,10 L 53,9 L 54,9 L 54,5 L 53,4 L 53,3 L 51,1 L 49,1 L 48,0 Z" fill="none" stroke="black" stroke-width="1"/>
</svg>