<svg xmlns="http://www.w3.org/2000/svg" width="52" height="38">
  <path d="M 0,34 L 0,36 L 3,36 L 3,35 L 2,34 Z" fill="none" stroke="black" stroke-width="1"/>
  <path d="M 6,30 L 5,31 L 6,32 L 7,31 L 7,30 Z" fill="none" stroke="black" stroke-width="1"/>
  <path d="M 12,24 L 12,25 L 11,26 L 12,26 L 12,25 L 13,24 Z" fill="none" stroke="black" stroke-width="1"/>
  <path d="M 18,21 L 18,22 L 19,23 L 19,24 L 18,25 L 17,24 L 15,24 L 15,25 L 14,26 L 16,26 L 20,30 L 20,32 L 19,33 L 18,33 L 17,32 L 17,30 L 16,29 L 15,30 L 16,31 L 16,32 L 18,34 L 19,34 L 19,33 L 20,32 L 21,33 L 23,33 L 24,34 L 24,35 L 23,36 L 25,36 L 26,35 L 26,33 L 23,33 L 22,32 L 23,31 L 23,29 L 22,28 L 24,26 L 25,26 L 28,29 L 29,29 L 31,27 L 33,27 L 34,26 L 34,25 L 33,24 L 31,24 L 30,25 L 29,25 L 28,24 L 25,24 L 23,22 L 20,22 L 19,21 Z" fill="none" stroke="black" stroke-width="1"/>
</svg>