<svg xmlns="http://www.w3.org/2000/svg" width="33" height="45">
  <path d="M 21,0 L 21,1 L 19,3 L 16,3 L 15,2 L 14,2 L 13,3 L 13,4 L 12,5 L 12,9 L 11,10 L 11,13 L 10,14 L 11,15 L 10,16 L 11,17 L 11,18 L 10,19 L 9,19 L 7,21 L 6,21 L 9,24 L 9,25 L 11,27 L 11,28 L 10,29 L 10,32 L 11,31 L 12,32 L 14,30 L 15,30 L 16,29 L 16,28 L 17,27 L 18,27 L 18,26 L 19,25 L 19,22 L 22,19 L 24,19 L 24,14 L 23,13 L 24,12 L 24,11 L 23,11 L 22,12 L 20,10 L 20,8 L 22,6 L 22,5 L 23,4 L 25,4 L 25,3 L 22,0 Z" fill="none" stroke="black" stroke-width="1"/>
</svg>