<svg xmlns="http://www.w3.org/2000/svg" width="228" height="164">
  <path d="M 0,148 L 0,150 L 1,149 L 1,148 Z" fill="none" stroke="black" stroke-width="1"/>
  <path d="M 7,140 L 6,141 L 6,145 L 5,146 L 5,147 L 7,149 L 8,149 L 11,152 L 11,155 L 9,157 L 9,158 L 8,159 L 8,160 L 9,161 L 9,162 L 10,163 L 11,163 L 13,161 L 14,161 L 15,160 L 15,158 L 16,157 L 17,157 L 17,156 L 18,155 L 19,155 L 20,156 L 22,156 L 23,157 L 24,157 L 25,156 L 26,156 L 26,155 L 24,155 L 19,150 L 16,150 L 14,148 L 13,148 L 12,147 L 12,145 L 13,144 L 10,141 L 10,140 Z" fill="none" stroke="black" stroke-width="1"/>
</svg>