<svg xmlns="http://www.w3.org/2000/svg" width="96" height="69">
  <path d="M 72,30 L 71,31 L 69,31 L 68,32 L 66,32 L 65,33 L 63,33 L 63,34 L 61,36 L 60,36 L 60,39 L 61,40 L 61,41 L 62,42 L 62,44 L 65,47 L 64,48 L 64,49 L 63,50 L 63,57 L 64,58 L 64,59 L 65,60 L 65,62 L 68,62 L 69,63 L 75,63 L 76,64 L 77,63 L 78,64 L 78,63 L 82,59 L 82,56 L 83,55 L 83,54 L 84,53 L 83,52 L 83,51 L 84,50 L 84,48 L 85,47 L 86,47 L 87,46 L 87,42 L 88,41 L 88,39 L 87,38 L 87,37 L 86,36 L 79,36 L 75,32 L 75,30 Z" fill="none" stroke="black" stroke-width="1"/>
</svg>