<svg xmlns="http://www.w3.org/2000/svg" width="67" height="91">
  <path d="M 8,17 L 7,18 L 6,18 L 6,19 L 4,21 L 4,22 L 3,23 L 3,25 L 1,27 L 1,28 L 0,29 L 0,30 L 4,34 L 4,35 L 5,36 L 5,37 L 9,41 L 9,45 L 7,47 L 7,48 L 8,47 L 9,47 L 10,48 L 13,48 L 14,49 L 15,49 L 16,48 L 23,48 L 24,47 L 25,47 L 26,48 L 26,49 L 28,51 L 29,51 L 30,52 L 33,52 L 34,53 L 34,49 L 35,48 L 35,47 L 37,45 L 37,44 L 38,43 L 38,42 L 40,40 L 40,36 L 38,34 L 38,32 L 37,32 L 36,31 L 35,31 L 34,32 L 33,32 L 32,33 L 28,33 L 27,32 L 27,31 L 26,30 L 26,29 L 25,28 L 25,27 L 24,27 L 23,26 L 21,26 L 20,25 L 19,25 L 18,24 L 19,23 L 19,22 L 15,18 L 14,18 L 13,17 L 13,18 L 12,19 L 10,19 Z" fill="none" stroke="black" stroke-width="1"/>
</svg>