<svg xmlns="http://www.w3.org/2000/svg" width="67" height="35">
  <path d="M 46,0 L 45,1 L 43,1 L 41,3 L 41,4 L 40,5 L 40,6 L 38,8 L 37,7 L 36,7 L 35,8 L 34,8 L 34,9 L 32,11 L 31,11 L 31,13 L 32,14 L 32,16 L 33,17 L 35,17 L 36,18 L 36,19 L 37,19 L 39,21 L 40,20 L 43,23 L 44,23 L 47,20 L 48,20 L 48,19 L 49,18 L 54,18 L 55,17 L 55,16 L 56,15 L 57,15 L 57,14 L 58,13 L 55,13 L 54,12 L 53,12 L 50,9 L 50,8 L 47,8 L 46,7 L 46,6 L 45,5 L 45,4 L 46,3 L 46,2 L 47,1 L 48,1 L 47,1 Z" fill="none" stroke="black" stroke-width="1"/>
</svg>