<svg xmlns="http://www.w3.org/2000/svg" width="119" height="69">
  <path d="M 91,27 L 91,30 L 92,31 L 91,32 L 91,33 L 93,35 L 93,41 L 95,43 L 95,44 L 97,44 L 101,48 L 102,48 L 105,51 L 105,54 L 106,55 L 106,57 L 108,59 L 110,59 L 111,58 L 112,58 L 113,57 L 115,57 L 116,58 L 117,58 L 118,57 L 116,55 L 116,52 L 115,51 L 115,49 L 113,47 L 112,47 L 108,43 L 110,41 L 109,40 L 109,39 L 111,37 L 111,34 L 109,32 L 107,32 L 105,30 L 105,29 L 103,29 L 102,30 L 100,30 L 99,29 L 98,29 L 97,28 L 95,28 L 94,29 L 93,28 L 92,28 Z" fill="none" stroke="black" stroke-width="1"/>
</svg>