<svg xmlns="http://www.w3.org/2000/svg" width="89" height="129">
  <path d="M 14,74 L 13,75 L 12,75 L 13,76 L 13,77 L 14,78 L 10,82 L 11,82 L 12,83 L 13,83 L 14,84 L 14,85 L 15,86 L 13,88 L 13,89 L 12,90 L 12,91 L 13,91 L 14,90 L 19,95 L 20,95 L 24,99 L 25,99 L 31,93 L 32,94 L 33,94 L 33,93 L 34,92 L 34,91 L 35,90 L 40,90 L 40,89 L 41,88 L 41,82 L 42,81 L 42,80 L 38,76 L 37,76 L 34,79 L 33,79 L 31,77 L 30,77 L 27,80 L 25,80 L 24,79 L 22,79 L 20,77 L 20,76 L 19,75 L 17,75 L 16,74 Z" fill="none" stroke="black" stroke-width="1"/>
</svg>