<svg xmlns="http://www.w3.org/2000/svg" width="133" height="116">
  <path d="M 102,0 L 99,3 L 99,4 L 97,6 L 96,5 L 95,5 L 96,6 L 96,10 L 98,12 L 98,13 L 99,14 L 99,16 L 98,17 L 98,19 L 100,19 L 102,21 L 102,22 L 103,23 L 103,25 L 104,26 L 105,26 L 106,27 L 108,27 L 109,28 L 110,28 L 111,27 L 112,27 L 113,26 L 115,26 L 117,28 L 117,29 L 118,30 L 120,30 L 121,29 L 125,29 L 126,30 L 126,29 L 127,28 L 128,28 L 128,27 L 129,26 L 130,26 L 130,25 L 131,24 L 129,22 L 129,21 L 130,20 L 129,19 L 129,18 L 128,17 L 128,16 L 127,15 L 127,12 L 126,11 L 125,11 L 122,14 L 120,14 L 119,15 L 118,14 L 118,11 L 116,9 L 116,8 L 115,7 L 115,6 L 114,5 L 114,4 L 113,3 L 113,2 L 112,1 L 112,0 L 111,0 L 109,2 L 106,2 L 104,0 Z" fill="none" stroke="black" stroke-width="1"/>
</svg>