<svg xmlns="http://www.w3.org/2000/svg" width="99" height="107">
  <path d="M 15,58 L 15,59 L 14,60 L 14,61 L 13,62 L 13,63 L 9,67 L 9,68 L 10,69 L 12,69 L 16,73 L 16,77 L 15,78 L 15,85 L 23,93 L 23,94 L 25,96 L 25,97 L 26,98 L 26,99 L 25,100 L 25,102 L 26,103 L 26,104 L 28,106 L 30,106 L 31,105 L 33,105 L 33,101 L 34,100 L 36,100 L 37,99 L 39,99 L 40,100 L 45,100 L 46,99 L 49,99 L 50,100 L 54,100 L 56,98 L 56,97 L 57,96 L 56,95 L 56,93 L 55,92 L 55,89 L 54,89 L 53,88 L 53,87 L 52,86 L 52,85 L 51,85 L 48,82 L 48,81 L 47,80 L 42,80 L 38,76 L 38,73 L 36,71 L 36,70 L 35,69 L 35,66 L 34,66 L 33,67 L 31,67 L 30,66 L 30,65 L 29,64 L 28,64 L 25,61 L 19,61 L 16,58 Z" fill="none" stroke="black" stroke-width="1"/>
</svg>