<svg xmlns="http://www.w3.org/2000/svg" width="39" height="35">
  <path d="M 5,0 L 4,1 L 4,3 L 5,4 L 5,7 L 4,8 L 5,9 L 5,10 L 7,10 L 8,11 L 11,11 L 12,12 L 12,15 L 13,16 L 13,17 L 15,17 L 17,19 L 20,19 L 20,16 L 23,13 L 24,13 L 25,12 L 26,12 L 27,11 L 29,11 L 28,10 L 29,9 L 30,9 L 32,7 L 35,7 L 38,4 L 38,3 L 36,5 L 34,5 L 33,6 L 32,6 L 31,7 L 30,7 L 29,8 L 28,8 L 27,9 L 26,9 L 25,10 L 21,10 L 20,9 L 19,9 L 17,7 L 17,5 L 16,4 L 16,3 L 15,2 L 16,1 L 18,1 L 16,1 L 15,0 Z" fill="none" stroke="black" stroke-width="1"/>
</svg>