<svg xmlns="http://www.w3.org/2000/svg" width="83" height="100">
  <path d="M 39,49 L 38,50 L 38,51 L 37,52 L 36,52 L 35,53 L 34,53 L 33,52 L 31,54 L 31,56 L 33,58 L 33,59 L 34,60 L 34,62 L 33,63 L 34,64 L 34,66 L 32,68 L 32,71 L 33,71 L 35,73 L 35,75 L 34,76 L 34,80 L 39,85 L 39,86 L 40,87 L 40,88 L 42,90 L 45,87 L 45,86 L 46,85 L 46,84 L 49,81 L 50,81 L 52,79 L 56,79 L 57,80 L 57,81 L 58,81 L 60,83 L 64,83 L 65,82 L 69,82 L 72,79 L 72,76 L 70,74 L 69,74 L 68,73 L 65,73 L 64,72 L 61,72 L 60,73 L 56,69 L 56,64 L 58,62 L 58,60 L 57,60 L 56,61 L 55,60 L 54,60 L 53,59 L 53,58 L 50,55 L 51,54 L 50,54 L 49,53 L 49,52 L 47,50 L 46,50 L 45,49 L 44,49 L 43,50 L 42,50 L 41,49 Z" fill="none" stroke="black" stroke-width="1"/>
</svg>