<svg xmlns="http://www.w3.org/2000/svg" width="105" height="72">
  <path d="M 62,26 L 60,28 L 53,28 L 51,30 L 50,30 L 50,32 L 48,34 L 47,34 L 45,36 L 45,38 L 43,40 L 42,40 L 42,41 L 41,42 L 41,46 L 40,47 L 41,48 L 41,50 L 42,51 L 42,53 L 45,56 L 48,56 L 50,58 L 52,58 L 53,57 L 54,57 L 57,60 L 58,59 L 58,58 L 59,57 L 59,56 L 60,55 L 63,55 L 63,51 L 65,49 L 66,49 L 69,46 L 69,45 L 70,44 L 70,42 L 71,41 L 71,40 L 70,39 L 70,38 L 67,35 L 67,33 L 66,32 L 66,29 L 65,28 L 65,27 L 64,27 L 63,26 Z" fill="none" stroke="black" stroke-width="1"/>
</svg>