<svg xmlns="http://www.w3.org/2000/svg" width="119" height="87">
  <path d="M 59,2 L 58,3 L 55,3 L 54,4 L 54,7 L 53,8 L 53,13 L 51,15 L 51,16 L 50,17 L 50,19 L 49,20 L 49,21 L 48,22 L 48,23 L 47,24 L 43,24 L 42,25 L 41,25 L 39,27 L 38,27 L 36,29 L 34,29 L 33,30 L 30,30 L 26,34 L 26,37 L 27,37 L 28,38 L 29,38 L 30,39 L 31,39 L 32,40 L 32,41 L 31,42 L 30,42 L 28,44 L 28,45 L 29,46 L 30,46 L 31,47 L 32,47 L 33,48 L 34,48 L 35,47 L 37,47 L 38,48 L 39,48 L 41,46 L 42,46 L 43,47 L 45,47 L 46,48 L 48,48 L 49,47 L 52,47 L 56,43 L 60,43 L 62,41 L 66,41 L 67,42 L 68,42 L 69,43 L 70,43 L 72,41 L 77,41 L 78,40 L 78,37 L 76,35 L 76,34 L 75,33 L 75,32 L 73,30 L 73,29 L 71,27 L 71,25 L 68,22 L 68,20 L 67,19 L 67,13 L 68,12 L 68,6 L 67,6 L 64,3 L 62,3 L 61,2 Z" fill="none" stroke="black" stroke-width="1"/>
</svg>