<svg xmlns="http://www.w3.org/2000/svg" width="199" height="136">
  <path d="M 102,0 L 101,1 L 95,1 L 94,2 L 93,1 L 90,1 L 89,2 L 80,2 L 76,6 L 73,6 L 70,9 L 69,9 L 68,10 L 67,10 L 65,12 L 64,12 L 63,11 L 60,11 L 61,12 L 60,13 L 62,15 L 63,15 L 64,16 L 66,16 L 67,17 L 68,17 L 69,18 L 71,18 L 72,19 L 73,19 L 74,20 L 76,20 L 77,21 L 79,21 L 80,22 L 83,22 L 86,25 L 86,26 L 88,28 L 89,27 L 89,26 L 91,24 L 93,24 L 94,23 L 101,23 L 102,22 L 104,22 L 105,21 L 107,21 L 108,20 L 110,20 L 111,19 L 131,19 L 132,20 L 136,20 L 137,21 L 139,21 L 140,22 L 143,22 L 144,23 L 145,23 L 146,24 L 148,24 L 152,28 L 153,28 L 157,32 L 157,33 L 161,33 L 162,34 L 162,35 L 163,35 L 165,37 L 165,39 L 166,40 L 167,39 L 168,40 L 171,40 L 170,39 L 170,38 L 172,36 L 175,36 L 176,35 L 173,32 L 172,32 L 170,30 L 169,30 L 163,24 L 163,23 L 162,22 L 162,21 L 161,22 L 158,22 L 156,20 L 155,20 L 154,19 L 153,19 L 152,18 L 147,18 L 146,17 L 141,17 L 140,16 L 140,14 L 141,13 L 140,13 L 134,7 L 133,7 L 132,6 L 131,6 L 128,3 L 126,3 L 125,4 L 119,4 L 118,5 L 114,5 L 113,4 L 113,3 L 114,2 L 114,0 L 112,0 L 111,1 L 108,1 L 107,0 Z" fill="none" stroke="black" stroke-width="1"/>
</svg>