<svg xmlns="http://www.w3.org/2000/svg" width="133" height="94">
  <path d="M 52,5 L 51,6 L 51,7 L 50,8 L 50,11 L 44,17 L 44,18 L 45,19 L 45,21 L 46,22 L 45,23 L 44,23 L 41,26 L 40,26 L 36,30 L 36,33 L 37,34 L 37,36 L 39,38 L 39,39 L 40,40 L 40,41 L 41,42 L 41,43 L 42,44 L 46,44 L 47,43 L 48,44 L 48,45 L 49,46 L 49,47 L 54,47 L 54,46 L 57,43 L 59,43 L 62,40 L 66,40 L 67,41 L 70,41 L 71,42 L 72,42 L 74,44 L 77,44 L 78,43 L 79,43 L 80,42 L 80,40 L 76,36 L 76,34 L 78,32 L 80,32 L 81,33 L 83,33 L 84,32 L 84,30 L 83,29 L 83,28 L 84,27 L 84,26 L 85,25 L 86,25 L 87,24 L 92,24 L 92,23 L 91,22 L 91,21 L 88,18 L 88,15 L 89,14 L 89,11 L 87,11 L 86,10 L 85,10 L 84,9 L 81,9 L 80,10 L 74,10 L 73,9 L 72,9 L 71,8 L 66,8 L 65,7 L 64,7 L 63,8 L 56,8 L 53,5 Z" fill="none" stroke="black" stroke-width="1"/>
</svg>