<svg xmlns="http://www.w3.org/2000/svg" width="148" height="83">
  <path d="M 67,0 L 67,3 L 66,4 L 66,7 L 65,8 L 65,9 L 64,10 L 64,15 L 63,16 L 63,17 L 62,18 L 61,18 L 63,18 L 65,20 L 65,22 L 66,23 L 66,26 L 67,27 L 67,29 L 68,30 L 70,30 L 71,29 L 72,29 L 73,28 L 74,28 L 76,30 L 78,28 L 80,28 L 81,29 L 81,30 L 83,28 L 84,29 L 85,28 L 86,28 L 87,29 L 89,29 L 90,30 L 91,30 L 93,32 L 98,32 L 99,33 L 100,32 L 108,32 L 109,31 L 112,34 L 113,34 L 114,35 L 116,35 L 117,34 L 125,34 L 126,33 L 128,33 L 129,34 L 132,34 L 133,35 L 133,33 L 132,32 L 132,30 L 130,28 L 130,26 L 129,25 L 129,23 L 128,22 L 128,21 L 126,21 L 124,19 L 124,16 L 125,15 L 122,15 L 121,16 L 120,16 L 119,15 L 117,15 L 116,14 L 115,14 L 113,12 L 112,12 L 109,9 L 108,9 L 106,7 L 105,7 L 104,6 L 103,6 L 102,5 L 101,5 L 99,3 L 98,3 L 97,2 L 92,2 L 91,1 L 81,1 L 80,2 L 79,1 L 76,1 L 75,0 Z" fill="none" stroke="black" stroke-width="1"/>
</svg>