<svg xmlns="http://www.w3.org/2000/svg" width="148" height="83">
  <path d="M 64,23 L 63,24 L 62,24 L 61,25 L 59,25 L 58,26 L 52,26 L 50,28 L 48,28 L 47,29 L 44,29 L 43,30 L 41,30 L 40,31 L 39,31 L 38,32 L 29,32 L 28,33 L 28,34 L 27,35 L 27,38 L 26,39 L 25,39 L 22,42 L 19,42 L 17,40 L 16,41 L 15,41 L 14,42 L 13,41 L 12,41 L 10,43 L 7,43 L 4,46 L 4,47 L 3,48 L 3,49 L 2,50 L 2,51 L 1,52 L 0,52 L 3,55 L 2,56 L 3,56 L 4,57 L 6,57 L 7,58 L 7,59 L 8,59 L 10,61 L 10,62 L 11,63 L 11,64 L 12,64 L 14,66 L 15,66 L 16,67 L 16,68 L 15,69 L 16,70 L 16,71 L 15,72 L 15,75 L 16,75 L 18,77 L 20,77 L 23,80 L 24,80 L 25,81 L 29,81 L 30,80 L 33,80 L 34,79 L 35,79 L 36,78 L 37,78 L 38,77 L 40,77 L 41,76 L 42,76 L 43,75 L 52,75 L 53,76 L 56,76 L 57,75 L 64,75 L 65,74 L 68,74 L 67,73 L 67,72 L 66,71 L 66,63 L 65,62 L 65,61 L 64,60 L 64,57 L 65,56 L 65,48 L 66,47 L 66,44 L 65,43 L 65,38 L 64,37 L 64,33 L 66,31 L 68,31 L 66,29 L 66,27 L 65,26 L 65,23 Z" fill="none" stroke="black" stroke-width="1"/>
</svg>