<svg xmlns="http://www.w3.org/2000/svg" width="183" height="113">
  <path d="M 72,50 L 71,51 L 71,52 L 68,55 L 65,55 L 61,59 L 60,59 L 59,60 L 57,60 L 56,61 L 48,61 L 47,60 L 45,60 L 44,61 L 43,61 L 43,63 L 42,64 L 42,65 L 40,67 L 39,67 L 38,68 L 37,68 L 36,69 L 35,69 L 34,70 L 34,74 L 35,75 L 36,75 L 37,76 L 37,79 L 38,80 L 38,81 L 39,81 L 40,82 L 41,82 L 42,83 L 45,83 L 46,84 L 49,84 L 50,85 L 50,86 L 51,87 L 52,87 L 53,88 L 54,88 L 55,89 L 56,89 L 60,93 L 60,95 L 61,96 L 61,98 L 62,99 L 63,99 L 64,100 L 68,100 L 69,99 L 70,99 L 73,96 L 74,96 L 75,95 L 76,95 L 78,93 L 78,92 L 77,91 L 77,87 L 75,85 L 75,77 L 77,75 L 78,75 L 80,73 L 80,66 L 79,65 L 79,64 L 77,62 L 77,61 L 72,56 Z" fill="none" stroke="black" stroke-width="1"/>
</svg>