<svg xmlns="http://www.w3.org/2000/svg" width="125" height="102">
  <path d="M 102,5 L 101,6 L 100,6 L 94,12 L 90,12 L 89,13 L 86,13 L 88,15 L 88,20 L 87,21 L 87,22 L 85,24 L 85,25 L 84,26 L 84,27 L 83,28 L 83,32 L 84,32 L 85,33 L 87,33 L 89,35 L 89,36 L 90,37 L 90,38 L 91,38 L 92,39 L 92,40 L 94,42 L 101,42 L 103,44 L 110,44 L 111,45 L 114,45 L 115,44 L 116,44 L 116,42 L 117,41 L 117,36 L 118,35 L 118,32 L 119,31 L 119,30 L 120,29 L 120,26 L 121,25 L 121,24 L 123,22 L 123,20 L 124,19 L 124,17 L 123,16 L 123,15 L 122,14 L 122,12 L 120,10 L 117,10 L 116,9 L 116,8 L 115,7 L 115,6 L 114,7 L 112,7 L 111,6 L 108,6 L 107,5 Z" fill="none" stroke="black" stroke-width="1"/>
</svg>