<svg xmlns="http://www.w3.org/2000/svg" width="125" height="102">
  <path d="M 58,30 L 57,31 L 56,31 L 55,32 L 54,32 L 52,34 L 49,34 L 48,35 L 47,35 L 46,36 L 46,37 L 44,39 L 44,45 L 45,46 L 45,49 L 46,50 L 46,52 L 42,56 L 40,56 L 39,57 L 39,58 L 40,59 L 41,59 L 42,60 L 42,61 L 44,61 L 46,63 L 48,63 L 49,64 L 50,64 L 52,66 L 53,66 L 55,68 L 56,68 L 57,67 L 58,67 L 59,66 L 59,65 L 60,64 L 60,63 L 61,62 L 61,61 L 62,60 L 62,53 L 66,49 L 66,48 L 67,47 L 67,46 L 69,44 L 69,42 L 71,40 L 71,39 L 72,38 L 69,38 L 67,36 L 67,35 L 65,33 L 62,33 L 60,31 L 60,30 Z" fill="none" stroke="black" stroke-width="1"/>
</svg>