<svg xmlns="http://www.w3.org/2000/svg" width="64" height="41">
  <path d="M 41,13 L 40,14 L 40,15 L 41,15 L 43,17 L 43,18 L 45,20 L 45,25 L 43,27 L 42,27 L 40,29 L 40,30 L 39,31 L 39,33 L 40,34 L 39,35 L 38,35 L 38,36 L 41,36 L 42,37 L 43,37 L 45,39 L 48,39 L 49,40 L 53,40 L 54,39 L 55,39 L 57,37 L 56,36 L 56,34 L 57,33 L 57,30 L 59,28 L 59,27 L 62,24 L 63,24 L 62,24 L 59,21 L 59,20 L 60,19 L 58,19 L 57,18 L 56,18 L 54,16 L 52,16 L 51,15 L 50,15 L 49,14 L 43,14 L 42,13 Z" fill="none" stroke="black" stroke-width="1"/>
</svg>