<svg xmlns="http://www.w3.org/2000/svg" width="122" height="69">
  <path d="M 84,27 L 83,28 L 83,33 L 84,34 L 84,36 L 85,37 L 85,38 L 82,41 L 81,41 L 80,42 L 79,42 L 77,44 L 77,48 L 80,51 L 83,51 L 84,52 L 84,53 L 85,54 L 85,57 L 86,57 L 89,60 L 89,61 L 93,61 L 94,60 L 94,59 L 96,57 L 98,57 L 100,55 L 101,55 L 101,54 L 102,53 L 102,52 L 104,50 L 105,50 L 106,49 L 108,49 L 109,50 L 110,50 L 111,49 L 111,48 L 113,46 L 115,46 L 117,44 L 118,44 L 120,42 L 121,42 L 121,40 L 120,39 L 120,36 L 119,35 L 117,35 L 115,33 L 115,32 L 114,31 L 114,30 L 113,30 L 112,31 L 111,31 L 110,32 L 109,31 L 108,31 L 106,33 L 105,33 L 103,31 L 103,30 L 102,30 L 101,31 L 98,31 L 96,33 L 95,33 L 91,29 L 90,29 L 89,30 L 87,28 L 85,28 Z" fill="none" stroke="black" stroke-width="1"/>
</svg>