<svg xmlns="http://www.w3.org/2000/svg" width="124" height="63">
  <path d="M 17,18 L 16,19 L 15,19 L 14,20 L 11,20 L 11,21 L 12,22 L 12,23 L 7,28 L 6,28 L 5,29 L 4,29 L 0,33 L 0,36 L 1,37 L 1,38 L 3,40 L 3,42 L 5,44 L 6,44 L 7,45 L 9,45 L 11,47 L 11,48 L 12,48 L 13,47 L 14,47 L 15,46 L 17,46 L 18,47 L 19,47 L 20,48 L 21,48 L 22,49 L 22,50 L 23,49 L 26,49 L 27,48 L 27,47 L 28,46 L 28,45 L 31,42 L 34,42 L 35,41 L 38,41 L 38,40 L 40,38 L 36,34 L 34,34 L 34,35 L 33,36 L 30,36 L 29,37 L 27,37 L 26,36 L 26,34 L 27,33 L 27,28 L 26,27 L 26,26 L 25,25 L 24,25 L 19,20 L 19,19 L 18,18 Z" fill="none" stroke="black" stroke-width="1"/>
</svg>