<svg xmlns="http://www.w3.org/2000/svg" width="106" height="65">
  <path d="M 67,0 L 67,1 L 66,2 L 65,2 L 64,1 L 62,1 L 61,2 L 61,3 L 60,4 L 57,4 L 56,5 L 53,5 L 51,7 L 51,8 L 50,9 L 50,10 L 49,11 L 49,14 L 50,15 L 50,16 L 54,20 L 53,21 L 53,22 L 55,22 L 56,23 L 60,23 L 61,24 L 61,25 L 64,28 L 64,27 L 66,25 L 66,24 L 65,23 L 66,22 L 67,22 L 68,21 L 69,21 L 71,23 L 71,22 L 72,21 L 73,21 L 74,20 L 74,19 L 73,18 L 75,16 L 75,15 L 78,12 L 79,12 L 78,11 L 77,11 L 76,10 L 76,9 L 73,9 L 69,5 L 69,4 L 71,2 L 71,1 L 70,0 Z" fill="none" stroke="black" stroke-width="1"/>
</svg>