<svg xmlns="http://www.w3.org/2000/svg" width="111" height="142">
  <path d="M 67,49 L 66,50 L 65,50 L 65,51 L 62,54 L 62,55 L 61,56 L 60,56 L 59,57 L 58,57 L 58,60 L 59,61 L 57,63 L 57,64 L 56,65 L 56,66 L 55,67 L 55,68 L 53,70 L 52,70 L 51,71 L 50,70 L 50,69 L 49,68 L 47,68 L 47,69 L 46,70 L 46,71 L 43,74 L 43,83 L 42,84 L 42,85 L 41,86 L 41,87 L 39,89 L 38,89 L 37,90 L 36,90 L 36,93 L 35,94 L 35,95 L 37,95 L 38,96 L 40,96 L 41,97 L 42,97 L 43,98 L 44,98 L 46,96 L 47,96 L 48,95 L 54,95 L 55,94 L 56,94 L 60,90 L 61,90 L 63,88 L 64,88 L 67,85 L 68,85 L 73,80 L 74,80 L 76,78 L 80,78 L 81,77 L 84,77 L 85,76 L 86,76 L 87,75 L 89,75 L 89,74 L 90,73 L 90,63 L 92,61 L 93,61 L 93,59 L 92,59 L 91,58 L 91,56 L 90,56 L 88,54 L 87,54 L 85,52 L 84,52 L 83,51 L 73,51 L 72,50 L 70,50 L 69,49 Z" fill="none" stroke="black" stroke-width="1"/>
</svg>