<svg xmlns="http://www.w3.org/2000/svg" width="111" height="142">
  <path d="M 32,96 L 32,99 L 30,101 L 30,103 L 29,104 L 29,105 L 26,108 L 22,108 L 20,110 L 19,110 L 19,116 L 18,117 L 17,117 L 13,121 L 12,121 L 12,123 L 11,124 L 11,125 L 12,125 L 13,126 L 13,127 L 11,129 L 11,130 L 15,134 L 17,132 L 24,132 L 27,129 L 28,129 L 29,128 L 29,127 L 31,125 L 31,124 L 33,122 L 33,121 L 35,119 L 35,116 L 36,115 L 36,113 L 37,112 L 37,109 L 41,105 L 41,104 L 43,102 L 43,101 L 46,98 L 46,97 L 44,99 L 43,99 L 42,98 L 41,98 L 40,97 L 38,97 L 37,96 Z" fill="none" stroke="black" stroke-width="1"/>
</svg>