<svg xmlns="http://www.w3.org/2000/svg" width="111" height="142">
  <path d="M 73,81 L 68,86 L 67,86 L 64,89 L 63,89 L 61,91 L 60,91 L 56,95 L 55,95 L 54,96 L 48,96 L 47,97 L 47,98 L 44,101 L 44,102 L 42,104 L 42,105 L 38,109 L 38,112 L 37,113 L 37,115 L 36,116 L 36,119 L 34,121 L 34,122 L 32,124 L 32,125 L 30,127 L 30,128 L 28,130 L 27,130 L 25,132 L 26,132 L 27,133 L 29,133 L 30,134 L 38,134 L 40,136 L 41,136 L 42,137 L 43,137 L 44,136 L 46,136 L 47,135 L 49,135 L 52,138 L 53,137 L 55,137 L 56,138 L 59,138 L 61,136 L 62,136 L 64,134 L 65,134 L 66,133 L 69,133 L 70,132 L 71,132 L 72,131 L 73,132 L 75,132 L 76,133 L 79,133 L 82,130 L 83,130 L 84,129 L 85,130 L 85,134 L 84,135 L 84,136 L 85,136 L 87,138 L 87,140 L 88,140 L 89,141 L 90,140 L 90,134 L 91,133 L 91,132 L 93,130 L 92,129 L 92,124 L 94,122 L 94,121 L 95,120 L 95,115 L 94,114 L 94,113 L 93,112 L 94,111 L 94,110 L 95,109 L 96,109 L 97,108 L 95,106 L 95,102 L 94,101 L 94,96 L 92,96 L 91,95 L 89,95 L 88,94 L 87,94 L 86,93 L 86,92 L 85,92 L 84,91 L 83,91 L 82,90 L 81,90 L 77,86 L 77,84 L 75,82 L 74,82 Z" fill="none" stroke="black" stroke-width="1"/>
</svg>