<svg xmlns="http://www.w3.org/2000/svg" width="188" height="124">
  <path d="M 103,73 L 103,74 L 102,75 L 101,75 L 100,76 L 98,76 L 96,78 L 96,80 L 97,81 L 97,82 L 96,83 L 95,83 L 95,84 L 94,85 L 94,91 L 93,92 L 92,92 L 92,93 L 91,94 L 91,95 L 92,96 L 92,99 L 90,101 L 89,101 L 89,104 L 87,106 L 87,107 L 86,108 L 89,108 L 91,110 L 94,110 L 95,111 L 95,112 L 97,114 L 98,114 L 99,113 L 106,113 L 109,110 L 111,110 L 112,111 L 115,111 L 116,110 L 120,110 L 120,106 L 119,105 L 119,104 L 121,102 L 122,102 L 123,101 L 124,101 L 125,100 L 125,99 L 124,98 L 124,97 L 125,96 L 127,96 L 127,95 L 128,94 L 130,94 L 130,90 L 131,89 L 134,89 L 133,88 L 134,87 L 131,87 L 130,86 L 129,86 L 128,85 L 126,85 L 125,84 L 121,84 L 120,83 L 118,83 L 115,80 L 115,79 L 113,77 L 112,77 L 110,75 L 108,75 L 107,74 L 106,74 L 105,73 Z" fill="none" stroke="black" stroke-width="1"/>
</svg>