<svg xmlns="http://www.w3.org/2000/svg" width="95" height="64">
  <path d="M 68,0 L 65,3 L 58,3 L 56,5 L 45,5 L 44,6 L 38,6 L 37,5 L 36,6 L 36,8 L 35,9 L 35,10 L 32,13 L 31,13 L 29,15 L 31,15 L 33,17 L 33,18 L 36,18 L 40,22 L 46,22 L 47,23 L 48,23 L 49,24 L 50,24 L 51,25 L 53,25 L 55,27 L 56,27 L 58,29 L 58,30 L 59,31 L 63,31 L 64,32 L 67,32 L 68,31 L 70,33 L 74,33 L 74,31 L 75,30 L 76,30 L 76,28 L 77,27 L 76,26 L 77,25 L 77,24 L 78,23 L 78,20 L 79,19 L 78,18 L 78,17 L 81,14 L 82,14 L 84,12 L 85,12 L 85,11 L 87,9 L 87,6 L 86,5 L 86,4 L 85,3 L 85,2 L 83,0 L 82,1 L 80,1 L 79,2 L 75,2 L 74,1 L 69,1 Z" fill="none" stroke="black" stroke-width="1"/>
</svg>