<svg xmlns="http://www.w3.org/2000/svg" width="143" height="130">
  <path d="M 50,31 L 49,32 L 49,34 L 47,36 L 47,37 L 46,38 L 46,40 L 43,43 L 43,44 L 42,45 L 41,45 L 41,46 L 40,47 L 42,49 L 42,51 L 43,52 L 43,53 L 44,54 L 44,55 L 43,56 L 43,57 L 39,61 L 39,63 L 37,65 L 37,67 L 38,67 L 40,69 L 40,72 L 41,73 L 41,74 L 42,75 L 45,75 L 46,76 L 54,76 L 55,75 L 63,75 L 66,78 L 67,78 L 69,80 L 69,81 L 70,82 L 71,82 L 72,81 L 72,80 L 73,79 L 75,79 L 76,78 L 84,78 L 84,77 L 85,76 L 85,75 L 86,74 L 88,74 L 89,75 L 91,75 L 93,73 L 95,73 L 96,72 L 97,72 L 98,71 L 100,71 L 101,72 L 106,72 L 107,71 L 110,71 L 112,73 L 123,73 L 124,72 L 124,68 L 123,68 L 122,67 L 122,65 L 121,64 L 121,63 L 118,60 L 117,60 L 115,58 L 115,57 L 114,57 L 111,54 L 111,53 L 110,53 L 109,52 L 108,52 L 103,47 L 100,47 L 99,46 L 92,46 L 85,53 L 83,53 L 80,50 L 79,50 L 78,49 L 73,49 L 72,50 L 69,50 L 68,49 L 67,49 L 66,50 L 65,50 L 64,51 L 64,52 L 63,53 L 62,53 L 56,47 L 56,43 L 58,41 L 58,37 L 59,36 L 59,35 L 58,34 L 58,33 L 57,34 L 56,34 L 55,33 L 55,32 L 54,32 L 53,31 Z" fill="none" stroke="black" stroke-width="1"/>
</svg>