<svg xmlns="http://www.w3.org/2000/svg" width="188" height="122">
  <path d="M 21,0 L 20,1 L 16,1 L 15,2 L 14,2 L 13,3 L 10,3 L 9,4 L 5,4 L 6,5 L 6,6 L 7,7 L 7,8 L 6,9 L 6,11 L 7,12 L 7,13 L 8,14 L 9,14 L 10,15 L 10,16 L 11,17 L 11,18 L 9,20 L 9,21 L 8,22 L 8,26 L 7,27 L 3,27 L 2,28 L 1,28 L 0,29 L 0,32 L 1,32 L 2,33 L 6,33 L 8,35 L 8,36 L 11,39 L 13,39 L 14,40 L 18,40 L 19,39 L 19,38 L 21,36 L 21,35 L 24,32 L 28,32 L 29,33 L 30,33 L 33,36 L 36,36 L 37,37 L 37,38 L 38,38 L 39,39 L 43,39 L 45,37 L 50,37 L 51,38 L 53,38 L 55,36 L 56,36 L 58,34 L 58,33 L 59,32 L 60,32 L 61,31 L 62,32 L 64,32 L 65,33 L 73,33 L 74,32 L 75,32 L 76,33 L 77,33 L 80,30 L 81,30 L 81,29 L 83,27 L 84,27 L 82,27 L 81,26 L 80,26 L 79,25 L 78,25 L 77,24 L 75,24 L 74,23 L 74,21 L 73,20 L 73,15 L 71,15 L 70,14 L 69,14 L 67,12 L 66,12 L 64,10 L 63,10 L 61,8 L 57,8 L 56,7 L 53,7 L 52,6 L 52,5 L 51,5 L 50,4 L 36,4 L 35,3 L 32,3 L 31,2 L 30,2 L 28,0 Z" fill="none" stroke="black" stroke-width="1"/>
</svg>