<svg xmlns="http://www.w3.org/2000/svg" width="52" height="36">
  <path d="M 20,10 L 19,11 L 18,11 L 18,13 L 17,14 L 17,16 L 15,18 L 14,18 L 13,19 L 13,21 L 14,22 L 14,24 L 15,25 L 15,26 L 16,27 L 16,28 L 18,28 L 20,30 L 21,30 L 22,31 L 24,31 L 25,32 L 26,32 L 28,34 L 30,34 L 31,35 L 31,34 L 30,33 L 31,32 L 31,31 L 32,30 L 31,29 L 31,28 L 32,27 L 33,27 L 34,26 L 34,24 L 33,23 L 32,23 L 31,22 L 31,21 L 30,20 L 27,20 L 26,19 L 24,19 L 23,18 L 23,16 L 24,15 L 24,14 L 25,13 L 23,11 L 22,11 L 21,10 Z" fill="none" stroke="black" stroke-width="1"/>
</svg>