<svg xmlns="http://www.w3.org/2000/svg" width="222" height="101">
  <path d="M 122,0 L 117,5 L 115,5 L 113,3 L 112,3 L 111,2 L 110,3 L 109,3 L 109,4 L 108,5 L 107,5 L 106,6 L 106,7 L 105,8 L 105,9 L 104,10 L 101,10 L 100,11 L 100,13 L 99,14 L 99,26 L 98,27 L 98,29 L 96,31 L 96,32 L 97,32 L 98,33 L 98,34 L 102,38 L 103,38 L 105,40 L 105,41 L 107,43 L 108,43 L 109,44 L 110,44 L 113,47 L 113,50 L 112,51 L 112,53 L 119,53 L 120,52 L 121,52 L 122,51 L 124,51 L 125,50 L 127,50 L 128,49 L 129,49 L 130,48 L 131,48 L 132,47 L 134,47 L 136,45 L 137,45 L 138,44 L 144,44 L 145,43 L 148,43 L 149,44 L 150,43 L 151,43 L 152,42 L 153,42 L 155,40 L 155,39 L 156,38 L 155,37 L 157,35 L 162,35 L 165,32 L 165,31 L 166,30 L 166,28 L 165,27 L 165,23 L 166,22 L 166,21 L 165,20 L 165,18 L 164,17 L 166,15 L 166,13 L 167,12 L 167,11 L 169,9 L 169,7 L 168,7 L 167,6 L 166,6 L 164,4 L 163,4 L 161,2 L 160,2 L 159,1 L 156,1 L 154,3 L 152,3 L 150,5 L 148,5 L 147,6 L 144,6 L 143,5 L 142,5 L 141,4 L 140,4 L 139,3 L 138,3 L 137,2 L 132,2 L 131,3 L 129,3 L 128,2 L 126,2 L 124,0 Z" fill="none" stroke="black" stroke-width="1"/>
</svg>