<svg xmlns="http://www.w3.org/2000/svg" width="139" height="160">
  <path d="M 42,0 L 42,1 L 40,3 L 37,3 L 36,2 L 35,2 L 34,3 L 32,3 L 32,4 L 30,6 L 29,6 L 28,7 L 27,7 L 26,8 L 22,8 L 21,9 L 20,9 L 20,10 L 19,11 L 18,11 L 16,13 L 15,13 L 14,12 L 13,13 L 11,13 L 9,15 L 7,15 L 6,16 L 6,17 L 5,18 L 1,18 L 0,19 L 0,20 L 1,21 L 1,25 L 2,26 L 3,26 L 5,24 L 7,24 L 9,26 L 11,26 L 12,27 L 12,28 L 13,29 L 13,30 L 15,32 L 16,32 L 17,33 L 17,34 L 19,36 L 20,36 L 22,38 L 22,39 L 24,41 L 24,42 L 25,43 L 27,43 L 28,42 L 29,42 L 31,40 L 33,40 L 36,43 L 37,43 L 40,46 L 45,46 L 47,48 L 48,48 L 50,46 L 51,46 L 54,49 L 55,49 L 56,50 L 57,50 L 58,49 L 59,49 L 59,48 L 62,45 L 64,45 L 65,44 L 66,44 L 67,43 L 68,43 L 69,42 L 70,43 L 70,32 L 69,31 L 69,24 L 68,23 L 68,22 L 69,21 L 69,16 L 71,14 L 72,14 L 72,13 L 73,12 L 73,6 L 72,5 L 61,5 L 60,4 L 59,4 L 58,5 L 53,5 L 52,4 L 52,1 L 49,1 L 49,2 L 48,3 L 47,3 L 46,2 L 45,2 L 43,0 Z" fill="none" stroke="black" stroke-width="1"/>
</svg>