<svg xmlns="http://www.w3.org/2000/svg" width="230" height="103">
  <path d="M 167,27 L 166,28 L 165,28 L 162,31 L 162,32 L 161,33 L 161,36 L 162,37 L 162,38 L 165,41 L 165,44 L 158,51 L 158,54 L 159,55 L 159,57 L 160,58 L 160,63 L 159,64 L 159,69 L 158,70 L 157,70 L 155,72 L 155,73 L 154,74 L 154,75 L 153,76 L 153,79 L 152,80 L 152,82 L 153,83 L 154,83 L 155,84 L 157,84 L 158,85 L 159,85 L 161,87 L 162,87 L 165,90 L 165,91 L 169,95 L 170,95 L 171,96 L 172,96 L 173,97 L 179,97 L 179,96 L 178,95 L 178,94 L 176,92 L 176,88 L 175,87 L 175,76 L 176,75 L 176,74 L 177,73 L 177,72 L 180,69 L 180,68 L 181,67 L 182,67 L 181,66 L 181,65 L 183,63 L 185,63 L 186,62 L 187,62 L 188,61 L 189,61 L 190,60 L 191,60 L 192,59 L 194,59 L 195,58 L 196,58 L 197,57 L 198,57 L 198,56 L 197,55 L 197,52 L 198,51 L 198,50 L 197,50 L 196,49 L 196,47 L 197,46 L 196,45 L 196,44 L 195,43 L 195,42 L 194,41 L 194,39 L 193,39 L 192,38 L 190,38 L 188,36 L 188,35 L 190,33 L 190,30 L 189,30 L 188,29 L 187,29 L 186,28 L 182,28 L 181,27 L 179,27 L 178,28 L 175,28 L 174,27 Z" fill="none" stroke="black" stroke-width="1"/>
</svg>