<svg xmlns="http://www.w3.org/2000/svg" width="42" height="83">
  <path d="M 24,57 L 22,59 L 16,59 L 15,60 L 15,61 L 14,62 L 13,62 L 12,63 L 12,66 L 11,67 L 11,68 L 12,69 L 12,71 L 11,72 L 11,74 L 15,78 L 14,79 L 14,80 L 16,82 L 17,82 L 17,80 L 16,80 L 15,79 L 15,78 L 16,77 L 17,77 L 18,78 L 19,78 L 20,77 L 21,77 L 22,78 L 22,79 L 25,79 L 26,80 L 26,81 L 27,81 L 28,80 L 28,79 L 27,78 L 26,78 L 25,79 L 24,79 L 23,78 L 23,75 L 25,73 L 26,73 L 27,74 L 28,74 L 27,73 L 27,71 L 29,69 L 29,68 L 25,68 L 24,67 L 24,66 L 25,65 L 25,57 Z" fill="none" stroke="black" stroke-width="1"/>
</svg>