<svg xmlns="http://www.w3.org/2000/svg" width="40" height="70">
  <path d="M 19,44 L 18,45 L 17,45 L 16,46 L 18,46 L 19,47 L 21,45 L 21,44 Z" fill="none" stroke="black" stroke-width="1"/>
  <path d="M 23,41 L 23,44 L 24,44 L 24,43 L 25,42 L 25,41 Z" fill="none" stroke="black" stroke-width="1"/>
  <path d="M 24,25 L 23,26 L 21,26 L 18,29 L 16,29 L 16,30 L 15,31 L 15,33 L 11,37 L 10,37 L 9,36 L 6,36 L 6,37 L 5,38 L 3,36 L 3,38 L 4,38 L 5,39 L 5,41 L 7,39 L 9,41 L 9,42 L 8,43 L 7,43 L 8,44 L 7,45 L 5,45 L 3,43 L 3,45 L 0,48 L 1,49 L 2,49 L 3,48 L 3,46 L 4,45 L 6,47 L 6,49 L 7,50 L 8,49 L 8,48 L 9,47 L 9,46 L 10,45 L 11,46 L 11,47 L 12,47 L 13,46 L 13,45 L 15,43 L 16,43 L 17,42 L 19,42 L 19,41 L 20,40 L 21,40 L 23,38 L 24,39 L 25,38 L 26,38 L 23,35 L 23,33 L 24,32 L 24,30 L 23,29 L 23,28 L 24,27 Z" fill="none" stroke="black" stroke-width="1"/>
</svg>