<svg xmlns="http://www.w3.org/2000/svg" width="66" height="74">
  <path d="M 55,0 L 55,3 L 52,6 L 51,6 L 50,7 L 49,7 L 45,11 L 43,11 L 42,12 L 39,12 L 38,13 L 37,13 L 36,14 L 35,14 L 35,17 L 36,18 L 36,20 L 38,20 L 39,21 L 42,21 L 44,23 L 44,24 L 45,25 L 45,27 L 49,27 L 50,28 L 52,28 L 53,27 L 54,27 L 56,29 L 56,32 L 59,32 L 60,33 L 60,34 L 61,35 L 63,35 L 64,34 L 64,33 L 63,32 L 63,26 L 64,25 L 64,23 L 65,22 L 65,20 L 64,19 L 62,19 L 61,18 L 61,17 L 60,17 L 58,15 L 58,13 L 60,11 L 62,11 L 62,10 L 59,7 L 59,6 L 61,4 L 62,4 L 62,3 L 59,0 Z" fill="none" stroke="black" stroke-width="1"/>
</svg>