<svg xmlns="http://www.w3.org/2000/svg" width="51" height="45">
  <path d="M 29,0 L 29,2 L 28,3 L 27,2 L 26,2 L 25,3 L 24,3 L 23,4 L 23,6 L 22,7 L 22,8 L 21,9 L 21,10 L 20,11 L 20,12 L 19,13 L 19,15 L 20,16 L 18,18 L 17,18 L 16,19 L 15,19 L 14,20 L 14,21 L 16,21 L 19,24 L 19,25 L 19,24 L 20,23 L 22,25 L 22,26 L 22,25 L 23,24 L 23,22 L 25,20 L 26,20 L 27,19 L 28,19 L 29,18 L 36,18 L 35,17 L 35,16 L 34,15 L 34,14 L 35,13 L 35,11 L 38,8 L 37,7 L 37,6 L 35,4 L 34,4 L 30,0 Z" fill="none" stroke="black" stroke-width="1"/>
</svg>