<svg xmlns="http://www.w3.org/2000/svg" width="101" height="41">
  <path d="M 32,0 L 31,1 L 30,1 L 30,2 L 29,3 L 23,3 L 22,4 L 22,6 L 21,7 L 16,7 L 15,8 L 15,9 L 14,10 L 13,10 L 13,11 L 12,12 L 14,14 L 14,16 L 15,16 L 16,17 L 18,17 L 20,15 L 21,16 L 21,17 L 22,16 L 24,16 L 24,15 L 26,13 L 27,13 L 28,12 L 30,12 L 31,13 L 36,13 L 37,12 L 38,12 L 39,11 L 42,11 L 43,12 L 44,12 L 45,13 L 49,13 L 49,12 L 47,10 L 48,9 L 48,6 L 47,6 L 46,7 L 45,6 L 45,3 L 44,2 L 40,2 L 39,3 L 38,3 L 36,5 L 34,5 L 33,4 L 33,1 L 34,0 Z" fill="none" stroke="black" stroke-width="1"/>
</svg>