<svg xmlns="http://www.w3.org/2000/svg" width="66" height="53">
  <path d="M 19,14 L 17,16 L 16,16 L 13,19 L 12,19 L 10,17 L 9,17 L 8,18 L 9,19 L 9,21 L 10,22 L 10,24 L 9,25 L 9,26 L 8,27 L 8,29 L 9,29 L 10,30 L 13,30 L 16,33 L 17,33 L 18,32 L 21,32 L 22,33 L 21,34 L 22,35 L 21,36 L 21,38 L 22,38 L 25,41 L 26,41 L 26,40 L 27,39 L 28,39 L 29,38 L 33,38 L 34,37 L 34,33 L 33,32 L 32,32 L 31,33 L 30,33 L 28,31 L 28,29 L 25,26 L 25,25 L 24,24 L 25,23 L 25,21 L 23,19 L 23,17 L 22,17 L 21,16 L 20,16 L 19,15 Z" fill="none" stroke="black" stroke-width="1"/>
</svg>