<svg xmlns="http://www.w3.org/2000/svg" width="69" height="58">
  <path d="M 25,9 L 25,10 L 24,11 L 25,12 L 24,13 L 23,13 L 22,12 L 21,13 L 21,14 L 23,14 L 24,15 L 24,16 L 22,18 L 22,19 L 23,20 L 22,21 L 22,22 L 21,23 L 21,24 L 22,25 L 23,25 L 24,26 L 25,26 L 27,28 L 29,28 L 30,27 L 31,27 L 32,26 L 34,26 L 35,27 L 35,28 L 36,29 L 38,29 L 39,30 L 40,30 L 41,31 L 43,31 L 43,30 L 45,28 L 46,28 L 46,24 L 45,23 L 45,21 L 43,19 L 43,17 L 42,17 L 41,18 L 39,16 L 41,14 L 40,14 L 38,12 L 38,10 L 37,10 L 36,11 L 33,11 L 32,12 L 31,12 L 30,11 L 28,11 L 26,9 Z" fill="none" stroke="black" stroke-width="1"/>
</svg>