<svg xmlns="http://www.w3.org/2000/svg" width="82" height="82">
  <path d="M 66,53 L 66,54 L 64,56 L 63,56 L 63,57 L 64,58 L 65,58 L 66,59 L 66,62 L 62,66 L 60,66 L 59,67 L 59,69 L 60,69 L 62,71 L 61,72 L 60,72 L 62,74 L 63,74 L 64,75 L 64,76 L 66,76 L 67,77 L 68,77 L 69,78 L 70,78 L 71,79 L 74,79 L 76,81 L 79,81 L 81,79 L 80,78 L 80,77 L 79,77 L 78,76 L 78,75 L 77,74 L 77,71 L 75,69 L 75,68 L 71,64 L 71,63 L 70,62 L 70,61 L 69,60 L 69,56 L 68,55 L 68,54 L 67,53 Z" fill="none" stroke="black" stroke-width="1"/>
</svg>