<svg xmlns="http://www.w3.org/2000/svg" width="70" height="67">
  <path d="M 48,27 L 47,28 L 46,28 L 45,29 L 44,29 L 43,28 L 40,28 L 40,29 L 37,32 L 33,32 L 32,31 L 31,32 L 29,32 L 28,31 L 18,31 L 17,32 L 15,32 L 14,33 L 16,33 L 19,36 L 19,39 L 18,40 L 18,44 L 19,44 L 21,46 L 25,46 L 26,47 L 28,47 L 29,48 L 31,48 L 32,49 L 32,50 L 35,50 L 36,51 L 38,51 L 39,50 L 40,50 L 40,48 L 41,47 L 42,48 L 43,48 L 44,49 L 46,47 L 46,44 L 48,42 L 48,41 L 49,40 L 51,40 L 54,37 L 54,36 L 55,35 L 56,35 L 57,34 L 57,31 L 56,31 L 55,30 L 53,30 L 52,29 L 51,29 L 49,27 Z" fill="none" stroke="black" stroke-width="1"/>
</svg>