<svg xmlns="http://www.w3.org/2000/svg" width="82" height="92">
  <path d="M 25,0 L 23,2 L 23,5 L 20,8 L 20,10 L 21,11 L 22,11 L 23,12 L 23,14 L 22,15 L 22,16 L 25,16 L 26,17 L 26,18 L 27,18 L 28,19 L 28,24 L 30,24 L 31,25 L 31,29 L 32,29 L 33,30 L 33,32 L 34,32 L 35,33 L 35,35 L 38,35 L 39,36 L 39,37 L 40,38 L 40,43 L 41,44 L 41,45 L 42,46 L 44,46 L 45,45 L 45,42 L 47,40 L 47,39 L 48,38 L 51,38 L 52,39 L 54,39 L 54,38 L 52,36 L 52,35 L 51,34 L 51,33 L 50,32 L 52,30 L 52,29 L 53,28 L 54,28 L 54,26 L 53,26 L 52,25 L 52,24 L 51,23 L 51,22 L 50,22 L 48,20 L 48,14 L 47,14 L 46,13 L 46,12 L 45,12 L 44,11 L 44,9 L 42,9 L 41,8 L 41,6 L 39,4 L 36,4 L 35,3 L 32,3 L 31,2 L 28,2 L 27,1 L 27,0 Z" fill="none" stroke="black" stroke-width="1"/>
</svg>