<svg xmlns="http://www.w3.org/2000/svg" width="66" height="87">
  <path d="M 28,54 L 25,57 L 24,57 L 24,61 L 22,63 L 21,63 L 20,64 L 19,64 L 18,63 L 17,63 L 16,62 L 16,63 L 15,64 L 13,64 L 9,68 L 7,68 L 6,69 L 5,69 L 7,71 L 8,71 L 9,72 L 9,73 L 10,74 L 10,81 L 12,83 L 12,85 L 14,85 L 15,86 L 21,86 L 22,85 L 22,82 L 21,81 L 22,80 L 26,80 L 27,81 L 31,81 L 32,80 L 33,80 L 34,79 L 35,79 L 35,78 L 36,77 L 36,76 L 38,74 L 40,74 L 41,73 L 43,73 L 42,72 L 42,67 L 43,66 L 44,66 L 44,65 L 45,64 L 42,64 L 41,63 L 41,62 L 40,61 L 39,61 L 37,59 L 37,56 L 36,55 L 35,55 L 34,54 L 32,54 L 31,55 L 30,54 Z" fill="none" stroke="black" stroke-width="1"/>
</svg>