<svg xmlns="http://www.w3.org/2000/svg" width="50" height="72">
  <path d="M 29,30 L 29,31 L 25,35 L 24,35 L 24,36 L 23,37 L 22,37 L 22,38 L 21,39 L 21,40 L 20,41 L 20,45 L 23,48 L 24,48 L 25,49 L 25,50 L 26,51 L 26,55 L 27,56 L 28,56 L 29,57 L 29,58 L 30,59 L 30,62 L 31,63 L 31,64 L 32,64 L 33,65 L 34,65 L 36,67 L 39,64 L 41,64 L 41,63 L 42,62 L 43,63 L 44,63 L 45,64 L 46,64 L 47,63 L 48,63 L 49,62 L 49,57 L 48,57 L 47,56 L 47,53 L 46,52 L 46,51 L 45,50 L 45,49 L 44,48 L 44,46 L 43,45 L 43,44 L 41,44 L 40,45 L 36,45 L 35,44 L 34,44 L 33,43 L 32,43 L 31,42 L 31,40 L 30,39 L 30,38 L 32,36 L 33,36 L 33,33 L 30,30 Z" fill="none" stroke="black" stroke-width="1"/>
</svg>