<svg xmlns="http://www.w3.org/2000/svg" width="108" height="79">
  <path d="M 30,0 L 30,2 L 28,4 L 27,4 L 26,5 L 21,5 L 18,8 L 17,8 L 16,7 L 13,7 L 11,9 L 9,9 L 8,10 L 6,10 L 5,9 L 4,9 L 3,10 L 3,11 L 2,12 L 2,13 L 0,15 L 0,20 L 1,21 L 4,21 L 5,22 L 9,22 L 10,23 L 10,24 L 12,24 L 13,25 L 13,26 L 14,27 L 16,27 L 18,25 L 18,24 L 20,22 L 21,22 L 22,21 L 26,21 L 27,20 L 29,20 L 30,21 L 32,21 L 33,22 L 36,22 L 37,21 L 38,21 L 38,20 L 36,18 L 36,16 L 37,15 L 37,13 L 38,12 L 38,11 L 37,10 L 37,6 L 35,4 L 35,3 L 34,2 L 34,1 L 33,0 L 32,1 L 31,0 Z" fill="none" stroke="black" stroke-width="1"/>
</svg>