<svg xmlns="http://www.w3.org/2000/svg" width="110" height="52">
  <path d="M 58,23 L 56,25 L 55,25 L 55,26 L 54,27 L 54,28 L 53,29 L 52,29 L 51,30 L 51,31 L 52,32 L 53,32 L 54,33 L 54,34 L 56,34 L 57,35 L 58,35 L 59,36 L 60,36 L 62,38 L 63,38 L 65,40 L 65,41 L 67,43 L 68,43 L 69,44 L 72,44 L 73,45 L 73,46 L 74,47 L 79,47 L 80,46 L 81,46 L 82,45 L 83,45 L 83,42 L 84,41 L 85,41 L 85,39 L 86,38 L 86,37 L 84,37 L 83,36 L 81,36 L 78,33 L 74,33 L 73,32 L 72,32 L 71,31 L 71,28 L 68,28 L 67,27 L 66,27 L 64,25 L 63,25 L 62,24 L 61,24 L 60,23 Z" fill="none" stroke="black" stroke-width="1"/>
</svg>