<svg xmlns="http://www.w3.org/2000/svg" width="71" height="41">
  <path d="M 60,17 L 60,18 L 62,20 L 60,22 L 57,22 L 55,24 L 55,25 L 54,26 L 53,26 L 52,27 L 49,27 L 47,29 L 42,29 L 40,27 L 38,27 L 35,30 L 34,30 L 33,31 L 33,32 L 34,32 L 37,35 L 37,37 L 38,37 L 40,39 L 41,39 L 42,38 L 46,38 L 47,37 L 51,37 L 52,36 L 54,38 L 59,38 L 61,40 L 65,40 L 65,39 L 64,38 L 64,37 L 63,36 L 68,31 L 68,29 L 70,27 L 70,26 L 67,23 L 67,22 L 66,21 L 66,18 L 65,17 Z" fill="none" stroke="black" stroke-width="1"/>
</svg>