<svg xmlns="http://www.w3.org/2000/svg" width="63" height="69">
  <path d="M 9,21 L 9,23 L 8,24 L 8,25 L 7,26 L 6,26 L 3,29 L 3,30 L 2,31 L 1,31 L 1,33 L 2,34 L 0,36 L 0,37 L 1,38 L 2,38 L 3,39 L 5,39 L 6,40 L 7,40 L 8,41 L 9,41 L 10,42 L 12,42 L 13,43 L 14,43 L 15,44 L 17,44 L 18,45 L 22,45 L 23,46 L 27,46 L 28,45 L 29,45 L 33,41 L 40,41 L 41,40 L 41,39 L 42,38 L 43,38 L 44,37 L 44,36 L 46,34 L 46,31 L 45,30 L 45,28 L 40,23 L 36,23 L 36,24 L 34,26 L 30,26 L 29,27 L 26,27 L 25,26 L 25,25 L 24,25 L 23,24 L 22,24 L 21,23 L 19,23 L 18,22 L 12,22 L 11,21 Z" fill="none" stroke="black" stroke-width="1"/>
</svg>