<svg xmlns="http://www.w3.org/2000/svg" width="137" height="141">
  <path d="M 105,68 L 104,69 L 103,69 L 101,71 L 98,71 L 97,70 L 97,69 L 92,69 L 91,70 L 90,70 L 89,71 L 88,71 L 87,72 L 85,72 L 84,73 L 84,74 L 80,78 L 77,78 L 76,77 L 76,76 L 75,75 L 69,75 L 68,76 L 67,76 L 66,77 L 64,77 L 63,78 L 63,80 L 64,81 L 64,84 L 65,85 L 65,88 L 64,89 L 64,91 L 65,91 L 67,93 L 68,93 L 70,95 L 70,96 L 73,99 L 73,100 L 74,100 L 77,103 L 77,104 L 79,106 L 80,106 L 81,107 L 81,108 L 85,108 L 91,114 L 92,114 L 93,115 L 93,116 L 94,117 L 94,120 L 95,120 L 96,121 L 96,123 L 97,124 L 98,124 L 99,125 L 100,125 L 102,127 L 103,127 L 105,129 L 105,130 L 108,130 L 110,132 L 110,133 L 111,133 L 112,134 L 114,134 L 115,135 L 115,136 L 117,136 L 118,137 L 122,137 L 123,136 L 126,136 L 126,135 L 127,134 L 130,134 L 130,133 L 131,132 L 131,131 L 132,130 L 136,130 L 136,126 L 135,126 L 134,125 L 133,125 L 132,124 L 130,124 L 129,123 L 129,122 L 128,121 L 128,120 L 127,119 L 127,118 L 126,117 L 126,116 L 125,115 L 125,113 L 126,112 L 125,111 L 126,110 L 126,107 L 124,105 L 124,100 L 123,100 L 122,99 L 120,99 L 119,98 L 119,97 L 118,96 L 118,94 L 117,93 L 118,92 L 119,92 L 119,90 L 118,89 L 118,87 L 117,86 L 117,82 L 116,82 L 115,81 L 115,80 L 114,79 L 114,78 L 113,78 L 110,75 L 110,74 L 109,73 L 109,70 L 107,68 Z" fill="none" stroke="black" stroke-width="1"/>
</svg>