<svg xmlns="http://www.w3.org/2000/svg" width="137" height="141">
  <path d="M 84,4 L 84,7 L 83,8 L 82,8 L 82,9 L 80,11 L 80,13 L 79,14 L 79,17 L 80,18 L 80,21 L 81,22 L 81,23 L 80,24 L 78,22 L 78,21 L 77,20 L 78,19 L 75,16 L 72,16 L 70,18 L 70,20 L 69,21 L 68,21 L 66,19 L 66,18 L 67,17 L 68,17 L 71,14 L 69,12 L 68,12 L 66,10 L 59,10 L 58,11 L 57,11 L 56,10 L 56,9 L 54,9 L 53,8 L 52,8 L 51,7 L 50,8 L 48,8 L 48,9 L 39,18 L 39,21 L 40,21 L 43,24 L 43,28 L 46,31 L 47,31 L 50,34 L 50,35 L 51,36 L 51,37 L 52,38 L 52,39 L 53,40 L 53,41 L 52,42 L 52,43 L 51,44 L 51,47 L 52,48 L 52,49 L 53,50 L 53,51 L 54,51 L 56,49 L 57,49 L 58,50 L 58,51 L 61,54 L 62,54 L 63,55 L 64,54 L 65,54 L 66,53 L 67,54 L 67,55 L 68,56 L 68,58 L 69,59 L 69,62 L 72,65 L 72,67 L 71,68 L 71,70 L 70,71 L 70,72 L 69,73 L 69,74 L 75,74 L 77,76 L 77,77 L 80,77 L 83,74 L 83,73 L 85,71 L 87,71 L 88,70 L 89,70 L 90,69 L 91,69 L 92,68 L 97,68 L 98,69 L 98,70 L 101,70 L 103,68 L 104,68 L 105,67 L 107,67 L 110,70 L 116,70 L 116,69 L 118,67 L 118,61 L 119,60 L 119,58 L 120,57 L 120,55 L 119,55 L 118,54 L 117,54 L 115,52 L 115,50 L 114,49 L 114,48 L 113,48 L 112,47 L 110,47 L 108,45 L 107,45 L 106,44 L 106,38 L 105,37 L 104,37 L 103,36 L 102,36 L 101,35 L 100,35 L 97,32 L 97,30 L 96,29 L 96,27 L 95,27 L 92,24 L 91,24 L 89,22 L 89,18 L 88,17 L 88,10 L 87,9 L 87,8 L 86,7 L 86,4 Z" fill="none" stroke="black" stroke-width="1"/>
  <path d="M 54,0 L 54,1 L 55,2 L 57,2 L 57,1 L 56,1 L 55,0 Z" fill="none" stroke="black" stroke-width="1"/>
</svg>