<svg xmlns="http://www.w3.org/2000/svg" width="183" height="165">
  <path d="M 123,58 L 122,59 L 121,59 L 122,60 L 122,62 L 118,66 L 117,65 L 115,65 L 115,66 L 116,67 L 116,68 L 117,69 L 118,69 L 119,70 L 120,70 L 121,71 L 121,72 L 122,73 L 122,74 L 126,78 L 127,78 L 128,79 L 130,79 L 131,78 L 133,78 L 134,77 L 135,77 L 137,79 L 138,79 L 139,80 L 139,81 L 138,82 L 138,83 L 139,83 L 140,84 L 140,86 L 141,87 L 140,88 L 140,89 L 139,90 L 138,90 L 137,91 L 133,91 L 133,92 L 132,93 L 127,93 L 126,92 L 126,91 L 119,91 L 120,92 L 119,93 L 119,94 L 120,95 L 120,96 L 119,97 L 119,101 L 122,104 L 122,106 L 120,108 L 120,109 L 122,111 L 122,113 L 125,116 L 126,116 L 129,119 L 129,120 L 130,121 L 134,121 L 135,120 L 135,119 L 138,116 L 138,115 L 139,114 L 147,114 L 148,115 L 150,115 L 151,116 L 154,116 L 156,118 L 159,118 L 160,119 L 160,121 L 159,122 L 159,126 L 160,127 L 161,126 L 164,126 L 165,125 L 174,125 L 175,124 L 177,124 L 180,121 L 180,119 L 181,118 L 182,118 L 182,111 L 181,110 L 181,107 L 180,106 L 180,102 L 178,100 L 178,99 L 177,98 L 176,98 L 175,97 L 173,97 L 172,96 L 170,96 L 169,95 L 168,95 L 164,91 L 164,90 L 163,90 L 160,87 L 159,87 L 158,86 L 158,85 L 155,82 L 155,81 L 154,80 L 154,77 L 155,76 L 155,74 L 156,73 L 156,71 L 155,71 L 154,70 L 152,70 L 151,69 L 147,69 L 146,70 L 143,70 L 140,73 L 139,72 L 139,69 L 140,68 L 144,68 L 145,67 L 139,67 L 138,66 L 137,66 L 136,65 L 135,65 L 134,64 L 135,63 L 134,62 L 133,62 L 131,60 L 128,60 L 127,59 L 125,59 L 124,58 Z" fill="none" stroke="black" stroke-width="1"/>
</svg>