<svg xmlns="http://www.w3.org/2000/svg" width="89" height="70">
  <path d="M 60,2 L 59,3 L 59,8 L 58,9 L 57,9 L 57,13 L 59,15 L 59,17 L 60,17 L 63,20 L 63,28 L 62,29 L 62,30 L 61,31 L 61,35 L 62,36 L 62,38 L 64,38 L 65,37 L 69,37 L 70,38 L 70,39 L 74,39 L 75,38 L 75,37 L 77,35 L 78,35 L 79,34 L 81,34 L 81,32 L 80,31 L 80,30 L 79,29 L 79,28 L 80,27 L 81,27 L 82,26 L 83,26 L 83,25 L 82,24 L 84,22 L 86,22 L 87,21 L 87,18 L 86,17 L 86,11 L 88,9 L 88,3 L 87,2 L 86,2 L 85,3 L 82,3 L 81,2 L 76,2 L 75,3 L 72,3 L 71,4 L 67,4 L 66,3 L 65,3 L 64,2 Z" fill="none" stroke="black" stroke-width="1"/>
</svg>