<svg xmlns="http://www.w3.org/2000/svg" width="119" height="77">
  <path d="M 95,25 L 94,26 L 94,27 L 93,28 L 93,30 L 92,31 L 89,31 L 88,32 L 82,32 L 79,35 L 78,35 L 77,36 L 72,36 L 70,38 L 67,38 L 66,37 L 65,37 L 65,39 L 64,40 L 64,41 L 63,42 L 63,43 L 61,45 L 61,47 L 59,49 L 59,52 L 60,52 L 61,53 L 62,53 L 64,55 L 65,55 L 66,56 L 68,56 L 69,57 L 73,57 L 74,58 L 75,58 L 76,59 L 78,59 L 79,60 L 80,60 L 82,58 L 83,58 L 85,56 L 86,56 L 86,55 L 87,54 L 87,53 L 86,52 L 86,51 L 85,51 L 84,52 L 83,52 L 82,51 L 82,50 L 85,47 L 86,47 L 88,45 L 89,45 L 90,46 L 91,46 L 92,45 L 96,45 L 98,43 L 100,45 L 102,45 L 103,46 L 104,46 L 105,47 L 106,47 L 107,48 L 108,48 L 109,49 L 110,49 L 115,44 L 115,41 L 116,40 L 117,40 L 117,38 L 118,37 L 114,33 L 113,33 L 110,30 L 109,30 L 108,29 L 108,28 L 103,28 L 101,26 L 100,27 L 98,25 Z" fill="none" stroke="black" stroke-width="1"/>
</svg>