<svg xmlns="http://www.w3.org/2000/svg" width="107" height="64">
  <path d="M 83,0 L 82,1 L 81,1 L 80,2 L 79,2 L 79,6 L 78,7 L 77,7 L 77,9 L 76,10 L 75,10 L 72,13 L 71,13 L 69,15 L 68,15 L 68,19 L 67,20 L 64,20 L 64,22 L 66,24 L 69,24 L 71,26 L 71,27 L 72,28 L 72,29 L 73,29 L 75,31 L 75,32 L 77,32 L 79,34 L 78,35 L 78,36 L 77,37 L 77,41 L 76,42 L 76,46 L 79,49 L 79,51 L 81,51 L 82,52 L 85,52 L 88,49 L 88,48 L 90,46 L 91,46 L 91,45 L 93,43 L 96,43 L 97,42 L 98,42 L 101,39 L 101,38 L 104,35 L 104,33 L 105,32 L 106,32 L 105,31 L 105,29 L 102,29 L 101,28 L 101,27 L 99,25 L 99,22 L 98,21 L 98,19 L 99,18 L 99,15 L 98,15 L 97,14 L 98,13 L 98,10 L 99,9 L 99,6 L 98,5 L 98,4 L 96,4 L 95,3 L 95,1 L 92,1 L 91,0 L 90,1 L 88,1 L 87,0 Z" fill="none" stroke="black" stroke-width="1"/>
</svg>