<svg xmlns="http://www.w3.org/2000/svg" width="89" height="70">
  <path d="M 21,29 L 21,30 L 19,32 L 18,32 L 17,33 L 16,33 L 13,30 L 11,30 L 9,32 L 9,33 L 8,34 L 7,34 L 5,36 L 4,36 L 3,35 L 2,35 L 1,34 L 1,35 L 0,36 L 0,38 L 3,41 L 5,41 L 7,43 L 7,47 L 8,47 L 10,49 L 10,53 L 8,55 L 8,56 L 11,56 L 13,58 L 14,57 L 16,59 L 21,59 L 22,60 L 22,61 L 23,61 L 26,64 L 27,64 L 32,69 L 32,67 L 34,65 L 36,65 L 37,64 L 38,64 L 39,63 L 41,63 L 42,64 L 43,64 L 45,66 L 46,66 L 47,67 L 50,67 L 51,68 L 51,69 L 52,68 L 53,68 L 54,67 L 55,67 L 57,65 L 61,65 L 59,63 L 59,61 L 57,59 L 60,56 L 60,51 L 59,51 L 58,52 L 56,50 L 53,50 L 52,51 L 51,51 L 50,50 L 50,46 L 43,39 L 40,39 L 39,38 L 36,38 L 35,37 L 34,37 L 33,36 L 33,35 L 32,34 L 31,34 L 30,33 L 30,32 L 29,31 L 29,30 L 28,29 Z" fill="none" stroke="black" stroke-width="1"/>
</svg>