<svg xmlns="http://www.w3.org/2000/svg" width="91" height="75">
  <path d="M 46,0 L 46,1 L 44,3 L 43,3 L 42,4 L 39,4 L 37,6 L 37,7 L 36,8 L 33,8 L 32,7 L 31,8 L 30,8 L 29,9 L 29,15 L 30,16 L 30,19 L 28,21 L 26,21 L 25,22 L 26,23 L 26,24 L 25,25 L 24,25 L 23,26 L 22,26 L 22,27 L 23,28 L 23,29 L 24,30 L 24,32 L 23,33 L 21,33 L 20,34 L 19,34 L 18,35 L 18,36 L 17,37 L 17,38 L 18,38 L 19,39 L 19,40 L 20,40 L 21,41 L 21,43 L 23,43 L 24,44 L 27,44 L 28,45 L 28,48 L 32,48 L 33,49 L 36,49 L 36,48 L 37,47 L 43,47 L 44,48 L 45,47 L 52,47 L 53,46 L 54,46 L 54,45 L 55,44 L 56,44 L 59,41 L 65,41 L 67,39 L 67,37 L 69,35 L 70,35 L 71,34 L 73,34 L 74,33 L 75,33 L 76,32 L 80,32 L 80,31 L 81,30 L 83,30 L 83,29 L 84,28 L 87,28 L 87,27 L 88,26 L 85,23 L 82,23 L 81,22 L 75,22 L 73,20 L 73,19 L 71,17 L 71,14 L 69,12 L 69,11 L 68,10 L 68,9 L 66,7 L 65,7 L 64,6 L 64,5 L 62,5 L 61,6 L 55,6 L 54,5 L 52,5 L 51,4 L 51,3 L 50,3 L 49,2 L 49,0 Z" fill="none" stroke="black" stroke-width="1"/>
</svg>