<svg xmlns="http://www.w3.org/2000/svg" width="91" height="75">
  <path d="M 88,27 L 88,28 L 87,29 L 84,29 L 84,30 L 83,31 L 81,31 L 81,32 L 80,33 L 76,33 L 75,34 L 74,34 L 73,35 L 71,35 L 70,36 L 69,36 L 68,37 L 68,39 L 65,42 L 59,42 L 56,45 L 55,45 L 55,46 L 54,47 L 53,47 L 52,48 L 45,48 L 44,49 L 43,48 L 37,48 L 37,49 L 38,50 L 38,52 L 40,54 L 40,55 L 41,56 L 41,60 L 42,61 L 42,65 L 41,66 L 41,67 L 44,67 L 46,69 L 46,73 L 47,74 L 60,74 L 61,73 L 65,73 L 66,72 L 67,72 L 68,71 L 70,71 L 71,70 L 72,70 L 72,69 L 75,66 L 75,65 L 76,64 L 76,63 L 77,62 L 77,61 L 80,58 L 81,58 L 82,57 L 86,57 L 87,56 L 89,56 L 89,55 L 88,54 L 88,50 L 89,49 L 89,47 L 90,46 L 90,31 L 89,30 L 89,29 L 88,28 Z" fill="none" stroke="black" stroke-width="1"/>
</svg>