<svg xmlns="http://www.w3.org/2000/svg" width="92" height="59">
  <path d="M 32,26 L 31,27 L 31,30 L 29,32 L 29,36 L 30,37 L 30,43 L 29,44 L 29,45 L 28,46 L 27,46 L 27,47 L 28,47 L 29,48 L 33,48 L 36,51 L 36,52 L 37,52 L 41,56 L 41,57 L 42,58 L 43,57 L 46,57 L 47,56 L 49,56 L 49,52 L 50,51 L 51,51 L 51,50 L 52,49 L 56,49 L 56,47 L 55,46 L 55,45 L 54,44 L 54,43 L 52,41 L 52,36 L 51,35 L 51,34 L 45,34 L 44,33 L 40,33 L 38,31 L 37,31 L 36,30 L 36,29 L 33,26 Z" fill="none" stroke="black" stroke-width="1"/>
</svg>