<svg xmlns="http://www.w3.org/2000/svg" width="105" height="58">
  <path d="M 83,0 L 82,1 L 82,4 L 81,5 L 73,5 L 72,4 L 69,4 L 68,3 L 65,3 L 64,2 L 62,2 L 62,3 L 61,4 L 61,7 L 60,8 L 59,8 L 58,7 L 54,7 L 52,9 L 51,9 L 49,7 L 48,7 L 47,8 L 48,9 L 48,10 L 49,11 L 49,12 L 48,13 L 47,13 L 46,12 L 45,12 L 45,13 L 47,13 L 48,14 L 50,14 L 57,21 L 58,21 L 59,22 L 60,22 L 61,23 L 63,23 L 64,24 L 64,25 L 65,25 L 66,26 L 66,29 L 69,32 L 69,33 L 67,35 L 67,39 L 65,41 L 65,43 L 68,43 L 69,44 L 70,44 L 71,45 L 73,45 L 74,46 L 74,47 L 75,47 L 75,45 L 77,43 L 77,42 L 78,41 L 81,41 L 82,40 L 83,40 L 83,39 L 84,38 L 84,36 L 86,34 L 90,34 L 91,33 L 92,33 L 93,32 L 94,32 L 95,31 L 96,31 L 98,29 L 98,26 L 97,25 L 97,24 L 98,23 L 98,21 L 99,20 L 101,20 L 102,21 L 104,19 L 104,16 L 103,16 L 102,15 L 101,15 L 99,13 L 99,8 L 98,8 L 97,7 L 95,7 L 92,4 L 92,3 L 90,1 L 87,1 L 86,0 Z" fill="none" stroke="black" stroke-width="1"/>
</svg>