<svg xmlns="http://www.w3.org/2000/svg" width="117" height="110">
  <path d="M 36,35 L 36,36 L 33,39 L 31,39 L 30,40 L 24,40 L 23,41 L 14,41 L 14,42 L 13,43 L 9,43 L 7,45 L 7,46 L 5,48 L 5,49 L 4,50 L 4,57 L 5,58 L 6,58 L 7,59 L 7,60 L 10,60 L 12,58 L 14,58 L 15,59 L 15,60 L 17,60 L 19,62 L 20,62 L 21,63 L 21,64 L 23,66 L 23,67 L 24,67 L 25,68 L 27,68 L 29,70 L 29,71 L 28,72 L 27,72 L 27,76 L 28,77 L 28,78 L 30,78 L 31,79 L 33,79 L 34,80 L 35,80 L 38,83 L 40,83 L 41,84 L 45,84 L 48,87 L 48,88 L 50,88 L 50,85 L 51,84 L 52,84 L 53,85 L 55,85 L 55,82 L 56,81 L 57,81 L 58,80 L 58,77 L 57,76 L 57,71 L 56,70 L 56,58 L 55,57 L 55,54 L 54,53 L 54,48 L 53,48 L 52,47 L 52,46 L 51,45 L 51,43 L 49,41 L 49,40 L 47,38 L 46,38 L 45,37 L 42,37 L 41,36 L 39,36 L 38,35 Z" fill="none" stroke="black" stroke-width="1"/>
</svg>