<svg xmlns="http://www.w3.org/2000/svg" width="105" height="58">
  <path d="M 17,19 L 16,20 L 14,20 L 14,22 L 13,23 L 9,23 L 9,24 L 8,25 L 7,25 L 7,29 L 6,30 L 4,30 L 3,31 L 0,31 L 0,41 L 1,42 L 2,42 L 3,43 L 4,43 L 7,46 L 7,47 L 9,47 L 10,48 L 10,53 L 12,53 L 13,54 L 14,54 L 15,55 L 16,55 L 17,56 L 23,56 L 25,54 L 26,54 L 27,55 L 28,55 L 29,56 L 33,56 L 34,57 L 35,57 L 35,52 L 34,51 L 34,49 L 39,44 L 39,42 L 37,40 L 37,38 L 36,38 L 35,37 L 31,37 L 30,36 L 31,35 L 31,34 L 29,32 L 28,32 L 27,31 L 26,31 L 25,32 L 23,32 L 19,28 L 20,27 L 20,26 L 22,24 L 22,22 L 19,19 Z" fill="none" stroke="black" stroke-width="1"/>
</svg>