<svg xmlns="http://www.w3.org/2000/svg" width="90" height="101">
  <path d="M 12,0 L 11,1 L 8,1 L 7,2 L 5,2 L 4,3 L 2,3 L 1,4 L 0,4 L 1,5 L 1,8 L 2,9 L 2,13 L 3,14 L 3,17 L 4,18 L 4,20 L 6,18 L 7,19 L 7,22 L 6,23 L 6,27 L 5,28 L 5,32 L 4,33 L 4,37 L 3,38 L 3,40 L 2,41 L 2,42 L 1,43 L 1,44 L 2,43 L 4,43 L 5,44 L 6,43 L 9,43 L 10,44 L 10,45 L 14,49 L 14,50 L 15,51 L 15,52 L 16,52 L 17,51 L 19,51 L 19,50 L 21,48 L 22,48 L 23,47 L 24,47 L 24,45 L 23,44 L 23,43 L 20,40 L 20,39 L 19,38 L 19,37 L 16,34 L 16,33 L 17,32 L 17,30 L 18,29 L 18,21 L 17,20 L 17,15 L 15,13 L 15,10 L 13,8 L 13,4 L 14,3 L 14,1 L 13,0 Z" fill="none" stroke="black" stroke-width="1"/>
</svg>