<svg xmlns="http://www.w3.org/2000/svg" width="90" height="101">
  <path d="M 21,49 L 20,50 L 20,51 L 19,52 L 17,52 L 16,53 L 15,53 L 16,54 L 16,55 L 17,56 L 18,56 L 19,57 L 19,58 L 20,59 L 20,60 L 22,62 L 22,63 L 23,63 L 24,64 L 24,66 L 27,69 L 27,70 L 28,71 L 28,72 L 29,73 L 29,74 L 30,75 L 30,76 L 31,77 L 31,78 L 33,78 L 34,79 L 34,83 L 35,84 L 36,84 L 38,86 L 38,87 L 40,89 L 40,91 L 43,94 L 43,98 L 42,99 L 41,99 L 41,100 L 44,100 L 45,99 L 48,99 L 53,94 L 53,92 L 54,91 L 54,87 L 53,86 L 53,83 L 52,83 L 46,77 L 46,76 L 45,76 L 43,74 L 43,73 L 39,69 L 39,63 L 37,61 L 36,61 L 35,60 L 35,59 L 31,55 L 31,53 L 30,52 L 27,52 L 26,51 L 24,51 L 22,49 Z" fill="none" stroke="black" stroke-width="1"/>
</svg>