<svg xmlns="http://www.w3.org/2000/svg" width="61" height="73">
  <path d="M 31,45 L 30,46 L 29,46 L 27,48 L 25,48 L 21,52 L 19,52 L 18,53 L 16,53 L 15,54 L 14,54 L 13,55 L 12,55 L 10,57 L 8,57 L 8,58 L 7,59 L 7,60 L 6,61 L 6,62 L 7,63 L 7,65 L 6,66 L 8,68 L 9,68 L 13,72 L 16,72 L 17,71 L 18,71 L 19,70 L 25,70 L 26,69 L 28,69 L 29,68 L 34,68 L 34,67 L 35,66 L 36,66 L 37,65 L 40,65 L 40,64 L 43,61 L 43,59 L 40,59 L 39,58 L 39,57 L 36,57 L 35,56 L 35,54 L 36,53 L 36,51 L 32,47 L 32,45 Z" fill="none" stroke="black" stroke-width="1"/>
</svg>