<svg xmlns="http://www.w3.org/2000/svg" width="107" height="64">
  <path d="M 15,13 L 12,16 L 11,16 L 10,17 L 9,17 L 9,19 L 14,19 L 15,20 L 17,20 L 18,21 L 18,24 L 17,25 L 17,28 L 22,28 L 23,29 L 23,30 L 24,30 L 25,31 L 27,31 L 28,32 L 29,32 L 30,33 L 31,33 L 32,34 L 33,34 L 34,33 L 35,33 L 36,32 L 36,31 L 37,30 L 37,28 L 36,27 L 36,26 L 38,24 L 39,25 L 40,25 L 40,24 L 41,23 L 41,21 L 40,20 L 38,20 L 37,19 L 34,19 L 33,18 L 32,18 L 31,17 L 29,17 L 28,16 L 23,16 L 22,15 L 20,15 L 19,14 L 17,14 L 16,13 Z" fill="none" stroke="black" stroke-width="1"/>
</svg>