<svg xmlns="http://www.w3.org/2000/svg" width="61" height="73">
  <path d="M 15,32 L 15,33 L 14,34 L 14,36 L 12,38 L 11,38 L 8,41 L 7,41 L 6,42 L 5,41 L 4,41 L 3,42 L 3,43 L 2,44 L 2,46 L 1,47 L 1,52 L 0,53 L 0,54 L 1,55 L 3,55 L 4,56 L 10,56 L 12,54 L 13,54 L 14,53 L 15,53 L 16,52 L 18,52 L 19,51 L 21,51 L 25,47 L 27,47 L 29,45 L 30,45 L 31,44 L 32,44 L 32,43 L 31,42 L 30,42 L 28,40 L 28,39 L 27,38 L 26,38 L 25,37 L 23,37 L 20,34 L 20,33 L 19,32 Z" fill="none" stroke="black" stroke-width="1"/>
</svg>