<svg xmlns="http://www.w3.org/2000/svg" width="166" height="119">
  <path d="M 37,0 L 37,1 L 34,4 L 34,5 L 33,6 L 30,6 L 29,7 L 28,7 L 28,8 L 27,9 L 22,9 L 21,10 L 19,10 L 18,11 L 12,11 L 11,12 L 10,12 L 9,13 L 6,13 L 6,14 L 5,15 L 3,15 L 4,16 L 4,18 L 5,19 L 5,20 L 6,21 L 5,22 L 7,24 L 9,24 L 10,25 L 10,26 L 11,27 L 11,29 L 12,29 L 14,31 L 14,34 L 12,36 L 12,37 L 11,38 L 6,38 L 5,39 L 2,39 L 0,41 L 0,42 L 2,44 L 3,44 L 5,46 L 7,46 L 8,47 L 8,48 L 9,48 L 10,49 L 10,52 L 9,53 L 9,55 L 10,56 L 10,59 L 11,60 L 11,62 L 12,63 L 12,64 L 15,67 L 17,67 L 19,65 L 20,65 L 21,64 L 22,64 L 23,65 L 26,65 L 27,66 L 28,66 L 29,67 L 38,67 L 38,66 L 39,65 L 39,64 L 42,61 L 44,61 L 45,60 L 48,60 L 50,58 L 51,58 L 52,57 L 53,57 L 55,55 L 56,55 L 58,53 L 58,52 L 59,51 L 59,44 L 60,43 L 61,43 L 62,42 L 65,42 L 67,40 L 68,40 L 69,39 L 69,38 L 71,36 L 72,36 L 73,35 L 74,35 L 73,34 L 73,32 L 72,31 L 68,31 L 67,30 L 67,29 L 66,28 L 64,28 L 63,27 L 63,24 L 64,23 L 64,22 L 65,21 L 66,21 L 67,20 L 67,19 L 70,16 L 70,13 L 69,13 L 66,10 L 65,10 L 64,9 L 59,9 L 58,8 L 57,8 L 56,7 L 54,7 L 53,6 L 51,6 L 50,5 L 48,5 L 45,2 L 44,2 L 43,1 L 39,1 L 38,0 Z" fill="none" stroke="black" stroke-width="1"/>
</svg>