<svg xmlns="http://www.w3.org/2000/svg" width="101" height="78">
  <path d="M 41,26 L 40,27 L 39,27 L 39,29 L 37,31 L 36,31 L 36,32 L 33,35 L 28,35 L 28,39 L 27,40 L 26,40 L 22,44 L 19,44 L 18,43 L 16,43 L 15,42 L 14,42 L 13,41 L 10,41 L 9,42 L 7,42 L 6,43 L 6,46 L 7,47 L 7,50 L 8,51 L 7,52 L 7,53 L 6,54 L 6,56 L 9,59 L 8,60 L 8,62 L 9,63 L 9,64 L 10,65 L 10,66 L 11,67 L 11,68 L 12,68 L 13,69 L 16,69 L 17,70 L 19,70 L 20,71 L 20,72 L 21,73 L 21,75 L 23,77 L 24,77 L 24,76 L 25,75 L 28,75 L 29,76 L 30,76 L 31,75 L 33,75 L 35,73 L 36,73 L 37,72 L 38,72 L 40,70 L 43,70 L 48,65 L 48,64 L 53,59 L 54,59 L 55,58 L 56,58 L 57,57 L 61,57 L 62,58 L 64,58 L 65,59 L 66,59 L 67,60 L 69,60 L 70,61 L 72,61 L 73,60 L 74,60 L 75,59 L 74,58 L 74,57 L 75,56 L 75,54 L 76,53 L 76,50 L 74,48 L 74,47 L 73,46 L 72,46 L 71,45 L 71,44 L 69,42 L 69,38 L 67,36 L 62,36 L 61,35 L 61,34 L 60,33 L 60,32 L 59,31 L 59,30 L 58,30 L 56,28 L 55,28 L 54,29 L 52,29 L 51,28 L 50,28 L 49,27 L 43,27 L 42,26 Z" fill="none" stroke="black" stroke-width="1"/>
</svg>