<svg xmlns="http://www.w3.org/2000/svg" width="101" height="78">
  <path d="M 82,0 L 81,1 L 79,1 L 77,3 L 77,4 L 76,5 L 75,5 L 75,6 L 74,7 L 73,7 L 73,8 L 70,11 L 67,11 L 66,12 L 66,16 L 63,19 L 60,19 L 59,20 L 57,20 L 56,21 L 55,21 L 55,22 L 56,22 L 61,27 L 60,28 L 59,28 L 59,29 L 60,30 L 60,31 L 61,32 L 61,33 L 62,34 L 62,35 L 67,35 L 69,37 L 70,37 L 71,36 L 72,36 L 73,35 L 74,35 L 74,34 L 75,33 L 76,33 L 77,32 L 78,32 L 79,31 L 80,31 L 81,30 L 83,30 L 84,29 L 84,28 L 86,26 L 87,26 L 87,24 L 88,23 L 88,22 L 89,21 L 91,21 L 92,20 L 92,13 L 91,12 L 91,11 L 90,10 L 90,8 L 89,7 L 89,6 L 90,5 L 89,4 L 89,3 L 88,2 L 88,1 L 86,1 L 85,2 L 83,2 L 82,1 Z" fill="none" stroke="black" stroke-width="1"/>
</svg>