<svg xmlns="http://www.w3.org/2000/svg" width="131" height="101">
  <path d="M 77,0 L 75,2 L 73,2 L 72,3 L 73,4 L 73,5 L 72,6 L 72,9 L 70,11 L 69,11 L 66,14 L 56,14 L 55,15 L 54,15 L 53,16 L 53,18 L 52,19 L 52,20 L 53,21 L 52,22 L 52,23 L 54,25 L 55,25 L 57,27 L 57,29 L 56,30 L 56,31 L 58,31 L 59,32 L 62,32 L 65,35 L 74,35 L 75,34 L 75,33 L 79,29 L 80,29 L 81,28 L 83,28 L 85,26 L 87,26 L 89,24 L 93,24 L 94,23 L 94,17 L 92,15 L 92,14 L 89,11 L 88,11 L 85,8 L 85,5 L 84,4 L 82,4 L 80,2 L 79,2 L 78,1 L 78,0 Z" fill="none" stroke="black" stroke-width="1"/>
</svg>