<svg xmlns="http://www.w3.org/2000/svg" width="69" height="88">
  <path d="M 44,0 L 42,2 L 41,2 L 40,3 L 40,4 L 39,5 L 38,5 L 37,6 L 36,6 L 36,8 L 38,10 L 38,11 L 37,12 L 36,12 L 34,14 L 33,14 L 31,16 L 30,16 L 29,17 L 28,17 L 25,20 L 23,20 L 22,19 L 21,19 L 21,21 L 20,22 L 20,23 L 21,24 L 21,25 L 22,25 L 25,28 L 25,30 L 26,31 L 26,34 L 25,35 L 25,36 L 27,38 L 27,39 L 29,41 L 32,41 L 33,42 L 35,40 L 36,40 L 37,39 L 43,39 L 44,38 L 45,38 L 46,37 L 47,37 L 48,36 L 52,36 L 53,37 L 54,37 L 55,38 L 57,38 L 57,37 L 56,36 L 56,33 L 57,32 L 57,31 L 59,29 L 60,29 L 61,28 L 61,27 L 62,26 L 62,24 L 63,23 L 60,20 L 60,18 L 59,17 L 59,16 L 57,16 L 56,15 L 53,15 L 52,14 L 51,14 L 50,13 L 50,12 L 49,11 L 49,10 L 48,9 L 48,8 L 47,7 L 47,5 L 48,4 L 45,1 L 45,0 Z" fill="none" stroke="black" stroke-width="1"/>
</svg>