<svg xmlns="http://www.w3.org/2000/svg" width="69" height="88">
  <path d="M 24,56 L 22,58 L 19,58 L 18,59 L 18,60 L 19,61 L 20,61 L 22,63 L 23,63 L 24,64 L 24,65 L 25,66 L 26,66 L 28,68 L 28,71 L 29,71 L 30,72 L 30,73 L 31,74 L 31,76 L 32,77 L 32,78 L 33,78 L 34,79 L 33,80 L 33,81 L 35,83 L 34,84 L 34,85 L 36,87 L 37,87 L 37,86 L 38,85 L 39,85 L 41,83 L 43,85 L 46,85 L 48,83 L 49,83 L 49,82 L 50,81 L 50,77 L 49,76 L 49,75 L 48,74 L 48,73 L 49,72 L 49,69 L 50,68 L 50,67 L 46,67 L 45,66 L 44,66 L 43,65 L 43,64 L 40,61 L 40,60 L 36,56 L 33,56 L 32,57 L 31,57 L 30,58 L 28,58 L 26,56 Z" fill="none" stroke="black" stroke-width="1"/>
</svg>