<svg xmlns="http://www.w3.org/2000/svg" width="51" height="101">
  <path d="M 20,77 L 19,78 L 20,79 L 21,78 Z" fill="none" stroke="black" stroke-width="1"/>
  <path d="M 18,55 L 17,56 L 17,57 L 18,56 Z" fill="none" stroke="black" stroke-width="1"/>
  <path d="M 25,37 L 24,38 L 23,38 L 22,39 L 21,39 L 21,42 L 22,43 L 22,47 L 19,50 L 19,51 L 20,52 L 20,53 L 21,54 L 21,56 L 19,58 L 20,58 L 22,60 L 22,61 L 23,62 L 23,63 L 24,64 L 23,65 L 24,66 L 24,68 L 25,69 L 24,70 L 24,71 L 25,72 L 25,74 L 26,75 L 25,76 L 25,78 L 26,78 L 27,79 L 28,79 L 29,78 L 33,78 L 34,79 L 35,79 L 37,77 L 38,78 L 38,76 L 40,74 L 40,73 L 39,73 L 37,71 L 37,70 L 36,70 L 35,69 L 35,68 L 31,64 L 31,63 L 32,62 L 32,60 L 31,60 L 30,59 L 30,57 L 29,56 L 32,53 L 32,52 L 34,50 L 34,46 L 32,44 L 32,43 L 30,41 L 29,41 L 28,40 L 28,39 L 27,38 L 27,37 Z" fill="none" stroke="black" stroke-width="1"/>
</svg>