<svg xmlns="http://www.w3.org/2000/svg" width="97" height="68">
  <path d="M 2,11 L 2,12 L 0,14 L 1,15 L 1,16 L 2,17 L 2,20 L 1,21 L 1,23 L 0,24 L 0,26 L 1,27 L 2,27 L 4,29 L 5,29 L 7,31 L 8,31 L 9,30 L 11,30 L 13,32 L 13,34 L 18,34 L 19,35 L 21,35 L 22,34 L 24,34 L 25,33 L 28,33 L 29,32 L 29,29 L 28,28 L 29,27 L 29,26 L 28,25 L 26,25 L 25,26 L 24,25 L 24,24 L 23,23 L 22,23 L 21,22 L 21,21 L 20,20 L 19,20 L 18,19 L 16,19 L 12,15 L 12,14 L 10,14 L 9,13 L 7,13 L 6,12 L 5,12 L 4,11 Z" fill="none" stroke="black" stroke-width="1"/>
</svg>