<svg xmlns="http://www.w3.org/2000/svg" width="61" height="52">
  <path d="M 20,29 L 18,31 L 18,33 L 16,35 L 15,35 L 14,36 L 12,36 L 9,39 L 7,39 L 6,40 L 6,41 L 7,41 L 8,42 L 8,43 L 9,44 L 10,44 L 12,46 L 13,46 L 15,44 L 20,44 L 23,47 L 23,48 L 26,51 L 28,51 L 28,50 L 30,48 L 32,48 L 33,47 L 34,47 L 35,46 L 35,44 L 36,43 L 36,42 L 35,41 L 36,40 L 36,38 L 35,37 L 35,36 L 34,35 L 33,35 L 31,33 L 29,33 L 28,32 L 27,32 L 25,30 L 24,30 L 23,29 L 22,30 L 21,29 Z" fill="none" stroke="black" stroke-width="1"/>
</svg>