<svg xmlns="http://www.w3.org/2000/svg" width="66" height="70">
  <path d="M 23,33 L 22,34 L 20,34 L 19,35 L 18,35 L 19,36 L 18,37 L 17,37 L 15,39 L 15,41 L 16,42 L 16,45 L 15,46 L 15,47 L 17,49 L 17,50 L 18,51 L 17,52 L 17,54 L 18,55 L 18,57 L 19,58 L 19,61 L 17,63 L 17,64 L 18,65 L 18,66 L 19,66 L 21,68 L 22,68 L 23,67 L 24,67 L 27,64 L 31,64 L 34,67 L 34,68 L 35,69 L 36,69 L 37,68 L 36,67 L 37,66 L 37,65 L 40,62 L 40,61 L 39,60 L 42,57 L 42,56 L 41,55 L 40,55 L 39,54 L 39,51 L 38,51 L 36,49 L 35,49 L 34,48 L 34,47 L 33,46 L 33,45 L 32,45 L 31,44 L 30,44 L 29,43 L 28,43 L 27,42 L 27,41 L 25,39 L 25,38 L 26,37 L 25,36 L 25,34 L 24,33 Z" fill="none" stroke="black" stroke-width="1"/>
</svg>