<svg xmlns="http://www.w3.org/2000/svg" width="75" height="89">
  <path d="M 22,0 L 21,1 L 19,1 L 15,5 L 13,5 L 12,6 L 10,6 L 9,7 L 7,7 L 6,8 L 6,9 L 5,10 L 4,10 L 3,11 L 0,11 L 0,12 L 1,13 L 0,14 L 0,15 L 2,17 L 4,17 L 5,18 L 6,17 L 7,18 L 7,19 L 8,20 L 8,22 L 9,21 L 12,21 L 15,24 L 17,24 L 18,23 L 21,23 L 23,21 L 31,21 L 32,22 L 33,22 L 34,23 L 35,23 L 36,24 L 38,24 L 39,25 L 39,23 L 40,22 L 40,21 L 42,19 L 43,19 L 45,17 L 47,17 L 48,16 L 50,16 L 51,15 L 52,15 L 53,14 L 55,14 L 56,13 L 59,13 L 59,12 L 57,10 L 55,10 L 54,9 L 53,9 L 52,8 L 47,8 L 46,7 L 46,6 L 42,6 L 41,5 L 41,4 L 40,4 L 39,3 L 34,3 L 33,2 L 28,2 L 26,0 Z" fill="none" stroke="black" stroke-width="1"/>
</svg>