<svg xmlns="http://www.w3.org/2000/svg" width="62" height="70">
  <path d="M 52,39 L 52,40 L 51,41 L 51,42 L 50,43 L 49,43 L 48,44 L 47,44 L 47,45 L 46,46 L 44,46 L 44,48 L 43,49 L 43,50 L 42,51 L 42,52 L 41,53 L 41,58 L 40,59 L 39,59 L 38,60 L 39,61 L 39,62 L 41,64 L 41,66 L 43,68 L 43,69 L 44,68 L 44,67 L 45,66 L 45,65 L 51,59 L 52,59 L 53,58 L 54,58 L 54,56 L 55,55 L 55,54 L 57,52 L 57,51 L 59,49 L 59,47 L 61,45 L 61,41 L 60,40 L 57,40 L 56,39 Z" fill="none" stroke="black" stroke-width="1"/>
</svg>