<svg xmlns="http://www.w3.org/2000/svg" width="58" height="48">
  <path d="M 43,20 L 43,21 L 42,22 L 42,23 L 40,25 L 39,25 L 38,26 L 38,29 L 39,30 L 36,33 L 36,35 L 35,36 L 35,37 L 33,39 L 32,39 L 32,43 L 33,44 L 33,45 L 34,45 L 35,46 L 36,46 L 37,45 L 38,46 L 40,46 L 41,47 L 44,47 L 48,43 L 49,43 L 49,38 L 50,37 L 50,36 L 51,35 L 51,34 L 52,33 L 52,31 L 53,30 L 55,30 L 55,29 L 56,28 L 57,28 L 57,26 L 54,23 L 54,22 L 52,20 L 50,20 L 48,22 L 47,22 L 45,20 Z" fill="none" stroke="black" stroke-width="1"/>
</svg>