<svg xmlns="http://www.w3.org/2000/svg" width="73" height="57">
  <path d="M 48,14 L 47,15 L 47,18 L 45,20 L 45,21 L 44,22 L 43,22 L 42,23 L 41,23 L 39,25 L 39,26 L 37,28 L 36,28 L 36,29 L 35,30 L 33,30 L 33,34 L 34,34 L 36,36 L 38,36 L 39,37 L 39,38 L 40,39 L 44,39 L 46,41 L 46,44 L 47,45 L 49,45 L 51,47 L 53,47 L 54,46 L 54,44 L 55,43 L 55,39 L 58,36 L 58,33 L 59,32 L 59,31 L 60,30 L 60,26 L 59,26 L 57,24 L 57,23 L 55,21 L 55,20 L 53,18 L 53,16 L 50,16 L 49,15 L 49,14 Z" fill="none" stroke="black" stroke-width="1"/>
</svg>