<svg xmlns="http://www.w3.org/2000/svg" width="86" height="69">
  <path d="M 2,0 L 2,1 L 1,2 L 1,5 L 0,6 L 0,9 L 1,9 L 2,10 L 2,11 L 3,12 L 3,13 L 4,13 L 8,17 L 8,22 L 11,22 L 12,23 L 12,25 L 11,26 L 10,25 L 10,26 L 12,28 L 13,28 L 14,29 L 14,30 L 15,31 L 15,35 L 18,35 L 19,34 L 23,34 L 24,35 L 24,36 L 26,38 L 29,38 L 30,39 L 32,39 L 32,38 L 33,37 L 34,37 L 35,36 L 35,35 L 33,33 L 29,33 L 28,32 L 28,31 L 27,30 L 27,29 L 25,27 L 23,27 L 19,23 L 19,17 L 20,16 L 20,14 L 17,11 L 17,9 L 16,10 L 15,10 L 13,8 L 13,7 L 12,6 L 11,7 L 10,7 L 9,8 L 8,8 L 6,6 L 6,5 L 5,5 L 4,4 L 4,3 L 3,2 L 3,0 Z" fill="none" stroke="black" stroke-width="1"/>
</svg>