<svg xmlns="http://www.w3.org/2000/svg" width="94" height="66">
  <path d="M 70,13 L 69,14 L 69,15 L 67,17 L 65,17 L 65,18 L 63,20 L 61,20 L 60,19 L 59,19 L 58,20 L 58,21 L 57,22 L 57,23 L 55,25 L 55,26 L 57,26 L 59,28 L 59,30 L 60,30 L 61,31 L 62,31 L 64,33 L 64,38 L 66,40 L 66,44 L 67,45 L 67,46 L 70,49 L 69,50 L 69,52 L 72,52 L 73,53 L 75,53 L 77,51 L 80,51 L 83,54 L 86,54 L 87,55 L 88,55 L 88,54 L 89,53 L 90,53 L 90,52 L 91,51 L 91,49 L 92,48 L 92,45 L 93,44 L 92,43 L 91,43 L 88,40 L 87,40 L 86,39 L 86,38 L 84,36 L 82,36 L 81,35 L 81,34 L 78,31 L 78,30 L 76,28 L 78,26 L 75,23 L 76,22 L 76,19 L 74,19 L 72,17 L 72,14 L 71,13 Z" fill="none" stroke="black" stroke-width="1"/>
</svg>