<svg xmlns="http://www.w3.org/2000/svg" width="91" height="62">
  <path d="M 43,0 L 42,1 L 37,1 L 36,2 L 33,2 L 32,1 L 30,1 L 30,5 L 29,6 L 29,8 L 28,9 L 28,10 L 25,13 L 25,14 L 26,15 L 27,15 L 28,16 L 30,16 L 32,18 L 33,18 L 35,16 L 39,16 L 40,17 L 41,16 L 43,18 L 43,19 L 47,19 L 48,18 L 48,17 L 49,16 L 55,16 L 56,17 L 56,18 L 58,18 L 59,17 L 64,17 L 65,18 L 66,17 L 66,15 L 65,14 L 65,13 L 64,13 L 63,12 L 63,10 L 62,9 L 61,9 L 57,5 L 56,5 L 55,4 L 55,2 L 53,0 L 51,0 L 50,1 L 47,1 L 46,0 Z" fill="none" stroke="black" stroke-width="1"/>
</svg>