<svg xmlns="http://www.w3.org/2000/svg" width="67" height="52">
  <path d="M 4,0 L 3,1 L 2,1 L 1,2 L 0,2 L 0,3 L 2,5 L 2,7 L 3,7 L 7,11 L 7,12 L 8,12 L 9,13 L 9,14 L 8,15 L 7,15 L 7,17 L 6,18 L 5,18 L 5,23 L 6,24 L 7,24 L 8,25 L 8,26 L 11,26 L 13,24 L 15,24 L 16,25 L 20,25 L 21,24 L 22,24 L 22,22 L 24,20 L 28,20 L 29,19 L 29,16 L 27,14 L 26,14 L 25,13 L 26,12 L 26,11 L 25,10 L 24,10 L 23,9 L 23,6 L 22,5 L 22,4 L 20,2 L 19,2 L 17,4 L 15,4 L 13,2 L 13,1 L 12,0 L 9,0 L 8,1 L 7,1 L 6,0 Z" fill="none" stroke="black" stroke-width="1"/>
</svg>