<svg xmlns="http://www.w3.org/2000/svg" width="67" height="52">
  <path d="M 30,18 L 30,19 L 28,21 L 24,21 L 23,22 L 23,24 L 22,25 L 21,25 L 20,26 L 18,26 L 18,27 L 19,27 L 20,28 L 20,32 L 21,32 L 23,34 L 22,35 L 22,37 L 23,37 L 24,38 L 24,39 L 27,42 L 27,43 L 28,43 L 30,45 L 31,45 L 32,46 L 32,47 L 33,47 L 33,46 L 35,44 L 36,44 L 38,46 L 38,48 L 38,47 L 40,45 L 42,45 L 42,44 L 41,44 L 40,43 L 41,42 L 41,41 L 40,41 L 39,40 L 39,38 L 38,38 L 37,37 L 39,35 L 40,35 L 41,34 L 41,31 L 40,30 L 40,29 L 38,27 L 37,27 L 35,25 L 35,24 L 34,23 L 34,22 L 33,21 L 33,19 L 32,19 L 31,18 Z" fill="none" stroke="black" stroke-width="1"/>
</svg>