<svg xmlns="http://www.w3.org/2000/svg" width="81" height="51">
  <path d="M 39,25 L 37,27 L 36,26 L 35,27 L 34,27 L 33,28 L 32,28 L 31,29 L 31,30 L 30,31 L 30,34 L 31,35 L 31,37 L 32,37 L 33,38 L 36,38 L 37,37 L 39,37 L 42,40 L 42,42 L 43,42 L 47,46 L 48,46 L 50,48 L 50,50 L 52,50 L 53,49 L 54,49 L 54,48 L 53,47 L 54,46 L 57,46 L 57,45 L 58,44 L 61,44 L 61,39 L 60,38 L 60,35 L 57,32 L 57,31 L 55,31 L 54,32 L 53,32 L 49,28 L 48,29 L 47,29 L 46,28 L 43,28 L 42,27 L 42,26 L 41,26 L 40,25 Z" fill="none" stroke="black" stroke-width="1"/>
</svg>