<svg xmlns="http://www.w3.org/2000/svg" width="81" height="51">
  <path d="M 47,11 L 45,13 L 44,13 L 43,12 L 42,12 L 41,13 L 41,15 L 39,17 L 39,21 L 40,22 L 40,24 L 41,25 L 42,25 L 43,26 L 43,27 L 46,27 L 47,28 L 48,28 L 49,27 L 53,31 L 54,31 L 55,30 L 57,30 L 58,31 L 58,32 L 61,35 L 61,38 L 62,39 L 62,40 L 63,40 L 64,39 L 66,39 L 68,41 L 69,41 L 70,40 L 71,40 L 72,39 L 73,39 L 72,38 L 72,36 L 70,36 L 68,34 L 68,32 L 69,31 L 69,28 L 68,27 L 69,26 L 69,25 L 68,25 L 66,23 L 66,22 L 65,21 L 64,21 L 63,22 L 61,22 L 59,20 L 58,20 L 57,21 L 56,20 L 53,20 L 52,19 L 51,19 L 50,18 L 52,16 L 53,16 L 53,13 L 51,11 Z" fill="none" stroke="black" stroke-width="1"/>
</svg>