<svg xmlns="http://www.w3.org/2000/svg" width="65" height="77">
  <path d="M 25,12 L 25,13 L 24,14 L 24,16 L 21,19 L 21,20 L 20,21 L 21,22 L 21,23 L 20,24 L 20,26 L 19,27 L 18,27 L 20,29 L 23,29 L 24,30 L 29,30 L 30,31 L 31,31 L 33,33 L 34,33 L 35,34 L 36,33 L 38,33 L 39,34 L 41,34 L 41,33 L 39,31 L 40,30 L 40,29 L 41,28 L 41,27 L 42,26 L 43,26 L 43,22 L 44,21 L 43,20 L 40,20 L 39,19 L 38,19 L 37,18 L 36,18 L 35,17 L 33,17 L 32,16 L 32,15 L 31,15 L 29,13 L 27,13 L 26,12 Z" fill="none" stroke="black" stroke-width="1"/>
</svg>