<svg xmlns="http://www.w3.org/2000/svg" width="55" height="50">
  <path d="M 6,0 L 5,1 L 2,1 L 2,3 L 1,4 L 1,5 L 3,7 L 3,9 L 0,12 L 0,13 L 2,15 L 3,15 L 4,16 L 4,19 L 3,20 L 3,21 L 4,22 L 4,24 L 6,24 L 7,23 L 8,23 L 9,22 L 10,22 L 11,21 L 20,21 L 21,22 L 22,22 L 23,23 L 23,25 L 26,28 L 27,28 L 27,26 L 29,24 L 29,22 L 31,20 L 31,14 L 30,13 L 30,10 L 29,10 L 25,6 L 25,2 L 21,2 L 20,3 L 19,3 L 18,2 L 17,2 L 16,1 L 16,0 L 15,0 L 15,1 L 14,2 L 11,2 L 10,1 L 8,1 L 7,0 Z" fill="none" stroke="black" stroke-width="1"/>
</svg>