<svg xmlns="http://www.w3.org/2000/svg" width="98" height="44">
  <path d="M 2,21 L 1,22 L 1,23 L 0,24 L 6,30 L 5,31 L 4,31 L 3,32 L 3,33 L 5,33 L 8,36 L 8,39 L 9,40 L 10,40 L 11,39 L 12,39 L 14,41 L 20,41 L 21,42 L 23,42 L 24,41 L 27,41 L 28,40 L 30,40 L 30,39 L 31,38 L 31,37 L 30,36 L 30,35 L 28,33 L 30,31 L 31,32 L 32,32 L 33,31 L 33,30 L 34,29 L 34,28 L 33,27 L 32,28 L 28,28 L 27,27 L 26,27 L 25,26 L 21,26 L 20,25 L 20,24 L 19,23 L 18,23 L 17,22 L 12,22 L 11,23 L 9,23 L 8,22 L 3,22 Z" fill="none" stroke="black" stroke-width="1"/>
</svg>