<svg xmlns="http://www.w3.org/2000/svg" width="80" height="48">
  <path d="M 34,0 L 33,1 L 31,1 L 30,2 L 29,2 L 28,3 L 27,3 L 26,2 L 24,2 L 22,4 L 21,4 L 20,5 L 19,5 L 19,9 L 21,11 L 21,12 L 22,13 L 22,16 L 27,21 L 26,22 L 26,25 L 27,26 L 27,27 L 29,29 L 32,29 L 35,26 L 40,26 L 41,27 L 45,27 L 46,26 L 45,25 L 45,23 L 48,20 L 48,19 L 49,18 L 49,17 L 48,16 L 48,15 L 49,14 L 49,13 L 47,11 L 47,10 L 48,9 L 48,8 L 47,7 L 45,7 L 44,6 L 44,5 L 42,5 L 41,4 L 40,4 L 39,3 L 38,3 L 35,0 Z" fill="none" stroke="black" stroke-width="1"/>
</svg>