<svg xmlns="http://www.w3.org/2000/svg" width="90" height="97">
  <path d="M 58,0 L 57,1 L 56,1 L 56,2 L 55,3 L 54,3 L 54,5 L 53,6 L 53,7 L 52,8 L 51,8 L 51,9 L 50,10 L 50,11 L 48,13 L 46,13 L 45,14 L 45,15 L 43,17 L 40,17 L 39,18 L 38,17 L 35,17 L 34,16 L 34,15 L 33,15 L 32,14 L 30,14 L 29,15 L 28,15 L 28,16 L 29,17 L 29,19 L 30,20 L 30,22 L 28,24 L 28,25 L 27,26 L 26,25 L 25,25 L 25,28 L 26,28 L 30,32 L 30,34 L 31,35 L 31,36 L 32,37 L 32,38 L 34,40 L 34,42 L 35,43 L 32,46 L 32,50 L 33,51 L 33,52 L 34,53 L 34,54 L 35,54 L 36,53 L 40,53 L 42,55 L 46,55 L 46,54 L 47,53 L 47,52 L 49,50 L 54,50 L 54,49 L 55,48 L 57,48 L 58,47 L 65,47 L 66,46 L 70,46 L 71,47 L 74,47 L 75,46 L 77,46 L 78,45 L 78,43 L 77,42 L 77,40 L 78,39 L 78,34 L 79,33 L 79,30 L 77,28 L 77,27 L 76,27 L 75,26 L 75,24 L 78,21 L 79,21 L 80,20 L 76,16 L 76,13 L 74,11 L 74,9 L 70,5 L 69,5 L 68,4 L 68,3 L 66,3 L 64,1 L 63,1 L 62,0 Z" fill="none" stroke="black" stroke-width="1"/>
</svg>