<svg xmlns="http://www.w3.org/2000/svg" width="57" height="55">
  <path d="M 36,14 L 35,15 L 35,16 L 32,19 L 31,19 L 31,20 L 30,21 L 30,22 L 29,23 L 29,24 L 28,25 L 31,28 L 31,31 L 27,35 L 27,36 L 28,37 L 32,37 L 34,35 L 36,35 L 37,34 L 37,32 L 38,31 L 40,31 L 41,30 L 43,30 L 45,28 L 46,28 L 47,27 L 48,27 L 48,25 L 49,24 L 51,24 L 52,23 L 54,23 L 56,21 L 56,18 L 55,17 L 55,16 L 54,16 L 53,15 L 53,14 L 50,14 L 49,15 L 48,15 L 47,16 L 41,16 L 39,14 Z" fill="none" stroke="black" stroke-width="1"/>
</svg>