<svg xmlns="http://www.w3.org/2000/svg" width="81" height="43">
  <path d="M 11,13 L 10,14 L 9,14 L 8,15 L 4,15 L 2,17 L 2,20 L 1,21 L 1,23 L 0,24 L 0,26 L 4,26 L 5,27 L 6,27 L 9,30 L 9,34 L 10,35 L 10,38 L 13,38 L 15,40 L 21,40 L 22,39 L 23,39 L 24,38 L 25,38 L 24,37 L 24,35 L 23,34 L 23,33 L 24,32 L 27,32 L 28,31 L 29,31 L 31,29 L 31,27 L 30,26 L 30,24 L 29,24 L 28,23 L 30,21 L 30,19 L 32,17 L 32,16 L 24,16 L 23,15 L 21,15 L 20,16 L 17,13 Z" fill="none" stroke="black" stroke-width="1"/>
</svg>