<svg xmlns="http://www.w3.org/2000/svg" width="84" height="45">
  <path d="M 10,14 L 9,15 L 6,15 L 5,16 L 5,17 L 2,20 L 1,20 L 1,22 L 2,23 L 2,24 L 0,26 L 0,29 L 1,30 L 1,31 L 2,31 L 5,34 L 6,34 L 7,35 L 8,35 L 9,36 L 11,36 L 12,37 L 12,38 L 14,38 L 16,40 L 16,41 L 17,40 L 18,40 L 19,41 L 22,41 L 23,42 L 24,42 L 24,41 L 25,40 L 28,40 L 29,39 L 30,39 L 30,37 L 29,37 L 28,36 L 26,36 L 25,35 L 25,34 L 24,33 L 24,32 L 23,31 L 22,31 L 21,30 L 20,30 L 19,29 L 19,28 L 18,27 L 18,26 L 17,26 L 16,25 L 16,24 L 15,24 L 12,21 L 12,17 L 11,17 L 10,16 Z" fill="none" stroke="black" stroke-width="1"/>
</svg>