<svg xmlns="http://www.w3.org/2000/svg" width="62" height="39">
  <path d="M 54,0 L 54,2 L 53,3 L 52,2 L 52,4 L 51,5 L 50,5 L 50,6 L 49,7 L 48,7 L 48,8 L 47,9 L 46,9 L 45,10 L 39,10 L 38,9 L 38,11 L 39,12 L 38,13 L 38,14 L 37,15 L 37,17 L 38,18 L 39,18 L 40,19 L 40,20 L 42,20 L 44,22 L 44,23 L 45,23 L 47,21 L 48,21 L 49,20 L 50,20 L 51,19 L 51,18 L 52,17 L 53,17 L 54,16 L 54,14 L 55,13 L 56,13 L 57,12 L 58,12 L 59,11 L 59,10 L 60,9 L 61,9 L 61,6 L 60,5 L 60,3 L 58,3 L 55,0 Z" fill="none" stroke="black" stroke-width="1"/>
</svg>