<svg xmlns="http://www.w3.org/2000/svg" width="62" height="39">
  <path d="M 19,7 L 18,8 L 19,9 L 19,10 L 15,14 L 15,16 L 14,17 L 11,17 L 10,18 L 6,18 L 5,17 L 3,17 L 1,15 L 0,15 L 0,18 L 1,18 L 2,19 L 2,25 L 3,26 L 2,27 L 2,33 L 4,35 L 4,36 L 8,36 L 9,37 L 12,37 L 13,38 L 14,38 L 15,37 L 16,37 L 16,35 L 17,34 L 17,33 L 16,32 L 17,31 L 17,30 L 19,28 L 20,28 L 20,27 L 21,26 L 25,26 L 26,25 L 28,25 L 28,23 L 31,20 L 31,19 L 30,19 L 29,18 L 28,18 L 26,16 L 26,10 L 24,8 L 25,7 Z" fill="none" stroke="black" stroke-width="1"/>
</svg>