<svg xmlns="http://www.w3.org/2000/svg" width="97" height="68">
  <path d="M 79,23 L 77,25 L 74,25 L 73,26 L 69,26 L 68,25 L 65,28 L 62,28 L 61,27 L 59,27 L 58,26 L 57,26 L 57,27 L 56,28 L 54,28 L 52,30 L 51,30 L 51,31 L 48,34 L 46,34 L 46,35 L 45,36 L 44,36 L 42,38 L 42,39 L 45,42 L 45,43 L 47,43 L 50,46 L 52,46 L 53,47 L 54,47 L 56,49 L 56,50 L 59,50 L 60,49 L 61,49 L 62,50 L 65,50 L 67,52 L 72,52 L 73,53 L 73,54 L 75,54 L 76,53 L 78,53 L 79,54 L 79,53 L 81,51 L 81,49 L 80,48 L 80,46 L 79,45 L 79,44 L 80,43 L 81,43 L 82,42 L 84,42 L 85,43 L 86,43 L 87,44 L 87,45 L 90,45 L 91,46 L 92,45 L 95,45 L 96,44 L 96,42 L 94,40 L 93,40 L 92,39 L 92,38 L 91,37 L 89,37 L 87,35 L 86,35 L 85,34 L 85,33 L 84,32 L 84,31 L 83,30 L 83,28 L 82,27 L 82,26 L 81,25 L 81,24 L 80,23 Z" fill="none" stroke="black" stroke-width="1"/>
</svg>