<svg xmlns="http://www.w3.org/2000/svg" width="61" height="65">
  <path d="M 3,0 L 2,1 L 0,1 L 0,4 L 1,5 L 1,6 L 2,7 L 2,8 L 3,9 L 3,10 L 1,12 L 1,15 L 3,17 L 3,20 L 4,21 L 4,22 L 5,23 L 5,24 L 7,26 L 7,27 L 9,27 L 10,28 L 10,29 L 12,29 L 13,30 L 16,30 L 17,31 L 19,31 L 20,30 L 21,31 L 22,31 L 23,32 L 24,31 L 27,31 L 27,24 L 28,23 L 28,17 L 27,16 L 27,14 L 26,13 L 26,11 L 25,10 L 22,10 L 21,9 L 21,7 L 20,7 L 19,6 L 19,5 L 18,4 L 18,3 L 17,3 L 14,0 L 9,0 L 8,1 L 7,0 Z" fill="none" stroke="black" stroke-width="1"/>
</svg>