<svg xmlns="http://www.w3.org/2000/svg" width="77" height="63">
  <path d="M 32,28 L 31,29 L 31,31 L 32,32 L 31,33 L 29,33 L 28,32 L 26,32 L 25,31 L 23,31 L 22,32 L 21,32 L 21,33 L 22,34 L 22,38 L 23,38 L 24,39 L 29,39 L 30,40 L 30,42 L 29,43 L 29,44 L 28,45 L 28,46 L 30,48 L 34,48 L 35,49 L 36,49 L 37,50 L 37,51 L 36,52 L 37,52 L 38,53 L 38,55 L 37,56 L 44,56 L 45,57 L 46,57 L 47,56 L 48,56 L 49,55 L 51,55 L 52,56 L 53,56 L 53,55 L 55,53 L 55,52 L 56,51 L 56,50 L 55,49 L 55,48 L 54,47 L 54,46 L 51,46 L 49,44 L 47,44 L 46,43 L 46,42 L 47,41 L 47,40 L 46,39 L 45,39 L 43,37 L 43,35 L 41,33 L 41,32 L 40,32 L 37,29 L 35,29 L 34,28 Z" fill="none" stroke="black" stroke-width="1"/>
</svg>