<svg xmlns="http://www.w3.org/2000/svg" width="55" height="50">
  <path d="M 32,20 L 30,22 L 30,24 L 28,26 L 28,28 L 27,29 L 26,29 L 26,35 L 27,36 L 27,40 L 29,42 L 29,45 L 31,45 L 32,46 L 34,46 L 35,45 L 36,45 L 37,46 L 37,47 L 38,46 L 39,46 L 42,49 L 43,49 L 44,48 L 50,48 L 51,49 L 52,48 L 53,49 L 54,49 L 54,48 L 53,47 L 53,46 L 50,43 L 50,40 L 51,39 L 51,38 L 52,37 L 53,37 L 53,34 L 54,33 L 54,31 L 53,30 L 53,28 L 52,28 L 51,27 L 51,26 L 53,24 L 53,21 L 52,21 L 51,22 L 51,23 L 50,24 L 49,24 L 47,26 L 46,26 L 45,27 L 44,26 L 43,26 L 41,24 L 40,24 L 39,25 L 37,25 L 36,24 L 34,24 L 33,23 L 33,21 Z" fill="none" stroke="black" stroke-width="1"/>
</svg>