<svg xmlns="http://www.w3.org/2000/svg" width="67" height="48">
  <path d="M 36,24 L 36,26 L 35,27 L 34,27 L 33,26 L 29,26 L 28,27 L 27,27 L 26,28 L 23,28 L 23,30 L 25,30 L 26,31 L 26,34 L 25,35 L 25,36 L 24,37 L 24,38 L 23,39 L 23,40 L 22,41 L 23,42 L 23,43 L 24,44 L 25,44 L 26,45 L 26,46 L 27,46 L 28,47 L 32,47 L 32,45 L 33,44 L 35,44 L 37,42 L 40,42 L 41,43 L 42,43 L 44,41 L 45,41 L 45,38 L 44,37 L 44,36 L 43,35 L 43,34 L 45,32 L 45,31 L 44,31 L 43,30 L 43,28 L 42,27 L 42,26 L 41,26 L 40,25 L 40,24 Z" fill="none" stroke="black" stroke-width="1"/>
</svg>