<svg xmlns="http://www.w3.org/2000/svg" width="67" height="48">
  <path d="M 45,8 L 44,9 L 44,10 L 43,11 L 43,12 L 45,14 L 45,15 L 46,16 L 45,17 L 44,17 L 44,18 L 43,19 L 43,20 L 42,21 L 41,21 L 41,22 L 40,23 L 41,24 L 41,25 L 42,25 L 43,26 L 43,27 L 44,28 L 44,30 L 45,30 L 46,31 L 46,32 L 44,34 L 44,35 L 45,36 L 45,37 L 46,38 L 46,39 L 47,38 L 49,38 L 50,37 L 51,37 L 51,36 L 52,35 L 53,35 L 53,34 L 54,33 L 56,33 L 57,34 L 58,33 L 62,33 L 63,34 L 64,34 L 65,35 L 66,35 L 66,31 L 63,28 L 63,27 L 61,25 L 61,23 L 58,20 L 58,19 L 57,18 L 57,16 L 56,15 L 56,13 L 54,11 L 54,9 L 53,9 L 53,10 L 52,11 L 51,10 L 48,10 L 46,8 Z" fill="none" stroke="black" stroke-width="1"/>
</svg>