<svg xmlns="http://www.w3.org/2000/svg" width="137" height="62">
  <path d="M 23,0 L 21,2 L 20,2 L 19,3 L 18,3 L 17,4 L 14,4 L 13,3 L 12,3 L 11,2 L 10,2 L 9,1 L 7,1 L 6,2 L 5,2 L 4,3 L 6,5 L 6,7 L 5,8 L 3,8 L 3,9 L 4,10 L 4,17 L 3,18 L 3,19 L 2,20 L 2,23 L 3,24 L 3,27 L 1,29 L 1,30 L 2,30 L 3,31 L 3,33 L 4,34 L 4,36 L 5,35 L 5,34 L 6,33 L 7,33 L 8,32 L 9,32 L 10,31 L 13,31 L 14,30 L 21,30 L 23,28 L 24,28 L 25,27 L 26,27 L 27,26 L 29,26 L 30,27 L 34,27 L 35,26 L 37,26 L 38,27 L 39,27 L 40,28 L 41,28 L 43,30 L 47,30 L 48,31 L 48,32 L 49,33 L 51,33 L 53,31 L 57,31 L 59,33 L 61,33 L 62,32 L 69,32 L 69,27 L 71,25 L 71,23 L 67,23 L 66,24 L 64,24 L 63,23 L 63,21 L 64,20 L 64,15 L 63,14 L 63,13 L 60,13 L 59,14 L 57,14 L 56,13 L 52,13 L 47,8 L 44,8 L 43,9 L 42,9 L 41,10 L 38,10 L 37,9 L 37,8 L 34,8 L 33,9 L 30,9 L 29,8 L 29,7 L 28,7 L 25,4 L 25,2 L 24,1 L 24,0 Z" fill="none" stroke="black" stroke-width="1"/>
</svg>