<svg xmlns="http://www.w3.org/2000/svg" width="67" height="48">
  <path d="M 4,4 L 4,6 L 6,8 L 6,10 L 5,11 L 1,11 L 0,12 L 0,13 L 1,14 L 1,15 L 2,16 L 3,16 L 4,15 L 5,16 L 5,18 L 8,21 L 8,23 L 7,24 L 7,30 L 10,33 L 12,33 L 15,36 L 15,37 L 16,38 L 16,39 L 20,39 L 21,40 L 22,40 L 22,39 L 23,38 L 23,37 L 24,36 L 24,35 L 25,34 L 25,31 L 23,31 L 22,30 L 22,29 L 21,29 L 20,28 L 20,27 L 19,26 L 19,25 L 17,23 L 17,22 L 16,22 L 15,21 L 15,16 L 14,15 L 14,9 L 11,6 L 11,5 L 10,5 L 9,4 L 8,5 L 6,5 L 5,4 Z" fill="none" stroke="black" stroke-width="1"/>
</svg>