<svg xmlns="http://www.w3.org/2000/svg" width="85" height="71">
  <path d="M 10,14 L 9,15 L 8,15 L 7,16 L 4,16 L 3,17 L 3,18 L 2,19 L 1,19 L 0,20 L 2,22 L 2,23 L 3,23 L 4,24 L 4,25 L 5,25 L 6,26 L 6,31 L 8,33 L 8,34 L 7,35 L 8,36 L 8,37 L 7,38 L 7,39 L 8,39 L 10,41 L 10,42 L 11,43 L 12,43 L 14,45 L 14,46 L 15,47 L 15,48 L 16,49 L 16,51 L 17,52 L 17,53 L 18,54 L 18,55 L 19,55 L 21,57 L 23,57 L 25,59 L 25,60 L 26,60 L 29,63 L 30,62 L 32,62 L 33,61 L 33,60 L 34,59 L 34,58 L 35,57 L 36,57 L 36,56 L 37,55 L 37,53 L 38,52 L 39,52 L 39,47 L 38,46 L 38,44 L 37,43 L 37,42 L 38,41 L 38,35 L 37,35 L 36,34 L 36,32 L 35,32 L 33,30 L 33,29 L 32,28 L 32,26 L 30,24 L 29,24 L 28,23 L 27,23 L 26,22 L 25,22 L 24,21 L 24,18 L 20,18 L 18,16 L 16,16 L 14,14 Z" fill="none" stroke="black" stroke-width="1"/>
</svg>