<svg xmlns="http://www.w3.org/2000/svg" width="85" height="71">
  <path d="M 52,0 L 51,1 L 50,1 L 49,2 L 48,2 L 47,1 L 39,1 L 36,4 L 35,4 L 33,6 L 32,6 L 31,7 L 30,7 L 29,6 L 28,6 L 27,7 L 25,7 L 23,5 L 23,4 L 19,4 L 18,5 L 16,5 L 16,7 L 13,10 L 13,11 L 11,13 L 14,13 L 16,15 L 18,15 L 20,17 L 24,17 L 25,18 L 25,21 L 26,21 L 27,22 L 28,22 L 29,23 L 30,23 L 33,26 L 33,28 L 34,29 L 34,30 L 35,31 L 36,31 L 37,32 L 37,34 L 40,34 L 40,33 L 42,31 L 43,31 L 43,30 L 45,28 L 46,28 L 47,27 L 48,27 L 50,25 L 50,23 L 52,21 L 53,21 L 55,23 L 58,23 L 61,20 L 62,20 L 63,21 L 64,21 L 67,24 L 67,26 L 68,26 L 69,27 L 69,30 L 71,28 L 72,28 L 72,27 L 71,26 L 71,25 L 74,22 L 74,21 L 75,20 L 76,20 L 77,21 L 78,21 L 80,19 L 81,19 L 81,16 L 79,14 L 78,14 L 77,13 L 77,12 L 74,9 L 72,9 L 70,7 L 70,6 L 68,4 L 67,4 L 66,3 L 65,3 L 64,2 L 57,2 L 56,1 L 55,1 L 54,0 Z" fill="none" stroke="black" stroke-width="1"/>
</svg>