<svg xmlns="http://www.w3.org/2000/svg" width="59" height="51">
  <path d="M 32,26 L 31,27 L 31,28 L 30,29 L 29,29 L 28,28 L 27,29 L 26,28 L 26,27 L 25,28 L 25,31 L 22,34 L 20,34 L 20,36 L 19,37 L 19,38 L 18,39 L 18,43 L 19,43 L 20,44 L 21,44 L 23,46 L 23,48 L 24,49 L 26,49 L 27,48 L 28,48 L 29,47 L 30,47 L 31,46 L 32,46 L 31,45 L 33,43 L 33,42 L 34,41 L 34,40 L 37,37 L 37,34 L 38,33 L 40,33 L 40,32 L 41,31 L 41,30 L 42,29 L 42,28 L 39,28 L 38,27 L 35,27 L 34,26 Z" fill="none" stroke="black" stroke-width="1"/>
</svg>