<svg xmlns="http://www.w3.org/2000/svg" width="96" height="76">
  <path d="M 21,36 L 20,37 L 19,37 L 19,39 L 18,40 L 17,40 L 16,41 L 15,41 L 12,44 L 10,44 L 9,45 L 7,45 L 6,46 L 4,46 L 3,47 L 2,47 L 0,49 L 0,51 L 1,51 L 2,52 L 2,53 L 4,55 L 4,58 L 3,59 L 3,64 L 2,65 L 2,67 L 3,68 L 4,68 L 5,69 L 6,69 L 8,71 L 9,71 L 11,73 L 11,74 L 13,74 L 14,75 L 15,75 L 16,74 L 19,74 L 20,75 L 22,75 L 24,73 L 29,73 L 30,74 L 31,74 L 32,73 L 33,73 L 35,75 L 37,75 L 38,74 L 40,74 L 41,73 L 41,69 L 38,66 L 38,64 L 37,63 L 37,59 L 40,56 L 40,54 L 39,53 L 39,52 L 37,50 L 37,48 L 36,47 L 34,47 L 33,46 L 33,45 L 32,44 L 32,42 L 33,41 L 35,41 L 34,41 L 33,40 L 32,40 L 31,39 L 29,39 L 28,38 L 26,38 L 24,36 Z" fill="none" stroke="black" stroke-width="1"/>
</svg>