<svg xmlns="http://www.w3.org/2000/svg" width="97" height="43">
  <path d="M 3,17 L 2,18 L 2,19 L 1,20 L 0,20 L 0,25 L 1,26 L 1,29 L 4,32 L 4,33 L 3,34 L 3,35 L 5,35 L 6,36 L 12,36 L 13,35 L 16,35 L 17,36 L 21,36 L 22,37 L 23,37 L 24,36 L 26,36 L 27,37 L 29,37 L 30,38 L 35,38 L 36,39 L 38,39 L 39,40 L 40,40 L 41,41 L 42,41 L 43,42 L 45,42 L 46,41 L 46,40 L 47,39 L 48,39 L 48,38 L 49,37 L 50,37 L 50,34 L 49,33 L 50,32 L 50,29 L 49,28 L 46,28 L 43,25 L 42,25 L 40,27 L 37,27 L 34,24 L 34,22 L 29,22 L 28,23 L 27,23 L 23,19 L 20,19 L 19,20 L 18,20 L 17,21 L 11,21 L 9,19 L 8,19 L 7,18 L 6,18 L 5,17 Z" fill="none" stroke="black" stroke-width="1"/>
</svg>