<svg xmlns="http://www.w3.org/2000/svg" width="97" height="43">
  <path d="M 40,0 L 39,1 L 37,1 L 35,3 L 35,4 L 34,5 L 30,5 L 29,4 L 28,4 L 27,3 L 26,3 L 25,4 L 24,4 L 22,6 L 21,5 L 20,5 L 19,4 L 16,4 L 14,6 L 13,6 L 13,9 L 12,10 L 12,12 L 11,13 L 11,15 L 10,16 L 10,19 L 11,20 L 17,20 L 18,19 L 19,19 L 20,18 L 23,18 L 27,22 L 28,22 L 29,21 L 35,21 L 35,17 L 36,16 L 36,14 L 37,13 L 38,13 L 39,12 L 39,11 L 40,10 L 43,10 L 44,9 L 45,9 L 46,8 L 48,8 L 50,6 L 49,5 L 47,5 L 46,4 L 45,4 L 43,2 L 42,2 L 41,1 L 41,0 Z" fill="none" stroke="black" stroke-width="1"/>
</svg>