<svg xmlns="http://www.w3.org/2000/svg" width="67" height="64">
  <path d="M 27,43 L 27,46 L 28,47 L 29,47 L 31,45 L 31,44 L 30,44 L 29,43 Z" fill="none" stroke="black" stroke-width="1"/>
  <path d="M 22,22 L 21,23 L 18,23 L 19,24 L 19,25 L 18,26 L 18,27 L 15,30 L 15,31 L 16,32 L 16,33 L 18,35 L 18,37 L 19,38 L 19,39 L 20,39 L 20,38 L 22,36 L 23,36 L 24,35 L 26,35 L 29,38 L 30,38 L 33,41 L 34,41 L 38,45 L 38,47 L 39,48 L 40,47 L 39,46 L 39,44 L 38,43 L 38,42 L 36,40 L 36,38 L 34,36 L 33,36 L 32,37 L 30,37 L 29,36 L 28,36 L 24,32 L 25,31 L 24,30 L 24,29 L 23,28 L 23,27 L 22,26 L 23,25 L 22,24 L 23,23 Z" fill="none" stroke="black" stroke-width="1"/>
  <path d="M 27,18 L 27,20 L 28,21 L 28,24 L 29,23 L 29,22 L 28,21 L 28,19 L 29,18 Z" fill="none" stroke="black" stroke-width="1"/>
</svg>