<svg xmlns="http://www.w3.org/2000/svg" width="85" height="71">
  <path d="M 61,21 L 58,24 L 55,24 L 53,22 L 52,22 L 51,23 L 51,25 L 48,28 L 47,28 L 46,29 L 45,29 L 44,30 L 44,31 L 43,32 L 42,32 L 41,33 L 41,34 L 40,35 L 39,35 L 39,41 L 38,42 L 38,43 L 39,44 L 39,46 L 40,47 L 40,50 L 41,50 L 42,49 L 46,49 L 47,50 L 48,50 L 50,52 L 52,52 L 53,53 L 53,54 L 54,54 L 59,59 L 59,61 L 61,63 L 61,66 L 65,70 L 66,70 L 67,69 L 69,69 L 70,68 L 72,68 L 75,65 L 76,65 L 77,64 L 78,64 L 78,62 L 79,61 L 80,61 L 81,60 L 83,60 L 83,55 L 84,54 L 84,50 L 83,49 L 83,47 L 82,46 L 82,44 L 81,43 L 81,40 L 80,39 L 80,36 L 77,36 L 75,34 L 75,33 L 76,32 L 76,31 L 74,29 L 71,29 L 69,31 L 68,30 L 68,27 L 67,27 L 66,26 L 66,24 L 64,22 L 63,22 L 62,21 Z" fill="none" stroke="black" stroke-width="1"/>
</svg>