<svg xmlns="http://www.w3.org/2000/svg" width="67" height="60">
  <path d="M 27,56 L 26,57 L 28,57 L 28,56 Z" fill="none" stroke="black" stroke-width="1"/>
  <path d="M 37,41 L 34,44 L 33,44 L 30,47 L 31,48 L 31,49 L 32,49 L 33,50 L 37,50 L 38,49 L 39,49 L 41,47 L 42,47 L 41,46 L 42,45 L 42,44 L 41,43 L 40,43 L 38,41 Z" fill="none" stroke="black" stroke-width="1"/>
  <path d="M 33,23 L 33,27 L 32,28 L 32,30 L 31,31 L 31,32 L 29,34 L 29,36 L 28,37 L 28,38 L 27,39 L 27,40 L 24,43 L 24,48 L 23,49 L 23,52 L 25,50 L 25,48 L 26,47 L 26,46 L 27,45 L 27,42 L 30,39 L 31,39 L 32,38 L 33,38 L 33,30 L 34,29 L 34,27 L 33,26 L 33,24 L 34,23 Z" fill="none" stroke="black" stroke-width="1"/>
</svg>