<svg xmlns="http://www.w3.org/2000/svg" width="67" height="60">
  <path d="M 63,48 L 63,50 L 64,49 Z" fill="none" stroke="black" stroke-width="1"/>
  <path d="M 65,43 L 65,45 L 64,46 L 65,47 L 66,47 L 66,45 L 65,44 Z" fill="none" stroke="black" stroke-width="1"/>
  <path d="M 51,42 L 52,43 L 52,44 L 53,45 L 53,44 L 52,43 L 52,42 Z" fill="none" stroke="black" stroke-width="1"/>
  <path d="M 58,37 L 58,38 L 57,39 L 57,43 L 58,43 L 59,44 L 59,45 L 58,46 L 59,46 L 59,42 L 58,41 L 58,39 L 59,38 L 59,37 Z" fill="none" stroke="black" stroke-width="1"/>
  <path d="M 39,21 L 40,22 L 40,28 L 41,29 L 41,28 L 42,27 L 43,27 L 45,29 L 45,30 L 46,31 L 46,34 L 45,35 L 45,37 L 46,38 L 46,39 L 45,40 L 46,41 L 47,41 L 48,42 L 49,42 L 48,41 L 48,38 L 49,37 L 50,38 L 50,39 L 51,40 L 53,38 L 51,36 L 51,34 L 50,33 L 50,32 L 48,30 L 48,29 L 49,28 L 49,25 L 48,24 L 48,21 L 46,21 L 45,22 L 44,22 L 43,23 L 42,22 L 41,22 L 40,21 Z" fill="none" stroke="black" stroke-width="1"/>
  <path d="M 39,16 L 39,17 L 41,19 L 42,19 L 42,18 L 41,17 L 41,16 Z" fill="none" stroke="black" stroke-width="1"/>
</svg>