<svg xmlns="http://www.w3.org/2000/svg" width="59" height="56">
  <path d="M 23,4 L 23,6 L 21,8 L 18,8 L 17,9 L 17,13 L 16,14 L 14,14 L 13,15 L 10,15 L 9,16 L 8,15 L 7,16 L 5,16 L 5,17 L 3,19 L 3,24 L 2,25 L 2,27 L 0,29 L 0,32 L 1,33 L 3,33 L 4,32 L 4,30 L 5,29 L 5,28 L 7,26 L 6,25 L 7,24 L 7,23 L 9,21 L 9,20 L 10,19 L 13,19 L 14,20 L 14,27 L 15,27 L 16,26 L 15,25 L 17,23 L 17,21 L 18,20 L 19,20 L 20,21 L 20,22 L 19,23 L 19,24 L 20,23 L 21,23 L 22,24 L 22,25 L 23,26 L 23,25 L 22,24 L 22,23 L 24,21 L 23,20 L 25,18 L 27,18 L 27,17 L 26,16 L 30,12 L 30,10 L 29,9 L 29,8 L 27,6 L 25,6 Z" fill="none" stroke="black" stroke-width="1"/>
</svg>