<svg xmlns="http://www.w3.org/2000/svg" width="26" height="56">
  <path d="M 8,0 L 7,1 L 7,2 L 8,3 L 8,5 L 9,6 L 9,9 L 11,11 L 11,14 L 12,15 L 12,16 L 13,17 L 13,19 L 17,23 L 17,27 L 18,28 L 18,33 L 19,34 L 19,35 L 21,35 L 22,36 L 23,35 L 24,36 L 24,37 L 25,37 L 25,35 L 23,33 L 23,32 L 22,32 L 21,31 L 22,30 L 22,29 L 23,28 L 23,26 L 22,26 L 21,25 L 21,23 L 22,22 L 22,21 L 21,21 L 20,20 L 19,21 L 18,21 L 17,20 L 17,19 L 20,16 L 21,16 L 21,14 L 18,11 L 18,10 L 19,9 L 17,9 L 14,6 L 14,5 L 13,4 L 12,4 Z" fill="none" stroke="black" stroke-width="1"/>
</svg>