<svg xmlns="http://www.w3.org/2000/svg" width="82" height="118">
  <path d="M 43,28 L 43,30 L 44,30 L 46,28 Z" fill="none" stroke="black" stroke-width="1"/>
  <path d="M 38,15 L 38,24 L 37,25 L 36,24 L 36,23 L 35,22 L 34,22 L 34,24 L 35,25 L 35,26 L 36,27 L 36,28 L 35,29 L 35,30 L 34,31 L 31,31 L 31,33 L 30,34 L 29,34 L 26,37 L 26,39 L 28,37 L 33,37 L 34,36 L 34,34 L 37,31 L 39,31 L 40,30 L 41,30 L 41,28 L 40,27 L 40,24 L 39,24 L 38,23 L 38,19 L 39,18 L 39,15 Z" fill="none" stroke="black" stroke-width="1"/>
  <path d="M 43,13 L 43,14 L 44,14 L 44,13 Z" fill="none" stroke="black" stroke-width="1"/>
  <path d="M 45,5 L 45,6 L 46,7 L 46,10 L 47,9 L 47,6 L 46,6 Z" fill="none" stroke="black" stroke-width="1"/>
  <path d="M 45,0 L 45,1 L 46,2 L 46,3 L 47,4 L 51,4 L 51,3 L 49,3 L 46,0 Z" fill="none" stroke="black" stroke-width="1"/>
</svg>