<svg xmlns="http://www.w3.org/2000/svg" width="149" height="158">
  <path d="M 89,114 L 87,116 L 87,117 L 86,118 L 85,118 L 84,117 L 81,117 L 78,120 L 78,125 L 77,126 L 77,127 L 76,128 L 76,137 L 75,138 L 75,139 L 74,140 L 73,140 L 73,142 L 72,143 L 72,145 L 71,146 L 71,148 L 75,148 L 76,147 L 78,147 L 79,146 L 83,146 L 84,147 L 85,147 L 86,146 L 89,146 L 89,145 L 90,144 L 91,144 L 92,143 L 95,143 L 96,142 L 98,142 L 99,143 L 102,143 L 103,144 L 104,144 L 107,147 L 107,148 L 108,149 L 108,150 L 109,151 L 109,154 L 111,156 L 113,156 L 114,155 L 116,155 L 117,156 L 118,156 L 119,157 L 121,157 L 122,156 L 125,156 L 127,154 L 127,153 L 126,152 L 126,149 L 125,148 L 125,147 L 122,147 L 121,146 L 121,145 L 120,144 L 119,144 L 118,143 L 118,142 L 117,141 L 117,140 L 118,139 L 119,139 L 119,137 L 118,136 L 118,135 L 115,132 L 115,128 L 116,127 L 116,123 L 114,123 L 113,122 L 112,122 L 111,121 L 109,121 L 108,120 L 107,120 L 106,119 L 105,119 L 104,118 L 101,118 L 100,117 L 99,117 L 98,116 L 97,116 L 96,115 L 95,115 L 94,114 Z" fill="none" stroke="black" stroke-width="1"/>
</svg>