<svg xmlns="http://www.w3.org/2000/svg" width="61" height="91">
  <path d="M 14,60 L 14,61 L 13,62 L 14,63 L 13,64 L 15,64 L 16,65 L 15,66 L 11,66 L 11,67 L 10,68 L 10,70 L 11,71 L 10,72 L 10,73 L 9,74 L 10,75 L 9,76 L 9,79 L 10,80 L 9,81 L 9,82 L 8,83 L 8,87 L 7,88 L 7,90 L 8,90 L 9,89 L 10,89 L 10,85 L 11,84 L 11,81 L 12,80 L 12,74 L 15,71 L 16,71 L 17,70 L 18,71 L 18,73 L 17,74 L 16,74 L 14,76 L 14,77 L 15,78 L 16,78 L 18,80 L 18,78 L 19,77 L 19,75 L 20,74 L 20,72 L 21,71 L 22,72 L 22,75 L 23,75 L 24,76 L 29,76 L 29,74 L 30,73 L 31,73 L 31,71 L 32,70 L 32,69 L 31,68 L 31,66 L 30,65 L 27,65 L 26,66 L 25,66 L 23,64 L 23,63 L 24,62 L 26,62 L 25,61 L 20,61 L 19,62 L 17,62 L 16,61 L 15,61 Z" fill="none" stroke="black" stroke-width="1"/>
</svg>