<svg xmlns="http://www.w3.org/2000/svg" width="51" height="100">
  <path d="M 34,63 L 33,64 L 33,67 L 35,69 L 36,69 L 37,68 L 37,66 L 36,65 L 36,64 L 35,63 Z" fill="none" stroke="black" stroke-width="1"/>
  <path d="M 27,54 L 26,55 L 25,55 L 24,56 L 24,57 L 22,59 L 20,59 L 19,60 L 17,60 L 16,61 L 16,63 L 18,61 L 19,61 L 20,62 L 19,63 L 19,65 L 20,65 L 21,64 L 22,64 L 22,62 L 24,60 L 24,59 L 25,58 L 25,57 L 27,55 Z" fill="none" stroke="black" stroke-width="1"/>
  <path d="M 18,49 L 18,50 L 19,51 L 20,50 L 21,50 L 19,50 Z" fill="none" stroke="black" stroke-width="1"/>
  <path d="M 19,43 L 18,44 L 19,45 L 20,45 L 22,47 L 21,48 L 22,48 L 23,49 L 24,49 L 25,48 L 26,49 L 27,49 L 28,48 L 28,47 L 27,46 L 24,46 L 22,44 L 22,43 Z" fill="none" stroke="black" stroke-width="1"/>
  <path d="M 9,43 L 8,44 L 6,44 L 5,45 L 5,46 L 9,46 L 10,45 L 11,45 L 11,43 Z" fill="none" stroke="black" stroke-width="1"/>
  <path d="M 14,40 L 14,41 L 13,42 L 13,45 L 14,45 L 14,43 L 16,41 L 16,40 Z" fill="none" stroke="black" stroke-width="1"/>
  <path d="M 18,33 L 17,34 L 17,35 L 19,35 L 19,34 Z" fill="none" stroke="black" stroke-width="1"/>
  <path d="M 23,24 L 23,25 L 22,26 L 23,26 Z" fill="none" stroke="black" stroke-width="1"/>
  <path d="M 18,19 L 17,20 L 18,21 L 18,22 L 17,23 L 15,23 L 14,22 L 14,21 L 13,21 L 13,22 L 12,23 L 12,25 L 13,26 L 14,26 L 15,25 L 16,25 L 17,26 L 17,29 L 18,30 L 21,30 L 22,31 L 23,30 L 24,31 L 24,32 L 23,33 L 24,33 L 27,30 L 27,29 L 24,29 L 23,28 L 21,28 L 20,27 L 20,21 Z" fill="none" stroke="black" stroke-width="1"/>
</svg>