<svg xmlns="http://www.w3.org/2000/svg" width="149" height="158">
  <path d="M 83,86 L 82,87 L 79,87 L 78,88 L 78,89 L 76,91 L 76,93 L 75,94 L 74,94 L 73,95 L 69,95 L 68,96 L 67,96 L 67,97 L 66,98 L 66,99 L 69,102 L 70,102 L 72,104 L 73,104 L 77,108 L 77,109 L 78,110 L 78,113 L 79,114 L 79,115 L 80,116 L 80,117 L 81,116 L 84,116 L 85,117 L 86,117 L 86,116 L 89,113 L 94,113 L 95,114 L 96,114 L 97,115 L 98,115 L 99,116 L 100,116 L 101,117 L 104,117 L 105,118 L 106,118 L 107,119 L 108,119 L 109,120 L 111,120 L 112,121 L 113,121 L 114,122 L 116,122 L 117,121 L 126,121 L 127,122 L 135,122 L 136,123 L 136,124 L 138,124 L 139,125 L 148,125 L 147,124 L 147,123 L 144,120 L 144,119 L 140,115 L 140,99 L 141,98 L 141,96 L 140,95 L 137,95 L 136,94 L 132,94 L 131,93 L 129,93 L 128,92 L 123,92 L 122,91 L 119,91 L 118,90 L 117,90 L 115,88 L 113,88 L 112,87 L 111,87 L 110,86 L 102,86 L 101,87 L 91,87 L 90,86 Z" fill="none" stroke="black" stroke-width="1"/>
</svg>