<svg xmlns="http://www.w3.org/2000/svg" width="55" height="33">
  <path d="M 14,13 L 13,14 L 12,14 L 12,15 L 11,16 L 10,16 L 9,17 L 7,17 L 6,16 L 2,16 L 1,17 L 0,17 L 0,19 L 1,18 L 2,18 L 3,19 L 4,19 L 5,18 L 9,18 L 10,19 L 9,20 L 7,20 L 6,21 L 4,21 L 2,23 L 2,25 L 3,24 L 4,24 L 5,25 L 8,25 L 9,24 L 10,24 L 11,23 L 13,23 L 14,24 L 13,25 L 12,25 L 11,26 L 10,26 L 9,27 L 7,27 L 7,28 L 6,29 L 5,29 L 7,29 L 8,28 L 10,28 L 11,27 L 13,27 L 14,28 L 13,29 L 12,29 L 11,30 L 10,30 L 11,30 L 12,31 L 11,32 L 10,32 L 11,32 L 12,31 L 13,31 L 14,30 L 15,30 L 16,31 L 19,31 L 20,30 L 24,30 L 25,29 L 28,29 L 30,27 L 32,27 L 32,26 L 31,25 L 31,23 L 33,21 L 32,20 L 32,19 L 30,17 L 30,16 L 27,16 L 26,15 L 21,15 L 21,17 L 20,18 L 19,18 L 18,17 L 18,16 L 17,16 L 16,17 L 15,17 L 14,16 L 15,15 L 15,13 Z" fill="none" stroke="black" stroke-width="1"/>
</svg>