<svg xmlns="http://www.w3.org/2000/svg" width="149" height="158">
  <path d="M 42,0 L 39,3 L 39,6 L 41,6 L 42,7 L 43,7 L 44,8 L 43,9 L 36,9 L 35,8 L 32,8 L 31,9 L 26,9 L 25,8 L 22,8 L 21,9 L 18,9 L 17,10 L 17,11 L 16,12 L 16,14 L 15,15 L 14,15 L 13,16 L 13,17 L 12,18 L 12,19 L 13,20 L 14,20 L 16,22 L 17,22 L 19,24 L 18,25 L 16,25 L 15,26 L 14,25 L 13,25 L 12,24 L 10,24 L 9,23 L 1,23 L 0,24 L 0,29 L 3,29 L 4,30 L 8,30 L 10,32 L 10,34 L 12,36 L 12,39 L 13,40 L 13,41 L 17,45 L 17,46 L 18,47 L 17,48 L 17,50 L 21,50 L 25,54 L 25,55 L 27,57 L 29,57 L 30,56 L 32,58 L 34,58 L 35,57 L 36,58 L 37,58 L 39,60 L 39,61 L 38,62 L 38,65 L 37,66 L 37,67 L 35,69 L 35,71 L 34,72 L 34,73 L 33,74 L 33,76 L 32,77 L 32,78 L 31,79 L 32,80 L 31,81 L 31,82 L 32,82 L 34,84 L 34,85 L 35,86 L 35,87 L 35,83 L 36,82 L 36,78 L 35,77 L 35,76 L 39,72 L 41,72 L 42,71 L 43,72 L 44,72 L 51,65 L 51,63 L 52,62 L 52,60 L 53,59 L 53,57 L 54,56 L 54,53 L 59,48 L 60,48 L 61,47 L 61,44 L 65,40 L 65,38 L 66,37 L 66,31 L 67,30 L 67,29 L 66,28 L 66,26 L 65,25 L 65,24 L 62,24 L 61,23 L 61,22 L 60,21 L 60,19 L 59,18 L 59,17 L 60,16 L 60,14 L 59,13 L 59,12 L 58,12 L 57,11 L 57,9 L 55,7 L 55,6 L 53,4 L 52,4 L 51,3 L 50,3 L 49,2 L 48,2 L 47,1 L 45,1 L 44,0 Z" fill="none" stroke="black" stroke-width="1"/>
</svg>