<svg xmlns="http://www.w3.org/2000/svg" width="68" height="42">
  <path d="M 7,15 L 7,16 L 10,16 L 9,15 Z" fill="none" stroke="black" stroke-width="1"/>
  <path d="M 2,10 L 1,11 L 0,11 L 2,11 Z" fill="none" stroke="black" stroke-width="1"/>
  <path d="M 12,6 L 14,8 L 14,12 L 17,15 L 17,19 L 18,20 L 18,25 L 20,27 L 19,28 L 18,28 L 18,29 L 19,29 L 20,30 L 22,30 L 24,32 L 24,34 L 26,34 L 27,35 L 27,34 L 26,33 L 27,32 L 27,26 L 26,25 L 27,24 L 27,23 L 25,23 L 22,20 L 23,19 L 23,16 L 24,15 L 24,13 L 21,10 L 21,8 L 22,7 L 21,6 L 19,6 L 18,7 L 15,7 L 14,6 Z" fill="none" stroke="black" stroke-width="1"/>
</svg>