<svg xmlns="http://www.w3.org/2000/svg" width="54" height="49">
  <path d="M 12,13 L 12,14 L 11,15 L 11,16 L 8,19 L 7,18 L 6,18 L 6,20 L 5,21 L 3,21 L 2,22 L 2,23 L 1,24 L 1,26 L 0,27 L 2,29 L 2,30 L 0,32 L 0,33 L 1,34 L 2,34 L 3,35 L 3,37 L 5,39 L 5,40 L 6,39 L 8,39 L 9,40 L 11,38 L 11,37 L 13,35 L 14,35 L 16,33 L 17,33 L 17,32 L 16,31 L 16,29 L 17,28 L 17,27 L 18,26 L 16,26 L 14,24 L 15,23 L 16,23 L 16,19 L 18,17 L 18,16 L 17,15 L 16,15 L 15,14 L 14,14 L 13,13 Z" fill="none" stroke="black" stroke-width="1"/>
</svg>