<svg xmlns="http://www.w3.org/2000/svg" width="133" height="116">
  <path d="M 80,16 L 80,17 L 77,20 L 73,20 L 72,21 L 70,21 L 69,20 L 68,20 L 67,21 L 66,21 L 65,22 L 61,22 L 59,24 L 58,24 L 57,23 L 57,22 L 56,21 L 56,20 L 57,19 L 55,19 L 53,17 L 52,18 L 51,17 L 50,17 L 48,19 L 47,18 L 46,18 L 46,19 L 45,20 L 45,23 L 46,24 L 46,26 L 45,27 L 45,30 L 47,32 L 48,32 L 49,33 L 50,33 L 51,34 L 51,38 L 52,39 L 52,40 L 54,42 L 55,42 L 56,43 L 57,43 L 58,44 L 59,44 L 60,45 L 64,45 L 65,44 L 67,44 L 68,43 L 72,43 L 73,42 L 74,42 L 77,39 L 80,39 L 81,38 L 83,38 L 84,37 L 85,37 L 86,36 L 87,36 L 88,37 L 94,37 L 99,32 L 95,32 L 94,31 L 93,31 L 92,30 L 90,30 L 88,28 L 90,26 L 89,26 L 84,21 L 84,20 Z" fill="none" stroke="black" stroke-width="1"/>
</svg>