<svg xmlns="http://www.w3.org/2000/svg" width="66" height="51">
  <path d="M 49,0 L 48,1 L 49,2 L 46,5 L 45,5 L 44,4 L 43,4 L 43,6 L 42,7 L 41,7 L 41,8 L 40,9 L 39,9 L 38,10 L 37,10 L 37,11 L 38,12 L 38,14 L 40,16 L 40,20 L 41,19 L 42,19 L 43,20 L 44,20 L 45,21 L 49,21 L 50,20 L 52,20 L 52,19 L 53,18 L 53,17 L 54,16 L 55,16 L 56,15 L 57,15 L 58,16 L 59,16 L 60,17 L 62,17 L 62,16 L 63,15 L 63,14 L 64,13 L 64,9 L 65,8 L 65,3 L 64,2 L 64,1 L 63,1 L 61,3 L 59,3 L 58,2 L 58,3 L 57,4 L 55,4 L 54,3 L 54,2 L 52,0 L 51,1 L 50,0 Z" fill="none" stroke="black" stroke-width="1"/>
</svg>