<svg xmlns="http://www.w3.org/2000/svg" width="47" height="84">
  <path d="M 38,39 L 36,41 L 35,41 L 33,43 L 33,45 L 32,46 L 30,46 L 29,45 L 29,48 L 28,49 L 26,49 L 25,50 L 25,51 L 21,55 L 19,55 L 18,54 L 16,56 L 16,57 L 15,58 L 15,62 L 14,63 L 13,63 L 14,64 L 14,65 L 13,66 L 13,67 L 14,68 L 14,70 L 13,71 L 16,71 L 16,70 L 17,69 L 19,69 L 21,71 L 22,71 L 22,68 L 23,67 L 23,65 L 26,62 L 27,62 L 30,59 L 35,59 L 37,61 L 38,61 L 39,60 L 42,60 L 42,59 L 41,58 L 41,55 L 42,54 L 42,52 L 43,51 L 43,50 L 45,48 L 46,48 L 46,47 L 45,46 L 45,44 L 46,43 L 43,43 L 42,42 L 41,42 L 39,40 L 39,39 Z" fill="none" stroke="black" stroke-width="1"/>
</svg>