<svg xmlns="http://www.w3.org/2000/svg" width="73" height="61">
  <path d="M 26,15 L 26,16 L 25,17 L 25,21 L 24,22 L 23,22 L 21,24 L 20,24 L 19,25 L 19,26 L 18,27 L 18,29 L 17,30 L 17,32 L 16,33 L 16,36 L 18,38 L 18,41 L 17,42 L 17,44 L 18,44 L 22,40 L 22,38 L 23,37 L 24,37 L 25,36 L 26,36 L 27,35 L 28,35 L 28,34 L 29,33 L 31,33 L 31,31 L 30,30 L 30,27 L 31,26 L 32,27 L 32,29 L 33,30 L 33,31 L 35,31 L 36,30 L 37,30 L 40,27 L 40,24 L 41,23 L 41,22 L 40,21 L 40,20 L 39,20 L 38,19 L 29,19 L 27,17 L 27,15 Z" fill="none" stroke="black" stroke-width="1"/>
</svg>