<svg xmlns="http://www.w3.org/2000/svg" width="133" height="116">
  <path d="M 98,53 L 97,54 L 97,56 L 95,58 L 94,58 L 93,59 L 92,59 L 89,62 L 80,62 L 79,63 L 78,63 L 77,64 L 77,65 L 76,66 L 76,67 L 74,69 L 73,69 L 71,71 L 69,71 L 68,70 L 66,70 L 65,69 L 64,69 L 63,68 L 62,68 L 61,67 L 59,67 L 58,66 L 58,68 L 57,69 L 57,73 L 56,74 L 56,77 L 55,78 L 55,80 L 54,81 L 54,97 L 58,101 L 58,102 L 61,105 L 61,106 L 62,107 L 62,110 L 67,115 L 69,113 L 70,113 L 71,112 L 72,112 L 73,111 L 74,111 L 75,110 L 75,109 L 77,107 L 79,107 L 80,106 L 81,106 L 81,104 L 82,103 L 89,103 L 90,102 L 91,102 L 92,101 L 96,101 L 98,99 L 98,98 L 99,97 L 100,97 L 101,96 L 101,93 L 103,91 L 104,91 L 106,89 L 107,89 L 108,88 L 108,87 L 109,86 L 109,85 L 112,82 L 113,82 L 115,80 L 116,80 L 120,76 L 121,76 L 122,75 L 123,75 L 124,74 L 127,74 L 128,73 L 129,73 L 130,72 L 131,72 L 132,71 L 131,70 L 129,70 L 128,69 L 124,69 L 123,68 L 123,67 L 121,65 L 120,65 L 118,63 L 117,63 L 115,61 L 114,61 L 112,63 L 110,63 L 109,64 L 106,64 L 102,60 L 102,58 L 101,57 L 101,55 L 100,54 L 100,53 Z" fill="none" stroke="black" stroke-width="1"/>
</svg>