<svg xmlns="http://www.w3.org/2000/svg" width="52" height="85">
  <path d="M 14,14 L 11,17 L 10,17 L 9,18 L 8,18 L 7,19 L 6,19 L 4,21 L 4,22 L 8,22 L 9,23 L 8,24 L 7,24 L 5,26 L 5,27 L 4,28 L 3,28 L 0,31 L 0,32 L 1,33 L 1,35 L 2,34 L 6,34 L 7,33 L 8,34 L 8,35 L 7,36 L 7,37 L 6,38 L 6,41 L 7,42 L 9,42 L 12,39 L 14,39 L 15,38 L 17,38 L 17,37 L 18,36 L 20,36 L 24,32 L 24,30 L 23,29 L 24,28 L 25,28 L 25,25 L 23,25 L 22,24 L 21,24 L 19,22 L 19,21 L 18,20 L 18,15 L 17,14 Z" fill="none" stroke="black" stroke-width="1"/>
</svg>