<svg xmlns="http://www.w3.org/2000/svg" width="95" height="63">
  <path d="M 25,0 L 22,3 L 21,3 L 19,5 L 18,5 L 16,7 L 16,8 L 15,9 L 15,10 L 13,12 L 12,12 L 10,14 L 9,14 L 8,15 L 8,18 L 6,20 L 5,20 L 5,21 L 2,24 L 0,24 L 0,25 L 2,27 L 3,27 L 5,29 L 6,29 L 8,31 L 9,31 L 11,33 L 12,33 L 13,34 L 14,34 L 15,35 L 16,35 L 17,36 L 18,36 L 22,40 L 23,40 L 25,38 L 26,38 L 30,34 L 34,34 L 38,30 L 46,30 L 47,31 L 47,32 L 49,32 L 50,33 L 50,31 L 55,26 L 55,23 L 56,22 L 57,22 L 60,25 L 64,25 L 65,24 L 66,24 L 67,23 L 69,23 L 69,20 L 68,19 L 66,19 L 65,18 L 64,18 L 63,17 L 62,17 L 58,13 L 58,12 L 59,11 L 59,10 L 58,10 L 54,6 L 53,6 L 48,1 L 44,1 L 42,3 L 40,3 L 39,2 L 34,2 L 33,1 L 31,1 L 30,0 Z" fill="none" stroke="black" stroke-width="1"/>
</svg>