<svg xmlns="http://www.w3.org/2000/svg" width="53" height="49">
  <path d="M 15,3 L 13,5 L 13,9 L 14,10 L 15,10 L 16,11 L 16,12 L 18,14 L 19,14 L 20,15 L 21,15 L 22,16 L 24,16 L 25,17 L 25,18 L 26,19 L 26,20 L 25,21 L 23,21 L 23,22 L 24,23 L 25,22 L 29,22 L 30,21 L 32,21 L 33,22 L 39,22 L 39,19 L 38,18 L 39,17 L 42,17 L 42,15 L 41,15 L 40,14 L 38,14 L 37,13 L 34,13 L 33,12 L 33,11 L 32,10 L 32,9 L 31,8 L 30,8 L 29,7 L 29,6 L 26,3 L 25,3 L 23,5 L 22,5 L 21,4 L 20,4 L 19,3 Z" fill="none" stroke="black" stroke-width="1"/>
</svg>