<svg xmlns="http://www.w3.org/2000/svg" width="38" height="43">
  <path d="M 18,0 L 18,1 L 16,3 L 15,3 L 15,8 L 13,10 L 11,10 L 10,9 L 9,9 L 8,10 L 8,11 L 10,11 L 11,12 L 11,13 L 13,15 L 13,17 L 12,18 L 13,18 L 15,20 L 16,20 L 17,21 L 18,21 L 22,25 L 22,27 L 23,27 L 24,28 L 27,28 L 28,27 L 28,26 L 30,24 L 31,24 L 31,22 L 30,21 L 30,19 L 29,18 L 29,16 L 30,15 L 30,12 L 29,11 L 29,9 L 30,8 L 30,7 L 31,6 L 31,4 L 30,3 L 28,5 L 26,5 L 24,3 L 24,1 L 19,1 Z" fill="none" stroke="black" stroke-width="1"/>
</svg>