<svg xmlns="http://www.w3.org/2000/svg" width="149" height="158">
  <path d="M 83,3 L 82,4 L 80,4 L 80,5 L 79,6 L 79,7 L 78,8 L 77,8 L 75,10 L 75,11 L 74,12 L 61,12 L 60,13 L 61,14 L 61,16 L 60,17 L 60,18 L 61,19 L 61,21 L 62,22 L 62,23 L 65,23 L 66,24 L 66,25 L 67,26 L 67,28 L 68,29 L 68,30 L 67,31 L 67,37 L 66,38 L 66,40 L 62,44 L 62,47 L 60,49 L 59,49 L 55,53 L 55,56 L 54,57 L 54,59 L 53,60 L 53,62 L 52,63 L 52,65 L 46,71 L 49,71 L 50,70 L 56,70 L 58,72 L 58,74 L 57,75 L 56,75 L 56,76 L 57,77 L 56,78 L 55,78 L 55,83 L 56,83 L 59,86 L 60,86 L 61,87 L 62,87 L 65,90 L 65,91 L 66,92 L 66,93 L 64,95 L 64,98 L 65,98 L 66,97 L 66,96 L 67,95 L 68,95 L 69,94 L 73,94 L 74,93 L 75,93 L 75,91 L 77,89 L 77,88 L 79,86 L 82,86 L 83,85 L 90,85 L 91,86 L 101,86 L 102,85 L 102,84 L 101,83 L 101,81 L 100,80 L 100,76 L 102,74 L 103,74 L 103,73 L 104,72 L 104,71 L 103,70 L 103,69 L 102,69 L 101,68 L 99,68 L 97,66 L 95,66 L 94,65 L 91,65 L 90,64 L 87,64 L 86,63 L 86,62 L 88,60 L 89,60 L 95,54 L 96,54 L 96,52 L 97,51 L 97,50 L 98,49 L 99,49 L 99,48 L 100,47 L 100,45 L 101,44 L 101,42 L 102,41 L 102,32 L 101,31 L 101,29 L 100,28 L 100,27 L 99,26 L 99,18 L 98,17 L 98,16 L 97,15 L 97,14 L 95,12 L 95,11 L 92,8 L 91,8 L 90,7 L 90,6 L 89,6 L 88,5 L 87,5 L 85,3 Z" fill="none" stroke="black" stroke-width="1"/>
</svg>