<svg xmlns="http://www.w3.org/2000/svg" width="47" height="29">
  <path d="M 7,4 L 7,8 L 6,9 L 5,9 L 2,12 L 2,13 L 1,14 L 0,14 L 0,19 L 1,20 L 2,20 L 3,21 L 3,22 L 4,23 L 6,23 L 7,24 L 10,24 L 11,25 L 11,26 L 13,26 L 14,27 L 14,28 L 22,28 L 22,26 L 23,25 L 24,25 L 25,24 L 28,24 L 29,23 L 30,23 L 30,22 L 29,21 L 29,20 L 28,19 L 31,16 L 23,16 L 22,15 L 20,15 L 19,14 L 19,10 L 18,10 L 17,9 L 17,8 L 15,8 L 14,9 L 13,8 L 12,8 L 11,7 L 11,5 L 10,4 Z" fill="none" stroke="black" stroke-width="1"/>
</svg>