<svg xmlns="http://www.w3.org/2000/svg" width="67" height="41">
  <path d="M 50,9 L 49,10 L 49,12 L 48,13 L 47,13 L 46,14 L 46,15 L 45,16 L 42,16 L 40,18 L 38,18 L 37,19 L 35,17 L 34,17 L 33,18 L 31,18 L 30,17 L 30,16 L 29,15 L 28,15 L 27,16 L 26,16 L 25,17 L 25,19 L 24,20 L 23,20 L 24,21 L 24,23 L 27,23 L 29,25 L 29,26 L 30,27 L 30,28 L 31,29 L 31,31 L 32,31 L 33,30 L 36,30 L 37,31 L 38,31 L 40,29 L 40,28 L 39,27 L 39,26 L 40,25 L 44,25 L 45,26 L 45,27 L 46,28 L 48,28 L 48,27 L 47,26 L 47,25 L 48,24 L 52,24 L 54,22 L 56,22 L 58,20 L 60,20 L 61,19 L 65,19 L 66,18 L 66,16 L 65,16 L 63,14 L 62,14 L 61,13 L 60,13 L 59,12 L 56,12 L 54,10 L 54,9 Z" fill="none" stroke="black" stroke-width="1"/>
</svg>