<svg xmlns="http://www.w3.org/2000/svg" width="122" height="77">
  <path d="M 55,28 L 55,29 L 51,33 L 51,35 L 50,36 L 50,37 L 49,38 L 49,40 L 47,42 L 47,45 L 48,46 L 48,47 L 47,48 L 47,50 L 46,51 L 47,52 L 48,52 L 49,53 L 49,54 L 50,55 L 50,56 L 51,56 L 52,57 L 52,59 L 55,59 L 57,61 L 57,63 L 58,64 L 58,66 L 59,67 L 59,72 L 63,72 L 67,76 L 71,76 L 72,75 L 74,75 L 74,74 L 75,73 L 77,73 L 78,72 L 79,72 L 82,69 L 85,69 L 87,71 L 88,71 L 89,70 L 91,70 L 92,69 L 94,69 L 95,68 L 96,68 L 97,67 L 98,67 L 99,66 L 101,66 L 104,63 L 105,63 L 105,59 L 106,58 L 106,56 L 105,56 L 104,55 L 102,55 L 101,54 L 96,54 L 95,53 L 94,53 L 93,54 L 92,54 L 91,53 L 90,53 L 89,52 L 87,52 L 85,50 L 81,50 L 79,48 L 79,44 L 78,43 L 75,43 L 74,42 L 74,41 L 73,40 L 73,39 L 72,39 L 70,37 L 70,36 L 68,38 L 66,38 L 65,37 L 65,36 L 64,36 L 62,34 L 62,31 L 61,31 L 60,30 L 59,30 L 57,28 Z" fill="none" stroke="black" stroke-width="1"/>
</svg>