<svg xmlns="http://www.w3.org/2000/svg" width="76" height="64">
  <path d="M 33,15 L 32,16 L 31,16 L 30,17 L 29,17 L 27,19 L 22,19 L 22,21 L 24,23 L 24,24 L 25,25 L 25,27 L 24,28 L 24,30 L 23,31 L 23,32 L 22,33 L 22,36 L 23,37 L 26,37 L 28,39 L 28,41 L 29,41 L 30,40 L 32,40 L 32,38 L 31,38 L 30,37 L 30,35 L 32,33 L 38,33 L 39,34 L 42,34 L 43,33 L 43,30 L 44,29 L 44,28 L 45,27 L 44,27 L 42,25 L 41,25 L 39,23 L 38,23 L 37,22 L 37,20 L 36,19 L 36,18 L 34,16 L 34,15 Z" fill="none" stroke="black" stroke-width="1"/>
</svg>