<svg xmlns="http://www.w3.org/2000/svg" width="113" height="82">
  <path d="M 44,63 L 41,66 L 39,66 L 37,68 L 35,68 L 36,69 L 37,69 L 38,70 L 40,70 L 41,71 L 42,71 L 43,72 L 44,72 L 45,73 L 46,73 L 47,74 L 47,75 L 48,75 L 49,76 L 50,76 L 51,77 L 51,78 L 52,79 L 53,79 L 54,80 L 57,80 L 58,81 L 58,80 L 59,79 L 59,78 L 60,77 L 60,76 L 61,75 L 62,76 L 67,76 L 67,75 L 69,73 L 69,72 L 70,71 L 70,67 L 69,66 L 66,66 L 65,65 L 64,66 L 61,66 L 59,68 L 57,68 L 56,67 L 51,67 L 50,66 L 49,66 L 48,65 L 47,65 L 45,63 Z" fill="none" stroke="black" stroke-width="1"/>
</svg>