<svg xmlns="http://www.w3.org/2000/svg" width="70" height="65">
  <path d="M 36,39 L 34,41 L 33,41 L 32,42 L 26,42 L 25,41 L 24,41 L 24,42 L 22,44 L 21,44 L 22,45 L 22,46 L 21,47 L 21,50 L 20,51 L 20,53 L 19,54 L 18,54 L 18,56 L 19,57 L 21,57 L 22,58 L 23,58 L 24,59 L 24,60 L 26,62 L 27,62 L 29,64 L 31,64 L 32,63 L 33,63 L 34,64 L 36,62 L 37,62 L 39,60 L 41,60 L 41,59 L 42,58 L 45,58 L 44,57 L 45,56 L 45,55 L 47,53 L 47,49 L 48,48 L 49,49 L 52,49 L 52,47 L 51,46 L 51,44 L 50,43 L 47,43 L 46,42 L 46,41 L 41,41 L 39,39 Z" fill="none" stroke="black" stroke-width="1"/>
</svg>