<svg xmlns="http://www.w3.org/2000/svg" width="61" height="65">
  <path d="M 52,20 L 49,23 L 48,23 L 47,24 L 45,24 L 45,25 L 44,26 L 42,26 L 41,27 L 37,27 L 33,23 L 29,23 L 28,24 L 28,37 L 29,38 L 29,41 L 28,42 L 27,42 L 27,44 L 26,45 L 26,49 L 27,50 L 28,50 L 29,51 L 30,51 L 31,52 L 30,53 L 31,53 L 32,54 L 37,54 L 38,55 L 45,55 L 46,54 L 48,54 L 49,55 L 49,53 L 50,52 L 51,52 L 51,48 L 50,47 L 50,45 L 52,43 L 54,43 L 54,37 L 55,36 L 55,34 L 58,31 L 58,30 L 59,29 L 59,27 L 60,26 L 59,25 L 59,23 L 58,23 L 55,20 Z" fill="none" stroke="black" stroke-width="1"/>
</svg>