<svg xmlns="http://www.w3.org/2000/svg" width="69" height="56">
  <path d="M 24,0 L 20,4 L 20,6 L 19,7 L 17,7 L 17,8 L 14,11 L 13,11 L 13,12 L 12,13 L 10,13 L 10,14 L 8,16 L 8,20 L 12,24 L 12,25 L 14,25 L 14,24 L 16,22 L 18,22 L 19,23 L 22,23 L 23,22 L 27,22 L 28,23 L 31,23 L 32,24 L 38,24 L 38,21 L 37,20 L 37,18 L 39,16 L 39,15 L 40,14 L 41,14 L 41,13 L 40,12 L 40,11 L 41,10 L 41,9 L 40,9 L 39,10 L 38,10 L 37,9 L 37,7 L 35,7 L 34,6 L 33,6 L 32,5 L 32,4 L 31,3 L 27,3 L 26,2 L 26,1 L 25,0 Z" fill="none" stroke="black" stroke-width="1"/>
</svg>