<svg xmlns="http://www.w3.org/2000/svg" width="80" height="88">
  <path d="M 36,48 L 33,51 L 33,52 L 31,54 L 31,57 L 32,58 L 32,59 L 34,61 L 34,66 L 35,67 L 36,67 L 38,69 L 38,70 L 37,71 L 37,72 L 36,73 L 36,74 L 35,75 L 33,75 L 33,77 L 31,79 L 31,80 L 30,81 L 30,84 L 31,85 L 35,85 L 36,84 L 39,84 L 40,85 L 40,86 L 41,87 L 42,87 L 43,86 L 47,86 L 48,85 L 49,85 L 50,84 L 51,85 L 51,82 L 52,81 L 52,78 L 51,77 L 51,74 L 52,73 L 52,70 L 53,69 L 55,69 L 57,67 L 57,65 L 58,64 L 59,64 L 60,63 L 63,63 L 64,64 L 66,64 L 67,65 L 68,65 L 71,62 L 74,62 L 73,62 L 71,60 L 72,59 L 75,59 L 75,58 L 76,57 L 78,57 L 79,56 L 79,55 L 77,55 L 76,54 L 75,54 L 74,53 L 71,53 L 69,55 L 68,55 L 67,54 L 65,54 L 64,53 L 58,53 L 57,52 L 53,52 L 52,51 L 51,51 L 50,50 L 50,49 L 39,49 L 38,48 Z" fill="none" stroke="black" stroke-width="1"/>
</svg>