<svg xmlns="http://www.w3.org/2000/svg" width="57" height="61">
  <path d="M 37,0 L 36,1 L 35,1 L 34,2 L 33,2 L 32,3 L 30,3 L 30,4 L 29,5 L 28,5 L 27,6 L 25,6 L 22,9 L 16,9 L 15,10 L 14,10 L 12,12 L 12,14 L 14,16 L 14,17 L 15,18 L 15,19 L 16,19 L 18,21 L 19,20 L 21,20 L 21,19 L 24,16 L 25,16 L 26,15 L 27,15 L 28,14 L 29,14 L 29,13 L 30,12 L 32,12 L 32,11 L 33,10 L 36,10 L 37,9 L 37,7 L 38,6 L 39,6 L 40,5 L 42,5 L 43,6 L 44,6 L 45,5 L 45,4 L 44,3 L 44,2 L 42,2 L 41,1 L 41,0 Z" fill="none" stroke="black" stroke-width="1"/>
</svg>