<svg xmlns="http://www.w3.org/2000/svg" width="55" height="49">
  <path d="M 13,25 L 13,26 L 11,28 L 10,28 L 9,29 L 7,29 L 6,28 L 4,28 L 3,29 L 2,29 L 2,31 L 1,32 L 1,35 L 0,36 L 0,39 L 1,40 L 1,41 L 2,41 L 4,43 L 4,45 L 5,46 L 7,46 L 9,48 L 11,48 L 11,47 L 12,46 L 12,45 L 13,44 L 15,44 L 16,43 L 17,43 L 19,45 L 21,45 L 22,46 L 22,45 L 24,43 L 25,43 L 25,42 L 26,41 L 27,41 L 27,39 L 29,37 L 29,36 L 28,36 L 27,35 L 27,34 L 26,33 L 25,33 L 24,32 L 23,32 L 18,27 L 17,27 L 15,25 Z" fill="none" stroke="black" stroke-width="1"/>
</svg>