<svg xmlns="http://www.w3.org/2000/svg" width="94" height="110">
  <path d="M 14,73 L 13,74 L 13,76 L 14,77 L 13,78 L 13,79 L 14,80 L 14,82 L 12,84 L 11,84 L 9,86 L 8,86 L 7,87 L 6,87 L 4,89 L 4,93 L 3,94 L 3,96 L 2,97 L 2,98 L 1,99 L 1,102 L 2,103 L 8,103 L 9,104 L 11,104 L 12,105 L 13,105 L 15,103 L 18,103 L 19,104 L 20,104 L 21,105 L 23,105 L 24,106 L 25,105 L 26,105 L 27,106 L 28,106 L 29,107 L 30,107 L 31,106 L 33,106 L 35,108 L 35,109 L 36,109 L 36,108 L 38,106 L 38,105 L 42,101 L 43,101 L 44,100 L 46,100 L 46,97 L 47,96 L 47,94 L 46,93 L 46,91 L 47,90 L 47,87 L 48,86 L 48,85 L 49,84 L 49,81 L 46,78 L 46,77 L 45,76 L 45,74 L 44,73 L 43,73 L 42,74 L 41,74 L 40,73 L 38,73 L 37,74 L 34,74 L 33,75 L 30,75 L 29,76 L 22,76 L 21,75 L 20,75 L 19,74 L 17,74 L 16,73 Z" fill="none" stroke="black" stroke-width="1"/>
</svg>