<svg xmlns="http://www.w3.org/2000/svg" width="42" height="60">
  <path d="M 34,48 L 34,52 L 34,51 L 35,50 L 34,49 Z" fill="none" stroke="black" stroke-width="1"/>
  <path d="M 34,18 L 34,19 L 33,20 L 32,19 L 32,20 L 31,21 L 31,22 L 29,24 L 27,24 L 27,28 L 26,29 L 25,29 L 25,31 L 26,31 L 27,32 L 27,36 L 28,36 L 29,37 L 29,39 L 30,40 L 30,41 L 31,42 L 31,43 L 32,44 L 32,45 L 35,45 L 36,44 L 36,43 L 37,42 L 38,42 L 41,39 L 40,38 L 40,37 L 38,37 L 37,36 L 37,35 L 36,34 L 36,30 L 35,29 L 35,27 L 34,26 L 34,25 L 35,24 L 35,23 L 36,22 L 38,22 L 39,21 L 39,20 L 38,20 L 36,18 Z" fill="none" stroke="black" stroke-width="1"/>
</svg>