<svg xmlns="http://www.w3.org/2000/svg" width="53" height="40">
  <path d="M 39,15 L 38,16 L 32,16 L 32,18 L 31,19 L 31,20 L 30,21 L 28,21 L 25,24 L 26,25 L 26,28 L 27,28 L 29,30 L 31,30 L 32,29 L 35,29 L 36,30 L 36,32 L 37,33 L 41,33 L 42,34 L 42,36 L 44,36 L 45,37 L 46,37 L 47,38 L 48,38 L 49,39 L 50,39 L 50,38 L 51,37 L 51,28 L 52,27 L 52,26 L 51,25 L 51,23 L 49,21 L 49,17 L 50,16 L 50,15 L 49,16 L 46,16 L 45,17 L 44,16 L 43,17 L 42,17 L 40,15 Z" fill="none" stroke="black" stroke-width="1"/>
</svg>