<svg xmlns="http://www.w3.org/2000/svg" width="80" height="88">
  <path d="M 37,0 L 36,1 L 33,1 L 32,2 L 31,2 L 30,3 L 30,4 L 29,5 L 28,5 L 28,7 L 25,10 L 24,10 L 23,11 L 15,11 L 14,10 L 13,11 L 12,11 L 11,10 L 4,10 L 3,11 L 3,13 L 4,14 L 4,18 L 3,19 L 2,19 L 2,22 L 1,23 L 1,25 L 0,26 L 1,27 L 1,28 L 0,29 L 0,31 L 1,31 L 2,32 L 2,35 L 3,36 L 3,37 L 4,38 L 4,41 L 5,42 L 5,46 L 7,48 L 8,48 L 9,49 L 10,49 L 11,48 L 16,48 L 17,47 L 19,47 L 20,48 L 20,49 L 20,48 L 21,47 L 21,46 L 22,45 L 22,44 L 24,42 L 27,42 L 29,40 L 30,40 L 31,39 L 33,39 L 36,36 L 36,21 L 38,19 L 38,18 L 39,17 L 48,17 L 48,16 L 49,15 L 50,15 L 51,14 L 51,12 L 54,9 L 55,9 L 55,6 L 51,2 L 52,1 L 50,1 L 49,0 L 48,1 L 47,1 L 46,2 L 44,2 L 43,1 L 42,1 L 41,0 Z" fill="none" stroke="black" stroke-width="1"/>
</svg>