<svg xmlns="http://www.w3.org/2000/svg" width="85" height="45">
  <path d="M 62,26 L 62,27 L 61,28 L 59,28 L 59,31 L 58,32 L 56,32 L 56,33 L 57,34 L 57,37 L 56,38 L 56,41 L 57,42 L 57,43 L 58,44 L 61,44 L 62,43 L 69,43 L 70,44 L 72,44 L 73,43 L 76,43 L 77,44 L 80,44 L 81,43 L 81,41 L 82,40 L 82,38 L 81,37 L 81,36 L 82,35 L 82,34 L 84,32 L 84,30 L 83,29 L 82,29 L 81,28 L 78,28 L 78,29 L 77,30 L 68,30 L 67,29 L 67,28 L 66,28 L 65,27 L 64,27 L 63,26 Z" fill="none" stroke="black" stroke-width="1"/>
</svg>