<svg xmlns="http://www.w3.org/2000/svg" width="53" height="40">
  <path d="M 1,3 L 1,4 L 0,5 L 1,6 L 1,8 L 3,10 L 3,13 L 4,14 L 4,15 L 6,15 L 7,16 L 7,17 L 8,18 L 8,20 L 9,20 L 11,22 L 12,22 L 13,21 L 15,23 L 16,23 L 17,24 L 17,25 L 18,26 L 18,27 L 21,27 L 24,24 L 27,24 L 27,21 L 26,20 L 26,19 L 27,18 L 28,18 L 28,14 L 25,14 L 24,13 L 23,13 L 22,12 L 21,12 L 20,11 L 19,11 L 17,9 L 17,8 L 16,7 L 16,6 L 15,5 L 15,4 L 14,4 L 13,5 L 11,3 L 9,3 L 7,5 L 5,3 Z" fill="none" stroke="black" stroke-width="1"/>
</svg>