<svg xmlns="http://www.w3.org/2000/svg" width="116" height="46">
  <path d="M 47,5 L 47,8 L 46,9 L 46,10 L 45,11 L 45,12 L 47,14 L 47,16 L 46,17 L 46,19 L 45,20 L 45,22 L 44,23 L 44,27 L 42,29 L 42,34 L 43,35 L 45,35 L 46,36 L 45,37 L 48,40 L 50,40 L 50,38 L 52,36 L 53,36 L 54,35 L 54,34 L 55,33 L 55,32 L 56,31 L 60,31 L 61,32 L 61,33 L 63,33 L 64,34 L 65,34 L 66,35 L 69,35 L 71,33 L 74,33 L 76,31 L 77,31 L 78,30 L 80,30 L 81,29 L 84,29 L 85,30 L 85,29 L 82,26 L 79,26 L 77,24 L 77,13 L 75,11 L 74,11 L 73,10 L 72,10 L 71,9 L 69,9 L 68,8 L 63,8 L 62,7 L 60,7 L 59,6 L 57,6 L 56,7 L 55,7 L 54,6 L 50,6 L 49,5 Z" fill="none" stroke="black" stroke-width="1"/>
</svg>