<svg xmlns="http://www.w3.org/2000/svg" width="51" height="54">
  <path d="M 30,19 L 29,20 L 26,20 L 25,21 L 24,21 L 23,22 L 20,22 L 19,23 L 17,23 L 17,26 L 19,28 L 20,28 L 22,30 L 23,30 L 25,32 L 26,32 L 28,34 L 28,35 L 30,37 L 30,39 L 31,40 L 31,41 L 32,42 L 32,43 L 34,45 L 37,45 L 38,46 L 39,46 L 40,47 L 41,47 L 41,46 L 42,45 L 48,45 L 50,43 L 46,39 L 46,38 L 45,38 L 42,35 L 42,32 L 44,30 L 44,28 L 43,28 L 41,26 L 39,26 L 38,25 L 37,25 L 36,24 L 36,22 L 35,21 L 35,20 L 34,20 L 33,19 Z" fill="none" stroke="black" stroke-width="1"/>
</svg>