<svg xmlns="http://www.w3.org/2000/svg" width="94" height="110">
  <path d="M 32,46 L 31,47 L 29,47 L 28,48 L 27,48 L 25,50 L 22,50 L 20,52 L 17,52 L 16,51 L 15,51 L 14,50 L 12,50 L 11,49 L 11,48 L 7,48 L 7,49 L 6,50 L 6,51 L 4,53 L 3,53 L 2,54 L 2,56 L 1,57 L 0,57 L 0,60 L 3,63 L 4,63 L 5,64 L 6,64 L 8,62 L 11,62 L 12,63 L 13,63 L 15,65 L 15,66 L 14,67 L 14,69 L 15,69 L 16,70 L 16,72 L 17,73 L 19,73 L 20,74 L 21,74 L 22,75 L 29,75 L 30,74 L 33,74 L 34,73 L 37,73 L 38,72 L 39,72 L 40,71 L 40,70 L 41,69 L 41,68 L 43,66 L 43,65 L 44,64 L 44,63 L 45,62 L 45,61 L 47,59 L 47,58 L 48,57 L 48,51 L 47,51 L 43,47 L 36,47 L 35,46 Z" fill="none" stroke="black" stroke-width="1"/>
</svg>