<svg xmlns="http://www.w3.org/2000/svg" width="54" height="66">
  <path d="M 44,45 L 41,48 L 40,48 L 39,49 L 35,49 L 34,48 L 30,48 L 29,49 L 27,49 L 26,50 L 24,50 L 22,52 L 22,54 L 23,55 L 23,56 L 24,57 L 23,58 L 24,58 L 25,59 L 25,62 L 27,62 L 28,63 L 30,63 L 31,64 L 32,64 L 33,65 L 34,65 L 34,64 L 36,62 L 37,62 L 37,61 L 38,60 L 38,58 L 39,57 L 39,56 L 40,55 L 43,55 L 44,54 L 46,54 L 47,53 L 49,53 L 50,54 L 51,54 L 51,53 L 52,52 L 50,50 L 49,50 L 46,47 L 46,46 L 45,45 Z" fill="none" stroke="black" stroke-width="1"/>
</svg>