<svg xmlns="http://www.w3.org/2000/svg" width="78" height="69">
  <path d="M 31,33 L 30,34 L 28,34 L 27,35 L 26,35 L 23,38 L 21,38 L 20,39 L 17,39 L 16,40 L 11,40 L 10,41 L 10,43 L 11,44 L 11,46 L 12,46 L 13,47 L 13,48 L 14,48 L 16,50 L 16,54 L 19,57 L 19,60 L 21,62 L 21,67 L 23,67 L 24,66 L 24,65 L 25,64 L 28,64 L 29,65 L 31,63 L 31,60 L 32,59 L 33,59 L 37,55 L 37,54 L 38,53 L 38,51 L 39,50 L 39,47 L 41,45 L 42,45 L 42,44 L 44,42 L 44,40 L 43,39 L 42,39 L 41,38 L 38,38 L 37,39 L 36,39 L 32,35 L 32,33 Z" fill="none" stroke="black" stroke-width="1"/>
</svg>