<svg xmlns="http://www.w3.org/2000/svg" width="54" height="66">
  <path d="M 21,0 L 20,1 L 18,1 L 18,2 L 17,3 L 17,6 L 16,7 L 16,8 L 15,9 L 15,10 L 14,11 L 14,13 L 16,15 L 16,17 L 17,18 L 21,18 L 23,20 L 24,20 L 29,25 L 30,25 L 31,26 L 31,27 L 33,29 L 34,29 L 35,30 L 35,33 L 36,34 L 37,34 L 38,35 L 39,35 L 45,29 L 45,28 L 46,27 L 47,27 L 49,29 L 50,29 L 51,28 L 53,28 L 53,27 L 51,25 L 51,23 L 50,22 L 50,18 L 48,16 L 48,14 L 43,14 L 41,12 L 38,12 L 37,11 L 36,11 L 35,10 L 35,5 L 34,4 L 33,4 L 32,3 L 32,2 L 27,2 L 26,1 L 24,1 L 23,0 Z" fill="none" stroke="black" stroke-width="1"/>
</svg>