<svg xmlns="http://www.w3.org/2000/svg" width="65" height="73">
  <path d="M 58,32 L 56,34 L 54,34 L 54,35 L 53,36 L 51,36 L 50,35 L 48,35 L 47,36 L 47,37 L 46,38 L 46,39 L 45,40 L 44,40 L 44,41 L 43,42 L 38,42 L 36,44 L 32,44 L 32,45 L 33,46 L 33,50 L 34,51 L 34,52 L 36,54 L 38,54 L 39,55 L 43,55 L 44,56 L 46,56 L 50,52 L 51,52 L 53,50 L 55,50 L 56,49 L 57,49 L 57,48 L 60,45 L 60,43 L 61,42 L 61,41 L 62,40 L 62,39 L 63,38 L 63,35 L 64,34 L 64,32 Z" fill="none" stroke="black" stroke-width="1"/>
</svg>