<svg xmlns="http://www.w3.org/2000/svg" width="65" height="73">
  <path d="M 29,0 L 28,1 L 25,1 L 25,5 L 22,8 L 22,10 L 23,11 L 23,21 L 22,22 L 23,23 L 23,24 L 24,25 L 24,28 L 25,29 L 25,31 L 26,31 L 27,32 L 28,32 L 30,34 L 33,31 L 34,31 L 34,30 L 37,27 L 38,27 L 39,26 L 40,26 L 40,24 L 41,23 L 40,22 L 40,20 L 41,19 L 41,17 L 43,15 L 43,14 L 44,13 L 44,12 L 45,11 L 44,10 L 44,8 L 45,7 L 45,6 L 46,5 L 47,5 L 46,4 L 45,4 L 44,3 L 37,3 L 36,2 L 33,2 L 31,0 Z" fill="none" stroke="black" stroke-width="1"/>
</svg>