<svg xmlns="http://www.w3.org/2000/svg" width="76" height="48">
  <path d="M 21,15 L 21,17 L 19,19 L 18,19 L 16,21 L 15,21 L 14,22 L 9,22 L 7,20 L 6,21 L 5,21 L 5,22 L 4,23 L 4,25 L 5,26 L 4,27 L 4,28 L 3,29 L 3,30 L 1,32 L 1,34 L 0,35 L 0,37 L 1,38 L 0,39 L 0,41 L 10,41 L 12,39 L 13,39 L 14,38 L 16,38 L 18,36 L 19,36 L 24,31 L 25,31 L 26,30 L 27,30 L 28,29 L 29,29 L 31,27 L 31,26 L 32,25 L 35,25 L 35,22 L 36,21 L 36,20 L 35,20 L 34,19 L 31,19 L 30,18 L 27,18 L 26,17 L 25,17 L 24,16 L 22,16 Z" fill="none" stroke="black" stroke-width="1"/>
</svg>