<svg xmlns="http://www.w3.org/2000/svg" width="94" height="110">
  <path d="M 81,0 L 80,1 L 79,1 L 78,2 L 76,2 L 74,4 L 74,5 L 73,6 L 71,6 L 70,7 L 69,7 L 67,9 L 66,9 L 67,10 L 66,11 L 65,11 L 66,12 L 66,14 L 65,15 L 65,19 L 66,20 L 66,21 L 67,22 L 67,23 L 66,24 L 66,26 L 64,28 L 63,28 L 63,29 L 62,30 L 63,30 L 64,31 L 64,33 L 65,34 L 65,35 L 67,37 L 67,38 L 69,40 L 70,40 L 71,41 L 71,42 L 72,43 L 69,46 L 69,47 L 70,48 L 72,48 L 73,49 L 75,49 L 77,51 L 78,51 L 80,53 L 81,53 L 82,52 L 84,52 L 85,51 L 85,48 L 86,47 L 86,46 L 89,43 L 90,43 L 91,42 L 92,42 L 93,41 L 93,38 L 92,37 L 92,25 L 90,23 L 89,24 L 88,24 L 85,27 L 84,27 L 83,28 L 82,27 L 82,26 L 81,25 L 82,24 L 82,23 L 83,22 L 83,18 L 82,17 L 83,16 L 83,15 L 84,14 L 84,7 L 85,6 L 85,5 L 86,4 L 86,2 L 85,1 L 85,0 Z" fill="none" stroke="black" stroke-width="1"/>
</svg>