<svg xmlns="http://www.w3.org/2000/svg" width="71" height="58">
  <path d="M 57,30 L 57,31 L 56,32 L 55,32 L 54,33 L 54,34 L 53,35 L 52,35 L 52,36 L 51,37 L 47,37 L 46,38 L 43,38 L 43,39 L 42,40 L 41,40 L 40,39 L 39,39 L 38,38 L 38,37 L 37,36 L 34,36 L 34,37 L 35,38 L 35,40 L 34,41 L 34,42 L 33,43 L 33,46 L 32,47 L 32,50 L 31,51 L 31,54 L 32,54 L 33,55 L 34,55 L 36,57 L 41,57 L 42,56 L 43,56 L 45,54 L 46,54 L 47,53 L 47,51 L 48,50 L 49,50 L 51,48 L 52,48 L 52,47 L 53,46 L 54,46 L 55,45 L 56,45 L 57,44 L 60,44 L 61,43 L 61,42 L 62,41 L 63,41 L 66,38 L 67,38 L 68,37 L 70,37 L 70,35 L 68,35 L 67,34 L 66,34 L 65,33 L 64,33 L 63,32 L 62,32 L 61,31 L 60,31 L 59,30 Z" fill="none" stroke="black" stroke-width="1"/>
</svg>