<svg xmlns="http://www.w3.org/2000/svg" width="101" height="73">
  <path d="M 51,26 L 50,27 L 47,27 L 48,28 L 48,29 L 47,30 L 46,30 L 46,31 L 45,32 L 45,33 L 44,34 L 44,37 L 45,38 L 45,40 L 42,43 L 42,44 L 41,45 L 41,47 L 42,48 L 43,48 L 46,51 L 46,52 L 47,53 L 47,59 L 49,61 L 51,61 L 52,60 L 53,60 L 54,61 L 58,61 L 59,62 L 63,62 L 64,61 L 65,61 L 66,60 L 67,60 L 69,62 L 71,62 L 72,63 L 72,62 L 73,61 L 73,59 L 74,58 L 74,55 L 75,54 L 75,50 L 72,47 L 71,47 L 69,45 L 68,45 L 66,43 L 66,42 L 64,40 L 66,38 L 66,35 L 67,34 L 67,32 L 66,32 L 65,31 L 61,31 L 60,30 L 59,30 L 58,29 L 57,29 L 56,28 L 55,28 L 54,27 L 53,27 L 52,26 Z" fill="none" stroke="black" stroke-width="1"/>
</svg>