<svg xmlns="http://www.w3.org/2000/svg" width="101" height="73">
  <path d="M 3,30 L 3,32 L 5,34 L 5,35 L 6,36 L 6,39 L 4,41 L 4,42 L 1,45 L 0,45 L 3,48 L 3,49 L 4,50 L 4,51 L 5,51 L 6,52 L 7,52 L 9,54 L 10,54 L 11,55 L 11,57 L 12,56 L 13,56 L 15,54 L 16,54 L 17,53 L 19,53 L 20,52 L 21,52 L 22,53 L 22,54 L 25,54 L 26,55 L 27,55 L 29,57 L 31,57 L 32,58 L 33,58 L 34,59 L 35,59 L 37,61 L 38,61 L 38,60 L 39,59 L 41,59 L 42,60 L 46,60 L 46,53 L 45,52 L 45,51 L 43,49 L 42,49 L 40,47 L 40,45 L 41,44 L 41,43 L 44,40 L 44,38 L 43,37 L 43,34 L 44,33 L 43,32 L 43,30 L 42,30 L 41,31 L 40,31 L 39,32 L 39,35 L 38,36 L 38,38 L 37,39 L 37,40 L 36,41 L 33,41 L 32,40 L 32,39 L 29,36 L 27,36 L 26,37 L 25,37 L 25,40 L 24,41 L 22,41 L 18,37 L 15,37 L 14,36 L 13,37 L 12,37 L 8,33 L 7,33 L 6,32 L 6,31 L 5,30 Z" fill="none" stroke="black" stroke-width="1"/>
</svg>