<svg xmlns="http://www.w3.org/2000/svg" width="96" height="99">
  <path d="M 62,69 L 55,76 L 54,76 L 54,80 L 55,81 L 56,81 L 57,82 L 57,84 L 58,85 L 58,86 L 60,86 L 61,87 L 62,87 L 67,92 L 69,92 L 71,94 L 72,94 L 73,93 L 77,97 L 79,95 L 81,97 L 84,97 L 85,96 L 90,96 L 91,97 L 90,98 L 91,98 L 93,96 L 93,95 L 95,93 L 95,90 L 94,89 L 94,88 L 92,86 L 92,84 L 93,83 L 93,82 L 92,81 L 91,81 L 90,80 L 89,80 L 87,78 L 86,78 L 85,77 L 78,77 L 75,74 L 69,74 L 68,73 L 67,73 L 65,71 L 64,71 Z" fill="none" stroke="black" stroke-width="1"/>
</svg>