<svg xmlns="http://www.w3.org/2000/svg" width="133" height="94">
  <path d="M 36,67 L 33,70 L 33,71 L 31,73 L 31,74 L 30,75 L 30,76 L 29,77 L 29,78 L 28,79 L 27,79 L 26,80 L 24,80 L 23,81 L 21,81 L 20,82 L 19,82 L 20,82 L 21,83 L 21,85 L 25,85 L 27,87 L 27,89 L 34,89 L 35,90 L 36,90 L 37,91 L 38,91 L 40,89 L 42,89 L 43,90 L 45,90 L 47,92 L 47,93 L 49,91 L 53,91 L 54,90 L 60,90 L 61,89 L 62,89 L 63,88 L 63,85 L 64,84 L 65,84 L 66,83 L 67,83 L 68,82 L 71,82 L 71,80 L 72,79 L 72,75 L 71,74 L 71,73 L 72,72 L 72,71 L 69,68 L 69,67 L 68,67 L 67,68 L 66,68 L 65,69 L 64,69 L 61,72 L 60,71 L 51,71 L 50,70 L 49,71 L 47,71 L 46,70 L 44,70 L 42,68 L 41,69 L 40,69 L 38,67 Z" fill="none" stroke="black" stroke-width="1"/>
</svg>