<svg xmlns="http://www.w3.org/2000/svg" width="133" height="94">
  <path d="M 36,0 L 34,2 L 33,2 L 32,3 L 33,4 L 32,5 L 31,5 L 32,6 L 31,7 L 28,7 L 24,11 L 24,12 L 23,13 L 22,13 L 18,17 L 20,19 L 20,21 L 17,24 L 14,24 L 12,22 L 11,22 L 10,23 L 8,23 L 7,24 L 3,24 L 2,25 L 0,25 L 0,26 L 1,27 L 2,27 L 3,28 L 4,28 L 5,29 L 6,29 L 9,32 L 9,34 L 10,35 L 10,36 L 11,36 L 12,37 L 12,38 L 14,40 L 14,41 L 15,42 L 15,43 L 19,43 L 22,46 L 22,48 L 23,49 L 24,49 L 25,48 L 26,48 L 27,47 L 28,48 L 29,48 L 30,49 L 31,49 L 32,50 L 33,50 L 34,49 L 34,47 L 33,46 L 35,44 L 36,44 L 39,41 L 39,40 L 38,39 L 38,38 L 36,36 L 36,34 L 35,33 L 35,30 L 40,25 L 41,25 L 44,22 L 45,22 L 44,21 L 44,19 L 43,18 L 43,17 L 49,11 L 49,8 L 50,7 L 50,6 L 51,5 L 50,4 L 49,4 L 48,3 L 43,3 L 42,2 L 40,2 L 39,1 L 38,1 L 37,0 Z" fill="none" stroke="black" stroke-width="1"/>
</svg>