<svg xmlns="http://www.w3.org/2000/svg" width="95" height="63">
  <path d="M 38,31 L 34,35 L 30,35 L 27,38 L 27,39 L 30,39 L 31,40 L 31,41 L 33,43 L 33,44 L 34,44 L 36,46 L 37,46 L 38,47 L 38,48 L 39,49 L 43,49 L 44,50 L 44,51 L 45,52 L 45,53 L 46,53 L 47,54 L 47,57 L 49,57 L 51,59 L 51,61 L 52,62 L 53,61 L 54,61 L 54,60 L 56,58 L 58,58 L 59,59 L 60,59 L 61,60 L 62,60 L 62,58 L 63,57 L 63,55 L 64,54 L 64,52 L 65,51 L 65,49 L 63,49 L 60,46 L 59,46 L 58,45 L 57,45 L 56,44 L 53,44 L 52,45 L 51,44 L 51,41 L 52,40 L 52,39 L 53,38 L 53,36 L 52,36 L 51,35 L 51,34 L 50,34 L 49,33 L 47,33 L 46,32 L 46,31 Z" fill="none" stroke="black" stroke-width="1"/>
</svg>