<svg xmlns="http://www.w3.org/2000/svg" width="113" height="82">
  <path d="M 48,18 L 47,19 L 47,20 L 46,21 L 46,22 L 47,23 L 47,24 L 48,25 L 48,28 L 51,31 L 50,32 L 51,33 L 51,34 L 52,35 L 49,38 L 48,38 L 49,39 L 49,41 L 50,42 L 50,45 L 51,46 L 51,47 L 52,48 L 53,48 L 55,50 L 55,51 L 56,52 L 56,53 L 57,52 L 57,51 L 60,48 L 61,48 L 62,47 L 62,46 L 63,45 L 64,45 L 66,43 L 67,43 L 68,42 L 68,41 L 71,38 L 74,38 L 76,36 L 77,36 L 78,35 L 78,34 L 75,31 L 75,30 L 74,29 L 74,28 L 77,25 L 77,24 L 75,24 L 73,22 L 73,21 L 70,21 L 69,20 L 67,20 L 66,19 L 64,19 L 63,18 L 61,20 L 56,20 L 54,18 L 53,19 L 49,19 Z" fill="none" stroke="black" stroke-width="1"/>
</svg>