<svg xmlns="http://www.w3.org/2000/svg" width="72" height="70">
  <path d="M 34,30 L 33,31 L 32,31 L 31,32 L 25,32 L 23,34 L 22,33 L 21,33 L 20,34 L 19,34 L 20,35 L 20,36 L 19,37 L 19,38 L 18,39 L 18,41 L 14,45 L 14,46 L 15,47 L 15,48 L 16,49 L 15,50 L 16,51 L 16,53 L 17,54 L 18,54 L 18,53 L 19,52 L 21,52 L 22,53 L 22,54 L 24,54 L 25,55 L 26,55 L 27,56 L 27,57 L 28,58 L 29,58 L 31,60 L 32,60 L 33,59 L 35,59 L 36,60 L 36,61 L 37,61 L 38,62 L 39,62 L 41,64 L 42,64 L 43,63 L 42,62 L 42,59 L 43,58 L 42,57 L 41,57 L 40,56 L 40,46 L 41,45 L 41,38 L 40,37 L 40,33 L 39,32 L 39,31 L 38,30 Z" fill="none" stroke="black" stroke-width="1"/>
</svg>