<svg xmlns="http://www.w3.org/2000/svg" width="95" height="63">
  <path d="M 71,20 L 70,21 L 70,23 L 69,24 L 67,24 L 66,25 L 65,25 L 64,26 L 60,26 L 57,23 L 56,23 L 56,26 L 51,31 L 51,33 L 52,34 L 52,35 L 53,35 L 54,36 L 54,38 L 53,39 L 53,40 L 52,41 L 52,44 L 53,43 L 56,43 L 57,44 L 58,44 L 59,45 L 60,45 L 63,48 L 65,48 L 66,47 L 67,47 L 69,45 L 72,45 L 73,46 L 74,46 L 75,47 L 77,45 L 78,45 L 79,44 L 80,44 L 81,45 L 82,45 L 83,46 L 87,46 L 87,45 L 90,42 L 92,42 L 93,41 L 94,41 L 94,40 L 92,38 L 92,36 L 93,35 L 93,33 L 92,32 L 91,32 L 89,34 L 88,34 L 85,31 L 85,30 L 83,30 L 81,28 L 81,26 L 82,25 L 82,24 L 81,24 L 80,23 L 79,23 L 77,21 L 75,21 L 74,20 Z" fill="none" stroke="black" stroke-width="1"/>
</svg>