<svg xmlns="http://www.w3.org/2000/svg" width="88" height="46">
  <path d="M 35,26 L 35,27 L 34,28 L 34,29 L 32,31 L 30,31 L 30,33 L 31,33 L 32,34 L 32,35 L 33,35 L 34,36 L 34,37 L 36,39 L 36,42 L 38,42 L 39,43 L 39,44 L 41,44 L 42,43 L 43,43 L 44,42 L 47,42 L 48,43 L 54,43 L 55,42 L 58,42 L 62,38 L 64,38 L 66,36 L 67,36 L 68,35 L 69,35 L 69,33 L 68,33 L 67,32 L 67,31 L 66,30 L 64,30 L 63,31 L 62,31 L 60,29 L 60,26 L 57,26 L 56,27 L 55,27 L 54,28 L 52,28 L 51,29 L 41,29 L 39,27 L 38,27 L 37,26 Z" fill="none" stroke="black" stroke-width="1"/>
</svg>