<svg xmlns="http://www.w3.org/2000/svg" width="56" height="62">
  <path d="M 11,0 L 8,3 L 8,6 L 7,7 L 7,8 L 6,9 L 6,14 L 5,15 L 5,19 L 8,22 L 8,24 L 6,26 L 5,26 L 4,27 L 5,27 L 6,28 L 6,29 L 7,29 L 8,30 L 8,31 L 12,31 L 13,30 L 15,30 L 15,29 L 16,28 L 22,28 L 23,29 L 26,29 L 27,30 L 28,30 L 29,31 L 29,32 L 30,32 L 30,31 L 31,30 L 32,30 L 33,29 L 35,29 L 35,28 L 37,26 L 37,21 L 35,19 L 35,16 L 34,15 L 34,13 L 33,12 L 33,11 L 32,10 L 30,10 L 27,7 L 27,6 L 26,6 L 25,5 L 24,5 L 20,1 L 17,1 L 16,0 Z" fill="none" stroke="black" stroke-width="1"/>
</svg>