<svg xmlns="http://www.w3.org/2000/svg" width="56" height="62">
  <path d="M 11,42 L 10,43 L 5,43 L 4,44 L 2,44 L 1,45 L 1,46 L 0,47 L 0,49 L 2,49 L 3,50 L 3,51 L 5,51 L 6,52 L 6,53 L 5,54 L 5,55 L 2,58 L 1,58 L 1,59 L 2,60 L 2,61 L 6,61 L 6,60 L 7,59 L 12,59 L 12,58 L 13,57 L 14,57 L 14,56 L 16,54 L 17,54 L 19,52 L 20,52 L 21,53 L 22,53 L 23,54 L 23,55 L 27,55 L 27,54 L 28,53 L 30,53 L 30,52 L 31,51 L 31,49 L 30,48 L 29,48 L 28,47 L 28,46 L 26,46 L 25,45 L 19,45 L 16,42 Z" fill="none" stroke="black" stroke-width="1"/>
</svg>