<svg xmlns="http://www.w3.org/2000/svg" width="67" height="50">
  <path d="M 17,0 L 15,2 L 14,2 L 13,3 L 13,4 L 12,5 L 11,5 L 11,6 L 10,7 L 5,7 L 5,8 L 4,9 L 2,9 L 3,10 L 3,13 L 1,15 L 0,15 L 1,16 L 1,26 L 2,27 L 2,28 L 10,28 L 10,27 L 11,26 L 15,26 L 15,25 L 16,24 L 17,24 L 19,26 L 20,26 L 23,23 L 23,22 L 24,21 L 26,21 L 27,22 L 32,22 L 33,21 L 33,15 L 35,13 L 35,8 L 34,8 L 30,4 L 29,4 L 28,3 L 28,1 L 26,1 L 26,2 L 25,3 L 21,3 L 20,2 L 20,1 L 19,1 L 18,0 Z" fill="none" stroke="black" stroke-width="1"/>
</svg>