<svg xmlns="http://www.w3.org/2000/svg" width="79" height="57">
  <path d="M 27,0 L 27,1 L 26,2 L 26,3 L 23,6 L 22,6 L 21,7 L 20,7 L 17,10 L 17,11 L 16,12 L 15,12 L 13,10 L 12,10 L 11,11 L 11,12 L 10,13 L 9,13 L 8,14 L 7,14 L 6,15 L 5,15 L 4,14 L 3,14 L 3,15 L 5,17 L 5,21 L 4,22 L 4,24 L 2,26 L 1,26 L 1,27 L 0,28 L 0,29 L 2,31 L 3,31 L 4,32 L 5,32 L 6,33 L 8,33 L 9,34 L 10,34 L 10,33 L 11,32 L 12,32 L 12,31 L 11,30 L 12,29 L 13,29 L 15,27 L 15,26 L 16,25 L 16,24 L 17,23 L 18,23 L 19,24 L 19,23 L 20,22 L 20,20 L 22,18 L 22,16 L 23,15 L 23,12 L 26,9 L 26,8 L 27,7 L 30,7 L 30,6 L 31,5 L 31,2 L 29,0 Z" fill="none" stroke="black" stroke-width="1"/>
</svg>