<svg xmlns="http://www.w3.org/2000/svg" width="79" height="57">
  <path d="M 71,30 L 71,31 L 69,33 L 68,33 L 68,36 L 67,37 L 67,39 L 66,40 L 64,40 L 63,41 L 59,41 L 58,42 L 56,42 L 55,41 L 49,41 L 48,42 L 46,42 L 47,42 L 48,43 L 47,44 L 41,44 L 40,45 L 43,48 L 45,48 L 46,49 L 47,49 L 48,50 L 51,50 L 52,51 L 52,56 L 56,56 L 57,55 L 58,55 L 59,54 L 60,54 L 61,53 L 63,53 L 64,52 L 66,52 L 67,51 L 72,51 L 74,49 L 75,49 L 78,46 L 78,38 L 77,37 L 77,34 L 74,31 L 74,30 Z" fill="none" stroke="black" stroke-width="1"/>
</svg>