<svg xmlns="http://www.w3.org/2000/svg" width="72" height="49">
  <path d="M 41,0 L 40,1 L 39,1 L 38,2 L 38,3 L 35,6 L 34,5 L 31,5 L 31,8 L 30,9 L 30,11 L 29,12 L 29,17 L 30,18 L 35,18 L 36,19 L 42,19 L 43,20 L 43,22 L 45,24 L 45,25 L 46,25 L 47,26 L 50,26 L 51,27 L 53,27 L 54,26 L 55,26 L 58,23 L 60,23 L 61,24 L 64,24 L 65,25 L 67,25 L 68,26 L 69,26 L 69,23 L 70,22 L 71,22 L 71,20 L 70,20 L 69,19 L 69,17 L 67,15 L 67,13 L 66,12 L 67,11 L 66,10 L 65,10 L 64,9 L 64,8 L 63,8 L 62,7 L 62,6 L 58,2 L 57,2 L 56,1 L 50,1 L 49,0 Z" fill="none" stroke="black" stroke-width="1"/>
</svg>