<svg xmlns="http://www.w3.org/2000/svg" width="109" height="131">
  <path d="M 29,54 L 28,55 L 23,55 L 22,56 L 14,56 L 13,57 L 14,58 L 16,58 L 17,59 L 18,59 L 19,60 L 23,60 L 24,61 L 18,67 L 20,67 L 21,68 L 21,74 L 22,75 L 22,76 L 23,77 L 23,78 L 24,79 L 24,80 L 25,81 L 25,83 L 26,84 L 26,86 L 27,87 L 27,89 L 30,92 L 33,92 L 34,91 L 36,91 L 38,89 L 39,89 L 41,91 L 42,91 L 44,93 L 45,93 L 48,96 L 48,97 L 52,97 L 53,98 L 55,98 L 56,99 L 57,99 L 59,97 L 60,97 L 61,96 L 61,95 L 66,90 L 66,89 L 71,84 L 71,83 L 75,79 L 75,78 L 76,77 L 76,75 L 77,74 L 77,72 L 78,71 L 78,68 L 77,67 L 77,66 L 74,63 L 74,61 L 73,61 L 72,62 L 70,62 L 69,61 L 68,61 L 67,60 L 66,60 L 64,58 L 64,57 L 63,57 L 62,56 L 62,55 L 61,54 L 59,54 L 58,55 L 57,55 L 56,56 L 54,56 L 53,57 L 51,57 L 49,55 L 42,55 L 41,54 Z" fill="none" stroke="black" stroke-width="1"/>
</svg>