<svg xmlns="http://www.w3.org/2000/svg" width="83" height="64">
  <path d="M 30,3 L 29,4 L 29,5 L 28,6 L 28,9 L 29,10 L 29,19 L 28,20 L 28,21 L 27,22 L 27,27 L 28,28 L 28,35 L 27,36 L 27,37 L 29,39 L 28,40 L 27,40 L 28,41 L 28,44 L 31,44 L 32,45 L 32,47 L 36,47 L 37,48 L 37,49 L 46,49 L 46,45 L 47,44 L 48,44 L 49,43 L 51,43 L 51,40 L 50,39 L 50,35 L 51,34 L 52,34 L 52,33 L 53,32 L 53,29 L 51,27 L 52,26 L 53,26 L 53,24 L 54,23 L 57,23 L 58,22 L 58,18 L 59,17 L 59,15 L 57,13 L 57,11 L 56,10 L 56,9 L 55,8 L 52,8 L 50,6 L 44,6 L 43,5 L 40,5 L 39,4 L 37,4 L 36,3 Z" fill="none" stroke="black" stroke-width="1"/>
</svg>