<svg xmlns="http://www.w3.org/2000/svg" width="93" height="53">
  <path d="M 70,19 L 69,20 L 68,20 L 67,21 L 66,20 L 65,21 L 63,21 L 62,22 L 61,22 L 59,24 L 58,24 L 58,25 L 57,26 L 57,27 L 55,29 L 54,29 L 54,30 L 53,31 L 53,32 L 52,33 L 52,34 L 51,35 L 50,35 L 50,36 L 51,37 L 54,37 L 56,39 L 56,40 L 57,41 L 57,43 L 59,45 L 59,47 L 58,48 L 59,48 L 60,49 L 60,50 L 62,52 L 70,52 L 71,51 L 72,51 L 72,50 L 73,49 L 75,49 L 75,48 L 76,47 L 77,47 L 79,45 L 81,45 L 82,46 L 83,46 L 85,48 L 85,49 L 86,49 L 87,50 L 89,50 L 90,51 L 91,51 L 92,52 L 92,50 L 91,49 L 91,45 L 89,43 L 89,40 L 88,39 L 88,34 L 83,34 L 82,33 L 81,33 L 80,32 L 80,29 L 81,28 L 81,27 L 80,26 L 79,26 L 78,25 L 77,25 L 76,24 L 76,21 L 75,20 L 74,20 L 73,19 Z" fill="none" stroke="black" stroke-width="1"/>
</svg>