<svg xmlns="http://www.w3.org/2000/svg" width="82" height="92">
  <path d="M 38,36 L 36,38 L 36,39 L 34,41 L 33,41 L 30,44 L 29,44 L 28,45 L 27,45 L 26,46 L 25,46 L 25,51 L 26,52 L 24,54 L 24,55 L 25,56 L 26,56 L 27,57 L 28,57 L 30,59 L 30,60 L 31,61 L 31,62 L 33,64 L 33,67 L 34,68 L 34,70 L 35,71 L 35,72 L 36,73 L 36,75 L 37,76 L 37,77 L 38,78 L 38,79 L 39,80 L 40,79 L 41,79 L 41,73 L 43,71 L 43,70 L 44,69 L 45,69 L 46,68 L 49,68 L 49,67 L 52,64 L 53,64 L 54,63 L 57,63 L 57,61 L 58,60 L 58,59 L 49,59 L 47,57 L 47,56 L 46,55 L 46,54 L 45,53 L 45,52 L 43,50 L 44,49 L 44,47 L 42,47 L 40,45 L 40,44 L 39,43 L 39,38 L 38,37 Z" fill="none" stroke="black" stroke-width="1"/>
</svg>