<svg xmlns="http://www.w3.org/2000/svg" width="71" height="62">
  <path d="M 41,23 L 41,24 L 39,26 L 39,28 L 38,29 L 38,30 L 37,31 L 37,36 L 38,37 L 38,39 L 40,39 L 41,40 L 42,40 L 44,42 L 44,43 L 45,44 L 45,46 L 44,47 L 44,48 L 45,49 L 46,49 L 47,50 L 48,50 L 49,49 L 49,47 L 55,41 L 56,41 L 57,40 L 59,40 L 60,39 L 62,39 L 63,38 L 64,38 L 65,37 L 67,37 L 67,34 L 66,33 L 65,33 L 63,31 L 63,28 L 62,29 L 60,29 L 59,28 L 57,28 L 56,27 L 54,27 L 52,29 L 51,28 L 49,28 L 48,27 L 46,27 L 43,24 L 43,23 Z" fill="none" stroke="black" stroke-width="1"/>
</svg>