<svg xmlns="http://www.w3.org/2000/svg" width="180" height="138">
  <path d="M 78,37 L 78,40 L 77,41 L 77,43 L 76,44 L 76,45 L 74,47 L 74,48 L 73,49 L 73,51 L 76,54 L 76,55 L 75,56 L 72,56 L 71,55 L 71,54 L 70,54 L 69,53 L 68,53 L 63,48 L 57,48 L 56,49 L 54,49 L 53,50 L 50,50 L 49,51 L 48,51 L 49,52 L 49,60 L 50,61 L 50,63 L 51,64 L 50,65 L 50,67 L 51,67 L 53,69 L 53,74 L 54,75 L 55,75 L 56,76 L 57,76 L 59,78 L 60,78 L 61,79 L 61,81 L 62,82 L 62,83 L 63,84 L 65,84 L 66,85 L 70,85 L 71,86 L 72,86 L 74,88 L 74,91 L 75,92 L 75,94 L 76,94 L 77,95 L 77,96 L 78,97 L 79,97 L 80,98 L 80,99 L 81,100 L 81,108 L 82,109 L 82,111 L 83,112 L 86,112 L 87,111 L 98,111 L 99,112 L 103,112 L 104,113 L 105,112 L 108,112 L 109,111 L 111,111 L 117,105 L 117,104 L 118,103 L 118,102 L 119,101 L 119,97 L 117,95 L 117,93 L 118,92 L 118,90 L 120,88 L 120,87 L 121,86 L 121,84 L 122,83 L 122,81 L 123,80 L 123,77 L 124,76 L 124,69 L 123,68 L 123,64 L 122,63 L 122,61 L 121,60 L 121,59 L 120,58 L 120,57 L 119,56 L 119,53 L 118,52 L 118,46 L 116,44 L 116,43 L 115,43 L 114,42 L 113,42 L 112,41 L 111,41 L 110,40 L 109,40 L 107,42 L 105,42 L 104,41 L 101,41 L 100,40 L 99,40 L 98,39 L 97,39 L 96,38 L 83,38 L 82,37 Z" fill="none" stroke="black" stroke-width="1"/>
</svg>