<svg xmlns="http://www.w3.org/2000/svg" width="106" height="69">
  <path d="M 54,16 L 54,17 L 53,18 L 51,18 L 48,21 L 47,20 L 45,20 L 44,21 L 44,22 L 40,26 L 39,26 L 38,27 L 35,27 L 34,28 L 33,28 L 30,31 L 29,31 L 28,32 L 27,32 L 26,33 L 25,33 L 25,35 L 22,38 L 21,38 L 20,39 L 20,40 L 19,41 L 18,41 L 18,47 L 17,48 L 15,48 L 14,47 L 13,47 L 11,45 L 10,45 L 8,43 L 10,41 L 10,39 L 9,38 L 8,38 L 8,39 L 7,40 L 7,42 L 6,43 L 6,45 L 5,46 L 5,55 L 4,56 L 4,60 L 6,62 L 9,62 L 11,64 L 12,64 L 13,65 L 14,65 L 16,67 L 16,68 L 18,66 L 18,65 L 19,64 L 20,64 L 21,63 L 23,63 L 24,62 L 25,62 L 26,61 L 27,61 L 28,60 L 28,58 L 29,57 L 30,57 L 33,54 L 41,54 L 43,52 L 43,50 L 46,47 L 48,47 L 48,46 L 49,45 L 51,45 L 51,44 L 53,42 L 53,37 L 55,35 L 56,35 L 57,34 L 58,34 L 59,33 L 59,31 L 58,30 L 58,29 L 57,28 L 57,27 L 58,26 L 58,20 L 59,19 L 59,18 L 58,18 L 57,17 L 56,17 L 55,16 Z" fill="none" stroke="black" stroke-width="1"/>
</svg>