<svg xmlns="http://www.w3.org/2000/svg" width="115" height="161">
  <path d="M 35,0 L 34,1 L 33,1 L 32,2 L 26,2 L 25,3 L 20,3 L 20,11 L 13,18 L 12,18 L 9,21 L 8,21 L 2,27 L 1,27 L 1,32 L 0,33 L 0,36 L 1,37 L 2,37 L 4,39 L 5,39 L 7,41 L 7,43 L 8,44 L 8,45 L 10,47 L 11,47 L 12,48 L 12,49 L 16,53 L 16,54 L 17,55 L 17,56 L 18,57 L 18,59 L 19,60 L 19,62 L 20,63 L 20,64 L 21,65 L 21,70 L 22,70 L 22,69 L 24,67 L 29,67 L 30,66 L 32,66 L 33,65 L 33,64 L 36,61 L 39,61 L 41,59 L 41,58 L 42,57 L 42,55 L 44,53 L 46,53 L 46,52 L 47,51 L 47,50 L 48,49 L 48,44 L 49,43 L 49,42 L 50,41 L 51,41 L 52,40 L 54,40 L 56,38 L 56,36 L 55,35 L 55,34 L 57,32 L 57,31 L 58,30 L 58,29 L 56,27 L 51,27 L 50,26 L 49,26 L 48,25 L 48,20 L 52,16 L 52,11 L 53,10 L 53,9 L 55,7 L 56,7 L 54,5 L 54,4 L 53,4 L 51,2 L 42,2 L 41,1 L 40,1 L 39,0 Z" fill="none" stroke="black" stroke-width="1"/>
</svg>