<svg xmlns="http://www.w3.org/2000/svg" width="104" height="107">
  <path d="M 7,0 L 6,1 L 3,1 L 1,3 L 0,3 L 1,4 L 1,7 L 2,8 L 2,11 L 3,12 L 6,12 L 9,15 L 10,15 L 12,17 L 15,17 L 15,16 L 16,15 L 17,15 L 18,16 L 19,16 L 20,17 L 21,17 L 22,18 L 22,21 L 25,21 L 26,22 L 29,22 L 31,24 L 31,26 L 32,26 L 32,25 L 33,24 L 34,24 L 35,23 L 39,23 L 43,19 L 46,19 L 46,18 L 44,18 L 43,17 L 41,17 L 39,15 L 37,15 L 36,14 L 35,14 L 34,13 L 33,13 L 32,12 L 31,12 L 29,10 L 28,10 L 27,9 L 25,9 L 24,8 L 23,8 L 22,7 L 20,7 L 18,5 L 17,5 L 15,3 L 13,3 L 10,0 Z" fill="none" stroke="black" stroke-width="1"/>
</svg>