<svg xmlns="http://www.w3.org/2000/svg" width="164" height="138">
  <path d="M 43,20 L 38,25 L 37,25 L 36,26 L 35,26 L 35,27 L 34,28 L 33,28 L 31,30 L 30,30 L 29,31 L 28,31 L 25,34 L 24,34 L 22,36 L 21,36 L 20,37 L 18,37 L 17,38 L 16,38 L 15,39 L 14,39 L 13,40 L 11,40 L 9,42 L 8,42 L 7,43 L 6,43 L 4,45 L 3,45 L 2,46 L 2,47 L 0,49 L 0,55 L 1,56 L 1,58 L 3,60 L 3,61 L 5,63 L 6,63 L 8,65 L 8,66 L 10,68 L 11,68 L 12,69 L 12,70 L 13,71 L 13,72 L 19,72 L 20,71 L 24,71 L 25,72 L 30,72 L 34,76 L 35,75 L 36,75 L 37,74 L 40,74 L 41,73 L 42,73 L 43,72 L 45,72 L 46,71 L 48,71 L 48,70 L 49,69 L 49,68 L 51,66 L 54,66 L 55,65 L 56,65 L 57,64 L 62,64 L 63,65 L 64,65 L 65,66 L 65,58 L 66,57 L 66,56 L 67,55 L 68,55 L 70,53 L 71,53 L 71,50 L 72,49 L 70,49 L 69,48 L 68,48 L 67,47 L 63,47 L 62,46 L 60,46 L 54,40 L 54,39 L 53,39 L 50,36 L 50,35 L 49,34 L 49,33 L 47,31 L 47,24 L 46,23 L 46,22 L 45,21 L 44,21 Z" fill="none" stroke="black" stroke-width="1"/>
</svg>