<svg xmlns="http://www.w3.org/2000/svg" width="68" height="52">
  <path d="M 24,13 L 23,14 L 22,14 L 22,16 L 23,17 L 23,18 L 24,19 L 25,19 L 27,21 L 27,22 L 29,24 L 29,25 L 31,27 L 31,28 L 32,29 L 32,30 L 34,30 L 35,31 L 38,31 L 44,37 L 44,38 L 47,38 L 47,37 L 49,35 L 49,34 L 50,33 L 50,30 L 52,28 L 52,27 L 51,26 L 51,24 L 50,24 L 47,21 L 45,21 L 44,20 L 43,20 L 42,19 L 40,19 L 39,18 L 38,18 L 37,17 L 35,17 L 34,16 L 32,16 L 31,15 L 30,15 L 29,14 L 28,14 L 27,13 Z" fill="none" stroke="black" stroke-width="1"/>
</svg>