<svg xmlns="http://www.w3.org/2000/svg" width="101" height="62">
  <path d="M 56,0 L 53,3 L 53,4 L 52,5 L 50,5 L 50,6 L 49,7 L 47,7 L 45,9 L 45,11 L 43,13 L 44,13 L 45,14 L 45,15 L 44,16 L 45,17 L 47,17 L 49,19 L 50,18 L 52,18 L 54,20 L 54,22 L 56,22 L 57,23 L 63,23 L 63,21 L 64,20 L 66,20 L 66,18 L 67,17 L 68,17 L 71,20 L 71,23 L 75,23 L 76,24 L 76,26 L 80,26 L 83,29 L 84,29 L 85,30 L 86,30 L 87,31 L 88,31 L 89,32 L 91,30 L 89,28 L 91,26 L 91,23 L 94,20 L 94,19 L 99,14 L 99,13 L 100,12 L 100,11 L 99,10 L 99,9 L 97,7 L 94,7 L 92,5 L 87,5 L 86,4 L 86,3 L 81,3 L 79,5 L 64,5 L 63,4 L 63,3 L 62,2 L 60,2 L 59,1 L 59,0 Z" fill="none" stroke="black" stroke-width="1"/>
</svg>