<svg xmlns="http://www.w3.org/2000/svg" width="70" height="67">
  <path d="M 44,28 L 43,29 L 42,29 L 40,31 L 39,31 L 38,32 L 38,34 L 39,35 L 39,36 L 40,37 L 37,40 L 36,39 L 35,39 L 35,41 L 36,42 L 36,43 L 37,44 L 37,45 L 38,45 L 40,47 L 40,48 L 41,49 L 45,49 L 46,50 L 47,50 L 48,51 L 48,53 L 50,55 L 55,55 L 56,56 L 56,57 L 58,57 L 59,56 L 59,55 L 61,53 L 62,53 L 62,52 L 61,51 L 61,50 L 60,50 L 59,49 L 60,48 L 60,46 L 61,45 L 61,41 L 60,40 L 60,38 L 53,31 L 53,29 L 51,29 L 50,28 Z" fill="none" stroke="black" stroke-width="1"/>
</svg>