<svg xmlns="http://www.w3.org/2000/svg" width="98" height="50">
  <path d="M 32,3 L 29,6 L 29,7 L 27,9 L 26,9 L 25,10 L 24,10 L 22,12 L 22,13 L 21,14 L 21,15 L 22,16 L 22,17 L 23,18 L 23,20 L 24,21 L 20,25 L 20,26 L 22,28 L 22,29 L 23,29 L 24,28 L 27,28 L 27,27 L 28,26 L 29,26 L 30,25 L 33,25 L 34,24 L 34,23 L 35,22 L 36,22 L 37,21 L 38,21 L 40,19 L 41,19 L 42,18 L 44,18 L 46,16 L 45,15 L 47,13 L 47,12 L 49,10 L 49,9 L 48,9 L 47,8 L 47,6 L 48,5 L 48,4 L 46,4 L 45,3 L 44,4 L 36,4 L 35,3 Z" fill="none" stroke="black" stroke-width="1"/>
</svg>