<svg xmlns="http://www.w3.org/2000/svg" width="52" height="128">
  <path d="M 28,0 L 27,1 L 27,5 L 28,6 L 28,9 L 26,11 L 25,11 L 25,14 L 24,15 L 23,14 L 21,14 L 19,16 L 19,19 L 20,19 L 21,20 L 21,23 L 23,25 L 24,25 L 26,27 L 26,31 L 24,33 L 24,35 L 27,38 L 27,40 L 28,41 L 32,41 L 33,42 L 34,42 L 35,41 L 36,41 L 40,37 L 42,37 L 43,36 L 43,35 L 42,34 L 40,34 L 38,32 L 38,29 L 37,28 L 37,22 L 41,18 L 41,16 L 39,16 L 38,15 L 38,14 L 37,13 L 37,12 L 36,12 L 32,8 L 32,5 L 33,4 L 31,2 L 31,1 L 30,0 Z" fill="none" stroke="black" stroke-width="1"/>
</svg>