<svg xmlns="http://www.w3.org/2000/svg" width="45" height="124">
  <path d="M 30,0 L 30,1 L 29,2 L 29,4 L 28,5 L 28,10 L 24,14 L 24,20 L 25,20 L 26,21 L 26,22 L 28,24 L 28,25 L 29,26 L 29,28 L 32,31 L 32,36 L 33,37 L 34,37 L 36,39 L 37,39 L 38,40 L 39,40 L 39,39 L 40,38 L 41,38 L 41,29 L 42,28 L 41,27 L 41,26 L 43,24 L 43,21 L 42,20 L 42,19 L 43,18 L 44,18 L 44,11 L 42,11 L 41,10 L 41,9 L 40,8 L 40,5 L 37,5 L 36,4 L 36,2 L 34,2 L 33,1 L 33,0 Z" fill="none" stroke="black" stroke-width="1"/>
</svg>