<svg xmlns="http://www.w3.org/2000/svg" width="164" height="138">
  <path d="M 132,6 L 131,7 L 129,7 L 129,8 L 126,11 L 125,11 L 125,12 L 123,14 L 123,15 L 122,16 L 122,17 L 121,18 L 108,18 L 106,20 L 106,21 L 104,23 L 104,24 L 103,25 L 103,26 L 101,28 L 101,31 L 100,32 L 100,34 L 99,35 L 98,35 L 97,34 L 97,33 L 93,33 L 92,34 L 91,34 L 90,35 L 87,35 L 82,40 L 81,40 L 80,41 L 78,41 L 77,42 L 75,42 L 74,43 L 74,46 L 73,47 L 73,49 L 72,50 L 72,53 L 71,54 L 70,54 L 68,56 L 67,56 L 67,57 L 66,58 L 66,63 L 71,68 L 73,68 L 74,69 L 82,69 L 83,70 L 85,70 L 86,71 L 90,71 L 90,70 L 91,69 L 93,69 L 94,70 L 97,70 L 98,69 L 99,69 L 100,68 L 105,68 L 106,69 L 112,69 L 113,70 L 128,70 L 129,71 L 130,71 L 131,72 L 135,72 L 136,71 L 138,73 L 137,74 L 138,75 L 139,75 L 140,76 L 140,77 L 141,78 L 144,78 L 145,77 L 146,78 L 148,78 L 149,79 L 150,79 L 151,80 L 151,81 L 152,82 L 152,83 L 153,83 L 153,81 L 152,80 L 153,79 L 152,78 L 152,76 L 151,75 L 152,74 L 152,73 L 154,71 L 156,71 L 157,70 L 158,70 L 157,70 L 155,68 L 156,67 L 157,67 L 159,65 L 160,65 L 161,66 L 162,65 L 161,64 L 161,60 L 160,59 L 160,58 L 159,57 L 159,56 L 158,55 L 158,53 L 157,52 L 157,51 L 156,50 L 156,49 L 155,48 L 155,42 L 154,41 L 154,40 L 155,39 L 155,38 L 157,36 L 157,35 L 155,35 L 154,34 L 152,34 L 151,35 L 150,35 L 147,32 L 149,30 L 150,30 L 151,29 L 156,29 L 157,28 L 158,28 L 159,27 L 162,27 L 162,25 L 161,24 L 161,23 L 163,21 L 163,20 L 162,19 L 159,19 L 158,18 L 157,18 L 154,15 L 153,15 L 151,13 L 150,13 L 148,11 L 147,11 L 146,10 L 144,10 L 143,9 L 142,9 L 141,8 L 140,8 L 139,7 L 136,7 L 135,6 Z" fill="none" stroke="black" stroke-width="1"/>
</svg>