<svg xmlns="http://www.w3.org/2000/svg" width="42" height="87">
  <path d="M 23,0 L 23,2 L 20,5 L 20,6 L 19,7 L 18,7 L 16,9 L 15,9 L 15,16 L 14,17 L 13,17 L 13,18 L 14,19 L 14,22 L 12,24 L 12,25 L 13,26 L 14,26 L 15,27 L 16,27 L 17,28 L 18,28 L 20,30 L 20,31 L 21,32 L 21,33 L 22,34 L 24,34 L 25,35 L 27,35 L 29,37 L 30,36 L 32,36 L 32,35 L 30,33 L 30,31 L 29,30 L 29,29 L 28,28 L 28,24 L 27,23 L 27,20 L 26,19 L 26,17 L 28,15 L 28,14 L 29,13 L 30,13 L 31,12 L 32,12 L 32,11 L 31,11 L 30,10 L 30,8 L 29,7 L 29,6 L 28,5 L 28,3 L 25,0 Z" fill="none" stroke="black" stroke-width="1"/>
</svg>