<svg xmlns="http://www.w3.org/2000/svg" width="52" height="128">
  <path d="M 12,93 L 11,94 L 8,94 L 6,96 L 6,97 L 5,98 L 6,99 L 6,100 L 7,101 L 7,104 L 6,105 L 4,105 L 3,104 L 2,104 L 0,106 L 0,107 L 2,107 L 5,110 L 6,110 L 7,111 L 8,111 L 9,112 L 9,115 L 10,116 L 11,116 L 13,118 L 15,118 L 16,119 L 19,119 L 20,120 L 21,120 L 25,124 L 25,126 L 26,127 L 30,127 L 30,126 L 32,124 L 32,121 L 31,120 L 31,113 L 30,113 L 28,111 L 28,110 L 27,109 L 27,108 L 26,107 L 25,107 L 24,106 L 22,106 L 21,105 L 21,100 L 20,99 L 18,99 L 17,98 L 15,98 L 14,97 L 14,94 L 13,94 Z" fill="none" stroke="black" stroke-width="1"/>
</svg>