<svg xmlns="http://www.w3.org/2000/svg" width="108" height="62">
  <path d="M 2,26 L 1,27 L 1,35 L 2,36 L 2,39 L 0,41 L 0,42 L 1,43 L 6,43 L 8,45 L 8,47 L 12,47 L 13,48 L 13,49 L 14,49 L 15,50 L 15,51 L 17,51 L 18,52 L 18,53 L 23,53 L 24,54 L 24,55 L 26,55 L 27,54 L 28,54 L 29,55 L 29,56 L 34,56 L 35,57 L 35,58 L 37,60 L 39,60 L 40,61 L 42,61 L 42,59 L 43,58 L 43,56 L 33,46 L 31,46 L 28,43 L 28,42 L 27,41 L 27,40 L 26,39 L 25,39 L 22,36 L 21,36 L 20,35 L 19,35 L 16,32 L 14,32 L 13,31 L 12,31 L 10,29 L 10,27 L 3,27 Z" fill="none" stroke="black" stroke-width="1"/>
</svg>