<svg xmlns="http://www.w3.org/2000/svg" width="76" height="108">
  <path d="M 20,25 L 16,29 L 15,29 L 13,27 L 10,27 L 10,29 L 9,30 L 9,32 L 8,33 L 8,37 L 5,40 L 5,41 L 2,44 L 1,44 L 0,45 L 0,46 L 1,47 L 1,50 L 3,52 L 3,53 L 5,55 L 5,56 L 6,57 L 6,59 L 5,60 L 6,60 L 9,63 L 10,63 L 12,65 L 12,68 L 15,68 L 16,67 L 17,67 L 21,63 L 22,63 L 23,62 L 23,61 L 24,60 L 24,58 L 26,56 L 26,54 L 25,53 L 25,52 L 24,51 L 24,49 L 25,48 L 25,47 L 28,44 L 28,43 L 32,39 L 32,37 L 31,36 L 31,35 L 29,33 L 29,29 L 27,27 L 25,27 L 24,26 L 22,26 L 21,25 Z" fill="none" stroke="black" stroke-width="1"/>
</svg>