<svg xmlns="http://www.w3.org/2000/svg" width="45" height="124">
  <path d="M 27,68 L 26,69 L 24,69 L 24,70 L 21,73 L 20,73 L 20,75 L 19,76 L 19,77 L 18,78 L 18,79 L 14,83 L 14,85 L 13,86 L 11,86 L 11,88 L 10,89 L 10,93 L 9,94 L 9,95 L 8,96 L 8,97 L 9,98 L 9,99 L 7,101 L 7,102 L 10,102 L 13,99 L 14,99 L 18,95 L 18,93 L 20,91 L 21,91 L 22,92 L 22,95 L 23,95 L 27,91 L 27,89 L 29,87 L 29,86 L 30,85 L 30,84 L 29,83 L 29,80 L 30,79 L 30,72 L 31,71 L 31,70 L 32,69 L 32,68 Z" fill="none" stroke="black" stroke-width="1"/>
</svg>