<svg xmlns="http://www.w3.org/2000/svg" width="114" height="84">
  <path d="M 60,16 L 59,17 L 52,17 L 51,18 L 49,18 L 48,17 L 41,17 L 40,18 L 36,18 L 36,20 L 35,21 L 35,23 L 33,25 L 32,25 L 31,26 L 29,26 L 26,29 L 26,31 L 25,32 L 25,36 L 27,38 L 27,39 L 30,39 L 31,38 L 34,38 L 35,37 L 37,37 L 38,36 L 39,36 L 40,35 L 42,35 L 43,36 L 44,36 L 45,37 L 52,37 L 55,34 L 55,33 L 57,31 L 57,30 L 59,28 L 60,28 L 66,22 L 68,22 L 69,21 L 71,21 L 72,20 L 72,18 L 68,18 L 67,17 L 66,17 L 65,16 Z" fill="none" stroke="black" stroke-width="1"/>
</svg>