<svg xmlns="http://www.w3.org/2000/svg" width="102" height="63">
  <path d="M 68,0 L 67,1 L 61,1 L 59,3 L 57,3 L 56,4 L 55,4 L 55,5 L 54,6 L 53,6 L 52,7 L 51,7 L 50,6 L 47,6 L 47,7 L 46,8 L 46,11 L 47,12 L 47,13 L 49,15 L 49,16 L 50,16 L 51,17 L 53,17 L 55,19 L 58,19 L 59,20 L 61,20 L 62,21 L 64,21 L 65,22 L 69,22 L 70,23 L 71,23 L 72,24 L 75,24 L 75,19 L 74,18 L 74,16 L 75,15 L 75,13 L 74,12 L 74,11 L 76,9 L 77,9 L 80,6 L 80,4 L 77,1 L 76,1 L 75,0 Z" fill="none" stroke="black" stroke-width="1"/>
</svg>