<svg xmlns="http://www.w3.org/2000/svg" width="102" height="63">
  <path d="M 21,36 L 20,37 L 14,37 L 11,40 L 8,40 L 7,41 L 6,41 L 6,43 L 5,44 L 4,44 L 4,46 L 6,48 L 30,48 L 31,47 L 36,47 L 37,48 L 38,48 L 39,49 L 42,49 L 44,51 L 46,51 L 46,50 L 47,49 L 48,50 L 49,50 L 49,49 L 48,48 L 48,47 L 49,46 L 49,44 L 48,43 L 45,43 L 44,44 L 43,43 L 40,43 L 39,42 L 38,42 L 37,41 L 36,41 L 35,40 L 34,40 L 33,39 L 32,39 L 31,38 L 30,38 L 29,37 L 26,37 L 25,36 Z" fill="none" stroke="black" stroke-width="1"/>
</svg>