<svg xmlns="http://www.w3.org/2000/svg" width="92" height="36">
  <path d="M 49,7 L 48,8 L 45,8 L 47,10 L 48,10 L 50,12 L 51,12 L 53,14 L 53,15 L 54,15 L 56,17 L 56,19 L 53,22 L 53,25 L 49,29 L 49,30 L 47,32 L 47,33 L 51,33 L 52,34 L 55,34 L 56,33 L 57,33 L 60,30 L 61,30 L 62,29 L 63,29 L 64,28 L 66,28 L 67,27 L 71,27 L 72,26 L 73,26 L 74,25 L 75,25 L 76,24 L 77,24 L 78,23 L 78,22 L 74,18 L 73,18 L 72,17 L 71,17 L 70,16 L 69,16 L 68,15 L 68,9 L 67,8 L 66,8 L 65,7 Z" fill="none" stroke="black" stroke-width="1"/>
</svg>