<svg xmlns="http://www.w3.org/2000/svg" width="153" height="110">
  <path d="M 3,43 L 3,50 L 2,51 L 0,51 L 0,64 L 1,65 L 1,69 L 2,70 L 2,71 L 3,72 L 3,74 L 4,75 L 4,73 L 5,72 L 12,72 L 13,73 L 13,76 L 14,76 L 15,77 L 15,78 L 16,78 L 17,79 L 17,80 L 18,80 L 19,81 L 19,83 L 20,83 L 21,84 L 21,86 L 26,86 L 27,85 L 36,85 L 37,86 L 37,88 L 38,88 L 39,89 L 39,90 L 40,90 L 41,91 L 41,94 L 42,95 L 42,96 L 48,96 L 49,95 L 49,94 L 50,93 L 52,93 L 55,90 L 56,90 L 56,85 L 55,84 L 55,80 L 56,79 L 53,76 L 53,73 L 55,71 L 56,71 L 56,70 L 57,69 L 57,67 L 56,66 L 52,66 L 51,65 L 51,64 L 46,59 L 46,58 L 45,57 L 45,54 L 41,50 L 41,49 L 38,49 L 37,48 L 36,48 L 35,47 L 34,47 L 33,48 L 32,48 L 30,50 L 29,50 L 26,53 L 23,53 L 22,52 L 21,52 L 20,51 L 19,52 L 18,52 L 17,53 L 13,53 L 12,52 L 11,52 L 10,51 L 10,50 L 11,49 L 11,48 L 10,48 L 9,47 L 9,45 L 8,45 L 7,44 L 6,44 L 5,43 Z" fill="none" stroke="black" stroke-width="1"/>
</svg>