<svg xmlns="http://www.w3.org/2000/svg" width="46" height="35">
  <path d="M 19,18 L 18,19 L 19,20 L 20,20 L 21,21 L 23,21 L 24,22 L 25,22 L 25,21 L 24,21 L 23,20 L 22,20 L 21,19 L 20,19 Z" fill="none" stroke="black" stroke-width="1"/>
  <path d="M 27,12 L 26,13 L 26,17 L 31,22 L 32,22 L 33,23 L 33,25 L 32,26 L 30,26 L 29,25 L 27,27 L 27,28 L 33,28 L 35,30 L 38,30 L 39,31 L 40,31 L 41,32 L 41,33 L 42,33 L 43,34 L 43,30 L 41,28 L 41,26 L 40,25 L 40,24 L 39,24 L 34,19 L 34,18 L 31,15 L 31,14 L 29,12 Z" fill="none" stroke="black" stroke-width="1"/>
</svg>