<svg xmlns="http://www.w3.org/2000/svg" width="108" height="66">
  <path d="M 84,6 L 84,7 L 85,8 L 86,8 L 87,9 L 87,10 L 88,10 L 88,9 L 85,6 Z" fill="none" stroke="black" stroke-width="1"/>
  <path d="M 75,4 L 74,5 L 71,5 L 70,6 L 69,6 L 68,7 L 68,9 L 69,10 L 68,11 L 68,14 L 69,15 L 69,17 L 70,17 L 71,18 L 71,20 L 72,21 L 73,21 L 74,22 L 75,22 L 77,24 L 80,24 L 81,25 L 83,25 L 84,26 L 86,26 L 86,21 L 84,19 L 84,15 L 85,14 L 85,11 L 84,11 L 83,10 L 83,9 L 82,8 L 82,7 L 80,7 L 79,6 L 78,6 L 76,4 Z" fill="none" stroke="black" stroke-width="1"/>
</svg>