<svg xmlns="http://www.w3.org/2000/svg" width="44" height="75">
  <path d="M 33,13 L 33,14 L 34,14 L 34,13 Z" fill="none" stroke="black" stroke-width="1"/>
  <path d="M 25,0 L 24,1 L 21,1 L 20,2 L 19,2 L 18,3 L 16,3 L 16,12 L 17,13 L 17,15 L 18,16 L 18,17 L 20,19 L 20,21 L 21,21 L 22,22 L 26,22 L 27,23 L 28,22 L 33,22 L 33,18 L 34,17 L 33,16 L 32,16 L 31,15 L 31,14 L 30,13 L 30,12 L 32,10 L 30,8 L 30,7 L 29,6 L 29,5 L 28,4 L 28,3 L 27,2 L 27,0 Z" fill="none" stroke="black" stroke-width="1"/>
</svg>