<svg xmlns="http://www.w3.org/2000/svg" width="102" height="95">
  <path d="M 42,38 L 39,41 L 38,41 L 34,45 L 32,45 L 31,46 L 30,46 L 29,45 L 23,45 L 21,47 L 21,50 L 22,51 L 22,53 L 23,54 L 23,56 L 24,57 L 24,59 L 29,64 L 29,69 L 30,70 L 30,71 L 32,73 L 35,73 L 35,71 L 36,70 L 37,70 L 38,69 L 44,69 L 46,67 L 47,67 L 47,63 L 48,62 L 49,62 L 51,60 L 55,60 L 56,59 L 56,58 L 57,57 L 58,57 L 61,54 L 65,54 L 65,47 L 64,46 L 61,46 L 60,45 L 59,45 L 58,44 L 56,44 L 55,43 L 52,43 L 51,42 L 49,42 L 45,38 Z" fill="none" stroke="black" stroke-width="1"/>
</svg>