<svg xmlns="http://www.w3.org/2000/svg" width="106" height="57">
  <path d="M 16,0 L 15,1 L 11,1 L 10,2 L 1,2 L 0,3 L 0,5 L 3,5 L 15,17 L 15,18 L 16,19 L 16,20 L 18,22 L 21,22 L 22,21 L 23,21 L 25,19 L 28,19 L 29,20 L 31,20 L 34,23 L 35,23 L 36,24 L 39,24 L 40,23 L 42,25 L 44,25 L 45,26 L 46,26 L 47,27 L 52,27 L 53,26 L 53,21 L 51,19 L 51,18 L 49,16 L 48,16 L 43,11 L 43,10 L 41,8 L 42,7 L 43,7 L 44,6 L 44,2 L 42,0 L 41,0 L 40,1 L 34,1 L 33,0 L 30,0 L 29,1 L 18,1 L 17,0 Z" fill="none" stroke="black" stroke-width="1"/>
</svg>