<svg xmlns="http://www.w3.org/2000/svg" width="106" height="57">
  <path d="M 82,2 L 82,3 L 80,5 L 78,5 L 77,6 L 76,6 L 71,11 L 70,11 L 69,12 L 68,12 L 67,13 L 66,13 L 65,14 L 64,14 L 63,15 L 57,15 L 56,16 L 50,16 L 52,18 L 52,19 L 54,21 L 54,25 L 55,26 L 56,26 L 58,28 L 64,28 L 65,29 L 68,29 L 69,28 L 77,28 L 78,27 L 86,27 L 87,28 L 88,28 L 89,29 L 91,29 L 92,30 L 94,30 L 96,32 L 96,33 L 97,33 L 98,32 L 99,32 L 101,30 L 101,29 L 104,26 L 105,26 L 105,23 L 104,22 L 104,21 L 103,21 L 102,20 L 101,20 L 100,19 L 100,15 L 95,10 L 95,9 L 94,9 L 92,7 L 91,7 L 89,5 L 88,5 L 85,2 Z" fill="none" stroke="black" stroke-width="1"/>
</svg>