<svg xmlns="http://www.w3.org/2000/svg" width="100" height="102">
  <path d="M 16,35 L 15,36 L 15,41 L 17,43 L 17,46 L 15,48 L 15,49 L 14,50 L 8,50 L 7,49 L 6,49 L 4,51 L 4,54 L 5,54 L 6,55 L 6,56 L 7,57 L 7,59 L 6,60 L 8,62 L 8,65 L 10,65 L 13,68 L 17,68 L 18,67 L 20,67 L 21,66 L 22,66 L 27,61 L 28,61 L 29,60 L 30,61 L 34,61 L 40,55 L 41,55 L 42,54 L 43,55 L 45,55 L 46,56 L 47,56 L 48,55 L 51,55 L 51,52 L 52,51 L 52,47 L 53,46 L 53,44 L 52,43 L 52,40 L 51,39 L 51,38 L 46,38 L 45,39 L 44,39 L 42,41 L 41,41 L 40,42 L 37,42 L 36,41 L 33,41 L 32,40 L 31,40 L 30,39 L 28,39 L 27,38 L 26,38 L 23,35 Z" fill="none" stroke="black" stroke-width="1"/>
</svg>