<svg xmlns="http://www.w3.org/2000/svg" width="131" height="113">
  <path d="M 111,43 L 109,45 L 108,45 L 106,47 L 105,47 L 104,48 L 103,48 L 98,53 L 97,53 L 90,60 L 90,61 L 89,62 L 89,63 L 87,65 L 87,66 L 86,67 L 86,68 L 85,69 L 85,70 L 84,71 L 84,72 L 83,73 L 83,74 L 82,75 L 82,77 L 84,79 L 84,95 L 83,96 L 84,96 L 85,97 L 87,97 L 88,98 L 90,98 L 92,100 L 93,100 L 95,102 L 96,102 L 98,100 L 99,100 L 101,98 L 101,96 L 103,94 L 103,93 L 104,92 L 104,91 L 105,90 L 105,89 L 107,87 L 107,83 L 108,82 L 109,83 L 114,83 L 115,82 L 117,82 L 118,81 L 119,81 L 123,77 L 125,79 L 126,79 L 126,76 L 127,75 L 129,75 L 130,74 L 129,73 L 129,72 L 127,70 L 126,70 L 125,69 L 123,69 L 121,67 L 119,67 L 117,65 L 117,64 L 119,62 L 120,62 L 121,63 L 125,63 L 125,61 L 120,56 L 120,54 L 119,53 L 119,52 L 114,47 L 114,46 Z" fill="none" stroke="black" stroke-width="1"/>
</svg>