<svg xmlns="http://www.w3.org/2000/svg" width="55" height="98">
  <path d="M 47,23 L 46,24 L 45,24 L 44,25 L 42,25 L 41,24 L 37,24 L 35,26 L 34,26 L 34,27 L 33,28 L 33,29 L 30,32 L 27,32 L 27,34 L 23,38 L 24,39 L 24,40 L 23,41 L 24,42 L 24,45 L 23,46 L 23,50 L 25,52 L 26,52 L 28,54 L 29,54 L 30,55 L 31,55 L 32,56 L 32,54 L 35,51 L 36,51 L 37,52 L 43,52 L 43,51 L 45,49 L 45,46 L 43,44 L 43,39 L 45,37 L 51,37 L 53,35 L 53,34 L 54,33 L 54,27 L 52,25 L 51,25 L 50,24 L 50,23 Z" fill="none" stroke="black" stroke-width="1"/>
</svg>