<svg xmlns="http://www.w3.org/2000/svg" width="55" height="98">
  <path d="M 20,14 L 19,15 L 17,15 L 17,19 L 18,20 L 18,23 L 17,24 L 16,24 L 16,25 L 12,29 L 11,29 L 10,28 L 8,28 L 7,27 L 4,27 L 4,28 L 3,29 L 3,30 L 4,31 L 4,32 L 9,37 L 8,38 L 7,38 L 7,39 L 10,39 L 11,40 L 12,40 L 13,41 L 17,41 L 18,40 L 19,40 L 20,39 L 21,40 L 23,40 L 23,39 L 22,38 L 26,34 L 26,32 L 27,31 L 30,31 L 32,29 L 32,28 L 33,27 L 33,24 L 31,22 L 31,21 L 29,19 L 28,19 L 27,18 L 27,15 L 26,15 L 25,14 Z" fill="none" stroke="black" stroke-width="1"/>
</svg>