<svg xmlns="http://www.w3.org/2000/svg" width="104" height="94">
  <path d="M 81,65 L 79,67 L 79,69 L 76,72 L 76,73 L 74,75 L 73,75 L 72,76 L 70,76 L 67,79 L 66,79 L 65,80 L 65,81 L 63,83 L 62,82 L 57,82 L 56,83 L 53,83 L 53,84 L 54,84 L 55,85 L 57,85 L 59,87 L 61,87 L 62,88 L 64,88 L 65,89 L 66,89 L 67,88 L 68,89 L 69,89 L 70,90 L 71,90 L 72,91 L 84,91 L 85,92 L 92,92 L 93,93 L 100,93 L 100,92 L 103,89 L 100,86 L 100,85 L 98,83 L 98,82 L 97,81 L 97,80 L 96,79 L 96,78 L 95,77 L 95,74 L 94,74 L 92,72 L 92,71 L 91,70 L 91,69 L 90,68 L 85,68 L 84,67 L 84,65 Z" fill="none" stroke="black" stroke-width="1"/>
</svg>