<svg xmlns="http://www.w3.org/2000/svg" width="84" height="87">
  <path d="M 18,0 L 17,1 L 16,1 L 14,3 L 14,6 L 13,7 L 13,11 L 14,12 L 14,13 L 15,13 L 23,21 L 23,22 L 26,25 L 27,25 L 28,26 L 28,29 L 29,30 L 29,31 L 30,32 L 30,33 L 29,34 L 30,35 L 30,36 L 29,37 L 33,37 L 34,38 L 35,38 L 36,39 L 37,39 L 38,40 L 38,41 L 40,43 L 41,43 L 43,45 L 46,45 L 46,44 L 47,43 L 47,39 L 45,37 L 45,36 L 44,35 L 44,31 L 41,28 L 41,27 L 36,22 L 36,20 L 35,19 L 35,18 L 33,16 L 33,15 L 32,14 L 32,12 L 30,10 L 30,9 L 29,9 L 28,8 L 27,8 L 26,7 L 24,7 L 19,2 L 19,0 Z" fill="none" stroke="black" stroke-width="1"/>
</svg>