<svg xmlns="http://www.w3.org/2000/svg" width="119" height="121">
  <path d="M 34,11 L 33,12 L 32,12 L 30,14 L 29,14 L 28,15 L 26,15 L 24,13 L 23,13 L 22,14 L 19,14 L 18,13 L 16,13 L 15,14 L 14,14 L 13,15 L 14,16 L 14,17 L 16,19 L 16,21 L 17,22 L 17,24 L 16,25 L 15,25 L 14,24 L 14,23 L 13,22 L 12,22 L 11,21 L 11,19 L 10,19 L 9,20 L 9,21 L 10,22 L 10,23 L 11,24 L 11,28 L 15,32 L 22,32 L 23,33 L 24,33 L 25,34 L 26,34 L 27,35 L 29,35 L 29,29 L 36,22 L 36,14 L 35,13 L 35,11 Z" fill="none" stroke="black" stroke-width="1"/>
</svg>