<svg xmlns="http://www.w3.org/2000/svg" width="117" height="165">
  <path d="M 22,0 L 19,3 L 17,3 L 16,4 L 14,4 L 13,5 L 12,5 L 11,4 L 10,4 L 9,3 L 8,4 L 7,3 L 4,3 L 3,4 L 2,4 L 1,5 L 1,6 L 0,7 L 0,8 L 1,8 L 4,11 L 4,17 L 5,17 L 7,19 L 7,20 L 9,22 L 9,23 L 13,23 L 14,22 L 15,23 L 17,23 L 18,24 L 18,25 L 19,25 L 23,29 L 23,31 L 24,32 L 24,33 L 25,34 L 25,35 L 26,36 L 27,36 L 28,37 L 28,38 L 31,38 L 32,39 L 34,39 L 34,33 L 33,32 L 33,27 L 32,27 L 31,26 L 31,25 L 30,24 L 30,20 L 31,19 L 31,15 L 32,14 L 31,13 L 31,11 L 30,10 L 30,7 L 29,6 L 29,3 L 28,2 L 26,2 L 25,1 L 24,1 L 23,0 Z" fill="none" stroke="black" stroke-width="1"/>
</svg>