<svg xmlns="http://www.w3.org/2000/svg" width="143" height="138">
  <path d="M 13,58 L 11,60 L 10,60 L 10,61 L 9,62 L 8,62 L 8,70 L 10,72 L 10,74 L 9,75 L 9,79 L 10,80 L 10,81 L 12,83 L 12,84 L 13,85 L 13,90 L 14,90 L 17,93 L 19,93 L 20,94 L 21,93 L 24,93 L 26,91 L 28,91 L 29,92 L 34,92 L 35,93 L 36,93 L 37,94 L 37,96 L 38,97 L 36,99 L 36,100 L 35,101 L 37,103 L 37,108 L 36,109 L 36,111 L 35,112 L 35,113 L 36,113 L 37,114 L 39,114 L 40,115 L 41,115 L 42,116 L 43,116 L 44,117 L 45,117 L 48,120 L 48,121 L 50,123 L 50,125 L 51,125 L 52,126 L 53,125 L 66,125 L 66,124 L 69,121 L 70,121 L 70,120 L 71,119 L 71,118 L 72,117 L 74,117 L 75,116 L 77,116 L 77,115 L 72,110 L 71,110 L 65,104 L 65,94 L 64,93 L 64,92 L 63,91 L 63,90 L 62,89 L 61,89 L 60,88 L 60,87 L 58,85 L 58,84 L 57,83 L 57,80 L 56,79 L 56,78 L 52,74 L 50,74 L 50,78 L 49,79 L 48,79 L 47,78 L 46,78 L 45,77 L 43,77 L 42,76 L 36,76 L 34,74 L 33,74 L 32,73 L 31,73 L 30,72 L 29,72 L 25,68 L 25,67 L 24,66 L 24,65 L 23,64 L 23,63 L 19,59 L 17,59 L 16,58 Z" fill="none" stroke="black" stroke-width="1"/>
</svg>