<svg xmlns="http://www.w3.org/2000/svg" width="60" height="59">
  <path d="M 31,16 L 27,20 L 27,24 L 28,25 L 28,26 L 27,27 L 26,27 L 26,28 L 23,31 L 22,30 L 18,30 L 17,29 L 15,29 L 14,30 L 13,30 L 12,31 L 11,31 L 10,32 L 6,32 L 6,33 L 8,35 L 8,36 L 9,37 L 9,39 L 17,39 L 18,40 L 20,40 L 22,42 L 23,42 L 24,43 L 25,43 L 29,47 L 32,47 L 32,43 L 33,42 L 34,42 L 35,41 L 36,41 L 37,40 L 41,40 L 41,39 L 46,34 L 46,32 L 45,31 L 45,30 L 43,28 L 43,27 L 42,26 L 41,26 L 35,20 L 35,19 L 33,17 L 33,16 Z" fill="none" stroke="black" stroke-width="1"/>
</svg>