<svg xmlns="http://www.w3.org/2000/svg" width="100" height="92">
  <path d="M 38,0 L 36,2 L 33,2 L 32,3 L 31,3 L 29,5 L 29,8 L 26,11 L 24,11 L 23,10 L 22,10 L 21,9 L 13,9 L 12,8 L 7,8 L 5,10 L 5,11 L 4,12 L 0,12 L 0,16 L 1,17 L 1,19 L 0,20 L 0,21 L 1,22 L 1,23 L 2,24 L 4,24 L 6,26 L 7,26 L 10,29 L 10,30 L 14,34 L 14,37 L 13,38 L 13,40 L 14,41 L 14,42 L 17,45 L 17,46 L 18,47 L 19,47 L 20,46 L 23,46 L 24,45 L 23,44 L 23,43 L 24,42 L 25,42 L 26,41 L 27,41 L 28,40 L 31,40 L 31,39 L 32,38 L 30,36 L 30,35 L 29,34 L 29,32 L 31,30 L 31,29 L 32,28 L 32,26 L 40,18 L 40,17 L 42,15 L 42,13 L 45,10 L 45,9 L 47,7 L 47,5 L 46,4 L 47,3 L 47,2 L 40,2 L 39,1 L 39,0 Z" fill="none" stroke="black" stroke-width="1"/>
</svg>