<svg xmlns="http://www.w3.org/2000/svg" width="92" height="119">
  <path d="M 10,0 L 9,1 L 8,1 L 7,2 L 6,2 L 6,3 L 7,4 L 5,6 L 2,6 L 1,7 L 0,7 L 0,8 L 1,8 L 3,10 L 3,11 L 5,13 L 5,14 L 6,14 L 7,15 L 7,16 L 5,18 L 2,18 L 1,19 L 0,19 L 0,25 L 3,28 L 3,31 L 2,32 L 2,34 L 5,37 L 5,39 L 6,40 L 6,43 L 7,44 L 7,45 L 8,46 L 10,46 L 12,48 L 12,50 L 13,51 L 13,53 L 16,56 L 17,56 L 18,57 L 19,57 L 20,58 L 23,58 L 24,59 L 24,60 L 25,61 L 26,61 L 26,60 L 27,59 L 27,57 L 28,56 L 28,55 L 29,54 L 29,53 L 31,51 L 31,49 L 32,48 L 32,46 L 31,45 L 31,41 L 30,40 L 30,39 L 29,38 L 29,36 L 27,34 L 27,33 L 26,32 L 26,31 L 27,30 L 27,25 L 26,24 L 26,22 L 22,18 L 21,18 L 17,14 L 17,11 L 15,9 L 15,8 L 12,5 L 12,3 L 13,2 L 13,0 Z" fill="none" stroke="black" stroke-width="1"/>
</svg>