<svg xmlns="http://www.w3.org/2000/svg" width="92" height="119">
  <path d="M 57,76 L 55,78 L 54,78 L 53,79 L 52,79 L 50,81 L 50,82 L 46,86 L 45,86 L 44,87 L 44,89 L 46,91 L 46,93 L 47,94 L 47,95 L 48,96 L 48,97 L 52,101 L 52,102 L 53,103 L 55,103 L 59,107 L 59,108 L 65,114 L 65,115 L 66,116 L 66,118 L 67,118 L 69,116 L 69,113 L 68,112 L 67,112 L 66,111 L 68,109 L 68,105 L 66,103 L 66,99 L 67,98 L 67,96 L 68,95 L 68,92 L 67,92 L 66,91 L 66,88 L 68,86 L 68,84 L 69,83 L 69,81 L 67,79 L 67,78 L 63,78 L 61,76 Z" fill="none" stroke="black" stroke-width="1"/>
</svg>