<svg xmlns="http://www.w3.org/2000/svg" width="92" height="119">
  <path d="M 39,41 L 38,42 L 36,42 L 36,43 L 35,44 L 35,47 L 34,48 L 34,49 L 30,53 L 30,54 L 29,55 L 29,56 L 28,57 L 28,59 L 27,60 L 27,61 L 26,62 L 26,69 L 27,70 L 27,72 L 29,74 L 29,75 L 30,76 L 31,76 L 32,75 L 33,76 L 33,78 L 37,82 L 37,83 L 40,86 L 40,87 L 43,87 L 45,85 L 46,85 L 49,82 L 49,81 L 52,78 L 53,78 L 54,77 L 55,77 L 55,74 L 54,73 L 54,70 L 53,69 L 53,68 L 52,67 L 52,64 L 51,63 L 51,62 L 52,61 L 52,58 L 51,57 L 51,56 L 53,54 L 53,53 L 51,51 L 51,50 L 47,46 L 47,44 L 46,43 L 43,43 L 41,41 Z" fill="none" stroke="black" stroke-width="1"/>
</svg>