<svg xmlns="http://www.w3.org/2000/svg" width="104" height="107">
  <path d="M 81,65 L 79,67 L 79,69 L 78,70 L 74,70 L 73,71 L 72,71 L 71,72 L 70,72 L 67,75 L 66,75 L 66,78 L 67,79 L 67,80 L 68,81 L 69,81 L 70,82 L 69,83 L 69,84 L 68,85 L 69,86 L 69,87 L 70,88 L 70,90 L 71,90 L 72,91 L 72,92 L 73,93 L 74,93 L 75,94 L 79,94 L 80,95 L 80,98 L 81,99 L 81,100 L 83,102 L 85,100 L 86,100 L 90,104 L 90,105 L 91,106 L 94,106 L 97,103 L 98,103 L 99,102 L 100,102 L 103,99 L 103,98 L 102,97 L 102,96 L 101,95 L 101,92 L 100,91 L 100,89 L 97,86 L 97,84 L 98,83 L 98,80 L 95,77 L 95,73 L 94,72 L 93,72 L 92,71 L 91,71 L 90,72 L 89,71 L 89,70 L 88,70 L 86,68 L 86,67 L 85,67 L 83,65 Z" fill="none" stroke="black" stroke-width="1"/>
</svg>