<svg xmlns="http://www.w3.org/2000/svg" width="104" height="107">
  <path d="M 53,21 L 54,21 L 55,22 L 55,23 L 54,24 L 54,27 L 53,28 L 54,28 L 56,30 L 56,31 L 57,32 L 57,35 L 58,36 L 58,37 L 63,42 L 63,44 L 62,45 L 65,48 L 65,49 L 66,50 L 67,50 L 69,52 L 69,53 L 71,55 L 71,57 L 72,58 L 72,59 L 73,60 L 74,60 L 75,61 L 77,61 L 79,63 L 80,63 L 81,64 L 83,64 L 85,66 L 86,66 L 87,67 L 87,68 L 88,69 L 89,69 L 90,70 L 90,71 L 91,70 L 92,70 L 93,71 L 94,71 L 95,72 L 95,71 L 96,70 L 97,70 L 98,69 L 101,69 L 102,68 L 102,67 L 101,67 L 100,66 L 100,65 L 98,63 L 98,62 L 97,61 L 96,61 L 95,60 L 95,58 L 94,57 L 94,56 L 91,53 L 91,52 L 90,51 L 90,49 L 91,48 L 91,45 L 87,41 L 87,40 L 85,38 L 84,38 L 82,36 L 80,36 L 78,34 L 78,33 L 77,32 L 77,31 L 78,30 L 78,28 L 77,27 L 77,23 L 75,23 L 74,22 L 67,22 L 66,21 Z" fill="none" stroke="black" stroke-width="1"/>
</svg>