<svg xmlns="http://www.w3.org/2000/svg" width="131" height="113">
  <path d="M 63,0 L 63,2 L 61,4 L 60,3 L 59,3 L 59,7 L 60,8 L 60,10 L 57,13 L 57,18 L 56,19 L 56,25 L 57,26 L 56,27 L 56,28 L 55,29 L 55,30 L 54,31 L 53,31 L 53,32 L 51,34 L 51,35 L 52,36 L 52,37 L 54,39 L 54,40 L 55,40 L 56,41 L 56,42 L 57,42 L 58,43 L 59,43 L 61,45 L 62,45 L 64,47 L 64,53 L 65,54 L 65,55 L 67,57 L 69,55 L 70,55 L 71,54 L 73,54 L 74,53 L 77,53 L 79,55 L 81,55 L 84,58 L 85,58 L 86,59 L 87,59 L 89,61 L 89,60 L 97,52 L 98,52 L 103,47 L 104,47 L 105,46 L 106,46 L 108,44 L 109,44 L 110,43 L 104,43 L 103,42 L 101,42 L 101,43 L 100,44 L 99,44 L 98,43 L 97,43 L 96,42 L 96,40 L 95,39 L 95,35 L 96,34 L 96,33 L 94,33 L 92,31 L 92,18 L 93,17 L 94,17 L 94,16 L 95,15 L 95,14 L 92,11 L 92,3 L 93,2 L 93,1 L 92,1 L 91,2 L 90,2 L 89,3 L 87,3 L 84,6 L 80,6 L 79,7 L 78,7 L 77,6 L 76,6 L 73,3 L 71,3 L 70,2 L 65,2 L 64,1 L 64,0 Z" fill="none" stroke="black" stroke-width="1"/>
</svg>