<svg xmlns="http://www.w3.org/2000/svg" width="95" height="92">
  <path d="M 34,28 L 33,29 L 33,30 L 32,31 L 32,35 L 33,36 L 33,37 L 34,38 L 34,40 L 32,42 L 31,42 L 30,43 L 29,43 L 29,45 L 31,47 L 31,50 L 33,50 L 35,52 L 36,52 L 37,51 L 38,52 L 40,52 L 41,53 L 42,53 L 43,52 L 45,52 L 46,53 L 46,50 L 47,49 L 48,50 L 49,50 L 50,51 L 50,52 L 52,52 L 53,53 L 55,53 L 56,54 L 58,54 L 58,52 L 59,51 L 59,50 L 60,49 L 60,46 L 62,44 L 67,44 L 67,43 L 66,42 L 66,40 L 67,39 L 67,38 L 66,37 L 66,36 L 68,34 L 67,33 L 63,33 L 63,34 L 62,35 L 61,35 L 60,34 L 59,34 L 57,32 L 56,32 L 55,31 L 54,31 L 53,30 L 46,30 L 47,31 L 47,32 L 45,34 L 44,34 L 43,33 L 42,33 L 41,32 L 38,32 L 37,31 L 37,28 Z" fill="none" stroke="black" stroke-width="1"/>
</svg>