<svg xmlns="http://www.w3.org/2000/svg" width="73" height="73">
  <path d="M 27,46 L 24,49 L 23,49 L 21,51 L 20,51 L 19,50 L 18,50 L 17,51 L 16,51 L 15,52 L 14,52 L 13,53 L 11,53 L 10,52 L 5,52 L 4,53 L 2,53 L 2,59 L 0,61 L 0,66 L 3,69 L 4,68 L 7,68 L 8,69 L 11,69 L 12,70 L 13,70 L 15,72 L 16,72 L 18,70 L 21,70 L 22,71 L 25,71 L 26,70 L 27,70 L 28,69 L 29,69 L 32,66 L 32,65 L 34,63 L 38,63 L 40,61 L 40,58 L 39,57 L 36,57 L 34,55 L 34,53 L 33,53 L 31,51 L 31,50 L 32,49 L 30,47 L 29,47 L 28,46 Z" fill="none" stroke="black" stroke-width="1"/>
</svg>