<svg xmlns="http://www.w3.org/2000/svg" width="73" height="73">
  <path d="M 63,6 L 62,7 L 59,7 L 58,8 L 56,8 L 55,9 L 54,9 L 53,10 L 51,10 L 50,11 L 48,11 L 48,14 L 49,15 L 49,16 L 50,17 L 50,18 L 49,19 L 47,19 L 47,21 L 48,22 L 48,23 L 47,24 L 47,26 L 46,27 L 45,27 L 45,31 L 46,32 L 47,32 L 48,33 L 49,33 L 50,32 L 51,32 L 53,34 L 53,36 L 55,38 L 56,38 L 57,39 L 58,39 L 59,40 L 64,40 L 65,41 L 65,34 L 66,33 L 66,31 L 65,30 L 65,26 L 64,25 L 64,23 L 63,22 L 63,21 L 61,19 L 61,18 L 62,17 L 65,17 L 66,16 L 67,16 L 68,15 L 69,15 L 70,14 L 71,14 L 72,13 L 72,11 L 71,10 L 68,10 L 65,7 L 65,6 Z" fill="none" stroke="black" stroke-width="1"/>
</svg>