<svg xmlns="http://www.w3.org/2000/svg" width="125" height="93">
  <path d="M 71,29 L 68,32 L 61,32 L 58,35 L 58,38 L 55,41 L 55,42 L 54,43 L 54,44 L 55,45 L 56,45 L 57,46 L 57,47 L 58,48 L 58,51 L 57,52 L 57,53 L 56,54 L 56,56 L 59,59 L 59,61 L 60,62 L 60,63 L 61,63 L 62,62 L 64,62 L 66,60 L 66,59 L 68,57 L 68,56 L 69,55 L 69,54 L 71,52 L 71,51 L 72,50 L 73,50 L 74,49 L 75,49 L 76,50 L 77,50 L 78,49 L 79,49 L 85,43 L 85,42 L 84,41 L 84,39 L 83,38 L 83,36 L 86,33 L 85,32 L 84,32 L 81,29 L 78,29 L 77,30 L 74,30 L 73,29 Z" fill="none" stroke="black" stroke-width="1"/>
</svg>