<svg xmlns="http://www.w3.org/2000/svg" width="125" height="93">
  <path d="M 105,0 L 102,3 L 101,3 L 99,5 L 97,5 L 96,6 L 97,7 L 96,8 L 93,8 L 93,12 L 92,13 L 90,13 L 90,14 L 89,15 L 87,15 L 87,16 L 88,17 L 88,18 L 86,20 L 85,20 L 84,21 L 83,21 L 82,22 L 82,23 L 83,24 L 83,28 L 82,29 L 84,31 L 85,31 L 87,33 L 88,32 L 91,35 L 93,35 L 95,33 L 96,34 L 97,34 L 98,35 L 99,35 L 100,34 L 103,34 L 111,26 L 112,26 L 112,25 L 113,24 L 113,23 L 118,18 L 118,17 L 119,16 L 119,14 L 122,11 L 122,8 L 123,7 L 123,6 L 124,5 L 124,3 L 120,3 L 119,2 L 119,1 L 118,0 L 115,0 L 114,1 L 113,1 L 112,2 L 110,0 Z" fill="none" stroke="black" stroke-width="1"/>
</svg>