<svg xmlns="http://www.w3.org/2000/svg" width="48" height="174">
  <path d="M 16,0 L 15,1 L 16,2 L 14,4 L 13,3 L 12,3 L 12,5 L 13,6 L 14,6 L 15,7 L 15,8 L 17,10 L 17,11 L 16,12 L 16,13 L 15,14 L 16,14 L 16,13 L 17,12 L 18,13 L 18,15 L 17,16 L 13,16 L 13,18 L 14,17 L 15,17 L 16,18 L 16,19 L 15,20 L 14,20 L 14,21 L 13,22 L 9,22 L 8,21 L 8,19 L 7,20 L 5,20 L 4,21 L 3,21 L 2,22 L 3,23 L 3,27 L 5,29 L 5,30 L 4,31 L 4,32 L 3,33 L 3,40 L 0,43 L 0,45 L 1,46 L 1,48 L 0,49 L 0,53 L 1,53 L 3,55 L 3,58 L 7,62 L 7,63 L 8,64 L 8,65 L 9,65 L 10,64 L 10,63 L 14,59 L 16,59 L 19,56 L 19,55 L 21,53 L 22,53 L 22,48 L 23,47 L 23,44 L 25,42 L 24,42 L 23,41 L 24,40 L 25,40 L 24,39 L 26,37 L 26,33 L 25,32 L 25,26 L 24,25 L 24,23 L 22,21 L 22,18 L 21,17 L 21,16 L 19,14 L 19,13 L 18,12 L 18,11 L 19,10 L 19,9 L 20,8 L 20,5 L 18,3 L 18,2 L 17,1 L 17,0 Z" fill="none" stroke="black" stroke-width="1"/>
</svg>