<svg xmlns="http://www.w3.org/2000/svg" width="157" height="146">
  <path d="M 118,27 L 118,28 L 117,29 L 116,29 L 113,32 L 104,32 L 105,33 L 106,33 L 107,34 L 107,35 L 108,36 L 107,37 L 107,40 L 109,42 L 109,43 L 107,45 L 107,46 L 108,47 L 107,48 L 106,48 L 105,49 L 105,52 L 103,54 L 103,56 L 98,61 L 98,62 L 94,66 L 94,67 L 91,70 L 91,73 L 90,74 L 88,74 L 87,75 L 85,75 L 83,77 L 83,78 L 80,81 L 80,84 L 78,86 L 78,87 L 76,89 L 77,89 L 78,88 L 81,91 L 89,91 L 90,92 L 90,93 L 91,94 L 91,95 L 92,96 L 92,97 L 93,98 L 94,98 L 97,101 L 96,102 L 96,103 L 94,105 L 94,107 L 95,108 L 95,110 L 96,111 L 97,111 L 99,113 L 99,114 L 100,115 L 100,116 L 102,116 L 104,118 L 109,118 L 110,117 L 110,116 L 111,115 L 111,112 L 112,111 L 112,110 L 113,109 L 114,109 L 117,106 L 117,105 L 118,104 L 118,103 L 120,101 L 120,100 L 124,96 L 124,95 L 125,94 L 125,89 L 124,88 L 124,86 L 126,84 L 126,83 L 129,80 L 129,79 L 130,78 L 130,77 L 131,76 L 132,76 L 134,74 L 134,73 L 143,64 L 142,63 L 144,61 L 144,58 L 140,58 L 139,59 L 137,59 L 136,58 L 136,52 L 137,51 L 137,50 L 139,48 L 139,47 L 138,46 L 138,42 L 137,41 L 137,40 L 139,38 L 140,38 L 140,35 L 141,34 L 141,33 L 142,32 L 142,30 L 141,29 L 138,29 L 136,27 L 133,27 L 131,29 L 129,29 L 128,30 L 127,30 L 126,29 L 122,29 L 121,28 L 120,28 L 119,27 Z" fill="none" stroke="black" stroke-width="1"/>
</svg>