<svg xmlns="http://www.w3.org/2000/svg" width="99" height="107">
  <path d="M 72,46 L 71,47 L 70,47 L 68,49 L 68,50 L 66,52 L 64,52 L 63,51 L 60,51 L 53,58 L 54,59 L 55,59 L 56,60 L 56,63 L 55,64 L 55,65 L 54,66 L 54,67 L 52,69 L 52,70 L 53,71 L 53,75 L 52,76 L 51,76 L 50,77 L 49,77 L 48,78 L 48,80 L 49,81 L 49,82 L 51,84 L 52,84 L 53,85 L 53,86 L 54,87 L 54,88 L 55,88 L 56,89 L 56,92 L 57,93 L 57,95 L 58,95 L 59,94 L 60,94 L 61,93 L 68,93 L 69,92 L 70,92 L 70,91 L 71,90 L 72,90 L 72,89 L 75,86 L 75,85 L 81,79 L 81,78 L 83,76 L 83,68 L 84,67 L 84,62 L 80,58 L 80,55 L 81,54 L 81,53 L 80,52 L 80,49 L 79,48 L 78,48 L 77,47 L 76,47 L 75,46 Z" fill="none" stroke="black" stroke-width="1"/>
</svg>