<svg xmlns="http://www.w3.org/2000/svg" width="109" height="87">
  <path d="M 56,0 L 54,2 L 51,2 L 50,1 L 49,1 L 48,2 L 46,2 L 45,3 L 43,3 L 42,2 L 41,2 L 43,4 L 42,5 L 39,5 L 39,7 L 38,8 L 38,9 L 37,10 L 37,11 L 36,12 L 36,13 L 35,14 L 35,17 L 32,20 L 30,20 L 29,21 L 28,21 L 26,23 L 26,25 L 25,26 L 25,27 L 27,29 L 27,30 L 30,30 L 31,31 L 32,31 L 34,33 L 34,34 L 36,36 L 38,36 L 39,37 L 40,37 L 41,38 L 43,38 L 44,39 L 44,43 L 45,43 L 46,42 L 60,42 L 61,41 L 64,41 L 64,40 L 66,38 L 66,32 L 71,27 L 71,26 L 73,24 L 73,18 L 74,17 L 74,15 L 75,14 L 77,14 L 76,14 L 75,13 L 75,11 L 73,11 L 71,9 L 70,9 L 69,8 L 69,7 L 67,5 L 64,5 L 63,4 L 63,3 L 60,3 L 58,1 L 58,0 Z" fill="none" stroke="black" stroke-width="1"/>
</svg>