<svg xmlns="http://www.w3.org/2000/svg" width="157" height="146">
  <path d="M 46,17 L 45,18 L 39,18 L 38,19 L 37,19 L 36,20 L 35,20 L 34,21 L 33,21 L 32,22 L 31,22 L 30,23 L 28,23 L 27,24 L 26,24 L 18,32 L 17,32 L 14,35 L 13,35 L 12,36 L 9,36 L 8,35 L 7,35 L 5,37 L 0,37 L 0,38 L 1,39 L 1,41 L 3,41 L 4,42 L 4,43 L 3,44 L 3,45 L 4,45 L 6,47 L 6,48 L 7,48 L 8,49 L 8,53 L 9,53 L 11,55 L 11,57 L 10,58 L 10,59 L 13,62 L 13,63 L 14,64 L 14,65 L 15,66 L 15,69 L 16,70 L 16,73 L 17,73 L 18,74 L 19,74 L 20,73 L 22,73 L 23,72 L 23,71 L 26,68 L 27,68 L 26,67 L 27,66 L 27,64 L 28,63 L 28,62 L 29,61 L 29,59 L 30,58 L 30,56 L 31,55 L 31,53 L 35,49 L 37,49 L 38,48 L 41,48 L 42,47 L 44,47 L 45,46 L 45,45 L 46,44 L 46,43 L 47,42 L 47,41 L 48,40 L 48,39 L 49,38 L 51,38 L 53,36 L 54,36 L 54,33 L 55,32 L 55,27 L 54,26 L 54,24 L 55,23 L 55,19 L 56,18 L 56,17 Z" fill="none" stroke="black" stroke-width="1"/>
</svg>