<svg xmlns="http://www.w3.org/2000/svg" width="188" height="124">
  <path d="M 98,57 L 97,58 L 94,58 L 93,59 L 92,59 L 91,60 L 89,60 L 88,61 L 87,61 L 85,63 L 78,63 L 76,65 L 75,65 L 71,69 L 71,70 L 70,71 L 69,71 L 66,74 L 66,76 L 67,77 L 67,78 L 68,79 L 68,80 L 65,83 L 65,84 L 64,85 L 61,85 L 60,86 L 60,87 L 59,88 L 57,88 L 57,90 L 58,91 L 58,92 L 59,93 L 59,94 L 58,95 L 58,97 L 56,99 L 54,99 L 52,101 L 52,105 L 51,106 L 51,111 L 50,112 L 50,115 L 52,117 L 55,117 L 56,118 L 57,118 L 59,116 L 60,116 L 61,117 L 61,118 L 62,118 L 63,119 L 64,119 L 65,120 L 66,120 L 68,122 L 70,122 L 71,123 L 73,123 L 74,122 L 77,122 L 78,121 L 78,117 L 79,116 L 79,114 L 80,113 L 81,113 L 82,112 L 83,112 L 84,111 L 84,108 L 85,107 L 86,107 L 86,106 L 88,104 L 88,101 L 89,100 L 90,100 L 91,99 L 91,96 L 90,95 L 90,94 L 91,93 L 91,92 L 92,91 L 93,91 L 93,85 L 94,84 L 94,83 L 95,82 L 96,82 L 96,81 L 95,80 L 95,78 L 98,75 L 100,75 L 101,74 L 102,74 L 102,73 L 103,72 L 103,71 L 104,70 L 104,69 L 102,67 L 102,66 L 101,65 L 101,63 L 102,62 L 103,62 L 103,60 L 104,59 L 102,59 L 101,58 L 100,58 L 99,57 Z" fill="none" stroke="black" stroke-width="1"/>
</svg>