<svg xmlns="http://www.w3.org/2000/svg" width="143" height="130">
  <path d="M 115,4 L 113,6 L 109,6 L 108,7 L 104,7 L 99,12 L 98,12 L 95,15 L 94,15 L 93,16 L 91,16 L 90,15 L 88,15 L 87,14 L 83,14 L 82,13 L 80,13 L 79,12 L 78,12 L 77,11 L 76,11 L 75,10 L 72,10 L 71,11 L 71,13 L 70,14 L 70,15 L 68,17 L 68,18 L 66,20 L 66,22 L 64,24 L 63,24 L 61,26 L 61,27 L 63,29 L 62,30 L 61,30 L 59,32 L 59,34 L 60,35 L 60,36 L 59,37 L 59,41 L 57,43 L 57,47 L 62,52 L 63,52 L 63,51 L 65,49 L 66,49 L 67,48 L 68,48 L 69,49 L 72,49 L 73,48 L 78,48 L 79,49 L 80,49 L 83,52 L 85,52 L 92,45 L 99,45 L 100,46 L 103,46 L 108,51 L 109,51 L 110,52 L 111,52 L 112,53 L 112,54 L 114,56 L 115,56 L 116,57 L 116,58 L 117,59 L 118,59 L 119,60 L 119,59 L 121,57 L 122,57 L 123,56 L 123,53 L 126,50 L 129,50 L 130,49 L 132,49 L 132,48 L 133,47 L 132,46 L 132,45 L 133,44 L 133,43 L 134,42 L 135,42 L 137,40 L 138,41 L 140,39 L 140,38 L 141,37 L 141,35 L 142,34 L 142,32 L 140,30 L 139,30 L 138,29 L 136,29 L 134,27 L 134,21 L 133,20 L 130,20 L 127,17 L 127,16 L 125,14 L 126,13 L 126,11 L 125,10 L 125,7 L 123,7 L 120,4 Z" fill="none" stroke="black" stroke-width="1"/>
</svg>