<svg xmlns="http://www.w3.org/2000/svg" width="143" height="130">
  <path d="M 36,0 L 34,2 L 32,2 L 30,4 L 29,4 L 28,5 L 27,5 L 26,6 L 24,6 L 23,7 L 20,7 L 19,8 L 16,8 L 15,9 L 14,9 L 13,10 L 10,10 L 9,11 L 8,11 L 7,12 L 3,12 L 2,13 L 1,13 L 0,14 L 0,16 L 2,18 L 2,20 L 3,21 L 3,22 L 4,23 L 4,29 L 7,32 L 7,33 L 8,34 L 8,35 L 7,36 L 7,37 L 8,38 L 10,38 L 11,37 L 12,37 L 13,36 L 16,36 L 17,37 L 18,37 L 20,39 L 27,39 L 28,38 L 29,38 L 30,37 L 32,37 L 33,36 L 34,37 L 38,37 L 39,38 L 42,38 L 43,37 L 46,37 L 46,36 L 48,34 L 48,32 L 50,30 L 53,30 L 54,31 L 55,31 L 56,32 L 56,33 L 57,33 L 61,29 L 62,29 L 60,27 L 60,26 L 63,23 L 64,23 L 65,22 L 65,20 L 67,18 L 67,17 L 69,15 L 69,14 L 70,13 L 70,11 L 72,9 L 73,9 L 73,8 L 72,7 L 70,7 L 69,6 L 68,6 L 67,5 L 66,5 L 65,6 L 64,6 L 63,7 L 62,7 L 61,8 L 60,8 L 59,9 L 58,8 L 53,8 L 50,5 L 49,5 L 48,4 L 48,3 L 47,2 L 46,2 L 45,1 L 38,1 L 37,0 Z" fill="none" stroke="black" stroke-width="1"/>
</svg>