<svg xmlns="http://www.w3.org/2000/svg" width="185" height="118">
  <path d="M 167,0 L 162,5 L 160,5 L 156,9 L 155,9 L 154,10 L 153,10 L 152,11 L 151,11 L 150,12 L 149,12 L 148,11 L 146,11 L 145,10 L 145,9 L 140,9 L 138,7 L 136,7 L 135,6 L 133,6 L 131,8 L 131,9 L 128,12 L 128,13 L 127,14 L 127,15 L 128,15 L 129,16 L 129,18 L 128,19 L 128,22 L 126,24 L 126,25 L 125,26 L 124,26 L 123,27 L 122,27 L 120,29 L 119,29 L 119,33 L 121,35 L 121,36 L 123,38 L 125,38 L 126,37 L 127,37 L 128,38 L 128,39 L 129,40 L 129,44 L 131,46 L 131,47 L 132,47 L 133,48 L 134,48 L 135,49 L 136,49 L 138,51 L 138,54 L 150,66 L 151,66 L 152,67 L 154,67 L 155,68 L 158,68 L 162,72 L 161,73 L 161,77 L 163,79 L 163,81 L 164,82 L 165,82 L 166,83 L 167,83 L 168,82 L 169,82 L 169,81 L 170,80 L 171,80 L 172,79 L 173,80 L 174,80 L 176,82 L 178,82 L 183,77 L 183,76 L 184,75 L 184,73 L 182,71 L 181,71 L 180,70 L 180,63 L 177,60 L 177,59 L 176,58 L 176,57 L 175,56 L 175,54 L 176,53 L 176,52 L 177,51 L 177,46 L 176,45 L 176,44 L 175,43 L 175,42 L 174,41 L 174,40 L 175,39 L 175,37 L 176,36 L 174,36 L 170,32 L 170,31 L 169,30 L 165,30 L 164,29 L 163,29 L 162,28 L 162,25 L 164,23 L 165,23 L 166,22 L 170,22 L 170,18 L 171,17 L 171,16 L 173,14 L 173,13 L 172,12 L 172,11 L 171,11 L 169,9 L 169,8 L 168,7 L 168,5 L 169,4 L 169,3 L 168,2 L 168,1 Z" fill="none" stroke="black" stroke-width="1"/>
</svg>