<svg xmlns="http://www.w3.org/2000/svg" width="222" height="101">
  <path d="M 170,7 L 170,9 L 168,11 L 168,12 L 167,13 L 167,15 L 165,17 L 166,18 L 166,20 L 167,21 L 167,22 L 166,23 L 166,27 L 167,28 L 167,30 L 166,31 L 166,32 L 162,36 L 157,36 L 156,37 L 157,38 L 156,39 L 156,40 L 154,42 L 155,42 L 158,45 L 158,48 L 159,48 L 160,49 L 160,50 L 161,51 L 161,53 L 159,55 L 159,56 L 160,57 L 162,57 L 163,58 L 165,58 L 166,59 L 167,59 L 168,60 L 169,60 L 170,61 L 170,62 L 171,63 L 171,64 L 177,70 L 178,70 L 180,72 L 180,80 L 182,82 L 182,84 L 183,83 L 184,83 L 185,82 L 186,82 L 187,81 L 188,81 L 189,80 L 192,80 L 193,79 L 195,79 L 200,74 L 200,73 L 206,67 L 207,67 L 208,66 L 211,66 L 213,64 L 215,64 L 218,61 L 220,61 L 220,59 L 219,58 L 219,57 L 217,55 L 216,55 L 215,54 L 215,53 L 211,49 L 211,48 L 212,47 L 212,46 L 214,44 L 214,42 L 215,41 L 215,39 L 220,34 L 221,34 L 221,33 L 220,33 L 219,32 L 219,26 L 215,22 L 215,21 L 216,20 L 216,16 L 214,14 L 214,12 L 213,11 L 212,11 L 211,10 L 210,10 L 209,9 L 208,9 L 205,12 L 204,12 L 203,13 L 202,13 L 201,12 L 198,12 L 196,10 L 196,9 L 195,8 L 193,8 L 192,7 L 188,7 L 186,9 L 185,8 L 183,8 L 182,9 L 179,9 L 178,8 L 175,8 L 174,7 L 173,7 L 172,8 L 171,8 Z" fill="none" stroke="black" stroke-width="1"/>
</svg>