<svg xmlns="http://www.w3.org/2000/svg" width="180" height="109">
  <path d="M 44,51 L 42,53 L 39,53 L 38,54 L 34,54 L 33,55 L 30,55 L 29,56 L 28,56 L 27,57 L 26,57 L 25,58 L 24,58 L 23,59 L 22,59 L 21,60 L 19,60 L 18,61 L 17,61 L 16,62 L 15,62 L 14,63 L 13,63 L 12,64 L 11,64 L 10,65 L 9,65 L 7,67 L 6,67 L 5,66 L 0,66 L 4,70 L 5,70 L 6,71 L 6,72 L 11,77 L 11,78 L 12,78 L 13,79 L 14,79 L 15,80 L 22,80 L 23,81 L 29,81 L 30,82 L 32,82 L 33,83 L 35,83 L 36,84 L 40,84 L 39,83 L 39,82 L 38,81 L 38,78 L 39,77 L 39,76 L 43,72 L 44,72 L 45,71 L 52,71 L 53,72 L 56,72 L 57,71 L 59,71 L 60,72 L 64,72 L 65,73 L 66,73 L 67,74 L 70,74 L 71,75 L 73,75 L 74,74 L 76,74 L 77,73 L 79,73 L 79,72 L 78,72 L 74,68 L 72,68 L 71,67 L 71,66 L 72,65 L 72,62 L 71,61 L 70,61 L 69,60 L 69,59 L 68,58 L 68,57 L 64,53 L 64,51 L 55,51 L 54,52 L 47,52 L 46,51 Z" fill="none" stroke="black" stroke-width="1"/>
</svg>