<svg xmlns="http://www.w3.org/2000/svg" width="131" height="113">
  <path d="M 50,34 L 49,35 L 46,35 L 44,37 L 41,37 L 40,38 L 40,39 L 39,40 L 37,40 L 36,41 L 35,41 L 34,42 L 33,41 L 33,40 L 32,39 L 31,39 L 31,41 L 29,43 L 28,43 L 27,44 L 24,44 L 23,45 L 22,45 L 21,46 L 20,46 L 18,48 L 16,48 L 14,50 L 13,50 L 12,51 L 12,54 L 13,55 L 13,56 L 14,57 L 14,61 L 12,63 L 12,64 L 11,65 L 11,67 L 12,68 L 12,69 L 10,71 L 9,71 L 9,72 L 10,73 L 12,73 L 13,72 L 14,72 L 17,69 L 19,69 L 20,68 L 22,68 L 23,67 L 25,67 L 26,68 L 28,68 L 31,71 L 35,71 L 36,70 L 42,70 L 42,69 L 44,67 L 47,67 L 48,66 L 49,66 L 50,65 L 51,65 L 53,63 L 53,58 L 54,57 L 57,57 L 58,56 L 65,56 L 64,55 L 64,54 L 63,53 L 63,47 L 62,46 L 61,46 L 59,44 L 58,44 L 57,43 L 56,43 L 55,42 L 55,41 L 54,41 L 53,40 L 53,39 L 51,37 L 51,36 L 50,35 Z" fill="none" stroke="black" stroke-width="1"/>
</svg>