<svg xmlns="http://www.w3.org/2000/svg" width="180" height="109">
  <path d="M 160,21 L 159,22 L 157,22 L 156,23 L 155,23 L 154,24 L 154,26 L 153,27 L 153,28 L 152,29 L 151,29 L 147,33 L 139,33 L 134,38 L 134,39 L 132,41 L 132,42 L 131,43 L 131,44 L 130,45 L 130,50 L 131,50 L 132,51 L 132,59 L 133,60 L 133,61 L 134,62 L 133,63 L 136,66 L 136,67 L 137,68 L 137,69 L 140,72 L 140,75 L 141,76 L 142,76 L 143,77 L 144,77 L 145,76 L 147,78 L 149,76 L 150,76 L 152,74 L 152,71 L 153,70 L 154,70 L 155,69 L 156,69 L 158,71 L 160,71 L 161,72 L 161,74 L 162,73 L 166,73 L 167,72 L 168,72 L 168,69 L 167,68 L 167,65 L 168,64 L 168,63 L 169,62 L 170,62 L 171,61 L 173,61 L 173,56 L 175,54 L 176,54 L 178,52 L 179,52 L 179,50 L 178,49 L 178,47 L 179,46 L 179,43 L 178,42 L 178,41 L 175,38 L 175,35 L 178,32 L 178,31 L 177,30 L 177,27 L 179,25 L 179,24 L 178,24 L 177,23 L 175,23 L 173,21 Z" fill="none" stroke="black" stroke-width="1"/>
</svg>