<svg xmlns="http://www.w3.org/2000/svg" width="119" height="87">
  <path d="M 78,41 L 77,42 L 72,42 L 70,44 L 69,44 L 68,43 L 67,43 L 66,42 L 62,42 L 60,44 L 56,44 L 53,47 L 53,56 L 50,59 L 49,59 L 47,61 L 47,62 L 49,62 L 51,64 L 52,64 L 54,66 L 54,67 L 55,68 L 55,69 L 56,70 L 57,70 L 58,71 L 59,71 L 61,73 L 61,74 L 64,77 L 64,78 L 65,78 L 66,79 L 66,83 L 67,84 L 67,86 L 68,86 L 70,84 L 72,84 L 73,83 L 74,84 L 78,84 L 79,85 L 85,85 L 86,84 L 87,84 L 88,83 L 88,81 L 87,80 L 87,79 L 86,78 L 86,74 L 87,73 L 87,72 L 88,71 L 88,70 L 85,70 L 82,73 L 80,71 L 80,69 L 79,68 L 79,64 L 80,63 L 80,62 L 81,61 L 81,59 L 84,56 L 83,55 L 83,53 L 82,52 L 82,51 L 81,50 L 81,49 L 80,48 L 80,46 L 78,44 Z" fill="none" stroke="black" stroke-width="1"/>
</svg>