<svg xmlns="http://www.w3.org/2000/svg" width="143" height="130">
  <path d="M 98,72 L 97,73 L 96,73 L 95,74 L 93,74 L 91,76 L 89,76 L 88,75 L 86,75 L 86,76 L 85,77 L 85,78 L 84,79 L 76,79 L 75,80 L 74,80 L 74,84 L 75,85 L 76,85 L 77,86 L 77,89 L 78,89 L 79,90 L 80,90 L 81,91 L 82,91 L 83,92 L 84,92 L 89,97 L 91,97 L 95,101 L 95,102 L 100,107 L 102,107 L 104,109 L 104,110 L 105,111 L 105,112 L 108,112 L 108,111 L 109,110 L 109,109 L 110,108 L 110,106 L 111,105 L 111,104 L 113,102 L 113,97 L 114,96 L 114,93 L 116,91 L 119,91 L 120,90 L 121,90 L 122,89 L 121,88 L 121,87 L 120,86 L 120,85 L 119,84 L 119,83 L 120,82 L 120,80 L 121,79 L 121,75 L 122,74 L 112,74 L 110,72 L 107,72 L 106,73 L 101,73 L 100,72 Z" fill="none" stroke="black" stroke-width="1"/>
</svg>