<svg xmlns="http://www.w3.org/2000/svg" width="105" height="72">
  <path d="M 15,6 L 14,7 L 13,7 L 12,8 L 10,8 L 9,7 L 8,8 L 8,9 L 5,12 L 5,15 L 2,18 L 2,22 L 1,23 L 1,25 L 0,26 L 0,27 L 1,28 L 1,29 L 2,30 L 2,31 L 3,32 L 2,33 L 3,34 L 5,34 L 8,37 L 9,37 L 10,38 L 10,39 L 10,38 L 13,35 L 14,35 L 15,34 L 16,34 L 17,33 L 18,33 L 20,31 L 21,31 L 22,32 L 24,32 L 26,34 L 27,34 L 30,37 L 31,37 L 32,38 L 35,38 L 36,39 L 37,39 L 38,40 L 39,40 L 40,41 L 41,41 L 41,40 L 42,39 L 43,39 L 44,38 L 44,36 L 47,33 L 48,33 L 49,32 L 49,30 L 50,29 L 51,29 L 52,28 L 52,25 L 51,24 L 51,22 L 50,21 L 50,20 L 51,19 L 52,19 L 53,18 L 54,18 L 55,17 L 53,15 L 51,15 L 50,14 L 49,14 L 47,12 L 47,11 L 45,9 L 45,8 L 44,8 L 43,7 L 39,7 L 38,8 L 35,8 L 34,7 L 33,8 L 33,9 L 32,10 L 29,10 L 28,9 L 27,9 L 25,7 L 23,7 L 23,8 L 22,9 L 21,8 L 20,8 L 19,7 L 16,7 Z" fill="none" stroke="black" stroke-width="1"/>
</svg>