<svg xmlns="http://www.w3.org/2000/svg" width="119" height="87">
  <path d="M 107,25 L 106,26 L 105,26 L 104,27 L 102,27 L 102,28 L 101,29 L 101,30 L 99,32 L 98,32 L 96,34 L 95,34 L 94,35 L 86,35 L 85,34 L 83,34 L 82,33 L 79,33 L 78,34 L 77,34 L 77,35 L 79,37 L 79,44 L 81,46 L 81,48 L 82,49 L 82,50 L 83,51 L 83,52 L 84,53 L 84,55 L 85,56 L 86,55 L 87,55 L 89,57 L 91,55 L 91,53 L 92,52 L 93,52 L 94,51 L 97,51 L 98,52 L 100,52 L 99,51 L 99,50 L 101,48 L 102,48 L 103,49 L 104,49 L 105,50 L 106,50 L 107,51 L 108,51 L 109,50 L 111,50 L 112,49 L 112,47 L 114,45 L 116,45 L 118,43 L 118,42 L 117,41 L 117,40 L 118,39 L 118,38 L 117,37 L 117,35 L 114,32 L 114,31 L 115,30 L 115,28 L 113,26 L 112,26 L 111,27 L 109,27 Z" fill="none" stroke="black" stroke-width="1"/>
</svg>