<svg xmlns="http://www.w3.org/2000/svg" width="230" height="103">
  <path d="M 98,14 L 94,18 L 93,18 L 92,19 L 91,19 L 90,20 L 90,21 L 84,27 L 82,27 L 78,31 L 77,31 L 76,32 L 75,32 L 74,33 L 73,33 L 72,34 L 66,34 L 65,35 L 59,35 L 58,36 L 56,36 L 50,42 L 50,43 L 49,44 L 49,45 L 50,45 L 51,46 L 51,47 L 48,50 L 47,50 L 47,51 L 46,52 L 48,54 L 49,54 L 52,57 L 52,59 L 53,59 L 54,60 L 54,62 L 55,63 L 56,63 L 61,68 L 63,68 L 64,69 L 65,68 L 66,69 L 67,69 L 68,70 L 69,70 L 71,72 L 76,72 L 77,73 L 78,73 L 80,75 L 82,75 L 83,74 L 84,75 L 85,75 L 86,74 L 86,72 L 85,71 L 88,68 L 97,68 L 98,69 L 100,69 L 101,68 L 102,68 L 103,69 L 104,69 L 105,68 L 106,68 L 107,67 L 108,67 L 109,66 L 110,66 L 110,61 L 111,60 L 111,55 L 113,53 L 114,53 L 116,51 L 117,51 L 118,50 L 119,50 L 120,49 L 120,48 L 121,47 L 121,46 L 122,45 L 122,44 L 124,42 L 125,42 L 126,41 L 126,38 L 127,37 L 127,36 L 128,35 L 128,34 L 129,33 L 132,33 L 132,32 L 127,27 L 127,26 L 126,26 L 121,21 L 121,17 L 118,17 L 117,18 L 108,18 L 107,17 L 104,17 L 103,16 L 102,16 L 101,15 L 100,15 L 99,14 Z" fill="none" stroke="black" stroke-width="1"/>
</svg>