<svg xmlns="http://www.w3.org/2000/svg" width="222" height="101">
  <path d="M 95,33 L 94,34 L 91,34 L 90,35 L 86,35 L 85,36 L 84,36 L 83,37 L 82,37 L 81,38 L 80,38 L 79,39 L 77,39 L 76,40 L 67,40 L 66,41 L 66,44 L 67,45 L 67,46 L 68,47 L 69,47 L 70,48 L 72,48 L 73,49 L 73,51 L 72,52 L 72,62 L 73,63 L 73,66 L 71,68 L 71,73 L 67,77 L 66,77 L 64,79 L 63,79 L 63,85 L 66,88 L 67,88 L 68,89 L 76,89 L 77,90 L 78,90 L 79,91 L 80,91 L 81,92 L 82,92 L 83,93 L 84,93 L 85,94 L 86,94 L 87,95 L 90,95 L 91,96 L 100,96 L 101,95 L 104,95 L 104,90 L 106,88 L 106,87 L 107,86 L 107,84 L 108,83 L 108,81 L 110,79 L 110,78 L 111,77 L 111,73 L 114,70 L 114,69 L 115,68 L 115,66 L 116,65 L 116,61 L 114,59 L 114,58 L 112,56 L 112,55 L 111,54 L 111,51 L 112,50 L 112,47 L 110,45 L 109,45 L 108,44 L 107,44 L 104,41 L 104,40 L 103,39 L 102,39 L 97,34 L 97,33 Z" fill="none" stroke="black" stroke-width="1"/>
</svg>