<svg xmlns="http://www.w3.org/2000/svg" width="185" height="118">
  <path d="M 135,57 L 134,58 L 133,58 L 132,59 L 132,61 L 130,63 L 125,63 L 123,65 L 123,72 L 122,73 L 122,74 L 121,75 L 121,76 L 120,77 L 120,79 L 124,83 L 124,86 L 125,87 L 125,90 L 121,94 L 121,96 L 122,97 L 122,98 L 123,99 L 123,103 L 120,106 L 120,109 L 119,110 L 119,113 L 123,113 L 127,117 L 137,117 L 138,116 L 140,116 L 141,115 L 142,115 L 143,114 L 144,114 L 145,113 L 146,113 L 147,112 L 151,112 L 152,111 L 155,111 L 156,110 L 156,109 L 158,107 L 158,105 L 159,104 L 159,92 L 160,91 L 160,89 L 162,87 L 165,87 L 165,86 L 166,85 L 166,84 L 165,83 L 164,83 L 162,81 L 162,79 L 160,77 L 160,73 L 161,72 L 158,69 L 155,69 L 154,68 L 152,68 L 151,67 L 150,67 L 140,57 Z" fill="none" stroke="black" stroke-width="1"/>
</svg>