<svg xmlns="http://www.w3.org/2000/svg" width="308" height="163">
  <path d="M 251,100 L 250,101 L 250,103 L 249,104 L 249,105 L 246,108 L 242,108 L 242,109 L 241,110 L 241,113 L 240,114 L 237,114 L 237,117 L 236,118 L 236,121 L 234,123 L 234,124 L 235,125 L 236,125 L 237,126 L 237,127 L 236,128 L 237,129 L 237,130 L 238,131 L 239,131 L 240,132 L 241,132 L 242,133 L 245,133 L 247,135 L 247,136 L 249,138 L 249,141 L 250,141 L 251,142 L 254,142 L 255,141 L 256,141 L 257,142 L 261,142 L 262,143 L 267,143 L 268,144 L 269,144 L 270,145 L 279,145 L 280,144 L 281,144 L 282,143 L 286,143 L 287,144 L 289,144 L 290,145 L 294,145 L 295,146 L 297,146 L 298,147 L 299,147 L 301,145 L 300,145 L 299,144 L 299,143 L 300,142 L 300,141 L 303,138 L 303,137 L 306,134 L 307,134 L 306,133 L 304,133 L 303,132 L 303,130 L 304,129 L 302,127 L 302,123 L 301,122 L 301,118 L 302,117 L 301,116 L 299,116 L 298,115 L 296,115 L 295,114 L 294,114 L 293,113 L 291,113 L 290,114 L 288,114 L 287,113 L 286,113 L 285,112 L 284,112 L 283,111 L 281,111 L 280,110 L 279,110 L 278,109 L 277,109 L 276,108 L 267,108 L 266,107 L 265,107 L 263,105 L 259,105 L 258,104 L 256,104 L 254,102 L 253,102 Z" fill="none" stroke="black" stroke-width="1"/>
</svg>