<svg xmlns="http://www.w3.org/2000/svg" width="139" height="160">
  <path d="M 67,54 L 67,55 L 63,59 L 63,60 L 62,61 L 61,61 L 61,65 L 59,67 L 59,68 L 58,69 L 57,69 L 57,70 L 54,73 L 54,74 L 53,75 L 53,76 L 52,77 L 52,83 L 53,84 L 53,87 L 54,88 L 54,89 L 56,91 L 57,91 L 59,93 L 60,93 L 62,95 L 63,95 L 65,97 L 65,98 L 71,104 L 71,106 L 72,107 L 72,109 L 73,110 L 73,118 L 72,119 L 72,123 L 73,123 L 76,126 L 77,126 L 79,128 L 80,128 L 81,129 L 83,129 L 84,130 L 85,130 L 86,129 L 89,129 L 90,130 L 91,129 L 92,129 L 95,126 L 95,123 L 98,120 L 98,119 L 99,118 L 99,117 L 94,112 L 94,107 L 97,104 L 98,104 L 101,101 L 101,99 L 102,98 L 102,95 L 103,94 L 103,87 L 102,86 L 102,83 L 101,82 L 101,77 L 102,76 L 102,75 L 104,73 L 104,72 L 103,71 L 103,70 L 101,68 L 100,68 L 98,66 L 98,65 L 97,64 L 92,64 L 91,63 L 88,63 L 87,64 L 86,64 L 84,62 L 83,62 L 82,61 L 81,61 L 80,62 L 75,62 L 74,61 L 73,61 L 72,60 L 71,60 L 70,59 L 70,58 L 67,55 Z" fill="none" stroke="black" stroke-width="1"/>
</svg>