<svg xmlns="http://www.w3.org/2000/svg" width="89" height="125">
  <path d="M 61,75 L 60,76 L 59,76 L 58,77 L 57,77 L 56,78 L 55,78 L 54,79 L 53,79 L 49,83 L 49,84 L 48,85 L 48,87 L 47,88 L 46,88 L 45,87 L 43,87 L 42,86 L 40,86 L 39,85 L 38,85 L 37,84 L 28,84 L 26,86 L 20,86 L 19,85 L 4,85 L 3,86 L 3,90 L 4,91 L 4,93 L 5,93 L 6,94 L 7,94 L 7,93 L 8,92 L 10,92 L 11,93 L 18,93 L 22,97 L 22,98 L 27,103 L 27,104 L 28,105 L 28,107 L 33,112 L 33,114 L 32,115 L 28,115 L 27,114 L 26,114 L 25,115 L 25,116 L 26,117 L 28,117 L 30,119 L 32,119 L 33,120 L 34,120 L 37,123 L 37,124 L 39,124 L 39,123 L 44,118 L 47,118 L 48,117 L 51,117 L 52,116 L 54,116 L 55,115 L 56,115 L 60,111 L 61,111 L 62,110 L 65,110 L 67,108 L 68,108 L 69,107 L 76,107 L 77,108 L 77,103 L 76,102 L 76,101 L 74,99 L 74,98 L 73,97 L 73,93 L 74,92 L 74,90 L 72,88 L 72,81 L 71,81 L 68,78 L 68,77 L 67,77 L 66,76 L 65,76 L 64,75 Z" fill="none" stroke="black" stroke-width="1"/>
</svg>