<svg xmlns="http://www.w3.org/2000/svg" width="207" height="117">
  <path d="M 173,23 L 173,24 L 172,25 L 171,24 L 170,24 L 170,25 L 169,26 L 168,26 L 167,27 L 166,27 L 165,26 L 164,26 L 163,27 L 154,27 L 153,28 L 153,30 L 151,32 L 150,32 L 149,33 L 148,33 L 149,34 L 149,36 L 147,38 L 147,39 L 148,40 L 150,40 L 152,42 L 150,44 L 151,45 L 153,45 L 154,46 L 156,46 L 157,47 L 158,47 L 160,49 L 160,52 L 165,52 L 166,53 L 166,55 L 167,56 L 170,56 L 171,55 L 174,55 L 178,59 L 180,59 L 181,58 L 182,58 L 183,59 L 183,60 L 185,62 L 187,62 L 188,63 L 188,64 L 189,65 L 189,66 L 189,64 L 190,63 L 193,63 L 194,62 L 195,62 L 196,61 L 197,61 L 198,60 L 202,60 L 202,59 L 203,58 L 203,53 L 202,52 L 202,51 L 203,50 L 205,50 L 206,49 L 206,44 L 205,43 L 201,43 L 199,41 L 199,40 L 197,38 L 197,37 L 196,36 L 195,36 L 192,33 L 192,32 L 191,32 L 188,29 L 188,28 L 187,27 L 187,26 L 185,26 L 183,24 L 181,24 L 179,26 L 178,26 L 176,24 L 176,23 Z" fill="none" stroke="black" stroke-width="1"/>
</svg>