<svg xmlns="http://www.w3.org/2000/svg" width="139" height="160">
  <path d="M 28,87 L 27,88 L 26,88 L 24,90 L 22,90 L 21,91 L 21,93 L 22,94 L 22,96 L 21,97 L 21,98 L 18,101 L 18,102 L 17,103 L 17,107 L 19,109 L 19,110 L 20,111 L 23,111 L 24,112 L 24,113 L 28,113 L 29,114 L 39,114 L 40,115 L 43,115 L 44,116 L 45,115 L 55,115 L 56,116 L 61,116 L 62,117 L 63,117 L 65,119 L 66,119 L 67,120 L 68,120 L 69,121 L 70,121 L 71,122 L 71,119 L 72,118 L 72,110 L 71,109 L 71,107 L 70,106 L 70,104 L 64,98 L 64,97 L 63,96 L 62,96 L 60,94 L 59,94 L 57,92 L 56,92 L 53,89 L 53,88 L 52,87 L 49,87 L 47,89 L 41,89 L 39,91 L 37,91 L 35,89 L 35,88 L 31,88 L 30,87 Z" fill="none" stroke="black" stroke-width="1"/>
</svg>