<svg xmlns="http://www.w3.org/2000/svg" width="183" height="113">
  <path d="M 147,0 L 146,1 L 143,1 L 142,2 L 142,3 L 144,5 L 144,8 L 143,9 L 143,10 L 142,11 L 142,12 L 141,13 L 140,13 L 139,12 L 138,13 L 137,12 L 135,12 L 135,13 L 133,15 L 133,16 L 132,17 L 131,17 L 130,18 L 129,18 L 129,24 L 128,25 L 128,26 L 127,27 L 127,28 L 126,29 L 125,28 L 120,28 L 119,29 L 118,29 L 116,31 L 116,34 L 115,35 L 115,36 L 114,37 L 113,37 L 111,39 L 111,41 L 112,42 L 112,47 L 113,48 L 113,49 L 116,52 L 117,52 L 118,53 L 119,53 L 120,54 L 122,54 L 123,55 L 124,55 L 125,56 L 126,56 L 127,57 L 129,57 L 134,62 L 135,62 L 136,63 L 137,63 L 138,64 L 139,64 L 140,63 L 142,63 L 144,65 L 145,65 L 146,66 L 147,66 L 148,65 L 148,64 L 149,63 L 149,62 L 150,61 L 151,61 L 151,60 L 152,59 L 152,58 L 154,56 L 155,56 L 156,55 L 159,55 L 160,56 L 161,55 L 168,55 L 169,54 L 171,54 L 170,53 L 170,52 L 168,50 L 168,46 L 169,45 L 169,44 L 172,41 L 172,40 L 173,39 L 173,37 L 172,36 L 172,34 L 173,33 L 173,31 L 174,30 L 174,29 L 173,28 L 174,27 L 174,26 L 173,25 L 173,24 L 172,23 L 172,22 L 171,21 L 170,21 L 169,20 L 169,19 L 166,16 L 166,15 L 165,14 L 165,11 L 164,10 L 164,9 L 163,8 L 163,7 L 161,7 L 158,4 L 158,3 L 157,3 L 156,4 L 154,4 L 150,0 Z" fill="none" stroke="black" stroke-width="1"/>
</svg>