<svg xmlns="http://www.w3.org/2000/svg" width="207" height="117">
  <path d="M 77,0 L 77,1 L 78,2 L 76,4 L 76,7 L 75,8 L 75,10 L 74,11 L 69,11 L 68,12 L 67,12 L 67,16 L 68,17 L 68,18 L 70,20 L 70,21 L 69,22 L 68,22 L 68,23 L 64,27 L 64,30 L 63,31 L 63,32 L 64,33 L 64,34 L 62,36 L 62,37 L 60,39 L 60,40 L 59,41 L 58,41 L 57,42 L 56,42 L 55,43 L 54,43 L 53,44 L 50,44 L 53,47 L 56,47 L 57,48 L 56,49 L 56,51 L 57,52 L 57,54 L 60,54 L 62,56 L 62,57 L 65,60 L 65,62 L 66,62 L 67,63 L 67,65 L 69,67 L 70,67 L 72,69 L 72,70 L 73,71 L 75,71 L 76,72 L 78,72 L 80,74 L 83,74 L 84,75 L 86,75 L 87,76 L 90,76 L 91,75 L 102,75 L 103,74 L 105,74 L 106,75 L 111,75 L 111,74 L 114,71 L 114,68 L 113,67 L 113,63 L 112,62 L 112,59 L 111,58 L 111,57 L 112,56 L 112,53 L 113,52 L 113,51 L 114,50 L 114,49 L 116,47 L 123,47 L 124,46 L 126,46 L 127,45 L 128,45 L 128,44 L 131,41 L 131,38 L 130,37 L 130,36 L 133,33 L 136,33 L 136,32 L 134,30 L 134,29 L 133,28 L 133,27 L 131,25 L 130,25 L 129,24 L 124,24 L 124,25 L 122,27 L 121,27 L 120,26 L 119,26 L 118,25 L 115,25 L 114,24 L 107,24 L 106,23 L 106,21 L 105,20 L 105,19 L 103,17 L 103,14 L 102,14 L 101,13 L 99,13 L 98,12 L 94,12 L 93,11 L 92,11 L 91,10 L 91,8 L 90,7 L 90,6 L 89,5 L 85,5 L 80,0 Z" fill="none" stroke="black" stroke-width="1"/>
</svg>