<svg xmlns="http://www.w3.org/2000/svg" width="194" height="126">
  <path d="M 60,0 L 57,3 L 56,3 L 55,4 L 55,5 L 54,6 L 47,6 L 46,7 L 41,7 L 41,8 L 38,11 L 38,12 L 37,13 L 36,13 L 35,12 L 33,12 L 32,13 L 32,18 L 31,19 L 31,23 L 32,24 L 32,26 L 33,27 L 33,28 L 32,29 L 32,30 L 31,31 L 31,33 L 33,33 L 34,34 L 34,35 L 33,36 L 33,38 L 34,38 L 36,40 L 36,41 L 38,43 L 39,43 L 40,44 L 40,45 L 41,46 L 41,47 L 42,48 L 43,48 L 44,49 L 44,50 L 45,51 L 45,54 L 46,54 L 47,55 L 47,56 L 48,56 L 49,57 L 49,58 L 50,59 L 50,60 L 51,59 L 52,60 L 54,60 L 54,59 L 55,58 L 55,54 L 56,53 L 56,52 L 57,51 L 57,48 L 58,47 L 58,46 L 59,45 L 60,45 L 60,44 L 61,43 L 62,43 L 63,42 L 64,42 L 66,40 L 66,39 L 70,35 L 70,34 L 71,33 L 74,33 L 75,32 L 77,32 L 79,30 L 79,26 L 81,24 L 81,21 L 80,20 L 80,19 L 79,18 L 79,13 L 78,12 L 77,12 L 75,10 L 75,9 L 74,8 L 74,7 L 73,6 L 72,6 L 71,5 L 69,5 L 68,4 L 67,4 L 66,3 L 65,3 L 62,0 Z" fill="none" stroke="black" stroke-width="1"/>
</svg>