<svg xmlns="http://www.w3.org/2000/svg" width="185" height="162">
  <path d="M 140,96 L 139,97 L 138,97 L 137,98 L 133,98 L 132,97 L 130,97 L 130,98 L 129,99 L 129,101 L 131,103 L 130,104 L 130,105 L 129,106 L 129,110 L 128,111 L 127,111 L 123,115 L 123,116 L 122,117 L 122,118 L 121,119 L 121,126 L 120,127 L 120,129 L 124,133 L 124,134 L 125,135 L 125,138 L 126,139 L 126,140 L 127,141 L 127,145 L 130,148 L 131,148 L 132,149 L 133,149 L 134,150 L 136,150 L 137,151 L 138,151 L 140,153 L 140,154 L 141,155 L 141,156 L 142,157 L 143,157 L 145,159 L 145,161 L 147,161 L 148,160 L 152,160 L 154,158 L 155,158 L 156,159 L 158,159 L 161,156 L 162,156 L 163,155 L 164,155 L 165,154 L 166,154 L 167,153 L 168,153 L 169,152 L 173,152 L 177,148 L 180,148 L 181,149 L 184,149 L 184,145 L 183,145 L 181,143 L 181,142 L 179,142 L 178,141 L 178,138 L 174,138 L 173,137 L 173,131 L 172,130 L 168,130 L 167,129 L 166,129 L 165,128 L 165,127 L 164,126 L 164,122 L 163,121 L 163,117 L 164,116 L 164,115 L 162,113 L 160,113 L 159,112 L 158,112 L 156,110 L 156,109 L 155,109 L 154,108 L 152,108 L 148,104 L 148,103 L 147,102 L 146,102 L 142,98 L 142,97 L 141,96 Z" fill="none" stroke="black" stroke-width="1"/>
</svg>