<svg xmlns="http://www.w3.org/2000/svg" width="217" height="185">
  <path d="M 128,91 L 127,92 L 126,92 L 125,93 L 124,93 L 124,95 L 121,98 L 121,99 L 119,101 L 114,101 L 112,99 L 108,99 L 107,98 L 99,98 L 98,97 L 96,97 L 95,96 L 94,96 L 93,97 L 92,97 L 91,96 L 90,96 L 88,94 L 87,94 L 86,95 L 86,96 L 85,97 L 84,97 L 85,98 L 85,101 L 84,102 L 80,102 L 79,101 L 79,100 L 78,100 L 77,99 L 72,99 L 72,107 L 75,110 L 75,111 L 78,114 L 79,114 L 81,116 L 81,117 L 84,120 L 86,120 L 87,121 L 88,121 L 89,122 L 89,123 L 90,124 L 91,124 L 92,125 L 94,125 L 97,128 L 97,129 L 96,130 L 96,134 L 97,135 L 97,139 L 98,140 L 98,141 L 99,141 L 100,142 L 104,142 L 106,144 L 106,150 L 110,150 L 111,151 L 111,154 L 113,154 L 114,155 L 114,156 L 115,157 L 116,157 L 117,158 L 117,164 L 118,164 L 120,166 L 121,166 L 122,167 L 124,167 L 125,168 L 125,169 L 128,169 L 129,170 L 130,170 L 130,169 L 132,167 L 132,166 L 133,165 L 134,165 L 134,161 L 132,159 L 132,157 L 136,153 L 136,151 L 132,147 L 133,146 L 133,145 L 134,144 L 134,142 L 132,140 L 135,137 L 136,137 L 136,128 L 137,127 L 137,126 L 138,125 L 138,124 L 140,122 L 140,120 L 139,119 L 139,118 L 137,116 L 137,113 L 138,112 L 138,108 L 133,103 L 133,97 L 128,92 Z" fill="none" stroke="black" stroke-width="1"/>
</svg>