<svg xmlns="http://www.w3.org/2000/svg" width="217" height="185">
  <path d="M 82,51 L 81,52 L 81,54 L 80,55 L 80,56 L 79,57 L 79,59 L 78,60 L 78,61 L 76,63 L 75,63 L 70,68 L 69,68 L 66,71 L 66,72 L 64,74 L 64,75 L 63,76 L 63,79 L 62,80 L 62,81 L 63,81 L 64,82 L 64,84 L 65,85 L 65,89 L 66,89 L 67,90 L 67,92 L 70,92 L 71,93 L 71,97 L 72,97 L 73,98 L 77,98 L 78,99 L 79,99 L 80,100 L 80,101 L 84,101 L 84,98 L 83,97 L 84,96 L 85,96 L 85,95 L 87,93 L 88,93 L 90,95 L 91,95 L 92,96 L 93,96 L 94,95 L 95,95 L 96,96 L 98,96 L 99,97 L 107,97 L 108,98 L 112,98 L 114,100 L 119,100 L 120,99 L 120,98 L 123,95 L 123,93 L 124,92 L 125,92 L 126,91 L 127,91 L 128,90 L 131,90 L 132,89 L 134,89 L 135,88 L 136,88 L 137,87 L 139,87 L 140,86 L 141,86 L 142,85 L 143,85 L 145,83 L 146,83 L 148,81 L 149,81 L 151,79 L 152,79 L 152,77 L 151,76 L 152,75 L 153,75 L 154,74 L 155,74 L 156,73 L 156,72 L 155,72 L 153,70 L 153,69 L 156,66 L 157,66 L 159,64 L 159,63 L 162,60 L 163,60 L 162,59 L 161,59 L 160,58 L 152,58 L 151,59 L 147,59 L 146,60 L 141,60 L 140,61 L 128,61 L 127,60 L 124,60 L 123,59 L 120,59 L 119,58 L 113,58 L 112,57 L 111,57 L 109,55 L 109,54 L 107,56 L 106,55 L 104,55 L 103,54 L 97,54 L 96,53 L 93,53 L 92,52 L 89,52 L 88,53 L 86,53 L 85,52 L 85,51 Z" fill="none" stroke="black" stroke-width="1"/>
</svg>