<svg xmlns="http://www.w3.org/2000/svg" width="217" height="185">
  <path d="M 25,51 L 24,52 L 24,54 L 21,57 L 19,57 L 19,58 L 17,60 L 17,61 L 13,65 L 12,65 L 12,66 L 10,68 L 8,68 L 7,69 L 6,69 L 4,71 L 4,72 L 3,73 L 6,76 L 6,82 L 7,83 L 9,83 L 11,85 L 11,86 L 10,87 L 9,87 L 9,90 L 10,91 L 10,92 L 9,93 L 7,93 L 8,94 L 8,96 L 9,97 L 11,95 L 13,95 L 14,96 L 14,97 L 16,97 L 17,96 L 17,95 L 18,94 L 21,94 L 23,96 L 24,96 L 22,94 L 22,92 L 23,91 L 24,91 L 28,95 L 27,96 L 28,96 L 29,97 L 36,97 L 38,99 L 38,100 L 42,100 L 43,101 L 45,101 L 45,100 L 47,98 L 49,98 L 50,99 L 49,100 L 49,102 L 48,103 L 44,103 L 44,104 L 43,105 L 43,106 L 41,108 L 42,109 L 43,109 L 44,110 L 43,111 L 44,111 L 45,110 L 46,110 L 46,109 L 47,108 L 48,108 L 49,107 L 54,107 L 55,108 L 56,108 L 58,110 L 59,110 L 60,109 L 64,109 L 65,110 L 69,110 L 70,109 L 71,109 L 72,108 L 71,107 L 71,99 L 72,98 L 71,98 L 70,97 L 70,93 L 67,93 L 66,92 L 66,90 L 65,90 L 64,89 L 64,85 L 63,84 L 63,82 L 60,82 L 59,81 L 53,81 L 52,80 L 52,79 L 48,79 L 47,78 L 47,77 L 45,77 L 44,76 L 44,75 L 43,74 L 43,64 L 44,63 L 47,63 L 47,61 L 46,61 L 44,59 L 44,58 L 40,58 L 39,57 L 38,57 L 37,56 L 37,55 L 33,55 L 31,53 L 27,53 Z" fill="none" stroke="black" stroke-width="1"/>
</svg>