<svg xmlns="http://www.w3.org/2000/svg" width="185" height="162">
  <path d="M 64,0 L 63,1 L 62,1 L 62,4 L 59,7 L 59,8 L 60,9 L 59,10 L 59,11 L 58,12 L 57,12 L 57,15 L 54,18 L 54,19 L 53,20 L 53,21 L 54,22 L 53,23 L 53,24 L 52,25 L 52,28 L 53,29 L 51,31 L 53,33 L 53,34 L 52,35 L 51,35 L 50,36 L 50,37 L 48,39 L 48,40 L 46,42 L 45,42 L 44,43 L 43,43 L 41,45 L 40,45 L 39,46 L 39,48 L 38,49 L 38,56 L 39,57 L 40,57 L 41,58 L 42,58 L 41,57 L 41,56 L 42,55 L 43,56 L 45,56 L 46,57 L 46,58 L 48,56 L 49,57 L 53,57 L 54,58 L 55,58 L 58,61 L 61,61 L 62,62 L 65,59 L 67,59 L 68,58 L 71,58 L 74,55 L 75,55 L 76,54 L 78,54 L 79,53 L 79,52 L 80,51 L 81,51 L 84,48 L 84,47 L 86,45 L 86,44 L 87,43 L 89,43 L 91,41 L 91,39 L 92,38 L 89,35 L 88,35 L 86,33 L 87,32 L 87,31 L 86,30 L 85,30 L 84,29 L 84,27 L 85,26 L 85,24 L 83,22 L 83,21 L 84,20 L 84,17 L 81,14 L 81,10 L 79,8 L 79,6 L 77,6 L 75,4 L 68,4 L 67,3 L 66,3 L 65,2 L 65,1 Z" fill="none" stroke="black" stroke-width="1"/>
</svg>