<svg xmlns="http://www.w3.org/2000/svg" width="143" height="138">
  <path d="M 0,18 L 0,22 L 1,23 L 1,27 L 2,28 L 3,28 L 4,29 L 5,29 L 6,30 L 6,34 L 7,34 L 9,36 L 9,37 L 10,38 L 10,40 L 11,41 L 11,42 L 15,46 L 15,51 L 14,52 L 13,52 L 13,57 L 16,57 L 17,58 L 19,58 L 24,63 L 24,64 L 25,65 L 25,66 L 26,67 L 26,68 L 29,71 L 30,71 L 31,72 L 32,72 L 33,73 L 34,73 L 36,75 L 42,75 L 43,76 L 45,76 L 46,77 L 47,77 L 48,78 L 49,78 L 49,74 L 50,73 L 52,73 L 57,78 L 57,79 L 58,80 L 58,82 L 59,82 L 63,78 L 67,78 L 65,76 L 65,75 L 61,71 L 61,70 L 62,69 L 62,68 L 63,67 L 63,62 L 64,61 L 64,60 L 66,58 L 66,57 L 67,56 L 67,55 L 70,52 L 69,52 L 68,51 L 69,50 L 69,46 L 68,45 L 68,44 L 66,42 L 62,42 L 61,41 L 60,41 L 59,40 L 58,40 L 57,39 L 56,39 L 55,38 L 54,38 L 52,36 L 51,36 L 50,35 L 46,35 L 45,34 L 30,34 L 27,31 L 27,28 L 25,26 L 24,26 L 23,25 L 22,25 L 21,24 L 20,24 L 17,21 L 16,21 L 14,19 L 13,19 L 12,18 L 11,18 L 8,21 L 7,20 L 6,20 L 4,18 Z" fill="none" stroke="black" stroke-width="1"/>
</svg>