<svg xmlns="http://www.w3.org/2000/svg" width="283" height="247">
  <path d="M 67,173 L 66,174 L 65,174 L 65,175 L 64,176 L 60,176 L 60,177 L 59,178 L 58,178 L 57,179 L 56,179 L 54,181 L 49,181 L 47,183 L 46,183 L 45,184 L 44,184 L 44,185 L 43,186 L 42,186 L 41,187 L 40,187 L 39,188 L 39,189 L 36,192 L 35,192 L 32,195 L 31,195 L 30,196 L 30,197 L 27,200 L 26,200 L 26,201 L 25,202 L 27,204 L 27,206 L 28,207 L 28,210 L 29,211 L 29,225 L 30,226 L 30,229 L 31,230 L 31,235 L 32,236 L 32,237 L 33,238 L 33,239 L 34,240 L 34,241 L 35,242 L 36,242 L 38,240 L 39,240 L 40,239 L 42,239 L 43,238 L 47,238 L 48,239 L 53,239 L 55,241 L 57,241 L 59,243 L 63,243 L 64,244 L 68,244 L 69,245 L 69,246 L 70,246 L 71,245 L 73,245 L 74,244 L 76,244 L 77,243 L 79,243 L 80,242 L 81,242 L 82,241 L 83,241 L 85,243 L 87,243 L 87,241 L 88,240 L 91,240 L 94,237 L 99,237 L 100,238 L 103,238 L 104,237 L 105,237 L 105,236 L 104,236 L 97,229 L 97,228 L 96,227 L 96,225 L 95,224 L 95,218 L 94,217 L 94,205 L 93,204 L 93,190 L 92,189 L 92,179 L 91,179 L 90,178 L 90,177 L 89,177 L 88,176 L 87,176 L 86,175 L 85,176 L 79,176 L 78,177 L 77,177 L 75,175 L 74,175 L 73,174 L 72,174 L 71,173 L 70,174 L 69,173 Z" fill="none" stroke="black" stroke-width="1"/>
</svg>