<svg xmlns="http://www.w3.org/2000/svg" width="159" height="225">
  <path d="M 41,157 L 40,158 L 40,161 L 37,164 L 35,164 L 34,165 L 34,166 L 28,172 L 27,172 L 26,173 L 25,173 L 23,175 L 22,175 L 21,176 L 21,177 L 18,180 L 16,180 L 15,181 L 12,181 L 12,182 L 11,183 L 4,183 L 4,184 L 3,185 L 3,186 L 2,187 L 2,188 L 1,189 L 0,189 L 0,196 L 1,197 L 1,205 L 17,205 L 19,207 L 20,207 L 21,208 L 22,208 L 25,211 L 26,211 L 27,212 L 28,212 L 29,213 L 30,213 L 32,215 L 33,215 L 34,216 L 35,216 L 38,219 L 38,221 L 39,222 L 39,223 L 40,224 L 41,223 L 42,223 L 44,221 L 45,221 L 46,220 L 47,220 L 48,219 L 49,219 L 50,218 L 51,218 L 53,216 L 55,216 L 56,215 L 58,215 L 59,214 L 61,214 L 62,213 L 72,213 L 73,214 L 75,214 L 75,209 L 77,207 L 77,205 L 76,204 L 76,202 L 74,200 L 74,199 L 73,198 L 73,193 L 80,186 L 80,185 L 81,184 L 81,183 L 80,182 L 80,181 L 78,179 L 78,177 L 76,177 L 72,173 L 72,172 L 71,171 L 71,170 L 70,169 L 70,168 L 69,167 L 68,167 L 67,166 L 65,166 L 62,163 L 61,163 L 60,162 L 51,162 L 50,161 L 50,160 L 49,159 L 48,159 L 47,158 L 46,158 L 45,157 Z" fill="none" stroke="black" stroke-width="1"/>
</svg>