<svg xmlns="http://www.w3.org/2000/svg" width="223" height="128">
  <path d="M 87,64 L 86,65 L 85,65 L 85,67 L 80,72 L 79,72 L 78,73 L 76,73 L 75,74 L 74,74 L 73,75 L 71,75 L 70,76 L 68,76 L 67,77 L 65,77 L 64,78 L 63,78 L 62,79 L 61,79 L 60,80 L 58,80 L 57,81 L 57,83 L 56,84 L 56,87 L 57,88 L 57,89 L 55,91 L 55,93 L 57,95 L 57,97 L 58,98 L 58,100 L 59,101 L 59,105 L 60,106 L 60,110 L 58,112 L 58,113 L 57,114 L 57,117 L 58,118 L 59,117 L 62,117 L 63,116 L 64,116 L 66,118 L 66,119 L 68,119 L 71,116 L 71,115 L 81,105 L 83,105 L 84,104 L 86,104 L 87,103 L 88,103 L 89,102 L 91,102 L 92,101 L 93,102 L 97,102 L 99,100 L 100,100 L 101,99 L 102,99 L 103,98 L 106,98 L 107,97 L 110,97 L 110,96 L 107,93 L 107,89 L 106,88 L 104,88 L 103,87 L 103,82 L 102,82 L 100,80 L 100,78 L 98,76 L 98,75 L 97,74 L 97,72 L 96,72 L 95,73 L 94,73 L 92,71 L 93,70 L 93,67 L 90,64 Z" fill="none" stroke="black" stroke-width="1"/>
</svg>