<svg xmlns="http://www.w3.org/2000/svg" width="60" height="52">
  <path d="M 21,22 L 20,23 L 17,23 L 17,24 L 19,26 L 19,27 L 20,27 L 19,26 L 20,25 L 21,25 L 22,26 L 25,26 L 26,27 L 26,29 L 25,30 L 24,30 L 23,29 L 20,29 L 20,30 L 19,31 L 18,31 L 17,32 L 17,35 L 18,35 L 19,34 L 19,32 L 20,31 L 21,32 L 22,32 L 24,34 L 24,35 L 25,36 L 25,38 L 26,39 L 26,40 L 27,39 L 28,39 L 29,38 L 30,38 L 31,39 L 34,39 L 35,38 L 40,38 L 41,39 L 44,39 L 45,38 L 46,38 L 46,36 L 47,35 L 46,34 L 44,34 L 42,32 L 42,30 L 41,30 L 40,29 L 40,28 L 39,28 L 36,25 L 36,24 L 35,23 L 35,22 L 34,22 L 33,23 L 32,23 L 31,24 L 30,24 L 29,23 L 28,23 L 27,22 L 26,22 L 25,23 L 24,22 Z" fill="none" stroke="black" stroke-width="1"/>
</svg>