<svg xmlns="http://www.w3.org/2000/svg" width="84" height="87">
  <path d="M 52,22 L 50,24 L 49,24 L 48,25 L 47,25 L 47,26 L 48,27 L 50,27 L 50,26 L 51,25 L 53,25 L 54,26 L 53,27 L 52,27 L 52,29 L 58,29 L 56,27 L 56,26 L 54,24 L 54,23 L 53,23 Z" fill="none" stroke="black" stroke-width="1"/>
  <path d="M 35,10 L 34,11 L 34,13 L 35,14 L 36,14 L 36,13 L 37,12 L 38,13 L 38,14 L 39,14 L 39,12 L 40,11 L 40,10 Z" fill="none" stroke="black" stroke-width="1"/>
  <path d="M 45,7 L 44,8 L 48,8 L 48,7 Z" fill="none" stroke="black" stroke-width="1"/>
  <path d="M 40,0 L 40,2 L 42,4 L 43,4 L 43,2 L 42,1 L 42,0 Z" fill="none" stroke="black" stroke-width="1"/>
</svg>