<svg xmlns="http://www.w3.org/2000/svg" width="143" height="138">
  <path d="M 106,59 L 105,60 L 104,60 L 103,61 L 102,61 L 101,62 L 100,62 L 99,63 L 96,63 L 95,64 L 92,64 L 90,66 L 89,66 L 88,67 L 87,67 L 86,68 L 85,68 L 83,70 L 81,70 L 78,73 L 77,73 L 76,74 L 75,74 L 73,76 L 72,76 L 72,77 L 71,78 L 68,78 L 67,79 L 63,79 L 59,83 L 58,83 L 59,84 L 59,85 L 61,87 L 61,88 L 62,88 L 64,90 L 64,91 L 65,92 L 65,93 L 66,94 L 66,104 L 71,109 L 72,109 L 78,115 L 78,117 L 79,118 L 80,118 L 81,119 L 82,119 L 83,120 L 83,121 L 84,121 L 88,125 L 88,126 L 90,128 L 90,129 L 91,130 L 91,131 L 92,132 L 92,137 L 98,137 L 99,136 L 103,136 L 105,134 L 106,134 L 107,133 L 108,133 L 109,132 L 110,132 L 111,131 L 111,129 L 112,128 L 112,127 L 114,125 L 114,123 L 115,122 L 115,121 L 117,119 L 117,118 L 118,117 L 118,114 L 121,111 L 122,111 L 123,110 L 128,110 L 129,109 L 133,109 L 133,107 L 131,105 L 132,104 L 138,104 L 139,105 L 139,107 L 140,108 L 140,107 L 141,106 L 142,106 L 142,105 L 141,104 L 140,104 L 138,102 L 138,101 L 137,101 L 136,100 L 136,99 L 135,98 L 135,97 L 132,94 L 132,93 L 131,92 L 131,91 L 130,90 L 130,84 L 129,83 L 129,82 L 127,80 L 126,80 L 125,79 L 124,79 L 122,77 L 121,77 L 118,74 L 117,74 L 116,73 L 115,73 L 110,68 L 110,67 L 109,66 L 109,65 L 108,64 L 108,63 L 107,62 L 107,59 Z" fill="none" stroke="black" stroke-width="1"/>
</svg>