<svg xmlns="http://www.w3.org/2000/svg" width="60" height="51">
  <path d="M 37,11 L 36,12 L 34,12 L 33,13 L 33,14 L 32,15 L 30,15 L 29,16 L 29,17 L 28,18 L 25,18 L 24,19 L 22,19 L 21,20 L 20,20 L 19,21 L 19,23 L 20,24 L 23,24 L 24,25 L 24,27 L 25,28 L 30,28 L 31,27 L 33,27 L 34,26 L 35,26 L 36,25 L 37,25 L 37,24 L 38,23 L 39,23 L 40,24 L 40,25 L 42,23 L 43,23 L 44,24 L 49,24 L 50,23 L 52,23 L 53,24 L 54,23 L 55,24 L 56,24 L 57,23 L 57,17 L 56,16 L 53,16 L 51,14 L 49,14 L 47,12 L 42,12 L 41,11 Z" fill="none" stroke="black" stroke-width="1"/>
</svg>