<svg xmlns="http://www.w3.org/2000/svg" width="77" height="66">
  <path d="M 12,43 L 12,45 L 10,47 L 9,47 L 8,48 L 7,48 L 6,49 L 6,50 L 7,50 L 8,51 L 8,52 L 9,53 L 10,53 L 11,54 L 14,54 L 15,55 L 16,55 L 19,58 L 19,60 L 22,60 L 23,61 L 28,61 L 30,63 L 32,63 L 34,65 L 40,65 L 41,64 L 42,64 L 41,63 L 41,61 L 35,55 L 35,54 L 36,53 L 36,52 L 35,51 L 33,53 L 32,52 L 32,51 L 30,51 L 29,50 L 27,50 L 26,51 L 25,50 L 21,50 L 20,49 L 20,47 L 19,46 L 18,46 L 16,44 L 15,45 L 14,45 L 13,44 L 13,43 Z" fill="none" stroke="black" stroke-width="1"/>
</svg>