<svg xmlns="http://www.w3.org/2000/svg" width="68" height="53">
  <path d="M 25,26 L 24,27 L 23,27 L 21,29 L 19,29 L 15,33 L 12,33 L 11,34 L 5,34 L 4,35 L 3,35 L 3,36 L 0,39 L 0,45 L 1,45 L 2,46 L 2,48 L 3,48 L 4,49 L 4,50 L 6,52 L 12,52 L 13,51 L 16,51 L 17,52 L 20,52 L 21,51 L 22,51 L 22,50 L 23,49 L 25,49 L 26,48 L 28,48 L 29,47 L 29,46 L 28,45 L 28,44 L 29,43 L 29,42 L 31,40 L 31,39 L 32,38 L 31,37 L 31,36 L 32,35 L 32,34 L 31,33 L 31,32 L 33,30 L 33,27 L 32,27 L 31,26 Z" fill="none" stroke="black" stroke-width="1"/>
</svg>