<svg xmlns="http://www.w3.org/2000/svg" width="77" height="58">
  <path d="M 7,44 L 6,45 L 6,46 L 7,47 L 9,47 L 9,45 L 8,44 Z" fill="none" stroke="black" stroke-width="1"/>
  <path d="M 10,25 L 9,26 L 7,26 L 7,27 L 6,28 L 6,29 L 4,31 L 3,31 L 2,32 L 0,32 L 1,33 L 1,39 L 0,40 L 1,41 L 1,42 L 2,42 L 4,40 L 6,40 L 7,41 L 7,42 L 10,42 L 12,40 L 13,40 L 14,39 L 15,39 L 16,40 L 16,41 L 17,40 L 18,40 L 19,41 L 21,41 L 22,42 L 27,42 L 29,44 L 32,41 L 32,39 L 31,38 L 31,33 L 28,30 L 28,29 L 25,29 L 24,30 L 23,30 L 22,29 L 21,29 L 20,28 L 18,30 L 16,28 L 14,28 L 13,27 L 11,27 L 10,26 Z" fill="none" stroke="black" stroke-width="1"/>
</svg>