<svg xmlns="http://www.w3.org/2000/svg" width="68" height="53">
  <path d="M 45,0 L 45,2 L 44,3 L 44,7 L 45,8 L 44,9 L 44,10 L 43,11 L 43,13 L 44,14 L 44,15 L 45,16 L 45,18 L 50,18 L 53,21 L 54,21 L 54,20 L 56,18 L 56,16 L 55,15 L 56,14 L 56,13 L 55,13 L 54,12 L 56,10 L 58,10 L 59,11 L 59,13 L 60,14 L 64,14 L 65,13 L 66,13 L 67,12 L 67,7 L 65,5 L 65,4 L 64,3 L 63,3 L 62,2 L 59,2 L 58,3 L 56,3 L 55,4 L 54,4 L 53,3 L 51,3 L 50,2 L 48,2 L 46,0 Z" fill="none" stroke="black" stroke-width="1"/>
</svg>