<svg xmlns="http://www.w3.org/2000/svg" width="143" height="138">
  <path d="M 91,10 L 90,11 L 86,11 L 85,12 L 84,12 L 82,14 L 80,14 L 79,15 L 79,16 L 77,18 L 79,20 L 78,21 L 79,22 L 77,24 L 76,24 L 76,25 L 75,26 L 73,26 L 72,27 L 72,28 L 71,29 L 71,32 L 70,33 L 69,33 L 69,34 L 68,35 L 68,36 L 66,38 L 66,39 L 67,40 L 66,41 L 69,44 L 69,45 L 70,46 L 70,50 L 69,51 L 70,51 L 71,52 L 68,55 L 68,56 L 67,57 L 67,58 L 65,60 L 65,61 L 64,62 L 64,67 L 63,68 L 63,69 L 62,70 L 62,71 L 66,75 L 66,76 L 67,77 L 71,77 L 71,76 L 72,75 L 73,75 L 75,73 L 76,73 L 77,72 L 78,72 L 81,69 L 83,69 L 85,67 L 86,67 L 87,66 L 88,66 L 89,65 L 90,65 L 92,63 L 95,63 L 96,62 L 99,62 L 100,61 L 101,61 L 102,60 L 103,60 L 104,59 L 105,59 L 106,58 L 107,58 L 107,57 L 108,56 L 109,56 L 111,54 L 112,54 L 113,53 L 113,52 L 116,49 L 116,43 L 117,42 L 117,41 L 118,40 L 118,39 L 119,38 L 120,38 L 123,35 L 124,35 L 126,33 L 126,26 L 128,24 L 129,24 L 129,23 L 131,21 L 131,20 L 132,19 L 131,18 L 124,18 L 123,17 L 122,17 L 120,15 L 119,15 L 117,13 L 117,10 L 116,11 L 98,11 L 97,10 Z" fill="none" stroke="black" stroke-width="1"/>
</svg>