<svg xmlns="http://www.w3.org/2000/svg" width="120" height="84">
  <path d="M 96,39 L 96,44 L 97,45 L 94,48 L 92,48 L 91,49 L 88,49 L 87,50 L 87,51 L 88,51 L 89,52 L 89,54 L 88,55 L 88,56 L 86,58 L 82,58 L 81,59 L 80,59 L 79,60 L 79,61 L 78,62 L 78,63 L 77,64 L 77,65 L 76,66 L 76,69 L 75,70 L 77,72 L 77,73 L 78,74 L 79,74 L 80,75 L 82,75 L 84,77 L 84,79 L 85,80 L 85,81 L 88,81 L 89,82 L 90,82 L 91,83 L 98,83 L 101,80 L 101,79 L 100,78 L 100,77 L 103,74 L 104,74 L 105,75 L 110,75 L 110,74 L 111,73 L 111,72 L 114,69 L 114,68 L 115,67 L 115,64 L 114,64 L 113,63 L 113,62 L 114,61 L 114,58 L 113,57 L 114,56 L 114,55 L 115,54 L 115,52 L 116,51 L 116,50 L 117,49 L 117,48 L 118,47 L 118,46 L 119,45 L 119,43 L 118,42 L 114,42 L 113,41 L 112,41 L 111,40 L 110,40 L 108,42 L 102,42 L 101,41 L 100,41 L 99,40 L 98,40 L 97,39 Z" fill="none" stroke="black" stroke-width="1"/>
</svg>