<svg xmlns="http://www.w3.org/2000/svg" width="89" height="125">
  <path d="M 54,0 L 54,2 L 53,3 L 53,4 L 50,7 L 50,8 L 49,9 L 49,10 L 48,11 L 43,11 L 42,10 L 41,10 L 39,12 L 39,13 L 40,14 L 40,15 L 36,19 L 29,19 L 29,21 L 28,22 L 28,23 L 27,24 L 26,24 L 24,26 L 24,29 L 23,30 L 23,32 L 25,34 L 25,35 L 26,36 L 27,36 L 28,37 L 28,41 L 29,42 L 29,43 L 30,44 L 30,45 L 31,46 L 31,47 L 32,48 L 32,50 L 33,51 L 34,51 L 36,53 L 37,53 L 38,52 L 40,52 L 41,51 L 43,51 L 44,50 L 47,50 L 48,49 L 49,49 L 51,47 L 54,47 L 55,46 L 56,46 L 58,44 L 58,43 L 59,42 L 60,42 L 60,41 L 62,39 L 64,39 L 64,36 L 65,35 L 67,35 L 67,31 L 69,29 L 69,26 L 71,24 L 75,24 L 76,23 L 78,23 L 78,22 L 79,21 L 87,21 L 87,20 L 88,19 L 86,17 L 86,15 L 85,14 L 85,13 L 83,13 L 81,15 L 77,15 L 76,16 L 77,17 L 77,18 L 76,19 L 69,19 L 68,18 L 68,17 L 69,16 L 70,16 L 70,15 L 69,15 L 68,14 L 67,15 L 64,15 L 63,14 L 63,6 L 62,5 L 62,4 L 61,3 L 61,2 L 58,2 L 57,1 L 55,1 Z" fill="none" stroke="black" stroke-width="1"/>
</svg>