<svg xmlns="http://www.w3.org/2000/svg" width="180" height="137">
  <path d="M 71,28 L 71,33 L 72,34 L 73,34 L 74,35 L 75,35 L 76,36 L 76,39 L 73,42 L 72,41 L 70,41 L 70,43 L 69,44 L 69,45 L 70,46 L 70,49 L 67,52 L 66,52 L 65,53 L 64,53 L 63,54 L 62,54 L 61,55 L 57,55 L 56,56 L 56,58 L 55,59 L 55,60 L 54,61 L 53,61 L 52,62 L 49,62 L 49,63 L 47,65 L 47,69 L 48,70 L 48,71 L 49,72 L 49,76 L 50,77 L 50,80 L 51,81 L 52,80 L 58,80 L 60,78 L 62,78 L 63,77 L 67,77 L 68,78 L 69,78 L 70,79 L 71,79 L 72,80 L 77,80 L 78,81 L 79,81 L 81,83 L 82,83 L 83,84 L 86,84 L 87,85 L 96,85 L 97,84 L 98,84 L 99,83 L 104,83 L 105,84 L 106,84 L 108,82 L 108,81 L 109,80 L 109,76 L 108,75 L 106,75 L 105,74 L 102,74 L 99,71 L 99,70 L 98,69 L 98,67 L 97,66 L 97,57 L 96,56 L 96,52 L 95,51 L 95,48 L 94,47 L 94,46 L 93,45 L 93,44 L 92,43 L 92,42 L 91,41 L 91,36 L 90,35 L 90,34 L 89,33 L 89,32 L 87,32 L 86,31 L 84,31 L 83,30 L 83,29 L 76,29 L 75,28 Z" fill="none" stroke="black" stroke-width="1"/>
</svg>