<svg xmlns="http://www.w3.org/2000/svg" width="227" height="108">
  <path d="M 189,9 L 189,11 L 188,12 L 188,13 L 186,15 L 186,16 L 184,18 L 184,19 L 183,20 L 182,20 L 181,21 L 180,21 L 179,22 L 178,22 L 177,23 L 175,23 L 174,24 L 172,24 L 169,27 L 169,29 L 168,30 L 168,31 L 165,34 L 161,34 L 160,35 L 158,35 L 157,36 L 156,36 L 152,40 L 151,40 L 145,46 L 140,46 L 139,47 L 138,47 L 137,48 L 136,48 L 135,49 L 133,49 L 132,50 L 131,50 L 129,52 L 128,52 L 127,53 L 126,53 L 124,55 L 124,56 L 120,60 L 121,61 L 123,61 L 125,63 L 126,63 L 128,65 L 129,65 L 132,68 L 133,68 L 136,71 L 146,71 L 147,70 L 150,70 L 151,69 L 158,69 L 159,70 L 161,70 L 163,68 L 164,68 L 165,67 L 166,67 L 166,63 L 168,61 L 169,61 L 171,59 L 172,59 L 175,56 L 176,56 L 179,53 L 181,53 L 182,52 L 185,52 L 186,51 L 188,51 L 190,53 L 203,53 L 207,49 L 208,49 L 210,47 L 211,47 L 212,46 L 213,46 L 214,45 L 214,44 L 215,43 L 224,43 L 224,41 L 225,40 L 225,39 L 226,38 L 226,37 L 225,36 L 225,34 L 224,33 L 224,29 L 225,28 L 225,23 L 226,22 L 226,21 L 224,21 L 222,19 L 222,18 L 221,17 L 221,16 L 220,16 L 218,14 L 214,14 L 213,13 L 208,13 L 207,12 L 205,12 L 202,9 Z" fill="none" stroke="black" stroke-width="1"/>
</svg>