<svg xmlns="http://www.w3.org/2000/svg" width="63" height="44">
  <path d="M 4,13 L 4,15 L 5,15 L 6,16 L 7,16 L 7,15 L 5,13 Z" fill="none" stroke="black" stroke-width="1"/>
  <path d="M 0,0 L 0,1 L 3,4 L 4,4 L 5,5 L 5,6 L 6,7 L 6,9 L 13,16 L 14,16 L 15,17 L 14,18 L 16,18 L 17,17 L 20,17 L 21,18 L 22,18 L 23,17 L 24,17 L 25,16 L 26,16 L 27,15 L 28,15 L 28,14 L 27,13 L 26,13 L 25,12 L 25,11 L 24,10 L 23,10 L 22,11 L 19,11 L 18,10 L 9,10 L 8,9 L 7,9 L 6,8 L 7,7 L 7,6 L 6,5 L 6,4 L 4,2 L 2,2 Z" fill="none" stroke="black" stroke-width="1"/>
</svg>