<svg xmlns="http://www.w3.org/2000/svg" width="194" height="126">
  <path d="M 21,34 L 21,35 L 19,37 L 18,37 L 17,38 L 16,38 L 14,40 L 13,40 L 10,43 L 10,49 L 8,51 L 8,59 L 7,60 L 7,62 L 5,64 L 5,65 L 4,66 L 4,67 L 3,68 L 3,69 L 2,70 L 2,82 L 1,83 L 1,86 L 0,87 L 0,93 L 1,94 L 1,96 L 2,97 L 2,98 L 3,99 L 3,100 L 4,101 L 5,101 L 8,104 L 9,104 L 11,106 L 11,107 L 12,107 L 14,109 L 14,111 L 17,114 L 17,115 L 21,119 L 22,119 L 25,122 L 25,123 L 27,125 L 28,124 L 29,124 L 30,123 L 31,123 L 33,121 L 34,121 L 34,120 L 35,119 L 36,119 L 37,118 L 38,118 L 45,111 L 45,110 L 48,107 L 49,108 L 49,106 L 51,104 L 50,104 L 49,103 L 52,100 L 53,101 L 54,100 L 55,100 L 55,98 L 58,95 L 59,96 L 60,95 L 61,95 L 61,94 L 62,93 L 64,93 L 64,91 L 66,89 L 70,89 L 71,88 L 71,87 L 70,86 L 70,84 L 69,83 L 69,81 L 70,80 L 69,80 L 68,79 L 68,78 L 67,77 L 68,76 L 68,71 L 67,70 L 66,71 L 65,70 L 62,70 L 61,69 L 60,70 L 59,69 L 59,68 L 58,67 L 59,66 L 57,64 L 58,63 L 57,62 L 57,61 L 52,61 L 51,60 L 50,61 L 49,60 L 49,59 L 48,58 L 48,57 L 47,57 L 46,56 L 46,55 L 45,55 L 44,54 L 44,51 L 43,50 L 43,49 L 42,49 L 40,47 L 40,46 L 39,45 L 39,44 L 38,44 L 35,41 L 35,40 L 34,39 L 33,39 L 32,38 L 32,36 L 33,35 L 33,34 Z" fill="none" stroke="black" stroke-width="1"/>
</svg>