<svg xmlns="http://www.w3.org/2000/svg" width="194" height="126">
  <path d="M 112,3 L 108,7 L 104,7 L 103,8 L 102,8 L 101,9 L 100,9 L 99,10 L 98,10 L 97,11 L 96,11 L 93,14 L 91,14 L 90,13 L 89,13 L 87,15 L 83,15 L 82,16 L 80,16 L 80,18 L 81,19 L 81,20 L 82,21 L 82,24 L 80,26 L 80,29 L 82,31 L 83,31 L 87,35 L 88,35 L 89,36 L 90,36 L 92,38 L 102,38 L 103,39 L 103,40 L 102,41 L 103,42 L 103,43 L 104,43 L 105,44 L 104,45 L 104,46 L 105,47 L 107,47 L 108,48 L 111,48 L 112,49 L 114,49 L 115,50 L 119,50 L 120,49 L 123,49 L 124,50 L 132,50 L 133,49 L 133,48 L 134,47 L 134,46 L 135,45 L 135,44 L 137,42 L 137,41 L 142,36 L 142,32 L 143,31 L 144,31 L 146,29 L 148,29 L 151,26 L 151,24 L 152,23 L 152,22 L 153,21 L 154,21 L 155,20 L 156,20 L 156,18 L 154,18 L 153,17 L 152,17 L 151,16 L 146,16 L 145,15 L 145,14 L 142,14 L 141,13 L 133,13 L 131,11 L 128,11 L 127,10 L 127,9 L 125,9 L 124,8 L 123,8 L 121,6 L 120,6 L 119,5 L 119,4 L 116,4 L 115,3 Z" fill="none" stroke="black" stroke-width="1"/>
</svg>