<svg xmlns="http://www.w3.org/2000/svg" width="77" height="58">
  <path d="M 51,35 L 50,36 L 47,36 L 45,38 L 39,38 L 38,39 L 35,39 L 34,40 L 33,40 L 33,41 L 30,44 L 30,46 L 31,47 L 34,47 L 35,46 L 39,46 L 40,47 L 39,48 L 38,48 L 37,49 L 36,49 L 35,50 L 34,50 L 33,51 L 32,51 L 31,52 L 30,52 L 30,53 L 32,53 L 33,54 L 33,55 L 32,56 L 32,57 L 33,57 L 33,56 L 37,52 L 38,52 L 38,51 L 40,49 L 41,49 L 42,48 L 43,48 L 44,47 L 45,47 L 46,46 L 47,46 L 48,45 L 49,45 L 49,44 L 51,42 L 51,41 L 52,40 L 53,40 L 53,38 L 52,37 L 52,36 Z" fill="none" stroke="black" stroke-width="1"/>
</svg>