<svg xmlns="http://www.w3.org/2000/svg" width="185" height="162">
  <path d="M 74,81 L 73,82 L 72,82 L 71,83 L 70,83 L 63,90 L 63,92 L 62,93 L 62,95 L 61,96 L 61,98 L 60,99 L 60,101 L 59,102 L 59,111 L 56,114 L 55,114 L 52,117 L 51,117 L 50,118 L 49,118 L 44,123 L 43,123 L 32,134 L 32,135 L 30,137 L 29,137 L 28,138 L 25,138 L 23,140 L 25,140 L 26,139 L 28,139 L 29,138 L 32,138 L 34,136 L 36,136 L 37,135 L 41,135 L 44,138 L 47,138 L 48,139 L 54,139 L 56,141 L 57,141 L 58,142 L 58,143 L 59,144 L 68,144 L 68,139 L 69,138 L 69,136 L 70,135 L 70,134 L 73,131 L 73,130 L 74,129 L 75,129 L 79,125 L 80,125 L 82,123 L 83,123 L 85,121 L 85,119 L 86,118 L 86,110 L 87,109 L 87,97 L 88,96 L 88,95 L 89,94 L 89,93 L 90,92 L 90,91 L 91,90 L 91,84 L 89,82 L 86,82 L 86,83 L 84,85 L 82,85 L 81,84 L 81,83 L 79,83 L 77,85 L 75,83 L 75,81 Z" fill="none" stroke="black" stroke-width="1"/>
</svg>