<svg xmlns="http://www.w3.org/2000/svg" width="139" height="111">
  <path d="M 65,43 L 64,44 L 63,44 L 61,46 L 61,47 L 56,52 L 56,53 L 55,54 L 55,55 L 56,56 L 56,59 L 59,62 L 59,63 L 60,64 L 60,66 L 61,67 L 61,70 L 60,71 L 60,77 L 61,78 L 61,81 L 62,82 L 62,98 L 64,98 L 65,97 L 70,97 L 71,98 L 75,98 L 76,97 L 77,97 L 78,96 L 86,96 L 87,97 L 93,97 L 94,98 L 95,98 L 95,92 L 97,90 L 97,89 L 98,88 L 98,87 L 99,86 L 99,85 L 100,84 L 100,80 L 101,79 L 101,74 L 100,73 L 101,72 L 102,72 L 103,71 L 103,70 L 104,69 L 104,67 L 105,66 L 105,63 L 103,63 L 102,62 L 101,62 L 100,61 L 99,61 L 97,59 L 95,59 L 94,58 L 93,58 L 92,57 L 90,57 L 89,56 L 88,56 L 87,55 L 84,55 L 81,52 L 80,52 L 78,50 L 76,50 L 75,49 L 74,49 L 73,48 L 71,48 L 69,46 L 69,45 L 67,43 Z" fill="none" stroke="black" stroke-width="1"/>
</svg>