<svg xmlns="http://www.w3.org/2000/svg" width="139" height="111">
  <path d="M 53,55 L 47,61 L 47,62 L 44,65 L 43,65 L 42,66 L 39,66 L 38,67 L 37,67 L 36,68 L 35,68 L 34,69 L 33,69 L 32,68 L 27,68 L 26,69 L 24,69 L 22,71 L 21,71 L 20,72 L 19,72 L 18,73 L 17,73 L 16,74 L 16,75 L 15,76 L 15,78 L 16,79 L 16,85 L 15,86 L 15,87 L 14,88 L 14,89 L 13,90 L 13,91 L 9,95 L 8,95 L 7,96 L 5,96 L 4,97 L 4,98 L 3,99 L 3,100 L 2,101 L 2,102 L 0,104 L 0,108 L 2,110 L 10,110 L 11,109 L 14,109 L 15,108 L 19,108 L 20,107 L 22,107 L 24,105 L 26,105 L 27,104 L 29,104 L 30,103 L 38,103 L 40,105 L 42,105 L 43,106 L 46,106 L 47,107 L 49,107 L 50,108 L 51,108 L 52,109 L 53,108 L 55,108 L 55,107 L 56,106 L 60,106 L 60,100 L 61,99 L 62,99 L 61,98 L 61,82 L 60,81 L 60,78 L 59,77 L 59,71 L 60,70 L 60,67 L 59,66 L 59,64 L 58,63 L 58,62 L 55,59 L 55,56 L 54,55 Z" fill="none" stroke="black" stroke-width="1"/>
</svg>