<svg xmlns="http://www.w3.org/2000/svg" width="139" height="111">
  <path d="M 126,52 L 124,54 L 120,54 L 120,55 L 118,57 L 117,57 L 116,58 L 115,58 L 113,60 L 110,60 L 109,61 L 109,63 L 108,64 L 106,64 L 106,66 L 105,67 L 105,69 L 104,70 L 104,71 L 102,73 L 101,73 L 102,74 L 102,79 L 101,80 L 101,84 L 100,85 L 100,86 L 99,87 L 99,88 L 98,89 L 98,90 L 96,92 L 96,99 L 97,100 L 97,103 L 98,104 L 98,105 L 99,106 L 100,106 L 101,107 L 102,107 L 103,108 L 104,108 L 106,110 L 108,108 L 110,108 L 111,109 L 116,109 L 116,107 L 118,105 L 118,104 L 119,103 L 120,103 L 121,102 L 125,102 L 126,101 L 126,99 L 125,98 L 125,96 L 126,95 L 126,94 L 127,93 L 127,87 L 128,86 L 128,85 L 129,84 L 129,83 L 134,78 L 136,78 L 134,76 L 134,73 L 135,72 L 135,71 L 138,68 L 138,65 L 137,64 L 137,62 L 136,61 L 136,59 L 135,58 L 135,57 L 133,55 L 133,54 L 132,54 L 131,53 L 130,53 L 129,52 Z" fill="none" stroke="black" stroke-width="1"/>
</svg>