<svg xmlns="http://www.w3.org/2000/svg" width="139" height="111">
  <path d="M 106,0 L 105,1 L 105,2 L 103,4 L 103,5 L 102,6 L 101,6 L 100,7 L 99,7 L 98,8 L 97,8 L 96,9 L 95,9 L 94,10 L 94,11 L 91,14 L 91,16 L 90,17 L 90,19 L 88,21 L 87,21 L 86,22 L 86,25 L 85,26 L 85,28 L 83,30 L 83,31 L 81,33 L 80,33 L 78,35 L 77,35 L 77,36 L 76,37 L 73,37 L 72,38 L 71,38 L 71,39 L 69,41 L 68,41 L 68,43 L 70,45 L 70,46 L 71,47 L 73,47 L 74,48 L 75,48 L 76,49 L 78,49 L 80,51 L 81,51 L 84,54 L 87,54 L 88,55 L 89,55 L 90,56 L 92,56 L 93,57 L 94,57 L 95,58 L 97,58 L 99,60 L 100,60 L 101,61 L 102,61 L 103,62 L 105,62 L 106,63 L 108,63 L 108,61 L 110,59 L 113,59 L 115,57 L 116,57 L 117,56 L 118,56 L 119,55 L 119,54 L 120,53 L 124,53 L 126,51 L 128,51 L 128,50 L 129,49 L 129,47 L 128,46 L 128,42 L 129,41 L 129,38 L 128,37 L 128,32 L 129,31 L 129,27 L 130,26 L 130,25 L 131,24 L 131,22 L 132,21 L 132,20 L 133,19 L 132,18 L 132,17 L 131,16 L 131,15 L 130,15 L 129,16 L 127,16 L 126,15 L 125,15 L 124,14 L 120,14 L 119,13 L 119,12 L 118,12 L 115,9 L 115,8 L 114,7 L 114,6 L 112,4 L 112,3 L 111,3 L 109,1 L 108,1 L 107,0 Z" fill="none" stroke="black" stroke-width="1"/>
</svg>