<svg xmlns="http://www.w3.org/2000/svg" width="240" height="239">
  <path d="M 203,129 L 204,130 L 204,136 L 203,137 L 203,138 L 202,139 L 202,140 L 197,145 L 196,145 L 195,146 L 194,146 L 192,148 L 191,148 L 190,149 L 189,149 L 187,151 L 186,151 L 182,155 L 182,156 L 181,157 L 181,158 L 179,160 L 179,161 L 178,162 L 178,163 L 176,165 L 171,165 L 169,163 L 165,163 L 164,162 L 158,162 L 156,164 L 155,164 L 153,166 L 153,167 L 150,170 L 149,170 L 147,172 L 147,173 L 148,174 L 149,174 L 150,175 L 150,176 L 148,178 L 147,178 L 146,179 L 145,179 L 146,180 L 146,181 L 150,185 L 151,185 L 152,186 L 157,186 L 158,187 L 165,187 L 166,186 L 167,186 L 168,187 L 167,188 L 168,188 L 169,189 L 170,189 L 171,190 L 173,190 L 174,191 L 175,191 L 176,192 L 177,192 L 178,193 L 179,193 L 180,194 L 181,194 L 184,197 L 184,198 L 186,198 L 186,197 L 188,195 L 189,196 L 189,200 L 188,201 L 188,202 L 187,203 L 187,210 L 188,211 L 188,213 L 189,214 L 189,217 L 191,219 L 191,221 L 192,222 L 192,223 L 193,224 L 193,225 L 194,226 L 194,228 L 196,230 L 197,230 L 199,232 L 200,232 L 201,233 L 201,234 L 202,234 L 205,237 L 207,237 L 208,238 L 211,238 L 213,236 L 213,235 L 214,234 L 214,233 L 215,232 L 215,231 L 216,230 L 217,230 L 221,226 L 222,226 L 223,225 L 225,225 L 228,222 L 229,222 L 230,221 L 228,221 L 227,222 L 224,222 L 223,221 L 224,220 L 224,217 L 225,216 L 225,215 L 226,214 L 226,213 L 227,212 L 228,212 L 234,206 L 235,206 L 236,205 L 236,204 L 238,202 L 238,200 L 239,199 L 238,198 L 238,197 L 237,196 L 237,195 L 234,192 L 235,191 L 235,188 L 236,187 L 236,184 L 237,183 L 237,182 L 236,181 L 236,180 L 231,180 L 229,178 L 233,174 L 233,173 L 234,172 L 235,172 L 235,171 L 238,168 L 238,166 L 239,165 L 239,164 L 238,163 L 238,160 L 237,159 L 237,158 L 238,157 L 238,155 L 237,154 L 237,153 L 236,154 L 233,154 L 232,153 L 231,153 L 230,152 L 229,153 L 228,152 L 227,152 L 226,151 L 225,151 L 224,150 L 225,149 L 224,149 L 223,148 L 223,147 L 222,146 L 222,144 L 221,143 L 221,142 L 220,142 L 219,141 L 217,141 L 216,142 L 215,142 L 211,138 L 210,138 L 209,137 L 209,136 L 207,134 L 207,133 L 204,130 L 204,129 Z" fill="none" stroke="black" stroke-width="1"/>
</svg>