<svg xmlns="http://www.w3.org/2000/svg" width="63" height="61">
  <path d="M 53,34 L 53,36 L 54,37 L 55,37 L 57,35 L 56,34 Z" fill="none" stroke="black" stroke-width="1"/>
  <path d="M 37,13 L 36,14 L 34,14 L 33,15 L 32,15 L 31,16 L 31,19 L 32,20 L 32,21 L 33,22 L 33,23 L 34,24 L 33,25 L 33,26 L 32,27 L 31,27 L 30,28 L 29,28 L 29,31 L 27,33 L 29,33 L 30,34 L 31,34 L 32,35 L 32,36 L 31,37 L 31,39 L 30,40 L 30,41 L 29,42 L 29,44 L 31,46 L 34,46 L 35,47 L 38,47 L 38,43 L 40,41 L 42,41 L 43,40 L 47,40 L 48,41 L 49,41 L 50,40 L 51,40 L 51,36 L 50,35 L 49,36 L 48,36 L 47,35 L 47,34 L 46,33 L 46,32 L 45,31 L 44,31 L 42,29 L 41,29 L 40,28 L 40,27 L 41,26 L 41,25 L 40,24 L 43,21 L 44,21 L 44,20 L 42,20 L 41,19 L 41,16 L 39,14 L 38,14 Z" fill="none" stroke="black" stroke-width="1"/>
</svg>