<svg xmlns="http://www.w3.org/2000/svg" width="60" height="90">
  <path d="M 33,41 L 32,42 L 31,42 L 30,43 L 25,43 L 24,42 L 23,42 L 23,44 L 21,46 L 21,47 L 22,48 L 23,48 L 24,49 L 26,49 L 29,52 L 34,52 L 35,51 L 36,52 L 37,52 L 38,53 L 38,54 L 39,54 L 40,55 L 41,55 L 42,54 L 43,55 L 43,54 L 42,53 L 42,51 L 41,50 L 42,49 L 43,49 L 44,50 L 44,52 L 45,53 L 46,53 L 47,54 L 50,54 L 51,55 L 52,55 L 53,54 L 54,54 L 55,55 L 56,55 L 59,52 L 58,51 L 57,51 L 53,47 L 52,47 L 49,44 L 48,44 L 45,41 L 44,41 L 42,43 L 39,43 L 38,42 L 36,42 L 35,41 Z" fill="none" stroke="black" stroke-width="1"/>
</svg>