<svg xmlns="http://www.w3.org/2000/svg" width="88" height="51">
  <path d="M 68,0 L 67,1 L 63,1 L 61,3 L 61,5 L 60,6 L 60,8 L 59,9 L 59,11 L 58,12 L 58,15 L 59,16 L 60,16 L 61,17 L 63,17 L 65,19 L 65,22 L 67,24 L 70,24 L 72,26 L 72,27 L 73,28 L 73,29 L 74,29 L 76,31 L 76,33 L 77,34 L 78,34 L 79,35 L 80,35 L 81,34 L 81,33 L 79,31 L 81,29 L 82,30 L 82,31 L 83,31 L 83,30 L 84,29 L 84,28 L 83,27 L 83,26 L 82,25 L 84,23 L 85,23 L 86,24 L 86,22 L 87,21 L 87,19 L 86,19 L 85,20 L 83,18 L 84,17 L 85,17 L 85,13 L 83,13 L 82,12 L 83,11 L 82,10 L 81,10 L 78,7 L 77,7 L 76,6 L 75,6 L 73,4 L 73,3 L 72,3 L 70,1 L 70,0 Z" fill="none" stroke="black" stroke-width="1"/>
</svg>