<svg xmlns="http://www.w3.org/2000/svg" width="39" height="41">
  <path d="M 20,10 L 20,11 L 19,12 L 18,12 L 17,11 L 16,11 L 16,12 L 15,13 L 14,12 L 13,12 L 14,13 L 13,14 L 12,14 L 10,16 L 8,16 L 7,17 L 6,17 L 5,18 L 1,18 L 2,19 L 2,20 L 4,22 L 5,22 L 6,23 L 8,23 L 9,24 L 11,24 L 12,23 L 14,23 L 15,22 L 20,22 L 21,23 L 23,23 L 24,24 L 24,25 L 25,25 L 26,24 L 29,24 L 29,20 L 30,19 L 30,17 L 29,16 L 28,16 L 27,15 L 26,15 L 25,14 L 24,14 L 22,12 L 22,11 L 21,11 Z" fill="none" stroke="black" stroke-width="1"/>
</svg>