<svg xmlns="http://www.w3.org/2000/svg" width="88" height="51">
  <path d="M 82,36 L 82,37 L 81,38 L 81,39 L 80,40 L 80,41 L 79,42 L 79,44 L 80,45 L 80,47 L 79,48 L 80,48 L 81,47 L 82,47 L 83,46 L 82,45 L 83,44 L 82,43 Z" fill="none" stroke="black" stroke-width="1"/>
  <path d="M 65,23 L 60,28 L 60,32 L 59,33 L 59,37 L 58,38 L 57,38 L 57,39 L 56,40 L 56,41 L 57,42 L 57,50 L 59,50 L 61,48 L 62,48 L 63,47 L 65,47 L 66,46 L 67,46 L 68,45 L 70,45 L 71,44 L 72,44 L 73,43 L 74,43 L 76,41 L 77,41 L 78,40 L 78,38 L 79,37 L 79,36 L 78,35 L 77,35 L 75,33 L 75,31 L 74,30 L 73,30 L 72,29 L 72,28 L 71,27 L 71,26 L 70,25 L 67,25 Z" fill="none" stroke="black" stroke-width="1"/>
</svg>