<svg xmlns="http://www.w3.org/2000/svg" width="73" height="75">
  <path d="M 44,15 L 44,16 L 37,23 L 37,24 L 34,27 L 34,28 L 33,29 L 36,29 L 37,30 L 38,30 L 40,32 L 41,32 L 42,33 L 42,34 L 43,35 L 42,36 L 42,39 L 43,38 L 47,38 L 48,39 L 51,39 L 52,38 L 52,37 L 51,37 L 50,36 L 50,35 L 49,34 L 49,32 L 50,31 L 52,31 L 54,33 L 55,33 L 57,31 L 58,31 L 58,29 L 57,28 L 56,28 L 55,27 L 54,27 L 53,26 L 53,24 L 52,23 L 51,23 L 48,20 L 48,19 L 47,18 L 47,17 L 46,17 Z" fill="none" stroke="black" stroke-width="1"/>
</svg>