<svg xmlns="http://www.w3.org/2000/svg" width="73" height="75">
  <path d="M 50,32 L 50,34 L 51,35 L 51,36 L 52,36 L 53,37 L 53,38 L 51,40 L 48,40 L 47,39 L 43,39 L 42,40 L 41,40 L 38,43 L 37,43 L 36,44 L 35,44 L 33,46 L 33,48 L 32,49 L 31,49 L 29,51 L 22,51 L 22,52 L 23,53 L 23,54 L 24,55 L 24,56 L 26,58 L 26,60 L 28,60 L 29,59 L 35,59 L 36,58 L 37,58 L 38,57 L 38,56 L 39,55 L 40,55 L 41,54 L 41,53 L 42,52 L 42,50 L 44,48 L 48,48 L 49,47 L 52,47 L 53,46 L 53,45 L 54,44 L 54,43 L 58,39 L 58,38 L 59,37 L 60,37 L 60,34 L 59,34 L 58,33 L 58,32 L 57,32 L 55,34 L 54,34 L 52,32 Z" fill="none" stroke="black" stroke-width="1"/>
</svg>