<svg xmlns="http://www.w3.org/2000/svg" width="119" height="102">
  <path d="M 61,64 L 61,65 L 62,65 L 64,67 L 64,68 L 65,69 L 65,65 L 63,65 L 62,64 Z" fill="none" stroke="black" stroke-width="1"/>
  <path d="M 58,57 L 58,58 L 59,59 L 59,58 Z" fill="none" stroke="black" stroke-width="1"/>
  <path d="M 46,56 L 49,59 L 49,58 L 47,56 Z" fill="none" stroke="black" stroke-width="1"/>
  <path d="M 20,46 L 18,48 L 18,50 L 19,51 L 19,52 L 20,53 L 20,54 L 22,54 L 21,53 L 22,52 L 23,52 L 23,51 L 22,50 L 22,48 L 21,47 L 21,46 Z" fill="none" stroke="black" stroke-width="1"/>
  <path d="M 54,43 L 54,44 L 55,45 L 55,47 L 57,47 L 56,46 L 56,45 L 55,45 L 54,44 Z" fill="none" stroke="black" stroke-width="1"/>
  <path d="M 50,38 L 50,39 L 52,41 L 53,41 L 53,40 L 52,39 L 52,38 Z" fill="none" stroke="black" stroke-width="1"/>
  <path d="M 44,35 L 43,36 L 42,36 L 42,37 L 44,37 Z" fill="none" stroke="black" stroke-width="1"/>
  <path d="M 24,32 L 23,33 L 23,34 L 24,34 L 25,33 L 27,33 L 27,32 Z" fill="none" stroke="black" stroke-width="1"/>
  <path d="M 13,30 L 13,35 L 11,37 L 13,39 L 13,40 L 12,41 L 11,41 L 10,40 L 10,39 L 9,39 L 9,40 L 10,41 L 11,41 L 12,42 L 13,42 L 15,44 L 15,45 L 16,44 L 17,44 L 17,43 L 18,42 L 19,42 L 19,39 L 17,37 L 17,36 L 16,35 L 16,33 L 15,32 L 15,31 L 14,31 Z" fill="none" stroke="black" stroke-width="1"/>
  <path d="M 41,28 L 41,29 L 43,31 L 44,31 L 44,30 L 42,28 Z" fill="none" stroke="black" stroke-width="1"/>
  <path d="M 36,23 L 36,26 L 37,26 L 37,25 L 36,24 Z" fill="none" stroke="black" stroke-width="1"/>
  <path d="M 29,7 L 29,8 L 28,9 L 28,14 L 26,16 L 25,16 L 26,16 L 27,17 L 27,18 L 28,17 L 28,12 L 30,10 L 30,8 Z" fill="none" stroke="black" stroke-width="1"/>
  <path d="M 17,3 L 15,5 L 9,5 L 8,4 L 7,4 L 4,7 L 3,7 L 1,5 L 0,5 L 0,6 L 2,6 L 3,7 L 3,8 L 4,9 L 5,9 L 7,7 L 8,7 L 9,6 L 17,6 L 18,5 L 18,3 Z" fill="none" stroke="black" stroke-width="1"/>
  <path d="M 24,2 L 24,3 L 26,5 L 26,7 L 27,7 L 27,4 L 26,4 Z" fill="none" stroke="black" stroke-width="1"/>
  <path d="M 19,0 L 19,1 L 22,1 L 22,0 Z" fill="none" stroke="black" stroke-width="1"/>
</svg>