<svg xmlns="http://www.w3.org/2000/svg" width="71" height="61">
  <path d="M 23,22 L 22,23 L 20,23 L 19,24 L 18,24 L 17,25 L 16,25 L 15,26 L 14,26 L 12,24 L 10,24 L 8,26 L 7,25 L 7,24 L 7,25 L 6,26 L 5,26 L 4,27 L 0,27 L 0,29 L 1,29 L 2,30 L 2,33 L 3,33 L 4,34 L 4,39 L 5,40 L 6,40 L 7,41 L 7,42 L 8,42 L 10,44 L 10,45 L 13,48 L 13,49 L 16,49 L 17,50 L 17,51 L 18,51 L 21,54 L 22,54 L 22,52 L 21,51 L 21,50 L 23,48 L 23,42 L 25,40 L 24,39 L 24,36 L 25,35 L 23,33 L 25,31 L 25,24 L 24,23 L 24,22 Z" fill="none" stroke="black" stroke-width="1"/>
</svg>