<svg xmlns="http://www.w3.org/2000/svg" width="54" height="48">
  <path d="M 29,0 L 26,3 L 25,3 L 24,4 L 23,4 L 21,6 L 17,6 L 16,7 L 15,6 L 13,6 L 11,4 L 11,5 L 12,6 L 12,8 L 13,8 L 14,9 L 15,9 L 16,10 L 18,10 L 19,11 L 19,12 L 21,14 L 21,15 L 20,16 L 20,17 L 21,18 L 19,20 L 19,21 L 20,22 L 21,21 L 22,21 L 23,20 L 24,20 L 25,19 L 29,19 L 32,16 L 31,15 L 30,15 L 29,14 L 30,13 L 33,13 L 34,14 L 35,14 L 35,13 L 34,13 L 33,12 L 32,13 L 29,13 L 28,12 L 29,11 L 31,11 L 32,10 L 32,9 L 33,8 L 36,8 L 35,7 L 35,4 L 33,2 L 32,2 L 30,0 Z" fill="none" stroke="black" stroke-width="1"/>
</svg>