<svg xmlns="http://www.w3.org/2000/svg" width="77" height="55">
  <path d="M 60,41 L 59,42 L 60,43 L 61,43 L 61,42 Z" fill="none" stroke="black" stroke-width="1"/>
  <path d="M 68,35 L 67,36 L 67,37 L 69,35 Z" fill="none" stroke="black" stroke-width="1"/>
  <path d="M 58,21 L 57,22 L 56,22 L 56,23 L 52,27 L 51,27 L 51,30 L 50,31 L 51,31 L 52,32 L 52,33 L 51,34 L 52,34 L 54,36 L 54,37 L 55,38 L 57,38 L 58,39 L 58,40 L 59,39 L 60,39 L 61,38 L 62,39 L 63,39 L 64,38 L 65,38 L 65,35 L 67,33 L 70,33 L 73,30 L 76,30 L 75,30 L 73,28 L 73,27 L 72,28 L 71,27 L 70,27 L 69,28 L 66,28 L 65,27 L 64,27 L 61,24 L 61,23 L 59,21 Z" fill="none" stroke="black" stroke-width="1"/>
</svg>