<svg xmlns="http://www.w3.org/2000/svg" width="77" height="55">
  <path d="M 28,2 L 27,3 L 26,3 L 27,4 L 27,6 L 25,8 L 22,8 L 20,10 L 18,10 L 17,9 L 17,8 L 16,8 L 14,10 L 14,12 L 13,13 L 12,13 L 8,9 L 7,9 L 7,11 L 6,12 L 5,12 L 4,11 L 4,9 L 3,9 L 2,10 L 2,11 L 0,13 L 0,14 L 2,16 L 2,17 L 3,17 L 5,19 L 5,20 L 6,21 L 7,21 L 9,23 L 9,24 L 10,24 L 11,23 L 14,23 L 15,24 L 15,25 L 16,26 L 16,29 L 17,29 L 18,30 L 18,31 L 21,34 L 21,35 L 22,36 L 22,37 L 23,37 L 24,38 L 24,39 L 25,40 L 28,40 L 29,39 L 29,36 L 30,35 L 30,30 L 31,29 L 31,28 L 32,27 L 32,26 L 31,26 L 30,25 L 30,24 L 28,22 L 28,14 L 27,13 L 27,12 L 29,10 L 29,3 Z" fill="none" stroke="black" stroke-width="1"/>
</svg>