<svg xmlns="http://www.w3.org/2000/svg" width="119" height="102">
  <path d="M 92,96 L 92,97 L 91,98 L 90,98 L 89,99 L 88,98 L 85,98 L 83,100 L 83,101 L 91,101 L 91,100 L 92,99 L 92,98 L 93,97 L 93,96 Z" fill="none" stroke="black" stroke-width="1"/>
  <path d="M 118,90 L 118,91 Z" fill="none" stroke="black" stroke-width="1"/>
  <path d="M 112,86 L 112,87 L 113,87 L 114,88 L 115,88 L 116,89 L 116,86 Z" fill="none" stroke="black" stroke-width="1"/>
  <path d="M 107,84 L 106,85 L 107,85 L 109,87 L 110,87 L 110,84 Z" fill="none" stroke="black" stroke-width="1"/>
  <path d="M 92,77 L 92,78 L 93,77 Z" fill="none" stroke="black" stroke-width="1"/>
  <path d="M 72,70 L 72,71 L 73,72 L 74,72 L 75,73 L 76,73 L 77,72 L 78,73 L 78,74 L 79,75 L 79,76 L 78,77 L 77,77 L 74,80 L 75,80 L 76,79 L 77,79 L 78,78 L 79,78 L 80,77 L 80,72 L 79,72 L 78,73 L 76,71 L 74,71 L 73,70 Z" fill="none" stroke="black" stroke-width="1"/>
</svg>