<svg xmlns="http://www.w3.org/2000/svg" width="43" height="69">
  <path d="M 23,23 L 22,24 L 21,24 L 21,26 L 23,28 L 23,29 L 22,30 L 21,30 L 20,31 L 19,31 L 18,30 L 17,30 L 16,29 L 13,29 L 12,30 L 11,30 L 10,31 L 7,31 L 7,32 L 6,33 L 6,37 L 7,38 L 7,40 L 9,42 L 9,45 L 10,45 L 11,46 L 11,47 L 12,48 L 12,55 L 13,56 L 14,55 L 15,55 L 16,54 L 16,52 L 17,51 L 18,51 L 18,47 L 20,45 L 21,45 L 21,44 L 23,42 L 23,39 L 25,37 L 26,37 L 26,36 L 27,35 L 27,31 L 28,30 L 28,28 L 26,26 L 26,25 L 25,25 Z" fill="none" stroke="black" stroke-width="1"/>
</svg>