<svg xmlns="http://www.w3.org/2000/svg" width="43" height="69">
  <path d="M 24,64 L 24,65 L 25,66 L 25,68 L 26,67 L 26,64 Z" fill="none" stroke="black" stroke-width="1"/>
  <path d="M 24,42 L 22,44 L 22,45 L 21,46 L 20,46 L 19,47 L 19,52 L 21,54 L 21,57 L 18,60 L 20,62 L 21,62 L 23,60 L 26,60 L 27,61 L 28,60 L 29,60 L 32,63 L 33,63 L 33,62 L 34,61 L 39,61 L 39,60 L 40,59 L 41,59 L 41,56 L 42,55 L 42,54 L 41,53 L 41,51 L 40,51 L 39,50 L 39,47 L 38,46 L 38,44 L 37,43 L 35,45 L 34,45 L 33,46 L 32,46 L 31,45 L 28,45 L 26,43 L 26,42 Z" fill="none" stroke="black" stroke-width="1"/>
</svg>