<svg xmlns="http://www.w3.org/2000/svg" width="67" height="47">
  <path d="M 25,25 L 24,26 L 23,26 L 22,27 L 19,27 L 19,28 L 18,29 L 17,29 L 16,30 L 15,30 L 15,32 L 17,32 L 18,33 L 18,35 L 20,35 L 21,36 L 22,36 L 23,37 L 25,37 L 27,39 L 27,42 L 28,42 L 29,41 L 30,41 L 31,40 L 33,40 L 34,39 L 37,39 L 38,40 L 38,41 L 39,42 L 42,42 L 42,41 L 43,40 L 43,39 L 42,38 L 42,36 L 43,35 L 43,32 L 42,31 L 42,30 L 41,29 L 41,28 L 40,27 L 39,27 L 38,26 L 37,26 L 36,25 Z" fill="none" stroke="black" stroke-width="1"/>
</svg>