<svg xmlns="http://www.w3.org/2000/svg" width="108" height="66">
  <path d="M 31,21 L 29,23 L 30,24 L 30,25 L 31,26 L 31,27 L 30,28 L 28,26 L 28,27 L 29,28 L 30,28 L 31,29 L 32,29 L 33,28 L 35,28 L 36,27 L 37,27 L 37,25 L 35,23 L 35,22 L 34,22 L 33,21 Z" fill="none" stroke="black" stroke-width="1"/>
  <path d="M 42,0 L 41,1 L 39,1 L 38,2 L 37,2 L 36,3 L 32,3 L 32,5 L 33,5 L 34,6 L 34,8 L 49,8 L 51,10 L 52,10 L 52,8 L 53,7 L 53,4 L 54,3 L 54,2 L 53,1 L 47,1 L 46,0 Z" fill="none" stroke="black" stroke-width="1"/>
</svg>