<svg xmlns="http://www.w3.org/2000/svg" width="48" height="69">
  <path d="M 22,43 L 22,44 L 21,45 L 20,45 L 18,47 L 17,46 L 15,46 L 14,47 L 12,47 L 12,48 L 10,50 L 8,50 L 7,51 L 8,51 L 10,53 L 10,54 L 11,55 L 11,56 L 13,58 L 14,58 L 14,57 L 15,56 L 16,57 L 16,58 L 17,58 L 18,59 L 18,60 L 17,61 L 17,66 L 18,67 L 19,67 L 20,68 L 21,68 L 22,67 L 22,65 L 23,64 L 23,60 L 25,58 L 25,54 L 26,53 L 26,52 L 25,51 L 25,48 L 26,47 L 26,46 L 25,45 L 25,43 Z" fill="none" stroke="black" stroke-width="1"/>
</svg>