<svg xmlns="http://www.w3.org/2000/svg" width="56" height="55">
  <path d="M 26,13 L 26,15 L 23,18 L 22,18 L 21,19 L 17,19 L 16,20 L 15,19 L 14,19 L 13,18 L 12,18 L 11,19 L 10,19 L 9,20 L 8,19 L 6,19 L 6,22 L 5,23 L 4,23 L 3,24 L 2,24 L 1,25 L 0,25 L 0,26 L 1,26 L 2,27 L 2,34 L 3,33 L 5,33 L 7,31 L 9,31 L 11,29 L 13,29 L 14,28 L 16,28 L 17,27 L 24,27 L 25,28 L 29,28 L 30,29 L 30,30 L 32,30 L 32,27 L 33,26 L 34,26 L 35,25 L 35,24 L 36,23 L 36,20 L 33,17 L 33,16 L 30,13 Z" fill="none" stroke="black" stroke-width="1"/>
</svg>