<svg xmlns="http://www.w3.org/2000/svg" width="65" height="56">
  <path d="M 4,13 L 3,14 L 2,14 L 1,15 L 0,15 L 0,18 L 1,19 L 1,20 L 6,20 L 7,21 L 9,21 L 10,22 L 10,23 L 11,24 L 11,25 L 13,27 L 13,28 L 14,29 L 14,32 L 16,34 L 16,38 L 20,38 L 21,39 L 22,38 L 23,38 L 23,35 L 24,34 L 28,34 L 30,36 L 34,36 L 34,35 L 36,33 L 36,29 L 35,28 L 34,28 L 32,26 L 32,25 L 33,24 L 32,24 L 31,23 L 28,23 L 27,22 L 27,20 L 23,16 L 20,16 L 19,15 L 16,15 L 15,14 L 8,14 L 7,13 Z" fill="none" stroke="black" stroke-width="1"/>
</svg>