<svg xmlns="http://www.w3.org/2000/svg" width="65" height="56">
  <path d="M 52,33 L 52,34 L 50,36 L 49,36 L 48,37 L 43,37 L 42,36 L 41,37 L 38,37 L 36,35 L 35,35 L 35,36 L 34,37 L 30,37 L 28,35 L 24,35 L 24,38 L 23,39 L 22,39 L 21,40 L 20,39 L 18,39 L 21,42 L 21,48 L 22,49 L 25,49 L 27,51 L 27,52 L 28,53 L 30,51 L 31,52 L 31,53 L 33,55 L 34,55 L 35,54 L 37,54 L 38,55 L 39,55 L 39,50 L 40,49 L 41,49 L 42,48 L 44,48 L 45,47 L 46,47 L 48,45 L 49,45 L 50,46 L 50,47 L 51,46 L 52,46 L 53,45 L 53,44 L 54,43 L 54,38 L 53,37 L 53,33 Z" fill="none" stroke="black" stroke-width="1"/>
</svg>