<svg xmlns="http://www.w3.org/2000/svg" width="108" height="66">
  <path d="M 56,63 L 55,64 L 54,64 L 54,65 L 58,65 L 59,64 L 59,63 Z" fill="none" stroke="black" stroke-width="1"/>
  <path d="M 80,57 L 80,58 L 81,58 L 81,57 Z" fill="none" stroke="black" stroke-width="1"/>
  <path d="M 77,57 L 76,58 L 75,58 L 75,59 L 77,59 Z" fill="none" stroke="black" stroke-width="1"/>
  <path d="M 86,12 L 86,14 L 85,15 L 85,19 L 87,21 L 87,27 L 90,27 L 91,26 L 97,26 L 98,27 L 100,27 L 101,26 L 102,26 L 103,25 L 106,25 L 107,24 L 107,19 L 106,19 L 105,18 L 104,18 L 101,15 L 99,15 L 98,14 L 88,14 Z" fill="none" stroke="black" stroke-width="1"/>
  <path d="M 98,11 L 99,12 L 101,12 L 102,13 L 105,13 L 106,14 L 106,15 L 107,15 L 107,14 L 105,12 L 104,12 L 103,11 Z" fill="none" stroke="black" stroke-width="1"/>
</svg>