<svg xmlns="http://www.w3.org/2000/svg" width="55" height="47">
  <path d="M 19,23 L 18,24 L 16,24 L 13,27 L 11,27 L 9,29 L 7,29 L 6,28 L 5,28 L 4,27 L 4,26 L 3,25 L 2,25 L 2,26 L 1,27 L 0,27 L 0,28 L 1,29 L 1,31 L 0,32 L 0,33 L 1,34 L 1,35 L 2,35 L 4,37 L 4,38 L 5,39 L 5,40 L 6,41 L 6,44 L 8,46 L 10,46 L 11,45 L 11,44 L 12,43 L 13,43 L 13,41 L 14,40 L 15,40 L 16,39 L 18,39 L 20,37 L 20,36 L 19,35 L 19,34 L 20,33 L 20,32 L 22,30 L 22,27 L 21,26 L 21,25 L 20,25 L 19,24 Z" fill="none" stroke="black" stroke-width="1"/>
</svg>