<svg xmlns="http://www.w3.org/2000/svg" width="55" height="47">
  <path d="M 18,17 L 18,19 L 19,20 L 19,22 L 20,23 L 20,24 L 21,24 L 22,25 L 22,26 L 23,27 L 23,30 L 21,32 L 21,33 L 20,34 L 20,35 L 24,35 L 26,37 L 26,38 L 28,40 L 28,42 L 29,41 L 32,41 L 33,42 L 34,42 L 35,43 L 35,44 L 37,44 L 38,43 L 39,43 L 41,41 L 42,41 L 40,39 L 40,38 L 39,37 L 39,33 L 37,31 L 38,30 L 38,28 L 39,27 L 39,24 L 38,23 L 37,23 L 36,24 L 27,24 L 26,23 L 26,22 L 24,22 L 22,20 L 22,19 L 21,18 L 20,18 L 19,17 Z" fill="none" stroke="black" stroke-width="1"/>
</svg>