<svg xmlns="http://www.w3.org/2000/svg" width="127" height="131">
  <path d="M 9,95 L 8,96 L 8,98 L 9,99 L 9,100 L 8,101 L 9,102 L 9,105 L 8,106 L 7,106 L 7,107 L 6,108 L 6,113 L 3,116 L 0,116 L 0,119 L 1,119 L 2,120 L 2,121 L 1,122 L 1,128 L 2,129 L 2,130 L 3,130 L 4,129 L 7,129 L 8,128 L 9,128 L 10,129 L 10,127 L 11,126 L 12,126 L 12,123 L 13,122 L 13,120 L 14,119 L 13,118 L 13,116 L 14,115 L 14,113 L 15,112 L 16,112 L 17,111 L 17,109 L 18,108 L 18,107 L 17,106 L 17,105 L 16,104 L 16,101 L 15,100 L 15,99 L 14,98 L 14,97 L 13,97 L 11,95 Z" fill="none" stroke="black" stroke-width="1"/>
</svg>