<svg xmlns="http://www.w3.org/2000/svg" width="124" height="90">
  <path d="M 45,15 L 43,17 L 40,17 L 39,18 L 30,18 L 29,17 L 27,17 L 26,16 L 25,16 L 25,17 L 26,18 L 25,19 L 23,19 L 21,21 L 20,20 L 19,21 L 20,22 L 20,23 L 19,24 L 18,23 L 16,23 L 16,26 L 15,27 L 13,27 L 13,29 L 14,30 L 14,33 L 12,35 L 10,35 L 9,34 L 9,35 L 8,36 L 8,41 L 5,44 L 4,44 L 4,45 L 3,46 L 2,46 L 2,47 L 3,48 L 4,48 L 5,49 L 7,49 L 8,50 L 7,51 L 6,51 L 7,52 L 9,52 L 10,53 L 9,54 L 7,54 L 6,55 L 8,57 L 8,58 L 7,59 L 6,59 L 5,58 L 5,57 L 4,56 L 4,55 L 3,55 L 2,54 L 1,54 L 2,55 L 2,57 L 0,59 L 0,63 L 1,64 L 1,65 L 2,66 L 2,67 L 3,68 L 4,68 L 5,69 L 6,69 L 7,70 L 8,70 L 9,71 L 10,71 L 13,74 L 14,74 L 15,75 L 16,75 L 17,76 L 19,76 L 20,77 L 23,77 L 24,76 L 25,76 L 26,75 L 27,75 L 29,73 L 29,72 L 32,69 L 32,68 L 35,65 L 35,64 L 39,60 L 39,59 L 40,58 L 40,54 L 39,53 L 39,52 L 38,51 L 38,49 L 37,48 L 37,45 L 39,43 L 39,42 L 40,41 L 40,40 L 41,39 L 41,33 L 42,32 L 42,22 L 43,21 L 43,19 L 44,18 L 44,17 L 46,15 Z" fill="none" stroke="black" stroke-width="1"/>
</svg>