<svg xmlns="http://www.w3.org/2000/svg" width="124" height="90">
  <path d="M 105,65 L 105,66 L 106,67 L 106,65 Z" fill="none" stroke="black" stroke-width="1"/>
  <path d="M 88,58 L 87,59 L 87,60 L 86,61 L 85,61 L 84,62 L 84,63 L 83,64 L 83,68 L 84,69 L 84,70 L 87,73 L 89,73 L 90,74 L 92,74 L 93,75 L 94,75 L 95,76 L 95,77 L 97,79 L 98,79 L 101,82 L 101,83 L 104,86 L 105,86 L 106,87 L 107,87 L 108,88 L 110,88 L 111,89 L 122,89 L 123,88 L 123,81 L 121,79 L 120,79 L 119,78 L 118,78 L 115,75 L 115,73 L 114,72 L 109,72 L 108,71 L 108,70 L 106,70 L 105,69 L 102,69 L 101,68 L 101,67 L 99,65 L 99,64 L 98,65 L 96,65 L 95,64 L 95,62 L 94,61 L 93,61 L 91,59 L 90,59 L 89,58 Z" fill="none" stroke="black" stroke-width="1"/>
</svg>