<svg xmlns="http://www.w3.org/2000/svg" width="143" height="150">
  <path d="M 15,97 L 17,97 Z" fill="none" stroke="black" stroke-width="1"/>
  <path d="M 1,93 L 1,100 L 0,101 L 0,102 L 2,104 L 3,104 L 5,106 L 6,106 L 7,107 L 9,107 L 11,109 L 11,110 L 12,110 L 14,112 L 14,114 L 16,114 L 18,112 L 19,113 L 23,113 L 24,114 L 25,114 L 26,115 L 27,115 L 28,116 L 29,116 L 30,117 L 35,117 L 36,116 L 39,116 L 39,115 L 38,114 L 38,112 L 37,111 L 37,109 L 36,108 L 36,107 L 35,106 L 35,105 L 33,103 L 32,103 L 30,105 L 29,105 L 28,106 L 22,106 L 20,104 L 18,104 L 16,102 L 14,102 L 13,101 L 12,101 L 11,100 L 11,97 L 10,96 L 10,95 L 7,95 L 6,94 L 5,94 L 4,93 Z" fill="none" stroke="black" stroke-width="1"/>
  <path d="M 17,88 L 16,89 L 13,89 L 12,90 L 12,91 L 15,91 L 15,90 L 16,89 L 18,89 Z" fill="none" stroke="black" stroke-width="1"/>
</svg>