<svg xmlns="http://www.w3.org/2000/svg" width="143" height="150">
  <path d="M 40,89 L 40,90 L 38,92 L 38,93 L 37,94 L 37,96 L 36,97 L 36,99 L 35,100 L 35,102 L 34,103 L 36,105 L 36,106 L 37,107 L 37,108 L 38,109 L 38,111 L 39,112 L 39,114 L 40,115 L 40,116 L 45,121 L 46,121 L 47,122 L 57,122 L 58,123 L 59,123 L 60,124 L 61,124 L 64,127 L 64,128 L 68,132 L 71,132 L 71,126 L 69,124 L 68,124 L 64,120 L 64,116 L 68,112 L 69,112 L 73,108 L 73,107 L 74,106 L 74,105 L 73,104 L 73,102 L 71,102 L 70,101 L 68,101 L 67,100 L 67,99 L 66,100 L 62,100 L 61,99 L 60,99 L 59,98 L 56,98 L 54,96 L 52,96 L 50,94 L 49,94 L 48,93 L 47,93 L 45,91 L 44,91 L 42,89 Z" fill="none" stroke="black" stroke-width="1"/>
</svg>