<svg xmlns="http://www.w3.org/2000/svg" width="103" height="114">
  <path d="M 45,30 L 45,31 L 44,32 L 43,32 L 42,33 L 41,33 L 41,35 L 42,36 L 42,37 L 43,38 L 43,39 L 45,41 L 46,41 L 47,42 L 47,43 L 49,45 L 49,46 L 50,47 L 50,48 L 51,49 L 51,51 L 52,52 L 53,52 L 54,53 L 54,54 L 57,57 L 59,57 L 60,58 L 82,58 L 83,59 L 85,59 L 86,60 L 90,60 L 88,58 L 87,58 L 86,57 L 85,57 L 84,56 L 84,54 L 83,53 L 83,51 L 82,50 L 81,50 L 80,49 L 79,50 L 78,50 L 76,48 L 76,47 L 75,46 L 73,46 L 71,44 L 72,43 L 73,43 L 74,44 L 74,43 L 72,41 L 71,41 L 70,42 L 69,41 L 69,40 L 68,39 L 68,38 L 65,38 L 63,36 L 63,35 L 62,34 L 60,34 L 59,33 L 56,33 L 56,39 L 57,40 L 55,42 L 54,42 L 53,41 L 52,41 L 50,39 L 50,36 L 49,35 L 49,32 L 48,31 L 48,30 Z" fill="none" stroke="black" stroke-width="1"/>
</svg>