<svg xmlns="http://www.w3.org/2000/svg" width="95" height="50">
  <path d="M 92,19 L 91,20 L 91,22 L 91,21 L 92,20 Z" fill="none" stroke="black" stroke-width="1"/>
  <path d="M 63,4 L 63,7 L 64,8 L 64,9 L 66,11 L 66,12 L 67,13 L 67,14 L 68,15 L 68,16 L 69,17 L 69,23 L 70,24 L 70,25 L 71,26 L 71,27 L 72,28 L 72,33 L 73,34 L 73,35 L 74,35 L 75,36 L 81,36 L 82,35 L 83,35 L 84,34 L 88,34 L 89,33 L 90,33 L 91,32 L 91,31 L 90,30 L 90,29 L 91,28 L 92,28 L 92,27 L 93,26 L 93,25 L 92,25 L 92,27 L 91,28 L 90,27 L 90,26 L 86,22 L 86,21 L 88,19 L 88,14 L 87,13 L 87,7 L 83,7 L 82,8 L 74,8 L 73,7 L 69,7 L 68,6 L 67,6 L 66,5 L 65,5 L 64,4 Z" fill="none" stroke="black" stroke-width="1"/>
</svg>