<svg xmlns="http://www.w3.org/2000/svg" width="95" height="50">
  <path d="M 49,0 L 49,3 L 50,4 L 50,5 L 51,6 L 51,17 L 50,18 L 49,18 L 41,26 L 41,27 L 40,28 L 40,35 L 41,36 L 42,36 L 43,37 L 48,37 L 49,38 L 64,38 L 68,42 L 69,42 L 70,43 L 72,43 L 73,42 L 75,42 L 76,41 L 81,41 L 82,40 L 82,38 L 81,37 L 75,37 L 74,36 L 73,36 L 72,35 L 72,34 L 71,33 L 71,28 L 70,27 L 70,26 L 69,25 L 69,24 L 68,23 L 68,17 L 67,16 L 67,15 L 66,14 L 66,13 L 65,12 L 65,11 L 63,9 L 63,8 L 62,7 L 62,3 L 61,3 L 60,2 L 59,2 L 57,0 Z" fill="none" stroke="black" stroke-width="1"/>
</svg>