<svg xmlns="http://www.w3.org/2000/svg" width="95" height="50">
  <path d="M 48,0 L 47,1 L 45,1 L 44,2 L 42,2 L 41,3 L 40,3 L 39,4 L 38,4 L 37,5 L 36,5 L 34,7 L 32,7 L 32,12 L 31,13 L 31,16 L 30,17 L 30,19 L 28,21 L 28,22 L 25,25 L 25,26 L 18,33 L 17,33 L 16,34 L 15,34 L 13,36 L 11,36 L 9,38 L 8,38 L 7,39 L 6,39 L 5,40 L 4,40 L 2,42 L 1,42 L 0,43 L 0,45 L 23,45 L 24,44 L 29,44 L 30,43 L 34,43 L 35,42 L 37,42 L 39,40 L 40,40 L 42,38 L 42,37 L 41,37 L 39,35 L 39,28 L 40,27 L 40,26 L 49,17 L 50,17 L 50,6 L 49,5 L 49,4 L 48,3 Z" fill="none" stroke="black" stroke-width="1"/>
</svg>