<svg xmlns="http://www.w3.org/2000/svg" width="98" height="68">
  <path d="M 48,0 L 45,3 L 44,3 L 42,5 L 40,5 L 39,6 L 35,6 L 34,7 L 29,7 L 28,8 L 5,8 L 3,10 L 3,20 L 5,22 L 11,22 L 12,23 L 16,23 L 17,24 L 19,24 L 20,25 L 21,25 L 22,26 L 33,26 L 34,27 L 36,27 L 37,28 L 38,27 L 39,27 L 40,26 L 42,26 L 44,24 L 45,24 L 46,23 L 47,23 L 48,22 L 51,22 L 52,21 L 65,21 L 66,20 L 66,19 L 68,17 L 68,16 L 71,13 L 73,13 L 74,12 L 75,12 L 76,11 L 77,11 L 76,10 L 76,6 L 75,6 L 74,5 L 73,5 L 69,1 L 54,1 L 53,0 Z" fill="none" stroke="black" stroke-width="1"/>
</svg>