<svg xmlns="http://www.w3.org/2000/svg" width="98" height="68">
  <path d="M 74,13 L 73,14 L 71,14 L 69,16 L 69,17 L 67,19 L 67,20 L 65,22 L 52,22 L 51,23 L 48,23 L 47,24 L 46,24 L 45,25 L 44,25 L 42,27 L 40,27 L 39,28 L 38,28 L 37,29 L 40,32 L 40,34 L 41,35 L 41,38 L 44,41 L 44,42 L 46,44 L 49,44 L 50,45 L 51,45 L 52,46 L 52,48 L 53,49 L 53,50 L 54,51 L 54,53 L 53,54 L 53,55 L 52,56 L 52,60 L 53,61 L 53,62 L 52,63 L 52,65 L 59,65 L 60,66 L 62,66 L 63,67 L 65,67 L 71,61 L 75,61 L 76,60 L 79,60 L 79,59 L 83,55 L 83,52 L 81,50 L 81,49 L 79,47 L 78,47 L 74,43 L 74,42 L 73,41 L 73,40 L 72,39 L 72,37 L 79,30 L 79,25 L 78,24 L 78,22 L 77,21 L 77,18 L 76,18 L 75,17 L 76,16 L 74,14 Z" fill="none" stroke="black" stroke-width="1"/>
</svg>