<svg xmlns="http://www.w3.org/2000/svg" width="71" height="81">
  <path d="M 42,26 L 41,27 L 40,27 L 37,30 L 34,30 L 33,31 L 30,31 L 29,32 L 27,32 L 26,33 L 25,33 L 24,34 L 23,34 L 22,35 L 19,35 L 18,36 L 17,36 L 15,38 L 15,39 L 13,41 L 13,43 L 14,44 L 15,44 L 17,46 L 17,47 L 18,48 L 19,48 L 22,45 L 24,45 L 27,48 L 29,48 L 30,49 L 31,49 L 32,50 L 33,50 L 34,51 L 35,51 L 37,49 L 37,48 L 40,45 L 41,45 L 42,44 L 43,44 L 41,42 L 41,37 L 42,36 L 42,35 L 44,33 L 44,30 L 45,29 L 45,28 L 46,27 L 46,26 Z" fill="none" stroke="black" stroke-width="1"/>
</svg>