<svg xmlns="http://www.w3.org/2000/svg" width="120" height="112">
  <path d="M 49,9 L 38,20 L 37,20 L 33,24 L 32,24 L 31,25 L 31,26 L 28,29 L 27,29 L 26,30 L 23,30 L 21,32 L 18,32 L 16,34 L 19,37 L 27,37 L 29,39 L 30,39 L 31,40 L 32,40 L 33,41 L 33,42 L 34,42 L 36,44 L 41,44 L 42,45 L 48,45 L 49,46 L 50,46 L 53,49 L 55,49 L 56,50 L 57,50 L 58,51 L 59,51 L 61,53 L 62,53 L 63,54 L 64,54 L 65,55 L 66,55 L 67,56 L 68,56 L 69,55 L 75,55 L 78,52 L 78,50 L 79,49 L 79,46 L 81,44 L 81,43 L 84,40 L 85,40 L 86,39 L 85,39 L 83,37 L 82,37 L 80,35 L 80,34 L 79,33 L 79,32 L 73,26 L 73,25 L 72,24 L 72,23 L 71,23 L 70,22 L 58,22 L 57,21 L 56,21 L 55,20 L 55,17 L 50,12 L 50,11 L 49,10 Z" fill="none" stroke="black" stroke-width="1"/>
</svg>