<svg xmlns="http://www.w3.org/2000/svg" width="113" height="113">
  <path d="M 55,1 L 55,2 L 53,4 L 52,4 L 50,6 L 50,7 L 49,8 L 49,16 L 51,16 L 52,17 L 53,17 L 54,18 L 54,19 L 57,22 L 57,23 L 59,25 L 59,26 L 61,28 L 61,29 L 62,30 L 62,32 L 63,33 L 63,35 L 64,36 L 64,37 L 65,37 L 66,36 L 66,34 L 68,32 L 69,32 L 70,31 L 71,31 L 72,30 L 74,30 L 75,29 L 77,29 L 78,28 L 79,28 L 79,27 L 80,26 L 80,25 L 81,24 L 81,16 L 80,16 L 79,15 L 68,15 L 59,6 L 59,5 L 56,2 L 56,1 Z" fill="none" stroke="black" stroke-width="1"/>
</svg>