<svg xmlns="http://www.w3.org/2000/svg" width="124" height="97">
  <path d="M 46,38 L 46,39 L 44,41 L 44,42 L 43,43 L 43,44 L 42,45 L 42,46 L 39,49 L 39,54 L 41,56 L 41,58 L 47,64 L 47,65 L 48,66 L 50,66 L 52,68 L 53,68 L 54,69 L 74,69 L 75,68 L 76,68 L 77,67 L 78,67 L 79,66 L 79,65 L 80,64 L 80,63 L 81,62 L 81,57 L 80,57 L 79,56 L 78,56 L 77,55 L 76,55 L 75,54 L 74,54 L 73,53 L 72,53 L 71,52 L 70,52 L 69,51 L 68,51 L 67,50 L 66,50 L 64,48 L 63,48 L 62,47 L 61,47 L 60,46 L 59,46 L 58,45 L 57,45 L 55,43 L 54,43 L 51,40 L 50,40 L 49,39 L 48,39 L 47,38 Z" fill="none" stroke="black" stroke-width="1"/>
</svg>