<svg xmlns="http://www.w3.org/2000/svg" width="124" height="97">
  <path d="M 7,0 L 6,1 L 3,1 L 2,2 L 1,2 L 0,3 L 3,6 L 3,8 L 4,9 L 4,20 L 5,21 L 5,28 L 6,29 L 6,30 L 7,31 L 7,32 L 8,32 L 9,33 L 9,35 L 10,36 L 10,37 L 11,38 L 11,39 L 12,40 L 12,42 L 13,43 L 13,44 L 14,44 L 15,45 L 21,45 L 22,46 L 26,46 L 28,48 L 32,48 L 33,49 L 37,49 L 38,50 L 38,49 L 41,46 L 41,45 L 42,44 L 42,43 L 43,42 L 43,41 L 45,39 L 45,37 L 41,33 L 40,33 L 37,30 L 36,30 L 35,29 L 34,29 L 32,27 L 30,27 L 24,21 L 24,20 L 23,19 L 23,18 L 20,15 L 20,14 L 19,13 L 19,12 L 16,9 L 16,8 L 15,7 L 15,6 L 13,4 L 13,3 L 10,0 Z" fill="none" stroke="black" stroke-width="1"/>
</svg>