<svg xmlns="http://www.w3.org/2000/svg" width="221" height="219">
  <path d="M 35,97 L 33,99 L 33,100 L 34,100 L 35,99 Z" fill="none" stroke="black" stroke-width="1"/>
  <path d="M 102,85 L 101,86 L 100,86 L 99,87 L 94,87 L 92,89 L 89,89 L 88,88 L 86,88 L 85,87 L 84,88 L 82,88 L 82,89 L 81,90 L 81,91 L 80,92 L 79,92 L 78,93 L 71,93 L 67,97 L 65,97 L 64,98 L 59,98 L 58,97 L 56,97 L 55,98 L 53,98 L 52,97 L 51,97 L 48,100 L 47,100 L 46,101 L 45,101 L 43,103 L 41,103 L 41,104 L 39,106 L 38,106 L 37,107 L 37,108 L 36,109 L 35,109 L 34,110 L 33,110 L 32,111 L 30,111 L 29,112 L 28,112 L 26,114 L 25,114 L 24,115 L 24,116 L 23,117 L 23,118 L 22,119 L 22,120 L 21,121 L 21,122 L 20,123 L 19,123 L 18,124 L 17,124 L 16,123 L 16,115 L 14,117 L 14,120 L 12,122 L 12,123 L 11,124 L 11,126 L 12,127 L 12,128 L 13,129 L 13,131 L 15,131 L 16,132 L 17,132 L 18,133 L 18,134 L 19,135 L 19,136 L 20,137 L 20,139 L 21,140 L 22,140 L 23,141 L 28,141 L 34,147 L 35,147 L 37,149 L 37,147 L 39,145 L 45,145 L 47,147 L 48,147 L 49,148 L 50,148 L 51,149 L 56,149 L 57,148 L 58,148 L 59,147 L 59,146 L 62,143 L 66,143 L 67,142 L 71,142 L 72,143 L 73,143 L 78,138 L 79,138 L 80,137 L 83,137 L 84,136 L 89,136 L 90,135 L 91,135 L 94,132 L 103,132 L 104,131 L 107,131 L 108,130 L 109,130 L 110,129 L 111,129 L 112,128 L 116,128 L 117,129 L 124,129 L 126,127 L 127,127 L 128,126 L 130,126 L 131,125 L 134,125 L 135,124 L 135,117 L 134,116 L 134,111 L 133,110 L 133,107 L 132,106 L 132,103 L 131,102 L 131,101 L 127,97 L 120,97 L 119,96 L 115,96 L 114,95 L 113,95 L 112,94 L 109,94 L 108,93 L 108,92 L 107,92 L 104,89 L 104,85 Z" fill="none" stroke="black" stroke-width="1"/>
</svg>