<svg xmlns="http://www.w3.org/2000/svg" width="221" height="219">
  <path d="M 176,50 L 175,51 L 171,51 L 170,52 L 168,52 L 167,53 L 164,53 L 163,54 L 161,54 L 160,55 L 154,55 L 153,56 L 151,56 L 150,57 L 147,57 L 146,58 L 142,58 L 141,59 L 129,59 L 129,60 L 124,65 L 123,65 L 122,66 L 121,66 L 120,67 L 120,69 L 119,70 L 119,71 L 118,72 L 118,73 L 117,74 L 117,75 L 113,79 L 113,80 L 111,82 L 110,82 L 109,83 L 108,83 L 107,84 L 105,84 L 105,89 L 107,91 L 108,91 L 109,92 L 109,93 L 112,93 L 113,94 L 114,94 L 115,95 L 119,95 L 120,96 L 127,96 L 132,101 L 132,102 L 133,103 L 133,106 L 134,107 L 134,110 L 135,111 L 135,116 L 136,117 L 136,124 L 137,124 L 145,116 L 145,115 L 147,113 L 148,113 L 152,109 L 156,109 L 157,108 L 159,108 L 160,107 L 166,107 L 167,106 L 168,106 L 170,104 L 171,104 L 173,102 L 174,102 L 183,93 L 183,91 L 184,90 L 184,88 L 185,87 L 185,85 L 186,84 L 186,83 L 187,82 L 187,81 L 188,80 L 188,76 L 189,75 L 189,73 L 190,72 L 190,67 L 187,64 L 186,64 L 185,63 L 186,62 L 186,61 L 185,60 L 185,59 L 186,58 L 186,57 L 187,56 L 188,56 L 189,55 L 189,52 L 188,51 L 180,51 L 179,50 Z" fill="none" stroke="black" stroke-width="1"/>
</svg>