<svg xmlns="http://www.w3.org/2000/svg" width="221" height="219">
  <path d="M 166,9 L 165,10 L 165,11 L 166,11 Z" fill="none" stroke="black" stroke-width="1"/>
  <path d="M 188,0 L 188,3 L 185,6 L 184,6 L 182,4 L 182,5 L 181,6 L 180,6 L 179,5 L 179,3 L 180,2 L 179,2 L 178,1 L 178,2 L 179,3 L 179,6 L 178,7 L 178,9 L 177,10 L 177,11 L 176,12 L 175,11 L 175,9 L 173,9 L 172,8 L 173,7 L 172,7 L 172,10 L 171,11 L 168,11 L 168,12 L 167,13 L 166,13 L 166,14 L 167,15 L 167,16 L 168,16 L 169,17 L 169,18 L 170,19 L 169,20 L 168,20 L 167,19 L 167,18 L 166,18 L 165,19 L 164,18 L 164,17 L 164,18 L 163,19 L 162,19 L 163,20 L 164,20 L 165,21 L 165,23 L 164,24 L 163,23 L 163,22 L 162,22 L 161,21 L 160,21 L 159,20 L 159,21 L 158,22 L 157,21 L 157,20 L 157,22 L 158,22 L 159,23 L 158,24 L 157,24 L 156,25 L 156,29 L 157,29 L 157,28 L 158,27 L 159,27 L 160,28 L 159,29 L 159,30 L 158,31 L 158,32 L 157,33 L 156,33 L 156,35 L 159,35 L 160,36 L 162,36 L 163,37 L 162,38 L 159,38 L 158,37 L 153,37 L 152,36 L 152,35 L 151,34 L 150,34 L 150,35 L 149,36 L 147,36 L 146,35 L 146,34 L 147,33 L 145,33 L 145,35 L 146,35 L 147,36 L 146,37 L 146,38 L 145,39 L 145,40 L 147,42 L 147,43 L 148,43 L 149,44 L 148,45 L 150,47 L 150,48 L 149,49 L 146,46 L 145,46 L 145,51 L 144,52 L 141,49 L 141,48 L 140,47 L 140,46 L 138,44 L 138,43 L 137,42 L 137,40 L 136,39 L 136,38 L 137,37 L 136,37 L 136,38 L 135,39 L 134,39 L 133,40 L 134,41 L 133,42 L 132,42 L 131,43 L 132,44 L 131,45 L 129,45 L 128,46 L 127,46 L 126,47 L 126,57 L 127,58 L 141,58 L 142,57 L 146,57 L 147,56 L 150,56 L 151,55 L 153,55 L 154,54 L 160,54 L 161,53 L 163,53 L 164,52 L 167,52 L 168,51 L 170,51 L 171,50 L 175,50 L 176,49 L 179,49 L 180,50 L 187,50 L 188,49 L 188,48 L 190,46 L 191,46 L 194,43 L 194,42 L 196,40 L 196,39 L 200,35 L 201,35 L 207,29 L 208,29 L 210,27 L 212,27 L 213,26 L 216,26 L 217,25 L 218,25 L 219,24 L 219,18 L 220,17 L 218,15 L 215,15 L 214,14 L 209,14 L 210,15 L 210,17 L 209,18 L 208,17 L 207,18 L 208,19 L 208,20 L 207,21 L 204,18 L 205,17 L 205,15 L 206,14 L 206,13 L 204,11 L 203,11 L 201,9 L 201,7 L 199,5 L 198,5 L 196,3 L 196,2 L 195,1 L 193,1 L 192,2 L 190,0 Z" fill="none" stroke="black" stroke-width="1"/>
</svg>