<svg xmlns="http://www.w3.org/2000/svg" width="57" height="51">
  <path d="M 51,15 L 50,16 L 46,16 L 46,17 L 45,18 L 44,17 L 43,18 L 42,18 L 41,17 L 40,17 L 38,19 L 38,30 L 39,31 L 39,32 L 40,32 L 43,35 L 44,35 L 45,36 L 46,36 L 47,37 L 48,37 L 50,39 L 52,39 L 52,38 L 51,38 L 50,37 L 50,34 L 51,33 L 51,31 L 53,29 L 53,26 L 54,25 L 53,24 L 53,22 L 54,21 L 53,20 L 53,19 L 54,18 L 54,17 L 53,16 L 53,15 Z" fill="none" stroke="black" stroke-width="1"/>
  <path d="M 51,9 L 50,10 L 54,10 L 55,11 L 56,10 L 55,9 Z" fill="none" stroke="black" stroke-width="1"/>
  <path d="M 49,0 L 48,1 L 48,2 L 50,4 L 50,5 L 51,6 L 51,7 L 54,7 L 54,6 L 53,5 L 53,3 L 52,3 L 50,1 L 50,0 Z" fill="none" stroke="black" stroke-width="1"/>
</svg>