<svg xmlns="http://www.w3.org/2000/svg" width="57" height="51">
  <path d="M 18,14 L 17,15 L 17,20 L 19,22 L 19,23 L 20,24 L 20,26 L 22,28 L 22,29 L 23,30 L 23,31 L 25,33 L 24,34 L 22,34 L 23,35 L 23,37 L 24,38 L 24,39 L 25,39 L 26,40 L 26,42 L 27,43 L 28,43 L 32,39 L 33,39 L 36,36 L 36,35 L 37,34 L 37,20 L 31,20 L 29,18 L 28,18 L 26,16 L 24,16 L 23,15 L 20,15 L 19,14 Z" fill="none" stroke="black" stroke-width="1"/>
  <path d="M 1,3 L 1,4 L 0,5 L 0,11 L 1,11 L 3,9 L 3,4 L 2,3 Z" fill="none" stroke="black" stroke-width="1"/>
</svg>