<svg xmlns="http://www.w3.org/2000/svg" width="55" height="51">
  <path d="M 37,3 L 35,5 L 25,5 L 25,7 L 23,9 L 23,10 L 18,15 L 18,16 L 17,17 L 17,18 L 16,19 L 16,20 L 17,21 L 17,22 L 18,23 L 18,24 L 19,25 L 19,26 L 21,26 L 22,27 L 24,27 L 28,23 L 30,23 L 31,22 L 32,22 L 33,21 L 34,21 L 36,19 L 37,19 L 38,18 L 39,18 L 40,17 L 41,17 L 43,15 L 45,15 L 47,13 L 48,13 L 48,12 L 50,10 L 50,9 L 54,5 L 54,4 L 51,4 L 50,5 L 44,5 L 43,4 L 40,4 L 39,3 Z" fill="none" stroke="black" stroke-width="1"/>
</svg>