<svg xmlns="http://www.w3.org/2000/svg" width="61" height="50">
  <path d="M 53,0 L 53,1 L 52,2 L 51,2 L 50,1 L 48,1 L 47,2 L 46,2 L 45,1 L 39,1 L 37,3 L 36,3 L 36,4 L 32,8 L 32,9 L 30,11 L 30,12 L 29,13 L 28,13 L 26,15 L 26,17 L 27,17 L 28,16 L 30,16 L 31,15 L 32,15 L 33,14 L 34,15 L 40,15 L 42,17 L 46,17 L 47,18 L 50,18 L 51,19 L 51,20 L 52,21 L 55,18 L 55,16 L 56,15 L 56,14 L 58,12 L 58,11 L 59,10 L 59,6 L 60,5 L 60,2 L 59,1 L 56,1 L 55,0 Z" fill="none" stroke="black" stroke-width="1"/>
</svg>