<svg xmlns="http://www.w3.org/2000/svg" width="62" height="96">
  <path d="M 44,63 L 43,64 L 42,64 L 41,65 L 38,65 L 37,66 L 33,66 L 32,67 L 31,67 L 31,68 L 30,69 L 29,69 L 27,67 L 25,69 L 24,69 L 23,70 L 22,70 L 22,74 L 21,75 L 21,76 L 20,77 L 20,80 L 22,82 L 22,83 L 24,85 L 24,86 L 25,86 L 26,87 L 26,88 L 33,95 L 35,95 L 35,94 L 36,93 L 37,93 L 37,92 L 38,91 L 38,89 L 44,83 L 44,80 L 43,79 L 43,77 L 44,76 L 45,76 L 45,75 L 44,74 L 44,69 L 45,68 L 45,66 L 46,65 L 46,63 Z" fill="none" stroke="black" stroke-width="1"/>
</svg>