<svg xmlns="http://www.w3.org/2000/svg" width="100" height="70">
  <path d="M 35,20 L 34,21 L 33,21 L 32,22 L 31,22 L 30,23 L 30,24 L 26,28 L 25,28 L 23,30 L 22,30 L 20,32 L 20,33 L 21,32 L 24,32 L 25,31 L 29,31 L 30,32 L 31,31 L 34,31 L 35,32 L 37,32 L 38,31 L 48,31 L 49,32 L 61,32 L 63,30 L 64,30 L 65,29 L 65,28 L 66,27 L 67,27 L 67,24 L 66,23 L 65,24 L 64,24 L 62,26 L 61,26 L 60,27 L 59,27 L 58,28 L 55,25 L 54,25 L 53,24 L 49,24 L 48,25 L 46,25 L 45,24 L 44,24 L 42,22 L 41,22 L 39,24 Z" fill="none" stroke="black" stroke-width="1"/>
</svg>