<svg xmlns="http://www.w3.org/2000/svg" width="77" height="48">
  <path d="M 70,25 L 69,26 L 67,26 L 66,27 L 64,27 L 63,28 L 63,29 L 61,31 L 60,31 L 58,33 L 57,33 L 56,34 L 55,34 L 54,35 L 45,35 L 43,37 L 43,40 L 44,40 L 45,41 L 46,41 L 48,43 L 48,47 L 50,47 L 51,46 L 53,46 L 54,45 L 55,45 L 55,44 L 56,43 L 57,43 L 58,42 L 58,41 L 59,40 L 61,40 L 64,37 L 65,37 L 68,34 L 69,34 L 71,32 L 74,32 L 74,31 L 75,30 L 76,30 L 76,29 L 75,28 L 75,27 L 74,27 L 73,26 L 72,26 L 71,25 Z" fill="none" stroke="black" stroke-width="1"/>
</svg>