<svg xmlns="http://www.w3.org/2000/svg" width="62" height="65">
  <path d="M 42,35 L 41,36 L 40,36 L 39,37 L 38,37 L 37,38 L 36,38 L 35,37 L 33,39 L 32,39 L 32,40 L 29,43 L 26,43 L 25,44 L 24,44 L 24,45 L 23,46 L 23,47 L 25,47 L 26,48 L 26,51 L 27,52 L 27,53 L 28,54 L 28,55 L 29,56 L 32,56 L 33,55 L 34,55 L 35,54 L 39,54 L 40,53 L 41,53 L 46,48 L 48,48 L 49,47 L 50,47 L 52,45 L 52,43 L 51,42 L 51,39 L 50,39 L 49,38 L 47,38 L 46,37 L 45,37 L 43,35 Z" fill="none" stroke="black" stroke-width="1"/>
</svg>