<svg xmlns="http://www.w3.org/2000/svg" width="49" height="45">
  <path d="M 15,0 L 14,1 L 13,1 L 12,2 L 11,2 L 9,4 L 8,4 L 6,6 L 4,6 L 4,7 L 3,8 L 3,9 L 1,11 L 1,13 L 0,14 L 2,16 L 2,23 L 5,26 L 5,27 L 6,26 L 10,26 L 11,25 L 13,25 L 14,24 L 15,24 L 16,23 L 17,23 L 19,21 L 20,21 L 20,19 L 21,18 L 23,18 L 24,17 L 24,16 L 25,15 L 26,15 L 26,14 L 27,13 L 30,13 L 30,12 L 29,11 L 30,10 L 30,9 L 28,7 L 27,7 L 24,4 L 21,4 L 20,3 L 19,3 L 18,2 L 18,1 L 17,0 Z" fill="none" stroke="black" stroke-width="1"/>
</svg>