<svg xmlns="http://www.w3.org/2000/svg" width="77" height="48">
  <path d="M 7,0 L 6,1 L 6,2 L 5,3 L 5,7 L 3,9 L 3,10 L 2,11 L 2,12 L 1,13 L 0,13 L 1,14 L 1,16 L 0,17 L 2,19 L 3,19 L 4,20 L 8,20 L 9,21 L 10,21 L 11,20 L 15,20 L 17,22 L 18,22 L 19,23 L 22,23 L 23,24 L 25,24 L 27,26 L 28,26 L 28,23 L 30,21 L 31,21 L 32,20 L 33,20 L 33,19 L 34,18 L 34,17 L 35,16 L 35,14 L 34,14 L 33,13 L 32,13 L 31,12 L 31,11 L 30,11 L 28,9 L 18,9 L 17,8 L 16,8 L 15,7 L 13,7 L 7,1 Z" fill="none" stroke="black" stroke-width="1"/>
</svg>