<svg xmlns="http://www.w3.org/2000/svg" width="80" height="76">
  <path d="M 40,0 L 39,1 L 34,1 L 33,2 L 32,2 L 31,3 L 29,3 L 28,4 L 28,9 L 27,10 L 27,12 L 28,12 L 29,11 L 33,11 L 34,12 L 36,12 L 37,13 L 38,13 L 39,14 L 40,14 L 41,15 L 43,15 L 45,17 L 45,19 L 46,20 L 47,20 L 48,21 L 48,23 L 50,23 L 55,28 L 55,32 L 57,34 L 61,34 L 61,30 L 63,28 L 63,27 L 65,25 L 66,25 L 68,23 L 67,22 L 66,22 L 64,20 L 64,19 L 63,18 L 63,16 L 64,15 L 61,15 L 60,14 L 60,12 L 50,2 L 48,2 L 47,1 L 44,1 L 43,0 Z" fill="none" stroke="black" stroke-width="1"/>
</svg>