<svg xmlns="http://www.w3.org/2000/svg" width="255" height="360">
  <path d="M 155,355 L 155,356 L 156,356 L 158,358 L 158,359 L 159,359 L 159,357 L 158,357 L 156,355 Z" fill="none" stroke="black" stroke-width="1"/>
  <path d="M 144,354 L 144,355 L 147,358 L 148,358 L 149,359 L 150,359 L 148,357 L 147,357 Z" fill="none" stroke="black" stroke-width="1"/>
  <path d="M 127,347 L 127,348 L 126,349 L 126,350 L 127,351 L 127,353 L 128,354 L 129,354 L 130,353 L 131,353 L 132,354 L 137,354 L 140,351 L 139,351 L 135,347 Z" fill="none" stroke="black" stroke-width="1"/>
</svg>