<svg xmlns="http://www.w3.org/2000/svg" width="93" height="96">
  <path d="M 4,46 L 4,50 L 5,51 L 5,53 L 6,54 L 6,62 L 7,63 L 7,68 L 8,69 L 8,70 L 9,71 L 9,77 L 10,78 L 10,80 L 11,81 L 11,82 L 12,83 L 12,87 L 11,88 L 11,89 L 13,91 L 16,91 L 17,90 L 20,90 L 21,91 L 25,91 L 27,93 L 27,94 L 27,93 L 28,92 L 30,92 L 30,91 L 32,89 L 33,89 L 33,87 L 34,86 L 34,85 L 35,84 L 35,83 L 36,82 L 37,82 L 38,81 L 42,81 L 43,80 L 42,79 L 42,76 L 41,75 L 41,74 L 39,72 L 38,72 L 37,71 L 36,71 L 32,67 L 32,66 L 31,65 L 31,60 L 30,59 L 29,59 L 28,58 L 27,58 L 26,57 L 24,57 L 22,55 L 22,54 L 23,53 L 24,53 L 24,52 L 23,52 L 22,51 L 21,51 L 20,50 L 20,49 L 19,48 L 18,48 L 17,47 L 17,46 L 11,46 L 11,47 L 10,48 L 9,47 L 6,47 L 5,46 Z" fill="none" stroke="black" stroke-width="1"/>
</svg>