<svg xmlns="http://www.w3.org/2000/svg" width="150" height="72">
  <path d="M 142,8 L 141,9 L 129,9 L 128,10 L 126,10 L 125,9 L 116,9 L 115,10 L 114,10 L 112,12 L 107,12 L 106,11 L 105,11 L 104,10 L 104,9 L 103,9 L 101,11 L 101,14 L 104,17 L 103,18 L 103,20 L 105,22 L 104,23 L 104,24 L 103,25 L 102,25 L 101,26 L 100,26 L 99,27 L 99,29 L 101,31 L 101,33 L 100,34 L 100,35 L 102,37 L 102,38 L 103,39 L 103,40 L 104,41 L 102,43 L 102,46 L 101,47 L 101,48 L 100,49 L 100,50 L 98,52 L 98,55 L 97,56 L 97,59 L 96,60 L 96,62 L 97,61 L 99,61 L 100,62 L 103,62 L 103,56 L 104,55 L 104,53 L 105,52 L 106,52 L 108,54 L 108,53 L 113,48 L 113,47 L 112,46 L 114,44 L 114,43 L 115,42 L 115,41 L 117,39 L 119,39 L 119,36 L 118,35 L 118,34 L 119,33 L 119,32 L 121,30 L 122,30 L 123,31 L 124,31 L 125,32 L 127,32 L 129,30 L 131,30 L 134,27 L 135,27 L 137,25 L 138,25 L 139,24 L 139,22 L 140,21 L 140,19 L 145,14 L 146,14 L 148,12 L 149,12 L 149,10 L 148,10 L 147,9 L 147,8 Z" fill="none" stroke="black" stroke-width="1"/>
</svg>