<svg xmlns="http://www.w3.org/2000/svg" width="63" height="74">
  <path d="M 53,2 L 53,3 L 52,4 L 51,4 L 50,5 L 42,5 L 41,6 L 38,6 L 37,5 L 35,5 L 34,4 L 33,4 L 32,3 L 32,4 L 31,5 L 31,6 L 34,9 L 34,17 L 33,18 L 34,19 L 34,22 L 35,23 L 35,26 L 37,28 L 40,28 L 41,29 L 45,29 L 47,31 L 47,33 L 48,33 L 50,31 L 51,31 L 53,29 L 54,29 L 57,26 L 58,26 L 60,24 L 61,24 L 62,25 L 62,26 L 62,25 L 61,24 L 61,19 L 62,18 L 62,17 L 61,16 L 61,15 L 59,13 L 59,11 L 58,10 L 58,9 L 57,8 L 57,7 L 56,6 L 56,2 Z" fill="none" stroke="black" stroke-width="1"/>
</svg>