<svg xmlns="http://www.w3.org/2000/svg" width="47" height="81">
  <path d="M 24,37 L 23,38 L 21,38 L 19,40 L 11,40 L 10,41 L 10,42 L 9,43 L 9,44 L 8,45 L 7,45 L 4,48 L 3,48 L 2,49 L 2,52 L 0,54 L 0,58 L 1,58 L 2,59 L 2,61 L 4,63 L 6,63 L 8,65 L 9,65 L 10,66 L 10,67 L 11,67 L 13,69 L 13,73 L 14,73 L 15,72 L 15,70 L 17,68 L 17,67 L 19,65 L 19,64 L 20,63 L 20,62 L 21,61 L 21,60 L 22,59 L 22,58 L 23,57 L 23,56 L 24,55 L 24,50 L 25,49 L 25,48 L 26,47 L 26,45 L 27,44 L 27,42 L 26,41 L 26,39 L 25,38 L 25,37 Z" fill="none" stroke="black" stroke-width="1"/>
</svg>