<svg xmlns="http://www.w3.org/2000/svg" width="95" height="58">
  <path d="M 83,11 L 82,12 L 81,12 L 78,15 L 77,15 L 76,16 L 74,16 L 73,17 L 72,17 L 71,18 L 68,18 L 67,19 L 65,19 L 64,20 L 63,20 L 60,23 L 60,26 L 62,28 L 62,29 L 63,30 L 65,30 L 69,34 L 69,35 L 71,37 L 71,38 L 72,39 L 72,41 L 73,42 L 73,44 L 74,45 L 74,46 L 75,47 L 75,48 L 77,48 L 78,47 L 80,47 L 80,45 L 81,44 L 81,43 L 82,42 L 82,40 L 80,38 L 80,35 L 83,32 L 85,32 L 86,31 L 90,31 L 90,29 L 91,28 L 92,28 L 92,26 L 93,25 L 94,25 L 94,21 L 93,20 L 93,19 L 92,18 L 92,15 L 90,13 L 89,13 L 88,12 L 87,12 L 86,11 Z" fill="none" stroke="black" stroke-width="1"/>
</svg>