<svg xmlns="http://www.w3.org/2000/svg" width="105" height="94">
  <path d="M 35,3 L 35,6 L 36,7 L 36,16 L 38,18 L 38,19 L 39,20 L 39,21 L 42,24 L 42,25 L 46,29 L 46,30 L 48,32 L 49,32 L 50,33 L 50,34 L 52,36 L 54,36 L 55,35 L 57,35 L 58,34 L 59,34 L 60,33 L 61,33 L 62,32 L 64,32 L 64,29 L 67,26 L 67,24 L 68,23 L 68,21 L 69,20 L 69,16 L 68,15 L 68,13 L 67,12 L 67,10 L 65,10 L 63,8 L 63,7 L 62,6 L 61,7 L 53,7 L 51,5 L 46,5 L 46,6 L 45,7 L 44,7 L 42,5 L 40,5 L 39,4 L 39,3 Z" fill="none" stroke="black" stroke-width="1"/>
</svg>