<svg xmlns="http://www.w3.org/2000/svg" width="70" height="70">
  <path d="M 8,24 L 7,25 L 3,25 L 3,26 L 4,27 L 4,30 L 3,31 L 3,32 L 5,34 L 5,35 L 4,36 L 4,38 L 3,39 L 3,40 L 2,41 L 2,43 L 3,44 L 3,47 L 1,49 L 1,54 L 0,55 L 0,58 L 1,57 L 1,56 L 2,55 L 6,55 L 7,54 L 7,52 L 8,51 L 9,51 L 10,50 L 11,50 L 12,49 L 13,49 L 15,47 L 17,47 L 18,46 L 25,46 L 26,47 L 30,47 L 30,44 L 31,43 L 32,43 L 33,42 L 33,37 L 37,33 L 38,33 L 38,32 L 39,31 L 40,31 L 41,30 L 38,27 L 36,27 L 35,26 L 35,25 L 30,25 L 28,27 L 23,27 L 22,26 L 17,26 L 15,24 Z" fill="none" stroke="black" stroke-width="1"/>
</svg>