<svg xmlns="http://www.w3.org/2000/svg" width="107" height="59">
  <path d="M 75,4 L 72,7 L 72,8 L 71,9 L 71,11 L 69,13 L 66,13 L 65,14 L 65,16 L 63,18 L 63,19 L 61,21 L 61,22 L 58,25 L 59,26 L 59,27 L 62,30 L 63,30 L 64,31 L 66,31 L 69,34 L 70,34 L 71,35 L 77,35 L 78,36 L 79,35 L 82,35 L 83,34 L 86,34 L 87,33 L 96,33 L 97,34 L 98,34 L 101,37 L 102,37 L 105,34 L 105,33 L 106,32 L 105,31 L 105,30 L 106,29 L 105,28 L 105,26 L 104,25 L 104,24 L 103,23 L 103,20 L 102,19 L 102,17 L 101,16 L 101,13 L 100,13 L 99,12 L 98,12 L 94,8 L 93,8 L 92,7 L 87,7 L 85,5 L 83,5 L 82,4 Z" fill="none" stroke="black" stroke-width="1"/>
</svg>