<svg xmlns="http://www.w3.org/2000/svg" width="119" height="71">
  <path d="M 36,0 L 36,1 L 35,2 L 35,3 L 29,9 L 28,9 L 27,10 L 26,10 L 24,12 L 22,12 L 20,14 L 20,18 L 22,18 L 23,19 L 24,19 L 27,22 L 28,22 L 29,23 L 30,23 L 31,24 L 32,24 L 35,27 L 36,27 L 37,28 L 37,29 L 38,30 L 38,31 L 39,32 L 39,33 L 40,34 L 40,37 L 43,40 L 43,38 L 46,35 L 48,35 L 49,34 L 50,34 L 51,33 L 52,33 L 52,32 L 53,31 L 56,31 L 56,28 L 59,25 L 60,25 L 63,22 L 63,21 L 67,17 L 68,17 L 69,16 L 71,16 L 71,13 L 70,13 L 68,11 L 60,11 L 59,10 L 58,10 L 57,9 L 51,9 L 50,8 L 50,6 L 49,6 L 48,5 L 39,5 L 38,4 L 38,2 L 37,2 L 36,1 Z" fill="none" stroke="black" stroke-width="1"/>
</svg>