<svg xmlns="http://www.w3.org/2000/svg" width="119" height="71">
  <path d="M 53,32 L 53,33 L 52,34 L 51,34 L 50,35 L 49,35 L 48,36 L 46,36 L 44,38 L 44,44 L 45,45 L 45,46 L 49,50 L 49,51 L 50,52 L 50,54 L 49,55 L 50,56 L 50,57 L 49,58 L 49,59 L 48,60 L 48,62 L 50,62 L 52,64 L 53,64 L 54,63 L 60,63 L 61,64 L 62,64 L 63,63 L 65,63 L 69,59 L 70,59 L 73,56 L 76,56 L 77,55 L 80,55 L 81,54 L 81,53 L 80,52 L 80,50 L 81,49 L 81,45 L 86,40 L 86,39 L 85,39 L 84,38 L 84,37 L 74,37 L 73,36 L 69,36 L 68,35 L 65,35 L 64,34 L 62,34 L 61,33 L 57,33 L 56,32 Z" fill="none" stroke="black" stroke-width="1"/>
</svg>