<svg xmlns="http://www.w3.org/2000/svg" width="102" height="95">
  <path d="M 88,0 L 87,1 L 85,1 L 84,2 L 83,2 L 82,3 L 77,3 L 76,4 L 75,4 L 71,8 L 71,9 L 66,14 L 66,15 L 71,15 L 72,14 L 74,16 L 77,16 L 78,17 L 79,17 L 80,18 L 81,18 L 83,20 L 83,21 L 84,22 L 84,24 L 86,24 L 87,23 L 87,21 L 88,20 L 90,20 L 91,19 L 92,19 L 94,17 L 94,13 L 95,12 L 95,11 L 96,10 L 97,10 L 97,9 L 100,6 L 100,5 L 101,4 L 99,2 L 96,2 L 95,1 L 95,0 L 92,0 L 91,1 L 89,1 Z" fill="none" stroke="black" stroke-width="1"/>
</svg>