<svg xmlns="http://www.w3.org/2000/svg" width="93" height="40">
  <path d="M 51,16 L 47,20 L 46,20 L 46,21 L 44,23 L 43,23 L 42,24 L 40,24 L 39,25 L 38,25 L 35,28 L 34,28 L 33,29 L 31,29 L 31,32 L 30,33 L 30,34 L 31,35 L 32,35 L 33,36 L 34,36 L 35,35 L 36,35 L 37,34 L 40,34 L 41,33 L 46,33 L 47,34 L 51,34 L 52,35 L 55,35 L 57,33 L 60,33 L 63,30 L 64,30 L 66,28 L 67,28 L 67,26 L 66,26 L 65,25 L 65,24 L 64,24 L 60,20 L 60,19 L 59,19 L 58,18 L 55,18 L 54,17 L 53,17 L 52,16 Z" fill="none" stroke="black" stroke-width="1"/>
</svg>