<svg xmlns="http://www.w3.org/2000/svg" width="103" height="72">
  <path d="M 86,29 L 85,30 L 84,30 L 83,31 L 81,31 L 80,32 L 78,32 L 77,33 L 75,33 L 72,36 L 72,38 L 68,42 L 68,43 L 66,45 L 66,55 L 67,56 L 67,57 L 65,59 L 65,62 L 67,64 L 68,64 L 69,65 L 71,65 L 73,63 L 80,63 L 81,64 L 83,64 L 85,66 L 90,66 L 91,67 L 92,67 L 96,71 L 97,71 L 97,67 L 98,66 L 98,65 L 99,64 L 98,63 L 98,61 L 102,57 L 102,53 L 101,52 L 101,45 L 102,44 L 102,42 L 101,41 L 101,40 L 100,39 L 100,36 L 99,35 L 99,34 L 98,33 L 98,32 L 96,30 L 96,29 L 90,29 L 89,30 L 87,30 Z" fill="none" stroke="black" stroke-width="1"/>
</svg>