<svg xmlns="http://www.w3.org/2000/svg" width="120" height="62">
  <path d="M 87,24 L 86,25 L 85,25 L 84,26 L 83,26 L 81,28 L 80,28 L 79,29 L 78,29 L 79,30 L 77,32 L 77,33 L 76,34 L 76,35 L 75,36 L 75,38 L 76,39 L 76,41 L 73,44 L 72,44 L 71,45 L 70,45 L 69,46 L 68,46 L 67,47 L 65,47 L 64,48 L 64,50 L 62,52 L 62,53 L 61,54 L 61,55 L 60,56 L 61,56 L 62,57 L 63,57 L 65,59 L 72,59 L 73,58 L 88,58 L 89,59 L 93,59 L 94,60 L 95,60 L 96,61 L 98,61 L 99,60 L 101,60 L 102,59 L 102,57 L 103,56 L 103,54 L 104,53 L 104,52 L 103,51 L 103,45 L 102,44 L 102,43 L 99,40 L 99,39 L 96,36 L 96,34 L 95,33 L 95,32 L 94,31 L 94,29 L 93,28 L 93,27 L 90,24 Z" fill="none" stroke="black" stroke-width="1"/>
</svg>