<svg xmlns="http://www.w3.org/2000/svg" width="114" height="69">
  <path d="M 66,36 L 65,37 L 59,37 L 58,38 L 56,38 L 50,44 L 49,44 L 48,45 L 44,45 L 43,46 L 46,49 L 46,54 L 47,55 L 47,56 L 48,57 L 48,59 L 49,60 L 60,60 L 61,61 L 69,61 L 70,60 L 72,60 L 73,61 L 74,61 L 75,62 L 77,62 L 78,61 L 80,61 L 82,63 L 83,63 L 85,65 L 85,67 L 86,67 L 87,66 L 92,66 L 93,65 L 99,65 L 100,66 L 102,66 L 103,67 L 104,67 L 105,68 L 108,68 L 108,64 L 106,62 L 105,62 L 101,58 L 100,58 L 99,57 L 96,57 L 95,56 L 94,56 L 93,55 L 93,54 L 92,54 L 88,50 L 88,49 L 85,46 L 85,45 L 84,44 L 83,44 L 82,43 L 81,43 L 79,41 L 78,41 L 76,39 L 75,39 L 73,37 L 72,37 L 71,36 Z" fill="none" stroke="black" stroke-width="1"/>
</svg>