<svg xmlns="http://www.w3.org/2000/svg" width="110" height="79">
  <path d="M 3,20 L 2,21 L 2,24 L 3,25 L 3,26 L 4,27 L 4,31 L 5,32 L 5,35 L 3,37 L 3,39 L 2,40 L 2,41 L 1,42 L 1,44 L 0,45 L 0,48 L 2,50 L 2,58 L 3,59 L 3,60 L 4,61 L 4,62 L 5,63 L 5,68 L 10,73 L 10,72 L 11,71 L 14,71 L 15,70 L 19,70 L 20,69 L 31,69 L 32,68 L 34,68 L 35,67 L 36,67 L 37,66 L 41,66 L 42,65 L 42,60 L 43,59 L 42,58 L 42,56 L 39,53 L 39,52 L 38,51 L 38,48 L 39,47 L 37,45 L 37,41 L 36,41 L 33,38 L 33,37 L 32,36 L 31,36 L 30,35 L 29,35 L 27,33 L 27,31 L 24,28 L 22,28 L 21,27 L 19,27 L 18,26 L 16,26 L 15,25 L 14,25 L 13,24 L 12,24 L 11,23 L 10,23 L 8,21 L 7,21 L 6,20 Z" fill="none" stroke="black" stroke-width="1"/>
</svg>