<svg xmlns="http://www.w3.org/2000/svg" width="177" height="132">
  <path d="M 20,84 L 18,86 L 17,86 L 16,87 L 15,86 L 14,87 L 14,88 L 15,89 L 14,90 L 14,95 L 15,96 L 15,97 L 16,98 L 16,99 L 15,100 L 15,103 L 14,104 L 14,107 L 13,108 L 13,109 L 12,110 L 12,112 L 11,113 L 11,115 L 10,116 L 10,118 L 9,119 L 9,121 L 17,121 L 19,123 L 20,123 L 22,125 L 24,125 L 25,126 L 26,125 L 29,125 L 30,126 L 31,126 L 32,127 L 34,127 L 35,128 L 39,128 L 40,127 L 49,127 L 50,128 L 51,128 L 52,129 L 54,129 L 55,128 L 58,128 L 59,129 L 59,130 L 60,130 L 61,131 L 63,131 L 63,128 L 64,127 L 66,127 L 66,126 L 65,125 L 65,124 L 63,122 L 63,120 L 62,119 L 62,118 L 63,117 L 63,116 L 65,114 L 65,112 L 64,113 L 63,113 L 61,111 L 61,110 L 60,109 L 60,108 L 51,99 L 48,99 L 46,97 L 45,97 L 44,96 L 43,96 L 42,95 L 39,95 L 38,94 L 36,94 L 35,93 L 34,93 L 33,92 L 32,92 L 29,89 L 28,89 L 26,87 L 25,87 L 24,86 L 22,86 L 21,85 L 21,84 Z" fill="none" stroke="black" stroke-width="1"/>
</svg>