<svg xmlns="http://www.w3.org/2000/svg" width="139" height="80">
  <path d="M 126,29 L 124,31 L 123,31 L 122,32 L 120,32 L 119,33 L 117,33 L 116,34 L 112,34 L 111,33 L 110,33 L 109,32 L 107,32 L 106,31 L 104,31 L 103,30 L 96,30 L 95,31 L 93,31 L 92,32 L 89,32 L 88,33 L 81,33 L 80,34 L 79,34 L 79,37 L 84,42 L 84,43 L 88,47 L 89,47 L 91,49 L 92,49 L 93,50 L 94,50 L 95,51 L 96,51 L 97,52 L 97,53 L 99,55 L 99,59 L 101,61 L 101,62 L 102,63 L 103,63 L 104,64 L 104,65 L 106,67 L 106,68 L 108,70 L 109,70 L 110,71 L 111,71 L 112,72 L 113,72 L 114,73 L 115,73 L 117,75 L 118,75 L 119,76 L 121,76 L 122,75 L 127,75 L 129,77 L 130,77 L 131,78 L 131,76 L 132,75 L 132,73 L 133,72 L 133,70 L 134,69 L 134,67 L 135,66 L 135,65 L 136,64 L 136,61 L 137,60 L 137,57 L 138,56 L 138,55 L 137,54 L 137,53 L 136,52 L 136,47 L 137,46 L 136,45 L 136,44 L 138,42 L 138,41 L 137,41 L 136,40 L 135,40 L 131,36 L 132,35 L 132,33 L 129,30 L 129,29 Z" fill="none" stroke="black" stroke-width="1"/>
</svg>