<svg xmlns="http://www.w3.org/2000/svg" width="56" height="83">
  <path d="M 24,0 L 24,1 L 23,2 L 23,3 L 19,7 L 18,7 L 17,8 L 15,8 L 16,8 L 19,11 L 19,12 L 20,13 L 20,15 L 21,15 L 24,18 L 25,18 L 31,24 L 38,24 L 39,23 L 39,22 L 44,17 L 45,17 L 46,16 L 47,16 L 48,15 L 50,15 L 51,14 L 52,14 L 53,13 L 53,10 L 54,9 L 54,7 L 55,6 L 55,3 L 54,3 L 53,2 L 52,2 L 51,1 L 50,1 L 49,2 L 48,2 L 46,4 L 41,4 L 40,3 L 36,3 L 35,2 L 31,2 L 30,1 L 29,2 L 28,1 L 27,1 L 26,0 Z" fill="none" stroke="black" stroke-width="1"/>
</svg>