<svg xmlns="http://www.w3.org/2000/svg" width="62" height="96">
  <path d="M 43,0 L 41,2 L 40,2 L 39,3 L 38,3 L 37,4 L 36,4 L 36,6 L 37,7 L 37,8 L 38,9 L 38,11 L 35,14 L 34,14 L 33,15 L 35,17 L 36,17 L 39,20 L 39,21 L 42,24 L 42,25 L 43,26 L 44,26 L 45,27 L 45,30 L 46,31 L 46,33 L 47,34 L 47,35 L 48,36 L 48,37 L 53,37 L 53,36 L 54,35 L 54,31 L 55,30 L 56,30 L 57,29 L 58,29 L 60,27 L 60,22 L 61,21 L 61,17 L 60,17 L 59,16 L 58,16 L 55,13 L 55,12 L 54,11 L 54,9 L 53,8 L 53,4 L 52,3 L 51,3 L 49,1 L 47,1 L 46,0 Z" fill="none" stroke="black" stroke-width="1"/>
</svg>