<svg xmlns="http://www.w3.org/2000/svg" width="341" height="80">
  <path d="M 307,47 L 307,48 L 308,49 L 309,49 L 310,48 L 309,48 L 308,47 Z" fill="none" stroke="black" stroke-width="1"/>
  <path d="M 313,45 L 312,46 L 312,47 L 313,48 L 315,48 L 316,49 L 316,52 L 317,52 L 318,51 L 321,51 L 322,50 L 322,49 L 321,48 L 320,48 L 319,47 L 316,47 L 315,48 L 314,47 L 314,46 Z" fill="none" stroke="black" stroke-width="1"/>
  <path d="M 304,42 L 303,43 L 303,44 L 304,44 L 305,43 L 307,43 L 308,44 L 310,44 L 311,43 L 305,43 Z" fill="none" stroke="black" stroke-width="1"/>
</svg>