<svg xmlns="http://www.w3.org/2000/svg" width="79" height="59">
  <path d="M 15,53 L 15,55 L 14,56 L 11,56 L 10,57 L 10,58 L 12,58 L 13,57 L 14,57 L 14,56 L 15,55 L 16,55 L 17,56 L 19,56 L 19,54 L 18,53 Z" fill="none" stroke="black" stroke-width="1"/>
  <path d="M 77,41 L 77,45 L 78,45 L 78,41 Z" fill="none" stroke="black" stroke-width="1"/>
  <path d="M 30,38 L 30,41 L 31,42 L 32,42 L 32,40 L 31,39 L 31,38 Z" fill="none" stroke="black" stroke-width="1"/>
  <path d="M 23,33 L 23,36 L 24,36 L 24,34 Z" fill="none" stroke="black" stroke-width="1"/>
  <path d="M 74,26 L 74,28 L 75,28 L 75,26 Z" fill="none" stroke="black" stroke-width="1"/>
  <path d="M 58,19 L 58,22 L 59,23 L 60,23 L 60,19 Z" fill="none" stroke="black" stroke-width="1"/>
  <path d="M 59,13 L 59,15 L 61,15 L 61,14 L 60,13 Z" fill="none" stroke="black" stroke-width="1"/>
  <path d="M 59,0 L 59,2 L 60,2 L 61,1 L 61,0 Z" fill="none" stroke="black" stroke-width="1"/>
</svg>