<svg xmlns="http://www.w3.org/2000/svg" width="79" height="59">
  <path d="M 43,18 L 42,19 L 42,20 L 41,21 L 41,23 L 42,23 L 42,22 L 43,21 Z" fill="none" stroke="black" stroke-width="1"/>
  <path d="M 40,15 L 39,16 L 38,16 L 38,17 L 39,17 L 40,18 Z" fill="none" stroke="black" stroke-width="1"/>
  <path d="M 37,10 L 36,11 L 34,11 L 32,13 L 30,13 L 29,14 L 27,14 L 25,16 L 24,16 L 22,18 L 21,17 L 20,17 L 19,18 L 19,19 L 20,19 L 22,21 L 22,22 L 23,22 L 23,21 L 24,20 L 26,20 L 27,21 L 27,19 L 29,17 L 31,17 L 32,18 L 32,19 L 35,19 L 34,18 L 34,16 L 36,14 L 37,14 L 39,12 L 39,11 L 40,10 Z" fill="none" stroke="black" stroke-width="1"/>
</svg>