<svg xmlns="http://www.w3.org/2000/svg" width="55" height="77">
  <path d="M 46,0 L 46,1 L 45,2 L 43,2 L 42,3 L 41,3 L 41,4 L 40,5 L 40,6 L 38,8 L 36,8 L 35,9 L 32,9 L 31,8 L 29,8 L 28,7 L 25,7 L 24,6 L 24,7 L 22,9 L 22,10 L 23,11 L 23,18 L 21,20 L 19,20 L 19,26 L 23,26 L 24,27 L 25,27 L 26,28 L 29,28 L 30,27 L 30,26 L 31,25 L 33,25 L 35,23 L 35,22 L 37,20 L 38,21 L 39,21 L 41,23 L 42,23 L 43,24 L 44,24 L 45,23 L 45,22 L 46,21 L 47,21 L 47,20 L 48,19 L 49,19 L 50,18 L 50,17 L 51,16 L 50,15 L 51,14 L 50,13 L 51,12 L 51,11 L 50,10 L 50,8 L 51,7 L 51,6 L 54,3 L 53,2 L 51,2 L 50,1 L 49,1 L 48,0 Z" fill="none" stroke="black" stroke-width="1"/>
</svg>