<svg xmlns="http://www.w3.org/2000/svg" width="89" height="40">
  <path d="M 32,2 L 31,3 L 28,3 L 28,4 L 27,5 L 25,5 L 21,9 L 21,10 L 20,11 L 19,11 L 18,10 L 16,10 L 15,11 L 14,10 L 13,11 L 11,11 L 10,12 L 9,12 L 10,13 L 9,14 L 3,14 L 3,15 L 4,16 L 2,18 L 1,18 L 0,19 L 0,22 L 1,23 L 1,24 L 5,28 L 6,28 L 7,29 L 8,29 L 10,31 L 11,31 L 12,32 L 14,32 L 15,33 L 20,33 L 21,32 L 22,32 L 23,31 L 26,31 L 27,30 L 29,30 L 30,29 L 30,28 L 31,27 L 32,27 L 32,26 L 33,25 L 34,25 L 35,24 L 37,24 L 37,22 L 38,21 L 39,21 L 39,19 L 40,18 L 41,18 L 42,17 L 42,14 L 41,13 L 41,12 L 40,11 L 40,5 L 38,5 L 37,4 L 37,3 L 36,2 Z" fill="none" stroke="black" stroke-width="1"/>
</svg>