<svg xmlns="http://www.w3.org/2000/svg" width="65" height="55">
  <path d="M 21,10 L 20,11 L 19,11 L 18,12 L 18,15 L 17,16 L 15,16 L 14,17 L 12,15 L 12,14 L 12,15 L 10,17 L 9,17 L 8,18 L 8,24 L 4,28 L 1,28 L 0,29 L 0,33 L 6,33 L 7,34 L 8,34 L 9,35 L 7,37 L 8,38 L 8,39 L 9,40 L 9,44 L 10,45 L 10,46 L 11,46 L 13,48 L 13,49 L 15,51 L 17,51 L 17,50 L 18,49 L 21,52 L 22,52 L 23,51 L 24,52 L 24,53 L 23,54 L 24,54 L 27,51 L 28,51 L 29,50 L 29,49 L 30,48 L 31,48 L 31,47 L 30,47 L 29,46 L 29,44 L 28,43 L 27,43 L 26,42 L 26,41 L 25,40 L 25,39 L 22,36 L 22,33 L 23,32 L 23,31 L 24,30 L 24,22 L 25,21 L 26,21 L 26,17 L 25,17 L 24,16 L 24,12 L 22,12 L 21,11 Z" fill="none" stroke="black" stroke-width="1"/>
</svg>