<svg xmlns="http://www.w3.org/2000/svg" width="113" height="82">
  <path d="M 45,24 L 39,30 L 35,30 L 33,32 L 33,33 L 32,34 L 32,35 L 30,37 L 29,37 L 29,38 L 28,39 L 28,42 L 29,42 L 30,43 L 30,45 L 29,46 L 29,50 L 28,51 L 25,51 L 24,52 L 23,52 L 23,58 L 24,59 L 24,62 L 25,62 L 26,63 L 25,64 L 26,65 L 26,66 L 27,65 L 29,65 L 30,66 L 31,66 L 32,67 L 33,67 L 34,68 L 35,67 L 37,67 L 39,65 L 41,65 L 44,62 L 45,62 L 47,64 L 48,64 L 49,65 L 50,65 L 51,66 L 56,66 L 57,67 L 59,67 L 61,65 L 64,65 L 65,64 L 66,65 L 68,65 L 68,64 L 69,63 L 70,63 L 69,63 L 66,60 L 64,60 L 63,59 L 61,59 L 55,53 L 55,52 L 54,51 L 54,50 L 53,49 L 52,49 L 50,47 L 50,46 L 49,45 L 49,42 L 48,41 L 48,39 L 47,38 L 48,37 L 49,37 L 51,35 L 50,34 L 50,33 L 49,32 L 50,31 L 47,28 L 47,25 L 46,24 Z" fill="none" stroke="black" stroke-width="1"/>
</svg>