<svg xmlns="http://www.w3.org/2000/svg" width="72" height="82">
  <path d="M 11,0 L 13,2 L 11,4 L 10,4 L 10,5 L 12,7 L 12,11 L 11,12 L 11,13 L 9,15 L 9,16 L 8,17 L 3,17 L 2,16 L 2,17 L 1,18 L 1,19 L 0,20 L 0,21 L 3,24 L 3,26 L 6,26 L 7,27 L 7,31 L 8,31 L 10,33 L 12,33 L 14,35 L 14,36 L 15,35 L 16,36 L 16,37 L 18,39 L 23,39 L 25,37 L 27,37 L 27,36 L 28,35 L 30,35 L 30,33 L 32,31 L 32,30 L 30,28 L 30,27 L 29,26 L 29,25 L 28,24 L 28,23 L 27,22 L 27,20 L 26,19 L 26,17 L 25,16 L 25,14 L 21,10 L 21,9 L 22,8 L 18,4 L 17,4 L 13,0 Z" fill="none" stroke="black" stroke-width="1"/>
</svg>