<svg xmlns="http://www.w3.org/2000/svg" width="54" height="66">
  <path d="M 13,14 L 11,16 L 11,17 L 10,18 L 9,18 L 8,19 L 6,19 L 4,21 L 3,21 L 0,24 L 0,28 L 1,28 L 2,29 L 3,29 L 4,30 L 5,30 L 6,31 L 6,36 L 5,37 L 5,40 L 6,40 L 7,41 L 7,43 L 8,43 L 9,44 L 10,44 L 11,45 L 14,45 L 14,44 L 13,43 L 13,41 L 15,39 L 17,39 L 18,40 L 20,40 L 21,39 L 21,38 L 22,37 L 27,37 L 28,36 L 29,36 L 31,34 L 32,34 L 33,35 L 34,34 L 35,34 L 34,33 L 34,30 L 33,30 L 30,27 L 30,26 L 29,26 L 24,21 L 23,21 L 21,19 L 17,19 L 15,17 L 15,15 L 14,14 Z" fill="none" stroke="black" stroke-width="1"/>
</svg>