<svg xmlns="http://www.w3.org/2000/svg" width="78" height="69">
  <path d="M 43,0 L 40,3 L 39,3 L 38,4 L 38,6 L 36,8 L 35,8 L 34,9 L 28,9 L 27,10 L 25,10 L 24,11 L 23,11 L 22,12 L 19,12 L 17,10 L 17,8 L 15,6 L 12,6 L 12,7 L 10,9 L 10,10 L 9,11 L 9,12 L 8,13 L 8,14 L 1,21 L 1,22 L 0,23 L 0,28 L 1,28 L 2,29 L 3,29 L 4,30 L 8,30 L 11,33 L 11,34 L 10,35 L 10,39 L 16,39 L 17,38 L 20,38 L 21,37 L 23,37 L 26,34 L 27,34 L 28,33 L 30,33 L 31,32 L 31,26 L 32,25 L 33,25 L 34,24 L 34,23 L 33,22 L 33,21 L 34,20 L 36,20 L 37,21 L 41,21 L 41,20 L 42,19 L 43,19 L 45,17 L 46,17 L 47,16 L 48,16 L 48,15 L 49,14 L 49,12 L 48,12 L 47,11 L 47,8 L 48,7 L 48,2 L 47,2 L 46,1 L 45,1 L 44,0 Z" fill="none" stroke="black" stroke-width="1"/>
</svg>