<svg xmlns="http://www.w3.org/2000/svg" width="78" height="69">
  <path d="M 49,15 L 49,16 L 48,17 L 47,17 L 46,18 L 45,18 L 43,20 L 42,20 L 42,21 L 41,22 L 37,22 L 36,21 L 34,21 L 34,22 L 35,23 L 35,24 L 33,26 L 32,26 L 32,32 L 33,33 L 33,35 L 36,38 L 37,38 L 38,37 L 41,37 L 42,38 L 43,38 L 45,40 L 45,42 L 47,42 L 49,44 L 52,44 L 53,43 L 54,43 L 55,42 L 56,42 L 58,40 L 58,39 L 59,38 L 60,38 L 61,37 L 66,37 L 68,35 L 69,35 L 70,34 L 68,34 L 67,33 L 67,30 L 66,30 L 65,29 L 66,28 L 65,27 L 65,26 L 64,25 L 64,23 L 62,21 L 61,21 L 58,18 L 58,17 L 54,17 L 53,16 L 52,16 L 51,15 Z" fill="none" stroke="black" stroke-width="1"/>
</svg>