<svg xmlns="http://www.w3.org/2000/svg" width="50" height="40">
  <path d="M 22,12 L 22,16 L 21,17 L 20,17 L 21,18 L 20,19 L 18,19 L 17,20 L 14,20 L 13,21 L 13,22 L 12,23 L 11,23 L 11,24 L 13,26 L 12,27 L 12,30 L 11,31 L 11,32 L 13,34 L 13,36 L 15,36 L 17,38 L 19,38 L 20,39 L 21,39 L 21,38 L 24,35 L 25,35 L 26,34 L 32,34 L 35,31 L 36,31 L 36,29 L 35,28 L 35,27 L 33,25 L 33,22 L 32,21 L 28,21 L 27,22 L 26,22 L 25,21 L 25,19 L 24,18 L 24,17 L 26,15 L 26,14 L 25,13 L 24,13 L 23,12 Z" fill="none" stroke="black" stroke-width="1"/>
</svg>