<svg xmlns="http://www.w3.org/2000/svg" width="35" height="48">
  <path d="M 17,28 L 18,29 L 17,30 L 16,30 L 15,31 L 14,31 L 13,32 L 10,32 L 9,33 L 9,37 L 8,38 L 8,39 L 9,40 L 11,40 L 12,41 L 12,47 L 14,47 L 15,46 L 18,46 L 19,45 L 20,45 L 21,44 L 22,44 L 22,42 L 23,41 L 24,41 L 25,40 L 26,40 L 27,41 L 29,41 L 30,42 L 31,42 L 32,41 L 34,41 L 34,38 L 33,37 L 33,35 L 31,33 L 31,32 L 29,32 L 28,31 L 26,31 L 25,30 L 23,30 L 22,29 L 21,29 L 20,28 Z" fill="none" stroke="black" stroke-width="1"/>
</svg>