<svg xmlns="http://www.w3.org/2000/svg" width="51" height="54">
  <path d="M 18,28 L 18,33 L 14,37 L 13,37 L 12,36 L 11,37 L 11,39 L 12,40 L 13,40 L 16,43 L 17,43 L 18,44 L 18,45 L 19,46 L 19,48 L 20,49 L 23,49 L 24,50 L 24,51 L 25,51 L 26,52 L 27,52 L 28,53 L 29,53 L 30,52 L 30,51 L 31,50 L 32,50 L 33,49 L 35,49 L 36,50 L 37,50 L 39,48 L 39,47 L 38,47 L 37,46 L 34,46 L 31,43 L 31,42 L 30,41 L 30,40 L 29,39 L 29,37 L 27,35 L 27,34 L 26,33 L 25,33 L 23,31 L 22,31 L 20,29 L 19,29 Z" fill="none" stroke="black" stroke-width="1"/>
</svg>