<svg xmlns="http://www.w3.org/2000/svg" width="57" height="61">
  <path d="M 40,6 L 39,7 L 38,7 L 38,9 L 36,11 L 33,11 L 33,12 L 32,13 L 30,13 L 30,14 L 29,15 L 28,15 L 27,16 L 26,16 L 25,17 L 24,17 L 22,19 L 22,20 L 21,21 L 19,21 L 18,22 L 18,26 L 19,27 L 19,28 L 20,29 L 22,29 L 23,30 L 24,30 L 25,29 L 28,29 L 29,28 L 30,28 L 31,29 L 31,33 L 32,34 L 32,35 L 33,35 L 35,33 L 41,33 L 41,28 L 44,25 L 45,25 L 45,24 L 46,23 L 49,23 L 50,22 L 50,21 L 51,20 L 52,20 L 53,19 L 55,19 L 55,18 L 54,17 L 54,16 L 56,14 L 56,9 L 54,7 L 43,7 L 42,6 Z" fill="none" stroke="black" stroke-width="1"/>
</svg>