<svg xmlns="http://www.w3.org/2000/svg" width="83" height="45">
  <path d="M 38,20 L 37,21 L 36,21 L 35,22 L 31,22 L 30,23 L 28,23 L 27,22 L 27,21 L 25,21 L 23,23 L 23,24 L 25,26 L 25,27 L 23,29 L 19,29 L 18,30 L 17,30 L 17,33 L 16,34 L 16,35 L 17,36 L 18,36 L 19,37 L 19,39 L 28,39 L 29,38 L 33,38 L 34,37 L 35,37 L 35,36 L 37,34 L 38,34 L 39,33 L 42,33 L 43,32 L 44,33 L 46,33 L 46,31 L 47,30 L 50,30 L 51,29 L 51,27 L 50,26 L 50,25 L 49,24 L 49,22 L 47,22 L 46,23 L 42,23 L 39,20 Z" fill="none" stroke="black" stroke-width="1"/>
</svg>