<svg xmlns="http://www.w3.org/2000/svg" width="57" height="61">
  <path d="M 16,27 L 15,28 L 15,30 L 14,31 L 13,31 L 11,33 L 8,33 L 6,35 L 6,37 L 5,38 L 3,38 L 2,39 L 1,39 L 1,40 L 2,41 L 2,42 L 3,42 L 4,43 L 5,43 L 7,45 L 6,46 L 6,47 L 5,48 L 4,48 L 3,49 L 3,52 L 5,54 L 5,55 L 4,56 L 4,57 L 5,58 L 6,58 L 7,57 L 8,57 L 9,56 L 10,56 L 11,55 L 11,53 L 14,50 L 15,50 L 16,51 L 17,50 L 18,50 L 20,52 L 21,52 L 21,50 L 23,48 L 24,48 L 25,47 L 25,46 L 24,45 L 24,44 L 23,43 L 23,41 L 26,38 L 28,38 L 30,36 L 32,36 L 31,35 L 31,34 L 30,33 L 30,29 L 29,29 L 28,30 L 25,30 L 24,31 L 23,31 L 22,30 L 20,30 L 18,28 L 18,27 Z" fill="none" stroke="black" stroke-width="1"/>
</svg>