<svg xmlns="http://www.w3.org/2000/svg" width="76" height="64">
  <path d="M 61,0 L 59,2 L 58,2 L 55,5 L 54,4 L 50,4 L 49,5 L 47,5 L 45,7 L 44,7 L 43,8 L 41,8 L 40,7 L 39,7 L 39,8 L 38,9 L 34,9 L 33,10 L 33,11 L 34,12 L 34,14 L 35,15 L 35,16 L 37,18 L 37,19 L 38,20 L 38,22 L 39,22 L 41,24 L 42,24 L 44,26 L 45,26 L 46,27 L 47,26 L 48,26 L 50,24 L 51,24 L 52,23 L 64,23 L 67,20 L 68,20 L 69,19 L 70,19 L 70,17 L 69,16 L 69,12 L 70,11 L 71,11 L 73,9 L 73,8 L 74,7 L 74,4 L 72,4 L 71,3 L 68,3 L 66,1 L 63,1 L 62,0 Z" fill="none" stroke="black" stroke-width="1"/>
</svg>