<svg xmlns="http://www.w3.org/2000/svg" width="66" height="48">
  <path d="M 27,19 L 26,20 L 25,20 L 24,21 L 21,21 L 21,22 L 20,23 L 17,23 L 16,22 L 15,22 L 14,21 L 10,21 L 9,22 L 7,22 L 5,24 L 3,24 L 1,26 L 1,38 L 0,39 L 0,40 L 2,40 L 4,42 L 4,43 L 8,43 L 9,44 L 9,45 L 10,46 L 13,46 L 14,47 L 16,47 L 16,46 L 17,45 L 18,45 L 19,44 L 19,41 L 18,40 L 19,39 L 21,39 L 25,35 L 25,33 L 26,32 L 27,32 L 27,31 L 28,30 L 29,30 L 30,29 L 30,25 L 29,24 L 29,20 L 28,19 Z" fill="none" stroke="black" stroke-width="1"/>
</svg>