<svg xmlns="http://www.w3.org/2000/svg" width="86" height="54">
  <path d="M 43,0 L 40,3 L 38,3 L 38,7 L 40,9 L 40,10 L 39,11 L 38,11 L 38,13 L 37,14 L 37,15 L 35,17 L 34,16 L 32,16 L 31,17 L 30,17 L 31,18 L 32,18 L 33,19 L 33,20 L 34,21 L 34,22 L 35,22 L 36,23 L 39,23 L 40,22 L 42,22 L 43,21 L 47,21 L 48,22 L 48,25 L 49,26 L 51,26 L 51,25 L 52,24 L 54,24 L 55,23 L 55,22 L 56,21 L 57,21 L 59,19 L 59,13 L 61,11 L 61,8 L 60,7 L 60,6 L 59,6 L 58,7 L 57,7 L 55,9 L 54,9 L 53,8 L 52,8 L 51,9 L 50,9 L 49,10 L 47,10 L 46,9 L 46,8 L 45,7 L 45,5 L 46,4 L 46,1 L 45,1 L 44,0 Z" fill="none" stroke="black" stroke-width="1"/>
</svg>