<svg xmlns="http://www.w3.org/2000/svg" width="86" height="54">
  <path d="M 77,11 L 75,13 L 74,13 L 74,14 L 73,15 L 72,15 L 71,16 L 71,17 L 69,19 L 65,19 L 63,21 L 60,21 L 59,20 L 57,22 L 56,22 L 56,23 L 54,25 L 52,25 L 52,26 L 53,27 L 53,29 L 54,30 L 54,32 L 53,33 L 53,36 L 52,37 L 52,43 L 54,43 L 56,45 L 59,45 L 60,46 L 62,46 L 64,44 L 66,44 L 66,43 L 65,42 L 65,38 L 67,36 L 67,35 L 68,34 L 70,34 L 70,33 L 71,32 L 72,32 L 74,30 L 74,29 L 75,28 L 77,28 L 77,26 L 82,21 L 83,21 L 83,20 L 84,19 L 85,19 L 85,13 L 82,13 L 81,12 L 81,11 Z" fill="none" stroke="black" stroke-width="1"/>
</svg>