<svg xmlns="http://www.w3.org/2000/svg" width="62" height="67">
  <path d="M 29,32 L 30,33 L 30,34 L 28,36 L 27,36 L 27,37 L 28,38 L 28,39 L 27,40 L 25,40 L 24,39 L 23,40 L 23,44 L 22,45 L 20,45 L 19,46 L 17,46 L 18,47 L 18,48 L 19,48 L 20,49 L 21,49 L 22,50 L 22,51 L 20,53 L 21,53 L 23,51 L 25,51 L 26,50 L 28,50 L 29,49 L 32,49 L 33,48 L 32,47 L 33,46 L 35,46 L 35,45 L 37,43 L 38,43 L 40,41 L 39,40 L 43,36 L 42,35 L 43,34 L 35,34 L 34,33 L 33,33 L 32,32 Z" fill="none" stroke="black" stroke-width="1"/>
</svg>