<svg xmlns="http://www.w3.org/2000/svg" width="69" height="56">
  <path d="M 46,10 L 45,11 L 44,11 L 42,13 L 42,14 L 41,15 L 40,15 L 40,16 L 38,18 L 38,20 L 39,21 L 39,25 L 40,26 L 40,27 L 42,29 L 42,30 L 42,29 L 43,28 L 43,25 L 45,23 L 46,23 L 47,22 L 50,22 L 51,23 L 51,24 L 54,24 L 55,25 L 57,25 L 59,27 L 59,28 L 60,29 L 61,29 L 62,28 L 64,28 L 65,27 L 65,24 L 66,23 L 67,23 L 67,21 L 68,20 L 68,17 L 66,17 L 64,15 L 63,15 L 62,14 L 59,14 L 56,11 L 55,11 L 54,10 L 53,10 L 52,11 L 51,10 Z" fill="none" stroke="black" stroke-width="1"/>
</svg>