<svg xmlns="http://www.w3.org/2000/svg" width="85" height="45">
  <path d="M 42,20 L 41,21 L 37,21 L 37,22 L 36,23 L 36,24 L 35,25 L 34,25 L 33,26 L 30,26 L 30,27 L 29,28 L 28,28 L 28,29 L 29,29 L 30,30 L 32,30 L 33,31 L 33,32 L 35,32 L 36,33 L 38,33 L 39,34 L 40,34 L 41,35 L 43,35 L 44,36 L 46,34 L 50,34 L 51,33 L 52,33 L 54,35 L 55,35 L 56,36 L 56,34 L 55,33 L 55,32 L 56,31 L 58,31 L 58,28 L 59,27 L 58,27 L 57,26 L 57,25 L 56,24 L 47,24 L 43,20 Z" fill="none" stroke="black" stroke-width="1"/>
</svg>