<svg xmlns="http://www.w3.org/2000/svg" width="70" height="65">
  <path d="M 27,10 L 27,13 L 25,15 L 25,17 L 24,18 L 23,18 L 23,19 L 22,20 L 21,20 L 20,21 L 20,22 L 19,23 L 19,24 L 20,25 L 20,27 L 19,28 L 19,32 L 23,36 L 23,37 L 22,38 L 22,39 L 23,40 L 25,40 L 26,41 L 32,41 L 33,40 L 34,40 L 36,38 L 36,32 L 37,31 L 38,31 L 38,27 L 37,26 L 37,23 L 38,22 L 38,21 L 39,20 L 40,20 L 40,19 L 39,18 L 39,16 L 37,16 L 36,15 L 36,13 L 34,13 L 33,12 L 33,11 L 30,11 L 29,10 Z" fill="none" stroke="black" stroke-width="1"/>
</svg>