<svg xmlns="http://www.w3.org/2000/svg" width="45" height="50">
  <path d="M 39,30 L 39,31 L 37,33 L 34,33 L 32,35 L 30,35 L 27,38 L 27,41 L 26,42 L 26,44 L 25,45 L 25,47 L 25,45 L 26,44 L 27,45 L 27,49 L 27,47 L 28,46 L 29,47 L 29,48 L 30,48 L 30,44 L 31,43 L 32,44 L 32,49 L 32,40 L 33,39 L 34,40 L 34,42 L 34,41 L 35,40 L 36,41 L 36,43 L 35,44 L 35,45 L 34,46 L 34,47 L 35,48 L 35,49 L 37,47 L 38,47 L 39,48 L 40,47 L 39,46 L 39,42 L 40,41 L 41,42 L 41,45 L 43,47 L 43,45 L 44,44 L 44,43 L 43,42 L 43,39 L 42,38 L 42,36 L 41,35 L 41,34 L 40,33 L 40,32 L 39,31 Z" fill="none" stroke="black" stroke-width="1"/>
</svg>