<svg xmlns="http://www.w3.org/2000/svg" width="58" height="88">
  <path d="M 7,22 L 7,26 L 8,26 L 8,24 L 7,23 Z" fill="none" stroke="black" stroke-width="1"/>
  <path d="M 0,8 L 0,10 L 1,11 L 1,9 Z" fill="none" stroke="black" stroke-width="1"/>
  <path d="M 6,0 L 5,1 L 4,1 L 1,4 L 1,5 L 4,8 L 4,9 L 5,10 L 5,12 L 6,13 L 6,14 L 7,15 L 7,17 L 8,18 L 8,19 L 9,20 L 9,21 L 10,22 L 10,27 L 9,28 L 10,29 L 10,32 L 12,34 L 13,34 L 12,33 L 12,28 L 14,26 L 15,26 L 16,27 L 17,27 L 18,28 L 18,29 L 19,29 L 18,28 L 18,18 L 19,17 L 19,16 L 20,15 L 21,15 L 23,17 L 24,17 L 24,15 L 25,14 L 27,14 L 26,13 L 26,9 L 25,8 L 25,7 L 24,7 L 21,4 L 21,2 L 13,2 L 12,3 L 11,3 L 10,2 L 10,1 L 8,1 L 7,0 Z" fill="none" stroke="black" stroke-width="1"/>
</svg>