<svg xmlns="http://www.w3.org/2000/svg" width="107" height="49">
  <path d="M 45,21 L 43,23 L 41,23 L 40,24 L 39,24 L 37,26 L 35,26 L 34,25 L 33,25 L 29,29 L 25,29 L 24,30 L 22,30 L 21,31 L 21,38 L 22,39 L 22,40 L 25,40 L 27,42 L 27,43 L 28,43 L 29,44 L 30,44 L 31,45 L 31,48 L 33,48 L 34,47 L 38,47 L 39,46 L 40,46 L 41,45 L 44,45 L 46,47 L 50,43 L 50,41 L 52,39 L 53,39 L 53,38 L 54,37 L 53,36 L 53,34 L 54,33 L 52,31 L 52,30 L 51,29 L 50,29 L 48,27 L 48,24 L 46,22 L 46,21 Z" fill="none" stroke="black" stroke-width="1"/>
</svg>