<svg xmlns="http://www.w3.org/2000/svg" width="527" height="460">
  <path d="M 334,104 L 333,105 L 332,105 L 332,107 L 334,109 L 334,111 L 335,111 L 335,105 Z" fill="none" stroke="black" stroke-width="1"/>
  <path d="M 312,46 L 312,50 L 314,50 L 314,49 L 315,48 L 314,47 L 314,46 Z" fill="none" stroke="black" stroke-width="1"/>
  <path d="M 322,0 L 321,1 L 321,2 L 320,3 L 320,4 L 319,5 L 318,5 L 318,9 L 319,10 L 319,12 L 318,13 L 318,18 L 317,19 L 317,20 L 318,21 L 317,22 L 317,25 L 316,26 L 316,28 L 315,29 L 315,31 L 316,32 L 316,37 L 316,35 L 317,34 L 317,32 L 319,30 L 319,27 L 318,27 L 317,26 L 319,24 L 319,20 L 320,19 L 321,19 L 321,14 L 320,13 L 320,10 L 321,9 L 322,9 Z" fill="none" stroke="black" stroke-width="1"/>
</svg>