<svg xmlns="http://www.w3.org/2000/svg" width="137" height="62">
  <path d="M 96,34 L 96,35 L 95,36 L 94,36 L 92,38 L 90,38 L 88,40 L 87,40 L 85,42 L 85,43 L 84,44 L 83,44 L 82,45 L 79,45 L 78,44 L 77,44 L 76,43 L 72,43 L 71,44 L 69,44 L 68,45 L 62,45 L 60,43 L 60,42 L 59,43 L 55,43 L 54,42 L 54,41 L 53,42 L 51,42 L 50,43 L 50,47 L 49,48 L 49,49 L 47,51 L 47,56 L 46,57 L 46,58 L 47,58 L 48,59 L 48,61 L 49,61 L 49,60 L 50,59 L 51,59 L 52,58 L 53,58 L 54,57 L 55,57 L 56,58 L 58,58 L 60,56 L 63,56 L 64,57 L 74,57 L 74,56 L 75,55 L 76,55 L 77,54 L 79,54 L 80,55 L 83,55 L 82,54 L 83,53 L 84,53 L 85,54 L 85,55 L 86,56 L 92,56 L 92,53 L 93,52 L 93,51 L 94,50 L 99,50 L 101,48 L 101,47 L 103,45 L 103,43 L 100,40 L 100,35 L 99,35 L 98,34 Z" fill="none" stroke="black" stroke-width="1"/>
</svg>