<svg xmlns="http://www.w3.org/2000/svg" width="70" height="102">
  <path d="M 26,32 L 25,33 L 25,35 L 24,36 L 24,37 L 22,39 L 22,40 L 21,41 L 20,41 L 18,43 L 18,45 L 17,46 L 17,48 L 16,49 L 15,49 L 9,55 L 9,57 L 10,58 L 10,61 L 9,62 L 8,62 L 8,63 L 7,64 L 6,64 L 5,65 L 4,65 L 4,66 L 3,67 L 3,68 L 4,69 L 6,69 L 8,71 L 8,75 L 7,76 L 7,77 L 6,78 L 6,79 L 5,80 L 5,82 L 3,84 L 3,85 L 2,86 L 2,87 L 1,88 L 1,90 L 0,91 L 0,97 L 3,100 L 3,101 L 5,101 L 7,99 L 8,99 L 11,96 L 11,95 L 12,94 L 12,93 L 13,92 L 13,90 L 14,89 L 14,88 L 15,87 L 15,86 L 16,85 L 17,85 L 18,84 L 20,84 L 22,86 L 23,86 L 24,85 L 26,85 L 27,84 L 31,84 L 31,83 L 30,82 L 30,74 L 31,73 L 31,72 L 35,68 L 36,68 L 37,67 L 38,67 L 38,62 L 37,61 L 37,60 L 36,59 L 36,57 L 41,52 L 41,50 L 40,49 L 40,46 L 39,45 L 39,44 L 40,43 L 40,40 L 39,39 L 38,39 L 38,40 L 37,41 L 36,41 L 34,39 L 33,39 L 31,37 L 30,37 L 28,35 L 28,34 Z" fill="none" stroke="black" stroke-width="1"/>
</svg>