<svg xmlns="http://www.w3.org/2000/svg" width="70" height="102">
  <path d="M 47,0 L 44,3 L 42,3 L 42,4 L 41,5 L 38,5 L 39,6 L 40,6 L 41,7 L 40,8 L 37,8 L 34,11 L 33,11 L 32,10 L 30,10 L 29,9 L 26,9 L 25,10 L 24,10 L 24,12 L 21,15 L 19,15 L 19,18 L 18,19 L 18,22 L 19,23 L 19,26 L 18,27 L 18,29 L 19,29 L 20,28 L 21,28 L 22,27 L 23,27 L 24,28 L 25,28 L 27,30 L 27,32 L 29,34 L 29,35 L 30,36 L 31,36 L 33,38 L 34,38 L 36,40 L 37,40 L 37,39 L 38,38 L 39,38 L 41,40 L 41,42 L 42,41 L 43,41 L 43,39 L 45,37 L 46,37 L 47,36 L 49,36 L 50,35 L 50,34 L 49,34 L 48,33 L 48,32 L 46,30 L 46,27 L 47,26 L 47,23 L 46,22 L 46,21 L 48,19 L 48,18 L 51,15 L 51,13 L 53,11 L 53,7 L 54,6 L 54,5 L 56,3 L 56,2 L 55,1 L 53,1 L 52,2 L 51,2 L 50,1 L 49,1 L 48,0 Z" fill="none" stroke="black" stroke-width="1"/>
</svg>