<svg xmlns="http://www.w3.org/2000/svg" width="94" height="110">
  <path d="M 85,52 L 84,53 L 82,53 L 81,54 L 80,54 L 80,55 L 79,56 L 79,58 L 80,58 L 81,59 L 81,60 L 78,63 L 76,63 L 75,62 L 72,62 L 69,65 L 68,65 L 67,66 L 68,67 L 68,68 L 70,70 L 70,75 L 69,76 L 69,81 L 70,82 L 70,83 L 71,84 L 72,84 L 73,85 L 74,84 L 75,84 L 76,83 L 76,82 L 77,81 L 79,81 L 79,77 L 80,76 L 82,76 L 82,73 L 83,72 L 83,71 L 84,70 L 85,70 L 86,69 L 87,69 L 88,68 L 88,64 L 89,63 L 89,61 L 91,59 L 92,59 L 92,58 L 86,52 Z" fill="none" stroke="black" stroke-width="1"/>
</svg>