<svg xmlns="http://www.w3.org/2000/svg" width="58" height="88">
  <path d="M 32,54 L 32,55 Z" fill="none" stroke="black" stroke-width="1"/>
  <path d="M 25,15 L 25,17 L 24,18 L 23,18 L 21,16 L 20,16 L 20,17 L 19,18 L 19,28 L 20,29 L 19,30 L 18,30 L 17,29 L 17,28 L 16,28 L 15,27 L 14,27 L 13,28 L 13,33 L 14,34 L 13,35 L 12,35 L 13,36 L 13,37 L 14,36 L 15,37 L 15,39 L 19,43 L 19,44 L 20,45 L 20,46 L 21,45 L 20,44 L 20,43 L 21,42 L 23,44 L 23,47 L 22,48 L 23,49 L 23,47 L 24,46 L 24,43 L 25,42 L 27,44 L 27,47 L 28,48 L 27,49 L 26,49 L 26,50 L 25,51 L 26,52 L 26,54 L 27,55 L 29,55 L 27,53 L 27,51 L 28,50 L 30,50 L 31,51 L 32,51 L 33,52 L 35,52 L 36,53 L 34,55 L 35,55 L 36,56 L 37,56 L 38,57 L 39,57 L 41,55 L 45,55 L 46,56 L 46,54 L 45,53 L 45,51 L 44,50 L 44,49 L 43,48 L 43,47 L 41,45 L 40,45 L 38,43 L 38,42 L 37,41 L 37,39 L 38,38 L 39,38 L 39,37 L 38,36 L 38,31 L 37,30 L 37,29 L 36,28 L 36,27 L 35,26 L 35,25 L 34,24 L 34,23 L 33,23 L 32,22 L 31,22 L 30,21 L 30,20 L 28,20 L 27,19 L 27,17 L 26,16 L 26,15 Z" fill="none" stroke="black" stroke-width="1"/>
</svg>