<svg xmlns="http://www.w3.org/2000/svg" width="52" height="85">
  <path d="M 20,53 L 20,55 L 18,57 L 17,57 L 17,58 L 16,59 L 16,61 L 15,62 L 15,63 L 16,64 L 16,65 L 17,66 L 17,68 L 14,71 L 14,72 L 13,73 L 13,76 L 15,76 L 16,77 L 15,78 L 15,80 L 16,81 L 16,84 L 21,84 L 23,82 L 24,82 L 24,81 L 25,80 L 25,77 L 27,75 L 29,75 L 30,74 L 31,74 L 33,72 L 33,68 L 30,65 L 30,64 L 31,63 L 30,62 L 30,61 L 32,59 L 33,59 L 33,55 L 34,54 L 34,53 L 33,54 L 29,54 L 28,55 L 28,56 L 27,57 L 26,57 L 25,56 L 24,56 L 23,55 L 22,55 Z" fill="none" stroke="black" stroke-width="1"/>
</svg>