<svg xmlns="http://www.w3.org/2000/svg" width="53" height="73">
  <path d="M 31,0 L 28,3 L 27,2 L 26,3 L 25,3 L 24,4 L 22,4 L 20,6 L 19,6 L 18,7 L 16,7 L 15,8 L 15,11 L 14,12 L 14,14 L 15,15 L 20,15 L 21,16 L 21,17 L 23,19 L 23,23 L 24,24 L 25,24 L 26,25 L 26,26 L 27,27 L 27,28 L 29,28 L 31,30 L 31,31 L 32,32 L 33,32 L 34,33 L 36,33 L 37,34 L 38,34 L 39,35 L 39,37 L 40,36 L 41,36 L 43,34 L 44,34 L 45,33 L 47,33 L 47,32 L 48,31 L 48,30 L 49,29 L 49,27 L 50,26 L 51,26 L 52,25 L 52,21 L 51,20 L 51,19 L 46,19 L 45,18 L 44,18 L 42,16 L 42,15 L 41,14 L 41,13 L 40,12 L 40,9 L 38,7 L 39,6 L 40,6 L 40,3 L 37,3 L 36,2 L 35,2 L 34,1 L 33,2 Z" fill="none" stroke="black" stroke-width="1"/>
</svg>