<svg xmlns="http://www.w3.org/2000/svg" width="68" height="61">
  <path d="M 35,0 L 34,1 L 33,1 L 31,3 L 30,3 L 29,4 L 30,5 L 30,8 L 29,9 L 28,9 L 28,16 L 29,17 L 29,18 L 30,19 L 30,21 L 31,22 L 31,23 L 32,23 L 34,25 L 35,25 L 36,26 L 38,26 L 42,30 L 42,32 L 45,32 L 46,31 L 47,31 L 48,30 L 49,31 L 51,31 L 51,27 L 53,25 L 54,25 L 55,24 L 59,24 L 58,24 L 57,23 L 57,21 L 58,20 L 59,20 L 59,17 L 60,16 L 62,16 L 63,15 L 64,15 L 66,13 L 66,12 L 67,11 L 66,10 L 66,9 L 65,9 L 64,10 L 63,10 L 61,12 L 61,13 L 60,14 L 57,14 L 56,13 L 55,13 L 54,14 L 52,14 L 51,13 L 51,12 L 50,11 L 50,10 L 49,10 L 47,8 L 48,7 L 48,4 L 44,4 L 43,3 L 38,3 L 36,1 L 36,0 Z" fill="none" stroke="black" stroke-width="1"/>
</svg>