<svg xmlns="http://www.w3.org/2000/svg" width="47" height="78">
  <path d="M 24,28 L 25,29 L 25,33 L 23,35 L 22,35 L 22,36 L 21,37 L 21,38 L 20,39 L 20,40 L 19,41 L 18,41 L 17,42 L 18,43 L 18,44 L 19,45 L 19,46 L 20,47 L 20,48 L 23,51 L 23,52 L 24,53 L 24,54 L 25,55 L 25,59 L 26,59 L 29,62 L 29,64 L 32,67 L 32,69 L 33,69 L 35,71 L 35,72 L 36,72 L 37,73 L 43,73 L 45,71 L 46,71 L 44,69 L 44,67 L 43,67 L 42,66 L 41,66 L 39,64 L 39,63 L 38,62 L 37,63 L 36,63 L 35,62 L 35,61 L 32,58 L 32,57 L 31,56 L 31,53 L 32,52 L 33,52 L 34,53 L 34,54 L 35,55 L 35,56 L 35,54 L 34,53 L 34,49 L 33,48 L 33,43 L 32,42 L 31,43 L 30,42 L 30,41 L 28,39 L 28,37 L 27,36 L 27,30 L 26,29 L 26,28 Z" fill="none" stroke="black" stroke-width="1"/>
  <path d="M 30,23 L 29,24 L 28,24 L 28,25 L 29,26 L 29,25 L 30,24 Z" fill="none" stroke="black" stroke-width="1"/>
</svg>