<svg xmlns="http://www.w3.org/2000/svg" width="71" height="61">
  <path d="M 12,0 L 12,1 L 11,2 L 11,3 L 10,4 L 10,6 L 9,7 L 8,7 L 7,8 L 6,7 L 6,10 L 7,11 L 7,12 L 5,14 L 4,14 L 3,15 L 3,17 L 2,18 L 2,21 L 1,22 L 1,26 L 4,26 L 5,25 L 6,25 L 6,24 L 7,23 L 8,24 L 8,25 L 10,23 L 12,23 L 14,25 L 15,25 L 16,24 L 17,24 L 18,23 L 19,23 L 20,22 L 22,22 L 22,21 L 21,20 L 21,18 L 20,17 L 20,16 L 19,15 L 19,14 L 18,14 L 16,12 L 16,9 L 17,8 L 17,7 L 18,6 L 17,5 L 17,4 L 16,3 L 16,2 L 14,0 L 13,1 Z" fill="none" stroke="black" stroke-width="1"/>
</svg>