<svg xmlns="http://www.w3.org/2000/svg" width="52" height="61">
  <path d="M 42,21 L 41,22 L 38,22 L 38,23 L 39,24 L 38,25 L 35,25 L 34,26 L 33,26 L 30,29 L 29,28 L 29,25 L 28,25 L 26,27 L 25,27 L 26,28 L 25,29 L 24,29 L 23,30 L 22,30 L 22,32 L 21,33 L 21,34 L 23,36 L 23,37 L 27,37 L 28,36 L 30,36 L 31,37 L 32,37 L 34,39 L 34,41 L 37,41 L 38,40 L 39,40 L 40,41 L 40,43 L 41,44 L 41,45 L 44,45 L 44,43 L 43,42 L 43,41 L 45,39 L 45,37 L 46,36 L 46,34 L 47,33 L 47,32 L 50,29 L 50,27 L 51,26 L 49,26 L 47,24 L 46,24 L 43,21 Z" fill="none" stroke="black" stroke-width="1"/>
</svg>