<svg xmlns="http://www.w3.org/2000/svg" width="48" height="69">
  <path d="M 12,0 L 12,1 L 9,4 L 7,4 L 6,5 L 5,5 L 5,7 L 4,8 L 3,8 L 3,9 L 1,11 L 0,11 L 0,13 L 1,14 L 1,15 L 2,16 L 2,17 L 3,18 L 3,24 L 2,25 L 2,26 L 3,27 L 3,28 L 4,29 L 4,32 L 5,32 L 7,30 L 6,29 L 7,28 L 7,26 L 8,25 L 9,25 L 12,22 L 14,24 L 15,24 L 16,25 L 17,25 L 18,24 L 18,23 L 19,22 L 20,22 L 22,20 L 22,13 L 24,11 L 24,10 L 25,9 L 25,7 L 24,7 L 23,6 L 20,6 L 19,7 L 18,6 L 18,4 L 16,2 L 16,1 L 15,0 Z" fill="none" stroke="black" stroke-width="1"/>
</svg>