<svg xmlns="http://www.w3.org/2000/svg" width="47" height="67">
  <path d="M 43,65 L 43,66 Z" fill="none" stroke="black" stroke-width="1"/>
  <path d="M 38,58 L 39,59 L 39,60 L 40,60 L 40,59 L 39,58 Z" fill="none" stroke="black" stroke-width="1"/>
  <path d="M 31,29 L 31,33 L 28,36 L 28,39 L 30,41 L 30,44 L 32,46 L 32,49 L 33,50 L 34,50 L 35,51 L 35,52 L 36,53 L 37,53 L 38,54 L 39,54 L 40,55 L 40,56 L 41,57 L 42,57 L 43,56 L 44,56 L 45,57 L 45,58 L 45,55 L 46,54 L 46,53 L 45,52 L 45,51 L 44,50 L 43,50 L 42,49 L 42,45 L 41,44 L 41,43 L 40,42 L 40,41 L 39,40 L 39,32 L 38,31 L 36,31 L 34,29 Z" fill="none" stroke="black" stroke-width="1"/>
</svg>