<svg xmlns="http://www.w3.org/2000/svg" width="73" height="48">
  <path d="M 40,8 L 39,9 L 36,9 L 35,10 L 35,11 L 36,12 L 36,15 L 41,15 L 42,16 L 43,16 L 44,17 L 47,17 L 49,19 L 49,21 L 50,21 L 51,22 L 51,23 L 52,24 L 52,25 L 56,29 L 57,29 L 60,32 L 60,34 L 62,32 L 64,32 L 65,31 L 72,31 L 72,29 L 71,28 L 71,27 L 70,26 L 70,25 L 68,23 L 66,23 L 63,20 L 63,19 L 62,18 L 62,16 L 58,12 L 56,12 L 55,11 L 55,10 L 54,10 L 53,9 L 52,9 L 51,8 L 50,8 L 48,10 L 46,10 L 45,9 L 43,9 L 42,8 Z" fill="none" stroke="black" stroke-width="1"/>
</svg>