<svg xmlns="http://www.w3.org/2000/svg" width="73" height="48">
  <path d="M 14,0 L 12,2 L 10,2 L 9,3 L 7,3 L 6,4 L 6,6 L 5,7 L 5,12 L 2,15 L 3,16 L 3,18 L 4,19 L 4,21 L 3,22 L 3,23 L 1,25 L 1,27 L 0,28 L 0,29 L 1,30 L 2,30 L 3,31 L 7,27 L 8,27 L 9,26 L 9,25 L 10,24 L 11,24 L 11,23 L 13,21 L 15,21 L 17,19 L 19,19 L 20,20 L 20,21 L 21,21 L 23,23 L 24,22 L 27,25 L 30,22 L 32,22 L 32,21 L 35,18 L 35,12 L 34,11 L 34,10 L 32,8 L 32,4 L 31,3 L 31,2 L 30,1 L 27,1 L 25,3 L 23,3 L 22,2 L 20,2 L 19,1 L 18,1 L 17,0 Z" fill="none" stroke="black" stroke-width="1"/>
</svg>