<svg xmlns="http://www.w3.org/2000/svg" width="74" height="67">
  <path d="M 27,38 L 25,40 L 25,41 L 24,42 L 24,43 L 19,48 L 18,48 L 17,47 L 15,47 L 14,46 L 13,46 L 12,47 L 11,47 L 9,49 L 7,47 L 7,46 L 7,47 L 6,48 L 6,49 L 5,50 L 5,52 L 6,53 L 6,54 L 7,54 L 8,53 L 9,54 L 10,54 L 12,52 L 17,52 L 18,53 L 18,55 L 17,56 L 17,57 L 18,58 L 18,61 L 20,59 L 22,59 L 23,58 L 25,58 L 27,56 L 30,56 L 31,57 L 32,57 L 33,58 L 35,58 L 36,59 L 38,59 L 39,58 L 38,57 L 38,56 L 37,55 L 37,54 L 38,53 L 40,53 L 38,51 L 39,50 L 37,48 L 37,47 L 36,46 L 35,46 L 34,45 L 34,41 L 33,41 L 31,39 L 29,39 L 28,38 Z" fill="none" stroke="black" stroke-width="1"/>
</svg>