<svg xmlns="http://www.w3.org/2000/svg" width="75" height="59">
  <path d="M 70,47 L 69,48 L 69,49 L 70,49 L 71,48 Z" fill="none" stroke="black" stroke-width="1"/>
  <path d="M 73,45 L 73,47 L 74,47 L 74,46 Z" fill="none" stroke="black" stroke-width="1"/>
  <path d="M 72,41 L 72,42 L 73,42 Z" fill="none" stroke="black" stroke-width="1"/>
  <path d="M 52,32 L 52,34 L 53,34 L 54,35 L 55,34 L 56,35 L 56,36 L 55,37 L 55,38 L 56,39 L 56,42 L 57,43 L 57,41 L 58,40 L 58,39 L 57,38 L 58,37 L 59,37 L 59,36 L 58,35 L 58,34 L 55,34 L 54,33 L 53,33 Z" fill="none" stroke="black" stroke-width="1"/>
  <path d="M 48,32 L 48,33 L 45,36 L 45,37 L 44,38 L 44,39 L 43,40 L 42,40 L 38,44 L 37,44 L 36,45 L 35,45 L 35,47 L 34,48 L 34,49 L 35,50 L 37,50 L 40,53 L 40,54 L 41,55 L 41,57 L 42,58 L 44,56 L 46,56 L 49,53 L 50,53 L 50,52 L 51,51 L 52,51 L 53,52 L 53,53 L 54,53 L 56,55 L 58,55 L 59,56 L 59,55 L 60,54 L 62,54 L 64,52 L 65,52 L 66,51 L 68,51 L 67,50 L 67,49 L 65,47 L 66,46 L 67,46 L 66,45 L 67,44 L 69,44 L 65,40 L 62,40 L 63,41 L 64,41 L 66,43 L 65,44 L 64,44 L 63,43 L 61,43 L 60,42 L 60,41 L 59,42 L 59,44 L 60,45 L 65,45 L 66,46 L 65,47 L 59,47 L 58,46 L 57,46 L 56,45 L 55,45 L 54,44 L 54,40 L 53,39 L 53,38 L 50,35 L 50,34 L 49,34 L 48,33 Z" fill="none" stroke="black" stroke-width="1"/>
</svg>