<svg xmlns="http://www.w3.org/2000/svg" width="97" height="71">
  <path d="M 0,61 L 1,62 L 2,62 L 3,63 L 4,63 L 4,62 L 3,62 L 2,61 Z" fill="none" stroke="black" stroke-width="1"/>
  <path d="M 4,28 L 4,29 L 3,30 L 3,31 L 2,32 L 2,35 L 3,36 L 3,39 L 4,40 L 5,40 L 9,44 L 10,44 L 12,46 L 13,46 L 17,50 L 18,50 L 19,51 L 19,52 L 20,52 L 21,53 L 22,53 L 23,54 L 24,54 L 25,55 L 26,55 L 29,58 L 29,59 L 30,60 L 30,61 L 32,63 L 33,63 L 35,65 L 35,66 L 38,69 L 38,70 L 40,70 L 40,69 L 39,68 L 39,67 L 37,65 L 37,64 L 38,63 L 37,62 L 36,62 L 32,58 L 32,57 L 26,51 L 26,48 L 27,47 L 27,46 L 29,44 L 28,43 L 27,43 L 26,44 L 25,44 L 22,41 L 22,40 L 21,39 L 21,38 L 20,37 L 20,36 L 18,34 L 17,35 L 15,33 L 15,32 L 14,32 L 13,33 L 12,32 L 10,32 L 9,31 L 10,30 L 7,30 L 5,28 Z" fill="none" stroke="black" stroke-width="1"/>
</svg>