<svg xmlns="http://www.w3.org/2000/svg" width="97" height="71">
  <path d="M 37,7 L 36,8 L 35,8 L 35,9 L 33,11 L 33,12 L 32,13 L 32,14 L 27,19 L 26,19 L 24,21 L 26,23 L 27,23 L 28,24 L 28,26 L 31,29 L 32,29 L 33,28 L 34,28 L 36,30 L 37,30 L 40,33 L 40,38 L 41,39 L 43,39 L 45,37 L 46,38 L 47,37 L 47,36 L 48,35 L 49,35 L 49,34 L 51,32 L 51,31 L 53,29 L 55,29 L 56,28 L 57,28 L 58,27 L 59,27 L 60,28 L 61,28 L 61,24 L 60,23 L 58,23 L 57,22 L 57,20 L 54,17 L 54,14 L 53,15 L 52,15 L 51,14 L 44,14 L 42,16 L 42,17 L 39,20 L 38,20 L 37,19 L 38,18 L 38,17 L 40,15 L 40,14 L 41,13 L 41,12 L 43,10 L 42,9 L 42,8 L 40,8 L 39,7 Z" fill="none" stroke="black" stroke-width="1"/>
</svg>