<svg xmlns="http://www.w3.org/2000/svg" width="97" height="71">
  <path d="M 58,28 L 57,29 L 56,29 L 55,30 L 53,30 L 52,31 L 52,32 L 50,34 L 50,35 L 49,36 L 48,36 L 48,37 L 46,39 L 45,38 L 43,40 L 41,40 L 39,38 L 38,39 L 38,40 L 37,41 L 37,42 L 36,43 L 36,44 L 35,45 L 31,45 L 30,44 L 28,46 L 28,47 L 27,48 L 27,51 L 33,57 L 33,58 L 36,61 L 37,61 L 39,63 L 40,63 L 43,66 L 44,66 L 45,67 L 46,67 L 47,68 L 48,67 L 47,66 L 47,65 L 48,64 L 48,63 L 49,62 L 53,66 L 53,67 L 54,67 L 56,69 L 57,68 L 57,66 L 58,65 L 57,64 L 57,63 L 58,62 L 58,46 L 57,45 L 57,42 L 58,41 L 58,39 L 59,38 L 59,37 L 57,35 L 57,34 L 58,33 L 58,31 L 59,30 L 59,28 Z" fill="none" stroke="black" stroke-width="1"/>
</svg>