<svg xmlns="http://www.w3.org/2000/svg" width="56" height="20">
  <path d="M 45,1 L 44,2 L 43,2 L 42,3 L 40,3 L 39,2 L 38,2 L 37,3 L 36,3 L 35,4 L 34,4 L 33,3 L 32,3 L 31,2 L 30,2 L 30,4 L 29,5 L 29,12 L 30,11 L 31,11 L 32,10 L 33,10 L 34,11 L 35,11 L 36,12 L 37,12 L 38,13 L 39,13 L 40,14 L 41,14 L 42,15 L 45,15 L 46,16 L 49,16 L 50,17 L 51,17 L 52,18 L 53,18 L 54,19 L 55,18 L 54,18 L 53,17 L 52,17 L 51,16 L 51,15 L 50,14 L 50,13 L 51,12 L 51,9 L 52,8 L 52,4 L 51,3 L 49,3 L 48,2 L 47,2 L 46,1 Z" fill="none" stroke="black" stroke-width="1"/>
</svg>