<svg xmlns="http://www.w3.org/2000/svg" width="100" height="36">
  <path d="M 77,6 L 77,9 L 76,10 L 77,10 L 77,8 L 78,7 L 79,7 L 78,6 Z" fill="none" stroke="black" stroke-width="1"/>
  <path d="M 48,1 L 47,2 L 47,4 L 48,4 L 48,2 L 49,1 Z" fill="none" stroke="black" stroke-width="1"/>
  <path d="M 54,0 L 53,1 L 51,1 L 51,3 L 52,4 L 53,4 L 55,6 L 57,6 L 59,8 L 59,9 L 58,10 L 57,9 L 56,10 L 52,10 L 50,8 L 49,8 L 47,6 L 44,6 L 43,5 L 41,5 L 39,7 L 37,7 L 36,8 L 36,15 L 37,15 L 38,16 L 41,16 L 42,15 L 47,15 L 48,14 L 49,14 L 50,13 L 54,13 L 55,12 L 58,12 L 59,11 L 59,10 L 61,8 L 62,9 L 62,10 L 61,11 L 61,12 L 64,12 L 65,11 L 67,11 L 68,12 L 69,12 L 68,11 L 68,10 L 69,9 L 70,10 L 73,10 L 73,9 L 71,9 L 70,8 L 71,7 L 71,6 L 70,5 L 70,4 L 67,4 L 67,6 L 66,7 L 65,6 L 65,4 L 64,3 L 62,3 L 60,5 L 59,5 L 57,3 L 57,1 L 55,1 Z" fill="none" stroke="black" stroke-width="1"/>
</svg>