<svg xmlns="http://www.w3.org/2000/svg" width="238" height="90">
  <path d="M 0,53 L 0,55 Z" fill="none" stroke="black" stroke-width="1"/>
  <path d="M 54,47 L 53,48 L 53,49 L 51,51 L 52,51 L 53,50 L 54,50 L 54,49 L 55,48 L 56,48 L 57,47 Z" fill="none" stroke="black" stroke-width="1"/>
  <path d="M 64,46 L 63,47 L 62,47 L 62,48 L 61,49 L 60,48 L 60,47 L 59,47 L 60,48 L 59,49 L 58,49 L 56,51 L 60,51 L 64,47 L 65,47 L 66,46 Z" fill="none" stroke="black" stroke-width="1"/>
  <path d="M 75,45 L 74,46 L 74,47 L 73,48 L 72,47 L 72,46 L 71,46 L 71,47 L 69,49 L 68,48 L 67,48 L 67,49 L 68,50 L 68,51 L 69,51 L 71,49 L 71,48 L 72,47 L 73,48 L 73,49 L 74,50 L 75,49 L 78,49 L 79,48 L 85,48 L 85,46 L 84,45 L 83,45 L 82,46 L 78,46 L 77,45 Z" fill="none" stroke="black" stroke-width="1"/>
  <path d="M 48,44 L 50,46 L 47,49 L 46,49 L 42,53 L 40,53 L 39,52 L 38,52 L 37,51 L 37,50 L 36,50 L 35,51 L 32,51 L 31,50 L 28,53 L 27,52 L 26,52 L 25,51 L 25,50 L 22,50 L 21,49 L 18,49 L 17,48 L 16,48 L 15,47 L 9,47 L 7,49 L 6,49 L 5,50 L 4,50 L 2,52 L 2,55 L 3,55 L 4,56 L 5,55 L 15,55 L 16,56 L 18,56 L 19,57 L 20,57 L 21,58 L 22,57 L 26,57 L 26,56 L 27,55 L 29,55 L 30,56 L 34,56 L 35,55 L 36,55 L 37,54 L 44,54 L 46,52 L 49,52 L 49,51 L 48,50 L 50,48 L 51,48 L 51,44 Z" fill="none" stroke="black" stroke-width="1"/>
</svg>