<svg xmlns="http://www.w3.org/2000/svg" width="238" height="90">
  <path d="M 58,82 L 54,86 L 53,86 L 52,87 L 51,87 L 50,88 L 49,88 L 49,89 L 51,89 L 52,88 L 55,88 L 58,85 Z" fill="none" stroke="black" stroke-width="1"/>
  <path d="M 34,82 L 32,84 L 35,84 L 36,83 L 36,82 Z" fill="none" stroke="black" stroke-width="1"/>
  <path d="M 80,59 L 78,61 L 77,61 L 76,62 L 72,62 L 70,64 L 68,64 L 66,66 L 65,66 L 63,68 L 63,72 L 61,74 L 61,75 L 63,75 L 64,76 L 63,77 L 62,77 L 61,78 L 60,78 L 59,77 L 57,79 L 57,80 L 58,80 L 59,79 L 60,80 L 63,80 L 64,81 L 66,79 L 67,79 L 68,78 L 69,78 L 70,77 L 74,77 L 79,72 L 79,69 L 78,68 L 78,66 L 79,65 L 79,64 L 80,63 Z" fill="none" stroke="black" stroke-width="1"/>
</svg>