<svg xmlns="http://www.w3.org/2000/svg" width="73" height="75">
  <path d="M 71,0 L 68,3 L 64,3 L 64,4 L 63,5 L 62,4 L 62,2 L 63,1 L 62,1 L 61,2 L 60,2 L 59,3 L 58,3 L 53,8 L 51,8 L 50,9 L 47,9 L 46,8 L 46,13 L 45,14 L 45,15 L 46,16 L 47,16 L 48,17 L 48,18 L 49,19 L 49,20 L 51,22 L 52,22 L 54,24 L 54,26 L 55,26 L 56,27 L 57,27 L 59,29 L 59,33 L 62,33 L 64,31 L 64,29 L 65,28 L 65,23 L 64,22 L 64,20 L 65,19 L 66,19 L 66,14 L 68,12 L 68,9 L 70,7 L 70,5 L 72,3 L 72,2 L 71,1 Z" fill="none" stroke="black" stroke-width="1"/>
</svg>