<svg xmlns="http://www.w3.org/2000/svg" width="61" height="83">
  <path d="M 21,5 L 21,6 L 20,7 L 20,10 L 18,12 L 18,13 L 16,15 L 15,15 L 13,17 L 13,18 L 11,20 L 11,23 L 8,26 L 8,28 L 7,29 L 2,29 L 0,31 L 0,32 L 4,36 L 4,37 L 7,40 L 8,39 L 9,39 L 11,41 L 13,41 L 14,42 L 20,42 L 20,38 L 21,37 L 22,37 L 22,35 L 23,34 L 23,33 L 24,32 L 28,32 L 29,31 L 29,29 L 30,28 L 29,27 L 29,26 L 28,25 L 28,21 L 26,21 L 25,20 L 25,19 L 23,17 L 23,16 L 25,14 L 28,14 L 29,13 L 31,13 L 31,11 L 32,10 L 32,9 L 32,10 L 30,12 L 29,11 L 29,10 L 28,9 L 28,6 L 26,6 L 26,8 L 24,10 L 24,11 L 23,12 L 22,12 L 21,11 L 21,10 L 22,9 L 22,6 Z" fill="none" stroke="black" stroke-width="1"/>
  <path d="M 27,0 L 26,1 L 26,3 L 27,2 L 28,2 L 29,1 L 29,0 Z" fill="none" stroke="black" stroke-width="1"/>
</svg>