<svg xmlns="http://www.w3.org/2000/svg" width="60" height="90">
  <path d="M 21,48 L 21,49 L 18,52 L 17,52 L 16,53 L 16,54 L 15,55 L 14,54 L 12,54 L 11,55 L 10,55 L 9,56 L 8,56 L 4,60 L 4,66 L 6,66 L 7,67 L 7,68 L 9,68 L 10,69 L 10,70 L 11,71 L 15,71 L 16,72 L 21,72 L 24,69 L 25,69 L 26,70 L 27,70 L 28,71 L 28,72 L 30,74 L 31,74 L 33,76 L 34,76 L 35,75 L 35,74 L 34,73 L 34,72 L 35,71 L 35,64 L 36,63 L 36,62 L 38,60 L 38,58 L 39,57 L 39,55 L 38,55 L 37,54 L 37,53 L 36,53 L 35,52 L 34,53 L 29,53 L 26,50 L 24,50 L 23,49 L 22,49 Z" fill="none" stroke="black" stroke-width="1"/>
</svg>