<svg xmlns="http://www.w3.org/2000/svg" width="88" height="51">
  <path d="M 60,17 L 60,18 L 59,19 L 58,19 L 55,22 L 53,22 L 52,21 L 50,21 L 49,22 L 48,22 L 47,23 L 44,23 L 42,21 L 40,21 L 38,19 L 35,19 L 34,18 L 33,18 L 30,21 L 30,24 L 32,26 L 32,27 L 33,28 L 33,31 L 34,32 L 34,33 L 36,35 L 38,35 L 39,34 L 41,34 L 42,35 L 42,39 L 44,39 L 45,38 L 46,38 L 47,37 L 50,37 L 51,38 L 52,38 L 53,39 L 54,39 L 55,40 L 56,39 L 56,38 L 57,37 L 58,37 L 58,33 L 59,32 L 59,28 L 64,23 L 64,19 L 63,18 L 61,18 Z" fill="none" stroke="black" stroke-width="1"/>
</svg>