<svg xmlns="http://www.w3.org/2000/svg" width="52" height="112">
  <path d="M 22,36 L 21,37 L 21,39 L 18,42 L 17,42 L 16,43 L 16,46 L 15,47 L 16,48 L 15,49 L 15,53 L 14,54 L 13,54 L 14,55 L 14,58 L 15,59 L 15,61 L 14,62 L 16,62 L 17,63 L 19,61 L 20,61 L 21,60 L 22,60 L 23,61 L 24,61 L 26,59 L 30,59 L 31,58 L 34,58 L 35,57 L 37,57 L 36,56 L 35,56 L 34,55 L 34,54 L 33,53 L 32,53 L 27,48 L 27,47 L 26,46 L 26,44 L 25,43 L 25,42 L 24,41 L 24,40 L 23,39 L 23,36 Z" fill="none" stroke="black" stroke-width="1"/>
  <path d="M 3,0 L 1,2 L 0,2 L 0,4 L 1,5 L 2,5 L 3,6 L 2,7 L 2,8 L 3,8 L 5,6 L 5,3 L 3,1 Z" fill="none" stroke="black" stroke-width="1"/>
</svg>