<svg xmlns="http://www.w3.org/2000/svg" width="27" height="71">
  <path d="M 23,69 L 25,69 L 26,70 L 26,69 Z" fill="none" stroke="black" stroke-width="1"/>
  <path d="M 20,65 L 20,66 L 22,66 L 21,66 Z" fill="none" stroke="black" stroke-width="1"/>
  <path d="M 17,55 L 18,55 Z" fill="none" stroke="black" stroke-width="1"/>
  <path d="M 17,46 L 17,52 L 18,53 L 18,47 Z" fill="none" stroke="black" stroke-width="1"/>
  <path d="M 3,32 L 2,33 L 2,34 L 0,36 L 0,39 L 3,42 L 4,42 L 5,43 L 7,43 L 9,41 L 10,41 L 11,42 L 12,41 L 15,41 L 16,42 L 17,42 L 16,41 L 16,39 L 15,38 L 15,37 L 10,37 L 8,35 L 8,33 L 4,33 Z" fill="none" stroke="black" stroke-width="1"/>
</svg>