<svg xmlns="http://www.w3.org/2000/svg" width="63" height="61">
  <path d="M 22,4 L 20,6 L 19,6 L 18,5 L 16,5 L 15,6 L 15,8 L 14,9 L 14,10 L 15,11 L 15,12 L 17,12 L 18,11 L 19,11 L 20,12 L 22,12 L 23,13 L 23,21 L 20,24 L 20,26 L 24,30 L 25,30 L 27,32 L 28,31 L 28,28 L 29,27 L 30,27 L 31,26 L 32,26 L 32,25 L 33,24 L 32,23 L 32,22 L 31,21 L 31,20 L 30,19 L 30,16 L 32,14 L 33,14 L 34,13 L 34,12 L 33,11 L 33,9 L 32,8 L 30,8 L 28,6 L 26,6 L 25,5 L 23,5 Z" fill="none" stroke="black" stroke-width="1"/>
</svg>