<svg xmlns="http://www.w3.org/2000/svg" width="127" height="131">
  <path d="M 71,94 L 71,95 L 70,96 L 69,96 L 69,98 L 68,99 L 69,99 L 69,97 L 70,96 L 72,98 L 74,96 L 74,94 Z" fill="none" stroke="black" stroke-width="1"/>
  <path d="M 64,93 L 64,94 L 63,95 L 63,98 L 64,99 L 66,97 L 66,96 L 68,94 L 69,94 L 69,93 Z" fill="none" stroke="black" stroke-width="1"/>
  <path d="M 67,83 L 66,84 L 62,84 L 64,84 L 65,85 L 64,86 L 53,86 L 53,88 L 52,89 L 46,89 L 44,87 L 43,88 L 42,88 L 39,91 L 39,92 L 38,93 L 38,94 L 37,95 L 37,96 L 36,97 L 33,97 L 32,96 L 29,96 L 28,95 L 28,94 L 27,93 L 27,90 L 26,91 L 26,93 L 25,94 L 25,96 L 24,97 L 24,98 L 23,99 L 23,100 L 22,101 L 22,102 L 21,103 L 26,108 L 31,108 L 32,109 L 33,109 L 35,107 L 36,108 L 38,108 L 39,109 L 41,109 L 43,111 L 45,111 L 47,113 L 47,115 L 48,116 L 48,117 L 49,117 L 50,116 L 50,115 L 48,113 L 48,112 L 45,109 L 44,109 L 41,106 L 40,106 L 39,105 L 39,103 L 40,102 L 41,102 L 44,105 L 46,103 L 46,102 L 48,100 L 50,100 L 51,99 L 53,99 L 54,98 L 55,98 L 60,93 L 60,92 L 62,90 L 62,89 L 64,87 L 67,87 L 70,90 L 71,90 L 71,88 L 72,87 L 72,85 L 70,83 Z" fill="none" stroke="black" stroke-width="1"/>
  <path d="M 49,79 L 50,80 L 50,79 Z" fill="none" stroke="black" stroke-width="1"/>
  <path d="M 47,79 L 46,80 L 45,80 L 45,81 L 44,82 L 45,82 L 46,81 L 48,81 L 47,80 Z" fill="none" stroke="black" stroke-width="1"/>
</svg>