<svg xmlns="http://www.w3.org/2000/svg" width="127" height="131">
  <path d="M 97,46 L 95,48 L 95,50 L 94,51 L 91,51 L 90,52 L 91,53 L 91,54 L 90,55 L 87,55 L 87,56 L 85,58 L 84,58 L 83,59 L 82,59 L 80,61 L 78,61 L 78,62 L 80,64 L 80,65 L 81,66 L 81,67 L 86,67 L 87,66 L 88,66 L 89,65 L 89,64 L 91,62 L 91,61 L 94,58 L 95,58 L 95,57 L 97,55 L 97,54 L 98,53 L 98,51 L 99,50 L 100,50 L 100,49 L 99,48 L 99,47 L 98,47 Z" fill="none" stroke="black" stroke-width="1"/>
  <path d="M 108,14 L 108,15 L 109,16 L 109,17 L 110,18 L 111,18 L 111,17 L 109,15 L 109,14 Z" fill="none" stroke="black" stroke-width="1"/>
  <path d="M 123,0 L 123,4 L 124,5 L 124,7 L 123,8 L 123,9 L 122,10 L 122,11 L 123,11 L 123,10 L 125,8 L 125,6 L 126,5 L 126,2 L 125,1 L 124,1 Z" fill="none" stroke="black" stroke-width="1"/>
</svg>