<svg xmlns="http://www.w3.org/2000/svg" width="102" height="36">
  <path d="M 53,24 L 52,25 L 52,26 L 51,27 L 50,26 L 50,27 L 52,27 L 53,26 Z" fill="none" stroke="black" stroke-width="1"/>
  <path d="M 80,18 L 79,19 L 78,19 L 76,21 L 74,21 L 73,20 L 59,20 L 59,21 L 56,24 L 55,24 L 55,26 L 56,27 L 56,29 L 56,28 L 57,27 L 57,25 L 59,23 L 63,27 L 63,28 L 67,28 L 70,25 L 71,25 L 72,26 L 72,27 L 74,27 L 75,28 L 79,28 L 80,29 L 80,27 L 81,26 L 83,26 L 84,27 L 87,27 L 88,28 L 88,29 L 89,29 L 90,30 L 91,30 L 92,31 L 93,31 L 94,32 L 96,32 L 99,35 L 100,35 L 100,33 L 101,32 L 101,30 L 99,28 L 98,28 L 97,27 L 97,24 L 96,24 L 93,21 L 92,22 L 88,22 L 87,21 L 85,21 L 83,19 L 81,19 Z" fill="none" stroke="black" stroke-width="1"/>
</svg>