<svg xmlns="http://www.w3.org/2000/svg" width="39" height="71">
  <path d="M 34,42 L 37,45 L 38,45 L 37,44 L 37,43 L 36,43 L 35,42 Z" fill="none" stroke="black" stroke-width="1"/>
  <path d="M 20,18 L 18,20 L 17,20 L 16,21 L 16,22 L 17,23 L 17,24 L 16,25 L 14,25 L 13,26 L 13,28 L 11,30 L 9,30 L 8,29 L 8,30 L 7,31 L 7,35 L 8,36 L 8,37 L 9,38 L 9,47 L 10,47 L 13,50 L 13,51 L 14,52 L 14,53 L 15,54 L 16,54 L 18,56 L 18,55 L 15,52 L 15,51 L 14,50 L 14,49 L 13,48 L 13,46 L 12,45 L 12,44 L 11,43 L 11,41 L 12,40 L 11,39 L 11,36 L 12,35 L 16,35 L 17,36 L 21,36 L 22,37 L 24,37 L 24,35 L 23,34 L 22,34 L 21,33 L 19,33 L 16,30 L 17,29 L 17,28 L 18,27 L 21,27 L 23,25 L 24,25 L 24,18 Z" fill="none" stroke="black" stroke-width="1"/>
  <path d="M 22,0 L 18,4 L 18,5 L 17,6 L 18,7 L 18,9 L 21,9 L 22,8 L 22,7 L 23,6 L 23,4 L 24,3 L 22,1 Z" fill="none" stroke="black" stroke-width="1"/>
</svg>