<svg xmlns="http://www.w3.org/2000/svg" width="39" height="71">
  <path d="M 8,64 L 6,66 L 5,66 L 4,67 L 5,68 L 5,69 L 6,70 L 8,70 L 9,69 L 12,69 L 13,70 L 15,70 L 16,69 L 13,66 L 11,66 L 10,65 L 9,65 Z" fill="none" stroke="black" stroke-width="1"/>
  <path d="M 6,62 L 7,62 Z" fill="none" stroke="black" stroke-width="1"/>
  <path d="M 1,53 L 1,55 L 2,55 L 2,53 Z" fill="none" stroke="black" stroke-width="1"/>
  <path d="M 0,47 L 0,50 L 1,50 L 1,49 L 2,48 L 3,49 L 3,51 L 5,53 L 5,55 L 6,55 L 7,54 L 9,56 L 11,56 L 11,54 L 8,54 L 7,53 L 7,51 L 8,50 L 7,49 L 7,48 L 4,48 L 3,49 L 1,47 Z" fill="none" stroke="black" stroke-width="1"/>
</svg>