<svg xmlns="http://www.w3.org/2000/svg" width="82" height="118">
  <path d="M 49,113 L 46,116 L 44,116 L 44,117 L 46,117 L 48,115 L 49,116 L 50,116 L 50,114 Z" fill="none" stroke="black" stroke-width="1"/>
  <path d="M 63,101 L 61,103 L 62,104 L 63,104 L 64,103 L 66,103 L 67,104 L 68,103 L 67,103 L 66,102 L 65,102 L 64,101 Z" fill="none" stroke="black" stroke-width="1"/>
  <path d="M 79,90 L 77,92 L 75,92 L 76,93 L 76,94 L 77,95 L 80,95 L 80,94 L 81,93 L 81,92 L 80,92 L 79,91 Z" fill="none" stroke="black" stroke-width="1"/>
</svg>