<svg xmlns="http://www.w3.org/2000/svg" width="59" height="56">
  <path d="M 28,18 L 28,19 L 29,20 L 31,20 L 32,21 L 33,21 L 34,22 L 34,23 L 35,24 L 35,25 L 36,25 L 37,26 L 37,27 L 33,31 L 33,32 L 32,33 L 32,35 L 33,36 L 33,37 L 34,38 L 34,39 L 33,40 L 34,41 L 34,42 L 35,43 L 35,44 L 36,45 L 37,45 L 40,48 L 41,48 L 42,49 L 43,49 L 44,50 L 46,50 L 47,51 L 48,51 L 49,50 L 49,48 L 51,46 L 52,47 L 52,48 L 53,49 L 51,51 L 51,52 L 53,54 L 53,55 L 54,55 L 55,54 L 55,53 L 56,52 L 56,51 L 57,50 L 58,50 L 58,44 L 57,43 L 57,41 L 56,40 L 55,40 L 53,38 L 53,36 L 49,32 L 49,29 L 50,28 L 50,26 L 47,23 L 46,23 L 44,25 L 43,25 L 42,26 L 41,25 L 40,25 L 36,21 L 35,21 L 34,20 L 34,18 L 33,18 L 32,19 L 31,19 L 30,18 Z" fill="none" stroke="black" stroke-width="1"/>
</svg>