<svg xmlns="http://www.w3.org/2000/svg" width="59" height="56">
  <path d="M 45,0 L 45,3 L 44,4 L 44,5 L 45,6 L 44,7 L 44,8 L 43,9 L 42,8 L 41,8 L 40,7 L 38,7 L 37,8 L 37,12 L 36,13 L 32,13 L 28,17 L 30,17 L 31,18 L 32,18 L 33,17 L 34,17 L 35,18 L 35,20 L 36,20 L 40,24 L 41,24 L 42,25 L 43,24 L 44,24 L 46,22 L 47,22 L 50,25 L 50,23 L 49,22 L 49,20 L 47,18 L 47,17 L 48,16 L 48,15 L 47,14 L 47,13 L 48,12 L 48,11 L 50,9 L 50,6 L 49,5 L 48,5 L 47,4 L 47,3 L 46,2 L 46,0 Z" fill="none" stroke="black" stroke-width="1"/>
</svg>