<svg xmlns="http://www.w3.org/2000/svg" width="67" height="60">
  <path d="M 38,1 L 38,3 L 39,4 L 39,6 L 40,7 L 40,8 L 41,9 L 42,9 L 43,10 L 44,10 L 45,11 L 45,12 L 47,14 L 49,14 L 50,15 L 49,16 L 49,17 L 48,18 L 47,18 L 46,17 L 46,16 L 45,15 L 45,17 L 47,19 L 48,19 L 49,20 L 49,21 L 51,23 L 52,23 L 54,25 L 56,25 L 57,24 L 58,24 L 57,23 L 58,22 L 58,21 L 55,18 L 55,17 L 56,16 L 55,15 L 55,11 L 56,10 L 56,7 L 55,6 L 54,7 L 53,6 L 53,3 L 51,1 L 50,2 L 45,2 L 44,3 L 42,3 L 41,2 L 39,2 Z" fill="none" stroke="black" stroke-width="1"/>
</svg>