<svg xmlns="http://www.w3.org/2000/svg" width="82" height="118">
  <path d="M 0,69 L 0,72 L 1,71 L 0,70 Z" fill="none" stroke="black" stroke-width="1"/>
  <path d="M 25,40 L 21,44 L 21,45 L 20,46 L 19,46 L 19,47 L 16,50 L 14,50 L 12,52 L 11,52 L 8,55 L 8,56 L 5,59 L 5,60 L 4,61 L 4,62 L 3,63 L 3,64 L 4,65 L 4,66 L 5,66 L 5,65 L 4,65 L 3,64 L 6,61 L 7,61 L 9,59 L 10,59 L 13,56 L 14,56 L 16,54 L 16,53 L 18,51 L 19,51 L 20,50 L 21,50 L 24,47 L 24,46 L 25,45 L 25,44 L 26,43 L 27,43 L 26,42 L 26,40 Z" fill="none" stroke="black" stroke-width="1"/>
</svg>