<svg xmlns="http://www.w3.org/2000/svg" width="44" height="64">
  <path d="M 38,1 L 38,3 L 35,6 L 33,6 L 32,5 L 31,5 L 30,4 L 29,4 L 28,3 L 27,3 L 26,2 L 24,2 L 24,3 L 23,4 L 23,6 L 24,7 L 25,7 L 27,9 L 27,14 L 28,15 L 28,18 L 29,19 L 29,24 L 28,25 L 28,26 L 25,29 L 25,30 L 24,31 L 24,33 L 23,34 L 23,35 L 22,36 L 22,38 L 23,39 L 23,40 L 25,42 L 27,42 L 28,43 L 29,43 L 31,41 L 33,41 L 34,40 L 35,40 L 37,38 L 38,39 L 38,35 L 40,33 L 40,32 L 41,31 L 41,30 L 42,29 L 42,27 L 43,26 L 43,25 L 42,25 L 41,24 L 41,21 L 39,21 L 38,20 L 38,18 L 37,17 L 37,11 L 38,10 L 38,7 L 40,5 L 40,3 Z" fill="none" stroke="black" stroke-width="1"/>
</svg>