<svg xmlns="http://www.w3.org/2000/svg" width="70" height="140">
  <path d="M 24,109 L 24,111 L 22,113 L 21,113 L 21,115 L 20,116 L 20,117 L 19,118 L 19,119 L 18,120 L 18,121 L 19,122 L 24,122 L 25,123 L 29,123 L 30,124 L 30,127 L 29,128 L 30,129 L 31,129 L 32,130 L 32,131 L 33,132 L 33,133 L 35,133 L 36,132 L 37,132 L 38,133 L 41,133 L 41,132 L 44,129 L 45,129 L 46,128 L 47,128 L 48,129 L 48,130 L 49,131 L 48,132 L 48,133 L 49,133 L 50,134 L 50,138 L 51,138 L 52,137 L 55,137 L 57,139 L 58,138 L 58,137 L 56,135 L 57,134 L 57,127 L 55,125 L 55,123 L 54,122 L 54,121 L 55,120 L 55,117 L 56,116 L 59,116 L 60,117 L 62,117 L 61,116 L 61,114 L 59,112 L 58,112 L 57,113 L 54,113 L 53,114 L 51,114 L 50,115 L 50,117 L 49,118 L 48,118 L 47,117 L 45,117 L 44,116 L 44,115 L 39,115 L 37,117 L 35,117 L 33,115 L 32,115 L 31,114 L 32,113 L 31,112 L 31,111 L 30,112 L 29,111 L 29,110 L 28,110 L 27,111 L 26,111 Z" fill="none" stroke="black" stroke-width="1"/>
</svg>