<svg xmlns="http://www.w3.org/2000/svg" width="70" height="140">
  <path d="M 53,46 L 52,47 L 52,49 L 51,50 L 48,50 L 47,51 L 46,51 L 45,52 L 45,53 L 44,54 L 41,54 L 40,53 L 39,53 L 38,52 L 35,55 L 32,55 L 31,54 L 28,54 L 28,55 L 27,56 L 24,56 L 22,54 L 22,53 L 21,52 L 20,52 L 17,55 L 14,55 L 13,54 L 12,54 L 12,56 L 11,57 L 11,58 L 9,60 L 9,61 L 7,63 L 7,65 L 4,68 L 4,70 L 5,71 L 6,71 L 9,74 L 9,76 L 10,77 L 12,77 L 13,78 L 13,80 L 15,82 L 16,82 L 17,83 L 18,83 L 20,85 L 21,85 L 22,86 L 23,86 L 24,87 L 24,88 L 25,89 L 26,88 L 27,88 L 28,89 L 30,87 L 31,87 L 35,83 L 36,83 L 37,82 L 40,82 L 41,81 L 42,81 L 43,80 L 48,80 L 49,79 L 50,79 L 51,78 L 52,78 L 53,77 L 54,77 L 55,76 L 56,76 L 58,74 L 58,73 L 59,72 L 60,72 L 61,71 L 61,70 L 62,69 L 62,67 L 61,66 L 61,64 L 62,63 L 62,62 L 63,61 L 62,60 L 62,59 L 63,58 L 63,57 L 64,56 L 64,55 L 63,56 L 62,56 L 60,54 L 60,52 L 59,52 L 57,50 L 57,48 L 55,46 Z" fill="none" stroke="black" stroke-width="1"/>
</svg>