<svg xmlns="http://www.w3.org/2000/svg" width="133" height="116">
  <path d="M 49,44 L 48,45 L 46,45 L 45,46 L 44,46 L 43,45 L 39,49 L 39,51 L 35,55 L 32,55 L 31,54 L 30,54 L 29,53 L 29,52 L 27,50 L 26,50 L 25,49 L 24,50 L 23,50 L 22,49 L 21,49 L 18,52 L 18,54 L 17,55 L 17,56 L 16,57 L 16,58 L 17,59 L 16,60 L 16,61 L 15,62 L 15,64 L 16,65 L 16,67 L 15,68 L 15,69 L 13,71 L 12,71 L 12,72 L 9,75 L 8,75 L 7,76 L 6,76 L 5,77 L 4,77 L 3,78 L 2,78 L 0,80 L 2,80 L 4,82 L 4,83 L 5,83 L 7,85 L 7,87 L 9,89 L 10,89 L 11,90 L 12,90 L 13,91 L 14,91 L 14,90 L 13,89 L 14,88 L 14,87 L 15,86 L 16,86 L 18,84 L 22,84 L 23,83 L 24,83 L 25,84 L 27,84 L 28,83 L 28,80 L 29,79 L 30,79 L 31,78 L 32,78 L 33,79 L 35,79 L 36,78 L 38,78 L 40,76 L 42,78 L 42,79 L 43,80 L 43,82 L 44,83 L 44,84 L 45,84 L 46,85 L 47,85 L 48,86 L 49,86 L 50,85 L 51,85 L 52,84 L 53,84 L 54,83 L 56,83 L 58,81 L 59,81 L 60,82 L 60,81 L 59,81 L 57,79 L 57,77 L 58,76 L 58,71 L 57,70 L 57,67 L 56,66 L 55,66 L 53,64 L 53,62 L 52,61 L 52,59 L 53,58 L 53,56 L 52,55 L 53,54 L 53,50 L 54,49 L 54,46 L 52,44 Z" fill="none" stroke="black" stroke-width="1"/>
</svg>