<svg xmlns="http://www.w3.org/2000/svg" width="133" height="116">
  <path d="M 40,77 L 38,79 L 36,79 L 35,80 L 33,80 L 32,79 L 31,79 L 30,80 L 29,80 L 29,83 L 27,85 L 25,85 L 24,84 L 23,84 L 22,85 L 18,85 L 16,87 L 15,87 L 15,88 L 14,89 L 16,91 L 17,90 L 18,91 L 18,92 L 19,91 L 23,95 L 22,96 L 22,97 L 21,98 L 21,99 L 18,102 L 18,103 L 16,105 L 17,106 L 16,107 L 15,107 L 13,109 L 13,110 L 15,112 L 15,114 L 16,115 L 17,115 L 20,112 L 20,111 L 22,109 L 23,109 L 24,110 L 26,110 L 28,112 L 28,113 L 30,115 L 33,112 L 33,111 L 35,109 L 36,109 L 37,110 L 37,112 L 38,112 L 38,110 L 39,109 L 40,109 L 44,113 L 45,113 L 45,111 L 48,108 L 49,108 L 50,109 L 50,110 L 52,110 L 54,108 L 57,108 L 58,107 L 58,105 L 57,104 L 58,103 L 59,103 L 60,102 L 61,102 L 62,101 L 63,101 L 64,100 L 67,100 L 68,101 L 70,101 L 70,100 L 71,99 L 71,98 L 72,97 L 73,97 L 74,96 L 77,96 L 78,95 L 78,93 L 79,92 L 79,91 L 78,90 L 78,89 L 77,88 L 77,87 L 74,87 L 73,88 L 71,86 L 70,86 L 69,87 L 67,87 L 66,86 L 64,86 L 63,85 L 63,84 L 62,83 L 61,84 L 59,82 L 58,82 L 56,84 L 54,84 L 53,85 L 52,85 L 51,86 L 50,86 L 49,87 L 48,87 L 47,86 L 46,86 L 45,85 L 44,85 L 43,84 L 43,83 L 42,82 L 42,80 L 41,79 L 41,78 Z" fill="none" stroke="black" stroke-width="1"/>
</svg>