<svg xmlns="http://www.w3.org/2000/svg" width="121" height="80">
  <path d="M 28,22 L 27,23 L 23,23 L 23,25 L 20,28 L 16,28 L 14,26 L 12,26 L 10,24 L 10,23 L 6,23 L 2,27 L 1,27 L 0,28 L 0,30 L 1,31 L 2,31 L 3,32 L 3,34 L 4,33 L 6,35 L 6,36 L 8,36 L 9,37 L 11,37 L 12,36 L 13,36 L 15,38 L 16,37 L 19,37 L 20,38 L 20,39 L 21,40 L 21,41 L 22,42 L 22,43 L 21,44 L 21,46 L 19,48 L 16,48 L 15,49 L 14,49 L 14,50 L 13,51 L 13,52 L 12,53 L 12,55 L 13,55 L 14,56 L 15,56 L 16,57 L 19,57 L 20,56 L 21,56 L 23,58 L 29,58 L 31,60 L 31,61 L 32,60 L 32,58 L 33,57 L 35,57 L 36,56 L 37,56 L 37,54 L 36,53 L 36,52 L 38,50 L 40,50 L 40,48 L 41,47 L 41,45 L 42,44 L 44,44 L 45,43 L 44,42 L 44,41 L 41,38 L 40,38 L 38,36 L 37,36 L 34,33 L 34,32 L 32,30 L 33,29 L 32,28 L 33,27 L 32,26 L 32,25 L 29,22 Z" fill="none" stroke="black" stroke-width="1"/>
</svg>