<svg xmlns="http://www.w3.org/2000/svg" width="82" height="100">
  <path d="M 74,0 L 73,1 L 73,2 L 70,5 L 70,6 L 66,10 L 65,9 L 65,3 L 63,3 L 62,4 L 60,4 L 60,6 L 58,8 L 58,9 L 57,10 L 57,11 L 56,12 L 56,16 L 57,17 L 57,18 L 56,19 L 56,20 L 54,22 L 52,22 L 53,23 L 54,23 L 56,25 L 56,26 L 55,27 L 55,28 L 58,25 L 59,25 L 61,27 L 61,28 L 56,33 L 56,36 L 58,36 L 59,37 L 59,39 L 58,40 L 58,43 L 59,43 L 60,42 L 61,42 L 61,41 L 62,40 L 63,41 L 63,42 L 64,42 L 63,41 L 64,40 L 63,39 L 64,38 L 65,38 L 66,39 L 67,39 L 68,40 L 69,40 L 69,38 L 71,36 L 71,33 L 72,32 L 73,33 L 75,31 L 75,30 L 76,29 L 77,29 L 77,27 L 79,25 L 80,25 L 81,24 L 81,22 L 79,20 L 79,19 L 77,17 L 77,16 L 78,15 L 78,13 L 79,12 L 79,9 L 78,9 L 77,8 L 77,6 L 76,5 L 76,1 L 75,0 Z" fill="none" stroke="black" stroke-width="1"/>
</svg>