<svg xmlns="http://www.w3.org/2000/svg" width="81" height="68">
  <path d="M 12,65 L 11,66 L 11,67 L 12,66 Z" fill="none" stroke="black" stroke-width="1"/>
  <path d="M 33,57 L 35,57 Z" fill="none" stroke="black" stroke-width="1"/>
  <path d="M 25,25 L 25,26 L 22,29 L 20,29 L 19,28 L 18,28 L 18,30 L 17,31 L 16,31 L 15,32 L 14,32 L 13,33 L 14,34 L 14,37 L 13,38 L 13,40 L 12,41 L 12,42 L 14,44 L 14,45 L 16,47 L 16,49 L 14,51 L 13,51 L 12,52 L 12,54 L 11,55 L 10,55 L 10,56 L 7,59 L 6,58 L 6,61 L 4,63 L 4,65 L 5,65 L 6,64 L 9,64 L 9,63 L 11,61 L 12,61 L 13,62 L 13,63 L 14,62 L 14,59 L 16,57 L 17,58 L 17,59 L 18,59 L 18,58 L 17,57 L 17,54 L 18,53 L 18,52 L 21,49 L 22,49 L 22,48 L 21,47 L 23,45 L 25,47 L 25,48 L 26,48 L 28,50 L 28,52 L 29,52 L 30,53 L 30,55 L 28,57 L 29,57 L 31,55 L 34,55 L 35,54 L 36,54 L 35,53 L 34,54 L 33,53 L 33,52 L 35,50 L 37,50 L 38,51 L 38,52 L 39,52 L 38,51 L 38,50 L 35,50 L 33,48 L 33,47 L 34,46 L 34,45 L 33,45 L 32,44 L 32,43 L 31,42 L 29,42 L 27,40 L 31,36 L 32,36 L 36,32 L 35,31 L 36,30 L 34,28 L 33,29 L 32,28 L 31,28 L 29,26 L 29,25 Z" fill="none" stroke="black" stroke-width="1"/>
</svg>