<svg xmlns="http://www.w3.org/2000/svg" width="71" height="82">
  <path d="M 56,48 L 56,49 L 57,50 L 57,49 Z" fill="none" stroke="black" stroke-width="1"/>
  <path d="M 59,47 L 59,49 L 60,50 L 60,47 Z" fill="none" stroke="black" stroke-width="1"/>
  <path d="M 59,30 L 59,32 L 60,33 L 60,34 L 59,35 L 60,35 L 61,34 L 62,34 L 61,34 L 60,33 L 60,32 L 61,31 L 62,31 L 63,30 L 62,30 L 61,31 L 60,31 Z" fill="none" stroke="black" stroke-width="1"/>
  <path d="M 65,27 L 64,28 L 65,29 Z" fill="none" stroke="black" stroke-width="1"/>
  <path d="M 56,12 L 53,15 L 52,15 L 52,18 L 49,21 L 48,20 L 46,20 L 46,21 L 42,25 L 42,31 L 43,32 L 43,33 L 42,34 L 42,35 L 41,36 L 41,37 L 40,38 L 40,40 L 39,41 L 39,44 L 38,45 L 39,46 L 39,47 L 41,49 L 40,50 L 40,51 L 41,51 L 42,52 L 42,53 L 43,53 L 44,54 L 44,55 L 47,55 L 46,54 L 46,53 L 47,52 L 48,52 L 49,53 L 49,55 L 51,55 L 53,53 L 52,52 L 51,52 L 50,51 L 50,50 L 53,47 L 54,47 L 54,46 L 55,45 L 57,45 L 57,42 L 58,41 L 58,40 L 57,41 L 55,41 L 54,42 L 53,42 L 51,40 L 51,39 L 52,38 L 53,39 L 56,39 L 56,38 L 57,37 L 57,36 L 56,35 L 56,32 L 55,31 L 55,29 L 56,28 L 56,27 L 57,26 L 60,26 L 61,27 L 61,28 L 61,27 L 62,26 L 63,26 L 63,25 L 64,24 L 66,24 L 67,23 L 67,22 L 68,21 L 69,21 L 66,18 L 67,17 L 68,17 L 69,18 L 70,18 L 70,16 L 69,15 L 66,15 L 65,16 L 61,16 L 59,14 L 59,13 L 58,12 Z" fill="none" stroke="black" stroke-width="1"/>
</svg>