<svg xmlns="http://www.w3.org/2000/svg" width="76" height="94">
  <path d="M 37,56 L 36,57 L 34,57 L 33,58 L 33,59 L 31,61 L 30,61 L 28,59 L 26,59 L 25,60 L 23,60 L 22,61 L 23,62 L 23,63 L 20,66 L 13,66 L 11,68 L 10,68 L 9,69 L 8,69 L 7,70 L 6,70 L 6,71 L 4,73 L 4,74 L 6,76 L 6,77 L 5,78 L 6,78 L 8,80 L 10,80 L 11,79 L 12,79 L 13,78 L 15,78 L 16,79 L 17,79 L 19,81 L 19,82 L 18,83 L 18,86 L 17,87 L 15,87 L 14,88 L 14,89 L 13,90 L 13,91 L 12,92 L 12,93 L 14,93 L 15,92 L 18,92 L 19,91 L 20,91 L 21,90 L 25,90 L 26,89 L 31,89 L 33,87 L 34,87 L 35,86 L 35,85 L 34,84 L 34,82 L 35,81 L 35,80 L 36,79 L 36,78 L 37,77 L 37,76 L 38,75 L 38,74 L 39,73 L 38,72 L 38,71 L 39,70 L 41,70 L 42,69 L 43,69 L 44,68 L 43,67 L 43,65 L 44,64 L 44,63 L 45,62 L 46,62 L 47,61 L 45,59 L 44,59 L 42,61 L 40,61 L 38,59 L 38,57 Z" fill="none" stroke="black" stroke-width="1"/>
</svg>