<svg xmlns="http://www.w3.org/2000/svg" width="83" height="96">
  <path d="M 73,3 L 72,4 L 70,4 L 66,8 L 66,9 L 63,12 L 62,11 L 62,10 L 61,10 L 61,11 L 60,12 L 61,12 L 63,14 L 63,15 L 62,16 L 63,17 L 63,19 L 62,20 L 62,22 L 61,23 L 61,24 L 60,25 L 59,24 L 55,24 L 54,25 L 53,25 L 52,24 L 52,23 L 51,24 L 49,24 L 48,25 L 45,25 L 44,26 L 42,26 L 41,27 L 36,27 L 35,28 L 32,28 L 31,29 L 30,29 L 30,30 L 28,32 L 27,32 L 29,34 L 29,36 L 30,37 L 31,36 L 32,36 L 34,34 L 35,34 L 40,39 L 39,40 L 40,41 L 40,42 L 39,43 L 40,44 L 41,44 L 47,50 L 48,49 L 48,48 L 50,46 L 54,46 L 55,47 L 56,46 L 58,46 L 59,47 L 62,47 L 65,50 L 64,51 L 65,52 L 64,53 L 66,53 L 67,54 L 68,53 L 69,53 L 70,52 L 71,52 L 72,51 L 73,51 L 74,50 L 74,49 L 73,49 L 71,47 L 71,44 L 73,42 L 73,41 L 76,38 L 77,38 L 78,37 L 78,36 L 82,32 L 82,30 L 81,29 L 81,28 L 80,27 L 80,26 L 81,25 L 80,24 L 80,22 L 77,19 L 77,18 L 80,15 L 81,15 L 81,11 L 79,9 L 79,7 L 78,6 L 78,5 L 77,4 L 77,3 Z" fill="none" stroke="black" stroke-width="1"/>
</svg>