<svg xmlns="http://www.w3.org/2000/svg" width="83" height="96">
  <path d="M 24,0 L 24,1 L 23,2 L 22,2 L 21,1 L 20,2 L 19,2 L 19,3 L 18,4 L 17,4 L 16,3 L 16,2 L 15,1 L 14,2 L 13,2 L 12,3 L 11,2 L 10,3 L 10,4 L 9,5 L 8,5 L 4,9 L 3,9 L 3,10 L 2,11 L 2,12 L 1,13 L 0,13 L 2,15 L 2,16 L 3,17 L 3,18 L 4,19 L 4,20 L 3,21 L 4,22 L 4,25 L 5,25 L 6,24 L 7,24 L 8,23 L 10,23 L 12,25 L 12,27 L 14,29 L 16,29 L 17,28 L 17,27 L 19,25 L 19,24 L 20,23 L 21,23 L 22,22 L 23,23 L 25,23 L 26,24 L 28,24 L 29,25 L 29,26 L 30,27 L 30,28 L 31,28 L 32,27 L 35,27 L 36,26 L 41,26 L 42,25 L 44,25 L 45,24 L 46,24 L 46,23 L 48,21 L 49,21 L 49,19 L 48,19 L 47,20 L 46,19 L 46,18 L 45,18 L 44,17 L 44,16 L 45,15 L 46,15 L 45,14 L 45,13 L 46,12 L 48,14 L 48,15 L 51,15 L 52,14 L 55,14 L 58,11 L 60,11 L 60,9 L 59,9 L 58,8 L 57,8 L 56,9 L 54,9 L 53,8 L 52,8 L 51,9 L 49,9 L 48,8 L 47,8 L 46,7 L 45,7 L 44,6 L 41,6 L 40,5 L 38,5 L 37,4 L 35,4 L 34,3 L 32,3 L 31,2 L 30,2 L 28,0 Z" fill="none" stroke="black" stroke-width="1"/>
</svg>