<svg xmlns="http://www.w3.org/2000/svg" width="133" height="116">
  <path d="M 102,26 L 102,28 L 103,29 L 100,32 L 96,32 L 95,31 L 95,30 L 95,31 L 94,32 L 95,33 L 94,34 L 94,35 L 95,36 L 95,37 L 97,39 L 97,42 L 98,43 L 98,44 L 97,45 L 96,45 L 96,47 L 95,48 L 95,50 L 96,51 L 96,53 L 95,54 L 95,57 L 96,58 L 95,59 L 98,62 L 98,64 L 99,65 L 99,66 L 100,67 L 101,67 L 102,68 L 103,67 L 104,67 L 105,68 L 105,69 L 106,69 L 107,68 L 109,68 L 111,66 L 111,64 L 113,62 L 114,62 L 116,64 L 117,64 L 121,60 L 124,60 L 126,58 L 128,58 L 130,56 L 130,55 L 131,54 L 132,54 L 132,53 L 131,52 L 131,46 L 129,44 L 129,42 L 128,41 L 129,40 L 130,40 L 130,39 L 131,38 L 130,37 L 130,35 L 129,35 L 128,34 L 127,34 L 124,31 L 125,30 L 121,30 L 120,31 L 118,31 L 116,29 L 116,28 L 115,27 L 113,27 L 112,28 L 111,28 L 110,29 L 109,29 L 108,28 L 106,28 L 105,27 L 104,27 L 103,26 Z" fill="none" stroke="black" stroke-width="1"/>
</svg>