<svg xmlns="http://www.w3.org/2000/svg" width="133" height="116">
  <path d="M 83,19 L 82,20 L 81,20 L 78,23 L 78,24 L 76,26 L 74,26 L 73,25 L 71,25 L 70,26 L 68,26 L 66,24 L 65,24 L 65,27 L 66,28 L 66,29 L 64,31 L 62,31 L 60,33 L 58,33 L 58,35 L 59,36 L 59,37 L 58,38 L 58,41 L 57,42 L 57,45 L 56,46 L 55,46 L 55,49 L 54,50 L 54,54 L 53,55 L 54,56 L 54,58 L 53,59 L 53,61 L 54,62 L 54,64 L 55,65 L 56,65 L 58,67 L 58,70 L 59,71 L 59,75 L 60,75 L 64,71 L 68,71 L 69,72 L 69,73 L 70,74 L 72,74 L 74,76 L 78,76 L 80,74 L 80,72 L 81,71 L 85,71 L 88,68 L 90,68 L 91,67 L 92,68 L 93,67 L 93,64 L 94,63 L 95,63 L 96,62 L 97,62 L 94,59 L 95,58 L 94,57 L 94,54 L 95,53 L 95,51 L 94,50 L 94,48 L 95,47 L 95,45 L 96,44 L 97,44 L 97,43 L 96,42 L 96,39 L 94,37 L 94,36 L 93,35 L 93,34 L 94,33 L 93,32 L 94,31 L 94,29 L 88,23 L 87,23 L 84,20 L 84,19 Z" fill="none" stroke="black" stroke-width="1"/>
</svg>