<svg xmlns="http://www.w3.org/2000/svg" width="106" height="65">
  <path d="M 53,23 L 53,26 L 52,27 L 52,28 L 51,29 L 49,29 L 47,31 L 48,32 L 48,34 L 47,35 L 47,36 L 46,37 L 46,38 L 45,39 L 45,40 L 42,43 L 42,44 L 40,46 L 39,46 L 38,45 L 36,45 L 35,44 L 35,42 L 34,43 L 33,43 L 32,44 L 31,44 L 31,45 L 30,46 L 30,47 L 31,48 L 31,49 L 32,50 L 32,54 L 29,57 L 29,59 L 30,59 L 33,62 L 33,63 L 34,63 L 35,64 L 38,64 L 41,61 L 41,59 L 46,54 L 47,55 L 48,55 L 49,54 L 51,54 L 52,53 L 55,53 L 57,55 L 59,55 L 59,52 L 60,51 L 60,48 L 61,47 L 61,46 L 60,45 L 60,43 L 61,42 L 63,42 L 65,40 L 67,40 L 68,39 L 68,38 L 67,37 L 67,36 L 66,35 L 66,34 L 65,33 L 65,30 L 60,25 L 60,24 L 56,24 L 55,23 Z" fill="none" stroke="black" stroke-width="1"/>
</svg>