<svg xmlns="http://www.w3.org/2000/svg" width="101" height="73">
  <path d="M 70,31 L 68,33 L 68,34 L 67,35 L 67,38 L 65,40 L 67,42 L 67,43 L 68,44 L 69,44 L 71,46 L 72,46 L 76,50 L 76,54 L 75,55 L 75,58 L 74,59 L 74,61 L 73,62 L 73,66 L 74,67 L 74,70 L 73,71 L 73,72 L 74,72 L 75,71 L 76,71 L 79,68 L 81,68 L 84,65 L 86,65 L 88,63 L 89,63 L 89,61 L 88,61 L 87,60 L 88,59 L 89,59 L 90,58 L 92,58 L 93,57 L 95,57 L 96,56 L 97,56 L 97,55 L 98,54 L 98,53 L 99,52 L 99,51 L 100,50 L 99,50 L 98,49 L 98,48 L 97,48 L 94,45 L 94,43 L 91,40 L 91,37 L 89,37 L 85,41 L 84,41 L 83,42 L 82,42 L 81,41 L 81,39 L 79,37 L 79,35 L 77,35 L 75,33 L 72,33 L 71,32 L 71,31 Z" fill="none" stroke="black" stroke-width="1"/>
</svg>