<svg xmlns="http://www.w3.org/2000/svg" width="133" height="94">
  <path d="M 62,41 L 59,44 L 57,44 L 55,46 L 55,47 L 54,48 L 49,48 L 48,47 L 48,46 L 47,45 L 47,44 L 46,45 L 42,45 L 40,43 L 40,42 L 39,42 L 36,45 L 35,45 L 34,46 L 35,47 L 35,49 L 33,51 L 31,51 L 31,52 L 29,54 L 28,54 L 27,55 L 26,55 L 23,58 L 23,62 L 26,65 L 26,67 L 28,69 L 29,69 L 30,70 L 30,71 L 32,71 L 32,70 L 36,66 L 38,66 L 40,68 L 41,68 L 42,67 L 44,69 L 46,69 L 47,70 L 49,70 L 50,69 L 51,70 L 60,70 L 61,71 L 64,68 L 65,68 L 66,67 L 67,67 L 69,65 L 69,63 L 70,62 L 70,60 L 74,56 L 75,56 L 76,55 L 76,54 L 77,53 L 77,49 L 75,47 L 75,46 L 72,43 L 71,43 L 70,42 L 67,42 L 66,41 Z" fill="none" stroke="black" stroke-width="1"/>
</svg>