<svg xmlns="http://www.w3.org/2000/svg" width="101" height="118">
  <path d="M 68,50 L 67,51 L 62,51 L 58,55 L 56,55 L 54,57 L 54,58 L 56,60 L 55,61 L 55,62 L 56,63 L 56,67 L 55,68 L 53,68 L 52,69 L 52,70 L 51,71 L 51,76 L 52,77 L 52,80 L 53,81 L 53,83 L 52,84 L 52,92 L 50,94 L 50,95 L 49,96 L 49,104 L 50,105 L 49,106 L 51,108 L 51,109 L 52,110 L 52,111 L 53,111 L 54,110 L 55,111 L 55,110 L 60,105 L 61,105 L 62,104 L 63,104 L 64,103 L 65,103 L 66,102 L 67,102 L 68,101 L 69,101 L 70,100 L 71,100 L 73,98 L 76,98 L 77,99 L 77,102 L 78,103 L 78,106 L 79,107 L 79,109 L 75,113 L 73,113 L 74,113 L 76,115 L 76,116 L 77,117 L 78,116 L 79,116 L 80,115 L 81,115 L 81,114 L 84,111 L 85,111 L 88,108 L 88,107 L 92,103 L 93,103 L 96,100 L 97,100 L 98,99 L 98,98 L 94,94 L 93,94 L 93,97 L 92,98 L 90,98 L 86,94 L 86,93 L 84,91 L 84,87 L 86,85 L 86,84 L 87,83 L 87,82 L 88,81 L 88,75 L 83,75 L 82,74 L 82,73 L 81,72 L 81,69 L 77,65 L 77,63 L 76,62 L 76,57 L 73,54 L 73,50 Z" fill="none" stroke="black" stroke-width="1"/>
</svg>