<svg xmlns="http://www.w3.org/2000/svg" width="124" height="63">
  <path d="M 32,0 L 32,1 L 30,3 L 27,3 L 26,4 L 25,4 L 24,5 L 23,5 L 22,6 L 24,8 L 24,11 L 23,12 L 21,12 L 20,13 L 18,13 L 17,12 L 16,13 L 13,13 L 12,14 L 10,14 L 9,15 L 10,16 L 10,19 L 14,19 L 15,18 L 16,18 L 17,17 L 18,17 L 20,19 L 20,20 L 24,24 L 25,24 L 27,26 L 27,27 L 28,28 L 28,33 L 27,34 L 27,36 L 29,36 L 30,35 L 33,35 L 33,34 L 34,33 L 36,33 L 41,38 L 42,38 L 43,39 L 44,39 L 44,38 L 45,37 L 48,37 L 50,39 L 50,38 L 51,37 L 52,37 L 53,36 L 54,36 L 55,37 L 56,37 L 57,36 L 57,33 L 58,32 L 58,31 L 60,29 L 60,28 L 59,27 L 59,26 L 58,25 L 58,24 L 57,24 L 54,21 L 54,19 L 53,18 L 53,17 L 52,16 L 51,17 L 50,16 L 49,16 L 48,15 L 48,14 L 44,10 L 44,7 L 46,5 L 45,4 L 45,3 L 44,3 L 43,2 L 42,2 L 41,3 L 40,2 L 39,2 L 38,3 L 36,3 L 33,0 Z" fill="none" stroke="black" stroke-width="1"/>
</svg>