<svg xmlns="http://www.w3.org/2000/svg" width="124" height="63">
  <path d="M 115,2 L 114,3 L 113,3 L 111,5 L 110,5 L 108,7 L 106,7 L 105,8 L 105,9 L 103,11 L 102,11 L 101,10 L 99,10 L 98,11 L 97,11 L 96,12 L 96,13 L 95,14 L 95,15 L 94,16 L 93,16 L 91,18 L 89,18 L 88,19 L 88,20 L 86,22 L 83,22 L 82,23 L 81,23 L 80,22 L 79,23 L 78,23 L 77,22 L 76,23 L 75,23 L 72,26 L 70,26 L 70,27 L 68,29 L 66,27 L 64,27 L 62,29 L 61,29 L 59,31 L 59,32 L 58,33 L 58,36 L 56,38 L 55,38 L 54,37 L 53,37 L 52,38 L 51,38 L 51,39 L 48,42 L 48,43 L 51,46 L 54,46 L 55,47 L 55,48 L 56,48 L 58,50 L 59,50 L 60,49 L 63,49 L 63,48 L 64,47 L 65,47 L 66,46 L 67,46 L 69,48 L 70,48 L 72,50 L 73,50 L 74,51 L 75,51 L 76,52 L 77,52 L 78,53 L 79,52 L 79,51 L 83,47 L 85,47 L 87,49 L 90,49 L 92,47 L 93,47 L 94,48 L 94,49 L 95,50 L 95,51 L 96,52 L 96,53 L 97,54 L 97,55 L 98,56 L 98,57 L 100,59 L 100,62 L 101,61 L 103,61 L 106,58 L 107,58 L 106,57 L 107,56 L 106,55 L 108,53 L 108,51 L 107,50 L 108,49 L 108,48 L 107,47 L 107,46 L 106,45 L 106,44 L 100,38 L 99,38 L 96,35 L 96,34 L 98,32 L 98,31 L 97,30 L 97,29 L 98,28 L 98,27 L 99,26 L 99,25 L 100,24 L 101,24 L 104,21 L 112,21 L 116,17 L 118,17 L 119,16 L 123,16 L 122,15 L 122,10 L 123,9 L 119,5 L 118,5 L 116,3 L 116,2 Z" fill="none" stroke="black" stroke-width="1"/>
</svg>