<svg xmlns="http://www.w3.org/2000/svg" width="119" height="69">
  <path d="M 30,31 L 29,32 L 28,32 L 26,34 L 27,35 L 26,36 L 26,41 L 27,42 L 26,43 L 22,43 L 21,44 L 19,44 L 15,48 L 7,48 L 4,51 L 3,51 L 3,52 L 2,53 L 2,54 L 1,55 L 1,56 L 2,57 L 2,58 L 0,60 L 0,61 L 2,63 L 3,63 L 7,67 L 9,67 L 9,66 L 10,65 L 10,64 L 11,63 L 12,63 L 16,59 L 17,59 L 17,58 L 19,56 L 20,57 L 21,56 L 22,56 L 23,55 L 25,57 L 25,58 L 26,58 L 26,57 L 27,56 L 28,56 L 29,55 L 30,56 L 31,56 L 31,55 L 32,54 L 36,54 L 37,55 L 38,54 L 37,53 L 37,51 L 40,48 L 40,47 L 43,44 L 46,44 L 46,42 L 45,41 L 45,40 L 43,38 L 43,37 L 41,35 L 41,32 L 40,32 L 39,31 L 35,31 L 34,32 L 33,32 L 32,31 Z" fill="none" stroke="black" stroke-width="1"/>
</svg>