<svg xmlns="http://www.w3.org/2000/svg" width="119" height="69">
  <path d="M 72,16 L 72,17 L 71,18 L 71,21 L 70,22 L 70,23 L 66,27 L 66,28 L 67,28 L 69,30 L 70,30 L 71,31 L 72,31 L 77,36 L 76,37 L 75,37 L 75,40 L 74,41 L 74,43 L 78,47 L 78,48 L 80,48 L 82,50 L 82,51 L 83,52 L 83,57 L 85,57 L 86,58 L 86,59 L 87,60 L 87,61 L 88,62 L 88,64 L 90,66 L 90,68 L 93,68 L 94,67 L 96,67 L 97,68 L 98,67 L 98,66 L 101,63 L 104,63 L 105,62 L 106,62 L 108,60 L 105,57 L 105,55 L 104,54 L 104,51 L 102,49 L 101,49 L 97,45 L 95,45 L 94,44 L 94,43 L 92,41 L 92,35 L 90,33 L 90,32 L 91,31 L 90,30 L 90,25 L 87,25 L 86,24 L 85,24 L 83,22 L 83,20 L 81,18 L 81,16 L 78,16 L 77,17 L 75,17 L 74,16 Z" fill="none" stroke="black" stroke-width="1"/>
</svg>