<svg xmlns="http://www.w3.org/2000/svg" width="76" height="94">
  <path d="M 33,0 L 32,1 L 31,1 L 30,2 L 29,2 L 26,5 L 25,5 L 24,6 L 21,6 L 19,8 L 19,9 L 17,11 L 16,10 L 14,10 L 13,11 L 10,11 L 10,12 L 9,13 L 8,13 L 6,15 L 6,16 L 9,19 L 9,21 L 10,22 L 9,23 L 9,24 L 10,25 L 10,26 L 11,27 L 11,29 L 7,33 L 7,34 L 5,36 L 4,36 L 2,38 L 2,39 L 0,41 L 0,44 L 1,45 L 3,45 L 4,44 L 6,44 L 7,43 L 10,43 L 11,42 L 12,42 L 13,41 L 14,42 L 15,41 L 16,42 L 17,41 L 21,41 L 22,42 L 23,41 L 24,42 L 26,42 L 27,43 L 30,40 L 31,40 L 31,39 L 34,36 L 34,35 L 36,33 L 36,32 L 41,27 L 44,27 L 43,26 L 43,25 L 42,24 L 42,22 L 40,20 L 40,19 L 38,17 L 38,13 L 37,14 L 36,13 L 36,9 L 37,8 L 37,6 L 39,4 L 41,6 L 40,7 L 40,9 L 39,10 L 40,11 L 40,12 L 41,12 L 41,11 L 42,10 L 42,9 L 44,7 L 44,6 L 47,3 L 45,1 L 44,1 L 43,2 L 42,2 L 41,3 L 39,3 L 37,1 L 36,1 L 35,0 Z" fill="none" stroke="black" stroke-width="1"/>
</svg>