<svg xmlns="http://www.w3.org/2000/svg" width="66" height="71">
  <path d="M 26,0 L 26,2 L 25,3 L 25,6 L 21,10 L 20,10 L 20,12 L 19,13 L 19,14 L 18,15 L 18,16 L 17,17 L 17,18 L 16,19 L 16,20 L 15,21 L 14,21 L 14,22 L 12,24 L 12,26 L 11,27 L 10,27 L 7,30 L 6,30 L 5,31 L 9,35 L 10,35 L 11,36 L 12,35 L 18,35 L 19,34 L 20,34 L 21,33 L 21,31 L 22,30 L 22,29 L 23,28 L 23,26 L 24,25 L 24,23 L 27,20 L 28,20 L 30,18 L 32,18 L 35,15 L 41,15 L 42,16 L 43,16 L 44,15 L 44,13 L 45,12 L 46,12 L 47,11 L 47,10 L 43,6 L 41,6 L 39,8 L 38,8 L 35,5 L 35,4 L 34,4 L 33,3 L 30,3 L 29,2 L 28,2 Z" fill="none" stroke="black" stroke-width="1"/>
</svg>