<svg xmlns="http://www.w3.org/2000/svg" width="63" height="53">
  <path d="M 26,0 L 22,4 L 21,4 L 20,3 L 19,3 L 18,4 L 19,5 L 17,7 L 14,7 L 14,8 L 15,8 L 17,10 L 17,11 L 18,11 L 19,12 L 19,13 L 20,14 L 20,15 L 19,16 L 19,17 L 18,18 L 18,20 L 19,21 L 19,22 L 20,22 L 21,23 L 21,24 L 22,23 L 23,23 L 24,22 L 26,22 L 27,23 L 31,23 L 34,26 L 37,26 L 38,27 L 44,27 L 45,28 L 46,28 L 47,29 L 47,30 L 48,31 L 56,31 L 59,34 L 62,34 L 62,33 L 61,32 L 61,30 L 60,29 L 59,29 L 57,27 L 54,27 L 52,25 L 52,24 L 53,23 L 54,23 L 54,22 L 53,21 L 52,21 L 51,20 L 49,20 L 48,19 L 47,19 L 45,17 L 45,16 L 46,15 L 46,13 L 45,12 L 45,11 L 43,9 L 43,8 L 41,6 L 41,4 L 40,3 L 40,4 L 37,7 L 34,7 L 33,6 L 31,6 L 28,3 L 29,2 L 28,1 L 27,1 Z" fill="none" stroke="black" stroke-width="1"/>
</svg>