<svg xmlns="http://www.w3.org/2000/svg" width="66" height="40">
  <path d="M 24,1 L 23,2 L 22,2 L 21,3 L 19,3 L 18,4 L 15,4 L 14,5 L 13,4 L 12,4 L 11,5 L 10,4 L 9,4 L 8,5 L 6,5 L 4,7 L 2,7 L 0,9 L 3,12 L 4,12 L 7,15 L 7,17 L 8,18 L 8,21 L 10,23 L 9,24 L 9,25 L 10,26 L 12,26 L 13,25 L 14,25 L 15,24 L 16,24 L 19,27 L 17,29 L 19,31 L 22,31 L 23,30 L 23,29 L 25,27 L 25,26 L 27,24 L 27,23 L 29,21 L 30,21 L 32,19 L 35,19 L 37,17 L 37,16 L 38,15 L 38,14 L 40,12 L 40,8 L 39,8 L 36,5 L 34,5 L 33,6 L 28,6 L 24,2 Z" fill="none" stroke="black" stroke-width="1"/>
</svg>