<svg xmlns="http://www.w3.org/2000/svg" width="77" height="61">
  <path d="M 58,31 L 56,33 L 55,33 L 54,34 L 53,34 L 52,35 L 51,35 L 50,34 L 47,34 L 46,35 L 45,35 L 42,38 L 42,40 L 44,42 L 44,47 L 43,48 L 43,49 L 46,52 L 46,55 L 47,55 L 48,56 L 50,56 L 52,58 L 53,58 L 54,59 L 55,59 L 56,60 L 57,60 L 58,59 L 57,58 L 57,56 L 58,55 L 59,55 L 59,52 L 58,51 L 58,48 L 62,44 L 63,45 L 64,45 L 65,46 L 66,46 L 67,45 L 67,43 L 68,42 L 68,41 L 70,39 L 73,39 L 74,40 L 75,40 L 76,39 L 76,38 L 74,36 L 73,36 L 72,35 L 72,34 L 69,34 L 68,33 L 66,33 L 64,31 Z" fill="none" stroke="black" stroke-width="1"/>
</svg>