<svg xmlns="http://www.w3.org/2000/svg" width="89" height="129">
  <path d="M 14,91 L 12,93 L 13,94 L 13,96 L 12,97 L 12,98 L 10,100 L 9,100 L 8,101 L 7,100 L 3,100 L 1,102 L 0,102 L 0,103 L 3,106 L 3,109 L 0,112 L 0,113 L 1,114 L 3,114 L 4,115 L 5,115 L 6,116 L 7,116 L 8,117 L 10,117 L 11,116 L 19,116 L 24,121 L 26,121 L 28,123 L 29,122 L 30,122 L 34,126 L 35,126 L 37,124 L 40,124 L 41,123 L 42,123 L 43,124 L 43,125 L 44,126 L 45,126 L 47,124 L 48,124 L 49,125 L 50,124 L 51,124 L 52,123 L 53,123 L 54,124 L 54,125 L 55,126 L 55,127 L 56,128 L 59,128 L 59,127 L 58,126 L 58,124 L 59,123 L 59,121 L 61,119 L 64,119 L 65,118 L 66,118 L 67,117 L 66,116 L 66,115 L 64,115 L 62,113 L 62,111 L 61,110 L 61,109 L 59,109 L 58,110 L 51,110 L 51,111 L 50,112 L 49,112 L 45,108 L 44,108 L 43,109 L 40,109 L 38,107 L 36,107 L 35,106 L 35,105 L 34,104 L 34,103 L 35,102 L 35,100 L 33,100 L 32,101 L 28,101 L 26,99 L 25,100 L 24,100 L 20,96 L 19,96 Z" fill="none" stroke="black" stroke-width="1"/>
</svg>