<svg xmlns="http://www.w3.org/2000/svg" width="115" height="69">
  <path d="M 57,17 L 56,18 L 56,20 L 54,22 L 54,24 L 53,25 L 52,25 L 52,26 L 49,29 L 48,29 L 45,32 L 45,33 L 44,34 L 44,41 L 40,45 L 39,45 L 42,48 L 43,48 L 44,49 L 45,49 L 46,48 L 47,48 L 48,49 L 48,50 L 50,52 L 51,52 L 52,53 L 52,54 L 53,55 L 54,55 L 56,57 L 56,58 L 57,58 L 59,56 L 61,56 L 62,55 L 63,56 L 64,56 L 64,55 L 67,52 L 67,51 L 68,50 L 68,49 L 71,46 L 73,46 L 72,46 L 71,45 L 71,43 L 68,40 L 69,39 L 68,38 L 67,38 L 66,37 L 66,36 L 67,35 L 68,35 L 67,34 L 68,33 L 69,33 L 68,32 L 66,32 L 65,31 L 64,31 L 61,28 L 62,27 L 62,26 L 64,24 L 63,23 L 65,21 L 62,21 L 61,20 L 60,20 L 59,19 L 59,18 L 58,17 Z" fill="none" stroke="black" stroke-width="1"/>
</svg>