<svg xmlns="http://www.w3.org/2000/svg" width="115" height="69">
  <path d="M 28,11 L 27,12 L 23,12 L 22,13 L 18,13 L 17,14 L 15,14 L 14,15 L 13,15 L 12,16 L 11,16 L 10,17 L 9,17 L 9,20 L 8,21 L 8,23 L 9,23 L 11,25 L 11,26 L 12,26 L 14,28 L 14,29 L 17,32 L 18,32 L 19,33 L 19,34 L 21,36 L 21,37 L 19,39 L 21,41 L 28,41 L 29,42 L 31,42 L 32,43 L 33,43 L 34,44 L 34,45 L 35,45 L 36,44 L 37,44 L 38,45 L 39,44 L 40,44 L 43,41 L 43,34 L 44,33 L 44,32 L 47,29 L 43,25 L 42,26 L 41,25 L 41,24 L 40,23 L 39,24 L 37,24 L 36,23 L 36,22 L 37,21 L 34,18 L 32,20 L 29,20 L 28,19 L 28,17 L 27,16 L 28,15 L 28,14 L 29,13 L 29,12 Z" fill="none" stroke="black" stroke-width="1"/>
</svg>