<svg xmlns="http://www.w3.org/2000/svg" width="77" height="61">
  <path d="M 53,0 L 53,1 L 50,4 L 49,4 L 48,5 L 47,5 L 49,7 L 49,8 L 51,10 L 51,11 L 50,12 L 50,13 L 49,14 L 49,15 L 48,16 L 48,18 L 47,19 L 47,22 L 45,24 L 44,24 L 43,25 L 42,25 L 41,26 L 38,26 L 37,27 L 37,28 L 39,30 L 40,29 L 41,30 L 42,30 L 45,33 L 44,34 L 44,35 L 45,34 L 46,34 L 47,33 L 50,33 L 51,34 L 52,34 L 53,33 L 54,33 L 55,32 L 56,32 L 58,30 L 63,30 L 63,29 L 62,28 L 62,27 L 61,26 L 61,25 L 66,20 L 66,19 L 67,18 L 67,12 L 66,11 L 66,10 L 65,9 L 64,9 L 62,7 L 61,7 L 60,6 L 60,4 L 58,2 L 56,2 L 55,1 L 54,1 Z" fill="none" stroke="black" stroke-width="1"/>
</svg>