<svg xmlns="http://www.w3.org/2000/svg" width="74" height="119">
  <path d="M 5,51 L 5,52 L 3,54 L 3,56 L 4,57 L 4,58 L 5,59 L 5,60 L 6,61 L 6,63 L 7,64 L 7,70 L 6,71 L 6,72 L 3,75 L 3,76 L 2,77 L 2,79 L 3,80 L 4,80 L 5,81 L 5,83 L 8,83 L 9,84 L 10,84 L 15,79 L 17,79 L 19,81 L 20,81 L 21,80 L 23,80 L 23,79 L 24,78 L 24,76 L 28,72 L 31,72 L 40,63 L 38,61 L 38,59 L 36,57 L 36,56 L 35,55 L 35,53 L 34,52 L 33,53 L 32,53 L 31,52 L 30,52 L 27,55 L 26,55 L 26,57 L 25,58 L 24,58 L 23,59 L 20,59 L 19,58 L 17,58 L 15,56 L 15,55 L 14,54 L 13,54 L 12,53 L 7,53 Z" fill="none" stroke="black" stroke-width="1"/>
</svg>