<svg xmlns="http://www.w3.org/2000/svg" width="74" height="119">
  <path d="M 24,79 L 24,80 L 23,81 L 21,81 L 20,82 L 19,82 L 17,80 L 15,80 L 10,85 L 9,85 L 8,84 L 5,84 L 4,83 L 4,81 L 3,81 L 2,80 L 1,81 L 1,85 L 0,86 L 0,87 L 1,88 L 1,90 L 2,91 L 2,92 L 3,93 L 3,95 L 4,96 L 4,98 L 2,100 L 2,101 L 1,102 L 1,105 L 0,106 L 0,107 L 1,108 L 1,113 L 0,114 L 0,116 L 1,117 L 1,118 L 4,118 L 5,117 L 6,117 L 7,116 L 10,116 L 11,115 L 12,115 L 14,113 L 16,113 L 17,112 L 18,112 L 21,109 L 22,109 L 24,107 L 25,107 L 26,106 L 27,106 L 28,105 L 29,105 L 28,105 L 27,104 L 25,104 L 24,103 L 24,102 L 25,101 L 25,99 L 24,98 L 24,95 L 26,93 L 27,93 L 28,92 L 30,92 L 31,91 L 32,91 L 32,90 L 31,89 L 31,87 L 29,85 L 28,85 L 25,82 L 25,79 Z" fill="none" stroke="black" stroke-width="1"/>
</svg>