<svg xmlns="http://www.w3.org/2000/svg" width="67" height="91">
  <path d="M 57,14 L 56,15 L 55,15 L 54,16 L 53,16 L 52,17 L 51,17 L 50,18 L 50,19 L 49,20 L 47,20 L 46,21 L 45,20 L 42,20 L 41,21 L 41,22 L 40,23 L 40,24 L 39,25 L 39,26 L 38,27 L 37,27 L 35,29 L 35,30 L 36,30 L 37,31 L 38,31 L 39,32 L 39,34 L 41,36 L 41,40 L 39,42 L 39,43 L 38,44 L 38,45 L 36,47 L 36,48 L 35,49 L 36,49 L 37,48 L 38,48 L 39,47 L 40,47 L 41,46 L 43,46 L 44,45 L 48,45 L 49,44 L 53,44 L 54,43 L 54,41 L 56,39 L 57,39 L 59,41 L 62,41 L 63,40 L 63,35 L 62,34 L 64,32 L 65,32 L 65,30 L 63,28 L 63,26 L 62,25 L 62,21 L 64,19 L 65,19 L 65,17 L 66,16 L 64,14 L 62,14 L 61,15 L 60,15 L 59,14 Z" fill="none" stroke="black" stroke-width="1"/>
</svg>