<svg xmlns="http://www.w3.org/2000/svg" width="67" height="91">
  <path d="M 25,0 L 25,1 L 23,3 L 23,4 L 22,5 L 22,6 L 21,7 L 21,11 L 20,12 L 20,13 L 18,15 L 15,15 L 14,16 L 14,17 L 15,17 L 20,22 L 20,23 L 19,24 L 20,24 L 21,25 L 23,25 L 24,26 L 25,26 L 26,27 L 26,28 L 27,29 L 27,30 L 28,31 L 28,32 L 32,32 L 33,31 L 34,31 L 34,29 L 37,26 L 38,26 L 38,25 L 39,24 L 39,23 L 40,22 L 40,21 L 42,19 L 42,14 L 38,10 L 38,9 L 37,8 L 35,8 L 33,6 L 31,6 L 30,5 L 30,4 L 26,0 Z" fill="none" stroke="black" stroke-width="1"/>
</svg>