<svg xmlns="http://www.w3.org/2000/svg" width="74" height="119">
  <path d="M 54,0 L 53,1 L 53,2 L 52,3 L 50,3 L 48,5 L 43,5 L 43,7 L 42,8 L 42,9 L 38,13 L 34,13 L 32,15 L 31,15 L 26,20 L 26,21 L 25,22 L 25,23 L 21,27 L 22,27 L 23,28 L 23,29 L 26,32 L 27,32 L 33,38 L 34,38 L 36,36 L 38,36 L 39,35 L 41,35 L 42,34 L 44,34 L 45,33 L 48,33 L 49,32 L 50,32 L 51,31 L 52,31 L 54,33 L 55,33 L 56,34 L 57,34 L 59,36 L 61,36 L 61,35 L 64,32 L 67,32 L 68,31 L 68,30 L 69,29 L 69,25 L 70,24 L 70,23 L 71,22 L 71,21 L 73,19 L 72,19 L 70,17 L 70,16 L 71,15 L 71,14 L 72,13 L 72,12 L 71,11 L 71,10 L 67,10 L 66,11 L 66,12 L 65,13 L 64,13 L 61,16 L 60,16 L 59,15 L 59,12 L 58,11 L 58,10 L 59,9 L 59,7 L 57,5 L 57,4 L 55,2 L 55,1 Z" fill="none" stroke="black" stroke-width="1"/>
</svg>