<svg xmlns="http://www.w3.org/2000/svg" width="106" height="123">
  <path d="M 74,0 L 73,1 L 70,1 L 67,4 L 66,4 L 65,5 L 64,5 L 62,7 L 61,7 L 60,8 L 60,12 L 58,14 L 58,16 L 55,19 L 55,23 L 54,24 L 53,24 L 53,25 L 54,25 L 56,27 L 56,28 L 53,31 L 49,31 L 48,32 L 46,32 L 45,33 L 44,33 L 43,34 L 43,37 L 44,38 L 45,38 L 46,39 L 47,39 L 50,42 L 51,42 L 52,43 L 51,44 L 51,46 L 53,44 L 55,44 L 56,43 L 60,43 L 61,42 L 62,42 L 63,41 L 64,41 L 65,40 L 68,40 L 69,39 L 70,39 L 71,38 L 72,38 L 73,37 L 74,38 L 75,37 L 81,37 L 81,36 L 82,35 L 82,33 L 84,31 L 84,30 L 83,29 L 84,28 L 83,27 L 83,26 L 81,24 L 80,24 L 78,22 L 77,22 L 76,21 L 74,21 L 73,20 L 72,20 L 70,18 L 70,16 L 71,15 L 71,12 L 72,11 L 72,10 L 73,9 L 73,8 L 76,5 L 77,5 L 77,0 L 76,1 L 75,0 Z" fill="none" stroke="black" stroke-width="1"/>
</svg>