<svg xmlns="http://www.w3.org/2000/svg" width="106" height="123">
  <path d="M 28,32 L 28,34 L 27,35 L 27,36 L 26,37 L 26,39 L 25,40 L 25,43 L 26,44 L 26,46 L 27,47 L 27,54 L 25,56 L 22,56 L 21,57 L 19,57 L 18,56 L 16,56 L 16,57 L 17,58 L 17,59 L 16,60 L 16,61 L 14,63 L 14,66 L 10,70 L 13,73 L 15,73 L 16,72 L 18,72 L 21,75 L 22,74 L 24,74 L 26,76 L 28,76 L 31,79 L 33,79 L 34,80 L 35,80 L 36,81 L 37,81 L 38,82 L 38,84 L 39,84 L 41,86 L 44,86 L 46,88 L 47,88 L 47,86 L 49,84 L 50,84 L 51,83 L 51,82 L 52,81 L 52,80 L 54,78 L 53,78 L 52,77 L 52,74 L 54,72 L 56,72 L 56,70 L 55,69 L 55,63 L 53,61 L 53,60 L 52,59 L 52,57 L 55,54 L 55,53 L 52,50 L 52,49 L 50,47 L 50,44 L 51,43 L 50,43 L 47,40 L 46,40 L 45,39 L 44,39 L 42,37 L 42,34 L 41,35 L 35,35 L 34,36 L 33,36 L 32,35 L 31,35 Z" fill="none" stroke="black" stroke-width="1"/>
</svg>