<svg xmlns="http://www.w3.org/2000/svg" width="89" height="129">
  <path d="M 51,70 L 48,73 L 46,71 L 45,71 L 44,72 L 43,71 L 42,71 L 41,72 L 40,72 L 39,71 L 35,71 L 34,72 L 33,71 L 32,71 L 31,72 L 32,73 L 31,74 L 31,76 L 33,78 L 34,78 L 37,75 L 38,75 L 43,80 L 43,81 L 42,82 L 42,88 L 41,89 L 41,90 L 40,91 L 35,91 L 35,92 L 34,93 L 34,94 L 33,95 L 32,95 L 31,94 L 27,98 L 27,99 L 28,100 L 32,100 L 33,99 L 35,99 L 36,100 L 36,102 L 35,103 L 35,104 L 36,105 L 36,106 L 38,106 L 40,108 L 43,108 L 44,107 L 45,107 L 49,111 L 50,111 L 50,110 L 51,109 L 58,109 L 59,108 L 63,108 L 64,107 L 66,107 L 67,108 L 68,108 L 69,109 L 70,109 L 71,108 L 80,108 L 81,107 L 81,101 L 74,94 L 74,91 L 73,90 L 73,89 L 74,88 L 74,87 L 72,85 L 72,84 L 70,82 L 68,82 L 67,83 L 61,83 L 60,82 L 60,81 L 59,81 L 58,80 L 57,80 L 56,79 L 56,75 L 54,73 L 54,71 L 53,70 Z" fill="none" stroke="black" stroke-width="1"/>
</svg>