<svg xmlns="http://www.w3.org/2000/svg" width="60" height="76">
  <path d="M 39,0 L 38,1 L 38,2 L 37,3 L 36,3 L 35,4 L 23,4 L 22,5 L 21,5 L 20,6 L 19,6 L 18,7 L 16,7 L 17,8 L 15,10 L 12,10 L 14,12 L 14,14 L 12,16 L 12,17 L 9,20 L 5,20 L 5,21 L 6,22 L 6,23 L 7,24 L 7,26 L 8,27 L 8,29 L 9,30 L 9,31 L 10,31 L 11,32 L 13,32 L 15,30 L 19,30 L 20,31 L 21,31 L 23,33 L 23,34 L 25,34 L 27,36 L 27,37 L 28,37 L 29,38 L 30,38 L 31,37 L 33,37 L 37,33 L 38,33 L 39,34 L 40,34 L 42,32 L 43,32 L 44,31 L 46,33 L 48,31 L 49,31 L 50,30 L 50,29 L 51,28 L 51,26 L 52,25 L 53,25 L 55,23 L 56,23 L 56,22 L 58,20 L 59,20 L 56,17 L 56,16 L 55,15 L 55,14 L 54,14 L 51,11 L 50,11 L 48,9 L 48,6 L 47,6 L 46,5 L 46,3 L 45,2 L 43,2 L 42,1 L 42,0 Z" fill="none" stroke="black" stroke-width="1"/>
</svg>