<svg xmlns="http://www.w3.org/2000/svg" width="230" height="103">
  <path d="M 200,38 L 198,40 L 196,40 L 195,39 L 195,41 L 196,42 L 196,43 L 197,44 L 197,45 L 198,46 L 197,47 L 197,49 L 198,49 L 199,50 L 199,51 L 198,52 L 198,55 L 199,56 L 199,57 L 198,58 L 197,58 L 196,59 L 195,59 L 194,60 L 192,60 L 191,61 L 190,61 L 189,62 L 188,62 L 187,63 L 186,63 L 185,64 L 183,64 L 182,65 L 182,66 L 183,67 L 182,68 L 181,68 L 181,69 L 178,72 L 178,73 L 177,74 L 177,75 L 176,76 L 176,87 L 177,88 L 177,92 L 179,94 L 179,95 L 180,96 L 180,97 L 179,98 L 180,99 L 180,100 L 181,101 L 184,101 L 185,102 L 186,102 L 187,101 L 187,100 L 188,99 L 188,98 L 192,94 L 193,94 L 194,93 L 194,92 L 196,90 L 196,89 L 201,84 L 201,83 L 202,82 L 202,81 L 203,80 L 204,80 L 205,79 L 206,79 L 207,78 L 208,78 L 212,74 L 213,74 L 213,72 L 215,70 L 216,70 L 217,69 L 220,69 L 221,68 L 222,68 L 224,66 L 227,66 L 227,65 L 228,64 L 229,64 L 228,63 L 229,62 L 229,56 L 227,54 L 228,53 L 228,49 L 227,48 L 227,47 L 226,46 L 226,45 L 225,44 L 221,44 L 220,43 L 219,43 L 218,42 L 217,42 L 216,41 L 215,41 L 214,40 L 212,40 L 211,39 L 208,39 L 207,40 L 204,40 L 202,38 Z" fill="none" stroke="black" stroke-width="1"/>
</svg>