<svg xmlns="http://www.w3.org/2000/svg" width="180" height="109">
  <path d="M 130,63 L 128,65 L 121,65 L 120,66 L 119,66 L 118,67 L 117,67 L 116,68 L 115,68 L 112,71 L 112,73 L 111,74 L 105,74 L 103,76 L 102,76 L 101,77 L 96,77 L 93,74 L 92,75 L 85,75 L 84,76 L 83,76 L 82,75 L 81,75 L 80,74 L 77,74 L 76,75 L 74,75 L 73,76 L 71,76 L 70,75 L 69,75 L 69,78 L 67,80 L 67,81 L 68,82 L 70,82 L 71,83 L 73,83 L 74,84 L 76,84 L 78,82 L 80,82 L 82,84 L 85,84 L 86,83 L 89,83 L 90,84 L 92,84 L 93,85 L 94,85 L 95,86 L 96,86 L 97,87 L 98,87 L 99,88 L 103,88 L 105,90 L 105,91 L 106,92 L 106,93 L 107,94 L 107,98 L 106,99 L 108,101 L 108,107 L 107,108 L 109,108 L 110,107 L 111,107 L 111,106 L 112,105 L 111,104 L 115,100 L 115,99 L 116,98 L 116,97 L 122,91 L 123,91 L 125,89 L 129,89 L 132,86 L 132,85 L 133,84 L 133,82 L 134,81 L 139,81 L 141,79 L 143,79 L 143,78 L 142,77 L 141,77 L 139,75 L 139,72 L 136,69 L 136,68 L 135,67 L 135,66 L 132,63 Z" fill="none" stroke="black" stroke-width="1"/>
</svg>