<svg xmlns="http://www.w3.org/2000/svg" width="95" height="92">
  <path d="M 18,41 L 17,42 L 15,42 L 13,44 L 11,44 L 9,46 L 9,49 L 6,52 L 5,52 L 5,53 L 4,54 L 4,56 L 5,57 L 5,59 L 4,60 L 4,64 L 2,66 L 1,66 L 1,68 L 0,69 L 0,70 L 1,70 L 3,68 L 5,68 L 6,67 L 8,67 L 9,66 L 10,66 L 11,65 L 12,65 L 13,64 L 15,64 L 16,63 L 17,63 L 17,60 L 23,54 L 25,54 L 24,53 L 24,52 L 25,51 L 26,51 L 27,50 L 30,50 L 30,47 L 28,45 L 28,43 L 24,43 L 23,42 L 19,42 Z" fill="none" stroke="black" stroke-width="1"/>
</svg>