<svg xmlns="http://www.w3.org/2000/svg" width="199" height="136">
  <path d="M 74,64 L 72,66 L 72,67 L 71,68 L 71,69 L 72,70 L 72,71 L 73,72 L 73,73 L 72,74 L 72,75 L 64,83 L 63,83 L 63,84 L 60,87 L 59,87 L 58,88 L 53,88 L 52,89 L 51,89 L 49,91 L 48,91 L 47,92 L 42,92 L 41,93 L 41,94 L 42,95 L 42,97 L 41,98 L 40,98 L 38,100 L 38,101 L 39,102 L 36,105 L 30,105 L 30,107 L 27,110 L 27,111 L 28,111 L 29,112 L 30,112 L 31,113 L 33,113 L 36,116 L 43,116 L 44,115 L 45,115 L 46,116 L 51,116 L 52,117 L 53,117 L 54,118 L 60,118 L 61,117 L 64,117 L 65,118 L 66,118 L 67,119 L 69,119 L 71,117 L 73,117 L 75,119 L 75,120 L 76,120 L 78,122 L 79,122 L 81,124 L 82,124 L 84,126 L 84,127 L 86,127 L 87,128 L 87,129 L 88,130 L 88,132 L 89,132 L 90,133 L 92,133 L 93,134 L 95,134 L 95,131 L 96,130 L 99,130 L 101,132 L 101,133 L 102,134 L 104,134 L 105,135 L 106,135 L 106,134 L 107,133 L 107,131 L 110,128 L 110,127 L 112,125 L 112,124 L 113,123 L 113,122 L 114,121 L 114,120 L 116,118 L 116,114 L 117,113 L 117,111 L 118,110 L 119,110 L 119,108 L 120,107 L 121,107 L 123,105 L 124,105 L 125,104 L 126,104 L 125,103 L 125,102 L 126,101 L 126,99 L 127,98 L 128,99 L 129,99 L 128,98 L 128,94 L 129,93 L 129,92 L 130,91 L 132,91 L 132,90 L 133,89 L 133,88 L 134,87 L 134,85 L 133,84 L 133,83 L 132,83 L 131,82 L 131,78 L 128,78 L 127,77 L 127,76 L 125,76 L 124,75 L 124,73 L 121,73 L 121,76 L 120,77 L 119,77 L 118,78 L 113,78 L 112,77 L 108,77 L 107,76 L 107,75 L 103,75 L 102,74 L 102,73 L 99,73 L 98,72 L 98,71 L 96,73 L 95,73 L 94,72 L 93,72 L 92,71 L 91,71 L 90,70 L 88,70 L 87,69 L 86,69 L 82,65 L 77,65 L 76,64 Z" fill="none" stroke="black" stroke-width="1"/>
</svg>