<svg xmlns="http://www.w3.org/2000/svg" width="199" height="136">
  <path d="M 48,2 L 47,3 L 46,3 L 45,4 L 43,4 L 41,6 L 39,6 L 38,5 L 35,5 L 34,6 L 33,6 L 32,7 L 31,7 L 30,8 L 28,8 L 27,9 L 22,9 L 21,10 L 15,10 L 14,11 L 10,11 L 9,12 L 8,12 L 7,11 L 6,11 L 5,10 L 1,10 L 1,11 L 0,12 L 0,14 L 3,17 L 3,18 L 4,18 L 6,20 L 6,26 L 7,27 L 7,29 L 8,30 L 8,33 L 9,33 L 10,34 L 10,35 L 11,36 L 12,36 L 13,37 L 13,39 L 14,40 L 14,44 L 15,44 L 18,47 L 19,47 L 20,46 L 21,46 L 22,45 L 23,45 L 25,43 L 31,43 L 33,41 L 40,41 L 41,40 L 43,40 L 44,41 L 48,41 L 49,42 L 52,42 L 53,43 L 58,43 L 59,44 L 69,44 L 70,43 L 74,43 L 75,42 L 79,42 L 79,41 L 81,39 L 81,37 L 85,33 L 85,31 L 86,30 L 87,30 L 87,28 L 85,26 L 85,25 L 83,23 L 80,23 L 79,22 L 77,22 L 76,21 L 74,21 L 73,20 L 72,20 L 71,19 L 69,19 L 68,18 L 67,18 L 66,17 L 64,17 L 63,16 L 62,16 L 59,13 L 60,12 L 59,11 L 59,10 L 58,10 L 56,8 L 55,8 L 54,7 L 54,5 L 55,4 L 55,2 Z" fill="none" stroke="black" stroke-width="1"/>
</svg>