<svg xmlns="http://www.w3.org/2000/svg" width="182" height="136">
  <path d="M 70,0 L 68,2 L 67,2 L 70,5 L 70,8 L 67,11 L 66,11 L 65,12 L 64,12 L 63,13 L 59,13 L 57,15 L 56,15 L 55,16 L 53,16 L 53,17 L 52,18 L 51,18 L 49,20 L 49,21 L 48,22 L 49,23 L 49,25 L 50,26 L 50,27 L 49,28 L 48,28 L 47,29 L 46,29 L 45,30 L 44,30 L 43,31 L 42,31 L 41,30 L 38,30 L 37,31 L 35,31 L 34,30 L 31,30 L 29,32 L 25,32 L 24,33 L 20,33 L 18,31 L 12,31 L 11,30 L 10,30 L 9,29 L 8,29 L 6,27 L 4,27 L 3,28 L 3,30 L 2,31 L 2,39 L 1,40 L 1,41 L 0,42 L 0,52 L 1,53 L 1,55 L 2,56 L 2,58 L 1,59 L 1,61 L 2,62 L 2,63 L 3,64 L 2,65 L 3,65 L 4,66 L 6,66 L 8,64 L 10,64 L 11,63 L 12,63 L 13,62 L 20,62 L 21,61 L 27,61 L 28,60 L 31,60 L 32,59 L 36,59 L 37,58 L 42,58 L 43,57 L 46,57 L 47,56 L 49,56 L 50,55 L 52,55 L 53,54 L 55,54 L 56,55 L 64,55 L 66,53 L 71,53 L 72,54 L 74,54 L 75,55 L 82,55 L 82,53 L 80,51 L 80,44 L 81,43 L 81,40 L 82,39 L 82,38 L 83,37 L 83,36 L 85,34 L 84,34 L 83,33 L 82,33 L 81,32 L 80,32 L 76,28 L 76,25 L 78,23 L 79,23 L 80,22 L 80,21 L 81,20 L 81,19 L 82,18 L 82,16 L 84,14 L 84,12 L 83,11 L 83,10 L 82,9 L 82,8 L 81,7 L 80,7 L 79,6 L 78,6 L 76,4 L 75,4 L 74,3 L 74,2 L 72,0 Z" fill="none" stroke="black" stroke-width="1"/>
</svg>