<svg xmlns="http://www.w3.org/2000/svg" width="182" height="136">
  <path d="M 85,35 L 84,36 L 84,37 L 83,38 L 83,39 L 82,40 L 82,43 L 81,44 L 81,51 L 83,53 L 83,55 L 85,55 L 86,56 L 87,56 L 88,57 L 89,57 L 90,58 L 93,58 L 94,59 L 95,59 L 96,60 L 97,60 L 98,61 L 99,61 L 102,64 L 103,64 L 104,65 L 105,65 L 107,67 L 108,67 L 109,68 L 110,68 L 111,69 L 113,69 L 115,71 L 116,71 L 120,75 L 122,75 L 124,77 L 125,77 L 126,78 L 126,79 L 127,79 L 128,80 L 129,80 L 130,79 L 131,79 L 132,80 L 133,80 L 134,79 L 135,79 L 136,80 L 139,80 L 140,79 L 140,78 L 142,76 L 142,75 L 143,74 L 143,73 L 144,72 L 142,70 L 142,68 L 143,67 L 142,67 L 140,65 L 139,65 L 138,64 L 137,64 L 136,63 L 135,64 L 134,63 L 132,63 L 127,58 L 126,58 L 124,56 L 124,54 L 123,54 L 122,53 L 122,51 L 120,49 L 119,49 L 116,46 L 117,45 L 117,44 L 118,43 L 119,43 L 121,41 L 121,40 L 120,40 L 119,39 L 117,39 L 116,40 L 114,38 L 106,38 L 105,39 L 104,38 L 102,38 L 101,37 L 93,37 L 92,36 L 89,36 L 88,35 Z" fill="none" stroke="black" stroke-width="1"/>
</svg>