<svg xmlns="http://www.w3.org/2000/svg" width="230" height="103">
  <path d="M 129,34 L 129,35 L 128,36 L 128,37 L 127,38 L 127,41 L 125,43 L 124,43 L 123,44 L 123,45 L 122,46 L 122,47 L 121,48 L 121,49 L 119,51 L 118,51 L 117,52 L 116,52 L 114,54 L 113,54 L 112,55 L 112,60 L 111,61 L 111,66 L 110,67 L 111,68 L 111,70 L 109,72 L 109,73 L 107,75 L 108,76 L 108,79 L 107,80 L 107,81 L 105,83 L 102,83 L 98,87 L 99,87 L 103,91 L 104,91 L 105,92 L 106,92 L 108,94 L 109,94 L 110,95 L 110,96 L 112,98 L 113,98 L 114,99 L 115,99 L 116,98 L 122,98 L 123,97 L 124,97 L 125,96 L 126,96 L 127,95 L 129,95 L 130,94 L 134,94 L 136,92 L 136,91 L 135,90 L 134,90 L 133,89 L 133,88 L 134,87 L 135,87 L 135,83 L 138,80 L 138,78 L 140,76 L 140,72 L 142,70 L 143,70 L 145,68 L 146,68 L 147,67 L 148,67 L 151,64 L 154,64 L 155,63 L 156,63 L 157,64 L 158,63 L 159,63 L 159,58 L 158,57 L 158,55 L 157,54 L 157,51 L 164,44 L 164,41 L 163,40 L 158,40 L 157,39 L 155,39 L 154,38 L 152,38 L 151,37 L 145,37 L 144,36 L 137,36 L 136,35 L 135,35 L 134,34 Z" fill="none" stroke="black" stroke-width="1"/>
</svg>