<svg xmlns="http://www.w3.org/2000/svg" width="223" height="128">
  <path d="M 21,73 L 21,74 L 19,76 L 18,76 L 17,77 L 17,78 L 13,82 L 5,82 L 4,83 L 4,87 L 3,88 L 3,92 L 2,93 L 4,95 L 4,97 L 5,98 L 5,102 L 4,103 L 4,105 L 0,109 L 0,112 L 1,113 L 1,114 L 2,115 L 2,116 L 4,118 L 4,119 L 6,119 L 7,120 L 9,120 L 12,123 L 12,124 L 13,125 L 12,126 L 12,127 L 13,127 L 14,126 L 15,126 L 15,125 L 17,123 L 18,123 L 20,121 L 22,121 L 23,122 L 25,122 L 27,124 L 28,124 L 29,123 L 29,122 L 33,118 L 33,116 L 35,114 L 37,114 L 38,113 L 41,113 L 42,112 L 45,115 L 45,116 L 49,116 L 50,117 L 51,117 L 52,118 L 57,118 L 56,117 L 56,114 L 57,113 L 57,112 L 59,110 L 59,106 L 58,105 L 58,101 L 57,100 L 57,98 L 56,97 L 56,95 L 54,93 L 54,91 L 56,89 L 56,88 L 55,87 L 55,84 L 56,83 L 56,81 L 57,80 L 56,80 L 54,78 L 53,79 L 50,79 L 49,78 L 45,78 L 44,77 L 41,77 L 40,78 L 31,78 L 30,77 L 28,77 L 27,78 L 26,78 L 25,77 L 24,77 L 23,76 L 23,75 L 22,75 L 21,74 Z" fill="none" stroke="black" stroke-width="1"/>
</svg>