<svg xmlns="http://www.w3.org/2000/svg" width="223" height="128">
  <path d="M 135,47 L 133,49 L 132,49 L 130,51 L 129,50 L 129,51 L 128,52 L 126,52 L 125,53 L 124,53 L 122,51 L 121,51 L 118,54 L 117,54 L 116,55 L 115,55 L 114,56 L 113,56 L 109,60 L 108,59 L 107,59 L 106,58 L 96,58 L 93,61 L 92,61 L 90,63 L 89,63 L 90,63 L 94,67 L 94,70 L 93,71 L 94,72 L 95,72 L 96,71 L 97,71 L 98,72 L 98,74 L 99,75 L 99,76 L 101,78 L 101,80 L 102,81 L 103,81 L 104,82 L 104,87 L 106,87 L 108,89 L 108,93 L 111,96 L 114,96 L 115,97 L 118,97 L 120,95 L 122,95 L 122,94 L 124,92 L 125,92 L 128,89 L 129,89 L 130,88 L 132,88 L 133,87 L 135,87 L 136,86 L 147,86 L 148,85 L 151,85 L 153,83 L 160,83 L 161,84 L 164,84 L 165,85 L 167,85 L 168,86 L 170,86 L 172,88 L 173,88 L 174,89 L 181,89 L 182,88 L 192,88 L 194,90 L 197,90 L 198,91 L 199,91 L 200,90 L 201,91 L 202,90 L 203,90 L 204,89 L 204,87 L 203,86 L 203,85 L 202,84 L 202,83 L 200,81 L 199,81 L 198,80 L 198,76 L 197,75 L 197,73 L 196,73 L 194,71 L 194,70 L 193,70 L 192,69 L 192,66 L 191,65 L 191,63 L 190,62 L 190,56 L 189,55 L 188,55 L 187,54 L 187,53 L 183,49 L 182,49 L 181,50 L 180,49 L 176,49 L 175,50 L 172,50 L 171,49 L 167,49 L 166,50 L 165,50 L 162,53 L 161,53 L 158,56 L 157,56 L 155,58 L 153,58 L 152,59 L 149,59 L 148,60 L 147,60 L 146,59 L 146,56 L 144,54 L 144,53 L 143,52 L 143,51 L 142,50 L 142,49 L 138,49 L 137,48 L 136,48 Z" fill="none" stroke="black" stroke-width="1"/>
</svg>