<svg xmlns="http://www.w3.org/2000/svg" width="156" height="65">
  <path d="M 34,11 L 33,12 L 31,12 L 30,13 L 29,13 L 28,14 L 27,14 L 26,13 L 24,13 L 23,14 L 23,15 L 21,17 L 18,17 L 16,15 L 14,15 L 12,13 L 9,13 L 8,12 L 7,12 L 6,13 L 5,12 L 4,12 L 3,13 L 2,13 L 2,14 L 1,15 L 0,15 L 0,16 L 1,17 L 1,18 L 3,20 L 3,23 L 0,26 L 0,27 L 2,27 L 3,26 L 4,27 L 4,28 L 5,29 L 5,30 L 8,30 L 11,33 L 11,35 L 12,36 L 12,37 L 13,38 L 13,40 L 12,41 L 12,43 L 10,45 L 10,46 L 9,47 L 9,50 L 8,51 L 8,52 L 7,53 L 7,56 L 6,57 L 6,62 L 5,63 L 5,64 L 6,64 L 7,63 L 8,63 L 9,62 L 13,62 L 15,60 L 16,60 L 17,59 L 18,59 L 20,57 L 21,57 L 22,56 L 24,56 L 23,55 L 24,54 L 24,53 L 25,52 L 25,51 L 28,48 L 32,48 L 33,49 L 34,48 L 35,48 L 36,49 L 40,45 L 40,43 L 42,41 L 40,39 L 40,36 L 37,33 L 37,32 L 35,30 L 35,26 L 36,25 L 36,21 L 35,20 L 35,15 L 36,14 L 36,12 L 35,11 Z" fill="none" stroke="black" stroke-width="1"/>
</svg>