<svg xmlns="http://www.w3.org/2000/svg" width="183" height="113">
  <path d="M 169,55 L 168,56 L 161,56 L 160,57 L 159,56 L 156,56 L 155,57 L 154,57 L 153,58 L 153,59 L 152,60 L 152,61 L 151,62 L 150,62 L 150,63 L 149,64 L 149,65 L 148,66 L 148,68 L 149,69 L 149,71 L 150,72 L 150,73 L 149,74 L 149,76 L 148,77 L 148,78 L 147,79 L 147,80 L 144,83 L 144,85 L 143,86 L 143,87 L 145,89 L 154,89 L 155,88 L 156,88 L 157,87 L 159,87 L 160,86 L 163,86 L 164,85 L 166,85 L 168,83 L 174,83 L 175,82 L 177,82 L 178,81 L 179,81 L 180,80 L 180,78 L 179,77 L 177,77 L 176,76 L 177,75 L 178,75 L 178,74 L 179,73 L 179,68 L 180,67 L 180,66 L 181,65 L 181,62 L 182,61 L 182,58 L 181,58 L 180,57 L 176,57 L 175,56 L 175,55 Z" fill="none" stroke="black" stroke-width="1"/>
</svg>