<svg xmlns="http://www.w3.org/2000/svg" width="207" height="117">
  <path d="M 145,33 L 144,34 L 143,34 L 142,35 L 141,35 L 140,34 L 133,34 L 131,36 L 131,37 L 132,38 L 132,41 L 129,44 L 129,45 L 128,46 L 127,46 L 126,47 L 124,47 L 123,48 L 116,48 L 115,49 L 115,50 L 114,51 L 114,52 L 113,53 L 113,56 L 112,57 L 112,58 L 113,59 L 113,62 L 114,63 L 114,67 L 115,68 L 115,71 L 112,74 L 112,75 L 111,76 L 106,76 L 105,75 L 103,75 L 102,76 L 102,77 L 101,78 L 101,79 L 99,81 L 99,86 L 101,88 L 102,88 L 103,89 L 105,89 L 108,92 L 110,92 L 113,95 L 113,96 L 119,96 L 120,95 L 131,95 L 132,96 L 134,96 L 134,95 L 137,92 L 138,92 L 138,91 L 139,90 L 139,87 L 142,84 L 143,84 L 144,83 L 149,83 L 150,84 L 150,83 L 151,82 L 151,81 L 152,80 L 152,74 L 153,73 L 154,73 L 155,72 L 156,72 L 156,71 L 158,69 L 158,68 L 159,67 L 161,67 L 162,68 L 163,67 L 164,68 L 165,68 L 165,67 L 166,66 L 166,65 L 167,64 L 167,61 L 165,59 L 165,58 L 166,57 L 166,56 L 165,55 L 165,53 L 160,53 L 159,52 L 159,49 L 158,48 L 157,48 L 156,47 L 154,47 L 153,46 L 151,46 L 149,44 L 151,42 L 150,41 L 148,41 L 146,39 L 146,38 L 148,36 L 148,34 L 147,33 Z" fill="none" stroke="black" stroke-width="1"/>
</svg>