<svg xmlns="http://www.w3.org/2000/svg" width="183" height="113">
  <path d="M 96,40 L 95,41 L 82,41 L 81,42 L 79,42 L 77,44 L 76,44 L 74,46 L 73,46 L 73,56 L 78,61 L 78,62 L 80,64 L 80,65 L 81,66 L 81,73 L 78,76 L 77,76 L 76,77 L 76,85 L 78,87 L 78,91 L 79,92 L 79,93 L 76,96 L 75,96 L 74,97 L 73,97 L 71,99 L 73,99 L 74,100 L 76,100 L 77,101 L 90,101 L 91,100 L 92,100 L 93,101 L 94,101 L 95,102 L 101,102 L 102,103 L 103,103 L 104,104 L 105,104 L 107,106 L 107,107 L 108,108 L 110,108 L 111,109 L 117,109 L 117,108 L 118,107 L 118,106 L 119,105 L 119,104 L 123,100 L 126,100 L 128,98 L 129,98 L 130,99 L 131,98 L 132,98 L 133,97 L 135,99 L 138,99 L 141,96 L 142,96 L 142,93 L 143,92 L 143,91 L 144,90 L 144,89 L 142,87 L 142,86 L 143,85 L 143,83 L 146,80 L 146,79 L 147,78 L 147,77 L 148,76 L 148,74 L 149,73 L 149,72 L 148,71 L 148,69 L 147,68 L 147,67 L 146,67 L 145,66 L 144,66 L 142,64 L 140,64 L 139,65 L 138,65 L 137,64 L 136,64 L 135,63 L 134,63 L 129,58 L 127,58 L 126,57 L 125,57 L 124,56 L 123,56 L 122,55 L 120,55 L 119,54 L 118,54 L 117,53 L 116,53 L 112,49 L 112,48 L 111,47 L 111,42 L 110,41 L 108,41 L 107,40 Z" fill="none" stroke="black" stroke-width="1"/>
</svg>