<svg xmlns="http://www.w3.org/2000/svg" width="308" height="163">
  <path d="M 217,67 L 216,68 L 217,69 L 215,71 L 213,71 L 212,72 L 210,70 L 209,70 L 209,71 L 208,72 L 207,71 L 207,72 L 206,73 L 205,72 L 200,72 L 199,73 L 198,73 L 197,74 L 186,74 L 185,75 L 184,75 L 186,77 L 185,78 L 184,78 L 184,83 L 182,85 L 181,85 L 180,84 L 178,84 L 177,85 L 172,85 L 171,86 L 170,86 L 169,87 L 168,87 L 166,89 L 166,90 L 167,91 L 170,91 L 173,94 L 171,96 L 171,97 L 169,99 L 168,99 L 167,100 L 166,100 L 165,101 L 164,101 L 161,104 L 159,104 L 159,105 L 158,106 L 157,106 L 156,107 L 155,106 L 154,106 L 152,108 L 151,108 L 150,107 L 142,107 L 141,106 L 137,106 L 136,105 L 131,105 L 130,104 L 126,104 L 122,100 L 121,100 L 120,99 L 119,99 L 117,97 L 117,95 L 116,94 L 116,89 L 115,89 L 113,91 L 111,91 L 110,92 L 109,92 L 110,93 L 110,95 L 109,96 L 109,97 L 110,98 L 110,99 L 109,100 L 108,100 L 108,102 L 107,103 L 107,104 L 106,105 L 106,108 L 104,110 L 102,110 L 101,109 L 100,109 L 99,108 L 99,107 L 95,107 L 94,106 L 93,106 L 93,109 L 94,110 L 93,111 L 93,112 L 94,112 L 96,114 L 96,115 L 95,116 L 95,118 L 96,119 L 96,120 L 97,121 L 97,122 L 98,123 L 99,123 L 101,125 L 103,125 L 104,126 L 104,127 L 105,128 L 105,130 L 106,131 L 107,131 L 110,134 L 109,135 L 108,135 L 106,137 L 106,138 L 108,140 L 108,141 L 109,141 L 110,142 L 112,142 L 113,141 L 115,141 L 117,139 L 119,139 L 120,138 L 121,139 L 122,139 L 124,137 L 125,137 L 125,136 L 126,135 L 127,135 L 128,134 L 132,134 L 133,133 L 134,133 L 135,132 L 136,132 L 137,131 L 137,130 L 138,129 L 140,129 L 141,128 L 142,128 L 143,129 L 146,129 L 147,128 L 147,127 L 148,126 L 149,126 L 151,128 L 152,128 L 153,129 L 154,129 L 154,128 L 155,127 L 158,127 L 159,128 L 159,131 L 164,131 L 165,130 L 166,130 L 167,131 L 178,131 L 180,133 L 180,139 L 181,139 L 183,141 L 183,142 L 189,142 L 190,143 L 190,144 L 196,144 L 197,145 L 200,145 L 202,143 L 203,143 L 204,144 L 205,144 L 206,143 L 207,143 L 208,144 L 209,144 L 210,145 L 213,145 L 214,146 L 215,146 L 216,145 L 221,145 L 223,147 L 223,148 L 224,148 L 225,149 L 226,149 L 227,148 L 228,148 L 232,144 L 235,144 L 236,143 L 237,143 L 239,141 L 239,139 L 240,138 L 240,136 L 241,135 L 241,133 L 240,133 L 239,132 L 238,132 L 236,130 L 236,129 L 235,128 L 236,127 L 236,126 L 235,126 L 233,124 L 233,123 L 235,121 L 235,118 L 236,117 L 236,114 L 237,113 L 240,113 L 240,110 L 241,109 L 241,108 L 242,107 L 246,107 L 248,105 L 248,104 L 249,103 L 249,101 L 250,100 L 250,98 L 248,98 L 247,97 L 247,95 L 249,93 L 249,92 L 250,91 L 249,90 L 249,89 L 250,88 L 250,87 L 249,86 L 251,84 L 252,84 L 250,82 L 250,80 L 249,80 L 248,79 L 247,79 L 246,80 L 241,80 L 239,78 L 236,78 L 235,77 L 236,76 L 235,76 L 234,75 L 231,75 L 229,73 L 228,73 L 225,70 L 222,70 L 220,68 L 219,68 L 218,67 Z" fill="none" stroke="black" stroke-width="1"/>
</svg>