<svg xmlns="http://www.w3.org/2000/svg" width="188" height="122">
  <path d="M 113,27 L 112,28 L 83,28 L 82,29 L 82,30 L 81,31 L 80,31 L 76,35 L 76,37 L 75,38 L 74,38 L 70,42 L 70,44 L 69,45 L 69,46 L 68,47 L 68,48 L 67,49 L 67,51 L 66,52 L 66,56 L 67,57 L 67,59 L 69,61 L 69,64 L 65,68 L 65,69 L 64,70 L 63,70 L 61,72 L 61,73 L 60,74 L 60,77 L 59,78 L 59,81 L 60,82 L 60,84 L 61,85 L 62,85 L 64,87 L 65,87 L 66,88 L 68,88 L 69,89 L 70,89 L 71,88 L 72,88 L 73,89 L 76,89 L 77,90 L 80,90 L 81,89 L 83,89 L 84,90 L 86,88 L 90,88 L 91,89 L 93,89 L 95,91 L 95,92 L 96,93 L 99,93 L 100,94 L 101,94 L 102,93 L 103,93 L 105,91 L 105,90 L 106,89 L 106,85 L 105,84 L 105,83 L 107,81 L 107,80 L 108,79 L 108,77 L 109,76 L 109,74 L 110,73 L 110,71 L 113,68 L 114,69 L 118,69 L 118,64 L 120,62 L 121,62 L 122,61 L 127,61 L 127,57 L 126,56 L 126,55 L 125,54 L 125,53 L 124,52 L 124,49 L 125,48 L 125,47 L 124,46 L 124,45 L 121,42 L 121,36 L 120,35 L 120,34 L 119,33 L 119,31 L 117,29 L 117,27 Z" fill="none" stroke="black" stroke-width="1"/>
</svg>