<svg xmlns="http://www.w3.org/2000/svg" width="139" height="160">
  <path d="M 31,41 L 29,43 L 28,43 L 29,43 L 31,45 L 31,50 L 29,52 L 27,52 L 27,53 L 28,54 L 28,59 L 27,60 L 27,61 L 26,62 L 22,62 L 21,63 L 20,63 L 19,64 L 18,64 L 17,65 L 14,65 L 14,71 L 15,72 L 15,73 L 18,76 L 18,77 L 19,77 L 21,79 L 21,80 L 22,81 L 22,82 L 23,83 L 23,84 L 22,85 L 23,86 L 23,87 L 22,88 L 22,89 L 24,89 L 26,87 L 27,87 L 28,86 L 30,86 L 31,87 L 35,87 L 36,88 L 36,89 L 37,90 L 39,90 L 41,88 L 47,88 L 49,86 L 52,86 L 52,84 L 51,83 L 51,77 L 52,76 L 52,75 L 53,74 L 53,73 L 56,70 L 56,69 L 57,68 L 58,68 L 58,67 L 60,65 L 60,61 L 61,60 L 62,60 L 62,59 L 66,55 L 66,49 L 67,48 L 67,47 L 68,46 L 68,45 L 69,44 L 69,43 L 68,44 L 67,44 L 66,45 L 65,45 L 64,46 L 62,46 L 60,48 L 60,49 L 59,50 L 58,50 L 57,51 L 56,51 L 55,50 L 54,50 L 51,47 L 50,47 L 48,49 L 47,49 L 45,47 L 40,47 L 37,44 L 36,44 L 33,41 Z" fill="none" stroke="black" stroke-width="1"/>
</svg>