<svg xmlns="http://www.w3.org/2000/svg" width="185" height="118">
  <path d="M 6,11 L 6,12 L 5,13 L 4,13 L 3,14 L 3,19 L 2,20 L 2,21 L 3,22 L 3,29 L 4,30 L 4,41 L 2,43 L 2,44 L 1,45 L 1,46 L 0,47 L 0,51 L 1,52 L 1,53 L 4,56 L 4,57 L 5,57 L 6,58 L 7,58 L 8,59 L 13,59 L 14,58 L 15,58 L 16,59 L 17,59 L 19,61 L 20,61 L 21,60 L 24,60 L 25,61 L 30,61 L 32,63 L 32,64 L 33,65 L 34,65 L 37,68 L 37,69 L 38,70 L 38,71 L 39,72 L 40,72 L 41,71 L 42,72 L 43,72 L 46,75 L 46,77 L 47,78 L 48,78 L 49,79 L 51,79 L 52,78 L 55,78 L 56,79 L 57,79 L 57,78 L 61,74 L 65,74 L 66,73 L 72,73 L 73,74 L 81,74 L 82,73 L 82,72 L 83,71 L 83,63 L 80,60 L 75,60 L 74,59 L 73,59 L 72,58 L 69,58 L 67,56 L 66,56 L 65,55 L 64,55 L 62,53 L 61,53 L 58,50 L 58,47 L 59,46 L 59,42 L 61,40 L 61,37 L 58,34 L 58,32 L 60,30 L 60,29 L 63,26 L 65,26 L 68,23 L 64,19 L 64,18 L 62,16 L 59,16 L 55,20 L 54,20 L 53,21 L 52,21 L 51,20 L 50,20 L 49,19 L 49,18 L 48,17 L 43,17 L 42,18 L 41,18 L 40,17 L 37,17 L 36,16 L 35,16 L 34,15 L 33,15 L 32,16 L 31,16 L 30,15 L 29,15 L 27,17 L 24,17 L 23,16 L 17,16 L 16,15 L 16,14 L 10,14 L 9,13 L 9,12 L 8,11 Z" fill="none" stroke="black" stroke-width="1"/>
</svg>