<svg xmlns="http://www.w3.org/2000/svg" width="222" height="101">
  <path d="M 152,43 L 151,44 L 150,44 L 149,45 L 148,44 L 145,44 L 144,45 L 138,45 L 137,46 L 136,46 L 134,48 L 132,48 L 131,49 L 130,49 L 129,50 L 128,50 L 127,51 L 125,51 L 124,52 L 122,52 L 121,53 L 120,53 L 119,54 L 112,54 L 113,55 L 113,56 L 115,58 L 115,59 L 117,61 L 117,65 L 116,66 L 116,68 L 115,69 L 115,70 L 112,73 L 112,77 L 111,78 L 111,79 L 109,81 L 109,83 L 108,84 L 108,86 L 107,87 L 107,88 L 105,90 L 105,99 L 110,99 L 111,100 L 112,100 L 114,98 L 115,98 L 116,97 L 117,97 L 118,96 L 119,96 L 120,95 L 121,95 L 122,94 L 123,94 L 124,93 L 126,93 L 127,92 L 128,92 L 129,91 L 130,91 L 131,90 L 132,90 L 133,89 L 134,89 L 135,88 L 138,88 L 139,87 L 143,87 L 144,86 L 147,86 L 149,84 L 151,84 L 152,85 L 159,85 L 160,84 L 169,84 L 170,85 L 173,85 L 174,84 L 181,84 L 181,82 L 179,80 L 179,72 L 178,71 L 177,71 L 170,64 L 170,63 L 169,62 L 169,61 L 168,61 L 167,60 L 166,60 L 165,59 L 163,59 L 162,58 L 160,58 L 158,56 L 158,55 L 160,53 L 160,51 L 159,50 L 159,49 L 158,49 L 157,48 L 157,45 L 155,43 Z" fill="none" stroke="black" stroke-width="1"/>
</svg>