<svg xmlns="http://www.w3.org/2000/svg" width="188" height="122">
  <path d="M 131,50 L 130,51 L 129,51 L 128,52 L 126,52 L 125,51 L 125,52 L 126,53 L 126,54 L 127,55 L 127,56 L 128,57 L 128,61 L 127,62 L 122,62 L 121,63 L 120,63 L 119,64 L 119,69 L 118,70 L 114,70 L 113,69 L 111,71 L 111,73 L 110,74 L 110,76 L 109,77 L 109,79 L 108,80 L 108,81 L 106,83 L 106,84 L 107,85 L 107,89 L 106,90 L 107,90 L 108,91 L 109,91 L 110,92 L 111,92 L 113,94 L 113,96 L 115,98 L 115,102 L 114,103 L 114,104 L 118,108 L 118,114 L 119,114 L 120,115 L 130,115 L 131,116 L 132,116 L 133,117 L 134,117 L 135,118 L 136,118 L 137,119 L 140,119 L 141,120 L 142,120 L 143,121 L 145,121 L 146,120 L 146,119 L 149,116 L 153,116 L 154,115 L 155,115 L 155,114 L 157,112 L 157,111 L 160,108 L 160,107 L 162,105 L 163,105 L 165,107 L 166,107 L 167,108 L 171,108 L 174,105 L 175,105 L 176,104 L 184,104 L 185,103 L 185,99 L 186,98 L 186,97 L 187,96 L 187,95 L 186,94 L 186,93 L 185,92 L 184,92 L 181,89 L 173,89 L 172,90 L 164,90 L 163,89 L 160,89 L 158,87 L 158,86 L 157,85 L 157,82 L 156,81 L 155,81 L 154,80 L 154,78 L 156,76 L 156,74 L 160,70 L 160,69 L 161,68 L 161,67 L 160,66 L 160,65 L 159,64 L 159,62 L 157,60 L 158,59 L 158,58 L 159,57 L 160,57 L 160,56 L 163,53 L 163,51 L 161,51 L 160,52 L 157,52 L 156,51 L 152,51 L 151,50 L 150,51 L 148,51 L 147,52 L 146,52 L 145,53 L 138,53 L 136,51 L 135,51 L 134,50 Z" fill="none" stroke="black" stroke-width="1"/>
</svg>