<svg xmlns="http://www.w3.org/2000/svg" width="119" height="87">
  <path d="M 79,0 L 77,2 L 76,2 L 75,3 L 74,3 L 73,4 L 72,4 L 70,6 L 70,7 L 69,8 L 69,12 L 68,13 L 68,19 L 69,20 L 69,22 L 72,25 L 72,27 L 74,29 L 74,30 L 76,32 L 76,33 L 78,33 L 79,32 L 82,32 L 83,33 L 85,33 L 86,34 L 94,34 L 95,33 L 96,33 L 98,31 L 99,31 L 100,30 L 100,29 L 101,28 L 101,27 L 102,26 L 104,26 L 105,25 L 106,25 L 104,25 L 100,21 L 100,19 L 99,18 L 99,16 L 98,15 L 99,14 L 99,10 L 98,9 L 97,9 L 96,8 L 95,8 L 94,7 L 91,7 L 90,6 L 89,6 L 86,3 L 85,3 L 83,1 L 81,1 L 80,0 Z" fill="none" stroke="black" stroke-width="1"/>
</svg>