<svg xmlns="http://www.w3.org/2000/svg" width="143" height="130">
  <path d="M 73,80 L 73,81 L 71,83 L 70,83 L 69,84 L 69,85 L 68,86 L 68,90 L 66,92 L 58,92 L 57,93 L 56,93 L 53,96 L 49,96 L 48,95 L 47,95 L 45,93 L 44,93 L 43,94 L 43,95 L 40,98 L 40,99 L 38,101 L 38,102 L 37,103 L 36,103 L 35,104 L 31,104 L 29,106 L 29,107 L 28,108 L 33,108 L 34,109 L 35,109 L 36,110 L 48,110 L 49,111 L 50,111 L 51,112 L 51,113 L 52,114 L 52,115 L 54,117 L 55,117 L 56,118 L 57,118 L 59,120 L 59,121 L 58,122 L 58,123 L 60,125 L 62,125 L 63,126 L 64,126 L 65,127 L 71,127 L 73,129 L 74,128 L 76,128 L 77,129 L 80,129 L 81,128 L 83,128 L 85,126 L 86,126 L 86,123 L 91,118 L 94,118 L 95,117 L 97,117 L 99,115 L 100,115 L 102,113 L 103,113 L 104,112 L 104,111 L 103,110 L 103,109 L 102,108 L 100,108 L 94,102 L 94,101 L 91,98 L 89,98 L 84,93 L 83,93 L 82,92 L 81,92 L 80,91 L 79,91 L 78,90 L 77,90 L 76,89 L 76,86 L 75,86 L 73,84 Z" fill="none" stroke="black" stroke-width="1"/>
</svg>