<svg xmlns="http://www.w3.org/2000/svg" width="95" height="64">
  <path d="M 85,25 L 83,27 L 81,27 L 80,28 L 77,28 L 77,30 L 76,31 L 75,31 L 75,33 L 74,34 L 70,34 L 68,32 L 67,33 L 67,34 L 66,35 L 65,35 L 64,36 L 63,36 L 61,38 L 60,38 L 59,39 L 58,39 L 56,41 L 55,41 L 53,43 L 52,43 L 51,44 L 51,45 L 50,46 L 49,46 L 45,50 L 45,52 L 44,53 L 44,55 L 45,55 L 46,56 L 46,57 L 48,59 L 48,60 L 49,61 L 50,61 L 51,62 L 53,62 L 54,63 L 55,63 L 56,62 L 58,62 L 59,61 L 60,61 L 61,60 L 62,60 L 64,62 L 67,62 L 68,61 L 68,60 L 69,59 L 69,56 L 70,55 L 70,54 L 71,53 L 72,53 L 73,52 L 74,52 L 74,51 L 76,49 L 77,49 L 79,47 L 80,47 L 81,48 L 84,48 L 85,47 L 86,47 L 85,46 L 85,45 L 89,41 L 89,40 L 90,39 L 90,38 L 91,37 L 91,36 L 92,35 L 92,34 L 94,32 L 94,29 L 93,28 L 93,26 L 91,26 L 90,25 Z" fill="none" stroke="black" stroke-width="1"/>
</svg>