<svg xmlns="http://www.w3.org/2000/svg" width="95" height="92">
  <path d="M 64,0 L 61,3 L 59,3 L 58,4 L 58,6 L 56,8 L 54,8 L 53,9 L 52,9 L 51,8 L 50,8 L 49,7 L 48,7 L 47,6 L 46,6 L 45,7 L 45,8 L 46,9 L 45,10 L 43,10 L 42,9 L 39,9 L 38,10 L 37,10 L 37,12 L 34,15 L 32,13 L 31,13 L 30,14 L 29,14 L 27,16 L 27,18 L 26,19 L 26,20 L 25,21 L 25,25 L 26,26 L 26,28 L 27,29 L 30,26 L 33,26 L 34,27 L 37,27 L 38,28 L 38,31 L 41,31 L 42,32 L 43,32 L 44,33 L 45,33 L 46,32 L 46,31 L 45,30 L 46,29 L 53,29 L 54,30 L 55,30 L 56,31 L 57,31 L 59,33 L 60,33 L 61,34 L 62,34 L 62,33 L 63,32 L 67,32 L 69,34 L 69,35 L 70,35 L 71,34 L 77,34 L 78,33 L 78,32 L 82,28 L 83,28 L 84,27 L 88,27 L 90,25 L 91,26 L 92,26 L 93,27 L 94,26 L 94,23 L 91,20 L 90,20 L 89,19 L 86,19 L 85,20 L 80,20 L 79,19 L 77,19 L 76,18 L 76,17 L 77,16 L 77,9 L 75,7 L 74,7 L 73,6 L 72,6 L 71,7 L 70,7 L 69,8 L 66,5 L 66,1 L 65,0 Z" fill="none" stroke="black" stroke-width="1"/>
</svg>