<svg xmlns="http://www.w3.org/2000/svg" width="99" height="107">
  <path d="M 39,0 L 36,3 L 34,3 L 33,4 L 31,4 L 31,6 L 32,7 L 32,8 L 33,9 L 33,10 L 35,12 L 35,14 L 30,19 L 30,23 L 31,24 L 31,26 L 33,28 L 33,29 L 34,30 L 36,30 L 37,31 L 39,31 L 41,33 L 42,33 L 45,36 L 45,37 L 46,38 L 46,39 L 45,40 L 45,41 L 44,42 L 47,45 L 47,48 L 48,49 L 48,52 L 49,53 L 49,54 L 50,55 L 50,56 L 51,57 L 53,57 L 60,50 L 63,50 L 64,51 L 66,51 L 67,50 L 67,49 L 70,46 L 71,46 L 72,45 L 75,45 L 76,46 L 77,46 L 78,47 L 79,47 L 81,49 L 81,52 L 82,53 L 82,54 L 81,55 L 81,57 L 84,57 L 85,56 L 91,56 L 92,55 L 94,55 L 95,56 L 97,56 L 97,55 L 98,54 L 98,52 L 93,47 L 94,46 L 94,45 L 95,44 L 95,42 L 88,42 L 83,37 L 82,37 L 80,35 L 80,34 L 78,34 L 77,33 L 77,31 L 75,31 L 74,32 L 70,32 L 66,28 L 60,28 L 59,29 L 55,29 L 54,28 L 51,28 L 48,25 L 48,24 L 47,24 L 46,23 L 46,21 L 45,20 L 45,19 L 46,18 L 46,17 L 47,16 L 47,15 L 46,14 L 44,14 L 43,13 L 43,6 L 42,5 L 42,4 L 40,2 L 40,1 Z" fill="none" stroke="black" stroke-width="1"/>
</svg>