<svg xmlns="http://www.w3.org/2000/svg" width="99" height="107">
  <path d="M 44,44 L 43,45 L 40,45 L 39,46 L 38,46 L 37,47 L 33,47 L 32,46 L 28,46 L 27,47 L 26,47 L 25,48 L 24,48 L 23,47 L 18,47 L 17,48 L 17,50 L 18,51 L 18,54 L 16,56 L 16,57 L 19,60 L 25,60 L 28,63 L 29,63 L 31,65 L 31,66 L 33,66 L 34,65 L 35,65 L 36,66 L 36,69 L 37,70 L 37,71 L 39,73 L 39,76 L 42,79 L 47,79 L 47,78 L 49,76 L 50,76 L 51,75 L 52,75 L 52,71 L 51,70 L 51,69 L 53,67 L 53,66 L 54,65 L 54,64 L 55,63 L 55,60 L 54,60 L 52,58 L 51,58 L 49,56 L 49,55 L 48,54 L 48,53 L 47,52 L 47,49 L 46,48 L 46,45 L 45,44 Z" fill="none" stroke="black" stroke-width="1"/>
</svg>