<svg xmlns="http://www.w3.org/2000/svg" width="188" height="124">
  <path d="M 183,45 L 182,46 L 181,46 L 178,49 L 175,49 L 174,48 L 172,48 L 171,47 L 170,48 L 169,48 L 168,49 L 165,49 L 164,50 L 163,50 L 161,52 L 160,52 L 158,54 L 155,54 L 154,53 L 152,53 L 151,54 L 148,51 L 146,51 L 145,52 L 143,52 L 142,53 L 141,53 L 140,52 L 139,52 L 137,50 L 129,50 L 128,49 L 126,49 L 125,48 L 116,48 L 114,50 L 111,50 L 109,52 L 109,55 L 107,57 L 107,58 L 106,59 L 105,59 L 104,60 L 104,62 L 103,63 L 102,63 L 102,65 L 103,66 L 103,67 L 105,69 L 105,70 L 104,71 L 104,72 L 105,72 L 106,73 L 107,73 L 108,74 L 110,74 L 112,76 L 113,76 L 116,79 L 116,80 L 118,82 L 120,82 L 121,83 L 125,83 L 126,84 L 128,84 L 129,85 L 130,85 L 131,86 L 137,86 L 139,84 L 140,84 L 143,81 L 148,81 L 150,83 L 151,82 L 152,82 L 153,81 L 156,81 L 158,83 L 158,84 L 162,84 L 163,85 L 163,84 L 171,76 L 171,74 L 172,73 L 172,72 L 174,70 L 174,69 L 185,58 L 186,58 L 186,57 L 187,56 L 186,56 L 185,55 L 185,53 L 184,52 L 183,52 L 182,51 L 182,50 L 183,49 Z" fill="none" stroke="black" stroke-width="1"/>
</svg>