<svg xmlns="http://www.w3.org/2000/svg" width="83" height="100">
  <path d="M 60,22 L 60,23 L 59,24 L 58,24 L 57,25 L 56,25 L 55,26 L 52,26 L 51,27 L 50,27 L 49,28 L 49,29 L 48,30 L 47,30 L 45,28 L 44,28 L 45,29 L 45,30 L 44,31 L 43,31 L 42,32 L 40,32 L 38,34 L 37,34 L 37,36 L 35,38 L 34,38 L 34,40 L 33,41 L 34,41 L 35,42 L 38,42 L 41,45 L 41,46 L 40,47 L 40,48 L 41,48 L 42,49 L 43,49 L 44,48 L 45,48 L 46,49 L 47,49 L 50,52 L 50,53 L 51,53 L 52,54 L 51,55 L 54,58 L 54,59 L 55,59 L 56,60 L 57,59 L 58,59 L 58,56 L 59,55 L 61,55 L 62,54 L 66,54 L 64,52 L 64,48 L 65,47 L 62,44 L 62,37 L 63,36 L 63,34 L 65,32 L 65,28 L 66,27 L 65,26 L 65,24 L 64,23 L 61,23 Z" fill="none" stroke="black" stroke-width="1"/>
</svg>