<svg xmlns="http://www.w3.org/2000/svg" width="188" height="124">
  <path d="M 37,61 L 36,62 L 30,62 L 29,63 L 26,63 L 30,67 L 30,72 L 29,73 L 29,81 L 27,83 L 27,84 L 21,90 L 21,91 L 18,94 L 18,95 L 17,96 L 16,96 L 16,97 L 15,98 L 14,98 L 13,99 L 6,99 L 5,100 L 4,100 L 2,102 L 2,103 L 0,105 L 3,105 L 4,106 L 9,106 L 11,108 L 12,108 L 14,110 L 15,110 L 16,111 L 17,111 L 21,115 L 22,115 L 23,116 L 24,116 L 25,117 L 26,117 L 27,118 L 34,118 L 35,117 L 37,117 L 38,116 L 39,116 L 40,115 L 42,115 L 43,114 L 46,114 L 47,113 L 49,113 L 49,112 L 50,111 L 50,106 L 51,105 L 51,101 L 54,98 L 56,98 L 57,97 L 57,95 L 58,94 L 58,93 L 57,92 L 57,91 L 56,90 L 56,88 L 57,87 L 59,87 L 59,86 L 61,84 L 64,84 L 64,83 L 67,80 L 67,79 L 66,78 L 66,77 L 65,76 L 65,74 L 68,71 L 67,70 L 66,70 L 65,71 L 55,71 L 54,70 L 50,70 L 49,71 L 46,71 L 45,70 L 45,68 L 43,66 L 43,65 L 42,65 L 40,63 L 40,62 L 39,61 Z" fill="none" stroke="black" stroke-width="1"/>
</svg>