<svg xmlns="http://www.w3.org/2000/svg" width="65" height="81">
  <path d="M 9,37 L 8,38 L 8,40 L 10,42 L 9,43 L 9,44 L 8,45 L 8,47 L 10,49 L 9,50 L 7,50 L 7,57 L 6,58 L 5,58 L 4,59 L 1,59 L 1,60 L 0,61 L 0,62 L 2,64 L 2,65 L 4,67 L 3,68 L 4,69 L 3,70 L 3,72 L 5,74 L 6,74 L 9,77 L 9,78 L 10,79 L 12,77 L 13,77 L 14,78 L 14,79 L 15,80 L 16,80 L 16,79 L 17,78 L 17,76 L 16,75 L 16,71 L 14,71 L 13,70 L 13,67 L 14,66 L 15,67 L 15,63 L 14,62 L 14,61 L 17,58 L 19,58 L 20,57 L 21,57 L 21,56 L 22,55 L 27,55 L 28,54 L 29,54 L 31,52 L 32,52 L 32,51 L 34,49 L 35,49 L 36,48 L 37,48 L 36,48 L 35,47 L 34,47 L 33,46 L 33,45 L 31,43 L 31,41 L 30,41 L 29,40 L 25,40 L 21,44 L 20,44 L 19,43 L 19,41 L 18,41 L 16,39 L 16,38 L 14,38 L 13,37 Z" fill="none" stroke="black" stroke-width="1"/>
</svg>