<svg xmlns="http://www.w3.org/2000/svg" width="51" height="45">
  <path d="M 18,4 L 16,6 L 15,6 L 15,7 L 14,8 L 14,9 L 15,10 L 14,11 L 12,11 L 11,10 L 7,10 L 6,11 L 5,11 L 5,13 L 4,14 L 4,15 L 3,16 L 3,18 L 1,20 L 0,20 L 8,20 L 9,21 L 8,22 L 6,22 L 5,23 L 5,24 L 8,24 L 9,23 L 10,24 L 11,23 L 13,25 L 12,26 L 11,26 L 11,27 L 12,26 L 13,26 L 14,25 L 15,25 L 15,23 L 14,23 L 13,22 L 13,20 L 15,18 L 16,18 L 17,17 L 18,17 L 19,16 L 18,15 L 18,13 L 19,12 L 19,11 L 20,10 L 20,9 L 21,8 L 21,7 L 22,6 L 22,5 L 21,4 Z" fill="none" stroke="black" stroke-width="1"/>
</svg>