<svg xmlns="http://www.w3.org/2000/svg" width="42" height="83">
  <path d="M 6,6 L 4,8 L 3,8 L 1,10 L 1,12 L 0,13 L 0,14 L 1,15 L 1,16 L 3,18 L 5,18 L 7,20 L 8,20 L 10,22 L 10,23 L 12,25 L 11,26 L 11,29 L 10,30 L 13,33 L 13,34 L 14,35 L 14,36 L 15,36 L 16,37 L 16,38 L 17,38 L 18,39 L 19,38 L 22,38 L 23,39 L 24,39 L 25,40 L 27,40 L 27,39 L 29,37 L 28,36 L 28,35 L 27,34 L 27,32 L 26,32 L 25,31 L 25,30 L 23,28 L 23,27 L 20,24 L 20,23 L 16,19 L 16,16 L 15,16 L 12,13 L 11,13 L 10,12 L 10,11 L 9,10 L 9,9 L 7,7 L 7,6 Z" fill="none" stroke="black" stroke-width="1"/>
</svg>