<svg xmlns="http://www.w3.org/2000/svg" width="125" height="102">
  <path d="M 55,0 L 53,2 L 47,2 L 43,6 L 42,6 L 40,8 L 39,8 L 38,9 L 35,9 L 32,12 L 32,13 L 31,14 L 31,15 L 32,16 L 32,18 L 29,21 L 28,21 L 25,24 L 26,25 L 26,27 L 27,28 L 27,31 L 28,32 L 28,35 L 29,36 L 30,36 L 31,37 L 34,37 L 35,36 L 35,35 L 36,34 L 38,34 L 39,35 L 40,35 L 41,36 L 42,36 L 43,37 L 43,38 L 44,38 L 45,37 L 45,36 L 47,34 L 48,34 L 49,33 L 52,33 L 54,31 L 55,31 L 56,30 L 57,30 L 58,29 L 60,29 L 61,30 L 61,31 L 62,32 L 65,32 L 68,35 L 68,36 L 69,37 L 72,37 L 73,38 L 72,39 L 73,39 L 74,38 L 75,38 L 76,37 L 77,37 L 78,36 L 78,35 L 79,34 L 80,34 L 82,32 L 82,28 L 83,27 L 83,26 L 84,25 L 84,24 L 86,22 L 86,21 L 87,20 L 87,15 L 85,13 L 81,13 L 79,11 L 79,10 L 77,8 L 75,8 L 74,7 L 73,7 L 72,6 L 71,6 L 70,5 L 70,4 L 64,4 L 63,5 L 60,5 L 58,3 L 58,1 L 57,0 Z" fill="none" stroke="black" stroke-width="1"/>
</svg>