<svg xmlns="http://www.w3.org/2000/svg" width="57" height="61">
  <path d="M 35,34 L 32,37 L 30,37 L 28,39 L 26,39 L 24,41 L 24,43 L 25,44 L 25,45 L 26,46 L 26,47 L 24,49 L 23,49 L 22,50 L 22,53 L 23,54 L 23,56 L 24,57 L 24,58 L 23,59 L 23,60 L 25,60 L 26,59 L 26,55 L 28,53 L 29,54 L 31,54 L 33,56 L 33,57 L 32,58 L 33,59 L 34,58 L 36,58 L 38,60 L 39,60 L 40,59 L 40,57 L 41,56 L 42,56 L 42,55 L 40,53 L 40,45 L 42,43 L 42,38 L 43,37 L 41,35 L 41,34 Z" fill="none" stroke="black" stroke-width="1"/>
</svg>