<svg xmlns="http://www.w3.org/2000/svg" width="142" height="46">
  <path d="M 121,24 L 120,25 L 117,25 L 116,26 L 115,26 L 114,25 L 110,25 L 109,26 L 105,26 L 104,25 L 104,26 L 112,26 L 113,27 L 111,29 L 107,29 L 106,28 L 105,28 L 105,33 L 106,33 L 107,34 L 107,35 L 108,36 L 108,38 L 110,40 L 110,41 L 111,41 L 113,39 L 116,39 L 117,40 L 129,40 L 130,41 L 131,41 L 133,43 L 133,37 L 132,36 L 132,34 L 130,36 L 126,36 L 125,35 L 124,35 L 123,34 L 124,33 L 129,33 L 129,31 L 128,30 L 125,30 L 124,31 L 123,30 L 123,29 L 124,28 L 126,28 L 125,28 L 124,27 L 125,26 L 134,26 L 135,25 L 139,25 L 140,24 L 141,24 L 139,24 L 138,25 L 133,25 L 132,24 L 127,24 L 126,25 L 125,25 L 124,24 Z" fill="none" stroke="black" stroke-width="1"/>
  <path d="M 87,20 L 87,21 L 89,21 L 88,20 Z" fill="none" stroke="black" stroke-width="1"/>
  <path d="M 110,17 L 107,20 L 106,20 L 105,19 L 102,19 L 103,20 L 106,20 L 107,21 L 109,21 L 111,19 L 110,18 Z" fill="none" stroke="black" stroke-width="1"/>
</svg>