<svg xmlns="http://www.w3.org/2000/svg" width="153" height="110">
  <path d="M 84,0 L 83,1 L 80,1 L 79,2 L 78,2 L 77,3 L 73,3 L 72,4 L 71,4 L 70,5 L 69,5 L 68,6 L 67,6 L 66,7 L 62,7 L 61,8 L 59,8 L 58,9 L 57,9 L 56,10 L 55,10 L 52,13 L 51,13 L 50,14 L 47,14 L 49,16 L 49,17 L 50,18 L 50,20 L 48,22 L 48,23 L 50,25 L 50,29 L 52,31 L 52,36 L 51,37 L 51,39 L 52,39 L 54,41 L 54,42 L 57,45 L 57,47 L 58,48 L 58,50 L 57,51 L 57,55 L 56,56 L 56,60 L 57,61 L 57,63 L 56,64 L 56,65 L 58,67 L 58,69 L 57,70 L 57,71 L 58,71 L 59,72 L 63,72 L 64,71 L 65,71 L 67,73 L 68,73 L 69,72 L 72,75 L 73,75 L 74,76 L 78,76 L 78,72 L 80,70 L 81,70 L 82,69 L 85,69 L 86,70 L 87,70 L 88,69 L 91,69 L 89,67 L 89,65 L 86,62 L 86,61 L 85,60 L 85,58 L 86,57 L 86,55 L 85,54 L 85,53 L 84,52 L 84,50 L 83,49 L 83,46 L 84,45 L 84,43 L 83,42 L 83,38 L 82,37 L 82,36 L 80,34 L 80,28 L 79,27 L 79,24 L 78,23 L 78,17 L 79,16 L 79,15 L 80,14 L 80,12 L 81,11 L 81,10 L 82,9 L 86,9 L 87,8 L 87,7 L 88,6 L 88,5 L 89,4 L 87,4 L 86,3 L 85,3 L 84,2 Z" fill="none" stroke="black" stroke-width="1"/>
</svg>