<svg xmlns="http://www.w3.org/2000/svg" width="82" height="129">
  <path d="M 41,49 L 40,50 L 39,50 L 37,52 L 37,54 L 36,55 L 34,55 L 34,56 L 33,57 L 31,57 L 30,58 L 29,58 L 28,59 L 28,60 L 27,61 L 27,65 L 28,66 L 28,68 L 29,68 L 30,69 L 31,69 L 32,70 L 32,72 L 37,72 L 38,73 L 44,73 L 45,74 L 45,75 L 46,75 L 47,76 L 48,76 L 50,78 L 50,79 L 49,80 L 49,81 L 53,85 L 53,86 L 56,86 L 58,84 L 59,84 L 61,82 L 61,81 L 65,77 L 65,75 L 63,73 L 62,73 L 61,74 L 61,75 L 59,77 L 59,80 L 58,81 L 57,80 L 57,75 L 58,74 L 58,72 L 59,71 L 60,71 L 60,66 L 59,65 L 59,64 L 57,62 L 56,62 L 55,61 L 55,60 L 49,54 L 48,54 L 46,52 L 45,52 L 43,50 L 42,50 Z" fill="none" stroke="black" stroke-width="1"/>
</svg>