<svg xmlns="http://www.w3.org/2000/svg" width="82" height="129">
  <path d="M 66,74 L 66,77 L 62,81 L 62,82 L 59,85 L 58,85 L 56,87 L 53,87 L 53,88 L 52,89 L 52,92 L 53,93 L 53,97 L 54,98 L 54,104 L 55,105 L 55,106 L 56,107 L 56,109 L 57,110 L 57,112 L 59,114 L 61,114 L 62,115 L 62,116 L 64,118 L 64,121 L 65,121 L 66,122 L 66,128 L 67,128 L 67,127 L 68,126 L 69,126 L 70,125 L 71,125 L 70,124 L 70,121 L 69,120 L 69,115 L 70,114 L 70,113 L 71,112 L 71,111 L 70,111 L 69,110 L 69,106 L 70,105 L 71,105 L 73,103 L 77,103 L 78,102 L 78,101 L 79,100 L 80,100 L 80,99 L 79,99 L 78,98 L 78,97 L 79,96 L 80,96 L 81,95 L 81,93 L 80,92 L 80,85 L 77,82 L 76,82 L 75,83 L 74,82 L 74,81 L 68,75 L 67,75 Z" fill="none" stroke="black" stroke-width="1"/>
</svg>