<svg xmlns="http://www.w3.org/2000/svg" width="99" height="47">
  <path d="M 44,0 L 44,1 L 46,1 L 47,2 L 46,3 L 42,3 L 40,1 L 31,1 L 30,2 L 31,3 L 30,4 L 29,4 L 28,3 L 26,3 L 25,2 L 23,2 L 22,1 L 13,1 L 12,2 L 12,8 L 10,10 L 9,10 L 9,11 L 10,11 L 11,12 L 11,15 L 14,15 L 15,14 L 25,14 L 26,15 L 26,16 L 27,17 L 29,17 L 30,18 L 33,18 L 34,17 L 35,17 L 36,16 L 38,16 L 39,15 L 41,15 L 42,16 L 42,17 L 45,17 L 48,14 L 50,14 L 51,15 L 52,15 L 53,16 L 54,16 L 54,15 L 55,14 L 55,13 L 56,12 L 57,12 L 57,10 L 58,9 L 60,9 L 60,6 L 59,5 L 59,3 L 57,3 L 56,2 L 53,2 L 52,1 L 45,1 Z" fill="none" stroke="black" stroke-width="1"/>
</svg>