<svg xmlns="http://www.w3.org/2000/svg" width="99" height="47">
  <path d="M 62,4 L 61,5 L 61,9 L 60,10 L 58,10 L 58,12 L 57,13 L 56,13 L 56,14 L 55,15 L 55,16 L 54,17 L 53,17 L 53,20 L 54,21 L 54,24 L 55,25 L 55,31 L 56,32 L 56,33 L 58,33 L 58,32 L 59,31 L 63,31 L 64,32 L 66,32 L 67,31 L 68,31 L 69,32 L 73,32 L 76,35 L 76,36 L 77,37 L 77,38 L 78,38 L 84,44 L 84,45 L 85,46 L 87,46 L 88,45 L 90,45 L 90,43 L 92,41 L 92,38 L 93,37 L 94,37 L 94,36 L 95,35 L 96,35 L 96,34 L 97,33 L 98,33 L 98,30 L 97,30 L 96,29 L 96,28 L 95,27 L 95,24 L 93,22 L 93,23 L 92,24 L 91,23 L 91,22 L 89,20 L 89,19 L 88,19 L 86,17 L 85,17 L 84,16 L 83,16 L 79,12 L 79,11 L 78,10 L 77,10 L 76,9 L 72,9 L 71,8 L 69,8 L 68,7 L 67,7 L 66,6 L 65,6 L 63,4 Z" fill="none" stroke="black" stroke-width="1"/>
</svg>