<svg xmlns="http://www.w3.org/2000/svg" width="91" height="127">
  <path d="M 82,40 L 79,43 L 79,44 L 76,47 L 73,47 L 71,49 L 68,49 L 63,54 L 62,54 L 62,55 L 61,56 L 56,56 L 56,57 L 55,58 L 53,58 L 51,60 L 50,60 L 49,61 L 48,61 L 48,65 L 46,67 L 46,68 L 45,69 L 45,74 L 43,76 L 43,80 L 41,82 L 40,82 L 41,83 L 41,84 L 43,86 L 44,86 L 48,90 L 48,91 L 51,91 L 52,90 L 53,91 L 53,92 L 54,91 L 57,91 L 58,90 L 58,88 L 61,85 L 61,81 L 66,76 L 66,75 L 67,74 L 67,72 L 70,69 L 71,70 L 71,71 L 69,73 L 69,75 L 70,74 L 70,73 L 71,72 L 71,69 L 74,66 L 76,66 L 77,65 L 77,64 L 79,62 L 79,61 L 80,60 L 80,59 L 82,57 L 83,57 L 83,56 L 84,55 L 85,56 L 85,57 L 86,57 L 88,55 L 86,55 L 85,54 L 87,52 L 88,53 L 89,53 L 89,51 L 90,50 L 88,50 L 87,49 L 89,47 L 90,47 L 90,43 L 87,40 Z" fill="none" stroke="black" stroke-width="1"/>
</svg>