<svg xmlns="http://www.w3.org/2000/svg" width="92" height="118">
  <path d="M 46,35 L 45,36 L 45,37 L 44,38 L 45,38 L 45,37 L 46,36 Z" fill="none" stroke="black" stroke-width="1"/>
  <path d="M 55,27 L 54,28 L 55,28 Z" fill="none" stroke="black" stroke-width="1"/>
  <path d="M 69,20 L 68,21 L 67,21 L 66,22 L 65,21 L 63,21 L 61,23 L 60,22 L 59,23 L 58,23 L 57,24 L 57,25 L 58,26 L 58,28 L 57,29 L 57,30 L 56,31 L 54,31 L 55,32 L 57,32 L 58,33 L 57,34 L 54,34 L 54,35 L 53,36 L 51,34 L 50,34 L 48,36 L 48,39 L 46,41 L 42,41 L 41,42 L 41,44 L 40,45 L 40,46 L 39,47 L 39,49 L 40,50 L 40,53 L 39,54 L 38,54 L 37,55 L 36,55 L 36,62 L 38,64 L 39,64 L 40,63 L 41,63 L 42,62 L 48,62 L 49,61 L 51,61 L 52,60 L 53,60 L 55,58 L 56,58 L 57,57 L 58,57 L 60,55 L 62,55 L 63,54 L 75,54 L 76,53 L 77,53 L 78,52 L 83,52 L 84,51 L 84,50 L 86,48 L 86,47 L 88,45 L 88,43 L 89,42 L 89,41 L 90,40 L 90,38 L 91,37 L 91,29 L 90,28 L 89,29 L 88,28 L 88,26 L 86,26 L 85,27 L 84,27 L 82,25 L 82,23 L 81,23 L 80,24 L 79,23 L 79,22 L 79,23 L 78,24 L 77,23 L 77,21 L 76,22 L 74,22 L 73,21 L 73,20 L 71,20 L 71,22 L 70,23 L 69,22 Z" fill="none" stroke="black" stroke-width="1"/>
</svg>