<svg xmlns="http://www.w3.org/2000/svg" width="101" height="127">
  <path d="M 59,26 L 58,27 L 59,28 L 59,29 Z" fill="none" stroke="black" stroke-width="1"/>
  <path d="M 76,20 L 76,22 L 75,23 L 71,23 L 70,24 L 69,24 L 68,25 L 68,26 L 66,28 L 62,28 L 61,27 L 64,24 L 65,24 L 66,23 L 66,21 L 65,22 L 62,22 L 62,23 L 61,24 L 61,30 L 57,34 L 56,34 L 57,35 L 57,37 L 55,39 L 55,40 L 52,43 L 51,43 L 50,44 L 49,44 L 48,45 L 47,45 L 46,46 L 46,50 L 47,51 L 47,52 L 49,54 L 50,54 L 51,55 L 54,55 L 55,56 L 58,56 L 59,57 L 63,57 L 64,56 L 66,56 L 67,55 L 68,55 L 69,54 L 69,53 L 70,52 L 71,52 L 72,51 L 74,51 L 77,48 L 80,48 L 81,47 L 83,47 L 83,45 L 84,44 L 87,44 L 87,38 L 88,37 L 91,37 L 91,36 L 92,35 L 96,35 L 96,33 L 97,32 L 99,32 L 99,31 L 100,30 L 100,26 L 100,27 L 99,28 L 98,28 L 97,27 L 95,27 L 94,26 L 93,27 L 92,26 L 91,26 L 90,25 L 89,25 L 87,23 L 85,23 L 84,22 L 82,22 L 80,20 Z" fill="none" stroke="black" stroke-width="1"/>
</svg>