<svg xmlns="http://www.w3.org/2000/svg" width="97" height="80">
  <path d="M 35,37 L 33,39 L 32,39 L 30,41 L 25,41 L 24,42 L 20,42 L 19,41 L 18,41 L 17,40 L 14,40 L 13,41 L 12,41 L 11,42 L 10,42 L 9,43 L 7,43 L 7,44 L 6,45 L 5,45 L 5,46 L 6,47 L 6,56 L 7,57 L 7,58 L 12,63 L 12,68 L 15,71 L 15,72 L 16,73 L 16,74 L 17,73 L 23,73 L 24,74 L 28,74 L 31,77 L 31,78 L 32,79 L 33,79 L 35,77 L 36,77 L 37,76 L 39,76 L 39,73 L 40,72 L 39,71 L 39,70 L 38,69 L 38,68 L 37,67 L 37,65 L 38,64 L 38,63 L 39,62 L 39,57 L 40,56 L 40,55 L 41,54 L 41,53 L 43,51 L 43,50 L 45,48 L 46,48 L 49,45 L 49,44 L 50,43 L 50,42 L 48,42 L 47,41 L 44,41 L 43,40 L 42,40 L 41,39 L 40,39 L 39,38 L 37,38 L 36,37 Z" fill="none" stroke="black" stroke-width="1"/>
</svg>