<svg xmlns="http://www.w3.org/2000/svg" width="104" height="123">
  <path d="M 89,36 L 89,37 L 88,38 L 86,38 L 85,39 L 84,39 L 80,43 L 79,43 L 78,44 L 77,44 L 76,45 L 74,45 L 73,46 L 72,46 L 71,47 L 68,47 L 66,49 L 64,49 L 62,51 L 59,51 L 59,55 L 62,55 L 63,56 L 63,58 L 62,59 L 61,59 L 61,63 L 60,64 L 53,64 L 53,69 L 54,70 L 54,71 L 53,72 L 53,74 L 52,75 L 52,76 L 51,77 L 51,81 L 50,82 L 50,86 L 49,87 L 49,97 L 51,99 L 51,100 L 52,101 L 52,102 L 53,103 L 53,105 L 54,106 L 56,106 L 57,107 L 59,107 L 60,108 L 64,108 L 65,107 L 67,107 L 69,105 L 70,105 L 72,103 L 73,103 L 74,102 L 76,102 L 78,100 L 78,99 L 80,97 L 81,97 L 83,95 L 83,94 L 84,93 L 86,93 L 87,92 L 88,92 L 89,91 L 90,91 L 90,90 L 93,87 L 95,87 L 95,86 L 98,83 L 98,80 L 103,75 L 103,74 L 102,73 L 102,72 L 99,69 L 99,64 L 94,59 L 94,58 L 93,57 L 93,48 L 92,47 L 92,42 L 91,41 L 91,40 L 90,39 L 90,36 Z" fill="none" stroke="black" stroke-width="1"/>
</svg>