<svg xmlns="http://www.w3.org/2000/svg" width="97" height="80">
  <path d="M 60,32 L 59,33 L 58,33 L 57,34 L 56,34 L 54,36 L 54,38 L 52,40 L 52,41 L 51,42 L 51,43 L 50,44 L 50,45 L 47,48 L 47,52 L 48,53 L 49,53 L 50,54 L 51,54 L 52,55 L 55,55 L 57,57 L 58,57 L 59,58 L 59,59 L 60,60 L 61,60 L 62,61 L 63,61 L 64,62 L 68,62 L 69,61 L 72,61 L 72,59 L 74,57 L 75,57 L 76,56 L 85,56 L 86,55 L 96,55 L 95,54 L 95,52 L 94,51 L 94,50 L 93,49 L 93,44 L 92,43 L 92,42 L 91,41 L 91,40 L 88,37 L 85,37 L 84,36 L 80,36 L 79,37 L 75,37 L 74,36 L 72,36 L 71,37 L 70,37 L 67,34 L 63,34 L 61,32 Z" fill="none" stroke="black" stroke-width="1"/>
</svg>