<svg xmlns="http://www.w3.org/2000/svg" width="89" height="138">
  <path d="M 70,44 L 68,46 L 68,47 L 70,45 Z" fill="none" stroke="black" stroke-width="1"/>
  <path d="M 78,17 L 78,18 L 76,20 L 76,21 L 75,22 L 75,24 L 72,27 L 71,27 L 70,28 L 69,28 L 67,30 L 64,30 L 63,31 L 61,31 L 56,36 L 56,37 L 55,38 L 58,38 L 60,40 L 63,40 L 65,42 L 65,41 L 66,40 L 67,41 L 68,41 L 68,39 L 69,38 L 70,39 L 70,40 L 72,40 L 73,41 L 73,44 L 72,45 L 73,45 L 80,38 L 80,37 L 81,36 L 81,35 L 84,32 L 84,30 L 85,29 L 85,28 L 86,27 L 86,26 L 87,25 L 87,24 L 88,23 L 88,21 L 83,21 L 82,20 L 81,20 L 79,18 L 79,17 Z" fill="none" stroke="black" stroke-width="1"/>
</svg>