<svg xmlns="http://www.w3.org/2000/svg" width="89" height="138">
  <path d="M 53,39 L 52,40 L 52,41 L 51,42 L 51,43 L 50,44 L 50,45 L 51,46 L 52,46 L 56,50 L 56,61 L 55,62 L 55,65 L 54,66 L 54,70 L 53,71 L 53,81 L 54,82 L 54,90 L 56,90 L 57,89 L 58,89 L 59,88 L 60,88 L 61,87 L 64,87 L 65,88 L 65,84 L 64,83 L 64,76 L 63,75 L 63,70 L 64,69 L 64,64 L 63,63 L 65,61 L 65,60 L 64,60 L 63,59 L 64,58 L 64,55 L 65,54 L 65,53 L 66,52 L 65,52 L 65,53 L 64,54 L 63,53 L 63,51 L 66,48 L 66,45 L 68,43 L 65,43 L 63,41 L 60,41 L 58,39 Z" fill="none" stroke="black" stroke-width="1"/>
</svg>