<svg xmlns="http://www.w3.org/2000/svg" width="115" height="109">
  <path d="M 37,1 L 36,2 L 36,5 L 33,8 L 33,10 L 31,12 L 31,17 L 28,20 L 28,29 L 27,30 L 27,31 L 25,33 L 22,33 L 21,34 L 20,34 L 17,37 L 13,37 L 13,43 L 14,44 L 14,45 L 19,50 L 19,51 L 20,52 L 21,52 L 23,54 L 25,54 L 27,56 L 35,56 L 36,57 L 42,57 L 43,56 L 44,56 L 45,57 L 46,57 L 47,58 L 49,58 L 50,57 L 51,57 L 52,56 L 53,56 L 55,54 L 56,54 L 57,53 L 64,53 L 65,52 L 66,52 L 67,51 L 68,51 L 69,52 L 73,52 L 75,50 L 76,50 L 76,49 L 77,48 L 76,48 L 75,47 L 75,46 L 74,45 L 74,42 L 75,41 L 75,36 L 72,33 L 72,31 L 70,29 L 68,29 L 67,28 L 64,28 L 63,27 L 62,27 L 60,25 L 60,24 L 59,24 L 58,23 L 57,23 L 55,21 L 55,19 L 54,18 L 54,17 L 53,16 L 53,14 L 54,13 L 54,10 L 56,8 L 56,7 L 58,5 L 58,4 L 55,4 L 54,3 L 52,3 L 51,2 L 44,2 L 43,1 Z" fill="none" stroke="black" stroke-width="1"/>
</svg>