<svg xmlns="http://www.w3.org/2000/svg" width="114" height="77">
  <path d="M 54,7 L 54,9 L 52,11 L 51,11 L 51,14 L 50,15 L 49,15 L 49,17 L 47,19 L 46,19 L 46,21 L 45,22 L 40,22 L 40,26 L 39,27 L 38,27 L 38,42 L 40,42 L 41,43 L 41,48 L 36,53 L 36,54 L 35,55 L 35,57 L 37,57 L 38,58 L 39,58 L 40,59 L 49,59 L 50,60 L 55,60 L 57,62 L 57,63 L 58,64 L 60,64 L 61,63 L 61,62 L 65,58 L 66,58 L 66,57 L 67,56 L 67,55 L 71,51 L 71,50 L 75,46 L 75,45 L 76,44 L 76,43 L 77,42 L 77,40 L 79,38 L 79,36 L 80,35 L 80,34 L 84,30 L 85,30 L 85,29 L 90,24 L 93,24 L 92,23 L 92,20 L 90,18 L 90,17 L 89,17 L 88,16 L 87,16 L 86,15 L 84,15 L 83,14 L 82,14 L 81,13 L 78,13 L 74,9 L 73,9 L 72,8 L 70,8 L 69,7 L 66,7 L 65,8 L 60,8 L 59,7 Z" fill="none" stroke="black" stroke-width="1"/>
</svg>