<svg xmlns="http://www.w3.org/2000/svg" width="89" height="138">
  <path d="M 61,88 L 60,89 L 59,89 L 58,90 L 57,90 L 56,91 L 53,91 L 52,92 L 51,92 L 50,93 L 45,93 L 45,96 L 44,97 L 44,98 L 43,99 L 42,99 L 42,101 L 43,102 L 43,104 L 42,105 L 42,106 L 41,107 L 41,108 L 40,109 L 40,112 L 39,113 L 39,114 L 40,115 L 40,117 L 41,118 L 41,119 L 43,121 L 43,127 L 41,129 L 41,131 L 40,132 L 41,132 L 44,135 L 47,135 L 48,136 L 51,136 L 52,137 L 52,136 L 53,135 L 53,133 L 54,132 L 54,129 L 59,124 L 60,124 L 62,122 L 62,121 L 61,120 L 61,110 L 62,109 L 62,105 L 63,104 L 63,100 L 64,99 L 64,97 L 65,96 L 65,93 L 66,92 L 66,90 L 64,88 Z" fill="none" stroke="black" stroke-width="1"/>
</svg>