<svg xmlns="http://www.w3.org/2000/svg" width="107" height="89">
  <path d="M 87,0 L 86,1 L 82,1 L 81,2 L 80,2 L 80,4 L 79,5 L 79,7 L 78,8 L 78,10 L 79,11 L 79,17 L 78,18 L 78,21 L 76,23 L 75,23 L 70,28 L 70,38 L 65,43 L 65,47 L 67,49 L 67,50 L 68,50 L 69,51 L 74,51 L 75,52 L 83,52 L 84,53 L 85,53 L 85,52 L 86,51 L 86,48 L 88,46 L 88,45 L 89,44 L 89,42 L 90,41 L 92,41 L 95,38 L 95,37 L 96,36 L 96,35 L 97,34 L 96,33 L 96,32 L 97,31 L 98,32 L 98,31 L 99,30 L 99,27 L 101,25 L 101,24 L 103,22 L 104,22 L 105,21 L 105,20 L 106,19 L 106,10 L 105,9 L 105,6 L 104,5 L 101,5 L 100,4 L 97,4 L 94,1 L 93,1 L 92,0 Z" fill="none" stroke="black" stroke-width="1"/>
</svg>