<svg xmlns="http://www.w3.org/2000/svg" width="107" height="89">
  <path d="M 64,47 L 63,48 L 62,48 L 61,49 L 60,49 L 60,50 L 54,56 L 53,56 L 53,59 L 55,61 L 55,64 L 56,65 L 56,70 L 55,71 L 55,74 L 54,75 L 54,77 L 60,77 L 61,76 L 70,76 L 70,75 L 71,74 L 71,73 L 70,72 L 70,71 L 72,69 L 72,68 L 74,66 L 75,66 L 76,65 L 77,65 L 78,64 L 79,64 L 80,63 L 82,63 L 83,62 L 84,62 L 85,61 L 86,61 L 86,55 L 85,54 L 84,54 L 83,53 L 75,53 L 74,52 L 69,52 L 68,51 L 67,51 L 66,50 L 66,49 Z" fill="none" stroke="black" stroke-width="1"/>
</svg>