<svg xmlns="http://www.w3.org/2000/svg" width="107" height="89">
  <path d="M 27,63 L 26,64 L 25,64 L 24,65 L 24,66 L 22,68 L 21,68 L 20,69 L 18,69 L 17,70 L 16,70 L 15,71 L 1,71 L 0,72 L 0,73 L 1,74 L 1,75 L 3,77 L 4,77 L 5,78 L 8,78 L 9,79 L 9,83 L 11,85 L 12,85 L 14,87 L 15,87 L 16,88 L 18,88 L 19,87 L 20,87 L 21,86 L 23,86 L 23,85 L 25,83 L 31,83 L 31,82 L 29,82 L 28,81 L 28,79 L 29,78 L 31,78 L 32,77 L 32,75 L 30,73 L 30,71 L 29,70 L 29,64 L 28,63 Z" fill="none" stroke="black" stroke-width="1"/>
</svg>