<svg xmlns="http://www.w3.org/2000/svg" width="148" height="82">
  <path d="M 87,0 L 87,2 L 85,4 L 85,6 L 81,10 L 80,10 L 74,16 L 72,16 L 71,17 L 71,18 L 73,20 L 73,23 L 74,24 L 74,31 L 75,32 L 75,33 L 76,34 L 76,35 L 77,36 L 78,36 L 79,37 L 79,41 L 78,42 L 77,42 L 77,46 L 79,48 L 80,48 L 81,49 L 82,49 L 85,52 L 85,53 L 86,54 L 89,54 L 90,55 L 91,55 L 92,56 L 95,56 L 96,57 L 97,57 L 98,58 L 100,58 L 101,59 L 104,59 L 105,58 L 110,58 L 110,52 L 111,51 L 111,43 L 110,42 L 110,40 L 111,39 L 111,38 L 114,35 L 115,35 L 117,33 L 118,33 L 120,31 L 122,31 L 123,30 L 124,30 L 126,28 L 126,27 L 127,26 L 127,25 L 128,24 L 128,23 L 131,20 L 131,18 L 129,16 L 128,16 L 127,15 L 126,15 L 124,13 L 124,9 L 125,8 L 125,5 L 121,1 L 121,0 L 120,0 L 120,1 L 119,2 L 118,2 L 115,5 L 115,6 L 113,8 L 111,8 L 109,6 L 109,5 L 108,4 L 103,4 L 102,3 L 93,3 L 92,2 L 91,2 L 90,1 L 88,1 Z" fill="none" stroke="black" stroke-width="1"/>
</svg>