<svg xmlns="http://www.w3.org/2000/svg" width="79" height="103">
  <path d="M 52,44 L 51,45 L 50,45 L 49,46 L 49,47 L 48,48 L 48,49 L 47,50 L 47,52 L 46,53 L 45,53 L 45,54 L 44,55 L 44,56 L 43,57 L 42,57 L 39,60 L 37,60 L 34,63 L 33,63 L 32,64 L 30,64 L 29,65 L 22,65 L 21,66 L 20,66 L 19,67 L 14,67 L 13,68 L 12,68 L 12,69 L 14,71 L 15,71 L 16,72 L 16,73 L 17,73 L 18,74 L 23,74 L 24,75 L 25,75 L 26,76 L 28,76 L 29,77 L 32,77 L 33,78 L 33,79 L 35,79 L 36,80 L 36,81 L 37,82 L 40,79 L 41,79 L 42,78 L 43,78 L 44,77 L 45,77 L 46,76 L 47,76 L 51,72 L 51,71 L 52,70 L 53,70 L 54,69 L 55,69 L 56,68 L 57,68 L 59,66 L 59,65 L 60,64 L 61,64 L 62,65 L 61,66 L 63,66 L 64,65 L 64,64 L 65,63 L 66,63 L 67,62 L 72,62 L 73,63 L 74,63 L 75,64 L 75,65 L 78,65 L 78,63 L 77,62 L 77,63 L 76,64 L 75,63 L 75,61 L 74,61 L 73,60 L 72,60 L 70,58 L 69,58 L 66,55 L 66,51 L 63,51 L 62,50 L 61,50 L 58,47 L 58,46 L 57,45 L 55,45 L 54,44 Z" fill="none" stroke="black" stroke-width="1"/>
</svg>