<svg xmlns="http://www.w3.org/2000/svg" width="55" height="68">
  <path d="M 41,27 L 40,28 L 40,31 L 39,32 L 39,33 L 38,34 L 36,34 L 34,36 L 34,39 L 33,40 L 31,40 L 31,41 L 30,42 L 29,42 L 29,45 L 28,46 L 28,47 L 27,48 L 27,49 L 26,50 L 26,51 L 23,54 L 22,54 L 22,56 L 24,58 L 24,60 L 26,60 L 27,61 L 28,61 L 29,62 L 32,62 L 33,61 L 39,61 L 40,60 L 42,60 L 45,57 L 47,57 L 47,56 L 48,55 L 50,55 L 51,54 L 51,50 L 50,49 L 50,47 L 49,46 L 49,42 L 51,40 L 52,40 L 54,38 L 54,37 L 53,36 L 53,32 L 52,31 L 52,30 L 49,30 L 48,29 L 46,29 L 45,28 L 44,28 L 43,27 Z" fill="none" stroke="black" stroke-width="1"/>
</svg>