<svg xmlns="http://www.w3.org/2000/svg" width="91" height="110">
  <path d="M 30,38 L 30,39 L 29,40 L 28,40 L 27,41 L 21,41 L 20,40 L 18,40 L 18,42 L 17,43 L 17,45 L 16,46 L 16,48 L 15,49 L 15,51 L 13,53 L 13,55 L 12,56 L 12,58 L 10,60 L 9,60 L 7,62 L 7,63 L 6,64 L 6,68 L 4,70 L 2,70 L 2,80 L 1,81 L 1,95 L 0,96 L 0,98 L 1,98 L 2,97 L 5,97 L 6,98 L 14,98 L 15,99 L 21,99 L 22,100 L 25,100 L 26,101 L 32,101 L 33,102 L 36,102 L 37,103 L 37,104 L 41,104 L 43,102 L 44,102 L 45,101 L 46,101 L 47,100 L 48,100 L 50,98 L 50,95 L 49,94 L 49,91 L 48,90 L 48,87 L 47,86 L 47,84 L 46,84 L 45,83 L 45,82 L 44,81 L 44,79 L 43,78 L 40,78 L 38,76 L 38,72 L 39,71 L 39,70 L 40,69 L 40,64 L 39,64 L 37,62 L 36,62 L 35,61 L 35,60 L 37,58 L 38,58 L 39,57 L 40,57 L 41,56 L 42,56 L 44,54 L 45,54 L 45,53 L 47,51 L 48,51 L 49,50 L 49,49 L 48,48 L 47,48 L 46,49 L 43,49 L 42,48 L 40,48 L 39,47 L 39,46 L 38,46 L 37,45 L 34,45 L 33,44 L 33,40 L 32,39 L 32,38 Z" fill="none" stroke="black" stroke-width="1"/>
</svg>