<svg xmlns="http://www.w3.org/2000/svg" width="79" height="103">
  <path d="M 14,72 L 14,73 L 10,77 L 10,78 L 8,80 L 8,81 L 5,84 L 5,85 L 4,86 L 4,88 L 3,89 L 2,89 L 1,90 L 1,91 L 0,92 L 0,101 L 6,101 L 7,102 L 12,102 L 14,100 L 15,100 L 17,98 L 17,97 L 19,95 L 21,95 L 23,97 L 25,97 L 26,96 L 27,96 L 27,95 L 29,93 L 28,93 L 27,92 L 27,91 L 28,90 L 28,89 L 29,88 L 31,88 L 32,89 L 31,90 L 32,90 L 32,89 L 35,86 L 36,86 L 36,85 L 35,85 L 34,84 L 35,83 L 36,83 L 36,82 L 35,81 L 35,80 L 33,80 L 32,79 L 32,78 L 29,78 L 28,77 L 26,77 L 25,76 L 24,76 L 23,75 L 18,75 L 17,74 L 16,74 L 15,73 L 15,72 Z" fill="none" stroke="black" stroke-width="1"/>
</svg>