<svg xmlns="http://www.w3.org/2000/svg" width="50" height="72">
  <path d="M 26,0 L 26,2 L 25,3 L 23,3 L 21,1 L 15,1 L 15,2 L 14,3 L 12,3 L 12,4 L 11,5 L 10,5 L 9,6 L 10,7 L 10,10 L 8,12 L 7,12 L 5,14 L 5,16 L 6,17 L 6,18 L 7,19 L 6,20 L 6,21 L 5,22 L 4,22 L 4,23 L 5,24 L 5,30 L 6,31 L 7,31 L 8,32 L 8,33 L 9,34 L 9,35 L 10,35 L 11,36 L 11,38 L 10,39 L 9,39 L 9,40 L 7,42 L 8,43 L 8,44 L 9,45 L 9,46 L 11,48 L 11,49 L 14,49 L 15,48 L 17,48 L 18,47 L 18,45 L 19,44 L 19,41 L 20,40 L 20,39 L 21,38 L 21,37 L 22,36 L 23,36 L 23,35 L 24,34 L 25,34 L 28,31 L 28,26 L 27,25 L 26,25 L 25,24 L 25,23 L 26,22 L 26,20 L 27,19 L 29,19 L 31,21 L 32,21 L 34,19 L 35,19 L 38,16 L 38,14 L 39,13 L 39,7 L 40,6 L 40,3 L 38,1 L 37,2 L 32,2 L 31,3 L 29,3 Z" fill="none" stroke="black" stroke-width="1"/>
</svg>