<svg xmlns="http://www.w3.org/2000/svg" width="90" height="93">
  <path d="M 12,23 L 12,25 L 11,26 L 10,26 L 10,27 L 9,28 L 8,28 L 9,29 L 9,33 L 10,34 L 10,40 L 11,40 L 12,41 L 12,45 L 11,46 L 11,48 L 10,49 L 9,49 L 8,50 L 6,50 L 4,52 L 4,56 L 5,57 L 5,61 L 6,61 L 7,60 L 8,60 L 9,59 L 12,59 L 13,58 L 21,58 L 22,59 L 23,59 L 26,62 L 26,63 L 27,64 L 27,65 L 37,65 L 38,64 L 39,64 L 40,63 L 43,63 L 44,62 L 45,62 L 47,60 L 47,57 L 46,56 L 45,56 L 44,55 L 44,50 L 47,47 L 47,46 L 52,41 L 52,39 L 51,39 L 50,38 L 48,38 L 47,37 L 42,37 L 41,36 L 40,36 L 38,34 L 38,33 L 37,32 L 37,31 L 34,28 L 32,28 L 31,27 L 29,27 L 28,26 L 22,26 L 21,27 L 18,27 L 14,23 Z" fill="none" stroke="black" stroke-width="1"/>
</svg>