<svg xmlns="http://www.w3.org/2000/svg" width="90" height="93">
  <path d="M 72,30 L 73,31 L 73,32 L 72,33 L 71,33 L 70,34 L 70,35 L 69,36 L 69,37 L 68,38 L 67,38 L 66,37 L 65,38 L 62,38 L 61,37 L 60,37 L 58,35 L 56,35 L 54,37 L 54,39 L 53,40 L 53,41 L 48,46 L 48,47 L 45,50 L 45,55 L 46,55 L 48,57 L 48,58 L 51,58 L 52,59 L 53,59 L 55,61 L 56,61 L 57,62 L 57,63 L 58,64 L 58,76 L 59,77 L 59,78 L 60,79 L 60,81 L 59,82 L 59,86 L 61,86 L 62,87 L 62,88 L 72,78 L 72,76 L 73,75 L 73,73 L 74,72 L 75,72 L 79,68 L 80,68 L 81,67 L 82,67 L 85,64 L 85,63 L 87,61 L 87,60 L 88,59 L 88,56 L 89,55 L 89,54 L 88,53 L 88,52 L 87,51 L 86,51 L 85,50 L 85,45 L 86,44 L 86,41 L 85,40 L 85,39 L 84,38 L 84,37 L 82,35 L 80,35 L 77,32 L 76,32 L 74,30 Z" fill="none" stroke="black" stroke-width="1"/>
</svg>