<svg xmlns="http://www.w3.org/2000/svg" width="193" height="96">
  <path d="M 98,15 L 97,16 L 95,16 L 94,17 L 92,17 L 91,16 L 90,16 L 89,17 L 88,17 L 87,18 L 87,19 L 86,20 L 85,20 L 84,21 L 83,21 L 82,22 L 80,22 L 79,23 L 73,23 L 72,24 L 72,30 L 70,32 L 70,33 L 69,34 L 69,36 L 66,39 L 65,39 L 65,41 L 66,41 L 67,42 L 67,43 L 65,45 L 65,48 L 62,51 L 61,51 L 59,53 L 59,56 L 61,58 L 61,59 L 62,60 L 62,61 L 56,67 L 56,68 L 55,69 L 55,70 L 56,71 L 58,71 L 59,72 L 59,73 L 60,74 L 61,74 L 62,75 L 62,78 L 63,79 L 65,77 L 66,77 L 67,76 L 69,76 L 70,75 L 74,75 L 75,74 L 76,74 L 77,75 L 78,75 L 80,77 L 84,77 L 85,76 L 87,76 L 87,71 L 89,69 L 90,69 L 91,68 L 91,64 L 92,63 L 92,62 L 94,60 L 94,59 L 95,58 L 95,57 L 96,56 L 96,55 L 97,54 L 97,52 L 98,51 L 98,48 L 99,47 L 99,46 L 102,43 L 102,42 L 104,40 L 105,40 L 106,39 L 107,39 L 107,28 L 106,27 L 106,26 L 105,25 L 105,23 L 106,22 L 106,18 L 107,17 L 107,16 L 102,16 L 101,15 Z" fill="none" stroke="black" stroke-width="1"/>
</svg>