<svg xmlns="http://www.w3.org/2000/svg" width="159" height="172">
  <path d="M 91,126 L 90,127 L 89,127 L 89,129 L 91,131 L 91,135 L 93,137 L 93,138 L 94,139 L 94,144 L 95,145 L 95,150 L 93,152 L 86,152 L 86,155 L 85,156 L 85,161 L 83,163 L 83,165 L 88,165 L 92,169 L 93,169 L 95,171 L 96,171 L 97,170 L 99,170 L 101,168 L 102,168 L 103,167 L 104,167 L 105,166 L 107,166 L 107,165 L 111,161 L 112,161 L 113,160 L 116,160 L 120,156 L 120,155 L 124,151 L 125,151 L 127,149 L 131,149 L 133,147 L 137,147 L 138,146 L 139,146 L 139,145 L 140,144 L 140,134 L 138,132 L 136,132 L 135,133 L 131,133 L 129,135 L 128,135 L 127,136 L 125,136 L 120,131 L 117,131 L 116,130 L 115,130 L 114,129 L 113,129 L 112,128 L 110,128 L 109,127 L 106,127 L 105,126 Z" fill="none" stroke="black" stroke-width="1"/>
</svg>