<svg xmlns="http://www.w3.org/2000/svg" width="159" height="172">
  <path d="M 127,88 L 126,89 L 123,89 L 122,90 L 121,90 L 120,91 L 118,91 L 117,92 L 113,92 L 109,96 L 105,96 L 104,97 L 98,97 L 97,96 L 94,96 L 93,95 L 88,95 L 87,94 L 80,94 L 80,98 L 79,99 L 79,100 L 78,101 L 77,101 L 75,103 L 74,103 L 74,115 L 75,116 L 75,119 L 77,121 L 78,121 L 79,122 L 82,122 L 83,123 L 85,123 L 87,125 L 87,126 L 90,126 L 91,125 L 105,125 L 106,126 L 109,126 L 110,127 L 112,127 L 113,128 L 114,128 L 115,129 L 116,129 L 117,130 L 120,130 L 125,135 L 127,135 L 128,134 L 129,134 L 131,132 L 135,132 L 136,131 L 138,131 L 140,133 L 143,133 L 144,132 L 144,128 L 145,127 L 145,126 L 148,123 L 149,123 L 150,122 L 150,120 L 151,119 L 151,117 L 153,115 L 153,113 L 154,112 L 154,110 L 155,109 L 155,107 L 156,106 L 156,102 L 157,101 L 157,100 L 158,99 L 158,96 L 157,96 L 156,95 L 155,95 L 154,94 L 152,94 L 151,93 L 146,93 L 145,92 L 143,92 L 142,91 L 140,91 L 139,90 L 137,90 L 136,89 L 133,89 L 132,88 Z" fill="none" stroke="black" stroke-width="1"/>
</svg>