<svg xmlns="http://www.w3.org/2000/svg" width="93" height="90">
  <path d="M 12,42 L 11,43 L 8,43 L 8,55 L 7,56 L 5,56 L 5,64 L 4,65 L 4,70 L 3,71 L 2,71 L 2,73 L 1,74 L 0,74 L 2,76 L 3,76 L 4,77 L 10,77 L 13,80 L 16,80 L 17,81 L 18,81 L 20,83 L 21,83 L 21,82 L 22,81 L 22,80 L 23,79 L 23,77 L 24,76 L 24,73 L 25,72 L 25,71 L 28,68 L 28,67 L 30,65 L 31,65 L 31,64 L 34,61 L 34,60 L 37,57 L 37,56 L 38,55 L 38,50 L 39,49 L 39,46 L 35,46 L 34,45 L 32,45 L 30,43 L 15,43 L 14,42 Z" fill="none" stroke="black" stroke-width="1"/>
</svg>