<svg xmlns="http://www.w3.org/2000/svg" width="117" height="124">
  <path d="M 84,78 L 84,80 L 83,81 L 81,81 L 81,82 L 78,85 L 77,85 L 76,86 L 74,86 L 73,87 L 71,87 L 69,89 L 68,89 L 68,90 L 64,94 L 64,96 L 66,98 L 66,99 L 67,99 L 68,100 L 68,101 L 69,102 L 73,102 L 74,103 L 77,103 L 78,104 L 79,104 L 81,106 L 81,110 L 82,111 L 83,111 L 84,112 L 85,112 L 86,113 L 87,113 L 90,116 L 90,117 L 91,118 L 92,118 L 93,119 L 97,119 L 98,120 L 100,120 L 101,121 L 103,121 L 104,122 L 106,122 L 107,123 L 111,123 L 111,119 L 112,118 L 112,117 L 113,116 L 114,116 L 115,115 L 115,113 L 114,112 L 114,111 L 113,110 L 113,108 L 112,107 L 111,107 L 109,105 L 108,105 L 107,104 L 106,104 L 104,102 L 102,102 L 101,101 L 100,101 L 96,97 L 96,93 L 97,92 L 97,90 L 96,89 L 96,87 L 95,86 L 95,81 L 90,81 L 89,80 L 89,79 L 86,79 L 85,78 Z" fill="none" stroke="black" stroke-width="1"/>
</svg>