<svg xmlns="http://www.w3.org/2000/svg" width="135" height="115">
  <path d="M 117,64 L 117,65 L 118,66 L 118,71 L 117,72 L 117,73 L 116,74 L 116,75 L 115,76 L 110,76 L 109,77 L 108,77 L 107,78 L 102,78 L 101,77 L 101,79 L 100,80 L 100,81 L 99,82 L 99,83 L 98,84 L 98,87 L 97,88 L 96,88 L 94,90 L 93,90 L 92,89 L 88,89 L 86,91 L 85,91 L 84,92 L 77,92 L 76,93 L 71,93 L 69,95 L 67,95 L 66,96 L 66,98 L 65,99 L 65,107 L 66,108 L 66,111 L 67,112 L 67,113 L 71,113 L 72,114 L 76,114 L 77,113 L 81,113 L 81,112 L 82,111 L 93,111 L 94,110 L 102,110 L 102,109 L 103,108 L 106,108 L 107,107 L 109,107 L 110,106 L 111,106 L 112,105 L 113,105 L 114,104 L 115,104 L 116,103 L 117,103 L 118,102 L 119,102 L 122,99 L 122,96 L 123,95 L 123,94 L 124,93 L 125,93 L 125,92 L 127,90 L 127,89 L 129,87 L 129,86 L 132,83 L 132,82 L 134,80 L 134,70 L 133,70 L 132,71 L 131,71 L 130,70 L 129,70 L 125,66 L 125,65 L 120,65 L 119,64 Z" fill="none" stroke="black" stroke-width="1"/>
</svg>