<svg xmlns="http://www.w3.org/2000/svg" width="91" height="102">
  <path d="M 55,61 L 54,62 L 54,64 L 53,65 L 50,65 L 51,66 L 51,70 L 59,70 L 60,69 L 60,64 L 59,63 L 59,61 Z" fill="none" stroke="black" stroke-width="1"/>
  <path d="M 27,46 L 26,47 L 25,47 L 24,48 L 24,50 L 23,51 L 23,52 L 21,54 L 23,56 L 23,57 L 22,58 L 22,59 L 21,60 L 21,61 L 20,62 L 20,63 L 18,65 L 18,67 L 17,68 L 17,69 L 16,70 L 16,71 L 14,73 L 14,74 L 13,75 L 13,76 L 12,77 L 9,77 L 7,79 L 4,79 L 4,82 L 3,83 L 3,88 L 2,89 L 1,89 L 0,90 L 0,91 L 3,91 L 4,92 L 4,94 L 6,94 L 7,95 L 7,96 L 10,99 L 10,100 L 11,101 L 14,101 L 16,99 L 17,99 L 18,98 L 20,98 L 21,97 L 22,97 L 23,96 L 25,96 L 26,95 L 28,95 L 29,96 L 31,96 L 32,97 L 32,95 L 31,95 L 30,94 L 30,93 L 33,90 L 37,90 L 37,89 L 38,88 L 37,87 L 38,86 L 38,85 L 39,84 L 38,83 L 38,82 L 37,81 L 37,79 L 38,78 L 39,78 L 40,77 L 40,76 L 41,75 L 42,75 L 44,73 L 48,73 L 49,72 L 50,72 L 47,72 L 46,71 L 45,71 L 44,70 L 43,70 L 42,69 L 42,68 L 41,67 L 42,66 L 44,66 L 45,65 L 48,65 L 47,65 L 46,64 L 48,62 L 44,62 L 40,58 L 40,57 L 41,56 L 41,55 L 42,54 L 42,52 L 41,51 L 40,51 L 39,52 L 32,52 L 29,49 L 29,48 L 28,47 L 28,46 Z" fill="none" stroke="black" stroke-width="1"/>
</svg>