<svg xmlns="http://www.w3.org/2000/svg" width="98" height="124">
  <path d="M 47,0 L 47,1 L 40,8 L 40,13 L 41,14 L 41,16 L 40,17 L 40,22 L 39,23 L 39,24 L 38,25 L 38,26 L 37,27 L 37,35 L 39,35 L 40,36 L 43,36 L 47,40 L 48,40 L 49,41 L 49,42 L 51,42 L 52,43 L 55,43 L 56,44 L 57,44 L 60,47 L 63,47 L 65,45 L 68,45 L 69,44 L 71,44 L 74,41 L 75,41 L 76,40 L 77,40 L 78,39 L 79,40 L 79,39 L 78,38 L 77,38 L 76,37 L 77,36 L 79,36 L 79,30 L 78,30 L 77,29 L 76,30 L 73,30 L 72,29 L 69,29 L 66,26 L 65,26 L 64,25 L 63,25 L 59,21 L 59,18 L 58,17 L 58,16 L 59,15 L 59,13 L 60,12 L 61,12 L 61,10 L 59,8 L 59,7 L 56,4 L 56,3 L 54,3 L 53,2 L 53,0 Z" fill="none" stroke="black" stroke-width="1"/>
</svg>