<svg xmlns="http://www.w3.org/2000/svg" width="98" height="124">
  <path d="M 58,119 L 58,121 L 59,122 L 60,122 L 61,123 L 61,120 L 60,121 Z" fill="none" stroke="black" stroke-width="1"/>
  <path d="M 51,118 L 54,121 L 54,119 L 53,119 L 52,118 Z" fill="none" stroke="black" stroke-width="1"/>
  <path d="M 90,116 L 90,117 L 91,116 L 93,116 L 94,117 L 95,117 L 96,116 L 97,116 Z" fill="none" stroke="black" stroke-width="1"/>
  <path d="M 28,112 L 31,112 Z" fill="none" stroke="black" stroke-width="1"/>
  <path d="M 37,87 L 37,88 L 36,89 L 31,89 L 31,90 L 30,91 L 29,90 L 29,95 L 39,95 L 40,96 L 40,98 L 39,99 L 33,99 L 33,102 L 35,102 L 36,103 L 37,103 L 38,104 L 39,104 L 40,105 L 41,105 L 42,106 L 43,106 L 44,107 L 43,108 L 39,108 L 38,107 L 37,107 L 36,108 L 33,105 L 33,108 L 34,109 L 34,110 L 33,111 L 34,111 L 35,112 L 35,114 L 36,114 L 37,113 L 37,112 L 38,111 L 39,112 L 39,115 L 38,116 L 39,116 L 40,117 L 41,117 L 40,116 L 41,115 L 45,115 L 47,117 L 49,117 L 50,116 L 51,116 L 46,116 L 43,113 L 42,113 L 41,112 L 42,111 L 43,111 L 44,110 L 47,110 L 49,112 L 48,113 L 47,113 L 48,114 L 50,114 L 50,113 L 51,112 L 53,114 L 53,116 L 59,116 L 60,117 L 64,117 L 65,118 L 65,117 L 64,116 L 63,116 L 62,115 L 60,115 L 59,114 L 60,113 L 65,113 L 68,116 L 74,116 L 75,115 L 78,115 L 79,116 L 82,116 L 84,114 L 78,114 L 77,113 L 75,113 L 74,112 L 73,112 L 71,110 L 69,110 L 67,108 L 66,108 L 65,107 L 64,107 L 62,105 L 61,105 L 59,103 L 58,103 L 53,98 L 53,97 L 50,97 L 48,95 L 48,93 L 49,92 L 51,92 L 50,91 L 49,91 L 48,90 L 48,89 L 41,89 L 39,87 Z" fill="none" stroke="black" stroke-width="1"/>
</svg>