<svg xmlns="http://www.w3.org/2000/svg" width="67" height="222">
  <path d="M 59,220 L 59,221 Z" fill="none" stroke="black" stroke-width="1"/>
  <path d="M 43,211 L 44,212 L 45,212 L 44,211 Z" fill="none" stroke="black" stroke-width="1"/>
  <path d="M 23,197 L 23,198 L 27,198 L 26,198 L 25,197 Z" fill="none" stroke="black" stroke-width="1"/>
  <path d="M 19,194 L 19,195 L 20,196 L 20,195 Z" fill="none" stroke="black" stroke-width="1"/>
  <path d="M 23,189 L 23,190 L 24,190 L 24,189 Z" fill="none" stroke="black" stroke-width="1"/>
  <path d="M 24,187 L 26,187 Z" fill="none" stroke="black" stroke-width="1"/>
  <path d="M 20,184 L 20,185 L 21,186 L 21,184 Z" fill="none" stroke="black" stroke-width="1"/>
  <path d="M 24,182 L 24,185 L 26,185 L 25,184 L 25,183 Z" fill="none" stroke="black" stroke-width="1"/>
  <path d="M 15,182 L 16,183 L 16,184 L 15,185 L 14,184 L 13,184 L 14,185 L 14,187 L 15,186 L 17,188 L 18,188 L 18,186 L 17,186 L 16,185 L 16,182 Z" fill="none" stroke="black" stroke-width="1"/>
  <path d="M 9,170 L 8,171 L 8,172 L 9,173 L 10,172 L 10,171 L 11,170 Z" fill="none" stroke="black" stroke-width="1"/>
  <path d="M 10,165 L 9,166 L 8,166 L 8,167 L 9,166 L 10,166 L 11,167 L 12,166 L 13,166 L 12,166 L 11,165 Z" fill="none" stroke="black" stroke-width="1"/>
  <path d="M 10,141 L 10,145 L 9,146 L 8,146 L 7,145 L 7,144 L 8,143 L 6,143 L 5,142 L 4,142 L 4,143 L 6,145 L 4,147 L 3,147 L 3,148 L 4,149 L 4,151 L 5,151 L 6,152 L 6,153 L 5,154 L 5,155 L 6,155 L 7,156 L 7,157 L 7,156 L 6,155 L 7,154 L 8,154 L 6,152 L 6,151 L 5,150 L 5,149 L 6,148 L 6,147 L 7,146 L 8,147 L 8,149 L 9,150 L 9,147 L 10,146 L 12,146 L 13,147 L 13,148 L 11,150 L 11,152 L 13,154 L 13,157 L 12,158 L 11,157 L 10,158 L 10,161 L 9,162 L 7,160 L 5,160 L 6,161 L 6,162 L 7,161 L 9,163 L 10,162 L 11,163 L 12,163 L 11,162 L 11,159 L 12,158 L 13,158 L 14,159 L 13,160 L 13,161 L 14,162 L 14,164 L 17,164 L 17,161 L 16,160 L 16,159 L 17,158 L 17,156 L 16,155 L 16,151 L 14,149 L 14,147 L 13,146 L 13,145 L 11,143 L 11,141 Z" fill="none" stroke="black" stroke-width="1"/>
  <path d="M 13,107 L 14,107 L 15,108 L 15,109 L 14,110 L 13,110 L 14,111 L 16,109 L 17,109 L 18,110 L 17,111 L 18,112 L 18,114 L 17,115 L 17,116 L 18,117 L 17,118 L 14,118 L 13,117 L 14,116 L 15,116 L 15,115 L 14,114 L 14,113 L 13,113 L 13,116 L 11,118 L 7,118 L 9,120 L 7,122 L 6,121 L 6,122 L 5,123 L 4,123 L 4,124 L 2,126 L 0,126 L 0,127 L 2,129 L 4,129 L 4,128 L 3,128 L 2,127 L 3,126 L 5,126 L 6,125 L 7,126 L 7,127 L 8,127 L 9,128 L 11,128 L 12,129 L 14,129 L 15,128 L 16,128 L 17,129 L 17,130 L 18,131 L 17,132 L 17,133 L 18,133 L 19,132 L 20,133 L 20,134 L 18,136 L 16,136 L 17,137 L 19,137 L 20,138 L 19,139 L 18,139 L 17,140 L 16,140 L 14,138 L 13,139 L 12,139 L 13,139 L 14,140 L 16,140 L 17,141 L 17,142 L 22,142 L 22,141 L 23,140 L 25,142 L 27,142 L 28,143 L 28,144 L 29,145 L 28,146 L 26,146 L 24,144 L 19,144 L 17,146 L 15,144 L 15,143 L 14,143 L 15,144 L 15,145 L 16,146 L 17,146 L 18,147 L 19,147 L 20,146 L 21,147 L 21,149 L 20,150 L 20,151 L 19,152 L 19,156 L 20,157 L 20,158 L 22,156 L 23,157 L 23,159 L 24,160 L 23,161 L 20,161 L 20,162 L 22,162 L 23,161 L 24,161 L 25,162 L 23,164 L 24,165 L 24,167 L 23,168 L 22,167 L 21,167 L 20,166 L 16,166 L 17,167 L 18,167 L 19,168 L 20,168 L 21,169 L 23,169 L 24,170 L 23,171 L 18,171 L 18,174 L 17,175 L 16,174 L 16,173 L 15,172 L 14,173 L 13,172 L 12,172 L 12,173 L 13,173 L 14,174 L 14,175 L 16,177 L 15,178 L 15,179 L 14,180 L 13,179 L 13,178 L 12,178 L 12,180 L 13,179 L 14,180 L 15,180 L 16,179 L 18,179 L 18,178 L 17,177 L 18,176 L 20,176 L 19,175 L 20,174 L 21,174 L 22,173 L 23,174 L 23,176 L 24,177 L 24,179 L 26,177 L 27,178 L 27,179 L 26,180 L 26,181 L 28,183 L 28,185 L 29,186 L 29,187 L 31,189 L 29,191 L 28,191 L 27,190 L 27,189 L 26,189 L 27,190 L 27,191 L 26,192 L 26,193 L 27,194 L 27,193 L 29,191 L 30,192 L 30,194 L 31,193 L 32,194 L 34,192 L 35,193 L 35,194 L 33,196 L 33,197 L 31,199 L 30,199 L 31,199 L 32,198 L 36,198 L 36,197 L 37,196 L 38,197 L 38,199 L 39,200 L 38,201 L 37,201 L 36,200 L 35,200 L 36,201 L 37,201 L 39,203 L 38,204 L 35,204 L 34,203 L 33,203 L 32,202 L 32,201 L 31,202 L 28,202 L 30,202 L 31,203 L 31,204 L 32,205 L 32,204 L 33,203 L 34,204 L 34,208 L 35,208 L 35,207 L 36,206 L 37,207 L 39,207 L 40,208 L 39,209 L 42,209 L 43,208 L 44,208 L 49,213 L 50,212 L 52,212 L 53,211 L 54,212 L 54,215 L 53,216 L 52,215 L 51,215 L 52,215 L 53,216 L 54,216 L 55,217 L 58,217 L 59,218 L 61,218 L 62,219 L 62,220 L 64,218 L 65,219 L 66,219 L 66,218 L 65,218 L 64,217 L 65,216 L 64,216 L 63,217 L 62,217 L 59,214 L 60,213 L 60,211 L 61,210 L 63,212 L 63,213 L 64,213 L 64,212 L 63,211 L 63,209 L 62,208 L 62,207 L 61,207 L 59,209 L 58,209 L 57,208 L 57,203 L 56,202 L 57,201 L 56,200 L 55,200 L 54,201 L 51,201 L 50,202 L 49,202 L 47,200 L 47,199 L 48,198 L 50,198 L 50,197 L 48,197 L 47,196 L 45,196 L 44,197 L 39,197 L 38,196 L 39,195 L 38,194 L 39,193 L 40,193 L 42,195 L 42,194 L 43,193 L 47,193 L 48,194 L 49,194 L 49,188 L 48,187 L 48,185 L 44,181 L 43,181 L 42,180 L 42,179 L 41,178 L 41,177 L 40,176 L 40,175 L 38,173 L 38,172 L 37,172 L 36,171 L 36,169 L 34,167 L 34,166 L 33,165 L 33,164 L 34,163 L 34,162 L 35,161 L 35,152 L 34,151 L 34,145 L 33,144 L 33,141 L 32,140 L 32,132 L 33,131 L 33,127 L 32,126 L 32,125 L 31,124 L 31,122 L 32,121 L 32,119 L 33,118 L 33,117 L 34,116 L 34,115 L 33,115 L 32,114 L 31,114 L 30,113 L 30,112 L 27,112 L 26,113 L 25,113 L 23,115 L 23,116 L 24,117 L 24,118 L 23,119 L 23,121 L 24,122 L 24,123 L 22,125 L 22,126 L 21,127 L 20,127 L 19,126 L 20,125 L 20,120 L 20,122 L 19,123 L 17,123 L 16,122 L 17,121 L 17,120 L 18,119 L 18,118 L 19,117 L 19,114 L 20,113 L 20,112 L 19,111 L 19,109 L 18,108 L 18,107 Z" fill="none" stroke="black" stroke-width="1"/>
</svg>