<svg xmlns="http://www.w3.org/2000/svg" width="35" height="139">
  <path d="M 8,98 L 8,102 L 7,103 L 7,109 L 5,111 L 4,111 L 4,115 L 3,116 L 3,118 L 4,119 L 4,120 L 2,122 L 2,123 L 1,124 L 1,128 L 0,129 L 0,130 L 2,132 L 7,132 L 8,133 L 8,134 L 10,134 L 11,135 L 12,135 L 13,136 L 13,138 L 14,138 L 15,137 L 15,136 L 16,135 L 16,131 L 17,130 L 18,130 L 19,129 L 20,129 L 22,127 L 22,126 L 24,124 L 24,122 L 23,121 L 23,117 L 22,116 L 22,115 L 21,114 L 21,110 L 22,109 L 22,108 L 23,107 L 23,105 L 24,104 L 24,103 L 23,103 L 22,102 L 20,102 L 19,101 L 17,101 L 16,100 L 14,100 L 12,98 Z" fill="none" stroke="black" stroke-width="1"/>
</svg>