<svg xmlns="http://www.w3.org/2000/svg" width="87" height="122">
  <path d="M 10,46 L 9,47 L 9,48 L 6,51 L 5,51 L 4,52 L 3,52 L 3,56 L 2,57 L 2,58 L 0,60 L 0,64 L 1,65 L 1,70 L 2,71 L 2,72 L 1,73 L 1,76 L 2,77 L 2,80 L 1,81 L 1,83 L 8,83 L 9,84 L 12,84 L 13,85 L 13,86 L 14,87 L 16,87 L 17,88 L 22,88 L 23,87 L 26,87 L 28,85 L 29,85 L 30,84 L 31,84 L 32,83 L 33,83 L 34,82 L 35,82 L 36,81 L 37,81 L 37,78 L 38,77 L 40,77 L 41,76 L 52,76 L 53,75 L 54,75 L 54,71 L 53,70 L 53,69 L 52,68 L 52,67 L 51,66 L 50,66 L 49,65 L 48,65 L 46,63 L 42,63 L 41,62 L 41,61 L 42,60 L 42,58 L 41,58 L 40,57 L 39,57 L 38,56 L 38,55 L 36,55 L 35,54 L 34,54 L 33,53 L 33,52 L 32,51 L 32,50 L 31,49 L 31,48 L 30,48 L 28,46 Z" fill="none" stroke="black" stroke-width="1"/>
</svg>