<svg xmlns="http://www.w3.org/2000/svg" width="91" height="102">
  <path d="M 86,18 L 85,19 L 84,19 L 84,20 L 83,21 L 83,22 L 84,22 L 86,20 L 87,20 L 86,19 Z" fill="none" stroke="black" stroke-width="1"/>
  <path d="M 65,0 L 64,1 L 63,1 L 62,2 L 58,2 L 57,3 L 56,3 L 55,4 L 55,5 L 52,8 L 52,9 L 51,10 L 51,15 L 50,16 L 50,17 L 49,18 L 49,19 L 45,23 L 45,24 L 47,26 L 47,27 L 49,29 L 50,29 L 51,30 L 52,30 L 53,31 L 54,31 L 58,35 L 58,37 L 59,38 L 59,45 L 57,47 L 71,47 L 72,46 L 74,46 L 75,45 L 78,45 L 79,44 L 79,42 L 78,41 L 78,40 L 77,39 L 77,38 L 76,37 L 76,36 L 77,35 L 79,35 L 79,32 L 80,31 L 82,31 L 82,26 L 83,25 L 81,23 L 81,21 L 79,19 L 81,17 L 81,16 L 80,15 L 81,14 L 83,14 L 84,15 L 87,15 L 88,16 L 88,17 L 90,17 L 90,16 L 89,15 L 89,12 L 88,11 L 88,4 L 84,4 L 83,3 L 78,3 L 77,2 L 74,2 L 72,0 Z" fill="none" stroke="black" stroke-width="1"/>
</svg>