<svg xmlns="http://www.w3.org/2000/svg" width="35" height="139">
  <path d="M 30,54 L 29,55 L 25,55 L 24,56 L 23,56 L 21,58 L 20,58 L 18,60 L 9,60 L 9,64 L 6,67 L 5,67 L 6,68 L 6,72 L 8,74 L 8,75 L 9,76 L 9,77 L 10,78 L 10,79 L 11,80 L 11,88 L 12,89 L 11,90 L 11,95 L 10,96 L 10,97 L 12,97 L 14,99 L 16,99 L 17,100 L 19,100 L 20,101 L 22,101 L 23,102 L 25,102 L 26,101 L 26,100 L 27,99 L 27,97 L 29,95 L 29,90 L 27,88 L 27,86 L 28,85 L 28,84 L 29,83 L 29,82 L 30,81 L 30,80 L 31,79 L 31,71 L 32,70 L 32,69 L 33,68 L 33,65 L 34,64 L 34,60 L 33,59 L 33,58 L 32,57 L 32,54 Z" fill="none" stroke="black" stroke-width="1"/>
</svg>