<svg xmlns="http://www.w3.org/2000/svg" width="122" height="103">
  <path d="M 33,63 L 32,64 L 32,65 L 30,67 L 30,70 L 31,71 L 31,73 L 29,75 L 27,75 L 26,76 L 25,76 L 24,77 L 22,77 L 21,78 L 20,78 L 20,79 L 19,80 L 19,81 L 18,82 L 17,82 L 13,86 L 12,86 L 9,89 L 7,89 L 6,88 L 1,88 L 1,90 L 0,91 L 0,99 L 2,101 L 2,102 L 6,102 L 7,101 L 8,101 L 9,100 L 10,100 L 11,99 L 13,99 L 14,98 L 15,98 L 16,97 L 20,97 L 21,96 L 23,96 L 24,95 L 24,94 L 25,93 L 26,93 L 28,91 L 29,91 L 30,90 L 31,90 L 35,86 L 36,86 L 36,85 L 35,84 L 36,83 L 37,83 L 39,81 L 39,79 L 40,78 L 41,78 L 41,77 L 44,74 L 44,73 L 42,71 L 39,71 L 38,70 L 38,68 L 37,67 L 37,65 L 36,64 L 35,64 L 34,63 Z" fill="none" stroke="black" stroke-width="1"/>
</svg>