<svg xmlns="http://www.w3.org/2000/svg" width="99" height="161">
  <path d="M 35,72 L 31,76 L 31,77 L 30,78 L 30,79 L 29,80 L 29,86 L 28,87 L 28,88 L 27,89 L 27,91 L 28,92 L 28,94 L 26,96 L 22,96 L 21,97 L 20,97 L 20,98 L 18,100 L 18,107 L 19,108 L 19,112 L 18,113 L 18,114 L 17,115 L 17,119 L 23,119 L 24,118 L 26,118 L 27,119 L 28,119 L 36,127 L 40,127 L 44,123 L 46,123 L 53,116 L 53,114 L 54,113 L 54,112 L 55,111 L 55,108 L 56,107 L 56,102 L 57,101 L 57,99 L 58,98 L 58,96 L 59,95 L 59,93 L 60,92 L 60,84 L 61,83 L 58,83 L 53,78 L 53,77 L 51,75 L 47,75 L 46,74 L 45,74 L 44,73 L 44,72 Z" fill="none" stroke="black" stroke-width="1"/>
</svg>