<svg xmlns="http://www.w3.org/2000/svg" width="96" height="126">
  <path d="M 54,43 L 53,44 L 50,44 L 48,46 L 47,46 L 44,49 L 42,49 L 41,50 L 40,50 L 38,52 L 38,53 L 37,54 L 37,55 L 35,57 L 35,58 L 34,59 L 34,60 L 33,61 L 33,63 L 32,64 L 32,66 L 31,67 L 31,68 L 30,69 L 30,72 L 28,74 L 27,74 L 25,76 L 24,76 L 24,80 L 23,81 L 21,81 L 19,83 L 19,87 L 20,87 L 21,88 L 21,91 L 23,91 L 24,92 L 24,96 L 25,96 L 26,97 L 26,98 L 27,99 L 27,100 L 29,100 L 30,101 L 31,101 L 33,103 L 33,105 L 37,105 L 38,106 L 38,108 L 39,109 L 39,114 L 38,115 L 38,120 L 39,121 L 39,122 L 40,123 L 41,123 L 43,125 L 47,125 L 50,122 L 52,122 L 53,121 L 61,121 L 62,120 L 62,115 L 63,114 L 63,106 L 64,105 L 66,105 L 67,104 L 68,104 L 68,102 L 69,101 L 70,101 L 70,96 L 71,95 L 71,87 L 72,86 L 74,86 L 74,74 L 75,73 L 78,73 L 78,69 L 79,68 L 81,68 L 81,67 L 83,65 L 79,61 L 79,60 L 78,60 L 77,59 L 74,59 L 73,58 L 71,58 L 69,56 L 68,56 L 60,48 L 59,48 L 57,46 L 56,46 L 55,45 L 55,44 Z" fill="none" stroke="black" stroke-width="1"/>
</svg>