<svg xmlns="http://www.w3.org/2000/svg" width="124" height="88">
  <path d="M 33,27 L 33,28 L 30,31 L 28,31 L 26,33 L 26,34 L 25,35 L 25,37 L 22,40 L 20,40 L 19,41 L 14,41 L 11,38 L 11,37 L 9,35 L 7,35 L 7,38 L 6,39 L 6,41 L 5,42 L 5,43 L 3,45 L 3,46 L 2,47 L 2,57 L 0,59 L 0,61 L 1,61 L 2,62 L 3,62 L 4,63 L 5,63 L 6,64 L 7,64 L 8,65 L 9,65 L 10,64 L 18,64 L 19,63 L 30,63 L 31,64 L 32,64 L 32,63 L 33,62 L 38,62 L 39,63 L 40,63 L 42,65 L 42,66 L 43,67 L 43,70 L 44,70 L 45,71 L 49,71 L 50,72 L 51,72 L 53,74 L 54,74 L 57,77 L 57,78 L 60,81 L 63,81 L 67,77 L 67,70 L 66,69 L 66,55 L 64,55 L 63,56 L 59,56 L 57,54 L 57,53 L 56,53 L 53,50 L 53,47 L 50,44 L 50,41 L 52,39 L 52,35 L 50,33 L 50,32 L 48,30 L 48,29 L 46,29 L 45,28 L 43,28 L 42,27 L 41,28 L 37,28 L 36,27 Z" fill="none" stroke="black" stroke-width="1"/>
</svg>