<svg xmlns="http://www.w3.org/2000/svg" width="53" height="208">
  <path d="M 30,132 L 28,134 L 27,134 L 26,135 L 26,136 L 25,137 L 24,137 L 22,139 L 20,139 L 20,140 L 19,141 L 18,141 L 17,142 L 12,142 L 11,143 L 13,145 L 13,146 L 12,147 L 12,149 L 13,150 L 12,151 L 12,157 L 11,158 L 11,159 L 10,160 L 10,161 L 11,162 L 8,165 L 8,170 L 9,171 L 9,172 L 6,175 L 6,185 L 5,186 L 5,187 L 3,189 L 3,192 L 1,194 L 0,194 L 0,200 L 1,200 L 2,201 L 3,200 L 4,200 L 5,199 L 9,199 L 10,200 L 13,200 L 14,201 L 16,201 L 17,202 L 17,203 L 20,206 L 21,206 L 22,207 L 25,207 L 26,206 L 26,202 L 27,201 L 27,198 L 30,195 L 30,186 L 31,185 L 31,182 L 30,182 L 29,181 L 29,179 L 31,177 L 31,167 L 32,166 L 32,165 L 34,163 L 34,162 L 35,161 L 35,159 L 36,158 L 36,151 L 34,149 L 34,144 L 36,142 L 36,138 L 35,137 L 35,132 L 34,133 L 31,133 Z" fill="none" stroke="black" stroke-width="1"/>
</svg>