<svg xmlns="http://www.w3.org/2000/svg" width="53" height="208">
  <path d="M 37,29 L 36,30 L 35,30 L 34,31 L 31,31 L 30,32 L 29,32 L 28,33 L 26,33 L 25,34 L 23,34 L 22,35 L 21,35 L 20,36 L 18,36 L 18,40 L 19,41 L 19,42 L 18,43 L 18,54 L 17,55 L 18,56 L 18,57 L 19,58 L 18,59 L 18,61 L 19,62 L 19,63 L 20,64 L 19,65 L 20,66 L 21,66 L 22,65 L 33,65 L 34,64 L 36,64 L 37,63 L 38,63 L 40,61 L 40,60 L 42,58 L 42,52 L 39,49 L 39,45 L 40,44 L 40,43 L 41,42 L 41,41 L 42,40 L 42,39 L 43,38 L 43,35 L 42,34 L 41,34 L 38,31 L 38,29 Z" fill="none" stroke="black" stroke-width="1"/>
</svg>