<svg xmlns="http://www.w3.org/2000/svg" width="105" height="94">
  <path d="M 57,8 L 57,11 L 58,12 L 58,14 L 59,15 L 59,17 L 60,18 L 60,22 L 58,24 L 55,24 L 54,25 L 51,25 L 50,26 L 49,26 L 48,27 L 48,29 L 47,30 L 47,31 L 48,32 L 48,42 L 49,43 L 49,44 L 51,46 L 51,52 L 52,52 L 53,53 L 53,55 L 54,56 L 54,57 L 58,61 L 60,61 L 61,60 L 64,60 L 66,62 L 72,62 L 74,60 L 75,60 L 76,59 L 77,60 L 78,59 L 79,60 L 79,56 L 80,55 L 82,55 L 84,53 L 86,53 L 86,52 L 87,51 L 88,51 L 93,46 L 94,46 L 96,44 L 96,43 L 97,42 L 97,40 L 98,39 L 98,38 L 99,37 L 99,34 L 101,32 L 101,30 L 103,28 L 103,22 L 104,21 L 104,16 L 102,16 L 100,14 L 100,11 L 99,10 L 98,11 L 94,11 L 93,10 L 90,10 L 89,9 L 86,9 L 85,10 L 85,11 L 83,13 L 82,13 L 81,12 L 72,12 L 71,11 L 70,11 L 69,10 L 66,10 L 65,9 L 60,9 L 59,8 Z" fill="none" stroke="black" stroke-width="1"/>
</svg>