<svg xmlns="http://www.w3.org/2000/svg" width="58" height="88">
  <path d="M 35,25 L 34,26 L 31,26 L 30,27 L 30,31 L 31,32 L 31,35 L 32,36 L 32,38 L 33,39 L 33,40 L 34,41 L 34,42 L 36,44 L 36,48 L 34,50 L 34,51 L 33,52 L 33,53 L 34,53 L 35,54 L 37,54 L 38,55 L 39,55 L 40,54 L 41,54 L 41,53 L 46,48 L 48,50 L 49,50 L 51,48 L 53,48 L 54,47 L 56,47 L 56,43 L 57,42 L 57,39 L 56,38 L 56,33 L 53,30 L 52,30 L 50,32 L 49,31 L 46,31 L 44,29 L 42,29 L 41,28 L 41,26 L 38,26 L 37,25 Z" fill="none" stroke="black" stroke-width="1"/>
</svg>