<svg xmlns="http://www.w3.org/2000/svg" width="53" height="208">
  <path d="M 27,0 L 25,2 L 25,4 L 24,5 L 24,8 L 21,11 L 20,11 L 19,12 L 17,12 L 16,13 L 15,13 L 15,14 L 16,15 L 16,16 L 15,17 L 15,21 L 16,22 L 16,25 L 17,26 L 17,27 L 16,28 L 17,29 L 17,31 L 18,32 L 18,35 L 20,35 L 21,34 L 22,34 L 23,33 L 25,33 L 26,32 L 28,32 L 29,31 L 30,31 L 31,30 L 34,30 L 35,29 L 36,29 L 37,28 L 37,21 L 36,20 L 36,17 L 35,16 L 35,12 L 34,11 L 34,7 L 32,7 L 29,4 L 29,2 L 28,1 L 28,0 Z" fill="none" stroke="black" stroke-width="1"/>
</svg>