<svg xmlns="http://www.w3.org/2000/svg" width="63" height="107">
  <path d="M 44,77 L 42,79 L 42,80 L 41,81 L 41,82 L 39,84 L 38,84 L 37,85 L 36,85 L 35,86 L 34,86 L 33,85 L 27,85 L 27,90 L 28,91 L 28,94 L 29,95 L 29,98 L 27,100 L 27,101 L 28,102 L 28,103 L 33,103 L 34,104 L 37,104 L 38,105 L 40,105 L 41,106 L 42,106 L 43,105 L 49,105 L 50,104 L 50,103 L 52,101 L 54,101 L 54,98 L 56,96 L 56,95 L 57,94 L 57,90 L 56,89 L 56,88 L 54,88 L 53,87 L 53,84 L 55,82 L 55,80 L 54,79 L 53,80 L 50,80 L 49,79 L 48,79 L 47,78 L 46,78 L 45,77 Z" fill="none" stroke="black" stroke-width="1"/>
</svg>