<svg xmlns="http://www.w3.org/2000/svg" width="159" height="172">
  <path d="M 52,56 L 51,57 L 48,57 L 47,58 L 43,58 L 41,60 L 28,60 L 27,61 L 26,61 L 26,62 L 24,64 L 24,65 L 23,66 L 23,67 L 22,68 L 22,69 L 21,70 L 21,71 L 19,73 L 19,74 L 16,77 L 15,77 L 15,78 L 14,79 L 14,82 L 15,83 L 16,83 L 17,84 L 17,86 L 18,87 L 18,88 L 19,89 L 19,91 L 20,92 L 20,94 L 21,95 L 30,95 L 31,96 L 38,96 L 39,95 L 44,95 L 45,96 L 48,96 L 49,97 L 49,98 L 53,98 L 54,99 L 55,99 L 56,100 L 58,100 L 59,101 L 69,101 L 70,102 L 75,102 L 77,100 L 78,100 L 78,99 L 79,98 L 79,92 L 81,90 L 81,82 L 80,81 L 80,77 L 79,76 L 79,74 L 77,72 L 77,70 L 78,69 L 78,64 L 79,63 L 77,63 L 75,61 L 74,61 L 73,60 L 72,60 L 71,59 L 70,59 L 69,58 L 68,58 L 67,57 L 57,57 L 56,56 Z" fill="none" stroke="black" stroke-width="1"/>
</svg>