<svg xmlns="http://www.w3.org/2000/svg" width="123" height="103">
  <path d="M 66,0 L 65,1 L 64,1 L 63,2 L 61,2 L 58,5 L 57,5 L 51,11 L 51,12 L 50,13 L 50,14 L 49,15 L 49,16 L 47,18 L 47,21 L 46,22 L 46,25 L 47,26 L 47,27 L 49,29 L 49,36 L 50,37 L 50,38 L 49,39 L 49,40 L 48,41 L 47,41 L 45,43 L 43,43 L 42,44 L 37,44 L 37,45 L 38,45 L 39,46 L 39,49 L 44,49 L 45,50 L 45,51 L 51,57 L 52,57 L 53,58 L 54,58 L 55,59 L 56,59 L 67,70 L 67,71 L 68,72 L 68,76 L 69,76 L 70,75 L 77,75 L 78,74 L 79,74 L 81,72 L 82,72 L 83,71 L 86,71 L 87,70 L 92,70 L 93,71 L 95,71 L 96,70 L 97,70 L 98,69 L 99,69 L 101,67 L 102,67 L 103,66 L 103,61 L 106,58 L 106,57 L 107,56 L 107,54 L 112,49 L 117,49 L 118,48 L 119,48 L 120,47 L 122,47 L 122,45 L 121,45 L 119,43 L 119,42 L 118,41 L 116,41 L 115,40 L 114,40 L 113,39 L 112,39 L 111,38 L 110,38 L 109,37 L 109,36 L 108,35 L 108,32 L 107,31 L 107,28 L 106,27 L 106,24 L 104,22 L 104,19 L 105,18 L 105,14 L 104,14 L 103,13 L 103,12 L 98,12 L 97,11 L 97,9 L 88,9 L 87,8 L 81,8 L 80,7 L 80,5 L 78,5 L 77,4 L 77,2 L 71,2 L 70,1 L 70,0 Z" fill="none" stroke="black" stroke-width="1"/>
</svg>