<svg xmlns="http://www.w3.org/2000/svg" width="148" height="220">
  <path d="M 18,122 L 18,125 L 19,126 L 19,127 L 20,128 L 19,129 L 19,132 L 20,133 L 20,134 L 21,135 L 21,136 L 22,137 L 22,138 L 23,138 L 24,139 L 26,139 L 27,140 L 28,140 L 29,141 L 29,142 L 30,143 L 30,146 L 29,147 L 28,147 L 23,152 L 22,152 L 21,153 L 20,153 L 19,154 L 18,154 L 17,155 L 14,155 L 13,156 L 9,156 L 7,158 L 6,158 L 5,157 L 1,157 L 1,161 L 2,162 L 3,162 L 4,163 L 7,163 L 8,164 L 5,167 L 4,167 L 3,168 L 3,169 L 1,171 L 1,172 L 0,173 L 0,175 L 2,175 L 4,177 L 4,179 L 5,179 L 6,180 L 6,183 L 7,184 L 8,184 L 11,187 L 12,187 L 13,188 L 13,189 L 14,190 L 14,191 L 17,194 L 20,194 L 24,198 L 24,199 L 25,199 L 26,200 L 26,201 L 25,202 L 25,203 L 24,204 L 22,204 L 22,205 L 21,206 L 22,207 L 23,207 L 25,209 L 26,209 L 27,210 L 27,212 L 29,214 L 29,216 L 30,216 L 32,218 L 32,219 L 33,219 L 35,217 L 36,217 L 37,216 L 37,214 L 39,212 L 39,206 L 40,205 L 40,203 L 39,202 L 39,198 L 37,196 L 37,192 L 38,191 L 38,187 L 36,185 L 37,184 L 38,184 L 38,183 L 36,181 L 36,180 L 37,179 L 38,179 L 40,177 L 41,177 L 42,178 L 42,179 L 43,178 L 42,177 L 41,177 L 40,176 L 40,172 L 42,170 L 42,167 L 44,165 L 45,165 L 44,165 L 43,164 L 42,164 L 40,162 L 40,161 L 41,160 L 42,161 L 43,161 L 40,158 L 41,157 L 42,157 L 44,159 L 45,159 L 46,158 L 48,158 L 49,157 L 50,157 L 51,156 L 51,155 L 50,154 L 51,153 L 50,152 L 50,151 L 51,150 L 52,151 L 54,151 L 55,150 L 57,150 L 59,148 L 59,147 L 56,147 L 55,146 L 58,143 L 59,143 L 60,142 L 61,142 L 62,141 L 64,141 L 63,140 L 64,139 L 65,139 L 67,141 L 67,140 L 69,138 L 70,138 L 70,136 L 71,135 L 71,134 L 70,133 L 70,132 L 65,127 L 61,127 L 60,126 L 59,126 L 58,125 L 57,125 L 56,124 L 56,123 L 51,123 L 50,124 L 48,124 L 47,125 L 43,125 L 42,124 L 32,124 L 31,125 L 30,124 L 25,124 L 24,123 L 23,123 L 22,122 Z" fill="none" stroke="black" stroke-width="1"/>
</svg>