<svg xmlns="http://www.w3.org/2000/svg" width="123" height="103">
  <path d="M 31,44 L 28,47 L 27,47 L 26,48 L 24,48 L 23,49 L 22,49 L 21,50 L 18,50 L 16,52 L 13,52 L 11,50 L 10,50 L 9,49 L 8,49 L 7,48 L 5,48 L 4,47 L 0,47 L 0,48 L 1,49 L 1,50 L 2,50 L 4,52 L 4,53 L 5,54 L 5,60 L 6,61 L 6,67 L 7,68 L 7,69 L 15,77 L 15,80 L 17,82 L 20,82 L 21,83 L 21,84 L 22,84 L 23,85 L 23,87 L 24,88 L 25,88 L 26,89 L 26,91 L 27,91 L 28,92 L 28,93 L 32,93 L 32,92 L 33,91 L 35,91 L 36,90 L 36,87 L 37,86 L 37,83 L 38,82 L 38,81 L 40,79 L 40,78 L 41,77 L 41,76 L 42,75 L 42,73 L 43,72 L 43,71 L 44,70 L 44,68 L 43,67 L 43,64 L 42,63 L 42,62 L 39,59 L 41,57 L 42,57 L 43,56 L 45,56 L 46,55 L 47,55 L 47,54 L 44,51 L 44,50 L 39,50 L 38,49 L 38,46 L 37,46 L 36,45 L 36,44 Z" fill="none" stroke="black" stroke-width="1"/>
</svg>