<svg xmlns="http://www.w3.org/2000/svg" width="69" height="68">
  <path d="M 30,7 L 30,8 L 29,9 L 29,10 L 28,11 L 28,12 L 27,13 L 27,14 L 29,16 L 29,18 L 30,19 L 30,25 L 29,26 L 28,26 L 27,27 L 29,29 L 29,30 L 30,31 L 31,31 L 33,33 L 33,34 L 35,34 L 36,35 L 34,37 L 35,38 L 36,38 L 37,39 L 38,39 L 41,42 L 42,42 L 43,43 L 44,43 L 47,46 L 48,45 L 49,45 L 52,42 L 55,42 L 56,41 L 57,41 L 58,40 L 62,40 L 63,41 L 64,41 L 65,42 L 68,42 L 68,40 L 67,39 L 67,38 L 66,37 L 65,37 L 64,36 L 64,35 L 63,34 L 63,33 L 64,32 L 65,32 L 64,31 L 64,30 L 59,25 L 59,23 L 57,21 L 50,21 L 47,18 L 47,16 L 44,13 L 43,13 L 41,11 L 40,11 L 39,10 L 37,10 L 36,9 L 34,9 L 33,8 L 32,8 L 31,7 Z" fill="none" stroke="black" stroke-width="1"/>
</svg>