<svg xmlns="http://www.w3.org/2000/svg" width="116" height="84">
  <path d="M 78,48 L 77,49 L 76,49 L 75,50 L 73,50 L 72,51 L 71,51 L 70,52 L 68,52 L 67,53 L 66,53 L 65,54 L 64,54 L 63,55 L 62,54 L 56,54 L 55,53 L 48,53 L 48,61 L 47,62 L 47,64 L 46,65 L 46,66 L 47,66 L 50,69 L 50,71 L 55,76 L 55,77 L 56,78 L 58,78 L 59,79 L 61,79 L 62,80 L 63,80 L 64,81 L 65,81 L 67,83 L 70,83 L 72,81 L 75,81 L 76,80 L 77,80 L 78,79 L 80,79 L 81,78 L 82,78 L 85,75 L 96,75 L 97,74 L 99,74 L 101,72 L 102,72 L 102,71 L 103,70 L 103,69 L 102,68 L 102,61 L 100,59 L 100,58 L 99,57 L 99,54 L 100,53 L 100,52 L 99,52 L 97,50 L 96,50 L 95,49 L 82,49 L 81,48 Z" fill="none" stroke="black" stroke-width="1"/>
</svg>