<svg xmlns="http://www.w3.org/2000/svg" width="69" height="68">
  <path d="M 13,20 L 13,21 L 10,24 L 6,24 L 5,25 L 2,25 L 2,27 L 1,28 L 1,30 L 0,31 L 0,33 L 1,34 L 1,36 L 3,36 L 4,35 L 5,35 L 6,36 L 10,36 L 11,37 L 11,39 L 12,40 L 12,41 L 13,42 L 13,43 L 14,44 L 14,45 L 15,46 L 15,51 L 16,52 L 16,53 L 18,55 L 23,55 L 25,53 L 26,53 L 29,50 L 29,49 L 32,46 L 32,45 L 31,44 L 31,43 L 32,42 L 32,41 L 31,40 L 30,40 L 29,41 L 28,40 L 26,40 L 25,39 L 25,38 L 26,37 L 26,36 L 24,36 L 23,35 L 21,35 L 20,34 L 18,34 L 17,33 L 18,32 L 17,31 L 18,30 L 19,30 L 20,29 L 20,28 L 19,27 L 19,25 L 18,25 L 14,21 L 14,20 Z" fill="none" stroke="black" stroke-width="1"/>
</svg>