<svg xmlns="http://www.w3.org/2000/svg" width="107" height="89">
  <path d="M 86,51 L 85,52 L 84,52 L 84,53 L 83,54 L 83,55 L 82,56 L 82,57 L 81,58 L 81,59 L 80,60 L 80,61 L 79,62 L 78,62 L 78,63 L 75,66 L 74,66 L 72,68 L 69,68 L 71,70 L 73,70 L 74,71 L 75,71 L 78,74 L 78,77 L 79,78 L 79,79 L 80,79 L 81,80 L 82,80 L 83,81 L 84,81 L 89,86 L 90,86 L 92,88 L 95,88 L 96,87 L 98,87 L 99,86 L 100,86 L 102,84 L 102,81 L 103,80 L 103,78 L 106,75 L 106,73 L 104,71 L 100,71 L 97,68 L 97,67 L 96,66 L 96,61 L 95,60 L 95,59 L 94,58 L 94,57 L 93,56 L 93,55 L 92,54 L 92,52 L 88,52 L 87,51 Z" fill="none" stroke="black" stroke-width="1"/>
</svg>