<svg xmlns="http://www.w3.org/2000/svg" width="107" height="89">
  <path d="M 15,0 L 13,2 L 9,2 L 8,3 L 6,3 L 5,4 L 4,4 L 4,6 L 3,7 L 2,7 L 3,8 L 3,13 L 2,14 L 2,15 L 1,16 L 0,16 L 2,18 L 2,20 L 4,22 L 4,24 L 5,25 L 6,25 L 7,26 L 7,29 L 8,29 L 10,31 L 11,31 L 12,32 L 13,32 L 14,33 L 14,34 L 19,39 L 19,40 L 21,42 L 22,42 L 23,43 L 24,43 L 25,44 L 26,44 L 27,45 L 28,45 L 31,48 L 33,48 L 34,49 L 36,49 L 36,45 L 37,44 L 37,43 L 41,39 L 41,37 L 42,36 L 42,33 L 43,32 L 43,30 L 42,30 L 41,31 L 30,31 L 27,28 L 27,27 L 25,25 L 24,25 L 21,22 L 21,21 L 24,18 L 24,14 L 23,13 L 23,8 L 18,3 L 18,2 L 16,0 Z" fill="none" stroke="black" stroke-width="1"/>
</svg>