<svg xmlns="http://www.w3.org/2000/svg" width="73" height="68">
  <path d="M 16,17 L 16,19 L 14,21 L 11,21 L 11,24 L 9,26 L 9,27 L 8,28 L 6,28 L 4,30 L 2,30 L 2,35 L 3,36 L 3,40 L 0,43 L 0,44 L 2,46 L 3,46 L 6,49 L 6,50 L 8,52 L 19,52 L 20,51 L 26,51 L 27,52 L 28,52 L 29,53 L 30,53 L 31,54 L 33,54 L 33,53 L 34,52 L 34,51 L 35,50 L 35,48 L 39,44 L 39,43 L 40,42 L 40,36 L 38,36 L 36,34 L 34,34 L 33,33 L 29,33 L 28,32 L 27,32 L 25,30 L 24,30 L 22,28 L 22,27 L 21,26 L 21,25 L 20,24 L 20,19 L 18,19 L 17,18 L 17,17 Z" fill="none" stroke="black" stroke-width="1"/>
</svg>