<svg xmlns="http://www.w3.org/2000/svg" width="73" height="68">
  <path d="M 29,0 L 28,1 L 25,1 L 24,2 L 22,2 L 21,3 L 17,3 L 17,6 L 19,8 L 19,9 L 16,12 L 16,16 L 17,16 L 18,17 L 18,18 L 20,18 L 21,19 L 21,24 L 22,25 L 22,26 L 23,27 L 23,28 L 24,29 L 25,29 L 27,31 L 28,31 L 29,32 L 33,32 L 34,33 L 36,33 L 38,35 L 40,35 L 41,36 L 41,37 L 44,37 L 45,36 L 45,30 L 46,29 L 46,27 L 47,26 L 47,20 L 46,19 L 46,17 L 43,14 L 42,14 L 41,13 L 41,12 L 42,11 L 42,8 L 41,7 L 41,4 L 40,3 L 36,3 L 34,1 L 33,1 L 32,0 Z" fill="none" stroke="black" stroke-width="1"/>
</svg>