<svg xmlns="http://www.w3.org/2000/svg" width="61" height="79">
  <path d="M 10,41 L 10,45 L 8,47 L 7,47 L 6,48 L 5,48 L 7,50 L 7,52 L 8,53 L 7,54 L 8,55 L 8,58 L 9,58 L 10,59 L 10,60 L 11,61 L 12,61 L 13,62 L 13,63 L 14,64 L 14,65 L 15,66 L 15,68 L 18,71 L 18,73 L 19,74 L 19,75 L 20,75 L 21,76 L 21,77 L 23,77 L 23,75 L 24,74 L 25,74 L 26,73 L 28,73 L 29,72 L 33,72 L 35,70 L 32,67 L 32,62 L 28,58 L 25,58 L 24,57 L 24,56 L 23,55 L 23,54 L 22,53 L 22,52 L 19,49 L 19,48 L 18,47 L 18,45 L 17,44 L 17,43 L 16,42 L 15,42 L 14,41 Z" fill="none" stroke="black" stroke-width="1"/>
</svg>