<svg xmlns="http://www.w3.org/2000/svg" width="61" height="79">
  <path d="M 41,36 L 40,37 L 38,37 L 37,38 L 36,38 L 35,37 L 23,37 L 22,38 L 20,38 L 19,39 L 18,39 L 17,40 L 17,42 L 18,43 L 18,44 L 19,45 L 19,47 L 20,48 L 20,49 L 23,52 L 23,53 L 24,54 L 24,55 L 25,56 L 25,57 L 29,57 L 30,56 L 30,55 L 35,50 L 40,50 L 41,49 L 43,49 L 45,51 L 48,51 L 49,50 L 51,50 L 52,49 L 53,49 L 53,48 L 52,47 L 52,42 L 51,41 L 50,41 L 49,40 L 49,39 L 46,39 L 45,38 L 43,38 L 42,37 L 42,36 Z" fill="none" stroke="black" stroke-width="1"/>
</svg>