<svg xmlns="http://www.w3.org/2000/svg" width="231" height="171">
  <path d="M 202,109 L 201,110 L 197,110 L 196,111 L 195,111 L 194,112 L 194,113 L 195,114 L 196,114 L 198,116 L 198,117 L 201,120 L 201,122 L 204,125 L 204,128 L 206,130 L 206,132 L 208,134 L 208,136 L 209,137 L 209,140 L 210,141 L 210,142 L 211,143 L 212,143 L 213,142 L 214,142 L 215,141 L 218,141 L 219,140 L 221,140 L 221,137 L 222,136 L 221,135 L 221,134 L 220,133 L 220,129 L 221,128 L 222,128 L 222,126 L 220,124 L 220,123 L 217,120 L 217,119 L 218,118 L 218,114 L 215,111 L 210,111 L 209,110 L 207,110 L 206,109 Z" fill="none" stroke="black" stroke-width="1"/>
</svg>