<svg xmlns="http://www.w3.org/2000/svg" width="65" height="91">
  <path d="M 17,28 L 17,29 L 16,30 L 12,30 L 12,31 L 11,32 L 11,33 L 10,34 L 9,34 L 6,37 L 7,38 L 7,44 L 6,45 L 6,47 L 5,48 L 5,50 L 4,51 L 4,53 L 7,56 L 7,65 L 9,67 L 9,68 L 11,70 L 15,70 L 16,71 L 18,71 L 19,72 L 24,72 L 28,76 L 30,76 L 31,75 L 31,74 L 32,73 L 33,73 L 33,71 L 34,70 L 34,69 L 35,68 L 35,62 L 37,60 L 37,59 L 38,58 L 38,56 L 39,55 L 39,53 L 38,52 L 38,51 L 35,48 L 35,47 L 34,46 L 34,45 L 33,44 L 33,43 L 32,42 L 32,41 L 31,40 L 31,32 L 29,30 L 28,30 L 27,31 L 23,31 L 22,30 L 20,30 L 19,29 L 18,29 Z" fill="none" stroke="black" stroke-width="1"/>
</svg>