<svg xmlns="http://www.w3.org/2000/svg" width="61" height="79">
  <path d="M 20,0 L 19,1 L 19,3 L 18,4 L 18,7 L 19,8 L 19,9 L 20,10 L 19,11 L 19,16 L 20,17 L 20,19 L 21,20 L 21,21 L 22,22 L 22,23 L 24,25 L 24,31 L 25,32 L 25,34 L 26,35 L 26,36 L 35,36 L 36,37 L 37,37 L 38,36 L 40,36 L 41,35 L 42,35 L 43,36 L 43,37 L 45,37 L 46,38 L 49,38 L 51,36 L 51,34 L 50,34 L 49,33 L 49,26 L 48,26 L 47,25 L 47,20 L 46,20 L 45,19 L 45,18 L 44,17 L 44,13 L 45,12 L 45,11 L 44,10 L 41,10 L 40,11 L 39,11 L 38,10 L 37,10 L 35,8 L 34,8 L 32,6 L 30,6 L 26,2 L 25,3 L 24,3 L 21,0 Z" fill="none" stroke="black" stroke-width="1"/>
</svg>