<svg xmlns="http://www.w3.org/2000/svg" width="101" height="85">
  <path d="M 49,14 L 49,16 L 48,17 L 48,18 L 47,19 L 47,20 L 46,21 L 45,21 L 45,23 L 44,24 L 44,27 L 43,28 L 43,30 L 39,34 L 39,35 L 32,42 L 33,42 L 35,44 L 36,44 L 38,46 L 40,46 L 41,47 L 42,47 L 45,50 L 45,51 L 46,52 L 46,55 L 45,56 L 50,61 L 51,61 L 52,62 L 52,71 L 59,71 L 60,72 L 62,72 L 63,71 L 73,71 L 74,72 L 78,72 L 79,73 L 82,73 L 84,71 L 84,66 L 87,63 L 90,63 L 92,61 L 95,61 L 95,55 L 97,53 L 97,50 L 98,49 L 98,48 L 99,47 L 99,46 L 100,45 L 100,42 L 94,42 L 93,43 L 88,43 L 87,44 L 84,44 L 83,43 L 83,42 L 82,42 L 80,40 L 80,34 L 77,34 L 74,31 L 74,30 L 67,30 L 66,29 L 66,28 L 63,28 L 62,27 L 63,26 L 63,25 L 62,24 L 62,23 L 61,22 L 61,19 L 59,19 L 58,18 L 56,18 L 53,15 L 53,14 Z" fill="none" stroke="black" stroke-width="1"/>
</svg>