<svg xmlns="http://www.w3.org/2000/svg" width="64" height="96">
  <path d="M 44,53 L 43,54 L 43,56 L 40,59 L 39,59 L 38,60 L 37,60 L 36,61 L 33,61 L 32,60 L 30,60 L 30,62 L 29,63 L 29,64 L 28,65 L 28,66 L 26,68 L 26,71 L 25,72 L 25,73 L 26,74 L 26,75 L 27,76 L 27,78 L 28,79 L 28,86 L 29,86 L 30,87 L 30,88 L 31,89 L 32,89 L 33,90 L 33,91 L 35,91 L 36,90 L 38,90 L 39,89 L 39,87 L 41,85 L 41,84 L 42,83 L 42,79 L 44,77 L 45,77 L 46,76 L 46,75 L 51,70 L 52,70 L 53,69 L 54,69 L 56,67 L 57,67 L 60,64 L 63,64 L 63,60 L 60,60 L 59,59 L 59,58 L 56,58 L 55,57 L 55,56 L 52,56 L 49,53 Z" fill="none" stroke="black" stroke-width="1"/>
</svg>