<svg xmlns="http://www.w3.org/2000/svg" width="101" height="85">
  <path d="M 14,0 L 13,1 L 11,1 L 10,2 L 9,2 L 9,6 L 8,7 L 6,7 L 5,8 L 4,8 L 4,13 L 1,16 L 1,17 L 0,18 L 0,19 L 1,20 L 1,23 L 2,24 L 2,26 L 3,27 L 3,28 L 4,29 L 4,30 L 5,31 L 5,32 L 4,33 L 7,36 L 10,36 L 11,37 L 11,38 L 14,38 L 15,39 L 15,40 L 18,40 L 19,41 L 19,45 L 23,45 L 24,46 L 24,45 L 25,44 L 28,44 L 28,43 L 29,42 L 31,42 L 38,35 L 38,34 L 42,30 L 42,28 L 43,27 L 43,24 L 44,23 L 44,21 L 45,20 L 46,20 L 46,19 L 47,18 L 47,17 L 48,16 L 48,14 L 47,13 L 47,12 L 46,12 L 45,13 L 43,13 L 42,12 L 42,11 L 37,11 L 36,10 L 36,9 L 34,9 L 33,8 L 33,7 L 32,7 L 31,6 L 31,5 L 27,5 L 26,4 L 26,2 L 25,1 L 20,1 L 19,0 Z" fill="none" stroke="black" stroke-width="1"/>
</svg>