<svg xmlns="http://www.w3.org/2000/svg" width="64" height="96">
  <path d="M 16,67 L 14,69 L 14,70 L 13,71 L 14,72 L 15,71 L 15,70 L 17,68 L 18,68 L 18,67 Z" fill="none" stroke="black" stroke-width="1"/>
  <path d="M 9,37 L 9,38 L 8,39 L 4,39 L 4,42 L 5,43 L 5,44 L 6,45 L 6,46 L 5,47 L 5,48 L 4,49 L 5,50 L 5,51 L 6,52 L 6,57 L 4,59 L 3,59 L 3,60 L 4,61 L 7,61 L 8,62 L 8,63 L 11,66 L 13,66 L 15,64 L 15,61 L 16,60 L 16,59 L 19,56 L 20,56 L 21,57 L 20,58 L 20,59 L 18,61 L 18,62 L 17,63 L 17,65 L 18,65 L 19,64 L 19,63 L 20,62 L 22,64 L 22,65 L 21,66 L 21,68 L 23,70 L 23,71 L 25,71 L 25,68 L 27,66 L 27,65 L 28,64 L 28,63 L 29,62 L 29,60 L 30,59 L 30,56 L 29,55 L 29,53 L 28,52 L 28,46 L 25,43 L 25,42 L 22,39 L 16,39 L 15,38 L 14,38 L 13,37 Z" fill="none" stroke="black" stroke-width="1"/>
</svg>