<svg xmlns="http://www.w3.org/2000/svg" width="64" height="96">
  <path d="M 43,8 L 43,9 L 42,10 L 42,15 L 39,18 L 37,18 L 36,19 L 33,19 L 32,18 L 30,18 L 29,19 L 28,19 L 28,20 L 25,23 L 25,24 L 26,25 L 26,27 L 27,28 L 27,31 L 29,33 L 29,37 L 28,38 L 28,39 L 27,40 L 27,41 L 26,42 L 26,43 L 29,46 L 29,52 L 30,53 L 30,55 L 31,56 L 31,59 L 32,59 L 33,60 L 36,60 L 37,59 L 38,59 L 39,58 L 40,58 L 42,56 L 42,54 L 44,52 L 48,52 L 49,51 L 49,50 L 48,49 L 48,48 L 47,47 L 47,46 L 46,45 L 46,43 L 45,42 L 45,39 L 44,38 L 44,37 L 45,36 L 45,35 L 48,32 L 48,27 L 49,26 L 50,26 L 51,25 L 53,25 L 53,21 L 54,20 L 55,20 L 56,19 L 58,19 L 58,18 L 57,17 L 57,15 L 54,12 L 53,12 L 52,11 L 49,11 L 48,10 L 46,10 L 44,8 Z" fill="none" stroke="black" stroke-width="1"/>
</svg>