<svg xmlns="http://www.w3.org/2000/svg" width="101" height="85">
  <path d="M 29,43 L 29,44 L 28,45 L 25,45 L 25,46 L 24,47 L 23,46 L 15,46 L 12,49 L 11,49 L 9,51 L 8,51 L 7,52 L 6,52 L 4,54 L 5,54 L 7,56 L 7,57 L 9,59 L 9,65 L 11,67 L 11,75 L 12,75 L 13,76 L 13,79 L 17,79 L 18,80 L 28,80 L 29,81 L 29,82 L 32,82 L 33,83 L 33,84 L 39,84 L 39,80 L 40,79 L 41,79 L 43,77 L 43,76 L 44,75 L 48,75 L 50,73 L 51,73 L 52,72 L 51,71 L 51,62 L 50,62 L 44,56 L 45,55 L 45,52 L 44,51 L 44,50 L 42,48 L 41,48 L 40,47 L 38,47 L 36,45 L 35,45 L 33,43 Z" fill="none" stroke="black" stroke-width="1"/>
</svg>