<svg xmlns="http://www.w3.org/2000/svg" width="108" height="62">
  <path d="M 35,0 L 34,1 L 33,1 L 33,2 L 32,3 L 32,5 L 30,7 L 28,7 L 28,8 L 25,11 L 25,12 L 24,13 L 24,14 L 17,21 L 17,22 L 16,23 L 12,23 L 12,24 L 10,26 L 11,27 L 11,29 L 12,30 L 13,30 L 14,31 L 16,31 L 19,34 L 20,34 L 21,35 L 22,35 L 25,38 L 26,38 L 28,40 L 28,41 L 29,42 L 29,43 L 31,45 L 33,45 L 43,55 L 52,55 L 53,54 L 57,54 L 58,55 L 60,55 L 61,54 L 65,54 L 70,49 L 71,49 L 72,48 L 73,48 L 77,44 L 80,44 L 81,43 L 81,41 L 80,40 L 80,39 L 79,39 L 78,38 L 78,37 L 77,37 L 75,35 L 74,35 L 70,31 L 66,31 L 66,32 L 65,33 L 65,34 L 64,35 L 60,35 L 57,32 L 57,31 L 56,30 L 56,29 L 55,28 L 55,26 L 54,25 L 54,24 L 53,24 L 51,22 L 51,20 L 45,20 L 38,13 L 38,11 L 37,10 L 37,6 L 38,5 L 38,4 L 39,3 L 36,0 Z" fill="none" stroke="black" stroke-width="1"/>
</svg>