<svg xmlns="http://www.w3.org/2000/svg" width="52" height="128">
  <path d="M 13,91 L 13,92 Z" fill="none" stroke="black" stroke-width="1"/>
  <path d="M 28,64 L 27,65 L 26,65 L 26,66 L 25,67 L 24,67 L 24,68 L 25,69 L 25,70 L 25,69 L 27,67 L 28,68 L 28,69 L 27,70 L 27,71 L 28,71 L 29,70 L 30,70 L 31,71 L 30,72 L 30,74 L 25,79 L 25,81 L 24,82 L 24,83 L 21,86 L 21,87 L 19,89 L 20,90 L 20,91 L 19,92 L 17,92 L 16,93 L 15,93 L 15,97 L 17,97 L 18,98 L 20,98 L 22,100 L 23,99 L 23,97 L 27,93 L 27,92 L 29,90 L 33,90 L 36,87 L 36,86 L 41,81 L 45,81 L 45,80 L 46,79 L 46,78 L 47,77 L 47,73 L 48,72 L 48,70 L 49,69 L 51,69 L 51,68 L 47,68 L 46,67 L 42,67 L 41,68 L 37,68 L 33,64 Z" fill="none" stroke="black" stroke-width="1"/>
</svg>