<svg xmlns="http://www.w3.org/2000/svg" width="45" height="124">
  <path d="M 27,43 L 26,44 L 25,44 L 24,45 L 24,46 L 23,47 L 23,48 L 24,49 L 19,54 L 19,56 L 18,57 L 18,61 L 17,62 L 15,62 L 14,61 L 12,61 L 11,60 L 11,64 L 10,65 L 10,66 L 9,67 L 8,67 L 8,69 L 5,72 L 5,73 L 4,74 L 4,75 L 2,77 L 2,80 L 1,81 L 1,83 L 3,83 L 4,82 L 8,82 L 9,83 L 13,83 L 17,79 L 17,78 L 18,77 L 18,76 L 19,75 L 19,73 L 20,72 L 21,72 L 23,70 L 23,69 L 24,68 L 26,68 L 27,67 L 32,67 L 33,68 L 33,65 L 34,64 L 34,63 L 36,61 L 36,60 L 35,59 L 35,57 L 36,56 L 35,56 L 31,52 L 31,50 L 32,49 L 32,47 L 33,46 L 34,46 L 34,45 L 32,45 L 30,43 Z" fill="none" stroke="black" stroke-width="1"/>
</svg>