<svg xmlns="http://www.w3.org/2000/svg" width="45" height="124">
  <path d="M 22,21 L 17,26 L 15,26 L 14,27 L 14,28 L 12,30 L 12,31 L 11,32 L 4,32 L 4,34 L 0,38 L 0,44 L 1,45 L 1,48 L 2,49 L 4,49 L 6,51 L 6,54 L 7,55 L 7,58 L 8,59 L 11,59 L 12,60 L 14,60 L 15,61 L 17,61 L 17,57 L 18,56 L 18,54 L 23,49 L 22,48 L 22,47 L 23,46 L 23,45 L 25,43 L 26,43 L 27,42 L 30,42 L 32,44 L 34,44 L 35,43 L 37,43 L 37,42 L 38,41 L 39,41 L 38,41 L 37,40 L 36,40 L 34,38 L 33,38 L 31,36 L 31,31 L 28,28 L 28,26 L 27,25 L 27,24 L 25,22 L 25,21 Z" fill="none" stroke="black" stroke-width="1"/>
</svg>