<svg xmlns="http://www.w3.org/2000/svg" width="91" height="82">
  <path d="M 42,18 L 42,21 L 41,22 L 41,24 L 40,25 L 40,26 L 38,28 L 37,27 L 36,27 L 35,26 L 35,25 L 36,24 L 36,23 L 34,23 L 33,22 L 31,22 L 27,26 L 26,26 L 26,28 L 27,29 L 27,32 L 30,32 L 31,33 L 31,36 L 32,36 L 33,37 L 33,47 L 34,47 L 35,48 L 35,49 L 38,49 L 39,50 L 39,51 L 41,51 L 42,52 L 42,54 L 43,54 L 43,52 L 44,51 L 44,48 L 45,47 L 45,45 L 46,44 L 46,41 L 45,40 L 45,37 L 46,36 L 46,35 L 51,30 L 51,26 L 53,24 L 53,23 L 54,22 L 56,22 L 56,19 L 46,19 L 45,18 Z" fill="none" stroke="black" stroke-width="1"/>
</svg>