<svg xmlns="http://www.w3.org/2000/svg" width="42" height="87">
  <path d="M 33,36 L 32,37 L 30,37 L 29,38 L 30,39 L 30,42 L 29,43 L 29,44 L 26,47 L 25,47 L 20,52 L 15,52 L 13,50 L 12,50 L 9,53 L 9,54 L 8,55 L 6,55 L 6,57 L 7,58 L 7,60 L 11,60 L 12,59 L 14,59 L 17,62 L 17,63 L 18,64 L 18,67 L 19,67 L 20,68 L 23,68 L 23,67 L 24,66 L 24,64 L 28,60 L 30,60 L 31,59 L 32,59 L 33,58 L 33,56 L 34,55 L 34,52 L 33,51 L 33,50 L 34,49 L 34,46 L 39,41 L 39,40 L 40,39 L 40,38 L 41,37 L 41,36 Z" fill="none" stroke="black" stroke-width="1"/>
</svg>