<svg xmlns="http://www.w3.org/2000/svg" width="219" height="125">
  <path d="M 151,50 L 151,51 L 150,52 L 148,52 L 147,53 L 146,53 L 142,57 L 142,58 L 141,59 L 140,59 L 140,62 L 139,63 L 138,63 L 137,64 L 133,64 L 132,63 L 131,63 L 130,64 L 129,64 L 128,65 L 128,66 L 126,68 L 126,69 L 124,71 L 124,72 L 122,74 L 121,74 L 120,75 L 120,76 L 118,78 L 117,78 L 114,81 L 113,81 L 113,83 L 114,83 L 115,84 L 120,84 L 122,86 L 124,86 L 125,87 L 125,88 L 126,89 L 128,89 L 129,90 L 130,90 L 131,91 L 131,94 L 132,95 L 131,96 L 131,97 L 130,98 L 130,100 L 131,101 L 132,101 L 133,102 L 133,103 L 134,104 L 135,104 L 136,105 L 136,106 L 137,107 L 137,109 L 142,109 L 143,110 L 147,110 L 146,109 L 146,107 L 148,105 L 150,105 L 151,104 L 154,104 L 155,105 L 158,105 L 159,106 L 160,105 L 161,105 L 162,104 L 163,104 L 164,103 L 166,103 L 167,102 L 168,102 L 169,101 L 170,101 L 172,99 L 173,99 L 175,97 L 176,97 L 178,95 L 178,94 L 177,93 L 177,92 L 175,90 L 175,88 L 174,88 L 173,87 L 172,87 L 171,86 L 170,86 L 169,85 L 155,85 L 153,83 L 153,80 L 154,79 L 154,74 L 153,73 L 153,71 L 155,69 L 155,67 L 158,64 L 158,63 L 159,62 L 159,58 L 158,57 L 158,53 L 157,52 L 157,51 L 156,50 Z" fill="none" stroke="black" stroke-width="1"/>
</svg>