<svg xmlns="http://www.w3.org/2000/svg" width="102" height="63">
  <path d="M 45,12 L 44,13 L 43,13 L 43,14 L 42,15 L 42,16 L 41,17 L 39,17 L 35,21 L 33,21 L 31,23 L 31,24 L 30,25 L 30,29 L 29,30 L 29,31 L 28,32 L 28,34 L 26,36 L 29,36 L 30,37 L 31,37 L 32,38 L 33,38 L 34,39 L 35,39 L 36,40 L 37,40 L 38,41 L 39,41 L 40,42 L 43,42 L 44,43 L 45,42 L 48,42 L 50,44 L 53,44 L 55,42 L 59,42 L 59,41 L 64,36 L 69,36 L 70,35 L 76,35 L 77,36 L 81,32 L 81,30 L 77,26 L 77,25 L 72,25 L 71,24 L 70,24 L 69,23 L 65,23 L 64,22 L 62,22 L 61,21 L 59,21 L 58,20 L 55,20 L 53,18 L 51,18 L 50,17 L 49,17 L 48,16 L 48,15 L 46,13 L 46,12 Z" fill="none" stroke="black" stroke-width="1"/>
</svg>