<svg xmlns="http://www.w3.org/2000/svg" width="92" height="40">
  <path d="M 63,19 L 63,21 L 64,21 L 64,20 Z" fill="none" stroke="black" stroke-width="1"/>
  <path d="M 53,0 L 53,1 L 50,4 L 49,4 L 48,5 L 47,5 L 45,7 L 44,7 L 43,8 L 40,8 L 39,9 L 38,9 L 41,12 L 41,15 L 40,16 L 43,19 L 43,21 L 45,19 L 46,19 L 48,17 L 49,17 L 49,16 L 50,15 L 50,14 L 49,13 L 50,12 L 51,12 L 52,11 L 53,11 L 54,10 L 55,10 L 56,9 L 58,9 L 59,10 L 62,7 L 63,8 L 63,9 L 62,10 L 64,12 L 65,12 L 68,15 L 71,15 L 71,14 L 73,12 L 73,11 L 74,10 L 75,10 L 77,8 L 77,7 L 75,7 L 74,6 L 73,6 L 72,5 L 71,5 L 70,4 L 61,4 L 60,3 L 60,2 L 55,2 Z" fill="none" stroke="black" stroke-width="1"/>
</svg>