<svg xmlns="http://www.w3.org/2000/svg" width="54" height="45">
  <path d="M 29,17 L 29,18 L 25,22 L 24,22 L 23,23 L 23,25 L 25,25 L 27,27 L 29,27 L 33,31 L 34,31 L 35,32 L 35,34 L 36,35 L 35,36 L 35,37 L 33,39 L 33,40 L 34,40 L 36,42 L 40,42 L 39,41 L 39,40 L 38,40 L 37,39 L 37,38 L 38,37 L 39,37 L 43,41 L 43,43 L 44,44 L 44,43 L 45,42 L 45,40 L 46,39 L 46,38 L 47,37 L 47,35 L 48,34 L 48,33 L 47,32 L 47,27 L 46,26 L 44,26 L 43,25 L 42,25 L 41,26 L 35,20 L 32,20 L 30,18 L 30,17 Z" fill="none" stroke="black" stroke-width="1"/>
</svg>