<svg xmlns="http://www.w3.org/2000/svg" width="70" height="67">
  <path d="M 25,18 L 24,19 L 16,19 L 14,21 L 14,24 L 15,25 L 15,26 L 16,27 L 15,28 L 15,29 L 14,30 L 12,30 L 11,31 L 8,31 L 7,32 L 5,32 L 4,33 L 1,30 L 0,31 L 0,32 L 2,34 L 3,34 L 10,41 L 11,41 L 15,45 L 15,47 L 16,47 L 16,46 L 17,45 L 17,42 L 16,41 L 17,40 L 18,40 L 19,39 L 20,39 L 21,38 L 22,39 L 22,41 L 25,41 L 26,40 L 28,40 L 29,39 L 34,39 L 35,38 L 36,38 L 37,39 L 39,37 L 38,36 L 38,35 L 37,34 L 37,28 L 35,26 L 35,25 L 33,23 L 33,22 L 31,22 L 27,18 Z" fill="none" stroke="black" stroke-width="1"/>
</svg>