<svg xmlns="http://www.w3.org/2000/svg" width="70" height="67">
  <path d="M 65,0 L 64,1 L 62,1 L 61,2 L 56,2 L 55,3 L 57,3 L 58,4 L 58,5 L 59,6 L 59,14 L 58,15 L 58,16 L 54,20 L 54,22 L 55,23 L 55,28 L 54,29 L 54,31 L 61,38 L 62,37 L 63,38 L 63,40 L 64,40 L 64,38 L 63,38 L 62,37 L 62,34 L 63,33 L 64,34 L 64,30 L 63,29 L 63,23 L 64,22 L 64,17 L 65,16 L 65,14 L 66,13 L 67,13 L 67,12 L 68,11 L 68,10 L 69,9 L 69,8 L 68,7 L 68,5 L 67,4 L 67,3 L 66,3 L 65,2 L 65,1 L 66,0 Z" fill="none" stroke="black" stroke-width="1"/>
</svg>