<svg xmlns="http://www.w3.org/2000/svg" width="98" height="50">
  <path d="M 55,0 L 55,1 L 54,2 L 51,2 L 50,3 L 49,3 L 49,5 L 48,6 L 48,8 L 49,8 L 50,9 L 58,9 L 59,10 L 62,10 L 64,12 L 65,12 L 67,14 L 68,14 L 72,18 L 72,20 L 73,20 L 74,21 L 82,21 L 84,19 L 89,19 L 90,18 L 92,18 L 93,17 L 97,17 L 97,16 L 96,16 L 95,15 L 95,13 L 94,12 L 93,12 L 93,13 L 92,14 L 91,14 L 90,13 L 90,12 L 89,13 L 86,10 L 85,10 L 86,10 L 87,11 L 87,13 L 86,14 L 82,10 L 82,9 L 81,8 L 82,7 L 85,7 L 82,4 L 81,4 L 80,3 L 77,3 L 76,4 L 74,2 L 73,2 L 72,1 L 71,1 L 70,0 L 69,0 L 68,1 L 67,1 L 66,2 L 61,2 L 60,1 L 59,1 L 58,0 Z" fill="none" stroke="black" stroke-width="1"/>
</svg>