<svg xmlns="http://www.w3.org/2000/svg" width="58" height="59">
  <path d="M 57,16 L 56,17 L 57,17 Z" fill="none" stroke="black" stroke-width="1"/>
  <path d="M 56,6 L 56,7 L 55,8 L 55,9 L 56,10 L 56,8 L 57,7 L 57,6 Z" fill="none" stroke="black" stroke-width="1"/>
  <path d="M 48,0 L 39,9 L 38,8 L 36,8 L 34,10 L 34,14 L 33,15 L 34,15 L 36,17 L 36,18 L 37,18 L 38,17 L 40,17 L 42,19 L 44,19 L 45,20 L 45,21 L 46,22 L 49,22 L 49,19 L 50,18 L 50,17 L 51,16 L 50,15 L 50,13 L 51,12 L 51,9 L 52,8 L 52,7 L 53,6 L 53,3 L 52,2 L 50,2 L 49,1 L 49,0 Z" fill="none" stroke="black" stroke-width="1"/>
</svg>