<svg xmlns="http://www.w3.org/2000/svg" width="62" height="46">
  <path d="M 35,21 L 33,23 L 32,23 L 31,24 L 27,24 L 27,25 L 28,26 L 28,28 L 26,30 L 26,31 L 24,33 L 24,36 L 26,36 L 28,38 L 29,38 L 31,40 L 38,40 L 39,41 L 41,41 L 42,42 L 43,42 L 45,44 L 48,44 L 49,45 L 51,45 L 52,44 L 56,44 L 57,43 L 58,43 L 59,42 L 60,42 L 61,41 L 61,39 L 60,38 L 59,38 L 55,34 L 53,34 L 51,32 L 50,32 L 49,33 L 47,33 L 46,34 L 43,34 L 42,33 L 42,31 L 43,30 L 43,29 L 44,28 L 43,27 L 41,27 L 39,29 L 36,29 L 35,28 L 35,23 L 36,22 L 36,21 Z" fill="none" stroke="black" stroke-width="1"/>
</svg>