<svg xmlns="http://www.w3.org/2000/svg" width="48" height="62">
  <path d="M 25,0 L 25,4 L 24,5 L 12,5 L 9,8 L 8,8 L 7,9 L 5,9 L 2,12 L 2,14 L 0,16 L 0,19 L 1,19 L 2,20 L 2,21 L 15,21 L 16,22 L 17,22 L 18,23 L 20,23 L 22,25 L 22,26 L 24,28 L 25,28 L 26,29 L 26,30 L 28,28 L 36,28 L 37,29 L 38,29 L 38,27 L 42,23 L 42,21 L 43,20 L 43,19 L 45,17 L 47,17 L 47,16 L 45,14 L 45,13 L 47,11 L 47,7 L 46,6 L 46,5 L 44,5 L 43,6 L 41,6 L 40,7 L 39,7 L 38,8 L 34,4 L 34,3 L 32,1 L 30,1 L 29,0 Z" fill="none" stroke="black" stroke-width="1"/>
</svg>