<svg xmlns="http://www.w3.org/2000/svg" width="60" height="59">
  <path d="M 15,0 L 12,3 L 11,3 L 10,4 L 9,4 L 8,5 L 6,5 L 5,6 L 5,7 L 4,8 L 4,10 L 0,14 L 0,18 L 1,19 L 1,20 L 0,21 L 0,23 L 1,24 L 1,25 L 2,26 L 2,27 L 6,31 L 10,31 L 11,30 L 12,30 L 13,29 L 14,29 L 15,28 L 17,28 L 18,29 L 22,29 L 23,30 L 25,28 L 25,27 L 26,26 L 27,26 L 27,25 L 26,24 L 26,20 L 30,16 L 30,15 L 28,15 L 27,14 L 26,14 L 24,12 L 24,11 L 25,10 L 21,6 L 21,4 L 22,3 L 20,1 L 20,0 Z" fill="none" stroke="black" stroke-width="1"/>
</svg>