<svg xmlns="http://www.w3.org/2000/svg" width="61" height="110">
  <path d="M 35,59 L 34,60 L 34,61 L 33,62 L 33,63 L 31,65 L 31,68 L 26,73 L 26,74 L 25,75 L 25,76 L 24,77 L 24,78 L 23,79 L 23,80 L 22,81 L 22,84 L 21,85 L 21,86 L 25,90 L 26,90 L 28,92 L 28,93 L 30,95 L 30,96 L 31,97 L 31,99 L 32,99 L 33,100 L 34,100 L 35,101 L 36,101 L 37,102 L 38,102 L 39,103 L 40,103 L 42,105 L 43,105 L 44,106 L 45,106 L 48,109 L 51,109 L 51,108 L 50,107 L 50,103 L 49,102 L 49,100 L 48,99 L 48,98 L 49,97 L 49,96 L 50,95 L 50,94 L 51,93 L 51,92 L 50,91 L 50,84 L 51,83 L 51,75 L 48,75 L 45,72 L 44,72 L 41,69 L 41,68 L 39,66 L 39,65 L 38,64 L 38,63 L 37,62 L 37,59 Z" fill="none" stroke="black" stroke-width="1"/>
</svg>