<svg xmlns="http://www.w3.org/2000/svg" width="82" height="90">
  <path d="M 17,0 L 13,4 L 12,4 L 11,5 L 10,5 L 7,8 L 5,8 L 5,9 L 4,10 L 3,10 L 2,11 L 2,12 L 1,13 L 1,14 L 0,15 L 0,17 L 2,19 L 3,19 L 6,22 L 6,23 L 8,23 L 8,22 L 9,21 L 10,21 L 11,22 L 11,24 L 12,24 L 14,26 L 15,26 L 17,28 L 20,28 L 22,30 L 20,32 L 20,33 L 21,34 L 21,32 L 22,31 L 23,32 L 23,35 L 22,36 L 23,37 L 24,37 L 25,38 L 26,38 L 27,39 L 28,39 L 29,40 L 28,41 L 30,43 L 31,43 L 35,47 L 37,47 L 37,46 L 38,45 L 38,42 L 42,38 L 47,38 L 45,36 L 45,35 L 41,31 L 41,29 L 40,30 L 39,30 L 37,28 L 37,27 L 35,25 L 35,23 L 34,22 L 34,15 L 32,13 L 32,12 L 29,12 L 28,11 L 27,11 L 26,10 L 25,10 L 21,6 L 21,4 L 20,3 L 20,1 L 19,0 Z" fill="none" stroke="black" stroke-width="1"/>
</svg>