<svg xmlns="http://www.w3.org/2000/svg" width="92" height="119">
  <path d="M 74,38 L 72,40 L 69,40 L 67,42 L 64,42 L 63,43 L 59,43 L 57,45 L 57,47 L 55,49 L 52,49 L 52,51 L 54,53 L 54,54 L 52,56 L 52,57 L 53,58 L 53,61 L 52,62 L 52,63 L 53,64 L 53,67 L 54,68 L 54,69 L 55,70 L 55,73 L 56,74 L 56,76 L 57,75 L 61,75 L 63,77 L 67,77 L 68,78 L 68,79 L 70,81 L 70,82 L 72,80 L 74,80 L 75,79 L 76,79 L 79,76 L 91,76 L 91,73 L 90,73 L 89,72 L 86,72 L 85,73 L 83,73 L 82,72 L 82,71 L 81,71 L 80,70 L 81,69 L 81,68 L 82,67 L 82,66 L 81,65 L 81,63 L 83,61 L 82,61 L 80,59 L 80,57 L 81,56 L 81,52 L 83,50 L 84,50 L 83,49 L 83,46 L 82,45 L 81,45 L 78,42 L 77,42 L 76,41 L 77,40 L 77,38 Z" fill="none" stroke="black" stroke-width="1"/>
</svg>