<svg xmlns="http://www.w3.org/2000/svg" width="76" height="108">
  <path d="M 32,40 L 29,43 L 29,44 L 26,47 L 26,48 L 25,49 L 25,51 L 26,52 L 26,53 L 27,54 L 27,56 L 25,58 L 25,60 L 24,61 L 24,62 L 22,64 L 21,64 L 20,65 L 20,67 L 21,68 L 22,68 L 25,71 L 27,71 L 28,72 L 36,72 L 37,73 L 38,73 L 41,76 L 42,76 L 43,77 L 45,77 L 47,79 L 49,79 L 49,77 L 52,74 L 54,74 L 55,73 L 56,73 L 59,70 L 59,69 L 60,68 L 60,67 L 61,66 L 59,64 L 59,63 L 58,62 L 58,61 L 57,60 L 57,59 L 53,55 L 51,55 L 47,51 L 46,51 L 44,49 L 44,47 L 42,47 L 40,45 L 39,45 L 36,42 L 35,42 L 33,40 Z" fill="none" stroke="black" stroke-width="1"/>
</svg>