<svg xmlns="http://www.w3.org/2000/svg" width="104" height="107">
  <path d="M 61,46 L 60,47 L 59,47 L 58,48 L 57,48 L 56,49 L 53,49 L 52,50 L 51,50 L 45,56 L 44,56 L 44,59 L 43,60 L 42,59 L 42,58 L 41,58 L 39,60 L 39,64 L 40,64 L 41,65 L 42,65 L 43,64 L 43,62 L 44,61 L 48,65 L 48,66 L 52,70 L 52,71 L 54,71 L 56,73 L 56,74 L 58,76 L 58,77 L 61,80 L 63,80 L 64,81 L 65,80 L 66,80 L 66,79 L 65,78 L 65,75 L 66,74 L 67,74 L 70,71 L 71,71 L 72,70 L 73,70 L 74,69 L 78,69 L 78,67 L 80,65 L 80,64 L 79,64 L 77,62 L 75,62 L 74,61 L 73,61 L 71,59 L 71,58 L 70,57 L 70,55 L 68,53 L 68,52 L 67,51 L 66,51 L 64,49 L 64,48 L 62,46 Z" fill="none" stroke="black" stroke-width="1"/>
</svg>