<svg xmlns="http://www.w3.org/2000/svg" width="100" height="92">
  <path d="M 51,0 L 49,2 L 48,2 L 48,3 L 47,4 L 48,5 L 48,7 L 46,9 L 46,10 L 43,13 L 43,15 L 41,17 L 41,18 L 33,26 L 33,28 L 32,29 L 32,30 L 30,32 L 30,34 L 31,35 L 31,36 L 33,38 L 32,39 L 32,43 L 31,44 L 31,46 L 34,49 L 34,50 L 36,50 L 37,49 L 38,49 L 38,48 L 39,47 L 39,46 L 44,41 L 44,40 L 47,37 L 47,36 L 48,35 L 49,35 L 50,34 L 51,34 L 52,33 L 53,33 L 55,31 L 56,31 L 57,30 L 58,30 L 59,29 L 69,29 L 70,30 L 72,30 L 75,33 L 75,34 L 76,34 L 79,37 L 81,37 L 82,38 L 85,38 L 85,36 L 84,36 L 83,35 L 83,33 L 82,32 L 82,29 L 79,26 L 79,24 L 77,22 L 76,22 L 72,18 L 71,18 L 70,17 L 69,17 L 66,14 L 66,13 L 65,12 L 65,11 L 54,0 Z" fill="none" stroke="black" stroke-width="1"/>
</svg>