<svg xmlns="http://www.w3.org/2000/svg" width="100" height="92">
  <path d="M 59,30 L 58,31 L 57,31 L 56,32 L 55,32 L 53,34 L 52,34 L 51,35 L 50,35 L 49,36 L 48,36 L 48,37 L 45,40 L 45,41 L 40,46 L 40,47 L 39,48 L 39,49 L 38,50 L 37,50 L 36,51 L 35,51 L 36,52 L 36,55 L 39,58 L 40,58 L 45,63 L 45,65 L 46,66 L 46,67 L 48,65 L 48,64 L 59,53 L 60,53 L 61,52 L 63,52 L 64,53 L 70,53 L 71,54 L 73,54 L 74,55 L 77,55 L 78,56 L 80,56 L 81,57 L 84,57 L 85,58 L 86,58 L 87,57 L 88,57 L 90,59 L 90,60 L 91,59 L 92,59 L 94,61 L 95,61 L 97,59 L 97,55 L 98,54 L 98,52 L 99,51 L 99,48 L 98,49 L 96,47 L 93,47 L 91,45 L 90,45 L 89,44 L 88,44 L 87,43 L 86,43 L 85,42 L 85,39 L 82,39 L 81,38 L 79,38 L 76,35 L 75,35 L 74,34 L 74,33 L 72,31 L 70,31 L 69,30 Z" fill="none" stroke="black" stroke-width="1"/>
</svg>