<svg xmlns="http://www.w3.org/2000/svg" width="117" height="165">
  <path d="M 89,112 L 88,113 L 88,115 L 88,114 L 89,113 Z" fill="none" stroke="black" stroke-width="1"/>
  <path d="M 56,75 L 55,76 L 46,76 L 45,77 L 43,77 L 40,80 L 41,81 L 41,82 L 40,83 L 39,82 L 36,82 L 35,83 L 34,82 L 31,82 L 30,81 L 29,81 L 29,82 L 30,83 L 31,83 L 34,86 L 35,86 L 37,88 L 37,89 L 38,90 L 38,91 L 39,92 L 42,92 L 45,95 L 47,95 L 49,97 L 49,98 L 50,98 L 51,99 L 53,97 L 54,98 L 56,98 L 57,99 L 57,100 L 58,100 L 60,102 L 61,102 L 65,106 L 66,106 L 67,107 L 69,107 L 71,109 L 71,111 L 73,113 L 73,114 L 74,115 L 74,116 L 75,117 L 74,118 L 74,120 L 75,121 L 82,121 L 83,120 L 85,120 L 86,119 L 87,119 L 87,117 L 86,116 L 86,115 L 85,114 L 85,109 L 84,108 L 84,105 L 83,104 L 83,103 L 82,102 L 82,100 L 81,100 L 78,97 L 78,98 L 77,99 L 76,98 L 76,97 L 75,96 L 75,95 L 74,94 L 74,93 L 73,93 L 71,91 L 71,88 L 70,87 L 70,86 L 69,86 L 68,85 L 66,85 L 65,84 L 65,83 L 63,81 L 64,80 L 64,78 L 63,77 L 63,75 L 62,76 L 57,76 Z" fill="none" stroke="black" stroke-width="1"/>
  <path d="M 25,72 L 25,75 L 24,76 L 25,76 L 26,77 L 26,73 Z" fill="none" stroke="black" stroke-width="1"/>
</svg>