<svg xmlns="http://www.w3.org/2000/svg" width="117" height="165">
  <path d="M 109,141 L 109,143 L 110,143 L 109,142 Z" fill="none" stroke="black" stroke-width="1"/>
  <path d="M 73,135 L 74,136 L 74,135 Z" fill="none" stroke="black" stroke-width="1"/>
  <path d="M 88,119 L 87,120 L 86,120 L 85,121 L 83,121 L 82,122 L 75,122 L 75,125 L 74,126 L 73,126 L 73,131 L 74,131 L 75,132 L 75,133 L 77,133 L 79,135 L 79,136 L 78,137 L 77,137 L 77,138 L 78,138 L 80,140 L 80,139 L 78,137 L 79,136 L 81,136 L 82,137 L 82,138 L 83,138 L 84,139 L 84,140 L 85,141 L 86,141 L 88,143 L 90,143 L 98,151 L 99,151 L 100,152 L 101,152 L 103,154 L 103,155 L 104,156 L 104,157 L 105,158 L 105,161 L 106,162 L 106,163 L 107,164 L 110,164 L 111,163 L 111,162 L 112,161 L 114,161 L 115,160 L 115,159 L 116,158 L 116,155 L 114,153 L 112,153 L 111,152 L 111,149 L 110,149 L 109,148 L 110,147 L 110,146 L 109,146 L 107,144 L 106,144 L 103,141 L 103,143 L 102,144 L 101,143 L 99,143 L 98,142 L 97,142 L 96,141 L 96,139 L 95,138 L 95,135 L 96,134 L 96,131 L 97,130 L 98,131 L 98,129 L 97,129 L 96,128 L 95,129 L 94,129 L 92,127 L 92,125 L 91,124 L 91,123 L 90,122 L 91,121 L 90,120 L 89,120 Z" fill="none" stroke="black" stroke-width="1"/>
</svg>