<svg xmlns="http://www.w3.org/2000/svg" width="104" height="94">
  <path d="M 6,27 L 5,28 L 3,28 L 2,29 L 1,29 L 0,28 L 0,30 L 3,33 L 3,35 L 2,36 L 2,37 L 1,38 L 1,43 L 3,45 L 3,46 L 4,47 L 4,48 L 5,49 L 5,51 L 6,52 L 6,55 L 7,55 L 10,58 L 10,59 L 14,63 L 14,67 L 13,68 L 12,68 L 12,70 L 13,71 L 13,72 L 14,72 L 15,73 L 19,73 L 21,71 L 24,71 L 25,70 L 26,70 L 26,69 L 27,68 L 27,67 L 26,66 L 26,64 L 24,62 L 24,61 L 25,60 L 25,59 L 27,57 L 27,52 L 26,51 L 26,50 L 27,49 L 27,47 L 29,45 L 29,40 L 30,39 L 31,39 L 30,38 L 29,38 L 28,37 L 28,35 L 27,34 L 27,33 L 26,32 L 26,31 L 16,31 L 15,30 L 14,30 L 13,29 L 12,29 L 10,27 Z" fill="none" stroke="black" stroke-width="1"/>
</svg>