<svg xmlns="http://www.w3.org/2000/svg" width="119" height="121">
  <path d="M 70,104 L 70,105 L 72,107 L 73,107 Z" fill="none" stroke="black" stroke-width="1"/>
  <path d="M 71,96 L 71,97 L 72,98 L 74,98 L 73,97 L 72,97 Z" fill="none" stroke="black" stroke-width="1"/>
  <path d="M 50,86 L 51,87 L 54,87 L 54,86 Z" fill="none" stroke="black" stroke-width="1"/>
  <path d="M 46,86 L 46,88 L 47,87 L 48,87 L 47,86 Z" fill="none" stroke="black" stroke-width="1"/>
  <path d="M 49,63 L 48,64 L 44,64 L 43,65 L 40,65 L 39,66 L 39,76 L 40,76 L 41,77 L 41,78 L 42,77 L 48,77 L 49,78 L 54,78 L 55,79 L 57,79 L 60,82 L 60,83 L 61,84 L 63,84 L 64,85 L 71,85 L 73,87 L 73,88 L 74,89 L 73,90 L 74,91 L 75,91 L 76,90 L 78,90 L 79,91 L 79,92 L 80,92 L 82,94 L 83,94 L 83,93 L 86,90 L 93,90 L 92,90 L 91,89 L 91,88 L 87,84 L 86,84 L 85,83 L 84,83 L 82,81 L 82,80 L 81,79 L 81,78 L 79,76 L 77,76 L 76,75 L 74,75 L 73,74 L 72,74 L 71,73 L 67,73 L 66,72 L 66,71 L 63,68 L 63,67 L 61,67 L 60,66 L 58,66 L 57,67 L 56,67 L 55,66 L 54,66 L 51,63 Z" fill="none" stroke="black" stroke-width="1"/>
</svg>