<svg xmlns="http://www.w3.org/2000/svg" width="119" height="121">
  <path d="M 20,33 L 20,34 L 21,35 L 21,37 L 19,39 L 18,39 L 18,40 L 19,41 L 19,44 L 21,46 L 22,46 L 24,48 L 24,49 L 26,51 L 26,52 L 28,54 L 28,55 L 29,56 L 30,56 L 31,57 L 31,58 L 32,59 L 33,59 L 35,61 L 35,64 L 36,65 L 39,65 L 40,64 L 43,64 L 44,63 L 48,63 L 49,62 L 47,60 L 47,55 L 44,52 L 44,51 L 41,48 L 41,47 L 40,46 L 40,42 L 39,41 L 39,40 L 36,40 L 33,37 L 30,37 L 29,36 L 27,36 L 26,35 L 25,35 L 24,34 L 23,34 L 22,33 Z" fill="none" stroke="black" stroke-width="1"/>
</svg>