<svg xmlns="http://www.w3.org/2000/svg" width="128" height="89">
  <path d="M 10,54 L 8,56 L 7,56 L 6,57 L 3,57 L 4,58 L 3,59 L 3,60 L 2,61 L 1,60 L 1,56 L 0,56 L 0,60 L 1,60 L 2,61 L 2,62 L 3,63 L 4,63 L 5,62 L 10,62 L 12,64 L 14,64 L 15,65 L 14,66 L 11,66 L 9,64 L 8,65 L 3,65 L 3,69 L 5,69 L 6,70 L 7,70 L 8,71 L 9,71 L 13,75 L 14,74 L 21,74 L 23,76 L 24,76 L 26,78 L 26,80 L 27,81 L 27,82 L 28,83 L 28,84 L 29,85 L 30,85 L 32,87 L 32,88 L 33,88 L 34,87 L 37,87 L 38,86 L 39,86 L 40,85 L 42,85 L 43,84 L 44,84 L 44,82 L 47,79 L 47,78 L 48,77 L 48,75 L 41,75 L 40,74 L 37,74 L 35,72 L 34,72 L 33,71 L 32,71 L 31,70 L 31,69 L 29,67 L 29,65 L 28,64 L 28,62 L 26,60 L 25,60 L 23,58 L 22,58 L 21,57 L 20,57 L 19,56 L 17,56 L 16,55 L 12,55 L 11,54 Z" fill="none" stroke="black" stroke-width="1"/>
</svg>