<svg xmlns="http://www.w3.org/2000/svg" width="62" height="48">
  <path d="M 33,18 L 32,19 L 32,20 L 31,21 L 31,22 L 30,23 L 29,23 L 29,24 L 26,27 L 26,28 L 27,27 L 28,27 L 29,28 L 29,29 L 30,30 L 30,32 L 30,30 L 31,29 L 32,30 L 33,30 L 35,28 L 34,28 L 33,27 L 33,25 L 32,24 L 32,22 L 33,21 L 34,21 L 34,19 Z" fill="none" stroke="black" stroke-width="1"/>
  <path d="M 46,0 L 45,1 L 34,1 L 34,2 L 35,3 L 35,6 L 34,7 L 31,7 L 32,8 L 33,8 L 34,9 L 35,9 L 36,10 L 36,13 L 37,14 L 37,15 L 36,16 L 35,16 L 34,15 L 34,14 L 32,12 L 32,10 L 31,10 L 31,11 L 30,12 L 33,15 L 34,15 L 35,16 L 35,17 L 36,17 L 37,16 L 38,17 L 38,18 L 36,20 L 36,22 L 35,23 L 36,24 L 36,26 L 37,27 L 41,27 L 42,28 L 43,28 L 45,30 L 51,30 L 52,29 L 53,29 L 54,30 L 56,28 L 56,27 L 55,26 L 55,23 L 56,22 L 54,20 L 54,17 L 55,16 L 55,14 L 60,9 L 61,9 L 61,6 L 60,6 L 59,5 L 58,5 L 56,3 L 55,3 L 54,2 L 53,2 L 51,0 L 49,0 L 48,1 L 47,1 Z" fill="none" stroke="black" stroke-width="1"/>
</svg>