<svg xmlns="http://www.w3.org/2000/svg" width="95" height="66">
  <path d="M 23,0 L 22,1 L 21,1 L 19,3 L 18,3 L 17,4 L 12,4 L 11,5 L 8,5 L 7,6 L 7,7 L 5,9 L 4,9 L 4,10 L 5,11 L 5,15 L 4,16 L 4,19 L 3,20 L 2,20 L 1,21 L 1,22 L 2,23 L 3,23 L 4,24 L 3,25 L 3,27 L 5,27 L 7,25 L 10,25 L 11,24 L 14,24 L 15,23 L 21,23 L 23,25 L 24,25 L 30,31 L 30,32 L 31,33 L 31,35 L 34,35 L 37,32 L 38,32 L 38,30 L 37,29 L 37,28 L 38,27 L 38,26 L 39,25 L 45,25 L 46,24 L 47,24 L 47,23 L 48,22 L 48,18 L 47,17 L 47,16 L 44,13 L 44,12 L 47,9 L 48,9 L 49,8 L 49,4 L 44,4 L 43,5 L 42,5 L 41,4 L 40,4 L 39,3 L 38,3 L 37,2 L 35,2 L 34,1 L 28,1 L 27,0 Z" fill="none" stroke="black" stroke-width="1"/>
</svg>