<svg xmlns="http://www.w3.org/2000/svg" width="104" height="94">
  <path d="M 49,30 L 48,31 L 48,32 L 47,33 L 47,34 L 46,35 L 46,36 L 44,38 L 41,38 L 40,39 L 39,39 L 37,37 L 36,38 L 35,38 L 34,39 L 32,39 L 31,40 L 30,40 L 30,45 L 28,47 L 28,49 L 27,50 L 27,51 L 28,52 L 28,57 L 26,59 L 26,60 L 25,61 L 25,62 L 27,64 L 27,66 L 28,67 L 28,68 L 27,69 L 27,70 L 28,70 L 31,73 L 33,73 L 37,69 L 38,69 L 39,68 L 40,68 L 41,67 L 43,67 L 44,66 L 54,66 L 55,65 L 58,65 L 60,63 L 60,61 L 57,58 L 57,56 L 58,55 L 59,55 L 60,54 L 62,54 L 63,53 L 73,53 L 74,54 L 75,54 L 75,52 L 77,50 L 77,49 L 76,48 L 76,47 L 75,46 L 75,43 L 74,42 L 72,42 L 71,41 L 70,41 L 68,39 L 68,37 L 67,36 L 66,36 L 65,35 L 64,35 L 62,33 L 61,34 L 56,34 L 55,33 L 54,33 L 53,32 L 52,32 L 50,30 Z" fill="none" stroke="black" stroke-width="1"/>
</svg>