<svg xmlns="http://www.w3.org/2000/svg" width="104" height="94">
  <path d="M 63,54 L 62,55 L 60,55 L 59,56 L 58,56 L 58,58 L 61,61 L 61,63 L 58,66 L 55,66 L 54,67 L 44,67 L 43,68 L 41,68 L 40,69 L 39,69 L 38,70 L 37,70 L 34,73 L 34,74 L 35,75 L 36,75 L 38,77 L 40,77 L 41,78 L 42,78 L 43,79 L 45,79 L 46,80 L 47,80 L 49,82 L 50,82 L 51,83 L 52,83 L 53,82 L 56,82 L 57,81 L 62,81 L 63,82 L 64,81 L 64,80 L 66,78 L 67,78 L 70,75 L 72,75 L 73,74 L 74,74 L 75,73 L 75,72 L 78,69 L 78,67 L 80,65 L 80,63 L 78,61 L 78,58 L 77,57 L 77,56 L 76,56 L 75,55 L 74,55 L 73,54 Z" fill="none" stroke="black" stroke-width="1"/>
</svg>