<svg xmlns="http://www.w3.org/2000/svg" width="95" height="66">
  <path d="M 75,1 L 74,2 L 71,2 L 70,3 L 68,3 L 67,4 L 62,4 L 61,5 L 50,5 L 50,8 L 48,10 L 47,10 L 45,12 L 45,13 L 48,16 L 48,17 L 49,18 L 49,22 L 48,23 L 48,24 L 47,25 L 46,25 L 45,26 L 39,26 L 39,27 L 38,28 L 38,29 L 39,30 L 39,31 L 40,31 L 41,32 L 48,32 L 49,31 L 50,31 L 51,32 L 58,32 L 59,31 L 59,30 L 60,29 L 63,29 L 64,30 L 66,30 L 67,31 L 68,31 L 71,28 L 71,27 L 72,26 L 73,26 L 73,23 L 72,22 L 72,18 L 73,17 L 75,17 L 76,16 L 81,16 L 82,17 L 83,17 L 84,18 L 84,19 L 87,16 L 87,15 L 86,14 L 86,13 L 85,12 L 85,11 L 84,10 L 84,8 L 86,6 L 91,6 L 91,5 L 93,3 L 94,3 L 94,2 L 93,2 L 92,1 Z" fill="none" stroke="black" stroke-width="1"/>
</svg>