<svg xmlns="http://www.w3.org/2000/svg" width="69" height="68">
  <path d="M 33,26 L 32,27 L 31,27 L 29,29 L 27,29 L 25,31 L 24,31 L 24,33 L 25,34 L 25,36 L 24,37 L 24,38 L 23,39 L 22,39 L 23,40 L 23,42 L 28,42 L 30,44 L 30,45 L 31,46 L 31,47 L 32,48 L 33,48 L 34,49 L 34,52 L 35,53 L 35,54 L 36,55 L 36,56 L 37,57 L 37,58 L 39,60 L 39,61 L 42,64 L 44,64 L 44,62 L 45,61 L 45,60 L 44,59 L 44,57 L 45,56 L 45,52 L 44,51 L 44,48 L 43,47 L 43,36 L 42,35 L 42,33 L 43,32 L 42,31 L 43,30 L 43,29 L 42,29 L 41,28 L 41,27 L 36,27 L 35,26 Z" fill="none" stroke="black" stroke-width="1"/>
</svg>