<svg xmlns="http://www.w3.org/2000/svg" width="55" height="98">
  <path d="M 22,51 L 21,52 L 21,53 L 20,54 L 20,55 L 18,57 L 18,60 L 17,61 L 17,63 L 16,64 L 14,64 L 13,65 L 12,65 L 10,67 L 9,67 L 9,68 L 7,70 L 8,71 L 8,72 L 10,74 L 10,82 L 8,84 L 8,86 L 6,88 L 6,97 L 7,97 L 8,96 L 11,96 L 13,94 L 14,94 L 15,95 L 15,96 L 24,96 L 25,95 L 25,92 L 27,90 L 29,90 L 29,87 L 28,86 L 28,81 L 29,80 L 29,79 L 30,78 L 30,75 L 31,74 L 31,72 L 36,67 L 36,65 L 34,63 L 35,62 L 35,60 L 34,59 L 34,58 L 33,58 L 31,56 L 30,56 L 29,55 L 28,55 L 26,53 L 25,53 L 23,51 Z" fill="none" stroke="black" stroke-width="1"/>
</svg>