<svg xmlns="http://www.w3.org/2000/svg" width="100" height="102">
  <path d="M 42,55 L 41,56 L 40,56 L 34,62 L 30,62 L 29,61 L 28,62 L 27,62 L 22,67 L 21,67 L 20,68 L 18,68 L 17,69 L 13,69 L 10,66 L 8,66 L 7,65 L 3,69 L 3,71 L 2,72 L 2,75 L 1,76 L 1,77 L 0,78 L 0,83 L 1,84 L 1,87 L 7,87 L 8,86 L 12,86 L 13,85 L 14,85 L 15,86 L 26,86 L 27,85 L 30,85 L 31,86 L 37,86 L 38,85 L 39,85 L 41,83 L 41,82 L 43,80 L 43,79 L 44,78 L 44,75 L 45,74 L 45,73 L 47,71 L 47,70 L 49,68 L 49,62 L 48,61 L 48,58 L 47,57 L 46,57 L 45,56 L 43,56 Z" fill="none" stroke="black" stroke-width="1"/>
</svg>