<svg xmlns="http://www.w3.org/2000/svg" width="102" height="95">
  <path d="M 17,44 L 16,45 L 15,45 L 14,46 L 13,46 L 12,47 L 12,48 L 11,49 L 11,50 L 9,52 L 6,52 L 4,54 L 4,55 L 1,58 L 0,58 L 0,60 L 1,61 L 1,62 L 3,64 L 3,65 L 4,66 L 7,66 L 8,67 L 8,78 L 9,79 L 9,80 L 10,81 L 10,84 L 11,85 L 11,88 L 12,89 L 13,89 L 14,90 L 14,91 L 17,91 L 18,92 L 19,92 L 21,94 L 23,94 L 24,93 L 27,93 L 28,92 L 28,89 L 29,88 L 29,87 L 30,86 L 30,84 L 31,83 L 31,80 L 32,79 L 32,76 L 33,75 L 33,74 L 32,74 L 29,71 L 29,70 L 28,69 L 28,64 L 23,59 L 23,57 L 22,56 L 22,54 L 21,53 L 21,51 L 20,50 L 20,47 L 21,46 L 19,44 Z" fill="none" stroke="black" stroke-width="1"/>
</svg>