<svg xmlns="http://www.w3.org/2000/svg" width="80" height="97">
  <path d="M 17,63 L 15,65 L 9,65 L 8,66 L 7,66 L 7,68 L 6,69 L 5,69 L 5,70 L 4,71 L 4,74 L 3,75 L 3,78 L 2,79 L 2,81 L 1,82 L 1,83 L 0,84 L 0,86 L 6,86 L 11,91 L 11,92 L 12,92 L 13,93 L 13,95 L 17,95 L 18,96 L 22,96 L 22,94 L 23,93 L 22,93 L 21,92 L 23,90 L 24,91 L 25,91 L 26,92 L 26,93 L 26,91 L 27,90 L 27,87 L 28,86 L 29,86 L 30,87 L 30,88 L 31,87 L 32,87 L 33,86 L 30,83 L 30,82 L 31,81 L 33,83 L 34,83 L 33,82 L 34,81 L 35,81 L 36,82 L 37,81 L 38,82 L 38,83 L 39,83 L 40,82 L 41,83 L 41,82 L 42,81 L 43,82 L 44,81 L 45,81 L 45,78 L 43,76 L 43,73 L 42,73 L 41,72 L 40,72 L 37,69 L 36,69 L 35,68 L 34,68 L 33,67 L 32,67 L 31,66 L 29,66 L 28,65 L 25,65 L 24,64 L 21,64 L 20,63 Z" fill="none" stroke="black" stroke-width="1"/>
</svg>