<svg xmlns="http://www.w3.org/2000/svg" width="100" height="102">
  <path d="M 65,10 L 63,12 L 61,12 L 60,13 L 58,13 L 57,14 L 56,14 L 56,16 L 54,18 L 54,25 L 53,26 L 53,28 L 52,29 L 52,31 L 53,32 L 53,35 L 51,37 L 52,38 L 52,39 L 53,40 L 53,43 L 54,44 L 54,46 L 53,47 L 53,51 L 52,52 L 53,52 L 54,53 L 55,53 L 57,55 L 58,55 L 59,56 L 60,56 L 62,58 L 63,58 L 64,59 L 75,59 L 76,58 L 83,58 L 83,56 L 86,53 L 88,53 L 90,51 L 91,51 L 92,50 L 93,50 L 98,45 L 98,44 L 99,43 L 99,32 L 98,31 L 98,26 L 95,23 L 94,23 L 93,22 L 92,22 L 91,21 L 91,20 L 90,19 L 89,19 L 87,17 L 86,17 L 83,14 L 82,14 L 81,13 L 76,13 L 75,12 L 68,12 L 67,11 L 66,11 Z" fill="none" stroke="black" stroke-width="1"/>
</svg>