<svg xmlns="http://www.w3.org/2000/svg" width="119" height="71">
  <path d="M 75,14 L 74,15 L 72,15 L 72,16 L 71,17 L 69,17 L 68,18 L 67,18 L 64,21 L 64,22 L 60,26 L 59,26 L 57,28 L 57,32 L 61,32 L 62,33 L 64,33 L 65,34 L 68,34 L 69,35 L 73,35 L 74,36 L 84,36 L 85,37 L 85,38 L 88,38 L 89,37 L 92,37 L 95,34 L 96,34 L 96,33 L 101,28 L 101,27 L 106,22 L 107,22 L 108,21 L 113,21 L 114,20 L 115,20 L 116,19 L 118,19 L 118,18 L 115,15 L 115,14 L 114,14 L 113,15 L 111,15 L 110,16 L 105,16 L 104,17 L 97,17 L 96,18 L 95,18 L 93,16 L 87,16 L 86,15 L 84,17 L 81,17 L 80,16 L 78,16 L 76,14 Z" fill="none" stroke="black" stroke-width="1"/>
</svg>