<svg xmlns="http://www.w3.org/2000/svg" width="102" height="95">
  <path d="M 72,15 L 71,16 L 64,16 L 61,19 L 58,19 L 57,20 L 56,20 L 56,21 L 51,26 L 51,30 L 50,31 L 50,33 L 51,34 L 51,35 L 49,37 L 46,37 L 46,38 L 49,41 L 51,41 L 52,42 L 55,42 L 56,43 L 58,43 L 59,44 L 60,44 L 61,45 L 64,45 L 64,44 L 67,41 L 69,41 L 70,40 L 75,40 L 76,39 L 79,39 L 80,38 L 81,38 L 82,37 L 83,37 L 84,36 L 84,35 L 85,34 L 85,29 L 86,28 L 86,25 L 84,25 L 83,24 L 83,22 L 82,21 L 82,20 L 81,19 L 80,19 L 79,18 L 78,18 L 77,17 L 74,17 Z" fill="none" stroke="black" stroke-width="1"/>
</svg>