<svg xmlns="http://www.w3.org/2000/svg" width="80" height="97">
  <path d="M 32,50 L 29,53 L 28,53 L 28,54 L 26,56 L 22,56 L 20,58 L 19,58 L 19,62 L 20,62 L 21,63 L 24,63 L 25,64 L 28,64 L 29,65 L 31,65 L 32,66 L 33,66 L 34,67 L 35,67 L 36,68 L 37,68 L 40,71 L 41,71 L 42,72 L 43,72 L 44,73 L 44,76 L 46,78 L 46,81 L 48,79 L 49,79 L 51,77 L 52,77 L 53,76 L 53,75 L 57,71 L 57,69 L 55,67 L 55,65 L 56,64 L 57,64 L 58,63 L 60,63 L 61,64 L 61,67 L 62,66 L 63,66 L 64,67 L 65,67 L 66,66 L 68,66 L 68,64 L 66,62 L 66,61 L 65,61 L 62,58 L 51,58 L 50,57 L 49,57 L 48,56 L 47,56 L 46,55 L 44,55 L 42,53 L 41,53 L 38,50 Z" fill="none" stroke="black" stroke-width="1"/>
</svg>