<svg xmlns="http://www.w3.org/2000/svg" width="74" height="100">
  <path d="M 28,65 L 27,66 L 27,68 L 28,69 L 28,71 L 26,73 L 26,74 L 24,76 L 24,77 L 23,78 L 23,79 L 21,81 L 20,81 L 19,82 L 19,84 L 18,85 L 17,85 L 17,86 L 18,87 L 18,89 L 20,91 L 21,91 L 26,96 L 27,96 L 29,98 L 35,98 L 36,99 L 40,99 L 41,98 L 43,98 L 44,97 L 46,97 L 48,95 L 49,96 L 50,96 L 51,97 L 58,97 L 59,98 L 63,98 L 63,97 L 66,94 L 66,93 L 67,92 L 69,92 L 68,91 L 68,87 L 69,86 L 69,78 L 70,77 L 70,72 L 69,72 L 67,70 L 65,70 L 63,72 L 63,73 L 62,74 L 57,74 L 56,73 L 52,73 L 51,72 L 48,72 L 47,71 L 44,71 L 43,70 L 42,70 L 40,68 L 39,68 L 38,69 L 31,69 L 29,67 L 30,66 L 30,65 Z" fill="none" stroke="black" stroke-width="1"/>
</svg>