<svg xmlns="http://www.w3.org/2000/svg" width="103" height="72">
  <path d="M 36,26 L 35,27 L 32,27 L 31,28 L 26,28 L 25,29 L 22,29 L 21,30 L 20,30 L 19,31 L 18,31 L 17,32 L 15,32 L 10,37 L 10,38 L 9,39 L 8,39 L 7,40 L 6,40 L 6,44 L 5,45 L 5,50 L 4,51 L 4,59 L 3,60 L 3,64 L 6,64 L 7,65 L 10,65 L 13,62 L 14,62 L 15,61 L 20,61 L 21,62 L 24,62 L 25,61 L 27,61 L 28,60 L 30,60 L 31,59 L 35,59 L 36,60 L 39,60 L 40,61 L 46,61 L 47,60 L 48,60 L 49,59 L 54,59 L 55,60 L 56,60 L 57,59 L 58,59 L 59,60 L 59,61 L 64,61 L 64,59 L 66,57 L 66,56 L 65,55 L 65,45 L 64,44 L 63,44 L 59,40 L 59,36 L 58,35 L 57,35 L 55,33 L 55,32 L 52,29 L 48,29 L 46,27 L 45,27 L 44,26 Z" fill="none" stroke="black" stroke-width="1"/>
</svg>