<svg xmlns="http://www.w3.org/2000/svg" width="107" height="59">
  <path d="M 33,0 L 32,1 L 30,1 L 29,2 L 27,2 L 26,3 L 23,3 L 22,2 L 17,2 L 16,3 L 15,3 L 12,6 L 9,6 L 8,5 L 6,5 L 5,6 L 3,6 L 3,7 L 0,10 L 0,11 L 1,12 L 2,12 L 5,15 L 6,15 L 8,17 L 9,17 L 11,19 L 11,20 L 12,20 L 13,21 L 14,21 L 18,25 L 18,30 L 19,31 L 19,34 L 20,33 L 22,33 L 23,32 L 30,32 L 32,30 L 41,30 L 42,29 L 43,29 L 44,28 L 45,28 L 46,27 L 47,27 L 48,26 L 52,26 L 53,25 L 55,25 L 56,24 L 58,24 L 60,22 L 60,21 L 62,19 L 62,18 L 64,16 L 64,14 L 66,12 L 69,12 L 70,11 L 70,9 L 71,8 L 71,7 L 72,6 L 71,6 L 70,5 L 69,5 L 66,2 L 61,2 L 60,1 L 60,0 L 59,0 L 58,1 L 57,1 L 56,0 L 51,0 L 50,1 L 49,1 L 48,2 L 42,2 L 41,1 L 38,1 L 37,0 Z" fill="none" stroke="black" stroke-width="1"/>
</svg>