<svg xmlns="http://www.w3.org/2000/svg" width="107" height="59">
  <path d="M 56,25 L 55,26 L 53,26 L 52,27 L 48,27 L 47,28 L 46,28 L 45,29 L 44,29 L 43,30 L 42,30 L 41,31 L 32,31 L 30,33 L 23,33 L 22,34 L 20,34 L 19,35 L 19,40 L 20,41 L 20,42 L 21,42 L 22,43 L 22,45 L 31,45 L 32,46 L 33,46 L 34,47 L 34,49 L 40,49 L 41,50 L 42,50 L 43,51 L 51,51 L 53,53 L 53,52 L 54,51 L 54,50 L 56,48 L 60,48 L 61,47 L 63,47 L 65,45 L 66,45 L 66,44 L 68,42 L 68,40 L 70,38 L 71,38 L 71,36 L 70,35 L 69,35 L 66,32 L 64,32 L 63,31 L 62,31 L 58,27 L 58,26 L 57,25 Z" fill="none" stroke="black" stroke-width="1"/>
</svg>