<svg xmlns="http://www.w3.org/2000/svg" width="75" height="65">
  <path d="M 25,35 L 25,37 L 28,40 L 28,41 L 30,43 L 30,44 L 36,50 L 36,51 L 37,52 L 37,56 L 38,56 L 40,58 L 41,58 L 42,59 L 42,60 L 41,61 L 40,60 L 39,60 L 40,61 L 41,61 L 42,62 L 43,61 L 44,62 L 45,62 L 46,63 L 48,63 L 51,60 L 54,60 L 56,62 L 56,64 L 58,62 L 58,58 L 59,57 L 61,57 L 65,61 L 67,61 L 69,63 L 69,64 L 73,64 L 74,63 L 74,62 L 72,60 L 69,60 L 68,59 L 67,59 L 65,57 L 64,57 L 63,56 L 63,55 L 67,51 L 69,51 L 69,49 L 68,48 L 68,47 L 66,49 L 66,50 L 65,51 L 64,51 L 63,50 L 62,50 L 61,49 L 61,48 L 62,47 L 63,47 L 60,47 L 59,48 L 52,48 L 51,49 L 45,49 L 44,48 L 43,48 L 40,45 L 40,44 L 39,43 L 39,42 L 38,42 L 35,39 L 34,39 L 32,37 L 31,37 L 29,35 Z" fill="none" stroke="black" stroke-width="1"/>
</svg>