<svg xmlns="http://www.w3.org/2000/svg" width="62" height="96">
  <path d="M 17,34 L 13,38 L 12,38 L 11,39 L 11,41 L 10,42 L 10,43 L 8,45 L 8,47 L 4,51 L 4,53 L 3,54 L 3,55 L 2,56 L 0,56 L 2,58 L 3,58 L 4,59 L 4,61 L 5,62 L 5,69 L 6,70 L 7,70 L 9,68 L 16,68 L 17,69 L 23,69 L 24,68 L 25,68 L 27,66 L 27,63 L 26,62 L 26,61 L 27,60 L 27,58 L 25,56 L 25,54 L 26,53 L 26,52 L 27,51 L 25,51 L 24,50 L 25,49 L 25,47 L 21,43 L 21,42 L 20,41 L 20,35 L 19,34 Z" fill="none" stroke="black" stroke-width="1"/>
</svg>