<svg xmlns="http://www.w3.org/2000/svg" width="62" height="96">
  <path d="M 46,38 L 46,39 L 43,42 L 42,42 L 41,43 L 40,43 L 39,44 L 35,44 L 34,45 L 33,45 L 32,44 L 30,44 L 30,46 L 29,47 L 29,48 L 28,49 L 28,51 L 27,52 L 27,53 L 26,54 L 26,56 L 28,58 L 28,60 L 27,61 L 27,62 L 28,63 L 28,67 L 29,68 L 30,68 L 30,67 L 31,66 L 32,66 L 33,65 L 37,65 L 38,64 L 41,64 L 42,63 L 43,63 L 44,62 L 44,52 L 45,51 L 45,50 L 46,49 L 47,49 L 49,47 L 50,47 L 50,46 L 52,44 L 52,38 Z" fill="none" stroke="black" stroke-width="1"/>
</svg>