<svg xmlns="http://www.w3.org/2000/svg" width="107" height="59">
  <path d="M 87,34 L 86,35 L 83,35 L 82,36 L 79,36 L 78,37 L 77,36 L 72,36 L 72,38 L 71,39 L 70,39 L 69,40 L 69,42 L 67,44 L 67,45 L 66,46 L 65,46 L 63,48 L 61,48 L 60,49 L 56,49 L 55,50 L 55,51 L 54,52 L 54,53 L 55,54 L 55,55 L 57,55 L 58,54 L 59,54 L 61,56 L 63,56 L 64,57 L 67,57 L 69,55 L 70,56 L 76,56 L 78,58 L 79,58 L 80,57 L 87,57 L 88,56 L 93,56 L 94,55 L 96,55 L 97,54 L 98,54 L 99,53 L 100,53 L 100,50 L 101,49 L 101,47 L 102,46 L 101,45 L 101,43 L 103,41 L 102,40 L 102,38 L 101,38 L 98,35 L 97,35 L 96,34 Z" fill="none" stroke="black" stroke-width="1"/>
</svg>