<svg xmlns="http://www.w3.org/2000/svg" width="62" height="96">
  <path d="M 31,16 L 28,19 L 28,20 L 25,23 L 24,23 L 23,24 L 23,25 L 22,26 L 21,26 L 21,27 L 19,29 L 19,32 L 20,33 L 20,34 L 21,35 L 21,41 L 22,42 L 22,43 L 26,47 L 26,49 L 25,50 L 27,50 L 27,49 L 28,48 L 28,47 L 29,46 L 29,44 L 30,43 L 32,43 L 33,44 L 34,44 L 35,43 L 39,43 L 40,42 L 41,42 L 42,41 L 43,41 L 45,39 L 45,38 L 46,37 L 47,37 L 47,36 L 46,35 L 46,34 L 45,33 L 45,31 L 44,30 L 44,27 L 43,27 L 41,25 L 41,24 L 38,21 L 38,20 L 36,18 L 35,18 L 33,16 Z" fill="none" stroke="black" stroke-width="1"/>
</svg>