<svg xmlns="http://www.w3.org/2000/svg" width="103" height="72">
  <path d="M 85,0 L 80,5 L 76,5 L 75,6 L 74,6 L 73,7 L 70,7 L 69,8 L 68,8 L 67,9 L 65,9 L 64,10 L 62,10 L 59,13 L 59,14 L 58,15 L 58,20 L 57,21 L 57,22 L 54,25 L 54,26 L 53,27 L 53,29 L 56,32 L 56,33 L 57,34 L 58,34 L 60,36 L 60,40 L 63,43 L 64,43 L 65,44 L 66,44 L 67,43 L 67,42 L 71,38 L 71,36 L 75,32 L 77,32 L 78,31 L 80,31 L 81,30 L 83,30 L 84,29 L 85,29 L 86,28 L 87,29 L 89,29 L 90,28 L 96,28 L 96,27 L 97,26 L 98,26 L 98,25 L 100,23 L 100,22 L 98,20 L 98,17 L 99,16 L 98,16 L 96,14 L 96,9 L 93,6 L 93,5 L 91,3 L 89,3 L 87,1 L 86,1 Z" fill="none" stroke="black" stroke-width="1"/>
</svg>