<svg xmlns="http://www.w3.org/2000/svg" width="68" height="99">
  <path d="M 39,16 L 38,17 L 39,18 L 39,19 L 36,22 L 35,22 L 34,23 L 33,23 L 32,24 L 30,24 L 28,26 L 28,27 L 29,28 L 29,32 L 27,34 L 26,34 L 25,35 L 23,35 L 22,36 L 21,36 L 20,37 L 19,37 L 17,39 L 16,39 L 16,41 L 17,41 L 19,43 L 19,44 L 20,44 L 21,43 L 23,43 L 25,41 L 31,41 L 32,42 L 39,42 L 40,43 L 44,43 L 45,44 L 47,44 L 48,45 L 51,45 L 52,46 L 53,46 L 54,45 L 55,45 L 56,44 L 57,44 L 59,42 L 62,42 L 63,43 L 65,43 L 67,45 L 67,42 L 64,39 L 64,37 L 63,36 L 63,34 L 62,33 L 62,32 L 59,29 L 59,28 L 58,27 L 58,25 L 54,21 L 51,21 L 50,20 L 49,20 L 47,18 L 45,18 L 44,17 L 42,17 L 41,16 Z" fill="none" stroke="black" stroke-width="1"/>
</svg>