<svg xmlns="http://www.w3.org/2000/svg" width="105" height="94">
  <path d="M 70,19 L 70,20 L 69,21 L 69,23 L 68,24 L 68,26 L 65,29 L 65,32 L 64,33 L 62,33 L 61,34 L 60,34 L 59,35 L 58,35 L 57,36 L 55,36 L 54,37 L 52,37 L 52,42 L 53,43 L 53,45 L 54,46 L 54,48 L 56,48 L 57,49 L 59,49 L 61,51 L 62,51 L 63,52 L 66,52 L 70,56 L 72,56 L 73,55 L 73,53 L 74,52 L 75,52 L 76,53 L 77,53 L 78,52 L 80,52 L 81,51 L 81,50 L 84,47 L 84,41 L 86,39 L 86,33 L 84,33 L 83,32 L 80,32 L 79,31 L 79,30 L 77,28 L 77,25 L 76,25 L 73,22 L 73,21 L 71,19 Z" fill="none" stroke="black" stroke-width="1"/>
</svg>