<svg xmlns="http://www.w3.org/2000/svg" width="189" height="217">
  <path d="M 90,131 L 90,132 L 89,133 L 88,133 L 85,136 L 85,140 L 86,141 L 88,141 L 89,142 L 89,143 L 90,144 L 90,145 L 91,146 L 91,150 L 92,151 L 91,152 L 90,152 L 89,153 L 87,153 L 86,154 L 82,154 L 81,153 L 72,153 L 71,154 L 70,154 L 69,155 L 68,155 L 64,159 L 64,160 L 61,163 L 61,166 L 60,167 L 60,168 L 58,170 L 58,175 L 59,176 L 59,177 L 60,178 L 60,186 L 59,187 L 59,189 L 62,192 L 62,194 L 63,195 L 63,200 L 62,201 L 62,207 L 61,208 L 61,210 L 63,212 L 64,212 L 65,213 L 67,213 L 68,214 L 68,215 L 69,215 L 70,216 L 73,216 L 74,215 L 73,214 L 74,213 L 76,213 L 77,212 L 78,212 L 79,211 L 80,211 L 81,210 L 93,210 L 94,209 L 95,209 L 95,208 L 97,206 L 100,206 L 101,205 L 101,204 L 103,202 L 103,201 L 105,199 L 106,199 L 108,197 L 105,197 L 104,196 L 103,196 L 101,194 L 101,190 L 102,189 L 106,189 L 107,190 L 108,190 L 110,188 L 114,188 L 115,187 L 118,187 L 119,186 L 120,186 L 121,185 L 122,185 L 123,184 L 124,184 L 129,179 L 130,179 L 130,176 L 129,175 L 129,174 L 128,174 L 127,173 L 125,173 L 124,172 L 123,172 L 122,171 L 122,170 L 121,169 L 121,168 L 120,167 L 120,166 L 119,165 L 119,162 L 120,161 L 119,160 L 119,159 L 118,158 L 118,155 L 116,153 L 116,152 L 115,151 L 115,150 L 107,142 L 107,141 L 105,139 L 105,135 L 104,136 L 103,135 L 101,137 L 100,137 L 99,138 L 97,138 L 95,136 L 95,135 L 94,135 L 93,134 L 93,132 L 92,132 L 91,131 Z" fill="none" stroke="black" stroke-width="1"/>
</svg>