<svg xmlns="http://www.w3.org/2000/svg" width="120" height="62">
  <path d="M 75,29 L 74,30 L 66,30 L 65,31 L 61,31 L 60,32 L 59,32 L 58,33 L 56,33 L 55,34 L 53,34 L 52,35 L 51,35 L 50,36 L 46,36 L 45,37 L 40,37 L 39,38 L 37,38 L 36,39 L 35,39 L 34,38 L 33,38 L 33,39 L 32,40 L 32,55 L 33,56 L 33,57 L 36,60 L 37,59 L 40,59 L 41,58 L 44,58 L 46,56 L 54,56 L 55,55 L 60,55 L 60,54 L 61,53 L 61,52 L 63,50 L 63,48 L 65,46 L 67,46 L 68,45 L 69,45 L 70,44 L 71,44 L 72,43 L 73,43 L 75,41 L 75,39 L 74,38 L 74,36 L 75,35 L 75,34 L 76,33 L 76,32 L 78,30 L 77,29 Z" fill="none" stroke="black" stroke-width="1"/>
</svg>