<svg xmlns="http://www.w3.org/2000/svg" width="120" height="62">
  <path d="M 80,8 L 79,9 L 78,9 L 78,14 L 80,16 L 80,17 L 81,18 L 82,18 L 87,23 L 90,23 L 94,27 L 94,28 L 95,29 L 95,31 L 96,32 L 96,33 L 97,34 L 97,36 L 100,39 L 100,40 L 103,43 L 103,44 L 104,45 L 104,51 L 105,52 L 105,53 L 104,54 L 104,56 L 103,57 L 103,59 L 104,58 L 107,58 L 108,57 L 109,57 L 110,56 L 114,56 L 118,52 L 118,49 L 119,48 L 119,46 L 118,45 L 118,43 L 117,42 L 117,31 L 116,30 L 116,28 L 115,27 L 115,26 L 114,26 L 113,25 L 113,23 L 114,22 L 114,19 L 112,17 L 112,16 L 111,15 L 111,14 L 110,15 L 107,15 L 106,14 L 105,14 L 104,13 L 102,13 L 101,12 L 95,12 L 94,13 L 89,13 L 88,14 L 87,14 L 86,13 L 86,11 L 85,10 L 84,10 L 82,8 Z" fill="none" stroke="black" stroke-width="1"/>
</svg>