<svg xmlns="http://www.w3.org/2000/svg" width="93" height="96">
  <path d="M 71,63 L 71,64 L 68,67 L 65,67 L 64,68 L 63,68 L 61,70 L 60,70 L 59,71 L 58,71 L 55,74 L 55,76 L 54,77 L 53,77 L 52,78 L 51,78 L 48,81 L 47,81 L 46,80 L 45,81 L 43,81 L 42,82 L 38,82 L 37,83 L 36,83 L 36,84 L 35,85 L 35,86 L 34,87 L 34,89 L 33,90 L 32,90 L 31,91 L 31,92 L 32,92 L 33,93 L 37,93 L 38,94 L 38,95 L 40,95 L 41,94 L 43,94 L 45,92 L 51,92 L 52,93 L 52,94 L 53,94 L 54,93 L 56,93 L 57,92 L 63,92 L 64,91 L 71,91 L 72,90 L 75,90 L 76,89 L 77,89 L 78,88 L 79,88 L 80,87 L 91,87 L 92,86 L 89,83 L 89,78 L 87,76 L 87,75 L 86,74 L 86,73 L 85,73 L 84,72 L 83,72 L 82,71 L 81,71 L 79,69 L 78,69 L 77,68 L 77,66 L 78,65 L 77,65 L 76,64 L 75,64 L 74,63 Z" fill="none" stroke="black" stroke-width="1"/>
</svg>