<svg xmlns="http://www.w3.org/2000/svg" width="110" height="79">
  <path d="M 71,23 L 70,24 L 69,24 L 68,25 L 67,25 L 67,28 L 65,30 L 65,31 L 66,31 L 67,32 L 67,33 L 66,34 L 66,35 L 70,39 L 70,41 L 69,42 L 69,43 L 68,44 L 68,52 L 66,54 L 66,56 L 67,57 L 67,61 L 68,62 L 68,64 L 69,65 L 69,67 L 71,67 L 72,68 L 72,70 L 73,70 L 74,71 L 74,72 L 76,74 L 79,74 L 80,75 L 83,75 L 84,74 L 86,74 L 87,75 L 89,75 L 90,76 L 92,76 L 93,77 L 104,77 L 105,78 L 109,78 L 109,75 L 108,75 L 107,74 L 107,73 L 105,71 L 107,69 L 107,68 L 103,64 L 103,63 L 101,61 L 101,57 L 92,48 L 92,47 L 89,44 L 86,44 L 85,43 L 85,42 L 84,41 L 84,40 L 83,39 L 83,38 L 81,36 L 81,35 L 80,34 L 80,31 L 79,30 L 79,27 L 75,23 Z" fill="none" stroke="black" stroke-width="1"/>
</svg>