<svg xmlns="http://www.w3.org/2000/svg" width="114" height="69">
  <path d="M 68,7 L 68,8 L 67,9 L 67,12 L 68,13 L 68,18 L 71,21 L 71,22 L 72,23 L 70,25 L 70,26 L 68,28 L 68,29 L 67,30 L 67,35 L 71,35 L 72,36 L 73,36 L 75,38 L 76,38 L 78,40 L 79,40 L 81,42 L 82,42 L 83,43 L 84,43 L 86,45 L 86,46 L 89,49 L 89,50 L 92,53 L 93,53 L 94,54 L 94,55 L 95,55 L 96,56 L 99,56 L 100,57 L 101,57 L 105,61 L 106,61 L 108,63 L 108,59 L 109,58 L 109,57 L 110,56 L 110,55 L 111,54 L 113,54 L 112,54 L 109,51 L 109,50 L 110,49 L 110,45 L 109,44 L 109,43 L 108,42 L 108,40 L 107,39 L 107,33 L 106,32 L 106,31 L 105,30 L 105,25 L 104,24 L 104,16 L 103,15 L 103,13 L 102,12 L 98,12 L 97,11 L 86,11 L 85,10 L 83,10 L 82,9 L 80,9 L 79,8 L 77,8 L 76,9 L 73,9 L 72,8 L 69,8 Z" fill="none" stroke="black" stroke-width="1"/>
</svg>