<svg xmlns="http://www.w3.org/2000/svg" width="110" height="79">
  <path d="M 62,32 L 61,33 L 61,34 L 56,39 L 39,39 L 39,40 L 38,41 L 38,45 L 40,47 L 39,48 L 39,51 L 40,52 L 40,53 L 43,56 L 43,58 L 44,59 L 43,60 L 43,65 L 42,66 L 44,68 L 45,68 L 46,69 L 51,69 L 52,70 L 67,70 L 68,69 L 71,69 L 71,68 L 69,68 L 68,67 L 68,65 L 67,64 L 67,62 L 66,61 L 66,57 L 65,56 L 65,54 L 67,52 L 67,44 L 68,43 L 68,42 L 69,41 L 69,39 L 65,35 L 65,34 L 66,33 L 66,32 Z" fill="none" stroke="black" stroke-width="1"/>
</svg>