<svg xmlns="http://www.w3.org/2000/svg" width="165" height="85">
  <path d="M 89,11 L 87,13 L 85,13 L 84,14 L 83,14 L 82,15 L 81,15 L 81,17 L 82,16 L 84,16 L 84,15 L 85,14 L 86,14 L 87,13 L 89,13 L 91,11 Z" fill="none" stroke="black" stroke-width="1"/>
  <path d="M 21,0 L 21,1 L 20,2 L 19,2 L 17,4 L 16,4 L 12,8 L 12,10 L 11,11 L 11,13 L 9,15 L 8,15 L 6,17 L 5,17 L 3,19 L 3,20 L 5,22 L 5,24 L 10,24 L 11,25 L 13,25 L 14,26 L 15,26 L 16,27 L 17,27 L 19,29 L 19,30 L 20,30 L 23,33 L 23,34 L 25,36 L 25,37 L 26,37 L 27,38 L 27,39 L 28,40 L 28,42 L 29,43 L 29,44 L 30,44 L 31,45 L 33,45 L 33,44 L 32,43 L 33,42 L 34,42 L 34,41 L 35,40 L 36,40 L 37,39 L 36,38 L 36,37 L 37,36 L 38,36 L 40,34 L 41,34 L 43,32 L 44,32 L 52,24 L 53,24 L 56,21 L 57,21 L 58,20 L 59,20 L 60,19 L 62,19 L 63,18 L 65,18 L 66,17 L 68,17 L 69,16 L 70,16 L 71,15 L 72,15 L 73,14 L 75,14 L 76,13 L 76,12 L 69,12 L 67,10 L 58,10 L 55,7 L 53,7 L 52,8 L 51,8 L 49,10 L 46,10 L 45,11 L 43,11 L 41,9 L 41,7 L 38,7 L 37,6 L 29,6 L 28,5 L 28,3 L 27,3 L 24,0 Z" fill="none" stroke="black" stroke-width="1"/>
</svg>