<svg xmlns="http://www.w3.org/2000/svg" width="165" height="85">
  <path d="M 144,38 L 143,39 L 141,39 L 140,40 L 130,40 L 129,41 L 128,40 L 127,41 L 126,41 L 125,42 L 124,42 L 122,44 L 120,42 L 120,43 L 119,44 L 118,44 L 117,45 L 115,43 L 114,43 L 114,46 L 112,48 L 111,48 L 108,51 L 108,52 L 106,54 L 106,55 L 105,56 L 105,61 L 102,64 L 102,66 L 103,67 L 103,68 L 104,69 L 106,69 L 108,67 L 108,66 L 110,64 L 110,62 L 115,57 L 116,58 L 116,59 L 119,56 L 120,56 L 121,55 L 122,55 L 123,56 L 120,59 L 120,60 L 122,58 L 123,58 L 124,57 L 125,57 L 125,55 L 126,54 L 135,54 L 138,51 L 139,51 L 140,52 L 141,51 L 142,52 L 144,52 L 145,53 L 146,53 L 149,56 L 150,56 L 150,53 L 151,52 L 152,53 L 152,54 L 154,54 L 155,53 L 157,53 L 158,54 L 162,54 L 162,52 L 164,50 L 164,49 L 163,48 L 161,48 L 160,49 L 161,50 L 160,51 L 158,51 L 157,50 L 158,49 L 158,47 L 157,47 L 155,45 L 152,45 L 151,44 L 150,44 L 149,45 L 148,44 L 146,44 L 145,43 L 145,40 L 146,39 L 146,38 L 145,39 Z" fill="none" stroke="black" stroke-width="1"/>
</svg>