<svg xmlns="http://www.w3.org/2000/svg" width="80" height="76">
  <path d="M 9,32 L 6,35 L 5,35 L 4,36 L 1,36 L 1,37 L 0,38 L 0,40 L 1,40 L 3,42 L 4,42 L 5,43 L 6,43 L 7,44 L 8,44 L 9,45 L 9,46 L 10,47 L 10,48 L 12,50 L 12,55 L 15,58 L 13,60 L 13,65 L 14,66 L 14,67 L 17,70 L 18,70 L 19,71 L 20,71 L 21,72 L 22,72 L 23,73 L 26,73 L 27,72 L 29,72 L 31,70 L 33,70 L 34,69 L 36,69 L 40,65 L 40,63 L 41,62 L 41,60 L 43,58 L 43,57 L 44,56 L 43,55 L 43,49 L 41,47 L 39,47 L 38,46 L 36,46 L 35,45 L 33,45 L 32,44 L 31,44 L 30,43 L 28,43 L 25,40 L 25,38 L 24,37 L 23,37 L 21,35 L 20,35 L 19,34 L 16,34 L 15,33 L 14,33 L 13,32 Z" fill="none" stroke="black" stroke-width="1"/>
</svg>