<svg xmlns="http://www.w3.org/2000/svg" width="63" height="74">
  <path d="M 26,0 L 25,1 L 23,1 L 21,3 L 19,3 L 18,4 L 16,4 L 17,5 L 17,8 L 18,9 L 18,10 L 19,11 L 19,15 L 18,16 L 17,16 L 17,18 L 16,19 L 15,19 L 15,21 L 14,22 L 10,22 L 9,23 L 7,23 L 5,25 L 5,28 L 7,30 L 7,32 L 6,33 L 6,34 L 7,34 L 8,35 L 10,35 L 12,37 L 13,37 L 15,39 L 17,39 L 18,40 L 20,40 L 21,41 L 24,41 L 25,40 L 26,40 L 30,36 L 30,35 L 31,34 L 31,33 L 32,32 L 32,31 L 33,30 L 34,30 L 35,29 L 36,29 L 36,28 L 34,26 L 34,23 L 33,22 L 33,19 L 32,18 L 33,17 L 33,9 L 30,6 L 30,5 L 31,4 L 31,2 L 29,0 Z" fill="none" stroke="black" stroke-width="1"/>
</svg>