<svg xmlns="http://www.w3.org/2000/svg" width="63" height="74">
  <path d="M 5,35 L 5,37 L 4,38 L 2,38 L 1,39 L 1,40 L 0,41 L 0,50 L 1,51 L 1,53 L 2,54 L 2,56 L 3,56 L 6,59 L 6,60 L 8,62 L 9,62 L 10,63 L 10,66 L 12,68 L 12,69 L 15,69 L 16,70 L 18,70 L 19,71 L 19,73 L 20,72 L 21,72 L 24,69 L 25,69 L 25,68 L 26,67 L 26,65 L 25,64 L 25,63 L 24,62 L 24,61 L 23,60 L 23,59 L 22,58 L 22,52 L 21,51 L 21,42 L 20,41 L 18,41 L 17,40 L 15,40 L 13,38 L 12,38 L 10,36 L 8,36 L 7,35 Z" fill="none" stroke="black" stroke-width="1"/>
</svg>