<svg xmlns="http://www.w3.org/2000/svg" width="108" height="31">
  <path d="M 58,25 L 61,25 Z" fill="none" stroke="black" stroke-width="1"/>
  <path d="M 65,0 L 64,1 L 60,1 L 59,2 L 58,2 L 57,3 L 54,3 L 54,4 L 51,7 L 51,8 L 50,9 L 49,9 L 51,11 L 51,14 L 52,15 L 52,22 L 54,22 L 55,23 L 55,20 L 56,19 L 56,17 L 57,16 L 59,18 L 59,21 L 61,23 L 62,23 L 63,24 L 64,24 L 66,22 L 66,19 L 65,18 L 65,17 L 64,16 L 64,14 L 65,13 L 65,12 L 66,11 L 66,10 L 67,9 L 67,7 L 69,5 L 69,4 L 71,2 L 67,2 Z" fill="none" stroke="black" stroke-width="1"/>
</svg>