<svg xmlns="http://www.w3.org/2000/svg" width="63" height="66">
  <path d="M 53,22 L 52,23 L 51,23 L 49,25 L 47,25 L 45,27 L 45,28 L 43,30 L 43,32 L 42,33 L 40,33 L 40,34 L 38,36 L 38,39 L 39,40 L 40,40 L 42,42 L 42,43 L 41,44 L 41,45 L 40,46 L 40,52 L 41,52 L 42,53 L 42,54 L 45,57 L 45,60 L 47,62 L 46,63 L 45,63 L 45,64 L 46,65 L 55,65 L 57,63 L 57,59 L 58,58 L 57,57 L 57,56 L 56,55 L 56,50 L 62,44 L 61,43 L 61,42 L 59,42 L 58,41 L 58,39 L 57,38 L 57,30 L 56,29 L 56,23 L 55,22 Z" fill="none" stroke="black" stroke-width="1"/>
</svg>