<svg xmlns="http://www.w3.org/2000/svg" width="44" height="75">
  <path d="M 20,22 L 19,23 L 19,24 L 21,26 L 20,27 L 20,29 L 21,30 L 21,31 L 22,32 L 22,33 L 23,34 L 23,35 L 24,35 L 25,36 L 25,35 L 26,34 L 30,38 L 29,39 L 29,42 L 30,42 L 34,46 L 35,46 L 36,47 L 40,47 L 41,48 L 43,48 L 43,43 L 42,42 L 42,40 L 41,40 L 40,39 L 41,38 L 40,38 L 39,37 L 40,36 L 40,35 L 39,36 L 38,35 L 38,33 L 39,32 L 38,31 L 38,29 L 37,29 L 36,28 L 36,27 L 35,26 L 36,25 L 35,25 L 34,24 L 35,23 L 35,22 L 34,22 L 33,23 L 28,23 L 27,24 L 26,23 L 22,23 L 21,22 Z" fill="none" stroke="black" stroke-width="1"/>
</svg>