<svg xmlns="http://www.w3.org/2000/svg" width="45" height="78">
  <path d="M 7,23 L 7,24 L 5,26 L 5,32 L 6,33 L 6,41 L 7,42 L 7,44 L 9,44 L 10,45 L 10,46 L 11,47 L 5,53 L 5,58 L 6,59 L 6,60 L 7,61 L 6,62 L 6,64 L 7,63 L 8,63 L 9,62 L 12,62 L 14,60 L 15,60 L 16,59 L 20,59 L 20,55 L 21,54 L 19,52 L 19,45 L 20,44 L 20,43 L 21,42 L 21,39 L 22,38 L 22,35 L 23,34 L 23,32 L 22,31 L 22,28 L 21,27 L 21,23 L 20,24 L 18,24 L 17,23 L 14,23 L 13,24 L 11,24 L 10,25 L 8,23 Z" fill="none" stroke="black" stroke-width="1"/>
</svg>