<svg xmlns="http://www.w3.org/2000/svg" width="53" height="39">
  <path d="M 23,0 L 22,1 L 22,5 L 23,6 L 23,7 L 24,8 L 24,13 L 25,14 L 25,17 L 26,17 L 31,22 L 31,23 L 32,24 L 32,26 L 33,26 L 34,27 L 36,27 L 38,29 L 41,29 L 42,28 L 43,28 L 44,27 L 45,27 L 46,26 L 47,26 L 48,25 L 48,24 L 49,23 L 48,22 L 48,21 L 50,19 L 50,18 L 51,17 L 51,13 L 52,12 L 52,9 L 51,8 L 43,8 L 41,6 L 41,5 L 39,3 L 38,4 L 35,4 L 34,3 L 34,2 L 32,2 L 31,1 L 29,1 L 28,0 Z" fill="none" stroke="black" stroke-width="1"/>
</svg>