<svg xmlns="http://www.w3.org/2000/svg" width="54" height="49">
  <path d="M 22,14 L 22,16 L 23,17 L 23,18 L 20,21 L 16,21 L 13,24 L 13,26 L 14,26 L 17,29 L 17,30 L 19,32 L 21,32 L 22,33 L 23,33 L 24,34 L 24,36 L 25,35 L 26,35 L 27,34 L 29,34 L 30,33 L 31,33 L 32,32 L 34,32 L 35,33 L 37,33 L 37,32 L 39,30 L 38,30 L 37,29 L 38,28 L 37,28 L 36,29 L 35,29 L 34,30 L 31,30 L 28,27 L 29,26 L 30,26 L 32,28 L 33,27 L 34,27 L 35,26 L 36,26 L 35,26 L 34,25 L 35,24 L 37,24 L 37,23 L 34,23 L 33,22 L 31,22 L 29,20 L 30,19 L 31,19 L 32,20 L 35,20 L 35,17 L 34,16 L 28,16 L 27,15 L 24,15 L 23,14 Z" fill="none" stroke="black" stroke-width="1"/>
</svg>