<svg xmlns="http://www.w3.org/2000/svg" width="75" height="43">
  <path d="M 62,0 L 61,1 L 58,1 L 58,5 L 57,6 L 56,6 L 55,7 L 52,7 L 51,6 L 51,3 L 50,3 L 50,4 L 46,8 L 45,8 L 44,7 L 40,7 L 38,9 L 37,9 L 36,8 L 31,8 L 30,9 L 29,8 L 28,9 L 26,9 L 25,10 L 27,10 L 30,13 L 30,16 L 31,17 L 31,18 L 33,18 L 35,20 L 36,20 L 37,21 L 38,21 L 39,22 L 40,22 L 41,23 L 44,23 L 45,22 L 46,22 L 47,21 L 52,21 L 53,22 L 56,22 L 57,21 L 60,21 L 62,19 L 62,17 L 63,16 L 66,16 L 67,15 L 68,15 L 70,13 L 70,12 L 72,10 L 74,10 L 74,8 L 71,5 L 70,5 L 68,3 L 67,3 L 66,2 L 63,2 L 62,1 Z" fill="none" stroke="black" stroke-width="1"/>
</svg>