<svg xmlns="http://www.w3.org/2000/svg" width="69" height="51">
  <path d="M 27,25 L 26,26 L 24,26 L 23,27 L 23,28 L 20,31 L 19,31 L 18,32 L 15,32 L 15,34 L 12,37 L 9,37 L 8,38 L 7,38 L 7,40 L 0,47 L 0,49 L 2,49 L 3,50 L 8,50 L 9,49 L 13,49 L 14,48 L 15,48 L 16,47 L 22,47 L 23,46 L 28,46 L 29,45 L 32,45 L 33,44 L 37,44 L 38,43 L 39,43 L 40,44 L 41,44 L 42,43 L 47,43 L 47,42 L 48,41 L 49,41 L 49,39 L 45,35 L 44,35 L 43,34 L 42,34 L 40,32 L 40,31 L 38,29 L 38,28 L 36,28 L 35,27 L 34,27 L 33,26 L 32,26 L 31,25 L 30,26 L 29,25 Z" fill="none" stroke="black" stroke-width="1"/>
</svg>