<svg xmlns="http://www.w3.org/2000/svg" width="56" height="83">
  <path d="M 10,9 L 10,10 L 9,11 L 9,16 L 10,17 L 10,18 L 11,19 L 11,24 L 9,26 L 10,26 L 11,27 L 11,33 L 10,34 L 10,40 L 9,41 L 9,42 L 8,43 L 8,44 L 9,45 L 7,47 L 7,50 L 9,50 L 10,49 L 12,49 L 13,48 L 14,48 L 15,47 L 16,47 L 19,44 L 19,43 L 21,41 L 21,40 L 25,36 L 25,35 L 28,32 L 28,30 L 29,29 L 29,28 L 30,27 L 30,24 L 25,19 L 24,19 L 21,16 L 20,16 L 19,15 L 19,13 L 18,12 L 18,11 L 16,9 Z" fill="none" stroke="black" stroke-width="1"/>
</svg>