<svg xmlns="http://www.w3.org/2000/svg" width="56" height="83">
  <path d="M 51,15 L 50,16 L 48,16 L 47,17 L 46,17 L 45,18 L 44,18 L 40,22 L 40,23 L 38,25 L 31,25 L 31,27 L 30,28 L 30,29 L 29,30 L 29,32 L 26,35 L 26,36 L 22,40 L 22,41 L 21,42 L 21,43 L 22,43 L 23,44 L 23,47 L 24,48 L 24,50 L 25,51 L 25,52 L 28,55 L 28,56 L 29,57 L 29,58 L 31,58 L 32,57 L 32,56 L 35,53 L 35,49 L 38,46 L 39,46 L 41,44 L 42,44 L 44,42 L 45,42 L 46,41 L 48,41 L 50,39 L 50,38 L 51,37 L 51,34 L 53,32 L 53,29 L 51,27 L 51,23 L 52,22 L 52,15 Z" fill="none" stroke="black" stroke-width="1"/>
</svg>