<svg xmlns="http://www.w3.org/2000/svg" width="65" height="76">
  <path d="M 50,53 L 49,54 L 47,54 L 46,55 L 45,55 L 44,56 L 38,56 L 38,57 L 37,58 L 34,58 L 32,60 L 32,61 L 28,65 L 29,66 L 29,68 L 28,69 L 29,70 L 30,70 L 31,71 L 32,71 L 33,72 L 33,73 L 34,72 L 37,72 L 38,73 L 40,73 L 41,74 L 42,74 L 43,75 L 48,75 L 48,74 L 50,72 L 51,72 L 51,71 L 52,70 L 54,70 L 54,66 L 55,65 L 56,65 L 56,62 L 57,61 L 58,61 L 57,60 L 58,59 L 60,59 L 61,60 L 60,61 L 61,62 L 61,61 L 62,60 L 63,60 L 64,61 L 64,53 Z" fill="none" stroke="black" stroke-width="1"/>
</svg>