<svg xmlns="http://www.w3.org/2000/svg" width="65" height="76">
  <path d="M 8,13 L 8,14 L 7,15 L 6,15 L 7,15 L 9,13 Z" fill="none" stroke="black" stroke-width="1"/>
  <path d="M 31,0 L 31,1 L 30,2 L 25,2 L 22,5 L 23,6 L 23,7 L 24,7 L 25,8 L 24,9 L 20,9 L 18,11 L 18,17 L 17,18 L 16,17 L 16,16 L 16,18 L 15,19 L 14,19 L 13,18 L 14,17 L 14,15 L 15,14 L 14,13 L 15,12 L 14,12 L 14,13 L 12,15 L 12,16 L 11,17 L 10,16 L 9,17 L 8,17 L 7,18 L 8,19 L 6,21 L 5,21 L 5,27 L 4,28 L 4,29 L 3,30 L 3,31 L 1,33 L 1,35 L 2,36 L 2,39 L 0,41 L 1,42 L 1,44 L 2,45 L 2,46 L 3,47 L 3,48 L 4,49 L 4,51 L 5,50 L 11,50 L 12,49 L 13,49 L 13,48 L 14,47 L 15,47 L 16,46 L 20,46 L 22,44 L 22,39 L 23,38 L 23,34 L 28,29 L 28,28 L 29,27 L 29,26 L 30,25 L 31,25 L 32,24 L 32,23 L 35,20 L 35,16 L 34,15 L 34,12 L 35,11 L 35,10 L 36,9 L 37,9 L 39,7 L 39,6 L 38,6 L 36,4 L 35,4 L 34,3 L 32,3 L 31,2 L 32,1 L 33,1 L 32,1 Z" fill="none" stroke="black" stroke-width="1"/>
  <path d="M 16,0 L 16,1 L 15,2 L 15,3 L 14,4 L 16,4 Z" fill="none" stroke="black" stroke-width="1"/>
</svg>