<svg xmlns="http://www.w3.org/2000/svg" width="70" height="70">
  <path d="M 69,0 L 68,1 L 66,1 L 65,2 L 63,2 L 62,3 L 60,3 L 59,4 L 58,4 L 57,5 L 55,5 L 54,6 L 53,6 L 51,8 L 50,8 L 48,10 L 41,10 L 40,11 L 37,11 L 36,12 L 35,12 L 34,11 L 29,11 L 29,14 L 28,15 L 28,16 L 32,20 L 32,23 L 33,24 L 35,24 L 36,25 L 36,26 L 38,26 L 41,29 L 42,28 L 45,28 L 51,22 L 52,22 L 53,21 L 57,21 L 58,22 L 58,23 L 59,23 L 60,24 L 60,25 L 65,30 L 66,30 L 68,28 L 68,24 L 67,23 L 67,18 L 68,17 L 68,9 L 69,8 Z" fill="none" stroke="black" stroke-width="1"/>
</svg>