<svg xmlns="http://www.w3.org/2000/svg" width="70" height="70">
  <path d="M 53,22 L 52,23 L 51,23 L 45,29 L 42,29 L 42,30 L 40,32 L 39,32 L 39,33 L 38,34 L 37,34 L 34,37 L 34,42 L 32,44 L 31,44 L 31,47 L 34,47 L 35,48 L 36,48 L 43,55 L 43,56 L 44,56 L 45,57 L 45,59 L 46,60 L 47,60 L 48,59 L 48,55 L 49,54 L 49,53 L 50,52 L 52,52 L 53,51 L 57,51 L 57,50 L 58,49 L 58,48 L 59,47 L 61,47 L 61,43 L 60,42 L 61,41 L 61,40 L 60,40 L 59,39 L 59,37 L 62,34 L 66,34 L 66,31 L 65,31 L 59,25 L 59,24 L 58,24 L 57,23 L 57,22 Z" fill="none" stroke="black" stroke-width="1"/>
</svg>