<svg xmlns="http://www.w3.org/2000/svg" width="70" height="51">
  <path d="M 43,33 L 42,34 L 42,35 L 41,36 L 41,38 L 40,39 L 41,40 L 41,41 L 40,42 L 38,42 L 38,44 L 37,45 L 37,46 L 39,48 L 41,48 L 42,49 L 43,49 L 44,50 L 45,50 L 45,49 L 46,48 L 50,48 L 51,49 L 58,49 L 59,48 L 60,48 L 60,47 L 61,46 L 61,41 L 56,41 L 55,42 L 54,42 L 49,37 L 48,37 L 46,35 L 46,34 L 47,33 L 48,33 L 50,35 L 51,35 L 55,39 L 56,39 L 56,37 L 55,36 L 54,36 L 53,35 L 52,35 L 50,33 Z" fill="none" stroke="black" stroke-width="1"/>
  <path d="M 67,22 L 67,24 L 64,27 L 63,27 L 63,28 L 62,29 L 62,31 L 61,32 L 61,35 L 62,35 L 63,34 L 63,32 L 64,31 L 64,30 L 65,29 L 66,30 L 67,29 L 67,26 L 68,25 L 68,24 L 69,23 L 69,22 Z" fill="none" stroke="black" stroke-width="1"/>
</svg>