<svg xmlns="http://www.w3.org/2000/svg" width="49" height="60">
  <path d="M 15,19 L 14,20 L 11,20 L 9,22 L 8,22 L 7,23 L 4,23 L 3,22 L 2,23 L 1,23 L 4,23 L 5,24 L 5,25 L 6,26 L 6,27 L 9,30 L 9,33 L 10,34 L 10,40 L 13,43 L 13,44 L 15,46 L 15,47 L 16,48 L 17,48 L 18,49 L 18,50 L 18,47 L 19,46 L 19,45 L 20,44 L 20,41 L 21,40 L 21,39 L 22,38 L 22,37 L 23,36 L 23,34 L 24,33 L 24,30 L 23,29 L 23,27 L 22,26 L 22,25 L 19,22 L 19,21 L 18,20 L 18,19 Z" fill="none" stroke="black" stroke-width="1"/>
</svg>