<svg xmlns="http://www.w3.org/2000/svg" width="49" height="60">
  <path d="M 29,15 L 28,16 L 25,16 L 24,17 L 23,17 L 22,18 L 19,18 L 19,20 L 20,21 L 20,22 L 23,25 L 23,26 L 24,27 L 24,29 L 25,30 L 25,33 L 24,34 L 24,36 L 23,37 L 23,38 L 22,39 L 22,40 L 21,41 L 21,44 L 20,45 L 20,46 L 19,47 L 19,55 L 20,55 L 21,54 L 21,53 L 22,52 L 25,52 L 26,51 L 26,50 L 29,47 L 31,47 L 32,46 L 32,45 L 36,41 L 36,39 L 39,36 L 39,34 L 40,33 L 40,32 L 42,30 L 39,27 L 39,25 L 40,24 L 40,23 L 35,18 L 34,18 L 32,16 L 31,16 L 30,15 Z" fill="none" stroke="black" stroke-width="1"/>
</svg>