<svg xmlns="http://www.w3.org/2000/svg" width="48" height="49">
  <path d="M 24,6 L 24,7 L 23,8 L 20,8 L 17,11 L 16,11 L 15,12 L 14,12 L 13,13 L 13,16 L 12,17 L 12,22 L 13,23 L 14,23 L 15,24 L 16,24 L 18,26 L 19,26 L 20,27 L 20,30 L 18,32 L 18,33 L 19,33 L 20,32 L 21,32 L 22,33 L 23,33 L 24,32 L 27,32 L 28,31 L 35,31 L 36,30 L 41,30 L 42,29 L 43,29 L 44,28 L 45,28 L 46,27 L 47,27 L 47,26 L 45,26 L 44,27 L 43,27 L 42,28 L 40,28 L 39,27 L 42,24 L 46,24 L 46,22 L 45,22 L 44,23 L 42,23 L 41,24 L 40,24 L 39,25 L 38,25 L 38,26 L 37,27 L 32,27 L 31,28 L 24,28 L 23,29 L 22,28 L 22,27 L 23,26 L 23,22 L 25,20 L 25,19 L 23,17 L 23,13 L 24,12 L 24,11 L 25,10 L 25,9 L 26,8 L 26,7 L 25,6 Z" fill="none" stroke="black" stroke-width="1"/>
</svg>