<svg xmlns="http://www.w3.org/2000/svg" width="120" height="77">
  <path d="M 48,36 L 48,37 L 50,39 L 52,37 L 50,37 L 49,36 Z" fill="none" stroke="black" stroke-width="1"/>
  <path d="M 29,30 L 32,30 Z" fill="none" stroke="black" stroke-width="1"/>
  <path d="M 6,23 L 5,24 L 3,24 L 2,25 L 0,25 L 0,26 L 1,27 L 1,28 L 4,31 L 6,31 L 7,32 L 7,34 L 9,34 L 10,35 L 10,37 L 8,39 L 11,39 L 12,38 L 13,38 L 15,40 L 17,40 L 18,39 L 19,39 L 20,40 L 19,41 L 19,43 L 20,44 L 22,44 L 23,43 L 26,43 L 28,45 L 28,46 L 27,47 L 25,45 L 24,45 L 23,46 L 23,47 L 25,49 L 27,49 L 27,48 L 28,47 L 29,47 L 30,48 L 30,49 L 29,50 L 29,54 L 30,53 L 34,53 L 35,54 L 34,55 L 34,56 L 36,56 L 35,55 L 36,54 L 37,54 L 38,53 L 39,54 L 39,56 L 40,55 L 41,56 L 41,57 L 40,58 L 39,58 L 41,58 L 42,57 L 43,57 L 44,58 L 44,59 L 43,60 L 42,60 L 42,61 L 44,63 L 49,63 L 50,62 L 53,62 L 54,61 L 54,60 L 55,59 L 55,58 L 56,57 L 57,58 L 57,61 L 54,64 L 53,64 L 51,66 L 51,67 L 52,68 L 55,68 L 57,70 L 58,70 L 59,71 L 61,71 L 62,72 L 64,72 L 65,73 L 67,73 L 68,74 L 69,74 L 70,75 L 74,75 L 75,76 L 76,75 L 76,74 L 77,73 L 78,73 L 79,74 L 79,72 L 78,71 L 78,70 L 77,70 L 76,71 L 75,70 L 75,68 L 76,67 L 79,67 L 79,66 L 78,66 L 77,65 L 77,64 L 78,63 L 78,62 L 77,62 L 77,63 L 76,64 L 76,67 L 75,68 L 74,67 L 74,66 L 73,65 L 73,64 L 72,63 L 72,61 L 68,57 L 66,57 L 65,56 L 63,56 L 62,55 L 60,55 L 59,54 L 58,54 L 57,53 L 56,53 L 55,52 L 55,51 L 54,50 L 54,47 L 53,46 L 52,46 L 50,44 L 50,43 L 49,42 L 49,41 L 46,38 L 46,36 L 45,35 L 44,35 L 43,34 L 38,34 L 37,33 L 35,33 L 34,32 L 28,32 L 27,31 L 26,31 L 25,30 L 22,30 L 21,29 L 22,28 L 24,28 L 22,28 L 21,29 L 20,29 L 19,28 L 16,28 L 13,25 L 11,25 L 10,24 L 8,24 L 7,23 Z" fill="none" stroke="black" stroke-width="1"/>
</svg>