<svg xmlns="http://www.w3.org/2000/svg" width="120" height="77">
  <path d="M 85,68 L 83,70 L 82,70 L 82,72 L 83,72 L 84,73 L 87,73 L 86,72 L 85,72 L 84,71 L 85,70 L 86,70 L 87,69 L 88,69 L 88,68 Z" fill="none" stroke="black" stroke-width="1"/>
  <path d="M 99,35 L 99,36 L 92,43 L 91,43 L 90,44 L 89,44 L 88,45 L 84,45 L 82,47 L 82,49 L 81,50 L 81,54 L 82,55 L 84,55 L 86,53 L 87,54 L 87,55 L 85,57 L 81,57 L 81,59 L 83,61 L 83,62 L 83,61 L 84,60 L 85,60 L 86,61 L 87,61 L 88,62 L 88,64 L 89,65 L 89,66 L 90,67 L 91,66 L 103,66 L 104,65 L 105,66 L 106,66 L 107,65 L 108,65 L 108,64 L 109,63 L 109,59 L 110,58 L 110,57 L 112,55 L 112,54 L 114,52 L 114,51 L 117,48 L 117,42 L 118,41 L 118,40 L 119,39 L 119,35 L 118,35 L 117,36 L 116,36 L 114,38 L 113,38 L 112,39 L 109,39 L 108,38 L 107,38 L 106,37 L 104,37 L 102,35 Z" fill="none" stroke="black" stroke-width="1"/>
</svg>