<svg xmlns="http://www.w3.org/2000/svg" width="120" height="77">
  <path d="M 45,33 L 46,33 L 47,34 L 50,34 L 49,33 Z" fill="none" stroke="black" stroke-width="1"/>
  <path d="M 44,0 L 42,2 L 41,2 L 40,3 L 35,3 L 34,2 L 32,2 L 31,1 L 20,1 L 19,2 L 17,2 L 17,4 L 15,6 L 16,7 L 15,8 L 14,8 L 14,10 L 11,13 L 10,13 L 16,13 L 17,12 L 19,12 L 20,13 L 18,15 L 11,15 L 10,16 L 10,17 L 11,18 L 13,18 L 14,17 L 15,17 L 16,18 L 21,18 L 22,19 L 21,20 L 14,20 L 16,22 L 18,22 L 19,23 L 20,23 L 21,24 L 21,23 L 20,23 L 19,22 L 20,21 L 22,21 L 23,22 L 26,22 L 27,23 L 26,24 L 24,24 L 24,25 L 26,25 L 27,24 L 27,22 L 28,21 L 34,21 L 35,22 L 34,23 L 30,23 L 30,24 L 31,25 L 30,26 L 29,26 L 29,27 L 33,27 L 33,25 L 31,25 L 30,24 L 31,23 L 34,23 L 36,25 L 35,26 L 40,26 L 43,23 L 43,22 L 42,21 L 42,19 L 43,18 L 45,20 L 45,24 L 41,28 L 37,28 L 36,29 L 34,29 L 34,30 L 35,31 L 38,31 L 39,30 L 41,32 L 42,32 L 43,31 L 43,28 L 44,27 L 45,28 L 45,31 L 50,31 L 52,29 L 53,29 L 53,24 L 54,23 L 54,22 L 56,20 L 56,19 L 59,16 L 60,16 L 61,15 L 62,15 L 64,13 L 65,13 L 69,9 L 69,8 L 66,5 L 65,5 L 62,2 L 62,1 L 61,2 L 58,2 L 57,1 L 50,1 L 49,0 Z" fill="none" stroke="black" stroke-width="1"/>
</svg>