<svg xmlns="http://www.w3.org/2000/svg" width="118" height="105">
  <path d="M 78,99 L 77,100 L 77,101 L 78,102 L 78,103 L 79,104 L 81,104 L 80,103 L 80,101 L 79,100 L 79,99 Z" fill="none" stroke="black" stroke-width="1"/>
  <path d="M 60,75 L 60,77 L 61,78 L 61,79 L 64,82 L 64,79 L 63,79 L 61,77 L 61,76 Z" fill="none" stroke="black" stroke-width="1"/>
  <path d="M 55,68 L 56,68 L 57,69 L 57,70 L 58,71 L 59,71 L 57,69 L 57,68 Z" fill="none" stroke="black" stroke-width="1"/>
  <path d="M 60,64 L 59,65 L 59,68 L 61,68 L 61,66 L 60,65 Z" fill="none" stroke="black" stroke-width="1"/>
  <path d="M 75,35 L 71,39 L 71,40 L 69,42 L 69,45 L 70,46 L 70,50 L 69,51 L 70,52 L 69,53 L 68,53 L 68,55 L 67,56 L 71,60 L 77,60 L 81,64 L 81,65 L 80,66 L 76,62 L 72,62 L 71,63 L 69,61 L 68,61 L 67,60 L 67,59 L 65,59 L 65,60 L 64,61 L 62,59 L 65,56 L 63,56 L 61,58 L 61,62 L 62,61 L 63,62 L 63,63 L 64,63 L 64,62 L 65,61 L 66,62 L 66,64 L 68,66 L 69,66 L 71,68 L 71,69 L 72,70 L 72,74 L 75,74 L 76,73 L 77,73 L 78,74 L 78,76 L 76,78 L 75,77 L 74,78 L 73,77 L 73,82 L 72,83 L 71,82 L 71,80 L 69,80 L 68,79 L 70,77 L 71,78 L 71,76 L 70,75 L 70,72 L 69,71 L 69,69 L 68,69 L 64,65 L 63,65 L 63,69 L 62,70 L 61,70 L 61,72 L 62,72 L 63,73 L 62,74 L 63,75 L 63,76 L 64,77 L 65,77 L 66,78 L 67,77 L 68,78 L 68,80 L 67,81 L 68,82 L 68,85 L 69,85 L 69,83 L 70,82 L 71,82 L 72,83 L 72,84 L 73,83 L 74,83 L 75,82 L 76,83 L 79,80 L 80,81 L 80,80 L 81,79 L 82,80 L 82,82 L 81,83 L 79,83 L 79,84 L 78,85 L 77,85 L 78,86 L 78,87 L 77,88 L 76,88 L 75,87 L 75,85 L 74,85 L 74,89 L 75,90 L 75,91 L 76,92 L 76,96 L 77,97 L 79,97 L 79,95 L 78,94 L 78,90 L 79,89 L 79,88 L 80,87 L 81,87 L 84,84 L 85,84 L 89,80 L 90,80 L 90,79 L 91,78 L 93,78 L 94,79 L 92,81 L 92,84 L 94,84 L 95,83 L 98,83 L 99,84 L 98,85 L 97,85 L 96,86 L 97,86 L 98,87 L 99,87 L 100,88 L 100,90 L 99,91 L 98,90 L 97,90 L 94,87 L 94,86 L 93,86 L 93,87 L 92,88 L 90,88 L 89,89 L 88,89 L 88,90 L 87,91 L 86,91 L 86,92 L 84,94 L 83,93 L 83,91 L 85,89 L 85,88 L 86,87 L 87,87 L 88,86 L 89,86 L 90,85 L 90,83 L 87,86 L 86,86 L 84,88 L 83,88 L 82,89 L 82,91 L 81,92 L 81,93 L 82,94 L 82,95 L 81,96 L 81,98 L 82,99 L 82,100 L 83,101 L 83,103 L 84,102 L 85,102 L 85,99 L 90,94 L 92,94 L 93,93 L 104,93 L 105,94 L 107,94 L 108,95 L 113,95 L 114,94 L 115,94 L 117,92 L 116,92 L 112,88 L 112,86 L 111,85 L 111,83 L 110,82 L 110,76 L 109,75 L 109,74 L 108,73 L 108,72 L 105,69 L 104,69 L 102,67 L 101,67 L 100,66 L 99,66 L 98,65 L 97,65 L 95,63 L 94,63 L 91,60 L 91,57 L 92,56 L 92,54 L 88,50 L 87,50 L 86,49 L 86,48 L 82,44 L 82,43 L 78,39 L 78,38 L 76,36 L 76,35 Z" fill="none" stroke="black" stroke-width="1"/>
</svg>