<svg xmlns="http://www.w3.org/2000/svg" width="207" height="145">
  <path d="M 176,132 L 176,135 L 175,136 L 175,137 L 177,137 L 178,138 L 177,139 L 178,139 L 179,140 L 180,139 L 181,139 L 180,138 L 179,138 L 178,137 L 178,133 L 177,132 Z" fill="none" stroke="black" stroke-width="1"/>
  <path d="M 171,129 L 171,130 L 172,131 L 172,133 L 173,133 L 173,132 L 174,131 L 172,129 Z" fill="none" stroke="black" stroke-width="1"/>
  <path d="M 144,129 L 143,130 L 143,131 L 144,131 L 144,130 L 145,129 L 146,129 Z" fill="none" stroke="black" stroke-width="1"/>
  <path d="M 145,126 L 145,127 L 146,127 L 147,126 L 149,126 L 147,126 L 146,127 Z" fill="none" stroke="black" stroke-width="1"/>
  <path d="M 142,126 L 143,127 L 143,126 Z" fill="none" stroke="black" stroke-width="1"/>
  <path d="M 133,117 L 133,118 L 134,118 L 135,117 Z" fill="none" stroke="black" stroke-width="1"/>
  <path d="M 138,109 L 138,113 L 139,112 L 139,109 Z" fill="none" stroke="black" stroke-width="1"/>
  <path d="M 144,107 L 144,110 L 148,110 L 149,111 L 148,112 L 145,112 L 141,116 L 142,117 L 144,115 L 145,115 L 146,114 L 147,114 L 148,113 L 148,112 L 149,111 L 150,112 L 150,117 L 149,118 L 148,118 L 149,119 L 148,120 L 146,120 L 145,119 L 144,119 L 144,121 L 146,121 L 147,120 L 148,120 L 149,121 L 148,122 L 148,123 L 149,124 L 150,124 L 151,123 L 152,123 L 153,124 L 153,125 L 152,126 L 152,127 L 153,128 L 154,128 L 155,129 L 154,130 L 152,130 L 151,129 L 150,129 L 150,130 L 149,131 L 148,130 L 147,131 L 147,132 L 149,132 L 149,131 L 150,130 L 151,130 L 152,131 L 151,132 L 151,133 L 150,134 L 150,135 L 151,136 L 151,137 L 152,138 L 152,139 L 156,143 L 156,144 L 158,144 L 157,143 L 157,142 L 158,141 L 159,142 L 159,140 L 158,139 L 157,139 L 157,140 L 156,141 L 154,139 L 154,138 L 153,137 L 153,135 L 152,134 L 152,133 L 151,132 L 152,131 L 153,131 L 154,132 L 155,132 L 156,131 L 157,132 L 157,133 L 156,134 L 156,137 L 157,137 L 158,136 L 157,135 L 157,134 L 159,132 L 161,134 L 161,136 L 160,137 L 160,138 L 163,138 L 165,140 L 165,141 L 166,142 L 165,143 L 166,143 L 167,144 L 168,144 L 169,143 L 169,137 L 168,137 L 167,136 L 169,134 L 169,132 L 168,132 L 167,133 L 165,133 L 164,132 L 165,131 L 166,131 L 166,130 L 164,128 L 164,127 L 165,126 L 166,126 L 165,126 L 161,122 L 161,120 L 159,118 L 159,117 L 158,117 L 155,114 L 152,114 L 151,113 L 152,112 L 152,109 L 151,108 L 145,108 Z" fill="none" stroke="black" stroke-width="1"/>
  <path d="M 134,106 L 134,107 L 135,108 L 134,109 L 134,112 L 135,113 L 135,114 L 136,115 L 136,106 Z" fill="none" stroke="black" stroke-width="1"/>
  <path d="M 133,95 L 132,96 L 132,99 L 133,100 L 133,102 L 136,102 L 137,103 L 137,104 L 138,105 L 138,106 L 139,107 L 140,107 L 139,106 L 139,102 L 140,101 L 141,102 L 141,98 L 140,98 L 140,99 L 138,101 L 137,100 L 137,99 L 138,98 L 138,96 L 137,95 Z" fill="none" stroke="black" stroke-width="1"/>
  <path d="M 160,76 L 160,77 L 159,78 L 159,79 L 156,82 L 153,82 L 152,81 L 151,81 L 149,79 L 148,79 L 146,81 L 146,83 L 148,85 L 146,87 L 146,89 L 150,89 L 151,88 L 152,89 L 152,90 L 153,90 L 154,91 L 155,91 L 156,90 L 157,91 L 157,92 L 156,93 L 156,94 L 157,95 L 157,96 L 155,98 L 154,97 L 154,95 L 152,93 L 147,93 L 146,92 L 143,92 L 142,91 L 138,91 L 138,92 L 139,93 L 140,93 L 142,95 L 142,96 L 143,97 L 143,100 L 144,101 L 144,105 L 145,105 L 146,104 L 151,104 L 151,101 L 152,100 L 155,103 L 158,103 L 159,102 L 159,101 L 156,98 L 156,97 L 157,96 L 158,96 L 159,97 L 160,97 L 161,98 L 161,101 L 162,101 L 163,100 L 164,101 L 164,103 L 163,104 L 164,105 L 164,107 L 163,108 L 162,107 L 161,108 L 160,108 L 160,109 L 159,110 L 158,109 L 158,107 L 159,106 L 158,105 L 154,105 L 153,106 L 153,107 L 155,109 L 158,109 L 159,110 L 158,111 L 158,112 L 159,113 L 161,113 L 163,115 L 163,116 L 164,117 L 165,116 L 166,116 L 166,113 L 162,109 L 163,108 L 164,108 L 166,110 L 167,110 L 168,111 L 168,109 L 165,106 L 166,105 L 167,105 L 168,106 L 169,106 L 170,107 L 170,108 L 171,109 L 171,110 L 170,111 L 170,115 L 168,117 L 168,119 L 167,120 L 166,120 L 165,121 L 166,122 L 166,123 L 168,125 L 170,125 L 170,124 L 171,123 L 171,121 L 172,120 L 170,118 L 171,117 L 173,117 L 174,116 L 176,116 L 177,117 L 177,118 L 176,119 L 174,119 L 175,120 L 175,122 L 174,123 L 174,126 L 173,127 L 172,127 L 173,127 L 174,128 L 175,128 L 176,129 L 176,130 L 176,126 L 177,125 L 178,126 L 178,129 L 178,128 L 180,126 L 181,127 L 181,128 L 182,129 L 182,130 L 181,131 L 181,132 L 182,132 L 184,130 L 184,129 L 185,128 L 185,123 L 184,122 L 184,121 L 182,119 L 182,118 L 181,117 L 177,117 L 176,116 L 177,115 L 180,115 L 183,112 L 184,113 L 184,114 L 183,115 L 183,116 L 186,119 L 186,120 L 187,121 L 187,130 L 184,133 L 184,134 L 185,135 L 185,137 L 186,138 L 186,141 L 188,141 L 189,140 L 189,139 L 191,137 L 192,137 L 196,133 L 196,132 L 198,130 L 197,129 L 197,127 L 196,126 L 196,119 L 199,116 L 200,117 L 200,119 L 199,120 L 199,126 L 201,128 L 201,131 L 202,130 L 202,129 L 203,128 L 203,127 L 204,126 L 206,126 L 206,122 L 205,121 L 205,119 L 204,118 L 204,117 L 197,110 L 196,110 L 195,109 L 194,109 L 192,107 L 191,107 L 189,105 L 188,105 L 184,101 L 183,101 L 180,98 L 180,97 L 179,96 L 179,95 L 175,91 L 174,91 L 169,86 L 168,86 L 164,82 L 164,81 L 163,80 L 163,79 L 161,77 L 161,76 Z" fill="none" stroke="black" stroke-width="1"/>
</svg>