<svg xmlns="http://www.w3.org/2000/svg" width="207" height="145">
  <path d="M 22,0 L 21,1 L 18,1 L 17,2 L 9,2 L 9,4 L 7,6 L 7,7 L 0,14 L 0,20 L 1,19 L 2,20 L 7,20 L 8,21 L 13,21 L 14,22 L 15,22 L 16,23 L 20,23 L 21,22 L 22,22 L 20,20 L 21,19 L 23,19 L 24,20 L 24,21 L 25,22 L 25,23 L 23,25 L 23,26 L 26,26 L 27,27 L 29,27 L 30,28 L 33,28 L 34,29 L 41,29 L 42,28 L 44,28 L 46,26 L 47,26 L 47,25 L 49,23 L 50,23 L 51,22 L 53,22 L 56,25 L 57,25 L 58,26 L 57,27 L 56,27 L 56,31 L 57,31 L 58,32 L 58,33 L 57,34 L 55,34 L 53,32 L 53,26 L 52,25 L 50,25 L 50,26 L 51,27 L 51,28 L 52,29 L 52,30 L 51,31 L 51,32 L 50,33 L 49,33 L 49,34 L 50,35 L 53,35 L 54,36 L 54,37 L 56,37 L 57,38 L 58,38 L 59,39 L 60,39 L 61,40 L 62,40 L 63,41 L 64,41 L 65,42 L 66,41 L 67,41 L 67,38 L 71,34 L 72,34 L 73,33 L 83,33 L 84,32 L 89,32 L 90,31 L 91,32 L 97,32 L 98,31 L 100,31 L 101,30 L 103,30 L 103,29 L 106,26 L 109,26 L 108,26 L 107,25 L 106,25 L 105,24 L 104,24 L 103,23 L 102,23 L 101,22 L 97,22 L 96,21 L 95,21 L 92,18 L 91,18 L 90,17 L 89,17 L 88,16 L 87,16 L 86,15 L 82,15 L 81,16 L 80,16 L 79,15 L 79,14 L 75,14 L 74,13 L 73,13 L 71,11 L 70,11 L 68,9 L 66,9 L 65,8 L 63,8 L 62,7 L 61,7 L 60,6 L 59,6 L 57,4 L 53,4 L 52,3 L 51,3 L 50,2 L 49,2 L 48,1 L 47,2 L 39,2 L 38,1 L 32,1 L 31,0 Z" fill="none" stroke="black" stroke-width="1"/>
</svg>