<svg xmlns="http://www.w3.org/2000/svg" width="561" height="243">
  <path d="M 451,0 L 450,1 L 448,1 L 446,3 L 445,3 L 444,4 L 443,4 L 441,6 L 440,6 L 439,5 L 435,5 L 434,6 L 433,6 L 432,7 L 430,7 L 429,8 L 428,8 L 427,9 L 425,9 L 425,11 L 423,13 L 421,13 L 420,14 L 419,14 L 417,16 L 409,16 L 408,17 L 407,17 L 405,19 L 404,19 L 401,22 L 401,23 L 398,26 L 398,27 L 394,31 L 394,32 L 393,33 L 393,34 L 392,35 L 392,37 L 390,39 L 390,40 L 389,41 L 389,43 L 388,44 L 388,46 L 386,48 L 386,49 L 384,51 L 384,52 L 381,55 L 389,55 L 390,56 L 396,56 L 399,53 L 399,52 L 396,49 L 395,49 L 394,48 L 394,47 L 395,46 L 396,47 L 401,47 L 403,45 L 403,42 L 406,39 L 407,39 L 407,38 L 409,36 L 410,36 L 411,35 L 412,36 L 412,35 L 411,34 L 411,33 L 414,30 L 415,30 L 416,29 L 417,29 L 418,28 L 421,28 L 425,24 L 427,24 L 428,23 L 429,23 L 430,22 L 431,22 L 432,23 L 440,23 L 441,24 L 440,25 L 440,26 L 441,27 L 442,27 L 443,28 L 444,28 L 445,29 L 450,29 L 451,30 L 453,30 L 455,32 L 454,33 L 449,33 L 448,32 L 444,32 L 443,31 L 442,31 L 441,32 L 437,32 L 436,31 L 435,31 L 434,30 L 434,29 L 433,29 L 432,30 L 431,30 L 430,31 L 429,31 L 427,33 L 426,33 L 424,35 L 420,35 L 419,36 L 419,39 L 420,40 L 420,45 L 419,46 L 419,47 L 417,49 L 417,50 L 415,52 L 414,52 L 414,53 L 413,54 L 413,55 L 412,56 L 412,57 L 411,58 L 411,60 L 412,60 L 413,61 L 414,61 L 415,62 L 417,62 L 419,60 L 420,60 L 421,59 L 422,59 L 423,58 L 424,58 L 425,59 L 422,62 L 422,63 L 421,64 L 420,64 L 419,65 L 418,65 L 418,66 L 417,67 L 412,67 L 410,69 L 410,71 L 412,73 L 415,73 L 417,71 L 419,71 L 420,72 L 422,72 L 421,71 L 422,70 L 424,70 L 425,71 L 425,70 L 427,68 L 428,68 L 429,69 L 429,68 L 430,67 L 430,66 L 429,65 L 431,63 L 432,64 L 432,66 L 433,65 L 433,64 L 434,63 L 434,62 L 436,60 L 437,61 L 437,64 L 438,63 L 439,63 L 440,62 L 440,60 L 441,59 L 443,61 L 443,55 L 444,54 L 446,56 L 446,57 L 446,56 L 447,55 L 447,54 L 448,53 L 448,52 L 449,51 L 451,53 L 451,56 L 452,55 L 452,53 L 453,52 L 454,52 L 455,53 L 454,54 L 456,54 L 457,55 L 458,54 L 464,54 L 464,53 L 465,52 L 465,50 L 466,49 L 467,49 L 468,48 L 469,48 L 467,48 L 466,49 L 465,49 L 464,48 L 466,46 L 467,46 L 470,43 L 471,43 L 471,41 L 470,40 L 469,40 L 467,42 L 464,42 L 463,43 L 461,43 L 460,42 L 462,40 L 463,40 L 464,39 L 465,40 L 466,40 L 467,39 L 467,38 L 468,37 L 469,37 L 469,36 L 467,36 L 466,35 L 465,35 L 464,36 L 463,36 L 461,38 L 460,37 L 460,36 L 461,35 L 461,34 L 462,33 L 466,33 L 467,32 L 467,30 L 465,30 L 464,29 L 466,27 L 469,27 L 470,28 L 470,29 L 471,28 L 471,27 L 473,25 L 473,22 L 477,18 L 478,18 L 480,16 L 481,16 L 482,15 L 481,15 L 480,14 L 479,14 L 478,13 L 477,13 L 468,4 L 467,4 L 465,2 L 461,2 L 460,1 L 456,1 L 455,0 Z" fill="none" stroke="black" stroke-width="1"/>
</svg>