<svg xmlns="http://www.w3.org/2000/svg" width="105" height="102">
  <path d="M 70,42 L 70,44 L 71,43 L 73,43 L 71,43 Z" fill="none" stroke="black" stroke-width="1"/>
  <path d="M 80,39 L 80,40 L 79,41 L 79,42 L 80,42 L 81,41 L 82,41 L 82,39 Z" fill="none" stroke="black" stroke-width="1"/>
  <path d="M 50,30 L 47,33 L 47,34 L 41,40 L 39,40 L 39,44 L 41,46 L 38,49 L 38,51 L 37,52 L 37,54 L 39,56 L 44,56 L 46,58 L 47,58 L 51,62 L 53,62 L 55,64 L 56,64 L 58,66 L 68,66 L 69,67 L 72,67 L 73,68 L 74,68 L 77,71 L 78,71 L 79,72 L 80,72 L 82,74 L 82,76 L 83,76 L 84,77 L 84,78 L 85,79 L 85,80 L 86,81 L 86,82 L 89,85 L 89,86 L 90,87 L 91,87 L 92,88 L 92,89 L 93,90 L 93,91 L 95,93 L 95,96 L 94,97 L 94,99 L 95,100 L 95,101 L 97,101 L 99,99 L 99,98 L 100,97 L 100,95 L 101,94 L 101,90 L 102,89 L 102,88 L 103,87 L 103,86 L 104,85 L 104,82 L 103,81 L 103,80 L 102,80 L 102,82 L 97,87 L 95,85 L 95,84 L 94,83 L 96,81 L 96,80 L 97,79 L 97,76 L 100,73 L 100,71 L 100,72 L 98,74 L 95,74 L 94,75 L 94,76 L 92,78 L 92,80 L 91,81 L 91,83 L 90,84 L 89,84 L 88,83 L 87,83 L 86,82 L 86,81 L 85,80 L 85,79 L 86,78 L 87,78 L 87,77 L 88,76 L 88,75 L 86,75 L 85,74 L 85,73 L 86,72 L 90,72 L 91,71 L 90,70 L 93,67 L 96,67 L 98,65 L 98,64 L 99,63 L 98,62 L 98,61 L 95,64 L 93,62 L 92,62 L 92,64 L 91,65 L 90,65 L 89,64 L 88,65 L 86,63 L 86,62 L 84,60 L 86,58 L 84,58 L 83,57 L 84,56 L 85,56 L 86,55 L 86,54 L 87,53 L 89,53 L 90,52 L 90,51 L 91,50 L 91,49 L 90,48 L 89,48 L 88,47 L 87,47 L 86,46 L 85,46 L 84,45 L 82,45 L 80,47 L 79,46 L 78,46 L 77,47 L 76,46 L 76,44 L 75,44 L 74,45 L 74,46 L 73,47 L 72,47 L 72,48 L 71,49 L 68,49 L 67,48 L 67,47 L 67,48 L 66,49 L 65,49 L 64,50 L 64,52 L 62,54 L 61,53 L 61,51 L 62,50 L 62,45 L 63,44 L 64,45 L 64,47 L 65,46 L 65,43 L 64,43 L 63,44 L 61,44 L 60,45 L 59,45 L 60,46 L 59,47 L 58,47 L 56,45 L 56,44 L 54,44 L 53,43 L 54,42 L 54,40 L 53,40 L 52,39 L 53,38 L 54,38 L 55,37 L 56,37 L 57,36 L 58,36 L 59,35 L 60,35 L 60,34 L 59,34 L 58,35 L 56,35 L 54,33 L 52,33 L 50,31 Z" fill="none" stroke="black" stroke-width="1"/>
</svg>