<svg xmlns="http://www.w3.org/2000/svg" width="105" height="102">
  <path d="M 58,17 L 58,18 L 59,18 L 60,17 Z" fill="none" stroke="black" stroke-width="1"/>
  <path d="M 53,0 L 51,2 L 50,2 L 49,3 L 47,3 L 46,4 L 44,4 L 43,5 L 42,5 L 41,6 L 41,7 L 40,8 L 40,10 L 39,11 L 39,12 L 38,13 L 38,14 L 34,18 L 33,18 L 32,19 L 34,19 L 35,20 L 34,21 L 32,21 L 30,23 L 30,24 L 29,25 L 29,27 L 28,28 L 28,29 L 27,30 L 27,31 L 26,32 L 26,34 L 24,36 L 24,37 L 23,38 L 23,39 L 22,40 L 22,41 L 24,43 L 25,43 L 26,44 L 25,45 L 23,45 L 22,44 L 20,44 L 18,46 L 18,48 L 19,49 L 20,49 L 21,50 L 22,50 L 23,51 L 22,52 L 19,52 L 20,52 L 23,55 L 22,56 L 20,56 L 18,54 L 17,54 L 15,52 L 14,53 L 14,55 L 13,56 L 13,57 L 11,59 L 11,62 L 10,63 L 9,63 L 8,64 L 7,64 L 6,63 L 6,61 L 5,62 L 4,62 L 2,64 L 8,64 L 9,63 L 14,63 L 15,64 L 15,65 L 14,66 L 12,66 L 6,72 L 5,72 L 4,73 L 3,73 L 0,76 L 0,78 L 1,79 L 1,82 L 2,83 L 4,83 L 5,82 L 14,82 L 15,81 L 17,81 L 18,80 L 22,80 L 24,82 L 34,82 L 35,83 L 38,83 L 39,84 L 40,83 L 42,83 L 43,82 L 45,82 L 41,78 L 40,78 L 38,76 L 38,75 L 35,72 L 35,69 L 37,67 L 35,65 L 35,62 L 36,61 L 36,59 L 37,58 L 37,57 L 38,56 L 36,54 L 36,52 L 37,51 L 37,49 L 40,46 L 38,44 L 38,40 L 39,39 L 40,39 L 39,39 L 38,38 L 39,37 L 40,37 L 40,33 L 43,30 L 43,29 L 45,27 L 45,26 L 46,25 L 46,24 L 49,21 L 49,15 L 50,14 L 51,15 L 51,18 L 51,17 L 53,15 L 53,14 L 55,12 L 55,11 L 56,10 L 56,9 L 55,8 L 54,8 L 53,9 L 50,6 L 50,5 L 51,4 L 54,4 L 55,5 L 59,5 L 60,4 L 60,3 L 61,2 L 61,1 L 60,0 L 59,1 L 58,1 L 57,0 L 57,1 L 58,2 L 57,3 L 56,3 L 54,1 L 54,0 Z" fill="none" stroke="black" stroke-width="1"/>
</svg>