<svg xmlns="http://www.w3.org/2000/svg" width="96" height="50">
  <path d="M 52,23 L 51,24 L 50,24 L 50,25 L 49,26 L 49,27 L 47,29 L 47,30 L 51,30 L 52,31 L 52,34 L 57,34 L 58,35 L 57,36 L 59,38 L 61,38 L 62,39 L 64,39 L 65,40 L 66,39 L 66,38 L 67,37 L 68,38 L 69,38 L 71,40 L 70,41 L 70,42 L 71,43 L 76,43 L 77,42 L 77,40 L 76,41 L 75,40 L 75,39 L 76,38 L 78,38 L 78,37 L 80,35 L 82,35 L 83,34 L 84,34 L 83,33 L 75,33 L 74,34 L 68,34 L 67,35 L 65,35 L 64,34 L 64,33 L 62,33 L 61,32 L 58,32 L 58,33 L 57,34 L 56,34 L 55,33 L 55,29 L 54,28 L 52,28 L 51,27 L 53,25 L 53,23 Z" fill="none" stroke="black" stroke-width="1"/>
  <path d="M 88,11 L 87,12 L 87,13 L 86,14 L 85,14 L 85,15 L 84,16 L 84,18 L 85,18 L 86,19 L 87,19 L 87,18 L 86,18 L 85,17 L 85,16 L 87,14 L 89,14 L 89,11 Z" fill="none" stroke="black" stroke-width="1"/>
  <path d="M 92,10 L 92,11 L 95,11 L 95,10 Z" fill="none" stroke="black" stroke-width="1"/>
</svg>