<svg xmlns="http://www.w3.org/2000/svg" width="100" height="70">
  <path d="M 40,32 L 42,32 L 43,33 L 42,34 L 37,34 L 36,35 L 35,35 L 34,36 L 33,36 L 33,38 L 32,39 L 30,37 L 29,37 L 28,36 L 28,35 L 29,34 L 28,33 L 27,33 L 28,34 L 26,36 L 23,36 L 22,37 L 21,37 L 19,39 L 18,39 L 17,40 L 16,40 L 15,41 L 14,41 L 12,43 L 11,43 L 10,44 L 9,44 L 10,44 L 11,45 L 10,46 L 21,46 L 22,45 L 24,45 L 25,44 L 27,44 L 29,42 L 34,42 L 35,41 L 39,41 L 40,40 L 41,40 L 42,39 L 45,39 L 47,37 L 48,37 L 52,33 L 54,33 L 49,33 L 48,32 Z" fill="none" stroke="black" stroke-width="1"/>
</svg>