<svg xmlns="http://www.w3.org/2000/svg" width="96" height="50">
  <path d="M 21,18 L 16,23 L 13,23 L 11,25 L 14,28 L 17,28 L 18,29 L 19,29 L 20,30 L 21,30 L 24,33 L 24,35 L 27,38 L 29,38 L 30,39 L 31,39 L 32,40 L 33,40 L 34,41 L 35,41 L 38,44 L 38,45 L 39,46 L 39,48 L 40,49 L 42,49 L 43,48 L 43,46 L 42,45 L 42,44 L 41,43 L 41,42 L 42,41 L 44,43 L 44,44 L 46,46 L 46,47 L 48,45 L 49,45 L 50,44 L 51,44 L 52,43 L 53,43 L 52,42 L 53,41 L 56,41 L 56,40 L 55,40 L 54,39 L 51,39 L 50,38 L 45,38 L 44,37 L 44,36 L 43,35 L 43,32 L 42,31 L 42,29 L 41,29 L 39,27 L 39,24 L 40,23 L 40,21 L 37,21 L 36,22 L 33,22 L 32,21 L 32,19 L 25,19 L 24,18 Z" fill="none" stroke="black" stroke-width="1"/>
</svg>