<svg xmlns="http://www.w3.org/2000/svg" width="127" height="69">
  <path d="M 102,3 L 101,4 L 93,4 L 92,5 L 91,5 L 90,6 L 88,6 L 87,7 L 85,7 L 84,8 L 83,8 L 82,9 L 81,9 L 80,10 L 77,10 L 76,11 L 76,13 L 77,14 L 77,16 L 76,17 L 76,20 L 75,21 L 75,23 L 76,24 L 76,26 L 77,25 L 82,25 L 83,26 L 87,26 L 88,25 L 90,25 L 91,26 L 96,26 L 97,25 L 98,25 L 99,24 L 100,24 L 102,26 L 104,26 L 105,27 L 106,27 L 107,28 L 109,28 L 110,27 L 112,27 L 115,24 L 117,24 L 117,23 L 119,21 L 120,21 L 121,20 L 122,20 L 123,19 L 124,19 L 125,18 L 124,17 L 125,16 L 125,14 L 124,14 L 122,12 L 123,11 L 125,11 L 126,12 L 126,11 L 123,8 L 122,8 L 121,7 L 120,7 L 118,5 L 117,5 L 116,4 L 111,4 L 110,3 Z" fill="none" stroke="black" stroke-width="1"/>
</svg>