<svg xmlns="http://www.w3.org/2000/svg" width="76" height="78">
  <path d="M 35,48 L 33,50 L 33,51 L 29,55 L 28,55 L 26,57 L 25,57 L 24,58 L 23,58 L 23,66 L 22,67 L 21,66 L 20,66 L 20,67 L 21,67 L 22,68 L 22,70 L 21,71 L 18,71 L 17,72 L 16,71 L 13,71 L 13,76 L 17,76 L 18,75 L 20,77 L 21,76 L 21,75 L 22,74 L 23,74 L 24,73 L 25,73 L 26,72 L 28,72 L 29,71 L 30,72 L 30,71 L 31,70 L 31,69 L 32,68 L 33,68 L 35,66 L 36,66 L 37,65 L 38,65 L 39,64 L 46,64 L 47,65 L 49,65 L 50,66 L 54,66 L 53,66 L 52,65 L 53,64 L 54,64 L 56,62 L 60,62 L 61,61 L 66,61 L 67,60 L 68,60 L 69,61 L 70,60 L 72,60 L 73,61 L 74,60 L 75,60 L 75,59 L 74,58 L 74,54 L 72,54 L 71,55 L 64,55 L 63,56 L 62,56 L 61,55 L 59,55 L 57,53 L 56,53 L 55,52 L 43,52 L 42,53 L 40,53 L 39,52 L 39,51 L 38,50 L 38,49 L 37,48 Z" fill="none" stroke="black" stroke-width="1"/>
</svg>