<svg xmlns="http://www.w3.org/2000/svg" width="62" height="48">
  <path d="M 40,14 L 39,15 L 31,15 L 29,17 L 28,17 L 27,18 L 25,18 L 23,20 L 20,20 L 19,21 L 19,25 L 20,26 L 25,26 L 26,27 L 29,27 L 30,28 L 32,28 L 34,30 L 34,32 L 38,32 L 39,31 L 42,31 L 44,33 L 45,33 L 46,32 L 48,32 L 49,33 L 49,34 L 51,34 L 52,33 L 54,33 L 52,33 L 51,32 L 52,31 L 53,31 L 54,30 L 56,30 L 58,28 L 59,28 L 60,27 L 61,27 L 61,22 L 60,21 L 59,21 L 58,20 L 57,20 L 56,19 L 56,16 L 53,16 L 52,17 L 51,17 L 50,16 L 48,16 L 46,14 Z" fill="none" stroke="black" stroke-width="1"/>
</svg>