<svg xmlns="http://www.w3.org/2000/svg" width="62" height="65">
  <path d="M 30,23 L 29,24 L 29,25 L 27,27 L 26,27 L 25,28 L 24,28 L 22,30 L 21,30 L 21,31 L 20,32 L 18,32 L 17,33 L 16,33 L 15,34 L 15,35 L 14,36 L 13,36 L 12,37 L 11,37 L 14,37 L 15,38 L 15,39 L 14,40 L 15,41 L 16,41 L 17,42 L 18,42 L 20,44 L 23,44 L 24,43 L 25,43 L 26,42 L 29,42 L 31,40 L 31,39 L 32,38 L 33,38 L 35,36 L 36,37 L 37,37 L 38,36 L 39,36 L 40,35 L 41,35 L 41,33 L 39,31 L 39,30 L 38,30 L 37,29 L 37,25 L 36,24 L 34,24 L 33,23 Z" fill="none" stroke="black" stroke-width="1"/>
</svg>