<svg xmlns="http://www.w3.org/2000/svg" width="215" height="106">
  <path d="M 204,41 L 203,42 L 202,42 L 201,43 L 199,43 L 195,47 L 195,48 L 192,51 L 192,52 L 191,53 L 191,54 L 189,56 L 189,58 L 185,62 L 185,63 L 183,65 L 183,68 L 179,72 L 178,72 L 177,73 L 177,74 L 181,78 L 181,79 L 182,80 L 182,81 L 183,82 L 183,84 L 188,84 L 189,85 L 191,85 L 194,88 L 195,88 L 197,90 L 198,90 L 200,92 L 201,92 L 202,93 L 205,93 L 206,92 L 206,90 L 205,89 L 206,88 L 207,88 L 207,87 L 208,86 L 208,85 L 210,83 L 210,79 L 211,78 L 211,77 L 212,76 L 212,70 L 211,70 L 207,66 L 207,65 L 206,64 L 206,61 L 205,60 L 205,56 L 206,55 L 206,51 L 207,50 L 205,48 L 205,46 L 207,44 L 207,41 Z" fill="none" stroke="black" stroke-width="1"/>
</svg>