<svg xmlns="http://www.w3.org/2000/svg" width="127" height="69">
  <path d="M 24,29 L 24,30 L 23,31 L 22,31 L 20,33 L 19,33 L 18,34 L 17,34 L 15,36 L 14,36 L 13,37 L 9,37 L 8,38 L 6,38 L 5,39 L 3,39 L 3,40 L 1,42 L 1,43 L 0,44 L 0,45 L 2,45 L 4,47 L 4,51 L 5,51 L 6,52 L 6,53 L 8,55 L 8,56 L 12,56 L 16,52 L 16,50 L 20,46 L 24,46 L 26,44 L 26,42 L 29,39 L 31,39 L 32,38 L 32,37 L 33,36 L 33,35 L 34,34 L 35,34 L 37,32 L 37,30 L 31,30 L 30,31 L 27,31 L 26,30 L 26,29 Z" fill="none" stroke="black" stroke-width="1"/>
</svg>