<svg xmlns="http://www.w3.org/2000/svg" width="243" height="92">
  <path d="M 238,0 L 237,1 L 236,1 L 233,4 L 230,4 L 229,5 L 221,5 L 220,6 L 215,6 L 214,7 L 211,7 L 210,8 L 209,8 L 208,9 L 207,9 L 203,13 L 202,13 L 201,14 L 200,14 L 198,16 L 197,16 L 191,22 L 190,22 L 189,23 L 189,24 L 188,25 L 187,25 L 187,26 L 186,27 L 188,29 L 188,33 L 190,35 L 190,38 L 191,38 L 192,37 L 193,37 L 194,36 L 194,35 L 195,34 L 196,34 L 197,33 L 198,33 L 199,32 L 199,31 L 202,28 L 203,28 L 204,27 L 205,27 L 206,26 L 207,27 L 208,26 L 208,22 L 210,20 L 212,20 L 213,19 L 213,18 L 212,17 L 213,16 L 222,16 L 224,14 L 225,14 L 227,12 L 228,13 L 230,13 L 231,12 L 232,12 L 233,11 L 235,11 L 237,13 L 239,13 L 240,12 L 241,12 L 242,11 L 241,10 L 241,6 L 242,5 L 242,3 L 241,3 L 240,2 L 239,2 L 238,1 Z" fill="none" stroke="black" stroke-width="1"/>
</svg>