<svg xmlns="http://www.w3.org/2000/svg" width="137" height="180">
  <path d="M 132,139 L 135,139 Z" fill="none" stroke="black" stroke-width="1"/>
  <path d="M 129,136 L 130,137 L 131,137 L 130,136 Z" fill="none" stroke="black" stroke-width="1"/>
  <path d="M 95,123 L 94,124 L 101,124 L 102,125 L 100,127 L 97,127 L 96,128 L 94,128 L 93,129 L 93,131 L 92,132 L 92,133 L 91,134 L 91,135 L 92,135 L 97,140 L 98,140 L 99,141 L 99,142 L 103,142 L 104,143 L 104,144 L 107,144 L 111,148 L 111,149 L 112,150 L 112,153 L 115,156 L 115,157 L 116,158 L 116,165 L 117,166 L 117,167 L 116,168 L 116,170 L 117,170 L 118,171 L 119,171 L 120,172 L 120,174 L 119,175 L 119,179 L 120,179 L 123,176 L 124,176 L 125,175 L 126,175 L 127,174 L 128,174 L 129,173 L 130,173 L 132,171 L 133,171 L 134,170 L 134,169 L 136,167 L 136,166 L 134,164 L 132,164 L 131,163 L 130,163 L 128,161 L 129,160 L 131,160 L 132,161 L 133,161 L 134,162 L 136,162 L 136,161 L 135,160 L 128,160 L 127,159 L 128,158 L 129,158 L 130,157 L 134,157 L 134,156 L 132,156 L 130,154 L 132,152 L 134,152 L 133,151 L 133,150 L 132,149 L 132,148 L 134,146 L 134,145 L 135,144 L 134,143 L 134,142 L 133,141 L 132,142 L 131,142 L 130,141 L 130,139 L 129,139 L 127,137 L 127,136 L 123,136 L 121,134 L 122,133 L 124,133 L 122,133 L 121,134 L 118,134 L 117,133 L 113,137 L 113,138 L 111,140 L 110,139 L 110,136 L 109,136 L 108,135 L 109,134 L 110,134 L 111,133 L 112,133 L 114,131 L 113,130 L 112,130 L 111,129 L 111,128 L 110,127 L 110,125 L 109,124 L 107,124 L 106,123 Z" fill="none" stroke="black" stroke-width="1"/>
</svg>