<svg xmlns="http://www.w3.org/2000/svg" width="172" height="189">
  <path d="M 120,0 L 120,1 L 121,2 L 121,3 L 122,4 L 123,4 L 126,7 L 126,8 L 128,10 L 128,11 L 130,13 L 130,14 L 131,15 L 131,17 L 132,18 L 132,20 L 133,21 L 133,22 L 134,23 L 134,26 L 135,27 L 134,28 L 134,30 L 135,31 L 135,45 L 134,46 L 134,48 L 133,49 L 133,50 L 128,55 L 128,56 L 127,57 L 126,57 L 126,59 L 122,63 L 121,63 L 118,66 L 117,66 L 114,69 L 113,69 L 113,70 L 114,70 L 115,71 L 116,71 L 117,72 L 118,72 L 119,73 L 120,73 L 121,74 L 126,74 L 127,73 L 128,73 L 130,71 L 131,72 L 131,73 L 132,73 L 135,76 L 134,77 L 134,78 L 136,78 L 139,75 L 140,75 L 141,74 L 142,74 L 146,70 L 147,70 L 148,69 L 149,69 L 151,67 L 152,67 L 153,66 L 155,66 L 157,64 L 158,64 L 160,62 L 160,61 L 164,57 L 164,56 L 169,51 L 169,49 L 170,48 L 171,48 L 171,46 L 170,45 L 169,45 L 167,43 L 166,43 L 165,44 L 161,44 L 159,42 L 159,40 L 158,39 L 162,35 L 166,35 L 166,32 L 165,31 L 165,29 L 164,28 L 163,28 L 161,26 L 160,26 L 159,25 L 158,25 L 155,22 L 155,21 L 151,21 L 151,22 L 150,23 L 148,23 L 147,22 L 147,21 L 149,19 L 149,18 L 151,16 L 151,14 L 150,14 L 144,8 L 143,8 L 140,5 L 139,5 L 138,4 L 137,4 L 136,3 L 134,3 L 133,2 L 131,2 L 130,1 L 128,1 L 127,0 Z" fill="none" stroke="black" stroke-width="1"/>
</svg>