<svg xmlns="http://www.w3.org/2000/svg" width="172" height="189">
  <path d="M 111,70 L 110,71 L 109,71 L 106,74 L 105,74 L 104,75 L 102,75 L 101,76 L 99,76 L 98,77 L 97,77 L 96,78 L 94,78 L 93,79 L 91,79 L 90,80 L 88,80 L 87,81 L 86,81 L 85,82 L 84,82 L 86,82 L 88,84 L 88,87 L 89,88 L 89,89 L 90,90 L 90,91 L 91,92 L 94,92 L 95,93 L 94,94 L 95,95 L 96,95 L 97,96 L 96,97 L 95,97 L 95,98 L 96,99 L 95,100 L 95,101 L 94,102 L 97,105 L 97,106 L 96,107 L 95,107 L 95,108 L 97,110 L 97,111 L 98,112 L 98,115 L 97,116 L 97,118 L 98,119 L 98,120 L 99,120 L 100,121 L 100,122 L 99,123 L 99,124 L 101,126 L 100,127 L 101,127 L 104,130 L 104,133 L 105,133 L 106,134 L 108,134 L 109,135 L 115,135 L 116,136 L 117,136 L 121,140 L 122,140 L 126,144 L 128,144 L 134,138 L 134,130 L 138,126 L 138,125 L 139,124 L 139,123 L 140,122 L 140,111 L 139,110 L 139,107 L 138,106 L 138,105 L 137,104 L 137,103 L 136,102 L 134,102 L 132,100 L 131,100 L 128,103 L 126,103 L 125,102 L 123,102 L 119,98 L 119,97 L 118,96 L 118,94 L 120,92 L 121,92 L 122,93 L 124,91 L 126,91 L 127,90 L 129,90 L 130,91 L 130,90 L 131,89 L 131,85 L 132,84 L 132,82 L 134,80 L 134,79 L 133,78 L 133,77 L 134,76 L 132,74 L 131,74 L 130,73 L 130,72 L 128,74 L 127,74 L 126,75 L 121,75 L 120,74 L 119,74 L 118,73 L 117,73 L 116,72 L 115,72 L 114,71 L 113,71 L 112,70 Z" fill="none" stroke="black" stroke-width="1"/>
</svg>