<svg xmlns="http://www.w3.org/2000/svg" width="172" height="189">
  <path d="M 90,138 L 89,139 L 88,139 L 87,140 L 86,140 L 90,140 L 91,139 L 91,138 Z" fill="none" stroke="black" stroke-width="1"/>
  <path d="M 104,134 L 104,135 L 103,136 L 103,137 L 99,141 L 98,141 L 99,142 L 99,143 L 98,144 L 96,144 L 96,145 L 99,148 L 99,151 L 98,152 L 98,156 L 97,157 L 96,156 L 96,152 L 94,150 L 92,150 L 91,149 L 91,147 L 90,147 L 88,149 L 88,150 L 86,152 L 86,153 L 85,154 L 85,156 L 87,158 L 87,159 L 88,160 L 88,163 L 87,164 L 88,165 L 88,166 L 90,168 L 90,169 L 91,170 L 91,172 L 92,173 L 92,176 L 91,177 L 91,178 L 90,179 L 90,183 L 91,184 L 91,188 L 92,188 L 93,187 L 98,187 L 104,181 L 109,181 L 110,180 L 112,180 L 112,179 L 113,178 L 113,177 L 114,176 L 114,175 L 115,174 L 117,174 L 119,172 L 119,171 L 120,170 L 120,169 L 121,168 L 121,164 L 122,163 L 122,161 L 121,160 L 121,159 L 120,158 L 120,157 L 118,155 L 120,153 L 121,153 L 124,150 L 124,148 L 125,147 L 125,144 L 122,141 L 121,141 L 117,137 L 116,137 L 115,136 L 109,136 L 108,135 L 106,135 L 105,134 Z" fill="none" stroke="black" stroke-width="1"/>
  <path d="M 81,115 L 82,116 L 83,116 L 82,115 Z" fill="none" stroke="black" stroke-width="1"/>
  <path d="M 80,110 L 79,111 L 80,112 L 81,112 L 81,111 Z" fill="none" stroke="black" stroke-width="1"/>
  <path d="M 84,77 L 84,78 L 86,78 L 86,77 Z" fill="none" stroke="black" stroke-width="1"/>
  <path d="M 88,76 L 88,77 L 90,77 L 90,76 Z" fill="none" stroke="black" stroke-width="1"/>
  <path d="M 92,75 L 92,76 L 94,76 L 95,75 Z" fill="none" stroke="black" stroke-width="1"/>
  <path d="M 96,51 L 96,53 L 98,51 Z" fill="none" stroke="black" stroke-width="1"/>
  <path d="M 84,43 L 83,44 L 82,44 L 81,45 L 80,45 L 79,46 L 79,47 L 80,47 L 81,46 L 83,46 L 86,43 Z" fill="none" stroke="black" stroke-width="1"/>
  <path d="M 92,39 L 92,41 L 91,42 L 91,44 L 90,45 L 90,47 L 89,48 L 88,48 L 87,47 L 88,46 L 88,44 L 89,43 L 89,40 L 89,42 L 88,43 L 88,45 L 87,46 L 87,47 L 81,53 L 81,54 L 82,55 L 84,53 L 84,52 L 87,49 L 88,49 L 89,50 L 87,52 L 87,53 L 86,54 L 87,54 L 88,55 L 89,54 L 89,53 L 91,51 L 91,50 L 92,49 L 93,50 L 93,52 L 92,53 L 92,55 L 93,55 L 93,54 L 94,53 L 94,50 L 95,49 L 95,48 L 94,47 L 94,45 L 95,44 L 96,45 L 96,46 L 97,46 L 98,47 L 98,48 L 97,49 L 98,49 L 99,48 L 100,48 L 101,47 L 101,42 L 100,42 L 99,43 L 99,46 L 98,47 L 97,46 L 97,42 L 95,42 L 94,41 L 94,40 L 93,39 Z" fill="none" stroke="black" stroke-width="1"/>
  <path d="M 87,34 L 87,37 L 88,37 L 88,34 Z" fill="none" stroke="black" stroke-width="1"/>
  <path d="M 84,32 L 83,33 L 81,33 L 81,34 L 82,35 L 82,34 L 83,33 L 84,33 Z" fill="none" stroke="black" stroke-width="1"/>
  <path d="M 84,16 L 83,17 L 83,19 L 84,19 L 84,18 L 85,17 Z" fill="none" stroke="black" stroke-width="1"/>
</svg>