<svg xmlns="http://www.w3.org/2000/svg" width="1028" height="413">
  <path d="M 653,273 L 653,274 L 652,275 L 652,281 L 650,283 L 650,285 L 648,287 L 647,287 L 645,289 L 644,289 L 644,291 L 643,292 L 643,293 L 642,294 L 642,297 L 644,297 L 645,296 L 646,297 L 650,297 L 651,298 L 652,298 L 653,299 L 653,298 L 654,297 L 655,297 L 657,299 L 658,299 L 659,300 L 658,301 L 658,302 L 659,302 L 660,301 L 662,303 L 661,304 L 654,304 L 653,303 L 653,304 L 652,305 L 651,304 L 651,303 L 650,302 L 651,301 L 651,300 L 649,300 L 650,301 L 649,302 L 648,302 L 647,301 L 646,301 L 644,299 L 644,300 L 643,301 L 642,300 L 642,301 L 640,303 L 641,304 L 640,305 L 639,305 L 638,306 L 637,306 L 636,307 L 634,307 L 632,309 L 631,308 L 628,308 L 628,309 L 629,309 L 630,310 L 631,310 L 634,313 L 635,313 L 637,315 L 637,316 L 638,317 L 642,317 L 643,318 L 644,318 L 645,319 L 646,318 L 647,318 L 648,317 L 649,317 L 650,316 L 651,316 L 652,315 L 653,315 L 654,314 L 655,314 L 656,313 L 656,309 L 657,308 L 657,307 L 658,306 L 660,308 L 659,309 L 660,310 L 660,311 L 661,312 L 661,313 L 661,312 L 662,311 L 662,310 L 664,308 L 665,308 L 666,307 L 667,307 L 667,303 L 668,302 L 669,303 L 672,303 L 672,302 L 671,301 L 670,301 L 669,302 L 667,302 L 666,303 L 664,303 L 663,302 L 663,301 L 665,299 L 666,300 L 667,300 L 668,299 L 669,299 L 671,297 L 672,297 L 673,296 L 673,295 L 675,293 L 679,293 L 678,292 L 677,292 L 676,291 L 677,290 L 679,290 L 678,289 L 677,289 L 676,288 L 676,287 L 675,286 L 675,285 L 674,284 L 670,284 L 668,282 L 668,281 L 669,280 L 670,281 L 671,281 L 669,279 L 666,279 L 664,277 L 664,276 L 662,274 L 662,273 L 661,273 L 660,274 L 659,274 L 659,275 L 658,276 L 656,274 L 657,273 Z" fill="none" stroke="black" stroke-width="1"/>
</svg>