<svg xmlns="http://www.w3.org/2000/svg" width="1028" height="413">
  <path d="M 628,310 L 627,311 L 625,311 L 623,313 L 623,314 L 622,315 L 621,314 L 619,314 L 618,315 L 617,315 L 617,316 L 615,318 L 613,318 L 613,319 L 612,320 L 614,322 L 612,324 L 610,324 L 609,325 L 609,326 L 608,327 L 608,329 L 607,330 L 611,330 L 612,331 L 613,331 L 614,330 L 615,330 L 616,331 L 616,332 L 617,332 L 618,333 L 618,335 L 617,336 L 617,337 L 619,339 L 622,339 L 625,336 L 627,336 L 628,337 L 629,337 L 630,336 L 631,336 L 631,334 L 630,333 L 630,332 L 631,331 L 633,331 L 635,329 L 639,329 L 640,330 L 643,330 L 644,329 L 644,327 L 643,326 L 643,325 L 642,324 L 644,322 L 645,322 L 645,321 L 644,321 L 642,319 L 642,318 L 638,318 L 636,316 L 636,315 L 635,314 L 634,314 L 631,311 L 630,311 L 629,310 Z" fill="none" stroke="black" stroke-width="1"/>
</svg>