<svg xmlns="http://www.w3.org/2000/svg" width="1028" height="413">
  <path d="M 746,102 L 746,103 L 744,105 L 743,105 L 742,106 L 741,106 L 739,108 L 738,108 L 738,109 L 737,110 L 736,110 L 735,111 L 734,111 L 734,112 L 732,114 L 732,117 L 731,118 L 730,118 L 730,119 L 729,120 L 729,121 L 727,123 L 724,123 L 723,124 L 722,124 L 722,125 L 720,127 L 720,128 L 719,129 L 719,130 L 718,131 L 717,131 L 716,132 L 715,132 L 713,134 L 709,134 L 709,137 L 708,138 L 707,137 L 701,137 L 701,139 L 699,141 L 697,141 L 696,142 L 695,142 L 692,145 L 686,145 L 686,147 L 687,148 L 687,155 L 688,156 L 688,157 L 689,158 L 689,159 L 686,162 L 685,162 L 683,164 L 683,167 L 682,168 L 682,169 L 680,171 L 680,173 L 679,174 L 678,174 L 676,176 L 675,176 L 674,177 L 674,180 L 673,181 L 673,184 L 669,188 L 668,188 L 666,190 L 665,190 L 664,191 L 668,191 L 669,192 L 669,193 L 670,193 L 671,194 L 672,194 L 673,195 L 677,195 L 683,201 L 683,202 L 684,203 L 684,204 L 685,204 L 685,202 L 686,201 L 687,201 L 689,203 L 689,204 L 690,204 L 690,202 L 693,199 L 696,199 L 697,198 L 700,198 L 700,197 L 701,196 L 701,195 L 702,194 L 703,195 L 704,194 L 705,194 L 706,193 L 706,192 L 708,190 L 708,188 L 709,187 L 709,186 L 713,182 L 715,182 L 718,179 L 718,177 L 717,177 L 716,176 L 715,176 L 714,175 L 713,175 L 711,173 L 712,172 L 713,172 L 714,173 L 714,171 L 711,171 L 710,170 L 711,169 L 712,169 L 712,168 L 715,165 L 716,165 L 716,164 L 717,163 L 718,163 L 718,161 L 714,157 L 715,156 L 716,156 L 719,159 L 720,158 L 719,157 L 718,157 L 717,156 L 717,155 L 718,154 L 719,154 L 720,155 L 724,155 L 725,154 L 725,153 L 726,152 L 726,151 L 725,151 L 724,150 L 722,150 L 721,149 L 721,148 L 722,147 L 723,148 L 725,148 L 726,149 L 727,149 L 728,150 L 730,150 L 731,151 L 731,150 L 729,148 L 729,145 L 731,143 L 733,143 L 735,145 L 736,145 L 736,144 L 735,143 L 736,142 L 737,142 L 742,147 L 743,146 L 744,146 L 744,145 L 745,144 L 746,145 L 748,145 L 749,144 L 751,144 L 752,145 L 756,145 L 757,144 L 759,144 L 759,141 L 756,138 L 756,137 L 755,137 L 752,134 L 752,133 L 750,131 L 750,130 L 751,129 L 751,128 L 754,125 L 754,121 L 756,119 L 756,118 L 755,117 L 755,116 L 752,113 L 752,112 L 749,109 L 749,108 L 750,107 L 750,106 L 751,105 L 752,105 L 752,103 L 751,102 Z" fill="none" stroke="black" stroke-width="1"/>
</svg>