<svg xmlns="http://www.w3.org/2000/svg" width="776" height="467">
  <path d="M 128,349 L 127,350 L 126,350 L 125,351 L 124,351 L 121,354 L 122,355 L 121,356 L 121,357 L 120,358 L 120,359 L 122,361 L 123,361 L 127,365 L 124,368 L 125,369 L 124,370 L 124,371 L 125,371 L 126,372 L 127,371 L 128,371 L 130,373 L 130,374 L 129,375 L 128,374 L 127,375 L 127,376 L 128,375 L 129,376 L 129,377 L 127,379 L 127,380 L 128,381 L 129,381 L 131,383 L 133,381 L 134,382 L 134,383 L 138,383 L 140,385 L 144,385 L 145,386 L 149,386 L 150,387 L 153,387 L 154,386 L 155,386 L 157,388 L 159,386 L 160,386 L 161,387 L 162,387 L 163,388 L 170,388 L 171,387 L 172,387 L 173,386 L 174,386 L 175,385 L 179,385 L 180,384 L 182,384 L 182,382 L 181,381 L 181,380 L 180,379 L 180,378 L 176,374 L 176,373 L 175,372 L 173,372 L 172,371 L 162,371 L 160,369 L 159,369 L 158,368 L 150,368 L 148,366 L 147,366 L 143,362 L 143,361 L 142,360 L 142,358 L 141,357 L 141,356 L 140,355 L 140,353 L 139,352 L 139,350 L 136,350 L 135,349 Z" fill="none" stroke="black" stroke-width="1"/>
</svg>