<svg xmlns="http://www.w3.org/2000/svg" width="753" height="314">
  <path d="M 685,224 L 679,230 L 674,230 L 673,231 L 672,231 L 671,232 L 671,234 L 673,236 L 673,241 L 671,243 L 672,244 L 672,245 L 673,246 L 673,248 L 672,249 L 672,251 L 671,252 L 671,253 L 669,255 L 669,256 L 670,256 L 671,257 L 671,258 L 673,258 L 675,260 L 677,260 L 678,261 L 679,261 L 680,262 L 680,263 L 682,265 L 684,265 L 685,266 L 690,266 L 691,267 L 698,267 L 698,264 L 697,263 L 697,262 L 696,261 L 696,252 L 695,251 L 695,247 L 694,246 L 694,244 L 693,243 L 693,242 L 690,239 L 690,238 L 689,237 L 689,236 L 688,235 L 688,227 L 689,226 L 689,224 Z" fill="none" stroke="black" stroke-width="1"/>
</svg>