<svg xmlns="http://www.w3.org/2000/svg" width="753" height="314">
  <path d="M 634,170 L 634,171 L 633,172 L 632,172 L 630,174 L 629,174 L 627,176 L 625,176 L 620,181 L 614,181 L 613,182 L 612,182 L 608,186 L 607,186 L 605,188 L 605,190 L 601,194 L 601,195 L 602,196 L 602,199 L 601,200 L 602,201 L 602,203 L 604,203 L 605,204 L 607,204 L 608,205 L 613,205 L 614,206 L 615,206 L 620,211 L 623,208 L 629,208 L 630,209 L 631,209 L 632,210 L 633,210 L 634,211 L 638,211 L 641,214 L 642,214 L 644,216 L 645,216 L 646,217 L 647,217 L 648,218 L 649,218 L 650,219 L 651,219 L 652,220 L 653,220 L 654,221 L 658,221 L 659,222 L 661,222 L 662,223 L 667,223 L 669,225 L 670,225 L 670,221 L 671,220 L 671,219 L 672,218 L 672,215 L 671,214 L 671,212 L 670,211 L 670,210 L 668,208 L 668,207 L 667,206 L 668,205 L 668,202 L 667,201 L 667,200 L 665,198 L 664,198 L 663,199 L 661,197 L 658,197 L 657,196 L 655,196 L 654,195 L 654,193 L 652,191 L 652,188 L 649,185 L 648,185 L 646,183 L 646,182 L 645,181 L 643,181 L 642,180 L 640,180 L 639,179 L 639,178 L 638,177 L 634,177 L 633,176 L 634,175 L 635,175 L 636,174 L 637,174 L 637,172 L 636,171 L 635,171 Z" fill="none" stroke="black" stroke-width="1"/>
  <path d="M 632,156 L 632,157 L 630,159 L 630,160 L 631,160 L 632,161 L 635,161 L 636,162 L 639,162 L 640,163 L 642,163 L 643,164 L 644,164 L 645,165 L 648,165 L 649,166 L 650,166 L 650,164 L 649,163 L 649,162 L 648,161 L 648,160 L 644,156 Z" fill="none" stroke="black" stroke-width="1"/>
</svg>