<svg xmlns="http://www.w3.org/2000/svg" width="753" height="314">
  <path d="M 600,109 L 599,110 L 598,110 L 597,111 L 596,110 L 593,110 L 592,111 L 587,111 L 587,113 L 584,116 L 584,117 L 583,118 L 583,119 L 582,120 L 582,121 L 581,122 L 581,126 L 583,126 L 585,128 L 585,130 L 588,130 L 589,131 L 590,131 L 597,138 L 597,140 L 598,141 L 598,142 L 599,143 L 599,144 L 601,146 L 601,147 L 603,149 L 603,152 L 602,153 L 602,154 L 600,156 L 600,159 L 597,162 L 597,163 L 598,164 L 598,166 L 597,167 L 597,175 L 602,180 L 602,181 L 603,182 L 603,183 L 604,184 L 605,184 L 606,185 L 608,185 L 612,181 L 613,181 L 614,180 L 620,180 L 625,175 L 627,175 L 629,173 L 630,173 L 632,171 L 633,171 L 633,169 L 630,166 L 630,165 L 627,162 L 626,162 L 625,161 L 625,156 L 627,154 L 628,154 L 628,152 L 627,151 L 627,149 L 626,148 L 626,146 L 627,145 L 627,144 L 628,143 L 628,142 L 627,141 L 627,139 L 626,138 L 626,137 L 623,134 L 623,129 L 624,128 L 624,126 L 625,125 L 625,123 L 626,122 L 626,119 L 625,118 L 625,115 L 624,115 L 622,113 L 616,113 L 615,112 L 615,111 L 614,111 L 613,112 L 608,112 L 607,111 L 606,111 L 605,112 L 604,111 L 603,111 L 602,110 L 601,110 Z" fill="none" stroke="black" stroke-width="1"/>
</svg>