<svg xmlns="http://www.w3.org/2000/svg" width="753" height="314">
  <path d="M 486,66 L 485,67 L 484,67 L 483,68 L 480,68 L 479,69 L 477,69 L 476,70 L 474,70 L 473,71 L 471,71 L 470,70 L 468,70 L 467,71 L 466,71 L 465,72 L 464,71 L 464,70 L 444,70 L 443,69 L 437,69 L 435,71 L 435,72 L 430,77 L 428,77 L 426,79 L 426,80 L 422,84 L 421,84 L 420,85 L 419,85 L 418,86 L 414,86 L 413,87 L 411,87 L 410,88 L 409,88 L 405,92 L 406,93 L 407,93 L 408,94 L 409,94 L 411,96 L 411,97 L 413,99 L 413,100 L 429,100 L 430,101 L 431,101 L 432,102 L 434,102 L 435,103 L 438,103 L 439,104 L 440,104 L 441,105 L 440,106 L 440,107 L 454,107 L 455,106 L 457,106 L 458,105 L 460,105 L 461,104 L 463,104 L 464,103 L 470,103 L 471,104 L 474,104 L 475,105 L 476,105 L 477,106 L 478,106 L 479,107 L 481,107 L 482,108 L 483,108 L 485,110 L 487,110 L 487,109 L 486,109 L 485,108 L 485,107 L 486,106 L 488,106 L 488,104 L 487,104 L 486,103 L 487,102 L 486,101 L 489,98 L 489,97 L 491,95 L 492,95 L 493,94 L 494,94 L 494,93 L 496,91 L 497,91 L 498,90 L 498,89 L 499,88 L 500,88 L 502,86 L 502,84 L 504,82 L 505,82 L 506,81 L 507,81 L 508,80 L 510,80 L 511,79 L 511,78 L 512,77 L 512,76 L 515,73 L 510,73 L 509,72 L 506,72 L 504,70 L 503,70 L 502,69 L 501,69 L 500,68 L 499,68 L 498,67 L 496,67 L 495,66 Z" fill="none" stroke="black" stroke-width="1"/>
</svg>