<svg xmlns="http://www.w3.org/2000/svg" width="753" height="314">
  <path d="M 429,0 L 428,1 L 427,1 L 426,2 L 425,2 L 421,6 L 419,6 L 418,7 L 416,7 L 415,8 L 414,8 L 413,9 L 412,9 L 412,10 L 410,12 L 410,13 L 408,15 L 408,16 L 405,19 L 405,20 L 404,21 L 404,22 L 403,23 L 403,25 L 402,26 L 402,27 L 401,28 L 401,29 L 397,33 L 397,34 L 396,35 L 396,36 L 395,37 L 395,38 L 394,39 L 394,40 L 392,42 L 392,44 L 390,46 L 390,48 L 389,49 L 389,50 L 388,51 L 388,52 L 387,53 L 387,54 L 386,55 L 386,56 L 385,57 L 385,58 L 383,60 L 383,61 L 382,62 L 382,63 L 377,68 L 376,68 L 373,71 L 372,71 L 371,72 L 381,82 L 382,82 L 386,86 L 387,86 L 388,87 L 389,87 L 391,89 L 392,89 L 393,90 L 397,90 L 398,91 L 401,91 L 402,92 L 404,92 L 409,87 L 410,87 L 411,86 L 413,86 L 414,85 L 418,85 L 419,84 L 420,84 L 421,83 L 422,83 L 425,80 L 425,79 L 428,76 L 430,76 L 434,72 L 434,71 L 437,68 L 443,68 L 444,69 L 465,69 L 466,68 L 466,67 L 467,66 L 467,62 L 466,61 L 466,59 L 465,58 L 465,57 L 464,56 L 464,55 L 463,54 L 463,53 L 462,52 L 462,50 L 461,49 L 461,46 L 460,45 L 460,44 L 459,43 L 459,42 L 457,40 L 457,38 L 456,37 L 456,31 L 453,31 L 452,32 L 451,32 L 450,31 L 448,31 L 447,30 L 446,31 L 441,31 L 440,32 L 439,31 L 438,32 L 437,32 L 432,27 L 432,26 L 431,25 L 431,24 L 430,23 L 430,18 L 431,17 L 432,17 L 431,16 L 431,15 L 430,14 L 430,0 Z" fill="none" stroke="black" stroke-width="1"/>
</svg>