<svg xmlns="http://www.w3.org/2000/svg" width="776" height="467">
  <path d="M 58,301 L 57,302 L 55,302 L 54,303 L 47,303 L 46,304 L 43,304 L 42,305 L 39,305 L 38,306 L 35,306 L 33,308 L 31,308 L 31,309 L 32,309 L 34,311 L 34,313 L 32,315 L 32,316 L 31,317 L 31,318 L 30,319 L 29,319 L 25,323 L 24,323 L 21,326 L 17,326 L 15,324 L 14,324 L 10,328 L 7,328 L 6,327 L 5,328 L 5,329 L 1,333 L 1,337 L 0,338 L 1,339 L 2,339 L 3,340 L 3,342 L 11,342 L 12,343 L 15,343 L 16,344 L 16,346 L 17,347 L 19,347 L 20,346 L 23,346 L 25,344 L 26,344 L 27,343 L 29,343 L 32,346 L 41,346 L 43,348 L 50,348 L 51,349 L 53,347 L 53,346 L 54,345 L 54,342 L 56,340 L 58,340 L 59,339 L 60,339 L 61,340 L 61,342 L 60,343 L 62,343 L 62,341 L 63,340 L 63,339 L 65,337 L 65,334 L 66,333 L 67,333 L 69,335 L 69,336 L 65,340 L 65,341 L 66,341 L 66,340 L 68,338 L 69,339 L 70,338 L 71,338 L 74,335 L 78,335 L 75,335 L 74,334 L 70,334 L 69,333 L 69,332 L 68,331 L 68,330 L 67,330 L 64,327 L 64,326 L 62,324 L 62,320 L 59,320 L 58,319 L 58,318 L 59,317 L 60,318 L 61,318 L 61,317 L 60,316 L 61,315 L 59,315 L 58,314 L 58,313 L 59,312 L 60,313 L 61,313 L 60,312 L 61,311 L 62,311 L 59,308 L 60,307 L 61,307 L 62,308 L 62,306 L 63,305 L 64,305 L 64,303 L 65,302 L 65,301 Z" fill="none" stroke="black" stroke-width="1"/>
</svg>