<svg xmlns="http://www.w3.org/2000/svg" width="753" height="314">
  <path d="M 384,251 L 385,251 Z" fill="none" stroke="black" stroke-width="1"/>
  <path d="M 402,200 L 401,201 L 401,204 L 400,205 L 397,205 L 395,207 L 395,208 L 394,209 L 394,211 L 393,212 L 393,213 L 392,214 L 392,215 L 391,216 L 391,217 L 393,219 L 393,223 L 392,224 L 392,225 L 389,228 L 389,229 L 388,230 L 388,231 L 386,233 L 386,237 L 384,239 L 384,240 L 383,241 L 383,242 L 384,243 L 384,245 L 386,247 L 386,248 L 387,249 L 393,249 L 394,250 L 402,250 L 403,251 L 410,251 L 411,250 L 412,250 L 413,251 L 413,252 L 414,252 L 415,253 L 420,253 L 422,251 L 423,251 L 424,250 L 425,250 L 425,248 L 426,247 L 426,246 L 427,245 L 427,244 L 428,243 L 428,242 L 429,241 L 429,240 L 430,239 L 430,234 L 433,231 L 433,229 L 431,227 L 431,222 L 430,222 L 429,221 L 429,218 L 428,218 L 427,217 L 426,217 L 423,214 L 418,214 L 417,213 L 416,213 L 414,211 L 413,211 L 406,204 L 405,204 L 404,203 L 404,200 Z" fill="none" stroke="black" stroke-width="1"/>
</svg>