<svg xmlns="http://www.w3.org/2000/svg" width="753" height="314">
  <path d="M 392,136 L 391,137 L 389,137 L 388,138 L 386,138 L 385,139 L 384,139 L 382,141 L 382,143 L 384,145 L 384,146 L 386,148 L 386,150 L 387,150 L 388,151 L 388,153 L 389,154 L 389,155 L 388,156 L 389,157 L 389,158 L 392,161 L 392,163 L 393,164 L 393,166 L 394,167 L 394,168 L 395,169 L 394,170 L 394,171 L 395,172 L 395,173 L 397,175 L 397,176 L 399,178 L 399,180 L 402,183 L 402,185 L 406,189 L 405,190 L 405,191 L 404,192 L 405,193 L 405,198 L 406,199 L 406,200 L 405,201 L 405,203 L 406,203 L 413,210 L 414,210 L 416,212 L 417,212 L 418,213 L 423,213 L 426,216 L 427,216 L 428,217 L 429,217 L 430,216 L 430,213 L 429,212 L 429,211 L 428,210 L 428,208 L 427,207 L 427,206 L 426,205 L 426,204 L 425,203 L 426,202 L 425,201 L 425,195 L 422,192 L 422,186 L 424,184 L 424,170 L 417,163 L 417,162 L 415,160 L 415,154 L 411,150 L 410,150 L 408,148 L 407,148 L 404,145 L 404,142 L 403,142 L 402,141 L 400,141 L 395,136 Z" fill="none" stroke="black" stroke-width="1"/>
</svg>