<svg xmlns="http://www.w3.org/2000/svg" width="753" height="314">
  <path d="M 400,190 L 398,192 L 398,193 L 400,191 Z" fill="none" stroke="black" stroke-width="1"/>
  <path d="M 372,168 L 372,174 L 369,177 L 369,178 L 368,179 L 368,180 L 367,181 L 367,182 L 368,183 L 368,185 L 367,186 L 368,187 L 368,188 L 370,188 L 371,189 L 371,190 L 368,193 L 368,195 L 371,195 L 373,197 L 374,197 L 379,202 L 379,203 L 380,204 L 380,206 L 378,208 L 377,208 L 376,209 L 371,209 L 370,208 L 370,204 L 369,203 L 369,201 L 367,199 L 367,198 L 365,196 L 365,195 L 363,193 L 363,192 L 364,191 L 365,192 L 365,191 L 364,191 L 362,189 L 362,188 L 361,187 L 361,190 L 360,191 L 360,193 L 354,199 L 351,199 L 350,200 L 350,201 L 349,202 L 347,202 L 346,203 L 345,203 L 345,204 L 344,205 L 343,205 L 343,206 L 342,207 L 342,208 L 344,208 L 345,209 L 346,209 L 348,211 L 349,211 L 352,214 L 353,214 L 354,215 L 355,215 L 356,216 L 358,216 L 359,217 L 362,217 L 363,218 L 364,218 L 365,219 L 366,219 L 368,221 L 371,221 L 381,231 L 381,232 L 382,233 L 382,234 L 383,235 L 384,235 L 385,234 L 385,233 L 387,231 L 387,230 L 388,229 L 388,228 L 391,225 L 391,224 L 392,223 L 392,219 L 390,217 L 390,216 L 391,215 L 391,214 L 392,213 L 392,212 L 393,211 L 393,209 L 394,208 L 394,207 L 396,205 L 396,204 L 395,203 L 395,200 L 394,199 L 395,198 L 395,197 L 394,196 L 394,195 L 395,194 L 395,193 L 396,192 L 396,190 L 395,190 L 394,189 L 395,188 L 395,187 L 397,185 L 397,184 L 398,183 L 397,182 L 397,181 L 395,181 L 393,183 L 393,184 L 391,186 L 390,185 L 390,177 L 389,176 L 389,175 L 388,174 L 386,176 L 385,175 L 385,174 L 386,173 L 383,173 L 383,177 L 382,178 L 381,177 L 379,177 L 378,176 L 378,174 L 376,172 L 376,171 L 373,168 Z" fill="none" stroke="black" stroke-width="1"/>
  <path d="M 379,166 L 379,168 Z" fill="none" stroke="black" stroke-width="1"/>
</svg>