<svg xmlns="http://www.w3.org/2000/svg" width="753" height="314">
  <path d="M 349,177 L 349,178 Z" fill="none" stroke="black" stroke-width="1"/>
  <path d="M 349,166 L 349,167 Z" fill="none" stroke="black" stroke-width="1"/>
  <path d="M 362,154 L 362,155 L 360,157 L 353,157 L 353,162 L 354,163 L 354,165 L 353,166 L 353,168 L 351,170 L 351,173 L 352,174 L 352,176 L 351,177 L 351,179 L 352,179 L 351,178 L 352,177 L 353,177 L 354,178 L 354,181 L 354,180 L 356,178 L 357,178 L 360,181 L 360,180 L 361,179 L 363,181 L 363,183 L 364,184 L 364,185 L 364,183 L 363,182 L 363,181 L 364,180 L 367,180 L 367,179 L 368,178 L 368,177 L 371,174 L 371,165 L 370,165 L 365,160 L 365,158 L 364,157 L 365,156 L 366,156 L 367,155 L 370,155 L 371,154 L 366,154 L 365,155 L 363,155 Z" fill="none" stroke="black" stroke-width="1"/>
  <path d="M 340,123 L 339,124 L 337,124 L 336,125 L 334,125 L 332,127 L 331,127 L 329,129 L 328,129 L 328,130 L 329,131 L 329,136 L 328,137 L 328,139 L 327,140 L 327,141 L 325,143 L 325,145 L 324,146 L 324,147 L 323,148 L 323,149 L 322,150 L 322,151 L 320,153 L 320,156 L 321,157 L 321,162 L 322,163 L 322,164 L 323,165 L 323,166 L 324,167 L 324,168 L 329,173 L 329,175 L 328,176 L 328,177 L 327,178 L 327,179 L 325,181 L 326,182 L 327,182 L 328,183 L 328,195 L 327,196 L 330,199 L 330,201 L 329,202 L 332,205 L 333,205 L 334,206 L 335,206 L 336,207 L 336,209 L 337,208 L 338,208 L 340,206 L 342,206 L 342,205 L 343,204 L 344,204 L 344,203 L 345,202 L 346,202 L 347,201 L 349,201 L 349,200 L 351,198 L 354,198 L 359,193 L 359,191 L 360,190 L 360,187 L 361,186 L 361,185 L 360,184 L 359,184 L 358,183 L 356,183 L 355,184 L 354,183 L 351,183 L 348,180 L 347,180 L 346,179 L 346,177 L 345,176 L 345,167 L 347,165 L 347,163 L 346,162 L 346,159 L 345,159 L 344,158 L 344,162 L 343,163 L 341,161 L 341,160 L 340,159 L 340,156 L 339,156 L 339,157 L 338,158 L 338,159 L 336,161 L 334,159 L 333,159 L 331,157 L 332,156 L 332,155 L 330,153 L 330,152 L 331,151 L 333,151 L 334,152 L 338,152 L 339,151 L 341,151 L 342,152 L 343,152 L 340,149 L 339,149 L 337,147 L 337,146 L 339,144 L 343,144 L 343,137 L 344,136 L 344,130 L 345,129 L 350,129 L 352,131 L 352,133 L 350,135 L 350,136 L 349,137 L 349,138 L 351,138 L 351,137 L 354,134 L 355,134 L 357,136 L 357,138 L 356,139 L 355,139 L 354,140 L 354,141 L 352,143 L 351,143 L 351,144 L 353,144 L 354,145 L 354,149 L 353,150 L 353,151 L 352,152 L 353,152 L 354,151 L 359,151 L 359,148 L 361,146 L 361,145 L 362,144 L 362,142 L 363,141 L 363,138 L 365,136 L 366,136 L 367,137 L 375,137 L 374,136 L 374,135 L 373,134 L 375,132 L 375,130 L 374,131 L 374,132 L 373,133 L 372,133 L 371,132 L 371,130 L 365,130 L 364,129 L 359,129 L 358,128 L 356,128 L 355,127 L 354,127 L 353,126 L 353,125 L 352,125 L 350,123 L 344,123 L 343,124 L 341,124 Z" fill="none" stroke="black" stroke-width="1"/>
</svg>