<svg xmlns="http://www.w3.org/2000/svg" width="412" height="441">
  <path d="M 42,365 L 42,366 L 44,368 L 46,366 L 45,365 Z" fill="none" stroke="black" stroke-width="1"/>
  <path d="M 52,358 L 51,359 L 51,362 L 50,363 L 50,364 L 49,365 L 50,365 L 51,364 L 51,362 L 52,361 Z" fill="none" stroke="black" stroke-width="1"/>
  <path d="M 42,333 L 40,335 L 39,335 L 38,336 L 39,337 L 39,341 L 41,343 L 41,346 L 39,348 L 39,349 L 40,350 L 43,350 L 44,351 L 45,351 L 45,350 L 43,348 L 43,345 L 44,344 L 44,343 L 46,341 L 47,341 L 48,342 L 48,344 L 47,345 L 47,346 L 48,347 L 48,352 L 47,353 L 48,353 L 49,352 L 50,352 L 52,350 L 52,349 L 51,348 L 51,347 L 52,346 L 53,346 L 53,343 L 52,342 L 52,341 L 51,340 L 51,338 L 50,337 L 50,335 L 47,335 L 46,334 L 45,334 L 44,333 Z" fill="none" stroke="black" stroke-width="1"/>
</svg>