<svg xmlns="http://www.w3.org/2000/svg" width="99" height="181">
  <path d="M 33,111 L 32,112 L 31,112 L 32,113 L 32,114 L 30,116 L 29,115 L 29,113 L 28,114 L 28,117 L 30,117 L 31,116 L 32,116 L 34,118 L 33,119 L 33,123 L 34,124 L 34,127 L 36,129 L 36,130 L 35,131 L 37,131 L 38,132 L 38,131 L 40,129 L 41,129 L 42,128 L 45,128 L 46,127 L 47,127 L 46,126 L 46,125 L 47,124 L 49,124 L 49,123 L 50,122 L 50,121 L 51,120 L 51,119 L 50,118 L 50,117 L 49,116 L 49,114 L 48,114 L 46,116 L 45,116 L 43,114 L 41,114 L 39,116 L 38,115 L 38,114 L 37,113 L 35,113 L 34,112 L 34,111 Z" fill="none" stroke="black" stroke-width="1"/>
</svg>