<svg xmlns="http://www.w3.org/2000/svg" width="412" height="441">
  <path d="M 59,307 L 59,308 L 58,309 L 58,311 L 57,312 L 53,312 L 52,311 L 51,311 L 51,313 L 50,314 L 50,315 L 49,316 L 49,317 L 51,317 L 54,320 L 54,321 L 55,322 L 55,324 L 56,324 L 57,325 L 59,323 L 60,323 L 61,324 L 61,325 L 62,326 L 64,324 L 64,323 L 66,321 L 66,320 L 64,318 L 64,317 L 63,316 L 64,315 L 60,315 L 58,313 L 59,312 L 61,312 L 61,311 L 62,310 L 62,308 L 61,307 Z" fill="none" stroke="black" stroke-width="1"/>
</svg>