<svg xmlns="http://www.w3.org/2000/svg" width="412" height="441">
  <path d="M 9,427 L 5,431 L 4,430 L 3,430 L 3,431 L 4,432 L 3,433 L 2,433 L 1,434 L 1,436 L 0,437 L 0,440 L 2,438 L 2,437 L 3,436 L 1,434 L 2,433 L 4,433 L 5,432 L 6,432 L 6,431 L 7,430 L 8,430 L 9,429 Z" fill="none" stroke="black" stroke-width="1"/>
  <path d="M 15,417 L 14,418 L 13,418 L 13,419 L 14,419 L 16,417 Z" fill="none" stroke="black" stroke-width="1"/>
  <path d="M 19,409 L 19,412 L 20,412 L 20,411 L 19,410 Z" fill="none" stroke="black" stroke-width="1"/>
  <path d="M 36,401 L 34,403 L 35,403 L 36,402 Z" fill="none" stroke="black" stroke-width="1"/>
  <path d="M 31,398 L 31,399 L 30,400 L 29,399 L 27,401 L 25,401 L 23,403 L 23,404 L 24,405 L 26,405 L 26,404 L 31,399 Z" fill="none" stroke="black" stroke-width="1"/>
</svg>