<svg xmlns="http://www.w3.org/2000/svg" width="182" height="244">
  <path d="M 114,72 L 113,73 L 112,73 L 111,74 L 110,74 L 109,75 L 110,75 L 111,76 L 113,76 L 115,78 L 114,79 L 114,80 L 115,81 L 115,83 L 117,85 L 119,85 L 122,88 L 122,90 L 123,91 L 123,93 L 124,94 L 125,94 L 126,95 L 127,95 L 129,93 L 130,93 L 131,94 L 133,94 L 134,93 L 134,88 L 131,85 L 129,85 L 127,83 L 127,82 L 126,82 L 125,81 L 125,80 L 124,79 L 124,78 L 123,77 L 123,76 L 122,75 L 120,75 L 119,74 L 116,74 Z" fill="none" stroke="black" stroke-width="1"/>
</svg>