<svg xmlns="http://www.w3.org/2000/svg" width="412" height="441">
  <path d="M 84,272 L 82,274 L 78,274 L 78,276 L 79,277 L 79,281 L 80,282 L 81,282 L 82,281 L 83,281 L 84,280 L 85,280 L 86,279 L 87,279 L 88,278 L 92,278 L 93,277 L 94,277 L 95,276 L 96,276 L 96,275 L 95,275 L 94,274 L 93,274 L 92,273 L 91,273 L 90,274 L 87,274 L 85,272 Z" fill="none" stroke="black" stroke-width="1"/>
  <path d="M 87,258 L 86,259 L 86,260 L 87,261 L 88,260 L 88,259 Z" fill="none" stroke="black" stroke-width="1"/>
</svg>