<svg xmlns="http://www.w3.org/2000/svg" width="182" height="244">
  <path d="M 156,117 L 155,118 L 151,118 L 150,119 L 148,119 L 148,120 L 149,120 L 150,121 L 150,123 L 149,124 L 148,124 L 148,127 L 149,128 L 149,129 L 150,130 L 151,130 L 152,131 L 153,130 L 154,130 L 155,131 L 158,131 L 160,133 L 165,133 L 167,131 L 167,129 L 166,128 L 166,127 L 165,126 L 165,125 L 162,122 L 163,121 L 163,120 L 162,121 L 160,119 L 160,118 L 159,117 L 158,117 L 157,118 Z" fill="none" stroke="black" stroke-width="1"/>
</svg>