<svg xmlns="http://www.w3.org/2000/svg" width="412" height="441">
  <path d="M 133,259 L 131,261 L 131,262 L 129,264 L 129,265 L 131,267 L 131,268 L 130,269 L 129,269 L 129,270 L 128,271 L 128,272 L 126,274 L 122,274 L 121,273 L 121,272 L 120,272 L 120,274 L 121,275 L 125,275 L 126,276 L 127,275 L 128,275 L 132,271 L 132,270 L 136,266 L 138,266 L 139,265 L 141,265 L 142,264 L 143,264 L 144,265 L 144,264 L 145,263 L 144,262 L 144,261 L 139,261 L 138,260 L 136,260 L 135,259 Z" fill="none" stroke="black" stroke-width="1"/>
</svg>