<svg xmlns="http://www.w3.org/2000/svg" width="412" height="441">
  <path d="M 167,222 L 167,223 L 165,225 L 165,226 L 164,227 L 165,227 L 166,228 L 166,229 L 165,230 L 164,230 L 166,230 L 167,229 L 168,229 L 168,228 L 169,227 L 169,226 L 168,226 L 167,225 L 167,224 L 168,223 L 168,222 Z" fill="none" stroke="black" stroke-width="1"/>
  <path d="M 185,217 L 185,218 L 184,219 L 184,222 L 183,223 L 183,224 L 179,228 L 178,228 L 177,229 L 176,229 L 175,230 L 174,230 L 174,231 L 173,232 L 173,234 L 171,236 L 171,237 L 167,241 L 166,241 L 164,243 L 163,243 L 162,244 L 161,244 L 160,245 L 158,245 L 157,246 L 156,246 L 155,247 L 155,248 L 156,249 L 157,249 L 158,250 L 158,249 L 160,247 L 161,247 L 162,248 L 165,248 L 166,247 L 166,246 L 167,245 L 168,245 L 172,249 L 172,250 L 173,249 L 174,249 L 175,248 L 175,247 L 176,246 L 176,243 L 177,242 L 178,242 L 179,241 L 180,241 L 180,238 L 181,237 L 181,236 L 180,235 L 181,234 L 182,234 L 183,233 L 184,233 L 185,232 L 186,233 L 186,230 L 187,229 L 188,229 L 187,229 L 186,228 L 186,226 L 185,225 L 186,224 L 186,222 L 187,221 L 188,222 L 189,222 L 189,221 L 188,220 L 188,219 L 187,218 L 188,217 Z" fill="none" stroke="black" stroke-width="1"/>
</svg>