<svg xmlns="http://www.w3.org/2000/svg" width="412" height="441">
  <path d="M 203,204 L 200,207 L 195,207 L 193,205 L 191,205 L 190,206 L 190,208 L 189,209 L 189,211 L 188,212 L 188,213 L 185,216 L 188,216 L 189,217 L 188,218 L 189,219 L 189,220 L 190,221 L 190,222 L 189,223 L 188,223 L 187,222 L 187,224 L 186,225 L 187,226 L 187,228 L 188,228 L 189,229 L 190,228 L 191,228 L 192,229 L 193,229 L 194,228 L 195,228 L 196,229 L 197,228 L 198,228 L 198,223 L 199,222 L 200,223 L 200,221 L 201,220 L 202,220 L 202,219 L 201,218 L 201,217 L 202,216 L 200,214 L 200,213 L 201,212 L 202,212 L 203,211 L 203,208 L 204,207 L 204,204 Z" fill="none" stroke="black" stroke-width="1"/>
</svg>