<svg xmlns="http://www.w3.org/2000/svg" width="412" height="441">
  <path d="M 204,211 L 202,213 L 201,213 L 201,214 L 203,216 L 202,217 L 202,218 L 203,219 L 203,220 L 202,221 L 201,221 L 201,223 L 200,224 L 199,223 L 199,228 L 198,229 L 197,229 L 196,230 L 195,229 L 194,229 L 193,230 L 192,230 L 191,229 L 190,229 L 189,230 L 187,230 L 187,233 L 186,234 L 185,233 L 184,234 L 183,234 L 182,235 L 181,235 L 182,236 L 182,237 L 181,238 L 181,239 L 183,241 L 182,242 L 182,243 L 183,244 L 183,245 L 184,244 L 184,243 L 185,242 L 186,243 L 187,242 L 188,242 L 189,241 L 191,241 L 191,239 L 192,238 L 194,238 L 195,237 L 196,238 L 197,238 L 198,239 L 198,242 L 199,243 L 199,244 L 202,244 L 203,245 L 203,246 L 205,244 L 207,244 L 207,240 L 208,239 L 208,237 L 207,236 L 207,232 L 206,231 L 206,230 L 205,229 L 205,226 L 206,225 L 206,224 L 207,223 L 207,221 L 208,220 L 209,220 L 210,219 L 213,219 L 215,221 L 215,222 L 215,212 L 214,212 L 213,213 L 209,213 L 207,211 Z" fill="none" stroke="black" stroke-width="1"/>
</svg>