<svg xmlns="http://www.w3.org/2000/svg" width="412" height="441">
  <path d="M 201,245 L 201,246 L 199,248 L 199,249 L 196,252 L 196,254 L 195,255 L 195,256 L 194,257 L 193,257 L 191,259 L 190,259 L 190,261 L 191,262 L 191,263 L 192,264 L 193,264 L 194,263 L 197,266 L 200,266 L 202,268 L 202,269 L 204,269 L 204,268 L 203,268 L 202,267 L 202,266 L 201,265 L 201,263 L 200,262 L 200,256 L 201,255 L 201,253 L 202,252 L 202,251 L 203,250 L 203,249 L 207,245 L 205,245 L 203,247 L 202,246 L 202,245 Z" fill="none" stroke="black" stroke-width="1"/>
</svg>