<svg xmlns="http://www.w3.org/2000/svg" width="412" height="441">
  <path d="M 211,91 L 210,92 L 211,93 L 212,93 L 212,92 Z" fill="none" stroke="black" stroke-width="1"/>
  <path d="M 221,87 L 220,88 L 219,88 L 218,89 L 218,90 L 217,91 L 217,92 L 218,93 L 218,94 L 219,95 L 219,96 L 220,97 L 220,99 L 221,100 L 221,104 L 220,105 L 220,107 L 218,109 L 218,116 L 216,118 L 215,118 L 214,119 L 214,120 L 216,120 L 217,121 L 218,121 L 223,116 L 225,118 L 225,119 L 227,121 L 227,122 L 229,124 L 230,124 L 231,125 L 232,125 L 233,124 L 233,123 L 234,122 L 237,122 L 238,121 L 238,120 L 239,119 L 240,120 L 242,120 L 243,121 L 245,121 L 246,122 L 253,122 L 254,123 L 258,123 L 259,122 L 262,122 L 263,121 L 265,121 L 267,119 L 268,119 L 274,113 L 274,112 L 275,111 L 275,109 L 272,112 L 271,112 L 266,117 L 265,116 L 260,116 L 256,112 L 254,112 L 253,113 L 251,113 L 249,111 L 249,110 L 247,110 L 246,109 L 245,109 L 242,106 L 241,106 L 232,97 L 232,96 L 231,95 L 231,94 L 230,94 L 227,91 L 227,90 L 226,89 L 225,89 L 223,87 Z" fill="none" stroke="black" stroke-width="1"/>
  <path d="M 208,87 L 208,88 Z" fill="none" stroke="black" stroke-width="1"/>
</svg>