<svg xmlns="http://www.w3.org/2000/svg" width="412" height="441">
  <path d="M 327,86 L 325,88 L 324,88 L 324,89 L 322,91 L 318,91 L 317,90 L 317,89 L 316,88 L 315,89 L 316,90 L 316,91 L 315,92 L 314,92 L 312,94 L 311,94 L 307,98 L 306,98 L 305,99 L 304,99 L 304,102 L 303,103 L 302,103 L 299,106 L 300,107 L 301,106 L 301,105 L 302,104 L 304,104 L 305,103 L 305,102 L 307,100 L 308,100 L 309,99 L 310,99 L 310,97 L 311,96 L 315,96 L 319,92 L 320,92 L 321,91 L 322,91 L 323,90 L 325,90 L 326,89 L 329,89 L 330,88 L 330,86 Z" fill="none" stroke="black" stroke-width="1"/>
  <path d="M 354,72 L 353,73 L 352,73 L 351,74 L 350,74 L 348,76 L 347,76 L 347,77 L 346,78 L 345,78 L 342,81 L 342,82 L 340,84 L 341,84 L 342,83 L 343,83 L 345,81 L 346,81 L 346,80 L 347,79 L 349,79 L 351,77 L 351,76 L 352,75 L 353,75 L 355,73 L 355,72 Z" fill="none" stroke="black" stroke-width="1"/>
  <path d="M 370,49 L 369,50 L 369,51 L 368,52 L 368,53 L 368,52 L 369,51 L 370,51 Z" fill="none" stroke="black" stroke-width="1"/>
  <path d="M 375,43 L 375,44 L 376,44 L 376,43 Z" fill="none" stroke="black" stroke-width="1"/>
  <path d="M 382,32 L 381,33 L 381,34 L 380,35 L 380,36 L 378,38 L 378,40 L 379,40 L 380,39 L 380,36 L 381,35 L 381,34 L 383,32 Z" fill="none" stroke="black" stroke-width="1"/>
  <path d="M 409,0 L 406,3 L 404,3 L 401,6 L 401,8 L 399,10 L 399,11 L 397,13 L 395,13 L 394,14 L 393,14 L 391,16 L 391,17 L 390,18 L 390,20 L 391,21 L 392,20 L 392,19 L 393,18 L 394,18 L 395,17 L 397,17 L 400,14 L 400,13 L 402,11 L 402,10 L 404,8 L 404,4 L 405,3 L 406,4 L 407,4 L 408,5 L 408,4 L 410,2 L 410,1 L 411,0 Z" fill="none" stroke="black" stroke-width="1"/>
  <path d="M 398,0 L 397,1 L 397,3 L 398,3 L 398,2 L 399,1 L 399,0 Z" fill="none" stroke="black" stroke-width="1"/>
</svg>