<svg xmlns="http://www.w3.org/2000/svg" width="402" height="344">
  <path d="M 377,87 L 376,88 L 375,88 L 374,89 L 374,90 L 370,94 L 368,94 L 365,97 L 365,98 L 363,100 L 363,102 L 364,103 L 364,105 L 363,106 L 363,107 L 361,109 L 361,112 L 360,113 L 360,116 L 361,117 L 361,118 L 362,119 L 362,123 L 363,124 L 362,125 L 362,137 L 361,138 L 361,143 L 360,144 L 360,148 L 358,150 L 358,154 L 360,156 L 360,157 L 361,158 L 361,159 L 362,160 L 362,164 L 363,165 L 363,167 L 361,169 L 361,170 L 360,171 L 360,173 L 359,174 L 359,180 L 360,181 L 360,182 L 361,183 L 361,185 L 360,186 L 360,187 L 359,188 L 359,190 L 358,191 L 358,192 L 357,193 L 357,198 L 358,199 L 358,203 L 359,204 L 359,206 L 360,207 L 361,207 L 362,206 L 362,203 L 363,202 L 363,199 L 364,198 L 364,197 L 365,196 L 365,195 L 366,194 L 366,193 L 367,192 L 368,192 L 369,191 L 370,191 L 371,192 L 371,193 L 372,194 L 380,194 L 381,195 L 381,200 L 382,201 L 382,204 L 382,202 L 383,201 L 383,200 L 384,199 L 384,198 L 383,197 L 383,191 L 382,190 L 381,191 L 381,192 L 380,193 L 379,193 L 376,190 L 376,185 L 375,184 L 375,182 L 374,181 L 374,180 L 372,178 L 371,178 L 369,176 L 369,175 L 368,174 L 368,172 L 367,171 L 367,166 L 368,165 L 368,163 L 369,162 L 369,161 L 370,160 L 370,158 L 371,157 L 371,155 L 372,154 L 372,152 L 373,151 L 373,150 L 374,149 L 374,145 L 375,144 L 375,143 L 376,142 L 377,142 L 378,141 L 379,141 L 378,141 L 377,140 L 377,138 L 378,137 L 381,137 L 382,138 L 382,139 L 381,140 L 389,140 L 390,141 L 391,141 L 392,142 L 392,143 L 399,150 L 399,155 L 400,155 L 400,154 L 401,153 L 401,149 L 400,149 L 395,144 L 395,143 L 394,142 L 394,138 L 393,137 L 393,135 L 392,134 L 392,132 L 391,131 L 391,128 L 390,127 L 390,125 L 389,124 L 389,123 L 387,121 L 387,120 L 386,119 L 386,115 L 385,114 L 385,110 L 384,109 L 384,107 L 383,106 L 383,101 L 382,101 L 380,99 L 380,98 L 381,97 L 382,97 L 382,96 L 381,95 L 381,94 L 380,93 L 380,94 L 379,95 L 378,94 L 378,92 L 379,91 L 379,89 Z" fill="none" stroke="black" stroke-width="1"/>
</svg>