<svg xmlns="http://www.w3.org/2000/svg" width="1190" height="502">
  <path d="M 990,350 L 989,351 L 991,351 L 992,352 L 997,352 L 998,353 L 999,353 L 998,353 L 996,351 L 993,351 L 992,350 Z" fill="none" stroke="black" stroke-width="1"/>
  <path d="M 965,349 L 963,351 L 962,351 L 964,351 L 966,353 L 966,354 L 968,356 L 969,356 L 970,357 L 973,357 L 974,358 L 975,358 L 975,356 L 974,355 L 972,355 L 969,352 L 969,351 L 968,350 L 969,349 Z" fill="none" stroke="black" stroke-width="1"/>
  <path d="M 905,300 L 904,301 L 903,301 L 902,302 L 900,302 L 899,303 L 898,302 L 897,303 L 895,303 L 894,304 L 892,304 L 891,303 L 887,303 L 886,302 L 883,302 L 882,301 L 880,301 L 879,302 L 878,302 L 877,303 L 876,303 L 873,306 L 872,306 L 871,307 L 870,307 L 869,308 L 867,308 L 866,309 L 859,309 L 858,308 L 857,309 L 856,309 L 856,310 L 855,311 L 854,311 L 853,312 L 852,312 L 843,321 L 841,321 L 840,322 L 835,322 L 835,323 L 834,324 L 834,325 L 831,328 L 826,328 L 825,327 L 824,327 L 821,330 L 822,330 L 824,332 L 824,337 L 823,338 L 823,339 L 821,341 L 821,342 L 819,344 L 819,345 L 817,347 L 816,346 L 816,347 L 814,349 L 814,350 L 812,352 L 811,352 L 810,353 L 809,353 L 809,355 L 808,356 L 806,356 L 806,359 L 805,360 L 805,361 L 804,362 L 804,364 L 803,365 L 803,367 L 802,368 L 802,370 L 801,371 L 801,372 L 800,373 L 800,376 L 799,377 L 799,380 L 798,381 L 798,383 L 797,384 L 797,388 L 796,389 L 796,395 L 795,396 L 796,397 L 795,398 L 795,406 L 796,407 L 795,408 L 796,409 L 796,412 L 795,413 L 796,414 L 796,421 L 797,422 L 796,423 L 796,424 L 797,425 L 797,426 L 796,427 L 796,447 L 795,448 L 795,450 L 796,451 L 796,455 L 797,456 L 797,465 L 798,466 L 797,467 L 797,474 L 796,475 L 796,478 L 795,479 L 795,485 L 796,485 L 797,486 L 797,491 L 796,492 L 796,493 L 797,492 L 797,491 L 798,490 L 799,490 L 799,489 L 803,485 L 804,485 L 806,483 L 806,482 L 810,478 L 810,477 L 812,475 L 813,475 L 814,474 L 815,474 L 820,469 L 820,468 L 823,465 L 823,464 L 824,463 L 824,462 L 825,461 L 825,460 L 826,459 L 826,458 L 830,454 L 830,452 L 831,451 L 830,450 L 830,448 L 832,446 L 832,443 L 834,441 L 834,440 L 835,439 L 836,439 L 842,433 L 843,433 L 845,431 L 847,431 L 851,427 L 852,427 L 853,428 L 855,428 L 856,429 L 858,429 L 857,428 L 857,426 L 856,425 L 856,424 L 855,423 L 855,421 L 856,420 L 857,421 L 857,420 L 858,419 L 856,417 L 856,415 L 857,414 L 857,412 L 858,411 L 858,410 L 859,409 L 859,408 L 870,397 L 871,397 L 875,393 L 877,393 L 879,391 L 882,391 L 883,392 L 884,392 L 885,391 L 887,391 L 888,390 L 890,390 L 898,382 L 898,380 L 893,375 L 893,367 L 894,366 L 894,364 L 895,363 L 895,362 L 896,361 L 897,361 L 897,360 L 898,359 L 898,358 L 899,357 L 899,356 L 900,355 L 900,353 L 902,351 L 903,351 L 905,349 L 906,349 L 909,346 L 907,344 L 908,343 L 909,343 L 912,340 L 916,340 L 917,341 L 916,342 L 915,342 L 911,346 L 911,348 L 913,350 L 916,350 L 922,344 L 922,339 L 921,338 L 921,333 L 919,333 L 917,335 L 916,335 L 914,333 L 914,330 L 915,329 L 915,320 L 919,316 L 920,316 L 921,315 L 921,314 L 922,313 L 922,312 L 923,311 L 923,310 L 924,309 L 924,308 L 923,307 L 922,307 L 921,308 L 920,308 L 918,306 L 915,306 L 914,307 L 913,307 L 913,308 L 912,309 L 912,312 L 910,314 L 909,313 L 909,312 L 908,311 L 906,311 L 904,309 L 904,308 L 903,307 L 903,306 L 904,305 L 904,303 L 905,302 L 905,301 L 906,300 Z" fill="none" stroke="black" stroke-width="1"/>
</svg>