<svg xmlns="http://www.w3.org/2000/svg" width="1190" height="502">
  <path d="M 948,267 L 944,271 L 943,271 L 941,273 L 940,273 L 938,275 L 936,275 L 937,276 L 935,278 L 935,280 L 934,281 L 934,283 L 932,285 L 932,286 L 931,287 L 930,287 L 929,288 L 929,290 L 929,289 L 933,285 L 934,285 L 942,277 L 943,277 L 944,276 L 946,276 L 947,275 L 948,275 L 950,273 L 950,270 L 949,269 L 949,267 Z" fill="none" stroke="black" stroke-width="1"/>
  <path d="M 912,142 L 911,143 L 909,143 L 908,144 L 906,144 L 905,145 L 903,145 L 902,144 L 901,144 L 899,146 L 897,146 L 896,147 L 894,147 L 893,148 L 892,148 L 891,149 L 889,149 L 888,150 L 887,150 L 886,149 L 881,149 L 880,148 L 876,148 L 875,147 L 872,147 L 871,148 L 869,148 L 868,149 L 867,149 L 866,150 L 865,150 L 865,151 L 864,152 L 863,152 L 863,153 L 862,154 L 861,154 L 861,155 L 859,157 L 858,156 L 857,157 L 857,159 L 856,160 L 857,161 L 857,162 L 856,163 L 857,164 L 857,165 L 856,166 L 857,167 L 857,168 L 856,169 L 857,170 L 857,171 L 858,172 L 857,173 L 859,175 L 858,176 L 860,178 L 860,180 L 861,181 L 861,182 L 865,182 L 866,183 L 866,184 L 867,184 L 868,185 L 868,186 L 870,188 L 869,189 L 871,191 L 871,193 L 872,194 L 872,199 L 873,200 L 873,201 L 874,202 L 874,203 L 875,204 L 875,206 L 874,207 L 875,208 L 875,209 L 874,210 L 874,211 L 873,212 L 874,213 L 873,214 L 873,215 L 872,216 L 872,217 L 873,218 L 872,219 L 872,220 L 871,221 L 872,222 L 874,220 L 876,220 L 877,219 L 877,218 L 881,214 L 882,214 L 884,212 L 886,214 L 886,216 L 885,217 L 885,218 L 884,219 L 884,220 L 883,221 L 883,223 L 881,225 L 881,226 L 877,230 L 877,231 L 876,232 L 877,232 L 878,233 L 878,236 L 877,237 L 877,238 L 875,240 L 876,240 L 878,238 L 879,238 L 881,236 L 884,236 L 885,237 L 884,238 L 884,239 L 881,242 L 881,243 L 882,244 L 881,245 L 881,246 L 880,247 L 880,248 L 881,247 L 882,247 L 882,246 L 885,243 L 887,243 L 888,242 L 889,242 L 890,243 L 890,242 L 891,241 L 891,239 L 894,236 L 895,236 L 900,231 L 900,230 L 902,228 L 903,228 L 903,227 L 907,223 L 908,223 L 912,219 L 912,218 L 914,216 L 914,215 L 918,211 L 919,211 L 920,212 L 922,212 L 921,211 L 921,210 L 922,209 L 925,209 L 926,210 L 926,213 L 927,213 L 927,212 L 929,210 L 930,210 L 931,209 L 931,207 L 927,207 L 926,206 L 926,204 L 927,203 L 927,202 L 928,201 L 928,199 L 929,198 L 929,197 L 928,196 L 928,194 L 929,193 L 929,192 L 932,189 L 931,189 L 930,188 L 930,186 L 933,183 L 934,183 L 935,182 L 936,182 L 937,181 L 938,181 L 939,180 L 940,180 L 942,178 L 943,178 L 944,177 L 946,177 L 949,174 L 953,174 L 955,176 L 962,176 L 963,177 L 962,178 L 961,178 L 963,178 L 964,179 L 964,180 L 963,181 L 962,180 L 960,180 L 959,181 L 958,181 L 957,180 L 955,180 L 954,181 L 952,181 L 951,182 L 951,183 L 948,186 L 947,186 L 947,187 L 946,188 L 945,188 L 945,191 L 944,192 L 944,195 L 945,196 L 945,197 L 944,198 L 944,204 L 942,206 L 941,206 L 940,207 L 940,210 L 939,211 L 939,212 L 940,211 L 941,211 L 942,212 L 942,213 L 943,214 L 942,215 L 942,216 L 935,223 L 935,224 L 934,225 L 935,226 L 936,226 L 937,227 L 937,228 L 936,229 L 934,229 L 931,232 L 929,232 L 928,233 L 927,233 L 926,234 L 925,234 L 922,237 L 922,238 L 921,239 L 920,239 L 919,240 L 918,240 L 916,242 L 915,242 L 913,244 L 912,244 L 909,247 L 908,247 L 908,252 L 903,257 L 902,257 L 899,260 L 899,261 L 896,264 L 896,265 L 888,273 L 887,273 L 886,274 L 885,274 L 883,276 L 883,277 L 882,278 L 882,279 L 879,282 L 878,282 L 878,283 L 877,284 L 876,284 L 872,288 L 872,289 L 870,291 L 871,292 L 871,293 L 869,295 L 869,296 L 859,306 L 859,308 L 866,308 L 867,307 L 869,307 L 870,306 L 871,306 L 872,305 L 873,305 L 876,302 L 877,302 L 878,301 L 879,301 L 880,300 L 882,300 L 883,301 L 886,301 L 887,302 L 891,302 L 892,303 L 894,303 L 895,302 L 897,302 L 898,301 L 899,302 L 900,301 L 902,301 L 903,300 L 904,300 L 905,299 L 906,299 L 907,298 L 907,296 L 910,293 L 910,292 L 912,290 L 912,289 L 914,287 L 915,287 L 918,284 L 918,283 L 921,280 L 922,280 L 922,278 L 921,277 L 921,276 L 922,275 L 924,275 L 925,276 L 926,276 L 924,274 L 924,272 L 925,271 L 926,271 L 927,272 L 928,271 L 928,267 L 926,265 L 928,263 L 929,263 L 929,262 L 930,261 L 929,260 L 929,258 L 930,257 L 930,256 L 932,254 L 934,254 L 936,252 L 935,252 L 934,251 L 934,250 L 935,249 L 939,249 L 940,248 L 941,248 L 942,249 L 942,251 L 941,252 L 942,252 L 942,251 L 945,248 L 945,246 L 947,244 L 949,244 L 953,248 L 953,251 L 954,250 L 955,250 L 958,247 L 958,246 L 959,245 L 959,243 L 958,243 L 957,244 L 956,243 L 956,242 L 957,241 L 961,241 L 967,235 L 968,235 L 971,232 L 971,231 L 974,228 L 975,228 L 977,226 L 978,226 L 979,225 L 980,226 L 980,227 L 978,229 L 978,232 L 977,233 L 977,235 L 976,236 L 976,238 L 975,239 L 975,241 L 974,242 L 974,244 L 975,244 L 977,242 L 978,242 L 978,241 L 981,238 L 981,237 L 983,235 L 983,234 L 985,232 L 985,231 L 986,230 L 987,230 L 988,229 L 988,228 L 990,226 L 991,226 L 995,222 L 995,221 L 994,220 L 994,219 L 993,218 L 993,216 L 992,215 L 992,214 L 991,213 L 991,212 L 990,211 L 990,209 L 989,208 L 989,201 L 990,200 L 990,195 L 989,194 L 989,193 L 986,190 L 986,189 L 985,188 L 985,187 L 982,184 L 982,183 L 981,182 L 981,181 L 980,180 L 980,178 L 979,177 L 979,170 L 980,169 L 980,167 L 981,166 L 980,165 L 981,164 L 980,163 L 979,163 L 978,162 L 978,161 L 977,161 L 976,160 L 976,158 L 975,157 L 975,155 L 974,155 L 973,154 L 973,153 L 969,153 L 968,152 L 963,152 L 962,151 L 958,151 L 957,150 L 956,150 L 955,151 L 953,151 L 952,152 L 950,152 L 949,153 L 946,153 L 945,152 L 941,152 L 940,151 L 935,151 L 934,150 L 930,150 L 929,149 L 928,149 L 925,146 L 924,146 L 923,145 L 923,144 L 920,144 L 919,143 L 915,143 L 914,142 Z" fill="none" stroke="black" stroke-width="1"/>
</svg>