<svg xmlns="http://www.w3.org/2000/svg" width="1190" height="502">
  <path d="M 811,9 L 811,10 L 810,11 L 809,11 L 808,10 L 808,11 L 807,12 L 806,12 L 805,11 L 805,12 L 804,13 L 803,12 L 802,12 L 802,13 L 801,14 L 800,13 L 799,13 L 799,14 L 798,15 L 797,14 L 797,15 L 796,16 L 795,15 L 795,16 L 794,17 L 793,17 L 792,18 L 790,18 L 789,19 L 788,19 L 787,18 L 782,18 L 781,17 L 777,17 L 776,16 L 772,16 L 771,15 L 770,15 L 770,16 L 769,17 L 768,16 L 767,16 L 767,17 L 766,18 L 764,16 L 764,17 L 763,18 L 758,18 L 757,17 L 756,17 L 755,18 L 753,18 L 752,19 L 750,19 L 749,20 L 745,20 L 744,19 L 743,19 L 742,20 L 739,20 L 737,22 L 736,22 L 735,23 L 734,23 L 734,24 L 732,26 L 732,32 L 733,33 L 733,34 L 734,35 L 734,36 L 735,36 L 739,40 L 739,41 L 742,41 L 748,47 L 748,49 L 749,50 L 749,51 L 750,52 L 750,54 L 751,55 L 751,56 L 755,60 L 754,61 L 754,63 L 753,64 L 754,64 L 756,66 L 756,68 L 757,69 L 757,70 L 758,71 L 758,83 L 757,84 L 757,86 L 758,87 L 757,88 L 757,103 L 758,104 L 758,106 L 759,107 L 759,108 L 760,109 L 760,110 L 761,111 L 761,113 L 762,114 L 763,114 L 765,116 L 767,116 L 768,117 L 768,118 L 769,119 L 769,120 L 773,124 L 773,125 L 774,126 L 774,127 L 776,129 L 775,130 L 776,131 L 778,129 L 779,129 L 780,128 L 780,127 L 781,126 L 782,126 L 782,125 L 783,124 L 785,124 L 786,125 L 790,125 L 791,126 L 790,127 L 792,129 L 792,131 L 793,132 L 792,133 L 792,134 L 794,136 L 794,137 L 795,137 L 796,138 L 796,139 L 799,139 L 800,140 L 800,138 L 801,137 L 801,135 L 802,134 L 802,133 L 803,132 L 803,130 L 804,129 L 804,127 L 805,126 L 805,125 L 806,124 L 806,122 L 807,121 L 807,119 L 808,118 L 808,115 L 809,114 L 809,112 L 810,111 L 811,112 L 811,110 L 812,109 L 813,109 L 814,108 L 815,108 L 817,106 L 818,106 L 819,105 L 819,104 L 820,103 L 821,103 L 821,101 L 822,100 L 822,98 L 823,97 L 823,95 L 824,94 L 824,92 L 825,91 L 825,88 L 826,87 L 826,85 L 827,84 L 827,81 L 828,80 L 828,78 L 827,77 L 827,76 L 828,75 L 827,74 L 827,72 L 826,71 L 826,70 L 827,69 L 826,68 L 826,66 L 825,65 L 825,64 L 826,63 L 825,63 L 824,62 L 825,61 L 825,59 L 826,58 L 826,56 L 827,55 L 827,52 L 828,51 L 829,51 L 829,50 L 831,48 L 831,47 L 833,45 L 833,44 L 834,43 L 835,43 L 835,42 L 838,39 L 839,39 L 840,38 L 841,38 L 845,34 L 846,34 L 847,33 L 848,33 L 848,31 L 849,30 L 850,31 L 850,28 L 851,27 L 851,24 L 852,23 L 852,20 L 853,19 L 853,16 L 854,15 L 854,13 L 853,12 L 848,12 L 847,11 L 843,11 L 842,10 L 837,10 L 836,9 L 833,9 L 832,10 L 830,10 L 829,11 L 827,11 L 826,12 L 823,12 L 822,11 L 817,11 L 816,10 L 812,10 Z" fill="none" stroke="black" stroke-width="1"/>
</svg>