<svg xmlns="http://www.w3.org/2000/svg" width="1190" height="502">
  <path d="M 859,9 L 858,10 L 856,10 L 856,11 L 855,12 L 855,15 L 854,16 L 854,19 L 853,20 L 853,23 L 852,24 L 852,27 L 851,28 L 851,31 L 850,32 L 849,31 L 849,33 L 848,34 L 847,34 L 846,35 L 845,35 L 841,39 L 840,39 L 839,40 L 838,40 L 836,42 L 836,43 L 835,44 L 834,44 L 834,45 L 832,47 L 832,48 L 830,50 L 830,51 L 829,52 L 828,52 L 828,55 L 827,56 L 827,58 L 826,59 L 826,61 L 825,62 L 826,62 L 827,63 L 826,64 L 826,65 L 827,66 L 827,68 L 828,69 L 827,70 L 827,71 L 828,72 L 828,74 L 829,75 L 828,76 L 828,77 L 829,78 L 829,80 L 828,81 L 828,84 L 827,85 L 827,87 L 826,88 L 826,91 L 825,92 L 825,94 L 824,95 L 824,97 L 823,98 L 823,100 L 822,101 L 822,103 L 821,104 L 820,104 L 820,105 L 818,107 L 817,107 L 815,109 L 814,109 L 813,110 L 812,110 L 812,112 L 811,113 L 810,112 L 810,114 L 809,115 L 809,118 L 808,119 L 808,121 L 807,122 L 807,124 L 806,125 L 806,126 L 805,127 L 805,129 L 804,130 L 804,132 L 803,133 L 803,134 L 802,135 L 802,137 L 801,138 L 801,140 L 802,140 L 803,141 L 803,142 L 805,144 L 804,145 L 806,147 L 806,148 L 808,150 L 808,151 L 810,153 L 809,154 L 811,156 L 811,157 L 812,157 L 813,158 L 813,159 L 817,159 L 818,160 L 822,160 L 823,161 L 827,161 L 828,162 L 833,162 L 834,161 L 835,162 L 836,161 L 837,161 L 838,160 L 839,160 L 841,158 L 843,158 L 844,157 L 846,157 L 847,156 L 849,156 L 850,155 L 851,155 L 852,156 L 852,155 L 853,154 L 854,155 L 858,155 L 859,156 L 860,155 L 860,154 L 861,153 L 862,153 L 862,152 L 863,151 L 864,151 L 864,150 L 865,149 L 866,149 L 867,148 L 868,148 L 869,147 L 871,147 L 872,146 L 875,146 L 876,147 L 880,147 L 881,148 L 886,148 L 887,149 L 888,149 L 889,148 L 891,148 L 892,147 L 893,147 L 894,146 L 896,146 L 897,145 L 899,145 L 900,144 L 900,143 L 901,142 L 901,140 L 902,139 L 902,138 L 903,137 L 903,135 L 904,134 L 904,132 L 909,127 L 909,126 L 910,125 L 911,125 L 911,124 L 912,123 L 912,121 L 914,119 L 915,119 L 915,117 L 916,116 L 917,116 L 917,115 L 918,114 L 919,114 L 919,113 L 920,112 L 920,111 L 921,110 L 921,108 L 922,107 L 922,105 L 923,104 L 923,103 L 924,102 L 924,100 L 925,99 L 925,97 L 926,96 L 926,94 L 927,93 L 927,92 L 926,91 L 926,90 L 927,89 L 926,88 L 926,87 L 927,86 L 926,85 L 926,83 L 927,82 L 927,80 L 928,79 L 928,78 L 929,77 L 929,75 L 930,74 L 930,72 L 931,71 L 931,69 L 932,68 L 932,66 L 933,65 L 933,62 L 934,61 L 934,59 L 933,59 L 932,58 L 932,57 L 931,56 L 931,55 L 929,53 L 924,53 L 923,52 L 918,52 L 917,51 L 917,50 L 916,50 L 914,48 L 913,48 L 912,47 L 912,46 L 910,46 L 909,45 L 905,45 L 904,44 L 899,44 L 898,43 L 896,43 L 895,42 L 895,41 L 894,41 L 893,40 L 893,39 L 891,37 L 891,36 L 890,35 L 890,34 L 888,32 L 889,31 L 888,31 L 887,30 L 887,28 L 886,27 L 886,26 L 885,25 L 885,24 L 883,24 L 882,23 L 882,22 L 881,22 L 880,21 L 880,20 L 879,20 L 877,18 L 876,18 L 875,17 L 875,16 L 870,16 L 869,15 L 866,15 L 865,14 L 865,13 L 864,13 L 863,12 L 863,11 L 861,11 L 860,10 L 861,9 Z" fill="none" stroke="black" stroke-width="1"/>
</svg>