<svg xmlns="http://www.w3.org/2000/svg" width="1190" height="502">
  <path d="M 985,54 L 984,55 L 983,55 L 982,56 L 980,56 L 979,57 L 973,57 L 972,56 L 967,56 L 966,55 L 962,55 L 961,56 L 960,56 L 959,57 L 958,57 L 957,58 L 956,58 L 956,59 L 954,61 L 952,61 L 951,62 L 949,62 L 948,61 L 943,61 L 942,60 L 938,60 L 937,59 L 935,59 L 935,61 L 934,62 L 934,65 L 933,66 L 933,68 L 932,69 L 932,71 L 931,72 L 931,74 L 930,75 L 930,77 L 929,78 L 929,79 L 928,80 L 928,82 L 927,83 L 927,85 L 928,86 L 927,87 L 927,88 L 928,89 L 927,90 L 927,91 L 928,92 L 928,93 L 927,94 L 927,96 L 926,97 L 926,99 L 925,100 L 925,102 L 924,103 L 924,104 L 923,105 L 923,107 L 922,108 L 922,110 L 921,111 L 921,112 L 920,113 L 920,114 L 919,115 L 918,115 L 918,116 L 917,117 L 916,117 L 916,119 L 915,120 L 914,120 L 913,121 L 913,123 L 912,124 L 912,125 L 911,126 L 910,126 L 910,127 L 905,132 L 905,134 L 904,135 L 904,137 L 903,138 L 903,139 L 902,140 L 902,142 L 901,143 L 902,143 L 903,144 L 905,144 L 906,143 L 908,143 L 909,142 L 911,142 L 912,141 L 914,141 L 915,142 L 919,142 L 920,143 L 923,143 L 924,144 L 924,145 L 925,145 L 928,148 L 929,148 L 930,149 L 934,149 L 935,150 L 940,150 L 941,151 L 945,151 L 946,152 L 949,152 L 950,151 L 952,151 L 953,150 L 955,150 L 956,149 L 957,149 L 958,150 L 962,150 L 963,151 L 968,151 L 969,152 L 973,152 L 974,153 L 974,154 L 975,154 L 976,155 L 976,157 L 977,158 L 977,160 L 978,160 L 979,161 L 979,160 L 980,159 L 980,158 L 981,157 L 982,157 L 985,154 L 986,155 L 987,154 L 988,154 L 988,153 L 989,152 L 990,152 L 990,151 L 991,150 L 991,148 L 994,145 L 994,144 L 995,143 L 996,143 L 998,141 L 999,141 L 1001,139 L 1002,139 L 1003,138 L 1004,138 L 1004,137 L 1005,136 L 1006,136 L 1006,135 L 1007,134 L 1008,134 L 1008,133 L 1009,132 L 1010,132 L 1010,131 L 1015,126 L 1015,125 L 1016,124 L 1017,124 L 1017,122 L 1018,121 L 1019,122 L 1019,121 L 1020,120 L 1021,120 L 1023,118 L 1024,118 L 1024,116 L 1027,113 L 1028,113 L 1028,112 L 1031,109 L 1032,109 L 1033,108 L 1034,108 L 1034,107 L 1036,105 L 1037,105 L 1039,103 L 1040,103 L 1040,102 L 1041,101 L 1041,95 L 1042,94 L 1042,92 L 1043,91 L 1043,90 L 1044,89 L 1044,87 L 1045,86 L 1045,85 L 1046,84 L 1046,82 L 1047,81 L 1047,80 L 1048,79 L 1048,77 L 1049,76 L 1049,74 L 1050,73 L 1050,72 L 1051,71 L 1051,69 L 1052,68 L 1052,67 L 1053,66 L 1053,62 L 1052,61 L 1052,60 L 1051,60 L 1051,61 L 1050,62 L 1049,61 L 1046,64 L 1045,64 L 1043,66 L 1041,66 L 1039,68 L 1038,67 L 1033,67 L 1032,66 L 1027,66 L 1026,65 L 1022,65 L 1021,64 L 1021,63 L 1020,63 L 1019,62 L 1020,61 L 1019,61 L 1017,59 L 1012,59 L 1011,58 L 1006,58 L 1005,57 L 1000,57 L 999,56 L 994,56 L 993,55 L 988,55 L 987,54 Z" fill="none" stroke="black" stroke-width="1"/>
</svg>