<svg xmlns="http://www.w3.org/2000/svg" width="1190" height="502">
  <path d="M 608,63 L 607,64 L 604,64 L 602,66 L 601,66 L 601,67 L 600,68 L 599,67 L 598,68 L 597,68 L 596,69 L 594,69 L 593,70 L 591,70 L 590,71 L 587,71 L 585,73 L 584,72 L 584,74 L 583,75 L 582,75 L 582,76 L 581,77 L 580,77 L 580,78 L 579,79 L 578,79 L 577,80 L 576,80 L 574,82 L 573,82 L 572,83 L 571,83 L 570,84 L 568,84 L 567,85 L 565,85 L 564,84 L 560,84 L 559,85 L 558,84 L 558,85 L 554,89 L 553,89 L 552,90 L 551,90 L 550,89 L 549,90 L 546,90 L 545,91 L 543,91 L 542,92 L 541,92 L 540,91 L 539,92 L 538,92 L 537,93 L 536,93 L 536,98 L 535,99 L 535,103 L 534,104 L 534,106 L 533,107 L 532,107 L 531,108 L 530,108 L 529,109 L 528,108 L 527,108 L 526,109 L 525,109 L 523,111 L 523,115 L 522,116 L 522,120 L 521,121 L 521,125 L 520,126 L 520,129 L 523,129 L 524,130 L 528,130 L 529,131 L 533,131 L 534,132 L 538,132 L 539,133 L 542,133 L 544,135 L 546,135 L 547,136 L 546,137 L 548,137 L 549,138 L 549,139 L 553,139 L 554,140 L 558,140 L 559,141 L 562,141 L 563,142 L 564,142 L 565,143 L 566,143 L 567,144 L 567,145 L 569,147 L 569,148 L 570,148 L 571,149 L 571,150 L 574,153 L 574,154 L 576,156 L 576,157 L 578,159 L 578,160 L 580,162 L 580,163 L 582,163 L 583,164 L 583,165 L 584,165 L 586,167 L 587,167 L 588,168 L 587,169 L 588,170 L 592,170 L 593,169 L 594,170 L 595,170 L 597,168 L 598,168 L 599,167 L 600,167 L 601,166 L 602,166 L 603,165 L 604,165 L 604,164 L 605,163 L 606,163 L 606,162 L 607,161 L 608,161 L 609,160 L 610,160 L 611,159 L 612,160 L 613,160 L 614,159 L 616,159 L 617,158 L 619,158 L 620,157 L 621,158 L 622,158 L 623,157 L 625,157 L 626,156 L 627,156 L 628,155 L 629,156 L 629,155 L 630,154 L 632,154 L 633,153 L 634,153 L 634,151 L 635,150 L 636,151 L 636,149 L 637,148 L 638,148 L 638,147 L 639,146 L 640,146 L 641,145 L 642,145 L 643,144 L 644,144 L 645,145 L 646,144 L 648,144 L 649,143 L 651,143 L 652,142 L 653,142 L 654,143 L 655,142 L 657,142 L 658,141 L 659,141 L 660,140 L 661,140 L 661,139 L 662,138 L 662,136 L 663,135 L 663,132 L 664,131 L 665,131 L 665,130 L 667,128 L 669,128 L 669,127 L 670,126 L 671,127 L 671,126 L 672,125 L 673,125 L 673,124 L 674,123 L 675,123 L 675,122 L 676,121 L 677,121 L 677,120 L 678,119 L 679,119 L 679,117 L 680,116 L 678,116 L 675,113 L 675,112 L 674,111 L 674,109 L 673,108 L 673,102 L 672,101 L 672,100 L 671,100 L 670,99 L 669,99 L 667,97 L 663,97 L 662,96 L 661,96 L 658,93 L 657,93 L 655,91 L 654,91 L 652,89 L 651,89 L 649,87 L 648,87 L 642,81 L 641,81 L 640,80 L 640,79 L 635,74 L 635,73 L 634,73 L 633,72 L 633,71 L 629,67 L 629,66 L 628,66 L 626,64 L 623,64 L 622,63 Z" fill="none" stroke="black" stroke-width="1"/>
</svg>