<svg xmlns="http://www.w3.org/2000/svg" width="1190" height="502">
  <path d="M 680,117 L 680,119 L 679,120 L 678,120 L 678,121 L 677,122 L 676,122 L 676,123 L 675,124 L 674,124 L 674,125 L 673,126 L 672,126 L 672,127 L 671,128 L 670,127 L 670,128 L 669,129 L 667,129 L 666,130 L 666,131 L 665,132 L 664,132 L 664,135 L 663,136 L 663,138 L 662,139 L 662,140 L 661,141 L 660,141 L 659,142 L 658,142 L 657,143 L 655,143 L 654,144 L 653,143 L 652,143 L 651,144 L 649,144 L 648,145 L 646,145 L 645,146 L 644,145 L 643,145 L 642,146 L 641,146 L 640,147 L 639,147 L 639,148 L 638,149 L 637,149 L 637,151 L 636,152 L 635,151 L 635,153 L 634,154 L 633,154 L 632,155 L 630,155 L 630,156 L 629,157 L 628,156 L 627,157 L 626,157 L 625,158 L 623,158 L 622,159 L 621,159 L 620,158 L 619,159 L 617,159 L 616,160 L 614,160 L 613,161 L 612,161 L 611,160 L 610,161 L 609,161 L 608,162 L 607,162 L 607,163 L 606,164 L 605,164 L 605,165 L 604,166 L 603,166 L 602,167 L 601,167 L 600,168 L 599,168 L 598,169 L 597,169 L 595,171 L 594,171 L 593,170 L 592,171 L 588,171 L 587,170 L 587,171 L 588,172 L 588,173 L 589,174 L 589,175 L 588,176 L 589,177 L 589,179 L 594,184 L 594,185 L 595,186 L 595,187 L 594,188 L 594,191 L 595,192 L 594,193 L 595,194 L 595,196 L 596,197 L 595,198 L 596,199 L 596,201 L 598,203 L 598,204 L 600,206 L 600,207 L 601,208 L 602,208 L 603,209 L 603,210 L 604,210 L 607,213 L 607,214 L 612,219 L 613,219 L 614,220 L 614,221 L 615,221 L 618,224 L 619,224 L 620,225 L 624,225 L 625,226 L 624,227 L 626,227 L 629,230 L 630,230 L 631,231 L 631,232 L 632,232 L 635,235 L 636,235 L 637,236 L 639,236 L 640,235 L 640,233 L 641,232 L 642,232 L 643,231 L 644,231 L 645,230 L 647,230 L 648,229 L 649,230 L 650,230 L 651,229 L 653,229 L 654,228 L 655,228 L 656,229 L 658,227 L 659,227 L 661,225 L 662,225 L 662,224 L 663,223 L 664,223 L 665,222 L 666,222 L 668,220 L 669,220 L 670,219 L 671,220 L 672,219 L 673,219 L 678,214 L 679,214 L 681,212 L 683,212 L 684,211 L 685,212 L 686,212 L 687,211 L 688,211 L 689,210 L 690,210 L 690,209 L 691,208 L 692,208 L 693,207 L 693,205 L 695,203 L 696,203 L 696,202 L 697,201 L 698,201 L 699,200 L 700,200 L 702,198 L 703,198 L 704,197 L 705,197 L 706,196 L 707,196 L 712,191 L 713,191 L 713,190 L 714,189 L 715,189 L 716,188 L 717,188 L 719,186 L 720,186 L 721,185 L 722,186 L 722,185 L 723,184 L 726,184 L 727,183 L 727,182 L 728,181 L 728,179 L 729,178 L 729,177 L 730,176 L 730,174 L 735,169 L 736,169 L 737,168 L 738,168 L 739,167 L 740,167 L 742,165 L 743,165 L 744,164 L 745,164 L 745,163 L 746,162 L 747,162 L 747,161 L 748,160 L 749,160 L 749,159 L 750,158 L 751,158 L 751,157 L 752,156 L 753,156 L 754,155 L 754,153 L 755,152 L 755,150 L 756,149 L 756,148 L 757,147 L 757,145 L 758,144 L 758,143 L 757,143 L 755,145 L 753,145 L 752,146 L 751,146 L 750,147 L 749,147 L 748,146 L 746,146 L 745,147 L 744,146 L 739,146 L 738,145 L 738,144 L 737,144 L 736,143 L 736,142 L 735,142 L 733,140 L 732,140 L 731,141 L 724,141 L 723,140 L 722,140 L 721,139 L 720,139 L 719,138 L 717,138 L 716,137 L 714,137 L 713,136 L 711,136 L 710,135 L 709,135 L 708,134 L 707,134 L 704,131 L 703,131 L 702,130 L 701,130 L 700,129 L 700,128 L 699,128 L 698,127 L 698,126 L 696,124 L 695,124 L 691,120 L 689,120 L 688,119 L 684,119 L 682,117 Z" fill="none" stroke="black" stroke-width="1"/>
</svg>