<svg xmlns="http://www.w3.org/2000/svg" width="1190" height="502">
  <path d="M 783,125 L 783,126 L 782,127 L 781,127 L 781,128 L 779,130 L 778,130 L 776,132 L 775,131 L 774,132 L 771,132 L 770,133 L 769,133 L 768,134 L 767,134 L 766,135 L 765,135 L 763,137 L 762,137 L 762,138 L 761,139 L 760,139 L 760,140 L 759,141 L 760,142 L 759,143 L 759,144 L 758,145 L 758,147 L 757,148 L 757,149 L 756,150 L 756,152 L 755,153 L 755,155 L 753,157 L 752,157 L 752,158 L 751,159 L 750,159 L 750,160 L 749,161 L 748,161 L 748,162 L 747,163 L 746,163 L 746,164 L 745,165 L 744,165 L 743,166 L 742,166 L 740,168 L 739,168 L 738,169 L 737,169 L 736,170 L 735,170 L 731,174 L 731,176 L 730,177 L 730,178 L 729,179 L 729,181 L 728,182 L 728,183 L 727,184 L 729,184 L 730,185 L 729,186 L 729,187 L 730,188 L 729,189 L 729,190 L 731,192 L 731,193 L 732,193 L 733,194 L 734,194 L 735,195 L 735,196 L 736,196 L 737,197 L 737,198 L 738,198 L 741,201 L 742,201 L 743,202 L 743,203 L 744,203 L 745,204 L 745,205 L 746,205 L 747,206 L 748,206 L 749,207 L 749,208 L 750,208 L 751,209 L 751,210 L 752,211 L 752,215 L 755,218 L 756,218 L 757,219 L 757,221 L 759,223 L 759,225 L 760,226 L 760,227 L 761,228 L 762,228 L 763,229 L 762,230 L 763,230 L 765,232 L 765,235 L 766,236 L 765,237 L 765,238 L 766,239 L 765,240 L 766,241 L 766,242 L 765,243 L 768,246 L 768,247 L 769,247 L 770,248 L 770,249 L 771,250 L 771,251 L 772,252 L 772,253 L 771,254 L 771,255 L 770,256 L 770,257 L 769,258 L 769,259 L 768,260 L 768,261 L 769,262 L 768,263 L 769,264 L 769,271 L 771,273 L 770,274 L 773,277 L 773,278 L 775,278 L 776,279 L 776,280 L 779,280 L 780,281 L 783,281 L 784,282 L 787,282 L 787,280 L 788,279 L 790,279 L 791,278 L 791,276 L 792,275 L 792,274 L 794,272 L 794,271 L 801,264 L 802,264 L 804,262 L 805,262 L 809,258 L 810,258 L 813,255 L 814,255 L 814,251 L 823,242 L 824,242 L 825,241 L 826,241 L 826,235 L 828,233 L 829,233 L 830,232 L 831,232 L 831,231 L 834,228 L 835,228 L 837,226 L 838,226 L 840,224 L 844,224 L 845,223 L 847,223 L 848,224 L 850,224 L 853,221 L 856,221 L 857,220 L 860,220 L 863,217 L 865,217 L 866,216 L 869,216 L 870,217 L 870,218 L 871,219 L 871,220 L 871,219 L 872,218 L 871,217 L 871,216 L 872,215 L 872,214 L 873,213 L 872,212 L 873,211 L 873,210 L 874,209 L 874,208 L 873,207 L 874,206 L 874,204 L 873,203 L 873,202 L 872,201 L 872,200 L 871,199 L 871,194 L 870,193 L 870,191 L 868,189 L 869,188 L 867,186 L 867,185 L 866,185 L 865,184 L 865,183 L 861,183 L 860,182 L 860,181 L 859,180 L 859,178 L 857,176 L 858,175 L 856,173 L 857,172 L 856,171 L 856,170 L 855,169 L 856,168 L 856,167 L 855,166 L 856,165 L 856,164 L 855,163 L 856,162 L 856,161 L 855,160 L 856,159 L 856,157 L 857,156 L 854,156 L 853,155 L 853,156 L 852,157 L 851,156 L 850,156 L 849,157 L 847,157 L 846,158 L 844,158 L 843,159 L 841,159 L 839,161 L 838,161 L 837,162 L 836,162 L 835,163 L 834,162 L 833,163 L 828,163 L 827,162 L 823,162 L 822,161 L 818,161 L 817,160 L 813,160 L 812,159 L 812,158 L 811,158 L 810,157 L 810,156 L 808,154 L 809,153 L 807,151 L 807,150 L 805,148 L 805,147 L 803,145 L 804,144 L 802,142 L 802,141 L 800,141 L 799,140 L 796,140 L 795,139 L 795,138 L 794,138 L 793,137 L 793,136 L 791,134 L 791,133 L 792,132 L 791,131 L 791,129 L 789,127 L 790,126 L 786,126 L 785,125 Z" fill="none" stroke="black" stroke-width="1"/>
</svg>