<svg xmlns="http://www.w3.org/2000/svg" width="1190" height="502">
  <path d="M 517,129 L 516,130 L 515,130 L 514,131 L 512,131 L 511,132 L 510,131 L 508,131 L 507,132 L 505,132 L 504,133 L 503,132 L 502,132 L 501,133 L 498,133 L 497,132 L 495,132 L 494,131 L 490,131 L 489,130 L 485,130 L 484,131 L 483,130 L 481,130 L 480,131 L 478,131 L 477,132 L 476,132 L 475,131 L 474,132 L 472,132 L 471,133 L 470,133 L 469,134 L 468,134 L 466,136 L 465,135 L 464,135 L 463,136 L 460,136 L 459,137 L 458,136 L 457,136 L 456,137 L 454,137 L 453,138 L 454,139 L 454,140 L 456,142 L 456,144 L 457,145 L 457,146 L 458,147 L 458,149 L 459,150 L 459,151 L 460,152 L 460,154 L 461,155 L 461,158 L 462,159 L 462,160 L 464,160 L 466,162 L 467,162 L 468,163 L 469,163 L 470,164 L 470,165 L 476,171 L 476,173 L 477,174 L 477,175 L 478,176 L 478,178 L 479,179 L 479,184 L 480,184 L 482,186 L 483,186 L 484,187 L 485,187 L 487,189 L 488,189 L 489,190 L 492,190 L 495,193 L 495,194 L 496,194 L 497,195 L 497,196 L 500,199 L 500,200 L 501,200 L 502,201 L 502,202 L 503,202 L 504,203 L 504,204 L 505,205 L 505,206 L 506,207 L 506,208 L 509,211 L 510,211 L 511,212 L 512,212 L 513,213 L 514,213 L 515,214 L 516,214 L 517,215 L 517,216 L 520,219 L 520,220 L 521,221 L 521,222 L 522,222 L 523,223 L 524,223 L 525,222 L 527,222 L 528,221 L 529,222 L 530,222 L 531,221 L 533,221 L 534,220 L 535,221 L 539,221 L 540,222 L 543,222 L 544,223 L 548,223 L 549,224 L 552,224 L 553,223 L 554,223 L 555,222 L 556,223 L 556,221 L 557,220 L 558,221 L 558,219 L 559,218 L 560,219 L 561,218 L 562,218 L 564,216 L 565,216 L 565,215 L 566,214 L 567,214 L 567,213 L 568,212 L 569,212 L 569,211 L 570,210 L 571,210 L 572,209 L 573,209 L 574,208 L 575,209 L 576,209 L 577,208 L 580,208 L 581,209 L 584,209 L 585,210 L 589,210 L 590,211 L 594,211 L 595,212 L 598,212 L 599,213 L 603,213 L 604,214 L 606,214 L 606,213 L 604,211 L 603,211 L 602,210 L 602,209 L 601,209 L 599,207 L 599,206 L 597,204 L 597,203 L 595,201 L 595,199 L 594,198 L 595,197 L 594,196 L 594,194 L 593,193 L 594,192 L 593,191 L 593,188 L 594,187 L 594,186 L 593,185 L 593,184 L 588,179 L 588,177 L 587,176 L 588,175 L 588,174 L 587,173 L 587,172 L 586,171 L 586,169 L 587,168 L 586,168 L 584,166 L 583,166 L 582,165 L 582,164 L 580,164 L 579,163 L 579,162 L 577,160 L 577,159 L 575,157 L 575,156 L 573,154 L 573,153 L 570,150 L 570,149 L 569,149 L 568,148 L 568,147 L 566,145 L 566,144 L 565,144 L 564,143 L 563,143 L 562,142 L 559,142 L 558,141 L 554,141 L 553,140 L 549,140 L 548,139 L 548,138 L 546,138 L 545,137 L 546,136 L 544,136 L 542,134 L 539,134 L 538,133 L 534,133 L 533,132 L 529,132 L 528,131 L 524,131 L 523,130 L 520,130 L 519,129 Z" fill="none" stroke="black" stroke-width="1"/>
</svg>