<svg xmlns="http://www.w3.org/2000/svg" width="1190" height="502">
  <path d="M 574,209 L 573,210 L 572,210 L 571,211 L 570,211 L 570,212 L 569,213 L 568,213 L 568,214 L 567,215 L 566,215 L 566,216 L 565,217 L 564,217 L 562,219 L 561,219 L 560,220 L 559,219 L 559,221 L 558,222 L 557,221 L 557,223 L 556,224 L 555,223 L 554,224 L 553,224 L 552,225 L 549,225 L 548,224 L 544,224 L 543,223 L 540,223 L 539,222 L 535,222 L 534,221 L 533,222 L 531,222 L 530,223 L 529,223 L 528,222 L 527,223 L 525,223 L 524,224 L 523,224 L 522,225 L 521,225 L 520,224 L 519,224 L 518,225 L 516,225 L 515,226 L 514,225 L 513,225 L 512,226 L 506,226 L 505,227 L 504,227 L 502,229 L 502,231 L 503,231 L 504,232 L 506,232 L 508,234 L 508,235 L 509,236 L 508,237 L 509,237 L 510,238 L 509,239 L 509,240 L 511,242 L 511,243 L 513,245 L 512,246 L 513,247 L 513,249 L 512,250 L 512,252 L 513,253 L 512,254 L 513,255 L 513,256 L 512,257 L 513,257 L 514,258 L 513,259 L 514,260 L 514,261 L 513,262 L 514,263 L 515,263 L 516,264 L 515,265 L 517,267 L 517,268 L 518,269 L 518,270 L 517,271 L 517,272 L 516,273 L 516,274 L 517,275 L 517,278 L 518,279 L 518,280 L 519,281 L 522,281 L 523,282 L 523,283 L 524,283 L 526,285 L 526,286 L 529,289 L 528,290 L 531,293 L 531,296 L 532,297 L 531,298 L 532,299 L 532,300 L 531,301 L 533,303 L 534,303 L 535,304 L 535,305 L 536,305 L 541,310 L 541,312 L 543,314 L 543,315 L 544,316 L 544,317 L 546,319 L 546,320 L 547,320 L 550,323 L 551,323 L 552,324 L 552,325 L 553,326 L 554,326 L 555,327 L 556,327 L 558,329 L 558,330 L 559,331 L 559,332 L 560,333 L 560,334 L 561,334 L 562,335 L 565,335 L 566,334 L 566,333 L 568,331 L 570,331 L 571,330 L 571,329 L 574,326 L 575,326 L 576,325 L 579,325 L 580,324 L 580,322 L 582,320 L 582,318 L 583,317 L 583,315 L 588,310 L 589,310 L 590,309 L 592,309 L 593,308 L 594,308 L 595,307 L 596,307 L 599,304 L 600,304 L 600,303 L 602,301 L 602,300 L 608,294 L 609,294 L 610,293 L 611,293 L 612,292 L 613,292 L 614,291 L 617,291 L 618,290 L 620,290 L 621,289 L 622,289 L 623,288 L 624,288 L 625,289 L 629,289 L 630,288 L 654,288 L 656,286 L 655,285 L 655,278 L 656,277 L 656,275 L 657,274 L 657,273 L 658,272 L 658,271 L 659,270 L 659,268 L 658,267 L 659,266 L 658,265 L 659,264 L 659,263 L 658,262 L 659,261 L 658,260 L 658,255 L 657,254 L 657,253 L 656,253 L 653,250 L 651,250 L 650,249 L 651,248 L 649,246 L 649,245 L 648,244 L 647,244 L 646,243 L 646,242 L 645,242 L 641,238 L 641,237 L 637,237 L 636,236 L 635,236 L 632,233 L 631,233 L 630,232 L 630,231 L 629,231 L 626,228 L 624,228 L 623,227 L 624,226 L 620,226 L 619,225 L 618,225 L 615,222 L 614,222 L 613,221 L 613,220 L 612,220 L 607,215 L 604,215 L 603,214 L 599,214 L 598,213 L 595,213 L 594,212 L 590,212 L 589,211 L 585,211 L 584,210 L 581,210 L 580,209 L 577,209 L 576,210 L 575,210 Z" fill="none" stroke="black" stroke-width="1"/>
</svg>