<svg xmlns="http://www.w3.org/2000/svg" width="1190" height="502">
  <path d="M 734,298 L 731,301 L 733,301 L 735,299 Z" fill="none" stroke="black" stroke-width="1"/>
  <path d="M 723,185 L 723,186 L 722,187 L 721,186 L 720,187 L 719,187 L 717,189 L 716,189 L 715,190 L 714,190 L 714,191 L 713,192 L 712,192 L 707,197 L 706,197 L 705,198 L 704,198 L 703,199 L 702,199 L 700,201 L 699,201 L 698,202 L 697,202 L 697,203 L 696,204 L 695,204 L 694,205 L 694,207 L 692,209 L 691,209 L 691,210 L 690,211 L 689,211 L 688,212 L 687,212 L 686,213 L 685,213 L 684,212 L 683,213 L 681,213 L 679,215 L 678,215 L 673,220 L 672,220 L 671,221 L 670,220 L 669,221 L 668,221 L 666,223 L 665,223 L 664,224 L 663,224 L 663,225 L 662,226 L 661,226 L 659,228 L 658,228 L 656,230 L 655,229 L 654,229 L 653,230 L 651,230 L 650,231 L 649,231 L 648,230 L 647,231 L 645,231 L 644,232 L 643,232 L 642,233 L 641,233 L 641,235 L 640,236 L 641,236 L 642,237 L 642,238 L 645,241 L 646,241 L 647,242 L 647,243 L 648,243 L 650,245 L 650,246 L 652,248 L 651,249 L 653,249 L 656,252 L 657,252 L 658,253 L 658,254 L 659,255 L 659,260 L 660,261 L 659,262 L 660,263 L 660,264 L 659,265 L 660,266 L 659,267 L 660,268 L 660,270 L 659,271 L 659,272 L 658,273 L 658,274 L 657,275 L 657,277 L 656,278 L 656,285 L 657,286 L 656,287 L 656,288 L 660,288 L 661,287 L 662,287 L 663,288 L 665,288 L 666,289 L 664,291 L 667,294 L 668,293 L 671,293 L 672,292 L 671,291 L 672,290 L 672,288 L 673,287 L 674,287 L 675,286 L 676,286 L 678,288 L 679,288 L 680,289 L 681,289 L 682,288 L 683,288 L 685,290 L 686,289 L 687,289 L 689,291 L 691,291 L 692,290 L 693,290 L 694,291 L 695,291 L 695,289 L 696,288 L 702,288 L 704,290 L 704,292 L 705,293 L 706,293 L 707,292 L 709,292 L 710,293 L 710,291 L 708,291 L 707,290 L 707,288 L 709,286 L 710,287 L 710,288 L 711,289 L 712,288 L 714,288 L 712,286 L 712,285 L 714,283 L 716,283 L 717,282 L 721,282 L 722,283 L 724,283 L 725,284 L 726,284 L 727,285 L 730,285 L 732,287 L 732,288 L 733,288 L 735,290 L 735,291 L 737,291 L 738,290 L 737,289 L 738,288 L 739,288 L 740,287 L 741,287 L 742,288 L 745,288 L 749,292 L 749,293 L 750,294 L 750,295 L 756,295 L 757,296 L 757,297 L 756,298 L 755,298 L 754,299 L 744,299 L 743,300 L 740,300 L 741,301 L 741,302 L 742,303 L 742,304 L 743,305 L 743,306 L 744,305 L 746,305 L 747,306 L 748,306 L 749,305 L 753,305 L 754,304 L 754,303 L 755,302 L 756,302 L 757,301 L 758,302 L 760,302 L 762,304 L 765,304 L 766,303 L 766,302 L 768,300 L 771,300 L 772,299 L 772,297 L 773,296 L 775,296 L 776,297 L 779,297 L 781,299 L 781,300 L 783,300 L 784,299 L 787,299 L 787,297 L 788,296 L 790,296 L 792,298 L 793,298 L 795,296 L 799,296 L 799,295 L 800,294 L 800,291 L 799,291 L 798,290 L 798,289 L 797,289 L 796,290 L 795,290 L 794,289 L 793,289 L 792,288 L 790,288 L 790,290 L 789,291 L 788,290 L 787,291 L 785,291 L 784,290 L 784,289 L 787,286 L 787,283 L 784,283 L 783,282 L 780,282 L 779,281 L 776,281 L 775,280 L 775,279 L 773,279 L 772,278 L 772,277 L 769,274 L 770,273 L 768,271 L 768,264 L 767,263 L 768,262 L 767,261 L 767,260 L 768,259 L 768,258 L 769,257 L 769,256 L 770,255 L 770,254 L 771,253 L 771,252 L 770,251 L 770,250 L 769,249 L 769,248 L 768,248 L 767,247 L 767,246 L 764,243 L 765,242 L 765,241 L 764,240 L 765,239 L 764,238 L 764,237 L 765,236 L 764,235 L 764,232 L 763,231 L 762,231 L 761,230 L 762,229 L 761,229 L 759,227 L 759,226 L 758,225 L 758,223 L 756,221 L 756,219 L 755,219 L 751,215 L 751,211 L 750,210 L 750,209 L 749,209 L 748,208 L 748,207 L 747,207 L 746,206 L 745,206 L 744,205 L 744,204 L 743,204 L 742,203 L 742,202 L 741,202 L 738,199 L 737,199 L 736,198 L 736,197 L 735,197 L 734,196 L 734,195 L 733,195 L 732,194 L 731,194 L 730,193 L 730,192 L 728,190 L 728,189 L 729,188 L 728,187 L 728,186 L 729,185 Z" fill="none" stroke="black" stroke-width="1"/>
</svg>