<svg xmlns="http://www.w3.org/2000/svg" width="1190" height="502">
  <path d="M 323,161 L 322,162 L 320,162 L 319,163 L 285,163 L 284,162 L 280,162 L 278,164 L 277,164 L 268,173 L 267,173 L 267,174 L 266,175 L 265,175 L 264,176 L 261,176 L 259,178 L 258,178 L 253,183 L 242,183 L 241,184 L 239,184 L 238,185 L 230,185 L 229,186 L 227,186 L 226,187 L 225,187 L 215,197 L 214,197 L 214,198 L 210,202 L 210,203 L 208,205 L 206,205 L 205,206 L 204,206 L 203,207 L 193,207 L 192,208 L 190,208 L 189,209 L 187,209 L 184,212 L 182,212 L 182,213 L 180,215 L 180,216 L 179,217 L 179,218 L 178,219 L 178,221 L 179,221 L 181,223 L 183,223 L 184,224 L 184,225 L 185,226 L 186,226 L 188,228 L 190,228 L 191,229 L 194,229 L 195,230 L 199,230 L 200,231 L 204,231 L 205,232 L 208,232 L 209,233 L 213,233 L 214,234 L 215,234 L 220,229 L 221,229 L 222,228 L 223,228 L 223,227 L 224,226 L 243,226 L 244,227 L 246,227 L 249,230 L 249,231 L 256,238 L 257,238 L 262,243 L 264,243 L 265,244 L 266,244 L 267,245 L 268,245 L 269,246 L 270,246 L 271,247 L 272,247 L 273,248 L 274,248 L 275,249 L 285,249 L 286,250 L 287,250 L 288,251 L 290,251 L 291,252 L 292,252 L 293,253 L 295,253 L 296,254 L 297,254 L 298,255 L 299,255 L 300,256 L 302,256 L 304,258 L 306,258 L 308,260 L 308,262 L 309,261 L 310,262 L 312,260 L 318,260 L 319,259 L 320,259 L 321,260 L 322,259 L 324,259 L 325,258 L 326,258 L 327,259 L 328,258 L 332,258 L 333,257 L 334,257 L 335,256 L 336,256 L 337,255 L 338,255 L 339,256 L 340,255 L 343,255 L 344,256 L 347,256 L 348,255 L 349,256 L 350,256 L 350,254 L 351,253 L 352,253 L 353,252 L 354,252 L 355,251 L 356,251 L 357,252 L 358,251 L 360,251 L 361,250 L 362,251 L 363,250 L 364,250 L 366,248 L 372,248 L 373,247 L 374,247 L 375,248 L 376,247 L 378,247 L 379,246 L 380,246 L 381,247 L 389,247 L 390,246 L 391,246 L 392,247 L 393,246 L 396,246 L 397,247 L 399,247 L 400,246 L 401,246 L 402,247 L 403,246 L 405,246 L 406,245 L 407,245 L 408,246 L 412,246 L 413,245 L 414,246 L 416,246 L 417,245 L 418,245 L 419,246 L 420,245 L 422,245 L 423,244 L 425,244 L 424,244 L 423,243 L 423,242 L 422,242 L 421,241 L 420,241 L 419,240 L 418,240 L 416,238 L 416,237 L 415,236 L 415,234 L 412,234 L 407,229 L 409,227 L 409,225 L 406,222 L 406,221 L 404,219 L 399,219 L 398,218 L 397,218 L 396,217 L 396,216 L 394,216 L 393,215 L 392,215 L 390,213 L 389,213 L 387,211 L 386,211 L 384,209 L 383,209 L 382,208 L 382,207 L 380,207 L 378,205 L 378,204 L 375,201 L 374,201 L 371,198 L 369,198 L 367,196 L 366,196 L 365,195 L 362,195 L 361,194 L 359,194 L 356,191 L 356,190 L 354,188 L 354,187 L 353,186 L 353,185 L 351,183 L 351,182 L 349,180 L 348,180 L 347,179 L 346,179 L 344,177 L 343,177 L 342,176 L 341,176 L 339,174 L 336,174 L 335,173 L 335,172 L 334,173 L 333,172 L 332,172 L 327,167 L 327,162 L 326,162 L 325,161 Z" fill="none" stroke="black" stroke-width="1"/>
</svg>