<svg xmlns="http://www.w3.org/2000/svg" width="1190" height="502">
  <path d="M 497,232 L 496,233 L 495,233 L 494,234 L 493,234 L 492,235 L 488,235 L 487,236 L 486,236 L 485,235 L 484,236 L 482,236 L 481,237 L 480,237 L 479,238 L 477,238 L 476,239 L 475,239 L 473,241 L 472,241 L 471,242 L 470,242 L 469,241 L 468,242 L 465,242 L 464,241 L 461,241 L 460,240 L 456,240 L 455,239 L 453,239 L 452,240 L 451,240 L 450,239 L 449,240 L 446,240 L 445,241 L 444,240 L 443,241 L 440,241 L 439,242 L 438,241 L 437,242 L 434,242 L 433,243 L 432,242 L 431,242 L 429,244 L 428,244 L 427,245 L 427,246 L 426,247 L 424,245 L 423,245 L 422,246 L 420,246 L 419,247 L 418,246 L 417,246 L 416,247 L 414,247 L 413,246 L 412,247 L 408,247 L 407,246 L 406,246 L 405,247 L 403,247 L 402,248 L 401,247 L 400,247 L 399,248 L 397,248 L 396,247 L 393,247 L 392,248 L 391,247 L 390,247 L 389,248 L 381,248 L 380,247 L 379,247 L 378,248 L 376,248 L 375,249 L 374,248 L 373,248 L 372,249 L 366,249 L 364,251 L 363,251 L 362,252 L 361,251 L 360,252 L 358,252 L 357,253 L 356,252 L 355,252 L 354,253 L 353,253 L 352,254 L 351,254 L 354,254 L 355,255 L 358,255 L 359,256 L 360,256 L 361,257 L 362,257 L 366,261 L 366,262 L 367,263 L 369,263 L 370,264 L 369,265 L 371,265 L 373,267 L 374,267 L 375,268 L 376,268 L 377,269 L 377,270 L 380,270 L 381,271 L 385,271 L 386,272 L 387,272 L 389,274 L 389,275 L 390,276 L 389,277 L 390,278 L 390,279 L 391,280 L 391,281 L 392,282 L 393,282 L 394,283 L 394,284 L 397,284 L 398,285 L 400,285 L 403,288 L 405,288 L 406,289 L 406,290 L 407,290 L 409,292 L 409,293 L 410,294 L 410,295 L 411,296 L 411,299 L 412,299 L 414,301 L 414,304 L 415,305 L 415,306 L 416,307 L 415,308 L 415,309 L 417,309 L 418,310 L 420,310 L 422,312 L 444,312 L 445,313 L 449,313 L 450,312 L 452,312 L 453,313 L 453,314 L 453,313 L 454,312 L 454,310 L 455,309 L 455,308 L 456,307 L 457,307 L 457,306 L 458,305 L 459,305 L 459,304 L 460,303 L 461,303 L 462,302 L 462,300 L 466,296 L 468,296 L 469,295 L 470,295 L 471,294 L 472,294 L 473,293 L 477,293 L 478,292 L 479,292 L 480,293 L 481,292 L 483,292 L 484,291 L 485,291 L 486,290 L 487,290 L 490,287 L 491,287 L 491,286 L 492,285 L 493,285 L 493,284 L 494,283 L 495,283 L 496,282 L 497,282 L 498,281 L 499,281 L 500,280 L 502,280 L 503,279 L 504,280 L 505,280 L 506,279 L 508,279 L 509,278 L 510,279 L 513,279 L 514,280 L 517,280 L 517,279 L 516,278 L 516,275 L 515,274 L 515,273 L 516,272 L 516,271 L 517,270 L 517,269 L 516,268 L 516,267 L 514,265 L 515,264 L 514,264 L 512,262 L 513,261 L 513,260 L 512,259 L 513,258 L 512,258 L 511,257 L 512,256 L 512,255 L 511,254 L 512,253 L 511,252 L 511,250 L 512,249 L 512,247 L 511,246 L 512,245 L 510,243 L 510,242 L 508,240 L 508,239 L 509,238 L 508,238 L 507,237 L 508,236 L 507,235 L 507,234 L 506,233 L 504,233 L 503,232 Z" fill="none" stroke="black" stroke-width="1"/>
</svg>