<svg xmlns="http://www.w3.org/2000/svg" width="1190" height="502">
  <path d="M 509,279 L 508,280 L 506,280 L 505,281 L 504,281 L 503,280 L 502,281 L 500,281 L 499,282 L 498,282 L 497,283 L 496,283 L 495,284 L 494,284 L 494,285 L 493,286 L 492,286 L 492,287 L 491,288 L 490,288 L 487,291 L 486,291 L 485,292 L 484,292 L 483,293 L 481,293 L 480,294 L 479,293 L 478,293 L 477,294 L 473,294 L 472,295 L 471,295 L 470,296 L 469,296 L 468,297 L 466,297 L 463,300 L 463,302 L 461,304 L 460,304 L 460,305 L 459,306 L 458,306 L 458,307 L 457,308 L 456,308 L 456,309 L 455,310 L 455,312 L 454,313 L 454,318 L 455,319 L 455,320 L 457,322 L 457,323 L 460,326 L 460,328 L 456,332 L 456,342 L 457,343 L 457,344 L 459,346 L 459,350 L 460,350 L 461,351 L 461,352 L 464,355 L 464,356 L 465,357 L 465,359 L 464,360 L 464,363 L 461,366 L 460,366 L 459,367 L 459,368 L 458,369 L 458,370 L 454,374 L 452,374 L 451,375 L 451,376 L 450,377 L 450,387 L 449,388 L 448,388 L 447,389 L 447,390 L 445,392 L 444,392 L 441,395 L 440,395 L 439,396 L 438,396 L 436,398 L 435,398 L 430,403 L 429,403 L 427,405 L 425,405 L 423,407 L 424,407 L 425,406 L 426,406 L 427,405 L 428,405 L 429,406 L 432,406 L 434,408 L 439,408 L 440,407 L 443,407 L 444,408 L 445,407 L 451,407 L 452,408 L 453,408 L 455,406 L 459,406 L 460,407 L 462,407 L 464,405 L 467,405 L 468,404 L 469,404 L 470,403 L 473,403 L 474,402 L 478,402 L 479,401 L 480,401 L 482,399 L 483,399 L 484,398 L 488,398 L 489,399 L 490,398 L 492,398 L 498,392 L 497,391 L 497,389 L 500,386 L 501,386 L 503,384 L 505,384 L 506,383 L 507,383 L 508,382 L 509,382 L 511,380 L 512,380 L 515,377 L 515,376 L 517,374 L 518,374 L 520,372 L 522,372 L 524,370 L 525,370 L 527,368 L 528,368 L 529,367 L 530,367 L 535,362 L 536,362 L 543,355 L 544,355 L 544,354 L 543,353 L 544,352 L 544,351 L 545,350 L 546,350 L 549,347 L 549,346 L 550,345 L 551,345 L 551,344 L 553,342 L 555,342 L 556,341 L 557,341 L 557,340 L 559,338 L 559,337 L 560,336 L 562,336 L 561,335 L 560,335 L 559,334 L 559,333 L 558,332 L 558,331 L 557,330 L 557,329 L 556,328 L 555,328 L 554,327 L 553,327 L 551,325 L 551,324 L 550,324 L 547,321 L 546,321 L 545,320 L 545,319 L 543,317 L 543,316 L 542,315 L 542,314 L 540,312 L 540,310 L 536,306 L 535,306 L 534,305 L 534,304 L 533,304 L 530,301 L 531,300 L 531,299 L 530,298 L 531,297 L 530,296 L 530,293 L 527,290 L 528,289 L 525,286 L 525,285 L 524,284 L 523,284 L 522,283 L 522,282 L 519,282 L 518,281 L 514,281 L 513,280 L 510,280 Z" fill="none" stroke="black" stroke-width="1"/>
</svg>