<svg xmlns="http://www.w3.org/2000/svg" width="402" height="344">
  <path d="M 295,32 L 294,33 L 294,34 L 295,33 Z" fill="none" stroke="black" stroke-width="1"/>
  <path d="M 291,31 L 291,33 Z" fill="none" stroke="black" stroke-width="1"/>
  <path d="M 268,29 L 267,30 L 265,30 L 264,31 L 264,35 L 262,37 L 262,38 L 249,51 L 248,51 L 246,53 L 245,53 L 244,54 L 245,55 L 248,55 L 250,57 L 250,59 L 249,60 L 249,61 L 248,62 L 248,65 L 247,66 L 246,66 L 245,67 L 245,68 L 246,69 L 246,73 L 247,74 L 247,75 L 245,77 L 245,78 L 244,79 L 244,85 L 246,85 L 247,84 L 251,84 L 252,85 L 252,88 L 250,90 L 251,91 L 242,100 L 242,102 L 243,103 L 243,106 L 242,107 L 242,108 L 241,109 L 241,114 L 243,116 L 243,117 L 244,117 L 245,118 L 247,118 L 248,119 L 249,119 L 250,120 L 252,120 L 253,119 L 255,119 L 256,118 L 258,118 L 259,117 L 260,117 L 262,115 L 263,115 L 264,114 L 265,114 L 266,113 L 267,113 L 268,112 L 275,112 L 275,111 L 276,110 L 276,107 L 277,106 L 278,106 L 279,105 L 280,105 L 281,104 L 281,103 L 282,102 L 282,101 L 283,100 L 283,91 L 286,88 L 286,87 L 287,86 L 287,85 L 288,84 L 290,84 L 292,86 L 292,87 L 293,86 L 294,86 L 295,85 L 295,84 L 296,83 L 296,82 L 297,81 L 297,80 L 299,78 L 298,77 L 298,74 L 299,73 L 300,73 L 301,72 L 302,72 L 302,71 L 305,68 L 305,67 L 306,66 L 307,66 L 308,65 L 310,65 L 311,66 L 313,66 L 314,67 L 322,67 L 321,66 L 321,62 L 323,60 L 324,60 L 325,59 L 334,59 L 336,61 L 337,61 L 338,62 L 339,62 L 340,61 L 342,61 L 343,62 L 344,62 L 345,63 L 347,63 L 347,62 L 348,61 L 350,61 L 350,58 L 348,58 L 346,56 L 344,56 L 342,54 L 342,53 L 341,53 L 340,52 L 339,52 L 338,51 L 337,51 L 336,50 L 336,49 L 335,48 L 334,48 L 331,45 L 331,44 L 332,43 L 331,42 L 331,41 L 329,41 L 328,40 L 327,40 L 326,39 L 325,39 L 324,38 L 324,36 L 323,37 L 322,37 L 321,38 L 319,38 L 318,39 L 316,39 L 315,38 L 312,38 L 311,37 L 310,37 L 309,36 L 308,36 L 309,37 L 309,46 L 308,47 L 308,48 L 307,49 L 307,50 L 306,51 L 306,52 L 305,53 L 301,53 L 300,52 L 306,46 L 306,44 L 304,44 L 303,45 L 303,46 L 302,47 L 302,48 L 300,50 L 299,50 L 298,51 L 297,51 L 296,52 L 294,52 L 293,53 L 286,53 L 284,51 L 285,50 L 286,50 L 287,49 L 289,49 L 290,48 L 290,47 L 293,44 L 294,44 L 290,44 L 288,42 L 287,42 L 286,41 L 286,40 L 287,39 L 289,39 L 292,36 L 287,36 L 284,39 L 283,39 L 283,40 L 284,41 L 285,41 L 286,42 L 286,44 L 285,45 L 285,46 L 284,47 L 282,47 L 281,46 L 280,46 L 278,48 L 277,48 L 276,47 L 276,46 L 275,45 L 275,44 L 276,43 L 276,42 L 278,40 L 278,39 L 277,38 L 277,33 L 278,32 L 278,31 L 279,30 L 278,29 L 277,29 L 276,30 L 270,30 L 269,29 Z" fill="none" stroke="black" stroke-width="1"/>
  <path d="M 282,19 L 281,20 L 279,20 L 277,22 L 277,23 L 279,21 L 280,21 L 281,22 L 282,22 L 283,21 L 283,20 L 284,19 Z" fill="none" stroke="black" stroke-width="1"/>
  <path d="M 290,17 L 290,19 L 286,23 L 286,25 L 288,23 L 289,23 L 290,24 L 290,25 L 291,26 L 291,27 L 292,28 L 293,28 L 296,25 L 296,23 L 298,21 L 300,21 L 300,20 L 297,20 L 296,19 L 294,19 L 293,18 L 292,18 L 291,17 Z" fill="none" stroke="black" stroke-width="1"/>
</svg>