<svg xmlns="http://www.w3.org/2000/svg" width="402" height="344">
  <path d="M 164,44 L 164,45 L 163,46 L 163,50 L 162,51 L 162,53 L 163,54 L 163,59 L 162,60 L 162,63 L 161,64 L 160,64 L 158,66 L 156,66 L 156,67 L 155,68 L 155,69 L 154,70 L 154,71 L 153,72 L 153,73 L 151,75 L 149,75 L 148,76 L 145,76 L 144,77 L 142,77 L 139,80 L 139,82 L 138,83 L 138,85 L 137,86 L 137,88 L 136,89 L 136,90 L 135,91 L 135,93 L 134,94 L 135,95 L 134,96 L 133,96 L 131,98 L 131,99 L 129,101 L 127,101 L 126,102 L 125,102 L 124,101 L 124,103 L 125,104 L 125,105 L 128,108 L 128,109 L 130,111 L 130,112 L 131,113 L 131,120 L 133,120 L 135,122 L 135,123 L 134,124 L 134,125 L 133,126 L 133,127 L 134,128 L 134,130 L 135,130 L 136,131 L 136,132 L 138,134 L 141,134 L 142,135 L 146,135 L 147,134 L 149,134 L 149,132 L 150,131 L 150,128 L 151,127 L 151,126 L 154,123 L 155,123 L 156,122 L 159,122 L 161,120 L 162,120 L 163,121 L 166,121 L 167,120 L 168,120 L 169,119 L 171,119 L 172,118 L 179,118 L 181,116 L 182,116 L 184,114 L 184,113 L 186,111 L 186,108 L 189,105 L 189,104 L 192,101 L 194,101 L 195,100 L 197,100 L 197,97 L 200,94 L 200,93 L 204,89 L 204,88 L 209,83 L 209,81 L 211,79 L 211,76 L 213,74 L 214,74 L 213,73 L 213,72 L 215,70 L 215,69 L 213,67 L 213,64 L 214,63 L 213,62 L 213,61 L 212,61 L 210,59 L 206,59 L 205,60 L 204,60 L 203,61 L 202,61 L 200,59 L 198,59 L 197,60 L 196,59 L 196,54 L 195,53 L 195,52 L 196,51 L 196,49 L 195,49 L 194,48 L 190,48 L 189,47 L 188,47 L 187,48 L 186,48 L 185,47 L 184,47 L 183,46 L 177,46 L 175,44 Z" fill="none" stroke="black" stroke-width="1"/>
</svg>