<svg xmlns="http://www.w3.org/2000/svg" width="402" height="344">
  <path d="M 325,60 L 324,61 L 323,61 L 322,62 L 322,66 L 323,67 L 324,67 L 325,68 L 326,68 L 328,70 L 329,70 L 331,72 L 332,72 L 333,73 L 333,75 L 334,75 L 335,76 L 335,78 L 334,79 L 333,79 L 332,80 L 332,90 L 331,91 L 331,92 L 330,93 L 328,93 L 327,94 L 326,94 L 325,95 L 322,95 L 321,96 L 317,96 L 315,98 L 316,98 L 319,101 L 319,103 L 322,106 L 323,106 L 324,107 L 325,107 L 326,108 L 327,108 L 328,109 L 328,110 L 329,110 L 330,111 L 332,111 L 333,112 L 335,112 L 335,109 L 337,107 L 338,107 L 338,105 L 339,104 L 338,103 L 338,100 L 340,98 L 341,98 L 341,97 L 340,96 L 342,94 L 342,93 L 344,91 L 345,91 L 345,90 L 349,86 L 350,86 L 348,84 L 348,83 L 350,81 L 351,81 L 350,80 L 349,80 L 345,76 L 345,75 L 346,74 L 347,74 L 347,73 L 348,72 L 348,70 L 347,69 L 347,68 L 345,66 L 344,66 L 340,62 L 339,63 L 338,63 L 337,62 L 336,62 L 334,60 Z" fill="none" stroke="black" stroke-width="1"/>
</svg>