<svg xmlns="http://www.w3.org/2000/svg" width="1190" height="502">
  <path d="M 351,255 L 351,256 L 350,257 L 349,257 L 348,256 L 347,257 L 344,257 L 343,256 L 340,256 L 339,257 L 338,256 L 337,256 L 336,257 L 335,257 L 334,258 L 333,258 L 332,259 L 328,259 L 327,260 L 326,259 L 325,259 L 324,260 L 322,260 L 321,261 L 320,260 L 319,260 L 318,261 L 312,261 L 310,263 L 309,262 L 308,263 L 308,268 L 309,267 L 314,267 L 315,268 L 319,268 L 320,269 L 321,269 L 322,270 L 322,271 L 323,272 L 323,283 L 321,285 L 321,286 L 319,288 L 319,289 L 315,293 L 315,294 L 314,295 L 314,296 L 312,298 L 312,300 L 311,301 L 311,316 L 312,316 L 313,317 L 315,317 L 316,318 L 317,318 L 318,319 L 320,319 L 321,320 L 321,321 L 323,323 L 324,323 L 325,324 L 326,324 L 328,322 L 340,322 L 340,319 L 341,318 L 347,318 L 348,319 L 350,319 L 351,320 L 352,320 L 353,321 L 355,321 L 356,322 L 366,322 L 365,321 L 365,320 L 364,319 L 364,318 L 363,317 L 363,310 L 362,309 L 362,307 L 361,306 L 361,303 L 362,302 L 364,302 L 366,300 L 366,299 L 367,298 L 369,298 L 370,299 L 373,299 L 374,300 L 384,300 L 385,301 L 386,301 L 387,300 L 390,300 L 391,301 L 392,301 L 393,302 L 394,302 L 395,303 L 396,303 L 397,304 L 403,304 L 404,305 L 406,305 L 407,306 L 409,306 L 410,307 L 411,307 L 412,308 L 413,308 L 414,309 L 414,308 L 415,307 L 414,306 L 414,305 L 413,304 L 413,301 L 412,300 L 411,300 L 410,299 L 410,296 L 409,295 L 409,294 L 408,293 L 408,292 L 407,291 L 406,291 L 405,290 L 405,289 L 403,289 L 400,286 L 398,286 L 397,285 L 394,285 L 393,284 L 393,283 L 392,283 L 390,281 L 390,280 L 389,279 L 389,278 L 388,277 L 389,276 L 388,275 L 388,274 L 387,273 L 386,273 L 385,272 L 381,272 L 380,271 L 377,271 L 376,270 L 376,269 L 375,269 L 374,268 L 373,268 L 371,266 L 369,266 L 368,265 L 369,264 L 367,264 L 365,262 L 365,261 L 362,258 L 361,258 L 360,257 L 359,257 L 358,256 L 355,256 L 354,255 Z" fill="none" stroke="black" stroke-width="1"/>
</svg>