<svg xmlns="http://www.w3.org/2000/svg" width="1190" height="502">
  <path d="M 367,299 L 367,300 L 364,303 L 362,303 L 362,306 L 363,307 L 363,309 L 364,310 L 364,317 L 365,318 L 365,319 L 366,320 L 366,321 L 367,322 L 366,323 L 356,323 L 355,322 L 353,322 L 352,321 L 351,321 L 350,320 L 348,320 L 347,319 L 341,319 L 341,322 L 340,323 L 328,323 L 326,325 L 325,325 L 324,324 L 323,324 L 320,321 L 320,320 L 318,320 L 317,319 L 316,319 L 315,318 L 313,318 L 312,317 L 310,317 L 309,316 L 304,316 L 304,317 L 303,318 L 302,318 L 300,320 L 293,320 L 292,319 L 279,319 L 275,323 L 278,323 L 283,328 L 283,329 L 284,330 L 284,331 L 287,334 L 287,335 L 288,336 L 288,338 L 289,339 L 290,339 L 293,342 L 293,344 L 295,346 L 295,349 L 296,350 L 296,358 L 295,359 L 294,359 L 294,360 L 292,362 L 291,362 L 291,363 L 295,367 L 296,367 L 297,368 L 301,368 L 302,369 L 308,369 L 310,371 L 312,371 L 313,372 L 319,372 L 320,371 L 321,371 L 322,370 L 325,370 L 326,371 L 331,371 L 334,368 L 335,368 L 337,366 L 338,366 L 339,365 L 341,365 L 342,366 L 343,366 L 346,369 L 346,370 L 347,370 L 348,369 L 350,369 L 351,370 L 353,370 L 354,371 L 356,371 L 357,372 L 354,375 L 354,376 L 355,375 L 356,375 L 357,374 L 359,374 L 360,375 L 360,374 L 361,373 L 366,373 L 367,372 L 373,372 L 376,375 L 379,372 L 381,372 L 382,371 L 384,371 L 386,369 L 390,369 L 391,370 L 392,370 L 394,372 L 394,373 L 395,374 L 396,374 L 397,375 L 398,375 L 399,374 L 399,373 L 401,371 L 403,371 L 404,370 L 408,370 L 409,371 L 419,371 L 420,370 L 426,370 L 427,371 L 432,371 L 433,372 L 433,373 L 436,376 L 437,376 L 440,379 L 440,380 L 441,381 L 441,382 L 442,383 L 442,384 L 446,388 L 447,388 L 448,387 L 449,387 L 449,377 L 450,376 L 450,375 L 452,373 L 454,373 L 457,370 L 457,369 L 458,368 L 458,367 L 460,365 L 461,365 L 463,363 L 463,360 L 464,359 L 464,357 L 463,356 L 463,355 L 460,352 L 460,351 L 459,351 L 458,350 L 458,346 L 456,344 L 456,343 L 455,342 L 455,332 L 459,328 L 459,326 L 456,323 L 456,322 L 454,320 L 454,319 L 453,318 L 453,315 L 452,314 L 452,313 L 450,313 L 449,314 L 445,314 L 444,313 L 422,313 L 420,311 L 418,311 L 417,310 L 414,310 L 413,309 L 412,309 L 411,308 L 410,308 L 409,307 L 407,307 L 406,306 L 404,306 L 403,305 L 397,305 L 396,304 L 395,304 L 394,303 L 393,303 L 392,302 L 391,302 L 390,301 L 387,301 L 386,302 L 385,302 L 384,301 L 374,301 L 373,300 L 370,300 L 369,299 Z" fill="none" stroke="black" stroke-width="1"/>
</svg>