<svg xmlns="http://www.w3.org/2000/svg" width="1190" height="502">
  <path d="M 90,200 L 89,201 L 87,201 L 86,202 L 83,202 L 82,203 L 81,203 L 80,204 L 79,204 L 78,205 L 77,205 L 77,211 L 76,212 L 75,212 L 75,213 L 74,214 L 74,215 L 73,216 L 73,217 L 74,218 L 74,219 L 75,220 L 75,221 L 76,222 L 76,223 L 77,223 L 78,224 L 78,225 L 79,226 L 79,227 L 80,228 L 80,232 L 81,233 L 81,234 L 82,235 L 82,236 L 83,237 L 83,250 L 82,251 L 81,251 L 81,253 L 77,257 L 76,257 L 76,258 L 75,259 L 75,263 L 74,264 L 74,265 L 72,267 L 72,268 L 71,269 L 71,276 L 72,277 L 72,278 L 73,279 L 73,286 L 74,287 L 74,301 L 73,302 L 73,306 L 72,307 L 72,313 L 71,314 L 71,319 L 72,320 L 75,320 L 76,321 L 77,321 L 78,322 L 78,323 L 79,323 L 80,324 L 83,324 L 84,323 L 86,323 L 87,322 L 88,322 L 90,320 L 90,319 L 92,317 L 93,317 L 94,318 L 98,318 L 99,317 L 100,317 L 101,316 L 102,316 L 102,313 L 101,312 L 101,309 L 104,306 L 115,306 L 116,307 L 116,308 L 117,309 L 119,309 L 120,310 L 121,310 L 122,311 L 131,311 L 131,310 L 132,309 L 133,309 L 134,308 L 134,306 L 136,304 L 139,304 L 140,303 L 141,303 L 142,302 L 143,302 L 143,299 L 145,297 L 146,298 L 148,298 L 150,300 L 154,300 L 155,301 L 158,301 L 159,302 L 159,303 L 160,303 L 161,304 L 161,305 L 162,306 L 162,307 L 164,309 L 164,310 L 168,310 L 171,313 L 172,313 L 173,314 L 185,314 L 186,315 L 187,315 L 188,316 L 190,316 L 190,315 L 191,314 L 191,312 L 192,311 L 192,309 L 193,308 L 193,307 L 194,306 L 194,305 L 195,304 L 195,303 L 196,302 L 196,300 L 197,299 L 197,296 L 198,295 L 198,294 L 199,293 L 199,291 L 200,290 L 200,288 L 201,287 L 201,284 L 202,283 L 202,282 L 201,283 L 200,282 L 200,281 L 201,280 L 201,271 L 200,270 L 200,259 L 202,257 L 202,256 L 203,255 L 203,252 L 202,251 L 202,245 L 198,241 L 198,235 L 199,234 L 200,234 L 202,232 L 204,232 L 200,232 L 199,231 L 195,231 L 194,230 L 191,230 L 190,229 L 188,229 L 186,227 L 185,227 L 183,225 L 183,224 L 181,224 L 179,226 L 178,226 L 177,225 L 176,226 L 173,226 L 172,225 L 168,225 L 167,224 L 164,224 L 163,223 L 159,223 L 158,222 L 155,222 L 154,221 L 150,221 L 149,220 L 146,220 L 145,219 L 144,219 L 143,218 L 142,218 L 140,216 L 138,216 L 137,215 L 137,214 L 134,214 L 132,212 L 132,211 L 131,211 L 130,210 L 126,210 L 125,209 L 123,209 L 122,208 L 121,208 L 120,207 L 117,207 L 116,208 L 115,208 L 114,207 L 112,207 L 111,206 L 110,206 L 109,205 L 102,205 L 101,204 L 99,204 L 98,203 L 97,203 L 96,202 L 94,202 L 93,201 L 92,201 L 91,200 Z" fill="none" stroke="black" stroke-width="1"/>
</svg>