<svg xmlns="http://www.w3.org/2000/svg" width="1190" height="502">
  <path d="M 145,298 L 144,299 L 144,302 L 143,303 L 142,303 L 141,304 L 140,304 L 139,305 L 136,305 L 135,306 L 135,308 L 133,310 L 132,310 L 132,311 L 131,312 L 122,312 L 121,311 L 120,311 L 119,310 L 117,310 L 115,308 L 115,307 L 104,307 L 102,309 L 102,312 L 103,313 L 103,316 L 102,317 L 101,317 L 100,318 L 99,318 L 98,319 L 94,319 L 93,318 L 92,318 L 91,319 L 91,320 L 88,323 L 87,323 L 86,324 L 84,324 L 83,325 L 80,325 L 79,324 L 78,324 L 77,323 L 77,322 L 76,322 L 75,321 L 72,321 L 70,319 L 69,320 L 69,321 L 67,323 L 67,324 L 65,326 L 65,327 L 64,328 L 64,329 L 63,330 L 63,331 L 60,334 L 60,335 L 59,336 L 59,340 L 60,340 L 61,341 L 61,344 L 62,345 L 62,346 L 64,348 L 64,349 L 65,350 L 65,352 L 64,353 L 63,353 L 63,354 L 64,355 L 64,359 L 67,362 L 67,363 L 68,364 L 72,364 L 73,365 L 73,366 L 75,368 L 75,369 L 78,369 L 79,368 L 80,368 L 82,370 L 83,370 L 84,371 L 89,371 L 90,370 L 92,370 L 94,372 L 94,374 L 94,373 L 95,372 L 96,372 L 97,371 L 100,371 L 101,372 L 101,373 L 102,373 L 103,374 L 102,375 L 102,376 L 101,377 L 101,383 L 103,383 L 105,381 L 106,382 L 106,381 L 107,380 L 108,380 L 110,378 L 111,379 L 114,379 L 115,380 L 119,380 L 120,381 L 123,381 L 124,382 L 125,382 L 126,381 L 129,384 L 129,385 L 130,385 L 131,386 L 132,386 L 134,388 L 134,389 L 133,390 L 132,390 L 132,394 L 131,395 L 130,395 L 130,397 L 135,397 L 136,396 L 137,396 L 138,395 L 141,395 L 143,393 L 146,393 L 147,392 L 152,392 L 153,391 L 155,391 L 156,390 L 164,390 L 165,391 L 169,391 L 170,392 L 172,392 L 174,394 L 174,395 L 173,396 L 173,398 L 177,398 L 178,397 L 179,397 L 180,396 L 181,396 L 185,392 L 185,391 L 184,390 L 184,386 L 185,385 L 185,384 L 186,383 L 186,379 L 185,379 L 184,378 L 184,376 L 183,375 L 183,373 L 181,371 L 181,366 L 179,364 L 179,363 L 177,361 L 177,357 L 178,356 L 178,354 L 177,353 L 177,351 L 176,350 L 176,343 L 177,342 L 178,342 L 178,340 L 179,339 L 180,339 L 180,338 L 181,337 L 181,336 L 184,333 L 185,333 L 185,332 L 186,331 L 186,326 L 187,325 L 187,323 L 188,322 L 188,320 L 189,319 L 189,318 L 190,317 L 188,317 L 187,316 L 186,316 L 185,315 L 173,315 L 172,314 L 171,314 L 168,311 L 164,311 L 163,310 L 163,309 L 161,307 L 161,306 L 160,305 L 160,304 L 159,304 L 158,303 L 158,302 L 155,302 L 154,301 L 150,301 L 148,299 L 146,299 Z" fill="none" stroke="black" stroke-width="1"/>
</svg>