<svg xmlns="http://www.w3.org/2000/svg" width="1190" height="502">
  <path d="M 89,415 L 88,416 L 87,416 L 87,417 L 84,420 L 84,421 L 85,420 L 86,420 L 87,419 L 90,419 L 90,418 L 91,417 L 90,416 L 91,415 Z" fill="none" stroke="black" stroke-width="1"/>
  <path d="M 110,379 L 108,381 L 107,381 L 107,382 L 106,383 L 105,382 L 103,384 L 101,384 L 100,385 L 100,390 L 99,391 L 100,392 L 100,393 L 99,394 L 99,395 L 98,396 L 98,401 L 97,402 L 98,403 L 98,406 L 99,407 L 99,408 L 98,409 L 98,410 L 97,411 L 97,412 L 96,413 L 95,413 L 94,414 L 94,415 L 95,416 L 95,419 L 94,420 L 93,420 L 93,421 L 92,422 L 91,422 L 91,424 L 90,425 L 89,425 L 87,427 L 86,427 L 85,426 L 83,428 L 82,428 L 80,430 L 81,431 L 80,432 L 80,435 L 81,435 L 82,436 L 82,437 L 84,437 L 85,438 L 85,439 L 86,439 L 87,440 L 88,440 L 89,441 L 89,442 L 91,442 L 94,445 L 96,445 L 97,446 L 100,446 L 101,447 L 104,447 L 105,448 L 109,448 L 110,449 L 112,449 L 113,448 L 114,449 L 115,449 L 116,448 L 122,448 L 123,449 L 127,449 L 128,450 L 131,450 L 132,451 L 135,451 L 136,452 L 139,452 L 140,453 L 144,453 L 145,454 L 148,454 L 149,455 L 151,455 L 152,454 L 152,452 L 156,448 L 158,448 L 158,443 L 160,441 L 162,441 L 165,438 L 166,438 L 167,437 L 168,437 L 172,433 L 175,433 L 175,430 L 176,429 L 176,428 L 177,427 L 181,427 L 183,425 L 187,425 L 186,425 L 184,423 L 186,421 L 189,421 L 190,420 L 191,420 L 192,419 L 195,419 L 195,418 L 198,415 L 200,415 L 201,414 L 201,412 L 202,411 L 203,411 L 203,409 L 205,407 L 206,407 L 207,406 L 207,405 L 208,404 L 208,403 L 210,401 L 211,401 L 211,400 L 210,400 L 209,399 L 210,398 L 211,398 L 211,396 L 209,396 L 208,395 L 206,395 L 205,394 L 198,394 L 197,395 L 194,395 L 193,394 L 188,394 L 187,393 L 185,393 L 181,397 L 180,397 L 179,398 L 178,398 L 177,399 L 173,399 L 172,398 L 172,396 L 173,395 L 173,394 L 172,393 L 170,393 L 169,392 L 165,392 L 164,391 L 156,391 L 155,392 L 153,392 L 152,393 L 147,393 L 146,394 L 143,394 L 141,396 L 138,396 L 137,397 L 136,397 L 135,398 L 130,398 L 129,397 L 129,395 L 130,394 L 131,394 L 131,390 L 132,389 L 133,389 L 133,388 L 132,387 L 131,387 L 130,386 L 129,386 L 128,385 L 128,384 L 126,382 L 125,383 L 124,383 L 123,382 L 120,382 L 119,381 L 115,381 L 114,380 L 111,380 Z" fill="none" stroke="black" stroke-width="1"/>
</svg>