<svg xmlns="http://www.w3.org/2000/svg" width="1190" height="502">
  <path d="M 75,436 L 73,438 L 72,438 L 71,439 L 67,439 L 66,440 L 65,440 L 63,442 L 61,442 L 60,443 L 59,443 L 58,444 L 58,445 L 55,448 L 54,447 L 54,446 L 50,446 L 48,448 L 48,449 L 49,450 L 47,452 L 47,453 L 45,455 L 45,456 L 41,460 L 39,460 L 38,461 L 37,461 L 36,462 L 33,462 L 32,463 L 26,463 L 25,464 L 22,464 L 20,466 L 19,466 L 18,465 L 15,465 L 14,466 L 13,466 L 13,469 L 12,470 L 11,470 L 10,471 L 9,471 L 8,472 L 6,472 L 5,473 L 4,473 L 3,474 L 3,475 L 2,476 L 2,479 L 3,480 L 3,484 L 1,486 L 0,486 L 0,487 L 2,487 L 3,488 L 4,488 L 5,487 L 6,487 L 7,486 L 8,486 L 9,485 L 10,485 L 14,481 L 16,481 L 21,476 L 26,476 L 27,475 L 30,475 L 31,474 L 32,474 L 33,473 L 37,473 L 38,472 L 45,472 L 47,474 L 48,474 L 49,475 L 52,475 L 53,476 L 67,476 L 68,477 L 69,477 L 70,478 L 70,479 L 73,479 L 74,480 L 78,480 L 80,482 L 81,482 L 83,484 L 84,484 L 86,486 L 87,486 L 88,487 L 90,487 L 91,488 L 91,493 L 92,494 L 92,496 L 94,496 L 95,497 L 96,497 L 97,498 L 98,498 L 99,499 L 101,499 L 102,500 L 119,500 L 119,499 L 118,498 L 118,496 L 120,494 L 120,493 L 121,492 L 121,487 L 122,486 L 123,486 L 123,485 L 125,483 L 126,483 L 127,482 L 127,481 L 128,480 L 128,478 L 126,476 L 126,475 L 125,474 L 127,472 L 129,472 L 130,471 L 131,471 L 132,470 L 134,470 L 135,469 L 137,469 L 137,468 L 140,465 L 141,465 L 142,464 L 142,462 L 144,460 L 146,460 L 150,456 L 149,456 L 148,455 L 145,455 L 144,454 L 140,454 L 139,453 L 136,453 L 135,452 L 132,452 L 131,451 L 128,451 L 127,450 L 123,450 L 122,449 L 116,449 L 115,450 L 114,450 L 113,449 L 112,450 L 110,450 L 109,449 L 105,449 L 104,448 L 101,448 L 100,447 L 97,447 L 96,446 L 94,446 L 91,443 L 89,443 L 88,442 L 88,441 L 87,441 L 86,440 L 85,440 L 84,439 L 84,438 L 82,438 L 81,437 L 81,436 L 79,436 L 77,438 L 76,437 L 76,436 Z" fill="none" stroke="black" stroke-width="1"/>
</svg>