<svg xmlns="http://www.w3.org/2000/svg" width="1190" height="502">
  <path d="M 270,420 L 268,422 L 266,422 L 265,421 L 262,421 L 261,422 L 259,422 L 258,423 L 257,423 L 256,424 L 255,424 L 255,425 L 254,426 L 253,426 L 250,429 L 249,429 L 248,430 L 246,430 L 245,431 L 243,431 L 242,432 L 241,432 L 240,433 L 240,438 L 239,439 L 238,439 L 238,442 L 237,443 L 232,443 L 231,444 L 230,444 L 229,445 L 226,445 L 225,446 L 224,446 L 223,447 L 220,447 L 219,448 L 217,448 L 215,450 L 214,450 L 213,451 L 209,451 L 207,453 L 206,453 L 205,452 L 202,452 L 200,454 L 199,454 L 198,455 L 197,454 L 196,454 L 195,453 L 194,453 L 193,454 L 192,453 L 191,453 L 190,454 L 178,454 L 177,455 L 176,455 L 176,456 L 175,457 L 167,457 L 166,456 L 165,456 L 163,454 L 162,454 L 161,453 L 161,450 L 160,449 L 160,448 L 159,449 L 156,449 L 153,452 L 153,454 L 146,461 L 144,461 L 143,462 L 143,464 L 141,466 L 140,466 L 138,468 L 138,469 L 137,470 L 135,470 L 134,471 L 132,471 L 131,472 L 130,472 L 129,473 L 127,473 L 126,474 L 127,475 L 127,476 L 129,478 L 129,480 L 128,481 L 128,482 L 126,484 L 125,484 L 124,485 L 124,486 L 123,487 L 122,487 L 122,492 L 121,493 L 121,494 L 119,496 L 119,498 L 120,499 L 120,500 L 129,500 L 130,499 L 135,499 L 136,498 L 137,498 L 138,497 L 142,497 L 143,496 L 144,496 L 145,495 L 148,495 L 149,494 L 150,494 L 151,493 L 154,493 L 155,492 L 158,492 L 159,491 L 161,491 L 162,490 L 163,490 L 164,489 L 165,489 L 167,487 L 169,487 L 171,485 L 172,485 L 173,486 L 180,486 L 181,487 L 182,487 L 184,489 L 184,490 L 185,490 L 188,493 L 193,493 L 194,494 L 195,493 L 196,493 L 197,492 L 198,492 L 199,491 L 200,491 L 201,490 L 202,490 L 203,491 L 204,491 L 205,492 L 207,492 L 209,494 L 209,495 L 210,495 L 211,496 L 212,496 L 213,497 L 214,497 L 215,498 L 217,498 L 218,499 L 222,499 L 223,500 L 225,500 L 226,501 L 228,501 L 229,500 L 230,500 L 233,497 L 234,497 L 239,492 L 243,492 L 244,491 L 248,491 L 250,489 L 250,485 L 248,485 L 247,484 L 248,483 L 248,482 L 249,481 L 249,480 L 252,477 L 252,476 L 253,475 L 253,473 L 257,469 L 257,468 L 256,467 L 258,465 L 259,465 L 259,463 L 260,462 L 260,460 L 261,459 L 261,458 L 262,457 L 263,457 L 267,453 L 268,453 L 269,452 L 271,452 L 271,450 L 272,449 L 272,446 L 270,444 L 270,442 L 271,441 L 271,439 L 270,439 L 269,438 L 265,438 L 264,439 L 262,439 L 260,437 L 260,435 L 262,433 L 264,433 L 265,432 L 265,431 L 268,428 L 269,428 L 274,423 L 276,423 L 277,422 L 278,423 L 281,423 L 280,422 L 280,421 L 279,420 L 278,421 L 277,420 L 273,420 L 272,421 L 271,420 Z" fill="none" stroke="black" stroke-width="1"/>
</svg>