<svg xmlns="http://www.w3.org/2000/svg" width="757" height="474">
  <path d="M 718,180 L 717,181 L 714,181 L 713,182 L 711,182 L 710,183 L 709,183 L 707,185 L 703,185 L 702,186 L 701,186 L 700,187 L 698,187 L 696,189 L 695,188 L 694,188 L 692,186 L 691,186 L 689,184 L 688,184 L 687,183 L 685,183 L 684,184 L 674,184 L 673,185 L 672,185 L 671,186 L 670,186 L 669,187 L 667,187 L 666,188 L 663,188 L 662,189 L 653,189 L 651,191 L 650,191 L 649,192 L 648,192 L 647,193 L 644,193 L 643,194 L 642,194 L 641,195 L 640,195 L 638,197 L 637,197 L 633,201 L 632,201 L 631,202 L 629,202 L 624,207 L 622,207 L 619,210 L 617,210 L 615,212 L 615,213 L 614,214 L 614,219 L 613,220 L 613,221 L 612,222 L 611,222 L 610,223 L 610,228 L 609,229 L 609,230 L 607,232 L 607,233 L 606,234 L 606,240 L 607,240 L 608,241 L 608,242 L 609,243 L 609,245 L 608,246 L 608,249 L 607,250 L 606,250 L 606,252 L 604,254 L 602,254 L 600,256 L 600,258 L 598,260 L 598,268 L 599,269 L 599,270 L 600,271 L 600,273 L 603,273 L 604,272 L 608,272 L 609,271 L 611,271 L 611,270 L 612,269 L 614,269 L 622,277 L 623,277 L 624,278 L 623,279 L 624,280 L 624,281 L 625,282 L 625,283 L 627,285 L 627,286 L 628,287 L 628,288 L 635,295 L 636,294 L 638,294 L 639,293 L 641,293 L 643,291 L 645,291 L 646,290 L 647,290 L 648,289 L 650,289 L 651,288 L 652,288 L 655,285 L 656,285 L 657,284 L 658,284 L 659,283 L 659,282 L 660,281 L 660,280 L 661,279 L 661,278 L 664,275 L 665,275 L 665,274 L 666,273 L 672,273 L 673,274 L 682,274 L 683,275 L 695,275 L 696,276 L 702,276 L 703,277 L 704,277 L 706,279 L 707,279 L 708,280 L 709,279 L 720,279 L 721,278 L 725,278 L 725,268 L 724,267 L 724,260 L 723,259 L 723,258 L 722,257 L 722,250 L 723,249 L 723,248 L 725,246 L 725,245 L 726,244 L 726,240 L 727,239 L 727,238 L 728,237 L 729,237 L 732,234 L 732,232 L 733,231 L 734,231 L 734,218 L 733,217 L 733,216 L 732,215 L 732,214 L 731,213 L 731,209 L 730,208 L 730,207 L 729,206 L 729,205 L 728,205 L 727,204 L 727,203 L 726,202 L 726,201 L 725,200 L 725,199 L 724,198 L 724,197 L 725,196 L 725,195 L 726,194 L 726,193 L 727,192 L 728,192 L 728,184 L 726,184 L 725,183 L 724,183 L 723,182 L 722,182 L 721,181 L 719,181 Z" fill="none" stroke="black" stroke-width="1"/>
</svg>