<svg xmlns="http://www.w3.org/2000/svg" width="757" height="474">
  <path d="M 707,332 L 705,334 L 704,334 L 703,335 L 702,335 L 701,336 L 700,335 L 694,335 L 693,336 L 692,336 L 692,337 L 691,338 L 690,338 L 690,339 L 688,341 L 685,341 L 684,342 L 684,343 L 680,347 L 680,348 L 679,349 L 679,350 L 678,351 L 675,351 L 674,352 L 673,352 L 673,354 L 670,357 L 669,357 L 669,360 L 671,362 L 671,363 L 670,364 L 670,369 L 668,371 L 667,371 L 666,372 L 664,372 L 663,373 L 661,373 L 660,374 L 659,374 L 658,375 L 655,375 L 654,376 L 648,376 L 647,375 L 643,375 L 642,374 L 640,374 L 639,373 L 633,373 L 632,372 L 629,372 L 628,373 L 626,373 L 625,374 L 614,374 L 613,375 L 612,375 L 611,376 L 609,376 L 608,377 L 607,377 L 606,378 L 602,378 L 601,379 L 593,379 L 592,380 L 590,380 L 589,379 L 588,379 L 589,379 L 590,380 L 591,380 L 593,382 L 593,385 L 595,385 L 596,386 L 596,390 L 595,391 L 595,392 L 594,393 L 594,395 L 593,396 L 593,402 L 592,403 L 592,405 L 591,406 L 588,406 L 588,408 L 587,409 L 584,409 L 584,411 L 586,413 L 585,414 L 584,414 L 583,415 L 584,416 L 584,417 L 583,418 L 583,419 L 584,420 L 583,421 L 583,422 L 581,424 L 581,426 L 583,426 L 584,427 L 584,428 L 586,430 L 587,430 L 589,432 L 591,432 L 592,433 L 596,433 L 598,435 L 599,435 L 600,436 L 609,436 L 610,437 L 611,437 L 612,438 L 613,438 L 614,439 L 616,439 L 617,440 L 618,440 L 619,441 L 620,441 L 621,442 L 623,442 L 624,441 L 626,441 L 627,442 L 628,442 L 629,443 L 631,443 L 632,444 L 634,444 L 636,446 L 635,447 L 635,451 L 636,452 L 636,456 L 638,458 L 637,459 L 637,461 L 639,461 L 642,464 L 644,464 L 646,466 L 653,466 L 654,465 L 654,461 L 653,460 L 653,457 L 654,456 L 654,455 L 656,453 L 657,453 L 658,452 L 660,452 L 661,451 L 662,451 L 663,450 L 664,450 L 664,446 L 663,446 L 662,445 L 661,445 L 660,444 L 659,444 L 658,443 L 656,443 L 655,442 L 654,442 L 653,441 L 653,440 L 654,439 L 657,439 L 658,438 L 671,438 L 673,436 L 674,436 L 675,437 L 677,437 L 678,436 L 680,436 L 682,434 L 683,434 L 684,433 L 685,433 L 688,430 L 689,430 L 689,429 L 696,422 L 698,422 L 699,421 L 700,421 L 701,420 L 702,420 L 706,416 L 707,416 L 707,415 L 709,413 L 710,413 L 711,412 L 713,412 L 714,411 L 718,411 L 719,410 L 719,409 L 720,408 L 722,408 L 722,406 L 719,409 L 717,409 L 716,410 L 714,410 L 713,411 L 712,411 L 710,413 L 709,412 L 709,410 L 710,409 L 711,409 L 712,408 L 713,408 L 715,406 L 716,406 L 718,404 L 719,404 L 719,402 L 723,398 L 724,398 L 725,397 L 726,397 L 729,394 L 729,393 L 730,392 L 730,391 L 731,390 L 731,389 L 732,388 L 732,387 L 734,385 L 734,382 L 736,380 L 736,379 L 737,378 L 737,377 L 738,376 L 738,374 L 740,372 L 740,370 L 741,369 L 742,369 L 742,367 L 743,366 L 743,361 L 742,360 L 742,358 L 743,357 L 744,357 L 745,356 L 745,353 L 744,352 L 742,352 L 741,353 L 736,353 L 735,352 L 734,352 L 732,350 L 731,350 L 730,351 L 727,351 L 726,350 L 726,349 L 724,347 L 724,346 L 720,346 L 718,344 L 718,343 L 715,340 L 715,336 L 714,335 L 714,334 L 712,334 L 711,333 L 710,333 L 709,332 Z" fill="none" stroke="black" stroke-width="1"/>
</svg>