<svg xmlns="http://www.w3.org/2000/svg" width="757" height="474">
  <path d="M 506,177 L 505,178 L 497,178 L 496,179 L 496,180 L 492,184 L 490,184 L 492,186 L 491,187 L 490,187 L 489,188 L 488,188 L 487,189 L 486,188 L 486,187 L 486,188 L 485,189 L 484,189 L 483,190 L 483,191 L 482,192 L 481,192 L 480,193 L 478,193 L 478,194 L 474,198 L 474,199 L 473,200 L 473,201 L 472,202 L 472,203 L 471,204 L 471,206 L 470,207 L 470,208 L 469,209 L 468,209 L 467,210 L 467,211 L 466,212 L 465,212 L 465,213 L 464,214 L 463,214 L 461,216 L 460,216 L 458,218 L 458,220 L 457,221 L 457,224 L 456,225 L 456,227 L 457,228 L 457,229 L 459,231 L 460,231 L 462,233 L 462,235 L 460,237 L 460,243 L 461,244 L 462,244 L 463,245 L 463,246 L 464,246 L 469,251 L 469,253 L 470,254 L 470,255 L 471,256 L 471,258 L 473,258 L 474,259 L 475,259 L 476,260 L 477,260 L 478,259 L 478,258 L 479,257 L 479,255 L 480,254 L 480,253 L 481,252 L 481,251 L 482,250 L 488,250 L 489,249 L 490,249 L 492,247 L 493,247 L 495,245 L 496,245 L 498,243 L 498,242 L 500,240 L 504,240 L 505,241 L 508,241 L 509,242 L 513,242 L 514,243 L 521,243 L 522,244 L 523,244 L 525,246 L 526,246 L 528,248 L 528,249 L 529,249 L 531,251 L 534,251 L 535,252 L 537,252 L 539,254 L 550,254 L 552,256 L 552,257 L 555,260 L 556,260 L 560,264 L 560,265 L 561,266 L 562,266 L 564,264 L 565,264 L 566,265 L 567,265 L 569,267 L 571,267 L 572,268 L 574,268 L 575,269 L 575,270 L 576,270 L 578,272 L 578,273 L 586,273 L 588,275 L 589,275 L 590,274 L 592,274 L 593,273 L 599,273 L 599,271 L 598,270 L 598,269 L 597,268 L 597,260 L 599,258 L 599,256 L 602,253 L 604,253 L 605,252 L 605,250 L 606,249 L 607,249 L 607,246 L 608,245 L 608,243 L 607,242 L 607,241 L 606,241 L 605,240 L 605,234 L 606,233 L 606,232 L 608,230 L 608,229 L 609,228 L 609,223 L 611,221 L 612,221 L 612,220 L 613,219 L 613,214 L 614,213 L 614,212 L 615,211 L 605,201 L 602,201 L 601,200 L 600,200 L 596,196 L 596,195 L 592,195 L 591,196 L 589,196 L 588,195 L 587,195 L 586,194 L 585,194 L 584,193 L 582,193 L 581,194 L 580,194 L 579,193 L 578,193 L 577,192 L 576,192 L 575,191 L 573,191 L 572,192 L 571,192 L 570,191 L 569,191 L 568,190 L 567,190 L 566,189 L 563,189 L 562,190 L 559,190 L 558,189 L 556,189 L 555,188 L 554,188 L 553,187 L 552,188 L 541,188 L 540,187 L 539,187 L 538,186 L 537,186 L 536,185 L 535,185 L 534,184 L 522,184 L 521,183 L 520,183 L 518,181 L 517,181 L 516,180 L 515,180 L 514,179 L 513,180 L 512,179 L 511,179 L 510,178 L 509,178 L 508,177 Z" fill="none" stroke="black" stroke-width="1"/>
</svg>