<svg xmlns="http://www.w3.org/2000/svg" width="757" height="474">
  <path d="M 573,269 L 569,273 L 569,274 L 567,276 L 566,276 L 564,278 L 560,278 L 559,279 L 561,281 L 562,281 L 566,285 L 566,287 L 567,288 L 567,291 L 566,292 L 566,293 L 565,294 L 565,302 L 563,304 L 563,305 L 560,308 L 558,308 L 557,309 L 556,309 L 556,310 L 555,311 L 556,312 L 556,317 L 552,321 L 552,327 L 553,328 L 553,329 L 554,330 L 554,331 L 555,332 L 555,347 L 556,347 L 557,348 L 557,349 L 559,349 L 560,350 L 560,352 L 557,355 L 557,357 L 559,359 L 560,359 L 561,360 L 563,360 L 570,367 L 572,367 L 573,368 L 579,368 L 582,371 L 582,372 L 583,373 L 583,377 L 584,378 L 589,378 L 590,379 L 592,379 L 593,378 L 601,378 L 602,377 L 606,377 L 607,376 L 608,376 L 609,375 L 611,375 L 612,374 L 613,374 L 614,373 L 625,373 L 626,372 L 628,372 L 628,369 L 627,368 L 626,368 L 624,370 L 623,370 L 621,368 L 621,365 L 622,364 L 622,360 L 623,359 L 623,358 L 624,357 L 624,356 L 625,355 L 626,355 L 626,353 L 627,352 L 627,351 L 628,350 L 629,350 L 629,349 L 630,348 L 630,347 L 631,346 L 632,346 L 632,345 L 633,344 L 632,344 L 631,343 L 631,342 L 629,340 L 629,334 L 628,333 L 628,332 L 627,331 L 628,330 L 625,327 L 625,325 L 626,324 L 629,324 L 630,325 L 632,325 L 634,323 L 635,323 L 636,322 L 637,322 L 638,321 L 638,320 L 640,318 L 640,317 L 639,316 L 639,314 L 640,313 L 641,313 L 642,312 L 641,311 L 641,308 L 639,306 L 639,305 L 637,303 L 637,302 L 638,301 L 637,301 L 636,300 L 636,299 L 635,298 L 635,297 L 634,296 L 634,295 L 627,288 L 627,287 L 626,286 L 626,285 L 624,283 L 624,282 L 623,281 L 623,280 L 622,279 L 623,278 L 622,278 L 614,270 L 612,270 L 612,271 L 611,272 L 609,272 L 608,273 L 604,273 L 603,274 L 593,274 L 592,275 L 590,275 L 589,276 L 588,276 L 586,274 L 578,274 L 577,273 L 577,272 L 576,271 L 575,271 L 574,270 L 574,269 Z" fill="none" stroke="black" stroke-width="1"/>
</svg>