<svg xmlns="http://www.w3.org/2000/svg" width="757" height="474">
  <path d="M 557,360 L 556,361 L 553,361 L 552,362 L 551,362 L 550,361 L 546,361 L 545,362 L 544,362 L 543,363 L 541,363 L 540,364 L 539,364 L 538,365 L 538,373 L 536,375 L 530,375 L 529,376 L 519,376 L 518,377 L 516,377 L 515,378 L 515,379 L 514,380 L 514,383 L 513,384 L 514,385 L 514,386 L 516,388 L 516,389 L 517,390 L 516,391 L 518,393 L 518,394 L 519,394 L 521,396 L 522,396 L 524,398 L 525,398 L 526,399 L 531,399 L 532,398 L 534,398 L 535,399 L 536,399 L 537,400 L 538,400 L 539,401 L 539,400 L 540,399 L 541,400 L 541,399 L 542,398 L 543,398 L 545,400 L 546,399 L 548,399 L 549,398 L 548,397 L 550,395 L 551,395 L 552,396 L 553,396 L 555,398 L 558,398 L 561,401 L 562,401 L 564,403 L 567,403 L 568,404 L 569,404 L 570,405 L 569,406 L 572,406 L 574,408 L 579,408 L 580,407 L 581,407 L 582,408 L 587,408 L 587,406 L 588,405 L 591,405 L 591,403 L 592,402 L 592,396 L 593,395 L 593,393 L 594,392 L 594,391 L 595,390 L 595,386 L 593,386 L 592,385 L 592,382 L 591,381 L 590,381 L 589,380 L 588,380 L 587,379 L 584,379 L 582,377 L 582,373 L 581,372 L 581,371 L 579,369 L 573,369 L 572,368 L 570,368 L 563,361 L 561,361 L 560,360 Z" fill="none" stroke="black" stroke-width="1"/>
</svg>