<svg xmlns="http://www.w3.org/2000/svg" width="757" height="474">
  <path d="M 413,225 L 412,226 L 406,226 L 403,229 L 403,230 L 402,231 L 402,232 L 401,233 L 400,233 L 396,237 L 394,237 L 383,248 L 383,249 L 382,250 L 382,251 L 379,254 L 379,255 L 378,256 L 378,258 L 377,259 L 377,263 L 376,264 L 376,268 L 375,269 L 375,273 L 374,274 L 374,276 L 373,277 L 373,278 L 372,279 L 371,279 L 370,280 L 370,281 L 366,285 L 365,285 L 363,287 L 363,288 L 361,290 L 360,290 L 360,291 L 359,292 L 359,293 L 357,295 L 356,295 L 354,297 L 352,297 L 352,299 L 353,300 L 353,307 L 352,308 L 352,314 L 353,314 L 354,315 L 354,316 L 357,319 L 357,320 L 359,322 L 359,323 L 360,323 L 364,327 L 365,327 L 366,326 L 368,326 L 369,327 L 370,327 L 371,328 L 371,329 L 372,330 L 372,332 L 373,333 L 373,334 L 379,334 L 380,333 L 381,333 L 382,332 L 383,332 L 384,331 L 386,331 L 388,329 L 395,329 L 396,328 L 397,328 L 398,329 L 399,329 L 400,330 L 401,330 L 402,331 L 404,331 L 409,336 L 410,335 L 416,335 L 417,336 L 418,335 L 419,336 L 420,336 L 421,337 L 424,337 L 425,336 L 426,337 L 427,337 L 429,339 L 429,340 L 430,341 L 440,341 L 441,340 L 449,340 L 450,339 L 452,339 L 453,338 L 455,338 L 455,337 L 454,336 L 454,335 L 455,334 L 455,333 L 456,332 L 456,330 L 457,329 L 456,329 L 453,326 L 453,325 L 452,324 L 452,316 L 451,315 L 451,304 L 452,303 L 452,302 L 453,301 L 454,301 L 454,294 L 456,292 L 456,291 L 458,289 L 458,288 L 461,285 L 461,284 L 462,283 L 462,281 L 464,279 L 465,279 L 468,276 L 468,275 L 471,272 L 471,271 L 472,270 L 472,269 L 474,267 L 474,266 L 475,265 L 475,263 L 476,262 L 476,261 L 475,260 L 474,260 L 473,259 L 471,259 L 470,258 L 470,256 L 469,255 L 469,254 L 468,253 L 468,251 L 464,247 L 454,247 L 453,248 L 449,248 L 448,247 L 445,247 L 443,245 L 442,245 L 441,244 L 440,244 L 439,243 L 438,244 L 437,243 L 436,243 L 434,241 L 434,240 L 433,239 L 432,239 L 431,238 L 430,239 L 427,239 L 426,238 L 425,238 L 423,236 L 420,236 L 415,231 L 413,231 L 412,230 L 412,229 L 413,228 L 413,226 L 414,225 Z" fill="none" stroke="black" stroke-width="1"/>
</svg>