<svg xmlns="http://www.w3.org/2000/svg" width="749" height="389">
  <path d="M 133,0 L 132,1 L 125,1 L 123,3 L 121,3 L 120,4 L 119,4 L 118,5 L 117,5 L 116,6 L 112,6 L 111,7 L 112,7 L 113,8 L 114,8 L 115,9 L 116,8 L 117,9 L 118,9 L 119,10 L 122,10 L 123,9 L 124,10 L 124,11 L 125,12 L 125,14 L 124,15 L 124,16 L 125,17 L 125,20 L 126,21 L 126,22 L 125,23 L 125,25 L 122,28 L 122,29 L 121,30 L 120,30 L 120,31 L 116,35 L 117,36 L 122,36 L 123,37 L 123,38 L 124,39 L 124,40 L 123,41 L 123,44 L 122,45 L 122,48 L 121,49 L 124,52 L 124,53 L 125,54 L 125,55 L 126,56 L 125,57 L 125,59 L 123,61 L 123,62 L 121,64 L 120,64 L 114,70 L 113,70 L 113,71 L 112,72 L 112,73 L 111,74 L 111,77 L 110,78 L 113,78 L 114,77 L 118,77 L 120,75 L 121,75 L 122,74 L 123,74 L 124,73 L 125,73 L 128,70 L 129,70 L 131,68 L 143,68 L 144,67 L 150,67 L 151,68 L 160,68 L 161,69 L 162,69 L 164,71 L 165,71 L 166,72 L 167,72 L 169,74 L 169,76 L 170,76 L 175,81 L 176,81 L 177,82 L 178,82 L 179,83 L 180,83 L 181,84 L 182,84 L 183,85 L 184,85 L 185,86 L 186,86 L 187,87 L 187,94 L 188,95 L 188,97 L 189,98 L 190,98 L 191,99 L 192,99 L 196,103 L 200,103 L 201,104 L 206,104 L 207,105 L 211,105 L 212,106 L 220,106 L 221,107 L 222,107 L 224,105 L 225,105 L 226,106 L 227,105 L 228,105 L 228,104 L 229,103 L 231,103 L 234,100 L 235,100 L 236,99 L 237,99 L 238,98 L 239,98 L 240,97 L 240,96 L 242,94 L 240,92 L 237,92 L 235,90 L 235,89 L 238,86 L 239,86 L 240,85 L 241,85 L 242,84 L 247,84 L 248,83 L 250,83 L 251,84 L 252,84 L 253,83 L 253,78 L 254,77 L 255,77 L 253,75 L 254,74 L 255,74 L 256,73 L 267,73 L 268,72 L 269,72 L 270,71 L 273,71 L 272,71 L 271,70 L 269,70 L 268,71 L 263,71 L 262,70 L 261,70 L 259,68 L 258,68 L 256,66 L 255,66 L 254,65 L 254,64 L 252,62 L 253,61 L 252,60 L 252,59 L 250,57 L 250,56 L 249,55 L 250,54 L 250,51 L 251,50 L 251,46 L 248,43 L 248,41 L 247,40 L 246,40 L 245,39 L 244,39 L 243,38 L 241,38 L 240,37 L 240,30 L 237,27 L 235,27 L 234,26 L 233,26 L 230,23 L 230,22 L 227,19 L 220,19 L 219,18 L 215,18 L 214,17 L 209,17 L 208,16 L 207,16 L 206,15 L 206,14 L 200,14 L 198,12 L 197,12 L 196,11 L 195,11 L 194,10 L 190,10 L 189,11 L 187,11 L 186,12 L 178,12 L 177,13 L 167,13 L 165,11 L 165,10 L 164,9 L 163,9 L 162,8 L 161,9 L 158,9 L 157,8 L 156,8 L 155,7 L 154,8 L 153,7 L 147,7 L 146,8 L 141,3 L 139,3 L 138,2 L 137,2 L 136,1 L 135,1 L 134,0 Z" fill="none" stroke="black" stroke-width="1"/>
</svg>