<svg xmlns="http://www.w3.org/2000/svg" width="749" height="389">
  <path d="M 144,68 L 143,69 L 131,69 L 129,71 L 128,71 L 125,74 L 124,74 L 123,75 L 122,75 L 121,76 L 120,76 L 118,78 L 117,78 L 115,80 L 114,80 L 111,83 L 109,83 L 108,84 L 107,84 L 103,88 L 102,88 L 102,89 L 101,90 L 101,91 L 100,92 L 100,93 L 97,96 L 96,96 L 94,98 L 95,98 L 96,99 L 96,104 L 95,105 L 92,105 L 91,106 L 87,106 L 86,107 L 81,107 L 80,108 L 79,108 L 78,109 L 77,109 L 75,111 L 74,111 L 73,112 L 72,112 L 72,113 L 71,114 L 71,115 L 70,116 L 70,120 L 71,121 L 71,123 L 76,128 L 77,127 L 80,127 L 85,132 L 89,132 L 91,134 L 91,135 L 92,136 L 92,138 L 93,138 L 94,139 L 98,139 L 99,140 L 101,140 L 102,141 L 103,141 L 104,142 L 104,145 L 106,147 L 106,148 L 107,149 L 107,151 L 114,151 L 115,152 L 118,152 L 119,153 L 120,153 L 121,154 L 122,154 L 123,153 L 123,152 L 124,151 L 129,151 L 130,152 L 131,152 L 134,155 L 134,156 L 135,157 L 135,158 L 137,160 L 137,161 L 140,161 L 141,162 L 142,162 L 143,161 L 144,161 L 145,160 L 149,160 L 150,159 L 151,159 L 152,158 L 152,156 L 154,154 L 163,154 L 164,153 L 165,153 L 166,154 L 167,154 L 168,153 L 169,153 L 169,152 L 170,151 L 171,151 L 172,152 L 172,151 L 173,150 L 176,150 L 176,148 L 175,147 L 175,146 L 177,144 L 181,144 L 181,143 L 180,143 L 179,142 L 178,142 L 177,141 L 177,140 L 175,138 L 175,137 L 178,134 L 179,134 L 177,132 L 176,132 L 174,130 L 174,128 L 173,127 L 173,126 L 171,126 L 169,124 L 168,124 L 166,122 L 166,121 L 165,120 L 165,119 L 164,118 L 164,116 L 165,115 L 165,114 L 164,113 L 163,113 L 162,112 L 162,111 L 163,110 L 162,109 L 162,106 L 163,105 L 164,105 L 165,106 L 169,106 L 170,107 L 170,108 L 171,108 L 172,109 L 174,109 L 175,108 L 175,105 L 176,104 L 176,103 L 177,102 L 177,100 L 178,99 L 179,99 L 179,98 L 178,97 L 178,96 L 179,95 L 179,93 L 178,92 L 179,91 L 180,91 L 181,90 L 183,90 L 185,88 L 186,88 L 186,87 L 185,87 L 184,86 L 183,86 L 182,85 L 181,85 L 180,84 L 179,84 L 178,83 L 177,83 L 176,82 L 175,82 L 170,77 L 169,77 L 168,76 L 168,74 L 167,73 L 166,73 L 165,72 L 164,72 L 162,70 L 161,70 L 160,69 L 151,69 L 150,68 Z" fill="none" stroke="black" stroke-width="1"/>
</svg>