<svg xmlns="http://www.w3.org/2000/svg" width="757" height="474">
  <path d="M 398,141 L 397,142 L 391,142 L 391,143 L 390,144 L 389,144 L 388,145 L 387,145 L 386,146 L 384,146 L 383,147 L 382,147 L 381,148 L 380,148 L 378,150 L 378,152 L 377,153 L 377,154 L 376,155 L 375,155 L 375,156 L 373,158 L 373,159 L 371,161 L 371,162 L 370,163 L 370,164 L 367,167 L 367,169 L 366,170 L 366,174 L 365,175 L 364,175 L 362,177 L 361,177 L 361,178 L 359,180 L 359,181 L 358,182 L 358,183 L 355,186 L 355,191 L 354,192 L 354,197 L 351,200 L 350,200 L 349,201 L 348,201 L 347,202 L 347,204 L 346,205 L 346,206 L 345,207 L 345,208 L 343,210 L 343,213 L 344,212 L 350,212 L 351,211 L 358,211 L 359,210 L 365,210 L 366,209 L 367,210 L 368,210 L 369,211 L 370,211 L 375,216 L 375,217 L 379,217 L 380,216 L 381,216 L 381,215 L 382,214 L 383,214 L 384,213 L 390,213 L 391,214 L 392,214 L 393,215 L 395,215 L 396,214 L 397,214 L 398,215 L 398,216 L 399,217 L 399,221 L 398,222 L 398,227 L 397,228 L 397,233 L 396,234 L 396,236 L 400,232 L 401,232 L 401,231 L 402,230 L 402,229 L 406,225 L 412,225 L 413,224 L 414,224 L 415,225 L 414,226 L 414,228 L 413,229 L 413,230 L 415,230 L 420,235 L 423,235 L 425,237 L 426,237 L 427,238 L 430,238 L 431,237 L 432,238 L 433,238 L 435,240 L 435,241 L 436,242 L 437,242 L 438,243 L 439,242 L 440,243 L 441,243 L 442,244 L 443,244 L 445,246 L 448,246 L 449,247 L 453,247 L 454,246 L 462,246 L 462,245 L 461,245 L 459,243 L 459,237 L 461,235 L 461,233 L 460,232 L 459,232 L 456,229 L 456,228 L 455,227 L 455,225 L 456,224 L 456,221 L 457,220 L 457,218 L 460,215 L 461,215 L 463,213 L 464,213 L 464,212 L 465,211 L 466,211 L 466,210 L 468,208 L 469,208 L 469,207 L 470,206 L 470,204 L 471,203 L 471,202 L 472,201 L 472,200 L 473,199 L 473,198 L 477,194 L 477,193 L 478,192 L 480,192 L 481,191 L 482,191 L 482,190 L 484,188 L 485,188 L 485,187 L 486,186 L 487,186 L 487,185 L 486,185 L 485,184 L 484,184 L 482,182 L 482,181 L 481,180 L 481,178 L 480,178 L 476,174 L 473,174 L 470,171 L 470,170 L 468,168 L 468,166 L 467,165 L 467,164 L 464,164 L 463,163 L 462,163 L 461,162 L 456,162 L 455,161 L 454,161 L 453,160 L 452,160 L 451,159 L 450,160 L 449,159 L 448,159 L 447,158 L 446,158 L 444,156 L 441,156 L 440,155 L 436,155 L 435,154 L 432,154 L 431,153 L 427,153 L 425,151 L 424,152 L 423,151 L 422,151 L 421,150 L 420,150 L 419,149 L 418,149 L 417,148 L 414,148 L 413,147 L 412,147 L 410,145 L 409,145 L 408,144 L 402,144 L 401,143 L 400,143 Z" fill="none" stroke="black" stroke-width="1"/>
</svg>