<svg xmlns="http://www.w3.org/2000/svg" width="757" height="474">
  <path d="M 366,210 L 365,211 L 359,211 L 358,212 L 351,212 L 350,213 L 344,213 L 343,214 L 336,214 L 336,215 L 337,216 L 337,217 L 339,219 L 339,221 L 338,222 L 338,224 L 337,225 L 337,226 L 335,228 L 334,228 L 333,229 L 332,229 L 332,230 L 331,231 L 327,231 L 326,232 L 325,232 L 325,233 L 324,234 L 323,234 L 322,235 L 318,235 L 318,236 L 317,237 L 316,237 L 315,238 L 314,238 L 313,239 L 312,239 L 311,240 L 309,240 L 308,241 L 307,241 L 306,242 L 305,242 L 305,243 L 304,244 L 303,244 L 301,246 L 300,246 L 300,251 L 299,252 L 299,257 L 298,258 L 298,262 L 299,263 L 300,263 L 301,264 L 301,266 L 302,267 L 302,270 L 303,271 L 303,272 L 304,273 L 303,274 L 303,279 L 305,281 L 305,282 L 306,283 L 307,283 L 308,284 L 308,285 L 311,288 L 311,289 L 312,290 L 313,290 L 314,291 L 314,292 L 316,294 L 318,294 L 321,291 L 322,291 L 323,290 L 324,290 L 325,289 L 326,289 L 326,288 L 327,287 L 328,287 L 329,288 L 330,288 L 332,290 L 332,291 L 334,291 L 335,292 L 339,292 L 340,293 L 341,292 L 342,293 L 342,294 L 345,297 L 347,297 L 348,296 L 354,296 L 356,294 L 357,294 L 358,293 L 358,292 L 359,291 L 359,290 L 360,289 L 361,289 L 362,288 L 362,287 L 365,284 L 366,284 L 369,281 L 369,280 L 371,278 L 372,278 L 372,277 L 373,276 L 373,274 L 374,273 L 374,269 L 375,268 L 375,264 L 376,263 L 376,259 L 377,258 L 377,256 L 378,255 L 378,254 L 381,251 L 381,250 L 382,249 L 382,248 L 394,236 L 395,236 L 395,234 L 396,233 L 396,228 L 397,227 L 397,222 L 398,221 L 398,217 L 397,216 L 397,215 L 396,215 L 395,216 L 393,216 L 392,215 L 391,215 L 390,214 L 384,214 L 383,215 L 382,215 L 382,216 L 381,217 L 380,217 L 379,218 L 375,218 L 374,217 L 374,216 L 370,212 L 369,212 L 368,211 L 367,211 Z" fill="none" stroke="black" stroke-width="1"/>
</svg>