<svg xmlns="http://www.w3.org/2000/svg" width="757" height="474">
  <path d="M 208,115 L 207,116 L 201,116 L 200,117 L 196,117 L 195,118 L 191,118 L 190,119 L 187,119 L 186,120 L 183,120 L 182,121 L 180,121 L 179,122 L 178,122 L 178,123 L 179,124 L 179,125 L 180,126 L 180,133 L 179,134 L 179,136 L 176,139 L 176,140 L 175,141 L 175,142 L 174,143 L 174,144 L 175,145 L 175,163 L 174,164 L 174,167 L 171,170 L 168,170 L 167,171 L 164,171 L 163,172 L 162,172 L 161,173 L 160,173 L 159,174 L 158,174 L 157,175 L 155,175 L 152,178 L 150,178 L 149,179 L 149,189 L 150,190 L 150,204 L 151,205 L 151,217 L 152,218 L 152,224 L 153,225 L 153,227 L 154,228 L 154,229 L 160,235 L 161,235 L 162,236 L 163,235 L 179,235 L 180,234 L 186,234 L 187,233 L 202,233 L 205,230 L 206,230 L 208,228 L 208,227 L 209,226 L 210,226 L 213,223 L 214,223 L 216,221 L 218,221 L 219,220 L 222,220 L 223,219 L 225,219 L 226,218 L 227,218 L 230,215 L 230,214 L 236,208 L 236,206 L 238,204 L 238,202 L 244,196 L 245,196 L 246,195 L 246,193 L 247,192 L 247,191 L 248,190 L 249,190 L 249,189 L 250,188 L 250,187 L 252,185 L 255,185 L 255,184 L 256,183 L 256,182 L 257,181 L 257,180 L 258,179 L 258,177 L 260,175 L 260,174 L 261,173 L 261,172 L 262,171 L 262,170 L 263,169 L 263,168 L 264,167 L 264,166 L 265,165 L 265,164 L 266,163 L 266,162 L 267,161 L 267,160 L 268,159 L 268,158 L 269,157 L 269,156 L 270,155 L 270,154 L 271,153 L 271,151 L 272,150 L 272,149 L 273,148 L 273,146 L 274,145 L 274,143 L 275,142 L 275,140 L 276,139 L 276,136 L 277,135 L 277,131 L 278,130 L 278,126 L 279,125 L 269,125 L 268,124 L 262,124 L 261,123 L 257,123 L 256,122 L 252,122 L 251,121 L 247,121 L 246,120 L 243,120 L 242,119 L 239,119 L 238,118 L 234,118 L 233,117 L 229,117 L 228,116 L 221,116 L 220,115 Z" fill="none" stroke="black" stroke-width="1"/>
</svg>