<svg xmlns="http://www.w3.org/2000/svg" width="757" height="474">
  <path d="M 351,110 L 350,111 L 348,111 L 347,112 L 344,112 L 343,113 L 340,113 L 339,114 L 336,114 L 335,115 L 332,115 L 331,116 L 328,116 L 327,117 L 324,117 L 323,118 L 320,118 L 319,119 L 315,119 L 314,120 L 311,120 L 310,121 L 306,121 L 305,122 L 301,122 L 300,123 L 295,123 L 294,124 L 287,124 L 286,125 L 280,125 L 279,126 L 279,130 L 278,131 L 278,135 L 277,136 L 277,139 L 276,140 L 276,142 L 275,143 L 275,145 L 274,146 L 274,148 L 273,149 L 273,150 L 272,151 L 272,153 L 271,154 L 271,155 L 270,156 L 270,157 L 269,158 L 269,159 L 268,160 L 268,161 L 267,162 L 267,163 L 266,164 L 266,165 L 265,166 L 265,167 L 264,168 L 264,169 L 263,170 L 263,171 L 262,172 L 262,173 L 261,174 L 261,175 L 259,177 L 259,179 L 258,180 L 258,181 L 257,182 L 257,183 L 256,184 L 256,185 L 262,185 L 263,186 L 264,186 L 265,187 L 267,187 L 273,193 L 283,193 L 284,194 L 288,194 L 289,195 L 291,195 L 292,196 L 293,196 L 295,198 L 296,198 L 299,201 L 300,201 L 307,208 L 317,208 L 318,209 L 319,209 L 320,210 L 324,210 L 325,211 L 326,211 L 327,212 L 329,212 L 330,213 L 342,213 L 342,210 L 344,208 L 344,207 L 345,206 L 345,205 L 346,204 L 346,202 L 348,200 L 349,200 L 350,199 L 351,199 L 353,197 L 353,192 L 354,191 L 354,186 L 357,183 L 357,182 L 358,181 L 358,180 L 360,178 L 360,177 L 361,176 L 362,176 L 364,174 L 365,174 L 365,170 L 366,169 L 366,167 L 369,164 L 369,163 L 370,162 L 370,161 L 372,159 L 372,158 L 374,156 L 374,155 L 375,154 L 376,154 L 376,153 L 377,152 L 377,150 L 380,147 L 381,147 L 382,146 L 383,146 L 384,145 L 385,145 L 385,144 L 383,142 L 382,142 L 381,141 L 380,141 L 379,140 L 378,140 L 374,136 L 373,136 L 372,135 L 373,134 L 372,134 L 365,127 L 363,127 L 361,125 L 361,124 L 360,123 L 360,122 L 359,121 L 359,120 L 354,115 L 354,114 L 353,113 L 353,112 Z" fill="none" stroke="black" stroke-width="1"/>
</svg>