<svg xmlns="http://www.w3.org/2000/svg" width="757" height="474">
  <path d="M 150,289 L 150,290 L 149,291 L 149,293 L 148,294 L 148,296 L 147,297 L 146,297 L 143,300 L 144,301 L 144,302 L 143,303 L 142,303 L 142,305 L 149,305 L 151,307 L 153,307 L 154,308 L 154,310 L 156,312 L 156,316 L 159,319 L 159,322 L 158,323 L 158,324 L 160,326 L 160,328 L 159,329 L 159,331 L 160,331 L 162,333 L 162,334 L 161,335 L 162,336 L 163,336 L 166,339 L 167,339 L 169,341 L 173,341 L 175,343 L 179,343 L 180,344 L 180,345 L 181,345 L 182,346 L 186,346 L 187,347 L 187,348 L 188,349 L 189,349 L 190,350 L 190,352 L 189,353 L 186,353 L 186,363 L 187,364 L 187,365 L 189,365 L 190,366 L 190,367 L 194,367 L 195,368 L 195,369 L 201,369 L 202,370 L 203,370 L 203,369 L 204,368 L 204,365 L 205,364 L 205,363 L 207,361 L 207,360 L 211,356 L 212,356 L 217,351 L 218,351 L 219,350 L 219,349 L 220,348 L 220,346 L 221,345 L 221,344 L 222,343 L 222,341 L 224,339 L 224,332 L 225,331 L 225,330 L 224,330 L 223,329 L 218,329 L 217,328 L 217,327 L 216,327 L 209,320 L 209,319 L 205,315 L 205,314 L 204,314 L 202,312 L 202,311 L 199,308 L 199,304 L 197,306 L 196,306 L 194,304 L 194,301 L 193,300 L 192,300 L 190,298 L 189,298 L 188,297 L 182,297 L 181,296 L 175,296 L 174,295 L 172,295 L 171,294 L 167,294 L 166,293 L 163,293 L 161,291 L 159,291 L 158,290 L 157,290 L 156,289 Z" fill="none" stroke="black" stroke-width="1"/>
</svg>