<svg xmlns="http://www.w3.org/2000/svg" width="757" height="474">
  <path d="M 152,0 L 152,9 L 151,10 L 151,13 L 150,14 L 150,21 L 149,22 L 147,22 L 146,23 L 145,23 L 144,24 L 142,24 L 141,25 L 138,25 L 137,26 L 136,26 L 135,27 L 134,27 L 131,30 L 131,32 L 129,34 L 129,39 L 127,41 L 127,43 L 125,45 L 125,50 L 122,53 L 122,54 L 121,55 L 121,57 L 113,65 L 112,65 L 111,66 L 99,66 L 98,67 L 96,67 L 94,69 L 93,69 L 92,70 L 86,70 L 85,69 L 80,69 L 78,71 L 76,71 L 75,72 L 74,72 L 73,73 L 71,73 L 71,74 L 73,74 L 74,75 L 76,75 L 84,83 L 84,84 L 86,86 L 86,87 L 87,88 L 87,89 L 88,90 L 88,91 L 91,91 L 92,92 L 95,92 L 97,94 L 105,94 L 106,93 L 108,93 L 108,92 L 109,91 L 111,91 L 111,89 L 113,87 L 120,87 L 121,88 L 122,87 L 123,87 L 126,90 L 126,92 L 127,92 L 130,95 L 131,95 L 132,94 L 133,94 L 133,90 L 131,90 L 130,89 L 129,89 L 128,88 L 124,88 L 123,87 L 124,86 L 132,86 L 135,89 L 137,89 L 138,90 L 138,91 L 137,92 L 138,92 L 139,93 L 142,93 L 143,94 L 144,94 L 145,93 L 148,93 L 148,92 L 149,91 L 150,91 L 151,90 L 157,90 L 157,89 L 156,89 L 155,88 L 155,87 L 154,86 L 154,83 L 155,82 L 156,83 L 159,83 L 160,82 L 161,82 L 162,81 L 162,80 L 163,79 L 163,78 L 165,76 L 166,77 L 166,76 L 164,74 L 164,73 L 165,72 L 167,72 L 168,73 L 169,72 L 170,72 L 170,71 L 169,70 L 169,69 L 170,68 L 171,68 L 171,66 L 173,64 L 174,65 L 175,64 L 177,64 L 179,62 L 179,61 L 182,58 L 182,56 L 181,55 L 181,54 L 180,53 L 180,49 L 184,45 L 185,45 L 185,44 L 188,41 L 188,40 L 187,40 L 186,39 L 185,39 L 183,37 L 182,37 L 180,35 L 179,35 L 178,34 L 177,34 L 176,33 L 175,33 L 172,30 L 172,29 L 171,28 L 171,26 L 170,25 L 170,22 L 169,22 L 167,20 L 167,19 L 165,17 L 165,15 L 164,14 L 164,13 L 162,11 L 162,10 L 159,7 L 159,5 L 158,4 L 158,3 L 156,1 L 155,1 L 154,0 Z" fill="none" stroke="black" stroke-width="1"/>
</svg>