<svg xmlns="http://www.w3.org/2000/svg" width="757" height="474">
  <path d="M 113,88 L 112,89 L 112,91 L 111,92 L 109,92 L 109,93 L 108,94 L 106,94 L 105,95 L 97,95 L 95,93 L 92,93 L 91,92 L 88,92 L 87,91 L 87,90 L 79,90 L 78,91 L 77,91 L 76,92 L 75,92 L 72,95 L 71,95 L 66,100 L 66,108 L 65,109 L 65,110 L 64,111 L 64,113 L 63,114 L 63,115 L 62,116 L 62,118 L 61,119 L 61,120 L 60,121 L 60,129 L 62,131 L 62,133 L 63,134 L 63,135 L 64,136 L 64,137 L 65,138 L 65,141 L 66,142 L 66,143 L 67,144 L 67,145 L 68,146 L 68,147 L 69,148 L 69,150 L 70,151 L 70,152 L 68,154 L 68,155 L 66,157 L 66,158 L 65,159 L 65,160 L 64,161 L 64,163 L 63,164 L 63,166 L 61,168 L 61,170 L 60,171 L 60,174 L 56,178 L 56,183 L 58,185 L 59,185 L 60,186 L 60,187 L 62,189 L 64,189 L 65,190 L 66,190 L 70,194 L 71,194 L 74,197 L 74,198 L 76,198 L 77,199 L 78,199 L 80,201 L 81,201 L 81,200 L 82,199 L 83,199 L 85,197 L 85,196 L 87,194 L 88,194 L 91,191 L 92,191 L 94,189 L 94,188 L 96,186 L 97,186 L 98,185 L 99,185 L 99,184 L 100,183 L 101,183 L 102,182 L 103,182 L 105,180 L 110,180 L 112,178 L 113,178 L 114,177 L 115,177 L 115,176 L 116,175 L 120,175 L 120,174 L 121,173 L 122,173 L 123,172 L 125,172 L 126,173 L 127,172 L 128,173 L 129,173 L 130,174 L 131,174 L 133,176 L 134,176 L 135,175 L 141,175 L 142,174 L 143,175 L 144,175 L 145,176 L 146,176 L 147,177 L 147,178 L 149,178 L 150,177 L 152,177 L 155,174 L 157,174 L 158,173 L 159,173 L 160,172 L 161,172 L 162,171 L 163,171 L 164,170 L 167,170 L 168,169 L 171,169 L 173,167 L 173,164 L 174,163 L 174,145 L 173,144 L 173,143 L 174,142 L 174,141 L 175,140 L 175,139 L 178,136 L 178,134 L 179,133 L 179,126 L 178,125 L 178,124 L 177,123 L 177,122 L 176,122 L 174,120 L 174,119 L 173,118 L 173,112 L 172,111 L 172,106 L 171,105 L 171,103 L 170,102 L 170,101 L 169,100 L 170,99 L 169,99 L 167,101 L 165,101 L 164,102 L 163,102 L 162,101 L 161,102 L 160,102 L 159,101 L 159,100 L 158,100 L 157,99 L 154,99 L 153,98 L 146,98 L 145,99 L 137,99 L 136,98 L 132,98 L 131,97 L 130,97 L 129,96 L 128,96 L 127,95 L 123,95 L 122,94 L 121,94 L 120,93 L 119,93 L 117,91 L 117,90 L 118,89 L 118,88 Z" fill="none" stroke="black" stroke-width="1"/>
</svg>