<svg xmlns="http://www.w3.org/2000/svg" width="757" height="474">
  <path d="M 150,238 L 147,241 L 144,241 L 144,243 L 143,244 L 141,244 L 139,242 L 138,242 L 137,243 L 136,243 L 135,244 L 133,244 L 132,245 L 130,245 L 129,246 L 127,246 L 126,247 L 125,247 L 124,246 L 124,245 L 120,245 L 119,244 L 115,244 L 113,242 L 111,242 L 109,240 L 104,240 L 103,239 L 99,239 L 98,240 L 96,240 L 95,241 L 94,241 L 92,243 L 91,243 L 93,245 L 94,245 L 95,246 L 95,247 L 96,248 L 96,254 L 95,255 L 95,258 L 94,259 L 94,261 L 93,262 L 93,268 L 92,269 L 92,274 L 95,277 L 96,277 L 98,279 L 98,281 L 99,282 L 100,282 L 101,283 L 99,285 L 99,286 L 100,287 L 101,287 L 102,288 L 100,290 L 100,292 L 99,293 L 99,295 L 98,296 L 98,297 L 99,298 L 100,298 L 101,299 L 101,300 L 102,300 L 103,301 L 103,302 L 105,302 L 107,304 L 107,305 L 110,305 L 111,306 L 111,307 L 113,309 L 119,309 L 120,308 L 122,308 L 123,309 L 129,309 L 130,308 L 133,308 L 135,306 L 135,303 L 136,302 L 137,302 L 138,301 L 140,303 L 140,304 L 141,304 L 141,303 L 142,302 L 143,302 L 143,301 L 142,300 L 146,296 L 147,296 L 147,294 L 148,293 L 148,291 L 149,290 L 149,289 L 150,288 L 150,287 L 151,286 L 151,284 L 150,283 L 150,281 L 148,279 L 148,278 L 149,277 L 149,276 L 150,275 L 150,274 L 149,273 L 149,271 L 148,270 L 148,268 L 149,267 L 149,259 L 150,258 L 150,255 L 151,254 L 151,250 L 152,249 L 152,247 L 153,246 L 153,244 L 158,239 L 156,239 L 155,238 Z" fill="none" stroke="black" stroke-width="1"/>
</svg>