<svg xmlns="http://www.w3.org/2000/svg" width="757" height="474">
  <path d="M 90,274 L 90,275 L 86,279 L 85,279 L 85,280 L 84,281 L 84,282 L 83,283 L 83,284 L 78,289 L 77,289 L 73,293 L 73,294 L 72,295 L 71,295 L 70,296 L 69,296 L 69,297 L 68,298 L 67,298 L 66,299 L 64,299 L 63,300 L 58,300 L 57,301 L 53,301 L 48,306 L 48,307 L 42,313 L 42,314 L 41,315 L 41,316 L 42,317 L 42,318 L 43,319 L 43,320 L 44,320 L 47,323 L 47,324 L 48,325 L 51,325 L 55,329 L 55,330 L 56,330 L 59,333 L 59,334 L 61,336 L 62,336 L 63,337 L 63,338 L 64,339 L 64,342 L 65,343 L 65,344 L 67,344 L 70,347 L 70,348 L 74,352 L 75,352 L 76,353 L 77,353 L 78,354 L 79,354 L 81,356 L 81,357 L 82,358 L 82,363 L 83,364 L 83,365 L 84,366 L 84,368 L 83,369 L 83,372 L 87,372 L 88,371 L 89,371 L 90,370 L 96,370 L 99,367 L 100,367 L 101,368 L 104,368 L 104,367 L 105,366 L 104,365 L 104,364 L 105,363 L 110,363 L 111,362 L 111,361 L 112,360 L 112,359 L 111,358 L 111,351 L 112,350 L 112,348 L 114,346 L 115,346 L 117,344 L 118,344 L 119,343 L 120,343 L 121,342 L 121,341 L 123,339 L 123,338 L 125,336 L 126,336 L 126,335 L 124,333 L 126,331 L 125,330 L 125,327 L 126,326 L 126,325 L 127,324 L 126,323 L 126,322 L 127,321 L 127,320 L 130,317 L 130,314 L 131,313 L 132,313 L 132,312 L 133,311 L 132,310 L 132,309 L 130,309 L 129,310 L 123,310 L 122,309 L 120,309 L 119,310 L 113,310 L 110,307 L 110,306 L 107,306 L 106,305 L 106,304 L 105,303 L 103,303 L 102,302 L 102,301 L 101,301 L 100,300 L 100,299 L 99,299 L 97,297 L 97,296 L 98,295 L 98,293 L 99,292 L 99,290 L 101,288 L 100,288 L 98,286 L 98,285 L 100,283 L 99,283 L 97,281 L 97,279 L 96,278 L 95,278 L 91,274 Z" fill="none" stroke="black" stroke-width="1"/>
</svg>