<svg xmlns="http://www.w3.org/2000/svg" width="757" height="474">
  <path d="M 41,313 L 40,314 L 39,314 L 38,315 L 38,316 L 34,320 L 33,320 L 33,321 L 29,325 L 29,326 L 28,327 L 27,327 L 26,328 L 25,328 L 24,329 L 24,330 L 23,331 L 23,332 L 22,333 L 22,335 L 21,336 L 21,337 L 20,338 L 20,339 L 14,345 L 14,347 L 15,348 L 15,350 L 16,351 L 16,354 L 17,355 L 17,357 L 18,358 L 18,359 L 19,360 L 19,361 L 20,361 L 25,366 L 25,373 L 24,374 L 25,375 L 25,376 L 28,379 L 28,380 L 31,380 L 32,381 L 37,381 L 38,382 L 39,382 L 40,381 L 51,381 L 52,380 L 54,380 L 55,381 L 58,381 L 57,380 L 57,378 L 58,377 L 59,377 L 62,374 L 63,375 L 67,375 L 67,374 L 68,373 L 69,373 L 70,374 L 70,375 L 72,375 L 73,374 L 74,374 L 75,373 L 81,373 L 82,372 L 82,369 L 83,368 L 83,366 L 82,365 L 82,364 L 81,363 L 81,358 L 80,357 L 80,356 L 79,355 L 78,355 L 77,354 L 76,354 L 75,353 L 74,353 L 69,348 L 69,347 L 67,345 L 65,345 L 64,344 L 64,343 L 63,342 L 63,339 L 62,338 L 62,337 L 61,337 L 58,334 L 58,333 L 56,331 L 55,331 L 54,330 L 54,329 L 51,326 L 48,326 L 46,324 L 46,323 L 44,321 L 43,321 L 42,320 L 42,319 L 41,318 L 41,317 L 40,316 L 40,315 L 41,314 Z" fill="none" stroke="black" stroke-width="1"/>
</svg>