<svg xmlns="http://www.w3.org/2000/svg" width="404" height="430">
  <path d="M 262,181 L 262,183 L 259,186 L 258,186 L 257,187 L 254,187 L 253,188 L 250,188 L 249,189 L 248,189 L 247,190 L 246,190 L 245,191 L 244,191 L 243,192 L 242,192 L 240,194 L 239,194 L 238,195 L 235,195 L 234,196 L 228,196 L 227,195 L 225,195 L 224,196 L 223,196 L 223,197 L 224,198 L 224,199 L 225,200 L 225,201 L 227,203 L 227,204 L 229,206 L 229,207 L 231,209 L 231,210 L 232,211 L 232,212 L 233,213 L 233,218 L 232,219 L 232,220 L 231,221 L 230,221 L 228,219 L 227,219 L 226,220 L 224,220 L 224,233 L 223,234 L 223,236 L 222,237 L 222,238 L 223,238 L 224,239 L 225,238 L 229,238 L 230,239 L 231,239 L 232,240 L 234,240 L 235,241 L 236,241 L 239,244 L 240,244 L 242,246 L 243,246 L 245,248 L 247,248 L 248,249 L 253,249 L 255,251 L 256,251 L 256,250 L 258,248 L 258,247 L 260,245 L 260,242 L 259,241 L 259,239 L 261,237 L 261,236 L 262,235 L 262,232 L 263,231 L 263,224 L 264,223 L 264,222 L 268,218 L 269,218 L 270,217 L 270,213 L 268,211 L 268,209 L 267,208 L 267,201 L 268,200 L 268,196 L 267,195 L 266,195 L 265,194 L 265,193 L 264,192 L 264,191 L 263,190 L 263,183 L 262,182 Z" fill="none" stroke="black" stroke-width="1"/>
</svg>