<svg xmlns="http://www.w3.org/2000/svg" width="404" height="430">
  <path d="M 298,194 L 297,195 L 296,195 L 294,197 L 293,197 L 292,198 L 290,198 L 289,199 L 287,199 L 285,197 L 282,197 L 281,198 L 276,198 L 274,200 L 273,200 L 270,203 L 268,203 L 268,208 L 269,209 L 269,211 L 271,213 L 271,217 L 269,219 L 268,219 L 265,222 L 265,223 L 264,224 L 264,231 L 263,232 L 263,235 L 262,236 L 262,237 L 260,239 L 260,241 L 261,242 L 261,245 L 259,247 L 259,248 L 257,250 L 257,251 L 256,252 L 255,252 L 254,251 L 254,255 L 253,256 L 253,257 L 252,258 L 252,259 L 251,260 L 251,268 L 250,269 L 250,270 L 249,271 L 249,272 L 250,273 L 250,274 L 251,275 L 251,276 L 252,277 L 253,277 L 254,278 L 255,278 L 257,280 L 260,280 L 262,282 L 263,282 L 265,284 L 264,285 L 265,285 L 266,286 L 266,288 L 267,289 L 267,290 L 269,292 L 271,292 L 274,295 L 276,295 L 277,296 L 288,296 L 290,294 L 291,294 L 292,293 L 293,293 L 294,292 L 301,292 L 302,291 L 303,291 L 304,290 L 305,290 L 306,289 L 307,289 L 308,288 L 318,288 L 322,292 L 327,287 L 327,286 L 328,285 L 328,284 L 329,283 L 329,281 L 330,280 L 330,279 L 331,278 L 331,277 L 333,275 L 334,275 L 335,274 L 336,274 L 336,273 L 340,269 L 340,266 L 339,265 L 339,264 L 338,263 L 338,262 L 336,260 L 335,260 L 333,258 L 332,258 L 331,257 L 330,257 L 324,251 L 324,249 L 323,248 L 323,233 L 322,232 L 322,228 L 321,227 L 321,226 L 320,225 L 320,224 L 319,223 L 319,222 L 318,222 L 312,216 L 312,215 L 311,214 L 311,213 L 308,210 L 308,208 L 306,206 L 306,202 L 304,202 L 303,201 L 302,201 L 300,199 L 300,196 L 301,195 L 301,194 Z" fill="none" stroke="black" stroke-width="1"/>
</svg>