<svg xmlns="http://www.w3.org/2000/svg" width="404" height="430">
  <path d="M 89,192 L 89,195 L 88,196 L 87,196 L 86,197 L 84,197 L 83,198 L 78,198 L 78,203 L 79,204 L 79,207 L 76,210 L 77,211 L 77,214 L 78,215 L 79,215 L 80,216 L 85,216 L 86,217 L 87,217 L 88,218 L 89,218 L 89,217 L 90,216 L 97,223 L 97,224 L 98,225 L 98,227 L 97,228 L 97,229 L 86,240 L 86,241 L 88,241 L 90,243 L 90,244 L 88,246 L 88,247 L 89,248 L 89,249 L 92,249 L 93,250 L 92,251 L 92,252 L 91,253 L 91,258 L 90,259 L 90,261 L 89,262 L 89,264 L 90,264 L 91,265 L 93,265 L 94,266 L 99,266 L 102,269 L 110,269 L 111,268 L 114,268 L 115,267 L 117,267 L 118,266 L 130,266 L 131,267 L 133,267 L 134,268 L 137,268 L 138,267 L 138,263 L 142,259 L 142,256 L 141,255 L 141,249 L 140,248 L 140,241 L 141,240 L 141,239 L 143,237 L 143,236 L 146,233 L 150,233 L 150,232 L 151,231 L 160,231 L 161,230 L 167,230 L 168,229 L 170,229 L 172,227 L 172,223 L 171,222 L 171,219 L 170,218 L 170,217 L 169,217 L 168,216 L 167,216 L 166,215 L 166,210 L 165,209 L 164,209 L 163,208 L 163,207 L 161,205 L 158,205 L 155,202 L 155,201 L 151,201 L 150,200 L 143,200 L 142,201 L 133,201 L 132,200 L 131,200 L 130,199 L 129,199 L 128,198 L 127,198 L 126,197 L 121,197 L 120,198 L 116,198 L 115,199 L 102,199 L 100,197 L 100,196 L 99,195 L 98,195 L 97,194 L 96,194 L 95,193 L 92,193 L 91,192 Z" fill="none" stroke="black" stroke-width="1"/>
</svg>