<svg xmlns="http://www.w3.org/2000/svg" width="404" height="430">
  <path d="M 318,94 L 317,95 L 316,95 L 315,96 L 314,96 L 313,97 L 310,97 L 309,98 L 306,98 L 303,101 L 301,101 L 300,102 L 299,102 L 297,104 L 296,104 L 295,103 L 294,103 L 293,102 L 292,102 L 291,101 L 283,101 L 282,102 L 281,101 L 280,102 L 278,102 L 277,103 L 274,103 L 267,110 L 267,111 L 266,112 L 266,113 L 265,114 L 265,115 L 262,118 L 262,120 L 261,121 L 261,122 L 262,123 L 262,129 L 261,130 L 261,131 L 259,133 L 259,134 L 257,136 L 257,137 L 256,138 L 256,146 L 257,147 L 257,148 L 258,149 L 258,150 L 259,151 L 259,157 L 260,158 L 260,159 L 261,160 L 261,161 L 262,162 L 262,163 L 263,164 L 263,168 L 264,169 L 264,178 L 263,179 L 263,182 L 264,183 L 264,190 L 265,191 L 265,192 L 266,193 L 266,194 L 267,194 L 269,196 L 269,200 L 268,201 L 268,202 L 270,202 L 273,199 L 274,199 L 276,197 L 281,197 L 282,196 L 285,196 L 287,198 L 289,198 L 290,197 L 292,197 L 293,196 L 294,196 L 296,194 L 297,194 L 298,193 L 302,193 L 302,188 L 303,187 L 303,186 L 311,178 L 311,177 L 313,175 L 313,174 L 314,173 L 314,172 L 315,171 L 315,170 L 318,167 L 319,167 L 322,164 L 323,164 L 326,161 L 327,161 L 328,160 L 336,160 L 337,159 L 338,159 L 339,160 L 339,159 L 343,155 L 344,155 L 345,154 L 349,154 L 350,155 L 358,155 L 359,154 L 361,154 L 361,152 L 363,150 L 364,150 L 365,149 L 367,149 L 368,148 L 372,148 L 373,147 L 377,147 L 378,146 L 381,146 L 381,145 L 379,143 L 378,143 L 374,139 L 373,139 L 372,138 L 370,138 L 367,135 L 367,134 L 366,134 L 363,131 L 363,126 L 367,122 L 367,119 L 368,118 L 368,116 L 370,114 L 370,112 L 371,111 L 371,109 L 372,108 L 372,107 L 373,106 L 373,105 L 375,103 L 370,103 L 369,102 L 365,102 L 364,101 L 361,101 L 360,102 L 358,102 L 357,103 L 353,103 L 352,104 L 349,104 L 348,103 L 346,103 L 345,102 L 343,102 L 342,101 L 342,100 L 340,100 L 339,99 L 338,99 L 337,98 L 334,98 L 333,97 L 332,97 L 331,96 L 329,96 L 328,95 L 324,95 L 323,94 Z" fill="none" stroke="black" stroke-width="1"/>
</svg>