<svg xmlns="http://www.w3.org/2000/svg" width="404" height="430">
  <path d="M 84,312 L 84,313 L 83,314 L 82,314 L 82,315 L 81,316 L 81,317 L 79,319 L 78,319 L 77,318 L 76,318 L 73,321 L 73,322 L 72,323 L 72,324 L 71,325 L 71,326 L 70,327 L 70,328 L 69,329 L 69,333 L 68,334 L 67,334 L 67,335 L 68,336 L 67,337 L 67,338 L 68,339 L 68,341 L 71,344 L 71,345 L 75,345 L 77,347 L 77,348 L 78,348 L 79,349 L 81,349 L 82,350 L 85,350 L 86,349 L 86,348 L 87,347 L 88,347 L 89,346 L 90,346 L 91,345 L 94,345 L 96,347 L 96,348 L 97,349 L 98,349 L 100,351 L 101,351 L 105,355 L 109,355 L 110,354 L 112,354 L 114,352 L 113,351 L 113,346 L 112,345 L 112,340 L 110,340 L 109,339 L 109,338 L 107,336 L 106,336 L 105,335 L 104,335 L 102,333 L 102,324 L 100,322 L 100,321 L 97,318 L 96,318 L 95,317 L 95,316 L 93,314 L 89,314 L 88,313 L 87,313 L 86,312 Z" fill="none" stroke="black" stroke-width="1"/>
</svg>