<svg xmlns="http://www.w3.org/2000/svg" width="404" height="430">
  <path d="M 89,265 L 87,267 L 82,267 L 80,269 L 80,271 L 81,271 L 82,270 L 83,270 L 84,271 L 84,273 L 85,273 L 87,275 L 86,276 L 85,276 L 86,277 L 86,284 L 92,290 L 93,290 L 97,294 L 97,295 L 98,295 L 100,297 L 104,297 L 105,298 L 111,298 L 112,299 L 112,300 L 113,301 L 113,306 L 115,308 L 115,309 L 116,310 L 116,311 L 119,311 L 120,310 L 122,310 L 124,308 L 128,308 L 129,307 L 137,307 L 138,306 L 139,306 L 140,305 L 141,305 L 142,304 L 147,304 L 148,303 L 149,303 L 150,304 L 151,304 L 151,303 L 150,302 L 150,301 L 147,298 L 147,297 L 144,294 L 144,292 L 143,291 L 143,277 L 142,276 L 142,275 L 136,269 L 134,269 L 133,268 L 131,268 L 130,267 L 118,267 L 117,268 L 115,268 L 114,269 L 111,269 L 110,270 L 102,270 L 99,267 L 94,267 L 93,266 L 91,266 L 90,265 Z" fill="none" stroke="black" stroke-width="1"/>
</svg>