<svg xmlns="http://www.w3.org/2000/svg" width="404" height="430">
  <path d="M 80,217 L 78,219 L 78,220 L 75,223 L 69,223 L 67,221 L 67,219 L 66,218 L 63,218 L 62,219 L 61,219 L 61,220 L 58,223 L 56,223 L 56,224 L 54,226 L 54,227 L 53,228 L 53,229 L 52,230 L 52,237 L 53,238 L 53,240 L 54,241 L 54,244 L 53,245 L 52,245 L 50,247 L 48,247 L 46,249 L 45,249 L 43,251 L 42,251 L 41,252 L 40,252 L 39,253 L 36,253 L 35,254 L 33,254 L 31,256 L 31,257 L 30,258 L 30,262 L 29,263 L 30,264 L 30,266 L 35,266 L 36,267 L 36,268 L 37,269 L 37,270 L 38,270 L 41,273 L 41,274 L 42,274 L 43,275 L 48,275 L 51,272 L 51,271 L 52,270 L 54,270 L 55,271 L 56,271 L 57,272 L 57,273 L 58,274 L 58,276 L 59,277 L 59,278 L 60,279 L 61,279 L 62,278 L 62,276 L 64,274 L 67,274 L 68,273 L 68,272 L 69,271 L 70,271 L 71,270 L 72,270 L 73,269 L 75,271 L 76,271 L 77,270 L 78,270 L 82,266 L 87,266 L 88,265 L 88,262 L 89,261 L 89,259 L 90,258 L 90,253 L 91,252 L 91,251 L 92,250 L 89,250 L 88,249 L 88,248 L 87,247 L 87,246 L 89,244 L 89,243 L 88,242 L 86,242 L 85,241 L 85,240 L 96,229 L 96,228 L 97,227 L 97,225 L 96,224 L 96,223 L 90,217 L 90,218 L 89,219 L 88,219 L 87,218 L 86,218 L 85,217 Z" fill="none" stroke="black" stroke-width="1"/>
</svg>