<svg xmlns="http://www.w3.org/2000/svg" width="550" height="483">
  <path d="M 39,312 L 39,323 L 40,324 L 40,325 L 39,326 L 39,327 L 38,328 L 37,327 L 37,326 L 37,328 L 38,329 L 38,333 L 39,334 L 39,335 L 37,337 L 37,338 L 36,339 L 36,340 L 35,341 L 30,341 L 29,340 L 29,347 L 30,348 L 30,351 L 31,350 L 33,350 L 34,351 L 35,351 L 41,357 L 42,357 L 43,358 L 43,359 L 45,359 L 46,360 L 47,360 L 49,362 L 52,362 L 53,361 L 53,360 L 54,359 L 54,358 L 55,357 L 56,357 L 59,354 L 61,354 L 62,353 L 63,353 L 66,350 L 66,345 L 67,344 L 67,343 L 69,341 L 70,341 L 71,340 L 71,339 L 72,338 L 74,338 L 76,336 L 76,335 L 75,334 L 73,334 L 71,332 L 71,331 L 65,325 L 65,323 L 63,321 L 63,318 L 62,317 L 58,317 L 57,316 L 53,316 L 51,314 L 47,314 L 46,313 L 40,313 Z" fill="none" stroke="black" stroke-width="1"/>
</svg>