<svg xmlns="http://www.w3.org/2000/svg" width="550" height="483">
  <path d="M 456,463 L 456,466 L 455,467 L 455,468 L 451,472 L 450,472 L 446,476 L 446,477 L 447,478 L 449,478 L 450,477 L 451,478 L 451,479 L 450,480 L 449,480 L 450,480 L 451,481 L 454,481 L 455,482 L 457,482 L 458,481 L 458,479 L 457,478 L 459,476 L 460,477 L 461,477 L 462,478 L 460,480 L 462,480 L 462,478 L 461,477 L 461,475 L 462,474 L 464,474 L 463,473 L 464,472 L 465,472 L 466,473 L 466,476 L 467,477 L 468,476 L 468,475 L 467,476 L 466,475 L 466,473 L 467,472 L 467,471 L 466,470 L 465,470 L 464,469 L 463,469 L 462,468 L 461,468 L 458,465 L 457,465 L 456,464 Z" fill="none" stroke="black" stroke-width="1"/>
</svg>