<svg xmlns="http://www.w3.org/2000/svg" width="550" height="483">
  <path d="M 329,371 L 327,373 L 323,373 L 321,375 L 320,375 L 320,376 L 322,378 L 328,378 L 329,377 L 330,377 L 331,378 L 333,378 L 333,377 L 334,376 L 340,376 L 340,375 L 339,374 L 338,374 L 337,375 L 336,375 L 335,374 L 334,374 L 333,373 L 333,372 L 332,371 Z" fill="none" stroke="black" stroke-width="1"/>
  <path d="M 337,320 L 337,326 L 338,327 L 338,330 L 339,329 L 340,330 L 340,332 L 337,335 L 337,336 L 339,338 L 339,339 L 336,342 L 336,343 L 334,345 L 334,347 L 332,349 L 332,350 L 333,351 L 332,352 L 332,355 L 333,356 L 333,357 L 332,358 L 332,361 L 331,362 L 330,362 L 329,361 L 326,361 L 325,362 L 325,364 L 323,366 L 325,366 L 326,365 L 328,365 L 330,363 L 333,363 L 334,364 L 335,364 L 335,360 L 336,359 L 336,358 L 337,357 L 337,354 L 338,353 L 338,352 L 339,351 L 339,349 L 340,348 L 342,350 L 342,352 L 343,353 L 343,354 L 346,357 L 346,361 L 347,362 L 345,364 L 346,365 L 346,366 L 345,367 L 345,368 L 343,370 L 342,370 L 341,371 L 342,372 L 346,372 L 348,370 L 352,370 L 351,369 L 352,368 L 354,368 L 355,367 L 356,367 L 356,362 L 359,359 L 360,359 L 362,357 L 362,356 L 363,355 L 363,354 L 362,353 L 362,352 L 360,350 L 360,348 L 362,346 L 362,345 L 361,344 L 355,344 L 352,341 L 351,341 L 350,340 L 350,339 L 349,338 L 349,336 L 348,335 L 348,333 L 347,332 L 347,331 L 345,329 L 345,328 L 343,326 L 343,325 L 340,322 L 340,321 L 339,321 L 338,320 Z" fill="none" stroke="black" stroke-width="1"/>
</svg>