<svg xmlns="http://www.w3.org/2000/svg" width="550" height="483">
  <path d="M 399,388 L 399,391 L 398,392 L 398,400 L 397,401 L 397,403 L 396,404 L 396,414 L 395,415 L 396,415 L 397,414 L 398,414 L 399,415 L 400,415 L 401,416 L 402,416 L 404,418 L 405,418 L 406,419 L 408,419 L 409,420 L 411,420 L 413,422 L 414,422 L 416,420 L 417,420 L 422,415 L 423,415 L 424,414 L 428,414 L 429,413 L 429,412 L 428,412 L 427,413 L 426,413 L 425,412 L 425,411 L 426,410 L 427,410 L 428,409 L 429,409 L 431,407 L 433,407 L 435,409 L 435,410 L 436,411 L 435,412 L 435,413 L 433,415 L 431,415 L 431,416 L 432,417 L 434,417 L 434,416 L 437,413 L 440,413 L 441,414 L 441,416 L 439,418 L 441,420 L 442,420 L 443,419 L 444,419 L 445,420 L 445,422 L 449,422 L 450,423 L 450,425 L 451,426 L 451,427 L 452,427 L 453,426 L 453,422 L 451,424 L 449,422 L 449,421 L 450,420 L 450,415 L 451,414 L 451,413 L 452,412 L 452,401 L 451,400 L 452,399 L 452,398 L 453,397 L 453,395 L 454,394 L 454,392 L 455,391 L 451,391 L 450,390 L 436,390 L 436,391 L 434,393 L 430,393 L 429,394 L 421,394 L 420,393 L 415,393 L 414,392 L 412,392 L 411,391 L 409,391 L 408,390 L 407,390 L 406,389 L 402,389 L 401,388 Z" fill="none" stroke="black" stroke-width="1"/>
</svg>