<svg xmlns="http://www.w3.org/2000/svg" width="550" height="483">
  <path d="M 410,350 L 409,351 L 409,352 L 408,353 L 407,353 L 407,355 L 406,356 L 405,356 L 404,357 L 403,357 L 401,359 L 400,359 L 400,367 L 399,368 L 399,369 L 398,370 L 398,373 L 397,374 L 397,384 L 398,385 L 398,387 L 401,387 L 402,388 L 406,388 L 407,389 L 408,389 L 409,390 L 411,390 L 412,391 L 414,391 L 415,392 L 420,392 L 421,393 L 429,393 L 430,392 L 434,392 L 435,391 L 435,390 L 436,389 L 450,389 L 451,390 L 456,390 L 457,389 L 462,389 L 464,387 L 464,384 L 462,382 L 463,381 L 463,380 L 464,379 L 464,376 L 463,375 L 463,374 L 462,374 L 461,373 L 461,372 L 460,372 L 459,371 L 458,371 L 457,370 L 456,370 L 454,368 L 453,368 L 452,367 L 451,367 L 450,366 L 448,366 L 445,363 L 444,363 L 443,362 L 437,362 L 436,361 L 431,361 L 429,359 L 428,359 L 427,358 L 427,357 L 426,357 L 425,356 L 424,356 L 422,354 L 414,354 Z" fill="none" stroke="black" stroke-width="1"/>
</svg>