<svg xmlns="http://www.w3.org/2000/svg" width="550" height="483">
  <path d="M 448,316 L 446,318 L 446,322 L 445,323 L 445,326 L 446,327 L 446,328 L 451,333 L 451,336 L 452,336 L 453,337 L 465,337 L 466,338 L 467,338 L 468,339 L 468,340 L 469,341 L 469,342 L 475,348 L 475,349 L 476,350 L 476,351 L 477,352 L 478,352 L 480,354 L 481,354 L 482,355 L 484,355 L 485,354 L 486,354 L 487,353 L 488,353 L 489,352 L 491,352 L 492,351 L 495,351 L 496,350 L 499,350 L 502,347 L 503,347 L 504,346 L 508,346 L 510,344 L 510,343 L 511,342 L 511,340 L 512,339 L 512,333 L 514,331 L 514,328 L 513,328 L 512,327 L 510,327 L 509,326 L 502,326 L 501,325 L 499,325 L 498,326 L 496,326 L 495,327 L 485,327 L 484,326 L 473,326 L 472,325 L 471,325 L 470,324 L 469,324 L 468,323 L 465,323 L 464,322 L 462,322 L 461,321 L 460,321 L 457,318 L 456,318 L 455,317 L 452,317 L 451,316 Z" fill="none" stroke="black" stroke-width="1"/>
</svg>