<svg xmlns="http://www.w3.org/2000/svg" width="550" height="483">
  <path d="M 512,340 L 512,342 L 511,343 L 511,344 L 509,346 L 509,348 L 508,349 L 508,350 L 507,351 L 507,354 L 505,356 L 505,357 L 504,358 L 504,363 L 506,365 L 507,365 L 508,364 L 509,364 L 509,363 L 510,362 L 511,362 L 512,363 L 512,362 L 510,360 L 512,358 L 512,357 L 513,356 L 512,355 L 512,354 L 513,353 L 513,351 L 516,348 L 516,347 L 518,345 L 518,343 L 517,342 L 516,342 L 515,341 L 513,341 Z" fill="none" stroke="black" stroke-width="1"/>
</svg>