<svg xmlns="http://www.w3.org/2000/svg" width="550" height="483">
  <path d="M 455,283 L 454,284 L 454,292 L 453,293 L 453,298 L 452,299 L 452,307 L 451,308 L 451,311 L 450,312 L 450,315 L 451,315 L 452,316 L 455,316 L 456,317 L 457,317 L 460,320 L 461,320 L 462,321 L 464,321 L 465,322 L 468,322 L 469,323 L 470,323 L 471,324 L 472,324 L 473,325 L 484,325 L 485,326 L 495,326 L 496,325 L 498,325 L 499,324 L 501,324 L 501,323 L 502,322 L 502,321 L 501,320 L 501,316 L 502,315 L 502,314 L 503,313 L 503,311 L 502,310 L 502,309 L 501,308 L 501,306 L 500,306 L 499,305 L 496,305 L 493,302 L 493,301 L 490,298 L 490,295 L 489,294 L 489,292 L 486,289 L 486,288 L 484,288 L 483,287 L 472,287 L 471,286 L 470,286 L 469,285 L 467,285 L 466,284 L 462,284 L 461,283 Z" fill="none" stroke="black" stroke-width="1"/>
</svg>