<svg xmlns="http://www.w3.org/2000/svg" width="550" height="483">
  <path d="M 546,270 L 545,271 L 544,271 L 543,272 L 539,272 L 538,271 L 529,271 L 528,272 L 526,272 L 525,273 L 525,274 L 527,276 L 526,277 L 527,277 L 528,278 L 528,281 L 529,282 L 529,284 L 530,285 L 530,290 L 523,297 L 523,299 L 524,300 L 524,301 L 525,302 L 525,303 L 528,306 L 529,306 L 532,309 L 532,310 L 534,312 L 534,315 L 530,319 L 530,320 L 531,320 L 533,322 L 534,322 L 534,321 L 535,320 L 535,319 L 534,318 L 534,317 L 535,316 L 535,315 L 538,312 L 538,310 L 539,309 L 539,307 L 540,306 L 540,303 L 541,302 L 541,300 L 542,299 L 541,298 L 541,292 L 542,291 L 542,290 L 543,289 L 543,287 L 544,286 L 544,285 L 545,284 L 545,273 L 546,272 L 546,271 L 547,270 Z" fill="none" stroke="black" stroke-width="1"/>
</svg>