<svg xmlns="http://www.w3.org/2000/svg" width="550" height="483">
  <path d="M 474,176 L 473,177 L 473,179 L 468,184 L 468,185 L 461,192 L 461,193 L 450,204 L 450,205 L 449,206 L 449,207 L 446,210 L 446,211 L 445,212 L 445,213 L 444,214 L 444,216 L 443,217 L 443,231 L 444,232 L 444,234 L 445,235 L 445,236 L 446,237 L 446,238 L 448,240 L 448,241 L 450,243 L 450,244 L 451,245 L 451,246 L 452,247 L 453,247 L 454,248 L 454,249 L 458,253 L 458,257 L 459,258 L 459,261 L 460,261 L 461,260 L 462,260 L 463,259 L 464,259 L 466,257 L 468,257 L 470,255 L 471,255 L 472,254 L 473,254 L 479,248 L 479,247 L 482,244 L 482,243 L 484,241 L 484,239 L 485,238 L 485,235 L 486,234 L 486,224 L 487,223 L 487,220 L 488,219 L 488,217 L 489,216 L 489,215 L 492,212 L 493,212 L 495,210 L 495,201 L 493,199 L 493,197 L 492,196 L 492,195 L 491,194 L 491,193 L 489,191 L 489,190 L 488,190 L 485,187 L 485,186 L 484,185 L 484,184 L 483,183 L 483,179 L 482,179 L 481,178 L 479,178 L 478,177 L 476,177 L 475,176 Z" fill="none" stroke="black" stroke-width="1"/>
</svg>