<svg xmlns="http://www.w3.org/2000/svg" width="550" height="483">
  <path d="M 544,207 L 544,209 L 545,210 L 545,211 L 542,214 L 542,216 L 541,217 L 541,220 L 542,221 L 542,222 L 542,219 L 543,218 L 543,217 L 545,215 L 545,207 Z" fill="none" stroke="black" stroke-width="1"/>
  <path d="M 496,201 L 496,210 L 493,213 L 492,213 L 490,215 L 490,216 L 489,217 L 489,219 L 488,220 L 488,223 L 487,224 L 487,228 L 489,228 L 491,226 L 492,226 L 493,225 L 494,225 L 495,224 L 496,224 L 497,223 L 499,223 L 500,222 L 502,222 L 503,221 L 512,221 L 514,223 L 515,223 L 516,224 L 517,224 L 518,225 L 519,225 L 520,226 L 521,226 L 522,227 L 523,227 L 524,228 L 528,228 L 529,229 L 537,229 L 538,228 L 542,228 L 542,227 L 543,226 L 543,225 L 542,224 L 541,224 L 539,222 L 539,216 L 538,215 L 537,215 L 535,213 L 535,212 L 534,211 L 534,209 L 529,209 L 528,208 L 526,208 L 525,207 L 503,207 L 502,206 L 500,206 L 496,202 Z" fill="none" stroke="black" stroke-width="1"/>
</svg>