<svg xmlns="http://www.w3.org/2000/svg" width="588" height="448">
  <path d="M 209,390 L 210,390 Z" fill="none" stroke="black" stroke-width="1"/>
  <path d="M 209,384 L 210,384 Z" fill="none" stroke="black" stroke-width="1"/>
  <path d="M 233,383 L 232,384 L 230,384 L 230,385 L 231,386 L 231,387 L 230,388 L 229,387 L 229,388 L 230,389 L 229,390 L 227,390 L 224,393 L 223,393 L 222,394 L 222,395 L 221,396 L 221,397 L 224,400 L 224,398 L 225,397 L 226,398 L 227,398 L 228,399 L 229,399 L 229,397 L 228,396 L 227,396 L 226,395 L 227,394 L 229,394 L 231,396 L 232,396 L 233,395 L 234,396 L 235,395 L 235,394 L 234,394 L 233,393 L 234,392 L 241,392 L 242,391 L 244,391 L 245,390 L 247,390 L 247,389 L 246,388 L 247,387 L 247,386 L 245,384 L 241,384 L 241,386 L 242,387 L 242,389 L 241,390 L 240,389 L 240,388 L 239,388 L 236,385 L 237,384 L 239,384 L 238,384 L 237,383 L 236,383 L 235,384 L 234,384 Z" fill="none" stroke="black" stroke-width="1"/>
  <path d="M 213,383 L 215,383 Z" fill="none" stroke="black" stroke-width="1"/>
  <path d="M 220,381 L 220,382 L 221,382 L 222,383 L 224,383 L 225,384 L 225,385 L 224,386 L 222,386 L 221,385 L 220,385 L 219,384 L 217,384 L 217,385 L 216,386 L 212,386 L 214,388 L 213,389 L 212,389 L 213,389 L 214,390 L 211,393 L 211,394 L 210,395 L 208,395 L 207,394 L 205,394 L 204,393 L 203,393 L 202,392 L 202,393 L 204,393 L 206,395 L 205,396 L 203,396 L 205,396 L 207,398 L 211,398 L 212,397 L 212,395 L 213,394 L 214,394 L 215,393 L 216,393 L 217,394 L 223,388 L 225,388 L 225,387 L 227,385 L 227,384 L 225,382 L 223,382 L 222,381 Z" fill="none" stroke="black" stroke-width="1"/>
</svg>