<svg xmlns="http://www.w3.org/2000/svg" width="1028" height="413">
  <path d="M 574,399 L 573,400 L 572,400 L 572,403 L 574,401 L 576,401 L 577,400 L 577,399 Z" fill="none" stroke="black" stroke-width="1"/>
  <path d="M 573,375 L 572,376 L 571,376 L 570,377 L 568,377 L 568,378 L 569,378 L 570,379 L 570,381 L 571,382 L 571,385 L 570,386 L 569,386 L 568,385 L 568,384 L 569,383 L 568,382 L 568,380 L 568,381 L 567,382 L 567,384 L 566,385 L 565,384 L 565,383 L 563,381 L 564,380 L 563,380 L 562,379 L 561,379 L 562,380 L 562,381 L 560,383 L 559,383 L 558,384 L 557,384 L 556,385 L 555,384 L 553,384 L 553,385 L 554,385 L 556,387 L 556,388 L 557,389 L 557,394 L 558,395 L 565,395 L 566,396 L 566,397 L 565,398 L 566,398 L 567,399 L 568,399 L 569,400 L 570,400 L 570,399 L 571,398 L 571,397 L 570,397 L 569,396 L 570,395 L 572,395 L 573,394 L 575,394 L 576,393 L 574,391 L 573,391 L 572,390 L 572,388 L 574,386 L 576,386 L 578,384 L 578,381 L 577,380 L 577,378 L 578,377 L 577,376 L 575,376 L 574,375 Z" fill="none" stroke="black" stroke-width="1"/>
</svg>