<svg xmlns="http://www.w3.org/2000/svg" width="776" height="467">
  <path d="M 762,204 L 761,205 L 760,205 L 760,206 L 764,206 L 764,204 Z" fill="none" stroke="black" stroke-width="1"/>
  <path d="M 740,193 L 740,197 L 743,194 L 743,193 Z" fill="none" stroke="black" stroke-width="1"/>
  <path d="M 727,186 L 729,186 L 731,188 L 731,187 L 730,186 Z" fill="none" stroke="black" stroke-width="1"/>
  <path d="M 724,184 L 723,185 L 722,185 L 723,186 L 724,186 L 725,185 L 725,184 Z" fill="none" stroke="black" stroke-width="1"/>
  <path d="M 693,175 L 694,175 Z" fill="none" stroke="black" stroke-width="1"/>
  <path d="M 707,152 L 705,154 L 705,156 L 704,157 L 703,157 L 702,158 L 699,158 L 698,159 L 698,160 L 695,163 L 693,163 L 695,165 L 693,167 L 690,167 L 689,168 L 685,168 L 684,169 L 682,169 L 683,170 L 684,170 L 685,169 L 686,169 L 687,170 L 686,171 L 688,171 L 689,172 L 689,173 L 690,174 L 691,174 L 694,171 L 697,171 L 698,170 L 699,170 L 700,171 L 697,174 L 696,174 L 696,175 L 697,176 L 696,177 L 693,177 L 694,177 L 696,179 L 697,179 L 698,178 L 697,177 L 698,176 L 699,176 L 700,175 L 701,176 L 701,178 L 702,178 L 703,179 L 702,180 L 700,180 L 699,181 L 698,181 L 697,182 L 696,182 L 697,182 L 698,183 L 697,184 L 696,184 L 697,185 L 702,185 L 701,185 L 700,184 L 702,182 L 708,182 L 706,180 L 707,179 L 715,179 L 716,180 L 715,181 L 715,182 L 716,183 L 719,180 L 720,180 L 722,178 L 723,178 L 723,177 L 724,176 L 726,178 L 726,180 L 725,181 L 723,181 L 722,182 L 721,182 L 721,183 L 722,182 L 724,182 L 725,181 L 726,181 L 726,179 L 727,178 L 728,178 L 729,179 L 729,180 L 730,181 L 730,182 L 728,184 L 727,184 L 729,184 L 731,182 L 734,182 L 735,181 L 736,181 L 737,180 L 735,180 L 734,179 L 736,177 L 736,176 L 734,176 L 732,178 L 731,178 L 730,179 L 729,179 L 728,178 L 729,177 L 729,176 L 730,175 L 730,174 L 729,173 L 730,172 L 731,172 L 733,170 L 734,171 L 734,172 L 733,173 L 733,174 L 736,174 L 737,173 L 738,173 L 739,174 L 739,175 L 740,175 L 740,174 L 741,173 L 742,173 L 743,174 L 742,175 L 742,176 L 741,177 L 741,180 L 738,183 L 737,183 L 735,185 L 735,186 L 736,187 L 735,188 L 735,189 L 736,190 L 738,188 L 738,187 L 740,185 L 741,186 L 741,187 L 740,188 L 741,188 L 743,186 L 744,187 L 744,188 L 742,190 L 742,191 L 744,191 L 745,190 L 745,189 L 746,188 L 746,187 L 750,183 L 752,183 L 753,184 L 751,186 L 750,186 L 749,187 L 749,189 L 748,190 L 748,192 L 747,193 L 747,194 L 746,195 L 745,195 L 744,196 L 745,196 L 747,194 L 748,194 L 748,193 L 749,192 L 749,191 L 752,188 L 753,188 L 754,189 L 754,190 L 751,193 L 751,194 L 749,196 L 749,197 L 748,198 L 747,198 L 746,199 L 746,200 L 747,201 L 752,201 L 753,200 L 754,201 L 754,202 L 755,202 L 756,203 L 756,204 L 757,204 L 757,203 L 758,202 L 757,201 L 757,200 L 756,200 L 755,199 L 754,199 L 753,198 L 754,197 L 756,197 L 758,195 L 758,194 L 760,192 L 761,193 L 761,195 L 760,196 L 760,199 L 761,200 L 762,200 L 764,202 L 765,202 L 766,203 L 770,203 L 772,201 L 774,201 L 773,201 L 772,200 L 773,199 L 775,199 L 774,198 L 774,197 L 773,197 L 772,196 L 773,195 L 775,195 L 774,194 L 774,193 L 772,193 L 771,194 L 770,194 L 769,195 L 768,195 L 767,194 L 768,193 L 768,192 L 767,192 L 766,191 L 766,190 L 761,190 L 760,189 L 759,189 L 758,188 L 759,187 L 765,187 L 765,185 L 764,184 L 764,183 L 763,183 L 762,182 L 761,182 L 760,181 L 760,180 L 759,180 L 758,181 L 757,181 L 754,178 L 755,177 L 754,176 L 754,174 L 751,177 L 749,175 L 749,172 L 751,170 L 751,169 L 750,168 L 750,167 L 751,166 L 751,165 L 752,164 L 751,163 L 751,160 L 750,159 L 749,159 L 746,156 L 747,155 L 747,154 L 746,153 L 746,152 L 742,156 L 742,157 L 735,164 L 735,165 L 734,166 L 733,166 L 732,165 L 732,164 L 730,164 L 728,162 L 728,161 L 727,161 L 726,162 L 725,162 L 724,163 L 723,163 L 723,165 L 720,168 L 720,171 L 717,174 L 716,173 L 716,172 L 715,173 L 715,174 L 714,175 L 712,175 L 711,176 L 709,176 L 708,175 L 708,172 L 707,171 L 707,168 L 708,167 L 708,166 L 710,164 L 710,163 L 711,162 L 711,160 L 712,159 L 712,157 L 711,156 L 711,155 L 708,152 Z" fill="none" stroke="black" stroke-width="1"/>
</svg>