<svg xmlns="http://www.w3.org/2000/svg" width="776" height="467">
  <path d="M 654,128 L 656,128 Z" fill="none" stroke="black" stroke-width="1"/>
  <path d="M 644,98 L 643,99 L 645,99 L 646,98 Z" fill="none" stroke="black" stroke-width="1"/>
  <path d="M 652,93 L 651,94 L 651,95 L 650,96 L 650,97 L 651,97 L 651,96 L 652,95 L 653,95 L 654,94 L 654,93 Z" fill="none" stroke="black" stroke-width="1"/>
  <path d="M 648,93 L 646,95 L 646,96 L 648,96 L 648,94 L 649,93 Z" fill="none" stroke="black" stroke-width="1"/>
  <path d="M 659,89 L 657,91 L 654,91 L 655,91 L 658,94 L 661,94 L 662,93 L 663,93 L 663,91 L 662,90 L 661,90 L 660,89 Z" fill="none" stroke="black" stroke-width="1"/>
  <path d="M 620,69 L 621,70 L 622,69 Z" fill="none" stroke="black" stroke-width="1"/>
  <path d="M 611,43 L 611,45 L 610,46 L 610,48 L 611,49 L 612,49 L 613,50 L 611,52 L 612,53 L 611,54 L 610,54 L 611,55 L 612,54 L 613,54 L 615,52 L 616,52 L 617,51 L 618,51 L 619,50 L 620,50 L 621,49 L 622,49 L 623,48 L 623,47 L 624,46 L 625,46 L 626,45 L 627,45 L 628,44 L 627,43 L 624,43 L 623,44 L 616,44 L 615,43 Z" fill="none" stroke="black" stroke-width="1"/>
  <path d="M 615,34 L 614,35 L 613,35 L 613,36 L 614,36 L 615,35 L 618,35 L 618,34 Z" fill="none" stroke="black" stroke-width="1"/>
  <path d="M 652,33 L 651,34 L 648,34 L 646,36 L 646,37 L 644,39 L 643,39 L 642,40 L 641,40 L 640,41 L 637,41 L 636,42 L 636,43 L 635,44 L 634,44 L 633,45 L 631,45 L 630,46 L 629,46 L 628,47 L 627,47 L 625,49 L 625,50 L 623,52 L 622,52 L 621,53 L 620,53 L 619,54 L 618,54 L 617,55 L 616,55 L 614,57 L 615,58 L 616,57 L 615,56 L 616,55 L 617,55 L 618,56 L 619,56 L 620,55 L 623,55 L 624,56 L 627,56 L 628,57 L 630,57 L 631,56 L 632,56 L 633,55 L 636,55 L 637,54 L 638,54 L 639,55 L 639,56 L 638,57 L 637,57 L 636,58 L 635,58 L 634,59 L 632,59 L 631,60 L 626,60 L 625,59 L 624,59 L 623,58 L 620,58 L 619,59 L 618,59 L 618,60 L 619,59 L 620,59 L 621,58 L 622,58 L 623,59 L 623,60 L 622,61 L 620,61 L 619,62 L 620,63 L 619,64 L 618,64 L 617,63 L 617,64 L 618,65 L 618,67 L 621,67 L 622,66 L 622,65 L 623,64 L 624,64 L 625,65 L 625,66 L 624,67 L 624,68 L 626,68 L 628,70 L 629,69 L 630,69 L 631,68 L 632,68 L 633,67 L 634,67 L 635,66 L 635,65 L 636,64 L 637,64 L 638,63 L 639,63 L 640,62 L 642,62 L 644,60 L 652,60 L 653,61 L 655,61 L 656,62 L 658,62 L 659,63 L 659,64 L 658,65 L 655,65 L 653,63 L 644,63 L 643,64 L 641,64 L 640,65 L 639,65 L 640,66 L 640,67 L 639,68 L 638,68 L 636,70 L 634,70 L 633,71 L 631,71 L 629,73 L 628,73 L 628,76 L 629,76 L 630,75 L 630,74 L 631,73 L 633,73 L 634,74 L 632,76 L 633,76 L 634,77 L 632,79 L 634,81 L 635,81 L 636,82 L 634,84 L 633,84 L 633,86 L 635,84 L 636,84 L 637,83 L 638,83 L 640,81 L 642,81 L 643,82 L 644,82 L 645,81 L 646,81 L 647,82 L 645,84 L 644,84 L 643,85 L 642,85 L 641,86 L 638,86 L 636,88 L 635,88 L 634,89 L 635,90 L 635,96 L 636,97 L 636,101 L 637,101 L 638,100 L 639,100 L 641,98 L 641,97 L 644,94 L 644,93 L 645,92 L 645,90 L 648,87 L 649,87 L 650,88 L 649,89 L 649,91 L 651,91 L 651,90 L 652,89 L 653,89 L 654,88 L 655,88 L 656,87 L 657,87 L 658,86 L 659,87 L 663,87 L 666,84 L 667,85 L 667,86 L 666,87 L 666,88 L 667,89 L 666,90 L 666,92 L 668,94 L 669,94 L 670,95 L 672,95 L 674,97 L 674,98 L 673,99 L 672,98 L 671,98 L 670,97 L 669,97 L 668,96 L 667,96 L 666,95 L 665,96 L 664,96 L 663,97 L 656,97 L 654,99 L 654,100 L 653,101 L 652,101 L 651,102 L 646,102 L 645,101 L 642,101 L 641,102 L 642,102 L 644,104 L 645,103 L 651,103 L 652,102 L 654,102 L 655,101 L 656,101 L 657,100 L 658,100 L 659,99 L 660,100 L 666,100 L 668,102 L 668,103 L 667,104 L 666,104 L 665,103 L 664,103 L 663,102 L 662,102 L 661,103 L 658,103 L 657,104 L 656,104 L 655,105 L 654,105 L 653,106 L 642,106 L 643,106 L 644,107 L 645,106 L 646,107 L 646,108 L 650,108 L 651,109 L 650,110 L 649,110 L 648,111 L 647,111 L 646,112 L 644,112 L 644,114 L 645,114 L 650,119 L 649,120 L 649,121 L 658,121 L 659,120 L 663,120 L 664,121 L 663,122 L 662,122 L 661,123 L 660,123 L 659,124 L 651,124 L 651,126 L 652,126 L 654,124 L 655,125 L 659,125 L 660,126 L 661,125 L 663,125 L 664,124 L 666,124 L 667,125 L 666,126 L 665,126 L 664,127 L 663,127 L 662,128 L 659,128 L 658,129 L 658,131 L 660,131 L 661,132 L 664,129 L 665,130 L 666,129 L 670,129 L 671,128 L 672,129 L 672,130 L 671,131 L 671,132 L 670,133 L 669,132 L 669,131 L 668,132 L 666,132 L 664,134 L 664,135 L 663,136 L 663,137 L 665,135 L 666,135 L 668,133 L 669,134 L 669,135 L 665,139 L 664,139 L 664,140 L 663,141 L 663,143 L 666,146 L 668,146 L 670,148 L 676,148 L 677,149 L 676,150 L 674,150 L 678,150 L 679,151 L 677,153 L 673,153 L 673,155 L 677,155 L 678,156 L 677,157 L 674,157 L 676,157 L 677,158 L 678,158 L 680,156 L 679,156 L 678,155 L 679,154 L 680,154 L 680,150 L 682,148 L 683,148 L 684,149 L 683,150 L 683,152 L 684,152 L 685,153 L 684,154 L 683,154 L 683,155 L 684,155 L 685,156 L 681,160 L 681,161 L 682,162 L 686,162 L 688,164 L 687,165 L 679,165 L 680,166 L 685,166 L 686,165 L 689,165 L 690,164 L 691,164 L 693,162 L 695,162 L 697,160 L 697,159 L 699,157 L 702,157 L 703,156 L 704,156 L 704,154 L 707,151 L 706,151 L 705,150 L 704,150 L 703,149 L 702,149 L 700,147 L 698,147 L 696,145 L 696,144 L 695,144 L 694,143 L 694,142 L 697,139 L 698,139 L 699,138 L 700,138 L 700,137 L 704,133 L 704,132 L 703,132 L 702,133 L 701,133 L 700,134 L 698,132 L 698,130 L 695,130 L 693,128 L 693,124 L 692,123 L 692,122 L 690,120 L 690,119 L 689,118 L 687,118 L 686,119 L 681,119 L 680,120 L 678,120 L 677,121 L 673,121 L 665,113 L 657,113 L 654,116 L 650,116 L 649,115 L 649,113 L 650,112 L 652,112 L 653,111 L 653,110 L 654,109 L 656,109 L 657,110 L 658,109 L 662,109 L 663,108 L 664,108 L 665,109 L 667,107 L 668,108 L 669,108 L 670,107 L 670,106 L 673,103 L 674,103 L 675,104 L 676,104 L 676,103 L 678,101 L 678,100 L 677,99 L 678,98 L 677,97 L 677,95 L 676,94 L 675,94 L 671,90 L 672,89 L 674,89 L 676,87 L 677,87 L 678,86 L 678,85 L 679,84 L 679,82 L 680,81 L 680,80 L 678,78 L 677,78 L 676,79 L 672,79 L 670,77 L 671,76 L 666,76 L 666,78 L 664,80 L 664,83 L 663,84 L 662,84 L 661,83 L 661,82 L 660,82 L 658,80 L 657,80 L 657,81 L 654,84 L 654,85 L 653,86 L 647,86 L 645,88 L 645,89 L 644,90 L 643,90 L 641,92 L 641,93 L 638,96 L 637,95 L 637,94 L 638,93 L 638,89 L 640,87 L 641,88 L 642,87 L 643,87 L 649,81 L 651,81 L 651,78 L 652,77 L 652,76 L 651,75 L 648,75 L 647,76 L 641,76 L 640,77 L 637,77 L 636,76 L 636,75 L 637,74 L 637,73 L 638,72 L 644,72 L 647,69 L 646,69 L 645,68 L 646,67 L 647,67 L 648,66 L 650,66 L 651,67 L 653,67 L 655,69 L 661,69 L 662,68 L 662,67 L 664,65 L 665,65 L 665,64 L 667,62 L 666,61 L 665,61 L 664,60 L 664,59 L 663,58 L 662,58 L 661,59 L 659,59 L 658,58 L 657,58 L 656,59 L 650,59 L 649,58 L 644,58 L 642,60 L 639,60 L 638,61 L 638,62 L 636,64 L 635,64 L 634,65 L 632,65 L 631,66 L 630,66 L 628,68 L 627,68 L 626,67 L 626,65 L 630,61 L 631,61 L 632,60 L 633,61 L 634,60 L 636,60 L 638,58 L 639,58 L 640,57 L 639,56 L 640,55 L 640,54 L 641,53 L 641,52 L 640,51 L 639,51 L 638,52 L 637,52 L 635,54 L 634,54 L 633,55 L 629,55 L 628,56 L 627,55 L 625,55 L 623,53 L 624,52 L 625,52 L 626,51 L 626,50 L 627,49 L 628,49 L 630,47 L 632,47 L 633,46 L 634,46 L 635,45 L 636,45 L 637,44 L 638,44 L 640,42 L 642,42 L 643,41 L 644,41 L 644,40 L 649,35 L 650,36 L 651,36 L 652,35 Z" fill="none" stroke="black" stroke-width="1"/>
  <path d="M 607,26 L 607,27 L 606,28 L 607,28 L 609,30 L 608,31 L 609,32 L 619,32 L 621,34 L 620,35 L 622,35 L 623,36 L 625,36 L 627,38 L 626,39 L 616,39 L 615,40 L 614,40 L 617,40 L 618,41 L 631,41 L 632,42 L 633,41 L 634,41 L 637,38 L 638,38 L 640,36 L 641,36 L 642,35 L 643,35 L 644,34 L 645,34 L 643,34 L 642,35 L 641,35 L 640,36 L 639,36 L 637,38 L 633,38 L 632,37 L 633,36 L 634,36 L 635,35 L 632,32 L 631,32 L 630,31 L 630,30 L 629,29 L 625,29 L 624,28 L 622,28 L 622,30 L 620,32 L 618,30 L 617,31 L 616,31 L 615,30 L 614,30 L 612,28 L 612,27 L 611,26 Z" fill="none" stroke="black" stroke-width="1"/>
  <path d="M 609,19 L 608,20 L 608,21 L 607,22 L 607,24 L 608,24 L 609,23 L 611,23 L 611,22 L 610,21 L 611,20 L 610,19 Z" fill="none" stroke="black" stroke-width="1"/>
  <path d="M 611,9 L 610,10 L 609,10 L 609,11 L 610,12 L 610,10 L 611,9 L 612,10 L 612,13 L 611,14 L 610,14 L 609,15 L 609,16 L 611,16 L 613,14 L 614,14 L 613,13 L 613,12 L 614,11 L 614,10 L 613,10 L 612,9 Z" fill="none" stroke="black" stroke-width="1"/>
  <path d="M 613,7 L 614,8 L 615,8 L 615,7 Z" fill="none" stroke="black" stroke-width="1"/>
  <path d="M 613,2 L 614,3 L 616,3 L 617,4 L 617,6 L 618,7 L 620,5 L 618,3 L 617,4 L 616,3 L 616,2 Z" fill="none" stroke="black" stroke-width="1"/>
  <path d="M 614,0 L 618,0 L 619,1 L 620,0 Z" fill="none" stroke="black" stroke-width="1"/>
</svg>