<svg xmlns="http://www.w3.org/2000/svg" width="1790" height="1070">
  <path d="M 616,842 L 615,843 L 613,843 L 618,848 L 618,849 L 620,851 L 620,852 L 621,853 L 621,855 L 620,856 L 620,857 L 623,860 L 623,861 L 625,859 L 625,858 L 626,857 L 628,859 L 625,862 L 625,865 L 627,867 L 627,868 L 629,870 L 629,871 L 632,874 L 632,875 L 633,876 L 633,877 L 634,877 L 636,875 L 637,875 L 639,877 L 638,878 L 637,878 L 638,878 L 641,881 L 641,883 L 643,883 L 644,882 L 643,881 L 644,880 L 644,879 L 645,878 L 645,877 L 642,874 L 642,873 L 641,873 L 640,872 L 640,869 L 639,868 L 640,867 L 641,867 L 642,868 L 642,867 L 640,865 L 641,864 L 642,864 L 640,862 L 640,861 L 639,861 L 638,860 L 639,859 L 638,858 L 638,856 L 638,857 L 637,858 L 636,858 L 635,859 L 634,858 L 634,856 L 635,855 L 633,855 L 632,854 L 631,854 L 630,855 L 629,855 L 628,854 L 629,853 L 625,853 L 624,852 L 624,851 L 625,850 L 624,849 L 624,850 L 623,851 L 622,851 L 620,849 L 620,848 L 618,846 L 618,842 L 617,843 Z" fill="none" stroke="black" stroke-width="1"/>
</svg>