<svg xmlns="http://www.w3.org/2000/svg" width="1790" height="1070">
  <path d="M 649,922 L 648,923 L 646,923 L 645,924 L 643,924 L 642,925 L 642,926 L 640,928 L 636,928 L 635,929 L 633,929 L 632,930 L 631,930 L 631,931 L 630,932 L 630,933 L 631,934 L 631,935 L 632,936 L 633,936 L 634,937 L 636,937 L 639,940 L 640,940 L 643,943 L 647,943 L 648,944 L 649,944 L 650,945 L 650,946 L 651,947 L 651,948 L 653,950 L 653,953 L 652,954 L 652,957 L 651,958 L 651,960 L 649,962 L 649,963 L 646,966 L 646,967 L 643,970 L 644,971 L 645,971 L 645,969 L 646,968 L 647,969 L 647,973 L 649,971 L 649,969 L 651,967 L 651,966 L 652,965 L 652,964 L 653,963 L 654,963 L 655,962 L 656,962 L 656,961 L 657,960 L 657,958 L 659,956 L 659,955 L 660,954 L 660,943 L 659,942 L 658,942 L 655,939 L 655,935 L 654,934 L 654,931 L 653,930 L 653,923 L 652,923 L 651,922 Z" fill="none" stroke="black" stroke-width="1"/>
</svg>