<svg xmlns="http://www.w3.org/2000/svg" width="1790" height="1070">
  <path d="M 664,900 L 662,902 L 661,902 L 660,903 L 660,904 L 661,905 L 661,910 L 658,913 L 658,914 L 657,915 L 657,917 L 656,918 L 656,922 L 654,924 L 654,930 L 655,931 L 655,934 L 656,935 L 656,939 L 658,941 L 659,941 L 659,940 L 661,938 L 662,938 L 663,937 L 664,937 L 664,936 L 665,935 L 665,931 L 666,930 L 666,927 L 668,925 L 668,920 L 669,919 L 671,919 L 672,918 L 672,911 L 671,910 L 671,909 L 673,907 L 673,905 L 672,904 L 670,904 L 669,903 L 666,903 L 664,901 Z" fill="none" stroke="black" stroke-width="1"/>
</svg>