<svg xmlns="http://www.w3.org/2000/svg" width="1790" height="1070">
  <path d="M 622,983 L 620,985 L 619,985 L 618,986 L 616,986 L 615,987 L 614,987 L 613,988 L 613,990 L 612,991 L 609,991 L 609,993 L 604,998 L 603,998 L 602,999 L 597,999 L 596,1000 L 594,1000 L 593,1001 L 592,1001 L 592,1002 L 591,1003 L 590,1003 L 589,1004 L 589,1005 L 586,1008 L 583,1008 L 581,1010 L 581,1011 L 580,1012 L 579,1012 L 577,1014 L 577,1015 L 576,1016 L 575,1016 L 574,1017 L 573,1017 L 573,1018 L 572,1019 L 571,1019 L 569,1021 L 568,1021 L 567,1022 L 565,1022 L 565,1024 L 564,1025 L 562,1025 L 561,1026 L 560,1026 L 557,1029 L 556,1029 L 556,1030 L 555,1031 L 554,1031 L 553,1032 L 551,1032 L 551,1034 L 553,1036 L 555,1036 L 556,1035 L 558,1037 L 556,1039 L 556,1040 L 554,1042 L 553,1042 L 552,1043 L 552,1044 L 553,1045 L 553,1046 L 552,1047 L 552,1050 L 553,1051 L 553,1055 L 556,1058 L 556,1060 L 557,1061 L 557,1062 L 558,1063 L 558,1066 L 559,1067 L 559,1069 L 561,1069 L 563,1067 L 566,1067 L 565,1066 L 566,1065 L 567,1065 L 567,1064 L 568,1063 L 569,1063 L 570,1062 L 571,1062 L 573,1060 L 574,1060 L 574,1058 L 576,1056 L 577,1056 L 578,1055 L 580,1055 L 580,1054 L 581,1053 L 580,1053 L 579,1052 L 582,1049 L 582,1048 L 584,1046 L 583,1045 L 583,1044 L 585,1042 L 585,1041 L 588,1038 L 588,1037 L 589,1036 L 589,1032 L 590,1031 L 590,1029 L 592,1027 L 593,1027 L 596,1024 L 598,1024 L 599,1023 L 600,1023 L 602,1021 L 603,1021 L 604,1020 L 605,1020 L 606,1019 L 607,1019 L 607,1018 L 609,1016 L 610,1016 L 611,1017 L 612,1017 L 615,1020 L 616,1020 L 616,1019 L 617,1018 L 618,1019 L 619,1018 L 619,1017 L 618,1016 L 617,1016 L 616,1015 L 614,1015 L 613,1014 L 613,1007 L 615,1005 L 616,1005 L 617,1004 L 618,1004 L 619,1003 L 620,1003 L 622,1001 L 622,1000 L 623,999 L 623,998 L 624,997 L 624,996 L 625,995 L 625,993 L 630,988 L 631,988 L 632,987 L 632,986 L 631,986 L 630,985 L 629,985 L 628,984 L 628,983 Z" fill="none" stroke="black" stroke-width="1"/>
</svg>