<svg xmlns="http://www.w3.org/2000/svg" width="762" height="285">
  <path d="M 309,148 L 307,150 L 306,150 L 305,151 L 302,151 L 302,157 L 301,158 L 301,159 L 299,161 L 299,162 L 295,166 L 295,167 L 294,168 L 294,169 L 290,173 L 290,174 L 288,176 L 287,176 L 285,178 L 284,178 L 283,179 L 281,179 L 279,181 L 279,183 L 280,184 L 280,185 L 282,185 L 283,186 L 283,187 L 301,187 L 301,186 L 302,185 L 305,185 L 305,180 L 306,179 L 306,178 L 307,177 L 307,172 L 306,171 L 307,170 L 307,169 L 308,168 L 308,164 L 309,163 L 309,160 L 310,159 L 311,159 L 311,158 L 313,156 L 313,155 L 314,154 L 314,148 Z" fill="none" stroke="black" stroke-width="1"/>
</svg>