<svg xmlns="http://www.w3.org/2000/svg" width="587" height="399">
  <path d="M 147,55 L 147,57 Z" fill="none" stroke="black" stroke-width="1"/>
  <path d="M 151,0 L 151,2 L 149,4 L 149,5 L 148,6 L 148,9 L 147,10 L 147,12 L 146,13 L 145,13 L 144,14 L 142,14 L 142,15 L 140,17 L 140,19 L 139,20 L 139,26 L 138,27 L 138,30 L 137,31 L 137,36 L 136,37 L 137,37 L 137,34 L 139,32 L 141,34 L 141,35 L 142,36 L 142,37 L 143,38 L 143,39 L 144,40 L 144,41 L 144,40 L 145,39 L 146,39 L 147,38 L 147,36 L 149,34 L 149,33 L 150,32 L 150,31 L 154,27 L 154,26 L 157,23 L 157,21 L 158,20 L 158,19 L 159,18 L 159,5 L 157,3 L 156,3 L 155,2 L 155,1 L 154,1 L 153,0 Z" fill="none" stroke="black" stroke-width="1"/>
</svg>