<svg xmlns="http://www.w3.org/2000/svg" width="587" height="399">
  <path d="M 152,76 L 153,77 L 153,92 L 152,93 L 152,95 L 151,96 L 151,98 L 150,99 L 150,100 L 148,102 L 148,105 L 150,107 L 150,109 L 152,109 L 153,108 L 158,108 L 159,109 L 161,109 L 161,108 L 162,107 L 162,105 L 163,104 L 163,103 L 164,102 L 164,101 L 165,100 L 166,100 L 166,94 L 167,93 L 167,91 L 168,90 L 168,88 L 170,86 L 171,86 L 172,87 L 173,87 L 172,86 L 171,86 L 168,83 L 166,83 L 165,82 L 165,81 L 164,80 L 163,80 L 162,79 L 161,79 L 160,78 L 159,78 L 158,77 L 156,77 L 155,76 Z" fill="none" stroke="black" stroke-width="1"/>
</svg>