<svg xmlns="http://www.w3.org/2000/svg" width="587" height="399">
  <path d="M 147,105 L 147,109 L 146,110 L 146,111 L 145,112 L 145,122 L 144,123 L 144,124 L 142,126 L 142,127 L 141,128 L 141,129 L 139,131 L 139,132 L 135,136 L 134,136 L 133,137 L 132,137 L 131,138 L 130,138 L 131,138 L 132,137 L 133,138 L 135,138 L 136,139 L 136,141 L 137,142 L 138,142 L 139,143 L 139,144 L 142,144 L 145,141 L 149,141 L 151,139 L 151,137 L 152,136 L 153,136 L 154,135 L 157,135 L 157,134 L 158,133 L 158,130 L 159,129 L 159,128 L 160,127 L 160,126 L 161,125 L 161,124 L 162,123 L 162,122 L 166,118 L 168,118 L 172,114 L 172,109 L 169,106 L 168,107 L 165,107 L 164,108 L 162,108 L 162,109 L 161,110 L 159,110 L 158,109 L 153,109 L 152,110 L 150,110 L 149,109 L 149,107 Z" fill="none" stroke="black" stroke-width="1"/>
</svg>