<svg xmlns="http://www.w3.org/2000/svg" width="587" height="399">
  <path d="M 151,196 L 150,197 L 151,198 L 152,197 L 152,196 Z" fill="none" stroke="black" stroke-width="1"/>
  <path d="M 158,194 L 157,195 L 158,195 Z" fill="none" stroke="black" stroke-width="1"/>
  <path d="M 161,189 L 162,189 Z" fill="none" stroke="black" stroke-width="1"/>
  <path d="M 154,189 L 153,190 L 153,191 L 154,191 Z" fill="none" stroke="black" stroke-width="1"/>
  <path d="M 149,189 L 148,190 L 147,190 L 149,190 Z" fill="none" stroke="black" stroke-width="1"/>
  <path d="M 169,163 L 168,164 L 167,164 L 166,165 L 163,165 L 163,169 L 161,171 L 161,173 L 160,174 L 154,174 L 153,173 L 151,173 L 150,174 L 146,174 L 145,173 L 144,173 L 143,174 L 142,174 L 141,175 L 142,176 L 143,176 L 144,177 L 145,177 L 146,178 L 146,179 L 147,179 L 149,177 L 150,177 L 151,176 L 152,177 L 152,178 L 151,179 L 150,179 L 148,181 L 148,182 L 149,182 L 150,183 L 152,183 L 153,184 L 152,185 L 151,185 L 152,186 L 153,185 L 153,183 L 155,181 L 156,181 L 157,182 L 155,184 L 155,186 L 156,185 L 158,185 L 159,184 L 160,184 L 162,182 L 164,182 L 165,183 L 166,182 L 168,182 L 169,183 L 169,185 L 170,186 L 169,187 L 168,187 L 167,186 L 167,184 L 166,185 L 164,185 L 163,184 L 161,186 L 161,187 L 168,187 L 169,188 L 169,189 L 168,190 L 167,189 L 164,189 L 164,190 L 163,191 L 162,191 L 162,192 L 163,191 L 164,192 L 164,193 L 163,194 L 163,195 L 164,196 L 166,196 L 167,195 L 168,195 L 169,196 L 167,198 L 168,199 L 168,200 L 169,201 L 170,200 L 170,199 L 171,198 L 172,199 L 172,201 L 173,201 L 174,202 L 174,203 L 175,202 L 175,201 L 177,199 L 177,198 L 181,194 L 182,194 L 183,193 L 183,192 L 184,191 L 184,188 L 185,187 L 185,185 L 186,184 L 186,182 L 187,181 L 187,179 L 184,176 L 184,175 L 183,174 L 183,170 L 182,169 L 182,168 L 181,168 L 180,167 L 179,167 L 178,166 L 178,164 L 176,164 L 175,163 Z" fill="none" stroke="black" stroke-width="1"/>
</svg>