<svg xmlns="http://www.w3.org/2000/svg" width="587" height="399">
  <path d="M 172,115 L 168,119 L 166,119 L 163,122 L 163,123 L 162,124 L 162,125 L 161,126 L 161,127 L 160,128 L 160,129 L 159,130 L 159,133 L 158,134 L 158,135 L 157,136 L 154,136 L 153,137 L 152,137 L 152,142 L 153,143 L 153,144 L 154,145 L 156,145 L 157,146 L 160,146 L 162,148 L 166,148 L 167,149 L 170,149 L 171,150 L 172,150 L 174,152 L 175,152 L 176,153 L 178,153 L 179,154 L 180,154 L 182,156 L 182,157 L 183,158 L 184,158 L 187,155 L 187,153 L 188,152 L 188,149 L 187,148 L 187,147 L 186,146 L 186,145 L 189,142 L 187,140 L 187,134 L 186,133 L 186,132 L 187,131 L 187,130 L 188,129 L 189,129 L 189,125 L 187,123 L 187,122 L 186,122 L 185,121 L 185,120 L 184,119 L 183,119 L 181,117 L 177,117 L 175,115 Z" fill="none" stroke="black" stroke-width="1"/>
</svg>