<svg xmlns="http://www.w3.org/2000/svg" width="587" height="399">
  <path d="M 227,181 L 226,182 L 225,182 L 223,184 L 222,184 L 221,185 L 220,184 L 214,184 L 212,182 L 211,183 L 209,183 L 207,185 L 201,185 L 200,186 L 199,186 L 199,187 L 197,189 L 197,192 L 196,193 L 194,193 L 195,194 L 196,194 L 199,197 L 199,198 L 201,200 L 201,201 L 206,206 L 207,206 L 208,207 L 209,207 L 212,210 L 213,210 L 215,212 L 218,212 L 219,213 L 219,214 L 223,218 L 223,219 L 224,220 L 225,220 L 226,219 L 227,219 L 228,218 L 230,220 L 233,220 L 233,219 L 234,218 L 234,216 L 233,215 L 233,214 L 232,213 L 232,211 L 231,210 L 231,204 L 230,203 L 230,198 L 236,192 L 237,192 L 238,191 L 238,190 L 239,189 L 241,189 L 241,188 L 240,187 L 240,186 L 239,185 L 239,182 L 237,182 L 236,181 L 235,182 L 234,182 L 233,181 Z" fill="none" stroke="black" stroke-width="1"/>
</svg>