<svg xmlns="http://www.w3.org/2000/svg" width="587" height="399">
  <path d="M 208,224 L 208,226 L 203,231 L 196,231 L 197,231 L 198,232 L 197,233 L 197,237 L 199,237 L 200,238 L 199,239 L 199,240 L 198,241 L 197,240 L 197,239 L 196,239 L 196,240 L 197,241 L 197,242 L 198,243 L 199,243 L 200,242 L 200,241 L 201,240 L 202,241 L 202,243 L 201,244 L 202,245 L 202,247 L 201,248 L 204,251 L 206,251 L 207,252 L 206,253 L 202,253 L 203,254 L 205,254 L 206,255 L 208,253 L 211,253 L 212,252 L 213,253 L 213,254 L 212,255 L 209,255 L 208,256 L 209,256 L 210,257 L 211,257 L 212,258 L 214,258 L 215,259 L 216,259 L 217,260 L 219,260 L 221,262 L 222,262 L 224,264 L 225,264 L 225,263 L 227,261 L 227,260 L 231,256 L 231,255 L 232,254 L 227,254 L 226,253 L 225,253 L 224,252 L 223,252 L 222,251 L 221,251 L 217,247 L 216,247 L 215,246 L 215,241 L 213,239 L 212,239 L 209,236 L 209,229 L 211,227 L 210,226 L 210,225 L 209,224 Z" fill="none" stroke="black" stroke-width="1"/>
</svg>