<svg xmlns="http://www.w3.org/2000/svg" width="587" height="399">
  <path d="M 256,278 L 256,279 L 255,280 L 255,283 L 254,284 L 254,285 L 253,286 L 255,288 L 255,289 L 257,291 L 258,291 L 260,293 L 261,293 L 262,294 L 263,294 L 265,296 L 266,296 L 267,297 L 268,297 L 269,298 L 270,298 L 271,299 L 272,299 L 274,301 L 277,301 L 278,302 L 279,302 L 280,303 L 281,303 L 283,305 L 285,305 L 285,303 L 284,302 L 284,299 L 283,298 L 283,297 L 282,296 L 282,294 L 283,293 L 283,292 L 281,290 L 281,288 L 280,287 L 278,287 L 276,285 L 276,283 L 275,282 L 272,282 L 271,281 L 268,281 L 267,282 L 263,282 L 259,278 Z" fill="none" stroke="black" stroke-width="1"/>
</svg>