<svg xmlns="http://www.w3.org/2000/svg" width="446" height="193">
  <path d="M 62,58 L 60,60 L 58,60 L 56,62 L 56,63 L 52,67 L 49,67 L 49,69 L 48,70 L 48,74 L 47,75 L 48,75 L 53,80 L 53,87 L 54,88 L 54,89 L 53,90 L 53,91 L 50,94 L 50,95 L 51,96 L 57,96 L 58,97 L 59,96 L 60,96 L 62,94 L 63,94 L 64,93 L 70,93 L 71,94 L 72,94 L 73,93 L 73,89 L 74,88 L 74,87 L 77,84 L 77,78 L 78,77 L 78,76 L 81,73 L 83,73 L 84,72 L 84,71 L 83,70 L 79,70 L 78,69 L 78,68 L 74,68 L 73,67 L 72,67 L 71,66 L 70,66 L 69,65 L 68,65 L 65,62 L 65,61 Z" fill="none" stroke="black" stroke-width="1"/>
</svg>