<svg xmlns="http://www.w3.org/2000/svg" width="446" height="193">
  <path d="M 76,103 L 76,104 L 74,106 L 73,106 L 68,111 L 68,116 L 69,117 L 69,123 L 70,124 L 70,126 L 71,127 L 71,128 L 72,129 L 72,131 L 71,132 L 71,133 L 70,134 L 74,134 L 75,135 L 76,135 L 77,136 L 78,136 L 79,137 L 80,136 L 81,136 L 83,134 L 90,134 L 93,137 L 96,137 L 97,138 L 99,138 L 100,137 L 102,137 L 103,136 L 104,137 L 105,137 L 105,136 L 106,135 L 106,134 L 107,133 L 107,129 L 106,129 L 105,128 L 101,128 L 100,127 L 99,127 L 98,126 L 97,126 L 95,124 L 94,124 L 93,123 L 93,119 L 96,116 L 96,114 L 95,113 L 90,113 L 89,112 L 89,109 L 88,108 L 87,108 L 86,107 L 82,107 L 81,106 L 80,106 L 79,105 L 78,105 Z" fill="none" stroke="black" stroke-width="1"/>
</svg>