<svg xmlns="http://www.w3.org/2000/svg" width="446" height="193">
  <path d="M 142,106 L 139,109 L 138,109 L 138,110 L 137,111 L 133,111 L 132,112 L 130,112 L 129,113 L 126,113 L 125,112 L 124,112 L 122,114 L 118,114 L 117,115 L 115,115 L 109,121 L 109,123 L 107,125 L 108,126 L 108,132 L 109,133 L 110,133 L 111,132 L 114,132 L 115,131 L 121,131 L 122,132 L 123,132 L 125,134 L 126,134 L 133,141 L 134,141 L 136,139 L 138,139 L 139,138 L 140,138 L 142,136 L 142,135 L 143,134 L 143,131 L 144,130 L 144,129 L 147,126 L 148,126 L 149,125 L 149,122 L 148,122 L 146,120 L 146,116 L 147,115 L 147,114 L 146,113 L 146,109 L 145,109 Z" fill="none" stroke="black" stroke-width="1"/>
</svg>