<svg xmlns="http://www.w3.org/2000/svg" width="446" height="193">
  <path d="M 126,49 L 125,50 L 125,51 L 124,52 L 123,52 L 123,53 L 122,54 L 122,56 L 121,57 L 121,63 L 120,64 L 120,65 L 119,66 L 119,67 L 117,69 L 117,73 L 115,75 L 115,76 L 114,77 L 114,79 L 116,81 L 118,81 L 119,82 L 121,82 L 121,80 L 126,75 L 127,75 L 128,74 L 130,74 L 131,73 L 142,73 L 143,74 L 145,74 L 146,73 L 150,73 L 151,72 L 155,72 L 155,67 L 154,66 L 153,66 L 151,64 L 147,64 L 146,63 L 145,63 L 144,62 L 143,62 L 136,55 L 136,49 L 135,49 L 134,50 L 129,50 L 128,49 Z" fill="none" stroke="black" stroke-width="1"/>
</svg>