<svg xmlns="http://www.w3.org/2000/svg" width="446" height="193">
  <path d="M 113,80 L 112,81 L 111,81 L 111,82 L 110,83 L 108,83 L 109,84 L 109,89 L 108,90 L 109,91 L 109,94 L 108,95 L 108,96 L 107,97 L 105,97 L 104,98 L 103,98 L 102,99 L 102,109 L 101,110 L 101,111 L 99,113 L 98,113 L 97,114 L 97,116 L 94,119 L 94,123 L 95,123 L 97,125 L 98,125 L 99,126 L 100,126 L 101,127 L 105,127 L 106,128 L 107,128 L 107,126 L 106,125 L 108,123 L 108,121 L 115,114 L 117,114 L 118,113 L 122,113 L 123,112 L 122,111 L 122,104 L 125,101 L 125,100 L 126,99 L 126,92 L 127,91 L 127,90 L 126,90 L 125,89 L 125,85 L 123,85 L 121,83 L 119,83 L 118,82 L 116,82 L 114,80 Z" fill="none" stroke="black" stroke-width="1"/>
</svg>