<svg xmlns="http://www.w3.org/2000/svg" width="446" height="193">
  <path d="M 157,119 L 156,120 L 155,120 L 153,122 L 150,122 L 150,125 L 148,127 L 147,127 L 145,129 L 145,130 L 144,131 L 144,134 L 143,135 L 143,136 L 141,138 L 145,142 L 145,144 L 148,147 L 149,147 L 150,148 L 150,149 L 151,150 L 151,151 L 152,151 L 153,152 L 154,152 L 155,153 L 156,153 L 158,155 L 158,156 L 162,156 L 163,155 L 163,154 L 164,153 L 165,153 L 166,152 L 173,152 L 174,153 L 181,153 L 183,151 L 184,151 L 189,146 L 189,145 L 190,144 L 189,143 L 189,141 L 190,140 L 190,133 L 187,133 L 186,134 L 184,134 L 183,135 L 182,135 L 181,134 L 179,134 L 177,132 L 177,129 L 178,128 L 178,125 L 176,125 L 174,123 L 173,123 L 171,121 L 170,121 L 169,120 L 168,121 L 162,121 L 161,120 L 159,120 L 158,119 Z" fill="none" stroke="black" stroke-width="1"/>
</svg>