<svg xmlns="http://www.w3.org/2000/svg" width="587" height="399">
  <path d="M 334,291 L 335,292 L 339,292 L 340,291 Z" fill="none" stroke="black" stroke-width="1"/>
  <path d="M 313,278 L 312,279 L 311,279 L 307,283 L 306,283 L 306,284 L 303,287 L 302,287 L 299,290 L 298,290 L 296,292 L 295,292 L 294,293 L 285,293 L 284,292 L 284,293 L 283,294 L 283,296 L 284,297 L 284,298 L 285,299 L 285,302 L 286,303 L 286,305 L 287,305 L 290,302 L 292,302 L 293,301 L 294,301 L 296,299 L 299,299 L 300,298 L 301,298 L 302,297 L 304,297 L 305,296 L 306,296 L 307,295 L 308,295 L 309,294 L 311,294 L 312,293 L 319,293 L 318,292 L 319,291 L 321,291 L 322,292 L 329,292 L 329,291 L 330,290 L 332,290 L 333,289 L 335,289 L 336,288 L 338,288 L 338,286 L 340,284 L 340,282 L 339,281 L 339,280 L 327,280 L 326,279 L 324,279 L 323,278 Z" fill="none" stroke="black" stroke-width="1"/>
</svg>