<svg xmlns="http://www.w3.org/2000/svg" width="690" height="339">
  <path d="M 96,0 L 96,1 L 94,3 L 92,3 L 91,4 L 90,4 L 89,5 L 88,5 L 87,6 L 86,6 L 85,7 L 84,7 L 82,9 L 81,9 L 80,10 L 77,10 L 76,11 L 75,10 L 65,10 L 64,11 L 60,11 L 60,12 L 63,15 L 63,17 L 64,17 L 71,24 L 71,25 L 72,26 L 72,27 L 83,38 L 83,39 L 87,43 L 87,44 L 90,47 L 90,48 L 92,50 L 92,51 L 93,52 L 93,53 L 94,54 L 94,56 L 96,58 L 96,61 L 97,62 L 97,69 L 96,70 L 96,72 L 95,73 L 95,82 L 99,82 L 100,83 L 102,83 L 103,84 L 104,84 L 105,85 L 106,85 L 110,89 L 111,89 L 113,91 L 114,91 L 122,99 L 122,100 L 123,101 L 124,101 L 126,103 L 129,103 L 130,102 L 130,101 L 128,99 L 128,98 L 127,97 L 127,94 L 128,93 L 129,93 L 129,89 L 128,88 L 128,85 L 127,84 L 127,83 L 126,82 L 126,81 L 125,80 L 125,77 L 124,76 L 124,75 L 123,74 L 123,66 L 122,65 L 122,54 L 121,53 L 121,52 L 120,51 L 120,49 L 119,48 L 119,44 L 118,43 L 118,40 L 117,39 L 117,22 L 118,21 L 118,19 L 119,18 L 119,16 L 120,15 L 120,14 L 121,13 L 121,8 L 122,7 L 122,5 L 121,4 L 119,4 L 118,3 L 113,3 L 112,2 L 109,2 L 108,1 L 104,1 L 103,0 Z" fill="none" stroke="black" stroke-width="1"/>
</svg>