<svg xmlns="http://www.w3.org/2000/svg" width="690" height="339">
  <path d="M 95,83 L 95,85 L 96,86 L 96,87 L 98,89 L 98,90 L 99,91 L 99,93 L 102,96 L 102,98 L 103,99 L 103,100 L 104,101 L 104,102 L 105,103 L 105,106 L 106,107 L 106,119 L 105,120 L 105,121 L 103,123 L 103,124 L 101,126 L 100,126 L 100,127 L 99,128 L 99,129 L 98,130 L 98,131 L 99,132 L 99,134 L 102,134 L 105,137 L 105,138 L 108,141 L 111,141 L 112,142 L 115,142 L 117,144 L 118,144 L 119,145 L 119,146 L 122,149 L 123,149 L 125,151 L 126,151 L 129,154 L 131,154 L 132,155 L 135,155 L 136,156 L 140,156 L 141,155 L 143,155 L 144,154 L 150,154 L 151,155 L 154,155 L 155,156 L 156,156 L 157,157 L 157,158 L 159,158 L 159,157 L 161,155 L 162,155 L 163,154 L 169,154 L 167,154 L 164,151 L 164,150 L 162,148 L 162,147 L 156,141 L 155,141 L 154,140 L 153,140 L 152,139 L 151,139 L 149,137 L 149,136 L 147,134 L 146,134 L 144,132 L 143,132 L 141,130 L 141,129 L 140,128 L 139,128 L 138,127 L 138,126 L 129,117 L 129,116 L 127,114 L 127,105 L 128,104 L 126,104 L 124,102 L 123,102 L 121,100 L 121,99 L 114,92 L 113,92 L 111,90 L 110,90 L 106,86 L 105,86 L 104,85 L 103,85 L 102,84 L 100,84 L 99,83 Z" fill="none" stroke="black" stroke-width="1"/>
</svg>