<svg xmlns="http://www.w3.org/2000/svg" width="690" height="339">
  <path d="M 97,135 L 97,137 L 96,138 L 96,141 L 97,142 L 97,145 L 98,146 L 98,148 L 99,149 L 101,149 L 102,150 L 102,152 L 106,156 L 106,157 L 107,158 L 107,159 L 108,160 L 108,165 L 109,166 L 109,167 L 110,168 L 112,168 L 113,169 L 113,172 L 111,174 L 111,175 L 110,176 L 110,177 L 111,178 L 113,178 L 114,179 L 122,179 L 123,180 L 124,180 L 126,182 L 126,183 L 127,182 L 128,182 L 129,181 L 132,181 L 133,182 L 135,182 L 136,183 L 137,183 L 138,184 L 142,184 L 143,185 L 150,185 L 151,184 L 152,184 L 153,183 L 160,183 L 161,184 L 162,184 L 162,183 L 165,180 L 165,179 L 164,178 L 164,177 L 165,176 L 165,170 L 162,167 L 160,167 L 159,166 L 158,166 L 155,163 L 155,160 L 156,159 L 156,157 L 155,157 L 154,156 L 151,156 L 150,155 L 144,155 L 143,156 L 141,156 L 140,157 L 136,157 L 135,156 L 132,156 L 131,155 L 129,155 L 126,152 L 125,152 L 123,150 L 122,150 L 118,146 L 118,145 L 117,145 L 115,143 L 112,143 L 111,142 L 108,142 L 104,138 L 104,137 L 102,135 Z" fill="none" stroke="black" stroke-width="1"/>
</svg>