<svg xmlns="http://www.w3.org/2000/svg" width="690" height="339">
  <path d="M 163,155 L 162,156 L 161,156 L 160,157 L 160,158 L 159,159 L 157,159 L 156,160 L 156,163 L 158,165 L 159,165 L 160,166 L 162,166 L 166,170 L 166,176 L 165,177 L 165,178 L 166,179 L 166,180 L 163,183 L 163,184 L 164,185 L 164,188 L 163,189 L 163,190 L 164,191 L 165,191 L 171,197 L 171,198 L 172,199 L 177,199 L 178,198 L 179,198 L 180,197 L 182,197 L 183,198 L 184,198 L 186,200 L 186,203 L 187,204 L 187,205 L 190,208 L 190,210 L 191,211 L 191,212 L 196,217 L 197,217 L 198,218 L 198,219 L 199,219 L 201,217 L 203,217 L 204,216 L 205,216 L 208,213 L 209,213 L 210,212 L 210,211 L 219,202 L 220,202 L 220,200 L 218,198 L 218,197 L 216,195 L 216,194 L 215,194 L 213,192 L 212,192 L 211,191 L 210,191 L 208,189 L 206,189 L 205,188 L 203,188 L 200,185 L 200,182 L 199,181 L 199,178 L 198,177 L 198,174 L 196,172 L 196,171 L 190,165 L 189,165 L 187,163 L 186,163 L 185,162 L 184,162 L 183,161 L 182,161 L 181,160 L 180,160 L 179,159 L 176,159 L 174,157 L 172,157 L 170,155 Z" fill="none" stroke="black" stroke-width="1"/>
</svg>