<svg xmlns="http://www.w3.org/2000/svg" width="446" height="193">
  <path d="M 149,33 L 146,36 L 145,36 L 144,37 L 144,39 L 143,40 L 143,42 L 142,43 L 142,44 L 141,45 L 141,46 L 139,48 L 138,48 L 137,49 L 137,55 L 143,61 L 144,61 L 145,62 L 146,62 L 147,63 L 151,63 L 153,65 L 154,65 L 155,66 L 158,66 L 159,65 L 161,65 L 160,64 L 160,63 L 161,62 L 161,60 L 163,58 L 163,57 L 164,56 L 164,54 L 167,51 L 167,50 L 166,49 L 166,46 L 167,45 L 167,42 L 168,41 L 167,40 L 167,39 L 166,38 L 166,36 L 165,37 L 162,37 L 160,35 L 157,35 L 156,34 L 155,34 L 154,33 Z" fill="none" stroke="black" stroke-width="1"/>
</svg>