<svg xmlns="http://www.w3.org/2000/svg" width="690" height="339">
  <path d="M 129,182 L 128,183 L 127,183 L 126,184 L 126,185 L 125,186 L 123,186 L 122,187 L 121,186 L 115,186 L 114,187 L 113,187 L 112,188 L 112,190 L 113,191 L 113,192 L 111,194 L 110,194 L 110,196 L 109,197 L 108,197 L 107,198 L 107,200 L 109,200 L 110,201 L 114,201 L 115,200 L 120,200 L 121,201 L 123,201 L 126,204 L 126,206 L 125,207 L 125,209 L 129,213 L 131,213 L 132,214 L 132,215 L 136,215 L 137,214 L 139,214 L 142,211 L 142,210 L 143,209 L 145,209 L 146,208 L 147,208 L 148,207 L 148,198 L 149,197 L 150,197 L 154,193 L 155,193 L 156,192 L 157,192 L 158,191 L 159,191 L 160,190 L 162,190 L 162,189 L 163,188 L 163,185 L 161,185 L 160,184 L 153,184 L 152,185 L 151,185 L 150,186 L 143,186 L 142,185 L 138,185 L 137,184 L 136,184 L 135,183 L 133,183 L 132,182 Z" fill="none" stroke="black" stroke-width="1"/>
</svg>