<svg xmlns="http://www.w3.org/2000/svg" width="690" height="339">
  <path d="M 186,204 L 185,205 L 183,205 L 179,209 L 179,212 L 177,214 L 177,215 L 176,216 L 175,216 L 174,217 L 173,217 L 172,218 L 171,218 L 172,218 L 173,219 L 171,221 L 171,222 L 170,223 L 170,225 L 171,225 L 172,226 L 172,228 L 174,230 L 174,231 L 175,232 L 175,233 L 178,236 L 180,236 L 181,235 L 181,234 L 183,232 L 189,232 L 190,231 L 194,231 L 198,227 L 200,227 L 200,223 L 198,221 L 198,220 L 197,219 L 197,218 L 196,218 L 190,212 L 190,211 L 189,210 L 189,208 L 186,205 Z" fill="none" stroke="black" stroke-width="1"/>
</svg>