<svg xmlns="http://www.w3.org/2000/svg" width="446" height="193">
  <path d="M 176,59 L 175,60 L 173,60 L 169,64 L 168,64 L 167,65 L 162,65 L 161,66 L 159,66 L 158,67 L 156,67 L 156,72 L 161,77 L 161,78 L 162,79 L 164,79 L 166,81 L 166,83 L 168,85 L 168,88 L 167,89 L 168,90 L 172,90 L 174,88 L 174,87 L 176,85 L 179,85 L 178,84 L 178,82 L 179,81 L 178,80 L 179,79 L 179,78 L 180,77 L 180,75 L 181,74 L 181,70 L 183,68 L 183,65 L 185,63 L 185,62 L 186,61 L 186,59 L 185,60 L 182,60 L 181,59 Z" fill="none" stroke="black" stroke-width="1"/>
</svg>