<svg xmlns="http://www.w3.org/2000/svg" width="446" height="193">
  <path d="M 202,61 L 192,71 L 191,71 L 189,69 L 187,69 L 186,68 L 184,68 L 182,70 L 182,74 L 181,75 L 181,77 L 180,78 L 180,79 L 179,80 L 180,81 L 179,82 L 179,84 L 181,86 L 181,87 L 187,93 L 189,93 L 190,92 L 191,93 L 197,93 L 198,92 L 199,92 L 199,91 L 200,90 L 201,90 L 201,89 L 202,88 L 200,86 L 200,85 L 203,82 L 204,82 L 206,80 L 220,80 L 221,79 L 221,77 L 223,75 L 223,72 L 221,70 L 220,70 L 218,72 L 217,72 L 215,74 L 213,74 L 212,73 L 211,73 L 209,71 L 209,68 L 207,66 L 207,65 L 203,61 Z" fill="none" stroke="black" stroke-width="1"/>
</svg>