<svg xmlns="http://www.w3.org/2000/svg" width="446" height="193">
  <path d="M 255,72 L 252,75 L 251,75 L 253,77 L 253,82 L 252,83 L 252,84 L 254,86 L 254,87 L 255,88 L 255,92 L 254,93 L 252,93 L 250,95 L 249,95 L 247,97 L 247,100 L 248,101 L 248,103 L 247,104 L 247,106 L 248,107 L 244,111 L 244,113 L 246,115 L 248,115 L 250,117 L 255,117 L 261,111 L 261,110 L 262,109 L 262,107 L 263,106 L 263,105 L 264,104 L 265,104 L 266,103 L 267,103 L 268,102 L 269,102 L 270,101 L 270,100 L 271,99 L 271,98 L 273,96 L 274,96 L 274,95 L 273,94 L 273,91 L 270,88 L 270,87 L 269,86 L 268,86 L 267,85 L 266,85 L 263,82 L 263,81 L 262,80 L 262,76 L 263,75 L 260,72 L 259,73 L 256,73 Z" fill="none" stroke="black" stroke-width="1"/>
</svg>