<svg xmlns="http://www.w3.org/2000/svg" width="446" height="193">
  <path d="M 221,80 L 220,81 L 206,81 L 204,83 L 203,83 L 201,85 L 201,86 L 203,88 L 202,89 L 202,90 L 201,91 L 200,91 L 200,92 L 199,93 L 198,93 L 197,94 L 196,94 L 196,95 L 198,97 L 198,99 L 201,102 L 201,104 L 200,105 L 200,107 L 201,108 L 201,109 L 203,111 L 203,112 L 204,112 L 211,105 L 214,105 L 215,104 L 215,103 L 216,102 L 218,102 L 219,101 L 222,101 L 223,100 L 228,100 L 229,101 L 230,101 L 231,100 L 232,100 L 233,99 L 233,98 L 234,97 L 234,93 L 232,91 L 231,91 L 230,90 L 229,90 L 227,88 L 227,87 L 226,86 L 226,85 L 225,84 L 225,83 L 224,82 L 224,81 L 223,81 L 222,80 Z" fill="none" stroke="black" stroke-width="1"/>
</svg>