<svg xmlns="http://www.w3.org/2000/svg" width="446" height="193">
  <path d="M 225,147 L 224,148 L 220,148 L 219,149 L 218,149 L 217,150 L 216,150 L 214,152 L 214,158 L 213,159 L 213,160 L 212,161 L 209,161 L 207,163 L 205,163 L 205,166 L 208,169 L 208,170 L 209,170 L 210,171 L 212,171 L 213,172 L 213,173 L 214,174 L 218,174 L 219,175 L 219,177 L 220,178 L 222,178 L 224,180 L 224,181 L 227,181 L 229,183 L 229,185 L 230,186 L 230,187 L 229,188 L 229,190 L 230,190 L 231,191 L 235,191 L 240,186 L 241,186 L 242,187 L 242,188 L 243,188 L 243,185 L 244,184 L 244,182 L 246,180 L 246,177 L 245,176 L 245,174 L 246,173 L 246,165 L 245,164 L 245,158 L 242,161 L 241,161 L 239,159 L 239,157 L 238,156 L 238,155 L 236,155 L 232,151 L 231,151 L 229,149 L 229,148 L 228,148 L 227,147 Z" fill="none" stroke="black" stroke-width="1"/>
</svg>