<svg xmlns="http://www.w3.org/2000/svg" width="587" height="399">
  <path d="M 407,272 L 407,275 L 406,276 L 405,276 L 404,275 L 404,274 L 403,274 L 398,279 L 394,279 L 393,278 L 389,278 L 386,281 L 385,281 L 384,282 L 382,282 L 381,283 L 380,283 L 378,285 L 377,285 L 377,287 L 376,288 L 376,289 L 378,291 L 378,293 L 377,294 L 378,294 L 379,293 L 383,293 L 385,291 L 390,291 L 392,289 L 394,289 L 397,286 L 400,286 L 401,285 L 402,285 L 404,283 L 405,283 L 406,282 L 418,282 L 418,280 L 419,279 L 418,279 L 417,278 L 416,278 L 414,276 L 413,276 L 412,275 L 411,275 L 409,273 L 409,272 Z" fill="none" stroke="black" stroke-width="1"/>
</svg>