<svg xmlns="http://www.w3.org/2000/svg" width="446" height="193">
  <path d="M 260,145 L 254,151 L 252,151 L 249,154 L 249,155 L 248,156 L 247,156 L 247,157 L 246,158 L 246,164 L 247,165 L 247,169 L 249,171 L 250,171 L 251,172 L 252,172 L 254,174 L 256,174 L 257,175 L 258,175 L 259,176 L 259,177 L 261,177 L 262,178 L 263,178 L 264,179 L 275,179 L 276,178 L 277,178 L 278,179 L 280,179 L 279,178 L 279,175 L 280,174 L 280,173 L 279,173 L 278,172 L 278,171 L 271,164 L 271,163 L 270,162 L 270,160 L 271,159 L 268,156 L 268,155 L 267,154 L 268,153 L 268,151 L 269,150 L 267,148 L 267,146 L 266,145 Z" fill="none" stroke="black" stroke-width="1"/>
</svg>