<svg xmlns="http://www.w3.org/2000/svg" width="587" height="399">
  <path d="M 410,257 L 410,260 L 409,261 L 409,263 L 410,264 L 410,267 L 408,269 L 408,271 L 409,271 L 410,272 L 410,273 L 411,274 L 412,274 L 413,275 L 414,275 L 416,277 L 417,277 L 418,278 L 420,278 L 421,277 L 422,277 L 423,276 L 426,276 L 427,275 L 430,275 L 431,274 L 435,274 L 436,273 L 441,273 L 441,268 L 442,267 L 441,267 L 440,266 L 439,266 L 438,267 L 427,267 L 426,266 L 425,266 L 424,265 L 422,265 L 421,264 L 421,263 L 420,263 L 419,262 L 417,262 L 415,260 L 414,260 L 413,259 L 412,259 Z" fill="none" stroke="black" stroke-width="1"/>
</svg>