<svg xmlns="http://www.w3.org/2000/svg" width="690" height="339">
  <path d="M 206,253 L 206,260 L 205,261 L 205,263 L 207,265 L 207,266 L 206,267 L 205,267 L 205,268 L 202,271 L 202,272 L 201,273 L 201,277 L 202,278 L 202,279 L 204,281 L 205,281 L 206,282 L 207,282 L 209,284 L 209,285 L 212,288 L 212,291 L 213,292 L 213,293 L 215,295 L 216,295 L 217,296 L 219,296 L 220,295 L 221,296 L 224,296 L 225,297 L 228,297 L 229,298 L 235,298 L 234,298 L 233,297 L 233,296 L 234,295 L 233,295 L 232,294 L 231,294 L 230,293 L 229,293 L 224,288 L 224,287 L 222,285 L 222,283 L 223,282 L 223,278 L 222,277 L 221,277 L 218,274 L 218,270 L 219,269 L 219,265 L 220,264 L 220,263 L 221,262 L 221,261 L 220,261 L 217,258 L 214,258 L 213,257 L 212,257 L 211,256 L 211,255 L 209,253 Z" fill="none" stroke="black" stroke-width="1"/>
</svg>