<svg xmlns="http://www.w3.org/2000/svg" width="446" height="193">
  <path d="M 273,97 L 272,98 L 272,99 L 271,100 L 271,101 L 269,103 L 268,103 L 267,104 L 266,104 L 265,105 L 264,105 L 264,106 L 263,107 L 263,109 L 262,110 L 262,111 L 261,112 L 261,113 L 262,113 L 263,114 L 263,115 L 265,117 L 266,117 L 267,118 L 268,118 L 269,119 L 271,119 L 272,120 L 274,120 L 275,121 L 276,121 L 280,125 L 280,126 L 283,123 L 284,123 L 285,122 L 286,122 L 288,120 L 289,120 L 290,119 L 291,119 L 292,118 L 300,118 L 301,119 L 302,119 L 303,120 L 304,120 L 307,123 L 309,123 L 310,122 L 310,119 L 312,117 L 312,116 L 313,115 L 313,113 L 310,110 L 308,110 L 306,108 L 305,108 L 304,107 L 304,106 L 303,105 L 302,105 L 300,103 L 299,103 L 298,102 L 291,102 L 290,101 L 287,101 L 286,100 L 283,100 L 282,99 L 281,100 L 279,100 L 278,99 L 277,99 L 275,97 Z" fill="none" stroke="black" stroke-width="1"/>
</svg>