<svg xmlns="http://www.w3.org/2000/svg" width="446" height="193">
  <path d="M 310,137 L 308,139 L 306,139 L 305,140 L 301,140 L 300,141 L 296,141 L 295,140 L 294,140 L 293,141 L 292,141 L 291,142 L 290,142 L 288,144 L 293,149 L 293,150 L 294,151 L 294,156 L 296,158 L 296,160 L 297,161 L 297,162 L 295,164 L 295,165 L 293,167 L 293,169 L 292,170 L 292,171 L 291,172 L 291,175 L 298,175 L 299,174 L 300,174 L 301,173 L 302,173 L 303,172 L 303,170 L 304,169 L 305,169 L 307,167 L 308,167 L 309,166 L 311,166 L 311,165 L 312,164 L 314,164 L 315,163 L 316,163 L 320,159 L 320,155 L 319,154 L 319,153 L 318,153 L 317,152 L 316,152 L 313,149 L 313,145 L 316,142 L 315,142 L 311,138 L 311,137 Z" fill="none" stroke="black" stroke-width="1"/>
</svg>