<svg xmlns="http://www.w3.org/2000/svg" width="446" height="193">
  <path d="M 322,128 L 320,130 L 313,130 L 312,129 L 311,129 L 311,132 L 312,133 L 312,135 L 311,136 L 312,137 L 312,138 L 315,141 L 321,141 L 322,142 L 322,143 L 323,144 L 324,144 L 325,145 L 328,145 L 329,146 L 332,146 L 333,147 L 334,147 L 335,148 L 337,148 L 341,152 L 341,153 L 344,156 L 346,156 L 346,154 L 347,153 L 347,151 L 350,148 L 350,147 L 351,146 L 351,144 L 352,143 L 352,139 L 349,136 L 337,136 L 336,135 L 336,134 L 335,133 L 335,132 L 332,129 L 331,129 L 330,128 Z" fill="none" stroke="black" stroke-width="1"/>
</svg>