<svg xmlns="http://www.w3.org/2000/svg" width="446" height="193">
  <path d="M 317,142 L 314,145 L 314,149 L 316,151 L 317,151 L 318,152 L 319,152 L 320,153 L 320,154 L 321,155 L 321,159 L 316,164 L 315,164 L 314,165 L 312,165 L 312,166 L 311,167 L 309,167 L 308,168 L 307,168 L 305,170 L 304,170 L 304,172 L 310,172 L 311,173 L 314,173 L 315,172 L 318,172 L 319,173 L 320,172 L 321,172 L 322,171 L 329,171 L 332,168 L 333,168 L 333,167 L 338,162 L 339,162 L 340,161 L 343,161 L 344,162 L 344,163 L 344,157 L 340,153 L 340,152 L 337,149 L 335,149 L 334,148 L 333,148 L 332,147 L 329,147 L 328,146 L 325,146 L 324,145 L 323,145 L 321,143 L 321,142 Z" fill="none" stroke="black" stroke-width="1"/>
</svg>