<svg xmlns="http://www.w3.org/2000/svg" width="587" height="399">
  <path d="M 483,260 L 483,262 L 482,263 L 481,263 L 480,264 L 481,265 L 481,266 L 480,267 L 480,268 L 474,274 L 475,275 L 476,275 L 482,281 L 482,282 L 483,283 L 483,284 L 484,285 L 484,286 L 486,288 L 487,288 L 488,287 L 488,286 L 487,286 L 486,285 L 487,284 L 493,284 L 496,281 L 496,277 L 494,275 L 494,273 L 493,272 L 492,272 L 490,270 L 490,269 L 489,268 L 489,264 L 488,263 L 487,263 L 486,262 L 486,261 L 485,260 Z" fill="none" stroke="black" stroke-width="1"/>
</svg>