<svg xmlns="http://www.w3.org/2000/svg" width="446" height="193">
  <path d="M 341,47 L 340,48 L 340,50 L 339,51 L 339,52 L 336,55 L 329,55 L 328,56 L 325,56 L 323,58 L 322,58 L 321,57 L 320,58 L 319,58 L 318,59 L 317,59 L 315,61 L 314,61 L 313,62 L 312,62 L 312,63 L 311,64 L 311,66 L 312,67 L 312,68 L 319,68 L 320,69 L 321,69 L 324,72 L 324,73 L 326,75 L 326,80 L 329,80 L 334,85 L 336,85 L 337,86 L 337,87 L 338,87 L 340,89 L 341,89 L 343,91 L 345,91 L 345,88 L 346,87 L 347,87 L 347,82 L 346,81 L 346,80 L 345,79 L 345,78 L 344,77 L 344,75 L 346,73 L 347,73 L 348,72 L 349,72 L 349,70 L 348,69 L 349,68 L 350,68 L 351,67 L 353,67 L 353,63 L 351,61 L 351,59 L 350,59 L 349,58 L 349,56 L 350,55 L 351,55 L 351,50 L 350,49 L 346,49 L 345,48 L 342,48 Z" fill="none" stroke="black" stroke-width="1"/>
</svg>