<svg xmlns="http://www.w3.org/2000/svg" width="446" height="193">
  <path d="M 351,68 L 350,69 L 349,69 L 350,70 L 350,72 L 349,73 L 348,73 L 347,74 L 346,74 L 345,75 L 345,77 L 346,78 L 346,79 L 347,80 L 347,81 L 348,82 L 348,87 L 347,88 L 346,88 L 346,91 L 347,92 L 348,92 L 350,94 L 350,95 L 349,96 L 349,97 L 348,98 L 347,98 L 345,100 L 344,100 L 343,101 L 343,107 L 344,108 L 346,108 L 347,109 L 349,109 L 350,108 L 351,108 L 351,107 L 352,106 L 352,105 L 354,103 L 359,103 L 361,101 L 361,99 L 360,98 L 361,97 L 361,95 L 362,94 L 362,92 L 360,90 L 360,89 L 361,88 L 361,86 L 362,85 L 363,85 L 364,84 L 364,83 L 365,82 L 366,82 L 366,81 L 367,80 L 367,79 L 366,78 L 366,77 L 365,76 L 365,75 L 364,74 L 364,73 L 362,73 L 361,72 L 360,72 L 359,71 L 358,71 L 357,70 L 356,70 L 354,68 Z" fill="none" stroke="black" stroke-width="1"/>
</svg>