<svg xmlns="http://www.w3.org/2000/svg" width="446" height="193">
  <path d="M 325,80 L 323,82 L 322,82 L 320,84 L 318,84 L 315,87 L 315,91 L 316,92 L 316,93 L 318,95 L 318,96 L 319,97 L 319,98 L 320,99 L 320,100 L 321,101 L 322,101 L 327,106 L 327,107 L 333,113 L 334,113 L 335,114 L 336,114 L 339,117 L 340,116 L 340,115 L 341,114 L 345,114 L 347,112 L 347,110 L 346,109 L 344,109 L 342,107 L 342,101 L 344,99 L 345,99 L 347,97 L 348,97 L 348,96 L 349,95 L 349,94 L 348,93 L 347,93 L 346,92 L 343,92 L 341,90 L 340,90 L 338,88 L 337,88 L 336,87 L 336,86 L 334,86 L 329,81 L 326,81 Z" fill="none" stroke="black" stroke-width="1"/>
</svg>