<svg xmlns="http://www.w3.org/2000/svg" width="587" height="399">
  <path d="M 518,277 L 517,278 L 516,278 L 515,279 L 514,279 L 513,280 L 509,280 L 508,281 L 506,281 L 506,285 L 507,286 L 507,287 L 506,288 L 506,289 L 505,290 L 505,291 L 506,292 L 506,293 L 509,296 L 509,298 L 510,299 L 510,301 L 511,302 L 511,304 L 512,304 L 511,303 L 511,301 L 510,300 L 511,299 L 512,299 L 513,300 L 513,302 L 515,302 L 516,303 L 514,305 L 517,305 L 517,303 L 516,303 L 513,300 L 514,299 L 515,299 L 517,301 L 518,301 L 519,302 L 520,301 L 521,302 L 527,302 L 527,299 L 526,298 L 526,295 L 525,294 L 525,292 L 524,291 L 524,290 L 522,288 L 522,287 L 521,286 L 521,280 L 522,279 L 522,278 L 521,277 Z" fill="none" stroke="black" stroke-width="1"/>
</svg>