<svg xmlns="http://www.w3.org/2000/svg" width="446" height="193">
  <path d="M 345,160 L 345,163 L 344,164 L 344,170 L 345,171 L 345,177 L 346,178 L 346,181 L 347,182 L 347,183 L 348,184 L 348,191 L 347,192 L 350,192 L 351,191 L 352,191 L 353,190 L 354,190 L 355,189 L 357,189 L 357,186 L 358,185 L 359,185 L 359,184 L 360,183 L 361,183 L 361,177 L 362,176 L 362,175 L 364,173 L 364,172 L 365,171 L 365,170 L 367,168 L 367,167 L 368,166 L 369,166 L 370,165 L 370,161 L 365,161 L 364,162 L 363,162 L 362,163 L 361,163 L 360,162 L 359,162 L 358,161 L 357,161 L 356,160 Z" fill="none" stroke="black" stroke-width="1"/>
</svg>