<svg xmlns="http://www.w3.org/2000/svg" width="446" height="193">
  <path d="M 367,131 L 367,132 L 364,135 L 363,135 L 361,137 L 360,137 L 359,138 L 358,137 L 353,137 L 353,143 L 352,144 L 352,146 L 351,147 L 351,148 L 348,151 L 348,153 L 347,154 L 347,156 L 346,157 L 345,157 L 345,159 L 356,159 L 357,160 L 358,160 L 359,161 L 360,161 L 361,162 L 362,162 L 363,161 L 364,161 L 365,160 L 370,160 L 371,161 L 371,163 L 372,162 L 373,162 L 374,161 L 375,161 L 376,160 L 377,160 L 378,159 L 379,159 L 380,158 L 381,158 L 381,154 L 382,153 L 382,152 L 383,151 L 383,146 L 381,146 L 379,144 L 379,143 L 378,142 L 378,140 L 376,138 L 375,138 L 374,137 L 374,136 L 371,133 L 370,133 L 369,132 L 368,132 Z" fill="none" stroke="black" stroke-width="1"/>
</svg>