<svg xmlns="http://www.w3.org/2000/svg" width="446" height="193">
  <path d="M 354,104 L 353,105 L 353,106 L 352,107 L 352,108 L 351,109 L 350,109 L 349,110 L 348,110 L 348,112 L 345,115 L 341,115 L 341,116 L 339,118 L 339,122 L 340,123 L 340,124 L 341,125 L 341,126 L 345,130 L 345,131 L 346,132 L 346,135 L 349,135 L 352,138 L 352,137 L 353,136 L 358,136 L 359,137 L 360,136 L 361,136 L 363,134 L 364,134 L 366,132 L 366,130 L 364,128 L 364,127 L 365,126 L 365,125 L 364,124 L 365,123 L 367,123 L 368,122 L 369,122 L 370,121 L 370,120 L 371,119 L 371,117 L 372,116 L 372,110 L 370,110 L 369,109 L 365,109 L 364,108 L 364,107 L 362,107 L 361,108 L 360,108 L 359,107 L 359,105 L 358,104 Z" fill="none" stroke="black" stroke-width="1"/>
</svg>