<svg xmlns="http://www.w3.org/2000/svg" width="446" height="193">
  <path d="M 367,77 L 367,78 L 368,79 L 368,80 L 367,81 L 367,82 L 366,83 L 365,83 L 365,84 L 363,86 L 362,86 L 362,88 L 361,89 L 361,90 L 363,92 L 363,94 L 362,95 L 362,97 L 361,98 L 362,99 L 362,101 L 359,104 L 360,105 L 360,107 L 361,107 L 362,106 L 364,106 L 365,107 L 365,108 L 369,108 L 370,109 L 373,109 L 373,108 L 372,107 L 372,105 L 374,103 L 377,103 L 378,102 L 379,102 L 383,98 L 383,97 L 382,96 L 382,94 L 383,93 L 383,92 L 382,91 L 382,90 L 384,88 L 383,87 L 383,84 L 382,83 L 382,82 L 381,81 L 381,79 L 380,79 L 379,78 L 378,78 L 377,77 Z" fill="none" stroke="black" stroke-width="1"/>
</svg>