<svg xmlns="http://www.w3.org/2000/svg" width="690" height="339">
  <path d="M 342,216 L 341,217 L 339,217 L 338,218 L 337,218 L 337,219 L 333,223 L 332,223 L 332,225 L 329,228 L 329,229 L 325,233 L 325,234 L 324,235 L 323,235 L 322,236 L 321,236 L 320,237 L 320,239 L 317,242 L 317,243 L 315,245 L 315,247 L 313,249 L 313,250 L 315,252 L 315,253 L 317,253 L 318,254 L 319,254 L 321,256 L 325,256 L 326,255 L 328,255 L 329,254 L 330,254 L 331,253 L 332,253 L 333,252 L 335,252 L 336,251 L 339,251 L 342,248 L 343,248 L 344,247 L 347,247 L 348,246 L 349,246 L 351,244 L 352,244 L 353,243 L 353,242 L 354,241 L 353,240 L 353,239 L 351,237 L 355,233 L 355,230 L 350,225 L 350,224 L 348,222 L 347,222 L 344,219 L 344,217 L 343,216 Z" fill="none" stroke="black" stroke-width="1"/>
</svg>