<svg xmlns="http://www.w3.org/2000/svg" width="690" height="339">
  <path d="M 379,266 L 377,268 L 374,268 L 374,270 L 373,271 L 371,271 L 370,272 L 370,273 L 367,276 L 365,276 L 362,279 L 359,279 L 361,279 L 363,281 L 363,282 L 364,283 L 364,287 L 366,289 L 366,291 L 367,291 L 368,292 L 370,292 L 373,295 L 375,295 L 376,296 L 376,297 L 382,297 L 383,296 L 387,296 L 388,297 L 388,298 L 389,298 L 390,299 L 394,299 L 395,300 L 395,301 L 396,301 L 396,300 L 397,299 L 397,293 L 398,292 L 398,291 L 399,290 L 399,287 L 400,286 L 400,285 L 397,285 L 393,281 L 394,280 L 394,277 L 392,275 L 391,275 L 390,274 L 390,273 L 386,269 L 384,269 L 383,268 L 382,268 L 381,267 L 380,267 Z" fill="none" stroke="black" stroke-width="1"/>
</svg>