<svg xmlns="http://www.w3.org/2000/svg" width="690" height="339">
  <path d="M 391,232 L 390,233 L 389,233 L 387,235 L 386,235 L 385,236 L 382,236 L 382,238 L 383,238 L 384,239 L 384,242 L 385,243 L 386,243 L 388,245 L 388,246 L 389,247 L 389,249 L 390,250 L 390,251 L 393,254 L 394,253 L 395,254 L 395,255 L 396,254 L 398,256 L 398,257 L 399,257 L 400,258 L 400,262 L 399,263 L 400,264 L 400,265 L 399,266 L 400,266 L 401,267 L 402,266 L 403,267 L 404,266 L 405,267 L 406,266 L 407,267 L 407,268 L 407,267 L 408,266 L 409,266 L 411,268 L 413,268 L 414,269 L 415,268 L 416,268 L 417,269 L 416,270 L 417,271 L 418,270 L 419,270 L 420,269 L 421,269 L 422,268 L 423,268 L 423,266 L 425,264 L 423,264 L 422,263 L 422,256 L 423,255 L 423,253 L 424,252 L 424,251 L 425,250 L 425,248 L 422,248 L 421,247 L 420,247 L 419,246 L 418,246 L 417,245 L 416,245 L 415,244 L 414,244 L 413,243 L 413,242 L 412,241 L 411,241 L 410,240 L 409,240 L 408,239 L 407,239 L 405,237 L 404,237 L 402,235 L 401,235 L 400,234 L 399,234 L 398,233 L 395,233 L 394,232 Z" fill="none" stroke="black" stroke-width="1"/>
</svg>