<svg xmlns="http://www.w3.org/2000/svg" width="690" height="339">
  <path d="M 425,265 L 424,266 L 424,268 L 423,269 L 422,269 L 421,270 L 420,270 L 419,271 L 418,271 L 417,272 L 417,273 L 424,280 L 424,281 L 425,282 L 425,283 L 421,287 L 421,288 L 419,290 L 419,291 L 421,293 L 422,293 L 425,296 L 425,297 L 426,298 L 426,299 L 427,300 L 427,306 L 428,306 L 429,305 L 430,305 L 432,303 L 433,303 L 434,302 L 435,302 L 436,301 L 438,301 L 444,295 L 444,294 L 446,292 L 446,291 L 447,290 L 448,290 L 448,287 L 449,286 L 449,285 L 450,284 L 450,278 L 441,269 L 440,270 L 439,270 L 438,269 L 437,269 L 436,268 L 434,268 L 433,267 L 432,267 L 431,266 L 426,266 Z" fill="none" stroke="black" stroke-width="1"/>
</svg>