<svg xmlns="http://www.w3.org/2000/svg" width="690" height="339">
  <path d="M 374,296 L 374,298 L 372,300 L 372,301 L 373,302 L 373,303 L 375,305 L 375,306 L 377,308 L 377,309 L 376,310 L 375,310 L 376,310 L 378,312 L 379,312 L 380,313 L 380,314 L 379,315 L 379,316 L 377,318 L 377,319 L 381,323 L 381,324 L 382,325 L 382,326 L 384,328 L 384,333 L 383,334 L 383,335 L 381,337 L 381,338 L 384,338 L 386,336 L 387,336 L 388,335 L 390,335 L 391,334 L 393,334 L 394,333 L 395,333 L 396,332 L 401,332 L 401,330 L 402,329 L 405,329 L 405,328 L 404,327 L 404,325 L 405,324 L 405,322 L 402,319 L 402,316 L 401,315 L 400,315 L 397,312 L 397,309 L 396,309 L 394,307 L 394,305 L 395,304 L 395,302 L 394,301 L 394,300 L 390,300 L 389,299 L 388,299 L 387,298 L 387,297 L 383,297 L 382,298 L 376,298 L 375,297 L 375,296 Z" fill="none" stroke="black" stroke-width="1"/>
</svg>