<svg xmlns="http://www.w3.org/2000/svg" width="446" height="193">
  <path d="M 402,112 L 401,113 L 399,113 L 398,114 L 398,115 L 390,123 L 389,123 L 384,128 L 384,129 L 383,130 L 383,134 L 381,136 L 380,136 L 380,137 L 379,138 L 379,142 L 380,143 L 380,144 L 381,145 L 383,145 L 384,146 L 384,150 L 385,150 L 386,149 L 390,149 L 395,144 L 396,144 L 397,145 L 399,145 L 400,144 L 402,144 L 404,142 L 405,142 L 405,141 L 406,140 L 406,137 L 408,135 L 409,135 L 410,134 L 414,134 L 415,133 L 415,132 L 418,129 L 418,126 L 419,125 L 419,124 L 418,124 L 416,122 L 416,119 L 417,118 L 417,117 L 416,117 L 415,116 L 413,116 L 411,114 L 408,114 L 407,113 L 407,112 Z" fill="none" stroke="black" stroke-width="1"/>
</svg>