<svg xmlns="http://www.w3.org/2000/svg" width="446" height="193">
  <path d="M 386,150 L 385,151 L 384,151 L 383,152 L 383,153 L 382,154 L 382,158 L 381,159 L 380,159 L 379,160 L 378,160 L 377,161 L 376,161 L 375,162 L 374,162 L 373,163 L 372,163 L 371,164 L 371,165 L 369,167 L 368,167 L 368,168 L 366,170 L 366,171 L 365,172 L 365,173 L 363,175 L 363,176 L 362,177 L 362,183 L 364,183 L 365,182 L 369,182 L 370,181 L 371,181 L 372,180 L 375,180 L 378,177 L 380,177 L 381,176 L 390,176 L 391,175 L 392,175 L 397,170 L 398,170 L 399,169 L 398,168 L 398,160 L 395,157 L 395,156 L 394,156 L 388,150 Z" fill="none" stroke="black" stroke-width="1"/>
</svg>