<svg xmlns="http://www.w3.org/2000/svg" width="587" height="399">
  <path d="M 523,278 L 523,279 L 522,280 L 522,286 L 523,287 L 523,288 L 525,290 L 525,291 L 526,292 L 526,294 L 527,295 L 527,298 L 528,299 L 528,302 L 532,302 L 532,301 L 533,300 L 531,298 L 532,297 L 533,297 L 535,299 L 536,298 L 537,299 L 537,300 L 536,301 L 536,302 L 538,302 L 537,301 L 537,300 L 538,299 L 540,301 L 540,300 L 541,299 L 541,298 L 542,297 L 542,296 L 546,292 L 547,292 L 548,291 L 549,291 L 550,290 L 553,290 L 554,289 L 553,288 L 553,287 L 552,287 L 550,285 L 548,285 L 547,284 L 544,284 L 543,283 L 542,283 L 541,282 L 538,282 L 537,281 L 536,282 L 533,282 L 532,281 L 531,281 L 530,280 L 529,280 L 528,279 L 526,279 L 525,278 Z" fill="none" stroke="black" stroke-width="1"/>
</svg>