<svg xmlns="http://www.w3.org/2000/svg" width="587" height="399">
  <path d="M 554,290 L 553,291 L 550,291 L 549,292 L 548,292 L 547,293 L 546,293 L 543,296 L 543,297 L 542,298 L 542,299 L 541,300 L 542,301 L 542,305 L 543,306 L 543,307 L 544,308 L 543,309 L 545,309 L 547,311 L 548,311 L 549,312 L 550,312 L 550,309 L 551,308 L 552,309 L 552,310 L 555,313 L 554,314 L 553,314 L 553,316 L 554,317 L 554,318 L 555,318 L 556,319 L 556,320 L 558,322 L 558,324 L 559,325 L 559,326 L 557,328 L 557,334 L 556,335 L 557,336 L 557,337 L 556,338 L 556,345 L 553,348 L 554,349 L 550,353 L 550,355 L 549,356 L 555,356 L 556,357 L 555,358 L 553,358 L 553,360 L 557,360 L 558,361 L 559,361 L 560,362 L 562,362 L 564,364 L 565,364 L 566,365 L 567,365 L 569,367 L 570,367 L 571,368 L 572,368 L 574,370 L 575,370 L 576,369 L 577,369 L 579,367 L 580,367 L 580,366 L 582,364 L 582,363 L 583,362 L 583,352 L 584,351 L 584,350 L 585,349 L 585,339 L 586,338 L 586,331 L 585,330 L 585,329 L 584,328 L 584,327 L 583,326 L 583,318 L 581,316 L 581,315 L 580,314 L 580,313 L 579,312 L 579,311 L 578,310 L 578,309 L 577,308 L 577,307 L 576,306 L 576,305 L 572,301 L 572,300 L 573,299 L 572,298 L 572,297 L 571,296 L 570,296 L 569,295 L 568,295 L 567,294 L 566,294 L 562,290 Z" fill="none" stroke="black" stroke-width="1"/>
</svg>