<svg xmlns="http://www.w3.org/2000/svg" width="587" height="399">
  <path d="M 553,361 L 554,362 L 553,363 L 554,364 L 554,365 L 553,366 L 551,364 L 550,364 L 549,365 L 549,366 L 551,368 L 551,369 L 552,369 L 553,370 L 554,370 L 555,371 L 556,371 L 557,372 L 556,373 L 553,373 L 552,372 L 550,372 L 549,371 L 549,370 L 549,380 L 545,384 L 545,386 L 544,387 L 543,386 L 543,385 L 543,386 L 542,387 L 540,385 L 540,386 L 541,387 L 541,389 L 543,391 L 543,392 L 544,393 L 544,395 L 548,395 L 549,394 L 551,394 L 552,393 L 553,393 L 554,392 L 555,392 L 556,393 L 559,393 L 560,394 L 563,394 L 564,395 L 565,395 L 567,397 L 568,397 L 569,398 L 571,398 L 571,396 L 570,395 L 570,390 L 569,390 L 568,389 L 568,388 L 567,387 L 567,385 L 566,384 L 566,383 L 567,382 L 567,381 L 568,380 L 568,379 L 574,373 L 574,371 L 572,369 L 571,369 L 570,368 L 569,368 L 567,366 L 566,366 L 565,365 L 564,365 L 562,363 L 560,363 L 559,362 L 558,362 L 557,361 Z" fill="none" stroke="black" stroke-width="1"/>
</svg>