<svg xmlns="http://www.w3.org/2000/svg" width="465" height="369">
  <path d="M 277,22 L 277,26 L 276,27 L 276,29 L 273,32 L 273,34 L 271,36 L 271,37 L 269,39 L 269,40 L 268,41 L 268,43 L 267,44 L 265,44 L 266,45 L 267,45 L 268,46 L 268,47 L 272,51 L 273,51 L 274,52 L 274,53 L 275,54 L 275,57 L 277,59 L 277,58 L 278,57 L 285,57 L 286,56 L 291,56 L 292,57 L 294,57 L 295,58 L 298,58 L 298,56 L 300,54 L 300,50 L 299,49 L 299,48 L 298,47 L 298,44 L 297,43 L 297,41 L 296,40 L 296,38 L 294,38 L 293,37 L 292,37 L 290,35 L 290,34 L 287,31 L 287,30 L 286,29 L 286,26 L 284,26 L 280,22 Z" fill="none" stroke="black" stroke-width="1"/>
</svg>