<svg xmlns="http://www.w3.org/2000/svg" width="465" height="369">
  <path d="M 297,123 L 295,125 L 295,126 L 294,127 L 295,128 L 295,129 L 297,131 L 297,135 L 298,136 L 298,138 L 299,139 L 299,140 L 300,141 L 300,142 L 301,143 L 301,144 L 302,145 L 302,147 L 305,150 L 305,151 L 306,152 L 305,153 L 307,155 L 307,162 L 306,163 L 306,166 L 308,166 L 309,165 L 310,165 L 311,164 L 311,162 L 312,161 L 315,161 L 316,162 L 316,163 L 319,163 L 320,164 L 320,165 L 320,163 L 321,162 L 321,160 L 322,159 L 322,158 L 323,157 L 323,156 L 324,155 L 324,152 L 323,152 L 322,151 L 322,149 L 320,147 L 320,144 L 321,143 L 321,142 L 320,141 L 319,141 L 318,140 L 318,139 L 317,138 L 317,135 L 316,135 L 314,133 L 314,128 L 301,128 L 299,126 L 298,126 L 297,125 Z" fill="none" stroke="black" stroke-width="1"/>
</svg>