<svg xmlns="http://www.w3.org/2000/svg" width="465" height="369">
  <path d="M 287,26 L 287,29 L 288,30 L 288,31 L 291,34 L 291,35 L 292,36 L 293,36 L 294,37 L 296,37 L 297,38 L 297,40 L 298,41 L 298,43 L 299,44 L 299,47 L 300,48 L 300,49 L 301,50 L 301,54 L 299,56 L 299,59 L 301,59 L 302,60 L 302,61 L 304,61 L 305,60 L 310,60 L 311,59 L 310,58 L 310,54 L 313,51 L 314,51 L 317,48 L 320,48 L 321,47 L 324,47 L 325,48 L 326,48 L 328,50 L 329,49 L 330,49 L 335,44 L 336,44 L 337,43 L 338,43 L 339,42 L 341,42 L 344,39 L 344,38 L 345,37 L 345,29 L 344,28 L 343,28 L 342,29 L 340,29 L 339,30 L 338,30 L 337,31 L 328,31 L 327,30 L 325,30 L 324,29 L 322,29 L 321,28 L 316,28 L 315,27 L 314,28 L 312,28 L 311,29 L 299,29 L 298,28 L 297,28 L 296,27 L 292,27 L 291,26 Z" fill="none" stroke="black" stroke-width="1"/>
</svg>