<svg xmlns="http://www.w3.org/2000/svg" width="465" height="369">
  <path d="M 322,72 L 321,73 L 316,73 L 313,76 L 307,76 L 307,77 L 306,78 L 306,83 L 307,84 L 307,87 L 308,88 L 308,94 L 307,95 L 307,96 L 306,97 L 306,102 L 307,103 L 308,103 L 309,104 L 309,106 L 311,108 L 311,109 L 312,110 L 312,111 L 313,112 L 313,111 L 314,110 L 320,110 L 321,111 L 322,111 L 323,110 L 324,110 L 325,109 L 326,109 L 327,108 L 327,107 L 328,106 L 328,105 L 331,102 L 331,100 L 330,99 L 330,98 L 329,97 L 329,95 L 326,92 L 326,91 L 325,90 L 325,86 L 323,84 L 324,83 L 324,82 L 325,81 L 325,73 L 324,72 Z" fill="none" stroke="black" stroke-width="1"/>
</svg>