<svg xmlns="http://www.w3.org/2000/svg" width="465" height="369">
  <path d="M 339,128 L 338,129 L 338,130 L 336,132 L 330,132 L 329,133 L 328,133 L 327,132 L 325,132 L 324,131 L 321,131 L 320,130 L 315,130 L 315,133 L 316,134 L 317,134 L 318,135 L 318,138 L 319,139 L 319,140 L 320,140 L 322,142 L 322,143 L 321,144 L 321,147 L 323,149 L 323,151 L 324,151 L 325,152 L 325,153 L 328,156 L 329,156 L 330,157 L 331,157 L 332,158 L 333,158 L 334,159 L 338,159 L 338,156 L 339,155 L 340,155 L 341,154 L 345,154 L 346,153 L 350,153 L 352,151 L 352,148 L 351,147 L 351,145 L 347,141 L 347,140 L 345,138 L 345,135 L 346,134 L 346,133 L 345,132 L 345,131 L 344,131 L 343,130 L 342,130 L 341,129 L 341,128 Z" fill="none" stroke="black" stroke-width="1"/>
</svg>