<svg xmlns="http://www.w3.org/2000/svg" width="465" height="369">
  <path d="M 312,162 L 312,164 L 310,166 L 309,166 L 308,167 L 306,167 L 306,172 L 305,173 L 305,174 L 304,175 L 304,177 L 301,180 L 301,181 L 299,183 L 297,183 L 295,185 L 294,185 L 293,186 L 293,189 L 291,191 L 291,192 L 290,193 L 289,193 L 286,196 L 286,198 L 287,199 L 286,200 L 286,203 L 285,204 L 285,205 L 284,206 L 284,207 L 283,208 L 283,209 L 284,210 L 284,211 L 286,211 L 287,212 L 290,212 L 292,214 L 294,214 L 295,215 L 297,215 L 298,216 L 299,216 L 300,217 L 301,217 L 302,216 L 303,216 L 303,215 L 307,211 L 307,201 L 308,200 L 309,200 L 312,197 L 314,197 L 315,196 L 315,195 L 316,194 L 317,194 L 319,192 L 319,187 L 320,186 L 320,184 L 321,183 L 321,182 L 322,181 L 322,178 L 323,177 L 324,177 L 325,176 L 325,174 L 326,173 L 326,169 L 323,169 L 322,168 L 322,166 L 320,166 L 319,165 L 319,164 L 316,164 L 315,163 L 315,162 Z" fill="none" stroke="black" stroke-width="1"/>
</svg>