<svg xmlns="http://www.w3.org/2000/svg" width="337" height="324">
  <path d="M 12,199 L 11,200 L 8,200 L 7,201 L 7,202 L 6,203 L 5,203 L 4,204 L 4,206 L 3,207 L 3,208 L 2,209 L 1,209 L 0,210 L 0,211 L 3,214 L 4,214 L 5,215 L 5,216 L 6,217 L 6,218 L 8,220 L 8,221 L 9,222 L 9,223 L 10,224 L 10,225 L 11,226 L 11,227 L 12,228 L 12,230 L 13,231 L 13,235 L 14,236 L 14,238 L 15,239 L 15,241 L 16,242 L 16,244 L 18,246 L 18,247 L 19,248 L 19,249 L 20,250 L 20,251 L 21,252 L 21,254 L 23,256 L 23,257 L 24,258 L 24,259 L 26,261 L 26,262 L 29,265 L 29,266 L 31,268 L 31,269 L 32,270 L 32,272 L 33,272 L 34,271 L 35,271 L 36,270 L 37,270 L 38,269 L 41,269 L 42,268 L 43,269 L 44,268 L 44,265 L 43,264 L 43,261 L 42,260 L 42,252 L 44,250 L 44,247 L 43,246 L 43,245 L 41,245 L 40,244 L 39,244 L 38,243 L 37,243 L 36,242 L 35,242 L 34,241 L 34,240 L 33,239 L 33,238 L 32,237 L 32,236 L 31,235 L 30,235 L 27,232 L 27,227 L 29,225 L 29,223 L 30,222 L 30,217 L 29,216 L 28,216 L 26,214 L 24,214 L 23,213 L 20,213 L 19,212 L 19,203 L 18,202 L 18,201 L 16,199 Z" fill="none" stroke="black" stroke-width="1"/>
</svg>