<svg xmlns="http://www.w3.org/2000/svg" width="337" height="324">
  <path d="M 63,237 L 62,238 L 59,238 L 58,239 L 55,239 L 54,240 L 53,240 L 52,241 L 49,241 L 48,242 L 47,242 L 46,243 L 46,244 L 45,245 L 44,245 L 44,246 L 45,247 L 45,250 L 43,252 L 43,260 L 44,261 L 44,264 L 45,265 L 45,269 L 46,270 L 46,271 L 47,271 L 49,273 L 54,273 L 55,274 L 56,274 L 57,275 L 58,275 L 65,282 L 65,283 L 66,284 L 66,285 L 69,285 L 70,284 L 71,284 L 72,283 L 73,284 L 74,283 L 75,283 L 76,284 L 77,283 L 78,283 L 79,282 L 79,281 L 81,279 L 82,279 L 82,278 L 83,277 L 89,277 L 90,276 L 90,271 L 91,270 L 91,269 L 94,266 L 94,258 L 92,256 L 92,254 L 91,253 L 91,252 L 90,252 L 88,250 L 88,248 L 85,248 L 82,245 L 77,245 L 75,243 L 75,242 L 74,242 L 73,241 L 73,239 L 71,239 L 70,238 L 68,238 L 67,237 Z" fill="none" stroke="black" stroke-width="1"/>
</svg>