<svg xmlns="http://www.w3.org/2000/svg" width="337" height="324">
  <path d="M 42,269 L 41,270 L 38,270 L 37,271 L 36,271 L 35,272 L 34,272 L 33,273 L 32,273 L 32,275 L 33,276 L 33,283 L 32,284 L 32,286 L 31,287 L 30,287 L 29,288 L 28,288 L 27,287 L 26,288 L 26,291 L 27,291 L 29,293 L 29,294 L 30,295 L 29,296 L 33,300 L 33,301 L 35,303 L 35,307 L 33,309 L 33,312 L 34,313 L 34,314 L 34,311 L 35,310 L 40,310 L 41,311 L 41,314 L 40,315 L 44,315 L 45,316 L 47,316 L 49,318 L 49,319 L 52,322 L 57,322 L 58,323 L 59,323 L 59,322 L 60,321 L 61,321 L 62,320 L 63,320 L 66,317 L 71,317 L 71,316 L 72,315 L 76,315 L 77,316 L 80,316 L 80,314 L 77,311 L 77,310 L 75,308 L 75,306 L 76,305 L 76,301 L 79,298 L 81,298 L 82,297 L 83,297 L 84,296 L 87,296 L 88,295 L 89,295 L 89,294 L 90,293 L 90,291 L 87,288 L 84,288 L 83,287 L 82,287 L 81,286 L 81,285 L 79,285 L 78,284 L 77,284 L 76,285 L 75,284 L 74,284 L 73,285 L 72,284 L 71,285 L 70,285 L 69,286 L 66,286 L 65,285 L 65,284 L 64,283 L 64,282 L 58,276 L 57,276 L 56,275 L 55,275 L 54,274 L 49,274 L 47,272 L 46,272 L 45,271 L 45,270 L 44,269 L 43,270 Z" fill="none" stroke="black" stroke-width="1"/>
</svg>