<svg xmlns="http://www.w3.org/2000/svg" width="337" height="324">
  <path d="M 102,236 L 101,237 L 97,237 L 96,238 L 92,238 L 91,237 L 90,237 L 90,238 L 89,239 L 90,240 L 89,241 L 89,242 L 88,243 L 90,245 L 90,247 L 89,248 L 89,250 L 90,251 L 91,251 L 92,252 L 92,253 L 93,254 L 93,256 L 95,258 L 95,266 L 92,269 L 92,270 L 91,271 L 91,276 L 89,278 L 83,278 L 83,279 L 82,280 L 81,280 L 80,281 L 80,282 L 79,283 L 79,284 L 81,284 L 82,285 L 82,286 L 83,286 L 84,287 L 87,287 L 90,290 L 94,286 L 95,286 L 98,283 L 100,283 L 101,284 L 102,284 L 103,285 L 104,285 L 105,284 L 106,284 L 107,283 L 108,283 L 109,282 L 112,282 L 112,280 L 113,279 L 114,279 L 117,276 L 118,276 L 119,275 L 119,274 L 121,272 L 122,272 L 123,271 L 123,270 L 125,268 L 125,267 L 127,265 L 127,264 L 129,262 L 130,262 L 131,261 L 132,261 L 133,262 L 137,262 L 138,261 L 139,261 L 139,258 L 140,257 L 141,257 L 141,256 L 145,252 L 144,252 L 142,250 L 140,250 L 139,249 L 139,248 L 136,245 L 136,242 L 134,240 L 131,240 L 130,239 L 123,239 L 122,238 L 119,238 L 118,237 L 111,237 L 110,236 Z" fill="none" stroke="black" stroke-width="1"/>
</svg>