<svg xmlns="http://www.w3.org/2000/svg" width="337" height="324">
  <path d="M 109,283 L 108,284 L 107,284 L 106,285 L 105,285 L 104,286 L 103,286 L 102,285 L 101,285 L 100,284 L 98,284 L 95,287 L 94,287 L 91,290 L 91,293 L 90,294 L 90,295 L 89,296 L 88,296 L 87,297 L 84,297 L 83,298 L 82,298 L 81,299 L 79,299 L 77,301 L 77,305 L 76,306 L 76,308 L 78,310 L 78,311 L 81,314 L 81,315 L 83,315 L 84,316 L 85,316 L 86,315 L 88,315 L 88,314 L 90,312 L 91,312 L 93,310 L 96,310 L 97,309 L 102,309 L 103,310 L 111,310 L 113,308 L 118,308 L 119,309 L 122,309 L 123,310 L 126,310 L 127,311 L 128,311 L 129,312 L 134,312 L 135,311 L 135,309 L 136,308 L 136,306 L 135,305 L 135,304 L 134,304 L 132,302 L 132,301 L 131,301 L 129,299 L 129,297 L 130,296 L 130,295 L 131,294 L 130,293 L 130,290 L 129,290 L 128,289 L 126,289 L 124,287 L 124,286 L 122,286 L 120,284 L 115,284 L 114,283 Z" fill="none" stroke="black" stroke-width="1"/>
</svg>