<svg xmlns="http://www.w3.org/2000/svg" width="337" height="324">
  <path d="M 188,239 L 186,241 L 185,241 L 184,242 L 181,242 L 180,243 L 179,243 L 178,244 L 177,244 L 176,245 L 175,245 L 174,246 L 174,248 L 173,249 L 173,250 L 170,253 L 169,253 L 168,254 L 161,254 L 161,255 L 160,256 L 159,256 L 160,257 L 160,261 L 159,262 L 159,263 L 156,266 L 156,268 L 154,270 L 154,272 L 155,273 L 155,278 L 154,279 L 154,282 L 155,283 L 169,283 L 170,284 L 171,284 L 172,285 L 173,285 L 174,286 L 175,286 L 176,287 L 176,289 L 178,291 L 178,292 L 179,293 L 180,293 L 181,292 L 182,292 L 182,291 L 183,290 L 184,290 L 188,286 L 189,286 L 201,274 L 201,273 L 208,266 L 209,266 L 209,265 L 211,263 L 212,263 L 213,262 L 214,262 L 214,261 L 218,257 L 217,257 L 216,256 L 216,255 L 215,255 L 212,252 L 209,252 L 207,250 L 205,250 L 204,249 L 202,249 L 200,247 L 200,246 L 198,244 L 198,241 L 194,241 L 193,240 L 192,240 L 191,239 Z" fill="none" stroke="black" stroke-width="1"/>
</svg>