<svg xmlns="http://www.w3.org/2000/svg" width="337" height="324">
  <path d="M 223,215 L 222,216 L 212,216 L 211,217 L 210,217 L 206,221 L 206,222 L 205,223 L 205,227 L 204,228 L 204,229 L 202,231 L 202,232 L 201,233 L 201,238 L 199,240 L 199,244 L 201,246 L 201,247 L 202,248 L 204,248 L 205,249 L 207,249 L 209,251 L 212,251 L 215,254 L 216,254 L 217,255 L 217,256 L 219,256 L 219,255 L 221,253 L 221,252 L 222,251 L 222,250 L 223,249 L 223,248 L 225,246 L 225,245 L 226,244 L 226,243 L 227,242 L 227,240 L 228,239 L 229,239 L 229,238 L 230,237 L 231,237 L 230,236 L 231,235 L 231,234 L 232,233 L 232,231 L 234,229 L 234,228 L 236,226 L 237,226 L 238,225 L 238,224 L 235,224 L 227,216 L 226,216 L 225,215 Z" fill="none" stroke="black" stroke-width="1"/>
</svg>