<svg xmlns="http://www.w3.org/2000/svg" width="337" height="324">
  <path d="M 268,126 L 264,130 L 264,131 L 263,132 L 263,133 L 262,134 L 262,135 L 259,138 L 258,138 L 257,139 L 256,139 L 247,148 L 246,148 L 245,149 L 244,149 L 242,151 L 241,151 L 241,153 L 239,155 L 239,157 L 236,160 L 236,161 L 235,162 L 235,165 L 237,167 L 243,167 L 244,168 L 244,169 L 245,169 L 246,170 L 250,170 L 253,173 L 253,174 L 257,178 L 260,178 L 260,172 L 260,174 L 259,175 L 255,171 L 255,169 L 256,168 L 256,167 L 257,166 L 257,164 L 261,160 L 262,160 L 264,158 L 265,158 L 266,157 L 267,157 L 269,155 L 271,155 L 272,154 L 273,154 L 274,153 L 276,153 L 277,152 L 280,152 L 281,151 L 282,151 L 283,150 L 285,150 L 286,149 L 287,149 L 288,148 L 290,148 L 291,147 L 292,147 L 293,146 L 294,146 L 295,145 L 295,144 L 297,142 L 296,141 L 295,141 L 294,140 L 291,140 L 290,139 L 289,139 L 288,138 L 287,138 L 280,131 L 279,131 L 277,129 L 276,129 L 275,128 L 274,128 L 273,127 L 271,127 L 270,126 Z" fill="none" stroke="black" stroke-width="1"/>
</svg>