<svg xmlns="http://www.w3.org/2000/svg" width="337" height="324">
  <path d="M 300,95 L 300,98 Z" fill="none" stroke="black" stroke-width="1"/>
  <path d="M 283,77 L 281,79 L 281,80 L 280,81 L 279,81 L 277,83 L 276,83 L 276,84 L 277,85 L 277,87 L 278,88 L 278,93 L 277,94 L 276,94 L 273,97 L 269,97 L 267,99 L 267,101 L 268,102 L 268,103 L 269,104 L 269,106 L 270,107 L 270,120 L 269,121 L 269,123 L 268,124 L 268,125 L 270,125 L 271,126 L 273,126 L 274,127 L 275,127 L 276,128 L 277,128 L 279,130 L 280,130 L 287,137 L 288,137 L 289,138 L 290,138 L 291,139 L 294,139 L 295,140 L 296,140 L 297,141 L 298,141 L 299,140 L 299,139 L 300,138 L 300,135 L 301,134 L 301,133 L 300,133 L 299,134 L 298,133 L 298,131 L 299,130 L 299,125 L 300,124 L 300,121 L 301,120 L 301,117 L 300,116 L 300,111 L 301,110 L 301,105 L 299,105 L 298,104 L 298,102 L 297,101 L 297,99 L 296,98 L 296,97 L 297,96 L 295,94 L 295,93 L 294,92 L 294,89 L 293,88 L 293,87 L 294,86 L 294,84 L 293,83 L 293,82 L 291,80 L 290,80 L 288,78 L 288,77 Z" fill="none" stroke="black" stroke-width="1"/>
</svg>