<svg xmlns="http://www.w3.org/2000/svg" width="337" height="324">
  <path d="M 220,63 L 220,66 L 219,67 L 219,68 L 218,69 L 214,69 L 213,70 L 210,70 L 206,66 L 203,66 L 203,68 L 202,69 L 202,75 L 203,76 L 203,77 L 204,78 L 204,81 L 205,82 L 205,84 L 206,85 L 206,87 L 208,89 L 209,89 L 211,91 L 212,91 L 213,92 L 213,93 L 215,95 L 215,96 L 216,97 L 216,98 L 218,100 L 219,100 L 220,101 L 220,102 L 224,102 L 225,103 L 226,103 L 227,104 L 229,104 L 230,103 L 232,103 L 233,102 L 236,102 L 237,101 L 238,101 L 239,100 L 245,100 L 246,99 L 246,98 L 247,97 L 247,96 L 248,95 L 248,89 L 247,88 L 247,87 L 246,86 L 246,81 L 247,80 L 247,78 L 248,77 L 248,72 L 250,70 L 249,70 L 248,69 L 242,69 L 241,70 L 236,70 L 235,71 L 227,71 L 223,67 L 223,66 L 222,65 L 222,64 L 221,63 Z" fill="none" stroke="black" stroke-width="1"/>
</svg>