<svg xmlns="http://www.w3.org/2000/svg" width="337" height="324">
  <path d="M 206,31 L 205,32 L 203,32 L 202,33 L 200,33 L 196,37 L 195,37 L 195,39 L 194,40 L 193,40 L 190,43 L 190,44 L 193,47 L 193,48 L 194,49 L 194,50 L 198,54 L 198,56 L 200,58 L 200,59 L 201,59 L 202,60 L 202,61 L 204,63 L 204,64 L 205,65 L 206,65 L 210,69 L 213,69 L 214,68 L 218,68 L 218,67 L 219,66 L 219,63 L 220,62 L 221,62 L 220,61 L 220,59 L 219,58 L 219,53 L 220,52 L 220,51 L 221,50 L 222,50 L 223,49 L 225,49 L 226,48 L 227,48 L 228,47 L 229,47 L 230,46 L 231,46 L 233,44 L 234,44 L 236,42 L 236,40 L 235,39 L 235,37 L 234,36 L 234,35 L 233,35 L 231,33 L 231,32 L 228,32 L 227,33 L 225,33 L 224,34 L 220,34 L 219,33 L 217,33 L 216,32 L 211,32 L 210,31 Z" fill="none" stroke="black" stroke-width="1"/>
</svg>