<svg xmlns="http://www.w3.org/2000/svg" width="337" height="324">
  <path d="M 295,38 L 294,39 L 293,39 L 290,42 L 286,42 L 284,44 L 284,46 L 283,47 L 283,49 L 280,52 L 278,52 L 277,53 L 277,56 L 276,57 L 276,59 L 275,60 L 275,66 L 273,68 L 273,69 L 272,70 L 272,71 L 271,72 L 271,73 L 270,74 L 270,76 L 271,77 L 271,78 L 273,80 L 273,81 L 274,82 L 277,82 L 279,80 L 280,80 L 280,79 L 283,76 L 287,76 L 288,75 L 288,73 L 289,72 L 289,67 L 288,66 L 288,65 L 286,63 L 287,62 L 288,62 L 291,65 L 291,66 L 292,65 L 293,65 L 296,62 L 297,62 L 298,61 L 298,60 L 302,56 L 302,55 L 304,53 L 305,53 L 307,51 L 305,49 L 305,48 L 304,47 L 304,45 L 301,42 L 301,41 L 299,39 L 299,38 Z" fill="none" stroke="black" stroke-width="1"/>
</svg>