<svg xmlns="http://www.w3.org/2000/svg" width="467" height="484">
  <path d="M 94,325 L 94,326 L 93,327 L 93,330 L 92,331 L 92,334 L 93,335 L 88,340 L 84,340 L 83,341 L 83,349 L 84,350 L 84,352 L 86,352 L 91,357 L 91,360 L 94,363 L 95,363 L 96,362 L 100,362 L 103,359 L 104,359 L 105,358 L 109,358 L 109,352 L 110,351 L 112,351 L 113,350 L 115,350 L 116,349 L 118,349 L 118,347 L 116,347 L 115,346 L 115,344 L 114,343 L 114,342 L 113,342 L 111,340 L 111,339 L 109,337 L 108,337 L 107,336 L 103,336 L 102,335 L 102,334 L 101,333 L 101,332 L 99,330 L 99,328 L 98,327 L 97,327 L 95,325 Z" fill="none" stroke="black" stroke-width="1"/>
</svg>