<svg xmlns="http://www.w3.org/2000/svg" width="337" height="324">
  <path d="M 243,2 L 241,4 L 240,4 L 236,8 L 234,8 L 233,9 L 232,9 L 231,10 L 231,11 L 230,12 L 228,12 L 227,13 L 221,13 L 220,12 L 218,12 L 218,15 L 217,16 L 217,17 L 216,18 L 208,18 L 207,17 L 203,17 L 206,20 L 206,21 L 207,21 L 209,23 L 209,24 L 210,25 L 210,28 L 209,29 L 209,30 L 210,30 L 211,31 L 216,31 L 217,32 L 219,32 L 220,33 L 224,33 L 225,32 L 227,32 L 228,31 L 231,31 L 232,32 L 232,33 L 233,34 L 234,34 L 235,35 L 235,36 L 236,37 L 236,39 L 237,38 L 239,38 L 240,37 L 241,37 L 243,39 L 243,37 L 244,36 L 244,27 L 246,25 L 246,24 L 248,22 L 249,22 L 250,21 L 251,21 L 252,20 L 253,20 L 254,19 L 254,18 L 256,16 L 256,14 L 253,11 L 252,11 L 251,10 L 250,10 L 246,6 L 246,5 Z" fill="none" stroke="black" stroke-width="1"/>
</svg>