<svg xmlns="http://www.w3.org/2000/svg" width="337" height="324">
  <path d="M 191,0 L 191,1 L 189,3 L 189,6 L 187,8 L 187,9 L 185,11 L 183,11 L 182,12 L 182,13 L 181,14 L 180,14 L 179,15 L 178,15 L 178,17 L 177,18 L 177,19 L 174,22 L 174,23 L 173,24 L 173,25 L 171,27 L 171,28 L 169,30 L 169,36 L 172,39 L 174,39 L 178,43 L 178,45 L 179,46 L 179,47 L 180,47 L 181,48 L 185,48 L 189,44 L 189,43 L 193,39 L 194,39 L 194,37 L 195,36 L 196,36 L 200,32 L 202,32 L 203,31 L 205,31 L 206,30 L 208,30 L 208,29 L 209,28 L 209,25 L 208,24 L 208,23 L 207,22 L 206,22 L 205,21 L 205,20 L 202,17 L 200,17 L 199,16 L 199,9 L 198,8 L 197,8 L 195,6 L 195,3 L 194,2 L 194,1 L 193,0 Z" fill="none" stroke="black" stroke-width="1"/>
</svg>