<svg xmlns="http://www.w3.org/2000/svg" width="467" height="484">
  <path d="M 36,302 L 35,303 L 34,303 L 33,304 L 32,304 L 31,305 L 27,305 L 26,304 L 22,304 L 21,305 L 20,305 L 19,306 L 17,306 L 16,307 L 15,307 L 14,308 L 12,308 L 10,310 L 10,312 L 8,314 L 8,315 L 6,317 L 6,318 L 5,319 L 5,320 L 4,321 L 5,322 L 5,323 L 6,324 L 6,327 L 7,328 L 8,328 L 10,330 L 10,337 L 17,337 L 18,338 L 26,338 L 26,337 L 27,336 L 27,333 L 28,332 L 30,332 L 31,333 L 37,333 L 38,332 L 40,332 L 40,331 L 42,329 L 43,329 L 44,328 L 46,328 L 50,324 L 51,324 L 52,323 L 52,322 L 54,320 L 54,316 L 53,315 L 53,314 L 52,313 L 52,311 L 50,309 L 50,308 L 49,308 L 48,307 L 48,304 L 47,303 L 47,302 Z" fill="none" stroke="black" stroke-width="1"/>
</svg>