<svg xmlns="http://www.w3.org/2000/svg" width="467" height="484">
  <path d="M 64,308 L 63,309 L 62,309 L 61,310 L 59,310 L 58,311 L 53,311 L 53,313 L 54,314 L 54,315 L 55,316 L 55,320 L 53,322 L 57,326 L 57,327 L 60,330 L 61,330 L 62,331 L 63,331 L 67,335 L 67,337 L 69,339 L 69,340 L 70,341 L 70,342 L 71,343 L 74,343 L 77,340 L 83,340 L 84,339 L 88,339 L 92,335 L 91,334 L 91,331 L 92,330 L 92,327 L 93,326 L 93,325 L 92,324 L 92,323 L 91,322 L 90,322 L 89,321 L 88,321 L 84,317 L 82,317 L 81,316 L 80,316 L 79,315 L 78,315 L 77,314 L 76,314 L 75,313 L 74,313 L 73,312 L 70,312 L 67,309 L 66,309 L 65,308 Z" fill="none" stroke="black" stroke-width="1"/>
</svg>