<svg xmlns="http://www.w3.org/2000/svg" width="337" height="324">
  <path d="M 330,11 L 329,12 L 328,12 L 327,13 L 327,14 L 326,15 L 326,17 L 325,18 L 317,18 L 311,24 L 311,25 L 309,27 L 309,28 L 308,29 L 306,29 L 305,30 L 303,30 L 302,31 L 300,31 L 300,39 L 302,41 L 302,42 L 305,45 L 305,47 L 306,48 L 306,49 L 307,50 L 309,50 L 310,49 L 311,50 L 312,50 L 314,48 L 314,47 L 321,40 L 321,39 L 323,37 L 323,36 L 321,34 L 322,33 L 323,33 L 324,34 L 325,34 L 325,33 L 326,32 L 327,32 L 330,29 L 331,29 L 332,28 L 333,28 L 335,26 L 336,26 L 335,26 L 334,25 L 334,24 L 332,22 L 332,14 L 333,13 L 333,11 Z" fill="none" stroke="black" stroke-width="1"/>
</svg>