<svg xmlns="http://www.w3.org/2000/svg" width="467" height="484">
  <path d="M 251,390 L 249,392 L 249,393 L 248,394 L 248,395 L 247,396 L 247,397 L 246,398 L 246,399 L 245,400 L 245,401 L 242,404 L 242,407 L 241,408 L 241,410 L 240,411 L 237,411 L 235,413 L 235,415 L 238,415 L 239,416 L 239,417 L 241,419 L 241,424 L 242,425 L 245,425 L 246,424 L 252,424 L 253,425 L 253,424 L 256,421 L 257,421 L 259,419 L 259,411 L 260,410 L 260,409 L 262,407 L 262,406 L 263,405 L 263,403 L 264,402 L 264,395 L 262,395 L 258,391 L 255,391 L 254,390 Z" fill="none" stroke="black" stroke-width="1"/>
</svg>