<svg xmlns="http://www.w3.org/2000/svg" width="467" height="484">
  <path d="M 276,320 L 276,321 L 275,322 L 274,322 L 273,321 L 270,321 L 269,322 L 269,324 L 268,325 L 267,324 L 265,324 L 265,325 L 264,326 L 263,325 L 263,323 L 262,324 L 261,324 L 261,325 L 259,327 L 258,327 L 257,328 L 255,328 L 254,327 L 251,327 L 250,328 L 250,330 L 251,331 L 251,335 L 249,337 L 249,338 L 248,339 L 248,340 L 247,341 L 247,342 L 245,344 L 245,345 L 244,346 L 244,347 L 243,348 L 243,351 L 244,352 L 244,357 L 245,357 L 246,358 L 249,358 L 249,357 L 250,356 L 258,356 L 259,357 L 260,357 L 261,358 L 263,358 L 264,359 L 265,359 L 267,357 L 267,356 L 268,355 L 268,353 L 269,352 L 269,351 L 270,350 L 271,350 L 272,349 L 273,349 L 274,348 L 276,348 L 277,349 L 278,348 L 279,348 L 279,347 L 280,346 L 280,345 L 281,344 L 283,344 L 283,343 L 284,342 L 285,342 L 287,340 L 287,339 L 285,337 L 285,335 L 284,334 L 284,333 L 283,333 L 282,332 L 282,331 L 281,330 L 281,328 L 280,327 L 280,325 L 279,325 L 278,324 L 278,320 Z" fill="none" stroke="black" stroke-width="1"/>
</svg>