<svg xmlns="http://www.w3.org/2000/svg" width="467" height="484">
  <path d="M 173,277 L 172,278 L 172,284 L 173,285 L 173,286 L 174,287 L 174,289 L 175,290 L 175,291 L 176,292 L 176,293 L 177,294 L 177,306 L 178,307 L 179,307 L 181,309 L 181,311 L 182,312 L 182,314 L 185,314 L 188,317 L 189,316 L 189,315 L 191,313 L 191,311 L 190,311 L 189,310 L 190,309 L 191,309 L 192,308 L 192,306 L 193,305 L 193,298 L 191,300 L 190,299 L 190,298 L 192,296 L 192,295 L 191,295 L 190,296 L 189,295 L 189,294 L 190,293 L 190,290 L 189,289 L 189,284 L 188,283 L 189,282 L 179,282 L 178,281 L 177,281 L 175,279 L 175,278 L 174,277 Z" fill="none" stroke="black" stroke-width="1"/>
</svg>