<svg xmlns="http://www.w3.org/2000/svg" width="467" height="484">
  <path d="M 170,191 L 170,195 L 169,196 L 168,195 L 161,195 L 160,194 L 160,193 L 157,193 L 156,192 L 147,192 L 147,194 L 146,195 L 145,195 L 146,196 L 146,199 L 150,199 L 151,200 L 154,200 L 158,204 L 158,207 L 159,208 L 159,215 L 158,216 L 158,219 L 157,220 L 157,224 L 158,224 L 159,225 L 159,228 L 159,227 L 161,225 L 162,225 L 165,222 L 166,222 L 168,220 L 172,220 L 172,219 L 173,218 L 175,218 L 175,214 L 174,213 L 174,212 L 171,209 L 172,208 L 170,206 L 170,202 L 169,201 L 169,200 L 170,199 L 170,198 L 171,197 L 171,195 L 172,194 L 172,192 L 171,191 Z" fill="none" stroke="black" stroke-width="1"/>
</svg>