<svg xmlns="http://www.w3.org/2000/svg" width="467" height="484">
  <path d="M 166,171 L 166,172 L 162,176 L 161,176 L 160,177 L 160,178 L 159,179 L 158,179 L 156,181 L 151,181 L 150,182 L 149,182 L 147,184 L 147,185 L 146,186 L 146,187 L 145,188 L 144,188 L 143,189 L 139,189 L 138,190 L 136,190 L 136,193 L 141,193 L 142,194 L 143,194 L 144,195 L 145,194 L 146,194 L 146,192 L 147,191 L 156,191 L 157,192 L 160,192 L 161,193 L 161,194 L 168,194 L 169,195 L 169,186 L 170,185 L 170,184 L 171,183 L 171,182 L 173,180 L 173,178 L 171,176 L 170,176 L 168,174 L 168,173 Z" fill="none" stroke="black" stroke-width="1"/>
</svg>