<svg xmlns="http://www.w3.org/2000/svg" width="467" height="484">
  <path d="M 173,219 L 173,220 L 172,221 L 168,221 L 166,223 L 165,223 L 162,226 L 161,226 L 160,227 L 160,228 L 159,229 L 159,230 L 158,231 L 157,230 L 156,231 L 155,231 L 154,232 L 153,232 L 151,234 L 150,234 L 150,235 L 152,237 L 152,242 L 153,243 L 154,243 L 155,244 L 155,247 L 154,248 L 155,248 L 156,249 L 157,249 L 158,248 L 159,248 L 160,247 L 161,247 L 163,245 L 170,245 L 171,244 L 172,245 L 172,246 L 171,247 L 171,252 L 173,250 L 174,250 L 175,249 L 176,249 L 177,248 L 180,248 L 181,247 L 183,247 L 186,244 L 187,244 L 188,243 L 188,242 L 189,241 L 189,235 L 188,235 L 186,233 L 186,232 L 185,231 L 184,232 L 181,229 L 180,229 L 179,228 L 179,227 L 178,227 L 177,226 L 177,223 L 176,222 L 176,220 L 175,219 Z" fill="none" stroke="black" stroke-width="1"/>
</svg>