<svg xmlns="http://www.w3.org/2000/svg" width="467" height="484">
  <path d="M 145,154 L 145,155 L 144,156 L 142,156 L 142,157 L 141,158 L 141,159 L 142,160 L 142,161 L 144,163 L 144,164 L 145,165 L 145,166 L 146,167 L 143,170 L 143,171 L 142,172 L 142,173 L 141,174 L 141,180 L 142,181 L 142,182 L 143,183 L 143,184 L 145,186 L 145,187 L 145,186 L 146,185 L 146,184 L 149,181 L 150,181 L 151,180 L 156,180 L 158,178 L 159,178 L 159,177 L 161,175 L 162,175 L 165,172 L 165,171 L 162,168 L 162,164 L 161,163 L 161,162 L 162,161 L 162,159 L 160,157 L 159,157 L 158,158 L 156,158 L 155,157 L 155,156 L 154,156 L 153,157 L 151,157 L 149,155 L 147,155 L 146,154 Z" fill="none" stroke="black" stroke-width="1"/>
</svg>