<svg xmlns="http://www.w3.org/2000/svg" width="467" height="484">
  <path d="M 142,125 L 142,126 L 143,127 L 142,128 L 142,134 L 143,134 L 144,135 L 144,139 L 147,139 L 148,140 L 148,142 L 147,143 L 147,145 L 146,146 L 146,147 L 144,149 L 143,149 L 143,151 L 142,152 L 141,152 L 141,154 L 142,155 L 144,155 L 144,154 L 145,153 L 146,153 L 147,154 L 149,154 L 151,156 L 153,156 L 154,155 L 155,155 L 156,156 L 156,157 L 158,157 L 159,156 L 160,156 L 162,158 L 163,158 L 163,157 L 164,156 L 164,155 L 165,154 L 165,152 L 166,151 L 166,148 L 167,147 L 167,146 L 168,145 L 168,141 L 167,141 L 165,139 L 164,139 L 161,136 L 160,136 L 157,133 L 156,133 L 153,130 L 152,130 L 151,129 L 150,129 L 149,128 L 149,127 L 148,127 L 146,125 Z" fill="none" stroke="black" stroke-width="1"/>
</svg>