<svg xmlns="http://www.w3.org/2000/svg" width="194" height="141">
  <path d="M 38,17 L 40,17 Z" fill="none" stroke="black" stroke-width="1"/>
  <path d="M 57,9 L 57,10 L 56,11 L 56,12 L 57,13 L 57,14 L 58,14 L 59,13 L 60,13 L 61,14 L 62,13 L 62,11 L 61,11 L 60,10 L 59,10 L 58,9 Z" fill="none" stroke="black" stroke-width="1"/>
  <path d="M 50,0 L 50,1 L 49,2 L 45,2 L 45,3 L 44,4 L 41,4 L 41,6 L 42,7 L 41,8 L 40,8 L 39,7 L 38,8 L 41,8 L 42,9 L 41,10 L 41,11 L 42,12 L 41,13 L 37,13 L 36,12 L 36,11 L 36,12 L 35,13 L 35,15 L 35,14 L 36,13 L 39,13 L 44,18 L 44,19 L 47,22 L 46,23 L 46,24 L 47,23 L 53,23 L 54,24 L 54,25 L 56,25 L 56,24 L 59,21 L 60,21 L 61,20 L 62,20 L 62,17 L 61,16 L 59,16 L 58,17 L 56,17 L 53,14 L 54,13 L 54,10 L 53,9 L 53,8 L 55,6 L 57,6 L 57,5 L 55,3 L 55,2 L 53,2 L 51,0 Z" fill="none" stroke="black" stroke-width="1"/>
</svg>