<svg xmlns="http://www.w3.org/2000/svg" width="467" height="484">
  <path d="M 179,190 L 175,194 L 175,195 L 176,195 L 179,192 Z" fill="none" stroke="black" stroke-width="1"/>
  <path d="M 170,159 L 169,160 L 169,161 L 168,162 L 169,163 L 169,167 L 170,166 L 171,166 L 172,167 L 172,168 L 173,169 L 173,170 L 174,169 L 174,168 L 173,167 L 173,165 L 172,166 L 171,165 L 171,163 L 170,162 Z" fill="none" stroke="black" stroke-width="1"/>
  <path d="M 177,145 L 176,146 L 176,148 L 177,149 L 177,151 L 176,152 L 176,153 L 177,153 L 177,152 L 178,151 L 178,149 L 177,148 L 178,147 L 178,145 Z" fill="none" stroke="black" stroke-width="1"/>
</svg>