<svg xmlns="http://www.w3.org/2000/svg" width="467" height="484">
  <path d="M 148,115 L 148,116 L 147,117 L 146,117 L 146,120 L 144,122 L 144,123 L 143,124 L 146,124 L 148,126 L 149,126 L 150,127 L 150,128 L 151,128 L 152,129 L 153,129 L 156,132 L 157,132 L 160,135 L 161,135 L 164,138 L 165,138 L 167,140 L 171,140 L 172,139 L 172,138 L 173,137 L 173,136 L 174,135 L 174,134 L 175,133 L 175,132 L 176,131 L 176,130 L 177,129 L 177,128 L 175,126 L 175,123 L 174,123 L 172,121 L 172,119 L 171,119 L 170,118 L 165,118 L 164,117 L 164,116 L 163,116 L 162,115 L 158,115 L 157,116 L 156,115 Z" fill="none" stroke="black" stroke-width="1"/>
</svg>