<svg xmlns="http://www.w3.org/2000/svg" width="467" height="484">
  <path d="M 180,89 L 180,90 L 179,91 L 179,93 L 178,94 L 177,94 L 175,96 L 174,96 L 171,99 L 167,99 L 166,98 L 165,98 L 164,97 L 162,97 L 162,102 L 161,103 L 159,103 L 158,102 L 154,102 L 154,107 L 155,107 L 156,108 L 156,111 L 157,111 L 158,112 L 158,114 L 162,114 L 163,115 L 164,115 L 165,116 L 165,117 L 170,117 L 171,118 L 172,118 L 173,119 L 173,121 L 174,122 L 175,122 L 176,123 L 176,126 L 177,127 L 178,127 L 178,125 L 179,124 L 179,122 L 180,121 L 180,120 L 181,119 L 182,119 L 182,118 L 183,117 L 183,111 L 184,110 L 184,109 L 185,108 L 184,108 L 183,107 L 183,102 L 182,101 L 182,94 L 181,93 L 181,92 L 180,91 Z" fill="none" stroke="black" stroke-width="1"/>
</svg>