<svg xmlns="http://www.w3.org/2000/svg" width="340" height="393">
  <path d="M 247,335 L 246,336 L 245,336 L 245,337 L 242,340 L 237,340 L 233,344 L 232,344 L 231,345 L 229,345 L 228,346 L 228,351 L 227,352 L 227,353 L 230,353 L 231,354 L 233,354 L 235,356 L 235,357 L 236,358 L 236,360 L 237,360 L 239,358 L 240,358 L 241,357 L 242,357 L 243,356 L 244,356 L 245,355 L 246,355 L 248,353 L 249,353 L 250,352 L 251,352 L 253,350 L 254,350 L 256,348 L 256,346 L 255,345 L 255,344 L 254,343 L 254,341 L 250,337 L 249,337 L 248,336 L 248,335 Z" fill="none" stroke="black" stroke-width="1"/>
</svg>