<svg xmlns="http://www.w3.org/2000/svg" width="340" height="393">
  <path d="M 298,226 L 298,230 L 299,231 L 299,235 L 298,236 L 298,241 L 301,244 L 302,244 L 304,246 L 305,246 L 308,249 L 309,249 L 310,250 L 314,250 L 315,251 L 315,252 L 316,252 L 317,253 L 318,253 L 319,254 L 321,254 L 321,253 L 322,252 L 322,250 L 323,249 L 323,248 L 324,247 L 324,246 L 326,244 L 327,244 L 327,242 L 328,241 L 328,240 L 330,238 L 330,234 L 329,233 L 329,232 L 328,232 L 327,231 L 322,231 L 321,230 L 320,230 L 318,228 L 317,228 L 316,227 L 308,227 L 307,228 L 303,228 L 302,227 L 301,227 L 300,226 Z" fill="none" stroke="black" stroke-width="1"/>
</svg>