<svg xmlns="http://www.w3.org/2000/svg" width="340" height="393">
  <path d="M 234,261 L 233,262 L 232,262 L 231,263 L 229,263 L 228,264 L 226,264 L 224,266 L 223,266 L 221,268 L 218,268 L 217,269 L 214,269 L 213,268 L 212,268 L 211,267 L 209,267 L 208,266 L 206,266 L 205,267 L 205,271 L 198,278 L 197,278 L 196,279 L 195,279 L 191,283 L 188,283 L 188,285 L 189,285 L 190,286 L 190,289 L 191,290 L 192,290 L 193,291 L 193,292 L 196,295 L 197,295 L 198,296 L 199,296 L 200,297 L 202,297 L 203,298 L 207,298 L 208,299 L 209,299 L 212,302 L 212,304 L 214,306 L 214,307 L 216,309 L 216,311 L 217,311 L 218,310 L 220,310 L 221,309 L 223,309 L 224,308 L 226,308 L 227,309 L 231,309 L 232,308 L 232,307 L 233,306 L 239,306 L 240,307 L 241,307 L 241,306 L 244,303 L 244,300 L 245,299 L 245,294 L 248,291 L 249,291 L 250,290 L 253,290 L 254,289 L 254,288 L 253,288 L 251,286 L 250,286 L 249,285 L 249,283 L 247,281 L 247,278 L 244,275 L 244,274 L 243,273 L 243,272 L 240,269 L 240,268 L 239,267 L 239,265 L 238,265 L 237,264 L 237,263 L 236,262 L 236,261 Z" fill="none" stroke="black" stroke-width="1"/>
</svg>