<svg xmlns="http://www.w3.org/2000/svg" width="340" height="393">
  <path d="M 214,239 L 214,242 L 212,244 L 211,244 L 210,245 L 208,245 L 206,243 L 205,243 L 205,245 L 203,247 L 203,248 L 202,249 L 202,259 L 204,261 L 204,262 L 206,264 L 206,265 L 208,265 L 209,266 L 211,266 L 212,267 L 213,267 L 214,268 L 217,268 L 218,267 L 221,267 L 223,265 L 224,265 L 226,263 L 228,263 L 229,262 L 231,262 L 232,261 L 233,261 L 234,260 L 239,260 L 241,262 L 245,262 L 246,261 L 247,261 L 248,260 L 248,259 L 252,255 L 252,254 L 253,253 L 253,248 L 252,247 L 252,245 L 251,244 L 251,242 L 250,241 L 248,241 L 247,240 L 239,240 L 238,241 L 237,241 L 236,240 L 233,240 L 232,241 L 231,241 L 230,242 L 229,242 L 228,243 L 222,243 L 218,239 Z" fill="none" stroke="black" stroke-width="1"/>
</svg>