<svg xmlns="http://www.w3.org/2000/svg" width="340" height="393">
  <path d="M 251,215 L 250,216 L 249,216 L 247,218 L 244,218 L 240,222 L 240,226 L 239,227 L 239,231 L 240,232 L 240,235 L 241,235 L 242,236 L 241,237 L 242,238 L 242,239 L 247,239 L 248,240 L 250,240 L 251,239 L 253,239 L 253,238 L 254,237 L 255,237 L 258,234 L 263,234 L 264,233 L 261,230 L 261,225 L 264,222 L 264,217 L 263,217 L 262,218 L 261,217 L 260,217 L 259,216 L 254,216 L 253,215 Z" fill="none" stroke="black" stroke-width="1"/>
</svg>