<svg xmlns="http://www.w3.org/2000/svg" width="340" height="393">
  <path d="M 192,253 L 191,254 L 190,254 L 189,255 L 187,255 L 187,257 L 185,259 L 183,259 L 182,260 L 182,261 L 181,262 L 179,262 L 176,265 L 174,265 L 173,264 L 172,264 L 171,265 L 169,265 L 168,264 L 167,264 L 165,266 L 165,268 L 163,270 L 160,270 L 159,271 L 157,271 L 156,272 L 153,272 L 152,273 L 153,274 L 153,275 L 158,275 L 160,277 L 160,279 L 161,279 L 162,280 L 163,280 L 164,281 L 165,281 L 166,282 L 166,284 L 167,285 L 167,286 L 169,286 L 170,287 L 170,288 L 171,288 L 172,289 L 181,289 L 181,288 L 183,286 L 185,286 L 187,284 L 187,283 L 188,282 L 191,282 L 195,278 L 196,278 L 197,277 L 198,277 L 204,271 L 204,267 L 205,266 L 205,264 L 203,262 L 203,261 L 201,259 L 200,260 L 198,260 L 195,257 L 195,254 L 194,253 Z" fill="none" stroke="black" stroke-width="1"/>
</svg>