<svg xmlns="http://www.w3.org/2000/svg" width="184" height="204">
  <path d="M 165,108 L 165,109 L 163,111 L 162,111 L 161,112 L 160,112 L 159,113 L 158,113 L 157,114 L 156,114 L 156,115 L 160,115 L 161,114 L 162,114 L 164,116 L 164,117 L 165,118 L 167,118 L 168,119 L 169,119 L 170,118 L 171,118 L 172,119 L 174,119 L 175,120 L 175,121 L 176,122 L 176,125 L 178,127 L 180,127 L 181,128 L 182,127 L 182,124 L 183,123 L 183,121 L 182,120 L 182,119 L 179,116 L 178,116 L 176,114 L 176,113 L 175,112 L 174,112 L 173,111 L 172,111 L 171,110 L 169,110 L 168,109 L 167,109 L 166,108 Z" fill="none" stroke="black" stroke-width="1"/>
</svg>