<svg xmlns="http://www.w3.org/2000/svg" width="340" height="393">
  <path d="M 172,225 L 172,228 L 171,229 L 170,229 L 170,231 L 169,232 L 167,232 L 167,235 L 166,236 L 166,237 L 165,238 L 164,238 L 164,241 L 165,242 L 165,245 L 167,245 L 168,244 L 169,244 L 170,243 L 171,243 L 172,244 L 172,245 L 173,246 L 173,247 L 175,247 L 176,248 L 176,249 L 177,249 L 179,247 L 180,248 L 180,252 L 182,254 L 182,255 L 185,255 L 186,254 L 189,254 L 190,253 L 191,253 L 192,252 L 194,252 L 196,254 L 196,257 L 198,259 L 200,259 L 201,258 L 201,249 L 202,248 L 202,247 L 204,245 L 204,243 L 202,243 L 201,242 L 199,242 L 197,240 L 197,238 L 196,237 L 196,236 L 195,235 L 192,235 L 191,234 L 191,233 L 190,232 L 189,232 L 188,231 L 187,231 L 186,230 L 184,230 L 183,229 L 183,228 L 182,227 L 179,227 L 178,226 L 176,226 L 175,225 Z" fill="none" stroke="black" stroke-width="1"/>
</svg>