<svg xmlns="http://www.w3.org/2000/svg" width="340" height="393">
  <path d="M 205,203 L 203,205 L 202,205 L 201,204 L 200,204 L 200,205 L 199,206 L 199,209 L 197,211 L 198,211 L 199,212 L 200,212 L 204,216 L 204,217 L 203,218 L 204,219 L 204,220 L 206,222 L 206,225 L 207,225 L 209,227 L 209,229 L 210,230 L 211,230 L 212,231 L 212,233 L 215,236 L 215,237 L 216,238 L 218,238 L 219,237 L 219,236 L 220,235 L 220,234 L 222,232 L 222,231 L 223,230 L 223,228 L 227,224 L 227,221 L 222,216 L 221,216 L 220,215 L 220,214 L 216,210 L 216,209 L 215,208 L 215,207 L 214,206 L 213,206 L 210,203 Z" fill="none" stroke="black" stroke-width="1"/>
</svg>