<svg xmlns="http://www.w3.org/2000/svg" width="340" height="393">
  <path d="M 137,219 L 137,226 L 136,227 L 131,227 L 131,228 L 130,229 L 128,229 L 127,230 L 126,230 L 126,231 L 125,232 L 125,234 L 126,235 L 126,238 L 125,239 L 124,239 L 123,240 L 122,240 L 121,241 L 119,241 L 117,239 L 117,238 L 115,240 L 115,241 L 116,242 L 117,242 L 119,244 L 119,245 L 123,249 L 123,250 L 124,250 L 125,249 L 127,249 L 128,250 L 129,250 L 131,252 L 132,252 L 133,251 L 138,251 L 139,252 L 139,253 L 140,252 L 140,251 L 141,250 L 142,250 L 143,251 L 143,252 L 146,252 L 147,253 L 148,253 L 149,254 L 152,254 L 155,251 L 155,247 L 154,246 L 154,244 L 153,243 L 153,242 L 151,240 L 151,239 L 153,237 L 154,237 L 155,236 L 155,235 L 154,235 L 152,233 L 152,232 L 153,231 L 153,228 L 151,230 L 149,228 L 149,227 L 148,228 L 146,226 L 146,225 L 144,223 L 144,219 Z" fill="none" stroke="black" stroke-width="1"/>
</svg>