<svg xmlns="http://www.w3.org/2000/svg" width="340" height="393">
  <path d="M 152,198 L 150,200 L 149,200 L 148,199 L 147,199 L 147,200 L 146,201 L 144,201 L 143,200 L 142,200 L 141,199 L 140,199 L 140,201 L 142,203 L 142,204 L 141,205 L 141,206 L 139,208 L 139,209 L 138,210 L 138,218 L 145,218 L 146,217 L 147,217 L 148,216 L 150,216 L 151,217 L 153,217 L 153,216 L 154,215 L 154,211 L 155,210 L 156,211 L 157,210 L 158,210 L 158,209 L 159,208 L 159,203 L 158,202 L 158,198 L 157,198 L 156,199 L 154,199 L 153,198 Z" fill="none" stroke="black" stroke-width="1"/>
</svg>