<svg xmlns="http://www.w3.org/2000/svg" width="340" height="393">
  <path d="M 210,185 L 209,186 L 208,186 L 207,187 L 206,187 L 205,188 L 206,189 L 205,190 L 204,190 L 203,191 L 201,189 L 200,189 L 199,188 L 198,188 L 198,190 L 196,192 L 196,193 L 194,195 L 194,196 L 193,197 L 193,200 L 191,202 L 191,205 L 192,206 L 192,209 L 191,210 L 192,210 L 193,211 L 196,211 L 198,209 L 198,206 L 199,205 L 199,202 L 200,201 L 201,202 L 202,202 L 203,201 L 204,201 L 205,200 L 206,200 L 207,199 L 209,199 L 212,196 L 214,196 L 214,191 L 213,190 L 213,189 L 212,188 L 212,187 Z" fill="none" stroke="black" stroke-width="1"/>
</svg>