<svg xmlns="http://www.w3.org/2000/svg" width="690" height="339">
  <path d="M 661,276 L 661,278 L 660,279 L 660,280 L 659,281 L 659,282 L 658,283 L 642,283 L 642,284 L 640,286 L 640,288 L 639,289 L 639,292 L 638,293 L 638,296 L 637,297 L 637,299 L 635,301 L 634,301 L 632,303 L 632,304 L 631,305 L 626,305 L 623,308 L 622,308 L 621,309 L 621,317 L 622,318 L 623,318 L 624,319 L 626,319 L 627,320 L 628,320 L 629,321 L 659,321 L 660,320 L 661,320 L 662,319 L 664,319 L 665,318 L 667,318 L 668,317 L 670,317 L 671,316 L 678,316 L 678,311 L 679,310 L 681,310 L 681,308 L 682,307 L 685,307 L 686,306 L 687,306 L 687,298 L 688,297 L 688,296 L 689,295 L 688,294 L 688,285 L 689,284 L 689,283 L 687,283 L 686,284 L 684,284 L 683,285 L 676,285 L 675,284 L 674,284 L 669,279 L 669,276 Z" fill="none" stroke="black" stroke-width="1"/>
</svg>