<svg xmlns="http://www.w3.org/2000/svg" width="340" height="393">
  <path d="M 47,204 L 47,210 L 46,211 L 45,211 L 44,212 L 41,212 L 41,214 L 40,215 L 38,215 L 38,220 L 39,220 L 41,222 L 41,225 L 40,226 L 40,227 L 39,228 L 38,228 L 38,229 L 35,232 L 33,232 L 30,235 L 30,239 L 31,239 L 32,240 L 38,240 L 39,241 L 39,242 L 42,242 L 43,243 L 43,246 L 46,246 L 47,247 L 47,250 L 48,250 L 49,251 L 52,251 L 53,252 L 53,254 L 55,254 L 56,253 L 62,253 L 63,254 L 65,254 L 66,253 L 67,253 L 69,251 L 69,233 L 70,232 L 70,229 L 72,227 L 72,226 L 73,225 L 72,224 L 72,219 L 73,218 L 73,217 L 76,214 L 77,214 L 78,215 L 79,215 L 80,216 L 81,216 L 83,214 L 82,213 L 82,212 L 83,211 L 83,208 L 80,208 L 78,206 L 77,206 L 75,204 L 66,204 L 65,205 L 64,205 L 62,207 L 60,207 L 59,208 L 56,208 L 55,209 L 51,209 L 50,208 L 50,207 L 48,205 L 48,204 Z" fill="none" stroke="black" stroke-width="1"/>
</svg>