<svg xmlns="http://www.w3.org/2000/svg" width="340" height="393">
  <path d="M 140,273 L 140,276 L 139,277 L 139,278 L 138,279 L 138,281 L 140,283 L 139,284 L 137,284 L 136,285 L 135,284 L 133,284 L 132,285 L 132,288 L 131,289 L 131,291 L 130,292 L 127,292 L 127,294 L 126,295 L 126,298 L 124,300 L 126,300 L 127,301 L 136,301 L 137,300 L 142,300 L 143,301 L 148,301 L 151,298 L 154,298 L 154,297 L 156,295 L 156,294 L 157,293 L 158,293 L 160,291 L 161,291 L 162,290 L 163,290 L 163,289 L 164,288 L 169,288 L 169,287 L 167,287 L 166,286 L 166,285 L 165,284 L 165,282 L 164,282 L 163,281 L 162,281 L 161,280 L 160,280 L 159,279 L 159,277 L 158,276 L 153,276 L 152,275 L 152,274 L 151,273 L 148,273 L 147,274 L 144,274 L 143,273 Z" fill="none" stroke="black" stroke-width="1"/>
</svg>