<svg xmlns="http://www.w3.org/2000/svg" width="690" height="339">
  <path d="M 557,232 L 557,233 L 556,234 L 556,238 L 555,239 L 555,241 L 556,242 L 556,243 L 557,244 L 557,255 L 556,256 L 555,256 L 554,257 L 553,257 L 552,258 L 552,259 L 549,262 L 549,263 L 548,264 L 548,267 L 547,268 L 547,270 L 546,271 L 546,272 L 545,273 L 545,274 L 544,275 L 544,276 L 542,278 L 542,279 L 541,280 L 541,285 L 542,285 L 544,287 L 548,287 L 549,286 L 554,286 L 555,287 L 556,287 L 557,288 L 559,288 L 560,289 L 560,296 L 561,297 L 561,298 L 562,299 L 562,300 L 564,302 L 564,303 L 567,306 L 567,307 L 572,307 L 573,308 L 574,308 L 575,309 L 580,309 L 581,310 L 583,310 L 584,311 L 591,311 L 592,310 L 600,310 L 601,309 L 603,309 L 603,303 L 604,302 L 604,293 L 603,293 L 601,291 L 601,290 L 599,288 L 599,287 L 598,287 L 597,286 L 597,285 L 596,284 L 596,275 L 595,274 L 595,270 L 594,270 L 592,268 L 592,266 L 591,265 L 591,264 L 590,263 L 590,259 L 591,258 L 591,257 L 592,256 L 592,255 L 590,253 L 589,253 L 587,251 L 586,251 L 585,250 L 585,249 L 583,247 L 583,246 L 582,245 L 582,242 L 581,241 L 581,240 L 580,239 L 580,238 L 579,237 L 579,236 L 578,235 L 578,234 L 577,233 L 574,233 L 573,234 L 571,234 L 569,236 L 566,236 L 564,234 L 563,234 L 562,233 L 560,233 L 559,232 Z" fill="none" stroke="black" stroke-width="1"/>
</svg>