<svg xmlns="http://www.w3.org/2000/svg" width="340" height="393">
  <path d="M 57,73 L 56,74 L 54,74 L 52,76 L 51,76 L 51,77 L 50,78 L 48,78 L 48,79 L 47,80 L 46,80 L 46,82 L 45,83 L 42,83 L 41,84 L 39,84 L 39,85 L 38,86 L 38,88 L 37,89 L 35,89 L 35,90 L 33,92 L 33,93 L 28,98 L 22,98 L 21,97 L 18,97 L 17,98 L 11,98 L 10,99 L 7,99 L 7,100 L 8,100 L 12,104 L 12,109 L 11,110 L 11,120 L 12,121 L 12,126 L 13,127 L 13,129 L 12,130 L 12,131 L 11,132 L 10,132 L 6,136 L 5,136 L 4,137 L 4,138 L 7,141 L 7,142 L 28,142 L 29,143 L 30,143 L 31,144 L 33,144 L 38,149 L 38,150 L 39,150 L 39,149 L 41,147 L 41,146 L 42,145 L 43,145 L 43,144 L 44,143 L 44,131 L 45,130 L 45,128 L 47,126 L 47,125 L 49,123 L 49,122 L 50,121 L 54,121 L 55,120 L 56,120 L 57,119 L 59,119 L 60,118 L 62,118 L 62,117 L 63,116 L 63,115 L 64,114 L 64,109 L 65,108 L 65,107 L 67,105 L 67,101 L 68,100 L 68,98 L 67,97 L 67,93 L 66,92 L 65,92 L 64,91 L 64,89 L 63,88 L 63,86 L 61,84 L 61,77 L 60,76 L 59,76 L 58,75 L 58,73 Z" fill="none" stroke="black" stroke-width="1"/>
</svg>