<svg xmlns="http://www.w3.org/2000/svg" width="184" height="204">
  <path d="M 152,139 L 151,140 L 150,140 L 149,141 L 146,141 L 146,142 L 147,143 L 147,144 L 148,145 L 148,147 L 146,149 L 144,149 L 143,150 L 142,150 L 144,152 L 144,153 L 143,154 L 143,155 L 140,158 L 139,158 L 139,159 L 140,160 L 139,161 L 141,163 L 145,163 L 146,162 L 146,160 L 148,158 L 148,157 L 150,155 L 152,155 L 153,154 L 153,150 L 152,149 L 152,148 L 155,145 L 156,145 L 157,144 L 162,144 L 162,142 L 161,141 L 158,141 L 157,140 L 155,140 L 154,139 Z" fill="none" stroke="black" stroke-width="1"/>
</svg>