<svg xmlns="http://www.w3.org/2000/svg" width="690" height="339">
  <path d="M 639,232 L 638,233 L 637,233 L 636,234 L 635,234 L 633,236 L 632,236 L 631,237 L 630,237 L 629,238 L 629,240 L 630,241 L 630,242 L 632,244 L 632,250 L 633,251 L 633,253 L 634,254 L 634,258 L 635,259 L 635,263 L 637,265 L 637,268 L 638,269 L 638,270 L 639,271 L 639,280 L 640,280 L 642,282 L 658,282 L 658,281 L 659,280 L 659,279 L 660,278 L 660,276 L 661,275 L 670,275 L 670,274 L 671,273 L 671,264 L 670,263 L 670,258 L 668,256 L 665,256 L 664,255 L 664,253 L 663,252 L 663,251 L 662,250 L 662,249 L 661,248 L 661,239 L 648,239 L 647,238 L 647,237 L 644,234 L 644,233 L 643,233 L 642,232 Z" fill="none" stroke="black" stroke-width="1"/>
</svg>