<svg xmlns="http://www.w3.org/2000/svg" width="340" height="393">
  <path d="M 66,137 L 66,138 L 63,141 L 60,141 L 59,142 L 55,142 L 53,144 L 52,144 L 51,145 L 50,145 L 47,148 L 46,148 L 45,147 L 44,147 L 43,146 L 42,146 L 42,147 L 40,149 L 40,150 L 39,151 L 39,156 L 40,157 L 40,158 L 41,158 L 42,159 L 42,162 L 43,163 L 43,164 L 44,164 L 45,165 L 45,168 L 46,169 L 46,174 L 48,176 L 51,176 L 52,175 L 55,175 L 56,174 L 61,174 L 62,173 L 65,173 L 66,172 L 69,172 L 70,171 L 72,171 L 73,170 L 73,168 L 74,167 L 74,163 L 75,162 L 75,161 L 76,160 L 76,148 L 75,147 L 75,145 L 74,144 L 74,142 L 72,142 L 71,141 L 70,141 L 69,140 L 69,139 L 68,138 L 68,137 Z" fill="none" stroke="black" stroke-width="1"/>
</svg>