<svg xmlns="http://www.w3.org/2000/svg" width="340" height="393">
  <path d="M 118,199 L 117,200 L 115,200 L 115,202 L 114,203 L 114,208 L 116,210 L 117,210 L 118,211 L 118,214 L 115,217 L 115,218 L 113,220 L 113,224 L 116,224 L 118,226 L 118,227 L 123,227 L 124,228 L 124,229 L 127,229 L 128,228 L 130,228 L 130,227 L 131,226 L 136,226 L 136,219 L 137,218 L 137,210 L 136,210 L 135,209 L 127,209 L 126,208 L 126,207 L 125,206 L 125,205 L 124,205 L 123,204 L 123,203 L 121,203 L 118,200 Z" fill="none" stroke="black" stroke-width="1"/>
</svg>