<svg xmlns="http://www.w3.org/2000/svg" width="340" height="393">
  <path d="M 134,185 L 132,187 L 129,187 L 128,186 L 127,186 L 126,187 L 126,188 L 124,190 L 123,190 L 122,191 L 123,192 L 123,193 L 124,194 L 124,196 L 122,198 L 122,199 L 121,200 L 121,202 L 123,202 L 124,203 L 124,204 L 125,204 L 126,205 L 126,206 L 127,207 L 127,208 L 135,208 L 136,209 L 138,209 L 138,208 L 140,206 L 140,205 L 141,204 L 141,203 L 139,201 L 139,198 L 138,197 L 138,195 L 136,195 L 135,194 L 135,185 Z" fill="none" stroke="black" stroke-width="1"/>
</svg>