<svg xmlns="http://www.w3.org/2000/svg" width="340" height="393">
  <path d="M 87,127 L 86,128 L 84,128 L 83,129 L 82,129 L 81,130 L 79,130 L 78,131 L 77,131 L 76,132 L 73,132 L 73,135 L 72,136 L 71,136 L 70,137 L 69,137 L 69,138 L 70,139 L 70,140 L 71,140 L 72,141 L 74,141 L 75,142 L 75,144 L 76,145 L 76,147 L 77,148 L 77,160 L 76,161 L 76,162 L 75,163 L 75,166 L 76,166 L 77,167 L 79,167 L 80,166 L 81,166 L 81,165 L 84,162 L 86,162 L 87,161 L 91,161 L 92,160 L 95,160 L 97,158 L 98,158 L 98,157 L 97,156 L 97,152 L 96,151 L 96,149 L 99,146 L 99,144 L 96,141 L 96,140 L 95,139 L 95,137 L 94,136 L 94,135 L 93,134 L 93,130 L 92,129 L 92,128 L 91,127 Z" fill="none" stroke="black" stroke-width="1"/>
</svg>