<svg xmlns="http://www.w3.org/2000/svg" width="340" height="393">
  <path d="M 91,97 L 88,100 L 88,101 L 87,102 L 87,110 L 86,111 L 86,112 L 85,113 L 84,113 L 84,114 L 85,115 L 85,116 L 86,117 L 86,118 L 87,119 L 87,120 L 90,123 L 90,124 L 92,126 L 92,127 L 93,128 L 93,129 L 94,130 L 94,134 L 95,135 L 95,136 L 96,137 L 96,139 L 97,140 L 97,141 L 100,144 L 100,146 L 97,149 L 97,151 L 98,152 L 98,156 L 99,157 L 110,157 L 111,158 L 115,158 L 115,157 L 116,156 L 116,155 L 117,154 L 117,153 L 116,152 L 116,150 L 118,148 L 118,147 L 117,146 L 116,146 L 115,145 L 115,131 L 116,130 L 116,126 L 117,125 L 117,123 L 118,122 L 118,120 L 119,119 L 119,117 L 120,116 L 121,116 L 122,117 L 124,117 L 125,116 L 125,115 L 126,114 L 126,113 L 127,112 L 127,107 L 125,105 L 125,104 L 118,97 L 111,97 L 110,98 L 109,98 L 106,101 L 103,101 L 102,100 L 101,100 L 100,99 L 98,99 L 97,98 L 94,98 L 93,97 Z" fill="none" stroke="black" stroke-width="1"/>
</svg>