<svg xmlns="http://www.w3.org/2000/svg" width="340" height="393">
  <path d="M 126,148 L 124,150 L 122,150 L 121,149 L 118,149 L 117,150 L 117,152 L 118,153 L 118,154 L 117,155 L 117,157 L 119,157 L 120,158 L 121,158 L 122,159 L 122,162 L 123,162 L 124,163 L 124,166 L 128,166 L 130,168 L 136,168 L 137,169 L 138,169 L 139,170 L 139,171 L 140,171 L 141,172 L 141,175 L 143,175 L 144,176 L 146,176 L 146,173 L 147,172 L 147,169 L 146,168 L 146,167 L 145,166 L 145,165 L 144,164 L 144,162 L 145,161 L 145,158 L 144,157 L 144,156 L 142,156 L 142,157 L 141,158 L 137,158 L 136,157 L 136,156 L 135,156 L 133,154 L 133,153 L 130,153 L 128,151 L 128,150 L 127,149 L 127,148 Z" fill="none" stroke="black" stroke-width="1"/>
</svg>