<svg xmlns="http://www.w3.org/2000/svg" width="340" height="393">
  <path d="M 5,51 L 5,53 L 4,54 L 4,56 L 3,57 L 3,59 L 2,60 L 2,64 L 1,65 L 1,70 L 0,71 L 0,88 L 1,89 L 1,96 L 2,97 L 2,98 L 3,99 L 6,99 L 7,98 L 10,98 L 11,97 L 17,97 L 18,96 L 21,96 L 22,97 L 28,97 L 32,93 L 32,92 L 34,90 L 34,89 L 35,88 L 37,88 L 37,86 L 38,85 L 38,84 L 39,83 L 41,83 L 42,82 L 45,82 L 45,80 L 46,79 L 47,79 L 47,78 L 48,77 L 50,77 L 50,76 L 51,75 L 52,75 L 54,73 L 56,73 L 56,72 L 55,71 L 55,70 L 54,69 L 54,67 L 53,66 L 53,65 L 50,65 L 49,64 L 48,64 L 47,65 L 44,65 L 43,64 L 43,61 L 42,60 L 42,59 L 32,59 L 31,58 L 29,58 L 28,57 L 25,57 L 24,56 L 22,56 L 21,55 L 19,55 L 18,54 L 16,54 L 15,53 L 13,53 L 12,52 L 8,52 L 7,51 Z" fill="none" stroke="black" stroke-width="1"/>
</svg>