<svg xmlns="http://www.w3.org/2000/svg" width="340" height="393">
  <path d="M 99,58 L 97,60 L 85,60 L 84,59 L 72,59 L 71,60 L 70,60 L 69,61 L 64,61 L 63,62 L 60,62 L 59,63 L 57,63 L 56,64 L 55,64 L 54,65 L 54,66 L 55,67 L 55,69 L 56,70 L 56,71 L 57,72 L 58,72 L 59,73 L 59,75 L 60,75 L 62,77 L 62,84 L 64,86 L 64,88 L 65,89 L 65,91 L 66,91 L 68,93 L 68,97 L 69,98 L 69,100 L 68,101 L 68,102 L 70,102 L 71,103 L 71,104 L 72,105 L 72,106 L 73,107 L 74,107 L 75,108 L 77,108 L 78,109 L 79,109 L 81,111 L 82,111 L 83,112 L 85,112 L 85,111 L 86,110 L 86,102 L 87,101 L 87,100 L 91,96 L 93,96 L 94,97 L 97,97 L 98,98 L 100,98 L 101,99 L 102,99 L 103,100 L 106,100 L 109,97 L 109,96 L 108,95 L 108,92 L 107,91 L 107,88 L 106,87 L 106,84 L 105,83 L 105,78 L 104,77 L 104,68 L 103,67 L 103,63 L 102,62 L 102,60 L 100,58 Z" fill="none" stroke="black" stroke-width="1"/>
</svg>