<svg xmlns="http://www.w3.org/2000/svg" width="340" height="393">
  <path d="M 139,99 L 137,101 L 137,103 L 134,106 L 134,109 L 135,110 L 135,112 L 136,111 L 137,111 L 139,113 L 139,115 L 140,116 L 140,118 L 141,119 L 141,128 L 140,129 L 140,131 L 142,131 L 143,132 L 144,132 L 145,133 L 145,135 L 146,136 L 146,140 L 147,141 L 147,144 L 148,145 L 148,146 L 149,147 L 149,148 L 150,149 L 150,150 L 151,151 L 151,155 L 152,155 L 153,154 L 156,154 L 157,153 L 157,151 L 158,150 L 158,147 L 156,145 L 156,144 L 155,143 L 155,139 L 153,139 L 152,138 L 152,135 L 150,133 L 150,132 L 149,131 L 149,129 L 148,128 L 148,120 L 147,119 L 147,117 L 146,116 L 146,114 L 145,113 L 145,110 L 144,109 L 144,107 L 143,106 L 143,105 L 142,104 L 142,103 L 140,101 L 140,100 Z" fill="none" stroke="black" stroke-width="1"/>
</svg>