<svg xmlns="http://www.w3.org/2000/svg" width="340" height="393">
  <path d="M 98,43 L 98,47 L 99,48 L 99,50 L 100,51 L 100,57 L 103,60 L 103,62 L 104,63 L 104,67 L 105,68 L 105,77 L 106,78 L 106,83 L 107,84 L 107,87 L 108,88 L 108,91 L 109,92 L 109,95 L 110,96 L 110,97 L 111,96 L 118,96 L 126,104 L 126,105 L 128,107 L 130,105 L 131,105 L 132,106 L 133,106 L 136,103 L 136,101 L 139,98 L 139,97 L 138,97 L 137,96 L 136,96 L 135,95 L 133,95 L 131,93 L 131,92 L 130,91 L 130,90 L 129,90 L 126,87 L 123,87 L 121,85 L 121,84 L 120,83 L 120,81 L 119,80 L 119,75 L 118,74 L 118,67 L 117,66 L 117,58 L 118,57 L 118,56 L 117,55 L 117,51 L 116,50 L 116,48 L 115,47 L 114,47 L 113,46 L 107,46 L 106,45 L 104,45 L 103,44 L 101,44 L 100,43 Z" fill="none" stroke="black" stroke-width="1"/>
</svg>