<svg xmlns="http://www.w3.org/2000/svg" width="259" height="221">
  <path d="M 175,105 L 175,107 L 173,109 L 171,109 L 171,110 L 170,111 L 169,111 L 169,112 L 168,113 L 166,113 L 165,114 L 165,116 L 164,117 L 164,118 L 165,118 L 167,120 L 167,125 L 168,126 L 168,129 L 167,130 L 167,131 L 166,132 L 166,136 L 167,137 L 167,140 L 168,141 L 168,144 L 170,146 L 170,149 L 169,150 L 169,152 L 168,153 L 167,153 L 166,154 L 167,155 L 167,158 L 168,159 L 169,159 L 171,161 L 171,163 L 172,163 L 173,164 L 174,163 L 176,165 L 177,165 L 178,164 L 180,166 L 180,167 L 184,167 L 186,165 L 187,165 L 191,161 L 195,161 L 196,160 L 196,157 L 197,156 L 198,156 L 198,152 L 199,151 L 199,147 L 198,146 L 198,143 L 197,142 L 197,140 L 198,139 L 198,138 L 197,137 L 197,133 L 196,132 L 196,131 L 195,130 L 195,129 L 194,128 L 194,127 L 191,124 L 191,123 L 189,121 L 189,120 L 188,120 L 187,119 L 187,118 L 184,115 L 184,114 L 183,114 L 181,112 L 181,111 L 180,110 L 180,109 L 179,109 L 178,108 L 178,107 L 177,107 Z" fill="none" stroke="black" stroke-width="1"/>
</svg>