<svg xmlns="http://www.w3.org/2000/svg" width="259" height="221">
  <path d="M 200,164 L 200,166 L 196,170 L 195,170 L 194,169 L 193,169 L 193,171 L 192,172 L 191,172 L 189,174 L 189,177 L 188,178 L 188,179 L 190,179 L 191,180 L 193,180 L 194,181 L 197,181 L 198,182 L 200,182 L 201,183 L 203,183 L 204,184 L 206,184 L 207,185 L 209,185 L 210,186 L 211,186 L 212,187 L 213,187 L 215,189 L 216,189 L 220,185 L 220,183 L 223,180 L 223,178 L 224,177 L 223,176 L 223,175 L 222,174 L 222,172 L 221,171 L 221,169 L 220,168 L 219,168 L 218,167 L 218,166 L 217,166 L 216,165 L 216,164 L 213,167 L 206,167 L 205,166 L 203,166 L 201,164 Z" fill="none" stroke="black" stroke-width="1"/>
</svg>