<svg xmlns="http://www.w3.org/2000/svg" width="1790" height="1070">
  <path d="M 161,211 L 161,213 L 160,214 L 159,214 L 156,217 L 156,219 L 157,220 L 160,220 L 160,218 L 159,217 L 161,215 L 162,215 L 163,214 L 163,211 Z" fill="none" stroke="black" stroke-width="1"/>
  <path d="M 169,201 L 169,203 L 167,205 L 167,207 L 168,207 L 170,205 L 170,201 Z" fill="none" stroke="black" stroke-width="1"/>
  <path d="M 174,185 L 174,187 L 175,188 L 174,189 L 172,189 L 172,190 L 177,190 L 177,187 L 175,185 Z" fill="none" stroke="black" stroke-width="1"/>
  <path d="M 175,135 L 175,140 L 177,140 L 177,139 L 176,138 L 177,137 L 179,137 L 179,135 Z" fill="none" stroke="black" stroke-width="1"/>
  <path d="M 167,104 L 167,108 L 168,109 L 169,109 L 169,104 Z" fill="none" stroke="black" stroke-width="1"/>
  <path d="M 110,40 L 110,44 L 111,44 L 111,43 L 112,42 L 112,40 Z" fill="none" stroke="black" stroke-width="1"/>
  <path d="M 108,31 L 106,33 L 105,33 L 105,34 L 108,34 L 109,33 L 110,33 L 110,31 Z" fill="none" stroke="black" stroke-width="1"/>
  <path d="M 106,17 L 105,18 L 105,20 L 106,20 L 107,21 L 107,23 L 109,23 L 110,22 L 110,20 L 109,20 L 107,18 L 107,17 Z" fill="none" stroke="black" stroke-width="1"/>
</svg>