<svg xmlns="http://www.w3.org/2000/svg" width="1790" height="1070">
  <path d="M 276,500 L 276,501 L 275,502 L 274,502 L 273,503 L 272,503 L 270,501 L 266,501 L 266,502 L 267,503 L 267,504 L 268,505 L 268,509 L 269,510 L 269,511 L 267,513 L 263,513 L 262,514 L 261,514 L 259,516 L 259,518 L 258,519 L 258,520 L 256,522 L 254,522 L 253,523 L 252,523 L 250,521 L 249,521 L 247,523 L 244,523 L 243,522 L 243,519 L 242,518 L 243,517 L 243,516 L 244,515 L 245,515 L 244,514 L 243,514 L 242,515 L 242,518 L 241,519 L 242,520 L 242,521 L 240,523 L 238,523 L 237,522 L 236,522 L 235,523 L 231,523 L 230,524 L 228,522 L 227,522 L 226,521 L 225,522 L 219,522 L 218,521 L 217,521 L 217,522 L 216,523 L 216,524 L 218,526 L 221,526 L 222,527 L 223,527 L 225,529 L 226,529 L 228,531 L 228,532 L 230,530 L 233,530 L 235,532 L 235,533 L 236,534 L 240,534 L 241,533 L 242,534 L 243,534 L 244,533 L 245,533 L 246,534 L 248,534 L 249,533 L 250,533 L 252,531 L 254,531 L 255,530 L 256,530 L 257,529 L 260,529 L 263,526 L 263,525 L 264,524 L 264,523 L 265,522 L 270,522 L 271,523 L 272,522 L 273,522 L 275,520 L 275,519 L 272,516 L 272,514 L 273,513 L 277,513 L 278,512 L 278,511 L 279,510 L 279,504 L 278,503 L 277,503 L 276,502 L 277,501 Z" fill="none" stroke="black" stroke-width="1"/>
  <path d="M 282,483 L 283,484 L 283,483 Z" fill="none" stroke="black" stroke-width="1"/>
  <path d="M 256,480 L 256,481 L 258,481 L 257,481 Z" fill="none" stroke="black" stroke-width="1"/>
  <path d="M 256,475 L 255,476 L 255,478 L 256,477 L 257,477 L 258,478 L 259,478 L 260,479 L 260,480 L 261,480 L 262,481 L 263,481 L 266,484 L 267,484 L 270,487 L 271,487 L 272,488 L 273,488 L 274,489 L 276,489 L 277,490 L 278,490 L 279,491 L 279,492 L 282,495 L 282,496 L 283,497 L 283,498 L 284,499 L 284,500 L 285,501 L 285,504 L 284,505 L 285,506 L 285,507 L 287,509 L 287,510 L 288,510 L 288,509 L 290,507 L 290,506 L 289,505 L 291,503 L 291,502 L 289,500 L 289,499 L 287,497 L 286,497 L 285,496 L 284,496 L 281,493 L 281,492 L 280,492 L 278,490 L 277,490 L 275,488 L 275,487 L 274,486 L 273,486 L 272,485 L 270,485 L 264,479 L 260,479 L 259,478 L 259,477 L 258,476 L 257,476 Z" fill="none" stroke="black" stroke-width="1"/>
  <path d="M 244,472 L 243,473 L 241,473 L 242,474 L 243,474 L 245,476 L 249,476 L 249,474 L 248,473 L 247,473 L 246,472 Z" fill="none" stroke="black" stroke-width="1"/>
  <path d="M 235,456 L 235,457 L 236,458 L 237,458 L 238,459 L 238,458 L 237,457 L 237,456 Z" fill="none" stroke="black" stroke-width="1"/>
</svg>