<svg xmlns="http://www.w3.org/2000/svg" width="582" height="484">
  <path d="M 566,480 L 568,482 L 569,482 L 570,483 L 573,483 L 572,482 L 570,482 L 569,481 L 568,481 L 567,480 Z" fill="none" stroke="black" stroke-width="1"/>
  <path d="M 579,479 L 578,480 L 581,480 L 581,479 Z" fill="none" stroke="black" stroke-width="1"/>
  <path d="M 558,468 L 558,469 L 559,468 Z" fill="none" stroke="black" stroke-width="1"/>
  <path d="M 528,467 L 528,468 L 529,467 Z" fill="none" stroke="black" stroke-width="1"/>
  <path d="M 518,445 L 517,446 L 517,447 L 518,448 L 518,449 L 519,449 L 520,450 L 520,449 L 521,448 L 523,450 L 523,451 L 524,451 L 525,452 L 526,452 L 527,453 L 527,454 L 528,454 L 529,455 L 529,457 L 530,458 L 530,459 L 532,459 L 533,460 L 534,460 L 534,458 L 535,457 L 533,457 L 533,458 L 532,459 L 530,457 L 530,456 L 527,453 L 528,452 L 529,452 L 529,451 L 528,450 L 528,449 L 527,448 L 526,449 L 525,449 L 523,447 L 522,447 L 521,448 L 520,447 L 520,446 L 519,445 Z" fill="none" stroke="black" stroke-width="1"/>
  <path d="M 555,441 L 557,443 L 558,443 L 559,444 L 559,445 L 560,445 L 561,444 L 561,443 L 559,441 Z" fill="none" stroke="black" stroke-width="1"/>
  <path d="M 531,433 L 531,434 L 532,435 L 532,437 L 532,433 Z" fill="none" stroke="black" stroke-width="1"/>
  <path d="M 463,431 L 462,432 L 462,433 L 460,435 L 460,436 L 462,438 L 461,439 L 462,440 L 462,441 L 463,442 L 465,442 L 467,444 L 467,446 L 469,448 L 470,448 L 471,449 L 472,449 L 476,453 L 476,455 L 478,457 L 479,457 L 480,458 L 482,458 L 484,460 L 485,459 L 488,459 L 489,460 L 495,460 L 496,461 L 503,461 L 504,462 L 506,462 L 507,463 L 513,463 L 514,464 L 516,464 L 517,465 L 516,466 L 513,466 L 515,466 L 517,468 L 522,468 L 523,467 L 524,467 L 525,466 L 525,465 L 521,465 L 520,464 L 520,463 L 521,462 L 524,462 L 525,463 L 526,462 L 522,462 L 521,461 L 520,461 L 519,460 L 517,460 L 516,459 L 514,459 L 510,455 L 511,454 L 513,454 L 514,453 L 515,453 L 515,452 L 512,452 L 511,451 L 506,451 L 505,450 L 503,450 L 502,449 L 502,447 L 503,446 L 503,445 L 500,445 L 499,446 L 497,446 L 496,447 L 492,447 L 491,448 L 488,448 L 488,449 L 486,451 L 481,451 L 478,448 L 478,446 L 474,442 L 474,440 L 469,440 L 466,437 L 466,436 L 464,434 L 464,431 Z" fill="none" stroke="black" stroke-width="1"/>
</svg>