<svg xmlns="http://www.w3.org/2000/svg" width="1790" height="1070">
  <path d="M 398,618 L 398,619 L 399,620 L 403,620 L 404,621 L 404,622 L 405,623 L 406,622 L 405,622 L 403,620 L 402,620 L 401,619 L 400,619 L 399,618 Z" fill="none" stroke="black" stroke-width="1"/>
  <path d="M 418,597 L 418,598 L 420,598 L 422,600 L 422,602 L 424,604 L 425,604 L 426,605 L 427,605 L 428,606 L 432,606 L 433,607 L 434,607 L 433,606 L 433,604 L 431,602 L 431,601 L 430,601 L 429,602 L 428,601 L 425,601 L 423,599 L 422,599 L 420,597 Z" fill="none" stroke="black" stroke-width="1"/>
  <path d="M 393,582 L 392,583 L 392,586 L 396,590 L 397,590 L 398,591 L 400,591 L 401,590 L 403,590 L 404,591 L 406,591 L 407,592 L 409,592 L 410,591 L 410,590 L 406,586 L 405,586 L 404,585 L 397,585 L 394,582 Z" fill="none" stroke="black" stroke-width="1"/>
  <path d="M 400,578 L 400,579 L 402,579 L 403,580 L 404,580 L 402,578 Z" fill="none" stroke="black" stroke-width="1"/>
  <path d="M 384,578 L 384,579 Z" fill="none" stroke="black" stroke-width="1"/>
  <path d="M 359,573 L 359,574 L 360,574 L 361,575 L 362,575 L 360,573 Z" fill="none" stroke="black" stroke-width="1"/>
  <path d="M 356,569 L 355,570 L 355,571 L 357,573 L 357,569 Z" fill="none" stroke="black" stroke-width="1"/>
  <path d="M 407,567 L 410,570 L 409,571 L 409,574 L 410,575 L 410,577 L 411,578 L 411,579 L 413,581 L 414,581 L 418,585 L 418,586 L 422,590 L 422,588 L 421,587 L 421,586 L 420,585 L 420,584 L 420,585 L 419,586 L 418,585 L 418,583 L 417,582 L 417,581 L 416,580 L 417,579 L 416,578 L 416,577 L 415,577 L 412,574 L 412,573 L 413,572 L 413,571 L 410,568 L 410,567 Z" fill="none" stroke="black" stroke-width="1"/>
  <path d="M 358,562 L 357,563 L 357,564 L 356,565 L 355,565 L 355,566 L 356,566 L 357,565 L 360,565 L 361,566 L 361,567 L 362,568 L 361,569 L 363,569 L 364,570 L 365,570 L 366,571 L 365,572 L 366,573 L 368,573 L 368,572 L 369,571 L 368,570 L 367,570 L 366,571 L 365,570 L 365,569 L 363,567 L 363,566 L 362,565 L 361,565 L 360,564 L 360,562 Z" fill="none" stroke="black" stroke-width="1"/>
  <path d="M 344,561 L 344,563 L 345,564 L 345,562 Z" fill="none" stroke="black" stroke-width="1"/>
  <path d="M 352,560 L 351,561 L 351,562 L 352,563 L 354,563 L 354,561 L 353,560 Z" fill="none" stroke="black" stroke-width="1"/>
  <path d="M 372,555 L 373,555 L 374,556 L 375,556 L 377,558 L 378,558 L 380,560 L 380,561 L 381,561 L 383,563 L 384,563 L 385,564 L 386,564 L 387,565 L 388,565 L 389,566 L 390,566 L 391,567 L 391,569 L 392,569 L 393,570 L 393,569 L 394,568 L 396,570 L 397,570 L 397,569 L 393,565 L 392,565 L 389,562 L 387,562 L 386,561 L 384,561 L 379,556 L 378,556 L 377,555 Z" fill="none" stroke="black" stroke-width="1"/>
  <path d="M 345,555 L 344,556 L 344,557 L 346,559 L 347,558 L 348,558 L 348,557 L 347,557 Z" fill="none" stroke="black" stroke-width="1"/>
  <path d="M 331,546 L 331,547 L 333,547 L 333,546 Z" fill="none" stroke="black" stroke-width="1"/>
  <path d="M 343,540 L 343,541 L 345,543 L 346,543 L 347,544 L 347,545 L 351,549 L 352,549 L 354,551 L 356,551 L 357,552 L 358,552 L 359,551 L 357,551 L 356,550 L 355,550 L 353,548 L 353,546 L 351,544 L 350,544 L 348,542 L 347,542 L 345,540 Z" fill="none" stroke="black" stroke-width="1"/>
  <path d="M 317,522 L 316,523 L 316,528 L 321,533 L 322,533 L 324,535 L 324,539 L 327,542 L 328,542 L 329,543 L 331,543 L 332,542 L 334,542 L 335,541 L 335,540 L 334,539 L 334,538 L 333,537 L 333,536 L 332,536 L 329,533 L 328,533 L 326,531 L 326,530 L 323,527 L 323,526 L 321,524 L 321,523 L 318,523 Z" fill="none" stroke="black" stroke-width="1"/>
  <path d="M 314,514 L 313,515 L 313,518 L 314,519 L 314,520 L 315,520 L 315,515 Z" fill="none" stroke="black" stroke-width="1"/>
</svg>