<svg xmlns="http://www.w3.org/2000/svg" width="1790" height="1070">
  <path d="M 550,760 L 552,760 Z" fill="none" stroke="black" stroke-width="1"/>
  <path d="M 543,746 L 542,747 L 542,748 L 545,751 L 545,750 L 546,749 L 544,747 L 544,746 Z" fill="none" stroke="black" stroke-width="1"/>
  <path d="M 540,734 L 539,735 L 539,738 L 540,738 L 541,739 L 542,739 L 543,740 L 543,738 L 542,738 L 541,737 L 541,735 Z" fill="none" stroke="black" stroke-width="1"/>
  <path d="M 527,717 L 526,718 L 526,719 L 527,718 L 529,720 L 531,720 L 531,718 L 530,717 Z" fill="none" stroke="black" stroke-width="1"/>
  <path d="M 525,702 L 525,703 L 526,704 L 529,704 L 530,705 L 530,704 L 528,704 L 526,702 Z" fill="none" stroke="black" stroke-width="1"/>
  <path d="M 525,693 L 523,695 L 522,695 L 523,696 L 527,696 L 526,695 L 526,694 Z" fill="none" stroke="black" stroke-width="1"/>
  <path d="M 511,689 L 511,690 L 510,691 L 510,693 L 513,693 L 514,694 L 514,700 L 515,700 L 516,699 L 519,699 L 519,697 L 518,697 L 515,694 L 514,694 L 513,693 L 513,691 Z" fill="none" stroke="black" stroke-width="1"/>
  <path d="M 525,685 L 525,687 L 526,688 L 526,690 L 527,690 L 527,689 L 526,688 L 526,687 L 525,686 Z" fill="none" stroke="black" stroke-width="1"/>
  <path d="M 520,680 L 518,682 L 521,682 L 522,681 L 522,680 Z" fill="none" stroke="black" stroke-width="1"/>
  <path d="M 525,675 L 525,680 Z" fill="none" stroke="black" stroke-width="1"/>
  <path d="M 501,669 L 500,670 L 500,673 L 501,674 L 501,676 L 502,677 L 502,682 L 503,683 L 503,684 L 504,685 L 505,684 L 508,684 L 509,685 L 509,686 L 510,687 L 510,685 L 509,685 L 508,684 L 509,683 L 510,683 L 510,680 L 509,679 L 509,677 L 508,676 L 508,675 L 507,674 L 507,677 L 506,678 L 505,678 L 504,677 L 504,675 L 503,674 L 503,672 L 501,670 Z" fill="none" stroke="black" stroke-width="1"/>
  <path d="M 514,661 L 514,663 L 516,663 L 516,662 L 515,661 Z" fill="none" stroke="black" stroke-width="1"/>
  <path d="M 514,654 L 514,656 L 515,657 L 516,656 L 515,655 L 515,654 Z" fill="none" stroke="black" stroke-width="1"/>
  <path d="M 504,618 L 504,620 L 505,621 L 507,621 L 507,618 Z" fill="none" stroke="black" stroke-width="1"/>
  <path d="M 489,603 L 489,604 L 488,605 L 488,610 L 494,610 L 495,609 L 495,608 L 496,607 L 497,607 L 497,603 Z" fill="none" stroke="black" stroke-width="1"/>
</svg>