<svg xmlns="http://www.w3.org/2000/svg" width="1790" height="1070">
  <path d="M 1062,58 L 1062,60 L 1063,61 L 1063,62 L 1059,66 L 1060,67 L 1060,69 L 1061,70 L 1061,71 L 1062,72 L 1062,75 L 1061,76 L 1062,77 L 1062,78 L 1064,78 L 1065,79 L 1066,78 L 1066,77 L 1069,74 L 1072,74 L 1073,73 L 1075,73 L 1077,71 L 1077,69 L 1076,69 L 1075,68 L 1075,67 L 1074,66 L 1074,65 L 1072,63 L 1072,62 L 1071,62 L 1070,61 L 1068,61 L 1067,60 L 1065,60 L 1063,58 Z" fill="none" stroke="black" stroke-width="1"/>
</svg>