<svg xmlns="http://www.w3.org/2000/svg" width="1790" height="1070">
  <path d="M 831,504 L 831,505 L 830,506 L 830,507 L 832,507 L 832,504 Z" fill="none" stroke="black" stroke-width="1"/>
  <path d="M 845,503 L 845,506 L 846,507 L 849,507 L 851,505 L 851,504 L 849,504 L 848,505 L 846,503 Z" fill="none" stroke="black" stroke-width="1"/>
  <path d="M 812,493 L 812,494 L 813,495 L 817,495 L 817,493 L 816,493 L 815,494 L 814,493 Z" fill="none" stroke="black" stroke-width="1"/>
  <path d="M 856,492 L 856,493 L 855,494 L 855,495 L 858,495 L 858,492 Z" fill="none" stroke="black" stroke-width="1"/>
  <path d="M 802,492 L 801,493 L 801,495 L 804,495 L 804,492 Z" fill="none" stroke="black" stroke-width="1"/>
  <path d="M 842,489 L 841,490 L 840,490 L 840,491 L 841,492 L 841,493 L 842,494 L 844,494 L 844,493 L 846,491 L 846,490 L 845,490 L 844,489 Z" fill="none" stroke="black" stroke-width="1"/>
  <path d="M 846,483 L 846,484 L 848,484 L 849,485 L 850,485 L 850,484 L 849,483 Z" fill="none" stroke="black" stroke-width="1"/>
  <path d="M 839,478 L 838,479 L 838,481 L 840,481 L 842,479 L 842,478 Z" fill="none" stroke="black" stroke-width="1"/>
  <path d="M 794,466 L 794,469 L 795,469 L 796,468 L 796,466 Z" fill="none" stroke="black" stroke-width="1"/>
  <path d="M 780,458 L 780,459 L 781,460 L 781,462 L 783,462 L 784,461 L 784,459 L 783,459 L 782,458 Z" fill="none" stroke="black" stroke-width="1"/>
  <path d="M 789,449 L 789,450 L 791,450 L 792,451 L 792,452 L 793,452 L 793,449 Z" fill="none" stroke="black" stroke-width="1"/>
</svg>