<svg xmlns="http://www.w3.org/2000/svg" width="1790" height="1070">
  <path d="M 963,745 L 962,746 L 962,748 L 964,750 L 965,750 L 966,751 L 967,751 L 969,749 L 969,748 L 967,746 L 967,745 Z" fill="none" stroke="black" stroke-width="1"/>
  <path d="M 950,739 L 948,741 L 948,742 L 950,744 L 951,744 L 953,742 L 953,741 L 951,739 Z" fill="none" stroke="black" stroke-width="1"/>
  <path d="M 884,739 L 882,741 L 882,743 L 883,743 L 884,744 L 886,744 L 886,739 Z" fill="none" stroke="black" stroke-width="1"/>
  <path d="M 792,684 L 792,685 L 793,686 L 795,686 L 796,685 L 796,684 Z" fill="none" stroke="black" stroke-width="1"/>
  <path d="M 887,663 L 887,664 L 888,665 L 888,666 L 890,666 L 890,664 L 889,663 Z" fill="none" stroke="black" stroke-width="1"/>
  <path d="M 870,661 L 869,662 L 869,664 L 872,664 L 873,663 L 874,663 L 874,661 Z" fill="none" stroke="black" stroke-width="1"/>
  <path d="M 754,661 L 753,662 L 753,663 L 754,664 L 758,664 L 758,662 L 756,662 L 755,661 Z" fill="none" stroke="black" stroke-width="1"/>
  <path d="M 884,658 L 884,660 L 887,660 L 887,658 Z" fill="none" stroke="black" stroke-width="1"/>
  <path d="M 851,654 L 851,658 L 852,658 L 853,659 L 860,659 L 860,656 L 859,656 L 858,655 L 857,655 L 856,654 Z" fill="none" stroke="black" stroke-width="1"/>
  <path d="M 842,648 L 841,649 L 838,649 L 838,651 L 841,654 L 841,655 L 848,655 L 849,654 L 849,651 L 848,650 L 848,649 L 847,648 Z" fill="none" stroke="black" stroke-width="1"/>
  <path d="M 785,642 L 784,643 L 784,648 L 785,649 L 785,650 L 786,650 L 786,646 L 787,645 L 787,642 Z" fill="none" stroke="black" stroke-width="1"/>
  <path d="M 862,583 L 862,587 L 863,588 L 865,588 L 865,583 Z" fill="none" stroke="black" stroke-width="1"/>
  <path d="M 850,579 L 850,580 L 851,581 L 851,582 L 852,583 L 854,583 L 854,579 Z" fill="none" stroke="black" stroke-width="1"/>
  <path d="M 841,566 L 841,567 L 842,568 L 841,569 L 841,572 L 844,572 L 844,567 L 843,567 L 842,566 Z" fill="none" stroke="black" stroke-width="1"/>
</svg>