<svg xmlns="http://www.w3.org/2000/svg" width="1790" height="1070">
  <path d="M 1427,814 L 1427,815 L 1428,815 L 1428,814 Z" fill="none" stroke="black" stroke-width="1"/>
  <path d="M 1432,813 L 1432,815 L 1433,815 L 1433,813 Z" fill="none" stroke="black" stroke-width="1"/>
  <path d="M 1395,811 L 1396,812 L 1396,811 Z" fill="none" stroke="black" stroke-width="1"/>
  <path d="M 1428,809 L 1430,811 L 1431,811 L 1431,810 L 1430,809 Z" fill="none" stroke="black" stroke-width="1"/>
  <path d="M 1450,802 L 1449,803 L 1450,803 Z" fill="none" stroke="black" stroke-width="1"/>
  <path d="M 1369,795 L 1369,796 L 1370,796 L 1370,795 Z" fill="none" stroke="black" stroke-width="1"/>
  <path d="M 1410,791 L 1409,792 L 1410,792 Z" fill="none" stroke="black" stroke-width="1"/>
  <path d="M 1367,788 L 1365,790 L 1367,790 L 1368,789 L 1369,789 L 1369,788 Z" fill="none" stroke="black" stroke-width="1"/>
  <path d="M 1339,786 L 1339,788 L 1340,787 L 1340,786 Z" fill="none" stroke="black" stroke-width="1"/>
  <path d="M 1419,782 L 1418,783 L 1418,784 L 1419,785 L 1420,784 L 1421,784 L 1420,783 L 1420,782 Z" fill="none" stroke="black" stroke-width="1"/>
  <path d="M 1406,782 L 1406,783 Z" fill="none" stroke="black" stroke-width="1"/>
  <path d="M 1401,780 L 1404,780 Z" fill="none" stroke="black" stroke-width="1"/>
  <path d="M 1372,771 L 1373,772 L 1373,773 L 1374,772 L 1374,771 Z" fill="none" stroke="black" stroke-width="1"/>
  <path d="M 1363,771 L 1364,771 Z" fill="none" stroke="black" stroke-width="1"/>
  <path d="M 1298,768 L 1299,768 Z" fill="none" stroke="black" stroke-width="1"/>
  <path d="M 1295,764 L 1295,765 Z" fill="none" stroke="black" stroke-width="1"/>
  <path d="M 1271,755 L 1272,756 L 1273,756 L 1273,755 Z" fill="none" stroke="black" stroke-width="1"/>
  <path d="M 1344,750 L 1344,752 Z" fill="none" stroke="black" stroke-width="1"/>
  <path d="M 1362,746 L 1362,747 L 1363,746 Z" fill="none" stroke="black" stroke-width="1"/>
  <path d="M 1369,745 L 1369,746 Z" fill="none" stroke="black" stroke-width="1"/>
  <path d="M 1331,743 L 1330,744 L 1331,744 Z" fill="none" stroke="black" stroke-width="1"/>
  <path d="M 1339,742 L 1339,743 L 1340,743 L 1340,742 Z" fill="none" stroke="black" stroke-width="1"/>
  <path d="M 1368,736 L 1367,737 L 1369,737 L 1369,736 Z" fill="none" stroke="black" stroke-width="1"/>
  <path d="M 1322,736 L 1321,737 L 1321,738 L 1322,738 Z" fill="none" stroke="black" stroke-width="1"/>
  <path d="M 1404,732 L 1406,734 L 1407,734 L 1407,733 L 1406,732 Z" fill="none" stroke="black" stroke-width="1"/>
  <path d="M 1395,728 L 1395,730 L 1397,730 L 1397,729 L 1396,729 Z" fill="none" stroke="black" stroke-width="1"/>
  <path d="M 1317,727 L 1315,729 L 1316,729 L 1317,728 Z" fill="none" stroke="black" stroke-width="1"/>
  <path d="M 1334,725 L 1334,728 L 1335,728 L 1338,731 L 1340,731 L 1339,730 L 1338,730 L 1337,729 L 1338,728 L 1338,727 L 1336,725 Z" fill="none" stroke="black" stroke-width="1"/>
  <path d="M 1312,724 L 1312,725 L 1313,726 L 1315,726 L 1316,725 L 1316,724 Z" fill="none" stroke="black" stroke-width="1"/>
  <path d="M 1301,721 L 1302,722 L 1302,721 Z" fill="none" stroke="black" stroke-width="1"/>
  <path d="M 1340,718 L 1337,721 L 1338,722 L 1340,720 Z" fill="none" stroke="black" stroke-width="1"/>
  <path d="M 1308,716 L 1308,717 L 1309,718 L 1310,718 L 1310,716 Z" fill="none" stroke="black" stroke-width="1"/>
  <path d="M 1296,714 L 1296,716 L 1297,715 Z" fill="none" stroke="black" stroke-width="1"/>
  <path d="M 1326,713 L 1326,714 L 1327,713 Z" fill="none" stroke="black" stroke-width="1"/>
  <path d="M 1375,712 L 1374,713 L 1375,714 L 1376,713 L 1376,712 Z" fill="none" stroke="black" stroke-width="1"/>
  <path d="M 1310,712 L 1309,713 L 1310,713 Z" fill="none" stroke="black" stroke-width="1"/>
  <path d="M 1263,712 L 1263,713 L 1265,715 L 1266,715 L 1264,713 L 1264,712 Z" fill="none" stroke="black" stroke-width="1"/>
  <path d="M 1282,708 L 1281,709 L 1281,710 L 1283,710 L 1283,709 Z" fill="none" stroke="black" stroke-width="1"/>
  <path d="M 1298,706 L 1298,707 L 1301,710 L 1302,710 L 1302,708 L 1300,706 Z" fill="none" stroke="black" stroke-width="1"/>
  <path d="M 1319,704 L 1320,705 L 1321,705 L 1320,704 Z" fill="none" stroke="black" stroke-width="1"/>
  <path d="M 1282,704 L 1282,705 L 1283,704 Z" fill="none" stroke="black" stroke-width="1"/>
  <path d="M 1275,703 L 1273,705 L 1275,705 L 1277,707 L 1278,707 L 1279,706 L 1279,705 L 1278,705 L 1277,704 L 1276,704 Z" fill="none" stroke="black" stroke-width="1"/>
  <path d="M 1283,702 L 1284,702 Z" fill="none" stroke="black" stroke-width="1"/>
  <path d="M 1267,702 L 1267,703 L 1268,704 L 1270,704 L 1268,702 Z" fill="none" stroke="black" stroke-width="1"/>
  <path d="M 1305,701 L 1306,702 L 1306,703 L 1307,702 L 1306,701 Z" fill="none" stroke="black" stroke-width="1"/>
  <path d="M 1287,698 L 1290,701 L 1291,701 L 1292,702 L 1293,702 L 1294,703 L 1296,703 L 1297,702 L 1297,701 L 1293,701 L 1292,700 L 1291,700 L 1289,698 Z" fill="none" stroke="black" stroke-width="1"/>
  <path d="M 1281,697 L 1281,699 L 1283,699 L 1283,698 L 1282,697 Z" fill="none" stroke="black" stroke-width="1"/>
  <path d="M 1299,695 L 1299,696 L 1301,698 L 1302,698 L 1303,697 L 1303,696 L 1302,695 Z" fill="none" stroke="black" stroke-width="1"/>
  <path d="M 1274,691 L 1273,692 L 1272,692 L 1272,694 L 1273,695 L 1275,695 L 1275,694 L 1276,693 Z" fill="none" stroke="black" stroke-width="1"/>
  <path d="M 1261,691 L 1259,693 L 1259,694 L 1260,695 L 1260,696 L 1261,696 L 1262,697 L 1262,698 L 1263,698 L 1265,700 L 1266,699 L 1267,699 L 1266,698 L 1266,697 L 1265,697 L 1264,696 L 1264,694 L 1263,694 L 1262,693 L 1262,692 Z" fill="none" stroke="black" stroke-width="1"/>
  <path d="M 1347,690 L 1348,691 L 1349,690 Z" fill="none" stroke="black" stroke-width="1"/>
  <path d="M 1337,687 L 1336,688 L 1337,688 Z" fill="none" stroke="black" stroke-width="1"/>
  <path d="M 1268,687 L 1267,688 L 1269,690 L 1271,690 L 1271,689 L 1270,688 L 1270,687 Z" fill="none" stroke="black" stroke-width="1"/>
  <path d="M 1253,687 L 1253,690 L 1254,691 L 1258,691 L 1258,688 L 1257,688 L 1256,687 Z" fill="none" stroke="black" stroke-width="1"/>
  <path d="M 1220,687 L 1221,688 L 1222,688 L 1222,687 Z" fill="none" stroke="black" stroke-width="1"/>
  <path d="M 1316,686 L 1311,691 L 1310,691 L 1310,694 L 1311,695 L 1312,694 L 1313,694 L 1313,693 L 1314,692 L 1314,691 L 1313,690 L 1313,689 L 1314,688 L 1316,688 L 1317,687 L 1317,686 Z" fill="none" stroke="black" stroke-width="1"/>
  <path d="M 1277,685 L 1277,687 L 1278,686 Z" fill="none" stroke="black" stroke-width="1"/>
  <path d="M 1243,685 L 1243,686 L 1244,687 L 1246,687 L 1247,688 L 1248,688 L 1248,686 L 1247,686 L 1246,685 Z" fill="none" stroke="black" stroke-width="1"/>
  <path d="M 1263,682 L 1263,684 L 1264,684 L 1265,683 L 1265,682 Z" fill="none" stroke="black" stroke-width="1"/>
  <path d="M 1250,679 L 1250,684 L 1252,684 L 1253,683 L 1253,680 L 1252,679 Z" fill="none" stroke="black" stroke-width="1"/>
  <path d="M 1244,678 L 1243,679 L 1243,680 L 1244,681 L 1246,681 L 1247,680 L 1247,679 L 1246,679 L 1245,678 Z" fill="none" stroke="black" stroke-width="1"/>
  <path d="M 1227,674 L 1227,676 L 1228,677 L 1229,677 L 1230,678 L 1231,678 L 1232,679 L 1237,679 L 1237,678 L 1236,678 L 1235,677 L 1234,677 L 1232,675 L 1231,675 L 1230,674 Z" fill="none" stroke="black" stroke-width="1"/>
  <path d="M 1279,673 L 1278,674 L 1279,674 Z" fill="none" stroke="black" stroke-width="1"/>
  <path d="M 1221,673 L 1221,675 L 1224,675 L 1224,674 L 1223,673 Z" fill="none" stroke="black" stroke-width="1"/>
  <path d="M 1214,672 L 1215,673 L 1216,672 Z" fill="none" stroke="black" stroke-width="1"/>
  <path d="M 1368,670 L 1368,672 L 1369,672 L 1369,671 Z" fill="none" stroke="black" stroke-width="1"/>
  <path d="M 1268,668 L 1268,669 L 1269,669 L 1270,668 Z" fill="none" stroke="black" stroke-width="1"/>
  <path d="M 1272,664 L 1271,665 L 1271,666 L 1273,666 L 1274,665 L 1274,664 Z" fill="none" stroke="black" stroke-width="1"/>
  <path d="M 1251,664 L 1251,665 L 1250,666 L 1250,667 L 1251,667 L 1252,666 L 1252,664 Z" fill="none" stroke="black" stroke-width="1"/>
  <path d="M 1257,663 L 1255,665 L 1255,666 L 1258,666 L 1259,665 L 1259,664 L 1258,663 Z" fill="none" stroke="black" stroke-width="1"/>
  <path d="M 1330,661 L 1332,661 Z" fill="none" stroke="black" stroke-width="1"/>
</svg>