<svg xmlns="http://www.w3.org/2000/svg" width="582" height="484">
  <path d="M 206,325 L 205,326 L 203,326 L 202,327 L 200,327 L 199,328 L 200,329 L 201,329 L 202,330 L 208,330 L 209,329 L 209,326 L 208,325 Z" fill="none" stroke="black" stroke-width="1"/>
  <path d="M 201,316 L 200,317 L 199,317 L 201,317 Z" fill="none" stroke="black" stroke-width="1"/>
  <path d="M 278,313 L 278,314 L 279,315 L 280,315 L 280,314 L 279,313 Z" fill="none" stroke="black" stroke-width="1"/>
  <path d="M 287,308 L 287,309 L 288,310 L 290,310 L 291,311 L 292,310 L 293,311 L 293,312 L 294,313 L 294,315 L 295,316 L 297,316 L 298,317 L 300,317 L 302,315 L 300,315 L 297,312 L 297,311 L 296,311 L 294,309 L 289,309 L 288,308 Z" fill="none" stroke="black" stroke-width="1"/>
  <path d="M 240,303 L 239,304 L 237,304 L 236,305 L 235,305 L 231,309 L 230,309 L 229,310 L 227,310 L 226,309 L 225,310 L 223,310 L 223,314 L 222,315 L 222,316 L 220,318 L 219,318 L 218,317 L 219,316 L 219,313 L 218,312 L 217,313 L 216,312 L 216,310 L 215,311 L 210,311 L 214,311 L 215,312 L 214,313 L 213,313 L 214,314 L 214,317 L 215,318 L 216,318 L 218,320 L 220,320 L 222,322 L 224,320 L 226,320 L 227,321 L 228,321 L 230,323 L 232,323 L 233,324 L 233,328 L 234,329 L 234,330 L 236,332 L 237,332 L 239,334 L 240,333 L 241,333 L 242,332 L 243,332 L 244,333 L 244,334 L 245,334 L 246,333 L 247,333 L 248,334 L 249,334 L 250,333 L 252,333 L 253,332 L 254,332 L 255,333 L 260,333 L 262,331 L 264,331 L 265,332 L 267,330 L 267,328 L 266,327 L 267,326 L 266,325 L 266,324 L 267,323 L 268,323 L 268,321 L 269,320 L 269,319 L 266,316 L 266,315 L 265,314 L 265,312 L 266,311 L 264,309 L 261,309 L 260,310 L 256,310 L 255,309 L 254,309 L 253,308 L 253,307 L 252,306 L 250,306 L 249,305 L 247,305 L 246,304 L 244,304 L 243,303 Z" fill="none" stroke="black" stroke-width="1"/>
  <path d="M 208,299 L 209,299 L 210,300 L 209,301 L 207,301 L 210,301 L 211,302 L 211,303 L 212,304 L 211,305 L 210,305 L 211,306 L 212,306 L 214,304 L 216,304 L 212,300 L 212,299 Z" fill="none" stroke="black" stroke-width="1"/>
  <path d="M 214,298 L 214,299 L 215,299 L 219,303 L 220,302 L 221,302 L 222,303 L 223,302 L 222,301 L 222,300 L 221,299 L 219,299 L 218,298 Z" fill="none" stroke="black" stroke-width="1"/>
  <path d="M 230,251 L 229,252 L 229,253 L 230,253 Z" fill="none" stroke="black" stroke-width="1"/>
</svg>