<svg xmlns="http://www.w3.org/2000/svg" width="1790" height="1070">
  <path d="M 517,1054 L 517,1059 L 518,1060 L 518,1055 Z" fill="none" stroke="black" stroke-width="1"/>
  <path d="M 519,1051 L 518,1052 L 517,1052 L 520,1052 L 520,1051 Z" fill="none" stroke="black" stroke-width="1"/>
  <path d="M 608,969 L 607,970 L 604,970 L 604,972 L 602,974 L 602,975 L 598,979 L 597,979 L 596,980 L 594,980 L 594,982 L 593,983 L 593,984 L 592,985 L 592,988 L 591,989 L 591,991 L 590,992 L 590,993 L 589,994 L 589,995 L 585,999 L 585,1000 L 583,1002 L 582,1002 L 581,1003 L 580,1003 L 579,1004 L 577,1004 L 576,1005 L 575,1005 L 575,1006 L 574,1007 L 573,1007 L 572,1008 L 572,1009 L 571,1010 L 570,1010 L 568,1012 L 568,1013 L 566,1015 L 564,1015 L 563,1016 L 561,1016 L 559,1018 L 558,1018 L 556,1020 L 555,1020 L 552,1023 L 546,1023 L 545,1024 L 545,1025 L 539,1031 L 538,1031 L 538,1032 L 537,1033 L 536,1032 L 535,1033 L 534,1033 L 534,1034 L 533,1035 L 533,1036 L 532,1037 L 530,1037 L 529,1038 L 527,1038 L 528,1039 L 527,1040 L 528,1041 L 527,1042 L 526,1042 L 524,1044 L 525,1044 L 526,1043 L 527,1043 L 528,1044 L 527,1045 L 527,1047 L 526,1048 L 522,1048 L 524,1048 L 525,1049 L 524,1050 L 523,1050 L 522,1051 L 522,1052 L 524,1052 L 525,1053 L 524,1054 L 521,1054 L 521,1055 L 520,1056 L 521,1057 L 520,1058 L 520,1059 L 521,1060 L 520,1061 L 521,1061 L 522,1062 L 530,1062 L 531,1061 L 534,1061 L 537,1064 L 539,1064 L 540,1063 L 541,1064 L 543,1064 L 545,1066 L 544,1067 L 544,1068 L 545,1067 L 546,1067 L 547,1068 L 548,1068 L 549,1067 L 550,1067 L 551,1068 L 552,1068 L 553,1069 L 558,1069 L 558,1067 L 557,1066 L 557,1063 L 556,1062 L 556,1061 L 555,1060 L 555,1058 L 552,1055 L 552,1051 L 551,1050 L 551,1047 L 552,1046 L 552,1045 L 551,1044 L 551,1043 L 553,1041 L 554,1041 L 555,1040 L 555,1039 L 557,1037 L 556,1036 L 555,1037 L 553,1037 L 550,1034 L 550,1032 L 551,1031 L 553,1031 L 554,1030 L 555,1030 L 555,1029 L 556,1028 L 557,1028 L 560,1025 L 561,1025 L 562,1024 L 564,1024 L 564,1022 L 565,1021 L 567,1021 L 568,1020 L 569,1020 L 571,1018 L 572,1018 L 572,1017 L 573,1016 L 574,1016 L 575,1015 L 576,1015 L 576,1014 L 579,1011 L 580,1011 L 580,1010 L 583,1007 L 586,1007 L 588,1005 L 588,1004 L 590,1002 L 591,1002 L 591,1001 L 592,1000 L 593,1000 L 594,999 L 596,999 L 597,998 L 602,998 L 603,997 L 604,997 L 608,993 L 608,991 L 609,990 L 612,990 L 612,988 L 614,986 L 615,986 L 615,985 L 614,984 L 610,984 L 609,983 L 607,983 L 606,982 L 606,979 L 611,974 L 610,973 L 611,972 L 611,970 L 610,969 Z" fill="none" stroke="black" stroke-width="1"/>
</svg>