<svg xmlns="http://www.w3.org/2000/svg" width="184" height="204">
  <path d="M 41,69 L 41,74 L 40,75 L 39,74 L 36,74 L 34,76 L 33,76 L 32,77 L 31,77 L 30,78 L 30,79 L 29,80 L 31,82 L 30,83 L 29,83 L 29,84 L 30,84 L 32,86 L 31,87 L 30,87 L 29,88 L 32,88 L 33,89 L 32,90 L 32,91 L 31,92 L 33,92 L 34,93 L 33,94 L 33,95 L 34,95 L 35,96 L 36,96 L 38,98 L 38,97 L 39,96 L 39,95 L 41,93 L 41,88 L 42,87 L 42,86 L 44,84 L 44,81 L 43,80 L 43,76 L 42,75 L 42,73 L 43,72 L 42,71 L 42,69 Z" fill="none" stroke="black" stroke-width="1"/>
</svg>