<svg xmlns="http://www.w3.org/2000/svg" width="561" height="491">
  <path d="M 5,262 L 6,263 L 7,262 Z" fill="none" stroke="black" stroke-width="1"/>
  <path d="M 9,237 L 8,238 L 7,238 L 7,239 L 8,240 L 8,241 L 7,242 L 5,242 L 4,243 L 4,247 L 5,248 L 8,248 L 9,247 L 11,247 L 12,246 L 12,243 L 10,241 L 10,238 Z" fill="none" stroke="black" stroke-width="1"/>
  <path d="M 13,218 L 12,219 L 11,219 L 9,221 L 10,222 L 10,223 L 11,223 L 12,222 L 13,222 L 13,219 L 14,218 Z" fill="none" stroke="black" stroke-width="1"/>
  <path d="M 4,211 L 3,212 L 3,213 L 4,214 L 4,216 L 6,216 L 7,215 L 8,215 L 10,213 L 10,212 L 9,211 Z" fill="none" stroke="black" stroke-width="1"/>
  <path d="M 3,203 L 2,204 L 3,205 L 2,206 L 3,207 L 3,208 L 4,207 L 5,207 L 5,204 L 4,203 Z" fill="none" stroke="black" stroke-width="1"/>
  <path d="M 11,201 L 11,206 L 12,205 L 13,205 L 13,204 L 14,203 L 14,202 L 13,201 Z" fill="none" stroke="black" stroke-width="1"/>
  <path d="M 2,198 L 2,200 L 3,201 L 4,201 L 5,200 L 5,199 L 4,198 Z" fill="none" stroke="black" stroke-width="1"/>
  <path d="M 11,192 L 11,193 L 10,194 L 10,195 L 12,197 L 15,197 L 16,196 L 17,196 L 17,195 L 16,195 L 15,196 L 14,196 L 12,194 L 12,192 Z" fill="none" stroke="black" stroke-width="1"/>
  <path d="M 12,185 L 11,186 L 11,189 L 12,188 L 12,187 L 13,186 Z" fill="none" stroke="black" stroke-width="1"/>
  <path d="M 1,183 L 1,185 L 0,186 L 0,193 L 1,194 L 3,194 L 3,192 L 4,191 L 3,190 L 3,185 L 2,185 L 1,184 L 2,183 Z" fill="none" stroke="black" stroke-width="1"/>
  <path d="M 11,175 L 12,176 L 11,177 L 11,182 L 12,183 L 13,183 L 13,182 L 14,181 L 15,181 L 15,180 L 16,179 L 12,175 Z" fill="none" stroke="black" stroke-width="1"/>
  <path d="M 2,172 L 3,172 Z" fill="none" stroke="black" stroke-width="1"/>
  <path d="M 3,165 L 2,166 L 2,170 L 3,170 L 7,166 L 6,166 L 5,165 Z" fill="none" stroke="black" stroke-width="1"/>
  <path d="M 12,162 L 10,164 L 12,164 L 13,165 L 13,166 L 14,166 L 15,165 L 15,163 L 14,162 Z" fill="none" stroke="black" stroke-width="1"/>
  <path d="M 3,155 L 3,156 L 1,158 L 2,159 L 1,160 L 1,162 L 2,163 L 3,162 Z" fill="none" stroke="black" stroke-width="1"/>
  <path d="M 8,138 L 7,139 L 6,139 L 5,140 L 4,140 L 4,142 L 3,143 L 3,147 L 4,148 L 4,149 L 5,150 L 5,151 L 6,152 L 5,153 L 6,153 L 7,154 L 7,156 L 8,157 L 8,158 L 10,158 L 11,157 L 12,157 L 12,156 L 11,155 L 8,155 L 7,154 L 8,153 L 9,153 L 9,152 L 8,151 L 8,149 L 6,149 L 4,147 L 5,146 L 5,143 L 7,141 L 7,140 L 8,139 Z" fill="none" stroke="black" stroke-width="1"/>
  <path d="M 1,136 L 3,138 L 3,136 Z" fill="none" stroke="black" stroke-width="1"/>
</svg>