<svg xmlns="http://www.w3.org/2000/svg" width="446" height="193">
  <path d="M 419,126 L 419,129 L 416,132 L 416,133 L 414,135 L 410,135 L 409,136 L 408,136 L 407,137 L 407,140 L 406,141 L 406,142 L 405,143 L 404,143 L 402,145 L 400,145 L 399,146 L 397,146 L 396,145 L 395,145 L 390,150 L 389,150 L 394,155 L 395,155 L 396,156 L 396,157 L 399,160 L 399,168 L 400,169 L 400,170 L 401,170 L 402,171 L 407,171 L 408,170 L 409,170 L 416,163 L 416,162 L 418,160 L 418,159 L 419,158 L 419,157 L 420,156 L 420,155 L 421,154 L 421,151 L 422,150 L 422,148 L 423,147 L 423,145 L 426,142 L 426,141 L 430,137 L 432,137 L 431,137 L 429,135 L 429,134 L 428,133 L 428,132 L 426,130 L 426,128 L 425,127 L 421,127 L 420,126 Z" fill="none" stroke="black" stroke-width="1"/>
</svg>