<svg xmlns="http://www.w3.org/2000/svg" width="184" height="204">
  <path d="M 38,101 L 38,102 L 37,103 L 36,103 L 32,107 L 31,107 L 29,109 L 24,109 L 23,108 L 23,107 L 23,109 L 22,110 L 22,111 L 26,115 L 26,116 L 28,116 L 29,117 L 31,117 L 32,118 L 35,118 L 36,117 L 38,117 L 40,119 L 40,121 L 41,120 L 41,119 L 42,118 L 43,118 L 44,119 L 45,119 L 47,117 L 47,114 L 46,113 L 46,110 L 45,109 L 45,108 L 44,107 L 44,104 L 43,103 L 42,103 L 40,101 Z" fill="none" stroke="black" stroke-width="1"/>
</svg>