<svg xmlns="http://www.w3.org/2000/svg" width="321" height="333">
  <path d="M 279,82 L 278,83 L 278,85 L 277,86 L 275,86 L 274,87 L 272,87 L 270,89 L 269,89 L 269,90 L 268,91 L 268,92 L 266,94 L 265,94 L 263,96 L 263,97 L 261,99 L 260,99 L 258,101 L 258,105 L 256,107 L 256,108 L 255,109 L 255,110 L 253,112 L 253,114 L 257,114 L 258,115 L 264,115 L 268,119 L 270,119 L 271,120 L 274,120 L 275,121 L 278,121 L 279,122 L 280,122 L 280,120 L 281,119 L 280,118 L 280,117 L 282,115 L 282,114 L 284,112 L 284,109 L 285,108 L 286,108 L 286,107 L 287,106 L 295,106 L 296,107 L 296,104 L 295,104 L 294,103 L 294,100 L 293,100 L 292,99 L 292,94 L 291,93 L 290,93 L 289,92 L 287,92 L 286,91 L 286,89 L 285,89 L 284,88 L 284,86 L 283,86 L 282,85 L 282,84 L 281,83 L 281,82 Z" fill="none" stroke="black" stroke-width="1"/>
</svg>