<svg xmlns="http://www.w3.org/2000/svg" width="176" height="123">
  <path d="M 132,115 L 132,117 L 133,118 L 133,119 L 132,120 L 132,122 L 133,121 L 133,120 L 134,119 L 135,120 L 135,119 L 134,118 L 134,115 Z" fill="none" stroke="black" stroke-width="1"/>
  <path d="M 136,109 L 135,110 L 135,112 L 136,112 L 138,114 L 139,114 L 139,113 L 136,110 Z" fill="none" stroke="black" stroke-width="1"/>
  <path d="M 129,99 L 128,100 L 127,100 L 126,101 L 127,102 L 126,103 L 124,103 L 121,106 L 121,110 L 124,113 L 124,114 L 125,115 L 125,116 L 126,117 L 127,117 L 126,116 L 129,113 L 129,112 L 130,111 L 130,106 L 131,105 L 131,102 L 129,100 L 130,99 Z" fill="none" stroke="black" stroke-width="1"/>
</svg>