<svg xmlns="http://www.w3.org/2000/svg" width="1028" height="413">
  <path d="M 540,401 L 540,402 L 541,402 L 542,403 L 543,403 L 544,404 L 545,404 L 545,403 L 544,402 L 543,402 L 542,401 Z" fill="none" stroke="black" stroke-width="1"/>
  <path d="M 552,396 L 552,397 L 551,398 L 551,399 L 550,400 L 550,401 L 548,403 L 548,404 L 549,405 L 549,406 L 550,406 L 550,404 L 551,403 L 551,401 L 552,400 L 552,399 L 553,398 L 553,396 Z" fill="none" stroke="black" stroke-width="1"/>
  <path d="M 541,387 L 540,388 L 538,388 L 537,389 L 535,389 L 535,390 L 536,391 L 536,392 L 537,393 L 537,394 L 538,395 L 540,395 L 541,396 L 541,397 L 542,398 L 546,398 L 547,399 L 546,400 L 547,400 L 547,399 L 550,396 L 550,395 L 551,394 L 551,393 L 550,392 L 550,389 L 549,388 L 549,387 L 548,387 L 548,389 L 547,390 L 546,390 L 545,389 L 545,388 L 544,387 Z" fill="none" stroke="black" stroke-width="1"/>
  <path d="M 545,378 L 545,381 L 546,382 L 546,385 L 547,385 L 547,383 L 548,382 L 549,382 L 549,381 L 548,381 L 546,379 L 546,378 Z" fill="none" stroke="black" stroke-width="1"/>
</svg>