<svg xmlns="http://www.w3.org/2000/svg" width="176" height="123">
  <path d="M 140,57 L 139,58 L 137,58 L 136,59 L 132,59 L 131,60 L 130,60 L 129,59 L 128,60 L 127,60 L 126,59 L 124,59 L 124,60 L 123,61 L 122,61 L 121,62 L 121,63 L 120,64 L 120,65 L 121,66 L 121,67 L 122,67 L 125,70 L 127,70 L 129,68 L 130,69 L 131,69 L 132,70 L 133,69 L 135,69 L 136,70 L 139,70 L 140,71 L 142,71 L 143,70 L 144,70 L 144,69 L 145,68 L 145,67 L 148,64 L 148,61 L 147,60 L 146,60 L 143,57 L 142,57 L 141,58 Z" fill="none" stroke="black" stroke-width="1"/>
</svg>