<svg xmlns="http://www.w3.org/2000/svg" width="225" height="121">
  <path d="M 65,3 L 65,6 L 64,7 L 64,9 L 63,10 L 65,12 L 65,13 L 64,14 L 60,14 L 59,13 L 58,13 L 57,12 L 54,12 L 53,13 L 53,14 L 51,16 L 51,19 L 50,20 L 50,23 L 51,23 L 53,25 L 53,27 L 54,28 L 54,30 L 59,30 L 60,31 L 62,31 L 64,29 L 66,29 L 67,28 L 69,28 L 70,27 L 73,27 L 73,26 L 71,24 L 71,18 L 72,17 L 72,14 L 74,12 L 74,11 L 77,8 L 77,7 L 78,6 L 78,5 L 77,5 L 76,4 L 75,4 L 74,5 L 68,5 L 67,4 L 66,4 Z" fill="none" stroke="black" stroke-width="1"/>
</svg>