<svg xmlns="http://www.w3.org/2000/svg" width="176" height="123">
  <path d="M 146,29 L 145,30 L 144,30 L 143,31 L 141,31 L 141,32 L 140,33 L 140,35 L 139,36 L 139,37 L 138,38 L 136,38 L 135,37 L 134,37 L 134,38 L 133,39 L 132,39 L 131,38 L 130,38 L 128,36 L 127,36 L 127,37 L 128,38 L 126,40 L 126,41 L 125,42 L 125,45 L 126,46 L 126,48 L 127,49 L 129,49 L 130,50 L 131,50 L 133,48 L 136,48 L 137,47 L 142,47 L 143,48 L 146,48 L 147,47 L 147,46 L 148,45 L 148,42 L 149,41 L 149,38 L 148,38 L 147,37 L 147,36 L 148,35 L 148,34 L 147,33 L 147,30 Z" fill="none" stroke="black" stroke-width="1"/>
</svg>