<svg xmlns="http://www.w3.org/2000/svg" width="176" height="123">
  <path d="M 164,40 L 163,41 L 162,41 L 162,42 L 161,43 L 161,44 L 160,45 L 160,47 L 159,48 L 159,49 L 160,50 L 160,52 L 159,53 L 157,53 L 156,54 L 156,56 L 155,57 L 155,59 L 156,60 L 157,60 L 159,62 L 160,62 L 161,63 L 161,62 L 162,61 L 163,61 L 163,58 L 166,55 L 168,55 L 169,54 L 172,54 L 172,53 L 173,52 L 174,52 L 174,51 L 175,50 L 175,49 L 174,48 L 174,47 L 173,46 L 173,45 L 172,44 L 172,42 L 169,42 L 168,41 L 166,41 L 165,40 Z" fill="none" stroke="black" stroke-width="1"/>
</svg>