<svg xmlns="http://www.w3.org/2000/svg" width="225" height="121">
  <path d="M 18,32 L 17,33 L 17,34 L 16,35 L 15,35 L 15,36 L 14,37 L 11,37 L 10,38 L 8,38 L 6,40 L 6,47 L 5,48 L 4,48 L 4,49 L 3,50 L 3,51 L 5,53 L 5,54 L 4,55 L 4,56 L 2,58 L 2,59 L 1,60 L 0,60 L 1,61 L 12,61 L 13,62 L 14,62 L 15,63 L 17,63 L 18,62 L 19,62 L 19,61 L 20,60 L 22,60 L 23,59 L 25,59 L 26,58 L 26,57 L 25,56 L 24,56 L 23,55 L 22,55 L 20,53 L 20,52 L 21,51 L 21,50 L 22,49 L 21,48 L 21,47 L 23,45 L 23,44 L 21,44 L 20,43 L 20,42 L 22,40 L 23,41 L 24,41 L 23,40 L 24,39 L 24,38 L 25,37 L 23,35 L 22,35 L 19,32 Z" fill="none" stroke="black" stroke-width="1"/>
</svg>