<svg xmlns="http://www.w3.org/2000/svg" width="241" height="225">
  <path d="M 28,73 L 28,75 L 31,75 L 32,74 L 32,73 Z" fill="none" stroke="black" stroke-width="1"/>
  <path d="M 34,71 L 34,72 L 36,72 L 37,73 L 42,73 L 43,72 L 44,72 L 40,72 L 39,71 Z" fill="none" stroke="black" stroke-width="1"/>
  <path d="M 34,67 L 33,68 L 34,69 L 40,69 L 40,68 L 36,68 L 35,67 Z" fill="none" stroke="black" stroke-width="1"/>
  <path d="M 37,57 L 36,58 L 35,58 L 34,59 L 33,59 L 32,60 L 31,60 L 30,61 L 29,61 L 28,60 L 25,60 L 24,61 L 22,61 L 21,60 L 20,60 L 19,61 L 16,61 L 15,62 L 13,62 L 13,63 L 19,63 L 20,64 L 24,64 L 25,65 L 26,65 L 27,66 L 28,66 L 29,65 L 30,65 L 31,64 L 35,64 L 37,66 L 41,66 L 44,69 L 44,70 L 45,70 L 46,71 L 47,71 L 49,73 L 50,73 L 51,72 L 51,71 L 50,70 L 50,69 L 48,67 L 48,66 L 46,64 L 45,64 L 44,63 L 41,63 L 40,62 L 40,60 Z" fill="none" stroke="black" stroke-width="1"/>
</svg>