<svg xmlns="http://www.w3.org/2000/svg" width="241" height="225">
  <path d="M 48,78 L 48,79 L 49,80 L 52,80 L 52,79 L 50,79 L 49,78 Z" fill="none" stroke="black" stroke-width="1"/>
  <path d="M 55,72 L 53,74 L 52,74 L 51,73 L 51,74 L 50,75 L 47,75 L 46,74 L 44,74 L 43,75 L 42,75 L 41,76 L 40,75 L 38,75 L 38,77 L 45,77 L 45,76 L 44,75 L 45,74 L 46,74 L 47,75 L 47,76 L 50,76 L 51,77 L 53,77 L 54,78 L 56,78 L 57,79 L 58,79 L 60,81 L 61,81 L 63,83 L 64,83 L 66,85 L 67,84 L 69,84 L 69,82 L 70,81 L 69,80 L 68,81 L 65,78 L 64,78 L 62,76 L 61,76 L 59,74 L 58,75 L 56,73 L 56,72 Z" fill="none" stroke="black" stroke-width="1"/>
</svg>