<svg xmlns="http://www.w3.org/2000/svg" width="241" height="225">
  <path d="M 100,129 L 98,131 L 94,131 L 93,130 L 90,130 L 89,131 L 89,132 L 90,133 L 90,136 L 91,136 L 93,138 L 93,139 L 94,140 L 94,142 L 96,144 L 97,144 L 98,145 L 99,144 L 102,144 L 103,143 L 106,143 L 107,144 L 108,143 L 109,143 L 110,144 L 111,144 L 112,145 L 113,145 L 114,144 L 115,144 L 116,143 L 111,138 L 109,138 L 108,137 L 108,135 L 107,134 L 106,134 L 105,133 L 105,132 L 102,129 Z" fill="none" stroke="black" stroke-width="1"/>
</svg>