<svg xmlns="http://www.w3.org/2000/svg" width="241" height="225">
  <path d="M 135,198 L 135,201 L 136,201 L 137,202 L 138,201 L 138,200 L 136,198 Z" fill="none" stroke="black" stroke-width="1"/>
  <path d="M 130,174 L 129,175 L 128,175 L 127,176 L 126,176 L 125,177 L 122,177 L 121,178 L 121,179 L 122,180 L 122,181 L 123,182 L 123,183 L 122,184 L 122,186 L 126,190 L 126,191 L 127,192 L 127,196 L 128,197 L 128,193 L 129,192 L 129,191 L 130,190 L 133,190 L 134,191 L 134,192 L 136,194 L 136,195 L 137,196 L 139,196 L 138,195 L 138,194 L 137,193 L 137,191 L 138,190 L 137,189 L 137,186 L 136,185 L 135,185 L 134,184 L 135,183 L 134,182 L 134,181 L 133,180 L 133,179 L 132,178 L 132,176 L 133,175 L 132,174 Z" fill="none" stroke="black" stroke-width="1"/>
</svg>