<svg xmlns="http://www.w3.org/2000/svg" width="241" height="225">
  <path d="M 131,153 L 130,154 L 131,155 L 130,156 L 130,157 L 129,158 L 129,161 L 130,162 L 132,162 L 133,163 L 134,163 L 135,164 L 139,164 L 140,165 L 140,166 L 139,167 L 135,167 L 137,169 L 139,169 L 140,168 L 142,168 L 143,169 L 143,170 L 144,169 L 147,169 L 149,171 L 150,171 L 151,172 L 151,173 L 152,174 L 153,174 L 153,171 L 152,170 L 152,166 L 153,165 L 151,163 L 150,163 L 149,162 L 147,162 L 145,160 L 145,159 L 142,159 L 141,158 L 141,156 L 138,156 L 137,155 L 136,155 L 135,154 L 133,154 L 132,153 Z" fill="none" stroke="black" stroke-width="1"/>
</svg>