<svg xmlns="http://www.w3.org/2000/svg" width="241" height="225">
  <path d="M 128,122 L 127,123 L 126,123 L 122,127 L 120,127 L 121,128 L 120,129 L 120,130 L 116,134 L 117,135 L 115,137 L 114,137 L 113,138 L 113,139 L 118,144 L 118,145 L 119,146 L 119,147 L 121,149 L 122,149 L 123,150 L 123,151 L 124,151 L 125,152 L 125,154 L 126,155 L 128,155 L 129,156 L 130,155 L 129,154 L 130,153 L 129,152 L 130,151 L 133,151 L 134,150 L 135,150 L 136,149 L 136,148 L 134,146 L 134,143 L 135,142 L 137,142 L 140,145 L 140,146 L 139,147 L 138,147 L 140,147 L 141,146 L 141,144 L 135,138 L 135,137 L 134,136 L 134,134 L 129,129 L 129,127 L 130,126 L 130,125 L 128,123 Z" fill="none" stroke="black" stroke-width="1"/>
</svg>