<svg xmlns="http://www.w3.org/2000/svg" width="241" height="225">
  <path d="M 136,112 L 136,113 L 135,114 L 134,114 L 133,115 L 132,115 L 131,116 L 129,116 L 128,117 L 129,117 L 130,118 L 130,119 L 129,120 L 129,123 L 130,124 L 130,122 L 132,120 L 133,120 L 135,118 L 136,119 L 136,120 L 135,121 L 135,123 L 136,123 L 137,124 L 138,124 L 139,125 L 140,125 L 142,127 L 142,130 L 143,130 L 144,131 L 145,131 L 146,132 L 148,132 L 147,132 L 146,131 L 145,131 L 142,128 L 142,126 L 143,125 L 144,125 L 145,126 L 146,126 L 147,127 L 148,127 L 149,128 L 149,129 L 151,131 L 152,131 L 152,129 L 151,128 L 150,128 L 149,127 L 148,127 L 147,126 L 147,125 L 149,123 L 150,124 L 152,124 L 153,125 L 155,125 L 156,126 L 156,127 L 157,128 L 157,126 L 155,124 L 151,124 L 149,122 L 149,120 L 147,118 L 147,117 L 149,115 L 150,116 L 151,116 L 152,117 L 153,117 L 154,116 L 155,116 L 156,115 L 155,114 L 155,113 L 153,113 L 152,112 L 151,113 L 150,112 L 148,112 L 147,113 L 142,113 L 141,112 L 140,112 L 138,114 L 137,113 L 137,112 Z" fill="none" stroke="black" stroke-width="1"/>
</svg>