<svg xmlns="http://www.w3.org/2000/svg" width="241" height="225">
  <path d="M 193,84 L 189,88 L 189,89 L 188,90 L 188,94 L 186,96 L 186,97 L 185,98 L 184,98 L 184,102 L 187,105 L 187,110 L 188,111 L 189,111 L 190,110 L 193,110 L 194,109 L 200,109 L 202,107 L 205,107 L 206,106 L 205,105 L 205,104 L 204,103 L 204,102 L 203,101 L 204,100 L 204,98 L 205,97 L 204,96 L 204,93 L 203,94 L 201,92 L 201,91 L 200,90 L 200,89 L 199,89 L 198,88 L 198,87 L 195,84 Z" fill="none" stroke="black" stroke-width="1"/>
</svg>