<svg xmlns="http://www.w3.org/2000/svg" width="241" height="225">
  <path d="M 146,58 L 145,59 L 141,59 L 141,63 L 139,65 L 139,66 L 140,66 L 141,67 L 141,69 L 142,69 L 143,70 L 143,73 L 146,76 L 146,77 L 147,78 L 149,78 L 150,79 L 151,79 L 152,80 L 156,80 L 157,81 L 162,81 L 163,82 L 164,82 L 165,83 L 166,83 L 167,82 L 167,81 L 168,80 L 172,80 L 173,79 L 177,79 L 178,78 L 176,76 L 176,75 L 175,75 L 174,74 L 174,72 L 173,72 L 172,71 L 172,65 L 175,62 L 175,61 L 176,60 L 177,60 L 177,59 L 174,59 L 173,60 L 172,60 L 171,61 L 169,61 L 168,60 L 168,59 L 165,59 L 165,61 L 164,62 L 163,61 L 161,61 L 160,60 L 157,60 L 156,59 L 153,59 L 152,58 Z" fill="none" stroke="black" stroke-width="1"/>
</svg>