<svg xmlns="http://www.w3.org/2000/svg" width="1028" height="413">
  <path d="M 562,332 L 562,334 L 563,334 L 564,333 L 563,332 Z" fill="none" stroke="black" stroke-width="1"/>
  <path d="M 558,308 L 557,309 L 556,309 L 556,311 L 557,312 L 557,317 L 558,318 L 558,321 L 557,322 L 557,324 L 558,325 L 559,325 L 560,326 L 560,327 L 561,327 L 562,328 L 560,330 L 565,330 L 566,331 L 566,334 L 564,336 L 565,337 L 565,339 L 566,340 L 568,340 L 569,339 L 571,339 L 571,338 L 572,337 L 571,336 L 572,335 L 571,334 L 571,332 L 570,332 L 569,331 L 571,329 L 571,326 L 570,325 L 569,325 L 568,324 L 567,324 L 566,323 L 566,318 L 563,315 L 563,314 L 562,313 L 562,312 L 559,309 L 559,308 Z" fill="none" stroke="black" stroke-width="1"/>
</svg>