<svg xmlns="http://www.w3.org/2000/svg" width="241" height="225">
  <path d="M 209,95 L 207,97 L 206,97 L 205,98 L 205,100 L 204,101 L 205,102 L 205,103 L 206,104 L 206,105 L 207,106 L 207,107 L 208,108 L 208,109 L 209,110 L 209,111 L 211,111 L 212,112 L 214,112 L 216,110 L 221,110 L 222,111 L 223,111 L 224,112 L 228,112 L 230,110 L 230,109 L 231,108 L 231,107 L 228,107 L 227,106 L 225,106 L 224,105 L 223,105 L 222,104 L 221,104 L 220,103 L 219,103 L 215,99 L 215,98 L 214,97 L 214,96 L 213,96 L 212,95 Z" fill="none" stroke="black" stroke-width="1"/>
</svg>