<svg xmlns="http://www.w3.org/2000/svg" width="225" height="121">
  <path d="M 52,29 L 51,30 L 50,30 L 50,31 L 49,32 L 49,34 L 47,36 L 44,36 L 40,32 L 39,32 L 38,33 L 37,33 L 37,34 L 38,35 L 37,36 L 37,38 L 38,38 L 39,39 L 39,41 L 40,42 L 41,42 L 42,43 L 40,45 L 41,46 L 42,45 L 43,45 L 44,46 L 44,48 L 46,50 L 46,52 L 47,53 L 47,58 L 48,59 L 48,60 L 47,61 L 47,63 L 45,65 L 45,66 L 47,66 L 48,65 L 49,65 L 49,64 L 50,63 L 50,62 L 51,61 L 53,61 L 54,62 L 55,62 L 57,64 L 60,64 L 61,65 L 62,65 L 64,63 L 65,63 L 66,62 L 67,62 L 68,61 L 68,60 L 66,58 L 66,57 L 67,56 L 65,56 L 63,54 L 63,52 L 62,51 L 62,48 L 63,47 L 63,46 L 62,45 L 62,44 L 61,43 L 61,40 L 63,38 L 63,37 L 62,36 L 62,32 L 60,32 L 59,31 L 54,31 L 53,30 L 53,29 Z" fill="none" stroke="black" stroke-width="1"/>
</svg>