<svg xmlns="http://www.w3.org/2000/svg" width="225" height="121">
  <path d="M 43,13 L 42,14 L 41,14 L 40,15 L 40,16 L 39,17 L 37,17 L 38,18 L 36,20 L 36,21 L 35,22 L 35,27 L 34,28 L 34,29 L 33,30 L 33,31 L 34,32 L 35,32 L 36,33 L 37,32 L 38,32 L 39,31 L 40,31 L 44,35 L 47,35 L 48,34 L 48,32 L 49,31 L 49,30 L 50,29 L 51,29 L 52,28 L 53,28 L 52,27 L 52,25 L 51,24 L 50,24 L 49,23 L 49,20 L 50,19 L 50,16 L 52,14 L 52,13 L 51,14 L 46,14 L 45,13 Z" fill="none" stroke="black" stroke-width="1"/>
</svg>