<svg xmlns="http://www.w3.org/2000/svg" width="225" height="121">
  <path d="M 84,46 L 82,48 L 80,48 L 80,49 L 81,50 L 81,53 L 80,54 L 79,54 L 78,55 L 76,55 L 75,56 L 74,56 L 73,57 L 72,56 L 70,56 L 69,57 L 67,57 L 67,58 L 69,60 L 69,61 L 67,63 L 66,63 L 65,64 L 64,64 L 63,65 L 63,68 L 65,70 L 65,71 L 66,70 L 70,70 L 71,69 L 72,69 L 73,70 L 74,70 L 75,71 L 77,71 L 78,70 L 82,70 L 83,71 L 84,71 L 85,72 L 86,72 L 87,73 L 91,73 L 92,72 L 95,72 L 95,70 L 94,69 L 94,68 L 93,67 L 95,65 L 97,65 L 97,62 L 98,61 L 98,60 L 97,59 L 96,59 L 93,56 L 93,54 L 91,52 L 91,51 L 92,50 L 92,49 L 90,49 L 88,47 L 87,47 L 86,46 Z" fill="none" stroke="black" stroke-width="1"/>
</svg>