<svg xmlns="http://www.w3.org/2000/svg" width="225" height="121">
  <path d="M 84,72 L 84,75 L 83,76 L 83,77 L 82,78 L 82,79 L 83,80 L 83,84 L 84,85 L 85,85 L 87,87 L 88,86 L 90,86 L 91,87 L 92,87 L 93,88 L 93,91 L 92,92 L 92,93 L 91,94 L 91,96 L 93,96 L 94,97 L 95,97 L 96,98 L 96,100 L 97,99 L 97,98 L 99,96 L 103,96 L 104,97 L 105,97 L 105,93 L 106,92 L 106,91 L 107,90 L 107,88 L 109,86 L 108,85 L 107,85 L 106,84 L 106,82 L 104,80 L 104,78 L 102,76 L 102,75 L 101,74 L 100,74 L 99,73 L 92,73 L 91,74 L 87,74 L 86,73 L 85,73 Z" fill="none" stroke="black" stroke-width="1"/>
</svg>