<svg xmlns="http://www.w3.org/2000/svg" width="225" height="121">
  <path d="M 108,32 L 106,34 L 106,35 L 105,36 L 106,37 L 106,39 L 105,40 L 104,40 L 103,41 L 100,41 L 96,45 L 96,46 L 95,47 L 94,47 L 93,48 L 93,50 L 92,51 L 92,52 L 94,54 L 94,56 L 96,58 L 97,58 L 98,59 L 103,59 L 105,61 L 106,61 L 106,57 L 108,55 L 109,55 L 110,54 L 115,54 L 116,53 L 116,52 L 119,49 L 120,49 L 121,48 L 121,47 L 122,46 L 122,45 L 123,44 L 122,43 L 122,40 L 124,38 L 123,37 L 121,37 L 120,36 L 120,35 L 118,33 L 118,32 L 115,32 L 114,33 L 113,32 Z" fill="none" stroke="black" stroke-width="1"/>
</svg>