<svg xmlns="http://www.w3.org/2000/svg" width="225" height="121">
  <path d="M 140,49 L 140,50 L 141,51 L 141,53 L 140,54 L 140,56 L 139,57 L 136,57 L 134,59 L 133,59 L 133,61 L 132,62 L 133,63 L 133,64 L 134,64 L 136,66 L 139,66 L 140,67 L 140,68 L 141,69 L 146,69 L 148,71 L 148,72 L 150,74 L 150,75 L 151,75 L 152,76 L 152,77 L 153,77 L 154,78 L 154,79 L 157,79 L 158,80 L 159,80 L 160,79 L 161,79 L 161,77 L 162,76 L 162,75 L 164,73 L 164,72 L 161,69 L 161,68 L 160,67 L 160,66 L 156,62 L 156,61 L 154,59 L 153,59 L 151,57 L 151,56 L 150,55 L 150,53 L 149,53 L 147,51 L 147,50 L 146,49 Z" fill="none" stroke="black" stroke-width="1"/>
</svg>