<svg xmlns="http://www.w3.org/2000/svg" width="241" height="225">
  <path d="M 218,45 L 218,47 L 214,51 L 208,51 L 207,52 L 207,56 L 205,58 L 205,59 L 206,60 L 206,61 L 205,62 L 205,63 L 206,64 L 205,65 L 205,66 L 203,68 L 203,69 L 202,70 L 202,71 L 203,72 L 203,73 L 202,74 L 204,74 L 207,71 L 214,71 L 215,70 L 215,69 L 217,67 L 218,67 L 219,66 L 220,66 L 221,67 L 222,67 L 224,65 L 224,64 L 223,63 L 223,60 L 224,59 L 224,57 L 225,56 L 224,55 L 224,50 L 225,49 L 225,47 L 223,45 Z" fill="none" stroke="black" stroke-width="1"/>
</svg>