<svg xmlns="http://www.w3.org/2000/svg" width="225" height="121">
  <path d="M 122,96 L 123,97 L 122,98 L 118,98 L 117,99 L 115,99 L 115,102 L 114,103 L 113,103 L 111,105 L 111,106 L 110,107 L 108,107 L 108,110 L 111,113 L 111,116 L 113,116 L 114,117 L 118,117 L 119,116 L 125,116 L 126,117 L 129,117 L 130,118 L 133,118 L 134,119 L 136,119 L 137,120 L 137,118 L 138,117 L 138,114 L 136,112 L 136,111 L 135,111 L 134,110 L 134,109 L 133,109 L 132,108 L 132,104 L 131,104 L 130,103 L 130,99 L 129,98 L 129,96 Z" fill="none" stroke="black" stroke-width="1"/>
</svg>