<svg xmlns="http://www.w3.org/2000/svg" width="1028" height="413">
  <path d="M 532,251 L 531,252 L 531,253 L 529,255 L 527,255 L 526,254 L 521,254 L 521,255 L 520,256 L 522,258 L 522,259 L 525,262 L 525,263 L 524,264 L 522,264 L 521,265 L 520,265 L 519,266 L 517,266 L 518,267 L 518,269 L 519,270 L 520,270 L 521,271 L 523,271 L 524,272 L 525,272 L 528,275 L 528,276 L 526,278 L 525,278 L 524,277 L 524,282 L 523,283 L 524,284 L 526,284 L 527,285 L 527,287 L 528,288 L 528,289 L 529,289 L 532,292 L 532,293 L 533,294 L 533,295 L 534,296 L 534,298 L 535,298 L 537,300 L 537,306 L 539,308 L 538,309 L 538,310 L 540,308 L 541,309 L 542,308 L 542,306 L 544,304 L 544,301 L 542,299 L 541,299 L 540,298 L 541,297 L 543,297 L 542,296 L 542,295 L 541,294 L 542,293 L 543,293 L 543,291 L 546,288 L 548,288 L 550,290 L 550,291 L 549,292 L 550,292 L 551,291 L 552,291 L 553,290 L 554,290 L 555,291 L 559,291 L 559,290 L 560,289 L 560,288 L 561,287 L 561,286 L 563,284 L 564,284 L 565,283 L 565,282 L 563,282 L 562,281 L 562,280 L 556,274 L 556,272 L 554,272 L 553,271 L 553,270 L 550,270 L 549,269 L 549,268 L 544,268 L 542,266 L 542,265 L 541,264 L 541,258 L 539,256 L 539,255 L 538,255 L 537,254 L 537,252 L 535,252 L 534,251 Z" fill="none" stroke="black" stroke-width="1"/>
</svg>