<svg xmlns="http://www.w3.org/2000/svg" width="225" height="121">
  <path d="M 157,85 L 156,86 L 154,86 L 153,87 L 149,87 L 148,86 L 146,88 L 144,88 L 143,87 L 141,87 L 140,86 L 132,86 L 132,87 L 131,88 L 131,96 L 130,97 L 130,98 L 131,99 L 131,103 L 132,103 L 133,104 L 133,105 L 135,105 L 136,104 L 136,103 L 137,102 L 137,101 L 138,100 L 140,100 L 141,101 L 142,101 L 144,103 L 154,103 L 155,102 L 157,102 L 158,101 L 159,101 L 160,100 L 160,99 L 158,99 L 156,97 L 156,93 L 157,92 L 157,91 L 158,90 L 158,86 L 159,85 Z" fill="none" stroke="black" stroke-width="1"/>
</svg>