<svg xmlns="http://www.w3.org/2000/svg" width="225" height="121">
  <path d="M 79,5 L 79,6 L 78,7 L 78,8 L 75,11 L 75,12 L 73,14 L 73,17 L 72,18 L 72,24 L 74,26 L 74,27 L 76,29 L 76,31 L 77,30 L 78,30 L 80,32 L 81,32 L 83,30 L 86,30 L 86,29 L 87,28 L 87,27 L 88,26 L 90,26 L 91,25 L 97,25 L 98,26 L 98,27 L 100,29 L 100,30 L 101,31 L 102,31 L 105,34 L 108,31 L 113,31 L 114,32 L 115,31 L 113,29 L 113,23 L 110,20 L 110,17 L 108,15 L 107,15 L 106,14 L 104,14 L 103,13 L 101,13 L 98,10 L 96,10 L 94,8 L 92,8 L 91,9 L 90,9 L 89,8 L 88,8 L 85,5 Z" fill="none" stroke="black" stroke-width="1"/>
</svg>