<svg xmlns="http://www.w3.org/2000/svg" width="241" height="225">
  <path d="M 148,211 L 148,213 L 147,214 L 146,213 L 146,212 L 146,215 L 145,216 L 145,217 L 146,218 L 150,218 L 151,219 L 159,219 L 160,220 L 161,220 L 162,221 L 163,221 L 164,222 L 164,223 L 165,224 L 169,224 L 170,223 L 176,223 L 177,222 L 187,222 L 187,221 L 188,220 L 188,218 L 187,219 L 184,219 L 183,220 L 182,220 L 181,221 L 180,221 L 179,220 L 179,217 L 178,217 L 177,218 L 175,218 L 174,217 L 169,217 L 168,216 L 160,216 L 159,217 L 157,217 L 154,214 L 155,213 L 155,212 L 154,212 L 152,214 L 151,214 L 149,212 L 149,211 Z" fill="none" stroke="black" stroke-width="1"/>
</svg>