<svg xmlns="http://www.w3.org/2000/svg" width="333" height="139">
  <path d="M 23,99 L 22,100 L 22,101 L 26,101 L 26,99 Z" fill="none" stroke="black" stroke-width="1"/>
  <path d="M 37,98 L 37,99 L 39,101 L 40,101 L 40,100 L 38,98 Z" fill="none" stroke="black" stroke-width="1"/>
  <path d="M 37,91 L 34,94 L 36,94 L 37,93 Z" fill="none" stroke="black" stroke-width="1"/>
  <path d="M 42,90 L 39,93 L 39,94 L 40,95 L 40,96 L 41,96 L 42,95 Z" fill="none" stroke="black" stroke-width="1"/>
  <path d="M 22,87 L 22,88 L 23,89 L 24,89 L 25,88 L 25,87 Z" fill="none" stroke="black" stroke-width="1"/>
  <path d="M 34,82 L 34,83 L 35,84 L 35,85 L 37,85 L 37,83 L 36,83 L 35,82 Z" fill="none" stroke="black" stroke-width="1"/>
  <path d="M 21,81 L 21,85 L 22,85 L 22,84 L 24,82 L 24,81 Z" fill="none" stroke="black" stroke-width="1"/>
  <path d="M 29,76 L 28,77 L 32,81 L 32,78 L 31,77 L 30,77 Z" fill="none" stroke="black" stroke-width="1"/>
</svg>