<svg xmlns="http://www.w3.org/2000/svg" width="186" height="167">
  <path d="M 76,33 L 74,35 L 71,35 L 70,36 L 69,35 L 67,35 L 66,34 L 57,34 L 57,36 L 56,37 L 56,40 L 55,41 L 57,43 L 59,43 L 60,44 L 60,45 L 59,46 L 60,47 L 60,49 L 61,49 L 62,48 L 65,48 L 66,49 L 69,49 L 69,48 L 70,47 L 71,47 L 72,46 L 74,46 L 76,48 L 83,48 L 84,49 L 85,49 L 85,47 L 86,46 L 86,45 L 87,44 L 87,42 L 86,42 L 84,40 L 84,39 L 83,38 L 83,37 L 82,36 L 82,34 L 81,33 Z" fill="none" stroke="black" stroke-width="1"/>
</svg>