<svg xmlns="http://www.w3.org/2000/svg" width="186" height="167">
  <path d="M 2,55 L 2,56 L 3,57 L 3,56 Z" fill="none" stroke="black" stroke-width="1"/>
  <path d="M 19,44 L 18,45 L 19,46 L 19,47 L 18,48 L 17,48 L 16,47 L 14,47 L 13,48 L 12,48 L 11,47 L 8,47 L 7,48 L 4,48 L 2,50 L 0,50 L 0,53 L 4,53 L 5,54 L 7,54 L 8,55 L 7,56 L 5,56 L 6,56 L 7,57 L 7,58 L 6,59 L 4,59 L 3,60 L 0,60 L 3,60 L 4,61 L 5,61 L 6,62 L 6,63 L 7,64 L 9,64 L 11,62 L 12,63 L 13,63 L 14,64 L 15,64 L 16,65 L 19,65 L 19,63 L 18,62 L 18,61 L 17,60 L 19,58 L 20,58 L 21,59 L 23,59 L 23,58 L 22,57 L 23,56 L 24,56 L 25,57 L 26,56 L 26,54 L 25,53 L 26,52 L 26,50 L 28,48 L 28,47 L 25,44 L 22,44 L 21,45 L 20,44 Z" fill="none" stroke="black" stroke-width="1"/>
</svg>