<svg xmlns="http://www.w3.org/2000/svg" width="1028" height="413">
  <path d="M 648,116 L 648,117 L 649,118 L 649,119 L 648,120 L 648,121 L 647,122 L 645,122 L 643,124 L 642,123 L 641,124 L 640,123 L 639,123 L 638,122 L 636,122 L 636,124 L 638,126 L 638,128 L 639,129 L 639,130 L 640,131 L 641,131 L 642,132 L 642,133 L 645,136 L 645,137 L 644,138 L 637,138 L 636,137 L 635,137 L 634,138 L 634,139 L 635,140 L 633,142 L 633,143 L 630,146 L 630,147 L 629,148 L 629,149 L 630,150 L 630,151 L 629,152 L 629,154 L 628,155 L 628,156 L 627,157 L 627,159 L 626,160 L 625,160 L 625,161 L 623,163 L 622,163 L 621,164 L 621,165 L 619,167 L 616,167 L 615,168 L 615,169 L 617,171 L 617,175 L 619,177 L 619,178 L 627,186 L 627,187 L 628,188 L 628,189 L 629,190 L 634,190 L 635,191 L 636,191 L 637,192 L 642,192 L 643,193 L 644,192 L 654,192 L 655,193 L 659,193 L 660,192 L 662,192 L 665,189 L 666,189 L 668,187 L 669,187 L 672,184 L 672,181 L 673,180 L 673,177 L 675,175 L 676,175 L 678,173 L 679,173 L 679,171 L 681,169 L 681,168 L 682,167 L 682,164 L 685,161 L 686,161 L 688,159 L 688,158 L 687,157 L 687,156 L 686,155 L 686,148 L 685,147 L 685,145 L 686,144 L 692,144 L 695,141 L 696,141 L 695,141 L 693,139 L 692,139 L 690,137 L 689,137 L 688,136 L 681,136 L 677,132 L 676,132 L 675,131 L 674,131 L 674,133 L 675,134 L 675,136 L 676,137 L 675,138 L 674,138 L 673,137 L 673,136 L 672,135 L 672,134 L 671,133 L 671,135 L 670,136 L 669,135 L 669,130 L 670,129 L 668,129 L 666,127 L 666,126 L 663,126 L 661,124 L 660,124 L 654,118 L 653,118 L 652,117 L 651,117 L 650,116 L 649,117 Z" fill="none" stroke="black" stroke-width="1"/>
</svg>