<svg xmlns="http://www.w3.org/2000/svg" width="186" height="167">
  <path d="M 23,74 L 24,75 L 25,75 L 25,74 Z" fill="none" stroke="black" stroke-width="1"/>
  <path d="M 27,55 L 27,56 L 25,58 L 24,57 L 23,57 L 24,58 L 24,59 L 23,60 L 21,60 L 20,59 L 19,59 L 18,60 L 19,61 L 19,62 L 20,63 L 20,66 L 21,66 L 22,67 L 23,67 L 25,69 L 25,71 L 25,69 L 26,68 L 27,69 L 28,69 L 29,68 L 30,68 L 31,67 L 32,68 L 32,69 L 31,70 L 30,70 L 30,71 L 31,70 L 32,70 L 33,69 L 34,69 L 35,70 L 35,71 L 36,72 L 37,71 L 39,71 L 40,70 L 41,70 L 41,69 L 40,68 L 40,64 L 39,63 L 38,63 L 37,62 L 37,60 L 36,59 L 32,59 L 31,58 L 29,58 L 27,56 Z" fill="none" stroke="black" stroke-width="1"/>
</svg>