<svg xmlns="http://www.w3.org/2000/svg" width="186" height="167">
  <path d="M 56,111 L 56,118 L 55,119 L 55,124 L 56,124 L 58,126 L 57,127 L 55,127 L 55,129 L 54,130 L 54,136 L 53,137 L 53,139 L 55,139 L 57,137 L 58,137 L 59,138 L 61,138 L 62,137 L 63,137 L 64,136 L 68,136 L 70,138 L 70,139 L 71,138 L 72,138 L 73,137 L 75,139 L 76,139 L 76,138 L 78,136 L 77,135 L 78,134 L 80,134 L 79,133 L 79,132 L 72,125 L 72,122 L 71,121 L 71,119 L 72,118 L 72,117 L 70,115 L 67,115 L 66,114 L 63,114 L 63,115 L 64,116 L 64,117 L 66,119 L 66,121 L 65,122 L 64,121 L 64,120 L 63,120 L 61,118 L 61,116 L 60,115 L 60,113 L 58,111 Z" fill="none" stroke="black" stroke-width="1"/>
</svg>