<svg xmlns="http://www.w3.org/2000/svg" width="216" height="145">
  <path d="M 43,74 L 42,75 L 39,75 L 39,76 L 38,77 L 34,77 L 33,78 L 32,78 L 32,79 L 34,81 L 34,83 L 35,84 L 35,85 L 36,86 L 38,86 L 40,88 L 48,88 L 49,89 L 54,89 L 57,92 L 58,92 L 59,93 L 59,94 L 60,95 L 60,96 L 62,98 L 63,97 L 64,97 L 67,94 L 69,94 L 70,93 L 70,92 L 71,91 L 71,88 L 72,87 L 72,83 L 69,83 L 68,82 L 66,82 L 65,81 L 60,81 L 58,79 L 57,79 L 55,77 L 53,77 L 52,76 L 52,75 L 50,75 L 49,74 Z" fill="none" stroke="black" stroke-width="1"/>
</svg>