<svg xmlns="http://www.w3.org/2000/svg" width="318" height="385">
  <path d="M 79,232 L 77,234 L 76,234 L 76,235 L 75,236 L 74,236 L 73,237 L 73,239 L 71,241 L 70,241 L 69,240 L 67,240 L 66,241 L 66,246 L 67,247 L 67,252 L 69,252 L 70,253 L 70,256 L 71,256 L 72,255 L 78,255 L 79,256 L 79,259 L 81,261 L 81,262 L 85,262 L 87,264 L 87,267 L 89,269 L 89,270 L 86,273 L 86,274 L 87,275 L 88,275 L 89,274 L 90,274 L 91,275 L 92,275 L 93,274 L 96,274 L 98,276 L 98,279 L 103,279 L 104,280 L 108,280 L 109,281 L 109,282 L 111,282 L 112,283 L 113,282 L 115,282 L 116,281 L 116,280 L 117,279 L 117,277 L 119,275 L 120,275 L 120,274 L 119,273 L 119,272 L 118,271 L 117,271 L 115,269 L 114,269 L 113,268 L 112,268 L 111,267 L 109,267 L 108,266 L 108,265 L 107,265 L 105,263 L 105,262 L 107,260 L 108,260 L 108,259 L 109,258 L 109,257 L 106,254 L 106,253 L 105,252 L 105,249 L 104,248 L 104,244 L 103,243 L 103,241 L 102,240 L 100,240 L 99,239 L 98,239 L 97,238 L 93,238 L 92,237 L 90,237 L 89,236 L 88,236 L 86,234 L 85,234 L 84,233 L 83,233 L 82,232 Z" fill="none" stroke="black" stroke-width="1"/>
</svg>