<svg xmlns="http://www.w3.org/2000/svg" width="318" height="385">
  <path d="M 182,211 L 180,213 L 180,214 L 179,215 L 178,215 L 178,218 L 179,218 L 180,219 L 180,220 L 181,221 L 181,223 L 182,224 L 182,225 L 184,227 L 184,228 L 185,228 L 187,230 L 188,230 L 189,231 L 189,232 L 194,232 L 195,233 L 196,233 L 198,235 L 198,237 L 200,237 L 201,238 L 201,242 L 202,242 L 203,243 L 204,243 L 205,242 L 207,242 L 208,241 L 210,241 L 212,243 L 214,243 L 215,244 L 216,244 L 219,247 L 221,247 L 222,248 L 226,248 L 227,247 L 228,247 L 228,245 L 227,244 L 227,237 L 228,236 L 228,234 L 226,232 L 225,232 L 223,230 L 223,225 L 216,225 L 214,223 L 214,219 L 213,218 L 208,218 L 207,219 L 202,219 L 201,218 L 200,218 L 198,216 L 197,216 L 195,214 L 192,214 L 191,213 L 190,213 L 188,211 Z" fill="none" stroke="black" stroke-width="1"/>
</svg>