<svg xmlns="http://www.w3.org/2000/svg" width="318" height="385">
  <path d="M 248,270 L 247,271 L 244,271 L 244,272 L 243,273 L 242,273 L 242,274 L 240,276 L 236,276 L 234,274 L 229,274 L 229,275 L 227,277 L 225,277 L 225,278 L 223,280 L 222,280 L 222,282 L 221,283 L 220,283 L 218,285 L 218,287 L 219,288 L 219,290 L 224,290 L 226,292 L 228,292 L 229,293 L 229,297 L 230,298 L 230,301 L 231,302 L 233,302 L 234,303 L 238,303 L 241,306 L 241,307 L 242,308 L 242,306 L 245,303 L 246,303 L 246,301 L 247,300 L 247,299 L 248,298 L 249,298 L 250,297 L 252,297 L 253,296 L 255,296 L 255,295 L 256,294 L 256,293 L 257,292 L 260,292 L 261,291 L 264,291 L 266,289 L 269,289 L 269,287 L 268,287 L 267,286 L 267,281 L 266,280 L 264,280 L 263,279 L 262,279 L 261,278 L 261,277 L 259,275 L 259,274 L 258,274 L 256,272 L 255,272 L 254,271 L 254,270 Z" fill="none" stroke="black" stroke-width="1"/>
</svg>