<svg xmlns="http://www.w3.org/2000/svg" width="404" height="430">
  <path d="M 53,159 L 53,160 L 52,161 L 45,161 L 42,164 L 41,164 L 40,163 L 38,163 L 36,165 L 35,165 L 34,166 L 33,166 L 32,167 L 30,167 L 28,165 L 27,165 L 25,167 L 23,167 L 22,168 L 20,168 L 19,169 L 17,169 L 16,170 L 15,170 L 14,171 L 12,171 L 11,172 L 10,172 L 10,174 L 11,174 L 14,177 L 14,178 L 15,179 L 15,180 L 17,182 L 17,185 L 19,187 L 19,188 L 20,189 L 26,189 L 27,190 L 30,190 L 34,194 L 34,196 L 35,197 L 35,198 L 36,199 L 36,214 L 35,215 L 35,217 L 34,218 L 34,222 L 35,223 L 35,224 L 36,224 L 38,226 L 39,226 L 43,230 L 43,231 L 44,232 L 51,232 L 51,230 L 52,229 L 52,228 L 53,227 L 53,226 L 55,224 L 55,223 L 56,222 L 58,222 L 60,220 L 60,219 L 61,218 L 62,218 L 63,217 L 66,217 L 68,219 L 68,221 L 69,222 L 75,222 L 77,220 L 77,219 L 79,217 L 79,216 L 78,216 L 76,214 L 76,211 L 75,210 L 78,207 L 78,204 L 77,203 L 77,198 L 78,197 L 83,197 L 84,196 L 86,196 L 87,195 L 88,195 L 88,192 L 89,191 L 91,191 L 92,192 L 95,192 L 95,191 L 96,190 L 96,186 L 92,182 L 92,181 L 91,180 L 91,177 L 92,176 L 92,174 L 96,170 L 96,169 L 97,168 L 96,167 L 96,166 L 95,165 L 95,164 L 94,163 L 94,162 L 94,165 L 93,166 L 89,166 L 89,167 L 88,168 L 88,169 L 87,170 L 84,170 L 84,171 L 83,172 L 80,172 L 79,173 L 75,173 L 74,172 L 72,172 L 71,171 L 71,170 L 69,170 L 68,169 L 67,169 L 66,168 L 66,167 L 65,166 L 62,166 L 61,165 L 61,164 L 60,163 L 59,163 L 57,161 L 56,161 L 55,160 L 54,160 Z" fill="none" stroke="black" stroke-width="1"/>
</svg>