<svg xmlns="http://www.w3.org/2000/svg" width="225" height="121">
  <path d="M 215,68 L 213,70 L 213,71 L 211,73 L 210,73 L 207,76 L 201,76 L 200,75 L 199,75 L 198,76 L 198,78 L 197,79 L 197,80 L 196,81 L 196,84 L 197,85 L 196,86 L 197,87 L 199,87 L 200,88 L 201,88 L 202,87 L 204,87 L 205,86 L 208,86 L 209,87 L 210,87 L 212,89 L 212,90 L 213,91 L 214,91 L 215,90 L 215,87 L 214,86 L 213,86 L 212,85 L 212,81 L 214,79 L 215,80 L 215,82 L 216,82 L 215,81 L 217,79 L 221,79 L 222,78 L 223,78 L 224,77 L 224,72 L 223,72 L 222,71 L 221,71 L 220,70 L 219,70 L 218,69 L 218,68 Z" fill="none" stroke="black" stroke-width="1"/>
</svg>