<svg xmlns="http://www.w3.org/2000/svg" width="186" height="167">
  <path d="M 62,55 L 61,56 L 60,56 L 59,57 L 58,56 L 56,56 L 56,57 L 55,58 L 55,59 L 56,59 L 57,60 L 57,62 L 56,63 L 56,64 L 55,65 L 55,68 L 56,69 L 54,71 L 54,75 L 55,75 L 56,74 L 59,74 L 61,72 L 65,72 L 66,73 L 67,73 L 68,74 L 68,75 L 70,75 L 71,74 L 76,74 L 79,71 L 79,70 L 80,69 L 81,69 L 82,70 L 83,69 L 83,67 L 82,66 L 82,61 L 81,61 L 80,60 L 79,60 L 78,61 L 77,60 L 74,60 L 73,61 L 73,62 L 72,63 L 71,63 L 70,62 L 69,62 L 67,60 L 67,59 L 68,58 L 68,57 L 65,57 L 64,56 L 64,55 Z" fill="none" stroke="black" stroke-width="1"/>
</svg>