<svg xmlns="http://www.w3.org/2000/svg" width="241" height="225">
  <path d="M 128,63 L 127,64 L 127,66 L 131,70 L 131,75 L 128,78 L 128,79 L 129,80 L 130,80 L 131,81 L 131,82 L 132,82 L 133,81 L 135,83 L 136,83 L 138,85 L 138,87 L 142,87 L 143,88 L 144,87 L 146,87 L 147,88 L 149,88 L 150,89 L 150,90 L 152,88 L 152,85 L 151,84 L 151,80 L 150,80 L 149,79 L 147,79 L 145,77 L 145,76 L 142,73 L 142,70 L 141,70 L 140,69 L 140,67 L 139,67 L 138,66 L 138,65 L 137,65 L 136,66 L 135,66 L 133,64 L 131,64 L 130,63 Z" fill="none" stroke="black" stroke-width="1"/>
</svg>