<svg xmlns="http://www.w3.org/2000/svg" width="176" height="123">
  <path d="M 151,27 L 150,28 L 147,28 L 147,29 L 148,30 L 148,33 L 149,34 L 149,35 L 148,36 L 148,37 L 149,37 L 150,38 L 150,41 L 149,42 L 149,45 L 148,46 L 148,47 L 150,47 L 151,46 L 151,45 L 152,44 L 154,44 L 155,43 L 160,43 L 161,42 L 161,41 L 162,40 L 163,40 L 164,39 L 165,39 L 166,40 L 168,40 L 169,41 L 172,41 L 174,39 L 174,34 L 172,34 L 170,32 L 170,31 L 166,31 L 165,32 L 161,32 L 159,30 L 159,29 L 158,29 L 157,30 L 156,30 L 154,28 L 153,28 L 152,27 Z" fill="none" stroke="black" stroke-width="1"/>
</svg>