<svg xmlns="http://www.w3.org/2000/svg" width="186" height="167">
  <path d="M 61,73 L 59,75 L 56,75 L 55,76 L 54,76 L 54,77 L 53,78 L 53,82 L 55,82 L 57,80 L 58,80 L 59,81 L 59,82 L 61,84 L 61,85 L 62,85 L 64,87 L 65,87 L 66,88 L 72,88 L 73,89 L 75,89 L 77,91 L 77,93 L 79,93 L 80,92 L 83,92 L 84,91 L 84,89 L 83,88 L 83,87 L 82,86 L 82,84 L 79,81 L 78,82 L 77,81 L 76,81 L 75,80 L 75,79 L 74,78 L 74,75 L 71,75 L 70,76 L 68,76 L 67,75 L 67,74 L 66,74 L 65,73 Z" fill="none" stroke="black" stroke-width="1"/>
</svg>