<svg xmlns="http://www.w3.org/2000/svg" width="194" height="141">
  <path d="M 129,94 L 129,97 L 128,98 L 124,98 L 122,100 L 121,100 L 120,101 L 118,101 L 117,102 L 116,102 L 114,104 L 114,106 L 115,107 L 115,111 L 116,111 L 117,110 L 122,110 L 123,109 L 124,109 L 125,108 L 128,108 L 129,107 L 130,107 L 131,106 L 134,106 L 135,107 L 137,107 L 138,106 L 139,106 L 140,105 L 140,101 L 139,100 L 139,99 L 138,98 L 135,98 L 134,97 L 134,96 L 132,94 Z" fill="none" stroke="black" stroke-width="1"/>
</svg>