<svg xmlns="http://www.w3.org/2000/svg" width="225" height="121">
  <path d="M 20,11 L 19,12 L 19,13 L 18,14 L 16,14 L 16,15 L 17,16 L 17,21 L 15,23 L 15,26 L 16,27 L 16,28 L 17,29 L 17,30 L 18,31 L 19,31 L 22,34 L 23,34 L 28,39 L 30,39 L 31,40 L 32,40 L 33,39 L 36,39 L 36,36 L 37,35 L 35,33 L 34,33 L 32,31 L 32,30 L 33,29 L 33,28 L 34,27 L 34,22 L 35,21 L 35,20 L 37,18 L 36,18 L 35,17 L 35,16 L 33,18 L 31,18 L 30,17 L 29,17 L 28,16 L 28,14 L 26,12 L 24,12 L 23,11 Z" fill="none" stroke="black" stroke-width="1"/>
</svg>