<svg xmlns="http://www.w3.org/2000/svg" width="241" height="225">
  <path d="M 119,162 L 118,163 L 117,163 L 117,164 L 116,165 L 112,165 L 111,166 L 111,167 L 109,169 L 108,169 L 107,170 L 108,171 L 110,171 L 111,172 L 111,173 L 115,177 L 115,178 L 116,179 L 116,181 L 115,182 L 115,183 L 114,184 L 115,185 L 115,186 L 117,188 L 116,189 L 117,190 L 118,190 L 119,191 L 120,190 L 119,189 L 120,188 L 119,187 L 120,186 L 121,186 L 121,184 L 122,183 L 122,182 L 121,181 L 121,180 L 120,179 L 120,178 L 121,177 L 121,172 L 124,169 L 124,166 L 123,165 L 123,164 L 122,164 L 121,163 L 121,162 Z" fill="none" stroke="black" stroke-width="1"/>
</svg>