<svg xmlns="http://www.w3.org/2000/svg" width="318" height="385">
  <path d="M 37,0 L 31,6 L 31,7 L 29,9 L 29,10 L 27,12 L 26,12 L 26,14 L 27,15 L 27,16 L 28,17 L 28,18 L 33,23 L 33,24 L 34,25 L 34,29 L 35,30 L 36,30 L 37,31 L 37,33 L 39,35 L 39,36 L 40,37 L 40,39 L 41,40 L 41,41 L 42,42 L 42,44 L 43,45 L 42,46 L 39,46 L 38,47 L 38,49 L 36,51 L 36,54 L 35,55 L 35,56 L 36,57 L 37,57 L 38,58 L 38,59 L 36,61 L 35,61 L 34,62 L 34,64 L 37,67 L 39,67 L 40,68 L 41,68 L 43,70 L 43,72 L 41,74 L 40,74 L 40,76 L 42,78 L 42,79 L 43,79 L 44,80 L 46,80 L 47,81 L 48,81 L 49,82 L 49,87 L 48,88 L 48,89 L 46,91 L 45,91 L 41,95 L 40,95 L 41,96 L 41,97 L 42,97 L 44,99 L 45,99 L 47,101 L 48,101 L 49,102 L 50,102 L 51,103 L 52,103 L 54,105 L 55,105 L 56,106 L 58,106 L 60,108 L 60,110 L 63,113 L 65,113 L 66,114 L 67,114 L 68,115 L 69,115 L 70,116 L 71,116 L 72,115 L 75,115 L 78,118 L 78,120 L 80,122 L 80,120 L 81,119 L 82,119 L 82,117 L 84,115 L 84,114 L 83,113 L 84,112 L 87,112 L 89,110 L 91,110 L 92,111 L 92,112 L 95,112 L 96,111 L 98,111 L 99,110 L 99,107 L 100,106 L 100,105 L 97,102 L 97,100 L 101,96 L 101,95 L 102,94 L 102,93 L 104,91 L 104,88 L 105,87 L 105,86 L 106,85 L 106,82 L 107,81 L 108,81 L 112,77 L 113,77 L 113,76 L 114,75 L 115,75 L 115,73 L 116,72 L 117,72 L 117,67 L 114,64 L 115,63 L 113,61 L 113,58 L 112,57 L 110,57 L 109,56 L 109,55 L 108,54 L 108,53 L 110,51 L 113,51 L 114,50 L 114,47 L 108,47 L 107,46 L 107,45 L 106,44 L 103,44 L 102,43 L 100,45 L 98,45 L 97,46 L 92,46 L 91,45 L 90,45 L 89,44 L 88,44 L 85,41 L 78,41 L 76,39 L 76,38 L 75,37 L 74,37 L 72,35 L 71,35 L 69,33 L 68,33 L 65,30 L 65,29 L 60,24 L 60,23 L 59,23 L 58,22 L 62,18 L 60,16 L 60,13 L 58,11 L 57,11 L 55,9 L 55,8 L 50,8 L 49,7 L 47,7 L 46,6 L 45,6 L 44,5 L 42,5 L 41,4 L 40,4 L 39,3 L 39,2 L 38,2 L 37,1 Z" fill="none" stroke="black" stroke-width="1"/>
</svg>