<svg xmlns="http://www.w3.org/2000/svg" width="1028" height="413">
  <path d="M 901,123 L 900,124 L 901,125 L 903,125 L 904,126 L 904,125 L 903,124 L 902,124 Z" fill="none" stroke="black" stroke-width="1"/>
  <path d="M 880,33 L 880,34 L 883,37 L 883,38 L 882,39 L 880,37 L 877,37 L 877,39 L 878,40 L 877,41 L 873,41 L 872,40 L 871,40 L 870,39 L 866,39 L 865,38 L 861,38 L 860,37 L 859,37 L 858,38 L 858,41 L 857,42 L 856,42 L 855,41 L 855,40 L 856,39 L 856,37 L 855,36 L 853,36 L 853,40 L 852,41 L 851,40 L 845,40 L 846,41 L 846,42 L 845,43 L 841,43 L 840,44 L 839,44 L 839,45 L 836,48 L 836,49 L 835,50 L 835,51 L 834,52 L 834,55 L 832,57 L 832,59 L 833,60 L 833,61 L 832,62 L 832,64 L 828,68 L 828,70 L 827,71 L 828,72 L 828,77 L 829,78 L 829,79 L 833,83 L 837,83 L 838,84 L 839,84 L 843,88 L 843,89 L 844,89 L 847,92 L 848,92 L 851,95 L 851,97 L 850,98 L 850,99 L 848,101 L 848,103 L 849,103 L 850,104 L 850,105 L 851,105 L 852,106 L 854,106 L 855,107 L 856,107 L 857,108 L 859,108 L 860,109 L 865,109 L 866,110 L 866,111 L 867,112 L 868,112 L 871,115 L 871,118 L 873,120 L 869,124 L 870,124 L 871,125 L 871,126 L 876,131 L 876,132 L 878,134 L 879,134 L 881,136 L 882,136 L 884,138 L 885,138 L 887,140 L 887,141 L 888,142 L 895,142 L 898,145 L 899,145 L 900,146 L 901,146 L 902,147 L 907,147 L 908,146 L 910,146 L 912,144 L 913,145 L 916,145 L 918,147 L 918,148 L 923,148 L 923,145 L 924,144 L 927,147 L 927,145 L 925,143 L 925,142 L 920,137 L 919,137 L 917,135 L 916,135 L 915,134 L 913,134 L 912,133 L 910,133 L 909,132 L 903,132 L 902,131 L 903,130 L 904,130 L 905,129 L 906,129 L 907,128 L 906,127 L 905,128 L 903,128 L 902,127 L 898,127 L 897,126 L 897,125 L 895,125 L 894,124 L 895,123 L 898,123 L 899,122 L 895,122 L 894,121 L 895,120 L 894,120 L 893,119 L 892,119 L 889,116 L 889,115 L 890,114 L 888,112 L 887,112 L 886,111 L 884,111 L 883,110 L 884,109 L 887,109 L 888,110 L 893,110 L 894,111 L 894,113 L 897,116 L 898,116 L 901,119 L 902,119 L 903,120 L 904,120 L 905,121 L 906,120 L 905,120 L 904,119 L 905,118 L 907,118 L 908,119 L 909,119 L 910,120 L 910,121 L 911,121 L 912,122 L 918,122 L 919,123 L 919,124 L 920,125 L 923,125 L 925,123 L 926,124 L 927,124 L 928,125 L 929,125 L 931,127 L 932,127 L 933,128 L 934,128 L 935,129 L 939,129 L 940,130 L 945,130 L 946,131 L 951,131 L 952,132 L 960,132 L 961,133 L 963,133 L 964,134 L 967,134 L 969,136 L 971,136 L 972,137 L 980,137 L 981,138 L 984,138 L 985,137 L 989,137 L 990,136 L 996,136 L 997,135 L 998,135 L 999,134 L 1002,134 L 1003,133 L 1005,133 L 1006,132 L 1007,132 L 1009,130 L 1010,130 L 1011,129 L 1012,129 L 1013,128 L 1014,128 L 1017,125 L 1017,124 L 1019,122 L 1020,122 L 1026,116 L 1026,113 L 1027,112 L 1027,108 L 1024,108 L 1023,107 L 1023,102 L 1022,101 L 1022,96 L 1021,95 L 1021,94 L 1020,94 L 1019,95 L 1017,93 L 1015,93 L 1014,94 L 1013,94 L 1012,93 L 1012,92 L 1011,91 L 1012,90 L 1011,90 L 1010,89 L 1008,89 L 1005,86 L 1005,85 L 1003,83 L 1003,84 L 1004,85 L 1003,86 L 999,86 L 997,84 L 996,84 L 995,83 L 994,83 L 993,82 L 992,82 L 988,78 L 986,78 L 985,77 L 984,77 L 983,78 L 982,78 L 980,76 L 980,75 L 979,75 L 978,74 L 977,74 L 972,69 L 971,69 L 970,68 L 968,68 L 966,66 L 964,66 L 962,64 L 961,64 L 960,63 L 959,63 L 958,62 L 957,62 L 956,61 L 955,61 L 954,60 L 952,60 L 951,59 L 949,59 L 947,57 L 946,57 L 945,56 L 944,56 L 943,55 L 940,55 L 939,54 L 937,54 L 936,53 L 931,53 L 930,54 L 924,54 L 923,53 L 920,53 L 919,52 L 918,52 L 917,51 L 918,50 L 917,49 L 913,49 L 914,50 L 913,51 L 906,51 L 906,56 L 905,57 L 903,57 L 902,58 L 899,58 L 898,57 L 900,55 L 901,55 L 902,54 L 903,54 L 903,53 L 901,53 L 900,52 L 901,51 L 902,51 L 903,50 L 904,50 L 904,49 L 905,48 L 899,48 L 895,52 L 894,52 L 893,51 L 897,47 L 894,47 L 893,46 L 889,46 L 888,45 L 888,44 L 883,44 L 881,42 L 882,41 L 887,41 L 888,42 L 891,42 L 892,43 L 897,43 L 898,42 L 898,39 L 896,39 L 895,38 L 892,38 L 891,39 L 888,36 L 886,36 L 885,35 L 884,35 L 882,33 Z" fill="none" stroke="black" stroke-width="1"/>
</svg>