<svg xmlns="http://www.w3.org/2000/svg" width="318" height="385">
  <path d="M 219,291 L 219,292 L 218,293 L 216,293 L 215,294 L 215,295 L 214,296 L 213,296 L 213,297 L 212,298 L 209,298 L 209,302 L 208,303 L 207,303 L 207,307 L 208,308 L 208,312 L 207,313 L 207,314 L 206,315 L 206,317 L 204,319 L 205,319 L 208,322 L 212,322 L 213,321 L 222,321 L 223,322 L 224,322 L 225,323 L 225,325 L 226,326 L 226,327 L 236,327 L 236,324 L 234,322 L 234,321 L 235,320 L 236,320 L 237,319 L 239,319 L 241,317 L 241,315 L 242,314 L 242,312 L 241,311 L 241,308 L 240,307 L 240,306 L 238,304 L 234,304 L 233,303 L 231,303 L 229,301 L 229,298 L 228,297 L 228,293 L 226,293 L 224,291 Z" fill="none" stroke="black" stroke-width="1"/>
</svg>