<svg xmlns="http://www.w3.org/2000/svg" width="404" height="430">
  <path d="M 360,0 L 359,1 L 358,1 L 357,2 L 356,2 L 355,3 L 353,3 L 351,5 L 351,6 L 347,10 L 346,10 L 342,14 L 337,14 L 336,15 L 330,15 L 329,16 L 320,16 L 318,18 L 318,19 L 316,21 L 316,22 L 313,25 L 305,25 L 304,26 L 302,26 L 301,27 L 299,27 L 297,29 L 296,29 L 294,31 L 292,31 L 291,32 L 290,32 L 289,33 L 287,33 L 286,34 L 273,34 L 272,35 L 269,35 L 268,36 L 267,36 L 266,37 L 266,39 L 268,41 L 268,45 L 267,46 L 265,46 L 264,47 L 263,47 L 263,48 L 262,49 L 262,50 L 263,51 L 263,55 L 262,56 L 262,57 L 260,59 L 259,59 L 255,63 L 255,66 L 256,67 L 265,67 L 268,70 L 268,78 L 270,80 L 271,80 L 272,81 L 272,82 L 273,83 L 273,89 L 274,89 L 275,90 L 277,90 L 278,91 L 279,91 L 280,92 L 281,92 L 282,93 L 282,101 L 283,100 L 291,100 L 292,101 L 293,101 L 294,102 L 295,102 L 296,103 L 297,103 L 299,101 L 300,101 L 301,100 L 303,100 L 306,97 L 309,97 L 310,96 L 313,96 L 314,95 L 315,95 L 316,94 L 317,94 L 318,93 L 323,93 L 324,94 L 328,94 L 329,95 L 331,95 L 332,96 L 333,96 L 334,97 L 337,97 L 338,98 L 339,98 L 340,99 L 342,99 L 343,100 L 343,101 L 345,101 L 346,102 L 348,102 L 349,103 L 352,103 L 353,102 L 357,102 L 358,101 L 360,101 L 361,100 L 364,100 L 365,101 L 369,101 L 370,102 L 375,102 L 377,100 L 377,99 L 376,98 L 376,96 L 375,95 L 375,94 L 374,93 L 374,92 L 373,91 L 373,90 L 372,89 L 372,86 L 371,85 L 371,84 L 370,83 L 370,82 L 369,81 L 369,79 L 367,77 L 367,69 L 368,68 L 368,67 L 369,66 L 369,64 L 370,63 L 370,62 L 371,61 L 371,59 L 372,58 L 372,57 L 373,56 L 373,48 L 379,42 L 380,42 L 383,39 L 384,39 L 385,38 L 386,38 L 387,37 L 394,37 L 394,36 L 393,35 L 393,34 L 391,32 L 391,31 L 384,24 L 382,24 L 381,23 L 379,23 L 378,22 L 375,22 L 365,12 L 365,11 L 364,10 L 364,8 L 362,6 L 362,5 L 361,4 L 361,3 L 360,2 Z" fill="none" stroke="black" stroke-width="1"/>
</svg>