<svg xmlns="http://www.w3.org/2000/svg" width="186" height="167">
  <path d="M 111,66 L 108,69 L 107,69 L 109,71 L 109,72 L 110,73 L 110,76 L 111,77 L 110,78 L 108,78 L 106,80 L 104,80 L 103,81 L 102,81 L 101,80 L 99,82 L 98,82 L 97,81 L 96,81 L 95,80 L 94,80 L 93,81 L 93,82 L 92,83 L 92,84 L 93,84 L 95,86 L 96,86 L 97,87 L 97,89 L 96,90 L 96,91 L 99,94 L 102,94 L 103,95 L 104,94 L 105,95 L 106,95 L 108,97 L 110,95 L 110,94 L 111,93 L 111,91 L 110,90 L 113,87 L 115,87 L 116,86 L 118,86 L 119,87 L 120,87 L 120,86 L 121,85 L 121,84 L 119,84 L 118,83 L 118,81 L 119,80 L 119,76 L 120,75 L 120,71 L 119,72 L 116,69 L 116,68 L 114,66 Z" fill="none" stroke="black" stroke-width="1"/>
</svg>