<svg xmlns="http://www.w3.org/2000/svg" width="186" height="167">
  <path d="M 91,85 L 91,86 L 90,87 L 89,87 L 88,88 L 85,88 L 85,91 L 83,93 L 80,93 L 79,94 L 77,94 L 76,93 L 76,91 L 75,90 L 73,90 L 72,89 L 68,89 L 68,90 L 69,91 L 69,95 L 70,96 L 70,101 L 71,102 L 72,102 L 74,100 L 79,100 L 80,101 L 80,102 L 82,104 L 84,104 L 85,105 L 88,102 L 88,101 L 89,100 L 91,100 L 94,97 L 94,96 L 95,95 L 97,95 L 98,94 L 95,91 L 95,90 L 96,89 L 96,87 L 95,87 L 93,85 Z" fill="none" stroke="black" stroke-width="1"/>
</svg>