<svg xmlns="http://www.w3.org/2000/svg" width="467" height="484">
  <path d="M 288,340 L 285,343 L 284,343 L 284,344 L 283,345 L 281,345 L 281,346 L 280,347 L 280,348 L 279,349 L 278,349 L 277,350 L 276,349 L 274,349 L 273,350 L 272,350 L 271,351 L 270,351 L 270,352 L 269,353 L 269,355 L 268,356 L 268,357 L 265,360 L 266,361 L 266,363 L 265,364 L 265,370 L 266,371 L 266,372 L 267,373 L 267,383 L 268,384 L 268,388 L 272,388 L 273,389 L 274,389 L 275,390 L 277,390 L 278,391 L 278,392 L 279,393 L 279,394 L 280,395 L 288,395 L 289,396 L 289,397 L 291,397 L 294,400 L 295,400 L 296,401 L 297,401 L 297,400 L 300,397 L 302,397 L 304,395 L 305,396 L 308,393 L 308,387 L 309,386 L 310,386 L 310,380 L 309,379 L 309,378 L 310,377 L 310,370 L 311,369 L 311,366 L 312,365 L 312,360 L 310,360 L 309,359 L 309,358 L 308,357 L 308,356 L 307,355 L 307,354 L 305,354 L 304,355 L 303,354 L 300,354 L 297,351 L 290,351 L 289,350 L 289,349 L 290,348 L 290,341 L 289,340 Z" fill="none" stroke="black" stroke-width="1"/>
</svg>