<svg xmlns="http://www.w3.org/2000/svg" width="337" height="324">
  <path d="M 248,96 L 248,97 L 247,98 L 247,99 L 245,101 L 239,101 L 238,102 L 237,102 L 236,103 L 233,103 L 232,104 L 232,105 L 233,106 L 233,107 L 234,108 L 233,109 L 233,110 L 232,111 L 232,113 L 231,114 L 231,115 L 230,116 L 230,120 L 229,121 L 229,126 L 230,127 L 230,130 L 229,131 L 229,135 L 230,136 L 230,138 L 229,139 L 229,140 L 230,141 L 231,141 L 232,142 L 233,142 L 234,143 L 234,144 L 236,146 L 236,147 L 237,148 L 237,150 L 238,151 L 238,153 L 239,154 L 240,153 L 240,151 L 241,150 L 242,150 L 244,148 L 245,148 L 246,147 L 247,147 L 256,138 L 257,138 L 258,137 L 259,137 L 261,135 L 261,134 L 262,133 L 262,132 L 263,131 L 263,130 L 267,126 L 267,124 L 268,123 L 268,121 L 269,120 L 269,107 L 268,106 L 268,104 L 267,103 L 267,102 L 266,101 L 266,100 L 261,100 L 260,101 L 254,101 L 249,96 Z" fill="none" stroke="black" stroke-width="1"/>
</svg>