<svg xmlns="http://www.w3.org/2000/svg" width="1028" height="413">
  <path d="M 712,209 L 712,210 L 713,210 L 714,211 L 715,210 L 716,210 L 716,209 Z" fill="none" stroke="black" stroke-width="1"/>
  <path d="M 766,164 L 765,165 L 766,166 L 769,166 L 771,164 L 772,164 Z" fill="none" stroke="black" stroke-width="1"/>
  <path d="M 789,154 L 787,156 L 785,156 L 784,157 L 784,159 L 781,162 L 778,162 L 778,163 L 779,164 L 779,166 L 778,167 L 777,166 L 776,166 L 776,167 L 777,167 L 778,168 L 778,169 L 777,170 L 776,170 L 774,168 L 772,168 L 771,169 L 767,169 L 765,171 L 765,172 L 763,174 L 763,176 L 761,178 L 760,178 L 756,182 L 756,183 L 753,186 L 752,186 L 751,187 L 751,188 L 749,190 L 747,190 L 747,192 L 746,193 L 745,193 L 744,194 L 742,194 L 741,195 L 740,195 L 739,194 L 737,194 L 736,195 L 738,195 L 739,194 L 740,195 L 740,197 L 739,198 L 739,199 L 738,200 L 737,200 L 736,199 L 736,198 L 735,198 L 733,200 L 733,202 L 732,203 L 729,203 L 728,204 L 729,205 L 730,205 L 731,206 L 731,208 L 730,209 L 729,209 L 728,210 L 726,210 L 725,211 L 723,209 L 722,210 L 721,210 L 720,211 L 719,210 L 718,210 L 718,212 L 719,213 L 718,214 L 717,214 L 717,217 L 715,219 L 714,219 L 713,220 L 712,220 L 712,222 L 711,223 L 711,225 L 712,226 L 712,229 L 713,229 L 715,231 L 715,232 L 716,233 L 718,233 L 719,234 L 721,234 L 724,237 L 725,237 L 726,238 L 728,238 L 729,237 L 731,237 L 733,235 L 734,235 L 734,234 L 736,232 L 739,232 L 741,234 L 741,233 L 742,232 L 744,232 L 746,230 L 750,230 L 751,231 L 752,231 L 753,232 L 754,232 L 755,233 L 757,231 L 760,231 L 760,229 L 761,228 L 761,227 L 762,226 L 762,223 L 764,221 L 766,221 L 766,220 L 767,219 L 767,214 L 769,212 L 769,211 L 770,210 L 770,209 L 772,207 L 772,204 L 773,203 L 773,202 L 775,200 L 777,200 L 778,201 L 779,201 L 780,202 L 784,202 L 786,204 L 789,204 L 789,203 L 790,202 L 790,201 L 791,200 L 792,200 L 792,199 L 791,198 L 791,196 L 792,195 L 792,194 L 794,192 L 795,192 L 797,190 L 799,190 L 800,189 L 802,189 L 802,186 L 803,185 L 807,185 L 808,186 L 809,185 L 809,175 L 806,172 L 806,171 L 803,171 L 802,170 L 801,170 L 799,168 L 799,167 L 798,166 L 798,165 L 797,165 L 796,164 L 795,164 L 793,162 L 793,160 L 794,159 L 794,157 L 791,154 Z" fill="none" stroke="black" stroke-width="1"/>
</svg>