<svg xmlns="http://www.w3.org/2000/svg" width="361" height="306">
  <path d="M 112,104 L 111,105 L 110,105 L 108,107 L 106,107 L 103,110 L 103,111 L 101,113 L 101,117 L 99,119 L 99,121 L 98,122 L 98,123 L 99,124 L 98,125 L 98,126 L 101,126 L 110,135 L 110,136 L 111,137 L 111,138 L 113,140 L 113,141 L 114,142 L 113,143 L 113,146 L 114,147 L 114,148 L 117,151 L 117,152 L 121,156 L 121,160 L 125,160 L 126,159 L 129,159 L 130,160 L 131,160 L 132,161 L 133,161 L 134,162 L 140,162 L 141,161 L 143,161 L 144,162 L 146,162 L 147,163 L 149,163 L 150,164 L 152,164 L 153,165 L 156,165 L 157,164 L 157,162 L 156,161 L 156,159 L 154,157 L 155,156 L 155,154 L 154,153 L 154,152 L 155,151 L 156,152 L 158,150 L 156,148 L 156,140 L 157,139 L 157,138 L 156,138 L 154,136 L 154,134 L 153,133 L 153,132 L 150,129 L 150,128 L 146,124 L 146,123 L 143,123 L 142,124 L 139,124 L 137,122 L 137,121 L 129,121 L 127,119 L 127,116 L 126,115 L 126,114 L 125,113 L 124,113 L 120,109 L 119,109 L 118,108 L 117,108 L 116,107 L 115,107 Z" fill="none" stroke="black" stroke-width="1"/>
</svg>