<svg xmlns="http://www.w3.org/2000/svg" width="753" height="314">
  <path d="M 296,125 L 295,126 L 292,126 L 291,127 L 284,127 L 283,128 L 280,128 L 280,132 L 278,134 L 278,135 L 275,138 L 275,139 L 274,140 L 274,141 L 263,152 L 262,152 L 262,155 L 263,155 L 264,154 L 265,155 L 265,156 L 273,164 L 274,164 L 278,168 L 279,168 L 281,170 L 283,170 L 283,169 L 286,166 L 295,166 L 296,167 L 298,165 L 299,165 L 300,166 L 301,166 L 303,168 L 305,168 L 306,169 L 310,169 L 312,171 L 312,172 L 315,175 L 315,176 L 317,178 L 318,178 L 319,179 L 323,179 L 324,180 L 325,180 L 326,179 L 326,178 L 327,177 L 327,176 L 328,175 L 328,173 L 323,168 L 323,167 L 322,166 L 322,165 L 321,164 L 321,163 L 320,162 L 320,157 L 319,156 L 319,153 L 321,151 L 321,150 L 322,149 L 322,148 L 323,147 L 323,146 L 324,145 L 324,143 L 326,141 L 326,140 L 327,139 L 327,137 L 328,136 L 328,131 L 326,131 L 325,132 L 324,132 L 323,133 L 321,133 L 320,132 L 318,132 L 316,130 L 315,130 L 314,129 L 312,129 L 311,128 L 309,128 L 308,127 L 302,127 L 301,126 L 299,126 L 298,125 Z" fill="none" stroke="black" stroke-width="1"/>
</svg>