<svg xmlns="http://www.w3.org/2000/svg" width="153" height="229">
  <path d="M 58,168 L 58,174 L 55,177 L 50,177 L 49,178 L 49,180 L 50,181 L 50,182 L 49,183 L 49,189 L 48,190 L 48,192 L 47,193 L 47,196 L 46,197 L 46,199 L 44,201 L 44,208 L 45,208 L 45,207 L 47,205 L 47,204 L 49,202 L 50,202 L 51,203 L 49,205 L 49,206 L 48,207 L 48,208 L 47,209 L 49,209 L 48,208 L 50,206 L 51,207 L 51,206 L 52,205 L 53,206 L 53,208 L 52,209 L 51,209 L 51,210 L 53,208 L 54,209 L 54,211 L 55,211 L 56,210 L 56,206 L 57,205 L 58,205 L 59,206 L 58,207 L 58,211 L 59,211 L 59,210 L 60,209 L 60,205 L 59,204 L 59,201 L 60,200 L 60,198 L 61,197 L 61,195 L 62,194 L 62,193 L 64,191 L 65,191 L 67,189 L 68,189 L 68,185 L 69,184 L 69,181 L 65,181 L 64,180 L 64,179 L 63,178 L 63,177 L 62,176 L 62,173 L 61,172 L 61,170 L 59,168 Z" fill="none" stroke="black" stroke-width="1"/>
</svg>