<svg xmlns="http://www.w3.org/2000/svg" width="474" height="213">
  <path d="M 386,25 L 385,26 L 385,27 L 382,30 L 380,30 L 378,32 L 378,33 L 377,34 L 376,34 L 375,35 L 375,36 L 376,37 L 376,38 L 377,39 L 377,40 L 375,42 L 374,42 L 372,40 L 367,40 L 366,41 L 365,41 L 365,42 L 362,45 L 362,46 L 361,47 L 361,49 L 364,52 L 364,53 L 366,53 L 368,55 L 370,55 L 372,57 L 372,58 L 376,62 L 376,67 L 378,67 L 379,68 L 380,67 L 382,67 L 382,66 L 384,64 L 385,64 L 386,63 L 387,63 L 388,62 L 389,62 L 390,61 L 392,61 L 393,62 L 394,62 L 395,61 L 397,61 L 400,64 L 401,63 L 404,63 L 404,60 L 403,59 L 403,58 L 402,57 L 402,50 L 403,49 L 403,48 L 404,47 L 401,44 L 401,42 L 400,41 L 400,40 L 399,39 L 399,36 L 398,35 L 397,35 L 396,34 L 396,33 L 395,32 L 395,29 L 393,27 L 391,27 L 390,26 L 389,26 L 388,25 Z" fill="none" stroke="black" stroke-width="1"/>
</svg>