<svg xmlns="http://www.w3.org/2000/svg" width="412" height="441">
  <path d="M 31,304 L 31,306 L 32,305 Z" fill="none" stroke="black" stroke-width="1"/>
  <path d="M 46,302 L 43,305 L 43,306 L 42,307 L 42,308 L 41,309 L 40,309 L 39,308 L 38,308 L 38,309 L 37,310 L 38,310 L 40,312 L 43,312 L 44,313 L 45,313 L 46,312 L 48,312 L 49,313 L 50,313 L 50,311 L 51,310 L 52,310 L 53,311 L 57,311 L 57,309 L 55,309 L 54,308 L 53,308 L 49,304 L 48,304 L 47,303 L 47,302 Z" fill="none" stroke="black" stroke-width="1"/>
</svg>