<svg xmlns="http://www.w3.org/2000/svg" width="412" height="441">
  <path d="M 94,303 L 94,304 L 93,305 L 92,305 L 91,306 L 90,306 L 89,307 L 86,307 L 85,308 L 83,308 L 83,309 L 82,310 L 82,311 L 77,316 L 77,317 L 76,318 L 74,318 L 74,319 L 75,320 L 77,320 L 78,321 L 77,322 L 77,323 L 79,323 L 80,322 L 81,322 L 82,323 L 82,319 L 86,315 L 86,313 L 87,312 L 88,312 L 90,310 L 91,310 L 92,309 L 96,309 L 101,314 L 101,311 L 103,309 L 103,308 L 102,308 L 101,307 L 101,306 L 99,304 L 96,304 L 95,303 Z" fill="none" stroke="black" stroke-width="1"/>
</svg>