<svg xmlns="http://www.w3.org/2000/svg" width="273" height="267">
  <path d="M 211,16 L 210,17 L 209,17 L 204,22 L 204,24 L 205,25 L 205,27 L 206,28 L 206,29 L 208,29 L 209,28 L 211,28 L 215,32 L 215,33 L 216,33 L 217,34 L 218,34 L 220,36 L 220,37 L 218,39 L 218,41 L 219,42 L 221,42 L 222,41 L 223,41 L 225,39 L 227,39 L 229,41 L 230,41 L 231,40 L 232,40 L 232,39 L 229,36 L 228,36 L 226,34 L 226,32 L 227,31 L 227,28 L 226,27 L 226,26 L 225,26 L 224,25 L 224,23 L 223,23 L 222,22 L 222,21 L 221,20 L 221,18 L 220,18 L 218,16 L 214,16 L 213,17 L 212,16 Z" fill="none" stroke="black" stroke-width="1"/>
</svg>