<svg xmlns="http://www.w3.org/2000/svg" width="273" height="267">
  <path d="M 256,33 L 259,36 L 260,36 L 261,37 L 262,37 L 263,38 L 265,38 L 265,37 L 264,37 L 263,36 L 261,36 L 258,33 Z" fill="none" stroke="black" stroke-width="1"/>
  <path d="M 249,33 L 247,35 L 247,36 L 244,39 L 244,41 L 241,44 L 240,44 L 241,45 L 242,45 L 243,46 L 243,47 L 245,49 L 246,49 L 248,47 L 250,47 L 255,52 L 257,52 L 260,49 L 265,49 L 266,48 L 265,47 L 265,46 L 264,45 L 264,44 L 263,43 L 263,42 L 262,41 L 261,41 L 260,40 L 259,40 L 253,34 L 250,34 Z" fill="none" stroke="black" stroke-width="1"/>
</svg>