<svg xmlns="http://www.w3.org/2000/svg" width="182" height="244">
  <path d="M 151,142 L 150,143 L 149,143 L 146,146 L 145,146 L 143,148 L 139,148 L 138,147 L 137,147 L 136,146 L 135,146 L 134,145 L 134,144 L 133,144 L 131,146 L 130,146 L 129,147 L 127,147 L 126,148 L 125,148 L 125,153 L 129,157 L 129,159 L 130,160 L 131,160 L 132,161 L 132,163 L 133,164 L 133,166 L 134,167 L 136,167 L 138,169 L 140,169 L 142,167 L 144,167 L 145,166 L 148,166 L 149,167 L 149,168 L 150,169 L 151,169 L 152,168 L 152,162 L 151,161 L 151,160 L 150,159 L 150,157 L 149,156 L 149,155 L 148,154 L 148,149 L 149,148 L 150,148 L 150,147 L 151,146 Z" fill="none" stroke="black" stroke-width="1"/>
</svg>