<svg xmlns="http://www.w3.org/2000/svg" width="273" height="267">
  <path d="M 255,97 L 255,98 L 256,98 Z" fill="none" stroke="black" stroke-width="1"/>
  <path d="M 245,81 L 244,82 L 243,82 L 242,83 L 240,83 L 240,86 L 238,88 L 240,90 L 240,91 L 241,92 L 240,93 L 242,95 L 238,99 L 237,99 L 236,100 L 235,100 L 234,101 L 233,101 L 229,105 L 231,105 L 233,107 L 233,108 L 234,109 L 238,109 L 239,108 L 242,108 L 244,110 L 244,112 L 244,111 L 245,110 L 246,110 L 246,109 L 245,108 L 245,107 L 246,106 L 247,106 L 247,104 L 249,102 L 249,101 L 247,101 L 246,100 L 246,99 L 247,98 L 248,99 L 250,99 L 251,100 L 252,99 L 252,98 L 253,97 L 253,94 L 254,93 L 255,93 L 257,95 L 257,96 L 258,96 L 258,95 L 260,93 L 261,94 L 262,94 L 260,92 L 260,89 L 259,88 L 260,87 L 261,87 L 262,86 L 262,85 L 261,84 L 262,83 L 263,83 L 262,82 L 262,81 L 260,81 L 258,83 L 258,84 L 255,87 L 254,87 L 251,84 L 250,85 L 248,85 L 245,82 Z" fill="none" stroke="black" stroke-width="1"/>
</svg>