<svg xmlns="http://www.w3.org/2000/svg" width="412" height="441">
  <path d="M 88,279 L 87,280 L 86,280 L 85,281 L 84,281 L 83,282 L 82,282 L 81,283 L 78,283 L 76,285 L 75,285 L 73,287 L 73,288 L 70,291 L 70,295 L 71,295 L 72,294 L 74,294 L 75,295 L 74,296 L 73,296 L 73,297 L 74,298 L 74,297 L 75,296 L 76,297 L 77,297 L 80,294 L 83,294 L 84,295 L 85,295 L 85,294 L 86,293 L 87,293 L 88,294 L 90,292 L 91,292 L 92,291 L 93,291 L 93,290 L 92,290 L 91,289 L 91,288 L 92,287 L 92,285 L 91,285 L 89,283 L 89,282 L 90,281 L 89,280 L 89,279 Z" fill="none" stroke="black" stroke-width="1"/>
</svg>