<svg xmlns="http://www.w3.org/2000/svg" width="241" height="225">
  <path d="M 41,29 L 40,30 L 40,31 L 37,34 L 36,34 L 35,35 L 34,34 L 34,35 L 33,36 L 32,36 L 32,38 L 31,39 L 31,40 L 30,41 L 30,43 L 29,44 L 30,45 L 30,46 L 31,47 L 31,51 L 32,51 L 34,53 L 34,54 L 35,54 L 36,53 L 37,53 L 39,51 L 40,52 L 42,50 L 43,50 L 45,48 L 46,49 L 48,49 L 49,50 L 49,48 L 48,47 L 48,46 L 50,44 L 50,43 L 48,41 L 48,39 L 50,37 L 49,36 L 49,32 L 50,31 L 50,30 L 48,30 L 47,29 Z" fill="none" stroke="black" stroke-width="1"/>
</svg>