<svg xmlns="http://www.w3.org/2000/svg" width="273" height="267">
  <path d="M 211,161 L 212,161 Z" fill="none" stroke="black" stroke-width="1"/>
  <path d="M 207,138 L 206,139 L 206,141 L 204,143 L 201,143 L 199,141 L 198,141 L 197,140 L 195,140 L 194,141 L 194,142 L 192,144 L 191,144 L 190,145 L 190,147 L 189,148 L 189,150 L 190,151 L 190,152 L 191,153 L 191,156 L 192,157 L 192,159 L 190,161 L 190,162 L 191,163 L 191,168 L 192,169 L 192,171 L 193,172 L 193,174 L 195,172 L 196,173 L 196,175 L 197,174 L 197,173 L 196,173 L 195,172 L 196,171 L 198,171 L 200,169 L 200,168 L 201,167 L 202,167 L 203,168 L 203,167 L 206,164 L 207,164 L 207,163 L 206,163 L 205,162 L 203,162 L 202,161 L 203,160 L 206,160 L 207,161 L 208,160 L 206,160 L 205,159 L 207,157 L 208,157 L 210,159 L 212,157 L 213,158 L 214,158 L 215,159 L 215,158 L 217,156 L 216,156 L 214,154 L 216,152 L 217,153 L 217,154 L 218,153 L 220,153 L 220,152 L 219,152 L 218,151 L 218,150 L 217,150 L 216,149 L 216,148 L 215,148 L 214,147 L 214,146 L 213,146 L 212,145 L 212,144 L 213,143 L 211,141 L 211,140 L 210,139 L 211,138 Z" fill="none" stroke="black" stroke-width="1"/>
</svg>