<svg xmlns="http://www.w3.org/2000/svg" width="273" height="267">
  <path d="M 179,92 L 175,96 L 175,97 L 173,99 L 173,100 L 170,103 L 170,104 L 169,105 L 168,105 L 165,108 L 164,107 L 162,107 L 161,106 L 160,107 L 159,106 L 155,106 L 154,107 L 153,106 L 152,107 L 151,106 L 150,107 L 149,107 L 148,108 L 145,108 L 144,109 L 142,109 L 141,110 L 141,111 L 143,113 L 143,114 L 145,116 L 145,118 L 144,119 L 144,121 L 146,123 L 146,125 L 145,126 L 147,128 L 147,130 L 145,132 L 145,133 L 146,132 L 147,132 L 148,131 L 149,131 L 151,129 L 158,129 L 160,127 L 160,126 L 159,125 L 161,123 L 163,123 L 164,122 L 166,122 L 168,124 L 169,124 L 170,123 L 170,122 L 172,120 L 174,120 L 175,119 L 177,121 L 177,123 L 178,124 L 180,124 L 182,122 L 182,120 L 183,119 L 183,117 L 184,116 L 184,115 L 185,114 L 186,115 L 187,114 L 189,114 L 190,113 L 191,113 L 191,112 L 193,110 L 190,107 L 190,104 L 191,103 L 190,102 L 190,101 L 189,101 L 188,100 L 188,99 L 185,96 L 185,95 L 184,94 L 184,93 L 183,92 Z" fill="none" stroke="black" stroke-width="1"/>
</svg>