<svg xmlns="http://www.w3.org/2000/svg" width="171" height="149">
  <path d="M 151,23 L 149,25 L 148,25 L 147,26 L 145,26 L 144,27 L 141,27 L 140,28 L 138,28 L 135,31 L 135,33 L 136,33 L 137,34 L 137,38 L 138,39 L 138,41 L 139,42 L 140,42 L 141,43 L 141,44 L 139,46 L 139,47 L 140,48 L 141,48 L 142,49 L 142,50 L 144,50 L 145,51 L 146,51 L 147,50 L 148,50 L 149,49 L 150,49 L 152,51 L 153,51 L 154,52 L 156,52 L 157,53 L 158,52 L 158,50 L 157,49 L 156,49 L 155,48 L 155,46 L 157,44 L 157,43 L 158,42 L 159,42 L 160,41 L 160,40 L 159,39 L 159,37 L 158,37 L 157,36 L 157,35 L 156,34 L 156,33 L 155,32 L 155,30 L 154,30 L 152,28 L 152,23 Z" fill="none" stroke="black" stroke-width="1"/>
</svg>