<svg xmlns="http://www.w3.org/2000/svg" width="412" height="441">
  <path d="M 147,255 L 145,257 L 145,262 L 146,263 L 145,264 L 145,265 L 144,266 L 143,265 L 142,265 L 141,266 L 139,266 L 138,267 L 136,267 L 135,268 L 135,269 L 136,270 L 136,273 L 138,275 L 138,276 L 137,277 L 137,280 L 138,279 L 139,279 L 140,280 L 140,278 L 142,276 L 142,275 L 143,274 L 144,274 L 145,273 L 146,273 L 147,274 L 148,274 L 149,275 L 149,276 L 151,276 L 152,277 L 153,276 L 155,276 L 155,275 L 156,274 L 156,273 L 154,271 L 154,270 L 151,267 L 152,266 L 153,266 L 155,264 L 156,264 L 156,263 L 155,262 L 156,261 L 155,260 L 156,259 L 156,256 L 151,256 L 150,255 Z" fill="none" stroke="black" stroke-width="1"/>
</svg>