<svg xmlns="http://www.w3.org/2000/svg" width="474" height="213">
  <path d="M 319,133 L 318,134 L 316,134 L 315,135 L 314,135 L 313,136 L 312,136 L 311,137 L 310,137 L 309,138 L 308,138 L 306,140 L 305,140 L 302,143 L 301,143 L 300,144 L 298,144 L 296,146 L 295,146 L 294,147 L 291,147 L 290,148 L 289,148 L 288,149 L 286,149 L 287,150 L 287,151 L 286,152 L 286,153 L 287,154 L 287,157 L 294,164 L 297,161 L 300,161 L 301,160 L 302,160 L 303,161 L 304,160 L 307,163 L 308,162 L 310,162 L 311,163 L 312,162 L 315,162 L 316,163 L 318,163 L 319,164 L 320,164 L 321,163 L 323,163 L 324,164 L 325,163 L 326,163 L 327,162 L 328,163 L 328,164 L 331,161 L 331,157 L 328,154 L 328,153 L 329,152 L 329,147 L 327,145 L 327,143 L 329,141 L 329,139 L 330,138 L 328,136 L 327,136 L 326,135 L 325,136 L 322,133 Z" fill="none" stroke="black" stroke-width="1"/>
</svg>