<svg xmlns="http://www.w3.org/2000/svg" width="412" height="441">
  <path d="M 148,236 L 146,238 L 144,238 L 143,239 L 142,239 L 141,240 L 141,241 L 140,242 L 140,243 L 141,244 L 141,245 L 142,246 L 142,248 L 141,249 L 141,250 L 140,251 L 140,252 L 137,255 L 137,256 L 135,258 L 136,259 L 138,259 L 139,260 L 144,260 L 144,257 L 147,254 L 150,254 L 151,255 L 157,255 L 157,250 L 156,250 L 154,248 L 154,247 L 152,247 L 152,249 L 150,251 L 148,251 L 147,250 L 146,250 L 145,249 L 145,245 L 143,245 L 142,244 L 144,242 L 145,242 L 150,237 L 150,236 Z" fill="none" stroke="black" stroke-width="1"/>
</svg>