<svg xmlns="http://www.w3.org/2000/svg" width="474" height="213">
  <path d="M 392,187 L 391,188 L 391,189 L 390,190 L 389,190 L 387,192 L 386,192 L 385,193 L 383,193 L 382,192 L 381,192 L 380,191 L 379,191 L 378,192 L 377,192 L 376,193 L 375,193 L 375,194 L 374,195 L 374,196 L 372,198 L 371,197 L 370,197 L 369,198 L 369,201 L 368,202 L 368,203 L 367,204 L 366,204 L 367,205 L 367,208 L 365,210 L 365,211 L 368,211 L 370,209 L 372,209 L 373,208 L 374,208 L 375,209 L 376,208 L 377,208 L 378,209 L 379,208 L 382,208 L 383,207 L 385,207 L 386,206 L 387,206 L 388,205 L 389,206 L 389,207 L 392,210 L 397,210 L 398,209 L 400,209 L 403,212 L 405,212 L 406,211 L 407,211 L 408,210 L 410,210 L 414,206 L 414,204 L 416,202 L 416,201 L 415,200 L 414,200 L 413,199 L 412,199 L 411,198 L 411,197 L 408,194 L 406,194 L 405,195 L 403,195 L 402,194 L 402,193 L 401,192 L 401,190 L 400,189 L 400,188 L 399,188 L 397,190 L 394,187 Z" fill="none" stroke="black" stroke-width="1"/>
</svg>