<svg xmlns="http://www.w3.org/2000/svg" width="273" height="267">
  <path d="M 92,129 L 87,134 L 84,134 L 82,132 L 82,131 L 81,130 L 80,131 L 79,131 L 79,132 L 78,133 L 77,133 L 78,134 L 78,137 L 77,138 L 77,139 L 78,140 L 78,141 L 77,142 L 77,144 L 76,145 L 76,147 L 77,148 L 77,152 L 76,153 L 76,156 L 77,157 L 77,158 L 80,161 L 80,163 L 82,165 L 82,168 L 83,169 L 85,169 L 86,170 L 88,170 L 89,171 L 90,171 L 91,170 L 93,170 L 94,171 L 94,172 L 95,173 L 99,169 L 100,169 L 101,170 L 103,168 L 103,167 L 104,166 L 105,166 L 107,168 L 108,168 L 109,169 L 112,169 L 113,170 L 113,176 L 116,173 L 116,172 L 119,169 L 119,168 L 120,167 L 120,166 L 119,165 L 119,163 L 118,162 L 117,162 L 117,164 L 115,166 L 114,166 L 112,164 L 112,163 L 113,162 L 113,161 L 112,160 L 112,155 L 111,154 L 110,155 L 106,155 L 106,156 L 105,157 L 103,155 L 103,153 L 102,152 L 103,151 L 103,150 L 102,149 L 99,149 L 98,148 L 99,147 L 99,146 L 101,144 L 101,141 L 104,138 L 103,137 L 101,137 L 100,136 L 100,135 L 99,134 L 99,132 L 100,131 L 98,129 L 97,130 L 94,130 L 93,129 Z" fill="none" stroke="black" stroke-width="1"/>
</svg>