<svg xmlns="http://www.w3.org/2000/svg" width="186" height="167">
  <path d="M 121,48 L 115,54 L 114,54 L 113,55 L 112,55 L 111,54 L 110,54 L 110,56 L 109,57 L 109,59 L 111,61 L 111,62 L 112,63 L 112,65 L 114,65 L 117,68 L 117,69 L 119,71 L 119,70 L 120,69 L 123,69 L 124,68 L 125,68 L 124,67 L 124,64 L 125,63 L 126,63 L 127,64 L 129,64 L 130,65 L 130,66 L 131,66 L 131,65 L 134,62 L 135,62 L 136,63 L 137,63 L 138,62 L 138,61 L 136,59 L 136,56 L 135,56 L 134,55 L 133,55 L 132,54 L 132,53 L 131,53 L 130,52 L 130,51 L 128,49 L 127,49 L 125,51 L 123,51 L 122,50 L 122,49 Z" fill="none" stroke="black" stroke-width="1"/>
</svg>