<svg xmlns="http://www.w3.org/2000/svg" width="171" height="149">
  <path d="M 140,3 L 140,4 L 138,6 L 138,9 L 139,10 L 137,12 L 137,15 L 136,16 L 137,17 L 136,18 L 136,19 L 135,20 L 134,20 L 133,21 L 132,21 L 131,22 L 131,24 L 133,26 L 134,26 L 135,27 L 140,27 L 141,26 L 144,26 L 145,25 L 147,25 L 148,24 L 149,24 L 150,23 L 150,22 L 148,20 L 148,19 L 151,16 L 153,16 L 154,15 L 160,15 L 161,14 L 161,13 L 162,12 L 162,11 L 164,9 L 165,9 L 165,8 L 164,7 L 164,6 L 158,6 L 157,5 L 147,5 L 146,4 L 145,4 L 144,3 Z" fill="none" stroke="black" stroke-width="1"/>
</svg>