<svg xmlns="http://www.w3.org/2000/svg" width="412" height="441">
  <path d="M 181,240 L 181,241 L 180,242 L 179,242 L 178,243 L 177,243 L 177,246 L 176,247 L 176,248 L 174,250 L 173,250 L 172,251 L 169,251 L 169,252 L 167,254 L 167,256 L 168,257 L 169,256 L 170,256 L 171,257 L 171,258 L 170,259 L 171,260 L 171,264 L 172,264 L 173,265 L 177,261 L 178,261 L 179,260 L 179,259 L 182,256 L 185,256 L 185,255 L 183,253 L 183,248 L 182,247 L 182,244 L 181,243 L 181,242 L 182,241 Z" fill="none" stroke="black" stroke-width="1"/>
</svg>