<svg xmlns="http://www.w3.org/2000/svg" width="182" height="244">
  <path d="M 98,39 L 97,40 L 96,40 L 95,41 L 94,41 L 93,42 L 93,44 L 92,45 L 91,44 L 90,44 L 89,43 L 88,43 L 87,42 L 84,42 L 84,43 L 83,44 L 83,45 L 82,46 L 82,47 L 84,49 L 84,50 L 87,53 L 87,55 L 86,56 L 86,57 L 85,58 L 83,58 L 81,60 L 80,60 L 78,62 L 77,62 L 76,63 L 74,63 L 74,64 L 75,65 L 75,66 L 79,66 L 81,68 L 81,69 L 82,70 L 82,74 L 83,75 L 84,75 L 85,74 L 88,74 L 89,73 L 91,73 L 92,74 L 94,74 L 95,75 L 97,75 L 99,73 L 98,73 L 97,72 L 97,70 L 96,70 L 93,67 L 95,65 L 95,64 L 96,63 L 96,62 L 95,61 L 97,59 L 102,59 L 103,58 L 104,58 L 105,57 L 106,57 L 106,56 L 107,55 L 108,55 L 109,54 L 109,52 L 106,49 L 103,49 L 102,48 L 102,47 L 103,46 L 104,46 L 105,45 L 105,44 L 104,43 L 103,43 L 100,40 L 99,40 Z" fill="none" stroke="black" stroke-width="1"/>
</svg>