<svg xmlns="http://www.w3.org/2000/svg" width="99" height="181">
  <path d="M 40,45 L 35,50 L 33,50 L 32,51 L 30,51 L 29,52 L 28,52 L 27,53 L 26,53 L 26,54 L 24,56 L 24,59 L 21,62 L 20,62 L 16,66 L 16,67 L 17,68 L 16,69 L 16,70 L 14,72 L 14,74 L 13,75 L 13,76 L 12,77 L 12,78 L 13,78 L 14,79 L 18,79 L 19,78 L 19,77 L 20,76 L 21,76 L 23,74 L 26,74 L 27,75 L 29,73 L 30,73 L 31,72 L 32,72 L 33,73 L 33,71 L 34,70 L 35,70 L 36,71 L 36,70 L 37,69 L 36,68 L 37,67 L 35,65 L 35,64 L 33,62 L 33,61 L 34,60 L 34,59 L 35,58 L 38,58 L 39,57 L 40,57 L 40,50 L 41,49 L 43,49 L 41,47 L 41,45 Z" fill="none" stroke="black" stroke-width="1"/>
</svg>