<svg xmlns="http://www.w3.org/2000/svg" width="412" height="441">
  <path d="M 223,117 L 218,122 L 217,122 L 216,121 L 214,121 L 214,124 L 215,125 L 215,127 L 214,128 L 214,129 L 213,130 L 212,130 L 211,131 L 209,131 L 208,130 L 204,130 L 202,128 L 201,128 L 200,127 L 199,127 L 198,128 L 198,130 L 199,130 L 200,131 L 200,132 L 201,133 L 197,137 L 196,137 L 194,139 L 195,140 L 195,141 L 197,143 L 199,141 L 204,141 L 206,143 L 206,144 L 207,145 L 207,146 L 209,144 L 210,144 L 212,142 L 213,142 L 214,141 L 215,141 L 216,140 L 220,140 L 221,141 L 222,141 L 224,143 L 225,143 L 226,144 L 227,144 L 229,146 L 230,146 L 231,147 L 232,147 L 233,148 L 234,148 L 235,149 L 237,149 L 238,150 L 239,150 L 240,151 L 241,151 L 242,152 L 242,153 L 243,152 L 243,150 L 244,149 L 243,148 L 243,147 L 239,143 L 239,142 L 238,142 L 235,139 L 234,139 L 232,137 L 232,136 L 231,135 L 233,133 L 232,132 L 233,131 L 233,130 L 232,129 L 233,128 L 232,127 L 232,126 L 231,126 L 230,125 L 229,125 L 226,122 L 226,121 L 224,119 L 224,118 Z" fill="none" stroke="black" stroke-width="1"/>
</svg>