<svg xmlns="http://www.w3.org/2000/svg" width="333" height="139">
  <path d="M 128,70 L 127,71 L 126,71 L 124,73 L 122,73 L 121,74 L 119,74 L 119,76 L 117,78 L 115,78 L 113,80 L 109,80 L 108,81 L 105,81 L 104,82 L 103,82 L 103,83 L 102,84 L 105,87 L 104,88 L 104,89 L 103,90 L 103,94 L 105,94 L 107,96 L 109,94 L 109,92 L 110,91 L 111,91 L 113,89 L 116,89 L 117,90 L 120,90 L 121,91 L 123,91 L 126,88 L 129,88 L 130,87 L 131,87 L 131,83 L 132,82 L 132,78 L 134,76 L 135,76 L 135,74 L 134,74 L 130,70 Z" fill="none" stroke="black" stroke-width="1"/>
</svg>