<svg xmlns="http://www.w3.org/2000/svg" width="402" height="344">
  <path d="M 268,217 L 267,218 L 266,218 L 264,220 L 264,222 L 265,223 L 265,225 L 266,226 L 266,227 L 259,234 L 258,234 L 257,235 L 256,235 L 255,234 L 254,234 L 253,235 L 252,235 L 252,236 L 250,238 L 250,239 L 249,240 L 249,241 L 247,243 L 247,244 L 244,247 L 242,247 L 241,248 L 241,250 L 240,251 L 240,252 L 239,253 L 239,254 L 238,255 L 230,255 L 229,254 L 227,254 L 226,253 L 226,259 L 223,262 L 223,263 L 221,265 L 221,266 L 220,267 L 220,269 L 221,269 L 222,268 L 224,268 L 225,267 L 227,267 L 228,266 L 231,266 L 232,265 L 233,265 L 234,264 L 235,264 L 238,261 L 240,261 L 242,259 L 244,259 L 247,256 L 248,256 L 250,254 L 251,254 L 257,248 L 257,245 L 258,244 L 259,244 L 260,243 L 260,241 L 263,238 L 263,237 L 264,236 L 266,236 L 267,235 L 268,235 L 269,234 L 269,231 L 271,229 L 272,229 L 274,227 L 274,226 L 276,224 L 277,224 L 277,223 L 281,219 L 280,219 L 279,220 L 278,220 L 277,219 L 276,219 L 275,218 L 273,220 L 271,220 Z" fill="none" stroke="black" stroke-width="1"/>
</svg>