<svg xmlns="http://www.w3.org/2000/svg" width="186" height="167">
  <path d="M 126,27 L 126,29 L 122,33 L 122,35 L 123,35 L 124,36 L 119,41 L 117,41 L 117,42 L 118,43 L 119,43 L 120,44 L 120,45 L 121,46 L 121,47 L 123,49 L 123,50 L 125,50 L 127,48 L 128,48 L 129,49 L 131,47 L 133,47 L 135,45 L 136,45 L 137,44 L 142,44 L 145,47 L 152,47 L 152,43 L 151,42 L 151,41 L 150,40 L 150,39 L 148,37 L 148,36 L 147,36 L 145,34 L 141,34 L 140,33 L 140,32 L 139,32 L 138,33 L 136,33 L 135,32 L 135,31 L 134,30 L 133,30 L 132,29 L 132,28 L 131,27 Z" fill="none" stroke="black" stroke-width="1"/>
</svg>