<svg xmlns="http://www.w3.org/2000/svg" width="412" height="441">
  <path d="M 299,117 L 298,118 L 296,118 L 296,120 L 297,119 L 298,119 L 299,118 Z" fill="none" stroke="black" stroke-width="1"/>
  <path d="M 271,117 L 268,120 L 267,120 L 265,122 L 263,122 L 262,123 L 259,123 L 258,124 L 254,124 L 253,123 L 246,123 L 245,122 L 243,122 L 242,121 L 240,121 L 239,120 L 239,121 L 237,123 L 234,123 L 234,124 L 233,125 L 233,127 L 234,128 L 233,129 L 234,130 L 234,131 L 233,132 L 234,133 L 232,135 L 233,136 L 233,137 L 234,138 L 235,138 L 238,141 L 239,141 L 240,142 L 240,143 L 244,147 L 244,145 L 246,143 L 246,142 L 250,138 L 251,138 L 251,137 L 253,135 L 254,135 L 255,134 L 257,134 L 258,133 L 260,133 L 261,134 L 265,134 L 267,132 L 268,133 L 271,133 L 272,132 L 272,131 L 273,130 L 278,130 L 279,129 L 279,128 L 280,127 L 282,127 L 280,127 L 277,130 L 276,129 L 275,129 L 274,128 L 274,124 L 273,123 L 273,122 L 271,120 Z" fill="none" stroke="black" stroke-width="1"/>
  <path d="M 288,105 L 287,106 L 287,107 L 286,108 L 286,109 L 285,110 L 284,110 L 283,111 L 283,112 L 282,113 L 282,114 L 280,116 L 278,116 L 278,117 L 277,118 L 277,119 L 278,120 L 279,120 L 279,117 L 280,116 L 282,116 L 282,115 L 284,113 L 284,112 L 285,111 L 286,111 L 288,109 L 290,109 L 291,108 L 293,108 L 294,107 L 290,107 Z" fill="none" stroke="black" stroke-width="1"/>
</svg>