<svg xmlns="http://www.w3.org/2000/svg" width="241" height="225">
  <path d="M 114,110 L 111,113 L 110,112 L 107,115 L 106,115 L 105,116 L 105,120 L 103,122 L 102,122 L 102,128 L 106,132 L 106,133 L 107,133 L 109,135 L 109,137 L 111,137 L 112,138 L 114,136 L 115,136 L 116,135 L 115,134 L 119,130 L 119,129 L 120,128 L 119,127 L 120,126 L 122,126 L 126,122 L 127,122 L 128,121 L 128,120 L 129,119 L 129,118 L 128,118 L 127,117 L 123,117 L 121,115 L 121,113 L 118,113 L 116,111 L 116,110 Z" fill="none" stroke="black" stroke-width="1"/>
</svg>