<svg xmlns="http://www.w3.org/2000/svg" width="191" height="202">
  <path d="M 173,140 L 172,141 L 171,141 L 170,142 L 170,143 L 168,145 L 167,144 L 166,144 L 167,145 L 167,148 L 169,148 L 170,149 L 170,152 L 171,153 L 171,154 L 173,156 L 174,156 L 175,157 L 177,157 L 178,158 L 181,158 L 182,159 L 183,159 L 184,160 L 184,161 L 185,160 L 186,160 L 187,159 L 187,158 L 188,157 L 188,155 L 189,154 L 189,151 L 190,150 L 190,148 L 189,147 L 189,145 L 188,145 L 187,144 L 186,144 L 184,142 L 182,142 L 181,141 L 175,141 L 174,140 Z" fill="none" stroke="black" stroke-width="1"/>
</svg>