<svg xmlns="http://www.w3.org/2000/svg" width="186" height="167">
  <path d="M 153,43 L 153,47 L 152,48 L 151,48 L 151,49 L 152,50 L 153,50 L 154,51 L 154,52 L 155,53 L 155,54 L 156,55 L 155,56 L 155,58 L 156,59 L 156,60 L 157,61 L 157,63 L 158,63 L 159,62 L 160,62 L 162,64 L 163,64 L 164,65 L 165,65 L 165,60 L 163,58 L 163,57 L 162,57 L 161,56 L 161,55 L 162,54 L 162,53 L 163,52 L 163,49 L 162,50 L 160,50 L 158,48 L 157,48 L 155,46 L 155,45 L 154,45 L 153,44 Z" fill="none" stroke="black" stroke-width="1"/>
</svg>