<svg xmlns="http://www.w3.org/2000/svg" width="191" height="202">
  <path d="M 148,128 L 148,129 L 146,131 L 145,131 L 144,132 L 142,132 L 141,131 L 140,131 L 139,132 L 138,132 L 137,131 L 137,130 L 136,129 L 134,129 L 133,130 L 132,130 L 132,132 L 133,133 L 134,133 L 135,134 L 135,135 L 136,136 L 136,139 L 138,141 L 138,143 L 139,144 L 140,144 L 141,143 L 141,142 L 142,141 L 143,141 L 144,142 L 146,142 L 147,141 L 148,141 L 152,137 L 152,133 L 151,132 L 151,130 L 150,129 L 150,128 Z" fill="none" stroke="black" stroke-width="1"/>
</svg>