<svg xmlns="http://www.w3.org/2000/svg" width="176" height="123">
  <path d="M 149,60 L 149,64 L 146,67 L 146,68 L 145,69 L 145,70 L 144,71 L 143,71 L 142,72 L 142,75 L 143,76 L 143,78 L 144,79 L 150,79 L 151,80 L 151,79 L 153,77 L 154,77 L 155,76 L 156,77 L 159,77 L 159,76 L 161,74 L 161,73 L 162,72 L 162,71 L 160,69 L 160,68 L 161,67 L 161,66 L 162,65 L 163,65 L 163,62 L 162,62 L 162,63 L 161,64 L 160,63 L 159,63 L 157,61 L 156,61 L 155,60 Z" fill="none" stroke="black" stroke-width="1"/>
</svg>