<svg xmlns="http://www.w3.org/2000/svg" width="225" height="121">
  <path d="M 34,58 L 33,59 L 31,59 L 29,61 L 28,61 L 27,62 L 24,62 L 23,63 L 18,63 L 17,64 L 17,66 L 18,66 L 19,67 L 19,68 L 20,68 L 21,69 L 21,70 L 22,71 L 27,71 L 28,72 L 28,74 L 34,74 L 35,75 L 40,75 L 41,76 L 41,78 L 43,78 L 44,79 L 46,79 L 47,78 L 47,77 L 46,76 L 46,75 L 45,74 L 45,69 L 46,68 L 46,67 L 45,67 L 44,66 L 44,65 L 46,63 L 46,61 L 47,60 L 47,59 L 46,58 L 45,58 L 44,59 L 44,60 L 43,61 L 41,61 L 40,60 L 39,60 L 38,59 L 36,59 L 35,58 Z" fill="none" stroke="black" stroke-width="1"/>
</svg>