<svg xmlns="http://www.w3.org/2000/svg" width="186" height="167">
  <path d="M 136,72 L 135,73 L 134,73 L 133,74 L 132,74 L 131,75 L 131,77 L 132,77 L 135,80 L 135,82 L 134,83 L 133,83 L 133,84 L 132,85 L 132,87 L 131,88 L 131,89 L 132,89 L 133,90 L 133,91 L 135,93 L 135,94 L 136,95 L 136,97 L 137,96 L 138,96 L 140,98 L 141,98 L 141,97 L 143,95 L 146,95 L 148,97 L 152,97 L 153,96 L 154,96 L 155,95 L 156,95 L 156,94 L 155,93 L 155,89 L 157,87 L 157,86 L 155,84 L 154,85 L 150,85 L 149,84 L 149,83 L 148,82 L 146,82 L 145,81 L 145,80 L 143,78 L 143,76 L 142,75 L 142,74 L 141,73 L 140,74 L 139,74 L 137,72 Z" fill="none" stroke="black" stroke-width="1"/>
</svg>