<svg xmlns="http://www.w3.org/2000/svg" width="186" height="167">
  <path d="M 72,47 L 71,48 L 70,48 L 70,49 L 69,50 L 66,50 L 65,49 L 62,49 L 61,50 L 60,50 L 60,53 L 59,54 L 60,55 L 61,55 L 62,54 L 64,54 L 65,55 L 65,56 L 68,56 L 69,57 L 69,58 L 68,59 L 68,60 L 69,61 L 70,61 L 71,62 L 72,62 L 72,61 L 74,59 L 77,59 L 78,60 L 79,59 L 80,59 L 81,60 L 82,60 L 83,61 L 83,62 L 84,62 L 86,60 L 87,60 L 87,58 L 86,58 L 84,56 L 84,55 L 86,53 L 86,52 L 83,49 L 76,49 L 74,47 Z" fill="none" stroke="black" stroke-width="1"/>
</svg>