<svg xmlns="http://www.w3.org/2000/svg" width="186" height="167">
  <path d="M 170,43 L 169,44 L 168,44 L 168,45 L 167,46 L 167,48 L 166,49 L 164,49 L 164,52 L 163,53 L 163,54 L 162,55 L 162,56 L 163,56 L 164,57 L 164,58 L 165,59 L 169,59 L 170,60 L 171,60 L 172,61 L 173,61 L 174,62 L 174,64 L 175,64 L 176,65 L 178,65 L 178,64 L 181,61 L 181,58 L 182,57 L 182,55 L 183,54 L 182,54 L 180,52 L 180,50 L 178,50 L 177,49 L 177,47 L 176,46 L 175,46 L 174,45 L 172,45 Z" fill="none" stroke="black" stroke-width="1"/>
</svg>