<svg xmlns="http://www.w3.org/2000/svg" width="762" height="285">
  <path d="M 551,32 L 550,33 L 550,35 L 552,37 L 552,38 L 553,39 L 555,39 L 556,40 L 558,40 L 560,42 L 560,43 L 562,45 L 562,46 L 563,47 L 566,47 L 568,49 L 570,49 L 571,48 L 572,48 L 575,45 L 577,45 L 578,44 L 579,44 L 581,42 L 581,41 L 582,40 L 582,39 L 583,38 L 583,36 L 584,35 L 581,35 L 580,34 L 579,35 L 578,35 L 577,36 L 574,36 L 572,34 L 570,34 L 569,33 L 567,33 L 566,32 L 565,32 L 566,33 L 564,35 L 562,35 L 561,36 L 560,36 L 559,35 L 557,35 L 556,34 L 555,34 L 553,32 Z" fill="none" stroke="black" stroke-width="1"/>
</svg>