<svg xmlns="http://www.w3.org/2000/svg" width="186" height="167">
  <path d="M 122,84 L 122,85 L 121,86 L 121,87 L 120,88 L 119,88 L 118,87 L 116,87 L 115,88 L 113,88 L 111,90 L 112,91 L 112,93 L 111,94 L 111,95 L 109,97 L 109,98 L 110,99 L 110,101 L 111,102 L 111,104 L 112,104 L 114,102 L 116,104 L 116,101 L 117,100 L 119,100 L 120,99 L 121,99 L 122,100 L 123,100 L 125,102 L 126,102 L 127,101 L 129,101 L 129,100 L 131,98 L 131,94 L 133,92 L 132,91 L 132,90 L 131,90 L 130,89 L 130,86 L 128,86 L 127,85 L 124,85 L 123,84 Z" fill="none" stroke="black" stroke-width="1"/>
</svg>