<svg xmlns="http://www.w3.org/2000/svg" width="1028" height="413">
  <path d="M 521,199 L 520,200 L 517,200 L 516,201 L 514,201 L 512,203 L 512,204 L 515,204 L 516,203 L 520,203 L 521,202 L 523,202 L 524,201 L 522,199 Z" fill="none" stroke="black" stroke-width="1"/>
  <path d="M 519,195 L 517,197 L 516,197 L 515,198 L 511,198 L 518,198 L 519,197 Z" fill="none" stroke="black" stroke-width="1"/>
  <path d="M 554,166 L 553,167 L 551,167 L 550,168 L 551,169 L 551,168 L 552,167 L 553,168 L 554,168 L 555,169 L 556,169 L 557,168 L 555,166 Z" fill="none" stroke="black" stroke-width="1"/>
  <path d="M 573,151 L 573,153 L 572,154 L 572,157 L 571,158 L 571,159 L 572,158 L 576,158 L 577,159 L 575,161 L 576,161 L 577,160 L 578,160 L 580,158 L 581,158 L 582,159 L 578,163 L 577,163 L 576,164 L 574,164 L 573,163 L 573,162 L 572,161 L 571,162 L 570,162 L 567,165 L 566,165 L 564,167 L 563,166 L 562,167 L 561,167 L 560,168 L 559,168 L 559,171 L 561,169 L 564,169 L 565,170 L 564,171 L 563,171 L 560,174 L 562,176 L 562,177 L 561,178 L 560,177 L 559,177 L 558,176 L 557,176 L 556,175 L 554,175 L 553,176 L 553,177 L 552,178 L 550,178 L 548,180 L 546,180 L 547,180 L 548,181 L 547,182 L 545,182 L 538,189 L 538,190 L 540,190 L 541,191 L 540,192 L 539,192 L 538,193 L 537,193 L 536,194 L 535,194 L 534,195 L 533,195 L 532,196 L 531,196 L 531,198 L 533,198 L 535,196 L 537,196 L 538,195 L 539,196 L 539,197 L 538,198 L 536,198 L 535,199 L 536,200 L 536,201 L 537,202 L 540,202 L 541,201 L 543,201 L 544,200 L 545,200 L 546,199 L 547,199 L 548,198 L 549,198 L 550,197 L 551,197 L 552,196 L 552,195 L 553,194 L 551,194 L 550,195 L 549,195 L 548,194 L 550,192 L 552,192 L 553,191 L 554,191 L 557,188 L 558,188 L 559,189 L 560,189 L 561,190 L 560,191 L 559,191 L 558,192 L 557,192 L 556,193 L 556,194 L 557,193 L 558,193 L 559,194 L 560,194 L 561,195 L 560,196 L 558,196 L 556,198 L 553,198 L 551,200 L 552,200 L 553,201 L 552,202 L 551,202 L 550,203 L 551,204 L 550,205 L 546,205 L 545,204 L 541,204 L 540,205 L 539,205 L 539,206 L 538,207 L 537,206 L 537,205 L 536,204 L 535,204 L 533,202 L 533,201 L 530,201 L 529,202 L 526,202 L 525,203 L 527,205 L 529,205 L 530,206 L 529,207 L 524,207 L 523,206 L 523,205 L 522,204 L 521,205 L 518,205 L 518,206 L 520,206 L 522,208 L 522,209 L 523,210 L 523,211 L 524,211 L 525,212 L 525,214 L 526,215 L 526,216 L 527,216 L 528,215 L 529,216 L 531,216 L 532,217 L 534,217 L 535,218 L 536,218 L 537,219 L 538,219 L 539,220 L 540,219 L 541,219 L 542,220 L 542,221 L 544,223 L 550,223 L 551,222 L 552,222 L 552,220 L 553,219 L 554,219 L 556,217 L 560,217 L 561,216 L 562,216 L 563,215 L 565,215 L 566,216 L 567,216 L 569,218 L 570,218 L 570,214 L 569,213 L 569,212 L 568,211 L 568,206 L 570,204 L 570,203 L 571,202 L 571,199 L 574,196 L 574,195 L 579,190 L 580,190 L 581,189 L 582,189 L 583,188 L 592,188 L 593,189 L 597,189 L 598,188 L 600,188 L 601,187 L 602,187 L 601,186 L 601,182 L 600,181 L 600,180 L 599,179 L 599,178 L 597,178 L 595,176 L 595,172 L 599,168 L 600,168 L 600,167 L 601,166 L 601,165 L 602,164 L 603,164 L 603,162 L 602,162 L 601,161 L 599,161 L 597,159 L 589,159 L 588,158 L 586,158 L 585,157 L 583,157 L 582,156 L 581,156 L 580,155 L 580,154 L 575,154 L 574,153 L 574,152 Z" fill="none" stroke="black" stroke-width="1"/>
  <path d="M 566,148 L 566,149 L 568,149 L 569,148 Z" fill="none" stroke="black" stroke-width="1"/>
</svg>