<svg xmlns="http://www.w3.org/2000/svg" width="186" height="167">
  <path d="M 125,64 L 125,67 L 126,68 L 125,69 L 124,69 L 123,70 L 120,70 L 121,71 L 121,75 L 120,76 L 120,80 L 119,81 L 119,83 L 123,83 L 124,84 L 127,84 L 128,85 L 130,85 L 131,86 L 131,87 L 131,85 L 132,84 L 132,83 L 133,82 L 134,82 L 134,80 L 132,78 L 131,78 L 130,77 L 130,75 L 132,73 L 133,73 L 134,72 L 135,72 L 136,71 L 136,70 L 137,69 L 137,68 L 135,68 L 134,67 L 133,68 L 132,68 L 131,67 L 130,67 L 129,66 L 129,65 L 127,65 L 126,64 Z" fill="none" stroke="black" stroke-width="1"/>
</svg>