<svg xmlns="http://www.w3.org/2000/svg" width="465" height="369">
  <path d="M 334,46 L 330,50 L 329,50 L 328,51 L 326,49 L 325,49 L 324,48 L 321,48 L 320,49 L 317,49 L 314,52 L 313,52 L 311,54 L 311,58 L 312,59 L 310,61 L 310,63 L 309,64 L 309,69 L 310,70 L 310,75 L 313,75 L 316,72 L 321,72 L 322,71 L 330,71 L 330,70 L 331,69 L 331,68 L 332,67 L 332,66 L 335,63 L 336,63 L 337,62 L 337,61 L 338,60 L 338,58 L 337,57 L 337,55 L 338,54 L 338,52 L 334,48 Z" fill="none" stroke="black" stroke-width="1"/>
</svg>