<svg xmlns="http://www.w3.org/2000/svg" width="186" height="167">
  <path d="M 156,63 L 155,64 L 154,64 L 153,65 L 152,65 L 152,66 L 153,67 L 153,69 L 148,74 L 147,74 L 146,73 L 145,73 L 143,75 L 144,76 L 144,78 L 146,80 L 146,81 L 148,81 L 150,83 L 150,84 L 154,84 L 155,83 L 157,85 L 157,84 L 159,82 L 159,81 L 157,79 L 158,78 L 158,76 L 159,75 L 160,75 L 160,74 L 161,73 L 161,72 L 158,69 L 159,68 L 160,68 L 161,67 L 161,64 L 160,63 L 159,63 L 158,64 L 157,64 Z" fill="none" stroke="black" stroke-width="1"/>
</svg>