<svg xmlns="http://www.w3.org/2000/svg" width="186" height="167">
  <path d="M 166,60 L 166,65 L 165,66 L 164,66 L 163,65 L 162,65 L 162,67 L 160,69 L 159,69 L 162,72 L 162,73 L 161,74 L 161,75 L 160,76 L 159,76 L 159,78 L 158,79 L 159,80 L 160,80 L 161,81 L 162,81 L 163,80 L 164,80 L 165,79 L 168,79 L 169,78 L 170,78 L 171,79 L 174,79 L 176,77 L 177,77 L 178,76 L 180,76 L 181,75 L 182,75 L 182,74 L 181,74 L 180,73 L 180,72 L 178,72 L 177,71 L 176,71 L 175,70 L 175,67 L 176,66 L 175,65 L 174,65 L 173,64 L 173,62 L 172,62 L 171,61 L 170,61 L 169,60 Z" fill="none" stroke="black" stroke-width="1"/>
</svg>