<svg xmlns="http://www.w3.org/2000/svg" width="321" height="333">
  <path d="M 290,58 L 290,59 L 288,61 L 287,61 L 286,62 L 285,62 L 285,63 L 284,64 L 283,64 L 282,65 L 282,66 L 281,67 L 277,67 L 276,68 L 276,72 L 275,73 L 275,77 L 276,78 L 276,79 L 278,81 L 281,81 L 282,82 L 282,83 L 283,84 L 283,85 L 284,85 L 285,86 L 285,88 L 286,88 L 287,89 L 287,91 L 289,91 L 290,92 L 291,92 L 292,93 L 297,93 L 298,94 L 300,94 L 300,89 L 301,88 L 303,88 L 304,89 L 305,89 L 306,90 L 310,90 L 313,87 L 314,87 L 316,85 L 317,85 L 317,83 L 318,82 L 318,78 L 319,77 L 320,77 L 320,76 L 319,75 L 319,72 L 318,71 L 318,69 L 317,68 L 317,67 L 314,64 L 314,63 L 313,62 L 313,61 L 312,60 L 310,60 L 308,58 Z" fill="none" stroke="black" stroke-width="1"/>
</svg>