<svg xmlns="http://www.w3.org/2000/svg" width="1028" height="413">
  <path d="M 703,285 L 702,286 L 702,287 L 703,288 L 703,289 L 706,289 L 706,286 L 705,286 L 704,285 Z" fill="none" stroke="black" stroke-width="1"/>
  <path d="M 688,279 L 688,284 L 689,284 L 689,283 L 690,282 L 690,281 L 689,280 L 689,279 Z" fill="none" stroke="black" stroke-width="1"/>
  <path d="M 693,276 L 693,277 L 692,278 L 691,278 L 693,280 L 693,284 L 694,284 L 695,285 L 696,284 L 697,284 L 698,285 L 699,285 L 700,284 L 701,284 L 701,283 L 700,283 L 699,282 L 699,281 L 698,281 L 697,280 L 697,279 L 696,279 L 696,280 L 695,281 L 694,280 L 694,276 Z" fill="none" stroke="black" stroke-width="1"/>
  <path d="M 696,272 L 696,275 L 697,275 L 698,276 L 698,277 L 699,277 L 699,276 L 700,275 L 701,275 L 702,276 L 702,277 L 703,278 L 703,280 L 706,280 L 706,279 L 707,278 L 706,277 L 706,276 L 704,276 L 702,274 L 700,274 L 699,273 L 699,272 Z" fill="none" stroke="black" stroke-width="1"/>
</svg>