<svg xmlns="http://www.w3.org/2000/svg" width="171" height="149">
  <path d="M 89,53 L 86,56 L 83,56 L 82,57 L 82,60 L 83,61 L 81,63 L 80,63 L 79,64 L 79,68 L 78,69 L 78,72 L 82,72 L 83,73 L 88,73 L 89,74 L 93,74 L 94,75 L 102,75 L 103,76 L 111,76 L 111,75 L 112,74 L 114,74 L 115,73 L 117,73 L 118,74 L 118,76 L 120,78 L 126,78 L 127,79 L 131,79 L 132,78 L 135,78 L 136,77 L 136,74 L 133,74 L 132,73 L 132,72 L 130,72 L 129,71 L 127,71 L 126,70 L 122,70 L 120,68 L 119,68 L 118,67 L 117,67 L 116,68 L 109,68 L 108,67 L 107,67 L 106,66 L 105,66 L 101,62 L 101,61 L 100,61 L 99,62 L 97,62 L 96,61 L 95,61 L 94,60 L 93,60 L 92,59 L 91,59 L 90,58 L 90,56 L 89,55 Z" fill="none" stroke="black" stroke-width="1"/>
</svg>