<svg xmlns="http://www.w3.org/2000/svg" width="171" height="149">
  <path d="M 101,96 L 99,98 L 98,98 L 98,99 L 97,100 L 97,106 L 95,108 L 92,108 L 91,107 L 90,107 L 89,106 L 88,106 L 87,105 L 85,105 L 85,106 L 86,107 L 86,108 L 84,110 L 84,112 L 85,113 L 85,117 L 86,118 L 86,119 L 83,122 L 82,122 L 81,123 L 81,127 L 82,128 L 82,130 L 83,131 L 83,133 L 84,133 L 85,134 L 86,134 L 87,135 L 88,135 L 89,136 L 90,136 L 90,135 L 91,134 L 91,132 L 92,131 L 92,130 L 93,129 L 94,129 L 96,127 L 99,127 L 99,124 L 101,122 L 101,121 L 102,120 L 102,119 L 103,118 L 103,107 L 104,106 L 104,99 L 103,98 L 103,97 L 102,96 Z" fill="none" stroke="black" stroke-width="1"/>
</svg>