<svg xmlns="http://www.w3.org/2000/svg" width="299" height="181">
  <path d="M 28,48 L 26,50 L 25,50 L 25,51 L 24,52 L 24,54 L 23,55 L 23,56 L 22,57 L 20,57 L 20,60 L 21,61 L 21,62 L 22,63 L 22,67 L 23,67 L 24,68 L 29,68 L 33,72 L 34,72 L 35,73 L 37,73 L 38,74 L 39,74 L 39,73 L 40,72 L 41,72 L 42,71 L 43,71 L 44,70 L 44,68 L 43,67 L 44,66 L 45,66 L 46,65 L 46,62 L 45,61 L 44,61 L 43,60 L 43,59 L 42,58 L 42,57 L 43,56 L 44,56 L 46,54 L 46,53 L 47,52 L 47,51 L 45,51 L 44,50 L 44,49 L 42,49 L 41,48 L 40,49 L 38,49 L 37,48 Z" fill="none" stroke="black" stroke-width="1"/>
</svg>