<svg xmlns="http://www.w3.org/2000/svg" width="185" height="128">
  <path d="M 117,4 L 117,5 L 116,6 L 114,6 L 111,9 L 109,9 L 108,10 L 102,10 L 101,11 L 98,11 L 96,13 L 94,13 L 93,14 L 90,14 L 89,15 L 88,15 L 88,17 L 89,18 L 89,22 L 88,23 L 87,23 L 87,24 L 86,25 L 86,26 L 85,27 L 84,27 L 84,28 L 83,29 L 83,30 L 91,30 L 91,28 L 92,27 L 93,27 L 94,28 L 96,28 L 97,27 L 103,27 L 104,26 L 105,26 L 106,25 L 106,24 L 107,23 L 113,23 L 114,24 L 114,25 L 117,25 L 117,24 L 115,22 L 115,21 L 117,19 L 117,15 L 119,13 L 119,12 L 118,11 L 118,9 L 120,7 L 121,7 L 121,6 L 120,6 L 118,4 Z" fill="none" stroke="black" stroke-width="1"/>
</svg>