<svg xmlns="http://www.w3.org/2000/svg" width="185" height="128">
  <path d="M 141,56 L 141,57 L 140,58 L 140,59 L 137,62 L 136,62 L 137,63 L 137,64 L 136,65 L 135,65 L 135,66 L 134,67 L 133,67 L 132,66 L 130,66 L 129,65 L 128,65 L 128,67 L 127,68 L 127,69 L 126,70 L 126,73 L 127,73 L 128,74 L 128,75 L 130,77 L 130,76 L 131,75 L 133,75 L 134,74 L 139,74 L 140,75 L 141,75 L 142,76 L 143,76 L 144,77 L 144,78 L 145,79 L 146,79 L 147,80 L 149,80 L 150,79 L 151,79 L 150,78 L 150,77 L 151,76 L 153,76 L 154,75 L 155,75 L 157,73 L 157,70 L 156,71 L 154,71 L 153,70 L 153,69 L 152,70 L 150,70 L 147,67 L 145,67 L 143,65 L 143,64 L 144,63 L 144,62 L 145,61 L 145,60 L 146,59 L 146,58 L 145,57 L 143,57 L 142,56 Z" fill="none" stroke="black" stroke-width="1"/>
</svg>