<svg xmlns="http://www.w3.org/2000/svg" width="186" height="167">
  <path d="M 100,109 L 98,111 L 97,111 L 96,112 L 95,112 L 94,111 L 92,111 L 91,112 L 90,112 L 90,113 L 89,114 L 89,115 L 91,117 L 91,118 L 90,119 L 93,122 L 94,122 L 96,124 L 97,124 L 98,125 L 101,125 L 102,124 L 103,125 L 105,123 L 105,120 L 106,119 L 107,119 L 109,117 L 110,117 L 112,115 L 113,116 L 113,113 L 112,112 L 112,111 L 110,109 L 106,109 L 105,110 L 104,110 L 103,109 Z" fill="none" stroke="black" stroke-width="1"/>
</svg>