<svg xmlns="http://www.w3.org/2000/svg" width="299" height="181">
  <path d="M 107,111 L 106,112 L 102,112 L 101,113 L 100,113 L 99,114 L 99,115 L 96,118 L 95,118 L 96,119 L 96,122 L 97,123 L 97,131 L 98,132 L 100,132 L 101,131 L 102,131 L 103,132 L 103,133 L 104,134 L 104,135 L 103,136 L 105,136 L 106,137 L 108,135 L 108,134 L 110,132 L 111,132 L 112,131 L 120,131 L 121,132 L 127,132 L 128,133 L 130,133 L 130,129 L 128,129 L 127,128 L 126,128 L 125,127 L 125,125 L 123,123 L 122,123 L 119,120 L 119,117 L 118,116 L 118,112 L 117,112 L 116,113 L 113,113 L 112,112 L 110,112 L 109,111 Z" fill="none" stroke="black" stroke-width="1"/>
</svg>