<svg xmlns="http://www.w3.org/2000/svg" width="299" height="181">
  <path d="M 105,151 L 105,154 L 106,155 L 106,160 L 107,161 L 107,165 L 106,166 L 106,167 L 107,167 L 108,168 L 108,170 L 110,170 L 111,171 L 111,172 L 113,172 L 114,173 L 114,180 L 117,177 L 117,176 L 118,175 L 118,171 L 119,170 L 121,170 L 124,167 L 128,167 L 129,168 L 133,168 L 135,170 L 141,170 L 142,169 L 142,167 L 141,166 L 141,162 L 140,161 L 140,159 L 139,159 L 138,158 L 136,158 L 135,157 L 132,157 L 131,156 L 129,156 L 126,159 L 125,159 L 124,160 L 122,160 L 121,159 L 118,159 L 117,158 L 116,158 L 115,157 L 115,156 L 113,154 L 113,152 L 107,152 L 106,151 Z" fill="none" stroke="black" stroke-width="1"/>
</svg>