<svg xmlns="http://www.w3.org/2000/svg" width="299" height="181">
  <path d="M 144,128 L 142,130 L 141,130 L 140,131 L 139,130 L 131,130 L 131,133 L 130,134 L 134,138 L 134,139 L 135,139 L 136,140 L 136,141 L 137,141 L 139,143 L 138,144 L 139,145 L 139,147 L 141,149 L 141,151 L 142,151 L 143,152 L 143,154 L 142,155 L 141,155 L 141,161 L 142,162 L 142,166 L 143,166 L 145,168 L 145,167 L 146,166 L 147,166 L 148,167 L 149,167 L 150,168 L 151,168 L 153,166 L 158,166 L 160,168 L 163,168 L 164,167 L 166,167 L 168,165 L 170,165 L 170,161 L 174,157 L 175,157 L 176,156 L 178,156 L 179,155 L 180,155 L 181,154 L 182,154 L 183,153 L 184,153 L 185,154 L 186,154 L 186,153 L 187,152 L 185,150 L 185,149 L 174,149 L 173,148 L 173,147 L 169,147 L 168,146 L 168,144 L 164,144 L 163,143 L 163,142 L 159,142 L 158,141 L 158,140 L 154,140 L 153,139 L 153,134 L 152,133 L 152,130 L 151,130 L 150,129 L 148,129 L 147,128 Z" fill="none" stroke="black" stroke-width="1"/>
</svg>