<svg xmlns="http://www.w3.org/2000/svg" width="299" height="181">
  <path d="M 200,69 L 198,71 L 197,71 L 195,73 L 194,73 L 193,74 L 190,74 L 189,75 L 184,75 L 183,76 L 181,76 L 180,77 L 180,78 L 179,79 L 179,80 L 178,81 L 177,81 L 176,82 L 175,82 L 174,83 L 173,83 L 173,84 L 174,85 L 174,87 L 175,88 L 175,94 L 177,96 L 177,100 L 176,101 L 176,102 L 177,103 L 180,103 L 181,104 L 187,104 L 188,103 L 189,103 L 189,102 L 190,101 L 190,100 L 191,99 L 191,98 L 192,97 L 193,97 L 194,96 L 194,95 L 195,94 L 195,93 L 196,92 L 197,92 L 199,90 L 200,90 L 201,89 L 203,89 L 204,88 L 205,89 L 206,88 L 207,88 L 208,87 L 209,87 L 209,86 L 208,85 L 208,83 L 211,80 L 211,75 L 209,73 L 208,73 L 207,72 L 206,72 L 205,71 L 204,71 L 203,70 L 202,70 L 201,69 Z" fill="none" stroke="black" stroke-width="1"/>
</svg>