<svg xmlns="http://www.w3.org/2000/svg" width="150" height="272">
  <path d="M 66,95 L 65,96 L 62,96 L 62,105 L 61,106 L 60,106 L 58,104 L 55,104 L 55,106 L 56,107 L 56,110 L 55,111 L 55,113 L 56,113 L 57,112 L 58,112 L 59,113 L 67,113 L 68,112 L 69,112 L 70,113 L 72,113 L 73,114 L 73,115 L 74,116 L 76,116 L 77,117 L 81,117 L 81,112 L 80,111 L 80,108 L 81,107 L 81,104 L 79,104 L 78,103 L 78,102 L 75,102 L 74,101 L 72,101 L 70,99 L 70,98 L 69,98 L 67,96 L 67,95 Z" fill="none" stroke="black" stroke-width="1"/>
</svg>