<svg xmlns="http://www.w3.org/2000/svg" width="150" height="272">
  <path d="M 79,163 L 78,164 L 74,164 L 73,165 L 73,167 L 74,168 L 74,170 L 75,171 L 75,173 L 76,174 L 76,175 L 77,176 L 77,177 L 76,178 L 76,180 L 79,180 L 79,178 L 80,177 L 81,177 L 82,178 L 83,178 L 84,179 L 84,180 L 86,182 L 89,182 L 89,181 L 90,180 L 90,176 L 89,175 L 89,173 L 90,172 L 90,171 L 91,170 L 91,166 L 90,166 L 88,164 L 86,164 L 85,163 L 84,163 L 83,164 L 80,164 Z" fill="none" stroke="black" stroke-width="1"/>
</svg>