<svg xmlns="http://www.w3.org/2000/svg" width="225" height="121">
  <path d="M 99,60 L 99,61 L 98,62 L 98,65 L 97,66 L 95,66 L 94,67 L 95,68 L 95,69 L 96,70 L 96,72 L 99,72 L 100,73 L 101,73 L 103,75 L 103,76 L 105,78 L 105,80 L 107,82 L 107,84 L 108,84 L 109,85 L 113,85 L 114,84 L 115,84 L 117,82 L 117,81 L 118,80 L 118,78 L 121,75 L 124,75 L 125,76 L 126,76 L 127,75 L 127,74 L 125,72 L 125,71 L 122,68 L 121,68 L 120,69 L 119,69 L 117,67 L 117,65 L 114,65 L 113,66 L 112,66 L 108,62 L 105,62 L 103,60 Z" fill="none" stroke="black" stroke-width="1"/>
</svg>