<svg xmlns="http://www.w3.org/2000/svg" width="225" height="121">
  <path d="M 111,16 L 111,20 L 114,23 L 114,29 L 116,31 L 118,31 L 119,32 L 119,33 L 121,35 L 121,36 L 123,36 L 125,38 L 128,38 L 131,41 L 131,43 L 132,44 L 135,44 L 139,48 L 146,48 L 146,46 L 145,45 L 145,43 L 144,42 L 144,41 L 142,39 L 142,38 L 141,38 L 138,35 L 136,35 L 135,34 L 134,34 L 132,32 L 132,31 L 129,28 L 129,26 L 128,25 L 127,25 L 126,24 L 125,24 L 123,22 L 123,21 L 120,18 L 118,18 L 117,17 L 116,17 L 115,16 Z" fill="none" stroke="black" stroke-width="1"/>
</svg>