<svg xmlns="http://www.w3.org/2000/svg" width="318" height="385">
  <path d="M 217,36 L 216,37 L 214,37 L 213,38 L 209,38 L 208,39 L 207,39 L 206,40 L 206,41 L 203,44 L 202,44 L 201,45 L 200,45 L 199,46 L 197,46 L 195,48 L 194,48 L 192,50 L 192,53 L 193,54 L 193,55 L 194,56 L 195,56 L 196,57 L 196,58 L 197,59 L 197,60 L 199,62 L 200,62 L 201,63 L 201,64 L 203,66 L 203,67 L 204,68 L 204,69 L 202,71 L 201,70 L 201,69 L 200,70 L 201,71 L 201,72 L 202,72 L 203,71 L 205,73 L 205,74 L 204,75 L 199,75 L 197,73 L 196,73 L 195,74 L 194,74 L 193,73 L 194,72 L 193,72 L 193,74 L 192,75 L 189,75 L 187,73 L 185,73 L 184,72 L 183,72 L 183,73 L 182,74 L 182,76 L 181,77 L 181,80 L 182,81 L 182,82 L 185,85 L 185,86 L 186,86 L 189,89 L 190,89 L 191,90 L 191,91 L 194,94 L 195,94 L 196,95 L 198,95 L 199,96 L 201,96 L 202,97 L 203,97 L 205,99 L 205,100 L 207,102 L 207,106 L 211,106 L 212,105 L 212,100 L 213,99 L 215,99 L 216,98 L 217,98 L 218,97 L 220,97 L 222,99 L 222,100 L 223,100 L 224,101 L 225,100 L 228,100 L 229,99 L 231,99 L 232,98 L 233,98 L 234,97 L 237,97 L 238,96 L 239,96 L 240,95 L 241,95 L 242,94 L 244,94 L 245,93 L 247,93 L 248,92 L 249,92 L 249,90 L 250,89 L 250,88 L 251,87 L 251,85 L 252,84 L 252,82 L 249,79 L 249,76 L 248,75 L 248,73 L 247,72 L 247,71 L 246,72 L 245,72 L 244,73 L 243,72 L 242,72 L 238,68 L 238,67 L 237,67 L 235,69 L 234,69 L 233,68 L 233,67 L 232,66 L 232,65 L 231,64 L 231,61 L 232,60 L 232,59 L 233,58 L 233,57 L 232,56 L 232,55 L 231,54 L 231,53 L 230,52 L 230,51 L 228,49 L 227,49 L 223,45 L 223,41 L 221,39 L 220,39 L 219,38 L 219,36 Z" fill="none" stroke="black" stroke-width="1"/>
</svg>