<svg xmlns="http://www.w3.org/2000/svg" width="318" height="385">
  <path d="M 208,242 L 207,243 L 205,243 L 204,244 L 203,244 L 202,243 L 200,243 L 200,244 L 197,247 L 196,247 L 193,250 L 193,253 L 194,254 L 194,255 L 191,258 L 191,260 L 192,261 L 196,261 L 202,267 L 202,269 L 205,272 L 205,274 L 206,274 L 209,277 L 209,279 L 210,279 L 211,280 L 214,280 L 215,281 L 215,282 L 217,284 L 217,285 L 220,282 L 221,282 L 221,280 L 222,279 L 223,279 L 224,278 L 224,277 L 225,276 L 227,276 L 228,275 L 228,274 L 227,273 L 227,271 L 223,267 L 223,264 L 225,262 L 225,259 L 224,258 L 224,254 L 223,253 L 223,252 L 222,251 L 222,249 L 221,248 L 219,248 L 216,245 L 215,245 L 214,244 L 212,244 L 210,242 Z" fill="none" stroke="black" stroke-width="1"/>
</svg>