<svg xmlns="http://www.w3.org/2000/svg" width="404" height="430">
  <path d="M 32,225 L 31,226 L 27,226 L 26,227 L 25,227 L 23,229 L 23,230 L 22,231 L 22,232 L 21,233 L 21,234 L 18,237 L 18,238 L 17,239 L 16,239 L 15,240 L 13,240 L 12,241 L 11,241 L 10,242 L 6,242 L 5,243 L 0,243 L 0,248 L 1,249 L 2,249 L 5,252 L 5,254 L 4,255 L 4,262 L 5,263 L 5,264 L 9,264 L 10,265 L 13,265 L 15,267 L 15,268 L 17,268 L 18,267 L 18,265 L 19,264 L 19,262 L 20,261 L 22,261 L 23,262 L 25,262 L 26,263 L 28,263 L 29,262 L 29,258 L 30,257 L 30,256 L 33,253 L 35,253 L 36,252 L 39,252 L 40,251 L 41,251 L 42,250 L 43,250 L 45,248 L 46,248 L 48,246 L 50,246 L 52,244 L 53,244 L 53,241 L 52,240 L 52,238 L 51,237 L 51,233 L 44,233 L 42,231 L 42,230 L 39,227 L 38,227 L 36,225 Z" fill="none" stroke="black" stroke-width="1"/>
</svg>