<svg xmlns="http://www.w3.org/2000/svg" width="318" height="385">
  <path d="M 165,115 L 165,116 L 162,119 L 162,120 L 160,122 L 152,122 L 151,123 L 150,123 L 149,124 L 144,124 L 143,123 L 140,123 L 139,124 L 138,124 L 136,126 L 135,126 L 134,127 L 133,127 L 132,128 L 131,128 L 131,131 L 130,132 L 130,134 L 129,135 L 129,136 L 128,137 L 128,138 L 129,139 L 130,139 L 131,140 L 131,141 L 130,142 L 131,143 L 133,143 L 134,144 L 134,146 L 137,149 L 137,150 L 139,150 L 141,152 L 141,153 L 139,155 L 140,156 L 140,157 L 138,159 L 137,159 L 136,160 L 134,160 L 134,161 L 135,161 L 136,162 L 136,163 L 137,164 L 144,164 L 144,163 L 145,162 L 145,160 L 146,159 L 147,159 L 150,156 L 150,155 L 152,153 L 153,153 L 154,152 L 155,152 L 157,150 L 159,150 L 160,149 L 163,149 L 165,147 L 168,147 L 169,148 L 170,148 L 171,149 L 175,149 L 176,150 L 177,150 L 178,151 L 182,151 L 183,150 L 186,150 L 187,149 L 191,149 L 190,148 L 190,147 L 189,146 L 189,145 L 187,143 L 187,142 L 186,141 L 186,134 L 187,133 L 187,131 L 185,129 L 185,127 L 184,126 L 184,122 L 185,121 L 185,119 L 182,119 L 180,117 L 177,117 L 176,116 L 174,116 L 173,115 Z" fill="none" stroke="black" stroke-width="1"/>
</svg>