<svg xmlns="http://www.w3.org/2000/svg" width="318" height="385">
  <path d="M 122,224 L 120,226 L 116,226 L 115,227 L 114,227 L 113,226 L 112,226 L 110,228 L 109,228 L 107,230 L 107,231 L 108,231 L 109,230 L 110,230 L 111,231 L 111,232 L 112,233 L 112,234 L 111,235 L 111,236 L 110,237 L 109,237 L 107,239 L 106,239 L 104,241 L 104,243 L 105,244 L 105,248 L 106,249 L 106,252 L 107,253 L 107,254 L 109,256 L 111,256 L 115,252 L 118,252 L 119,251 L 119,250 L 120,249 L 120,248 L 121,247 L 121,246 L 123,244 L 124,244 L 125,245 L 126,245 L 127,246 L 128,246 L 129,247 L 132,247 L 132,246 L 134,244 L 136,244 L 136,243 L 134,241 L 134,240 L 133,239 L 133,232 L 134,231 L 134,230 L 133,230 L 132,229 L 131,229 L 130,228 L 129,228 L 128,227 L 127,227 L 126,226 L 124,226 Z" fill="none" stroke="black" stroke-width="1"/>
</svg>