<svg xmlns="http://www.w3.org/2000/svg" width="318" height="385">
  <path d="M 21,240 L 17,244 L 17,246 L 16,247 L 15,247 L 14,246 L 13,246 L 12,245 L 10,245 L 9,246 L 8,246 L 8,247 L 10,249 L 10,254 L 9,255 L 9,256 L 8,257 L 8,258 L 9,258 L 11,260 L 11,262 L 12,262 L 15,265 L 17,263 L 21,263 L 23,265 L 23,266 L 24,266 L 25,267 L 26,267 L 28,265 L 30,265 L 31,266 L 31,267 L 35,267 L 36,266 L 36,263 L 35,262 L 35,261 L 34,260 L 34,257 L 32,255 L 32,254 L 30,252 L 30,250 L 29,249 L 29,248 L 28,247 L 28,246 L 27,245 L 27,244 L 25,242 L 25,240 Z" fill="none" stroke="black" stroke-width="1"/>
</svg>