<svg xmlns="http://www.w3.org/2000/svg" width="318" height="385">
  <path d="M 85,173 L 83,175 L 82,175 L 81,174 L 80,174 L 80,175 L 82,177 L 80,179 L 81,180 L 79,182 L 78,182 L 77,183 L 74,183 L 72,181 L 72,180 L 71,181 L 66,181 L 65,182 L 64,182 L 64,183 L 63,184 L 62,184 L 63,185 L 62,186 L 58,186 L 58,188 L 59,189 L 59,197 L 60,197 L 63,200 L 68,200 L 70,202 L 71,202 L 72,201 L 74,201 L 74,200 L 75,199 L 76,199 L 76,196 L 77,195 L 77,194 L 79,192 L 80,192 L 82,190 L 83,190 L 84,189 L 85,189 L 86,188 L 88,188 L 88,187 L 87,186 L 87,185 L 86,184 L 86,183 L 87,182 L 88,182 L 89,183 L 90,183 L 91,182 L 95,182 L 95,181 L 96,180 L 98,180 L 98,179 L 99,178 L 99,175 L 98,175 L 96,173 L 95,174 L 89,174 L 88,173 Z" fill="none" stroke="black" stroke-width="1"/>
</svg>