<svg xmlns="http://www.w3.org/2000/svg" width="404" height="430">
  <path d="M 220,191 L 219,192 L 218,192 L 212,198 L 203,198 L 202,197 L 200,197 L 199,196 L 196,196 L 195,195 L 192,195 L 191,196 L 190,196 L 189,197 L 188,197 L 186,199 L 185,199 L 183,201 L 182,201 L 182,202 L 181,203 L 179,203 L 178,204 L 177,204 L 176,205 L 174,205 L 170,209 L 169,209 L 168,210 L 167,210 L 167,215 L 168,215 L 169,216 L 170,216 L 171,217 L 171,218 L 172,219 L 172,222 L 173,223 L 173,225 L 175,225 L 176,226 L 178,226 L 179,227 L 182,227 L 183,228 L 184,228 L 187,231 L 187,232 L 189,234 L 189,236 L 190,237 L 190,238 L 191,238 L 192,239 L 192,244 L 193,245 L 193,248 L 194,249 L 194,261 L 195,262 L 195,267 L 196,268 L 196,269 L 197,270 L 203,270 L 206,267 L 206,266 L 209,263 L 215,263 L 215,258 L 213,256 L 212,256 L 210,254 L 210,253 L 211,252 L 214,252 L 215,251 L 215,249 L 216,248 L 224,248 L 225,249 L 228,246 L 228,245 L 227,244 L 227,243 L 226,242 L 226,240 L 227,239 L 225,239 L 224,240 L 223,239 L 222,239 L 221,238 L 221,237 L 222,236 L 222,234 L 223,233 L 223,220 L 224,219 L 226,219 L 227,218 L 228,218 L 230,220 L 231,220 L 231,219 L 232,218 L 232,213 L 231,212 L 231,211 L 230,210 L 230,209 L 228,207 L 228,206 L 226,204 L 226,203 L 224,201 L 224,200 L 223,199 L 223,198 L 222,197 L 222,196 L 223,195 L 224,195 Z" fill="none" stroke="black" stroke-width="1"/>
</svg>