<svg xmlns="http://www.w3.org/2000/svg" width="404" height="430">
  <path d="M 263,111 L 262,112 L 257,112 L 256,113 L 252,113 L 251,114 L 245,114 L 244,115 L 239,115 L 238,116 L 233,116 L 232,117 L 227,117 L 226,118 L 225,117 L 224,117 L 223,116 L 222,116 L 221,115 L 219,115 L 218,116 L 213,116 L 212,117 L 207,117 L 206,118 L 201,118 L 200,119 L 199,119 L 198,120 L 197,120 L 197,121 L 196,122 L 195,122 L 194,123 L 192,123 L 191,124 L 188,124 L 188,125 L 189,126 L 189,128 L 190,129 L 190,131 L 191,132 L 191,134 L 192,135 L 192,136 L 193,137 L 193,139 L 194,140 L 194,142 L 195,143 L 195,154 L 197,154 L 198,155 L 202,155 L 205,158 L 205,160 L 206,161 L 206,162 L 205,163 L 205,165 L 206,166 L 206,174 L 205,175 L 205,176 L 197,184 L 197,185 L 196,186 L 196,188 L 195,189 L 195,191 L 194,192 L 194,194 L 195,194 L 196,195 L 199,195 L 200,196 L 202,196 L 203,197 L 212,197 L 218,191 L 219,191 L 220,190 L 224,194 L 227,194 L 228,195 L 234,195 L 235,194 L 238,194 L 239,193 L 240,193 L 242,191 L 243,191 L 244,190 L 245,190 L 246,189 L 247,189 L 248,188 L 249,188 L 250,187 L 253,187 L 254,186 L 257,186 L 258,185 L 259,185 L 261,183 L 261,181 L 262,180 L 262,179 L 263,178 L 263,169 L 262,168 L 262,164 L 261,163 L 261,162 L 260,161 L 260,160 L 259,159 L 259,158 L 258,157 L 258,151 L 257,150 L 257,149 L 256,148 L 256,147 L 255,146 L 255,138 L 256,137 L 256,136 L 258,134 L 258,133 L 260,131 L 260,130 L 261,129 L 261,123 L 260,122 L 260,121 L 261,120 L 261,118 L 264,115 L 264,114 L 265,113 L 265,112 L 266,111 Z" fill="none" stroke="black" stroke-width="1"/>
</svg>