<svg xmlns="http://www.w3.org/2000/svg" width="404" height="430">
  <path d="M 169,120 L 168,121 L 163,121 L 162,122 L 157,122 L 156,123 L 151,123 L 149,125 L 148,125 L 145,128 L 145,133 L 146,134 L 146,138 L 145,139 L 145,142 L 143,144 L 143,145 L 142,146 L 142,148 L 141,149 L 141,152 L 140,153 L 140,154 L 137,157 L 137,165 L 139,167 L 139,169 L 141,169 L 144,172 L 144,182 L 145,183 L 145,184 L 148,187 L 148,191 L 146,193 L 146,194 L 148,196 L 148,199 L 150,199 L 151,200 L 155,200 L 156,201 L 156,202 L 158,204 L 161,204 L 164,207 L 164,208 L 165,208 L 166,209 L 168,209 L 169,208 L 170,208 L 174,204 L 176,204 L 177,203 L 178,203 L 179,202 L 181,202 L 181,201 L 182,200 L 183,200 L 185,198 L 186,198 L 188,196 L 189,196 L 190,195 L 191,195 L 192,194 L 193,194 L 193,192 L 194,191 L 194,189 L 195,188 L 195,186 L 196,185 L 196,184 L 204,176 L 204,175 L 205,174 L 205,166 L 204,165 L 204,163 L 205,162 L 205,161 L 204,160 L 204,158 L 202,156 L 198,156 L 197,155 L 195,155 L 194,154 L 194,143 L 193,142 L 193,140 L 192,139 L 192,137 L 191,136 L 191,135 L 190,134 L 190,132 L 189,131 L 189,129 L 188,128 L 188,126 L 187,125 L 187,124 L 186,124 L 185,123 L 184,124 L 183,123 L 181,123 L 180,122 L 178,122 L 177,123 L 175,123 L 174,122 L 173,122 L 172,121 L 170,121 Z" fill="none" stroke="black" stroke-width="1"/>
</svg>