<svg xmlns="http://www.w3.org/2000/svg" width="404" height="430">
  <path d="M 148,333 L 147,334 L 145,334 L 144,335 L 143,335 L 143,336 L 138,341 L 138,343 L 139,344 L 139,349 L 138,350 L 138,352 L 137,353 L 137,354 L 136,355 L 136,356 L 135,357 L 135,358 L 134,359 L 134,361 L 133,362 L 133,363 L 132,364 L 133,365 L 133,368 L 132,369 L 132,370 L 133,370 L 135,372 L 137,372 L 138,373 L 141,373 L 142,374 L 142,375 L 143,376 L 143,377 L 144,378 L 144,386 L 147,386 L 148,385 L 149,386 L 150,386 L 151,387 L 151,388 L 150,389 L 149,389 L 149,390 L 156,390 L 156,389 L 155,388 L 157,386 L 161,386 L 163,384 L 165,384 L 166,385 L 166,386 L 167,387 L 167,389 L 168,390 L 170,390 L 171,391 L 176,391 L 177,390 L 179,390 L 180,389 L 181,389 L 182,390 L 188,390 L 189,389 L 191,389 L 191,387 L 190,386 L 190,385 L 189,384 L 189,378 L 188,377 L 188,376 L 187,376 L 185,374 L 185,372 L 184,371 L 184,368 L 185,367 L 185,361 L 184,360 L 184,359 L 182,357 L 182,355 L 181,354 L 182,353 L 181,352 L 181,349 L 180,348 L 180,344 L 179,343 L 179,342 L 178,341 L 178,340 L 177,340 L 176,339 L 176,338 L 174,338 L 173,337 L 172,337 L 171,336 L 168,336 L 167,335 L 160,335 L 159,334 L 155,334 L 154,333 Z" fill="none" stroke="black" stroke-width="1"/>
</svg>