<svg xmlns="http://www.w3.org/2000/svg" width="404" height="430">
  <path d="M 277,351 L 276,352 L 275,352 L 273,354 L 273,355 L 272,356 L 271,356 L 271,357 L 270,358 L 270,360 L 269,361 L 269,364 L 270,365 L 270,367 L 272,369 L 272,371 L 271,372 L 271,373 L 268,376 L 268,378 L 267,379 L 267,383 L 266,384 L 265,384 L 265,391 L 266,392 L 266,396 L 265,397 L 262,397 L 261,398 L 262,398 L 263,399 L 263,403 L 264,404 L 265,404 L 267,406 L 268,406 L 269,407 L 276,407 L 277,408 L 280,408 L 282,406 L 282,405 L 284,403 L 286,403 L 287,404 L 287,405 L 288,406 L 290,406 L 291,407 L 296,407 L 297,406 L 300,406 L 301,405 L 303,405 L 304,404 L 306,404 L 306,403 L 307,402 L 307,397 L 308,396 L 308,395 L 309,394 L 308,393 L 308,383 L 307,382 L 307,375 L 308,374 L 309,374 L 309,373 L 310,372 L 310,371 L 311,370 L 311,367 L 310,366 L 310,365 L 309,365 L 308,364 L 305,364 L 304,363 L 302,363 L 301,362 L 300,362 L 298,360 L 297,360 L 296,359 L 295,359 L 293,357 L 293,355 L 290,352 L 284,352 L 283,351 Z" fill="none" stroke="black" stroke-width="1"/>
</svg>