<svg xmlns="http://www.w3.org/2000/svg" width="710" height="350">
  <path d="M 354,239 L 351,242 L 350,242 L 350,244 L 348,246 L 347,246 L 346,247 L 345,247 L 344,248 L 342,248 L 341,249 L 340,249 L 340,250 L 337,253 L 336,252 L 336,251 L 335,250 L 334,250 L 333,249 L 332,249 L 330,247 L 325,247 L 323,249 L 322,249 L 321,250 L 321,253 L 320,254 L 320,256 L 321,257 L 323,257 L 324,258 L 324,259 L 326,261 L 327,261 L 329,259 L 330,259 L 332,261 L 332,263 L 331,264 L 331,266 L 333,268 L 333,271 L 334,271 L 336,273 L 337,273 L 338,274 L 340,274 L 341,275 L 349,275 L 349,273 L 351,271 L 353,271 L 353,269 L 354,268 L 355,268 L 356,267 L 360,267 L 361,266 L 363,266 L 365,264 L 366,264 L 366,262 L 368,260 L 369,260 L 371,258 L 372,258 L 373,257 L 371,255 L 371,254 L 369,252 L 371,250 L 371,249 L 372,248 L 373,248 L 373,245 L 372,244 L 370,244 L 369,245 L 367,243 L 365,243 L 363,241 L 364,240 L 364,239 Z" fill="none" stroke="black" stroke-width="1"/>
</svg>