<svg xmlns="http://www.w3.org/2000/svg" width="710" height="350">
  <path d="M 342,276 L 339,279 L 337,279 L 336,280 L 335,280 L 334,281 L 331,281 L 331,282 L 329,284 L 328,284 L 328,286 L 327,287 L 327,291 L 326,292 L 326,294 L 328,296 L 331,296 L 333,294 L 334,294 L 337,297 L 340,297 L 342,299 L 342,302 L 341,303 L 342,304 L 342,308 L 343,309 L 347,309 L 348,310 L 349,310 L 350,311 L 355,311 L 356,310 L 355,309 L 355,305 L 356,304 L 359,304 L 360,305 L 361,305 L 362,304 L 364,304 L 365,303 L 367,303 L 369,301 L 370,301 L 372,299 L 372,297 L 371,296 L 372,295 L 373,295 L 372,294 L 373,293 L 374,293 L 376,291 L 377,291 L 378,290 L 380,290 L 380,289 L 383,286 L 385,286 L 386,285 L 387,285 L 386,285 L 384,283 L 380,283 L 379,282 L 373,282 L 371,280 L 371,279 L 370,278 L 367,278 L 366,279 L 356,279 L 355,280 L 351,280 L 350,279 L 350,276 Z" fill="none" stroke="black" stroke-width="1"/>
</svg>