<svg xmlns="http://www.w3.org/2000/svg" width="710" height="350">
  <path d="M 342,163 L 340,165 L 338,165 L 337,166 L 336,166 L 335,165 L 334,165 L 334,167 L 333,168 L 333,169 L 332,170 L 332,171 L 325,178 L 323,178 L 322,179 L 319,179 L 318,180 L 317,179 L 313,179 L 312,178 L 301,178 L 300,179 L 297,179 L 296,178 L 293,178 L 293,180 L 295,182 L 295,184 L 298,187 L 298,188 L 299,189 L 299,191 L 300,191 L 301,190 L 302,191 L 313,191 L 314,192 L 314,194 L 315,195 L 315,198 L 316,198 L 317,199 L 317,200 L 318,200 L 319,201 L 319,203 L 320,203 L 321,202 L 323,202 L 324,201 L 331,201 L 332,200 L 334,200 L 341,193 L 342,193 L 343,192 L 344,192 L 345,191 L 355,191 L 356,190 L 359,190 L 360,189 L 362,189 L 363,188 L 364,188 L 364,187 L 366,185 L 367,185 L 368,184 L 369,184 L 370,183 L 374,183 L 373,182 L 372,182 L 369,179 L 369,178 L 367,176 L 367,174 L 366,173 L 366,170 L 363,170 L 362,169 L 359,169 L 358,168 L 354,168 L 352,166 L 350,166 L 348,164 L 345,164 L 344,163 Z" fill="none" stroke="black" stroke-width="1"/>
</svg>