<svg xmlns="http://www.w3.org/2000/svg" width="710" height="350">
  <path d="M 230,121 L 230,122 L 228,124 L 228,125 L 226,127 L 223,127 L 225,129 L 225,130 L 224,131 L 224,132 L 225,132 L 228,135 L 228,137 L 229,138 L 229,139 L 230,139 L 232,141 L 232,142 L 236,142 L 237,143 L 237,145 L 238,145 L 239,146 L 238,147 L 237,147 L 235,149 L 234,149 L 233,150 L 232,150 L 231,151 L 230,151 L 228,153 L 226,153 L 225,154 L 226,155 L 227,155 L 228,156 L 227,157 L 227,158 L 224,161 L 223,161 L 222,160 L 222,162 L 221,163 L 220,163 L 222,165 L 224,165 L 229,170 L 229,171 L 233,175 L 234,175 L 235,176 L 242,176 L 243,175 L 248,175 L 249,174 L 261,174 L 262,175 L 269,175 L 271,177 L 273,177 L 274,176 L 276,176 L 277,175 L 278,175 L 279,174 L 281,174 L 283,176 L 283,177 L 284,177 L 285,178 L 285,179 L 286,180 L 287,180 L 288,181 L 289,181 L 290,182 L 292,182 L 293,181 L 292,180 L 292,178 L 293,177 L 295,177 L 295,175 L 294,174 L 294,166 L 293,165 L 293,164 L 292,164 L 290,162 L 290,161 L 289,161 L 288,160 L 288,158 L 287,157 L 287,154 L 286,153 L 285,153 L 284,152 L 280,152 L 279,151 L 277,151 L 275,149 L 275,148 L 274,147 L 274,145 L 273,145 L 271,143 L 270,143 L 269,142 L 268,142 L 266,140 L 266,135 L 265,134 L 264,134 L 263,133 L 263,131 L 264,130 L 263,129 L 263,128 L 259,128 L 257,130 L 253,130 L 252,129 L 246,129 L 245,130 L 241,130 L 240,129 L 239,129 L 237,127 L 238,126 L 238,122 L 232,122 L 231,121 Z" fill="none" stroke="black" stroke-width="1"/>
</svg>