<svg xmlns="http://www.w3.org/2000/svg" width="186" height="167">
  <path d="M 117,124 L 116,125 L 115,125 L 115,126 L 114,127 L 110,127 L 109,128 L 108,128 L 108,129 L 109,130 L 109,131 L 107,133 L 107,134 L 105,136 L 105,137 L 106,138 L 112,138 L 115,141 L 115,143 L 116,143 L 117,144 L 117,145 L 118,144 L 121,144 L 121,143 L 122,142 L 125,142 L 127,140 L 128,140 L 128,139 L 130,137 L 129,137 L 128,136 L 127,136 L 126,137 L 125,136 L 125,132 L 123,130 L 123,128 L 122,127 L 122,125 L 121,124 Z" fill="none" stroke="black" stroke-width="1"/>
</svg>