<svg xmlns="http://www.w3.org/2000/svg" width="315" height="148">
  <path d="M 224,13 L 222,15 L 216,15 L 216,17 L 215,18 L 215,24 L 213,26 L 213,27 L 208,32 L 208,38 L 206,40 L 206,42 L 210,42 L 211,43 L 211,46 L 212,47 L 212,49 L 214,51 L 214,52 L 215,53 L 215,54 L 216,55 L 216,56 L 218,56 L 219,57 L 218,58 L 218,65 L 217,66 L 217,69 L 216,70 L 216,73 L 218,75 L 218,76 L 219,75 L 220,75 L 221,74 L 223,74 L 223,73 L 225,71 L 228,71 L 230,69 L 233,69 L 234,68 L 235,68 L 236,67 L 236,66 L 237,65 L 238,65 L 238,64 L 239,63 L 239,62 L 240,61 L 239,60 L 239,54 L 240,53 L 240,48 L 243,45 L 243,43 L 242,42 L 242,38 L 243,37 L 244,37 L 245,38 L 246,37 L 246,35 L 247,34 L 247,33 L 248,32 L 248,30 L 249,29 L 246,29 L 245,28 L 243,28 L 242,27 L 242,25 L 240,25 L 239,24 L 238,24 L 237,23 L 237,21 L 236,20 L 236,17 L 235,17 L 232,14 L 230,14 L 229,13 Z" fill="none" stroke="black" stroke-width="1"/>
</svg>