<svg xmlns="http://www.w3.org/2000/svg" width="404" height="430">
  <path d="M 142,250 L 142,255 L 143,256 L 143,259 L 139,263 L 139,267 L 137,269 L 143,275 L 143,276 L 144,277 L 144,291 L 145,292 L 145,294 L 148,297 L 148,298 L 149,299 L 150,299 L 151,298 L 152,298 L 154,300 L 155,300 L 157,298 L 161,298 L 162,299 L 163,299 L 163,296 L 164,295 L 164,294 L 165,293 L 167,293 L 168,294 L 171,294 L 172,295 L 175,295 L 176,296 L 184,296 L 184,293 L 186,291 L 189,291 L 190,292 L 192,292 L 192,291 L 193,290 L 193,288 L 192,287 L 191,287 L 188,284 L 188,283 L 187,283 L 186,282 L 186,280 L 185,280 L 184,279 L 184,278 L 182,276 L 178,276 L 177,275 L 175,275 L 172,272 L 171,272 L 170,271 L 168,271 L 167,270 L 165,270 L 164,269 L 164,268 L 163,267 L 163,263 L 164,262 L 165,262 L 165,261 L 164,260 L 162,260 L 161,259 L 160,259 L 159,258 L 159,257 L 157,255 L 157,254 L 156,254 L 154,252 L 152,252 L 151,251 L 151,250 L 149,250 L 147,252 L 144,252 L 143,251 L 143,250 Z" fill="none" stroke="black" stroke-width="1"/>
</svg>