<svg xmlns="http://www.w3.org/2000/svg" width="710" height="350">
  <path d="M 230,187 L 229,188 L 228,188 L 227,189 L 225,189 L 224,190 L 221,190 L 218,193 L 217,193 L 216,194 L 212,194 L 211,195 L 209,195 L 208,196 L 204,196 L 203,195 L 202,195 L 201,194 L 200,194 L 199,193 L 197,193 L 197,195 L 194,198 L 194,201 L 193,202 L 193,209 L 196,212 L 197,212 L 199,214 L 200,214 L 201,215 L 202,215 L 203,216 L 205,216 L 206,217 L 207,217 L 208,218 L 209,218 L 210,219 L 212,219 L 213,220 L 215,220 L 217,218 L 218,218 L 219,217 L 219,216 L 220,215 L 220,214 L 222,212 L 223,212 L 224,211 L 233,211 L 236,208 L 237,208 L 238,207 L 239,207 L 240,206 L 240,204 L 242,202 L 244,202 L 243,201 L 243,200 L 242,199 L 242,198 L 241,197 L 241,196 L 240,195 L 240,189 L 238,189 L 237,188 L 232,188 L 231,187 Z" fill="none" stroke="black" stroke-width="1"/>
</svg>