<svg xmlns="http://www.w3.org/2000/svg" width="315" height="148">
  <path d="M 82,84 L 81,85 L 81,86 L 80,87 L 77,87 L 77,92 L 76,93 L 72,93 L 72,97 L 71,98 L 61,98 L 60,99 L 52,99 L 52,100 L 53,100 L 54,101 L 52,103 L 51,103 L 50,104 L 47,104 L 46,103 L 41,103 L 40,102 L 39,103 L 38,103 L 44,103 L 46,105 L 45,106 L 42,106 L 41,107 L 45,107 L 46,108 L 47,108 L 49,110 L 51,110 L 52,111 L 53,110 L 61,110 L 62,109 L 64,109 L 65,110 L 66,110 L 67,111 L 68,111 L 68,110 L 69,109 L 70,109 L 72,107 L 75,110 L 77,110 L 77,108 L 78,107 L 79,107 L 80,108 L 80,109 L 84,109 L 85,110 L 85,111 L 85,110 L 86,109 L 89,109 L 91,107 L 92,107 L 95,104 L 96,105 L 97,105 L 99,103 L 101,103 L 102,102 L 102,101 L 103,100 L 103,95 L 102,95 L 99,92 L 98,92 L 96,90 L 96,85 L 95,84 L 94,85 L 88,85 L 87,84 Z" fill="none" stroke="black" stroke-width="1"/>
</svg>