<svg xmlns="http://www.w3.org/2000/svg" width="1028" height="413">
  <path d="M 369,267 L 366,270 L 365,270 L 364,271 L 364,274 L 362,276 L 361,275 L 361,273 L 360,273 L 359,274 L 358,274 L 357,275 L 357,276 L 360,276 L 361,277 L 361,278 L 360,279 L 356,279 L 356,281 L 357,281 L 358,282 L 358,283 L 359,283 L 361,281 L 362,282 L 362,286 L 360,288 L 360,289 L 363,289 L 363,281 L 364,280 L 364,279 L 365,278 L 365,277 L 364,276 L 366,274 L 367,274 L 367,273 L 366,272 L 367,271 L 369,271 L 370,270 L 370,267 Z" fill="none" stroke="black" stroke-width="1"/>
</svg>