<svg xmlns="http://www.w3.org/2000/svg" width="1028" height="413">
  <path d="M 274,249 L 274,250 L 275,251 L 275,252 L 276,252 L 277,253 L 277,254 L 278,254 L 278,250 L 277,250 L 276,249 Z" fill="none" stroke="black" stroke-width="1"/>
  <path d="M 273,242 L 273,243 L 275,243 L 276,244 L 277,244 L 278,245 L 279,245 L 279,243 L 276,243 L 275,242 Z" fill="none" stroke="black" stroke-width="1"/>
  <path d="M 273,230 L 273,234 L 272,235 L 271,234 L 271,233 L 270,233 L 269,234 L 270,235 L 269,236 L 265,236 L 268,239 L 268,238 L 269,237 L 270,238 L 270,239 L 271,239 L 271,237 L 272,236 L 273,237 L 273,238 L 274,239 L 275,239 L 277,241 L 278,241 L 279,240 L 278,239 L 277,239 L 275,237 L 276,236 L 279,236 L 280,235 L 282,235 L 282,233 L 281,232 L 281,231 L 280,231 L 280,235 L 279,236 L 274,231 L 274,230 Z" fill="none" stroke="black" stroke-width="1"/>
</svg>