<svg xmlns="http://www.w3.org/2000/svg" width="186" height="167">
  <path d="M 120,100 L 119,101 L 117,101 L 117,104 L 116,105 L 114,103 L 112,105 L 111,105 L 110,106 L 110,107 L 111,108 L 111,109 L 113,111 L 113,112 L 114,113 L 114,116 L 113,117 L 112,116 L 110,118 L 109,118 L 107,120 L 106,120 L 106,123 L 108,125 L 107,126 L 107,127 L 109,127 L 110,126 L 114,126 L 114,125 L 115,124 L 116,124 L 117,123 L 121,123 L 123,125 L 124,125 L 125,124 L 126,124 L 126,123 L 127,122 L 128,122 L 128,120 L 129,119 L 130,119 L 131,120 L 132,120 L 134,118 L 133,117 L 134,116 L 134,115 L 133,115 L 131,113 L 130,113 L 127,110 L 128,109 L 128,108 L 129,107 L 129,104 L 128,103 L 128,102 L 127,102 L 126,103 L 125,103 L 123,101 L 122,101 L 121,100 Z" fill="none" stroke="black" stroke-width="1"/>
</svg>