<svg xmlns="http://www.w3.org/2000/svg" width="1028" height="413">
  <path d="M 555,408 L 555,409 L 554,410 L 552,410 L 553,411 L 554,411 L 555,412 L 559,412 L 559,411 L 558,411 L 556,409 L 556,408 Z" fill="none" stroke="black" stroke-width="1"/>
  <path d="M 565,401 L 565,402 L 567,404 L 567,408 L 568,409 L 569,408 L 569,406 L 570,405 L 570,402 L 568,402 L 567,401 Z" fill="none" stroke="black" stroke-width="1"/>
  <path d="M 555,401 L 554,402 L 554,404 L 555,405 L 557,405 L 559,407 L 564,407 L 564,406 L 562,404 L 561,404 L 560,403 L 559,403 L 557,401 Z" fill="none" stroke="black" stroke-width="1"/>
</svg>