<svg xmlns="http://www.w3.org/2000/svg" width="1028" height="413">
  <path d="M 536,355 L 535,356 L 532,356 L 531,357 L 528,357 L 527,358 L 525,358 L 525,359 L 526,360 L 526,361 L 528,363 L 528,365 L 527,366 L 526,365 L 526,364 L 525,364 L 523,362 L 523,360 L 522,360 L 518,364 L 518,365 L 519,366 L 519,367 L 518,368 L 518,369 L 519,370 L 519,371 L 520,372 L 521,372 L 522,373 L 526,373 L 527,372 L 528,372 L 529,373 L 530,373 L 532,371 L 535,371 L 535,369 L 536,368 L 535,367 L 534,367 L 533,366 L 535,364 L 536,364 L 537,363 L 539,363 L 539,362 L 540,361 L 542,361 L 542,358 L 541,357 L 541,356 L 539,356 L 538,355 Z" fill="none" stroke="black" stroke-width="1"/>
  <path d="M 555,348 L 554,349 L 552,349 L 553,350 L 554,350 L 556,348 Z" fill="none" stroke="black" stroke-width="1"/>
  <path d="M 546,339 L 544,341 L 543,341 L 542,342 L 538,342 L 534,346 L 534,347 L 533,348 L 533,349 L 530,352 L 528,352 L 527,353 L 524,353 L 523,352 L 522,353 L 521,353 L 520,354 L 518,354 L 517,353 L 512,358 L 512,359 L 511,360 L 511,362 L 512,362 L 513,363 L 514,363 L 515,364 L 516,364 L 515,363 L 514,363 L 513,362 L 514,361 L 517,361 L 520,358 L 520,356 L 521,355 L 522,355 L 523,354 L 525,354 L 526,355 L 527,355 L 528,354 L 530,354 L 531,353 L 539,353 L 540,354 L 542,354 L 543,355 L 543,354 L 544,353 L 544,351 L 545,350 L 546,350 L 546,346 L 545,345 L 545,344 L 544,343 L 544,342 L 547,339 Z" fill="none" stroke="black" stroke-width="1"/>
</svg>