<svg xmlns="http://www.w3.org/2000/svg" width="1028" height="413">
  <path d="M 607,292 L 606,293 L 606,297 L 604,299 L 603,299 L 603,300 L 601,302 L 599,302 L 599,304 L 600,305 L 600,306 L 598,308 L 598,309 L 599,309 L 600,310 L 599,311 L 598,311 L 599,312 L 599,313 L 602,316 L 603,316 L 605,318 L 609,318 L 612,315 L 614,317 L 615,317 L 616,316 L 616,315 L 617,314 L 618,314 L 619,313 L 621,313 L 622,314 L 622,313 L 625,310 L 627,310 L 627,308 L 628,307 L 628,305 L 623,305 L 621,303 L 620,303 L 619,304 L 617,302 L 617,298 L 616,297 L 616,296 L 615,296 L 614,295 L 614,294 L 613,294 L 612,293 L 612,292 Z" fill="none" stroke="black" stroke-width="1"/>
</svg>