<svg xmlns="http://www.w3.org/2000/svg" width="1790" height="1070">
  <path d="M 504,788 L 505,789 L 505,788 Z" fill="none" stroke="black" stroke-width="1"/>
  <path d="M 510,768 L 511,769 L 511,770 L 513,772 L 514,771 L 515,771 L 515,770 L 514,769 L 513,769 L 512,768 Z" fill="none" stroke="black" stroke-width="1"/>
  <path d="M 498,757 L 500,757 L 501,758 L 498,761 L 499,762 L 500,762 L 501,763 L 502,763 L 503,764 L 504,763 L 504,762 L 501,759 L 501,757 Z" fill="none" stroke="black" stroke-width="1"/>
  <path d="M 451,747 L 451,748 L 453,750 L 453,752 L 456,755 L 456,756 L 457,757 L 457,758 L 458,759 L 459,759 L 462,762 L 463,762 L 464,763 L 464,765 L 465,766 L 466,766 L 471,771 L 473,771 L 475,773 L 477,773 L 480,776 L 483,776 L 484,777 L 484,779 L 485,780 L 486,780 L 488,782 L 491,782 L 493,784 L 494,784 L 495,783 L 497,783 L 497,781 L 494,778 L 493,778 L 492,777 L 491,777 L 486,772 L 485,772 L 482,769 L 481,769 L 479,767 L 477,767 L 475,765 L 475,764 L 474,764 L 470,760 L 470,758 L 468,758 L 467,757 L 466,757 L 465,756 L 464,756 L 463,755 L 463,754 L 462,754 L 459,751 L 458,751 L 456,749 L 456,750 L 455,751 Z" fill="none" stroke="black" stroke-width="1"/>
</svg>