<svg xmlns="http://www.w3.org/2000/svg" width="1790" height="1070">
  <path d="M 1181,715 L 1181,716 L 1184,719 L 1184,721 L 1185,721 L 1186,720 L 1186,718 L 1185,717 L 1185,716 L 1184,716 L 1183,715 Z" fill="none" stroke="black" stroke-width="1"/>
  <path d="M 1194,713 L 1194,717 L 1195,717 L 1198,720 L 1203,720 L 1204,721 L 1204,722 L 1205,723 L 1208,723 L 1208,722 L 1207,721 L 1207,720 L 1206,720 L 1204,718 L 1204,716 L 1200,716 L 1199,715 L 1198,715 L 1196,713 Z" fill="none" stroke="black" stroke-width="1"/>
  <path d="M 1199,702 L 1199,705 L 1200,706 L 1200,707 L 1201,708 L 1201,709 L 1202,709 L 1203,710 L 1204,710 L 1204,708 L 1203,707 L 1203,704 L 1201,702 Z" fill="none" stroke="black" stroke-width="1"/>
  <path d="M 1130,701 L 1130,702 L 1132,704 L 1132,705 L 1134,705 L 1135,706 L 1137,706 L 1137,704 L 1136,704 L 1135,703 L 1135,701 Z" fill="none" stroke="black" stroke-width="1"/>
  <path d="M 1170,700 L 1170,702 L 1172,704 L 1172,707 L 1173,707 L 1173,702 L 1171,700 Z" fill="none" stroke="black" stroke-width="1"/>
  <path d="M 1163,699 L 1163,700 L 1165,702 L 1168,702 L 1168,699 Z" fill="none" stroke="black" stroke-width="1"/>
  <path d="M 1119,697 L 1119,701 L 1120,701 L 1121,702 L 1123,702 L 1123,700 L 1121,698 L 1121,697 Z" fill="none" stroke="black" stroke-width="1"/>
  <path d="M 1159,694 L 1159,696 L 1157,698 L 1157,701 L 1159,701 L 1159,700 L 1160,699 L 1160,694 Z" fill="none" stroke="black" stroke-width="1"/>
  <path d="M 1166,689 L 1166,691 L 1165,692 L 1164,692 L 1164,696 L 1166,696 L 1167,695 L 1167,689 Z" fill="none" stroke="black" stroke-width="1"/>
  <path d="M 1125,684 L 1124,685 L 1124,686 L 1123,687 L 1123,688 L 1124,689 L 1124,690 L 1125,691 L 1126,691 L 1126,684 Z" fill="none" stroke="black" stroke-width="1"/>
</svg>