<svg xmlns="http://www.w3.org/2000/svg" width="1790" height="1070">
  <path d="M 772,811 L 771,812 L 770,812 L 768,814 L 768,815 L 767,816 L 767,817 L 769,819 L 783,819 L 784,818 L 784,817 L 782,815 L 780,815 L 779,814 L 778,814 L 777,813 L 776,813 L 775,812 L 774,812 L 773,811 Z" fill="none" stroke="black" stroke-width="1"/>
  <path d="M 811,795 L 810,796 L 808,796 L 801,803 L 800,803 L 799,804 L 798,804 L 797,805 L 796,805 L 796,806 L 795,807 L 794,806 L 794,807 L 793,808 L 793,810 L 794,811 L 795,811 L 796,812 L 797,812 L 798,813 L 799,813 L 800,812 L 801,812 L 805,808 L 807,808 L 808,809 L 810,809 L 811,808 L 811,807 L 812,806 L 812,805 L 813,804 L 813,802 L 814,801 L 814,797 L 812,795 Z" fill="none" stroke="black" stroke-width="1"/>
  <path d="M 803,772 L 803,774 L 802,775 L 802,776 L 801,777 L 799,775 L 798,775 L 798,778 L 799,778 L 800,779 L 802,779 L 803,778 L 803,777 L 804,776 L 804,775 L 805,774 L 805,772 Z" fill="none" stroke="black" stroke-width="1"/>
  <path d="M 807,764 L 807,765 L 808,765 L 808,764 Z" fill="none" stroke="black" stroke-width="1"/>
  <path d="M 811,761 L 811,763 L 812,763 L 812,761 Z" fill="none" stroke="black" stroke-width="1"/>
  <path d="M 812,757 L 812,759 L 813,759 L 813,757 Z" fill="none" stroke="black" stroke-width="1"/>
  <path d="M 807,756 L 807,758 L 808,758 L 808,756 Z" fill="none" stroke="black" stroke-width="1"/>
  <path d="M 813,754 L 813,755 L 814,755 L 814,754 Z" fill="none" stroke="black" stroke-width="1"/>
  <path d="M 810,753 L 810,754 L 811,755 L 811,753 Z" fill="none" stroke="black" stroke-width="1"/>
  <path d="M 813,750 L 813,752 L 814,752 L 814,750 Z" fill="none" stroke="black" stroke-width="1"/>
  <path d="M 819,733 L 817,735 L 817,736 L 818,736 L 819,735 L 820,735 L 821,734 L 821,733 Z" fill="none" stroke="black" stroke-width="1"/>
  <path d="M 816,726 L 816,727 L 817,727 L 817,726 Z" fill="none" stroke="black" stroke-width="1"/>
</svg>