<svg xmlns="http://www.w3.org/2000/svg" width="1790" height="1070">
  <path d="M 706,582 L 706,584 L 707,585 L 707,586 L 708,587 L 709,587 L 709,582 Z" fill="none" stroke="black" stroke-width="1"/>
  <path d="M 695,569 L 694,570 L 693,570 L 693,576 L 695,576 L 695,573 L 696,572 L 696,569 Z" fill="none" stroke="black" stroke-width="1"/>
  <path d="M 683,561 L 681,563 L 681,567 L 683,567 L 684,566 L 684,564 L 685,563 L 685,561 Z" fill="none" stroke="black" stroke-width="1"/>
  <path d="M 663,549 L 663,550 L 664,551 L 665,551 L 666,552 L 666,553 L 668,553 L 669,552 L 669,551 L 667,549 Z" fill="none" stroke="black" stroke-width="1"/>
  <path d="M 665,532 L 665,534 L 667,534 L 668,535 L 670,535 L 670,532 Z" fill="none" stroke="black" stroke-width="1"/>
</svg>