<svg xmlns="http://www.w3.org/2000/svg" width="186" height="167">
  <path d="M 142,132 L 141,133 L 140,133 L 140,134 L 139,135 L 139,136 L 138,137 L 136,137 L 135,138 L 130,138 L 129,139 L 129,140 L 128,141 L 127,141 L 125,143 L 122,143 L 122,144 L 123,144 L 126,147 L 126,148 L 128,150 L 128,152 L 130,152 L 131,151 L 132,151 L 135,148 L 136,148 L 137,147 L 139,149 L 140,149 L 141,148 L 142,149 L 142,148 L 145,145 L 145,144 L 147,142 L 149,142 L 147,140 L 147,139 L 146,138 L 146,134 L 145,133 L 144,133 L 143,132 Z" fill="none" stroke="black" stroke-width="1"/>
</svg>