<svg xmlns="http://www.w3.org/2000/svg" width="1790" height="1070">
  <path d="M 638,462 L 638,464 L 639,465 L 639,466 L 640,466 L 640,463 L 639,462 Z" fill="none" stroke="black" stroke-width="1"/>
  <path d="M 652,454 L 652,455 L 653,455 L 654,456 L 654,458 L 655,458 L 655,454 Z" fill="none" stroke="black" stroke-width="1"/>
  <path d="M 625,451 L 625,452 L 628,455 L 628,456 L 627,457 L 627,458 L 629,458 L 630,459 L 631,459 L 632,460 L 633,460 L 633,458 L 632,457 L 632,455 L 631,455 L 627,451 Z" fill="none" stroke="black" stroke-width="1"/>
  <path d="M 619,440 L 618,441 L 618,444 L 619,444 L 622,447 L 623,447 L 623,444 L 622,444 L 620,442 L 620,440 Z" fill="none" stroke="black" stroke-width="1"/>
  <path d="M 605,429 L 605,430 L 606,431 L 607,431 L 609,433 L 610,433 L 610,431 L 609,430 L 609,429 Z" fill="none" stroke="black" stroke-width="1"/>
  <path d="M 612,425 L 612,427 L 614,429 L 614,430 L 615,430 L 615,427 L 613,425 Z" fill="none" stroke="black" stroke-width="1"/>
  <path d="M 599,416 L 599,420 L 602,420 L 602,418 L 601,418 L 600,417 L 600,416 Z" fill="none" stroke="black" stroke-width="1"/>
  <path d="M 599,408 L 599,414 L 600,414 L 601,413 L 602,413 L 602,412 L 603,411 L 604,411 L 604,410 L 602,410 L 601,409 L 601,408 Z" fill="none" stroke="black" stroke-width="1"/>
  <path d="M 596,401 L 596,402 L 597,403 L 598,403 L 599,404 L 599,405 L 600,406 L 601,406 L 601,404 L 600,403 L 600,401 Z" fill="none" stroke="black" stroke-width="1"/>
  <path d="M 603,399 L 603,401 L 604,402 L 605,402 L 605,401 L 604,400 L 604,399 Z" fill="none" stroke="black" stroke-width="1"/>
  <path d="M 594,381 L 594,382 L 595,383 L 595,384 L 596,385 L 598,385 L 599,384 L 600,384 L 601,383 L 601,382 L 597,382 L 596,381 Z" fill="none" stroke="black" stroke-width="1"/>
  <path d="M 599,377 L 599,380 L 600,380 L 600,377 Z" fill="none" stroke="black" stroke-width="1"/>
</svg>