<svg xmlns="http://www.w3.org/2000/svg" width="1790" height="1070">
  <path d="M 531,355 L 531,356 L 532,357 L 532,359 L 535,359 L 535,358 L 534,358 L 533,357 L 533,355 Z" fill="none" stroke="black" stroke-width="1"/>
  <path d="M 444,347 L 443,348 L 444,348 Z" fill="none" stroke="black" stroke-width="1"/>
  <path d="M 409,334 L 409,336 L 410,337 L 410,336 L 411,335 L 410,334 Z" fill="none" stroke="black" stroke-width="1"/>
  <path d="M 580,333 L 580,335 L 579,336 L 579,337 L 581,337 L 581,336 L 582,335 L 583,335 L 584,336 L 585,336 L 586,337 L 587,337 L 587,335 L 586,334 L 583,334 L 582,333 Z" fill="none" stroke="black" stroke-width="1"/>
  <path d="M 543,331 L 543,333 L 544,334 L 545,334 L 546,335 L 546,340 L 547,340 L 548,339 L 550,339 L 550,337 L 549,337 L 548,336 L 548,334 L 547,333 L 547,332 L 546,331 Z" fill="none" stroke="black" stroke-width="1"/>
  <path d="M 579,317 L 579,318 L 578,319 L 578,320 L 580,322 L 581,322 L 582,321 L 583,321 L 583,320 L 582,320 L 581,319 L 580,319 L 579,318 Z" fill="none" stroke="black" stroke-width="1"/>
  <path d="M 569,317 L 569,318 L 570,319 L 572,319 L 573,320 L 574,319 L 575,319 L 574,318 L 572,318 L 571,317 Z" fill="none" stroke="black" stroke-width="1"/>
  <path d="M 535,311 L 535,312 L 534,313 L 532,313 L 531,314 L 532,315 L 534,315 L 535,316 L 535,317 L 536,317 L 536,315 L 537,314 L 537,313 L 538,312 L 537,311 Z" fill="none" stroke="black" stroke-width="1"/>
  <path d="M 524,300 L 523,301 L 522,301 L 522,303 L 523,303 L 524,304 L 524,305 L 525,306 L 525,307 L 526,308 L 527,308 L 527,306 L 526,305 L 526,304 L 525,303 L 525,300 Z" fill="none" stroke="black" stroke-width="1"/>
  <path d="M 570,299 L 570,302 L 571,302 L 572,303 L 572,302 L 571,301 L 571,300 Z" fill="none" stroke="black" stroke-width="1"/>
  <path d="M 567,291 L 568,292 L 568,293 L 572,297 L 572,295 L 573,294 L 570,291 Z" fill="none" stroke="black" stroke-width="1"/>
  <path d="M 495,289 L 495,290 L 497,290 L 497,289 Z" fill="none" stroke="black" stroke-width="1"/>
  <path d="M 485,286 L 485,287 L 488,290 L 489,290 L 489,289 L 486,286 Z" fill="none" stroke="black" stroke-width="1"/>
  <path d="M 553,285 L 552,286 L 553,286 L 554,287 L 554,288 L 555,288 L 555,287 Z" fill="none" stroke="black" stroke-width="1"/>
  <path d="M 514,283 L 513,284 L 505,284 L 506,284 L 507,285 L 509,285 L 510,286 L 511,286 L 512,287 L 515,287 L 517,289 L 517,292 L 518,293 L 518,292 L 519,291 L 519,290 L 518,289 L 518,287 Z" fill="none" stroke="black" stroke-width="1"/>
  <path d="M 552,279 L 551,280 L 553,282 L 554,282 L 555,281 L 558,281 L 556,279 L 555,280 L 553,280 Z" fill="none" stroke="black" stroke-width="1"/>
  <path d="M 412,274 L 411,275 L 412,276 L 413,275 L 414,275 L 413,275 Z" fill="none" stroke="black" stroke-width="1"/>
  <path d="M 539,273 L 539,275 L 540,275 L 541,276 L 543,276 L 543,275 L 542,274 L 541,274 L 540,273 Z" fill="none" stroke="black" stroke-width="1"/>
  <path d="M 491,270 L 491,271 L 492,272 L 492,270 Z" fill="none" stroke="black" stroke-width="1"/>
  <path d="M 553,266 L 553,267 L 552,268 L 552,269 L 553,269 Z" fill="none" stroke="black" stroke-width="1"/>
  <path d="M 496,254 L 496,255 L 497,255 L 498,256 L 501,256 L 501,255 L 500,254 L 499,254 L 498,255 L 497,254 Z" fill="none" stroke="black" stroke-width="1"/>
  <path d="M 550,252 L 549,253 L 547,253 L 547,254 L 548,255 L 549,255 L 550,254 L 551,254 L 552,253 L 551,252 Z" fill="none" stroke="black" stroke-width="1"/>
  <path d="M 514,250 L 513,251 L 514,252 L 515,252 L 515,251 Z" fill="none" stroke="black" stroke-width="1"/>
  <path d="M 502,250 L 502,253 L 503,253 L 505,255 L 506,254 L 505,253 L 508,250 Z" fill="none" stroke="black" stroke-width="1"/>
  <path d="M 480,246 L 480,248 L 481,249 L 482,248 L 483,248 L 484,249 L 485,249 L 485,247 L 483,247 L 482,246 Z" fill="none" stroke="black" stroke-width="1"/>
  <path d="M 433,246 L 432,247 L 431,247 L 431,248 L 433,250 L 433,251 L 435,251 L 436,250 L 436,249 L 435,248 L 435,247 L 434,246 Z" fill="none" stroke="black" stroke-width="1"/>
  <path d="M 537,197 L 537,198 L 538,199 L 539,199 Z" fill="none" stroke="black" stroke-width="1"/>
</svg>