<svg xmlns="http://www.w3.org/2000/svg" width="1790" height="1070">
  <path d="M 319,371 L 319,372 L 321,372 L 321,371 Z" fill="none" stroke="black" stroke-width="1"/>
  <path d="M 297,342 L 297,344 L 296,345 L 295,345 L 297,347 L 297,350 L 299,348 L 300,348 L 300,347 L 302,345 L 303,345 L 303,344 L 302,344 L 300,346 L 298,344 L 299,343 L 299,342 Z" fill="none" stroke="black" stroke-width="1"/>
  <path d="M 356,340 L 356,341 Z" fill="none" stroke="black" stroke-width="1"/>
  <path d="M 370,321 L 369,322 L 369,323 L 371,323 L 371,322 Z" fill="none" stroke="black" stroke-width="1"/>
  <path d="M 364,321 L 365,321 Z" fill="none" stroke="black" stroke-width="1"/>
  <path d="M 272,320 L 272,322 L 273,322 L 273,320 Z" fill="none" stroke="black" stroke-width="1"/>
  <path d="M 228,320 L 228,322 L 229,323 L 229,324 L 230,325 L 230,327 L 231,327 L 231,326 L 233,324 L 232,324 L 231,323 L 230,323 L 229,322 L 229,320 Z" fill="none" stroke="black" stroke-width="1"/>
  <path d="M 196,315 L 196,317 L 197,317 L 197,315 Z" fill="none" stroke="black" stroke-width="1"/>
  <path d="M 156,315 L 156,316 L 155,317 L 154,317 L 154,318 L 157,318 L 157,315 Z" fill="none" stroke="black" stroke-width="1"/>
  <path d="M 185,313 L 186,313 Z" fill="none" stroke="black" stroke-width="1"/>
  <path d="M 183,313 L 183,315 Z" fill="none" stroke="black" stroke-width="1"/>
  <path d="M 324,311 L 324,313 L 325,314 L 325,315 L 326,315 L 327,314 L 327,313 L 328,312 L 327,311 Z" fill="none" stroke="black" stroke-width="1"/>
  <path d="M 232,311 L 232,312 L 233,313 L 233,314 L 234,315 L 234,311 Z" fill="none" stroke="black" stroke-width="1"/>
  <path d="M 269,310 L 269,311 L 268,312 L 268,313 L 267,314 L 267,316 L 268,317 L 271,317 L 272,318 L 273,318 L 275,316 L 275,315 L 273,313 L 274,312 L 273,311 L 272,311 L 271,310 Z" fill="none" stroke="black" stroke-width="1"/>
  <path d="M 204,304 L 204,305 L 206,305 L 206,304 Z" fill="none" stroke="black" stroke-width="1"/>
  <path d="M 161,303 L 161,306 L 164,306 L 164,303 Z" fill="none" stroke="black" stroke-width="1"/>
  <path d="M 192,302 L 192,303 L 190,305 L 189,305 L 189,306 L 190,306 L 191,305 L 193,305 L 193,302 Z" fill="none" stroke="black" stroke-width="1"/>
  <path d="M 165,297 L 165,300 L 166,300 L 166,299 L 167,298 L 169,298 L 169,297 Z" fill="none" stroke="black" stroke-width="1"/>
  <path d="M 269,295 L 269,298 L 272,298 L 272,295 Z" fill="none" stroke="black" stroke-width="1"/>
  <path d="M 263,294 L 263,296 L 264,296 L 264,294 Z" fill="none" stroke="black" stroke-width="1"/>
  <path d="M 154,294 L 154,295 L 155,296 L 155,299 L 156,299 L 156,298 L 158,296 L 157,296 L 156,295 L 156,294 Z" fill="none" stroke="black" stroke-width="1"/>
  <path d="M 277,292 L 277,293 L 276,294 L 276,295 L 277,295 L 278,294 L 280,294 L 280,293 L 279,292 Z" fill="none" stroke="black" stroke-width="1"/>
  <path d="M 245,290 L 244,291 L 243,291 L 242,292 L 241,292 L 238,295 L 240,295 L 241,296 L 245,296 L 246,295 L 247,295 L 248,294 L 248,293 L 249,292 L 247,290 Z" fill="none" stroke="black" stroke-width="1"/>
  <path d="M 169,285 L 169,286 L 171,286 L 171,285 Z" fill="none" stroke="black" stroke-width="1"/>
</svg>