<svg xmlns="http://www.w3.org/2000/svg" width="1790" height="1070">
  <path d="M 2,309 L 2,310 L 0,312 L 0,314 L 1,313 L 1,311 L 2,310 Z" fill="none" stroke="black" stroke-width="1"/>
  <path d="M 91,301 L 91,302 L 93,304 L 94,304 L 94,303 L 93,302 L 92,302 Z" fill="none" stroke="black" stroke-width="1"/>
  <path d="M 46,295 L 45,296 L 45,297 L 46,298 L 46,299 L 47,299 L 48,298 L 48,295 Z" fill="none" stroke="black" stroke-width="1"/>
  <path d="M 58,277 L 58,278 L 57,279 L 57,280 L 58,280 L 59,279 L 58,278 Z" fill="none" stroke="black" stroke-width="1"/>
  <path d="M 94,275 L 94,276 Z" fill="none" stroke="black" stroke-width="1"/>
  <path d="M 80,271 L 81,272 L 80,273 L 80,274 L 81,275 L 81,276 L 83,274 L 85,276 L 86,275 L 86,273 L 85,274 L 84,273 L 83,273 L 82,272 L 83,271 Z" fill="none" stroke="black" stroke-width="1"/>
</svg>