<svg xmlns="http://www.w3.org/2000/svg" width="1790" height="1070">
  <path d="M 857,53 L 857,56 L 858,56 L 859,55 L 860,55 L 860,54 L 859,54 L 858,53 Z" fill="none" stroke="black" stroke-width="1"/>
  <path d="M 866,50 L 866,52 L 867,53 L 867,54 L 868,54 L 869,53 L 869,50 Z" fill="none" stroke="black" stroke-width="1"/>
  <path d="M 841,45 L 841,46 L 842,47 L 842,49 L 843,49 L 843,45 Z" fill="none" stroke="black" stroke-width="1"/>
  <path d="M 807,40 L 805,42 L 804,42 L 804,44 L 807,44 L 807,43 L 808,42 L 808,40 Z" fill="none" stroke="black" stroke-width="1"/>
  <path d="M 741,32 L 740,33 L 739,33 L 739,35 L 742,35 L 744,33 L 744,32 Z" fill="none" stroke="black" stroke-width="1"/>
  <path d="M 776,8 L 776,11 L 777,12 L 780,12 L 780,9 L 779,9 L 778,8 Z" fill="none" stroke="black" stroke-width="1"/>
  <path d="M 745,1 L 745,2 L 748,2 L 748,1 Z" fill="none" stroke="black" stroke-width="1"/>
  <path d="M 751,0 L 751,3 L 749,5 L 749,7 L 751,7 L 752,6 L 752,0 Z" fill="none" stroke="black" stroke-width="1"/>
  <path d="M 737,0 L 737,2 L 738,2 L 739,1 L 740,2 L 741,2 L 741,0 Z" fill="none" stroke="black" stroke-width="1"/>
</svg>