<svg xmlns="http://www.w3.org/2000/svg" width="1028" height="413">
  <path d="M 648,348 L 646,350 L 646,351 L 644,353 L 644,354 L 643,355 L 643,357 L 641,359 L 641,360 L 640,361 L 640,362 L 639,363 L 639,364 L 638,365 L 638,373 L 639,373 L 639,371 L 641,369 L 641,367 L 642,366 L 642,364 L 643,363 L 643,361 L 644,360 L 644,359 L 645,358 L 645,357 L 647,355 L 647,353 L 649,351 L 649,348 Z" fill="none" stroke="black" stroke-width="1"/>
  <path d="M 635,330 L 633,332 L 631,332 L 631,333 L 632,334 L 632,336 L 631,337 L 630,337 L 629,338 L 628,338 L 627,337 L 625,337 L 622,340 L 619,340 L 616,337 L 616,336 L 617,335 L 617,333 L 616,333 L 615,332 L 615,331 L 614,331 L 613,332 L 612,332 L 611,331 L 607,331 L 606,332 L 606,333 L 605,334 L 604,334 L 604,335 L 603,336 L 603,338 L 604,337 L 605,337 L 606,338 L 606,340 L 605,341 L 605,344 L 606,345 L 607,345 L 608,346 L 609,345 L 610,346 L 611,346 L 612,347 L 614,347 L 615,348 L 617,348 L 618,347 L 620,347 L 622,349 L 622,351 L 623,352 L 624,352 L 626,354 L 627,354 L 628,355 L 628,356 L 627,357 L 625,357 L 625,361 L 624,362 L 624,363 L 623,364 L 622,364 L 622,366 L 626,366 L 627,367 L 628,367 L 629,368 L 630,368 L 631,369 L 632,369 L 632,368 L 633,367 L 633,366 L 634,365 L 634,364 L 635,363 L 636,363 L 637,362 L 637,359 L 638,358 L 638,355 L 639,354 L 640,354 L 638,352 L 638,349 L 639,348 L 639,347 L 640,346 L 641,346 L 642,345 L 641,344 L 641,341 L 642,340 L 642,339 L 641,339 L 638,336 L 639,335 L 639,334 L 640,333 L 641,334 L 641,335 L 643,335 L 641,333 L 642,332 L 642,331 L 640,331 L 639,330 Z" fill="none" stroke="black" stroke-width="1"/>
</svg>