<svg xmlns="http://www.w3.org/2000/svg" width="1028" height="413">
  <path d="M 602,110 L 601,111 L 602,112 L 603,112 L 603,111 L 604,110 Z" fill="none" stroke="black" stroke-width="1"/>
  <path d="M 616,88 L 615,89 L 616,90 L 617,89 L 619,89 L 618,89 L 617,88 Z" fill="none" stroke="black" stroke-width="1"/>
  <path d="M 586,85 L 584,87 L 584,88 L 583,89 L 583,90 L 582,91 L 582,92 L 584,90 L 585,90 L 585,89 L 586,88 Z" fill="none" stroke="black" stroke-width="1"/>
  <path d="M 636,84 L 637,84 Z" fill="none" stroke="black" stroke-width="1"/>
  <path d="M 602,78 L 601,79 L 601,80 L 600,81 L 599,81 L 598,80 L 597,80 L 596,79 L 595,79 L 593,81 L 593,84 L 592,85 L 590,83 L 588,85 L 588,86 L 589,87 L 590,86 L 590,85 L 591,84 L 592,85 L 593,85 L 594,84 L 595,85 L 596,85 L 597,84 L 597,83 L 598,82 L 601,82 L 601,81 L 603,79 Z" fill="none" stroke="black" stroke-width="1"/>
  <path d="M 647,64 L 644,67 L 645,67 L 646,66 L 648,66 L 648,65 Z" fill="none" stroke="black" stroke-width="1"/>
  <path d="M 636,60 L 636,61 L 637,62 L 640,62 L 640,61 L 638,61 L 637,60 Z" fill="none" stroke="black" stroke-width="1"/>
  <path d="M 617,60 L 616,61 L 618,63 L 617,64 L 615,64 L 615,66 L 614,67 L 613,66 L 611,66 L 610,65 L 609,65 L 608,66 L 607,66 L 607,67 L 606,68 L 607,69 L 607,70 L 608,70 L 610,68 L 613,68 L 614,69 L 613,70 L 614,70 L 615,71 L 617,71 L 619,69 L 620,69 L 621,68 L 622,68 L 623,69 L 620,72 L 619,72 L 620,72 L 621,73 L 618,76 L 617,75 L 615,75 L 613,77 L 612,76 L 609,76 L 608,77 L 608,78 L 607,79 L 605,79 L 605,80 L 604,81 L 604,82 L 606,82 L 607,81 L 609,81 L 610,80 L 611,80 L 612,79 L 613,79 L 614,78 L 615,78 L 615,77 L 616,76 L 617,76 L 618,77 L 617,78 L 617,79 L 620,76 L 621,76 L 622,77 L 624,77 L 625,78 L 626,77 L 627,77 L 629,75 L 630,76 L 630,77 L 630,76 L 633,73 L 633,72 L 634,71 L 639,71 L 639,69 L 640,68 L 639,67 L 639,65 L 638,64 L 634,64 L 633,65 L 634,66 L 631,69 L 631,70 L 630,71 L 629,71 L 629,73 L 628,74 L 627,73 L 627,70 L 628,69 L 629,69 L 629,68 L 630,67 L 630,66 L 629,65 L 629,64 L 630,63 L 630,62 L 629,61 L 626,61 L 626,64 L 625,65 L 624,65 L 623,66 L 622,66 L 621,65 L 621,64 L 620,63 L 619,63 L 618,62 L 618,60 Z" fill="none" stroke="black" stroke-width="1"/>
  <path d="M 654,58 L 653,59 L 654,59 L 655,58 Z" fill="none" stroke="black" stroke-width="1"/>
  <path d="M 633,51 L 632,52 L 631,52 L 629,54 L 629,55 L 628,56 L 627,56 L 626,57 L 625,57 L 624,58 L 624,59 L 623,60 L 623,63 L 624,62 L 624,60 L 625,59 L 629,59 L 629,58 L 631,56 L 632,56 L 632,55 L 633,54 Z" fill="none" stroke="black" stroke-width="1"/>
  <path d="M 658,44 L 658,46 L 657,47 L 655,47 L 653,45 L 653,46 L 652,47 L 651,46 L 651,47 L 654,47 L 655,48 L 654,49 L 646,49 L 648,49 L 649,50 L 648,51 L 646,51 L 647,52 L 649,52 L 650,53 L 649,54 L 646,54 L 648,54 L 649,55 L 647,57 L 644,57 L 644,58 L 645,58 L 646,57 L 648,57 L 649,58 L 649,59 L 649,58 L 651,56 L 652,56 L 653,55 L 654,55 L 655,54 L 656,55 L 661,55 L 661,54 L 660,53 L 660,52 L 664,48 L 663,47 L 663,46 L 661,44 Z" fill="none" stroke="black" stroke-width="1"/>
  <path d="M 655,44 L 656,45 L 656,44 Z" fill="none" stroke="black" stroke-width="1"/>
  <path d="M 669,38 L 669,39 L 672,39 L 670,39 Z" fill="none" stroke="black" stroke-width="1"/>
  <path d="M 674,36 L 674,37 L 675,38 L 675,40 L 674,41 L 667,41 L 668,42 L 667,43 L 666,43 L 665,42 L 664,43 L 663,43 L 664,44 L 670,44 L 671,45 L 671,46 L 669,48 L 668,47 L 666,47 L 666,49 L 663,52 L 663,53 L 665,55 L 664,56 L 663,56 L 662,57 L 658,57 L 657,58 L 657,59 L 655,61 L 655,62 L 656,62 L 657,61 L 658,61 L 659,62 L 660,62 L 661,63 L 660,64 L 656,64 L 656,65 L 655,66 L 653,66 L 652,65 L 653,64 L 653,63 L 652,62 L 649,62 L 649,63 L 650,64 L 650,65 L 651,65 L 653,67 L 652,68 L 647,68 L 646,69 L 642,69 L 641,70 L 641,71 L 642,72 L 641,73 L 635,73 L 635,74 L 634,75 L 637,75 L 639,73 L 640,74 L 645,74 L 646,73 L 647,73 L 648,74 L 651,74 L 652,73 L 653,73 L 654,72 L 655,72 L 657,74 L 657,75 L 656,76 L 653,76 L 652,77 L 651,77 L 650,78 L 649,77 L 648,77 L 647,78 L 645,78 L 644,77 L 640,77 L 639,78 L 634,78 L 633,79 L 635,79 L 636,80 L 635,81 L 635,82 L 636,81 L 638,81 L 639,82 L 639,83 L 640,84 L 641,84 L 642,85 L 641,86 L 638,86 L 637,87 L 635,87 L 634,88 L 633,87 L 633,86 L 632,85 L 632,81 L 631,81 L 631,83 L 628,86 L 626,86 L 625,85 L 626,84 L 627,84 L 625,84 L 624,85 L 623,84 L 621,86 L 622,87 L 623,86 L 624,87 L 629,87 L 630,86 L 631,87 L 631,88 L 630,89 L 625,89 L 624,90 L 621,90 L 620,91 L 618,91 L 617,92 L 615,92 L 614,91 L 613,92 L 614,93 L 615,92 L 616,92 L 617,93 L 617,94 L 616,95 L 613,95 L 612,96 L 615,96 L 616,95 L 618,95 L 621,92 L 624,92 L 625,93 L 625,94 L 623,96 L 622,96 L 621,95 L 619,97 L 619,98 L 621,100 L 624,100 L 625,101 L 624,102 L 620,102 L 619,101 L 617,101 L 616,102 L 615,101 L 615,100 L 616,99 L 617,99 L 614,99 L 612,101 L 613,101 L 614,102 L 613,103 L 610,103 L 606,107 L 611,107 L 612,106 L 613,106 L 614,105 L 615,105 L 616,104 L 618,104 L 619,105 L 617,107 L 622,107 L 623,106 L 624,106 L 624,104 L 625,103 L 627,105 L 627,108 L 626,109 L 624,109 L 624,113 L 623,114 L 622,113 L 622,112 L 621,111 L 621,110 L 620,109 L 617,109 L 615,111 L 614,110 L 614,108 L 612,110 L 609,110 L 609,112 L 608,113 L 607,112 L 607,110 L 606,110 L 606,112 L 603,115 L 601,115 L 600,116 L 593,116 L 594,116 L 596,118 L 599,118 L 600,119 L 599,120 L 597,120 L 598,121 L 597,122 L 596,122 L 595,121 L 595,120 L 594,119 L 594,121 L 593,122 L 592,122 L 591,121 L 589,121 L 590,122 L 589,123 L 588,123 L 588,124 L 589,125 L 590,125 L 591,124 L 592,124 L 593,123 L 595,123 L 596,124 L 595,125 L 594,125 L 593,126 L 592,126 L 591,127 L 588,127 L 587,126 L 585,126 L 586,126 L 587,127 L 587,130 L 586,131 L 588,131 L 589,132 L 588,133 L 587,133 L 586,134 L 587,134 L 588,135 L 587,136 L 583,136 L 581,138 L 580,138 L 579,137 L 579,136 L 578,135 L 578,134 L 574,138 L 574,139 L 575,138 L 577,138 L 578,137 L 579,137 L 580,138 L 578,140 L 577,140 L 576,141 L 576,143 L 580,139 L 582,139 L 583,138 L 584,139 L 584,140 L 586,140 L 588,142 L 588,144 L 587,145 L 584,142 L 583,142 L 582,141 L 581,142 L 580,142 L 579,143 L 579,144 L 578,145 L 578,146 L 579,147 L 580,147 L 582,149 L 581,150 L 580,150 L 579,149 L 578,149 L 577,148 L 576,148 L 575,149 L 575,150 L 576,151 L 576,152 L 578,152 L 579,153 L 580,153 L 581,154 L 581,155 L 582,155 L 583,156 L 585,156 L 586,157 L 588,157 L 589,158 L 597,158 L 599,160 L 601,160 L 602,161 L 603,161 L 604,162 L 604,163 L 605,162 L 605,159 L 606,158 L 606,156 L 607,155 L 607,151 L 608,150 L 608,147 L 609,146 L 609,141 L 608,140 L 608,137 L 609,136 L 610,136 L 612,134 L 614,134 L 615,133 L 621,133 L 622,132 L 622,129 L 621,128 L 621,127 L 626,122 L 627,122 L 627,121 L 628,120 L 628,119 L 631,116 L 632,116 L 634,114 L 635,114 L 635,112 L 636,111 L 637,111 L 637,108 L 635,106 L 635,105 L 633,103 L 633,101 L 634,100 L 635,100 L 636,99 L 638,99 L 639,98 L 639,97 L 640,96 L 640,95 L 642,93 L 642,91 L 643,90 L 643,89 L 645,87 L 646,87 L 648,85 L 652,85 L 653,86 L 657,86 L 658,87 L 663,87 L 664,86 L 664,85 L 665,84 L 665,82 L 664,81 L 664,77 L 663,76 L 663,73 L 664,72 L 671,72 L 673,74 L 674,73 L 676,73 L 677,72 L 679,72 L 681,74 L 684,74 L 685,75 L 686,75 L 687,76 L 692,76 L 693,77 L 694,77 L 695,76 L 695,75 L 696,74 L 695,74 L 693,72 L 693,71 L 694,70 L 695,70 L 697,68 L 697,67 L 699,65 L 699,64 L 698,63 L 698,62 L 697,61 L 697,60 L 696,59 L 693,59 L 692,58 L 689,58 L 685,54 L 682,54 L 681,53 L 682,52 L 683,52 L 682,51 L 679,51 L 678,50 L 678,49 L 677,48 L 677,47 L 676,46 L 676,45 L 675,45 L 674,44 L 675,43 L 674,42 L 676,40 L 677,40 L 679,38 L 678,37 L 676,37 L 675,36 Z" fill="none" stroke="black" stroke-width="1"/>
</svg>