<svg xmlns="http://www.w3.org/2000/svg" width="186" height="167">
  <path d="M 160,139 L 159,140 L 158,140 L 157,141 L 158,142 L 156,144 L 154,144 L 153,143 L 153,142 L 150,142 L 149,143 L 147,143 L 146,144 L 146,145 L 143,148 L 143,149 L 145,149 L 146,150 L 146,151 L 147,151 L 147,149 L 148,148 L 149,149 L 149,150 L 152,150 L 152,149 L 153,148 L 154,149 L 155,149 L 156,150 L 155,151 L 154,151 L 154,152 L 155,152 L 156,151 L 157,151 L 158,152 L 158,154 L 161,154 L 162,153 L 162,151 L 163,150 L 162,149 L 162,146 L 164,144 L 162,142 L 162,140 L 161,139 Z" fill="none" stroke="black" stroke-width="1"/>
</svg>