<svg xmlns="http://www.w3.org/2000/svg" width="392" height="319">
  <path d="M 21,70 L 20,71 L 21,72 L 22,71 Z" fill="none" stroke="black" stroke-width="1"/>
  <path d="M 20,58 L 20,59 L 19,60 L 20,61 L 21,61 L 22,62 L 23,61 L 24,61 L 25,60 L 25,59 L 24,58 Z" fill="none" stroke="black" stroke-width="1"/>
  <path d="M 14,52 L 14,54 L 15,54 L 16,55 L 16,56 L 17,55 L 18,55 L 18,53 L 16,53 L 15,52 Z" fill="none" stroke="black" stroke-width="1"/>
  <path d="M 33,47 L 34,47 Z" fill="none" stroke="black" stroke-width="1"/>
  <path d="M 3,47 L 3,48 L 2,49 L 1,49 L 3,49 L 5,51 L 5,53 L 4,54 L 2,54 L 1,55 L 0,55 L 0,56 L 1,57 L 4,57 L 4,55 L 5,54 L 6,55 L 7,55 L 8,56 L 8,57 L 10,59 L 8,61 L 6,61 L 4,63 L 3,63 L 2,64 L 4,66 L 10,66 L 11,65 L 12,65 L 13,64 L 13,63 L 14,62 L 13,61 L 13,60 L 12,60 L 11,59 L 11,56 L 7,52 L 7,49 L 6,49 L 5,48 L 5,47 Z" fill="none" stroke="black" stroke-width="1"/>
  <path d="M 19,43 L 20,44 L 20,43 Z" fill="none" stroke="black" stroke-width="1"/>
  <path d="M 39,36 L 36,39 L 35,39 L 36,40 L 37,40 L 41,36 Z" fill="none" stroke="black" stroke-width="1"/>
</svg>