<svg xmlns="http://www.w3.org/2000/svg" width="1133" height="465">
  <path d="M 944,232 L 939,237 L 939,238 L 935,242 L 934,242 L 932,244 L 932,245 L 930,247 L 930,253 L 932,255 L 932,256 L 933,257 L 933,258 L 932,259 L 932,261 L 931,262 L 931,263 L 930,264 L 929,264 L 929,266 L 928,267 L 928,271 L 927,272 L 927,273 L 925,275 L 925,276 L 923,278 L 923,279 L 922,280 L 922,285 L 923,286 L 923,287 L 924,287 L 925,288 L 925,289 L 924,290 L 923,290 L 923,292 L 924,293 L 924,294 L 925,294 L 926,295 L 930,295 L 931,294 L 932,294 L 937,289 L 938,289 L 940,287 L 946,287 L 947,288 L 948,288 L 953,293 L 954,293 L 956,295 L 956,296 L 959,299 L 962,299 L 963,298 L 963,296 L 966,293 L 966,290 L 967,289 L 967,284 L 966,283 L 966,281 L 965,282 L 964,281 L 964,278 L 963,277 L 964,276 L 964,273 L 962,271 L 962,260 L 961,259 L 961,257 L 962,256 L 962,254 L 964,252 L 964,251 L 966,249 L 966,248 L 965,248 L 964,247 L 962,247 L 961,246 L 961,244 L 959,244 L 958,243 L 956,243 L 950,237 L 950,236 L 948,236 L 946,234 L 946,232 Z" fill="none" stroke="black" stroke-width="1"/>
</svg>