<svg xmlns="http://www.w3.org/2000/svg" width="753" height="314">
  <path d="M 190,182 L 189,183 L 187,183 L 185,185 L 185,186 L 184,187 L 184,188 L 183,189 L 183,190 L 182,191 L 182,192 L 178,196 L 177,196 L 175,198 L 174,198 L 174,199 L 172,201 L 170,201 L 166,205 L 165,205 L 164,206 L 163,206 L 161,208 L 159,208 L 157,210 L 155,210 L 154,211 L 152,211 L 151,212 L 150,212 L 149,213 L 147,213 L 146,214 L 144,214 L 143,215 L 142,215 L 140,217 L 139,217 L 128,228 L 129,229 L 130,229 L 137,236 L 137,239 L 136,240 L 139,243 L 139,244 L 141,246 L 142,245 L 153,245 L 154,244 L 156,244 L 157,243 L 166,243 L 167,242 L 168,242 L 170,240 L 171,240 L 173,238 L 174,238 L 176,236 L 182,236 L 183,235 L 184,235 L 185,236 L 185,238 L 187,238 L 188,239 L 194,239 L 195,238 L 197,238 L 198,237 L 198,236 L 199,235 L 200,235 L 201,234 L 202,234 L 203,233 L 207,233 L 208,232 L 208,230 L 205,227 L 205,223 L 204,222 L 204,221 L 203,220 L 203,217 L 205,215 L 205,213 L 204,212 L 204,211 L 202,209 L 202,207 L 201,206 L 201,205 L 200,204 L 200,203 L 198,201 L 198,188 L 196,186 L 196,185 L 193,182 Z" fill="none" stroke="black" stroke-width="1"/>
</svg>