<svg xmlns="http://www.w3.org/2000/svg" width="753" height="314">
  <path d="M 228,191 L 228,193 L 227,194 L 227,196 L 229,198 L 229,199 L 230,200 L 230,201 L 231,202 L 231,203 L 232,204 L 232,205 L 233,206 L 233,207 L 234,208 L 234,210 L 235,211 L 236,211 L 238,213 L 239,213 L 240,214 L 241,214 L 242,215 L 243,215 L 244,216 L 245,216 L 246,217 L 248,217 L 249,218 L 250,218 L 252,220 L 253,220 L 268,235 L 268,238 L 269,238 L 270,237 L 272,237 L 274,239 L 274,240 L 284,240 L 285,241 L 290,241 L 291,242 L 292,242 L 293,243 L 296,243 L 298,245 L 300,245 L 301,244 L 303,244 L 304,243 L 306,243 L 307,244 L 312,244 L 313,243 L 316,243 L 315,242 L 314,242 L 312,240 L 311,240 L 310,239 L 309,239 L 308,238 L 307,238 L 306,237 L 305,237 L 302,234 L 302,233 L 300,231 L 300,230 L 299,230 L 297,228 L 297,227 L 295,225 L 295,221 L 293,219 L 293,218 L 292,218 L 291,217 L 290,217 L 289,216 L 288,216 L 286,214 L 285,214 L 280,209 L 280,208 L 275,203 L 275,201 L 274,200 L 274,199 L 273,199 L 272,198 L 270,198 L 269,197 L 267,197 L 266,196 L 263,196 L 262,195 L 253,195 L 252,196 L 243,196 L 242,195 L 239,195 L 238,194 L 236,194 L 235,193 L 234,193 L 233,192 L 232,192 L 231,191 Z" fill="none" stroke="black" stroke-width="1"/>
</svg>