<svg xmlns="http://www.w3.org/2000/svg" width="361" height="306">
  <path d="M 197,84 L 196,85 L 196,87 L 197,88 L 194,91 L 194,92 L 193,93 L 193,107 L 194,108 L 194,112 L 195,113 L 195,116 L 196,117 L 196,119 L 197,120 L 197,121 L 199,123 L 199,124 L 200,125 L 200,126 L 201,125 L 205,125 L 206,124 L 207,124 L 213,118 L 215,118 L 216,117 L 222,117 L 223,116 L 223,111 L 224,110 L 224,109 L 226,107 L 226,106 L 228,104 L 227,103 L 227,102 L 224,99 L 224,94 L 223,93 L 223,90 L 224,89 L 224,87 L 223,86 L 223,85 L 222,85 L 221,84 L 218,84 L 217,85 L 202,85 L 201,84 Z" fill="none" stroke="black" stroke-width="1"/>
</svg>