<svg xmlns="http://www.w3.org/2000/svg" width="361" height="306">
  <path d="M 187,81 L 186,82 L 185,82 L 184,83 L 182,83 L 181,84 L 170,84 L 169,85 L 165,85 L 164,86 L 161,86 L 161,87 L 160,88 L 158,86 L 158,89 L 157,90 L 157,93 L 158,93 L 159,94 L 158,95 L 158,98 L 159,99 L 159,100 L 160,101 L 160,106 L 161,107 L 161,108 L 162,109 L 162,110 L 163,111 L 163,112 L 164,113 L 164,115 L 165,116 L 165,124 L 164,125 L 164,127 L 163,128 L 163,129 L 161,131 L 162,132 L 162,134 L 165,134 L 166,135 L 168,135 L 169,134 L 173,134 L 174,135 L 176,135 L 177,136 L 179,136 L 180,137 L 187,137 L 188,138 L 191,138 L 192,139 L 193,139 L 195,137 L 198,137 L 199,138 L 200,138 L 201,139 L 204,139 L 204,138 L 203,137 L 203,136 L 202,135 L 202,130 L 199,127 L 199,125 L 198,124 L 198,123 L 196,121 L 196,120 L 195,119 L 195,117 L 194,116 L 194,113 L 193,112 L 193,108 L 192,107 L 192,93 L 193,92 L 193,91 L 196,88 L 195,87 L 195,85 L 196,84 L 195,83 L 194,83 L 192,81 Z" fill="none" stroke="black" stroke-width="1"/>
</svg>