<svg xmlns="http://www.w3.org/2000/svg" width="361" height="306">
  <path d="M 162,135 L 160,137 L 159,137 L 158,138 L 158,139 L 157,140 L 157,148 L 159,150 L 156,153 L 155,152 L 155,153 L 156,154 L 156,156 L 155,157 L 157,159 L 157,161 L 158,162 L 158,163 L 160,165 L 160,166 L 164,170 L 172,170 L 173,171 L 173,172 L 178,172 L 179,171 L 182,171 L 182,169 L 183,168 L 183,164 L 182,163 L 183,162 L 185,162 L 187,160 L 188,160 L 190,158 L 191,158 L 198,151 L 199,151 L 200,150 L 201,150 L 202,149 L 203,149 L 204,148 L 204,146 L 203,145 L 203,144 L 205,142 L 205,141 L 204,140 L 201,140 L 200,139 L 199,139 L 198,138 L 195,138 L 193,140 L 192,140 L 191,139 L 188,139 L 187,138 L 180,138 L 179,137 L 177,137 L 176,136 L 174,136 L 173,135 L 169,135 L 168,136 L 166,136 L 165,135 Z" fill="none" stroke="black" stroke-width="1"/>
</svg>