<svg xmlns="http://www.w3.org/2000/svg" width="169" height="255">
  <path d="M 129,5 L 129,7 L 126,10 L 124,10 L 122,8 L 121,9 L 120,9 L 120,10 L 119,11 L 118,11 L 118,13 L 117,14 L 117,15 L 116,16 L 115,16 L 111,20 L 109,20 L 108,21 L 105,21 L 104,22 L 102,22 L 102,24 L 100,26 L 100,27 L 103,30 L 105,30 L 106,31 L 106,32 L 107,32 L 108,33 L 108,34 L 109,34 L 110,33 L 111,33 L 112,34 L 123,23 L 127,23 L 127,22 L 128,21 L 128,20 L 129,19 L 129,17 L 132,14 L 133,14 L 135,12 L 135,11 L 136,10 L 136,8 L 137,7 L 137,5 Z" fill="none" stroke="black" stroke-width="1"/>
</svg>