<svg xmlns="http://www.w3.org/2000/svg" width="776" height="467">
  <path d="M 338,387 L 335,390 L 334,390 L 333,391 L 331,391 L 326,396 L 325,396 L 324,397 L 320,397 L 319,398 L 318,398 L 317,399 L 316,399 L 316,401 L 315,402 L 315,404 L 314,405 L 316,405 L 317,406 L 319,406 L 320,405 L 329,405 L 330,406 L 331,406 L 336,401 L 340,401 L 340,399 L 341,398 L 342,398 L 345,395 L 345,392 L 346,391 L 346,389 L 343,389 L 342,388 L 341,388 L 340,387 Z" fill="none" stroke="black" stroke-width="1"/>
</svg>