<svg xmlns="http://www.w3.org/2000/svg" width="217" height="184">
  <path d="M 153,57 L 153,58 L 155,60 L 155,67 L 156,68 L 156,71 L 155,72 L 157,74 L 157,80 L 159,80 L 159,79 L 160,78 L 160,77 L 161,76 L 162,76 L 162,73 L 165,70 L 166,70 L 168,72 L 168,73 L 168,70 L 167,69 L 167,68 L 168,67 L 170,69 L 170,68 L 171,67 L 173,67 L 174,68 L 173,69 L 173,70 L 174,69 L 174,68 L 175,67 L 176,67 L 177,68 L 178,68 L 179,67 L 179,66 L 180,65 L 180,62 L 181,61 L 181,60 L 179,60 L 176,57 L 171,57 L 170,58 L 167,58 L 166,59 L 166,60 L 165,61 L 164,61 L 163,60 L 157,60 L 154,57 Z" fill="none" stroke="black" stroke-width="1"/>
</svg>