<svg xmlns="http://www.w3.org/2000/svg" width="259" height="209">
  <path d="M 37,144 L 34,147 L 33,147 L 33,148 L 32,149 L 32,155 L 31,156 L 31,158 L 33,160 L 33,161 L 32,162 L 33,162 L 35,164 L 35,167 L 36,168 L 36,174 L 39,174 L 40,175 L 41,175 L 43,177 L 46,177 L 47,176 L 48,176 L 49,177 L 52,177 L 53,178 L 60,178 L 62,180 L 63,180 L 64,181 L 64,180 L 63,179 L 64,178 L 64,173 L 63,172 L 63,171 L 61,171 L 53,163 L 53,162 L 52,162 L 51,161 L 51,160 L 49,158 L 49,157 L 47,155 L 47,152 L 48,151 L 48,150 L 49,149 L 49,145 L 45,145 L 44,144 Z" fill="none" stroke="black" stroke-width="1"/>
</svg>