<svg xmlns="http://www.w3.org/2000/svg" width="776" height="467">
  <path d="M 106,355 L 106,356 L 110,356 L 109,355 Z" fill="none" stroke="black" stroke-width="1"/>
  <path d="M 64,312 L 64,313 L 65,313 L 66,314 L 66,313 L 65,312 Z" fill="none" stroke="black" stroke-width="1"/>
  <path d="M 69,300 L 68,301 L 67,301 L 65,303 L 65,304 L 66,304 L 67,305 L 68,305 L 69,306 L 68,307 L 68,308 L 69,309 L 69,310 L 70,310 L 69,309 L 69,308 L 70,307 L 70,306 L 68,304 L 68,303 L 69,302 L 70,302 L 71,303 L 71,304 L 73,306 L 73,308 L 72,309 L 73,309 L 74,310 L 74,313 L 73,314 L 73,318 L 72,319 L 72,320 L 71,321 L 70,321 L 69,322 L 68,322 L 67,321 L 67,320 L 65,322 L 63,320 L 63,319 L 64,318 L 66,318 L 67,317 L 69,317 L 69,316 L 68,316 L 67,317 L 65,317 L 64,318 L 63,318 L 63,324 L 65,326 L 65,327 L 67,329 L 68,329 L 69,330 L 69,331 L 70,331 L 71,330 L 73,330 L 74,331 L 75,331 L 76,332 L 78,332 L 79,333 L 81,333 L 83,335 L 84,334 L 85,335 L 92,335 L 93,334 L 94,334 L 95,335 L 95,336 L 96,335 L 98,335 L 99,336 L 99,337 L 101,339 L 101,342 L 102,343 L 102,344 L 103,345 L 103,347 L 107,351 L 108,351 L 109,352 L 114,352 L 115,351 L 123,351 L 124,350 L 125,350 L 126,349 L 127,349 L 128,348 L 135,348 L 136,349 L 137,349 L 135,347 L 135,346 L 134,345 L 134,344 L 130,340 L 130,339 L 128,337 L 128,327 L 129,326 L 129,324 L 125,320 L 125,319 L 123,319 L 122,318 L 122,317 L 121,317 L 120,316 L 118,316 L 117,315 L 115,315 L 114,314 L 113,314 L 112,313 L 111,313 L 110,312 L 109,312 L 108,311 L 107,311 L 106,310 L 104,310 L 103,309 L 101,309 L 100,308 L 99,308 L 98,307 L 96,307 L 95,306 L 93,306 L 92,305 L 90,305 L 89,304 L 87,304 L 86,303 L 78,303 L 77,302 L 75,302 L 74,301 L 73,301 L 72,300 Z" fill="none" stroke="black" stroke-width="1"/>
</svg>