<svg xmlns="http://www.w3.org/2000/svg" width="753" height="314">
  <path d="M 387,250 L 385,252 L 384,252 L 384,254 L 383,255 L 382,255 L 383,255 L 384,256 L 384,258 L 385,259 L 384,260 L 384,262 L 383,263 L 383,264 L 382,265 L 382,267 L 380,269 L 380,270 L 377,273 L 376,273 L 375,274 L 374,274 L 372,276 L 372,278 L 373,279 L 373,280 L 375,282 L 375,283 L 376,284 L 376,285 L 377,286 L 377,287 L 380,287 L 384,291 L 384,292 L 393,301 L 393,305 L 395,307 L 395,308 L 399,312 L 399,313 L 400,313 L 400,311 L 402,309 L 402,306 L 403,305 L 403,302 L 404,301 L 404,298 L 405,297 L 405,294 L 407,292 L 407,291 L 408,290 L 408,289 L 409,288 L 409,285 L 411,283 L 410,282 L 410,281 L 409,280 L 409,279 L 407,277 L 407,276 L 408,275 L 408,273 L 406,271 L 406,269 L 408,267 L 409,267 L 410,266 L 411,266 L 411,265 L 412,264 L 410,262 L 410,260 L 411,259 L 408,256 L 408,253 L 409,252 L 403,252 L 402,251 L 394,251 L 393,250 Z" fill="none" stroke="black" stroke-width="1"/>
</svg>