<svg xmlns="http://www.w3.org/2000/svg" width="753" height="314">
  <path d="M 159,108 L 158,109 L 157,109 L 155,111 L 153,111 L 154,112 L 154,114 L 153,115 L 153,116 L 147,122 L 147,123 L 146,124 L 145,124 L 143,126 L 142,126 L 140,128 L 139,128 L 136,131 L 135,131 L 134,132 L 126,132 L 124,134 L 122,134 L 121,135 L 120,135 L 119,136 L 116,136 L 114,138 L 112,138 L 111,139 L 109,139 L 107,141 L 107,142 L 115,142 L 116,143 L 117,143 L 118,144 L 119,144 L 120,145 L 124,145 L 125,146 L 128,146 L 129,147 L 131,147 L 132,148 L 133,148 L 137,152 L 138,152 L 142,156 L 142,157 L 148,163 L 148,164 L 152,168 L 153,167 L 156,167 L 157,168 L 166,168 L 167,169 L 168,169 L 171,172 L 172,172 L 174,174 L 175,174 L 176,175 L 177,175 L 178,176 L 179,176 L 180,177 L 181,177 L 182,178 L 183,178 L 184,179 L 186,179 L 187,180 L 189,180 L 190,181 L 193,181 L 196,184 L 197,183 L 197,179 L 196,178 L 196,177 L 193,174 L 193,170 L 194,169 L 194,168 L 196,166 L 196,165 L 197,164 L 197,162 L 198,161 L 198,158 L 199,157 L 199,154 L 198,153 L 198,151 L 196,149 L 196,148 L 193,145 L 193,144 L 194,143 L 195,143 L 195,138 L 193,136 L 193,135 L 192,134 L 192,133 L 184,125 L 182,125 L 181,124 L 181,123 L 171,113 L 171,112 L 170,112 L 168,110 L 167,110 L 166,109 L 165,109 L 164,108 L 162,108 L 161,109 L 160,109 Z" fill="none" stroke="black" stroke-width="1"/>
</svg>