<svg xmlns="http://www.w3.org/2000/svg" width="753" height="314">
  <path d="M 62,131 L 61,132 L 61,133 L 60,134 L 60,149 L 62,151 L 62,153 L 58,157 L 58,158 L 57,159 L 57,160 L 56,161 L 56,162 L 60,162 L 62,164 L 63,164 L 64,165 L 64,166 L 63,167 L 64,167 L 65,168 L 67,168 L 68,169 L 68,170 L 67,171 L 68,172 L 68,176 L 71,176 L 74,179 L 75,179 L 76,180 L 76,182 L 77,183 L 79,183 L 80,184 L 80,185 L 85,190 L 87,190 L 88,191 L 90,191 L 91,192 L 91,194 L 93,194 L 94,195 L 98,195 L 99,194 L 99,190 L 100,189 L 101,189 L 101,188 L 102,187 L 112,187 L 113,186 L 118,186 L 119,185 L 120,185 L 121,184 L 122,184 L 124,182 L 125,182 L 126,181 L 127,181 L 132,176 L 133,176 L 136,173 L 139,173 L 141,171 L 147,171 L 148,170 L 149,170 L 150,169 L 151,169 L 151,168 L 147,164 L 147,163 L 141,157 L 141,156 L 138,153 L 137,153 L 133,149 L 132,149 L 131,148 L 129,148 L 128,147 L 125,147 L 124,146 L 120,146 L 119,145 L 118,145 L 117,144 L 116,144 L 115,143 L 104,143 L 102,141 L 99,141 L 98,140 L 95,140 L 94,139 L 90,139 L 85,134 L 82,134 L 81,133 L 81,134 L 79,136 L 77,134 L 76,134 L 73,131 L 67,131 L 66,132 L 64,132 L 63,131 Z" fill="none" stroke="black" stroke-width="1"/>
</svg>