<svg xmlns="http://www.w3.org/2000/svg" width="1133" height="465">
  <path d="M 967,346 L 965,348 L 964,348 L 963,349 L 962,349 L 961,350 L 960,350 L 958,352 L 957,352 L 956,353 L 955,353 L 954,354 L 949,354 L 948,355 L 948,357 L 950,359 L 950,361 L 952,363 L 952,370 L 950,372 L 950,373 L 947,376 L 947,378 L 946,379 L 946,385 L 952,391 L 952,392 L 953,393 L 953,394 L 954,395 L 956,395 L 957,396 L 959,396 L 960,395 L 961,395 L 962,394 L 970,394 L 971,393 L 974,393 L 975,392 L 976,392 L 977,391 L 978,391 L 982,387 L 982,386 L 985,383 L 988,383 L 988,380 L 989,379 L 989,377 L 990,376 L 990,375 L 991,374 L 991,370 L 990,369 L 990,368 L 986,364 L 985,364 L 980,359 L 980,358 L 978,356 L 978,355 L 977,354 L 977,353 L 976,352 L 976,351 L 974,349 L 974,348 L 972,346 Z" fill="none" stroke="black" stroke-width="1"/>
</svg>