<svg xmlns="http://www.w3.org/2000/svg" width="1133" height="465">
  <path d="M 1034,371 L 1031,374 L 1031,380 L 1030,381 L 1030,382 L 1029,383 L 1028,383 L 1026,385 L 1022,385 L 1021,386 L 1019,384 L 1018,384 L 1018,385 L 1017,386 L 1016,386 L 1016,387 L 1012,391 L 1012,392 L 1010,394 L 1010,395 L 1008,397 L 1008,398 L 1007,399 L 1007,400 L 1006,401 L 1006,402 L 1005,403 L 1005,404 L 1002,407 L 1001,407 L 998,410 L 1002,414 L 1002,417 L 1001,418 L 1001,419 L 1000,420 L 1000,421 L 997,424 L 996,424 L 998,424 L 1001,427 L 1002,427 L 1003,428 L 1003,429 L 1005,429 L 1006,428 L 1010,428 L 1011,427 L 1013,427 L 1014,426 L 1015,426 L 1016,425 L 1017,425 L 1018,424 L 1019,424 L 1021,422 L 1026,422 L 1026,421 L 1028,419 L 1029,419 L 1031,417 L 1036,417 L 1039,420 L 1040,420 L 1041,419 L 1042,419 L 1043,418 L 1045,418 L 1046,417 L 1048,417 L 1049,416 L 1051,416 L 1053,418 L 1054,418 L 1055,419 L 1060,419 L 1061,420 L 1063,420 L 1064,419 L 1064,418 L 1065,417 L 1066,417 L 1067,418 L 1068,418 L 1068,417 L 1069,416 L 1069,414 L 1068,413 L 1068,411 L 1067,410 L 1068,409 L 1068,407 L 1065,404 L 1064,404 L 1063,403 L 1063,396 L 1062,395 L 1062,394 L 1061,393 L 1061,391 L 1060,390 L 1060,389 L 1059,389 L 1058,388 L 1058,385 L 1047,385 L 1045,383 L 1044,383 L 1036,375 L 1036,374 L 1035,373 L 1035,372 Z" fill="none" stroke="black" stroke-width="1"/>
</svg>