<svg xmlns="http://www.w3.org/2000/svg" width="186" height="167">
  <path d="M 146,96 L 146,97 L 145,98 L 145,101 L 144,102 L 143,102 L 143,103 L 141,105 L 141,106 L 142,107 L 141,108 L 142,109 L 142,110 L 144,112 L 144,113 L 145,114 L 145,116 L 144,117 L 145,118 L 147,118 L 149,116 L 150,116 L 151,117 L 151,118 L 153,118 L 153,114 L 155,112 L 156,112 L 156,111 L 157,110 L 157,109 L 156,108 L 154,108 L 153,107 L 153,106 L 151,104 L 151,103 L 150,102 L 150,100 L 151,99 L 151,98 L 148,98 Z" fill="none" stroke="black" stroke-width="1"/>
</svg>