<svg xmlns="http://www.w3.org/2000/svg" width="304" height="349">
  <path d="M 23,70 L 20,73 L 20,75 L 21,76 L 21,77 L 23,79 L 23,80 L 24,81 L 23,82 L 25,84 L 26,84 L 28,86 L 30,86 L 29,86 L 28,85 L 28,82 L 30,80 L 33,80 L 34,79 L 35,79 L 36,78 L 37,78 L 38,79 L 38,80 L 41,80 L 42,79 L 43,79 L 44,80 L 45,80 L 48,83 L 48,84 L 49,83 L 50,83 L 52,81 L 53,81 L 54,80 L 54,79 L 55,78 L 53,76 L 53,73 L 52,72 L 51,72 L 50,73 L 49,73 L 48,72 L 48,70 L 47,71 L 46,71 L 45,70 L 44,71 L 40,71 L 38,73 L 32,73 L 31,72 L 27,72 L 25,70 Z" fill="none" stroke="black" stroke-width="1"/>
</svg>