<svg xmlns="http://www.w3.org/2000/svg" width="1133" height="465">
  <path d="M 705,187 L 705,190 L 704,191 L 704,194 L 706,196 L 706,197 L 707,198 L 706,199 L 706,200 L 707,201 L 709,201 L 710,202 L 713,202 L 714,203 L 714,204 L 712,206 L 711,206 L 713,208 L 716,208 L 717,209 L 716,210 L 713,210 L 716,210 L 717,211 L 718,211 L 719,212 L 719,213 L 718,214 L 717,213 L 717,215 L 718,216 L 719,215 L 720,215 L 721,216 L 720,217 L 720,218 L 721,218 L 723,220 L 723,221 L 724,221 L 725,222 L 726,222 L 728,224 L 728,225 L 729,226 L 729,227 L 732,230 L 733,230 L 734,229 L 735,230 L 735,233 L 736,234 L 736,231 L 735,230 L 735,228 L 734,227 L 733,227 L 732,228 L 731,227 L 731,226 L 732,225 L 732,224 L 730,226 L 729,225 L 729,223 L 728,222 L 727,222 L 726,221 L 727,220 L 728,220 L 729,219 L 729,218 L 727,218 L 727,220 L 726,221 L 725,220 L 725,219 L 723,217 L 723,216 L 721,214 L 722,213 L 723,213 L 724,214 L 726,214 L 726,212 L 725,212 L 724,211 L 725,210 L 726,210 L 723,207 L 722,207 L 721,206 L 721,205 L 722,204 L 722,203 L 721,202 L 721,200 L 722,199 L 721,198 L 722,197 L 722,194 L 725,191 L 725,189 L 726,188 L 725,188 L 724,189 L 723,189 L 722,190 L 720,190 L 720,194 L 719,195 L 719,196 L 717,198 L 716,198 L 715,199 L 713,199 L 712,198 L 711,198 L 710,197 L 711,196 L 714,196 L 715,195 L 716,195 L 717,194 L 717,193 L 718,192 L 718,190 L 716,188 L 715,188 L 711,192 L 710,191 L 710,190 L 711,189 L 711,188 L 707,188 L 706,187 Z" fill="none" stroke="black" stroke-width="1"/>
</svg>