<svg xmlns="http://www.w3.org/2000/svg" width="217" height="184">
  <path d="M 84,109 L 84,110 L 83,111 L 83,112 L 82,113 L 82,114 L 80,116 L 80,117 L 79,118 L 78,118 L 78,119 L 77,120 L 77,122 L 76,123 L 76,124 L 73,127 L 72,127 L 72,128 L 73,129 L 73,130 L 72,131 L 72,133 L 74,133 L 75,132 L 76,132 L 76,131 L 78,129 L 78,128 L 80,126 L 81,126 L 82,125 L 88,125 L 88,124 L 89,123 L 90,123 L 90,121 L 91,120 L 91,118 L 90,117 L 89,117 L 87,115 L 87,114 L 86,113 L 86,112 L 85,111 L 85,109 Z" fill="none" stroke="black" stroke-width="1"/>
</svg>