<svg xmlns="http://www.w3.org/2000/svg" width="340" height="393">
  <path d="M 297,242 L 297,243 L 293,247 L 293,248 L 292,249 L 292,250 L 291,251 L 291,252 L 287,256 L 287,257 L 286,258 L 286,259 L 285,260 L 285,262 L 284,263 L 284,267 L 287,267 L 288,268 L 291,268 L 292,267 L 294,267 L 296,269 L 296,273 L 297,274 L 297,278 L 298,279 L 298,281 L 300,281 L 301,280 L 305,280 L 306,279 L 306,278 L 307,277 L 307,276 L 310,273 L 310,272 L 312,270 L 312,269 L 313,268 L 313,267 L 314,266 L 314,262 L 318,258 L 319,258 L 319,256 L 320,255 L 319,255 L 318,254 L 317,254 L 316,253 L 315,253 L 314,252 L 314,251 L 310,251 L 309,250 L 308,250 L 305,247 L 304,247 L 302,245 L 301,245 L 298,242 Z" fill="none" stroke="black" stroke-width="1"/>
</svg>