<svg xmlns="http://www.w3.org/2000/svg" width="588" height="448">
  <path d="M 535,421 L 534,422 L 533,422 L 534,422 L 535,423 L 541,423 L 542,424 L 541,425 L 543,425 L 544,424 L 546,424 L 547,425 L 548,425 L 550,427 L 549,428 L 548,428 L 555,428 L 557,430 L 560,430 L 562,432 L 563,432 L 564,433 L 564,434 L 566,434 L 567,435 L 571,435 L 572,436 L 572,437 L 576,441 L 576,442 L 577,443 L 577,444 L 578,444 L 579,445 L 580,445 L 581,446 L 581,447 L 582,446 L 585,446 L 583,446 L 582,445 L 583,444 L 587,444 L 587,443 L 586,443 L 585,442 L 585,440 L 584,439 L 585,438 L 582,438 L 581,437 L 581,436 L 582,435 L 581,435 L 577,431 L 577,430 L 576,430 L 575,429 L 574,429 L 576,431 L 575,432 L 574,432 L 573,431 L 572,431 L 571,430 L 571,428 L 570,428 L 568,430 L 566,428 L 567,427 L 568,427 L 569,426 L 568,426 L 567,427 L 566,427 L 565,426 L 566,425 L 566,424 L 559,424 L 558,423 L 557,423 L 556,424 L 555,423 L 554,424 L 552,422 L 551,423 L 547,423 L 546,422 L 544,422 L 543,421 L 542,421 L 541,422 L 540,421 L 539,422 L 537,422 L 536,421 Z" fill="none" stroke="black" stroke-width="1"/>
</svg>