<svg xmlns="http://www.w3.org/2000/svg" width="186" height="167">
  <path d="M 158,106 L 157,107 L 157,108 L 158,109 L 158,110 L 157,111 L 157,112 L 156,113 L 155,113 L 154,114 L 154,118 L 153,119 L 152,119 L 152,124 L 151,125 L 151,129 L 152,129 L 154,131 L 155,131 L 156,132 L 159,132 L 160,131 L 161,131 L 162,130 L 163,130 L 164,131 L 165,131 L 166,130 L 166,129 L 167,128 L 169,128 L 172,125 L 171,124 L 171,123 L 170,122 L 170,120 L 171,119 L 169,119 L 168,118 L 168,117 L 169,116 L 169,115 L 168,114 L 164,114 L 162,112 L 162,111 L 161,110 L 161,108 L 159,106 Z" fill="none" stroke="black" stroke-width="1"/>
</svg>