<svg xmlns="http://www.w3.org/2000/svg" width="150" height="272">
  <path d="M 80,178 L 80,180 L 79,181 L 75,181 L 74,182 L 74,184 L 73,185 L 72,185 L 72,187 L 70,189 L 70,190 L 71,191 L 71,195 L 69,197 L 70,198 L 70,199 L 71,199 L 73,201 L 73,203 L 75,203 L 76,202 L 76,197 L 77,196 L 78,196 L 79,195 L 79,194 L 80,193 L 81,194 L 86,194 L 88,192 L 89,192 L 89,191 L 90,190 L 90,189 L 91,188 L 91,187 L 89,187 L 88,186 L 88,185 L 89,184 L 89,183 L 86,183 L 83,180 L 83,179 L 82,179 L 81,178 Z" fill="none" stroke="black" stroke-width="1"/>
</svg>