<svg xmlns="http://www.w3.org/2000/svg" width="150" height="272">
  <path d="M 37,164 L 37,165 L 36,166 L 35,166 L 35,171 L 34,172 L 34,173 L 35,174 L 35,177 L 36,178 L 36,181 L 37,182 L 37,183 L 38,184 L 38,187 L 39,188 L 39,189 L 41,189 L 42,190 L 43,190 L 44,191 L 45,191 L 46,190 L 47,190 L 47,189 L 49,187 L 51,187 L 52,186 L 53,186 L 54,185 L 54,183 L 51,183 L 48,180 L 48,179 L 49,178 L 49,176 L 48,175 L 48,171 L 47,170 L 47,169 L 46,169 L 45,168 L 44,168 L 43,169 L 42,169 L 41,168 L 41,166 L 40,165 L 38,165 Z" fill="none" stroke="black" stroke-width="1"/>
</svg>