<svg xmlns="http://www.w3.org/2000/svg" width="150" height="272">
  <path d="M 41,143 L 40,144 L 36,144 L 35,145 L 34,145 L 33,146 L 30,146 L 29,147 L 26,147 L 26,150 L 25,151 L 25,154 L 28,154 L 29,155 L 31,155 L 32,154 L 34,154 L 35,155 L 35,157 L 36,158 L 36,160 L 37,161 L 37,163 L 38,164 L 40,164 L 42,166 L 42,168 L 43,168 L 44,167 L 45,167 L 46,168 L 47,168 L 47,167 L 48,166 L 48,164 L 46,164 L 45,163 L 45,159 L 46,158 L 47,158 L 50,155 L 50,152 L 49,151 L 49,148 L 50,147 L 52,147 L 52,146 L 51,146 L 50,145 L 48,145 L 47,146 L 45,146 L 44,145 L 44,144 L 43,143 Z" fill="none" stroke="black" stroke-width="1"/>
</svg>