<svg xmlns="http://www.w3.org/2000/svg" width="194" height="180">
  <path d="M 116,142 L 115,143 L 114,143 L 114,150 L 113,151 L 110,151 L 110,152 L 111,153 L 111,155 L 110,156 L 109,156 L 107,158 L 107,160 L 106,161 L 106,162 L 107,163 L 107,166 L 106,167 L 106,169 L 105,170 L 105,171 L 107,173 L 108,173 L 108,172 L 110,170 L 113,170 L 114,171 L 115,171 L 116,170 L 119,170 L 120,169 L 121,169 L 122,170 L 125,170 L 125,169 L 126,168 L 127,168 L 127,167 L 126,166 L 126,165 L 122,161 L 122,160 L 123,159 L 123,158 L 124,157 L 124,156 L 122,154 L 122,153 L 119,150 L 119,148 L 120,147 L 120,146 L 121,145 L 121,144 L 120,143 L 118,143 L 117,142 Z" fill="none" stroke="black" stroke-width="1"/>
</svg>