<svg xmlns="http://www.w3.org/2000/svg" width="150" height="272">
  <path d="M 111,100 L 108,103 L 107,103 L 105,105 L 104,104 L 103,104 L 102,105 L 101,105 L 101,110 L 100,111 L 99,111 L 97,113 L 97,115 L 98,116 L 99,116 L 100,115 L 101,115 L 102,114 L 103,114 L 105,116 L 105,117 L 107,117 L 108,116 L 109,116 L 111,118 L 112,117 L 114,117 L 116,115 L 119,115 L 119,114 L 121,112 L 122,112 L 122,110 L 123,109 L 123,107 L 122,106 L 120,106 L 119,107 L 118,106 L 118,105 L 117,105 L 114,102 L 114,100 Z" fill="none" stroke="black" stroke-width="1"/>
</svg>