<svg xmlns="http://www.w3.org/2000/svg" width="254" height="186">
  <path d="M 105,101 L 105,102 L 103,104 L 102,104 L 101,103 L 99,103 L 98,104 L 97,104 L 97,107 L 100,107 L 102,109 L 102,111 L 103,112 L 103,115 L 105,117 L 105,118 L 104,119 L 104,121 L 105,122 L 108,122 L 109,121 L 111,121 L 112,120 L 114,120 L 116,118 L 117,118 L 118,117 L 118,115 L 120,113 L 120,112 L 119,112 L 117,110 L 116,110 L 115,109 L 115,108 L 114,108 L 111,105 L 110,105 L 109,104 L 109,103 L 108,102 L 108,101 Z" fill="none" stroke="black" stroke-width="1"/>
</svg>