<svg xmlns="http://www.w3.org/2000/svg" width="254" height="186">
  <path d="M 159,100 L 158,101 L 159,102 L 159,103 L 160,104 L 160,105 L 161,106 L 161,110 L 160,111 L 160,114 L 161,114 L 162,113 L 162,110 L 163,109 L 163,107 L 160,104 L 160,100 Z" fill="none" stroke="black" stroke-width="1"/>
  <path d="M 133,98 L 133,101 L 135,103 L 135,104 L 136,105 L 136,106 L 137,107 L 137,108 L 138,109 L 138,111 L 139,112 L 139,115 L 140,116 L 140,119 L 141,118 L 141,113 L 142,112 L 142,111 L 143,110 L 144,111 L 144,114 L 143,115 L 143,119 L 144,118 L 145,118 L 146,117 L 147,117 L 147,108 L 149,106 L 150,107 L 150,108 L 149,109 L 149,114 L 152,111 L 153,111 L 154,112 L 150,116 L 152,118 L 153,117 L 154,117 L 154,115 L 155,114 L 155,113 L 156,112 L 157,112 L 157,109 L 158,108 L 158,106 L 157,105 L 157,104 L 155,102 L 155,100 L 157,98 L 154,98 L 153,99 L 152,99 L 151,100 L 151,101 L 150,102 L 147,102 L 146,101 L 143,101 L 141,99 L 134,99 Z" fill="none" stroke="black" stroke-width="1"/>
</svg>