<svg xmlns="http://www.w3.org/2000/svg" width="254" height="186">
  <path d="M 226,0 L 226,1 L 225,2 L 225,7 L 223,9 L 222,9 L 222,12 L 221,13 L 221,16 L 222,17 L 228,17 L 230,19 L 230,20 L 228,22 L 228,26 L 229,27 L 229,29 L 230,30 L 232,28 L 233,28 L 236,31 L 236,32 L 237,32 L 239,30 L 239,28 L 242,25 L 243,25 L 244,24 L 245,24 L 246,23 L 247,23 L 250,20 L 253,20 L 252,20 L 251,19 L 251,18 L 250,17 L 250,15 L 252,13 L 252,12 L 251,11 L 250,12 L 247,12 L 246,11 L 245,11 L 244,10 L 244,9 L 243,8 L 243,6 L 242,5 L 239,5 L 237,7 L 235,7 L 234,6 L 233,6 L 228,1 L 228,0 Z" fill="none" stroke="black" stroke-width="1"/>
</svg>