<svg xmlns="http://www.w3.org/2000/svg" width="186" height="167">
  <path d="M 172,102 L 171,103 L 170,103 L 169,104 L 168,104 L 167,103 L 166,104 L 163,104 L 162,105 L 162,110 L 163,111 L 163,112 L 164,113 L 168,113 L 170,115 L 171,114 L 172,114 L 173,115 L 174,115 L 175,114 L 177,114 L 178,113 L 180,113 L 181,112 L 182,112 L 183,113 L 185,113 L 185,112 L 184,111 L 184,110 L 183,109 L 181,109 L 180,108 L 178,108 L 176,106 L 177,105 L 174,102 Z" fill="none" stroke="black" stroke-width="1"/>
</svg>