<svg xmlns="http://www.w3.org/2000/svg" width="254" height="186">
  <path d="M 155,31 L 154,32 L 153,32 L 152,33 L 151,33 L 150,32 L 147,32 L 147,38 L 148,39 L 148,45 L 149,46 L 149,47 L 151,47 L 152,46 L 155,46 L 156,47 L 158,47 L 159,46 L 160,46 L 161,45 L 162,45 L 163,46 L 164,46 L 165,47 L 171,47 L 172,48 L 177,48 L 177,45 L 176,45 L 175,44 L 174,44 L 173,43 L 173,42 L 172,41 L 169,41 L 168,40 L 168,39 L 167,38 L 167,31 L 165,31 L 163,33 L 158,33 L 156,31 Z" fill="none" stroke="black" stroke-width="1"/>
</svg>