<svg xmlns="http://www.w3.org/2000/svg" width="296" height="251">
  <path d="M 254,171 L 253,172 L 252,172 L 252,176 L 251,177 L 250,177 L 250,178 L 251,179 L 251,182 L 250,183 L 247,183 L 249,185 L 249,186 L 250,186 L 251,187 L 252,187 L 253,188 L 258,188 L 259,189 L 262,189 L 263,190 L 267,190 L 267,184 L 270,181 L 270,180 L 273,177 L 273,176 L 274,175 L 274,173 L 275,172 L 273,172 L 272,173 L 270,173 L 269,174 L 263,174 L 262,173 L 261,173 L 259,171 Z" fill="none" stroke="black" stroke-width="1"/>
</svg>