<svg xmlns="http://www.w3.org/2000/svg" width="254" height="186">
  <path d="M 47,152 L 46,153 L 43,153 L 43,154 L 41,156 L 40,156 L 39,157 L 38,157 L 38,158 L 37,159 L 37,162 L 35,164 L 35,165 L 34,166 L 32,166 L 31,165 L 31,167 L 29,169 L 28,169 L 28,170 L 27,171 L 26,171 L 26,173 L 21,178 L 19,178 L 20,179 L 20,181 L 26,181 L 29,178 L 31,178 L 32,179 L 35,179 L 36,178 L 37,178 L 37,177 L 40,174 L 41,174 L 42,173 L 42,172 L 44,170 L 45,170 L 45,166 L 48,163 L 49,163 L 50,162 L 50,161 L 52,159 L 52,157 L 51,156 L 51,154 L 50,153 L 49,153 L 48,152 Z" fill="none" stroke="black" stroke-width="1"/>
</svg>