<svg xmlns="http://www.w3.org/2000/svg" width="254" height="186">
  <path d="M 68,122 L 66,124 L 64,124 L 63,125 L 63,127 L 62,128 L 62,131 L 63,132 L 63,133 L 62,134 L 60,134 L 59,135 L 59,137 L 60,138 L 60,139 L 61,140 L 62,140 L 65,143 L 65,144 L 66,144 L 67,143 L 69,145 L 70,145 L 71,146 L 71,147 L 74,147 L 74,146 L 75,145 L 76,146 L 78,146 L 79,145 L 81,145 L 81,141 L 83,139 L 84,140 L 86,140 L 86,139 L 85,138 L 85,137 L 86,136 L 87,136 L 88,135 L 88,134 L 85,131 L 85,130 L 84,130 L 83,129 L 82,129 L 81,130 L 79,130 L 77,128 L 76,128 L 73,125 L 73,124 L 72,124 L 71,123 L 69,123 Z" fill="none" stroke="black" stroke-width="1"/>
</svg>