<svg xmlns="http://www.w3.org/2000/svg" width="150" height="272">
  <path d="M 121,63 L 120,64 L 119,64 L 116,67 L 104,67 L 103,68 L 102,68 L 100,70 L 99,70 L 98,71 L 97,71 L 97,72 L 96,73 L 96,76 L 95,77 L 97,77 L 98,78 L 101,78 L 102,79 L 103,78 L 106,78 L 108,80 L 108,82 L 109,83 L 113,83 L 115,85 L 114,86 L 114,87 L 113,88 L 112,88 L 112,91 L 113,92 L 113,95 L 114,96 L 114,99 L 115,100 L 115,102 L 117,104 L 118,104 L 119,105 L 119,106 L 119,104 L 120,103 L 120,91 L 123,88 L 125,88 L 126,87 L 126,83 L 124,81 L 124,74 L 125,73 L 125,72 L 127,70 L 127,66 L 126,65 L 126,64 L 125,64 L 124,63 Z" fill="none" stroke="black" stroke-width="1"/>
</svg>