<svg xmlns="http://www.w3.org/2000/svg" width="194" height="180">
  <path d="M 62,117 L 61,118 L 60,118 L 60,122 L 59,123 L 58,123 L 57,124 L 57,125 L 56,126 L 56,127 L 55,128 L 55,129 L 54,130 L 51,130 L 50,131 L 49,131 L 48,132 L 47,132 L 46,133 L 43,133 L 42,134 L 39,134 L 38,133 L 38,132 L 37,131 L 36,131 L 36,132 L 35,133 L 36,134 L 36,135 L 42,141 L 44,139 L 47,139 L 52,134 L 56,134 L 60,130 L 60,129 L 61,128 L 64,128 L 64,127 L 62,125 L 62,124 L 63,123 L 63,122 L 64,121 L 64,119 L 63,118 L 63,117 Z" fill="none" stroke="black" stroke-width="1"/>
</svg>