<svg xmlns="http://www.w3.org/2000/svg" width="194" height="180">
  <path d="M 84,92 L 83,93 L 82,93 L 81,94 L 74,94 L 73,95 L 72,94 L 69,94 L 69,95 L 68,96 L 68,103 L 69,104 L 69,105 L 70,106 L 70,109 L 68,111 L 67,111 L 67,112 L 71,112 L 72,113 L 78,113 L 79,114 L 80,113 L 81,113 L 82,112 L 84,112 L 85,111 L 86,111 L 87,112 L 87,113 L 88,114 L 89,114 L 90,115 L 95,115 L 94,114 L 94,110 L 95,109 L 95,107 L 96,106 L 96,103 L 97,102 L 97,101 L 98,100 L 99,100 L 99,99 L 100,98 L 101,98 L 101,97 L 100,97 L 99,96 L 98,96 L 98,97 L 97,98 L 96,98 L 94,96 L 91,96 L 90,95 L 90,94 L 89,93 L 86,93 L 85,92 Z" fill="none" stroke="black" stroke-width="1"/>
</svg>