<svg xmlns="http://www.w3.org/2000/svg" width="194" height="180">
  <path d="M 85,112 L 84,113 L 82,113 L 81,114 L 80,114 L 80,116 L 82,118 L 82,122 L 83,123 L 83,124 L 84,124 L 85,125 L 85,127 L 86,127 L 87,126 L 88,126 L 89,125 L 93,125 L 94,126 L 95,126 L 96,127 L 98,127 L 99,128 L 101,128 L 102,127 L 103,127 L 103,125 L 104,124 L 104,123 L 105,122 L 103,122 L 102,121 L 102,120 L 103,119 L 103,118 L 102,118 L 101,119 L 100,119 L 99,118 L 97,118 L 96,117 L 96,116 L 90,116 L 89,115 L 88,115 L 86,113 L 86,112 Z" fill="none" stroke="black" stroke-width="1"/>
</svg>