<svg xmlns="http://www.w3.org/2000/svg" width="296" height="251">
  <path d="M 210,164 L 209,165 L 207,165 L 207,171 L 205,173 L 205,176 L 207,178 L 208,178 L 209,179 L 209,180 L 213,184 L 212,185 L 212,186 L 215,186 L 217,188 L 218,188 L 219,189 L 220,189 L 221,188 L 224,188 L 225,187 L 226,187 L 226,186 L 228,184 L 227,183 L 227,181 L 228,180 L 228,179 L 229,178 L 230,178 L 230,176 L 229,175 L 229,174 L 227,174 L 226,173 L 226,172 L 225,171 L 225,168 L 223,166 L 223,164 L 221,164 L 221,165 L 220,166 L 219,166 L 218,165 L 215,165 L 214,164 Z" fill="none" stroke="black" stroke-width="1"/>
</svg>