<svg xmlns="http://www.w3.org/2000/svg" width="194" height="180">
  <path d="M 116,113 L 116,115 L 112,119 L 113,119 L 114,120 L 114,121 L 113,122 L 113,123 L 111,125 L 112,126 L 112,127 L 113,127 L 114,128 L 114,129 L 115,130 L 115,133 L 116,134 L 116,135 L 115,136 L 115,137 L 117,139 L 117,140 L 116,141 L 117,141 L 118,142 L 120,142 L 120,140 L 121,139 L 122,139 L 123,138 L 124,138 L 125,137 L 129,137 L 129,135 L 128,135 L 126,133 L 126,132 L 127,131 L 127,125 L 126,124 L 126,123 L 125,122 L 125,121 L 123,119 L 120,119 L 119,118 L 119,117 L 118,116 L 118,113 Z" fill="none" stroke="black" stroke-width="1"/>
</svg>