<svg xmlns="http://www.w3.org/2000/svg" width="194" height="180">
  <path d="M 165,106 L 164,107 L 164,111 L 162,113 L 161,113 L 161,114 L 159,116 L 159,117 L 161,119 L 161,122 L 162,123 L 162,124 L 163,125 L 163,126 L 168,126 L 169,125 L 170,125 L 172,123 L 177,123 L 178,124 L 179,123 L 183,123 L 184,122 L 185,123 L 188,123 L 189,122 L 192,122 L 192,121 L 193,120 L 192,120 L 191,119 L 191,118 L 190,117 L 190,116 L 189,116 L 187,114 L 186,114 L 184,112 L 184,111 L 183,111 L 181,109 L 178,109 L 178,111 L 176,113 L 175,113 L 173,111 L 171,111 L 170,112 L 168,110 L 169,109 L 169,108 L 168,107 L 166,107 Z" fill="none" stroke="black" stroke-width="1"/>
</svg>