<svg xmlns="http://www.w3.org/2000/svg" width="296" height="251">
  <path d="M 154,182 L 154,185 L 152,187 L 152,188 L 153,189 L 153,190 L 154,191 L 153,192 L 156,195 L 156,197 L 155,198 L 156,199 L 156,200 L 157,200 L 158,201 L 159,201 L 161,203 L 165,203 L 168,200 L 169,200 L 169,199 L 167,197 L 167,196 L 168,195 L 169,195 L 169,194 L 167,194 L 164,191 L 164,189 L 163,188 L 163,187 L 162,187 L 161,186 L 159,186 L 158,185 L 158,184 L 156,182 Z" fill="none" stroke="black" stroke-width="1"/>
</svg>