<svg xmlns="http://www.w3.org/2000/svg" width="296" height="251">
  <path d="M 135,117 L 134,118 L 133,118 L 132,119 L 131,119 L 131,120 L 130,121 L 128,121 L 128,122 L 127,123 L 127,125 L 126,126 L 126,132 L 125,133 L 126,134 L 126,135 L 125,136 L 125,138 L 128,138 L 129,139 L 130,139 L 131,140 L 133,140 L 134,141 L 136,141 L 137,142 L 139,142 L 139,135 L 140,134 L 139,133 L 139,130 L 140,129 L 140,126 L 141,125 L 141,123 L 142,122 L 142,121 L 140,121 L 139,120 L 138,120 L 136,118 L 136,117 Z" fill="none" stroke="black" stroke-width="1"/>
</svg>