<svg xmlns="http://www.w3.org/2000/svg" width="296" height="251">
  <path d="M 143,122 L 142,123 L 142,125 L 141,126 L 141,129 L 140,130 L 140,133 L 142,135 L 143,135 L 144,136 L 144,137 L 145,138 L 148,138 L 149,139 L 149,140 L 150,141 L 151,141 L 152,142 L 152,143 L 153,143 L 154,144 L 154,145 L 155,146 L 155,147 L 159,147 L 159,146 L 160,145 L 163,145 L 164,144 L 164,141 L 162,139 L 162,138 L 160,138 L 159,137 L 158,137 L 155,134 L 154,134 L 153,133 L 151,133 L 150,132 L 150,129 L 146,125 L 146,124 L 145,123 L 145,122 Z" fill="none" stroke="black" stroke-width="1"/>
</svg>