<svg xmlns="http://www.w3.org/2000/svg" width="296" height="251">
  <path d="M 123,111 L 122,112 L 122,114 L 121,115 L 120,115 L 117,118 L 116,118 L 115,119 L 110,119 L 111,120 L 111,123 L 110,124 L 108,124 L 109,125 L 109,128 L 110,129 L 110,130 L 114,130 L 118,134 L 118,140 L 119,141 L 119,142 L 121,142 L 122,141 L 123,141 L 124,140 L 125,140 L 124,139 L 124,136 L 125,135 L 125,134 L 124,133 L 125,132 L 125,126 L 126,125 L 126,123 L 127,122 L 127,121 L 128,120 L 130,120 L 130,119 L 131,118 L 132,118 L 133,117 L 134,117 L 135,116 L 135,113 L 127,113 L 126,112 L 125,112 L 124,111 Z" fill="none" stroke="black" stroke-width="1"/>
</svg>