<svg xmlns="http://www.w3.org/2000/svg" width="296" height="251">
  <path d="M 155,161 L 155,163 L 154,164 L 154,165 L 153,166 L 153,172 L 154,173 L 154,176 L 153,177 L 153,179 L 154,180 L 154,181 L 156,181 L 159,184 L 159,185 L 161,185 L 162,186 L 163,186 L 164,187 L 164,188 L 165,189 L 165,191 L 167,193 L 169,193 L 170,192 L 170,191 L 172,189 L 172,187 L 173,186 L 173,185 L 175,183 L 175,182 L 174,182 L 172,180 L 172,179 L 171,178 L 171,177 L 170,177 L 168,175 L 168,174 L 167,174 L 166,173 L 166,172 L 165,172 L 164,171 L 163,171 L 162,170 L 162,169 L 161,169 L 160,168 L 160,167 L 159,166 L 159,163 L 158,163 L 157,162 L 156,162 Z" fill="none" stroke="black" stroke-width="1"/>
</svg>