<svg xmlns="http://www.w3.org/2000/svg" width="296" height="251">
  <path d="M 101,123 L 100,124 L 96,124 L 95,125 L 94,124 L 93,124 L 92,125 L 91,125 L 90,126 L 90,128 L 89,129 L 89,131 L 90,132 L 95,132 L 96,133 L 96,135 L 98,137 L 98,141 L 99,142 L 99,144 L 101,146 L 101,147 L 104,147 L 105,148 L 108,148 L 109,149 L 110,149 L 110,148 L 109,147 L 109,145 L 110,144 L 114,144 L 115,145 L 115,146 L 116,146 L 116,144 L 118,142 L 118,141 L 117,140 L 117,134 L 114,131 L 110,131 L 109,130 L 109,129 L 108,128 L 108,125 L 107,124 L 104,124 L 103,123 Z" fill="none" stroke="black" stroke-width="1"/>
</svg>