<svg xmlns="http://www.w3.org/2000/svg" width="194" height="180">
  <path d="M 118,35 L 116,37 L 115,37 L 114,38 L 109,38 L 109,39 L 107,41 L 105,41 L 104,40 L 102,40 L 101,41 L 101,43 L 102,44 L 102,45 L 103,46 L 103,47 L 105,49 L 106,49 L 108,51 L 109,51 L 111,49 L 113,49 L 114,48 L 116,48 L 117,47 L 121,47 L 122,48 L 126,48 L 127,47 L 128,47 L 131,44 L 132,44 L 132,43 L 133,42 L 133,41 L 128,36 L 125,36 L 124,35 L 121,35 L 120,36 L 119,35 Z" fill="none" stroke="black" stroke-width="1"/>
</svg>