<svg xmlns="http://www.w3.org/2000/svg" width="194" height="180">
  <path d="M 114,64 L 113,65 L 112,65 L 110,67 L 105,67 L 104,68 L 103,68 L 103,69 L 100,72 L 99,72 L 98,73 L 97,73 L 96,74 L 93,74 L 91,72 L 88,72 L 87,73 L 87,74 L 86,75 L 85,75 L 84,76 L 84,79 L 83,80 L 83,82 L 82,83 L 82,84 L 77,89 L 76,89 L 76,92 L 75,93 L 81,93 L 82,92 L 83,92 L 84,91 L 85,91 L 86,92 L 89,92 L 91,94 L 91,95 L 94,95 L 96,97 L 97,97 L 97,96 L 98,95 L 99,95 L 100,94 L 100,93 L 103,90 L 103,87 L 104,86 L 105,86 L 110,81 L 111,81 L 111,79 L 113,77 L 113,76 L 114,75 L 114,74 L 118,70 L 118,69 L 121,66 L 120,66 L 119,65 L 118,65 L 117,64 Z" fill="none" stroke="black" stroke-width="1"/>
</svg>