<svg xmlns="http://www.w3.org/2000/svg" width="268" height="258">
  <path d="M 202,175 L 201,176 L 199,176 L 198,177 L 197,177 L 196,178 L 196,180 L 195,181 L 194,181 L 192,183 L 192,184 L 193,185 L 193,188 L 194,189 L 194,191 L 189,196 L 189,198 L 190,199 L 190,200 L 191,201 L 191,206 L 193,206 L 197,202 L 198,202 L 201,199 L 202,199 L 202,198 L 203,197 L 204,197 L 205,196 L 213,196 L 214,197 L 215,197 L 218,194 L 218,193 L 219,192 L 219,189 L 220,188 L 220,187 L 221,186 L 221,184 L 220,183 L 220,181 L 219,180 L 219,178 L 217,176 L 215,176 L 213,178 L 210,178 L 208,176 L 205,176 L 204,175 Z" fill="none" stroke="black" stroke-width="1"/>
</svg>