<svg xmlns="http://www.w3.org/2000/svg" width="296" height="251">
  <path d="M 162,114 L 161,115 L 161,116 L 159,118 L 158,118 L 157,119 L 153,119 L 152,120 L 150,120 L 148,122 L 146,122 L 146,123 L 147,124 L 147,125 L 151,129 L 151,132 L 153,132 L 154,133 L 155,133 L 158,136 L 159,136 L 160,137 L 162,137 L 163,138 L 163,139 L 165,141 L 167,141 L 168,140 L 168,136 L 172,132 L 172,128 L 173,127 L 173,125 L 174,124 L 174,122 L 172,122 L 171,123 L 170,122 L 167,122 L 166,121 L 166,119 L 163,116 L 163,115 Z" fill="none" stroke="black" stroke-width="1"/>
</svg>