<svg xmlns="http://www.w3.org/2000/svg" width="296" height="251">
  <path d="M 223,128 L 221,130 L 222,131 L 219,134 L 219,136 L 218,137 L 218,138 L 217,139 L 216,139 L 216,141 L 218,143 L 223,143 L 224,144 L 226,144 L 227,145 L 231,145 L 233,147 L 233,148 L 234,148 L 236,150 L 236,151 L 237,152 L 239,152 L 240,153 L 244,153 L 245,152 L 246,152 L 246,151 L 247,150 L 247,149 L 248,148 L 252,148 L 253,147 L 253,144 L 254,143 L 254,141 L 255,140 L 255,139 L 254,139 L 253,140 L 251,140 L 250,141 L 249,141 L 247,143 L 246,143 L 245,144 L 244,143 L 244,141 L 243,141 L 241,139 L 240,139 L 239,138 L 238,138 L 237,137 L 237,136 L 236,135 L 236,134 L 233,131 L 233,130 L 234,129 L 229,129 L 228,130 L 225,130 Z" fill="none" stroke="black" stroke-width="1"/>
</svg>