<svg xmlns="http://www.w3.org/2000/svg" width="296" height="251">
  <path d="M 255,141 L 255,143 L 254,144 L 254,147 L 258,151 L 267,151 L 269,153 L 269,154 L 270,154 L 271,155 L 272,155 L 272,154 L 273,153 L 274,153 L 275,154 L 276,154 L 277,155 L 278,155 L 279,156 L 279,157 L 288,157 L 288,156 L 289,155 L 290,155 L 291,154 L 291,153 L 292,152 L 292,150 L 293,149 L 292,148 L 288,148 L 287,147 L 286,147 L 285,148 L 283,148 L 281,146 L 280,147 L 276,147 L 275,146 L 273,146 L 273,147 L 272,148 L 271,148 L 269,146 L 268,146 L 267,145 L 266,145 L 265,144 L 263,144 L 261,142 L 260,142 L 259,141 Z" fill="none" stroke="black" stroke-width="1"/>
</svg>