<svg xmlns="http://www.w3.org/2000/svg" width="194" height="180">
  <path d="M 44,21 L 44,22 L 43,23 L 43,24 L 39,28 L 38,28 L 37,27 L 29,27 L 28,28 L 27,28 L 27,29 L 26,30 L 25,30 L 22,33 L 21,33 L 17,37 L 13,37 L 12,38 L 11,38 L 8,41 L 8,42 L 9,43 L 12,43 L 13,44 L 15,44 L 16,45 L 16,46 L 18,48 L 23,48 L 23,47 L 24,46 L 26,46 L 26,44 L 28,42 L 35,42 L 36,43 L 37,43 L 39,45 L 40,45 L 41,46 L 44,46 L 46,48 L 51,43 L 51,42 L 52,41 L 52,40 L 53,39 L 53,37 L 49,33 L 49,32 L 48,31 L 48,28 L 47,27 L 47,25 L 46,24 L 46,22 L 45,21 Z" fill="none" stroke="black" stroke-width="1"/>
</svg>