<svg xmlns="http://www.w3.org/2000/svg" width="296" height="251">
  <path d="M 67,0 L 66,1 L 61,1 L 60,2 L 57,2 L 56,3 L 54,3 L 53,4 L 51,4 L 50,5 L 50,6 L 51,7 L 51,19 L 52,20 L 52,23 L 50,25 L 49,25 L 48,26 L 47,26 L 45,28 L 45,29 L 44,30 L 44,33 L 51,40 L 51,41 L 53,41 L 54,42 L 55,42 L 56,41 L 57,41 L 58,40 L 62,40 L 66,36 L 69,36 L 70,35 L 71,35 L 72,36 L 74,36 L 75,35 L 75,34 L 76,33 L 76,32 L 79,29 L 83,29 L 89,23 L 90,23 L 89,22 L 89,21 L 90,20 L 90,19 L 92,17 L 93,18 L 97,18 L 98,17 L 100,19 L 105,19 L 106,18 L 106,17 L 105,16 L 105,14 L 103,12 L 103,11 L 101,9 L 97,9 L 96,8 L 96,7 L 95,6 L 94,6 L 93,5 L 87,5 L 85,3 L 83,3 L 81,1 L 77,1 L 76,2 L 74,2 L 73,3 L 70,0 Z" fill="none" stroke="black" stroke-width="1"/>
</svg>