<svg xmlns="http://www.w3.org/2000/svg" width="296" height="251">
  <path d="M 119,21 L 118,22 L 119,23 L 121,23 L 122,24 L 122,25 L 119,28 L 119,29 L 120,30 L 120,31 L 123,34 L 123,35 L 121,37 L 120,37 L 118,39 L 115,39 L 113,41 L 113,42 L 111,44 L 110,44 L 108,46 L 107,46 L 107,47 L 105,49 L 104,49 L 102,51 L 102,52 L 101,53 L 101,54 L 105,58 L 107,58 L 108,59 L 110,59 L 113,62 L 115,62 L 113,60 L 114,59 L 116,59 L 120,63 L 121,63 L 126,68 L 128,68 L 129,67 L 133,67 L 136,70 L 136,71 L 137,71 L 138,72 L 140,72 L 143,75 L 145,73 L 148,73 L 149,74 L 149,76 L 150,76 L 151,77 L 152,77 L 155,74 L 155,73 L 156,72 L 156,67 L 155,66 L 155,64 L 151,60 L 151,59 L 148,56 L 148,54 L 147,53 L 148,52 L 148,50 L 147,49 L 147,47 L 150,44 L 149,43 L 149,42 L 147,40 L 145,40 L 144,39 L 142,39 L 141,38 L 141,37 L 139,35 L 139,34 L 138,33 L 138,32 L 134,28 L 132,28 L 131,27 L 130,27 L 129,26 L 128,26 L 124,22 L 123,23 L 122,22 L 121,22 L 120,21 Z" fill="none" stroke="black" stroke-width="1"/>
</svg>