<svg xmlns="http://www.w3.org/2000/svg" width="296" height="251">
  <path d="M 96,80 L 95,81 L 95,83 L 94,84 L 93,84 L 92,85 L 89,85 L 88,86 L 88,87 L 89,87 L 92,90 L 92,91 L 93,91 L 94,92 L 94,93 L 95,93 L 96,94 L 96,95 L 94,97 L 93,97 L 93,101 L 91,103 L 91,104 L 92,104 L 93,105 L 94,105 L 96,103 L 98,103 L 99,102 L 103,102 L 105,100 L 106,100 L 107,101 L 110,101 L 111,102 L 113,102 L 114,101 L 115,101 L 115,100 L 116,99 L 116,95 L 115,94 L 113,94 L 111,92 L 110,92 L 109,91 L 109,87 L 106,87 L 105,86 L 105,84 L 103,82 L 102,82 L 101,81 L 98,81 L 97,80 Z" fill="none" stroke="black" stroke-width="1"/>
</svg>