<svg xmlns="http://www.w3.org/2000/svg" width="296" height="251">
  <path d="M 85,72 L 85,73 L 84,74 L 82,74 L 81,75 L 80,75 L 77,78 L 76,78 L 76,79 L 74,81 L 71,81 L 70,82 L 69,82 L 68,83 L 67,83 L 67,84 L 66,85 L 65,85 L 63,87 L 65,87 L 66,88 L 67,88 L 68,89 L 71,89 L 72,90 L 75,90 L 76,91 L 77,91 L 78,92 L 79,92 L 80,91 L 82,91 L 82,89 L 84,87 L 85,87 L 85,86 L 86,85 L 88,85 L 89,84 L 92,84 L 93,83 L 94,83 L 94,81 L 95,80 L 95,79 L 94,78 L 94,77 L 93,77 L 92,76 L 91,76 L 90,75 L 90,74 L 89,74 L 88,73 L 87,73 L 86,72 Z" fill="none" stroke="black" stroke-width="1"/>
</svg>