<svg xmlns="http://www.w3.org/2000/svg" width="296" height="251">
  <path d="M 70,36 L 69,37 L 66,37 L 62,41 L 58,41 L 57,42 L 56,42 L 55,43 L 54,43 L 53,42 L 49,42 L 48,43 L 48,45 L 47,46 L 47,50 L 45,52 L 44,52 L 43,53 L 42,53 L 42,54 L 41,55 L 41,58 L 40,59 L 38,59 L 38,65 L 39,66 L 39,67 L 40,68 L 41,68 L 42,67 L 45,67 L 46,68 L 46,69 L 48,71 L 51,71 L 53,73 L 53,74 L 54,74 L 55,75 L 56,75 L 56,74 L 57,73 L 60,73 L 61,72 L 65,72 L 65,71 L 66,70 L 67,70 L 67,69 L 69,67 L 70,67 L 69,66 L 69,65 L 68,64 L 69,63 L 68,63 L 67,62 L 67,59 L 66,58 L 66,52 L 67,51 L 68,51 L 69,50 L 72,50 L 72,46 L 73,45 L 73,43 L 72,43 L 71,42 L 71,39 L 72,38 L 72,37 L 71,36 Z" fill="none" stroke="black" stroke-width="1"/>
</svg>