<svg xmlns="http://www.w3.org/2000/svg" width="296" height="251">
  <path d="M 16,64 L 16,65 L 14,67 L 14,71 L 16,73 L 16,75 L 18,77 L 18,84 L 19,85 L 19,86 L 23,86 L 24,87 L 28,87 L 29,86 L 31,86 L 33,88 L 36,88 L 37,89 L 44,89 L 44,87 L 45,86 L 45,83 L 46,82 L 46,79 L 47,78 L 47,77 L 48,76 L 48,74 L 47,73 L 47,71 L 45,69 L 45,68 L 42,68 L 41,69 L 40,69 L 38,67 L 38,66 L 37,65 L 37,64 L 35,64 L 35,65 L 33,67 L 32,67 L 31,68 L 30,67 L 29,67 L 27,65 L 25,65 L 23,67 L 22,67 L 20,65 L 19,65 L 18,64 Z" fill="none" stroke="black" stroke-width="1"/>
</svg>