<svg xmlns="http://www.w3.org/2000/svg" width="296" height="251">
  <path d="M 22,104 L 20,106 L 20,107 L 19,108 L 18,108 L 17,109 L 15,109 L 14,108 L 13,108 L 11,106 L 11,107 L 9,109 L 8,109 L 6,111 L 6,114 L 5,115 L 4,115 L 4,116 L 2,118 L 2,120 L 0,122 L 0,124 L 1,124 L 4,127 L 4,129 L 5,130 L 5,132 L 6,133 L 6,135 L 5,136 L 5,137 L 4,138 L 4,139 L 5,139 L 7,141 L 7,143 L 8,144 L 8,146 L 9,147 L 9,148 L 11,146 L 13,146 L 13,145 L 15,143 L 15,142 L 17,140 L 18,140 L 21,137 L 21,135 L 22,134 L 25,134 L 25,132 L 26,131 L 28,131 L 28,127 L 29,126 L 29,121 L 28,120 L 27,120 L 26,119 L 25,119 L 24,118 L 24,116 L 23,115 L 23,112 L 22,111 L 22,110 L 21,109 L 22,108 Z" fill="none" stroke="black" stroke-width="1"/>
</svg>