<svg xmlns="http://www.w3.org/2000/svg" width="254" height="186">
  <path d="M 117,73 L 116,74 L 115,74 L 115,75 L 111,79 L 109,79 L 108,78 L 105,78 L 104,77 L 103,77 L 102,78 L 101,78 L 101,79 L 99,81 L 96,81 L 95,82 L 95,84 L 96,85 L 96,86 L 98,88 L 100,88 L 101,89 L 102,89 L 103,90 L 108,90 L 110,92 L 112,90 L 113,90 L 113,88 L 114,87 L 114,86 L 116,84 L 116,83 L 117,82 L 119,82 L 121,80 L 121,79 L 122,78 L 123,78 L 123,77 L 124,76 L 123,76 L 121,74 L 120,74 L 119,73 Z" fill="none" stroke="black" stroke-width="1"/>
</svg>