<svg xmlns="http://www.w3.org/2000/svg" width="254" height="186">
  <path d="M 11,117 L 10,118 L 8,118 L 7,119 L 7,123 L 6,124 L 6,125 L 3,128 L 2,128 L 2,132 L 3,133 L 3,135 L 4,135 L 5,136 L 6,136 L 7,137 L 7,138 L 8,139 L 8,142 L 9,142 L 10,141 L 13,141 L 15,139 L 16,139 L 17,138 L 19,138 L 20,139 L 20,140 L 23,140 L 23,138 L 22,137 L 23,136 L 25,136 L 25,135 L 26,134 L 26,133 L 27,132 L 27,129 L 31,125 L 32,125 L 32,124 L 33,123 L 33,119 L 30,119 L 29,118 L 25,118 L 24,119 L 21,119 L 20,118 L 18,118 L 17,119 L 17,120 L 16,121 L 14,121 L 13,120 L 13,119 Z" fill="none" stroke="black" stroke-width="1"/>
</svg>