<svg xmlns="http://www.w3.org/2000/svg" width="296" height="251">
  <path d="M 26,132 L 26,134 L 25,135 L 22,135 L 22,137 L 18,141 L 17,141 L 16,142 L 16,143 L 14,145 L 14,146 L 13,147 L 11,147 L 9,149 L 9,150 L 10,151 L 10,152 L 14,156 L 15,155 L 15,154 L 16,153 L 19,153 L 22,156 L 22,158 L 23,159 L 26,159 L 27,158 L 28,158 L 29,157 L 31,157 L 32,156 L 38,156 L 39,155 L 40,155 L 41,154 L 41,152 L 43,150 L 44,150 L 46,148 L 46,144 L 44,144 L 43,143 L 39,143 L 38,142 L 36,142 L 33,139 L 33,138 L 32,137 L 32,133 L 31,132 Z" fill="none" stroke="black" stroke-width="1"/>
</svg>