<svg xmlns="http://www.w3.org/2000/svg" width="194" height="180">
  <path d="M 134,54 L 133,55 L 131,55 L 130,56 L 127,56 L 127,57 L 126,58 L 126,60 L 125,61 L 125,62 L 124,63 L 123,63 L 122,64 L 122,66 L 119,69 L 119,70 L 115,74 L 115,75 L 114,76 L 114,77 L 112,79 L 112,81 L 113,82 L 115,82 L 118,79 L 118,77 L 120,75 L 121,75 L 123,73 L 125,73 L 128,70 L 128,69 L 130,67 L 131,67 L 133,69 L 134,69 L 135,68 L 137,68 L 138,69 L 140,69 L 141,68 L 142,68 L 143,67 L 143,64 L 142,63 L 140,63 L 139,62 L 139,60 L 137,58 L 137,57 L 138,56 L 138,55 L 137,55 L 136,54 Z" fill="none" stroke="black" stroke-width="1"/>
</svg>