<svg xmlns="http://www.w3.org/2000/svg" width="194" height="180">
  <path d="M 44,58 L 43,59 L 43,60 L 41,62 L 41,64 L 40,65 L 40,66 L 39,67 L 39,71 L 37,73 L 37,74 L 36,75 L 36,80 L 35,81 L 37,83 L 37,84 L 39,86 L 39,88 L 38,89 L 38,91 L 39,92 L 39,93 L 40,94 L 40,95 L 42,95 L 43,96 L 43,101 L 45,101 L 46,102 L 47,102 L 47,101 L 52,96 L 54,96 L 54,95 L 55,94 L 58,94 L 59,93 L 63,93 L 64,94 L 64,91 L 62,89 L 62,86 L 59,83 L 59,79 L 58,78 L 57,78 L 56,77 L 56,76 L 55,76 L 54,75 L 54,73 L 53,72 L 53,70 L 54,69 L 53,68 L 53,64 L 54,63 L 54,62 L 52,60 L 48,60 L 47,59 L 46,59 L 45,58 Z" fill="none" stroke="black" stroke-width="1"/>
</svg>