<svg xmlns="http://www.w3.org/2000/svg" width="216" height="145">
  <path d="M 123,11 L 122,12 L 120,12 L 117,15 L 116,15 L 115,16 L 115,17 L 114,18 L 114,24 L 116,24 L 118,26 L 120,26 L 121,27 L 121,28 L 122,29 L 122,30 L 121,31 L 120,31 L 120,32 L 122,32 L 123,33 L 123,34 L 126,34 L 127,33 L 128,33 L 128,31 L 129,30 L 129,28 L 130,27 L 130,24 L 132,22 L 133,22 L 134,21 L 134,20 L 135,19 L 135,18 L 133,18 L 131,16 L 128,16 L 126,14 L 126,12 L 125,11 Z" fill="none" stroke="black" stroke-width="1"/>
</svg>