<svg xmlns="http://www.w3.org/2000/svg" width="150" height="272">
  <path d="M 90,32 L 88,34 L 88,35 L 87,36 L 84,36 L 83,37 L 82,37 L 80,39 L 78,39 L 77,40 L 76,40 L 75,41 L 74,41 L 73,42 L 73,48 L 74,48 L 75,49 L 77,49 L 78,50 L 79,50 L 81,52 L 82,52 L 83,53 L 84,53 L 86,51 L 90,51 L 90,50 L 91,49 L 92,49 L 93,50 L 95,50 L 96,49 L 97,49 L 99,47 L 101,47 L 101,45 L 100,44 L 100,43 L 101,42 L 101,41 L 100,41 L 97,38 L 97,37 L 96,36 L 96,35 L 94,33 L 94,32 Z" fill="none" stroke="black" stroke-width="1"/>
</svg>