<svg xmlns="http://www.w3.org/2000/svg" width="194" height="180">
  <path d="M 134,98 L 133,99 L 132,99 L 131,100 L 130,100 L 130,102 L 129,103 L 129,110 L 127,112 L 125,112 L 123,114 L 123,118 L 126,121 L 126,122 L 127,123 L 127,124 L 128,125 L 128,127 L 129,127 L 130,126 L 134,126 L 135,125 L 135,124 L 133,122 L 133,121 L 136,118 L 139,118 L 140,117 L 140,115 L 141,114 L 141,110 L 140,109 L 140,108 L 141,107 L 141,106 L 139,104 L 139,101 L 140,100 L 136,100 L 135,99 L 135,98 Z" fill="none" stroke="black" stroke-width="1"/>
</svg>