<svg xmlns="http://www.w3.org/2000/svg" width="296" height="251">
  <path d="M 191,145 L 191,148 L 192,149 L 191,150 L 190,150 L 190,152 L 191,153 L 191,157 L 193,159 L 195,159 L 196,160 L 197,160 L 198,161 L 198,162 L 199,163 L 199,165 L 200,165 L 201,166 L 203,166 L 205,168 L 206,168 L 206,165 L 207,164 L 209,164 L 210,163 L 210,161 L 209,160 L 208,160 L 207,161 L 205,159 L 205,158 L 204,157 L 204,153 L 203,153 L 202,152 L 201,152 L 199,150 L 198,150 L 197,149 L 196,149 L 195,150 L 193,148 L 193,147 Z" fill="none" stroke="black" stroke-width="1"/>
</svg>