<svg xmlns="http://www.w3.org/2000/svg" width="296" height="251">
  <path d="M 204,198 L 203,199 L 203,203 L 205,205 L 205,207 L 204,208 L 204,209 L 203,210 L 203,211 L 207,211 L 209,213 L 209,216 L 212,216 L 213,215 L 222,215 L 222,213 L 223,212 L 224,212 L 225,211 L 227,211 L 228,212 L 230,212 L 231,211 L 232,211 L 233,210 L 233,209 L 234,208 L 233,208 L 232,207 L 231,207 L 230,206 L 230,204 L 229,204 L 227,202 L 224,202 L 223,201 L 218,201 L 217,200 L 216,200 L 215,199 L 214,199 L 213,198 L 210,198 L 209,199 L 207,199 L 206,198 Z" fill="none" stroke="black" stroke-width="1"/>
</svg>