<svg xmlns="http://www.w3.org/2000/svg" width="254" height="186">
  <path d="M 110,65 L 109,66 L 105,66 L 104,67 L 102,67 L 102,68 L 101,69 L 98,69 L 97,70 L 96,70 L 95,69 L 93,69 L 92,68 L 84,68 L 83,69 L 82,69 L 80,71 L 80,75 L 83,75 L 84,76 L 84,77 L 86,77 L 87,78 L 87,80 L 89,80 L 90,81 L 90,83 L 91,84 L 91,85 L 93,85 L 93,84 L 94,83 L 94,82 L 96,80 L 99,80 L 100,79 L 100,78 L 101,77 L 102,77 L 103,76 L 104,76 L 105,77 L 108,77 L 109,78 L 111,78 L 114,75 L 114,74 L 115,73 L 116,73 L 117,72 L 119,72 L 119,70 L 117,68 L 117,67 L 115,65 Z" fill="none" stroke="black" stroke-width="1"/>
</svg>