<svg xmlns="http://www.w3.org/2000/svg" width="296" height="251">
  <path d="M 178,206 L 178,208 L 177,209 L 177,210 L 175,212 L 175,214 L 177,214 L 178,215 L 178,221 L 179,222 L 179,223 L 181,223 L 181,222 L 182,221 L 183,221 L 184,220 L 187,220 L 188,219 L 189,219 L 190,218 L 195,218 L 196,219 L 196,221 L 197,222 L 197,224 L 198,224 L 199,225 L 199,226 L 200,227 L 200,228 L 203,228 L 203,226 L 204,225 L 205,225 L 205,221 L 206,220 L 208,220 L 210,218 L 210,217 L 209,217 L 208,216 L 208,213 L 207,212 L 203,212 L 202,211 L 200,211 L 199,210 L 195,210 L 193,208 L 187,208 L 186,209 L 181,209 L 180,208 L 180,207 L 179,207 Z" fill="none" stroke="black" stroke-width="1"/>
</svg>