<svg xmlns="http://www.w3.org/2000/svg" width="296" height="251">
  <path d="M 213,216 L 212,217 L 211,217 L 211,218 L 208,221 L 206,221 L 206,225 L 205,226 L 204,226 L 204,235 L 203,236 L 202,236 L 202,238 L 203,239 L 203,240 L 207,240 L 209,242 L 209,243 L 210,243 L 211,244 L 213,244 L 214,245 L 214,247 L 215,247 L 216,246 L 217,246 L 218,247 L 218,248 L 217,249 L 217,250 L 218,250 L 220,248 L 221,248 L 222,247 L 225,247 L 224,246 L 224,245 L 223,244 L 223,243 L 224,242 L 224,239 L 227,236 L 227,235 L 228,234 L 228,233 L 229,232 L 228,231 L 226,231 L 224,229 L 224,227 L 223,226 L 222,226 L 221,225 L 221,224 L 220,223 L 220,220 L 221,219 L 221,216 Z" fill="none" stroke="black" stroke-width="1"/>
</svg>