<svg xmlns="http://www.w3.org/2000/svg" width="123" height="220">
  <path d="M 63,183 L 60,186 L 59,186 L 59,188 L 58,189 L 58,191 L 57,192 L 57,198 L 55,200 L 55,202 L 56,203 L 56,206 L 58,208 L 58,210 L 61,210 L 62,211 L 63,211 L 64,210 L 65,210 L 66,209 L 70,209 L 71,208 L 73,208 L 73,207 L 74,206 L 74,203 L 73,202 L 73,201 L 74,200 L 74,197 L 73,197 L 73,198 L 72,199 L 71,199 L 69,197 L 69,196 L 68,195 L 69,194 L 69,189 L 68,188 L 68,185 L 67,185 L 66,184 L 64,184 Z" fill="none" stroke="black" stroke-width="1"/>
</svg>