<svg xmlns="http://www.w3.org/2000/svg" width="123" height="220">
  <path d="M 47,168 L 47,169 L 49,169 L 49,168 Z" fill="none" stroke="black" stroke-width="1"/>
  <path d="M 58,161 L 57,162 L 55,162 L 54,163 L 54,167 L 53,168 L 53,169 L 51,171 L 51,177 L 50,178 L 50,179 L 49,180 L 51,180 L 53,182 L 55,182 L 57,184 L 59,184 L 60,185 L 63,182 L 63,179 L 64,178 L 65,178 L 66,177 L 66,173 L 67,172 L 67,171 L 66,171 L 65,170 L 65,167 L 62,164 L 62,163 L 60,163 L 59,162 L 59,161 Z" fill="none" stroke="black" stroke-width="1"/>
  <path d="M 50,156 L 50,159 L 51,159 L 52,160 L 55,160 L 55,159 L 53,157 L 52,157 L 51,156 Z" fill="none" stroke="black" stroke-width="1"/>
</svg>