<svg xmlns="http://www.w3.org/2000/svg" width="1028" height="413">
  <path d="M 563,216 L 562,217 L 561,217 L 560,218 L 556,218 L 554,220 L 553,220 L 553,222 L 552,223 L 551,223 L 550,224 L 545,224 L 545,225 L 546,226 L 546,229 L 545,230 L 545,233 L 544,234 L 543,233 L 543,234 L 544,235 L 544,237 L 538,243 L 537,243 L 536,242 L 533,242 L 532,241 L 531,241 L 528,238 L 527,238 L 526,237 L 525,237 L 523,239 L 523,240 L 524,241 L 524,243 L 526,243 L 527,244 L 528,244 L 530,246 L 530,247 L 531,248 L 531,250 L 534,250 L 535,251 L 537,251 L 538,252 L 538,254 L 539,254 L 540,255 L 540,256 L 542,258 L 542,264 L 543,265 L 543,266 L 544,267 L 549,267 L 550,268 L 550,269 L 553,269 L 554,270 L 554,271 L 556,271 L 557,272 L 557,274 L 563,280 L 563,281 L 565,281 L 566,282 L 566,283 L 567,283 L 568,284 L 568,285 L 569,286 L 571,286 L 572,287 L 572,288 L 573,288 L 575,286 L 576,286 L 576,283 L 577,282 L 577,281 L 578,280 L 578,275 L 577,274 L 577,273 L 576,272 L 576,270 L 575,269 L 575,267 L 574,266 L 574,265 L 573,264 L 573,263 L 574,262 L 578,262 L 580,260 L 580,259 L 582,257 L 582,255 L 580,253 L 580,252 L 579,252 L 578,251 L 578,250 L 576,250 L 575,249 L 574,249 L 571,246 L 571,244 L 572,243 L 572,237 L 573,236 L 573,231 L 572,230 L 572,228 L 569,225 L 569,223 L 570,222 L 570,219 L 569,219 L 567,217 L 566,217 L 565,216 Z" fill="none" stroke="black" stroke-width="1"/>
</svg>