<svg xmlns="http://www.w3.org/2000/svg" width="216" height="145">
  <path d="M 136,18 L 136,19 L 135,20 L 135,21 L 133,23 L 132,23 L 131,24 L 131,27 L 130,28 L 130,29 L 133,29 L 134,28 L 135,28 L 137,30 L 137,31 L 141,35 L 143,35 L 144,34 L 146,34 L 147,35 L 148,35 L 149,34 L 152,37 L 153,37 L 154,38 L 156,36 L 156,35 L 157,34 L 157,33 L 158,32 L 158,31 L 159,30 L 159,29 L 160,28 L 160,27 L 159,26 L 159,24 L 158,23 L 158,22 L 157,23 L 153,23 L 151,21 L 144,21 L 143,20 L 143,19 L 142,19 L 141,20 L 139,20 L 138,19 L 137,19 Z" fill="none" stroke="black" stroke-width="1"/>
</svg>