<svg xmlns="http://www.w3.org/2000/svg" width="402" height="344">
  <path d="M 253,27 L 247,33 L 245,33 L 244,34 L 243,33 L 239,33 L 238,34 L 237,34 L 235,36 L 234,36 L 233,37 L 229,37 L 228,38 L 225,38 L 224,39 L 223,39 L 222,40 L 219,40 L 217,42 L 215,42 L 214,41 L 210,41 L 208,43 L 207,43 L 206,42 L 200,42 L 199,43 L 198,42 L 195,42 L 194,43 L 189,43 L 187,41 L 184,41 L 183,40 L 182,40 L 181,41 L 180,41 L 179,42 L 178,42 L 177,43 L 176,43 L 176,44 L 177,45 L 183,45 L 184,46 L 185,46 L 186,47 L 187,47 L 188,46 L 189,46 L 190,47 L 194,47 L 195,48 L 196,48 L 197,49 L 197,51 L 196,52 L 196,53 L 197,54 L 197,59 L 198,58 L 200,58 L 202,60 L 203,60 L 204,59 L 205,59 L 206,58 L 220,58 L 223,55 L 224,55 L 224,54 L 225,53 L 226,53 L 227,54 L 228,54 L 229,55 L 233,55 L 234,56 L 235,56 L 236,55 L 238,55 L 240,53 L 244,53 L 245,52 L 246,52 L 248,50 L 249,50 L 261,38 L 261,37 L 263,35 L 263,31 L 262,31 L 260,29 L 259,29 L 258,28 L 256,28 L 255,27 Z" fill="none" stroke="black" stroke-width="1"/>
</svg>