<svg xmlns="http://www.w3.org/2000/svg" width="402" height="344">
  <path d="M 185,116 L 184,117 L 181,117 L 179,119 L 172,119 L 171,120 L 169,120 L 168,121 L 167,121 L 166,122 L 163,122 L 162,121 L 161,121 L 159,123 L 156,123 L 155,124 L 154,124 L 152,126 L 152,127 L 151,128 L 151,131 L 150,132 L 150,134 L 153,134 L 157,138 L 161,138 L 162,137 L 164,137 L 165,138 L 165,140 L 167,140 L 168,141 L 168,142 L 169,143 L 170,143 L 175,148 L 182,148 L 183,149 L 183,151 L 182,152 L 182,153 L 181,154 L 186,159 L 186,161 L 185,162 L 185,163 L 184,164 L 183,164 L 183,165 L 184,166 L 185,166 L 186,167 L 186,168 L 188,170 L 188,172 L 191,172 L 192,171 L 196,171 L 197,172 L 203,172 L 203,170 L 202,169 L 202,166 L 201,165 L 201,158 L 200,157 L 200,156 L 197,153 L 197,151 L 198,150 L 198,149 L 199,148 L 199,147 L 200,146 L 200,145 L 201,144 L 203,144 L 204,143 L 206,143 L 206,142 L 205,141 L 205,140 L 204,139 L 203,139 L 201,137 L 201,135 L 200,134 L 200,132 L 202,130 L 202,129 L 203,128 L 201,126 L 200,126 L 198,124 L 198,123 L 197,122 L 197,121 L 196,120 L 196,119 L 188,119 Z" fill="none" stroke="black" stroke-width="1"/>
</svg>