<svg xmlns="http://www.w3.org/2000/svg" width="402" height="344">
  <path d="M 241,102 L 239,104 L 238,104 L 238,105 L 237,106 L 237,107 L 234,110 L 234,111 L 232,113 L 232,115 L 233,116 L 233,121 L 232,122 L 232,123 L 228,127 L 228,128 L 226,130 L 226,131 L 225,132 L 225,133 L 221,137 L 220,137 L 220,138 L 219,139 L 219,142 L 218,143 L 218,144 L 216,146 L 211,146 L 209,144 L 204,144 L 203,145 L 201,145 L 201,146 L 200,147 L 200,148 L 199,149 L 199,150 L 198,151 L 198,153 L 201,156 L 201,157 L 202,158 L 202,165 L 203,166 L 203,169 L 204,170 L 204,172 L 207,172 L 208,171 L 209,171 L 210,172 L 212,172 L 212,171 L 217,166 L 218,166 L 220,164 L 227,164 L 229,162 L 230,162 L 231,161 L 233,161 L 234,160 L 235,160 L 236,159 L 239,159 L 240,158 L 241,158 L 242,159 L 243,159 L 244,160 L 248,160 L 248,159 L 250,157 L 250,154 L 253,151 L 255,151 L 251,147 L 251,146 L 253,144 L 253,143 L 252,143 L 251,142 L 251,141 L 252,140 L 252,138 L 253,137 L 254,137 L 258,133 L 259,133 L 259,127 L 260,126 L 261,126 L 263,124 L 267,124 L 269,122 L 269,121 L 270,120 L 270,118 L 272,116 L 272,113 L 268,113 L 267,114 L 266,114 L 265,115 L 264,115 L 263,116 L 262,116 L 260,118 L 259,118 L 258,119 L 256,119 L 255,120 L 253,120 L 252,121 L 250,121 L 249,120 L 248,120 L 247,119 L 245,119 L 244,118 L 243,118 L 242,117 L 242,116 L 240,114 L 240,109 L 241,108 L 241,107 L 242,106 L 242,103 Z" fill="none" stroke="black" stroke-width="1"/>
</svg>