<svg xmlns="http://www.w3.org/2000/svg" width="402" height="344">
  <path d="M 200,263 L 201,264 L 202,264 L 202,263 Z" fill="none" stroke="black" stroke-width="1"/>
  <path d="M 201,219 L 199,221 L 199,223 L 197,225 L 196,225 L 195,226 L 194,226 L 193,227 L 192,227 L 191,228 L 188,228 L 188,229 L 190,231 L 190,232 L 191,233 L 191,235 L 192,236 L 192,240 L 193,241 L 193,243 L 192,244 L 192,253 L 193,254 L 193,258 L 192,259 L 192,260 L 190,262 L 190,263 L 191,264 L 191,265 L 190,266 L 188,266 L 187,267 L 186,267 L 185,266 L 184,267 L 182,267 L 181,268 L 180,268 L 180,271 L 182,273 L 182,274 L 183,275 L 183,276 L 185,274 L 185,272 L 184,272 L 183,271 L 183,270 L 184,269 L 186,269 L 187,270 L 188,270 L 189,269 L 190,269 L 191,270 L 191,271 L 191,269 L 194,266 L 195,266 L 195,265 L 196,264 L 196,263 L 198,261 L 198,260 L 199,259 L 200,259 L 200,258 L 201,257 L 204,257 L 205,258 L 203,260 L 202,260 L 202,261 L 204,261 L 206,259 L 207,259 L 209,257 L 210,258 L 210,260 L 209,261 L 209,266 L 209,265 L 210,264 L 211,264 L 213,266 L 214,265 L 215,265 L 216,266 L 216,267 L 217,267 L 218,266 L 220,266 L 220,265 L 222,263 L 222,262 L 225,259 L 225,253 L 224,252 L 222,252 L 221,253 L 220,253 L 219,254 L 217,254 L 215,252 L 215,248 L 213,246 L 213,245 L 209,241 L 211,239 L 211,233 L 212,232 L 213,232 L 215,230 L 215,229 L 214,228 L 214,227 L 215,226 L 213,226 L 212,225 L 210,225 L 208,223 L 207,223 L 206,222 L 205,222 L 204,221 L 203,221 L 202,220 L 202,219 Z" fill="none" stroke="black" stroke-width="1"/>
</svg>