<svg xmlns="http://www.w3.org/2000/svg" width="402" height="344">
  <path d="M 150,210 L 149,211 L 149,220 L 150,221 L 150,223 L 145,228 L 145,229 L 148,229 L 151,232 L 151,233 L 150,234 L 150,236 L 149,237 L 150,238 L 150,239 L 151,240 L 151,241 L 154,244 L 154,245 L 156,247 L 156,248 L 157,249 L 158,249 L 162,245 L 163,245 L 164,244 L 165,244 L 166,243 L 168,243 L 170,241 L 170,237 L 171,236 L 172,236 L 172,234 L 173,233 L 173,232 L 172,231 L 172,229 L 173,228 L 175,228 L 175,227 L 174,226 L 174,225 L 173,224 L 173,221 L 169,221 L 168,220 L 167,220 L 166,219 L 165,219 L 164,218 L 163,218 L 159,214 L 158,214 L 157,213 L 156,213 L 154,211 L 153,211 L 152,210 Z" fill="none" stroke="black" stroke-width="1"/>
</svg>