<svg xmlns="http://www.w3.org/2000/svg" width="402" height="344">
  <path d="M 170,242 L 168,244 L 166,244 L 165,245 L 164,245 L 163,246 L 162,246 L 158,250 L 157,250 L 156,249 L 156,253 L 155,254 L 155,256 L 156,256 L 159,259 L 158,260 L 158,261 L 159,262 L 160,262 L 161,263 L 161,265 L 162,266 L 165,266 L 166,267 L 168,267 L 168,266 L 169,265 L 169,264 L 170,263 L 173,263 L 175,265 L 176,265 L 177,266 L 177,269 L 178,270 L 179,270 L 179,268 L 180,267 L 181,267 L 182,266 L 184,266 L 185,265 L 186,266 L 187,266 L 188,265 L 190,265 L 190,264 L 189,263 L 189,262 L 191,260 L 191,259 L 192,258 L 192,254 L 191,253 L 191,252 L 190,251 L 185,251 L 184,250 L 183,250 L 182,249 L 181,249 L 178,246 L 178,244 L 177,243 L 176,243 L 175,244 L 174,244 L 173,243 L 172,243 L 171,242 Z" fill="none" stroke="black" stroke-width="1"/>
</svg>