<svg xmlns="http://www.w3.org/2000/svg" width="749" height="389">
  <path d="M 716,236 L 715,237 L 715,239 L 714,240 L 714,241 L 710,245 L 709,245 L 708,246 L 708,250 L 707,251 L 704,251 L 704,252 L 703,253 L 703,254 L 701,256 L 701,257 L 700,258 L 700,259 L 703,262 L 703,264 L 704,264 L 705,263 L 706,264 L 707,263 L 708,263 L 710,261 L 711,261 L 712,260 L 713,260 L 714,259 L 718,259 L 719,260 L 719,261 L 720,262 L 723,262 L 724,263 L 726,263 L 727,264 L 728,264 L 729,265 L 731,265 L 732,266 L 735,266 L 736,265 L 736,263 L 737,262 L 738,262 L 739,261 L 739,259 L 740,258 L 741,258 L 743,256 L 745,256 L 746,255 L 747,255 L 747,254 L 746,253 L 747,252 L 747,251 L 746,250 L 745,250 L 744,249 L 743,249 L 742,248 L 734,248 L 733,247 L 732,247 L 731,246 L 731,245 L 729,245 L 724,240 L 723,240 L 721,238 L 719,238 L 717,236 Z" fill="none" stroke="black" stroke-width="1"/>
</svg>