<svg xmlns="http://www.w3.org/2000/svg" width="402" height="344">
  <path d="M 80,242 L 79,243 L 78,243 L 77,244 L 76,244 L 74,246 L 73,246 L 72,247 L 71,246 L 70,247 L 70,248 L 69,249 L 69,250 L 70,251 L 71,251 L 73,253 L 73,257 L 75,259 L 76,258 L 77,258 L 78,257 L 79,257 L 80,258 L 81,258 L 84,261 L 84,268 L 83,269 L 83,270 L 85,270 L 86,271 L 91,271 L 92,270 L 95,270 L 96,271 L 97,271 L 100,274 L 101,274 L 102,273 L 102,271 L 101,270 L 102,269 L 102,267 L 101,266 L 101,265 L 99,263 L 99,261 L 102,258 L 103,259 L 104,259 L 105,258 L 106,258 L 106,257 L 108,255 L 108,254 L 109,253 L 109,252 L 107,250 L 104,250 L 103,249 L 98,249 L 97,248 L 95,248 L 94,247 L 93,247 L 92,246 L 90,246 L 89,245 L 86,245 L 84,243 L 84,242 Z" fill="none" stroke="black" stroke-width="1"/>
</svg>