<svg xmlns="http://www.w3.org/2000/svg" width="216" height="145">
  <path d="M 192,25 L 191,26 L 190,26 L 189,27 L 186,27 L 185,26 L 184,26 L 181,29 L 180,29 L 179,28 L 178,28 L 178,29 L 177,30 L 177,31 L 176,32 L 177,33 L 177,34 L 179,34 L 180,35 L 181,35 L 182,34 L 183,34 L 184,35 L 185,35 L 186,36 L 187,36 L 188,37 L 188,38 L 187,39 L 188,40 L 189,40 L 190,39 L 192,39 L 193,38 L 194,38 L 198,34 L 198,32 L 196,30 L 196,29 L 197,28 L 199,28 L 199,27 L 198,27 L 197,26 L 195,26 L 194,25 Z" fill="none" stroke="black" stroke-width="1"/>
</svg>