<svg xmlns="http://www.w3.org/2000/svg" width="402" height="344">
  <path d="M 96,278 L 94,280 L 90,280 L 91,281 L 91,284 L 92,285 L 92,286 L 93,287 L 93,288 L 96,291 L 96,293 L 97,294 L 97,295 L 94,298 L 94,299 L 96,301 L 96,302 L 97,303 L 97,304 L 99,306 L 100,306 L 102,304 L 103,304 L 105,302 L 109,302 L 110,301 L 109,300 L 109,299 L 110,298 L 110,297 L 108,295 L 108,294 L 107,293 L 107,292 L 102,287 L 102,283 L 103,282 L 103,280 L 102,279 L 100,279 L 99,280 L 98,279 L 97,279 Z" fill="none" stroke="black" stroke-width="1"/>
</svg>