<svg xmlns="http://www.w3.org/2000/svg" width="402" height="344">
  <path d="M 88,281 L 85,284 L 85,285 L 83,287 L 77,287 L 76,288 L 75,288 L 74,287 L 73,288 L 73,289 L 74,290 L 74,291 L 73,292 L 73,294 L 74,295 L 74,296 L 73,297 L 68,297 L 67,298 L 67,300 L 74,307 L 74,308 L 75,309 L 75,311 L 77,313 L 77,316 L 78,317 L 79,317 L 81,319 L 81,321 L 82,321 L 83,320 L 83,318 L 88,313 L 89,313 L 92,310 L 93,310 L 96,307 L 97,307 L 98,306 L 96,304 L 96,303 L 95,302 L 95,301 L 93,299 L 93,298 L 96,295 L 96,294 L 95,293 L 95,291 L 92,288 L 92,287 L 91,286 L 91,285 L 90,284 L 90,281 Z" fill="none" stroke="black" stroke-width="1"/>
</svg>