<svg xmlns="http://www.w3.org/2000/svg" width="402" height="344">
  <path d="M 67,301 L 66,302 L 66,303 L 65,304 L 65,306 L 64,307 L 62,307 L 61,306 L 59,306 L 58,305 L 56,305 L 55,304 L 55,303 L 54,303 L 53,302 L 53,305 L 52,306 L 51,305 L 49,305 L 49,306 L 51,308 L 51,309 L 52,310 L 52,311 L 51,312 L 51,313 L 48,316 L 48,317 L 44,321 L 42,321 L 41,322 L 40,322 L 39,323 L 39,325 L 40,326 L 39,327 L 37,327 L 36,328 L 37,329 L 36,330 L 37,331 L 38,330 L 39,330 L 40,331 L 42,331 L 43,332 L 41,334 L 42,335 L 42,336 L 41,337 L 40,337 L 39,338 L 37,338 L 36,339 L 35,339 L 34,340 L 33,340 L 33,341 L 34,342 L 34,343 L 35,342 L 36,342 L 37,341 L 38,342 L 39,341 L 41,341 L 42,340 L 41,339 L 41,338 L 42,337 L 44,337 L 45,336 L 47,336 L 48,335 L 49,335 L 49,334 L 50,333 L 50,332 L 51,331 L 52,331 L 53,330 L 54,330 L 55,329 L 56,329 L 57,328 L 58,328 L 59,327 L 60,327 L 61,326 L 63,326 L 64,325 L 66,325 L 66,323 L 67,322 L 69,324 L 70,324 L 71,323 L 72,323 L 73,322 L 76,322 L 77,323 L 78,323 L 79,322 L 81,322 L 80,321 L 80,319 L 79,318 L 78,318 L 76,316 L 76,313 L 74,311 L 74,309 L 73,308 L 73,307 Z" fill="none" stroke="black" stroke-width="1"/>
</svg>