<svg xmlns="http://www.w3.org/2000/svg" width="749" height="389">
  <path d="M 526,241 L 525,242 L 524,242 L 520,246 L 520,248 L 519,249 L 519,251 L 517,253 L 517,254 L 516,255 L 516,256 L 520,260 L 520,261 L 521,261 L 524,264 L 524,265 L 525,266 L 525,269 L 526,270 L 526,272 L 527,273 L 527,274 L 528,275 L 528,276 L 530,278 L 530,282 L 532,284 L 532,286 L 533,286 L 534,287 L 534,288 L 535,289 L 537,289 L 538,290 L 538,286 L 539,285 L 539,284 L 540,283 L 540,282 L 542,280 L 542,279 L 548,273 L 556,273 L 560,269 L 561,269 L 561,268 L 562,267 L 562,265 L 564,263 L 565,263 L 566,262 L 568,262 L 569,261 L 581,261 L 581,260 L 582,259 L 582,258 L 581,257 L 580,257 L 579,256 L 578,256 L 575,253 L 575,252 L 574,251 L 574,250 L 573,250 L 572,249 L 560,249 L 559,248 L 558,248 L 557,247 L 549,247 L 548,246 L 547,246 L 546,245 L 543,245 L 542,244 L 541,244 L 540,243 L 539,243 L 538,242 L 537,242 L 536,241 Z" fill="none" stroke="black" stroke-width="1"/>
</svg>