<svg xmlns="http://www.w3.org/2000/svg" width="749" height="389">
  <path d="M 609,265 L 607,267 L 605,267 L 604,268 L 601,268 L 600,267 L 598,267 L 597,268 L 595,266 L 589,266 L 587,268 L 587,271 L 588,272 L 588,273 L 585,276 L 585,279 L 588,282 L 588,283 L 589,284 L 589,287 L 588,288 L 588,290 L 589,291 L 589,293 L 590,293 L 593,296 L 593,297 L 597,301 L 600,301 L 602,299 L 602,297 L 601,296 L 601,295 L 602,294 L 602,292 L 604,290 L 609,290 L 611,288 L 613,288 L 614,287 L 616,289 L 616,290 L 618,292 L 618,295 L 621,298 L 622,298 L 623,299 L 625,299 L 627,297 L 628,297 L 629,296 L 630,296 L 631,295 L 634,295 L 636,293 L 637,293 L 637,292 L 636,292 L 634,290 L 632,290 L 631,289 L 631,288 L 634,285 L 635,285 L 637,283 L 637,275 L 634,275 L 633,276 L 631,276 L 630,275 L 628,275 L 627,274 L 626,274 L 624,276 L 623,276 L 622,275 L 620,275 L 619,276 L 618,276 L 617,275 L 616,275 L 615,274 L 614,274 L 612,272 L 612,271 L 615,268 L 616,268 L 616,267 L 615,267 L 614,266 L 613,266 L 612,265 Z" fill="none" stroke="black" stroke-width="1"/>
</svg>