<svg xmlns="http://www.w3.org/2000/svg" width="749" height="389">
  <path d="M 467,157 L 466,158 L 465,158 L 465,159 L 462,162 L 461,162 L 459,164 L 457,164 L 456,163 L 451,163 L 449,165 L 445,165 L 444,164 L 443,164 L 442,163 L 442,162 L 439,162 L 436,159 L 435,159 L 434,158 L 430,158 L 428,160 L 428,161 L 426,163 L 426,164 L 424,166 L 419,166 L 419,168 L 418,169 L 418,170 L 419,171 L 419,172 L 420,173 L 420,174 L 421,175 L 421,180 L 420,181 L 420,182 L 419,183 L 419,185 L 420,186 L 420,187 L 421,188 L 421,189 L 424,192 L 424,199 L 425,199 L 428,202 L 428,204 L 427,205 L 427,206 L 428,206 L 430,208 L 432,208 L 433,209 L 435,209 L 436,208 L 441,208 L 442,209 L 443,209 L 444,210 L 445,210 L 446,211 L 447,211 L 448,212 L 451,212 L 452,211 L 454,211 L 456,209 L 458,209 L 460,207 L 463,207 L 464,208 L 465,208 L 465,207 L 464,206 L 464,203 L 465,202 L 465,199 L 466,198 L 466,197 L 469,194 L 470,194 L 470,193 L 474,189 L 474,186 L 472,184 L 472,182 L 471,181 L 471,177 L 472,176 L 472,174 L 473,173 L 473,172 L 474,171 L 474,170 L 475,169 L 475,167 L 480,162 L 481,162 L 481,160 L 482,159 L 481,158 L 480,158 L 479,159 L 471,159 L 470,158 L 468,158 Z" fill="none" stroke="black" stroke-width="1"/>
</svg>