<svg xmlns="http://www.w3.org/2000/svg" width="749" height="389">
  <path d="M 280,201 L 279,202 L 279,203 L 278,204 L 278,209 L 279,210 L 279,213 L 280,214 L 280,221 L 279,222 L 279,225 L 278,226 L 278,228 L 274,232 L 273,232 L 271,234 L 271,239 L 276,244 L 276,245 L 275,246 L 275,247 L 272,250 L 272,253 L 268,257 L 267,257 L 266,258 L 265,258 L 265,261 L 266,262 L 268,262 L 269,263 L 269,264 L 270,265 L 270,267 L 271,268 L 271,270 L 273,272 L 273,274 L 274,275 L 274,276 L 276,278 L 276,279 L 277,280 L 278,280 L 281,283 L 281,286 L 282,286 L 283,285 L 299,285 L 300,286 L 304,286 L 304,280 L 303,279 L 303,272 L 305,270 L 305,268 L 306,267 L 306,265 L 305,264 L 305,262 L 306,261 L 306,259 L 307,258 L 307,255 L 306,254 L 306,252 L 309,249 L 310,249 L 310,241 L 312,239 L 312,238 L 313,237 L 313,235 L 314,234 L 314,228 L 313,227 L 313,224 L 309,220 L 308,220 L 303,215 L 303,213 L 301,211 L 301,210 L 300,209 L 299,209 L 298,208 L 295,208 L 294,209 L 292,209 L 291,208 L 290,208 L 288,206 L 288,204 L 286,202 L 285,202 L 284,201 L 283,202 L 282,202 L 281,201 Z" fill="none" stroke="black" stroke-width="1"/>
</svg>