<svg xmlns="http://www.w3.org/2000/svg" width="749" height="389">
  <path d="M 49,173 L 47,175 L 46,175 L 42,179 L 42,181 L 41,182 L 41,183 L 40,184 L 40,185 L 39,186 L 34,186 L 34,187 L 33,188 L 30,188 L 29,189 L 28,189 L 27,190 L 25,190 L 22,193 L 19,193 L 18,194 L 18,195 L 20,197 L 20,198 L 21,199 L 20,200 L 19,200 L 18,201 L 18,205 L 19,206 L 19,207 L 16,210 L 14,210 L 14,211 L 13,212 L 11,212 L 11,215 L 9,217 L 6,217 L 5,216 L 4,217 L 3,216 L 1,216 L 0,217 L 0,218 L 2,220 L 4,220 L 5,219 L 7,219 L 8,218 L 11,218 L 12,219 L 15,219 L 16,220 L 17,220 L 18,221 L 19,221 L 20,222 L 22,222 L 23,223 L 24,223 L 26,225 L 27,225 L 29,227 L 30,227 L 33,230 L 34,230 L 35,231 L 38,231 L 40,233 L 40,234 L 38,236 L 38,237 L 39,238 L 39,240 L 40,240 L 41,239 L 43,239 L 44,238 L 47,238 L 48,237 L 50,237 L 51,236 L 53,236 L 54,237 L 56,237 L 57,238 L 60,238 L 61,239 L 64,239 L 65,238 L 65,237 L 64,236 L 63,236 L 62,235 L 62,234 L 61,233 L 61,231 L 62,230 L 62,229 L 63,228 L 63,227 L 64,226 L 64,225 L 65,224 L 65,220 L 67,218 L 67,216 L 68,215 L 68,213 L 69,212 L 69,210 L 70,209 L 70,208 L 71,207 L 71,206 L 72,205 L 72,199 L 71,198 L 71,197 L 70,196 L 69,196 L 66,193 L 66,191 L 65,191 L 64,190 L 64,188 L 61,185 L 61,184 L 60,183 L 57,183 L 56,182 L 56,180 L 55,179 L 55,177 L 56,176 L 53,176 L 50,173 Z" fill="none" stroke="black" stroke-width="1"/>
</svg>