<svg xmlns="http://www.w3.org/2000/svg" width="749" height="389">
  <path d="M 73,200 L 73,205 L 72,206 L 72,207 L 71,208 L 71,209 L 70,210 L 70,212 L 69,213 L 69,215 L 68,216 L 68,218 L 66,220 L 66,224 L 65,225 L 65,226 L 64,227 L 64,228 L 63,229 L 63,230 L 62,231 L 62,233 L 63,234 L 63,235 L 64,235 L 66,237 L 66,238 L 64,240 L 63,240 L 67,244 L 68,244 L 69,243 L 71,243 L 72,244 L 80,244 L 81,243 L 83,243 L 84,242 L 85,242 L 89,238 L 92,238 L 94,236 L 94,235 L 96,233 L 96,230 L 97,229 L 98,229 L 100,227 L 101,227 L 103,225 L 105,225 L 106,224 L 112,224 L 112,223 L 110,221 L 108,221 L 105,218 L 103,218 L 102,217 L 101,217 L 98,214 L 98,209 L 100,207 L 100,206 L 101,205 L 101,204 L 91,204 L 90,205 L 87,205 L 86,204 L 84,204 L 83,203 L 80,203 L 78,201 L 76,201 L 75,200 Z" fill="none" stroke="black" stroke-width="1"/>
</svg>