<svg xmlns="http://www.w3.org/2000/svg" width="749" height="389">
  <path d="M 51,237 L 50,238 L 48,238 L 47,239 L 44,239 L 43,240 L 41,240 L 40,241 L 35,241 L 34,242 L 33,242 L 32,243 L 27,243 L 26,244 L 25,244 L 24,245 L 26,247 L 27,247 L 28,246 L 30,246 L 31,247 L 33,247 L 34,248 L 34,249 L 32,251 L 32,252 L 31,253 L 31,254 L 32,255 L 32,261 L 33,262 L 33,263 L 34,264 L 34,265 L 35,266 L 35,268 L 36,269 L 36,270 L 37,271 L 37,272 L 38,273 L 38,277 L 39,278 L 37,280 L 36,279 L 35,279 L 33,281 L 32,281 L 33,282 L 34,282 L 35,283 L 34,284 L 33,284 L 32,285 L 30,285 L 29,286 L 29,287 L 28,288 L 29,289 L 29,291 L 30,292 L 29,293 L 30,294 L 30,296 L 31,296 L 33,294 L 34,294 L 35,293 L 37,293 L 38,294 L 40,294 L 41,293 L 43,293 L 44,292 L 45,293 L 46,293 L 47,292 L 49,292 L 50,291 L 51,292 L 54,292 L 55,293 L 58,293 L 59,292 L 61,292 L 62,291 L 66,291 L 68,289 L 70,289 L 71,288 L 71,287 L 70,287 L 69,286 L 68,286 L 67,285 L 70,282 L 72,282 L 73,281 L 81,281 L 82,282 L 84,282 L 84,280 L 83,279 L 83,277 L 80,274 L 79,274 L 78,273 L 77,273 L 76,272 L 75,272 L 73,270 L 73,269 L 70,269 L 69,268 L 66,268 L 65,267 L 64,267 L 63,266 L 62,266 L 61,265 L 61,264 L 60,263 L 60,260 L 59,260 L 57,258 L 57,254 L 59,252 L 60,252 L 61,251 L 62,251 L 63,250 L 64,250 L 65,249 L 65,248 L 66,247 L 66,244 L 62,240 L 61,240 L 60,239 L 57,239 L 56,238 L 54,238 L 53,237 Z" fill="none" stroke="black" stroke-width="1"/>
</svg>