<svg xmlns="http://www.w3.org/2000/svg" width="710" height="350">
  <path d="M 561,212 L 557,216 L 555,216 L 554,217 L 553,217 L 552,218 L 550,218 L 549,219 L 546,219 L 545,220 L 542,220 L 541,221 L 539,221 L 538,222 L 539,223 L 539,225 L 538,226 L 538,231 L 539,232 L 539,236 L 538,237 L 538,241 L 540,243 L 540,244 L 543,247 L 543,250 L 545,252 L 543,254 L 543,255 L 544,255 L 545,254 L 546,254 L 547,253 L 548,253 L 550,251 L 553,251 L 554,250 L 555,250 L 556,249 L 557,249 L 558,248 L 564,248 L 565,249 L 574,249 L 575,248 L 580,248 L 581,247 L 582,247 L 583,246 L 588,246 L 589,247 L 592,247 L 593,246 L 592,245 L 591,245 L 590,244 L 588,244 L 587,243 L 585,243 L 584,242 L 584,241 L 586,239 L 586,238 L 585,237 L 585,235 L 582,232 L 582,230 L 581,229 L 581,226 L 582,225 L 582,221 L 583,220 L 578,220 L 577,219 L 575,219 L 572,216 L 572,215 L 573,214 L 574,214 L 573,213 L 571,213 L 570,212 L 569,212 L 568,213 L 567,213 L 566,214 L 565,214 L 564,213 L 563,213 L 562,212 Z" fill="none" stroke="black" stroke-width="1"/>
</svg>