<svg xmlns="http://www.w3.org/2000/svg" width="749" height="389">
  <path d="M 213,271 L 212,272 L 211,272 L 210,273 L 209,273 L 208,274 L 206,274 L 205,275 L 205,279 L 206,280 L 206,285 L 207,286 L 207,289 L 206,290 L 206,298 L 205,299 L 205,302 L 206,303 L 206,304 L 207,305 L 207,313 L 208,314 L 208,315 L 209,316 L 210,316 L 211,317 L 215,317 L 216,318 L 217,318 L 218,319 L 219,319 L 220,318 L 222,318 L 224,320 L 225,320 L 226,321 L 227,321 L 228,322 L 234,322 L 236,324 L 240,324 L 241,323 L 245,323 L 247,321 L 250,321 L 251,322 L 253,322 L 254,321 L 257,321 L 258,322 L 259,322 L 260,321 L 261,321 L 262,320 L 263,320 L 264,319 L 265,319 L 265,318 L 264,317 L 264,315 L 263,314 L 264,313 L 264,312 L 267,309 L 268,309 L 268,308 L 269,307 L 271,307 L 272,306 L 273,306 L 275,304 L 279,304 L 280,303 L 281,303 L 282,302 L 283,302 L 285,300 L 285,297 L 282,294 L 283,293 L 284,293 L 286,291 L 287,291 L 287,288 L 286,287 L 286,286 L 283,286 L 282,287 L 281,287 L 280,286 L 280,283 L 278,281 L 277,281 L 275,279 L 275,278 L 274,277 L 273,278 L 272,277 L 269,277 L 268,276 L 266,276 L 265,277 L 257,277 L 256,278 L 254,278 L 253,277 L 252,277 L 249,274 L 248,275 L 240,275 L 239,276 L 238,275 L 233,275 L 231,273 L 230,273 L 229,272 L 227,272 L 226,271 L 225,271 L 224,272 L 223,271 L 221,273 L 220,272 L 220,271 L 218,271 L 216,273 L 214,271 Z" fill="none" stroke="black" stroke-width="1"/>
</svg>