<svg xmlns="http://www.w3.org/2000/svg" width="710" height="350">
  <path d="M 696,222 L 695,223 L 688,223 L 687,224 L 684,224 L 683,223 L 674,223 L 673,224 L 672,224 L 671,225 L 669,225 L 668,226 L 667,226 L 666,227 L 665,227 L 664,228 L 661,228 L 660,229 L 658,229 L 655,232 L 655,234 L 654,235 L 654,236 L 655,237 L 655,239 L 657,241 L 657,242 L 656,243 L 655,243 L 654,244 L 652,244 L 651,243 L 651,248 L 647,252 L 646,252 L 644,254 L 643,254 L 642,255 L 641,255 L 641,257 L 642,257 L 643,258 L 643,259 L 645,261 L 645,262 L 644,263 L 644,265 L 643,266 L 643,267 L 641,269 L 640,269 L 639,270 L 638,270 L 637,271 L 635,271 L 634,272 L 631,272 L 630,271 L 630,272 L 631,273 L 631,274 L 632,275 L 632,276 L 634,278 L 634,281 L 635,281 L 636,280 L 639,280 L 640,279 L 642,279 L 644,277 L 645,277 L 648,274 L 649,274 L 652,271 L 653,271 L 654,270 L 658,270 L 659,271 L 662,271 L 663,270 L 667,270 L 668,271 L 669,270 L 670,270 L 671,271 L 671,270 L 672,269 L 672,268 L 673,267 L 677,267 L 678,268 L 679,268 L 680,269 L 681,269 L 682,268 L 686,268 L 687,267 L 693,267 L 694,266 L 699,266 L 700,265 L 702,265 L 703,264 L 704,264 L 705,263 L 706,263 L 707,262 L 708,262 L 709,261 L 708,260 L 708,259 L 707,258 L 707,256 L 708,255 L 708,253 L 707,252 L 707,250 L 706,249 L 706,239 L 707,238 L 707,237 L 708,236 L 708,228 L 709,227 L 709,225 L 708,224 L 707,224 L 706,223 L 702,223 L 701,222 Z" fill="none" stroke="black" stroke-width="1"/>
</svg>