<svg xmlns="http://www.w3.org/2000/svg" width="710" height="350">
  <path d="M 472,265 L 470,267 L 469,267 L 469,268 L 467,270 L 466,270 L 465,271 L 464,271 L 463,272 L 462,272 L 460,274 L 460,276 L 458,278 L 458,279 L 457,280 L 457,281 L 453,285 L 453,292 L 452,293 L 452,294 L 451,295 L 451,296 L 450,297 L 450,298 L 448,300 L 447,300 L 446,301 L 447,301 L 449,303 L 449,304 L 450,305 L 450,306 L 451,307 L 451,308 L 452,309 L 452,310 L 454,312 L 454,313 L 455,314 L 455,315 L 456,316 L 457,316 L 458,317 L 459,316 L 460,316 L 461,317 L 462,317 L 464,319 L 463,320 L 465,320 L 466,321 L 467,321 L 470,324 L 471,324 L 472,325 L 473,324 L 477,328 L 478,328 L 479,329 L 480,329 L 481,330 L 483,330 L 486,333 L 486,331 L 490,327 L 490,325 L 491,324 L 491,320 L 490,319 L 490,317 L 488,315 L 489,314 L 489,310 L 490,309 L 490,305 L 492,303 L 500,303 L 503,300 L 503,299 L 505,297 L 506,297 L 507,296 L 507,295 L 506,295 L 502,291 L 502,290 L 501,289 L 501,288 L 500,287 L 500,286 L 499,285 L 499,281 L 498,280 L 500,278 L 500,277 L 493,277 L 491,275 L 484,275 L 481,272 L 481,271 L 480,271 L 479,270 L 479,269 L 478,268 L 478,267 L 477,266 L 475,266 L 474,265 Z" fill="none" stroke="black" stroke-width="1"/>
</svg>