<svg xmlns="http://www.w3.org/2000/svg" width="710" height="350">
  <path d="M 467,187 L 466,188 L 465,188 L 464,189 L 461,189 L 460,188 L 458,188 L 458,191 L 455,194 L 454,194 L 453,195 L 451,195 L 450,196 L 449,196 L 448,197 L 445,197 L 444,196 L 438,196 L 436,198 L 435,198 L 433,200 L 432,200 L 431,201 L 429,201 L 429,205 L 427,207 L 424,207 L 423,208 L 423,209 L 424,210 L 422,212 L 421,212 L 420,213 L 420,214 L 421,215 L 423,215 L 425,217 L 425,218 L 427,220 L 423,224 L 419,224 L 418,225 L 416,225 L 415,226 L 415,227 L 413,229 L 412,229 L 414,231 L 417,231 L 420,234 L 420,235 L 421,236 L 421,237 L 420,238 L 420,239 L 415,244 L 415,245 L 412,248 L 412,251 L 410,253 L 411,254 L 412,254 L 413,255 L 415,255 L 418,252 L 419,252 L 421,250 L 421,248 L 420,247 L 420,246 L 421,245 L 421,244 L 425,240 L 428,240 L 429,239 L 430,239 L 432,237 L 433,237 L 437,233 L 443,233 L 445,231 L 447,231 L 449,233 L 449,235 L 450,236 L 453,236 L 454,235 L 460,235 L 460,233 L 462,231 L 463,231 L 464,230 L 464,228 L 465,227 L 465,225 L 466,224 L 467,224 L 469,222 L 470,222 L 471,223 L 482,223 L 483,222 L 485,222 L 486,221 L 488,221 L 490,219 L 490,217 L 492,215 L 494,215 L 494,214 L 495,213 L 497,213 L 498,212 L 499,212 L 500,211 L 501,211 L 502,210 L 504,210 L 505,209 L 506,209 L 507,208 L 509,208 L 510,207 L 512,207 L 515,204 L 520,204 L 520,202 L 519,202 L 518,201 L 518,200 L 517,199 L 517,198 L 516,198 L 515,197 L 513,197 L 512,196 L 511,197 L 508,197 L 506,195 L 506,194 L 505,194 L 503,192 L 504,191 L 503,190 L 502,191 L 498,191 L 497,190 L 496,190 L 495,189 L 480,189 L 479,188 L 473,188 L 472,187 Z" fill="none" stroke="black" stroke-width="1"/>
</svg>