<svg xmlns="http://www.w3.org/2000/svg" width="710" height="350">
  <path d="M 433,182 L 433,184 L 432,185 L 431,184 L 430,184 L 429,183 L 424,183 L 423,184 L 422,184 L 421,185 L 418,185 L 417,186 L 417,187 L 416,188 L 416,189 L 415,190 L 413,190 L 412,191 L 410,191 L 409,192 L 408,192 L 407,193 L 404,193 L 403,194 L 402,194 L 402,195 L 404,197 L 405,197 L 406,198 L 408,198 L 409,199 L 410,199 L 411,200 L 414,200 L 415,201 L 415,202 L 416,202 L 417,203 L 418,203 L 419,204 L 420,204 L 421,205 L 422,205 L 423,206 L 423,207 L 424,206 L 427,206 L 428,205 L 428,201 L 429,200 L 431,200 L 432,199 L 433,199 L 435,197 L 436,197 L 438,195 L 444,195 L 445,196 L 448,196 L 449,195 L 450,195 L 451,194 L 453,194 L 454,193 L 455,193 L 457,191 L 457,190 L 453,190 L 452,189 L 450,189 L 449,188 L 441,188 L 440,187 L 438,187 Z" fill="none" stroke="black" stroke-width="1"/>
</svg>