<svg xmlns="http://www.w3.org/2000/svg" width="710" height="350">
  <path d="M 412,255 L 408,259 L 403,259 L 402,260 L 401,260 L 400,261 L 399,261 L 399,263 L 398,264 L 398,265 L 395,268 L 394,268 L 393,267 L 392,267 L 392,269 L 393,270 L 393,271 L 394,272 L 394,273 L 395,274 L 395,276 L 397,278 L 397,279 L 398,280 L 397,281 L 397,283 L 396,284 L 396,285 L 394,287 L 394,289 L 393,290 L 393,291 L 392,292 L 392,299 L 391,300 L 391,301 L 390,302 L 391,303 L 391,304 L 392,305 L 393,304 L 394,304 L 397,301 L 398,301 L 399,300 L 401,300 L 402,299 L 404,299 L 405,298 L 410,298 L 411,297 L 413,297 L 414,296 L 418,296 L 419,297 L 420,297 L 421,298 L 422,298 L 423,297 L 424,297 L 425,296 L 427,296 L 428,295 L 429,295 L 431,293 L 431,292 L 430,292 L 428,290 L 428,289 L 430,287 L 432,287 L 435,284 L 435,282 L 434,281 L 434,278 L 433,277 L 433,271 L 432,270 L 432,269 L 431,269 L 430,268 L 429,268 L 428,267 L 426,267 L 426,268 L 424,270 L 421,270 L 420,269 L 419,269 L 417,267 L 417,264 L 416,263 L 416,260 L 415,259 L 415,257 L 414,256 L 413,256 Z" fill="none" stroke="black" stroke-width="1"/>
</svg>