<svg xmlns="http://www.w3.org/2000/svg" width="378" height="221">
  <path d="M 13,114 L 13,117 L 12,118 L 12,119 L 8,123 L 7,123 L 6,122 L 5,122 L 4,121 L 4,119 L 1,119 L 0,120 L 0,124 L 1,125 L 0,126 L 4,130 L 4,134 L 5,135 L 5,137 L 4,138 L 4,139 L 5,140 L 5,141 L 8,144 L 9,144 L 11,142 L 15,146 L 17,146 L 18,147 L 21,147 L 23,149 L 25,149 L 26,150 L 28,150 L 33,155 L 36,155 L 37,156 L 38,156 L 39,157 L 42,157 L 44,159 L 45,159 L 47,157 L 53,157 L 53,153 L 54,152 L 55,152 L 60,147 L 59,146 L 58,146 L 57,145 L 56,146 L 55,146 L 52,143 L 52,142 L 53,141 L 53,140 L 54,139 L 53,138 L 53,135 L 52,134 L 53,133 L 53,131 L 52,131 L 48,127 L 47,127 L 46,126 L 46,125 L 44,123 L 44,121 L 43,120 L 43,119 L 42,118 L 42,116 L 41,117 L 41,118 L 40,119 L 35,119 L 33,121 L 30,121 L 29,120 L 28,120 L 27,119 L 26,119 L 25,118 L 25,117 L 23,119 L 20,119 L 19,118 L 18,118 L 15,115 L 14,115 Z" fill="none" stroke="black" stroke-width="1"/>
</svg>