<svg xmlns="http://www.w3.org/2000/svg" width="378" height="221">
  <path d="M 250,118 L 249,119 L 249,123 L 248,124 L 248,127 L 251,130 L 251,131 L 252,132 L 252,133 L 251,134 L 246,134 L 245,135 L 244,135 L 244,136 L 243,137 L 243,138 L 244,139 L 244,141 L 242,143 L 240,143 L 239,142 L 237,142 L 236,143 L 236,145 L 240,149 L 240,151 L 238,153 L 237,153 L 236,154 L 234,154 L 235,155 L 235,156 L 237,158 L 237,162 L 236,163 L 236,164 L 234,166 L 233,166 L 230,169 L 230,171 L 229,172 L 229,174 L 228,175 L 229,176 L 229,177 L 232,180 L 232,181 L 231,182 L 231,183 L 232,184 L 232,185 L 235,185 L 236,184 L 242,184 L 242,182 L 245,179 L 245,178 L 247,176 L 248,176 L 249,175 L 251,175 L 251,174 L 252,173 L 253,173 L 256,176 L 260,176 L 261,177 L 262,177 L 263,178 L 264,178 L 269,173 L 270,173 L 272,171 L 274,173 L 277,173 L 278,172 L 279,172 L 280,171 L 280,167 L 281,166 L 281,163 L 280,162 L 280,161 L 278,159 L 280,157 L 281,157 L 282,156 L 283,156 L 284,155 L 284,153 L 285,152 L 285,149 L 284,148 L 283,148 L 282,147 L 282,146 L 283,145 L 283,144 L 284,143 L 285,143 L 286,142 L 287,142 L 291,138 L 291,136 L 290,135 L 290,134 L 289,133 L 289,132 L 288,131 L 287,131 L 287,133 L 286,134 L 286,135 L 285,136 L 284,136 L 283,135 L 281,135 L 279,133 L 279,132 L 278,131 L 275,131 L 275,134 L 274,135 L 272,135 L 271,134 L 269,134 L 268,133 L 267,133 L 266,132 L 266,130 L 265,129 L 265,128 L 263,128 L 262,127 L 262,126 L 261,125 L 260,125 L 258,123 L 257,123 L 255,121 L 254,121 L 253,120 L 253,119 L 252,118 Z" fill="none" stroke="black" stroke-width="1"/>
</svg>