<svg xmlns="http://www.w3.org/2000/svg" width="216" height="145">
  <path d="M 138,34 L 137,35 L 136,35 L 136,36 L 135,37 L 134,37 L 132,39 L 132,40 L 131,41 L 131,42 L 132,43 L 132,48 L 133,48 L 135,50 L 137,50 L 139,52 L 139,53 L 141,53 L 142,52 L 143,52 L 143,51 L 144,50 L 147,50 L 147,49 L 149,47 L 149,46 L 151,44 L 153,44 L 155,42 L 155,38 L 154,39 L 153,38 L 152,38 L 149,35 L 148,36 L 147,36 L 146,35 L 144,35 L 143,36 L 141,36 L 139,34 Z" fill="none" stroke="black" stroke-width="1"/>
</svg>