<svg xmlns="http://www.w3.org/2000/svg" width="378" height="221">
  <path d="M 302,106 L 300,108 L 299,108 L 299,110 L 298,111 L 297,111 L 297,113 L 296,114 L 296,118 L 294,120 L 294,121 L 293,122 L 293,123 L 292,124 L 292,125 L 290,127 L 290,128 L 288,130 L 290,132 L 290,133 L 291,134 L 291,135 L 292,136 L 292,138 L 287,143 L 286,143 L 285,144 L 284,144 L 284,145 L 283,146 L 283,147 L 284,147 L 286,149 L 286,152 L 285,153 L 286,154 L 287,154 L 290,157 L 290,163 L 292,165 L 297,165 L 299,167 L 300,167 L 301,168 L 303,168 L 308,163 L 311,163 L 312,162 L 312,160 L 314,158 L 314,157 L 315,156 L 316,156 L 317,155 L 318,155 L 319,154 L 320,154 L 322,152 L 322,151 L 323,150 L 324,150 L 325,149 L 325,148 L 328,145 L 329,145 L 327,143 L 327,142 L 330,139 L 328,137 L 327,137 L 326,136 L 322,136 L 321,135 L 321,134 L 320,133 L 320,132 L 319,131 L 319,130 L 318,130 L 316,128 L 316,127 L 315,126 L 315,123 L 316,122 L 316,112 L 315,111 L 314,111 L 312,109 L 308,109 L 306,107 L 305,107 L 304,106 Z" fill="none" stroke="black" stroke-width="1"/>
</svg>