<svg xmlns="http://www.w3.org/2000/svg" width="378" height="221">
  <path d="M 328,146 L 326,148 L 326,149 L 324,151 L 323,151 L 323,152 L 320,155 L 319,155 L 318,156 L 317,156 L 316,157 L 315,157 L 315,158 L 313,160 L 313,162 L 311,164 L 308,164 L 303,169 L 301,169 L 300,168 L 299,168 L 297,166 L 292,166 L 289,163 L 289,157 L 287,155 L 286,155 L 285,154 L 285,155 L 283,157 L 282,157 L 281,158 L 280,158 L 279,159 L 281,161 L 281,162 L 282,163 L 282,166 L 281,167 L 281,171 L 279,173 L 278,173 L 277,174 L 274,174 L 275,174 L 277,176 L 277,177 L 279,177 L 280,178 L 278,180 L 277,180 L 276,181 L 276,183 L 277,183 L 279,181 L 281,181 L 282,182 L 282,184 L 283,185 L 283,186 L 282,187 L 282,188 L 279,191 L 279,192 L 281,192 L 282,191 L 284,191 L 286,193 L 292,193 L 295,196 L 295,198 L 296,197 L 297,197 L 298,196 L 299,196 L 300,195 L 301,195 L 302,194 L 305,194 L 306,195 L 306,196 L 307,196 L 308,195 L 309,196 L 309,194 L 310,193 L 312,193 L 313,194 L 313,193 L 314,192 L 314,189 L 313,188 L 314,187 L 314,184 L 316,182 L 318,182 L 318,179 L 320,177 L 323,177 L 324,178 L 325,177 L 325,169 L 326,168 L 326,166 L 325,165 L 325,162 L 324,161 L 324,156 L 325,155 L 325,154 L 327,152 L 329,152 L 329,148 L 328,147 Z" fill="none" stroke="black" stroke-width="1"/>
</svg>