<svg xmlns="http://www.w3.org/2000/svg" width="378" height="221">
  <path d="M 314,85 L 314,87 L 313,88 L 313,89 L 312,90 L 312,91 L 311,92 L 309,92 L 309,93 L 308,94 L 308,98 L 309,99 L 308,100 L 307,100 L 306,99 L 306,101 L 305,102 L 305,103 L 306,104 L 305,105 L 304,105 L 305,106 L 306,106 L 308,108 L 312,108 L 314,110 L 315,110 L 317,112 L 317,122 L 316,123 L 316,126 L 317,127 L 317,128 L 318,129 L 319,129 L 320,130 L 320,131 L 321,132 L 321,133 L 322,134 L 322,135 L 326,135 L 327,136 L 328,136 L 331,139 L 332,139 L 336,135 L 341,135 L 342,134 L 347,134 L 347,133 L 346,132 L 346,131 L 348,129 L 349,129 L 350,128 L 351,128 L 354,125 L 354,124 L 353,123 L 353,118 L 352,117 L 352,116 L 351,116 L 348,113 L 347,113 L 346,112 L 346,110 L 347,109 L 347,108 L 346,108 L 343,105 L 341,105 L 339,103 L 339,101 L 337,99 L 331,99 L 328,96 L 327,96 L 325,94 L 325,92 L 324,91 L 324,90 L 320,86 L 319,86 L 318,85 L 317,86 L 316,86 L 315,85 Z" fill="none" stroke="black" stroke-width="1"/>
</svg>