<svg xmlns="http://www.w3.org/2000/svg" width="378" height="221">
  <path d="M 290,20 L 289,21 L 287,21 L 286,22 L 284,22 L 283,23 L 281,23 L 280,24 L 273,24 L 272,25 L 270,25 L 269,26 L 269,27 L 267,29 L 267,30 L 266,31 L 265,31 L 265,33 L 261,37 L 261,39 L 259,41 L 259,42 L 258,43 L 254,43 L 253,44 L 249,44 L 248,45 L 238,45 L 237,44 L 232,44 L 231,43 L 228,43 L 227,42 L 223,42 L 222,41 L 220,41 L 219,42 L 212,42 L 210,44 L 204,44 L 202,46 L 201,46 L 200,47 L 199,47 L 198,48 L 197,48 L 198,49 L 198,50 L 199,51 L 199,53 L 198,54 L 200,56 L 202,56 L 203,57 L 204,57 L 205,58 L 206,58 L 207,59 L 211,59 L 212,60 L 213,60 L 214,59 L 215,59 L 216,58 L 217,58 L 218,59 L 231,59 L 232,60 L 233,60 L 234,59 L 242,59 L 243,60 L 248,60 L 249,61 L 250,61 L 252,63 L 255,63 L 256,64 L 261,64 L 265,68 L 266,68 L 267,69 L 269,69 L 270,70 L 271,70 L 272,71 L 273,71 L 274,72 L 275,72 L 277,70 L 278,71 L 278,72 L 281,72 L 282,73 L 282,74 L 286,74 L 287,75 L 287,76 L 291,76 L 292,77 L 297,77 L 298,76 L 299,76 L 299,73 L 300,72 L 303,72 L 304,73 L 304,75 L 306,75 L 307,76 L 307,77 L 310,77 L 311,78 L 311,82 L 312,82 L 313,83 L 313,84 L 315,84 L 316,85 L 317,85 L 318,84 L 319,85 L 320,85 L 325,90 L 325,91 L 326,92 L 326,94 L 327,95 L 328,95 L 331,98 L 337,98 L 340,101 L 340,103 L 341,104 L 343,104 L 346,107 L 347,107 L 348,108 L 352,108 L 353,107 L 353,106 L 354,105 L 354,102 L 359,97 L 360,97 L 361,96 L 366,96 L 367,97 L 368,96 L 369,96 L 370,97 L 371,97 L 372,98 L 374,98 L 375,97 L 375,95 L 376,94 L 376,93 L 377,92 L 377,91 L 373,87 L 372,87 L 370,85 L 368,85 L 366,83 L 366,81 L 367,80 L 367,79 L 366,78 L 366,76 L 365,75 L 365,74 L 364,73 L 364,72 L 362,72 L 360,70 L 360,67 L 359,66 L 359,64 L 355,60 L 354,60 L 353,59 L 351,59 L 348,56 L 347,56 L 346,55 L 346,54 L 347,53 L 347,52 L 349,50 L 350,50 L 351,49 L 354,49 L 351,46 L 349,46 L 348,45 L 348,44 L 349,43 L 350,43 L 351,42 L 351,41 L 348,41 L 347,42 L 348,43 L 347,44 L 347,45 L 346,46 L 345,46 L 344,45 L 343,45 L 342,44 L 335,44 L 334,43 L 333,43 L 332,42 L 332,41 L 331,40 L 330,40 L 329,39 L 329,38 L 330,37 L 331,38 L 332,38 L 332,36 L 331,35 L 331,34 L 332,33 L 334,33 L 335,32 L 332,29 L 331,29 L 327,25 L 325,25 L 324,24 L 323,24 L 322,23 L 319,23 L 318,22 L 316,22 L 315,21 L 311,21 L 310,20 Z" fill="none" stroke="black" stroke-width="1"/>
</svg>