<svg xmlns="http://www.w3.org/2000/svg" width="378" height="221">
  <path d="M 361,97 L 360,98 L 359,98 L 355,102 L 355,105 L 354,106 L 354,107 L 352,109 L 348,109 L 347,110 L 347,112 L 348,112 L 351,115 L 352,115 L 353,116 L 353,117 L 354,118 L 354,123 L 355,124 L 355,125 L 351,129 L 350,129 L 349,130 L 348,130 L 347,131 L 347,132 L 348,133 L 348,139 L 351,142 L 351,147 L 352,148 L 352,150 L 356,154 L 356,157 L 357,158 L 357,159 L 363,159 L 364,158 L 366,158 L 367,157 L 367,154 L 368,153 L 372,153 L 373,152 L 373,151 L 374,150 L 373,149 L 373,148 L 372,147 L 372,146 L 371,145 L 371,143 L 370,142 L 370,141 L 366,137 L 366,136 L 370,132 L 370,127 L 371,126 L 371,125 L 372,124 L 372,121 L 373,120 L 373,118 L 372,118 L 371,117 L 371,114 L 370,113 L 370,111 L 369,110 L 369,106 L 367,104 L 367,103 L 364,100 L 364,99 L 366,97 Z" fill="none" stroke="black" stroke-width="1"/>
</svg>