<svg xmlns="http://www.w3.org/2000/svg" width="474" height="213">
  <path d="M 364,15 L 363,16 L 362,16 L 362,17 L 361,18 L 361,21 L 362,22 L 362,25 L 361,26 L 360,26 L 359,27 L 355,27 L 354,28 L 353,27 L 353,25 L 351,25 L 349,23 L 348,23 L 347,24 L 346,24 L 346,27 L 343,30 L 342,30 L 340,32 L 342,34 L 342,35 L 344,37 L 344,39 L 343,40 L 343,41 L 344,42 L 344,45 L 345,45 L 348,42 L 349,42 L 349,41 L 351,39 L 355,39 L 356,40 L 356,41 L 357,42 L 357,43 L 356,44 L 356,45 L 355,46 L 355,47 L 356,48 L 357,48 L 358,47 L 359,47 L 360,48 L 360,47 L 361,46 L 361,45 L 364,42 L 364,41 L 365,40 L 366,40 L 367,39 L 372,39 L 374,41 L 375,41 L 376,40 L 376,39 L 375,38 L 375,37 L 374,36 L 374,35 L 376,33 L 377,33 L 377,32 L 379,30 L 379,29 L 377,29 L 375,27 L 374,27 L 372,25 L 372,23 L 369,20 L 369,19 L 368,18 L 368,17 L 367,16 L 367,15 Z" fill="none" stroke="black" stroke-width="1"/>
</svg>