<svg xmlns="http://www.w3.org/2000/svg" width="474" height="213">
  <path d="M 341,96 L 337,100 L 337,102 L 340,105 L 341,105 L 342,106 L 344,106 L 347,109 L 347,111 L 348,111 L 350,113 L 351,113 L 353,115 L 353,116 L 354,117 L 354,123 L 353,124 L 353,125 L 348,130 L 348,131 L 349,132 L 349,133 L 350,134 L 350,135 L 352,137 L 354,137 L 355,138 L 358,138 L 360,136 L 360,135 L 359,134 L 359,132 L 360,131 L 360,130 L 362,128 L 362,127 L 361,126 L 361,123 L 362,122 L 362,120 L 363,119 L 363,117 L 362,116 L 362,115 L 359,112 L 359,111 L 358,110 L 358,109 L 360,107 L 361,107 L 363,105 L 364,105 L 365,104 L 366,104 L 366,101 L 363,101 L 362,100 L 361,100 L 358,97 L 358,96 L 357,96 L 356,97 L 349,97 L 348,98 L 347,98 L 346,97 L 343,97 L 342,96 Z" fill="none" stroke="black" stroke-width="1"/>
</svg>