<svg xmlns="http://www.w3.org/2000/svg" width="474" height="213">
  <path d="M 397,81 L 396,82 L 397,83 L 397,88 L 395,90 L 392,90 L 390,88 L 389,88 L 388,89 L 388,92 L 389,93 L 389,94 L 388,95 L 388,96 L 387,97 L 388,98 L 388,100 L 391,100 L 393,98 L 397,102 L 396,103 L 396,104 L 398,104 L 399,103 L 401,105 L 401,106 L 402,105 L 406,109 L 408,109 L 410,107 L 410,106 L 411,105 L 412,105 L 412,103 L 414,101 L 414,99 L 415,98 L 415,93 L 414,92 L 414,90 L 413,89 L 412,89 L 411,88 L 410,89 L 409,88 L 409,87 L 408,86 L 405,86 L 404,87 L 403,86 L 402,86 L 400,84 L 400,83 L 399,82 L 399,81 Z" fill="none" stroke="black" stroke-width="1"/>
</svg>