<svg xmlns="http://www.w3.org/2000/svg" width="474" height="213">
  <path d="M 447,111 L 447,113 L 448,112 Z" fill="none" stroke="black" stroke-width="1"/>
  <path d="M 448,88 L 447,89 L 443,89 L 442,90 L 440,90 L 439,91 L 440,92 L 437,95 L 436,95 L 435,96 L 434,96 L 433,97 L 432,97 L 433,98 L 431,100 L 431,101 L 430,102 L 425,102 L 423,104 L 424,105 L 422,107 L 422,108 L 421,109 L 423,111 L 424,111 L 425,112 L 427,112 L 429,114 L 428,115 L 427,115 L 428,116 L 427,117 L 426,117 L 426,118 L 427,118 L 429,120 L 428,121 L 431,124 L 431,126 L 432,126 L 432,125 L 433,124 L 434,124 L 436,122 L 435,121 L 435,120 L 434,119 L 434,118 L 435,117 L 437,117 L 438,116 L 440,118 L 439,119 L 439,120 L 440,120 L 441,119 L 443,119 L 444,118 L 443,117 L 443,116 L 444,115 L 444,112 L 445,111 L 445,109 L 446,108 L 447,109 L 448,109 L 449,110 L 450,110 L 451,109 L 452,109 L 453,108 L 455,108 L 458,105 L 459,106 L 459,107 L 461,105 L 462,105 L 464,103 L 467,103 L 469,105 L 471,105 L 471,104 L 472,103 L 471,102 L 471,101 L 472,100 L 473,100 L 473,96 L 468,96 L 467,95 L 467,93 L 466,94 L 465,94 L 464,95 L 457,95 L 455,93 L 453,93 L 450,90 L 449,90 L 448,89 Z" fill="none" stroke="black" stroke-width="1"/>
</svg>