<svg xmlns="http://www.w3.org/2000/svg" width="474" height="213">
  <path d="M 365,105 L 364,106 L 363,106 L 361,108 L 360,108 L 359,109 L 359,110 L 360,111 L 360,112 L 363,115 L 363,116 L 364,117 L 364,119 L 363,120 L 363,122 L 362,123 L 362,126 L 363,127 L 363,128 L 361,130 L 361,131 L 360,132 L 360,134 L 361,135 L 361,136 L 359,138 L 359,140 L 360,140 L 364,144 L 364,145 L 365,146 L 365,147 L 366,147 L 367,146 L 369,146 L 370,147 L 371,146 L 374,149 L 374,147 L 375,146 L 376,146 L 377,145 L 377,143 L 379,141 L 380,141 L 381,140 L 385,140 L 386,141 L 388,141 L 391,144 L 391,145 L 392,146 L 393,146 L 394,147 L 397,147 L 401,143 L 403,143 L 404,144 L 405,144 L 406,145 L 406,146 L 407,147 L 408,146 L 408,145 L 409,144 L 410,144 L 411,143 L 412,143 L 413,144 L 414,143 L 414,142 L 415,141 L 415,140 L 414,139 L 414,138 L 413,137 L 412,137 L 410,135 L 410,134 L 409,134 L 406,131 L 406,130 L 405,130 L 404,131 L 403,131 L 402,130 L 401,130 L 398,127 L 397,127 L 396,126 L 395,126 L 394,127 L 393,127 L 392,126 L 392,125 L 391,125 L 390,124 L 388,124 L 387,123 L 380,123 L 377,120 L 379,118 L 379,117 L 377,115 L 377,114 L 376,114 L 372,110 L 372,109 L 371,108 L 370,108 L 369,107 L 369,106 L 368,105 Z" fill="none" stroke="black" stroke-width="1"/>
</svg>