<svg xmlns="http://www.w3.org/2000/svg" width="474" height="213">
  <path d="M 381,141 L 380,142 L 379,142 L 378,143 L 378,145 L 376,147 L 375,147 L 375,150 L 378,153 L 380,153 L 381,154 L 381,155 L 383,155 L 385,157 L 388,157 L 389,156 L 393,156 L 394,155 L 395,155 L 396,156 L 397,156 L 400,159 L 400,160 L 402,160 L 403,161 L 404,161 L 405,162 L 405,163 L 406,164 L 407,164 L 408,165 L 408,161 L 407,160 L 409,158 L 409,155 L 408,155 L 406,153 L 406,151 L 405,150 L 405,148 L 406,147 L 405,146 L 405,145 L 404,145 L 403,144 L 401,144 L 397,148 L 394,148 L 393,147 L 392,147 L 390,145 L 390,144 L 388,142 L 386,142 L 385,141 Z" fill="none" stroke="black" stroke-width="1"/>
</svg>