<svg xmlns="http://www.w3.org/2000/svg" width="474" height="213">
  <path d="M 433,151 L 433,152 L 432,153 L 431,153 L 431,154 L 429,156 L 424,156 L 424,157 L 423,158 L 422,158 L 419,161 L 418,161 L 415,158 L 414,159 L 412,157 L 411,157 L 410,156 L 410,155 L 410,158 L 408,160 L 410,160 L 413,163 L 414,163 L 416,165 L 416,168 L 415,169 L 414,169 L 414,171 L 418,171 L 419,170 L 418,169 L 420,167 L 421,167 L 422,168 L 423,168 L 427,164 L 428,165 L 429,165 L 431,167 L 430,168 L 432,170 L 434,170 L 435,171 L 438,171 L 440,169 L 440,168 L 441,167 L 441,162 L 440,161 L 440,159 L 439,158 L 439,157 L 438,156 L 438,154 L 437,153 L 437,152 L 436,152 L 435,151 Z" fill="none" stroke="black" stroke-width="1"/>
</svg>