<svg xmlns="http://www.w3.org/2000/svg" width="474" height="213">
  <path d="M 379,154 L 379,155 L 377,157 L 376,157 L 375,158 L 376,159 L 376,160 L 377,160 L 380,163 L 380,164 L 381,165 L 382,165 L 384,167 L 384,168 L 383,169 L 384,170 L 384,171 L 383,172 L 383,173 L 384,174 L 384,175 L 383,176 L 383,177 L 382,178 L 381,178 L 380,177 L 379,177 L 378,176 L 377,176 L 378,177 L 378,179 L 381,182 L 379,184 L 379,185 L 381,187 L 380,188 L 381,189 L 381,191 L 382,191 L 383,192 L 385,192 L 386,191 L 387,191 L 389,189 L 390,189 L 390,188 L 392,186 L 394,186 L 397,189 L 399,187 L 400,187 L 406,181 L 407,181 L 408,180 L 409,180 L 410,181 L 411,180 L 415,180 L 417,182 L 419,182 L 419,181 L 420,180 L 420,179 L 419,178 L 419,177 L 418,177 L 417,176 L 417,175 L 416,174 L 415,174 L 414,173 L 414,172 L 413,171 L 413,169 L 412,170 L 411,170 L 410,171 L 409,171 L 408,172 L 405,172 L 404,171 L 404,169 L 406,167 L 408,167 L 409,166 L 408,166 L 407,165 L 406,165 L 404,163 L 404,162 L 403,162 L 402,161 L 400,161 L 399,160 L 399,159 L 397,157 L 396,157 L 395,156 L 394,156 L 393,157 L 389,157 L 388,158 L 385,158 L 383,156 L 381,156 L 380,155 L 380,154 Z" fill="none" stroke="black" stroke-width="1"/>
</svg>