<svg xmlns="http://www.w3.org/2000/svg" width="474" height="213">
  <path d="M 373,156 L 372,157 L 371,157 L 370,158 L 369,157 L 366,157 L 366,158 L 365,159 L 365,161 L 364,162 L 364,164 L 361,167 L 361,168 L 360,169 L 361,170 L 357,174 L 356,174 L 356,175 L 359,178 L 359,180 L 360,181 L 361,181 L 362,182 L 363,182 L 364,183 L 367,183 L 368,182 L 371,185 L 371,186 L 372,187 L 372,191 L 371,192 L 371,193 L 372,194 L 372,197 L 373,196 L 373,195 L 374,194 L 374,193 L 375,192 L 376,192 L 377,191 L 378,191 L 379,190 L 380,190 L 380,189 L 379,188 L 380,187 L 378,185 L 378,184 L 380,182 L 377,179 L 377,177 L 376,176 L 377,175 L 378,175 L 379,176 L 380,176 L 381,177 L 382,177 L 382,176 L 383,175 L 383,174 L 382,173 L 382,172 L 383,171 L 383,170 L 382,169 L 383,168 L 383,167 L 382,166 L 381,166 L 379,164 L 379,163 L 377,161 L 376,161 L 375,160 L 375,159 L 373,157 Z" fill="none" stroke="black" stroke-width="1"/>
</svg>