<svg xmlns="http://www.w3.org/2000/svg" width="273" height="267">
  <path d="M 225,40 L 223,42 L 222,42 L 221,43 L 219,43 L 218,42 L 217,42 L 213,46 L 211,46 L 210,47 L 209,47 L 208,48 L 208,52 L 206,54 L 206,55 L 207,56 L 208,56 L 209,57 L 209,58 L 210,59 L 211,59 L 212,60 L 213,60 L 215,58 L 217,58 L 219,60 L 220,60 L 221,61 L 221,62 L 222,62 L 222,61 L 223,60 L 223,59 L 224,58 L 224,57 L 225,56 L 225,55 L 226,54 L 226,52 L 227,51 L 228,51 L 231,48 L 231,45 L 232,44 L 232,41 L 231,41 L 230,42 L 229,42 L 227,40 Z" fill="none" stroke="black" stroke-width="1"/>
</svg>