<svg xmlns="http://www.w3.org/2000/svg" width="273" height="267">
  <path d="M 205,56 L 205,57 L 202,60 L 199,60 L 197,62 L 196,62 L 195,63 L 195,64 L 193,66 L 193,67 L 191,69 L 191,70 L 192,70 L 193,69 L 194,69 L 195,70 L 197,70 L 199,72 L 199,73 L 197,75 L 198,76 L 198,77 L 199,78 L 200,78 L 201,79 L 204,79 L 208,75 L 209,75 L 209,74 L 211,72 L 212,72 L 213,71 L 214,71 L 217,68 L 218,68 L 218,66 L 220,64 L 220,61 L 219,61 L 217,59 L 215,59 L 213,61 L 212,61 L 211,60 L 210,60 L 208,58 L 208,57 L 207,57 L 206,56 Z" fill="none" stroke="black" stroke-width="1"/>
</svg>