<svg xmlns="http://www.w3.org/2000/svg" width="273" height="267">
  <path d="M 244,59 L 242,61 L 241,61 L 240,62 L 239,61 L 237,61 L 235,63 L 234,63 L 232,65 L 232,67 L 231,68 L 231,70 L 230,71 L 230,72 L 229,73 L 229,76 L 231,78 L 231,79 L 232,80 L 232,82 L 233,82 L 234,83 L 236,83 L 237,84 L 239,84 L 239,83 L 240,82 L 242,82 L 243,81 L 244,81 L 245,80 L 246,81 L 246,82 L 248,84 L 250,84 L 251,83 L 251,81 L 248,78 L 247,78 L 245,76 L 245,75 L 247,73 L 247,70 L 249,68 L 249,67 L 253,63 L 253,62 L 251,62 L 250,63 L 249,63 L 248,64 L 247,64 L 245,62 L 245,61 L 244,60 Z" fill="none" stroke="black" stroke-width="1"/>
</svg>