<svg xmlns="http://www.w3.org/2000/svg" width="273" height="267">
  <path d="M 268,63 L 268,64 L 271,64 L 272,65 L 272,64 L 271,63 Z" fill="none" stroke="black" stroke-width="1"/>
  <path d="M 254,61 L 254,63 L 250,67 L 250,68 L 248,70 L 248,73 L 246,75 L 246,76 L 247,77 L 248,77 L 252,81 L 252,84 L 254,86 L 255,86 L 257,84 L 257,83 L 259,81 L 259,79 L 261,77 L 262,78 L 265,78 L 266,79 L 267,78 L 266,77 L 266,74 L 267,73 L 267,71 L 268,70 L 270,70 L 269,69 L 268,70 L 267,70 L 267,71 L 266,72 L 265,72 L 264,73 L 263,72 L 263,71 L 267,67 L 269,67 L 266,67 L 265,66 L 263,66 L 260,63 L 260,62 L 259,61 Z" fill="none" stroke="black" stroke-width="1"/>
  <path d="M 270,59 L 270,60 L 271,60 L 271,59 Z" fill="none" stroke="black" stroke-width="1"/>
</svg>