<svg xmlns="http://www.w3.org/2000/svg" width="273" height="267">
  <path d="M 211,73 L 210,74 L 210,75 L 209,76 L 208,76 L 207,77 L 207,80 L 208,80 L 211,83 L 210,84 L 211,85 L 211,86 L 212,87 L 212,88 L 214,90 L 214,93 L 217,93 L 219,95 L 219,96 L 218,97 L 218,99 L 220,101 L 220,104 L 221,105 L 221,107 L 223,107 L 224,108 L 226,108 L 228,106 L 228,105 L 233,100 L 234,100 L 235,99 L 236,99 L 237,98 L 238,98 L 241,95 L 239,93 L 240,92 L 239,91 L 239,90 L 237,88 L 239,86 L 239,85 L 237,85 L 236,84 L 234,84 L 233,83 L 232,83 L 231,82 L 231,80 L 230,79 L 230,78 L 228,76 L 227,77 L 226,77 L 225,78 L 219,78 L 218,79 L 217,78 L 216,78 Z" fill="none" stroke="black" stroke-width="1"/>
</svg>