<svg xmlns="http://www.w3.org/2000/svg" width="273" height="267">
  <path d="M 183,70 L 183,71 L 181,73 L 181,74 L 180,75 L 180,77 L 181,78 L 181,77 L 182,76 L 183,77 L 184,76 L 185,76 L 186,77 L 186,78 L 185,79 L 185,80 L 184,81 L 184,84 L 183,85 L 182,85 L 181,86 L 181,88 L 182,89 L 182,90 L 185,93 L 185,94 L 186,95 L 186,96 L 189,99 L 189,100 L 190,100 L 191,101 L 191,102 L 192,103 L 192,104 L 193,105 L 195,103 L 195,101 L 196,100 L 198,100 L 199,99 L 200,99 L 202,101 L 202,100 L 203,99 L 205,99 L 206,98 L 207,99 L 207,98 L 208,97 L 209,97 L 210,98 L 211,97 L 212,97 L 212,94 L 213,93 L 213,90 L 211,88 L 211,87 L 210,86 L 210,85 L 209,84 L 210,83 L 208,81 L 207,81 L 206,80 L 206,78 L 204,80 L 201,80 L 200,79 L 199,79 L 197,77 L 197,76 L 196,75 L 198,73 L 198,72 L 197,71 L 195,71 L 194,70 L 193,70 L 192,71 L 190,71 L 189,72 L 186,72 L 184,70 Z" fill="none" stroke="black" stroke-width="1"/>
</svg>