<svg xmlns="http://www.w3.org/2000/svg" width="273" height="267">
  <path d="M 213,94 L 213,97 L 212,98 L 211,98 L 210,99 L 209,98 L 208,98 L 208,99 L 207,100 L 206,99 L 205,100 L 203,100 L 203,101 L 202,102 L 200,100 L 199,100 L 198,101 L 196,101 L 196,103 L 193,106 L 191,104 L 191,107 L 194,110 L 192,112 L 192,113 L 191,114 L 190,114 L 189,115 L 187,115 L 186,116 L 185,115 L 185,116 L 184,117 L 184,120 L 185,120 L 186,121 L 189,121 L 190,120 L 192,120 L 193,121 L 193,122 L 195,122 L 196,123 L 198,123 L 201,126 L 201,130 L 202,131 L 202,135 L 203,136 L 204,136 L 205,137 L 205,138 L 206,138 L 207,137 L 211,137 L 211,135 L 212,134 L 212,132 L 213,131 L 213,130 L 214,129 L 214,128 L 215,127 L 215,126 L 214,125 L 214,119 L 218,115 L 218,114 L 219,113 L 221,113 L 222,114 L 224,112 L 224,109 L 223,108 L 221,108 L 220,107 L 220,105 L 219,104 L 219,101 L 217,99 L 217,97 L 218,96 L 218,95 L 217,94 Z" fill="none" stroke="black" stroke-width="1"/>
</svg>