<svg xmlns="http://www.w3.org/2000/svg" width="273" height="267">
  <path d="M 183,120 L 183,122 L 186,125 L 184,127 L 183,127 L 183,128 L 182,129 L 182,131 L 183,132 L 181,134 L 180,134 L 179,135 L 177,135 L 177,136 L 178,137 L 177,138 L 177,139 L 176,140 L 176,141 L 175,142 L 175,143 L 174,144 L 174,145 L 173,146 L 173,148 L 174,149 L 174,151 L 175,152 L 176,152 L 177,153 L 179,153 L 180,154 L 182,154 L 183,155 L 183,156 L 184,157 L 186,157 L 187,156 L 188,157 L 188,158 L 190,160 L 191,159 L 191,157 L 190,156 L 190,153 L 189,152 L 189,151 L 188,150 L 188,148 L 189,147 L 189,145 L 191,143 L 192,143 L 193,142 L 193,141 L 195,139 L 197,139 L 198,140 L 199,140 L 201,142 L 204,142 L 205,141 L 205,139 L 204,138 L 204,137 L 203,137 L 201,135 L 201,131 L 200,130 L 200,126 L 198,124 L 196,124 L 195,123 L 193,123 L 192,122 L 192,121 L 190,121 L 189,122 L 186,122 L 185,121 L 184,121 Z" fill="none" stroke="black" stroke-width="1"/>
</svg>