<svg xmlns="http://www.w3.org/2000/svg" width="273" height="267">
  <path d="M 260,147 L 260,148 L 259,149 L 258,149 L 257,150 L 254,150 L 254,151 L 253,152 L 252,152 L 252,153 L 251,154 L 251,156 L 249,158 L 248,158 L 248,159 L 246,161 L 248,163 L 250,163 L 251,164 L 253,164 L 254,163 L 255,163 L 257,161 L 258,161 L 259,160 L 260,160 L 261,159 L 262,159 L 265,156 L 265,153 L 267,151 L 267,150 L 265,150 L 264,149 L 263,149 L 262,148 L 262,147 Z" fill="none" stroke="black" stroke-width="1"/>
</svg>