<svg xmlns="http://www.w3.org/2000/svg" width="273" height="267">
  <path d="M 265,157 L 262,160 L 261,160 L 260,161 L 259,161 L 258,162 L 257,162 L 255,164 L 254,164 L 253,165 L 251,165 L 250,164 L 248,164 L 246,162 L 245,163 L 245,165 L 242,168 L 242,173 L 243,174 L 243,179 L 244,180 L 244,181 L 245,182 L 245,183 L 246,184 L 246,186 L 250,190 L 251,190 L 252,189 L 253,189 L 254,188 L 256,188 L 256,187 L 257,186 L 257,185 L 258,184 L 258,182 L 259,181 L 259,178 L 260,177 L 260,173 L 261,172 L 261,170 L 262,169 L 262,168 L 261,167 L 262,166 L 262,165 L 264,163 L 264,161 L 265,160 Z" fill="none" stroke="black" stroke-width="1"/>
</svg>