<svg xmlns="http://www.w3.org/2000/svg" width="273" height="267">
  <path d="M 190,178 L 191,179 L 191,178 Z" fill="none" stroke="black" stroke-width="1"/>
  <path d="M 173,151 L 172,152 L 171,152 L 169,154 L 168,154 L 168,155 L 171,158 L 171,159 L 174,162 L 174,165 L 176,167 L 176,169 L 171,174 L 172,175 L 172,176 L 173,177 L 173,180 L 175,182 L 175,183 L 179,187 L 181,187 L 182,186 L 182,183 L 183,182 L 186,182 L 186,181 L 183,181 L 182,180 L 182,179 L 183,178 L 184,179 L 187,179 L 187,177 L 188,176 L 188,175 L 189,174 L 191,174 L 192,175 L 193,175 L 192,174 L 192,172 L 191,171 L 191,169 L 190,168 L 190,163 L 189,162 L 189,160 L 187,158 L 187,157 L 186,158 L 184,158 L 182,156 L 182,155 L 180,155 L 179,154 L 177,154 L 176,153 L 175,153 Z" fill="none" stroke="black" stroke-width="1"/>
</svg>