<svg xmlns="http://www.w3.org/2000/svg" width="273" height="267">
  <path d="M 164,154 L 163,155 L 159,155 L 158,156 L 157,156 L 156,157 L 153,157 L 149,161 L 149,163 L 148,164 L 146,164 L 146,165 L 145,166 L 144,166 L 143,167 L 143,168 L 144,169 L 145,169 L 146,170 L 147,169 L 150,172 L 149,173 L 150,174 L 145,179 L 144,179 L 141,182 L 142,183 L 144,183 L 146,185 L 146,186 L 147,186 L 148,187 L 148,188 L 147,189 L 147,190 L 148,191 L 151,191 L 153,189 L 155,189 L 156,190 L 155,191 L 155,193 L 157,193 L 157,191 L 159,189 L 163,189 L 165,191 L 167,191 L 167,189 L 169,187 L 171,189 L 173,189 L 174,188 L 177,188 L 178,187 L 174,183 L 174,182 L 172,180 L 172,177 L 171,176 L 171,175 L 170,174 L 175,169 L 175,167 L 173,165 L 173,162 L 170,159 L 170,158 L 167,155 L 167,154 Z" fill="none" stroke="black" stroke-width="1"/>
</svg>