<svg xmlns="http://www.w3.org/2000/svg" width="273" height="267">
  <path d="M 131,142 L 129,144 L 128,144 L 127,145 L 127,147 L 128,148 L 128,152 L 127,153 L 126,153 L 124,151 L 124,150 L 123,149 L 119,149 L 118,148 L 116,148 L 116,151 L 115,152 L 115,153 L 113,155 L 113,160 L 114,161 L 114,162 L 113,163 L 113,164 L 114,165 L 115,165 L 116,164 L 116,162 L 117,161 L 118,161 L 120,163 L 120,165 L 121,166 L 122,166 L 124,168 L 124,172 L 125,173 L 125,175 L 127,173 L 128,173 L 129,172 L 130,172 L 130,170 L 131,169 L 132,169 L 133,170 L 135,170 L 137,168 L 137,167 L 138,166 L 143,166 L 144,165 L 145,165 L 145,164 L 146,163 L 148,163 L 148,161 L 151,158 L 150,158 L 149,157 L 149,156 L 150,155 L 150,154 L 151,153 L 151,152 L 153,150 L 155,150 L 155,147 L 156,146 L 156,145 L 155,144 L 154,144 L 153,143 L 151,143 L 150,144 L 149,144 L 148,145 L 146,145 L 144,143 L 143,143 L 142,144 L 141,144 L 140,145 L 135,145 L 134,144 L 134,143 L 133,143 L 132,142 Z" fill="none" stroke="black" stroke-width="1"/>
</svg>