<svg xmlns="http://www.w3.org/2000/svg" width="273" height="267">
  <path d="M 87,219 L 89,219 Z" fill="none" stroke="black" stroke-width="1"/>
  <path d="M 99,190 L 98,191 L 97,191 L 96,192 L 94,192 L 92,194 L 93,195 L 93,196 L 94,197 L 93,198 L 92,198 L 91,199 L 90,199 L 89,198 L 87,198 L 86,199 L 86,200 L 87,201 L 85,203 L 81,203 L 80,204 L 80,205 L 79,206 L 78,206 L 78,207 L 81,210 L 81,211 L 80,212 L 80,213 L 79,214 L 78,214 L 77,215 L 77,216 L 76,217 L 76,222 L 77,223 L 77,226 L 79,228 L 80,228 L 81,229 L 80,230 L 80,231 L 82,231 L 83,232 L 85,232 L 86,231 L 87,231 L 87,230 L 88,229 L 88,227 L 87,227 L 85,225 L 85,223 L 84,223 L 83,222 L 83,219 L 84,218 L 85,218 L 87,216 L 88,217 L 89,217 L 89,216 L 90,215 L 91,215 L 91,214 L 92,213 L 95,213 L 95,212 L 97,210 L 98,211 L 101,211 L 102,210 L 103,210 L 104,211 L 104,207 L 105,206 L 105,204 L 103,204 L 102,203 L 102,200 L 107,195 L 107,194 L 106,193 L 105,193 L 102,196 L 101,195 L 101,194 L 102,193 L 102,192 L 101,191 L 100,191 Z" fill="none" stroke="black" stroke-width="1"/>
</svg>