<svg xmlns="http://www.w3.org/2000/svg" width="273" height="267">
  <path d="M 74,237 L 74,238 L 73,239 L 72,239 L 71,238 L 70,238 L 69,239 L 68,239 L 68,240 L 69,239 L 70,240 L 70,241 L 69,242 L 68,242 L 67,243 L 66,243 L 63,246 L 62,246 L 60,248 L 60,255 L 61,256 L 61,261 L 62,261 L 63,262 L 64,262 L 65,263 L 67,263 L 68,264 L 72,264 L 74,266 L 75,265 L 76,266 L 76,264 L 78,262 L 80,262 L 81,263 L 81,262 L 82,261 L 82,260 L 83,259 L 84,259 L 85,258 L 86,258 L 87,257 L 88,257 L 88,254 L 89,253 L 89,251 L 90,250 L 90,248 L 91,247 L 89,247 L 88,248 L 87,248 L 86,249 L 85,249 L 84,250 L 83,250 L 81,248 L 79,248 L 77,246 L 77,245 L 75,243 L 76,242 L 76,241 L 77,240 L 76,239 L 78,237 Z" fill="none" stroke="black" stroke-width="1"/>
</svg>