<svg xmlns="http://www.w3.org/2000/svg" width="273" height="267">
  <path d="M 57,189 L 55,191 L 55,194 L 56,194 L 57,193 L 58,193 L 59,194 L 59,196 L 58,197 L 55,197 L 54,198 L 53,198 L 53,201 L 52,202 L 51,202 L 50,203 L 49,203 L 49,205 L 47,207 L 48,208 L 48,209 L 49,210 L 51,210 L 52,209 L 53,209 L 54,210 L 54,209 L 55,208 L 56,208 L 57,209 L 58,208 L 57,207 L 57,206 L 56,205 L 56,204 L 57,203 L 58,204 L 59,204 L 60,205 L 60,207 L 61,208 L 61,209 L 62,208 L 63,208 L 64,209 L 67,209 L 68,210 L 68,211 L 67,212 L 72,212 L 73,211 L 73,210 L 74,209 L 76,211 L 77,210 L 78,211 L 80,211 L 80,210 L 77,207 L 77,203 L 76,202 L 76,201 L 75,200 L 75,198 L 76,197 L 79,197 L 80,196 L 80,191 L 79,190 L 78,190 L 77,191 L 71,191 L 70,192 L 69,192 L 68,193 L 66,193 L 65,192 L 62,192 L 59,189 Z" fill="none" stroke="black" stroke-width="1"/>
</svg>