<svg xmlns="http://www.w3.org/2000/svg" width="273" height="267">
  <path d="M 104,167 L 104,168 L 101,171 L 100,170 L 99,170 L 95,174 L 93,172 L 93,171 L 91,171 L 90,172 L 89,172 L 88,171 L 86,171 L 85,170 L 83,170 L 82,169 L 81,170 L 81,171 L 79,173 L 78,172 L 77,173 L 76,172 L 75,172 L 74,173 L 74,175 L 73,176 L 73,177 L 70,180 L 70,182 L 72,184 L 73,184 L 74,185 L 74,188 L 75,189 L 75,190 L 77,190 L 78,189 L 79,189 L 81,191 L 81,196 L 79,198 L 76,198 L 76,200 L 77,201 L 77,202 L 78,203 L 78,205 L 79,205 L 79,204 L 81,202 L 85,202 L 86,201 L 85,200 L 85,199 L 87,197 L 89,197 L 90,198 L 91,198 L 92,197 L 93,197 L 92,196 L 92,195 L 91,194 L 94,191 L 96,191 L 97,190 L 98,190 L 98,189 L 99,188 L 101,188 L 102,187 L 102,186 L 103,185 L 103,184 L 102,183 L 102,179 L 103,178 L 103,177 L 104,176 L 104,175 L 106,173 L 106,171 L 107,170 L 109,170 L 108,169 L 107,169 L 105,167 Z" fill="none" stroke="black" stroke-width="1"/>
</svg>