<svg xmlns="http://www.w3.org/2000/svg" width="273" height="267">
  <path d="M 73,135 L 73,136 L 70,139 L 68,139 L 66,141 L 63,141 L 59,145 L 58,145 L 56,143 L 55,143 L 54,144 L 54,146 L 51,149 L 49,149 L 48,150 L 47,150 L 46,149 L 46,148 L 45,148 L 44,149 L 43,148 L 42,148 L 40,146 L 40,145 L 39,144 L 39,143 L 38,143 L 37,144 L 36,144 L 36,147 L 34,149 L 33,148 L 32,149 L 30,149 L 29,150 L 33,154 L 33,155 L 34,156 L 33,157 L 34,158 L 33,159 L 35,161 L 35,162 L 37,164 L 38,164 L 40,166 L 43,166 L 44,165 L 45,165 L 46,166 L 47,165 L 48,165 L 49,166 L 52,163 L 53,163 L 54,164 L 55,164 L 56,165 L 56,167 L 57,168 L 58,168 L 60,170 L 60,171 L 61,171 L 62,170 L 63,171 L 64,171 L 66,173 L 66,175 L 67,176 L 67,179 L 68,180 L 69,180 L 72,177 L 72,176 L 73,175 L 73,173 L 75,171 L 76,171 L 77,172 L 78,171 L 79,172 L 80,171 L 80,170 L 81,169 L 81,165 L 79,163 L 79,161 L 76,158 L 76,157 L 75,156 L 75,153 L 76,152 L 76,148 L 75,147 L 75,145 L 76,144 L 76,142 L 77,141 L 77,140 L 76,139 L 76,138 L 77,137 L 77,135 Z" fill="none" stroke="black" stroke-width="1"/>
</svg>