<svg xmlns="http://www.w3.org/2000/svg" width="273" height="267">
  <path d="M 52,164 L 49,167 L 48,166 L 47,166 L 46,167 L 45,166 L 44,166 L 43,167 L 42,167 L 45,170 L 45,171 L 46,172 L 44,174 L 42,174 L 42,176 L 41,177 L 41,179 L 40,180 L 38,180 L 37,181 L 37,182 L 38,183 L 38,185 L 37,186 L 36,186 L 35,187 L 33,187 L 33,189 L 30,192 L 29,192 L 28,193 L 28,196 L 29,197 L 29,198 L 31,200 L 31,202 L 32,201 L 33,201 L 36,204 L 36,205 L 38,207 L 39,207 L 40,208 L 43,208 L 44,207 L 45,207 L 46,208 L 46,207 L 48,205 L 48,203 L 49,202 L 50,202 L 51,201 L 52,201 L 52,198 L 53,197 L 54,197 L 55,196 L 58,196 L 58,194 L 57,194 L 56,195 L 55,195 L 54,194 L 54,191 L 57,188 L 59,188 L 62,191 L 65,191 L 66,192 L 68,192 L 69,191 L 70,191 L 71,190 L 74,190 L 74,189 L 73,188 L 73,185 L 72,185 L 69,182 L 69,181 L 68,181 L 66,179 L 66,176 L 65,175 L 65,173 L 64,172 L 63,172 L 62,171 L 61,172 L 60,172 L 59,171 L 59,170 L 58,169 L 57,169 L 55,167 L 55,165 L 54,165 L 53,164 Z" fill="none" stroke="black" stroke-width="1"/>
</svg>