<svg xmlns="http://www.w3.org/2000/svg" width="190" height="226">
  <path d="M 43,167 L 42,168 L 41,168 L 40,169 L 37,169 L 36,170 L 35,170 L 31,174 L 30,174 L 28,176 L 27,175 L 26,175 L 25,176 L 25,179 L 27,181 L 27,182 L 28,183 L 28,185 L 27,186 L 26,186 L 27,187 L 27,188 L 30,191 L 30,193 L 31,194 L 31,196 L 32,197 L 32,198 L 33,199 L 32,200 L 33,200 L 35,202 L 37,202 L 39,200 L 44,200 L 45,201 L 45,202 L 47,202 L 48,203 L 49,203 L 49,201 L 51,199 L 53,199 L 54,198 L 57,198 L 58,197 L 59,197 L 62,194 L 63,194 L 62,193 L 64,191 L 64,190 L 67,187 L 67,186 L 68,185 L 68,184 L 69,183 L 66,180 L 65,181 L 64,180 L 64,179 L 63,180 L 62,179 L 61,180 L 60,180 L 59,179 L 58,179 L 57,178 L 56,178 L 53,175 L 53,173 L 52,172 L 51,172 L 50,171 L 50,170 L 49,169 L 47,169 L 46,168 L 47,167 Z" fill="none" stroke="black" stroke-width="1"/>
</svg>