<svg xmlns="http://www.w3.org/2000/svg" width="190" height="226">
  <path d="M 4,157 L 4,158 L 3,159 L 3,161 L 1,163 L 1,164 L 0,165 L 0,173 L 2,171 L 4,173 L 5,172 L 6,173 L 7,173 L 8,174 L 11,174 L 12,175 L 12,178 L 11,179 L 10,179 L 12,181 L 12,184 L 13,185 L 13,186 L 14,187 L 14,188 L 15,189 L 16,189 L 17,190 L 22,190 L 23,191 L 23,192 L 24,193 L 24,194 L 26,196 L 27,196 L 28,195 L 29,195 L 30,196 L 30,197 L 30,194 L 29,193 L 29,191 L 26,188 L 26,187 L 25,186 L 26,185 L 27,185 L 27,183 L 26,182 L 26,181 L 24,179 L 24,175 L 23,174 L 23,173 L 22,173 L 21,172 L 20,172 L 18,170 L 17,170 L 16,169 L 15,169 L 12,166 L 12,164 L 10,164 L 8,162 L 8,160 L 6,158 L 5,158 Z" fill="none" stroke="black" stroke-width="1"/>
</svg>