<svg xmlns="http://www.w3.org/2000/svg" width="190" height="226">
  <path d="M 14,86 L 13,87 L 13,90 L 12,91 L 10,91 L 9,92 L 9,95 L 8,96 L 9,97 L 9,100 L 8,101 L 8,102 L 7,103 L 6,102 L 4,102 L 4,104 L 5,105 L 5,108 L 6,109 L 6,111 L 7,112 L 7,113 L 9,115 L 9,116 L 10,117 L 11,116 L 16,121 L 16,123 L 17,124 L 17,125 L 19,127 L 19,129 L 18,130 L 18,131 L 16,133 L 16,135 L 15,136 L 15,138 L 14,139 L 13,139 L 14,140 L 17,140 L 20,137 L 21,137 L 23,139 L 23,140 L 24,141 L 27,141 L 27,140 L 28,139 L 31,139 L 32,140 L 35,140 L 38,137 L 39,138 L 40,138 L 41,139 L 44,139 L 44,138 L 46,136 L 47,136 L 48,135 L 51,135 L 51,133 L 53,131 L 54,131 L 54,129 L 53,128 L 53,127 L 52,126 L 52,125 L 51,124 L 50,124 L 48,122 L 47,122 L 45,120 L 45,115 L 44,114 L 44,112 L 43,111 L 44,110 L 43,109 L 43,108 L 42,107 L 41,107 L 40,106 L 41,105 L 43,105 L 46,102 L 46,100 L 45,99 L 45,96 L 44,95 L 44,92 L 41,92 L 39,94 L 38,94 L 37,95 L 36,95 L 35,96 L 34,96 L 33,97 L 32,97 L 31,98 L 30,98 L 29,99 L 28,99 L 24,103 L 24,104 L 23,105 L 22,104 L 21,105 L 20,105 L 19,104 L 19,103 L 18,102 L 18,101 L 16,99 L 17,98 L 16,97 L 16,89 L 17,88 L 17,86 Z" fill="none" stroke="black" stroke-width="1"/>
</svg>