<svg xmlns="http://www.w3.org/2000/svg" width="190" height="226">
  <path d="M 132,87 L 131,88 L 130,88 L 130,89 L 129,90 L 126,90 L 125,91 L 122,91 L 120,93 L 120,94 L 118,96 L 119,97 L 119,98 L 117,100 L 116,100 L 116,101 L 115,102 L 113,100 L 112,100 L 111,101 L 110,101 L 111,102 L 111,103 L 109,105 L 109,107 L 110,108 L 110,111 L 111,112 L 111,113 L 111,112 L 112,111 L 113,111 L 115,113 L 117,113 L 118,112 L 120,112 L 121,113 L 123,113 L 124,112 L 124,111 L 128,107 L 129,107 L 130,106 L 131,106 L 132,107 L 132,108 L 134,110 L 135,110 L 143,118 L 143,119 L 147,119 L 149,117 L 148,116 L 148,114 L 149,113 L 149,111 L 148,110 L 148,109 L 147,108 L 145,108 L 144,107 L 144,105 L 145,104 L 145,102 L 144,101 L 144,100 L 142,98 L 142,94 L 141,93 L 141,92 L 140,92 L 139,91 L 138,91 L 136,89 L 135,89 L 133,87 Z" fill="none" stroke="black" stroke-width="1"/>
</svg>