<svg xmlns="http://www.w3.org/2000/svg" width="190" height="226">
  <path d="M 120,21 L 119,22 L 118,22 L 117,23 L 115,23 L 114,24 L 114,25 L 111,28 L 108,28 L 107,27 L 103,27 L 103,29 L 100,32 L 100,33 L 101,34 L 101,36 L 98,39 L 99,39 L 102,42 L 104,42 L 105,41 L 106,41 L 107,42 L 108,41 L 109,41 L 110,42 L 111,42 L 112,43 L 112,44 L 113,45 L 111,47 L 111,50 L 115,54 L 115,55 L 116,55 L 117,56 L 118,55 L 120,57 L 120,58 L 121,59 L 121,61 L 123,63 L 124,63 L 125,64 L 125,65 L 126,66 L 126,67 L 127,68 L 128,68 L 130,66 L 132,66 L 134,68 L 135,67 L 135,66 L 136,65 L 138,65 L 141,62 L 142,62 L 143,61 L 144,62 L 145,62 L 146,61 L 147,62 L 148,62 L 147,61 L 147,60 L 145,58 L 144,58 L 143,57 L 143,54 L 142,53 L 142,52 L 139,52 L 135,48 L 135,44 L 138,41 L 139,41 L 140,40 L 141,40 L 143,38 L 143,37 L 142,36 L 142,34 L 141,33 L 141,28 L 142,27 L 142,26 L 139,23 L 131,23 L 130,24 L 128,24 L 127,23 L 126,23 L 125,22 L 124,22 L 123,21 Z" fill="none" stroke="black" stroke-width="1"/>
</svg>