<svg xmlns="http://www.w3.org/2000/svg" width="190" height="226">
  <path d="M 83,0 L 82,1 L 81,1 L 80,2 L 77,2 L 75,4 L 73,2 L 72,2 L 71,1 L 71,2 L 70,3 L 70,5 L 68,7 L 66,7 L 65,6 L 64,6 L 63,5 L 62,5 L 61,6 L 60,6 L 59,7 L 59,8 L 62,11 L 62,12 L 64,14 L 64,18 L 65,19 L 65,21 L 66,22 L 66,25 L 67,25 L 68,26 L 68,28 L 67,29 L 68,29 L 71,32 L 71,31 L 73,29 L 74,29 L 75,30 L 75,32 L 74,33 L 74,34 L 73,35 L 73,39 L 71,41 L 70,41 L 70,42 L 73,45 L 73,46 L 74,47 L 75,46 L 77,46 L 78,45 L 79,45 L 81,43 L 82,43 L 82,42 L 83,41 L 85,41 L 86,42 L 86,43 L 88,45 L 89,44 L 90,44 L 91,43 L 92,43 L 93,42 L 96,42 L 97,41 L 97,39 L 100,36 L 100,34 L 99,33 L 99,32 L 102,29 L 102,27 L 103,26 L 105,26 L 105,21 L 103,19 L 103,16 L 101,14 L 101,13 L 100,12 L 99,12 L 98,11 L 98,10 L 97,11 L 95,11 L 93,9 L 93,8 L 92,7 L 91,7 L 90,8 L 88,6 L 88,5 L 87,4 L 87,3 L 86,2 L 86,1 L 85,0 Z" fill="none" stroke="black" stroke-width="1"/>
</svg>