<svg xmlns="http://www.w3.org/2000/svg" width="273" height="267">
  <path d="M 79,6 L 78,7 L 77,7 L 77,8 L 78,9 L 78,11 L 79,12 L 81,12 L 82,13 L 82,14 L 83,15 L 81,17 L 80,17 L 79,18 L 76,18 L 75,19 L 75,21 L 74,22 L 74,24 L 75,25 L 75,26 L 74,27 L 75,28 L 75,31 L 76,32 L 76,33 L 77,33 L 78,34 L 78,35 L 79,36 L 80,36 L 83,39 L 84,39 L 86,37 L 87,37 L 88,36 L 90,36 L 91,37 L 92,37 L 93,36 L 97,36 L 98,37 L 102,37 L 104,39 L 107,39 L 108,40 L 109,40 L 110,39 L 112,39 L 113,40 L 117,40 L 117,39 L 118,38 L 119,38 L 121,40 L 122,40 L 124,42 L 126,42 L 127,43 L 129,43 L 130,44 L 131,44 L 133,42 L 134,42 L 130,38 L 129,38 L 128,37 L 127,37 L 125,35 L 124,35 L 123,34 L 123,33 L 127,29 L 127,28 L 128,27 L 128,24 L 129,23 L 129,22 L 130,21 L 129,20 L 127,20 L 126,21 L 124,21 L 123,22 L 119,22 L 118,21 L 115,21 L 113,19 L 111,19 L 110,18 L 109,18 L 108,17 L 106,17 L 105,16 L 105,15 L 104,14 L 104,13 L 101,13 L 100,12 L 100,9 L 97,6 L 96,6 L 95,7 L 86,7 L 85,8 L 84,8 L 83,7 L 82,7 L 81,6 Z" fill="none" stroke="black" stroke-width="1"/>
</svg>