<svg xmlns="http://www.w3.org/2000/svg" width="273" height="267">
  <path d="M 100,38 L 100,41 L 102,43 L 102,44 L 104,46 L 104,47 L 105,48 L 105,50 L 104,51 L 101,51 L 99,53 L 99,54 L 96,57 L 96,59 L 97,60 L 96,61 L 96,62 L 97,62 L 98,63 L 100,63 L 101,64 L 103,64 L 104,65 L 106,65 L 107,66 L 110,66 L 111,67 L 112,67 L 113,68 L 114,68 L 115,69 L 117,69 L 118,68 L 119,68 L 120,69 L 122,69 L 123,68 L 124,68 L 125,69 L 126,69 L 127,70 L 128,70 L 129,71 L 129,72 L 131,70 L 131,69 L 136,64 L 138,64 L 139,63 L 140,63 L 140,58 L 139,57 L 139,56 L 138,55 L 136,55 L 135,54 L 135,53 L 131,49 L 131,47 L 132,46 L 132,44 L 131,45 L 130,45 L 129,44 L 127,44 L 126,43 L 124,43 L 122,41 L 121,41 L 119,39 L 118,39 L 118,40 L 117,41 L 113,41 L 112,40 L 110,40 L 109,41 L 108,41 L 107,40 L 104,40 L 102,38 Z" fill="none" stroke="black" stroke-width="1"/>
</svg>