<svg xmlns="http://www.w3.org/2000/svg" width="273" height="267">
  <path d="M 88,84 L 87,85 L 86,85 L 86,86 L 84,88 L 84,89 L 82,91 L 80,91 L 77,88 L 77,86 L 76,85 L 74,85 L 73,86 L 72,86 L 71,87 L 70,87 L 69,86 L 68,87 L 69,88 L 68,89 L 69,90 L 69,91 L 70,92 L 70,95 L 71,96 L 71,97 L 72,98 L 72,99 L 73,100 L 72,101 L 72,102 L 74,104 L 73,105 L 73,106 L 72,107 L 71,107 L 71,108 L 70,109 L 69,109 L 69,110 L 68,111 L 67,111 L 69,113 L 70,113 L 71,114 L 72,114 L 73,115 L 73,117 L 74,118 L 73,119 L 73,120 L 72,121 L 71,121 L 72,122 L 72,124 L 74,126 L 74,132 L 75,133 L 75,134 L 77,134 L 76,133 L 77,132 L 78,132 L 78,131 L 79,130 L 80,130 L 81,129 L 83,131 L 83,132 L 84,133 L 87,133 L 91,129 L 91,128 L 95,124 L 97,124 L 100,121 L 100,119 L 105,114 L 106,114 L 107,113 L 108,114 L 109,114 L 110,115 L 111,115 L 112,114 L 112,113 L 113,112 L 107,106 L 106,106 L 104,104 L 105,103 L 105,102 L 104,101 L 105,100 L 101,96 L 100,96 L 98,98 L 97,98 L 96,99 L 94,97 L 94,95 L 92,93 L 93,92 L 94,92 L 95,91 L 95,88 L 94,87 L 94,86 L 92,86 L 91,85 L 89,85 Z" fill="none" stroke="black" stroke-width="1"/>
</svg>