<svg xmlns="http://www.w3.org/2000/svg" width="273" height="267">
  <path d="M 116,108 L 115,109 L 115,110 L 114,111 L 114,112 L 113,113 L 113,114 L 111,116 L 110,116 L 109,115 L 108,115 L 107,114 L 106,115 L 105,115 L 101,119 L 101,121 L 97,125 L 95,125 L 92,128 L 93,128 L 94,129 L 97,129 L 98,128 L 101,131 L 100,132 L 100,134 L 101,135 L 101,136 L 103,136 L 105,138 L 102,141 L 102,144 L 100,146 L 100,147 L 99,148 L 102,148 L 104,150 L 104,151 L 103,152 L 104,153 L 104,155 L 105,156 L 105,155 L 106,154 L 110,154 L 111,153 L 112,154 L 113,154 L 114,153 L 114,152 L 115,151 L 115,148 L 116,147 L 118,147 L 119,148 L 123,148 L 125,150 L 125,151 L 126,152 L 127,152 L 127,148 L 126,147 L 126,145 L 128,143 L 129,143 L 131,141 L 132,141 L 133,142 L 134,142 L 135,143 L 135,144 L 140,144 L 141,143 L 142,143 L 142,142 L 143,141 L 143,140 L 141,138 L 141,137 L 143,135 L 143,134 L 144,133 L 144,132 L 146,130 L 146,128 L 144,126 L 145,125 L 145,123 L 143,121 L 143,119 L 144,118 L 144,116 L 142,114 L 142,113 L 141,112 L 140,112 L 139,113 L 138,113 L 137,114 L 136,114 L 135,115 L 134,115 L 133,116 L 132,115 L 130,115 L 129,114 L 130,113 L 129,112 L 130,111 L 128,109 L 125,109 L 124,108 L 122,108 L 121,109 L 120,108 Z" fill="none" stroke="black" stroke-width="1"/>
</svg>