<svg xmlns="http://www.w3.org/2000/svg" width="474" height="213">
  <path d="M 339,165 L 338,166 L 337,166 L 337,167 L 336,168 L 336,169 L 337,170 L 337,172 L 339,174 L 339,176 L 338,177 L 336,177 L 336,178 L 338,180 L 338,182 L 337,183 L 338,184 L 337,185 L 338,186 L 337,187 L 337,189 L 339,191 L 339,193 L 340,194 L 341,194 L 342,195 L 345,195 L 346,196 L 346,197 L 347,198 L 348,198 L 349,199 L 350,198 L 352,198 L 353,199 L 354,199 L 355,200 L 357,200 L 358,199 L 360,199 L 361,200 L 361,201 L 362,202 L 364,202 L 365,203 L 367,203 L 367,202 L 368,201 L 368,198 L 370,196 L 371,196 L 371,194 L 370,193 L 370,192 L 371,191 L 371,187 L 370,186 L 370,185 L 368,183 L 367,184 L 364,184 L 363,183 L 362,183 L 361,182 L 360,182 L 358,180 L 358,178 L 355,175 L 355,174 L 354,173 L 354,172 L 349,167 L 348,167 L 347,166 L 345,166 L 344,165 L 343,166 L 342,166 L 341,165 Z" fill="none" stroke="black" stroke-width="1"/>
</svg>