<svg xmlns="http://www.w3.org/2000/svg" width="474" height="213">
  <path d="M 363,144 L 361,146 L 360,146 L 359,145 L 356,145 L 355,146 L 355,147 L 354,148 L 354,150 L 352,152 L 351,152 L 350,151 L 349,151 L 348,150 L 345,153 L 345,156 L 346,157 L 346,160 L 345,161 L 344,161 L 344,163 L 345,164 L 345,165 L 347,165 L 348,166 L 349,166 L 355,172 L 355,173 L 357,173 L 360,170 L 359,169 L 360,168 L 360,167 L 363,164 L 363,162 L 364,161 L 364,159 L 365,158 L 365,157 L 366,156 L 369,156 L 370,157 L 371,156 L 372,156 L 373,155 L 374,156 L 374,157 L 375,157 L 376,156 L 377,156 L 378,155 L 378,154 L 371,147 L 370,148 L 369,147 L 367,147 L 366,148 L 365,148 L 364,147 L 364,146 L 363,145 Z" fill="none" stroke="black" stroke-width="1"/>
</svg>