<svg xmlns="http://www.w3.org/2000/svg" width="474" height="213">
  <path d="M 306,58 L 305,59 L 305,60 L 304,61 L 303,61 L 302,62 L 301,62 L 301,66 L 295,72 L 295,73 L 294,74 L 294,75 L 293,76 L 293,77 L 290,80 L 290,81 L 291,82 L 296,82 L 297,83 L 298,83 L 300,85 L 300,86 L 301,87 L 303,87 L 304,88 L 307,88 L 308,87 L 309,87 L 309,85 L 310,84 L 311,84 L 314,81 L 315,81 L 316,82 L 317,82 L 318,81 L 320,83 L 320,85 L 321,86 L 321,87 L 323,89 L 323,91 L 324,92 L 325,92 L 326,91 L 327,91 L 328,90 L 331,93 L 332,93 L 333,94 L 340,94 L 341,93 L 341,89 L 337,85 L 337,84 L 336,83 L 336,82 L 332,78 L 332,77 L 333,76 L 333,75 L 335,73 L 335,71 L 336,70 L 336,69 L 338,67 L 338,66 L 339,65 L 340,65 L 339,64 L 338,64 L 336,62 L 335,62 L 334,63 L 333,63 L 332,64 L 329,64 L 328,65 L 326,65 L 325,66 L 323,66 L 322,67 L 320,67 L 318,69 L 317,69 L 311,63 L 310,63 L 306,59 Z" fill="none" stroke="black" stroke-width="1"/>
</svg>