<svg xmlns="http://www.w3.org/2000/svg" width="474" height="213">
  <path d="M 328,91 L 327,92 L 326,92 L 315,103 L 312,103 L 309,106 L 309,108 L 310,109 L 310,112 L 312,114 L 313,114 L 316,117 L 316,119 L 317,120 L 317,121 L 316,122 L 315,122 L 314,123 L 312,123 L 311,124 L 310,124 L 309,125 L 309,128 L 310,129 L 310,131 L 309,132 L 309,133 L 311,133 L 312,134 L 315,134 L 316,133 L 318,133 L 319,132 L 322,132 L 324,130 L 327,130 L 328,129 L 329,129 L 330,128 L 331,128 L 332,127 L 332,124 L 333,123 L 333,121 L 334,120 L 334,119 L 335,118 L 335,117 L 336,116 L 336,115 L 334,113 L 334,112 L 332,110 L 333,109 L 334,109 L 335,108 L 336,108 L 338,106 L 338,104 L 336,102 L 336,100 L 339,97 L 339,95 L 333,95 L 332,94 L 331,94 Z" fill="none" stroke="black" stroke-width="1"/>
</svg>