<svg xmlns="http://www.w3.org/2000/svg" width="474" height="213">
  <path d="M 299,63 L 299,64 L 298,65 L 295,65 L 293,67 L 292,67 L 291,68 L 288,68 L 287,69 L 286,69 L 285,70 L 285,72 L 284,73 L 283,73 L 279,77 L 278,77 L 277,78 L 276,78 L 275,79 L 274,79 L 274,80 L 273,81 L 273,82 L 268,87 L 268,88 L 266,90 L 266,91 L 264,93 L 263,93 L 260,96 L 260,97 L 259,98 L 259,99 L 257,101 L 256,101 L 255,100 L 252,100 L 250,98 L 250,97 L 249,96 L 244,96 L 243,95 L 242,95 L 241,94 L 240,94 L 237,91 L 236,91 L 237,92 L 237,93 L 235,95 L 235,97 L 234,98 L 234,100 L 235,101 L 235,102 L 237,104 L 239,104 L 240,105 L 242,105 L 243,106 L 244,106 L 245,107 L 249,107 L 250,106 L 251,106 L 253,108 L 254,108 L 255,109 L 256,109 L 257,110 L 257,114 L 258,115 L 258,117 L 256,119 L 257,120 L 257,122 L 256,123 L 256,126 L 255,127 L 256,128 L 256,130 L 255,131 L 255,133 L 256,134 L 257,133 L 258,133 L 260,135 L 263,132 L 265,132 L 267,134 L 267,136 L 269,138 L 269,142 L 270,142 L 271,143 L 272,143 L 273,144 L 273,145 L 279,145 L 280,144 L 282,144 L 283,145 L 283,144 L 284,143 L 284,138 L 283,137 L 283,136 L 284,135 L 284,132 L 285,131 L 285,130 L 287,128 L 287,126 L 286,125 L 286,123 L 285,122 L 285,121 L 284,120 L 284,118 L 283,117 L 283,116 L 284,115 L 284,111 L 285,110 L 285,107 L 286,106 L 286,105 L 289,102 L 289,101 L 290,100 L 290,94 L 289,93 L 289,91 L 288,90 L 288,89 L 287,88 L 287,87 L 286,86 L 286,84 L 288,82 L 288,81 L 292,77 L 292,76 L 293,75 L 293,74 L 294,73 L 294,72 L 300,66 L 300,63 Z" fill="none" stroke="black" stroke-width="1"/>
</svg>