<svg xmlns="http://www.w3.org/2000/svg" width="474" height="213">
  <path d="M 209,134 L 208,135 L 206,135 L 205,136 L 205,139 L 206,139 L 207,140 L 205,142 L 205,143 L 204,144 L 204,145 L 202,147 L 201,147 L 200,148 L 200,150 L 199,151 L 199,152 L 197,154 L 199,156 L 199,158 L 198,159 L 198,160 L 199,160 L 200,161 L 202,161 L 204,159 L 205,160 L 206,159 L 207,159 L 208,160 L 210,158 L 212,158 L 213,159 L 213,160 L 215,162 L 219,162 L 220,163 L 221,162 L 222,162 L 223,161 L 223,160 L 224,159 L 224,157 L 223,156 L 224,155 L 223,154 L 223,153 L 224,152 L 224,151 L 226,149 L 225,148 L 225,147 L 224,147 L 223,146 L 222,146 L 221,145 L 225,141 L 224,140 L 224,139 L 223,138 L 222,138 L 221,137 L 220,138 L 218,138 L 217,137 L 215,139 L 214,139 L 213,138 L 212,138 L 209,135 Z" fill="none" stroke="black" stroke-width="1"/>
</svg>