<svg xmlns="http://www.w3.org/2000/svg" width="216" height="145">
  <path d="M 99,68 L 98,69 L 92,69 L 91,70 L 84,70 L 83,71 L 82,71 L 80,73 L 79,72 L 77,72 L 76,71 L 72,71 L 71,72 L 70,72 L 69,73 L 66,73 L 65,72 L 65,74 L 67,76 L 67,78 L 69,80 L 69,82 L 72,82 L 73,83 L 73,86 L 78,86 L 80,84 L 84,84 L 85,83 L 85,82 L 87,80 L 91,80 L 92,81 L 93,81 L 94,82 L 95,82 L 96,83 L 96,84 L 97,84 L 98,83 L 99,83 L 100,84 L 103,84 L 105,82 L 105,81 L 106,80 L 108,80 L 108,75 L 109,74 L 109,73 L 107,71 L 106,71 L 104,69 L 103,69 L 102,68 Z" fill="none" stroke="black" stroke-width="1"/>
</svg>