<svg xmlns="http://www.w3.org/2000/svg" width="474" height="213">
  <path d="M 225,100 L 224,101 L 223,101 L 222,102 L 221,102 L 220,103 L 217,103 L 216,104 L 215,104 L 214,105 L 213,105 L 212,106 L 208,106 L 207,107 L 205,107 L 203,109 L 205,111 L 205,112 L 208,115 L 208,116 L 205,119 L 205,121 L 206,122 L 206,123 L 208,125 L 208,131 L 209,132 L 209,133 L 210,134 L 210,135 L 212,137 L 213,137 L 214,138 L 215,138 L 217,136 L 218,137 L 220,137 L 221,136 L 222,137 L 225,137 L 226,136 L 228,136 L 229,137 L 231,137 L 233,139 L 233,140 L 234,141 L 236,141 L 237,142 L 239,142 L 242,139 L 242,137 L 243,136 L 242,135 L 244,133 L 245,133 L 246,134 L 247,133 L 251,133 L 252,134 L 253,134 L 254,133 L 254,131 L 255,130 L 255,128 L 254,127 L 255,126 L 255,123 L 256,122 L 256,120 L 255,119 L 257,117 L 257,115 L 256,114 L 256,110 L 255,110 L 254,109 L 253,109 L 251,107 L 250,107 L 249,108 L 245,108 L 244,107 L 243,107 L 242,106 L 240,106 L 239,105 L 237,105 L 234,102 L 234,101 L 233,100 L 227,100 L 226,101 Z" fill="none" stroke="black" stroke-width="1"/>
</svg>