<svg xmlns="http://www.w3.org/2000/svg" width="474" height="213">
  <path d="M 180,65 L 179,66 L 178,66 L 177,67 L 176,67 L 175,68 L 174,68 L 173,67 L 172,67 L 171,68 L 169,68 L 168,67 L 159,67 L 157,69 L 158,70 L 158,72 L 156,74 L 155,74 L 154,73 L 153,74 L 151,74 L 149,72 L 148,72 L 147,71 L 144,71 L 143,72 L 143,74 L 145,76 L 144,77 L 144,78 L 143,79 L 143,80 L 141,82 L 141,83 L 139,85 L 138,85 L 138,86 L 141,89 L 142,89 L 144,91 L 145,91 L 146,92 L 148,92 L 149,93 L 150,93 L 152,95 L 154,95 L 155,96 L 156,96 L 160,100 L 158,102 L 160,104 L 160,105 L 162,107 L 162,109 L 163,110 L 163,111 L 165,113 L 165,114 L 167,116 L 167,119 L 167,118 L 168,117 L 170,117 L 171,118 L 173,118 L 174,117 L 177,117 L 178,116 L 178,109 L 177,108 L 177,106 L 176,105 L 176,102 L 177,101 L 177,99 L 178,98 L 178,97 L 179,96 L 179,94 L 180,93 L 179,93 L 177,91 L 176,91 L 175,90 L 174,90 L 170,86 L 169,86 L 168,85 L 173,80 L 176,80 L 177,79 L 177,78 L 178,77 L 178,74 L 177,73 L 179,71 L 179,70 L 181,68 L 181,66 Z" fill="none" stroke="black" stroke-width="1"/>
</svg>