<svg xmlns="http://www.w3.org/2000/svg" width="474" height="213">
  <path d="M 161,135 L 160,136 L 159,136 L 158,137 L 157,137 L 155,139 L 153,139 L 152,140 L 153,141 L 153,143 L 154,144 L 154,145 L 153,146 L 153,148 L 154,149 L 156,149 L 158,151 L 159,151 L 164,156 L 164,158 L 165,158 L 167,160 L 169,158 L 172,158 L 173,157 L 174,157 L 175,156 L 177,156 L 179,158 L 179,159 L 180,160 L 180,161 L 181,162 L 181,163 L 182,164 L 183,163 L 184,163 L 186,165 L 186,166 L 187,167 L 189,167 L 190,166 L 191,167 L 191,168 L 192,168 L 194,170 L 194,171 L 196,173 L 196,176 L 198,178 L 198,183 L 199,183 L 200,184 L 203,184 L 205,182 L 205,181 L 207,179 L 209,179 L 210,178 L 211,178 L 212,177 L 211,176 L 211,175 L 214,172 L 214,169 L 211,166 L 211,165 L 212,164 L 213,164 L 214,163 L 214,162 L 212,160 L 212,159 L 210,159 L 208,161 L 207,160 L 206,160 L 205,161 L 204,160 L 202,162 L 200,162 L 199,161 L 198,161 L 197,160 L 197,159 L 198,158 L 198,156 L 196,154 L 198,152 L 198,151 L 196,149 L 193,149 L 191,147 L 190,147 L 189,146 L 189,144 L 188,144 L 187,143 L 186,143 L 185,142 L 183,142 L 180,139 L 178,139 L 176,137 L 174,137 L 173,138 L 170,135 L 168,135 L 167,136 L 165,136 L 164,135 Z" fill="none" stroke="black" stroke-width="1"/>
</svg>