<svg xmlns="http://www.w3.org/2000/svg" width="474" height="213">
  <path d="M 130,84 L 129,85 L 128,85 L 128,87 L 129,88 L 129,89 L 134,94 L 135,94 L 137,96 L 138,96 L 142,100 L 140,102 L 137,102 L 136,103 L 136,104 L 138,106 L 138,107 L 136,109 L 135,109 L 135,110 L 137,110 L 141,114 L 140,115 L 137,115 L 136,116 L 135,116 L 134,117 L 134,118 L 133,119 L 133,120 L 134,120 L 137,123 L 139,123 L 140,124 L 141,124 L 146,129 L 146,131 L 147,132 L 147,135 L 148,136 L 150,136 L 151,137 L 151,138 L 152,139 L 153,138 L 155,138 L 157,136 L 158,136 L 159,135 L 160,135 L 161,134 L 163,134 L 161,132 L 165,128 L 165,125 L 167,123 L 167,122 L 168,121 L 168,120 L 167,120 L 166,119 L 166,116 L 164,114 L 164,113 L 162,111 L 162,110 L 161,109 L 161,107 L 159,105 L 159,104 L 157,102 L 159,100 L 156,97 L 155,97 L 154,96 L 152,96 L 150,94 L 149,94 L 148,93 L 146,93 L 145,92 L 144,92 L 142,90 L 141,90 L 137,86 L 137,85 L 136,85 L 135,84 L 134,84 L 133,85 L 132,85 L 131,84 Z" fill="none" stroke="black" stroke-width="1"/>
</svg>