<svg xmlns="http://www.w3.org/2000/svg" width="402" height="344">
  <path d="M 109,107 L 108,108 L 108,110 L 106,112 L 106,114 L 104,116 L 104,117 L 100,121 L 100,122 L 97,125 L 97,126 L 96,127 L 96,128 L 95,129 L 95,130 L 96,131 L 96,132 L 97,133 L 97,134 L 98,135 L 98,138 L 96,140 L 96,141 L 95,142 L 94,142 L 92,144 L 91,144 L 89,146 L 89,147 L 90,148 L 89,149 L 89,152 L 88,153 L 88,154 L 87,155 L 88,156 L 90,156 L 91,155 L 93,155 L 95,153 L 100,153 L 101,154 L 104,154 L 105,153 L 110,153 L 111,154 L 112,154 L 113,153 L 114,153 L 115,152 L 119,152 L 120,153 L 124,153 L 125,152 L 126,152 L 127,151 L 130,151 L 131,150 L 130,149 L 131,148 L 131,147 L 132,146 L 132,145 L 131,144 L 131,143 L 129,141 L 128,141 L 126,139 L 124,139 L 123,138 L 121,138 L 119,136 L 119,135 L 117,133 L 117,131 L 116,130 L 116,126 L 121,121 L 121,119 L 119,117 L 119,116 L 118,115 L 118,114 L 117,113 L 117,111 L 116,110 L 116,109 L 115,108 L 114,108 L 113,107 L 112,108 L 111,107 Z" fill="none" stroke="black" stroke-width="1"/>
</svg>