<svg xmlns="http://www.w3.org/2000/svg" width="402" height="344">
  <path d="M 227,210 L 227,213 L 225,215 L 224,215 L 223,216 L 222,216 L 222,218 L 221,219 L 221,223 L 219,225 L 216,225 L 216,226 L 215,227 L 215,228 L 216,229 L 216,230 L 213,233 L 212,233 L 212,239 L 210,241 L 214,245 L 214,246 L 216,248 L 216,252 L 217,253 L 219,253 L 220,252 L 221,252 L 222,251 L 224,251 L 225,252 L 226,252 L 227,253 L 229,253 L 230,254 L 238,254 L 238,253 L 239,252 L 239,251 L 240,250 L 240,248 L 239,247 L 239,246 L 238,245 L 238,243 L 235,240 L 235,238 L 236,237 L 236,236 L 237,235 L 237,232 L 236,231 L 236,230 L 235,230 L 233,228 L 233,227 L 234,226 L 234,225 L 237,222 L 237,219 L 239,217 L 236,214 L 236,213 L 233,213 L 231,211 L 228,211 Z" fill="none" stroke="black" stroke-width="1"/>
</svg>