<svg xmlns="http://www.w3.org/2000/svg" width="749" height="389">
  <path d="M 723,195 L 721,197 L 720,197 L 719,198 L 719,199 L 718,200 L 717,200 L 716,201 L 715,201 L 715,202 L 714,203 L 714,206 L 713,207 L 713,208 L 711,210 L 708,210 L 706,208 L 705,208 L 704,209 L 703,209 L 702,210 L 700,210 L 699,211 L 700,212 L 698,214 L 697,214 L 696,215 L 695,215 L 695,216 L 696,217 L 696,219 L 697,220 L 697,222 L 704,222 L 706,220 L 707,220 L 708,221 L 709,221 L 710,222 L 710,223 L 711,224 L 711,227 L 712,228 L 712,230 L 715,233 L 715,234 L 716,235 L 717,235 L 719,237 L 721,237 L 723,239 L 724,239 L 725,238 L 726,238 L 727,237 L 731,237 L 731,236 L 732,235 L 738,235 L 738,234 L 739,233 L 741,233 L 741,232 L 742,231 L 748,231 L 746,229 L 746,228 L 745,227 L 745,225 L 746,224 L 746,223 L 745,222 L 745,221 L 743,219 L 743,218 L 735,210 L 735,203 L 736,202 L 736,198 L 733,195 L 729,195 L 728,196 L 725,196 L 724,195 Z" fill="none" stroke="black" stroke-width="1"/>
</svg>