<svg xmlns="http://www.w3.org/2000/svg" width="402" height="344">
  <path d="M 124,207 L 123,208 L 121,208 L 121,212 L 120,213 L 118,213 L 117,214 L 108,214 L 108,215 L 107,216 L 105,216 L 105,217 L 104,218 L 98,218 L 98,219 L 97,220 L 93,220 L 92,221 L 91,221 L 91,222 L 95,226 L 97,226 L 98,227 L 98,228 L 99,228 L 100,229 L 108,229 L 109,230 L 110,230 L 111,231 L 112,231 L 114,233 L 114,234 L 116,236 L 117,236 L 117,235 L 119,233 L 120,233 L 121,232 L 124,232 L 125,231 L 126,231 L 127,230 L 128,230 L 128,229 L 129,228 L 130,229 L 133,229 L 135,231 L 135,233 L 138,233 L 139,232 L 141,232 L 141,231 L 143,229 L 144,229 L 144,228 L 149,223 L 149,221 L 148,220 L 148,211 L 150,209 L 151,209 L 146,209 L 145,208 L 137,208 L 136,207 L 133,207 L 132,208 L 127,208 L 126,207 Z" fill="none" stroke="black" stroke-width="1"/>
</svg>