<svg xmlns="http://www.w3.org/2000/svg" width="749" height="389">
  <path d="M 312,134 L 312,135 L 311,136 L 311,138 L 310,139 L 310,141 L 307,144 L 306,144 L 306,145 L 308,147 L 308,148 L 312,152 L 308,156 L 306,156 L 304,158 L 304,159 L 302,161 L 302,163 L 305,166 L 305,169 L 303,171 L 303,175 L 302,176 L 302,179 L 304,181 L 305,181 L 307,183 L 308,183 L 309,184 L 310,184 L 312,186 L 315,186 L 316,187 L 317,187 L 318,188 L 323,188 L 327,192 L 330,189 L 333,189 L 334,188 L 336,188 L 337,189 L 339,189 L 342,192 L 343,192 L 345,194 L 348,194 L 349,195 L 352,195 L 355,198 L 357,198 L 358,197 L 359,197 L 361,195 L 362,195 L 363,194 L 364,194 L 364,193 L 365,192 L 367,192 L 368,191 L 373,191 L 374,190 L 374,188 L 376,186 L 377,186 L 378,185 L 382,185 L 380,183 L 380,180 L 379,179 L 378,179 L 377,178 L 376,178 L 375,177 L 374,177 L 373,176 L 373,175 L 371,173 L 371,169 L 370,168 L 370,167 L 369,167 L 368,168 L 366,168 L 363,165 L 363,164 L 361,162 L 361,158 L 362,157 L 363,157 L 365,155 L 366,155 L 367,154 L 368,154 L 368,153 L 370,151 L 370,148 L 371,147 L 371,146 L 369,148 L 368,148 L 367,147 L 365,147 L 364,146 L 360,146 L 359,145 L 357,145 L 356,144 L 352,144 L 351,145 L 350,145 L 349,146 L 340,146 L 339,145 L 338,145 L 337,144 L 332,144 L 331,143 L 327,143 L 326,142 L 325,142 L 324,143 L 321,143 L 320,142 L 319,142 L 318,141 L 318,138 L 316,136 L 316,135 L 315,134 Z" fill="none" stroke="black" stroke-width="1"/>
</svg>