<svg xmlns="http://www.w3.org/2000/svg" width="749" height="389">
  <path d="M 334,189 L 333,190 L 330,190 L 327,193 L 327,200 L 326,201 L 326,202 L 324,204 L 316,204 L 315,203 L 309,203 L 308,204 L 304,204 L 301,207 L 301,209 L 302,210 L 302,211 L 304,213 L 304,215 L 308,219 L 309,219 L 314,224 L 314,227 L 315,228 L 315,230 L 316,231 L 317,231 L 318,232 L 318,233 L 321,236 L 322,236 L 323,237 L 324,237 L 325,238 L 326,237 L 329,237 L 331,235 L 333,235 L 334,236 L 335,236 L 336,237 L 337,237 L 338,238 L 339,238 L 340,239 L 341,239 L 342,240 L 343,240 L 345,242 L 348,242 L 349,243 L 350,243 L 351,244 L 355,244 L 356,243 L 361,243 L 361,239 L 362,238 L 362,235 L 365,232 L 365,228 L 364,227 L 364,226 L 363,225 L 363,223 L 367,219 L 367,216 L 366,215 L 366,212 L 362,208 L 362,206 L 363,205 L 363,204 L 364,203 L 364,202 L 365,201 L 365,194 L 366,193 L 365,193 L 365,194 L 364,195 L 363,195 L 362,196 L 361,196 L 359,198 L 358,198 L 357,199 L 355,199 L 352,196 L 349,196 L 348,195 L 345,195 L 343,193 L 342,193 L 339,190 L 337,190 L 336,189 Z" fill="none" stroke="black" stroke-width="1"/>
</svg>