<svg xmlns="http://www.w3.org/2000/svg" width="749" height="389">
  <path d="M 287,286 L 287,287 L 288,288 L 288,291 L 291,294 L 291,295 L 292,295 L 294,297 L 295,297 L 296,298 L 297,298 L 299,300 L 299,301 L 300,302 L 300,303 L 301,304 L 301,306 L 299,308 L 299,310 L 298,311 L 298,312 L 297,313 L 297,314 L 295,316 L 294,316 L 293,317 L 293,320 L 296,323 L 297,323 L 298,324 L 299,324 L 300,325 L 301,325 L 302,326 L 304,326 L 305,327 L 308,327 L 309,328 L 317,328 L 318,329 L 320,329 L 321,330 L 322,329 L 330,329 L 332,331 L 333,330 L 335,330 L 336,329 L 336,328 L 343,321 L 345,321 L 346,320 L 352,320 L 353,319 L 359,319 L 360,318 L 361,318 L 362,317 L 363,317 L 364,316 L 365,316 L 369,312 L 371,312 L 376,307 L 376,306 L 378,304 L 379,304 L 380,303 L 381,303 L 384,300 L 384,299 L 383,299 L 382,298 L 381,298 L 380,297 L 372,297 L 371,296 L 370,296 L 366,292 L 366,291 L 363,291 L 362,290 L 358,290 L 357,289 L 355,289 L 354,288 L 346,288 L 345,287 L 343,287 L 342,288 L 336,288 L 335,289 L 331,289 L 330,290 L 329,290 L 328,289 L 315,289 L 314,288 L 305,288 L 304,287 L 300,287 L 299,286 Z" fill="none" stroke="black" stroke-width="1"/>
</svg>