<svg xmlns="http://www.w3.org/2000/svg" width="710" height="350">
  <path d="M 606,211 L 605,212 L 604,212 L 603,213 L 602,213 L 601,214 L 600,214 L 599,215 L 598,215 L 597,216 L 596,216 L 595,217 L 594,217 L 593,218 L 592,218 L 591,219 L 589,219 L 588,220 L 584,220 L 583,221 L 583,225 L 582,226 L 582,229 L 583,230 L 583,232 L 586,235 L 586,237 L 587,238 L 587,239 L 585,241 L 585,242 L 587,242 L 588,243 L 590,243 L 591,244 L 592,244 L 594,246 L 593,247 L 593,248 L 599,248 L 600,247 L 601,247 L 602,246 L 603,246 L 604,245 L 607,245 L 608,244 L 611,244 L 612,245 L 615,245 L 616,246 L 617,246 L 618,247 L 619,247 L 621,249 L 622,249 L 624,251 L 625,251 L 626,252 L 627,252 L 629,254 L 630,254 L 631,255 L 634,255 L 635,256 L 636,256 L 637,255 L 640,255 L 641,254 L 642,254 L 643,253 L 644,253 L 646,251 L 647,251 L 650,248 L 650,243 L 651,242 L 652,243 L 654,243 L 655,242 L 656,242 L 656,241 L 654,239 L 654,237 L 653,236 L 653,235 L 654,234 L 654,232 L 657,229 L 656,229 L 655,228 L 654,228 L 651,225 L 649,225 L 647,223 L 646,223 L 645,222 L 645,219 L 644,219 L 643,218 L 642,218 L 641,217 L 640,217 L 639,216 L 638,216 L 637,215 L 632,215 L 631,216 L 629,216 L 628,217 L 621,217 L 620,216 L 618,216 L 615,213 L 612,213 L 611,212 L 610,212 L 609,211 Z" fill="none" stroke="black" stroke-width="1"/>
</svg>