<svg xmlns="http://www.w3.org/2000/svg" width="749" height="389">
  <path d="M 315,231 L 315,234 L 314,235 L 314,237 L 313,238 L 313,239 L 311,241 L 311,249 L 310,250 L 309,250 L 307,252 L 307,254 L 308,255 L 308,258 L 307,259 L 307,261 L 306,262 L 306,264 L 307,265 L 307,267 L 306,268 L 306,270 L 304,272 L 304,279 L 305,280 L 305,287 L 314,287 L 315,288 L 328,288 L 329,289 L 330,289 L 331,288 L 335,288 L 336,287 L 342,287 L 343,286 L 345,286 L 346,287 L 354,287 L 355,288 L 357,288 L 358,289 L 362,289 L 363,290 L 366,290 L 366,286 L 367,285 L 368,285 L 370,283 L 371,283 L 374,280 L 374,275 L 376,273 L 376,270 L 375,269 L 375,259 L 376,258 L 376,256 L 374,256 L 373,255 L 372,255 L 370,253 L 370,252 L 369,251 L 369,248 L 370,247 L 366,243 L 362,243 L 361,244 L 356,244 L 355,245 L 351,245 L 350,244 L 349,244 L 348,243 L 345,243 L 343,241 L 342,241 L 341,240 L 340,240 L 339,239 L 338,239 L 337,238 L 336,238 L 335,237 L 334,237 L 333,236 L 331,236 L 329,238 L 326,238 L 325,239 L 324,238 L 323,238 L 322,237 L 321,237 L 317,233 L 317,232 L 316,232 Z" fill="none" stroke="black" stroke-width="1"/>
</svg>