<svg xmlns="http://www.w3.org/2000/svg" width="194" height="149">
  <path d="M 89,17 L 89,18 L 88,19 L 88,20 L 86,22 L 85,22 L 84,23 L 78,23 L 76,25 L 75,25 L 72,28 L 70,26 L 69,26 L 68,25 L 65,25 L 64,24 L 62,24 L 62,25 L 64,27 L 64,28 L 63,29 L 63,31 L 62,32 L 62,40 L 63,41 L 63,43 L 64,44 L 64,45 L 68,45 L 69,44 L 71,44 L 72,45 L 73,45 L 74,46 L 78,46 L 79,47 L 80,47 L 81,48 L 82,48 L 84,50 L 85,50 L 86,51 L 87,51 L 88,50 L 88,49 L 89,48 L 90,48 L 90,46 L 91,45 L 93,45 L 96,42 L 98,42 L 98,39 L 97,38 L 97,31 L 99,29 L 101,29 L 102,30 L 103,30 L 103,28 L 104,27 L 104,26 L 103,25 L 95,25 L 94,24 L 94,23 L 93,22 L 93,21 L 94,20 L 94,19 L 93,19 L 91,17 Z" fill="none" stroke="black" stroke-width="1"/>
</svg>