<svg xmlns="http://www.w3.org/2000/svg" width="194" height="149">
  <path d="M 132,42 L 130,44 L 122,44 L 121,45 L 117,45 L 118,46 L 118,48 L 117,49 L 117,51 L 116,52 L 116,53 L 115,54 L 113,54 L 113,58 L 114,58 L 115,59 L 117,59 L 118,60 L 121,60 L 122,61 L 123,61 L 125,59 L 126,59 L 127,58 L 128,58 L 129,59 L 128,60 L 129,60 L 130,61 L 131,61 L 132,62 L 133,62 L 135,64 L 135,65 L 136,66 L 138,66 L 139,65 L 139,64 L 140,63 L 141,63 L 142,62 L 142,60 L 143,59 L 143,57 L 144,56 L 144,54 L 143,54 L 141,52 L 140,52 L 138,50 L 138,48 L 137,47 L 136,47 L 135,46 L 135,44 L 134,43 L 133,43 Z" fill="none" stroke="black" stroke-width="1"/>
</svg>