<svg xmlns="http://www.w3.org/2000/svg" width="194" height="149">
  <path d="M 142,24 L 141,25 L 140,25 L 140,26 L 137,29 L 138,30 L 136,32 L 137,32 L 138,33 L 138,34 L 137,35 L 136,35 L 134,37 L 134,39 L 133,40 L 132,40 L 133,41 L 133,42 L 134,42 L 136,44 L 136,46 L 137,46 L 139,48 L 139,50 L 140,51 L 141,51 L 143,53 L 144,53 L 146,55 L 146,56 L 147,57 L 147,58 L 150,61 L 151,61 L 152,60 L 154,60 L 155,61 L 156,61 L 159,64 L 159,65 L 160,66 L 160,67 L 162,67 L 163,66 L 163,65 L 164,64 L 163,63 L 163,62 L 160,59 L 160,58 L 159,58 L 157,56 L 157,53 L 155,51 L 154,51 L 153,50 L 153,49 L 154,48 L 154,38 L 155,37 L 155,34 L 154,35 L 152,33 L 152,32 L 151,31 L 151,30 L 150,29 L 150,28 L 149,28 L 147,26 L 147,25 L 146,25 L 145,24 Z" fill="none" stroke="black" stroke-width="1"/>
</svg>