<svg xmlns="http://www.w3.org/2000/svg" width="1028" height="413">
  <path d="M 465,288 L 464,289 L 465,290 L 465,291 L 464,292 L 462,290 L 462,291 L 461,292 L 462,293 L 462,296 L 462,293 L 463,292 L 464,292 L 465,293 L 466,292 L 467,292 L 467,290 Z" fill="none" stroke="black" stroke-width="1"/>
  <path d="M 460,278 L 459,279 L 459,280 L 461,282 L 461,279 Z" fill="none" stroke="black" stroke-width="1"/>
  <path d="M 457,260 L 457,261 L 459,261 L 459,260 Z" fill="none" stroke="black" stroke-width="1"/>
  <path d="M 466,238 L 466,239 L 465,240 L 464,240 L 463,241 L 462,241 L 462,242 L 461,243 L 458,243 L 458,244 L 461,244 L 463,242 L 464,242 L 464,241 L 465,240 L 467,240 L 468,241 L 474,241 L 475,242 L 476,242 L 477,243 L 475,245 L 474,245 L 473,244 L 472,245 L 470,243 L 466,243 L 463,246 L 461,246 L 460,247 L 460,248 L 462,248 L 464,250 L 463,251 L 466,251 L 467,252 L 468,252 L 469,251 L 471,251 L 472,252 L 471,253 L 470,253 L 469,254 L 466,254 L 465,253 L 461,253 L 460,254 L 460,255 L 461,255 L 462,254 L 464,254 L 465,255 L 464,256 L 463,256 L 462,257 L 460,257 L 460,258 L 461,258 L 462,257 L 464,259 L 463,260 L 465,260 L 466,261 L 467,260 L 470,260 L 471,259 L 478,259 L 479,260 L 482,260 L 483,259 L 483,258 L 485,256 L 486,257 L 486,258 L 487,259 L 484,262 L 477,262 L 476,261 L 473,261 L 471,263 L 468,263 L 467,264 L 464,264 L 463,263 L 460,263 L 460,266 L 461,267 L 462,267 L 464,269 L 463,270 L 462,270 L 463,271 L 462,272 L 461,272 L 460,271 L 460,269 L 459,270 L 458,270 L 460,272 L 460,275 L 461,276 L 461,275 L 463,273 L 464,274 L 465,273 L 465,272 L 464,271 L 464,270 L 465,269 L 467,271 L 467,272 L 468,273 L 468,274 L 467,275 L 466,275 L 466,276 L 465,277 L 464,276 L 463,277 L 464,278 L 463,279 L 463,280 L 464,280 L 465,281 L 464,282 L 465,283 L 466,283 L 467,282 L 467,281 L 468,280 L 468,279 L 469,278 L 470,278 L 468,278 L 466,276 L 467,275 L 468,275 L 469,276 L 470,276 L 470,272 L 469,273 L 468,272 L 468,271 L 469,270 L 471,270 L 472,271 L 472,279 L 471,280 L 470,280 L 470,282 L 469,283 L 471,285 L 470,286 L 467,286 L 467,287 L 468,288 L 469,288 L 471,286 L 472,287 L 473,286 L 473,285 L 474,284 L 474,282 L 475,281 L 477,281 L 478,280 L 478,278 L 479,277 L 480,278 L 480,277 L 481,276 L 483,276 L 484,277 L 478,283 L 477,283 L 477,286 L 475,288 L 475,289 L 474,290 L 472,290 L 472,291 L 473,292 L 474,292 L 475,291 L 476,291 L 477,290 L 479,290 L 480,291 L 478,293 L 477,293 L 476,294 L 473,294 L 472,295 L 469,295 L 469,297 L 468,298 L 467,297 L 467,294 L 465,296 L 465,297 L 466,297 L 467,298 L 469,298 L 469,297 L 470,296 L 473,296 L 474,295 L 477,295 L 479,293 L 481,293 L 482,294 L 483,294 L 484,295 L 487,295 L 488,294 L 488,293 L 486,291 L 485,291 L 484,290 L 484,289 L 483,288 L 484,287 L 484,286 L 483,286 L 482,285 L 486,281 L 486,280 L 487,279 L 487,278 L 488,277 L 488,275 L 490,273 L 491,273 L 492,272 L 492,270 L 488,266 L 488,264 L 491,261 L 494,261 L 494,260 L 496,258 L 497,258 L 498,257 L 500,257 L 502,255 L 502,253 L 500,251 L 500,248 L 499,247 L 497,247 L 496,246 L 495,246 L 491,250 L 490,250 L 489,249 L 486,249 L 485,248 L 486,247 L 486,244 L 487,243 L 487,242 L 488,241 L 489,241 L 490,240 L 491,240 L 490,240 L 489,239 L 484,239 L 483,240 L 476,240 L 475,239 L 467,239 Z" fill="none" stroke="black" stroke-width="1"/>
</svg>