<svg xmlns="http://www.w3.org/2000/svg" width="216" height="145">
  <path d="M 130,96 L 129,97 L 128,97 L 127,98 L 125,98 L 124,99 L 122,99 L 121,100 L 120,100 L 115,105 L 115,107 L 113,109 L 115,109 L 117,111 L 117,114 L 118,115 L 118,116 L 121,119 L 122,119 L 123,118 L 124,118 L 127,115 L 132,115 L 133,116 L 134,115 L 135,115 L 135,114 L 134,113 L 134,112 L 135,111 L 132,108 L 132,107 L 131,106 L 131,102 L 130,101 L 130,100 L 131,99 L 131,96 Z" fill="none" stroke="black" stroke-width="1"/>
</svg>