<svg xmlns="http://www.w3.org/2000/svg" width="194" height="149">
  <path d="M 140,98 L 140,99 L 138,101 L 137,101 L 136,102 L 128,102 L 127,103 L 124,103 L 122,105 L 122,107 L 123,108 L 123,109 L 124,110 L 125,110 L 127,112 L 128,112 L 129,113 L 129,114 L 130,114 L 131,113 L 132,113 L 134,115 L 134,116 L 133,117 L 133,118 L 135,120 L 135,122 L 134,123 L 134,125 L 135,125 L 136,126 L 137,126 L 138,125 L 141,125 L 142,124 L 144,124 L 148,120 L 149,120 L 150,119 L 151,119 L 153,117 L 153,114 L 154,113 L 157,113 L 157,111 L 158,110 L 159,110 L 161,108 L 163,108 L 163,106 L 162,106 L 160,104 L 159,104 L 158,103 L 153,103 L 152,102 L 149,102 L 146,99 L 145,99 L 144,98 Z" fill="none" stroke="black" stroke-width="1"/>
</svg>