<svg xmlns="http://www.w3.org/2000/svg" width="194" height="149">
  <path d="M 108,61 L 106,63 L 103,63 L 103,68 L 104,69 L 105,69 L 106,70 L 107,70 L 110,73 L 109,74 L 109,75 L 108,76 L 108,78 L 110,78 L 111,79 L 114,79 L 116,81 L 116,82 L 117,82 L 119,84 L 119,85 L 120,84 L 122,86 L 124,86 L 125,87 L 127,87 L 128,88 L 135,88 L 135,83 L 133,81 L 132,81 L 130,79 L 130,77 L 129,77 L 128,76 L 128,75 L 129,74 L 130,74 L 132,72 L 133,72 L 134,71 L 132,71 L 131,70 L 129,70 L 128,69 L 126,69 L 125,68 L 124,68 L 120,64 L 117,64 L 116,63 L 112,63 L 110,61 Z" fill="none" stroke="black" stroke-width="1"/>
</svg>