<svg xmlns="http://www.w3.org/2000/svg" width="194" height="149">
  <path d="M 74,77 L 73,78 L 73,79 L 71,81 L 71,82 L 70,83 L 70,85 L 68,87 L 68,88 L 67,89 L 68,90 L 69,90 L 71,92 L 71,94 L 74,94 L 75,95 L 75,98 L 74,99 L 74,100 L 75,101 L 75,104 L 74,105 L 74,106 L 75,107 L 77,107 L 78,106 L 83,106 L 84,107 L 86,107 L 87,106 L 88,106 L 89,105 L 90,105 L 90,104 L 88,102 L 89,101 L 89,99 L 90,98 L 91,98 L 92,97 L 93,97 L 94,98 L 95,98 L 97,96 L 96,95 L 96,93 L 94,91 L 94,89 L 95,88 L 99,88 L 99,87 L 98,86 L 98,85 L 97,84 L 97,82 L 96,81 L 95,82 L 93,82 L 92,81 L 91,81 L 90,80 L 89,80 L 88,79 L 86,79 L 85,78 L 84,78 L 83,77 L 82,77 L 81,78 L 77,78 L 76,77 Z" fill="none" stroke="black" stroke-width="1"/>
</svg>