<svg xmlns="http://www.w3.org/2000/svg" width="194" height="149">
  <path d="M 120,107 L 119,108 L 118,108 L 117,109 L 113,109 L 112,110 L 112,111 L 111,112 L 110,112 L 109,113 L 108,113 L 108,117 L 109,117 L 110,118 L 110,120 L 112,120 L 113,121 L 113,123 L 115,123 L 116,124 L 116,125 L 117,126 L 117,127 L 124,127 L 125,128 L 133,128 L 134,127 L 135,127 L 135,126 L 134,126 L 133,125 L 133,123 L 134,122 L 134,120 L 132,118 L 132,117 L 133,116 L 133,115 L 132,114 L 131,114 L 130,115 L 129,115 L 128,114 L 128,113 L 127,113 L 125,111 L 124,111 L 122,109 L 122,108 L 121,107 Z" fill="none" stroke="black" stroke-width="1"/>
</svg>