<svg xmlns="http://www.w3.org/2000/svg" width="262" height="251">
  <path d="M 19,24 L 18,25 L 18,27 L 17,28 L 18,29 L 18,31 L 17,32 L 17,33 L 15,35 L 15,42 L 14,43 L 14,45 L 15,46 L 17,46 L 19,44 L 20,44 L 23,47 L 23,48 L 24,49 L 24,52 L 25,52 L 27,54 L 27,55 L 26,56 L 27,56 L 30,59 L 30,60 L 33,60 L 34,59 L 35,59 L 35,58 L 37,56 L 37,55 L 38,54 L 38,51 L 37,50 L 37,47 L 34,47 L 33,46 L 32,46 L 30,44 L 30,40 L 29,39 L 29,37 L 28,36 L 29,35 L 25,31 L 27,29 L 28,29 L 28,28 L 26,28 L 25,27 L 25,25 L 24,24 Z" fill="none" stroke="black" stroke-width="1"/>
</svg>