<svg xmlns="http://www.w3.org/2000/svg" width="262" height="251">
  <path d="M 44,36 L 43,37 L 36,37 L 38,39 L 38,40 L 39,40 L 40,41 L 37,44 L 36,43 L 35,44 L 36,45 L 36,46 L 37,46 L 38,47 L 38,50 L 39,51 L 39,54 L 38,55 L 38,56 L 36,58 L 36,59 L 35,60 L 34,60 L 33,61 L 32,61 L 33,61 L 34,62 L 34,64 L 35,65 L 35,66 L 36,67 L 36,68 L 37,69 L 38,69 L 41,72 L 41,73 L 42,73 L 42,69 L 45,66 L 43,64 L 43,63 L 45,61 L 46,61 L 47,62 L 48,61 L 49,61 L 52,58 L 52,57 L 53,56 L 53,55 L 52,54 L 52,51 L 51,50 L 51,43 L 53,41 L 52,40 L 51,40 L 49,38 L 49,36 Z" fill="none" stroke="black" stroke-width="1"/>
</svg>