<svg xmlns="http://www.w3.org/2000/svg" width="194" height="149">
  <path d="M 121,12 L 121,15 L 120,16 L 119,16 L 119,18 L 118,19 L 116,19 L 115,20 L 114,20 L 114,22 L 113,23 L 103,23 L 103,24 L 105,26 L 105,27 L 104,28 L 104,30 L 103,31 L 102,31 L 101,30 L 99,30 L 98,31 L 98,38 L 99,39 L 100,39 L 101,38 L 110,38 L 112,40 L 113,40 L 114,41 L 115,41 L 117,43 L 117,44 L 121,44 L 122,43 L 130,43 L 132,41 L 131,40 L 132,39 L 133,39 L 133,37 L 136,34 L 137,34 L 137,33 L 136,33 L 135,32 L 137,30 L 136,29 L 139,26 L 139,25 L 140,24 L 141,24 L 142,23 L 141,22 L 141,20 L 142,19 L 142,18 L 140,16 L 139,16 L 137,14 L 135,14 L 134,13 L 132,13 L 131,12 Z" fill="none" stroke="black" stroke-width="1"/>
</svg>