<svg xmlns="http://www.w3.org/2000/svg" width="262" height="251">
  <path d="M 43,88 L 42,89 L 40,89 L 39,90 L 39,91 L 38,92 L 39,93 L 41,93 L 42,94 L 42,97 L 41,98 L 44,101 L 42,103 L 44,105 L 44,106 L 47,109 L 47,110 L 49,110 L 52,113 L 52,114 L 53,114 L 56,117 L 57,117 L 58,118 L 60,118 L 61,117 L 63,117 L 64,118 L 66,118 L 68,116 L 71,116 L 72,115 L 72,114 L 74,112 L 74,110 L 73,110 L 72,109 L 72,107 L 69,107 L 68,106 L 68,105 L 66,103 L 64,103 L 64,104 L 63,105 L 57,99 L 57,95 L 55,95 L 54,94 L 54,93 L 53,92 L 53,91 L 52,91 L 51,92 L 50,91 L 49,91 L 47,89 L 45,89 L 44,88 Z" fill="none" stroke="black" stroke-width="1"/>
</svg>