<svg xmlns="http://www.w3.org/2000/svg" width="262" height="251">
  <path d="M 72,85 L 71,86 L 71,87 L 70,88 L 69,88 L 68,89 L 66,87 L 65,87 L 64,88 L 62,88 L 61,89 L 57,89 L 57,90 L 56,91 L 54,91 L 54,92 L 55,93 L 55,94 L 57,94 L 58,95 L 58,99 L 63,104 L 63,103 L 64,102 L 66,102 L 69,105 L 69,106 L 72,106 L 73,107 L 73,109 L 74,109 L 75,110 L 75,111 L 77,111 L 78,110 L 78,108 L 79,107 L 79,105 L 81,103 L 80,102 L 80,101 L 79,101 L 78,100 L 77,100 L 76,99 L 76,95 L 77,94 L 77,93 L 78,92 L 78,91 L 76,89 L 76,88 L 73,85 Z" fill="none" stroke="black" stroke-width="1"/>
</svg>