<svg xmlns="http://www.w3.org/2000/svg" width="216" height="145">
  <path d="M 110,108 L 109,109 L 108,109 L 108,110 L 106,112 L 106,113 L 105,114 L 105,116 L 106,117 L 106,118 L 105,119 L 105,120 L 104,121 L 103,121 L 103,122 L 102,123 L 102,127 L 101,128 L 101,130 L 102,130 L 104,132 L 105,132 L 106,131 L 107,131 L 107,130 L 108,129 L 112,129 L 114,131 L 117,128 L 117,127 L 119,125 L 119,122 L 120,121 L 120,119 L 117,116 L 117,115 L 116,114 L 116,111 L 115,110 L 113,110 L 111,108 Z" fill="none" stroke="black" stroke-width="1"/>
</svg>