<svg xmlns="http://www.w3.org/2000/svg" width="262" height="251">
  <path d="M 45,67 L 43,69 L 43,73 L 42,74 L 42,77 L 40,79 L 39,79 L 38,80 L 39,80 L 40,81 L 40,83 L 41,83 L 42,84 L 42,85 L 41,86 L 42,86 L 43,87 L 44,87 L 45,88 L 47,88 L 49,90 L 50,90 L 51,91 L 52,90 L 56,90 L 56,89 L 57,88 L 61,88 L 62,87 L 64,87 L 66,85 L 66,84 L 65,83 L 65,82 L 64,81 L 63,82 L 62,81 L 61,82 L 60,81 L 60,80 L 59,79 L 59,78 L 58,77 L 58,72 L 57,73 L 56,72 L 55,73 L 53,73 L 47,67 Z" fill="none" stroke="black" stroke-width="1"/>
</svg>