<svg xmlns="http://www.w3.org/2000/svg" width="262" height="251">
  <path d="M 77,46 L 75,48 L 72,48 L 71,47 L 70,47 L 70,48 L 69,49 L 67,49 L 67,54 L 68,55 L 68,57 L 66,59 L 66,60 L 65,61 L 64,61 L 63,62 L 62,62 L 61,63 L 61,64 L 62,65 L 63,65 L 64,64 L 66,64 L 68,66 L 68,68 L 67,69 L 67,72 L 68,73 L 69,73 L 70,72 L 71,72 L 73,70 L 74,70 L 74,67 L 75,66 L 75,65 L 76,64 L 76,62 L 77,61 L 79,61 L 81,59 L 81,56 L 83,54 L 84,55 L 84,56 L 85,55 L 86,56 L 87,56 L 87,55 L 89,53 L 91,53 L 90,52 L 90,51 L 88,49 L 88,48 L 86,48 L 85,47 L 82,47 L 81,46 Z" fill="none" stroke="black" stroke-width="1"/>
</svg>