<svg xmlns="http://www.w3.org/2000/svg" width="262" height="251">
  <path d="M 125,85 L 125,89 L 123,91 L 121,91 L 120,92 L 117,92 L 115,94 L 115,95 L 114,96 L 114,101 L 115,102 L 116,102 L 117,103 L 118,103 L 119,104 L 119,105 L 120,105 L 121,104 L 123,104 L 124,105 L 125,104 L 126,104 L 128,102 L 130,102 L 131,103 L 133,103 L 134,102 L 136,102 L 136,101 L 138,99 L 138,98 L 139,97 L 139,93 L 138,92 L 138,91 L 137,91 L 136,90 L 136,88 L 135,87 L 133,87 L 132,88 L 131,88 L 130,87 L 129,87 L 128,86 L 127,86 L 126,85 Z" fill="none" stroke="black" stroke-width="1"/>
</svg>