<svg xmlns="http://www.w3.org/2000/svg" width="262" height="251">
  <path d="M 191,29 L 190,30 L 188,30 L 187,31 L 182,31 L 182,32 L 181,33 L 179,33 L 179,35 L 177,37 L 175,37 L 174,38 L 171,38 L 170,39 L 167,39 L 166,40 L 164,40 L 164,43 L 165,44 L 165,47 L 166,48 L 166,54 L 169,57 L 170,57 L 171,56 L 173,56 L 174,57 L 175,57 L 176,56 L 177,56 L 177,55 L 178,54 L 179,54 L 180,53 L 181,53 L 182,52 L 186,52 L 187,53 L 189,53 L 190,52 L 190,47 L 191,46 L 191,44 L 195,40 L 198,40 L 200,38 L 200,37 L 198,35 L 198,33 L 200,31 L 200,29 L 198,29 L 197,30 L 196,30 L 195,29 Z" fill="none" stroke="black" stroke-width="1"/>
</svg>