<svg xmlns="http://www.w3.org/2000/svg" width="262" height="251">
  <path d="M 103,55 L 102,56 L 100,56 L 100,57 L 99,58 L 99,59 L 98,60 L 98,61 L 97,62 L 95,62 L 95,65 L 92,68 L 92,69 L 91,70 L 91,71 L 89,73 L 90,74 L 89,75 L 88,75 L 88,76 L 92,76 L 93,77 L 96,77 L 97,78 L 98,78 L 98,77 L 99,76 L 99,75 L 100,74 L 102,74 L 103,73 L 107,73 L 107,70 L 108,69 L 109,69 L 110,68 L 111,68 L 113,66 L 113,65 L 115,63 L 115,62 L 114,62 L 113,61 L 113,60 L 112,59 L 111,59 L 108,56 L 106,56 L 105,55 Z" fill="none" stroke="black" stroke-width="1"/>
</svg>