<svg xmlns="http://www.w3.org/2000/svg" width="262" height="251">
  <path d="M 158,72 L 157,73 L 154,73 L 153,74 L 151,74 L 150,75 L 149,75 L 148,74 L 147,74 L 146,73 L 142,73 L 141,74 L 141,76 L 140,77 L 140,78 L 139,79 L 138,79 L 137,78 L 136,79 L 136,80 L 137,81 L 137,83 L 136,84 L 136,85 L 135,86 L 137,88 L 137,90 L 138,90 L 139,91 L 139,92 L 140,93 L 140,97 L 139,98 L 139,99 L 137,101 L 137,102 L 138,103 L 139,103 L 140,104 L 144,104 L 146,106 L 146,112 L 147,113 L 151,113 L 152,114 L 154,114 L 156,116 L 159,116 L 159,115 L 160,114 L 160,112 L 161,111 L 164,111 L 169,116 L 171,116 L 172,115 L 173,115 L 175,113 L 177,113 L 178,112 L 178,111 L 180,109 L 180,107 L 181,106 L 180,105 L 178,105 L 177,104 L 177,102 L 174,99 L 174,95 L 175,94 L 175,90 L 176,89 L 176,88 L 177,87 L 176,86 L 174,86 L 173,85 L 173,84 L 172,83 L 171,83 L 170,82 L 170,81 L 169,80 L 169,79 L 168,78 L 165,78 L 162,75 L 162,72 Z" fill="none" stroke="black" stroke-width="1"/>
</svg>