<svg xmlns="http://www.w3.org/2000/svg" width="262" height="251">
  <path d="M 112,152 L 112,153 L 109,156 L 108,156 L 107,157 L 106,157 L 105,158 L 105,161 L 107,163 L 108,163 L 109,164 L 109,165 L 110,166 L 110,168 L 111,169 L 111,170 L 112,170 L 113,171 L 113,172 L 114,173 L 115,173 L 116,172 L 117,172 L 120,169 L 124,169 L 124,167 L 122,165 L 122,163 L 123,162 L 124,162 L 125,163 L 127,163 L 128,162 L 128,159 L 127,159 L 126,158 L 127,157 L 126,156 L 124,156 L 123,155 L 122,155 L 120,153 L 115,153 L 114,152 Z" fill="none" stroke="black" stroke-width="1"/>
</svg>