<svg xmlns="http://www.w3.org/2000/svg" width="262" height="251">
  <path d="M 146,159 L 144,161 L 144,162 L 143,163 L 142,163 L 142,165 L 141,166 L 138,166 L 137,167 L 137,168 L 136,169 L 134,169 L 134,174 L 135,175 L 135,180 L 136,180 L 137,181 L 137,182 L 139,184 L 139,185 L 140,186 L 140,187 L 141,187 L 142,186 L 145,186 L 146,185 L 147,185 L 148,184 L 152,184 L 153,185 L 154,185 L 154,183 L 155,182 L 158,182 L 159,181 L 159,180 L 160,179 L 161,179 L 161,178 L 162,177 L 162,176 L 163,175 L 164,175 L 163,174 L 163,173 L 161,171 L 161,170 L 162,169 L 162,166 L 158,166 L 157,165 L 157,164 L 155,164 L 154,163 L 154,162 L 153,163 L 151,163 L 150,162 L 150,161 L 149,161 L 148,160 L 147,160 Z" fill="none" stroke="black" stroke-width="1"/>
</svg>