<svg xmlns="http://www.w3.org/2000/svg" width="262" height="251">
  <path d="M 183,209 L 181,211 L 180,211 L 180,213 L 181,214 L 181,215 L 179,217 L 178,216 L 177,217 L 173,217 L 173,218 L 172,219 L 171,219 L 170,218 L 170,216 L 167,213 L 166,213 L 165,214 L 160,214 L 158,216 L 157,216 L 156,217 L 153,214 L 154,213 L 155,213 L 155,211 L 151,211 L 150,212 L 150,214 L 149,215 L 147,215 L 145,213 L 144,213 L 142,215 L 145,218 L 144,219 L 145,220 L 146,220 L 148,222 L 149,222 L 150,223 L 151,223 L 152,224 L 154,224 L 155,225 L 156,225 L 158,227 L 158,228 L 159,229 L 160,229 L 161,230 L 171,230 L 172,231 L 172,232 L 173,232 L 174,233 L 175,233 L 176,234 L 178,234 L 179,233 L 180,233 L 182,231 L 183,231 L 185,229 L 188,229 L 191,226 L 191,223 L 190,222 L 190,221 L 191,220 L 191,217 L 190,217 L 187,214 L 187,213 L 186,212 L 186,211 L 185,210 L 184,210 Z" fill="none" stroke="black" stroke-width="1"/>
</svg>