<svg xmlns="http://www.w3.org/2000/svg" width="262" height="251">
  <path d="M 251,175 L 251,176 L 249,178 L 247,178 L 246,179 L 243,179 L 242,178 L 238,178 L 237,179 L 230,179 L 229,180 L 227,180 L 227,181 L 226,182 L 221,182 L 220,183 L 220,184 L 219,185 L 219,186 L 218,187 L 214,187 L 212,185 L 208,185 L 207,186 L 207,187 L 206,188 L 206,190 L 204,192 L 204,195 L 203,196 L 203,200 L 204,200 L 205,201 L 205,202 L 206,202 L 207,203 L 208,203 L 209,202 L 213,202 L 214,203 L 214,207 L 217,210 L 218,210 L 219,211 L 219,214 L 220,215 L 220,220 L 222,222 L 222,224 L 224,224 L 225,225 L 227,225 L 228,224 L 229,224 L 231,226 L 232,226 L 233,227 L 234,226 L 235,226 L 237,224 L 238,224 L 238,223 L 240,221 L 240,218 L 241,217 L 241,216 L 242,215 L 242,208 L 241,207 L 241,206 L 242,205 L 244,205 L 244,203 L 242,201 L 244,199 L 245,199 L 246,198 L 248,198 L 249,199 L 250,199 L 251,200 L 252,200 L 253,201 L 256,201 L 257,200 L 258,200 L 259,199 L 260,199 L 261,198 L 261,190 L 260,189 L 260,188 L 259,187 L 259,186 L 258,185 L 258,184 L 257,183 L 257,181 L 258,180 L 258,179 L 257,178 L 256,178 L 254,176 L 253,176 L 252,175 Z" fill="none" stroke="black" stroke-width="1"/>
</svg>