<svg xmlns="http://www.w3.org/2000/svg" width="216" height="145">
  <path d="M 102,109 L 101,110 L 100,110 L 98,112 L 98,113 L 96,115 L 93,115 L 92,116 L 91,116 L 90,117 L 88,117 L 87,118 L 84,118 L 82,120 L 82,125 L 84,127 L 84,128 L 86,130 L 89,130 L 90,131 L 93,131 L 94,132 L 95,131 L 96,131 L 97,130 L 100,130 L 100,128 L 101,127 L 101,123 L 102,122 L 102,121 L 103,120 L 104,120 L 104,119 L 105,118 L 105,117 L 104,116 L 104,114 L 105,113 L 105,112 L 107,110 L 107,109 Z" fill="none" stroke="black" stroke-width="1"/>
</svg>