<svg xmlns="http://www.w3.org/2000/svg" width="268" height="258">
  <path d="M 62,41 L 61,42 L 61,43 L 60,44 L 59,44 L 59,45 L 56,48 L 55,47 L 53,47 L 52,46 L 51,46 L 50,47 L 49,47 L 48,48 L 48,49 L 46,51 L 46,54 L 45,55 L 45,56 L 47,58 L 47,60 L 48,61 L 49,61 L 51,63 L 51,64 L 50,65 L 50,66 L 52,66 L 54,68 L 57,68 L 58,69 L 58,70 L 59,71 L 59,72 L 60,73 L 60,74 L 59,75 L 59,76 L 57,78 L 57,80 L 64,80 L 65,81 L 66,81 L 67,82 L 68,82 L 70,84 L 71,84 L 72,83 L 74,83 L 75,82 L 76,82 L 77,81 L 78,81 L 79,80 L 79,78 L 77,78 L 76,77 L 76,76 L 74,74 L 74,73 L 73,72 L 73,71 L 72,70 L 72,67 L 70,65 L 70,62 L 72,60 L 72,59 L 71,58 L 71,57 L 70,56 L 70,55 L 69,54 L 69,51 L 70,50 L 72,50 L 73,49 L 74,49 L 74,48 L 73,47 L 71,47 L 70,46 L 68,46 L 67,45 L 67,44 L 65,44 L 64,43 L 64,42 L 63,41 Z" fill="none" stroke="black" stroke-width="1"/>
</svg>