<svg xmlns="http://www.w3.org/2000/svg" width="262" height="251">
  <path d="M 188,102 L 184,106 L 182,106 L 181,107 L 181,109 L 179,111 L 179,112 L 177,114 L 175,114 L 173,116 L 172,116 L 171,117 L 169,117 L 164,112 L 161,112 L 161,114 L 160,115 L 160,116 L 159,117 L 156,117 L 154,115 L 152,115 L 151,114 L 146,114 L 145,115 L 143,115 L 141,117 L 140,117 L 139,118 L 139,121 L 140,121 L 142,123 L 142,124 L 143,124 L 145,126 L 145,127 L 146,126 L 148,126 L 150,128 L 150,129 L 149,130 L 150,131 L 150,134 L 149,135 L 151,135 L 152,136 L 154,136 L 155,137 L 157,137 L 159,139 L 162,139 L 164,137 L 165,137 L 165,136 L 166,135 L 168,135 L 170,133 L 170,132 L 171,131 L 172,131 L 174,129 L 176,129 L 176,128 L 177,127 L 178,127 L 179,128 L 181,128 L 182,129 L 185,129 L 188,126 L 189,127 L 193,127 L 194,126 L 197,126 L 198,125 L 198,124 L 197,123 L 197,122 L 196,121 L 195,121 L 194,120 L 194,119 L 195,118 L 195,117 L 194,116 L 195,115 L 195,114 L 193,112 L 193,107 L 192,107 L 191,106 L 191,105 L 190,105 L 189,104 L 189,103 Z" fill="none" stroke="black" stroke-width="1"/>
</svg>