<svg xmlns="http://www.w3.org/2000/svg" width="262" height="251">
  <path d="M 173,193 L 173,194 L 172,195 L 171,195 L 171,196 L 170,197 L 169,197 L 168,198 L 166,198 L 165,199 L 165,200 L 164,201 L 163,201 L 161,203 L 160,203 L 159,202 L 156,202 L 154,204 L 152,204 L 152,206 L 150,208 L 151,209 L 151,210 L 155,210 L 156,211 L 156,213 L 155,214 L 154,214 L 156,216 L 157,215 L 158,215 L 160,213 L 165,213 L 166,212 L 167,212 L 171,216 L 171,218 L 172,218 L 172,217 L 173,216 L 177,216 L 178,215 L 179,216 L 180,215 L 180,214 L 179,213 L 179,211 L 180,210 L 181,210 L 183,208 L 184,209 L 185,209 L 187,211 L 187,212 L 188,212 L 190,210 L 190,208 L 188,206 L 188,205 L 189,204 L 189,202 L 190,201 L 190,200 L 188,198 L 187,198 L 185,196 L 185,195 L 184,195 L 183,194 L 182,194 L 181,193 L 177,193 L 176,194 L 175,193 Z" fill="none" stroke="black" stroke-width="1"/>
</svg>