<svg xmlns="http://www.w3.org/2000/svg" width="268" height="258">
  <path d="M 100,104 L 98,106 L 98,107 L 97,108 L 98,109 L 98,110 L 97,111 L 96,111 L 96,112 L 94,114 L 92,114 L 91,113 L 85,113 L 84,112 L 83,112 L 81,114 L 81,118 L 82,119 L 82,122 L 83,123 L 83,125 L 84,126 L 84,128 L 85,129 L 85,133 L 84,134 L 84,139 L 86,141 L 88,141 L 89,142 L 91,142 L 92,143 L 93,143 L 94,144 L 98,144 L 100,142 L 105,142 L 106,143 L 110,143 L 111,144 L 112,144 L 113,145 L 114,145 L 115,146 L 118,146 L 119,145 L 119,143 L 120,142 L 120,138 L 121,137 L 121,136 L 122,135 L 122,134 L 123,133 L 124,133 L 124,132 L 122,130 L 122,126 L 121,125 L 121,122 L 120,121 L 120,120 L 119,119 L 119,116 L 118,116 L 117,115 L 117,113 L 118,112 L 118,111 L 117,110 L 118,109 L 118,107 L 119,106 L 118,105 L 116,105 L 115,106 L 108,106 L 107,105 L 102,105 L 101,104 Z" fill="none" stroke="black" stroke-width="1"/>
</svg>