<svg xmlns="http://www.w3.org/2000/svg" width="268" height="258">
  <path d="M 172,94 L 170,96 L 170,98 L 168,100 L 167,100 L 167,101 L 166,102 L 157,102 L 157,103 L 155,105 L 155,120 L 151,124 L 149,124 L 148,125 L 147,125 L 145,127 L 142,127 L 141,128 L 141,129 L 140,130 L 140,131 L 139,132 L 139,134 L 140,134 L 142,136 L 143,136 L 144,137 L 149,137 L 150,136 L 150,135 L 154,131 L 156,131 L 157,132 L 168,132 L 169,133 L 169,134 L 170,134 L 171,135 L 174,135 L 174,132 L 175,131 L 175,130 L 176,129 L 176,127 L 177,126 L 177,122 L 180,119 L 181,119 L 182,118 L 183,118 L 185,116 L 186,116 L 187,115 L 187,113 L 186,112 L 186,111 L 187,110 L 186,109 L 186,107 L 188,105 L 189,105 L 189,103 L 188,103 L 187,102 L 187,100 L 188,99 L 188,98 L 187,97 L 186,97 L 185,96 L 182,96 L 180,98 L 179,98 L 178,97 L 177,97 L 174,94 Z" fill="none" stroke="black" stroke-width="1"/>
</svg>