<svg xmlns="http://www.w3.org/2000/svg" width="268" height="258">
  <path d="M 241,72 L 240,73 L 239,73 L 238,74 L 238,76 L 236,78 L 236,79 L 235,80 L 233,80 L 232,79 L 230,79 L 229,80 L 229,81 L 228,82 L 226,82 L 225,83 L 224,83 L 223,84 L 223,90 L 222,91 L 222,92 L 220,94 L 220,95 L 219,96 L 219,97 L 218,98 L 218,99 L 216,101 L 216,102 L 215,103 L 215,104 L 214,105 L 215,106 L 216,106 L 217,105 L 218,105 L 220,107 L 220,109 L 221,110 L 221,111 L 223,113 L 224,113 L 225,112 L 225,111 L 227,109 L 234,109 L 235,110 L 237,110 L 238,111 L 242,111 L 242,109 L 243,108 L 243,103 L 241,101 L 241,100 L 240,99 L 242,97 L 243,97 L 246,94 L 249,94 L 250,95 L 252,95 L 254,93 L 254,92 L 253,92 L 252,91 L 252,89 L 253,88 L 253,86 L 252,85 L 251,85 L 249,83 L 247,83 L 246,82 L 244,82 L 242,80 L 242,79 L 245,76 L 244,75 L 244,74 L 243,74 Z" fill="none" stroke="black" stroke-width="1"/>
</svg>