<svg xmlns="http://www.w3.org/2000/svg" width="268" height="258">
  <path d="M 238,49 L 237,50 L 236,50 L 234,52 L 232,52 L 231,53 L 229,53 L 228,54 L 227,54 L 226,53 L 223,53 L 223,57 L 224,58 L 222,60 L 217,60 L 216,59 L 215,59 L 214,58 L 210,58 L 208,56 L 207,56 L 207,57 L 206,58 L 205,58 L 205,59 L 203,61 L 202,61 L 203,62 L 203,73 L 204,74 L 207,74 L 211,78 L 211,79 L 217,79 L 221,83 L 223,83 L 224,82 L 225,82 L 226,81 L 228,81 L 228,80 L 230,78 L 232,78 L 233,79 L 235,79 L 235,78 L 237,76 L 237,74 L 239,72 L 240,72 L 240,70 L 238,68 L 238,67 L 237,66 L 237,64 L 236,64 L 235,63 L 236,62 L 236,61 L 237,60 L 238,60 L 239,59 L 239,57 L 240,56 L 240,55 L 239,54 L 239,53 L 238,52 Z" fill="none" stroke="black" stroke-width="1"/>
</svg>