<svg xmlns="http://www.w3.org/2000/svg" width="268" height="258">
  <path d="M 150,52 L 149,53 L 148,53 L 147,54 L 147,58 L 146,59 L 146,63 L 145,64 L 144,64 L 141,67 L 139,67 L 138,68 L 137,68 L 136,69 L 135,69 L 134,70 L 132,70 L 131,71 L 129,71 L 128,72 L 129,72 L 130,73 L 130,75 L 131,76 L 130,77 L 130,79 L 129,80 L 129,81 L 126,84 L 126,86 L 125,87 L 125,93 L 129,93 L 130,94 L 131,94 L 132,93 L 133,94 L 141,94 L 142,93 L 143,93 L 145,91 L 145,89 L 146,88 L 147,88 L 147,87 L 149,85 L 150,85 L 151,84 L 154,84 L 155,83 L 159,83 L 160,84 L 161,84 L 162,85 L 164,85 L 165,84 L 166,84 L 166,78 L 168,76 L 168,72 L 169,71 L 169,69 L 170,68 L 170,66 L 171,65 L 171,63 L 169,61 L 169,60 L 170,59 L 170,58 L 171,57 L 171,54 L 170,55 L 164,55 L 163,54 L 161,54 L 160,55 L 158,53 L 153,53 L 152,52 Z" fill="none" stroke="black" stroke-width="1"/>
</svg>