<svg xmlns="http://www.w3.org/2000/svg" width="268" height="258">
  <path d="M 135,132 L 134,133 L 129,133 L 128,134 L 127,134 L 126,133 L 125,133 L 124,134 L 123,134 L 123,135 L 122,136 L 122,137 L 121,138 L 121,142 L 120,143 L 120,146 L 122,148 L 122,149 L 123,149 L 124,150 L 124,151 L 125,152 L 125,154 L 126,155 L 126,156 L 125,157 L 125,158 L 123,160 L 122,160 L 121,161 L 120,161 L 120,163 L 118,165 L 120,167 L 120,168 L 119,169 L 118,169 L 119,170 L 119,171 L 120,172 L 121,172 L 121,171 L 123,169 L 128,169 L 129,168 L 133,168 L 134,169 L 137,169 L 139,167 L 140,167 L 143,164 L 146,164 L 147,165 L 148,164 L 148,163 L 150,161 L 150,159 L 151,158 L 153,158 L 153,157 L 154,156 L 154,155 L 155,154 L 155,153 L 154,152 L 153,152 L 151,150 L 151,145 L 149,143 L 149,142 L 148,141 L 148,138 L 144,138 L 143,137 L 142,137 L 140,135 L 139,135 L 137,133 L 137,132 Z" fill="none" stroke="black" stroke-width="1"/>
</svg>