<svg xmlns="http://www.w3.org/2000/svg" width="268" height="258">
  <path d="M 100,143 L 98,145 L 96,145 L 95,146 L 93,146 L 93,148 L 94,149 L 94,150 L 96,150 L 98,152 L 98,154 L 100,156 L 100,157 L 101,158 L 101,160 L 98,163 L 98,167 L 99,168 L 99,170 L 102,173 L 102,177 L 103,177 L 104,176 L 105,176 L 106,175 L 107,175 L 108,174 L 109,175 L 114,175 L 116,173 L 118,173 L 119,172 L 118,171 L 118,170 L 117,169 L 118,168 L 119,168 L 119,167 L 117,165 L 119,163 L 119,161 L 120,160 L 121,160 L 122,159 L 123,159 L 124,158 L 124,157 L 125,156 L 125,155 L 124,154 L 124,152 L 123,151 L 123,150 L 122,150 L 121,149 L 121,148 L 119,146 L 118,147 L 115,147 L 114,146 L 113,146 L 112,145 L 111,145 L 110,144 L 106,144 L 105,143 Z" fill="none" stroke="black" stroke-width="1"/>
</svg>