<svg xmlns="http://www.w3.org/2000/svg" width="268" height="258">
  <path d="M 170,224 L 169,225 L 168,225 L 168,226 L 167,227 L 167,228 L 166,229 L 166,231 L 165,232 L 165,233 L 164,234 L 164,235 L 160,239 L 159,239 L 157,241 L 155,241 L 153,243 L 153,244 L 150,247 L 145,247 L 145,248 L 144,249 L 144,252 L 143,253 L 144,254 L 144,253 L 145,252 L 146,252 L 147,251 L 149,251 L 150,252 L 152,252 L 152,251 L 153,250 L 157,250 L 158,251 L 160,251 L 161,250 L 167,250 L 168,249 L 169,249 L 170,250 L 172,250 L 171,249 L 168,249 L 167,248 L 168,247 L 169,247 L 170,246 L 171,246 L 174,249 L 174,251 L 177,254 L 180,254 L 183,251 L 183,245 L 185,243 L 186,243 L 187,242 L 187,239 L 186,238 L 186,237 L 183,234 L 183,232 L 182,231 L 182,224 L 179,224 L 178,225 L 176,225 L 175,226 L 174,226 L 172,224 Z" fill="none" stroke="black" stroke-width="1"/>
</svg>