<svg xmlns="http://www.w3.org/2000/svg" width="268" height="258">
  <path d="M 149,205 L 148,206 L 146,206 L 145,207 L 144,207 L 143,208 L 142,207 L 140,209 L 137,209 L 136,208 L 135,208 L 134,207 L 133,207 L 132,206 L 131,206 L 130,207 L 128,207 L 127,208 L 125,208 L 124,207 L 121,207 L 120,208 L 118,208 L 117,209 L 115,209 L 115,210 L 116,211 L 116,216 L 115,217 L 115,219 L 117,219 L 118,218 L 122,218 L 123,219 L 123,221 L 121,223 L 121,228 L 120,229 L 113,229 L 112,230 L 109,230 L 108,231 L 108,232 L 109,233 L 109,235 L 107,237 L 106,237 L 106,238 L 110,238 L 111,237 L 112,238 L 112,239 L 113,240 L 119,240 L 120,239 L 122,239 L 123,238 L 127,238 L 128,239 L 129,239 L 130,240 L 133,240 L 134,239 L 135,239 L 135,238 L 138,235 L 139,235 L 141,233 L 143,233 L 145,231 L 146,231 L 146,230 L 147,229 L 149,229 L 150,230 L 151,230 L 152,229 L 152,227 L 153,226 L 153,225 L 154,224 L 154,223 L 156,221 L 156,219 L 157,218 L 157,217 L 158,216 L 158,215 L 159,214 L 159,210 L 158,209 L 156,209 L 154,207 L 154,206 L 155,205 Z" fill="none" stroke="black" stroke-width="1"/>
</svg>