<svg xmlns="http://www.w3.org/2000/svg" width="268" height="258">
  <path d="M 78,223 L 77,224 L 76,224 L 75,225 L 74,225 L 72,227 L 65,227 L 64,228 L 61,228 L 60,229 L 59,229 L 58,230 L 57,230 L 57,231 L 55,233 L 54,233 L 54,236 L 53,237 L 52,237 L 52,238 L 51,239 L 51,242 L 54,245 L 54,246 L 55,247 L 55,249 L 56,250 L 59,250 L 60,249 L 63,249 L 64,250 L 69,250 L 70,251 L 76,251 L 77,252 L 78,252 L 77,251 L 79,249 L 80,249 L 81,250 L 81,252 L 83,252 L 84,253 L 87,253 L 88,254 L 90,254 L 91,255 L 92,255 L 93,256 L 95,254 L 96,254 L 96,253 L 97,252 L 97,247 L 99,245 L 99,244 L 100,243 L 100,239 L 102,237 L 104,237 L 105,236 L 107,236 L 108,235 L 108,233 L 107,232 L 107,231 L 109,229 L 108,228 L 104,228 L 102,230 L 100,230 L 98,228 L 98,227 L 94,227 L 92,225 L 91,225 L 90,224 L 89,224 L 88,223 L 86,223 L 85,224 L 81,224 L 80,223 Z" fill="none" stroke="black" stroke-width="1"/>
</svg>