<svg xmlns="http://www.w3.org/2000/svg" width="262" height="251">
  <path d="M 183,153 L 180,156 L 177,156 L 175,158 L 174,158 L 174,159 L 172,161 L 172,165 L 173,166 L 173,167 L 174,168 L 174,170 L 176,172 L 176,174 L 177,175 L 177,177 L 178,178 L 178,179 L 180,181 L 184,177 L 185,177 L 186,176 L 190,176 L 191,175 L 199,175 L 202,178 L 202,179 L 203,179 L 203,177 L 206,174 L 205,173 L 205,171 L 203,169 L 203,168 L 202,167 L 202,166 L 201,165 L 201,163 L 198,160 L 197,160 L 196,159 L 196,156 L 195,157 L 193,157 L 192,156 L 192,155 L 187,155 L 185,153 Z" fill="none" stroke="black" stroke-width="1"/>
</svg>