<svg xmlns="http://www.w3.org/2000/svg" width="268" height="258">
  <path d="M 19,50 L 18,51 L 17,51 L 16,52 L 13,52 L 11,54 L 9,54 L 10,55 L 10,56 L 11,57 L 11,60 L 10,61 L 10,64 L 9,65 L 10,65 L 11,66 L 11,69 L 10,70 L 10,72 L 11,73 L 11,76 L 13,78 L 13,79 L 16,79 L 17,80 L 17,82 L 18,83 L 19,82 L 23,82 L 24,83 L 24,84 L 25,85 L 27,85 L 28,84 L 29,84 L 30,85 L 31,85 L 32,84 L 33,84 L 35,82 L 36,82 L 40,78 L 40,76 L 39,76 L 38,75 L 39,74 L 39,73 L 38,73 L 37,72 L 33,72 L 30,69 L 30,68 L 31,67 L 31,66 L 32,65 L 32,63 L 27,63 L 26,62 L 25,62 L 24,61 L 24,57 L 23,56 L 23,55 L 24,54 L 25,54 L 25,53 L 24,52 L 24,51 L 23,51 L 22,50 L 21,50 L 20,51 Z" fill="none" stroke="black" stroke-width="1"/>
</svg>