<svg xmlns="http://www.w3.org/2000/svg" width="268" height="258">
  <path d="M 20,23 L 19,24 L 16,24 L 15,25 L 14,25 L 14,26 L 13,27 L 13,29 L 11,31 L 11,33 L 13,35 L 13,36 L 10,39 L 7,39 L 4,42 L 4,44 L 3,45 L 3,51 L 6,51 L 7,52 L 7,54 L 8,54 L 9,53 L 11,53 L 13,51 L 16,51 L 17,50 L 18,50 L 19,49 L 20,50 L 21,49 L 22,49 L 23,50 L 24,50 L 25,51 L 25,52 L 26,53 L 28,53 L 29,54 L 31,54 L 32,55 L 34,55 L 33,54 L 33,52 L 35,50 L 37,50 L 38,51 L 40,51 L 43,54 L 45,54 L 45,51 L 47,49 L 47,48 L 49,46 L 50,46 L 51,45 L 52,45 L 52,42 L 49,39 L 49,37 L 46,37 L 45,38 L 43,38 L 42,37 L 41,37 L 40,36 L 38,36 L 37,37 L 35,37 L 32,34 L 32,31 L 31,30 L 31,29 L 30,28 L 30,27 L 28,25 L 27,25 L 26,24 L 23,24 L 22,23 Z" fill="none" stroke="black" stroke-width="1"/>
</svg>