<svg xmlns="http://www.w3.org/2000/svg" width="446" height="193">
  <path d="M 10,19 L 10,20 L 9,21 L 10,22 L 10,27 L 12,27 L 14,29 L 18,29 L 20,31 L 21,31 L 23,33 L 23,34 L 24,34 L 25,35 L 25,36 L 27,38 L 27,42 L 26,43 L 25,43 L 25,44 L 24,45 L 24,46 L 25,47 L 25,53 L 27,55 L 28,54 L 29,54 L 30,53 L 33,53 L 34,52 L 36,52 L 38,50 L 39,50 L 39,47 L 40,46 L 40,45 L 41,44 L 41,43 L 43,41 L 43,34 L 42,34 L 41,33 L 40,33 L 39,32 L 39,29 L 38,28 L 35,28 L 34,27 L 34,26 L 32,26 L 31,25 L 30,25 L 29,24 L 28,24 L 26,22 L 25,22 L 23,20 L 22,20 L 21,19 Z" fill="none" stroke="black" stroke-width="1"/>
</svg>