<svg xmlns="http://www.w3.org/2000/svg" width="587" height="399">
  <path d="M 188,155 L 179,164 L 179,166 L 180,166 L 181,167 L 182,167 L 183,168 L 183,169 L 184,170 L 184,174 L 185,175 L 185,176 L 188,179 L 188,181 L 187,182 L 187,184 L 186,185 L 186,187 L 185,188 L 185,190 L 186,190 L 187,189 L 188,189 L 189,190 L 190,190 L 191,191 L 193,191 L 194,192 L 196,192 L 196,189 L 198,187 L 198,186 L 199,185 L 200,185 L 201,184 L 207,184 L 209,182 L 211,182 L 215,178 L 215,177 L 216,176 L 216,175 L 215,174 L 215,167 L 211,163 L 210,163 L 207,160 L 201,160 L 200,159 L 196,159 L 195,158 L 194,158 L 193,157 L 189,157 L 188,156 Z" fill="none" stroke="black" stroke-width="1"/>
</svg>