<svg xmlns="http://www.w3.org/2000/svg" width="587" height="399">
  <path d="M 142,151 L 142,152 L 143,151 Z" fill="none" stroke="black" stroke-width="1"/>
  <path d="M 151,140 L 149,142 L 145,142 L 142,145 L 140,145 L 140,147 L 142,149 L 143,149 L 143,148 L 144,147 L 145,147 L 146,146 L 147,147 L 147,149 L 146,150 L 145,150 L 145,151 L 146,152 L 144,154 L 144,156 L 146,158 L 146,160 L 149,160 L 151,158 L 156,158 L 157,157 L 163,157 L 164,158 L 164,159 L 163,160 L 162,159 L 159,159 L 158,160 L 153,160 L 150,163 L 149,162 L 148,162 L 147,163 L 146,163 L 143,160 L 143,159 L 142,159 L 141,160 L 141,163 L 142,164 L 142,168 L 141,169 L 141,171 L 142,172 L 143,171 L 143,170 L 144,169 L 145,170 L 145,171 L 147,171 L 148,172 L 149,172 L 150,171 L 155,171 L 156,172 L 159,172 L 159,170 L 161,168 L 162,168 L 162,165 L 163,164 L 166,164 L 167,163 L 168,163 L 169,162 L 175,162 L 176,163 L 179,163 L 183,159 L 181,157 L 181,156 L 180,155 L 179,155 L 178,154 L 176,154 L 175,153 L 174,153 L 172,151 L 171,151 L 170,150 L 167,150 L 166,149 L 162,149 L 160,147 L 157,147 L 156,146 L 154,146 L 152,144 L 152,143 L 151,142 Z" fill="none" stroke="black" stroke-width="1"/>
</svg>