<svg xmlns="http://www.w3.org/2000/svg" width="587" height="399">
  <path d="M 187,190 L 186,191 L 185,191 L 184,192 L 184,193 L 182,195 L 181,195 L 178,198 L 178,199 L 177,200 L 177,203 L 175,205 L 175,206 L 177,208 L 177,209 L 179,211 L 180,211 L 182,213 L 183,213 L 185,215 L 186,215 L 187,216 L 188,216 L 189,217 L 189,218 L 190,217 L 191,218 L 191,219 L 190,220 L 190,222 L 191,222 L 193,224 L 193,225 L 196,228 L 196,230 L 203,230 L 207,226 L 207,224 L 208,223 L 207,222 L 206,222 L 205,221 L 205,219 L 204,218 L 204,213 L 203,212 L 203,208 L 204,207 L 204,205 L 200,201 L 200,200 L 198,198 L 198,197 L 196,195 L 195,195 L 193,193 L 193,192 L 191,192 L 190,191 L 189,191 L 188,190 Z" fill="none" stroke="black" stroke-width="1"/>
</svg>