<svg xmlns="http://www.w3.org/2000/svg" width="587" height="399">
  <path d="M 233,254 L 232,255 L 232,256 L 228,260 L 228,261 L 226,263 L 226,267 L 227,267 L 228,268 L 229,268 L 230,269 L 231,269 L 232,270 L 233,270 L 235,272 L 235,274 L 236,274 L 237,275 L 240,275 L 242,277 L 243,277 L 251,285 L 253,285 L 253,284 L 254,283 L 254,280 L 255,279 L 255,278 L 256,277 L 257,277 L 257,276 L 254,273 L 253,273 L 252,272 L 252,268 L 248,264 L 248,263 L 247,262 L 246,262 L 245,261 L 245,260 L 243,260 L 242,259 L 239,259 L 238,258 L 238,257 L 236,255 L 235,255 L 234,254 Z" fill="none" stroke="black" stroke-width="1"/>
</svg>