<svg xmlns="http://www.w3.org/2000/svg" width="690" height="339">
  <path d="M 49,221 L 47,223 L 46,223 L 44,225 L 42,225 L 41,226 L 38,226 L 37,227 L 32,227 L 31,226 L 30,226 L 29,225 L 26,225 L 26,226 L 24,228 L 23,228 L 19,232 L 20,233 L 20,234 L 13,241 L 12,241 L 11,242 L 9,242 L 9,244 L 10,245 L 11,245 L 12,246 L 13,246 L 17,250 L 19,250 L 20,251 L 38,251 L 39,250 L 41,250 L 42,251 L 43,251 L 45,253 L 47,253 L 50,250 L 51,250 L 51,249 L 52,248 L 52,246 L 51,245 L 51,242 L 50,241 L 50,237 L 49,236 L 49,235 L 50,234 L 50,233 L 51,232 L 51,231 L 52,230 L 52,229 L 53,228 L 53,227 L 55,225 L 55,221 Z" fill="none" stroke="black" stroke-width="1"/>
</svg>