<svg xmlns="http://www.w3.org/2000/svg" width="690" height="339">
  <path d="M 6,242 L 6,244 L 4,246 L 4,247 L 3,248 L 2,248 L 2,249 L 1,250 L 0,250 L 0,251 L 1,252 L 1,255 L 4,258 L 4,259 L 6,261 L 7,261 L 8,262 L 9,262 L 10,263 L 11,263 L 12,264 L 16,264 L 17,265 L 17,266 L 25,266 L 26,267 L 26,268 L 28,268 L 29,269 L 30,269 L 31,270 L 33,270 L 35,272 L 36,272 L 37,273 L 38,272 L 42,272 L 43,273 L 44,273 L 45,274 L 46,274 L 48,276 L 48,277 L 50,277 L 51,276 L 51,274 L 52,273 L 52,272 L 54,270 L 54,266 L 56,264 L 56,263 L 57,262 L 57,261 L 58,260 L 58,256 L 55,256 L 50,251 L 47,254 L 45,254 L 43,252 L 42,252 L 41,251 L 39,251 L 38,252 L 20,252 L 19,251 L 17,251 L 13,247 L 12,247 L 11,246 L 10,246 L 8,244 L 8,243 L 7,242 Z" fill="none" stroke="black" stroke-width="1"/>
</svg>