<svg xmlns="http://www.w3.org/2000/svg" width="690" height="339">
  <path d="M 88,202 L 85,205 L 84,205 L 83,206 L 82,206 L 81,207 L 78,207 L 77,208 L 71,208 L 70,207 L 70,206 L 69,207 L 66,207 L 65,206 L 64,207 L 64,208 L 62,210 L 62,211 L 61,212 L 61,213 L 54,220 L 55,220 L 56,221 L 56,225 L 54,227 L 54,228 L 53,229 L 53,230 L 52,231 L 52,232 L 51,233 L 51,234 L 50,235 L 50,236 L 51,237 L 51,241 L 52,242 L 52,245 L 53,246 L 53,248 L 52,249 L 52,250 L 51,251 L 55,255 L 58,255 L 58,254 L 59,253 L 59,251 L 60,250 L 60,249 L 61,248 L 62,248 L 62,247 L 64,245 L 66,245 L 67,246 L 72,246 L 73,245 L 75,245 L 76,244 L 77,244 L 78,243 L 78,242 L 79,241 L 79,240 L 80,239 L 80,237 L 81,236 L 81,234 L 82,233 L 80,233 L 79,232 L 78,232 L 77,231 L 77,228 L 80,225 L 80,222 L 81,221 L 81,220 L 82,219 L 83,219 L 84,218 L 88,218 L 89,217 L 89,216 L 88,215 L 88,212 L 90,210 L 92,210 L 93,209 L 93,208 L 96,205 L 98,205 L 97,205 L 96,204 L 95,204 L 93,202 Z" fill="none" stroke="black" stroke-width="1"/>
</svg>