<svg xmlns="http://www.w3.org/2000/svg" width="690" height="339">
  <path d="M 100,150 L 99,151 L 99,152 L 98,153 L 98,154 L 97,155 L 97,156 L 96,157 L 96,160 L 94,162 L 94,163 L 91,166 L 90,166 L 83,173 L 76,173 L 75,174 L 73,174 L 72,175 L 64,175 L 62,177 L 62,178 L 61,179 L 61,188 L 62,189 L 62,190 L 67,195 L 67,196 L 64,199 L 64,201 L 66,201 L 67,202 L 67,204 L 66,205 L 66,206 L 69,206 L 70,205 L 71,206 L 71,207 L 77,207 L 78,206 L 81,206 L 82,205 L 83,205 L 84,204 L 85,204 L 88,201 L 93,201 L 95,203 L 96,203 L 97,204 L 98,204 L 99,203 L 100,203 L 101,204 L 101,203 L 102,202 L 103,202 L 103,201 L 104,200 L 105,200 L 106,199 L 106,198 L 108,196 L 109,196 L 109,194 L 110,193 L 111,193 L 112,192 L 112,191 L 111,190 L 111,188 L 113,186 L 114,186 L 115,185 L 121,185 L 122,186 L 123,185 L 125,185 L 125,182 L 124,181 L 123,181 L 122,180 L 114,180 L 113,179 L 111,179 L 109,177 L 109,176 L 110,175 L 110,174 L 112,172 L 112,169 L 110,169 L 108,167 L 108,166 L 107,165 L 107,160 L 106,159 L 106,158 L 105,157 L 105,156 L 101,152 L 101,150 Z" fill="none" stroke="black" stroke-width="1"/>
</svg>