<svg xmlns="http://www.w3.org/2000/svg" width="446" height="193">
  <path d="M 84,70 L 85,71 L 85,72 L 83,74 L 81,74 L 79,76 L 79,77 L 78,78 L 78,84 L 75,87 L 75,88 L 74,89 L 74,94 L 76,94 L 77,95 L 77,98 L 78,99 L 78,100 L 79,101 L 79,102 L 78,103 L 77,103 L 78,104 L 79,104 L 80,105 L 81,105 L 82,106 L 86,106 L 87,107 L 88,107 L 90,109 L 90,112 L 95,112 L 96,113 L 97,113 L 98,112 L 99,112 L 100,111 L 100,110 L 101,109 L 101,99 L 103,97 L 104,97 L 105,96 L 107,96 L 107,95 L 108,94 L 108,91 L 107,90 L 108,89 L 108,84 L 107,83 L 108,82 L 110,82 L 110,81 L 109,80 L 109,79 L 108,78 L 107,78 L 106,77 L 105,77 L 104,76 L 100,76 L 99,77 L 98,76 L 97,76 L 95,74 L 93,74 L 92,73 L 91,73 L 90,72 L 88,72 L 87,71 L 87,70 Z" fill="none" stroke="black" stroke-width="1"/>
</svg>