<svg xmlns="http://www.w3.org/2000/svg" width="446" height="193">
  <path d="M 131,74 L 130,75 L 128,75 L 127,76 L 126,76 L 122,80 L 122,83 L 123,84 L 125,84 L 126,85 L 126,89 L 127,89 L 128,90 L 128,91 L 127,92 L 127,99 L 126,100 L 126,101 L 123,104 L 123,111 L 125,111 L 126,112 L 129,112 L 130,111 L 132,111 L 133,110 L 137,110 L 137,109 L 138,108 L 139,108 L 142,105 L 142,103 L 143,102 L 143,91 L 142,90 L 142,86 L 141,85 L 142,84 L 142,82 L 143,81 L 143,80 L 144,79 L 144,78 L 142,76 L 142,74 Z" fill="none" stroke="black" stroke-width="1"/>
</svg>