<svg xmlns="http://www.w3.org/2000/svg" width="446" height="193">
  <path d="M 151,73 L 150,74 L 146,74 L 145,75 L 143,75 L 143,76 L 145,78 L 145,79 L 144,80 L 144,81 L 143,82 L 143,84 L 142,85 L 143,86 L 143,90 L 144,91 L 144,102 L 143,103 L 143,106 L 145,108 L 147,108 L 148,107 L 149,107 L 150,106 L 151,106 L 153,104 L 153,103 L 154,102 L 154,100 L 153,99 L 153,98 L 158,93 L 159,93 L 161,91 L 162,91 L 163,90 L 165,90 L 167,88 L 167,85 L 165,83 L 165,81 L 164,80 L 162,80 L 160,78 L 160,77 L 156,73 Z" fill="none" stroke="black" stroke-width="1"/>
</svg>