<svg xmlns="http://www.w3.org/2000/svg" width="446" height="193">
  <path d="M 190,93 L 189,94 L 186,94 L 185,95 L 185,96 L 184,97 L 184,101 L 186,103 L 182,107 L 182,108 L 179,111 L 179,116 L 178,117 L 178,121 L 177,122 L 177,124 L 178,124 L 179,125 L 179,128 L 178,129 L 178,132 L 179,133 L 181,133 L 182,134 L 183,134 L 184,133 L 186,133 L 187,132 L 190,132 L 191,133 L 191,134 L 193,132 L 195,132 L 195,131 L 196,130 L 196,126 L 197,125 L 197,123 L 198,122 L 198,121 L 199,120 L 200,120 L 200,116 L 201,115 L 201,114 L 202,113 L 202,111 L 200,109 L 200,108 L 199,107 L 199,105 L 200,104 L 200,102 L 197,99 L 197,97 L 195,95 L 195,94 L 191,94 Z" fill="none" stroke="black" stroke-width="1"/>
</svg>