<svg xmlns="http://www.w3.org/2000/svg" width="446" height="193">
  <path d="M 176,86 L 175,87 L 175,88 L 172,91 L 168,91 L 167,90 L 166,90 L 165,91 L 163,91 L 162,92 L 161,92 L 159,94 L 158,94 L 154,98 L 154,99 L 155,100 L 155,102 L 154,103 L 154,104 L 151,107 L 150,107 L 149,108 L 148,108 L 147,109 L 147,113 L 148,114 L 148,115 L 147,116 L 147,120 L 148,121 L 153,121 L 155,119 L 156,119 L 157,118 L 158,118 L 159,119 L 161,119 L 162,120 L 168,120 L 169,119 L 170,120 L 171,120 L 173,122 L 174,122 L 176,124 L 176,122 L 177,121 L 177,117 L 178,116 L 178,111 L 181,108 L 181,107 L 185,103 L 183,101 L 183,97 L 184,96 L 184,95 L 186,93 L 180,87 L 180,86 Z" fill="none" stroke="black" stroke-width="1"/>
</svg>