<svg xmlns="http://www.w3.org/2000/svg" width="446" height="193">
  <path d="M 223,117 L 221,119 L 220,119 L 219,120 L 219,122 L 217,124 L 215,124 L 214,125 L 209,125 L 207,123 L 207,122 L 206,121 L 199,121 L 199,122 L 198,123 L 198,125 L 197,126 L 197,130 L 196,131 L 196,132 L 195,133 L 193,133 L 191,135 L 191,140 L 190,141 L 190,143 L 192,145 L 199,145 L 202,148 L 202,152 L 201,153 L 201,154 L 200,155 L 200,156 L 201,157 L 201,158 L 202,158 L 203,159 L 204,159 L 205,160 L 205,162 L 207,162 L 209,160 L 212,160 L 212,159 L 213,158 L 213,152 L 216,149 L 217,149 L 218,148 L 219,148 L 220,147 L 224,147 L 225,146 L 227,146 L 228,145 L 228,143 L 226,141 L 226,140 L 225,139 L 225,136 L 224,135 L 224,134 L 227,131 L 226,130 L 226,123 L 227,122 L 227,119 L 225,117 Z" fill="none" stroke="black" stroke-width="1"/>
</svg>