<svg xmlns="http://www.w3.org/2000/svg" width="446" height="193">
  <path d="M 190,145 L 190,146 L 184,152 L 183,152 L 181,154 L 173,154 L 172,155 L 172,158 L 173,159 L 175,159 L 178,162 L 178,164 L 176,166 L 176,167 L 174,169 L 174,175 L 175,176 L 175,177 L 176,178 L 176,181 L 177,182 L 177,184 L 178,184 L 180,186 L 181,186 L 183,188 L 185,186 L 185,185 L 186,184 L 187,184 L 188,183 L 189,183 L 190,182 L 193,182 L 194,183 L 197,183 L 200,180 L 200,179 L 201,178 L 201,177 L 202,176 L 202,175 L 203,174 L 208,174 L 209,173 L 210,173 L 210,172 L 209,171 L 208,171 L 207,170 L 207,169 L 204,166 L 204,160 L 203,160 L 202,159 L 201,159 L 200,158 L 200,157 L 199,156 L 199,155 L 200,154 L 200,153 L 201,152 L 201,148 L 199,146 L 192,146 L 191,145 Z" fill="none" stroke="black" stroke-width="1"/>
</svg>