<svg xmlns="http://www.w3.org/2000/svg" width="446" height="193">
  <path d="M 260,113 L 255,118 L 250,118 L 248,116 L 246,116 L 244,114 L 243,114 L 240,117 L 240,118 L 236,122 L 231,122 L 229,120 L 228,120 L 228,122 L 227,123 L 227,130 L 228,131 L 225,134 L 225,135 L 226,136 L 226,139 L 227,140 L 227,141 L 229,143 L 229,145 L 228,146 L 228,147 L 229,147 L 230,148 L 230,149 L 231,150 L 232,150 L 236,154 L 238,154 L 238,151 L 239,150 L 239,149 L 241,147 L 241,146 L 242,145 L 243,145 L 243,144 L 249,138 L 250,138 L 251,137 L 252,137 L 253,136 L 254,136 L 254,128 L 256,126 L 256,125 L 261,120 L 261,119 L 263,117 L 264,117 L 262,115 L 262,114 L 261,114 Z" fill="none" stroke="black" stroke-width="1"/>
</svg>