<svg xmlns="http://www.w3.org/2000/svg" width="587" height="399">
  <path d="M 374,259 L 374,260 L 373,261 L 372,261 L 371,262 L 366,262 L 366,263 L 365,264 L 365,265 L 364,266 L 364,267 L 360,271 L 357,271 L 356,270 L 353,270 L 352,271 L 351,271 L 350,272 L 349,272 L 349,273 L 345,277 L 345,280 L 351,280 L 352,279 L 358,279 L 361,282 L 363,282 L 364,283 L 368,283 L 369,284 L 370,284 L 371,285 L 376,285 L 377,284 L 378,284 L 380,282 L 381,282 L 382,281 L 384,281 L 385,280 L 386,280 L 389,277 L 391,277 L 391,275 L 392,274 L 392,273 L 391,272 L 391,270 L 390,269 L 387,269 L 386,268 L 386,267 L 385,266 L 383,266 L 381,264 L 381,262 L 377,262 L 375,260 L 375,259 Z" fill="none" stroke="black" stroke-width="1"/>
</svg>