<svg xmlns="http://www.w3.org/2000/svg" width="587" height="399">
  <path d="M 340,279 L 340,281 L 341,282 L 341,284 L 339,286 L 339,288 L 341,288 L 342,289 L 343,289 L 344,290 L 343,291 L 342,291 L 346,291 L 347,292 L 351,292 L 352,291 L 352,289 L 353,288 L 354,289 L 354,293 L 355,293 L 357,291 L 358,292 L 358,294 L 363,294 L 364,295 L 366,295 L 368,297 L 369,297 L 370,298 L 372,298 L 373,297 L 374,297 L 376,295 L 376,294 L 377,293 L 377,291 L 375,289 L 375,288 L 376,287 L 376,286 L 371,286 L 370,285 L 369,285 L 368,284 L 364,284 L 363,283 L 361,283 L 358,280 L 352,280 L 351,281 L 345,281 L 344,280 L 344,279 Z" fill="none" stroke="black" stroke-width="1"/>
</svg>