<svg xmlns="http://www.w3.org/2000/svg" width="446" height="193">
  <path d="M 199,18 L 198,19 L 193,19 L 192,20 L 191,20 L 190,21 L 187,21 L 184,24 L 183,24 L 183,25 L 182,26 L 181,25 L 178,25 L 175,28 L 174,28 L 173,29 L 170,29 L 170,31 L 169,32 L 168,32 L 167,33 L 167,38 L 168,39 L 168,40 L 169,41 L 168,42 L 168,45 L 167,46 L 167,49 L 168,48 L 168,47 L 169,46 L 169,45 L 170,44 L 174,44 L 175,43 L 176,43 L 178,41 L 179,41 L 180,40 L 181,40 L 182,39 L 193,39 L 192,38 L 193,37 L 193,36 L 194,35 L 194,34 L 195,33 L 195,32 L 196,31 L 197,31 L 198,30 L 198,29 L 199,28 L 200,28 L 204,24 L 207,24 L 208,23 L 208,22 L 207,22 L 206,21 L 205,21 L 203,19 L 202,19 L 201,18 Z" fill="none" stroke="black" stroke-width="1"/>
</svg>