<svg xmlns="http://www.w3.org/2000/svg" width="690" height="339">
  <path d="M 106,200 L 105,201 L 104,201 L 104,202 L 103,203 L 102,203 L 102,204 L 101,205 L 100,204 L 99,204 L 99,205 L 98,206 L 96,206 L 94,208 L 94,209 L 92,211 L 90,211 L 89,212 L 89,215 L 90,216 L 90,217 L 88,219 L 84,219 L 83,220 L 82,220 L 82,221 L 81,222 L 81,225 L 78,228 L 78,231 L 79,231 L 80,232 L 84,232 L 87,229 L 92,229 L 93,230 L 94,230 L 95,231 L 98,231 L 100,233 L 103,233 L 104,232 L 104,230 L 106,228 L 107,228 L 107,226 L 108,225 L 111,225 L 112,224 L 113,224 L 116,221 L 119,221 L 120,222 L 120,221 L 121,220 L 122,220 L 125,217 L 128,217 L 129,216 L 130,216 L 131,215 L 131,214 L 129,214 L 124,209 L 124,207 L 125,206 L 125,204 L 123,202 L 121,202 L 120,201 L 115,201 L 114,202 L 110,202 L 109,201 L 107,201 Z" fill="none" stroke="black" stroke-width="1"/>
</svg>