<svg xmlns="http://www.w3.org/2000/svg" width="446" height="193">
  <path d="M 182,40 L 181,41 L 180,41 L 179,42 L 178,42 L 176,44 L 175,44 L 174,45 L 170,45 L 170,46 L 169,47 L 169,48 L 168,49 L 168,51 L 165,54 L 165,56 L 164,57 L 164,58 L 162,60 L 162,62 L 161,63 L 161,64 L 167,64 L 168,63 L 169,63 L 173,59 L 175,59 L 176,58 L 181,58 L 182,59 L 185,59 L 186,58 L 188,58 L 189,57 L 189,55 L 187,53 L 187,52 L 189,50 L 190,50 L 192,48 L 192,44 L 193,43 L 193,40 Z" fill="none" stroke="black" stroke-width="1"/>
</svg>