<svg xmlns="http://www.w3.org/2000/svg" width="690" height="339">
  <path d="M 160,191 L 159,192 L 158,192 L 157,193 L 156,193 L 155,194 L 154,194 L 150,198 L 149,198 L 149,207 L 147,209 L 146,209 L 145,210 L 143,210 L 143,211 L 140,214 L 140,215 L 141,215 L 143,217 L 144,217 L 145,218 L 146,218 L 147,219 L 148,219 L 149,218 L 151,218 L 152,219 L 163,219 L 165,217 L 166,217 L 167,216 L 170,216 L 171,217 L 172,217 L 173,216 L 174,216 L 175,215 L 176,215 L 176,214 L 178,212 L 178,209 L 183,204 L 185,204 L 185,200 L 184,199 L 183,199 L 182,198 L 180,198 L 179,199 L 178,199 L 177,200 L 172,200 L 170,198 L 170,197 L 165,192 L 164,192 L 163,191 Z" fill="none" stroke="black" stroke-width="1"/>
</svg>