<svg xmlns="http://www.w3.org/2000/svg" width="446" height="193">
  <path d="M 199,29 L 199,30 L 197,32 L 196,32 L 196,33 L 195,34 L 195,35 L 194,36 L 194,37 L 193,38 L 194,39 L 194,43 L 193,44 L 193,48 L 190,51 L 189,51 L 188,52 L 188,53 L 190,55 L 190,57 L 188,59 L 187,59 L 187,61 L 186,62 L 186,63 L 184,65 L 184,67 L 186,67 L 187,68 L 189,68 L 191,70 L 192,70 L 202,60 L 203,60 L 203,59 L 204,58 L 205,58 L 205,57 L 206,56 L 206,54 L 209,51 L 213,51 L 213,48 L 212,47 L 212,45 L 211,44 L 211,43 L 210,42 L 210,41 L 207,38 L 207,36 L 205,34 L 205,31 L 204,30 L 203,30 L 202,29 Z" fill="none" stroke="black" stroke-width="1"/>
</svg>