<svg xmlns="http://www.w3.org/2000/svg" width="690" height="339">
  <path d="M 167,217 L 166,218 L 165,218 L 163,220 L 152,220 L 151,219 L 149,219 L 148,220 L 147,220 L 145,222 L 142,222 L 139,225 L 140,225 L 141,226 L 142,226 L 144,228 L 144,231 L 146,233 L 146,235 L 149,238 L 149,239 L 150,240 L 150,241 L 151,242 L 151,244 L 152,245 L 152,248 L 151,249 L 152,249 L 153,250 L 154,250 L 155,251 L 156,251 L 159,248 L 160,248 L 161,247 L 165,247 L 166,248 L 166,249 L 167,249 L 168,250 L 169,250 L 170,251 L 170,252 L 171,252 L 175,256 L 179,256 L 180,257 L 180,255 L 179,254 L 179,253 L 178,252 L 178,250 L 179,249 L 181,249 L 182,248 L 183,248 L 183,244 L 182,243 L 182,242 L 179,239 L 179,237 L 178,237 L 174,233 L 174,232 L 173,231 L 173,230 L 171,228 L 171,226 L 170,226 L 169,225 L 169,223 L 170,222 L 170,221 L 172,219 L 171,219 L 170,218 L 170,217 Z" fill="none" stroke="black" stroke-width="1"/>
</svg>