<svg xmlns="http://www.w3.org/2000/svg" width="446" height="193">
  <path d="M 223,51 L 222,52 L 221,52 L 218,55 L 217,55 L 216,54 L 215,54 L 214,53 L 213,53 L 212,52 L 209,52 L 207,54 L 207,56 L 206,57 L 206,58 L 205,59 L 204,59 L 204,61 L 208,65 L 208,66 L 210,68 L 210,71 L 211,72 L 212,72 L 213,73 L 215,73 L 217,71 L 218,71 L 220,69 L 221,69 L 223,71 L 224,71 L 224,70 L 226,68 L 230,68 L 232,70 L 233,70 L 234,71 L 238,71 L 239,72 L 240,72 L 241,73 L 243,73 L 244,74 L 246,74 L 247,75 L 250,75 L 251,74 L 252,74 L 254,72 L 254,71 L 248,65 L 246,65 L 245,64 L 244,64 L 241,61 L 241,60 L 237,60 L 233,56 L 232,56 L 231,55 L 231,54 L 230,54 L 229,53 L 228,53 L 227,52 L 227,51 Z" fill="none" stroke="black" stroke-width="1"/>
</svg>