<svg xmlns="http://www.w3.org/2000/svg" width="446" height="193">
  <path d="M 226,69 L 225,70 L 225,71 L 224,72 L 224,75 L 222,77 L 222,79 L 223,80 L 224,80 L 225,81 L 225,82 L 226,83 L 226,84 L 227,85 L 227,86 L 228,87 L 228,88 L 229,89 L 230,89 L 231,90 L 232,90 L 234,92 L 236,92 L 237,93 L 239,93 L 240,94 L 242,94 L 243,95 L 245,95 L 246,96 L 247,96 L 249,94 L 250,94 L 252,92 L 254,92 L 254,88 L 253,87 L 253,86 L 251,84 L 251,83 L 252,82 L 252,77 L 251,76 L 247,76 L 246,75 L 244,75 L 243,74 L 241,74 L 240,73 L 239,73 L 238,72 L 234,72 L 233,71 L 232,71 L 230,69 Z" fill="none" stroke="black" stroke-width="1"/>
</svg>