<svg xmlns="http://www.w3.org/2000/svg" width="446" height="193">
  <path d="M 235,93 L 235,97 L 234,98 L 234,99 L 232,101 L 231,101 L 230,102 L 229,102 L 228,101 L 223,101 L 222,102 L 219,102 L 218,103 L 216,103 L 216,104 L 214,106 L 211,106 L 204,113 L 203,113 L 202,114 L 202,115 L 201,116 L 201,120 L 206,120 L 208,122 L 208,123 L 209,124 L 214,124 L 215,123 L 217,123 L 218,122 L 218,120 L 220,118 L 221,118 L 223,116 L 225,116 L 228,119 L 229,119 L 231,121 L 236,121 L 239,118 L 239,117 L 243,113 L 243,111 L 247,107 L 246,106 L 246,104 L 247,103 L 247,101 L 246,100 L 246,97 L 245,96 L 243,96 L 242,95 L 240,95 L 239,94 L 237,94 L 236,93 Z" fill="none" stroke="black" stroke-width="1"/>
</svg>