<svg xmlns="http://www.w3.org/2000/svg" width="690" height="339">
  <path d="M 198,228 L 194,232 L 190,232 L 189,233 L 183,233 L 182,234 L 182,235 L 180,237 L 180,239 L 183,242 L 183,243 L 184,244 L 184,248 L 183,249 L 182,249 L 181,250 L 179,250 L 179,252 L 180,253 L 180,254 L 181,255 L 181,257 L 180,258 L 182,260 L 183,260 L 184,261 L 186,261 L 194,269 L 197,269 L 198,268 L 201,271 L 204,268 L 204,267 L 205,266 L 206,266 L 206,265 L 204,263 L 204,261 L 205,260 L 205,248 L 204,248 L 201,245 L 201,244 L 200,243 L 200,240 L 201,239 L 201,237 L 205,233 L 204,233 L 203,232 L 202,232 L 200,230 L 200,228 Z" fill="none" stroke="black" stroke-width="1"/>
</svg>