<svg xmlns="http://www.w3.org/2000/svg" width="690" height="339">
  <path d="M 219,231 L 218,232 L 206,232 L 206,233 L 202,237 L 202,239 L 201,240 L 201,243 L 202,244 L 202,245 L 204,247 L 205,247 L 206,248 L 206,252 L 209,252 L 212,255 L 212,256 L 213,256 L 214,257 L 217,257 L 220,260 L 221,260 L 221,259 L 224,256 L 225,256 L 228,253 L 229,253 L 230,252 L 233,252 L 234,253 L 243,253 L 244,252 L 244,251 L 245,250 L 245,248 L 246,247 L 247,247 L 248,246 L 248,245 L 249,244 L 249,242 L 250,241 L 250,240 L 251,239 L 251,238 L 248,235 L 242,235 L 241,236 L 239,236 L 238,235 L 236,235 L 235,234 L 233,234 L 231,232 L 230,232 L 229,231 Z" fill="none" stroke="black" stroke-width="1"/>
</svg>