<svg xmlns="http://www.w3.org/2000/svg" width="690" height="339">
  <path d="M 230,253 L 229,254 L 228,254 L 225,257 L 224,257 L 222,259 L 222,262 L 221,263 L 221,264 L 220,265 L 220,269 L 219,270 L 219,274 L 221,276 L 222,276 L 224,278 L 224,282 L 223,283 L 223,285 L 225,287 L 225,288 L 229,292 L 230,292 L 231,293 L 232,293 L 233,294 L 235,294 L 236,293 L 236,290 L 232,286 L 233,285 L 233,282 L 234,281 L 235,281 L 235,275 L 236,274 L 236,271 L 238,269 L 239,269 L 240,268 L 242,268 L 243,267 L 245,267 L 246,266 L 247,266 L 248,265 L 249,265 L 249,264 L 248,263 L 248,261 L 249,260 L 249,257 L 246,254 L 234,254 L 233,253 Z" fill="none" stroke="black" stroke-width="1"/>
</svg>