<svg xmlns="http://www.w3.org/2000/svg" width="690" height="339">
  <path d="M 221,201 L 221,202 L 220,203 L 219,203 L 211,211 L 211,212 L 209,214 L 208,214 L 205,217 L 204,217 L 203,218 L 201,218 L 199,220 L 199,221 L 201,223 L 201,230 L 202,231 L 203,231 L 204,232 L 205,232 L 206,231 L 218,231 L 219,230 L 229,230 L 230,231 L 231,231 L 233,233 L 235,233 L 236,234 L 238,234 L 239,235 L 241,235 L 242,234 L 248,234 L 249,235 L 250,234 L 250,233 L 253,230 L 254,230 L 254,228 L 253,227 L 253,221 L 251,221 L 250,220 L 250,219 L 249,218 L 249,215 L 247,213 L 247,212 L 246,212 L 242,208 L 242,206 L 241,206 L 240,205 L 235,205 L 234,204 L 232,204 L 231,203 L 230,203 L 229,202 L 228,202 L 227,201 Z" fill="none" stroke="black" stroke-width="1"/>
</svg>