<svg xmlns="http://www.w3.org/2000/svg" width="690" height="339">
  <path d="M 270,190 L 269,191 L 265,191 L 264,192 L 262,192 L 261,193 L 258,193 L 257,194 L 256,194 L 254,196 L 253,196 L 248,201 L 247,201 L 243,205 L 243,208 L 246,211 L 247,211 L 248,212 L 248,213 L 250,215 L 250,218 L 251,219 L 251,220 L 253,220 L 254,221 L 254,227 L 255,227 L 256,226 L 257,226 L 259,224 L 260,224 L 261,223 L 263,225 L 268,225 L 270,223 L 278,223 L 279,224 L 280,224 L 281,225 L 282,225 L 285,228 L 287,228 L 290,225 L 290,224 L 291,223 L 291,221 L 292,220 L 292,217 L 290,217 L 288,215 L 287,215 L 286,214 L 285,214 L 283,212 L 283,210 L 282,210 L 281,209 L 281,206 L 288,199 L 288,195 L 287,195 L 286,194 L 286,192 L 284,190 Z" fill="none" stroke="black" stroke-width="1"/>
</svg>