<svg xmlns="http://www.w3.org/2000/svg" width="690" height="339">
  <path d="M 261,224 L 260,225 L 259,225 L 257,227 L 256,227 L 255,228 L 255,230 L 254,231 L 253,231 L 251,233 L 251,234 L 250,235 L 250,236 L 252,238 L 252,239 L 251,240 L 251,241 L 250,242 L 250,244 L 249,245 L 249,246 L 247,248 L 246,248 L 246,250 L 245,251 L 245,252 L 244,253 L 246,253 L 250,257 L 250,258 L 251,258 L 252,257 L 253,257 L 255,255 L 256,255 L 257,254 L 258,254 L 259,253 L 260,254 L 261,254 L 263,252 L 266,252 L 267,251 L 274,251 L 276,249 L 276,248 L 277,247 L 277,245 L 279,243 L 279,241 L 281,239 L 281,235 L 282,234 L 283,234 L 284,233 L 284,231 L 285,230 L 285,229 L 282,226 L 281,226 L 280,225 L 279,225 L 278,224 L 270,224 L 268,226 L 263,226 Z" fill="none" stroke="black" stroke-width="1"/>
</svg>