<svg xmlns="http://www.w3.org/2000/svg" width="690" height="339">
  <path d="M 310,154 L 309,155 L 308,155 L 304,159 L 303,159 L 302,160 L 302,168 L 303,169 L 303,174 L 301,176 L 301,186 L 300,187 L 297,187 L 296,188 L 294,188 L 293,189 L 291,189 L 289,191 L 288,191 L 287,192 L 287,194 L 288,194 L 289,195 L 289,199 L 282,206 L 282,209 L 283,209 L 284,210 L 284,212 L 285,213 L 286,213 L 287,214 L 288,214 L 290,216 L 292,216 L 293,217 L 293,218 L 295,218 L 296,219 L 296,220 L 298,220 L 299,221 L 300,221 L 301,222 L 307,222 L 308,221 L 310,221 L 311,220 L 312,220 L 313,219 L 314,220 L 315,220 L 316,219 L 316,217 L 321,212 L 321,211 L 322,210 L 322,205 L 323,204 L 323,203 L 324,202 L 324,195 L 326,193 L 326,192 L 324,190 L 324,184 L 325,183 L 328,183 L 328,180 L 326,178 L 326,177 L 325,177 L 324,176 L 324,175 L 322,173 L 322,172 L 321,171 L 320,171 L 319,170 L 319,169 L 317,167 L 317,166 L 316,165 L 316,163 L 315,162 L 315,160 L 314,159 L 314,157 L 312,155 L 312,154 Z" fill="none" stroke="black" stroke-width="1"/>
</svg>