<svg xmlns="http://www.w3.org/2000/svg" width="690" height="339">
  <path d="M 362,136 L 361,137 L 359,137 L 358,138 L 357,138 L 356,139 L 349,139 L 348,140 L 347,140 L 346,141 L 345,141 L 344,142 L 340,142 L 337,145 L 336,145 L 335,146 L 333,146 L 332,147 L 331,147 L 330,148 L 329,148 L 328,149 L 325,149 L 325,150 L 324,151 L 323,151 L 322,152 L 314,152 L 313,153 L 313,155 L 315,157 L 315,159 L 316,160 L 316,162 L 317,163 L 317,165 L 318,166 L 318,167 L 320,169 L 320,170 L 321,170 L 323,172 L 323,173 L 325,175 L 325,176 L 326,176 L 327,177 L 327,178 L 329,180 L 329,183 L 328,184 L 325,184 L 325,190 L 327,192 L 327,193 L 325,195 L 325,202 L 324,203 L 324,204 L 323,205 L 323,210 L 322,211 L 322,212 L 317,217 L 317,218 L 318,218 L 319,219 L 321,219 L 322,220 L 329,220 L 331,222 L 333,222 L 336,219 L 336,218 L 337,217 L 338,217 L 339,216 L 341,216 L 342,215 L 345,215 L 351,209 L 351,208 L 352,207 L 352,202 L 353,201 L 353,200 L 354,199 L 354,198 L 358,194 L 358,193 L 359,192 L 359,191 L 361,189 L 361,179 L 362,178 L 362,177 L 363,176 L 363,175 L 364,174 L 364,172 L 363,171 L 363,170 L 362,169 L 362,166 L 361,165 L 361,162 L 360,161 L 360,156 L 361,155 L 361,151 L 362,150 L 362,149 L 363,148 L 363,147 L 364,146 L 364,136 Z" fill="none" stroke="black" stroke-width="1"/>
</svg>