<svg xmlns="http://www.w3.org/2000/svg" width="690" height="339">
  <path d="M 293,219 L 293,220 L 292,221 L 292,223 L 291,224 L 291,225 L 287,229 L 286,229 L 286,230 L 285,231 L 285,233 L 283,235 L 282,235 L 282,239 L 280,241 L 280,244 L 283,244 L 284,245 L 288,245 L 289,246 L 296,246 L 297,247 L 300,247 L 301,246 L 307,246 L 308,247 L 309,247 L 311,249 L 312,249 L 314,247 L 314,245 L 316,243 L 316,242 L 319,239 L 319,237 L 321,235 L 322,235 L 323,234 L 324,234 L 324,233 L 328,229 L 328,228 L 331,225 L 331,223 L 329,221 L 322,221 L 321,220 L 319,220 L 318,219 L 317,219 L 315,221 L 314,221 L 313,220 L 312,221 L 311,221 L 310,222 L 308,222 L 307,223 L 301,223 L 300,222 L 299,222 L 298,221 L 296,221 L 295,220 L 295,219 Z" fill="none" stroke="black" stroke-width="1"/>
</svg>