<svg xmlns="http://www.w3.org/2000/svg" width="690" height="339">
  <path d="M 370,174 L 369,175 L 364,175 L 364,176 L 363,177 L 363,178 L 362,179 L 362,189 L 360,191 L 360,192 L 359,193 L 359,194 L 355,198 L 355,199 L 354,200 L 354,201 L 353,202 L 353,207 L 352,208 L 352,209 L 345,216 L 344,216 L 345,217 L 345,219 L 347,221 L 348,221 L 351,224 L 351,225 L 356,230 L 356,233 L 368,233 L 369,234 L 371,234 L 372,233 L 374,235 L 377,235 L 378,236 L 381,236 L 382,235 L 385,235 L 386,234 L 387,234 L 389,232 L 390,232 L 391,231 L 394,231 L 395,232 L 396,232 L 396,227 L 393,224 L 393,223 L 392,222 L 392,221 L 391,220 L 390,220 L 388,218 L 387,218 L 386,217 L 386,216 L 384,214 L 384,213 L 383,212 L 383,210 L 382,209 L 382,207 L 381,206 L 381,195 L 382,194 L 382,185 L 383,184 L 383,178 L 382,177 L 382,175 L 381,175 L 380,174 Z" fill="none" stroke="black" stroke-width="1"/>
</svg>