<svg xmlns="http://www.w3.org/2000/svg" width="446" height="193">
  <path d="M 310,69 L 309,70 L 308,70 L 307,71 L 305,71 L 304,72 L 302,72 L 301,73 L 300,73 L 299,74 L 299,77 L 298,78 L 298,84 L 297,85 L 296,85 L 296,88 L 295,89 L 299,93 L 299,96 L 296,99 L 296,100 L 297,100 L 299,102 L 300,102 L 302,104 L 303,104 L 305,106 L 305,107 L 306,107 L 306,106 L 307,105 L 308,105 L 313,100 L 319,100 L 319,99 L 318,98 L 318,97 L 317,96 L 317,95 L 315,93 L 315,92 L 314,91 L 314,87 L 318,83 L 320,83 L 322,81 L 323,81 L 325,79 L 325,75 L 323,73 L 323,72 L 321,70 L 320,70 L 319,69 Z" fill="none" stroke="black" stroke-width="1"/>
</svg>