<svg xmlns="http://www.w3.org/2000/svg" width="446" height="193">
  <path d="M 352,50 L 352,55 L 351,56 L 350,56 L 350,58 L 351,58 L 352,59 L 352,61 L 354,63 L 354,67 L 356,69 L 357,69 L 358,70 L 359,70 L 360,71 L 361,71 L 362,72 L 364,72 L 365,73 L 365,74 L 366,75 L 366,76 L 377,76 L 378,77 L 379,77 L 380,78 L 381,78 L 382,79 L 385,79 L 386,80 L 386,79 L 387,78 L 388,78 L 389,79 L 390,79 L 391,78 L 391,72 L 389,70 L 389,69 L 388,68 L 388,67 L 385,64 L 385,62 L 381,58 L 380,58 L 379,57 L 377,57 L 376,56 L 376,55 L 374,53 L 373,53 L 371,51 L 370,51 L 369,50 L 363,50 L 362,51 L 359,51 L 358,50 Z" fill="none" stroke="black" stroke-width="1"/>
</svg>