<svg xmlns="http://www.w3.org/2000/svg" width="446" height="193">
  <path d="M 392,76 L 392,78 L 390,80 L 389,80 L 388,79 L 387,79 L 387,80 L 386,81 L 385,80 L 382,80 L 382,81 L 383,82 L 383,83 L 384,84 L 384,87 L 385,88 L 383,90 L 383,91 L 384,92 L 384,93 L 383,94 L 383,96 L 384,97 L 384,98 L 382,100 L 382,101 L 383,101 L 385,103 L 385,104 L 386,104 L 388,106 L 389,106 L 390,107 L 391,107 L 392,108 L 393,108 L 394,109 L 395,109 L 396,110 L 397,110 L 399,112 L 401,112 L 402,111 L 407,111 L 408,112 L 408,113 L 409,113 L 409,109 L 408,109 L 407,108 L 408,107 L 408,105 L 407,104 L 407,103 L 405,101 L 405,100 L 404,99 L 405,98 L 405,95 L 408,92 L 408,91 L 409,90 L 407,90 L 406,89 L 406,85 L 405,84 L 405,83 L 404,82 L 401,82 L 400,81 L 400,80 L 399,80 L 398,79 L 398,78 L 395,78 L 393,76 Z" fill="none" stroke="black" stroke-width="1"/>
</svg>