<svg xmlns="http://www.w3.org/2000/svg" width="216" height="145">
  <path d="M 14,98 L 13,99 L 12,99 L 12,100 L 11,101 L 11,106 L 10,107 L 10,108 L 11,109 L 11,117 L 16,117 L 17,116 L 18,116 L 20,118 L 23,118 L 24,117 L 26,117 L 27,116 L 30,116 L 30,115 L 31,114 L 31,113 L 34,110 L 34,108 L 35,107 L 38,107 L 39,106 L 39,105 L 37,105 L 36,104 L 36,103 L 35,102 L 34,103 L 32,103 L 30,105 L 28,105 L 27,104 L 26,104 L 25,103 L 19,103 L 18,102 L 18,101 L 17,100 L 17,98 Z" fill="none" stroke="black" stroke-width="1"/>
</svg>