<svg xmlns="http://www.w3.org/2000/svg" width="446" height="193">
  <path d="M 381,101 L 379,103 L 378,103 L 377,104 L 374,104 L 373,105 L 373,107 L 374,108 L 374,109 L 373,110 L 373,116 L 372,117 L 372,119 L 371,120 L 371,121 L 369,123 L 368,123 L 367,124 L 365,124 L 366,125 L 366,126 L 365,127 L 365,128 L 368,131 L 369,131 L 370,132 L 371,132 L 375,136 L 375,137 L 376,137 L 378,139 L 378,138 L 379,137 L 379,136 L 380,135 L 381,135 L 382,134 L 382,130 L 383,129 L 383,128 L 389,122 L 390,122 L 397,115 L 397,114 L 398,113 L 398,112 L 397,111 L 396,111 L 395,110 L 394,110 L 393,109 L 392,109 L 391,108 L 390,108 L 389,107 L 388,107 L 386,105 L 385,105 L 384,104 L 384,103 L 383,102 L 382,102 Z" fill="none" stroke="black" stroke-width="1"/>
</svg>