<svg xmlns="http://www.w3.org/2000/svg" width="690" height="339">
  <path d="M 336,252 L 335,253 L 333,253 L 332,254 L 331,254 L 330,255 L 329,255 L 328,256 L 326,256 L 325,257 L 322,257 L 324,259 L 324,261 L 327,264 L 327,265 L 328,266 L 328,267 L 330,269 L 330,272 L 331,272 L 333,274 L 336,274 L 337,275 L 337,276 L 338,276 L 339,277 L 339,278 L 342,278 L 344,280 L 344,281 L 345,281 L 346,280 L 348,280 L 349,279 L 358,279 L 359,278 L 362,278 L 365,275 L 367,275 L 369,273 L 369,272 L 371,270 L 372,270 L 371,269 L 370,269 L 368,267 L 368,266 L 366,264 L 366,263 L 365,262 L 363,262 L 362,261 L 362,260 L 361,259 L 360,259 L 359,258 L 355,258 L 354,259 L 353,258 L 350,258 L 349,259 L 346,259 L 345,258 L 343,258 L 342,257 L 341,257 L 340,256 L 340,255 L 339,255 L 338,254 L 338,252 Z" fill="none" stroke="black" stroke-width="1"/>
</svg>