<svg xmlns="http://www.w3.org/2000/svg" width="690" height="339">
  <path d="M 349,280 L 348,281 L 346,281 L 345,282 L 345,286 L 347,286 L 348,287 L 347,288 L 347,289 L 344,292 L 344,295 L 343,296 L 344,297 L 344,298 L 346,300 L 346,301 L 347,302 L 347,304 L 346,305 L 347,305 L 348,306 L 348,310 L 349,310 L 351,312 L 353,312 L 354,313 L 355,313 L 356,312 L 357,312 L 358,311 L 358,310 L 359,309 L 359,306 L 362,303 L 365,303 L 366,304 L 367,303 L 372,303 L 372,302 L 371,301 L 371,300 L 373,298 L 373,296 L 370,293 L 368,293 L 367,292 L 366,292 L 365,291 L 365,289 L 363,287 L 363,283 L 362,282 L 362,281 L 361,280 Z" fill="none" stroke="black" stroke-width="1"/>
</svg>