<svg xmlns="http://www.w3.org/2000/svg" width="690" height="339">
  <path d="M 355,234 L 352,237 L 354,239 L 354,240 L 355,241 L 354,242 L 354,243 L 352,245 L 351,245 L 349,247 L 348,247 L 347,248 L 344,248 L 343,249 L 342,249 L 339,252 L 339,254 L 340,254 L 341,255 L 341,256 L 342,256 L 343,257 L 345,257 L 346,258 L 349,258 L 350,257 L 353,257 L 354,258 L 355,257 L 359,257 L 360,258 L 361,258 L 363,260 L 363,261 L 365,261 L 367,263 L 367,264 L 369,266 L 369,267 L 370,268 L 371,268 L 373,270 L 373,268 L 374,267 L 377,267 L 379,265 L 380,266 L 381,266 L 382,267 L 383,267 L 384,268 L 386,268 L 386,264 L 385,264 L 384,263 L 384,262 L 381,259 L 381,257 L 384,254 L 385,254 L 386,253 L 388,253 L 389,252 L 390,253 L 391,253 L 389,251 L 389,250 L 388,249 L 388,247 L 387,246 L 387,245 L 386,244 L 385,244 L 383,242 L 383,239 L 382,239 L 381,238 L 381,237 L 378,237 L 377,236 L 374,236 L 372,234 L 371,235 L 369,235 L 368,234 Z" fill="none" stroke="black" stroke-width="1"/>
</svg>