<svg xmlns="http://www.w3.org/2000/svg" width="446" height="193">
  <path d="M 424,107 L 422,109 L 422,112 L 421,113 L 421,114 L 419,116 L 418,116 L 418,118 L 417,119 L 417,122 L 418,123 L 419,123 L 420,124 L 420,125 L 421,126 L 425,126 L 427,128 L 427,130 L 429,132 L 429,133 L 430,134 L 430,135 L 431,136 L 432,136 L 433,137 L 435,137 L 436,138 L 436,139 L 437,139 L 438,140 L 440,140 L 441,139 L 443,139 L 444,138 L 444,137 L 445,136 L 445,131 L 443,129 L 443,128 L 442,127 L 442,126 L 438,122 L 438,121 L 440,119 L 440,118 L 441,117 L 441,116 L 440,116 L 438,114 L 437,114 L 436,113 L 437,112 L 438,112 L 438,111 L 436,109 L 436,108 L 435,107 L 429,107 L 428,108 L 427,107 Z" fill="none" stroke="black" stroke-width="1"/>
</svg>