<svg xmlns="http://www.w3.org/2000/svg" width="690" height="339">
  <path d="M 418,292 L 417,293 L 416,293 L 415,294 L 414,294 L 408,300 L 407,300 L 402,305 L 401,305 L 400,306 L 399,305 L 395,305 L 395,307 L 396,308 L 397,308 L 398,309 L 398,312 L 400,314 L 401,314 L 403,316 L 403,319 L 406,322 L 406,324 L 405,325 L 405,327 L 406,327 L 412,321 L 412,320 L 416,316 L 417,316 L 417,315 L 425,307 L 426,307 L 426,300 L 425,299 L 425,298 L 424,297 L 424,296 L 422,294 L 421,294 L 419,292 Z" fill="none" stroke="black" stroke-width="1"/>
</svg>