<svg xmlns="http://www.w3.org/2000/svg" width="690" height="339">
  <path d="M 417,275 L 414,278 L 412,278 L 411,279 L 408,279 L 407,278 L 405,278 L 404,277 L 403,277 L 403,278 L 405,280 L 403,282 L 400,282 L 401,283 L 400,284 L 401,285 L 401,286 L 400,287 L 400,290 L 399,291 L 399,292 L 398,293 L 398,299 L 397,300 L 397,301 L 396,302 L 396,304 L 399,304 L 400,305 L 401,304 L 402,304 L 407,299 L 408,299 L 414,293 L 415,293 L 416,292 L 417,292 L 418,291 L 418,290 L 420,288 L 420,287 L 424,283 L 424,282 L 423,281 L 423,280 L 418,275 Z" fill="none" stroke="black" stroke-width="1"/>
</svg>