<svg xmlns="http://www.w3.org/2000/svg" width="690" height="339">
  <path d="M 466,245 L 465,246 L 464,246 L 463,247 L 459,247 L 457,249 L 455,249 L 454,250 L 448,250 L 447,251 L 445,251 L 444,252 L 437,252 L 436,251 L 432,251 L 431,250 L 430,250 L 429,249 L 428,249 L 427,248 L 426,248 L 426,250 L 425,251 L 425,252 L 424,253 L 424,255 L 423,256 L 423,263 L 425,263 L 426,264 L 426,265 L 431,265 L 432,266 L 433,266 L 434,267 L 436,267 L 437,268 L 438,268 L 439,269 L 440,269 L 441,268 L 450,277 L 451,277 L 451,276 L 452,275 L 452,274 L 453,273 L 454,273 L 455,272 L 457,272 L 457,271 L 459,269 L 462,269 L 463,268 L 463,263 L 465,261 L 465,260 L 469,256 L 470,256 L 472,254 L 474,254 L 475,253 L 475,252 L 476,251 L 476,249 L 477,248 L 477,247 L 476,247 L 475,246 L 474,246 L 473,245 Z" fill="none" stroke="black" stroke-width="1"/>
</svg>