<svg xmlns="http://www.w3.org/2000/svg" width="587" height="399">
  <path d="M 503,249 L 502,250 L 501,250 L 497,254 L 497,255 L 496,256 L 495,256 L 492,259 L 485,259 L 487,261 L 487,262 L 488,262 L 490,264 L 490,268 L 491,269 L 491,270 L 492,271 L 493,271 L 495,273 L 495,275 L 497,277 L 497,281 L 500,281 L 501,282 L 505,282 L 505,281 L 506,280 L 508,280 L 510,278 L 510,271 L 509,270 L 509,269 L 508,268 L 508,265 L 507,264 L 507,258 L 506,257 L 506,249 Z" fill="none" stroke="black" stroke-width="1"/>
</svg>