<svg xmlns="http://www.w3.org/2000/svg" width="587" height="399">
  <path d="M 466,260 L 465,261 L 464,261 L 463,262 L 462,262 L 461,263 L 454,263 L 453,262 L 449,266 L 444,266 L 442,268 L 442,273 L 446,273 L 447,272 L 455,272 L 455,271 L 457,269 L 458,270 L 459,269 L 460,269 L 461,268 L 462,268 L 463,269 L 461,271 L 460,271 L 459,272 L 457,272 L 460,272 L 461,271 L 464,271 L 465,272 L 471,272 L 472,273 L 474,273 L 479,268 L 479,267 L 480,266 L 480,265 L 479,264 L 481,262 L 482,262 L 482,261 L 481,260 L 478,260 L 477,261 L 474,261 L 473,260 Z" fill="none" stroke="black" stroke-width="1"/>
</svg>