<svg xmlns="http://www.w3.org/2000/svg" width="446" height="193">
  <path d="M 286,145 L 286,147 L 283,150 L 270,150 L 269,151 L 269,153 L 268,154 L 269,155 L 269,156 L 272,159 L 271,160 L 271,162 L 272,163 L 272,164 L 279,171 L 279,172 L 280,172 L 281,173 L 281,174 L 280,175 L 280,178 L 286,178 L 290,174 L 290,172 L 291,171 L 291,170 L 292,169 L 292,167 L 294,165 L 294,164 L 296,162 L 296,161 L 295,160 L 295,158 L 293,156 L 293,151 L 292,150 L 292,149 L 288,145 Z" fill="none" stroke="black" stroke-width="1"/>
</svg>