<svg xmlns="http://www.w3.org/2000/svg" width="446" height="193">
  <path d="M 292,119 L 291,120 L 290,120 L 289,121 L 288,121 L 286,123 L 285,123 L 284,124 L 283,124 L 281,126 L 281,129 L 282,129 L 283,130 L 280,133 L 280,135 L 278,137 L 278,138 L 275,141 L 274,141 L 272,143 L 271,143 L 270,144 L 269,144 L 269,145 L 268,146 L 268,148 L 269,149 L 283,149 L 285,147 L 285,145 L 286,144 L 287,144 L 290,141 L 291,141 L 292,140 L 293,140 L 294,139 L 295,139 L 296,140 L 300,140 L 301,139 L 305,139 L 306,138 L 308,138 L 311,135 L 311,133 L 310,132 L 310,125 L 309,124 L 307,124 L 304,121 L 303,121 L 302,120 L 301,120 L 300,119 Z" fill="none" stroke="black" stroke-width="1"/>
</svg>