<svg xmlns="http://www.w3.org/2000/svg" width="446" height="193">
  <path d="M 313,101 L 308,106 L 307,106 L 307,108 L 308,109 L 310,109 L 314,113 L 314,115 L 313,116 L 313,117 L 311,119 L 311,122 L 310,123 L 310,124 L 311,125 L 311,128 L 312,128 L 313,129 L 320,129 L 322,127 L 330,127 L 331,128 L 332,128 L 336,132 L 336,133 L 337,134 L 337,135 L 345,135 L 345,132 L 344,131 L 344,130 L 340,126 L 340,125 L 339,124 L 339,123 L 338,122 L 338,117 L 336,115 L 335,115 L 334,114 L 333,114 L 326,107 L 326,106 L 322,102 L 321,102 L 320,101 Z" fill="none" stroke="black" stroke-width="1"/>
</svg>