<svg xmlns="http://www.w3.org/2000/svg" width="587" height="399">
  <path d="M 496,282 L 493,285 L 490,285 L 490,286 L 491,287 L 488,290 L 487,290 L 487,293 L 488,294 L 488,296 L 489,297 L 489,298 L 490,299 L 490,300 L 493,303 L 494,303 L 497,306 L 499,306 L 500,305 L 500,304 L 501,303 L 502,304 L 502,305 L 509,305 L 509,303 L 508,302 L 509,301 L 509,299 L 508,298 L 508,296 L 505,293 L 505,292 L 504,291 L 504,290 L 505,289 L 505,288 L 506,287 L 506,286 L 505,285 L 505,283 L 501,283 L 500,282 Z" fill="none" stroke="black" stroke-width="1"/>
</svg>