<svg xmlns="http://www.w3.org/2000/svg" width="446" height="193">
  <path d="M 263,118 L 262,119 L 262,120 L 257,125 L 257,126 L 255,128 L 255,136 L 254,137 L 253,137 L 252,138 L 251,138 L 250,139 L 249,139 L 244,144 L 244,145 L 243,146 L 242,146 L 242,147 L 240,149 L 240,150 L 239,151 L 239,156 L 240,157 L 240,159 L 241,160 L 242,160 L 245,157 L 246,157 L 246,156 L 247,155 L 248,155 L 248,154 L 252,150 L 254,150 L 260,144 L 266,144 L 267,145 L 268,145 L 268,144 L 269,143 L 270,143 L 271,142 L 272,142 L 274,140 L 275,140 L 277,138 L 277,137 L 279,135 L 279,133 L 282,130 L 281,130 L 280,129 L 280,127 L 279,126 L 279,125 L 276,122 L 275,122 L 274,121 L 272,121 L 271,120 L 269,120 L 268,119 L 267,119 L 266,118 Z" fill="none" stroke="black" stroke-width="1"/>
</svg>