<svg xmlns="http://www.w3.org/2000/svg" width="333" height="139">
  <path d="M 66,30 L 64,32 L 61,32 L 55,38 L 55,39 L 54,40 L 51,40 L 51,46 L 50,47 L 50,48 L 53,48 L 54,47 L 58,47 L 59,46 L 63,46 L 64,47 L 59,52 L 63,52 L 64,51 L 65,51 L 66,50 L 71,50 L 73,52 L 74,52 L 75,51 L 76,51 L 77,50 L 78,51 L 78,52 L 79,53 L 80,53 L 81,52 L 82,52 L 83,51 L 83,50 L 82,49 L 82,47 L 80,45 L 79,45 L 76,42 L 76,41 L 74,39 L 74,36 L 75,35 L 75,34 L 76,33 L 71,33 L 70,32 L 69,32 L 68,31 L 68,30 Z" fill="none" stroke="black" stroke-width="1"/>
  <path d="M 73,26 L 73,27 L 76,27 L 76,26 Z" fill="none" stroke="black" stroke-width="1"/>
</svg>