<svg xmlns="http://www.w3.org/2000/svg" width="333" height="139">
  <path d="M 66,51 L 65,52 L 64,52 L 63,53 L 60,53 L 63,56 L 62,57 L 61,57 L 61,58 L 64,58 L 65,59 L 65,60 L 64,61 L 63,61 L 62,62 L 63,62 L 64,61 L 67,61 L 68,62 L 69,62 L 70,63 L 71,63 L 72,64 L 72,65 L 73,65 L 75,67 L 78,67 L 79,66 L 85,66 L 86,65 L 87,65 L 88,66 L 89,66 L 89,65 L 91,63 L 93,63 L 95,61 L 96,61 L 95,60 L 95,58 L 93,56 L 91,56 L 90,55 L 90,54 L 86,54 L 87,55 L 86,56 L 83,56 L 81,54 L 79,54 L 77,52 L 77,51 L 76,52 L 75,52 L 74,53 L 73,53 L 71,51 Z" fill="none" stroke="black" stroke-width="1"/>
</svg>