<svg xmlns="http://www.w3.org/2000/svg" width="333" height="139">
  <path d="M 130,88 L 129,89 L 126,89 L 123,92 L 121,92 L 120,91 L 117,91 L 116,90 L 113,90 L 111,92 L 110,92 L 110,94 L 107,97 L 106,97 L 105,98 L 105,101 L 104,102 L 104,106 L 103,107 L 103,109 L 105,109 L 106,110 L 107,110 L 108,109 L 110,109 L 111,108 L 113,108 L 114,107 L 116,107 L 117,108 L 118,108 L 118,105 L 119,104 L 119,99 L 120,98 L 120,97 L 121,96 L 124,96 L 125,97 L 130,97 L 131,98 L 133,98 L 134,99 L 135,99 L 136,100 L 138,100 L 139,99 L 139,97 L 141,95 L 141,93 L 140,92 L 140,91 L 139,90 L 138,90 L 137,89 L 134,89 L 133,88 Z" fill="none" stroke="black" stroke-width="1"/>
</svg>