<svg xmlns="http://www.w3.org/2000/svg" width="333" height="139">
  <path d="M 149,6 L 148,7 L 147,7 L 145,9 L 143,9 L 142,10 L 141,10 L 139,12 L 137,12 L 136,13 L 135,13 L 133,15 L 133,16 L 131,18 L 129,18 L 128,19 L 126,19 L 126,23 L 125,24 L 125,25 L 126,26 L 126,28 L 125,29 L 125,30 L 127,32 L 128,31 L 130,31 L 131,32 L 140,32 L 141,31 L 142,31 L 143,30 L 145,30 L 148,27 L 153,27 L 153,26 L 154,25 L 156,25 L 157,24 L 156,23 L 156,20 L 155,19 L 154,19 L 153,18 L 153,16 L 152,15 L 152,12 L 154,10 L 154,9 L 153,8 L 153,7 L 152,6 Z" fill="none" stroke="black" stroke-width="1"/>
</svg>