<svg xmlns="http://www.w3.org/2000/svg" width="333" height="139">
  <path d="M 179,31 L 178,32 L 177,32 L 175,34 L 174,34 L 174,36 L 175,36 L 176,37 L 176,41 L 178,43 L 179,43 L 180,44 L 180,45 L 181,45 L 182,46 L 182,47 L 183,48 L 183,49 L 184,49 L 185,50 L 186,50 L 188,52 L 188,53 L 189,54 L 189,55 L 191,55 L 192,56 L 193,56 L 194,57 L 194,58 L 195,57 L 196,57 L 197,56 L 198,56 L 199,55 L 203,55 L 205,53 L 207,53 L 207,50 L 206,49 L 206,43 L 208,41 L 209,41 L 209,40 L 210,39 L 210,38 L 209,37 L 208,37 L 207,36 L 206,36 L 205,35 L 203,37 L 202,37 L 201,38 L 197,38 L 195,36 L 193,36 L 192,35 L 190,35 L 189,34 L 186,34 L 185,35 L 183,35 L 182,34 L 182,33 L 181,33 L 180,32 L 180,31 Z" fill="none" stroke="black" stroke-width="1"/>
</svg>