<svg xmlns="http://www.w3.org/2000/svg" width="1028" height="413">
  <path d="M 479,294 L 477,296 L 474,296 L 473,297 L 470,297 L 470,298 L 469,299 L 467,299 L 466,298 L 465,298 L 464,297 L 463,298 L 463,299 L 464,300 L 463,301 L 463,306 L 464,306 L 464,303 L 463,302 L 464,301 L 465,301 L 466,302 L 466,303 L 468,303 L 468,302 L 469,301 L 471,303 L 472,302 L 473,302 L 470,299 L 471,298 L 473,298 L 475,300 L 476,300 L 477,301 L 476,302 L 477,303 L 478,302 L 481,302 L 482,303 L 481,304 L 479,304 L 475,308 L 474,308 L 475,309 L 480,309 L 481,308 L 484,308 L 485,309 L 484,310 L 483,310 L 482,311 L 479,311 L 478,312 L 477,312 L 479,314 L 478,315 L 477,315 L 475,313 L 475,312 L 474,312 L 473,311 L 472,312 L 471,311 L 470,311 L 469,310 L 469,314 L 468,315 L 468,317 L 469,318 L 469,319 L 470,320 L 471,320 L 473,322 L 474,322 L 477,325 L 478,325 L 479,326 L 480,326 L 481,327 L 484,327 L 485,326 L 485,325 L 486,324 L 486,323 L 487,322 L 487,319 L 486,318 L 486,317 L 487,316 L 486,315 L 486,313 L 489,310 L 489,309 L 491,307 L 491,306 L 490,306 L 488,304 L 488,303 L 487,303 L 486,302 L 486,297 L 487,296 L 484,296 L 483,295 L 482,295 L 481,294 Z" fill="none" stroke="black" stroke-width="1"/>
</svg>