<svg xmlns="http://www.w3.org/2000/svg" width="333" height="139">
  <path d="M 199,56 L 198,57 L 197,57 L 196,58 L 195,58 L 193,60 L 192,60 L 191,61 L 188,61 L 188,62 L 187,63 L 186,63 L 185,62 L 182,62 L 181,61 L 180,61 L 179,62 L 178,62 L 178,63 L 180,65 L 180,66 L 179,67 L 179,68 L 180,69 L 180,70 L 179,71 L 179,72 L 176,75 L 176,77 L 177,78 L 177,79 L 178,79 L 179,80 L 179,81 L 180,82 L 180,84 L 185,84 L 186,85 L 187,85 L 189,83 L 189,82 L 190,81 L 190,80 L 192,78 L 193,78 L 194,77 L 196,77 L 197,76 L 199,76 L 201,74 L 202,74 L 203,73 L 203,70 L 204,69 L 204,68 L 205,67 L 205,66 L 209,62 L 208,61 L 208,58 L 207,58 L 206,57 L 206,56 Z" fill="none" stroke="black" stroke-width="1"/>
</svg>