<svg xmlns="http://www.w3.org/2000/svg" width="333" height="139">
  <path d="M 142,94 L 142,95 L 140,97 L 140,99 L 138,101 L 139,101 L 140,102 L 142,102 L 146,106 L 146,107 L 149,110 L 150,110 L 151,111 L 153,111 L 154,112 L 155,111 L 159,111 L 160,110 L 166,110 L 167,109 L 169,109 L 171,107 L 174,107 L 174,105 L 175,104 L 176,104 L 176,101 L 174,99 L 174,96 L 173,95 L 173,94 L 171,94 L 170,95 L 168,95 L 167,96 L 163,96 L 162,97 L 161,97 L 160,98 L 157,98 L 157,99 L 156,100 L 149,100 L 147,98 L 147,97 L 146,96 L 144,96 Z" fill="none" stroke="black" stroke-width="1"/>
</svg>