<svg xmlns="http://www.w3.org/2000/svg" width="333" height="139">
  <path d="M 244,65 L 242,67 L 241,67 L 240,68 L 234,68 L 232,70 L 230,70 L 229,69 L 228,69 L 227,68 L 227,69 L 226,70 L 226,75 L 227,76 L 227,77 L 228,78 L 228,80 L 229,81 L 229,82 L 231,84 L 233,84 L 235,86 L 235,87 L 236,87 L 237,86 L 240,86 L 241,85 L 244,85 L 246,83 L 249,83 L 249,82 L 250,81 L 251,81 L 252,80 L 252,78 L 253,77 L 255,77 L 256,76 L 256,72 L 255,72 L 254,71 L 252,71 L 249,68 L 248,68 L 246,66 L 246,65 Z" fill="none" stroke="black" stroke-width="1"/>
</svg>