<svg xmlns="http://www.w3.org/2000/svg" width="333" height="139">
  <path d="M 202,7 L 202,8 L 203,9 L 203,12 L 202,13 L 202,21 L 206,21 L 206,20 L 207,19 L 209,19 L 212,22 L 214,22 L 215,21 L 216,21 L 218,23 L 220,23 L 221,24 L 222,24 L 224,26 L 225,26 L 226,27 L 227,27 L 228,28 L 230,28 L 231,27 L 235,27 L 236,28 L 236,29 L 237,29 L 238,30 L 238,31 L 239,32 L 239,30 L 237,28 L 237,27 L 238,26 L 238,22 L 239,21 L 237,21 L 236,20 L 233,20 L 232,19 L 232,18 L 230,18 L 229,19 L 227,19 L 226,18 L 225,18 L 224,17 L 221,17 L 220,16 L 220,15 L 219,14 L 218,14 L 217,13 L 215,13 L 213,15 L 210,15 L 206,11 L 206,10 L 205,9 L 205,7 Z" fill="none" stroke="black" stroke-width="1"/>
</svg>