<svg xmlns="http://www.w3.org/2000/svg" width="333" height="139">
  <path d="M 250,39 L 249,40 L 247,40 L 246,41 L 246,43 L 247,44 L 247,48 L 246,49 L 245,49 L 244,50 L 243,50 L 243,52 L 244,53 L 245,53 L 247,55 L 247,56 L 249,56 L 250,57 L 250,62 L 249,63 L 249,64 L 248,65 L 247,65 L 247,66 L 248,67 L 249,67 L 252,70 L 253,70 L 253,69 L 254,68 L 255,68 L 256,67 L 258,67 L 259,66 L 263,66 L 264,65 L 267,65 L 268,64 L 269,64 L 270,63 L 271,63 L 271,62 L 272,61 L 272,60 L 271,59 L 271,55 L 270,54 L 270,51 L 272,49 L 273,49 L 274,48 L 276,48 L 277,47 L 277,45 L 276,44 L 274,44 L 273,43 L 274,42 L 273,42 L 272,41 L 272,40 L 270,40 L 269,39 L 260,39 L 259,40 L 256,40 L 255,39 Z" fill="none" stroke="black" stroke-width="1"/>
</svg>