<svg xmlns="http://www.w3.org/2000/svg" width="333" height="139">
  <path d="M 274,49 L 273,50 L 272,50 L 271,51 L 271,54 L 272,55 L 272,59 L 273,60 L 273,61 L 272,62 L 272,63 L 274,65 L 277,65 L 278,66 L 278,69 L 280,71 L 280,72 L 281,72 L 282,73 L 283,73 L 285,75 L 287,75 L 288,74 L 289,75 L 291,73 L 291,71 L 290,70 L 290,66 L 292,64 L 292,62 L 294,60 L 295,60 L 296,61 L 297,61 L 299,59 L 303,59 L 306,62 L 308,62 L 309,61 L 310,62 L 314,62 L 315,61 L 315,60 L 314,60 L 313,59 L 314,58 L 313,57 L 312,57 L 311,58 L 310,58 L 308,56 L 308,53 L 306,51 L 302,51 L 299,54 L 293,54 L 292,53 L 291,53 L 289,51 L 286,51 L 284,49 L 283,49 L 282,50 L 281,49 L 280,50 L 277,50 L 276,49 Z" fill="none" stroke="black" stroke-width="1"/>
</svg>