<svg xmlns="http://www.w3.org/2000/svg" width="333" height="139">
  <path d="M 250,82 L 250,83 L 249,84 L 246,84 L 244,86 L 241,86 L 240,87 L 237,87 L 236,88 L 234,88 L 234,92 L 235,93 L 235,94 L 236,95 L 236,96 L 238,98 L 238,101 L 239,101 L 240,102 L 240,107 L 242,107 L 243,106 L 244,106 L 247,103 L 248,103 L 251,100 L 255,100 L 256,99 L 260,99 L 261,100 L 262,100 L 265,97 L 265,96 L 266,95 L 266,93 L 267,92 L 267,88 L 268,87 L 268,86 L 267,85 L 266,85 L 264,83 L 262,83 L 261,82 L 259,82 L 258,83 L 254,83 L 253,82 Z" fill="none" stroke="black" stroke-width="1"/>
</svg>