<svg xmlns="http://www.w3.org/2000/svg" width="248" height="151">
  <path d="M 134,21 L 134,22 L 132,24 L 128,24 L 127,25 L 127,27 L 126,28 L 126,29 L 127,29 L 129,31 L 129,35 L 130,35 L 134,39 L 135,39 L 136,38 L 137,39 L 138,39 L 139,40 L 139,41 L 140,42 L 140,43 L 141,44 L 141,45 L 142,46 L 143,46 L 144,47 L 148,47 L 149,46 L 150,46 L 151,47 L 151,44 L 152,43 L 152,42 L 153,41 L 154,41 L 156,39 L 157,39 L 157,38 L 156,37 L 156,36 L 157,35 L 157,34 L 158,33 L 158,32 L 155,29 L 154,29 L 151,26 L 151,24 L 149,22 L 144,22 L 143,23 L 141,23 L 140,22 L 140,21 Z" fill="none" stroke="black" stroke-width="1"/>
</svg>