<svg xmlns="http://www.w3.org/2000/svg" width="248" height="151">
  <path d="M 160,38 L 159,39 L 158,39 L 157,40 L 156,40 L 154,42 L 153,42 L 153,43 L 152,44 L 152,48 L 153,49 L 154,48 L 155,48 L 158,51 L 158,52 L 160,54 L 160,57 L 161,58 L 161,60 L 163,62 L 163,64 L 164,64 L 165,63 L 166,63 L 171,68 L 172,68 L 172,67 L 173,66 L 175,66 L 176,65 L 177,65 L 178,64 L 180,64 L 181,63 L 183,63 L 184,64 L 185,64 L 186,65 L 186,63 L 188,61 L 188,60 L 189,59 L 189,58 L 188,58 L 187,57 L 187,56 L 185,56 L 184,55 L 184,54 L 183,53 L 183,52 L 181,52 L 179,50 L 178,50 L 173,45 L 173,43 L 170,40 L 170,39 L 169,39 L 167,41 L 166,41 L 164,39 L 163,39 L 162,38 Z" fill="none" stroke="black" stroke-width="1"/>
</svg>