<svg xmlns="http://www.w3.org/2000/svg" width="248" height="151">
  <path d="M 183,94 L 184,95 L 184,97 L 182,99 L 181,99 L 180,100 L 180,101 L 179,102 L 177,102 L 176,103 L 175,103 L 175,105 L 176,106 L 176,107 L 177,108 L 177,109 L 178,109 L 181,112 L 183,112 L 184,113 L 184,114 L 187,117 L 188,117 L 189,118 L 190,118 L 191,119 L 199,119 L 200,120 L 202,120 L 203,121 L 205,121 L 206,122 L 207,122 L 207,117 L 208,116 L 210,116 L 210,115 L 211,114 L 212,114 L 213,113 L 213,112 L 212,111 L 210,111 L 209,110 L 208,110 L 206,108 L 205,108 L 204,107 L 200,107 L 198,105 L 198,104 L 196,104 L 195,103 L 194,103 L 191,100 L 191,98 L 187,94 Z" fill="none" stroke="black" stroke-width="1"/>
</svg>