<svg xmlns="http://www.w3.org/2000/svg" width="248" height="151">
  <path d="M 196,87 L 194,89 L 194,90 L 192,92 L 191,92 L 191,93 L 189,95 L 192,98 L 192,100 L 194,102 L 195,102 L 196,103 L 198,103 L 199,104 L 199,105 L 200,106 L 204,106 L 205,107 L 206,107 L 208,109 L 209,109 L 210,110 L 212,110 L 213,111 L 214,111 L 216,109 L 217,109 L 218,108 L 219,108 L 219,107 L 221,105 L 221,102 L 223,100 L 224,100 L 224,99 L 223,99 L 221,97 L 221,94 L 219,94 L 218,93 L 215,93 L 212,90 L 209,90 L 207,92 L 205,92 L 204,91 L 201,91 L 200,90 L 200,88 L 197,88 Z" fill="none" stroke="black" stroke-width="1"/>
</svg>