<svg xmlns="http://www.w3.org/2000/svg" width="248" height="151">
  <path d="M 126,34 L 125,35 L 124,35 L 125,36 L 124,37 L 123,37 L 123,38 L 122,39 L 121,39 L 119,41 L 117,41 L 116,42 L 114,42 L 114,44 L 115,45 L 115,46 L 116,47 L 116,50 L 115,51 L 117,53 L 117,58 L 119,60 L 121,60 L 123,62 L 124,62 L 125,63 L 125,64 L 127,64 L 128,65 L 131,65 L 132,64 L 133,64 L 136,61 L 136,60 L 137,59 L 138,59 L 137,58 L 137,57 L 138,56 L 138,55 L 140,53 L 138,51 L 138,49 L 139,48 L 140,48 L 140,47 L 141,46 L 140,45 L 140,44 L 139,43 L 139,42 L 138,41 L 138,40 L 137,40 L 136,39 L 135,40 L 134,40 L 130,36 L 129,36 L 128,35 L 128,34 Z" fill="none" stroke="black" stroke-width="1"/>
</svg>