<svg xmlns="http://www.w3.org/2000/svg" width="259" height="221">
  <path d="M 205,42 L 204,43 L 203,43 L 202,44 L 201,44 L 201,46 L 199,48 L 198,48 L 198,49 L 196,51 L 195,51 L 194,52 L 193,52 L 192,53 L 192,55 L 193,55 L 195,57 L 195,58 L 193,60 L 193,61 L 191,63 L 191,66 L 193,68 L 194,68 L 195,69 L 202,69 L 203,68 L 205,68 L 205,64 L 204,63 L 204,62 L 203,62 L 202,61 L 202,60 L 200,58 L 201,57 L 201,56 L 202,55 L 202,53 L 203,52 L 204,52 L 205,53 L 205,54 L 206,55 L 206,58 L 207,59 L 207,61 L 209,63 L 209,64 L 214,69 L 214,75 L 216,75 L 218,73 L 218,71 L 219,70 L 219,60 L 218,59 L 218,58 L 217,57 L 217,56 L 216,55 L 216,52 L 215,51 L 215,47 L 212,47 L 210,45 L 210,44 L 209,44 L 207,42 Z" fill="none" stroke="black" stroke-width="1"/>
</svg>