<svg xmlns="http://www.w3.org/2000/svg" width="259" height="221">
  <path d="M 170,76 L 169,77 L 164,77 L 164,79 L 165,80 L 165,82 L 167,84 L 167,87 L 168,88 L 169,88 L 170,89 L 170,90 L 171,91 L 171,92 L 172,93 L 174,93 L 175,94 L 176,94 L 177,93 L 178,93 L 179,94 L 185,94 L 186,93 L 188,93 L 188,92 L 189,91 L 191,91 L 191,89 L 190,89 L 189,88 L 189,84 L 188,85 L 185,85 L 182,82 L 181,82 L 179,80 L 177,80 L 176,79 L 175,79 L 174,78 L 174,77 L 173,77 L 172,76 Z" fill="none" stroke="black" stroke-width="1"/>
</svg>