<svg xmlns="http://www.w3.org/2000/svg" width="259" height="221">
  <path d="M 143,64 L 142,65 L 142,66 L 139,69 L 138,69 L 135,72 L 134,72 L 132,74 L 132,77 L 133,78 L 133,79 L 136,82 L 136,83 L 137,84 L 138,84 L 139,85 L 142,85 L 143,86 L 143,87 L 144,88 L 144,90 L 145,91 L 149,91 L 151,89 L 152,89 L 153,88 L 154,89 L 161,89 L 161,88 L 162,87 L 166,87 L 166,84 L 164,82 L 164,80 L 163,79 L 163,77 L 164,76 L 164,74 L 163,73 L 160,73 L 158,71 L 158,68 L 155,68 L 154,67 L 150,67 L 149,66 L 149,65 L 148,64 Z" fill="none" stroke="black" stroke-width="1"/>
</svg>