<svg xmlns="http://www.w3.org/2000/svg" width="259" height="221">
  <path d="M 189,92 L 189,93 L 188,94 L 186,94 L 185,95 L 179,95 L 178,94 L 177,94 L 176,95 L 175,95 L 174,94 L 172,94 L 172,98 L 173,99 L 173,100 L 174,101 L 174,102 L 176,104 L 176,105 L 177,106 L 178,106 L 179,107 L 179,108 L 180,108 L 181,109 L 181,110 L 182,110 L 183,109 L 184,109 L 187,106 L 191,106 L 191,105 L 192,104 L 193,105 L 197,105 L 197,103 L 195,101 L 195,100 L 193,98 L 193,97 L 192,97 L 190,95 L 190,92 Z" fill="none" stroke="black" stroke-width="1"/>
</svg>