<svg xmlns="http://www.w3.org/2000/svg" width="259" height="221">
  <path d="M 203,69 L 202,70 L 201,70 L 202,71 L 202,74 L 203,75 L 203,76 L 206,79 L 206,80 L 210,84 L 210,86 L 212,88 L 212,90 L 213,91 L 213,93 L 214,94 L 213,95 L 213,97 L 214,98 L 214,100 L 217,103 L 215,105 L 216,106 L 216,109 L 215,110 L 215,111 L 216,112 L 218,112 L 219,113 L 219,112 L 220,111 L 221,111 L 224,108 L 225,108 L 226,107 L 226,105 L 224,103 L 224,102 L 223,101 L 224,100 L 223,99 L 222,99 L 221,98 L 221,96 L 219,94 L 219,93 L 218,92 L 218,90 L 219,89 L 220,89 L 219,88 L 219,87 L 218,86 L 217,86 L 213,82 L 213,81 L 211,79 L 211,78 L 208,75 L 208,73 L 207,72 L 206,72 L 205,71 L 205,69 Z" fill="none" stroke="black" stroke-width="1"/>
</svg>