<svg xmlns="http://www.w3.org/2000/svg" width="259" height="221">
  <path d="M 224,109 L 221,112 L 220,112 L 220,113 L 219,114 L 218,114 L 218,116 L 222,120 L 222,123 L 223,124 L 223,125 L 227,129 L 227,131 L 228,132 L 228,133 L 229,133 L 230,134 L 230,135 L 232,137 L 232,138 L 235,141 L 235,146 L 236,147 L 236,149 L 237,149 L 238,150 L 238,151 L 239,152 L 240,152 L 241,153 L 241,154 L 244,157 L 245,157 L 245,156 L 246,155 L 249,155 L 250,154 L 251,155 L 253,155 L 254,156 L 254,155 L 252,153 L 251,153 L 247,149 L 247,148 L 246,148 L 244,146 L 244,143 L 243,142 L 243,141 L 242,140 L 242,139 L 241,138 L 241,137 L 240,136 L 240,135 L 238,133 L 238,132 L 237,131 L 237,129 L 236,128 L 236,127 L 235,126 L 235,125 L 232,122 L 232,120 L 230,118 L 230,117 L 229,116 L 229,114 L 227,112 L 227,111 L 225,109 Z" fill="none" stroke="black" stroke-width="1"/>
</svg>