<svg xmlns="http://www.w3.org/2000/svg" width="259" height="221">
  <path d="M 186,179 L 185,180 L 185,181 L 183,183 L 182,183 L 182,184 L 181,185 L 178,185 L 177,184 L 177,185 L 176,186 L 176,187 L 173,190 L 172,190 L 171,191 L 171,192 L 169,194 L 169,195 L 167,197 L 167,198 L 166,199 L 166,201 L 165,202 L 165,206 L 166,206 L 167,207 L 171,207 L 172,208 L 174,208 L 175,209 L 177,209 L 178,210 L 180,210 L 181,211 L 183,211 L 184,212 L 187,212 L 188,213 L 190,213 L 191,214 L 200,214 L 200,212 L 201,211 L 201,209 L 202,208 L 202,207 L 203,206 L 203,205 L 205,203 L 205,202 L 207,200 L 207,199 L 213,193 L 213,192 L 214,191 L 214,189 L 213,188 L 212,188 L 211,187 L 210,187 L 209,186 L 207,186 L 206,185 L 204,185 L 203,184 L 201,184 L 200,183 L 198,183 L 197,182 L 194,182 L 193,181 L 191,181 L 190,180 L 188,180 L 187,179 Z" fill="none" stroke="black" stroke-width="1"/>
</svg>