<svg xmlns="http://www.w3.org/2000/svg" width="259" height="221">
  <path d="M 225,177 L 224,178 L 224,180 L 221,183 L 221,185 L 216,190 L 215,190 L 215,191 L 214,192 L 214,193 L 208,199 L 208,200 L 206,202 L 206,203 L 204,205 L 204,206 L 203,207 L 203,208 L 202,209 L 202,211 L 201,212 L 201,214 L 202,215 L 202,216 L 203,217 L 203,220 L 206,220 L 207,219 L 208,219 L 209,220 L 213,220 L 214,219 L 215,219 L 216,218 L 218,218 L 219,217 L 222,217 L 223,216 L 228,216 L 229,215 L 230,215 L 231,214 L 243,214 L 244,215 L 256,215 L 258,213 L 258,207 L 257,206 L 257,204 L 256,203 L 256,197 L 255,196 L 255,195 L 251,191 L 250,191 L 248,189 L 247,189 L 245,187 L 244,187 L 242,185 L 242,184 L 241,183 L 241,181 L 240,180 L 240,179 L 233,179 L 232,180 L 230,180 L 228,178 L 227,178 L 226,177 Z" fill="none" stroke="black" stroke-width="1"/>
</svg>