<svg xmlns="http://www.w3.org/2000/svg" width="340" height="393">
  <path d="M 87,0 L 87,1 L 86,2 L 85,2 L 85,3 L 83,5 L 82,5 L 82,7 L 83,8 L 83,10 L 84,11 L 84,12 L 85,13 L 85,16 L 87,18 L 85,20 L 84,20 L 83,19 L 82,19 L 82,21 L 81,22 L 82,23 L 82,24 L 83,25 L 83,27 L 84,28 L 84,29 L 85,30 L 86,30 L 88,32 L 89,32 L 91,34 L 92,34 L 97,39 L 97,40 L 98,41 L 98,42 L 100,42 L 101,43 L 103,43 L 104,44 L 106,44 L 107,45 L 113,45 L 114,46 L 115,46 L 116,45 L 118,47 L 118,48 L 119,48 L 118,47 L 118,46 L 117,45 L 116,45 L 115,44 L 115,43 L 114,42 L 114,41 L 113,40 L 113,38 L 112,37 L 112,30 L 111,30 L 109,28 L 108,28 L 107,27 L 106,27 L 105,26 L 105,25 L 103,23 L 103,22 L 102,21 L 99,21 L 98,20 L 97,20 L 94,17 L 94,16 L 93,15 L 93,13 L 92,12 L 92,11 L 91,10 L 91,7 L 90,6 L 91,5 L 91,3 L 90,2 L 90,0 Z" fill="none" stroke="black" stroke-width="1"/>
</svg>