<svg xmlns="http://www.w3.org/2000/svg" width="248" height="151">
  <path d="M 61,115 L 60,116 L 59,116 L 58,117 L 57,117 L 57,119 L 55,121 L 55,124 L 54,125 L 53,125 L 53,126 L 52,127 L 48,127 L 46,129 L 44,129 L 43,130 L 43,134 L 45,136 L 45,139 L 47,141 L 47,146 L 48,147 L 48,150 L 54,150 L 56,148 L 57,148 L 61,144 L 61,143 L 62,142 L 62,141 L 65,138 L 68,138 L 69,137 L 74,137 L 74,136 L 76,134 L 76,131 L 75,130 L 74,130 L 73,129 L 73,127 L 72,126 L 72,125 L 70,125 L 67,122 L 68,121 L 67,120 L 67,119 L 66,118 L 66,116 L 65,115 Z" fill="none" stroke="black" stroke-width="1"/>
</svg>