<svg xmlns="http://www.w3.org/2000/svg" width="395" height="336">
  <path d="M 55,65 L 54,66 L 53,66 L 51,68 L 50,68 L 49,69 L 48,69 L 49,70 L 49,72 L 48,73 L 48,77 L 46,79 L 46,80 L 45,81 L 45,82 L 44,83 L 42,83 L 41,84 L 39,84 L 38,85 L 36,85 L 36,86 L 37,86 L 40,89 L 40,95 L 44,99 L 44,100 L 45,101 L 46,101 L 47,102 L 47,103 L 52,108 L 53,108 L 54,109 L 55,108 L 55,107 L 57,105 L 58,105 L 59,104 L 61,104 L 66,99 L 66,98 L 69,95 L 76,95 L 77,94 L 80,94 L 81,95 L 82,95 L 82,94 L 84,92 L 84,91 L 86,89 L 87,89 L 89,87 L 89,85 L 86,82 L 85,82 L 83,80 L 83,78 L 82,77 L 82,76 L 81,75 L 81,74 L 80,74 L 77,71 L 75,71 L 74,70 L 73,70 L 72,69 L 71,69 L 70,68 L 63,68 L 62,67 L 61,67 L 60,66 L 57,66 L 56,65 Z" fill="none" stroke="black" stroke-width="1"/>
</svg>