<svg xmlns="http://www.w3.org/2000/svg" width="395" height="336">
  <path d="M 54,120 L 48,126 L 45,126 L 44,127 L 42,127 L 44,129 L 44,130 L 46,132 L 46,134 L 47,135 L 48,135 L 49,134 L 50,135 L 51,135 L 53,137 L 54,137 L 56,139 L 57,139 L 61,143 L 61,144 L 62,145 L 62,146 L 65,149 L 65,152 L 66,153 L 66,154 L 67,155 L 67,156 L 68,157 L 68,159 L 70,161 L 70,163 L 71,164 L 71,169 L 73,169 L 74,170 L 75,170 L 77,172 L 79,172 L 78,171 L 78,169 L 79,168 L 79,165 L 78,164 L 78,162 L 82,158 L 83,158 L 83,157 L 84,156 L 86,156 L 86,154 L 85,153 L 85,145 L 84,144 L 84,143 L 83,143 L 81,141 L 80,141 L 73,134 L 73,133 L 72,133 L 69,130 L 69,129 L 68,128 L 68,127 L 67,126 L 67,125 L 66,124 L 66,121 L 64,121 L 64,122 L 63,123 L 60,123 L 59,122 L 58,122 L 57,121 L 55,121 Z" fill="none" stroke="black" stroke-width="1"/>
</svg>