<svg xmlns="http://www.w3.org/2000/svg" width="395" height="336">
  <path d="M 100,112 L 98,114 L 96,114 L 95,115 L 93,115 L 92,116 L 91,116 L 90,117 L 90,118 L 91,119 L 91,121 L 92,122 L 93,122 L 94,121 L 95,122 L 95,123 L 96,124 L 95,125 L 95,129 L 96,129 L 97,130 L 97,131 L 96,132 L 96,133 L 94,135 L 94,136 L 92,138 L 91,138 L 90,139 L 89,139 L 88,140 L 88,141 L 87,142 L 85,142 L 85,144 L 86,145 L 86,153 L 87,154 L 87,156 L 88,157 L 89,157 L 90,158 L 90,159 L 91,160 L 91,161 L 92,161 L 93,162 L 95,162 L 98,159 L 99,159 L 100,158 L 101,158 L 103,156 L 104,156 L 106,154 L 107,154 L 107,153 L 105,151 L 105,149 L 106,148 L 107,148 L 108,147 L 109,147 L 109,146 L 111,144 L 112,144 L 114,142 L 115,142 L 116,141 L 116,140 L 117,139 L 116,138 L 116,135 L 115,134 L 115,131 L 116,130 L 116,129 L 115,128 L 115,126 L 112,123 L 111,123 L 110,122 L 110,121 L 111,120 L 111,118 L 110,118 L 109,119 L 105,119 L 104,118 L 104,117 L 102,115 L 102,114 Z" fill="none" stroke="black" stroke-width="1"/>
</svg>