<svg xmlns="http://www.w3.org/2000/svg" width="191" height="202">
  <path d="M 141,187 L 140,188 L 139,188 L 141,188 L 142,189 L 144,189 L 145,188 L 145,187 Z" fill="none" stroke="black" stroke-width="1"/>
  <path d="M 131,168 L 129,170 L 129,171 L 128,172 L 128,174 L 132,178 L 132,179 L 133,179 L 134,180 L 134,181 L 135,182 L 135,184 L 134,185 L 134,187 L 135,187 L 136,186 L 139,186 L 140,185 L 144,185 L 145,184 L 147,184 L 147,181 L 149,179 L 150,179 L 150,178 L 149,177 L 150,176 L 150,173 L 144,173 L 143,172 L 142,172 L 141,173 L 140,173 L 137,170 L 137,169 L 136,169 L 135,168 Z" fill="none" stroke="black" stroke-width="1"/>
</svg>