<svg xmlns="http://www.w3.org/2000/svg" width="395" height="336">
  <path d="M 70,170 L 70,176 L 71,177 L 71,179 L 72,180 L 72,187 L 73,188 L 73,189 L 74,190 L 74,191 L 75,192 L 76,192 L 77,193 L 76,194 L 77,194 L 78,195 L 78,196 L 79,197 L 79,198 L 81,200 L 82,200 L 83,201 L 86,201 L 87,202 L 89,200 L 92,200 L 94,198 L 96,198 L 98,200 L 100,200 L 101,199 L 102,199 L 103,198 L 105,198 L 105,196 L 104,195 L 104,192 L 102,190 L 102,189 L 104,187 L 104,185 L 103,186 L 102,185 L 99,185 L 97,183 L 94,186 L 93,186 L 93,187 L 92,188 L 90,188 L 89,187 L 89,186 L 85,186 L 84,185 L 83,185 L 82,186 L 81,185 L 81,184 L 78,181 L 78,178 L 79,177 L 78,176 L 78,174 L 79,173 L 77,173 L 75,171 L 74,171 L 73,170 Z" fill="none" stroke="black" stroke-width="1"/>
</svg>