<svg xmlns="http://www.w3.org/2000/svg" width="395" height="336">
  <path d="M 118,180 L 117,181 L 116,181 L 115,182 L 114,182 L 113,183 L 107,183 L 106,184 L 105,184 L 105,187 L 103,189 L 103,190 L 105,192 L 105,195 L 106,196 L 106,198 L 111,203 L 111,204 L 114,207 L 114,208 L 115,208 L 116,209 L 120,209 L 121,210 L 121,209 L 123,207 L 123,206 L 125,204 L 126,204 L 127,203 L 128,203 L 129,202 L 130,202 L 132,200 L 132,199 L 133,198 L 133,197 L 136,194 L 135,193 L 135,191 L 137,189 L 138,189 L 138,188 L 137,187 L 137,184 L 135,184 L 134,183 L 130,183 L 129,182 L 129,181 L 128,180 L 128,181 L 127,182 L 125,182 L 124,181 L 123,181 L 122,180 Z" fill="none" stroke="black" stroke-width="1"/>
</svg>