<svg xmlns="http://www.w3.org/2000/svg" width="395" height="336">
  <path d="M 262,135 L 261,136 L 260,136 L 259,137 L 258,137 L 257,138 L 254,138 L 253,139 L 252,139 L 251,140 L 251,141 L 250,142 L 249,142 L 248,143 L 248,145 L 249,146 L 250,146 L 251,147 L 251,148 L 252,149 L 252,150 L 254,152 L 255,152 L 256,153 L 256,154 L 259,157 L 260,157 L 261,158 L 263,158 L 264,159 L 264,160 L 265,160 L 266,161 L 267,161 L 268,162 L 269,162 L 270,161 L 271,161 L 274,158 L 275,158 L 275,157 L 276,156 L 276,152 L 278,150 L 278,145 L 279,144 L 279,143 L 278,142 L 278,140 L 277,140 L 276,141 L 273,141 L 272,140 L 269,140 L 268,139 L 269,138 L 268,137 L 268,136 L 265,136 L 264,135 Z" fill="none" stroke="black" stroke-width="1"/>
</svg>