<svg xmlns="http://www.w3.org/2000/svg" width="395" height="336">
  <path d="M 140,188 L 138,190 L 137,190 L 136,191 L 136,193 L 137,194 L 134,197 L 134,198 L 133,199 L 133,200 L 134,200 L 137,203 L 137,207 L 138,208 L 139,208 L 142,211 L 143,211 L 144,210 L 149,210 L 150,211 L 150,218 L 151,218 L 152,219 L 152,223 L 154,225 L 156,225 L 157,226 L 164,226 L 165,225 L 166,225 L 167,224 L 169,224 L 170,223 L 174,223 L 175,222 L 177,222 L 178,221 L 179,221 L 181,219 L 181,216 L 180,215 L 180,214 L 182,212 L 185,212 L 186,211 L 187,211 L 187,210 L 189,208 L 188,207 L 187,207 L 186,206 L 184,206 L 182,204 L 182,203 L 180,203 L 179,202 L 178,202 L 176,200 L 176,198 L 177,197 L 177,196 L 176,195 L 175,195 L 173,193 L 172,193 L 171,192 L 170,192 L 165,197 L 164,197 L 163,196 L 159,196 L 158,195 L 155,195 L 154,196 L 151,196 L 150,197 L 148,197 L 146,195 L 145,195 L 143,193 L 143,192 L 140,189 Z" fill="none" stroke="black" stroke-width="1"/>
</svg>