<svg xmlns="http://www.w3.org/2000/svg" width="395" height="336">
  <path d="M 188,158 L 186,160 L 185,160 L 185,162 L 183,164 L 183,166 L 180,169 L 180,170 L 179,171 L 179,172 L 177,174 L 177,182 L 173,186 L 172,186 L 170,188 L 169,188 L 170,189 L 170,191 L 171,191 L 172,192 L 173,192 L 175,194 L 176,194 L 178,196 L 178,197 L 177,198 L 177,200 L 178,201 L 179,201 L 180,202 L 182,202 L 183,203 L 183,204 L 184,205 L 186,205 L 187,206 L 188,206 L 189,207 L 190,207 L 191,206 L 192,206 L 192,204 L 191,204 L 190,203 L 190,200 L 191,199 L 191,197 L 192,196 L 192,192 L 194,190 L 195,190 L 196,189 L 196,188 L 197,187 L 197,186 L 196,185 L 196,184 L 195,183 L 195,179 L 199,175 L 199,171 L 200,170 L 200,168 L 201,167 L 201,165 L 202,164 L 202,162 L 198,162 L 195,159 L 192,159 L 191,158 Z" fill="none" stroke="black" stroke-width="1"/>
</svg>