<svg xmlns="http://www.w3.org/2000/svg" width="395" height="336">
  <path d="M 129,97 L 127,99 L 125,99 L 124,100 L 124,101 L 123,102 L 123,106 L 121,108 L 120,108 L 119,109 L 116,109 L 115,110 L 114,110 L 114,111 L 112,113 L 112,114 L 110,116 L 110,117 L 111,117 L 112,118 L 112,120 L 111,121 L 111,122 L 112,122 L 116,126 L 116,128 L 117,129 L 119,129 L 120,128 L 123,128 L 124,129 L 125,129 L 126,130 L 128,130 L 129,131 L 132,131 L 136,127 L 137,127 L 137,123 L 138,122 L 143,122 L 145,120 L 145,119 L 146,118 L 147,118 L 148,117 L 148,115 L 149,114 L 150,114 L 151,113 L 152,113 L 153,114 L 159,114 L 160,115 L 161,115 L 162,116 L 164,116 L 165,115 L 166,115 L 168,117 L 168,116 L 169,115 L 170,115 L 166,111 L 165,111 L 164,110 L 164,109 L 165,108 L 166,108 L 167,107 L 169,107 L 170,106 L 168,104 L 168,103 L 166,101 L 163,101 L 161,103 L 159,101 L 158,101 L 157,100 L 155,100 L 154,99 L 154,98 L 153,97 L 149,97 L 148,98 L 147,98 L 146,97 Z" fill="none" stroke="black" stroke-width="1"/>
</svg>