<svg xmlns="http://www.w3.org/2000/svg" width="395" height="336">
  <path d="M 162,51 L 162,52 L 158,56 L 158,59 L 157,60 L 157,61 L 156,62 L 155,62 L 153,64 L 152,64 L 151,65 L 150,65 L 148,67 L 144,67 L 143,68 L 143,69 L 144,70 L 144,71 L 145,71 L 146,72 L 146,74 L 145,75 L 145,77 L 146,77 L 148,79 L 148,81 L 152,85 L 152,86 L 153,87 L 151,89 L 150,89 L 150,90 L 153,93 L 153,95 L 152,96 L 153,96 L 155,98 L 155,99 L 157,99 L 158,100 L 159,100 L 161,102 L 163,100 L 166,100 L 169,103 L 169,104 L 171,106 L 173,106 L 175,104 L 175,100 L 177,98 L 180,98 L 182,96 L 182,95 L 183,94 L 184,94 L 184,93 L 185,92 L 186,92 L 186,91 L 189,88 L 191,88 L 192,87 L 193,88 L 193,89 L 195,89 L 196,88 L 198,88 L 199,89 L 199,83 L 198,83 L 197,82 L 197,81 L 195,79 L 196,78 L 196,75 L 192,71 L 192,69 L 193,68 L 193,67 L 195,65 L 196,65 L 197,64 L 197,57 L 195,55 L 195,54 L 194,53 L 191,53 L 189,55 L 185,55 L 184,54 L 181,54 L 180,53 L 170,53 L 169,52 L 167,52 L 166,51 Z" fill="none" stroke="black" stroke-width="1"/>
</svg>