<svg xmlns="http://www.w3.org/2000/svg" width="395" height="336">
  <path d="M 236,137 L 235,138 L 234,138 L 230,142 L 228,142 L 228,149 L 226,151 L 222,151 L 220,153 L 218,153 L 216,155 L 214,155 L 213,156 L 212,156 L 209,159 L 209,160 L 207,162 L 203,162 L 203,164 L 202,165 L 202,167 L 201,168 L 201,170 L 200,171 L 200,175 L 201,176 L 204,176 L 205,177 L 206,177 L 207,178 L 210,178 L 211,179 L 225,179 L 226,178 L 228,178 L 228,177 L 231,174 L 236,174 L 237,173 L 239,173 L 240,172 L 242,172 L 242,171 L 243,170 L 246,170 L 248,168 L 250,168 L 251,167 L 254,167 L 255,166 L 259,166 L 261,164 L 262,164 L 263,163 L 263,159 L 261,159 L 260,158 L 259,158 L 255,154 L 255,153 L 254,153 L 251,150 L 251,149 L 250,148 L 250,147 L 249,147 L 247,145 L 247,143 L 246,143 L 245,142 L 245,141 L 244,140 L 243,140 L 240,137 Z" fill="none" stroke="black" stroke-width="1"/>
</svg>