<svg xmlns="http://www.w3.org/2000/svg" width="395" height="336">
  <path d="M 196,40 L 196,42 L 195,43 L 195,46 L 194,47 L 194,49 L 193,50 L 193,52 L 194,52 L 196,54 L 196,55 L 198,57 L 198,64 L 199,65 L 200,65 L 202,67 L 204,67 L 205,68 L 207,68 L 208,69 L 209,69 L 210,70 L 215,70 L 217,68 L 218,68 L 218,66 L 217,65 L 217,63 L 216,62 L 216,61 L 215,60 L 215,58 L 213,56 L 213,55 L 212,54 L 212,53 L 211,52 L 211,50 L 210,49 L 210,48 L 208,48 L 207,49 L 205,47 L 209,43 L 211,43 L 211,42 L 210,41 L 210,40 L 209,41 L 198,41 L 197,40 Z" fill="none" stroke="black" stroke-width="1"/>
</svg>