<svg xmlns="http://www.w3.org/2000/svg" width="395" height="336">
  <path d="M 380,196 L 379,197 L 379,199 L 378,200 L 377,200 L 376,201 L 376,203 L 378,201 L 378,200 L 380,198 Z" fill="none" stroke="black" stroke-width="1"/>
  <path d="M 357,185 L 357,188 L 356,189 L 356,192 L 357,193 L 357,194 L 356,195 L 356,196 L 354,198 L 354,199 L 353,200 L 353,201 L 354,202 L 354,204 L 353,205 L 353,206 L 351,208 L 354,208 L 355,209 L 357,209 L 358,210 L 361,210 L 362,209 L 362,207 L 363,206 L 363,202 L 366,199 L 366,198 L 368,196 L 369,196 L 370,197 L 370,200 L 373,200 L 374,199 L 374,197 L 375,196 L 375,195 L 376,194 L 375,193 L 375,192 L 373,190 L 373,188 L 371,186 L 371,185 L 370,185 L 368,187 L 365,187 L 364,186 L 362,186 L 361,185 L 360,186 L 359,186 L 358,185 Z" fill="none" stroke="black" stroke-width="1"/>
</svg>