<svg xmlns="http://www.w3.org/2000/svg" width="395" height="336">
  <path d="M 350,208 L 349,209 L 346,209 L 344,211 L 343,211 L 342,212 L 342,213 L 341,214 L 340,214 L 338,216 L 337,215 L 334,215 L 333,216 L 333,218 L 331,220 L 332,221 L 332,224 L 331,225 L 330,225 L 330,226 L 329,227 L 328,227 L 327,226 L 324,229 L 322,229 L 321,228 L 319,230 L 315,230 L 315,232 L 316,233 L 317,233 L 322,238 L 323,238 L 324,239 L 325,239 L 326,240 L 326,241 L 330,241 L 331,240 L 336,240 L 337,239 L 338,239 L 339,240 L 340,240 L 341,239 L 341,238 L 342,237 L 343,237 L 343,235 L 344,234 L 344,230 L 348,226 L 349,226 L 350,225 L 351,225 L 352,224 L 357,224 L 358,223 L 359,223 L 360,224 L 361,224 L 362,223 L 363,223 L 363,222 L 362,221 L 362,219 L 361,218 L 362,217 L 362,216 L 361,215 L 361,213 L 360,212 L 360,211 L 358,211 L 357,210 L 355,210 L 354,209 L 351,209 Z" fill="none" stroke="black" stroke-width="1"/>
</svg>