<svg xmlns="http://www.w3.org/2000/svg" width="395" height="336">
  <path d="M 235,258 L 234,259 L 231,259 L 230,260 L 227,260 L 226,261 L 225,261 L 224,262 L 223,262 L 222,263 L 219,263 L 218,264 L 216,264 L 215,265 L 214,265 L 213,266 L 211,266 L 210,265 L 208,265 L 207,266 L 203,266 L 201,268 L 199,268 L 198,269 L 199,270 L 199,273 L 198,274 L 198,275 L 196,277 L 195,277 L 194,276 L 194,275 L 192,277 L 192,278 L 195,281 L 195,282 L 196,282 L 197,283 L 197,285 L 198,284 L 201,284 L 204,281 L 207,281 L 212,286 L 214,286 L 215,285 L 216,285 L 219,282 L 221,282 L 222,281 L 226,281 L 227,280 L 228,280 L 229,279 L 230,279 L 232,277 L 237,277 L 237,276 L 241,272 L 242,272 L 243,271 L 243,267 L 242,266 L 242,265 L 241,266 L 240,265 L 238,265 L 235,262 L 235,261 L 236,260 L 235,259 Z" fill="none" stroke="black" stroke-width="1"/>
</svg>