<svg xmlns="http://www.w3.org/2000/svg" width="395" height="336">
  <path d="M 167,255 L 166,256 L 164,256 L 159,261 L 160,262 L 160,263 L 157,266 L 157,267 L 156,268 L 157,269 L 156,270 L 156,271 L 158,273 L 158,274 L 157,275 L 157,277 L 156,278 L 156,279 L 157,280 L 157,282 L 158,282 L 160,284 L 161,283 L 162,284 L 163,284 L 165,286 L 166,286 L 167,287 L 169,287 L 171,289 L 172,289 L 173,290 L 176,290 L 178,288 L 179,288 L 180,287 L 181,287 L 183,285 L 184,285 L 185,284 L 185,281 L 184,280 L 184,279 L 185,278 L 186,278 L 187,277 L 191,277 L 194,274 L 195,275 L 195,276 L 196,276 L 197,275 L 197,274 L 198,273 L 198,270 L 196,268 L 196,267 L 195,267 L 193,265 L 192,265 L 191,264 L 189,264 L 188,263 L 187,263 L 186,262 L 186,260 L 183,257 L 182,257 L 181,256 L 178,256 L 177,257 L 176,257 L 175,258 L 174,258 L 173,257 L 170,257 L 168,255 Z" fill="none" stroke="black" stroke-width="1"/>
</svg>