<svg xmlns="http://www.w3.org/2000/svg" width="395" height="336">
  <path d="M 187,278 L 186,279 L 185,279 L 185,280 L 186,281 L 186,284 L 184,286 L 183,286 L 181,288 L 180,288 L 179,289 L 178,289 L 176,291 L 174,291 L 174,292 L 175,293 L 175,295 L 174,296 L 175,297 L 175,298 L 174,299 L 174,300 L 175,300 L 176,301 L 178,301 L 179,302 L 183,302 L 186,299 L 188,299 L 191,296 L 191,294 L 194,291 L 194,290 L 195,289 L 195,286 L 196,285 L 196,283 L 195,283 L 194,282 L 194,281 L 191,278 Z" fill="none" stroke="black" stroke-width="1"/>
</svg>