<svg xmlns="http://www.w3.org/2000/svg" width="395" height="336">
  <path d="M 114,258 L 113,259 L 113,260 L 115,262 L 117,262 L 118,263 L 119,263 L 119,262 L 118,261 L 118,260 L 117,259 L 117,260 L 116,261 L 115,261 L 114,260 L 115,259 L 115,258 Z" fill="none" stroke="black" stroke-width="1"/>
  <path d="M 111,227 L 109,229 L 108,229 L 108,234 L 109,235 L 109,236 L 110,237 L 110,238 L 112,240 L 112,241 L 113,242 L 115,242 L 121,248 L 121,252 L 122,253 L 122,255 L 123,254 L 125,256 L 125,258 L 126,258 L 127,259 L 127,260 L 128,261 L 128,264 L 129,265 L 130,265 L 131,264 L 132,264 L 133,263 L 136,263 L 137,262 L 137,259 L 136,258 L 136,256 L 135,255 L 135,253 L 136,252 L 135,251 L 135,250 L 133,248 L 133,247 L 134,246 L 134,243 L 133,242 L 133,241 L 132,241 L 130,239 L 131,238 L 130,237 L 129,237 L 126,234 L 124,234 L 123,233 L 123,232 L 122,232 L 121,231 L 121,228 L 120,227 L 118,227 L 116,229 L 113,229 Z" fill="none" stroke="black" stroke-width="1"/>
</svg>