<svg xmlns="http://www.w3.org/2000/svg" width="395" height="336">
  <path d="M 201,98 L 202,99 L 202,100 L 203,101 L 203,108 L 201,110 L 201,111 L 202,112 L 203,112 L 204,113 L 204,114 L 207,117 L 207,118 L 208,119 L 209,119 L 210,120 L 210,123 L 211,124 L 211,125 L 212,126 L 212,127 L 213,127 L 215,129 L 217,129 L 219,131 L 219,134 L 221,136 L 222,136 L 226,140 L 226,141 L 227,142 L 228,141 L 230,141 L 234,137 L 235,137 L 236,136 L 240,136 L 240,134 L 241,133 L 241,132 L 242,131 L 242,130 L 243,129 L 243,127 L 244,126 L 244,117 L 245,116 L 245,115 L 246,114 L 243,111 L 244,110 L 243,109 L 243,108 L 241,106 L 241,103 L 236,103 L 235,102 L 233,102 L 232,101 L 230,101 L 229,100 L 227,100 L 226,99 L 223,99 L 222,98 L 216,98 L 215,99 L 207,99 L 206,98 Z" fill="none" stroke="black" stroke-width="1"/>
</svg>