<svg xmlns="http://www.w3.org/2000/svg" width="333" height="139">
  <path d="M 51,81 L 49,83 L 48,83 L 47,84 L 47,85 L 49,85 L 50,84 L 52,84 L 54,82 L 54,81 Z" fill="none" stroke="black" stroke-width="1"/>
  <path d="M 59,79 L 59,80 L 58,81 L 58,82 L 59,81 L 60,81 L 61,82 L 63,82 L 64,81 L 66,81 L 66,80 L 65,80 L 64,79 Z" fill="none" stroke="black" stroke-width="1"/>
  <path d="M 47,65 L 46,66 L 49,69 L 47,71 L 47,72 L 48,73 L 51,70 L 50,69 L 50,67 L 51,66 L 50,66 L 49,65 Z" fill="none" stroke="black" stroke-width="1"/>
</svg>