<svg xmlns="http://www.w3.org/2000/svg" width="710" height="350">
  <path d="M 94,260 L 94,263 L 95,264 L 95,266 L 96,266 L 96,263 L 95,262 L 95,261 L 96,260 Z" fill="none" stroke="black" stroke-width="1"/>
  <path d="M 93,223 L 94,224 L 94,225 L 93,226 L 93,228 L 92,229 L 93,230 L 93,231 L 91,233 L 91,236 L 90,237 L 91,238 L 91,242 L 92,243 L 92,242 L 93,241 L 94,242 L 94,243 L 95,242 L 98,242 L 99,243 L 100,242 L 101,242 L 103,244 L 102,245 L 102,246 L 101,247 L 102,248 L 103,248 L 106,251 L 105,252 L 104,252 L 103,251 L 102,251 L 101,252 L 99,252 L 98,251 L 98,250 L 98,251 L 96,253 L 96,254 L 97,255 L 97,257 L 97,255 L 98,254 L 101,254 L 104,257 L 104,258 L 106,260 L 108,260 L 109,261 L 109,262 L 110,263 L 110,264 L 109,265 L 109,267 L 108,268 L 108,280 L 107,281 L 107,283 L 108,284 L 108,288 L 109,289 L 111,289 L 112,288 L 115,288 L 116,287 L 119,287 L 120,286 L 122,286 L 123,285 L 123,283 L 124,282 L 126,282 L 126,281 L 127,280 L 127,278 L 128,277 L 128,275 L 129,274 L 129,272 L 130,271 L 131,271 L 131,270 L 132,269 L 132,260 L 133,259 L 133,258 L 134,257 L 134,252 L 136,250 L 136,248 L 135,247 L 135,246 L 134,245 L 134,242 L 133,241 L 133,240 L 130,237 L 129,237 L 127,235 L 126,235 L 122,231 L 121,231 L 120,230 L 120,228 L 118,228 L 116,226 L 115,226 L 115,229 L 116,229 L 117,230 L 116,231 L 114,231 L 113,230 L 111,230 L 110,231 L 107,231 L 106,232 L 105,231 L 105,229 L 104,228 L 104,227 L 104,228 L 103,229 L 102,229 L 101,228 L 100,228 L 99,229 L 97,229 L 96,228 L 96,227 L 94,225 L 94,223 Z" fill="none" stroke="black" stroke-width="1"/>
</svg>