<svg xmlns="http://www.w3.org/2000/svg" width="268" height="258">
  <path d="M 41,2 L 41,7 L 40,8 L 40,12 L 43,15 L 43,16 L 44,17 L 44,19 L 43,20 L 42,20 L 42,21 L 43,22 L 43,23 L 44,23 L 46,25 L 46,26 L 49,26 L 50,27 L 50,28 L 51,29 L 51,32 L 52,33 L 52,34 L 50,36 L 50,39 L 53,42 L 53,46 L 55,46 L 56,47 L 58,45 L 58,44 L 59,43 L 60,43 L 60,42 L 62,40 L 63,40 L 65,42 L 65,43 L 67,43 L 68,44 L 68,45 L 70,45 L 71,46 L 73,46 L 75,48 L 75,49 L 77,49 L 78,50 L 79,49 L 84,49 L 85,50 L 86,50 L 86,48 L 87,47 L 87,46 L 86,45 L 86,42 L 88,40 L 88,38 L 89,37 L 89,36 L 90,35 L 90,33 L 94,29 L 94,28 L 95,27 L 95,25 L 88,18 L 87,18 L 86,17 L 85,17 L 83,15 L 83,13 L 82,12 L 80,12 L 78,14 L 72,8 L 72,6 L 63,6 L 62,5 L 60,5 L 59,4 L 59,3 L 51,3 L 50,2 Z" fill="none" stroke="black" stroke-width="1"/>
</svg>