<svg xmlns="http://www.w3.org/2000/svg" width="710" height="350">
  <path d="M 204,32 L 203,33 L 203,34 L 200,37 L 198,37 L 197,38 L 197,39 L 195,41 L 195,42 L 194,43 L 193,43 L 192,44 L 192,51 L 189,54 L 188,54 L 185,57 L 184,57 L 184,58 L 183,59 L 183,60 L 182,61 L 182,67 L 179,70 L 179,71 L 177,73 L 176,73 L 174,75 L 173,75 L 173,80 L 174,81 L 174,82 L 175,83 L 175,84 L 176,85 L 176,86 L 180,90 L 181,90 L 182,91 L 183,91 L 186,94 L 187,94 L 189,96 L 190,96 L 191,97 L 192,97 L 195,100 L 195,101 L 196,102 L 196,108 L 197,109 L 197,110 L 198,111 L 198,112 L 201,115 L 201,116 L 202,117 L 202,118 L 205,118 L 206,117 L 208,117 L 209,116 L 210,116 L 211,115 L 213,115 L 213,113 L 215,111 L 215,110 L 217,108 L 218,108 L 218,107 L 220,105 L 220,103 L 221,102 L 221,101 L 222,100 L 222,97 L 224,95 L 225,95 L 226,94 L 227,94 L 227,93 L 228,92 L 228,91 L 232,87 L 232,82 L 231,82 L 230,81 L 230,80 L 229,80 L 228,79 L 227,79 L 223,75 L 222,75 L 221,74 L 220,74 L 218,72 L 215,72 L 215,73 L 214,74 L 212,74 L 209,71 L 209,70 L 208,69 L 208,63 L 207,62 L 207,61 L 205,59 L 204,59 L 203,58 L 203,55 L 204,54 L 204,53 L 205,52 L 205,51 L 204,50 L 204,44 L 207,41 L 208,41 L 212,37 L 210,35 L 208,35 L 206,33 L 206,32 Z" fill="none" stroke="black" stroke-width="1"/>
</svg>