<svg xmlns="http://www.w3.org/2000/svg" width="710" height="350">
  <path d="M 233,87 L 229,91 L 229,92 L 228,93 L 228,94 L 227,95 L 226,95 L 225,96 L 224,96 L 223,97 L 223,100 L 222,101 L 222,102 L 221,103 L 221,105 L 219,107 L 219,108 L 218,109 L 217,109 L 216,110 L 216,111 L 214,113 L 214,114 L 221,114 L 222,115 L 222,117 L 221,118 L 221,119 L 225,119 L 225,118 L 224,117 L 225,116 L 227,116 L 227,115 L 228,114 L 230,114 L 231,113 L 232,113 L 233,114 L 234,114 L 235,115 L 235,116 L 233,118 L 233,119 L 232,120 L 232,121 L 238,121 L 239,122 L 239,126 L 238,127 L 239,128 L 240,128 L 241,129 L 245,129 L 246,128 L 252,128 L 253,129 L 257,129 L 259,127 L 263,127 L 262,126 L 262,118 L 258,118 L 257,117 L 256,117 L 255,116 L 255,115 L 257,113 L 257,106 L 256,105 L 256,103 L 257,102 L 258,102 L 258,101 L 259,100 L 259,99 L 258,99 L 256,97 L 256,95 L 253,92 L 252,92 L 251,91 L 238,91 L 237,90 L 236,90 Z" fill="none" stroke="black" stroke-width="1"/>
</svg>