<svg xmlns="http://www.w3.org/2000/svg" width="710" height="350">
  <path d="M 229,20 L 229,21 L 230,22 L 229,23 L 229,24 L 228,25 L 228,30 L 227,31 L 227,32 L 226,33 L 224,33 L 223,34 L 221,34 L 220,35 L 217,35 L 216,36 L 212,36 L 213,37 L 208,42 L 207,42 L 205,44 L 205,50 L 206,51 L 206,52 L 205,53 L 205,54 L 204,55 L 204,58 L 205,58 L 208,61 L 208,62 L 209,63 L 209,69 L 210,70 L 210,71 L 212,73 L 214,73 L 214,72 L 215,71 L 218,71 L 220,73 L 221,73 L 222,74 L 223,74 L 227,78 L 228,78 L 229,79 L 230,79 L 231,80 L 231,81 L 232,81 L 232,80 L 233,79 L 233,78 L 238,73 L 238,72 L 239,71 L 239,69 L 241,67 L 241,66 L 243,64 L 243,63 L 244,62 L 245,62 L 246,61 L 247,61 L 248,60 L 249,60 L 250,59 L 252,59 L 254,57 L 256,57 L 258,55 L 258,54 L 262,50 L 273,50 L 273,44 L 266,37 L 266,36 L 265,35 L 265,33 L 263,31 L 262,31 L 261,30 L 260,30 L 258,28 L 257,28 L 256,27 L 255,27 L 254,26 L 253,26 L 250,23 L 249,23 L 248,22 L 247,22 L 245,20 Z" fill="none" stroke="black" stroke-width="1"/>
</svg>