<svg xmlns="http://www.w3.org/2000/svg" width="757" height="474">
  <path d="M 165,381 L 165,383 L 167,385 L 166,386 L 166,392 L 165,393 L 165,394 L 164,395 L 164,396 L 163,397 L 163,398 L 162,399 L 162,411 L 161,412 L 161,420 L 160,421 L 160,423 L 157,426 L 156,426 L 154,428 L 153,428 L 149,432 L 148,432 L 148,433 L 145,436 L 145,437 L 144,438 L 144,440 L 143,441 L 143,446 L 147,446 L 150,449 L 152,449 L 153,450 L 158,450 L 159,451 L 163,451 L 165,453 L 166,453 L 167,454 L 167,455 L 168,456 L 168,457 L 169,458 L 171,458 L 172,459 L 174,459 L 175,460 L 176,460 L 176,459 L 179,456 L 179,455 L 180,454 L 185,454 L 186,453 L 193,453 L 193,452 L 195,450 L 196,450 L 199,447 L 200,447 L 200,443 L 199,442 L 199,441 L 198,440 L 198,437 L 197,436 L 197,435 L 193,431 L 193,429 L 194,428 L 194,421 L 195,420 L 195,419 L 196,418 L 196,417 L 201,412 L 202,412 L 202,408 L 203,407 L 203,406 L 204,405 L 202,403 L 202,401 L 203,400 L 203,399 L 202,399 L 201,400 L 200,400 L 198,398 L 197,398 L 196,397 L 191,397 L 190,398 L 189,398 L 189,399 L 188,400 L 187,400 L 186,401 L 185,401 L 184,400 L 185,399 L 184,399 L 182,397 L 184,395 L 184,394 L 185,393 L 185,392 L 186,391 L 190,391 L 190,389 L 191,388 L 189,388 L 188,389 L 188,390 L 187,391 L 185,391 L 184,390 L 180,390 L 179,389 L 179,388 L 178,387 L 171,387 L 170,386 L 169,386 L 168,385 L 169,384 L 166,381 Z" fill="none" stroke="black" stroke-width="1"/>
</svg>