<svg xmlns="http://www.w3.org/2000/svg" width="710" height="350">
  <path d="M 536,42 L 535,43 L 524,43 L 524,44 L 523,45 L 522,45 L 521,46 L 520,46 L 520,47 L 519,48 L 519,50 L 515,54 L 513,54 L 511,56 L 510,56 L 510,60 L 505,65 L 505,66 L 503,68 L 503,69 L 502,70 L 502,71 L 501,72 L 501,73 L 499,75 L 496,75 L 500,79 L 500,80 L 506,86 L 506,88 L 507,89 L 507,90 L 508,91 L 508,92 L 510,94 L 510,97 L 513,97 L 516,94 L 518,94 L 519,93 L 520,93 L 521,92 L 524,92 L 524,91 L 525,90 L 530,90 L 530,89 L 531,88 L 531,87 L 532,86 L 532,84 L 537,79 L 538,79 L 541,76 L 544,76 L 545,75 L 546,75 L 547,74 L 548,74 L 548,73 L 547,73 L 546,72 L 542,72 L 541,71 L 535,71 L 534,70 L 533,70 L 532,69 L 531,69 L 530,68 L 532,66 L 533,66 L 534,65 L 537,65 L 538,64 L 540,64 L 541,65 L 542,65 L 543,66 L 551,66 L 553,68 L 554,67 L 554,66 L 553,65 L 553,64 L 554,63 L 554,60 L 558,56 L 558,55 L 559,54 L 560,54 L 560,53 L 558,51 L 558,50 L 555,50 L 552,47 L 552,46 L 548,46 L 547,45 L 545,45 L 544,44 L 538,44 L 537,43 L 537,42 Z" fill="none" stroke="black" stroke-width="1"/>
</svg>