<svg xmlns="http://www.w3.org/2000/svg" width="710" height="350">
  <path d="M 370,184 L 369,185 L 368,185 L 367,186 L 366,186 L 365,187 L 365,188 L 364,189 L 363,189 L 362,190 L 360,190 L 359,191 L 356,191 L 355,192 L 345,192 L 344,193 L 343,193 L 342,194 L 341,194 L 334,201 L 332,201 L 331,202 L 324,202 L 323,203 L 321,203 L 321,209 L 324,209 L 325,210 L 325,211 L 327,211 L 328,212 L 328,216 L 329,217 L 329,221 L 330,221 L 332,223 L 332,225 L 330,227 L 331,228 L 332,228 L 334,230 L 335,230 L 336,231 L 338,231 L 338,225 L 339,224 L 340,224 L 340,223 L 342,221 L 343,221 L 345,219 L 345,217 L 346,216 L 347,216 L 348,215 L 349,215 L 350,214 L 351,214 L 354,211 L 355,211 L 356,210 L 359,210 L 360,209 L 361,209 L 364,206 L 364,205 L 366,203 L 368,203 L 369,204 L 372,201 L 374,201 L 374,197 L 375,196 L 375,195 L 376,194 L 377,194 L 378,193 L 378,192 L 379,191 L 379,189 L 378,188 L 378,187 L 377,187 L 374,184 Z" fill="none" stroke="black" stroke-width="1"/>
</svg>