<svg xmlns="http://www.w3.org/2000/svg" width="757" height="474">
  <path d="M 124,360 L 124,361 L 120,365 L 120,369 L 119,370 L 119,371 L 116,374 L 115,374 L 111,378 L 110,378 L 108,380 L 107,380 L 105,382 L 103,382 L 102,383 L 101,383 L 100,384 L 99,384 L 95,388 L 95,389 L 93,391 L 93,392 L 88,397 L 88,398 L 86,400 L 86,402 L 84,404 L 84,405 L 83,406 L 83,407 L 82,408 L 82,409 L 81,410 L 81,411 L 80,412 L 80,414 L 79,415 L 79,417 L 81,419 L 81,420 L 82,421 L 82,422 L 81,423 L 81,424 L 74,431 L 74,436 L 75,437 L 75,438 L 77,440 L 77,442 L 78,443 L 78,445 L 76,447 L 76,452 L 79,452 L 80,451 L 81,451 L 82,450 L 86,450 L 88,448 L 88,447 L 89,446 L 89,444 L 90,443 L 90,442 L 91,441 L 97,441 L 99,439 L 102,439 L 103,438 L 104,438 L 105,437 L 105,436 L 117,424 L 118,424 L 123,419 L 124,419 L 125,418 L 126,418 L 129,415 L 130,415 L 132,413 L 132,404 L 133,403 L 133,401 L 134,400 L 134,398 L 135,397 L 135,395 L 136,394 L 136,392 L 144,384 L 145,384 L 146,383 L 147,383 L 149,381 L 151,381 L 151,380 L 150,379 L 150,376 L 151,375 L 152,375 L 152,374 L 151,373 L 149,373 L 147,371 L 147,365 L 144,362 L 145,361 L 142,361 L 141,362 L 139,362 L 136,365 L 135,364 L 132,364 L 129,361 L 128,361 L 127,360 Z" fill="none" stroke="black" stroke-width="1"/>
</svg>