<svg xmlns="http://www.w3.org/2000/svg" width="710" height="350">
  <path d="M 262,51 L 259,54 L 259,55 L 256,58 L 254,58 L 252,60 L 250,60 L 249,61 L 248,61 L 247,62 L 246,62 L 245,63 L 244,63 L 244,64 L 242,66 L 242,67 L 240,69 L 240,71 L 239,72 L 239,73 L 234,78 L 234,79 L 233,80 L 233,86 L 236,89 L 237,89 L 238,90 L 251,90 L 252,91 L 253,91 L 257,95 L 257,97 L 258,98 L 259,98 L 260,99 L 260,100 L 259,101 L 259,102 L 258,103 L 257,103 L 257,105 L 258,106 L 258,113 L 256,115 L 256,116 L 257,116 L 258,117 L 261,117 L 262,116 L 263,116 L 264,115 L 267,115 L 268,114 L 270,114 L 271,113 L 277,113 L 282,118 L 283,118 L 284,119 L 285,119 L 286,120 L 286,121 L 289,121 L 289,120 L 286,117 L 286,115 L 287,114 L 287,113 L 289,111 L 289,110 L 290,109 L 290,107 L 291,106 L 291,103 L 292,102 L 296,102 L 297,103 L 310,103 L 311,104 L 312,104 L 313,105 L 314,105 L 315,106 L 318,106 L 319,107 L 321,107 L 323,105 L 323,104 L 325,102 L 326,102 L 327,101 L 327,100 L 328,99 L 329,99 L 329,94 L 330,93 L 330,89 L 331,88 L 331,87 L 333,85 L 332,85 L 331,84 L 324,84 L 323,85 L 320,85 L 319,86 L 309,86 L 306,83 L 305,83 L 302,80 L 301,80 L 299,78 L 298,78 L 296,76 L 294,76 L 293,75 L 290,75 L 287,72 L 287,70 L 286,69 L 286,68 L 285,67 L 285,63 L 284,62 L 284,59 L 283,58 L 283,56 L 282,55 L 280,55 L 277,52 L 275,52 L 274,51 Z" fill="none" stroke="black" stroke-width="1"/>
</svg>