<svg xmlns="http://www.w3.org/2000/svg" width="710" height="350">
  <path d="M 339,14 L 338,15 L 336,15 L 334,17 L 331,17 L 330,18 L 328,18 L 327,19 L 325,19 L 324,18 L 319,18 L 319,19 L 318,20 L 318,22 L 317,23 L 317,24 L 314,27 L 310,27 L 309,28 L 308,28 L 307,29 L 301,29 L 300,28 L 290,28 L 289,29 L 287,29 L 286,30 L 284,30 L 283,31 L 281,31 L 279,33 L 278,33 L 277,34 L 276,34 L 275,35 L 274,35 L 273,36 L 272,36 L 270,38 L 269,38 L 269,39 L 274,44 L 274,50 L 275,51 L 277,51 L 280,54 L 282,54 L 284,56 L 284,58 L 285,59 L 285,62 L 286,63 L 286,67 L 287,68 L 287,69 L 288,70 L 288,72 L 290,74 L 292,74 L 296,70 L 296,69 L 299,66 L 300,66 L 301,65 L 302,65 L 304,63 L 305,63 L 306,62 L 308,62 L 309,61 L 310,61 L 311,60 L 312,60 L 313,59 L 318,59 L 324,53 L 325,53 L 329,49 L 330,49 L 331,48 L 333,48 L 334,47 L 338,47 L 340,45 L 340,44 L 341,43 L 341,41 L 345,37 L 347,37 L 348,36 L 350,36 L 351,35 L 352,35 L 353,34 L 354,34 L 355,33 L 356,33 L 356,32 L 358,30 L 358,29 L 360,27 L 360,26 L 361,25 L 361,23 L 359,21 L 359,20 L 358,20 L 356,18 L 350,18 L 349,17 L 346,17 L 343,14 Z" fill="none" stroke="black" stroke-width="1"/>
</svg>