<svg xmlns="http://www.w3.org/2000/svg" width="710" height="350">
  <path d="M 447,54 L 444,57 L 442,57 L 441,58 L 438,58 L 438,59 L 434,63 L 434,64 L 431,67 L 430,67 L 429,68 L 428,68 L 428,69 L 427,70 L 426,70 L 426,71 L 425,72 L 425,75 L 424,76 L 424,77 L 423,78 L 423,82 L 422,83 L 422,84 L 424,84 L 425,85 L 425,86 L 426,87 L 425,88 L 427,90 L 426,91 L 427,92 L 427,93 L 428,92 L 429,93 L 432,93 L 433,94 L 434,93 L 436,95 L 436,100 L 435,101 L 436,102 L 436,103 L 437,103 L 438,104 L 437,105 L 437,107 L 438,108 L 438,110 L 439,111 L 439,113 L 440,113 L 441,114 L 442,114 L 443,115 L 444,115 L 445,114 L 448,114 L 449,113 L 452,113 L 453,112 L 454,113 L 458,113 L 461,116 L 462,116 L 463,115 L 467,115 L 468,116 L 481,116 L 482,115 L 483,116 L 485,116 L 486,117 L 487,116 L 489,118 L 491,116 L 493,116 L 493,115 L 495,113 L 496,114 L 497,114 L 498,113 L 500,113 L 501,112 L 503,112 L 504,113 L 504,114 L 507,114 L 509,112 L 509,111 L 508,110 L 508,106 L 510,104 L 511,104 L 510,103 L 510,102 L 508,100 L 508,99 L 509,98 L 509,94 L 507,92 L 507,91 L 506,90 L 506,89 L 505,88 L 505,86 L 499,80 L 499,79 L 495,75 L 491,75 L 490,74 L 487,74 L 486,75 L 482,75 L 481,74 L 479,74 L 478,73 L 475,73 L 474,72 L 472,72 L 470,70 L 470,69 L 471,68 L 470,68 L 469,67 L 469,66 L 468,65 L 469,64 L 469,63 L 459,63 L 457,61 L 456,61 L 455,60 L 454,60 L 450,56 L 449,56 Z" fill="none" stroke="black" stroke-width="1"/>
</svg>