<svg xmlns="http://www.w3.org/2000/svg" width="191" height="202">
  <path d="M 151,155 L 150,156 L 149,156 L 148,157 L 147,157 L 146,158 L 144,158 L 143,157 L 143,156 L 142,157 L 141,157 L 139,159 L 139,160 L 137,162 L 137,166 L 136,167 L 136,168 L 137,168 L 138,169 L 138,170 L 140,172 L 141,172 L 142,171 L 143,171 L 144,172 L 151,172 L 152,171 L 153,171 L 154,170 L 154,168 L 156,166 L 156,165 L 157,164 L 157,162 L 155,162 L 154,161 L 153,161 L 152,160 L 152,158 L 153,157 L 153,156 L 152,155 Z" fill="none" stroke="black" stroke-width="1"/>
</svg>