<svg xmlns="http://www.w3.org/2000/svg" width="710" height="350">
  <path d="M 359,66 L 358,67 L 355,67 L 354,68 L 352,68 L 349,71 L 348,71 L 345,74 L 344,74 L 342,76 L 341,76 L 340,77 L 340,81 L 339,82 L 338,82 L 337,83 L 336,83 L 332,87 L 332,88 L 331,89 L 331,93 L 330,94 L 330,99 L 329,100 L 328,100 L 328,101 L 326,103 L 325,103 L 324,104 L 324,105 L 325,106 L 326,106 L 327,107 L 328,107 L 329,108 L 330,108 L 331,109 L 331,110 L 333,112 L 333,118 L 334,119 L 334,122 L 335,123 L 335,124 L 336,125 L 336,126 L 337,127 L 337,129 L 338,130 L 338,134 L 339,135 L 339,142 L 338,143 L 338,146 L 337,147 L 337,149 L 336,150 L 336,152 L 335,153 L 335,154 L 333,156 L 333,158 L 332,159 L 332,161 L 334,163 L 334,164 L 335,164 L 336,165 L 337,165 L 338,164 L 340,164 L 342,162 L 344,162 L 345,163 L 348,163 L 350,165 L 352,165 L 354,167 L 358,167 L 359,168 L 362,168 L 363,169 L 366,169 L 366,167 L 368,165 L 368,164 L 370,162 L 371,162 L 373,160 L 374,160 L 375,159 L 376,159 L 378,157 L 380,157 L 381,156 L 382,156 L 383,155 L 384,155 L 385,154 L 387,154 L 388,153 L 389,153 L 391,151 L 392,151 L 393,150 L 393,149 L 391,147 L 391,146 L 389,144 L 388,144 L 383,139 L 383,138 L 380,135 L 380,133 L 379,132 L 378,132 L 377,131 L 377,130 L 376,129 L 375,129 L 372,126 L 371,126 L 369,124 L 369,123 L 368,122 L 368,121 L 367,120 L 367,118 L 366,117 L 366,111 L 367,110 L 367,107 L 368,106 L 368,94 L 369,93 L 369,92 L 370,91 L 370,90 L 371,89 L 371,88 L 373,86 L 373,84 L 374,83 L 374,75 L 376,73 L 376,68 L 363,68 L 361,66 Z" fill="none" stroke="black" stroke-width="1"/>
</svg>