<svg xmlns="http://www.w3.org/2000/svg" width="710" height="350">
  <path d="M 183,192 L 182,193 L 176,193 L 177,194 L 177,195 L 176,196 L 174,196 L 173,197 L 173,200 L 171,202 L 169,202 L 168,203 L 167,203 L 166,202 L 165,202 L 164,203 L 162,203 L 162,204 L 161,205 L 161,206 L 160,207 L 159,207 L 158,208 L 158,212 L 159,213 L 159,215 L 160,216 L 160,217 L 167,217 L 168,218 L 169,218 L 170,219 L 172,219 L 174,221 L 175,221 L 176,222 L 179,222 L 180,223 L 185,223 L 186,224 L 188,224 L 189,225 L 193,225 L 194,226 L 197,226 L 198,227 L 199,227 L 199,224 L 200,223 L 200,219 L 201,218 L 201,216 L 200,215 L 199,215 L 197,213 L 196,213 L 192,209 L 192,202 L 193,201 L 193,199 L 192,198 L 192,197 L 191,196 L 188,196 L 184,192 Z" fill="none" stroke="black" stroke-width="1"/>
</svg>