<svg xmlns="http://www.w3.org/2000/svg" width="710" height="350">
  <path d="M 301,191 L 300,192 L 299,192 L 298,193 L 298,195 L 297,196 L 297,198 L 296,199 L 296,200 L 292,204 L 292,205 L 287,210 L 287,211 L 282,216 L 282,217 L 280,219 L 279,219 L 275,223 L 274,223 L 273,224 L 272,224 L 271,225 L 268,225 L 267,226 L 266,226 L 265,227 L 264,227 L 268,227 L 269,228 L 271,228 L 272,229 L 277,229 L 278,230 L 280,230 L 282,228 L 286,228 L 291,233 L 292,233 L 296,237 L 297,237 L 298,238 L 298,239 L 297,240 L 297,241 L 300,244 L 301,244 L 302,245 L 303,245 L 304,246 L 306,246 L 308,248 L 309,247 L 312,247 L 313,248 L 315,248 L 317,250 L 318,250 L 319,251 L 320,251 L 320,250 L 322,248 L 323,248 L 325,246 L 326,246 L 324,244 L 324,240 L 325,239 L 325,230 L 326,229 L 326,227 L 327,226 L 327,224 L 328,223 L 328,217 L 327,216 L 327,212 L 325,212 L 324,211 L 324,210 L 321,210 L 320,209 L 320,204 L 319,204 L 318,203 L 318,201 L 317,201 L 316,200 L 316,199 L 315,199 L 314,198 L 314,195 L 313,194 L 313,192 L 302,192 Z" fill="none" stroke="black" stroke-width="1"/>
</svg>