<svg xmlns="http://www.w3.org/2000/svg" width="710" height="350">
  <path d="M 387,190 L 386,191 L 380,191 L 379,192 L 379,193 L 377,195 L 376,195 L 376,196 L 375,197 L 375,199 L 376,199 L 377,200 L 378,200 L 379,201 L 380,201 L 381,202 L 381,203 L 380,204 L 380,210 L 379,211 L 379,212 L 380,213 L 380,214 L 381,215 L 381,217 L 379,219 L 378,219 L 377,220 L 376,220 L 375,221 L 375,225 L 376,224 L 379,224 L 380,225 L 380,226 L 382,226 L 384,228 L 384,229 L 399,229 L 401,227 L 406,227 L 407,228 L 407,229 L 411,229 L 412,228 L 413,228 L 414,227 L 414,226 L 416,224 L 418,224 L 419,223 L 423,223 L 426,220 L 424,218 L 424,217 L 423,216 L 421,216 L 419,214 L 419,213 L 421,211 L 422,211 L 423,210 L 422,209 L 422,206 L 421,206 L 420,205 L 419,205 L 418,204 L 417,204 L 416,203 L 415,203 L 414,202 L 414,201 L 411,201 L 410,200 L 409,200 L 408,199 L 406,199 L 405,198 L 404,198 L 397,191 L 392,191 L 391,190 Z" fill="none" stroke="black" stroke-width="1"/>
</svg>