<svg xmlns="http://www.w3.org/2000/svg" width="710" height="350">
  <path d="M 100,18 L 99,19 L 97,19 L 96,20 L 91,20 L 90,19 L 89,19 L 88,20 L 88,21 L 87,22 L 79,22 L 79,23 L 78,24 L 76,24 L 75,25 L 71,25 L 70,26 L 70,29 L 68,31 L 68,35 L 69,35 L 71,37 L 72,37 L 73,38 L 76,35 L 77,35 L 78,36 L 79,36 L 81,38 L 82,38 L 85,41 L 86,41 L 87,42 L 88,42 L 89,43 L 90,43 L 93,46 L 93,49 L 95,51 L 110,51 L 111,52 L 115,52 L 116,53 L 117,53 L 119,55 L 120,55 L 121,56 L 122,56 L 123,57 L 124,57 L 125,58 L 126,58 L 127,59 L 130,59 L 131,58 L 130,57 L 130,56 L 132,54 L 132,53 L 133,52 L 133,51 L 134,50 L 135,50 L 135,47 L 136,46 L 136,45 L 138,43 L 140,43 L 140,42 L 141,41 L 142,41 L 143,40 L 142,39 L 143,38 L 141,36 L 143,34 L 143,33 L 145,31 L 147,31 L 149,29 L 150,29 L 151,28 L 148,25 L 143,25 L 142,24 L 142,22 L 137,22 L 136,21 L 135,21 L 134,22 L 124,22 L 123,21 L 120,21 L 119,20 L 112,20 L 111,19 L 111,18 L 109,18 L 108,19 L 102,19 L 101,18 Z" fill="none" stroke="black" stroke-width="1"/>
</svg>