<svg xmlns="http://www.w3.org/2000/svg" width="710" height="350">
  <path d="M 446,118 L 445,119 L 443,119 L 442,120 L 440,120 L 438,122 L 437,121 L 437,123 L 435,125 L 436,126 L 435,127 L 433,127 L 431,129 L 430,129 L 429,128 L 428,128 L 427,129 L 427,131 L 428,132 L 427,133 L 426,133 L 426,134 L 427,135 L 427,136 L 426,137 L 425,137 L 424,138 L 424,141 L 426,143 L 426,146 L 425,147 L 424,147 L 422,145 L 422,144 L 420,142 L 419,142 L 417,140 L 417,139 L 415,137 L 414,137 L 413,136 L 413,135 L 414,134 L 415,135 L 415,134 L 413,134 L 413,135 L 411,137 L 411,138 L 412,138 L 414,140 L 414,141 L 415,142 L 415,149 L 417,151 L 417,152 L 418,153 L 418,154 L 420,156 L 421,156 L 422,157 L 422,158 L 427,163 L 429,163 L 430,164 L 434,164 L 435,165 L 436,165 L 437,166 L 439,166 L 439,165 L 440,164 L 440,161 L 442,159 L 444,159 L 445,158 L 447,158 L 448,157 L 449,157 L 454,152 L 457,152 L 458,151 L 459,151 L 460,150 L 464,150 L 465,151 L 465,152 L 466,152 L 466,150 L 467,149 L 467,146 L 469,144 L 469,143 L 470,142 L 470,141 L 472,139 L 472,138 L 475,135 L 488,135 L 488,134 L 489,133 L 489,132 L 491,130 L 491,129 L 492,128 L 493,128 L 495,126 L 493,126 L 490,123 L 490,122 L 489,123 L 488,122 L 487,122 L 486,123 L 484,121 L 479,121 L 478,120 L 477,120 L 476,119 L 475,119 L 474,120 L 473,119 L 472,120 L 467,120 L 466,119 L 461,119 L 460,118 L 450,118 L 449,119 L 447,119 Z" fill="none" stroke="black" stroke-width="1"/>
</svg>