<svg xmlns="http://www.w3.org/2000/svg" width="757" height="474">
  <path d="M 116,358 L 116,359 L 117,360 L 116,361 L 115,361 L 114,360 L 113,360 L 112,361 L 112,362 L 110,364 L 105,364 L 105,365 L 106,366 L 105,367 L 105,368 L 104,369 L 101,369 L 100,368 L 99,368 L 96,371 L 90,371 L 89,372 L 88,372 L 87,373 L 82,373 L 81,374 L 75,374 L 74,375 L 73,375 L 72,376 L 70,376 L 69,375 L 69,374 L 68,374 L 68,375 L 67,376 L 63,376 L 62,375 L 59,378 L 58,378 L 58,380 L 59,381 L 58,382 L 55,382 L 54,381 L 52,381 L 51,382 L 40,382 L 40,386 L 39,387 L 39,393 L 40,393 L 41,394 L 45,394 L 46,395 L 47,395 L 48,396 L 49,396 L 51,398 L 51,399 L 60,399 L 61,400 L 62,400 L 65,403 L 67,403 L 68,404 L 69,404 L 71,406 L 71,407 L 72,408 L 72,409 L 73,410 L 73,411 L 76,414 L 79,414 L 79,412 L 80,411 L 80,410 L 81,409 L 81,408 L 82,407 L 82,406 L 83,405 L 83,404 L 85,402 L 85,400 L 87,398 L 87,397 L 92,392 L 92,391 L 94,389 L 94,388 L 99,383 L 100,383 L 101,382 L 102,382 L 103,381 L 105,381 L 107,379 L 108,379 L 110,377 L 111,377 L 115,373 L 116,373 L 118,371 L 118,370 L 119,369 L 119,365 L 123,361 L 123,360 L 122,359 L 120,361 L 119,360 L 119,359 L 117,359 Z" fill="none" stroke="black" stroke-width="1"/>
</svg>