<svg xmlns="http://www.w3.org/2000/svg" width="710" height="350">
  <path d="M 176,150 L 175,151 L 174,151 L 173,152 L 172,152 L 171,153 L 170,153 L 168,155 L 164,155 L 163,156 L 157,156 L 157,158 L 158,159 L 158,160 L 159,161 L 159,163 L 160,164 L 160,173 L 159,174 L 159,176 L 158,177 L 158,179 L 157,180 L 157,181 L 156,182 L 155,182 L 155,183 L 154,184 L 154,186 L 153,187 L 152,187 L 146,193 L 145,193 L 144,194 L 144,195 L 147,195 L 148,196 L 151,196 L 152,197 L 154,197 L 156,199 L 158,199 L 159,200 L 160,200 L 161,201 L 161,202 L 164,202 L 165,201 L 166,201 L 167,202 L 168,202 L 169,201 L 171,201 L 172,200 L 172,197 L 174,195 L 176,195 L 176,194 L 175,193 L 176,192 L 182,192 L 183,191 L 184,191 L 188,195 L 191,195 L 193,197 L 193,198 L 196,195 L 196,193 L 197,192 L 195,190 L 195,189 L 194,188 L 194,184 L 193,184 L 192,183 L 191,183 L 188,180 L 188,177 L 189,176 L 189,174 L 188,173 L 188,170 L 189,169 L 189,168 L 184,168 L 183,169 L 180,169 L 179,168 L 179,166 L 178,165 L 179,164 L 179,160 L 178,159 L 177,159 L 176,158 L 176,154 L 177,153 L 177,152 L 176,151 Z" fill="none" stroke="black" stroke-width="1"/>
</svg>