<svg xmlns="http://www.w3.org/2000/svg" width="191" height="202">
  <path d="M 171,155 L 168,158 L 166,158 L 165,159 L 165,160 L 166,161 L 166,162 L 165,163 L 165,164 L 164,165 L 165,166 L 166,166 L 167,167 L 168,167 L 170,169 L 172,169 L 173,170 L 175,170 L 176,169 L 177,169 L 177,167 L 176,167 L 175,166 L 177,164 L 178,164 L 179,165 L 181,165 L 182,164 L 182,162 L 181,161 L 182,160 L 183,160 L 182,160 L 181,159 L 178,159 L 177,158 L 175,158 L 174,157 L 173,157 Z" fill="none" stroke="black" stroke-width="1"/>
</svg>