<svg xmlns="http://www.w3.org/2000/svg" width="182" height="244">
  <path d="M 73,9 L 72,10 L 72,11 L 68,15 L 69,16 L 69,17 L 70,18 L 71,18 L 72,19 L 72,20 L 73,21 L 73,22 L 74,22 L 75,23 L 75,24 L 76,25 L 76,27 L 77,27 L 78,26 L 80,26 L 81,27 L 81,29 L 79,31 L 80,32 L 80,33 L 79,34 L 80,35 L 80,36 L 82,38 L 82,39 L 84,41 L 87,41 L 88,42 L 89,42 L 90,43 L 91,43 L 92,44 L 92,42 L 94,40 L 95,40 L 96,39 L 97,39 L 98,38 L 99,39 L 100,39 L 103,42 L 104,42 L 105,43 L 106,43 L 106,42 L 107,41 L 107,40 L 106,39 L 106,38 L 105,38 L 104,37 L 104,36 L 103,35 L 103,34 L 100,31 L 100,30 L 99,30 L 98,29 L 98,26 L 97,25 L 97,24 L 94,24 L 93,25 L 92,25 L 91,24 L 91,23 L 90,22 L 89,22 L 87,20 L 87,19 L 86,18 L 85,18 L 84,17 L 84,16 L 82,14 L 81,15 L 78,12 L 78,11 L 77,10 L 75,10 L 74,9 Z" fill="none" stroke="black" stroke-width="1"/>
</svg>