<svg xmlns="http://www.w3.org/2000/svg" width="182" height="244">
  <path d="M 129,94 L 127,96 L 127,97 L 130,100 L 131,100 L 134,103 L 134,104 L 135,105 L 136,105 L 137,106 L 137,112 L 138,113 L 138,114 L 139,114 L 140,113 L 141,113 L 143,115 L 143,116 L 144,116 L 147,119 L 148,118 L 150,118 L 151,117 L 155,117 L 155,115 L 153,113 L 152,113 L 147,108 L 146,108 L 145,107 L 145,106 L 144,105 L 144,104 L 143,103 L 142,103 L 137,98 L 137,97 L 135,95 L 135,94 L 134,94 L 133,95 L 131,95 L 130,94 Z" fill="none" stroke="black" stroke-width="1"/>
</svg>