<svg xmlns="http://www.w3.org/2000/svg" width="182" height="244">
  <path d="M 123,204 L 122,205 L 118,205 L 117,206 L 113,206 L 113,209 L 112,210 L 111,210 L 111,213 L 116,218 L 119,218 L 120,219 L 120,220 L 121,221 L 121,222 L 122,222 L 123,223 L 123,225 L 124,226 L 127,226 L 128,227 L 129,227 L 129,226 L 130,225 L 131,226 L 132,226 L 134,228 L 136,226 L 133,223 L 132,223 L 130,221 L 130,219 L 131,218 L 134,221 L 135,221 L 137,223 L 137,222 L 136,221 L 137,220 L 138,220 L 139,219 L 139,218 L 138,217 L 135,217 L 134,216 L 135,215 L 135,214 L 133,212 L 133,211 L 130,208 L 129,208 L 127,206 L 126,206 L 124,204 Z" fill="none" stroke="black" stroke-width="1"/>
</svg>