<svg xmlns="http://www.w3.org/2000/svg" width="182" height="244">
  <path d="M 105,212 L 105,215 L 106,216 L 106,217 L 107,216 L 108,216 L 110,218 L 111,218 L 114,221 L 113,222 L 112,222 L 110,224 L 110,234 L 109,235 L 109,240 L 110,239 L 111,240 L 111,241 L 109,243 L 108,243 L 113,243 L 117,239 L 117,238 L 118,237 L 118,236 L 120,234 L 121,234 L 122,233 L 123,233 L 124,232 L 125,232 L 126,231 L 130,231 L 130,228 L 128,228 L 127,227 L 124,227 L 122,225 L 122,223 L 121,223 L 120,222 L 120,221 L 119,220 L 119,219 L 116,219 L 110,213 L 110,212 Z" fill="none" stroke="black" stroke-width="1"/>
</svg>