<svg xmlns="http://www.w3.org/2000/svg" width="182" height="244">
  <path d="M 132,167 L 131,168 L 130,168 L 128,170 L 128,171 L 129,172 L 129,173 L 130,174 L 130,177 L 129,178 L 129,180 L 130,181 L 130,182 L 129,183 L 129,184 L 128,185 L 129,186 L 129,187 L 132,187 L 133,188 L 138,188 L 140,186 L 143,186 L 143,185 L 145,183 L 146,183 L 147,182 L 151,182 L 151,181 L 152,180 L 152,176 L 151,175 L 151,174 L 150,173 L 150,170 L 148,168 L 148,167 L 145,167 L 144,168 L 142,168 L 140,170 L 138,170 L 136,168 L 134,168 L 133,167 Z" fill="none" stroke="black" stroke-width="1"/>
</svg>