<svg xmlns="http://www.w3.org/2000/svg" width="182" height="244">
  <path d="M 83,150 L 82,151 L 81,151 L 79,153 L 74,153 L 74,154 L 72,156 L 72,158 L 71,159 L 71,168 L 72,169 L 72,170 L 73,171 L 73,172 L 74,173 L 74,177 L 75,177 L 77,179 L 77,180 L 81,180 L 82,179 L 83,179 L 84,178 L 87,178 L 88,179 L 89,179 L 90,180 L 91,180 L 92,179 L 93,179 L 93,178 L 91,176 L 91,174 L 92,173 L 93,173 L 93,172 L 92,171 L 92,170 L 91,169 L 91,166 L 90,165 L 90,164 L 89,164 L 88,163 L 88,161 L 89,160 L 89,158 L 90,157 L 89,156 L 89,155 L 88,154 L 87,154 L 86,153 L 86,152 L 85,151 L 85,150 Z" fill="none" stroke="black" stroke-width="1"/>
</svg>