<svg xmlns="http://www.w3.org/2000/svg" width="182" height="244">
  <path d="M 120,182 L 119,183 L 117,183 L 116,184 L 115,184 L 114,185 L 113,185 L 113,187 L 112,188 L 112,191 L 111,192 L 110,192 L 109,193 L 110,194 L 110,196 L 111,197 L 111,200 L 112,200 L 113,201 L 113,203 L 114,204 L 114,205 L 117,205 L 118,204 L 122,204 L 123,203 L 124,203 L 126,205 L 127,205 L 129,207 L 130,207 L 130,203 L 129,203 L 127,201 L 126,201 L 125,200 L 125,194 L 126,193 L 127,193 L 127,192 L 128,191 L 129,191 L 130,192 L 132,192 L 133,193 L 134,193 L 134,189 L 133,189 L 132,188 L 129,188 L 128,187 L 128,186 L 127,185 L 125,185 L 123,183 L 123,182 Z" fill="none" stroke="black" stroke-width="1"/>
</svg>