<svg xmlns="http://www.w3.org/2000/svg" width="191" height="202">
  <path d="M 133,157 L 133,158 L 132,159 L 129,159 L 128,160 L 127,160 L 126,159 L 124,159 L 124,161 L 123,162 L 120,162 L 120,164 L 119,165 L 119,168 L 120,168 L 122,166 L 123,166 L 124,167 L 124,168 L 121,171 L 121,172 L 122,173 L 123,173 L 124,174 L 126,172 L 127,172 L 128,171 L 128,170 L 131,167 L 135,167 L 136,166 L 136,162 L 138,160 L 137,160 L 136,159 L 136,158 L 135,157 Z" fill="none" stroke="black" stroke-width="1"/>
</svg>