<svg xmlns="http://www.w3.org/2000/svg" width="182" height="244">
  <path d="M 60,14 L 60,17 L 59,18 L 59,19 L 60,20 L 60,22 L 62,24 L 62,31 L 61,32 L 63,34 L 63,35 L 61,37 L 59,35 L 56,35 L 55,36 L 54,36 L 53,35 L 53,31 L 51,31 L 49,33 L 48,33 L 47,34 L 45,34 L 45,37 L 44,38 L 43,38 L 43,40 L 44,40 L 45,41 L 44,42 L 40,42 L 39,43 L 38,43 L 37,44 L 37,48 L 36,49 L 36,50 L 38,48 L 39,48 L 40,49 L 40,50 L 42,52 L 43,52 L 44,53 L 43,54 L 44,55 L 44,56 L 45,57 L 47,55 L 48,55 L 49,54 L 50,54 L 51,55 L 53,55 L 54,56 L 55,56 L 59,52 L 59,51 L 60,50 L 60,49 L 63,46 L 64,46 L 67,43 L 67,42 L 70,39 L 70,37 L 71,36 L 72,37 L 74,37 L 74,36 L 75,35 L 77,35 L 79,33 L 79,32 L 78,31 L 80,29 L 80,27 L 78,27 L 77,28 L 76,28 L 75,27 L 75,25 L 74,24 L 74,23 L 73,23 L 72,22 L 72,21 L 71,20 L 71,19 L 70,19 L 68,17 L 68,16 L 67,15 L 64,15 L 63,14 Z" fill="none" stroke="black" stroke-width="1"/>
</svg>