<svg xmlns="http://www.w3.org/2000/svg" width="182" height="244">
  <path d="M 87,119 L 86,120 L 84,120 L 85,121 L 85,122 L 88,125 L 88,128 L 87,129 L 87,130 L 85,132 L 84,132 L 84,139 L 82,141 L 82,142 L 81,143 L 82,144 L 82,146 L 83,147 L 83,149 L 85,149 L 86,148 L 89,148 L 90,147 L 91,147 L 92,148 L 93,148 L 94,149 L 97,149 L 98,148 L 106,148 L 106,147 L 105,146 L 105,140 L 102,137 L 101,137 L 100,136 L 100,132 L 98,130 L 98,127 L 97,126 L 97,125 L 95,123 L 95,122 L 94,121 L 94,120 L 92,120 L 91,119 Z" fill="none" stroke="black" stroke-width="1"/>
</svg>