<svg xmlns="http://www.w3.org/2000/svg" width="182" height="244">
  <path d="M 85,82 L 85,84 L 82,87 L 82,88 L 81,89 L 79,89 L 78,90 L 80,92 L 81,92 L 82,93 L 82,95 L 81,96 L 81,98 L 83,100 L 83,101 L 80,104 L 79,104 L 79,108 L 80,109 L 80,110 L 81,110 L 82,111 L 85,111 L 86,112 L 87,111 L 88,111 L 89,110 L 92,110 L 93,111 L 100,111 L 101,112 L 104,112 L 105,113 L 107,113 L 107,105 L 108,104 L 107,103 L 107,102 L 108,101 L 108,98 L 106,96 L 105,96 L 100,91 L 100,90 L 99,89 L 99,88 L 98,88 L 97,87 L 97,85 L 96,84 L 93,84 L 92,83 L 91,83 L 90,82 Z" fill="none" stroke="black" stroke-width="1"/>
</svg>