<svg xmlns="http://www.w3.org/2000/svg" width="182" height="244">
  <path d="M 66,86 L 64,88 L 62,88 L 61,89 L 61,90 L 60,91 L 59,91 L 59,92 L 57,94 L 56,94 L 52,98 L 51,97 L 50,98 L 51,99 L 52,99 L 55,102 L 55,103 L 57,105 L 56,106 L 58,108 L 59,108 L 60,109 L 64,109 L 65,108 L 66,108 L 68,106 L 73,106 L 74,105 L 77,105 L 79,103 L 80,103 L 82,101 L 82,100 L 80,98 L 80,96 L 81,95 L 81,93 L 80,93 L 78,91 L 77,91 L 76,92 L 73,89 L 72,90 L 70,88 L 69,88 L 68,87 L 68,86 Z" fill="none" stroke="black" stroke-width="1"/>
</svg>