<svg xmlns="http://www.w3.org/2000/svg" width="182" height="244">
  <path d="M 78,105 L 77,106 L 74,106 L 73,107 L 68,107 L 66,109 L 65,109 L 64,110 L 60,110 L 59,109 L 58,109 L 56,107 L 55,108 L 55,109 L 54,110 L 53,110 L 53,111 L 52,112 L 52,117 L 51,118 L 54,121 L 55,121 L 57,123 L 59,123 L 60,124 L 61,123 L 62,123 L 63,122 L 64,122 L 65,123 L 66,123 L 67,124 L 68,123 L 72,123 L 73,122 L 74,122 L 76,120 L 76,118 L 77,117 L 81,117 L 83,119 L 86,119 L 85,118 L 85,117 L 84,116 L 84,113 L 85,112 L 82,112 L 81,111 L 80,111 L 79,110 L 79,109 L 78,108 Z" fill="none" stroke="black" stroke-width="1"/>
</svg>