<svg xmlns="http://www.w3.org/2000/svg" width="561" height="491">
  <path d="M 419,34 L 419,37 L 418,38 L 418,39 L 417,40 L 418,41 L 418,43 L 419,44 L 419,45 L 422,48 L 422,50 L 423,51 L 423,54 L 425,56 L 425,60 L 426,61 L 426,62 L 422,66 L 422,67 L 421,68 L 421,69 L 420,70 L 420,71 L 419,72 L 419,73 L 418,74 L 423,74 L 423,73 L 422,72 L 423,71 L 423,70 L 424,69 L 424,68 L 425,67 L 425,65 L 426,64 L 426,63 L 428,61 L 428,58 L 431,55 L 431,52 L 430,51 L 430,44 L 431,43 L 431,42 L 432,41 L 432,39 L 430,37 L 428,37 L 427,36 L 425,38 L 424,38 L 423,37 L 422,37 L 420,35 L 420,34 Z" fill="none" stroke="black" stroke-width="1"/>
</svg>