<svg xmlns="http://www.w3.org/2000/svg" width="182" height="244">
  <path d="M 41,90 L 39,92 L 38,92 L 37,93 L 35,93 L 34,94 L 34,95 L 32,97 L 32,104 L 30,106 L 30,109 L 31,109 L 32,110 L 32,111 L 36,115 L 39,112 L 40,112 L 41,113 L 42,112 L 44,112 L 45,111 L 46,111 L 47,112 L 51,112 L 52,111 L 52,110 L 53,109 L 54,109 L 54,108 L 55,107 L 55,106 L 56,105 L 54,103 L 54,102 L 52,100 L 51,100 L 49,98 L 50,97 L 48,95 L 48,94 L 49,93 L 49,91 L 47,91 L 46,90 Z" fill="none" stroke="black" stroke-width="1"/>
</svg>