<svg xmlns="http://www.w3.org/2000/svg" width="182" height="244">
  <path d="M 21,107 L 18,110 L 17,110 L 17,112 L 16,113 L 17,114 L 17,119 L 16,120 L 13,120 L 13,121 L 12,122 L 12,129 L 13,129 L 16,132 L 16,134 L 17,133 L 19,133 L 20,132 L 20,131 L 21,130 L 23,130 L 24,129 L 26,129 L 27,130 L 29,128 L 30,128 L 30,127 L 31,126 L 34,126 L 35,125 L 36,125 L 36,124 L 38,122 L 38,118 L 31,111 L 31,110 L 30,110 L 29,109 L 29,107 L 28,107 L 28,108 L 26,110 L 25,110 L 24,109 L 23,109 Z" fill="none" stroke="black" stroke-width="1"/>
</svg>