<svg xmlns="http://www.w3.org/2000/svg" width="561" height="491">
  <path d="M 403,90 L 402,91 L 402,92 L 402,91 L 403,90 L 404,90 Z" fill="none" stroke="black" stroke-width="1"/>
  <path d="M 417,74 L 416,75 L 415,75 L 415,78 L 414,79 L 414,81 L 413,82 L 413,84 L 409,88 L 408,88 L 408,90 L 409,91 L 409,98 L 410,99 L 410,102 L 409,103 L 409,108 L 410,108 L 412,110 L 412,114 L 415,117 L 418,117 L 418,116 L 420,114 L 421,114 L 421,113 L 422,112 L 422,111 L 423,110 L 423,109 L 424,108 L 425,108 L 426,107 L 426,103 L 425,102 L 423,104 L 421,104 L 420,103 L 419,103 L 418,102 L 419,101 L 419,99 L 417,97 L 417,88 L 418,87 L 417,86 L 417,85 L 418,84 L 418,82 L 420,80 L 420,79 L 422,77 L 422,76 L 423,75 L 418,75 Z" fill="none" stroke="black" stroke-width="1"/>
</svg>