<svg xmlns="http://www.w3.org/2000/svg" width="191" height="202">
  <path d="M 121,138 L 119,140 L 116,140 L 116,141 L 115,142 L 114,142 L 116,144 L 116,148 L 115,149 L 114,149 L 114,151 L 115,152 L 115,155 L 114,156 L 114,158 L 115,159 L 115,160 L 118,160 L 119,161 L 123,161 L 123,159 L 124,158 L 126,158 L 127,159 L 128,159 L 129,158 L 132,158 L 132,157 L 133,156 L 133,153 L 132,152 L 131,152 L 130,151 L 128,151 L 127,150 L 127,145 L 126,144 L 126,143 L 125,142 L 125,140 L 123,138 Z" fill="none" stroke="black" stroke-width="1"/>
</svg>