<svg xmlns="http://www.w3.org/2000/svg" width="561" height="491">
  <path d="M 426,149 L 427,150 L 427,151 L 428,150 L 429,150 L 429,149 Z" fill="none" stroke="black" stroke-width="1"/>
  <path d="M 426,144 L 426,145 L 425,146 L 426,146 Z" fill="none" stroke="black" stroke-width="1"/>
  <path d="M 408,122 L 409,123 L 409,124 L 409,122 Z" fill="none" stroke="black" stroke-width="1"/>
  <path d="M 408,96 L 408,97 L 407,98 L 407,99 L 406,100 L 406,102 L 405,103 L 405,107 L 404,108 L 404,112 L 403,113 L 403,116 L 404,117 L 404,118 L 405,119 L 404,120 L 404,126 L 405,126 L 406,125 L 405,124 L 405,122 L 404,121 L 404,120 L 405,119 L 406,120 L 406,118 L 407,117 L 408,117 L 409,116 L 412,119 L 412,122 L 414,122 L 416,124 L 416,127 L 418,127 L 420,129 L 420,130 L 421,131 L 421,133 L 422,134 L 423,134 L 427,138 L 427,141 L 428,141 L 430,143 L 430,144 L 431,145 L 431,146 L 432,146 L 433,147 L 433,148 L 433,141 L 430,138 L 430,136 L 428,134 L 427,134 L 426,133 L 426,129 L 425,128 L 425,127 L 424,126 L 424,125 L 421,122 L 421,121 L 420,120 L 420,119 L 419,118 L 419,117 L 418,118 L 415,118 L 411,114 L 411,110 L 410,109 L 409,109 L 408,108 L 408,103 L 409,102 L 409,99 L 408,98 Z" fill="none" stroke="black" stroke-width="1"/>
</svg>