<svg xmlns="http://www.w3.org/2000/svg" width="561" height="491">
  <path d="M 445,190 L 444,191 L 445,192 L 446,192 L 447,193 L 447,194 L 448,195 L 448,196 L 451,199 L 451,201 L 452,202 L 452,204 L 451,205 L 451,206 L 452,206 L 455,209 L 456,209 L 457,210 L 458,210 L 461,213 L 463,211 L 463,210 L 462,209 L 464,207 L 465,207 L 468,204 L 469,204 L 468,203 L 468,202 L 465,202 L 464,201 L 464,200 L 461,197 L 461,196 L 460,195 L 459,195 L 458,194 L 458,193 L 457,193 L 456,192 L 455,193 L 454,193 L 453,192 L 452,192 L 451,193 L 449,193 L 448,192 L 447,192 Z" fill="none" stroke="black" stroke-width="1"/>
</svg>