<svg xmlns="http://www.w3.org/2000/svg" width="561" height="491">
  <path d="M 470,159 L 470,160 L 469,161 L 469,164 L 470,165 L 471,165 L 472,166 L 472,167 L 473,168 L 473,169 L 474,170 L 474,172 L 475,173 L 476,173 L 477,174 L 477,175 L 478,176 L 478,183 L 476,185 L 478,187 L 477,188 L 477,191 L 478,190 L 480,190 L 482,188 L 484,188 L 483,187 L 483,185 L 484,184 L 485,184 L 485,181 L 484,180 L 484,174 L 483,173 L 483,172 L 481,170 L 481,168 L 480,167 L 480,166 L 477,163 L 476,163 L 475,162 L 474,162 L 471,159 Z" fill="none" stroke="black" stroke-width="1"/>
</svg>