<svg xmlns="http://www.w3.org/2000/svg" width="153" height="229">
  <path d="M 100,0 L 99,1 L 98,1 L 97,2 L 96,2 L 95,3 L 94,3 L 93,4 L 93,5 L 89,9 L 89,12 L 90,13 L 90,14 L 91,14 L 93,16 L 93,18 L 95,20 L 95,26 L 96,27 L 96,28 L 95,29 L 95,30 L 96,31 L 96,32 L 95,33 L 95,34 L 94,35 L 94,36 L 97,36 L 97,35 L 100,32 L 101,32 L 102,31 L 107,31 L 110,28 L 110,27 L 111,26 L 113,26 L 114,25 L 115,25 L 115,23 L 114,22 L 114,20 L 113,19 L 113,18 L 111,16 L 111,15 L 109,15 L 105,11 L 105,9 L 103,7 L 103,5 L 104,4 L 104,3 L 105,2 L 104,2 L 103,1 L 103,0 Z" fill="none" stroke="black" stroke-width="1"/>
</svg>