<svg xmlns="http://www.w3.org/2000/svg" width="153" height="229">
  <path d="M 114,26 L 113,27 L 111,27 L 111,28 L 107,32 L 102,32 L 101,33 L 100,33 L 98,35 L 98,36 L 97,37 L 94,37 L 91,34 L 91,33 L 90,32 L 90,31 L 89,31 L 89,32 L 84,37 L 82,37 L 82,38 L 81,39 L 79,39 L 78,40 L 76,40 L 73,43 L 71,43 L 71,44 L 72,45 L 69,48 L 69,50 L 70,51 L 70,53 L 71,52 L 75,52 L 76,53 L 81,53 L 82,52 L 84,52 L 86,54 L 87,54 L 88,55 L 89,55 L 90,56 L 91,56 L 91,55 L 93,53 L 97,53 L 98,52 L 99,52 L 100,51 L 101,51 L 102,52 L 102,51 L 103,50 L 103,49 L 104,48 L 104,47 L 106,45 L 108,45 L 109,44 L 109,43 L 111,41 L 111,40 L 112,39 L 112,38 L 113,37 L 113,35 L 114,34 L 114,32 L 115,31 L 115,30 L 114,29 Z" fill="none" stroke="black" stroke-width="1"/>
</svg>