<svg xmlns="http://www.w3.org/2000/svg" width="153" height="229">
  <path d="M 71,34 L 70,35 L 66,35 L 65,36 L 65,37 L 64,38 L 64,41 L 63,42 L 63,43 L 60,46 L 59,46 L 57,48 L 57,50 L 56,51 L 56,53 L 55,54 L 55,55 L 60,60 L 60,62 L 58,64 L 58,67 L 59,68 L 59,69 L 60,70 L 60,72 L 62,74 L 62,78 L 63,79 L 65,79 L 65,77 L 68,74 L 68,72 L 66,70 L 66,67 L 64,65 L 65,64 L 65,62 L 67,60 L 66,59 L 66,57 L 67,56 L 67,55 L 68,54 L 69,54 L 69,51 L 68,50 L 68,48 L 71,45 L 70,44 L 70,42 L 69,41 L 69,38 L 70,37 L 70,36 L 71,35 Z" fill="none" stroke="black" stroke-width="1"/>
</svg>