<svg xmlns="http://www.w3.org/2000/svg" width="153" height="229">
  <path d="M 50,104 L 50,105 L 49,106 L 46,106 L 47,107 L 47,108 L 46,109 L 46,113 L 44,115 L 44,116 L 43,117 L 44,118 L 44,119 L 45,120 L 45,121 L 46,122 L 46,124 L 45,125 L 45,126 L 46,127 L 47,126 L 49,126 L 50,125 L 51,125 L 52,126 L 53,126 L 55,128 L 55,129 L 58,129 L 59,130 L 61,130 L 61,129 L 62,128 L 62,127 L 61,126 L 61,125 L 59,123 L 59,122 L 58,121 L 58,118 L 59,117 L 59,112 L 58,111 L 58,110 L 56,108 L 56,107 L 55,106 L 54,106 L 52,104 Z" fill="none" stroke="black" stroke-width="1"/>
</svg>