<svg xmlns="http://www.w3.org/2000/svg" width="153" height="229">
  <path d="M 78,83 L 77,84 L 77,85 L 76,86 L 76,88 L 75,89 L 75,92 L 76,93 L 76,94 L 75,95 L 75,96 L 76,97 L 76,98 L 77,99 L 77,100 L 76,101 L 76,112 L 78,114 L 81,114 L 83,116 L 84,116 L 85,117 L 88,117 L 88,114 L 89,113 L 89,111 L 94,106 L 96,106 L 98,108 L 100,108 L 102,106 L 102,103 L 103,102 L 104,102 L 105,101 L 105,99 L 104,98 L 102,98 L 101,97 L 101,96 L 100,95 L 100,94 L 99,94 L 97,92 L 97,88 L 95,86 L 95,85 L 90,85 L 88,83 L 87,83 L 85,85 L 80,85 L 79,84 L 79,83 Z" fill="none" stroke="black" stroke-width="1"/>
</svg>