<svg xmlns="http://www.w3.org/2000/svg" width="1028" height="413">
  <path d="M 680,330 L 680,333 L 679,334 L 678,333 L 676,333 L 676,334 L 675,335 L 674,334 L 674,332 L 673,333 L 673,334 L 671,336 L 670,336 L 670,337 L 669,338 L 669,339 L 668,340 L 668,341 L 666,343 L 665,342 L 664,342 L 664,346 L 665,347 L 665,348 L 666,349 L 666,350 L 664,352 L 664,353 L 665,354 L 665,355 L 666,356 L 666,358 L 667,357 L 668,358 L 668,359 L 667,360 L 666,360 L 666,361 L 665,362 L 665,363 L 669,363 L 669,356 L 672,353 L 673,353 L 674,352 L 673,351 L 676,348 L 677,348 L 677,347 L 675,347 L 674,346 L 674,345 L 675,344 L 675,342 L 674,341 L 677,338 L 677,337 L 678,336 L 679,337 L 679,338 L 680,337 L 680,335 L 681,334 L 681,333 L 683,331 L 684,331 L 684,330 Z" fill="none" stroke="black" stroke-width="1"/>
</svg>