<svg xmlns="http://www.w3.org/2000/svg" width="153" height="229">
  <path d="M 101,135 L 100,136 L 94,136 L 91,139 L 90,139 L 89,140 L 88,140 L 86,142 L 85,142 L 87,142 L 88,143 L 88,145 L 87,146 L 87,147 L 86,148 L 86,149 L 85,150 L 85,154 L 87,156 L 87,158 L 88,159 L 88,161 L 90,163 L 91,162 L 92,163 L 95,163 L 95,161 L 96,160 L 95,159 L 96,158 L 96,155 L 97,154 L 97,150 L 100,147 L 101,147 L 101,146 L 102,145 L 104,145 L 104,142 L 105,141 L 105,139 L 104,138 L 104,137 L 103,136 L 103,135 Z" fill="none" stroke="black" stroke-width="1"/>
</svg>