<svg xmlns="http://www.w3.org/2000/svg" width="153" height="229">
  <path d="M 33,160 L 33,161 L 35,163 L 36,163 L 36,160 L 35,161 L 34,160 Z" fill="none" stroke="black" stroke-width="1"/>
  <path d="M 41,146 L 40,147 L 40,149 L 41,150 L 40,151 L 39,151 L 38,150 L 37,150 L 36,149 L 35,149 L 35,150 L 36,151 L 36,152 L 37,153 L 36,154 L 35,154 L 34,153 L 34,152 L 33,151 L 32,152 L 34,154 L 34,155 L 36,157 L 36,158 L 37,158 L 39,160 L 39,157 L 38,156 L 38,155 L 37,154 L 39,152 L 43,156 L 43,158 L 42,159 L 42,161 L 43,161 L 44,162 L 44,164 L 45,165 L 45,167 L 47,169 L 47,171 L 48,172 L 48,177 L 49,177 L 50,176 L 55,176 L 57,174 L 57,168 L 55,166 L 55,159 L 54,158 L 53,158 L 51,160 L 49,158 L 49,157 L 48,156 L 48,149 L 47,148 L 47,147 L 46,147 L 45,146 Z" fill="none" stroke="black" stroke-width="1"/>
</svg>