<svg xmlns="http://www.w3.org/2000/svg" width="153" height="229">
  <path d="M 102,192 L 102,196 L 100,198 L 100,199 L 99,200 L 95,200 L 94,201 L 95,202 L 95,203 L 96,203 L 97,202 L 98,203 L 98,204 L 97,205 L 97,208 L 98,209 L 98,210 L 99,211 L 99,216 L 100,217 L 99,218 L 99,220 L 100,221 L 100,228 L 104,224 L 105,224 L 105,221 L 106,220 L 108,220 L 108,219 L 109,218 L 111,218 L 111,208 L 112,207 L 112,206 L 113,205 L 116,205 L 116,201 L 114,203 L 113,203 L 112,202 L 112,199 L 111,198 L 111,197 L 110,196 L 109,196 L 107,194 L 106,194 L 104,192 Z" fill="none" stroke="black" stroke-width="1"/>
</svg>