<svg xmlns="http://www.w3.org/2000/svg" width="561" height="491">
  <path d="M 404,61 L 404,63 L 403,64 L 403,66 L 403,65 L 404,64 Z" fill="none" stroke="black" stroke-width="1"/>
  <path d="M 401,54 L 401,55 Z" fill="none" stroke="black" stroke-width="1"/>
  <path d="M 400,51 L 399,52 L 400,52 L 401,51 Z" fill="none" stroke="black" stroke-width="1"/>
  <path d="M 405,47 L 405,52 L 406,51 L 406,48 Z" fill="none" stroke="black" stroke-width="1"/>
  <path d="M 415,40 L 414,41 L 412,41 L 411,42 L 410,42 L 410,45 L 411,46 L 410,47 L 410,49 L 409,50 L 411,52 L 410,53 L 409,53 L 409,54 L 411,56 L 411,59 L 410,60 L 407,57 L 407,59 L 409,59 L 410,60 L 409,61 L 407,61 L 406,62 L 406,65 L 407,64 L 408,64 L 408,62 L 409,61 L 410,62 L 411,62 L 412,63 L 412,64 L 411,65 L 411,68 L 412,69 L 412,71 L 411,72 L 411,75 L 410,76 L 410,77 L 408,79 L 407,79 L 407,81 L 408,82 L 408,87 L 409,87 L 412,84 L 412,82 L 413,81 L 413,79 L 414,78 L 414,75 L 415,74 L 416,74 L 417,73 L 418,73 L 418,72 L 419,71 L 419,70 L 420,69 L 420,68 L 421,67 L 421,66 L 425,62 L 425,61 L 424,60 L 424,56 L 422,54 L 422,51 L 421,50 L 421,48 L 418,45 L 418,44 L 417,43 L 417,41 L 416,40 Z" fill="none" stroke="black" stroke-width="1"/>
</svg>