<svg xmlns="http://www.w3.org/2000/svg" width="225" height="121">
  <path d="M 190,30 L 191,31 L 191,34 L 190,35 L 190,37 L 191,38 L 191,39 L 192,40 L 192,46 L 191,47 L 191,51 L 193,53 L 193,54 L 194,55 L 194,59 L 195,60 L 195,67 L 194,68 L 194,78 L 195,78 L 196,79 L 197,78 L 197,76 L 199,74 L 200,74 L 201,75 L 207,75 L 210,72 L 211,72 L 212,71 L 212,70 L 215,67 L 216,67 L 216,66 L 215,66 L 214,65 L 214,63 L 213,63 L 212,62 L 212,60 L 211,60 L 210,59 L 210,56 L 208,56 L 207,55 L 207,48 L 206,48 L 204,46 L 204,39 L 202,39 L 201,38 L 201,37 L 199,37 L 198,36 L 198,34 L 197,34 L 196,33 L 196,31 L 192,31 L 191,30 Z" fill="none" stroke="black" stroke-width="1"/>
</svg>