<svg xmlns="http://www.w3.org/2000/svg" width="315" height="148">
  <path d="M 53,69 L 51,71 L 49,71 L 48,72 L 45,72 L 43,70 L 38,70 L 36,72 L 35,72 L 34,71 L 33,71 L 32,70 L 31,70 L 31,71 L 30,72 L 28,70 L 28,72 L 27,73 L 28,73 L 31,76 L 31,78 L 32,79 L 32,82 L 33,82 L 34,83 L 35,83 L 36,84 L 36,85 L 38,85 L 39,86 L 39,88 L 40,87 L 41,88 L 42,88 L 43,89 L 43,91 L 45,93 L 45,100 L 46,101 L 51,101 L 51,99 L 52,98 L 60,98 L 61,97 L 71,97 L 71,93 L 72,92 L 76,92 L 76,89 L 74,89 L 70,85 L 70,82 L 69,81 L 66,81 L 65,80 L 65,78 L 64,78 L 63,77 L 62,77 L 61,76 L 61,74 L 60,73 L 57,73 L 56,72 L 56,71 L 54,69 Z" fill="none" stroke="black" stroke-width="1"/>
</svg>