<svg xmlns="http://www.w3.org/2000/svg" width="299" height="181">
  <path d="M 138,99 L 137,100 L 137,121 L 138,122 L 138,123 L 139,123 L 140,124 L 140,125 L 142,125 L 143,126 L 143,127 L 147,127 L 148,128 L 150,128 L 151,129 L 152,129 L 153,130 L 153,133 L 154,134 L 154,139 L 158,139 L 159,140 L 159,141 L 163,141 L 164,142 L 164,143 L 164,140 L 163,139 L 164,138 L 165,138 L 163,136 L 163,135 L 164,134 L 164,127 L 163,126 L 163,121 L 164,120 L 164,119 L 165,118 L 165,109 L 164,108 L 164,106 L 163,107 L 162,107 L 161,108 L 156,108 L 155,109 L 154,108 L 150,108 L 149,107 L 149,106 L 147,106 L 143,102 L 142,102 L 139,99 Z" fill="none" stroke="black" stroke-width="1"/>
</svg>