<svg xmlns="http://www.w3.org/2000/svg" width="299" height="181">
  <path d="M 250,63 L 248,65 L 246,65 L 246,70 L 244,72 L 242,72 L 241,73 L 238,73 L 238,75 L 237,76 L 236,76 L 235,77 L 235,81 L 236,82 L 236,84 L 237,85 L 237,87 L 236,88 L 236,90 L 235,91 L 236,91 L 237,92 L 238,92 L 239,93 L 239,94 L 240,95 L 241,95 L 244,98 L 244,99 L 246,99 L 247,98 L 248,98 L 249,97 L 250,97 L 251,96 L 253,98 L 255,98 L 257,100 L 258,100 L 261,97 L 264,97 L 264,96 L 265,95 L 266,95 L 270,91 L 270,90 L 275,85 L 274,84 L 274,83 L 273,82 L 273,81 L 272,80 L 273,79 L 272,78 L 272,76 L 269,76 L 268,77 L 265,77 L 263,75 L 261,75 L 260,74 L 260,71 L 261,70 L 261,68 L 258,65 L 254,65 L 253,64 L 252,64 L 251,63 Z" fill="none" stroke="black" stroke-width="1"/>
</svg>