<svg xmlns="http://www.w3.org/2000/svg" width="315" height="148">
  <path d="M 164,25 L 162,27 L 156,27 L 156,28 L 155,29 L 155,30 L 154,31 L 153,31 L 151,33 L 148,33 L 147,34 L 146,34 L 144,36 L 144,38 L 145,39 L 145,42 L 144,43 L 144,44 L 142,46 L 141,46 L 141,47 L 143,49 L 143,52 L 144,53 L 144,54 L 143,55 L 146,55 L 147,56 L 147,59 L 151,59 L 153,61 L 153,62 L 155,62 L 155,61 L 156,60 L 157,60 L 158,59 L 159,60 L 161,60 L 162,61 L 163,61 L 164,62 L 165,62 L 166,63 L 166,64 L 167,64 L 168,65 L 173,65 L 174,66 L 174,67 L 175,67 L 176,66 L 177,66 L 178,65 L 179,65 L 180,64 L 182,64 L 183,63 L 184,63 L 186,61 L 187,61 L 188,60 L 189,60 L 189,59 L 188,58 L 188,57 L 187,56 L 187,54 L 190,51 L 190,50 L 191,49 L 195,49 L 195,48 L 194,48 L 191,45 L 191,44 L 192,43 L 193,43 L 187,43 L 186,44 L 185,44 L 184,43 L 184,39 L 182,39 L 181,38 L 180,38 L 179,37 L 177,37 L 174,34 L 174,33 L 173,32 L 172,32 L 171,31 L 168,31 L 167,30 L 167,29 L 165,27 L 165,25 Z" fill="none" stroke="black" stroke-width="1"/>
</svg>