<svg xmlns="http://www.w3.org/2000/svg" width="191" height="202">
  <path d="M 109,133 L 108,134 L 102,134 L 101,135 L 99,135 L 98,136 L 97,136 L 97,137 L 93,141 L 91,141 L 91,142 L 89,144 L 91,144 L 94,141 L 98,141 L 99,142 L 98,143 L 98,144 L 100,146 L 99,147 L 99,148 L 100,147 L 101,147 L 102,146 L 102,145 L 103,144 L 106,144 L 106,142 L 108,140 L 109,140 L 111,142 L 113,142 L 114,141 L 115,141 L 115,140 L 116,139 L 119,139 L 119,137 L 118,136 L 116,136 L 115,135 L 115,134 L 114,135 L 112,133 Z" fill="none" stroke="black" stroke-width="1"/>
  <path d="M 93,131 L 92,132 L 92,134 L 94,136 L 94,137 L 95,136 L 95,135 L 96,134 L 97,134 L 98,133 L 97,133 L 96,132 L 96,131 Z" fill="none" stroke="black" stroke-width="1"/>
</svg>