<svg xmlns="http://www.w3.org/2000/svg" width="315" height="148">
  <path d="M 100,43 L 100,49 L 99,50 L 99,51 L 98,52 L 98,54 L 97,55 L 97,57 L 96,58 L 94,58 L 90,62 L 90,66 L 94,66 L 95,67 L 95,71 L 96,72 L 96,79 L 101,79 L 102,78 L 105,78 L 110,73 L 112,73 L 113,72 L 115,72 L 118,69 L 122,69 L 123,68 L 126,68 L 127,69 L 129,69 L 130,70 L 132,70 L 133,71 L 136,71 L 137,70 L 139,70 L 140,69 L 140,68 L 139,67 L 139,66 L 138,65 L 138,63 L 139,62 L 139,60 L 140,59 L 140,58 L 142,56 L 142,55 L 143,54 L 143,53 L 142,52 L 142,51 L 141,51 L 140,50 L 139,50 L 138,49 L 135,49 L 134,50 L 127,50 L 124,47 L 119,47 L 116,50 L 115,50 L 114,51 L 111,51 L 110,50 L 109,50 L 103,44 L 102,44 L 101,43 Z" fill="none" stroke="black" stroke-width="1"/>
</svg>