<svg xmlns="http://www.w3.org/2000/svg" width="315" height="148">
  <path d="M 123,69 L 122,70 L 118,70 L 115,73 L 113,73 L 112,74 L 110,74 L 105,79 L 102,79 L 101,80 L 95,80 L 95,83 L 97,85 L 97,90 L 98,91 L 99,91 L 102,94 L 103,94 L 104,95 L 104,100 L 106,100 L 107,99 L 110,99 L 111,100 L 113,98 L 114,98 L 115,97 L 120,97 L 122,95 L 123,95 L 124,94 L 128,94 L 129,93 L 129,92 L 130,91 L 137,91 L 138,90 L 138,89 L 140,87 L 140,84 L 141,83 L 142,83 L 142,82 L 143,81 L 143,80 L 144,79 L 144,76 L 143,75 L 143,74 L 141,72 L 140,72 L 139,71 L 137,71 L 136,72 L 133,72 L 132,71 L 130,71 L 129,70 L 127,70 L 126,69 Z" fill="none" stroke="black" stroke-width="1"/>
</svg>