<svg xmlns="http://www.w3.org/2000/svg" width="315" height="148">
  <path d="M 143,56 L 141,58 L 141,59 L 140,60 L 140,62 L 139,63 L 139,65 L 140,66 L 140,67 L 141,68 L 141,69 L 140,70 L 140,71 L 141,71 L 144,74 L 144,75 L 145,76 L 145,79 L 144,80 L 145,80 L 146,81 L 152,81 L 153,82 L 157,82 L 158,81 L 161,81 L 162,82 L 165,82 L 167,84 L 167,85 L 168,86 L 168,88 L 171,88 L 171,87 L 172,86 L 172,85 L 175,82 L 176,82 L 177,81 L 178,81 L 178,80 L 179,79 L 180,79 L 180,78 L 181,77 L 182,77 L 183,76 L 183,74 L 182,73 L 182,70 L 181,69 L 180,69 L 179,68 L 174,68 L 173,67 L 173,66 L 168,66 L 167,65 L 166,65 L 165,64 L 165,63 L 164,63 L 163,62 L 162,62 L 161,61 L 159,61 L 158,60 L 157,61 L 156,61 L 156,62 L 155,63 L 153,63 L 152,62 L 152,61 L 151,60 L 147,60 L 146,59 L 146,56 Z" fill="none" stroke="black" stroke-width="1"/>
</svg>