<svg xmlns="http://www.w3.org/2000/svg" width="315" height="148">
  <path d="M 177,82 L 176,83 L 175,83 L 173,85 L 173,86 L 172,87 L 172,88 L 171,89 L 167,89 L 167,90 L 164,93 L 164,94 L 162,96 L 162,97 L 161,98 L 160,98 L 159,99 L 160,99 L 161,100 L 161,102 L 162,103 L 162,104 L 164,106 L 165,106 L 166,107 L 167,107 L 168,108 L 169,108 L 170,109 L 170,112 L 171,113 L 171,114 L 172,115 L 172,119 L 173,120 L 173,122 L 174,122 L 175,121 L 177,121 L 179,119 L 181,119 L 182,120 L 182,121 L 184,123 L 185,123 L 186,122 L 186,119 L 187,118 L 189,118 L 189,117 L 191,115 L 191,114 L 190,114 L 189,113 L 190,112 L 190,109 L 189,108 L 190,107 L 191,107 L 193,105 L 194,105 L 195,104 L 195,103 L 194,102 L 194,100 L 195,99 L 195,98 L 197,96 L 197,92 L 196,91 L 196,90 L 195,89 L 195,87 L 192,87 L 191,86 L 190,86 L 188,84 L 187,84 L 186,83 L 179,83 L 178,82 Z" fill="none" stroke="black" stroke-width="1"/>
</svg>