<svg xmlns="http://www.w3.org/2000/svg" width="318" height="385">
  <path d="M 246,338 L 245,339 L 243,339 L 243,340 L 241,342 L 240,342 L 239,343 L 237,343 L 235,345 L 234,345 L 232,343 L 228,343 L 227,344 L 227,345 L 226,346 L 226,349 L 223,352 L 223,353 L 222,354 L 221,354 L 223,356 L 223,357 L 224,358 L 224,360 L 223,361 L 223,365 L 226,368 L 226,369 L 227,370 L 227,371 L 228,372 L 231,372 L 232,373 L 232,374 L 235,374 L 238,377 L 238,378 L 239,378 L 241,380 L 243,380 L 244,381 L 244,383 L 245,383 L 246,384 L 249,384 L 251,382 L 256,382 L 257,383 L 258,383 L 258,381 L 259,380 L 259,378 L 261,376 L 261,375 L 262,374 L 262,366 L 263,365 L 263,362 L 264,361 L 264,360 L 266,358 L 267,358 L 271,354 L 272,354 L 273,353 L 273,352 L 271,352 L 270,351 L 269,351 L 268,350 L 267,350 L 265,348 L 264,348 L 261,345 L 260,345 L 259,344 L 255,344 L 254,343 L 254,341 L 251,338 Z" fill="none" stroke="black" stroke-width="1"/>
</svg>