<svg xmlns="http://www.w3.org/2000/svg" width="315" height="148">
  <path d="M 207,103 L 206,104 L 204,104 L 203,105 L 201,105 L 198,108 L 197,108 L 196,109 L 194,109 L 192,107 L 191,108 L 190,108 L 191,109 L 191,112 L 190,113 L 191,113 L 192,114 L 192,115 L 190,117 L 190,118 L 189,119 L 187,119 L 187,122 L 185,124 L 184,124 L 184,127 L 185,127 L 186,128 L 186,132 L 187,132 L 188,133 L 188,135 L 189,136 L 192,136 L 193,137 L 197,137 L 198,138 L 198,140 L 199,141 L 199,143 L 201,143 L 202,144 L 205,144 L 206,145 L 207,145 L 209,147 L 212,144 L 213,144 L 215,142 L 221,142 L 222,141 L 223,141 L 224,140 L 224,139 L 225,138 L 225,137 L 226,136 L 226,135 L 228,133 L 228,132 L 229,131 L 229,125 L 230,124 L 230,117 L 228,115 L 228,112 L 227,111 L 226,111 L 225,110 L 225,108 L 224,107 L 224,106 L 220,106 L 219,107 L 215,107 L 212,104 L 210,104 L 209,103 Z" fill="none" stroke="black" stroke-width="1"/>
</svg>