<svg xmlns="http://www.w3.org/2000/svg" width="315" height="148">
  <path d="M 258,89 L 257,90 L 255,90 L 254,91 L 253,91 L 251,93 L 250,92 L 242,92 L 241,93 L 238,93 L 238,98 L 235,101 L 234,101 L 233,102 L 232,102 L 231,103 L 228,103 L 227,104 L 227,105 L 226,106 L 225,106 L 225,107 L 226,108 L 226,110 L 227,110 L 229,112 L 229,115 L 231,117 L 231,124 L 230,125 L 230,131 L 229,132 L 229,133 L 227,135 L 227,136 L 228,136 L 230,138 L 231,138 L 232,139 L 232,140 L 231,141 L 231,142 L 232,143 L 232,144 L 239,144 L 239,143 L 240,142 L 250,142 L 250,140 L 251,139 L 252,139 L 253,138 L 255,138 L 255,136 L 256,135 L 257,135 L 257,132 L 258,131 L 266,131 L 267,130 L 267,114 L 265,112 L 265,110 L 266,109 L 266,108 L 267,107 L 267,106 L 268,105 L 268,104 L 269,103 L 269,102 L 270,101 L 270,100 L 272,98 L 272,96 L 271,95 L 270,95 L 269,94 L 268,94 L 265,91 L 263,91 L 261,89 Z" fill="none" stroke="black" stroke-width="1"/>
</svg>