<svg xmlns="http://www.w3.org/2000/svg" width="404" height="430">
  <path d="M 92,378 L 91,379 L 83,379 L 82,380 L 81,380 L 79,382 L 80,383 L 79,384 L 75,384 L 74,385 L 72,385 L 71,386 L 68,386 L 64,390 L 64,391 L 63,392 L 63,394 L 64,395 L 64,402 L 65,403 L 62,406 L 62,407 L 61,408 L 60,408 L 59,409 L 59,411 L 56,414 L 55,414 L 55,415 L 54,416 L 53,416 L 53,417 L 52,418 L 52,420 L 51,421 L 51,422 L 52,423 L 52,424 L 57,424 L 58,425 L 60,425 L 63,428 L 64,428 L 65,429 L 66,429 L 67,428 L 71,428 L 74,425 L 76,425 L 77,424 L 78,424 L 79,423 L 80,423 L 81,422 L 84,422 L 85,421 L 85,420 L 86,419 L 86,418 L 85,417 L 85,415 L 86,414 L 87,414 L 88,413 L 88,412 L 89,411 L 91,411 L 93,413 L 94,413 L 98,417 L 98,418 L 99,419 L 99,421 L 101,423 L 102,423 L 103,424 L 104,424 L 105,423 L 109,423 L 109,422 L 111,420 L 110,419 L 110,418 L 109,417 L 109,416 L 108,415 L 108,414 L 107,413 L 107,409 L 106,409 L 104,407 L 104,406 L 102,404 L 102,402 L 103,401 L 103,398 L 106,395 L 107,395 L 107,394 L 108,393 L 108,390 L 107,390 L 106,389 L 103,389 L 102,388 L 102,387 L 101,386 L 101,384 L 100,383 L 98,383 L 97,382 L 96,382 L 94,380 L 94,379 L 93,378 Z" fill="none" stroke="black" stroke-width="1"/>
</svg>