<svg xmlns="http://www.w3.org/2000/svg" width="404" height="430">
  <path d="M 71,346 L 70,347 L 70,348 L 69,349 L 69,351 L 68,352 L 68,353 L 67,354 L 67,355 L 66,356 L 66,357 L 65,358 L 65,359 L 64,360 L 64,364 L 65,365 L 65,369 L 68,369 L 69,370 L 70,370 L 71,371 L 72,371 L 73,372 L 77,372 L 79,374 L 80,374 L 82,376 L 83,376 L 84,377 L 84,378 L 91,378 L 93,376 L 93,373 L 94,372 L 94,371 L 95,370 L 95,369 L 96,368 L 96,367 L 98,365 L 99,365 L 100,364 L 104,364 L 105,363 L 105,362 L 106,361 L 106,359 L 105,359 L 104,358 L 104,357 L 105,356 L 101,352 L 100,352 L 98,350 L 97,350 L 95,348 L 95,347 L 94,346 L 91,346 L 90,347 L 89,347 L 88,348 L 87,348 L 87,349 L 85,351 L 82,351 L 81,350 L 79,350 L 78,349 L 77,349 L 76,348 L 76,347 L 75,346 Z" fill="none" stroke="black" stroke-width="1"/>
</svg>