<svg xmlns="http://www.w3.org/2000/svg" width="404" height="430">
  <path d="M 253,346 L 252,347 L 250,347 L 249,348 L 242,348 L 242,352 L 241,353 L 241,354 L 238,357 L 237,357 L 236,356 L 231,356 L 230,357 L 229,357 L 228,358 L 219,358 L 218,357 L 215,357 L 214,356 L 213,356 L 211,354 L 210,354 L 209,353 L 204,353 L 203,352 L 202,352 L 201,351 L 200,351 L 199,350 L 195,350 L 194,351 L 192,351 L 190,353 L 184,353 L 183,354 L 182,354 L 183,355 L 183,357 L 185,359 L 185,360 L 186,361 L 186,367 L 185,368 L 185,371 L 186,372 L 186,374 L 187,375 L 188,375 L 189,376 L 189,377 L 190,378 L 190,384 L 191,385 L 191,386 L 192,387 L 192,391 L 199,391 L 200,392 L 203,392 L 204,393 L 214,393 L 215,392 L 216,392 L 217,393 L 222,393 L 223,394 L 223,396 L 228,396 L 232,400 L 235,400 L 236,399 L 242,399 L 243,400 L 261,400 L 262,399 L 261,399 L 260,398 L 262,396 L 265,396 L 265,392 L 264,391 L 264,384 L 265,383 L 266,383 L 266,379 L 267,378 L 267,376 L 270,373 L 270,372 L 271,371 L 271,369 L 269,367 L 269,365 L 268,364 L 268,361 L 269,360 L 269,358 L 270,357 L 270,356 L 271,355 L 272,355 L 272,354 L 270,352 L 270,351 L 266,351 L 265,350 L 262,350 L 261,349 L 260,349 L 259,348 L 258,348 L 257,347 L 256,347 L 255,346 Z" fill="none" stroke="black" stroke-width="1"/>
</svg>