<svg xmlns="http://www.w3.org/2000/svg" width="404" height="430">
  <path d="M 142,305 L 141,306 L 140,306 L 139,307 L 138,307 L 137,308 L 129,308 L 128,309 L 124,309 L 123,310 L 123,311 L 126,314 L 126,316 L 124,318 L 124,319 L 123,320 L 126,323 L 128,323 L 129,322 L 130,322 L 131,323 L 132,323 L 135,326 L 135,327 L 134,328 L 138,328 L 139,329 L 140,329 L 141,330 L 141,332 L 143,334 L 144,334 L 145,333 L 147,333 L 148,332 L 154,332 L 155,333 L 159,333 L 160,334 L 167,334 L 167,333 L 169,331 L 169,327 L 171,325 L 171,324 L 168,321 L 168,318 L 167,318 L 166,317 L 166,316 L 164,316 L 163,315 L 162,315 L 161,314 L 160,314 L 153,307 L 151,307 L 150,306 L 148,306 L 147,305 Z" fill="none" stroke="black" stroke-width="1"/>
</svg>