<svg xmlns="http://www.w3.org/2000/svg" width="404" height="430">
  <path d="M 73,270 L 72,271 L 71,271 L 70,272 L 69,272 L 69,273 L 67,275 L 64,275 L 63,276 L 63,278 L 62,279 L 62,280 L 63,281 L 63,282 L 64,282 L 66,284 L 67,284 L 68,285 L 68,287 L 67,288 L 67,289 L 68,290 L 68,292 L 67,293 L 67,296 L 66,297 L 66,299 L 65,300 L 65,301 L 64,302 L 64,303 L 61,306 L 60,306 L 61,306 L 62,307 L 63,307 L 69,313 L 69,315 L 72,318 L 75,318 L 76,317 L 77,317 L 78,318 L 79,318 L 80,317 L 80,316 L 81,315 L 81,314 L 82,313 L 83,313 L 83,312 L 84,311 L 86,311 L 87,310 L 88,310 L 88,309 L 89,308 L 89,302 L 88,301 L 88,297 L 90,295 L 90,292 L 91,291 L 91,290 L 85,284 L 85,277 L 84,276 L 85,275 L 86,275 L 85,274 L 84,274 L 83,273 L 83,271 L 82,271 L 81,272 L 80,272 L 79,271 L 79,270 L 78,271 L 77,271 L 76,272 L 75,272 Z" fill="none" stroke="black" stroke-width="1"/>
</svg>