<svg xmlns="http://www.w3.org/2000/svg" width="404" height="430">
  <path d="M 58,307 L 57,308 L 57,309 L 56,310 L 52,310 L 51,309 L 49,309 L 48,308 L 42,308 L 40,310 L 37,310 L 36,311 L 33,311 L 33,312 L 32,313 L 32,314 L 31,315 L 29,315 L 28,316 L 26,316 L 25,317 L 24,317 L 24,318 L 23,319 L 23,321 L 22,322 L 21,322 L 19,324 L 19,326 L 18,327 L 18,329 L 20,329 L 21,330 L 22,329 L 23,329 L 24,328 L 25,328 L 26,327 L 27,327 L 29,329 L 29,330 L 30,330 L 31,331 L 34,331 L 35,332 L 36,332 L 37,333 L 38,333 L 39,334 L 38,335 L 43,335 L 44,336 L 45,336 L 46,337 L 47,337 L 48,336 L 50,336 L 51,337 L 51,339 L 53,339 L 54,340 L 57,340 L 58,339 L 58,338 L 60,336 L 60,335 L 61,334 L 66,334 L 67,333 L 68,333 L 68,329 L 69,328 L 69,327 L 70,326 L 70,325 L 71,324 L 71,323 L 72,322 L 72,321 L 74,319 L 72,319 L 68,315 L 68,313 L 63,308 L 62,308 L 61,307 Z" fill="none" stroke="black" stroke-width="1"/>
</svg>