<svg xmlns="http://www.w3.org/2000/svg" width="185" height="128">
  <path d="M 123,71 L 123,72 L 119,76 L 119,77 L 118,78 L 117,78 L 117,82 L 116,83 L 116,84 L 114,86 L 114,88 L 113,89 L 113,90 L 116,93 L 118,93 L 119,94 L 121,94 L 123,92 L 124,92 L 125,91 L 129,91 L 130,92 L 132,92 L 133,93 L 134,93 L 134,91 L 135,90 L 135,89 L 137,87 L 137,86 L 139,84 L 144,84 L 144,82 L 146,80 L 145,80 L 143,78 L 143,77 L 142,77 L 141,76 L 140,76 L 139,75 L 134,75 L 133,76 L 131,76 L 131,77 L 130,78 L 127,75 L 127,74 L 126,74 L 125,73 L 125,71 Z" fill="none" stroke="black" stroke-width="1"/>
</svg>