<svg xmlns="http://www.w3.org/2000/svg" width="404" height="430">
  <path d="M 378,147 L 377,148 L 373,148 L 372,149 L 368,149 L 367,150 L 365,150 L 364,151 L 363,151 L 362,152 L 362,154 L 361,155 L 359,155 L 358,156 L 350,156 L 349,155 L 345,155 L 344,156 L 343,156 L 340,159 L 340,160 L 339,161 L 338,160 L 337,160 L 336,161 L 328,161 L 327,162 L 326,162 L 323,165 L 322,165 L 319,168 L 318,168 L 316,170 L 316,171 L 315,172 L 315,173 L 314,174 L 314,175 L 312,177 L 312,178 L 304,186 L 304,187 L 303,188 L 303,193 L 302,194 L 302,195 L 301,196 L 301,199 L 302,200 L 303,200 L 304,201 L 306,201 L 307,202 L 307,206 L 309,208 L 309,210 L 312,213 L 312,214 L 313,215 L 313,216 L 318,221 L 319,221 L 320,222 L 320,223 L 321,224 L 321,225 L 322,226 L 322,227 L 323,228 L 323,232 L 324,233 L 324,248 L 325,249 L 325,251 L 330,256 L 331,256 L 332,257 L 333,257 L 335,259 L 336,259 L 339,262 L 339,263 L 340,264 L 340,265 L 341,266 L 341,267 L 342,267 L 345,264 L 345,263 L 347,261 L 348,261 L 349,260 L 350,260 L 355,255 L 355,254 L 361,248 L 365,248 L 366,247 L 371,247 L 372,246 L 374,246 L 375,245 L 376,245 L 376,244 L 377,243 L 378,243 L 379,242 L 380,242 L 380,241 L 385,236 L 386,236 L 390,232 L 390,231 L 391,230 L 391,229 L 392,228 L 392,227 L 393,226 L 394,226 L 397,223 L 397,222 L 398,221 L 399,221 L 399,217 L 400,216 L 400,210 L 401,209 L 401,207 L 402,206 L 402,203 L 403,202 L 403,196 L 402,195 L 402,194 L 401,194 L 398,191 L 398,190 L 397,189 L 397,188 L 396,187 L 396,186 L 395,185 L 395,184 L 394,183 L 394,178 L 393,177 L 393,174 L 392,173 L 392,159 L 391,158 L 391,155 L 390,154 L 390,152 L 386,148 L 385,148 L 384,147 Z" fill="none" stroke="black" stroke-width="1"/>
</svg>