<svg xmlns="http://www.w3.org/2000/svg" width="757" height="474">
  <path d="M 187,234 L 186,235 L 180,235 L 179,236 L 163,236 L 161,238 L 160,238 L 154,244 L 154,246 L 153,247 L 153,249 L 152,250 L 152,254 L 151,255 L 151,258 L 150,259 L 150,267 L 149,268 L 149,270 L 150,271 L 150,273 L 151,274 L 151,275 L 150,276 L 150,277 L 149,278 L 149,279 L 151,281 L 151,283 L 152,284 L 152,286 L 151,287 L 151,288 L 156,288 L 157,289 L 158,289 L 159,290 L 161,290 L 163,292 L 166,292 L 167,293 L 171,293 L 172,294 L 174,294 L 175,295 L 181,295 L 182,296 L 188,296 L 189,297 L 190,297 L 192,299 L 193,299 L 195,301 L 195,304 L 196,305 L 197,305 L 199,303 L 200,304 L 200,308 L 203,311 L 203,312 L 204,313 L 205,313 L 206,314 L 206,315 L 210,319 L 210,320 L 216,326 L 217,326 L 218,327 L 218,328 L 223,328 L 224,329 L 225,329 L 231,323 L 232,323 L 238,317 L 239,317 L 241,315 L 246,315 L 247,314 L 252,314 L 253,313 L 255,313 L 256,314 L 256,312 L 258,310 L 258,309 L 259,308 L 259,302 L 258,301 L 258,300 L 261,297 L 262,297 L 262,290 L 261,289 L 261,286 L 260,285 L 260,284 L 259,283 L 258,283 L 257,282 L 256,282 L 255,281 L 252,281 L 251,280 L 250,280 L 249,279 L 245,279 L 244,278 L 243,278 L 242,277 L 241,277 L 238,274 L 238,270 L 237,269 L 237,266 L 236,265 L 236,264 L 231,259 L 230,259 L 229,258 L 223,258 L 222,257 L 221,257 L 220,256 L 219,256 L 218,255 L 217,255 L 216,254 L 215,254 L 205,244 L 205,243 L 201,239 L 201,238 L 199,236 L 199,235 L 198,234 Z" fill="none" stroke="black" stroke-width="1"/>
</svg>