<svg xmlns="http://www.w3.org/2000/svg" width="757" height="474">
  <path d="M 252,186 L 251,187 L 251,188 L 250,189 L 250,190 L 249,191 L 248,191 L 248,192 L 247,193 L 247,195 L 245,197 L 244,197 L 239,202 L 239,204 L 237,206 L 237,208 L 231,214 L 231,215 L 227,219 L 226,219 L 225,220 L 223,220 L 222,221 L 219,221 L 218,222 L 216,222 L 214,224 L 213,224 L 210,227 L 209,227 L 209,228 L 206,231 L 205,231 L 202,234 L 199,234 L 200,235 L 200,236 L 202,238 L 202,239 L 206,243 L 206,244 L 215,253 L 216,253 L 217,254 L 218,254 L 219,255 L 220,255 L 221,256 L 222,256 L 223,257 L 229,257 L 230,258 L 231,258 L 237,264 L 237,265 L 238,266 L 238,269 L 239,270 L 239,274 L 241,276 L 242,276 L 243,277 L 244,277 L 245,278 L 249,278 L 250,279 L 251,279 L 252,280 L 255,280 L 256,281 L 257,281 L 258,282 L 259,282 L 261,284 L 261,285 L 261,284 L 262,283 L 263,283 L 264,282 L 265,282 L 265,281 L 266,280 L 267,280 L 267,279 L 268,278 L 269,278 L 270,277 L 272,277 L 273,276 L 276,276 L 277,275 L 278,275 L 279,274 L 281,274 L 282,273 L 286,273 L 290,269 L 291,269 L 291,268 L 297,262 L 297,258 L 298,257 L 298,252 L 299,251 L 299,246 L 300,245 L 301,245 L 303,243 L 304,243 L 304,242 L 305,241 L 306,241 L 307,240 L 308,240 L 309,239 L 311,239 L 312,238 L 313,238 L 314,237 L 315,237 L 316,236 L 317,236 L 317,235 L 318,234 L 322,234 L 323,233 L 324,233 L 324,232 L 325,231 L 326,231 L 327,230 L 331,230 L 331,229 L 332,228 L 333,228 L 334,227 L 335,227 L 336,226 L 336,225 L 337,224 L 337,222 L 338,221 L 338,219 L 336,217 L 336,216 L 335,215 L 335,214 L 330,214 L 329,213 L 327,213 L 326,212 L 325,212 L 324,211 L 320,211 L 319,210 L 318,210 L 317,209 L 307,209 L 300,202 L 299,202 L 296,199 L 295,199 L 293,197 L 292,197 L 291,196 L 289,196 L 288,195 L 284,195 L 283,194 L 273,194 L 267,188 L 265,188 L 264,187 L 263,187 L 262,186 Z" fill="none" stroke="black" stroke-width="1"/>
</svg>