<svg xmlns="http://www.w3.org/2000/svg" width="757" height="474">
  <path d="M 338,37 L 339,38 L 339,43 L 338,44 L 338,45 L 337,46 L 337,53 L 336,54 L 335,53 L 334,53 L 333,54 L 332,54 L 332,55 L 331,56 L 330,56 L 329,57 L 329,58 L 327,60 L 327,69 L 326,70 L 326,82 L 327,83 L 327,88 L 328,89 L 328,94 L 331,97 L 331,98 L 333,100 L 333,107 L 332,108 L 332,110 L 329,113 L 329,114 L 328,115 L 331,115 L 332,114 L 335,114 L 336,113 L 339,113 L 340,112 L 343,112 L 344,111 L 347,111 L 348,110 L 350,110 L 351,109 L 354,112 L 354,113 L 355,114 L 355,115 L 360,120 L 360,121 L 361,122 L 361,123 L 362,124 L 362,125 L 363,126 L 365,126 L 372,133 L 373,133 L 374,134 L 373,135 L 374,135 L 378,139 L 379,139 L 380,140 L 381,140 L 382,141 L 383,141 L 386,144 L 386,145 L 387,144 L 388,144 L 389,143 L 390,143 L 390,142 L 391,141 L 397,141 L 398,140 L 400,142 L 401,142 L 402,143 L 408,143 L 409,144 L 410,144 L 412,146 L 413,146 L 414,147 L 417,147 L 418,148 L 419,148 L 420,149 L 421,149 L 422,150 L 423,150 L 424,151 L 425,150 L 427,152 L 431,152 L 432,153 L 435,153 L 436,154 L 440,154 L 441,155 L 444,155 L 446,157 L 447,157 L 448,158 L 449,158 L 450,159 L 451,158 L 452,159 L 453,159 L 454,160 L 455,160 L 456,161 L 461,161 L 462,162 L 463,162 L 464,163 L 466,163 L 463,160 L 463,146 L 464,145 L 464,137 L 463,136 L 463,133 L 462,132 L 462,130 L 460,128 L 460,121 L 461,120 L 461,119 L 462,118 L 462,107 L 463,106 L 463,102 L 462,102 L 461,101 L 461,100 L 462,99 L 463,99 L 462,99 L 461,98 L 459,98 L 458,97 L 458,96 L 457,95 L 457,92 L 456,91 L 456,87 L 455,86 L 455,84 L 454,83 L 454,82 L 453,81 L 453,80 L 452,79 L 451,79 L 449,77 L 448,77 L 447,76 L 444,76 L 443,75 L 442,75 L 441,74 L 440,74 L 439,73 L 438,73 L 437,72 L 435,72 L 433,70 L 431,70 L 430,69 L 429,69 L 428,68 L 426,68 L 425,67 L 424,67 L 423,66 L 421,66 L 420,65 L 413,65 L 411,67 L 410,67 L 408,69 L 407,69 L 406,70 L 404,70 L 403,69 L 402,69 L 399,66 L 395,66 L 394,65 L 391,65 L 390,64 L 388,64 L 387,63 L 385,63 L 385,65 L 384,66 L 383,66 L 382,67 L 381,67 L 379,65 L 379,64 L 372,57 L 371,57 L 370,56 L 368,56 L 367,55 L 365,55 L 363,53 L 363,51 L 361,51 L 359,49 L 358,49 L 357,48 L 356,48 L 355,47 L 354,47 L 353,46 L 352,46 L 351,45 L 348,45 L 345,42 L 345,40 L 344,39 L 344,38 L 343,38 L 342,37 Z" fill="none" stroke="black" stroke-width="1"/>
</svg>