<svg xmlns="http://www.w3.org/2000/svg" width="191" height="202">
  <path d="M 114,109 L 114,110 L 113,111 L 113,116 L 115,116 L 116,115 L 117,115 L 118,114 L 119,115 L 119,117 L 118,118 L 118,119 L 117,120 L 116,120 L 116,121 L 115,122 L 116,123 L 116,124 L 117,125 L 116,126 L 118,128 L 119,128 L 120,127 L 124,127 L 126,125 L 129,125 L 130,124 L 129,123 L 129,119 L 128,118 L 127,118 L 125,116 L 125,113 L 121,113 L 119,111 L 118,111 L 117,110 L 116,110 L 115,109 Z" fill="none" stroke="black" stroke-width="1"/>
</svg>