<svg xmlns="http://www.w3.org/2000/svg" width="757" height="474">
  <path d="M 462,100 L 462,101 L 463,101 L 464,102 L 464,106 L 463,107 L 463,118 L 462,119 L 462,120 L 461,121 L 461,128 L 463,130 L 463,132 L 464,133 L 464,136 L 465,137 L 465,145 L 464,146 L 464,160 L 468,164 L 468,165 L 469,166 L 469,168 L 471,170 L 471,171 L 473,173 L 476,173 L 480,177 L 481,177 L 482,178 L 482,180 L 483,181 L 483,182 L 484,183 L 485,183 L 486,184 L 487,184 L 488,185 L 488,186 L 487,187 L 487,188 L 488,187 L 489,187 L 490,186 L 491,186 L 489,184 L 490,183 L 492,183 L 495,180 L 495,179 L 497,177 L 505,177 L 506,176 L 508,176 L 509,177 L 510,177 L 511,178 L 512,178 L 513,179 L 514,178 L 515,179 L 516,179 L 517,180 L 518,180 L 520,182 L 521,182 L 522,183 L 534,183 L 535,184 L 536,184 L 537,185 L 538,185 L 539,186 L 540,186 L 541,187 L 552,187 L 553,186 L 554,187 L 555,187 L 556,188 L 558,188 L 559,189 L 562,189 L 563,188 L 566,188 L 567,189 L 568,189 L 569,190 L 570,190 L 571,191 L 572,191 L 573,190 L 575,190 L 576,191 L 577,191 L 578,192 L 579,192 L 580,193 L 581,193 L 582,192 L 584,192 L 585,193 L 586,193 L 587,194 L 588,194 L 589,195 L 591,195 L 592,194 L 596,194 L 597,195 L 597,196 L 600,199 L 601,199 L 602,200 L 605,200 L 615,210 L 616,210 L 617,209 L 619,209 L 622,206 L 624,206 L 629,201 L 631,201 L 632,200 L 633,200 L 637,196 L 638,196 L 640,194 L 641,194 L 642,193 L 643,193 L 644,192 L 647,192 L 648,191 L 649,191 L 650,190 L 651,190 L 653,188 L 661,188 L 659,186 L 658,186 L 657,185 L 656,185 L 655,184 L 654,184 L 651,181 L 650,181 L 647,178 L 647,177 L 646,176 L 646,175 L 645,174 L 645,168 L 644,167 L 644,161 L 643,160 L 643,158 L 643,159 L 641,161 L 637,161 L 636,162 L 635,162 L 634,163 L 632,163 L 630,161 L 630,160 L 629,159 L 629,157 L 626,154 L 626,152 L 622,148 L 622,147 L 620,145 L 619,145 L 617,143 L 614,143 L 613,142 L 611,142 L 610,141 L 608,141 L 603,136 L 602,136 L 601,135 L 600,135 L 597,132 L 595,132 L 594,131 L 593,131 L 591,129 L 590,129 L 589,128 L 583,128 L 582,127 L 580,127 L 579,126 L 578,126 L 573,121 L 573,118 L 572,117 L 572,114 L 571,113 L 570,113 L 569,112 L 566,112 L 565,111 L 562,111 L 561,110 L 560,110 L 559,109 L 556,109 L 554,107 L 553,107 L 552,106 L 550,106 L 549,105 L 547,105 L 546,104 L 542,104 L 541,103 L 526,103 L 525,104 L 518,104 L 517,103 L 511,103 L 509,105 L 499,105 L 498,104 L 497,104 L 496,103 L 495,103 L 494,102 L 493,102 L 492,101 L 485,101 L 484,102 L 467,102 L 466,101 L 465,101 L 464,100 Z" fill="none" stroke="black" stroke-width="1"/>
</svg>