<svg xmlns="http://www.w3.org/2000/svg" width="757" height="474">
  <path d="M 500,241 L 499,242 L 499,243 L 496,246 L 495,246 L 493,248 L 492,248 L 490,250 L 489,250 L 488,251 L 482,251 L 482,252 L 481,253 L 481,254 L 480,255 L 480,257 L 479,258 L 479,259 L 477,261 L 477,262 L 476,263 L 476,265 L 475,266 L 475,267 L 473,269 L 473,270 L 472,271 L 472,272 L 469,275 L 469,276 L 465,280 L 464,280 L 463,281 L 463,283 L 462,284 L 462,285 L 459,288 L 459,289 L 457,291 L 457,292 L 455,294 L 455,301 L 454,302 L 453,302 L 453,303 L 452,304 L 452,315 L 453,316 L 453,324 L 454,325 L 454,326 L 456,328 L 462,328 L 463,327 L 474,327 L 475,328 L 478,328 L 479,329 L 487,329 L 488,330 L 491,330 L 493,328 L 495,328 L 497,326 L 498,326 L 499,325 L 502,325 L 503,324 L 504,324 L 506,322 L 507,322 L 508,321 L 515,321 L 517,319 L 517,316 L 518,315 L 519,315 L 520,314 L 521,314 L 522,313 L 522,312 L 525,309 L 528,309 L 530,307 L 530,303 L 529,302 L 529,300 L 528,299 L 528,296 L 530,294 L 532,294 L 533,293 L 535,293 L 536,292 L 540,292 L 542,294 L 544,294 L 545,293 L 548,293 L 549,292 L 559,292 L 560,293 L 561,293 L 562,292 L 563,292 L 564,291 L 566,291 L 566,288 L 565,287 L 565,285 L 562,282 L 561,282 L 558,279 L 560,277 L 564,277 L 566,275 L 567,275 L 568,274 L 568,273 L 572,269 L 571,268 L 569,268 L 567,266 L 566,266 L 565,265 L 564,265 L 562,267 L 561,267 L 559,265 L 559,264 L 556,261 L 555,261 L 551,257 L 551,256 L 550,255 L 539,255 L 537,253 L 535,253 L 534,252 L 531,252 L 529,250 L 528,250 L 527,249 L 527,248 L 526,247 L 525,247 L 523,245 L 522,245 L 521,244 L 514,244 L 513,243 L 509,243 L 508,242 L 505,242 L 504,241 Z" fill="none" stroke="black" stroke-width="1"/>
</svg>