<svg xmlns="http://www.w3.org/2000/svg" width="757" height="474">
  <path d="M 297,263 L 292,268 L 292,269 L 291,270 L 290,270 L 286,274 L 282,274 L 281,275 L 279,275 L 278,276 L 277,276 L 276,277 L 273,277 L 272,278 L 270,278 L 269,279 L 268,279 L 268,280 L 267,281 L 266,281 L 266,282 L 265,283 L 264,283 L 263,284 L 262,284 L 262,289 L 263,290 L 263,297 L 262,298 L 261,298 L 259,300 L 259,301 L 260,302 L 260,308 L 259,309 L 259,310 L 257,312 L 257,314 L 256,315 L 255,314 L 253,314 L 252,315 L 247,315 L 246,316 L 241,316 L 239,318 L 238,318 L 232,324 L 231,324 L 226,329 L 226,331 L 225,332 L 225,339 L 227,339 L 228,340 L 228,341 L 230,341 L 231,340 L 234,340 L 235,341 L 238,341 L 239,342 L 245,342 L 246,343 L 248,343 L 249,344 L 251,342 L 252,343 L 252,344 L 253,345 L 254,345 L 255,346 L 261,346 L 262,347 L 265,347 L 266,348 L 269,348 L 270,349 L 282,349 L 283,348 L 288,348 L 289,347 L 293,347 L 294,346 L 302,346 L 303,347 L 304,347 L 305,348 L 306,348 L 307,347 L 313,347 L 314,348 L 318,348 L 320,350 L 325,350 L 326,349 L 326,348 L 327,347 L 327,346 L 329,344 L 329,343 L 330,342 L 330,341 L 335,336 L 336,336 L 338,334 L 339,334 L 340,333 L 341,333 L 343,331 L 344,331 L 345,330 L 346,330 L 350,326 L 350,325 L 351,324 L 351,323 L 352,322 L 352,316 L 351,315 L 351,308 L 352,307 L 352,300 L 351,299 L 351,297 L 348,297 L 347,298 L 345,298 L 341,294 L 341,293 L 340,294 L 339,293 L 335,293 L 334,292 L 332,292 L 331,291 L 331,290 L 330,289 L 329,289 L 328,288 L 327,288 L 327,289 L 326,290 L 325,290 L 324,291 L 323,291 L 322,292 L 321,292 L 318,295 L 316,295 L 313,292 L 313,291 L 312,291 L 310,289 L 310,288 L 307,285 L 307,284 L 306,284 L 304,282 L 304,281 L 302,279 L 302,274 L 303,273 L 302,272 L 302,271 L 301,270 L 301,267 L 300,266 L 300,264 L 299,264 L 298,263 Z" fill="none" stroke="black" stroke-width="1"/>
</svg>