<svg xmlns="http://www.w3.org/2000/svg" width="757" height="474">
  <path d="M 295,368 L 294,369 L 293,369 L 291,371 L 290,371 L 288,373 L 287,373 L 285,375 L 284,375 L 283,376 L 282,376 L 281,377 L 279,377 L 278,378 L 277,378 L 276,379 L 274,379 L 273,380 L 271,380 L 271,381 L 276,386 L 276,392 L 281,397 L 281,401 L 280,402 L 280,405 L 282,407 L 282,408 L 283,409 L 283,411 L 281,413 L 281,414 L 280,415 L 280,416 L 279,417 L 279,426 L 278,427 L 277,427 L 275,429 L 277,431 L 277,433 L 276,434 L 276,435 L 275,436 L 279,440 L 279,442 L 275,446 L 275,448 L 277,450 L 277,454 L 276,455 L 275,455 L 275,456 L 273,458 L 273,459 L 272,460 L 280,460 L 281,461 L 284,461 L 285,462 L 285,463 L 290,463 L 291,464 L 292,464 L 293,465 L 295,465 L 296,466 L 307,466 L 308,465 L 309,465 L 310,466 L 310,467 L 316,467 L 317,468 L 319,468 L 320,469 L 324,469 L 325,470 L 325,471 L 327,473 L 329,473 L 329,469 L 330,468 L 331,468 L 332,467 L 337,467 L 337,465 L 338,464 L 338,461 L 340,459 L 333,452 L 333,450 L 332,449 L 332,445 L 333,444 L 333,443 L 334,442 L 334,441 L 335,440 L 336,440 L 337,439 L 338,439 L 340,437 L 341,437 L 342,436 L 343,436 L 344,435 L 349,435 L 350,434 L 354,434 L 355,433 L 358,433 L 358,428 L 357,428 L 356,427 L 358,425 L 357,425 L 356,424 L 354,424 L 351,421 L 350,421 L 349,420 L 349,419 L 348,419 L 346,417 L 345,417 L 342,414 L 342,412 L 341,411 L 341,410 L 340,409 L 340,408 L 339,407 L 339,405 L 337,403 L 337,400 L 336,399 L 336,397 L 335,396 L 335,389 L 336,388 L 336,387 L 337,386 L 337,382 L 336,383 L 336,384 L 335,385 L 333,385 L 332,384 L 332,383 L 330,381 L 329,381 L 328,380 L 327,380 L 326,379 L 325,379 L 324,378 L 323,378 L 322,377 L 320,377 L 319,376 L 318,376 L 317,375 L 316,375 L 315,374 L 316,373 L 315,373 L 314,374 L 307,374 L 306,373 L 301,373 L 300,372 L 299,372 Z" fill="none" stroke="black" stroke-width="1"/>
</svg>