<svg xmlns="http://www.w3.org/2000/svg" width="1190" height="502">
  <path d="M 224,227 L 224,228 L 223,229 L 222,229 L 221,230 L 220,230 L 215,235 L 214,235 L 213,234 L 209,234 L 208,233 L 202,233 L 200,235 L 199,235 L 199,241 L 203,245 L 203,251 L 204,252 L 204,255 L 203,256 L 203,257 L 201,259 L 201,270 L 202,271 L 202,280 L 201,281 L 201,282 L 202,281 L 203,282 L 203,283 L 202,284 L 202,287 L 201,288 L 201,290 L 200,291 L 200,293 L 199,294 L 199,295 L 198,296 L 198,299 L 197,300 L 197,302 L 196,303 L 196,304 L 195,305 L 195,306 L 194,307 L 194,308 L 193,309 L 193,311 L 192,312 L 192,314 L 191,315 L 191,317 L 190,318 L 190,319 L 189,320 L 189,322 L 188,323 L 188,325 L 187,326 L 187,331 L 186,332 L 186,333 L 185,334 L 184,334 L 182,336 L 182,337 L 181,338 L 181,339 L 180,340 L 179,340 L 179,342 L 180,342 L 181,341 L 184,341 L 186,343 L 187,343 L 188,344 L 188,347 L 189,348 L 189,349 L 191,351 L 191,352 L 194,352 L 195,353 L 207,353 L 207,351 L 208,350 L 208,346 L 210,344 L 217,344 L 218,343 L 219,343 L 220,342 L 222,342 L 223,341 L 224,341 L 225,340 L 226,340 L 227,339 L 230,339 L 231,338 L 232,338 L 233,337 L 234,337 L 235,336 L 238,336 L 239,335 L 240,335 L 242,333 L 243,333 L 244,332 L 245,332 L 247,330 L 248,330 L 248,328 L 250,326 L 256,326 L 257,327 L 260,327 L 261,328 L 263,328 L 264,327 L 267,327 L 269,329 L 271,327 L 271,326 L 273,324 L 274,324 L 274,323 L 279,318 L 292,318 L 293,319 L 300,319 L 302,317 L 303,317 L 303,316 L 304,315 L 309,315 L 310,316 L 310,301 L 311,300 L 311,298 L 313,296 L 313,295 L 314,294 L 314,293 L 318,289 L 318,288 L 320,286 L 320,285 L 322,283 L 322,272 L 321,271 L 321,270 L 320,270 L 319,269 L 315,269 L 314,268 L 309,268 L 308,269 L 307,268 L 307,260 L 306,259 L 304,259 L 302,257 L 300,257 L 299,256 L 298,256 L 297,255 L 296,255 L 295,254 L 293,254 L 292,253 L 291,253 L 290,252 L 288,252 L 287,251 L 286,251 L 285,250 L 275,250 L 274,249 L 273,249 L 272,248 L 271,248 L 270,247 L 269,247 L 268,246 L 267,246 L 266,245 L 265,245 L 264,244 L 262,244 L 257,239 L 256,239 L 248,231 L 248,230 L 246,228 L 244,228 L 243,227 Z" fill="none" stroke="black" stroke-width="1"/>
</svg>