<svg xmlns="http://www.w3.org/2000/svg" width="757" height="474">
  <path d="M 636,102 L 634,104 L 633,104 L 630,107 L 629,107 L 627,109 L 626,109 L 625,110 L 624,110 L 622,112 L 620,112 L 619,113 L 617,113 L 617,114 L 616,115 L 615,115 L 606,124 L 604,122 L 605,121 L 604,120 L 599,120 L 597,118 L 597,116 L 594,113 L 594,112 L 588,112 L 587,113 L 586,113 L 585,114 L 583,114 L 581,116 L 577,116 L 576,117 L 573,117 L 574,118 L 574,121 L 578,125 L 579,125 L 580,126 L 582,126 L 583,127 L 589,127 L 590,128 L 591,128 L 593,130 L 594,130 L 595,131 L 597,131 L 600,134 L 601,134 L 602,135 L 603,135 L 608,140 L 610,140 L 611,141 L 613,141 L 614,142 L 617,142 L 619,144 L 620,144 L 623,147 L 623,148 L 627,152 L 627,154 L 630,157 L 630,159 L 631,160 L 631,161 L 632,162 L 634,162 L 635,161 L 636,161 L 637,160 L 641,160 L 642,159 L 642,158 L 643,157 L 644,158 L 644,160 L 645,161 L 645,167 L 646,168 L 646,174 L 647,175 L 647,176 L 648,177 L 648,178 L 650,180 L 651,180 L 654,183 L 655,183 L 656,184 L 657,184 L 658,185 L 659,185 L 662,188 L 663,187 L 666,187 L 667,186 L 669,186 L 670,185 L 671,185 L 672,184 L 673,184 L 674,183 L 684,183 L 685,182 L 687,182 L 688,183 L 689,183 L 691,185 L 692,185 L 694,187 L 695,187 L 696,188 L 698,186 L 700,186 L 701,185 L 702,185 L 703,184 L 707,184 L 709,182 L 710,182 L 711,181 L 713,181 L 714,180 L 717,180 L 718,179 L 719,180 L 721,180 L 722,181 L 723,181 L 724,182 L 725,182 L 726,183 L 728,183 L 729,184 L 729,185 L 730,185 L 731,184 L 732,184 L 733,183 L 734,183 L 735,182 L 738,182 L 739,181 L 741,181 L 744,178 L 744,177 L 745,176 L 745,163 L 746,162 L 746,159 L 747,158 L 747,156 L 748,155 L 748,154 L 749,153 L 749,151 L 750,150 L 750,148 L 751,147 L 752,147 L 753,146 L 753,144 L 754,143 L 754,142 L 755,141 L 755,140 L 756,139 L 756,135 L 755,134 L 755,131 L 754,130 L 754,128 L 753,127 L 753,126 L 752,125 L 752,124 L 750,122 L 750,120 L 749,119 L 749,116 L 748,115 L 748,109 L 749,108 L 750,108 L 749,108 L 748,107 L 745,107 L 744,106 L 743,106 L 742,105 L 737,105 L 736,104 L 733,104 L 732,103 L 729,103 L 729,104 L 728,105 L 728,108 L 727,109 L 727,110 L 725,112 L 723,112 L 722,113 L 705,113 L 704,112 L 701,112 L 700,111 L 696,111 L 695,110 L 692,110 L 691,109 L 687,109 L 686,108 L 683,108 L 682,107 L 676,107 L 675,106 L 671,106 L 670,105 L 660,105 L 659,104 L 652,104 L 651,103 L 641,103 L 640,102 Z" fill="none" stroke="black" stroke-width="1"/>
</svg>