<svg xmlns="http://www.w3.org/2000/svg" width="1190" height="502">
  <path d="M 121,117 L 119,119 L 113,119 L 112,120 L 111,120 L 108,123 L 107,123 L 106,124 L 102,124 L 101,125 L 100,125 L 99,126 L 98,126 L 99,127 L 98,128 L 97,128 L 97,134 L 98,135 L 98,138 L 99,139 L 99,141 L 101,143 L 101,144 L 102,145 L 102,146 L 103,147 L 103,149 L 104,150 L 104,153 L 105,154 L 105,158 L 104,159 L 104,160 L 103,161 L 103,162 L 102,163 L 102,165 L 100,167 L 99,167 L 99,169 L 98,170 L 98,172 L 97,173 L 97,174 L 96,175 L 96,177 L 95,178 L 95,181 L 94,182 L 94,195 L 93,196 L 93,197 L 91,199 L 92,200 L 93,200 L 94,201 L 96,201 L 97,202 L 98,202 L 99,203 L 101,203 L 102,204 L 109,204 L 110,205 L 111,205 L 112,206 L 114,206 L 115,207 L 116,207 L 117,206 L 120,206 L 121,207 L 122,207 L 123,208 L 125,208 L 126,209 L 130,209 L 131,210 L 132,210 L 133,211 L 133,212 L 134,213 L 137,213 L 138,214 L 138,215 L 140,215 L 142,217 L 143,217 L 144,218 L 145,218 L 146,219 L 149,219 L 150,220 L 154,220 L 155,221 L 158,221 L 159,222 L 163,222 L 164,223 L 167,223 L 168,224 L 172,224 L 173,225 L 176,225 L 177,224 L 178,225 L 179,225 L 180,224 L 180,223 L 179,222 L 178,222 L 177,221 L 177,219 L 178,218 L 178,217 L 179,216 L 179,215 L 181,213 L 181,212 L 182,211 L 184,211 L 187,208 L 189,208 L 190,207 L 192,207 L 193,206 L 203,206 L 204,205 L 205,205 L 206,204 L 208,204 L 209,203 L 209,202 L 213,198 L 213,197 L 214,196 L 215,196 L 225,186 L 226,186 L 227,185 L 229,185 L 230,184 L 238,184 L 239,183 L 241,183 L 242,182 L 253,182 L 258,177 L 259,177 L 261,175 L 264,175 L 265,174 L 266,174 L 266,173 L 267,172 L 268,172 L 277,163 L 278,163 L 279,162 L 276,162 L 274,160 L 274,159 L 273,158 L 272,158 L 271,157 L 270,157 L 269,156 L 267,156 L 264,153 L 264,152 L 263,152 L 259,148 L 254,148 L 253,147 L 251,147 L 250,146 L 249,146 L 248,145 L 247,145 L 245,143 L 243,143 L 242,144 L 240,144 L 239,143 L 233,143 L 232,142 L 231,142 L 230,141 L 227,141 L 226,140 L 225,140 L 224,139 L 224,138 L 223,138 L 222,137 L 222,136 L 219,133 L 219,131 L 218,130 L 217,130 L 216,129 L 214,129 L 213,128 L 212,128 L 211,127 L 206,127 L 204,125 L 200,125 L 199,126 L 194,126 L 193,125 L 190,125 L 189,124 L 184,124 L 183,123 L 176,123 L 175,122 L 170,122 L 169,121 L 166,121 L 165,120 L 157,120 L 156,119 L 126,119 L 125,118 L 124,118 L 123,117 Z" fill="none" stroke="black" stroke-width="1"/>
</svg>