<svg xmlns="http://www.w3.org/2000/svg" width="1190" height="502">
  <path d="M 416,128 L 415,129 L 413,129 L 412,130 L 408,130 L 407,131 L 406,131 L 405,132 L 401,132 L 400,133 L 396,133 L 395,132 L 392,132 L 390,134 L 389,134 L 387,136 L 385,136 L 384,137 L 382,137 L 381,138 L 377,138 L 372,143 L 371,143 L 369,145 L 368,145 L 366,147 L 357,147 L 354,150 L 353,150 L 352,151 L 351,151 L 350,152 L 349,152 L 348,153 L 343,153 L 342,154 L 341,154 L 340,155 L 339,155 L 338,156 L 337,156 L 336,157 L 335,157 L 333,159 L 331,159 L 329,161 L 327,161 L 328,162 L 328,167 L 332,171 L 333,171 L 334,172 L 335,171 L 336,172 L 336,173 L 339,173 L 341,175 L 342,175 L 343,176 L 344,176 L 346,178 L 347,178 L 348,179 L 349,179 L 352,182 L 352,183 L 354,185 L 354,186 L 355,187 L 355,188 L 357,190 L 357,191 L 359,193 L 361,193 L 362,194 L 365,194 L 366,195 L 367,195 L 369,197 L 371,197 L 374,200 L 375,200 L 379,204 L 379,205 L 380,206 L 382,206 L 383,207 L 383,208 L 384,208 L 386,210 L 387,210 L 389,212 L 390,212 L 392,214 L 393,214 L 394,215 L 396,215 L 397,216 L 397,217 L 398,217 L 399,218 L 404,218 L 407,221 L 407,222 L 410,225 L 410,227 L 408,229 L 412,233 L 415,233 L 416,234 L 416,236 L 417,237 L 417,238 L 418,239 L 419,239 L 420,240 L 421,240 L 422,241 L 423,241 L 424,242 L 424,243 L 425,243 L 426,244 L 425,245 L 426,246 L 426,245 L 428,243 L 429,243 L 431,241 L 432,241 L 433,242 L 434,241 L 437,241 L 438,240 L 439,241 L 440,240 L 443,240 L 444,239 L 445,240 L 446,239 L 449,239 L 450,238 L 451,239 L 452,239 L 453,238 L 455,238 L 456,239 L 460,239 L 461,240 L 464,240 L 465,241 L 468,241 L 469,240 L 470,241 L 471,241 L 472,240 L 473,240 L 475,238 L 476,238 L 477,237 L 479,237 L 480,236 L 481,236 L 482,235 L 484,235 L 485,234 L 486,235 L 487,235 L 488,234 L 492,234 L 493,233 L 494,233 L 495,232 L 496,232 L 497,231 L 501,231 L 501,229 L 504,226 L 505,226 L 506,225 L 512,225 L 513,224 L 514,224 L 515,225 L 516,224 L 518,224 L 519,223 L 520,223 L 521,224 L 522,224 L 522,223 L 521,223 L 520,222 L 520,221 L 519,220 L 519,219 L 516,216 L 516,215 L 515,215 L 514,214 L 513,214 L 512,213 L 511,213 L 510,212 L 509,212 L 505,208 L 505,207 L 504,206 L 504,205 L 503,204 L 503,203 L 502,203 L 501,202 L 501,201 L 500,201 L 499,200 L 499,199 L 496,196 L 496,195 L 495,195 L 494,194 L 494,193 L 492,191 L 489,191 L 488,190 L 487,190 L 485,188 L 484,188 L 483,187 L 482,187 L 480,185 L 479,185 L 478,184 L 478,179 L 477,178 L 477,176 L 476,175 L 476,174 L 475,173 L 475,171 L 469,165 L 469,164 L 468,164 L 467,163 L 466,163 L 464,161 L 462,161 L 461,160 L 461,159 L 460,158 L 460,155 L 459,154 L 459,152 L 458,151 L 458,150 L 457,149 L 457,147 L 456,146 L 456,145 L 455,144 L 455,142 L 453,140 L 453,139 L 452,138 L 447,138 L 446,139 L 444,139 L 443,140 L 442,139 L 438,139 L 437,138 L 435,138 L 434,137 L 434,134 L 433,133 L 433,132 L 431,130 L 429,130 L 428,129 L 424,129 L 423,128 Z" fill="none" stroke="black" stroke-width="1"/>
</svg>