<svg xmlns="http://www.w3.org/2000/svg" width="1190" height="502">
  <path d="M 635,0 L 635,1 L 633,3 L 632,3 L 632,4 L 631,5 L 630,5 L 630,11 L 629,12 L 628,12 L 628,14 L 627,15 L 626,14 L 626,16 L 625,17 L 624,17 L 624,19 L 623,20 L 623,26 L 622,27 L 622,31 L 621,32 L 620,32 L 620,33 L 619,34 L 618,34 L 616,36 L 615,36 L 614,37 L 613,37 L 613,39 L 612,40 L 611,40 L 611,46 L 610,47 L 610,51 L 609,52 L 609,56 L 608,57 L 608,61 L 607,62 L 606,62 L 606,63 L 607,63 L 608,62 L 622,62 L 623,63 L 626,63 L 628,65 L 629,65 L 630,66 L 630,67 L 634,71 L 634,72 L 635,72 L 636,73 L 636,74 L 641,79 L 641,80 L 642,80 L 648,86 L 649,86 L 651,88 L 652,88 L 654,90 L 655,90 L 657,92 L 658,92 L 661,95 L 662,95 L 663,96 L 667,96 L 669,98 L 670,98 L 671,99 L 672,99 L 673,100 L 673,101 L 674,102 L 674,108 L 675,109 L 675,111 L 676,112 L 676,113 L 678,115 L 680,115 L 681,116 L 682,116 L 684,118 L 688,118 L 689,119 L 691,119 L 695,123 L 696,123 L 699,126 L 699,127 L 700,127 L 701,128 L 701,129 L 702,129 L 703,130 L 704,130 L 707,133 L 708,133 L 709,134 L 710,134 L 711,135 L 713,135 L 714,136 L 716,136 L 717,137 L 719,137 L 720,138 L 721,138 L 722,139 L 723,139 L 724,140 L 731,140 L 732,139 L 733,139 L 735,141 L 736,141 L 737,142 L 737,143 L 738,143 L 739,144 L 739,145 L 744,145 L 745,146 L 746,145 L 748,145 L 749,146 L 750,146 L 751,145 L 752,145 L 753,144 L 755,144 L 757,142 L 759,142 L 758,141 L 759,140 L 759,139 L 760,138 L 761,138 L 761,137 L 762,136 L 763,136 L 765,134 L 766,134 L 767,133 L 768,133 L 769,132 L 770,132 L 771,131 L 774,131 L 774,130 L 775,129 L 773,127 L 773,126 L 772,125 L 772,124 L 768,120 L 768,119 L 767,118 L 767,117 L 765,117 L 763,115 L 762,115 L 760,113 L 760,111 L 759,110 L 759,109 L 758,108 L 758,107 L 757,106 L 757,104 L 756,103 L 756,88 L 757,87 L 756,86 L 756,84 L 757,83 L 757,71 L 756,70 L 756,69 L 755,68 L 755,66 L 754,65 L 753,65 L 752,64 L 753,63 L 753,61 L 754,60 L 750,56 L 750,55 L 749,54 L 749,52 L 748,51 L 748,50 L 747,49 L 747,47 L 742,42 L 739,42 L 738,41 L 738,40 L 735,37 L 734,37 L 733,36 L 733,35 L 732,34 L 732,33 L 731,32 L 731,26 L 729,24 L 729,22 L 727,22 L 726,21 L 726,20 L 724,20 L 723,19 L 724,18 L 722,18 L 721,17 L 721,16 L 719,16 L 718,15 L 718,14 L 713,14 L 712,13 L 708,13 L 707,12 L 703,12 L 702,11 L 698,11 L 697,10 L 692,10 L 691,9 L 687,9 L 686,8 L 682,8 L 681,7 L 676,7 L 675,6 L 671,6 L 670,5 L 665,5 L 664,4 L 660,4 L 659,3 L 655,3 L 654,2 L 650,2 L 649,1 L 644,1 L 643,0 L 639,0 L 638,1 L 636,1 Z" fill="none" stroke="black" stroke-width="1"/>
</svg>