<svg xmlns="http://www.w3.org/2000/svg" width="1190" height="502">
  <path d="M 1156,17 L 1155,18 L 1154,18 L 1152,20 L 1151,20 L 1148,23 L 1148,25 L 1147,26 L 1147,27 L 1146,28 L 1145,28 L 1144,27 L 1144,26 L 1142,28 L 1142,29 L 1139,32 L 1139,33 L 1138,34 L 1138,35 L 1137,36 L 1135,34 L 1135,30 L 1139,26 L 1139,25 L 1138,26 L 1136,26 L 1134,28 L 1134,29 L 1133,30 L 1133,31 L 1129,35 L 1129,36 L 1127,38 L 1125,38 L 1122,41 L 1121,41 L 1120,42 L 1119,42 L 1117,44 L 1115,44 L 1113,46 L 1108,46 L 1107,47 L 1103,47 L 1102,48 L 1095,48 L 1094,49 L 1091,49 L 1090,50 L 1088,50 L 1087,51 L 1086,51 L 1085,52 L 1084,52 L 1083,53 L 1082,53 L 1081,54 L 1079,54 L 1078,55 L 1076,55 L 1074,57 L 1072,57 L 1070,59 L 1053,59 L 1053,61 L 1054,62 L 1054,66 L 1053,67 L 1053,68 L 1052,69 L 1052,71 L 1051,72 L 1051,73 L 1050,74 L 1050,76 L 1049,77 L 1049,79 L 1048,80 L 1048,81 L 1047,82 L 1047,84 L 1046,85 L 1046,86 L 1045,87 L 1045,89 L 1044,90 L 1044,91 L 1043,92 L 1043,94 L 1042,95 L 1042,101 L 1041,102 L 1041,103 L 1040,104 L 1039,104 L 1037,106 L 1036,106 L 1035,107 L 1035,108 L 1034,109 L 1033,109 L 1032,110 L 1031,110 L 1029,112 L 1029,113 L 1028,114 L 1027,114 L 1025,116 L 1025,118 L 1024,119 L 1023,119 L 1021,121 L 1020,121 L 1020,122 L 1019,123 L 1018,122 L 1018,124 L 1017,125 L 1016,125 L 1016,126 L 1011,131 L 1011,132 L 1010,133 L 1009,133 L 1009,134 L 1008,135 L 1007,135 L 1007,136 L 1006,137 L 1005,137 L 1005,138 L 1004,139 L 1003,139 L 1002,140 L 1001,140 L 999,142 L 998,142 L 996,144 L 995,144 L 995,145 L 992,148 L 992,150 L 991,151 L 991,152 L 990,153 L 989,153 L 989,154 L 988,155 L 987,155 L 986,156 L 985,155 L 982,158 L 981,158 L 981,159 L 980,160 L 980,161 L 979,162 L 980,162 L 982,164 L 981,165 L 982,166 L 981,167 L 981,169 L 980,170 L 980,177 L 981,178 L 981,180 L 982,181 L 982,182 L 983,183 L 983,184 L 986,187 L 986,188 L 987,189 L 987,190 L 990,193 L 990,194 L 991,195 L 991,200 L 990,201 L 990,208 L 991,209 L 991,211 L 992,212 L 992,213 L 993,214 L 993,215 L 994,216 L 994,218 L 995,219 L 995,220 L 996,221 L 996,222 L 998,220 L 999,220 L 1002,217 L 1003,217 L 1004,216 L 1005,216 L 1008,213 L 1009,213 L 1010,212 L 1011,212 L 1012,211 L 1017,211 L 1018,210 L 1020,210 L 1021,209 L 1022,209 L 1023,208 L 1024,208 L 1026,206 L 1027,206 L 1028,207 L 1028,208 L 1032,208 L 1034,210 L 1034,212 L 1035,213 L 1035,214 L 1037,216 L 1039,216 L 1040,217 L 1040,218 L 1042,218 L 1045,215 L 1045,208 L 1047,206 L 1048,206 L 1048,203 L 1049,202 L 1050,202 L 1051,201 L 1051,200 L 1054,197 L 1055,197 L 1056,196 L 1057,196 L 1057,195 L 1060,192 L 1060,191 L 1063,188 L 1064,188 L 1064,186 L 1066,184 L 1068,184 L 1069,183 L 1069,180 L 1070,179 L 1071,180 L 1071,182 L 1072,181 L 1072,180 L 1074,178 L 1073,177 L 1072,177 L 1071,176 L 1072,175 L 1074,175 L 1075,176 L 1076,175 L 1077,175 L 1077,174 L 1078,173 L 1077,173 L 1076,172 L 1076,170 L 1077,169 L 1080,169 L 1081,168 L 1081,167 L 1082,166 L 1082,165 L 1083,164 L 1085,164 L 1086,163 L 1085,162 L 1083,162 L 1082,161 L 1085,158 L 1086,159 L 1089,159 L 1090,158 L 1090,157 L 1091,156 L 1091,154 L 1093,152 L 1094,152 L 1094,149 L 1095,148 L 1095,146 L 1096,145 L 1101,145 L 1102,144 L 1102,143 L 1103,142 L 1103,140 L 1105,138 L 1107,138 L 1108,137 L 1110,137 L 1114,133 L 1112,131 L 1113,130 L 1114,130 L 1115,131 L 1117,129 L 1117,128 L 1118,127 L 1119,127 L 1123,123 L 1123,122 L 1125,120 L 1125,119 L 1126,118 L 1127,118 L 1128,117 L 1128,116 L 1129,115 L 1130,115 L 1130,114 L 1132,112 L 1133,112 L 1140,105 L 1140,104 L 1141,103 L 1141,102 L 1143,100 L 1143,98 L 1145,96 L 1147,96 L 1147,95 L 1148,94 L 1149,94 L 1150,93 L 1150,91 L 1149,91 L 1148,90 L 1148,89 L 1149,88 L 1149,84 L 1150,83 L 1151,83 L 1152,84 L 1154,82 L 1154,81 L 1155,80 L 1157,80 L 1158,81 L 1157,82 L 1157,84 L 1156,85 L 1155,85 L 1155,89 L 1156,89 L 1157,88 L 1158,88 L 1160,86 L 1161,86 L 1162,85 L 1164,85 L 1165,84 L 1170,84 L 1171,83 L 1174,83 L 1175,82 L 1183,82 L 1183,75 L 1184,74 L 1186,74 L 1186,73 L 1187,72 L 1187,70 L 1188,69 L 1188,65 L 1189,64 L 1188,63 L 1188,60 L 1187,60 L 1186,61 L 1185,60 L 1185,59 L 1184,58 L 1184,57 L 1185,56 L 1185,55 L 1186,54 L 1187,54 L 1187,51 L 1186,50 L 1182,50 L 1181,51 L 1172,51 L 1171,50 L 1173,48 L 1175,48 L 1176,47 L 1176,44 L 1174,44 L 1173,45 L 1173,47 L 1171,49 L 1169,47 L 1170,46 L 1170,45 L 1171,44 L 1171,43 L 1172,42 L 1173,42 L 1175,40 L 1177,40 L 1177,37 L 1176,36 L 1176,32 L 1175,31 L 1174,31 L 1173,32 L 1172,32 L 1171,31 L 1171,30 L 1172,29 L 1172,24 L 1171,23 L 1171,22 L 1170,21 L 1169,21 L 1169,23 L 1167,25 L 1167,26 L 1168,27 L 1167,28 L 1166,28 L 1165,29 L 1163,29 L 1162,28 L 1161,29 L 1159,27 L 1158,27 L 1155,24 L 1155,20 L 1156,19 Z" fill="none" stroke="black" stroke-width="1"/>
</svg>