<svg xmlns="http://www.w3.org/2000/svg" width="404" height="430">
  <path d="M 308,289 L 307,290 L 306,290 L 305,291 L 304,291 L 303,292 L 302,292 L 301,293 L 294,293 L 293,294 L 292,294 L 291,295 L 290,295 L 288,297 L 282,297 L 282,305 L 283,306 L 283,308 L 284,309 L 284,310 L 285,311 L 285,314 L 286,314 L 287,315 L 287,318 L 288,319 L 288,321 L 290,323 L 291,323 L 292,324 L 292,328 L 290,330 L 290,332 L 289,333 L 289,336 L 288,337 L 288,338 L 285,341 L 285,342 L 284,343 L 284,344 L 282,346 L 282,350 L 283,350 L 284,351 L 290,351 L 294,355 L 294,357 L 295,358 L 296,358 L 297,359 L 298,359 L 300,361 L 301,361 L 302,362 L 304,362 L 305,363 L 308,363 L 309,364 L 310,364 L 311,365 L 311,366 L 312,367 L 312,368 L 319,368 L 319,367 L 320,366 L 323,366 L 324,365 L 326,365 L 328,363 L 328,362 L 330,360 L 331,360 L 333,358 L 334,358 L 335,357 L 336,357 L 341,352 L 341,351 L 343,349 L 345,349 L 347,347 L 347,344 L 348,343 L 348,342 L 347,342 L 346,341 L 346,335 L 347,334 L 347,331 L 346,331 L 345,330 L 340,330 L 339,329 L 336,329 L 335,328 L 335,327 L 332,324 L 332,323 L 331,322 L 332,321 L 332,314 L 328,310 L 327,310 L 326,309 L 326,308 L 325,307 L 325,306 L 324,305 L 324,303 L 323,302 L 323,299 L 322,298 L 322,296 L 321,295 L 321,292 L 318,289 Z" fill="none" stroke="black" stroke-width="1"/>
</svg>