<svg xmlns="http://www.w3.org/2000/svg" width="757" height="474">
  <path d="M 666,274 L 666,275 L 665,276 L 664,276 L 662,278 L 662,279 L 661,280 L 661,281 L 660,282 L 660,283 L 658,285 L 657,285 L 656,286 L 655,286 L 652,289 L 651,289 L 650,290 L 648,290 L 647,291 L 646,291 L 645,292 L 643,292 L 641,294 L 639,294 L 638,295 L 636,295 L 635,296 L 636,297 L 636,298 L 637,299 L 637,300 L 638,300 L 639,301 L 638,302 L 638,303 L 640,305 L 640,306 L 642,308 L 642,311 L 643,312 L 641,314 L 640,314 L 640,316 L 641,317 L 641,318 L 639,320 L 639,321 L 637,323 L 636,323 L 635,324 L 634,324 L 632,326 L 630,326 L 629,325 L 626,325 L 626,327 L 629,330 L 628,331 L 629,332 L 629,333 L 630,334 L 630,340 L 632,342 L 632,343 L 633,343 L 634,344 L 633,345 L 633,346 L 632,347 L 631,347 L 631,348 L 630,349 L 630,350 L 629,351 L 628,351 L 628,352 L 627,353 L 627,355 L 626,356 L 625,356 L 625,357 L 624,358 L 624,359 L 623,360 L 623,364 L 622,365 L 622,368 L 623,369 L 624,369 L 626,367 L 627,367 L 629,369 L 629,371 L 632,371 L 633,372 L 639,372 L 640,373 L 642,373 L 643,374 L 647,374 L 648,375 L 654,375 L 655,374 L 658,374 L 659,373 L 660,373 L 661,372 L 663,372 L 664,371 L 666,371 L 667,370 L 668,370 L 669,369 L 669,364 L 670,363 L 670,362 L 668,360 L 668,357 L 669,356 L 670,356 L 672,354 L 672,352 L 673,351 L 674,351 L 675,350 L 678,350 L 678,349 L 679,348 L 679,347 L 683,343 L 683,342 L 685,340 L 688,340 L 689,339 L 689,338 L 690,337 L 691,337 L 691,336 L 692,335 L 693,335 L 694,334 L 700,334 L 701,335 L 702,334 L 703,334 L 704,333 L 705,333 L 707,331 L 709,331 L 710,332 L 711,332 L 712,333 L 716,333 L 716,331 L 715,330 L 715,329 L 713,327 L 713,326 L 712,325 L 712,322 L 711,322 L 710,321 L 710,317 L 711,316 L 711,315 L 714,312 L 714,311 L 715,310 L 715,309 L 716,308 L 716,307 L 718,305 L 718,304 L 720,302 L 720,301 L 722,299 L 722,295 L 723,294 L 723,288 L 724,287 L 724,283 L 725,282 L 725,279 L 721,279 L 720,280 L 709,280 L 708,281 L 707,280 L 706,280 L 704,278 L 703,278 L 702,277 L 696,277 L 695,276 L 683,276 L 682,275 L 673,275 L 672,274 Z" fill="none" stroke="black" stroke-width="1"/>
</svg>