<svg xmlns="http://www.w3.org/2000/svg" width="757" height="474">
  <path d="M 564,292 L 563,293 L 562,293 L 561,294 L 560,294 L 559,293 L 549,293 L 548,294 L 545,294 L 544,295 L 542,295 L 540,293 L 536,293 L 535,294 L 533,294 L 532,295 L 530,295 L 529,296 L 529,299 L 530,300 L 530,302 L 531,303 L 531,307 L 528,310 L 525,310 L 523,312 L 523,313 L 521,315 L 520,315 L 519,316 L 518,316 L 518,319 L 515,322 L 508,322 L 507,323 L 506,323 L 504,325 L 503,325 L 502,326 L 499,326 L 498,327 L 497,327 L 495,329 L 493,329 L 491,331 L 488,331 L 487,330 L 479,330 L 478,329 L 475,329 L 474,328 L 463,328 L 462,329 L 458,329 L 457,330 L 457,332 L 456,333 L 456,334 L 455,335 L 455,336 L 456,337 L 456,338 L 457,338 L 458,339 L 459,339 L 460,340 L 461,340 L 463,342 L 469,342 L 470,343 L 470,344 L 471,344 L 472,345 L 477,345 L 478,346 L 482,346 L 483,347 L 490,347 L 494,351 L 494,352 L 496,354 L 497,354 L 498,355 L 500,355 L 504,359 L 504,366 L 506,366 L 507,367 L 508,367 L 509,368 L 510,368 L 512,370 L 512,372 L 515,375 L 515,377 L 516,376 L 518,376 L 519,375 L 529,375 L 530,374 L 536,374 L 537,373 L 537,365 L 539,363 L 540,363 L 541,362 L 543,362 L 544,361 L 545,361 L 546,360 L 550,360 L 551,361 L 552,361 L 553,360 L 556,360 L 557,359 L 558,359 L 556,357 L 556,355 L 559,352 L 559,350 L 557,350 L 556,349 L 556,348 L 555,348 L 554,347 L 554,332 L 553,331 L 553,330 L 552,329 L 552,328 L 551,327 L 551,321 L 555,317 L 555,312 L 554,311 L 555,310 L 555,309 L 556,308 L 557,308 L 558,307 L 560,307 L 562,305 L 562,304 L 564,302 L 564,294 L 565,293 L 565,292 Z" fill="none" stroke="black" stroke-width="1"/>
</svg>