<svg xmlns="http://www.w3.org/2000/svg" width="404" height="430">
  <path d="M 247,272 L 247,273 L 245,275 L 245,276 L 244,277 L 244,283 L 243,284 L 243,287 L 242,288 L 241,288 L 240,289 L 239,289 L 238,290 L 237,290 L 236,291 L 235,291 L 234,292 L 233,292 L 231,294 L 231,295 L 229,297 L 228,297 L 227,298 L 226,298 L 225,299 L 223,299 L 222,300 L 217,300 L 216,301 L 216,302 L 218,302 L 219,303 L 221,303 L 222,304 L 222,305 L 223,306 L 223,307 L 224,308 L 224,313 L 225,314 L 225,315 L 226,316 L 226,317 L 227,318 L 227,319 L 228,320 L 228,323 L 229,324 L 229,328 L 230,329 L 230,338 L 231,339 L 231,341 L 232,342 L 232,343 L 234,345 L 237,345 L 238,346 L 240,346 L 241,347 L 249,347 L 250,346 L 252,346 L 253,345 L 255,345 L 256,346 L 257,346 L 258,347 L 259,347 L 260,348 L 261,348 L 262,349 L 265,349 L 266,350 L 270,350 L 271,351 L 271,352 L 272,353 L 273,353 L 275,351 L 276,351 L 277,350 L 281,350 L 281,346 L 283,344 L 283,343 L 284,342 L 284,341 L 287,338 L 287,337 L 288,336 L 288,333 L 289,332 L 289,330 L 291,328 L 291,324 L 290,324 L 287,321 L 287,319 L 286,318 L 286,315 L 285,315 L 284,314 L 284,311 L 283,310 L 283,309 L 282,308 L 282,306 L 281,305 L 281,297 L 277,297 L 276,296 L 274,296 L 271,293 L 269,293 L 266,290 L 266,289 L 265,288 L 265,286 L 264,286 L 263,285 L 264,284 L 263,283 L 262,283 L 260,281 L 257,281 L 255,279 L 254,279 L 253,278 L 252,278 L 250,276 L 250,275 L 249,274 L 249,273 L 248,272 Z" fill="none" stroke="black" stroke-width="1"/>
</svg>