<svg xmlns="http://www.w3.org/2000/svg" width="757" height="474">
  <path d="M 276,27 L 274,29 L 270,29 L 269,30 L 267,30 L 266,31 L 263,31 L 262,32 L 259,32 L 258,31 L 256,31 L 255,32 L 253,32 L 253,34 L 254,35 L 254,37 L 253,38 L 254,39 L 254,40 L 256,40 L 257,41 L 257,44 L 260,47 L 260,48 L 259,49 L 253,49 L 250,52 L 250,54 L 249,55 L 249,61 L 250,61 L 251,62 L 252,62 L 253,61 L 254,61 L 255,62 L 257,62 L 259,64 L 260,64 L 261,63 L 266,63 L 267,64 L 266,65 L 265,65 L 267,65 L 268,66 L 267,67 L 253,67 L 250,64 L 247,64 L 246,63 L 245,63 L 242,60 L 243,59 L 245,59 L 245,57 L 244,56 L 244,54 L 245,53 L 245,52 L 246,51 L 246,49 L 245,49 L 244,48 L 244,46 L 246,44 L 246,41 L 244,39 L 243,39 L 241,37 L 240,37 L 239,36 L 238,36 L 237,35 L 236,35 L 235,34 L 235,33 L 236,32 L 236,30 L 235,29 L 225,29 L 224,30 L 222,30 L 221,31 L 216,31 L 215,32 L 212,32 L 211,33 L 209,33 L 208,34 L 205,34 L 203,36 L 202,36 L 202,42 L 201,43 L 201,45 L 203,47 L 204,47 L 205,48 L 205,49 L 206,50 L 206,51 L 207,52 L 207,55 L 208,56 L 208,60 L 207,61 L 207,63 L 205,65 L 204,65 L 202,67 L 201,67 L 199,69 L 198,69 L 194,73 L 194,80 L 193,81 L 193,82 L 192,83 L 191,83 L 190,84 L 189,84 L 188,85 L 188,86 L 187,87 L 183,87 L 182,88 L 180,88 L 179,89 L 179,90 L 178,91 L 174,91 L 173,92 L 171,92 L 169,94 L 169,95 L 170,96 L 170,98 L 171,99 L 170,100 L 171,101 L 171,102 L 172,103 L 172,105 L 173,106 L 173,111 L 174,112 L 174,118 L 175,119 L 175,120 L 176,121 L 179,121 L 180,120 L 182,120 L 183,119 L 186,119 L 187,118 L 190,118 L 191,117 L 195,117 L 196,116 L 200,116 L 201,115 L 207,115 L 208,114 L 220,114 L 221,115 L 228,115 L 229,116 L 233,116 L 234,117 L 238,117 L 239,118 L 242,118 L 243,119 L 246,119 L 247,120 L 251,120 L 252,121 L 256,121 L 257,122 L 261,122 L 262,123 L 268,123 L 269,124 L 286,124 L 287,123 L 294,123 L 295,122 L 300,122 L 301,121 L 305,121 L 306,120 L 310,120 L 311,119 L 314,119 L 315,118 L 319,118 L 320,117 L 323,117 L 324,116 L 327,116 L 327,115 L 328,114 L 328,113 L 331,110 L 331,108 L 332,107 L 332,100 L 330,98 L 330,97 L 327,94 L 327,89 L 326,88 L 326,83 L 325,82 L 325,70 L 326,69 L 326,60 L 328,58 L 328,57 L 330,55 L 331,55 L 331,54 L 332,53 L 333,53 L 334,52 L 335,52 L 336,53 L 336,46 L 337,45 L 337,44 L 338,43 L 338,38 L 337,37 L 335,37 L 334,36 L 332,36 L 331,35 L 331,34 L 330,33 L 314,33 L 313,32 L 312,32 L 311,31 L 308,31 L 307,30 L 305,30 L 304,29 L 303,29 L 302,28 L 295,28 L 294,27 Z" fill="none" stroke="black" stroke-width="1"/>
</svg>