<svg xmlns="http://www.w3.org/2000/svg" width="1190" height="502">
  <path d="M 275,324 L 274,325 L 273,325 L 272,326 L 272,327 L 269,330 L 267,328 L 264,328 L 263,329 L 261,329 L 260,328 L 257,328 L 256,327 L 250,327 L 249,328 L 249,330 L 248,331 L 247,331 L 245,333 L 244,333 L 243,334 L 242,334 L 240,336 L 239,336 L 238,337 L 235,337 L 234,338 L 233,338 L 232,339 L 231,339 L 230,340 L 227,340 L 226,341 L 225,341 L 224,342 L 223,342 L 222,343 L 220,343 L 219,344 L 218,344 L 217,345 L 210,345 L 209,346 L 209,350 L 208,351 L 208,353 L 207,354 L 195,354 L 194,353 L 191,353 L 190,352 L 190,351 L 188,349 L 188,348 L 187,347 L 187,344 L 186,344 L 184,342 L 181,342 L 180,343 L 177,343 L 177,350 L 178,351 L 178,353 L 179,354 L 179,356 L 178,357 L 178,361 L 180,363 L 180,364 L 182,366 L 182,371 L 184,373 L 184,375 L 185,376 L 185,378 L 186,378 L 187,379 L 187,383 L 186,384 L 186,385 L 185,386 L 185,390 L 186,391 L 186,392 L 187,392 L 188,393 L 193,393 L 194,394 L 197,394 L 198,393 L 205,393 L 206,394 L 208,394 L 209,395 L 211,395 L 212,396 L 212,398 L 211,399 L 210,399 L 211,399 L 212,400 L 212,401 L 211,402 L 210,402 L 209,403 L 209,404 L 208,405 L 208,406 L 206,408 L 205,408 L 204,409 L 204,411 L 203,412 L 202,412 L 202,414 L 200,416 L 198,416 L 196,418 L 196,419 L 195,420 L 192,420 L 191,421 L 190,421 L 189,422 L 186,422 L 185,423 L 186,424 L 187,424 L 188,425 L 187,426 L 183,426 L 181,428 L 177,428 L 177,429 L 176,430 L 176,433 L 175,434 L 172,434 L 168,438 L 167,438 L 166,439 L 165,439 L 162,442 L 160,442 L 159,443 L 159,448 L 160,447 L 161,448 L 161,449 L 162,450 L 162,453 L 163,453 L 165,455 L 166,455 L 167,456 L 175,456 L 175,455 L 176,454 L 177,454 L 178,453 L 190,453 L 191,452 L 192,452 L 193,453 L 194,452 L 195,452 L 196,453 L 197,453 L 198,454 L 199,453 L 200,453 L 202,451 L 205,451 L 206,452 L 207,452 L 209,450 L 213,450 L 214,449 L 215,449 L 217,447 L 219,447 L 220,446 L 223,446 L 224,445 L 225,445 L 226,444 L 229,444 L 230,443 L 231,443 L 232,442 L 237,442 L 237,439 L 238,438 L 239,438 L 239,433 L 241,431 L 242,431 L 243,430 L 245,430 L 246,429 L 247,429 L 244,426 L 244,423 L 245,422 L 245,421 L 248,418 L 248,417 L 249,416 L 249,412 L 250,411 L 250,409 L 251,408 L 254,408 L 255,409 L 260,409 L 262,407 L 264,407 L 265,406 L 266,406 L 267,405 L 268,405 L 269,404 L 270,404 L 273,401 L 274,401 L 275,400 L 276,400 L 278,398 L 280,398 L 283,401 L 286,401 L 288,399 L 290,399 L 291,398 L 292,398 L 293,397 L 295,397 L 297,395 L 298,395 L 299,394 L 300,394 L 301,393 L 305,393 L 306,392 L 309,392 L 311,390 L 311,389 L 313,387 L 314,387 L 317,384 L 318,384 L 320,382 L 322,382 L 323,381 L 324,381 L 327,378 L 327,376 L 329,374 L 330,374 L 330,373 L 329,372 L 326,372 L 325,371 L 322,371 L 321,372 L 320,372 L 319,373 L 313,373 L 312,372 L 310,372 L 308,370 L 302,370 L 301,369 L 297,369 L 296,368 L 295,368 L 290,363 L 290,362 L 291,361 L 292,361 L 293,360 L 293,359 L 294,358 L 295,358 L 295,350 L 294,349 L 294,346 L 292,344 L 292,342 L 290,340 L 289,340 L 287,338 L 287,336 L 286,335 L 286,334 L 283,331 L 283,330 L 282,329 L 282,328 L 278,324 Z" fill="none" stroke="black" stroke-width="1"/>
</svg>