<svg xmlns="http://www.w3.org/2000/svg" width="315" height="148">
  <path d="M 133,119 L 132,120 L 132,122 L 133,121 L 134,122 L 134,126 L 133,127 L 132,126 L 131,126 L 130,125 L 129,126 L 126,126 L 126,127 L 125,128 L 124,128 L 123,127 L 123,125 L 121,125 L 120,124 L 119,124 L 120,125 L 121,125 L 122,126 L 120,128 L 119,128 L 118,129 L 117,128 L 117,130 L 121,130 L 122,131 L 124,131 L 125,132 L 126,132 L 128,134 L 128,136 L 130,138 L 132,138 L 133,139 L 134,139 L 134,138 L 135,137 L 136,138 L 136,137 L 140,133 L 141,133 L 141,131 L 139,129 L 139,128 L 138,127 L 138,125 L 137,124 L 137,123 Z" fill="none" stroke="black" stroke-width="1"/>
</svg>