<svg xmlns="http://www.w3.org/2000/svg" width="762" height="285">
  <path d="M 657,178 L 656,179 L 656,181 L 655,182 L 655,183 L 652,186 L 649,186 L 647,188 L 647,189 L 645,191 L 643,191 L 642,192 L 637,192 L 636,193 L 636,194 L 635,195 L 635,196 L 639,200 L 639,201 L 640,202 L 640,211 L 639,212 L 639,214 L 638,215 L 638,226 L 641,229 L 641,231 L 642,232 L 643,232 L 645,234 L 644,235 L 644,237 L 650,237 L 651,236 L 653,236 L 659,230 L 660,230 L 664,226 L 666,226 L 667,225 L 669,225 L 670,224 L 675,224 L 676,223 L 676,220 L 677,219 L 677,218 L 679,216 L 679,215 L 680,214 L 681,214 L 684,211 L 686,211 L 688,209 L 688,207 L 690,205 L 690,204 L 691,203 L 691,196 L 690,195 L 686,195 L 683,192 L 683,190 L 682,189 L 682,188 L 679,185 L 679,184 L 678,184 L 677,183 L 671,183 L 670,182 L 668,182 L 666,180 L 666,179 L 665,178 Z" fill="none" stroke="black" stroke-width="1"/>
</svg>