<svg xmlns="http://www.w3.org/2000/svg" width="762" height="285">
  <path d="M 670,131 L 669,132 L 668,132 L 667,133 L 667,134 L 666,135 L 666,140 L 662,144 L 662,149 L 663,149 L 664,150 L 669,150 L 672,153 L 672,154 L 671,155 L 671,156 L 669,158 L 669,159 L 670,160 L 670,162 L 667,165 L 665,165 L 664,166 L 663,166 L 663,167 L 662,168 L 662,173 L 661,174 L 661,175 L 660,176 L 660,177 L 665,177 L 667,179 L 667,180 L 668,181 L 670,181 L 671,182 L 677,182 L 678,183 L 679,183 L 680,184 L 680,185 L 683,188 L 683,189 L 684,190 L 684,192 L 686,194 L 690,194 L 691,195 L 691,190 L 699,182 L 700,182 L 700,181 L 701,180 L 702,180 L 707,175 L 707,172 L 708,171 L 712,171 L 713,170 L 715,170 L 715,169 L 716,168 L 717,168 L 718,167 L 719,167 L 720,166 L 722,166 L 723,165 L 723,164 L 725,162 L 725,161 L 726,160 L 727,160 L 727,159 L 725,157 L 724,157 L 723,156 L 719,156 L 718,157 L 711,157 L 710,158 L 709,158 L 708,159 L 707,159 L 701,153 L 701,152 L 700,151 L 700,149 L 699,148 L 699,145 L 698,144 L 692,144 L 691,145 L 688,142 L 688,140 L 687,139 L 686,139 L 685,138 L 683,138 L 682,137 L 682,136 L 680,134 L 679,134 L 678,133 L 674,133 L 673,132 L 671,132 Z" fill="none" stroke="black" stroke-width="1"/>
</svg>