<svg xmlns="http://www.w3.org/2000/svg" width="762" height="285">
  <path d="M 597,113 L 593,117 L 592,117 L 590,119 L 589,119 L 584,124 L 584,127 L 580,131 L 579,131 L 579,132 L 580,133 L 580,136 L 581,137 L 581,139 L 582,140 L 582,142 L 580,144 L 580,147 L 579,148 L 579,149 L 578,150 L 578,152 L 579,152 L 580,153 L 587,153 L 588,154 L 592,154 L 593,155 L 595,155 L 596,156 L 597,156 L 598,157 L 599,157 L 600,158 L 602,158 L 603,159 L 609,159 L 610,160 L 612,160 L 612,157 L 613,156 L 613,151 L 614,150 L 615,150 L 621,144 L 622,144 L 625,141 L 626,141 L 632,135 L 632,127 L 631,127 L 630,126 L 626,126 L 625,125 L 622,125 L 621,124 L 619,124 L 618,123 L 616,123 L 613,120 L 613,119 L 612,118 L 610,118 L 609,117 L 607,117 L 606,116 L 603,116 L 601,114 L 600,114 L 599,113 Z" fill="none" stroke="black" stroke-width="1"/>
</svg>