<svg xmlns="http://www.w3.org/2000/svg" width="191" height="202">
  <path d="M 131,79 L 131,80 L 128,83 L 128,84 L 129,85 L 129,87 L 128,88 L 127,88 L 125,90 L 124,90 L 122,92 L 124,94 L 124,99 L 126,99 L 127,100 L 126,101 L 126,102 L 128,104 L 128,105 L 129,105 L 130,106 L 131,106 L 132,107 L 133,107 L 135,105 L 138,105 L 139,106 L 147,106 L 146,105 L 145,105 L 142,102 L 142,101 L 141,100 L 141,97 L 139,95 L 139,93 L 138,92 L 138,89 L 137,88 L 138,87 L 138,86 L 137,85 L 137,84 L 136,84 L 135,83 L 134,83 L 131,80 Z" fill="none" stroke="black" stroke-width="1"/>
</svg>