<svg xmlns="http://www.w3.org/2000/svg" width="762" height="285">
  <path d="M 670,111 L 670,120 L 671,121 L 671,122 L 670,123 L 668,123 L 666,125 L 665,125 L 665,126 L 666,127 L 667,127 L 668,128 L 668,129 L 669,130 L 670,130 L 671,131 L 673,131 L 674,132 L 678,132 L 679,133 L 680,133 L 683,136 L 683,137 L 685,137 L 686,138 L 687,138 L 689,140 L 689,142 L 691,144 L 692,143 L 695,143 L 697,141 L 698,141 L 699,140 L 700,140 L 701,139 L 702,139 L 702,137 L 701,136 L 700,136 L 698,134 L 697,134 L 693,130 L 693,129 L 692,128 L 692,127 L 691,126 L 691,120 L 690,119 L 690,118 L 689,117 L 688,117 L 687,116 L 681,116 L 680,115 L 678,115 L 676,113 L 675,113 L 673,111 Z" fill="none" stroke="black" stroke-width="1"/>
</svg>