<svg xmlns="http://www.w3.org/2000/svg" width="762" height="285">
  <path d="M 632,104 L 631,105 L 631,107 L 622,116 L 621,116 L 620,117 L 619,117 L 618,118 L 615,118 L 614,119 L 614,120 L 616,122 L 618,122 L 619,123 L 621,123 L 622,124 L 625,124 L 626,125 L 630,125 L 631,126 L 638,126 L 639,125 L 645,125 L 646,124 L 647,124 L 648,123 L 651,123 L 651,122 L 649,120 L 649,119 L 648,119 L 647,118 L 648,117 L 648,115 L 649,114 L 649,111 L 650,110 L 646,110 L 645,109 L 644,109 L 643,108 L 642,108 L 641,107 L 640,107 L 638,105 L 637,105 L 636,104 Z" fill="none" stroke="black" stroke-width="1"/>
</svg>