<svg xmlns="http://www.w3.org/2000/svg" width="762" height="285">
  <path d="M 614,70 L 613,71 L 613,72 L 611,74 L 610,74 L 608,76 L 607,75 L 606,75 L 605,74 L 604,74 L 604,76 L 603,77 L 602,77 L 602,78 L 600,80 L 599,80 L 598,81 L 593,81 L 593,82 L 592,83 L 592,85 L 597,85 L 598,86 L 594,90 L 593,90 L 593,93 L 592,94 L 592,95 L 593,96 L 593,97 L 595,99 L 595,100 L 596,101 L 600,101 L 601,102 L 602,102 L 605,99 L 606,99 L 606,98 L 607,97 L 607,96 L 608,95 L 608,94 L 609,93 L 610,93 L 611,92 L 610,91 L 610,90 L 608,88 L 608,86 L 607,85 L 608,84 L 608,83 L 610,81 L 611,81 L 612,80 L 613,80 L 616,77 L 617,77 L 617,76 L 618,75 L 619,75 L 618,75 L 616,73 L 616,72 L 615,71 L 615,70 Z" fill="none" stroke="black" stroke-width="1"/>
</svg>