<svg xmlns="http://www.w3.org/2000/svg" width="762" height="285">
  <path d="M 580,44 L 580,51 L 583,54 L 583,55 L 582,56 L 582,57 L 580,59 L 580,60 L 579,61 L 579,62 L 580,63 L 579,64 L 580,64 L 581,65 L 582,65 L 583,66 L 584,66 L 585,67 L 585,68 L 587,68 L 589,70 L 589,71 L 590,72 L 590,73 L 591,74 L 591,75 L 595,79 L 595,80 L 598,80 L 599,79 L 600,79 L 601,78 L 601,77 L 602,76 L 603,76 L 603,73 L 602,73 L 598,69 L 598,66 L 599,65 L 599,64 L 598,63 L 597,63 L 596,62 L 596,61 L 593,58 L 593,55 L 592,55 L 591,54 L 591,53 L 589,51 L 588,51 L 586,49 L 586,47 L 585,46 L 585,44 Z" fill="none" stroke="black" stroke-width="1"/>
</svg>