<svg xmlns="http://www.w3.org/2000/svg" width="762" height="285">
  <path d="M 603,27 L 602,28 L 601,28 L 600,29 L 597,29 L 596,30 L 594,30 L 590,34 L 587,34 L 586,35 L 585,35 L 584,36 L 584,38 L 583,39 L 583,40 L 582,41 L 582,42 L 581,43 L 586,43 L 587,42 L 588,42 L 589,41 L 598,41 L 599,42 L 599,43 L 600,44 L 601,44 L 602,43 L 602,42 L 604,40 L 604,39 L 605,38 L 605,37 L 608,34 L 609,34 L 610,33 L 610,31 L 611,30 L 610,29 L 607,29 L 607,30 L 606,31 L 605,31 L 604,30 L 604,29 L 605,28 L 605,27 Z" fill="none" stroke="black" stroke-width="1"/>
</svg>