<svg xmlns="http://www.w3.org/2000/svg" width="762" height="285">
  <path d="M 555,85 L 554,86 L 553,86 L 552,87 L 551,87 L 549,89 L 548,89 L 545,92 L 544,92 L 543,93 L 539,93 L 538,92 L 536,92 L 535,91 L 530,91 L 529,92 L 528,92 L 527,93 L 527,94 L 526,95 L 526,96 L 524,98 L 524,102 L 530,108 L 533,108 L 534,109 L 538,109 L 539,110 L 540,110 L 541,111 L 542,111 L 543,112 L 559,112 L 560,113 L 562,113 L 563,114 L 564,114 L 565,115 L 567,115 L 568,116 L 573,116 L 573,111 L 572,110 L 572,108 L 571,107 L 571,106 L 569,104 L 568,104 L 566,102 L 566,98 L 565,97 L 564,97 L 563,96 L 563,95 L 562,94 L 562,93 L 561,92 L 561,89 L 562,88 L 563,88 L 563,85 Z" fill="none" stroke="black" stroke-width="1"/>
</svg>