<svg xmlns="http://www.w3.org/2000/svg" width="762" height="285">
  <path d="M 513,98 L 512,99 L 511,99 L 504,106 L 504,107 L 500,111 L 499,111 L 499,112 L 500,112 L 501,113 L 502,113 L 504,115 L 505,115 L 506,116 L 507,116 L 509,118 L 510,118 L 514,122 L 515,122 L 517,124 L 517,125 L 521,129 L 522,129 L 523,130 L 525,130 L 527,132 L 528,132 L 530,134 L 531,134 L 532,135 L 534,135 L 536,137 L 537,137 L 538,138 L 539,138 L 540,137 L 540,133 L 541,132 L 541,131 L 542,130 L 542,129 L 543,128 L 543,127 L 544,126 L 544,118 L 545,117 L 545,114 L 544,113 L 543,113 L 542,112 L 541,112 L 540,111 L 539,111 L 538,110 L 534,110 L 533,109 L 530,109 L 523,102 L 523,99 L 522,99 L 521,98 Z" fill="none" stroke="black" stroke-width="1"/>
</svg>