<svg xmlns="http://www.w3.org/2000/svg" width="762" height="285">
  <path d="M 527,51 L 526,52 L 515,52 L 515,53 L 516,54 L 516,58 L 518,60 L 518,61 L 521,64 L 521,67 L 519,69 L 519,72 L 520,73 L 520,74 L 519,75 L 519,76 L 523,76 L 524,77 L 526,77 L 527,76 L 528,76 L 529,75 L 531,75 L 532,74 L 533,74 L 537,70 L 538,70 L 541,67 L 541,66 L 543,64 L 543,62 L 541,60 L 541,59 L 542,58 L 541,57 L 540,57 L 539,56 L 536,56 L 535,55 L 534,55 L 530,51 Z" fill="none" stroke="black" stroke-width="1"/>
</svg>