<svg xmlns="http://www.w3.org/2000/svg" width="762" height="285">
  <path d="M 506,49 L 505,50 L 502,50 L 501,51 L 499,51 L 498,52 L 497,52 L 496,53 L 495,53 L 494,54 L 492,54 L 491,55 L 489,55 L 489,59 L 490,60 L 490,61 L 489,62 L 488,62 L 488,63 L 486,65 L 486,66 L 485,67 L 485,68 L 484,69 L 484,76 L 483,77 L 483,79 L 484,80 L 485,80 L 486,81 L 487,81 L 490,84 L 491,84 L 492,83 L 494,83 L 495,82 L 497,82 L 498,81 L 499,81 L 500,80 L 501,80 L 502,79 L 503,79 L 504,78 L 506,78 L 507,77 L 509,77 L 510,76 L 518,76 L 518,75 L 519,74 L 519,73 L 518,72 L 518,69 L 520,67 L 520,64 L 517,61 L 517,60 L 515,58 L 515,54 L 514,53 L 513,53 L 510,50 L 510,49 Z" fill="none" stroke="black" stroke-width="1"/>
</svg>