<svg xmlns="http://www.w3.org/2000/svg" width="762" height="285">
  <path d="M 418,116 L 417,117 L 416,117 L 415,118 L 413,118 L 412,119 L 410,119 L 409,118 L 408,118 L 407,117 L 406,117 L 405,118 L 404,118 L 403,119 L 402,119 L 401,120 L 400,120 L 399,121 L 398,121 L 397,122 L 398,123 L 398,125 L 400,127 L 400,129 L 399,130 L 398,130 L 396,132 L 395,132 L 394,133 L 393,133 L 393,135 L 392,136 L 392,137 L 393,137 L 394,138 L 394,139 L 393,140 L 393,142 L 391,144 L 390,144 L 390,145 L 389,146 L 388,146 L 388,147 L 387,148 L 386,148 L 385,149 L 384,149 L 383,150 L 375,150 L 375,152 L 373,154 L 373,162 L 372,163 L 372,164 L 371,165 L 371,166 L 377,166 L 378,167 L 382,167 L 383,168 L 386,168 L 387,169 L 392,169 L 393,170 L 395,170 L 396,171 L 396,170 L 397,169 L 397,168 L 399,166 L 399,159 L 400,158 L 400,157 L 401,156 L 401,155 L 402,154 L 402,153 L 405,150 L 405,149 L 408,146 L 408,145 L 409,144 L 409,142 L 410,141 L 410,139 L 411,138 L 411,137 L 412,136 L 412,135 L 413,134 L 413,133 L 414,132 L 414,131 L 416,129 L 416,128 L 417,127 L 417,124 L 419,122 L 419,120 L 422,117 L 422,116 Z" fill="none" stroke="black" stroke-width="1"/>
</svg>