<svg xmlns="http://www.w3.org/2000/svg" width="191" height="202">
  <path d="M 120,93 L 117,96 L 116,96 L 114,98 L 112,98 L 110,100 L 110,101 L 108,103 L 108,104 L 107,105 L 107,106 L 106,107 L 110,111 L 110,112 L 111,113 L 111,114 L 112,115 L 112,111 L 113,110 L 113,109 L 114,108 L 115,108 L 116,109 L 117,109 L 118,110 L 119,110 L 121,112 L 125,112 L 126,111 L 126,109 L 128,107 L 129,107 L 129,106 L 128,106 L 127,105 L 127,104 L 125,102 L 125,101 L 126,100 L 124,100 L 123,99 L 123,94 L 122,93 Z" fill="none" stroke="black" stroke-width="1"/>
</svg>