<svg xmlns="http://www.w3.org/2000/svg" width="762" height="285">
  <path d="M 480,41 L 479,42 L 472,42 L 471,43 L 467,43 L 465,45 L 464,45 L 463,46 L 461,46 L 460,47 L 459,47 L 458,48 L 457,48 L 454,51 L 454,52 L 453,53 L 453,54 L 452,55 L 451,55 L 450,56 L 449,56 L 449,57 L 453,61 L 455,61 L 456,62 L 459,59 L 459,58 L 460,57 L 462,57 L 463,56 L 468,56 L 469,55 L 474,55 L 475,54 L 476,54 L 480,50 L 481,50 L 482,49 L 483,49 L 483,42 L 482,41 Z" fill="none" stroke="black" stroke-width="1"/>
</svg>