<svg xmlns="http://www.w3.org/2000/svg" width="762" height="285">
  <path d="M 482,50 L 481,51 L 480,51 L 476,55 L 475,55 L 474,56 L 469,56 L 468,57 L 463,57 L 462,58 L 460,58 L 460,59 L 456,63 L 455,62 L 452,62 L 449,65 L 448,65 L 447,66 L 446,66 L 446,68 L 444,70 L 444,71 L 445,72 L 445,74 L 448,77 L 448,82 L 451,82 L 452,81 L 453,81 L 455,79 L 466,79 L 467,78 L 469,78 L 470,77 L 471,77 L 472,76 L 476,76 L 477,77 L 479,77 L 480,78 L 482,78 L 482,77 L 483,76 L 483,69 L 484,68 L 484,67 L 485,66 L 485,65 L 487,63 L 487,62 L 488,61 L 489,61 L 489,60 L 488,59 L 488,54 L 486,52 L 485,52 L 484,51 L 484,50 Z" fill="none" stroke="black" stroke-width="1"/>
</svg>