<svg xmlns="http://www.w3.org/2000/svg" width="762" height="285">
  <path d="M 472,77 L 471,78 L 470,78 L 469,79 L 467,79 L 466,80 L 455,80 L 453,82 L 452,82 L 451,83 L 448,83 L 447,82 L 440,82 L 440,84 L 437,87 L 436,87 L 435,86 L 433,86 L 432,87 L 432,88 L 431,89 L 426,89 L 426,90 L 427,91 L 427,92 L 425,94 L 425,96 L 424,97 L 428,97 L 429,98 L 433,98 L 434,99 L 437,99 L 438,100 L 438,102 L 439,103 L 439,104 L 441,106 L 441,107 L 443,107 L 444,108 L 444,109 L 446,107 L 446,106 L 447,105 L 448,105 L 449,104 L 450,104 L 451,103 L 453,103 L 454,102 L 458,102 L 459,101 L 461,101 L 461,99 L 462,98 L 463,98 L 464,97 L 467,97 L 468,96 L 475,96 L 475,94 L 479,90 L 480,90 L 482,88 L 483,88 L 484,87 L 487,87 L 487,86 L 488,85 L 489,85 L 489,84 L 487,82 L 486,82 L 485,81 L 484,81 L 482,79 L 480,79 L 479,78 L 477,78 L 476,77 Z" fill="none" stroke="black" stroke-width="1"/>
</svg>