<svg xmlns="http://www.w3.org/2000/svg" width="762" height="285">
  <path d="M 356,137 L 355,138 L 352,138 L 351,139 L 350,139 L 350,140 L 349,141 L 348,141 L 347,142 L 345,142 L 343,144 L 342,144 L 338,148 L 337,148 L 336,149 L 335,149 L 336,150 L 336,151 L 337,151 L 338,152 L 338,158 L 341,158 L 342,159 L 345,159 L 346,158 L 350,158 L 351,157 L 352,157 L 353,156 L 354,156 L 355,155 L 356,155 L 363,148 L 363,147 L 360,144 L 360,138 L 359,138 L 358,137 Z" fill="none" stroke="black" stroke-width="1"/>
</svg>