<svg xmlns="http://www.w3.org/2000/svg" width="762" height="285">
  <path d="M 364,148 L 356,156 L 355,156 L 354,157 L 353,157 L 352,158 L 351,158 L 350,159 L 346,159 L 345,160 L 342,160 L 341,159 L 337,159 L 335,161 L 333,161 L 333,162 L 327,168 L 327,169 L 326,170 L 326,171 L 325,172 L 325,173 L 324,174 L 324,175 L 323,176 L 322,176 L 322,178 L 333,178 L 334,177 L 338,177 L 339,176 L 349,176 L 350,177 L 351,176 L 354,176 L 355,175 L 356,175 L 358,173 L 359,173 L 360,172 L 361,172 L 362,171 L 363,171 L 364,170 L 365,170 L 366,169 L 368,169 L 369,168 L 369,167 L 370,166 L 370,165 L 371,164 L 371,163 L 372,162 L 372,154 L 374,152 L 374,150 L 372,150 L 371,149 L 369,149 L 368,148 Z" fill="none" stroke="black" stroke-width="1"/>
</svg>