<svg xmlns="http://www.w3.org/2000/svg" width="762" height="285">
  <path d="M 363,81 L 363,83 L 361,85 L 361,87 L 362,88 L 362,90 L 361,91 L 361,92 L 358,95 L 357,95 L 355,97 L 351,97 L 350,98 L 350,100 L 348,102 L 348,104 L 354,104 L 356,106 L 358,106 L 360,104 L 361,104 L 362,103 L 364,103 L 365,104 L 368,104 L 370,106 L 370,105 L 371,104 L 371,103 L 372,102 L 374,102 L 375,101 L 377,101 L 378,102 L 378,104 L 377,105 L 379,107 L 382,107 L 383,106 L 385,106 L 386,107 L 388,107 L 388,104 L 389,103 L 391,103 L 392,102 L 392,101 L 386,95 L 384,95 L 382,93 L 381,93 L 379,91 L 376,91 L 375,90 L 372,90 L 371,89 L 371,87 L 370,86 L 369,86 L 368,85 L 368,84 L 365,84 L 364,83 L 364,82 Z" fill="none" stroke="black" stroke-width="1"/>
</svg>