<svg xmlns="http://www.w3.org/2000/svg" width="762" height="285">
  <path d="M 344,104 L 343,105 L 341,105 L 340,106 L 337,106 L 336,107 L 334,107 L 331,110 L 331,111 L 330,112 L 332,114 L 332,115 L 337,115 L 338,116 L 339,116 L 340,117 L 341,116 L 342,116 L 343,117 L 343,118 L 344,119 L 349,119 L 350,120 L 350,121 L 351,122 L 351,121 L 353,119 L 355,119 L 356,118 L 357,118 L 359,116 L 359,115 L 363,111 L 364,111 L 364,110 L 365,109 L 366,109 L 367,108 L 368,108 L 369,107 L 369,106 L 368,105 L 365,105 L 364,104 L 362,104 L 361,105 L 360,105 L 358,107 L 356,107 L 354,105 L 348,105 L 347,104 Z" fill="none" stroke="black" stroke-width="1"/>
</svg>