<svg xmlns="http://www.w3.org/2000/svg" width="191" height="202">
  <path d="M 113,63 L 113,64 L 112,65 L 110,65 L 110,66 L 108,68 L 107,68 L 106,69 L 105,69 L 104,70 L 103,69 L 101,69 L 100,70 L 99,70 L 98,71 L 98,73 L 97,74 L 96,74 L 96,76 L 97,77 L 98,77 L 99,76 L 102,76 L 104,78 L 104,80 L 107,80 L 108,81 L 108,82 L 109,83 L 111,83 L 112,82 L 116,82 L 117,83 L 118,83 L 118,80 L 120,78 L 125,78 L 126,77 L 126,76 L 125,76 L 124,75 L 123,75 L 122,74 L 119,74 L 117,76 L 113,76 L 112,75 L 105,75 L 104,74 L 105,73 L 112,73 L 114,71 L 115,71 L 116,70 L 120,70 L 121,69 L 121,68 L 120,68 L 118,66 L 116,66 L 115,67 L 113,67 L 112,68 L 111,67 L 111,66 L 112,65 L 114,65 L 114,64 Z" fill="none" stroke="black" stroke-width="1"/>
</svg>