<svg xmlns="http://www.w3.org/2000/svg" width="762" height="285">
  <path d="M 545,113 L 546,114 L 546,117 L 545,118 L 545,126 L 544,127 L 544,128 L 543,129 L 543,130 L 542,131 L 542,132 L 541,133 L 541,137 L 540,138 L 540,140 L 544,144 L 545,144 L 546,145 L 547,145 L 548,146 L 549,146 L 550,147 L 551,147 L 552,148 L 553,148 L 554,149 L 555,149 L 556,150 L 557,150 L 558,151 L 562,151 L 563,152 L 567,152 L 568,153 L 574,153 L 575,152 L 577,152 L 577,150 L 578,149 L 578,148 L 579,147 L 579,144 L 581,142 L 581,140 L 580,139 L 580,137 L 579,136 L 579,133 L 578,132 L 578,131 L 577,130 L 577,129 L 576,128 L 576,121 L 575,120 L 575,119 L 574,118 L 574,117 L 568,117 L 567,116 L 565,116 L 564,115 L 563,115 L 562,114 L 560,114 L 559,113 Z" fill="none" stroke="black" stroke-width="1"/>
</svg>