<svg xmlns="http://www.w3.org/2000/svg" width="762" height="285">
  <path d="M 688,210 L 686,212 L 684,212 L 681,215 L 680,215 L 680,216 L 678,218 L 678,219 L 677,220 L 677,223 L 675,225 L 670,225 L 669,226 L 667,226 L 666,227 L 664,227 L 660,231 L 659,231 L 653,237 L 651,237 L 650,238 L 645,238 L 645,241 L 644,242 L 644,243 L 643,244 L 643,246 L 642,247 L 642,249 L 641,250 L 640,250 L 639,251 L 639,254 L 640,255 L 640,258 L 641,259 L 641,260 L 642,261 L 642,262 L 643,263 L 643,264 L 644,265 L 644,266 L 645,267 L 645,268 L 646,269 L 646,270 L 647,271 L 647,272 L 649,272 L 650,273 L 654,273 L 655,274 L 658,274 L 659,275 L 660,275 L 661,276 L 662,276 L 663,277 L 665,277 L 667,279 L 668,279 L 669,280 L 670,280 L 674,284 L 675,283 L 675,276 L 676,275 L 676,274 L 677,273 L 677,267 L 679,265 L 679,264 L 681,262 L 681,261 L 682,260 L 682,255 L 681,254 L 681,253 L 680,252 L 680,249 L 681,248 L 681,247 L 682,246 L 682,242 L 683,241 L 682,240 L 683,239 L 683,236 L 684,235 L 684,232 L 685,231 L 685,230 L 686,229 L 686,227 L 687,226 L 687,218 L 688,217 Z" fill="none" stroke="black" stroke-width="1"/>
</svg>