<svg xmlns="http://www.w3.org/2000/svg" width="690" height="339">
  <path d="M 373,106 L 374,107 L 374,111 L 372,113 L 372,114 L 371,115 L 371,116 L 370,117 L 370,118 L 369,119 L 369,122 L 368,123 L 368,132 L 366,134 L 366,135 L 365,136 L 365,146 L 364,147 L 364,148 L 363,149 L 363,150 L 362,151 L 362,155 L 361,156 L 361,161 L 362,162 L 362,165 L 363,166 L 363,169 L 364,170 L 364,171 L 365,172 L 365,174 L 369,174 L 370,173 L 380,173 L 381,174 L 382,174 L 386,170 L 386,169 L 389,166 L 389,161 L 393,157 L 393,151 L 394,150 L 394,149 L 395,148 L 395,147 L 396,146 L 396,144 L 397,143 L 397,142 L 398,141 L 398,136 L 399,135 L 399,132 L 400,131 L 400,128 L 399,127 L 399,126 L 398,125 L 398,123 L 399,122 L 399,121 L 400,120 L 400,118 L 396,114 L 395,114 L 394,113 L 393,113 L 391,111 L 389,111 L 388,110 L 387,110 L 386,109 L 385,109 L 384,108 L 381,108 L 380,107 L 376,107 L 375,106 Z" fill="none" stroke="black" stroke-width="1"/>
</svg>