<svg xmlns="http://www.w3.org/2000/svg" width="304" height="349">
  <path d="M 106,161 L 104,163 L 104,165 L 106,167 L 107,167 L 108,168 L 108,169 L 109,170 L 109,171 L 110,172 L 110,173 L 111,174 L 111,179 L 113,181 L 113,184 L 114,185 L 114,186 L 115,187 L 116,187 L 117,188 L 117,190 L 117,189 L 119,187 L 120,187 L 121,186 L 124,186 L 125,187 L 126,186 L 127,187 L 128,187 L 129,188 L 130,188 L 131,187 L 133,187 L 134,186 L 136,186 L 138,184 L 137,183 L 137,182 L 136,182 L 132,178 L 132,176 L 134,174 L 129,174 L 128,173 L 128,172 L 130,170 L 129,169 L 129,168 L 128,167 L 127,167 L 126,166 L 121,166 L 120,165 L 119,165 L 118,164 L 117,164 L 115,162 L 114,162 L 113,161 Z" fill="none" stroke="black" stroke-width="1"/>
</svg>