<svg xmlns="http://www.w3.org/2000/svg" width="304" height="349">
  <path d="M 11,0 L 10,1 L 9,1 L 9,2 L 8,3 L 6,3 L 5,2 L 4,2 L 3,1 L 1,1 L 0,2 L 0,6 L 1,7 L 2,7 L 3,8 L 3,13 L 4,14 L 4,15 L 5,16 L 5,22 L 4,23 L 4,31 L 1,34 L 1,36 L 0,37 L 0,39 L 1,40 L 1,42 L 2,42 L 7,47 L 7,48 L 8,49 L 8,47 L 10,45 L 12,45 L 13,44 L 15,44 L 16,45 L 18,45 L 19,44 L 20,44 L 21,43 L 23,43 L 22,42 L 22,40 L 21,39 L 21,35 L 20,34 L 20,33 L 19,32 L 19,31 L 18,30 L 18,28 L 20,26 L 20,24 L 21,23 L 23,23 L 23,22 L 22,21 L 22,19 L 23,18 L 23,16 L 24,15 L 24,9 L 25,8 L 25,5 L 22,5 L 21,4 L 20,4 L 17,1 L 14,1 L 13,0 Z" fill="none" stroke="black" stroke-width="1"/>
</svg>