<svg xmlns="http://www.w3.org/2000/svg" width="304" height="349">
  <path d="M 76,115 L 76,116 L 75,117 L 75,118 L 76,119 L 76,120 L 77,121 L 77,122 L 78,123 L 78,124 L 75,127 L 73,127 L 71,125 L 71,124 L 70,124 L 68,122 L 68,121 L 67,121 L 66,122 L 65,122 L 68,125 L 68,130 L 70,132 L 71,132 L 74,135 L 75,135 L 76,136 L 77,136 L 78,135 L 80,135 L 81,136 L 83,136 L 84,137 L 84,138 L 86,140 L 87,140 L 88,139 L 89,139 L 94,134 L 99,134 L 100,133 L 101,133 L 101,131 L 100,130 L 100,129 L 97,126 L 97,125 L 96,126 L 93,126 L 91,124 L 90,124 L 87,121 L 87,120 L 86,120 L 85,119 L 84,119 L 83,118 L 79,118 L 78,117 L 79,116 L 79,115 Z" fill="none" stroke="black" stroke-width="1"/>
</svg>