<svg xmlns="http://www.w3.org/2000/svg" width="304" height="349">
  <path d="M 37,1 L 36,2 L 35,2 L 35,3 L 34,4 L 29,4 L 28,5 L 26,5 L 26,8 L 25,9 L 25,15 L 24,16 L 24,18 L 23,19 L 23,21 L 24,22 L 24,23 L 23,24 L 21,24 L 21,26 L 19,28 L 19,30 L 20,31 L 20,32 L 21,33 L 21,34 L 22,35 L 22,37 L 23,37 L 25,35 L 26,35 L 27,34 L 36,34 L 41,39 L 42,39 L 43,40 L 43,41 L 45,41 L 47,43 L 47,44 L 49,46 L 51,44 L 51,40 L 52,39 L 53,39 L 53,33 L 50,30 L 50,29 L 48,27 L 49,26 L 49,23 L 47,21 L 47,20 L 46,19 L 47,18 L 47,13 L 46,12 L 46,11 L 44,9 L 44,7 L 38,1 Z" fill="none" stroke="black" stroke-width="1"/>
</svg>