<svg xmlns="http://www.w3.org/2000/svg" width="191" height="202">
  <path d="M 85,103 L 85,105 L 88,105 L 88,104 L 87,104 L 86,103 Z" fill="none" stroke="black" stroke-width="1"/>
  <path d="M 88,76 L 87,77 L 87,80 L 86,81 L 87,81 L 88,82 L 89,82 L 90,83 L 90,84 L 91,85 L 91,87 L 90,88 L 89,88 L 88,89 L 88,91 L 86,93 L 85,93 L 85,95 L 84,96 L 83,96 L 82,97 L 82,99 L 84,101 L 85,101 L 87,99 L 88,100 L 89,100 L 90,101 L 91,101 L 93,103 L 94,103 L 94,101 L 93,100 L 93,98 L 92,97 L 92,96 L 91,95 L 91,94 L 92,93 L 94,93 L 96,91 L 96,89 L 97,88 L 99,90 L 99,88 L 101,86 L 104,86 L 105,87 L 105,89 L 108,89 L 108,87 L 109,86 L 109,84 L 107,82 L 107,81 L 104,81 L 103,80 L 103,78 L 102,77 L 99,77 L 98,78 L 97,78 L 96,77 L 90,77 L 89,76 Z" fill="none" stroke="black" stroke-width="1"/>
</svg>