<svg xmlns="http://www.w3.org/2000/svg" width="1133" height="465">
  <path d="M 858,401 L 857,402 L 857,403 L 855,405 L 855,406 L 854,407 L 852,407 L 851,408 L 849,408 L 847,410 L 842,410 L 841,409 L 840,409 L 840,412 L 839,413 L 839,416 L 838,417 L 838,420 L 840,422 L 840,425 L 839,426 L 839,427 L 840,427 L 841,426 L 843,426 L 844,427 L 845,427 L 846,428 L 848,428 L 848,427 L 849,426 L 850,426 L 851,425 L 853,425 L 854,426 L 857,426 L 860,429 L 861,429 L 862,430 L 868,430 L 869,429 L 874,429 L 874,428 L 875,427 L 876,427 L 876,420 L 873,417 L 872,417 L 869,414 L 869,413 L 870,412 L 870,410 L 867,407 L 867,405 L 866,404 L 865,404 L 864,403 L 862,403 L 860,401 Z" fill="none" stroke="black" stroke-width="1"/>
</svg>