<svg xmlns="http://www.w3.org/2000/svg" width="1133" height="465">
  <path d="M 861,363 L 861,367 L 859,369 L 859,370 L 856,373 L 856,377 L 855,378 L 855,389 L 858,392 L 858,393 L 860,395 L 860,400 L 862,402 L 864,402 L 865,403 L 866,403 L 868,405 L 868,407 L 871,410 L 872,409 L 872,408 L 876,404 L 876,403 L 877,402 L 884,402 L 889,397 L 889,396 L 894,391 L 896,391 L 897,390 L 897,389 L 899,387 L 899,386 L 898,385 L 897,385 L 895,383 L 895,381 L 893,379 L 892,379 L 891,378 L 891,374 L 889,372 L 888,373 L 887,373 L 886,374 L 884,374 L 883,375 L 882,375 L 881,376 L 878,376 L 877,377 L 876,377 L 875,376 L 875,375 L 874,374 L 873,374 L 871,372 L 871,371 L 870,370 L 870,369 L 869,368 L 869,366 L 868,365 L 867,365 L 865,363 Z" fill="none" stroke="black" stroke-width="1"/>
</svg>