<svg xmlns="http://www.w3.org/2000/svg" width="1133" height="465">
  <path d="M 933,352 L 932,353 L 931,353 L 930,354 L 929,354 L 928,355 L 926,355 L 925,356 L 923,356 L 922,357 L 921,357 L 920,358 L 919,358 L 918,359 L 917,359 L 916,360 L 909,360 L 908,359 L 899,359 L 896,362 L 895,362 L 895,363 L 894,364 L 893,364 L 893,365 L 892,366 L 892,367 L 889,370 L 889,371 L 892,374 L 892,378 L 893,378 L 896,381 L 896,383 L 897,384 L 898,384 L 900,386 L 901,386 L 902,387 L 902,386 L 903,385 L 907,385 L 908,384 L 909,384 L 910,383 L 911,383 L 913,381 L 919,381 L 921,379 L 923,379 L 924,378 L 925,378 L 926,377 L 927,377 L 928,376 L 934,376 L 935,377 L 937,377 L 938,378 L 940,378 L 941,379 L 942,379 L 943,380 L 944,380 L 945,381 L 945,379 L 946,378 L 946,376 L 949,373 L 949,372 L 951,370 L 951,363 L 949,361 L 949,359 L 947,357 L 947,355 L 946,354 L 943,354 L 942,353 L 939,353 L 938,352 Z" fill="none" stroke="black" stroke-width="1"/>
</svg>