<svg xmlns="http://www.w3.org/2000/svg" width="1133" height="465">
  <path d="M 835,309 L 835,315 L 836,316 L 836,317 L 839,320 L 839,321 L 840,322 L 840,324 L 841,325 L 841,329 L 843,331 L 843,334 L 844,335 L 845,335 L 846,336 L 848,336 L 849,337 L 852,337 L 853,336 L 854,336 L 855,335 L 855,333 L 858,330 L 858,327 L 859,326 L 859,325 L 863,321 L 863,320 L 864,319 L 866,319 L 866,317 L 864,315 L 864,314 L 863,315 L 862,315 L 860,313 L 859,313 L 858,314 L 852,314 L 851,313 L 845,313 L 844,312 L 843,312 L 842,311 L 840,311 L 839,310 L 838,310 L 837,309 Z" fill="none" stroke="black" stroke-width="1"/>
</svg>