<svg xmlns="http://www.w3.org/2000/svg" width="1133" height="465">
  <path d="M 872,328 L 872,329 L 870,331 L 869,331 L 868,332 L 868,333 L 867,334 L 866,334 L 865,335 L 864,334 L 862,334 L 861,333 L 862,332 L 862,331 L 861,330 L 859,330 L 856,333 L 856,335 L 854,337 L 853,337 L 852,338 L 846,338 L 844,340 L 845,341 L 848,341 L 849,342 L 848,343 L 847,343 L 847,344 L 850,344 L 851,343 L 852,343 L 854,341 L 855,341 L 856,342 L 860,342 L 861,343 L 863,343 L 864,344 L 865,344 L 866,345 L 867,345 L 869,347 L 871,347 L 872,346 L 873,346 L 874,345 L 875,345 L 875,344 L 882,337 L 883,337 L 888,332 L 888,330 L 887,330 L 886,331 L 880,331 L 878,329 L 877,329 L 876,328 Z" fill="none" stroke="black" stroke-width="1"/>
</svg>