<svg xmlns="http://www.w3.org/2000/svg" width="1133" height="465">
  <path d="M 915,303 L 914,304 L 913,304 L 912,305 L 910,305 L 909,306 L 907,306 L 905,308 L 903,308 L 902,309 L 900,309 L 899,308 L 897,308 L 897,309 L 896,310 L 895,310 L 891,314 L 891,316 L 890,317 L 890,320 L 892,322 L 891,323 L 891,326 L 892,327 L 892,328 L 889,331 L 889,332 L 883,338 L 882,338 L 876,344 L 876,345 L 875,346 L 874,346 L 873,347 L 872,347 L 871,348 L 873,350 L 873,352 L 874,353 L 874,355 L 876,357 L 876,358 L 877,358 L 878,359 L 879,359 L 881,361 L 884,361 L 885,362 L 892,362 L 893,363 L 894,363 L 894,362 L 895,361 L 896,361 L 899,358 L 901,358 L 906,353 L 906,352 L 907,351 L 907,348 L 906,347 L 907,346 L 907,345 L 912,340 L 914,340 L 917,337 L 920,337 L 920,335 L 918,333 L 918,331 L 919,330 L 919,329 L 918,328 L 918,327 L 917,326 L 917,325 L 916,324 L 916,323 L 915,322 L 915,311 L 916,310 L 916,309 L 919,306 L 919,304 L 918,303 Z" fill="none" stroke="black" stroke-width="1"/>
</svg>