<svg xmlns="http://www.w3.org/2000/svg" width="1133" height="465">
  <path d="M 940,288 L 938,290 L 937,290 L 932,295 L 931,295 L 930,296 L 926,296 L 921,301 L 920,301 L 919,302 L 919,303 L 920,304 L 920,306 L 917,309 L 917,310 L 916,311 L 916,322 L 917,323 L 917,324 L 918,325 L 918,326 L 919,327 L 919,328 L 920,329 L 920,330 L 919,331 L 919,333 L 921,335 L 921,337 L 924,337 L 925,336 L 926,336 L 927,335 L 928,335 L 929,334 L 937,334 L 938,333 L 939,333 L 944,328 L 949,328 L 949,327 L 952,324 L 953,324 L 953,323 L 954,322 L 955,322 L 956,321 L 958,321 L 957,320 L 957,319 L 956,318 L 956,316 L 957,315 L 957,314 L 958,313 L 958,310 L 960,308 L 960,305 L 959,304 L 959,303 L 958,302 L 958,299 L 955,296 L 955,295 L 954,294 L 953,294 L 948,289 L 947,289 L 946,288 Z" fill="none" stroke="black" stroke-width="1"/>
</svg>