<svg xmlns="http://www.w3.org/2000/svg" width="1133" height="465">
  <path d="M 956,322 L 955,323 L 954,323 L 954,324 L 953,325 L 952,325 L 950,327 L 950,328 L 949,329 L 944,329 L 939,334 L 938,334 L 937,335 L 929,335 L 928,336 L 927,336 L 926,337 L 925,337 L 924,338 L 917,338 L 914,341 L 912,341 L 908,345 L 908,346 L 907,347 L 908,348 L 908,351 L 907,352 L 907,353 L 902,358 L 908,358 L 909,359 L 916,359 L 917,358 L 918,358 L 919,357 L 920,357 L 921,356 L 922,356 L 923,355 L 925,355 L 926,354 L 928,354 L 929,353 L 930,353 L 931,352 L 932,352 L 933,351 L 938,351 L 939,352 L 942,352 L 943,353 L 946,353 L 947,354 L 948,354 L 949,353 L 954,353 L 955,352 L 956,352 L 957,351 L 958,351 L 960,349 L 961,349 L 962,348 L 963,348 L 964,347 L 965,347 L 967,345 L 971,345 L 971,343 L 966,338 L 966,337 L 964,335 L 964,334 L 962,332 L 962,330 L 961,329 L 961,327 L 960,326 L 960,325 L 959,324 L 959,322 Z" fill="none" stroke="black" stroke-width="1"/>
</svg>