<svg xmlns="http://www.w3.org/2000/svg" width="1133" height="465">
  <path d="M 991,375 L 991,376 L 990,377 L 990,379 L 989,380 L 989,383 L 988,384 L 985,384 L 983,386 L 983,387 L 978,392 L 977,392 L 976,393 L 975,393 L 974,394 L 971,394 L 970,395 L 962,395 L 961,396 L 960,396 L 959,397 L 956,397 L 955,398 L 955,405 L 956,406 L 956,407 L 960,411 L 960,412 L 961,412 L 963,414 L 965,414 L 966,415 L 967,415 L 968,416 L 969,416 L 973,420 L 979,420 L 980,421 L 981,421 L 982,422 L 983,422 L 985,424 L 995,424 L 996,423 L 997,423 L 999,421 L 999,420 L 1000,419 L 1000,418 L 1001,417 L 1001,414 L 997,410 L 1001,406 L 1002,406 L 1004,404 L 1004,403 L 1005,402 L 1005,401 L 1006,400 L 1006,399 L 1007,398 L 1007,397 L 1009,395 L 1009,394 L 1011,392 L 1011,391 L 1015,387 L 1015,386 L 1014,386 L 1013,385 L 1005,385 L 1004,384 L 1003,384 L 1002,383 L 1001,383 L 999,381 L 998,381 L 994,377 L 993,377 Z" fill="none" stroke="black" stroke-width="1"/>
</svg>