<svg xmlns="http://www.w3.org/2000/svg" width="1133" height="465">
  <path d="M 1049,417 L 1048,418 L 1046,418 L 1045,419 L 1043,419 L 1042,420 L 1041,420 L 1040,421 L 1039,421 L 1036,418 L 1031,418 L 1029,420 L 1028,420 L 1027,421 L 1027,422 L 1026,423 L 1021,423 L 1019,425 L 1018,425 L 1017,426 L 1016,426 L 1015,427 L 1014,427 L 1013,428 L 1011,428 L 1010,429 L 1006,429 L 1005,430 L 1003,430 L 1003,432 L 1007,436 L 1008,436 L 1012,440 L 1012,441 L 1014,443 L 1014,444 L 1016,444 L 1016,442 L 1017,441 L 1021,441 L 1022,442 L 1021,443 L 1021,444 L 1022,445 L 1023,445 L 1025,447 L 1025,450 L 1026,450 L 1026,446 L 1028,444 L 1029,444 L 1032,447 L 1032,448 L 1031,449 L 1029,447 L 1028,447 L 1029,448 L 1028,449 L 1028,450 L 1034,456 L 1034,457 L 1033,458 L 1031,458 L 1031,460 L 1032,461 L 1032,462 L 1034,464 L 1035,463 L 1036,463 L 1037,462 L 1048,462 L 1054,456 L 1055,456 L 1064,447 L 1065,447 L 1066,446 L 1070,446 L 1070,445 L 1071,444 L 1071,443 L 1073,441 L 1074,441 L 1079,436 L 1079,432 L 1077,432 L 1075,430 L 1075,429 L 1071,425 L 1071,420 L 1069,418 L 1068,419 L 1067,419 L 1066,418 L 1065,418 L 1065,419 L 1063,421 L 1061,421 L 1060,420 L 1055,420 L 1054,419 L 1053,419 L 1051,417 Z" fill="none" stroke="black" stroke-width="1"/>
</svg>