<svg xmlns="http://www.w3.org/2000/svg" width="304" height="349">
  <path d="M 182,112 L 182,113 L 180,115 L 179,115 L 177,117 L 175,117 L 174,118 L 173,118 L 173,122 L 172,123 L 168,123 L 165,120 L 165,119 L 163,117 L 162,117 L 162,118 L 159,121 L 157,121 L 154,118 L 152,118 L 151,119 L 151,120 L 150,121 L 150,124 L 153,127 L 153,129 L 152,130 L 152,140 L 153,140 L 154,141 L 154,142 L 155,143 L 155,144 L 156,145 L 156,146 L 157,147 L 157,149 L 158,149 L 159,150 L 162,150 L 163,149 L 164,149 L 165,148 L 167,150 L 168,150 L 169,149 L 172,149 L 173,148 L 173,147 L 174,146 L 174,145 L 175,144 L 175,143 L 177,141 L 178,141 L 180,143 L 181,143 L 182,144 L 183,144 L 184,145 L 189,145 L 190,144 L 189,143 L 189,141 L 191,139 L 191,138 L 193,136 L 193,134 L 192,133 L 192,131 L 194,129 L 194,127 L 196,125 L 196,124 L 195,123 L 195,121 L 196,120 L 195,120 L 193,118 L 193,117 L 189,117 L 185,113 L 184,113 L 183,112 Z" fill="none" stroke="black" stroke-width="1"/>
</svg>