<svg xmlns="http://www.w3.org/2000/svg" width="304" height="349">
  <path d="M 249,156 L 249,157 L 247,159 L 246,159 L 245,160 L 244,160 L 243,161 L 240,161 L 239,162 L 235,162 L 235,165 L 234,166 L 234,167 L 233,168 L 234,169 L 233,170 L 233,172 L 234,173 L 234,184 L 235,185 L 235,188 L 236,189 L 236,193 L 235,194 L 235,196 L 236,197 L 236,198 L 235,199 L 235,201 L 236,201 L 237,202 L 245,202 L 246,203 L 247,203 L 248,204 L 250,204 L 252,202 L 252,199 L 254,197 L 254,187 L 256,185 L 256,183 L 258,181 L 258,173 L 256,171 L 256,170 L 254,168 L 254,164 L 253,163 L 253,160 L 250,157 L 250,156 Z" fill="none" stroke="black" stroke-width="1"/>
</svg>