<svg xmlns="http://www.w3.org/2000/svg" width="304" height="349">
  <path d="M 208,120 L 207,121 L 204,121 L 203,122 L 200,122 L 198,124 L 197,124 L 197,125 L 195,127 L 195,129 L 193,131 L 193,133 L 194,134 L 194,136 L 198,136 L 199,137 L 200,137 L 201,138 L 202,138 L 203,139 L 204,139 L 206,141 L 207,141 L 208,142 L 210,142 L 211,143 L 217,143 L 220,146 L 221,146 L 222,147 L 223,146 L 231,154 L 231,153 L 232,152 L 232,151 L 233,150 L 233,147 L 232,146 L 232,141 L 228,137 L 228,133 L 227,132 L 224,132 L 223,131 L 223,129 L 222,128 L 222,127 L 217,122 L 216,122 L 214,120 Z" fill="none" stroke="black" stroke-width="1"/>
</svg>