<svg xmlns="http://www.w3.org/2000/svg" width="304" height="349">
  <path d="M 232,128 L 231,129 L 230,129 L 228,131 L 228,132 L 229,133 L 229,137 L 233,141 L 233,146 L 234,147 L 234,150 L 233,151 L 233,152 L 232,153 L 232,155 L 236,159 L 236,161 L 239,161 L 240,160 L 243,160 L 244,159 L 245,159 L 246,158 L 247,158 L 248,157 L 248,154 L 250,152 L 250,151 L 252,149 L 252,146 L 253,145 L 255,145 L 255,137 L 256,136 L 257,136 L 252,131 L 252,130 L 251,129 L 244,129 L 243,128 L 242,128 L 241,129 L 234,129 L 233,128 Z" fill="none" stroke="black" stroke-width="1"/>
</svg>