<svg xmlns="http://www.w3.org/2000/svg" width="304" height="349">
  <path d="M 256,139 L 256,145 L 255,146 L 253,146 L 253,149 L 251,151 L 251,152 L 249,154 L 249,155 L 250,155 L 251,156 L 251,157 L 254,160 L 254,163 L 255,164 L 255,168 L 256,168 L 257,167 L 257,166 L 258,165 L 259,165 L 261,163 L 262,163 L 263,162 L 265,162 L 265,160 L 266,159 L 266,156 L 268,154 L 268,153 L 269,152 L 269,151 L 271,149 L 271,145 L 272,144 L 272,141 L 271,140 L 270,140 L 269,139 L 268,140 L 267,140 L 266,141 L 262,141 L 261,140 L 260,140 L 259,139 Z" fill="none" stroke="black" stroke-width="1"/>
</svg>