<svg xmlns="http://www.w3.org/2000/svg" width="258" height="263">
  <path d="M 78,0 L 77,1 L 76,1 L 76,2 L 77,3 L 77,4 L 78,5 L 78,15 L 75,18 L 75,19 L 76,20 L 76,21 L 77,21 L 80,24 L 80,30 L 79,31 L 79,32 L 77,34 L 80,37 L 81,37 L 82,38 L 84,38 L 85,39 L 86,39 L 87,40 L 90,40 L 91,41 L 94,41 L 95,40 L 96,40 L 98,38 L 99,38 L 100,37 L 104,37 L 106,35 L 106,32 L 105,31 L 105,29 L 106,28 L 106,26 L 107,25 L 107,18 L 109,16 L 109,14 L 107,14 L 106,13 L 100,13 L 98,11 L 97,11 L 92,6 L 91,6 L 88,3 L 88,1 L 87,0 Z" fill="none" stroke="black" stroke-width="1"/>
</svg>