<svg xmlns="http://www.w3.org/2000/svg" width="258" height="263">
  <path d="M 106,53 L 106,55 L 105,56 L 102,56 L 102,57 L 103,58 L 103,61 L 104,62 L 104,68 L 102,70 L 102,71 L 100,73 L 100,74 L 99,75 L 99,78 L 98,79 L 98,80 L 96,82 L 96,83 L 94,85 L 94,86 L 96,88 L 96,92 L 94,94 L 93,94 L 95,96 L 95,97 L 99,101 L 107,101 L 108,100 L 114,100 L 115,99 L 116,99 L 117,98 L 118,98 L 119,97 L 120,97 L 121,96 L 122,96 L 127,91 L 128,91 L 129,90 L 131,90 L 132,89 L 132,88 L 133,87 L 134,87 L 134,85 L 133,84 L 133,83 L 131,81 L 130,81 L 129,80 L 129,79 L 121,71 L 121,70 L 120,69 L 120,67 L 119,66 L 119,65 L 118,64 L 118,63 L 117,62 L 117,61 L 118,60 L 117,59 L 116,59 L 114,57 L 113,57 L 112,56 L 111,56 L 109,54 L 108,54 L 107,53 Z" fill="none" stroke="black" stroke-width="1"/>
</svg>