<svg xmlns="http://www.w3.org/2000/svg" width="258" height="263">
  <path d="M 76,106 L 74,108 L 73,108 L 72,109 L 71,109 L 72,109 L 76,113 L 77,113 L 80,116 L 80,118 L 83,121 L 83,124 L 84,125 L 84,127 L 85,127 L 86,128 L 86,134 L 87,134 L 88,135 L 89,135 L 90,136 L 91,136 L 93,138 L 96,138 L 98,140 L 99,139 L 100,140 L 103,140 L 105,142 L 106,142 L 110,138 L 111,138 L 113,136 L 113,135 L 114,134 L 114,132 L 115,131 L 116,131 L 116,129 L 117,128 L 120,128 L 121,127 L 123,127 L 123,124 L 122,123 L 122,122 L 117,117 L 117,116 L 116,116 L 115,115 L 109,115 L 107,113 L 106,113 L 105,112 L 103,114 L 98,114 L 97,113 L 96,113 L 95,112 L 93,112 L 91,110 L 90,111 L 87,111 L 86,110 L 85,110 L 82,107 L 80,107 L 79,106 Z" fill="none" stroke="black" stroke-width="1"/>
</svg>