<svg xmlns="http://www.w3.org/2000/svg" width="258" height="263">
  <path d="M 197,179 L 197,183 L 198,183 L 198,179 Z" fill="none" stroke="black" stroke-width="1"/>
  <path d="M 162,153 L 161,154 L 161,156 L 159,158 L 159,164 L 161,166 L 163,166 L 166,169 L 166,178 L 167,179 L 167,180 L 168,180 L 170,182 L 170,184 L 174,188 L 176,188 L 177,189 L 180,189 L 182,191 L 183,191 L 184,192 L 184,193 L 185,193 L 186,192 L 189,192 L 190,193 L 192,193 L 193,194 L 194,194 L 195,195 L 198,195 L 199,194 L 200,194 L 200,193 L 199,194 L 197,192 L 197,189 L 196,188 L 196,187 L 195,186 L 195,181 L 194,181 L 193,180 L 194,179 L 193,178 L 193,177 L 194,176 L 195,176 L 195,173 L 193,173 L 190,170 L 191,169 L 192,169 L 193,170 L 194,170 L 195,171 L 196,170 L 197,171 L 197,172 L 197,170 L 196,169 L 197,168 L 198,168 L 197,167 L 198,166 L 199,166 L 198,166 L 195,163 L 195,162 L 191,162 L 190,161 L 190,159 L 189,159 L 188,158 L 188,157 L 184,153 L 178,153 L 176,155 L 173,155 L 172,156 L 170,156 L 168,154 L 167,154 L 166,153 Z" fill="none" stroke="black" stroke-width="1"/>
</svg>