<svg xmlns="http://www.w3.org/2000/svg" width="258" height="263">
  <path d="M 130,59 L 129,60 L 119,60 L 118,61 L 118,62 L 119,63 L 119,64 L 120,65 L 120,66 L 121,67 L 121,69 L 122,70 L 122,71 L 130,79 L 130,80 L 131,80 L 134,83 L 134,84 L 135,85 L 135,87 L 136,87 L 139,90 L 140,90 L 142,92 L 143,92 L 145,94 L 146,94 L 147,95 L 147,96 L 152,101 L 152,105 L 153,105 L 154,106 L 155,106 L 156,107 L 156,108 L 157,109 L 157,112 L 158,112 L 159,111 L 159,110 L 160,109 L 160,108 L 162,106 L 163,106 L 164,105 L 165,105 L 165,102 L 166,101 L 166,100 L 167,99 L 167,98 L 166,97 L 167,96 L 167,94 L 166,93 L 166,92 L 162,88 L 162,87 L 161,86 L 161,83 L 157,79 L 157,76 L 156,75 L 156,74 L 155,73 L 155,72 L 154,71 L 154,70 L 153,70 L 150,67 L 149,67 L 148,66 L 147,66 L 146,65 L 145,65 L 142,62 L 141,62 L 140,61 L 138,61 L 137,60 L 137,59 Z" fill="none" stroke="black" stroke-width="1"/>
</svg>