<svg xmlns="http://www.w3.org/2000/svg" width="1028" height="413">
  <path d="M 575,345 L 574,346 L 571,346 L 571,347 L 572,348 L 572,349 L 571,350 L 572,351 L 572,352 L 574,354 L 574,355 L 575,356 L 575,357 L 576,357 L 579,360 L 579,361 L 580,362 L 580,363 L 583,363 L 584,364 L 584,368 L 585,368 L 586,369 L 586,370 L 587,370 L 588,371 L 589,371 L 591,369 L 591,366 L 590,365 L 590,364 L 589,363 L 589,360 L 588,359 L 588,356 L 585,353 L 585,352 L 584,352 L 583,351 L 582,351 L 581,350 L 581,347 L 580,346 L 579,346 L 578,345 Z" fill="none" stroke="black" stroke-width="1"/>
</svg>