<svg xmlns="http://www.w3.org/2000/svg" width="191" height="202">
  <path d="M 109,37 L 107,39 L 103,39 L 102,40 L 103,41 L 103,43 L 104,44 L 105,43 L 106,43 L 108,45 L 109,45 L 111,47 L 111,48 L 113,50 L 112,51 L 111,51 L 110,52 L 107,52 L 106,53 L 106,54 L 107,54 L 108,55 L 109,55 L 110,56 L 110,57 L 111,58 L 113,58 L 114,59 L 114,63 L 115,64 L 119,64 L 120,63 L 121,63 L 122,62 L 123,62 L 123,59 L 124,58 L 125,58 L 128,55 L 128,53 L 129,52 L 129,51 L 130,50 L 130,47 L 135,42 L 134,41 L 134,39 L 133,39 L 131,37 L 130,37 L 129,38 L 123,38 L 122,37 L 117,37 L 116,38 L 113,38 L 112,37 Z" fill="none" stroke="black" stroke-width="1"/>
</svg>