<svg xmlns="http://www.w3.org/2000/svg" width="361" height="306">
  <path d="M 42,6 L 41,7 L 35,7 L 33,9 L 32,9 L 30,11 L 29,11 L 27,13 L 26,13 L 25,14 L 16,14 L 15,15 L 13,15 L 12,16 L 1,16 L 0,17 L 0,18 L 1,19 L 2,19 L 3,20 L 4,20 L 8,24 L 8,30 L 9,31 L 9,34 L 11,36 L 15,36 L 16,37 L 17,37 L 22,42 L 23,42 L 25,44 L 25,46 L 29,46 L 30,47 L 31,47 L 32,48 L 33,48 L 34,49 L 36,49 L 40,53 L 40,54 L 41,54 L 42,55 L 45,55 L 49,59 L 49,61 L 52,61 L 57,56 L 58,56 L 59,55 L 60,55 L 64,51 L 64,49 L 65,48 L 68,48 L 69,47 L 69,43 L 68,42 L 68,41 L 67,40 L 67,39 L 66,38 L 66,36 L 65,36 L 64,35 L 63,35 L 62,34 L 61,34 L 58,31 L 58,30 L 57,29 L 57,27 L 56,26 L 56,18 L 57,17 L 56,17 L 55,16 L 55,12 L 56,11 L 56,9 L 54,9 L 53,10 L 47,10 L 46,9 L 44,9 L 43,8 L 43,6 Z" fill="none" stroke="black" stroke-width="1"/>
</svg>