<svg xmlns="http://www.w3.org/2000/svg" width="361" height="306">
  <path d="M 95,79 L 94,80 L 93,80 L 92,81 L 91,81 L 90,82 L 88,82 L 87,83 L 85,83 L 84,84 L 73,84 L 72,85 L 69,85 L 68,86 L 67,86 L 66,87 L 59,87 L 58,88 L 55,88 L 55,89 L 54,90 L 53,90 L 51,92 L 51,93 L 48,96 L 51,96 L 53,98 L 54,98 L 56,100 L 58,100 L 59,101 L 60,101 L 62,103 L 63,103 L 64,104 L 65,104 L 72,111 L 73,111 L 77,115 L 78,115 L 79,116 L 80,116 L 81,117 L 83,117 L 87,121 L 88,121 L 90,123 L 95,123 L 96,124 L 98,124 L 97,123 L 97,122 L 98,121 L 98,119 L 100,117 L 100,113 L 102,111 L 102,110 L 106,106 L 108,106 L 109,105 L 108,104 L 108,102 L 109,101 L 109,98 L 111,96 L 111,95 L 115,91 L 117,91 L 118,90 L 119,90 L 120,89 L 121,89 L 122,88 L 121,88 L 117,84 L 117,83 L 107,83 L 106,82 L 106,80 L 98,80 L 97,79 Z" fill="none" stroke="black" stroke-width="1"/>
</svg>