<svg xmlns="http://www.w3.org/2000/svg" width="361" height="306">
  <path d="M 151,83 L 150,84 L 147,84 L 145,86 L 144,86 L 143,87 L 142,87 L 141,88 L 130,88 L 129,89 L 122,89 L 121,90 L 120,90 L 119,91 L 118,91 L 117,92 L 115,92 L 112,95 L 112,96 L 110,98 L 110,101 L 109,102 L 109,104 L 111,104 L 112,103 L 115,106 L 116,106 L 117,107 L 118,107 L 119,108 L 120,108 L 124,112 L 125,112 L 127,114 L 127,115 L 128,116 L 128,119 L 129,120 L 137,120 L 138,121 L 138,122 L 139,123 L 142,123 L 143,122 L 146,122 L 147,123 L 147,124 L 151,128 L 151,129 L 154,132 L 154,133 L 155,134 L 155,136 L 156,137 L 158,137 L 159,136 L 160,136 L 161,135 L 161,132 L 160,131 L 162,129 L 162,128 L 163,127 L 163,125 L 164,124 L 164,116 L 163,115 L 163,113 L 162,112 L 162,111 L 161,110 L 161,109 L 160,108 L 160,107 L 159,106 L 159,101 L 158,100 L 158,99 L 157,98 L 157,95 L 158,94 L 157,94 L 156,93 L 156,90 L 157,89 L 157,85 L 155,83 Z" fill="none" stroke="black" stroke-width="1"/>
</svg>