<svg xmlns="http://www.w3.org/2000/svg" width="1133" height="465">
  <path d="M 1059,379 L 1059,388 L 1060,388 L 1061,389 L 1061,390 L 1062,391 L 1062,393 L 1063,394 L 1063,395 L 1064,396 L 1064,403 L 1065,403 L 1069,407 L 1069,409 L 1068,410 L 1069,411 L 1069,413 L 1070,414 L 1070,416 L 1069,417 L 1072,420 L 1072,425 L 1076,429 L 1076,430 L 1077,431 L 1079,431 L 1080,432 L 1081,432 L 1082,431 L 1084,431 L 1085,432 L 1087,432 L 1088,433 L 1089,433 L 1090,434 L 1091,434 L 1094,437 L 1096,437 L 1097,438 L 1098,438 L 1099,439 L 1100,439 L 1101,440 L 1107,440 L 1108,439 L 1124,439 L 1125,440 L 1126,440 L 1127,441 L 1132,441 L 1132,438 L 1128,434 L 1128,433 L 1125,430 L 1125,429 L 1124,428 L 1124,425 L 1125,424 L 1124,423 L 1124,422 L 1122,420 L 1122,419 L 1121,418 L 1121,417 L 1113,409 L 1110,409 L 1109,408 L 1109,407 L 1108,407 L 1107,406 L 1102,406 L 1100,404 L 1099,404 L 1095,400 L 1093,400 L 1092,399 L 1091,399 L 1090,398 L 1089,398 L 1085,394 L 1084,394 L 1077,387 L 1076,387 L 1075,386 L 1074,386 L 1072,384 L 1071,384 L 1070,383 L 1068,383 L 1066,381 L 1065,381 L 1063,379 Z" fill="none" stroke="black" stroke-width="1"/>
</svg>