<svg xmlns="http://www.w3.org/2000/svg" width="361" height="306">
  <path d="M 126,160 L 125,161 L 123,161 L 123,163 L 124,164 L 124,168 L 127,171 L 127,172 L 131,176 L 131,177 L 132,178 L 132,179 L 133,180 L 134,180 L 135,181 L 136,181 L 137,182 L 139,182 L 140,183 L 141,183 L 143,185 L 143,186 L 145,188 L 145,190 L 150,190 L 151,191 L 154,191 L 155,192 L 171,192 L 173,194 L 174,194 L 175,195 L 176,195 L 177,196 L 178,196 L 179,197 L 181,197 L 182,198 L 183,198 L 184,199 L 185,199 L 186,200 L 186,201 L 187,202 L 189,202 L 191,200 L 191,196 L 187,192 L 187,191 L 186,190 L 186,174 L 183,171 L 182,172 L 179,172 L 178,173 L 173,173 L 172,172 L 172,171 L 164,171 L 159,166 L 159,165 L 158,164 L 156,166 L 153,166 L 152,165 L 150,165 L 149,164 L 147,164 L 146,163 L 144,163 L 143,162 L 141,162 L 140,163 L 134,163 L 133,162 L 132,162 L 131,161 L 130,161 L 129,160 Z" fill="none" stroke="black" stroke-width="1"/>
</svg>