<svg xmlns="http://www.w3.org/2000/svg" width="361" height="306">
  <path d="M 206,142 L 204,144 L 204,145 L 205,146 L 205,148 L 203,150 L 202,150 L 201,151 L 200,151 L 199,152 L 198,152 L 191,159 L 190,159 L 188,161 L 187,161 L 185,163 L 183,163 L 184,164 L 184,168 L 183,169 L 183,170 L 187,174 L 187,173 L 188,172 L 189,172 L 190,173 L 191,173 L 192,172 L 194,172 L 195,171 L 200,171 L 201,170 L 205,170 L 206,169 L 207,169 L 208,168 L 210,168 L 211,167 L 213,167 L 214,166 L 215,166 L 216,165 L 220,165 L 221,164 L 229,164 L 230,163 L 234,163 L 235,162 L 236,162 L 238,160 L 239,160 L 240,159 L 241,159 L 241,158 L 237,154 L 236,154 L 234,152 L 234,151 L 232,149 L 232,144 L 231,143 L 230,143 L 229,142 L 227,142 L 226,143 L 218,143 L 217,142 Z" fill="none" stroke="black" stroke-width="1"/>
</svg>