<svg xmlns="http://www.w3.org/2000/svg" width="259" height="209">
  <path d="M 15,32 L 14,33 L 14,34 L 13,35 L 12,35 L 12,38 L 14,40 L 14,41 L 15,42 L 15,43 L 16,44 L 16,47 L 17,48 L 17,49 L 18,50 L 18,52 L 17,53 L 17,60 L 18,61 L 18,65 L 14,69 L 14,71 L 19,71 L 20,72 L 23,72 L 24,73 L 25,73 L 26,72 L 27,72 L 27,71 L 28,70 L 29,70 L 31,68 L 32,68 L 33,67 L 34,67 L 35,66 L 37,66 L 38,65 L 39,65 L 40,64 L 40,60 L 39,59 L 39,58 L 42,55 L 44,55 L 45,54 L 46,54 L 47,53 L 48,53 L 50,51 L 50,50 L 49,49 L 51,47 L 53,47 L 53,46 L 52,45 L 52,43 L 51,42 L 51,40 L 50,39 L 47,39 L 46,38 L 45,38 L 44,37 L 41,37 L 40,36 L 31,36 L 30,35 L 26,35 L 25,34 L 24,34 L 22,32 Z" fill="none" stroke="black" stroke-width="1"/>
</svg>