<svg xmlns="http://www.w3.org/2000/svg" width="361" height="306">
  <path d="M 163,14 L 162,15 L 160,15 L 160,19 L 158,21 L 158,22 L 157,23 L 157,28 L 156,29 L 156,30 L 153,33 L 156,33 L 157,34 L 158,34 L 160,36 L 161,36 L 162,37 L 163,37 L 164,38 L 165,38 L 166,39 L 168,39 L 169,40 L 171,40 L 172,41 L 174,41 L 178,45 L 178,47 L 179,48 L 180,48 L 181,49 L 182,49 L 184,51 L 184,52 L 186,54 L 188,54 L 188,53 L 189,52 L 206,52 L 210,48 L 210,47 L 212,45 L 214,45 L 214,44 L 216,42 L 216,39 L 206,39 L 204,37 L 203,37 L 202,36 L 201,36 L 200,35 L 199,35 L 197,33 L 196,33 L 195,32 L 193,32 L 192,31 L 191,31 L 190,30 L 188,30 L 187,29 L 184,29 L 183,28 L 182,28 L 181,27 L 180,27 L 178,25 L 178,24 L 177,24 L 174,21 L 173,21 L 172,20 L 171,20 L 170,19 L 169,19 L 168,18 L 168,16 L 167,16 L 165,14 Z" fill="none" stroke="black" stroke-width="1"/>
</svg>