<svg xmlns="http://www.w3.org/2000/svg" width="191" height="202">
  <path d="M 101,40 L 98,43 L 96,43 L 97,44 L 96,45 L 96,46 L 95,47 L 94,47 L 91,50 L 90,50 L 88,48 L 88,47 L 90,45 L 91,45 L 90,45 L 89,44 L 87,44 L 85,46 L 84,46 L 83,47 L 82,47 L 80,49 L 78,49 L 76,47 L 75,47 L 75,48 L 76,49 L 75,50 L 74,50 L 72,52 L 72,53 L 71,54 L 74,54 L 75,55 L 74,56 L 72,56 L 73,57 L 72,58 L 67,58 L 66,59 L 69,59 L 72,62 L 74,62 L 75,63 L 79,59 L 80,59 L 81,60 L 82,60 L 83,61 L 85,61 L 86,60 L 90,60 L 91,59 L 92,59 L 92,58 L 93,57 L 95,57 L 97,55 L 101,55 L 102,54 L 105,54 L 105,53 L 107,51 L 110,51 L 111,50 L 112,50 L 110,48 L 110,47 L 109,46 L 108,46 L 106,44 L 105,44 L 104,45 L 102,43 L 102,41 Z" fill="none" stroke="black" stroke-width="1"/>
</svg>