<svg xmlns="http://www.w3.org/2000/svg" width="753" height="314">
  <path d="M 319,242 L 318,243 L 317,243 L 316,244 L 313,244 L 312,245 L 308,245 L 309,245 L 310,246 L 310,248 L 311,248 L 312,249 L 313,249 L 314,250 L 315,250 L 318,253 L 319,253 L 320,254 L 320,255 L 321,256 L 322,256 L 323,257 L 324,257 L 325,258 L 328,258 L 329,259 L 331,259 L 332,260 L 333,260 L 334,261 L 336,261 L 337,262 L 338,262 L 340,264 L 341,264 L 342,265 L 343,265 L 344,266 L 345,266 L 347,268 L 359,268 L 360,267 L 361,267 L 362,266 L 366,266 L 371,271 L 371,274 L 372,275 L 374,273 L 375,273 L 376,272 L 377,272 L 379,270 L 379,269 L 381,267 L 381,265 L 382,264 L 382,263 L 383,262 L 383,260 L 384,259 L 383,258 L 383,256 L 382,256 L 380,254 L 379,254 L 378,253 L 378,252 L 375,252 L 374,253 L 372,253 L 371,252 L 370,252 L 369,251 L 360,251 L 359,252 L 355,252 L 354,251 L 352,251 L 351,250 L 350,250 L 349,249 L 346,249 L 345,250 L 344,249 L 342,249 L 340,247 L 339,247 L 337,245 L 328,245 L 327,244 L 326,244 L 324,242 Z" fill="none" stroke="black" stroke-width="1"/>
</svg>