<svg xmlns="http://www.w3.org/2000/svg" width="361" height="306">
  <path d="M 298,83 L 292,89 L 292,90 L 290,92 L 289,92 L 288,93 L 284,93 L 283,94 L 282,94 L 281,95 L 281,96 L 280,97 L 279,97 L 279,98 L 280,99 L 282,99 L 283,100 L 284,100 L 285,101 L 286,101 L 288,103 L 288,108 L 289,109 L 289,110 L 292,113 L 293,113 L 294,114 L 295,114 L 298,117 L 298,118 L 299,119 L 299,122 L 300,123 L 301,123 L 302,122 L 303,123 L 304,123 L 307,120 L 308,120 L 309,119 L 310,119 L 310,117 L 314,113 L 315,113 L 316,112 L 317,112 L 319,110 L 320,110 L 321,109 L 324,109 L 326,107 L 326,106 L 327,105 L 328,105 L 328,104 L 327,103 L 325,103 L 324,102 L 324,101 L 323,100 L 319,100 L 317,98 L 314,98 L 311,95 L 310,95 L 308,93 L 307,93 L 306,92 L 306,91 L 303,88 L 301,88 L 300,87 L 300,83 Z" fill="none" stroke="black" stroke-width="1"/>
</svg>