<svg xmlns="http://www.w3.org/2000/svg" width="361" height="306">
  <path d="M 321,155 L 320,156 L 319,156 L 317,158 L 316,158 L 314,160 L 313,160 L 312,161 L 310,161 L 308,163 L 308,164 L 307,165 L 307,169 L 308,170 L 308,171 L 309,172 L 308,173 L 308,178 L 307,179 L 308,179 L 309,180 L 309,181 L 313,181 L 314,182 L 314,183 L 316,183 L 318,185 L 319,185 L 319,184 L 320,183 L 325,183 L 327,185 L 335,185 L 336,184 L 338,186 L 338,187 L 339,188 L 341,188 L 341,182 L 342,181 L 342,180 L 341,180 L 340,179 L 340,178 L 339,177 L 339,176 L 338,175 L 338,173 L 337,172 L 337,170 L 336,169 L 336,168 L 334,166 L 334,165 L 331,162 L 329,162 L 327,160 L 327,159 L 325,157 L 325,155 Z" fill="none" stroke="black" stroke-width="1"/>
</svg>