<svg xmlns="http://www.w3.org/2000/svg" width="259" height="209">
  <path d="M 85,46 L 85,47 L 82,50 L 82,51 L 80,53 L 78,53 L 77,54 L 76,54 L 75,53 L 74,53 L 74,55 L 72,57 L 71,57 L 71,59 L 72,60 L 72,61 L 75,64 L 75,65 L 76,66 L 76,68 L 77,69 L 77,71 L 80,74 L 80,77 L 82,79 L 82,83 L 83,84 L 83,86 L 84,87 L 84,88 L 86,90 L 87,90 L 88,91 L 89,91 L 90,92 L 90,93 L 92,91 L 92,90 L 93,89 L 94,89 L 94,88 L 95,87 L 95,84 L 96,83 L 96,80 L 97,79 L 98,79 L 98,77 L 100,75 L 101,75 L 101,74 L 103,72 L 103,71 L 104,70 L 104,68 L 102,68 L 101,67 L 100,67 L 99,66 L 99,61 L 98,61 L 97,60 L 97,56 L 96,55 L 95,55 L 94,54 L 94,53 L 93,53 L 91,51 L 89,51 L 86,48 L 86,46 Z" fill="none" stroke="black" stroke-width="1"/>
</svg>