<svg xmlns="http://www.w3.org/2000/svg" width="259" height="209">
  <path d="M 15,72 L 14,73 L 14,74 L 13,75 L 13,80 L 14,80 L 15,81 L 15,84 L 16,85 L 16,87 L 17,88 L 17,91 L 18,92 L 18,93 L 19,94 L 19,96 L 20,97 L 19,98 L 19,99 L 37,99 L 38,100 L 39,100 L 40,101 L 41,101 L 42,102 L 44,102 L 45,103 L 47,103 L 48,102 L 48,101 L 49,100 L 50,100 L 50,99 L 52,97 L 53,97 L 55,95 L 55,94 L 59,90 L 60,90 L 62,88 L 63,88 L 65,86 L 65,84 L 64,83 L 64,82 L 63,81 L 63,78 L 60,78 L 59,77 L 57,77 L 56,76 L 52,76 L 51,75 L 44,75 L 43,74 L 37,74 L 35,76 L 33,76 L 32,77 L 31,77 L 30,76 L 30,75 L 29,74 L 28,74 L 27,73 L 26,73 L 25,74 L 24,74 L 23,73 L 20,73 L 19,72 Z" fill="none" stroke="black" stroke-width="1"/>
</svg>