<svg xmlns="http://www.w3.org/2000/svg" width="259" height="209">
  <path d="M 59,199 L 59,200 L 60,200 L 61,201 L 62,201 L 63,200 L 62,200 L 61,199 Z" fill="none" stroke="black" stroke-width="1"/>
  <path d="M 35,175 L 35,179 L 34,180 L 34,182 L 33,183 L 34,184 L 34,188 L 33,189 L 33,190 L 32,191 L 32,194 L 31,195 L 32,196 L 43,196 L 44,197 L 45,197 L 47,199 L 51,199 L 52,200 L 55,200 L 56,199 L 57,199 L 55,197 L 56,196 L 57,196 L 58,195 L 61,195 L 62,196 L 64,196 L 66,198 L 66,200 L 67,200 L 67,196 L 66,195 L 66,194 L 60,188 L 60,187 L 58,185 L 58,184 L 55,181 L 55,179 L 53,179 L 52,178 L 49,178 L 48,177 L 47,177 L 46,178 L 43,178 L 41,176 L 40,176 L 39,175 Z" fill="none" stroke="black" stroke-width="1"/>
</svg>