<svg xmlns="http://www.w3.org/2000/svg" width="219" height="224">
  <path d="M 53,35 L 52,36 L 51,36 L 50,37 L 48,37 L 47,38 L 44,38 L 43,39 L 41,39 L 40,40 L 37,40 L 36,41 L 35,41 L 35,42 L 34,43 L 33,43 L 34,44 L 34,45 L 33,46 L 33,47 L 32,48 L 31,48 L 31,50 L 30,51 L 30,53 L 29,54 L 28,54 L 27,55 L 26,55 L 25,56 L 25,60 L 26,61 L 27,61 L 28,62 L 27,63 L 26,63 L 26,67 L 27,68 L 27,70 L 29,72 L 29,76 L 28,77 L 29,78 L 29,79 L 31,79 L 33,81 L 33,82 L 34,82 L 35,83 L 36,83 L 37,84 L 38,84 L 39,83 L 42,83 L 43,82 L 44,82 L 47,79 L 48,79 L 47,78 L 47,75 L 49,73 L 50,73 L 51,72 L 51,71 L 54,68 L 55,68 L 56,67 L 57,67 L 58,66 L 59,66 L 60,65 L 61,65 L 61,61 L 62,60 L 63,60 L 64,59 L 64,58 L 65,57 L 65,52 L 67,50 L 69,50 L 70,49 L 71,49 L 72,48 L 77,48 L 76,47 L 75,47 L 74,46 L 73,46 L 72,45 L 70,45 L 68,43 L 67,43 L 66,42 L 66,41 L 63,41 L 62,42 L 60,42 L 58,40 L 57,40 L 56,41 L 55,41 L 54,40 L 55,39 L 55,38 L 56,37 L 56,35 Z" fill="none" stroke="black" stroke-width="1"/>
</svg>