<svg xmlns="http://www.w3.org/2000/svg" width="219" height="224">
  <path d="M 106,143 L 104,145 L 103,145 L 100,148 L 99,148 L 97,150 L 96,150 L 94,152 L 95,153 L 95,155 L 94,156 L 94,158 L 93,159 L 93,160 L 91,162 L 91,166 L 90,167 L 90,171 L 89,172 L 89,178 L 88,179 L 89,180 L 89,181 L 90,182 L 90,184 L 91,185 L 91,187 L 90,188 L 90,190 L 91,191 L 93,189 L 94,189 L 95,188 L 96,188 L 99,185 L 99,184 L 100,183 L 102,183 L 103,182 L 104,182 L 104,179 L 105,178 L 104,177 L 105,176 L 105,173 L 107,171 L 106,170 L 106,169 L 107,168 L 107,167 L 108,166 L 108,160 L 109,159 L 109,153 L 108,153 L 107,152 L 109,150 L 109,145 L 108,145 L 107,144 L 107,143 Z" fill="none" stroke="black" stroke-width="1"/>
</svg>