<svg xmlns="http://www.w3.org/2000/svg" width="219" height="224">
  <path d="M 103,183 L 102,184 L 100,184 L 100,185 L 96,189 L 95,189 L 94,190 L 93,190 L 91,192 L 90,191 L 89,191 L 89,192 L 88,193 L 88,198 L 87,199 L 87,200 L 86,201 L 86,202 L 85,203 L 85,204 L 84,205 L 84,206 L 83,207 L 83,208 L 81,210 L 81,211 L 79,213 L 79,215 L 78,216 L 78,222 L 79,222 L 80,223 L 81,223 L 81,221 L 82,220 L 83,220 L 84,219 L 87,219 L 88,220 L 89,220 L 90,221 L 92,221 L 92,215 L 93,214 L 96,214 L 97,215 L 98,214 L 98,211 L 99,210 L 99,209 L 98,208 L 99,207 L 99,206 L 100,205 L 100,204 L 101,203 L 101,201 L 104,198 L 104,197 L 105,196 L 105,195 L 106,194 L 106,192 L 107,191 L 107,186 L 105,184 L 105,183 Z" fill="none" stroke="black" stroke-width="1"/>
</svg>