<svg xmlns="http://www.w3.org/2000/svg" width="191" height="202">
  <path d="M 46,52 L 46,54 L 47,54 L 47,52 Z" fill="none" stroke="black" stroke-width="1"/>
  <path d="M 47,42 L 47,43 L 48,44 L 46,46 L 46,48 L 47,48 L 48,49 L 49,49 L 49,44 L 50,43 L 50,42 Z" fill="none" stroke="black" stroke-width="1"/>
  <path d="M 50,37 L 49,38 L 46,38 L 46,39 L 48,39 L 49,40 L 51,40 L 51,39 L 52,38 L 51,37 Z" fill="none" stroke="black" stroke-width="1"/>
  <path d="M 65,18 L 65,19 L 64,20 L 63,20 L 62,21 L 61,21 L 60,22 L 59,22 L 58,23 L 57,23 L 57,24 L 58,25 L 57,26 L 56,26 L 55,27 L 54,26 L 54,25 L 53,25 L 52,26 L 52,28 L 53,29 L 52,30 L 52,31 L 54,31 L 55,32 L 54,33 L 52,33 L 52,34 L 53,34 L 54,35 L 55,35 L 56,34 L 57,34 L 58,33 L 57,32 L 57,30 L 58,29 L 59,30 L 59,31 L 60,31 L 61,32 L 61,31 L 63,29 L 63,28 L 62,27 L 64,25 L 65,26 L 66,26 L 66,25 L 64,25 L 63,24 L 64,23 L 65,23 L 65,22 L 66,21 L 66,18 Z" fill="none" stroke="black" stroke-width="1"/>
</svg>