<svg xmlns="http://www.w3.org/2000/svg" width="219" height="224">
  <path d="M 162,64 L 159,67 L 158,67 L 158,68 L 157,69 L 157,72 L 158,73 L 158,77 L 155,80 L 155,81 L 153,83 L 152,83 L 152,84 L 151,85 L 151,86 L 146,91 L 146,95 L 145,96 L 145,101 L 146,101 L 147,102 L 147,104 L 148,104 L 150,106 L 151,106 L 152,107 L 152,108 L 154,110 L 155,110 L 156,111 L 158,111 L 159,112 L 166,112 L 167,111 L 168,111 L 169,110 L 171,110 L 172,109 L 185,109 L 185,108 L 184,107 L 184,102 L 183,101 L 183,98 L 182,97 L 182,94 L 181,93 L 181,92 L 180,92 L 179,91 L 177,91 L 176,92 L 173,92 L 172,93 L 171,93 L 172,94 L 171,95 L 170,95 L 170,96 L 167,99 L 165,99 L 164,98 L 163,98 L 162,97 L 162,94 L 163,93 L 163,92 L 164,91 L 166,91 L 168,89 L 168,87 L 169,86 L 170,86 L 171,85 L 171,83 L 172,82 L 172,75 L 171,75 L 170,74 L 170,72 L 171,71 L 172,72 L 172,70 L 170,68 L 170,67 L 169,66 L 167,66 L 166,65 L 164,65 L 163,64 Z" fill="none" stroke="black" stroke-width="1"/>
</svg>