<svg xmlns="http://www.w3.org/2000/svg" width="219" height="224">
  <path d="M 144,102 L 142,104 L 138,104 L 137,105 L 136,105 L 136,106 L 135,107 L 134,107 L 133,108 L 127,108 L 127,119 L 126,120 L 126,123 L 124,125 L 125,125 L 126,126 L 127,126 L 128,127 L 129,126 L 130,127 L 134,127 L 135,128 L 139,128 L 140,129 L 145,129 L 147,127 L 148,127 L 150,125 L 150,123 L 149,122 L 153,118 L 153,117 L 156,114 L 159,114 L 159,113 L 158,112 L 156,112 L 155,111 L 154,111 L 151,108 L 151,107 L 150,107 L 148,105 L 147,105 L 146,104 L 146,102 Z" fill="none" stroke="black" stroke-width="1"/>
</svg>