<svg xmlns="http://www.w3.org/2000/svg" width="219" height="224">
  <path d="M 119,169 L 119,170 L 115,174 L 114,174 L 113,175 L 112,175 L 111,176 L 109,176 L 108,177 L 105,177 L 106,178 L 105,179 L 105,182 L 106,183 L 106,184 L 108,186 L 108,191 L 107,192 L 107,194 L 106,195 L 106,196 L 105,197 L 105,198 L 102,201 L 102,203 L 101,204 L 101,205 L 100,206 L 100,207 L 99,208 L 100,208 L 101,207 L 103,207 L 104,206 L 105,207 L 106,206 L 111,206 L 112,207 L 113,207 L 115,205 L 117,205 L 117,204 L 118,203 L 118,201 L 119,200 L 119,197 L 120,196 L 120,194 L 121,193 L 121,192 L 122,191 L 122,190 L 127,185 L 127,183 L 126,182 L 126,181 L 123,178 L 123,177 L 122,176 L 122,174 L 121,173 L 121,170 L 120,170 Z" fill="none" stroke="black" stroke-width="1"/>
</svg>