<svg xmlns="http://www.w3.org/2000/svg" width="219" height="224">
  <path d="M 151,160 L 151,163 L 150,164 L 150,165 L 147,168 L 145,168 L 144,169 L 143,169 L 141,171 L 140,171 L 138,173 L 137,173 L 135,175 L 135,179 L 132,182 L 132,183 L 130,185 L 128,185 L 123,190 L 123,191 L 122,192 L 122,193 L 121,194 L 121,196 L 120,197 L 120,200 L 119,201 L 119,203 L 118,204 L 118,205 L 119,205 L 120,206 L 121,206 L 124,203 L 124,202 L 125,201 L 126,201 L 127,202 L 127,205 L 130,205 L 131,204 L 132,204 L 132,200 L 133,199 L 136,199 L 137,198 L 137,196 L 139,194 L 140,194 L 140,192 L 141,191 L 145,191 L 146,190 L 148,190 L 149,189 L 149,187 L 148,186 L 148,183 L 149,182 L 149,177 L 151,175 L 151,172 L 150,171 L 150,169 L 151,168 L 151,167 L 152,166 L 152,164 L 153,163 L 153,162 Z" fill="none" stroke="black" stroke-width="1"/>
</svg>