<svg xmlns="http://www.w3.org/2000/svg" width="219" height="224">
  <path d="M 167,175 L 166,176 L 164,176 L 162,178 L 161,178 L 160,179 L 159,179 L 158,180 L 157,180 L 157,182 L 155,184 L 154,184 L 155,184 L 156,185 L 157,185 L 158,186 L 158,187 L 159,188 L 159,189 L 160,190 L 163,190 L 165,192 L 169,192 L 170,191 L 172,191 L 173,192 L 176,192 L 177,191 L 178,192 L 179,192 L 180,191 L 181,192 L 181,194 L 183,194 L 184,195 L 185,195 L 186,196 L 186,197 L 187,196 L 189,196 L 189,194 L 191,192 L 191,188 L 192,187 L 193,187 L 193,185 L 192,185 L 191,184 L 191,183 L 185,177 L 184,177 L 183,176 L 175,176 L 174,175 Z" fill="none" stroke="black" stroke-width="1"/>
</svg>