<svg xmlns="http://www.w3.org/2000/svg" width="259" height="209">
  <path d="M 173,28 L 173,29 L 172,30 L 172,33 L 170,35 L 168,35 L 167,36 L 163,36 L 163,38 L 162,39 L 161,39 L 160,40 L 160,44 L 163,44 L 164,45 L 165,45 L 167,47 L 168,47 L 172,51 L 172,52 L 174,52 L 175,53 L 176,52 L 177,53 L 178,53 L 179,54 L 180,54 L 181,55 L 184,55 L 184,52 L 185,51 L 191,51 L 191,49 L 192,48 L 194,48 L 196,46 L 197,46 L 198,45 L 198,44 L 199,43 L 199,42 L 201,40 L 201,39 L 202,38 L 202,36 L 201,37 L 200,37 L 199,36 L 198,37 L 195,37 L 194,36 L 192,36 L 191,37 L 187,37 L 185,35 L 182,35 L 180,33 L 180,32 L 179,31 L 179,30 L 178,30 L 177,29 L 176,29 L 175,28 Z" fill="none" stroke="black" stroke-width="1"/>
</svg>