<svg xmlns="http://www.w3.org/2000/svg" width="259" height="209">
  <path d="M 87,104 L 86,105 L 85,105 L 84,106 L 83,106 L 83,110 L 82,111 L 82,112 L 81,113 L 81,119 L 79,121 L 79,122 L 78,123 L 77,123 L 75,125 L 74,125 L 74,126 L 73,127 L 73,137 L 74,137 L 75,138 L 75,139 L 77,139 L 78,140 L 79,140 L 80,141 L 81,140 L 82,140 L 86,136 L 87,136 L 88,135 L 91,135 L 92,136 L 92,138 L 92,137 L 94,135 L 94,134 L 97,131 L 97,126 L 95,124 L 95,122 L 96,121 L 96,120 L 97,119 L 97,118 L 98,117 L 98,116 L 99,115 L 99,111 L 97,109 L 96,109 L 95,110 L 93,108 L 91,108 Z" fill="none" stroke="black" stroke-width="1"/>
</svg>