<svg xmlns="http://www.w3.org/2000/svg" width="259" height="209">
  <path d="M 88,136 L 87,137 L 86,137 L 82,141 L 81,141 L 80,142 L 79,141 L 78,141 L 77,140 L 75,140 L 74,141 L 74,143 L 73,144 L 73,149 L 74,150 L 74,151 L 73,152 L 72,152 L 72,154 L 73,155 L 73,158 L 67,164 L 67,167 L 73,167 L 76,164 L 78,164 L 79,163 L 80,163 L 81,162 L 82,162 L 83,161 L 83,160 L 82,159 L 83,158 L 85,158 L 86,157 L 87,157 L 88,156 L 88,155 L 85,152 L 85,150 L 86,149 L 86,145 L 90,141 L 90,140 L 91,139 L 91,136 Z" fill="none" stroke="black" stroke-width="1"/>
</svg>