<svg xmlns="http://www.w3.org/2000/svg" width="185" height="128">
  <path d="M 17,16 L 17,20 L 16,21 L 13,21 L 12,22 L 11,22 L 11,26 L 12,27 L 12,29 L 13,30 L 13,31 L 15,31 L 16,32 L 16,33 L 18,35 L 18,36 L 17,37 L 19,39 L 19,40 L 20,40 L 21,39 L 22,39 L 24,41 L 24,42 L 25,43 L 27,43 L 28,44 L 29,44 L 30,43 L 33,43 L 34,42 L 34,41 L 33,40 L 33,36 L 31,34 L 31,31 L 32,30 L 32,27 L 33,26 L 33,23 L 34,22 L 34,21 L 36,19 L 34,17 L 32,19 L 31,19 L 30,18 L 24,18 L 23,17 L 21,17 L 20,16 Z" fill="none" stroke="black" stroke-width="1"/>
</svg>