<svg xmlns="http://www.w3.org/2000/svg" width="259" height="209">
  <path d="M 145,107 L 143,109 L 143,110 L 141,112 L 141,114 L 140,115 L 141,116 L 141,121 L 137,125 L 138,126 L 139,126 L 146,133 L 147,133 L 148,134 L 148,137 L 149,137 L 150,138 L 150,139 L 151,139 L 151,137 L 153,135 L 153,134 L 156,131 L 158,131 L 160,129 L 161,129 L 162,128 L 163,128 L 163,122 L 161,120 L 161,119 L 162,118 L 161,118 L 160,117 L 160,115 L 162,113 L 161,113 L 160,112 L 160,111 L 159,111 L 158,110 L 157,110 L 155,108 L 155,107 L 153,107 L 151,109 L 150,109 L 148,107 Z" fill="none" stroke="black" stroke-width="1"/>
</svg>