<svg xmlns="http://www.w3.org/2000/svg" width="259" height="209">
  <path d="M 133,127 L 132,128 L 124,128 L 123,129 L 122,129 L 121,130 L 120,130 L 119,131 L 118,131 L 118,132 L 117,133 L 116,133 L 116,135 L 115,136 L 115,138 L 114,139 L 114,141 L 115,142 L 115,145 L 113,147 L 113,152 L 112,153 L 112,155 L 111,156 L 111,158 L 113,156 L 114,156 L 115,155 L 116,155 L 118,153 L 123,153 L 126,150 L 127,150 L 128,149 L 131,149 L 134,146 L 137,146 L 138,145 L 140,145 L 141,146 L 145,146 L 146,145 L 146,143 L 148,141 L 148,140 L 149,139 L 149,138 L 148,138 L 147,137 L 147,134 L 146,134 L 139,127 Z" fill="none" stroke="black" stroke-width="1"/>
</svg>