<svg xmlns="http://www.w3.org/2000/svg" width="259" height="209">
  <path d="M 153,172 L 151,174 L 151,178 L 150,179 L 150,180 L 148,182 L 148,183 L 149,183 L 151,185 L 150,186 L 149,186 L 150,186 L 151,187 L 153,187 L 154,188 L 155,187 L 156,188 L 156,189 L 156,188 L 157,187 L 158,188 L 158,189 L 159,190 L 160,190 L 161,191 L 160,192 L 161,192 L 162,193 L 163,192 L 163,191 L 164,190 L 164,189 L 166,187 L 166,186 L 167,185 L 167,184 L 171,180 L 171,179 L 170,179 L 169,178 L 169,177 L 168,176 L 168,173 L 166,173 L 165,172 L 164,173 L 155,173 L 154,172 Z" fill="none" stroke="black" stroke-width="1"/>
</svg>