<svg xmlns="http://www.w3.org/2000/svg" width="169" height="255">
  <path d="M 51,160 L 51,166 L 50,167 L 49,167 L 47,169 L 46,169 L 42,173 L 42,175 L 43,175 L 44,176 L 44,178 L 45,179 L 46,179 L 49,182 L 49,183 L 50,184 L 53,184 L 54,185 L 54,186 L 55,187 L 55,188 L 58,188 L 60,186 L 60,185 L 61,184 L 61,183 L 62,182 L 63,182 L 64,181 L 65,181 L 65,178 L 64,177 L 64,175 L 62,173 L 62,171 L 59,168 L 59,167 L 58,166 L 58,164 L 59,163 L 59,161 L 58,160 Z" fill="none" stroke="black" stroke-width="1"/>
</svg>