<svg xmlns="http://www.w3.org/2000/svg" width="169" height="255">
  <path d="M 70,203 L 70,204 L 67,207 L 66,207 L 65,208 L 64,208 L 63,209 L 62,209 L 61,210 L 59,210 L 57,212 L 57,213 L 56,214 L 57,215 L 57,216 L 58,217 L 58,219 L 59,220 L 59,221 L 60,222 L 60,223 L 62,225 L 65,222 L 66,223 L 66,225 L 65,226 L 65,229 L 66,230 L 66,229 L 68,227 L 69,228 L 69,230 L 68,231 L 68,232 L 69,233 L 69,237 L 71,237 L 73,235 L 74,235 L 74,234 L 75,233 L 75,229 L 76,228 L 76,226 L 77,225 L 77,223 L 75,221 L 75,219 L 76,218 L 76,216 L 75,215 L 75,214 L 74,213 L 74,212 L 73,211 L 73,210 L 72,209 L 72,207 L 73,206 L 71,204 L 71,203 Z" fill="none" stroke="black" stroke-width="1"/>
</svg>