<svg xmlns="http://www.w3.org/2000/svg" width="169" height="255">
  <path d="M 81,221 L 81,222 L 80,223 L 78,223 L 78,225 L 77,226 L 77,228 L 76,229 L 76,233 L 75,234 L 75,235 L 74,236 L 73,236 L 71,238 L 70,238 L 70,240 L 73,240 L 74,241 L 75,241 L 77,243 L 77,245 L 79,247 L 79,248 L 80,249 L 80,250 L 82,250 L 83,251 L 83,252 L 82,253 L 81,253 L 80,252 L 79,252 L 79,253 L 80,254 L 81,254 L 82,253 L 87,253 L 88,252 L 90,252 L 91,251 L 92,252 L 92,251 L 91,250 L 91,249 L 92,248 L 92,245 L 94,243 L 94,242 L 95,241 L 95,234 L 96,233 L 96,229 L 94,229 L 93,228 L 89,228 L 88,227 L 87,227 L 83,223 L 82,223 L 81,222 Z" fill="none" stroke="black" stroke-width="1"/>
</svg>