<svg xmlns="http://www.w3.org/2000/svg" width="169" height="255">
  <path d="M 36,119 L 34,121 L 34,124 L 33,125 L 33,126 L 32,127 L 32,134 L 34,136 L 33,137 L 33,140 L 34,140 L 35,139 L 38,139 L 42,143 L 42,144 L 43,145 L 43,147 L 44,147 L 45,148 L 50,148 L 51,149 L 53,149 L 57,153 L 57,150 L 58,149 L 58,147 L 60,145 L 60,143 L 61,142 L 61,141 L 63,139 L 63,137 L 62,137 L 61,136 L 61,135 L 58,135 L 57,136 L 56,136 L 55,135 L 52,135 L 51,134 L 50,134 L 48,132 L 48,130 L 46,128 L 46,127 L 44,125 L 44,124 L 41,121 L 40,121 L 38,119 Z" fill="none" stroke="black" stroke-width="1"/>
</svg>