<svg xmlns="http://www.w3.org/2000/svg" width="169" height="255">
  <path d="M 39,98 L 38,99 L 38,100 L 37,101 L 37,103 L 36,104 L 35,104 L 34,105 L 34,109 L 35,110 L 35,113 L 36,114 L 36,116 L 35,117 L 35,119 L 36,118 L 38,118 L 40,120 L 41,120 L 45,124 L 45,125 L 47,127 L 47,128 L 49,130 L 49,132 L 50,133 L 51,133 L 52,134 L 55,134 L 56,135 L 57,135 L 58,134 L 60,134 L 60,131 L 59,130 L 59,125 L 60,124 L 58,122 L 58,121 L 57,120 L 57,118 L 56,117 L 56,115 L 55,114 L 55,112 L 50,107 L 50,106 L 44,100 L 44,99 L 43,98 Z" fill="none" stroke="black" stroke-width="1"/>
</svg>