<svg xmlns="http://www.w3.org/2000/svg" width="169" height="255">
  <path d="M 39,83 L 39,85 L 37,87 L 37,88 L 35,90 L 33,90 L 32,91 L 31,91 L 30,92 L 28,92 L 27,93 L 26,93 L 23,96 L 23,97 L 22,98 L 22,99 L 21,100 L 21,103 L 20,104 L 22,106 L 23,105 L 25,105 L 26,104 L 29,104 L 30,105 L 32,105 L 33,104 L 34,104 L 35,103 L 36,103 L 36,101 L 37,100 L 37,99 L 39,97 L 42,97 L 42,95 L 43,94 L 43,93 L 44,92 L 44,90 L 45,89 L 46,89 L 47,88 L 47,87 L 45,85 L 45,83 L 43,83 L 42,84 L 41,83 Z" fill="none" stroke="black" stroke-width="1"/>
</svg>