<svg xmlns="http://www.w3.org/2000/svg" width="169" height="255">
  <path d="M 82,113 L 80,115 L 79,115 L 78,116 L 73,116 L 73,117 L 74,117 L 75,118 L 75,122 L 76,123 L 76,124 L 77,124 L 78,125 L 79,125 L 80,126 L 80,132 L 82,134 L 84,134 L 84,133 L 85,132 L 86,132 L 84,130 L 84,127 L 85,126 L 86,127 L 86,128 L 86,126 L 87,125 L 90,125 L 91,126 L 90,127 L 89,127 L 88,128 L 88,130 L 89,130 L 90,129 L 90,127 L 91,126 L 92,126 L 93,125 L 94,125 L 95,124 L 97,124 L 98,123 L 98,122 L 97,121 L 97,118 L 96,117 L 91,117 L 90,118 L 89,117 L 88,117 L 87,116 L 86,116 L 85,115 L 84,115 Z" fill="none" stroke="black" stroke-width="1"/>
</svg>