<svg xmlns="http://www.w3.org/2000/svg" width="169" height="255">
  <path d="M 166,76 L 165,77 L 167,77 L 167,76 Z" fill="none" stroke="black" stroke-width="1"/>
  <path d="M 167,71 L 167,74 L 168,74 L 168,72 Z" fill="none" stroke="black" stroke-width="1"/>
  <path d="M 135,53 L 134,54 L 134,59 L 132,61 L 135,64 L 136,64 L 137,65 L 137,66 L 138,66 L 139,67 L 142,67 L 143,68 L 149,68 L 151,70 L 151,71 L 152,72 L 152,74 L 154,74 L 155,75 L 157,75 L 158,74 L 159,74 L 159,73 L 161,71 L 163,71 L 163,70 L 164,69 L 164,67 L 163,66 L 163,65 L 161,65 L 159,67 L 158,66 L 158,64 L 156,64 L 155,65 L 149,65 L 148,64 L 148,63 L 149,62 L 150,62 L 151,63 L 152,63 L 153,62 L 154,62 L 154,61 L 155,60 L 156,61 L 157,61 L 157,60 L 156,59 L 156,58 L 157,57 L 159,59 L 159,60 L 160,60 L 161,59 L 162,60 L 162,61 L 163,62 L 164,62 L 166,64 L 166,65 L 167,65 L 167,64 L 165,62 L 165,61 L 163,61 L 161,59 L 161,57 L 162,56 L 163,57 L 163,58 L 164,58 L 164,57 L 163,56 L 163,53 L 162,53 L 161,54 L 162,55 L 162,56 L 160,58 L 159,57 L 159,55 L 158,55 L 157,56 L 150,56 L 149,55 L 145,55 L 145,56 L 144,57 L 143,57 L 142,56 L 141,56 L 140,55 L 138,55 L 136,53 Z" fill="none" stroke="black" stroke-width="1"/>
</svg>