<svg xmlns="http://www.w3.org/2000/svg" width="169" height="255">
  <path d="M 87,35 L 84,38 L 83,38 L 81,40 L 76,40 L 75,39 L 72,39 L 71,38 L 68,38 L 67,39 L 66,39 L 64,41 L 63,41 L 61,43 L 60,43 L 59,44 L 58,44 L 57,45 L 56,45 L 54,47 L 54,48 L 53,49 L 52,49 L 57,49 L 58,50 L 59,50 L 60,51 L 63,51 L 64,52 L 75,52 L 76,51 L 78,51 L 79,50 L 80,50 L 81,51 L 83,51 L 84,50 L 85,50 L 86,51 L 86,52 L 87,52 L 87,51 L 88,50 L 88,46 L 87,45 L 87,38 L 88,37 L 88,35 Z" fill="none" stroke="black" stroke-width="1"/>
</svg>