<svg xmlns="http://www.w3.org/2000/svg" width="169" height="255">
  <path d="M 138,6 L 138,7 L 137,8 L 137,10 L 136,11 L 136,12 L 133,15 L 132,15 L 130,17 L 130,19 L 129,20 L 129,21 L 128,22 L 128,23 L 127,24 L 128,25 L 128,29 L 130,29 L 131,28 L 138,28 L 139,29 L 142,29 L 143,30 L 145,30 L 145,28 L 146,27 L 148,27 L 151,30 L 152,30 L 154,32 L 155,32 L 155,28 L 153,28 L 151,26 L 150,26 L 149,25 L 147,25 L 146,24 L 145,24 L 142,21 L 140,21 L 139,20 L 139,15 L 142,12 L 142,10 L 140,8 L 140,7 L 139,6 Z" fill="none" stroke="black" stroke-width="1"/>
</svg>