<svg xmlns="http://www.w3.org/2000/svg" width="259" height="209">
  <path d="M 233,7 L 231,9 L 231,11 L 232,11 L 233,12 L 233,13 L 232,14 L 233,15 L 233,19 L 232,20 L 230,20 L 230,21 L 229,22 L 229,23 L 228,24 L 224,24 L 223,25 L 221,25 L 221,26 L 220,27 L 220,30 L 223,33 L 225,33 L 227,35 L 227,36 L 230,39 L 230,38 L 233,35 L 236,35 L 237,34 L 239,34 L 240,33 L 240,32 L 243,29 L 243,27 L 244,26 L 245,26 L 246,25 L 253,25 L 253,24 L 257,20 L 258,20 L 258,19 L 256,19 L 255,18 L 248,18 L 247,19 L 245,19 L 244,18 L 242,18 L 241,17 L 240,17 L 238,15 L 238,14 L 237,13 L 237,8 L 236,7 Z" fill="none" stroke="black" stroke-width="1"/>
</svg>