<svg xmlns="http://www.w3.org/2000/svg" width="169" height="255">
  <path d="M 121,0 L 120,1 L 119,1 L 115,5 L 113,5 L 112,6 L 111,6 L 110,7 L 109,7 L 109,11 L 108,12 L 108,13 L 107,14 L 107,15 L 106,16 L 106,18 L 104,20 L 104,21 L 105,20 L 108,20 L 109,19 L 111,19 L 115,15 L 116,15 L 116,14 L 117,13 L 117,11 L 118,10 L 119,10 L 119,9 L 120,8 L 121,8 L 122,7 L 124,9 L 126,9 L 128,7 L 128,5 L 127,4 L 126,4 L 125,3 L 125,2 L 124,2 L 123,1 L 122,1 Z" fill="none" stroke="black" stroke-width="1"/>
</svg>