<svg xmlns="http://www.w3.org/2000/svg" width="217" height="184">
  <path d="M 47,149 L 46,150 L 45,150 L 44,151 L 43,151 L 42,150 L 39,150 L 38,151 L 28,151 L 27,152 L 22,152 L 22,153 L 21,154 L 20,154 L 17,157 L 17,163 L 18,163 L 19,162 L 20,162 L 21,161 L 22,161 L 23,160 L 24,160 L 25,159 L 27,159 L 31,155 L 32,155 L 33,154 L 34,155 L 35,155 L 36,156 L 37,156 L 38,157 L 38,158 L 39,158 L 40,159 L 52,159 L 58,153 L 58,150 L 56,150 L 55,149 Z" fill="none" stroke="black" stroke-width="1"/>
</svg>