<svg xmlns="http://www.w3.org/2000/svg" width="217" height="184">
  <path d="M 71,148 L 70,149 L 63,149 L 62,150 L 59,150 L 59,153 L 61,155 L 63,155 L 64,156 L 64,158 L 65,159 L 65,157 L 67,155 L 68,155 L 71,152 L 74,152 L 75,153 L 71,157 L 70,157 L 70,158 L 68,160 L 68,161 L 69,161 L 70,162 L 70,163 L 69,164 L 68,164 L 67,163 L 67,164 L 69,164 L 70,165 L 70,167 L 69,168 L 68,167 L 67,167 L 67,169 L 68,168 L 70,170 L 70,171 L 68,173 L 67,173 L 68,174 L 68,175 L 69,174 L 71,176 L 71,177 L 73,175 L 74,176 L 74,183 L 75,182 L 80,182 L 81,183 L 81,180 L 82,179 L 83,179 L 84,178 L 84,176 L 83,175 L 82,175 L 81,174 L 80,174 L 79,173 L 79,172 L 76,169 L 76,159 L 75,158 L 75,156 L 76,155 L 76,152 L 75,151 L 75,149 L 74,149 L 73,148 Z" fill="none" stroke="black" stroke-width="1"/>
</svg>