<svg xmlns="http://www.w3.org/2000/svg" width="217" height="184">
  <path d="M 19,128 L 18,129 L 16,129 L 15,130 L 14,130 L 12,132 L 12,133 L 10,135 L 7,135 L 4,132 L 3,132 L 3,133 L 1,135 L 1,139 L 0,140 L 1,141 L 1,146 L 2,147 L 2,148 L 3,149 L 4,149 L 5,150 L 7,150 L 8,151 L 10,151 L 11,150 L 17,150 L 17,147 L 18,146 L 18,145 L 20,143 L 20,142 L 21,141 L 21,139 L 22,138 L 22,137 L 24,135 L 23,134 L 23,132 L 24,131 L 24,129 L 22,129 L 21,128 Z" fill="none" stroke="black" stroke-width="1"/>
</svg>