<svg xmlns="http://www.w3.org/2000/svg" width="217" height="184">
  <path d="M 52,117 L 51,118 L 50,118 L 49,119 L 47,119 L 46,120 L 45,120 L 44,121 L 42,121 L 41,122 L 40,122 L 39,123 L 38,123 L 35,126 L 35,127 L 39,131 L 40,131 L 41,130 L 43,130 L 44,129 L 45,129 L 47,131 L 47,133 L 48,134 L 49,134 L 52,137 L 53,137 L 55,135 L 55,134 L 58,131 L 59,131 L 62,128 L 65,128 L 66,127 L 67,127 L 68,126 L 70,126 L 70,123 L 69,122 L 69,121 L 66,121 L 65,120 L 61,120 L 59,118 L 53,118 Z" fill="none" stroke="black" stroke-width="1"/>
</svg>