<svg xmlns="http://www.w3.org/2000/svg" width="217" height="184">
  <path d="M 165,119 L 164,120 L 163,120 L 165,120 Z" fill="none" stroke="black" stroke-width="1"/>
  <path d="M 155,117 L 153,119 L 157,119 L 157,117 Z" fill="none" stroke="black" stroke-width="1"/>
  <path d="M 165,106 L 165,107 L 166,107 L 166,106 Z" fill="none" stroke="black" stroke-width="1"/>
  <path d="M 161,104 L 161,105 L 163,105 L 163,104 Z" fill="none" stroke="black" stroke-width="1"/>
  <path d="M 141,99 L 140,100 L 139,100 L 138,101 L 137,101 L 137,103 L 141,103 L 142,104 L 143,104 L 144,105 L 147,105 L 149,107 L 149,109 L 150,109 L 151,110 L 151,113 L 152,114 L 153,113 L 153,112 L 154,111 L 156,113 L 156,115 L 157,115 L 159,113 L 162,113 L 163,114 L 164,114 L 165,113 L 166,113 L 167,112 L 167,109 L 166,109 L 166,110 L 164,112 L 159,112 L 157,110 L 157,108 L 156,108 L 155,107 L 155,105 L 154,104 L 154,103 L 153,102 L 148,102 L 147,101 L 146,101 L 144,99 Z" fill="none" stroke="black" stroke-width="1"/>
</svg>