<svg xmlns="http://www.w3.org/2000/svg" width="217" height="184">
  <path d="M 163,20 L 161,22 L 161,23 L 159,25 L 159,27 L 158,28 L 158,31 L 157,32 L 157,35 L 158,36 L 158,37 L 159,38 L 159,41 L 163,45 L 164,45 L 165,46 L 165,48 L 169,52 L 169,53 L 170,53 L 171,54 L 171,56 L 176,56 L 176,54 L 175,53 L 177,51 L 177,50 L 175,48 L 175,46 L 172,43 L 176,39 L 177,39 L 177,37 L 178,36 L 178,33 L 177,32 L 173,32 L 170,29 L 170,24 L 168,24 L 167,23 L 167,22 L 166,22 L 165,21 L 165,20 Z" fill="none" stroke="black" stroke-width="1"/>
</svg>