<svg xmlns="http://www.w3.org/2000/svg" width="217" height="184">
  <path d="M 215,53 L 215,55 L 216,54 L 216,53 Z" fill="none" stroke="black" stroke-width="1"/>
  <path d="M 192,30 L 191,31 L 190,31 L 193,34 L 193,41 L 190,44 L 190,46 L 189,47 L 189,50 L 188,51 L 188,52 L 187,53 L 187,55 L 186,56 L 186,57 L 185,58 L 185,60 L 184,61 L 186,63 L 186,64 L 187,64 L 187,62 L 188,61 L 188,60 L 189,59 L 191,59 L 192,60 L 190,62 L 191,63 L 192,63 L 193,62 L 193,60 L 194,59 L 195,59 L 196,60 L 196,61 L 200,57 L 201,58 L 202,58 L 203,57 L 203,56 L 204,55 L 209,55 L 212,52 L 212,51 L 211,51 L 210,50 L 211,49 L 211,48 L 210,47 L 210,45 L 209,45 L 207,43 L 207,41 L 206,40 L 205,40 L 203,38 L 202,38 L 200,36 L 200,34 L 198,32 L 196,32 L 195,31 L 194,31 L 193,30 Z" fill="none" stroke="black" stroke-width="1"/>
</svg>