<svg xmlns="http://www.w3.org/2000/svg" width="217" height="184">
  <path d="M 180,0 L 177,3 L 176,3 L 169,10 L 169,11 L 168,12 L 168,13 L 167,14 L 167,15 L 166,16 L 166,17 L 165,18 L 165,19 L 166,20 L 166,21 L 167,21 L 168,22 L 168,23 L 170,23 L 171,24 L 171,25 L 172,25 L 173,24 L 174,24 L 175,23 L 176,23 L 177,22 L 178,22 L 179,21 L 185,21 L 187,23 L 187,24 L 189,26 L 189,30 L 191,30 L 192,29 L 193,29 L 194,30 L 195,30 L 196,31 L 198,31 L 199,30 L 199,19 L 198,18 L 199,17 L 199,9 L 198,8 L 198,7 L 194,3 L 193,3 L 192,2 L 187,2 L 187,3 L 186,4 L 184,4 Z" fill="none" stroke="black" stroke-width="1"/>
</svg>