<svg xmlns="http://www.w3.org/2000/svg" width="776" height="467">
  <path d="M 443,412 L 441,414 L 439,414 L 438,415 L 436,415 L 435,416 L 423,416 L 422,417 L 421,417 L 420,416 L 419,416 L 420,417 L 416,421 L 416,422 L 415,423 L 415,425 L 414,426 L 415,427 L 415,432 L 416,432 L 417,433 L 417,434 L 417,432 L 418,431 L 421,434 L 421,437 L 423,437 L 424,436 L 425,437 L 425,438 L 425,437 L 428,434 L 431,434 L 433,432 L 434,432 L 434,431 L 435,430 L 435,429 L 436,428 L 438,428 L 438,426 L 439,425 L 440,425 L 443,422 L 444,423 L 444,422 L 443,422 L 442,421 L 442,420 L 443,419 L 443,418 L 445,416 L 447,418 L 447,416 L 448,415 L 447,414 L 447,412 Z" fill="none" stroke="black" stroke-width="1"/>
</svg>