<svg xmlns="http://www.w3.org/2000/svg" width="776" height="467">
  <path d="M 487,395 L 485,397 L 483,397 L 482,396 L 481,397 L 480,397 L 480,398 L 478,400 L 477,400 L 475,402 L 469,402 L 468,403 L 466,403 L 462,407 L 461,407 L 459,409 L 456,409 L 455,410 L 454,410 L 453,411 L 449,411 L 448,412 L 448,414 L 449,414 L 450,415 L 450,416 L 449,417 L 450,418 L 451,418 L 452,419 L 454,419 L 455,418 L 455,417 L 454,416 L 454,415 L 455,414 L 457,416 L 458,416 L 459,415 L 460,415 L 462,413 L 463,414 L 464,413 L 467,413 L 468,412 L 469,412 L 470,411 L 471,411 L 472,410 L 475,410 L 476,409 L 478,409 L 479,408 L 480,408 L 481,407 L 483,407 L 484,406 L 486,406 L 487,405 L 489,405 L 489,404 L 490,403 L 492,403 L 493,404 L 494,404 L 495,403 L 495,402 L 489,402 L 488,401 L 489,400 L 490,400 L 491,399 L 490,399 L 488,397 L 488,396 Z" fill="none" stroke="black" stroke-width="1"/>
</svg>