<svg xmlns="http://www.w3.org/2000/svg" width="776" height="467">
  <path d="M 420,383 L 420,385 L 417,388 L 416,388 L 415,389 L 409,389 L 408,390 L 405,390 L 404,391 L 403,391 L 401,393 L 400,393 L 396,397 L 396,398 L 395,399 L 394,399 L 395,399 L 397,401 L 397,403 L 398,404 L 399,404 L 400,405 L 403,405 L 405,407 L 406,407 L 408,405 L 409,405 L 410,406 L 412,406 L 413,405 L 414,405 L 415,404 L 414,403 L 414,402 L 415,401 L 418,404 L 420,404 L 422,402 L 423,402 L 424,401 L 425,401 L 426,400 L 427,400 L 429,398 L 432,398 L 434,396 L 436,396 L 435,396 L 433,394 L 433,392 L 432,391 L 432,390 L 430,388 L 429,388 L 428,387 L 427,387 L 426,386 L 425,386 L 424,385 L 422,385 Z" fill="none" stroke="black" stroke-width="1"/>
</svg>