<svg xmlns="http://www.w3.org/2000/svg" width="185" height="128">
  <path d="M 57,36 L 56,37 L 56,38 L 55,39 L 54,39 L 53,38 L 51,38 L 50,39 L 50,40 L 49,41 L 49,42 L 50,43 L 50,44 L 51,45 L 51,47 L 52,47 L 53,48 L 53,49 L 54,49 L 55,50 L 56,50 L 58,52 L 58,55 L 59,56 L 61,56 L 63,58 L 64,58 L 65,59 L 67,59 L 68,60 L 68,61 L 69,61 L 71,59 L 71,58 L 72,57 L 72,56 L 73,55 L 73,52 L 74,51 L 75,51 L 74,50 L 72,50 L 71,49 L 70,49 L 69,48 L 65,48 L 64,47 L 62,47 L 60,45 L 60,43 L 61,42 L 62,42 L 62,39 L 61,39 L 59,37 L 59,36 Z" fill="none" stroke="black" stroke-width="1"/>
</svg>