<svg xmlns="http://www.w3.org/2000/svg" width="776" height="467">
  <path d="M 386,347 L 385,348 L 384,348 L 383,349 L 383,350 L 382,351 L 379,351 L 377,353 L 376,353 L 376,355 L 374,357 L 371,357 L 371,358 L 370,359 L 370,360 L 373,363 L 375,363 L 375,362 L 376,361 L 381,361 L 382,362 L 383,362 L 388,367 L 388,368 L 389,368 L 390,367 L 390,366 L 391,365 L 393,365 L 395,367 L 398,367 L 399,368 L 401,368 L 403,370 L 406,370 L 407,369 L 407,361 L 405,359 L 405,357 L 404,356 L 404,355 L 402,353 L 400,353 L 397,350 L 397,349 L 396,348 L 394,348 L 393,349 L 389,349 L 388,348 L 387,348 Z" fill="none" stroke="black" stroke-width="1"/>
</svg>