<svg xmlns="http://www.w3.org/2000/svg" width="776" height="467">
  <path d="M 396,346 L 395,347 L 396,347 L 398,349 L 398,350 L 400,352 L 402,352 L 405,355 L 405,356 L 406,357 L 406,359 L 408,361 L 408,368 L 411,368 L 416,363 L 419,363 L 420,364 L 427,364 L 428,365 L 428,366 L 429,365 L 430,365 L 434,361 L 434,358 L 435,357 L 435,356 L 438,353 L 439,353 L 440,352 L 440,351 L 438,351 L 438,353 L 437,354 L 436,353 L 435,353 L 434,352 L 430,352 L 429,353 L 428,353 L 426,355 L 425,355 L 423,357 L 422,356 L 422,355 L 421,354 L 421,352 L 420,351 L 419,351 L 418,350 L 416,350 L 415,349 L 413,349 L 411,347 L 410,347 L 409,346 L 407,346 L 406,347 L 402,347 L 401,346 Z" fill="none" stroke="black" stroke-width="1"/>
</svg>