<svg xmlns="http://www.w3.org/2000/svg" width="776" height="467">
  <path d="M 570,373 L 570,374 Z" fill="none" stroke="black" stroke-width="1"/>
  <path d="M 563,364 L 563,366 L 567,370 L 567,371 L 568,372 L 569,371 L 568,370 L 568,369 L 569,368 L 568,367 L 567,367 L 564,364 Z" fill="none" stroke="black" stroke-width="1"/>
  <path d="M 572,358 L 571,359 L 572,359 L 573,358 L 574,358 Z" fill="none" stroke="black" stroke-width="1"/>
  <path d="M 602,356 L 601,357 L 601,359 L 601,358 L 602,357 Z" fill="none" stroke="black" stroke-width="1"/>
  <path d="M 559,331 L 559,332 L 558,333 L 558,335 L 557,336 L 557,339 L 559,341 L 557,343 L 557,346 L 560,349 L 560,350 L 561,351 L 562,351 L 567,356 L 570,356 L 570,354 L 572,352 L 573,353 L 573,355 L 572,356 L 573,356 L 573,354 L 575,352 L 575,351 L 577,349 L 578,350 L 578,352 L 576,354 L 576,355 L 577,354 L 579,354 L 580,355 L 577,358 L 578,358 L 579,359 L 582,359 L 582,356 L 581,355 L 583,353 L 586,356 L 587,356 L 588,355 L 589,356 L 591,356 L 592,357 L 590,359 L 589,359 L 588,360 L 586,360 L 585,361 L 585,363 L 582,366 L 581,366 L 580,367 L 576,367 L 574,369 L 574,370 L 575,370 L 576,371 L 579,371 L 580,370 L 582,370 L 583,371 L 584,370 L 585,370 L 585,369 L 588,366 L 588,363 L 589,362 L 590,362 L 590,361 L 591,360 L 592,361 L 596,361 L 597,360 L 597,359 L 596,358 L 597,357 L 598,357 L 599,356 L 599,355 L 600,354 L 600,353 L 602,351 L 603,352 L 604,352 L 605,353 L 605,354 L 606,355 L 606,356 L 607,357 L 607,358 L 606,359 L 607,360 L 607,361 L 605,363 L 605,364 L 604,365 L 604,366 L 603,367 L 603,368 L 602,369 L 602,372 L 604,372 L 610,366 L 611,367 L 611,371 L 610,372 L 610,375 L 612,375 L 613,374 L 615,374 L 614,373 L 614,371 L 615,370 L 615,367 L 613,365 L 613,364 L 612,363 L 612,362 L 611,362 L 609,360 L 609,359 L 606,356 L 606,355 L 605,354 L 605,353 L 604,352 L 604,351 L 603,351 L 602,350 L 602,348 L 601,347 L 600,347 L 599,346 L 598,346 L 595,343 L 594,343 L 593,342 L 590,342 L 589,341 L 579,341 L 577,339 L 576,339 L 574,337 L 572,337 L 568,333 L 567,333 L 565,331 Z" fill="none" stroke="black" stroke-width="1"/>
</svg>