<svg xmlns="http://www.w3.org/2000/svg" width="776" height="467">
  <path d="M 498,179 L 497,180 L 499,180 Z" fill="none" stroke="black" stroke-width="1"/>
  <path d="M 493,175 L 492,176 L 493,177 L 496,177 L 494,175 Z" fill="none" stroke="black" stroke-width="1"/>
  <path d="M 486,166 L 488,166 L 490,168 L 492,168 L 491,167 L 489,167 L 488,166 Z" fill="none" stroke="black" stroke-width="1"/>
  <path d="M 493,163 L 492,164 L 493,164 Z" fill="none" stroke="black" stroke-width="1"/>
  <path d="M 448,95 L 448,96 L 447,97 L 446,97 L 446,98 L 445,99 L 445,107 L 444,108 L 444,116 L 442,118 L 442,125 L 449,132 L 449,133 L 448,134 L 448,138 L 450,140 L 450,141 L 453,144 L 453,145 L 455,147 L 456,147 L 458,149 L 458,150 L 461,153 L 461,154 L 462,155 L 462,160 L 463,161 L 463,162 L 465,164 L 464,165 L 464,172 L 471,179 L 471,180 L 472,181 L 472,182 L 471,183 L 471,188 L 472,189 L 472,190 L 474,192 L 474,195 L 476,197 L 476,198 L 480,202 L 484,202 L 485,203 L 485,204 L 486,205 L 486,206 L 489,209 L 489,210 L 493,210 L 495,208 L 496,208 L 497,207 L 499,207 L 499,200 L 500,199 L 500,198 L 502,196 L 502,195 L 503,194 L 503,193 L 505,191 L 506,191 L 507,190 L 506,190 L 505,189 L 505,188 L 504,187 L 501,187 L 500,186 L 501,185 L 504,185 L 505,184 L 505,183 L 503,183 L 503,184 L 502,185 L 501,184 L 501,183 L 500,183 L 499,182 L 493,182 L 492,181 L 493,180 L 493,179 L 488,179 L 487,178 L 488,177 L 490,177 L 489,177 L 488,176 L 488,175 L 489,174 L 484,174 L 483,173 L 482,174 L 481,174 L 480,173 L 479,173 L 478,172 L 478,171 L 479,170 L 480,170 L 481,171 L 483,171 L 483,170 L 484,169 L 485,170 L 488,170 L 486,170 L 485,169 L 484,169 L 483,170 L 482,169 L 478,169 L 477,168 L 479,166 L 482,166 L 483,167 L 484,166 L 483,165 L 477,165 L 475,163 L 473,163 L 472,162 L 471,162 L 470,161 L 470,159 L 471,158 L 472,158 L 473,159 L 473,160 L 474,160 L 475,161 L 477,161 L 478,162 L 482,162 L 481,161 L 481,160 L 482,159 L 483,160 L 484,159 L 485,159 L 486,160 L 486,162 L 487,162 L 488,163 L 489,163 L 489,161 L 487,161 L 486,160 L 487,159 L 489,159 L 489,157 L 487,157 L 485,159 L 484,158 L 484,157 L 486,155 L 489,155 L 489,153 L 488,152 L 482,152 L 480,150 L 480,149 L 483,146 L 484,147 L 484,148 L 485,148 L 484,147 L 485,146 L 485,144 L 484,143 L 483,143 L 482,142 L 481,142 L 480,143 L 482,143 L 483,144 L 483,146 L 482,147 L 481,146 L 480,146 L 479,145 L 476,145 L 475,146 L 472,146 L 471,145 L 471,144 L 472,143 L 473,143 L 474,144 L 475,143 L 476,143 L 477,142 L 478,142 L 478,141 L 479,140 L 481,140 L 480,139 L 480,137 L 481,136 L 483,138 L 484,138 L 484,136 L 483,136 L 482,137 L 481,136 L 481,135 L 479,135 L 478,134 L 474,134 L 473,133 L 473,132 L 474,131 L 473,130 L 472,131 L 471,130 L 471,129 L 470,129 L 469,130 L 465,130 L 462,133 L 460,133 L 459,132 L 461,130 L 462,130 L 464,128 L 468,128 L 469,127 L 470,127 L 468,127 L 467,126 L 468,125 L 469,125 L 469,124 L 470,123 L 470,121 L 469,121 L 468,122 L 461,122 L 460,123 L 459,123 L 456,126 L 455,126 L 454,125 L 455,124 L 455,123 L 456,122 L 457,122 L 459,120 L 461,120 L 462,119 L 464,119 L 466,117 L 466,116 L 465,115 L 465,114 L 463,112 L 462,112 L 461,113 L 460,113 L 459,112 L 461,110 L 460,110 L 459,109 L 460,108 L 461,108 L 460,108 L 459,107 L 458,107 L 457,108 L 456,108 L 455,109 L 454,109 L 453,108 L 455,106 L 456,106 L 458,104 L 455,101 L 454,101 L 454,102 L 453,103 L 452,103 L 451,102 L 452,101 L 452,100 L 451,101 L 450,101 L 449,100 L 451,98 L 452,98 L 452,97 L 450,95 Z" fill="none" stroke="black" stroke-width="1"/>
</svg>