<svg xmlns="http://www.w3.org/2000/svg" width="776" height="467">
  <path d="M 514,193 L 512,195 L 511,195 L 510,196 L 509,195 L 507,195 L 506,196 L 505,196 L 501,200 L 500,200 L 500,207 L 499,208 L 497,208 L 496,209 L 495,209 L 493,211 L 490,211 L 488,213 L 487,213 L 484,216 L 483,216 L 483,218 L 484,219 L 484,220 L 483,221 L 482,221 L 480,223 L 479,223 L 477,225 L 476,225 L 475,226 L 474,226 L 474,227 L 473,228 L 473,229 L 471,231 L 471,234 L 472,235 L 472,237 L 473,238 L 479,238 L 480,239 L 484,239 L 485,240 L 486,240 L 487,241 L 490,241 L 491,242 L 492,242 L 493,243 L 496,243 L 499,246 L 509,246 L 510,247 L 511,247 L 512,246 L 513,246 L 516,243 L 519,243 L 520,242 L 528,242 L 529,241 L 532,241 L 533,240 L 535,240 L 537,238 L 538,238 L 539,237 L 540,237 L 540,236 L 539,236 L 534,231 L 533,231 L 532,230 L 532,229 L 533,228 L 533,227 L 534,226 L 534,224 L 532,224 L 531,225 L 530,225 L 529,226 L 528,226 L 524,230 L 521,230 L 519,232 L 518,232 L 517,233 L 513,233 L 513,234 L 509,238 L 507,238 L 506,239 L 505,239 L 504,238 L 504,236 L 505,235 L 506,235 L 507,234 L 508,234 L 509,233 L 506,233 L 505,232 L 504,232 L 503,231 L 502,231 L 501,230 L 500,230 L 499,229 L 497,229 L 496,228 L 496,227 L 497,226 L 498,226 L 499,227 L 503,227 L 505,229 L 506,229 L 507,230 L 509,230 L 509,228 L 511,226 L 512,226 L 513,225 L 520,225 L 521,224 L 522,224 L 523,223 L 526,223 L 528,221 L 532,221 L 533,220 L 534,220 L 534,219 L 533,219 L 532,220 L 529,220 L 528,221 L 526,221 L 525,222 L 520,222 L 519,223 L 517,221 L 518,220 L 522,220 L 524,218 L 527,218 L 528,217 L 532,217 L 533,216 L 536,216 L 537,215 L 538,215 L 539,214 L 540,214 L 541,213 L 549,213 L 547,213 L 546,212 L 547,211 L 551,211 L 552,210 L 550,208 L 549,208 L 548,209 L 547,209 L 546,208 L 545,208 L 544,207 L 540,207 L 539,206 L 540,205 L 543,205 L 542,204 L 542,203 L 540,203 L 538,205 L 537,205 L 536,206 L 535,206 L 534,205 L 531,205 L 530,204 L 528,204 L 526,202 L 527,201 L 526,200 L 526,197 L 526,198 L 525,199 L 524,199 L 522,201 L 521,201 L 520,200 L 524,196 L 523,196 L 515,204 L 515,205 L 514,206 L 513,206 L 512,205 L 512,202 L 514,200 L 515,200 L 517,198 L 518,198 L 519,197 L 517,197 L 516,198 L 512,198 L 511,197 L 512,196 L 514,196 Z" fill="none" stroke="black" stroke-width="1"/>
</svg>