<svg xmlns="http://www.w3.org/2000/svg" width="776" height="467">
  <path d="M 439,286 L 438,287 L 437,287 L 436,288 L 436,296 L 437,296 L 439,298 L 439,300 L 442,300 L 443,301 L 447,301 L 448,300 L 452,300 L 453,301 L 456,301 L 457,302 L 461,302 L 462,301 L 475,301 L 476,302 L 481,302 L 484,305 L 485,305 L 484,304 L 485,303 L 486,303 L 487,304 L 488,304 L 489,303 L 492,303 L 493,302 L 495,302 L 496,303 L 498,303 L 499,302 L 506,302 L 507,301 L 508,301 L 508,299 L 506,297 L 506,293 L 505,292 L 503,292 L 501,290 L 498,290 L 497,289 L 494,289 L 493,288 L 491,288 L 490,287 L 489,287 L 488,286 L 482,286 L 481,287 L 480,287 L 479,288 L 472,288 L 471,287 L 467,287 L 466,286 L 462,286 L 461,287 L 458,287 L 457,288 L 448,288 L 447,287 L 446,287 L 445,286 Z" fill="none" stroke="black" stroke-width="1"/>
</svg>