<svg xmlns="http://www.w3.org/2000/svg" width="776" height="467">
  <path d="M 400,288 L 397,291 L 396,291 L 395,292 L 394,292 L 387,299 L 387,300 L 381,306 L 377,306 L 376,307 L 374,307 L 373,308 L 370,308 L 370,310 L 369,311 L 368,311 L 367,312 L 366,312 L 365,313 L 364,313 L 363,314 L 362,314 L 361,315 L 360,315 L 359,316 L 358,316 L 358,318 L 362,318 L 363,319 L 367,319 L 368,320 L 376,320 L 377,321 L 379,321 L 382,324 L 383,324 L 383,323 L 384,322 L 387,322 L 388,321 L 395,321 L 397,319 L 397,316 L 398,315 L 398,312 L 400,310 L 401,310 L 402,309 L 402,308 L 403,307 L 404,307 L 410,301 L 412,303 L 416,303 L 416,302 L 417,301 L 419,301 L 420,302 L 421,301 L 425,301 L 426,300 L 429,300 L 430,301 L 439,301 L 438,300 L 438,298 L 437,297 L 436,297 L 435,296 L 435,289 L 434,288 L 428,288 L 427,289 L 422,289 L 421,290 L 416,290 L 415,291 L 408,291 L 407,290 L 405,290 L 403,288 Z" fill="none" stroke="black" stroke-width="1"/>
</svg>