<svg xmlns="http://www.w3.org/2000/svg" width="776" height="467">
  <path d="M 443,309 L 442,310 L 441,310 L 442,311 L 443,311 L 444,312 L 446,312 L 447,313 L 449,313 L 451,315 L 452,315 L 455,318 L 455,319 L 456,320 L 458,320 L 460,322 L 462,322 L 463,323 L 465,323 L 466,324 L 468,324 L 469,325 L 473,325 L 474,326 L 483,326 L 484,325 L 483,324 L 483,323 L 482,322 L 481,322 L 480,321 L 478,321 L 477,320 L 476,320 L 474,318 L 473,318 L 471,316 L 470,316 L 469,315 L 467,315 L 466,314 L 465,314 L 464,313 L 463,313 L 462,312 L 458,312 L 457,311 L 452,311 L 451,310 L 449,310 L 448,309 Z" fill="none" stroke="black" stroke-width="1"/>
</svg>