<svg xmlns="http://www.w3.org/2000/svg" width="776" height="467">
  <path d="M 355,318 L 354,319 L 353,319 L 352,320 L 351,320 L 348,323 L 346,323 L 344,325 L 342,325 L 341,326 L 340,326 L 339,327 L 338,327 L 337,328 L 335,328 L 334,329 L 332,329 L 331,330 L 331,332 L 329,334 L 329,335 L 328,336 L 327,336 L 326,337 L 325,337 L 323,335 L 323,336 L 322,337 L 322,338 L 320,340 L 320,341 L 319,342 L 320,343 L 320,348 L 319,349 L 319,350 L 320,351 L 320,355 L 321,355 L 323,353 L 327,353 L 327,351 L 328,350 L 329,350 L 330,349 L 334,349 L 335,348 L 342,348 L 342,345 L 344,343 L 345,343 L 353,335 L 353,334 L 354,333 L 354,330 L 363,321 L 363,320 L 362,319 L 358,319 L 357,318 Z" fill="none" stroke="black" stroke-width="1"/>
</svg>