<svg xmlns="http://www.w3.org/2000/svg" width="776" height="467">
  <path d="M 318,342 L 316,344 L 314,344 L 313,345 L 311,345 L 309,347 L 308,347 L 305,350 L 304,350 L 302,352 L 301,352 L 295,358 L 294,358 L 293,359 L 292,359 L 291,360 L 290,360 L 287,363 L 286,363 L 285,364 L 285,365 L 286,366 L 286,367 L 287,367 L 288,368 L 291,368 L 294,371 L 295,371 L 298,374 L 298,375 L 297,376 L 298,377 L 299,377 L 299,376 L 301,374 L 302,374 L 303,373 L 305,373 L 305,372 L 306,371 L 307,371 L 309,369 L 310,369 L 311,368 L 312,368 L 313,367 L 313,366 L 315,364 L 316,364 L 316,362 L 317,361 L 317,360 L 319,358 L 319,351 L 318,350 L 318,349 L 319,348 L 319,343 Z" fill="none" stroke="black" stroke-width="1"/>
</svg>