<svg xmlns="http://www.w3.org/2000/svg" width="776" height="467">
  <path d="M 208,343 L 208,344 L 206,346 L 206,348 L 208,350 L 207,351 L 207,355 L 206,356 L 206,360 L 207,361 L 207,364 L 208,365 L 208,366 L 211,369 L 212,369 L 213,370 L 217,370 L 218,369 L 220,369 L 223,366 L 227,366 L 229,368 L 235,368 L 234,367 L 234,365 L 233,364 L 233,363 L 232,362 L 232,357 L 233,356 L 233,354 L 235,352 L 228,352 L 227,351 L 222,351 L 221,350 L 219,350 L 216,347 L 216,346 L 215,346 L 214,345 L 212,345 L 210,343 Z" fill="none" stroke="black" stroke-width="1"/>
</svg>