<svg xmlns="http://www.w3.org/2000/svg" width="776" height="467">
  <path d="M 393,331 L 392,332 L 391,332 L 390,333 L 389,333 L 388,334 L 387,334 L 386,335 L 385,335 L 384,336 L 382,336 L 380,338 L 379,338 L 377,340 L 376,340 L 375,341 L 374,341 L 373,342 L 372,342 L 368,346 L 367,346 L 367,347 L 366,348 L 365,348 L 364,349 L 363,349 L 363,350 L 361,352 L 361,353 L 358,356 L 358,358 L 359,359 L 359,364 L 357,366 L 357,368 L 358,369 L 365,362 L 366,362 L 370,358 L 370,357 L 371,356 L 374,356 L 375,355 L 375,353 L 376,352 L 377,352 L 379,350 L 382,350 L 382,349 L 384,347 L 385,347 L 386,346 L 387,347 L 388,347 L 389,348 L 393,348 L 394,347 L 394,344 L 393,343 L 393,341 L 394,340 L 394,337 L 395,336 L 395,334 L 394,333 L 394,331 Z" fill="none" stroke="black" stroke-width="1"/>
</svg>