<svg xmlns="http://www.w3.org/2000/svg" width="776" height="467">
  <path d="M 356,358 L 355,359 L 355,360 L 346,369 L 345,369 L 344,370 L 343,370 L 341,372 L 340,372 L 339,371 L 341,369 L 340,369 L 338,371 L 338,372 L 336,374 L 334,374 L 331,377 L 329,377 L 330,378 L 331,378 L 332,379 L 334,379 L 335,380 L 336,380 L 337,381 L 337,384 L 338,385 L 338,386 L 340,386 L 341,387 L 342,387 L 343,388 L 346,388 L 347,387 L 347,385 L 349,383 L 349,382 L 352,379 L 353,379 L 353,378 L 354,377 L 354,376 L 355,375 L 355,374 L 356,373 L 356,372 L 357,371 L 357,369 L 356,368 L 356,366 L 358,364 L 358,359 L 357,358 Z" fill="none" stroke="black" stroke-width="1"/>
</svg>