<svg xmlns="http://www.w3.org/2000/svg" width="776" height="467">
  <path d="M 307,390 L 306,391 L 304,391 L 303,392 L 302,392 L 300,394 L 299,394 L 298,395 L 297,395 L 295,397 L 295,398 L 294,399 L 294,400 L 292,402 L 290,402 L 289,403 L 288,403 L 287,404 L 284,404 L 283,405 L 283,406 L 282,407 L 281,407 L 281,408 L 286,408 L 287,409 L 288,409 L 289,408 L 294,408 L 295,409 L 300,409 L 301,408 L 304,408 L 305,407 L 307,407 L 308,406 L 309,406 L 310,405 L 313,405 L 314,404 L 314,402 L 315,401 L 315,399 L 314,399 L 312,397 L 312,396 L 311,395 L 311,394 L 310,393 L 310,390 Z" fill="none" stroke="black" stroke-width="1"/>
</svg>