<svg xmlns="http://www.w3.org/2000/svg" width="776" height="467">
  <path d="M 217,397 L 216,398 L 215,398 L 215,400 L 214,401 L 210,401 L 209,402 L 208,402 L 207,403 L 206,403 L 205,404 L 203,404 L 202,405 L 197,405 L 196,406 L 196,408 L 197,408 L 201,412 L 203,412 L 204,413 L 207,413 L 208,414 L 208,415 L 209,416 L 209,417 L 211,417 L 212,416 L 215,416 L 217,414 L 219,414 L 220,413 L 221,413 L 223,411 L 231,411 L 232,410 L 237,410 L 236,409 L 236,407 L 233,404 L 233,403 L 231,401 L 229,401 L 228,400 L 225,400 L 224,399 L 223,399 L 221,397 Z" fill="none" stroke="black" stroke-width="1"/>
</svg>