<svg xmlns="http://www.w3.org/2000/svg" width="776" height="467">
  <path d="M 171,404 L 171,406 L 172,406 L 175,409 L 175,410 L 177,412 L 177,413 L 178,414 L 178,417 L 177,418 L 177,419 L 173,423 L 173,424 L 172,425 L 172,426 L 171,427 L 171,438 L 173,436 L 174,436 L 175,435 L 176,435 L 177,434 L 178,434 L 178,433 L 180,431 L 180,430 L 182,428 L 182,427 L 184,425 L 184,423 L 188,419 L 189,419 L 189,418 L 187,416 L 187,415 L 186,415 L 185,416 L 184,416 L 184,417 L 183,418 L 182,417 L 182,415 L 183,414 L 183,413 L 181,413 L 177,409 L 177,408 L 176,407 L 177,406 L 177,405 L 176,405 L 175,406 L 174,406 L 173,405 L 172,405 Z" fill="none" stroke="black" stroke-width="1"/>
  <path d="M 171,393 L 170,394 L 170,396 L 171,397 L 171,396 L 172,395 L 171,394 Z" fill="none" stroke="black" stroke-width="1"/>
  <path d="M 155,392 L 157,392 Z" fill="none" stroke="black" stroke-width="1"/>
  <path d="M 161,391 L 160,392 L 159,392 L 160,393 L 161,393 L 162,392 Z" fill="none" stroke="black" stroke-width="1"/>
  <path d="M 153,391 L 152,392 L 148,392 L 148,393 L 151,393 L 152,394 L 154,394 L 155,395 L 158,395 L 159,396 L 161,396 L 163,398 L 164,398 L 165,399 L 169,399 L 170,400 L 169,401 L 170,401 L 170,400 L 169,399 L 168,399 L 167,398 L 168,397 L 168,396 L 167,397 L 166,396 L 165,396 L 164,395 L 164,394 L 163,394 L 162,395 L 158,395 L 157,394 L 154,394 L 153,393 Z" fill="none" stroke="black" stroke-width="1"/>
  <path d="M 166,390 L 166,391 L 165,392 L 166,393 L 166,394 L 168,394 L 168,392 L 167,391 L 168,390 L 169,390 L 170,391 L 170,390 Z" fill="none" stroke="black" stroke-width="1"/>
  <path d="M 140,389 L 139,390 L 138,390 L 138,391 L 141,391 L 142,392 L 143,391 L 145,393 L 146,393 L 146,392 L 145,391 L 144,392 L 141,389 Z" fill="none" stroke="black" stroke-width="1"/>
</svg>