<svg xmlns="http://www.w3.org/2000/svg" width="753" height="314">
  <path d="M 636,249 L 635,250 L 634,250 L 632,252 L 632,256 L 628,260 L 627,260 L 626,261 L 623,261 L 622,262 L 619,262 L 618,263 L 617,263 L 616,262 L 613,262 L 612,261 L 609,261 L 608,262 L 602,262 L 601,263 L 600,263 L 600,264 L 601,265 L 602,265 L 603,266 L 603,268 L 604,269 L 604,271 L 605,272 L 605,273 L 606,274 L 606,276 L 607,277 L 607,278 L 610,281 L 611,281 L 613,283 L 621,283 L 622,284 L 623,284 L 625,286 L 635,286 L 636,287 L 638,287 L 639,288 L 640,288 L 641,287 L 642,287 L 645,284 L 645,281 L 647,279 L 647,278 L 651,274 L 651,272 L 653,270 L 653,269 L 654,268 L 654,267 L 657,264 L 657,263 L 660,260 L 659,260 L 658,259 L 658,258 L 657,257 L 657,256 L 655,254 L 654,254 L 651,251 L 650,251 L 649,250 L 639,250 L 638,249 Z" fill="none" stroke="black" stroke-width="1"/>
</svg>