<svg xmlns="http://www.w3.org/2000/svg" width="753" height="314">
  <path d="M 623,209 L 620,212 L 619,212 L 619,213 L 617,215 L 617,216 L 616,217 L 616,221 L 617,221 L 618,222 L 620,222 L 624,226 L 624,229 L 623,230 L 623,232 L 624,232 L 625,233 L 625,237 L 633,245 L 633,246 L 634,246 L 635,247 L 636,247 L 637,248 L 638,248 L 639,249 L 649,249 L 650,250 L 651,250 L 654,253 L 655,253 L 658,256 L 658,257 L 659,258 L 659,259 L 661,259 L 662,258 L 664,258 L 665,257 L 666,257 L 667,256 L 668,256 L 668,255 L 670,253 L 670,252 L 671,251 L 671,249 L 672,248 L 672,246 L 671,245 L 671,244 L 670,243 L 672,241 L 672,236 L 670,234 L 670,232 L 671,231 L 671,226 L 669,226 L 667,224 L 662,224 L 661,223 L 659,223 L 658,222 L 654,222 L 653,221 L 652,221 L 651,220 L 650,220 L 649,219 L 648,219 L 647,218 L 646,218 L 645,217 L 644,217 L 642,215 L 641,215 L 638,212 L 634,212 L 633,211 L 632,211 L 631,210 L 630,210 L 629,209 Z" fill="none" stroke="black" stroke-width="1"/>
</svg>