<svg xmlns="http://www.w3.org/2000/svg" width="753" height="314">
  <path d="M 601,204 L 601,205 L 594,212 L 592,212 L 591,213 L 588,213 L 588,219 L 585,222 L 584,222 L 583,223 L 582,223 L 580,225 L 579,225 L 578,226 L 577,226 L 577,227 L 576,228 L 576,229 L 577,229 L 578,230 L 580,230 L 581,231 L 583,231 L 584,232 L 585,232 L 586,233 L 586,234 L 588,234 L 589,235 L 589,236 L 593,240 L 593,242 L 592,243 L 592,253 L 594,255 L 594,256 L 598,260 L 598,261 L 599,262 L 599,263 L 600,262 L 601,262 L 602,261 L 608,261 L 609,260 L 612,260 L 613,261 L 616,261 L 617,262 L 618,262 L 619,261 L 622,261 L 623,260 L 626,260 L 627,259 L 628,259 L 631,256 L 631,252 L 634,249 L 635,249 L 636,248 L 635,248 L 634,247 L 633,247 L 632,246 L 632,245 L 624,237 L 624,233 L 623,233 L 622,232 L 622,230 L 623,229 L 623,226 L 620,223 L 618,223 L 617,222 L 616,222 L 615,221 L 615,217 L 616,216 L 616,215 L 618,213 L 618,212 L 619,211 L 615,207 L 614,207 L 613,206 L 608,206 L 607,205 L 605,205 L 604,204 Z" fill="none" stroke="black" stroke-width="1"/>
</svg>