<svg xmlns="http://www.w3.org/2000/svg" width="185" height="128">
  <path d="M 115,37 L 112,40 L 112,41 L 111,42 L 111,43 L 113,43 L 114,44 L 113,45 L 115,47 L 113,49 L 109,49 L 108,50 L 108,51 L 107,52 L 106,52 L 106,62 L 109,62 L 110,63 L 111,63 L 112,64 L 114,64 L 116,66 L 117,66 L 118,67 L 119,67 L 121,69 L 122,69 L 123,70 L 125,70 L 126,69 L 126,68 L 127,67 L 127,64 L 126,64 L 123,61 L 123,60 L 124,59 L 124,58 L 125,57 L 126,57 L 127,56 L 127,54 L 128,53 L 128,49 L 126,47 L 126,46 L 124,46 L 121,43 L 121,39 L 119,39 L 118,38 L 116,38 Z" fill="none" stroke="black" stroke-width="1"/>
</svg>