<svg xmlns="http://www.w3.org/2000/svg" width="753" height="314">
  <path d="M 561,191 L 560,192 L 559,192 L 558,193 L 556,193 L 555,194 L 553,194 L 552,195 L 551,195 L 550,196 L 548,196 L 547,195 L 545,195 L 544,194 L 543,194 L 542,193 L 536,193 L 534,195 L 533,195 L 532,196 L 532,197 L 526,203 L 525,203 L 518,210 L 518,211 L 517,212 L 517,213 L 516,214 L 516,218 L 517,218 L 518,217 L 520,217 L 521,216 L 528,216 L 529,217 L 530,216 L 531,216 L 532,215 L 535,215 L 536,216 L 537,216 L 538,217 L 540,217 L 541,218 L 549,218 L 550,219 L 552,219 L 553,220 L 555,220 L 556,221 L 558,221 L 559,222 L 561,222 L 562,223 L 563,223 L 564,224 L 566,224 L 567,225 L 569,225 L 570,226 L 571,226 L 572,227 L 573,227 L 574,228 L 575,228 L 576,227 L 576,226 L 577,225 L 578,225 L 579,224 L 580,224 L 582,222 L 583,222 L 584,221 L 585,221 L 587,219 L 587,213 L 588,212 L 591,212 L 592,211 L 594,211 L 600,205 L 600,204 L 601,203 L 601,201 L 600,200 L 601,199 L 601,196 L 600,195 L 596,195 L 595,196 L 594,196 L 593,197 L 592,197 L 591,198 L 590,198 L 589,199 L 584,199 L 583,198 L 582,198 L 579,195 L 578,195 L 577,194 L 570,194 L 569,193 L 568,193 L 566,191 Z" fill="none" stroke="black" stroke-width="1"/>
</svg>