<svg xmlns="http://www.w3.org/2000/svg" width="753" height="314">
  <path d="M 515,74 L 513,76 L 513,77 L 512,78 L 512,79 L 510,81 L 508,81 L 507,82 L 506,82 L 505,83 L 504,83 L 503,84 L 503,86 L 500,89 L 499,89 L 499,90 L 497,92 L 496,92 L 495,93 L 495,94 L 494,95 L 493,95 L 492,96 L 491,96 L 490,97 L 490,98 L 487,101 L 488,102 L 487,103 L 488,103 L 489,104 L 489,106 L 488,107 L 486,107 L 486,108 L 487,108 L 488,109 L 488,110 L 487,111 L 487,112 L 489,114 L 489,115 L 490,115 L 493,118 L 494,118 L 495,119 L 496,119 L 499,122 L 500,122 L 501,123 L 502,123 L 505,126 L 507,126 L 509,128 L 510,128 L 512,130 L 513,130 L 514,131 L 515,131 L 518,134 L 520,134 L 522,136 L 523,136 L 524,137 L 525,136 L 526,137 L 528,137 L 530,139 L 532,139 L 533,140 L 534,140 L 535,141 L 536,140 L 537,141 L 539,139 L 539,138 L 540,137 L 541,137 L 543,135 L 544,135 L 546,133 L 547,133 L 550,130 L 551,130 L 554,127 L 556,127 L 557,126 L 558,126 L 559,125 L 561,125 L 562,124 L 566,124 L 567,123 L 580,123 L 580,122 L 581,121 L 581,120 L 582,119 L 582,118 L 583,117 L 583,116 L 586,113 L 586,111 L 585,110 L 582,110 L 581,109 L 580,109 L 579,108 L 578,108 L 577,107 L 576,107 L 575,106 L 575,105 L 573,103 L 572,103 L 571,102 L 567,102 L 566,101 L 564,101 L 563,100 L 562,100 L 561,99 L 560,99 L 559,98 L 557,98 L 556,97 L 555,97 L 554,96 L 549,96 L 548,95 L 547,95 L 546,94 L 545,94 L 544,93 L 543,93 L 540,90 L 540,89 L 539,88 L 539,87 L 537,85 L 537,84 L 536,84 L 535,83 L 533,83 L 532,82 L 531,82 L 528,79 L 527,79 L 523,75 L 519,75 L 518,74 Z" fill="none" stroke="black" stroke-width="1"/>
</svg>