<svg xmlns="http://www.w3.org/2000/svg" width="753" height="314">
  <path d="M 431,212 L 431,216 L 430,217 L 430,221 L 431,221 L 432,222 L 432,227 L 434,229 L 434,231 L 431,234 L 431,239 L 430,240 L 430,241 L 429,242 L 429,243 L 428,244 L 428,245 L 427,246 L 427,247 L 426,248 L 426,250 L 433,250 L 434,251 L 436,251 L 437,250 L 449,250 L 450,249 L 455,249 L 456,250 L 456,251 L 457,251 L 458,252 L 461,252 L 462,253 L 463,253 L 463,249 L 467,245 L 467,244 L 469,242 L 470,243 L 473,243 L 477,239 L 478,239 L 480,241 L 484,241 L 487,238 L 488,238 L 492,234 L 493,234 L 493,233 L 494,232 L 494,231 L 496,229 L 496,227 L 495,226 L 494,226 L 492,224 L 485,224 L 484,225 L 483,225 L 482,224 L 481,224 L 480,223 L 478,223 L 477,222 L 470,222 L 469,223 L 466,223 L 465,222 L 464,222 L 462,220 L 460,220 L 458,218 L 457,218 L 456,217 L 446,217 L 445,216 L 444,216 L 443,215 L 441,215 L 440,214 L 439,214 L 437,212 Z" fill="none" stroke="black" stroke-width="1"/>
</svg>