<svg xmlns="http://www.w3.org/2000/svg" width="753" height="314">
  <path d="M 370,72 L 369,73 L 368,73 L 366,75 L 365,75 L 364,76 L 363,76 L 362,77 L 360,77 L 359,78 L 357,78 L 356,79 L 352,79 L 350,81 L 349,81 L 346,84 L 345,84 L 344,85 L 344,87 L 345,88 L 345,89 L 346,90 L 346,91 L 344,93 L 344,95 L 343,96 L 343,97 L 344,98 L 344,99 L 345,100 L 345,102 L 346,103 L 346,108 L 345,109 L 345,110 L 344,111 L 344,112 L 343,113 L 343,114 L 342,115 L 342,117 L 341,118 L 341,121 L 340,122 L 341,123 L 343,123 L 344,122 L 350,122 L 352,124 L 353,124 L 354,125 L 354,126 L 355,126 L 356,127 L 358,127 L 359,128 L 364,128 L 365,129 L 367,129 L 368,128 L 369,128 L 370,127 L 372,127 L 373,126 L 374,126 L 375,125 L 376,125 L 377,124 L 378,125 L 379,125 L 380,126 L 380,127 L 381,127 L 382,128 L 382,129 L 381,130 L 379,130 L 378,131 L 377,131 L 377,132 L 376,133 L 376,134 L 377,135 L 378,135 L 380,133 L 381,133 L 384,130 L 385,131 L 385,133 L 382,136 L 381,136 L 380,137 L 381,138 L 381,139 L 382,140 L 384,138 L 385,138 L 386,137 L 388,137 L 389,136 L 391,136 L 392,135 L 395,135 L 400,140 L 401,140 L 401,139 L 402,138 L 402,135 L 403,134 L 403,132 L 404,131 L 405,131 L 406,130 L 407,130 L 407,129 L 408,128 L 409,128 L 410,127 L 413,127 L 415,125 L 416,125 L 417,124 L 418,124 L 419,123 L 420,123 L 423,120 L 424,120 L 427,117 L 428,117 L 431,114 L 431,113 L 432,112 L 433,112 L 437,108 L 438,108 L 439,107 L 439,106 L 440,105 L 439,105 L 438,104 L 435,104 L 434,103 L 432,103 L 431,102 L 430,102 L 429,101 L 413,101 L 412,100 L 412,99 L 410,97 L 410,96 L 409,95 L 408,95 L 407,94 L 406,94 L 405,93 L 402,93 L 401,92 L 398,92 L 397,91 L 393,91 L 392,90 L 391,90 L 389,88 L 388,88 L 387,87 L 386,87 L 382,83 L 381,83 Z" fill="none" stroke="black" stroke-width="1"/>
</svg>