<svg xmlns="http://www.w3.org/2000/svg" width="753" height="314">
  <path d="M 188,62 L 187,63 L 187,65 L 185,67 L 185,69 L 184,70 L 184,73 L 183,74 L 183,76 L 182,77 L 182,78 L 181,79 L 181,82 L 180,83 L 180,93 L 181,94 L 181,95 L 184,98 L 184,99 L 186,101 L 186,102 L 187,103 L 187,104 L 188,105 L 188,117 L 187,118 L 187,119 L 186,120 L 186,121 L 184,123 L 184,124 L 193,133 L 193,134 L 194,135 L 194,136 L 196,138 L 196,143 L 197,144 L 199,144 L 200,145 L 201,145 L 203,147 L 203,148 L 204,148 L 206,150 L 209,150 L 215,156 L 225,156 L 226,157 L 228,157 L 229,158 L 230,158 L 231,159 L 233,159 L 234,160 L 239,160 L 240,159 L 243,159 L 244,158 L 245,158 L 246,157 L 247,157 L 248,156 L 249,156 L 251,154 L 252,154 L 253,153 L 259,153 L 260,152 L 261,152 L 262,151 L 263,151 L 273,141 L 273,140 L 274,139 L 274,138 L 276,136 L 276,134 L 275,134 L 273,132 L 271,132 L 270,131 L 269,131 L 268,130 L 267,130 L 266,129 L 263,129 L 261,127 L 260,127 L 259,126 L 246,126 L 245,125 L 243,125 L 242,124 L 241,124 L 240,123 L 238,123 L 237,122 L 236,122 L 235,121 L 234,121 L 232,119 L 231,119 L 226,114 L 226,113 L 227,112 L 227,110 L 228,109 L 229,109 L 229,106 L 227,106 L 226,105 L 226,103 L 223,100 L 223,97 L 222,97 L 221,96 L 219,96 L 218,95 L 215,95 L 214,94 L 211,94 L 210,93 L 209,93 L 205,89 L 205,87 L 206,86 L 208,86 L 209,85 L 211,85 L 211,83 L 210,83 L 207,80 L 207,77 L 197,67 L 196,67 L 195,66 L 191,66 L 189,64 L 189,63 Z" fill="none" stroke="black" stroke-width="1"/>
</svg>