<svg xmlns="http://www.w3.org/2000/svg" width="753" height="314">
  <path d="M 298,166 L 296,168 L 295,167 L 286,167 L 284,169 L 284,170 L 285,171 L 285,173 L 281,177 L 280,177 L 278,179 L 277,179 L 276,180 L 275,180 L 272,183 L 271,183 L 269,185 L 268,185 L 267,186 L 266,186 L 261,191 L 260,191 L 258,193 L 259,194 L 262,194 L 263,195 L 266,195 L 267,196 L 269,196 L 270,197 L 272,197 L 273,198 L 274,198 L 275,199 L 275,200 L 276,199 L 277,199 L 278,198 L 285,198 L 286,197 L 289,197 L 290,196 L 292,196 L 293,195 L 300,195 L 301,196 L 303,196 L 304,197 L 306,197 L 307,198 L 308,198 L 309,199 L 313,199 L 314,198 L 316,198 L 317,197 L 319,197 L 320,196 L 321,196 L 323,194 L 326,194 L 327,195 L 327,183 L 326,183 L 323,180 L 319,180 L 318,179 L 317,179 L 314,176 L 314,175 L 311,172 L 311,171 L 310,170 L 306,170 L 305,169 L 303,169 L 301,167 L 300,167 L 299,166 Z" fill="none" stroke="black" stroke-width="1"/>
</svg>