<svg xmlns="http://www.w3.org/2000/svg" width="753" height="314">
  <path d="M 194,144 L 194,145 L 197,148 L 197,149 L 199,151 L 199,153 L 200,154 L 200,157 L 199,158 L 199,161 L 198,162 L 198,164 L 197,165 L 197,166 L 195,168 L 195,169 L 194,170 L 194,174 L 196,176 L 201,176 L 202,177 L 203,177 L 204,178 L 205,178 L 206,179 L 208,179 L 209,180 L 210,180 L 211,181 L 212,181 L 215,184 L 216,184 L 218,186 L 219,186 L 220,187 L 222,187 L 223,188 L 224,188 L 225,189 L 226,189 L 227,190 L 231,190 L 232,191 L 233,191 L 234,192 L 235,192 L 236,193 L 238,193 L 239,194 L 242,194 L 243,195 L 252,195 L 253,194 L 258,194 L 257,193 L 260,190 L 261,190 L 266,185 L 267,185 L 268,184 L 269,184 L 271,182 L 272,182 L 275,179 L 276,179 L 277,178 L 278,178 L 280,176 L 281,176 L 284,173 L 284,171 L 281,171 L 279,169 L 278,169 L 274,165 L 273,165 L 264,156 L 264,155 L 263,156 L 262,156 L 261,155 L 261,153 L 260,153 L 259,154 L 253,154 L 252,155 L 251,155 L 249,157 L 248,157 L 247,158 L 246,158 L 245,159 L 244,159 L 243,160 L 240,160 L 239,161 L 234,161 L 233,160 L 231,160 L 230,159 L 229,159 L 228,158 L 226,158 L 225,157 L 215,157 L 209,151 L 206,151 L 204,149 L 203,149 L 202,148 L 202,147 L 201,146 L 200,146 L 199,145 L 197,145 L 196,144 Z" fill="none" stroke="black" stroke-width="1"/>
</svg>