<svg xmlns="http://www.w3.org/2000/svg" width="753" height="314">
  <path d="M 197,177 L 197,178 L 198,179 L 198,183 L 197,184 L 197,186 L 199,188 L 199,201 L 201,203 L 201,204 L 202,205 L 202,206 L 203,207 L 203,209 L 205,211 L 205,212 L 206,213 L 206,215 L 204,217 L 204,220 L 205,221 L 205,222 L 206,223 L 206,227 L 208,229 L 213,229 L 214,230 L 215,230 L 216,231 L 218,231 L 219,232 L 222,232 L 223,233 L 227,233 L 228,234 L 229,234 L 230,235 L 231,235 L 232,236 L 236,236 L 237,237 L 241,237 L 243,239 L 247,239 L 248,240 L 253,240 L 254,241 L 254,243 L 256,243 L 257,242 L 259,242 L 259,241 L 261,239 L 263,239 L 264,238 L 266,238 L 267,237 L 267,235 L 253,221 L 252,221 L 250,219 L 249,219 L 248,218 L 246,218 L 245,217 L 244,217 L 243,216 L 242,216 L 241,215 L 240,215 L 239,214 L 238,214 L 236,212 L 235,212 L 233,210 L 233,208 L 232,207 L 232,206 L 231,205 L 231,204 L 230,203 L 230,202 L 229,201 L 229,200 L 228,199 L 228,198 L 226,196 L 226,194 L 227,193 L 227,191 L 226,190 L 225,190 L 224,189 L 223,189 L 222,188 L 220,188 L 219,187 L 218,187 L 216,185 L 215,185 L 212,182 L 211,182 L 210,181 L 209,181 L 208,180 L 206,180 L 205,179 L 204,179 L 203,178 L 202,178 L 201,177 Z" fill="none" stroke="black" stroke-width="1"/>
</svg>