<svg xmlns="http://www.w3.org/2000/svg" width="753" height="314">
  <path d="M 154,21 L 152,23 L 151,23 L 150,24 L 150,25 L 149,26 L 149,27 L 147,29 L 146,29 L 146,31 L 145,32 L 144,32 L 143,33 L 141,33 L 140,34 L 135,34 L 134,33 L 134,38 L 133,39 L 133,43 L 135,45 L 135,46 L 137,48 L 137,65 L 138,66 L 138,67 L 147,76 L 147,77 L 148,78 L 148,79 L 149,80 L 149,83 L 150,84 L 150,89 L 151,89 L 152,90 L 152,92 L 162,102 L 162,107 L 164,107 L 165,108 L 166,108 L 167,109 L 168,109 L 170,111 L 171,111 L 172,112 L 172,113 L 182,123 L 182,124 L 183,124 L 183,123 L 185,121 L 185,120 L 186,119 L 186,118 L 187,117 L 187,105 L 186,104 L 186,103 L 185,102 L 185,101 L 183,99 L 183,98 L 180,95 L 180,94 L 179,93 L 179,83 L 180,82 L 180,79 L 181,78 L 181,77 L 182,76 L 182,74 L 183,73 L 183,70 L 184,69 L 184,67 L 186,65 L 186,63 L 187,62 L 187,61 L 188,60 L 188,59 L 187,59 L 184,56 L 184,55 L 181,52 L 181,48 L 179,48 L 178,47 L 178,46 L 176,44 L 176,41 L 175,40 L 175,39 L 174,38 L 174,33 L 176,31 L 175,30 L 174,31 L 174,32 L 173,33 L 172,33 L 171,32 L 170,33 L 169,33 L 168,32 L 169,31 L 168,31 L 167,32 L 166,32 L 166,34 L 165,35 L 166,36 L 166,37 L 167,38 L 166,39 L 161,39 L 160,38 L 160,37 L 159,37 L 158,36 L 158,35 L 159,34 L 159,33 L 156,33 L 154,31 L 154,30 L 155,29 L 156,29 L 156,28 L 157,27 L 158,27 L 159,28 L 160,28 L 161,29 L 163,29 L 162,28 L 160,28 L 159,27 L 160,26 L 161,26 L 160,26 L 157,23 L 156,23 Z" fill="none" stroke="black" stroke-width="1"/>
</svg>