<svg xmlns="http://www.w3.org/2000/svg" width="753" height="314">
  <path d="M 130,33 L 129,34 L 128,34 L 126,36 L 124,36 L 123,37 L 123,39 L 121,41 L 120,41 L 119,42 L 114,42 L 113,43 L 112,43 L 111,42 L 111,41 L 104,41 L 103,40 L 99,40 L 97,42 L 95,42 L 93,44 L 92,44 L 91,45 L 90,45 L 89,46 L 88,46 L 87,47 L 86,47 L 83,50 L 83,53 L 84,54 L 84,60 L 83,61 L 83,64 L 82,65 L 82,67 L 83,67 L 84,68 L 85,68 L 87,70 L 88,70 L 92,74 L 92,75 L 93,76 L 93,78 L 95,80 L 95,81 L 97,83 L 98,83 L 100,85 L 101,85 L 103,87 L 104,87 L 105,88 L 106,88 L 107,89 L 108,89 L 112,93 L 112,100 L 123,111 L 123,112 L 124,113 L 124,117 L 123,118 L 123,129 L 123,128 L 124,127 L 125,127 L 126,128 L 126,131 L 134,131 L 135,130 L 136,130 L 139,127 L 140,127 L 142,125 L 143,125 L 145,123 L 146,123 L 146,122 L 152,116 L 152,115 L 153,114 L 153,112 L 152,111 L 153,110 L 155,110 L 157,108 L 158,108 L 159,107 L 160,108 L 161,108 L 161,102 L 151,92 L 151,90 L 150,90 L 149,89 L 149,84 L 148,83 L 148,80 L 147,79 L 147,78 L 146,77 L 146,76 L 137,67 L 137,66 L 136,65 L 136,48 L 134,46 L 134,45 L 132,43 L 132,39 L 133,38 L 133,33 Z" fill="none" stroke="black" stroke-width="1"/>
</svg>