<svg xmlns="http://www.w3.org/2000/svg" width="1028" height="413">
  <path d="M 721,283 L 721,284 L 722,284 L 723,283 Z" fill="none" stroke="black" stroke-width="1"/>
  <path d="M 727,280 L 730,280 Z" fill="none" stroke="black" stroke-width="1"/>
  <path d="M 722,277 L 722,278 L 723,278 L 724,279 L 725,279 L 723,277 Z" fill="none" stroke="black" stroke-width="1"/>
  <path d="M 716,234 L 716,235 L 715,236 L 715,238 L 714,239 L 714,240 L 717,243 L 717,245 L 718,246 L 718,248 L 720,250 L 719,251 L 718,251 L 718,255 L 719,256 L 718,257 L 718,258 L 717,259 L 717,260 L 716,261 L 716,265 L 715,266 L 715,267 L 716,268 L 716,273 L 718,273 L 719,274 L 720,273 L 721,273 L 722,272 L 723,273 L 723,274 L 724,275 L 725,275 L 726,276 L 728,276 L 730,278 L 731,277 L 734,277 L 735,278 L 735,279 L 734,280 L 733,280 L 733,281 L 735,281 L 736,282 L 735,283 L 732,283 L 732,284 L 733,285 L 733,287 L 734,286 L 735,287 L 736,287 L 738,285 L 738,281 L 739,280 L 740,280 L 740,279 L 741,278 L 745,278 L 748,275 L 750,275 L 751,274 L 753,274 L 753,273 L 751,273 L 748,270 L 748,269 L 747,269 L 746,268 L 745,268 L 743,266 L 743,265 L 741,263 L 741,262 L 740,262 L 739,261 L 737,263 L 736,262 L 735,263 L 734,262 L 734,261 L 735,260 L 735,256 L 734,255 L 734,248 L 736,246 L 736,245 L 737,244 L 737,243 L 736,242 L 736,241 L 735,240 L 735,237 L 734,236 L 733,236 L 731,238 L 729,238 L 728,239 L 726,239 L 725,238 L 724,238 L 721,235 L 719,235 L 718,234 Z" fill="none" stroke="black" stroke-width="1"/>
</svg>