<svg xmlns="http://www.w3.org/2000/svg" width="185" height="128">
  <path d="M 157,94 L 157,97 L 156,98 L 156,101 L 154,103 L 154,104 L 153,105 L 152,105 L 152,108 L 156,112 L 157,112 L 161,116 L 161,117 L 165,121 L 166,121 L 167,122 L 167,124 L 168,125 L 168,127 L 170,125 L 170,121 L 169,120 L 169,119 L 170,118 L 170,117 L 172,115 L 179,115 L 179,110 L 181,108 L 181,107 L 182,106 L 182,105 L 181,104 L 179,104 L 178,103 L 176,103 L 174,101 L 167,101 L 166,100 L 166,99 L 161,99 L 160,98 L 160,96 L 159,96 L 158,95 L 158,94 Z" fill="none" stroke="black" stroke-width="1"/>
</svg>