<svg xmlns="http://www.w3.org/2000/svg" width="753" height="314">
  <path d="M 81,68 L 78,71 L 78,74 L 74,78 L 73,78 L 72,79 L 70,79 L 69,80 L 56,80 L 51,85 L 46,85 L 46,87 L 50,91 L 50,95 L 52,97 L 52,99 L 55,102 L 55,103 L 57,105 L 57,108 L 54,111 L 54,114 L 57,117 L 57,118 L 59,120 L 59,124 L 60,125 L 60,127 L 62,129 L 63,129 L 64,130 L 64,131 L 66,131 L 67,130 L 73,130 L 76,133 L 77,133 L 79,135 L 80,134 L 80,133 L 81,132 L 82,133 L 85,133 L 90,138 L 94,138 L 95,139 L 98,139 L 99,140 L 102,140 L 104,142 L 106,142 L 106,141 L 109,138 L 111,138 L 112,137 L 114,137 L 116,135 L 119,135 L 120,134 L 121,134 L 122,133 L 124,133 L 125,132 L 125,128 L 124,128 L 124,129 L 123,130 L 122,129 L 122,118 L 123,117 L 123,113 L 122,112 L 122,111 L 111,100 L 111,93 L 108,90 L 107,90 L 106,89 L 105,89 L 104,88 L 103,88 L 101,86 L 100,86 L 98,84 L 97,84 L 94,81 L 94,80 L 92,78 L 92,76 L 91,75 L 91,74 L 88,71 L 87,71 L 85,69 L 84,69 L 83,68 Z" fill="none" stroke="black" stroke-width="1"/>
</svg>