<svg xmlns="http://www.w3.org/2000/svg" width="753" height="314">
  <path d="M 153,168 L 151,170 L 150,170 L 149,171 L 148,171 L 147,172 L 141,172 L 139,174 L 136,174 L 133,177 L 132,177 L 127,182 L 126,182 L 125,183 L 124,183 L 122,185 L 121,185 L 120,186 L 119,186 L 118,187 L 113,187 L 112,188 L 102,188 L 102,189 L 101,190 L 100,190 L 100,194 L 99,195 L 101,197 L 103,197 L 104,198 L 105,198 L 110,203 L 111,203 L 112,204 L 113,204 L 116,207 L 116,210 L 124,218 L 124,219 L 125,220 L 125,223 L 127,225 L 127,228 L 139,216 L 140,216 L 142,214 L 143,214 L 144,213 L 146,213 L 147,212 L 149,212 L 150,211 L 151,211 L 152,210 L 154,210 L 155,209 L 157,209 L 159,207 L 161,207 L 163,205 L 164,205 L 165,204 L 166,204 L 170,200 L 172,200 L 173,199 L 173,198 L 174,197 L 175,197 L 177,195 L 178,195 L 181,192 L 181,191 L 182,190 L 182,189 L 183,188 L 183,187 L 184,186 L 184,185 L 187,182 L 189,182 L 189,181 L 187,181 L 186,180 L 184,180 L 183,179 L 182,179 L 181,178 L 180,178 L 179,177 L 178,177 L 177,176 L 176,176 L 175,175 L 174,175 L 172,173 L 171,173 L 168,170 L 167,170 L 166,169 L 157,169 L 156,168 Z" fill="none" stroke="black" stroke-width="1"/>
</svg>