<svg xmlns="http://www.w3.org/2000/svg" width="753" height="314">
  <path d="M 44,81 L 43,82 L 42,82 L 40,84 L 38,84 L 37,83 L 29,83 L 28,84 L 27,84 L 25,86 L 23,86 L 22,87 L 21,87 L 18,90 L 17,90 L 16,89 L 14,91 L 14,92 L 13,93 L 13,103 L 4,112 L 4,113 L 3,114 L 2,114 L 0,116 L 3,119 L 3,120 L 4,121 L 4,124 L 5,125 L 9,125 L 10,126 L 11,126 L 15,130 L 17,130 L 20,133 L 21,133 L 23,135 L 24,135 L 26,137 L 27,137 L 33,143 L 33,144 L 35,146 L 35,149 L 36,150 L 38,150 L 39,151 L 39,152 L 40,152 L 41,153 L 42,153 L 45,156 L 46,156 L 47,157 L 49,157 L 50,158 L 51,158 L 52,159 L 53,159 L 54,160 L 54,161 L 55,161 L 56,160 L 56,159 L 57,158 L 57,157 L 61,153 L 61,151 L 59,149 L 59,134 L 60,133 L 60,132 L 62,130 L 63,130 L 62,130 L 59,127 L 59,125 L 58,124 L 58,120 L 56,118 L 56,117 L 53,114 L 53,111 L 56,108 L 56,105 L 54,103 L 54,102 L 51,99 L 51,97 L 49,95 L 49,91 L 45,87 L 45,81 Z" fill="none" stroke="black" stroke-width="1"/>
</svg>