<svg xmlns="http://www.w3.org/2000/svg" width="1133" height="465">
  <path d="M 867,167 L 865,169 L 864,169 L 862,171 L 861,171 L 859,173 L 859,174 L 853,180 L 853,181 L 852,182 L 852,184 L 851,185 L 851,196 L 850,197 L 850,198 L 849,199 L 849,204 L 850,205 L 850,210 L 849,211 L 849,212 L 848,213 L 848,214 L 851,214 L 852,215 L 855,215 L 858,218 L 860,218 L 861,219 L 863,219 L 864,218 L 871,218 L 872,219 L 876,219 L 878,221 L 880,221 L 881,222 L 884,222 L 885,223 L 885,222 L 886,221 L 886,220 L 887,219 L 892,219 L 895,216 L 896,216 L 899,213 L 899,212 L 900,211 L 901,211 L 903,209 L 903,208 L 905,206 L 905,205 L 906,204 L 906,202 L 905,201 L 905,198 L 903,196 L 903,195 L 898,190 L 897,190 L 895,188 L 894,188 L 892,186 L 891,186 L 888,183 L 886,183 L 882,179 L 881,179 L 880,178 L 876,178 L 874,176 L 874,173 L 873,172 L 873,171 L 871,169 L 868,169 L 867,168 Z" fill="none" stroke="black" stroke-width="1"/>
</svg>