<svg xmlns="http://www.w3.org/2000/svg" width="1133" height="465">
  <path d="M 907,203 L 907,204 L 906,205 L 906,206 L 904,208 L 904,209 L 901,212 L 900,212 L 900,213 L 896,217 L 895,217 L 892,220 L 887,220 L 887,221 L 886,222 L 886,223 L 887,224 L 887,225 L 886,226 L 886,227 L 888,229 L 888,233 L 889,234 L 889,241 L 891,243 L 891,249 L 892,250 L 892,251 L 894,253 L 895,253 L 898,256 L 899,256 L 901,258 L 901,259 L 902,259 L 902,258 L 908,252 L 908,251 L 909,250 L 910,250 L 911,249 L 912,249 L 914,247 L 919,247 L 920,248 L 921,248 L 922,249 L 925,249 L 927,247 L 929,247 L 931,245 L 931,244 L 934,241 L 935,241 L 938,238 L 938,237 L 944,231 L 942,229 L 939,229 L 938,228 L 938,224 L 937,223 L 938,222 L 938,221 L 936,221 L 935,220 L 934,220 L 933,219 L 934,218 L 934,217 L 933,217 L 931,215 L 927,215 L 926,214 L 925,214 L 924,213 L 924,212 L 923,212 L 922,211 L 921,211 L 920,210 L 918,210 L 917,209 L 916,209 L 913,206 L 912,206 L 911,205 L 910,205 L 909,204 L 909,203 Z" fill="none" stroke="black" stroke-width="1"/>
</svg>