<svg xmlns="http://www.w3.org/2000/svg" width="1133" height="465">
  <path d="M 848,215 L 848,216 L 850,218 L 849,219 L 849,220 L 847,222 L 846,222 L 842,226 L 842,229 L 844,231 L 844,232 L 843,233 L 842,233 L 841,234 L 840,234 L 840,236 L 842,238 L 843,238 L 847,242 L 848,242 L 851,245 L 851,246 L 853,248 L 853,249 L 855,251 L 855,252 L 856,252 L 858,254 L 859,254 L 860,255 L 860,256 L 861,256 L 862,257 L 863,257 L 866,260 L 867,260 L 868,261 L 869,261 L 870,262 L 871,262 L 873,264 L 874,264 L 875,265 L 875,266 L 876,267 L 876,268 L 879,268 L 881,270 L 883,270 L 884,271 L 885,271 L 886,272 L 889,272 L 890,271 L 891,271 L 893,269 L 894,269 L 895,268 L 896,268 L 897,267 L 897,265 L 898,264 L 898,263 L 900,261 L 900,258 L 899,257 L 898,257 L 895,254 L 894,254 L 891,251 L 891,250 L 890,249 L 890,243 L 888,241 L 888,234 L 887,233 L 887,229 L 885,227 L 885,226 L 886,225 L 886,224 L 885,224 L 884,223 L 881,223 L 880,222 L 878,222 L 876,220 L 872,220 L 871,219 L 864,219 L 863,220 L 861,220 L 860,219 L 858,219 L 855,216 L 852,216 L 851,215 Z" fill="none" stroke="black" stroke-width="1"/>
</svg>