<svg xmlns="http://www.w3.org/2000/svg" width="1133" height="465">
  <path d="M 914,248 L 912,250 L 911,250 L 910,251 L 909,251 L 909,252 L 903,258 L 903,259 L 902,260 L 901,260 L 901,261 L 899,263 L 899,264 L 898,265 L 898,267 L 897,268 L 897,273 L 896,274 L 896,275 L 895,276 L 895,282 L 892,285 L 892,286 L 890,288 L 890,289 L 888,291 L 888,292 L 887,293 L 887,297 L 886,298 L 886,299 L 888,301 L 889,301 L 890,302 L 891,302 L 893,304 L 894,304 L 895,305 L 896,305 L 897,306 L 897,307 L 899,307 L 900,308 L 902,308 L 903,307 L 905,307 L 907,305 L 909,305 L 910,304 L 912,304 L 913,303 L 914,303 L 915,302 L 918,302 L 920,300 L 921,300 L 925,296 L 925,295 L 924,295 L 923,294 L 923,293 L 922,292 L 922,290 L 923,289 L 924,289 L 924,288 L 923,288 L 922,287 L 922,286 L 921,285 L 921,280 L 922,279 L 922,278 L 924,276 L 924,275 L 926,273 L 926,272 L 927,271 L 927,267 L 928,266 L 928,264 L 929,263 L 930,263 L 930,262 L 931,261 L 931,259 L 932,258 L 932,257 L 931,256 L 931,255 L 929,253 L 929,248 L 927,248 L 925,250 L 922,250 L 921,249 L 920,249 L 919,248 Z" fill="none" stroke="black" stroke-width="1"/>
</svg>