<svg xmlns="http://www.w3.org/2000/svg" width="1133" height="465">
  <path d="M 741,192 L 741,193 L 742,193 Z" fill="none" stroke="black" stroke-width="1"/>
  <path d="M 738,177 L 738,178 L 737,179 L 737,180 L 739,178 L 740,178 L 740,177 Z" fill="none" stroke="black" stroke-width="1"/>
  <path d="M 751,164 L 748,167 L 748,168 L 744,172 L 743,172 L 741,174 L 744,174 L 744,173 L 745,172 L 746,173 L 748,171 L 748,170 L 750,168 L 751,168 L 751,166 L 752,165 L 752,164 Z" fill="none" stroke="black" stroke-width="1"/>
  <path d="M 764,141 L 763,142 L 761,142 L 760,143 L 759,143 L 757,145 L 757,149 L 758,150 L 758,152 L 759,153 L 759,157 L 760,158 L 759,159 L 758,159 L 756,161 L 756,162 L 755,163 L 755,164 L 754,165 L 754,166 L 753,167 L 753,169 L 750,172 L 750,173 L 752,175 L 753,175 L 754,176 L 754,177 L 753,178 L 752,177 L 751,177 L 749,175 L 747,175 L 747,176 L 746,177 L 745,177 L 748,177 L 753,182 L 753,183 L 752,184 L 748,180 L 745,180 L 745,182 L 746,183 L 748,183 L 749,184 L 749,186 L 751,186 L 752,185 L 753,185 L 754,184 L 759,184 L 760,185 L 758,187 L 756,187 L 755,186 L 754,187 L 753,187 L 752,188 L 751,188 L 751,192 L 750,193 L 748,193 L 747,192 L 748,191 L 747,191 L 746,192 L 745,192 L 744,191 L 746,189 L 744,189 L 743,190 L 742,190 L 744,192 L 745,192 L 746,193 L 747,192 L 749,194 L 748,195 L 747,195 L 747,196 L 746,197 L 747,198 L 746,199 L 744,199 L 744,200 L 745,200 L 747,202 L 747,203 L 749,203 L 752,206 L 752,207 L 753,208 L 755,208 L 755,206 L 754,205 L 754,204 L 755,203 L 758,206 L 760,206 L 760,203 L 759,202 L 760,201 L 761,201 L 762,202 L 762,203 L 763,203 L 763,198 L 766,195 L 768,195 L 771,192 L 771,191 L 773,189 L 773,187 L 772,186 L 772,183 L 774,181 L 774,180 L 780,174 L 780,173 L 781,172 L 781,165 L 780,164 L 780,163 L 779,162 L 779,149 L 776,146 L 775,146 L 774,145 L 773,145 L 772,144 L 772,142 L 771,141 Z" fill="none" stroke="black" stroke-width="1"/>
</svg>