<svg xmlns="http://www.w3.org/2000/svg" width="1133" height="465">
  <path d="M 847,243 L 842,248 L 841,248 L 839,250 L 838,250 L 837,251 L 836,251 L 834,253 L 834,254 L 833,255 L 833,256 L 834,257 L 833,258 L 833,259 L 832,260 L 831,260 L 831,262 L 832,263 L 832,264 L 829,267 L 829,268 L 831,268 L 832,269 L 831,270 L 831,271 L 832,272 L 831,273 L 830,273 L 830,274 L 831,274 L 831,273 L 832,272 L 833,273 L 833,272 L 834,271 L 835,271 L 834,270 L 833,271 L 832,270 L 832,268 L 834,266 L 836,266 L 837,265 L 839,265 L 840,266 L 839,267 L 838,267 L 837,268 L 835,268 L 836,268 L 838,270 L 838,272 L 834,276 L 835,277 L 836,277 L 837,278 L 837,279 L 836,280 L 836,281 L 837,281 L 840,284 L 841,284 L 842,285 L 843,285 L 839,281 L 840,280 L 841,280 L 842,279 L 843,279 L 845,277 L 845,276 L 846,275 L 846,274 L 847,273 L 846,273 L 845,272 L 845,271 L 846,270 L 847,271 L 848,271 L 849,272 L 849,274 L 848,275 L 848,279 L 849,280 L 849,281 L 850,282 L 851,282 L 852,283 L 851,284 L 850,284 L 850,285 L 849,286 L 848,285 L 848,284 L 847,283 L 847,282 L 846,281 L 845,282 L 845,283 L 846,284 L 846,285 L 847,286 L 850,286 L 851,287 L 852,287 L 853,288 L 853,286 L 854,285 L 855,286 L 855,287 L 856,286 L 855,285 L 856,284 L 856,283 L 861,278 L 865,278 L 866,277 L 867,277 L 868,276 L 869,276 L 875,270 L 875,267 L 874,266 L 874,265 L 873,265 L 871,263 L 870,263 L 869,262 L 868,262 L 867,261 L 866,261 L 863,258 L 862,258 L 861,257 L 860,257 L 859,256 L 859,255 L 858,255 L 856,253 L 855,253 L 854,252 L 854,251 L 852,249 L 852,248 L 850,246 L 850,245 L 848,243 Z" fill="none" stroke="black" stroke-width="1"/>
</svg>