<svg xmlns="http://www.w3.org/2000/svg" width="1133" height="465">
  <path d="M 526,56 L 525,57 L 526,57 Z" fill="none" stroke="black" stroke-width="1"/>
  <path d="M 469,50 L 467,52 L 467,53 L 468,53 L 468,52 L 469,51 L 470,52 L 470,53 L 471,54 L 472,54 L 473,53 L 472,53 L 471,52 L 472,51 L 471,51 L 470,50 Z" fill="none" stroke="black" stroke-width="1"/>
  <path d="M 484,45 L 484,47 L 481,50 L 481,51 L 480,52 L 479,52 L 477,54 L 476,54 L 474,56 L 474,57 L 473,58 L 475,58 L 476,57 L 478,57 L 478,56 L 479,55 L 479,54 L 485,48 L 486,48 L 487,47 L 487,46 L 486,46 L 485,45 Z" fill="none" stroke="black" stroke-width="1"/>
  <path d="M 471,45 L 470,46 L 471,46 Z" fill="none" stroke="black" stroke-width="1"/>
  <path d="M 475,42 L 474,43 L 474,46 L 473,47 L 473,48 L 474,48 L 475,49 L 475,48 L 476,47 L 476,45 L 475,44 L 476,43 L 477,43 L 476,42 Z" fill="none" stroke="black" stroke-width="1"/>
  <path d="M 502,40 L 501,41 L 499,41 L 498,42 L 499,42 L 500,43 L 499,44 L 497,44 L 496,43 L 495,43 L 494,42 L 493,43 L 492,43 L 492,45 L 493,46 L 492,47 L 493,47 L 495,45 L 497,45 L 498,44 L 500,44 L 500,42 L 501,41 L 503,41 L 504,40 Z" fill="none" stroke="black" stroke-width="1"/>
  <path d="M 483,15 L 481,17 L 480,17 L 478,19 L 477,19 L 474,22 L 474,24 L 475,25 L 475,26 L 473,28 L 473,30 L 472,31 L 473,32 L 472,33 L 471,33 L 470,32 L 470,34 L 472,34 L 473,33 L 476,33 L 477,32 L 477,26 L 478,25 L 479,26 L 479,31 L 480,32 L 481,32 L 484,29 L 486,29 L 487,30 L 488,30 L 491,27 L 492,27 L 493,26 L 498,26 L 499,27 L 498,28 L 496,28 L 495,29 L 493,29 L 491,31 L 493,33 L 497,33 L 498,32 L 500,32 L 501,33 L 500,34 L 499,34 L 498,35 L 494,35 L 493,36 L 492,36 L 493,36 L 494,37 L 495,36 L 499,36 L 500,37 L 499,38 L 502,38 L 503,37 L 504,37 L 505,38 L 506,38 L 507,37 L 508,38 L 508,39 L 506,41 L 506,42 L 509,42 L 511,44 L 512,44 L 513,45 L 514,44 L 515,45 L 516,45 L 516,43 L 518,41 L 518,40 L 522,36 L 523,36 L 524,37 L 522,39 L 522,40 L 521,41 L 521,42 L 520,43 L 520,45 L 519,46 L 522,46 L 524,48 L 525,48 L 526,49 L 527,48 L 530,48 L 531,49 L 531,50 L 532,51 L 533,51 L 534,52 L 534,53 L 536,53 L 537,52 L 543,52 L 544,51 L 551,51 L 551,45 L 558,38 L 558,37 L 560,35 L 560,33 L 557,33 L 556,32 L 542,32 L 541,31 L 539,31 L 538,30 L 536,30 L 535,29 L 534,29 L 533,28 L 531,28 L 528,25 L 527,25 L 525,23 L 524,23 L 523,22 L 522,22 L 521,21 L 520,21 L 518,19 L 517,19 L 516,18 L 515,18 L 514,17 L 513,17 L 512,16 L 484,16 Z" fill="none" stroke="black" stroke-width="1"/>
</svg>