<svg xmlns="http://www.w3.org/2000/svg" width="1133" height="465">
  <path d="M 696,107 L 696,110 L 697,110 L 698,109 L 698,108 L 697,108 Z" fill="none" stroke="black" stroke-width="1"/>
  <path d="M 688,102 L 689,103 L 689,104 L 690,105 L 690,107 L 691,108 L 691,105 L 689,103 L 689,102 Z" fill="none" stroke="black" stroke-width="1"/>
  <path d="M 660,95 L 659,96 L 656,96 L 656,97 L 655,98 L 654,97 L 654,96 L 653,96 L 652,97 L 652,98 L 656,102 L 655,103 L 654,103 L 650,99 L 650,101 L 651,102 L 651,103 L 652,102 L 653,103 L 653,104 L 657,108 L 658,108 L 659,109 L 658,110 L 659,111 L 659,112 L 660,111 L 662,113 L 661,114 L 664,114 L 665,113 L 667,115 L 666,116 L 665,116 L 666,117 L 665,118 L 664,118 L 663,117 L 661,117 L 662,118 L 662,119 L 663,120 L 663,121 L 662,122 L 662,123 L 664,123 L 665,122 L 665,118 L 666,117 L 668,117 L 669,118 L 669,119 L 668,120 L 669,121 L 669,127 L 671,127 L 672,128 L 672,131 L 673,131 L 674,130 L 676,130 L 677,131 L 675,133 L 674,133 L 674,135 L 676,137 L 676,138 L 678,140 L 678,141 L 679,141 L 680,140 L 680,130 L 679,129 L 679,127 L 678,126 L 678,124 L 677,123 L 677,120 L 676,119 L 676,118 L 671,113 L 669,113 L 668,112 L 667,112 L 666,113 L 665,112 L 665,110 L 664,110 L 662,108 L 662,107 L 663,106 L 664,106 L 666,108 L 667,108 L 668,109 L 669,109 L 671,111 L 672,111 L 676,115 L 676,114 L 675,113 L 676,112 L 676,109 L 675,108 L 675,106 L 674,105 L 674,104 L 672,104 L 671,103 L 672,102 L 675,102 L 675,100 L 674,100 L 673,99 L 671,99 L 670,98 L 668,98 L 666,100 L 665,99 L 665,98 L 666,97 L 665,96 L 664,96 L 663,95 Z" fill="none" stroke="black" stroke-width="1"/>
  <path d="M 675,92 L 675,94 L 676,95 L 676,96 L 678,98 L 678,101 L 679,102 L 679,108 L 680,109 L 680,110 L 681,111 L 682,111 L 683,112 L 682,113 L 682,116 L 681,117 L 681,122 L 683,122 L 685,120 L 686,120 L 687,119 L 687,116 L 688,115 L 689,116 L 691,116 L 691,114 L 690,114 L 689,113 L 690,112 L 691,112 L 690,111 L 690,110 L 688,108 L 688,107 L 687,106 L 687,105 L 685,103 L 685,102 L 684,101 L 684,99 L 685,98 L 686,99 L 687,99 L 687,98 L 686,97 L 685,97 L 684,98 L 683,97 L 679,97 L 678,96 L 678,95 Z" fill="none" stroke="black" stroke-width="1"/>
  <path d="M 658,58 L 656,60 L 656,61 L 655,62 L 653,62 L 652,63 L 650,63 L 649,64 L 643,64 L 642,63 L 641,64 L 636,64 L 635,65 L 625,65 L 624,66 L 623,66 L 620,69 L 620,72 L 621,73 L 620,74 L 621,74 L 622,75 L 623,75 L 625,77 L 626,77 L 629,80 L 629,82 L 630,83 L 631,83 L 633,85 L 634,84 L 635,84 L 636,85 L 635,86 L 635,87 L 636,88 L 637,88 L 639,90 L 640,90 L 641,91 L 645,91 L 646,92 L 646,93 L 648,95 L 649,95 L 649,94 L 648,93 L 649,92 L 650,92 L 651,91 L 653,91 L 654,92 L 654,93 L 656,93 L 657,92 L 657,90 L 656,89 L 656,87 L 654,85 L 653,86 L 652,85 L 652,84 L 651,84 L 650,83 L 649,83 L 648,82 L 649,81 L 648,81 L 647,80 L 643,80 L 642,81 L 641,80 L 641,79 L 642,78 L 641,77 L 641,76 L 642,75 L 643,75 L 646,78 L 647,78 L 648,77 L 651,80 L 651,81 L 652,81 L 653,82 L 656,82 L 656,78 L 657,77 L 658,78 L 658,79 L 659,79 L 660,80 L 658,82 L 659,83 L 659,84 L 661,86 L 661,90 L 660,91 L 663,91 L 664,90 L 665,90 L 666,89 L 668,91 L 668,92 L 669,93 L 669,94 L 670,95 L 672,95 L 673,94 L 673,92 L 672,91 L 672,89 L 671,88 L 671,85 L 670,84 L 670,83 L 669,82 L 669,81 L 668,80 L 668,76 L 667,75 L 667,74 L 665,72 L 666,71 L 667,71 L 666,70 L 667,69 L 667,68 L 669,66 L 670,67 L 670,69 L 669,70 L 669,71 L 670,72 L 670,73 L 671,74 L 671,75 L 672,76 L 672,80 L 673,81 L 673,82 L 674,82 L 675,81 L 676,82 L 676,84 L 675,85 L 676,86 L 676,87 L 678,89 L 678,91 L 679,91 L 680,92 L 682,92 L 683,93 L 682,94 L 680,94 L 681,95 L 683,95 L 683,94 L 684,93 L 686,95 L 687,95 L 688,94 L 689,95 L 689,99 L 690,100 L 691,100 L 694,97 L 695,98 L 695,99 L 694,100 L 694,101 L 693,102 L 693,103 L 695,105 L 695,103 L 696,102 L 697,103 L 697,104 L 700,107 L 700,108 L 702,108 L 705,111 L 705,112 L 708,112 L 710,110 L 710,109 L 711,108 L 711,107 L 712,106 L 712,104 L 711,103 L 711,102 L 706,97 L 706,96 L 704,94 L 703,94 L 701,92 L 701,91 L 700,90 L 700,88 L 699,87 L 699,86 L 695,82 L 695,81 L 693,79 L 692,79 L 689,76 L 688,76 L 687,75 L 687,74 L 686,74 L 684,72 L 683,72 L 682,71 L 682,70 L 681,69 L 681,68 L 679,68 L 678,67 L 677,67 L 676,66 L 675,66 L 673,64 L 672,64 L 671,63 L 670,63 L 667,60 L 665,60 L 663,58 Z" fill="none" stroke="black" stroke-width="1"/>
</svg>