<svg xmlns="http://www.w3.org/2000/svg" width="258" height="263">
  <path d="M 151,181 L 151,182 L 150,183 L 150,184 L 146,188 L 145,188 L 144,189 L 142,189 L 140,191 L 140,194 L 144,198 L 144,199 L 145,199 L 147,201 L 147,202 L 148,203 L 148,206 L 147,207 L 148,208 L 148,213 L 147,214 L 147,219 L 146,220 L 147,221 L 146,222 L 146,224 L 150,228 L 149,229 L 149,230 L 150,231 L 151,231 L 152,232 L 154,232 L 155,233 L 157,233 L 158,234 L 158,235 L 160,237 L 160,238 L 161,237 L 161,234 L 162,233 L 162,232 L 163,231 L 163,230 L 164,229 L 164,228 L 165,227 L 165,226 L 170,221 L 170,218 L 172,216 L 172,215 L 173,214 L 173,213 L 176,210 L 175,209 L 175,206 L 163,194 L 163,193 L 157,187 L 157,185 L 156,184 L 156,183 L 155,183 L 154,182 L 153,182 L 152,181 Z" fill="none" stroke="black" stroke-width="1"/>
</svg>