<svg xmlns="http://www.w3.org/2000/svg" width="248" height="234">
  <path d="M 124,125 L 124,127 L 120,131 L 119,131 L 118,132 L 118,133 L 117,134 L 116,134 L 116,135 L 117,135 L 121,139 L 119,141 L 119,143 L 118,144 L 118,145 L 122,145 L 123,146 L 124,146 L 125,147 L 128,147 L 129,146 L 132,146 L 134,148 L 134,146 L 136,144 L 136,138 L 137,137 L 138,137 L 139,136 L 140,136 L 141,135 L 145,135 L 146,136 L 146,133 L 144,133 L 140,129 L 139,129 L 138,128 L 137,128 L 135,126 L 133,126 L 132,125 Z" fill="none" stroke="black" stroke-width="1"/>
</svg>