<svg xmlns="http://www.w3.org/2000/svg" width="304" height="349">
  <path d="M 195,201 L 194,202 L 193,202 L 192,203 L 189,203 L 185,207 L 181,207 L 180,208 L 179,208 L 179,209 L 178,210 L 177,210 L 176,211 L 176,215 L 177,216 L 177,217 L 180,220 L 180,222 L 181,223 L 181,224 L 182,225 L 181,226 L 181,227 L 183,229 L 183,231 L 185,233 L 185,234 L 186,234 L 187,235 L 187,238 L 191,238 L 197,232 L 198,232 L 199,231 L 202,231 L 203,230 L 204,230 L 205,229 L 206,229 L 208,227 L 208,225 L 203,220 L 203,219 L 202,218 L 202,215 L 201,214 L 201,213 L 200,212 L 199,212 L 198,211 L 199,210 L 199,207 L 200,206 L 200,205 L 199,205 L 198,204 L 199,203 L 198,203 L 197,202 L 196,202 Z" fill="none" stroke="black" stroke-width="1"/>
</svg>