<svg xmlns="http://www.w3.org/2000/svg" width="248" height="234">
  <path d="M 80,112 L 80,115 L 76,119 L 76,121 L 82,127 L 82,129 L 81,130 L 80,130 L 80,133 L 84,137 L 84,138 L 86,138 L 87,139 L 87,140 L 90,143 L 90,144 L 92,146 L 92,147 L 93,148 L 95,148 L 96,147 L 97,147 L 98,146 L 99,146 L 100,145 L 100,143 L 99,142 L 99,141 L 97,139 L 97,135 L 98,134 L 98,129 L 101,126 L 101,125 L 100,125 L 97,122 L 94,122 L 93,121 L 93,120 L 90,117 L 86,117 L 82,113 L 82,112 Z" fill="none" stroke="black" stroke-width="1"/>
</svg>