<svg xmlns="http://www.w3.org/2000/svg" width="258" height="263">
  <path d="M 61,145 L 60,146 L 59,146 L 49,156 L 49,157 L 46,160 L 46,163 L 45,164 L 45,165 L 46,166 L 46,167 L 48,169 L 48,171 L 49,172 L 49,173 L 50,174 L 50,178 L 51,179 L 51,181 L 50,182 L 50,183 L 51,182 L 51,181 L 52,180 L 52,177 L 53,176 L 53,175 L 54,174 L 56,174 L 57,173 L 59,173 L 61,175 L 64,175 L 66,177 L 66,179 L 69,182 L 70,181 L 73,181 L 74,180 L 74,178 L 77,175 L 81,175 L 82,174 L 85,174 L 87,172 L 90,172 L 92,170 L 94,170 L 94,169 L 92,167 L 92,166 L 90,164 L 90,161 L 89,160 L 89,159 L 91,157 L 92,157 L 94,155 L 94,154 L 92,152 L 91,152 L 90,153 L 89,152 L 89,151 L 88,150 L 87,150 L 86,151 L 85,151 L 84,150 L 81,150 L 80,149 L 78,149 L 77,148 L 74,148 L 73,147 L 71,147 L 70,146 L 64,146 L 63,145 Z" fill="none" stroke="black" stroke-width="1"/>
</svg>