<svg xmlns="http://www.w3.org/2000/svg" width="258" height="263">
  <path d="M 109,180 L 107,182 L 106,182 L 105,183 L 103,183 L 102,184 L 101,184 L 100,185 L 100,189 L 99,190 L 99,192 L 100,193 L 101,193 L 102,194 L 100,196 L 100,198 L 101,199 L 101,200 L 100,201 L 100,202 L 99,203 L 100,203 L 101,204 L 101,205 L 103,205 L 104,204 L 107,204 L 108,205 L 109,205 L 110,204 L 114,204 L 115,205 L 117,205 L 120,208 L 120,209 L 123,212 L 124,211 L 125,211 L 126,210 L 128,210 L 129,209 L 131,209 L 132,210 L 132,211 L 133,212 L 133,216 L 131,218 L 131,219 L 133,221 L 134,221 L 135,220 L 136,220 L 139,217 L 144,217 L 145,218 L 145,219 L 146,219 L 146,214 L 147,213 L 147,208 L 146,207 L 147,206 L 147,203 L 146,202 L 146,201 L 145,200 L 144,200 L 143,199 L 143,198 L 139,194 L 137,194 L 135,192 L 133,192 L 132,191 L 131,191 L 128,188 L 127,188 L 126,187 L 118,187 L 117,186 L 115,186 L 112,183 L 111,183 L 109,181 Z" fill="none" stroke="black" stroke-width="1"/>
</svg>