<svg xmlns="http://www.w3.org/2000/svg" width="304" height="349">
  <path d="M 168,235 L 168,237 L 173,242 L 173,243 L 174,243 L 174,241 L 173,240 L 172,240 L 171,239 L 171,237 L 169,235 Z" fill="none" stroke="black" stroke-width="1"/>
  <path d="M 131,207 L 130,208 L 126,208 L 126,209 L 128,211 L 128,212 L 130,214 L 130,220 L 130,219 L 131,218 L 132,219 L 132,220 L 134,222 L 134,225 L 135,226 L 135,231 L 136,231 L 139,234 L 140,234 L 142,236 L 143,236 L 144,237 L 146,237 L 152,243 L 152,244 L 153,245 L 154,245 L 156,247 L 156,248 L 157,249 L 158,249 L 160,251 L 160,252 L 161,253 L 161,254 L 160,255 L 160,256 L 159,257 L 160,258 L 160,260 L 162,260 L 163,259 L 172,259 L 173,258 L 174,259 L 179,259 L 179,255 L 177,255 L 175,253 L 175,251 L 174,250 L 174,248 L 172,248 L 171,247 L 171,246 L 170,246 L 169,247 L 168,246 L 168,243 L 167,242 L 167,241 L 165,239 L 165,238 L 164,237 L 163,237 L 158,232 L 157,232 L 152,227 L 152,226 L 151,225 L 151,224 L 149,224 L 148,223 L 145,223 L 144,222 L 144,221 L 143,221 L 141,219 L 141,218 L 140,217 L 140,216 L 139,215 L 139,213 L 136,210 L 135,210 L 134,209 L 134,208 L 132,208 Z" fill="none" stroke="black" stroke-width="1"/>
</svg>