<svg xmlns="http://www.w3.org/2000/svg" width="248" height="234">
  <path d="M 103,145 L 102,146 L 100,146 L 99,147 L 98,147 L 97,148 L 96,148 L 95,149 L 93,149 L 93,152 L 91,154 L 92,154 L 93,155 L 93,158 L 92,159 L 93,159 L 96,162 L 96,161 L 97,160 L 98,160 L 99,159 L 100,159 L 101,158 L 102,158 L 104,156 L 105,156 L 108,153 L 109,153 L 110,152 L 111,152 L 112,151 L 113,151 L 115,153 L 117,153 L 118,152 L 118,150 L 120,148 L 120,146 L 113,146 L 112,147 L 111,146 L 110,146 L 109,145 Z" fill="none" stroke="black" stroke-width="1"/>
</svg>