<svg xmlns="http://www.w3.org/2000/svg" width="361" height="306">
  <path d="M 146,191 L 144,193 L 144,195 L 145,196 L 145,197 L 146,198 L 146,199 L 148,201 L 148,202 L 152,206 L 152,207 L 153,208 L 153,209 L 152,210 L 152,216 L 150,218 L 150,219 L 149,220 L 149,224 L 150,225 L 151,224 L 153,224 L 154,225 L 154,226 L 153,227 L 154,228 L 161,228 L 162,227 L 163,227 L 165,229 L 166,229 L 167,230 L 170,230 L 171,231 L 174,231 L 175,232 L 179,232 L 180,233 L 185,233 L 185,232 L 188,229 L 190,229 L 192,231 L 194,231 L 194,227 L 195,226 L 196,226 L 196,225 L 194,225 L 193,224 L 193,221 L 192,220 L 192,217 L 191,216 L 191,215 L 190,214 L 189,214 L 188,213 L 188,203 L 187,203 L 185,201 L 185,200 L 184,200 L 183,199 L 182,199 L 181,198 L 179,198 L 178,197 L 177,197 L 176,196 L 175,196 L 174,195 L 173,195 L 171,193 L 155,193 L 154,192 L 151,192 L 150,191 Z" fill="none" stroke="black" stroke-width="1"/>
</svg>