<svg xmlns="http://www.w3.org/2000/svg" width="248" height="234">
  <path d="M 122,193 L 122,194 L 121,195 L 120,195 L 119,196 L 118,196 L 121,199 L 121,200 L 122,200 L 124,202 L 125,202 L 126,203 L 127,203 L 128,204 L 129,204 L 130,205 L 130,206 L 131,206 L 132,207 L 133,207 L 134,208 L 135,208 L 136,209 L 139,209 L 140,210 L 141,210 L 142,211 L 143,211 L 143,210 L 144,209 L 144,206 L 142,204 L 142,203 L 143,202 L 142,201 L 142,198 L 141,197 L 139,197 L 138,198 L 134,198 L 133,197 L 133,196 L 131,194 L 131,193 Z" fill="none" stroke="black" stroke-width="1"/>
</svg>