<svg xmlns="http://www.w3.org/2000/svg" width="248" height="234">
  <path d="M 200,199 L 197,202 L 197,203 L 195,205 L 193,205 L 192,206 L 190,206 L 188,208 L 188,210 L 187,211 L 187,216 L 190,216 L 192,214 L 194,214 L 196,216 L 195,217 L 195,218 L 194,219 L 194,221 L 197,221 L 198,220 L 200,220 L 201,219 L 201,217 L 203,215 L 203,213 L 202,212 L 202,210 L 201,209 L 204,206 L 205,206 L 207,204 L 207,203 L 208,202 L 208,199 L 206,199 L 205,200 L 201,200 Z" fill="none" stroke="black" stroke-width="1"/>
</svg>