<svg xmlns="http://www.w3.org/2000/svg" width="248" height="234">
  <path d="M 211,183 L 209,185 L 208,185 L 207,186 L 206,186 L 206,187 L 202,191 L 202,192 L 201,193 L 201,199 L 205,199 L 206,198 L 208,198 L 212,194 L 213,194 L 215,196 L 216,196 L 216,195 L 217,194 L 219,194 L 220,195 L 222,195 L 223,194 L 224,194 L 225,193 L 228,193 L 228,192 L 229,191 L 230,191 L 230,190 L 228,188 L 228,187 L 226,187 L 224,185 L 223,185 L 221,183 L 220,183 L 219,184 L 218,184 L 217,183 Z" fill="none" stroke="black" stroke-width="1"/>
</svg>