<svg xmlns="http://www.w3.org/2000/svg" width="248" height="234">
  <path d="M 231,191 L 230,192 L 229,192 L 229,193 L 228,194 L 225,194 L 224,195 L 223,195 L 222,196 L 220,196 L 219,195 L 217,195 L 217,197 L 218,198 L 219,198 L 221,200 L 222,200 L 223,201 L 224,201 L 227,204 L 228,204 L 231,207 L 231,209 L 233,209 L 234,210 L 237,210 L 238,209 L 238,208 L 242,204 L 242,203 L 243,202 L 244,202 L 245,201 L 246,201 L 246,200 L 247,199 L 247,195 L 244,192 L 244,191 L 239,191 L 238,192 L 236,192 L 235,193 L 233,193 Z" fill="none" stroke="black" stroke-width="1"/>
</svg>