<svg xmlns="http://www.w3.org/2000/svg" width="196" height="218">
  <path d="M 45,48 L 44,49 L 39,49 L 38,50 L 37,50 L 35,52 L 34,51 L 32,53 L 30,53 L 28,55 L 27,54 L 27,53 L 21,53 L 21,54 L 20,55 L 19,54 L 18,54 L 19,55 L 19,57 L 22,60 L 22,64 L 23,63 L 26,63 L 27,64 L 28,64 L 29,65 L 32,65 L 33,66 L 41,66 L 42,67 L 47,67 L 48,68 L 49,68 L 52,71 L 53,71 L 53,70 L 54,69 L 54,66 L 55,65 L 56,65 L 59,62 L 60,62 L 61,63 L 62,63 L 63,64 L 64,64 L 65,63 L 63,63 L 62,62 L 62,58 L 59,58 L 58,57 L 55,57 L 52,54 L 52,53 L 49,53 L 47,51 L 47,49 L 46,48 Z" fill="none" stroke="black" stroke-width="1"/>
</svg>