<svg xmlns="http://www.w3.org/2000/svg" width="196" height="218">
  <path d="M 107,31 L 105,33 L 105,34 L 103,36 L 103,38 L 102,39 L 101,39 L 100,40 L 100,42 L 99,43 L 99,45 L 97,47 L 97,53 L 96,54 L 95,54 L 95,55 L 94,56 L 94,58 L 95,58 L 102,51 L 104,51 L 104,50 L 105,49 L 105,48 L 107,46 L 108,47 L 108,52 L 109,52 L 111,54 L 112,53 L 112,49 L 113,48 L 113,47 L 114,46 L 114,42 L 115,41 L 115,40 L 116,39 L 115,39 L 114,40 L 113,39 L 113,37 L 114,36 L 116,36 L 117,35 L 117,33 L 115,35 L 114,35 L 112,33 L 110,33 L 108,31 Z" fill="none" stroke="black" stroke-width="1"/>
</svg>