<svg xmlns="http://www.w3.org/2000/svg" width="196" height="218">
  <path d="M 113,94 L 112,95 L 110,95 L 107,98 L 105,98 L 104,97 L 103,97 L 101,95 L 101,98 L 100,99 L 98,99 L 93,104 L 92,104 L 88,108 L 87,108 L 86,109 L 86,110 L 87,111 L 88,111 L 89,112 L 89,115 L 88,116 L 90,116 L 91,117 L 92,117 L 94,119 L 95,119 L 96,120 L 97,120 L 98,121 L 102,121 L 104,123 L 107,123 L 107,121 L 105,119 L 105,118 L 109,114 L 108,113 L 108,111 L 107,110 L 107,109 L 106,108 L 106,107 L 107,106 L 107,105 L 110,102 L 111,102 L 112,101 L 113,101 L 114,100 L 114,99 L 116,97 L 116,96 L 115,96 Z" fill="none" stroke="black" stroke-width="1"/>
</svg>