<svg xmlns="http://www.w3.org/2000/svg" width="217" height="184">
  <path d="M 92,120 L 91,121 L 91,123 L 90,124 L 89,124 L 89,125 L 88,126 L 87,126 L 86,127 L 86,128 L 85,129 L 85,133 L 86,134 L 86,135 L 89,138 L 92,138 L 93,139 L 93,140 L 95,142 L 96,142 L 97,143 L 98,143 L 99,144 L 99,147 L 100,147 L 101,146 L 102,147 L 102,148 L 102,146 L 101,145 L 101,144 L 102,143 L 103,143 L 103,139 L 101,137 L 99,137 L 98,136 L 98,134 L 102,130 L 102,129 L 104,127 L 103,127 L 101,125 L 100,125 L 99,124 L 98,124 L 96,122 L 95,122 L 93,120 Z" fill="none" stroke="black" stroke-width="1"/>
</svg>