<svg xmlns="http://www.w3.org/2000/svg" width="196" height="218">
  <path d="M 116,119 L 115,120 L 114,120 L 114,128 L 113,129 L 112,129 L 112,134 L 113,135 L 114,134 L 115,135 L 116,135 L 117,136 L 117,138 L 120,141 L 120,142 L 121,142 L 122,141 L 125,141 L 126,140 L 128,140 L 128,139 L 129,138 L 128,137 L 128,136 L 127,135 L 127,132 L 130,129 L 138,129 L 139,128 L 141,128 L 141,127 L 142,126 L 140,124 L 135,124 L 134,123 L 133,123 L 132,122 L 131,122 L 130,121 L 129,121 L 127,119 L 123,119 L 122,120 L 120,120 L 119,119 Z" fill="none" stroke="black" stroke-width="1"/>
</svg>