<svg xmlns="http://www.w3.org/2000/svg" width="194" height="141">
  <path d="M 154,118 L 154,119 L 152,121 L 152,126 L 150,128 L 150,129 L 151,129 L 153,131 L 154,131 L 155,130 L 156,130 L 157,131 L 157,132 L 158,133 L 162,133 L 163,132 L 167,132 L 168,133 L 168,134 L 169,135 L 170,135 L 170,134 L 171,133 L 173,133 L 173,132 L 172,131 L 172,127 L 169,124 L 169,122 L 168,123 L 167,122 L 165,122 L 164,121 L 166,119 L 165,118 L 164,119 L 163,118 L 162,119 L 159,119 L 158,118 Z" fill="none" stroke="black" stroke-width="1"/>
</svg>