<svg xmlns="http://www.w3.org/2000/svg" width="248" height="234">
  <path d="M 161,120 L 157,124 L 157,126 L 162,131 L 165,131 L 168,134 L 169,134 L 172,137 L 173,137 L 174,138 L 174,139 L 178,139 L 180,141 L 181,141 L 182,142 L 183,142 L 184,143 L 187,143 L 187,140 L 188,139 L 188,135 L 187,135 L 188,136 L 188,137 L 187,138 L 185,138 L 183,136 L 183,133 L 184,132 L 183,132 L 182,131 L 183,130 L 179,130 L 176,127 L 175,127 L 174,126 L 173,126 L 171,124 L 170,124 L 169,123 L 168,123 L 167,122 L 166,122 L 165,121 L 164,121 L 163,120 Z" fill="none" stroke="black" stroke-width="1"/>
</svg>