<svg xmlns="http://www.w3.org/2000/svg" width="194" height="141">
  <path d="M 140,106 L 139,107 L 138,107 L 137,108 L 135,108 L 134,107 L 131,107 L 130,108 L 129,108 L 128,109 L 125,109 L 124,110 L 123,110 L 122,111 L 122,113 L 124,113 L 126,115 L 126,118 L 125,119 L 125,121 L 126,122 L 126,123 L 128,123 L 129,122 L 131,122 L 132,121 L 134,121 L 135,120 L 136,120 L 137,119 L 139,119 L 140,120 L 141,120 L 143,118 L 145,118 L 146,117 L 146,116 L 145,115 L 145,110 L 144,109 L 143,109 L 142,108 L 142,107 L 141,106 Z" fill="none" stroke="black" stroke-width="1"/>
</svg>