<svg xmlns="http://www.w3.org/2000/svg" width="196" height="218">
  <path d="M 125,18 L 125,19 L 124,20 L 124,22 L 126,20 L 126,19 L 127,18 Z" fill="none" stroke="black" stroke-width="1"/>
  <path d="M 122,1 L 120,3 L 118,3 L 117,4 L 117,5 L 116,6 L 116,11 L 114,13 L 114,15 L 112,17 L 112,23 L 110,25 L 110,28 L 108,30 L 110,32 L 113,32 L 114,31 L 114,30 L 115,29 L 116,29 L 117,28 L 117,25 L 116,24 L 117,23 L 117,22 L 119,20 L 119,19 L 121,17 L 122,17 L 124,15 L 124,14 L 125,13 L 125,12 L 126,11 L 126,9 L 127,8 L 126,7 L 126,3 L 125,3 L 124,2 L 124,1 Z" fill="none" stroke="black" stroke-width="1"/>
</svg>