<svg xmlns="http://www.w3.org/2000/svg" width="401" height="363">
  <path d="M 127,207 L 127,211 L 130,214 L 130,215 L 134,219 L 140,219 L 141,220 L 142,220 L 143,221 L 144,221 L 145,222 L 151,222 L 153,224 L 154,224 L 157,227 L 157,228 L 166,228 L 168,226 L 168,225 L 167,224 L 166,225 L 164,225 L 161,222 L 161,221 L 160,221 L 158,219 L 157,219 L 156,218 L 144,218 L 143,217 L 143,216 L 144,215 L 145,215 L 145,211 L 138,211 L 137,210 L 136,210 L 134,208 L 132,208 L 132,209 L 131,210 L 130,209 L 130,208 L 129,207 Z" fill="none" stroke="black" stroke-width="1"/>
</svg>