<svg xmlns="http://www.w3.org/2000/svg" width="401" height="363">
  <path d="M 121,211 L 120,212 L 119,212 L 116,215 L 115,215 L 114,216 L 114,217 L 115,218 L 116,218 L 117,217 L 119,217 L 120,218 L 121,218 L 123,220 L 123,223 L 120,226 L 118,226 L 115,229 L 114,229 L 114,230 L 113,231 L 114,232 L 115,231 L 119,231 L 120,230 L 121,230 L 121,229 L 122,228 L 122,227 L 123,226 L 126,226 L 127,225 L 128,225 L 132,221 L 132,218 L 129,215 L 129,214 L 126,211 Z" fill="none" stroke="black" stroke-width="1"/>
</svg>