<svg xmlns="http://www.w3.org/2000/svg" width="401" height="363">
  <path d="M 108,196 L 108,200 L 106,202 L 103,202 L 102,203 L 101,203 L 100,204 L 99,204 L 99,205 L 100,206 L 100,208 L 101,209 L 101,212 L 102,212 L 103,213 L 104,213 L 108,217 L 113,217 L 113,216 L 115,214 L 116,214 L 119,211 L 120,211 L 121,210 L 126,210 L 126,208 L 125,207 L 125,206 L 124,205 L 124,204 L 123,203 L 121,205 L 120,205 L 118,203 L 119,202 L 121,202 L 120,201 L 119,201 L 118,202 L 117,202 L 116,201 L 116,200 L 113,200 L 112,199 L 111,199 Z" fill="none" stroke="black" stroke-width="1"/>
  <path d="M 108,191 L 108,193 L 109,193 L 110,194 L 110,195 L 111,196 L 112,196 L 113,197 L 114,197 L 115,198 L 117,198 L 117,197 L 116,197 L 115,196 L 115,195 L 114,194 L 112,194 L 111,193 L 111,192 L 110,192 L 109,191 Z" fill="none" stroke="black" stroke-width="1"/>
</svg>