<svg xmlns="http://www.w3.org/2000/svg" width="196" height="218">
  <path d="M 143,151 L 142,152 L 140,152 L 139,153 L 139,154 L 137,156 L 135,156 L 134,155 L 134,154 L 132,154 L 132,156 L 131,157 L 131,160 L 135,164 L 136,164 L 138,166 L 138,167 L 139,167 L 143,171 L 143,172 L 145,172 L 146,173 L 148,173 L 149,174 L 152,174 L 153,175 L 167,175 L 168,176 L 169,176 L 170,177 L 174,177 L 174,176 L 175,175 L 175,174 L 174,174 L 173,173 L 173,170 L 172,169 L 170,169 L 169,168 L 169,167 L 164,167 L 161,164 L 161,162 L 160,162 L 159,161 L 155,161 L 153,159 L 153,158 L 152,157 L 151,157 L 150,156 L 150,155 L 149,154 L 149,153 L 148,152 L 148,151 Z" fill="none" stroke="black" stroke-width="1"/>
</svg>