<svg xmlns="http://www.w3.org/2000/svg" width="194" height="141">
  <path d="M 117,111 L 116,112 L 115,112 L 111,116 L 109,116 L 108,117 L 107,117 L 106,118 L 105,118 L 104,119 L 104,120 L 105,121 L 105,122 L 107,122 L 110,125 L 110,126 L 112,128 L 112,129 L 113,130 L 114,130 L 115,131 L 116,131 L 118,133 L 119,133 L 121,131 L 121,130 L 122,129 L 121,128 L 122,127 L 123,127 L 124,126 L 124,125 L 125,124 L 125,122 L 124,121 L 124,119 L 125,118 L 125,115 L 124,114 L 122,114 L 121,113 L 121,111 Z" fill="none" stroke="black" stroke-width="1"/>
</svg>