<svg xmlns="http://www.w3.org/2000/svg" width="196" height="218">
  <path d="M 158,114 L 157,115 L 156,115 L 156,116 L 155,117 L 154,117 L 154,119 L 152,121 L 151,121 L 146,126 L 143,126 L 142,127 L 142,129 L 145,132 L 147,132 L 148,133 L 148,134 L 150,136 L 150,137 L 152,139 L 152,142 L 153,141 L 154,141 L 156,139 L 157,139 L 158,138 L 164,138 L 165,139 L 168,139 L 168,134 L 167,133 L 167,131 L 171,127 L 171,126 L 172,125 L 172,117 L 171,116 L 171,115 L 160,115 L 159,114 Z" fill="none" stroke="black" stroke-width="1"/>
</svg>