<svg xmlns="http://www.w3.org/2000/svg" width="196" height="218">
  <path d="M 136,103 L 134,105 L 134,106 L 132,108 L 133,109 L 130,112 L 128,112 L 127,113 L 126,113 L 124,115 L 123,115 L 122,116 L 121,116 L 121,117 L 120,118 L 120,119 L 122,119 L 123,118 L 127,118 L 129,120 L 130,120 L 131,121 L 132,121 L 133,122 L 134,122 L 135,123 L 140,123 L 142,125 L 146,125 L 151,120 L 152,120 L 153,119 L 153,117 L 154,116 L 155,116 L 155,115 L 156,114 L 157,114 L 157,111 L 154,108 L 153,108 L 151,106 L 150,106 L 148,104 L 145,104 L 144,103 Z" fill="none" stroke="black" stroke-width="1"/>
</svg>