<svg xmlns="http://www.w3.org/2000/svg" width="196" height="218">
  <path d="M 145,173 L 145,174 L 144,175 L 142,175 L 142,176 L 143,176 L 145,178 L 145,179 L 146,180 L 142,184 L 142,186 L 143,187 L 143,188 L 144,189 L 144,190 L 145,191 L 146,191 L 147,192 L 150,192 L 153,195 L 153,196 L 156,193 L 156,192 L 155,191 L 153,191 L 152,190 L 152,189 L 151,188 L 151,187 L 152,186 L 153,187 L 154,187 L 157,190 L 159,190 L 160,191 L 160,192 L 161,193 L 161,196 L 162,197 L 164,197 L 164,196 L 166,194 L 167,194 L 170,191 L 170,186 L 169,185 L 166,185 L 161,180 L 161,179 L 159,177 L 159,176 L 153,176 L 152,175 L 149,175 L 148,174 L 146,174 Z" fill="none" stroke="black" stroke-width="1"/>
</svg>