<svg xmlns="http://www.w3.org/2000/svg" width="491" height="213">
  <path d="M 19,77 L 18,78 L 18,80 L 20,82 L 21,82 L 21,81 L 20,81 L 19,80 Z" fill="none" stroke="black" stroke-width="1"/>
  <path d="M 36,55 L 34,57 L 33,57 L 31,59 L 28,59 L 28,62 L 27,63 L 27,68 L 24,71 L 22,71 L 22,74 L 24,76 L 26,76 L 27,77 L 27,75 L 29,73 L 30,74 L 30,75 L 31,76 L 31,77 L 32,78 L 32,79 L 33,80 L 33,82 L 32,83 L 33,83 L 34,84 L 35,83 L 39,83 L 40,82 L 40,81 L 41,80 L 45,80 L 46,79 L 45,78 L 45,77 L 41,73 L 41,72 L 40,71 L 39,71 L 38,70 L 38,68 L 40,66 L 42,66 L 42,64 L 39,61 L 40,60 L 40,57 L 38,55 Z" fill="none" stroke="black" stroke-width="1"/>
</svg>