<svg xmlns="http://www.w3.org/2000/svg" width="258" height="263">
  <path d="M 234,96 L 234,97 L 232,99 L 231,99 L 230,100 L 229,100 L 228,101 L 225,101 L 224,102 L 219,102 L 218,103 L 216,103 L 214,105 L 214,107 L 215,108 L 215,115 L 216,115 L 219,118 L 220,118 L 222,120 L 224,120 L 225,121 L 226,121 L 227,122 L 228,122 L 229,123 L 240,123 L 243,126 L 244,126 L 245,127 L 245,128 L 247,130 L 247,131 L 248,131 L 249,130 L 251,130 L 250,129 L 250,127 L 252,125 L 253,126 L 253,124 L 254,123 L 254,122 L 255,121 L 255,117 L 254,116 L 255,115 L 255,113 L 256,112 L 256,111 L 255,112 L 253,112 L 244,103 L 243,103 L 242,102 L 240,102 L 239,101 L 238,101 L 234,97 Z" fill="none" stroke="black" stroke-width="1"/>
</svg>