<svg xmlns="http://www.w3.org/2000/svg" width="258" height="263">
  <path d="M 129,114 L 128,115 L 120,115 L 119,116 L 118,116 L 118,117 L 123,122 L 123,123 L 124,124 L 124,127 L 132,127 L 133,128 L 133,129 L 139,135 L 140,135 L 145,140 L 145,141 L 146,142 L 146,143 L 147,144 L 148,144 L 149,145 L 149,148 L 150,149 L 150,152 L 151,153 L 151,155 L 152,155 L 153,156 L 153,157 L 155,157 L 156,158 L 156,159 L 157,160 L 158,160 L 158,158 L 160,156 L 160,154 L 162,152 L 162,151 L 161,151 L 159,149 L 159,146 L 158,145 L 158,142 L 157,141 L 157,140 L 156,139 L 156,128 L 153,128 L 151,126 L 151,125 L 149,123 L 149,122 L 148,121 L 148,120 L 147,120 L 146,119 L 146,118 L 145,117 L 143,117 L 142,116 L 140,116 L 139,115 L 138,115 L 137,114 Z" fill="none" stroke="black" stroke-width="1"/>
</svg>