<svg xmlns="http://www.w3.org/2000/svg" width="258" height="263">
  <path d="M 121,128 L 120,129 L 117,129 L 117,131 L 116,132 L 115,132 L 115,134 L 114,135 L 114,136 L 112,138 L 112,139 L 114,139 L 115,140 L 117,140 L 120,143 L 120,147 L 122,149 L 122,150 L 123,151 L 123,153 L 125,155 L 126,155 L 129,158 L 130,158 L 132,160 L 134,160 L 135,161 L 135,163 L 136,164 L 137,164 L 141,168 L 143,168 L 148,173 L 148,174 L 149,175 L 149,176 L 150,177 L 150,178 L 153,181 L 154,181 L 155,182 L 157,182 L 158,181 L 162,181 L 162,180 L 163,179 L 165,179 L 165,169 L 163,167 L 161,167 L 158,164 L 158,161 L 157,161 L 155,159 L 155,158 L 153,158 L 152,157 L 152,156 L 151,156 L 150,155 L 150,153 L 149,152 L 149,149 L 148,148 L 148,145 L 147,145 L 145,143 L 145,142 L 144,141 L 144,140 L 140,136 L 139,136 L 132,129 L 132,128 Z" fill="none" stroke="black" stroke-width="1"/>
</svg>