<svg xmlns="http://www.w3.org/2000/svg" width="258" height="263">
  <path d="M 166,179 L 165,180 L 163,180 L 163,181 L 162,182 L 158,182 L 157,183 L 157,184 L 158,185 L 158,187 L 164,193 L 164,194 L 176,206 L 176,209 L 177,210 L 176,211 L 177,211 L 178,212 L 178,215 L 179,216 L 179,217 L 180,218 L 180,219 L 182,221 L 182,222 L 184,224 L 185,224 L 188,227 L 191,227 L 191,222 L 193,220 L 193,219 L 192,218 L 192,216 L 193,215 L 193,212 L 194,211 L 194,210 L 195,209 L 195,207 L 197,205 L 197,204 L 198,203 L 198,202 L 199,201 L 199,199 L 200,198 L 200,195 L 199,195 L 198,196 L 195,196 L 194,195 L 193,195 L 192,194 L 190,194 L 189,193 L 186,193 L 185,194 L 184,194 L 183,193 L 183,192 L 182,192 L 180,190 L 177,190 L 176,189 L 174,189 L 169,184 L 169,182 L 168,181 L 167,181 L 166,180 Z" fill="none" stroke="black" stroke-width="1"/>
</svg>