<svg xmlns="http://www.w3.org/2000/svg" width="258" height="263">
  <path d="M 250,66 L 250,67 L 247,70 L 247,71 L 246,72 L 245,72 L 245,73 L 244,74 L 244,78 L 241,81 L 240,81 L 239,82 L 237,82 L 237,84 L 236,85 L 236,89 L 235,90 L 235,97 L 238,100 L 239,100 L 240,101 L 242,101 L 243,102 L 244,102 L 253,111 L 255,111 L 256,110 L 256,108 L 257,107 L 257,101 L 256,100 L 256,97 L 255,96 L 254,96 L 253,95 L 254,94 L 254,93 L 252,91 L 252,89 L 253,88 L 253,82 L 254,81 L 254,80 L 255,79 L 256,79 L 254,77 L 254,70 L 253,69 L 253,67 L 252,67 L 251,66 Z" fill="none" stroke="black" stroke-width="1"/>
</svg>