<svg xmlns="http://www.w3.org/2000/svg" width="776" height="467">
  <path d="M 210,423 L 207,426 L 206,426 L 197,435 L 194,435 L 193,436 L 192,436 L 192,438 L 193,439 L 193,440 L 194,441 L 195,441 L 197,443 L 199,443 L 200,444 L 201,444 L 201,443 L 200,442 L 201,441 L 201,440 L 203,438 L 203,437 L 204,436 L 205,436 L 206,435 L 207,435 L 208,434 L 209,434 L 211,432 L 212,432 L 213,431 L 218,431 L 219,430 L 222,430 L 223,429 L 225,429 L 225,427 L 224,426 L 222,426 L 221,425 L 218,425 L 217,424 L 212,424 L 211,423 Z" fill="none" stroke="black" stroke-width="1"/>
</svg>