<svg xmlns="http://www.w3.org/2000/svg" width="225" height="121">
  <path d="M 157,35 L 156,36 L 156,37 L 155,38 L 155,39 L 156,40 L 156,44 L 153,47 L 153,48 L 154,49 L 154,51 L 158,55 L 159,55 L 160,56 L 160,57 L 161,58 L 161,59 L 162,60 L 162,61 L 163,62 L 163,63 L 166,66 L 167,66 L 170,63 L 170,61 L 171,60 L 171,59 L 172,58 L 172,57 L 171,56 L 172,55 L 173,55 L 174,54 L 175,54 L 176,55 L 177,54 L 177,53 L 172,48 L 171,48 L 168,45 L 168,44 L 167,44 L 164,41 L 164,40 L 163,39 L 163,36 L 162,35 Z" fill="none" stroke="black" stroke-width="1"/>
</svg>