<svg xmlns="http://www.w3.org/2000/svg" width="776" height="467">
  <path d="M 180,385 L 179,386 L 175,386 L 174,387 L 173,387 L 172,388 L 171,388 L 172,388 L 173,389 L 172,390 L 173,391 L 178,391 L 179,392 L 180,391 L 182,391 L 183,392 L 185,392 L 187,394 L 187,395 L 188,396 L 188,397 L 189,398 L 191,398 L 192,399 L 192,400 L 191,401 L 194,404 L 194,405 L 195,404 L 196,405 L 197,404 L 202,404 L 203,403 L 205,403 L 206,402 L 207,402 L 208,401 L 209,401 L 210,400 L 214,400 L 214,397 L 210,397 L 209,396 L 208,396 L 206,394 L 202,394 L 201,393 L 200,393 L 198,391 L 197,391 L 195,389 L 194,389 L 191,386 L 189,386 L 188,385 Z" fill="none" stroke="black" stroke-width="1"/>
</svg>