<svg xmlns="http://www.w3.org/2000/svg" width="361" height="306">
  <path d="M 210,191 L 209,192 L 201,192 L 199,194 L 196,194 L 195,195 L 192,195 L 192,200 L 189,203 L 189,213 L 190,213 L 192,215 L 192,216 L 193,217 L 193,220 L 194,221 L 194,224 L 196,224 L 197,225 L 198,225 L 198,224 L 204,218 L 206,218 L 207,217 L 208,217 L 209,216 L 210,216 L 211,215 L 214,215 L 215,214 L 220,214 L 221,213 L 224,213 L 225,212 L 233,212 L 234,213 L 235,213 L 237,215 L 241,215 L 241,214 L 242,213 L 242,212 L 245,209 L 245,208 L 246,207 L 246,202 L 247,201 L 247,200 L 250,197 L 250,196 L 249,196 L 248,195 L 244,195 L 243,194 L 228,194 L 227,195 L 220,195 L 218,193 L 217,193 L 216,192 L 215,192 L 214,191 Z" fill="none" stroke="black" stroke-width="1"/>
</svg>