<svg xmlns="http://www.w3.org/2000/svg" width="561" height="491">
  <path d="M 381,167 L 380,168 L 370,168 L 369,169 L 369,172 L 371,174 L 371,175 L 372,175 L 373,176 L 374,176 L 376,178 L 377,177 L 378,177 L 379,176 L 382,176 L 383,177 L 385,177 L 386,178 L 387,178 L 388,179 L 389,179 L 391,177 L 392,177 L 393,176 L 393,175 L 395,173 L 396,173 L 396,172 L 395,171 L 394,171 L 393,170 L 393,169 L 392,168 L 390,168 L 389,169 L 387,169 L 386,168 L 383,168 L 382,167 Z" fill="none" stroke="black" stroke-width="1"/>
</svg>