<svg xmlns="http://www.w3.org/2000/svg" width="561" height="491">
  <path d="M 453,219 L 453,222 L 455,224 L 456,224 L 457,223 L 458,223 L 457,222 L 458,221 L 458,220 L 457,219 Z" fill="none" stroke="black" stroke-width="1"/>
  <path d="M 444,216 L 443,217 L 444,218 L 441,221 L 438,221 L 434,225 L 436,227 L 436,229 L 439,229 L 441,231 L 441,232 L 440,233 L 440,234 L 441,234 L 442,235 L 442,236 L 444,238 L 447,238 L 448,237 L 449,237 L 453,233 L 454,233 L 454,232 L 455,231 L 455,230 L 458,227 L 458,226 L 454,226 L 451,223 L 451,219 L 450,219 L 447,216 Z" fill="none" stroke="black" stroke-width="1"/>
</svg>