<svg xmlns="http://www.w3.org/2000/svg" width="561" height="491">
  <path d="M 462,246 L 462,247 L 461,248 L 460,248 L 457,251 L 455,251 L 454,252 L 455,253 L 456,253 L 457,254 L 456,255 L 456,256 L 457,257 L 458,257 L 460,259 L 459,260 L 459,261 L 460,262 L 462,262 L 465,265 L 464,266 L 464,267 L 466,267 L 467,268 L 468,268 L 469,267 L 470,267 L 471,268 L 472,267 L 473,267 L 473,266 L 472,265 L 472,264 L 474,262 L 473,261 L 473,260 L 474,259 L 474,258 L 472,256 L 472,255 L 470,255 L 469,254 L 468,254 L 467,253 L 466,253 L 465,252 L 465,250 L 464,249 L 464,248 L 463,247 L 463,246 Z" fill="none" stroke="black" stroke-width="1"/>
</svg>