<svg xmlns="http://www.w3.org/2000/svg" width="561" height="491">
  <path d="M 479,264 L 478,265 L 477,265 L 476,266 L 475,266 L 473,268 L 472,268 L 471,269 L 470,268 L 469,268 L 468,269 L 467,269 L 466,268 L 466,269 L 467,270 L 467,271 L 468,272 L 468,275 L 469,276 L 470,276 L 471,277 L 471,278 L 473,280 L 473,282 L 474,283 L 476,283 L 477,282 L 479,282 L 481,284 L 481,285 L 483,285 L 484,284 L 487,287 L 487,291 L 488,291 L 490,289 L 491,289 L 495,285 L 495,284 L 496,283 L 496,282 L 498,280 L 498,279 L 499,278 L 500,278 L 500,277 L 501,276 L 501,274 L 500,273 L 500,268 L 499,267 L 495,267 L 494,266 L 493,266 L 492,267 L 491,266 L 489,266 L 488,265 L 487,265 L 486,266 L 484,264 Z" fill="none" stroke="black" stroke-width="1"/>
</svg>