<svg xmlns="http://www.w3.org/2000/svg" width="561" height="491">
  <path d="M 537,293 L 536,294 L 537,294 L 538,295 L 538,294 Z" fill="none" stroke="black" stroke-width="1"/>
  <path d="M 523,271 L 522,272 L 521,272 L 521,274 L 522,275 L 521,276 L 520,276 L 519,275 L 519,273 L 518,272 L 517,272 L 516,273 L 515,273 L 515,274 L 516,275 L 513,278 L 512,278 L 511,279 L 512,280 L 519,280 L 520,281 L 521,281 L 522,282 L 522,285 L 523,285 L 524,286 L 524,288 L 523,289 L 524,290 L 524,291 L 525,292 L 527,292 L 528,293 L 530,293 L 532,295 L 532,296 L 535,296 L 534,295 L 534,290 L 535,289 L 535,288 L 532,288 L 531,287 L 530,287 L 528,285 L 528,284 L 527,283 L 527,278 L 526,277 L 526,276 L 525,275 L 525,274 L 524,273 L 524,272 Z" fill="none" stroke="black" stroke-width="1"/>
</svg>