<svg xmlns="http://www.w3.org/2000/svg" width="299" height="181">
  <path d="M 15,54 L 15,55 L 13,57 L 14,58 L 15,58 L 16,59 L 16,60 L 15,61 L 14,61 L 13,62 L 13,64 L 14,65 L 14,66 L 12,68 L 12,72 L 10,74 L 10,75 L 12,77 L 12,78 L 11,79 L 8,79 L 7,78 L 7,77 L 1,77 L 1,81 L 0,82 L 1,82 L 2,83 L 2,84 L 3,85 L 3,86 L 4,87 L 5,87 L 7,89 L 9,89 L 10,90 L 12,90 L 13,91 L 16,91 L 16,90 L 17,89 L 20,89 L 21,90 L 23,90 L 23,84 L 24,83 L 26,83 L 26,81 L 25,80 L 24,80 L 21,77 L 22,76 L 22,74 L 24,72 L 25,72 L 26,71 L 26,69 L 24,69 L 23,68 L 22,68 L 21,67 L 21,63 L 20,62 L 20,61 L 19,60 L 19,57 L 20,56 L 19,56 L 18,55 L 17,55 L 16,54 Z" fill="none" stroke="black" stroke-width="1"/>
</svg>