<svg xmlns="http://www.w3.org/2000/svg" width="561" height="491">
  <path d="M 434,249 L 433,250 L 433,254 L 434,255 L 435,255 L 437,257 L 437,258 L 440,261 L 441,261 L 442,262 L 442,263 L 443,264 L 443,265 L 444,265 L 445,266 L 446,266 L 447,267 L 447,268 L 449,270 L 449,273 L 450,272 L 453,272 L 454,271 L 454,269 L 453,268 L 453,267 L 452,266 L 452,262 L 451,261 L 451,260 L 447,256 L 447,255 L 444,252 L 443,252 L 442,251 L 439,251 L 438,250 L 437,250 L 436,249 Z" fill="none" stroke="black" stroke-width="1"/>
</svg>