<svg xmlns="http://www.w3.org/2000/svg" width="561" height="491">
  <path d="M 422,229 L 421,230 L 421,231 L 418,234 L 418,235 L 416,237 L 415,237 L 415,238 L 416,239 L 416,240 L 417,241 L 417,244 L 418,245 L 417,246 L 418,247 L 418,248 L 422,248 L 424,250 L 425,250 L 427,252 L 427,255 L 428,254 L 429,254 L 430,253 L 431,253 L 432,254 L 432,250 L 433,249 L 433,246 L 431,244 L 431,243 L 429,243 L 428,242 L 428,241 L 427,240 L 427,237 L 423,233 L 423,230 Z" fill="none" stroke="black" stroke-width="1"/>
</svg>