<svg xmlns="http://www.w3.org/2000/svg" width="561" height="491">
  <path d="M 435,292 L 434,293 L 434,294 L 435,295 L 435,296 L 436,297 L 436,300 L 437,301 L 438,301 L 438,300 L 437,299 L 437,297 L 438,296 L 438,295 Z" fill="none" stroke="black" stroke-width="1"/>
  <path d="M 431,287 L 430,288 L 431,289 L 431,292 L 432,292 L 433,291 L 433,289 Z" fill="none" stroke="black" stroke-width="1"/>
  <path d="M 424,280 L 424,282 L 425,283 L 426,283 L 427,284 L 428,284 L 426,282 L 426,281 L 425,280 Z" fill="none" stroke="black" stroke-width="1"/>
  <path d="M 411,265 L 410,266 L 410,268 L 412,270 L 412,271 L 413,272 L 413,273 L 414,274 L 415,274 L 416,275 L 419,275 L 418,274 L 419,273 L 417,271 L 417,269 L 416,268 L 416,267 L 415,266 L 413,266 L 412,265 Z" fill="none" stroke="black" stroke-width="1"/>
  <path d="M 406,257 L 406,258 L 405,259 L 405,261 L 407,261 L 407,259 L 408,258 L 408,257 L 407,258 Z" fill="none" stroke="black" stroke-width="1"/>
  <path d="M 405,252 L 405,254 L 406,255 L 407,255 L 406,254 L 406,253 Z" fill="none" stroke="black" stroke-width="1"/>
  <path d="M 408,250 L 409,251 L 411,251 L 412,250 Z" fill="none" stroke="black" stroke-width="1"/>
</svg>