<svg xmlns="http://www.w3.org/2000/svg" width="561" height="491">
  <path d="M 390,228 L 388,230 L 387,230 L 389,232 L 389,233 L 390,234 L 390,236 L 391,236 L 394,239 L 394,240 L 395,241 L 395,242 L 397,242 L 397,239 L 398,238 L 398,236 L 396,234 L 395,234 L 393,232 L 393,231 Z" fill="none" stroke="black" stroke-width="1"/>
  <path d="M 387,217 L 389,219 L 389,218 L 388,217 Z" fill="none" stroke="black" stroke-width="1"/>
  <path d="M 366,205 L 364,207 L 365,208 L 365,209 L 367,209 L 368,210 L 369,210 L 371,212 L 372,212 L 374,214 L 375,214 L 375,212 L 374,212 L 373,211 L 372,211 L 370,209 L 370,208 L 368,208 L 366,206 Z" fill="none" stroke="black" stroke-width="1"/>
</svg>