<svg xmlns="http://www.w3.org/2000/svg" width="561" height="491">
  <path d="M 378,182 L 375,185 L 374,185 L 373,186 L 372,186 L 374,188 L 374,189 L 376,191 L 380,191 L 381,192 L 382,192 L 383,193 L 383,194 L 384,194 L 385,195 L 385,196 L 386,197 L 386,198 L 389,201 L 389,203 L 390,202 L 390,200 L 391,199 L 394,199 L 395,198 L 396,198 L 396,196 L 395,195 L 393,195 L 392,194 L 392,192 L 391,191 L 391,190 L 389,190 L 388,189 L 388,188 L 387,187 L 387,186 L 385,184 L 382,184 L 381,183 L 379,183 Z" fill="none" stroke="black" stroke-width="1"/>
</svg>