<svg xmlns="http://www.w3.org/2000/svg" width="171" height="149">
  <path d="M 105,103 L 105,106 L 104,107 L 104,118 L 103,119 L 103,120 L 102,121 L 102,122 L 100,124 L 100,127 L 105,127 L 106,128 L 108,128 L 109,127 L 109,126 L 110,125 L 110,124 L 112,122 L 114,122 L 115,121 L 120,121 L 121,120 L 121,118 L 119,116 L 119,115 L 118,114 L 118,111 L 117,110 L 117,109 L 116,109 L 115,108 L 115,107 L 113,107 L 112,106 L 112,105 L 111,105 L 110,104 L 109,104 L 108,103 Z" fill="none" stroke="black" stroke-width="1"/>
</svg>