<svg xmlns="http://www.w3.org/2000/svg" width="99" height="181">
  <path d="M 51,72 L 51,75 L 52,76 L 52,78 L 51,79 L 51,80 L 50,81 L 50,82 L 51,83 L 51,84 L 52,84 L 55,87 L 56,87 L 57,88 L 57,91 L 61,95 L 61,96 L 64,99 L 64,100 L 66,102 L 66,103 L 67,103 L 68,104 L 68,106 L 69,107 L 69,108 L 70,109 L 70,111 L 71,111 L 73,113 L 75,113 L 76,114 L 75,115 L 76,116 L 76,117 L 79,117 L 79,115 L 78,114 L 78,110 L 77,109 L 77,106 L 74,103 L 74,102 L 73,101 L 73,100 L 70,97 L 70,96 L 68,94 L 68,93 L 66,91 L 66,90 L 65,89 L 65,88 L 64,87 L 64,86 L 63,85 L 63,84 L 62,83 L 62,81 L 61,80 L 60,80 L 57,77 L 56,77 L 53,74 L 53,72 Z" fill="none" stroke="black" stroke-width="1"/>
</svg>