<svg xmlns="http://www.w3.org/2000/svg" width="582" height="484">
  <path d="M 157,431 L 156,432 L 154,432 L 153,433 L 151,433 L 150,434 L 149,434 L 148,433 L 146,433 L 145,434 L 136,434 L 135,435 L 130,435 L 129,436 L 127,436 L 127,438 L 123,442 L 123,446 L 122,447 L 122,448 L 121,449 L 121,451 L 122,452 L 122,454 L 124,452 L 124,451 L 126,449 L 127,449 L 130,446 L 131,446 L 132,445 L 134,445 L 135,444 L 137,444 L 138,443 L 140,443 L 142,441 L 147,441 L 151,437 L 155,437 L 159,433 L 160,433 L 161,432 L 160,432 L 159,431 Z" fill="none" stroke="black" stroke-width="1"/>
  <path d="M 185,429 L 187,429 Z" fill="none" stroke="black" stroke-width="1"/>
  <path d="M 169,428 L 170,429 L 172,429 L 173,428 Z" fill="none" stroke="black" stroke-width="1"/>
  <path d="M 135,428 L 134,429 L 133,429 L 133,430 L 134,430 L 135,429 Z" fill="none" stroke="black" stroke-width="1"/>
  <path d="M 197,423 L 197,424 L 199,426 L 200,425 L 200,423 Z" fill="none" stroke="black" stroke-width="1"/>
  <path d="M 149,419 L 148,420 L 147,420 L 146,421 L 145,421 L 144,422 L 143,422 L 142,421 L 141,421 L 140,420 L 140,421 L 138,423 L 138,425 L 139,424 L 140,424 L 141,423 L 143,423 L 144,424 L 148,424 L 148,423 L 149,422 L 150,422 L 151,421 L 152,421 L 150,419 Z" fill="none" stroke="black" stroke-width="1"/>
  <path d="M 162,418 L 162,420 L 163,419 L 163,418 Z" fill="none" stroke="black" stroke-width="1"/>
  <path d="M 181,411 L 181,412 L 182,412 L 182,411 Z" fill="none" stroke="black" stroke-width="1"/>
</svg>