<svg xmlns="http://www.w3.org/2000/svg" width="582" height="484">
  <path d="M 218,426 L 218,427 L 217,428 L 216,428 L 215,429 L 215,430 L 216,430 L 217,429 L 218,429 L 219,428 L 221,428 L 220,428 Z" fill="none" stroke="black" stroke-width="1"/>
  <path d="M 219,417 L 220,417 Z" fill="none" stroke="black" stroke-width="1"/>
  <path d="M 229,411 L 225,415 L 225,416 L 224,417 L 223,417 L 223,418 L 222,419 L 222,421 L 220,423 L 220,424 L 221,425 L 223,425 L 224,424 L 224,423 L 225,422 L 226,422 L 228,420 L 228,418 L 229,417 L 228,416 L 228,414 L 230,412 L 232,412 L 233,413 L 234,413 L 234,411 Z" fill="none" stroke="black" stroke-width="1"/>
</svg>