<svg xmlns="http://www.w3.org/2000/svg" width="582" height="484">
  <path d="M 65,41 L 65,43 L 64,44 L 63,44 L 63,47 L 61,49 L 60,49 L 60,50 L 59,51 L 59,52 L 58,53 L 56,53 L 55,54 L 54,54 L 54,57 L 52,59 L 52,61 L 51,62 L 51,64 L 52,65 L 52,66 L 53,67 L 53,68 L 55,68 L 56,67 L 56,66 L 55,65 L 55,63 L 56,62 L 57,62 L 58,63 L 60,63 L 61,62 L 62,62 L 64,60 L 67,63 L 70,63 L 71,62 L 71,60 L 70,59 L 70,57 L 68,55 L 68,53 L 69,52 L 69,51 L 72,48 L 72,47 L 71,46 L 71,44 L 70,43 L 68,43 L 66,41 Z" fill="none" stroke="black" stroke-width="1"/>
</svg>