<svg xmlns="http://www.w3.org/2000/svg" width="582" height="484">
  <path d="M 58,30 L 57,31 L 55,31 L 54,32 L 53,32 L 52,33 L 52,37 L 54,39 L 54,41 L 53,42 L 49,42 L 47,40 L 46,40 L 45,39 L 45,36 L 44,37 L 44,38 L 43,39 L 43,44 L 44,43 L 46,45 L 45,46 L 46,47 L 46,53 L 47,54 L 47,55 L 48,56 L 48,62 L 49,63 L 49,62 L 50,61 L 51,61 L 51,59 L 53,57 L 53,54 L 54,53 L 55,53 L 56,52 L 58,52 L 58,51 L 59,50 L 59,49 L 60,48 L 61,48 L 62,47 L 62,44 L 63,43 L 64,43 L 64,41 L 65,40 L 65,39 L 64,38 L 64,36 L 65,35 L 65,34 L 66,33 L 66,32 L 63,32 L 62,31 L 60,31 L 59,30 Z" fill="none" stroke="black" stroke-width="1"/>
</svg>