<svg xmlns="http://www.w3.org/2000/svg" width="582" height="484">
  <path d="M 103,98 L 104,99 L 105,99 L 104,98 Z" fill="none" stroke="black" stroke-width="1"/>
  <path d="M 94,90 L 93,91 L 97,95 L 98,95 L 99,96 L 99,95 L 98,95 L 95,92 L 95,91 Z" fill="none" stroke="black" stroke-width="1"/>
  <path d="M 112,75 L 112,80 L 111,81 L 111,82 L 112,83 L 113,82 L 114,82 L 115,81 L 115,78 L 113,76 L 113,75 Z" fill="none" stroke="black" stroke-width="1"/>
  <path d="M 86,70 L 84,72 L 84,74 L 83,75 L 81,73 L 82,72 L 81,72 L 81,74 L 82,75 L 83,75 L 84,76 L 84,77 L 85,78 L 86,78 L 86,77 L 87,76 L 92,81 L 92,82 L 93,83 L 95,83 L 97,85 L 97,86 L 99,88 L 99,91 L 101,91 L 103,93 L 104,93 L 105,94 L 106,94 L 107,95 L 107,96 L 108,97 L 108,98 L 109,99 L 110,99 L 111,98 L 111,93 L 112,92 L 112,91 L 111,92 L 110,92 L 108,90 L 106,92 L 105,91 L 105,89 L 106,88 L 107,88 L 106,88 L 105,87 L 105,86 L 102,83 L 102,81 L 103,80 L 108,80 L 107,79 L 105,79 L 104,78 L 102,78 L 99,75 L 98,76 L 99,77 L 99,80 L 98,81 L 96,81 L 94,79 L 94,78 L 95,77 L 95,76 L 93,74 L 93,73 L 91,71 L 90,71 L 89,70 L 88,71 L 87,71 Z" fill="none" stroke="black" stroke-width="1"/>
</svg>