<svg xmlns="http://www.w3.org/2000/svg" width="582" height="484">
  <path d="M 77,110 L 76,111 L 76,112 L 78,112 L 80,114 L 80,116 L 79,117 L 79,125 L 78,126 L 78,127 L 77,128 L 78,129 L 78,132 L 77,133 L 77,134 L 78,134 L 78,133 L 80,131 L 81,131 L 82,130 L 85,130 L 86,129 L 87,129 L 88,130 L 87,131 L 87,132 L 86,133 L 86,134 L 88,134 L 88,133 L 89,132 L 89,130 L 88,130 L 87,129 L 88,128 L 89,128 L 90,127 L 90,125 L 91,124 L 92,124 L 94,122 L 95,122 L 95,120 L 96,119 L 96,116 L 95,117 L 94,117 L 93,118 L 91,116 L 91,115 L 90,115 L 88,117 L 87,117 L 86,116 L 86,115 L 85,115 L 83,113 L 82,113 L 81,112 L 80,112 L 79,111 L 78,111 Z" fill="none" stroke="black" stroke-width="1"/>
  <path d="M 85,101 L 86,102 L 87,102 L 88,103 L 88,104 L 88,103 L 89,102 L 88,101 Z" fill="none" stroke="black" stroke-width="1"/>
  <path d="M 98,99 L 98,101 L 99,102 L 99,105 L 98,106 L 98,107 L 97,108 L 97,109 L 99,107 L 99,106 L 100,105 L 102,105 L 107,110 L 108,110 L 110,112 L 110,109 L 108,107 L 108,106 L 107,105 L 106,105 L 101,100 L 100,100 L 99,99 Z" fill="none" stroke="black" stroke-width="1"/>
  <path d="M 79,98 L 78,99 L 79,100 L 79,101 L 77,103 L 77,105 L 78,106 L 78,105 L 79,104 L 79,101 L 80,100 L 80,98 Z" fill="none" stroke="black" stroke-width="1"/>
</svg>