<svg xmlns="http://www.w3.org/2000/svg" width="1028" height="413">
  <path d="M 809,256 L 808,257 L 806,257 L 806,259 L 805,260 L 804,259 L 803,259 L 802,260 L 801,259 L 801,258 L 800,257 L 799,257 L 799,258 L 798,259 L 796,259 L 796,263 L 795,264 L 791,264 L 791,265 L 790,266 L 787,266 L 786,267 L 785,267 L 784,266 L 782,266 L 781,267 L 779,267 L 779,269 L 778,270 L 777,270 L 775,268 L 774,268 L 774,270 L 772,272 L 766,272 L 766,273 L 764,275 L 763,275 L 762,274 L 762,273 L 757,273 L 756,272 L 755,272 L 754,273 L 754,274 L 753,275 L 751,275 L 750,276 L 748,276 L 745,279 L 741,279 L 741,280 L 740,281 L 739,281 L 739,283 L 743,287 L 742,288 L 739,288 L 739,289 L 740,289 L 741,288 L 744,288 L 745,289 L 744,290 L 743,290 L 742,291 L 740,291 L 743,291 L 744,290 L 745,290 L 746,289 L 747,289 L 746,288 L 747,287 L 748,287 L 749,288 L 750,288 L 751,287 L 757,287 L 758,286 L 759,286 L 760,285 L 762,285 L 763,286 L 763,287 L 764,287 L 765,286 L 765,285 L 766,284 L 767,284 L 768,283 L 770,283 L 771,284 L 772,283 L 774,283 L 777,280 L 778,280 L 779,281 L 782,278 L 783,279 L 783,280 L 784,281 L 785,280 L 786,280 L 786,279 L 787,278 L 788,279 L 789,279 L 788,278 L 789,277 L 794,277 L 794,276 L 795,275 L 796,276 L 799,276 L 800,275 L 802,275 L 803,276 L 803,275 L 804,274 L 805,274 L 806,273 L 808,275 L 814,275 L 814,274 L 815,273 L 815,271 L 816,270 L 816,267 L 814,265 L 814,264 L 813,263 L 813,261 L 814,260 L 814,256 Z" fill="none" stroke="black" stroke-width="1"/>
</svg>