<svg xmlns="http://www.w3.org/2000/svg" width="171" height="149">
  <path d="M 75,73 L 74,74 L 71,74 L 70,75 L 69,75 L 68,76 L 66,76 L 65,77 L 63,77 L 62,78 L 61,78 L 60,79 L 59,79 L 59,80 L 61,82 L 61,83 L 63,85 L 63,86 L 64,87 L 64,90 L 65,90 L 70,95 L 71,95 L 72,96 L 73,96 L 74,97 L 79,97 L 81,99 L 82,99 L 83,100 L 83,101 L 84,102 L 84,103 L 85,104 L 87,104 L 88,105 L 89,105 L 90,106 L 91,106 L 92,107 L 95,107 L 96,106 L 96,100 L 97,99 L 97,98 L 98,97 L 99,97 L 102,94 L 102,91 L 101,91 L 100,90 L 100,88 L 101,87 L 101,86 L 95,80 L 95,78 L 96,77 L 96,76 L 94,76 L 93,75 L 89,75 L 88,74 L 83,74 L 82,73 Z" fill="none" stroke="black" stroke-width="1"/>
</svg>