<svg xmlns="http://www.w3.org/2000/svg" width="582" height="484">
  <path d="M 126,174 L 125,175 L 125,176 L 127,178 L 127,180 L 128,181 L 128,186 L 127,187 L 127,190 L 130,193 L 131,193 L 132,192 L 132,190 L 133,189 L 135,189 L 136,190 L 136,191 L 137,191 L 137,189 L 136,188 L 135,188 L 134,187 L 137,184 L 138,185 L 138,186 L 139,187 L 139,188 L 141,190 L 140,191 L 142,193 L 142,199 L 143,200 L 143,196 L 144,195 L 144,194 L 142,192 L 143,191 L 144,191 L 145,190 L 146,190 L 148,188 L 148,187 L 149,186 L 149,183 L 148,183 L 147,182 L 147,181 L 146,182 L 145,181 L 143,181 L 142,180 L 142,179 L 141,178 L 141,177 L 139,177 L 138,176 L 136,176 L 134,178 L 133,178 L 130,175 L 129,175 L 128,174 Z" fill="none" stroke="black" stroke-width="1"/>
</svg>