<svg xmlns="http://www.w3.org/2000/svg" width="582" height="484">
  <path d="M 134,156 L 134,157 L 133,158 L 129,158 L 128,159 L 128,160 L 127,161 L 126,161 L 124,159 L 124,160 L 125,161 L 125,162 L 126,162 L 128,164 L 128,167 L 126,169 L 126,170 L 125,171 L 125,172 L 126,173 L 128,173 L 129,174 L 130,174 L 133,177 L 134,177 L 136,175 L 138,175 L 139,176 L 141,176 L 141,173 L 140,172 L 140,168 L 136,164 L 136,162 L 135,161 L 135,160 L 134,159 Z" fill="none" stroke="black" stroke-width="1"/>
</svg>