<svg xmlns="http://www.w3.org/2000/svg" width="240" height="278">
  <path d="M 186,13 L 185,14 L 183,14 L 182,15 L 179,15 L 178,16 L 178,17 L 180,19 L 180,20 L 182,20 L 183,21 L 183,25 L 184,26 L 184,27 L 185,28 L 184,29 L 184,31 L 182,33 L 178,33 L 178,34 L 177,35 L 177,37 L 176,38 L 175,38 L 175,42 L 177,42 L 178,43 L 180,43 L 181,44 L 182,44 L 183,43 L 186,46 L 189,46 L 191,48 L 192,48 L 193,49 L 196,49 L 197,48 L 203,48 L 204,47 L 204,46 L 202,46 L 201,45 L 201,44 L 202,43 L 201,43 L 200,44 L 199,44 L 197,42 L 197,41 L 196,40 L 196,39 L 198,37 L 202,37 L 203,38 L 206,38 L 208,36 L 212,36 L 214,34 L 214,32 L 213,31 L 209,31 L 207,29 L 206,29 L 203,26 L 202,26 L 201,25 L 200,25 L 199,24 L 198,25 L 197,25 L 197,26 L 196,27 L 194,27 L 193,26 L 193,25 L 194,24 L 195,24 L 196,23 L 195,22 L 195,21 L 194,21 L 193,22 L 192,22 L 191,23 L 189,23 L 188,22 L 189,21 L 189,20 L 188,19 L 188,18 L 189,17 L 190,17 L 190,15 L 189,14 L 189,13 Z" fill="none" stroke="black" stroke-width="1"/>
</svg>