<svg xmlns="http://www.w3.org/2000/svg" width="240" height="278">
  <path d="M 118,66 L 116,68 L 114,68 L 113,69 L 111,69 L 110,70 L 107,70 L 106,71 L 104,71 L 103,72 L 98,72 L 97,73 L 95,73 L 92,76 L 90,74 L 90,78 L 91,79 L 90,80 L 89,80 L 89,81 L 88,82 L 88,83 L 90,83 L 92,81 L 97,81 L 98,82 L 99,82 L 100,83 L 103,83 L 104,84 L 104,85 L 107,85 L 108,86 L 115,86 L 117,84 L 118,84 L 118,82 L 121,79 L 122,79 L 123,78 L 124,78 L 127,75 L 127,72 L 128,71 L 127,70 L 127,69 L 126,69 L 124,67 L 123,67 L 122,66 Z" fill="none" stroke="black" stroke-width="1"/>
</svg>