<svg xmlns="http://www.w3.org/2000/svg" width="240" height="278">
  <path d="M 92,82 L 91,83 L 91,84 L 90,85 L 89,85 L 89,86 L 88,87 L 88,88 L 87,89 L 87,90 L 86,91 L 86,93 L 87,94 L 88,94 L 89,95 L 90,95 L 91,96 L 91,100 L 90,101 L 90,102 L 89,103 L 89,104 L 88,105 L 88,107 L 89,108 L 89,109 L 92,109 L 93,110 L 95,110 L 95,109 L 97,107 L 97,106 L 101,102 L 104,102 L 105,101 L 106,101 L 107,100 L 109,100 L 111,98 L 111,94 L 109,92 L 109,91 L 108,90 L 108,89 L 107,88 L 107,86 L 104,86 L 103,85 L 103,84 L 100,84 L 99,83 L 98,83 L 97,82 Z" fill="none" stroke="black" stroke-width="1"/>
</svg>