<svg xmlns="http://www.w3.org/2000/svg" width="240" height="278">
  <path d="M 72,130 L 71,131 L 71,140 L 69,142 L 70,143 L 71,143 L 72,144 L 72,150 L 73,151 L 73,153 L 74,154 L 74,160 L 75,160 L 76,159 L 77,159 L 78,158 L 79,158 L 80,159 L 80,162 L 80,161 L 82,159 L 83,159 L 84,158 L 85,159 L 85,160 L 83,162 L 86,162 L 88,160 L 88,150 L 87,149 L 87,148 L 86,148 L 84,146 L 84,141 L 86,139 L 86,138 L 88,136 L 88,134 L 86,132 L 85,133 L 84,133 L 83,134 L 79,134 L 78,133 L 78,132 L 76,132 L 74,130 Z" fill="none" stroke="black" stroke-width="1"/>
</svg>