<svg xmlns="http://www.w3.org/2000/svg" width="240" height="278">
  <path d="M 132,129 L 129,132 L 124,132 L 123,131 L 119,131 L 118,132 L 116,132 L 115,133 L 114,133 L 114,134 L 117,137 L 117,141 L 116,142 L 116,143 L 117,144 L 117,145 L 118,146 L 119,146 L 120,147 L 123,147 L 125,149 L 127,149 L 129,151 L 132,151 L 133,150 L 134,150 L 135,149 L 137,149 L 138,150 L 140,150 L 143,147 L 144,147 L 144,146 L 142,144 L 142,141 L 143,140 L 143,138 L 144,137 L 144,135 L 145,134 L 145,132 L 144,133 L 143,132 L 141,132 L 140,131 L 139,131 L 138,130 L 137,130 L 136,129 Z" fill="none" stroke="black" stroke-width="1"/>
</svg>