<svg xmlns="http://www.w3.org/2000/svg" width="240" height="278">
  <path d="M 94,132 L 93,133 L 92,133 L 91,134 L 91,135 L 90,136 L 89,136 L 87,138 L 87,139 L 85,141 L 85,146 L 86,147 L 87,147 L 88,148 L 88,149 L 89,150 L 89,160 L 90,159 L 93,159 L 94,160 L 95,160 L 95,159 L 96,158 L 99,161 L 99,169 L 100,169 L 103,166 L 104,166 L 105,165 L 106,165 L 107,166 L 108,166 L 109,167 L 111,167 L 113,165 L 114,165 L 115,164 L 115,162 L 117,160 L 117,157 L 116,156 L 116,155 L 114,153 L 114,150 L 117,147 L 117,146 L 116,145 L 116,144 L 115,143 L 115,142 L 116,141 L 116,137 L 113,134 L 112,135 L 111,135 L 110,136 L 106,136 L 105,135 L 104,135 L 103,134 L 98,134 L 96,132 Z" fill="none" stroke="black" stroke-width="1"/>
</svg>