<svg xmlns="http://www.w3.org/2000/svg" width="240" height="278">
  <path d="M 188,63 L 188,64 L 189,65 L 189,63 Z" fill="none" stroke="black" stroke-width="1"/>
  <path d="M 169,43 L 169,45 L 168,46 L 168,47 L 169,48 L 169,49 L 170,49 L 171,50 L 172,50 L 174,52 L 174,53 L 173,54 L 173,58 L 174,59 L 174,64 L 176,66 L 176,67 L 177,68 L 177,69 L 178,70 L 178,71 L 179,72 L 179,74 L 183,78 L 185,78 L 186,79 L 187,79 L 188,80 L 190,80 L 191,81 L 192,81 L 193,82 L 195,82 L 195,80 L 191,76 L 191,74 L 190,74 L 189,73 L 189,70 L 188,69 L 188,68 L 186,68 L 185,67 L 183,67 L 182,66 L 183,65 L 184,65 L 185,64 L 184,63 L 183,63 L 182,62 L 183,61 L 185,61 L 180,61 L 179,60 L 180,59 L 186,59 L 187,60 L 188,60 L 189,59 L 191,59 L 191,58 L 189,56 L 188,56 L 187,55 L 188,54 L 187,53 L 186,53 L 185,52 L 186,51 L 188,51 L 190,53 L 191,52 L 192,53 L 193,53 L 193,51 L 192,51 L 191,50 L 189,50 L 188,49 L 188,48 L 189,47 L 186,47 L 183,44 L 182,45 L 181,45 L 180,44 L 178,44 L 177,43 Z" fill="none" stroke="black" stroke-width="1"/>
</svg>