<svg xmlns="http://www.w3.org/2000/svg" width="240" height="278">
  <path d="M 178,76 L 177,77 L 176,77 L 176,78 L 175,79 L 174,79 L 173,80 L 172,80 L 172,83 L 171,84 L 171,86 L 172,86 L 173,87 L 175,87 L 176,88 L 176,90 L 175,91 L 176,92 L 181,92 L 182,91 L 183,91 L 184,90 L 186,90 L 187,91 L 189,91 L 190,92 L 193,92 L 194,91 L 194,90 L 192,88 L 192,85 L 194,83 L 193,83 L 192,82 L 191,82 L 190,81 L 188,81 L 187,80 L 186,80 L 185,79 L 183,79 L 180,76 Z" fill="none" stroke="black" stroke-width="1"/>
</svg>