<svg xmlns="http://www.w3.org/2000/svg" width="171" height="149">
  <path d="M 126,108 L 126,109 L 125,110 L 123,110 L 122,111 L 119,111 L 119,114 L 120,115 L 120,116 L 122,118 L 122,120 L 126,120 L 129,123 L 135,123 L 136,124 L 138,124 L 139,125 L 139,126 L 140,126 L 142,128 L 146,124 L 147,124 L 147,122 L 152,117 L 153,117 L 148,117 L 147,118 L 142,118 L 141,117 L 141,112 L 139,112 L 138,111 L 138,110 L 137,110 L 136,109 L 133,109 L 132,108 Z" fill="none" stroke="black" stroke-width="1"/>
</svg>