<svg xmlns="http://www.w3.org/2000/svg" width="240" height="278">
  <path d="M 169,50 L 169,52 L 168,53 L 168,61 L 166,63 L 166,64 L 164,66 L 164,67 L 163,68 L 163,69 L 159,73 L 158,73 L 157,74 L 157,76 L 156,77 L 156,78 L 153,81 L 152,81 L 151,82 L 151,84 L 152,85 L 152,86 L 151,87 L 152,88 L 153,88 L 156,91 L 157,91 L 158,92 L 164,92 L 165,91 L 166,91 L 167,90 L 169,90 L 171,88 L 171,87 L 170,86 L 170,84 L 171,83 L 171,80 L 172,79 L 173,79 L 174,78 L 175,78 L 175,77 L 176,76 L 177,76 L 178,75 L 179,75 L 178,74 L 178,72 L 177,71 L 177,70 L 176,69 L 176,68 L 175,67 L 175,66 L 173,64 L 173,59 L 172,58 L 172,54 L 173,53 L 173,52 L 172,51 L 171,51 L 170,50 Z" fill="none" stroke="black" stroke-width="1"/>
</svg>