<svg xmlns="http://www.w3.org/2000/svg" width="240" height="278">
  <path d="M 155,117 L 155,121 L 157,123 L 156,124 L 156,126 L 155,127 L 155,128 L 156,129 L 156,130 L 157,131 L 158,131 L 159,132 L 159,133 L 160,134 L 161,134 L 162,135 L 163,135 L 166,138 L 167,138 L 168,139 L 171,139 L 171,137 L 173,135 L 175,135 L 175,134 L 176,133 L 177,133 L 178,132 L 182,132 L 183,131 L 184,132 L 187,132 L 188,131 L 188,130 L 187,129 L 188,128 L 188,126 L 187,127 L 184,127 L 182,125 L 181,125 L 178,122 L 178,121 L 177,121 L 176,120 L 175,120 L 172,123 L 167,123 L 166,122 L 162,122 L 160,120 L 160,119 L 158,119 L 157,118 L 157,117 Z" fill="none" stroke="black" stroke-width="1"/>
</svg>