<svg xmlns="http://www.w3.org/2000/svg" width="582" height="484">
  <path d="M 74,280 L 73,281 L 72,281 L 72,282 L 71,283 L 71,284 L 72,285 L 72,288 L 73,289 L 74,289 L 75,290 L 78,290 L 79,289 L 95,289 L 98,292 L 103,292 L 104,293 L 105,293 L 106,292 L 108,292 L 108,290 L 107,289 L 107,288 L 105,286 L 105,284 L 102,284 L 101,283 L 99,283 L 98,282 L 96,282 L 95,283 L 93,283 L 91,285 L 89,283 L 88,283 L 87,282 L 82,282 L 81,281 L 78,281 L 77,280 Z" fill="none" stroke="black" stroke-width="1"/>
</svg>