<svg xmlns="http://www.w3.org/2000/svg" width="582" height="484">
  <path d="M 61,276 L 60,277 L 60,280 L 57,283 L 57,284 L 56,285 L 55,284 L 54,285 L 53,285 L 51,283 L 52,282 L 51,282 L 51,284 L 50,285 L 49,285 L 48,286 L 48,289 L 47,290 L 46,290 L 45,291 L 45,292 L 44,293 L 44,295 L 45,296 L 45,299 L 44,300 L 43,299 L 43,298 L 42,297 L 40,297 L 42,299 L 43,299 L 44,300 L 44,302 L 43,303 L 43,306 L 44,307 L 44,308 L 45,309 L 45,311 L 44,312 L 43,311 L 43,310 L 42,309 L 42,310 L 41,311 L 40,311 L 40,312 L 39,313 L 39,315 L 37,317 L 37,318 L 39,318 L 41,320 L 42,320 L 43,321 L 43,322 L 44,323 L 44,324 L 45,325 L 45,327 L 48,327 L 49,326 L 49,325 L 50,324 L 50,323 L 51,322 L 51,321 L 52,320 L 52,318 L 53,317 L 53,315 L 54,314 L 54,313 L 53,312 L 52,313 L 51,313 L 49,311 L 49,310 L 48,309 L 48,308 L 47,307 L 47,304 L 46,303 L 47,302 L 47,300 L 46,299 L 48,297 L 48,294 L 53,289 L 54,289 L 55,288 L 57,288 L 58,289 L 59,289 L 60,290 L 65,290 L 66,289 L 67,289 L 68,290 L 70,290 L 70,289 L 71,288 L 71,285 L 70,284 L 70,283 L 71,282 L 71,281 L 69,279 L 69,278 L 66,278 L 64,276 Z" fill="none" stroke="black" stroke-width="1"/>
</svg>