<svg xmlns="http://www.w3.org/2000/svg" width="582" height="484">
  <path d="M 102,382 L 102,383 L 103,383 L 103,382 Z" fill="none" stroke="black" stroke-width="1"/>
  <path d="M 76,379 L 76,383 L 78,385 L 79,385 L 79,381 L 78,380 L 78,379 Z" fill="none" stroke="black" stroke-width="1"/>
  <path d="M 88,372 L 86,374 L 84,374 L 84,377 L 85,378 L 85,379 L 84,380 L 83,380 L 83,383 L 84,384 L 85,384 L 86,383 L 88,383 L 88,382 L 87,381 L 87,380 L 89,378 L 89,376 L 90,375 L 90,374 L 89,373 L 89,372 Z" fill="none" stroke="black" stroke-width="1"/>
  <path d="M 95,368 L 92,371 L 92,376 L 91,377 L 91,380 L 90,381 L 90,384 L 89,385 L 88,385 L 87,386 L 88,387 L 88,388 L 91,388 L 92,387 L 92,386 L 91,385 L 92,384 L 95,384 L 96,383 L 96,381 L 95,381 L 93,379 L 93,376 L 94,375 L 94,374 L 95,373 L 96,373 L 97,374 L 97,375 L 97,372 L 96,371 L 96,370 L 95,369 Z" fill="none" stroke="black" stroke-width="1"/>
</svg>