<svg xmlns="http://www.w3.org/2000/svg" width="582" height="484">
  <path d="M 139,330 L 139,333 L 140,334 L 140,336 L 141,337 L 141,335 L 140,334 L 140,330 Z" fill="none" stroke="black" stroke-width="1"/>
  <path d="M 116,324 L 115,325 L 115,329 L 116,330 L 118,330 L 119,329 L 121,329 L 122,328 L 124,328 L 125,329 L 127,327 L 128,327 L 129,328 L 130,327 L 131,328 L 140,328 L 141,327 L 145,327 L 130,327 L 128,325 L 126,325 L 125,326 L 124,325 L 121,325 L 120,324 Z" fill="none" stroke="black" stroke-width="1"/>
</svg>