<svg xmlns="http://www.w3.org/2000/svg" width="582" height="484">
  <path d="M 267,331 L 265,333 L 263,333 L 262,334 L 263,334 L 264,335 L 260,339 L 256,339 L 254,337 L 251,337 L 245,343 L 244,342 L 243,342 L 242,341 L 235,341 L 234,342 L 234,344 L 235,345 L 236,345 L 237,344 L 238,344 L 239,345 L 240,345 L 244,349 L 244,350 L 245,351 L 246,350 L 247,351 L 247,353 L 248,353 L 249,354 L 246,357 L 247,358 L 247,361 L 248,362 L 248,363 L 249,363 L 250,362 L 254,362 L 256,360 L 256,359 L 255,358 L 258,355 L 258,353 L 259,352 L 259,348 L 262,345 L 263,346 L 263,347 L 261,349 L 261,353 L 260,354 L 261,355 L 261,356 L 263,356 L 265,358 L 266,358 L 267,357 L 269,359 L 268,360 L 269,361 L 270,361 L 271,360 L 272,360 L 274,362 L 274,361 L 275,360 L 276,360 L 278,358 L 279,358 L 279,357 L 282,354 L 282,352 L 281,351 L 280,351 L 278,349 L 278,344 L 277,345 L 275,343 L 275,338 L 273,338 L 271,340 L 270,339 L 270,338 L 267,335 Z" fill="none" stroke="black" stroke-width="1"/>
</svg>