<svg xmlns="http://www.w3.org/2000/svg" width="582" height="484">
  <path d="M 469,381 L 469,383 L 470,384 L 471,384 L 471,382 L 470,381 Z" fill="none" stroke="black" stroke-width="1"/>
  <path d="M 452,370 L 452,371 L 451,372 L 451,373 L 452,373 L 453,372 L 453,371 Z" fill="none" stroke="black" stroke-width="1"/>
  <path d="M 430,362 L 429,363 L 428,363 L 428,364 L 426,366 L 426,367 L 425,368 L 425,371 L 424,372 L 423,372 L 422,373 L 417,373 L 416,374 L 416,380 L 418,382 L 419,382 L 420,383 L 425,383 L 426,384 L 429,384 L 430,385 L 431,385 L 435,389 L 436,389 L 439,392 L 440,392 L 442,394 L 443,394 L 446,397 L 447,397 L 450,400 L 451,400 L 452,401 L 455,401 L 456,402 L 457,402 L 456,401 L 457,400 L 460,400 L 462,398 L 466,398 L 467,399 L 468,399 L 469,400 L 472,400 L 473,399 L 474,399 L 476,397 L 477,397 L 478,396 L 475,393 L 469,393 L 467,391 L 465,391 L 464,390 L 463,390 L 461,388 L 460,388 L 459,387 L 455,387 L 454,386 L 453,386 L 452,385 L 451,385 L 450,386 L 449,386 L 448,385 L 448,383 L 449,382 L 449,380 L 450,379 L 449,378 L 449,376 L 448,375 L 448,374 L 442,368 L 439,368 L 433,362 Z" fill="none" stroke="black" stroke-width="1"/>
  <path d="M 465,329 L 464,330 L 462,330 L 461,331 L 461,333 L 462,333 L 463,332 L 466,332 L 467,333 L 471,333 L 472,332 L 474,332 L 476,330 L 476,329 L 475,329 L 475,330 L 474,331 L 473,330 L 468,330 L 467,329 Z" fill="none" stroke="black" stroke-width="1"/>
</svg>