<svg xmlns="http://www.w3.org/2000/svg" width="582" height="484">
  <path d="M 478,397 L 477,398 L 476,398 L 474,400 L 473,400 L 472,401 L 469,401 L 468,400 L 467,400 L 466,399 L 462,399 L 460,401 L 457,401 L 458,402 L 457,403 L 456,403 L 455,402 L 455,404 L 456,404 L 462,410 L 463,410 L 465,412 L 465,414 L 466,414 L 467,415 L 468,415 L 473,420 L 473,421 L 475,423 L 476,423 L 477,424 L 477,425 L 478,426 L 478,433 L 479,434 L 479,437 L 480,438 L 480,439 L 481,439 L 482,440 L 484,440 L 485,441 L 486,441 L 487,442 L 487,444 L 488,445 L 488,447 L 491,447 L 492,446 L 496,446 L 497,445 L 499,445 L 500,444 L 504,444 L 504,442 L 500,442 L 499,443 L 497,443 L 496,444 L 495,444 L 494,443 L 493,443 L 492,442 L 492,441 L 491,440 L 491,437 L 489,435 L 488,435 L 487,434 L 487,430 L 486,429 L 486,427 L 484,427 L 482,425 L 480,425 L 479,424 L 479,423 L 474,418 L 472,418 L 470,416 L 470,413 L 469,412 L 469,411 L 467,409 L 467,406 L 468,405 L 469,405 L 470,404 L 471,404 L 472,405 L 480,405 L 481,404 L 481,399 L 479,397 Z" fill="none" stroke="black" stroke-width="1"/>
  <path d="M 481,386 L 481,388 L 484,391 L 484,389 L 485,388 L 484,387 L 483,387 L 482,386 Z" fill="none" stroke="black" stroke-width="1"/>
</svg>