<svg xmlns="http://www.w3.org/2000/svg" width="171" height="149">
  <path d="M 159,51 L 159,52 L 158,53 L 159,54 L 159,57 L 157,59 L 156,59 L 156,60 L 152,64 L 150,64 L 150,65 L 148,67 L 148,70 L 145,73 L 144,72 L 143,72 L 142,71 L 142,73 L 141,74 L 140,74 L 139,75 L 137,75 L 137,77 L 135,79 L 132,79 L 131,80 L 134,83 L 135,83 L 136,84 L 137,84 L 138,85 L 138,86 L 140,88 L 142,88 L 143,89 L 146,89 L 146,88 L 149,85 L 153,85 L 154,86 L 158,86 L 159,85 L 159,84 L 160,83 L 160,82 L 161,81 L 162,81 L 165,78 L 167,78 L 168,77 L 167,76 L 167,75 L 168,74 L 169,74 L 170,73 L 170,72 L 168,70 L 167,70 L 166,69 L 166,67 L 165,66 L 164,66 L 163,65 L 163,64 L 164,63 L 164,62 L 165,61 L 165,56 L 162,53 L 161,53 Z" fill="none" stroke="black" stroke-width="1"/>
</svg>