<svg xmlns="http://www.w3.org/2000/svg" width="582" height="484">
  <path d="M 428,412 L 427,413 L 417,413 L 416,414 L 415,414 L 414,415 L 413,415 L 410,418 L 410,419 L 409,420 L 409,424 L 406,427 L 405,427 L 404,428 L 402,428 L 401,427 L 401,426 L 399,426 L 398,427 L 398,430 L 399,429 L 402,429 L 403,430 L 408,430 L 409,429 L 415,429 L 414,428 L 414,427 L 413,427 L 411,425 L 411,424 L 412,423 L 414,425 L 417,425 L 418,426 L 419,426 L 420,425 L 420,424 L 419,423 L 419,422 L 418,421 L 418,420 L 417,420 L 416,419 L 416,418 L 415,417 L 416,416 L 417,416 L 418,417 L 418,418 L 419,418 L 420,419 L 420,420 L 421,420 L 422,421 L 423,421 L 424,422 L 425,422 L 425,420 L 426,419 L 427,420 L 427,421 L 428,421 L 428,420 L 427,419 L 427,418 L 428,417 L 431,420 L 434,420 L 436,422 L 440,422 L 441,423 L 442,423 L 443,424 L 447,424 L 448,425 L 450,425 L 451,426 L 453,426 L 457,430 L 457,432 L 458,433 L 458,434 L 460,434 L 461,433 L 461,432 L 463,430 L 459,426 L 459,420 L 458,419 L 441,419 L 440,418 L 436,418 L 435,417 L 433,417 L 432,416 L 432,413 L 431,412 Z" fill="none" stroke="black" stroke-width="1"/>
</svg>