<svg xmlns="http://www.w3.org/2000/svg" width="582" height="484">
  <path d="M 412,432 L 413,433 L 412,434 L 413,435 L 414,435 L 413,434 L 414,433 L 415,433 L 414,432 Z" fill="none" stroke="black" stroke-width="1"/>
  <path d="M 373,417 L 372,418 L 373,419 L 373,420 L 376,423 L 376,429 L 373,432 L 372,432 L 368,436 L 367,436 L 369,438 L 369,439 L 372,442 L 373,442 L 374,443 L 375,443 L 376,444 L 376,445 L 378,445 L 380,443 L 381,443 L 383,445 L 390,445 L 391,444 L 395,444 L 396,445 L 397,445 L 398,446 L 401,446 L 402,445 L 403,445 L 404,444 L 405,444 L 407,442 L 409,442 L 410,441 L 411,442 L 412,441 L 412,440 L 411,439 L 411,437 L 407,433 L 405,433 L 404,432 L 403,432 L 402,431 L 401,431 L 400,432 L 397,432 L 393,428 L 394,427 L 396,427 L 397,428 L 397,429 L 397,425 L 396,424 L 395,424 L 394,423 L 391,423 L 390,424 L 388,424 L 387,423 L 387,422 L 384,422 L 383,421 L 381,421 L 380,420 L 380,418 L 378,418 L 377,417 Z" fill="none" stroke="black" stroke-width="1"/>
</svg>