<svg xmlns="http://www.w3.org/2000/svg" width="582" height="484">
  <path d="M 372,397 L 371,398 L 370,398 L 367,401 L 366,401 L 363,404 L 363,406 L 362,407 L 361,407 L 361,408 L 360,409 L 360,411 L 359,412 L 354,412 L 353,413 L 348,413 L 347,412 L 344,412 L 346,412 L 347,413 L 346,414 L 340,414 L 341,414 L 343,416 L 344,416 L 345,417 L 344,418 L 345,419 L 345,420 L 344,421 L 344,424 L 343,425 L 343,426 L 342,427 L 341,426 L 341,422 L 342,421 L 341,420 L 341,418 L 339,416 L 336,416 L 335,417 L 332,417 L 331,418 L 330,418 L 328,420 L 328,421 L 326,423 L 326,424 L 325,425 L 325,426 L 324,427 L 324,429 L 323,430 L 323,431 L 322,432 L 323,432 L 324,431 L 331,431 L 332,432 L 333,432 L 334,431 L 335,431 L 339,427 L 340,427 L 342,429 L 341,430 L 339,430 L 338,431 L 339,431 L 340,432 L 341,432 L 341,431 L 342,430 L 342,429 L 343,428 L 344,428 L 345,427 L 347,427 L 348,428 L 352,428 L 353,427 L 358,427 L 359,426 L 359,425 L 361,423 L 362,424 L 362,426 L 361,427 L 361,430 L 365,434 L 366,434 L 367,435 L 368,435 L 372,431 L 373,431 L 375,429 L 375,423 L 372,420 L 372,419 L 371,418 L 373,416 L 377,416 L 378,417 L 380,417 L 381,418 L 381,420 L 383,420 L 383,418 L 385,416 L 386,416 L 388,414 L 388,411 L 386,411 L 383,408 L 383,407 L 382,406 L 382,405 L 381,404 L 381,403 L 380,402 L 380,401 L 377,398 L 376,398 L 375,397 Z" fill="none" stroke="black" stroke-width="1"/>
</svg>