<svg xmlns="http://www.w3.org/2000/svg" width="582" height="484">
  <path d="M 281,356 L 280,357 L 280,358 L 279,359 L 278,359 L 277,360 L 277,361 L 276,362 L 276,364 L 277,365 L 278,365 L 279,366 L 280,366 L 281,367 L 282,367 L 283,368 L 284,368 L 285,369 L 286,368 L 289,368 L 290,369 L 296,369 L 297,370 L 297,371 L 298,371 L 299,372 L 303,372 L 305,374 L 306,374 L 307,375 L 309,375 L 310,376 L 311,376 L 312,377 L 316,377 L 318,379 L 319,379 L 320,380 L 322,380 L 325,383 L 326,383 L 329,386 L 329,389 L 330,389 L 333,392 L 333,394 L 334,395 L 334,398 L 335,399 L 335,400 L 337,402 L 338,402 L 339,403 L 339,405 L 344,405 L 347,408 L 345,410 L 343,408 L 340,408 L 339,409 L 338,408 L 337,408 L 337,409 L 338,410 L 339,410 L 340,411 L 342,411 L 343,410 L 344,411 L 347,411 L 348,412 L 350,412 L 351,411 L 351,410 L 352,409 L 352,408 L 350,406 L 349,406 L 343,400 L 342,400 L 341,399 L 341,398 L 339,396 L 339,395 L 338,394 L 338,391 L 341,388 L 341,385 L 342,384 L 342,383 L 344,381 L 346,381 L 348,379 L 348,378 L 349,377 L 349,370 L 347,370 L 345,372 L 339,372 L 338,371 L 333,371 L 331,369 L 330,369 L 329,368 L 322,368 L 321,369 L 318,366 L 316,366 L 314,364 L 303,364 L 302,363 L 289,363 L 287,361 L 286,361 Z" fill="none" stroke="black" stroke-width="1"/>
</svg>