<svg xmlns="http://www.w3.org/2000/svg" width="582" height="484">
  <path d="M 276,403 L 276,404 L 275,405 L 276,405 Z" fill="none" stroke="black" stroke-width="1"/>
  <path d="M 278,399 L 278,401 L 278,400 L 279,399 Z" fill="none" stroke="black" stroke-width="1"/>
  <path d="M 244,388 L 245,389 L 245,392 L 246,392 L 246,389 L 245,388 Z" fill="none" stroke="black" stroke-width="1"/>
  <path d="M 273,385 L 273,386 L 272,387 L 272,388 L 271,389 L 269,389 L 270,389 L 271,390 L 271,392 L 270,393 L 270,394 L 269,395 L 267,395 L 268,396 L 267,397 L 268,398 L 268,399 L 267,400 L 267,401 L 266,402 L 266,405 L 267,406 L 267,407 L 268,408 L 269,408 L 271,406 L 271,405 L 272,404 L 273,404 L 272,403 L 271,403 L 270,402 L 270,401 L 269,400 L 269,399 L 270,398 L 271,399 L 272,399 L 274,401 L 274,400 L 273,399 L 272,399 L 271,398 L 272,397 L 274,397 L 275,398 L 276,398 L 277,397 L 277,395 L 276,394 L 274,394 L 273,393 L 274,392 L 277,392 L 276,391 L 276,386 L 275,385 Z" fill="none" stroke="black" stroke-width="1"/>
  <path d="M 252,383 L 251,384 L 251,386 L 250,387 L 250,388 L 248,390 L 248,392 L 249,391 L 249,390 L 251,388 L 251,386 L 252,385 Z" fill="none" stroke="black" stroke-width="1"/>
</svg>