<svg xmlns="http://www.w3.org/2000/svg" width="550" height="483">
  <path d="M 8,220 L 8,223 L 9,223 L 10,224 L 10,227 L 10,226 L 11,225 L 11,224 L 10,223 L 10,222 L 9,221 L 9,220 Z" fill="none" stroke="black" stroke-width="1"/>
  <path d="M 0,218 L 0,222 L 1,223 L 1,224 L 3,226 L 4,226 L 4,225 L 3,224 L 3,223 L 2,222 L 2,221 L 1,220 L 1,218 Z" fill="none" stroke="black" stroke-width="1"/>
  <path d="M 13,183 L 13,184 L 12,185 L 13,186 L 13,187 L 12,188 L 12,190 L 10,192 L 10,193 L 9,194 L 9,196 L 8,197 L 8,204 L 9,204 L 10,205 L 10,206 L 11,207 L 11,212 L 14,215 L 14,216 L 15,217 L 15,218 L 16,219 L 16,220 L 17,221 L 17,222 L 19,224 L 19,225 L 18,226 L 18,229 L 19,230 L 17,232 L 16,232 L 14,230 L 14,227 L 12,229 L 13,229 L 14,230 L 14,234 L 13,235 L 10,235 L 9,234 L 9,230 L 8,230 L 7,229 L 7,228 L 7,229 L 6,230 L 6,231 L 7,232 L 7,233 L 12,238 L 12,239 L 14,241 L 14,242 L 16,244 L 16,245 L 17,246 L 17,256 L 23,262 L 23,263 L 24,264 L 24,268 L 25,269 L 26,268 L 27,268 L 28,267 L 31,267 L 32,266 L 39,266 L 40,265 L 41,265 L 42,264 L 42,263 L 44,261 L 45,261 L 50,256 L 51,256 L 52,255 L 52,254 L 57,249 L 58,249 L 61,246 L 62,246 L 66,242 L 67,242 L 68,241 L 69,241 L 71,239 L 72,239 L 73,238 L 73,237 L 75,235 L 75,234 L 78,231 L 78,229 L 79,228 L 79,227 L 80,226 L 80,225 L 81,224 L 81,210 L 82,209 L 82,198 L 78,194 L 74,194 L 73,195 L 72,195 L 71,194 L 67,194 L 66,195 L 62,195 L 60,197 L 60,198 L 58,200 L 57,200 L 56,201 L 51,201 L 50,200 L 49,200 L 48,199 L 47,199 L 45,197 L 39,197 L 38,198 L 38,200 L 37,201 L 35,199 L 34,199 L 28,193 L 23,193 L 22,192 L 21,192 L 19,190 L 19,188 L 18,187 L 18,186 L 17,185 L 17,184 L 16,184 L 15,183 Z" fill="none" stroke="black" stroke-width="1"/>
</svg>