<svg xmlns="http://www.w3.org/2000/svg" width="550" height="483">
  <path d="M 105,332 L 105,333 L 103,335 L 102,335 L 101,336 L 100,336 L 99,337 L 79,337 L 78,336 L 77,336 L 74,339 L 72,339 L 72,340 L 70,342 L 69,342 L 68,343 L 68,344 L 67,345 L 67,350 L 63,354 L 62,354 L 61,355 L 59,355 L 56,358 L 55,358 L 55,359 L 54,360 L 54,361 L 53,362 L 54,363 L 55,362 L 61,362 L 62,363 L 67,363 L 68,362 L 69,362 L 70,361 L 72,361 L 74,359 L 74,358 L 75,357 L 78,357 L 79,356 L 79,355 L 81,353 L 85,353 L 86,354 L 86,353 L 91,348 L 92,348 L 93,347 L 94,347 L 97,344 L 99,344 L 100,345 L 102,345 L 103,344 L 112,344 L 113,343 L 117,343 L 118,344 L 122,344 L 123,343 L 125,345 L 125,346 L 126,346 L 128,344 L 129,344 L 130,345 L 131,344 L 138,344 L 139,345 L 139,346 L 140,345 L 141,345 L 142,344 L 145,344 L 147,342 L 147,341 L 148,340 L 147,339 L 146,339 L 145,338 L 142,338 L 141,337 L 140,337 L 139,336 L 130,336 L 129,335 L 114,335 L 113,334 L 111,334 L 110,333 L 108,333 L 107,332 Z" fill="none" stroke="black" stroke-width="1"/>
</svg>