<svg xmlns="http://www.w3.org/2000/svg" width="550" height="483">
  <path d="M 236,14 L 236,16 L 235,17 L 234,17 L 234,21 L 233,22 L 232,21 L 232,23 L 233,23 L 234,22 L 236,22 L 237,23 L 239,23 L 240,22 L 241,23 L 242,23 L 243,24 L 245,24 L 250,19 L 251,19 L 252,18 L 250,16 L 250,15 L 247,15 L 245,17 L 241,17 L 240,18 Z" fill="none" stroke="black" stroke-width="1"/>
  <path d="M 266,13 L 266,15 L 265,16 L 263,14 L 260,14 L 261,15 L 261,17 L 260,18 L 259,17 L 259,16 L 258,15 L 258,14 L 256,14 L 256,15 L 255,16 L 257,16 L 259,18 L 259,19 L 260,18 L 265,18 L 265,17 L 267,15 L 267,13 Z" fill="none" stroke="black" stroke-width="1"/>
</svg>