<svg xmlns="http://www.w3.org/2000/svg" width="550" height="483">
  <path d="M 321,49 L 321,51 L 320,52 L 318,52 L 318,54 L 317,55 L 317,56 L 318,57 L 324,57 L 322,57 L 321,56 L 321,54 L 322,53 L 322,52 L 321,51 Z" fill="none" stroke="black" stroke-width="1"/>
  <path d="M 315,49 L 314,50 L 315,51 L 316,50 Z" fill="none" stroke="black" stroke-width="1"/>
  <path d="M 315,20 L 316,20 Z" fill="none" stroke="black" stroke-width="1"/>
  <path d="M 270,17 L 269,18 L 269,19 L 268,20 L 267,20 L 267,27 L 265,29 L 265,30 L 264,31 L 264,33 L 263,34 L 263,44 L 262,45 L 262,51 L 261,52 L 261,53 L 260,54 L 260,55 L 258,57 L 258,60 L 259,61 L 259,63 L 260,64 L 260,65 L 261,66 L 261,70 L 262,70 L 263,71 L 265,71 L 266,72 L 268,72 L 269,71 L 270,71 L 271,72 L 271,73 L 272,73 L 273,74 L 284,74 L 285,75 L 294,75 L 295,74 L 297,74 L 298,75 L 303,75 L 303,74 L 305,72 L 306,72 L 306,71 L 307,70 L 307,69 L 306,69 L 303,66 L 303,64 L 304,63 L 305,63 L 305,61 L 307,59 L 307,58 L 308,57 L 309,57 L 309,55 L 310,54 L 310,52 L 311,51 L 309,49 L 309,45 L 312,42 L 315,42 L 316,41 L 317,42 L 318,42 L 318,41 L 319,40 L 319,39 L 318,38 L 318,37 L 319,36 L 320,37 L 320,35 L 324,31 L 324,30 L 323,29 L 322,30 L 321,30 L 320,29 L 320,28 L 319,27 L 319,25 L 318,26 L 317,26 L 315,28 L 316,28 L 317,29 L 317,31 L 315,33 L 312,33 L 311,32 L 311,30 L 310,29 L 310,28 L 310,29 L 309,30 L 308,30 L 307,29 L 307,27 L 309,25 L 308,25 L 306,27 L 303,27 L 303,28 L 301,30 L 300,30 L 296,26 L 293,26 L 292,27 L 291,27 L 290,26 L 287,26 L 285,24 L 284,25 L 283,24 L 283,23 L 284,22 L 282,22 L 280,24 L 279,24 L 278,23 L 277,23 L 276,22 L 274,22 L 271,19 L 271,17 Z" fill="none" stroke="black" stroke-width="1"/>
  <path d="M 322,12 L 319,15 L 319,16 L 318,17 L 318,19 L 319,18 L 319,17 L 322,14 Z" fill="none" stroke="black" stroke-width="1"/>
</svg>