<svg xmlns="http://www.w3.org/2000/svg" width="550" height="483">
  <path d="M 395,11 L 395,15 L 394,16 L 394,18 L 393,19 L 393,26 L 392,27 L 391,26 L 390,26 L 390,28 L 389,29 L 389,30 L 388,31 L 388,32 L 389,32 L 390,33 L 391,33 L 392,34 L 392,35 L 391,36 L 390,36 L 390,37 L 389,38 L 388,38 L 387,39 L 387,40 L 388,41 L 388,42 L 389,43 L 388,44 L 388,45 L 387,46 L 387,49 L 386,50 L 386,52 L 387,53 L 387,65 L 388,66 L 388,70 L 387,71 L 387,73 L 386,74 L 386,79 L 385,80 L 385,81 L 386,82 L 386,83 L 384,85 L 384,88 L 385,88 L 387,90 L 388,90 L 390,92 L 391,92 L 392,93 L 393,93 L 395,95 L 397,95 L 399,97 L 402,97 L 403,98 L 404,98 L 405,99 L 409,99 L 409,93 L 411,91 L 411,90 L 412,89 L 412,87 L 413,86 L 413,81 L 412,80 L 412,73 L 413,72 L 413,68 L 417,64 L 417,60 L 416,59 L 416,58 L 415,57 L 415,53 L 414,53 L 413,52 L 413,51 L 412,50 L 413,49 L 413,45 L 412,44 L 412,38 L 411,37 L 411,33 L 409,31 L 407,31 L 406,30 L 406,28 L 407,27 L 407,26 L 408,25 L 405,25 L 404,24 L 404,16 L 403,15 L 403,12 L 402,11 Z" fill="none" stroke="black" stroke-width="1"/>
  <path d="M 399,7 L 399,9 L 400,8 Z" fill="none" stroke="black" stroke-width="1"/>
  <path d="M 394,7 L 396,7 Z" fill="none" stroke="black" stroke-width="1"/>
  <path d="M 396,0 L 397,0 Z" fill="none" stroke="black" stroke-width="1"/>
</svg>