<svg xmlns="http://www.w3.org/2000/svg" width="318" height="385">
  <path d="M 10,202 L 9,203 L 8,203 L 7,204 L 7,205 L 6,206 L 6,207 L 5,208 L 5,211 L 6,212 L 6,218 L 7,219 L 7,220 L 6,221 L 5,221 L 4,222 L 4,224 L 3,225 L 2,225 L 2,226 L 3,227 L 8,227 L 10,229 L 10,230 L 11,231 L 11,233 L 10,234 L 9,234 L 8,235 L 6,233 L 6,232 L 5,231 L 4,231 L 4,232 L 5,233 L 5,234 L 3,236 L 2,236 L 2,237 L 0,239 L 0,241 L 1,241 L 5,245 L 6,245 L 7,246 L 8,245 L 9,245 L 10,244 L 12,244 L 13,245 L 14,245 L 15,246 L 16,246 L 16,244 L 21,239 L 25,239 L 25,238 L 26,237 L 26,231 L 25,230 L 25,229 L 24,228 L 24,225 L 23,224 L 23,218 L 22,217 L 22,216 L 21,215 L 18,215 L 17,214 L 16,214 L 15,213 L 15,212 L 11,208 L 11,207 L 12,206 L 12,204 L 11,203 L 11,202 Z" fill="none" stroke="black" stroke-width="1"/>
</svg>