<svg xmlns="http://www.w3.org/2000/svg" width="550" height="483">
  <path d="M 426,56 L 426,57 L 425,58 L 422,58 L 419,61 L 418,61 L 418,64 L 414,68 L 414,72 L 413,73 L 413,80 L 414,81 L 414,86 L 413,87 L 413,89 L 412,90 L 412,91 L 410,93 L 410,98 L 411,99 L 411,100 L 413,100 L 414,101 L 419,101 L 420,100 L 422,100 L 423,99 L 427,99 L 428,100 L 432,100 L 433,101 L 441,101 L 442,100 L 443,100 L 444,99 L 445,99 L 445,95 L 444,95 L 443,94 L 443,93 L 438,88 L 438,87 L 439,86 L 439,83 L 438,82 L 438,81 L 437,80 L 437,71 L 436,70 L 437,69 L 437,66 L 436,66 L 435,65 L 433,65 L 430,62 L 429,62 L 427,60 L 427,59 L 426,58 Z" fill="none" stroke="black" stroke-width="1"/>
</svg>