<svg xmlns="http://www.w3.org/2000/svg" width="550" height="483">
  <path d="M 446,99 L 445,100 L 444,100 L 443,101 L 442,101 L 441,102 L 433,102 L 432,101 L 428,101 L 427,100 L 423,100 L 422,101 L 420,101 L 419,102 L 417,102 L 417,104 L 418,105 L 418,106 L 417,107 L 417,108 L 412,113 L 411,113 L 408,116 L 408,120 L 411,123 L 412,123 L 415,126 L 415,132 L 416,133 L 426,133 L 427,134 L 433,134 L 434,135 L 439,135 L 440,136 L 442,136 L 447,141 L 447,142 L 448,143 L 448,144 L 450,146 L 450,147 L 452,149 L 460,149 L 461,148 L 465,148 L 466,147 L 472,147 L 473,148 L 476,148 L 477,149 L 481,149 L 482,148 L 482,147 L 484,145 L 485,145 L 484,144 L 484,142 L 483,142 L 482,141 L 480,141 L 479,142 L 477,140 L 477,139 L 476,138 L 473,138 L 471,136 L 471,135 L 470,136 L 469,136 L 468,135 L 468,133 L 467,132 L 467,131 L 466,130 L 466,129 L 465,130 L 462,130 L 461,129 L 460,129 L 459,128 L 456,128 L 455,127 L 454,127 L 449,122 L 450,121 L 450,120 L 451,119 L 450,119 L 448,117 L 448,116 L 447,115 L 448,114 L 447,114 L 446,113 L 446,112 L 447,111 L 447,110 L 448,109 L 448,103 L 447,102 L 447,101 L 446,100 Z" fill="none" stroke="black" stroke-width="1"/>
</svg>