<svg xmlns="http://www.w3.org/2000/svg" width="550" height="483">
  <path d="M 466,148 L 465,149 L 461,149 L 460,150 L 452,150 L 455,153 L 456,153 L 457,154 L 458,154 L 461,157 L 462,157 L 464,159 L 466,159 L 468,161 L 469,161 L 471,163 L 471,165 L 472,166 L 472,168 L 474,170 L 474,175 L 475,175 L 476,176 L 478,176 L 479,177 L 481,177 L 482,178 L 483,178 L 484,179 L 484,180 L 485,180 L 486,179 L 487,179 L 487,178 L 488,177 L 491,177 L 492,178 L 492,179 L 493,180 L 493,183 L 494,184 L 494,187 L 495,188 L 496,188 L 497,189 L 498,189 L 499,188 L 498,187 L 498,181 L 499,180 L 502,180 L 503,181 L 505,181 L 507,183 L 507,184 L 508,185 L 511,185 L 510,184 L 510,183 L 511,182 L 511,178 L 510,177 L 510,176 L 509,175 L 509,173 L 508,173 L 508,174 L 507,175 L 506,175 L 504,173 L 503,173 L 501,171 L 501,170 L 501,171 L 500,172 L 501,173 L 501,175 L 500,176 L 499,175 L 499,174 L 498,173 L 497,174 L 494,171 L 494,167 L 493,166 L 493,161 L 491,159 L 491,158 L 490,157 L 490,156 L 489,155 L 489,154 L 487,152 L 486,152 L 483,149 L 483,148 L 481,150 L 477,150 L 476,149 L 473,149 L 472,148 Z" fill="none" stroke="black" stroke-width="1"/>
</svg>