<svg xmlns="http://www.w3.org/2000/svg" width="550" height="483">
  <path d="M 457,390 L 455,392 L 455,394 L 454,395 L 454,397 L 453,398 L 453,399 L 452,400 L 453,401 L 453,412 L 452,413 L 452,414 L 451,415 L 451,420 L 456,420 L 457,419 L 459,419 L 462,416 L 462,415 L 463,414 L 464,414 L 467,411 L 468,411 L 468,410 L 470,408 L 471,408 L 472,407 L 475,407 L 476,406 L 492,406 L 493,405 L 494,405 L 495,404 L 496,404 L 496,403 L 498,401 L 497,400 L 497,399 L 496,398 L 495,398 L 494,397 L 492,397 L 491,396 L 490,396 L 489,395 L 483,395 L 482,396 L 481,396 L 480,397 L 475,397 L 474,396 L 473,396 L 468,391 L 466,391 L 465,390 Z" fill="none" stroke="black" stroke-width="1"/>
</svg>