<svg xmlns="http://www.w3.org/2000/svg" width="550" height="483">
  <path d="M 363,346 L 361,348 L 361,350 L 363,352 L 363,353 L 364,354 L 364,355 L 363,356 L 363,357 L 360,360 L 359,360 L 357,362 L 357,368 L 358,369 L 358,371 L 356,373 L 355,372 L 355,371 L 355,374 L 357,376 L 358,376 L 359,377 L 360,376 L 361,377 L 361,378 L 360,379 L 362,381 L 362,383 L 363,384 L 363,385 L 364,386 L 364,391 L 362,393 L 362,394 L 363,395 L 363,397 L 365,399 L 365,400 L 366,401 L 367,401 L 369,403 L 369,404 L 371,406 L 371,407 L 372,407 L 375,410 L 378,410 L 379,409 L 381,411 L 382,411 L 385,414 L 386,414 L 387,415 L 389,413 L 391,413 L 392,414 L 395,414 L 395,404 L 396,403 L 396,401 L 397,400 L 397,392 L 398,391 L 398,388 L 397,387 L 397,385 L 396,384 L 396,374 L 397,373 L 397,370 L 398,369 L 398,368 L 399,367 L 399,352 L 398,351 L 398,350 L 395,347 L 394,347 L 393,346 L 388,346 L 387,347 L 382,347 L 381,348 L 378,348 L 376,350 L 374,350 L 371,347 L 368,347 L 367,346 Z" fill="none" stroke="black" stroke-width="1"/>
</svg>