<svg xmlns="http://www.w3.org/2000/svg" width="550" height="483">
  <path d="M 330,303 L 326,307 L 325,307 L 322,310 L 321,310 L 320,311 L 318,311 L 317,312 L 317,315 L 318,316 L 318,317 L 316,319 L 314,317 L 313,317 L 313,318 L 312,319 L 311,318 L 311,316 L 312,315 L 312,313 L 311,314 L 310,314 L 309,315 L 308,315 L 306,317 L 304,317 L 303,318 L 302,318 L 301,319 L 300,319 L 297,322 L 296,322 L 295,323 L 294,323 L 293,324 L 290,324 L 289,325 L 290,326 L 288,328 L 287,327 L 287,329 L 289,331 L 289,332 L 290,333 L 292,333 L 293,332 L 296,335 L 296,336 L 298,338 L 298,339 L 297,340 L 298,341 L 298,342 L 300,344 L 301,344 L 303,346 L 303,350 L 304,351 L 304,355 L 303,356 L 301,354 L 301,355 L 302,355 L 307,360 L 308,360 L 309,359 L 311,361 L 312,361 L 312,358 L 311,359 L 310,359 L 309,358 L 309,357 L 310,356 L 310,355 L 311,354 L 312,354 L 312,353 L 314,351 L 315,351 L 316,350 L 316,348 L 320,344 L 322,344 L 325,341 L 326,342 L 327,342 L 328,341 L 328,339 L 330,337 L 330,335 L 331,334 L 331,333 L 333,331 L 335,331 L 335,325 L 336,324 L 336,320 L 335,319 L 335,304 L 334,303 Z" fill="none" stroke="black" stroke-width="1"/>
</svg>