<svg xmlns="http://www.w3.org/2000/svg" width="1790" height="1070">
  <path d="M 687,921 L 686,922 L 686,923 L 683,926 L 681,926 L 681,927 L 679,929 L 676,929 L 675,928 L 674,928 L 673,927 L 669,927 L 668,926 L 667,927 L 667,930 L 666,931 L 666,935 L 665,936 L 665,937 L 664,938 L 663,938 L 662,939 L 661,939 L 660,940 L 660,942 L 661,943 L 661,954 L 660,955 L 660,956 L 658,958 L 658,960 L 657,961 L 657,962 L 656,963 L 655,963 L 654,964 L 653,964 L 653,965 L 652,966 L 652,967 L 650,969 L 650,971 L 652,973 L 652,975 L 653,976 L 654,976 L 656,974 L 657,974 L 659,972 L 660,972 L 662,970 L 663,970 L 664,969 L 665,969 L 668,966 L 668,964 L 669,963 L 669,962 L 671,960 L 671,959 L 673,957 L 673,956 L 674,955 L 675,955 L 676,954 L 676,952 L 679,949 L 679,948 L 680,947 L 680,942 L 682,940 L 682,939 L 681,939 L 680,938 L 680,936 L 679,935 L 679,934 L 680,933 L 680,932 L 683,929 L 684,929 L 685,928 L 688,928 L 689,927 L 690,928 L 693,928 L 694,929 L 694,931 L 694,930 L 695,929 L 696,929 L 695,928 L 695,927 L 694,926 L 694,925 L 693,925 L 692,924 L 691,924 L 689,922 L 688,922 Z" fill="none" stroke="black" stroke-width="1"/>
</svg>