<svg xmlns="http://www.w3.org/2000/svg" width="1790" height="1070">
  <path d="M 631,960 L 631,961 L 630,962 L 630,963 L 631,964 L 632,964 L 631,964 L 630,963 L 632,961 L 632,960 Z" fill="none" stroke="black" stroke-width="1"/>
  <path d="M 611,956 L 612,957 L 611,958 L 609,958 L 606,961 L 605,961 L 605,962 L 604,963 L 604,969 L 607,969 L 608,968 L 610,968 L 612,970 L 612,972 L 611,973 L 612,974 L 607,979 L 607,982 L 609,982 L 610,983 L 614,983 L 616,985 L 618,985 L 619,984 L 620,984 L 622,982 L 628,982 L 629,983 L 629,984 L 630,984 L 631,985 L 632,985 L 636,981 L 636,980 L 637,979 L 635,977 L 635,975 L 634,975 L 633,974 L 633,973 L 634,972 L 634,971 L 635,970 L 637,970 L 636,970 L 635,969 L 636,968 L 636,966 L 635,966 L 634,965 L 633,966 L 633,968 L 632,969 L 631,969 L 630,968 L 630,967 L 629,967 L 628,966 L 628,965 L 625,968 L 624,968 L 621,971 L 619,971 L 618,970 L 618,967 L 617,966 L 617,965 L 618,964 L 618,963 L 617,962 L 617,961 L 616,962 L 614,962 L 612,960 L 612,956 Z" fill="none" stroke="black" stroke-width="1"/>
</svg>