<svg xmlns="http://www.w3.org/2000/svg" width="1790" height="1070">
  <path d="M 635,880 L 635,881 L 636,882 L 636,883 L 637,883 L 640,886 L 640,888 L 641,889 L 641,890 L 643,892 L 643,894 L 644,895 L 644,896 L 645,897 L 645,900 L 646,901 L 646,903 L 647,904 L 647,905 L 646,906 L 646,908 L 647,909 L 646,910 L 646,914 L 645,915 L 645,916 L 644,917 L 644,923 L 645,923 L 646,922 L 648,922 L 649,921 L 651,921 L 652,922 L 653,922 L 654,923 L 655,922 L 655,918 L 656,917 L 656,915 L 657,914 L 657,913 L 660,910 L 660,905 L 659,904 L 659,903 L 661,901 L 662,901 L 664,899 L 663,898 L 663,895 L 662,894 L 662,888 L 660,886 L 660,885 L 659,885 L 658,884 L 658,883 L 656,881 L 654,881 L 657,884 L 657,886 L 656,887 L 656,888 L 658,890 L 658,894 L 657,895 L 655,895 L 653,893 L 653,890 L 651,890 L 649,888 L 651,886 L 649,886 L 650,887 L 649,888 L 647,888 L 644,885 L 644,884 L 639,884 L 637,882 L 637,881 L 636,880 Z" fill="none" stroke="black" stroke-width="1"/>
  <path d="M 654,874 L 654,876 L 656,878 L 657,878 L 657,877 L 656,876 L 656,875 L 655,874 Z" fill="none" stroke="black" stroke-width="1"/>
</svg>