<svg xmlns="http://www.w3.org/2000/svg" width="318" height="385">
  <path d="M 17,264 L 13,268 L 12,268 L 12,269 L 13,270 L 11,272 L 9,272 L 6,275 L 5,275 L 5,276 L 4,277 L 4,278 L 8,278 L 10,280 L 10,282 L 12,282 L 13,283 L 13,284 L 16,284 L 17,285 L 20,285 L 21,286 L 24,286 L 27,289 L 27,291 L 29,291 L 30,292 L 30,294 L 31,294 L 32,295 L 32,296 L 32,295 L 33,294 L 34,294 L 34,293 L 35,292 L 34,291 L 34,290 L 33,289 L 33,287 L 36,284 L 37,284 L 38,283 L 38,280 L 37,279 L 39,277 L 40,277 L 40,276 L 41,275 L 43,275 L 43,273 L 42,272 L 42,271 L 43,270 L 43,269 L 42,269 L 41,268 L 40,268 L 38,266 L 38,265 L 37,265 L 37,266 L 35,268 L 31,268 L 30,267 L 30,266 L 28,266 L 26,268 L 25,268 L 24,267 L 23,267 L 22,266 L 22,265 L 21,264 Z" fill="none" stroke="black" stroke-width="1"/>
</svg>