<svg xmlns="http://www.w3.org/2000/svg" width="99" height="181">
  <path d="M 72,18 L 71,19 L 69,19 L 68,20 L 67,20 L 66,19 L 63,19 L 61,21 L 61,23 L 60,24 L 62,26 L 62,27 L 61,28 L 61,29 L 59,31 L 58,31 L 56,29 L 55,29 L 54,30 L 51,30 L 50,31 L 48,31 L 44,35 L 44,36 L 47,36 L 48,37 L 50,37 L 51,38 L 51,39 L 52,40 L 53,40 L 54,41 L 54,43 L 55,43 L 59,39 L 63,39 L 64,40 L 65,40 L 66,41 L 66,43 L 68,45 L 68,46 L 69,46 L 70,47 L 71,47 L 72,46 L 74,46 L 75,45 L 75,43 L 76,42 L 77,42 L 78,41 L 79,41 L 80,40 L 83,40 L 83,32 L 84,31 L 84,30 L 82,28 L 82,27 L 83,26 L 83,25 L 84,24 L 84,23 L 82,21 L 81,21 L 80,22 L 78,22 L 76,20 L 75,20 L 74,19 L 73,19 Z" fill="none" stroke="black" stroke-width="1"/>
</svg>