<svg xmlns="http://www.w3.org/2000/svg" width="241" height="225">
  <path d="M 126,38 L 125,39 L 125,40 L 123,42 L 122,42 L 122,45 L 120,47 L 119,47 L 119,48 L 118,49 L 118,51 L 117,52 L 118,52 L 119,53 L 120,53 L 121,54 L 121,57 L 120,58 L 120,62 L 121,62 L 122,63 L 123,63 L 124,64 L 126,64 L 128,62 L 130,62 L 131,63 L 133,63 L 135,65 L 136,65 L 137,64 L 139,64 L 140,63 L 140,58 L 138,58 L 137,57 L 137,54 L 135,52 L 134,52 L 129,47 L 129,43 L 130,42 L 131,42 L 132,41 L 132,39 L 131,39 L 130,38 Z" fill="none" stroke="black" stroke-width="1"/>
</svg>