<svg xmlns="http://www.w3.org/2000/svg" width="749" height="389">
  <path d="M 522,269 L 519,272 L 517,272 L 515,274 L 512,274 L 511,275 L 510,275 L 505,280 L 505,281 L 499,287 L 497,287 L 496,288 L 493,288 L 492,289 L 491,289 L 490,290 L 489,290 L 488,291 L 487,291 L 486,292 L 478,292 L 477,293 L 474,293 L 474,294 L 478,298 L 478,299 L 479,300 L 479,301 L 480,301 L 482,303 L 482,306 L 481,307 L 481,308 L 483,308 L 487,312 L 488,312 L 489,313 L 489,314 L 490,315 L 491,315 L 492,316 L 493,316 L 494,315 L 501,315 L 502,314 L 505,317 L 510,317 L 511,316 L 512,316 L 514,314 L 520,314 L 520,312 L 524,308 L 525,308 L 526,307 L 527,307 L 528,306 L 529,306 L 530,305 L 537,305 L 539,303 L 542,303 L 541,302 L 541,301 L 540,300 L 540,292 L 539,292 L 537,290 L 535,290 L 533,288 L 533,287 L 532,287 L 531,286 L 531,284 L 529,282 L 529,278 L 527,276 L 527,275 L 526,274 L 526,273 L 525,272 L 525,270 L 524,269 Z" fill="none" stroke="black" stroke-width="1"/>
</svg>