<svg xmlns="http://www.w3.org/2000/svg" width="190" height="226">
  <path d="M 86,89 L 86,90 L 88,92 L 88,94 L 85,97 L 85,98 L 79,104 L 78,104 L 76,102 L 76,101 L 75,100 L 75,99 L 72,96 L 72,95 L 70,93 L 69,93 L 68,92 L 67,92 L 65,94 L 64,94 L 61,97 L 60,97 L 57,100 L 57,101 L 53,105 L 52,105 L 50,107 L 50,108 L 49,109 L 48,109 L 47,110 L 46,110 L 45,111 L 44,111 L 45,112 L 45,114 L 46,115 L 46,120 L 47,121 L 48,121 L 50,123 L 51,123 L 53,125 L 53,126 L 54,127 L 54,128 L 55,129 L 55,131 L 58,134 L 58,136 L 59,137 L 60,137 L 61,138 L 61,140 L 62,141 L 63,141 L 68,136 L 69,136 L 70,137 L 71,137 L 72,136 L 72,135 L 75,132 L 75,128 L 74,127 L 74,126 L 73,125 L 73,124 L 74,123 L 74,122 L 75,121 L 76,121 L 77,120 L 78,120 L 79,119 L 80,120 L 80,122 L 82,122 L 83,123 L 84,123 L 85,122 L 85,121 L 88,118 L 88,117 L 89,116 L 89,115 L 90,114 L 90,113 L 91,112 L 91,110 L 90,109 L 93,106 L 95,106 L 95,105 L 96,104 L 96,99 L 97,98 L 93,94 L 93,93 L 92,92 L 92,90 L 89,90 L 88,91 L 87,90 L 87,89 Z" fill="none" stroke="black" stroke-width="1"/>
</svg>