<svg xmlns="http://www.w3.org/2000/svg" width="318" height="385">
  <path d="M 99,180 L 98,181 L 96,181 L 96,182 L 95,183 L 91,183 L 90,184 L 89,184 L 88,183 L 87,183 L 87,184 L 88,185 L 88,186 L 89,187 L 89,188 L 88,189 L 86,189 L 85,190 L 84,190 L 83,191 L 82,191 L 80,193 L 79,193 L 78,194 L 78,195 L 77,196 L 77,199 L 76,200 L 75,200 L 75,202 L 76,202 L 77,203 L 80,203 L 81,204 L 82,204 L 83,205 L 84,205 L 85,206 L 85,211 L 86,212 L 86,213 L 87,214 L 88,214 L 91,217 L 94,217 L 96,215 L 101,215 L 102,214 L 103,214 L 106,211 L 112,211 L 113,210 L 116,210 L 116,208 L 117,207 L 117,206 L 118,205 L 118,203 L 120,201 L 120,197 L 119,196 L 118,196 L 117,195 L 117,191 L 116,190 L 114,190 L 110,186 L 110,184 L 111,183 L 111,182 L 109,180 L 107,182 L 106,182 L 105,183 L 104,183 L 102,181 L 101,181 L 100,180 Z" fill="none" stroke="black" stroke-width="1"/>
</svg>