<svg xmlns="http://www.w3.org/2000/svg" width="241" height="225">
  <path d="M 186,78 L 185,79 L 178,79 L 177,80 L 173,80 L 172,81 L 168,81 L 168,82 L 166,84 L 165,84 L 164,83 L 163,83 L 162,82 L 157,82 L 156,81 L 152,81 L 152,84 L 153,85 L 153,89 L 154,90 L 154,91 L 153,92 L 153,93 L 159,99 L 159,101 L 160,101 L 160,100 L 161,99 L 161,98 L 162,97 L 164,97 L 165,96 L 166,97 L 166,98 L 168,98 L 169,99 L 171,99 L 173,101 L 175,99 L 176,100 L 177,100 L 178,101 L 179,101 L 180,100 L 183,100 L 183,98 L 184,97 L 185,97 L 185,96 L 187,94 L 187,90 L 188,89 L 188,88 L 192,84 L 192,81 L 193,80 L 193,79 L 190,79 L 189,78 Z" fill="none" stroke="black" stroke-width="1"/>
</svg>