<svg xmlns="http://www.w3.org/2000/svg" width="299" height="181">
  <path d="M 94,27 L 94,32 L 93,33 L 91,33 L 91,34 L 90,35 L 86,35 L 86,37 L 85,38 L 84,38 L 80,42 L 80,44 L 79,45 L 78,45 L 74,49 L 74,50 L 73,51 L 73,55 L 74,55 L 78,59 L 79,59 L 80,60 L 80,61 L 83,61 L 85,63 L 89,63 L 90,64 L 93,64 L 94,65 L 96,65 L 96,64 L 98,62 L 97,61 L 97,56 L 98,55 L 99,55 L 100,54 L 101,54 L 102,53 L 103,53 L 106,50 L 107,50 L 108,49 L 108,48 L 110,46 L 108,46 L 107,45 L 107,43 L 106,43 L 105,42 L 105,40 L 104,40 L 103,39 L 103,35 L 101,35 L 100,34 L 100,29 L 99,29 L 98,28 L 98,27 Z" fill="none" stroke="black" stroke-width="1"/>
</svg>