<svg xmlns="http://www.w3.org/2000/svg" width="216" height="145">
  <path d="M 109,58 L 108,59 L 104,59 L 104,61 L 100,65 L 100,67 L 102,67 L 103,68 L 104,68 L 106,70 L 107,70 L 110,73 L 110,74 L 109,75 L 109,82 L 111,84 L 113,84 L 114,85 L 116,85 L 117,86 L 119,84 L 121,84 L 122,85 L 124,85 L 125,86 L 127,86 L 128,85 L 128,84 L 125,81 L 125,77 L 126,76 L 127,76 L 127,73 L 128,72 L 129,72 L 129,70 L 128,70 L 127,69 L 125,69 L 121,65 L 121,61 L 120,61 L 118,59 L 117,59 L 116,58 Z" fill="none" stroke="black" stroke-width="1"/>
</svg>