<svg xmlns="http://www.w3.org/2000/svg" width="1028" height="413">
  <path d="M 462,235 L 461,236 L 463,236 L 464,237 L 465,237 L 463,235 Z" fill="none" stroke="black" stroke-width="1"/>
  <path d="M 503,213 L 504,214 L 505,213 Z" fill="none" stroke="black" stroke-width="1"/>
  <path d="M 507,210 L 506,211 L 509,211 L 509,210 Z" fill="none" stroke="black" stroke-width="1"/>
  <path d="M 515,206 L 515,208 L 516,209 L 520,209 L 521,210 L 520,211 L 517,211 L 516,212 L 515,212 L 514,211 L 514,210 L 513,209 L 511,209 L 513,211 L 512,212 L 511,212 L 511,213 L 512,214 L 512,215 L 513,215 L 514,216 L 514,217 L 515,218 L 514,219 L 513,219 L 508,214 L 508,213 L 507,213 L 507,214 L 512,219 L 513,219 L 516,222 L 515,223 L 513,223 L 511,221 L 510,221 L 506,217 L 504,217 L 501,214 L 501,213 L 500,213 L 499,214 L 498,214 L 496,216 L 495,215 L 494,216 L 492,216 L 491,217 L 491,218 L 492,219 L 491,220 L 491,221 L 502,221 L 503,222 L 502,223 L 500,223 L 499,224 L 498,224 L 497,225 L 495,225 L 494,224 L 487,224 L 486,225 L 480,225 L 484,225 L 485,226 L 486,226 L 487,227 L 488,227 L 492,231 L 492,232 L 491,233 L 490,232 L 489,232 L 486,229 L 485,229 L 484,228 L 480,228 L 479,229 L 477,229 L 480,229 L 481,228 L 482,229 L 482,230 L 481,231 L 478,231 L 477,232 L 476,232 L 475,231 L 475,230 L 474,229 L 473,230 L 473,231 L 475,233 L 475,234 L 474,235 L 473,235 L 472,234 L 472,233 L 471,232 L 470,232 L 467,235 L 469,237 L 469,238 L 475,238 L 476,239 L 483,239 L 484,238 L 489,238 L 490,239 L 492,239 L 494,237 L 494,236 L 496,234 L 496,233 L 500,229 L 500,228 L 501,227 L 502,227 L 503,226 L 507,226 L 509,224 L 510,224 L 511,225 L 512,225 L 513,226 L 516,226 L 517,225 L 518,225 L 519,224 L 519,223 L 520,222 L 520,220 L 522,218 L 523,218 L 523,217 L 524,216 L 525,216 L 525,215 L 524,214 L 524,212 L 523,212 L 522,211 L 522,210 L 521,209 L 521,208 L 520,207 L 518,207 L 517,208 L 516,207 L 516,206 Z" fill="none" stroke="black" stroke-width="1"/>
  <path d="M 506,204 L 505,205 L 504,205 L 504,206 L 506,206 L 507,207 L 508,206 L 509,206 L 509,205 L 508,204 Z" fill="none" stroke="black" stroke-width="1"/>
</svg>