<svg xmlns="http://www.w3.org/2000/svg" width="340" height="393">
  <path d="M 123,265 L 123,269 L 122,270 L 121,270 L 121,271 L 120,272 L 114,272 L 113,271 L 112,272 L 112,273 L 111,274 L 111,279 L 110,280 L 109,280 L 108,281 L 106,281 L 105,280 L 104,280 L 104,282 L 101,285 L 101,288 L 100,289 L 100,294 L 99,295 L 99,297 L 98,298 L 98,301 L 99,301 L 101,303 L 103,301 L 105,301 L 106,302 L 107,302 L 107,301 L 108,300 L 109,300 L 110,299 L 111,299 L 112,298 L 115,298 L 116,299 L 121,299 L 122,300 L 123,300 L 125,298 L 125,295 L 126,294 L 126,292 L 127,291 L 130,291 L 130,289 L 131,288 L 131,285 L 133,283 L 135,283 L 136,284 L 137,283 L 139,283 L 137,281 L 137,279 L 138,278 L 138,277 L 139,276 L 139,273 L 137,271 L 137,269 L 136,269 L 135,268 L 133,268 L 132,269 L 128,269 L 125,266 L 125,265 Z" fill="none" stroke="black" stroke-width="1"/>
</svg>