<svg xmlns="http://www.w3.org/2000/svg" width="340" height="393">
  <path d="M 100,257 L 100,258 L 101,259 L 101,260 L 99,262 L 97,262 L 96,261 L 95,261 L 93,263 L 93,264 L 92,265 L 92,266 L 91,267 L 90,267 L 88,265 L 86,265 L 85,266 L 84,266 L 84,267 L 85,268 L 85,270 L 86,271 L 85,272 L 82,272 L 81,271 L 80,271 L 78,273 L 76,273 L 75,272 L 72,272 L 71,273 L 71,276 L 72,277 L 74,277 L 76,279 L 76,280 L 77,281 L 78,281 L 80,283 L 80,284 L 81,285 L 81,287 L 82,288 L 82,290 L 83,291 L 83,294 L 84,295 L 84,296 L 85,297 L 85,298 L 88,301 L 88,302 L 90,302 L 91,301 L 92,302 L 93,302 L 94,301 L 95,301 L 96,300 L 97,300 L 97,298 L 98,297 L 98,295 L 99,294 L 99,289 L 100,288 L 100,285 L 103,282 L 103,280 L 104,279 L 105,279 L 106,280 L 108,280 L 109,279 L 110,279 L 110,274 L 111,273 L 111,272 L 112,271 L 112,266 L 111,265 L 108,265 L 107,264 L 107,263 L 106,263 L 105,262 L 104,262 L 103,261 L 103,258 L 102,257 Z" fill="none" stroke="black" stroke-width="1"/>
</svg>