<svg xmlns="http://www.w3.org/2000/svg" width="340" height="393">
  <path d="M 109,245 L 106,248 L 105,248 L 104,247 L 99,247 L 98,248 L 97,248 L 95,250 L 94,250 L 92,248 L 91,248 L 90,247 L 88,247 L 86,249 L 87,250 L 86,251 L 84,251 L 83,252 L 83,254 L 84,254 L 85,255 L 85,256 L 84,257 L 84,260 L 85,261 L 86,261 L 87,262 L 87,264 L 88,264 L 90,266 L 91,266 L 91,265 L 92,264 L 92,263 L 95,260 L 96,260 L 97,261 L 99,261 L 100,260 L 100,259 L 99,258 L 99,257 L 100,256 L 102,256 L 104,258 L 104,261 L 105,261 L 106,262 L 107,262 L 108,263 L 108,264 L 110,264 L 110,262 L 111,261 L 111,260 L 112,259 L 112,258 L 113,257 L 113,252 L 112,251 L 112,250 L 111,249 L 111,246 L 110,245 Z" fill="none" stroke="black" stroke-width="1"/>
</svg>