<svg xmlns="http://www.w3.org/2000/svg" width="340" height="393">
  <path d="M 71,250 L 67,254 L 66,254 L 65,255 L 63,255 L 62,254 L 56,254 L 55,255 L 55,259 L 52,262 L 53,263 L 53,264 L 59,264 L 60,265 L 61,265 L 62,266 L 64,266 L 68,270 L 68,271 L 69,272 L 69,273 L 70,273 L 72,271 L 75,271 L 76,272 L 78,272 L 80,270 L 81,270 L 82,271 L 85,271 L 84,270 L 84,268 L 83,267 L 83,266 L 84,265 L 85,265 L 86,264 L 86,262 L 85,262 L 83,260 L 83,257 L 84,256 L 84,255 L 83,255 L 82,254 L 80,254 L 79,253 L 77,253 L 76,252 L 75,252 L 74,251 L 73,251 L 72,250 Z" fill="none" stroke="black" stroke-width="1"/>
</svg>