<svg xmlns="http://www.w3.org/2000/svg" width="340" height="393">
  <path d="M 141,251 L 141,252 L 139,254 L 138,253 L 138,252 L 133,252 L 132,253 L 131,253 L 130,252 L 129,253 L 129,257 L 127,259 L 127,260 L 126,261 L 126,266 L 128,268 L 132,268 L 133,267 L 135,267 L 136,268 L 137,268 L 138,269 L 138,271 L 139,272 L 143,272 L 144,273 L 147,273 L 148,272 L 152,272 L 152,270 L 151,269 L 150,269 L 149,268 L 149,267 L 150,266 L 150,263 L 151,262 L 151,260 L 150,259 L 150,255 L 149,255 L 148,254 L 147,254 L 146,253 L 143,253 L 142,252 L 142,251 Z" fill="none" stroke="black" stroke-width="1"/>
</svg>