<svg xmlns="http://www.w3.org/2000/svg" width="299" height="181">
  <path d="M 27,69 L 27,71 L 25,73 L 24,73 L 23,74 L 23,76 L 22,77 L 24,79 L 25,79 L 27,81 L 27,83 L 26,84 L 24,84 L 24,90 L 23,91 L 21,91 L 20,90 L 17,90 L 17,91 L 16,92 L 16,96 L 18,98 L 22,98 L 23,99 L 24,99 L 25,98 L 26,98 L 27,97 L 28,97 L 28,96 L 30,94 L 31,94 L 33,96 L 34,96 L 34,95 L 38,91 L 39,91 L 40,90 L 41,90 L 43,88 L 43,87 L 44,86 L 44,85 L 45,84 L 47,84 L 49,86 L 49,84 L 45,80 L 45,79 L 44,78 L 44,71 L 43,72 L 42,72 L 41,73 L 40,73 L 40,74 L 39,75 L 38,75 L 37,74 L 35,74 L 34,73 L 33,73 L 29,69 Z" fill="none" stroke="black" stroke-width="1"/>
</svg>