<svg xmlns="http://www.w3.org/2000/svg" width="340" height="393">
  <path d="M 170,244 L 169,245 L 168,245 L 167,246 L 165,246 L 164,247 L 162,247 L 161,248 L 161,249 L 160,250 L 159,250 L 158,249 L 156,249 L 156,251 L 152,255 L 151,255 L 151,259 L 152,260 L 152,262 L 151,263 L 151,266 L 150,267 L 150,268 L 151,268 L 153,270 L 153,271 L 156,271 L 157,270 L 159,270 L 160,269 L 163,269 L 164,268 L 164,266 L 167,263 L 168,263 L 169,264 L 171,264 L 172,263 L 173,263 L 174,264 L 176,264 L 179,261 L 181,261 L 181,260 L 183,258 L 185,258 L 186,257 L 186,255 L 185,256 L 182,256 L 181,255 L 181,254 L 179,252 L 179,248 L 177,250 L 176,250 L 175,249 L 175,248 L 173,248 L 172,247 L 172,246 L 171,245 L 171,244 Z" fill="none" stroke="black" stroke-width="1"/>
</svg>