<svg xmlns="http://www.w3.org/2000/svg" width="340" height="393">
  <path d="M 106,222 L 106,223 L 105,224 L 105,226 L 104,227 L 98,227 L 98,228 L 97,229 L 93,229 L 93,235 L 94,236 L 95,236 L 96,237 L 96,241 L 99,241 L 102,244 L 102,246 L 104,246 L 105,247 L 106,247 L 109,244 L 111,244 L 114,241 L 114,240 L 117,237 L 118,238 L 118,239 L 119,240 L 121,240 L 122,239 L 123,239 L 124,238 L 125,238 L 125,235 L 124,234 L 124,232 L 125,231 L 125,230 L 124,230 L 123,229 L 123,228 L 118,228 L 117,227 L 117,226 L 116,225 L 113,225 L 112,224 L 108,224 L 107,223 L 107,222 Z" fill="none" stroke="black" stroke-width="1"/>
</svg>