<svg xmlns="http://www.w3.org/2000/svg" width="340" height="393">
  <path d="M 76,215 L 74,217 L 74,218 L 73,219 L 73,224 L 74,225 L 73,226 L 73,227 L 71,229 L 71,232 L 70,233 L 70,250 L 71,249 L 72,249 L 73,250 L 74,250 L 75,251 L 76,251 L 77,252 L 79,252 L 80,253 L 82,253 L 82,252 L 84,250 L 86,250 L 85,249 L 88,246 L 90,246 L 91,247 L 92,247 L 94,249 L 95,249 L 97,247 L 98,247 L 99,246 L 101,246 L 101,244 L 99,242 L 96,242 L 95,241 L 95,237 L 94,237 L 92,235 L 92,229 L 91,229 L 90,228 L 90,227 L 88,227 L 87,226 L 87,222 L 86,221 L 86,220 L 84,218 L 83,218 L 82,217 L 80,217 L 79,216 L 78,216 L 77,215 Z" fill="none" stroke="black" stroke-width="1"/>
</svg>