<svg xmlns="http://www.w3.org/2000/svg" width="340" height="393">
  <path d="M 181,186 L 181,187 L 180,188 L 180,190 L 179,191 L 179,193 L 178,194 L 178,195 L 176,197 L 175,197 L 175,199 L 174,200 L 172,200 L 171,201 L 171,205 L 169,207 L 167,207 L 166,208 L 166,212 L 167,213 L 168,213 L 169,214 L 169,216 L 170,217 L 170,222 L 171,222 L 172,223 L 172,224 L 175,224 L 176,225 L 178,225 L 179,226 L 181,226 L 181,224 L 182,223 L 183,223 L 183,221 L 184,220 L 185,220 L 188,217 L 188,213 L 190,211 L 190,210 L 191,209 L 191,206 L 190,205 L 190,202 L 192,200 L 192,197 L 193,196 L 193,195 L 195,193 L 195,192 L 197,190 L 197,189 L 196,189 L 195,190 L 193,190 L 191,188 L 191,187 L 190,186 L 189,186 L 188,187 L 187,187 L 186,188 L 185,188 L 184,187 L 183,187 L 182,186 Z" fill="none" stroke="black" stroke-width="1"/>
</svg>