<svg xmlns="http://www.w3.org/2000/svg" width="340" height="393">
  <path d="M 159,140 L 158,141 L 158,143 L 159,144 L 159,150 L 158,151 L 158,153 L 160,155 L 160,156 L 165,156 L 166,157 L 169,157 L 170,158 L 170,159 L 169,160 L 169,161 L 170,161 L 171,162 L 171,163 L 170,164 L 170,165 L 171,166 L 172,166 L 174,168 L 174,169 L 175,170 L 175,172 L 176,173 L 176,175 L 175,176 L 175,177 L 176,178 L 176,179 L 175,180 L 175,181 L 180,181 L 181,182 L 181,185 L 182,185 L 183,186 L 184,186 L 185,187 L 186,187 L 187,186 L 188,186 L 189,185 L 190,185 L 192,187 L 192,188 L 193,189 L 195,189 L 196,188 L 197,188 L 198,187 L 199,187 L 200,188 L 201,188 L 203,190 L 204,189 L 205,189 L 204,188 L 206,186 L 207,186 L 208,185 L 209,185 L 209,183 L 205,183 L 204,182 L 204,180 L 202,178 L 201,178 L 200,177 L 199,177 L 198,176 L 198,174 L 197,173 L 197,171 L 195,171 L 193,169 L 193,168 L 191,166 L 189,166 L 186,163 L 186,162 L 183,159 L 183,158 L 182,157 L 182,156 L 180,154 L 179,154 L 178,153 L 174,153 L 173,152 L 173,151 L 171,149 L 170,149 L 169,148 L 167,148 L 166,149 L 165,149 L 161,145 L 161,142 Z" fill="none" stroke="black" stroke-width="1"/>
  <path d="M 162,134 L 161,135 L 163,137 L 162,138 L 161,138 L 167,138 L 166,137 L 165,137 L 164,138 L 163,137 L 163,135 Z" fill="none" stroke="black" stroke-width="1"/>
</svg>