<svg xmlns="http://www.w3.org/2000/svg" width="340" height="393">
  <path d="M 116,136 L 116,145 L 117,145 L 119,147 L 119,148 L 121,148 L 122,149 L 124,149 L 126,147 L 127,147 L 128,148 L 128,149 L 129,150 L 129,151 L 130,152 L 133,152 L 134,153 L 134,154 L 135,155 L 136,155 L 137,156 L 137,157 L 141,157 L 141,156 L 142,155 L 146,155 L 146,154 L 147,153 L 148,153 L 149,154 L 150,154 L 150,151 L 149,150 L 149,149 L 148,148 L 148,147 L 147,146 L 147,145 L 146,144 L 146,141 L 145,140 L 145,139 L 144,139 L 143,140 L 140,140 L 139,141 L 137,141 L 136,140 L 131,140 L 130,139 L 127,139 L 126,138 L 119,138 L 118,137 L 117,137 Z" fill="none" stroke="black" stroke-width="1"/>
</svg>