<svg xmlns="http://www.w3.org/2000/svg" width="340" height="393">
  <path d="M 147,154 L 147,155 L 146,156 L 145,156 L 145,157 L 146,158 L 146,161 L 145,162 L 145,164 L 146,165 L 146,166 L 147,167 L 147,168 L 148,169 L 148,172 L 147,173 L 147,176 L 148,177 L 150,177 L 151,178 L 155,178 L 155,176 L 156,175 L 158,175 L 159,176 L 160,176 L 162,178 L 166,178 L 167,179 L 169,179 L 169,178 L 171,176 L 174,176 L 175,175 L 175,173 L 174,172 L 174,170 L 173,169 L 173,168 L 172,167 L 171,167 L 169,165 L 169,164 L 170,163 L 170,162 L 169,162 L 168,161 L 168,160 L 169,159 L 169,158 L 166,158 L 165,157 L 160,157 L 159,156 L 159,155 L 158,154 L 157,154 L 156,155 L 153,155 L 152,156 L 151,156 L 150,155 L 149,155 L 148,154 Z" fill="none" stroke="black" stroke-width="1"/>
</svg>