<svg xmlns="http://www.w3.org/2000/svg" width="340" height="393">
  <path d="M 156,176 L 156,178 L 155,179 L 155,182 L 156,182 L 157,183 L 157,185 L 158,185 L 159,186 L 159,187 L 160,188 L 160,192 L 159,193 L 159,194 L 160,195 L 160,197 L 159,198 L 159,202 L 160,203 L 160,208 L 159,209 L 159,210 L 161,210 L 163,212 L 165,212 L 165,208 L 167,206 L 169,206 L 170,205 L 170,201 L 172,199 L 174,199 L 174,197 L 175,196 L 176,196 L 177,195 L 177,194 L 178,193 L 178,191 L 179,190 L 179,188 L 180,187 L 180,182 L 175,182 L 174,181 L 174,180 L 175,179 L 175,178 L 174,177 L 171,177 L 170,178 L 170,179 L 169,180 L 167,180 L 166,179 L 162,179 L 160,177 L 159,177 L 158,176 Z" fill="none" stroke="black" stroke-width="1"/>
</svg>