<svg xmlns="http://www.w3.org/2000/svg" width="340" height="393">
  <path d="M 141,176 L 140,177 L 140,183 L 139,184 L 136,184 L 136,194 L 138,194 L 139,195 L 139,197 L 140,198 L 141,198 L 142,199 L 143,199 L 144,200 L 146,200 L 146,199 L 147,198 L 148,198 L 149,199 L 150,199 L 152,197 L 153,197 L 154,198 L 156,198 L 157,197 L 159,197 L 159,195 L 158,194 L 158,193 L 159,192 L 159,188 L 158,187 L 158,186 L 157,186 L 156,185 L 156,183 L 155,183 L 154,182 L 154,179 L 151,179 L 150,178 L 148,178 L 147,177 L 144,177 L 143,176 Z" fill="none" stroke="black" stroke-width="1"/>
</svg>