<svg xmlns="http://www.w3.org/2000/svg" width="340" height="393">
  <path d="M 96,195 L 95,196 L 94,196 L 93,197 L 91,197 L 90,198 L 87,198 L 85,200 L 85,205 L 84,206 L 84,211 L 83,212 L 83,213 L 84,214 L 82,216 L 83,217 L 84,217 L 87,220 L 87,221 L 88,222 L 88,226 L 90,226 L 91,227 L 91,228 L 97,228 L 97,227 L 98,226 L 104,226 L 104,224 L 105,223 L 105,222 L 106,221 L 107,221 L 108,222 L 108,223 L 112,223 L 112,220 L 114,218 L 114,217 L 117,214 L 117,211 L 116,211 L 113,208 L 113,203 L 114,202 L 114,200 L 115,199 L 114,198 L 113,198 L 112,199 L 104,199 L 103,198 L 103,197 L 101,195 Z" fill="none" stroke="black" stroke-width="1"/>
</svg>