<svg xmlns="http://www.w3.org/2000/svg" width="299" height="181">
  <path d="M 68,74 L 68,75 L 64,79 L 63,79 L 61,77 L 60,77 L 60,78 L 59,79 L 55,79 L 55,80 L 54,81 L 47,81 L 50,84 L 50,90 L 49,91 L 49,93 L 50,93 L 51,94 L 52,94 L 53,95 L 54,95 L 55,96 L 55,97 L 56,97 L 57,98 L 58,98 L 59,97 L 60,97 L 61,98 L 62,97 L 63,97 L 64,96 L 65,96 L 67,94 L 68,95 L 69,94 L 71,94 L 72,93 L 73,93 L 74,94 L 75,94 L 75,91 L 78,88 L 78,84 L 80,82 L 80,77 L 78,75 L 78,74 L 77,74 L 76,75 L 71,75 L 70,74 Z" fill="none" stroke="black" stroke-width="1"/>
</svg>