<svg xmlns="http://www.w3.org/2000/svg" width="340" height="393">
  <path d="M 116,157 L 116,158 L 115,159 L 111,159 L 110,158 L 108,158 L 108,160 L 107,161 L 107,163 L 106,164 L 107,165 L 107,167 L 109,167 L 111,169 L 111,172 L 112,173 L 112,174 L 114,174 L 117,177 L 120,177 L 121,178 L 121,179 L 122,180 L 122,181 L 123,181 L 125,183 L 126,183 L 127,184 L 127,185 L 128,185 L 129,186 L 132,186 L 134,184 L 135,184 L 136,183 L 139,183 L 139,177 L 140,176 L 140,172 L 139,172 L 138,171 L 138,170 L 137,170 L 136,169 L 130,169 L 128,167 L 124,167 L 123,166 L 123,163 L 122,163 L 121,162 L 121,159 L 120,159 L 119,158 L 117,158 Z" fill="none" stroke="black" stroke-width="1"/>
</svg>