<svg xmlns="http://www.w3.org/2000/svg" width="340" height="393">
  <path d="M 106,168 L 106,170 L 105,171 L 105,172 L 104,173 L 104,174 L 103,175 L 103,177 L 102,178 L 102,180 L 101,181 L 102,182 L 102,184 L 101,185 L 98,185 L 97,186 L 95,186 L 92,189 L 92,191 L 91,192 L 89,192 L 88,193 L 88,197 L 90,197 L 91,196 L 93,196 L 94,195 L 95,195 L 96,194 L 101,194 L 104,197 L 104,198 L 112,198 L 114,196 L 114,193 L 116,191 L 121,191 L 123,189 L 124,189 L 125,188 L 125,187 L 126,186 L 126,184 L 125,184 L 123,182 L 122,182 L 121,181 L 121,180 L 120,179 L 120,178 L 117,178 L 114,175 L 112,175 L 111,174 L 111,173 L 110,172 L 110,169 L 109,168 Z" fill="none" stroke="black" stroke-width="1"/>
</svg>