<svg xmlns="http://www.w3.org/2000/svg" width="340" height="393">
  <path d="M 191,211 L 189,213 L 189,217 L 185,221 L 184,221 L 184,223 L 183,224 L 182,224 L 182,226 L 184,228 L 184,229 L 186,229 L 187,230 L 188,230 L 189,231 L 190,231 L 192,233 L 192,234 L 195,234 L 197,236 L 197,237 L 198,238 L 198,240 L 199,241 L 201,241 L 202,242 L 206,242 L 208,244 L 210,244 L 211,243 L 212,243 L 213,242 L 213,239 L 214,238 L 215,238 L 214,237 L 214,236 L 211,233 L 211,231 L 210,231 L 208,229 L 208,227 L 207,226 L 206,226 L 205,225 L 205,222 L 203,220 L 203,219 L 202,218 L 203,217 L 203,216 L 200,213 L 199,213 L 198,212 L 193,212 L 192,211 Z" fill="none" stroke="black" stroke-width="1"/>
</svg>