<svg xmlns="http://www.w3.org/2000/svg" width="467" height="484">
  <path d="M 217,57 L 216,58 L 211,58 L 211,60 L 210,61 L 210,64 L 209,65 L 208,65 L 207,66 L 206,66 L 206,69 L 207,70 L 205,72 L 203,72 L 202,73 L 201,73 L 201,75 L 200,76 L 203,79 L 204,79 L 205,80 L 207,80 L 210,83 L 210,84 L 211,85 L 211,84 L 213,82 L 213,81 L 214,80 L 215,80 L 216,79 L 216,78 L 220,74 L 220,73 L 221,72 L 220,71 L 220,63 L 221,62 L 221,58 L 220,58 L 219,57 Z" fill="none" stroke="black" stroke-width="1"/>
</svg>