<svg xmlns="http://www.w3.org/2000/svg" width="340" height="393">
  <path d="M 214,334 L 213,335 L 210,335 L 210,336 L 208,338 L 206,338 L 205,337 L 202,337 L 202,340 L 201,341 L 201,343 L 202,344 L 202,345 L 205,348 L 205,354 L 206,354 L 208,356 L 208,361 L 209,362 L 209,368 L 213,368 L 214,367 L 215,367 L 215,366 L 216,365 L 216,364 L 217,363 L 218,363 L 218,362 L 221,359 L 221,358 L 222,357 L 223,357 L 225,355 L 225,354 L 226,353 L 226,352 L 227,351 L 227,346 L 225,344 L 225,340 L 224,339 L 223,339 L 222,338 L 222,337 L 221,336 L 218,336 L 217,335 L 216,335 L 215,334 Z" fill="none" stroke="black" stroke-width="1"/>
</svg>