<svg xmlns="http://www.w3.org/2000/svg" width="340" height="393">
  <path d="M 254,250 L 254,253 L 253,254 L 253,255 L 249,259 L 249,260 L 247,262 L 246,262 L 245,263 L 241,263 L 239,261 L 237,261 L 237,262 L 238,263 L 238,264 L 239,264 L 240,265 L 240,267 L 241,268 L 241,269 L 244,272 L 244,273 L 245,274 L 245,275 L 248,278 L 248,281 L 250,283 L 250,285 L 251,285 L 253,287 L 256,287 L 257,286 L 258,286 L 258,285 L 259,284 L 262,284 L 263,283 L 264,283 L 264,282 L 265,281 L 266,281 L 266,278 L 269,275 L 275,275 L 276,274 L 276,272 L 277,271 L 277,270 L 280,267 L 281,267 L 282,266 L 283,266 L 283,263 L 284,262 L 284,260 L 285,259 L 285,258 L 286,257 L 286,256 L 283,256 L 282,255 L 278,255 L 277,254 L 274,254 L 272,252 L 269,252 L 268,253 L 260,253 L 258,251 L 256,251 L 255,250 Z" fill="none" stroke="black" stroke-width="1"/>
</svg>