<svg xmlns="http://www.w3.org/2000/svg" width="340" height="393">
  <path d="M 187,285 L 185,287 L 183,287 L 182,288 L 182,289 L 181,290 L 174,290 L 174,294 L 175,295 L 176,295 L 177,296 L 178,296 L 180,298 L 180,301 L 179,302 L 177,302 L 177,306 L 180,309 L 180,310 L 183,313 L 183,314 L 184,315 L 184,317 L 185,318 L 187,318 L 191,322 L 191,323 L 192,322 L 197,322 L 198,323 L 201,320 L 204,320 L 205,319 L 206,319 L 207,318 L 207,317 L 211,313 L 212,313 L 213,312 L 214,312 L 215,311 L 215,309 L 213,307 L 213,306 L 211,304 L 211,302 L 209,300 L 208,300 L 207,299 L 203,299 L 202,298 L 200,298 L 199,297 L 198,297 L 197,296 L 196,296 L 192,292 L 192,291 L 191,291 L 189,289 L 189,286 L 188,286 Z" fill="none" stroke="black" stroke-width="1"/>
</svg>