<svg xmlns="http://www.w3.org/2000/svg" width="340" height="393">
  <path d="M 244,304 L 242,306 L 242,307 L 241,308 L 240,308 L 239,307 L 233,307 L 233,308 L 232,309 L 232,311 L 231,312 L 231,319 L 230,320 L 230,323 L 229,324 L 229,325 L 228,326 L 228,327 L 227,328 L 227,331 L 228,332 L 228,334 L 227,335 L 225,335 L 224,336 L 222,336 L 223,337 L 223,338 L 224,338 L 226,340 L 226,344 L 227,345 L 228,345 L 229,344 L 231,344 L 232,343 L 233,343 L 237,339 L 242,339 L 244,337 L 244,336 L 245,335 L 246,335 L 247,334 L 248,334 L 249,335 L 249,336 L 250,336 L 252,338 L 254,336 L 254,335 L 257,332 L 257,322 L 256,322 L 254,320 L 254,317 L 253,316 L 253,312 L 254,311 L 254,309 L 253,310 L 251,310 L 250,309 L 247,309 L 246,308 L 246,307 L 244,305 Z" fill="none" stroke="black" stroke-width="1"/>
</svg>