<svg xmlns="http://www.w3.org/2000/svg" width="299" height="181">
  <path d="M 45,93 L 45,94 L 42,97 L 42,100 L 41,101 L 41,103 L 39,105 L 39,107 L 38,108 L 38,109 L 39,109 L 41,111 L 41,112 L 40,113 L 40,114 L 39,115 L 39,116 L 38,117 L 38,118 L 39,119 L 41,119 L 44,122 L 46,122 L 47,121 L 48,122 L 48,123 L 50,123 L 51,122 L 52,123 L 53,123 L 53,122 L 54,121 L 55,121 L 56,120 L 56,118 L 57,117 L 58,117 L 58,113 L 57,112 L 57,111 L 58,110 L 58,109 L 59,108 L 61,108 L 62,107 L 65,107 L 66,106 L 67,106 L 68,107 L 69,107 L 70,106 L 71,106 L 72,105 L 79,105 L 81,103 L 81,102 L 79,100 L 79,99 L 78,98 L 78,97 L 76,95 L 74,95 L 73,94 L 72,94 L 71,95 L 69,95 L 68,96 L 67,95 L 65,97 L 64,97 L 63,98 L 62,98 L 61,99 L 60,98 L 59,98 L 58,99 L 57,99 L 56,98 L 55,98 L 54,97 L 54,96 L 53,96 L 52,95 L 51,95 L 50,94 L 49,94 L 48,93 Z" fill="none" stroke="black" stroke-width="1"/>
</svg>