<svg xmlns="http://www.w3.org/2000/svg" width="340" height="393">
  <path d="M 224,309 L 223,310 L 221,310 L 220,311 L 218,311 L 217,312 L 215,312 L 214,313 L 213,313 L 212,314 L 211,314 L 208,317 L 208,318 L 206,320 L 205,320 L 204,321 L 201,321 L 198,324 L 197,323 L 192,323 L 190,325 L 189,325 L 188,326 L 188,331 L 187,332 L 187,337 L 188,338 L 188,340 L 189,341 L 189,342 L 191,344 L 191,346 L 192,346 L 193,345 L 194,345 L 195,344 L 196,344 L 197,343 L 198,343 L 201,340 L 201,337 L 202,336 L 205,336 L 206,337 L 208,337 L 209,336 L 209,335 L 210,334 L 213,334 L 214,333 L 215,333 L 216,334 L 217,334 L 218,335 L 224,335 L 225,334 L 227,334 L 227,332 L 226,331 L 226,328 L 227,327 L 227,326 L 228,325 L 228,324 L 229,323 L 229,320 L 230,319 L 230,312 L 231,311 L 231,310 L 227,310 L 226,309 Z" fill="none" stroke="black" stroke-width="1"/>
</svg>