<svg xmlns="http://www.w3.org/2000/svg" width="340" height="393">
  <path d="M 301,281 L 300,282 L 298,282 L 298,283 L 297,284 L 295,284 L 294,285 L 294,286 L 290,290 L 289,290 L 289,292 L 288,293 L 287,293 L 286,294 L 285,294 L 284,295 L 285,296 L 285,297 L 286,298 L 286,299 L 287,300 L 287,304 L 288,304 L 289,303 L 292,303 L 293,304 L 296,301 L 296,300 L 298,298 L 298,297 L 300,295 L 300,294 L 301,293 L 301,292 L 302,291 L 302,290 L 303,289 L 303,285 L 304,284 L 304,282 L 305,281 Z" fill="none" stroke="black" stroke-width="1"/>
</svg>