<svg xmlns="http://www.w3.org/2000/svg" width="340" height="393">
  <path d="M 282,267 L 281,268 L 280,268 L 278,270 L 278,271 L 277,272 L 277,274 L 275,276 L 269,276 L 267,278 L 267,281 L 266,282 L 265,282 L 265,283 L 264,284 L 263,284 L 263,286 L 264,287 L 264,289 L 265,290 L 267,290 L 268,291 L 270,291 L 271,292 L 278,292 L 279,293 L 280,293 L 281,294 L 284,294 L 285,293 L 286,293 L 287,292 L 288,292 L 288,290 L 289,289 L 290,289 L 293,286 L 293,285 L 295,283 L 297,283 L 297,279 L 296,278 L 296,274 L 295,273 L 295,269 L 294,268 L 292,268 L 291,269 L 288,269 L 287,268 L 284,268 L 283,267 Z" fill="none" stroke="black" stroke-width="1"/>
</svg>