<svg xmlns="http://www.w3.org/2000/svg" width="340" height="393">
  <path d="M 259,285 L 259,286 L 258,287 L 257,287 L 256,288 L 255,288 L 255,289 L 253,291 L 250,291 L 249,292 L 248,292 L 246,294 L 246,299 L 245,300 L 245,305 L 247,307 L 247,308 L 250,308 L 251,309 L 253,309 L 254,308 L 255,309 L 255,311 L 254,312 L 254,316 L 255,317 L 255,320 L 256,321 L 257,321 L 258,322 L 258,328 L 259,328 L 261,326 L 263,326 L 264,325 L 265,325 L 269,321 L 270,321 L 270,320 L 269,319 L 269,316 L 271,314 L 273,314 L 273,312 L 274,311 L 274,310 L 277,307 L 277,306 L 278,305 L 283,305 L 284,304 L 286,304 L 286,300 L 285,299 L 285,298 L 284,297 L 284,296 L 283,295 L 281,295 L 280,294 L 279,294 L 278,293 L 271,293 L 270,292 L 268,292 L 267,291 L 265,291 L 263,289 L 263,287 L 262,286 L 262,285 Z" fill="none" stroke="black" stroke-width="1"/>
</svg>