<svg xmlns="http://www.w3.org/2000/svg" width="340" height="393">
  <path d="M 317,204 L 316,205 L 311,205 L 311,206 L 310,207 L 308,207 L 307,208 L 304,208 L 303,209 L 300,209 L 299,208 L 298,208 L 297,207 L 297,211 L 298,212 L 298,220 L 297,221 L 297,224 L 298,225 L 300,225 L 301,226 L 302,226 L 303,227 L 307,227 L 308,226 L 315,226 L 315,222 L 316,221 L 316,216 L 317,215 L 317,213 L 318,212 L 318,211 L 319,210 L 319,207 L 318,206 L 318,204 Z" fill="none" stroke="black" stroke-width="1"/>
</svg>