<svg xmlns="http://www.w3.org/2000/svg" width="340" height="393">
  <path d="M 130,106 L 128,108 L 128,112 L 127,113 L 127,114 L 126,115 L 126,116 L 124,118 L 122,118 L 121,117 L 120,117 L 120,119 L 119,120 L 119,122 L 118,123 L 118,125 L 117,126 L 117,130 L 116,131 L 116,135 L 117,136 L 118,136 L 119,137 L 126,137 L 127,138 L 130,138 L 131,139 L 136,139 L 137,140 L 139,140 L 140,139 L 143,139 L 144,138 L 145,138 L 145,136 L 144,135 L 144,133 L 143,133 L 142,132 L 140,132 L 139,131 L 139,129 L 140,128 L 140,119 L 139,118 L 139,116 L 138,115 L 138,113 L 137,112 L 136,112 L 135,113 L 134,112 L 134,110 L 133,109 L 133,107 L 132,107 L 131,106 Z" fill="none" stroke="black" stroke-width="1"/>
</svg>