<svg xmlns="http://www.w3.org/2000/svg" width="340" height="393">
  <path d="M 337,220 L 337,221 L 338,222 L 339,222 L 339,221 L 338,221 Z" fill="none" stroke="black" stroke-width="1"/>
  <path d="M 328,197 L 327,198 L 326,198 L 326,200 L 324,202 L 323,202 L 322,203 L 321,203 L 320,204 L 319,204 L 319,206 L 320,207 L 320,210 L 319,211 L 319,212 L 318,213 L 318,215 L 317,216 L 317,221 L 316,222 L 316,226 L 317,227 L 318,227 L 320,229 L 321,229 L 322,230 L 327,230 L 328,231 L 329,231 L 330,232 L 330,233 L 331,232 L 331,223 L 332,222 L 333,222 L 334,221 L 334,220 L 335,219 L 335,210 L 334,209 L 334,205 L 335,204 L 335,203 L 337,201 L 337,199 L 335,199 L 334,198 L 332,198 L 331,197 Z" fill="none" stroke="black" stroke-width="1"/>
</svg>