<svg xmlns="http://www.w3.org/2000/svg" width="340" height="393">
  <path d="M 295,207 L 294,208 L 292,208 L 291,209 L 290,209 L 289,210 L 284,210 L 283,211 L 281,211 L 282,212 L 282,216 L 279,219 L 280,220 L 282,220 L 283,221 L 283,223 L 284,224 L 284,225 L 283,226 L 281,226 L 281,227 L 280,228 L 280,229 L 281,229 L 282,230 L 283,230 L 284,231 L 288,231 L 289,232 L 291,232 L 292,233 L 294,233 L 295,234 L 298,234 L 298,231 L 297,230 L 297,225 L 296,224 L 296,221 L 297,220 L 297,212 L 296,211 L 296,207 Z" fill="none" stroke="black" stroke-width="1"/>
</svg>