<svg xmlns="http://www.w3.org/2000/svg" width="299" height="181">
  <path d="M 122,99 L 120,101 L 119,101 L 119,102 L 118,103 L 118,105 L 117,106 L 117,108 L 119,110 L 119,116 L 120,117 L 120,120 L 122,122 L 123,122 L 126,125 L 126,127 L 127,127 L 128,128 L 130,128 L 131,129 L 139,129 L 140,130 L 141,129 L 142,129 L 143,128 L 142,127 L 142,126 L 140,126 L 139,125 L 139,124 L 138,124 L 137,123 L 137,122 L 136,121 L 136,102 L 133,102 L 132,101 L 132,99 L 126,99 L 125,100 L 123,100 Z" fill="none" stroke="black" stroke-width="1"/>
</svg>