<svg xmlns="http://www.w3.org/2000/svg" width="340" height="393">
  <path d="M 155,211 L 155,215 L 154,216 L 154,217 L 153,218 L 151,218 L 150,217 L 148,217 L 147,218 L 146,218 L 145,219 L 145,223 L 147,225 L 147,226 L 148,227 L 149,226 L 150,227 L 150,228 L 151,229 L 153,227 L 154,228 L 154,231 L 153,232 L 153,233 L 154,234 L 155,234 L 156,235 L 156,236 L 154,238 L 153,238 L 152,239 L 152,240 L 154,242 L 154,243 L 155,244 L 155,246 L 156,247 L 156,248 L 158,248 L 159,249 L 160,249 L 160,248 L 162,246 L 164,246 L 164,242 L 163,241 L 163,238 L 164,237 L 165,237 L 165,236 L 166,235 L 166,232 L 167,231 L 169,231 L 169,229 L 170,228 L 171,228 L 171,223 L 170,223 L 169,222 L 169,217 L 168,216 L 168,214 L 167,214 L 166,213 L 163,213 L 161,211 L 157,211 L 156,212 Z" fill="none" stroke="black" stroke-width="1"/>
</svg>