<svg xmlns="http://www.w3.org/2000/svg" width="340" height="393">
  <path d="M 278,231 L 277,232 L 275,232 L 274,233 L 270,233 L 269,234 L 264,234 L 263,235 L 258,235 L 255,238 L 254,238 L 254,239 L 253,240 L 251,240 L 251,241 L 252,242 L 252,244 L 253,245 L 253,247 L 254,248 L 254,249 L 255,249 L 256,250 L 258,250 L 260,252 L 268,252 L 269,251 L 272,251 L 274,253 L 277,253 L 278,254 L 282,254 L 283,255 L 287,255 L 290,252 L 290,251 L 291,250 L 291,249 L 292,248 L 292,247 L 296,243 L 296,242 L 297,241 L 297,236 L 298,235 L 295,235 L 294,234 L 292,234 L 291,233 L 289,233 L 288,232 L 284,232 L 283,231 Z" fill="none" stroke="black" stroke-width="1"/>
</svg>