<svg xmlns="http://www.w3.org/2000/svg" width="340" height="393">
  <path d="M 68,103 L 68,105 L 66,107 L 66,108 L 65,109 L 65,114 L 64,115 L 64,116 L 63,117 L 63,119 L 64,120 L 64,122 L 65,122 L 66,123 L 67,123 L 68,124 L 69,124 L 73,128 L 73,131 L 76,131 L 77,130 L 78,130 L 79,129 L 81,129 L 82,128 L 83,128 L 84,127 L 86,127 L 87,126 L 91,126 L 89,124 L 89,123 L 86,120 L 86,119 L 85,118 L 85,117 L 84,116 L 84,115 L 83,114 L 83,113 L 82,112 L 81,112 L 79,110 L 78,110 L 77,109 L 75,109 L 74,108 L 73,108 L 71,106 L 71,105 L 70,104 L 70,103 Z" fill="none" stroke="black" stroke-width="1"/>
</svg>