<svg xmlns="http://www.w3.org/2000/svg" width="340" height="393">
  <path d="M 60,119 L 59,120 L 57,120 L 56,121 L 55,121 L 54,122 L 50,122 L 50,123 L 48,125 L 48,126 L 46,128 L 46,130 L 45,131 L 45,143 L 44,144 L 44,146 L 45,146 L 46,147 L 47,147 L 50,144 L 51,144 L 52,143 L 53,143 L 55,141 L 59,141 L 60,140 L 63,140 L 65,138 L 65,137 L 66,136 L 70,136 L 71,135 L 72,135 L 72,128 L 69,125 L 68,125 L 67,124 L 66,124 L 65,123 L 64,123 L 63,122 L 63,120 L 62,119 Z" fill="none" stroke="black" stroke-width="1"/>
</svg>