<svg xmlns="http://www.w3.org/2000/svg" width="340" height="393">
  <path d="M 62,174 L 61,175 L 56,175 L 55,176 L 52,176 L 51,177 L 49,177 L 49,178 L 48,179 L 48,183 L 49,184 L 49,188 L 48,189 L 48,198 L 49,199 L 48,200 L 48,201 L 47,202 L 47,203 L 48,203 L 49,204 L 49,205 L 51,207 L 51,208 L 55,208 L 56,207 L 59,207 L 60,206 L 62,206 L 64,204 L 65,204 L 66,203 L 74,203 L 73,202 L 73,201 L 72,200 L 72,189 L 69,186 L 69,182 L 66,179 L 66,176 L 64,174 Z" fill="none" stroke="black" stroke-width="1"/>
</svg>