<svg xmlns="http://www.w3.org/2000/svg" width="690" height="339">
  <path d="M 662,239 L 662,248 L 663,249 L 663,250 L 664,251 L 664,252 L 665,253 L 665,255 L 668,255 L 671,258 L 671,263 L 672,264 L 672,273 L 671,274 L 671,275 L 670,276 L 670,279 L 674,283 L 675,283 L 676,284 L 683,284 L 684,283 L 686,283 L 687,282 L 689,282 L 689,280 L 688,279 L 688,275 L 689,274 L 689,273 L 686,270 L 686,265 L 685,264 L 685,261 L 684,261 L 683,260 L 683,259 L 682,258 L 682,255 L 681,255 L 680,254 L 680,253 L 679,252 L 679,247 L 678,246 L 678,245 L 674,241 L 672,241 L 671,240 L 670,240 L 669,239 Z" fill="none" stroke="black" stroke-width="1"/>
</svg>