<svg xmlns="http://www.w3.org/2000/svg" width="1028" height="413">
  <path d="M 775,201 L 774,202 L 774,203 L 773,204 L 773,207 L 771,209 L 771,210 L 770,211 L 770,212 L 768,214 L 768,219 L 767,220 L 767,223 L 768,223 L 769,224 L 769,225 L 770,226 L 775,226 L 776,227 L 777,227 L 778,228 L 774,232 L 774,234 L 773,235 L 773,237 L 772,238 L 772,239 L 771,240 L 771,241 L 770,242 L 769,242 L 768,243 L 768,245 L 769,246 L 769,248 L 767,250 L 766,249 L 766,248 L 765,247 L 764,247 L 762,249 L 762,250 L 763,251 L 763,252 L 764,252 L 765,253 L 765,255 L 766,256 L 766,257 L 765,258 L 765,259 L 764,260 L 762,260 L 761,259 L 760,259 L 760,260 L 764,264 L 764,265 L 763,266 L 761,266 L 758,263 L 757,263 L 756,264 L 755,264 L 754,263 L 753,263 L 750,266 L 750,267 L 749,268 L 749,270 L 751,272 L 754,272 L 755,271 L 756,271 L 757,272 L 762,272 L 763,273 L 763,274 L 764,274 L 765,273 L 765,272 L 766,271 L 772,271 L 773,270 L 773,268 L 774,267 L 775,267 L 777,269 L 778,269 L 778,267 L 779,266 L 781,266 L 782,265 L 784,265 L 785,266 L 786,266 L 787,265 L 790,265 L 790,264 L 791,263 L 795,263 L 795,259 L 793,257 L 792,257 L 791,256 L 790,256 L 789,255 L 789,253 L 788,253 L 786,251 L 786,249 L 787,248 L 787,245 L 786,244 L 786,242 L 785,241 L 785,239 L 787,237 L 788,237 L 790,239 L 790,238 L 792,236 L 792,234 L 793,233 L 792,233 L 792,234 L 791,235 L 790,235 L 788,233 L 789,232 L 788,231 L 789,230 L 796,230 L 797,229 L 798,229 L 798,228 L 797,228 L 796,227 L 796,226 L 797,225 L 795,225 L 794,224 L 795,223 L 795,221 L 796,220 L 798,222 L 799,222 L 800,223 L 800,224 L 801,225 L 801,226 L 802,227 L 801,228 L 801,229 L 802,229 L 803,228 L 803,225 L 802,224 L 802,223 L 799,220 L 799,219 L 796,216 L 795,216 L 794,215 L 794,214 L 793,213 L 793,210 L 792,209 L 792,207 L 791,206 L 791,205 L 786,205 L 784,203 L 780,203 L 779,202 L 778,202 L 777,201 Z" fill="none" stroke="black" stroke-width="1"/>
</svg>