<svg xmlns="http://www.w3.org/2000/svg" width="299" height="181">
  <path d="M 96,132 L 93,135 L 92,135 L 90,137 L 85,137 L 84,138 L 82,138 L 81,139 L 79,139 L 78,140 L 78,142 L 79,143 L 79,147 L 77,149 L 76,149 L 75,150 L 73,150 L 72,149 L 71,149 L 71,153 L 72,154 L 72,155 L 73,156 L 75,156 L 77,158 L 78,158 L 78,157 L 79,156 L 84,156 L 85,155 L 90,155 L 91,156 L 91,157 L 92,157 L 93,158 L 93,159 L 96,159 L 97,160 L 97,161 L 98,162 L 99,162 L 101,164 L 105,164 L 106,165 L 106,161 L 105,160 L 105,155 L 104,154 L 104,151 L 101,151 L 99,149 L 99,144 L 100,143 L 100,141 L 101,140 L 101,137 L 103,135 L 103,134 L 102,133 L 102,132 L 101,132 L 100,133 L 98,133 L 97,132 Z" fill="none" stroke="black" stroke-width="1"/>
</svg>