<svg xmlns="http://www.w3.org/2000/svg" width="690" height="339">
  <path d="M 593,216 L 592,217 L 583,217 L 582,218 L 581,218 L 581,220 L 580,221 L 580,224 L 579,225 L 579,226 L 578,227 L 578,230 L 577,231 L 577,232 L 579,234 L 579,235 L 580,236 L 580,237 L 581,238 L 581,239 L 582,240 L 582,241 L 583,242 L 583,245 L 584,246 L 584,247 L 586,249 L 586,250 L 587,250 L 589,252 L 590,252 L 592,254 L 594,254 L 596,252 L 597,252 L 598,251 L 599,251 L 600,250 L 601,250 L 602,249 L 612,249 L 613,248 L 618,248 L 619,247 L 620,247 L 621,246 L 623,246 L 625,244 L 626,244 L 627,243 L 628,243 L 629,242 L 629,241 L 628,240 L 628,238 L 630,236 L 631,236 L 632,235 L 633,235 L 635,233 L 636,233 L 636,232 L 635,232 L 630,227 L 628,227 L 627,226 L 624,226 L 621,223 L 620,223 L 619,222 L 619,221 L 618,220 L 618,219 L 617,219 L 616,218 L 615,218 L 614,217 L 609,217 L 608,216 Z" fill="none" stroke="black" stroke-width="1"/>
</svg>