<svg xmlns="http://www.w3.org/2000/svg" width="690" height="339">
  <path d="M 629,243 L 628,244 L 627,244 L 626,245 L 625,245 L 623,247 L 621,247 L 620,248 L 619,248 L 618,249 L 613,249 L 612,250 L 602,250 L 601,251 L 600,251 L 599,252 L 598,252 L 597,253 L 596,253 L 594,255 L 593,255 L 593,256 L 592,257 L 592,258 L 591,259 L 591,263 L 592,264 L 592,265 L 593,266 L 593,268 L 594,269 L 595,269 L 596,270 L 596,274 L 597,275 L 597,284 L 598,285 L 598,286 L 599,286 L 600,287 L 600,288 L 602,290 L 602,291 L 603,292 L 604,292 L 605,293 L 605,302 L 604,303 L 604,309 L 620,309 L 622,307 L 623,307 L 626,304 L 631,304 L 631,303 L 634,300 L 635,300 L 636,299 L 636,297 L 637,296 L 637,293 L 638,292 L 638,289 L 639,288 L 639,286 L 641,284 L 641,282 L 640,281 L 639,281 L 638,280 L 638,271 L 637,270 L 637,269 L 636,268 L 636,265 L 634,263 L 634,259 L 633,258 L 633,254 L 632,253 L 632,251 L 631,250 L 631,244 L 630,243 Z" fill="none" stroke="black" stroke-width="1"/>
</svg>