<svg xmlns="http://www.w3.org/2000/svg" width="491" height="213">
  <path d="M 344,56 L 344,58 L 343,59 L 342,59 L 342,60 L 343,60 L 344,59 L 344,57 L 345,56 Z" fill="none" stroke="black" stroke-width="1"/>
  <path d="M 325,40 L 327,40 L 328,41 L 327,42 L 327,45 L 326,46 L 324,44 L 324,43 L 323,44 L 322,43 L 322,51 L 323,52 L 323,53 L 324,54 L 324,59 L 323,60 L 323,61 L 322,62 L 322,65 L 323,65 L 324,66 L 330,66 L 333,69 L 334,69 L 335,70 L 335,71 L 337,73 L 341,73 L 342,72 L 344,72 L 347,75 L 347,76 L 348,77 L 349,76 L 349,75 L 351,73 L 352,73 L 353,72 L 355,72 L 355,71 L 356,70 L 358,70 L 358,68 L 361,65 L 360,65 L 359,64 L 359,63 L 358,62 L 356,62 L 355,61 L 353,61 L 351,63 L 349,63 L 348,62 L 344,62 L 343,63 L 343,64 L 342,65 L 341,64 L 339,64 L 338,65 L 337,64 L 336,64 L 334,62 L 335,61 L 336,61 L 337,62 L 338,62 L 339,61 L 339,58 L 341,56 L 341,54 L 344,51 L 346,51 L 346,49 L 344,47 L 343,47 L 342,46 L 341,46 L 340,47 L 338,45 L 337,45 L 336,44 L 336,43 L 334,41 L 333,41 L 334,41 L 335,42 L 334,43 L 332,43 L 332,44 L 331,45 L 330,44 L 330,43 L 327,40 Z" fill="none" stroke="black" stroke-width="1"/>
</svg>