<svg xmlns="http://www.w3.org/2000/svg" width="491" height="213">
  <path d="M 327,67 L 326,68 L 326,69 L 325,70 L 325,71 L 323,73 L 319,73 L 319,74 L 318,75 L 318,77 L 317,78 L 317,79 L 316,80 L 316,86 L 317,87 L 317,90 L 318,91 L 318,97 L 320,99 L 320,100 L 321,101 L 321,105 L 322,106 L 322,108 L 321,109 L 321,112 L 322,113 L 322,115 L 323,116 L 323,117 L 324,118 L 324,120 L 323,121 L 323,123 L 324,124 L 324,125 L 327,128 L 327,130 L 329,132 L 330,132 L 332,130 L 333,130 L 334,129 L 335,129 L 336,128 L 338,128 L 339,127 L 345,127 L 347,125 L 348,125 L 349,124 L 352,124 L 353,123 L 352,122 L 352,120 L 350,118 L 350,117 L 348,117 L 345,114 L 344,114 L 343,113 L 343,112 L 340,109 L 340,108 L 338,106 L 338,104 L 337,103 L 340,100 L 340,93 L 341,92 L 342,92 L 343,91 L 346,91 L 347,90 L 348,90 L 350,88 L 353,88 L 353,86 L 352,86 L 351,85 L 350,85 L 349,84 L 349,82 L 348,81 L 348,78 L 346,76 L 346,75 L 344,73 L 342,73 L 341,74 L 337,74 L 334,71 L 334,70 L 333,70 L 330,67 Z" fill="none" stroke="black" stroke-width="1"/>
</svg>