<svg xmlns="http://www.w3.org/2000/svg" width="491" height="213">
  <path d="M 177,0 L 175,2 L 174,2 L 174,3 L 172,5 L 171,5 L 170,4 L 171,3 L 169,3 L 169,6 L 168,7 L 168,8 L 167,9 L 166,9 L 164,11 L 161,11 L 160,12 L 159,12 L 157,14 L 156,14 L 152,18 L 152,22 L 153,22 L 154,23 L 157,23 L 158,24 L 159,24 L 160,25 L 160,24 L 161,23 L 161,22 L 164,19 L 166,19 L 167,18 L 168,18 L 168,16 L 170,14 L 171,14 L 173,12 L 175,12 L 176,11 L 179,11 L 180,10 L 181,10 L 181,9 L 183,7 L 184,7 L 185,6 L 184,5 L 184,3 L 183,2 L 182,2 L 181,1 L 180,1 L 179,0 Z" fill="none" stroke="black" stroke-width="1"/>
</svg>