<svg xmlns="http://www.w3.org/2000/svg" width="491" height="213">
  <path d="M 202,4 L 201,5 L 200,5 L 200,6 L 199,7 L 199,13 L 201,13 L 202,12 L 205,12 L 206,13 L 206,14 L 207,15 L 205,17 L 203,15 L 201,17 L 200,17 L 199,18 L 197,18 L 196,19 L 195,19 L 194,20 L 189,20 L 188,21 L 188,25 L 189,26 L 189,28 L 191,30 L 193,30 L 193,29 L 194,28 L 195,28 L 196,27 L 202,27 L 203,26 L 211,26 L 212,27 L 218,27 L 219,28 L 220,28 L 222,30 L 224,30 L 225,29 L 229,29 L 229,28 L 228,27 L 228,26 L 229,25 L 229,24 L 228,23 L 228,22 L 225,19 L 224,19 L 223,18 L 223,17 L 221,17 L 220,16 L 216,16 L 215,15 L 213,15 L 212,16 L 211,15 L 210,15 L 209,16 L 208,16 L 207,15 L 207,14 L 206,13 L 206,12 L 205,11 L 205,7 L 204,6 L 204,5 L 203,5 Z" fill="none" stroke="black" stroke-width="1"/>
</svg>