<svg xmlns="http://www.w3.org/2000/svg" width="491" height="213">
  <path d="M 238,43 L 238,45 L 234,49 L 233,49 L 232,50 L 232,51 L 233,52 L 233,54 L 232,55 L 232,57 L 233,58 L 233,63 L 234,63 L 235,64 L 235,65 L 238,68 L 239,68 L 240,69 L 240,70 L 241,71 L 241,72 L 243,72 L 245,74 L 248,74 L 249,75 L 254,75 L 255,74 L 258,74 L 258,71 L 260,69 L 260,68 L 262,66 L 262,65 L 263,64 L 262,63 L 262,58 L 261,58 L 258,55 L 258,52 L 257,51 L 256,51 L 255,50 L 251,50 L 248,47 L 247,47 L 246,46 L 245,46 L 244,45 L 242,45 L 241,44 L 239,44 Z" fill="none" stroke="black" stroke-width="1"/>
</svg>