<svg xmlns="http://www.w3.org/2000/svg" width="491" height="213">
  <path d="M 239,69 L 239,71 L 234,76 L 233,75 L 227,75 L 226,76 L 221,76 L 217,80 L 217,81 L 216,82 L 212,82 L 210,84 L 207,84 L 207,85 L 206,86 L 206,87 L 207,88 L 207,89 L 206,90 L 205,90 L 204,89 L 204,90 L 203,91 L 206,94 L 206,95 L 208,97 L 208,98 L 211,101 L 215,101 L 216,100 L 221,100 L 222,101 L 229,101 L 230,100 L 235,100 L 236,99 L 239,99 L 240,100 L 242,100 L 242,99 L 243,98 L 245,98 L 245,97 L 246,96 L 247,96 L 247,92 L 248,91 L 249,91 L 249,87 L 248,86 L 248,85 L 249,84 L 252,84 L 253,83 L 256,83 L 256,79 L 257,78 L 258,78 L 258,75 L 255,75 L 254,76 L 249,76 L 248,75 L 245,75 L 243,73 L 241,73 L 240,72 L 240,71 L 239,70 Z" fill="none" stroke="black" stroke-width="1"/>
</svg>