<svg xmlns="http://www.w3.org/2000/svg" width="315" height="148">
  <path d="M 9,71 L 6,74 L 4,74 L 4,78 L 3,79 L 3,80 L 0,83 L 0,84 L 1,84 L 2,85 L 2,92 L 4,92 L 5,93 L 5,96 L 6,96 L 7,97 L 7,99 L 8,99 L 9,100 L 9,102 L 10,102 L 11,103 L 11,104 L 12,104 L 13,105 L 13,106 L 14,106 L 15,107 L 16,107 L 17,108 L 18,108 L 19,109 L 19,112 L 23,108 L 23,107 L 24,106 L 24,105 L 25,104 L 25,103 L 27,101 L 28,101 L 29,100 L 33,100 L 34,101 L 36,99 L 36,98 L 37,97 L 38,98 L 38,100 L 42,100 L 42,98 L 41,97 L 43,95 L 41,93 L 41,91 L 38,88 L 38,86 L 36,86 L 35,85 L 35,84 L 34,84 L 33,83 L 32,83 L 31,82 L 31,79 L 30,78 L 30,76 L 28,74 L 20,74 L 18,72 L 14,72 L 13,71 Z" fill="none" stroke="black" stroke-width="1"/>
</svg>