<svg xmlns="http://www.w3.org/2000/svg" width="491" height="213">
  <path d="M 271,74 L 270,75 L 268,75 L 268,77 L 267,78 L 259,78 L 258,79 L 257,79 L 257,83 L 256,84 L 253,84 L 252,85 L 249,85 L 249,86 L 250,87 L 250,91 L 249,92 L 248,92 L 248,96 L 247,97 L 246,97 L 246,98 L 245,99 L 243,99 L 243,104 L 242,105 L 243,106 L 244,106 L 245,107 L 246,107 L 247,108 L 247,110 L 248,110 L 249,111 L 249,112 L 248,113 L 248,114 L 249,114 L 250,115 L 254,115 L 255,114 L 256,114 L 257,113 L 258,114 L 259,114 L 260,115 L 263,115 L 266,112 L 267,112 L 269,110 L 270,110 L 271,109 L 272,109 L 273,110 L 274,110 L 275,111 L 278,111 L 279,112 L 279,113 L 283,117 L 283,120 L 284,121 L 284,122 L 289,127 L 289,128 L 292,128 L 292,127 L 293,126 L 293,124 L 292,123 L 292,119 L 293,118 L 293,114 L 294,113 L 294,111 L 293,110 L 293,108 L 290,105 L 290,104 L 289,103 L 288,103 L 287,102 L 287,100 L 288,99 L 288,94 L 286,92 L 286,88 L 284,86 L 284,85 L 286,83 L 286,81 L 285,80 L 285,79 L 283,77 L 283,76 L 279,76 L 278,75 L 278,74 Z" fill="none" stroke="black" stroke-width="1"/>
</svg>