<svg xmlns="http://www.w3.org/2000/svg" width="491" height="213">
  <path d="M 188,87 L 187,88 L 172,88 L 172,89 L 171,90 L 171,91 L 170,92 L 170,93 L 165,98 L 165,101 L 164,102 L 164,103 L 165,104 L 169,104 L 170,103 L 177,103 L 178,104 L 180,104 L 181,103 L 188,103 L 189,102 L 194,102 L 195,103 L 196,103 L 197,104 L 201,104 L 202,105 L 203,104 L 203,103 L 204,102 L 205,102 L 206,101 L 209,101 L 209,100 L 207,98 L 207,97 L 205,95 L 205,94 L 202,91 L 201,91 L 199,89 L 196,89 L 195,88 L 194,88 L 193,87 Z" fill="none" stroke="black" stroke-width="1"/>
</svg>