<svg xmlns="http://www.w3.org/2000/svg" width="491" height="213">
  <path d="M 182,58 L 181,59 L 180,59 L 180,60 L 178,62 L 175,62 L 174,63 L 173,63 L 172,64 L 170,64 L 169,65 L 161,65 L 160,66 L 159,66 L 159,67 L 157,69 L 157,71 L 158,72 L 158,75 L 159,76 L 159,80 L 160,81 L 160,82 L 162,82 L 162,80 L 163,79 L 164,79 L 165,78 L 168,78 L 171,75 L 177,75 L 178,74 L 183,74 L 184,73 L 184,71 L 185,70 L 185,69 L 186,68 L 186,64 L 187,63 L 187,62 L 188,61 L 187,61 L 184,58 Z" fill="none" stroke="black" stroke-width="1"/>
</svg>