<svg xmlns="http://www.w3.org/2000/svg" width="491" height="213">
  <path d="M 169,123 L 168,124 L 167,124 L 166,125 L 164,125 L 163,126 L 160,126 L 159,127 L 156,127 L 155,126 L 155,125 L 154,124 L 153,125 L 153,126 L 151,128 L 144,128 L 144,131 L 140,135 L 139,135 L 138,136 L 137,136 L 136,137 L 135,137 L 135,138 L 134,139 L 133,139 L 133,140 L 131,142 L 131,146 L 130,147 L 130,148 L 129,149 L 129,150 L 133,154 L 132,155 L 132,156 L 131,157 L 131,161 L 132,162 L 132,164 L 138,170 L 144,170 L 144,169 L 143,168 L 143,165 L 147,161 L 154,161 L 155,160 L 156,160 L 157,159 L 158,159 L 160,157 L 163,157 L 166,154 L 170,154 L 171,153 L 178,153 L 179,152 L 179,145 L 180,144 L 180,141 L 181,140 L 181,139 L 182,138 L 182,136 L 183,135 L 183,123 L 181,125 L 174,125 L 173,124 L 172,124 L 171,123 Z" fill="none" stroke="black" stroke-width="1"/>
</svg>