<svg xmlns="http://www.w3.org/2000/svg" width="491" height="213">
  <path d="M 236,100 L 235,101 L 230,101 L 229,102 L 222,102 L 221,101 L 216,101 L 215,102 L 211,102 L 210,101 L 209,102 L 206,102 L 205,103 L 204,103 L 204,104 L 202,106 L 202,107 L 200,109 L 198,109 L 197,110 L 195,110 L 189,116 L 188,116 L 187,117 L 187,118 L 185,120 L 185,121 L 184,122 L 184,135 L 183,136 L 183,138 L 182,139 L 182,140 L 181,141 L 181,144 L 180,145 L 180,152 L 185,152 L 186,153 L 195,153 L 196,154 L 198,154 L 198,150 L 199,149 L 200,149 L 200,146 L 201,145 L 206,145 L 207,144 L 210,144 L 210,142 L 211,141 L 225,141 L 225,140 L 226,139 L 229,139 L 229,137 L 230,136 L 233,136 L 234,137 L 234,138 L 236,138 L 237,137 L 238,137 L 239,136 L 239,135 L 238,134 L 238,133 L 237,132 L 237,128 L 236,127 L 236,114 L 237,113 L 239,113 L 239,106 L 240,105 L 241,105 L 242,104 L 242,101 L 240,101 L 239,100 Z" fill="none" stroke="black" stroke-width="1"/>
</svg>