<svg xmlns="http://www.w3.org/2000/svg" width="491" height="213">
  <path d="M 179,153 L 178,154 L 171,154 L 170,155 L 166,155 L 163,158 L 160,158 L 158,160 L 157,160 L 156,161 L 155,161 L 154,162 L 147,162 L 144,165 L 144,168 L 145,169 L 145,173 L 146,174 L 147,174 L 148,175 L 148,176 L 149,177 L 149,179 L 150,180 L 150,181 L 151,182 L 151,183 L 153,185 L 157,185 L 157,184 L 158,183 L 158,182 L 159,181 L 163,181 L 167,185 L 168,185 L 170,187 L 171,187 L 177,181 L 178,181 L 178,176 L 179,175 L 181,175 L 181,174 L 184,171 L 187,171 L 190,168 L 194,168 L 195,167 L 197,167 L 198,166 L 199,166 L 200,165 L 200,163 L 196,159 L 196,157 L 195,156 L 195,154 L 186,154 L 185,153 Z" fill="none" stroke="black" stroke-width="1"/>
</svg>