<svg xmlns="http://www.w3.org/2000/svg" width="491" height="213">
  <path d="M 130,136 L 130,137 L 128,139 L 128,141 L 123,146 L 122,146 L 121,145 L 121,142 L 120,142 L 119,143 L 119,145 L 114,150 L 113,150 L 110,153 L 107,153 L 106,154 L 106,155 L 105,156 L 105,159 L 106,160 L 106,161 L 105,162 L 105,164 L 103,166 L 102,166 L 101,167 L 100,167 L 100,169 L 101,170 L 101,171 L 102,172 L 103,172 L 104,173 L 109,173 L 109,172 L 116,165 L 116,164 L 117,163 L 117,162 L 120,159 L 120,158 L 121,157 L 123,157 L 124,156 L 124,154 L 125,153 L 125,152 L 126,151 L 127,151 L 128,150 L 128,149 L 129,148 L 129,147 L 130,146 L 130,142 L 132,140 L 132,139 L 130,137 Z" fill="none" stroke="black" stroke-width="1"/>
</svg>