<svg xmlns="http://www.w3.org/2000/svg" width="491" height="213">
  <path d="M 103,148 L 99,152 L 99,153 L 95,157 L 91,157 L 90,158 L 90,159 L 86,163 L 86,165 L 84,167 L 84,171 L 86,171 L 87,172 L 88,172 L 90,174 L 90,175 L 91,176 L 91,177 L 92,178 L 93,178 L 95,176 L 96,177 L 102,177 L 104,175 L 104,174 L 103,173 L 102,173 L 100,171 L 100,170 L 99,169 L 99,167 L 100,166 L 101,166 L 102,165 L 103,165 L 104,164 L 104,162 L 105,161 L 105,160 L 104,159 L 104,156 L 105,155 L 105,154 L 106,153 L 106,151 L 108,149 L 108,148 Z" fill="none" stroke="black" stroke-width="1"/>
</svg>