<svg xmlns="http://www.w3.org/2000/svg" width="491" height="213">
  <path d="M 78,53 L 75,56 L 74,56 L 74,57 L 72,59 L 72,60 L 71,61 L 70,61 L 70,64 L 71,65 L 72,64 L 74,64 L 75,65 L 75,66 L 74,67 L 74,69 L 73,70 L 71,70 L 71,72 L 73,74 L 73,75 L 74,76 L 74,77 L 75,78 L 75,79 L 80,84 L 80,82 L 83,79 L 85,79 L 86,80 L 86,77 L 87,76 L 88,76 L 89,75 L 89,72 L 88,71 L 88,67 L 90,65 L 91,65 L 90,65 L 88,63 L 88,62 L 87,61 L 85,61 L 84,60 L 84,59 L 83,59 L 81,57 L 81,56 Z" fill="none" stroke="black" stroke-width="1"/>
</svg>