<svg xmlns="http://www.w3.org/2000/svg" width="392" height="319">
  <path d="M 203,0 L 203,2 L 202,3 L 202,4 L 200,6 L 199,5 L 197,7 L 193,7 L 192,8 L 190,8 L 189,9 L 188,9 L 186,11 L 183,11 L 183,13 L 185,15 L 184,16 L 185,17 L 185,18 L 184,19 L 184,23 L 180,27 L 179,27 L 178,28 L 178,29 L 177,30 L 178,31 L 178,32 L 179,33 L 178,34 L 177,34 L 177,35 L 176,36 L 180,36 L 181,37 L 182,37 L 183,38 L 189,38 L 192,41 L 193,41 L 193,40 L 194,39 L 194,38 L 195,37 L 195,33 L 193,31 L 193,28 L 192,27 L 192,25 L 191,24 L 191,23 L 194,20 L 194,19 L 195,18 L 196,18 L 197,17 L 199,17 L 200,18 L 203,18 L 204,17 L 206,17 L 208,15 L 208,10 L 209,9 L 209,7 L 208,6 L 208,3 L 207,3 L 206,2 L 205,2 Z" fill="none" stroke="black" stroke-width="1"/>
</svg>