<svg xmlns="http://www.w3.org/2000/svg" width="315" height="148">
  <path d="M 72,56 L 72,57 L 71,58 L 70,58 L 69,57 L 68,57 L 67,58 L 66,58 L 65,59 L 64,59 L 63,60 L 61,60 L 60,61 L 59,61 L 56,64 L 56,68 L 55,69 L 57,71 L 57,72 L 60,72 L 62,74 L 62,76 L 63,76 L 64,77 L 65,77 L 66,78 L 66,80 L 69,80 L 71,82 L 71,85 L 74,88 L 76,88 L 76,87 L 77,86 L 80,86 L 80,85 L 82,83 L 87,83 L 88,84 L 94,84 L 94,80 L 95,79 L 95,72 L 94,71 L 94,67 L 90,67 L 89,66 L 89,65 L 87,65 L 86,66 L 85,66 L 84,65 L 83,65 L 81,63 L 81,62 L 76,62 L 75,61 L 75,56 Z" fill="none" stroke="black" stroke-width="1"/>
</svg>