<svg xmlns="http://www.w3.org/2000/svg" width="392" height="319">
  <path d="M 166,91 L 165,92 L 165,95 L 164,96 L 164,99 L 166,101 L 166,102 L 168,104 L 166,106 L 166,107 L 167,108 L 168,108 L 170,110 L 170,111 L 171,112 L 171,116 L 169,118 L 168,118 L 167,117 L 167,118 L 166,119 L 166,121 L 167,121 L 168,122 L 170,122 L 171,123 L 172,123 L 173,124 L 174,124 L 175,125 L 175,124 L 176,123 L 176,122 L 177,121 L 177,120 L 180,117 L 182,117 L 183,116 L 188,116 L 190,118 L 197,118 L 197,112 L 196,111 L 196,110 L 195,109 L 195,107 L 194,106 L 194,102 L 193,101 L 193,99 L 192,98 L 191,98 L 190,97 L 190,96 L 189,96 L 188,95 L 187,95 L 186,94 L 179,94 L 178,95 L 175,95 L 174,94 L 172,94 L 170,92 L 169,92 L 168,91 Z" fill="none" stroke="black" stroke-width="1"/>
</svg>