<svg xmlns="http://www.w3.org/2000/svg" width="392" height="319">
  <path d="M 183,117 L 182,118 L 180,118 L 178,120 L 178,121 L 177,122 L 177,123 L 176,124 L 176,126 L 177,126 L 178,127 L 179,127 L 181,129 L 182,129 L 186,133 L 186,134 L 189,137 L 189,138 L 190,139 L 190,140 L 191,141 L 191,143 L 193,145 L 193,147 L 194,147 L 195,146 L 196,146 L 197,145 L 201,145 L 201,144 L 199,142 L 199,141 L 197,139 L 197,130 L 194,127 L 194,125 L 195,124 L 195,122 L 196,121 L 196,119 L 190,119 L 188,117 Z" fill="none" stroke="black" stroke-width="1"/>
</svg>