<svg xmlns="http://www.w3.org/2000/svg" width="392" height="319">
  <path d="M 254,108 L 253,109 L 253,110 L 252,111 L 252,113 L 250,115 L 249,115 L 249,116 L 248,117 L 248,119 L 251,122 L 252,122 L 253,123 L 253,124 L 256,127 L 256,129 L 255,130 L 255,131 L 254,132 L 254,133 L 252,135 L 249,135 L 248,136 L 246,136 L 246,143 L 247,144 L 247,146 L 248,147 L 248,148 L 250,150 L 250,152 L 251,153 L 251,154 L 250,155 L 250,156 L 248,158 L 248,161 L 251,164 L 253,164 L 255,166 L 256,166 L 258,168 L 259,168 L 260,169 L 261,169 L 262,168 L 265,168 L 267,170 L 267,171 L 270,171 L 274,167 L 274,166 L 277,163 L 277,162 L 278,161 L 278,156 L 274,152 L 274,151 L 273,150 L 273,148 L 272,147 L 272,142 L 271,141 L 271,138 L 272,137 L 272,136 L 273,135 L 273,129 L 277,125 L 277,123 L 276,122 L 275,122 L 273,120 L 272,120 L 270,118 L 270,117 L 269,116 L 269,113 L 267,111 L 263,111 L 262,112 L 257,112 L 256,111 L 256,110 Z" fill="none" stroke="black" stroke-width="1"/>
</svg>