<svg xmlns="http://www.w3.org/2000/svg" width="392" height="319">
  <path d="M 215,74 L 214,75 L 214,76 L 212,78 L 211,78 L 210,79 L 210,83 L 209,84 L 209,85 L 207,87 L 207,89 L 205,91 L 203,91 L 202,92 L 200,92 L 199,91 L 199,90 L 198,90 L 196,88 L 196,87 L 195,87 L 194,88 L 194,89 L 193,90 L 193,92 L 191,94 L 191,97 L 192,97 L 194,99 L 194,101 L 195,102 L 195,106 L 196,107 L 196,109 L 197,110 L 200,107 L 201,107 L 201,106 L 202,105 L 202,104 L 203,103 L 207,103 L 207,102 L 208,101 L 209,102 L 210,102 L 211,103 L 213,103 L 214,104 L 218,104 L 219,103 L 220,103 L 221,104 L 222,104 L 224,102 L 224,95 L 223,95 L 222,94 L 222,86 L 220,84 L 220,78 L 218,76 L 218,75 L 217,74 Z" fill="none" stroke="black" stroke-width="1"/>
</svg>