<svg xmlns="http://www.w3.org/2000/svg" width="392" height="319">
  <path d="M 231,128 L 231,129 L 230,130 L 230,132 L 229,133 L 229,134 L 227,136 L 227,142 L 226,143 L 226,144 L 225,145 L 225,147 L 224,148 L 223,148 L 223,149 L 221,151 L 219,151 L 219,154 L 218,155 L 218,156 L 221,159 L 221,160 L 223,162 L 223,164 L 224,163 L 226,163 L 229,160 L 238,160 L 239,161 L 239,160 L 241,158 L 242,158 L 245,161 L 246,161 L 247,160 L 247,158 L 249,156 L 249,155 L 250,154 L 250,153 L 249,152 L 249,150 L 247,148 L 247,147 L 246,146 L 246,144 L 245,143 L 245,136 L 244,135 L 244,134 L 240,134 L 239,133 L 238,133 L 235,130 L 235,129 L 234,129 L 233,128 Z" fill="none" stroke="black" stroke-width="1"/>
</svg>