<svg xmlns="http://www.w3.org/2000/svg" width="392" height="319">
  <path d="M 219,177 L 218,178 L 215,178 L 214,179 L 213,179 L 212,180 L 212,183 L 213,184 L 213,185 L 214,186 L 214,187 L 215,188 L 215,190 L 218,193 L 218,194 L 220,196 L 220,197 L 221,198 L 221,200 L 222,201 L 222,202 L 221,203 L 221,204 L 222,204 L 224,206 L 227,206 L 228,205 L 229,205 L 230,204 L 230,200 L 229,199 L 229,197 L 230,196 L 230,184 L 229,184 L 226,181 L 226,180 L 225,180 L 223,178 L 222,178 L 221,177 Z" fill="none" stroke="black" stroke-width="1"/>
</svg>