<svg xmlns="http://www.w3.org/2000/svg" width="392" height="319">
  <path d="M 229,161 L 226,164 L 224,164 L 223,165 L 221,165 L 221,169 L 222,170 L 222,171 L 223,172 L 222,173 L 222,177 L 223,177 L 225,179 L 226,179 L 227,180 L 227,181 L 229,183 L 230,183 L 231,184 L 231,196 L 230,197 L 230,199 L 235,199 L 236,200 L 237,200 L 237,199 L 239,197 L 240,197 L 241,196 L 243,196 L 244,195 L 246,195 L 246,194 L 245,193 L 245,191 L 244,190 L 244,184 L 242,182 L 242,181 L 241,180 L 241,179 L 240,178 L 240,176 L 239,175 L 239,170 L 240,169 L 239,168 L 239,167 L 238,166 L 238,163 L 239,162 L 238,161 Z" fill="none" stroke="black" stroke-width="1"/>
</svg>