<svg xmlns="http://www.w3.org/2000/svg" width="392" height="319">
  <path d="M 285,260 L 285,262 L 284,263 L 284,266 L 283,267 L 283,269 L 279,273 L 279,274 L 278,275 L 278,281 L 279,282 L 280,282 L 281,283 L 282,283 L 283,284 L 285,284 L 286,285 L 287,285 L 288,286 L 289,286 L 291,288 L 293,288 L 294,289 L 295,289 L 296,290 L 297,290 L 298,291 L 301,291 L 302,292 L 303,292 L 304,293 L 304,294 L 305,295 L 306,295 L 308,297 L 313,297 L 315,295 L 316,295 L 318,293 L 318,292 L 319,291 L 320,291 L 320,290 L 321,289 L 321,288 L 322,287 L 322,286 L 323,285 L 323,284 L 324,283 L 324,282 L 323,281 L 323,279 L 322,278 L 322,275 L 321,275 L 320,274 L 320,272 L 318,272 L 316,274 L 314,274 L 311,271 L 311,270 L 309,268 L 309,266 L 308,267 L 307,267 L 305,265 L 302,265 L 301,264 L 298,264 L 297,263 L 294,263 L 293,262 L 292,262 L 291,261 L 290,261 L 289,260 Z" fill="none" stroke="black" stroke-width="1"/>
</svg>