<svg xmlns="http://www.w3.org/2000/svg" width="392" height="319">
  <path d="M 310,237 L 309,238 L 309,244 L 307,246 L 304,246 L 304,250 L 303,251 L 303,252 L 299,256 L 299,258 L 298,259 L 298,260 L 297,261 L 297,262 L 298,263 L 301,263 L 302,264 L 305,264 L 307,266 L 308,266 L 309,265 L 310,266 L 310,268 L 312,270 L 312,271 L 314,273 L 316,273 L 318,271 L 320,271 L 321,272 L 321,274 L 322,274 L 323,275 L 323,273 L 324,272 L 324,270 L 325,269 L 328,269 L 329,268 L 333,268 L 335,266 L 335,263 L 334,262 L 333,262 L 327,256 L 327,253 L 326,252 L 326,246 L 325,246 L 324,245 L 323,245 L 322,244 L 320,244 L 318,242 L 318,241 L 317,240 L 317,239 L 315,237 Z" fill="none" stroke="black" stroke-width="1"/>
</svg>