<svg xmlns="http://www.w3.org/2000/svg" width="392" height="319">
  <path d="M 310,212 L 309,213 L 305,213 L 305,215 L 306,216 L 306,219 L 305,220 L 305,221 L 306,221 L 310,225 L 310,227 L 311,228 L 311,234 L 310,235 L 310,236 L 315,236 L 318,239 L 318,240 L 319,241 L 319,242 L 320,243 L 322,243 L 323,244 L 324,244 L 325,245 L 330,245 L 331,244 L 332,244 L 332,240 L 333,239 L 333,238 L 334,237 L 334,236 L 335,235 L 335,227 L 331,227 L 328,224 L 328,223 L 327,223 L 326,222 L 326,221 L 325,221 L 322,218 L 321,218 L 320,217 L 319,217 L 318,216 L 318,215 L 316,213 L 316,212 Z" fill="none" stroke="black" stroke-width="1"/>
</svg>