<svg xmlns="http://www.w3.org/2000/svg" width="315" height="148">
  <path d="M 70,110 L 70,113 L 71,113 L 72,114 L 71,115 L 70,115 L 69,116 L 67,116 L 66,117 L 65,117 L 64,118 L 62,118 L 61,119 L 60,119 L 59,120 L 58,120 L 57,121 L 56,121 L 54,123 L 53,123 L 53,125 L 60,125 L 64,129 L 65,128 L 66,128 L 67,129 L 68,129 L 69,130 L 69,131 L 71,131 L 72,130 L 73,130 L 74,129 L 75,129 L 76,128 L 77,128 L 78,127 L 83,127 L 84,126 L 89,126 L 90,125 L 92,125 L 93,124 L 94,124 L 95,123 L 95,120 L 93,118 L 93,117 L 92,117 L 90,115 L 90,114 L 89,113 L 89,112 L 88,111 L 87,111 L 87,112 L 88,113 L 88,114 L 89,115 L 89,116 L 92,119 L 92,120 L 94,122 L 93,123 L 92,123 L 90,121 L 90,120 L 89,119 L 88,119 L 86,117 L 85,117 L 84,116 L 85,115 L 85,114 L 83,116 L 81,114 L 81,113 L 79,113 L 78,114 L 76,112 L 75,113 L 74,112 L 72,112 L 71,111 L 71,110 Z" fill="none" stroke="black" stroke-width="1"/>
</svg>