<svg xmlns="http://www.w3.org/2000/svg" width="392" height="319">
  <path d="M 360,286 L 360,287 L 359,288 L 357,288 L 358,289 L 358,290 L 357,291 L 356,291 L 353,294 L 353,295 L 349,299 L 348,299 L 346,301 L 348,303 L 348,305 L 349,306 L 349,307 L 350,308 L 350,310 L 352,312 L 358,312 L 360,310 L 361,310 L 363,308 L 370,308 L 372,310 L 375,310 L 375,309 L 376,308 L 377,308 L 380,305 L 380,302 L 379,302 L 378,301 L 378,299 L 377,298 L 376,298 L 372,294 L 371,294 L 370,293 L 370,292 L 367,289 L 366,289 L 365,288 L 364,288 L 362,286 Z" fill="none" stroke="black" stroke-width="1"/>
</svg>