<svg xmlns="http://www.w3.org/2000/svg" width="284" height="322">
  <path d="M 82,0 L 80,2 L 80,4 L 79,5 L 79,6 L 77,8 L 73,8 L 73,11 L 72,12 L 72,13 L 70,15 L 70,30 L 69,31 L 68,31 L 68,35 L 67,36 L 66,36 L 66,38 L 65,39 L 63,39 L 63,45 L 62,46 L 60,46 L 60,48 L 61,49 L 61,52 L 68,52 L 69,53 L 75,53 L 76,54 L 77,53 L 78,53 L 79,52 L 80,52 L 81,51 L 83,51 L 84,50 L 85,50 L 86,49 L 88,49 L 89,48 L 90,48 L 91,47 L 94,47 L 95,48 L 108,48 L 109,49 L 110,49 L 112,51 L 113,51 L 113,50 L 115,48 L 115,47 L 116,46 L 116,45 L 117,44 L 117,43 L 124,36 L 125,36 L 128,33 L 128,31 L 127,30 L 127,28 L 123,28 L 122,27 L 122,25 L 108,25 L 107,24 L 107,21 L 105,21 L 104,20 L 104,19 L 103,19 L 102,18 L 102,17 L 100,17 L 99,16 L 99,13 L 97,13 L 96,12 L 96,11 L 95,10 L 95,8 L 94,8 L 93,7 L 93,2 L 92,2 L 91,1 L 87,1 L 86,0 Z" fill="none" stroke="black" stroke-width="1"/>
</svg>