<svg xmlns="http://www.w3.org/2000/svg" width="284" height="322">
  <path d="M 64,10 L 63,11 L 58,11 L 57,12 L 56,12 L 53,15 L 52,15 L 51,16 L 50,16 L 49,17 L 47,17 L 45,19 L 44,19 L 41,22 L 40,22 L 40,24 L 39,25 L 32,25 L 31,26 L 29,26 L 28,27 L 17,27 L 16,28 L 16,36 L 15,37 L 15,38 L 14,39 L 14,40 L 13,41 L 13,46 L 21,46 L 22,47 L 23,47 L 24,48 L 26,48 L 27,47 L 28,47 L 30,45 L 32,45 L 33,46 L 33,52 L 34,52 L 35,53 L 36,53 L 37,54 L 39,54 L 40,55 L 42,55 L 43,56 L 44,56 L 46,58 L 47,58 L 51,62 L 51,64 L 53,66 L 58,66 L 58,65 L 59,64 L 59,62 L 60,61 L 60,49 L 59,48 L 59,46 L 60,45 L 62,45 L 62,39 L 63,38 L 65,38 L 65,36 L 66,35 L 67,35 L 67,31 L 68,30 L 69,30 L 69,15 L 71,13 L 71,12 L 72,11 L 72,10 Z" fill="none" stroke="black" stroke-width="1"/>
</svg>