<svg xmlns="http://www.w3.org/2000/svg" width="284" height="322">
  <path d="M 115,87 L 114,88 L 113,88 L 112,89 L 110,89 L 109,90 L 108,90 L 107,91 L 110,94 L 110,95 L 111,96 L 111,99 L 112,100 L 112,102 L 111,103 L 111,104 L 110,105 L 110,107 L 109,108 L 109,109 L 108,110 L 108,111 L 106,113 L 106,114 L 105,115 L 105,118 L 104,119 L 104,124 L 109,124 L 110,125 L 110,128 L 112,128 L 113,129 L 113,132 L 116,132 L 118,134 L 120,134 L 122,132 L 124,132 L 128,128 L 129,128 L 130,127 L 130,124 L 132,122 L 132,120 L 133,119 L 133,113 L 134,112 L 134,111 L 135,110 L 135,109 L 134,108 L 134,104 L 133,103 L 133,102 L 123,92 L 122,92 L 121,91 L 120,91 L 119,90 L 118,90 Z" fill="none" stroke="black" stroke-width="1"/>
</svg>