<svg xmlns="http://www.w3.org/2000/svg" width="284" height="322">
  <path d="M 110,129 L 109,130 L 109,131 L 106,134 L 106,138 L 104,140 L 102,140 L 101,141 L 100,141 L 99,142 L 99,144 L 97,146 L 95,146 L 94,147 L 93,147 L 93,150 L 92,151 L 92,156 L 93,157 L 93,160 L 98,160 L 99,159 L 101,159 L 102,158 L 104,158 L 105,159 L 109,159 L 110,160 L 112,160 L 113,161 L 115,161 L 116,162 L 117,162 L 119,164 L 125,164 L 126,163 L 127,163 L 127,161 L 128,160 L 128,156 L 129,155 L 129,152 L 128,151 L 128,147 L 127,146 L 127,145 L 126,144 L 126,141 L 125,140 L 125,134 L 124,133 L 122,133 L 120,135 L 118,135 L 116,133 L 113,133 L 112,132 L 112,129 Z" fill="none" stroke="black" stroke-width="1"/>
</svg>