<svg xmlns="http://www.w3.org/2000/svg" width="284" height="322">
  <path d="M 86,227 L 84,229 L 84,230 L 83,231 L 83,232 L 82,233 L 80,233 L 79,234 L 77,234 L 74,237 L 73,236 L 72,236 L 71,235 L 70,236 L 67,236 L 66,235 L 65,236 L 65,241 L 66,242 L 66,244 L 67,245 L 67,246 L 66,247 L 66,248 L 65,249 L 65,251 L 64,252 L 64,253 L 66,253 L 67,254 L 71,254 L 72,253 L 73,254 L 75,254 L 76,255 L 78,255 L 79,256 L 79,257 L 81,259 L 81,260 L 83,262 L 83,266 L 81,268 L 81,271 L 84,274 L 84,277 L 86,279 L 87,279 L 88,280 L 88,281 L 89,282 L 93,282 L 94,281 L 96,281 L 96,276 L 97,275 L 97,274 L 101,270 L 101,268 L 102,267 L 102,264 L 106,260 L 106,259 L 107,258 L 107,248 L 108,247 L 108,245 L 109,244 L 109,242 L 105,238 L 105,237 L 101,237 L 99,235 L 96,235 L 95,236 L 93,236 L 88,231 L 88,230 L 87,229 L 87,227 Z" fill="none" stroke="black" stroke-width="1"/>
</svg>