<svg xmlns="http://www.w3.org/2000/svg" width="284" height="322">
  <path d="M 87,174 L 85,176 L 83,176 L 83,178 L 82,179 L 79,179 L 79,182 L 78,183 L 78,184 L 77,185 L 72,185 L 72,188 L 71,189 L 70,189 L 67,192 L 66,192 L 64,194 L 64,201 L 63,202 L 63,205 L 62,206 L 62,217 L 61,218 L 61,219 L 59,221 L 59,224 L 60,225 L 60,231 L 59,232 L 59,234 L 60,235 L 65,235 L 66,234 L 67,235 L 70,235 L 71,234 L 72,235 L 73,235 L 74,236 L 77,233 L 79,233 L 80,232 L 82,232 L 82,231 L 83,230 L 83,229 L 85,227 L 85,220 L 83,218 L 83,217 L 82,216 L 82,206 L 81,205 L 81,204 L 82,203 L 82,201 L 84,199 L 85,199 L 86,198 L 89,198 L 90,197 L 93,197 L 94,196 L 94,192 L 93,191 L 93,189 L 92,188 L 92,186 L 91,185 L 91,182 L 90,181 L 90,179 L 87,176 Z" fill="none" stroke="black" stroke-width="1"/>
</svg>