<svg xmlns="http://www.w3.org/2000/svg" width="284" height="322">
  <path d="M 102,159 L 101,160 L 99,160 L 98,161 L 93,161 L 92,162 L 92,171 L 91,172 L 90,172 L 89,173 L 88,173 L 88,176 L 91,179 L 91,181 L 94,181 L 95,182 L 100,182 L 101,183 L 104,183 L 105,184 L 106,184 L 107,185 L 116,185 L 117,186 L 118,186 L 119,185 L 119,184 L 121,182 L 124,182 L 125,183 L 128,183 L 129,184 L 133,184 L 134,183 L 134,180 L 135,179 L 135,174 L 137,172 L 140,172 L 141,171 L 143,171 L 143,169 L 142,168 L 142,167 L 141,166 L 141,164 L 140,164 L 138,162 L 136,162 L 135,163 L 133,163 L 132,164 L 126,164 L 125,165 L 119,165 L 117,163 L 116,163 L 115,162 L 113,162 L 112,161 L 110,161 L 109,160 L 105,160 L 104,159 Z" fill="none" stroke="black" stroke-width="1"/>
</svg>