<svg xmlns="http://www.w3.org/2000/svg" width="284" height="322">
  <path d="M 47,189 L 46,190 L 45,190 L 43,192 L 40,192 L 38,194 L 36,194 L 36,195 L 37,196 L 37,201 L 36,202 L 36,219 L 38,221 L 38,226 L 37,227 L 37,229 L 36,230 L 36,244 L 37,245 L 37,249 L 35,251 L 35,256 L 37,258 L 37,261 L 39,261 L 42,264 L 42,265 L 44,267 L 49,267 L 50,266 L 52,266 L 54,264 L 54,262 L 55,261 L 55,260 L 58,257 L 60,257 L 62,255 L 62,254 L 63,253 L 63,252 L 64,251 L 64,249 L 65,248 L 65,247 L 66,246 L 66,245 L 65,244 L 65,242 L 64,241 L 64,236 L 60,236 L 58,234 L 58,232 L 59,231 L 59,225 L 58,224 L 58,221 L 60,219 L 60,218 L 61,217 L 61,206 L 62,205 L 62,202 L 63,201 L 63,195 L 60,195 L 59,196 L 56,196 L 55,195 L 54,195 L 53,194 L 53,189 Z" fill="none" stroke="black" stroke-width="1"/>
</svg>