<svg xmlns="http://www.w3.org/2000/svg" width="284" height="322">
  <path d="M 43,165 L 41,167 L 41,168 L 38,171 L 37,171 L 36,172 L 34,172 L 33,173 L 22,173 L 21,174 L 20,174 L 19,175 L 19,177 L 18,178 L 18,184 L 17,185 L 17,200 L 28,200 L 29,199 L 30,199 L 31,198 L 31,197 L 34,194 L 35,194 L 36,193 L 38,193 L 40,191 L 43,191 L 45,189 L 46,189 L 47,188 L 52,188 L 52,185 L 51,184 L 51,183 L 50,182 L 50,178 L 49,177 L 49,173 L 48,172 L 48,170 L 47,169 L 47,168 L 46,167 L 46,166 L 45,166 L 44,165 Z" fill="none" stroke="black" stroke-width="1"/>
</svg>