<svg xmlns="http://www.w3.org/2000/svg" width="315" height="148">
  <path d="M 111,123 L 110,124 L 108,124 L 107,125 L 104,125 L 103,126 L 101,126 L 100,127 L 98,127 L 97,126 L 96,127 L 95,126 L 90,126 L 89,127 L 84,127 L 87,130 L 86,131 L 86,132 L 85,133 L 83,133 L 83,134 L 82,135 L 82,136 L 81,137 L 81,139 L 80,140 L 80,141 L 81,140 L 81,139 L 84,136 L 87,136 L 88,135 L 91,135 L 92,136 L 93,135 L 93,134 L 94,133 L 95,133 L 98,130 L 102,130 L 103,131 L 104,131 L 105,132 L 106,132 L 107,131 L 111,131 L 112,132 L 113,132 L 114,131 L 114,129 L 113,128 L 114,127 L 114,126 L 115,125 L 116,125 L 116,124 L 112,124 Z" fill="none" stroke="black" stroke-width="1"/>
</svg>