<svg xmlns="http://www.w3.org/2000/svg" width="284" height="322">
  <path d="M 34,195 L 32,197 L 32,198 L 30,200 L 29,200 L 28,201 L 16,201 L 15,202 L 14,202 L 13,201 L 13,206 L 12,207 L 12,210 L 13,209 L 14,209 L 16,211 L 15,212 L 15,213 L 14,214 L 14,222 L 13,223 L 13,233 L 14,234 L 14,238 L 15,239 L 15,241 L 14,242 L 14,243 L 13,244 L 13,245 L 12,246 L 12,248 L 17,248 L 18,247 L 19,247 L 19,246 L 20,245 L 22,245 L 24,243 L 25,243 L 25,242 L 27,240 L 28,240 L 30,238 L 31,239 L 34,239 L 35,238 L 35,230 L 36,229 L 36,227 L 37,226 L 37,221 L 35,219 L 35,202 L 36,201 L 36,196 L 35,195 Z" fill="none" stroke="black" stroke-width="1"/>
</svg>