<svg xmlns="http://www.w3.org/2000/svg" width="284" height="322">
  <path d="M 111,234 L 110,235 L 109,235 L 107,237 L 106,237 L 106,238 L 110,242 L 110,244 L 109,245 L 109,247 L 108,248 L 108,258 L 107,259 L 107,260 L 103,264 L 103,267 L 102,268 L 102,270 L 98,274 L 98,275 L 97,276 L 97,296 L 98,297 L 98,304 L 100,306 L 109,306 L 110,307 L 112,307 L 113,308 L 116,308 L 117,309 L 119,309 L 120,310 L 121,310 L 122,311 L 123,311 L 124,312 L 139,312 L 140,313 L 143,313 L 144,314 L 146,314 L 147,313 L 150,313 L 151,312 L 152,312 L 152,311 L 153,310 L 153,305 L 152,304 L 152,302 L 148,302 L 147,301 L 147,299 L 146,298 L 145,298 L 144,297 L 142,297 L 141,296 L 141,295 L 140,294 L 140,293 L 139,293 L 138,292 L 138,288 L 136,288 L 135,287 L 135,284 L 134,284 L 133,283 L 133,280 L 127,280 L 126,281 L 123,281 L 122,280 L 122,277 L 121,276 L 121,269 L 120,268 L 120,256 L 119,255 L 119,245 L 118,244 L 118,243 L 117,242 L 117,238 L 115,236 L 115,235 L 114,235 L 113,234 L 112,235 Z" fill="none" stroke="black" stroke-width="1"/>
</svg>