<svg xmlns="http://www.w3.org/2000/svg" width="588" height="448">
  <path d="M 56,63 L 56,65 L 55,66 L 55,75 L 52,78 L 52,81 L 54,83 L 58,83 L 59,84 L 60,84 L 61,85 L 63,85 L 64,86 L 69,86 L 71,88 L 81,88 L 84,91 L 84,92 L 85,93 L 85,96 L 86,97 L 86,98 L 91,103 L 92,103 L 95,100 L 96,100 L 97,99 L 97,97 L 98,96 L 98,95 L 99,94 L 102,94 L 104,92 L 104,90 L 105,89 L 105,86 L 107,84 L 109,84 L 109,81 L 110,80 L 110,77 L 108,75 L 107,75 L 105,73 L 104,73 L 103,72 L 99,72 L 98,71 L 97,71 L 96,70 L 96,67 L 95,66 L 95,65 L 94,64 L 93,64 L 92,63 L 87,63 L 87,64 L 86,65 L 85,65 L 84,64 L 73,64 L 72,65 L 64,65 L 63,66 L 62,66 L 61,65 L 60,65 L 59,64 L 58,64 L 57,63 Z" fill="none" stroke="black" stroke-width="1"/>
</svg>