<svg xmlns="http://www.w3.org/2000/svg" width="588" height="448">
  <path d="M 121,78 L 117,82 L 114,82 L 111,79 L 111,80 L 110,81 L 110,84 L 109,85 L 107,85 L 106,86 L 106,89 L 105,90 L 105,92 L 102,95 L 99,95 L 99,96 L 98,97 L 98,99 L 96,101 L 95,101 L 92,104 L 92,109 L 93,110 L 93,119 L 94,120 L 94,121 L 96,123 L 96,124 L 99,127 L 100,127 L 101,128 L 104,128 L 105,129 L 106,129 L 107,130 L 108,130 L 109,131 L 112,131 L 113,132 L 115,132 L 117,134 L 119,134 L 120,135 L 124,135 L 125,134 L 124,133 L 124,129 L 123,128 L 123,126 L 122,125 L 122,122 L 121,121 L 121,119 L 120,118 L 120,114 L 123,111 L 124,111 L 124,110 L 128,106 L 130,106 L 130,101 L 131,100 L 131,99 L 135,95 L 135,94 L 136,93 L 136,92 L 139,89 L 139,88 L 141,86 L 142,86 L 143,85 L 144,85 L 145,84 L 144,84 L 143,83 L 141,83 L 140,82 L 137,82 L 136,81 L 134,81 L 133,80 L 124,80 L 122,78 Z" fill="none" stroke="black" stroke-width="1"/>
</svg>