<svg xmlns="http://www.w3.org/2000/svg" width="588" height="448">
  <path d="M 51,82 L 51,86 L 50,87 L 50,89 L 49,90 L 49,91 L 48,92 L 48,93 L 47,94 L 45,94 L 45,95 L 44,96 L 44,98 L 45,99 L 45,100 L 46,101 L 46,105 L 44,107 L 44,108 L 43,109 L 43,110 L 45,112 L 45,117 L 46,118 L 46,122 L 48,122 L 49,121 L 52,121 L 53,122 L 56,122 L 57,121 L 63,121 L 64,120 L 66,120 L 67,119 L 80,119 L 81,118 L 82,118 L 83,119 L 84,119 L 85,120 L 88,120 L 89,119 L 92,119 L 92,110 L 91,109 L 91,104 L 85,98 L 85,97 L 84,96 L 84,93 L 83,92 L 83,91 L 81,89 L 71,89 L 69,87 L 64,87 L 63,86 L 61,86 L 60,85 L 59,85 L 58,84 L 54,84 L 52,82 Z" fill="none" stroke="black" stroke-width="1"/>
</svg>