<svg xmlns="http://www.w3.org/2000/svg" width="588" height="448">
  <path d="M 145,85 L 144,86 L 143,86 L 142,87 L 141,87 L 140,88 L 140,89 L 137,92 L 137,93 L 136,94 L 136,95 L 132,99 L 132,100 L 131,101 L 131,106 L 130,107 L 128,107 L 125,110 L 125,111 L 124,112 L 123,112 L 121,114 L 121,118 L 122,119 L 122,121 L 123,122 L 123,125 L 124,126 L 124,128 L 125,129 L 125,133 L 126,134 L 124,136 L 124,139 L 136,139 L 137,138 L 139,138 L 141,140 L 142,140 L 143,139 L 143,135 L 145,133 L 146,134 L 147,134 L 148,135 L 150,135 L 152,137 L 153,137 L 154,138 L 155,138 L 156,139 L 157,139 L 161,143 L 161,144 L 162,145 L 162,146 L 163,146 L 164,147 L 165,147 L 166,148 L 167,148 L 170,145 L 170,144 L 171,143 L 171,134 L 173,132 L 173,131 L 172,130 L 172,128 L 171,127 L 171,124 L 172,123 L 172,119 L 174,117 L 174,116 L 175,115 L 175,114 L 176,113 L 176,111 L 177,110 L 177,102 L 178,101 L 178,100 L 179,99 L 180,99 L 182,97 L 182,95 L 180,93 L 179,93 L 177,91 L 177,90 L 176,89 L 176,86 L 175,86 L 174,87 L 171,87 L 170,88 L 168,88 L 167,87 L 164,87 L 163,86 L 148,86 L 147,85 Z" fill="none" stroke="black" stroke-width="1"/>
</svg>