<svg xmlns="http://www.w3.org/2000/svg" width="588" height="448">
  <path d="M 98,127 L 98,136 L 100,138 L 100,141 L 101,141 L 103,143 L 103,146 L 104,147 L 104,153 L 105,154 L 105,159 L 107,159 L 108,160 L 108,170 L 107,171 L 107,174 L 109,174 L 110,175 L 111,175 L 112,176 L 117,176 L 118,175 L 123,175 L 124,174 L 124,171 L 125,170 L 126,170 L 126,169 L 127,168 L 127,149 L 128,148 L 128,146 L 130,144 L 130,140 L 124,140 L 123,139 L 123,136 L 120,136 L 119,135 L 117,135 L 115,133 L 113,133 L 112,132 L 109,132 L 108,131 L 107,131 L 106,130 L 105,130 L 104,129 L 101,129 L 100,128 L 99,128 Z" fill="none" stroke="black" stroke-width="1"/>
</svg>