<svg xmlns="http://www.w3.org/2000/svg" width="588" height="448">
  <path d="M 203,75 L 203,83 L 202,84 L 202,89 L 200,91 L 192,91 L 191,92 L 189,92 L 186,95 L 183,95 L 183,97 L 180,100 L 179,100 L 179,101 L 178,102 L 178,110 L 177,111 L 177,113 L 176,114 L 176,115 L 175,116 L 175,117 L 173,119 L 173,123 L 172,124 L 172,127 L 173,128 L 173,130 L 174,131 L 174,132 L 175,133 L 178,133 L 179,134 L 180,134 L 182,136 L 188,136 L 189,135 L 192,135 L 193,136 L 194,136 L 195,137 L 195,139 L 194,140 L 194,142 L 195,143 L 195,144 L 197,144 L 198,145 L 198,147 L 199,147 L 200,148 L 200,149 L 203,149 L 204,150 L 204,151 L 205,152 L 206,152 L 207,153 L 210,153 L 211,154 L 211,155 L 216,155 L 216,153 L 217,152 L 217,151 L 218,150 L 218,149 L 219,148 L 220,148 L 221,147 L 221,139 L 222,138 L 223,138 L 225,136 L 227,136 L 228,135 L 229,135 L 229,133 L 230,132 L 230,128 L 229,128 L 228,127 L 228,121 L 227,120 L 227,116 L 226,115 L 227,114 L 228,114 L 228,113 L 229,112 L 230,112 L 230,110 L 229,109 L 229,102 L 228,101 L 228,99 L 229,98 L 230,98 L 230,95 L 231,94 L 231,93 L 232,92 L 234,92 L 236,90 L 237,90 L 237,89 L 234,86 L 232,86 L 231,87 L 230,87 L 228,85 L 227,85 L 224,82 L 223,82 L 222,81 L 219,81 L 216,78 L 210,78 L 209,77 L 208,77 L 206,75 Z" fill="none" stroke="black" stroke-width="1"/>
</svg>