<svg xmlns="http://www.w3.org/2000/svg" width="588" height="448">
  <path d="M 173,133 L 172,134 L 172,143 L 171,144 L 171,145 L 168,148 L 168,149 L 164,153 L 164,155 L 165,156 L 165,157 L 167,159 L 167,160 L 168,161 L 168,162 L 170,162 L 171,163 L 172,163 L 175,166 L 175,167 L 176,168 L 179,168 L 180,169 L 184,169 L 188,165 L 188,164 L 189,163 L 190,163 L 192,161 L 194,161 L 195,160 L 197,160 L 198,159 L 199,159 L 201,157 L 201,156 L 202,155 L 204,155 L 204,152 L 203,151 L 203,150 L 200,150 L 199,149 L 199,148 L 198,148 L 197,147 L 197,145 L 195,145 L 194,144 L 194,143 L 193,142 L 193,140 L 194,139 L 194,137 L 193,137 L 192,136 L 189,136 L 188,137 L 182,137 L 180,135 L 179,135 L 178,134 L 175,134 L 174,133 Z" fill="none" stroke="black" stroke-width="1"/>
</svg>