<svg xmlns="http://www.w3.org/2000/svg" width="588" height="448">
  <path d="M 267,146 L 267,147 L 264,150 L 263,150 L 262,151 L 259,151 L 258,152 L 257,152 L 256,153 L 246,153 L 244,155 L 244,158 L 242,160 L 242,161 L 241,162 L 240,162 L 238,164 L 237,164 L 237,166 L 236,167 L 236,170 L 237,170 L 241,174 L 241,175 L 243,175 L 244,176 L 246,176 L 248,178 L 255,178 L 256,177 L 263,177 L 265,179 L 272,179 L 273,178 L 275,178 L 276,177 L 277,177 L 279,175 L 279,174 L 278,174 L 277,173 L 277,169 L 278,168 L 278,166 L 277,165 L 277,164 L 276,163 L 276,151 L 275,150 L 275,149 L 274,149 L 272,147 L 271,147 L 270,146 Z" fill="none" stroke="black" stroke-width="1"/>
</svg>