<svg xmlns="http://www.w3.org/2000/svg" width="315" height="148">
  <path d="M 144,81 L 143,82 L 143,83 L 142,84 L 141,84 L 141,87 L 139,89 L 139,90 L 138,91 L 141,91 L 142,90 L 149,90 L 150,89 L 151,89 L 153,87 L 157,87 L 158,88 L 158,89 L 159,90 L 159,91 L 157,93 L 154,93 L 153,94 L 152,94 L 151,95 L 150,95 L 149,96 L 147,96 L 150,96 L 151,97 L 155,97 L 156,98 L 159,98 L 160,97 L 161,97 L 161,96 L 163,94 L 163,93 L 166,90 L 166,89 L 167,88 L 167,86 L 166,85 L 166,84 L 165,83 L 162,83 L 161,82 L 158,82 L 157,83 L 153,83 L 152,82 L 146,82 L 145,81 Z" fill="none" stroke="black" stroke-width="1"/>
</svg>