<svg xmlns="http://www.w3.org/2000/svg" width="588" height="448">
  <path d="M 232,146 L 231,147 L 228,147 L 227,148 L 226,148 L 225,149 L 222,149 L 221,150 L 221,151 L 220,152 L 220,154 L 219,155 L 219,161 L 221,163 L 221,164 L 226,169 L 226,170 L 227,171 L 229,171 L 230,170 L 235,170 L 235,167 L 236,166 L 236,164 L 237,163 L 238,163 L 240,161 L 241,161 L 241,160 L 243,158 L 243,155 L 245,153 L 245,151 L 244,150 L 244,149 L 242,147 L 241,147 L 240,146 Z" fill="none" stroke="black" stroke-width="1"/>
</svg>