<svg xmlns="http://www.w3.org/2000/svg" width="588" height="448">
  <path d="M 247,87 L 246,88 L 244,88 L 243,89 L 242,89 L 241,90 L 238,90 L 237,91 L 236,91 L 234,93 L 232,93 L 232,94 L 231,95 L 231,98 L 230,99 L 229,99 L 229,101 L 230,102 L 230,109 L 233,109 L 237,113 L 240,113 L 241,112 L 247,112 L 248,113 L 250,113 L 251,114 L 253,114 L 257,118 L 257,119 L 258,120 L 258,121 L 259,122 L 260,122 L 261,123 L 266,123 L 267,124 L 269,124 L 270,125 L 271,125 L 272,126 L 272,124 L 275,121 L 277,121 L 279,123 L 280,123 L 281,124 L 284,124 L 285,123 L 286,124 L 287,124 L 287,123 L 288,122 L 288,121 L 290,119 L 291,119 L 291,118 L 290,117 L 290,116 L 289,115 L 289,114 L 284,109 L 283,110 L 281,110 L 280,109 L 280,108 L 278,108 L 277,109 L 267,99 L 267,98 L 265,96 L 264,96 L 263,95 L 261,95 L 257,91 L 254,91 L 250,87 Z" fill="none" stroke="black" stroke-width="1"/>
</svg>