<svg xmlns="http://www.w3.org/2000/svg" width="588" height="448">
  <path d="M 246,46 L 246,49 L 245,50 L 245,55 L 244,56 L 244,57 L 241,60 L 241,61 L 238,64 L 238,65 L 237,66 L 236,66 L 235,67 L 235,68 L 232,71 L 232,72 L 231,73 L 231,76 L 230,77 L 230,79 L 229,80 L 229,81 L 228,82 L 228,83 L 227,84 L 228,84 L 230,86 L 231,86 L 232,85 L 234,85 L 238,89 L 241,89 L 242,88 L 243,88 L 244,87 L 246,87 L 247,86 L 250,86 L 250,85 L 251,84 L 251,83 L 252,82 L 253,82 L 253,79 L 254,78 L 255,78 L 255,76 L 256,75 L 258,75 L 258,73 L 259,72 L 260,72 L 260,71 L 262,69 L 263,69 L 263,68 L 264,67 L 265,67 L 265,65 L 267,63 L 268,63 L 269,62 L 269,58 L 267,58 L 264,55 L 264,54 L 263,53 L 263,52 L 259,48 L 259,47 L 255,47 L 254,46 Z" fill="none" stroke="black" stroke-width="1"/>
</svg>