<svg xmlns="http://www.w3.org/2000/svg" width="284" height="322">
  <path d="M 144,196 L 143,197 L 139,197 L 139,202 L 137,204 L 137,206 L 135,208 L 135,211 L 136,211 L 137,212 L 138,212 L 141,215 L 142,215 L 143,216 L 145,216 L 147,218 L 148,218 L 153,223 L 155,223 L 156,224 L 157,224 L 159,226 L 159,227 L 160,228 L 160,229 L 161,230 L 162,230 L 163,231 L 163,232 L 166,235 L 167,235 L 169,237 L 169,238 L 171,240 L 171,241 L 172,241 L 174,243 L 175,243 L 183,251 L 184,251 L 186,253 L 188,253 L 189,254 L 192,254 L 193,255 L 194,255 L 195,256 L 195,257 L 199,261 L 200,261 L 200,258 L 201,257 L 201,255 L 202,254 L 202,252 L 203,251 L 203,250 L 204,249 L 205,249 L 205,248 L 207,246 L 207,243 L 209,241 L 209,236 L 210,235 L 210,231 L 208,231 L 207,230 L 207,229 L 204,229 L 203,228 L 203,227 L 199,227 L 198,226 L 198,225 L 195,225 L 194,224 L 194,223 L 191,223 L 190,222 L 190,221 L 189,221 L 188,220 L 188,218 L 185,218 L 184,217 L 184,216 L 183,216 L 182,215 L 181,215 L 180,214 L 173,214 L 172,213 L 172,212 L 171,211 L 169,211 L 168,210 L 164,210 L 163,209 L 163,208 L 162,207 L 162,206 L 161,206 L 160,205 L 160,204 L 158,204 L 157,203 L 155,203 L 154,202 L 154,200 L 152,200 L 151,199 L 151,197 L 149,197 L 148,196 Z" fill="none" stroke="black" stroke-width="1"/>
</svg>