<svg xmlns="http://www.w3.org/2000/svg" width="588" height="448">
  <path d="M 284,15 L 284,26 L 283,27 L 283,29 L 282,30 L 282,31 L 281,32 L 280,32 L 280,34 L 278,36 L 277,36 L 275,38 L 272,38 L 272,39 L 270,41 L 269,41 L 269,44 L 268,45 L 267,45 L 266,44 L 260,44 L 259,45 L 258,45 L 258,46 L 259,46 L 260,47 L 260,48 L 264,52 L 264,53 L 265,54 L 265,55 L 267,57 L 269,57 L 270,58 L 270,59 L 272,59 L 274,57 L 275,57 L 275,56 L 276,55 L 277,55 L 279,53 L 281,53 L 281,50 L 282,49 L 284,49 L 285,48 L 290,48 L 290,47 L 291,46 L 293,46 L 293,44 L 294,43 L 295,43 L 296,42 L 297,42 L 297,37 L 298,36 L 298,35 L 297,34 L 297,33 L 296,32 L 296,31 L 295,30 L 295,24 L 294,23 L 294,16 L 293,15 L 290,15 L 289,16 L 286,16 L 285,15 Z" fill="none" stroke="black" stroke-width="1"/>
</svg>