<svg xmlns="http://www.w3.org/2000/svg" width="337" height="324">
  <path d="M 178,186 L 177,187 L 176,187 L 175,188 L 171,188 L 170,187 L 165,187 L 164,188 L 163,188 L 162,189 L 161,189 L 161,195 L 160,196 L 156,196 L 156,197 L 155,198 L 153,198 L 151,200 L 149,200 L 149,201 L 148,202 L 148,203 L 146,205 L 144,205 L 144,206 L 145,207 L 145,208 L 146,209 L 149,209 L 150,208 L 151,209 L 152,209 L 153,210 L 153,213 L 149,217 L 149,218 L 150,219 L 151,218 L 152,219 L 152,221 L 151,222 L 151,223 L 152,224 L 152,225 L 153,226 L 153,227 L 152,228 L 152,229 L 150,231 L 150,232 L 149,233 L 148,233 L 147,234 L 146,234 L 145,235 L 145,236 L 144,237 L 141,237 L 140,238 L 139,238 L 139,239 L 138,240 L 136,240 L 136,241 L 137,242 L 137,245 L 140,248 L 140,249 L 142,249 L 144,251 L 147,251 L 148,250 L 150,250 L 150,249 L 151,248 L 156,248 L 158,250 L 158,251 L 159,252 L 159,255 L 160,255 L 160,254 L 161,253 L 168,253 L 169,252 L 170,252 L 172,250 L 172,249 L 173,248 L 173,246 L 175,244 L 176,244 L 177,243 L 178,243 L 179,242 L 180,242 L 181,241 L 184,241 L 185,240 L 186,240 L 188,238 L 191,238 L 192,239 L 193,239 L 194,240 L 198,240 L 200,238 L 200,233 L 201,232 L 201,231 L 203,229 L 203,228 L 204,227 L 204,223 L 205,222 L 205,221 L 210,216 L 211,216 L 212,215 L 215,215 L 215,211 L 216,210 L 216,209 L 217,208 L 217,204 L 216,203 L 216,199 L 211,199 L 210,198 L 208,198 L 206,200 L 204,198 L 203,198 L 202,197 L 201,197 L 200,196 L 199,196 L 197,194 L 197,193 L 196,192 L 196,189 L 195,188 L 194,188 L 193,187 L 187,187 L 186,186 Z" fill="none" stroke="black" stroke-width="1"/>
</svg>