<svg xmlns="http://www.w3.org/2000/svg" width="477" height="617">
  <path d="M 199,604 L 199,606 L 199,605 L 200,604 Z" fill="none" stroke="black" stroke-width="1"/>
  <path d="M 236,538 L 235,539 L 233,539 L 230,542 L 230,543 L 228,545 L 227,545 L 226,546 L 222,546 L 221,547 L 215,547 L 213,549 L 212,549 L 211,550 L 210,550 L 209,551 L 208,551 L 207,552 L 205,552 L 204,553 L 202,553 L 201,552 L 200,552 L 199,551 L 196,551 L 195,550 L 190,550 L 189,551 L 189,555 L 188,556 L 188,561 L 189,562 L 189,563 L 192,566 L 192,581 L 191,582 L 191,583 L 187,587 L 187,588 L 185,590 L 185,598 L 187,600 L 187,601 L 188,602 L 188,603 L 189,604 L 189,607 L 188,608 L 188,613 L 189,613 L 191,615 L 191,616 L 192,616 L 192,614 L 193,613 L 193,612 L 194,611 L 194,610 L 196,608 L 196,607 L 195,607 L 194,606 L 194,605 L 195,604 L 194,603 L 194,602 L 195,601 L 197,601 L 197,600 L 198,599 L 198,596 L 201,593 L 202,593 L 203,592 L 203,591 L 204,590 L 205,590 L 206,589 L 206,588 L 208,586 L 208,585 L 210,583 L 210,580 L 211,579 L 211,578 L 210,577 L 210,573 L 211,572 L 212,573 L 212,575 L 214,575 L 215,576 L 215,578 L 216,578 L 218,576 L 219,576 L 220,575 L 222,577 L 221,578 L 221,579 L 220,580 L 219,580 L 220,581 L 220,583 L 219,584 L 219,585 L 218,586 L 217,586 L 215,588 L 215,589 L 214,590 L 212,590 L 212,594 L 205,601 L 204,601 L 204,602 L 203,603 L 204,603 L 206,601 L 207,601 L 210,598 L 211,598 L 211,597 L 216,592 L 216,591 L 218,589 L 219,589 L 219,588 L 220,587 L 220,586 L 221,585 L 221,584 L 224,581 L 224,580 L 225,579 L 225,578 L 226,577 L 226,575 L 227,574 L 227,573 L 228,572 L 228,569 L 231,566 L 231,565 L 232,564 L 232,563 L 234,561 L 235,561 L 236,560 L 236,559 L 237,558 L 237,557 L 238,556 L 239,556 L 239,555 L 240,554 L 240,553 L 242,551 L 243,551 L 244,550 L 244,549 L 242,549 L 240,547 L 240,543 L 239,542 L 239,540 L 237,538 Z" fill="none" stroke="black" stroke-width="1"/>
</svg>