<svg xmlns="http://www.w3.org/2000/svg" width="588" height="448">
  <path d="M 232,19 L 230,21 L 230,22 L 229,23 L 228,23 L 228,24 L 227,25 L 227,27 L 226,28 L 226,30 L 225,31 L 225,34 L 224,35 L 222,35 L 221,36 L 221,37 L 220,38 L 218,38 L 218,41 L 220,41 L 221,42 L 236,42 L 238,44 L 240,44 L 241,45 L 253,45 L 253,42 L 254,41 L 254,37 L 255,36 L 255,33 L 256,32 L 256,23 L 255,22 L 255,20 L 254,20 L 253,21 L 252,21 L 251,22 L 250,22 L 248,24 L 246,24 L 245,25 L 244,25 L 242,23 L 241,23 L 237,19 Z" fill="none" stroke="black" stroke-width="1"/>
</svg>