<svg xmlns="http://www.w3.org/2000/svg" width="588" height="448">
  <path d="M 287,0 L 286,1 L 282,1 L 280,3 L 276,3 L 274,5 L 273,5 L 270,8 L 270,9 L 265,14 L 262,14 L 261,15 L 260,15 L 257,18 L 257,19 L 256,20 L 256,22 L 257,23 L 257,32 L 256,33 L 256,36 L 255,37 L 255,41 L 254,42 L 254,45 L 255,46 L 257,46 L 257,45 L 258,44 L 259,44 L 260,43 L 266,43 L 267,44 L 268,44 L 268,41 L 269,40 L 270,40 L 271,39 L 271,38 L 272,37 L 275,37 L 277,35 L 278,35 L 279,34 L 279,32 L 280,31 L 281,31 L 281,30 L 282,29 L 282,27 L 283,26 L 283,15 L 284,14 L 285,14 L 286,15 L 287,15 L 287,13 L 288,12 L 288,0 Z" fill="none" stroke="black" stroke-width="1"/>
</svg>