<svg xmlns="http://www.w3.org/2000/svg" width="588" height="448">
  <path d="M 177,169 L 176,170 L 175,170 L 174,171 L 173,171 L 172,172 L 162,172 L 161,173 L 158,173 L 157,174 L 156,174 L 155,175 L 153,175 L 152,176 L 152,177 L 156,181 L 157,181 L 158,182 L 159,182 L 163,186 L 164,186 L 166,188 L 166,189 L 167,190 L 167,192 L 168,193 L 168,194 L 169,195 L 169,197 L 170,197 L 174,201 L 178,201 L 179,200 L 181,200 L 183,202 L 185,202 L 186,203 L 188,203 L 189,204 L 193,204 L 194,205 L 199,205 L 201,207 L 202,207 L 203,208 L 204,208 L 206,210 L 209,210 L 210,211 L 215,211 L 216,210 L 217,210 L 218,209 L 223,209 L 223,208 L 224,207 L 224,206 L 225,205 L 225,200 L 224,199 L 224,197 L 222,197 L 221,196 L 219,196 L 218,195 L 214,195 L 213,194 L 212,194 L 210,192 L 210,191 L 208,189 L 207,189 L 206,188 L 205,188 L 204,187 L 203,187 L 201,185 L 201,181 L 200,180 L 199,180 L 198,179 L 195,179 L 194,178 L 190,178 L 188,176 L 188,175 L 187,175 L 186,174 L 186,173 L 184,171 L 184,170 L 180,170 L 179,169 Z" fill="none" stroke="black" stroke-width="1"/>
</svg>