<svg xmlns="http://www.w3.org/2000/svg" width="315" height="148">
  <path d="M 145,96 L 144,97 L 144,98 L 147,98 L 148,99 L 146,101 L 145,101 L 144,100 L 143,100 L 142,99 L 141,99 L 139,101 L 135,101 L 135,103 L 137,105 L 140,105 L 145,110 L 146,110 L 147,111 L 147,112 L 146,113 L 145,113 L 143,111 L 142,111 L 141,110 L 141,111 L 140,112 L 138,112 L 137,113 L 137,114 L 136,115 L 136,117 L 134,119 L 138,123 L 138,124 L 139,125 L 139,127 L 140,128 L 140,129 L 142,131 L 142,132 L 152,132 L 152,131 L 153,130 L 155,130 L 155,129 L 157,127 L 162,127 L 164,125 L 165,125 L 165,123 L 166,122 L 172,122 L 172,120 L 171,119 L 171,115 L 170,114 L 170,113 L 169,112 L 169,109 L 168,109 L 167,108 L 166,108 L 165,107 L 164,107 L 161,104 L 161,103 L 160,102 L 160,100 L 159,100 L 158,99 L 156,99 L 155,98 L 151,98 L 150,97 L 147,97 L 146,96 Z" fill="none" stroke="black" stroke-width="1"/>
</svg>