<svg xmlns="http://www.w3.org/2000/svg" width="588" height="448">
  <path d="M 145,134 L 144,135 L 144,139 L 142,141 L 141,141 L 139,139 L 137,139 L 136,140 L 131,140 L 131,144 L 129,146 L 129,148 L 128,149 L 128,168 L 127,169 L 127,170 L 126,171 L 125,171 L 125,174 L 124,175 L 124,176 L 125,176 L 126,177 L 128,177 L 129,178 L 130,178 L 131,179 L 145,179 L 146,178 L 148,178 L 151,175 L 152,175 L 153,174 L 155,174 L 156,173 L 157,173 L 158,172 L 161,172 L 162,171 L 172,171 L 173,170 L 174,170 L 175,169 L 176,169 L 174,167 L 174,166 L 172,164 L 171,164 L 170,163 L 168,163 L 167,162 L 167,161 L 166,160 L 166,159 L 164,157 L 164,156 L 163,155 L 163,153 L 167,149 L 166,149 L 165,148 L 164,148 L 163,147 L 162,147 L 161,146 L 161,145 L 160,144 L 160,143 L 157,140 L 156,140 L 155,139 L 154,139 L 153,138 L 152,138 L 150,136 L 148,136 L 147,135 L 146,135 Z" fill="none" stroke="black" stroke-width="1"/>
</svg>