<svg xmlns="http://www.w3.org/2000/svg" width="588" height="448">
  <path d="M 29,80 L 28,81 L 27,81 L 27,93 L 26,94 L 26,95 L 27,96 L 27,97 L 24,100 L 23,99 L 22,100 L 22,109 L 23,110 L 23,117 L 24,118 L 24,122 L 25,123 L 25,132 L 27,134 L 26,135 L 26,139 L 35,139 L 37,137 L 38,137 L 40,135 L 41,135 L 42,134 L 46,134 L 47,133 L 49,133 L 49,131 L 48,130 L 48,128 L 47,127 L 47,123 L 46,123 L 45,122 L 45,118 L 44,117 L 44,112 L 42,110 L 42,109 L 43,108 L 43,107 L 45,105 L 45,101 L 44,100 L 44,99 L 43,98 L 43,96 L 44,95 L 44,94 L 45,93 L 47,93 L 47,92 L 48,91 L 48,90 L 49,89 L 49,88 L 46,88 L 45,87 L 44,87 L 40,83 L 40,82 L 38,82 L 37,81 L 34,81 L 33,80 Z" fill="none" stroke="black" stroke-width="1"/>
</svg>