<svg xmlns="http://www.w3.org/2000/svg" width="588" height="448">
  <path d="M 102,203 L 97,208 L 97,210 L 96,211 L 95,211 L 94,212 L 93,212 L 92,213 L 84,213 L 83,212 L 79,212 L 78,211 L 77,211 L 77,213 L 74,216 L 73,216 L 74,217 L 74,219 L 73,220 L 73,221 L 77,221 L 79,223 L 80,223 L 81,224 L 82,224 L 84,226 L 84,227 L 85,228 L 85,229 L 86,230 L 86,233 L 87,233 L 88,234 L 90,234 L 91,235 L 91,236 L 92,237 L 92,240 L 94,242 L 98,242 L 99,243 L 100,243 L 103,246 L 105,246 L 106,247 L 110,247 L 111,248 L 117,248 L 118,249 L 119,249 L 120,250 L 121,250 L 122,251 L 123,251 L 126,254 L 128,254 L 128,253 L 132,249 L 132,248 L 133,247 L 133,246 L 134,245 L 134,240 L 135,239 L 135,238 L 138,235 L 138,234 L 140,232 L 141,232 L 139,232 L 138,231 L 134,231 L 133,230 L 129,230 L 124,225 L 123,225 L 122,224 L 121,224 L 120,223 L 120,218 L 119,217 L 119,214 L 118,213 L 115,213 L 113,211 L 113,209 L 111,209 L 108,206 L 106,206 L 104,204 L 104,203 Z" fill="none" stroke="black" stroke-width="1"/>
</svg>