<svg xmlns="http://www.w3.org/2000/svg" width="337" height="324">
  <path d="M 61,181 L 60,182 L 59,182 L 58,183 L 57,183 L 57,184 L 56,185 L 56,186 L 55,187 L 55,188 L 54,189 L 54,193 L 55,194 L 55,196 L 54,197 L 54,198 L 51,201 L 50,201 L 50,202 L 49,203 L 49,207 L 51,209 L 51,210 L 48,213 L 46,213 L 46,214 L 45,215 L 44,215 L 43,216 L 37,216 L 36,217 L 31,217 L 31,222 L 30,223 L 30,225 L 28,227 L 28,232 L 30,234 L 31,234 L 33,236 L 33,237 L 34,238 L 34,239 L 35,240 L 35,241 L 36,241 L 37,242 L 38,242 L 39,243 L 40,243 L 41,244 L 45,244 L 45,243 L 47,241 L 48,241 L 49,240 L 52,240 L 53,239 L 54,239 L 55,238 L 58,238 L 59,237 L 62,237 L 63,236 L 67,236 L 68,237 L 70,237 L 71,238 L 73,238 L 74,239 L 74,241 L 75,241 L 76,242 L 76,243 L 77,244 L 82,244 L 85,247 L 89,247 L 89,245 L 87,243 L 88,242 L 88,241 L 89,240 L 88,239 L 89,238 L 89,237 L 90,236 L 84,230 L 84,220 L 85,219 L 85,218 L 86,217 L 87,217 L 90,214 L 90,213 L 91,212 L 91,206 L 90,205 L 90,203 L 91,202 L 90,201 L 90,198 L 89,197 L 88,197 L 87,196 L 87,195 L 86,195 L 85,194 L 84,194 L 82,192 L 81,192 L 80,191 L 80,188 L 77,185 L 76,185 L 75,184 L 74,184 L 72,182 L 71,182 L 70,183 L 68,181 Z" fill="none" stroke="black" stroke-width="1"/>
</svg>