<svg xmlns="http://www.w3.org/2000/svg" width="588" height="448">
  <path d="M 118,176 L 118,185 L 117,186 L 117,190 L 116,191 L 116,192 L 115,193 L 114,193 L 114,194 L 110,198 L 109,198 L 108,199 L 108,205 L 111,208 L 113,208 L 114,209 L 114,211 L 115,212 L 118,212 L 120,214 L 120,217 L 121,218 L 121,223 L 122,223 L 123,224 L 124,224 L 129,229 L 133,229 L 134,230 L 138,230 L 139,231 L 146,231 L 147,230 L 148,230 L 149,229 L 149,225 L 150,224 L 150,217 L 149,216 L 149,215 L 148,214 L 148,209 L 153,204 L 158,204 L 159,203 L 160,203 L 162,201 L 163,201 L 166,198 L 168,198 L 168,195 L 167,194 L 167,193 L 166,192 L 166,190 L 165,189 L 165,188 L 164,187 L 163,187 L 159,183 L 158,183 L 157,182 L 156,182 L 151,177 L 151,176 L 148,179 L 146,179 L 145,180 L 131,180 L 130,179 L 129,179 L 128,178 L 126,178 L 125,177 L 124,177 L 123,176 Z" fill="none" stroke="black" stroke-width="1"/>
</svg>