<svg xmlns="http://www.w3.org/2000/svg" width="588" height="448">
  <path d="M 169,198 L 168,199 L 166,199 L 163,202 L 162,202 L 160,204 L 159,204 L 158,205 L 153,205 L 149,209 L 149,214 L 150,215 L 150,216 L 151,217 L 151,224 L 150,225 L 150,229 L 156,229 L 158,231 L 161,231 L 162,232 L 167,232 L 168,233 L 172,233 L 173,232 L 173,230 L 175,228 L 177,228 L 179,226 L 184,226 L 185,225 L 192,225 L 193,224 L 194,224 L 196,222 L 200,222 L 201,223 L 202,223 L 204,221 L 205,221 L 205,218 L 206,217 L 206,216 L 207,215 L 207,214 L 208,213 L 208,211 L 206,211 L 204,209 L 203,209 L 202,208 L 201,208 L 199,206 L 194,206 L 193,205 L 189,205 L 188,204 L 186,204 L 185,203 L 183,203 L 181,201 L 179,201 L 178,202 L 174,202 L 170,198 Z" fill="none" stroke="black" stroke-width="1"/>
</svg>