<svg xmlns="http://www.w3.org/2000/svg" width="588" height="448">
  <path d="M 101,171 L 100,172 L 96,172 L 95,173 L 93,173 L 92,174 L 89,174 L 89,177 L 90,178 L 90,179 L 91,180 L 91,184 L 90,185 L 90,186 L 87,189 L 87,190 L 86,191 L 86,192 L 83,195 L 83,197 L 80,200 L 80,201 L 78,203 L 76,203 L 76,205 L 77,205 L 78,206 L 78,207 L 80,207 L 81,208 L 81,211 L 83,211 L 84,212 L 92,212 L 93,211 L 94,211 L 95,210 L 96,210 L 96,208 L 102,202 L 104,202 L 105,203 L 105,204 L 106,205 L 107,205 L 107,199 L 109,197 L 110,197 L 113,194 L 113,193 L 114,192 L 115,192 L 115,191 L 116,190 L 116,186 L 117,185 L 117,177 L 112,177 L 111,176 L 110,176 L 109,175 L 107,175 L 106,174 L 106,171 Z" fill="none" stroke="black" stroke-width="1"/>
</svg>