<svg xmlns="http://www.w3.org/2000/svg" width="588" height="448">
  <path d="M 111,249 L 111,250 L 110,251 L 110,252 L 109,253 L 109,257 L 108,258 L 108,260 L 107,261 L 107,267 L 108,267 L 109,268 L 109,271 L 110,272 L 110,273 L 111,274 L 111,275 L 112,275 L 113,276 L 113,277 L 114,278 L 114,279 L 116,281 L 123,281 L 124,280 L 124,276 L 123,275 L 124,274 L 124,273 L 126,271 L 130,271 L 132,273 L 134,273 L 135,274 L 136,274 L 137,275 L 139,275 L 140,276 L 141,276 L 142,275 L 142,268 L 141,267 L 141,265 L 138,262 L 137,262 L 136,261 L 135,261 L 134,260 L 133,260 L 130,257 L 130,256 L 129,255 L 126,255 L 123,252 L 122,252 L 121,251 L 120,251 L 119,250 L 118,250 L 117,249 Z" fill="none" stroke="black" stroke-width="1"/>
</svg>