<svg xmlns="http://www.w3.org/2000/svg" width="588" height="448">
  <path d="M 45,355 L 44,356 L 41,356 L 40,357 L 39,357 L 38,356 L 36,356 L 35,357 L 35,363 L 36,364 L 36,373 L 35,374 L 35,375 L 34,376 L 34,377 L 35,378 L 35,379 L 37,381 L 37,383 L 38,383 L 39,384 L 39,385 L 41,387 L 41,388 L 42,389 L 42,390 L 43,391 L 43,392 L 44,392 L 49,397 L 49,399 L 50,400 L 50,406 L 51,407 L 51,409 L 53,409 L 54,410 L 55,410 L 57,412 L 58,412 L 58,410 L 59,409 L 61,409 L 62,408 L 63,408 L 64,409 L 65,408 L 72,408 L 72,406 L 73,405 L 74,405 L 75,406 L 77,406 L 78,407 L 80,407 L 81,408 L 82,408 L 83,409 L 83,407 L 82,407 L 81,406 L 81,405 L 80,404 L 80,403 L 79,402 L 79,401 L 77,399 L 77,398 L 76,397 L 76,396 L 75,395 L 75,393 L 74,392 L 75,391 L 75,388 L 77,386 L 78,386 L 79,385 L 80,386 L 81,386 L 82,385 L 83,385 L 84,384 L 87,384 L 89,382 L 90,382 L 90,380 L 91,379 L 91,377 L 90,376 L 92,374 L 92,372 L 93,371 L 94,371 L 95,370 L 94,370 L 91,367 L 90,367 L 89,366 L 86,366 L 85,365 L 83,365 L 82,364 L 82,363 L 81,363 L 77,359 L 74,359 L 73,358 L 66,358 L 65,359 L 59,359 L 58,358 L 56,358 L 55,357 L 53,357 L 52,356 L 52,355 Z" fill="none" stroke="black" stroke-width="1"/>
</svg>