<svg xmlns="http://www.w3.org/2000/svg" width="588" height="448">
  <path d="M 86,234 L 85,235 L 84,235 L 83,236 L 72,236 L 71,237 L 69,237 L 69,240 L 71,240 L 74,243 L 74,245 L 75,246 L 75,251 L 73,253 L 72,253 L 71,254 L 68,254 L 67,255 L 67,256 L 66,257 L 66,258 L 65,259 L 65,260 L 64,261 L 64,262 L 63,263 L 62,263 L 61,264 L 70,264 L 72,266 L 73,266 L 74,267 L 76,267 L 77,268 L 79,268 L 80,269 L 80,270 L 82,272 L 82,273 L 83,274 L 83,277 L 84,277 L 87,280 L 87,281 L 88,282 L 88,283 L 89,283 L 90,284 L 104,284 L 106,282 L 106,281 L 107,280 L 107,278 L 109,276 L 110,276 L 110,274 L 109,273 L 109,272 L 108,271 L 108,268 L 107,268 L 106,267 L 106,261 L 107,260 L 107,258 L 108,257 L 108,253 L 109,252 L 109,251 L 110,250 L 110,248 L 106,248 L 105,247 L 103,247 L 100,244 L 99,244 L 98,243 L 94,243 L 91,240 L 91,237 L 90,236 L 90,235 L 88,235 L 87,234 Z" fill="none" stroke="black" stroke-width="1"/>
</svg>