<svg xmlns="http://www.w3.org/2000/svg" width="315" height="148">
  <path d="M 202,42 L 201,43 L 194,43 L 193,44 L 192,44 L 192,45 L 194,47 L 195,47 L 196,48 L 196,49 L 195,50 L 191,50 L 191,51 L 188,54 L 188,56 L 189,57 L 189,58 L 190,59 L 190,60 L 189,61 L 188,61 L 187,62 L 186,62 L 184,64 L 183,64 L 182,65 L 180,65 L 179,66 L 178,66 L 177,67 L 176,67 L 179,67 L 180,68 L 181,68 L 183,70 L 183,73 L 184,74 L 184,76 L 182,78 L 181,78 L 181,79 L 180,80 L 179,80 L 179,82 L 186,82 L 187,83 L 188,83 L 190,85 L 191,85 L 192,86 L 195,86 L 197,84 L 198,84 L 200,82 L 202,82 L 204,80 L 205,80 L 206,79 L 207,79 L 208,78 L 211,78 L 212,77 L 213,77 L 214,76 L 214,74 L 215,73 L 215,70 L 216,69 L 216,66 L 217,65 L 217,58 L 218,57 L 216,57 L 215,56 L 215,55 L 214,54 L 214,53 L 213,52 L 213,51 L 211,49 L 211,47 L 210,46 L 210,43 L 206,43 L 205,42 Z" fill="none" stroke="black" stroke-width="1"/>
</svg>