<svg xmlns="http://www.w3.org/2000/svg" width="588" height="448">
  <path d="M 67,241 L 66,242 L 65,242 L 64,243 L 63,243 L 62,244 L 61,244 L 60,245 L 59,245 L 57,247 L 54,247 L 53,248 L 48,248 L 47,247 L 45,247 L 43,245 L 43,244 L 40,244 L 39,243 L 33,243 L 33,244 L 32,245 L 32,247 L 31,248 L 31,256 L 32,257 L 32,265 L 31,266 L 31,270 L 36,275 L 36,278 L 38,280 L 41,280 L 42,279 L 43,279 L 44,280 L 49,280 L 51,278 L 52,278 L 53,277 L 55,277 L 56,276 L 56,275 L 58,273 L 58,270 L 59,269 L 59,267 L 60,266 L 60,264 L 62,262 L 63,262 L 63,261 L 64,260 L 64,259 L 65,258 L 65,257 L 66,256 L 66,255 L 68,253 L 71,253 L 72,252 L 73,252 L 74,251 L 74,246 L 73,245 L 73,243 L 71,241 Z" fill="none" stroke="black" stroke-width="1"/>
</svg>