<svg xmlns="http://www.w3.org/2000/svg" width="588" height="448">
  <path d="M 49,159 L 48,160 L 48,161 L 47,162 L 47,163 L 46,164 L 46,165 L 45,166 L 45,168 L 47,170 L 47,175 L 45,177 L 45,179 L 44,180 L 44,181 L 42,183 L 42,184 L 41,185 L 41,187 L 40,188 L 40,189 L 39,190 L 39,194 L 40,195 L 40,196 L 41,197 L 41,201 L 42,202 L 42,204 L 59,204 L 61,206 L 62,206 L 63,207 L 63,208 L 64,209 L 64,210 L 65,211 L 65,212 L 66,212 L 67,213 L 69,213 L 70,214 L 70,215 L 71,215 L 72,216 L 73,215 L 74,215 L 76,213 L 76,211 L 77,210 L 78,210 L 79,211 L 80,211 L 80,208 L 78,208 L 77,207 L 77,206 L 76,206 L 75,205 L 75,203 L 76,202 L 78,202 L 79,201 L 79,200 L 82,197 L 82,195 L 85,192 L 85,191 L 86,190 L 86,189 L 89,186 L 89,185 L 90,184 L 90,180 L 89,179 L 89,178 L 88,177 L 88,174 L 80,174 L 79,173 L 73,173 L 71,175 L 70,175 L 69,176 L 65,176 L 63,174 L 63,168 L 60,165 L 58,165 L 57,164 L 56,164 L 51,159 Z" fill="none" stroke="black" stroke-width="1"/>
</svg>