<svg xmlns="http://www.w3.org/2000/svg" width="588" height="448">
  <path d="M 5,302 L 6,303 L 7,302 Z" fill="none" stroke="black" stroke-width="1"/>
  <path d="M 11,212 L 11,213 L 10,214 L 11,215 L 11,219 L 12,220 L 12,221 L 13,222 L 13,223 L 15,225 L 15,228 L 14,229 L 14,230 L 15,231 L 15,234 L 16,235 L 16,236 L 17,237 L 17,238 L 18,239 L 18,241 L 19,242 L 19,244 L 20,245 L 20,251 L 19,252 L 19,254 L 18,255 L 15,255 L 14,256 L 15,257 L 15,259 L 14,260 L 14,261 L 15,262 L 14,263 L 14,271 L 15,272 L 15,276 L 18,276 L 19,277 L 18,278 L 17,278 L 17,280 L 18,280 L 19,281 L 18,282 L 14,282 L 14,284 L 13,285 L 12,285 L 12,288 L 13,289 L 13,290 L 14,291 L 13,292 L 13,293 L 12,294 L 12,295 L 11,296 L 12,297 L 12,299 L 13,299 L 14,300 L 18,300 L 18,299 L 17,298 L 17,297 L 18,296 L 21,296 L 19,294 L 20,293 L 21,293 L 20,293 L 18,291 L 17,291 L 16,290 L 17,289 L 18,289 L 19,288 L 20,288 L 19,288 L 18,287 L 19,286 L 21,286 L 19,284 L 19,283 L 18,282 L 19,281 L 20,281 L 21,280 L 22,281 L 23,280 L 24,280 L 24,277 L 25,276 L 28,276 L 29,277 L 30,277 L 33,274 L 34,274 L 30,270 L 30,266 L 31,265 L 31,257 L 30,256 L 30,248 L 31,247 L 31,245 L 32,244 L 32,243 L 31,242 L 31,240 L 32,239 L 32,236 L 31,235 L 31,232 L 32,231 L 32,230 L 31,229 L 31,224 L 30,223 L 30,219 L 29,218 L 29,216 L 28,216 L 27,215 L 25,215 L 24,214 L 24,213 L 19,213 L 18,212 Z" fill="none" stroke="black" stroke-width="1"/>
</svg>