<svg xmlns="http://www.w3.org/2000/svg" width="588" height="448">
  <path d="M 17,309 L 16,310 L 16,313 L 15,314 L 14,313 L 10,313 L 10,314 L 11,314 L 12,313 L 13,314 L 14,314 L 15,315 L 14,316 L 10,316 L 11,316 L 12,317 L 13,316 L 14,316 L 15,317 L 16,316 L 17,316 L 18,317 L 20,317 L 21,318 L 21,316 L 20,315 L 18,315 L 17,314 L 17,313 L 19,311 L 18,311 L 17,310 Z" fill="none" stroke="black" stroke-width="1"/>
  <path d="M 19,308 L 20,308 Z" fill="none" stroke="black" stroke-width="1"/>
  <path d="M 33,275 L 30,278 L 30,281 L 29,282 L 29,283 L 31,283 L 32,284 L 32,285 L 30,287 L 29,286 L 29,287 L 31,289 L 30,290 L 28,290 L 28,292 L 29,293 L 29,294 L 30,295 L 29,296 L 28,296 L 29,297 L 29,299 L 28,300 L 26,300 L 26,303 L 27,304 L 27,305 L 28,306 L 26,308 L 25,308 L 25,310 L 26,311 L 27,311 L 28,312 L 27,313 L 26,313 L 26,315 L 25,316 L 23,316 L 23,317 L 24,318 L 27,318 L 28,317 L 30,317 L 31,316 L 32,316 L 33,317 L 33,318 L 32,319 L 31,319 L 30,320 L 27,320 L 26,321 L 25,321 L 25,322 L 24,323 L 30,323 L 31,324 L 31,325 L 32,325 L 33,326 L 35,326 L 37,324 L 37,321 L 38,320 L 38,309 L 41,306 L 41,305 L 43,303 L 43,302 L 41,300 L 41,298 L 40,297 L 40,292 L 41,291 L 41,288 L 42,287 L 42,282 L 43,281 L 43,280 L 42,280 L 41,281 L 38,281 L 35,278 L 35,275 Z" fill="none" stroke="black" stroke-width="1"/>
</svg>