<svg xmlns="http://www.w3.org/2000/svg" width="588" height="448">
  <path d="M 61,265 L 61,266 L 60,267 L 60,269 L 59,270 L 59,273 L 57,275 L 57,276 L 55,278 L 53,278 L 52,279 L 51,279 L 49,281 L 44,281 L 43,282 L 43,287 L 42,288 L 42,291 L 41,292 L 41,297 L 42,298 L 42,300 L 43,301 L 47,301 L 48,300 L 50,300 L 51,301 L 54,301 L 55,302 L 56,302 L 57,303 L 61,303 L 62,304 L 62,305 L 64,307 L 64,308 L 66,310 L 73,310 L 74,309 L 84,309 L 85,308 L 91,308 L 93,306 L 96,306 L 96,305 L 97,304 L 97,303 L 99,301 L 99,300 L 100,299 L 100,298 L 101,297 L 101,295 L 103,293 L 103,292 L 104,291 L 104,290 L 105,289 L 105,288 L 106,287 L 106,286 L 105,285 L 90,285 L 89,284 L 88,284 L 87,283 L 87,282 L 86,281 L 86,280 L 84,278 L 83,278 L 82,277 L 82,274 L 81,273 L 81,272 L 79,270 L 79,269 L 77,269 L 76,268 L 74,268 L 73,267 L 72,267 L 70,265 Z" fill="none" stroke="black" stroke-width="1"/>
</svg>