<svg xmlns="http://www.w3.org/2000/svg" width="588" height="448">
  <path d="M 48,301 L 47,302 L 44,302 L 44,303 L 42,305 L 42,306 L 39,309 L 39,320 L 38,321 L 38,324 L 35,327 L 35,328 L 34,329 L 34,330 L 33,331 L 33,333 L 32,334 L 32,336 L 33,337 L 33,338 L 34,339 L 34,343 L 33,344 L 33,352 L 34,353 L 34,356 L 35,356 L 36,355 L 38,355 L 39,356 L 40,356 L 41,355 L 44,355 L 45,354 L 52,354 L 53,355 L 53,356 L 55,356 L 56,357 L 58,357 L 59,358 L 65,358 L 66,357 L 70,357 L 70,349 L 71,348 L 71,347 L 72,346 L 72,345 L 73,344 L 73,339 L 74,338 L 74,336 L 73,335 L 73,330 L 80,323 L 80,322 L 81,321 L 83,321 L 83,320 L 85,318 L 86,318 L 86,313 L 87,312 L 87,309 L 85,309 L 84,310 L 74,310 L 73,311 L 66,311 L 63,308 L 63,307 L 61,305 L 61,304 L 57,304 L 56,303 L 55,303 L 54,302 L 51,302 L 50,301 Z" fill="none" stroke="black" stroke-width="1"/>
</svg>