<svg xmlns="http://www.w3.org/2000/svg" width="588" height="448">
  <path d="M 81,119 L 80,120 L 67,120 L 66,121 L 64,121 L 63,122 L 57,122 L 56,123 L 53,123 L 52,122 L 49,122 L 48,123 L 48,127 L 49,128 L 49,130 L 50,131 L 50,137 L 51,138 L 51,139 L 52,140 L 52,144 L 51,145 L 51,148 L 50,149 L 50,150 L 49,151 L 49,158 L 51,158 L 56,163 L 57,163 L 58,164 L 60,164 L 64,168 L 64,174 L 65,175 L 69,175 L 70,174 L 71,174 L 73,172 L 79,172 L 80,173 L 92,173 L 93,172 L 95,172 L 96,171 L 100,171 L 101,170 L 107,170 L 107,160 L 105,160 L 104,159 L 104,154 L 103,153 L 103,147 L 102,146 L 102,143 L 101,142 L 100,142 L 99,141 L 99,138 L 97,136 L 97,126 L 95,124 L 95,123 L 93,121 L 93,120 L 89,120 L 88,121 L 85,121 L 84,120 L 83,120 L 82,119 Z" fill="none" stroke="black" stroke-width="1"/>
</svg>