<svg xmlns="http://www.w3.org/2000/svg" width="284" height="322">
  <path d="M 134,212 L 134,213 L 133,214 L 133,216 L 132,217 L 132,218 L 129,221 L 128,221 L 123,226 L 122,226 L 122,227 L 121,228 L 119,228 L 117,230 L 115,230 L 115,234 L 116,235 L 116,236 L 118,238 L 118,242 L 119,243 L 119,244 L 120,245 L 120,255 L 121,256 L 121,268 L 122,269 L 122,276 L 123,277 L 123,280 L 126,280 L 127,279 L 133,279 L 136,276 L 138,276 L 138,272 L 139,271 L 140,271 L 142,269 L 143,269 L 144,268 L 144,265 L 145,264 L 145,263 L 146,262 L 146,260 L 147,259 L 147,257 L 148,256 L 148,255 L 149,254 L 149,253 L 151,251 L 151,250 L 152,249 L 152,248 L 155,245 L 156,245 L 157,244 L 159,244 L 162,241 L 163,241 L 165,239 L 168,239 L 168,237 L 167,236 L 166,236 L 162,232 L 162,231 L 161,231 L 159,229 L 159,228 L 158,227 L 158,226 L 157,225 L 156,225 L 155,224 L 153,224 L 148,219 L 147,219 L 145,217 L 143,217 L 142,216 L 141,216 L 138,213 L 137,213 L 136,212 Z" fill="none" stroke="black" stroke-width="1"/>
</svg>