<svg xmlns="http://www.w3.org/2000/svg" width="477" height="617">
  <path d="M 168,525 L 167,526 L 165,526 L 165,529 L 164,530 L 162,530 L 160,532 L 159,532 L 159,533 L 158,534 L 157,534 L 155,536 L 153,536 L 153,538 L 151,540 L 150,540 L 149,541 L 149,543 L 148,544 L 147,544 L 147,545 L 146,546 L 145,546 L 144,547 L 144,548 L 143,549 L 142,549 L 142,551 L 141,552 L 139,552 L 139,554 L 138,555 L 137,555 L 137,558 L 136,559 L 135,559 L 135,560 L 134,561 L 134,563 L 137,566 L 140,566 L 144,570 L 146,570 L 147,571 L 148,571 L 151,574 L 151,575 L 160,584 L 161,583 L 163,583 L 164,584 L 164,585 L 166,585 L 167,584 L 173,590 L 173,591 L 174,592 L 176,592 L 178,594 L 179,594 L 182,597 L 184,597 L 184,590 L 186,588 L 186,587 L 190,583 L 190,582 L 191,581 L 191,566 L 188,563 L 188,562 L 187,561 L 187,556 L 188,555 L 188,548 L 189,547 L 189,545 L 187,545 L 186,544 L 180,544 L 179,545 L 176,545 L 175,546 L 174,546 L 173,547 L 172,546 L 172,543 L 169,540 L 169,534 L 170,533 L 170,527 L 169,526 L 169,525 Z" fill="none" stroke="black" stroke-width="1"/>
</svg>