<svg xmlns="http://www.w3.org/2000/svg" width="337" height="324">
  <path d="M 130,193 L 129,194 L 127,194 L 126,195 L 124,195 L 122,197 L 120,197 L 119,198 L 115,198 L 114,199 L 111,199 L 110,200 L 102,200 L 100,198 L 97,198 L 96,199 L 91,199 L 91,201 L 92,202 L 91,203 L 91,205 L 92,206 L 92,212 L 91,213 L 91,214 L 87,218 L 86,218 L 86,219 L 85,220 L 85,230 L 92,237 L 96,237 L 97,236 L 101,236 L 102,235 L 110,235 L 111,236 L 118,236 L 119,237 L 122,237 L 123,238 L 130,238 L 131,239 L 134,239 L 135,240 L 136,239 L 138,239 L 138,238 L 139,237 L 140,237 L 141,236 L 144,236 L 144,235 L 146,233 L 147,233 L 148,232 L 149,232 L 149,231 L 151,229 L 151,228 L 152,227 L 152,226 L 151,225 L 151,224 L 150,223 L 150,222 L 151,221 L 151,219 L 150,220 L 148,218 L 148,217 L 152,213 L 152,210 L 151,210 L 150,209 L 149,210 L 146,210 L 144,208 L 144,207 L 143,206 L 143,205 L 144,204 L 146,204 L 147,203 L 147,202 L 148,201 L 148,200 L 149,199 L 151,199 L 151,198 L 150,198 L 149,197 L 147,197 L 146,196 L 143,196 L 142,195 L 140,195 L 138,193 Z" fill="none" stroke="black" stroke-width="1"/>
</svg>