<svg xmlns="http://www.w3.org/2000/svg" width="299" height="181">
  <path d="M 165,82 L 166,83 L 166,86 L 164,88 L 158,88 L 157,87 L 144,87 L 142,89 L 142,90 L 141,91 L 140,91 L 140,93 L 139,94 L 138,94 L 138,98 L 139,98 L 142,101 L 143,101 L 147,105 L 149,105 L 150,106 L 150,107 L 154,107 L 155,108 L 156,107 L 161,107 L 162,106 L 163,106 L 165,104 L 165,103 L 167,101 L 173,101 L 174,102 L 175,102 L 175,101 L 176,100 L 176,96 L 174,94 L 174,88 L 173,87 L 173,85 L 172,84 L 172,83 L 170,83 L 169,82 Z" fill="none" stroke="black" stroke-width="1"/>
</svg>