<svg xmlns="http://www.w3.org/2000/svg" width="477" height="617">
  <path d="M 143,371 L 141,373 L 134,373 L 133,374 L 130,374 L 129,375 L 127,375 L 126,376 L 119,376 L 119,380 L 118,381 L 117,381 L 117,383 L 116,384 L 113,384 L 113,386 L 112,387 L 112,392 L 111,393 L 111,398 L 110,399 L 110,401 L 112,403 L 112,405 L 113,406 L 113,410 L 114,411 L 114,419 L 112,421 L 112,422 L 119,422 L 120,423 L 125,423 L 126,424 L 129,424 L 130,425 L 136,425 L 137,424 L 141,424 L 145,420 L 149,420 L 150,419 L 152,419 L 153,418 L 154,418 L 155,417 L 158,417 L 159,416 L 162,416 L 162,415 L 164,413 L 164,409 L 165,408 L 165,405 L 164,404 L 164,401 L 160,397 L 160,396 L 159,395 L 159,389 L 160,388 L 160,386 L 161,385 L 161,383 L 160,382 L 160,380 L 159,379 L 159,377 L 158,376 L 158,375 L 157,375 L 156,374 L 156,373 L 155,372 L 155,371 Z" fill="none" stroke="black" stroke-width="1"/>
</svg>