<svg xmlns="http://www.w3.org/2000/svg" width="284" height="322">
  <path d="M 187,80 L 186,81 L 185,81 L 184,82 L 179,82 L 175,86 L 175,88 L 174,89 L 174,90 L 171,93 L 171,98 L 169,100 L 168,100 L 166,102 L 165,102 L 164,103 L 163,103 L 162,104 L 160,104 L 159,103 L 154,103 L 153,104 L 150,104 L 149,105 L 148,105 L 146,107 L 145,107 L 144,108 L 137,108 L 136,109 L 136,110 L 135,111 L 135,112 L 134,113 L 134,119 L 133,120 L 133,122 L 131,124 L 131,127 L 129,129 L 128,129 L 125,132 L 125,133 L 126,134 L 126,140 L 127,141 L 127,144 L 128,145 L 128,146 L 129,147 L 129,151 L 130,152 L 130,155 L 129,156 L 129,160 L 128,161 L 128,163 L 132,163 L 133,162 L 135,162 L 136,161 L 138,161 L 138,159 L 139,158 L 139,157 L 140,156 L 141,156 L 143,154 L 143,153 L 145,151 L 145,150 L 146,149 L 146,148 L 147,147 L 147,146 L 148,145 L 148,144 L 150,142 L 150,141 L 151,140 L 152,140 L 153,139 L 166,139 L 168,137 L 172,137 L 173,136 L 176,136 L 177,135 L 181,135 L 182,136 L 192,136 L 193,137 L 194,137 L 195,138 L 196,138 L 197,139 L 198,139 L 199,140 L 200,140 L 202,142 L 204,142 L 204,138 L 205,137 L 205,135 L 206,134 L 209,134 L 209,132 L 210,131 L 211,131 L 211,127 L 212,126 L 212,121 L 213,120 L 213,118 L 212,118 L 211,117 L 211,109 L 214,106 L 214,100 L 209,95 L 209,89 L 208,89 L 206,87 L 202,87 L 201,86 L 201,85 L 198,82 L 198,81 L 194,81 L 193,80 Z" fill="none" stroke="black" stroke-width="1"/>
</svg>