<svg xmlns="http://www.w3.org/2000/svg" width="284" height="322">
  <path d="M 141,172 L 140,173 L 137,173 L 136,174 L 136,179 L 135,180 L 135,184 L 136,185 L 136,188 L 137,189 L 139,189 L 140,190 L 140,195 L 139,196 L 143,196 L 144,195 L 148,195 L 149,196 L 151,196 L 152,197 L 152,199 L 154,199 L 155,200 L 155,202 L 157,202 L 158,203 L 160,203 L 161,204 L 161,205 L 162,205 L 163,206 L 163,207 L 164,208 L 164,209 L 168,209 L 169,210 L 171,210 L 173,212 L 173,213 L 180,213 L 181,214 L 182,214 L 183,215 L 184,215 L 185,216 L 185,217 L 188,217 L 189,218 L 189,220 L 190,220 L 191,221 L 191,222 L 194,222 L 195,223 L 195,224 L 198,224 L 199,225 L 199,226 L 203,226 L 204,227 L 204,228 L 207,228 L 208,229 L 208,230 L 210,230 L 211,231 L 218,231 L 219,230 L 219,225 L 218,224 L 218,219 L 217,218 L 217,217 L 215,215 L 215,211 L 213,209 L 213,207 L 212,207 L 211,206 L 211,205 L 210,204 L 208,204 L 207,203 L 204,203 L 203,202 L 202,202 L 199,199 L 199,196 L 198,195 L 198,183 L 195,183 L 194,182 L 184,182 L 183,181 L 181,181 L 180,180 L 179,180 L 178,179 L 174,179 L 173,178 L 173,177 L 170,177 L 169,176 L 164,176 L 163,177 L 156,177 L 155,176 L 146,176 L 144,174 L 144,172 Z" fill="none" stroke="black" stroke-width="1"/>
</svg>