<svg xmlns="http://www.w3.org/2000/svg" width="477" height="617">
  <path d="M 179,519 L 178,520 L 177,520 L 177,522 L 176,523 L 174,523 L 174,524 L 173,525 L 170,525 L 170,526 L 171,527 L 171,533 L 170,534 L 170,540 L 173,543 L 173,546 L 174,545 L 175,545 L 176,544 L 179,544 L 180,543 L 186,543 L 187,544 L 189,544 L 190,545 L 190,547 L 189,548 L 189,550 L 190,549 L 195,549 L 196,550 L 199,550 L 200,551 L 201,551 L 202,552 L 204,552 L 205,551 L 207,551 L 208,550 L 209,550 L 210,549 L 211,549 L 212,548 L 213,548 L 215,546 L 221,546 L 222,545 L 226,545 L 227,544 L 228,544 L 229,543 L 229,541 L 228,540 L 228,539 L 227,538 L 226,538 L 225,537 L 225,534 L 224,534 L 223,533 L 223,532 L 222,532 L 221,531 L 221,530 L 219,530 L 218,529 L 218,528 L 216,528 L 215,527 L 215,526 L 213,526 L 212,525 L 208,525 L 207,524 L 207,523 L 206,522 L 203,522 L 202,521 L 197,521 L 196,522 L 190,522 L 187,519 Z" fill="none" stroke="black" stroke-width="1"/>
</svg>