<svg xmlns="http://www.w3.org/2000/svg" width="477" height="617">
  <path d="M 373,212 L 373,213 L 370,216 L 369,216 L 368,217 L 368,218 L 365,221 L 363,221 L 362,222 L 361,222 L 359,224 L 358,224 L 356,226 L 354,226 L 353,227 L 349,227 L 348,226 L 346,226 L 345,225 L 343,225 L 342,224 L 340,224 L 339,225 L 338,225 L 337,226 L 337,227 L 336,228 L 336,229 L 337,230 L 337,231 L 336,232 L 336,233 L 335,234 L 335,235 L 336,236 L 336,238 L 338,240 L 338,241 L 339,242 L 339,245 L 338,246 L 338,252 L 335,255 L 335,256 L 334,257 L 334,258 L 336,260 L 338,260 L 339,261 L 343,261 L 344,260 L 346,260 L 347,261 L 348,261 L 349,262 L 354,262 L 357,265 L 357,267 L 358,267 L 360,265 L 362,265 L 363,264 L 363,263 L 366,260 L 366,256 L 369,253 L 370,253 L 372,251 L 373,251 L 374,250 L 375,250 L 377,248 L 377,247 L 378,246 L 378,243 L 382,239 L 382,238 L 383,237 L 384,237 L 385,236 L 388,236 L 387,235 L 387,232 L 386,231 L 386,227 L 385,226 L 385,225 L 384,224 L 384,223 L 383,222 L 383,221 L 381,219 L 381,216 L 380,215 L 378,215 L 375,212 Z" fill="none" stroke="black" stroke-width="1"/>
</svg>