<svg xmlns="http://www.w3.org/2000/svg" width="477" height="617">
  <path d="M 367,118 L 367,122 L 366,123 L 366,124 L 365,125 L 363,125 L 363,127 L 362,128 L 358,128 L 358,129 L 357,130 L 354,130 L 354,136 L 353,137 L 350,137 L 350,144 L 351,144 L 352,145 L 352,146 L 351,147 L 350,147 L 350,150 L 351,151 L 351,160 L 350,161 L 348,161 L 348,168 L 351,168 L 353,166 L 355,166 L 357,164 L 360,164 L 361,163 L 362,163 L 363,162 L 365,162 L 366,161 L 367,161 L 368,160 L 369,160 L 373,156 L 374,156 L 375,155 L 377,155 L 377,154 L 378,153 L 379,153 L 379,152 L 380,151 L 380,141 L 381,140 L 381,136 L 380,135 L 380,134 L 379,133 L 379,130 L 378,129 L 378,128 L 377,127 L 377,123 L 376,123 L 375,122 L 375,121 L 374,121 L 373,120 L 372,121 L 371,121 L 370,120 L 369,120 Z" fill="none" stroke="black" stroke-width="1"/>
</svg>