<svg xmlns="http://www.w3.org/2000/svg" width="477" height="617">
  <path d="M 256,528 L 255,529 L 256,530 L 256,531 L 256,530 L 257,529 L 257,528 Z" fill="none" stroke="black" stroke-width="1"/>
  <path d="M 178,492 L 178,499 L 179,500 L 179,506 L 180,507 L 180,508 L 181,509 L 181,510 L 182,511 L 182,512 L 181,513 L 181,518 L 187,518 L 190,521 L 196,521 L 197,520 L 202,520 L 203,521 L 206,521 L 208,523 L 208,524 L 212,524 L 213,525 L 215,525 L 216,526 L 216,527 L 218,527 L 219,528 L 219,529 L 221,529 L 222,530 L 222,531 L 223,531 L 224,532 L 224,533 L 225,533 L 226,534 L 226,537 L 227,537 L 229,539 L 229,540 L 230,541 L 233,538 L 235,538 L 236,537 L 237,537 L 240,540 L 240,542 L 241,543 L 241,547 L 242,548 L 244,548 L 245,549 L 246,548 L 247,548 L 248,547 L 249,547 L 248,546 L 248,544 L 249,543 L 250,544 L 250,545 L 251,544 L 251,541 L 252,540 L 252,535 L 253,534 L 253,525 L 254,524 L 255,524 L 255,522 L 254,523 L 253,522 L 253,520 L 254,519 L 254,518 L 257,515 L 258,515 L 259,514 L 259,513 L 260,512 L 260,507 L 261,506 L 261,504 L 263,502 L 263,501 L 262,501 L 260,503 L 258,501 L 258,500 L 259,499 L 260,500 L 261,499 L 261,497 L 262,496 L 259,496 L 258,495 L 258,494 L 257,493 L 255,493 L 254,494 L 254,495 L 251,498 L 250,498 L 248,500 L 243,500 L 242,499 L 230,499 L 227,502 L 222,502 L 221,503 L 220,503 L 219,502 L 218,502 L 217,501 L 216,501 L 214,499 L 213,499 L 212,498 L 208,498 L 207,497 L 207,496 L 204,496 L 203,495 L 197,495 L 196,494 L 193,494 L 192,493 L 186,493 L 185,492 Z" fill="none" stroke="black" stroke-width="1"/>
</svg>