<svg xmlns="http://www.w3.org/2000/svg" width="477" height="617">
  <path d="M 171,301 L 169,303 L 169,304 L 168,305 L 166,305 L 162,309 L 161,309 L 160,310 L 159,310 L 158,311 L 156,311 L 155,312 L 153,312 L 152,313 L 151,313 L 150,314 L 148,314 L 147,313 L 139,313 L 138,314 L 138,318 L 139,319 L 139,321 L 140,322 L 140,324 L 141,325 L 141,330 L 142,331 L 142,333 L 143,334 L 143,335 L 144,336 L 144,337 L 145,338 L 145,339 L 147,341 L 147,343 L 148,344 L 148,347 L 147,348 L 147,350 L 148,351 L 149,351 L 151,353 L 152,353 L 153,354 L 154,354 L 155,355 L 156,355 L 157,354 L 157,352 L 158,351 L 159,351 L 161,353 L 163,353 L 164,354 L 167,354 L 168,353 L 170,353 L 171,352 L 179,352 L 180,351 L 183,351 L 184,352 L 189,352 L 189,349 L 190,348 L 192,348 L 191,347 L 191,344 L 192,343 L 195,343 L 195,341 L 196,340 L 198,340 L 198,335 L 199,334 L 201,334 L 201,332 L 202,331 L 203,331 L 203,329 L 204,328 L 207,328 L 203,324 L 203,323 L 202,322 L 202,316 L 199,313 L 193,313 L 192,312 L 191,312 L 190,311 L 190,310 L 187,307 L 187,306 L 186,305 L 186,302 L 181,302 L 181,303 L 180,304 L 177,304 L 174,301 Z" fill="none" stroke="black" stroke-width="1"/>
</svg>