<svg xmlns="http://www.w3.org/2000/svg" width="477" height="617">
  <path d="M 74,0 L 73,1 L 72,1 L 70,3 L 64,3 L 63,4 L 61,4 L 60,5 L 59,5 L 58,6 L 57,6 L 55,8 L 50,8 L 49,9 L 48,9 L 47,8 L 44,8 L 43,9 L 42,9 L 41,10 L 41,14 L 40,15 L 36,15 L 35,14 L 34,14 L 31,11 L 30,12 L 29,12 L 27,10 L 26,10 L 25,11 L 21,11 L 20,10 L 17,10 L 16,11 L 16,14 L 19,17 L 18,18 L 18,22 L 19,23 L 19,27 L 20,27 L 21,26 L 22,26 L 23,25 L 30,25 L 31,26 L 32,26 L 33,27 L 38,27 L 39,26 L 44,26 L 45,27 L 46,27 L 47,28 L 48,28 L 49,29 L 49,30 L 53,34 L 53,35 L 52,36 L 52,39 L 51,40 L 51,41 L 50,42 L 50,45 L 49,46 L 49,47 L 51,47 L 52,46 L 56,46 L 60,50 L 61,49 L 62,49 L 63,48 L 67,48 L 68,47 L 74,47 L 75,48 L 78,48 L 80,50 L 82,50 L 83,49 L 84,49 L 85,48 L 85,44 L 86,43 L 86,42 L 87,41 L 87,40 L 89,38 L 90,38 L 90,36 L 89,35 L 89,34 L 87,32 L 87,29 L 85,27 L 83,27 L 82,26 L 82,25 L 83,24 L 83,18 L 82,17 L 82,15 L 83,14 L 83,11 L 85,9 L 85,6 L 84,5 L 84,4 L 82,4 L 81,5 L 80,5 L 79,4 L 79,1 L 78,0 Z" fill="none" stroke="black" stroke-width="1"/>
</svg>