<svg xmlns="http://www.w3.org/2000/svg" width="477" height="617">
  <path d="M 219,83 L 214,88 L 214,91 L 212,93 L 210,93 L 211,94 L 211,95 L 210,96 L 211,96 L 214,93 L 215,93 L 220,88 L 220,86 L 221,85 L 221,84 L 220,83 Z" fill="none" stroke="black" stroke-width="1"/>
  <path d="M 233,76 L 230,79 L 229,79 L 229,82 L 230,83 L 230,84 L 229,85 L 228,84 L 228,89 L 229,90 L 230,90 L 231,91 L 230,92 L 228,92 L 228,93 L 229,94 L 229,95 L 230,96 L 230,99 L 229,100 L 228,99 L 228,98 L 227,98 L 226,97 L 226,91 L 225,90 L 225,89 L 223,89 L 223,91 L 222,92 L 220,92 L 221,93 L 220,94 L 219,94 L 218,95 L 217,95 L 216,96 L 215,96 L 212,99 L 211,99 L 211,100 L 214,103 L 216,103 L 217,102 L 217,101 L 219,99 L 221,101 L 222,101 L 223,102 L 225,102 L 226,103 L 228,101 L 232,101 L 233,102 L 236,102 L 237,101 L 241,101 L 242,102 L 243,102 L 244,101 L 246,101 L 246,100 L 247,99 L 252,99 L 254,97 L 256,97 L 258,95 L 258,94 L 259,93 L 259,92 L 260,91 L 260,89 L 261,88 L 262,88 L 262,86 L 263,85 L 263,81 L 264,80 L 264,79 L 263,78 L 257,78 L 256,77 L 250,77 L 249,78 L 248,78 L 247,79 L 243,79 L 241,77 L 239,77 L 238,76 Z" fill="none" stroke="black" stroke-width="1"/>
  <path d="M 245,73 L 243,75 L 244,76 L 247,76 L 248,75 L 248,73 Z" fill="none" stroke="black" stroke-width="1"/>
  <path d="M 230,71 L 230,74 L 229,75 L 228,75 L 227,74 L 228,73 L 227,73 L 226,74 L 225,74 L 227,74 L 228,75 L 227,76 L 225,76 L 224,77 L 227,80 L 225,82 L 223,80 L 223,79 L 223,80 L 224,81 L 224,82 L 225,82 L 226,83 L 225,84 L 224,84 L 223,85 L 223,86 L 226,86 L 225,85 L 226,84 L 226,82 L 227,81 L 227,79 L 226,78 L 228,76 L 229,76 L 232,73 L 232,72 L 231,72 Z" fill="none" stroke="black" stroke-width="1"/>
  <path d="M 233,65 L 233,69 L 232,70 L 233,70 L 234,71 L 234,73 L 238,73 L 239,74 L 240,74 L 243,71 L 244,71 L 245,70 L 244,69 L 239,69 L 238,70 L 237,70 L 236,71 L 234,71 L 233,70 Z" fill="none" stroke="black" stroke-width="1"/>
  <path d="M 237,64 L 236,65 L 235,65 L 235,68 L 236,67 L 237,67 L 239,65 L 239,64 Z" fill="none" stroke="black" stroke-width="1"/>
</svg>