<svg xmlns="http://www.w3.org/2000/svg" width="299" height="181">
  <path d="M 196,118 L 196,121 L 194,123 L 191,123 L 191,125 L 190,126 L 189,126 L 191,128 L 191,131 L 190,132 L 190,133 L 189,134 L 188,134 L 188,138 L 189,139 L 189,142 L 188,143 L 186,143 L 185,144 L 184,144 L 184,148 L 185,148 L 186,149 L 186,150 L 188,152 L 190,152 L 191,153 L 191,158 L 196,158 L 197,159 L 197,160 L 198,161 L 199,161 L 200,162 L 201,162 L 202,161 L 204,161 L 204,159 L 209,154 L 211,154 L 211,152 L 212,151 L 212,149 L 213,148 L 213,147 L 214,146 L 214,137 L 216,135 L 216,134 L 218,132 L 219,133 L 219,130 L 218,129 L 218,127 L 217,126 L 217,125 L 218,124 L 216,124 L 215,123 L 215,122 L 214,122 L 212,120 L 211,120 L 210,121 L 209,121 L 208,122 L 200,122 L 197,119 L 197,118 Z" fill="none" stroke="black" stroke-width="1"/>
</svg>