<svg xmlns="http://www.w3.org/2000/svg" width="477" height="617">
  <path d="M 329,303 L 328,304 L 327,304 L 325,306 L 322,306 L 321,307 L 320,307 L 319,308 L 318,308 L 317,309 L 316,309 L 316,310 L 315,311 L 314,311 L 311,314 L 310,314 L 309,315 L 307,315 L 306,314 L 305,314 L 302,311 L 297,311 L 296,310 L 295,310 L 294,311 L 293,311 L 291,313 L 290,313 L 288,315 L 288,317 L 289,318 L 289,319 L 288,320 L 288,324 L 289,325 L 289,327 L 287,329 L 285,329 L 284,330 L 284,331 L 282,333 L 282,334 L 281,335 L 281,337 L 280,338 L 280,345 L 279,346 L 279,350 L 278,351 L 278,356 L 279,356 L 280,357 L 280,361 L 281,362 L 281,363 L 282,364 L 282,365 L 284,367 L 284,368 L 285,369 L 289,369 L 290,370 L 291,370 L 294,373 L 294,374 L 295,375 L 295,376 L 296,376 L 297,375 L 299,375 L 305,369 L 306,369 L 309,366 L 309,364 L 311,362 L 311,360 L 312,359 L 312,358 L 313,357 L 313,356 L 318,351 L 318,346 L 316,346 L 315,345 L 315,330 L 316,329 L 317,329 L 317,325 L 318,324 L 323,324 L 323,322 L 324,321 L 325,321 L 326,320 L 326,318 L 327,317 L 328,317 L 328,314 L 329,313 L 330,313 L 331,312 L 331,310 L 332,309 L 335,309 L 336,308 L 337,308 L 338,307 L 338,304 L 335,304 L 334,303 Z" fill="none" stroke="black" stroke-width="1"/>
</svg>