<svg xmlns="http://www.w3.org/2000/svg" width="477" height="617">
  <path d="M 280,366 L 278,368 L 276,368 L 275,369 L 274,369 L 273,370 L 269,370 L 268,369 L 261,369 L 260,370 L 255,370 L 254,371 L 253,371 L 251,373 L 243,373 L 242,374 L 238,374 L 237,375 L 236,375 L 235,376 L 233,376 L 233,378 L 232,379 L 232,381 L 230,383 L 229,383 L 229,384 L 227,386 L 227,387 L 226,388 L 226,389 L 225,390 L 225,396 L 226,395 L 229,395 L 231,393 L 232,393 L 233,392 L 234,393 L 234,394 L 238,394 L 239,395 L 248,395 L 251,398 L 251,399 L 252,400 L 252,401 L 257,401 L 257,400 L 258,399 L 259,399 L 260,398 L 262,398 L 263,397 L 272,397 L 273,396 L 278,396 L 279,397 L 281,397 L 282,398 L 284,398 L 285,399 L 288,399 L 289,400 L 290,400 L 293,403 L 293,404 L 301,404 L 301,402 L 302,401 L 303,401 L 303,397 L 302,397 L 300,395 L 300,394 L 299,393 L 299,392 L 298,391 L 298,384 L 297,383 L 297,380 L 295,378 L 295,377 L 294,376 L 294,375 L 293,374 L 293,373 L 291,371 L 290,371 L 289,370 L 285,370 L 283,368 L 283,367 L 282,366 Z" fill="none" stroke="black" stroke-width="1"/>
</svg>