<svg xmlns="http://www.w3.org/2000/svg" width="477" height="617">
  <path d="M 203,374 L 202,375 L 201,375 L 200,376 L 200,377 L 199,378 L 199,381 L 198,382 L 198,384 L 199,385 L 199,387 L 198,388 L 198,389 L 197,390 L 197,391 L 195,393 L 194,393 L 193,392 L 190,392 L 189,391 L 188,391 L 186,393 L 185,393 L 184,392 L 179,392 L 178,393 L 176,393 L 174,395 L 170,395 L 168,397 L 168,398 L 166,400 L 164,400 L 165,401 L 165,404 L 166,405 L 166,408 L 165,409 L 165,413 L 163,415 L 163,416 L 164,416 L 165,417 L 168,417 L 169,418 L 171,418 L 172,419 L 174,419 L 175,420 L 177,420 L 178,421 L 183,421 L 184,422 L 186,422 L 187,423 L 188,423 L 189,424 L 190,424 L 191,425 L 191,428 L 190,429 L 190,430 L 189,431 L 189,432 L 191,432 L 192,433 L 198,433 L 199,432 L 200,432 L 200,431 L 201,430 L 202,430 L 202,429 L 204,427 L 204,426 L 206,424 L 206,422 L 208,420 L 208,419 L 209,418 L 209,415 L 211,413 L 211,412 L 213,410 L 213,406 L 217,402 L 217,401 L 218,400 L 221,400 L 222,399 L 222,397 L 224,395 L 224,390 L 225,389 L 225,388 L 222,385 L 220,385 L 219,384 L 217,384 L 216,383 L 214,383 L 208,377 L 208,376 L 207,375 L 206,375 L 205,374 Z" fill="none" stroke="black" stroke-width="1"/>
</svg>