<svg xmlns="http://www.w3.org/2000/svg" width="477" height="617">
  <path d="M 279,398 L 278,399 L 278,400 L 279,401 L 279,402 L 280,403 L 280,404 L 281,405 L 280,406 L 280,409 L 281,410 L 281,413 L 282,414 L 282,415 L 283,416 L 283,417 L 287,421 L 287,422 L 288,423 L 286,425 L 286,434 L 287,435 L 287,436 L 288,437 L 288,438 L 289,439 L 289,440 L 290,440 L 291,441 L 293,441 L 295,439 L 309,439 L 310,438 L 311,438 L 312,437 L 314,437 L 315,436 L 316,436 L 317,435 L 317,434 L 319,432 L 320,432 L 321,431 L 322,431 L 324,429 L 326,429 L 327,428 L 333,428 L 336,425 L 339,425 L 339,423 L 340,422 L 340,421 L 339,421 L 337,419 L 330,419 L 329,420 L 326,420 L 325,419 L 323,419 L 322,418 L 321,418 L 320,417 L 317,417 L 316,416 L 315,416 L 314,415 L 311,415 L 309,413 L 309,412 L 307,410 L 306,410 L 305,409 L 304,409 L 301,406 L 301,405 L 293,405 L 292,404 L 292,403 L 290,401 L 289,401 L 288,400 L 285,400 L 284,399 L 282,399 L 281,398 Z" fill="none" stroke="black" stroke-width="1"/>
</svg>