<svg xmlns="http://www.w3.org/2000/svg" width="477" height="617">
  <path d="M 221,443 L 219,445 L 218,445 L 217,446 L 217,447 L 216,448 L 215,448 L 213,450 L 212,450 L 211,451 L 210,451 L 209,452 L 208,452 L 207,453 L 207,454 L 208,454 L 210,456 L 211,456 L 212,457 L 212,462 L 211,463 L 211,464 L 210,465 L 210,469 L 211,470 L 214,470 L 216,472 L 216,474 L 217,475 L 217,476 L 218,476 L 219,477 L 219,479 L 220,480 L 220,483 L 221,484 L 221,487 L 222,488 L 222,491 L 219,494 L 218,494 L 217,495 L 216,495 L 215,496 L 214,496 L 213,497 L 213,498 L 214,498 L 216,500 L 217,500 L 218,501 L 219,501 L 220,502 L 221,502 L 222,501 L 227,501 L 230,498 L 235,498 L 235,489 L 236,488 L 236,487 L 238,485 L 239,485 L 239,483 L 240,482 L 240,481 L 243,478 L 243,477 L 245,475 L 245,474 L 249,470 L 249,468 L 247,466 L 247,463 L 246,462 L 246,460 L 245,459 L 245,451 L 240,446 L 238,446 L 237,447 L 232,447 L 231,446 L 227,446 L 225,444 L 222,444 Z" fill="none" stroke="black" stroke-width="1"/>
</svg>