<svg xmlns="http://www.w3.org/2000/svg" width="477" height="617">
  <path d="M 273,397 L 272,398 L 263,398 L 262,399 L 260,399 L 259,400 L 258,400 L 258,402 L 259,403 L 259,405 L 260,406 L 260,407 L 261,408 L 261,409 L 262,410 L 262,412 L 261,413 L 261,420 L 259,422 L 259,424 L 258,425 L 258,426 L 257,427 L 257,430 L 256,431 L 256,434 L 254,436 L 253,436 L 252,437 L 251,437 L 249,439 L 248,439 L 246,441 L 245,441 L 243,443 L 242,443 L 241,444 L 241,446 L 246,451 L 246,459 L 247,460 L 247,462 L 248,463 L 248,464 L 249,464 L 250,463 L 255,463 L 256,462 L 257,462 L 258,461 L 265,461 L 266,460 L 268,460 L 269,459 L 270,459 L 273,456 L 275,456 L 278,453 L 279,453 L 279,452 L 280,451 L 280,450 L 281,449 L 282,449 L 282,447 L 283,446 L 283,445 L 284,444 L 284,443 L 286,441 L 287,441 L 288,440 L 288,439 L 287,438 L 287,437 L 286,436 L 286,435 L 285,434 L 285,425 L 287,423 L 286,422 L 286,421 L 282,417 L 282,416 L 281,415 L 281,414 L 280,413 L 280,410 L 279,409 L 279,406 L 280,405 L 279,404 L 279,403 L 278,402 L 278,401 L 277,400 L 277,399 L 278,398 L 278,397 Z" fill="none" stroke="black" stroke-width="1"/>
</svg>