<svg xmlns="http://www.w3.org/2000/svg" width="477" height="617">
  <path d="M 233,393 L 232,394 L 231,394 L 229,396 L 226,396 L 225,397 L 224,396 L 223,397 L 223,399 L 221,401 L 218,401 L 218,402 L 214,406 L 214,410 L 212,412 L 212,413 L 210,415 L 210,418 L 209,419 L 209,420 L 207,422 L 207,424 L 205,426 L 205,427 L 203,429 L 203,430 L 204,431 L 204,432 L 205,433 L 205,437 L 208,437 L 209,438 L 210,438 L 211,439 L 211,440 L 213,440 L 214,441 L 217,441 L 218,440 L 219,440 L 222,443 L 225,443 L 227,445 L 231,445 L 232,446 L 237,446 L 238,445 L 240,445 L 240,444 L 242,442 L 243,442 L 245,440 L 246,440 L 248,438 L 249,438 L 251,436 L 252,436 L 253,435 L 254,435 L 255,434 L 255,431 L 256,430 L 256,427 L 257,426 L 257,425 L 258,424 L 258,422 L 260,420 L 260,413 L 261,412 L 261,410 L 260,409 L 260,408 L 259,407 L 259,406 L 258,405 L 258,403 L 257,402 L 252,402 L 251,401 L 251,400 L 250,399 L 250,398 L 248,396 L 239,396 L 238,395 L 234,395 L 233,394 Z" fill="none" stroke="black" stroke-width="1"/>
</svg>