<svg xmlns="http://www.w3.org/2000/svg" width="477" height="617">
  <path d="M 373,326 L 371,328 L 368,328 L 364,332 L 364,333 L 363,334 L 362,334 L 359,337 L 359,338 L 358,339 L 358,341 L 356,343 L 356,345 L 355,346 L 355,347 L 354,348 L 354,349 L 350,353 L 350,354 L 346,358 L 346,359 L 347,360 L 347,361 L 351,365 L 351,368 L 350,369 L 350,373 L 351,374 L 352,374 L 353,375 L 354,375 L 356,377 L 358,377 L 359,376 L 362,376 L 363,377 L 364,377 L 366,379 L 367,379 L 368,378 L 370,378 L 371,379 L 371,377 L 372,376 L 372,374 L 373,373 L 373,371 L 374,370 L 375,370 L 376,369 L 380,369 L 381,368 L 387,368 L 387,366 L 389,364 L 389,358 L 387,356 L 387,355 L 386,354 L 386,352 L 385,351 L 385,350 L 386,349 L 386,346 L 387,345 L 387,344 L 388,343 L 388,342 L 389,341 L 389,339 L 388,338 L 388,336 L 389,335 L 390,335 L 390,334 L 391,333 L 391,330 L 390,330 L 389,329 L 389,328 L 385,328 L 384,327 L 378,327 L 377,326 Z" fill="none" stroke="black" stroke-width="1"/>
</svg>