<svg xmlns="http://www.w3.org/2000/svg" width="477" height="617">
  <path d="M 359,377 L 358,378 L 357,378 L 357,380 L 354,383 L 354,384 L 353,385 L 353,386 L 352,387 L 352,388 L 349,391 L 348,391 L 347,392 L 345,392 L 343,394 L 342,394 L 340,396 L 339,396 L 337,398 L 337,399 L 336,400 L 336,402 L 337,403 L 337,411 L 336,412 L 336,418 L 337,418 L 339,420 L 340,420 L 341,421 L 341,422 L 340,423 L 340,424 L 348,424 L 353,419 L 353,418 L 354,417 L 355,417 L 356,416 L 357,416 L 358,415 L 358,412 L 363,407 L 363,397 L 369,391 L 370,391 L 371,390 L 371,387 L 372,386 L 372,380 L 371,380 L 370,379 L 368,379 L 367,380 L 366,380 L 364,378 L 363,378 L 362,377 Z" fill="none" stroke="black" stroke-width="1"/>
</svg>