<svg xmlns="http://www.w3.org/2000/svg" width="477" height="617">
  <path d="M 20,226 L 19,227 L 18,227 L 17,228 L 16,228 L 15,229 L 13,229 L 12,230 L 12,231 L 11,232 L 10,232 L 9,233 L 5,233 L 5,234 L 2,237 L 2,239 L 1,240 L 1,247 L 0,248 L 0,250 L 1,251 L 1,256 L 2,256 L 3,257 L 3,259 L 4,260 L 4,261 L 6,261 L 7,262 L 7,265 L 9,265 L 10,266 L 10,267 L 11,267 L 12,268 L 12,269 L 14,269 L 15,270 L 15,273 L 29,273 L 30,274 L 30,276 L 35,276 L 36,275 L 36,274 L 37,273 L 37,272 L 38,271 L 38,270 L 39,269 L 39,267 L 40,266 L 40,263 L 41,262 L 41,251 L 42,250 L 42,246 L 43,245 L 45,245 L 45,244 L 46,243 L 46,242 L 48,240 L 49,240 L 49,236 L 48,235 L 48,230 L 47,229 L 47,226 L 43,226 L 42,227 L 41,227 L 40,228 L 39,228 L 38,229 L 37,229 L 35,231 L 33,231 L 32,230 L 31,230 L 30,229 L 28,229 L 27,228 L 26,228 L 25,227 L 22,227 L 21,226 Z" fill="none" stroke="black" stroke-width="1"/>
</svg>