<svg xmlns="http://www.w3.org/2000/svg" width="318" height="385">
  <path d="M 11,152 L 10,153 L 7,153 L 7,154 L 6,155 L 5,155 L 5,158 L 4,159 L 4,161 L 5,162 L 5,163 L 7,165 L 7,168 L 6,169 L 6,172 L 12,172 L 13,171 L 14,171 L 14,170 L 15,169 L 17,169 L 19,167 L 21,169 L 19,171 L 18,171 L 19,171 L 20,172 L 20,174 L 19,175 L 16,172 L 16,173 L 19,176 L 20,176 L 21,177 L 22,177 L 25,180 L 26,180 L 27,181 L 31,181 L 32,180 L 36,180 L 37,181 L 38,181 L 37,180 L 37,179 L 38,178 L 38,177 L 39,176 L 38,175 L 38,172 L 37,171 L 36,171 L 35,170 L 35,169 L 34,168 L 34,166 L 33,165 L 33,164 L 32,164 L 31,163 L 30,163 L 28,161 L 28,160 L 27,159 L 27,156 L 28,155 L 26,153 L 25,153 L 24,154 L 21,154 L 20,153 L 18,153 L 17,154 L 17,155 L 15,157 L 13,157 L 12,156 L 13,155 L 13,154 Z" fill="none" stroke="black" stroke-width="1"/>
</svg>