<svg xmlns="http://www.w3.org/2000/svg" width="299" height="181">
  <path d="M 217,115 L 215,117 L 214,117 L 214,118 L 213,119 L 211,119 L 212,119 L 214,121 L 215,121 L 216,122 L 216,123 L 218,123 L 219,124 L 218,125 L 218,126 L 219,127 L 219,129 L 220,130 L 220,133 L 219,134 L 218,133 L 217,134 L 217,135 L 215,137 L 215,139 L 216,139 L 217,140 L 218,140 L 224,146 L 225,146 L 226,147 L 229,147 L 230,146 L 231,146 L 234,143 L 239,143 L 242,146 L 249,146 L 250,145 L 253,145 L 254,146 L 255,146 L 256,147 L 257,147 L 257,146 L 255,144 L 255,143 L 256,142 L 257,142 L 258,141 L 258,140 L 259,139 L 259,136 L 258,135 L 258,133 L 259,132 L 256,129 L 256,127 L 254,127 L 253,126 L 253,125 L 252,124 L 249,124 L 248,123 L 248,122 L 247,122 L 246,121 L 244,121 L 243,120 L 237,120 L 236,121 L 234,121 L 233,122 L 232,121 L 231,122 L 230,122 L 229,121 L 228,121 L 227,120 L 225,120 L 224,119 L 223,119 L 222,118 L 222,117 L 221,116 L 220,116 L 219,115 Z" fill="none" stroke="black" stroke-width="1"/>
</svg>