<svg xmlns="http://www.w3.org/2000/svg" width="477" height="617">
  <path d="M 48,241 L 47,242 L 47,243 L 46,244 L 46,245 L 45,246 L 43,246 L 43,250 L 42,251 L 42,262 L 41,263 L 41,266 L 40,267 L 40,269 L 39,270 L 39,271 L 38,272 L 38,273 L 37,274 L 37,275 L 35,277 L 35,279 L 36,280 L 36,282 L 37,282 L 38,281 L 39,281 L 40,280 L 44,280 L 45,281 L 45,282 L 51,282 L 52,283 L 52,285 L 54,285 L 55,286 L 55,288 L 61,288 L 62,289 L 71,289 L 72,290 L 72,292 L 73,292 L 73,291 L 76,288 L 76,287 L 77,286 L 77,284 L 80,281 L 81,281 L 81,279 L 83,277 L 83,276 L 85,274 L 85,267 L 84,266 L 84,265 L 83,264 L 83,261 L 84,260 L 84,259 L 85,258 L 85,255 L 82,252 L 81,252 L 80,251 L 78,251 L 77,250 L 69,250 L 68,249 L 67,249 L 65,247 L 64,247 L 63,246 L 61,246 L 60,245 L 59,245 L 58,244 L 57,244 L 56,243 L 54,243 L 53,242 L 52,242 L 51,241 Z" fill="none" stroke="black" stroke-width="1"/>
</svg>