<svg xmlns="http://www.w3.org/2000/svg" width="477" height="617">
  <path d="M 104,260 L 103,261 L 102,261 L 102,263 L 100,265 L 99,265 L 98,266 L 98,267 L 96,269 L 86,269 L 86,274 L 84,276 L 84,277 L 82,279 L 82,281 L 81,282 L 80,282 L 78,284 L 78,286 L 77,287 L 77,288 L 74,291 L 74,292 L 77,292 L 78,293 L 78,294 L 79,294 L 80,295 L 80,299 L 79,300 L 79,303 L 81,305 L 81,308 L 82,309 L 82,312 L 83,313 L 83,316 L 84,317 L 84,318 L 85,318 L 86,319 L 87,319 L 88,320 L 89,320 L 90,321 L 92,321 L 94,323 L 94,324 L 95,325 L 96,325 L 97,326 L 97,328 L 100,328 L 101,329 L 105,329 L 107,327 L 107,326 L 108,325 L 108,324 L 110,322 L 110,321 L 111,320 L 111,313 L 110,313 L 109,312 L 109,310 L 108,309 L 108,308 L 109,307 L 109,304 L 110,303 L 110,300 L 111,299 L 111,298 L 112,297 L 112,296 L 113,295 L 117,295 L 117,293 L 118,292 L 118,291 L 120,289 L 120,288 L 122,286 L 122,285 L 123,284 L 123,279 L 124,278 L 124,275 L 123,275 L 122,274 L 121,274 L 120,273 L 119,273 L 117,271 L 116,271 L 113,268 L 113,267 L 112,266 L 112,265 L 111,264 L 111,263 L 109,261 L 107,261 L 106,260 Z" fill="none" stroke="black" stroke-width="1"/>
</svg>