<svg xmlns="http://www.w3.org/2000/svg" width="477" height="617">
  <path d="M 113,296 L 113,297 L 112,298 L 112,299 L 111,300 L 111,303 L 110,304 L 110,307 L 109,308 L 109,309 L 110,310 L 110,312 L 111,312 L 112,313 L 112,320 L 111,321 L 111,322 L 109,324 L 109,325 L 108,326 L 108,327 L 106,329 L 106,331 L 109,334 L 109,335 L 113,335 L 115,337 L 116,337 L 117,338 L 117,344 L 122,349 L 122,355 L 119,358 L 119,366 L 120,366 L 121,367 L 121,369 L 120,370 L 120,375 L 126,375 L 127,374 L 129,374 L 130,373 L 133,373 L 134,372 L 141,372 L 143,370 L 155,370 L 155,368 L 156,367 L 156,364 L 158,362 L 158,361 L 156,359 L 156,356 L 155,356 L 154,355 L 153,355 L 152,354 L 151,354 L 149,352 L 148,352 L 146,350 L 146,348 L 147,347 L 147,344 L 146,343 L 146,341 L 144,339 L 144,338 L 143,337 L 143,336 L 142,335 L 142,334 L 141,333 L 141,331 L 140,330 L 140,325 L 139,324 L 139,322 L 138,321 L 138,319 L 137,318 L 137,314 L 138,313 L 136,311 L 136,309 L 135,309 L 134,308 L 134,307 L 133,306 L 133,305 L 132,304 L 132,303 L 130,301 L 129,301 L 128,300 L 127,300 L 126,299 L 125,299 L 123,297 L 117,297 L 116,296 Z" fill="none" stroke="black" stroke-width="1"/>
</svg>