<svg xmlns="http://www.w3.org/2000/svg" width="477" height="617">
  <path d="M 164,256 L 163,257 L 161,257 L 160,258 L 156,258 L 155,259 L 154,259 L 153,260 L 152,260 L 152,262 L 151,263 L 148,263 L 146,265 L 145,265 L 145,266 L 144,267 L 143,267 L 140,270 L 140,273 L 138,275 L 137,275 L 136,276 L 133,276 L 132,277 L 130,277 L 129,276 L 128,276 L 127,275 L 125,275 L 125,278 L 124,279 L 124,284 L 123,285 L 123,286 L 121,288 L 121,289 L 119,291 L 119,292 L 118,293 L 118,295 L 117,296 L 123,296 L 125,298 L 126,298 L 127,299 L 128,299 L 129,300 L 130,300 L 133,303 L 133,304 L 134,305 L 134,306 L 135,307 L 135,308 L 136,308 L 137,309 L 137,311 L 138,312 L 147,312 L 148,313 L 150,313 L 151,312 L 152,312 L 153,311 L 155,311 L 156,310 L 158,310 L 159,309 L 160,309 L 161,308 L 162,308 L 166,304 L 168,304 L 168,303 L 171,300 L 173,300 L 172,299 L 172,296 L 173,295 L 173,290 L 172,290 L 171,289 L 170,289 L 169,290 L 168,290 L 167,289 L 166,289 L 164,287 L 164,281 L 165,280 L 165,278 L 166,277 L 166,276 L 167,275 L 167,273 L 168,272 L 168,269 L 169,268 L 169,266 L 170,265 L 170,264 L 172,262 L 172,261 L 173,260 L 173,258 L 172,257 L 169,257 L 168,256 Z" fill="none" stroke="black" stroke-width="1"/>
</svg>