<svg xmlns="http://www.w3.org/2000/svg" width="477" height="617">
  <path d="M 190,242 L 186,246 L 186,247 L 185,248 L 184,248 L 182,250 L 182,251 L 181,252 L 181,253 L 177,257 L 177,258 L 176,259 L 174,259 L 174,260 L 173,261 L 173,262 L 171,264 L 171,265 L 170,266 L 170,268 L 169,269 L 169,272 L 168,273 L 168,275 L 167,276 L 167,277 L 166,278 L 166,280 L 165,281 L 165,287 L 166,288 L 167,288 L 168,289 L 169,289 L 170,288 L 171,288 L 172,289 L 173,289 L 174,290 L 174,295 L 173,296 L 173,299 L 177,303 L 180,303 L 180,302 L 181,301 L 186,301 L 187,302 L 187,305 L 188,306 L 188,307 L 191,310 L 191,311 L 192,311 L 193,312 L 199,312 L 202,315 L 207,315 L 210,312 L 211,312 L 212,311 L 215,311 L 216,310 L 216,309 L 217,308 L 217,299 L 220,296 L 220,291 L 222,289 L 222,287 L 225,284 L 225,281 L 226,280 L 226,276 L 225,275 L 225,272 L 226,271 L 226,269 L 225,268 L 225,259 L 224,258 L 224,254 L 223,253 L 222,253 L 221,252 L 219,252 L 218,251 L 217,251 L 213,255 L 212,255 L 211,256 L 210,256 L 208,254 L 207,254 L 204,251 L 203,251 L 201,249 L 201,245 L 199,243 L 198,243 L 197,242 Z" fill="none" stroke="black" stroke-width="1"/>
</svg>