<svg xmlns="http://www.w3.org/2000/svg" width="477" height="617">
  <path d="M 204,329 L 204,331 L 203,332 L 202,332 L 202,334 L 201,335 L 199,335 L 199,340 L 198,341 L 196,341 L 196,343 L 195,344 L 192,344 L 192,347 L 193,348 L 192,349 L 190,349 L 190,357 L 191,357 L 192,358 L 192,363 L 193,363 L 195,365 L 196,365 L 197,366 L 197,367 L 198,367 L 199,368 L 199,370 L 202,373 L 205,373 L 206,374 L 207,374 L 209,376 L 209,377 L 210,378 L 210,377 L 213,374 L 213,373 L 216,370 L 217,370 L 218,369 L 219,369 L 219,368 L 220,367 L 219,366 L 219,365 L 218,364 L 218,363 L 220,361 L 220,360 L 224,356 L 224,355 L 225,354 L 225,351 L 228,348 L 229,348 L 230,347 L 230,346 L 235,341 L 235,339 L 236,338 L 236,337 L 235,337 L 234,336 L 233,336 L 232,337 L 226,337 L 225,336 L 217,336 L 215,334 L 213,334 L 211,332 L 210,332 L 208,330 L 208,329 Z" fill="none" stroke="black" stroke-width="1"/>
</svg>