<svg xmlns="http://www.w3.org/2000/svg" width="477" height="617">
  <path d="M 247,333 L 246,334 L 245,334 L 243,336 L 242,336 L 241,337 L 240,337 L 239,338 L 237,338 L 236,339 L 236,341 L 231,346 L 231,347 L 229,349 L 228,349 L 226,351 L 226,354 L 225,355 L 225,356 L 221,360 L 221,361 L 219,363 L 219,364 L 220,365 L 220,366 L 221,367 L 220,368 L 220,369 L 219,370 L 218,370 L 217,371 L 216,371 L 214,373 L 214,374 L 211,377 L 211,379 L 214,382 L 216,382 L 217,383 L 219,383 L 220,384 L 222,384 L 225,387 L 226,387 L 226,386 L 228,384 L 228,383 L 229,382 L 230,382 L 231,381 L 231,379 L 232,378 L 232,376 L 233,375 L 235,375 L 236,374 L 237,374 L 238,373 L 242,373 L 243,372 L 251,372 L 253,370 L 254,370 L 255,369 L 260,369 L 261,368 L 261,359 L 257,355 L 257,353 L 256,352 L 256,351 L 255,350 L 255,346 L 254,345 L 254,343 L 255,342 L 255,341 L 256,340 L 256,336 L 254,334 L 254,333 Z" fill="none" stroke="black" stroke-width="1"/>
</svg>