<svg xmlns="http://www.w3.org/2000/svg" width="477" height="617">
  <path d="M 300,279 L 300,280 L 299,281 L 292,281 L 290,283 L 284,283 L 283,284 L 280,284 L 279,285 L 277,285 L 276,286 L 275,286 L 274,285 L 270,285 L 268,283 L 258,283 L 256,281 L 255,281 L 254,280 L 253,281 L 252,281 L 250,283 L 249,283 L 249,284 L 247,286 L 247,287 L 245,289 L 245,292 L 244,293 L 244,295 L 245,296 L 245,297 L 246,298 L 246,300 L 247,301 L 248,301 L 249,302 L 250,302 L 251,303 L 251,304 L 252,305 L 253,305 L 254,306 L 257,306 L 258,307 L 260,307 L 263,310 L 263,312 L 266,315 L 266,320 L 265,321 L 265,324 L 266,325 L 266,326 L 267,326 L 269,324 L 270,325 L 271,325 L 273,327 L 274,327 L 275,328 L 276,328 L 278,330 L 279,330 L 281,332 L 282,332 L 283,331 L 283,330 L 285,328 L 287,328 L 288,327 L 288,325 L 287,324 L 287,320 L 288,319 L 288,318 L 287,317 L 287,315 L 290,312 L 291,312 L 293,310 L 294,310 L 295,309 L 296,309 L 297,310 L 302,310 L 304,308 L 304,304 L 303,303 L 302,303 L 300,301 L 300,299 L 299,298 L 299,297 L 297,295 L 297,291 L 298,290 L 298,288 L 299,287 L 299,286 L 301,284 L 301,280 Z" fill="none" stroke="black" stroke-width="1"/>
</svg>