<svg xmlns="http://www.w3.org/2000/svg" width="477" height="617">
  <path d="M 238,239 L 237,240 L 235,240 L 234,241 L 229,241 L 228,242 L 228,246 L 227,247 L 227,251 L 225,253 L 225,258 L 226,259 L 226,268 L 227,269 L 227,271 L 226,272 L 226,275 L 227,276 L 227,279 L 233,279 L 234,280 L 241,280 L 242,281 L 244,281 L 245,282 L 250,282 L 252,280 L 253,280 L 254,279 L 255,280 L 256,280 L 258,282 L 268,282 L 270,284 L 274,284 L 275,285 L 276,285 L 277,284 L 279,284 L 280,283 L 283,283 L 284,282 L 284,277 L 285,276 L 285,275 L 283,273 L 283,272 L 280,269 L 278,269 L 277,268 L 275,268 L 273,266 L 272,266 L 270,264 L 270,263 L 269,263 L 267,261 L 265,261 L 261,257 L 259,257 L 257,255 L 251,255 L 250,254 L 250,253 L 249,253 L 248,252 L 248,251 L 246,249 L 244,249 L 242,247 L 242,239 Z" fill="none" stroke="black" stroke-width="1"/>
</svg>