<svg xmlns="http://www.w3.org/2000/svg" width="477" height="617">
  <path d="M 262,155 L 261,156 L 258,156 L 258,160 L 263,160 L 264,161 L 264,162 L 265,162 L 266,163 L 265,164 L 265,168 L 266,169 L 265,170 L 263,170 L 263,174 L 262,175 L 259,175 L 259,179 L 258,180 L 254,180 L 254,181 L 253,182 L 251,182 L 251,189 L 250,190 L 249,190 L 249,197 L 250,197 L 251,198 L 251,206 L 252,207 L 252,208 L 253,209 L 253,210 L 254,211 L 254,212 L 255,213 L 255,214 L 256,215 L 256,223 L 255,224 L 255,226 L 254,227 L 254,234 L 255,234 L 257,232 L 259,232 L 262,229 L 265,229 L 267,231 L 268,231 L 269,232 L 270,232 L 271,233 L 271,234 L 275,234 L 276,235 L 282,235 L 283,236 L 295,236 L 295,233 L 294,232 L 294,231 L 293,230 L 293,226 L 292,226 L 291,225 L 291,223 L 288,220 L 288,219 L 287,218 L 287,215 L 288,214 L 288,212 L 289,211 L 289,203 L 288,202 L 287,202 L 284,199 L 284,198 L 281,195 L 281,194 L 277,190 L 277,189 L 278,188 L 279,188 L 279,181 L 280,180 L 281,180 L 281,165 L 280,164 L 280,162 L 279,161 L 279,160 L 278,160 L 277,159 L 274,159 L 273,158 L 273,156 L 269,156 L 268,155 Z" fill="none" stroke="black" stroke-width="1"/>
</svg>