<svg xmlns="http://www.w3.org/2000/svg" width="299" height="181">
  <path d="M 136,45 L 136,47 L 134,49 L 132,49 L 131,50 L 125,50 L 124,49 L 121,49 L 121,50 L 119,52 L 119,55 L 118,56 L 118,59 L 117,60 L 119,62 L 119,63 L 120,64 L 120,65 L 121,66 L 121,67 L 122,68 L 132,68 L 133,69 L 134,69 L 136,71 L 141,71 L 142,70 L 147,70 L 148,69 L 149,69 L 150,68 L 152,68 L 152,67 L 151,66 L 150,66 L 149,65 L 148,65 L 147,64 L 147,63 L 146,62 L 146,59 L 145,58 L 145,57 L 144,57 L 142,55 L 142,51 L 141,50 L 141,49 L 140,49 Z" fill="none" stroke="black" stroke-width="1"/>
</svg>