<svg xmlns="http://www.w3.org/2000/svg" width="477" height="617">
  <path d="M 252,230 L 247,235 L 247,236 L 245,238 L 243,238 L 243,247 L 244,248 L 246,248 L 249,251 L 249,252 L 250,252 L 251,253 L 251,254 L 257,254 L 259,256 L 261,256 L 265,260 L 267,260 L 269,262 L 270,262 L 271,263 L 271,264 L 272,265 L 273,265 L 275,267 L 277,267 L 278,268 L 280,268 L 284,272 L 284,273 L 286,275 L 286,276 L 285,277 L 285,282 L 290,282 L 292,280 L 299,280 L 299,272 L 298,271 L 298,268 L 300,266 L 300,260 L 299,259 L 299,258 L 296,255 L 296,252 L 297,251 L 297,249 L 298,248 L 298,247 L 299,246 L 299,245 L 303,241 L 303,239 L 302,238 L 300,238 L 299,237 L 283,237 L 282,236 L 276,236 L 275,235 L 271,235 L 270,234 L 270,233 L 269,233 L 268,232 L 267,232 L 265,230 L 262,230 L 259,233 L 257,233 L 255,235 L 254,235 L 253,234 L 253,230 Z" fill="none" stroke="black" stroke-width="1"/>
</svg>