<svg xmlns="http://www.w3.org/2000/svg" width="477" height="617">
  <path d="M 427,223 L 427,225 L 425,227 L 425,228 L 424,229 L 424,230 L 423,231 L 423,237 L 424,238 L 424,239 L 423,240 L 423,241 L 422,242 L 422,243 L 421,244 L 420,244 L 420,245 L 426,251 L 426,253 L 427,254 L 427,255 L 428,256 L 429,256 L 430,257 L 435,257 L 435,256 L 437,254 L 438,255 L 438,254 L 439,253 L 439,252 L 438,251 L 439,250 L 440,250 L 441,249 L 441,248 L 439,246 L 440,245 L 441,245 L 443,247 L 446,244 L 447,244 L 449,242 L 450,242 L 451,241 L 452,241 L 452,240 L 453,239 L 453,238 L 450,238 L 449,237 L 447,237 L 446,236 L 445,236 L 441,232 L 439,232 L 438,231 L 436,231 L 434,229 L 433,229 L 432,228 L 432,227 L 430,225 L 430,224 L 429,223 Z" fill="none" stroke="black" stroke-width="1"/>
</svg>