<svg xmlns="http://www.w3.org/2000/svg" width="477" height="617">
  <path d="M 402,220 L 399,223 L 397,223 L 396,224 L 394,224 L 393,225 L 392,225 L 391,226 L 389,226 L 388,227 L 387,227 L 387,231 L 388,232 L 388,235 L 389,236 L 392,236 L 393,237 L 395,237 L 396,238 L 398,238 L 399,237 L 404,237 L 406,239 L 408,239 L 410,241 L 411,241 L 412,242 L 413,242 L 414,243 L 414,244 L 417,244 L 418,245 L 419,245 L 419,244 L 420,243 L 421,243 L 421,242 L 422,241 L 422,240 L 423,239 L 423,238 L 422,237 L 422,231 L 423,230 L 423,229 L 424,228 L 424,227 L 422,227 L 421,226 L 419,226 L 417,224 L 416,224 L 413,221 L 412,221 L 411,220 Z" fill="none" stroke="black" stroke-width="1"/>
</svg>