<svg xmlns="http://www.w3.org/2000/svg" width="477" height="617">
  <path d="M 385,237 L 384,238 L 383,238 L 383,239 L 379,243 L 379,246 L 378,247 L 378,248 L 375,251 L 374,251 L 373,252 L 372,252 L 370,254 L 369,254 L 367,256 L 367,260 L 364,263 L 366,263 L 367,264 L 369,264 L 372,267 L 373,267 L 379,273 L 379,275 L 383,279 L 384,279 L 385,280 L 388,280 L 389,281 L 396,281 L 397,280 L 397,279 L 398,278 L 398,277 L 400,275 L 401,275 L 402,274 L 402,273 L 408,267 L 410,267 L 411,266 L 414,266 L 416,264 L 417,264 L 418,263 L 419,263 L 421,261 L 421,259 L 422,258 L 422,257 L 424,255 L 424,254 L 425,253 L 425,251 L 420,246 L 418,246 L 417,245 L 414,245 L 413,244 L 413,243 L 412,243 L 411,242 L 410,242 L 408,240 L 406,240 L 404,238 L 399,238 L 398,239 L 396,239 L 395,238 L 393,238 L 392,237 Z" fill="none" stroke="black" stroke-width="1"/>
</svg>