<svg xmlns="http://www.w3.org/2000/svg" width="477" height="617">
  <path d="M 394,193 L 393,194 L 392,194 L 388,198 L 388,201 L 385,204 L 385,205 L 384,206 L 382,206 L 380,208 L 380,209 L 379,210 L 378,210 L 377,211 L 376,211 L 376,212 L 378,214 L 380,214 L 382,216 L 382,219 L 384,221 L 384,222 L 385,223 L 385,224 L 386,225 L 386,226 L 388,226 L 389,225 L 391,225 L 392,224 L 393,224 L 394,223 L 396,223 L 397,222 L 399,222 L 402,219 L 411,219 L 412,220 L 413,220 L 416,223 L 417,223 L 419,225 L 421,225 L 422,226 L 425,226 L 426,225 L 426,223 L 427,222 L 427,221 L 428,220 L 428,218 L 430,216 L 429,215 L 428,215 L 426,213 L 426,211 L 425,210 L 425,206 L 424,205 L 424,204 L 423,203 L 423,202 L 422,201 L 422,200 L 421,199 L 420,200 L 419,200 L 418,199 L 418,198 L 416,196 L 414,196 L 413,197 L 412,197 L 410,199 L 409,199 L 407,197 L 407,196 L 405,194 L 401,194 L 400,193 Z" fill="none" stroke="black" stroke-width="1"/>
</svg>