<svg xmlns="http://www.w3.org/2000/svg" width="477" height="617">
  <path d="M 364,264 L 362,266 L 360,266 L 358,268 L 358,271 L 359,272 L 359,273 L 358,274 L 358,276 L 357,277 L 357,280 L 356,281 L 356,282 L 355,283 L 355,287 L 353,289 L 353,300 L 352,301 L 352,302 L 350,304 L 350,306 L 347,309 L 348,310 L 350,310 L 351,311 L 352,311 L 356,315 L 359,315 L 360,316 L 361,316 L 362,317 L 364,317 L 365,318 L 366,318 L 367,319 L 368,319 L 369,320 L 369,321 L 371,323 L 371,326 L 372,326 L 373,325 L 377,325 L 378,326 L 384,326 L 385,327 L 389,327 L 390,328 L 390,329 L 397,329 L 398,328 L 399,328 L 400,327 L 400,319 L 399,318 L 399,308 L 400,307 L 400,303 L 401,302 L 401,299 L 402,298 L 402,287 L 399,284 L 398,284 L 396,282 L 389,282 L 388,281 L 385,281 L 384,280 L 383,280 L 378,275 L 378,273 L 373,268 L 372,268 L 369,265 L 367,265 L 366,264 Z" fill="none" stroke="black" stroke-width="1"/>
</svg>