<svg xmlns="http://www.w3.org/2000/svg" width="477" height="617">
  <path d="M 333,258 L 333,259 L 332,260 L 332,262 L 331,263 L 331,267 L 332,268 L 332,286 L 330,288 L 330,296 L 332,298 L 332,300 L 333,301 L 333,302 L 334,302 L 335,303 L 338,303 L 339,304 L 339,307 L 337,309 L 336,309 L 337,309 L 338,310 L 343,310 L 344,309 L 346,309 L 349,306 L 349,304 L 351,302 L 351,301 L 352,300 L 352,289 L 354,287 L 354,283 L 355,282 L 355,281 L 356,280 L 356,277 L 357,276 L 357,274 L 358,273 L 358,272 L 357,271 L 357,268 L 356,267 L 356,265 L 354,263 L 349,263 L 348,262 L 347,262 L 346,261 L 344,261 L 343,262 L 339,262 L 338,261 L 336,261 Z" fill="none" stroke="black" stroke-width="1"/>
</svg>