<svg xmlns="http://www.w3.org/2000/svg" width="477" height="617">
  <path d="M 328,232 L 326,234 L 326,237 L 324,239 L 323,239 L 322,240 L 320,240 L 319,241 L 317,241 L 316,240 L 314,240 L 312,238 L 309,238 L 308,239 L 307,239 L 306,240 L 304,240 L 304,241 L 300,245 L 300,246 L 299,247 L 299,248 L 298,249 L 298,251 L 297,252 L 297,255 L 300,258 L 300,259 L 301,260 L 301,266 L 299,268 L 299,271 L 300,272 L 300,278 L 302,280 L 302,284 L 300,286 L 300,287 L 299,288 L 299,290 L 298,291 L 298,295 L 300,297 L 300,298 L 301,299 L 301,301 L 302,302 L 303,302 L 305,304 L 305,308 L 303,310 L 303,311 L 305,313 L 306,313 L 307,314 L 309,314 L 310,313 L 311,313 L 314,310 L 315,310 L 315,309 L 316,308 L 317,308 L 318,307 L 319,307 L 320,306 L 321,306 L 322,305 L 325,305 L 327,303 L 328,303 L 329,302 L 332,302 L 332,301 L 331,300 L 331,298 L 329,296 L 329,288 L 331,286 L 331,268 L 330,267 L 330,263 L 331,262 L 331,260 L 332,259 L 332,258 L 334,256 L 334,255 L 337,252 L 337,246 L 338,245 L 338,242 L 337,241 L 337,240 L 335,238 L 335,236 L 334,235 L 334,234 L 333,233 L 332,233 L 331,232 Z" fill="none" stroke="black" stroke-width="1"/>
</svg>