<svg xmlns="http://www.w3.org/2000/svg" width="477" height="617">
  <path d="M 269,325 L 268,326 L 268,327 L 267,328 L 267,329 L 266,330 L 265,330 L 263,332 L 259,332 L 258,331 L 257,331 L 256,332 L 255,332 L 255,334 L 257,336 L 257,340 L 256,341 L 256,342 L 255,343 L 255,345 L 256,346 L 256,350 L 257,351 L 257,352 L 258,353 L 258,355 L 262,359 L 262,368 L 268,368 L 269,369 L 273,369 L 274,368 L 275,368 L 276,367 L 278,367 L 280,365 L 281,365 L 281,364 L 280,363 L 280,362 L 279,361 L 279,357 L 278,357 L 277,356 L 277,351 L 278,350 L 278,346 L 279,345 L 279,338 L 280,337 L 280,335 L 281,334 L 281,333 L 279,331 L 278,331 L 276,329 L 275,329 L 274,328 L 273,328 L 271,326 L 270,326 Z" fill="none" stroke="black" stroke-width="1"/>
</svg>