<svg xmlns="http://www.w3.org/2000/svg" width="477" height="617">
  <path d="M 158,352 L 158,354 L 157,355 L 157,359 L 159,361 L 159,362 L 157,364 L 157,367 L 156,368 L 156,372 L 157,373 L 157,374 L 158,374 L 159,375 L 159,376 L 160,377 L 160,379 L 161,380 L 161,382 L 162,383 L 162,385 L 161,386 L 161,388 L 160,389 L 160,395 L 161,396 L 161,397 L 163,399 L 166,399 L 167,398 L 167,397 L 170,394 L 174,394 L 176,392 L 178,392 L 179,391 L 184,391 L 185,392 L 186,392 L 188,390 L 189,390 L 190,391 L 193,391 L 194,392 L 195,392 L 196,391 L 196,390 L 197,389 L 197,388 L 198,387 L 198,385 L 197,384 L 197,382 L 198,381 L 198,378 L 199,377 L 199,376 L 201,374 L 202,374 L 198,370 L 198,368 L 197,368 L 196,367 L 196,366 L 195,366 L 193,364 L 192,364 L 191,363 L 191,358 L 190,358 L 189,357 L 189,353 L 184,353 L 183,352 L 180,352 L 179,353 L 171,353 L 170,354 L 168,354 L 167,355 L 164,355 L 163,354 L 161,354 L 159,352 Z" fill="none" stroke="black" stroke-width="1"/>
</svg>