<svg xmlns="http://www.w3.org/2000/svg" width="299" height="181">
  <path d="M 157,7 L 157,13 L 156,14 L 156,16 L 152,20 L 151,20 L 149,22 L 148,22 L 146,20 L 144,20 L 144,22 L 143,23 L 143,24 L 144,24 L 146,26 L 146,29 L 147,29 L 151,33 L 151,36 L 150,37 L 149,37 L 148,38 L 148,39 L 149,40 L 149,42 L 150,42 L 151,43 L 152,43 L 153,44 L 157,44 L 158,43 L 160,43 L 161,44 L 161,45 L 162,46 L 162,48 L 163,49 L 163,50 L 164,51 L 164,52 L 165,53 L 165,56 L 166,56 L 167,57 L 168,57 L 171,54 L 173,54 L 174,55 L 175,54 L 177,54 L 177,51 L 178,50 L 178,47 L 177,46 L 179,44 L 180,44 L 181,43 L 181,39 L 178,36 L 177,36 L 176,35 L 176,34 L 175,33 L 174,33 L 172,31 L 172,30 L 171,29 L 171,24 L 170,24 L 169,23 L 169,21 L 168,20 L 168,17 L 165,14 L 165,13 L 167,11 L 165,9 L 165,7 L 164,7 L 162,9 L 161,8 L 160,8 L 159,7 Z" fill="none" stroke="black" stroke-width="1"/>
</svg>