<svg xmlns="http://www.w3.org/2000/svg" width="477" height="617">
  <path d="M 469,212 L 468,213 L 463,213 L 462,214 L 456,214 L 455,215 L 453,215 L 452,216 L 450,216 L 449,217 L 448,217 L 447,218 L 446,218 L 444,220 L 438,220 L 436,218 L 435,218 L 433,216 L 431,216 L 429,218 L 429,220 L 428,221 L 428,222 L 429,222 L 431,224 L 431,225 L 433,227 L 433,228 L 434,228 L 436,230 L 438,230 L 439,231 L 441,231 L 445,235 L 446,235 L 447,236 L 449,236 L 450,237 L 453,237 L 454,238 L 454,237 L 455,236 L 456,236 L 457,235 L 457,234 L 461,230 L 461,229 L 467,223 L 467,222 L 469,220 L 469,219 L 470,218 L 470,217 L 471,216 L 471,214 L 472,213 L 472,212 Z" fill="none" stroke="black" stroke-width="1"/>
</svg>