<svg xmlns="http://www.w3.org/2000/svg" width="477" height="617">
  <path d="M 422,168 L 421,169 L 421,170 L 419,172 L 419,173 L 418,174 L 418,175 L 417,176 L 417,181 L 416,182 L 416,183 L 415,184 L 415,186 L 416,187 L 416,188 L 417,189 L 417,190 L 418,191 L 417,192 L 417,196 L 419,198 L 419,199 L 420,199 L 421,198 L 423,200 L 423,201 L 424,202 L 424,203 L 425,204 L 425,205 L 426,206 L 426,210 L 427,211 L 427,213 L 428,214 L 429,214 L 430,215 L 433,215 L 435,217 L 436,217 L 438,219 L 444,219 L 446,217 L 447,217 L 448,216 L 449,216 L 449,213 L 447,211 L 447,210 L 446,209 L 446,208 L 445,207 L 445,203 L 446,202 L 446,199 L 445,198 L 445,194 L 444,193 L 444,191 L 445,190 L 445,189 L 446,188 L 446,186 L 449,183 L 449,181 L 446,181 L 445,182 L 441,182 L 440,181 L 439,181 L 438,180 L 437,180 L 435,178 L 435,177 L 434,177 L 432,175 L 429,175 L 428,174 L 427,174 L 426,173 L 425,173 L 423,171 L 423,168 Z" fill="none" stroke="black" stroke-width="1"/>
</svg>