<svg xmlns="http://www.w3.org/2000/svg" width="477" height="617">
  <path d="M 317,175 L 317,176 L 316,177 L 314,177 L 313,178 L 309,178 L 308,179 L 305,179 L 304,180 L 303,180 L 302,181 L 301,181 L 300,182 L 298,182 L 297,183 L 293,183 L 292,182 L 290,182 L 289,181 L 286,181 L 285,180 L 282,180 L 281,181 L 280,181 L 280,188 L 279,189 L 278,189 L 278,190 L 282,194 L 282,195 L 285,198 L 285,199 L 287,201 L 288,201 L 290,203 L 290,211 L 289,212 L 289,214 L 288,215 L 288,218 L 292,218 L 293,217 L 294,217 L 295,216 L 300,216 L 301,215 L 302,215 L 302,214 L 303,213 L 304,213 L 304,210 L 305,209 L 306,209 L 306,206 L 307,205 L 308,205 L 308,197 L 309,196 L 310,196 L 310,194 L 311,193 L 317,193 L 317,192 L 318,191 L 322,191 L 322,189 L 323,188 L 326,188 L 326,186 L 327,185 L 330,185 L 330,182 L 331,181 L 333,181 L 333,180 L 332,180 L 331,179 L 330,179 L 329,178 L 328,178 L 327,177 L 326,177 L 325,176 L 322,176 L 321,175 Z" fill="none" stroke="black" stroke-width="1"/>
</svg>