<svg xmlns="http://www.w3.org/2000/svg" width="477" height="617">
  <path d="M 347,140 L 346,141 L 343,141 L 340,144 L 338,144 L 337,145 L 336,145 L 336,146 L 334,148 L 333,148 L 332,149 L 330,149 L 329,150 L 325,150 L 325,152 L 326,153 L 326,154 L 327,155 L 327,156 L 328,157 L 328,160 L 329,161 L 329,165 L 328,166 L 328,168 L 327,169 L 327,171 L 326,172 L 326,176 L 327,176 L 328,177 L 329,177 L 330,178 L 331,178 L 332,179 L 333,179 L 334,180 L 340,180 L 341,181 L 349,181 L 349,177 L 350,176 L 351,176 L 351,174 L 348,174 L 347,173 L 347,161 L 348,160 L 350,160 L 350,151 L 349,150 L 349,147 L 350,146 L 351,146 L 351,145 L 350,145 L 349,144 L 349,140 Z" fill="none" stroke="black" stroke-width="1"/>
</svg>