<svg xmlns="http://www.w3.org/2000/svg" width="477" height="617">
  <path d="M 334,181 L 333,182 L 331,182 L 331,185 L 330,186 L 327,186 L 327,188 L 326,189 L 323,189 L 323,191 L 322,192 L 318,192 L 318,193 L 317,194 L 311,194 L 311,196 L 310,197 L 309,197 L 309,205 L 308,206 L 307,206 L 307,209 L 306,210 L 305,210 L 305,213 L 304,214 L 303,214 L 303,215 L 302,216 L 301,216 L 300,217 L 295,217 L 294,218 L 293,218 L 292,219 L 289,219 L 289,220 L 292,223 L 292,225 L 293,225 L 294,226 L 294,230 L 295,231 L 295,232 L 296,233 L 296,236 L 299,236 L 300,237 L 302,237 L 304,239 L 306,239 L 307,238 L 308,238 L 309,237 L 312,237 L 314,239 L 316,239 L 317,240 L 319,240 L 320,239 L 322,239 L 323,238 L 324,238 L 325,237 L 325,234 L 328,231 L 331,231 L 332,232 L 333,232 L 334,233 L 335,233 L 335,232 L 336,231 L 336,230 L 335,229 L 335,228 L 336,227 L 336,226 L 338,224 L 339,224 L 340,223 L 341,223 L 341,221 L 340,220 L 340,219 L 339,218 L 339,217 L 337,215 L 337,205 L 338,204 L 338,200 L 339,199 L 339,195 L 340,194 L 340,193 L 341,192 L 341,190 L 342,189 L 342,188 L 341,187 L 341,182 L 340,181 Z" fill="none" stroke="black" stroke-width="1"/>
</svg>