<svg xmlns="http://www.w3.org/2000/svg" width="477" height="617">
  <path d="M 286,126 L 283,129 L 283,133 L 282,134 L 282,135 L 279,138 L 278,138 L 276,140 L 276,142 L 272,146 L 271,146 L 271,147 L 266,152 L 266,154 L 268,154 L 269,155 L 273,155 L 274,156 L 274,158 L 277,158 L 278,159 L 279,159 L 280,160 L 280,161 L 281,162 L 281,164 L 282,165 L 282,179 L 285,179 L 286,180 L 289,180 L 290,181 L 292,181 L 293,182 L 297,182 L 298,181 L 300,181 L 301,180 L 302,180 L 303,179 L 304,179 L 305,178 L 308,178 L 309,177 L 313,177 L 314,176 L 316,176 L 316,175 L 317,174 L 321,174 L 322,175 L 325,175 L 325,172 L 326,171 L 326,169 L 327,168 L 327,166 L 328,165 L 328,161 L 327,160 L 327,157 L 326,156 L 326,155 L 325,154 L 325,153 L 324,152 L 324,149 L 321,149 L 320,148 L 317,148 L 316,147 L 315,147 L 312,144 L 312,143 L 311,142 L 311,138 L 310,138 L 309,137 L 308,137 L 306,135 L 305,135 L 304,134 L 302,134 L 301,133 L 297,133 L 295,131 L 294,131 L 293,130 L 293,129 L 291,129 L 289,127 L 289,126 Z" fill="none" stroke="black" stroke-width="1"/>
</svg>