<svg xmlns="http://www.w3.org/2000/svg" width="477" height="617">
  <path d="M 318,94 L 318,95 L 319,95 L 319,94 Z" fill="none" stroke="black" stroke-width="1"/>
  <path d="M 302,92 L 302,101 L 301,102 L 301,104 L 300,105 L 300,106 L 299,107 L 299,109 L 297,111 L 297,112 L 295,114 L 295,115 L 293,117 L 292,117 L 292,124 L 290,126 L 290,127 L 291,128 L 293,128 L 294,129 L 294,130 L 295,130 L 297,132 L 301,132 L 302,133 L 304,133 L 305,134 L 306,134 L 308,136 L 309,136 L 310,137 L 312,137 L 313,136 L 314,136 L 315,135 L 316,135 L 317,134 L 318,134 L 320,132 L 320,131 L 322,129 L 322,127 L 320,125 L 322,123 L 322,118 L 323,117 L 323,115 L 327,111 L 327,109 L 326,108 L 323,111 L 322,110 L 322,109 L 323,108 L 323,107 L 325,105 L 324,104 L 324,103 L 322,103 L 320,101 L 321,100 L 320,99 L 319,100 L 318,99 L 318,98 L 317,98 L 316,97 L 314,99 L 314,101 L 313,102 L 312,102 L 311,101 L 311,98 L 312,97 L 312,95 L 312,97 L 311,98 L 310,98 L 309,97 L 310,96 L 310,95 L 309,94 L 308,95 L 307,95 L 306,94 L 306,93 L 305,94 L 303,92 Z" fill="none" stroke="black" stroke-width="1"/>
</svg>