<svg xmlns="http://www.w3.org/2000/svg" width="477" height="617">
  <path d="M 288,117 L 287,118 L 286,118 L 285,119 L 273,119 L 272,120 L 270,120 L 268,122 L 267,122 L 266,123 L 265,123 L 263,125 L 262,125 L 261,126 L 259,126 L 258,127 L 252,127 L 251,128 L 250,128 L 249,129 L 248,129 L 248,130 L 247,131 L 243,131 L 242,130 L 240,130 L 239,129 L 236,129 L 235,128 L 234,129 L 234,133 L 235,134 L 235,146 L 236,146 L 237,147 L 237,153 L 238,154 L 238,156 L 239,157 L 239,159 L 238,160 L 238,161 L 237,162 L 237,167 L 238,168 L 238,171 L 242,175 L 243,175 L 245,177 L 246,177 L 247,178 L 248,178 L 251,181 L 253,181 L 253,180 L 254,179 L 258,179 L 258,175 L 259,174 L 262,174 L 262,170 L 263,169 L 265,169 L 264,168 L 264,164 L 265,163 L 264,163 L 263,162 L 263,161 L 258,161 L 257,160 L 257,156 L 258,155 L 261,155 L 262,154 L 265,154 L 265,152 L 270,147 L 270,146 L 271,145 L 272,145 L 275,142 L 275,140 L 278,137 L 279,137 L 281,135 L 281,134 L 282,133 L 282,129 L 286,125 L 290,125 L 291,124 L 291,117 Z" fill="none" stroke="black" stroke-width="1"/>
</svg>