<svg xmlns="http://www.w3.org/2000/svg" width="477" height="617">
  <path d="M 248,102 L 246,104 L 244,104 L 243,105 L 241,105 L 240,104 L 238,104 L 237,105 L 236,105 L 235,106 L 233,106 L 232,105 L 231,105 L 230,104 L 229,104 L 228,105 L 228,106 L 229,107 L 229,109 L 228,110 L 227,109 L 227,108 L 225,106 L 226,105 L 225,105 L 224,104 L 224,105 L 225,106 L 225,110 L 226,111 L 226,113 L 225,114 L 223,112 L 223,108 L 221,106 L 221,104 L 220,103 L 219,103 L 219,104 L 217,106 L 217,107 L 218,108 L 218,115 L 219,116 L 219,123 L 218,124 L 218,127 L 219,127 L 220,128 L 221,128 L 224,131 L 226,131 L 227,130 L 229,130 L 230,129 L 231,129 L 232,128 L 234,128 L 235,127 L 236,128 L 239,128 L 240,129 L 242,129 L 243,130 L 247,130 L 247,128 L 245,126 L 245,119 L 246,118 L 247,118 L 248,117 L 249,117 L 249,114 L 248,114 L 247,113 L 247,109 L 248,108 L 248,105 L 250,103 L 250,102 Z" fill="none" stroke="black" stroke-width="1"/>
</svg>