<svg xmlns="http://www.w3.org/2000/svg" width="477" height="617">
  <path d="M 153,95 L 151,97 L 150,96 L 149,96 L 148,97 L 146,97 L 145,98 L 142,98 L 141,97 L 140,97 L 139,96 L 137,96 L 136,97 L 135,97 L 134,96 L 132,98 L 128,98 L 126,100 L 126,101 L 122,105 L 119,105 L 117,103 L 115,103 L 113,105 L 112,105 L 110,107 L 106,107 L 105,108 L 104,108 L 104,110 L 105,111 L 106,111 L 108,113 L 108,115 L 112,119 L 113,119 L 116,122 L 117,122 L 118,123 L 120,123 L 124,127 L 123,128 L 123,130 L 121,132 L 121,133 L 122,134 L 122,135 L 123,135 L 124,136 L 125,136 L 127,138 L 131,138 L 132,139 L 138,139 L 139,138 L 147,138 L 148,137 L 157,137 L 158,136 L 160,136 L 161,135 L 163,135 L 165,133 L 170,133 L 171,134 L 177,134 L 179,132 L 180,132 L 182,130 L 184,130 L 184,128 L 183,127 L 183,126 L 182,126 L 177,121 L 176,121 L 175,120 L 175,119 L 171,115 L 171,112 L 170,111 L 170,105 L 169,104 L 169,103 L 164,103 L 163,102 L 162,102 L 161,101 L 161,100 L 159,100 L 158,99 L 157,99 Z" fill="none" stroke="black" stroke-width="1"/>
</svg>