<svg xmlns="http://www.w3.org/2000/svg" width="318" height="385">
  <path d="M 123,245 L 122,246 L 122,247 L 121,248 L 121,249 L 120,250 L 120,251 L 118,253 L 115,253 L 114,254 L 115,254 L 116,255 L 117,255 L 118,256 L 119,256 L 121,258 L 122,258 L 123,259 L 126,259 L 127,260 L 127,263 L 128,263 L 129,264 L 133,264 L 136,267 L 138,267 L 139,268 L 141,268 L 142,269 L 143,269 L 144,270 L 147,270 L 148,271 L 149,271 L 150,270 L 151,270 L 152,269 L 152,268 L 151,267 L 150,267 L 149,266 L 147,266 L 146,265 L 146,263 L 145,262 L 145,261 L 143,261 L 141,259 L 141,255 L 142,254 L 142,252 L 141,251 L 141,250 L 142,249 L 140,247 L 139,247 L 138,246 L 138,245 L 134,245 L 133,246 L 133,247 L 132,248 L 129,248 L 128,247 L 127,247 L 126,246 L 125,246 L 124,245 Z" fill="none" stroke="black" stroke-width="1"/>
</svg>