<svg xmlns="http://www.w3.org/2000/svg" width="491" height="213">
  <path d="M 350,89 L 348,91 L 347,91 L 346,92 L 343,92 L 342,93 L 341,93 L 341,100 L 338,103 L 339,104 L 339,106 L 341,108 L 341,109 L 344,112 L 344,113 L 345,113 L 348,116 L 350,116 L 351,117 L 351,118 L 353,120 L 353,122 L 354,123 L 353,124 L 355,126 L 355,129 L 356,129 L 357,128 L 359,128 L 360,129 L 360,130 L 361,131 L 361,134 L 359,136 L 359,139 L 358,140 L 358,142 L 359,143 L 359,149 L 358,150 L 358,151 L 360,151 L 363,154 L 363,157 L 365,159 L 365,160 L 366,161 L 366,163 L 365,164 L 364,164 L 363,165 L 363,166 L 364,166 L 365,167 L 368,167 L 369,168 L 371,168 L 372,169 L 373,169 L 376,172 L 378,172 L 379,171 L 380,171 L 381,172 L 382,171 L 383,171 L 384,172 L 385,172 L 385,171 L 386,170 L 386,168 L 387,167 L 387,163 L 389,161 L 389,149 L 388,149 L 387,148 L 387,138 L 386,138 L 385,137 L 385,134 L 383,132 L 383,131 L 381,131 L 378,128 L 378,126 L 377,125 L 377,123 L 376,122 L 376,121 L 375,120 L 375,114 L 374,113 L 374,109 L 373,108 L 373,105 L 374,104 L 374,101 L 370,97 L 370,96 L 371,95 L 371,94 L 370,93 L 369,93 L 368,92 L 367,92 L 366,91 L 366,90 L 360,90 L 359,89 Z" fill="none" stroke="black" stroke-width="1"/>
</svg>