<svg xmlns="http://www.w3.org/2000/svg" width="690" height="339">
  <path d="M 489,237 L 488,238 L 486,238 L 485,239 L 485,240 L 482,243 L 482,244 L 481,245 L 480,245 L 478,247 L 478,248 L 477,249 L 477,251 L 476,252 L 476,253 L 474,255 L 472,255 L 470,257 L 469,257 L 466,260 L 466,261 L 464,263 L 464,268 L 462,270 L 459,270 L 458,271 L 458,272 L 457,273 L 455,273 L 454,274 L 453,274 L 453,275 L 452,276 L 452,277 L 451,278 L 451,284 L 450,285 L 450,286 L 449,287 L 449,290 L 452,290 L 454,292 L 455,292 L 456,293 L 458,293 L 459,294 L 470,294 L 472,296 L 474,296 L 475,297 L 480,297 L 481,298 L 488,298 L 489,299 L 504,299 L 505,298 L 506,298 L 507,297 L 508,297 L 509,296 L 510,296 L 511,295 L 510,294 L 510,291 L 509,291 L 507,289 L 507,288 L 505,288 L 503,286 L 503,285 L 504,284 L 504,283 L 510,277 L 510,276 L 509,275 L 509,274 L 507,272 L 507,269 L 510,266 L 511,266 L 513,264 L 513,261 L 515,259 L 515,258 L 514,258 L 513,257 L 513,255 L 514,254 L 515,254 L 517,252 L 517,250 L 518,249 L 518,248 L 520,246 L 520,240 L 519,239 L 518,239 L 517,240 L 516,240 L 514,242 L 513,242 L 512,243 L 511,242 L 502,242 L 501,241 L 500,241 L 499,240 L 498,240 L 497,239 L 495,239 L 494,238 L 493,238 L 492,237 Z" fill="none" stroke="black" stroke-width="1"/>
</svg>