<svg xmlns="http://www.w3.org/2000/svg" width="477" height="617">
  <path d="M 52,47 L 51,48 L 49,48 L 47,50 L 47,56 L 51,60 L 51,62 L 52,63 L 52,66 L 51,67 L 50,67 L 50,68 L 48,70 L 48,72 L 47,73 L 47,75 L 46,76 L 46,77 L 44,79 L 44,84 L 45,85 L 45,94 L 46,95 L 46,96 L 47,97 L 48,97 L 49,98 L 50,98 L 51,99 L 52,99 L 53,100 L 55,100 L 56,101 L 56,104 L 60,108 L 61,108 L 63,106 L 68,106 L 70,108 L 71,108 L 72,109 L 73,109 L 74,110 L 76,110 L 77,109 L 76,108 L 76,105 L 78,103 L 78,102 L 79,101 L 79,100 L 80,99 L 80,98 L 79,97 L 78,97 L 77,96 L 77,95 L 76,94 L 76,90 L 73,87 L 73,84 L 72,83 L 72,68 L 73,67 L 73,65 L 74,64 L 75,64 L 76,63 L 76,61 L 80,57 L 81,57 L 83,55 L 83,50 L 82,51 L 80,51 L 78,49 L 75,49 L 74,48 L 68,48 L 67,49 L 63,49 L 62,50 L 61,50 L 60,51 L 56,47 Z" fill="none" stroke="black" stroke-width="1"/>
</svg>