<svg xmlns="http://www.w3.org/2000/svg" width="477" height="617">
  <path d="M 81,99 L 80,100 L 80,101 L 79,102 L 79,103 L 77,105 L 77,108 L 78,109 L 76,111 L 74,111 L 73,110 L 72,110 L 71,109 L 70,109 L 68,107 L 63,107 L 59,111 L 59,113 L 60,114 L 60,115 L 58,117 L 58,123 L 59,124 L 57,126 L 57,128 L 56,129 L 56,130 L 57,131 L 57,132 L 56,133 L 55,133 L 54,134 L 54,138 L 55,138 L 56,139 L 56,141 L 55,142 L 54,142 L 52,144 L 52,146 L 53,146 L 55,148 L 56,148 L 58,150 L 58,152 L 59,153 L 59,158 L 60,159 L 60,161 L 61,161 L 62,162 L 61,163 L 61,166 L 62,167 L 62,168 L 65,168 L 67,166 L 67,165 L 68,164 L 71,164 L 72,163 L 74,163 L 75,162 L 76,162 L 77,161 L 77,160 L 80,157 L 81,157 L 81,156 L 83,154 L 84,154 L 87,151 L 88,151 L 89,150 L 90,150 L 91,149 L 96,149 L 97,148 L 98,148 L 99,147 L 100,147 L 101,146 L 104,146 L 106,148 L 107,148 L 108,149 L 109,149 L 110,150 L 111,150 L 115,146 L 115,144 L 120,139 L 121,139 L 122,138 L 126,138 L 125,137 L 124,137 L 123,136 L 122,136 L 121,135 L 121,134 L 120,133 L 120,132 L 122,130 L 122,128 L 123,127 L 120,124 L 118,124 L 117,123 L 116,123 L 113,120 L 112,120 L 107,115 L 107,113 L 106,112 L 105,112 L 103,110 L 103,106 L 101,104 L 95,104 L 94,103 L 93,103 L 90,100 L 89,100 L 88,99 L 85,99 L 84,100 L 83,100 L 82,99 Z" fill="none" stroke="black" stroke-width="1"/>
</svg>