<svg xmlns="http://www.w3.org/2000/svg" width="477" height="617">
  <path d="M 176,70 L 176,71 L 174,73 L 173,73 L 172,74 L 170,74 L 169,75 L 168,74 L 162,74 L 161,75 L 160,75 L 159,74 L 154,74 L 154,75 L 152,77 L 151,77 L 151,79 L 152,80 L 152,81 L 153,82 L 152,83 L 152,84 L 151,85 L 151,87 L 152,88 L 153,88 L 154,89 L 154,95 L 157,98 L 158,98 L 159,99 L 161,99 L 162,100 L 162,101 L 163,101 L 164,102 L 169,102 L 170,103 L 170,104 L 171,105 L 171,111 L 172,112 L 172,115 L 176,119 L 176,120 L 177,120 L 182,125 L 183,125 L 184,126 L 184,127 L 185,128 L 185,129 L 186,129 L 187,128 L 189,128 L 190,127 L 191,127 L 192,126 L 196,126 L 198,128 L 198,130 L 202,130 L 203,131 L 212,131 L 213,130 L 214,130 L 217,127 L 217,124 L 218,123 L 218,116 L 217,115 L 217,111 L 215,109 L 215,104 L 214,104 L 210,100 L 207,100 L 206,99 L 207,98 L 208,98 L 206,98 L 206,100 L 205,101 L 204,100 L 204,99 L 198,99 L 197,100 L 196,99 L 196,98 L 197,97 L 200,97 L 199,97 L 198,96 L 198,95 L 195,92 L 194,92 L 191,89 L 191,88 L 190,87 L 191,86 L 192,86 L 193,85 L 193,81 L 195,79 L 195,76 L 193,76 L 192,75 L 192,74 L 189,71 L 188,71 L 187,72 L 185,72 L 184,71 L 183,71 L 182,70 Z" fill="none" stroke="black" stroke-width="1"/>
</svg>