<svg xmlns="http://www.w3.org/2000/svg" width="491" height="213">
  <path d="M 401,117 L 401,118 L 399,120 L 395,120 L 393,122 L 392,122 L 392,126 L 393,126 L 394,127 L 394,128 L 393,129 L 393,130 L 392,131 L 392,136 L 393,137 L 393,140 L 394,141 L 395,141 L 396,142 L 396,143 L 397,144 L 398,144 L 399,145 L 403,145 L 404,144 L 405,144 L 406,143 L 407,143 L 408,142 L 409,142 L 411,140 L 412,141 L 414,141 L 415,142 L 416,142 L 417,143 L 418,143 L 419,144 L 423,144 L 424,143 L 431,143 L 432,142 L 435,142 L 436,143 L 439,143 L 440,144 L 441,144 L 443,146 L 444,146 L 446,148 L 448,148 L 449,147 L 449,145 L 450,144 L 450,139 L 449,138 L 449,137 L 448,137 L 447,136 L 447,135 L 446,134 L 446,128 L 445,127 L 445,124 L 444,123 L 444,119 L 443,119 L 442,118 L 440,118 L 437,121 L 434,121 L 433,120 L 433,119 L 431,119 L 430,120 L 428,120 L 427,121 L 426,121 L 425,122 L 422,122 L 421,121 L 419,121 L 417,119 L 417,118 L 407,118 L 406,119 L 403,119 L 402,118 L 402,117 Z" fill="none" stroke="black" stroke-width="1"/>
</svg>