<svg xmlns="http://www.w3.org/2000/svg" width="477" height="617">
  <path d="M 216,5 L 216,11 L 215,12 L 214,12 L 214,13 L 213,14 L 212,14 L 212,15 L 211,16 L 210,16 L 210,19 L 208,21 L 208,23 L 207,24 L 205,24 L 204,25 L 203,25 L 203,29 L 204,30 L 204,32 L 206,34 L 206,45 L 209,48 L 210,48 L 211,49 L 211,55 L 210,56 L 210,58 L 209,59 L 209,60 L 212,60 L 212,59 L 213,58 L 214,58 L 219,53 L 222,53 L 224,51 L 227,51 L 229,49 L 229,48 L 232,45 L 231,44 L 231,43 L 232,42 L 233,43 L 234,43 L 234,41 L 233,40 L 233,39 L 232,39 L 232,42 L 231,43 L 229,41 L 229,39 L 228,38 L 228,37 L 227,36 L 227,33 L 226,32 L 226,30 L 225,29 L 225,28 L 224,27 L 224,25 L 223,24 L 223,21 L 222,20 L 222,12 L 221,11 L 221,10 L 220,9 L 220,8 L 217,5 Z" fill="none" stroke="black" stroke-width="1"/>
</svg>