<svg xmlns="http://www.w3.org/2000/svg" width="491" height="213">
  <path d="M 269,42 L 268,43 L 256,43 L 257,44 L 257,46 L 256,47 L 256,48 L 255,49 L 256,50 L 257,50 L 259,52 L 259,55 L 261,57 L 262,57 L 263,58 L 263,63 L 264,64 L 263,65 L 263,66 L 261,68 L 261,69 L 259,71 L 259,77 L 267,77 L 267,75 L 268,74 L 270,74 L 271,73 L 279,73 L 280,72 L 280,71 L 284,67 L 284,64 L 287,61 L 287,59 L 286,58 L 285,58 L 284,57 L 284,56 L 283,55 L 282,55 L 280,53 L 279,53 L 276,50 L 275,50 L 272,47 L 271,47 L 269,45 Z" fill="none" stroke="black" stroke-width="1"/>
</svg>