<svg xmlns="http://www.w3.org/2000/svg" width="284" height="322">
  <path d="M 89,156 L 88,157 L 86,157 L 84,159 L 83,159 L 81,157 L 77,161 L 77,162 L 76,163 L 75,163 L 74,164 L 73,164 L 72,163 L 70,163 L 69,162 L 68,162 L 65,165 L 65,167 L 66,168 L 66,169 L 67,170 L 66,171 L 65,171 L 64,172 L 63,172 L 62,173 L 50,173 L 50,177 L 51,178 L 51,182 L 52,183 L 52,184 L 53,185 L 53,188 L 54,189 L 54,194 L 55,194 L 56,195 L 59,195 L 60,194 L 63,194 L 66,191 L 67,191 L 70,188 L 71,188 L 71,185 L 72,184 L 77,184 L 77,183 L 78,182 L 78,179 L 79,178 L 82,178 L 82,176 L 83,175 L 85,175 L 88,172 L 89,172 L 90,171 L 91,171 L 91,162 L 92,161 L 92,157 L 91,156 Z" fill="none" stroke="black" stroke-width="1"/>
</svg>