<svg xmlns="http://www.w3.org/2000/svg" width="318" height="385">
  <path d="M 153,268 L 153,269 L 151,271 L 150,271 L 149,272 L 148,272 L 147,271 L 144,271 L 143,270 L 142,270 L 141,271 L 141,273 L 140,274 L 139,274 L 139,278 L 144,283 L 144,287 L 142,289 L 141,289 L 140,290 L 140,292 L 141,292 L 142,293 L 141,294 L 140,294 L 142,296 L 143,296 L 144,297 L 144,298 L 145,299 L 147,297 L 148,297 L 151,294 L 153,294 L 155,296 L 160,296 L 162,294 L 165,294 L 166,293 L 167,293 L 167,292 L 170,289 L 173,289 L 174,288 L 172,286 L 172,285 L 173,284 L 171,284 L 170,283 L 169,283 L 168,282 L 166,282 L 165,281 L 164,281 L 163,280 L 162,280 L 161,279 L 159,279 L 158,278 L 157,278 L 155,276 L 155,275 L 157,273 L 156,272 L 156,270 L 157,269 L 158,269 L 156,269 L 155,268 Z" fill="none" stroke="black" stroke-width="1"/>
</svg>