<svg xmlns="http://www.w3.org/2000/svg" width="284" height="322">
  <path d="M 79,113 L 79,114 L 77,116 L 77,117 L 76,118 L 76,121 L 74,123 L 74,124 L 72,126 L 71,126 L 70,127 L 68,127 L 68,128 L 69,129 L 69,130 L 70,131 L 70,132 L 72,132 L 73,133 L 76,133 L 77,134 L 77,136 L 79,136 L 81,138 L 84,138 L 85,139 L 87,137 L 88,137 L 92,141 L 92,146 L 94,146 L 95,145 L 97,145 L 98,144 L 98,142 L 100,140 L 101,140 L 102,139 L 104,139 L 105,138 L 105,134 L 108,131 L 108,130 L 109,129 L 109,125 L 104,125 L 103,124 L 103,123 L 102,124 L 100,124 L 100,125 L 99,126 L 95,126 L 94,125 L 94,124 L 93,124 L 92,123 L 92,121 L 91,121 L 89,119 L 89,117 L 88,117 L 87,116 L 87,115 L 84,115 L 82,113 L 81,114 L 80,113 Z" fill="none" stroke="black" stroke-width="1"/>
</svg>