<svg xmlns="http://www.w3.org/2000/svg" width="284" height="322">
  <path d="M 61,87 L 60,88 L 59,88 L 58,89 L 55,89 L 52,92 L 51,92 L 51,94 L 52,94 L 56,98 L 57,98 L 59,100 L 59,102 L 60,102 L 61,103 L 61,106 L 60,107 L 62,109 L 64,109 L 65,110 L 66,110 L 67,111 L 67,119 L 68,120 L 67,121 L 67,123 L 66,124 L 68,126 L 70,126 L 71,125 L 72,125 L 73,124 L 73,123 L 75,121 L 75,118 L 76,117 L 76,116 L 78,114 L 78,113 L 79,112 L 80,112 L 81,113 L 81,109 L 73,101 L 73,100 L 72,99 L 72,93 L 71,92 L 71,89 L 68,89 L 67,88 L 66,88 L 65,87 Z" fill="none" stroke="black" stroke-width="1"/>
</svg>