<svg xmlns="http://www.w3.org/2000/svg" width="392" height="319">
  <path d="M 225,99 L 225,102 L 222,105 L 223,106 L 223,114 L 224,115 L 224,116 L 225,117 L 225,118 L 226,119 L 226,120 L 227,121 L 227,122 L 230,125 L 230,126 L 231,127 L 233,127 L 234,128 L 235,128 L 236,129 L 236,130 L 238,132 L 239,132 L 240,133 L 244,133 L 245,134 L 245,135 L 248,135 L 249,134 L 252,134 L 253,133 L 253,132 L 254,131 L 254,130 L 255,129 L 255,127 L 252,124 L 252,123 L 251,123 L 247,119 L 247,117 L 248,116 L 248,115 L 249,114 L 250,114 L 251,113 L 251,111 L 252,110 L 252,109 L 253,108 L 253,107 L 252,106 L 252,105 L 251,104 L 245,104 L 244,103 L 244,102 L 241,102 L 240,101 L 240,100 L 230,100 L 229,99 Z" fill="none" stroke="black" stroke-width="1"/>
</svg>