<svg xmlns="http://www.w3.org/2000/svg" width="392" height="319">
  <path d="M 279,161 L 278,162 L 278,163 L 275,166 L 275,167 L 270,172 L 266,172 L 266,176 L 267,177 L 267,178 L 268,178 L 269,179 L 269,184 L 270,184 L 271,185 L 271,192 L 272,192 L 273,193 L 273,195 L 271,197 L 271,199 L 272,199 L 274,201 L 274,206 L 275,207 L 275,208 L 276,209 L 277,209 L 278,210 L 284,210 L 285,209 L 287,209 L 288,208 L 291,208 L 292,207 L 295,207 L 295,202 L 296,201 L 296,195 L 295,194 L 295,193 L 294,192 L 294,191 L 293,190 L 293,187 L 292,186 L 292,185 L 291,184 L 291,183 L 290,182 L 290,181 L 289,180 L 289,179 L 288,178 L 288,177 L 287,176 L 287,174 L 286,173 L 286,172 L 285,171 L 284,171 L 282,169 L 282,168 L 281,167 L 281,163 Z" fill="none" stroke="black" stroke-width="1"/>
</svg>