<svg xmlns="http://www.w3.org/2000/svg" width="392" height="319">
  <path d="M 265,91 L 263,93 L 262,93 L 260,95 L 256,95 L 256,96 L 253,99 L 252,99 L 252,104 L 253,105 L 253,106 L 257,110 L 257,111 L 262,111 L 263,110 L 267,110 L 270,113 L 270,116 L 271,117 L 271,118 L 272,119 L 273,119 L 275,121 L 276,121 L 277,122 L 278,122 L 280,120 L 280,119 L 281,118 L 281,116 L 282,115 L 282,114 L 284,112 L 284,111 L 285,110 L 285,109 L 286,108 L 286,107 L 287,106 L 287,105 L 288,104 L 288,96 L 290,94 L 291,94 L 291,93 L 290,92 L 286,92 L 285,91 L 275,91 L 274,92 L 272,92 L 271,91 Z" fill="none" stroke="black" stroke-width="1"/>
</svg>