<svg xmlns="http://www.w3.org/2000/svg" width="284" height="322">
  <path d="M 53,138 L 52,139 L 49,139 L 46,142 L 45,142 L 44,143 L 44,145 L 43,146 L 43,147 L 42,148 L 42,149 L 41,150 L 41,151 L 40,152 L 40,156 L 43,159 L 43,164 L 44,164 L 45,165 L 46,165 L 47,166 L 47,167 L 48,168 L 48,169 L 49,170 L 49,172 L 62,172 L 63,171 L 64,171 L 65,170 L 66,170 L 65,169 L 65,168 L 64,167 L 64,165 L 67,162 L 67,160 L 68,159 L 68,158 L 70,156 L 70,152 L 68,150 L 68,149 L 67,148 L 67,147 L 66,146 L 66,144 L 65,143 L 65,140 L 63,140 L 62,139 L 56,139 L 55,138 Z" fill="none" stroke="black" stroke-width="1"/>
</svg>