<svg xmlns="http://www.w3.org/2000/svg" width="392" height="319">
  <path d="M 331,245 L 330,246 L 327,246 L 327,252 L 328,253 L 328,256 L 333,261 L 334,261 L 336,263 L 336,264 L 337,264 L 338,265 L 338,266 L 341,269 L 342,269 L 343,270 L 344,270 L 345,269 L 346,269 L 347,270 L 348,270 L 349,271 L 350,271 L 351,270 L 352,270 L 352,264 L 351,263 L 351,261 L 349,259 L 349,258 L 350,257 L 350,256 L 351,255 L 351,254 L 352,253 L 352,245 L 350,245 L 348,247 L 347,247 L 346,248 L 344,248 L 343,247 L 342,247 L 341,246 L 333,246 L 332,245 Z" fill="none" stroke="black" stroke-width="1"/>
</svg>