<svg xmlns="http://www.w3.org/2000/svg" width="465" height="369">
  <path d="M 350,97 L 350,98 L 349,99 L 348,99 L 348,100 L 346,102 L 346,103 L 343,106 L 343,108 L 341,110 L 341,113 L 343,113 L 344,114 L 344,115 L 345,116 L 345,120 L 344,121 L 344,122 L 342,124 L 342,129 L 343,129 L 344,130 L 345,130 L 346,131 L 346,132 L 347,133 L 347,134 L 346,135 L 346,138 L 348,140 L 348,141 L 351,144 L 355,144 L 358,141 L 359,141 L 359,140 L 360,139 L 361,139 L 361,138 L 362,137 L 362,132 L 361,131 L 361,130 L 360,129 L 361,128 L 362,128 L 363,127 L 363,126 L 364,125 L 364,124 L 365,123 L 365,119 L 366,118 L 366,115 L 364,113 L 364,112 L 363,111 L 363,105 L 362,104 L 362,101 L 360,99 L 359,99 L 358,98 L 357,98 L 356,97 Z" fill="none" stroke="black" stroke-width="1"/>
</svg>