<svg xmlns="http://www.w3.org/2000/svg" width="465" height="369">
  <path d="M 335,64 L 333,66 L 333,67 L 332,68 L 332,69 L 331,70 L 331,71 L 330,72 L 325,72 L 326,73 L 326,81 L 325,82 L 325,83 L 324,84 L 326,86 L 326,90 L 327,91 L 327,92 L 330,95 L 330,97 L 331,98 L 331,99 L 332,100 L 332,102 L 333,103 L 334,103 L 335,104 L 336,104 L 337,105 L 340,105 L 341,104 L 342,105 L 343,105 L 345,103 L 345,102 L 347,100 L 347,99 L 348,98 L 349,98 L 349,96 L 348,96 L 347,95 L 346,95 L 342,91 L 342,90 L 341,89 L 341,88 L 340,87 L 341,86 L 341,85 L 343,83 L 343,82 L 344,81 L 344,75 L 342,73 L 342,70 L 341,69 L 341,67 L 340,67 L 337,64 Z" fill="none" stroke="black" stroke-width="1"/>
</svg>