<svg xmlns="http://www.w3.org/2000/svg" width="337" height="324">
  <path d="M 240,38 L 239,39 L 237,39 L 237,42 L 234,45 L 233,45 L 231,47 L 230,47 L 229,48 L 228,48 L 227,49 L 226,49 L 225,50 L 223,50 L 222,51 L 221,51 L 221,52 L 220,53 L 220,58 L 221,59 L 221,61 L 222,62 L 222,63 L 223,64 L 223,65 L 224,66 L 224,67 L 227,70 L 235,70 L 236,69 L 241,69 L 242,68 L 248,68 L 249,69 L 250,69 L 251,70 L 252,70 L 252,69 L 254,67 L 254,66 L 255,65 L 255,64 L 256,63 L 256,57 L 255,56 L 255,53 L 257,51 L 257,49 L 256,49 L 255,48 L 254,48 L 253,47 L 252,47 L 248,43 L 248,42 L 247,41 L 246,41 L 245,40 L 243,40 L 241,38 Z" fill="none" stroke="black" stroke-width="1"/>
</svg>