<svg xmlns="http://www.w3.org/2000/svg" width="318" height="385">
  <path d="M 128,294 L 127,295 L 125,295 L 124,296 L 122,296 L 121,297 L 120,297 L 119,298 L 118,298 L 119,299 L 119,302 L 118,303 L 116,303 L 113,306 L 113,308 L 114,308 L 116,310 L 117,310 L 119,312 L 119,313 L 120,314 L 121,314 L 121,313 L 123,311 L 124,311 L 125,310 L 128,310 L 130,312 L 132,312 L 133,313 L 134,313 L 137,316 L 139,314 L 140,314 L 141,313 L 143,313 L 144,312 L 146,312 L 147,311 L 149,311 L 149,303 L 147,301 L 146,301 L 143,298 L 143,297 L 142,297 L 140,295 L 139,295 L 138,296 L 137,296 L 136,295 L 135,295 L 134,294 Z" fill="none" stroke="black" stroke-width="1"/>
</svg>