<svg xmlns="http://www.w3.org/2000/svg" width="337" height="324">
  <path d="M 256,17 L 255,18 L 255,19 L 253,21 L 252,21 L 251,22 L 250,22 L 249,23 L 248,23 L 247,24 L 247,25 L 245,27 L 245,36 L 244,37 L 244,39 L 245,39 L 246,40 L 247,40 L 249,42 L 249,43 L 252,46 L 253,46 L 254,47 L 255,47 L 256,48 L 257,48 L 258,49 L 258,51 L 256,53 L 256,56 L 257,57 L 257,58 L 258,58 L 259,57 L 263,57 L 264,56 L 265,56 L 267,54 L 268,54 L 270,56 L 271,56 L 272,57 L 275,57 L 276,56 L 276,53 L 278,51 L 280,51 L 282,49 L 282,47 L 283,46 L 283,44 L 284,43 L 280,39 L 280,36 L 276,32 L 274,32 L 273,31 L 273,29 L 272,28 L 272,20 L 267,20 L 264,23 L 261,23 L 259,21 L 259,20 L 258,19 L 258,18 L 257,17 Z" fill="none" stroke="black" stroke-width="1"/>
</svg>