<svg xmlns="http://www.w3.org/2000/svg" width="337" height="324">
  <path d="M 267,55 L 265,57 L 264,57 L 263,58 L 259,58 L 258,59 L 257,59 L 257,63 L 256,64 L 256,65 L 255,66 L 255,67 L 253,69 L 253,70 L 252,71 L 250,71 L 249,72 L 249,77 L 248,78 L 248,80 L 247,81 L 247,86 L 248,87 L 248,88 L 249,89 L 249,95 L 254,100 L 260,100 L 261,99 L 266,99 L 269,96 L 273,96 L 276,93 L 277,93 L 277,88 L 276,87 L 276,85 L 275,84 L 275,83 L 274,83 L 272,81 L 272,80 L 270,78 L 270,77 L 269,76 L 269,74 L 270,73 L 270,72 L 271,71 L 271,70 L 272,69 L 272,68 L 274,66 L 274,60 L 275,59 L 275,58 L 272,58 L 271,57 L 270,57 L 268,55 Z" fill="none" stroke="black" stroke-width="1"/>
</svg>