<svg xmlns="http://www.w3.org/2000/svg" width="171" height="149">
  <path d="M 36,126 L 35,127 L 35,131 L 34,132 L 34,134 L 33,135 L 32,135 L 32,136 L 31,137 L 31,138 L 35,138 L 38,141 L 38,142 L 39,142 L 40,143 L 40,144 L 41,144 L 42,145 L 42,146 L 43,146 L 45,148 L 49,148 L 50,147 L 51,147 L 52,146 L 55,146 L 56,145 L 58,145 L 59,144 L 59,143 L 58,143 L 57,142 L 55,142 L 54,141 L 54,139 L 52,137 L 52,136 L 49,136 L 48,135 L 47,135 L 44,132 L 44,131 L 43,130 L 41,130 L 39,128 L 39,127 L 38,126 Z" fill="none" stroke="black" stroke-width="1"/>
</svg>