<svg xmlns="http://www.w3.org/2000/svg" width="185" height="128">
  <path d="M 86,74 L 86,75 L 85,76 L 76,76 L 74,78 L 66,78 L 66,79 L 65,80 L 65,81 L 64,82 L 64,85 L 66,85 L 68,83 L 69,83 L 70,82 L 74,82 L 76,84 L 76,87 L 77,86 L 78,86 L 79,87 L 79,84 L 80,83 L 81,84 L 82,84 L 83,85 L 89,85 L 90,84 L 91,84 L 92,85 L 100,85 L 103,88 L 104,88 L 105,89 L 106,89 L 107,88 L 109,88 L 111,90 L 112,90 L 112,89 L 113,88 L 113,85 L 111,83 L 109,83 L 108,82 L 106,82 L 104,80 L 103,80 L 101,78 L 97,78 L 95,76 L 95,74 Z" fill="none" stroke="black" stroke-width="1"/>
</svg>