<svg xmlns="http://www.w3.org/2000/svg" width="299" height="181">
  <path d="M 199,36 L 198,37 L 194,37 L 194,38 L 193,39 L 190,39 L 189,38 L 188,38 L 187,37 L 181,37 L 181,38 L 182,39 L 182,43 L 180,45 L 179,45 L 178,46 L 179,47 L 179,50 L 178,51 L 178,55 L 179,55 L 181,57 L 181,60 L 182,61 L 183,61 L 185,63 L 185,64 L 188,64 L 189,65 L 188,66 L 188,67 L 187,68 L 186,68 L 186,73 L 187,74 L 189,74 L 190,73 L 193,73 L 194,72 L 195,72 L 197,70 L 198,70 L 200,68 L 201,68 L 201,67 L 202,66 L 202,65 L 203,64 L 203,63 L 204,62 L 206,62 L 206,60 L 207,59 L 207,49 L 208,48 L 208,46 L 206,44 L 207,43 L 207,41 L 206,40 L 206,39 L 205,38 L 204,38 L 202,36 Z" fill="none" stroke="black" stroke-width="1"/>
</svg>