<svg xmlns="http://www.w3.org/2000/svg" width="185" height="128">
  <path d="M 158,73 L 155,76 L 154,76 L 153,77 L 151,77 L 151,78 L 152,79 L 151,80 L 150,80 L 149,81 L 146,81 L 145,82 L 145,84 L 147,84 L 149,86 L 150,86 L 151,87 L 151,88 L 152,89 L 153,89 L 155,91 L 155,92 L 156,92 L 157,93 L 158,93 L 159,94 L 159,95 L 160,95 L 161,96 L 161,98 L 166,98 L 167,99 L 167,100 L 174,100 L 176,102 L 177,102 L 177,101 L 176,100 L 176,96 L 177,95 L 178,95 L 179,96 L 181,96 L 182,95 L 183,95 L 184,94 L 184,90 L 183,89 L 183,87 L 182,88 L 181,88 L 180,89 L 176,89 L 175,88 L 175,83 L 172,83 L 171,82 L 170,82 L 169,81 L 167,81 L 162,76 L 161,76 Z" fill="none" stroke="black" stroke-width="1"/>
</svg>