<svg xmlns="http://www.w3.org/2000/svg" width="299" height="181">
  <path d="M 72,106 L 71,107 L 70,107 L 69,108 L 68,108 L 67,107 L 66,107 L 65,108 L 62,108 L 61,109 L 59,109 L 59,110 L 58,111 L 58,112 L 59,113 L 59,117 L 58,118 L 57,118 L 57,120 L 55,122 L 54,122 L 54,123 L 53,124 L 52,124 L 52,125 L 55,128 L 56,128 L 57,129 L 58,129 L 59,128 L 65,128 L 64,128 L 63,127 L 64,126 L 66,126 L 67,125 L 73,125 L 74,126 L 76,126 L 77,125 L 81,125 L 82,124 L 84,124 L 84,122 L 85,121 L 85,118 L 86,117 L 87,117 L 88,116 L 88,115 L 89,114 L 89,113 L 85,113 L 84,112 L 81,112 L 79,110 L 79,106 Z" fill="none" stroke="black" stroke-width="1"/>
</svg>