<svg xmlns="http://www.w3.org/2000/svg" width="194" height="141">
  <path d="M 129,123 L 128,124 L 126,124 L 125,125 L 125,126 L 123,128 L 122,128 L 123,129 L 122,130 L 122,131 L 120,133 L 120,134 L 122,136 L 122,137 L 125,137 L 127,139 L 128,139 L 129,140 L 130,140 L 130,139 L 131,138 L 132,138 L 133,139 L 135,139 L 135,138 L 136,137 L 136,135 L 137,134 L 137,130 L 136,130 L 135,129 L 135,128 L 134,128 L 132,126 L 132,125 L 131,124 L 131,123 Z" fill="none" stroke="black" stroke-width="1"/>
</svg>