<svg xmlns="http://www.w3.org/2000/svg" width="299" height="181">
  <path d="M 229,78 L 227,80 L 227,81 L 226,82 L 224,82 L 223,83 L 217,83 L 216,84 L 215,84 L 214,83 L 214,81 L 213,81 L 212,80 L 209,83 L 209,85 L 210,86 L 210,87 L 211,87 L 212,88 L 213,88 L 215,90 L 215,93 L 216,93 L 217,94 L 218,94 L 220,96 L 220,97 L 219,98 L 219,101 L 220,101 L 221,102 L 226,102 L 227,103 L 227,108 L 228,109 L 228,112 L 230,114 L 230,118 L 231,119 L 231,121 L 232,120 L 233,121 L 234,120 L 236,120 L 237,119 L 243,119 L 244,120 L 246,120 L 247,121 L 248,121 L 249,122 L 249,123 L 252,123 L 252,120 L 251,119 L 251,116 L 250,115 L 250,112 L 249,111 L 249,110 L 248,109 L 248,107 L 247,107 L 246,106 L 246,105 L 245,104 L 245,103 L 244,102 L 244,101 L 243,100 L 243,98 L 241,96 L 240,96 L 238,94 L 238,93 L 237,93 L 236,92 L 235,92 L 234,91 L 235,90 L 235,88 L 236,87 L 236,85 L 235,84 L 235,82 L 234,81 L 234,78 Z" fill="none" stroke="black" stroke-width="1"/>
</svg>