<svg xmlns="http://www.w3.org/2000/svg" width="299" height="181">
  <path d="M 275,86 L 271,90 L 271,91 L 266,96 L 265,96 L 265,97 L 264,98 L 261,98 L 258,101 L 257,101 L 255,99 L 253,99 L 251,97 L 250,98 L 249,98 L 248,99 L 247,99 L 246,100 L 244,100 L 245,101 L 245,102 L 246,103 L 246,104 L 247,105 L 247,106 L 248,106 L 249,107 L 249,109 L 250,110 L 250,111 L 251,112 L 251,115 L 252,116 L 252,119 L 253,120 L 253,124 L 254,125 L 254,126 L 256,126 L 257,127 L 257,129 L 259,131 L 260,131 L 261,130 L 262,130 L 263,129 L 266,129 L 268,127 L 269,127 L 269,126 L 270,125 L 270,124 L 271,123 L 277,123 L 279,121 L 280,121 L 281,122 L 281,120 L 284,117 L 285,117 L 286,116 L 288,116 L 290,114 L 290,111 L 291,110 L 291,109 L 292,108 L 292,107 L 293,106 L 293,105 L 294,104 L 294,102 L 295,101 L 298,101 L 293,96 L 293,94 L 292,93 L 288,93 L 287,92 L 287,88 L 285,90 L 284,89 L 282,89 L 281,88 L 281,87 L 280,86 L 279,86 L 277,88 L 276,88 L 275,87 Z" fill="none" stroke="black" stroke-width="1"/>
</svg>