<svg xmlns="http://www.w3.org/2000/svg" width="184" height="204">
  <path d="M 140,121 L 140,125 L 141,126 L 141,130 L 143,132 L 143,133 L 144,134 L 144,135 L 145,136 L 145,138 L 146,139 L 146,140 L 149,140 L 150,139 L 151,139 L 152,138 L 154,138 L 155,139 L 157,139 L 158,140 L 161,140 L 161,137 L 162,136 L 161,135 L 160,135 L 158,133 L 157,133 L 156,132 L 153,132 L 152,131 L 152,127 L 153,126 L 153,124 L 155,122 L 155,121 L 154,121 L 153,122 L 152,122 L 150,124 L 146,124 L 144,122 L 142,122 L 141,121 Z" fill="none" stroke="black" stroke-width="1"/>
</svg>