<svg xmlns="http://www.w3.org/2000/svg" width="184" height="204">
  <path d="M 42,119 L 42,120 L 41,121 L 41,123 L 40,124 L 40,125 L 37,128 L 36,128 L 35,129 L 34,129 L 34,130 L 33,131 L 32,131 L 31,132 L 28,132 L 26,134 L 26,136 L 27,137 L 27,138 L 26,139 L 27,140 L 26,141 L 26,143 L 27,142 L 28,142 L 30,144 L 32,144 L 33,145 L 35,143 L 35,139 L 36,138 L 37,139 L 41,139 L 43,141 L 44,140 L 44,136 L 45,135 L 45,127 L 46,126 L 45,125 L 46,124 L 45,123 L 45,122 L 44,121 L 44,120 L 43,119 Z" fill="none" stroke="black" stroke-width="1"/>
</svg>