<svg xmlns="http://www.w3.org/2000/svg" width="216" height="145">
  <path d="M 159,21 L 159,23 L 160,24 L 160,26 L 161,27 L 161,28 L 160,29 L 160,30 L 159,31 L 159,32 L 158,33 L 158,34 L 157,35 L 159,35 L 163,39 L 166,39 L 167,38 L 170,38 L 172,36 L 173,37 L 175,37 L 175,35 L 176,34 L 176,33 L 175,32 L 176,31 L 176,30 L 177,29 L 176,29 L 175,28 L 174,28 L 173,27 L 173,26 L 172,26 L 171,25 L 170,25 L 169,24 L 168,24 L 167,23 L 165,23 L 163,21 Z" fill="none" stroke="black" stroke-width="1"/>
</svg>