<svg xmlns="http://www.w3.org/2000/svg" width="216" height="145">
  <path d="M 157,36 L 156,37 L 156,42 L 153,45 L 151,45 L 150,46 L 150,47 L 148,49 L 148,50 L 150,52 L 150,54 L 152,54 L 153,55 L 154,55 L 155,56 L 155,57 L 156,57 L 157,58 L 158,58 L 159,59 L 161,57 L 160,57 L 159,56 L 159,54 L 163,50 L 164,50 L 165,49 L 167,49 L 167,48 L 166,47 L 166,46 L 165,46 L 164,45 L 165,44 L 164,44 L 163,43 L 165,41 L 166,41 L 166,40 L 163,40 L 159,36 Z" fill="none" stroke="black" stroke-width="1"/>
</svg>