<svg xmlns="http://www.w3.org/2000/svg" width="318" height="385">
  <path d="M 165,305 L 164,306 L 160,306 L 159,307 L 155,307 L 154,308 L 153,308 L 151,306 L 150,306 L 150,311 L 149,312 L 147,312 L 146,313 L 144,313 L 143,314 L 141,314 L 140,315 L 139,315 L 138,316 L 138,317 L 139,317 L 142,320 L 142,321 L 143,322 L 144,322 L 148,326 L 148,327 L 150,329 L 150,335 L 151,336 L 151,337 L 152,337 L 153,338 L 153,340 L 156,343 L 156,344 L 157,343 L 157,338 L 158,337 L 160,337 L 162,335 L 163,335 L 164,336 L 165,336 L 166,337 L 170,337 L 171,336 L 171,333 L 172,332 L 172,328 L 176,324 L 176,322 L 177,321 L 177,318 L 175,316 L 175,314 L 176,313 L 176,311 L 172,307 L 167,307 Z" fill="none" stroke="black" stroke-width="1"/>
</svg>