<svg xmlns="http://www.w3.org/2000/svg" width="194" height="141">
  <path d="M 114,29 L 114,30 L 113,31 L 113,32 L 112,33 L 111,33 L 111,36 L 110,37 L 110,39 L 111,39 L 112,40 L 113,39 L 114,40 L 115,39 L 116,39 L 117,40 L 118,40 L 119,41 L 119,42 L 121,40 L 121,39 L 122,38 L 122,37 L 121,36 L 122,35 L 126,35 L 126,30 L 123,30 L 123,31 L 124,31 L 125,32 L 125,33 L 124,34 L 121,34 L 120,33 L 120,32 L 121,31 L 121,30 L 120,30 L 119,29 L 118,30 L 117,30 L 116,31 Z" fill="none" stroke="black" stroke-width="1"/>
</svg>