<svg xmlns="http://www.w3.org/2000/svg" width="194" height="141">
  <path d="M 177,16 L 176,17 L 175,17 L 174,18 L 172,18 L 171,19 L 170,19 L 169,20 L 165,20 L 163,22 L 162,22 L 161,23 L 161,24 L 160,25 L 160,26 L 159,27 L 158,27 L 158,30 L 159,31 L 159,34 L 161,34 L 162,35 L 164,35 L 166,37 L 166,38 L 167,39 L 169,39 L 172,42 L 173,42 L 174,43 L 177,43 L 178,44 L 178,43 L 179,42 L 179,41 L 178,40 L 178,36 L 179,35 L 179,33 L 181,31 L 181,30 L 182,29 L 182,24 L 181,23 L 182,22 L 182,19 L 181,18 L 181,16 Z" fill="none" stroke="black" stroke-width="1"/>
</svg>