<svg xmlns="http://www.w3.org/2000/svg" width="171" height="149">
  <path d="M 5,120 L 5,123 L 4,124 L 4,125 L 2,127 L 2,129 L 1,130 L 1,134 L 2,135 L 2,136 L 1,137 L 1,138 L 0,139 L 1,140 L 1,142 L 3,142 L 4,141 L 8,141 L 9,142 L 10,142 L 11,143 L 13,143 L 13,142 L 14,141 L 15,141 L 16,140 L 17,140 L 18,139 L 19,139 L 19,137 L 20,136 L 20,135 L 21,134 L 22,134 L 22,132 L 21,131 L 21,129 L 17,129 L 15,127 L 13,127 L 12,126 L 12,125 L 11,124 L 11,121 L 8,121 L 7,120 Z" fill="none" stroke="black" stroke-width="1"/>
</svg>