<svg xmlns="http://www.w3.org/2000/svg" width="225" height="121">
  <path d="M 172,75 L 172,76 L 171,77 L 170,77 L 169,76 L 169,77 L 168,78 L 168,81 L 167,82 L 166,82 L 164,84 L 160,84 L 160,85 L 159,86 L 159,90 L 158,91 L 158,92 L 157,93 L 157,97 L 158,98 L 160,98 L 161,99 L 161,100 L 163,100 L 164,101 L 164,104 L 165,105 L 166,105 L 167,104 L 169,104 L 171,106 L 171,107 L 172,107 L 173,108 L 173,110 L 177,110 L 178,111 L 179,111 L 181,109 L 187,109 L 190,106 L 190,101 L 189,100 L 189,99 L 188,98 L 188,96 L 189,95 L 189,94 L 190,93 L 189,92 L 189,88 L 190,87 L 190,84 L 189,84 L 188,83 L 188,82 L 186,82 L 185,83 L 184,83 L 182,81 L 181,81 L 179,79 L 179,78 L 178,78 L 177,77 L 175,77 L 174,76 L 174,75 Z" fill="none" stroke="black" stroke-width="1"/>
</svg>