<svg xmlns="http://www.w3.org/2000/svg" width="241" height="225">
  <path d="M 110,61 L 108,63 L 108,66 L 109,67 L 109,71 L 108,72 L 108,73 L 107,74 L 106,74 L 105,75 L 105,76 L 107,78 L 108,78 L 109,79 L 110,79 L 112,81 L 112,82 L 113,83 L 113,84 L 114,84 L 115,85 L 115,88 L 117,88 L 118,87 L 122,87 L 124,85 L 125,85 L 126,84 L 127,84 L 128,83 L 128,80 L 127,79 L 127,78 L 130,75 L 130,70 L 126,66 L 126,65 L 124,65 L 123,64 L 122,64 L 121,63 L 120,63 L 119,62 L 118,62 L 117,63 L 116,63 L 115,62 L 112,62 L 111,61 Z" fill="none" stroke="black" stroke-width="1"/>
</svg>