<svg xmlns="http://www.w3.org/2000/svg" width="1028" height="413">
  <path d="M 627,264 L 626,265 L 626,266 L 625,267 L 624,267 L 622,269 L 621,269 L 621,271 L 620,272 L 620,273 L 618,275 L 617,275 L 615,277 L 613,275 L 612,276 L 611,276 L 609,278 L 608,278 L 607,277 L 606,277 L 602,281 L 600,281 L 600,283 L 601,283 L 603,285 L 604,285 L 607,288 L 607,291 L 612,291 L 613,292 L 613,293 L 614,293 L 615,294 L 615,295 L 616,295 L 617,296 L 617,297 L 618,298 L 618,302 L 619,303 L 620,302 L 621,302 L 623,304 L 625,304 L 626,303 L 627,303 L 628,302 L 635,302 L 636,303 L 639,303 L 641,301 L 641,300 L 638,300 L 637,299 L 638,298 L 639,298 L 639,297 L 640,296 L 641,296 L 641,294 L 642,293 L 642,292 L 643,291 L 643,287 L 642,286 L 641,286 L 640,285 L 640,283 L 638,281 L 638,279 L 637,279 L 635,277 L 634,277 L 632,275 L 633,274 L 633,273 L 634,272 L 636,272 L 636,271 L 637,270 L 637,269 L 636,269 L 635,268 L 635,267 L 632,264 Z" fill="none" stroke="black" stroke-width="1"/>
</svg>