<svg xmlns="http://www.w3.org/2000/svg" width="1028" height="413">
  <path d="M 800,190 L 799,191 L 797,191 L 795,193 L 794,193 L 793,194 L 793,195 L 792,196 L 792,198 L 793,199 L 793,200 L 792,201 L 791,201 L 791,202 L 790,203 L 790,204 L 791,204 L 792,205 L 792,206 L 793,207 L 793,209 L 794,210 L 794,213 L 795,214 L 795,215 L 796,215 L 800,219 L 800,220 L 803,223 L 803,224 L 804,225 L 804,228 L 802,230 L 801,230 L 800,231 L 800,232 L 799,233 L 794,233 L 793,234 L 793,236 L 791,238 L 791,239 L 790,240 L 788,238 L 787,238 L 786,239 L 786,241 L 787,242 L 787,244 L 788,245 L 788,248 L 787,249 L 787,251 L 788,252 L 789,252 L 790,253 L 790,255 L 791,255 L 792,256 L 793,256 L 795,258 L 798,258 L 798,257 L 799,256 L 799,255 L 800,254 L 801,254 L 801,253 L 799,251 L 800,250 L 800,248 L 799,249 L 798,249 L 797,248 L 796,248 L 795,247 L 795,246 L 794,247 L 794,249 L 793,250 L 792,250 L 790,248 L 789,248 L 788,247 L 788,245 L 789,244 L 789,243 L 790,242 L 791,242 L 793,244 L 793,242 L 795,240 L 796,240 L 797,239 L 798,239 L 799,240 L 800,240 L 801,239 L 804,242 L 805,242 L 806,243 L 806,244 L 804,246 L 804,249 L 803,250 L 804,250 L 805,251 L 806,251 L 807,252 L 806,253 L 804,253 L 805,254 L 805,256 L 808,256 L 809,255 L 814,255 L 815,256 L 816,256 L 816,255 L 815,255 L 814,254 L 813,254 L 812,253 L 812,251 L 813,250 L 814,251 L 816,251 L 817,252 L 817,253 L 817,252 L 818,251 L 819,251 L 820,250 L 822,250 L 824,252 L 825,252 L 826,251 L 828,251 L 828,245 L 830,243 L 832,243 L 833,244 L 834,244 L 834,243 L 831,240 L 831,239 L 832,238 L 828,238 L 827,237 L 827,236 L 828,235 L 830,235 L 831,234 L 832,234 L 832,232 L 831,231 L 831,229 L 832,228 L 833,228 L 836,231 L 836,233 L 835,234 L 836,235 L 840,235 L 841,236 L 842,236 L 843,235 L 843,234 L 842,233 L 842,231 L 843,230 L 842,229 L 840,229 L 837,226 L 837,225 L 836,224 L 835,224 L 832,221 L 832,217 L 833,216 L 833,215 L 829,211 L 829,210 L 828,209 L 828,204 L 827,203 L 827,202 L 826,202 L 825,201 L 825,196 L 823,196 L 822,195 L 819,195 L 818,194 L 817,194 L 815,192 L 812,195 L 811,195 L 810,196 L 808,194 L 807,194 L 806,193 L 806,192 L 804,190 Z" fill="none" stroke="black" stroke-width="1"/>
</svg>