<svg xmlns="http://www.w3.org/2000/svg" width="318" height="385">
  <path d="M 183,291 L 182,292 L 184,294 L 184,295 L 182,297 L 182,299 L 177,304 L 178,305 L 178,306 L 179,307 L 179,308 L 178,309 L 175,309 L 177,311 L 177,313 L 176,314 L 176,316 L 178,318 L 178,321 L 182,321 L 183,322 L 185,322 L 186,321 L 188,321 L 189,320 L 190,320 L 191,321 L 192,321 L 193,322 L 193,323 L 194,324 L 195,324 L 196,325 L 197,324 L 199,324 L 200,325 L 201,325 L 201,321 L 205,317 L 205,315 L 206,314 L 206,313 L 207,312 L 207,308 L 204,308 L 203,307 L 202,307 L 201,306 L 200,306 L 199,305 L 198,305 L 197,304 L 195,304 L 192,301 L 192,300 L 189,297 L 189,296 L 188,295 L 188,293 L 187,292 L 186,292 L 185,291 Z" fill="none" stroke="black" stroke-width="1"/>
</svg>