<svg xmlns="http://www.w3.org/2000/svg" width="241" height="225">
  <path d="M 118,88 L 117,89 L 115,89 L 112,92 L 111,92 L 109,94 L 107,94 L 107,95 L 111,99 L 112,99 L 113,100 L 114,100 L 115,101 L 115,102 L 113,104 L 113,105 L 112,106 L 112,108 L 113,109 L 113,110 L 114,109 L 116,109 L 118,107 L 119,107 L 120,106 L 122,106 L 123,105 L 126,105 L 126,104 L 128,102 L 130,102 L 130,101 L 132,99 L 134,99 L 135,98 L 135,96 L 133,94 L 132,94 L 131,93 L 128,93 L 127,92 L 126,92 L 124,90 L 124,89 L 123,89 L 122,88 Z" fill="none" stroke="black" stroke-width="1"/>
</svg>