<svg xmlns="http://www.w3.org/2000/svg" width="241" height="225">
  <path d="M 64,47 L 63,48 L 62,48 L 60,50 L 59,49 L 59,50 L 58,51 L 57,51 L 56,52 L 59,52 L 60,53 L 60,54 L 59,55 L 59,57 L 60,58 L 60,60 L 62,62 L 62,63 L 61,64 L 62,65 L 62,66 L 67,66 L 68,65 L 72,65 L 74,67 L 75,66 L 77,66 L 78,67 L 81,67 L 82,68 L 83,67 L 84,67 L 84,66 L 83,65 L 83,62 L 80,62 L 79,61 L 76,61 L 74,59 L 74,58 L 71,55 L 71,54 L 69,52 L 68,52 L 67,51 L 67,49 L 65,47 Z" fill="none" stroke="black" stroke-width="1"/>
</svg>