<svg xmlns="http://www.w3.org/2000/svg" width="333" height="139">
  <path d="M 25,58 L 25,60 L 27,62 L 27,60 Z" fill="none" stroke="black" stroke-width="1"/>
  <path d="M 4,57 L 1,60 L 0,60 L 4,60 L 6,62 L 7,62 L 10,65 L 11,65 L 12,66 L 12,67 L 13,68 L 15,68 L 16,69 L 17,68 L 19,70 L 19,71 L 23,75 L 23,76 L 24,76 L 25,77 L 26,76 L 26,74 L 25,74 L 24,73 L 22,73 L 20,71 L 20,69 L 19,68 L 19,64 L 15,64 L 14,63 L 12,63 L 11,62 L 10,62 L 8,60 L 8,59 L 7,58 L 7,57 Z" fill="none" stroke="black" stroke-width="1"/>
  <path d="M 12,54 L 12,55 L 13,56 L 13,55 Z" fill="none" stroke="black" stroke-width="1"/>
</svg>