<svg xmlns="http://www.w3.org/2000/svg" width="318" height="385">
  <path d="M 203,320 L 202,321 L 202,325 L 201,326 L 200,326 L 197,329 L 196,329 L 196,331 L 194,333 L 194,334 L 193,335 L 193,336 L 190,339 L 190,344 L 189,345 L 189,346 L 186,349 L 185,349 L 185,351 L 186,352 L 185,353 L 186,354 L 186,355 L 187,356 L 187,357 L 188,358 L 188,360 L 189,360 L 191,358 L 192,358 L 194,360 L 194,361 L 196,361 L 197,362 L 199,360 L 200,361 L 200,365 L 204,365 L 206,367 L 206,369 L 208,371 L 210,371 L 211,372 L 213,372 L 214,371 L 216,371 L 217,370 L 218,370 L 219,371 L 222,371 L 224,369 L 225,369 L 225,368 L 222,365 L 222,361 L 223,360 L 223,358 L 222,357 L 222,356 L 220,354 L 221,353 L 222,353 L 222,352 L 225,349 L 225,346 L 226,345 L 226,344 L 228,342 L 232,342 L 232,337 L 233,336 L 233,334 L 234,333 L 234,332 L 235,331 L 235,329 L 236,328 L 226,328 L 225,327 L 225,326 L 224,325 L 224,323 L 223,323 L 222,322 L 213,322 L 212,323 L 208,323 L 205,320 Z" fill="none" stroke="black" stroke-width="1"/>
</svg>