<svg xmlns="http://www.w3.org/2000/svg" width="404" height="430">
  <path d="M 60,367 L 59,368 L 58,368 L 57,369 L 54,369 L 53,370 L 52,370 L 51,371 L 50,371 L 48,373 L 47,373 L 43,377 L 42,377 L 41,378 L 41,379 L 40,380 L 40,383 L 39,384 L 39,392 L 38,393 L 38,394 L 36,396 L 36,398 L 35,399 L 35,401 L 38,404 L 39,404 L 40,405 L 40,408 L 41,409 L 41,411 L 42,411 L 43,412 L 45,412 L 46,413 L 46,415 L 48,415 L 49,416 L 52,416 L 53,415 L 54,415 L 54,414 L 55,413 L 56,413 L 58,411 L 58,409 L 60,407 L 61,407 L 61,406 L 64,403 L 63,402 L 63,395 L 62,394 L 62,392 L 63,391 L 63,390 L 68,385 L 71,385 L 72,384 L 74,384 L 75,383 L 79,383 L 78,382 L 81,379 L 82,379 L 83,378 L 83,377 L 82,377 L 80,375 L 79,375 L 77,373 L 73,373 L 72,372 L 71,372 L 70,371 L 69,371 L 68,370 L 63,370 L 61,368 L 61,367 Z" fill="none" stroke="black" stroke-width="1"/>
</svg>