<svg xmlns="http://www.w3.org/2000/svg" width="318" height="385">
  <path d="M 250,310 L 249,311 L 248,311 L 247,312 L 246,312 L 245,313 L 244,312 L 243,312 L 243,314 L 242,315 L 242,317 L 239,320 L 237,320 L 236,321 L 235,321 L 235,322 L 237,324 L 237,328 L 236,329 L 236,331 L 235,332 L 235,333 L 234,334 L 234,336 L 233,337 L 233,343 L 234,344 L 235,344 L 237,342 L 239,342 L 240,341 L 241,341 L 242,340 L 242,339 L 243,338 L 245,338 L 246,337 L 251,337 L 255,341 L 255,343 L 259,343 L 260,344 L 261,344 L 264,347 L 265,347 L 267,349 L 268,349 L 269,350 L 270,350 L 271,351 L 273,351 L 274,352 L 275,352 L 276,351 L 277,351 L 278,350 L 281,350 L 282,349 L 283,349 L 284,348 L 285,348 L 286,349 L 286,350 L 287,351 L 288,351 L 288,347 L 287,346 L 287,342 L 288,341 L 288,340 L 289,339 L 289,338 L 290,337 L 290,336 L 291,335 L 291,334 L 292,333 L 292,331 L 293,330 L 293,329 L 294,328 L 294,326 L 291,323 L 291,321 L 290,320 L 290,319 L 291,318 L 290,317 L 285,317 L 285,318 L 283,320 L 283,321 L 281,323 L 278,323 L 277,322 L 275,322 L 274,321 L 274,319 L 272,319 L 271,320 L 270,320 L 269,319 L 268,319 L 267,318 L 262,318 L 261,317 L 262,316 L 261,316 L 260,315 L 259,315 L 258,314 L 255,314 L 254,313 L 253,313 L 252,312 L 252,311 L 251,310 Z" fill="none" stroke="black" stroke-width="1"/>
</svg>