<svg xmlns="http://www.w3.org/2000/svg" width="404" height="430">
  <path d="M 228,239 L 227,240 L 227,242 L 228,243 L 228,244 L 229,245 L 229,246 L 225,250 L 224,249 L 216,249 L 216,251 L 214,253 L 211,253 L 211,254 L 212,255 L 213,255 L 216,258 L 216,263 L 215,264 L 209,264 L 207,266 L 207,267 L 203,271 L 197,271 L 196,270 L 196,271 L 194,273 L 193,273 L 193,276 L 192,277 L 190,277 L 189,276 L 188,276 L 188,279 L 187,280 L 187,282 L 188,282 L 189,283 L 189,284 L 191,286 L 192,286 L 194,288 L 194,290 L 193,291 L 193,292 L 196,295 L 196,296 L 198,298 L 200,298 L 201,299 L 207,299 L 208,300 L 216,300 L 217,299 L 222,299 L 223,298 L 225,298 L 226,297 L 227,297 L 228,296 L 229,296 L 230,295 L 230,294 L 233,291 L 234,291 L 235,290 L 236,290 L 237,289 L 238,289 L 239,288 L 240,288 L 241,287 L 242,287 L 242,284 L 243,283 L 243,277 L 244,276 L 244,275 L 246,273 L 246,272 L 247,271 L 248,271 L 249,270 L 249,269 L 250,268 L 250,260 L 251,259 L 251,258 L 252,257 L 252,256 L 253,255 L 253,250 L 248,250 L 247,249 L 245,249 L 243,247 L 242,247 L 240,245 L 239,245 L 236,242 L 235,242 L 234,241 L 232,241 L 231,240 L 230,240 L 229,239 Z" fill="none" stroke="black" stroke-width="1"/>
</svg>