<svg xmlns="http://www.w3.org/2000/svg" width="404" height="430">
  <path d="M 20,262 L 20,264 L 19,265 L 19,267 L 17,269 L 16,269 L 18,271 L 19,271 L 20,272 L 20,273 L 21,273 L 22,274 L 22,280 L 23,280 L 24,281 L 24,282 L 25,283 L 26,283 L 27,284 L 27,285 L 28,285 L 29,286 L 29,287 L 30,287 L 31,288 L 31,289 L 32,289 L 34,291 L 35,291 L 36,292 L 36,293 L 38,295 L 38,296 L 39,296 L 40,297 L 42,297 L 44,299 L 44,304 L 45,304 L 46,305 L 46,307 L 48,307 L 49,308 L 51,308 L 52,309 L 56,309 L 56,308 L 58,306 L 59,306 L 60,305 L 61,305 L 63,303 L 63,302 L 64,301 L 64,300 L 65,299 L 65,297 L 66,296 L 66,293 L 67,292 L 67,290 L 66,289 L 66,288 L 67,287 L 67,285 L 66,285 L 64,283 L 63,283 L 62,282 L 62,281 L 61,280 L 60,280 L 58,278 L 58,277 L 57,276 L 57,274 L 56,273 L 56,272 L 55,272 L 54,271 L 52,271 L 52,272 L 48,276 L 43,276 L 42,275 L 41,275 L 40,274 L 40,273 L 38,271 L 37,271 L 36,270 L 36,269 L 35,268 L 35,267 L 30,267 L 29,266 L 29,264 L 26,264 L 25,263 L 23,263 L 22,262 Z" fill="none" stroke="black" stroke-width="1"/>
</svg>