<svg xmlns="http://www.w3.org/2000/svg" width="318" height="385">
  <path d="M 203,271 L 203,273 L 201,275 L 201,276 L 199,278 L 198,278 L 198,279 L 196,281 L 189,281 L 185,285 L 184,285 L 183,286 L 180,286 L 180,289 L 181,290 L 181,291 L 182,291 L 183,290 L 185,290 L 186,291 L 187,291 L 189,293 L 189,295 L 190,296 L 190,297 L 193,300 L 193,301 L 195,303 L 197,303 L 198,304 L 199,304 L 200,305 L 201,305 L 202,306 L 203,306 L 204,307 L 206,307 L 206,303 L 207,302 L 208,302 L 208,298 L 209,297 L 212,297 L 212,296 L 213,295 L 214,295 L 214,294 L 216,292 L 218,292 L 218,288 L 217,287 L 217,286 L 216,285 L 216,284 L 214,282 L 214,281 L 211,281 L 210,280 L 209,280 L 208,279 L 208,277 L 206,275 L 205,275 L 204,274 L 204,272 Z" fill="none" stroke="black" stroke-width="1"/>
</svg>