<svg xmlns="http://www.w3.org/2000/svg" width="318" height="385">
  <path d="M 182,229 L 181,230 L 180,230 L 178,232 L 178,233 L 176,235 L 176,238 L 174,240 L 173,240 L 173,241 L 174,242 L 174,243 L 175,244 L 181,244 L 183,246 L 184,246 L 187,249 L 187,250 L 188,250 L 189,249 L 193,249 L 196,246 L 197,246 L 199,244 L 199,243 L 200,242 L 200,238 L 198,238 L 197,237 L 197,235 L 196,234 L 195,234 L 194,233 L 189,233 L 188,232 L 188,231 L 187,231 L 185,229 Z" fill="none" stroke="black" stroke-width="1"/>
</svg>