<svg xmlns="http://www.w3.org/2000/svg" width="318" height="385">
  <path d="M 102,108 L 102,109 L 101,110 L 100,110 L 98,112 L 97,112 L 97,113 L 100,116 L 100,118 L 99,119 L 98,118 L 97,119 L 95,119 L 94,120 L 92,118 L 91,118 L 90,119 L 88,119 L 87,118 L 87,117 L 85,115 L 83,117 L 83,119 L 82,120 L 81,120 L 81,123 L 82,124 L 82,125 L 83,125 L 84,126 L 84,127 L 82,129 L 82,130 L 81,131 L 81,137 L 80,138 L 79,138 L 78,137 L 78,136 L 77,136 L 77,137 L 74,140 L 74,141 L 73,142 L 73,144 L 74,145 L 74,147 L 75,148 L 75,150 L 74,151 L 74,152 L 71,155 L 66,155 L 66,156 L 67,156 L 68,157 L 70,157 L 71,158 L 74,158 L 75,159 L 76,159 L 77,160 L 78,160 L 80,162 L 80,164 L 82,166 L 83,166 L 84,167 L 84,168 L 83,169 L 84,170 L 85,170 L 86,171 L 86,172 L 88,172 L 89,173 L 95,173 L 96,172 L 98,174 L 99,174 L 100,175 L 100,178 L 99,179 L 100,179 L 101,180 L 102,180 L 104,182 L 105,182 L 106,181 L 107,181 L 109,179 L 111,181 L 112,181 L 113,182 L 114,182 L 115,183 L 116,183 L 118,181 L 119,181 L 119,180 L 122,177 L 124,177 L 127,180 L 128,180 L 129,179 L 130,179 L 131,178 L 131,177 L 132,176 L 138,176 L 139,175 L 141,175 L 143,173 L 144,173 L 146,171 L 146,170 L 145,169 L 145,168 L 143,166 L 143,165 L 137,165 L 135,163 L 135,162 L 133,162 L 132,163 L 130,163 L 129,164 L 126,164 L 124,162 L 125,161 L 127,161 L 127,160 L 128,159 L 126,157 L 127,156 L 126,156 L 125,155 L 125,154 L 124,154 L 121,151 L 120,152 L 118,150 L 117,151 L 116,151 L 115,150 L 114,150 L 113,149 L 112,149 L 107,144 L 108,143 L 109,143 L 110,144 L 111,143 L 111,141 L 110,141 L 108,139 L 107,139 L 105,137 L 105,136 L 106,135 L 107,136 L 108,136 L 109,137 L 110,137 L 111,138 L 113,138 L 112,137 L 112,136 L 111,135 L 111,133 L 110,132 L 110,129 L 109,128 L 109,127 L 110,126 L 115,131 L 114,132 L 115,133 L 115,134 L 116,135 L 116,136 L 117,136 L 118,137 L 118,138 L 119,139 L 119,140 L 119,139 L 120,138 L 121,139 L 121,141 L 120,142 L 121,142 L 122,141 L 122,139 L 123,138 L 122,137 L 121,138 L 118,135 L 119,134 L 121,134 L 122,135 L 125,135 L 126,134 L 126,131 L 125,130 L 125,129 L 124,128 L 124,127 L 123,126 L 122,127 L 121,126 L 119,126 L 117,124 L 116,124 L 115,125 L 114,124 L 113,124 L 111,122 L 111,121 L 110,120 L 110,119 L 109,118 L 109,116 L 103,110 L 103,108 Z" fill="none" stroke="black" stroke-width="1"/>
</svg>