<svg xmlns="http://www.w3.org/2000/svg" width="318" height="385">
  <path d="M 58,198 L 57,199 L 56,199 L 55,200 L 54,200 L 53,201 L 53,204 L 52,205 L 51,205 L 49,207 L 46,207 L 45,206 L 45,205 L 44,205 L 43,206 L 42,206 L 41,207 L 40,207 L 39,208 L 39,212 L 41,212 L 44,215 L 46,215 L 47,216 L 48,216 L 49,217 L 50,217 L 51,218 L 56,218 L 60,222 L 60,224 L 61,225 L 61,226 L 62,227 L 62,229 L 63,230 L 65,230 L 66,231 L 66,233 L 67,234 L 67,239 L 69,239 L 70,240 L 71,240 L 72,239 L 72,237 L 74,235 L 75,235 L 75,234 L 76,233 L 77,233 L 79,231 L 82,231 L 82,229 L 84,227 L 84,225 L 86,223 L 86,222 L 87,221 L 87,220 L 88,219 L 88,217 L 89,216 L 88,215 L 87,215 L 85,213 L 85,212 L 84,211 L 84,206 L 83,206 L 82,205 L 81,205 L 80,204 L 77,204 L 76,203 L 75,203 L 74,202 L 72,202 L 71,203 L 70,203 L 68,201 L 63,201 L 60,198 Z" fill="none" stroke="black" stroke-width="1"/>
</svg>