<svg xmlns="http://www.w3.org/2000/svg" width="318" height="385">
  <path d="M 55,155 L 54,156 L 55,156 Z" fill="none" stroke="black" stroke-width="1"/>
  <path d="M 61,114 L 60,115 L 55,115 L 55,116 L 51,120 L 51,121 L 50,122 L 49,122 L 49,123 L 50,124 L 50,128 L 51,129 L 51,131 L 50,132 L 50,133 L 48,135 L 47,135 L 46,136 L 45,135 L 41,135 L 40,136 L 40,140 L 39,141 L 38,141 L 37,142 L 36,142 L 34,144 L 33,144 L 31,146 L 29,146 L 28,145 L 28,144 L 31,141 L 32,141 L 33,140 L 31,138 L 30,138 L 28,136 L 26,136 L 25,135 L 24,135 L 23,136 L 25,138 L 26,138 L 29,141 L 28,142 L 28,143 L 26,145 L 25,145 L 24,146 L 22,146 L 21,147 L 19,147 L 19,148 L 20,149 L 20,150 L 21,150 L 22,151 L 23,151 L 24,152 L 26,152 L 29,155 L 28,156 L 28,159 L 29,160 L 29,161 L 30,162 L 31,162 L 32,163 L 33,163 L 34,164 L 34,165 L 35,166 L 35,168 L 36,169 L 36,170 L 37,170 L 39,172 L 44,172 L 45,173 L 46,172 L 48,172 L 47,171 L 48,170 L 48,169 L 46,167 L 46,166 L 45,165 L 44,165 L 40,161 L 40,160 L 41,159 L 41,158 L 42,157 L 43,158 L 45,156 L 44,155 L 46,153 L 49,153 L 48,152 L 48,151 L 49,150 L 50,150 L 50,149 L 52,147 L 53,147 L 54,148 L 56,148 L 57,149 L 57,150 L 58,149 L 59,149 L 60,150 L 60,151 L 61,150 L 64,153 L 64,156 L 65,157 L 65,155 L 66,154 L 71,154 L 73,152 L 73,151 L 74,150 L 74,148 L 73,147 L 73,145 L 72,144 L 72,142 L 73,141 L 73,140 L 76,137 L 76,136 L 77,135 L 78,135 L 79,136 L 79,137 L 80,137 L 80,131 L 81,130 L 81,129 L 83,127 L 83,126 L 82,126 L 81,125 L 81,124 L 77,120 L 77,118 L 75,116 L 72,116 L 71,117 L 70,117 L 69,116 L 68,116 L 67,115 L 66,115 L 65,114 Z" fill="none" stroke="black" stroke-width="1"/>
</svg>