<svg xmlns="http://www.w3.org/2000/svg" width="318" height="385">
  <path d="M 29,213 L 29,214 L 27,216 L 26,216 L 24,218 L 24,224 L 25,225 L 25,228 L 26,229 L 26,230 L 27,231 L 27,234 L 29,234 L 30,235 L 31,235 L 33,237 L 38,237 L 39,238 L 40,238 L 41,239 L 42,239 L 44,241 L 44,242 L 45,243 L 45,245 L 47,247 L 47,248 L 48,248 L 49,249 L 51,249 L 52,250 L 53,250 L 55,252 L 56,252 L 59,255 L 59,256 L 63,256 L 66,253 L 66,247 L 65,246 L 65,241 L 66,240 L 66,234 L 65,233 L 65,231 L 63,231 L 61,229 L 61,227 L 60,226 L 60,225 L 59,224 L 59,222 L 56,219 L 51,219 L 50,218 L 49,218 L 48,217 L 47,217 L 46,216 L 44,216 L 41,213 Z" fill="none" stroke="black" stroke-width="1"/>
</svg>