<svg xmlns="http://www.w3.org/2000/svg" width="318" height="385">
  <path d="M 165,148 L 163,150 L 160,150 L 159,151 L 157,151 L 155,153 L 154,153 L 153,154 L 152,154 L 151,155 L 151,156 L 147,160 L 146,160 L 146,162 L 145,163 L 145,164 L 144,165 L 144,166 L 146,168 L 146,169 L 147,170 L 147,171 L 144,174 L 143,174 L 141,176 L 139,176 L 141,178 L 141,179 L 142,180 L 142,181 L 143,181 L 145,183 L 145,184 L 146,184 L 147,185 L 150,185 L 151,186 L 154,186 L 162,194 L 162,198 L 163,198 L 164,197 L 167,197 L 169,199 L 170,198 L 170,193 L 169,193 L 168,192 L 168,189 L 169,188 L 171,188 L 171,187 L 172,186 L 172,184 L 171,183 L 171,179 L 172,178 L 172,177 L 173,176 L 173,168 L 171,166 L 170,166 L 169,165 L 169,163 L 167,161 L 167,157 L 168,156 L 169,156 L 169,151 L 170,150 L 170,149 L 169,149 L 168,148 Z" fill="none" stroke="black" stroke-width="1"/>
</svg>