<svg xmlns="http://www.w3.org/2000/svg" width="318" height="385">
  <path d="M 114,76 L 114,77 L 113,78 L 112,78 L 108,82 L 107,82 L 107,85 L 106,86 L 106,87 L 105,88 L 105,91 L 103,93 L 103,94 L 102,95 L 102,96 L 98,100 L 98,102 L 100,104 L 101,103 L 104,103 L 105,104 L 106,103 L 107,103 L 108,104 L 108,105 L 110,105 L 112,107 L 112,108 L 113,109 L 113,110 L 114,111 L 115,110 L 118,110 L 121,113 L 121,114 L 120,115 L 119,114 L 116,114 L 115,115 L 114,115 L 112,113 L 111,113 L 111,115 L 112,116 L 112,117 L 113,118 L 113,120 L 114,119 L 116,119 L 117,120 L 118,120 L 119,121 L 120,121 L 121,122 L 123,122 L 124,123 L 124,124 L 125,125 L 128,125 L 130,127 L 132,127 L 133,126 L 134,126 L 135,125 L 136,125 L 138,123 L 139,123 L 140,122 L 143,122 L 144,123 L 149,123 L 150,122 L 151,122 L 152,121 L 155,121 L 154,120 L 154,119 L 152,117 L 151,117 L 147,113 L 147,111 L 145,109 L 145,108 L 147,106 L 147,104 L 144,101 L 144,97 L 145,96 L 145,95 L 144,94 L 144,93 L 145,92 L 144,91 L 145,90 L 142,90 L 141,89 L 139,89 L 137,87 L 137,86 L 138,85 L 137,84 L 136,84 L 135,83 L 134,84 L 133,84 L 132,83 L 132,81 L 131,80 L 130,80 L 129,79 L 127,79 L 125,81 L 123,81 L 122,80 L 121,80 L 119,78 L 118,78 L 117,77 L 117,76 Z" fill="none" stroke="black" stroke-width="1"/>
  <path d="M 127,59 L 127,61 L 129,63 L 131,63 L 131,60 L 130,59 Z" fill="none" stroke="black" stroke-width="1"/>
</svg>