<svg xmlns="http://www.w3.org/2000/svg" width="318" height="385">
  <path d="M 176,186 L 175,187 L 172,187 L 172,188 L 171,189 L 169,189 L 169,192 L 170,192 L 171,193 L 171,198 L 172,199 L 172,204 L 169,207 L 171,209 L 171,211 L 173,213 L 175,213 L 177,215 L 178,214 L 179,214 L 179,213 L 182,210 L 188,210 L 190,212 L 191,212 L 192,213 L 195,213 L 197,215 L 198,215 L 200,217 L 201,217 L 202,218 L 207,218 L 208,217 L 209,217 L 209,216 L 210,215 L 210,211 L 209,210 L 209,206 L 208,205 L 208,204 L 206,202 L 206,200 L 202,200 L 201,199 L 197,199 L 196,198 L 196,195 L 193,195 L 192,194 L 190,194 L 189,193 L 189,191 L 188,191 L 187,190 L 187,189 L 186,189 L 185,188 L 181,188 L 180,187 L 180,186 Z" fill="none" stroke="black" stroke-width="1"/>
</svg>