<svg xmlns="http://www.w3.org/2000/svg" width="1028" height="413">
  <path d="M 707,31 L 706,32 L 706,33 L 709,33 L 710,32 L 711,32 L 708,32 Z" fill="none" stroke="black" stroke-width="1"/>
  <path d="M 681,30 L 679,32 L 677,32 L 675,34 L 676,34 L 677,35 L 679,35 L 680,36 L 681,36 L 682,37 L 684,37 L 685,36 L 687,36 L 688,35 L 691,35 L 691,34 L 692,33 L 690,33 L 689,32 L 688,32 L 687,31 L 686,31 L 684,33 L 682,31 L 682,30 Z" fill="none" stroke="black" stroke-width="1"/>
  <path d="M 674,29 L 674,30 L 673,31 L 674,32 L 676,30 L 678,30 L 677,29 L 676,30 L 675,29 Z" fill="none" stroke="black" stroke-width="1"/>
  <path d="M 685,27 L 685,28 L 686,29 L 687,29 L 687,28 L 686,28 Z" fill="none" stroke="black" stroke-width="1"/>
  <path d="M 703,26 L 702,27 L 701,27 L 701,28 L 700,29 L 701,30 L 705,30 L 706,29 L 706,26 Z" fill="none" stroke="black" stroke-width="1"/>
  <path d="M 682,25 L 681,26 L 680,26 L 680,27 L 681,28 L 682,28 Z" fill="none" stroke="black" stroke-width="1"/>
  <path d="M 689,24 L 688,25 L 688,26 L 689,26 L 690,27 L 690,28 L 691,29 L 691,30 L 693,30 L 694,29 L 695,29 L 694,29 L 693,28 L 692,28 L 689,25 Z" fill="none" stroke="black" stroke-width="1"/>
  <path d="M 747,15 L 748,16 L 747,17 L 744,17 L 743,18 L 742,18 L 741,19 L 740,19 L 739,20 L 743,24 L 744,24 L 745,23 L 746,23 L 748,21 L 749,21 L 751,19 L 750,18 L 750,16 L 749,15 Z" fill="none" stroke="black" stroke-width="1"/>
  <path d="M 752,11 L 751,12 L 751,14 L 752,15 L 752,16 L 753,17 L 755,17 L 757,15 L 758,15 L 757,14 L 757,13 L 756,13 L 755,12 L 754,12 L 753,11 Z" fill="none" stroke="black" stroke-width="1"/>
  <path d="M 746,8 L 746,9 L 747,10 L 746,11 L 743,11 L 740,14 L 738,12 L 738,11 L 737,11 L 737,12 L 738,13 L 737,14 L 736,14 L 735,13 L 734,13 L 733,12 L 731,12 L 731,13 L 730,14 L 725,14 L 729,14 L 730,15 L 730,16 L 729,17 L 730,18 L 732,18 L 733,17 L 735,17 L 736,16 L 737,16 L 738,17 L 739,17 L 740,16 L 741,16 L 746,11 L 747,11 L 747,9 Z" fill="none" stroke="black" stroke-width="1"/>
  <path d="M 790,3 L 791,3 Z" fill="none" stroke="black" stroke-width="1"/>
  <path d="M 756,3 L 755,4 L 755,5 L 756,5 L 757,6 L 758,6 L 759,5 L 759,4 L 758,4 L 757,3 Z" fill="none" stroke="black" stroke-width="1"/>
  <path d="M 768,1 L 767,2 L 768,2 L 769,3 L 769,1 Z" fill="none" stroke="black" stroke-width="1"/>
  <path d="M 783,0 L 781,2 L 777,2 L 777,3 L 779,3 L 780,4 L 780,5 L 779,6 L 778,5 L 778,6 L 779,7 L 777,9 L 776,9 L 775,8 L 775,7 L 774,6 L 773,6 L 772,5 L 772,6 L 771,7 L 770,7 L 768,5 L 766,5 L 766,8 L 767,9 L 766,10 L 764,10 L 762,8 L 761,9 L 761,10 L 762,10 L 763,11 L 765,11 L 766,12 L 767,12 L 768,13 L 768,14 L 767,15 L 766,15 L 764,13 L 761,13 L 761,14 L 760,15 L 761,16 L 760,17 L 762,19 L 761,20 L 759,20 L 758,19 L 758,18 L 757,18 L 756,19 L 753,19 L 753,21 L 752,22 L 751,22 L 750,23 L 749,23 L 748,24 L 748,25 L 747,26 L 746,26 L 747,27 L 747,28 L 745,30 L 746,31 L 748,31 L 749,32 L 748,33 L 747,33 L 746,34 L 745,34 L 744,33 L 742,33 L 741,32 L 741,31 L 740,30 L 738,30 L 737,29 L 738,28 L 739,28 L 739,27 L 738,27 L 737,26 L 738,25 L 741,25 L 740,25 L 738,23 L 737,23 L 736,22 L 732,22 L 732,23 L 733,23 L 734,24 L 735,24 L 737,26 L 736,27 L 734,27 L 733,26 L 731,26 L 731,27 L 732,27 L 733,28 L 733,29 L 735,29 L 736,30 L 735,31 L 731,31 L 730,30 L 731,29 L 730,29 L 729,28 L 729,24 L 724,24 L 722,26 L 721,26 L 720,25 L 722,23 L 722,22 L 721,22 L 721,24 L 720,25 L 719,25 L 718,24 L 717,24 L 716,25 L 715,25 L 714,26 L 714,27 L 716,27 L 717,28 L 717,29 L 719,29 L 720,30 L 721,30 L 723,28 L 726,28 L 727,27 L 728,28 L 728,29 L 726,31 L 724,31 L 723,32 L 724,33 L 724,34 L 726,36 L 726,37 L 727,38 L 727,39 L 726,40 L 725,40 L 724,39 L 724,38 L 722,36 L 721,36 L 720,35 L 719,35 L 718,34 L 718,33 L 717,32 L 714,32 L 713,33 L 713,34 L 712,35 L 712,36 L 710,38 L 709,38 L 708,37 L 708,36 L 709,35 L 708,35 L 707,36 L 707,37 L 706,38 L 705,37 L 705,35 L 704,35 L 703,36 L 703,37 L 704,37 L 705,38 L 704,39 L 703,39 L 703,40 L 702,41 L 702,42 L 703,43 L 704,43 L 706,45 L 705,46 L 704,46 L 703,45 L 702,45 L 701,44 L 701,45 L 700,46 L 700,47 L 699,48 L 699,49 L 698,50 L 697,50 L 695,52 L 694,52 L 693,53 L 692,52 L 692,51 L 693,50 L 694,50 L 696,48 L 697,48 L 697,47 L 698,46 L 698,41 L 699,40 L 699,38 L 700,37 L 700,35 L 699,34 L 699,33 L 698,33 L 696,35 L 696,36 L 691,41 L 691,43 L 692,44 L 690,46 L 690,47 L 689,48 L 688,48 L 687,47 L 687,46 L 689,44 L 689,39 L 690,38 L 690,37 L 689,37 L 688,38 L 686,38 L 685,39 L 682,39 L 678,43 L 678,44 L 679,44 L 680,45 L 679,46 L 679,47 L 681,49 L 684,49 L 686,51 L 686,54 L 689,57 L 692,57 L 693,58 L 702,58 L 702,57 L 703,56 L 707,56 L 708,57 L 710,57 L 711,58 L 712,57 L 711,57 L 710,56 L 710,54 L 712,52 L 713,52 L 715,50 L 719,50 L 720,51 L 721,51 L 722,52 L 722,53 L 726,57 L 727,57 L 728,58 L 728,59 L 731,62 L 731,67 L 732,67 L 733,66 L 735,66 L 736,67 L 737,67 L 738,68 L 739,68 L 740,69 L 747,69 L 748,68 L 749,68 L 750,67 L 751,67 L 752,66 L 753,66 L 755,64 L 759,64 L 762,67 L 763,67 L 764,68 L 766,68 L 767,69 L 769,69 L 770,70 L 771,70 L 772,69 L 773,69 L 774,68 L 774,65 L 775,64 L 776,64 L 778,62 L 781,62 L 782,63 L 782,62 L 783,61 L 783,54 L 784,53 L 783,52 L 783,50 L 785,48 L 785,46 L 786,45 L 786,44 L 787,43 L 787,41 L 790,38 L 791,38 L 794,35 L 794,34 L 795,33 L 807,33 L 808,32 L 811,32 L 814,29 L 815,29 L 816,28 L 817,29 L 817,30 L 818,31 L 819,31 L 821,33 L 821,34 L 824,34 L 825,35 L 825,36 L 826,36 L 827,37 L 828,37 L 829,38 L 832,38 L 833,39 L 834,39 L 835,40 L 836,40 L 839,43 L 840,43 L 841,42 L 841,41 L 842,40 L 842,39 L 844,37 L 850,37 L 850,36 L 849,35 L 848,35 L 847,36 L 846,36 L 845,35 L 844,36 L 842,36 L 841,35 L 842,34 L 843,34 L 844,33 L 841,33 L 840,32 L 836,32 L 835,31 L 833,31 L 832,30 L 829,30 L 828,29 L 829,28 L 828,27 L 829,26 L 830,26 L 831,27 L 833,27 L 834,28 L 839,28 L 840,29 L 845,29 L 846,30 L 851,30 L 852,29 L 854,29 L 855,28 L 855,27 L 856,26 L 857,26 L 858,25 L 864,25 L 865,24 L 866,24 L 866,22 L 864,20 L 862,20 L 861,19 L 860,19 L 859,18 L 859,17 L 855,17 L 854,16 L 855,15 L 853,13 L 852,13 L 851,12 L 850,12 L 847,15 L 846,15 L 845,14 L 846,13 L 846,12 L 844,12 L 843,13 L 841,13 L 840,14 L 839,13 L 839,10 L 837,8 L 831,8 L 827,12 L 827,14 L 826,15 L 826,16 L 825,17 L 825,18 L 824,19 L 824,20 L 823,21 L 823,29 L 821,31 L 820,31 L 819,30 L 821,28 L 821,21 L 819,19 L 818,19 L 817,20 L 816,19 L 816,18 L 817,17 L 819,17 L 823,13 L 823,12 L 822,13 L 821,13 L 820,14 L 819,14 L 818,15 L 816,15 L 815,14 L 816,13 L 817,13 L 818,12 L 819,12 L 819,11 L 816,11 L 815,10 L 816,9 L 820,9 L 821,10 L 822,9 L 823,9 L 824,8 L 825,8 L 826,7 L 826,6 L 827,5 L 826,4 L 824,4 L 822,2 L 819,2 L 818,3 L 815,3 L 814,2 L 814,1 L 813,1 L 810,4 L 809,4 L 808,3 L 807,3 L 807,4 L 806,5 L 806,6 L 807,7 L 811,7 L 812,8 L 812,9 L 811,10 L 810,9 L 808,9 L 808,10 L 806,12 L 805,12 L 805,13 L 806,14 L 807,14 L 808,15 L 807,16 L 805,16 L 804,15 L 803,16 L 803,17 L 804,18 L 803,19 L 801,19 L 798,22 L 796,22 L 795,21 L 795,20 L 796,19 L 796,18 L 797,17 L 797,14 L 795,14 L 794,13 L 795,12 L 797,12 L 798,11 L 798,8 L 799,7 L 798,6 L 796,6 L 788,14 L 788,15 L 784,19 L 783,19 L 779,23 L 780,23 L 781,24 L 778,27 L 778,28 L 776,30 L 774,30 L 773,29 L 773,28 L 773,30 L 772,31 L 771,30 L 771,27 L 772,26 L 772,25 L 773,24 L 774,24 L 773,23 L 773,22 L 774,21 L 776,21 L 776,19 L 774,17 L 777,14 L 779,14 L 785,8 L 786,8 L 786,7 L 781,7 L 780,6 L 781,5 L 784,5 L 785,4 L 788,4 L 787,4 L 786,3 L 788,1 L 787,1 L 786,2 L 784,0 Z" fill="none" stroke="black" stroke-width="1"/>
</svg>