<svg xmlns="http://www.w3.org/2000/svg" width="333" height="139">
  <path d="M 99,16 L 99,17 L 98,18 L 98,19 L 97,20 L 99,22 L 100,22 L 102,24 L 107,24 L 108,25 L 107,26 L 100,26 L 99,27 L 95,27 L 94,28 L 93,28 L 93,29 L 101,29 L 102,30 L 107,30 L 109,32 L 110,32 L 111,31 L 115,31 L 116,30 L 117,30 L 118,29 L 124,29 L 125,28 L 125,26 L 124,25 L 124,24 L 125,23 L 125,19 L 124,19 L 123,18 L 119,18 L 118,17 L 117,17 L 116,16 L 115,17 L 114,17 L 113,18 L 110,18 L 109,17 L 103,17 L 102,16 Z" fill="none" stroke="black" stroke-width="1"/>
</svg>