<svg xmlns="http://www.w3.org/2000/svg" width="333" height="139">
  <path d="M 74,29 L 75,30 L 76,30 L 78,32 L 76,34 L 76,35 L 75,36 L 75,39 L 77,41 L 77,42 L 79,44 L 80,44 L 83,47 L 83,48 L 85,48 L 88,45 L 89,45 L 90,46 L 91,46 L 92,47 L 94,47 L 95,46 L 99,46 L 99,45 L 101,43 L 101,42 L 102,41 L 105,41 L 106,42 L 106,41 L 107,40 L 107,38 L 108,37 L 108,34 L 109,33 L 107,31 L 102,31 L 101,30 L 98,30 L 98,31 L 97,32 L 79,32 L 78,31 L 79,30 L 80,30 L 80,29 Z" fill="none" stroke="black" stroke-width="1"/>
</svg>