<svg xmlns="http://www.w3.org/2000/svg" width="333" height="139">
  <path d="M 64,62 L 63,63 L 60,63 L 60,64 L 62,66 L 64,66 L 66,68 L 65,69 L 62,69 L 61,70 L 59,70 L 58,69 L 58,66 L 56,64 L 54,64 L 54,66 L 56,68 L 56,69 L 55,70 L 53,70 L 53,71 L 54,71 L 55,72 L 56,72 L 57,73 L 57,74 L 58,74 L 58,73 L 59,72 L 60,72 L 62,74 L 64,74 L 65,75 L 66,75 L 67,76 L 68,76 L 69,77 L 69,80 L 68,81 L 68,84 L 67,85 L 67,87 L 68,88 L 70,88 L 70,87 L 72,85 L 72,83 L 73,82 L 73,80 L 72,79 L 72,76 L 71,75 L 71,74 L 73,72 L 73,71 L 74,70 L 74,67 L 73,66 L 72,66 L 71,65 L 71,64 L 70,64 L 69,63 L 68,63 L 67,62 Z" fill="none" stroke="black" stroke-width="1"/>
</svg>