<svg xmlns="http://www.w3.org/2000/svg" width="333" height="139">
  <path d="M 90,82 L 90,83 L 88,85 L 86,85 L 85,86 L 83,86 L 81,88 L 79,88 L 78,87 L 75,87 L 74,86 L 72,86 L 71,87 L 71,89 L 73,89 L 74,90 L 74,91 L 72,93 L 71,93 L 70,92 L 69,92 L 68,93 L 68,94 L 69,95 L 70,94 L 81,94 L 82,93 L 84,93 L 85,94 L 84,95 L 83,95 L 82,96 L 81,96 L 81,97 L 80,98 L 79,98 L 78,99 L 79,99 L 80,98 L 81,98 L 82,99 L 81,100 L 81,101 L 82,101 L 83,100 L 83,98 L 84,97 L 85,98 L 85,97 L 86,96 L 87,96 L 88,97 L 89,97 L 90,98 L 90,99 L 91,100 L 93,100 L 94,99 L 95,99 L 97,101 L 96,102 L 97,102 L 98,103 L 97,104 L 97,105 L 99,107 L 100,107 L 101,108 L 102,108 L 102,107 L 103,106 L 103,102 L 104,101 L 104,98 L 106,96 L 105,95 L 103,95 L 102,94 L 102,90 L 103,89 L 103,88 L 104,87 L 101,84 L 101,83 L 99,83 L 99,84 L 98,85 L 97,85 L 95,83 L 93,83 L 92,82 Z" fill="none" stroke="black" stroke-width="1"/>
</svg>