<svg xmlns="http://www.w3.org/2000/svg" width="333" height="139">
  <path d="M 82,105 L 81,106 L 80,106 L 79,107 L 78,107 L 76,109 L 76,114 L 77,114 L 78,113 L 78,112 L 79,111 L 80,111 L 80,110 L 82,108 L 82,107 L 83,106 L 83,105 Z" fill="none" stroke="black" stroke-width="1"/>
  <path d="M 52,101 L 52,102 L 53,102 L 54,103 L 55,103 L 56,102 L 56,101 Z" fill="none" stroke="black" stroke-width="1"/>
  <path d="M 73,99 L 72,100 L 70,100 L 74,100 L 75,99 Z" fill="none" stroke="black" stroke-width="1"/>
  <path d="M 66,97 L 65,98 L 66,98 L 67,97 L 69,97 Z" fill="none" stroke="black" stroke-width="1"/>
  <path d="M 63,94 L 63,95 L 65,95 L 64,94 Z" fill="none" stroke="black" stroke-width="1"/>
</svg>