<svg xmlns="http://www.w3.org/2000/svg" width="318" height="385">
  <path d="M 39,173 L 39,175 L 40,176 L 39,177 L 39,178 L 38,179 L 38,180 L 39,181 L 39,184 L 41,184 L 42,185 L 43,185 L 44,186 L 44,187 L 43,188 L 39,188 L 38,187 L 36,187 L 35,186 L 32,186 L 31,185 L 27,185 L 25,187 L 25,188 L 24,189 L 26,189 L 27,190 L 31,190 L 32,191 L 35,191 L 36,192 L 37,192 L 38,193 L 39,193 L 40,194 L 39,195 L 39,196 L 40,197 L 40,199 L 41,199 L 42,200 L 43,200 L 45,202 L 45,204 L 46,205 L 46,206 L 49,206 L 51,204 L 52,204 L 52,201 L 54,199 L 55,199 L 56,198 L 57,198 L 58,197 L 58,189 L 57,188 L 57,185 L 56,184 L 56,182 L 55,182 L 54,181 L 54,180 L 53,179 L 53,178 L 52,177 L 52,176 L 51,175 L 51,174 L 50,174 L 49,173 L 46,173 L 45,174 L 44,173 Z" fill="none" stroke="black" stroke-width="1"/>
</svg>