<svg xmlns="http://www.w3.org/2000/svg" width="333" height="139">
  <path d="M 183,118 L 182,119 L 181,119 L 180,120 L 179,120 L 178,121 L 177,121 L 175,123 L 172,123 L 171,124 L 170,124 L 169,125 L 158,125 L 157,124 L 157,127 L 155,129 L 154,128 L 151,128 L 149,130 L 147,130 L 146,129 L 146,130 L 147,131 L 147,133 L 148,134 L 148,135 L 149,135 L 150,136 L 151,136 L 152,137 L 156,137 L 157,138 L 159,136 L 163,136 L 165,134 L 167,134 L 168,133 L 168,132 L 169,131 L 175,131 L 172,128 L 172,126 L 173,125 L 174,125 L 177,122 L 178,122 L 180,120 L 181,120 L 182,119 L 183,119 Z" fill="none" stroke="black" stroke-width="1"/>
</svg>