<svg xmlns="http://www.w3.org/2000/svg" width="333" height="139">
  <path d="M 102,42 L 102,43 L 100,45 L 100,46 L 99,47 L 95,47 L 94,48 L 92,48 L 91,47 L 90,47 L 89,46 L 88,46 L 85,49 L 83,49 L 84,50 L 84,51 L 82,53 L 81,53 L 83,55 L 86,55 L 85,54 L 86,53 L 90,53 L 91,54 L 91,55 L 93,55 L 96,58 L 96,60 L 97,61 L 96,62 L 98,64 L 100,64 L 101,63 L 105,63 L 106,62 L 107,62 L 108,63 L 110,63 L 111,62 L 111,61 L 112,60 L 113,60 L 115,58 L 115,57 L 116,56 L 116,52 L 115,51 L 115,47 L 113,45 L 112,45 L 111,44 L 107,44 L 105,42 Z" fill="none" stroke="black" stroke-width="1"/>
</svg>