<svg xmlns="http://www.w3.org/2000/svg" width="333" height="139">
  <path d="M 145,57 L 144,58 L 142,58 L 141,59 L 140,59 L 139,60 L 138,60 L 138,63 L 135,66 L 133,66 L 132,67 L 130,67 L 130,69 L 134,73 L 135,73 L 136,74 L 136,76 L 135,77 L 134,77 L 133,78 L 133,82 L 132,83 L 132,87 L 133,87 L 134,88 L 137,88 L 138,87 L 139,87 L 139,85 L 141,83 L 145,83 L 146,84 L 148,84 L 149,83 L 150,83 L 151,82 L 152,82 L 154,80 L 155,80 L 156,79 L 156,78 L 155,77 L 155,74 L 156,73 L 151,68 L 151,65 L 150,64 L 150,63 L 148,61 L 148,58 L 147,57 Z" fill="none" stroke="black" stroke-width="1"/>
</svg>