<svg xmlns="http://www.w3.org/2000/svg" width="333" height="139">
  <path d="M 165,79 L 162,82 L 159,82 L 157,80 L 156,80 L 155,81 L 154,81 L 152,83 L 151,83 L 150,84 L 149,84 L 148,85 L 146,85 L 145,84 L 141,84 L 140,85 L 140,87 L 139,88 L 138,88 L 138,89 L 139,89 L 141,91 L 141,92 L 144,95 L 146,95 L 148,97 L 148,98 L 149,99 L 156,99 L 156,98 L 157,97 L 160,97 L 161,96 L 162,96 L 163,95 L 167,95 L 168,94 L 170,94 L 171,93 L 172,93 L 173,92 L 174,92 L 176,90 L 179,90 L 179,89 L 181,87 L 185,87 L 185,85 L 180,85 L 179,84 L 179,82 L 178,81 L 178,80 L 177,80 L 176,79 L 175,80 L 171,80 L 170,79 Z" fill="none" stroke="black" stroke-width="1"/>
</svg>