<svg xmlns="http://www.w3.org/2000/svg" width="333" height="139">
  <path d="M 162,2 L 161,3 L 159,3 L 158,4 L 157,4 L 156,5 L 152,5 L 154,7 L 154,8 L 155,9 L 155,10 L 153,12 L 153,15 L 154,16 L 154,18 L 155,18 L 157,20 L 157,23 L 158,23 L 158,22 L 159,21 L 159,20 L 161,18 L 164,18 L 165,17 L 168,17 L 170,19 L 174,19 L 175,18 L 176,18 L 177,17 L 178,17 L 179,16 L 181,16 L 181,15 L 180,14 L 180,11 L 179,10 L 176,10 L 175,9 L 176,8 L 176,7 L 177,6 L 174,3 L 174,2 L 173,3 L 172,3 L 171,2 Z" fill="none" stroke="black" stroke-width="1"/>
</svg>