<svg xmlns="http://www.w3.org/2000/svg" width="333" height="139">
  <path d="M 148,28 L 145,31 L 143,31 L 142,32 L 141,32 L 140,33 L 140,34 L 138,36 L 138,38 L 136,40 L 137,40 L 138,41 L 138,43 L 139,44 L 139,46 L 136,49 L 135,49 L 134,50 L 131,50 L 131,51 L 132,52 L 132,54 L 133,55 L 134,55 L 135,56 L 135,57 L 136,57 L 137,58 L 137,59 L 139,59 L 140,58 L 141,58 L 142,57 L 144,57 L 145,56 L 147,56 L 148,57 L 149,56 L 150,56 L 151,55 L 152,55 L 154,53 L 156,53 L 157,54 L 158,54 L 159,53 L 160,53 L 161,52 L 163,52 L 163,50 L 162,49 L 162,46 L 164,44 L 164,43 L 163,42 L 163,38 L 162,37 L 161,37 L 159,35 L 158,35 L 157,34 L 157,33 L 156,32 L 155,32 L 153,30 L 153,28 Z" fill="none" stroke="black" stroke-width="1"/>
</svg>