<svg xmlns="http://www.w3.org/2000/svg" width="333" height="139">
  <path d="M 204,70 L 204,73 L 202,75 L 201,75 L 199,77 L 197,77 L 196,78 L 194,78 L 193,79 L 192,79 L 191,80 L 191,81 L 190,82 L 190,83 L 187,86 L 186,86 L 186,87 L 185,88 L 181,88 L 180,89 L 180,90 L 179,91 L 176,91 L 174,93 L 173,93 L 174,94 L 174,95 L 175,96 L 175,99 L 177,101 L 177,102 L 178,101 L 179,101 L 182,98 L 187,98 L 188,99 L 189,99 L 190,100 L 191,100 L 192,101 L 193,101 L 194,102 L 195,102 L 196,101 L 198,101 L 198,100 L 200,98 L 202,98 L 203,97 L 203,96 L 205,94 L 207,94 L 208,93 L 213,93 L 213,92 L 216,89 L 216,87 L 215,86 L 214,86 L 212,84 L 210,84 L 208,82 L 208,81 L 209,80 L 209,78 L 210,77 L 209,77 L 208,76 L 208,75 L 210,73 L 210,72 L 209,72 L 207,70 Z" fill="none" stroke="black" stroke-width="1"/>
</svg>