<svg xmlns="http://www.w3.org/2000/svg" width="333" height="139">
  <path d="M 233,37 L 232,38 L 231,38 L 230,39 L 227,39 L 226,40 L 221,40 L 220,39 L 219,39 L 218,38 L 211,38 L 211,39 L 210,40 L 210,41 L 209,42 L 208,42 L 207,43 L 207,49 L 208,50 L 208,53 L 207,54 L 205,54 L 204,55 L 206,55 L 207,56 L 207,57 L 208,57 L 209,58 L 209,61 L 210,62 L 212,62 L 213,63 L 215,63 L 216,64 L 216,63 L 217,62 L 217,60 L 221,56 L 222,56 L 223,55 L 225,55 L 226,54 L 227,54 L 229,52 L 229,51 L 230,50 L 231,50 L 232,49 L 238,49 L 239,50 L 242,50 L 243,49 L 244,49 L 245,48 L 246,48 L 246,44 L 245,43 L 245,41 L 243,41 L 242,40 L 238,40 L 236,38 L 235,38 L 234,37 Z" fill="none" stroke="black" stroke-width="1"/>
</svg>