<svg xmlns="http://www.w3.org/2000/svg" width="333" height="139">
  <path d="M 287,13 L 285,15 L 283,15 L 282,16 L 280,16 L 278,18 L 277,18 L 276,19 L 274,19 L 273,20 L 272,20 L 271,21 L 265,21 L 264,20 L 262,20 L 261,19 L 260,19 L 259,18 L 258,18 L 257,19 L 255,19 L 254,18 L 253,19 L 250,19 L 249,20 L 248,20 L 247,21 L 243,21 L 242,22 L 241,21 L 240,21 L 239,22 L 239,26 L 238,27 L 238,28 L 240,30 L 240,31 L 241,30 L 244,30 L 245,31 L 245,33 L 250,33 L 251,32 L 252,32 L 255,29 L 258,29 L 261,32 L 264,32 L 264,31 L 266,29 L 274,29 L 275,28 L 277,28 L 279,26 L 280,26 L 282,24 L 283,24 L 284,23 L 284,22 L 289,17 L 289,16 L 290,15 L 290,14 L 289,13 Z" fill="none" stroke="black" stroke-width="1"/>
</svg>