<svg xmlns="http://www.w3.org/2000/svg" width="318" height="385">
  <path d="M 16,189 L 16,192 L 15,193 L 13,193 L 11,191 L 11,190 L 10,190 L 10,194 L 11,195 L 10,196 L 10,197 L 9,198 L 9,200 L 10,201 L 11,201 L 12,202 L 12,203 L 13,204 L 13,206 L 12,207 L 12,208 L 16,212 L 16,213 L 17,213 L 18,214 L 21,214 L 23,216 L 23,217 L 24,217 L 26,215 L 27,215 L 28,214 L 28,213 L 29,212 L 38,212 L 38,208 L 40,206 L 41,206 L 42,205 L 43,205 L 44,204 L 44,202 L 43,201 L 42,201 L 41,200 L 40,200 L 39,199 L 39,197 L 38,196 L 38,195 L 39,194 L 38,194 L 37,193 L 36,193 L 35,192 L 32,192 L 31,191 L 27,191 L 26,190 L 19,190 L 18,189 Z" fill="none" stroke="black" stroke-width="1"/>
</svg>