<svg xmlns="http://www.w3.org/2000/svg" width="333" height="139">
  <path d="M 279,27 L 277,29 L 275,29 L 274,30 L 266,30 L 265,31 L 265,33 L 263,35 L 263,38 L 269,38 L 270,39 L 272,39 L 273,40 L 273,41 L 274,41 L 275,42 L 274,43 L 276,43 L 278,45 L 278,47 L 277,48 L 277,49 L 280,49 L 281,48 L 282,49 L 283,48 L 284,48 L 286,50 L 289,50 L 291,52 L 292,52 L 293,53 L 299,53 L 302,50 L 303,50 L 303,49 L 305,47 L 306,47 L 300,41 L 301,40 L 301,39 L 302,38 L 302,37 L 301,37 L 300,36 L 300,37 L 299,38 L 298,38 L 297,39 L 295,39 L 294,40 L 292,40 L 291,39 L 288,39 L 287,38 L 287,37 L 286,36 L 286,35 L 285,34 L 285,32 L 283,30 L 283,29 L 282,29 L 280,27 Z" fill="none" stroke="black" stroke-width="1"/>
</svg>