<svg xmlns="http://www.w3.org/2000/svg" width="333" height="139">
  <path d="M 209,63 L 206,66 L 206,67 L 205,68 L 205,69 L 207,69 L 209,71 L 210,71 L 211,72 L 211,73 L 209,75 L 209,76 L 210,76 L 211,77 L 210,78 L 210,80 L 209,81 L 209,82 L 210,83 L 212,83 L 214,85 L 215,85 L 217,87 L 217,88 L 221,88 L 221,87 L 222,86 L 223,86 L 225,84 L 225,83 L 226,82 L 228,82 L 228,81 L 227,80 L 227,78 L 226,77 L 226,76 L 225,75 L 225,70 L 226,69 L 226,68 L 225,68 L 224,67 L 224,66 L 223,67 L 218,67 L 215,64 L 213,64 L 212,63 Z" fill="none" stroke="black" stroke-width="1"/>
</svg>