<svg xmlns="http://www.w3.org/2000/svg" width="762" height="285">
  <path d="M 405,64 L 404,65 L 403,65 L 402,66 L 401,66 L 400,67 L 399,66 L 396,66 L 395,65 L 394,65 L 393,66 L 391,66 L 390,65 L 389,66 L 387,66 L 386,67 L 385,67 L 385,69 L 383,71 L 382,71 L 382,72 L 385,72 L 386,73 L 387,73 L 388,74 L 389,74 L 391,76 L 393,76 L 394,77 L 396,77 L 397,78 L 398,78 L 399,79 L 399,78 L 400,77 L 401,77 L 402,76 L 402,75 L 404,73 L 404,72 L 405,71 L 405,70 L 406,69 L 406,64 Z" fill="none" stroke="black" stroke-width="1"/>
</svg>