<svg xmlns="http://www.w3.org/2000/svg" width="762" height="285">
  <path d="M 441,66 L 440,67 L 437,67 L 435,69 L 434,69 L 432,71 L 431,71 L 430,72 L 429,72 L 429,73 L 428,74 L 424,74 L 424,75 L 425,76 L 425,77 L 426,78 L 426,80 L 424,82 L 423,82 L 423,83 L 419,87 L 417,87 L 414,90 L 412,90 L 411,91 L 412,92 L 412,94 L 413,94 L 415,96 L 424,96 L 424,94 L 426,92 L 426,91 L 425,90 L 425,89 L 426,88 L 431,88 L 431,87 L 433,85 L 435,85 L 436,86 L 437,86 L 439,84 L 439,82 L 440,81 L 447,81 L 447,77 L 444,74 L 444,72 L 443,71 L 443,70 L 445,68 L 445,67 L 444,66 Z" fill="none" stroke="black" stroke-width="1"/>
</svg>