<svg xmlns="http://www.w3.org/2000/svg" width="762" height="285">
  <path d="M 511,35 L 509,37 L 508,37 L 508,38 L 511,41 L 510,42 L 510,48 L 511,49 L 511,50 L 513,52 L 514,52 L 515,51 L 526,51 L 527,50 L 530,50 L 534,54 L 535,54 L 536,55 L 540,55 L 539,54 L 542,51 L 543,51 L 544,52 L 545,51 L 545,50 L 549,46 L 549,43 L 551,41 L 551,40 L 552,39 L 551,38 L 551,37 L 549,35 L 548,35 L 547,36 L 546,36 L 545,37 L 541,37 L 540,38 L 539,38 L 537,40 L 533,40 L 529,36 L 522,36 L 521,35 L 518,35 L 517,36 L 515,36 L 514,35 Z" fill="none" stroke="black" stroke-width="1"/>
</svg>