<svg xmlns="http://www.w3.org/2000/svg" width="762" height="285">
  <path d="M 552,40 L 552,41 L 550,43 L 550,46 L 546,50 L 546,51 L 545,52 L 545,53 L 546,54 L 545,55 L 546,56 L 546,57 L 548,59 L 551,59 L 552,60 L 554,60 L 555,61 L 557,61 L 558,60 L 559,60 L 560,59 L 563,59 L 564,60 L 565,60 L 566,61 L 571,61 L 572,60 L 573,60 L 576,63 L 579,63 L 578,62 L 578,61 L 579,60 L 579,59 L 581,57 L 581,56 L 582,55 L 582,54 L 579,51 L 579,45 L 578,45 L 577,46 L 575,46 L 572,49 L 571,49 L 570,50 L 568,50 L 566,48 L 563,48 L 561,46 L 561,45 L 559,43 L 559,42 L 558,41 L 556,41 L 555,40 Z" fill="none" stroke="black" stroke-width="1"/>
</svg>