<svg xmlns="http://www.w3.org/2000/svg" width="171" height="149">
  <path d="M 88,23 L 88,24 L 89,25 L 88,26 L 87,26 L 85,24 L 84,24 L 83,25 L 75,25 L 73,27 L 72,27 L 71,26 L 70,26 L 70,27 L 72,29 L 71,30 L 70,30 L 70,32 L 72,34 L 73,34 L 74,35 L 73,36 L 73,37 L 71,39 L 71,40 L 73,40 L 74,39 L 74,38 L 76,36 L 76,34 L 78,32 L 83,32 L 84,31 L 85,31 L 88,28 L 92,28 L 92,27 L 91,27 L 90,26 L 91,25 L 92,25 L 92,24 L 91,23 Z" fill="none" stroke="black" stroke-width="1"/>
  <path d="M 80,14 L 77,17 L 73,17 L 73,18 L 74,19 L 77,19 L 78,20 L 78,21 L 79,22 L 81,22 L 81,21 L 83,19 L 84,20 L 86,18 L 86,17 L 84,15 L 83,15 L 82,14 Z" fill="none" stroke="black" stroke-width="1"/>
</svg>