<svg xmlns="http://www.w3.org/2000/svg" width="762" height="285">
  <path d="M 623,32 L 619,36 L 617,36 L 617,37 L 616,38 L 615,38 L 614,39 L 613,38 L 612,38 L 611,37 L 612,36 L 612,35 L 611,34 L 610,34 L 609,35 L 608,35 L 606,37 L 606,38 L 605,39 L 605,40 L 603,42 L 603,43 L 602,44 L 603,45 L 603,48 L 606,51 L 606,57 L 607,57 L 608,56 L 609,56 L 611,54 L 612,54 L 613,53 L 616,53 L 615,52 L 615,50 L 614,49 L 614,48 L 615,47 L 615,46 L 618,43 L 620,43 L 620,42 L 621,41 L 621,40 L 622,39 L 622,38 L 625,35 L 625,34 L 624,33 L 624,32 Z" fill="none" stroke="black" stroke-width="1"/>
</svg>