<svg xmlns="http://www.w3.org/2000/svg" width="762" height="285">
  <path d="M 365,72 L 363,74 L 362,74 L 361,75 L 361,76 L 363,78 L 363,79 L 362,80 L 362,81 L 363,80 L 365,82 L 365,83 L 368,83 L 369,84 L 369,85 L 370,85 L 372,87 L 372,89 L 375,89 L 376,90 L 379,90 L 381,92 L 382,92 L 384,94 L 386,94 L 392,100 L 394,100 L 394,99 L 395,98 L 396,98 L 397,99 L 398,99 L 399,98 L 399,97 L 400,96 L 400,95 L 402,93 L 402,90 L 403,89 L 402,88 L 402,87 L 401,86 L 402,85 L 402,84 L 404,82 L 404,80 L 402,78 L 400,78 L 400,79 L 399,80 L 398,79 L 397,79 L 396,78 L 394,78 L 393,77 L 391,77 L 389,75 L 388,75 L 387,74 L 386,74 L 385,73 L 382,73 L 379,76 L 376,76 L 374,74 L 373,74 L 371,72 Z" fill="none" stroke="black" stroke-width="1"/>
</svg>