<svg xmlns="http://www.w3.org/2000/svg" width="762" height="285">
  <path d="M 331,116 L 331,117 L 328,120 L 325,120 L 324,121 L 323,121 L 319,125 L 318,125 L 314,129 L 314,131 L 315,132 L 316,132 L 317,133 L 318,133 L 319,132 L 323,132 L 324,131 L 325,132 L 329,132 L 330,131 L 331,131 L 332,130 L 334,130 L 335,129 L 336,129 L 339,126 L 339,125 L 340,124 L 342,124 L 343,123 L 343,119 L 342,118 L 342,117 L 341,117 L 340,118 L 339,117 L 338,117 L 337,116 Z" fill="none" stroke="black" stroke-width="1"/>
</svg>