<svg xmlns="http://www.w3.org/2000/svg" width="762" height="285">
  <path d="M 387,112 L 386,113 L 383,113 L 381,115 L 381,116 L 378,119 L 377,119 L 375,121 L 374,121 L 373,122 L 372,122 L 372,124 L 368,128 L 368,133 L 367,134 L 363,134 L 363,136 L 361,138 L 361,144 L 364,147 L 368,147 L 369,148 L 371,148 L 372,149 L 383,149 L 384,148 L 385,148 L 386,147 L 387,147 L 387,146 L 388,145 L 389,145 L 389,144 L 390,143 L 391,143 L 392,142 L 392,140 L 393,139 L 393,138 L 392,138 L 391,137 L 391,136 L 392,135 L 392,133 L 393,132 L 394,132 L 395,131 L 396,131 L 398,129 L 399,129 L 399,127 L 397,125 L 397,123 L 396,122 L 398,120 L 399,120 L 400,119 L 399,119 L 397,117 L 396,117 L 395,116 L 394,116 L 390,112 Z" fill="none" stroke="black" stroke-width="1"/>
</svg>