<svg xmlns="http://www.w3.org/2000/svg" width="762" height="285">
  <path d="M 278,182 L 275,185 L 275,186 L 273,188 L 272,188 L 271,189 L 270,189 L 269,190 L 267,190 L 266,191 L 265,191 L 264,192 L 261,192 L 260,193 L 257,193 L 256,194 L 250,194 L 250,195 L 249,196 L 249,197 L 246,200 L 246,202 L 245,203 L 245,204 L 250,204 L 251,203 L 260,203 L 261,202 L 263,202 L 264,201 L 266,201 L 267,200 L 269,200 L 270,199 L 274,199 L 275,198 L 277,198 L 278,197 L 281,197 L 282,196 L 283,196 L 285,194 L 286,194 L 291,189 L 291,188 L 283,188 L 282,187 L 282,186 L 280,186 L 279,185 L 279,184 L 278,183 Z" fill="none" stroke="black" stroke-width="1"/>
</svg>