<svg xmlns="http://www.w3.org/2000/svg" width="762" height="285">
  <path d="M 325,138 L 325,139 L 326,140 L 326,141 L 325,142 L 324,142 L 323,143 L 321,143 L 320,144 L 317,144 L 317,145 L 316,146 L 316,147 L 315,148 L 315,154 L 314,155 L 314,156 L 312,158 L 312,159 L 311,160 L 310,160 L 310,163 L 309,164 L 309,168 L 308,169 L 308,170 L 307,171 L 308,172 L 308,177 L 307,178 L 307,179 L 306,180 L 306,185 L 310,185 L 311,184 L 312,184 L 312,182 L 313,181 L 317,181 L 317,180 L 318,179 L 321,179 L 321,176 L 322,175 L 323,175 L 323,174 L 324,173 L 324,172 L 325,171 L 325,170 L 326,169 L 326,168 L 332,162 L 332,161 L 333,160 L 335,160 L 337,158 L 337,152 L 336,152 L 335,151 L 335,150 L 329,150 L 328,149 L 328,148 L 330,146 L 331,146 L 331,144 L 330,143 L 330,142 L 331,141 L 331,140 L 330,139 L 328,139 L 327,138 Z" fill="none" stroke="black" stroke-width="1"/>
</svg>