<svg xmlns="http://www.w3.org/2000/svg" width="762" height="285">
  <path d="M 428,98 L 427,99 L 426,99 L 425,100 L 423,100 L 423,101 L 421,103 L 420,103 L 419,104 L 417,104 L 415,102 L 414,102 L 414,103 L 413,104 L 410,104 L 409,105 L 406,105 L 405,106 L 404,106 L 401,103 L 401,102 L 400,101 L 399,101 L 398,100 L 397,100 L 396,99 L 395,99 L 395,100 L 394,101 L 393,101 L 393,102 L 391,104 L 389,104 L 389,107 L 393,107 L 394,108 L 394,110 L 393,111 L 392,111 L 391,112 L 394,115 L 395,115 L 396,116 L 397,116 L 399,118 L 400,118 L 401,119 L 402,118 L 403,118 L 404,117 L 405,117 L 406,116 L 407,116 L 408,117 L 409,117 L 410,118 L 412,118 L 413,117 L 415,117 L 416,116 L 417,116 L 418,115 L 422,115 L 423,116 L 423,117 L 428,117 L 429,116 L 429,115 L 430,114 L 430,113 L 432,111 L 435,111 L 436,112 L 438,112 L 439,111 L 441,111 L 442,110 L 443,110 L 443,108 L 441,108 L 440,107 L 440,106 L 438,104 L 438,103 L 437,102 L 437,100 L 434,100 L 433,99 L 429,99 Z" fill="none" stroke="black" stroke-width="1"/>
</svg>