<svg xmlns="http://www.w3.org/2000/svg" width="762" height="285">
  <path d="M 510,77 L 509,78 L 507,78 L 506,79 L 504,79 L 503,80 L 502,80 L 501,81 L 500,81 L 499,82 L 498,82 L 497,83 L 495,83 L 494,84 L 492,84 L 491,85 L 490,85 L 489,86 L 488,86 L 488,87 L 487,88 L 484,88 L 483,89 L 482,89 L 480,91 L 479,91 L 476,94 L 476,96 L 477,97 L 478,97 L 479,98 L 481,98 L 488,105 L 489,105 L 493,109 L 494,109 L 495,110 L 497,110 L 498,111 L 499,110 L 500,110 L 503,107 L 503,106 L 511,98 L 512,98 L 513,97 L 521,97 L 522,98 L 523,98 L 525,96 L 525,95 L 526,94 L 526,93 L 527,92 L 527,89 L 528,88 L 528,86 L 529,85 L 528,84 L 528,82 L 525,79 L 525,78 L 524,78 L 523,77 Z" fill="none" stroke="black" stroke-width="1"/>
</svg>