<svg xmlns="http://www.w3.org/2000/svg" width="171" height="149">
  <path d="M 89,14 L 89,15 L 92,15 L 92,14 Z" fill="none" stroke="black" stroke-width="1"/>
  <path d="M 129,0 L 129,1 L 128,2 L 127,2 L 126,1 L 126,3 L 125,4 L 122,4 L 121,3 L 120,3 L 119,4 L 117,4 L 116,3 L 115,3 L 115,4 L 114,5 L 108,5 L 105,8 L 104,7 L 103,7 L 103,8 L 102,9 L 99,9 L 98,10 L 94,10 L 94,11 L 95,12 L 95,13 L 94,14 L 94,15 L 95,15 L 95,14 L 96,13 L 97,14 L 97,16 L 96,17 L 94,17 L 94,19 L 95,19 L 97,21 L 96,22 L 95,22 L 95,25 L 96,25 L 97,26 L 97,27 L 98,28 L 98,29 L 99,30 L 101,28 L 101,27 L 103,25 L 104,26 L 108,26 L 109,25 L 110,25 L 111,24 L 115,24 L 116,25 L 119,25 L 120,24 L 123,24 L 125,22 L 130,22 L 132,20 L 133,20 L 134,19 L 135,19 L 135,18 L 136,17 L 135,16 L 136,15 L 136,12 L 138,10 L 137,9 L 137,6 L 139,4 L 139,2 L 135,2 L 134,1 L 133,1 L 132,2 L 131,1 L 130,1 Z" fill="none" stroke="black" stroke-width="1"/>
</svg>