<svg xmlns="http://www.w3.org/2000/svg" width="762" height="285">
  <path d="M 544,64 L 542,66 L 542,67 L 538,71 L 537,71 L 533,75 L 532,75 L 531,76 L 529,76 L 528,77 L 527,77 L 526,78 L 526,79 L 529,82 L 529,84 L 530,85 L 529,86 L 529,88 L 528,89 L 528,91 L 529,91 L 530,90 L 535,90 L 536,91 L 538,91 L 539,92 L 543,92 L 544,91 L 545,91 L 548,88 L 549,88 L 551,86 L 552,86 L 553,85 L 554,85 L 555,84 L 563,84 L 563,83 L 566,80 L 567,80 L 567,79 L 571,75 L 571,74 L 572,73 L 572,72 L 571,71 L 571,70 L 562,70 L 561,69 L 550,69 L 549,68 L 548,68 L 547,67 L 546,67 L 545,66 L 545,65 Z" fill="none" stroke="black" stroke-width="1"/>
</svg>