<svg xmlns="http://www.w3.org/2000/svg" width="762" height="285">
  <path d="M 584,69 L 583,70 L 581,70 L 579,72 L 576,72 L 575,71 L 573,71 L 572,70 L 572,71 L 573,72 L 573,73 L 572,74 L 572,75 L 568,79 L 568,80 L 567,81 L 566,81 L 564,83 L 564,88 L 563,89 L 562,89 L 562,92 L 563,93 L 563,94 L 564,95 L 564,96 L 565,96 L 567,98 L 567,102 L 568,103 L 569,103 L 572,106 L 572,107 L 573,108 L 573,110 L 574,111 L 574,116 L 575,117 L 575,118 L 576,119 L 576,120 L 577,121 L 577,128 L 578,129 L 578,130 L 580,130 L 583,127 L 583,124 L 589,118 L 590,118 L 592,116 L 593,116 L 597,112 L 598,112 L 598,111 L 597,110 L 597,108 L 596,107 L 596,102 L 594,100 L 594,99 L 592,97 L 592,96 L 591,95 L 591,94 L 592,93 L 592,90 L 591,89 L 591,88 L 590,87 L 590,86 L 591,85 L 591,83 L 592,82 L 592,81 L 593,80 L 594,80 L 594,79 L 590,75 L 590,74 L 589,73 L 589,72 L 588,71 L 588,70 L 587,69 Z" fill="none" stroke="black" stroke-width="1"/>
</svg>