<svg xmlns="http://www.w3.org/2000/svg" width="762" height="285">
  <path d="M 611,93 L 610,94 L 609,94 L 609,95 L 608,96 L 608,97 L 607,98 L 607,99 L 606,100 L 605,100 L 602,103 L 601,103 L 600,102 L 597,102 L 597,107 L 598,108 L 598,110 L 599,111 L 599,112 L 600,113 L 601,113 L 603,115 L 606,115 L 607,116 L 609,116 L 610,117 L 612,117 L 613,118 L 614,118 L 615,117 L 618,117 L 619,116 L 620,116 L 621,115 L 622,115 L 630,107 L 630,105 L 632,103 L 631,102 L 626,102 L 625,101 L 625,96 L 624,95 L 623,95 L 621,97 L 619,97 L 618,96 L 618,95 L 619,94 L 617,94 L 616,95 L 615,94 L 614,94 L 613,93 Z" fill="none" stroke="black" stroke-width="1"/>
</svg>