<svg xmlns="http://www.w3.org/2000/svg" width="762" height="285">
  <path d="M 703,137 L 703,139 L 702,140 L 701,140 L 700,141 L 699,141 L 698,142 L 697,142 L 696,143 L 698,143 L 700,145 L 700,148 L 701,149 L 701,151 L 702,152 L 702,153 L 707,158 L 708,158 L 709,157 L 710,157 L 711,156 L 718,156 L 719,155 L 723,155 L 724,156 L 725,156 L 728,159 L 732,159 L 733,160 L 735,160 L 736,159 L 740,159 L 741,160 L 746,160 L 749,163 L 749,164 L 752,167 L 753,167 L 754,168 L 759,168 L 760,169 L 761,169 L 761,168 L 760,167 L 760,165 L 759,164 L 759,162 L 758,161 L 758,160 L 757,160 L 756,159 L 756,154 L 755,153 L 754,154 L 747,154 L 745,152 L 744,152 L 742,150 L 741,150 L 739,148 L 738,148 L 735,145 L 734,145 L 733,144 L 732,144 L 731,143 L 730,143 L 729,142 L 728,142 L 727,141 L 724,141 L 723,140 L 721,140 L 720,139 L 718,139 L 717,138 L 714,138 L 713,137 Z" fill="none" stroke="black" stroke-width="1"/>
</svg>