<svg xmlns="http://www.w3.org/2000/svg" width="259" height="221">
  <path d="M 36,0 L 36,1 L 37,2 L 37,8 L 36,9 L 36,12 L 35,13 L 35,15 L 34,16 L 34,23 L 37,23 L 39,21 L 40,21 L 41,20 L 43,20 L 44,21 L 48,21 L 49,20 L 50,20 L 51,21 L 52,21 L 53,22 L 53,23 L 53,22 L 54,21 L 55,22 L 55,26 L 56,27 L 57,27 L 59,25 L 65,25 L 66,26 L 66,27 L 67,27 L 68,26 L 68,25 L 69,24 L 69,23 L 70,22 L 70,19 L 71,18 L 71,16 L 69,14 L 63,14 L 62,13 L 59,13 L 56,10 L 56,8 L 57,7 L 56,6 L 56,5 L 53,5 L 52,4 L 51,4 L 50,3 L 47,3 L 46,2 L 45,2 L 44,1 L 41,1 L 40,0 Z" fill="none" stroke="black" stroke-width="1"/>
</svg>