<svg xmlns="http://www.w3.org/2000/svg" width="259" height="221">
  <path d="M 136,33 L 136,34 L 137,35 L 137,36 L 135,38 L 135,39 L 134,40 L 134,42 L 135,43 L 135,44 L 136,44 L 137,45 L 138,45 L 139,44 L 140,44 L 141,43 L 142,44 L 147,44 L 149,46 L 151,46 L 152,47 L 156,47 L 157,46 L 160,46 L 160,44 L 164,40 L 164,39 L 163,38 L 164,37 L 163,36 L 164,35 L 161,35 L 160,34 L 160,33 L 159,33 L 157,35 L 156,35 L 155,36 L 154,36 L 153,37 L 148,37 L 147,36 L 146,36 L 145,35 L 144,35 L 143,34 L 142,34 L 141,33 Z" fill="none" stroke="black" stroke-width="1"/>
</svg>