<svg xmlns="http://www.w3.org/2000/svg" width="259" height="221">
  <path d="M 167,57 L 167,58 L 166,59 L 165,59 L 164,60 L 164,61 L 163,62 L 164,63 L 164,64 L 163,65 L 163,67 L 162,68 L 161,68 L 160,69 L 159,69 L 159,71 L 160,72 L 163,72 L 165,74 L 165,76 L 169,76 L 170,75 L 172,75 L 173,76 L 174,76 L 175,77 L 175,78 L 176,78 L 177,79 L 177,78 L 179,76 L 179,73 L 180,72 L 181,72 L 181,70 L 182,69 L 182,68 L 181,67 L 181,66 L 182,65 L 182,62 L 177,62 L 175,60 L 173,60 L 170,57 Z" fill="none" stroke="black" stroke-width="1"/>
</svg>