<svg xmlns="http://www.w3.org/2000/svg" width="171" height="149">
  <path d="M 125,23 L 123,25 L 120,25 L 119,26 L 116,26 L 115,25 L 111,25 L 110,26 L 109,26 L 108,27 L 104,27 L 103,26 L 102,27 L 102,28 L 101,29 L 101,30 L 102,30 L 104,32 L 105,32 L 106,31 L 106,30 L 108,28 L 109,28 L 111,30 L 111,31 L 110,32 L 110,36 L 109,37 L 109,38 L 108,39 L 108,41 L 107,42 L 107,43 L 108,44 L 108,48 L 109,49 L 109,54 L 113,54 L 114,55 L 115,55 L 116,54 L 118,54 L 119,53 L 129,53 L 130,54 L 132,54 L 133,53 L 134,54 L 138,54 L 140,52 L 140,51 L 141,50 L 141,49 L 140,49 L 138,47 L 138,46 L 140,44 L 140,43 L 139,43 L 137,41 L 137,39 L 136,38 L 136,34 L 135,34 L 134,33 L 134,31 L 137,28 L 135,28 L 134,27 L 133,27 L 130,24 L 130,23 Z" fill="none" stroke="black" stroke-width="1"/>
</svg>