<svg xmlns="http://www.w3.org/2000/svg" width="248" height="151">
  <path d="M 30,106 L 30,107 L 28,109 L 28,110 L 23,115 L 22,115 L 21,116 L 19,116 L 18,117 L 10,117 L 9,118 L 8,118 L 7,117 L 7,116 L 6,116 L 5,117 L 4,117 L 3,118 L 2,118 L 1,119 L 1,120 L 2,121 L 2,124 L 1,125 L 0,125 L 0,126 L 1,126 L 3,128 L 4,128 L 5,129 L 5,130 L 6,131 L 12,131 L 13,130 L 17,130 L 20,127 L 23,127 L 24,126 L 24,125 L 26,123 L 27,123 L 28,122 L 29,122 L 30,121 L 30,120 L 32,118 L 32,117 L 33,116 L 33,115 L 34,114 L 34,113 L 35,112 L 35,111 L 32,108 L 32,107 L 31,106 Z" fill="none" stroke="black" stroke-width="1"/>
</svg>