<svg xmlns="http://www.w3.org/2000/svg" width="259" height="221">
  <path d="M 230,42 L 229,43 L 226,43 L 223,46 L 219,46 L 218,47 L 216,47 L 216,51 L 217,52 L 217,55 L 218,56 L 218,57 L 219,58 L 219,59 L 220,60 L 220,70 L 219,71 L 219,73 L 216,76 L 215,76 L 215,77 L 218,80 L 219,80 L 221,82 L 221,83 L 223,85 L 223,86 L 224,86 L 227,89 L 229,89 L 230,90 L 230,89 L 233,86 L 233,78 L 234,77 L 234,76 L 235,75 L 235,74 L 236,73 L 236,69 L 237,68 L 237,65 L 238,64 L 238,59 L 237,58 L 237,55 L 236,54 L 236,50 L 235,49 L 235,46 L 234,45 L 234,44 L 233,43 L 232,43 L 231,42 Z" fill="none" stroke="black" stroke-width="1"/>
</svg>