<svg xmlns="http://www.w3.org/2000/svg" width="191" height="202">
  <path d="M 115,11 L 117,13 L 118,12 L 118,11 Z" fill="none" stroke="black" stroke-width="1"/>
  <path d="M 108,9 L 109,10 L 109,11 L 111,11 L 112,12 L 113,11 L 112,10 L 111,10 L 110,9 Z" fill="none" stroke="black" stroke-width="1"/>
  <path d="M 111,4 L 111,7 L 112,8 L 117,8 L 118,9 L 119,9 L 114,4 Z" fill="none" stroke="black" stroke-width="1"/>
  <path d="M 123,0 L 121,2 L 121,3 L 122,3 L 123,2 L 124,2 L 125,1 L 126,1 L 126,0 Z" fill="none" stroke="black" stroke-width="1"/>
</svg>