<svg xmlns="http://www.w3.org/2000/svg" width="1028" height="413">
  <path d="M 32,89 L 32,90 L 31,91 L 30,90 L 29,91 L 24,91 L 24,92 L 25,92 L 26,93 L 27,93 L 28,94 L 30,94 L 31,95 L 31,96 L 33,98 L 33,101 L 32,102 L 28,102 L 27,101 L 29,99 L 30,99 L 29,98 L 29,97 L 28,96 L 27,96 L 26,97 L 24,97 L 23,96 L 23,95 L 22,94 L 21,94 L 20,93 L 16,93 L 17,93 L 18,94 L 18,96 L 16,98 L 14,96 L 10,96 L 13,99 L 16,99 L 17,100 L 16,101 L 12,101 L 10,99 L 9,100 L 11,102 L 12,102 L 13,103 L 14,103 L 16,105 L 16,106 L 15,107 L 13,105 L 11,105 L 10,104 L 9,104 L 8,103 L 7,103 L 6,102 L 5,103 L 7,105 L 9,105 L 10,106 L 9,107 L 10,107 L 11,108 L 11,109 L 10,110 L 9,110 L 8,109 L 7,109 L 6,108 L 5,108 L 4,107 L 2,107 L 0,109 L 0,110 L 1,110 L 2,109 L 4,109 L 5,110 L 6,110 L 7,111 L 8,111 L 9,112 L 10,111 L 12,111 L 13,110 L 19,110 L 19,109 L 20,108 L 23,108 L 24,107 L 26,109 L 28,109 L 29,108 L 30,109 L 34,109 L 36,107 L 37,108 L 37,110 L 38,109 L 39,109 L 41,111 L 39,113 L 38,113 L 36,115 L 34,115 L 32,117 L 31,117 L 30,118 L 31,119 L 36,119 L 37,120 L 38,119 L 40,119 L 42,117 L 43,118 L 43,119 L 42,120 L 42,121 L 41,122 L 30,122 L 29,123 L 19,123 L 18,124 L 16,124 L 15,125 L 14,125 L 13,126 L 11,126 L 10,125 L 8,125 L 7,126 L 7,127 L 9,129 L 12,129 L 14,127 L 32,127 L 34,129 L 34,130 L 33,131 L 33,134 L 34,135 L 35,135 L 36,136 L 39,133 L 40,133 L 41,132 L 42,132 L 43,133 L 41,135 L 41,136 L 37,140 L 39,140 L 40,139 L 41,139 L 42,140 L 41,141 L 41,142 L 42,142 L 43,143 L 42,144 L 39,144 L 40,145 L 40,146 L 39,147 L 37,147 L 36,148 L 33,148 L 32,149 L 30,149 L 29,148 L 29,147 L 28,146 L 28,147 L 27,148 L 27,150 L 28,151 L 28,152 L 31,152 L 32,151 L 35,151 L 36,152 L 38,152 L 39,151 L 42,151 L 43,152 L 45,152 L 46,151 L 48,151 L 52,147 L 53,148 L 53,152 L 59,152 L 60,153 L 59,154 L 60,154 L 61,153 L 62,154 L 62,156 L 63,156 L 65,158 L 66,158 L 67,159 L 74,159 L 75,160 L 77,160 L 78,161 L 80,161 L 81,162 L 87,162 L 88,161 L 88,151 L 87,150 L 87,149 L 85,147 L 84,147 L 83,146 L 82,146 L 79,143 L 79,142 L 80,141 L 80,140 L 83,137 L 84,137 L 85,136 L 89,136 L 91,134 L 91,124 L 90,123 L 90,122 L 88,120 L 86,120 L 78,112 L 78,111 L 77,110 L 77,109 L 76,108 L 76,104 L 74,102 L 74,101 L 73,100 L 72,100 L 70,98 L 70,97 L 68,95 L 68,94 L 66,94 L 65,95 L 64,95 L 64,99 L 65,100 L 65,102 L 66,103 L 66,104 L 65,105 L 65,106 L 64,107 L 64,109 L 63,110 L 61,110 L 59,108 L 59,105 L 58,106 L 57,106 L 55,108 L 55,111 L 54,112 L 53,111 L 53,117 L 52,118 L 51,117 L 51,113 L 50,112 L 50,111 L 49,110 L 49,108 L 48,107 L 47,107 L 46,106 L 44,106 L 41,103 L 42,102 L 43,102 L 45,104 L 48,104 L 48,103 L 49,102 L 49,99 L 47,97 L 47,96 L 45,96 L 44,97 L 43,96 L 43,94 L 40,91 L 39,91 L 38,90 L 35,90 L 34,89 Z" fill="none" stroke="black" stroke-width="1"/>
</svg>