<svg xmlns="http://www.w3.org/2000/svg" width="1028" height="413">
  <path d="M 124,84 L 124,86 L 125,87 L 125,88 L 126,89 L 126,90 L 124,92 L 123,92 L 122,93 L 123,94 L 122,95 L 121,95 L 120,94 L 118,94 L 116,92 L 113,92 L 112,93 L 112,94 L 111,95 L 111,96 L 109,98 L 107,98 L 106,97 L 106,96 L 105,96 L 102,93 L 96,93 L 96,94 L 97,95 L 97,97 L 98,98 L 98,99 L 99,99 L 100,100 L 100,103 L 101,104 L 101,105 L 100,106 L 98,104 L 98,103 L 97,102 L 97,101 L 96,100 L 96,99 L 95,99 L 94,98 L 93,98 L 92,97 L 92,95 L 89,92 L 86,92 L 83,95 L 79,95 L 79,96 L 78,97 L 78,98 L 79,99 L 79,103 L 78,104 L 77,104 L 77,108 L 78,109 L 78,110 L 79,111 L 79,112 L 86,119 L 88,119 L 91,122 L 91,123 L 92,124 L 92,134 L 89,137 L 85,137 L 84,138 L 83,138 L 81,140 L 81,141 L 80,142 L 80,143 L 82,145 L 83,145 L 84,146 L 85,146 L 88,149 L 88,150 L 89,151 L 89,161 L 88,162 L 88,163 L 90,163 L 91,162 L 95,162 L 96,161 L 99,161 L 100,160 L 101,160 L 102,159 L 102,158 L 101,157 L 101,156 L 103,154 L 104,154 L 105,155 L 106,155 L 107,154 L 109,154 L 110,153 L 111,153 L 112,152 L 113,152 L 114,153 L 115,153 L 116,152 L 116,151 L 117,150 L 118,150 L 119,151 L 123,151 L 124,150 L 125,150 L 125,149 L 127,147 L 129,147 L 132,144 L 133,144 L 134,143 L 136,143 L 137,142 L 139,142 L 140,141 L 141,141 L 141,139 L 142,138 L 144,140 L 147,140 L 148,141 L 152,137 L 155,137 L 155,135 L 154,134 L 156,132 L 156,131 L 155,130 L 155,128 L 156,127 L 159,130 L 162,130 L 163,129 L 163,128 L 164,127 L 165,127 L 162,127 L 161,126 L 163,124 L 164,124 L 164,123 L 163,122 L 163,121 L 162,120 L 162,118 L 163,117 L 164,118 L 164,119 L 166,121 L 166,122 L 167,122 L 168,123 L 169,122 L 170,122 L 170,120 L 169,120 L 168,119 L 168,118 L 169,117 L 169,116 L 167,114 L 168,113 L 168,111 L 169,110 L 167,108 L 163,108 L 162,107 L 158,107 L 155,110 L 154,109 L 154,107 L 156,105 L 156,104 L 157,103 L 154,103 L 153,104 L 150,104 L 149,103 L 152,100 L 153,100 L 153,96 L 147,96 L 145,94 L 146,93 L 147,93 L 148,92 L 147,92 L 145,90 L 144,91 L 143,91 L 143,92 L 142,93 L 140,93 L 139,92 L 138,92 L 136,90 L 136,89 L 137,88 L 134,88 L 133,87 L 132,87 L 130,85 L 129,85 L 128,84 Z" fill="none" stroke="black" stroke-width="1"/>
</svg>