<svg xmlns="http://www.w3.org/2000/svg" width="191" height="202">
  <path d="M 55,93 L 54,94 L 54,95 L 53,96 L 49,96 L 49,97 L 48,98 L 48,100 L 46,102 L 44,102 L 43,103 L 42,103 L 41,102 L 40,103 L 40,104 L 41,104 L 42,105 L 41,106 L 40,106 L 39,107 L 39,109 L 40,110 L 41,110 L 42,111 L 43,111 L 44,110 L 45,110 L 47,112 L 47,114 L 46,115 L 46,116 L 47,117 L 47,118 L 48,119 L 48,120 L 50,120 L 51,121 L 51,122 L 54,122 L 54,121 L 52,119 L 52,118 L 53,117 L 53,116 L 55,114 L 60,114 L 61,113 L 61,111 L 60,110 L 60,107 L 59,106 L 60,105 L 60,103 L 61,102 L 61,99 L 60,98 L 60,96 L 58,94 L 58,93 Z" fill="none" stroke="black" stroke-width="1"/>
</svg>