<svg xmlns="http://www.w3.org/2000/svg" width="191" height="202">
  <path d="M 67,112 L 66,113 L 62,113 L 60,115 L 55,115 L 54,116 L 54,117 L 53,118 L 53,119 L 55,121 L 55,123 L 54,124 L 54,126 L 55,127 L 55,128 L 56,128 L 57,127 L 58,127 L 60,129 L 60,131 L 61,132 L 61,135 L 59,137 L 59,139 L 60,139 L 61,140 L 62,140 L 65,137 L 67,137 L 68,136 L 68,135 L 65,132 L 66,131 L 66,130 L 67,129 L 67,127 L 65,125 L 65,122 L 63,120 L 63,118 L 64,117 L 65,118 L 66,118 L 66,117 L 67,116 L 68,117 L 69,117 L 70,116 L 70,113 L 69,112 Z" fill="none" stroke="black" stroke-width="1"/>
</svg>