<svg xmlns="http://www.w3.org/2000/svg" width="191" height="202">
  <path d="M 68,137 L 67,138 L 65,138 L 62,141 L 61,141 L 60,140 L 59,140 L 58,139 L 57,139 L 57,140 L 56,141 L 56,142 L 55,143 L 55,144 L 54,145 L 54,148 L 55,149 L 55,150 L 54,151 L 54,152 L 55,153 L 54,154 L 50,154 L 50,155 L 51,155 L 52,156 L 52,157 L 53,157 L 53,155 L 54,154 L 55,155 L 55,156 L 56,156 L 57,155 L 62,155 L 63,156 L 63,155 L 61,153 L 62,152 L 63,152 L 65,150 L 65,147 L 66,146 L 66,143 L 69,140 L 69,139 L 68,138 Z" fill="none" stroke="black" stroke-width="1"/>
</svg>