<svg xmlns="http://www.w3.org/2000/svg" width="191" height="202">
  <path d="M 32,130 L 32,131 L 31,132 L 30,132 L 29,131 L 26,131 L 25,132 L 24,132 L 24,135 L 23,136 L 22,136 L 21,137 L 18,137 L 16,139 L 16,140 L 17,141 L 16,142 L 16,143 L 13,146 L 12,146 L 10,148 L 9,148 L 11,148 L 12,147 L 19,147 L 20,146 L 21,146 L 22,145 L 24,145 L 25,146 L 25,147 L 27,147 L 28,146 L 31,146 L 31,144 L 32,143 L 32,142 L 33,141 L 34,141 L 34,139 L 35,138 L 37,138 L 37,133 L 36,133 L 33,130 Z" fill="none" stroke="black" stroke-width="1"/>
</svg>