<svg xmlns="http://www.w3.org/2000/svg" width="191" height="202">
  <path d="M 4,118 L 4,119 L 5,119 L 6,120 L 7,120 L 7,118 Z" fill="none" stroke="black" stroke-width="1"/>
  <path d="M 10,111 L 10,113 L 9,114 L 8,113 L 8,112 L 6,112 L 5,113 L 5,115 L 6,114 L 6,113 L 7,112 L 8,113 L 8,116 L 10,118 L 9,119 L 9,120 L 13,120 L 14,121 L 12,123 L 9,123 L 9,126 L 8,127 L 5,127 L 4,128 L 4,129 L 5,130 L 6,130 L 7,131 L 8,131 L 9,130 L 10,130 L 11,131 L 10,132 L 10,133 L 12,131 L 13,131 L 14,132 L 13,133 L 13,134 L 21,134 L 22,133 L 23,133 L 23,132 L 24,131 L 25,131 L 26,130 L 29,130 L 29,128 L 28,128 L 27,127 L 27,124 L 26,123 L 26,121 L 27,120 L 24,120 L 21,117 L 20,117 L 19,116 L 19,112 L 18,112 L 17,111 Z" fill="none" stroke="black" stroke-width="1"/>
</svg>