<svg xmlns="http://www.w3.org/2000/svg" width="248" height="151">
  <path d="M 65,16 L 65,18 L 64,19 L 64,21 L 61,24 L 60,24 L 59,25 L 59,30 L 60,31 L 60,37 L 61,37 L 62,38 L 65,38 L 66,37 L 67,37 L 67,36 L 70,33 L 71,33 L 72,32 L 73,32 L 74,33 L 78,33 L 79,32 L 82,32 L 83,31 L 84,31 L 85,30 L 85,29 L 84,28 L 84,27 L 85,26 L 85,25 L 86,24 L 86,19 L 85,19 L 84,18 L 84,16 L 83,16 L 82,17 L 78,17 L 77,18 L 75,18 L 74,19 L 68,19 L 67,18 L 67,17 L 66,16 Z" fill="none" stroke="black" stroke-width="1"/>
</svg>