<svg xmlns="http://www.w3.org/2000/svg" width="248" height="151">
  <path d="M 49,36 L 48,37 L 48,39 L 50,39 L 51,40 L 51,45 L 50,46 L 50,51 L 51,52 L 51,54 L 52,55 L 52,56 L 50,58 L 49,58 L 47,60 L 47,61 L 46,62 L 46,63 L 47,64 L 46,65 L 49,65 L 50,66 L 50,67 L 51,68 L 53,68 L 56,65 L 58,65 L 59,64 L 59,63 L 60,62 L 59,61 L 59,60 L 58,59 L 58,54 L 57,53 L 57,52 L 60,49 L 61,49 L 62,48 L 62,46 L 61,45 L 60,45 L 58,43 L 58,40 L 57,40 L 56,41 L 55,41 L 54,40 L 54,36 L 53,36 L 52,37 L 50,37 Z" fill="none" stroke="black" stroke-width="1"/>
</svg>