<svg xmlns="http://www.w3.org/2000/svg" width="248" height="151">
  <path d="M 40,106 L 40,107 L 36,111 L 36,112 L 35,113 L 35,114 L 34,115 L 34,116 L 33,117 L 33,118 L 31,120 L 31,121 L 29,123 L 28,123 L 27,124 L 26,124 L 25,125 L 25,126 L 26,127 L 27,127 L 29,129 L 30,129 L 31,128 L 33,128 L 34,127 L 36,127 L 37,126 L 40,126 L 41,125 L 40,124 L 40,122 L 41,121 L 42,121 L 42,120 L 41,119 L 41,117 L 42,116 L 42,115 L 41,114 L 41,112 L 42,111 L 42,108 L 43,107 L 43,106 Z" fill="none" stroke="black" stroke-width="1"/>
</svg>