<svg xmlns="http://www.w3.org/2000/svg" width="248" height="151">
  <path d="M 54,104 L 53,105 L 52,105 L 49,108 L 47,108 L 46,109 L 46,113 L 45,114 L 45,115 L 44,116 L 44,117 L 45,118 L 45,120 L 44,121 L 43,121 L 42,122 L 41,122 L 41,124 L 44,127 L 44,128 L 46,128 L 48,126 L 52,126 L 52,125 L 53,124 L 54,124 L 54,121 L 56,119 L 56,117 L 57,116 L 58,116 L 59,115 L 60,115 L 61,114 L 68,114 L 68,112 L 65,109 L 64,109 L 62,107 L 60,107 L 59,106 L 57,106 L 55,104 Z" fill="none" stroke="black" stroke-width="1"/>
</svg>