<svg xmlns="http://www.w3.org/2000/svg" width="171" height="149">
  <path d="M 78,44 L 77,45 L 76,45 L 75,46 L 73,46 L 72,47 L 69,47 L 68,48 L 67,48 L 66,49 L 66,50 L 62,54 L 62,61 L 61,62 L 60,62 L 58,64 L 57,64 L 57,68 L 56,69 L 57,70 L 57,72 L 56,73 L 56,74 L 55,75 L 55,78 L 57,80 L 58,80 L 58,79 L 59,78 L 60,78 L 61,77 L 62,77 L 63,76 L 65,76 L 66,75 L 68,75 L 69,74 L 70,74 L 71,73 L 74,73 L 75,72 L 77,72 L 77,69 L 78,68 L 78,64 L 80,62 L 81,62 L 82,61 L 81,60 L 81,57 L 83,55 L 86,55 L 88,53 L 88,52 L 87,52 L 86,51 L 85,51 L 83,49 L 82,49 L 81,48 L 81,47 L 80,46 L 80,44 Z" fill="none" stroke="black" stroke-width="1"/>
</svg>