<svg xmlns="http://www.w3.org/2000/svg" width="248" height="151">
  <path d="M 56,66 L 53,69 L 52,69 L 51,70 L 51,73 L 52,74 L 51,75 L 50,75 L 50,76 L 49,77 L 49,78 L 47,80 L 47,85 L 46,86 L 46,89 L 49,89 L 51,91 L 53,91 L 55,89 L 56,89 L 56,87 L 57,86 L 57,84 L 58,83 L 58,82 L 60,80 L 61,80 L 62,81 L 63,80 L 64,80 L 67,77 L 68,77 L 69,76 L 69,74 L 70,73 L 70,72 L 71,71 L 75,71 L 75,70 L 74,69 L 73,69 L 71,67 L 70,67 L 69,66 L 67,66 L 65,68 L 61,68 L 59,66 Z" fill="none" stroke="black" stroke-width="1"/>
</svg>