<svg xmlns="http://www.w3.org/2000/svg" width="395" height="336">
  <path d="M 33,43 L 33,44 L 28,49 L 27,49 L 25,51 L 19,51 L 19,55 L 18,56 L 18,58 L 17,59 L 17,60 L 20,63 L 20,64 L 21,65 L 21,66 L 24,69 L 24,70 L 25,71 L 25,73 L 24,74 L 23,74 L 23,75 L 24,76 L 26,76 L 27,77 L 30,77 L 32,79 L 32,81 L 35,84 L 38,84 L 39,83 L 41,83 L 42,82 L 44,82 L 44,81 L 45,80 L 45,79 L 47,77 L 47,73 L 48,72 L 48,70 L 47,69 L 48,68 L 49,68 L 45,64 L 45,63 L 44,62 L 44,60 L 43,59 L 43,56 L 42,55 L 42,53 L 43,52 L 43,49 L 42,49 L 41,48 L 41,47 L 39,47 L 37,45 L 36,45 L 34,43 Z" fill="none" stroke="black" stroke-width="1"/>
</svg>