<svg xmlns="http://www.w3.org/2000/svg" width="395" height="336">
  <path d="M 83,94 L 83,95 L 82,96 L 81,96 L 80,95 L 77,95 L 76,96 L 69,96 L 67,98 L 67,99 L 61,105 L 59,105 L 58,106 L 57,106 L 56,107 L 56,108 L 54,110 L 54,112 L 55,113 L 55,117 L 54,118 L 54,119 L 55,120 L 57,120 L 58,121 L 59,121 L 60,122 L 63,122 L 63,121 L 64,120 L 66,120 L 67,121 L 67,124 L 68,125 L 68,126 L 69,127 L 69,128 L 70,129 L 70,130 L 72,132 L 73,132 L 74,133 L 74,134 L 80,140 L 81,140 L 83,142 L 84,142 L 85,141 L 87,141 L 87,140 L 89,138 L 90,138 L 91,137 L 92,137 L 93,136 L 93,135 L 95,133 L 95,132 L 96,131 L 96,130 L 95,130 L 94,129 L 94,125 L 95,124 L 94,123 L 94,122 L 93,123 L 92,123 L 90,121 L 90,119 L 89,118 L 89,117 L 86,117 L 85,116 L 85,115 L 84,114 L 84,109 L 83,108 L 84,107 L 84,106 L 85,105 L 85,104 L 86,103 L 86,97 L 87,96 L 88,96 L 87,96 L 85,94 Z" fill="none" stroke="black" stroke-width="1"/>
</svg>