<svg xmlns="http://www.w3.org/2000/svg" width="395" height="336">
  <path d="M 84,157 L 84,158 L 83,159 L 82,159 L 79,162 L 79,164 L 80,165 L 80,168 L 79,169 L 79,171 L 80,172 L 80,173 L 79,174 L 79,176 L 80,177 L 79,178 L 79,181 L 82,184 L 82,185 L 83,184 L 84,184 L 85,185 L 89,185 L 90,186 L 90,187 L 92,187 L 92,186 L 93,185 L 94,185 L 96,183 L 96,181 L 94,179 L 94,178 L 95,177 L 95,174 L 94,173 L 94,171 L 92,169 L 91,169 L 90,168 L 90,167 L 89,166 L 89,165 L 90,164 L 90,160 L 89,159 L 89,158 L 88,158 L 87,157 Z" fill="none" stroke="black" stroke-width="1"/>
</svg>