<svg xmlns="http://www.w3.org/2000/svg" width="395" height="336">
  <path d="M 132,201 L 130,203 L 129,203 L 128,204 L 127,204 L 126,205 L 125,205 L 124,206 L 124,207 L 122,209 L 122,210 L 120,212 L 120,215 L 119,216 L 119,217 L 120,218 L 120,219 L 121,220 L 121,224 L 120,225 L 120,226 L 122,228 L 122,231 L 123,231 L 124,232 L 124,233 L 126,233 L 129,236 L 130,236 L 132,238 L 131,239 L 132,240 L 133,240 L 136,237 L 137,237 L 136,236 L 137,235 L 138,235 L 139,234 L 141,234 L 147,228 L 148,228 L 152,224 L 151,223 L 151,219 L 150,219 L 149,218 L 149,211 L 144,211 L 143,212 L 142,212 L 139,209 L 138,209 L 136,207 L 136,203 L 134,201 Z" fill="none" stroke="black" stroke-width="1"/>
</svg>