<svg xmlns="http://www.w3.org/2000/svg" width="395" height="336">
  <path d="M 137,306 L 136,307 L 136,308 L 137,309 L 136,310 L 136,318 L 137,319 L 137,320 L 139,322 L 139,323 L 140,324 L 140,325 L 139,326 L 140,326 L 141,325 L 144,325 L 146,327 L 150,327 L 151,326 L 154,326 L 156,324 L 158,324 L 158,323 L 157,323 L 156,322 L 156,320 L 155,319 L 155,318 L 154,318 L 153,317 L 152,318 L 151,318 L 150,319 L 148,319 L 147,318 L 147,317 L 146,317 L 144,315 L 144,312 L 143,312 L 142,311 L 142,308 L 141,307 L 141,306 Z" fill="none" stroke="black" stroke-width="1"/>
</svg>