<svg xmlns="http://www.w3.org/2000/svg" width="395" height="336">
  <path d="M 189,299 L 188,300 L 186,300 L 183,303 L 179,303 L 178,302 L 176,302 L 175,301 L 174,301 L 172,303 L 171,303 L 170,304 L 168,304 L 167,305 L 167,306 L 166,307 L 162,307 L 161,308 L 159,308 L 156,311 L 156,313 L 157,314 L 157,316 L 156,317 L 156,319 L 157,320 L 157,322 L 158,322 L 159,323 L 159,324 L 160,325 L 162,325 L 161,324 L 162,323 L 163,323 L 164,324 L 164,322 L 166,320 L 169,320 L 170,319 L 170,318 L 173,315 L 176,315 L 177,314 L 190,314 L 191,313 L 192,313 L 193,312 L 194,312 L 195,311 L 198,311 L 199,310 L 198,309 L 198,306 L 197,305 L 197,304 L 194,301 L 193,301 L 191,299 Z" fill="none" stroke="black" stroke-width="1"/>
</svg>