<svg xmlns="http://www.w3.org/2000/svg" width="395" height="336">
  <path d="M 204,282 L 201,285 L 198,285 L 197,286 L 196,286 L 196,289 L 195,290 L 195,291 L 192,294 L 192,296 L 190,298 L 191,298 L 193,300 L 194,300 L 198,304 L 198,305 L 199,306 L 199,309 L 200,310 L 201,310 L 203,308 L 204,308 L 204,307 L 205,306 L 206,306 L 207,305 L 208,305 L 209,304 L 212,304 L 213,305 L 215,305 L 216,304 L 221,304 L 226,299 L 226,298 L 227,297 L 227,296 L 226,296 L 223,293 L 223,292 L 222,291 L 221,291 L 220,290 L 220,289 L 219,289 L 217,287 L 217,285 L 216,286 L 215,286 L 214,287 L 212,287 L 207,282 Z" fill="none" stroke="black" stroke-width="1"/>
</svg>