<svg xmlns="http://www.w3.org/2000/svg" width="395" height="336">
  <path d="M 146,266 L 143,269 L 142,269 L 141,270 L 141,271 L 143,273 L 143,277 L 141,279 L 141,280 L 138,283 L 139,284 L 139,286 L 140,286 L 141,287 L 141,289 L 140,290 L 140,291 L 143,294 L 144,294 L 145,293 L 147,293 L 150,290 L 152,290 L 153,289 L 154,289 L 155,288 L 155,286 L 158,283 L 157,283 L 156,282 L 156,280 L 155,279 L 155,278 L 156,277 L 156,275 L 157,274 L 157,273 L 155,271 L 154,271 L 152,269 L 152,268 L 150,266 Z" fill="none" stroke="black" stroke-width="1"/>
</svg>