<svg xmlns="http://www.w3.org/2000/svg" width="171" height="149">
  <path d="M 57,81 L 57,88 L 58,89 L 58,93 L 60,95 L 60,100 L 59,101 L 59,106 L 58,107 L 57,107 L 58,107 L 59,108 L 61,108 L 62,107 L 63,107 L 64,106 L 65,106 L 66,105 L 68,105 L 70,107 L 70,108 L 71,108 L 72,107 L 74,107 L 75,108 L 76,108 L 77,109 L 79,109 L 80,110 L 83,110 L 85,108 L 85,107 L 84,106 L 84,104 L 83,103 L 83,102 L 82,101 L 82,100 L 81,100 L 79,98 L 74,98 L 73,97 L 72,97 L 71,96 L 70,96 L 65,91 L 64,91 L 63,90 L 63,87 L 62,86 L 62,85 L 60,83 L 60,82 L 59,81 Z" fill="none" stroke="black" stroke-width="1"/>
</svg>