<svg xmlns="http://www.w3.org/2000/svg" width="395" height="336">
  <path d="M 170,224 L 169,225 L 167,225 L 166,226 L 165,226 L 164,227 L 157,227 L 156,226 L 154,226 L 153,225 L 152,225 L 148,229 L 147,229 L 143,233 L 145,235 L 145,237 L 146,238 L 145,239 L 145,240 L 147,242 L 147,243 L 148,243 L 149,244 L 150,244 L 151,245 L 152,245 L 153,246 L 153,247 L 154,248 L 154,249 L 155,249 L 157,251 L 158,251 L 159,252 L 159,255 L 160,255 L 162,257 L 164,255 L 166,255 L 167,254 L 168,254 L 170,256 L 173,256 L 174,257 L 175,257 L 176,256 L 177,256 L 179,254 L 179,253 L 182,250 L 182,248 L 184,246 L 184,244 L 182,242 L 182,241 L 181,241 L 180,240 L 180,238 L 179,237 L 179,236 L 173,230 L 173,227 L 171,225 L 171,224 Z" fill="none" stroke="black" stroke-width="1"/>
</svg>