<svg xmlns="http://www.w3.org/2000/svg" width="395" height="336">
  <path d="M 199,110 L 199,111 L 198,112 L 198,114 L 197,115 L 196,115 L 195,116 L 195,117 L 193,119 L 191,119 L 190,120 L 189,120 L 188,121 L 187,121 L 186,122 L 185,122 L 185,123 L 184,124 L 183,124 L 182,125 L 181,125 L 180,126 L 180,130 L 182,132 L 182,133 L 183,133 L 185,135 L 185,136 L 187,138 L 187,140 L 188,140 L 189,139 L 199,139 L 202,136 L 203,136 L 204,135 L 204,132 L 205,131 L 205,130 L 204,129 L 206,127 L 208,127 L 210,125 L 210,124 L 209,123 L 209,120 L 208,120 L 206,118 L 206,117 L 203,114 L 203,113 L 202,113 L 200,111 L 200,110 Z" fill="none" stroke="black" stroke-width="1"/>
</svg>