<svg xmlns="http://www.w3.org/2000/svg" width="395" height="336">
  <path d="M 91,55 L 90,56 L 89,56 L 87,58 L 86,58 L 85,59 L 84,59 L 82,61 L 79,61 L 78,62 L 76,62 L 74,64 L 74,65 L 73,66 L 73,67 L 72,68 L 71,68 L 72,68 L 73,69 L 74,69 L 75,70 L 77,70 L 80,73 L 81,73 L 82,74 L 82,75 L 83,76 L 83,77 L 84,78 L 84,80 L 85,81 L 86,81 L 90,85 L 90,87 L 87,90 L 86,90 L 85,91 L 85,92 L 84,93 L 85,93 L 87,95 L 88,95 L 89,96 L 88,97 L 87,97 L 87,103 L 86,104 L 86,105 L 85,106 L 85,107 L 84,108 L 85,109 L 85,114 L 86,115 L 86,116 L 90,116 L 91,115 L 92,115 L 93,114 L 95,114 L 96,113 L 98,113 L 100,111 L 103,114 L 103,115 L 105,117 L 105,118 L 109,118 L 109,116 L 111,114 L 111,113 L 113,111 L 113,110 L 114,109 L 115,109 L 116,108 L 119,108 L 120,107 L 121,107 L 122,106 L 122,102 L 123,101 L 123,100 L 125,98 L 127,98 L 129,96 L 146,96 L 147,97 L 148,97 L 149,96 L 151,96 L 152,95 L 152,93 L 149,90 L 149,89 L 150,88 L 151,88 L 152,87 L 151,86 L 151,85 L 147,81 L 147,79 L 146,78 L 145,78 L 144,77 L 144,75 L 145,74 L 145,72 L 144,72 L 143,71 L 143,70 L 142,69 L 142,68 L 138,68 L 138,69 L 136,71 L 134,71 L 133,70 L 131,70 L 130,69 L 130,67 L 129,67 L 127,65 L 127,64 L 126,65 L 124,65 L 123,66 L 122,66 L 121,65 L 121,64 L 119,62 L 119,61 L 118,60 L 111,60 L 108,57 L 107,57 L 106,56 L 101,56 L 99,58 L 96,58 L 94,56 L 92,56 Z" fill="none" stroke="black" stroke-width="1"/>
</svg>