<svg xmlns="http://www.w3.org/2000/svg" width="395" height="336">
  <path d="M 197,65 L 196,66 L 195,66 L 194,67 L 194,68 L 193,69 L 193,71 L 197,75 L 197,78 L 196,79 L 198,81 L 198,82 L 199,82 L 200,83 L 200,89 L 199,90 L 200,91 L 200,92 L 201,93 L 200,94 L 200,95 L 201,96 L 201,97 L 206,97 L 207,98 L 215,98 L 216,97 L 222,97 L 223,98 L 226,98 L 227,99 L 229,99 L 230,100 L 232,100 L 233,101 L 235,101 L 236,102 L 242,102 L 243,103 L 243,104 L 244,103 L 244,99 L 243,98 L 242,98 L 241,97 L 241,94 L 242,93 L 241,92 L 240,92 L 239,91 L 238,91 L 234,87 L 234,86 L 233,86 L 232,87 L 231,86 L 231,85 L 228,82 L 229,81 L 230,81 L 230,80 L 229,80 L 228,79 L 226,79 L 225,78 L 224,79 L 222,77 L 222,75 L 223,74 L 219,70 L 219,69 L 217,69 L 215,71 L 210,71 L 209,70 L 208,70 L 207,69 L 205,69 L 204,68 L 202,68 L 200,66 L 199,66 L 198,65 Z" fill="none" stroke="black" stroke-width="1"/>
</svg>