<svg xmlns="http://www.w3.org/2000/svg" width="395" height="336">
  <path d="M 252,111 L 252,112 L 253,112 L 253,111 Z" fill="none" stroke="black" stroke-width="1"/>
  <path d="M 261,103 L 260,104 L 259,104 L 257,106 L 257,107 L 256,108 L 256,112 L 255,113 L 255,114 L 254,115 L 253,114 L 253,120 L 254,121 L 254,122 L 255,123 L 255,127 L 254,128 L 253,128 L 252,127 L 252,124 L 249,121 L 249,117 L 248,116 L 248,115 L 246,115 L 246,116 L 245,117 L 245,126 L 244,127 L 244,129 L 243,130 L 243,131 L 242,132 L 242,133 L 241,134 L 241,137 L 243,139 L 244,139 L 246,141 L 246,142 L 248,142 L 249,141 L 250,141 L 250,140 L 252,138 L 253,138 L 254,137 L 257,137 L 258,136 L 259,136 L 260,135 L 261,135 L 261,132 L 262,131 L 263,131 L 264,130 L 263,129 L 264,128 L 264,125 L 266,123 L 266,118 L 265,118 L 264,117 L 264,113 L 265,112 L 265,111 L 266,110 L 266,109 L 265,108 L 265,107 L 264,107 L 261,104 Z" fill="none" stroke="black" stroke-width="1"/>
</svg>