<svg xmlns="http://www.w3.org/2000/svg" width="395" height="336">
  <path d="M 301,135 L 300,136 L 299,136 L 298,137 L 302,137 L 302,136 Z" fill="none" stroke="black" stroke-width="1"/>
  <path d="M 313,132 L 312,133 L 311,133 L 311,134 L 309,136 L 307,136 L 305,138 L 305,139 L 304,140 L 297,140 L 295,138 L 292,138 L 291,137 L 290,137 L 289,138 L 288,138 L 287,137 L 286,137 L 285,138 L 283,138 L 282,137 L 281,138 L 280,138 L 279,139 L 279,142 L 280,143 L 280,144 L 279,145 L 279,150 L 277,152 L 277,156 L 278,156 L 280,154 L 281,154 L 282,153 L 283,153 L 284,152 L 294,152 L 295,151 L 304,151 L 305,150 L 307,150 L 308,149 L 310,149 L 313,146 L 314,146 L 316,144 L 317,144 L 315,142 L 316,141 L 316,138 L 314,136 L 314,134 L 313,133 Z" fill="none" stroke="black" stroke-width="1"/>
</svg>