<svg xmlns="http://www.w3.org/2000/svg" width="395" height="336">
  <path d="M 341,100 L 339,102 L 338,101 L 337,102 L 337,105 L 336,106 L 336,107 L 334,109 L 334,110 L 333,111 L 332,111 L 331,112 L 330,112 L 322,120 L 322,121 L 320,123 L 319,123 L 316,126 L 315,126 L 314,127 L 314,133 L 315,134 L 315,136 L 317,138 L 317,141 L 316,142 L 318,144 L 318,146 L 319,147 L 319,148 L 320,149 L 321,149 L 323,151 L 324,151 L 325,150 L 325,149 L 326,148 L 326,145 L 327,144 L 327,143 L 328,142 L 328,140 L 330,138 L 334,138 L 335,137 L 335,136 L 333,134 L 333,133 L 332,132 L 332,128 L 333,127 L 333,124 L 334,123 L 335,123 L 336,124 L 336,128 L 339,128 L 339,127 L 341,125 L 341,124 L 340,123 L 340,118 L 341,117 L 340,116 L 340,112 L 339,111 L 339,110 L 340,109 L 340,108 L 341,107 L 341,105 L 339,103 L 340,102 L 342,102 L 341,101 Z" fill="none" stroke="black" stroke-width="1"/>
</svg>