<svg xmlns="http://www.w3.org/2000/svg" width="395" height="336">
  <path d="M 334,124 L 334,127 L 333,128 L 333,132 L 334,133 L 334,134 L 336,136 L 336,137 L 335,138 L 337,140 L 340,140 L 341,141 L 342,141 L 343,142 L 344,142 L 346,144 L 346,145 L 348,145 L 350,147 L 350,148 L 350,147 L 351,146 L 351,145 L 352,144 L 354,144 L 356,146 L 358,146 L 359,145 L 359,143 L 358,143 L 357,142 L 355,142 L 354,141 L 353,141 L 350,138 L 349,138 L 348,137 L 348,136 L 346,134 L 346,133 L 345,133 L 344,132 L 344,131 L 342,129 L 342,127 L 341,126 L 340,127 L 340,128 L 339,129 L 336,129 L 335,128 L 335,124 Z" fill="none" stroke="black" stroke-width="1"/>
</svg>