<svg xmlns="http://www.w3.org/2000/svg" width="395" height="336">
  <path d="M 360,143 L 360,145 L 359,146 L 360,147 L 361,147 L 362,148 L 362,149 L 363,150 L 363,151 L 364,152 L 364,155 L 365,156 L 365,157 L 366,158 L 369,158 L 371,160 L 372,160 L 374,158 L 376,158 L 379,161 L 379,162 L 382,165 L 382,166 L 383,166 L 383,165 L 384,164 L 384,163 L 385,162 L 387,162 L 387,161 L 385,159 L 385,158 L 381,154 L 381,152 L 378,149 L 378,148 L 377,147 L 376,147 L 375,146 L 370,146 L 369,145 L 368,145 L 367,144 L 361,144 Z" fill="none" stroke="black" stroke-width="1"/>
</svg>