<svg xmlns="http://www.w3.org/2000/svg" width="1028" height="413">
  <path d="M 584,274 L 582,276 L 580,276 L 579,275 L 579,280 L 578,281 L 578,282 L 577,283 L 577,286 L 576,287 L 575,287 L 572,290 L 571,290 L 570,291 L 569,291 L 569,292 L 570,293 L 570,296 L 574,300 L 574,304 L 576,306 L 577,305 L 578,305 L 580,307 L 580,308 L 581,308 L 582,309 L 583,309 L 584,310 L 584,311 L 586,313 L 586,308 L 585,307 L 585,306 L 584,305 L 587,302 L 589,302 L 591,304 L 591,303 L 592,302 L 594,302 L 595,303 L 598,303 L 598,302 L 599,301 L 601,301 L 602,300 L 602,299 L 603,298 L 604,298 L 605,297 L 605,293 L 606,292 L 606,288 L 604,286 L 603,286 L 601,284 L 600,284 L 599,283 L 599,282 L 598,282 L 597,281 L 596,281 L 595,280 L 595,279 L 594,278 L 592,278 L 591,277 L 591,276 L 590,275 L 589,275 L 588,274 Z" fill="none" stroke="black" stroke-width="1"/>
</svg>