<svg xmlns="http://www.w3.org/2000/svg" width="171" height="149">
  <path d="M 56,92 L 56,94 L 55,95 L 55,97 L 49,103 L 48,103 L 46,105 L 45,105 L 44,106 L 40,106 L 39,107 L 39,108 L 40,109 L 40,110 L 39,111 L 39,112 L 40,111 L 45,111 L 46,112 L 45,113 L 43,113 L 42,114 L 42,117 L 43,118 L 45,118 L 46,119 L 47,119 L 49,121 L 51,121 L 53,123 L 58,123 L 59,124 L 59,123 L 60,122 L 61,122 L 61,121 L 62,120 L 64,120 L 64,117 L 67,114 L 69,114 L 69,113 L 70,112 L 70,109 L 69,108 L 69,107 L 68,106 L 66,106 L 65,107 L 64,107 L 63,108 L 62,108 L 61,109 L 59,109 L 58,108 L 57,108 L 56,107 L 53,107 L 52,106 L 50,106 L 49,105 L 51,103 L 52,103 L 52,102 L 53,101 L 54,101 L 54,100 L 57,97 L 57,92 Z" fill="none" stroke="black" stroke-width="1"/>
</svg>