<svg xmlns="http://www.w3.org/2000/svg" width="395" height="336">
  <path d="M 316,234 L 315,235 L 314,235 L 313,236 L 312,236 L 311,237 L 310,237 L 309,238 L 304,238 L 304,239 L 303,240 L 302,240 L 301,241 L 298,241 L 298,242 L 297,243 L 295,243 L 294,244 L 293,244 L 292,245 L 289,245 L 288,246 L 287,246 L 287,247 L 285,249 L 285,250 L 283,252 L 282,252 L 283,253 L 283,254 L 288,254 L 289,255 L 290,255 L 291,256 L 293,256 L 296,259 L 296,260 L 297,260 L 299,258 L 300,258 L 301,257 L 303,257 L 304,256 L 305,256 L 306,255 L 314,255 L 316,257 L 317,256 L 318,256 L 319,255 L 320,255 L 322,253 L 322,251 L 323,250 L 323,249 L 322,248 L 322,246 L 323,245 L 324,245 L 325,244 L 325,243 L 326,242 L 325,241 L 325,240 L 324,240 L 323,239 L 322,239 L 317,234 Z" fill="none" stroke="black" stroke-width="1"/>
</svg>