<svg xmlns="http://www.w3.org/2000/svg" width="395" height="336">
  <path d="M 245,269 L 244,270 L 244,271 L 242,273 L 241,273 L 238,276 L 238,277 L 241,280 L 241,282 L 242,282 L 244,284 L 245,284 L 246,283 L 247,283 L 250,286 L 250,287 L 255,287 L 256,286 L 258,286 L 259,285 L 261,285 L 262,284 L 264,284 L 265,283 L 266,283 L 268,281 L 270,281 L 271,280 L 272,280 L 273,279 L 274,279 L 275,278 L 275,274 L 274,273 L 274,272 L 272,272 L 271,271 L 270,271 L 269,270 L 268,270 L 267,269 L 259,269 L 257,271 L 254,271 L 253,272 L 251,272 L 248,269 Z" fill="none" stroke="black" stroke-width="1"/>
</svg>