<svg xmlns="http://www.w3.org/2000/svg" width="467" height="484">
  <path d="M 261,268 L 260,269 L 259,269 L 259,270 L 261,272 L 261,273 L 260,274 L 258,274 L 261,277 L 263,277 L 264,276 L 263,276 L 262,275 L 262,274 L 263,273 L 263,272 L 264,271 L 264,270 L 262,270 L 261,269 Z" fill="none" stroke="black" stroke-width="1"/>
  <path d="M 237,262 L 237,265 L 241,265 L 241,263 L 240,263 L 239,262 Z" fill="none" stroke="black" stroke-width="1"/>
  <path d="M 249,260 L 248,261 L 247,261 L 247,263 L 248,264 L 249,264 L 250,265 L 250,266 L 252,266 L 252,260 Z" fill="none" stroke="black" stroke-width="1"/>
  <path d="M 232,248 L 231,249 L 231,257 L 232,257 L 233,258 L 236,258 L 236,255 L 235,254 L 235,253 L 234,252 L 234,248 Z" fill="none" stroke="black" stroke-width="1"/>
</svg>