<svg xmlns="http://www.w3.org/2000/svg" width="395" height="336">
  <path d="M 352,145 L 352,146 L 351,147 L 351,148 L 350,149 L 349,149 L 347,151 L 347,153 L 343,157 L 336,157 L 335,158 L 335,159 L 333,161 L 332,161 L 331,162 L 329,162 L 327,164 L 327,165 L 328,166 L 328,170 L 331,173 L 333,173 L 337,177 L 338,177 L 339,178 L 341,178 L 342,179 L 343,179 L 345,181 L 349,181 L 350,180 L 351,180 L 352,181 L 355,181 L 355,178 L 356,177 L 357,177 L 358,176 L 358,175 L 359,174 L 359,172 L 362,169 L 361,168 L 361,165 L 363,163 L 364,163 L 365,162 L 365,161 L 366,160 L 366,159 L 364,157 L 364,156 L 363,155 L 363,152 L 362,151 L 362,150 L 361,149 L 361,148 L 360,148 L 359,147 L 356,147 L 354,145 Z" fill="none" stroke="black" stroke-width="1"/>
</svg>