<svg xmlns="http://www.w3.org/2000/svg" width="467" height="484">
  <path d="M 310,279 L 309,280 L 309,281 L 311,281 L 310,280 Z" fill="none" stroke="black" stroke-width="1"/>
  <path d="M 324,263 L 322,265 L 322,266 L 321,267 L 320,267 L 319,266 L 318,266 L 320,268 L 320,269 L 321,270 L 321,274 L 320,275 L 320,276 L 319,277 L 319,281 L 317,283 L 314,283 L 313,284 L 312,284 L 312,294 L 313,295 L 313,296 L 314,297 L 314,300 L 315,301 L 316,301 L 317,300 L 317,299 L 318,298 L 318,297 L 319,296 L 321,296 L 322,295 L 323,295 L 324,296 L 326,296 L 326,295 L 328,293 L 329,293 L 330,292 L 333,292 L 335,294 L 339,294 L 339,288 L 338,287 L 338,284 L 336,282 L 336,276 L 334,274 L 334,273 L 330,269 L 330,265 L 329,264 L 326,264 L 325,263 Z" fill="none" stroke="black" stroke-width="1"/>
  <path d="M 325,259 L 324,260 L 325,261 L 326,261 L 326,260 Z" fill="none" stroke="black" stroke-width="1"/>
</svg>