<svg xmlns="http://www.w3.org/2000/svg" width="467" height="484">
  <path d="M 304,285 L 304,288 L 305,289 L 305,291 L 307,293 L 307,294 L 306,295 L 305,295 L 304,296 L 303,295 L 302,296 L 302,297 L 301,298 L 301,299 L 302,300 L 302,302 L 301,303 L 301,304 L 300,305 L 300,306 L 299,307 L 299,308 L 297,310 L 296,309 L 296,307 L 298,305 L 297,304 L 297,303 L 295,305 L 295,307 L 292,310 L 292,312 L 295,315 L 294,316 L 291,316 L 290,317 L 289,316 L 289,315 L 290,314 L 289,313 L 289,312 L 288,312 L 285,315 L 284,315 L 283,316 L 282,316 L 280,318 L 280,321 L 281,321 L 282,322 L 282,323 L 281,324 L 279,324 L 280,324 L 281,325 L 281,327 L 282,328 L 282,330 L 284,330 L 285,331 L 287,331 L 288,330 L 289,330 L 290,329 L 291,329 L 294,326 L 294,322 L 296,320 L 296,319 L 297,318 L 297,317 L 299,315 L 304,315 L 307,312 L 308,312 L 308,311 L 309,310 L 310,310 L 310,309 L 314,305 L 314,301 L 313,300 L 313,297 L 312,296 L 312,295 L 311,294 L 311,288 L 310,289 L 308,287 L 308,285 Z" fill="none" stroke="black" stroke-width="1"/>
</svg>