<svg xmlns="http://www.w3.org/2000/svg" width="467" height="484">
  <path d="M 319,297 L 319,298 L 318,299 L 318,300 L 316,302 L 315,302 L 315,305 L 311,309 L 311,310 L 310,311 L 309,311 L 309,312 L 308,313 L 307,313 L 304,316 L 299,316 L 298,317 L 298,318 L 297,319 L 297,320 L 295,322 L 295,326 L 291,330 L 290,330 L 289,331 L 288,331 L 287,332 L 285,332 L 284,331 L 283,331 L 283,332 L 284,332 L 285,333 L 285,334 L 286,335 L 286,337 L 288,339 L 289,339 L 291,341 L 291,348 L 290,349 L 290,350 L 297,350 L 300,353 L 303,353 L 304,354 L 305,353 L 307,353 L 308,354 L 308,355 L 309,356 L 309,357 L 310,358 L 310,359 L 314,359 L 314,357 L 315,356 L 314,355 L 314,354 L 315,353 L 315,349 L 316,348 L 316,347 L 315,346 L 315,345 L 316,344 L 317,344 L 320,341 L 321,341 L 322,340 L 322,334 L 323,333 L 323,331 L 324,330 L 324,327 L 322,327 L 321,326 L 321,325 L 322,324 L 322,321 L 321,320 L 321,313 L 322,312 L 322,308 L 323,307 L 323,306 L 321,304 L 321,303 L 320,302 L 320,297 Z" fill="none" stroke="black" stroke-width="1"/>
</svg>