<svg xmlns="http://www.w3.org/2000/svg" width="467" height="484">
  <path d="M 338,336 L 335,339 L 335,340 L 334,341 L 335,341 L 338,338 Z" fill="none" stroke="black" stroke-width="1"/>
  <path d="M 330,293 L 329,294 L 328,294 L 327,295 L 327,296 L 326,297 L 324,297 L 323,296 L 322,296 L 321,297 L 321,302 L 322,303 L 322,304 L 324,306 L 324,307 L 323,308 L 323,312 L 322,313 L 322,320 L 323,321 L 323,324 L 322,325 L 322,326 L 324,326 L 325,327 L 325,330 L 324,331 L 324,333 L 323,334 L 323,340 L 321,342 L 320,342 L 319,343 L 320,344 L 325,344 L 326,343 L 328,343 L 329,342 L 329,341 L 330,340 L 330,339 L 331,338 L 333,338 L 332,337 L 332,336 L 334,334 L 334,327 L 333,327 L 331,325 L 332,324 L 332,321 L 331,320 L 331,316 L 333,314 L 335,314 L 336,315 L 336,317 L 337,318 L 337,319 L 338,320 L 338,322 L 339,322 L 340,323 L 341,323 L 341,322 L 342,321 L 342,319 L 343,318 L 343,317 L 344,316 L 344,311 L 342,309 L 342,308 L 341,307 L 341,305 L 340,304 L 340,302 L 339,301 L 339,298 L 340,297 L 340,296 L 339,295 L 335,295 L 333,293 Z" fill="none" stroke="black" stroke-width="1"/>
</svg>