<svg xmlns="http://www.w3.org/2000/svg" width="467" height="484">
  <path d="M 318,344 L 317,345 L 316,345 L 316,346 L 317,347 L 317,348 L 316,349 L 316,353 L 315,354 L 315,355 L 316,356 L 315,357 L 315,359 L 314,360 L 313,360 L 313,365 L 312,366 L 312,369 L 311,370 L 311,377 L 310,378 L 310,379 L 311,380 L 311,386 L 310,387 L 309,387 L 309,393 L 305,397 L 304,396 L 302,398 L 300,398 L 298,400 L 298,401 L 299,401 L 300,402 L 300,403 L 304,407 L 304,408 L 312,408 L 312,405 L 313,404 L 313,400 L 314,399 L 314,398 L 315,397 L 315,395 L 316,394 L 316,393 L 317,392 L 317,391 L 318,390 L 318,387 L 319,386 L 319,382 L 321,380 L 321,376 L 322,375 L 322,374 L 323,373 L 323,372 L 324,371 L 324,368 L 326,366 L 326,363 L 327,362 L 327,357 L 328,356 L 328,354 L 329,353 L 329,350 L 328,349 L 328,347 L 327,346 L 327,345 L 328,344 L 326,344 L 325,345 L 320,345 L 319,344 Z" fill="none" stroke="black" stroke-width="1"/>
</svg>