<svg xmlns="http://www.w3.org/2000/svg" width="467" height="484">
  <path d="M 306,409 L 306,412 L 305,413 L 304,413 L 303,414 L 302,414 L 300,416 L 299,416 L 298,417 L 298,423 L 297,424 L 297,427 L 296,428 L 296,430 L 295,431 L 295,439 L 294,440 L 294,446 L 293,447 L 293,448 L 294,448 L 295,449 L 296,449 L 298,451 L 299,451 L 299,449 L 300,448 L 300,446 L 301,445 L 301,443 L 302,442 L 302,439 L 303,438 L 303,432 L 304,431 L 304,429 L 305,428 L 305,426 L 306,425 L 306,423 L 308,421 L 308,419 L 309,418 L 309,415 L 310,414 L 310,413 L 311,412 L 311,410 L 312,409 Z" fill="none" stroke="black" stroke-width="1"/>
</svg>