<svg xmlns="http://www.w3.org/2000/svg" width="467" height="484">
  <path d="M 266,389 L 265,390 L 265,392 L 266,393 L 266,394 L 265,395 L 265,402 L 264,403 L 264,405 L 263,406 L 263,407 L 261,409 L 261,410 L 260,411 L 260,419 L 264,419 L 265,418 L 267,420 L 268,420 L 270,422 L 274,422 L 275,421 L 276,422 L 276,423 L 278,425 L 278,428 L 279,429 L 283,429 L 284,428 L 287,428 L 288,427 L 290,427 L 291,428 L 295,428 L 296,427 L 296,424 L 297,423 L 297,417 L 299,415 L 300,415 L 302,413 L 303,413 L 304,412 L 305,412 L 305,409 L 304,409 L 303,408 L 303,407 L 299,403 L 299,402 L 296,402 L 295,401 L 294,401 L 291,398 L 289,398 L 288,397 L 288,396 L 280,396 L 278,394 L 278,393 L 277,392 L 277,391 L 275,391 L 274,390 L 273,390 L 272,389 Z" fill="none" stroke="black" stroke-width="1"/>
</svg>