<svg xmlns="http://www.w3.org/2000/svg" width="467" height="484">
  <path d="M 257,450 L 257,451 L 256,452 L 252,452 L 251,453 L 245,453 L 244,452 L 242,452 L 241,453 L 238,453 L 238,461 L 239,462 L 239,463 L 242,466 L 242,467 L 243,468 L 242,469 L 244,471 L 244,473 L 245,474 L 246,474 L 247,475 L 248,475 L 249,476 L 249,477 L 250,478 L 254,478 L 256,476 L 256,475 L 258,473 L 258,472 L 261,469 L 262,469 L 263,468 L 263,461 L 262,460 L 262,454 L 261,454 L 260,453 L 260,452 L 258,450 Z" fill="none" stroke="black" stroke-width="1"/>
</svg>