<svg xmlns="http://www.w3.org/2000/svg" width="467" height="484">
  <path d="M 283,448 L 283,450 L 282,451 L 282,453 L 279,456 L 279,461 L 278,462 L 278,463 L 277,464 L 274,464 L 273,463 L 272,463 L 271,464 L 270,464 L 269,463 L 269,461 L 268,460 L 267,460 L 266,461 L 265,461 L 264,462 L 264,468 L 262,470 L 261,470 L 259,472 L 259,473 L 257,475 L 257,476 L 255,478 L 256,479 L 257,479 L 260,482 L 261,482 L 262,483 L 267,483 L 268,482 L 269,482 L 272,479 L 273,479 L 274,478 L 276,478 L 278,476 L 286,476 L 288,474 L 289,474 L 290,473 L 291,473 L 292,472 L 291,471 L 293,469 L 293,468 L 294,467 L 294,463 L 295,462 L 295,461 L 296,460 L 296,459 L 297,458 L 297,457 L 298,456 L 298,454 L 299,453 L 299,452 L 298,452 L 296,450 L 295,450 L 294,449 L 286,449 L 285,448 Z" fill="none" stroke="black" stroke-width="1"/>
</svg>