<svg xmlns="http://www.w3.org/2000/svg" width="467" height="484">
  <path d="M 265,419 L 264,420 L 259,420 L 257,422 L 256,422 L 254,424 L 254,428 L 256,430 L 256,431 L 257,432 L 257,436 L 259,436 L 260,437 L 261,437 L 262,438 L 264,438 L 265,439 L 265,441 L 266,442 L 264,444 L 264,446 L 261,449 L 261,450 L 260,451 L 261,452 L 261,453 L 262,453 L 263,454 L 263,460 L 264,461 L 265,460 L 266,460 L 267,459 L 268,459 L 270,461 L 270,463 L 271,463 L 272,462 L 273,462 L 274,463 L 277,463 L 277,462 L 278,461 L 278,456 L 281,453 L 281,451 L 282,450 L 282,448 L 283,447 L 285,447 L 286,448 L 292,448 L 292,447 L 293,446 L 293,440 L 294,439 L 294,431 L 295,430 L 295,429 L 291,429 L 290,428 L 288,428 L 287,429 L 284,429 L 283,430 L 279,430 L 277,428 L 277,425 L 275,423 L 275,422 L 274,423 L 270,423 L 268,421 L 267,421 Z" fill="none" stroke="black" stroke-width="1"/>
</svg>