<svg xmlns="http://www.w3.org/2000/svg" width="395" height="336">
  <path d="M 316,145 L 314,147 L 313,147 L 310,150 L 308,150 L 307,151 L 305,151 L 304,152 L 295,152 L 294,153 L 284,153 L 283,154 L 282,154 L 281,155 L 280,155 L 280,157 L 281,157 L 282,158 L 282,160 L 286,160 L 287,161 L 287,162 L 291,162 L 292,163 L 294,163 L 295,164 L 301,164 L 302,165 L 312,165 L 313,164 L 316,164 L 317,163 L 318,163 L 319,162 L 322,162 L 323,161 L 324,161 L 325,160 L 326,160 L 326,159 L 327,158 L 324,155 L 324,153 L 321,150 L 320,150 L 318,148 L 318,147 L 317,146 L 317,145 Z" fill="none" stroke="black" stroke-width="1"/>
</svg>