<svg xmlns="http://www.w3.org/2000/svg" width="467" height="484">
  <path d="M 250,357 L 250,358 L 249,359 L 246,359 L 245,358 L 244,358 L 244,360 L 245,361 L 244,362 L 244,363 L 245,364 L 245,365 L 247,367 L 247,369 L 248,370 L 248,372 L 247,373 L 247,374 L 248,375 L 248,376 L 250,378 L 250,379 L 251,380 L 251,382 L 250,383 L 250,386 L 251,387 L 251,389 L 254,389 L 255,390 L 258,390 L 262,394 L 265,394 L 265,393 L 264,392 L 264,390 L 266,388 L 267,388 L 267,384 L 266,383 L 266,373 L 265,372 L 265,371 L 264,370 L 264,364 L 265,363 L 265,361 L 263,359 L 261,359 L 260,358 L 259,358 L 258,357 Z" fill="none" stroke="black" stroke-width="1"/>
</svg>