<svg xmlns="http://www.w3.org/2000/svg" width="467" height="484">
  <path d="M 235,416 L 235,417 L 233,419 L 233,421 L 232,422 L 232,431 L 233,432 L 233,437 L 234,437 L 235,438 L 235,439 L 237,441 L 237,445 L 238,446 L 239,446 L 240,447 L 240,449 L 239,450 L 238,450 L 238,452 L 241,452 L 242,451 L 244,451 L 245,452 L 251,452 L 252,451 L 256,451 L 256,450 L 257,449 L 258,449 L 259,450 L 260,450 L 260,449 L 263,446 L 263,444 L 265,442 L 264,441 L 264,439 L 262,439 L 261,438 L 260,438 L 259,437 L 257,437 L 256,436 L 256,432 L 255,431 L 255,430 L 253,428 L 253,426 L 252,425 L 246,425 L 245,426 L 242,426 L 240,424 L 240,419 L 238,417 L 238,416 Z" fill="none" stroke="black" stroke-width="1"/>
</svg>