<svg xmlns="http://www.w3.org/2000/svg" width="340" height="393">
  <path d="M 99,158 L 98,159 L 97,159 L 95,161 L 92,161 L 91,162 L 87,162 L 86,163 L 84,163 L 82,165 L 82,166 L 81,167 L 80,167 L 79,168 L 77,168 L 76,167 L 75,167 L 74,168 L 74,170 L 72,172 L 70,172 L 69,173 L 66,173 L 65,174 L 67,176 L 67,179 L 70,182 L 70,186 L 73,189 L 73,200 L 74,201 L 74,202 L 77,205 L 78,205 L 80,207 L 83,207 L 83,206 L 84,205 L 84,200 L 87,197 L 87,193 L 89,191 L 91,191 L 91,189 L 95,185 L 97,185 L 98,184 L 101,184 L 101,182 L 100,181 L 101,180 L 101,178 L 102,177 L 102,175 L 103,174 L 103,173 L 104,172 L 104,171 L 105,170 L 105,168 L 106,167 L 106,165 L 105,164 L 106,163 L 106,161 L 107,160 L 107,158 Z" fill="none" stroke="black" stroke-width="1"/>
</svg>