<svg xmlns="http://www.w3.org/2000/svg" width="467" height="484">
  <path d="M 172,289 L 170,291 L 166,291 L 166,292 L 164,294 L 156,294 L 155,295 L 153,295 L 152,296 L 151,296 L 150,297 L 148,297 L 147,296 L 146,297 L 144,297 L 143,298 L 143,299 L 142,300 L 140,300 L 140,302 L 139,303 L 135,303 L 135,304 L 134,305 L 132,305 L 131,306 L 131,307 L 130,308 L 130,309 L 129,310 L 127,310 L 125,312 L 125,314 L 128,314 L 129,315 L 132,315 L 133,316 L 133,317 L 134,317 L 135,318 L 135,319 L 137,319 L 138,320 L 138,322 L 139,323 L 139,332 L 140,331 L 149,331 L 150,332 L 152,332 L 155,329 L 156,329 L 160,325 L 161,325 L 161,324 L 162,323 L 162,322 L 163,321 L 164,321 L 165,320 L 167,320 L 168,319 L 169,319 L 170,318 L 172,318 L 173,317 L 173,315 L 172,314 L 172,311 L 174,309 L 174,308 L 176,306 L 176,294 L 175,293 L 175,292 L 174,291 L 174,290 L 173,289 Z" fill="none" stroke="black" stroke-width="1"/>
</svg>