<svg xmlns="http://www.w3.org/2000/svg" width="467" height="484">
  <path d="M 171,245 L 170,246 L 163,246 L 161,248 L 160,248 L 159,249 L 158,249 L 157,250 L 157,252 L 156,253 L 156,255 L 157,256 L 157,258 L 156,259 L 156,260 L 155,261 L 154,261 L 154,262 L 153,263 L 152,263 L 152,264 L 151,265 L 150,265 L 149,266 L 149,267 L 148,268 L 148,271 L 146,273 L 146,278 L 147,279 L 147,280 L 146,281 L 146,282 L 145,283 L 145,284 L 144,285 L 144,286 L 143,287 L 143,288 L 142,289 L 140,289 L 140,290 L 141,291 L 141,292 L 142,293 L 142,295 L 143,296 L 146,296 L 147,295 L 148,296 L 150,296 L 151,295 L 152,295 L 153,294 L 155,294 L 156,293 L 164,293 L 165,292 L 165,291 L 166,290 L 170,290 L 172,288 L 173,288 L 173,287 L 172,286 L 172,285 L 171,284 L 171,278 L 172,277 L 172,271 L 171,270 L 171,262 L 172,261 L 172,260 L 173,259 L 173,258 L 172,257 L 172,256 L 171,255 L 171,253 L 170,252 L 170,247 L 171,246 Z" fill="none" stroke="black" stroke-width="1"/>
</svg>