<svg xmlns="http://www.w3.org/2000/svg" width="467" height="484">
  <path d="M 151,247 L 150,248 L 149,248 L 149,251 L 148,252 L 146,252 L 146,254 L 145,255 L 138,255 L 137,254 L 131,254 L 130,255 L 127,255 L 126,254 L 122,254 L 121,253 L 121,252 L 120,252 L 119,251 L 118,251 L 117,250 L 116,250 L 115,251 L 114,251 L 112,253 L 110,253 L 110,254 L 111,255 L 111,256 L 113,258 L 113,262 L 114,263 L 115,263 L 117,265 L 117,266 L 118,267 L 118,273 L 119,273 L 120,274 L 120,275 L 122,277 L 122,281 L 124,283 L 127,280 L 127,279 L 132,274 L 137,274 L 138,275 L 141,275 L 142,276 L 145,276 L 145,273 L 147,271 L 147,268 L 148,267 L 148,266 L 150,264 L 151,264 L 151,263 L 152,262 L 153,262 L 153,261 L 154,260 L 155,260 L 155,259 L 156,258 L 156,256 L 155,255 L 155,253 L 156,252 L 156,250 L 155,249 L 154,249 L 153,248 L 152,248 Z" fill="none" stroke="black" stroke-width="1"/>
</svg>