<svg xmlns="http://www.w3.org/2000/svg" width="467" height="484">
  <path d="M 103,252 L 103,257 L 102,258 L 102,259 L 99,262 L 100,263 L 99,264 L 99,266 L 100,267 L 100,269 L 101,270 L 101,272 L 100,273 L 100,275 L 101,276 L 101,281 L 102,282 L 102,286 L 104,286 L 105,287 L 105,288 L 106,289 L 106,291 L 107,292 L 107,294 L 108,295 L 108,296 L 111,296 L 112,295 L 114,295 L 116,297 L 116,295 L 117,294 L 117,291 L 118,290 L 118,289 L 119,288 L 119,287 L 121,285 L 121,277 L 119,275 L 119,274 L 118,274 L 117,273 L 117,267 L 116,266 L 116,265 L 115,264 L 114,264 L 112,262 L 112,258 L 110,256 L 110,255 L 109,254 L 109,253 L 108,252 Z" fill="none" stroke="black" stroke-width="1"/>
</svg>