<svg xmlns="http://www.w3.org/2000/svg" width="467" height="484">
  <path d="M 105,312 L 104,313 L 103,313 L 103,316 L 102,317 L 102,319 L 101,320 L 101,326 L 100,327 L 100,330 L 102,332 L 102,333 L 103,334 L 103,335 L 107,335 L 108,336 L 109,336 L 112,339 L 112,340 L 113,341 L 114,341 L 115,342 L 115,343 L 116,344 L 116,346 L 118,346 L 119,347 L 120,346 L 120,345 L 127,338 L 135,338 L 135,336 L 136,335 L 136,334 L 138,332 L 138,323 L 137,322 L 137,320 L 135,320 L 134,319 L 134,318 L 133,318 L 132,317 L 132,316 L 129,316 L 128,315 L 125,315 L 125,316 L 124,317 L 123,316 L 122,316 L 120,314 L 120,313 L 119,313 L 118,312 L 117,312 L 116,313 L 115,313 L 114,312 Z" fill="none" stroke="black" stroke-width="1"/>
</svg>