<svg xmlns="http://www.w3.org/2000/svg" width="467" height="484">
  <path d="M 78,297 L 77,298 L 71,298 L 67,302 L 66,302 L 65,303 L 65,304 L 64,305 L 64,307 L 65,307 L 66,308 L 67,308 L 70,311 L 73,311 L 74,312 L 75,312 L 76,313 L 77,313 L 78,314 L 79,314 L 80,315 L 81,315 L 82,316 L 84,316 L 88,320 L 89,320 L 90,321 L 91,321 L 93,323 L 93,324 L 95,324 L 97,326 L 98,326 L 99,327 L 100,326 L 100,320 L 101,319 L 101,317 L 102,316 L 102,313 L 103,312 L 103,311 L 101,309 L 101,308 L 100,308 L 99,307 L 99,306 L 98,305 L 96,307 L 92,307 L 91,306 L 91,305 L 90,305 L 89,304 L 86,304 L 85,303 L 84,303 L 83,302 L 82,302 L 79,299 L 79,298 Z" fill="none" stroke="black" stroke-width="1"/>
</svg>