<svg xmlns="http://www.w3.org/2000/svg" width="467" height="484">
  <path d="M 85,269 L 84,270 L 83,270 L 83,271 L 80,274 L 78,274 L 77,275 L 72,275 L 72,279 L 71,280 L 71,281 L 70,282 L 70,283 L 69,284 L 69,288 L 70,288 L 73,291 L 74,291 L 76,293 L 76,294 L 77,294 L 78,295 L 78,296 L 80,298 L 80,299 L 82,301 L 83,301 L 84,302 L 85,302 L 86,303 L 89,303 L 90,304 L 91,304 L 92,305 L 92,306 L 96,306 L 98,304 L 100,306 L 100,307 L 101,307 L 102,308 L 102,309 L 104,311 L 104,312 L 105,311 L 114,311 L 115,312 L 116,312 L 117,311 L 117,307 L 118,306 L 118,301 L 117,300 L 117,298 L 116,298 L 114,296 L 112,296 L 111,297 L 108,297 L 108,298 L 107,299 L 106,298 L 106,297 L 105,296 L 105,295 L 104,295 L 102,293 L 102,292 L 101,292 L 102,293 L 101,294 L 101,295 L 100,296 L 99,296 L 96,293 L 96,290 L 97,289 L 97,286 L 96,285 L 95,285 L 92,282 L 92,280 L 93,279 L 93,278 L 92,277 L 93,276 L 93,275 L 92,274 L 92,273 L 91,272 L 92,271 L 91,271 L 90,270 L 90,269 Z" fill="none" stroke="black" stroke-width="1"/>
</svg>