<svg xmlns="http://www.w3.org/2000/svg" width="248" height="151">
  <path d="M 107,40 L 106,41 L 105,41 L 104,42 L 104,43 L 101,46 L 97,46 L 96,45 L 96,44 L 95,43 L 95,42 L 93,42 L 92,43 L 90,43 L 89,44 L 88,44 L 84,48 L 84,51 L 87,54 L 86,55 L 86,56 L 87,56 L 88,57 L 82,63 L 79,63 L 78,62 L 76,62 L 74,64 L 73,64 L 72,65 L 72,67 L 73,68 L 74,68 L 76,70 L 76,72 L 77,73 L 77,74 L 79,76 L 81,76 L 82,77 L 83,77 L 85,79 L 85,80 L 86,81 L 87,81 L 88,82 L 89,81 L 89,80 L 90,79 L 96,79 L 97,78 L 98,78 L 99,77 L 100,77 L 100,76 L 102,74 L 102,73 L 103,72 L 103,70 L 105,68 L 108,68 L 110,66 L 110,64 L 111,63 L 112,63 L 112,62 L 113,61 L 113,60 L 115,58 L 116,58 L 116,53 L 114,51 L 115,50 L 115,47 L 114,46 L 114,45 L 113,44 L 113,40 L 112,40 L 111,41 L 110,41 L 109,40 Z" fill="none" stroke="black" stroke-width="1"/>
</svg>