<svg xmlns="http://www.w3.org/2000/svg" width="467" height="484">
  <path d="M 115,186 L 115,187 L 113,189 L 112,189 L 111,190 L 109,190 L 106,193 L 104,193 L 103,194 L 103,195 L 102,196 L 101,196 L 99,198 L 99,199 L 98,200 L 98,201 L 96,203 L 95,203 L 92,206 L 92,208 L 93,208 L 94,209 L 94,214 L 93,215 L 93,216 L 92,217 L 92,220 L 94,222 L 94,223 L 96,225 L 96,226 L 105,226 L 105,225 L 106,224 L 108,224 L 109,225 L 111,225 L 112,226 L 113,225 L 114,225 L 115,224 L 116,225 L 116,226 L 117,227 L 118,227 L 119,228 L 120,228 L 121,227 L 121,225 L 123,223 L 124,223 L 125,222 L 126,222 L 126,221 L 128,219 L 129,219 L 130,218 L 131,218 L 132,217 L 134,217 L 134,215 L 136,213 L 137,213 L 139,211 L 139,210 L 140,209 L 140,203 L 141,202 L 142,202 L 142,199 L 143,198 L 145,198 L 145,196 L 144,196 L 143,195 L 142,195 L 141,194 L 136,194 L 135,193 L 135,190 L 129,190 L 128,189 L 126,189 L 125,188 L 124,188 L 122,186 Z" fill="none" stroke="black" stroke-width="1"/>
</svg>