<svg xmlns="http://www.w3.org/2000/svg" width="467" height="484">
  <path d="M 143,199 L 143,202 L 142,203 L 141,203 L 141,209 L 140,210 L 140,211 L 137,214 L 136,214 L 135,215 L 135,217 L 134,218 L 132,218 L 131,219 L 130,219 L 129,220 L 128,220 L 127,221 L 127,222 L 126,223 L 125,223 L 124,224 L 123,224 L 122,225 L 122,227 L 120,229 L 120,232 L 119,233 L 119,236 L 121,238 L 123,238 L 124,237 L 125,237 L 126,238 L 127,238 L 129,240 L 131,240 L 136,245 L 136,247 L 134,249 L 134,250 L 133,251 L 133,253 L 137,253 L 138,254 L 145,254 L 145,252 L 146,251 L 148,251 L 148,248 L 149,247 L 150,247 L 151,246 L 152,247 L 154,247 L 154,244 L 153,244 L 151,242 L 151,237 L 149,235 L 149,234 L 150,233 L 151,233 L 153,231 L 154,231 L 155,230 L 156,230 L 157,229 L 158,230 L 158,225 L 157,225 L 156,224 L 156,220 L 157,219 L 157,216 L 158,215 L 158,208 L 157,207 L 157,204 L 154,201 L 151,201 L 150,200 L 146,200 L 145,199 Z" fill="none" stroke="black" stroke-width="1"/>
</svg>