<svg xmlns="http://www.w3.org/2000/svg" width="467" height="484">
  <path d="M 106,225 L 106,226 L 105,227 L 97,227 L 97,233 L 98,234 L 97,235 L 98,236 L 98,242 L 97,243 L 98,244 L 98,245 L 100,247 L 100,248 L 101,248 L 102,249 L 102,250 L 103,251 L 108,251 L 109,252 L 112,252 L 114,250 L 115,250 L 116,249 L 117,249 L 118,250 L 119,250 L 120,251 L 121,251 L 122,252 L 122,253 L 126,253 L 127,254 L 130,254 L 131,253 L 132,253 L 132,251 L 133,250 L 133,249 L 135,247 L 135,245 L 131,241 L 129,241 L 127,239 L 126,239 L 125,238 L 124,238 L 123,239 L 121,239 L 118,236 L 118,233 L 119,232 L 119,229 L 118,228 L 117,228 L 115,226 L 115,225 L 114,226 L 113,226 L 112,227 L 111,226 L 109,226 L 108,225 Z" fill="none" stroke="black" stroke-width="1"/>
</svg>