<svg xmlns="http://www.w3.org/2000/svg" width="467" height="484">
  <path d="M 84,207 L 82,209 L 81,209 L 80,210 L 77,210 L 76,211 L 75,211 L 74,212 L 73,212 L 72,213 L 69,213 L 68,214 L 67,214 L 65,216 L 63,216 L 63,218 L 64,219 L 64,220 L 67,220 L 68,221 L 68,222 L 69,222 L 70,223 L 70,224 L 67,227 L 67,228 L 66,229 L 67,229 L 69,231 L 73,231 L 75,233 L 76,232 L 80,232 L 83,235 L 85,235 L 86,236 L 88,236 L 89,237 L 91,237 L 90,236 L 90,235 L 91,234 L 91,232 L 87,228 L 87,225 L 86,224 L 86,222 L 87,221 L 87,219 L 88,218 L 89,218 L 91,220 L 91,217 L 92,216 L 92,215 L 93,214 L 93,209 L 92,209 L 91,208 L 91,207 Z" fill="none" stroke="black" stroke-width="1"/>
</svg>