<svg xmlns="http://www.w3.org/2000/svg" width="467" height="484">
  <path d="M 72,232 L 72,233 L 71,234 L 71,238 L 70,239 L 70,242 L 71,243 L 71,245 L 70,246 L 70,249 L 71,250 L 71,252 L 70,253 L 69,253 L 69,254 L 68,255 L 67,255 L 66,256 L 67,257 L 67,258 L 68,259 L 68,260 L 72,264 L 72,265 L 73,266 L 73,269 L 72,270 L 72,273 L 73,274 L 77,274 L 78,273 L 80,273 L 82,271 L 82,270 L 83,269 L 84,269 L 85,268 L 90,268 L 90,266 L 89,266 L 88,265 L 88,264 L 87,263 L 87,262 L 88,261 L 88,260 L 90,258 L 90,256 L 92,254 L 92,249 L 91,248 L 91,239 L 90,238 L 89,238 L 88,237 L 86,237 L 85,236 L 83,236 L 80,233 L 76,233 L 75,234 L 73,232 Z" fill="none" stroke="black" stroke-width="1"/>
</svg>