<svg xmlns="http://www.w3.org/2000/svg" width="467" height="484">
  <path d="M 29,271 L 29,272 L 28,273 L 28,275 L 27,276 L 26,276 L 25,277 L 24,276 L 21,276 L 17,280 L 16,280 L 15,281 L 13,281 L 12,282 L 10,282 L 8,284 L 6,284 L 3,287 L 2,287 L 2,288 L 1,289 L 1,293 L 0,294 L 0,297 L 2,299 L 3,299 L 6,302 L 6,303 L 8,305 L 8,306 L 10,308 L 11,308 L 12,307 L 14,307 L 15,306 L 16,306 L 17,305 L 19,305 L 20,304 L 21,304 L 22,303 L 26,303 L 27,304 L 31,304 L 32,303 L 33,303 L 33,298 L 34,297 L 34,296 L 35,295 L 36,295 L 36,294 L 37,293 L 38,293 L 38,292 L 39,291 L 40,291 L 40,288 L 41,287 L 43,287 L 43,286 L 45,284 L 47,284 L 47,283 L 48,282 L 48,281 L 46,279 L 46,277 L 45,276 L 45,275 L 44,274 L 43,274 L 43,275 L 42,276 L 41,275 L 39,275 L 38,274 L 36,274 L 36,275 L 35,276 L 33,274 L 33,272 L 32,272 L 31,271 Z" fill="none" stroke="black" stroke-width="1"/>
</svg>