<svg xmlns="http://www.w3.org/2000/svg" width="467" height="484">
  <path d="M 66,257 L 65,258 L 64,258 L 64,259 L 63,260 L 62,260 L 62,264 L 61,265 L 60,265 L 60,268 L 59,269 L 59,271 L 58,272 L 57,272 L 57,276 L 56,277 L 54,277 L 54,278 L 53,279 L 51,279 L 51,282 L 50,283 L 48,283 L 48,284 L 47,285 L 45,285 L 44,286 L 44,287 L 43,288 L 41,288 L 41,291 L 40,292 L 39,292 L 39,293 L 38,294 L 37,294 L 37,295 L 36,296 L 35,296 L 35,297 L 34,298 L 34,302 L 35,302 L 36,301 L 47,301 L 48,302 L 48,303 L 49,304 L 49,307 L 50,307 L 51,308 L 51,309 L 52,310 L 58,310 L 59,309 L 61,309 L 62,308 L 63,308 L 63,305 L 64,304 L 64,303 L 66,301 L 67,301 L 71,297 L 77,297 L 77,295 L 76,295 L 75,294 L 75,293 L 74,292 L 73,292 L 70,289 L 69,289 L 68,288 L 68,284 L 69,283 L 69,282 L 70,281 L 70,280 L 71,279 L 71,275 L 72,274 L 71,273 L 71,270 L 72,269 L 72,266 L 71,265 L 71,264 L 67,260 L 67,259 L 66,258 Z" fill="none" stroke="black" stroke-width="1"/>
</svg>