<svg xmlns="http://www.w3.org/2000/svg" width="467" height="484">
  <path d="M 132,275 L 128,279 L 128,280 L 124,284 L 122,282 L 122,285 L 120,287 L 120,288 L 119,289 L 119,290 L 118,291 L 118,294 L 117,295 L 117,297 L 118,298 L 118,300 L 119,301 L 119,306 L 118,307 L 118,311 L 119,312 L 120,312 L 121,313 L 121,314 L 122,315 L 123,315 L 124,316 L 124,312 L 127,309 L 129,309 L 129,308 L 130,307 L 130,306 L 132,304 L 134,304 L 134,303 L 135,302 L 139,302 L 139,300 L 140,299 L 142,299 L 142,298 L 143,297 L 141,295 L 141,293 L 140,292 L 140,291 L 139,290 L 139,289 L 140,288 L 142,288 L 142,287 L 143,286 L 143,285 L 144,284 L 144,283 L 145,282 L 145,281 L 146,280 L 146,279 L 145,278 L 145,277 L 142,277 L 141,276 L 138,276 L 137,275 Z" fill="none" stroke="black" stroke-width="1"/>
</svg>