<svg xmlns="http://www.w3.org/2000/svg" width="467" height="484">
  <path d="M 188,244 L 187,245 L 186,245 L 183,248 L 181,248 L 180,249 L 177,249 L 176,250 L 175,250 L 174,251 L 173,251 L 172,252 L 172,255 L 173,256 L 173,257 L 174,258 L 174,259 L 173,260 L 173,261 L 172,262 L 172,270 L 173,271 L 173,276 L 174,276 L 176,278 L 176,279 L 177,280 L 178,280 L 179,281 L 189,281 L 189,275 L 188,276 L 187,275 L 187,274 L 188,273 L 189,273 L 190,272 L 190,271 L 189,270 L 189,268 L 188,267 L 188,256 L 187,255 L 187,251 L 188,250 L 186,248 L 188,246 L 188,245 L 189,244 Z" fill="none" stroke="black" stroke-width="1"/>
</svg>