<svg xmlns="http://www.w3.org/2000/svg" width="467" height="484">
  <path d="M 63,221 L 62,222 L 62,223 L 61,224 L 60,224 L 58,226 L 58,228 L 57,229 L 57,231 L 56,232 L 56,233 L 55,234 L 53,234 L 53,235 L 52,236 L 49,236 L 48,237 L 48,238 L 47,239 L 44,239 L 44,243 L 43,244 L 41,244 L 41,245 L 40,246 L 38,246 L 37,247 L 37,249 L 36,250 L 36,251 L 34,253 L 33,253 L 32,254 L 31,254 L 30,255 L 29,255 L 26,258 L 24,258 L 23,259 L 23,262 L 24,262 L 25,263 L 25,264 L 26,264 L 27,265 L 27,266 L 28,267 L 28,270 L 31,270 L 32,271 L 33,271 L 34,272 L 34,274 L 35,275 L 35,274 L 36,273 L 38,273 L 39,274 L 41,274 L 42,275 L 42,274 L 43,273 L 44,273 L 46,275 L 46,276 L 47,277 L 47,279 L 49,281 L 49,282 L 50,282 L 50,279 L 51,278 L 53,278 L 53,277 L 54,276 L 56,276 L 56,272 L 57,271 L 58,271 L 58,269 L 59,268 L 59,265 L 60,264 L 61,264 L 61,260 L 62,259 L 63,259 L 63,258 L 64,257 L 65,257 L 65,256 L 67,254 L 68,254 L 68,253 L 69,252 L 70,252 L 70,250 L 69,249 L 69,246 L 70,245 L 70,243 L 69,242 L 69,239 L 70,238 L 70,234 L 71,233 L 71,232 L 69,232 L 67,230 L 66,230 L 65,229 L 66,228 L 66,227 L 69,224 L 69,223 L 68,223 L 67,222 L 67,221 Z" fill="none" stroke="black" stroke-width="1"/>
</svg>