<svg xmlns="http://www.w3.org/2000/svg" width="248" height="151">
  <path d="M 141,47 L 141,48 L 140,49 L 139,49 L 139,51 L 141,53 L 139,55 L 139,56 L 138,57 L 138,58 L 139,59 L 138,60 L 137,60 L 137,61 L 133,65 L 132,65 L 132,66 L 133,67 L 142,67 L 143,68 L 144,68 L 145,69 L 145,70 L 146,71 L 146,72 L 147,73 L 147,74 L 148,75 L 148,76 L 150,78 L 153,78 L 154,79 L 154,81 L 158,85 L 159,85 L 159,84 L 160,83 L 160,82 L 159,81 L 159,79 L 161,77 L 162,77 L 164,75 L 168,75 L 168,74 L 170,72 L 170,71 L 171,70 L 171,69 L 166,64 L 165,64 L 164,65 L 163,65 L 162,64 L 162,62 L 160,60 L 160,58 L 159,57 L 159,54 L 157,52 L 157,51 L 155,49 L 154,49 L 153,50 L 150,47 L 149,47 L 148,48 L 144,48 L 143,47 Z" fill="none" stroke="black" stroke-width="1"/>
</svg>