<svg xmlns="http://www.w3.org/2000/svg" width="467" height="484">
  <path d="M 177,38 L 177,39 L 176,40 L 175,40 L 174,41 L 173,41 L 172,42 L 170,42 L 169,43 L 169,45 L 167,47 L 165,47 L 163,49 L 160,49 L 160,50 L 159,51 L 158,51 L 158,52 L 157,53 L 156,53 L 156,57 L 157,57 L 158,58 L 158,59 L 159,60 L 159,61 L 157,63 L 157,64 L 156,65 L 169,65 L 171,67 L 173,67 L 175,69 L 175,70 L 176,71 L 176,72 L 179,75 L 179,76 L 180,77 L 180,79 L 181,80 L 181,83 L 182,84 L 182,85 L 185,85 L 188,88 L 190,88 L 191,87 L 192,87 L 194,85 L 194,84 L 197,81 L 197,79 L 198,78 L 198,77 L 200,75 L 200,73 L 201,72 L 202,72 L 203,71 L 205,71 L 206,70 L 205,69 L 205,66 L 206,65 L 207,65 L 208,64 L 209,64 L 209,61 L 210,60 L 210,58 L 211,57 L 212,57 L 213,56 L 213,55 L 204,55 L 203,54 L 202,54 L 201,53 L 200,53 L 198,51 L 196,51 L 195,50 L 194,50 L 192,48 L 192,47 L 191,47 L 190,46 L 188,46 L 187,45 L 184,45 L 180,41 L 180,40 L 178,38 Z" fill="none" stroke="black" stroke-width="1"/>
</svg>