<svg xmlns="http://www.w3.org/2000/svg" width="467" height="484">
  <path d="M 192,0 L 191,1 L 190,1 L 189,2 L 186,2 L 184,4 L 183,4 L 182,5 L 181,5 L 180,6 L 179,6 L 179,8 L 175,12 L 175,13 L 174,14 L 173,13 L 171,13 L 171,16 L 172,16 L 173,17 L 173,19 L 174,20 L 174,24 L 175,25 L 175,32 L 176,33 L 176,34 L 177,35 L 177,36 L 181,40 L 181,41 L 184,44 L 187,44 L 188,45 L 190,45 L 191,46 L 192,46 L 193,47 L 193,48 L 194,49 L 195,49 L 196,50 L 198,50 L 200,52 L 201,52 L 202,53 L 203,53 L 204,54 L 213,54 L 213,48 L 212,47 L 212,46 L 210,44 L 209,44 L 208,43 L 208,31 L 211,28 L 211,26 L 210,25 L 210,23 L 208,21 L 208,20 L 207,19 L 207,17 L 206,16 L 206,11 L 207,10 L 207,5 L 208,4 L 200,4 L 199,3 L 199,2 L 197,2 L 196,1 L 196,0 Z" fill="none" stroke="black" stroke-width="1"/>
</svg>