<svg xmlns="http://www.w3.org/2000/svg" width="321" height="333">
  <path d="M 255,1 L 254,2 L 250,2 L 247,5 L 247,7 L 246,8 L 245,8 L 245,9 L 244,10 L 243,10 L 242,11 L 234,11 L 234,13 L 235,14 L 235,16 L 236,17 L 237,17 L 238,18 L 238,21 L 236,23 L 235,23 L 235,24 L 234,25 L 234,27 L 236,29 L 235,30 L 235,31 L 233,33 L 233,34 L 232,35 L 232,37 L 234,39 L 234,40 L 235,40 L 236,41 L 237,41 L 238,40 L 240,42 L 241,42 L 242,43 L 242,44 L 246,44 L 248,46 L 248,47 L 249,48 L 249,49 L 250,50 L 250,52 L 251,51 L 252,51 L 253,50 L 258,50 L 258,45 L 259,44 L 259,42 L 260,41 L 260,36 L 261,35 L 261,33 L 264,30 L 265,30 L 266,29 L 266,28 L 267,27 L 267,21 L 266,21 L 265,20 L 266,19 L 264,17 L 264,14 L 263,14 L 262,13 L 261,13 L 259,11 L 259,8 L 256,5 L 256,3 L 255,2 Z" fill="none" stroke="black" stroke-width="1"/>
</svg>