<svg xmlns="http://www.w3.org/2000/svg" width="321" height="333">
  <path d="M 253,51 L 252,52 L 251,52 L 250,53 L 250,54 L 249,55 L 248,54 L 247,54 L 246,53 L 244,53 L 242,55 L 242,56 L 241,57 L 241,58 L 240,59 L 238,59 L 238,60 L 239,61 L 239,62 L 240,63 L 238,65 L 236,65 L 235,64 L 234,65 L 235,66 L 234,67 L 232,67 L 230,65 L 230,67 L 229,68 L 228,68 L 228,71 L 230,73 L 228,75 L 227,75 L 228,76 L 227,77 L 227,78 L 231,78 L 234,81 L 238,81 L 240,83 L 241,83 L 242,84 L 243,84 L 245,86 L 246,86 L 247,87 L 248,87 L 249,88 L 250,88 L 251,89 L 252,89 L 254,91 L 255,91 L 257,93 L 259,93 L 260,94 L 261,94 L 262,95 L 263,95 L 265,93 L 266,93 L 267,92 L 267,91 L 268,90 L 268,89 L 269,88 L 270,88 L 272,86 L 274,86 L 275,85 L 277,85 L 277,83 L 278,82 L 275,79 L 275,78 L 274,77 L 274,76 L 272,76 L 271,75 L 271,74 L 270,74 L 269,73 L 268,73 L 267,72 L 267,71 L 266,71 L 265,70 L 265,68 L 266,67 L 266,65 L 265,65 L 264,64 L 264,62 L 263,61 L 263,60 L 262,59 L 262,57 L 261,56 L 261,54 L 260,54 L 259,53 L 259,52 L 258,51 Z" fill="none" stroke="black" stroke-width="1"/>
</svg>