<svg xmlns="http://www.w3.org/2000/svg" width="321" height="333">
  <path d="M 244,115 L 243,116 L 242,116 L 241,117 L 240,117 L 239,118 L 239,122 L 241,122 L 242,123 L 242,124 L 245,127 L 245,128 L 246,129 L 246,133 L 248,135 L 252,135 L 254,133 L 255,133 L 260,128 L 261,128 L 262,129 L 262,130 L 261,131 L 261,135 L 262,136 L 262,139 L 263,140 L 263,142 L 265,144 L 265,146 L 267,148 L 267,149 L 270,152 L 277,152 L 278,151 L 279,151 L 279,150 L 280,149 L 280,147 L 279,146 L 279,144 L 280,143 L 281,143 L 281,141 L 282,140 L 283,140 L 284,139 L 284,138 L 285,137 L 285,135 L 286,134 L 286,132 L 283,132 L 282,131 L 282,127 L 281,127 L 280,126 L 280,123 L 279,123 L 278,122 L 275,122 L 274,121 L 271,121 L 270,120 L 268,120 L 264,116 L 258,116 L 257,115 Z" fill="none" stroke="black" stroke-width="1"/>
</svg>