<svg xmlns="http://www.w3.org/2000/svg" width="321" height="333">
  <path d="M 217,136 L 217,138 L 216,139 L 215,139 L 214,138 L 213,138 L 213,141 L 212,142 L 212,147 L 210,149 L 209,149 L 209,150 L 207,152 L 207,154 L 205,156 L 205,158 L 208,161 L 209,161 L 210,162 L 210,163 L 216,163 L 217,164 L 217,165 L 218,165 L 220,167 L 221,167 L 222,168 L 224,168 L 225,169 L 227,169 L 228,170 L 229,170 L 230,171 L 233,171 L 234,170 L 237,170 L 238,171 L 239,171 L 240,172 L 243,172 L 243,167 L 242,166 L 242,165 L 238,161 L 238,159 L 239,158 L 239,155 L 237,153 L 237,152 L 235,150 L 233,150 L 232,149 L 231,149 L 229,147 L 229,146 L 230,145 L 229,144 L 229,142 L 228,142 L 227,141 L 227,140 L 225,138 L 225,137 L 224,137 L 223,136 Z" fill="none" stroke="black" stroke-width="1"/>
</svg>