<svg xmlns="http://www.w3.org/2000/svg" width="321" height="333">
  <path d="M 237,121 L 236,122 L 234,122 L 233,123 L 232,123 L 232,124 L 230,126 L 229,125 L 228,125 L 227,124 L 226,124 L 224,126 L 224,128 L 222,130 L 221,130 L 221,135 L 223,135 L 224,136 L 225,136 L 226,137 L 226,138 L 228,140 L 228,141 L 229,141 L 230,142 L 230,144 L 231,145 L 230,146 L 230,147 L 231,148 L 232,148 L 233,149 L 235,149 L 238,152 L 238,153 L 239,154 L 241,152 L 242,152 L 244,150 L 247,150 L 247,149 L 248,148 L 250,148 L 251,147 L 253,147 L 253,146 L 254,145 L 255,145 L 258,142 L 258,141 L 260,139 L 261,139 L 261,136 L 260,135 L 260,131 L 261,130 L 261,129 L 260,129 L 255,134 L 254,134 L 252,136 L 248,136 L 245,133 L 245,129 L 244,128 L 244,127 L 241,124 L 241,123 L 239,123 L 238,122 L 238,121 Z" fill="none" stroke="black" stroke-width="1"/>
</svg>