<svg xmlns="http://www.w3.org/2000/svg" width="321" height="333">
  <path d="M 260,140 L 259,141 L 259,142 L 255,146 L 254,146 L 254,147 L 253,148 L 251,148 L 250,149 L 248,149 L 248,150 L 247,151 L 244,151 L 242,153 L 241,153 L 240,154 L 240,158 L 239,159 L 239,161 L 243,165 L 243,166 L 244,167 L 244,172 L 245,172 L 246,173 L 246,176 L 249,179 L 250,179 L 251,180 L 252,180 L 253,179 L 253,178 L 254,177 L 261,177 L 263,179 L 264,179 L 265,180 L 267,180 L 268,181 L 277,181 L 278,180 L 282,180 L 283,179 L 283,178 L 281,176 L 281,175 L 280,174 L 280,173 L 279,172 L 279,166 L 280,165 L 280,164 L 281,163 L 281,162 L 284,159 L 283,158 L 283,157 L 282,156 L 282,155 L 280,153 L 280,152 L 278,152 L 277,153 L 270,153 L 266,149 L 266,148 L 264,146 L 264,144 L 262,142 L 262,140 Z" fill="none" stroke="black" stroke-width="1"/>
</svg>