<svg xmlns="http://www.w3.org/2000/svg" width="321" height="333">
  <path d="M 212,88 L 212,89 Z" fill="none" stroke="black" stroke-width="1"/>
  <path d="M 226,78 L 224,80 L 224,82 L 223,83 L 222,83 L 221,84 L 222,85 L 221,86 L 220,86 L 221,87 L 219,89 L 218,89 L 217,88 L 217,89 L 218,89 L 219,90 L 220,90 L 221,91 L 220,92 L 215,92 L 214,93 L 213,92 L 213,91 L 211,91 L 210,90 L 210,91 L 209,92 L 211,92 L 212,93 L 222,93 L 223,92 L 225,94 L 222,97 L 221,97 L 220,98 L 220,99 L 221,100 L 221,101 L 222,101 L 224,103 L 224,105 L 227,108 L 228,108 L 230,110 L 230,112 L 231,113 L 232,113 L 233,114 L 234,114 L 235,115 L 237,115 L 238,116 L 241,116 L 242,115 L 243,115 L 244,114 L 252,114 L 252,112 L 254,110 L 254,109 L 255,108 L 255,107 L 257,105 L 257,101 L 260,98 L 261,98 L 262,97 L 262,96 L 261,95 L 260,95 L 259,94 L 257,94 L 255,92 L 254,92 L 252,90 L 251,90 L 250,89 L 249,89 L 248,88 L 247,88 L 246,87 L 245,87 L 243,85 L 242,85 L 241,84 L 240,84 L 238,82 L 234,82 L 231,79 L 227,79 Z" fill="none" stroke="black" stroke-width="1"/>
</svg>