<svg xmlns="http://www.w3.org/2000/svg" width="321" height="333">
  <path d="M 275,18 L 274,19 L 273,19 L 272,20 L 269,20 L 268,21 L 268,27 L 267,28 L 267,29 L 265,31 L 264,31 L 262,33 L 262,35 L 261,36 L 261,41 L 260,42 L 260,44 L 259,45 L 259,51 L 260,52 L 260,53 L 261,53 L 262,54 L 262,56 L 263,57 L 263,59 L 264,60 L 264,61 L 265,62 L 265,64 L 266,64 L 267,65 L 267,67 L 266,68 L 266,70 L 267,70 L 268,71 L 268,72 L 269,72 L 270,73 L 271,73 L 272,74 L 272,75 L 274,75 L 274,73 L 275,72 L 275,68 L 277,66 L 281,66 L 281,65 L 283,63 L 284,63 L 284,62 L 285,61 L 286,61 L 287,60 L 288,60 L 289,59 L 289,58 L 290,57 L 294,57 L 295,56 L 295,55 L 297,53 L 297,52 L 296,51 L 296,50 L 295,50 L 294,49 L 294,46 L 293,45 L 292,45 L 289,42 L 289,41 L 287,41 L 284,38 L 284,36 L 282,34 L 282,31 L 281,30 L 281,27 L 282,26 L 282,24 L 283,23 L 283,21 L 282,20 L 276,20 L 275,19 Z" fill="none" stroke="black" stroke-width="1"/>
</svg>