<svg xmlns="http://www.w3.org/2000/svg" width="248" height="151">
  <path d="M 103,17 L 102,18 L 98,18 L 95,21 L 94,21 L 91,24 L 90,24 L 89,25 L 86,25 L 86,26 L 85,27 L 85,28 L 86,29 L 86,30 L 87,31 L 87,32 L 86,33 L 89,36 L 89,37 L 92,40 L 92,41 L 95,41 L 96,42 L 96,43 L 97,44 L 97,45 L 101,45 L 103,43 L 103,42 L 105,40 L 106,40 L 107,39 L 109,39 L 110,40 L 111,40 L 112,39 L 113,39 L 114,40 L 114,41 L 116,41 L 117,40 L 119,40 L 121,38 L 122,38 L 122,37 L 123,36 L 124,36 L 123,35 L 124,34 L 125,34 L 126,33 L 128,33 L 128,31 L 127,30 L 126,30 L 125,29 L 125,28 L 126,27 L 126,25 L 127,24 L 127,22 L 126,21 L 125,22 L 124,21 L 120,21 L 118,23 L 117,23 L 115,21 L 113,21 L 112,20 L 111,20 L 109,18 L 108,18 L 107,17 Z" fill="none" stroke="black" stroke-width="1"/>
</svg>