<svg xmlns="http://www.w3.org/2000/svg" width="321" height="333">
  <path d="M 200,96 L 198,98 L 198,99 L 196,101 L 195,101 L 195,102 L 194,103 L 193,102 L 192,102 L 192,103 L 191,104 L 191,108 L 189,110 L 189,111 L 190,111 L 191,110 L 194,110 L 195,111 L 198,111 L 200,113 L 200,114 L 201,114 L 202,115 L 204,115 L 205,116 L 207,116 L 210,119 L 210,120 L 212,122 L 214,122 L 215,121 L 216,121 L 217,120 L 221,120 L 222,121 L 222,122 L 225,122 L 226,123 L 227,123 L 228,124 L 229,124 L 230,125 L 231,124 L 231,123 L 232,122 L 233,122 L 234,121 L 236,121 L 237,120 L 238,120 L 238,118 L 239,117 L 238,117 L 237,116 L 235,116 L 234,115 L 233,115 L 232,114 L 231,114 L 229,112 L 229,110 L 228,109 L 227,109 L 223,105 L 223,103 L 222,102 L 221,102 L 220,101 L 220,100 L 219,99 L 218,99 L 217,100 L 215,100 L 213,98 L 210,98 L 210,99 L 209,100 L 208,99 L 207,99 L 206,98 L 205,99 L 203,97 L 202,97 L 201,98 L 200,97 Z" fill="none" stroke="black" stroke-width="1"/>
</svg>