<svg xmlns="http://www.w3.org/2000/svg" width="321" height="333">
  <path d="M 216,54 L 215,55 L 216,56 L 216,57 L 216,56 L 217,55 Z" fill="none" stroke="black" stroke-width="1"/>
  <path d="M 214,29 L 210,33 L 210,34 L 209,35 L 209,39 L 210,40 L 210,44 L 211,45 L 211,47 L 212,48 L 212,49 L 213,50 L 213,51 L 214,52 L 215,52 L 216,51 L 220,55 L 220,56 L 220,54 L 221,53 L 223,55 L 224,55 L 225,56 L 226,56 L 227,57 L 227,59 L 228,59 L 229,60 L 229,62 L 230,62 L 231,63 L 231,64 L 232,64 L 232,62 L 233,61 L 236,61 L 237,60 L 237,59 L 238,58 L 240,58 L 240,57 L 241,56 L 241,55 L 244,52 L 246,52 L 247,53 L 248,53 L 249,54 L 249,50 L 248,49 L 248,48 L 247,47 L 247,46 L 246,45 L 242,45 L 241,44 L 241,43 L 240,43 L 238,41 L 237,42 L 236,42 L 235,41 L 234,41 L 233,40 L 233,39 L 231,37 L 231,34 L 230,33 L 228,33 L 227,32 L 226,32 L 224,30 L 223,30 L 222,29 L 221,29 L 220,30 L 219,30 L 218,31 L 216,29 Z" fill="none" stroke="black" stroke-width="1"/>
</svg>