<svg xmlns="http://www.w3.org/2000/svg" width="321" height="333">
  <path d="M 193,95 L 193,96 L 194,97 L 194,98 L 194,97 L 195,96 L 196,97 L 196,95 Z" fill="none" stroke="black" stroke-width="1"/>
  <path d="M 190,75 L 190,76 L 189,77 L 188,77 L 188,78 L 187,79 L 185,79 L 184,78 L 181,78 L 179,76 L 173,76 L 173,81 L 175,81 L 176,82 L 176,85 L 177,86 L 177,91 L 178,92 L 178,96 L 177,97 L 173,97 L 173,100 L 172,101 L 171,101 L 171,105 L 172,106 L 178,106 L 179,105 L 181,105 L 182,106 L 182,108 L 183,109 L 183,110 L 185,112 L 186,112 L 187,111 L 188,111 L 188,110 L 190,108 L 190,104 L 191,103 L 191,100 L 192,99 L 192,98 L 190,96 L 190,92 L 189,91 L 190,90 L 190,88 L 191,87 L 191,83 L 192,82 L 192,81 L 193,80 L 193,75 Z" fill="none" stroke="black" stroke-width="1"/>
</svg>