<svg xmlns="http://www.w3.org/2000/svg" width="321" height="333">
  <path d="M 197,63 L 198,64 L 199,64 L 200,65 L 199,66 L 200,66 L 200,64 L 199,64 L 198,63 Z" fill="none" stroke="black" stroke-width="1"/>
  <path d="M 204,42 L 203,43 L 200,43 L 200,44 L 199,45 L 197,45 L 196,46 L 196,47 L 195,48 L 191,48 L 190,49 L 186,49 L 182,53 L 182,54 L 181,55 L 181,56 L 180,57 L 180,61 L 181,62 L 181,66 L 180,67 L 179,67 L 179,70 L 180,71 L 180,76 L 181,77 L 184,77 L 185,78 L 187,78 L 187,77 L 188,76 L 189,76 L 189,75 L 190,74 L 192,74 L 192,73 L 191,72 L 191,71 L 192,70 L 192,68 L 195,65 L 195,62 L 194,61 L 195,60 L 198,60 L 198,59 L 199,58 L 200,59 L 202,57 L 203,58 L 204,57 L 204,56 L 205,55 L 206,56 L 206,57 L 208,57 L 209,56 L 210,57 L 211,57 L 213,55 L 213,54 L 214,53 L 212,51 L 212,50 L 211,49 L 211,48 L 210,47 L 210,45 L 207,45 L 205,43 L 205,42 Z" fill="none" stroke="black" stroke-width="1"/>
</svg>