<svg xmlns="http://www.w3.org/2000/svg" width="321" height="333">
  <path d="M 187,25 L 187,29 L 186,30 L 186,31 L 183,34 L 181,34 L 177,38 L 177,39 L 176,40 L 176,41 L 174,43 L 173,43 L 172,42 L 172,39 L 170,39 L 169,40 L 169,41 L 168,42 L 168,43 L 167,44 L 166,44 L 164,46 L 164,47 L 163,48 L 163,52 L 165,54 L 166,54 L 167,55 L 168,55 L 169,54 L 171,54 L 171,53 L 172,52 L 174,52 L 175,51 L 179,51 L 180,52 L 182,52 L 186,48 L 190,48 L 191,47 L 195,47 L 195,46 L 197,44 L 199,44 L 199,43 L 200,42 L 203,42 L 204,41 L 205,41 L 206,42 L 206,43 L 207,44 L 209,44 L 209,40 L 208,39 L 208,35 L 209,34 L 209,33 L 206,30 L 205,30 L 204,29 L 203,29 L 202,28 L 200,28 L 199,29 L 197,29 L 195,31 L 193,31 L 192,30 L 192,29 L 191,28 L 190,28 L 189,27 L 188,27 L 187,26 Z" fill="none" stroke="black" stroke-width="1"/>
</svg>