<svg xmlns="http://www.w3.org/2000/svg" width="321" height="333">
  <path d="M 175,52 L 174,53 L 172,53 L 172,54 L 171,55 L 169,55 L 168,56 L 167,56 L 166,55 L 165,55 L 163,53 L 160,53 L 158,55 L 158,57 L 156,59 L 156,62 L 157,61 L 158,61 L 159,60 L 160,60 L 161,61 L 162,61 L 163,62 L 163,64 L 161,66 L 160,66 L 157,69 L 156,69 L 155,70 L 154,69 L 154,70 L 155,71 L 155,72 L 156,73 L 156,74 L 157,75 L 156,76 L 156,81 L 157,82 L 158,82 L 159,81 L 160,81 L 161,82 L 165,82 L 166,81 L 167,81 L 170,78 L 172,78 L 172,76 L 173,75 L 179,75 L 179,71 L 178,70 L 178,67 L 179,66 L 180,66 L 180,62 L 179,61 L 179,57 L 180,56 L 180,55 L 181,54 L 181,53 L 180,53 L 179,52 Z" fill="none" stroke="black" stroke-width="1"/>
</svg>