<svg xmlns="http://www.w3.org/2000/svg" width="321" height="333">
  <path d="M 170,79 L 167,82 L 166,82 L 165,83 L 161,83 L 160,82 L 159,82 L 158,83 L 157,83 L 155,81 L 154,81 L 152,83 L 152,86 L 154,88 L 154,90 L 155,91 L 155,92 L 152,95 L 152,96 L 150,98 L 149,97 L 148,98 L 148,99 L 147,100 L 147,101 L 148,102 L 149,102 L 150,101 L 154,101 L 155,102 L 155,103 L 161,103 L 161,101 L 163,99 L 163,98 L 164,97 L 165,97 L 166,96 L 167,97 L 168,97 L 169,96 L 177,96 L 177,92 L 176,91 L 176,86 L 175,85 L 175,82 L 173,82 L 172,81 L 172,79 Z" fill="none" stroke="black" stroke-width="1"/>
</svg>