<svg xmlns="http://www.w3.org/2000/svg" width="321" height="333">
  <path d="M 144,95 L 142,97 L 141,97 L 140,98 L 140,100 L 138,102 L 137,102 L 137,103 L 133,107 L 133,109 L 132,110 L 132,113 L 133,114 L 136,114 L 139,117 L 139,118 L 141,118 L 142,119 L 150,119 L 150,118 L 151,117 L 151,116 L 150,115 L 151,114 L 151,113 L 156,108 L 159,108 L 158,107 L 158,104 L 155,104 L 154,103 L 154,102 L 150,102 L 149,103 L 148,103 L 146,101 L 146,97 L 147,96 L 146,95 Z" fill="none" stroke="black" stroke-width="1"/>
</svg>