<svg xmlns="http://www.w3.org/2000/svg" width="321" height="333">
  <path d="M 166,97 L 165,98 L 164,98 L 164,99 L 162,101 L 162,103 L 161,104 L 159,104 L 159,107 L 160,108 L 160,109 L 162,109 L 163,110 L 163,111 L 165,113 L 165,114 L 166,114 L 169,117 L 170,117 L 171,118 L 172,118 L 173,119 L 177,119 L 178,120 L 185,120 L 187,118 L 187,117 L 186,116 L 186,115 L 185,114 L 185,113 L 182,110 L 182,109 L 181,108 L 181,106 L 179,106 L 178,107 L 172,107 L 170,105 L 170,101 L 171,100 L 172,100 L 172,97 L 169,97 L 168,98 L 167,98 Z" fill="none" stroke="black" stroke-width="1"/>
</svg>