<svg xmlns="http://www.w3.org/2000/svg" width="321" height="333">
  <path d="M 156,109 L 153,112 L 153,113 L 154,113 L 155,114 L 154,115 L 154,119 L 155,120 L 155,122 L 156,123 L 156,124 L 158,126 L 158,128 L 160,130 L 160,131 L 159,132 L 159,135 L 158,136 L 162,140 L 162,143 L 161,144 L 161,145 L 165,145 L 166,144 L 166,143 L 169,140 L 170,140 L 171,139 L 173,139 L 175,137 L 175,136 L 176,135 L 176,133 L 174,131 L 174,130 L 175,129 L 175,128 L 176,127 L 175,126 L 175,124 L 173,122 L 172,122 L 171,121 L 171,119 L 170,118 L 169,118 L 166,115 L 165,115 L 164,114 L 164,113 L 162,111 L 162,110 L 160,110 L 159,109 Z" fill="none" stroke="black" stroke-width="1"/>
</svg>