<svg xmlns="http://www.w3.org/2000/svg" width="248" height="151">
  <path d="M 241,137 L 241,140 L 242,141 L 242,143 L 243,143 L 244,142 L 244,141 L 243,140 L 243,139 Z" fill="none" stroke="black" stroke-width="1"/>
  <path d="M 234,120 L 234,123 L 231,126 L 231,130 L 230,131 L 230,133 L 228,135 L 226,135 L 226,139 L 227,140 L 238,140 L 238,136 L 239,135 L 242,135 L 244,137 L 245,137 L 246,138 L 247,138 L 247,136 L 241,130 L 241,129 L 242,128 L 241,127 L 241,126 L 238,123 L 238,122 L 237,122 L 235,120 Z" fill="none" stroke="black" stroke-width="1"/>
</svg>