<svg xmlns="http://www.w3.org/2000/svg" width="321" height="333">
  <path d="M 191,111 L 190,112 L 187,112 L 186,113 L 186,114 L 187,115 L 187,116 L 188,117 L 188,118 L 185,121 L 178,121 L 177,120 L 173,120 L 172,119 L 172,121 L 173,121 L 176,124 L 176,126 L 177,127 L 176,128 L 176,129 L 175,130 L 175,131 L 177,133 L 177,134 L 178,134 L 180,132 L 182,132 L 183,131 L 183,130 L 184,129 L 188,129 L 189,130 L 189,131 L 192,134 L 193,134 L 195,136 L 195,137 L 197,137 L 199,135 L 199,134 L 201,132 L 203,132 L 204,131 L 204,129 L 206,127 L 208,127 L 208,126 L 209,125 L 209,124 L 210,123 L 211,123 L 211,122 L 209,120 L 209,119 L 207,117 L 205,117 L 204,116 L 202,116 L 201,115 L 200,115 L 199,114 L 199,113 L 198,112 L 195,112 L 194,111 Z" fill="none" stroke="black" stroke-width="1"/>
</svg>