<svg xmlns="http://www.w3.org/2000/svg" width="321" height="333">
  <path d="M 184,130 L 184,131 L 182,133 L 180,133 L 178,135 L 177,135 L 176,136 L 176,137 L 173,140 L 171,140 L 170,141 L 169,141 L 167,143 L 167,144 L 165,146 L 161,146 L 161,147 L 163,149 L 163,150 L 164,151 L 164,153 L 162,155 L 161,155 L 161,158 L 160,159 L 163,162 L 167,162 L 170,165 L 171,164 L 175,164 L 175,163 L 177,161 L 179,161 L 180,160 L 186,160 L 187,161 L 188,161 L 189,162 L 190,162 L 191,163 L 192,163 L 192,160 L 194,158 L 194,153 L 195,152 L 195,151 L 197,149 L 198,149 L 198,147 L 195,144 L 195,142 L 196,141 L 196,140 L 197,139 L 197,138 L 195,138 L 194,137 L 194,136 L 193,135 L 192,135 L 188,131 L 188,130 Z" fill="none" stroke="black" stroke-width="1"/>
</svg>