<svg xmlns="http://www.w3.org/2000/svg" width="321" height="333">
  <path d="M 207,161 L 207,162 L 205,164 L 205,165 L 202,168 L 201,168 L 201,169 L 202,170 L 202,171 L 203,171 L 205,173 L 205,174 L 204,175 L 204,178 L 205,179 L 205,180 L 206,181 L 206,185 L 209,188 L 209,189 L 210,189 L 211,190 L 211,191 L 210,192 L 209,192 L 208,193 L 206,193 L 205,194 L 205,196 L 206,197 L 206,200 L 204,202 L 204,203 L 206,205 L 207,205 L 208,204 L 211,204 L 212,203 L 213,203 L 214,202 L 215,202 L 216,201 L 219,201 L 220,200 L 221,200 L 223,198 L 230,198 L 234,194 L 235,194 L 236,193 L 236,192 L 237,191 L 237,190 L 240,187 L 241,187 L 241,186 L 243,184 L 245,184 L 248,181 L 250,181 L 250,180 L 249,180 L 245,176 L 245,173 L 240,173 L 239,172 L 238,172 L 237,171 L 234,171 L 233,172 L 230,172 L 229,171 L 228,171 L 227,170 L 225,170 L 224,169 L 222,169 L 221,168 L 220,168 L 218,166 L 217,166 L 216,165 L 216,164 L 210,164 L 209,163 L 209,162 L 208,162 Z" fill="none" stroke="black" stroke-width="1"/>
</svg>