<svg xmlns="http://www.w3.org/2000/svg" width="321" height="333">
  <path d="M 198,0 L 197,1 L 194,1 L 193,2 L 191,2 L 190,3 L 189,3 L 187,5 L 186,5 L 186,8 L 185,9 L 185,13 L 184,14 L 184,15 L 183,16 L 183,18 L 185,20 L 185,21 L 186,22 L 186,24 L 187,24 L 188,25 L 188,26 L 189,26 L 190,27 L 191,27 L 193,29 L 193,30 L 195,30 L 197,28 L 199,28 L 200,27 L 202,27 L 203,28 L 204,28 L 205,29 L 206,29 L 209,32 L 210,32 L 213,29 L 212,28 L 212,27 L 210,25 L 210,18 L 208,16 L 208,15 L 206,13 L 206,8 L 207,7 L 208,7 L 206,5 L 206,4 L 205,3 L 205,2 L 204,2 L 203,1 L 202,1 L 201,0 Z" fill="none" stroke="black" stroke-width="1"/>
</svg>