<svg xmlns="http://www.w3.org/2000/svg" width="321" height="333">
  <path d="M 219,5 L 218,6 L 216,6 L 215,7 L 214,7 L 213,8 L 207,8 L 207,13 L 209,15 L 209,16 L 211,18 L 211,25 L 213,27 L 213,28 L 216,28 L 218,30 L 219,29 L 220,29 L 221,28 L 222,28 L 223,29 L 224,29 L 226,31 L 227,31 L 228,32 L 230,32 L 232,34 L 232,33 L 234,31 L 234,30 L 235,29 L 233,27 L 233,25 L 234,24 L 234,23 L 235,22 L 236,22 L 237,21 L 237,18 L 236,18 L 234,16 L 234,14 L 233,13 L 233,12 L 228,12 L 227,11 L 227,10 L 225,8 L 224,8 L 223,7 L 223,6 L 222,5 Z" fill="none" stroke="black" stroke-width="1"/>
</svg>