<svg xmlns="http://www.w3.org/2000/svg" width="321" height="333">
  <path d="M 217,121 L 216,122 L 215,122 L 214,123 L 212,123 L 211,124 L 210,124 L 210,125 L 209,126 L 209,127 L 208,128 L 206,128 L 205,129 L 205,131 L 203,133 L 201,133 L 200,134 L 200,135 L 198,137 L 198,139 L 197,140 L 197,141 L 196,142 L 196,144 L 199,147 L 199,149 L 198,150 L 197,150 L 196,151 L 196,152 L 195,153 L 195,158 L 193,160 L 193,163 L 192,164 L 192,165 L 193,165 L 194,166 L 195,166 L 196,167 L 202,167 L 204,165 L 204,164 L 206,162 L 206,160 L 204,158 L 204,156 L 206,154 L 206,152 L 208,150 L 208,149 L 209,148 L 210,148 L 211,147 L 211,142 L 212,141 L 212,138 L 213,137 L 214,137 L 215,138 L 216,138 L 216,136 L 217,135 L 220,135 L 220,130 L 221,129 L 222,129 L 223,128 L 223,126 L 225,124 L 225,123 L 222,123 L 221,122 L 221,121 Z" fill="none" stroke="black" stroke-width="1"/>
</svg>