<svg xmlns="http://www.w3.org/2000/svg" width="321" height="333">
  <path d="M 180,161 L 179,162 L 177,162 L 176,163 L 176,164 L 175,165 L 171,165 L 171,168 L 174,171 L 174,172 L 173,173 L 173,174 L 174,175 L 174,180 L 177,183 L 177,184 L 178,185 L 178,186 L 179,187 L 179,188 L 180,189 L 180,191 L 183,194 L 183,197 L 184,198 L 184,200 L 185,200 L 187,202 L 187,204 L 188,205 L 188,206 L 192,210 L 192,212 L 193,213 L 194,213 L 195,214 L 195,216 L 196,217 L 196,218 L 199,215 L 200,215 L 200,214 L 202,212 L 202,211 L 201,210 L 201,208 L 202,207 L 204,207 L 205,206 L 205,205 L 203,203 L 203,202 L 205,200 L 205,197 L 204,196 L 204,194 L 206,192 L 208,192 L 209,191 L 210,191 L 210,190 L 209,190 L 208,189 L 208,188 L 205,185 L 205,181 L 204,180 L 204,179 L 203,178 L 203,175 L 204,174 L 204,173 L 203,172 L 202,172 L 201,171 L 201,170 L 200,169 L 200,168 L 196,168 L 195,167 L 194,167 L 193,166 L 192,166 L 191,165 L 191,164 L 190,163 L 189,163 L 188,162 L 187,162 L 186,161 Z" fill="none" stroke="black" stroke-width="1"/>
</svg>