<svg xmlns="http://www.w3.org/2000/svg" width="465" height="369">
  <path d="M 242,0 L 241,1 L 240,1 L 239,2 L 237,2 L 236,3 L 234,3 L 235,3 L 236,4 L 236,6 L 237,6 L 238,5 L 239,5 L 240,6 L 239,7 L 239,8 L 238,9 L 237,9 L 236,8 L 236,10 L 237,9 L 238,10 L 239,10 L 240,11 L 240,13 L 239,14 L 238,13 L 238,12 L 237,12 L 238,13 L 238,14 L 239,14 L 241,16 L 241,18 L 242,19 L 243,18 L 244,18 L 247,21 L 249,21 L 250,22 L 249,23 L 246,23 L 244,21 L 243,21 L 245,23 L 246,23 L 247,24 L 247,25 L 248,25 L 251,28 L 252,28 L 253,29 L 253,30 L 258,35 L 258,36 L 260,38 L 261,38 L 263,40 L 263,42 L 264,43 L 267,43 L 267,41 L 268,40 L 268,39 L 270,37 L 270,36 L 272,34 L 272,32 L 275,29 L 275,27 L 276,26 L 276,22 L 277,21 L 278,21 L 278,19 L 277,19 L 274,16 L 273,16 L 272,15 L 270,15 L 268,13 L 267,13 L 266,12 L 263,12 L 260,9 L 260,5 L 259,6 L 257,6 L 256,5 L 255,5 L 253,3 L 252,3 L 251,2 L 248,2 L 247,1 L 244,1 L 243,0 Z" fill="none" stroke="black" stroke-width="1"/>
</svg>