<svg xmlns="http://www.w3.org/2000/svg" width="465" height="369">
  <path d="M 286,57 L 285,58 L 278,58 L 278,60 L 279,61 L 279,62 L 280,63 L 280,64 L 281,65 L 281,67 L 282,68 L 282,69 L 281,70 L 281,72 L 282,73 L 282,74 L 284,76 L 288,76 L 290,74 L 291,74 L 292,73 L 294,75 L 295,74 L 296,74 L 300,78 L 301,78 L 302,79 L 303,79 L 305,81 L 305,78 L 306,77 L 306,76 L 307,75 L 309,75 L 309,70 L 308,69 L 308,64 L 309,63 L 309,61 L 305,61 L 304,62 L 302,62 L 301,61 L 301,60 L 299,60 L 298,59 L 295,59 L 294,58 L 292,58 L 291,57 Z" fill="none" stroke="black" stroke-width="1"/>
</svg>