<svg xmlns="http://www.w3.org/2000/svg" width="465" height="369">
  <path d="M 295,75 L 294,76 L 293,76 L 292,77 L 291,77 L 290,78 L 286,78 L 285,79 L 283,79 L 283,80 L 285,82 L 285,84 L 286,85 L 286,86 L 290,90 L 290,91 L 292,93 L 292,98 L 293,99 L 293,100 L 294,101 L 294,102 L 295,103 L 295,105 L 297,105 L 298,104 L 300,104 L 301,103 L 302,104 L 304,104 L 305,103 L 305,97 L 306,96 L 306,95 L 307,94 L 307,88 L 306,87 L 306,84 L 305,83 L 305,82 L 303,80 L 302,80 L 301,79 L 300,79 L 296,75 Z" fill="none" stroke="black" stroke-width="1"/>
</svg>