<svg xmlns="http://www.w3.org/2000/svg" width="248" height="151">
  <path d="M 164,76 L 162,78 L 161,78 L 160,79 L 160,81 L 161,82 L 161,83 L 160,84 L 160,86 L 159,87 L 159,88 L 160,89 L 161,89 L 162,90 L 163,90 L 164,91 L 164,92 L 167,95 L 167,96 L 168,97 L 168,98 L 169,98 L 171,100 L 172,100 L 173,101 L 173,102 L 174,103 L 175,102 L 176,102 L 177,101 L 179,101 L 179,100 L 181,98 L 182,98 L 183,97 L 183,95 L 182,94 L 182,91 L 181,91 L 180,90 L 180,88 L 181,87 L 179,87 L 177,85 L 177,83 L 175,83 L 174,82 L 174,78 L 173,78 L 172,77 L 169,77 L 168,76 Z" fill="none" stroke="black" stroke-width="1"/>
</svg>