<svg xmlns="http://www.w3.org/2000/svg" width="465" height="369">
  <path d="M 346,30 L 346,37 L 345,38 L 345,39 L 341,43 L 339,43 L 338,44 L 337,44 L 336,45 L 335,45 L 335,48 L 339,52 L 339,54 L 338,55 L 338,57 L 339,58 L 339,60 L 338,61 L 338,62 L 337,63 L 340,66 L 341,66 L 342,67 L 342,69 L 345,69 L 345,68 L 346,67 L 346,66 L 347,65 L 347,64 L 349,62 L 349,61 L 351,59 L 351,58 L 353,56 L 354,56 L 354,55 L 358,51 L 359,51 L 360,50 L 361,50 L 361,48 L 362,47 L 362,37 L 361,37 L 360,36 L 360,35 L 358,33 L 358,32 L 357,31 L 357,30 Z" fill="none" stroke="black" stroke-width="1"/>
</svg>