<svg xmlns="http://www.w3.org/2000/svg" width="465" height="369">
  <path d="M 367,117 L 367,118 L 366,119 L 366,123 L 365,124 L 365,125 L 364,126 L 364,127 L 362,129 L 361,129 L 362,130 L 362,131 L 363,132 L 363,137 L 362,138 L 362,139 L 361,140 L 360,140 L 360,141 L 359,142 L 358,142 L 355,145 L 352,145 L 352,147 L 353,148 L 353,150 L 357,150 L 358,151 L 363,151 L 364,150 L 365,150 L 366,149 L 367,149 L 372,154 L 374,154 L 375,155 L 376,155 L 377,156 L 377,158 L 383,164 L 383,165 L 384,165 L 385,166 L 385,167 L 386,167 L 387,168 L 388,168 L 389,169 L 390,169 L 391,170 L 395,170 L 396,169 L 396,168 L 397,167 L 397,164 L 399,162 L 399,160 L 400,159 L 400,150 L 395,150 L 394,149 L 394,148 L 391,145 L 390,145 L 384,139 L 384,135 L 383,134 L 383,131 L 382,130 L 382,128 L 379,125 L 379,124 L 377,122 L 376,122 L 375,121 L 374,121 L 373,120 L 373,119 L 371,117 Z" fill="none" stroke="black" stroke-width="1"/>
</svg>