<svg xmlns="http://www.w3.org/2000/svg" width="465" height="369">
  <path d="M 375,99 L 374,100 L 374,101 L 373,102 L 372,102 L 371,103 L 363,103 L 363,104 L 364,105 L 364,111 L 365,112 L 365,113 L 367,115 L 367,116 L 371,116 L 374,119 L 374,120 L 375,120 L 376,121 L 377,121 L 380,124 L 380,125 L 383,128 L 383,130 L 384,131 L 384,134 L 385,135 L 385,139 L 390,144 L 391,144 L 395,148 L 395,149 L 400,149 L 401,150 L 402,149 L 406,149 L 407,148 L 408,148 L 409,147 L 409,143 L 408,142 L 408,140 L 407,139 L 407,133 L 408,132 L 408,131 L 409,130 L 409,129 L 410,128 L 410,125 L 409,124 L 409,121 L 408,120 L 408,118 L 407,117 L 407,116 L 405,114 L 405,113 L 404,112 L 402,112 L 401,111 L 401,110 L 400,109 L 398,109 L 396,107 L 396,106 L 392,106 L 388,102 L 387,102 L 386,101 L 383,101 L 382,100 L 381,100 L 380,99 Z" fill="none" stroke="black" stroke-width="1"/>
</svg>