<svg xmlns="http://www.w3.org/2000/svg" width="465" height="369">
  <path d="M 366,150 L 365,151 L 364,151 L 363,152 L 358,152 L 357,151 L 353,151 L 350,154 L 346,154 L 345,155 L 341,155 L 340,156 L 339,156 L 339,161 L 340,161 L 341,162 L 341,167 L 343,169 L 343,170 L 348,175 L 349,175 L 350,176 L 355,176 L 357,174 L 358,174 L 361,171 L 366,171 L 367,172 L 368,172 L 369,173 L 370,173 L 372,175 L 375,175 L 376,174 L 379,174 L 380,173 L 382,173 L 383,172 L 385,172 L 386,171 L 386,168 L 385,168 L 384,167 L 384,166 L 383,166 L 382,165 L 382,164 L 376,158 L 376,156 L 375,156 L 374,155 L 372,155 L 367,150 Z" fill="none" stroke="black" stroke-width="1"/>
</svg>