<svg xmlns="http://www.w3.org/2000/svg" width="465" height="369">
  <path d="M 363,47 L 362,48 L 362,50 L 361,51 L 360,51 L 359,52 L 358,52 L 355,55 L 355,56 L 354,57 L 353,57 L 352,58 L 352,59 L 350,61 L 350,62 L 348,64 L 348,65 L 347,66 L 347,67 L 346,68 L 346,69 L 345,70 L 343,70 L 343,73 L 345,75 L 345,81 L 344,82 L 344,83 L 342,85 L 342,86 L 341,87 L 342,88 L 342,89 L 343,90 L 343,91 L 346,94 L 347,94 L 348,95 L 349,95 L 350,96 L 356,96 L 357,97 L 358,97 L 359,98 L 360,98 L 363,101 L 363,102 L 371,102 L 372,101 L 373,101 L 373,100 L 375,98 L 379,98 L 379,93 L 378,92 L 378,91 L 377,90 L 377,88 L 380,85 L 380,78 L 377,75 L 377,74 L 376,73 L 376,72 L 375,71 L 375,67 L 374,66 L 374,64 L 377,61 L 375,59 L 374,59 L 372,57 L 372,55 L 371,54 L 371,53 L 367,49 L 366,49 L 365,48 L 364,48 Z" fill="none" stroke="black" stroke-width="1"/>
</svg>