<svg xmlns="http://www.w3.org/2000/svg" width="465" height="369">
  <path d="M 366,25 L 365,26 L 362,26 L 361,27 L 358,27 L 358,31 L 359,32 L 359,33 L 361,35 L 361,36 L 362,36 L 363,37 L 363,46 L 364,47 L 365,47 L 366,48 L 367,48 L 372,53 L 372,54 L 373,55 L 373,57 L 374,58 L 375,58 L 379,62 L 381,62 L 382,63 L 393,63 L 394,64 L 396,64 L 397,65 L 397,63 L 398,62 L 399,62 L 401,60 L 402,60 L 406,56 L 407,56 L 408,55 L 409,55 L 410,54 L 414,54 L 413,53 L 413,47 L 414,46 L 414,44 L 415,43 L 415,42 L 416,41 L 416,40 L 418,38 L 418,37 L 420,35 L 401,35 L 400,34 L 394,34 L 393,33 L 392,33 L 391,32 L 390,32 L 388,30 L 387,30 L 386,29 L 385,29 L 384,28 L 383,28 L 382,27 L 380,27 L 379,26 L 378,26 L 377,25 Z" fill="none" stroke="black" stroke-width="1"/>
</svg>