<svg xmlns="http://www.w3.org/2000/svg" width="465" height="369">
  <path d="M 377,62 L 375,64 L 375,66 L 376,67 L 376,71 L 377,72 L 377,73 L 378,74 L 378,75 L 381,78 L 381,85 L 378,88 L 378,90 L 379,91 L 379,92 L 380,93 L 380,98 L 381,99 L 382,99 L 383,100 L 386,100 L 387,101 L 388,101 L 392,105 L 396,105 L 397,106 L 397,107 L 398,108 L 400,108 L 402,110 L 402,111 L 404,111 L 405,110 L 407,110 L 411,106 L 411,105 L 412,104 L 413,104 L 414,103 L 415,103 L 416,102 L 416,100 L 417,99 L 418,99 L 419,98 L 419,97 L 420,96 L 420,94 L 418,94 L 417,93 L 416,93 L 415,92 L 414,92 L 413,91 L 411,91 L 410,90 L 409,90 L 407,88 L 407,87 L 403,83 L 403,82 L 402,81 L 402,80 L 400,78 L 400,74 L 401,73 L 401,70 L 400,70 L 399,69 L 399,68 L 398,68 L 397,67 L 397,66 L 396,65 L 394,65 L 393,64 L 382,64 L 381,63 L 379,63 L 378,62 Z" fill="none" stroke="black" stroke-width="1"/>
</svg>