<svg xmlns="http://www.w3.org/2000/svg" width="465" height="369">
  <path d="M 415,54 L 414,55 L 410,55 L 409,56 L 408,56 L 407,57 L 406,57 L 402,61 L 401,61 L 399,63 L 398,63 L 398,67 L 399,67 L 400,68 L 400,69 L 401,69 L 402,70 L 402,73 L 401,74 L 401,78 L 403,80 L 403,81 L 404,82 L 404,83 L 408,87 L 408,88 L 409,89 L 410,89 L 411,90 L 413,90 L 414,91 L 415,91 L 416,92 L 417,92 L 418,93 L 421,93 L 422,92 L 436,92 L 437,91 L 438,91 L 439,90 L 440,90 L 443,87 L 443,84 L 444,83 L 444,78 L 445,77 L 446,77 L 447,76 L 447,75 L 448,74 L 448,68 L 445,65 L 444,65 L 442,63 L 441,63 L 440,62 L 436,62 L 435,61 L 434,61 L 432,59 L 429,59 L 428,58 L 422,58 L 421,57 L 417,57 L 415,55 Z" fill="none" stroke="black" stroke-width="1"/>
</svg>