<svg xmlns="http://www.w3.org/2000/svg" width="321" height="333">
  <path d="M 45,112 L 44,113 L 42,113 L 41,114 L 40,114 L 39,115 L 30,115 L 29,114 L 25,114 L 24,115 L 24,116 L 22,118 L 22,119 L 21,120 L 21,121 L 20,122 L 20,124 L 19,125 L 19,131 L 20,131 L 21,132 L 21,133 L 22,134 L 26,134 L 27,135 L 33,135 L 34,136 L 37,136 L 39,138 L 40,138 L 41,139 L 45,139 L 46,140 L 47,140 L 49,142 L 54,142 L 56,140 L 56,138 L 57,137 L 57,136 L 59,134 L 60,134 L 61,133 L 62,133 L 63,132 L 64,132 L 65,131 L 68,131 L 73,126 L 74,126 L 74,125 L 73,124 L 73,122 L 69,122 L 68,121 L 68,119 L 66,119 L 65,118 L 64,118 L 62,116 L 61,116 L 60,115 L 58,115 L 57,114 L 55,114 L 53,112 Z" fill="none" stroke="black" stroke-width="1"/>
</svg>