<svg xmlns="http://www.w3.org/2000/svg" width="321" height="333">
  <path d="M 75,125 L 75,126 L 74,127 L 73,127 L 68,132 L 65,132 L 64,133 L 63,133 L 62,134 L 61,134 L 60,135 L 59,135 L 58,136 L 58,137 L 57,138 L 57,140 L 54,143 L 51,143 L 54,146 L 54,148 L 58,148 L 59,149 L 67,149 L 68,150 L 70,150 L 71,151 L 72,151 L 73,152 L 74,152 L 75,153 L 76,153 L 77,154 L 77,155 L 80,155 L 81,154 L 87,154 L 88,153 L 90,153 L 91,152 L 99,152 L 100,151 L 99,150 L 99,147 L 96,147 L 95,146 L 93,146 L 91,144 L 91,142 L 85,136 L 85,135 L 84,134 L 84,130 L 85,129 L 85,128 L 84,127 L 84,126 L 77,126 L 76,125 Z" fill="none" stroke="black" stroke-width="1"/>
</svg>