<svg xmlns="http://www.w3.org/2000/svg" width="248" height="151">
  <path d="M 181,64 L 180,65 L 178,65 L 177,66 L 176,66 L 175,67 L 173,67 L 173,68 L 172,69 L 172,70 L 171,71 L 171,72 L 169,74 L 169,76 L 172,76 L 173,77 L 174,77 L 175,78 L 175,82 L 177,82 L 178,83 L 178,85 L 179,86 L 181,86 L 182,87 L 181,88 L 181,90 L 182,90 L 183,91 L 183,93 L 187,93 L 188,94 L 189,94 L 190,93 L 190,92 L 191,91 L 192,91 L 193,90 L 193,89 L 196,86 L 197,87 L 201,87 L 198,84 L 198,83 L 197,82 L 197,78 L 195,76 L 195,71 L 194,70 L 193,70 L 192,69 L 191,69 L 190,68 L 190,66 L 189,65 L 187,65 L 186,66 L 185,65 L 184,65 L 183,64 Z" fill="none" stroke="black" stroke-width="1"/>
</svg>