<svg xmlns="http://www.w3.org/2000/svg" width="465" height="369">
  <path d="M 444,84 L 444,87 L 440,91 L 439,91 L 438,92 L 437,92 L 436,93 L 422,93 L 421,94 L 421,96 L 420,97 L 420,98 L 418,100 L 417,100 L 417,102 L 415,104 L 414,104 L 413,105 L 412,105 L 412,106 L 407,111 L 405,111 L 405,112 L 406,113 L 406,114 L 408,116 L 408,117 L 409,118 L 409,120 L 410,121 L 410,124 L 411,125 L 411,128 L 410,129 L 410,130 L 411,130 L 412,129 L 413,129 L 416,126 L 417,126 L 421,122 L 422,122 L 427,117 L 438,117 L 439,116 L 442,116 L 443,115 L 446,115 L 447,114 L 450,114 L 450,112 L 448,110 L 448,109 L 447,108 L 447,102 L 452,97 L 452,93 L 451,92 L 451,91 L 450,90 L 450,88 L 448,86 L 447,86 L 446,85 L 446,84 Z" fill="none" stroke="black" stroke-width="1"/>
</svg>