<svg xmlns="http://www.w3.org/2000/svg" width="465" height="369">
  <path d="M 447,115 L 446,116 L 443,116 L 442,117 L 439,117 L 438,118 L 427,118 L 422,123 L 421,123 L 417,127 L 416,127 L 413,130 L 412,130 L 411,131 L 409,131 L 409,132 L 408,133 L 408,139 L 409,140 L 409,142 L 410,143 L 410,147 L 412,149 L 421,149 L 422,150 L 428,150 L 429,149 L 433,149 L 437,145 L 437,144 L 438,143 L 438,142 L 440,140 L 441,140 L 442,139 L 443,139 L 444,138 L 449,138 L 450,137 L 454,137 L 456,135 L 460,135 L 463,132 L 463,131 L 464,130 L 463,130 L 462,129 L 462,128 L 459,125 L 459,124 L 457,122 L 457,121 L 456,120 L 456,119 L 455,118 L 454,118 L 453,117 L 452,117 L 451,116 L 451,115 Z" fill="none" stroke="black" stroke-width="1"/>
</svg>