<svg xmlns="http://www.w3.org/2000/svg" width="465" height="369">
  <path d="M 456,136 L 454,138 L 450,138 L 449,139 L 444,139 L 443,140 L 442,140 L 441,141 L 440,141 L 439,142 L 439,143 L 438,144 L 438,145 L 433,150 L 429,150 L 428,151 L 422,151 L 421,150 L 412,150 L 410,148 L 409,148 L 408,149 L 407,149 L 406,150 L 402,150 L 401,151 L 401,159 L 400,160 L 400,162 L 398,164 L 405,164 L 406,165 L 407,165 L 409,167 L 410,167 L 411,168 L 412,168 L 413,169 L 415,169 L 416,170 L 421,170 L 422,169 L 425,169 L 426,168 L 427,168 L 428,167 L 429,167 L 430,166 L 436,166 L 437,167 L 443,167 L 444,168 L 447,168 L 448,167 L 448,166 L 449,165 L 449,163 L 452,160 L 453,160 L 459,154 L 459,148 L 458,147 L 458,145 L 457,144 L 458,143 L 458,140 L 459,139 L 459,136 Z" fill="none" stroke="black" stroke-width="1"/>
</svg>