<svg xmlns="http://www.w3.org/2000/svg" width="321" height="333">
  <path d="M 3,243 L 3,245 L 2,246 L 2,247 L 0,249 L 0,252 L 1,253 L 1,254 L 3,256 L 4,256 L 5,257 L 7,257 L 9,259 L 10,259 L 13,262 L 14,262 L 20,268 L 22,268 L 24,266 L 29,266 L 31,268 L 31,269 L 33,271 L 35,271 L 36,272 L 37,272 L 38,273 L 44,273 L 45,274 L 48,274 L 49,275 L 50,275 L 51,276 L 52,276 L 53,277 L 56,277 L 56,274 L 55,273 L 54,273 L 50,269 L 50,265 L 49,264 L 49,262 L 48,261 L 48,260 L 47,259 L 47,258 L 48,257 L 48,256 L 49,255 L 49,250 L 50,249 L 51,249 L 51,247 L 49,247 L 48,246 L 42,246 L 41,245 L 35,245 L 34,246 L 33,246 L 32,247 L 31,247 L 30,248 L 27,248 L 26,249 L 21,249 L 20,248 L 18,248 L 17,247 L 16,247 L 15,246 L 14,246 L 12,244 L 11,244 L 10,243 Z" fill="none" stroke="black" stroke-width="1"/>
</svg>