<svg xmlns="http://www.w3.org/2000/svg" width="321" height="333">
  <path d="M 64,233 L 58,239 L 57,239 L 55,241 L 55,243 L 54,244 L 54,245 L 52,247 L 52,249 L 51,250 L 50,250 L 50,255 L 49,256 L 49,257 L 48,258 L 48,259 L 49,260 L 49,261 L 50,262 L 50,264 L 51,265 L 51,269 L 54,272 L 55,272 L 57,274 L 57,278 L 58,279 L 66,279 L 67,278 L 68,278 L 69,277 L 70,277 L 70,276 L 72,274 L 73,274 L 74,273 L 81,273 L 82,272 L 83,272 L 85,270 L 86,270 L 87,269 L 88,269 L 93,264 L 93,261 L 92,260 L 91,260 L 90,259 L 89,259 L 88,258 L 86,258 L 85,257 L 81,257 L 80,256 L 79,256 L 78,255 L 77,255 L 76,254 L 75,254 L 72,251 L 72,244 L 71,243 L 70,243 L 69,242 L 69,238 L 68,237 L 68,236 L 67,236 L 66,235 L 65,235 L 64,234 Z" fill="none" stroke="black" stroke-width="1"/>
</svg>