<svg xmlns="http://www.w3.org/2000/svg" width="321" height="333">
  <path d="M 54,149 L 54,152 L 53,153 L 53,154 L 51,156 L 50,156 L 50,161 L 51,161 L 52,162 L 52,163 L 53,163 L 56,166 L 56,168 L 57,169 L 57,170 L 58,171 L 58,175 L 53,180 L 53,186 L 54,187 L 54,188 L 56,190 L 56,192 L 57,193 L 57,194 L 58,194 L 59,195 L 60,195 L 62,197 L 62,198 L 63,199 L 63,200 L 65,202 L 65,203 L 68,206 L 68,207 L 77,207 L 77,206 L 79,204 L 79,203 L 80,202 L 80,200 L 81,199 L 81,192 L 82,191 L 84,191 L 84,184 L 83,183 L 83,176 L 81,174 L 81,172 L 80,171 L 80,170 L 78,168 L 78,159 L 77,158 L 77,156 L 76,155 L 76,154 L 75,154 L 74,153 L 73,153 L 72,152 L 71,152 L 70,151 L 68,151 L 67,150 L 59,150 L 58,149 Z" fill="none" stroke="black" stroke-width="1"/>
</svg>