<svg xmlns="http://www.w3.org/2000/svg" width="321" height="333">
  <path d="M 100,152 L 99,153 L 91,153 L 90,154 L 88,154 L 87,155 L 81,155 L 80,156 L 78,156 L 78,158 L 79,159 L 79,168 L 81,170 L 81,171 L 82,172 L 82,174 L 84,176 L 84,183 L 85,184 L 85,186 L 87,186 L 88,187 L 90,187 L 91,188 L 92,188 L 93,189 L 94,189 L 95,190 L 100,190 L 101,191 L 102,191 L 103,192 L 106,192 L 107,191 L 108,191 L 109,190 L 110,190 L 113,187 L 113,186 L 115,184 L 115,181 L 117,179 L 117,176 L 118,175 L 118,173 L 119,172 L 119,163 L 118,162 L 118,161 L 117,160 L 117,159 L 115,157 L 115,156 L 114,155 L 114,153 L 112,153 L 111,154 L 105,154 L 104,153 L 102,153 L 101,152 Z" fill="none" stroke="black" stroke-width="1"/>
</svg>