<svg xmlns="http://www.w3.org/2000/svg" width="321" height="333">
  <path d="M 115,185 L 114,186 L 114,187 L 110,191 L 109,191 L 108,192 L 107,192 L 106,193 L 103,193 L 102,192 L 101,192 L 100,191 L 95,191 L 94,190 L 93,190 L 92,189 L 91,189 L 90,188 L 88,188 L 87,187 L 85,187 L 85,191 L 84,192 L 82,192 L 82,199 L 81,200 L 81,202 L 80,203 L 80,204 L 78,206 L 78,207 L 77,208 L 77,211 L 78,212 L 78,213 L 81,216 L 82,216 L 83,217 L 84,217 L 86,219 L 87,219 L 89,221 L 93,221 L 94,220 L 95,220 L 97,218 L 101,218 L 104,215 L 105,215 L 109,211 L 110,211 L 110,210 L 111,209 L 114,209 L 118,205 L 119,205 L 120,204 L 122,204 L 122,202 L 123,201 L 127,201 L 127,200 L 128,199 L 128,197 L 126,195 L 126,190 L 125,189 L 125,188 L 124,187 L 124,186 L 123,185 Z" fill="none" stroke="black" stroke-width="1"/>
</svg>