<svg xmlns="http://www.w3.org/2000/svg" width="321" height="333">
  <path d="M 132,144 L 132,145 L 131,146 L 130,146 L 130,148 L 129,149 L 128,149 L 125,152 L 121,152 L 120,153 L 115,153 L 115,155 L 116,156 L 116,157 L 118,159 L 118,160 L 119,161 L 119,162 L 120,163 L 120,172 L 119,173 L 119,175 L 118,176 L 118,179 L 116,181 L 116,184 L 123,184 L 125,186 L 125,187 L 126,188 L 126,189 L 127,190 L 127,195 L 128,196 L 133,196 L 134,195 L 135,195 L 136,194 L 136,193 L 138,191 L 138,189 L 139,188 L 139,186 L 140,185 L 140,182 L 141,181 L 141,180 L 142,179 L 142,178 L 143,177 L 143,175 L 144,174 L 144,172 L 145,171 L 145,169 L 146,168 L 146,167 L 147,166 L 147,161 L 149,159 L 149,157 L 150,156 L 151,156 L 151,154 L 155,150 L 154,149 L 152,149 L 151,150 L 146,150 L 145,149 L 144,149 L 140,145 L 139,145 L 138,144 Z" fill="none" stroke="black" stroke-width="1"/>
</svg>