<svg xmlns="http://www.w3.org/2000/svg" width="321" height="333">
  <path d="M 144,176 L 144,177 L 143,178 L 143,179 L 142,180 L 142,181 L 141,182 L 141,185 L 140,186 L 140,188 L 139,189 L 139,191 L 137,193 L 137,194 L 135,196 L 134,196 L 133,197 L 129,197 L 129,199 L 128,200 L 128,201 L 127,202 L 123,202 L 123,206 L 122,207 L 122,215 L 124,215 L 125,216 L 125,217 L 126,218 L 126,219 L 127,220 L 127,221 L 129,223 L 129,224 L 130,225 L 130,226 L 132,228 L 132,229 L 133,230 L 135,230 L 136,231 L 137,231 L 138,232 L 142,232 L 143,231 L 144,231 L 145,230 L 147,230 L 148,229 L 148,228 L 150,226 L 151,226 L 152,225 L 153,225 L 157,221 L 157,218 L 159,216 L 159,215 L 157,213 L 157,212 L 156,211 L 156,205 L 157,204 L 157,203 L 158,202 L 158,197 L 157,196 L 157,195 L 156,194 L 155,194 L 154,193 L 155,192 L 155,188 L 154,187 L 154,186 L 153,185 L 153,183 L 149,179 L 149,178 L 147,176 Z" fill="none" stroke="black" stroke-width="1"/>
</svg>