<svg xmlns="http://www.w3.org/2000/svg" width="248" height="151">
  <path d="M 163,6 L 162,7 L 161,7 L 161,10 L 160,11 L 157,11 L 157,12 L 156,13 L 153,13 L 154,14 L 154,15 L 153,16 L 152,16 L 151,17 L 151,18 L 152,19 L 152,21 L 151,22 L 151,23 L 152,24 L 152,26 L 154,28 L 155,28 L 159,32 L 159,33 L 158,34 L 158,35 L 157,36 L 157,37 L 158,38 L 159,38 L 160,37 L 162,37 L 163,38 L 164,38 L 166,40 L 167,40 L 169,38 L 170,38 L 170,37 L 169,36 L 169,34 L 170,33 L 171,33 L 172,32 L 172,30 L 171,29 L 171,24 L 172,23 L 173,23 L 173,21 L 174,20 L 175,20 L 175,19 L 174,19 L 173,18 L 173,17 L 170,14 L 169,14 L 168,13 L 168,11 L 166,9 L 166,7 L 165,6 Z" fill="none" stroke="black" stroke-width="1"/>
</svg>