<svg xmlns="http://www.w3.org/2000/svg" width="321" height="333">
  <path d="M 120,205 L 119,206 L 118,206 L 114,210 L 111,210 L 111,211 L 110,212 L 109,212 L 105,216 L 104,216 L 101,219 L 97,219 L 95,221 L 94,221 L 93,222 L 90,222 L 90,225 L 88,227 L 87,227 L 87,228 L 91,232 L 91,235 L 90,236 L 90,237 L 96,243 L 97,243 L 99,245 L 100,245 L 101,246 L 103,246 L 104,247 L 105,246 L 107,246 L 108,247 L 109,246 L 115,246 L 115,242 L 117,240 L 118,240 L 120,238 L 121,239 L 123,239 L 124,240 L 128,240 L 130,238 L 135,238 L 136,237 L 136,236 L 137,235 L 139,235 L 141,233 L 142,233 L 138,233 L 137,232 L 136,232 L 135,231 L 133,231 L 131,229 L 131,228 L 129,226 L 129,225 L 128,224 L 128,223 L 126,221 L 126,220 L 125,219 L 125,218 L 124,217 L 124,216 L 122,216 L 121,215 L 121,207 L 122,206 L 122,205 Z" fill="none" stroke="black" stroke-width="1"/>
</svg>