<svg xmlns="http://www.w3.org/2000/svg" width="321" height="333">
  <path d="M 185,205 L 183,207 L 181,207 L 181,210 L 179,212 L 177,212 L 176,213 L 175,213 L 172,216 L 171,216 L 170,217 L 167,217 L 166,216 L 164,216 L 163,215 L 163,214 L 162,215 L 160,215 L 160,216 L 158,218 L 158,221 L 153,226 L 152,226 L 151,227 L 150,227 L 149,228 L 149,229 L 147,231 L 145,231 L 144,232 L 143,232 L 143,233 L 142,234 L 141,234 L 139,236 L 137,236 L 137,238 L 138,239 L 138,244 L 139,245 L 139,247 L 142,250 L 142,251 L 146,255 L 147,255 L 148,256 L 151,256 L 152,255 L 154,255 L 156,253 L 160,253 L 161,252 L 161,251 L 163,249 L 165,249 L 168,246 L 169,246 L 170,245 L 171,245 L 172,244 L 173,244 L 174,243 L 174,242 L 175,241 L 175,239 L 177,237 L 179,237 L 179,236 L 180,235 L 182,235 L 182,231 L 183,230 L 186,230 L 186,229 L 188,227 L 191,227 L 191,226 L 192,225 L 194,225 L 194,224 L 195,223 L 195,221 L 196,220 L 196,219 L 195,218 L 195,217 L 194,216 L 194,214 L 193,214 L 191,212 L 191,210 L 187,206 L 187,205 Z" fill="none" stroke="black" stroke-width="1"/>
</svg>