<svg xmlns="http://www.w3.org/2000/svg" width="321" height="333">
  <path d="M 150,157 L 150,159 L 148,161 L 148,166 L 147,167 L 147,168 L 146,169 L 146,171 L 145,172 L 145,174 L 144,175 L 147,175 L 150,178 L 150,179 L 154,183 L 154,185 L 155,186 L 155,187 L 156,188 L 156,192 L 155,193 L 156,193 L 158,195 L 158,196 L 159,197 L 159,202 L 158,203 L 158,204 L 157,205 L 157,211 L 158,212 L 158,213 L 159,214 L 162,214 L 163,213 L 164,214 L 164,215 L 166,215 L 167,216 L 170,216 L 171,215 L 172,215 L 175,212 L 176,212 L 177,211 L 179,211 L 180,210 L 180,207 L 181,206 L 183,206 L 185,204 L 186,204 L 186,202 L 185,201 L 184,201 L 183,200 L 183,199 L 182,199 L 181,200 L 180,200 L 176,196 L 172,196 L 171,195 L 171,193 L 172,192 L 172,191 L 173,190 L 173,189 L 168,184 L 168,183 L 167,182 L 167,178 L 166,177 L 166,175 L 164,173 L 162,173 L 158,169 L 158,168 L 156,166 L 156,164 L 154,162 L 154,160 L 152,158 L 152,157 Z" fill="none" stroke="black" stroke-width="1"/>
</svg>