<svg xmlns="http://www.w3.org/2000/svg" width="321" height="333">
  <path d="M 136,238 L 135,239 L 130,239 L 128,241 L 124,241 L 123,240 L 121,240 L 120,239 L 118,241 L 117,241 L 116,242 L 116,247 L 117,248 L 117,252 L 116,253 L 116,254 L 120,258 L 120,260 L 121,261 L 121,265 L 120,266 L 120,267 L 119,268 L 119,270 L 120,271 L 120,273 L 121,274 L 121,275 L 122,276 L 122,277 L 123,278 L 123,280 L 124,281 L 124,282 L 125,283 L 125,285 L 126,284 L 127,284 L 128,283 L 133,283 L 135,285 L 135,287 L 136,287 L 137,288 L 138,288 L 138,286 L 139,285 L 139,281 L 140,280 L 140,279 L 141,278 L 142,278 L 145,275 L 147,275 L 149,273 L 151,273 L 152,272 L 154,272 L 155,271 L 156,271 L 160,267 L 163,267 L 164,268 L 165,267 L 166,267 L 166,265 L 167,264 L 167,263 L 166,262 L 166,259 L 165,258 L 165,257 L 164,257 L 163,256 L 163,255 L 162,255 L 161,254 L 161,253 L 160,254 L 156,254 L 154,256 L 152,256 L 151,257 L 148,257 L 147,256 L 146,256 L 141,251 L 141,250 L 138,247 L 138,245 L 137,244 L 137,239 Z" fill="none" stroke="black" stroke-width="1"/>
</svg>