<svg xmlns="http://www.w3.org/2000/svg" width="321" height="333">
  <path d="M 104,118 L 103,119 L 102,119 L 101,120 L 100,120 L 99,121 L 98,121 L 97,122 L 96,122 L 95,123 L 94,123 L 93,124 L 91,124 L 90,125 L 88,125 L 86,127 L 86,129 L 85,130 L 85,134 L 86,135 L 86,136 L 92,142 L 92,144 L 93,145 L 95,145 L 96,146 L 99,146 L 100,147 L 100,150 L 102,152 L 104,152 L 105,153 L 111,153 L 112,152 L 120,152 L 121,151 L 125,151 L 128,148 L 129,148 L 129,146 L 130,145 L 131,145 L 131,139 L 129,137 L 129,129 L 128,128 L 127,128 L 124,125 L 123,125 L 122,124 L 121,124 L 120,123 L 119,123 L 118,122 L 117,122 L 116,121 L 114,121 L 113,120 L 112,120 L 111,119 L 110,119 L 109,118 Z" fill="none" stroke="black" stroke-width="1"/>
</svg>