<svg xmlns="http://www.w3.org/2000/svg" width="321" height="333">
  <path d="M 128,284 L 127,285 L 126,285 L 125,286 L 125,287 L 123,289 L 112,289 L 111,290 L 106,290 L 106,291 L 104,293 L 103,293 L 100,296 L 98,296 L 98,299 L 100,301 L 100,304 L 101,305 L 101,313 L 103,315 L 104,315 L 105,316 L 107,316 L 109,318 L 110,318 L 111,319 L 111,320 L 112,321 L 114,321 L 115,322 L 115,324 L 118,327 L 118,328 L 122,332 L 123,332 L 124,331 L 125,331 L 126,330 L 126,328 L 127,327 L 128,327 L 129,326 L 130,326 L 130,325 L 132,323 L 134,323 L 135,322 L 135,321 L 137,319 L 137,316 L 139,314 L 139,313 L 140,312 L 143,312 L 143,311 L 144,310 L 144,309 L 146,307 L 146,306 L 148,304 L 148,302 L 149,301 L 146,298 L 146,297 L 144,295 L 144,294 L 142,292 L 141,292 L 138,289 L 137,289 L 136,288 L 135,288 L 134,287 L 134,285 L 133,284 Z" fill="none" stroke="black" stroke-width="1"/>
</svg>