<svg xmlns="http://www.w3.org/2000/svg" width="321" height="333">
  <path d="M 70,208 L 69,209 L 69,210 L 65,214 L 65,217 L 64,218 L 64,221 L 63,222 L 64,223 L 64,225 L 65,226 L 65,234 L 66,234 L 67,235 L 68,235 L 69,236 L 69,237 L 70,238 L 70,242 L 71,242 L 73,244 L 73,251 L 75,253 L 76,253 L 77,254 L 78,254 L 79,255 L 80,255 L 81,256 L 85,256 L 86,257 L 88,257 L 89,258 L 90,258 L 91,259 L 92,259 L 94,261 L 96,261 L 97,260 L 98,260 L 101,257 L 101,256 L 102,255 L 102,252 L 103,251 L 103,247 L 101,247 L 100,246 L 99,246 L 97,244 L 96,244 L 89,237 L 89,236 L 90,235 L 90,232 L 86,228 L 86,227 L 87,226 L 88,226 L 89,225 L 89,222 L 87,220 L 86,220 L 84,218 L 83,218 L 82,217 L 81,217 L 77,213 L 77,212 L 76,211 L 76,208 Z" fill="none" stroke="black" stroke-width="1"/>
</svg>