<svg xmlns="http://www.w3.org/2000/svg" width="321" height="333">
  <path d="M 105,247 L 104,248 L 104,251 L 103,252 L 103,255 L 102,256 L 102,257 L 98,261 L 97,261 L 96,262 L 94,262 L 94,264 L 88,270 L 87,270 L 86,271 L 85,271 L 83,273 L 82,273 L 81,274 L 74,274 L 73,275 L 72,275 L 71,276 L 71,279 L 75,283 L 79,283 L 80,284 L 81,284 L 82,285 L 83,285 L 84,286 L 87,286 L 88,287 L 89,287 L 92,290 L 92,291 L 93,292 L 93,293 L 95,293 L 96,294 L 96,295 L 100,295 L 103,292 L 104,292 L 105,291 L 105,290 L 106,289 L 111,289 L 112,288 L 123,288 L 124,287 L 124,283 L 123,282 L 123,281 L 122,280 L 122,278 L 121,277 L 121,276 L 120,275 L 120,274 L 119,273 L 119,271 L 118,270 L 118,268 L 119,267 L 119,266 L 120,265 L 120,261 L 119,260 L 119,258 L 115,254 L 115,253 L 116,252 L 116,248 L 115,247 L 109,247 L 108,248 L 107,247 Z" fill="none" stroke="black" stroke-width="1"/>
</svg>