<svg xmlns="http://www.w3.org/2000/svg" width="321" height="333">
  <path d="M 127,103 L 126,104 L 126,105 L 125,106 L 125,108 L 124,109 L 124,110 L 120,114 L 119,114 L 117,116 L 116,116 L 114,118 L 114,120 L 116,120 L 117,121 L 118,121 L 119,122 L 120,122 L 121,123 L 122,123 L 123,124 L 124,124 L 127,127 L 128,127 L 130,129 L 130,137 L 132,139 L 132,143 L 138,143 L 139,144 L 140,144 L 144,148 L 145,148 L 146,149 L 151,149 L 152,148 L 154,148 L 153,147 L 153,146 L 151,144 L 151,142 L 150,141 L 150,132 L 151,131 L 151,129 L 152,128 L 152,125 L 152,127 L 150,129 L 149,128 L 149,126 L 150,125 L 150,120 L 142,120 L 141,119 L 139,119 L 138,118 L 138,117 L 136,115 L 133,115 L 131,113 L 131,110 L 132,109 L 132,106 L 131,106 L 128,103 Z" fill="none" stroke="black" stroke-width="1"/>
</svg>