<svg xmlns="http://www.w3.org/2000/svg" width="191" height="202">
  <path d="M 111,15 L 111,16 L 110,17 L 109,16 L 105,16 L 104,17 L 101,17 L 100,18 L 94,18 L 93,17 L 91,17 L 91,18 L 90,19 L 89,18 L 89,17 L 88,16 L 85,16 L 84,17 L 84,18 L 83,19 L 83,20 L 82,21 L 82,22 L 83,23 L 82,24 L 79,24 L 79,25 L 81,27 L 81,28 L 80,29 L 79,29 L 80,30 L 81,30 L 82,31 L 81,32 L 79,32 L 78,33 L 76,33 L 76,34 L 75,35 L 73,33 L 73,38 L 74,39 L 73,40 L 72,40 L 72,43 L 73,44 L 75,44 L 77,42 L 78,43 L 78,44 L 77,45 L 77,47 L 78,48 L 80,48 L 82,46 L 83,46 L 84,45 L 85,45 L 87,43 L 89,43 L 90,44 L 92,44 L 94,42 L 95,42 L 99,38 L 97,38 L 96,37 L 97,36 L 101,36 L 102,35 L 99,35 L 98,34 L 99,33 L 100,33 L 100,31 L 102,29 L 103,29 L 104,28 L 105,28 L 107,26 L 108,26 L 108,25 L 109,24 L 110,24 L 111,23 L 112,23 L 114,21 L 114,20 L 115,19 L 115,15 Z" fill="none" stroke="black" stroke-width="1"/>
</svg>