<svg xmlns="http://www.w3.org/2000/svg" width="262" height="251">
  <path d="M 88,138 L 87,139 L 86,139 L 85,140 L 83,140 L 82,141 L 81,141 L 81,146 L 80,147 L 79,147 L 78,148 L 70,148 L 70,149 L 69,150 L 69,154 L 68,155 L 68,156 L 70,158 L 71,158 L 72,159 L 72,160 L 75,163 L 75,164 L 76,165 L 75,166 L 75,167 L 81,173 L 81,174 L 82,173 L 85,173 L 86,172 L 86,170 L 85,169 L 85,167 L 86,166 L 86,165 L 87,164 L 91,164 L 92,165 L 92,166 L 91,167 L 88,167 L 88,168 L 89,169 L 90,169 L 91,170 L 94,170 L 96,172 L 96,173 L 97,173 L 98,172 L 99,172 L 101,170 L 102,170 L 103,169 L 105,171 L 106,171 L 106,168 L 107,167 L 107,166 L 108,165 L 108,164 L 107,164 L 104,161 L 104,158 L 106,156 L 107,156 L 103,152 L 103,147 L 102,146 L 102,144 L 100,144 L 99,143 L 98,143 L 97,142 L 94,142 L 91,139 L 90,139 L 89,138 Z" fill="none" stroke="black" stroke-width="1"/>
</svg>