<svg xmlns="http://www.w3.org/2000/svg" width="186" height="167">
  <path d="M 58,97 L 57,98 L 57,99 L 58,100 L 58,102 L 57,103 L 57,104 L 56,105 L 55,104 L 55,103 L 54,102 L 54,101 L 53,101 L 54,102 L 54,103 L 55,104 L 55,106 L 56,106 L 57,107 L 58,107 L 63,112 L 63,113 L 66,113 L 67,114 L 68,114 L 68,110 L 67,109 L 67,106 L 69,104 L 72,104 L 72,103 L 71,103 L 69,101 L 69,100 L 68,100 L 66,98 L 62,98 L 61,97 Z" fill="none" stroke="black" stroke-width="1"/>
  <path d="M 50,96 L 51,97 L 53,97 L 52,96 Z" fill="none" stroke="black" stroke-width="1"/>
</svg>