<svg xmlns="http://www.w3.org/2000/svg" width="186" height="167">
  <path d="M 95,124 L 94,125 L 94,126 L 91,129 L 88,129 L 87,128 L 86,128 L 85,127 L 84,127 L 83,128 L 82,128 L 81,129 L 79,129 L 78,130 L 80,132 L 80,133 L 82,135 L 84,135 L 87,138 L 87,140 L 90,140 L 91,141 L 95,141 L 96,142 L 98,142 L 103,137 L 104,137 L 104,136 L 106,134 L 106,133 L 108,131 L 108,130 L 107,129 L 107,128 L 106,127 L 106,126 L 107,125 L 106,124 L 105,124 L 103,126 L 102,125 L 101,126 L 98,126 L 97,125 L 96,125 Z" fill="none" stroke="black" stroke-width="1"/>
</svg>