<svg xmlns="http://www.w3.org/2000/svg" width="1028" height="413">
  <path d="M 756,104 L 755,105 L 753,105 L 752,106 L 751,106 L 751,107 L 750,108 L 750,109 L 753,112 L 753,113 L 756,116 L 756,117 L 757,118 L 757,119 L 755,121 L 755,125 L 752,128 L 752,129 L 751,130 L 751,131 L 753,133 L 753,134 L 755,136 L 756,136 L 757,137 L 757,138 L 760,141 L 760,145 L 764,145 L 767,148 L 771,148 L 772,149 L 773,149 L 775,151 L 776,151 L 778,153 L 778,157 L 777,158 L 777,162 L 778,161 L 781,161 L 783,159 L 783,157 L 785,155 L 787,155 L 789,153 L 791,153 L 792,152 L 792,151 L 793,150 L 793,149 L 794,148 L 794,147 L 795,146 L 798,146 L 799,147 L 800,147 L 801,148 L 802,148 L 802,147 L 803,146 L 804,146 L 806,144 L 807,144 L 809,142 L 809,141 L 810,140 L 811,140 L 812,139 L 813,139 L 814,140 L 815,140 L 817,142 L 817,143 L 824,143 L 824,140 L 825,139 L 829,139 L 831,137 L 830,136 L 830,135 L 829,134 L 829,133 L 827,131 L 827,129 L 828,128 L 825,128 L 823,126 L 822,126 L 818,122 L 817,122 L 816,121 L 815,121 L 814,120 L 808,120 L 807,119 L 806,119 L 803,116 L 802,116 L 801,115 L 798,115 L 797,116 L 793,116 L 790,113 L 787,113 L 785,111 L 784,111 L 782,109 L 774,109 L 773,110 L 771,110 L 770,111 L 766,111 L 765,110 L 764,110 L 763,109 L 763,108 L 762,108 L 761,107 L 761,106 L 760,105 L 757,105 Z" fill="none" stroke="black" stroke-width="1"/>
</svg>