<svg xmlns="http://www.w3.org/2000/svg" width="1028" height="413">
  <path d="M 716,69 L 715,70 L 711,70 L 711,71 L 710,72 L 709,71 L 708,71 L 707,72 L 707,73 L 708,74 L 708,76 L 706,78 L 705,78 L 704,77 L 703,78 L 702,78 L 700,76 L 699,76 L 699,77 L 694,82 L 693,82 L 692,81 L 688,81 L 688,86 L 685,89 L 682,89 L 681,90 L 682,91 L 682,93 L 683,94 L 681,96 L 679,96 L 678,95 L 677,96 L 675,96 L 673,98 L 672,98 L 671,99 L 670,99 L 670,101 L 671,102 L 672,102 L 673,103 L 674,103 L 676,105 L 676,106 L 675,107 L 673,107 L 672,106 L 671,106 L 670,107 L 669,107 L 667,109 L 665,109 L 664,110 L 659,110 L 658,111 L 657,110 L 656,111 L 655,111 L 655,112 L 654,113 L 654,114 L 655,115 L 654,116 L 653,116 L 653,117 L 654,117 L 660,123 L 661,123 L 663,125 L 667,125 L 668,126 L 669,125 L 668,125 L 666,123 L 666,122 L 664,120 L 664,118 L 665,117 L 666,118 L 666,119 L 667,119 L 669,121 L 669,122 L 670,123 L 671,123 L 672,124 L 672,125 L 674,125 L 675,126 L 675,128 L 674,129 L 674,130 L 675,130 L 676,131 L 677,131 L 681,135 L 688,135 L 689,136 L 690,136 L 692,138 L 693,138 L 695,140 L 699,140 L 700,139 L 700,137 L 701,136 L 707,136 L 708,137 L 708,134 L 709,133 L 713,133 L 715,131 L 716,131 L 717,130 L 718,130 L 718,129 L 719,128 L 719,127 L 721,125 L 721,124 L 722,123 L 723,123 L 724,122 L 727,122 L 728,121 L 728,120 L 729,119 L 729,118 L 730,117 L 731,117 L 731,114 L 733,112 L 733,111 L 734,110 L 735,110 L 736,109 L 737,109 L 737,108 L 738,107 L 739,107 L 741,105 L 742,105 L 743,104 L 744,104 L 745,103 L 745,102 L 746,101 L 747,101 L 747,100 L 748,99 L 748,91 L 750,89 L 749,89 L 748,88 L 748,87 L 741,80 L 741,79 L 740,78 L 739,78 L 737,76 L 734,76 L 733,75 L 729,75 L 728,74 L 726,74 L 725,73 L 723,73 L 720,70 L 719,70 L 718,69 Z" fill="none" stroke="black" stroke-width="1"/>
</svg>