<svg xmlns="http://www.w3.org/2000/svg" width="299" height="181">
  <path d="M 132,69 L 132,70 L 131,71 L 131,73 L 130,74 L 127,74 L 126,75 L 125,75 L 123,77 L 123,78 L 122,79 L 119,79 L 118,80 L 117,80 L 117,81 L 115,83 L 115,89 L 114,90 L 115,91 L 115,92 L 116,93 L 116,94 L 118,96 L 118,100 L 120,100 L 122,98 L 123,99 L 125,99 L 126,98 L 132,98 L 133,99 L 133,101 L 136,101 L 136,100 L 137,99 L 137,94 L 138,93 L 139,93 L 139,91 L 140,90 L 141,90 L 141,89 L 144,86 L 154,86 L 154,84 L 152,82 L 152,75 L 151,74 L 151,73 L 150,73 L 148,71 L 142,71 L 141,72 L 136,72 L 134,70 L 133,70 Z" fill="none" stroke="black" stroke-width="1"/>
</svg>