<svg xmlns="http://www.w3.org/2000/svg" width="318" height="385">
  <path d="M 125,311 L 124,312 L 123,312 L 122,313 L 122,314 L 121,315 L 120,315 L 120,316 L 119,317 L 121,319 L 121,321 L 120,322 L 120,332 L 119,333 L 119,335 L 118,336 L 116,336 L 116,337 L 115,338 L 115,339 L 114,340 L 114,342 L 115,342 L 116,343 L 117,343 L 118,344 L 119,344 L 120,345 L 121,345 L 124,348 L 124,352 L 125,353 L 126,353 L 127,354 L 127,356 L 128,356 L 129,355 L 135,355 L 136,354 L 138,354 L 138,353 L 141,350 L 146,350 L 148,348 L 149,348 L 149,346 L 150,345 L 153,345 L 154,344 L 155,344 L 155,343 L 152,340 L 152,338 L 151,338 L 150,337 L 150,336 L 149,335 L 149,329 L 147,327 L 147,326 L 144,323 L 143,323 L 141,321 L 141,320 L 139,318 L 138,318 L 134,314 L 133,314 L 132,313 L 130,313 L 128,311 Z" fill="none" stroke="black" stroke-width="1"/>
</svg>