<svg xmlns="http://www.w3.org/2000/svg" width="318" height="385">
  <path d="M 150,212 L 149,213 L 148,213 L 147,214 L 145,214 L 144,215 L 144,217 L 143,218 L 142,218 L 142,220 L 141,221 L 140,221 L 140,224 L 135,229 L 135,231 L 134,232 L 134,239 L 135,240 L 135,241 L 137,243 L 137,244 L 138,244 L 139,245 L 139,246 L 140,246 L 143,249 L 146,249 L 147,248 L 148,248 L 149,247 L 151,247 L 153,245 L 156,245 L 157,246 L 160,246 L 159,245 L 160,244 L 162,244 L 163,243 L 163,242 L 164,241 L 165,241 L 166,240 L 166,236 L 165,235 L 165,232 L 166,231 L 166,228 L 165,228 L 163,226 L 163,225 L 162,225 L 159,222 L 159,219 L 161,217 L 161,216 L 158,216 L 157,215 L 156,215 L 154,213 L 153,213 L 152,212 Z" fill="none" stroke="black" stroke-width="1"/>
</svg>