<svg xmlns="http://www.w3.org/2000/svg" width="191" height="202">
  <path d="M 32,146 L 31,147 L 28,147 L 27,148 L 25,148 L 24,147 L 23,147 L 21,149 L 19,149 L 18,150 L 12,150 L 10,152 L 10,154 L 11,154 L 11,153 L 12,152 L 13,152 L 14,151 L 15,151 L 16,152 L 16,154 L 15,155 L 16,155 L 17,154 L 18,154 L 19,155 L 19,156 L 20,156 L 20,154 L 21,153 L 26,153 L 27,154 L 30,154 L 31,155 L 31,156 L 33,158 L 33,159 L 34,160 L 32,162 L 32,164 L 33,165 L 33,164 L 32,163 L 33,162 L 35,162 L 36,163 L 35,164 L 36,164 L 37,163 L 38,163 L 40,161 L 43,161 L 44,160 L 44,158 L 45,157 L 50,157 L 51,156 L 50,156 L 49,155 L 49,154 L 48,154 L 47,153 L 42,153 L 41,154 L 38,151 L 38,150 L 37,149 L 36,149 L 35,150 L 32,147 Z" fill="none" stroke="black" stroke-width="1"/>
</svg>