<svg xmlns="http://www.w3.org/2000/svg" width="191" height="202">
  <path d="M 38,107 L 37,108 L 32,108 L 31,109 L 30,109 L 29,110 L 28,110 L 29,110 L 30,111 L 30,112 L 29,113 L 26,113 L 25,112 L 22,112 L 21,113 L 21,114 L 20,115 L 20,116 L 21,116 L 24,119 L 27,119 L 28,120 L 27,121 L 27,123 L 28,124 L 28,127 L 29,127 L 30,128 L 30,131 L 31,131 L 31,130 L 32,129 L 33,129 L 36,132 L 37,132 L 38,131 L 37,130 L 37,126 L 38,125 L 38,124 L 40,122 L 39,121 L 39,120 L 40,119 L 41,119 L 42,120 L 42,121 L 43,120 L 44,120 L 46,118 L 46,117 L 45,116 L 45,115 L 46,114 L 46,112 L 45,111 L 44,111 L 43,112 L 42,112 L 41,111 L 40,111 L 38,109 Z" fill="none" stroke="black" stroke-width="1"/>
</svg>