<svg xmlns="http://www.w3.org/2000/svg" width="262" height="251">
  <path d="M 81,104 L 80,105 L 80,107 L 79,108 L 79,110 L 77,112 L 75,112 L 73,114 L 73,115 L 71,117 L 68,117 L 68,119 L 70,121 L 70,123 L 71,123 L 72,124 L 75,124 L 76,123 L 78,123 L 79,124 L 81,124 L 81,123 L 83,121 L 89,121 L 93,125 L 93,126 L 94,127 L 95,127 L 96,128 L 98,128 L 99,127 L 100,127 L 101,126 L 101,121 L 100,121 L 99,120 L 98,120 L 97,119 L 97,118 L 96,117 L 94,117 L 93,116 L 93,115 L 91,113 L 90,113 L 88,111 L 88,110 L 87,109 L 87,107 L 86,107 L 83,104 Z" fill="none" stroke="black" stroke-width="1"/>
</svg>