<svg xmlns="http://www.w3.org/2000/svg" width="191" height="202">
  <path d="M 60,92 L 59,93 L 59,94 L 61,96 L 61,98 L 62,99 L 62,102 L 63,103 L 64,102 L 65,102 L 66,103 L 65,104 L 65,105 L 64,106 L 64,107 L 63,108 L 62,108 L 61,107 L 61,110 L 62,111 L 62,112 L 66,112 L 67,111 L 69,111 L 71,113 L 71,114 L 71,113 L 72,112 L 75,112 L 75,109 L 73,107 L 73,106 L 74,105 L 75,106 L 76,106 L 77,107 L 77,110 L 77,106 L 76,105 L 76,104 L 75,103 L 74,104 L 73,104 L 72,105 L 71,105 L 70,104 L 72,102 L 73,102 L 74,101 L 73,100 L 72,100 L 70,98 L 70,97 L 68,95 L 68,93 L 67,92 Z" fill="none" stroke="black" stroke-width="1"/>
</svg>