<svg xmlns="http://www.w3.org/2000/svg" width="318" height="385">
  <path d="M 242,95 L 241,96 L 240,96 L 239,97 L 238,97 L 237,98 L 234,98 L 233,99 L 232,99 L 231,100 L 229,100 L 228,101 L 225,101 L 224,102 L 223,101 L 222,101 L 221,100 L 221,99 L 220,98 L 218,98 L 217,99 L 216,99 L 215,100 L 213,100 L 213,105 L 211,107 L 208,107 L 208,110 L 209,111 L 209,118 L 208,119 L 207,119 L 207,121 L 203,125 L 201,125 L 200,126 L 191,126 L 190,127 L 187,127 L 186,128 L 186,129 L 188,131 L 188,133 L 187,134 L 187,141 L 188,142 L 188,143 L 190,145 L 190,146 L 191,147 L 191,148 L 193,150 L 196,150 L 197,149 L 198,149 L 200,151 L 200,157 L 201,156 L 202,157 L 205,157 L 205,156 L 208,153 L 211,153 L 212,152 L 213,152 L 214,151 L 214,150 L 215,149 L 218,149 L 219,150 L 219,152 L 220,152 L 221,153 L 221,154 L 223,154 L 224,155 L 230,155 L 231,154 L 233,154 L 234,153 L 235,153 L 236,152 L 238,152 L 239,151 L 240,151 L 241,150 L 243,150 L 244,149 L 246,149 L 247,148 L 249,148 L 251,146 L 252,146 L 254,148 L 256,148 L 257,147 L 258,147 L 259,146 L 260,146 L 262,144 L 264,144 L 265,145 L 266,145 L 269,142 L 276,142 L 276,138 L 275,138 L 274,137 L 274,134 L 273,133 L 273,132 L 272,132 L 266,126 L 262,126 L 261,125 L 261,124 L 260,124 L 257,121 L 257,120 L 255,118 L 254,118 L 253,117 L 253,116 L 250,113 L 250,112 L 249,111 L 248,111 L 246,109 L 245,109 L 244,108 L 244,106 L 245,105 L 245,102 L 244,101 L 244,98 L 243,97 L 243,95 Z" fill="none" stroke="black" stroke-width="1"/>
</svg>