<svg xmlns="http://www.w3.org/2000/svg" width="1028" height="413">
  <path d="M 764,222 L 763,223 L 763,226 L 762,227 L 762,228 L 761,229 L 761,231 L 760,232 L 757,232 L 755,234 L 754,233 L 753,233 L 752,232 L 751,232 L 750,231 L 746,231 L 744,233 L 742,233 L 742,234 L 741,235 L 739,233 L 736,233 L 735,234 L 735,236 L 736,237 L 736,240 L 737,241 L 737,242 L 738,243 L 738,244 L 737,245 L 737,246 L 735,248 L 735,255 L 736,256 L 736,259 L 738,257 L 740,257 L 741,256 L 742,256 L 743,255 L 744,255 L 745,256 L 746,256 L 747,257 L 746,258 L 744,258 L 743,259 L 742,259 L 740,261 L 741,261 L 742,262 L 742,263 L 744,265 L 744,266 L 745,267 L 746,267 L 747,268 L 748,268 L 749,267 L 749,266 L 755,260 L 756,260 L 758,258 L 761,258 L 762,259 L 764,259 L 764,258 L 765,257 L 765,256 L 764,255 L 764,253 L 763,253 L 762,252 L 762,251 L 761,250 L 761,249 L 764,246 L 764,245 L 763,244 L 763,243 L 764,242 L 765,242 L 765,240 L 766,239 L 768,239 L 769,240 L 770,240 L 771,239 L 771,238 L 772,237 L 772,235 L 773,234 L 773,232 L 777,228 L 776,228 L 775,227 L 770,227 L 768,225 L 768,224 L 767,224 L 766,223 L 766,222 Z" fill="none" stroke="black" stroke-width="1"/>
</svg>