<svg xmlns="http://www.w3.org/2000/svg" width="318" height="385">
  <path d="M 16,92 L 16,99 L 17,99 L 18,100 L 18,101 L 19,102 L 19,107 L 20,108 L 20,109 L 24,113 L 24,114 L 23,115 L 23,119 L 25,121 L 26,121 L 28,123 L 28,124 L 30,126 L 32,126 L 33,125 L 36,128 L 37,127 L 37,126 L 38,125 L 39,125 L 42,128 L 42,129 L 40,131 L 38,131 L 37,132 L 38,133 L 37,134 L 36,134 L 35,135 L 37,137 L 38,137 L 39,138 L 39,136 L 41,134 L 45,134 L 46,135 L 47,134 L 48,134 L 49,133 L 49,132 L 50,131 L 50,129 L 49,128 L 49,124 L 48,123 L 48,122 L 46,122 L 45,123 L 44,123 L 43,122 L 45,120 L 45,119 L 44,119 L 41,116 L 39,116 L 38,115 L 38,112 L 41,109 L 43,109 L 45,111 L 43,113 L 43,114 L 44,114 L 46,116 L 46,117 L 47,117 L 49,119 L 51,119 L 54,116 L 54,115 L 55,114 L 60,114 L 61,113 L 62,113 L 59,110 L 59,108 L 58,107 L 56,107 L 55,106 L 54,106 L 52,104 L 51,104 L 50,103 L 49,103 L 48,102 L 47,102 L 45,100 L 44,100 L 42,98 L 41,98 L 40,97 L 40,96 L 39,95 L 36,95 L 35,94 L 35,92 L 29,92 L 28,93 L 20,93 L 19,92 Z" fill="none" stroke="black" stroke-width="1"/>
</svg>