<svg xmlns="http://www.w3.org/2000/svg" width="225" height="121">
  <path d="M 70,28 L 69,29 L 67,29 L 66,30 L 64,30 L 63,31 L 63,36 L 64,37 L 64,38 L 62,40 L 62,43 L 63,44 L 63,45 L 64,46 L 64,47 L 63,48 L 63,51 L 64,52 L 64,54 L 65,55 L 67,55 L 68,56 L 69,56 L 70,55 L 72,55 L 73,56 L 74,55 L 75,55 L 76,54 L 78,54 L 79,53 L 80,53 L 80,50 L 79,49 L 79,47 L 78,46 L 78,44 L 79,43 L 79,40 L 80,39 L 80,33 L 78,31 L 77,31 L 76,32 L 75,31 L 75,29 L 74,28 Z" fill="none" stroke="black" stroke-width="1"/>
</svg>