<svg xmlns="http://www.w3.org/2000/svg" width="225" height="121">
  <path d="M 124,39 L 123,40 L 123,43 L 124,44 L 123,45 L 123,46 L 122,47 L 122,48 L 120,50 L 119,50 L 117,52 L 117,53 L 115,55 L 110,55 L 109,56 L 108,56 L 107,57 L 107,61 L 108,61 L 112,65 L 113,65 L 114,64 L 117,64 L 118,65 L 118,67 L 119,68 L 120,68 L 121,67 L 122,67 L 125,70 L 126,69 L 127,69 L 128,68 L 129,68 L 131,66 L 135,66 L 134,65 L 133,65 L 132,64 L 132,63 L 131,62 L 132,61 L 132,59 L 133,58 L 134,58 L 136,56 L 139,56 L 139,54 L 140,53 L 140,51 L 139,50 L 139,49 L 135,45 L 132,45 L 130,43 L 130,41 L 128,39 Z" fill="none" stroke="black" stroke-width="1"/>
</svg>