<svg xmlns="http://www.w3.org/2000/svg" width="225" height="121">
  <path d="M 131,67 L 129,69 L 128,69 L 127,70 L 126,70 L 126,72 L 128,74 L 128,75 L 126,77 L 125,77 L 124,76 L 121,76 L 119,78 L 119,80 L 118,81 L 118,82 L 117,83 L 117,84 L 120,84 L 122,86 L 127,86 L 128,85 L 140,85 L 141,86 L 143,86 L 144,87 L 146,87 L 148,85 L 148,84 L 149,83 L 150,83 L 151,82 L 151,80 L 152,79 L 153,79 L 153,78 L 152,78 L 151,77 L 151,76 L 150,76 L 149,75 L 149,74 L 147,72 L 147,71 L 146,70 L 141,70 L 139,68 L 139,67 Z" fill="none" stroke="black" stroke-width="1"/>
</svg>