<svg xmlns="http://www.w3.org/2000/svg" width="404" height="430">
  <path d="M 127,118 L 126,119 L 124,119 L 123,120 L 117,120 L 116,121 L 112,121 L 110,123 L 109,123 L 108,124 L 107,124 L 106,125 L 101,125 L 100,124 L 98,124 L 97,125 L 94,125 L 93,126 L 91,126 L 90,127 L 90,128 L 89,129 L 89,131 L 88,132 L 88,134 L 85,137 L 84,137 L 83,136 L 82,136 L 82,140 L 84,142 L 84,145 L 83,146 L 84,147 L 83,148 L 83,150 L 84,151 L 84,152 L 85,153 L 85,154 L 86,155 L 86,156 L 87,157 L 87,158 L 89,158 L 90,159 L 91,159 L 92,160 L 93,160 L 95,162 L 95,163 L 96,164 L 96,165 L 97,166 L 97,167 L 98,168 L 97,169 L 97,170 L 93,174 L 93,176 L 92,177 L 92,180 L 93,181 L 93,182 L 97,186 L 97,190 L 96,191 L 96,193 L 97,193 L 98,194 L 99,194 L 101,196 L 101,197 L 102,198 L 115,198 L 116,197 L 120,197 L 121,196 L 126,196 L 127,197 L 128,197 L 129,198 L 130,198 L 131,199 L 132,199 L 133,200 L 142,200 L 143,199 L 147,199 L 147,196 L 145,194 L 145,193 L 147,191 L 147,187 L 144,184 L 144,183 L 143,182 L 143,172 L 141,170 L 139,170 L 138,169 L 138,167 L 136,165 L 136,157 L 139,154 L 139,153 L 140,152 L 140,149 L 141,148 L 141,146 L 142,145 L 142,144 L 144,142 L 144,139 L 145,138 L 145,134 L 144,133 L 144,128 L 143,127 L 142,127 L 141,126 L 141,125 L 139,125 L 133,119 L 130,119 L 129,118 Z" fill="none" stroke="black" stroke-width="1"/>
</svg>