<svg xmlns="http://www.w3.org/2000/svg" width="262" height="251">
  <path d="M 86,76 L 85,77 L 84,77 L 83,78 L 81,78 L 81,80 L 80,81 L 80,82 L 81,82 L 82,83 L 83,83 L 85,85 L 85,90 L 84,91 L 83,91 L 82,92 L 79,92 L 78,93 L 78,94 L 77,95 L 77,99 L 78,99 L 79,100 L 80,100 L 81,101 L 81,102 L 82,103 L 83,103 L 86,106 L 87,106 L 88,107 L 88,108 L 89,108 L 91,106 L 92,106 L 93,105 L 94,105 L 94,104 L 93,103 L 96,100 L 98,100 L 99,101 L 102,101 L 102,100 L 104,98 L 104,96 L 103,95 L 103,94 L 104,93 L 104,91 L 105,90 L 105,87 L 104,87 L 102,85 L 99,85 L 98,84 L 98,82 L 99,81 L 99,80 L 98,79 L 97,79 L 96,78 L 93,78 L 92,77 L 88,77 L 87,76 Z" fill="none" stroke="black" stroke-width="1"/>
</svg>