<svg xmlns="http://www.w3.org/2000/svg" width="412" height="441">
  <path d="M 207,161 L 206,162 L 206,163 L 205,164 L 205,165 L 206,166 L 205,167 L 205,168 L 206,168 L 207,167 L 209,167 L 210,166 L 211,166 L 212,167 L 212,171 L 209,174 L 207,172 L 206,172 L 205,173 L 205,174 L 204,175 L 202,173 L 202,171 L 201,170 L 201,169 L 202,168 L 201,167 L 200,168 L 199,168 L 198,167 L 197,167 L 197,174 L 196,175 L 195,175 L 194,176 L 192,176 L 190,178 L 191,179 L 191,180 L 193,180 L 194,179 L 196,179 L 197,180 L 198,180 L 199,181 L 200,181 L 201,182 L 203,182 L 204,183 L 204,184 L 205,185 L 205,186 L 206,187 L 206,190 L 207,191 L 207,197 L 206,198 L 206,199 L 205,200 L 205,201 L 204,202 L 204,203 L 205,204 L 205,207 L 204,208 L 204,210 L 207,210 L 209,212 L 213,212 L 214,211 L 215,211 L 216,210 L 217,210 L 217,209 L 218,208 L 220,208 L 220,207 L 221,206 L 221,202 L 224,199 L 224,198 L 223,197 L 223,196 L 222,195 L 223,194 L 223,193 L 222,192 L 222,190 L 220,188 L 220,185 L 219,184 L 219,183 L 214,178 L 214,175 L 213,174 L 213,168 L 214,167 L 214,165 L 211,165 L 209,163 L 209,162 L 208,162 Z" fill="none" stroke="black" stroke-width="1"/>
</svg>