<svg xmlns="http://www.w3.org/2000/svg" width="262" height="251">
  <path d="M 6,68 L 6,69 L 4,71 L 3,71 L 3,73 L 4,74 L 4,77 L 7,80 L 7,82 L 11,86 L 12,86 L 14,88 L 16,88 L 17,89 L 17,90 L 18,91 L 18,92 L 20,92 L 21,93 L 21,94 L 23,94 L 24,93 L 25,93 L 26,94 L 28,94 L 29,93 L 29,92 L 30,91 L 32,91 L 31,90 L 31,89 L 30,89 L 28,87 L 27,87 L 26,86 L 26,85 L 23,82 L 23,81 L 22,81 L 21,80 L 21,78 L 22,77 L 21,76 L 20,76 L 19,75 L 19,71 L 18,71 L 17,70 L 17,69 L 16,69 L 15,68 L 13,68 L 11,70 L 8,70 L 7,69 L 7,68 Z" fill="none" stroke="black" stroke-width="1"/>
</svg>