<svg xmlns="http://www.w3.org/2000/svg" width="1028" height="413">
  <path d="M 540,363 L 539,364 L 537,364 L 536,365 L 535,365 L 534,366 L 535,366 L 537,368 L 536,369 L 536,371 L 535,372 L 532,372 L 531,373 L 532,374 L 532,375 L 533,375 L 534,376 L 534,378 L 533,379 L 535,379 L 536,380 L 539,380 L 540,381 L 541,381 L 541,378 L 542,377 L 541,376 L 541,374 L 544,371 L 545,371 L 546,372 L 544,374 L 545,374 L 546,375 L 546,374 L 548,372 L 549,373 L 549,374 L 551,372 L 551,371 L 552,370 L 552,368 L 550,366 L 549,366 L 548,367 L 545,367 L 544,366 L 542,366 L 541,365 L 543,363 Z" fill="none" stroke="black" stroke-width="1"/>
</svg>