<svg xmlns="http://www.w3.org/2000/svg" width="1028" height="413">
  <path d="M 565,284 L 564,285 L 563,285 L 562,286 L 562,287 L 561,288 L 561,289 L 560,290 L 560,291 L 559,292 L 555,292 L 554,291 L 553,291 L 552,292 L 551,292 L 550,293 L 547,293 L 547,294 L 548,295 L 548,298 L 549,299 L 549,303 L 550,304 L 550,305 L 551,306 L 553,306 L 554,307 L 559,307 L 560,308 L 560,309 L 562,311 L 563,310 L 564,310 L 564,308 L 565,307 L 565,299 L 564,298 L 564,296 L 565,295 L 566,295 L 567,294 L 568,294 L 568,291 L 569,290 L 570,290 L 571,289 L 572,289 L 571,288 L 571,287 L 569,287 L 567,285 L 567,284 Z" fill="none" stroke="black" stroke-width="1"/>
</svg>