<svg xmlns="http://www.w3.org/2000/svg" width="1028" height="413">
  <path d="M 519,283 L 518,284 L 518,286 L 517,287 L 517,289 L 515,291 L 514,291 L 513,292 L 510,292 L 509,291 L 508,291 L 507,292 L 505,292 L 505,295 L 506,296 L 506,301 L 505,302 L 505,304 L 506,305 L 506,306 L 509,309 L 509,310 L 510,311 L 510,312 L 511,313 L 511,314 L 514,314 L 516,316 L 519,316 L 522,319 L 523,319 L 524,318 L 525,318 L 528,315 L 528,314 L 531,311 L 532,311 L 533,310 L 531,308 L 533,306 L 536,309 L 536,311 L 537,311 L 537,309 L 538,308 L 536,306 L 536,300 L 535,299 L 534,299 L 533,298 L 533,296 L 532,295 L 532,294 L 531,293 L 531,292 L 529,290 L 528,290 L 527,289 L 527,288 L 526,287 L 526,285 L 524,285 L 523,284 L 520,284 Z" fill="none" stroke="black" stroke-width="1"/>
</svg>