<svg xmlns="http://www.w3.org/2000/svg" width="1028" height="413">
  <path d="M 501,305 L 500,306 L 500,309 L 499,310 L 498,310 L 498,311 L 497,312 L 495,312 L 494,311 L 493,311 L 491,309 L 490,309 L 490,310 L 487,313 L 487,315 L 488,316 L 487,317 L 487,318 L 488,319 L 488,322 L 487,323 L 487,324 L 486,325 L 486,326 L 485,327 L 486,327 L 487,328 L 485,330 L 485,331 L 486,331 L 487,330 L 488,330 L 490,332 L 491,332 L 492,333 L 493,332 L 501,332 L 502,331 L 508,331 L 509,330 L 510,330 L 510,329 L 511,328 L 512,328 L 513,327 L 514,327 L 517,324 L 517,323 L 518,322 L 519,322 L 521,320 L 521,319 L 519,317 L 516,317 L 514,315 L 511,315 L 510,314 L 510,313 L 509,312 L 509,311 L 508,310 L 508,309 L 505,306 L 505,305 Z" fill="none" stroke="black" stroke-width="1"/>
</svg>