<svg xmlns="http://www.w3.org/2000/svg" width="318" height="385">
  <path d="M 167,239 L 167,240 L 165,242 L 164,242 L 164,243 L 162,245 L 160,245 L 161,246 L 161,247 L 162,248 L 163,248 L 164,249 L 164,250 L 165,251 L 164,252 L 164,254 L 165,255 L 165,259 L 167,259 L 168,260 L 174,260 L 175,261 L 177,261 L 178,262 L 179,262 L 180,263 L 181,263 L 182,264 L 182,265 L 185,265 L 186,264 L 190,264 L 191,263 L 191,261 L 190,260 L 190,258 L 193,255 L 193,254 L 192,253 L 192,250 L 189,250 L 188,251 L 187,251 L 186,250 L 186,249 L 184,247 L 183,247 L 181,245 L 175,245 L 173,243 L 173,242 L 171,240 L 169,240 L 168,239 Z" fill="none" stroke="black" stroke-width="1"/>
</svg>