<svg xmlns="http://www.w3.org/2000/svg" width="318" height="385">
  <path d="M 27,235 L 27,237 L 26,238 L 26,242 L 28,244 L 28,245 L 29,246 L 29,247 L 30,248 L 30,249 L 31,250 L 31,252 L 33,254 L 33,255 L 35,257 L 35,260 L 36,261 L 36,262 L 37,263 L 37,264 L 38,264 L 39,265 L 39,266 L 40,267 L 41,267 L 42,268 L 43,268 L 44,269 L 44,270 L 43,271 L 43,272 L 44,273 L 50,273 L 52,275 L 54,275 L 54,269 L 55,268 L 55,267 L 56,266 L 57,266 L 57,257 L 58,256 L 58,255 L 56,253 L 55,253 L 53,251 L 52,251 L 51,250 L 49,250 L 48,249 L 47,249 L 46,248 L 46,247 L 44,245 L 44,243 L 43,242 L 43,241 L 42,240 L 41,240 L 40,239 L 39,239 L 38,238 L 33,238 L 31,236 L 30,236 L 29,235 Z" fill="none" stroke="black" stroke-width="1"/>
</svg>