<svg xmlns="http://www.w3.org/2000/svg" width="1028" height="413">
  <path d="M 816,29 L 815,30 L 814,30 L 811,33 L 808,33 L 807,34 L 795,34 L 795,35 L 791,39 L 790,39 L 788,41 L 788,43 L 787,44 L 787,45 L 786,46 L 786,48 L 784,50 L 784,52 L 785,53 L 784,54 L 784,61 L 783,62 L 783,63 L 782,64 L 781,63 L 778,63 L 776,65 L 775,65 L 775,68 L 773,70 L 772,70 L 771,71 L 770,71 L 769,70 L 767,70 L 766,69 L 764,69 L 763,68 L 762,68 L 759,65 L 755,65 L 753,67 L 752,67 L 751,68 L 750,68 L 749,69 L 748,69 L 747,70 L 740,70 L 739,69 L 738,69 L 737,68 L 736,68 L 735,67 L 733,67 L 732,68 L 731,68 L 730,67 L 730,62 L 727,59 L 727,58 L 726,58 L 721,53 L 721,52 L 720,52 L 719,51 L 715,51 L 713,53 L 712,53 L 711,54 L 711,56 L 712,56 L 713,57 L 712,58 L 712,60 L 715,63 L 715,64 L 717,66 L 717,68 L 718,68 L 719,69 L 720,69 L 723,72 L 725,72 L 726,73 L 728,73 L 729,74 L 733,74 L 734,75 L 737,75 L 739,77 L 740,77 L 742,79 L 742,80 L 749,87 L 749,88 L 750,88 L 751,89 L 749,91 L 749,99 L 748,100 L 748,101 L 751,101 L 753,103 L 753,104 L 755,104 L 756,103 L 757,104 L 760,104 L 762,106 L 762,107 L 763,107 L 764,108 L 764,109 L 765,109 L 766,110 L 770,110 L 771,109 L 773,109 L 774,108 L 782,108 L 784,110 L 785,110 L 787,112 L 790,112 L 793,115 L 797,115 L 798,114 L 801,114 L 802,115 L 803,115 L 806,118 L 807,118 L 808,119 L 814,119 L 815,120 L 816,120 L 817,121 L 818,121 L 822,125 L 823,125 L 825,127 L 828,127 L 830,125 L 830,123 L 834,119 L 834,117 L 835,116 L 835,114 L 836,113 L 837,113 L 838,112 L 838,111 L 840,109 L 840,108 L 849,99 L 849,98 L 850,97 L 850,95 L 848,93 L 847,93 L 844,90 L 843,90 L 842,89 L 842,88 L 839,85 L 838,85 L 837,84 L 833,84 L 828,79 L 828,78 L 827,77 L 827,72 L 826,71 L 827,70 L 827,68 L 831,64 L 831,62 L 832,61 L 832,60 L 831,59 L 831,57 L 833,55 L 833,52 L 834,51 L 834,50 L 835,49 L 835,48 L 838,45 L 838,43 L 836,41 L 835,41 L 834,40 L 833,40 L 832,39 L 829,39 L 828,38 L 827,38 L 826,37 L 825,37 L 824,36 L 824,35 L 821,35 L 820,34 L 820,33 L 819,32 L 818,32 L 816,30 Z" fill="none" stroke="black" stroke-width="1"/>
</svg>