<svg xmlns="http://www.w3.org/2000/svg" width="1028" height="413">
  <path d="M 835,117 L 835,119 L 831,123 L 831,125 L 829,127 L 829,128 L 828,129 L 828,131 L 830,133 L 830,134 L 831,135 L 831,136 L 832,137 L 829,140 L 825,140 L 825,143 L 824,144 L 817,144 L 816,143 L 816,142 L 815,141 L 814,141 L 813,140 L 812,140 L 811,141 L 810,141 L 810,142 L 807,145 L 806,145 L 804,147 L 803,147 L 803,148 L 802,149 L 801,149 L 800,148 L 799,148 L 798,147 L 795,147 L 795,148 L 794,149 L 794,150 L 793,151 L 793,152 L 792,153 L 792,154 L 795,157 L 795,159 L 794,160 L 794,162 L 795,163 L 796,163 L 797,164 L 798,164 L 799,165 L 799,166 L 800,167 L 800,168 L 801,169 L 802,169 L 803,170 L 806,170 L 807,171 L 807,172 L 810,175 L 810,185 L 811,186 L 811,188 L 812,189 L 813,189 L 814,190 L 816,188 L 820,188 L 821,189 L 822,189 L 823,190 L 823,191 L 822,192 L 821,192 L 825,192 L 826,193 L 829,193 L 830,194 L 838,194 L 839,193 L 845,193 L 846,194 L 846,196 L 851,196 L 855,192 L 856,192 L 857,191 L 857,190 L 858,189 L 858,184 L 857,184 L 856,183 L 854,183 L 853,182 L 852,182 L 851,181 L 851,180 L 849,178 L 849,176 L 850,175 L 851,175 L 852,174 L 852,172 L 851,171 L 850,171 L 849,170 L 847,170 L 843,166 L 843,164 L 845,162 L 846,162 L 847,161 L 847,160 L 846,160 L 844,158 L 844,157 L 845,156 L 845,153 L 847,151 L 847,149 L 849,147 L 852,147 L 851,146 L 851,144 L 850,143 L 850,142 L 849,141 L 849,139 L 848,138 L 848,137 L 846,135 L 846,133 L 845,133 L 843,131 L 843,127 L 842,126 L 842,125 L 837,120 L 837,119 L 836,118 L 836,117 Z" fill="none" stroke="black" stroke-width="1"/>
</svg>