<svg xmlns="http://www.w3.org/2000/svg" width="340" height="393">
  <path d="M 114,242 L 111,245 L 112,246 L 112,249 L 113,250 L 113,251 L 114,252 L 114,257 L 113,258 L 113,259 L 112,260 L 112,261 L 111,262 L 111,264 L 113,266 L 113,270 L 114,271 L 120,271 L 120,270 L 121,269 L 122,269 L 122,265 L 123,264 L 125,264 L 125,261 L 126,260 L 126,259 L 128,257 L 128,253 L 129,252 L 129,251 L 128,251 L 127,250 L 125,250 L 124,251 L 123,251 L 122,250 L 122,249 L 118,245 L 118,244 L 117,243 L 116,243 L 115,242 Z" fill="none" stroke="black" stroke-width="1"/>
</svg>