<svg xmlns="http://www.w3.org/2000/svg" width="1028" height="413">
  <path d="M 576,323 L 575,324 L 574,324 L 572,326 L 572,329 L 570,331 L 571,331 L 572,332 L 572,334 L 573,335 L 572,336 L 573,337 L 572,338 L 572,339 L 571,340 L 569,340 L 568,341 L 567,341 L 568,342 L 568,346 L 569,346 L 570,345 L 574,345 L 575,344 L 578,344 L 579,345 L 580,345 L 582,347 L 582,350 L 583,350 L 584,351 L 585,351 L 586,352 L 586,353 L 587,352 L 587,351 L 588,350 L 590,350 L 591,349 L 592,349 L 593,348 L 593,347 L 596,344 L 596,342 L 597,341 L 597,339 L 596,338 L 596,337 L 595,336 L 595,334 L 594,334 L 593,335 L 590,335 L 589,334 L 589,332 L 588,331 L 587,331 L 586,330 L 584,330 L 583,331 L 579,331 L 578,330 L 578,329 L 576,327 L 576,326 L 577,325 L 577,324 Z" fill="none" stroke="black" stroke-width="1"/>
</svg>