<svg xmlns="http://www.w3.org/2000/svg" width="1028" height="413">
  <path d="M 569,293 L 569,294 L 568,295 L 567,295 L 566,296 L 565,296 L 565,298 L 566,299 L 566,307 L 565,308 L 565,310 L 564,311 L 563,311 L 563,313 L 564,314 L 564,315 L 567,318 L 567,323 L 568,323 L 569,324 L 570,324 L 571,325 L 572,325 L 573,324 L 572,323 L 574,321 L 575,321 L 575,320 L 576,319 L 576,318 L 575,317 L 575,315 L 576,314 L 576,313 L 577,312 L 577,311 L 579,309 L 579,307 L 578,306 L 577,306 L 576,307 L 573,304 L 573,300 L 569,296 Z" fill="none" stroke="black" stroke-width="1"/>
</svg>