<svg xmlns="http://www.w3.org/2000/svg" width="1028" height="413">
  <path d="M 601,367 L 600,368 L 599,368 L 598,369 L 595,369 L 594,370 L 593,369 L 592,369 L 589,372 L 588,372 L 588,373 L 589,374 L 589,375 L 590,375 L 592,377 L 593,376 L 594,377 L 596,377 L 597,378 L 597,380 L 598,381 L 598,382 L 599,383 L 599,384 L 598,385 L 598,386 L 597,387 L 597,389 L 598,390 L 600,390 L 601,391 L 603,391 L 605,389 L 605,387 L 603,385 L 603,381 L 608,376 L 609,376 L 610,377 L 611,377 L 611,376 L 610,375 L 610,373 L 609,372 L 609,371 L 608,371 L 607,370 L 607,368 L 603,368 L 602,367 Z" fill="none" stroke="black" stroke-width="1"/>
</svg>