<svg xmlns="http://www.w3.org/2000/svg" width="1028" height="413">
  <path d="M 601,338 L 600,339 L 598,339 L 598,341 L 597,342 L 597,344 L 594,347 L 594,348 L 592,350 L 591,350 L 590,351 L 588,351 L 588,352 L 587,353 L 587,354 L 589,356 L 589,359 L 590,360 L 590,363 L 591,364 L 591,365 L 592,366 L 592,368 L 593,368 L 594,369 L 595,368 L 598,368 L 599,367 L 600,367 L 601,366 L 602,366 L 603,367 L 607,367 L 608,366 L 609,366 L 610,367 L 611,367 L 612,368 L 614,368 L 615,367 L 619,367 L 620,366 L 621,366 L 621,364 L 622,363 L 623,363 L 623,362 L 624,361 L 624,357 L 625,356 L 627,356 L 627,355 L 626,355 L 624,353 L 623,353 L 621,351 L 621,349 L 620,348 L 618,348 L 617,349 L 615,349 L 614,348 L 612,348 L 611,347 L 610,347 L 609,346 L 608,347 L 607,346 L 606,346 L 604,344 L 604,341 L 605,340 L 605,338 L 604,338 L 603,339 L 602,338 Z" fill="none" stroke="black" stroke-width="1"/>
</svg>