<svg xmlns="http://www.w3.org/2000/svg" width="333" height="139">
  <path d="M 270,64 L 269,65 L 268,65 L 267,66 L 264,66 L 263,67 L 259,67 L 258,68 L 256,68 L 255,69 L 254,69 L 254,70 L 255,71 L 256,71 L 257,72 L 257,76 L 255,78 L 253,78 L 253,80 L 252,81 L 253,81 L 254,82 L 258,82 L 259,81 L 261,81 L 262,82 L 264,82 L 266,84 L 267,84 L 269,86 L 269,87 L 270,87 L 271,88 L 274,88 L 275,87 L 280,87 L 281,86 L 282,86 L 282,84 L 281,83 L 281,80 L 282,79 L 282,78 L 284,76 L 285,76 L 283,74 L 282,74 L 281,73 L 280,73 L 279,72 L 279,71 L 277,69 L 277,66 L 274,66 L 272,64 Z" fill="none" stroke="black" stroke-width="1"/>
</svg>