<svg xmlns="http://www.w3.org/2000/svg" width="262" height="251">
  <path d="M 145,136 L 144,137 L 142,137 L 141,138 L 139,138 L 138,137 L 133,137 L 132,138 L 133,139 L 134,139 L 135,140 L 135,142 L 137,142 L 138,143 L 138,145 L 139,145 L 140,146 L 142,146 L 143,147 L 143,148 L 144,149 L 144,150 L 145,151 L 145,154 L 146,155 L 146,158 L 147,159 L 148,159 L 149,160 L 150,160 L 151,161 L 151,162 L 153,162 L 154,161 L 155,162 L 155,163 L 157,163 L 158,164 L 158,165 L 162,165 L 163,166 L 163,167 L 164,166 L 165,166 L 167,168 L 170,168 L 171,169 L 171,168 L 172,167 L 172,166 L 171,165 L 171,161 L 173,159 L 173,158 L 174,157 L 175,157 L 177,155 L 180,155 L 182,153 L 181,152 L 180,152 L 179,153 L 176,153 L 175,152 L 175,151 L 174,150 L 173,150 L 172,149 L 170,149 L 167,146 L 165,146 L 164,145 L 164,144 L 161,141 L 161,140 L 159,140 L 157,138 L 155,138 L 154,137 L 152,137 L 151,136 Z" fill="none" stroke="black" stroke-width="1"/>
</svg>