<svg xmlns="http://www.w3.org/2000/svg" width="241" height="225">
  <path d="M 111,37 L 108,40 L 108,42 L 106,44 L 106,46 L 105,47 L 105,49 L 106,50 L 106,51 L 107,52 L 107,54 L 108,55 L 108,56 L 111,59 L 111,60 L 112,61 L 115,61 L 116,62 L 117,62 L 118,61 L 119,61 L 119,58 L 120,57 L 120,54 L 119,54 L 118,53 L 117,53 L 116,52 L 117,51 L 117,49 L 118,48 L 118,47 L 119,46 L 120,46 L 121,45 L 121,42 L 122,41 L 122,39 L 121,39 L 120,38 L 116,38 L 115,37 Z" fill="none" stroke="black" stroke-width="1"/>
</svg>