<svg xmlns="http://www.w3.org/2000/svg" width="194" height="149">
  <path d="M 95,89 L 95,91 L 97,93 L 97,95 L 98,96 L 95,99 L 94,99 L 93,98 L 92,98 L 91,99 L 90,99 L 90,101 L 89,102 L 91,104 L 91,105 L 90,106 L 89,106 L 88,107 L 87,107 L 86,108 L 87,109 L 87,110 L 91,110 L 92,111 L 93,111 L 94,112 L 98,112 L 100,110 L 103,113 L 103,114 L 104,115 L 105,115 L 106,116 L 107,116 L 107,113 L 108,112 L 109,112 L 110,111 L 111,111 L 111,110 L 113,108 L 117,108 L 118,107 L 119,107 L 120,106 L 121,106 L 121,104 L 120,104 L 117,101 L 117,99 L 116,100 L 115,100 L 113,102 L 111,102 L 108,99 L 108,97 L 107,96 L 106,96 L 105,95 L 105,91 L 104,91 L 102,89 Z" fill="none" stroke="black" stroke-width="1"/>
</svg>