<svg xmlns="http://www.w3.org/2000/svg" width="412" height="441">
  <path d="M 37,328 L 35,330 L 35,332 L 36,333 L 38,331 L 38,330 L 39,329 L 40,329 L 41,330 L 41,329 L 42,328 L 40,328 L 39,329 L 38,328 Z" fill="none" stroke="black" stroke-width="1"/>
  <path d="M 46,317 L 44,319 L 43,319 L 43,320 L 45,322 L 45,324 L 44,325 L 43,325 L 44,325 L 45,326 L 45,329 L 42,332 L 44,332 L 45,333 L 46,333 L 47,334 L 52,334 L 52,333 L 51,332 L 51,329 L 52,328 L 52,327 L 53,326 L 54,326 L 54,322 L 53,321 L 53,320 L 51,318 L 49,318 L 48,317 Z" fill="none" stroke="black" stroke-width="1"/>
</svg>