<svg xmlns="http://www.w3.org/2000/svg" width="412" height="441">
  <path d="M 15,323 L 15,325 L 18,325 L 18,324 L 17,323 Z" fill="none" stroke="black" stroke-width="1"/>
  <path d="M 21,319 L 20,320 L 21,321 L 22,320 L 22,319 Z" fill="none" stroke="black" stroke-width="1"/>
  <path d="M 27,313 L 27,314 L 26,315 L 27,315 L 27,314 L 28,313 Z" fill="none" stroke="black" stroke-width="1"/>
  <path d="M 33,310 L 33,311 L 34,312 L 34,313 L 33,314 L 32,313 L 30,313 L 30,314 L 29,315 L 31,315 L 35,319 L 35,321 L 34,322 L 33,322 L 32,321 L 32,319 L 31,318 L 30,319 L 31,320 L 31,321 L 33,323 L 34,323 L 34,322 L 35,321 L 36,322 L 38,322 L 39,323 L 39,324 L 38,325 L 40,325 L 41,324 L 41,322 L 38,322 L 37,321 L 38,320 L 38,318 L 37,317 L 39,315 L 40,315 L 43,318 L 44,318 L 46,316 L 48,316 L 49,315 L 49,314 L 48,313 L 46,313 L 45,314 L 44,314 L 43,313 L 40,313 L 38,311 L 35,311 L 34,310 Z" fill="none" stroke="black" stroke-width="1"/>
</svg>