<svg xmlns="http://www.w3.org/2000/svg" width="412" height="441">
  <path d="M 68,312 L 69,312 Z" fill="none" stroke="black" stroke-width="1"/>
  <path d="M 81,299 L 79,301 L 79,303 L 78,304 L 78,306 L 77,307 L 76,307 L 73,310 L 72,310 L 73,311 L 73,313 L 74,313 L 75,314 L 75,317 L 76,317 L 76,316 L 81,311 L 81,310 L 82,309 L 82,308 L 83,307 L 85,307 L 86,306 L 89,306 L 90,305 L 91,305 L 92,304 L 93,304 L 93,303 L 94,302 L 92,300 L 90,302 L 89,301 L 88,301 L 87,302 L 84,302 L 82,300 L 82,299 Z" fill="none" stroke="black" stroke-width="1"/>
</svg>