<svg xmlns="http://www.w3.org/2000/svg" width="412" height="441">
  <path d="M 167,246 L 167,247 L 165,249 L 162,249 L 161,248 L 160,248 L 159,249 L 159,250 L 158,251 L 158,255 L 157,256 L 157,259 L 156,260 L 157,261 L 156,262 L 157,263 L 157,264 L 156,265 L 155,265 L 153,267 L 152,267 L 155,270 L 155,271 L 157,273 L 157,274 L 156,275 L 156,278 L 157,277 L 158,278 L 160,276 L 161,276 L 162,275 L 162,274 L 163,273 L 164,273 L 164,272 L 165,271 L 165,268 L 168,265 L 170,265 L 170,260 L 169,259 L 170,258 L 170,257 L 169,257 L 168,258 L 166,256 L 166,254 L 168,252 L 168,251 L 169,250 L 171,250 L 171,249 L 168,246 Z" fill="none" stroke="black" stroke-width="1"/>
</svg>