<svg xmlns="http://www.w3.org/2000/svg" width="194" height="149">
  <path d="M 120,85 L 117,88 L 116,88 L 116,89 L 117,90 L 116,91 L 116,92 L 115,93 L 116,94 L 116,95 L 117,96 L 117,98 L 118,99 L 118,101 L 120,103 L 121,103 L 122,104 L 124,102 L 127,102 L 128,101 L 136,101 L 137,100 L 138,100 L 139,99 L 139,98 L 140,97 L 144,97 L 144,96 L 143,96 L 142,95 L 142,93 L 141,93 L 140,92 L 140,91 L 139,91 L 137,89 L 128,89 L 127,88 L 125,88 L 124,87 L 122,87 Z" fill="none" stroke="black" stroke-width="1"/>
</svg>