<svg xmlns="http://www.w3.org/2000/svg" width="412" height="441">
  <path d="M 194,180 L 193,181 L 191,181 L 192,182 L 192,183 L 193,184 L 193,185 L 192,186 L 192,187 L 191,188 L 191,189 L 190,190 L 187,190 L 189,192 L 190,191 L 191,191 L 193,193 L 193,201 L 191,203 L 191,204 L 193,204 L 195,206 L 200,206 L 203,203 L 203,202 L 204,201 L 204,200 L 205,199 L 205,198 L 206,197 L 206,191 L 205,190 L 205,187 L 204,186 L 204,185 L 203,184 L 203,183 L 201,183 L 200,182 L 199,182 L 198,181 L 197,181 L 196,180 Z" fill="none" stroke="black" stroke-width="1"/>
</svg>