<svg xmlns="http://www.w3.org/2000/svg" width="412" height="441">
  <path d="M 184,148 L 184,150 L 185,149 L 185,148 Z" fill="none" stroke="black" stroke-width="1"/>
  <path d="M 191,140 L 190,141 L 190,145 L 189,146 L 189,147 L 191,149 L 192,149 L 195,152 L 195,155 L 193,157 L 193,158 L 192,159 L 192,160 L 193,161 L 193,162 L 194,163 L 195,163 L 197,161 L 198,161 L 199,160 L 199,158 L 200,157 L 201,157 L 201,156 L 202,155 L 203,155 L 204,156 L 206,156 L 207,157 L 208,157 L 209,156 L 210,156 L 210,155 L 208,155 L 203,150 L 200,150 L 198,148 L 197,148 L 196,147 L 196,145 L 197,144 L 194,141 L 194,140 Z" fill="none" stroke="black" stroke-width="1"/>
</svg>