<svg xmlns="http://www.w3.org/2000/svg" width="474" height="213">
  <path d="M 412,30 L 411,31 L 409,31 L 408,32 L 406,32 L 405,33 L 403,33 L 403,34 L 401,36 L 400,36 L 400,39 L 401,40 L 401,41 L 402,42 L 402,44 L 405,47 L 404,48 L 404,49 L 403,50 L 403,57 L 404,58 L 404,59 L 405,60 L 405,62 L 408,62 L 409,63 L 415,63 L 416,64 L 417,63 L 418,64 L 418,63 L 422,59 L 422,56 L 423,55 L 423,54 L 424,53 L 423,52 L 423,51 L 424,50 L 424,48 L 425,47 L 426,47 L 427,46 L 427,42 L 428,41 L 428,39 L 427,38 L 427,37 L 426,36 L 419,36 L 415,32 L 415,30 Z" fill="none" stroke="black" stroke-width="1"/>
</svg>