<svg xmlns="http://www.w3.org/2000/svg" width="474" height="213">
  <path d="M 341,65 L 340,66 L 339,66 L 339,67 L 337,69 L 337,70 L 336,71 L 336,73 L 334,75 L 334,76 L 333,77 L 333,78 L 337,82 L 337,83 L 338,84 L 338,85 L 342,89 L 342,93 L 340,95 L 340,96 L 341,95 L 342,95 L 343,96 L 346,96 L 347,97 L 348,97 L 349,96 L 356,96 L 357,95 L 358,95 L 359,96 L 359,97 L 361,99 L 362,99 L 363,100 L 366,100 L 367,101 L 367,97 L 368,96 L 368,95 L 370,93 L 370,92 L 371,91 L 371,90 L 373,88 L 373,84 L 371,82 L 371,80 L 370,80 L 369,79 L 368,79 L 367,80 L 366,80 L 365,81 L 361,81 L 360,80 L 360,79 L 359,78 L 359,77 L 358,76 L 358,75 L 357,75 L 356,74 L 354,74 L 353,73 L 352,73 L 351,72 L 352,71 L 352,70 L 348,66 L 347,66 L 346,65 L 346,66 L 345,67 L 343,67 Z" fill="none" stroke="black" stroke-width="1"/>
</svg>