<svg xmlns="http://www.w3.org/2000/svg" width="474" height="213">
  <path d="M 421,137 L 420,138 L 418,138 L 416,140 L 416,141 L 415,142 L 415,143 L 413,145 L 412,144 L 411,144 L 410,145 L 409,145 L 409,146 L 407,148 L 406,148 L 406,150 L 407,151 L 407,153 L 408,154 L 410,154 L 411,155 L 411,156 L 412,156 L 414,158 L 415,157 L 418,160 L 419,160 L 422,157 L 423,157 L 423,156 L 424,155 L 429,155 L 430,154 L 430,153 L 431,152 L 432,152 L 432,151 L 433,150 L 430,150 L 429,149 L 428,149 L 425,146 L 425,145 L 422,145 L 421,144 L 421,143 L 420,142 L 420,141 L 421,140 L 421,139 L 422,138 L 423,138 L 422,138 Z" fill="none" stroke="black" stroke-width="1"/>
</svg>