<svg xmlns="http://www.w3.org/2000/svg" width="273" height="267">
  <path d="M 149,33 L 149,36 L 150,37 L 149,38 L 149,39 L 151,41 L 151,47 L 153,49 L 153,50 L 155,50 L 159,54 L 160,54 L 163,57 L 163,60 L 164,61 L 164,63 L 166,65 L 168,65 L 169,64 L 170,64 L 171,63 L 173,63 L 174,64 L 175,64 L 176,63 L 174,61 L 174,58 L 173,57 L 173,55 L 171,53 L 170,53 L 166,49 L 168,47 L 167,46 L 167,45 L 169,43 L 169,40 L 167,38 L 165,38 L 163,36 L 163,35 L 161,35 L 160,36 L 158,36 L 157,35 L 156,35 L 155,34 L 153,34 L 152,35 L 151,34 L 150,34 Z" fill="none" stroke="black" stroke-width="1"/>
</svg>