<svg xmlns="http://www.w3.org/2000/svg" width="474" height="213">
  <path d="M 226,137 L 225,138 L 224,138 L 225,139 L 225,140 L 226,141 L 222,145 L 223,145 L 224,146 L 225,146 L 226,147 L 226,148 L 227,149 L 225,151 L 225,152 L 224,153 L 224,154 L 225,154 L 226,153 L 231,158 L 232,158 L 236,162 L 237,162 L 243,156 L 244,157 L 245,157 L 245,156 L 246,155 L 246,154 L 247,153 L 252,153 L 252,152 L 253,151 L 253,145 L 254,144 L 254,143 L 250,139 L 249,139 L 246,142 L 245,142 L 243,140 L 242,140 L 239,143 L 237,143 L 236,142 L 234,142 L 232,140 L 232,139 L 231,138 L 229,138 L 228,137 Z" fill="none" stroke="black" stroke-width="1"/>
</svg>