<svg xmlns="http://www.w3.org/2000/svg" width="190" height="226">
  <path d="M 149,88 L 146,91 L 146,92 L 144,94 L 143,93 L 142,93 L 143,94 L 143,98 L 145,100 L 145,101 L 146,102 L 146,104 L 145,105 L 145,107 L 147,107 L 149,109 L 149,110 L 150,111 L 150,113 L 151,114 L 152,114 L 153,115 L 155,115 L 156,116 L 157,116 L 158,115 L 159,115 L 160,114 L 162,114 L 164,116 L 164,117 L 165,118 L 167,118 L 168,117 L 172,117 L 173,118 L 173,117 L 174,116 L 175,116 L 175,115 L 176,114 L 177,114 L 177,113 L 178,112 L 176,110 L 176,109 L 177,108 L 176,107 L 176,106 L 175,105 L 175,104 L 174,103 L 174,100 L 173,99 L 172,99 L 169,102 L 167,102 L 166,103 L 165,102 L 165,99 L 163,97 L 163,96 L 162,95 L 162,94 L 161,93 L 161,92 L 160,91 L 160,90 L 159,89 L 159,88 L 158,88 L 156,90 L 153,90 L 151,88 Z" fill="none" stroke="black" stroke-width="1"/>
</svg>