<svg xmlns="http://www.w3.org/2000/svg" width="402" height="344">
  <path d="M 102,165 L 102,166 L 101,167 L 101,168 L 100,169 L 100,170 L 96,174 L 96,175 L 97,176 L 99,176 L 103,180 L 103,184 L 102,185 L 102,192 L 110,200 L 110,201 L 112,203 L 112,204 L 113,205 L 113,206 L 112,207 L 112,209 L 113,210 L 113,211 L 115,213 L 117,213 L 118,212 L 120,212 L 120,208 L 121,207 L 123,207 L 124,206 L 126,206 L 127,207 L 132,207 L 133,206 L 136,206 L 137,207 L 141,207 L 143,205 L 143,204 L 144,203 L 143,202 L 143,200 L 142,199 L 142,196 L 141,196 L 140,195 L 140,194 L 139,193 L 139,192 L 138,192 L 135,189 L 135,188 L 134,187 L 129,187 L 125,183 L 125,180 L 123,178 L 123,177 L 122,176 L 122,173 L 121,173 L 120,174 L 118,174 L 117,173 L 117,172 L 116,171 L 115,171 L 112,168 L 106,168 L 103,165 Z" fill="none" stroke="black" stroke-width="1"/>
</svg>