<svg xmlns="http://www.w3.org/2000/svg" width="171" height="149">
  <path d="M 5,109 L 4,110 L 4,112 L 5,113 L 5,116 L 4,117 L 5,118 L 5,119 L 7,119 L 8,120 L 11,120 L 12,121 L 12,124 L 13,125 L 13,126 L 15,126 L 17,128 L 20,128 L 20,125 L 23,122 L 24,122 L 25,121 L 26,121 L 27,120 L 29,120 L 28,119 L 29,118 L 30,118 L 32,116 L 35,116 L 38,113 L 38,112 L 36,114 L 34,114 L 33,115 L 32,115 L 31,116 L 30,116 L 29,117 L 28,117 L 27,118 L 26,118 L 25,119 L 21,119 L 20,118 L 19,118 L 17,116 L 17,114 L 16,113 L 16,112 L 15,111 L 16,110 L 18,110 L 16,110 L 15,109 Z" fill="none" stroke="black" stroke-width="1"/>
</svg>