<svg xmlns="http://www.w3.org/2000/svg" width="194" height="149">
  <path d="M 175,125 L 174,126 L 175,126 Z" fill="none" stroke="black" stroke-width="1"/>
  <path d="M 179,92 L 177,94 L 173,94 L 173,98 L 172,99 L 171,99 L 171,100 L 170,101 L 170,102 L 169,103 L 171,105 L 171,106 L 170,107 L 168,107 L 167,106 L 165,106 L 164,107 L 164,108 L 163,109 L 161,109 L 159,111 L 158,111 L 158,113 L 162,117 L 162,118 L 161,119 L 160,119 L 159,120 L 159,121 L 161,123 L 162,123 L 167,128 L 170,128 L 171,127 L 170,126 L 171,125 L 172,125 L 171,124 L 171,123 L 173,121 L 174,122 L 174,123 L 176,123 L 176,120 L 177,119 L 178,119 L 179,118 L 178,118 L 177,117 L 177,114 L 179,112 L 179,108 L 180,107 L 179,106 L 180,105 L 180,104 L 182,102 L 183,102 L 184,101 L 186,101 L 187,100 L 193,100 L 193,99 L 192,98 L 191,98 L 189,96 L 184,96 L 183,95 L 182,95 L 181,94 L 181,92 Z" fill="none" stroke="black" stroke-width="1"/>
</svg>