<svg xmlns="http://www.w3.org/2000/svg" width="402" height="344">
  <path d="M 108,256 L 107,257 L 107,258 L 106,259 L 105,259 L 104,260 L 103,260 L 102,259 L 100,261 L 100,263 L 102,265 L 102,266 L 103,267 L 103,269 L 102,270 L 103,271 L 103,273 L 101,275 L 101,278 L 102,278 L 104,280 L 104,282 L 103,283 L 103,287 L 108,292 L 108,293 L 109,294 L 109,295 L 111,297 L 114,294 L 114,293 L 115,292 L 115,291 L 118,288 L 119,288 L 121,286 L 125,286 L 126,287 L 126,288 L 127,288 L 129,290 L 133,290 L 134,289 L 138,289 L 141,286 L 141,283 L 139,281 L 138,281 L 137,280 L 134,280 L 133,279 L 130,279 L 129,280 L 125,276 L 125,271 L 127,269 L 127,267 L 126,267 L 125,268 L 124,267 L 123,267 L 122,266 L 122,265 L 119,262 L 120,261 L 119,261 L 118,260 L 118,259 L 116,257 L 115,257 L 114,256 L 113,256 L 112,257 L 111,257 L 110,256 Z" fill="none" stroke="black" stroke-width="1"/>
</svg>