<svg xmlns="http://www.w3.org/2000/svg" width="749" height="389">
  <path d="M 706,221 L 704,223 L 697,223 L 695,225 L 694,225 L 694,227 L 692,229 L 691,229 L 689,231 L 689,233 L 687,235 L 686,235 L 686,236 L 685,237 L 685,241 L 684,242 L 685,243 L 685,245 L 686,246 L 686,248 L 689,251 L 692,251 L 694,253 L 696,253 L 697,252 L 698,252 L 701,255 L 702,254 L 702,253 L 703,252 L 703,251 L 704,250 L 707,250 L 707,246 L 709,244 L 710,244 L 713,241 L 713,240 L 714,239 L 714,237 L 715,236 L 715,235 L 714,234 L 714,233 L 711,230 L 711,228 L 710,227 L 710,224 L 709,223 L 709,222 L 708,222 L 707,221 Z" fill="none" stroke="black" stroke-width="1"/>
</svg>