<svg xmlns="http://www.w3.org/2000/svg" width="749" height="389">
  <path d="M 644,229 L 643,230 L 640,230 L 639,231 L 639,234 L 638,235 L 638,240 L 636,242 L 636,243 L 635,244 L 635,246 L 634,247 L 634,248 L 633,249 L 633,250 L 632,251 L 628,251 L 627,252 L 626,252 L 624,254 L 623,254 L 621,256 L 619,256 L 618,257 L 615,257 L 611,261 L 611,264 L 612,264 L 613,265 L 614,265 L 615,266 L 616,266 L 617,267 L 617,268 L 616,269 L 615,269 L 613,271 L 613,272 L 614,273 L 615,273 L 616,274 L 617,274 L 618,275 L 619,275 L 620,274 L 622,274 L 623,275 L 624,275 L 626,273 L 627,273 L 628,274 L 630,274 L 631,275 L 633,275 L 634,274 L 637,274 L 641,270 L 645,270 L 647,268 L 651,268 L 652,269 L 653,269 L 654,270 L 655,270 L 657,268 L 662,268 L 663,267 L 663,264 L 661,262 L 661,261 L 660,260 L 660,259 L 658,257 L 658,256 L 656,254 L 656,252 L 653,249 L 653,247 L 652,246 L 652,240 L 653,239 L 653,233 L 652,233 L 649,230 L 647,230 L 646,229 Z" fill="none" stroke="black" stroke-width="1"/>
</svg>