<svg xmlns="http://www.w3.org/2000/svg" width="378" height="221">
  <path d="M 281,0 L 280,1 L 274,1 L 273,2 L 272,1 L 269,1 L 268,2 L 259,2 L 255,6 L 252,6 L 249,9 L 248,9 L 247,10 L 246,10 L 244,12 L 243,12 L 242,11 L 239,11 L 240,12 L 239,13 L 241,15 L 242,15 L 243,16 L 245,16 L 246,17 L 247,17 L 248,18 L 250,18 L 251,19 L 252,19 L 253,20 L 255,20 L 256,21 L 258,21 L 259,22 L 262,22 L 265,25 L 265,26 L 267,28 L 268,27 L 268,26 L 270,24 L 272,24 L 273,23 L 280,23 L 281,22 L 283,22 L 284,21 L 286,21 L 287,20 L 289,20 L 290,19 L 310,19 L 311,20 L 315,20 L 316,21 L 318,21 L 319,22 L 322,22 L 323,23 L 324,23 L 325,24 L 327,24 L 331,28 L 332,28 L 336,32 L 336,33 L 340,33 L 341,34 L 341,35 L 342,35 L 344,37 L 344,39 L 345,40 L 346,39 L 347,40 L 350,40 L 349,39 L 349,38 L 351,36 L 354,36 L 355,35 L 352,32 L 351,32 L 349,30 L 348,30 L 342,24 L 342,23 L 341,22 L 341,21 L 340,22 L 337,22 L 335,20 L 334,20 L 333,19 L 332,19 L 331,18 L 326,18 L 325,17 L 320,17 L 319,16 L 319,14 L 320,13 L 319,13 L 313,7 L 312,7 L 311,6 L 310,6 L 307,3 L 305,3 L 304,4 L 298,4 L 297,5 L 293,5 L 292,4 L 292,3 L 293,2 L 293,0 L 291,0 L 290,1 L 287,1 L 286,0 Z" fill="none" stroke="black" stroke-width="1"/>
</svg>