<svg xmlns="http://www.w3.org/2000/svg" width="378" height="221">
  <path d="M 211,114 L 210,115 L 210,116 L 209,117 L 209,120 L 203,126 L 203,127 L 204,128 L 204,130 L 205,131 L 204,132 L 203,132 L 200,135 L 199,135 L 195,139 L 195,142 L 196,143 L 196,145 L 198,147 L 198,148 L 199,149 L 199,150 L 200,151 L 200,152 L 201,153 L 205,153 L 206,152 L 207,153 L 207,154 L 208,155 L 208,156 L 213,156 L 213,155 L 216,152 L 218,152 L 221,149 L 225,149 L 226,150 L 229,150 L 230,151 L 231,151 L 233,153 L 236,153 L 237,152 L 238,152 L 239,151 L 239,149 L 235,145 L 235,143 L 237,141 L 239,141 L 240,142 L 242,142 L 243,141 L 243,139 L 242,138 L 242,137 L 243,136 L 243,135 L 244,134 L 245,134 L 246,133 L 251,133 L 251,132 L 250,131 L 250,130 L 247,127 L 247,124 L 248,123 L 248,120 L 246,120 L 245,119 L 244,119 L 243,118 L 240,118 L 239,119 L 233,119 L 232,118 L 231,118 L 230,117 L 225,117 L 224,116 L 223,116 L 222,117 L 215,117 L 212,114 Z" fill="none" stroke="black" stroke-width="1"/>
</svg>