<svg xmlns="http://www.w3.org/2000/svg" width="749" height="389">
  <path d="M 207,242 L 207,245 L 206,246 L 206,249 L 205,250 L 205,251 L 204,252 L 204,257 L 203,258 L 203,259 L 202,260 L 201,260 L 203,260 L 205,262 L 205,264 L 206,265 L 206,268 L 207,269 L 207,271 L 208,272 L 210,272 L 211,271 L 212,271 L 213,270 L 214,270 L 216,272 L 218,270 L 220,270 L 221,271 L 221,272 L 223,270 L 224,271 L 225,270 L 226,270 L 227,271 L 229,271 L 230,272 L 231,272 L 233,274 L 238,274 L 239,275 L 240,274 L 248,274 L 249,273 L 252,276 L 253,276 L 254,277 L 256,277 L 257,276 L 265,276 L 266,275 L 268,275 L 269,276 L 272,276 L 273,277 L 273,275 L 272,274 L 272,272 L 270,270 L 270,268 L 269,267 L 269,265 L 268,264 L 268,263 L 266,263 L 264,261 L 264,258 L 265,257 L 262,257 L 261,258 L 260,258 L 259,257 L 257,257 L 256,256 L 255,256 L 253,254 L 252,254 L 249,251 L 248,251 L 246,249 L 245,249 L 244,248 L 243,248 L 242,247 L 241,247 L 239,245 L 238,245 L 237,244 L 232,244 L 231,243 L 221,243 L 220,244 L 219,243 L 216,243 L 215,242 Z" fill="none" stroke="black" stroke-width="1"/>
</svg>