<svg xmlns="http://www.w3.org/2000/svg" width="749" height="389">
  <path d="M 204,265 L 203,266 L 202,266 L 201,267 L 199,267 L 198,268 L 192,268 L 190,270 L 188,270 L 187,271 L 184,271 L 183,272 L 181,272 L 180,273 L 179,273 L 178,274 L 169,274 L 168,275 L 168,276 L 167,277 L 167,280 L 166,281 L 165,281 L 162,284 L 159,284 L 157,282 L 156,283 L 155,283 L 154,284 L 153,283 L 152,283 L 150,285 L 147,285 L 144,288 L 144,289 L 143,290 L 143,291 L 142,292 L 142,293 L 141,294 L 140,294 L 143,297 L 142,298 L 143,298 L 144,299 L 146,299 L 147,300 L 147,301 L 148,301 L 150,303 L 150,304 L 151,305 L 151,306 L 152,306 L 154,308 L 155,308 L 156,309 L 156,310 L 155,311 L 156,312 L 156,313 L 155,314 L 155,317 L 156,317 L 158,319 L 160,319 L 163,322 L 164,322 L 165,323 L 169,323 L 170,322 L 173,322 L 174,321 L 175,321 L 176,320 L 177,320 L 178,319 L 180,319 L 181,318 L 182,318 L 183,317 L 192,317 L 193,318 L 196,318 L 197,317 L 204,317 L 205,316 L 208,316 L 207,315 L 207,314 L 206,313 L 206,305 L 205,304 L 205,303 L 204,302 L 204,299 L 205,298 L 205,290 L 206,289 L 206,286 L 205,285 L 205,280 L 204,279 L 204,275 L 206,273 L 208,273 L 206,271 L 206,269 L 205,268 L 205,265 Z" fill="none" stroke="black" stroke-width="1"/>
</svg>