<svg xmlns="http://www.w3.org/2000/svg" width="749" height="389">
  <path d="M 96,234 L 95,235 L 95,236 L 92,239 L 89,239 L 85,243 L 84,243 L 83,244 L 81,244 L 80,245 L 72,245 L 71,244 L 69,244 L 68,245 L 67,245 L 67,247 L 66,248 L 66,249 L 64,251 L 63,251 L 62,252 L 61,252 L 60,253 L 59,253 L 58,254 L 58,258 L 59,259 L 60,259 L 61,260 L 61,263 L 62,264 L 62,265 L 63,265 L 64,266 L 65,266 L 66,267 L 69,267 L 70,268 L 73,268 L 74,269 L 74,270 L 75,271 L 76,271 L 77,272 L 78,272 L 79,273 L 80,273 L 84,277 L 84,279 L 85,280 L 85,282 L 86,283 L 87,283 L 88,284 L 92,284 L 93,283 L 94,283 L 97,280 L 98,280 L 99,279 L 100,279 L 102,277 L 102,276 L 101,275 L 101,271 L 99,269 L 99,261 L 101,259 L 102,259 L 104,257 L 104,250 L 103,249 L 103,248 L 101,246 L 101,245 L 96,240 Z" fill="none" stroke="black" stroke-width="1"/>
</svg>