<svg xmlns="http://www.w3.org/2000/svg" width="710" height="350">
  <path d="M 492,237 L 491,238 L 490,238 L 484,244 L 480,244 L 479,245 L 476,245 L 478,247 L 478,252 L 477,253 L 477,254 L 475,256 L 475,257 L 474,258 L 474,259 L 473,260 L 473,264 L 474,264 L 475,265 L 477,265 L 479,267 L 479,268 L 480,269 L 480,270 L 481,270 L 482,271 L 482,272 L 484,274 L 491,274 L 493,276 L 500,276 L 501,277 L 504,277 L 505,276 L 506,276 L 506,274 L 507,273 L 507,268 L 508,267 L 508,264 L 509,263 L 509,262 L 510,261 L 510,258 L 511,257 L 511,256 L 513,254 L 513,252 L 514,251 L 514,249 L 513,248 L 513,247 L 512,246 L 512,244 L 510,242 L 507,242 L 506,241 L 506,240 L 505,239 L 505,238 L 504,239 L 502,239 L 501,238 L 498,238 L 497,237 Z" fill="none" stroke="black" stroke-width="1"/>
</svg>