<svg xmlns="http://www.w3.org/2000/svg" width="710" height="350">
  <path d="M 448,262 L 447,263 L 446,263 L 445,264 L 444,264 L 442,266 L 439,266 L 438,267 L 437,267 L 436,268 L 436,269 L 434,271 L 434,277 L 435,278 L 435,281 L 436,282 L 436,284 L 432,288 L 430,288 L 429,289 L 429,290 L 430,291 L 431,291 L 432,292 L 432,293 L 434,293 L 436,295 L 438,295 L 439,296 L 440,296 L 442,298 L 443,298 L 445,300 L 446,300 L 447,299 L 448,299 L 449,298 L 449,297 L 450,296 L 450,295 L 451,294 L 451,293 L 452,292 L 452,285 L 456,281 L 456,280 L 457,279 L 457,278 L 459,276 L 459,274 L 461,272 L 461,271 L 462,270 L 459,270 L 457,268 L 457,267 L 455,265 L 452,265 L 450,263 L 450,262 Z" fill="none" stroke="black" stroke-width="1"/>
</svg>