<svg xmlns="http://www.w3.org/2000/svg" width="194" height="149">
  <path d="M 69,50 L 68,51 L 68,52 L 69,52 L 71,54 L 71,55 L 73,57 L 73,62 L 71,64 L 70,64 L 68,66 L 68,67 L 67,68 L 67,70 L 68,71 L 67,72 L 66,72 L 66,73 L 69,73 L 70,74 L 71,74 L 73,76 L 76,76 L 77,77 L 81,77 L 82,76 L 83,76 L 85,74 L 84,73 L 84,71 L 85,70 L 85,67 L 87,65 L 87,64 L 90,61 L 91,61 L 90,61 L 87,58 L 87,57 L 88,56 L 86,56 L 85,55 L 84,55 L 82,53 L 80,53 L 79,52 L 78,52 L 77,51 L 71,51 L 70,50 Z" fill="none" stroke="black" stroke-width="1"/>
</svg>