<svg xmlns="http://www.w3.org/2000/svg" width="190" height="226">
  <path d="M 143,27 L 142,28 L 142,33 L 143,34 L 143,36 L 144,37 L 144,38 L 141,41 L 140,41 L 139,42 L 138,42 L 136,44 L 136,48 L 139,51 L 142,51 L 143,52 L 143,53 L 144,54 L 144,57 L 145,57 L 148,60 L 148,61 L 152,61 L 153,60 L 153,59 L 155,57 L 157,57 L 159,55 L 160,55 L 160,54 L 161,53 L 161,52 L 163,50 L 164,50 L 165,49 L 167,49 L 168,50 L 169,50 L 170,49 L 170,48 L 172,46 L 174,46 L 176,44 L 177,44 L 179,42 L 180,42 L 180,40 L 179,39 L 179,36 L 178,35 L 176,35 L 174,33 L 174,32 L 173,31 L 173,30 L 172,30 L 171,31 L 170,31 L 169,32 L 168,31 L 167,31 L 165,33 L 164,33 L 162,31 L 162,30 L 161,30 L 160,31 L 157,31 L 155,33 L 154,33 L 150,29 L 149,29 L 148,30 L 146,28 L 144,28 Z" fill="none" stroke="black" stroke-width="1"/>
</svg>