<svg xmlns="http://www.w3.org/2000/svg" width="190" height="226">
  <path d="M 83,58 L 82,59 L 81,59 L 80,60 L 77,60 L 77,61 L 78,62 L 78,63 L 73,68 L 72,68 L 71,69 L 70,69 L 66,73 L 66,76 L 67,77 L 67,78 L 69,80 L 69,82 L 71,84 L 72,84 L 73,85 L 75,85 L 77,87 L 77,88 L 78,88 L 79,87 L 80,87 L 81,86 L 83,86 L 84,87 L 85,87 L 86,88 L 87,88 L 88,89 L 88,90 L 89,89 L 92,89 L 93,88 L 93,87 L 94,86 L 94,85 L 97,82 L 100,82 L 101,81 L 104,81 L 104,80 L 106,78 L 102,74 L 100,74 L 100,75 L 99,76 L 96,76 L 95,77 L 93,77 L 92,76 L 92,74 L 93,73 L 93,68 L 92,67 L 92,66 L 91,65 L 90,65 L 85,60 L 85,59 L 84,58 Z" fill="none" stroke="black" stroke-width="1"/>
</svg>