<svg xmlns="http://www.w3.org/2000/svg" width="190" height="226">
  <path d="M 111,78 L 111,79 L 110,80 L 109,80 L 108,79 L 106,79 L 105,80 L 105,81 L 104,82 L 101,82 L 100,83 L 97,83 L 95,85 L 95,86 L 94,87 L 94,88 L 93,89 L 93,92 L 94,93 L 94,94 L 98,98 L 97,99 L 97,100 L 99,100 L 100,101 L 104,101 L 105,102 L 105,103 L 108,106 L 108,105 L 110,103 L 110,102 L 109,101 L 110,100 L 111,100 L 112,99 L 113,99 L 115,101 L 115,100 L 116,99 L 117,99 L 118,98 L 118,97 L 117,96 L 119,94 L 119,93 L 122,90 L 123,90 L 122,89 L 121,89 L 120,88 L 120,87 L 117,87 L 113,83 L 113,82 L 115,80 L 115,79 L 114,78 Z" fill="none" stroke="black" stroke-width="1"/>
</svg>