<svg xmlns="http://www.w3.org/2000/svg" width="402" height="344">
  <path d="M 308,66 L 307,67 L 306,67 L 306,68 L 303,71 L 303,72 L 302,73 L 301,73 L 300,74 L 299,74 L 299,77 L 300,78 L 298,80 L 298,81 L 297,82 L 297,83 L 296,84 L 296,85 L 294,87 L 293,87 L 292,88 L 291,87 L 291,86 L 290,85 L 288,85 L 288,86 L 287,87 L 287,88 L 284,91 L 284,100 L 283,101 L 283,102 L 282,103 L 282,104 L 280,106 L 279,106 L 278,107 L 277,107 L 277,110 L 276,111 L 276,112 L 278,112 L 279,113 L 281,113 L 282,114 L 283,114 L 284,115 L 285,115 L 287,113 L 288,113 L 289,112 L 295,112 L 296,111 L 297,111 L 301,107 L 302,107 L 304,105 L 305,105 L 308,102 L 309,102 L 314,97 L 315,97 L 317,95 L 321,95 L 322,94 L 325,94 L 326,93 L 327,93 L 328,92 L 330,92 L 330,91 L 331,90 L 331,80 L 333,78 L 334,78 L 334,76 L 333,76 L 332,75 L 332,73 L 331,73 L 329,71 L 328,71 L 326,69 L 325,69 L 324,68 L 314,68 L 313,67 L 311,67 L 310,66 Z" fill="none" stroke="black" stroke-width="1"/>
</svg>