<svg xmlns="http://www.w3.org/2000/svg" width="402" height="344">
  <path d="M 273,113 L 273,116 L 271,118 L 271,120 L 270,121 L 270,122 L 267,125 L 263,125 L 261,127 L 260,127 L 260,133 L 259,134 L 258,134 L 254,138 L 253,138 L 253,140 L 252,141 L 252,142 L 253,142 L 254,143 L 254,144 L 252,146 L 252,147 L 256,151 L 258,149 L 265,149 L 268,146 L 269,146 L 270,145 L 270,144 L 272,142 L 272,141 L 274,139 L 274,138 L 276,136 L 276,133 L 277,132 L 277,130 L 278,129 L 278,126 L 282,122 L 282,121 L 284,119 L 284,118 L 287,115 L 287,114 L 285,116 L 284,116 L 283,115 L 282,115 L 281,114 L 279,114 L 278,113 Z" fill="none" stroke="black" stroke-width="1"/>
</svg>