<svg xmlns="http://www.w3.org/2000/svg" width="402" height="344">
  <path d="M 314,98 L 309,103 L 308,103 L 305,106 L 304,106 L 302,108 L 301,108 L 297,112 L 296,112 L 295,113 L 289,113 L 288,114 L 288,115 L 285,118 L 285,119 L 283,121 L 283,122 L 279,126 L 279,129 L 278,130 L 278,132 L 277,133 L 277,136 L 275,138 L 275,139 L 273,141 L 273,142 L 271,144 L 271,145 L 269,147 L 268,147 L 266,149 L 267,149 L 268,150 L 270,150 L 271,151 L 279,151 L 281,153 L 282,153 L 283,154 L 284,154 L 285,153 L 287,153 L 288,152 L 290,152 L 293,155 L 294,154 L 296,154 L 297,155 L 300,155 L 302,153 L 303,153 L 305,151 L 306,151 L 307,150 L 310,150 L 311,149 L 312,149 L 313,148 L 314,149 L 316,149 L 317,150 L 320,150 L 323,147 L 324,147 L 325,146 L 326,147 L 326,151 L 325,152 L 325,153 L 326,153 L 328,155 L 328,157 L 329,157 L 330,158 L 331,157 L 331,151 L 332,150 L 332,149 L 334,147 L 333,146 L 333,141 L 335,139 L 335,138 L 336,137 L 336,132 L 335,131 L 335,130 L 334,129 L 335,128 L 335,127 L 336,126 L 337,126 L 338,125 L 336,123 L 336,119 L 335,118 L 335,113 L 333,113 L 332,112 L 330,112 L 329,111 L 328,111 L 327,110 L 327,109 L 326,109 L 325,108 L 324,108 L 323,107 L 322,107 L 318,103 L 318,101 L 316,99 L 315,99 Z" fill="none" stroke="black" stroke-width="1"/>
</svg>