<svg xmlns="http://www.w3.org/2000/svg" width="402" height="344">
  <path d="M 245,175 L 245,176 L 244,177 L 243,177 L 242,178 L 240,178 L 238,180 L 238,182 L 239,183 L 239,184 L 238,185 L 237,185 L 237,186 L 236,187 L 236,193 L 235,194 L 234,194 L 234,195 L 233,196 L 233,197 L 234,198 L 234,201 L 232,203 L 231,203 L 231,206 L 229,208 L 229,209 L 228,210 L 231,210 L 233,212 L 236,212 L 237,213 L 237,214 L 239,216 L 240,216 L 241,215 L 248,215 L 251,212 L 253,212 L 254,213 L 257,213 L 258,212 L 262,212 L 262,208 L 261,207 L 261,206 L 263,204 L 264,204 L 265,203 L 266,203 L 267,202 L 267,201 L 266,200 L 266,199 L 267,198 L 269,198 L 269,197 L 270,196 L 272,196 L 272,192 L 273,191 L 276,191 L 275,190 L 276,189 L 273,189 L 272,188 L 271,188 L 270,187 L 268,187 L 267,186 L 263,186 L 262,185 L 260,185 L 257,182 L 257,181 L 255,179 L 254,179 L 252,177 L 250,177 L 249,176 L 248,176 L 247,175 Z" fill="none" stroke="black" stroke-width="1"/>
</svg>