<svg xmlns="http://www.w3.org/2000/svg" width="749" height="389">
  <path d="M 712,147 L 709,150 L 702,150 L 700,152 L 689,152 L 688,153 L 682,153 L 681,152 L 680,153 L 680,155 L 679,156 L 679,157 L 676,160 L 675,160 L 673,162 L 675,162 L 677,164 L 677,165 L 680,165 L 684,169 L 690,169 L 691,170 L 692,170 L 693,171 L 694,171 L 695,172 L 697,172 L 699,174 L 700,174 L 702,176 L 702,177 L 703,178 L 707,178 L 708,179 L 711,179 L 712,178 L 714,180 L 718,180 L 718,178 L 719,177 L 720,177 L 720,175 L 721,174 L 720,173 L 721,172 L 721,171 L 722,170 L 722,167 L 723,166 L 722,165 L 722,164 L 725,161 L 726,161 L 728,159 L 729,159 L 729,158 L 731,156 L 731,153 L 730,152 L 730,151 L 729,150 L 729,149 L 727,147 L 726,148 L 724,148 L 723,149 L 719,149 L 718,148 L 713,148 Z" fill="none" stroke="black" stroke-width="1"/>
</svg>