<svg xmlns="http://www.w3.org/2000/svg" width="749" height="389">
  <path d="M 574,169 L 573,170 L 573,172 L 571,174 L 571,175 L 570,176 L 570,178 L 567,181 L 567,182 L 566,183 L 565,183 L 565,184 L 564,185 L 566,187 L 566,189 L 567,190 L 567,191 L 568,192 L 568,193 L 567,194 L 567,195 L 563,199 L 563,201 L 561,203 L 561,205 L 562,205 L 564,207 L 564,210 L 565,211 L 565,212 L 566,213 L 569,213 L 570,214 L 578,214 L 579,213 L 587,213 L 590,216 L 591,216 L 593,218 L 593,219 L 594,220 L 595,220 L 596,219 L 596,218 L 597,217 L 599,217 L 600,216 L 608,216 L 608,215 L 609,214 L 609,213 L 610,212 L 612,212 L 613,213 L 615,213 L 617,211 L 619,211 L 620,210 L 621,210 L 622,209 L 624,209 L 625,210 L 630,210 L 631,209 L 634,209 L 636,211 L 647,211 L 648,210 L 648,206 L 647,206 L 646,205 L 646,203 L 645,202 L 645,201 L 642,198 L 641,198 L 639,196 L 639,195 L 638,195 L 635,192 L 635,191 L 634,191 L 633,190 L 632,190 L 627,185 L 624,185 L 623,184 L 616,184 L 609,191 L 607,191 L 604,188 L 603,188 L 602,187 L 597,187 L 596,188 L 593,188 L 592,187 L 591,187 L 590,188 L 589,188 L 588,189 L 588,190 L 587,191 L 586,191 L 580,185 L 580,181 L 582,179 L 582,175 L 583,174 L 583,173 L 582,172 L 582,171 L 581,172 L 580,172 L 579,171 L 579,170 L 578,170 L 577,169 Z" fill="none" stroke="black" stroke-width="1"/>
</svg>