<svg xmlns="http://www.w3.org/2000/svg" width="749" height="389">
  <path d="M 427,125 L 426,126 L 422,126 L 421,127 L 420,127 L 419,128 L 416,128 L 415,129 L 411,129 L 412,130 L 412,131 L 413,132 L 413,133 L 412,134 L 412,136 L 413,137 L 413,138 L 414,139 L 415,139 L 416,140 L 416,141 L 417,142 L 417,143 L 415,145 L 415,146 L 414,147 L 414,151 L 413,152 L 409,152 L 408,153 L 407,153 L 406,154 L 406,157 L 407,157 L 408,158 L 412,158 L 414,160 L 414,161 L 417,164 L 419,164 L 420,165 L 424,165 L 425,164 L 425,163 L 427,161 L 427,160 L 430,157 L 434,157 L 435,158 L 436,158 L 439,161 L 442,161 L 443,162 L 443,163 L 444,163 L 445,164 L 449,164 L 451,162 L 456,162 L 457,163 L 459,163 L 461,161 L 462,161 L 464,159 L 464,158 L 465,157 L 466,157 L 467,156 L 468,157 L 470,157 L 471,158 L 479,158 L 480,157 L 481,157 L 482,158 L 483,158 L 486,155 L 487,155 L 487,154 L 489,152 L 490,152 L 488,152 L 487,151 L 486,151 L 485,150 L 484,150 L 483,149 L 481,149 L 480,148 L 480,146 L 479,145 L 479,140 L 477,140 L 476,139 L 475,139 L 473,137 L 472,137 L 470,135 L 469,135 L 467,133 L 463,133 L 462,132 L 459,132 L 458,131 L 458,130 L 457,130 L 456,129 L 442,129 L 441,128 L 438,128 L 437,127 L 436,127 L 434,125 Z" fill="none" stroke="black" stroke-width="1"/>
</svg>