<svg xmlns="http://www.w3.org/2000/svg" width="194" height="149">
  <path d="M 104,70 L 103,71 L 102,71 L 102,73 L 101,74 L 101,76 L 99,78 L 98,78 L 97,79 L 97,81 L 98,82 L 98,84 L 99,85 L 99,86 L 100,87 L 100,88 L 102,88 L 104,90 L 105,90 L 106,91 L 108,91 L 109,92 L 110,92 L 112,94 L 114,94 L 115,95 L 115,94 L 114,93 L 115,92 L 115,91 L 116,90 L 115,89 L 115,88 L 116,87 L 117,87 L 118,86 L 118,84 L 117,83 L 116,83 L 115,82 L 115,81 L 114,80 L 111,80 L 110,79 L 108,79 L 107,78 L 107,76 L 108,75 L 108,74 L 109,73 L 107,71 L 106,71 L 105,70 Z" fill="none" stroke="black" stroke-width="1"/>
</svg>