<svg xmlns="http://www.w3.org/2000/svg" width="749" height="389">
  <path d="M 426,207 L 421,212 L 419,212 L 417,210 L 416,210 L 415,209 L 414,210 L 413,210 L 413,211 L 412,212 L 411,212 L 410,213 L 410,214 L 409,215 L 409,216 L 408,217 L 405,217 L 404,218 L 404,220 L 403,221 L 403,233 L 402,234 L 402,236 L 400,238 L 400,239 L 401,239 L 402,240 L 402,241 L 406,245 L 407,245 L 409,247 L 409,248 L 411,250 L 412,250 L 413,251 L 414,251 L 417,254 L 417,257 L 416,258 L 416,260 L 423,260 L 424,259 L 425,259 L 426,258 L 428,258 L 429,257 L 431,257 L 432,256 L 433,256 L 434,255 L 435,255 L 436,254 L 438,254 L 440,252 L 441,252 L 442,251 L 448,251 L 449,250 L 452,250 L 453,251 L 454,250 L 455,250 L 456,249 L 457,249 L 459,247 L 459,246 L 460,245 L 459,244 L 461,242 L 466,242 L 469,239 L 469,238 L 470,237 L 470,235 L 469,234 L 469,230 L 470,229 L 470,228 L 469,227 L 469,225 L 468,224 L 470,222 L 470,220 L 471,219 L 471,218 L 473,216 L 473,214 L 472,214 L 471,213 L 470,213 L 468,211 L 467,211 L 465,209 L 464,209 L 463,208 L 460,208 L 458,210 L 456,210 L 454,212 L 452,212 L 451,213 L 448,213 L 447,212 L 446,212 L 445,211 L 444,211 L 443,210 L 442,210 L 441,209 L 436,209 L 435,210 L 433,210 L 432,209 L 430,209 L 428,207 Z" fill="none" stroke="black" stroke-width="1"/>
</svg>