<svg xmlns="http://www.w3.org/2000/svg" width="749" height="389">
  <path d="M 218,127 L 218,128 L 216,130 L 213,130 L 212,129 L 211,129 L 210,130 L 208,130 L 208,131 L 206,133 L 205,133 L 204,134 L 203,134 L 202,135 L 198,135 L 197,136 L 196,136 L 196,137 L 195,138 L 194,138 L 192,140 L 191,140 L 190,139 L 189,140 L 187,140 L 185,142 L 183,142 L 182,143 L 182,144 L 181,145 L 177,145 L 176,146 L 176,147 L 177,148 L 177,152 L 178,153 L 179,153 L 181,151 L 183,151 L 185,153 L 187,153 L 188,154 L 188,155 L 189,156 L 189,157 L 191,159 L 192,159 L 193,160 L 193,161 L 195,163 L 196,163 L 198,165 L 198,166 L 200,168 L 200,169 L 201,170 L 203,170 L 204,169 L 205,169 L 207,167 L 209,167 L 212,170 L 213,170 L 216,173 L 221,173 L 223,175 L 224,175 L 226,173 L 227,173 L 230,176 L 231,176 L 232,177 L 233,177 L 234,176 L 235,176 L 235,175 L 238,172 L 240,172 L 241,171 L 242,171 L 243,170 L 244,170 L 245,169 L 246,170 L 246,159 L 245,158 L 245,151 L 244,150 L 244,149 L 245,148 L 245,143 L 247,141 L 248,141 L 248,140 L 249,139 L 249,133 L 248,132 L 237,132 L 236,131 L 235,131 L 234,132 L 229,132 L 228,131 L 228,128 L 225,128 L 225,129 L 224,130 L 223,130 L 222,129 L 221,129 L 219,127 Z" fill="none" stroke="black" stroke-width="1"/>
</svg>