<svg xmlns="http://www.w3.org/2000/svg" width="749" height="389">
  <path d="M 454,313 L 453,314 L 452,314 L 449,317 L 449,318 L 448,319 L 448,322 L 449,323 L 449,324 L 452,327 L 452,330 L 445,337 L 445,340 L 446,341 L 446,343 L 447,344 L 447,349 L 446,350 L 446,355 L 445,356 L 444,356 L 442,358 L 442,359 L 441,360 L 441,361 L 440,362 L 440,365 L 439,366 L 439,368 L 440,369 L 441,369 L 442,370 L 444,370 L 445,371 L 446,371 L 448,373 L 449,373 L 452,376 L 452,377 L 456,381 L 457,381 L 458,382 L 459,382 L 460,383 L 466,383 L 466,382 L 465,381 L 465,380 L 463,378 L 463,374 L 462,373 L 462,362 L 463,361 L 463,360 L 464,359 L 464,358 L 467,355 L 467,354 L 468,353 L 469,353 L 468,352 L 468,351 L 470,349 L 472,349 L 473,348 L 474,348 L 475,347 L 476,347 L 477,346 L 478,346 L 479,345 L 481,345 L 482,344 L 483,344 L 484,343 L 485,343 L 485,342 L 484,341 L 484,338 L 485,337 L 485,336 L 484,336 L 483,335 L 483,333 L 484,332 L 483,331 L 483,330 L 482,329 L 482,328 L 481,327 L 481,325 L 480,325 L 479,324 L 477,324 L 475,322 L 475,321 L 477,319 L 477,316 L 476,316 L 475,315 L 474,315 L 473,314 L 469,314 L 468,313 L 466,313 L 465,314 L 462,314 L 461,313 Z" fill="none" stroke="black" stroke-width="1"/>
</svg>