<svg xmlns="http://www.w3.org/2000/svg" width="99" height="181">
  <path d="M 64,129 L 62,131 L 56,131 L 55,132 L 55,133 L 54,134 L 53,134 L 52,135 L 52,138 L 51,139 L 51,140 L 52,141 L 52,143 L 51,144 L 51,146 L 55,150 L 54,151 L 54,152 L 56,154 L 57,154 L 57,152 L 56,152 L 55,151 L 55,150 L 56,149 L 57,149 L 58,150 L 59,150 L 60,149 L 61,149 L 62,150 L 62,151 L 65,151 L 66,152 L 66,153 L 67,153 L 68,152 L 68,151 L 67,150 L 66,150 L 65,151 L 64,151 L 63,150 L 63,147 L 65,145 L 66,145 L 67,146 L 68,146 L 67,145 L 67,143 L 69,141 L 69,140 L 65,140 L 64,139 L 64,138 L 65,137 L 65,129 Z" fill="none" stroke="black" stroke-width="1"/>
</svg>