<svg xmlns="http://www.w3.org/2000/svg" width="99" height="181">
  <path d="M 46,155 L 45,156 L 44,156 L 43,157 L 45,157 L 46,158 L 48,156 L 48,155 Z" fill="none" stroke="black" stroke-width="1"/>
  <path d="M 50,152 L 50,155 L 51,155 L 51,154 L 52,153 L 52,152 Z" fill="none" stroke="black" stroke-width="1"/>
  <path d="M 51,136 L 50,137 L 48,137 L 45,140 L 43,140 L 43,141 L 42,142 L 42,144 L 38,148 L 37,148 L 36,147 L 33,147 L 33,148 L 32,149 L 30,147 L 30,149 L 31,149 L 32,150 L 32,152 L 34,150 L 36,152 L 36,153 L 35,154 L 34,154 L 35,155 L 34,156 L 32,156 L 30,154 L 30,156 L 27,159 L 28,160 L 29,160 L 30,159 L 30,157 L 31,156 L 33,158 L 33,160 L 34,161 L 35,160 L 35,159 L 36,158 L 36,157 L 37,156 L 38,157 L 38,158 L 39,158 L 40,157 L 40,156 L 42,154 L 43,154 L 44,153 L 46,153 L 46,152 L 47,151 L 48,151 L 50,149 L 51,150 L 52,149 L 53,149 L 50,146 L 50,144 L 51,143 L 51,141 L 50,140 L 50,139 L 51,138 Z" fill="none" stroke="black" stroke-width="1"/>
</svg>