<svg xmlns="http://www.w3.org/2000/svg" width="262" height="251">
  <path d="M 69,0 L 69,3 L 66,6 L 65,6 L 64,7 L 63,7 L 59,11 L 57,11 L 56,12 L 53,12 L 52,13 L 51,13 L 50,14 L 49,14 L 49,17 L 50,18 L 50,20 L 52,20 L 53,21 L 56,21 L 58,23 L 58,24 L 59,25 L 59,27 L 63,27 L 64,28 L 66,28 L 67,27 L 68,27 L 70,29 L 70,32 L 73,32 L 74,33 L 74,34 L 75,35 L 77,35 L 78,34 L 78,33 L 77,32 L 77,26 L 78,25 L 78,23 L 79,22 L 79,20 L 78,19 L 76,19 L 75,18 L 75,17 L 74,17 L 72,15 L 72,13 L 74,11 L 76,11 L 76,10 L 73,7 L 73,6 L 75,4 L 76,4 L 76,3 L 73,0 Z" fill="none" stroke="black" stroke-width="1"/>
</svg>