<svg xmlns="http://www.w3.org/2000/svg" width="99" height="181">
  <path d="M 34,71 L 34,73 L 33,74 L 32,73 L 31,73 L 30,74 L 29,74 L 28,75 L 28,77 L 27,78 L 27,79 L 26,80 L 26,81 L 25,82 L 25,83 L 24,84 L 24,86 L 25,87 L 23,89 L 22,89 L 21,90 L 20,90 L 19,91 L 19,92 L 21,92 L 24,95 L 24,96 L 24,95 L 25,94 L 27,96 L 27,97 L 27,96 L 28,95 L 28,93 L 30,91 L 31,91 L 32,90 L 33,90 L 34,89 L 41,89 L 40,88 L 40,87 L 39,86 L 39,85 L 40,84 L 40,82 L 43,79 L 42,78 L 42,77 L 40,75 L 39,75 L 35,71 Z" fill="none" stroke="black" stroke-width="1"/>
</svg>