<svg xmlns="http://www.w3.org/2000/svg" width="225" height="121">
  <path d="M 47,0 L 46,1 L 45,1 L 45,2 L 44,3 L 38,3 L 37,4 L 37,6 L 36,7 L 31,7 L 30,8 L 30,9 L 29,10 L 28,10 L 28,11 L 27,12 L 29,14 L 29,16 L 30,16 L 31,17 L 33,17 L 35,15 L 36,16 L 36,17 L 37,16 L 39,16 L 39,15 L 41,13 L 42,13 L 43,12 L 45,12 L 46,13 L 51,13 L 52,12 L 53,12 L 54,11 L 57,11 L 58,12 L 59,12 L 60,13 L 64,13 L 64,12 L 62,10 L 63,9 L 63,6 L 62,6 L 61,7 L 60,6 L 60,3 L 59,2 L 55,2 L 54,3 L 53,3 L 51,5 L 49,5 L 48,4 L 48,1 L 49,0 Z" fill="none" stroke="black" stroke-width="1"/>
</svg>