<svg xmlns="http://www.w3.org/2000/svg" width="185" height="128">
  <path d="M 19,45 L 17,47 L 16,47 L 13,50 L 12,50 L 10,48 L 9,48 L 8,49 L 9,50 L 9,52 L 10,53 L 10,55 L 9,56 L 9,57 L 8,58 L 8,60 L 9,60 L 10,61 L 13,61 L 16,64 L 17,64 L 18,63 L 21,63 L 22,64 L 21,65 L 22,66 L 21,67 L 21,69 L 22,69 L 25,72 L 26,72 L 26,71 L 27,70 L 28,70 L 29,69 L 33,69 L 34,68 L 34,64 L 33,63 L 32,63 L 31,64 L 30,64 L 28,62 L 28,60 L 25,57 L 25,56 L 24,55 L 25,54 L 25,52 L 23,50 L 23,48 L 22,48 L 21,47 L 20,47 L 19,46 Z" fill="none" stroke="black" stroke-width="1"/>
</svg>