<svg xmlns="http://www.w3.org/2000/svg" width="225" height="121">
  <path d="M 25,38 L 25,39 L 24,40 L 25,41 L 24,42 L 23,42 L 22,41 L 21,42 L 21,43 L 23,43 L 24,44 L 24,45 L 22,47 L 22,48 L 23,49 L 22,50 L 22,51 L 21,52 L 21,53 L 22,54 L 23,54 L 24,55 L 25,55 L 27,57 L 29,57 L 30,56 L 31,56 L 32,55 L 34,55 L 35,56 L 35,57 L 36,58 L 38,58 L 39,59 L 40,59 L 41,60 L 43,60 L 43,59 L 45,57 L 46,57 L 46,53 L 45,52 L 45,50 L 43,48 L 43,46 L 42,46 L 41,47 L 39,45 L 41,43 L 40,43 L 38,41 L 38,39 L 37,39 L 36,40 L 33,40 L 32,41 L 31,41 L 30,40 L 28,40 L 26,38 Z" fill="none" stroke="black" stroke-width="1"/>
</svg>