<svg xmlns="http://www.w3.org/2000/svg" width="194" height="149">
  <path d="M 164,65 L 164,66 L 162,68 L 161,68 L 161,69 L 162,70 L 163,70 L 164,71 L 164,74 L 160,78 L 158,78 L 157,79 L 157,81 L 158,81 L 160,83 L 159,84 L 158,84 L 160,86 L 161,86 L 162,87 L 162,88 L 164,88 L 165,89 L 166,89 L 167,90 L 168,90 L 169,91 L 172,91 L 174,93 L 177,93 L 179,91 L 178,90 L 178,89 L 177,89 L 176,88 L 176,87 L 175,86 L 175,83 L 173,81 L 173,80 L 169,76 L 169,75 L 168,74 L 168,73 L 167,72 L 167,68 L 166,67 L 166,66 L 165,65 Z" fill="none" stroke="black" stroke-width="1"/>
</svg>