<svg xmlns="http://www.w3.org/2000/svg" width="171" height="149">
  <path d="M 149,50 L 148,51 L 147,51 L 146,52 L 145,52 L 144,51 L 141,51 L 141,52 L 138,55 L 134,55 L 133,54 L 132,55 L 130,55 L 129,54 L 119,54 L 118,55 L 116,55 L 115,56 L 117,56 L 120,59 L 120,62 L 119,63 L 119,67 L 120,67 L 122,69 L 126,69 L 127,70 L 129,70 L 130,71 L 132,71 L 133,72 L 133,73 L 136,73 L 137,74 L 139,74 L 140,73 L 141,73 L 141,71 L 142,70 L 143,71 L 144,71 L 145,72 L 147,70 L 147,67 L 149,65 L 149,64 L 150,63 L 152,63 L 155,60 L 155,59 L 156,58 L 157,58 L 158,57 L 158,54 L 157,54 L 156,53 L 154,53 L 153,52 L 152,52 L 150,50 Z" fill="none" stroke="black" stroke-width="1"/>
</svg>