<svg xmlns="http://www.w3.org/2000/svg" width="299" height="181">
  <path d="M 98,10 L 96,12 L 96,15 L 93,18 L 93,20 L 94,21 L 95,21 L 96,22 L 96,24 L 95,25 L 95,26 L 98,26 L 99,27 L 99,28 L 100,28 L 101,29 L 101,34 L 103,34 L 104,35 L 104,39 L 105,39 L 106,40 L 106,42 L 107,42 L 108,43 L 108,45 L 111,45 L 112,46 L 112,47 L 113,48 L 113,53 L 114,54 L 114,55 L 115,56 L 117,56 L 118,55 L 118,52 L 120,50 L 120,49 L 121,48 L 124,48 L 125,49 L 127,49 L 127,48 L 125,46 L 125,45 L 124,44 L 124,43 L 123,42 L 125,40 L 125,39 L 126,38 L 127,38 L 127,36 L 126,36 L 125,35 L 125,34 L 124,33 L 124,32 L 123,32 L 121,30 L 121,24 L 120,24 L 119,23 L 119,22 L 118,22 L 117,21 L 117,19 L 115,19 L 114,18 L 114,16 L 112,14 L 109,14 L 108,13 L 105,13 L 104,12 L 101,12 L 100,11 L 100,10 Z" fill="none" stroke="black" stroke-width="1"/>
</svg>