<svg xmlns="http://www.w3.org/2000/svg" width="318" height="385">
  <path d="M 67,253 L 63,257 L 58,257 L 58,266 L 57,267 L 56,267 L 56,268 L 55,269 L 55,272 L 58,275 L 60,275 L 61,274 L 66,274 L 67,273 L 70,276 L 70,279 L 71,279 L 72,280 L 73,280 L 74,281 L 76,279 L 78,279 L 78,276 L 79,275 L 81,275 L 82,274 L 83,274 L 84,273 L 85,273 L 88,270 L 88,269 L 86,267 L 86,264 L 85,263 L 81,263 L 80,262 L 80,261 L 78,259 L 78,256 L 72,256 L 71,257 L 70,257 L 69,256 L 69,253 Z" fill="none" stroke="black" stroke-width="1"/>
</svg>