<svg xmlns="http://www.w3.org/2000/svg" width="299" height="181">
  <path d="M 171,55 L 168,58 L 167,58 L 167,62 L 165,64 L 164,64 L 163,65 L 162,65 L 161,64 L 160,64 L 159,63 L 159,64 L 158,65 L 156,65 L 152,69 L 150,69 L 149,70 L 148,70 L 150,72 L 151,72 L 152,73 L 152,74 L 153,75 L 153,82 L 155,84 L 155,86 L 157,86 L 158,87 L 164,87 L 165,86 L 165,83 L 164,82 L 165,81 L 169,81 L 170,82 L 174,82 L 175,81 L 176,81 L 177,80 L 178,80 L 178,79 L 179,78 L 179,77 L 181,75 L 183,75 L 184,74 L 186,74 L 185,73 L 185,68 L 186,67 L 187,67 L 187,66 L 188,65 L 185,65 L 184,64 L 184,63 L 183,62 L 182,62 L 180,60 L 180,57 L 179,56 L 178,56 L 177,55 L 175,55 L 174,56 L 173,55 Z" fill="none" stroke="black" stroke-width="1"/>
</svg>