<svg xmlns="http://www.w3.org/2000/svg" width="299" height="181">
  <path d="M 172,1 L 171,2 L 170,2 L 169,3 L 167,3 L 167,6 L 166,7 L 166,9 L 168,11 L 166,13 L 166,14 L 169,17 L 169,20 L 170,21 L 170,23 L 171,23 L 172,24 L 172,29 L 173,30 L 173,31 L 174,32 L 175,32 L 177,34 L 177,35 L 178,35 L 180,37 L 181,36 L 187,36 L 188,37 L 189,37 L 190,38 L 193,38 L 193,37 L 194,36 L 198,36 L 199,35 L 200,35 L 200,33 L 204,29 L 206,29 L 206,26 L 204,24 L 204,23 L 203,22 L 203,17 L 200,14 L 200,11 L 199,10 L 197,10 L 196,9 L 196,8 L 192,8 L 191,7 L 186,7 L 185,6 L 185,3 L 184,2 L 181,2 L 180,3 L 179,3 L 178,2 L 177,2 L 176,3 L 175,3 L 173,1 Z" fill="none" stroke="black" stroke-width="1"/>
</svg>