<svg xmlns="http://www.w3.org/2000/svg" width="299" height="181">
  <path d="M 146,30 L 146,31 L 142,35 L 141,35 L 141,36 L 140,37 L 139,37 L 139,38 L 138,39 L 138,40 L 137,41 L 137,45 L 140,48 L 141,48 L 142,49 L 142,50 L 143,51 L 143,55 L 144,56 L 145,56 L 146,57 L 146,58 L 147,59 L 147,62 L 148,63 L 148,64 L 149,64 L 150,65 L 151,65 L 153,67 L 156,64 L 158,64 L 158,63 L 159,62 L 160,63 L 161,63 L 162,64 L 163,64 L 164,63 L 165,63 L 166,62 L 166,57 L 165,57 L 164,56 L 164,53 L 163,52 L 163,51 L 162,50 L 162,49 L 161,48 L 161,46 L 160,45 L 160,44 L 158,44 L 157,45 L 153,45 L 152,44 L 151,44 L 150,43 L 149,43 L 148,42 L 148,40 L 147,39 L 147,38 L 149,36 L 150,36 L 150,33 L 147,30 Z" fill="none" stroke="black" stroke-width="1"/>
</svg>