<svg xmlns="http://www.w3.org/2000/svg" width="299" height="181">
  <path d="M 110,90 L 110,92 L 108,94 L 107,94 L 106,95 L 101,95 L 98,98 L 97,98 L 96,97 L 93,97 L 91,99 L 89,99 L 88,100 L 86,100 L 85,99 L 84,99 L 83,100 L 83,101 L 82,102 L 82,103 L 80,105 L 80,110 L 81,111 L 84,111 L 85,112 L 89,112 L 90,113 L 90,114 L 92,114 L 93,115 L 93,116 L 94,117 L 96,117 L 98,115 L 98,114 L 100,112 L 101,112 L 102,111 L 106,111 L 107,110 L 109,110 L 110,111 L 112,111 L 113,112 L 116,112 L 117,111 L 118,111 L 118,110 L 116,108 L 116,106 L 117,105 L 117,103 L 118,102 L 118,101 L 117,100 L 117,96 L 115,94 L 115,93 L 114,92 L 114,91 L 113,90 L 112,91 L 111,90 Z" fill="none" stroke="black" stroke-width="1"/>
</svg>