<svg xmlns="http://www.w3.org/2000/svg" width="318" height="385">
  <path d="M 153,246 L 151,248 L 149,248 L 148,249 L 147,249 L 146,250 L 142,250 L 142,251 L 143,252 L 143,254 L 142,255 L 142,259 L 143,260 L 145,260 L 146,261 L 146,262 L 147,263 L 147,265 L 149,265 L 150,266 L 151,266 L 152,267 L 155,267 L 156,268 L 158,268 L 162,264 L 163,264 L 163,263 L 164,262 L 164,255 L 163,254 L 163,252 L 164,251 L 163,250 L 163,249 L 162,249 L 160,247 L 157,247 L 156,246 Z" fill="none" stroke="black" stroke-width="1"/>
</svg>