<svg xmlns="http://www.w3.org/2000/svg" width="318" height="385">
  <path d="M 113,255 L 111,257 L 110,257 L 110,258 L 109,259 L 109,260 L 108,261 L 107,261 L 106,262 L 106,263 L 107,264 L 108,264 L 109,265 L 109,266 L 111,266 L 112,267 L 113,267 L 114,268 L 115,268 L 117,270 L 118,270 L 120,272 L 120,273 L 122,275 L 123,275 L 124,276 L 127,276 L 128,277 L 128,278 L 129,279 L 134,279 L 135,278 L 136,278 L 137,277 L 138,277 L 138,274 L 139,273 L 140,273 L 140,271 L 141,270 L 141,269 L 139,269 L 138,268 L 136,268 L 133,265 L 129,265 L 128,264 L 127,264 L 126,263 L 126,260 L 123,260 L 122,259 L 121,259 L 119,257 L 118,257 L 117,256 L 116,256 L 115,255 Z" fill="none" stroke="black" stroke-width="1"/>
</svg>