<svg xmlns="http://www.w3.org/2000/svg" width="318" height="385">
  <path d="M 168,214 L 166,216 L 165,216 L 164,217 L 163,217 L 162,218 L 161,218 L 160,219 L 160,222 L 162,224 L 163,224 L 164,225 L 164,226 L 165,227 L 166,227 L 167,228 L 167,231 L 166,232 L 166,235 L 167,236 L 167,238 L 168,238 L 169,239 L 171,239 L 172,240 L 173,239 L 174,239 L 175,238 L 175,235 L 177,233 L 177,232 L 180,229 L 181,229 L 182,228 L 183,228 L 183,227 L 181,225 L 181,224 L 180,223 L 180,221 L 179,220 L 179,219 L 178,219 L 177,218 L 177,216 L 175,214 Z" fill="none" stroke="black" stroke-width="1"/>
</svg>