<svg xmlns="http://www.w3.org/2000/svg" width="318" height="385">
  <path d="M 121,275 L 120,276 L 119,276 L 118,277 L 118,279 L 117,280 L 117,281 L 115,283 L 113,283 L 113,287 L 116,290 L 116,295 L 117,296 L 117,297 L 119,297 L 120,296 L 121,296 L 122,295 L 124,295 L 125,294 L 127,294 L 128,293 L 134,293 L 135,294 L 136,294 L 137,295 L 138,295 L 140,293 L 141,293 L 140,293 L 139,292 L 139,290 L 141,288 L 142,288 L 143,287 L 143,283 L 138,278 L 137,278 L 136,279 L 135,279 L 134,280 L 129,280 L 127,278 L 127,277 L 124,277 L 123,276 L 122,276 Z" fill="none" stroke="black" stroke-width="1"/>
</svg>