<svg xmlns="http://www.w3.org/2000/svg" width="318" height="385">
  <path d="M 173,285 L 173,286 L 175,288 L 173,290 L 170,290 L 168,292 L 168,293 L 167,294 L 166,294 L 165,295 L 162,295 L 160,297 L 155,297 L 153,295 L 151,295 L 148,298 L 147,298 L 146,299 L 146,300 L 147,300 L 150,303 L 150,305 L 151,305 L 153,307 L 154,307 L 155,306 L 159,306 L 160,305 L 164,305 L 165,304 L 167,306 L 172,306 L 174,308 L 178,308 L 178,307 L 177,306 L 177,305 L 176,304 L 181,299 L 181,297 L 183,295 L 183,294 L 180,291 L 180,290 L 179,289 L 179,286 L 178,285 Z" fill="none" stroke="black" stroke-width="1"/>
</svg>