<svg xmlns="http://www.w3.org/2000/svg" width="318" height="385">
  <path d="M 165,260 L 165,262 L 164,263 L 164,264 L 163,265 L 162,265 L 159,268 L 159,269 L 158,270 L 157,270 L 157,272 L 158,273 L 156,275 L 156,276 L 157,277 L 158,277 L 159,278 L 161,278 L 162,279 L 163,279 L 164,280 L 165,280 L 166,281 L 168,281 L 169,282 L 170,282 L 171,283 L 173,283 L 174,284 L 178,284 L 179,285 L 183,285 L 184,284 L 185,284 L 189,280 L 196,280 L 197,279 L 197,278 L 198,277 L 199,277 L 200,276 L 200,275 L 202,273 L 202,270 L 201,269 L 201,267 L 196,262 L 192,262 L 192,263 L 190,265 L 186,265 L 185,266 L 182,266 L 181,265 L 181,264 L 180,264 L 179,263 L 178,263 L 177,262 L 175,262 L 174,261 L 168,261 L 167,260 Z" fill="none" stroke="black" stroke-width="1"/>
</svg>