<svg xmlns="http://www.w3.org/2000/svg" width="318" height="385">
  <path d="M 229,247 L 228,248 L 227,248 L 226,249 L 223,249 L 223,251 L 224,252 L 224,253 L 225,254 L 225,258 L 226,259 L 226,262 L 224,264 L 224,267 L 228,271 L 228,273 L 234,273 L 236,275 L 240,275 L 241,274 L 241,273 L 242,272 L 243,272 L 243,271 L 244,270 L 247,270 L 248,269 L 252,269 L 252,268 L 251,268 L 250,267 L 250,266 L 249,266 L 247,264 L 247,263 L 246,263 L 245,262 L 245,256 L 244,256 L 243,255 L 243,254 L 242,254 L 238,250 L 238,249 L 237,248 L 234,248 L 233,247 Z" fill="none" stroke="black" stroke-width="1"/>
</svg>