<svg xmlns="http://www.w3.org/2000/svg" width="318" height="385">
  <path d="M 189,321 L 188,322 L 186,322 L 185,323 L 183,323 L 182,322 L 177,322 L 177,324 L 173,328 L 173,332 L 172,333 L 172,336 L 171,337 L 171,338 L 174,341 L 174,343 L 173,344 L 173,347 L 175,347 L 177,349 L 180,349 L 181,348 L 186,348 L 188,346 L 188,345 L 189,344 L 189,339 L 192,336 L 192,335 L 193,334 L 193,333 L 195,331 L 195,329 L 196,328 L 197,328 L 199,326 L 199,325 L 197,325 L 196,326 L 195,325 L 194,325 L 192,323 L 192,322 L 191,322 L 190,321 Z" fill="none" stroke="black" stroke-width="1"/>
</svg>