<svg xmlns="http://www.w3.org/2000/svg" width="318" height="385">
  <path d="M 286,85 L 285,86 L 284,86 L 282,88 L 279,88 L 278,87 L 278,86 L 273,86 L 272,87 L 271,87 L 270,88 L 269,88 L 268,89 L 266,89 L 265,90 L 265,91 L 261,95 L 258,95 L 257,94 L 257,93 L 256,92 L 250,92 L 249,93 L 248,93 L 247,94 L 245,94 L 244,95 L 244,97 L 245,98 L 245,101 L 246,102 L 246,105 L 245,106 L 245,108 L 246,108 L 248,110 L 249,110 L 251,112 L 251,113 L 254,116 L 254,117 L 255,117 L 258,120 L 258,121 L 260,123 L 261,123 L 262,124 L 262,125 L 266,125 L 272,131 L 273,131 L 274,132 L 274,133 L 275,134 L 275,137 L 276,137 L 277,138 L 277,140 L 278,141 L 279,141 L 280,142 L 281,142 L 283,144 L 284,144 L 286,146 L 286,147 L 289,147 L 291,149 L 291,150 L 292,150 L 293,151 L 295,151 L 296,152 L 296,153 L 298,153 L 299,154 L 303,154 L 304,153 L 307,153 L 307,152 L 308,151 L 311,151 L 311,150 L 312,149 L 312,148 L 313,147 L 317,147 L 317,143 L 316,143 L 315,142 L 314,142 L 313,141 L 311,141 L 310,140 L 310,139 L 309,138 L 309,137 L 308,136 L 308,135 L 307,134 L 307,133 L 306,132 L 306,130 L 307,129 L 306,128 L 307,127 L 307,124 L 305,122 L 305,117 L 304,117 L 303,116 L 301,116 L 300,115 L 300,114 L 299,113 L 299,111 L 298,110 L 299,109 L 300,109 L 300,107 L 299,106 L 299,104 L 298,103 L 298,99 L 297,99 L 296,98 L 296,97 L 295,96 L 295,95 L 294,95 L 291,92 L 291,91 L 290,90 L 290,87 L 288,85 Z" fill="none" stroke="black" stroke-width="1"/>
</svg>