<svg xmlns="http://www.w3.org/2000/svg" width="318" height="385">
  <path d="M 265,21 L 265,24 L 264,25 L 263,25 L 263,26 L 261,28 L 261,30 L 260,31 L 260,34 L 261,35 L 261,38 L 262,39 L 262,40 L 261,41 L 259,39 L 259,38 L 258,37 L 259,36 L 256,33 L 253,33 L 251,35 L 251,37 L 250,38 L 249,38 L 247,36 L 247,35 L 248,34 L 249,34 L 252,31 L 250,29 L 249,29 L 247,27 L 240,27 L 239,28 L 238,28 L 237,27 L 237,26 L 235,26 L 234,25 L 233,25 L 232,24 L 231,25 L 229,25 L 229,26 L 220,35 L 220,38 L 221,38 L 224,41 L 224,45 L 227,48 L 228,48 L 231,51 L 231,52 L 232,53 L 232,54 L 233,55 L 233,56 L 234,57 L 234,58 L 233,59 L 233,60 L 232,61 L 232,64 L 233,65 L 233,66 L 234,67 L 234,68 L 235,68 L 237,66 L 238,66 L 239,67 L 239,68 L 242,71 L 243,71 L 244,72 L 245,71 L 246,71 L 247,70 L 248,71 L 248,72 L 249,73 L 249,75 L 250,76 L 250,79 L 253,82 L 253,84 L 252,85 L 252,87 L 251,88 L 251,89 L 250,90 L 250,91 L 256,91 L 258,93 L 258,94 L 261,94 L 264,91 L 264,90 L 266,88 L 268,88 L 269,87 L 270,87 L 271,86 L 272,86 L 273,85 L 278,85 L 279,86 L 279,87 L 282,87 L 284,85 L 285,85 L 286,84 L 288,84 L 291,87 L 297,87 L 297,86 L 299,84 L 299,78 L 300,77 L 300,75 L 301,74 L 301,72 L 300,72 L 299,71 L 298,71 L 296,69 L 296,67 L 295,66 L 295,65 L 294,65 L 293,64 L 291,64 L 289,62 L 288,62 L 287,61 L 287,55 L 286,54 L 285,54 L 284,53 L 283,53 L 282,52 L 281,52 L 278,49 L 278,47 L 277,46 L 277,44 L 276,44 L 273,41 L 272,41 L 270,39 L 270,35 L 269,34 L 269,27 L 268,26 L 268,25 L 267,24 L 267,21 Z" fill="none" stroke="black" stroke-width="1"/>
  <path d="M 235,17 L 235,18 L 236,19 L 238,19 L 238,18 L 237,18 L 236,17 Z" fill="none" stroke="black" stroke-width="1"/>
</svg>