<svg xmlns="http://www.w3.org/2000/svg" width="318" height="385">
  <path d="M 149,58 L 148,59 L 147,59 L 148,60 L 148,62 L 144,66 L 143,65 L 141,65 L 141,66 L 142,67 L 142,68 L 143,69 L 144,69 L 145,70 L 146,70 L 147,71 L 147,72 L 148,73 L 148,74 L 152,78 L 153,78 L 154,79 L 156,79 L 157,78 L 159,78 L 160,77 L 161,77 L 163,79 L 164,79 L 165,80 L 165,81 L 164,82 L 164,83 L 165,83 L 166,84 L 166,86 L 167,87 L 166,88 L 166,89 L 165,90 L 164,90 L 163,91 L 159,91 L 159,92 L 158,93 L 153,93 L 152,92 L 152,91 L 145,91 L 146,92 L 145,93 L 145,94 L 146,95 L 146,96 L 145,97 L 145,101 L 148,104 L 148,106 L 146,108 L 146,109 L 148,111 L 148,113 L 151,116 L 152,116 L 155,119 L 155,120 L 156,121 L 160,121 L 161,120 L 161,119 L 164,116 L 164,115 L 165,114 L 173,114 L 174,115 L 176,115 L 177,116 L 180,116 L 182,118 L 185,118 L 186,119 L 186,121 L 185,122 L 185,126 L 186,127 L 187,126 L 190,126 L 191,125 L 200,125 L 201,124 L 203,124 L 206,121 L 206,119 L 207,118 L 208,118 L 208,111 L 207,110 L 207,107 L 206,106 L 206,102 L 204,100 L 204,99 L 203,98 L 202,98 L 201,97 L 199,97 L 198,96 L 196,96 L 195,95 L 194,95 L 190,91 L 190,90 L 189,90 L 186,87 L 185,87 L 184,86 L 184,85 L 181,82 L 181,81 L 180,80 L 180,77 L 181,76 L 181,74 L 182,73 L 182,71 L 181,71 L 180,70 L 178,70 L 177,69 L 173,69 L 172,70 L 169,70 L 166,73 L 165,72 L 165,69 L 166,68 L 170,68 L 171,67 L 165,67 L 164,66 L 163,66 L 162,65 L 161,65 L 160,64 L 161,63 L 160,62 L 159,62 L 157,60 L 154,60 L 153,59 L 151,59 L 150,58 Z" fill="none" stroke="black" stroke-width="1"/>
</svg>