<svg xmlns="http://www.w3.org/2000/svg" width="318" height="385">
  <path d="M 171,150 L 170,151 L 170,156 L 169,157 L 168,157 L 168,161 L 170,163 L 170,165 L 171,165 L 174,168 L 174,176 L 173,177 L 173,178 L 172,179 L 172,183 L 173,184 L 173,186 L 175,186 L 176,185 L 180,185 L 181,186 L 181,187 L 185,187 L 186,186 L 186,185 L 188,183 L 189,183 L 190,182 L 192,182 L 192,180 L 191,179 L 191,178 L 190,177 L 190,176 L 191,175 L 192,175 L 193,174 L 194,174 L 194,173 L 193,172 L 195,170 L 197,170 L 198,169 L 198,166 L 197,165 L 197,159 L 199,157 L 199,151 L 198,150 L 197,150 L 196,151 L 193,151 L 192,150 L 187,150 L 186,151 L 183,151 L 182,152 L 178,152 L 177,151 L 176,151 L 175,150 Z" fill="none" stroke="black" stroke-width="1"/>
</svg>