<svg xmlns="http://www.w3.org/2000/svg" width="318" height="385">
  <path d="M 119,205 L 118,206 L 118,207 L 117,208 L 117,210 L 116,211 L 113,211 L 112,212 L 106,212 L 103,215 L 102,215 L 101,216 L 96,216 L 94,218 L 91,218 L 90,217 L 89,217 L 89,219 L 88,220 L 88,221 L 87,222 L 87,223 L 85,225 L 85,227 L 83,229 L 83,232 L 84,232 L 85,233 L 86,233 L 88,235 L 89,235 L 90,236 L 92,236 L 93,237 L 97,237 L 98,238 L 99,238 L 100,239 L 102,239 L 103,240 L 104,240 L 106,238 L 107,238 L 109,236 L 110,236 L 110,235 L 111,234 L 111,233 L 110,232 L 110,231 L 109,231 L 108,232 L 107,232 L 106,231 L 106,230 L 109,227 L 110,227 L 112,225 L 113,225 L 114,226 L 115,226 L 116,225 L 120,225 L 122,223 L 124,225 L 126,225 L 127,226 L 128,226 L 129,227 L 130,227 L 131,228 L 132,228 L 133,229 L 134,229 L 139,224 L 139,221 L 140,220 L 141,220 L 141,218 L 142,217 L 138,213 L 137,213 L 134,210 L 133,210 L 132,209 L 132,208 L 127,208 L 125,206 L 124,207 L 122,205 Z" fill="none" stroke="black" stroke-width="1"/>
</svg>