<svg xmlns="http://www.w3.org/2000/svg" width="262" height="251">
  <path d="M 182,53 L 181,54 L 180,54 L 179,55 L 178,55 L 178,59 L 177,60 L 176,60 L 176,62 L 175,63 L 174,63 L 171,66 L 170,66 L 168,68 L 167,68 L 167,72 L 166,73 L 163,73 L 163,75 L 165,77 L 168,77 L 170,79 L 170,80 L 171,81 L 171,82 L 172,82 L 174,84 L 174,85 L 176,85 L 178,87 L 177,88 L 177,89 L 176,90 L 176,94 L 175,95 L 175,99 L 178,102 L 178,104 L 180,104 L 181,105 L 184,105 L 187,102 L 187,101 L 189,99 L 190,99 L 190,98 L 192,96 L 195,96 L 196,95 L 197,95 L 200,92 L 200,91 L 203,88 L 203,86 L 204,85 L 205,85 L 204,84 L 204,82 L 201,82 L 200,81 L 200,80 L 198,78 L 198,75 L 197,74 L 197,72 L 198,71 L 198,68 L 197,68 L 196,67 L 197,66 L 197,63 L 198,62 L 198,59 L 197,58 L 197,57 L 195,57 L 194,56 L 194,54 L 191,54 L 190,53 L 189,54 L 187,54 L 186,53 Z" fill="none" stroke="black" stroke-width="1"/>
</svg>