<svg xmlns="http://www.w3.org/2000/svg" width="318" height="385">
  <path d="M 132,177 L 132,178 L 130,180 L 129,180 L 128,181 L 127,181 L 124,178 L 122,178 L 120,180 L 120,181 L 119,182 L 118,182 L 116,184 L 115,184 L 114,183 L 113,183 L 112,182 L 112,183 L 111,184 L 111,186 L 114,189 L 116,189 L 118,191 L 118,195 L 119,195 L 121,197 L 121,201 L 119,203 L 119,204 L 122,204 L 124,206 L 125,205 L 127,207 L 132,207 L 133,208 L 133,209 L 134,209 L 137,212 L 138,212 L 143,217 L 143,215 L 145,213 L 147,213 L 148,212 L 149,212 L 150,211 L 152,211 L 153,212 L 154,212 L 156,214 L 157,214 L 158,215 L 161,215 L 162,216 L 162,217 L 163,216 L 164,216 L 165,215 L 166,215 L 168,213 L 172,213 L 170,211 L 170,209 L 168,207 L 171,204 L 171,199 L 170,199 L 169,200 L 167,198 L 164,198 L 163,199 L 162,199 L 161,198 L 161,194 L 154,187 L 151,187 L 150,186 L 147,186 L 146,185 L 145,185 L 144,184 L 144,183 L 143,182 L 142,182 L 141,181 L 141,180 L 140,179 L 140,178 L 139,177 Z" fill="none" stroke="black" stroke-width="1"/>
</svg>