<svg xmlns="http://www.w3.org/2000/svg" width="318" height="385">
  <path d="M 215,150 L 215,151 L 213,153 L 212,153 L 211,154 L 208,154 L 206,156 L 206,157 L 205,158 L 202,158 L 201,157 L 200,158 L 199,158 L 198,159 L 198,165 L 199,166 L 199,169 L 197,171 L 195,171 L 194,172 L 195,173 L 195,174 L 194,175 L 193,175 L 192,176 L 191,176 L 191,177 L 192,178 L 192,179 L 193,180 L 193,182 L 192,183 L 190,183 L 189,184 L 188,184 L 187,185 L 187,186 L 186,187 L 186,188 L 187,188 L 188,189 L 188,190 L 189,190 L 190,191 L 190,193 L 192,193 L 193,194 L 196,194 L 197,195 L 197,198 L 201,198 L 202,199 L 205,199 L 205,198 L 206,197 L 212,197 L 213,198 L 214,197 L 221,197 L 222,196 L 223,196 L 223,195 L 224,194 L 225,194 L 228,191 L 234,191 L 236,189 L 236,187 L 238,185 L 239,185 L 240,184 L 242,184 L 243,183 L 244,183 L 245,182 L 249,182 L 249,181 L 250,180 L 252,180 L 252,179 L 253,178 L 256,178 L 256,177 L 257,176 L 254,173 L 251,173 L 250,172 L 244,172 L 242,170 L 242,169 L 240,167 L 240,164 L 238,162 L 238,161 L 237,160 L 237,159 L 235,157 L 234,157 L 233,156 L 233,155 L 231,155 L 230,156 L 224,156 L 223,155 L 221,155 L 220,154 L 220,153 L 219,153 L 218,152 L 218,150 Z" fill="none" stroke="black" stroke-width="1"/>
</svg>