<svg xmlns="http://www.w3.org/2000/svg" width="318" height="385">
  <path d="M 257,177 L 257,178 L 256,179 L 253,179 L 253,180 L 252,181 L 250,181 L 250,182 L 249,183 L 245,183 L 244,184 L 243,184 L 242,185 L 240,185 L 239,186 L 238,186 L 237,187 L 237,189 L 234,192 L 228,192 L 225,195 L 224,195 L 224,196 L 223,197 L 222,197 L 221,198 L 214,198 L 213,199 L 212,198 L 206,198 L 206,199 L 207,200 L 207,202 L 209,204 L 209,205 L 210,206 L 210,210 L 211,211 L 211,215 L 210,216 L 210,217 L 213,217 L 215,219 L 215,223 L 216,224 L 229,224 L 230,223 L 234,223 L 235,222 L 236,222 L 237,221 L 239,221 L 240,220 L 241,220 L 241,219 L 244,216 L 244,215 L 245,214 L 245,213 L 246,212 L 246,211 L 249,208 L 250,208 L 251,207 L 255,207 L 256,206 L 258,206 L 258,205 L 257,204 L 257,200 L 258,199 L 258,197 L 259,196 L 259,181 L 258,180 L 258,179 L 257,178 Z" fill="none" stroke="black" stroke-width="1"/>
</svg>