<svg xmlns="http://www.w3.org/2000/svg" width="404" height="430">
  <path d="M 92,291 L 91,292 L 91,295 L 89,297 L 89,301 L 90,302 L 90,308 L 89,309 L 89,310 L 88,311 L 87,311 L 87,312 L 88,312 L 89,313 L 93,313 L 96,316 L 96,317 L 97,317 L 101,321 L 101,322 L 102,323 L 103,322 L 106,322 L 107,321 L 109,321 L 109,317 L 110,316 L 111,316 L 111,315 L 112,314 L 116,314 L 116,312 L 115,311 L 115,310 L 114,309 L 114,308 L 112,306 L 112,301 L 111,300 L 111,299 L 105,299 L 104,298 L 100,298 L 98,296 L 97,296 L 96,295 L 96,294 L 93,291 Z" fill="none" stroke="black" stroke-width="1"/>
</svg>