<svg xmlns="http://www.w3.org/2000/svg" width="404" height="430">
  <path d="M 186,292 L 185,293 L 185,296 L 184,297 L 176,297 L 175,296 L 172,296 L 171,295 L 168,295 L 167,294 L 165,294 L 165,295 L 164,296 L 164,299 L 163,300 L 162,300 L 161,299 L 157,299 L 155,301 L 154,301 L 152,299 L 151,299 L 150,300 L 151,301 L 151,302 L 152,303 L 152,304 L 151,305 L 150,305 L 149,304 L 148,304 L 148,305 L 150,305 L 151,306 L 153,306 L 160,313 L 161,313 L 162,314 L 163,314 L 164,315 L 166,315 L 167,316 L 167,317 L 168,317 L 169,318 L 169,321 L 172,324 L 172,325 L 170,327 L 170,331 L 168,333 L 168,335 L 171,335 L 172,336 L 173,336 L 174,337 L 176,337 L 177,338 L 177,339 L 178,339 L 178,337 L 180,335 L 180,334 L 181,333 L 184,333 L 185,332 L 186,332 L 186,331 L 187,330 L 187,328 L 189,326 L 193,326 L 194,325 L 195,325 L 196,324 L 197,324 L 198,323 L 199,323 L 201,321 L 201,318 L 200,317 L 200,316 L 201,315 L 201,313 L 202,312 L 204,312 L 205,313 L 207,311 L 207,308 L 206,308 L 205,307 L 204,307 L 202,305 L 202,300 L 201,300 L 200,299 L 198,299 L 195,296 L 195,295 L 193,293 L 190,293 L 189,292 Z" fill="none" stroke="black" stroke-width="1"/>
</svg>