<svg xmlns="http://www.w3.org/2000/svg" width="404" height="430">
  <path d="M 173,226 L 173,227 L 170,230 L 168,230 L 167,231 L 161,231 L 160,232 L 151,232 L 151,233 L 150,234 L 146,234 L 144,236 L 144,237 L 142,239 L 142,240 L 141,241 L 141,248 L 142,249 L 143,249 L 144,250 L 144,251 L 147,251 L 149,249 L 151,249 L 152,250 L 152,251 L 154,251 L 156,253 L 157,253 L 158,254 L 158,255 L 160,257 L 160,258 L 161,258 L 162,259 L 164,259 L 166,261 L 166,262 L 165,263 L 164,263 L 164,267 L 165,268 L 165,269 L 167,269 L 168,270 L 170,270 L 171,271 L 172,271 L 175,274 L 177,274 L 178,275 L 182,275 L 185,278 L 185,279 L 187,279 L 187,276 L 188,275 L 189,275 L 190,276 L 192,276 L 192,273 L 193,272 L 194,272 L 195,271 L 195,268 L 194,267 L 194,262 L 193,261 L 193,249 L 192,248 L 192,245 L 191,244 L 191,239 L 190,239 L 189,238 L 189,237 L 188,236 L 188,234 L 186,232 L 186,231 L 184,229 L 183,229 L 182,228 L 179,228 L 178,227 L 176,227 L 175,226 Z" fill="none" stroke="black" stroke-width="1"/>
</svg>