<svg xmlns="http://www.w3.org/2000/svg" width="404" height="430">
  <path d="M 120,311 L 119,312 L 117,312 L 117,314 L 116,315 L 112,315 L 112,316 L 111,317 L 110,317 L 110,321 L 109,322 L 107,322 L 106,323 L 103,323 L 103,333 L 104,334 L 105,334 L 106,335 L 107,335 L 110,338 L 110,339 L 112,339 L 113,340 L 113,345 L 115,345 L 116,346 L 117,346 L 118,347 L 119,347 L 120,348 L 126,348 L 128,346 L 129,346 L 130,347 L 131,347 L 132,348 L 136,348 L 137,349 L 138,349 L 138,344 L 137,343 L 137,341 L 142,336 L 142,334 L 140,332 L 140,330 L 139,330 L 138,329 L 134,329 L 133,328 L 134,327 L 134,326 L 132,324 L 131,324 L 130,323 L 129,323 L 128,324 L 126,324 L 122,320 L 123,319 L 123,318 L 125,316 L 125,314 L 122,311 Z" fill="none" stroke="black" stroke-width="1"/>
</svg>