<svg xmlns="http://www.w3.org/2000/svg" width="395" height="336">
  <path d="M 12,26 L 11,27 L 8,27 L 7,28 L 5,28 L 4,29 L 2,29 L 1,30 L 0,30 L 1,31 L 1,34 L 2,35 L 2,39 L 3,40 L 3,43 L 4,44 L 4,46 L 6,44 L 7,45 L 7,48 L 6,49 L 6,53 L 5,54 L 5,58 L 4,59 L 4,63 L 3,64 L 3,66 L 2,67 L 2,68 L 1,69 L 1,70 L 2,69 L 4,69 L 5,70 L 6,69 L 9,69 L 10,70 L 10,71 L 14,75 L 14,76 L 15,77 L 15,78 L 16,78 L 17,77 L 19,77 L 19,76 L 21,74 L 22,74 L 23,73 L 24,73 L 24,71 L 23,70 L 23,69 L 20,66 L 20,65 L 19,64 L 19,63 L 16,60 L 16,59 L 17,58 L 17,56 L 18,55 L 18,47 L 17,46 L 17,41 L 15,39 L 15,36 L 13,34 L 13,30 L 14,29 L 14,27 L 13,26 Z" fill="none" stroke="black" stroke-width="1"/>
</svg>