<svg xmlns="http://www.w3.org/2000/svg" width="395" height="336">
  <path d="M 21,75 L 20,76 L 20,77 L 19,78 L 17,78 L 16,79 L 15,79 L 16,80 L 16,81 L 17,82 L 18,82 L 19,83 L 19,84 L 20,85 L 20,86 L 22,88 L 22,89 L 23,89 L 24,90 L 24,92 L 27,95 L 27,96 L 28,97 L 28,98 L 29,99 L 29,100 L 30,101 L 30,102 L 31,103 L 31,104 L 33,104 L 34,105 L 34,109 L 35,110 L 36,110 L 38,112 L 38,113 L 40,115 L 40,117 L 43,120 L 43,124 L 42,125 L 41,125 L 41,126 L 44,126 L 45,125 L 48,125 L 53,120 L 53,118 L 54,117 L 54,113 L 53,112 L 53,109 L 52,109 L 46,103 L 46,102 L 45,102 L 43,100 L 43,99 L 39,95 L 39,89 L 37,87 L 36,87 L 35,86 L 35,85 L 31,81 L 31,79 L 30,78 L 27,78 L 26,77 L 24,77 L 22,75 Z" fill="none" stroke="black" stroke-width="1"/>
</svg>