<svg xmlns="http://www.w3.org/2000/svg" width="248" height="151">
  <path d="M 87,85 L 86,86 L 85,86 L 83,88 L 81,88 L 77,92 L 75,92 L 74,93 L 72,93 L 71,94 L 70,94 L 69,95 L 68,95 L 66,97 L 64,97 L 64,98 L 63,99 L 63,100 L 62,101 L 62,102 L 63,103 L 63,105 L 62,106 L 64,108 L 65,108 L 69,112 L 72,112 L 73,111 L 74,111 L 75,110 L 81,110 L 82,109 L 84,109 L 85,108 L 90,108 L 90,107 L 91,106 L 92,106 L 93,105 L 96,105 L 96,104 L 99,101 L 99,99 L 96,99 L 95,98 L 95,97 L 92,97 L 91,96 L 91,94 L 92,93 L 92,91 L 88,87 L 88,85 Z" fill="none" stroke="black" stroke-width="1"/>
</svg>