<svg xmlns="http://www.w3.org/2000/svg" width="262" height="251">
  <path d="M 114,66 L 111,69 L 110,69 L 109,70 L 108,70 L 108,72 L 113,72 L 114,73 L 116,73 L 117,74 L 117,77 L 116,78 L 116,81 L 121,81 L 122,82 L 122,83 L 123,83 L 124,84 L 126,84 L 127,85 L 128,85 L 129,86 L 130,86 L 131,87 L 132,87 L 133,86 L 134,86 L 135,85 L 135,84 L 136,83 L 136,81 L 135,80 L 135,79 L 137,77 L 138,78 L 139,78 L 139,77 L 140,76 L 140,74 L 139,73 L 137,73 L 136,72 L 133,72 L 132,71 L 131,71 L 130,70 L 128,70 L 127,69 L 122,69 L 121,68 L 119,68 L 118,67 L 116,67 L 115,66 Z" fill="none" stroke="black" stroke-width="1"/>
</svg>