<svg xmlns="http://www.w3.org/2000/svg" width="248" height="151">
  <path d="M 71,72 L 71,73 L 70,74 L 70,76 L 68,78 L 67,78 L 64,81 L 63,81 L 62,82 L 61,81 L 60,81 L 59,82 L 59,83 L 58,84 L 58,86 L 57,87 L 57,92 L 56,93 L 56,94 L 57,95 L 59,95 L 60,96 L 66,96 L 68,94 L 69,94 L 70,93 L 71,93 L 72,92 L 74,92 L 75,91 L 77,91 L 81,87 L 83,87 L 85,85 L 86,85 L 87,84 L 88,84 L 88,83 L 87,82 L 86,82 L 84,80 L 84,79 L 83,78 L 82,78 L 81,77 L 79,77 L 76,74 L 76,73 L 75,72 Z" fill="none" stroke="black" stroke-width="1"/>
</svg>