<svg xmlns="http://www.w3.org/2000/svg" width="395" height="336">
  <path d="M 71,0 L 71,1 L 68,4 L 68,5 L 67,6 L 64,6 L 63,7 L 62,7 L 62,8 L 61,9 L 56,9 L 55,10 L 53,10 L 52,11 L 46,11 L 45,12 L 44,12 L 43,13 L 40,13 L 40,14 L 39,15 L 37,15 L 38,16 L 38,18 L 39,19 L 39,20 L 40,21 L 39,22 L 41,24 L 43,24 L 44,25 L 44,26 L 45,27 L 45,29 L 46,29 L 48,31 L 48,34 L 46,36 L 46,37 L 45,38 L 40,38 L 39,39 L 36,39 L 34,41 L 34,42 L 36,44 L 37,44 L 39,46 L 41,46 L 42,47 L 42,48 L 43,48 L 44,49 L 44,52 L 43,53 L 43,55 L 44,56 L 44,59 L 45,60 L 45,62 L 46,63 L 46,64 L 49,67 L 51,67 L 53,65 L 54,65 L 55,64 L 56,64 L 57,65 L 60,65 L 61,66 L 62,66 L 63,67 L 72,67 L 72,66 L 73,65 L 73,64 L 76,61 L 78,61 L 79,60 L 82,60 L 84,58 L 85,58 L 86,57 L 87,57 L 89,55 L 90,55 L 92,53 L 92,52 L 93,51 L 93,44 L 94,43 L 95,43 L 96,42 L 99,42 L 101,40 L 102,40 L 103,39 L 103,38 L 105,36 L 106,36 L 107,35 L 108,35 L 107,34 L 107,32 L 106,31 L 102,31 L 101,30 L 101,29 L 100,28 L 98,28 L 97,27 L 97,24 L 98,23 L 98,22 L 99,21 L 100,21 L 101,20 L 101,19 L 104,16 L 104,13 L 103,13 L 100,10 L 99,10 L 98,9 L 93,9 L 92,8 L 91,8 L 90,7 L 88,7 L 87,6 L 85,6 L 84,5 L 82,5 L 79,2 L 78,2 L 77,1 L 73,1 L 72,0 Z" fill="none" stroke="black" stroke-width="1"/>
</svg>