<svg xmlns="http://www.w3.org/2000/svg" width="395" height="336">
  <path d="M 151,114 L 150,115 L 149,115 L 149,117 L 147,119 L 146,119 L 146,120 L 143,123 L 138,123 L 138,127 L 137,128 L 136,128 L 132,132 L 129,132 L 128,131 L 126,131 L 125,130 L 124,130 L 123,129 L 120,129 L 119,130 L 117,130 L 116,131 L 116,134 L 117,135 L 117,138 L 118,139 L 117,140 L 117,141 L 116,142 L 116,144 L 119,147 L 118,148 L 118,150 L 119,151 L 119,152 L 120,153 L 120,154 L 121,155 L 121,156 L 122,156 L 123,157 L 126,157 L 127,158 L 129,158 L 130,159 L 130,160 L 131,161 L 131,163 L 133,165 L 134,165 L 134,164 L 135,163 L 138,163 L 139,164 L 140,164 L 141,163 L 143,163 L 145,161 L 146,161 L 147,160 L 148,160 L 150,158 L 153,158 L 158,153 L 158,152 L 163,147 L 164,147 L 165,146 L 166,146 L 167,145 L 171,145 L 172,146 L 174,146 L 175,147 L 176,147 L 177,148 L 179,148 L 180,149 L 182,149 L 183,148 L 184,148 L 185,147 L 184,146 L 184,145 L 185,144 L 185,142 L 186,141 L 186,138 L 184,136 L 184,135 L 183,134 L 182,134 L 181,133 L 181,132 L 179,130 L 179,126 L 177,124 L 172,124 L 171,123 L 171,122 L 170,121 L 170,120 L 169,119 L 169,118 L 168,118 L 166,116 L 165,116 L 164,117 L 162,117 L 161,116 L 160,116 L 159,115 L 153,115 L 152,114 Z" fill="none" stroke="black" stroke-width="1"/>
</svg>