<svg xmlns="http://www.w3.org/2000/svg" width="395" height="336">
  <path d="M 192,88 L 191,89 L 189,89 L 187,91 L 187,92 L 186,93 L 185,93 L 185,94 L 184,95 L 183,95 L 183,96 L 180,99 L 177,99 L 176,100 L 176,104 L 173,107 L 170,107 L 169,108 L 167,108 L 166,109 L 165,109 L 165,110 L 166,110 L 171,115 L 170,116 L 169,116 L 169,117 L 170,118 L 170,119 L 171,120 L 171,121 L 172,122 L 172,123 L 177,123 L 179,125 L 180,125 L 181,124 L 182,124 L 183,123 L 184,123 L 184,122 L 185,121 L 186,121 L 187,120 L 188,120 L 189,119 L 190,119 L 191,118 L 193,118 L 194,117 L 194,116 L 196,114 L 197,114 L 197,112 L 198,111 L 198,110 L 199,109 L 201,109 L 202,108 L 202,101 L 201,100 L 201,99 L 200,98 L 200,96 L 199,95 L 199,94 L 200,93 L 199,92 L 199,91 L 198,90 L 198,89 L 196,89 L 195,90 L 193,90 L 192,89 Z" fill="none" stroke="black" stroke-width="1"/>
</svg>