<svg xmlns="http://www.w3.org/2000/svg" width="395" height="336">
  <path d="M 210,126 L 208,128 L 206,128 L 205,129 L 206,130 L 206,131 L 205,132 L 205,135 L 203,137 L 202,137 L 199,140 L 189,140 L 188,141 L 187,141 L 186,142 L 186,144 L 185,145 L 185,146 L 186,147 L 185,148 L 185,149 L 187,151 L 188,151 L 190,153 L 190,155 L 189,156 L 189,157 L 191,157 L 192,158 L 195,158 L 198,161 L 207,161 L 208,160 L 208,159 L 212,155 L 213,155 L 214,154 L 216,154 L 218,152 L 220,152 L 222,150 L 226,150 L 227,149 L 227,143 L 225,141 L 225,140 L 222,137 L 221,137 L 218,134 L 218,131 L 217,130 L 215,130 L 213,128 L 212,128 L 211,127 L 211,126 Z" fill="none" stroke="black" stroke-width="1"/>
</svg>