<svg xmlns="http://www.w3.org/2000/svg" width="395" height="336">
  <path d="M 114,143 L 112,145 L 111,145 L 110,146 L 110,147 L 109,148 L 108,148 L 107,149 L 106,149 L 106,151 L 108,153 L 108,154 L 107,155 L 106,155 L 104,157 L 103,157 L 101,159 L 100,159 L 99,160 L 98,160 L 95,163 L 93,163 L 92,162 L 91,162 L 91,164 L 90,165 L 90,166 L 91,167 L 91,168 L 92,168 L 95,171 L 95,173 L 96,174 L 96,177 L 95,178 L 95,179 L 97,181 L 97,182 L 99,184 L 102,184 L 103,185 L 105,183 L 106,183 L 107,182 L 113,182 L 114,181 L 115,181 L 116,180 L 117,180 L 118,179 L 122,179 L 123,180 L 124,180 L 125,181 L 127,181 L 127,180 L 126,179 L 126,176 L 127,175 L 127,174 L 129,172 L 130,172 L 131,171 L 131,170 L 132,169 L 132,167 L 133,166 L 130,163 L 130,161 L 129,160 L 129,159 L 127,159 L 126,158 L 123,158 L 122,157 L 121,157 L 120,156 L 120,155 L 119,154 L 119,153 L 118,152 L 118,151 L 117,150 L 117,148 L 118,147 L 115,144 L 115,143 Z" fill="none" stroke="black" stroke-width="1"/>
</svg>