<svg xmlns="http://www.w3.org/2000/svg" width="395" height="336">
  <path d="M 94,199 L 92,201 L 89,201 L 88,202 L 88,203 L 89,204 L 90,204 L 92,206 L 93,206 L 94,207 L 94,208 L 95,209 L 96,209 L 98,211 L 98,214 L 99,214 L 100,215 L 100,216 L 101,217 L 101,219 L 102,220 L 102,221 L 103,221 L 104,222 L 103,223 L 103,224 L 105,226 L 104,227 L 104,228 L 106,230 L 107,230 L 107,229 L 108,228 L 109,228 L 111,226 L 113,228 L 116,228 L 118,226 L 119,226 L 119,225 L 120,224 L 120,220 L 119,219 L 119,218 L 118,217 L 118,216 L 119,215 L 119,212 L 120,211 L 120,210 L 116,210 L 115,209 L 114,209 L 113,208 L 113,207 L 110,204 L 110,203 L 106,199 L 103,199 L 102,200 L 101,200 L 100,201 L 98,201 L 96,199 Z" fill="none" stroke="black" stroke-width="1"/>
</svg>