<svg xmlns="http://www.w3.org/2000/svg" width="395" height="336">
  <path d="M 128,304 L 127,305 L 128,306 L 129,305 Z" fill="none" stroke="black" stroke-width="1"/>
  <path d="M 126,282 L 125,283 L 125,284 L 126,283 Z" fill="none" stroke="black" stroke-width="1"/>
  <path d="M 133,264 L 132,265 L 131,265 L 130,266 L 129,266 L 129,269 L 130,270 L 130,274 L 127,277 L 127,278 L 128,279 L 128,280 L 129,281 L 129,283 L 127,285 L 128,285 L 130,287 L 130,288 L 131,289 L 131,290 L 132,291 L 131,292 L 132,293 L 132,295 L 133,296 L 132,297 L 132,298 L 133,299 L 133,301 L 134,302 L 133,303 L 133,305 L 134,305 L 135,306 L 136,306 L 137,305 L 141,305 L 142,306 L 143,306 L 145,304 L 146,305 L 146,303 L 148,301 L 148,300 L 147,300 L 145,298 L 145,297 L 144,297 L 143,296 L 143,295 L 139,291 L 139,290 L 140,289 L 140,287 L 139,287 L 138,286 L 138,284 L 137,283 L 140,280 L 140,279 L 142,277 L 142,273 L 140,271 L 140,270 L 138,268 L 137,268 L 136,267 L 136,266 L 135,265 L 135,264 Z" fill="none" stroke="black" stroke-width="1"/>
</svg>