<svg xmlns="http://www.w3.org/2000/svg" width="262" height="251">
  <path d="M 122,113 L 122,114 L 120,116 L 121,117 L 121,118 L 122,119 L 122,122 L 121,123 L 121,125 L 120,126 L 120,128 L 121,129 L 122,129 L 124,131 L 125,131 L 127,133 L 128,133 L 129,132 L 131,132 L 133,134 L 133,136 L 138,136 L 139,137 L 141,137 L 142,136 L 144,136 L 145,135 L 148,135 L 149,134 L 149,131 L 148,130 L 149,129 L 149,128 L 148,127 L 146,127 L 145,128 L 144,127 L 144,126 L 143,125 L 142,125 L 141,124 L 141,123 L 140,122 L 139,122 L 138,121 L 136,121 L 132,117 L 132,116 L 130,116 L 129,115 L 127,115 L 126,114 L 125,114 L 124,113 Z" fill="none" stroke="black" stroke-width="1"/>
</svg>