<svg xmlns="http://www.w3.org/2000/svg" width="395" height="336">
  <path d="M 158,284 L 156,286 L 156,288 L 154,290 L 153,290 L 152,291 L 150,291 L 147,294 L 145,294 L 144,295 L 144,296 L 145,296 L 146,297 L 146,298 L 147,299 L 148,299 L 150,301 L 151,301 L 153,299 L 158,299 L 161,302 L 161,303 L 164,306 L 166,306 L 166,305 L 168,303 L 170,303 L 171,302 L 172,302 L 173,301 L 173,299 L 174,298 L 174,297 L 173,296 L 174,295 L 174,293 L 173,292 L 173,291 L 172,290 L 171,290 L 169,288 L 167,288 L 166,287 L 165,287 L 163,285 L 162,285 L 161,284 L 160,285 L 159,284 Z" fill="none" stroke="black" stroke-width="1"/>
</svg>