<svg xmlns="http://www.w3.org/2000/svg" width="395" height="336">
  <path d="M 142,234 L 141,235 L 139,235 L 138,236 L 137,236 L 138,237 L 137,238 L 136,238 L 134,240 L 134,242 L 135,243 L 135,246 L 134,247 L 134,248 L 136,250 L 136,251 L 137,252 L 136,253 L 136,255 L 137,256 L 137,258 L 138,259 L 138,262 L 136,264 L 136,265 L 137,266 L 137,267 L 138,267 L 140,269 L 141,269 L 142,268 L 143,268 L 146,265 L 150,265 L 153,268 L 153,269 L 154,270 L 155,270 L 156,269 L 155,268 L 156,267 L 156,266 L 159,263 L 159,262 L 158,261 L 161,258 L 161,257 L 160,256 L 159,256 L 158,255 L 158,252 L 157,252 L 155,250 L 154,250 L 153,249 L 153,248 L 152,247 L 152,246 L 151,246 L 150,245 L 149,245 L 148,244 L 147,244 L 146,243 L 146,242 L 144,240 L 144,239 L 145,238 L 144,237 L 144,235 L 143,234 Z" fill="none" stroke="black" stroke-width="1"/>
</svg>