<svg xmlns="http://www.w3.org/2000/svg" width="395" height="336">
  <path d="M 232,278 L 230,280 L 229,280 L 228,281 L 227,281 L 226,282 L 222,282 L 221,283 L 219,283 L 218,284 L 218,287 L 219,288 L 220,288 L 221,289 L 221,290 L 222,290 L 224,292 L 224,293 L 226,295 L 227,295 L 228,296 L 229,295 L 230,295 L 231,294 L 232,294 L 233,293 L 234,293 L 235,292 L 237,292 L 238,291 L 243,291 L 244,290 L 246,290 L 248,288 L 249,288 L 249,286 L 247,284 L 246,284 L 245,285 L 244,285 L 242,283 L 241,283 L 240,282 L 240,280 L 238,278 Z" fill="none" stroke="black" stroke-width="1"/>
</svg>