<svg xmlns="http://www.w3.org/2000/svg" width="395" height="336">
  <path d="M 258,247 L 257,248 L 255,248 L 251,252 L 249,252 L 248,253 L 246,253 L 245,254 L 243,254 L 242,255 L 242,256 L 241,257 L 240,257 L 239,258 L 236,258 L 236,259 L 237,260 L 236,261 L 236,262 L 238,264 L 240,264 L 241,265 L 242,264 L 243,265 L 243,266 L 244,267 L 244,269 L 245,268 L 248,268 L 251,271 L 253,271 L 254,270 L 257,270 L 259,268 L 267,268 L 268,269 L 269,269 L 270,270 L 271,270 L 272,271 L 274,271 L 275,272 L 275,270 L 276,269 L 276,268 L 278,266 L 279,266 L 281,264 L 283,264 L 284,263 L 286,263 L 287,262 L 288,262 L 289,261 L 291,261 L 292,260 L 295,260 L 295,259 L 293,257 L 291,257 L 290,256 L 289,256 L 288,255 L 283,255 L 282,254 L 282,253 L 278,253 L 277,252 L 277,251 L 276,251 L 275,250 L 270,250 L 269,249 L 264,249 L 262,247 Z" fill="none" stroke="black" stroke-width="1"/>
</svg>