<svg xmlns="http://www.w3.org/2000/svg" width="395" height="336">
  <path d="M 330,139 L 329,140 L 329,142 L 328,143 L 328,144 L 327,145 L 327,148 L 326,149 L 326,150 L 324,152 L 325,153 L 325,155 L 328,158 L 327,159 L 327,161 L 331,161 L 332,160 L 333,160 L 334,159 L 334,158 L 336,156 L 343,156 L 346,153 L 346,151 L 349,148 L 349,147 L 348,146 L 346,146 L 345,145 L 345,144 L 344,143 L 343,143 L 342,142 L 341,142 L 340,141 L 337,141 L 335,139 Z" fill="none" stroke="black" stroke-width="1"/>
</svg>