<svg xmlns="http://www.w3.org/2000/svg" width="395" height="336">
  <path d="M 385,163 L 385,164 L 384,165 L 384,166 L 383,167 L 382,167 L 381,168 L 380,168 L 380,169 L 379,170 L 377,170 L 377,172 L 376,173 L 376,174 L 375,175 L 375,176 L 374,177 L 374,182 L 373,183 L 372,183 L 371,184 L 372,185 L 372,186 L 374,188 L 374,190 L 376,192 L 376,193 L 377,192 L 377,191 L 378,190 L 378,189 L 384,183 L 385,183 L 386,182 L 387,182 L 387,180 L 388,179 L 388,178 L 390,176 L 390,175 L 392,173 L 392,171 L 394,169 L 394,165 L 393,164 L 390,164 L 389,163 Z" fill="none" stroke="black" stroke-width="1"/>
</svg>