<svg xmlns="http://www.w3.org/2000/svg" width="395" height="336">
  <path d="M 367,159 L 367,160 L 366,161 L 366,162 L 364,164 L 363,164 L 362,165 L 362,168 L 363,169 L 360,172 L 360,174 L 359,175 L 359,176 L 357,178 L 356,178 L 356,182 L 357,183 L 357,184 L 358,184 L 359,185 L 360,185 L 361,184 L 362,185 L 364,185 L 365,186 L 368,186 L 372,182 L 373,182 L 373,177 L 374,176 L 374,175 L 375,174 L 375,173 L 376,172 L 376,170 L 377,169 L 379,169 L 379,168 L 380,167 L 381,167 L 381,165 L 378,162 L 378,161 L 376,159 L 374,159 L 372,161 L 371,161 L 369,159 Z" fill="none" stroke="black" stroke-width="1"/>
</svg>