<svg xmlns="http://www.w3.org/2000/svg" width="248" height="151">
  <path d="M 223,101 L 222,102 L 222,105 L 220,107 L 220,108 L 219,109 L 218,109 L 217,110 L 216,110 L 214,112 L 214,113 L 212,115 L 211,115 L 211,116 L 210,117 L 208,117 L 208,121 L 209,121 L 211,123 L 213,123 L 214,124 L 214,125 L 215,126 L 219,126 L 221,128 L 221,131 L 222,132 L 224,132 L 226,134 L 228,134 L 229,133 L 229,131 L 230,130 L 230,126 L 233,123 L 233,120 L 234,119 L 234,118 L 235,117 L 235,113 L 234,113 L 232,111 L 232,110 L 230,108 L 230,107 L 228,105 L 228,103 L 225,103 L 224,102 L 224,101 Z" fill="none" stroke="black" stroke-width="1"/>
</svg>