<svg xmlns="http://www.w3.org/2000/svg" width="262" height="251">
  <path d="M 83,122 L 82,123 L 82,124 L 81,125 L 79,125 L 78,124 L 76,124 L 75,125 L 72,125 L 72,128 L 75,131 L 75,132 L 76,133 L 76,136 L 77,136 L 78,137 L 78,139 L 80,141 L 81,140 L 82,140 L 83,139 L 85,139 L 86,138 L 87,138 L 88,137 L 89,137 L 90,138 L 91,138 L 94,141 L 97,141 L 97,140 L 98,139 L 99,139 L 99,137 L 98,136 L 98,133 L 97,132 L 97,130 L 98,129 L 96,129 L 95,128 L 94,128 L 92,126 L 92,125 L 89,122 Z" fill="none" stroke="black" stroke-width="1"/>
</svg>