<svg xmlns="http://www.w3.org/2000/svg" width="262" height="251">
  <path d="M 61,118 L 60,119 L 59,119 L 58,120 L 58,123 L 57,124 L 57,126 L 56,127 L 56,128 L 55,129 L 54,129 L 54,130 L 55,131 L 55,134 L 56,135 L 57,135 L 58,136 L 58,139 L 61,139 L 62,140 L 62,142 L 64,144 L 64,145 L 66,147 L 66,148 L 67,149 L 69,149 L 69,148 L 70,147 L 78,147 L 79,146 L 80,146 L 80,142 L 77,139 L 77,137 L 76,137 L 75,136 L 75,133 L 74,132 L 74,131 L 71,128 L 71,124 L 70,124 L 69,123 L 69,121 L 67,119 L 67,118 L 66,119 L 64,119 L 63,118 Z" fill="none" stroke="black" stroke-width="1"/>
</svg>