<svg xmlns="http://www.w3.org/2000/svg" width="262" height="251">
  <path d="M 108,166 L 108,167 L 107,168 L 107,171 L 106,172 L 106,175 L 107,175 L 108,176 L 108,177 L 109,178 L 109,179 L 110,179 L 114,183 L 114,188 L 117,188 L 118,189 L 118,191 L 117,192 L 116,191 L 116,192 L 118,194 L 119,194 L 120,195 L 120,196 L 121,197 L 121,201 L 124,201 L 125,200 L 129,200 L 130,201 L 130,202 L 132,204 L 135,204 L 136,205 L 138,205 L 138,204 L 139,203 L 140,203 L 141,202 L 141,201 L 139,199 L 135,199 L 134,198 L 134,197 L 133,196 L 133,195 L 131,193 L 129,193 L 125,189 L 125,183 L 126,182 L 126,180 L 123,177 L 123,175 L 122,176 L 121,176 L 119,174 L 119,173 L 118,172 L 117,173 L 116,173 L 115,174 L 114,174 L 112,172 L 112,171 L 111,171 L 110,170 L 110,169 L 109,168 L 109,166 Z" fill="none" stroke="black" stroke-width="1"/>
</svg>