<svg xmlns="http://www.w3.org/2000/svg" width="248" height="151">
  <path d="M 202,51 L 201,52 L 201,53 L 199,55 L 197,55 L 197,56 L 195,58 L 193,58 L 192,57 L 191,57 L 190,58 L 190,59 L 189,60 L 189,61 L 187,63 L 187,64 L 189,64 L 191,66 L 191,68 L 192,68 L 193,69 L 194,69 L 196,71 L 196,76 L 198,78 L 198,82 L 199,83 L 199,84 L 202,87 L 201,88 L 201,90 L 204,90 L 205,91 L 207,91 L 209,89 L 212,89 L 215,92 L 218,92 L 219,93 L 220,93 L 220,92 L 221,91 L 222,91 L 222,90 L 223,89 L 223,87 L 224,86 L 224,83 L 225,82 L 224,81 L 223,81 L 220,78 L 219,78 L 218,77 L 218,76 L 216,74 L 214,74 L 213,73 L 213,72 L 210,69 L 210,68 L 208,66 L 210,64 L 207,61 L 208,60 L 208,57 L 206,57 L 204,55 L 204,52 L 203,51 Z" fill="none" stroke="black" stroke-width="1"/>
</svg>