<svg xmlns="http://www.w3.org/2000/svg" width="248" height="151">
  <path d="M 128,4 L 127,5 L 122,5 L 121,6 L 118,6 L 117,5 L 115,5 L 115,9 L 114,10 L 114,12 L 113,13 L 113,14 L 110,17 L 110,18 L 111,19 L 112,19 L 113,20 L 115,20 L 117,22 L 118,22 L 120,20 L 124,20 L 125,21 L 126,20 L 128,22 L 128,23 L 132,23 L 133,22 L 133,21 L 134,20 L 140,20 L 141,21 L 141,22 L 143,22 L 144,21 L 149,21 L 150,22 L 151,21 L 151,19 L 150,18 L 150,17 L 149,17 L 148,16 L 148,14 L 147,13 L 146,13 L 142,9 L 141,9 L 140,8 L 140,6 L 138,4 L 136,4 L 135,5 L 132,5 L 131,4 Z" fill="none" stroke="black" stroke-width="1"/>
</svg>