<svg xmlns="http://www.w3.org/2000/svg" width="262" height="251">
  <path d="M 4,43 L 3,44 L 2,44 L 1,45 L 0,45 L 0,46 L 2,48 L 2,50 L 3,50 L 7,54 L 7,55 L 8,55 L 9,56 L 9,57 L 8,58 L 7,58 L 7,60 L 6,61 L 5,61 L 5,66 L 6,67 L 7,67 L 8,68 L 8,69 L 11,69 L 13,67 L 15,67 L 16,68 L 20,68 L 21,67 L 22,67 L 22,65 L 24,63 L 28,63 L 29,62 L 29,59 L 27,57 L 26,57 L 25,56 L 26,55 L 26,54 L 25,53 L 24,53 L 23,52 L 23,49 L 22,48 L 22,47 L 20,45 L 19,45 L 17,47 L 15,47 L 13,45 L 13,44 L 12,43 L 9,43 L 8,44 L 7,44 L 6,43 Z" fill="none" stroke="black" stroke-width="1"/>
</svg>