<svg xmlns="http://www.w3.org/2000/svg" width="262" height="251">
  <path d="M 30,61 L 30,62 L 28,64 L 24,64 L 23,65 L 23,67 L 22,68 L 21,68 L 20,69 L 18,69 L 18,70 L 19,70 L 20,71 L 20,75 L 21,75 L 23,77 L 22,78 L 22,80 L 23,80 L 24,81 L 24,82 L 27,85 L 27,86 L 28,86 L 30,88 L 31,88 L 32,89 L 32,90 L 33,90 L 33,89 L 35,87 L 36,87 L 38,89 L 38,91 L 38,90 L 40,88 L 42,88 L 42,87 L 41,87 L 40,86 L 41,85 L 41,84 L 40,84 L 39,83 L 39,81 L 38,81 L 37,80 L 39,78 L 40,78 L 41,77 L 41,74 L 40,73 L 40,72 L 38,70 L 37,70 L 35,68 L 35,67 L 34,66 L 34,65 L 33,64 L 33,62 L 32,62 L 31,61 Z" fill="none" stroke="black" stroke-width="1"/>
</svg>