<svg xmlns="http://www.w3.org/2000/svg" width="333" height="139">
  <path d="M 291,74 L 289,76 L 288,75 L 287,76 L 286,76 L 285,77 L 284,77 L 283,78 L 283,79 L 282,80 L 282,83 L 283,84 L 283,86 L 284,86 L 285,87 L 288,87 L 289,86 L 291,86 L 294,89 L 294,91 L 295,91 L 299,95 L 300,95 L 302,97 L 302,99 L 304,99 L 305,98 L 306,98 L 306,97 L 305,96 L 306,95 L 309,95 L 309,94 L 310,93 L 313,93 L 313,88 L 312,87 L 312,84 L 309,81 L 309,80 L 307,80 L 306,81 L 305,81 L 301,77 L 300,78 L 299,78 L 298,77 L 295,77 L 294,76 L 294,75 L 293,75 L 292,74 Z" fill="none" stroke="black" stroke-width="1"/>
</svg>