<svg xmlns="http://www.w3.org/2000/svg" width="333" height="139">
  <path d="M 299,60 L 297,62 L 296,62 L 295,61 L 294,61 L 293,62 L 293,64 L 291,66 L 291,70 L 292,71 L 292,73 L 293,74 L 294,74 L 295,75 L 295,76 L 298,76 L 299,77 L 300,77 L 301,76 L 305,80 L 306,80 L 307,79 L 309,79 L 310,80 L 310,81 L 313,84 L 313,87 L 314,88 L 314,89 L 315,89 L 316,88 L 318,88 L 320,90 L 321,90 L 322,89 L 323,89 L 324,88 L 325,88 L 324,87 L 324,85 L 322,85 L 320,83 L 320,81 L 321,80 L 321,77 L 320,76 L 321,75 L 321,74 L 320,74 L 318,72 L 318,71 L 317,70 L 316,70 L 315,71 L 313,71 L 311,69 L 310,69 L 309,70 L 308,69 L 305,69 L 304,68 L 303,68 L 302,67 L 304,65 L 305,65 L 305,62 L 303,60 Z" fill="none" stroke="black" stroke-width="1"/>
</svg>