<svg xmlns="http://www.w3.org/2000/svg" width="194" height="149">
  <path d="M 154,84 L 154,85 L 153,86 L 153,88 L 150,91 L 150,92 L 149,93 L 150,94 L 150,95 L 149,96 L 149,98 L 148,99 L 147,99 L 149,101 L 152,101 L 153,102 L 158,102 L 159,103 L 160,103 L 162,105 L 163,105 L 164,106 L 165,105 L 167,105 L 168,106 L 170,106 L 170,105 L 168,103 L 169,102 L 169,101 L 170,100 L 170,99 L 171,98 L 172,98 L 172,94 L 173,93 L 172,92 L 169,92 L 168,91 L 167,91 L 166,90 L 165,90 L 164,89 L 162,89 L 161,88 L 161,87 L 160,87 L 158,85 L 156,85 L 155,84 Z" fill="none" stroke="black" stroke-width="1"/>
</svg>