<svg xmlns="http://www.w3.org/2000/svg" width="262" height="251">
  <path d="M 67,28 L 66,29 L 65,29 L 65,32 L 67,34 L 67,35 L 66,36 L 64,36 L 64,37 L 62,39 L 60,39 L 58,41 L 57,41 L 57,42 L 58,42 L 59,43 L 59,44 L 61,46 L 62,46 L 63,47 L 64,47 L 66,49 L 67,48 L 69,48 L 69,47 L 70,46 L 71,46 L 72,47 L 75,47 L 77,45 L 81,45 L 82,46 L 84,46 L 84,45 L 85,44 L 85,42 L 84,42 L 83,41 L 83,38 L 82,38 L 80,36 L 80,35 L 79,34 L 77,36 L 75,36 L 73,34 L 73,33 L 70,33 L 69,32 L 69,29 L 68,28 Z" fill="none" stroke="black" stroke-width="1"/>
</svg>