<svg xmlns="http://www.w3.org/2000/svg" width="262" height="251">
  <path d="M 194,201 L 193,202 L 190,202 L 190,204 L 189,205 L 189,206 L 191,208 L 191,210 L 188,213 L 188,214 L 190,216 L 191,216 L 192,217 L 192,220 L 191,221 L 191,222 L 192,223 L 192,225 L 194,225 L 195,224 L 196,224 L 197,223 L 198,223 L 199,222 L 208,222 L 209,223 L 210,223 L 211,224 L 211,226 L 214,229 L 215,229 L 215,227 L 217,225 L 217,223 L 219,221 L 219,215 L 218,214 L 218,211 L 217,211 L 213,207 L 213,203 L 209,203 L 208,204 L 207,204 L 206,203 L 205,203 L 204,202 L 204,201 L 203,201 L 203,202 L 202,203 L 199,203 L 198,202 L 196,202 L 195,201 Z" fill="none" stroke="black" stroke-width="1"/>
</svg>