<svg xmlns="http://www.w3.org/2000/svg" width="194" height="149">
  <path d="M 68,106 L 67,107 L 67,108 L 66,109 L 72,115 L 71,116 L 70,116 L 69,117 L 69,118 L 71,118 L 74,121 L 74,124 L 75,125 L 76,125 L 77,124 L 78,124 L 80,126 L 86,126 L 87,127 L 89,127 L 90,126 L 93,126 L 94,125 L 96,125 L 96,124 L 97,123 L 97,122 L 96,121 L 96,120 L 94,118 L 96,116 L 97,117 L 98,117 L 99,116 L 99,115 L 100,114 L 100,113 L 99,112 L 98,113 L 94,113 L 93,112 L 92,112 L 91,111 L 87,111 L 86,110 L 86,109 L 85,108 L 84,108 L 83,107 L 78,107 L 77,108 L 75,108 L 74,107 L 69,107 Z" fill="none" stroke="black" stroke-width="1"/>
</svg>