<svg xmlns="http://www.w3.org/2000/svg" width="194" height="149">
  <path d="M 53,87 L 50,90 L 50,91 L 48,93 L 47,93 L 46,94 L 46,95 L 47,96 L 48,96 L 49,97 L 49,98 L 51,100 L 51,102 L 52,103 L 52,104 L 53,105 L 53,106 L 56,106 L 57,107 L 59,107 L 60,106 L 62,106 L 63,105 L 64,105 L 64,104 L 65,103 L 66,104 L 67,104 L 69,106 L 73,106 L 73,105 L 74,104 L 74,101 L 73,100 L 73,99 L 74,98 L 74,95 L 71,95 L 70,94 L 70,92 L 69,91 L 68,91 L 66,89 L 63,89 L 62,90 L 61,89 L 57,89 L 55,87 Z" fill="none" stroke="black" stroke-width="1"/>
</svg>