<svg xmlns="http://www.w3.org/2000/svg" width="262" height="251">
  <path d="M 18,2 L 18,3 L 19,4 L 18,5 L 22,9 L 22,11 L 23,12 L 22,13 L 22,17 L 21,18 L 21,20 L 20,21 L 20,22 L 19,23 L 24,23 L 26,25 L 31,25 L 33,27 L 34,26 L 35,27 L 36,27 L 39,24 L 41,24 L 42,23 L 45,23 L 47,21 L 48,21 L 49,20 L 49,18 L 48,17 L 48,15 L 40,15 L 39,14 L 32,14 L 31,13 L 31,12 L 30,11 L 30,10 L 28,10 L 27,9 L 27,7 L 25,7 L 24,6 L 24,4 L 23,4 L 22,3 L 21,3 L 20,2 Z" fill="none" stroke="black" stroke-width="1"/>
</svg>