<svg xmlns="http://www.w3.org/2000/svg" width="194" height="149">
  <path d="M 134,72 L 133,73 L 132,73 L 130,75 L 129,75 L 129,76 L 130,76 L 131,77 L 131,79 L 132,80 L 133,80 L 136,83 L 136,88 L 137,88 L 139,90 L 140,90 L 141,91 L 141,92 L 142,92 L 143,93 L 143,95 L 144,95 L 145,96 L 145,98 L 148,98 L 148,96 L 149,95 L 149,94 L 148,93 L 149,92 L 149,91 L 152,88 L 152,86 L 153,85 L 153,83 L 152,83 L 151,82 L 149,82 L 148,81 L 147,81 L 141,75 L 139,75 L 136,72 Z" fill="none" stroke="black" stroke-width="1"/>
</svg>