<svg xmlns="http://www.w3.org/2000/svg" width="194" height="149">
  <path d="M 145,55 L 145,56 L 144,57 L 144,59 L 143,60 L 143,62 L 141,64 L 140,64 L 140,65 L 138,67 L 139,68 L 139,69 L 140,70 L 142,70 L 144,72 L 145,72 L 146,73 L 147,73 L 148,74 L 150,74 L 153,77 L 153,78 L 154,78 L 156,80 L 156,79 L 158,77 L 160,77 L 163,74 L 163,71 L 162,71 L 160,69 L 160,68 L 159,67 L 159,66 L 158,65 L 158,64 L 156,62 L 155,62 L 154,61 L 152,61 L 151,62 L 150,62 L 146,58 L 146,57 L 145,56 Z" fill="none" stroke="black" stroke-width="1"/>
</svg>