<svg xmlns="http://www.w3.org/2000/svg" width="333" height="139">
  <path d="M 164,52 L 163,53 L 161,53 L 160,54 L 159,54 L 158,55 L 157,55 L 156,54 L 154,54 L 152,56 L 151,56 L 150,57 L 149,57 L 149,61 L 151,63 L 151,64 L 152,65 L 152,68 L 157,73 L 156,74 L 156,77 L 157,78 L 157,79 L 159,81 L 162,81 L 165,78 L 170,78 L 171,79 L 175,79 L 176,78 L 175,77 L 175,75 L 178,72 L 178,71 L 179,70 L 179,69 L 178,68 L 178,67 L 179,66 L 179,65 L 177,63 L 177,62 L 178,61 L 178,60 L 177,59 L 175,59 L 174,58 L 174,57 L 172,57 L 171,56 L 170,56 L 169,55 L 168,55 L 165,52 Z" fill="none" stroke="black" stroke-width="1"/>
</svg>