<svg xmlns="http://www.w3.org/2000/svg" width="333" height="139">
  <path d="M 232,50 L 231,51 L 230,51 L 230,52 L 227,55 L 226,55 L 225,56 L 223,56 L 222,57 L 221,57 L 218,60 L 218,62 L 217,63 L 217,65 L 218,66 L 223,66 L 224,65 L 225,66 L 225,67 L 227,67 L 228,68 L 229,68 L 230,69 L 232,69 L 234,67 L 240,67 L 241,66 L 242,66 L 244,64 L 248,64 L 248,63 L 249,62 L 249,57 L 247,57 L 246,56 L 246,55 L 245,54 L 244,54 L 242,52 L 242,51 L 239,51 L 238,50 Z" fill="none" stroke="black" stroke-width="1"/>
</svg>