<svg xmlns="http://www.w3.org/2000/svg" width="262" height="251">
  <path d="M 230,131 L 229,132 L 228,132 L 228,133 L 227,134 L 226,134 L 226,136 L 225,137 L 225,138 L 224,139 L 223,139 L 223,140 L 222,141 L 222,142 L 220,144 L 218,144 L 217,145 L 217,146 L 215,148 L 212,148 L 211,149 L 210,148 L 207,148 L 206,147 L 206,146 L 205,146 L 204,145 L 202,145 L 201,146 L 200,146 L 200,147 L 201,148 L 201,150 L 202,151 L 202,153 L 200,155 L 200,156 L 199,157 L 198,156 L 197,156 L 197,159 L 198,159 L 202,163 L 202,165 L 203,166 L 203,167 L 204,168 L 204,169 L 206,171 L 206,173 L 207,174 L 204,177 L 204,181 L 205,182 L 205,183 L 206,184 L 206,185 L 207,185 L 208,184 L 212,184 L 214,186 L 218,186 L 218,185 L 219,184 L 219,183 L 221,181 L 226,181 L 226,180 L 227,179 L 229,179 L 230,178 L 237,178 L 238,177 L 242,177 L 243,178 L 246,178 L 247,177 L 249,177 L 250,176 L 250,174 L 249,173 L 249,171 L 250,170 L 250,165 L 251,164 L 251,161 L 249,159 L 249,158 L 248,158 L 247,157 L 247,155 L 250,152 L 251,152 L 252,151 L 248,147 L 248,144 L 246,142 L 246,140 L 242,136 L 241,136 L 240,135 L 240,134 L 238,134 L 236,132 L 235,132 L 234,131 Z" fill="none" stroke="black" stroke-width="1"/>
</svg>