<svg xmlns="http://www.w3.org/2000/svg" width="333" height="139">
  <path d="M 117,56 L 116,57 L 116,58 L 113,61 L 112,61 L 112,62 L 111,63 L 111,64 L 110,65 L 110,66 L 109,67 L 112,70 L 112,73 L 108,77 L 108,78 L 109,79 L 113,79 L 115,77 L 117,77 L 118,76 L 118,74 L 119,73 L 121,73 L 122,72 L 124,72 L 126,70 L 127,70 L 128,69 L 129,69 L 129,67 L 130,66 L 132,66 L 133,65 L 135,65 L 137,63 L 137,60 L 136,59 L 136,58 L 135,58 L 134,57 L 134,56 L 131,56 L 130,57 L 129,57 L 128,58 L 122,58 L 120,56 Z" fill="none" stroke="black" stroke-width="1"/>
</svg>