<svg xmlns="http://www.w3.org/2000/svg" width="333" height="139">
  <path d="M 118,30 L 117,31 L 116,31 L 115,32 L 111,32 L 109,34 L 109,37 L 108,38 L 108,40 L 107,41 L 107,43 L 111,43 L 112,44 L 113,44 L 116,47 L 116,51 L 117,52 L 117,55 L 120,55 L 122,57 L 128,57 L 129,56 L 130,56 L 131,55 L 132,55 L 131,54 L 131,52 L 130,51 L 130,50 L 131,49 L 134,49 L 135,48 L 136,48 L 138,46 L 138,44 L 137,43 L 137,41 L 136,41 L 135,40 L 137,38 L 137,36 L 139,34 L 139,33 L 131,33 L 130,32 L 128,32 L 127,33 L 124,30 Z" fill="none" stroke="black" stroke-width="1"/>
</svg>