<svg xmlns="http://www.w3.org/2000/svg" width="333" height="139">
  <path d="M 179,17 L 178,18 L 177,18 L 176,19 L 175,19 L 174,20 L 170,20 L 168,18 L 165,18 L 164,19 L 161,19 L 160,20 L 160,21 L 159,22 L 159,23 L 156,26 L 154,26 L 154,30 L 155,31 L 156,31 L 158,33 L 158,34 L 159,34 L 161,36 L 162,36 L 164,38 L 164,39 L 165,39 L 167,37 L 167,36 L 169,34 L 172,34 L 173,33 L 175,33 L 177,31 L 178,31 L 179,30 L 180,30 L 182,28 L 183,28 L 187,24 L 187,20 L 186,19 L 185,19 L 184,18 L 184,17 Z" fill="none" stroke="black" stroke-width="1"/>
</svg>