<svg xmlns="http://www.w3.org/2000/svg" width="333" height="139">
  <path d="M 173,34 L 172,35 L 169,35 L 168,36 L 168,37 L 165,40 L 164,40 L 164,42 L 165,43 L 165,44 L 163,46 L 163,49 L 164,50 L 164,51 L 165,51 L 168,54 L 169,54 L 170,55 L 171,55 L 172,56 L 174,56 L 175,57 L 175,58 L 177,58 L 179,60 L 179,61 L 180,60 L 181,60 L 182,61 L 185,61 L 186,62 L 187,62 L 187,61 L 188,60 L 191,60 L 192,59 L 193,59 L 193,57 L 192,57 L 191,56 L 189,56 L 188,55 L 188,54 L 187,53 L 187,52 L 186,51 L 185,51 L 184,50 L 183,50 L 182,49 L 182,48 L 181,47 L 181,46 L 180,46 L 179,45 L 179,44 L 178,44 L 175,41 L 175,37 L 174,37 L 173,36 Z" fill="none" stroke="black" stroke-width="1"/>
</svg>