<svg xmlns="http://www.w3.org/2000/svg" width="259" height="221">
  <path d="M 200,30 L 200,32 L 199,33 L 198,32 L 198,34 L 197,35 L 196,35 L 196,36 L 195,37 L 194,37 L 194,38 L 193,39 L 192,39 L 191,40 L 185,40 L 184,39 L 184,41 L 185,42 L 184,43 L 184,44 L 183,45 L 183,47 L 184,48 L 185,48 L 186,49 L 186,50 L 188,50 L 190,52 L 190,53 L 191,53 L 193,51 L 194,51 L 195,50 L 196,50 L 197,49 L 197,48 L 198,47 L 199,47 L 200,46 L 200,44 L 201,43 L 202,43 L 203,42 L 204,42 L 205,41 L 205,40 L 206,39 L 207,39 L 207,36 L 206,35 L 206,33 L 204,33 L 201,30 Z" fill="none" stroke="black" stroke-width="1"/>
</svg>