<svg xmlns="http://www.w3.org/2000/svg" width="259" height="221">
  <path d="M 165,37 L 164,38 L 165,39 L 165,40 L 161,44 L 161,46 L 160,47 L 157,47 L 156,48 L 152,48 L 151,47 L 149,47 L 147,45 L 146,45 L 146,48 L 147,48 L 148,49 L 148,55 L 149,56 L 148,57 L 148,63 L 150,65 L 150,66 L 154,66 L 155,67 L 158,67 L 159,68 L 160,68 L 161,67 L 162,67 L 162,65 L 163,64 L 163,63 L 162,62 L 163,61 L 163,60 L 165,58 L 166,58 L 166,57 L 167,56 L 171,56 L 172,55 L 174,55 L 174,53 L 177,50 L 177,49 L 176,49 L 175,48 L 174,48 L 172,46 L 172,40 L 170,38 L 171,37 Z" fill="none" stroke="black" stroke-width="1"/>
</svg>