<svg xmlns="http://www.w3.org/2000/svg" width="259" height="221">
  <path d="M 201,126 L 200,127 L 199,127 L 199,128 L 198,129 L 196,129 L 196,130 L 197,131 L 197,132 L 198,133 L 198,137 L 199,138 L 199,139 L 198,140 L 198,142 L 199,143 L 199,146 L 200,147 L 200,148 L 201,148 L 202,149 L 204,149 L 206,147 L 211,147 L 212,148 L 214,148 L 217,145 L 219,145 L 219,144 L 220,143 L 220,142 L 219,141 L 219,140 L 218,139 L 217,139 L 215,137 L 215,133 L 214,132 L 213,132 L 211,134 L 208,134 L 207,133 L 204,133 L 203,132 L 203,128 Z" fill="none" stroke="black" stroke-width="1"/>
</svg>