<svg xmlns="http://www.w3.org/2000/svg" width="262" height="251">
  <path d="M 199,125 L 197,127 L 194,127 L 193,128 L 189,128 L 188,127 L 185,130 L 182,130 L 181,129 L 179,129 L 178,128 L 177,128 L 177,129 L 176,130 L 174,130 L 172,132 L 171,132 L 171,133 L 168,136 L 166,136 L 166,137 L 165,138 L 164,138 L 162,140 L 162,141 L 165,144 L 165,145 L 167,145 L 170,148 L 172,148 L 173,149 L 174,149 L 176,151 L 176,152 L 179,152 L 180,151 L 181,151 L 182,152 L 185,152 L 187,154 L 192,154 L 193,155 L 193,156 L 195,156 L 196,155 L 198,155 L 199,156 L 199,155 L 201,153 L 201,151 L 200,150 L 200,148 L 199,147 L 199,146 L 200,145 L 201,145 L 202,144 L 204,144 L 205,145 L 206,145 L 207,146 L 207,147 L 210,147 L 211,148 L 212,147 L 215,147 L 216,146 L 216,144 L 214,142 L 213,142 L 212,141 L 212,140 L 211,139 L 209,139 L 207,137 L 206,137 L 205,136 L 205,135 L 204,134 L 204,133 L 203,132 L 203,130 L 202,129 L 202,128 L 201,127 L 201,126 L 200,125 Z" fill="none" stroke="black" stroke-width="1"/>
</svg>