<svg xmlns="http://www.w3.org/2000/svg" width="259" height="221">
  <path d="M 137,85 L 137,86 L 136,87 L 135,87 L 133,89 L 130,89 L 128,91 L 128,96 L 126,98 L 126,99 L 125,100 L 125,102 L 126,103 L 126,105 L 127,105 L 128,106 L 128,110 L 126,112 L 126,114 L 127,115 L 127,116 L 128,117 L 128,118 L 131,121 L 131,122 L 136,127 L 137,127 L 139,129 L 140,129 L 141,130 L 142,130 L 143,129 L 144,129 L 145,130 L 146,130 L 148,132 L 150,132 L 151,131 L 155,131 L 156,130 L 157,130 L 158,131 L 158,132 L 161,132 L 163,134 L 164,134 L 165,135 L 165,132 L 166,131 L 166,130 L 167,129 L 167,126 L 166,125 L 166,120 L 165,119 L 164,119 L 163,118 L 163,117 L 164,116 L 164,114 L 166,112 L 168,112 L 168,111 L 169,110 L 170,110 L 170,109 L 171,108 L 173,108 L 174,107 L 174,105 L 175,104 L 173,102 L 173,101 L 172,100 L 172,99 L 171,98 L 171,93 L 170,92 L 170,91 L 169,90 L 169,89 L 168,89 L 167,88 L 162,88 L 162,89 L 161,90 L 154,90 L 153,89 L 152,90 L 151,90 L 149,92 L 145,92 L 143,90 L 143,88 L 142,87 L 142,86 L 139,86 L 138,85 Z" fill="none" stroke="black" stroke-width="1"/>
</svg>