<svg xmlns="http://www.w3.org/2000/svg" width="268" height="258">
  <path d="M 80,80 L 78,82 L 77,82 L 76,83 L 75,83 L 74,84 L 72,84 L 71,85 L 71,86 L 72,87 L 74,87 L 78,91 L 78,92 L 79,92 L 82,95 L 82,98 L 81,99 L 80,99 L 78,101 L 77,101 L 76,100 L 75,100 L 75,101 L 72,104 L 72,105 L 73,106 L 73,107 L 74,107 L 77,110 L 77,111 L 76,112 L 76,113 L 77,114 L 80,114 L 83,111 L 84,111 L 85,112 L 91,112 L 92,113 L 94,113 L 95,112 L 95,111 L 96,110 L 97,110 L 97,109 L 96,108 L 97,107 L 97,106 L 99,104 L 99,103 L 100,102 L 99,102 L 98,101 L 97,101 L 95,99 L 95,95 L 96,94 L 96,92 L 97,91 L 98,91 L 98,88 L 97,87 L 97,82 L 94,82 L 93,83 L 92,82 L 91,82 L 90,81 L 89,82 L 87,82 L 86,81 L 83,81 L 82,80 Z" fill="none" stroke="black" stroke-width="1"/>
</svg>