<svg xmlns="http://www.w3.org/2000/svg" width="268" height="258">
  <path d="M 73,50 L 72,51 L 70,51 L 70,54 L 71,55 L 71,56 L 72,57 L 72,58 L 73,59 L 73,60 L 71,62 L 71,65 L 73,67 L 73,70 L 74,71 L 74,72 L 75,73 L 75,74 L 77,76 L 77,77 L 79,77 L 80,78 L 80,79 L 82,79 L 83,80 L 86,80 L 87,81 L 89,81 L 90,80 L 91,81 L 92,81 L 93,82 L 94,81 L 97,81 L 97,74 L 98,73 L 98,67 L 97,66 L 97,64 L 96,63 L 96,61 L 95,60 L 92,60 L 91,59 L 91,57 L 90,57 L 89,56 L 89,55 L 88,54 L 88,53 L 87,53 L 84,50 L 79,50 L 78,51 L 77,50 Z" fill="none" stroke="black" stroke-width="1"/>
</svg>