<svg xmlns="http://www.w3.org/2000/svg" width="268" height="258">
  <path d="M 35,51 L 34,52 L 34,54 L 35,55 L 34,56 L 32,56 L 31,55 L 29,55 L 28,54 L 26,54 L 25,55 L 24,55 L 24,56 L 25,57 L 25,61 L 26,61 L 27,62 L 32,62 L 33,63 L 33,65 L 32,66 L 32,67 L 31,68 L 31,69 L 33,71 L 37,71 L 38,72 L 39,72 L 40,73 L 40,74 L 39,75 L 40,75 L 41,76 L 41,78 L 40,79 L 47,79 L 48,80 L 49,80 L 50,79 L 51,79 L 52,78 L 54,78 L 55,79 L 56,79 L 56,78 L 58,76 L 58,75 L 59,74 L 59,73 L 58,72 L 58,71 L 57,70 L 57,69 L 54,69 L 52,67 L 50,67 L 49,66 L 49,65 L 50,64 L 50,63 L 49,62 L 48,62 L 46,60 L 46,58 L 44,56 L 44,55 L 43,55 L 40,52 L 38,52 L 37,51 Z" fill="none" stroke="black" stroke-width="1"/>
</svg>