<svg xmlns="http://www.w3.org/2000/svg" width="262" height="251">
  <path d="M 220,221 L 218,223 L 218,225 L 216,227 L 216,229 L 215,230 L 214,230 L 214,236 L 215,237 L 215,241 L 217,243 L 217,246 L 219,246 L 220,247 L 222,247 L 223,246 L 224,246 L 225,247 L 225,248 L 226,247 L 227,247 L 230,250 L 231,250 L 232,249 L 238,249 L 239,250 L 240,249 L 241,250 L 242,250 L 242,249 L 241,248 L 241,247 L 238,244 L 238,241 L 239,240 L 239,239 L 240,238 L 241,238 L 241,235 L 242,234 L 242,232 L 241,231 L 241,229 L 240,229 L 239,228 L 239,227 L 241,225 L 241,222 L 240,222 L 239,223 L 239,224 L 238,225 L 237,225 L 235,227 L 234,227 L 233,228 L 232,227 L 231,227 L 229,225 L 228,225 L 227,226 L 225,226 L 224,225 L 222,225 L 221,224 L 221,222 Z" fill="none" stroke="black" stroke-width="1"/>
</svg>