<svg xmlns="http://www.w3.org/2000/svg" width="262" height="251">
  <path d="M 155,183 L 155,185 L 154,186 L 153,186 L 152,185 L 148,185 L 147,186 L 146,186 L 145,187 L 142,187 L 142,189 L 144,189 L 145,190 L 145,193 L 144,194 L 144,195 L 143,196 L 143,197 L 142,198 L 142,199 L 141,200 L 142,201 L 142,202 L 143,203 L 144,203 L 145,204 L 145,205 L 146,205 L 147,206 L 151,206 L 151,204 L 152,203 L 154,203 L 156,201 L 159,201 L 160,202 L 161,202 L 163,200 L 164,200 L 164,197 L 163,196 L 163,195 L 162,194 L 162,193 L 164,191 L 164,190 L 163,190 L 162,189 L 162,187 L 161,186 L 161,185 L 160,185 L 159,184 L 159,183 Z" fill="none" stroke="black" stroke-width="1"/>
</svg>