<svg xmlns="http://www.w3.org/2000/svg" width="262" height="251">
  <path d="M 164,167 L 163,168 L 163,169 L 162,170 L 162,171 L 164,173 L 164,174 L 165,175 L 164,176 L 163,176 L 163,177 L 162,178 L 162,179 L 161,180 L 160,180 L 160,181 L 159,182 L 160,183 L 160,184 L 161,184 L 162,185 L 162,186 L 163,187 L 163,189 L 164,189 L 165,190 L 165,191 L 163,193 L 163,194 L 164,195 L 164,196 L 165,197 L 165,198 L 166,197 L 168,197 L 169,196 L 170,196 L 170,195 L 171,194 L 172,194 L 172,193 L 173,192 L 175,192 L 176,193 L 177,192 L 181,192 L 182,193 L 183,193 L 184,194 L 185,194 L 185,190 L 182,187 L 182,186 L 180,184 L 180,182 L 177,179 L 177,178 L 176,177 L 176,175 L 175,174 L 175,172 L 173,170 L 173,168 L 172,168 L 172,169 L 171,170 L 170,169 L 167,169 L 165,167 Z" fill="none" stroke="black" stroke-width="1"/>
</svg>