<svg xmlns="http://www.w3.org/2000/svg" width="268" height="258">
  <path d="M 74,196 L 72,198 L 71,198 L 70,199 L 69,199 L 68,200 L 65,200 L 64,199 L 63,199 L 62,198 L 61,198 L 60,197 L 58,197 L 57,198 L 56,198 L 55,199 L 57,201 L 57,203 L 56,204 L 54,204 L 54,205 L 55,206 L 55,213 L 54,214 L 54,215 L 53,216 L 53,219 L 54,220 L 54,223 L 52,225 L 52,226 L 53,226 L 54,227 L 54,229 L 55,230 L 55,232 L 56,231 L 56,230 L 57,229 L 58,229 L 59,228 L 60,228 L 61,227 L 64,227 L 65,226 L 72,226 L 74,224 L 75,224 L 76,223 L 77,223 L 78,222 L 80,222 L 81,223 L 85,223 L 86,222 L 88,222 L 89,223 L 90,223 L 91,224 L 92,224 L 94,226 L 98,226 L 99,227 L 99,228 L 100,229 L 102,229 L 104,227 L 108,227 L 110,229 L 112,229 L 113,228 L 120,228 L 120,223 L 122,221 L 122,219 L 118,219 L 117,220 L 115,220 L 114,219 L 114,217 L 115,216 L 115,211 L 114,210 L 114,209 L 111,209 L 110,210 L 108,210 L 107,209 L 103,209 L 98,204 L 95,204 L 94,205 L 93,205 L 92,206 L 89,206 L 88,205 L 88,204 L 85,204 L 84,205 L 81,205 L 80,204 L 80,203 L 79,203 L 76,200 L 76,198 L 75,197 L 75,196 Z" fill="none" stroke="black" stroke-width="1"/>
</svg>