<svg xmlns="http://www.w3.org/2000/svg" width="262" height="251">
  <path d="M 123,163 L 123,165 L 125,167 L 125,169 L 124,170 L 120,170 L 119,171 L 119,172 L 120,173 L 120,174 L 121,175 L 122,175 L 123,174 L 124,175 L 124,177 L 127,180 L 127,182 L 126,183 L 126,189 L 129,192 L 131,192 L 134,195 L 134,196 L 135,197 L 135,198 L 139,198 L 140,199 L 141,199 L 141,198 L 142,197 L 142,196 L 143,195 L 143,194 L 144,193 L 144,190 L 142,190 L 141,189 L 141,188 L 140,188 L 139,187 L 139,186 L 138,185 L 138,184 L 136,182 L 136,181 L 135,181 L 134,180 L 134,175 L 133,174 L 133,168 L 130,165 L 130,164 L 129,164 L 128,163 L 127,164 L 125,164 L 124,163 Z" fill="none" stroke="black" stroke-width="1"/>
</svg>