<svg xmlns="http://www.w3.org/2000/svg" width="262" height="251">
  <path d="M 125,201 L 124,202 L 122,202 L 123,203 L 123,205 L 124,206 L 124,207 L 128,211 L 130,211 L 131,210 L 132,211 L 136,211 L 137,212 L 137,213 L 138,213 L 139,214 L 142,214 L 144,212 L 145,212 L 147,214 L 149,214 L 149,212 L 150,211 L 150,209 L 149,208 L 150,207 L 147,207 L 146,206 L 145,206 L 144,205 L 144,204 L 143,204 L 142,203 L 141,203 L 140,204 L 139,204 L 139,205 L 138,206 L 136,206 L 135,205 L 132,205 L 129,202 L 129,201 Z" fill="none" stroke="black" stroke-width="1"/>
</svg>