<svg xmlns="http://www.w3.org/2000/svg" width="268" height="258">
  <path d="M 10,93 L 9,94 L 8,94 L 7,95 L 4,95 L 3,96 L 3,97 L 2,98 L 1,98 L 0,99 L 2,101 L 2,102 L 3,102 L 4,103 L 4,104 L 5,104 L 6,105 L 6,110 L 8,112 L 8,113 L 7,114 L 8,115 L 8,116 L 7,117 L 7,118 L 8,118 L 10,120 L 10,121 L 11,122 L 12,122 L 14,124 L 14,125 L 15,126 L 15,127 L 16,128 L 16,130 L 17,131 L 17,132 L 18,133 L 18,134 L 19,134 L 21,136 L 23,136 L 25,138 L 25,139 L 26,139 L 29,142 L 30,141 L 32,141 L 33,140 L 33,139 L 34,138 L 34,137 L 35,136 L 36,136 L 36,135 L 37,134 L 37,132 L 38,131 L 39,131 L 39,126 L 38,125 L 38,123 L 37,122 L 37,121 L 38,120 L 38,114 L 37,114 L 36,113 L 36,111 L 35,111 L 33,109 L 33,108 L 32,107 L 32,105 L 30,103 L 29,103 L 28,102 L 27,102 L 26,101 L 25,101 L 24,100 L 24,97 L 20,97 L 18,95 L 16,95 L 14,93 Z" fill="none" stroke="black" stroke-width="1"/>
</svg>