<svg xmlns="http://www.w3.org/2000/svg" width="262" height="251">
  <path d="M 128,103 L 126,105 L 125,105 L 124,106 L 123,105 L 121,105 L 120,106 L 120,107 L 121,108 L 121,110 L 122,111 L 122,112 L 124,112 L 125,113 L 126,113 L 127,114 L 129,114 L 130,115 L 132,115 L 133,116 L 133,117 L 136,120 L 138,120 L 138,118 L 140,116 L 141,116 L 143,114 L 145,114 L 146,113 L 145,112 L 145,106 L 144,105 L 140,105 L 139,104 L 138,104 L 137,103 L 134,103 L 133,104 L 131,104 L 130,103 Z" fill="none" stroke="black" stroke-width="1"/>
</svg>