<svg xmlns="http://www.w3.org/2000/svg" width="268" height="258">
  <path d="M 52,79 L 51,80 L 50,80 L 49,81 L 48,81 L 47,80 L 39,80 L 36,83 L 35,83 L 33,85 L 32,85 L 31,86 L 30,86 L 29,85 L 28,85 L 27,86 L 25,86 L 23,84 L 23,83 L 19,83 L 18,84 L 16,84 L 16,86 L 13,89 L 13,90 L 11,92 L 14,92 L 16,94 L 18,94 L 20,96 L 24,96 L 25,97 L 25,100 L 26,100 L 27,101 L 28,101 L 29,102 L 30,102 L 33,105 L 33,107 L 34,108 L 34,109 L 35,110 L 36,110 L 37,111 L 37,113 L 40,113 L 40,112 L 42,110 L 43,110 L 43,109 L 45,107 L 46,107 L 47,106 L 48,106 L 50,104 L 50,102 L 52,100 L 53,100 L 55,102 L 58,102 L 61,99 L 62,99 L 63,100 L 64,100 L 67,103 L 67,105 L 68,105 L 69,106 L 69,109 L 71,107 L 72,107 L 72,106 L 71,105 L 71,104 L 74,101 L 74,100 L 75,99 L 76,99 L 77,100 L 78,100 L 80,98 L 81,98 L 81,95 L 79,93 L 78,93 L 77,92 L 77,91 L 74,88 L 72,88 L 70,86 L 70,85 L 68,83 L 67,83 L 66,82 L 65,82 L 64,81 L 57,81 L 56,80 L 55,80 L 54,79 Z" fill="none" stroke="black" stroke-width="1"/>
</svg>