<svg xmlns="http://www.w3.org/2000/svg" width="262" height="251">
  <path d="M 108,73 L 107,74 L 103,74 L 102,75 L 100,75 L 100,76 L 99,77 L 99,79 L 100,80 L 100,81 L 99,82 L 99,84 L 102,84 L 104,86 L 105,86 L 106,87 L 106,90 L 105,91 L 105,93 L 104,94 L 104,95 L 105,96 L 105,98 L 106,98 L 107,97 L 109,97 L 111,99 L 113,99 L 113,96 L 114,95 L 114,94 L 117,91 L 120,91 L 121,90 L 123,90 L 124,89 L 124,85 L 123,84 L 122,84 L 121,83 L 121,82 L 116,82 L 115,81 L 115,78 L 116,77 L 116,74 L 114,74 L 113,73 Z" fill="none" stroke="black" stroke-width="1"/>
</svg>