<svg xmlns="http://www.w3.org/2000/svg" width="262" height="251">
  <path d="M 89,54 L 88,55 L 88,56 L 87,57 L 86,57 L 85,56 L 84,57 L 83,56 L 83,55 L 82,56 L 82,59 L 79,62 L 77,62 L 77,64 L 76,65 L 76,66 L 75,67 L 75,71 L 76,71 L 77,72 L 78,72 L 80,74 L 80,76 L 81,77 L 83,77 L 84,76 L 85,76 L 86,75 L 87,75 L 88,74 L 89,74 L 88,73 L 90,71 L 90,70 L 91,69 L 91,68 L 94,65 L 94,62 L 95,61 L 97,61 L 97,60 L 98,59 L 98,58 L 99,57 L 99,56 L 96,56 L 95,55 L 92,55 L 91,54 Z" fill="none" stroke="black" stroke-width="1"/>
</svg>