<svg xmlns="http://www.w3.org/2000/svg" width="268" height="258">
  <path d="M 81,140 L 80,141 L 79,141 L 79,143 L 78,144 L 77,144 L 76,145 L 75,145 L 72,148 L 70,148 L 69,149 L 67,149 L 66,150 L 64,150 L 63,151 L 62,151 L 60,153 L 60,155 L 61,155 L 62,156 L 62,157 L 64,159 L 64,162 L 63,163 L 63,168 L 62,169 L 62,171 L 63,172 L 64,172 L 65,173 L 66,173 L 68,175 L 69,175 L 71,177 L 71,178 L 73,178 L 74,179 L 75,179 L 76,178 L 79,178 L 80,179 L 82,179 L 84,177 L 89,177 L 90,178 L 91,178 L 92,177 L 93,177 L 95,179 L 97,179 L 98,178 L 100,178 L 101,177 L 101,173 L 98,170 L 98,168 L 97,167 L 97,163 L 100,160 L 100,158 L 99,157 L 99,156 L 97,154 L 97,152 L 96,151 L 94,151 L 93,150 L 93,149 L 92,148 L 92,146 L 93,145 L 95,145 L 94,145 L 93,144 L 92,144 L 91,143 L 89,143 L 88,142 L 86,142 L 84,140 Z" fill="none" stroke="black" stroke-width="1"/>
</svg>