<svg xmlns="http://www.w3.org/2000/svg" width="262" height="251">
  <path d="M 157,51 L 156,52 L 152,52 L 151,53 L 148,53 L 147,54 L 144,54 L 143,55 L 141,55 L 141,58 L 140,59 L 140,62 L 141,63 L 141,64 L 140,65 L 139,65 L 140,66 L 140,67 L 142,67 L 144,65 L 146,65 L 147,66 L 149,66 L 150,67 L 156,67 L 157,66 L 160,66 L 161,65 L 163,65 L 164,64 L 164,62 L 165,61 L 165,60 L 166,59 L 167,59 L 167,58 L 168,57 L 165,54 L 165,53 L 163,53 L 162,52 L 159,52 L 158,51 Z" fill="none" stroke="black" stroke-width="1"/>
</svg>