<svg xmlns="http://www.w3.org/2000/svg" width="262" height="251">
  <path d="M 102,126 L 100,128 L 99,128 L 99,129 L 98,130 L 98,132 L 99,133 L 99,136 L 100,137 L 100,139 L 99,140 L 98,140 L 98,142 L 99,142 L 100,143 L 102,143 L 103,144 L 103,146 L 104,147 L 104,152 L 107,155 L 109,155 L 111,153 L 111,152 L 112,151 L 114,151 L 115,152 L 119,152 L 118,151 L 118,147 L 119,146 L 119,142 L 116,139 L 115,139 L 114,138 L 110,138 L 105,133 L 105,132 L 104,131 L 104,129 L 103,128 L 103,127 Z" fill="none" stroke="black" stroke-width="1"/>
</svg>