<svg xmlns="http://www.w3.org/2000/svg" width="710" height="350">
  <path d="M 294,287 L 293,288 L 293,289 L 292,290 L 291,290 L 291,295 L 292,296 L 292,299 L 295,302 L 295,303 L 294,304 L 294,305 L 296,305 L 297,306 L 303,306 L 304,305 L 307,305 L 308,306 L 312,306 L 313,307 L 314,307 L 315,306 L 317,306 L 318,307 L 320,307 L 321,308 L 326,308 L 327,309 L 329,309 L 330,310 L 331,310 L 332,311 L 333,311 L 334,312 L 336,312 L 337,311 L 337,310 L 338,309 L 339,309 L 339,308 L 340,307 L 341,307 L 341,304 L 340,303 L 341,302 L 341,299 L 340,298 L 337,298 L 334,295 L 333,295 L 331,297 L 328,297 L 325,294 L 325,292 L 320,292 L 319,293 L 318,293 L 314,289 L 311,289 L 310,290 L 309,290 L 308,291 L 302,291 L 300,289 L 299,289 L 298,288 L 297,288 L 296,287 Z" fill="none" stroke="black" stroke-width="1"/>
</svg>