<svg xmlns="http://www.w3.org/2000/svg" width="710" height="350">
  <path d="M 331,270 L 330,271 L 328,271 L 326,273 L 326,274 L 325,275 L 321,275 L 320,274 L 319,274 L 318,273 L 317,273 L 316,274 L 315,274 L 313,276 L 312,275 L 311,275 L 310,274 L 307,274 L 305,276 L 304,276 L 304,279 L 303,280 L 303,282 L 302,283 L 302,285 L 301,286 L 301,289 L 302,290 L 308,290 L 309,289 L 310,289 L 311,288 L 314,288 L 318,292 L 319,292 L 320,291 L 326,291 L 326,287 L 327,286 L 327,284 L 328,283 L 329,283 L 330,282 L 330,281 L 331,280 L 334,280 L 335,279 L 336,279 L 337,278 L 339,278 L 341,276 L 340,275 L 338,275 L 337,274 L 336,274 L 334,272 L 333,272 L 332,271 L 332,270 Z" fill="none" stroke="black" stroke-width="1"/>
</svg>