<svg xmlns="http://www.w3.org/2000/svg" width="262" height="251">
  <path d="M 191,176 L 190,177 L 186,177 L 185,178 L 184,178 L 181,181 L 181,184 L 183,186 L 183,187 L 186,190 L 186,196 L 187,197 L 188,197 L 191,200 L 191,201 L 193,201 L 194,200 L 195,200 L 196,201 L 198,201 L 199,202 L 202,202 L 202,196 L 203,195 L 203,192 L 205,190 L 205,188 L 206,187 L 206,186 L 205,185 L 205,184 L 204,183 L 204,182 L 203,181 L 203,180 L 202,180 L 201,179 L 201,178 L 199,176 Z" fill="none" stroke="black" stroke-width="1"/>
</svg>