<svg xmlns="http://www.w3.org/2000/svg" width="582" height="484">
  <path d="M 76,84 L 76,87 L 77,88 L 78,88 L 80,86 L 80,85 L 79,85 L 78,84 Z" fill="none" stroke="black" stroke-width="1"/>
  <path d="M 71,63 L 70,64 L 67,64 L 68,65 L 68,66 L 67,67 L 67,68 L 64,71 L 64,72 L 65,73 L 65,74 L 67,76 L 67,78 L 68,79 L 68,80 L 69,80 L 69,79 L 71,77 L 72,77 L 73,76 L 75,76 L 78,79 L 79,79 L 82,82 L 83,82 L 87,86 L 87,88 L 88,89 L 89,88 L 88,87 L 88,85 L 87,84 L 87,83 L 85,81 L 85,79 L 83,77 L 82,77 L 81,78 L 79,78 L 78,77 L 77,77 L 73,73 L 74,72 L 73,71 L 73,70 L 72,69 L 72,68 L 71,67 L 72,66 L 71,65 L 72,64 Z" fill="none" stroke="black" stroke-width="1"/>
  <path d="M 76,59 L 76,61 L 77,62 L 77,65 L 78,64 L 78,63 L 77,62 L 77,60 L 78,59 Z" fill="none" stroke="black" stroke-width="1"/>
</svg>