<svg xmlns="http://www.w3.org/2000/svg" width="268" height="258">
  <path d="M 61,100 L 58,103 L 55,103 L 53,101 L 52,101 L 51,102 L 51,104 L 48,107 L 47,107 L 46,108 L 45,108 L 44,109 L 44,110 L 43,111 L 42,111 L 41,112 L 41,113 L 40,114 L 39,114 L 39,120 L 38,121 L 38,122 L 39,123 L 39,125 L 40,126 L 40,129 L 41,129 L 42,128 L 46,128 L 47,129 L 48,129 L 50,131 L 52,131 L 53,132 L 53,133 L 54,133 L 59,138 L 59,140 L 61,142 L 61,145 L 65,149 L 66,149 L 67,148 L 69,148 L 70,147 L 72,147 L 75,144 L 76,144 L 77,143 L 78,143 L 78,141 L 79,140 L 80,140 L 81,139 L 83,139 L 83,134 L 84,133 L 84,129 L 83,128 L 83,126 L 82,125 L 82,123 L 81,122 L 81,119 L 80,118 L 80,115 L 77,115 L 75,113 L 75,112 L 76,111 L 76,110 L 74,108 L 71,108 L 69,110 L 68,109 L 68,106 L 67,106 L 66,105 L 66,103 L 64,101 L 63,101 L 62,100 Z" fill="none" stroke="black" stroke-width="1"/>
</svg>