<svg xmlns="http://www.w3.org/2000/svg" width="582" height="484">
  <path d="M 97,125 L 96,126 L 94,126 L 93,127 L 94,128 L 94,130 L 92,132 L 92,140 L 91,141 L 90,141 L 89,142 L 86,142 L 85,143 L 85,147 L 89,151 L 90,151 L 92,153 L 92,154 L 93,155 L 93,156 L 94,157 L 95,156 L 96,156 L 98,154 L 98,152 L 96,150 L 96,149 L 95,148 L 95,147 L 96,146 L 96,145 L 95,144 L 96,143 L 96,142 L 97,141 L 97,140 L 98,139 L 98,138 L 99,137 L 99,134 L 101,132 L 101,131 L 102,130 L 102,126 L 98,126 Z" fill="none" stroke="black" stroke-width="1"/>
</svg>