<svg xmlns="http://www.w3.org/2000/svg" width="582" height="484">
  <path d="M 103,154 L 102,155 L 104,155 L 104,154 Z" fill="none" stroke="black" stroke-width="1"/>
  <path d="M 113,139 L 110,142 L 109,142 L 106,145 L 107,146 L 107,147 L 108,147 L 109,148 L 113,148 L 114,147 L 115,147 L 117,145 L 118,145 L 117,144 L 118,143 L 118,142 L 117,141 L 116,141 L 114,139 Z" fill="none" stroke="black" stroke-width="1"/>
  <path d="M 109,121 L 109,125 L 108,126 L 108,128 L 107,129 L 107,130 L 105,132 L 105,134 L 104,135 L 104,136 L 103,137 L 103,138 L 100,141 L 100,146 L 99,147 L 99,150 L 101,148 L 101,146 L 102,145 L 102,144 L 103,143 L 103,140 L 106,137 L 107,137 L 108,136 L 109,136 L 109,128 L 110,127 L 110,125 L 109,124 L 109,122 L 110,121 Z" fill="none" stroke="black" stroke-width="1"/>
</svg>