<svg xmlns="http://www.w3.org/2000/svg" width="582" height="484">
  <path d="M 139,146 L 139,148 L 140,147 Z" fill="none" stroke="black" stroke-width="1"/>
  <path d="M 141,141 L 141,143 L 140,144 L 141,145 L 142,145 L 142,143 L 141,142 Z" fill="none" stroke="black" stroke-width="1"/>
  <path d="M 127,140 L 128,141 L 128,142 L 129,143 L 129,142 L 128,141 L 128,140 Z" fill="none" stroke="black" stroke-width="1"/>
  <path d="M 134,135 L 134,136 L 133,137 L 133,141 L 134,141 L 135,142 L 135,143 L 134,144 L 135,144 L 135,140 L 134,139 L 134,137 L 135,136 L 135,135 Z" fill="none" stroke="black" stroke-width="1"/>
  <path d="M 115,119 L 116,120 L 116,126 L 117,127 L 117,126 L 118,125 L 119,125 L 121,127 L 121,128 L 122,129 L 122,132 L 121,133 L 121,135 L 122,136 L 122,137 L 121,138 L 122,139 L 123,139 L 124,140 L 125,140 L 124,139 L 124,136 L 125,135 L 126,136 L 126,137 L 127,138 L 129,136 L 127,134 L 127,132 L 126,131 L 126,130 L 124,128 L 124,127 L 125,126 L 125,123 L 124,122 L 124,119 L 122,119 L 121,120 L 120,120 L 119,121 L 118,120 L 117,120 L 116,119 Z" fill="none" stroke="black" stroke-width="1"/>
  <path d="M 115,114 L 115,115 L 117,117 L 118,117 L 118,116 L 117,115 L 117,114 Z" fill="none" stroke="black" stroke-width="1"/>
</svg>