<svg xmlns="http://www.w3.org/2000/svg" width="582" height="484">
  <path d="M 100,162 L 100,164 L 98,166 L 95,166 L 94,167 L 94,171 L 93,172 L 91,172 L 90,173 L 87,173 L 86,174 L 85,173 L 84,174 L 82,174 L 82,175 L 80,177 L 80,182 L 79,183 L 79,185 L 77,187 L 77,190 L 78,191 L 80,191 L 81,190 L 81,188 L 82,187 L 82,186 L 84,184 L 83,183 L 84,182 L 84,181 L 86,179 L 86,178 L 87,177 L 90,177 L 91,178 L 91,185 L 92,185 L 93,184 L 92,183 L 94,181 L 94,179 L 95,178 L 96,178 L 97,179 L 97,180 L 96,181 L 96,182 L 97,181 L 98,181 L 99,182 L 99,183 L 100,184 L 100,183 L 99,182 L 99,181 L 101,179 L 100,178 L 102,176 L 104,176 L 104,175 L 103,174 L 107,170 L 107,168 L 106,167 L 106,166 L 104,164 L 102,164 Z" fill="none" stroke="black" stroke-width="1"/>
</svg>