<svg xmlns="http://www.w3.org/2000/svg" width="582" height="484">
  <path d="M 132,145 L 131,146 L 131,147 L 132,148 L 132,150 L 133,151 L 133,154 L 135,156 L 135,159 L 136,160 L 136,161 L 137,162 L 137,164 L 141,168 L 141,172 L 142,173 L 142,178 L 143,179 L 143,180 L 145,180 L 146,181 L 147,180 L 148,181 L 148,182 L 149,182 L 149,180 L 147,178 L 147,177 L 146,177 L 145,176 L 146,175 L 146,174 L 147,173 L 147,171 L 146,171 L 145,170 L 145,168 L 146,167 L 146,166 L 145,166 L 144,165 L 143,166 L 142,166 L 141,165 L 141,164 L 144,161 L 145,161 L 145,159 L 142,156 L 142,155 L 143,154 L 141,154 L 138,151 L 138,150 L 137,149 L 136,149 Z" fill="none" stroke="black" stroke-width="1"/>
</svg>