<svg xmlns="http://www.w3.org/2000/svg" width="582" height="484">
  <path d="M 43,132 L 43,134 L 44,134 L 46,132 Z" fill="none" stroke="black" stroke-width="1"/>
  <path d="M 38,119 L 38,128 L 37,129 L 36,128 L 36,127 L 35,126 L 34,126 L 34,128 L 35,129 L 35,130 L 36,131 L 36,132 L 35,133 L 35,134 L 34,135 L 31,135 L 31,137 L 30,138 L 29,138 L 26,141 L 26,143 L 28,141 L 33,141 L 34,140 L 34,138 L 37,135 L 39,135 L 40,134 L 41,134 L 41,132 L 40,131 L 40,128 L 39,128 L 38,127 L 38,123 L 39,122 L 39,119 Z" fill="none" stroke="black" stroke-width="1"/>
  <path d="M 43,117 L 43,118 L 44,118 L 44,117 Z" fill="none" stroke="black" stroke-width="1"/>
  <path d="M 45,109 L 45,110 L 46,111 L 46,114 L 47,113 L 47,110 L 46,110 Z" fill="none" stroke="black" stroke-width="1"/>
  <path d="M 45,104 L 45,105 L 46,106 L 46,107 L 47,108 L 51,108 L 51,107 L 49,107 L 46,104 Z" fill="none" stroke="black" stroke-width="1"/>
</svg>