<svg xmlns="http://www.w3.org/2000/svg" width="412" height="441">
  <path d="M 138,280 L 137,281 L 137,282 L 136,283 L 136,286 L 134,288 L 134,290 L 135,291 L 135,292 L 134,293 L 133,293 L 133,294 L 134,295 L 134,296 L 133,297 L 132,297 L 132,299 L 131,300 L 131,301 L 132,302 L 133,301 L 133,298 L 134,297 L 136,297 L 137,296 L 138,296 L 139,295 L 141,295 L 142,296 L 143,296 L 143,293 L 142,292 L 141,292 L 140,291 L 140,290 L 138,288 L 138,286 L 139,285 L 139,284 L 140,283 L 139,282 L 139,280 Z" fill="none" stroke="black" stroke-width="1"/>
</svg>