<svg xmlns="http://www.w3.org/2000/svg" width="710" height="350">
  <path d="M 146,246 L 144,248 L 144,249 L 143,250 L 142,250 L 141,249 L 138,249 L 135,252 L 135,257 L 134,258 L 134,259 L 133,260 L 133,269 L 132,270 L 132,271 L 131,272 L 130,272 L 130,274 L 129,275 L 129,277 L 128,278 L 128,280 L 132,280 L 133,279 L 135,279 L 136,278 L 140,278 L 141,279 L 142,279 L 143,278 L 146,278 L 146,277 L 147,276 L 148,276 L 149,275 L 152,275 L 153,274 L 155,274 L 156,275 L 159,275 L 160,276 L 161,276 L 164,279 L 164,280 L 165,281 L 165,282 L 166,283 L 166,286 L 168,288 L 170,288 L 171,287 L 173,287 L 174,288 L 175,288 L 176,289 L 178,289 L 179,288 L 182,288 L 184,286 L 184,285 L 183,284 L 183,281 L 182,280 L 182,279 L 179,279 L 178,278 L 178,277 L 177,276 L 176,276 L 175,275 L 175,274 L 174,273 L 174,272 L 175,271 L 176,271 L 176,269 L 175,268 L 175,267 L 172,264 L 172,260 L 173,259 L 173,255 L 171,255 L 170,254 L 169,254 L 168,253 L 166,253 L 165,252 L 164,252 L 163,251 L 162,251 L 161,250 L 158,250 L 157,249 L 156,249 L 155,248 L 154,248 L 153,247 L 152,247 L 151,246 Z" fill="none" stroke="black" stroke-width="1"/>
</svg>