<svg xmlns="http://www.w3.org/2000/svg" width="191" height="202">
  <path d="M 80,60 L 80,61 L 79,62 L 80,63 L 79,64 L 81,64 L 82,65 L 81,66 L 77,66 L 77,67 L 76,68 L 76,70 L 77,71 L 76,72 L 76,73 L 75,74 L 76,75 L 75,76 L 75,79 L 76,80 L 75,81 L 75,82 L 74,83 L 74,87 L 73,88 L 73,90 L 74,90 L 75,89 L 76,89 L 76,85 L 77,84 L 77,81 L 78,80 L 78,74 L 81,71 L 82,71 L 83,70 L 84,71 L 84,73 L 83,74 L 82,74 L 80,76 L 80,77 L 81,78 L 82,78 L 84,80 L 84,78 L 85,77 L 85,75 L 86,74 L 86,72 L 87,71 L 88,72 L 88,75 L 89,75 L 90,76 L 95,76 L 95,74 L 96,73 L 97,73 L 97,71 L 98,70 L 98,69 L 97,68 L 97,66 L 96,65 L 93,65 L 92,66 L 91,66 L 89,64 L 89,63 L 90,62 L 92,62 L 91,61 L 86,61 L 85,62 L 83,62 L 82,61 L 81,61 Z" fill="none" stroke="black" stroke-width="1"/>
</svg>