<svg xmlns="http://www.w3.org/2000/svg" width="191" height="202">
  <path d="M 80,81 L 79,82 L 79,85 L 81,87 L 82,87 L 83,86 L 83,84 L 82,83 L 82,82 L 81,81 Z" fill="none" stroke="black" stroke-width="1"/>
  <path d="M 73,72 L 72,73 L 71,73 L 70,74 L 70,75 L 68,77 L 66,77 L 65,78 L 63,78 L 62,79 L 62,81 L 64,79 L 65,79 L 66,80 L 65,81 L 65,83 L 66,83 L 67,82 L 68,82 L 68,80 L 70,78 L 70,77 L 71,76 L 71,75 L 73,73 Z" fill="none" stroke="black" stroke-width="1"/>
  <path d="M 64,67 L 64,68 L 65,69 L 66,68 L 67,68 L 65,68 Z" fill="none" stroke="black" stroke-width="1"/>
  <path d="M 65,61 L 64,62 L 65,63 L 66,63 L 68,65 L 67,66 L 68,66 L 69,67 L 70,67 L 71,66 L 72,67 L 73,67 L 74,66 L 74,65 L 73,64 L 70,64 L 68,62 L 68,61 Z" fill="none" stroke="black" stroke-width="1"/>
  <path d="M 55,61 L 54,62 L 52,62 L 51,63 L 51,64 L 55,64 L 56,63 L 57,63 L 57,61 Z" fill="none" stroke="black" stroke-width="1"/>
  <path d="M 60,58 L 60,59 L 59,60 L 59,63 L 60,63 L 60,61 L 62,59 L 62,58 Z" fill="none" stroke="black" stroke-width="1"/>
  <path d="M 64,51 L 63,52 L 63,53 L 65,53 L 65,52 Z" fill="none" stroke="black" stroke-width="1"/>
  <path d="M 69,42 L 69,43 L 68,44 L 69,44 Z" fill="none" stroke="black" stroke-width="1"/>
  <path d="M 64,37 L 63,38 L 64,39 L 64,40 L 63,41 L 61,41 L 60,40 L 60,39 L 59,39 L 59,40 L 58,41 L 58,43 L 59,44 L 60,44 L 61,43 L 62,43 L 63,44 L 63,47 L 64,48 L 67,48 L 68,49 L 69,48 L 70,49 L 70,50 L 69,51 L 70,51 L 73,48 L 73,47 L 70,47 L 69,46 L 67,46 L 66,45 L 66,39 Z" fill="none" stroke="black" stroke-width="1"/>
</svg>