<svg xmlns="http://www.w3.org/2000/svg" width="191" height="202">
  <path d="M 100,148 L 100,151 L 99,152 L 99,154 L 97,156 L 96,156 L 95,157 L 94,157 L 93,158 L 90,158 L 88,160 L 86,160 L 85,161 L 83,161 L 82,162 L 81,162 L 81,163 L 82,163 L 83,164 L 82,165 L 82,166 L 84,166 L 85,167 L 84,168 L 86,168 L 87,167 L 88,168 L 90,166 L 95,166 L 96,167 L 97,167 L 97,166 L 99,164 L 100,164 L 101,163 L 102,163 L 102,161 L 103,160 L 104,160 L 104,157 L 103,156 L 103,153 L 104,152 L 104,150 L 102,148 Z" fill="none" stroke="black" stroke-width="1"/>
</svg>