<svg xmlns="http://www.w3.org/2000/svg" width="191" height="202">
  <path d="M 159,145 L 158,146 L 157,146 L 157,147 L 158,148 L 157,149 L 156,149 L 156,150 L 154,152 L 154,153 L 153,154 L 153,155 L 154,156 L 154,157 L 153,158 L 153,160 L 154,160 L 155,161 L 157,161 L 158,160 L 158,159 L 159,158 L 160,158 L 161,157 L 162,157 L 163,158 L 165,158 L 166,157 L 168,157 L 170,155 L 170,153 L 169,152 L 169,149 L 167,149 L 166,148 L 166,145 L 164,145 L 163,146 L 162,146 L 161,145 Z" fill="none" stroke="black" stroke-width="1"/>
</svg>