<svg xmlns="http://www.w3.org/2000/svg" width="710" height="350">
  <path d="M 140,218 L 139,219 L 136,219 L 135,220 L 135,221 L 133,223 L 133,225 L 132,226 L 131,226 L 130,227 L 126,227 L 125,228 L 124,228 L 124,229 L 123,230 L 123,231 L 126,234 L 127,234 L 129,236 L 130,236 L 134,240 L 134,241 L 135,242 L 135,245 L 136,246 L 136,247 L 137,248 L 137,249 L 138,248 L 141,248 L 142,249 L 143,249 L 143,248 L 146,245 L 151,245 L 152,246 L 153,246 L 154,247 L 155,247 L 156,248 L 157,248 L 158,249 L 161,249 L 162,250 L 163,250 L 164,251 L 165,251 L 166,252 L 168,252 L 169,253 L 170,253 L 171,254 L 173,254 L 174,253 L 183,253 L 184,254 L 192,254 L 193,255 L 193,256 L 195,256 L 196,257 L 205,257 L 204,256 L 204,255 L 201,252 L 201,251 L 197,247 L 197,231 L 198,230 L 198,228 L 197,227 L 194,227 L 193,226 L 189,226 L 188,225 L 186,225 L 185,224 L 180,224 L 179,223 L 176,223 L 175,222 L 174,222 L 172,220 L 170,220 L 169,219 L 168,219 L 167,218 L 159,218 L 158,219 L 148,219 L 147,218 Z" fill="none" stroke="black" stroke-width="1"/>
</svg>