<svg xmlns="http://www.w3.org/2000/svg" width="191" height="202">
  <path d="M 154,171 L 153,172 L 152,172 L 151,173 L 151,176 L 150,177 L 151,178 L 151,179 L 150,180 L 149,180 L 148,181 L 148,184 L 149,185 L 149,186 L 151,186 L 152,185 L 164,185 L 165,186 L 167,186 L 168,185 L 169,185 L 170,184 L 172,184 L 173,183 L 173,182 L 171,180 L 170,180 L 169,179 L 166,179 L 165,178 L 164,178 L 163,177 L 163,174 L 160,174 L 158,172 L 157,172 L 156,171 Z" fill="none" stroke="black" stroke-width="1"/>
</svg>