<svg xmlns="http://www.w3.org/2000/svg" width="191" height="202">
  <path d="M 98,177 L 97,178 L 97,180 L 95,182 L 94,182 L 93,181 L 93,182 L 94,183 L 94,184 L 96,186 L 96,187 L 95,188 L 94,187 L 94,188 L 95,188 L 98,191 L 98,194 L 99,194 L 100,195 L 102,195 L 104,197 L 105,197 L 105,196 L 106,195 L 106,194 L 107,193 L 107,191 L 109,189 L 110,189 L 111,188 L 112,188 L 113,187 L 114,187 L 114,186 L 112,186 L 111,185 L 110,185 L 108,183 L 105,183 L 104,182 L 104,180 L 102,178 L 102,177 Z" fill="none" stroke="black" stroke-width="1"/>
</svg>