<svg xmlns="http://www.w3.org/2000/svg" width="191" height="202">
  <path d="M 128,177 L 126,179 L 126,180 L 125,181 L 122,181 L 122,182 L 120,184 L 116,184 L 115,183 L 113,183 L 112,184 L 112,185 L 114,185 L 115,186 L 115,187 L 116,187 L 117,186 L 118,186 L 119,187 L 121,187 L 123,189 L 124,189 L 125,188 L 127,188 L 128,189 L 132,189 L 132,188 L 133,187 L 133,185 L 134,184 L 134,182 L 133,181 L 133,180 L 132,180 L 131,179 L 131,178 L 130,177 Z" fill="none" stroke="black" stroke-width="1"/>
</svg>