<svg xmlns="http://www.w3.org/2000/svg" width="191" height="202">
  <path d="M 130,125 L 129,126 L 126,126 L 124,128 L 120,128 L 119,129 L 118,129 L 116,127 L 115,127 L 115,129 L 116,130 L 114,132 L 119,132 L 120,133 L 119,134 L 116,134 L 116,135 L 118,135 L 120,137 L 120,138 L 121,137 L 123,137 L 125,139 L 126,139 L 126,138 L 128,136 L 129,136 L 131,134 L 132,134 L 133,135 L 134,135 L 134,134 L 133,134 L 131,132 L 131,130 L 132,129 L 133,129 L 132,128 L 132,126 L 131,125 Z" fill="none" stroke="black" stroke-width="1"/>
</svg>