<svg xmlns="http://www.w3.org/2000/svg" width="191" height="202">
  <path d="M 14,152 L 13,153 L 12,153 L 12,154 L 11,155 L 10,155 L 9,156 L 7,156 L 6,155 L 2,155 L 1,156 L 0,156 L 0,158 L 1,157 L 2,157 L 3,158 L 4,158 L 5,157 L 9,157 L 10,158 L 9,159 L 7,159 L 6,160 L 4,160 L 2,162 L 2,164 L 3,163 L 4,163 L 5,164 L 8,164 L 9,163 L 10,163 L 11,162 L 13,162 L 14,163 L 13,164 L 12,164 L 11,165 L 10,165 L 9,166 L 7,166 L 7,167 L 6,168 L 5,168 L 7,168 L 8,167 L 10,167 L 11,166 L 13,166 L 14,167 L 13,168 L 12,168 L 11,169 L 10,169 L 11,169 L 12,170 L 11,171 L 10,171 L 11,171 L 12,170 L 13,170 L 14,169 L 15,169 L 16,170 L 19,170 L 20,169 L 24,169 L 25,168 L 28,168 L 30,166 L 32,166 L 32,165 L 31,164 L 31,162 L 33,160 L 32,159 L 32,158 L 30,156 L 30,155 L 27,155 L 26,154 L 21,154 L 21,156 L 20,157 L 19,157 L 18,156 L 18,155 L 17,155 L 16,156 L 15,156 L 14,155 L 15,154 L 15,152 Z" fill="none" stroke="black" stroke-width="1"/>
</svg>