<svg xmlns="http://www.w3.org/2000/svg" width="191" height="202">
  <path d="M 49,89 L 47,91 L 46,91 L 46,93 L 47,94 L 47,95 L 45,97 L 44,96 L 44,92 L 43,91 L 41,93 L 40,92 L 39,93 L 36,93 L 35,94 L 34,94 L 32,96 L 32,97 L 31,98 L 32,98 L 33,99 L 31,101 L 30,101 L 29,102 L 27,102 L 26,103 L 27,104 L 35,104 L 36,105 L 34,107 L 37,107 L 38,106 L 39,106 L 40,105 L 41,105 L 40,105 L 39,104 L 39,103 L 41,101 L 42,102 L 43,102 L 44,101 L 46,101 L 47,100 L 47,98 L 48,97 L 48,96 L 53,91 L 52,91 L 51,90 L 50,90 Z" fill="none" stroke="black" stroke-width="1"/>
</svg>