<svg xmlns="http://www.w3.org/2000/svg" width="710" height="350">
  <path d="M 99,132 L 96,135 L 96,138 L 98,138 L 99,139 L 100,139 L 101,140 L 100,141 L 93,141 L 92,140 L 89,140 L 88,141 L 83,141 L 82,140 L 79,140 L 78,141 L 75,141 L 74,142 L 74,143 L 73,144 L 73,146 L 72,147 L 71,147 L 70,148 L 70,149 L 69,150 L 69,151 L 70,152 L 71,152 L 73,154 L 74,154 L 76,156 L 75,157 L 73,157 L 72,158 L 71,157 L 70,157 L 69,156 L 67,156 L 66,155 L 58,155 L 57,156 L 57,161 L 60,161 L 61,162 L 65,162 L 67,164 L 67,166 L 69,168 L 69,171 L 70,172 L 70,173 L 74,177 L 74,178 L 75,179 L 74,180 L 74,182 L 78,182 L 82,186 L 82,187 L 84,189 L 86,189 L 87,188 L 89,190 L 91,190 L 92,189 L 93,190 L 94,190 L 96,192 L 96,193 L 95,194 L 95,197 L 94,198 L 94,199 L 92,201 L 92,203 L 91,204 L 91,205 L 90,206 L 90,208 L 89,209 L 89,210 L 88,211 L 89,212 L 88,213 L 88,214 L 89,214 L 91,216 L 91,217 L 92,218 L 92,219 L 92,215 L 93,214 L 93,210 L 92,209 L 92,208 L 96,204 L 98,204 L 99,203 L 100,204 L 101,204 L 108,197 L 108,195 L 109,194 L 109,192 L 110,191 L 110,189 L 111,188 L 111,185 L 116,180 L 117,180 L 118,179 L 118,176 L 122,172 L 122,170 L 123,169 L 123,163 L 124,162 L 124,161 L 123,160 L 123,158 L 122,157 L 122,156 L 119,156 L 118,155 L 118,154 L 117,153 L 117,151 L 116,150 L 116,149 L 117,148 L 117,146 L 116,145 L 116,144 L 115,144 L 114,143 L 114,141 L 112,139 L 112,138 L 110,136 L 109,136 L 108,135 L 107,135 L 106,134 L 105,134 L 104,133 L 102,133 L 101,132 Z" fill="none" stroke="black" stroke-width="1"/>
</svg>