<svg xmlns="http://www.w3.org/2000/svg" width="186" height="167">
  <path d="M 39,36 L 39,37 L 42,37 L 41,36 Z" fill="none" stroke="black" stroke-width="1"/>
  <path d="M 34,31 L 33,32 L 32,32 L 34,32 Z" fill="none" stroke="black" stroke-width="1"/>
  <path d="M 44,27 L 46,29 L 46,33 L 49,36 L 49,40 L 50,41 L 50,46 L 52,48 L 51,49 L 50,49 L 50,50 L 51,50 L 52,51 L 54,51 L 56,53 L 56,55 L 58,55 L 59,56 L 59,55 L 58,54 L 59,53 L 59,47 L 58,46 L 59,45 L 59,44 L 57,44 L 54,41 L 55,40 L 55,37 L 56,36 L 56,34 L 53,31 L 53,29 L 54,28 L 53,27 L 51,27 L 50,28 L 47,28 L 46,27 Z" fill="none" stroke="black" stroke-width="1"/>
</svg>