<svg xmlns="http://www.w3.org/2000/svg" width="186" height="167">
  <path d="M 74,101 L 73,102 L 73,104 L 72,105 L 69,105 L 68,106 L 68,109 L 69,110 L 69,114 L 70,114 L 73,117 L 73,118 L 72,119 L 72,121 L 73,122 L 75,122 L 75,120 L 76,119 L 77,119 L 79,117 L 79,116 L 80,115 L 82,115 L 82,114 L 84,112 L 86,112 L 87,113 L 87,114 L 88,114 L 89,113 L 89,112 L 90,111 L 91,111 L 90,111 L 87,108 L 87,107 L 86,106 L 85,106 L 84,105 L 82,105 L 79,102 L 79,101 Z" fill="none" stroke="black" stroke-width="1"/>
</svg>