<svg xmlns="http://www.w3.org/2000/svg" width="186" height="167">
  <path d="M 97,36 L 97,37 L 96,38 L 96,39 L 93,42 L 92,41 L 91,41 L 91,43 L 90,44 L 88,44 L 87,45 L 87,46 L 86,47 L 86,49 L 85,50 L 87,52 L 87,53 L 85,55 L 85,56 L 86,57 L 87,57 L 88,58 L 88,60 L 90,62 L 90,63 L 91,62 L 93,62 L 94,63 L 96,61 L 96,60 L 98,58 L 99,58 L 101,56 L 102,56 L 102,55 L 101,54 L 101,52 L 102,51 L 102,50 L 103,49 L 101,49 L 99,47 L 100,46 L 101,46 L 101,42 L 103,40 L 103,39 L 102,38 L 101,38 L 100,37 L 99,37 L 98,36 Z" fill="none" stroke="black" stroke-width="1"/>
</svg>