<svg xmlns="http://www.w3.org/2000/svg" width="710" height="350">
  <path d="M 224,166 L 224,167 L 221,170 L 217,170 L 216,171 L 214,171 L 213,170 L 212,170 L 211,171 L 210,171 L 209,172 L 205,172 L 203,174 L 202,174 L 201,173 L 201,172 L 200,171 L 200,170 L 201,169 L 199,169 L 197,167 L 196,168 L 195,167 L 194,167 L 192,169 L 191,168 L 190,168 L 190,169 L 189,170 L 189,173 L 190,174 L 190,176 L 189,177 L 189,180 L 191,182 L 192,182 L 193,183 L 194,183 L 195,184 L 195,188 L 196,189 L 196,190 L 198,192 L 199,192 L 200,193 L 201,193 L 202,194 L 203,194 L 204,195 L 208,195 L 209,194 L 211,194 L 212,193 L 216,193 L 217,192 L 218,192 L 221,189 L 224,189 L 225,188 L 227,188 L 228,187 L 229,187 L 230,186 L 231,186 L 232,187 L 238,187 L 243,182 L 239,182 L 238,181 L 237,181 L 236,180 L 234,180 L 232,178 L 234,176 L 233,176 L 228,171 L 228,170 Z" fill="none" stroke="black" stroke-width="1"/>
</svg>