<svg xmlns="http://www.w3.org/2000/svg" width="186" height="167">
  <path d="M 135,116 L 134,117 L 135,118 L 132,121 L 131,121 L 130,120 L 129,120 L 129,122 L 128,123 L 127,123 L 127,124 L 126,125 L 125,125 L 124,126 L 123,126 L 123,127 L 124,128 L 124,130 L 126,132 L 126,136 L 127,135 L 128,135 L 129,136 L 130,136 L 131,137 L 135,137 L 136,136 L 138,136 L 138,135 L 139,134 L 139,133 L 140,132 L 141,132 L 142,131 L 143,131 L 144,132 L 145,132 L 146,133 L 148,133 L 148,132 L 149,131 L 149,130 L 150,129 L 150,125 L 151,124 L 151,119 L 150,118 L 150,117 L 149,117 L 147,119 L 145,119 L 144,118 L 144,119 L 143,120 L 141,120 L 140,119 L 140,118 L 138,116 L 137,117 L 136,116 Z" fill="none" stroke="black" stroke-width="1"/>
</svg>