<svg xmlns="http://www.w3.org/2000/svg" width="186" height="167">
  <path d="M 143,58 L 142,59 L 141,59 L 140,60 L 140,61 L 137,64 L 136,64 L 135,63 L 134,63 L 132,65 L 132,67 L 133,67 L 134,66 L 135,67 L 137,67 L 138,68 L 138,69 L 137,70 L 137,71 L 139,73 L 140,73 L 141,72 L 143,74 L 145,72 L 146,72 L 147,73 L 148,73 L 152,69 L 152,67 L 151,66 L 151,65 L 152,64 L 153,64 L 154,63 L 155,63 L 156,62 L 156,61 L 155,60 L 155,59 L 154,59 L 153,60 L 151,60 L 150,59 L 149,59 L 148,58 Z" fill="none" stroke="black" stroke-width="1"/>
</svg>