<svg xmlns="http://www.w3.org/2000/svg" width="153" height="229">
  <path d="M 71,73 L 69,75 L 68,75 L 66,77 L 66,79 L 65,80 L 63,80 L 62,79 L 62,82 L 61,83 L 59,83 L 58,84 L 58,85 L 54,89 L 52,89 L 51,88 L 49,90 L 49,91 L 48,92 L 48,96 L 47,97 L 46,97 L 47,98 L 47,99 L 46,100 L 46,101 L 47,102 L 47,104 L 46,105 L 49,105 L 49,104 L 50,103 L 52,103 L 54,105 L 55,105 L 55,102 L 56,101 L 56,99 L 59,96 L 60,96 L 63,93 L 68,93 L 70,95 L 71,95 L 72,94 L 75,94 L 75,93 L 74,92 L 74,89 L 75,88 L 75,86 L 76,85 L 76,84 L 78,82 L 79,82 L 79,81 L 78,80 L 78,78 L 79,77 L 76,77 L 75,76 L 74,76 L 72,74 L 72,73 Z" fill="none" stroke="black" stroke-width="1"/>
</svg>