<svg xmlns="http://www.w3.org/2000/svg" width="153" height="229">
  <path d="M 50,126 L 49,127 L 47,127 L 47,128 L 46,129 L 45,129 L 46,130 L 46,132 L 47,133 L 47,136 L 48,137 L 48,138 L 49,139 L 49,140 L 50,141 L 50,142 L 51,143 L 51,152 L 52,153 L 52,152 L 53,151 L 54,151 L 54,150 L 56,148 L 57,148 L 58,147 L 61,147 L 62,148 L 63,147 L 63,146 L 65,144 L 65,142 L 63,140 L 63,137 L 61,135 L 61,131 L 59,131 L 58,130 L 55,130 L 54,129 L 54,128 L 53,127 L 52,127 L 51,126 Z" fill="none" stroke="black" stroke-width="1"/>
</svg>