<svg xmlns="http://www.w3.org/2000/svg" width="153" height="229">
  <path d="M 68,122 L 66,124 L 65,124 L 64,123 L 63,123 L 62,124 L 61,124 L 62,125 L 62,126 L 63,127 L 63,128 L 62,129 L 62,135 L 64,137 L 64,140 L 66,142 L 66,144 L 64,146 L 64,147 L 63,148 L 64,149 L 65,149 L 66,150 L 68,150 L 69,151 L 70,150 L 71,150 L 72,149 L 76,149 L 77,148 L 82,148 L 83,149 L 85,149 L 85,148 L 86,147 L 86,146 L 87,145 L 87,143 L 85,143 L 84,142 L 84,141 L 83,141 L 81,139 L 80,139 L 78,137 L 78,129 L 79,128 L 79,127 L 78,126 L 76,126 L 74,124 L 74,123 L 69,123 Z" fill="none" stroke="black" stroke-width="1"/>
</svg>