<svg xmlns="http://www.w3.org/2000/svg" width="153" height="229">
  <path d="M 58,148 L 57,149 L 56,149 L 55,150 L 55,151 L 54,152 L 53,152 L 53,153 L 52,154 L 54,156 L 54,157 L 56,159 L 56,166 L 57,167 L 59,167 L 62,170 L 62,172 L 63,173 L 63,176 L 64,177 L 64,178 L 65,179 L 65,180 L 69,180 L 70,179 L 70,178 L 71,177 L 72,177 L 72,168 L 71,168 L 70,167 L 70,163 L 71,162 L 71,160 L 70,159 L 70,157 L 68,155 L 68,151 L 66,151 L 65,150 L 64,150 L 63,149 L 62,149 L 61,148 Z" fill="none" stroke="black" stroke-width="1"/>
</svg>