<svg xmlns="http://www.w3.org/2000/svg" width="153" height="229">
  <path d="M 70,183 L 70,184 L 69,185 L 69,189 L 68,190 L 67,190 L 65,192 L 64,192 L 63,193 L 63,194 L 62,195 L 62,197 L 61,198 L 61,200 L 60,201 L 60,204 L 62,206 L 62,209 L 61,210 L 61,212 L 62,212 L 66,208 L 66,206 L 67,205 L 68,205 L 69,204 L 70,204 L 71,203 L 72,203 L 72,202 L 73,201 L 75,201 L 75,199 L 74,198 L 74,195 L 75,194 L 76,195 L 76,197 L 77,198 L 77,199 L 79,199 L 80,198 L 81,198 L 84,195 L 84,192 L 85,191 L 85,190 L 84,189 L 84,188 L 83,188 L 82,187 L 73,187 L 71,185 L 71,183 Z" fill="none" stroke="black" stroke-width="1"/>
</svg>