<svg xmlns="http://www.w3.org/2000/svg" width="710" height="350">
  <path d="M 242,203 L 241,204 L 241,206 L 239,208 L 238,208 L 237,209 L 236,209 L 233,212 L 224,212 L 223,213 L 222,213 L 221,214 L 221,215 L 220,216 L 220,217 L 218,219 L 217,219 L 215,221 L 213,221 L 212,220 L 210,220 L 209,219 L 208,219 L 207,218 L 206,218 L 205,217 L 203,217 L 202,216 L 202,218 L 201,219 L 201,223 L 200,224 L 200,227 L 199,228 L 199,230 L 198,231 L 198,247 L 202,251 L 202,252 L 205,255 L 205,256 L 206,257 L 206,260 L 211,265 L 213,263 L 214,263 L 215,262 L 216,262 L 217,261 L 218,261 L 219,260 L 219,259 L 221,257 L 223,257 L 224,256 L 225,256 L 225,254 L 226,253 L 233,253 L 234,252 L 235,252 L 236,251 L 240,251 L 242,249 L 242,248 L 243,247 L 244,247 L 245,246 L 245,243 L 247,241 L 248,241 L 250,239 L 251,239 L 252,238 L 252,237 L 253,236 L 253,235 L 256,232 L 257,232 L 259,230 L 260,230 L 264,226 L 265,226 L 266,225 L 267,225 L 268,224 L 271,224 L 272,223 L 273,223 L 274,222 L 275,222 L 276,221 L 275,220 L 273,220 L 272,219 L 268,219 L 267,218 L 267,217 L 265,215 L 264,215 L 262,213 L 261,213 L 259,211 L 258,211 L 256,213 L 254,213 L 253,214 L 250,214 L 246,210 L 246,208 L 245,207 L 245,205 L 244,204 L 244,203 Z" fill="none" stroke="black" stroke-width="1"/>
</svg>