<svg xmlns="http://www.w3.org/2000/svg" width="153" height="229">
  <path d="M 78,14 L 75,17 L 74,17 L 73,18 L 72,18 L 71,19 L 70,19 L 68,21 L 68,22 L 72,22 L 73,23 L 72,24 L 71,24 L 69,26 L 69,27 L 68,28 L 67,28 L 64,31 L 64,32 L 65,33 L 65,35 L 66,34 L 70,34 L 71,33 L 72,34 L 72,35 L 71,36 L 71,37 L 70,38 L 70,41 L 71,42 L 73,42 L 76,39 L 78,39 L 79,38 L 81,38 L 81,37 L 82,36 L 84,36 L 88,32 L 88,30 L 87,29 L 88,28 L 89,28 L 89,25 L 87,25 L 86,24 L 85,24 L 83,22 L 83,21 L 82,20 L 82,15 L 81,14 Z" fill="none" stroke="black" stroke-width="1"/>
</svg>