<svg xmlns="http://www.w3.org/2000/svg" width="123" height="220">
  <path d="M 68,172 L 67,173 L 67,177 L 65,179 L 64,179 L 64,183 L 66,183 L 67,184 L 68,184 L 69,185 L 69,188 L 70,189 L 70,194 L 69,195 L 70,196 L 70,197 L 71,198 L 72,198 L 72,197 L 73,196 L 74,196 L 75,197 L 75,198 L 76,198 L 76,197 L 77,196 L 80,196 L 80,195 L 79,195 L 78,194 L 78,192 L 77,191 L 77,190 L 76,189 L 76,188 L 73,185 L 73,180 L 72,179 L 72,178 L 71,179 L 70,179 L 69,178 L 69,177 L 70,176 L 70,175 L 68,173 Z" fill="none" stroke="black" stroke-width="1"/>
</svg>