<svg xmlns="http://www.w3.org/2000/svg" width="710" height="350">
  <path d="M 263,228 L 260,231 L 259,231 L 257,233 L 256,233 L 254,235 L 254,236 L 253,237 L 253,238 L 251,240 L 250,240 L 248,242 L 247,242 L 246,243 L 246,246 L 244,248 L 243,248 L 243,249 L 240,252 L 238,252 L 238,253 L 240,255 L 241,255 L 243,257 L 244,257 L 246,259 L 247,259 L 249,261 L 250,261 L 251,262 L 252,262 L 253,263 L 254,263 L 255,264 L 256,264 L 260,268 L 261,268 L 263,266 L 264,266 L 268,262 L 272,262 L 276,258 L 284,258 L 285,259 L 285,260 L 287,260 L 288,261 L 288,259 L 293,254 L 293,251 L 294,250 L 295,250 L 298,253 L 302,253 L 303,252 L 304,252 L 305,251 L 307,251 L 307,248 L 306,247 L 304,247 L 303,246 L 302,246 L 301,245 L 300,245 L 296,241 L 296,240 L 297,239 L 297,238 L 296,238 L 292,234 L 291,234 L 286,229 L 282,229 L 280,231 L 278,231 L 277,230 L 272,230 L 271,229 L 269,229 L 268,228 Z" fill="none" stroke="black" stroke-width="1"/>
</svg>