<svg xmlns="http://www.w3.org/2000/svg" width="296" height="251">
  <path d="M 86,104 L 84,106 L 84,110 L 85,111 L 86,111 L 87,112 L 87,113 L 89,115 L 90,115 L 91,116 L 92,116 L 93,117 L 95,117 L 96,118 L 96,119 L 97,120 L 97,121 L 96,122 L 94,122 L 94,123 L 95,124 L 96,123 L 100,123 L 101,122 L 103,122 L 104,123 L 110,123 L 110,120 L 109,119 L 110,118 L 113,118 L 113,116 L 112,116 L 111,115 L 109,115 L 108,114 L 105,114 L 104,113 L 104,112 L 103,111 L 103,110 L 102,109 L 101,109 L 100,108 L 100,107 L 97,104 L 96,104 L 94,106 L 93,106 L 92,105 L 91,105 L 90,104 Z" fill="none" stroke="black" stroke-width="1"/>
</svg>