<svg xmlns="http://www.w3.org/2000/svg" width="123" height="220">
  <path d="M 18,107 L 18,108 L 16,110 L 15,110 L 15,115 L 13,117 L 11,117 L 10,116 L 9,116 L 8,117 L 8,118 L 10,118 L 11,119 L 11,120 L 13,122 L 13,124 L 12,125 L 13,125 L 15,127 L 16,127 L 17,128 L 18,128 L 22,132 L 22,134 L 23,134 L 24,135 L 27,135 L 28,134 L 28,133 L 30,131 L 31,131 L 31,129 L 30,128 L 30,126 L 29,125 L 29,123 L 30,122 L 30,119 L 29,118 L 29,116 L 30,115 L 30,114 L 31,113 L 31,111 L 30,110 L 28,112 L 26,112 L 24,110 L 24,108 L 19,108 Z" fill="none" stroke="black" stroke-width="1"/>
</svg>