<svg xmlns="http://www.w3.org/2000/svg" width="710" height="350">
  <path d="M 140,135 L 139,136 L 137,136 L 137,137 L 136,138 L 136,139 L 135,140 L 134,140 L 132,142 L 132,143 L 131,144 L 118,144 L 117,145 L 118,146 L 118,148 L 117,149 L 117,150 L 118,151 L 118,153 L 119,154 L 119,155 L 122,155 L 123,156 L 123,157 L 124,158 L 124,160 L 125,161 L 125,162 L 124,163 L 124,169 L 123,170 L 123,172 L 119,176 L 119,179 L 117,181 L 116,181 L 112,185 L 112,188 L 111,189 L 111,191 L 110,192 L 110,194 L 109,195 L 109,197 L 103,203 L 106,203 L 107,202 L 113,202 L 115,204 L 115,206 L 114,207 L 113,207 L 113,208 L 114,209 L 113,210 L 112,210 L 112,215 L 113,215 L 116,218 L 117,218 L 118,219 L 119,219 L 122,222 L 122,223 L 123,224 L 123,225 L 121,227 L 121,230 L 122,230 L 123,229 L 123,228 L 124,227 L 125,227 L 126,226 L 130,226 L 131,225 L 132,225 L 132,223 L 134,221 L 134,220 L 136,218 L 139,218 L 140,217 L 147,217 L 148,218 L 158,218 L 159,217 L 159,216 L 158,215 L 158,213 L 157,212 L 157,208 L 159,206 L 160,206 L 160,205 L 161,204 L 161,203 L 160,202 L 160,201 L 159,201 L 158,200 L 156,200 L 154,198 L 152,198 L 151,197 L 148,197 L 147,196 L 144,196 L 143,195 L 143,194 L 145,192 L 146,192 L 152,186 L 153,186 L 153,184 L 154,183 L 154,182 L 155,181 L 156,181 L 156,180 L 157,179 L 157,177 L 158,176 L 158,174 L 159,173 L 159,164 L 158,163 L 158,161 L 157,160 L 157,159 L 156,158 L 156,150 L 155,149 L 155,148 L 154,147 L 154,146 L 152,144 L 152,143 L 149,140 L 148,140 L 147,139 L 147,138 L 146,138 L 145,137 L 144,137 L 142,135 Z" fill="none" stroke="black" stroke-width="1"/>
</svg>