<svg xmlns="http://www.w3.org/2000/svg" width="150" height="272">
  <path d="M 55,183 L 55,185 L 53,187 L 52,187 L 51,188 L 49,188 L 48,189 L 48,190 L 47,191 L 46,191 L 45,192 L 44,192 L 45,193 L 45,196 L 47,196 L 48,195 L 49,195 L 50,196 L 50,197 L 51,198 L 51,201 L 53,203 L 53,205 L 54,206 L 55,205 L 55,204 L 57,202 L 60,202 L 61,203 L 63,203 L 64,204 L 69,204 L 71,202 L 72,202 L 72,201 L 71,200 L 70,200 L 69,199 L 69,198 L 68,197 L 67,197 L 66,196 L 66,195 L 65,194 L 65,192 L 60,192 L 59,191 L 59,190 L 58,189 L 58,186 L 59,185 L 58,184 L 57,184 L 56,183 Z" fill="none" stroke="black" stroke-width="1"/>
</svg>