<svg xmlns="http://www.w3.org/2000/svg" width="150" height="272">
  <path d="M 69,170 L 69,171 L 68,172 L 67,172 L 66,171 L 66,173 L 64,175 L 64,176 L 63,177 L 63,181 L 64,182 L 64,184 L 63,185 L 62,185 L 61,186 L 59,186 L 59,189 L 60,190 L 60,191 L 65,191 L 66,192 L 66,194 L 67,195 L 67,196 L 69,196 L 70,195 L 70,191 L 69,190 L 69,189 L 71,187 L 71,185 L 72,184 L 73,184 L 73,182 L 75,180 L 75,178 L 76,177 L 76,176 L 75,175 L 75,174 L 74,173 L 74,171 L 73,170 Z" fill="none" stroke="black" stroke-width="1"/>
</svg>