<svg xmlns="http://www.w3.org/2000/svg" width="268" height="258">
  <path d="M 103,0 L 102,1 L 101,1 L 100,2 L 93,2 L 93,4 L 92,5 L 91,5 L 90,6 L 88,6 L 87,7 L 87,8 L 85,10 L 84,10 L 83,11 L 82,11 L 84,13 L 84,15 L 85,16 L 86,16 L 87,17 L 88,17 L 96,25 L 96,27 L 97,27 L 99,29 L 100,29 L 101,30 L 102,30 L 103,31 L 103,34 L 104,35 L 105,35 L 106,36 L 106,37 L 108,37 L 110,35 L 111,36 L 111,37 L 112,38 L 113,38 L 114,39 L 114,40 L 115,41 L 115,42 L 118,42 L 120,44 L 120,48 L 121,49 L 125,49 L 127,51 L 129,51 L 130,52 L 131,52 L 132,53 L 133,53 L 134,52 L 135,52 L 136,53 L 141,53 L 142,54 L 144,54 L 145,55 L 146,55 L 146,54 L 148,52 L 149,52 L 150,51 L 152,51 L 153,52 L 158,52 L 160,54 L 160,52 L 161,51 L 161,50 L 158,47 L 158,44 L 157,43 L 157,39 L 155,37 L 155,35 L 154,34 L 152,34 L 151,33 L 151,30 L 150,30 L 149,29 L 149,28 L 148,27 L 148,26 L 144,26 L 142,24 L 142,23 L 141,23 L 139,21 L 138,21 L 137,20 L 137,19 L 135,17 L 135,16 L 132,16 L 131,15 L 130,15 L 128,17 L 127,17 L 123,13 L 122,13 L 121,12 L 120,12 L 119,11 L 118,11 L 117,10 L 116,10 L 114,8 L 113,8 L 111,6 L 110,6 L 108,4 L 107,4 L 104,1 L 104,0 Z" fill="none" stroke="black" stroke-width="1"/>
</svg>