<svg xmlns="http://www.w3.org/2000/svg" width="150" height="272">
  <path d="M 27,124 L 26,125 L 23,125 L 22,126 L 18,126 L 18,133 L 19,133 L 20,134 L 20,135 L 21,135 L 22,136 L 22,138 L 23,139 L 23,141 L 22,142 L 23,143 L 23,144 L 24,145 L 24,146 L 29,146 L 30,145 L 33,145 L 34,144 L 35,144 L 36,143 L 40,143 L 42,141 L 42,140 L 43,139 L 43,134 L 42,133 L 40,133 L 39,134 L 38,134 L 36,132 L 34,132 L 32,130 L 32,128 L 31,128 L 30,127 L 29,127 L 27,125 Z" fill="none" stroke="black" stroke-width="1"/>
</svg>