<svg xmlns="http://www.w3.org/2000/svg" width="150" height="272">
  <path d="M 37,83 L 35,85 L 33,85 L 32,86 L 26,86 L 25,87 L 20,87 L 19,86 L 17,86 L 17,87 L 13,91 L 13,93 L 17,93 L 18,94 L 19,94 L 20,95 L 22,95 L 23,96 L 24,96 L 25,97 L 26,97 L 28,99 L 28,100 L 29,101 L 32,101 L 33,102 L 33,103 L 34,103 L 35,102 L 36,102 L 38,100 L 39,100 L 39,99 L 38,98 L 38,97 L 37,97 L 34,94 L 34,92 L 37,89 L 39,89 L 40,90 L 43,87 L 43,86 L 42,86 L 40,84 L 40,83 Z" fill="none" stroke="black" stroke-width="1"/>
</svg>