<svg xmlns="http://www.w3.org/2000/svg" width="194" height="180">
  <path d="M 120,148 L 120,150 L 123,153 L 123,154 L 125,156 L 125,157 L 124,158 L 124,159 L 123,160 L 123,161 L 127,165 L 127,166 L 129,166 L 130,165 L 131,165 L 131,164 L 133,162 L 138,162 L 139,161 L 141,161 L 142,162 L 144,162 L 145,163 L 146,162 L 147,162 L 149,160 L 149,157 L 148,156 L 148,155 L 147,154 L 142,154 L 141,153 L 140,153 L 139,152 L 137,152 L 136,151 L 135,151 L 134,150 L 126,150 L 125,149 L 124,149 L 123,148 Z" fill="none" stroke="black" stroke-width="1"/>
</svg>