<svg xmlns="http://www.w3.org/2000/svg" width="150" height="272">
  <path d="M 75,81 L 75,85 L 74,86 L 73,86 L 70,89 L 70,90 L 69,91 L 68,91 L 68,96 L 69,97 L 70,97 L 71,98 L 71,99 L 72,100 L 74,100 L 75,101 L 78,101 L 79,102 L 79,103 L 81,103 L 82,104 L 82,105 L 90,105 L 90,103 L 91,102 L 92,102 L 93,101 L 96,101 L 97,100 L 98,100 L 98,99 L 97,98 L 97,97 L 96,96 L 99,93 L 91,93 L 90,92 L 88,92 L 87,91 L 87,87 L 86,87 L 85,86 L 85,85 L 83,85 L 82,86 L 81,85 L 80,85 L 79,84 L 79,82 L 78,81 Z" fill="none" stroke="black" stroke-width="1"/>
</svg>