<svg xmlns="http://www.w3.org/2000/svg" width="150" height="272">
  <path d="M 124,109 L 123,110 L 123,112 L 122,113 L 121,113 L 120,114 L 120,115 L 119,116 L 116,116 L 114,118 L 112,118 L 111,119 L 109,117 L 108,117 L 107,118 L 105,118 L 104,117 L 104,116 L 103,115 L 102,115 L 101,116 L 100,116 L 99,117 L 99,119 L 98,120 L 97,120 L 98,121 L 98,123 L 101,123 L 103,125 L 103,126 L 104,127 L 104,128 L 105,129 L 105,131 L 106,131 L 107,130 L 110,130 L 111,131 L 112,131 L 114,129 L 114,128 L 113,127 L 113,126 L 114,125 L 118,125 L 119,126 L 119,127 L 120,128 L 122,128 L 122,127 L 121,126 L 121,125 L 122,124 L 126,124 L 128,122 L 130,122 L 132,120 L 134,120 L 135,119 L 139,119 L 140,118 L 140,116 L 139,116 L 137,114 L 136,114 L 135,113 L 134,113 L 133,112 L 130,112 L 128,110 L 128,109 Z" fill="none" stroke="black" stroke-width="1"/>
</svg>