<svg xmlns="http://www.w3.org/2000/svg" width="254" height="186">
  <path d="M 214,7 L 213,8 L 212,8 L 208,12 L 207,12 L 205,14 L 205,15 L 204,16 L 203,16 L 202,17 L 201,17 L 200,18 L 197,18 L 194,21 L 194,22 L 196,24 L 196,27 L 197,28 L 198,28 L 200,30 L 200,31 L 202,33 L 203,33 L 204,32 L 209,32 L 210,31 L 212,31 L 213,30 L 216,30 L 219,27 L 220,27 L 221,26 L 221,25 L 226,20 L 226,18 L 222,18 L 220,16 L 220,13 L 221,12 L 221,9 L 220,8 L 216,8 L 215,7 Z" fill="none" stroke="black" stroke-width="1"/>
</svg>