<svg xmlns="http://www.w3.org/2000/svg" width="268" height="258">
  <path d="M 95,28 L 95,29 L 91,33 L 91,35 L 90,36 L 90,37 L 89,38 L 89,40 L 87,42 L 87,45 L 88,46 L 88,47 L 87,48 L 87,50 L 86,51 L 87,52 L 88,52 L 89,53 L 89,54 L 90,55 L 90,56 L 91,56 L 92,57 L 92,59 L 95,59 L 97,61 L 97,63 L 98,64 L 98,66 L 99,67 L 99,72 L 103,72 L 107,76 L 111,76 L 112,75 L 114,75 L 114,74 L 115,73 L 117,73 L 118,72 L 119,72 L 122,69 L 125,69 L 127,71 L 128,71 L 129,70 L 131,70 L 132,69 L 134,69 L 135,68 L 136,68 L 137,67 L 138,67 L 139,66 L 141,66 L 144,63 L 145,63 L 145,59 L 146,58 L 146,56 L 145,56 L 144,55 L 142,55 L 141,54 L 136,54 L 135,53 L 134,53 L 133,54 L 132,54 L 131,53 L 130,53 L 129,52 L 127,52 L 125,50 L 121,50 L 119,48 L 119,44 L 118,43 L 115,43 L 114,42 L 114,41 L 113,40 L 113,39 L 112,39 L 110,37 L 110,36 L 108,38 L 106,38 L 105,37 L 105,36 L 104,36 L 102,34 L 102,31 L 101,31 L 100,30 L 99,30 L 97,28 Z" fill="none" stroke="black" stroke-width="1"/>
</svg>