<svg xmlns="http://www.w3.org/2000/svg" width="254" height="186">
  <path d="M 67,144 L 66,145 L 65,145 L 66,146 L 66,147 L 65,148 L 64,148 L 64,154 L 65,155 L 65,156 L 66,157 L 66,159 L 65,160 L 65,161 L 63,163 L 61,163 L 61,165 L 62,165 L 64,167 L 65,167 L 67,165 L 67,164 L 68,163 L 68,162 L 70,160 L 71,160 L 74,157 L 75,157 L 77,155 L 77,154 L 76,155 L 75,155 L 75,156 L 74,157 L 73,156 L 73,153 L 74,152 L 74,151 L 75,150 L 76,150 L 76,148 L 75,147 L 75,146 L 75,147 L 74,148 L 71,148 L 70,147 L 70,146 L 69,146 Z" fill="none" stroke="black" stroke-width="1"/>
</svg>