<svg xmlns="http://www.w3.org/2000/svg" width="150" height="272">
  <path d="M 85,58 L 84,59 L 83,59 L 82,60 L 81,60 L 79,62 L 74,62 L 74,64 L 76,66 L 76,67 L 77,68 L 77,70 L 76,71 L 76,73 L 75,74 L 75,75 L 74,76 L 74,79 L 75,80 L 78,80 L 80,82 L 80,84 L 81,84 L 82,83 L 84,83 L 84,81 L 83,81 L 82,80 L 82,78 L 84,76 L 90,76 L 91,77 L 94,77 L 95,76 L 95,73 L 96,72 L 96,71 L 97,70 L 96,70 L 94,68 L 93,68 L 91,66 L 90,66 L 89,65 L 89,63 L 88,62 L 88,61 L 86,59 L 86,58 Z" fill="none" stroke="black" stroke-width="1"/>
</svg>