<svg xmlns="http://www.w3.org/2000/svg" width="296" height="251">
  <path d="M 88,63 L 85,66 L 83,66 L 81,68 L 79,68 L 80,69 L 81,69 L 82,70 L 84,70 L 85,71 L 86,71 L 87,72 L 88,72 L 89,73 L 90,73 L 91,74 L 91,75 L 92,75 L 93,76 L 94,76 L 95,77 L 95,78 L 96,79 L 97,79 L 98,80 L 101,80 L 102,81 L 102,80 L 103,79 L 103,78 L 104,77 L 104,76 L 105,75 L 106,76 L 111,76 L 111,75 L 113,73 L 113,72 L 114,71 L 114,67 L 113,66 L 110,66 L 109,65 L 108,66 L 105,66 L 103,68 L 101,68 L 100,67 L 95,67 L 94,66 L 93,66 L 92,65 L 91,65 L 89,63 Z" fill="none" stroke="black" stroke-width="1"/>
</svg>