<svg xmlns="http://www.w3.org/2000/svg" width="254" height="186">
  <path d="M 86,104 L 84,106 L 83,106 L 82,107 L 76,107 L 75,106 L 74,106 L 74,107 L 72,109 L 71,109 L 72,110 L 72,111 L 71,112 L 71,115 L 70,116 L 70,118 L 69,119 L 68,119 L 68,121 L 69,122 L 71,122 L 72,123 L 73,123 L 74,124 L 74,125 L 76,127 L 77,127 L 79,129 L 81,129 L 82,128 L 83,128 L 84,129 L 86,127 L 87,127 L 89,125 L 91,125 L 91,124 L 92,123 L 95,123 L 94,122 L 95,121 L 95,120 L 97,118 L 97,114 L 98,113 L 99,114 L 102,114 L 102,112 L 101,111 L 101,109 L 100,108 L 97,108 L 96,107 L 96,106 L 91,106 L 89,104 Z" fill="none" stroke="black" stroke-width="1"/>
</svg>