<svg xmlns="http://www.w3.org/2000/svg" width="268" height="258">
  <path d="M 122,70 L 119,73 L 118,73 L 117,74 L 115,74 L 115,75 L 114,76 L 112,76 L 111,77 L 107,77 L 103,73 L 99,73 L 98,74 L 98,87 L 99,88 L 99,91 L 98,92 L 97,92 L 97,94 L 96,95 L 96,99 L 97,100 L 98,100 L 99,101 L 100,101 L 101,102 L 100,103 L 101,103 L 102,104 L 107,104 L 108,105 L 115,105 L 116,104 L 118,104 L 119,105 L 119,103 L 120,102 L 121,102 L 121,98 L 120,97 L 120,95 L 122,93 L 124,93 L 124,87 L 125,86 L 125,84 L 128,81 L 128,80 L 129,79 L 129,77 L 130,76 L 129,75 L 129,73 L 128,73 L 125,70 Z" fill="none" stroke="black" stroke-width="1"/>
</svg>