<svg xmlns="http://www.w3.org/2000/svg" width="254" height="186">
  <path d="M 49,118 L 48,119 L 47,119 L 46,120 L 46,123 L 45,124 L 45,125 L 44,126 L 44,130 L 43,131 L 42,131 L 42,132 L 40,134 L 40,135 L 39,136 L 39,138 L 40,139 L 40,143 L 46,143 L 47,142 L 50,142 L 52,140 L 53,140 L 52,139 L 52,138 L 53,137 L 58,137 L 58,135 L 60,133 L 62,133 L 62,132 L 61,131 L 61,128 L 62,127 L 62,125 L 60,123 L 60,122 L 59,121 L 57,121 L 56,120 L 53,120 L 52,119 L 52,118 Z" fill="none" stroke="black" stroke-width="1"/>
</svg>