<svg xmlns="http://www.w3.org/2000/svg" width="254" height="186">
  <path d="M 26,95 L 22,99 L 22,101 L 21,102 L 19,102 L 19,103 L 16,106 L 15,106 L 15,107 L 14,108 L 12,108 L 12,109 L 10,111 L 10,115 L 14,119 L 14,120 L 16,120 L 16,119 L 18,117 L 20,117 L 21,118 L 24,118 L 25,117 L 29,117 L 30,118 L 33,118 L 34,119 L 40,119 L 40,116 L 39,115 L 39,113 L 41,111 L 41,110 L 42,109 L 43,109 L 43,108 L 42,107 L 42,106 L 43,105 L 43,104 L 42,104 L 41,105 L 40,105 L 39,104 L 39,102 L 37,102 L 36,101 L 35,101 L 34,100 L 34,99 L 33,98 L 29,98 L 28,97 L 28,96 L 27,95 Z" fill="none" stroke="black" stroke-width="1"/>
</svg>