<svg xmlns="http://www.w3.org/2000/svg" width="268" height="258">
  <path d="M 154,132 L 151,135 L 151,136 L 149,138 L 149,141 L 150,142 L 150,143 L 152,145 L 152,150 L 153,151 L 154,151 L 156,153 L 156,154 L 155,155 L 155,156 L 154,157 L 154,158 L 153,159 L 151,159 L 151,161 L 149,163 L 149,164 L 148,165 L 148,168 L 149,169 L 153,169 L 154,168 L 157,168 L 158,169 L 158,170 L 159,171 L 160,171 L 161,170 L 165,170 L 166,169 L 167,169 L 168,168 L 169,169 L 169,166 L 170,165 L 170,162 L 169,161 L 169,158 L 170,157 L 170,154 L 171,153 L 173,153 L 175,151 L 175,149 L 176,148 L 177,148 L 178,147 L 181,147 L 182,148 L 184,148 L 185,149 L 186,149 L 189,146 L 192,146 L 191,146 L 189,144 L 190,143 L 193,143 L 193,142 L 194,141 L 196,141 L 197,140 L 197,139 L 195,139 L 194,138 L 193,138 L 192,137 L 189,137 L 187,139 L 186,139 L 185,138 L 183,138 L 182,137 L 176,137 L 175,136 L 171,136 L 170,135 L 169,135 L 168,134 L 168,133 L 157,133 L 156,132 Z" fill="none" stroke="black" stroke-width="1"/>
</svg>