<svg xmlns="http://www.w3.org/2000/svg" width="194" height="180">
  <path d="M 151,103 L 149,105 L 149,107 L 147,109 L 146,109 L 145,110 L 144,110 L 143,111 L 142,111 L 142,114 L 141,115 L 141,117 L 139,119 L 139,120 L 141,120 L 142,119 L 146,119 L 147,118 L 148,118 L 149,117 L 150,117 L 153,120 L 157,120 L 158,119 L 160,119 L 158,117 L 158,116 L 160,114 L 160,113 L 159,112 L 159,111 L 160,110 L 160,109 L 159,108 L 159,106 L 158,105 L 157,105 L 155,103 L 154,103 L 153,104 L 152,103 Z" fill="none" stroke="black" stroke-width="1"/>
</svg>