<svg xmlns="http://www.w3.org/2000/svg" width="296" height="251">
  <path d="M 134,171 L 133,172 L 132,172 L 131,173 L 130,173 L 129,174 L 127,174 L 127,175 L 126,176 L 125,176 L 124,177 L 122,177 L 119,180 L 113,180 L 112,181 L 111,181 L 109,183 L 109,185 L 111,187 L 111,188 L 112,189 L 112,190 L 113,190 L 115,192 L 116,191 L 118,191 L 118,190 L 121,187 L 122,187 L 123,186 L 124,186 L 125,185 L 126,185 L 126,184 L 127,183 L 129,183 L 129,182 L 130,181 L 133,181 L 134,180 L 134,178 L 135,177 L 136,177 L 137,176 L 139,176 L 140,177 L 141,177 L 142,176 L 142,175 L 141,174 L 141,173 L 139,173 L 138,172 L 138,171 Z" fill="none" stroke="black" stroke-width="1"/>
</svg>