<svg xmlns="http://www.w3.org/2000/svg" width="296" height="251">
  <path d="M 170,200 L 169,201 L 168,201 L 165,204 L 161,204 L 159,202 L 157,202 L 157,203 L 155,205 L 154,205 L 154,206 L 153,207 L 153,208 L 151,210 L 150,210 L 150,211 L 149,212 L 148,212 L 148,213 L 149,213 L 150,214 L 151,214 L 152,215 L 152,217 L 153,218 L 153,219 L 155,219 L 156,218 L 158,218 L 161,215 L 162,215 L 163,216 L 164,216 L 165,215 L 166,215 L 166,213 L 165,212 L 170,207 L 171,207 L 171,205 L 172,204 L 173,204 L 173,202 L 172,201 L 172,200 Z" fill="none" stroke="black" stroke-width="1"/>
</svg>