<svg xmlns="http://www.w3.org/2000/svg" width="296" height="251">
  <path d="M 234,209 L 234,210 L 232,212 L 231,212 L 230,213 L 228,213 L 227,212 L 225,212 L 224,213 L 223,213 L 223,215 L 222,216 L 222,219 L 221,220 L 221,223 L 222,224 L 222,225 L 223,225 L 225,227 L 225,229 L 226,230 L 228,230 L 230,232 L 232,232 L 232,231 L 233,230 L 233,229 L 234,228 L 236,228 L 237,227 L 238,227 L 240,229 L 242,229 L 243,230 L 243,229 L 245,227 L 246,227 L 246,226 L 247,225 L 248,225 L 248,223 L 250,221 L 250,220 L 249,220 L 248,219 L 248,218 L 247,217 L 246,217 L 245,216 L 244,216 L 239,211 L 238,211 L 236,209 Z" fill="none" stroke="black" stroke-width="1"/>
</svg>