<svg xmlns="http://www.w3.org/2000/svg" width="254" height="186">
  <path d="M 63,85 L 62,86 L 60,86 L 60,87 L 59,88 L 59,89 L 58,90 L 55,90 L 55,91 L 54,92 L 54,93 L 51,96 L 51,99 L 50,100 L 50,101 L 51,102 L 51,103 L 52,104 L 53,104 L 54,105 L 55,104 L 56,104 L 57,105 L 58,105 L 61,108 L 64,108 L 65,109 L 66,109 L 68,111 L 71,111 L 71,110 L 70,109 L 71,108 L 72,108 L 73,107 L 73,106 L 71,104 L 71,103 L 72,102 L 72,101 L 68,97 L 68,93 L 69,92 L 69,90 L 68,89 L 68,87 L 66,87 L 64,85 Z" fill="none" stroke="black" stroke-width="1"/>
</svg>