<svg xmlns="http://www.w3.org/2000/svg" width="268" height="258">
  <path d="M 188,106 L 187,107 L 187,109 L 188,110 L 187,111 L 187,112 L 188,113 L 188,115 L 186,117 L 185,117 L 183,119 L 182,119 L 181,120 L 180,120 L 178,122 L 178,126 L 177,127 L 177,129 L 176,130 L 176,131 L 175,132 L 175,135 L 176,136 L 182,136 L 183,137 L 185,137 L 186,138 L 187,138 L 189,136 L 192,136 L 193,137 L 194,137 L 195,138 L 197,138 L 198,139 L 199,138 L 200,138 L 201,139 L 202,139 L 203,140 L 204,140 L 205,139 L 207,139 L 209,141 L 209,142 L 210,142 L 210,141 L 212,139 L 212,138 L 216,134 L 217,134 L 218,133 L 220,133 L 220,130 L 221,129 L 221,127 L 220,126 L 220,124 L 221,123 L 221,120 L 222,119 L 222,118 L 223,117 L 223,114 L 220,111 L 220,110 L 219,109 L 219,107 L 218,106 L 217,106 L 216,107 L 215,107 L 214,106 L 212,106 L 211,107 L 208,107 L 207,108 L 204,108 L 203,109 L 196,109 L 195,108 L 194,108 L 193,107 L 191,107 L 190,106 Z" fill="none" stroke="black" stroke-width="1"/>
</svg>