<svg xmlns="http://www.w3.org/2000/svg" width="254" height="186">
  <path d="M 167,108 L 167,112 L 167,111 L 168,110 L 167,109 Z" fill="none" stroke="black" stroke-width="1"/>
  <path d="M 167,78 L 167,79 L 166,80 L 165,79 L 165,80 L 164,81 L 164,82 L 162,84 L 160,84 L 160,88 L 159,89 L 158,89 L 158,91 L 159,91 L 160,92 L 160,96 L 161,96 L 162,97 L 162,99 L 163,100 L 163,101 L 164,102 L 164,103 L 165,104 L 165,105 L 168,105 L 169,104 L 169,103 L 170,102 L 171,102 L 174,99 L 173,98 L 173,97 L 171,97 L 170,96 L 170,95 L 169,94 L 169,90 L 168,89 L 168,87 L 167,86 L 167,85 L 168,84 L 168,83 L 169,82 L 171,82 L 172,81 L 172,80 L 171,80 L 169,78 Z" fill="none" stroke="black" stroke-width="1"/>
</svg>