<svg xmlns="http://www.w3.org/2000/svg" width="254" height="186">
  <path d="M 126,75 L 124,77 L 124,78 L 123,79 L 122,79 L 122,80 L 119,83 L 117,83 L 117,84 L 115,86 L 115,87 L 114,88 L 114,91 L 117,94 L 120,94 L 121,95 L 121,96 L 122,97 L 122,98 L 123,99 L 123,100 L 124,100 L 125,101 L 125,107 L 127,107 L 129,105 L 132,105 L 133,104 L 133,102 L 132,101 L 132,98 L 133,97 L 134,97 L 134,95 L 137,92 L 137,87 L 138,86 L 138,82 L 136,82 L 135,81 L 135,79 L 131,79 L 129,77 L 129,75 Z" fill="none" stroke="black" stroke-width="1"/>
</svg>