<svg xmlns="http://www.w3.org/2000/svg" width="254" height="186">
  <path d="M 133,60 L 132,61 L 126,61 L 126,63 L 125,64 L 125,65 L 124,66 L 122,66 L 119,69 L 120,70 L 120,73 L 121,73 L 123,75 L 125,75 L 126,74 L 129,74 L 130,75 L 130,77 L 131,78 L 135,78 L 136,79 L 136,81 L 138,81 L 139,82 L 140,82 L 141,83 L 142,83 L 143,84 L 144,84 L 144,83 L 145,82 L 145,73 L 146,72 L 146,71 L 145,70 L 145,68 L 143,66 L 143,62 L 144,61 L 144,60 L 143,61 L 140,61 L 139,62 L 138,61 L 137,62 L 136,62 L 134,60 Z" fill="none" stroke="black" stroke-width="1"/>
</svg>