<svg xmlns="http://www.w3.org/2000/svg" width="268" height="258">
  <path d="M 155,84 L 154,85 L 151,85 L 150,86 L 149,86 L 148,87 L 148,88 L 147,89 L 146,89 L 146,91 L 143,94 L 142,94 L 141,95 L 133,95 L 132,94 L 131,95 L 130,95 L 129,94 L 122,94 L 121,95 L 121,97 L 122,98 L 122,102 L 121,103 L 120,103 L 120,106 L 119,107 L 119,109 L 118,110 L 119,111 L 119,112 L 118,113 L 118,115 L 119,115 L 120,116 L 120,119 L 121,120 L 121,121 L 122,122 L 122,125 L 123,126 L 123,130 L 125,132 L 126,132 L 127,133 L 128,133 L 129,132 L 134,132 L 135,131 L 137,131 L 138,132 L 138,133 L 138,132 L 139,131 L 139,130 L 140,129 L 140,128 L 142,126 L 145,126 L 147,124 L 148,124 L 149,123 L 151,123 L 154,120 L 154,105 L 156,103 L 156,102 L 157,101 L 166,101 L 166,100 L 167,99 L 168,99 L 169,98 L 169,96 L 172,93 L 173,93 L 173,90 L 169,86 L 170,85 L 168,85 L 167,84 L 166,85 L 165,85 L 164,86 L 162,86 L 161,85 L 160,85 L 159,84 Z" fill="none" stroke="black" stroke-width="1"/>
</svg>