<svg xmlns="http://www.w3.org/2000/svg" width="378" height="221">
  <path d="M 178,195 L 176,197 L 174,197 L 171,200 L 171,201 L 172,202 L 172,203 L 173,204 L 173,206 L 176,206 L 178,208 L 178,213 L 183,213 L 186,216 L 186,218 L 188,220 L 193,220 L 195,218 L 198,218 L 199,217 L 201,217 L 202,216 L 206,216 L 210,212 L 211,212 L 211,211 L 210,210 L 207,210 L 204,207 L 204,206 L 205,205 L 205,201 L 204,200 L 202,200 L 201,199 L 199,199 L 197,201 L 196,201 L 195,200 L 194,200 L 193,199 L 186,199 L 185,198 L 185,196 L 184,195 Z" fill="none" stroke="black" stroke-width="1"/>
</svg>