<svg xmlns="http://www.w3.org/2000/svg" width="378" height="221">
  <path d="M 156,192 L 155,193 L 154,193 L 153,194 L 150,194 L 149,195 L 149,197 L 148,198 L 148,199 L 147,200 L 148,200 L 149,201 L 150,201 L 152,203 L 152,205 L 150,207 L 150,208 L 149,209 L 149,210 L 150,211 L 150,213 L 149,214 L 151,214 L 152,215 L 156,215 L 157,214 L 161,214 L 161,213 L 162,212 L 162,211 L 161,211 L 160,210 L 160,208 L 161,207 L 161,206 L 162,205 L 162,202 L 163,201 L 163,198 L 162,197 L 162,195 L 161,194 L 159,194 L 157,192 Z" fill="none" stroke="black" stroke-width="1"/>
</svg>