<svg xmlns="http://www.w3.org/2000/svg" width="296" height="251">
  <path d="M 273,154 L 273,155 L 272,156 L 270,156 L 270,159 L 269,160 L 267,160 L 267,161 L 268,162 L 268,165 L 267,166 L 267,169 L 268,170 L 268,171 L 269,172 L 272,172 L 273,171 L 280,171 L 281,172 L 283,172 L 284,171 L 287,171 L 288,172 L 291,172 L 292,171 L 292,169 L 293,168 L 293,166 L 292,165 L 292,164 L 293,163 L 293,162 L 295,160 L 295,158 L 294,157 L 293,157 L 292,156 L 289,156 L 289,157 L 288,158 L 279,158 L 278,157 L 278,156 L 277,156 L 276,155 L 275,155 L 274,154 Z" fill="none" stroke="black" stroke-width="1"/>
</svg>