<svg xmlns="http://www.w3.org/2000/svg" width="296" height="251">
  <path d="M 239,158 L 238,159 L 238,161 L 239,162 L 239,163 L 240,164 L 240,165 L 241,166 L 241,167 L 242,168 L 243,168 L 244,169 L 245,169 L 246,170 L 247,170 L 248,171 L 253,171 L 254,170 L 259,170 L 261,172 L 262,172 L 263,173 L 269,173 L 267,171 L 267,170 L 266,169 L 266,166 L 267,165 L 266,164 L 265,164 L 263,162 L 262,162 L 261,163 L 257,163 L 255,165 L 254,164 L 252,164 L 251,163 L 250,163 L 249,162 L 247,162 L 246,161 L 244,161 L 243,160 L 243,159 L 241,159 L 240,158 Z" fill="none" stroke="black" stroke-width="1"/>
</svg>