<svg xmlns="http://www.w3.org/2000/svg" width="296" height="251">
  <path d="M 215,141 L 214,142 L 214,147 L 213,148 L 211,148 L 211,150 L 216,150 L 217,151 L 218,151 L 221,154 L 221,159 L 222,160 L 228,160 L 230,162 L 232,160 L 234,160 L 236,162 L 237,161 L 237,159 L 238,158 L 238,156 L 239,155 L 240,155 L 240,154 L 239,153 L 237,153 L 235,151 L 235,150 L 234,149 L 233,149 L 232,148 L 232,147 L 231,146 L 227,146 L 226,145 L 224,145 L 223,144 L 218,144 Z" fill="none" stroke="black" stroke-width="1"/>
</svg>