<svg xmlns="http://www.w3.org/2000/svg" width="296" height="251">
  <path d="M 224,161 L 224,162 L 223,163 L 224,164 L 224,166 L 226,168 L 226,171 L 227,172 L 227,173 L 229,173 L 230,174 L 230,175 L 231,176 L 231,178 L 232,178 L 234,180 L 235,180 L 236,179 L 238,181 L 239,181 L 240,182 L 240,183 L 241,184 L 241,185 L 244,185 L 247,182 L 250,182 L 250,179 L 249,178 L 249,177 L 250,176 L 251,176 L 251,172 L 248,172 L 247,171 L 246,171 L 245,170 L 244,170 L 243,169 L 242,169 L 240,167 L 240,166 L 239,165 L 239,164 L 238,163 L 238,162 L 237,162 L 236,163 L 234,161 L 232,161 L 230,163 L 228,161 Z" fill="none" stroke="black" stroke-width="1"/>
</svg>