<svg xmlns="http://www.w3.org/2000/svg" width="296" height="251">
  <path d="M 246,184 L 245,185 L 245,188 L 247,190 L 247,191 L 248,192 L 248,193 L 246,195 L 246,197 L 247,197 L 248,198 L 253,198 L 254,199 L 255,199 L 256,200 L 257,200 L 257,199 L 258,198 L 259,198 L 260,197 L 264,197 L 265,198 L 266,197 L 270,197 L 269,196 L 269,195 L 268,195 L 267,194 L 268,193 L 268,192 L 267,191 L 263,191 L 262,190 L 259,190 L 258,189 L 253,189 L 252,188 L 251,188 L 250,187 L 249,187 L 248,186 L 248,185 L 247,184 Z" fill="none" stroke="black" stroke-width="1"/>
</svg>