<svg xmlns="http://www.w3.org/2000/svg" width="268" height="258">
  <path d="M 172,54 L 172,57 L 171,58 L 171,59 L 170,60 L 170,61 L 172,63 L 172,65 L 171,66 L 171,68 L 170,69 L 170,71 L 169,72 L 169,76 L 167,78 L 167,83 L 168,84 L 170,84 L 171,85 L 170,86 L 173,89 L 175,89 L 175,87 L 177,85 L 178,85 L 179,84 L 179,83 L 180,82 L 180,81 L 181,80 L 185,80 L 186,81 L 186,82 L 188,82 L 189,83 L 190,83 L 191,84 L 194,84 L 196,82 L 199,82 L 201,80 L 202,80 L 203,79 L 205,79 L 206,78 L 209,78 L 210,79 L 210,78 L 207,75 L 204,75 L 202,73 L 202,62 L 200,60 L 199,60 L 198,59 L 197,59 L 196,58 L 194,58 L 193,57 L 188,57 L 187,56 L 185,56 L 184,55 L 182,55 L 181,56 L 180,56 L 179,55 L 175,55 L 174,54 Z" fill="none" stroke="black" stroke-width="1"/>
</svg>