<svg xmlns="http://www.w3.org/2000/svg" width="296" height="251">
  <path d="M 200,149 L 200,150 L 201,151 L 202,151 L 203,152 L 204,152 L 205,153 L 205,157 L 206,158 L 206,159 L 207,160 L 208,159 L 209,159 L 211,161 L 211,163 L 214,163 L 215,164 L 218,164 L 219,165 L 220,165 L 220,164 L 221,163 L 222,163 L 223,162 L 223,161 L 222,161 L 220,159 L 220,154 L 218,152 L 217,152 L 216,151 L 211,151 L 210,150 L 209,151 L 207,151 L 206,150 L 205,150 L 204,149 Z" fill="none" stroke="black" stroke-width="1"/>
</svg>