<svg xmlns="http://www.w3.org/2000/svg" width="296" height="251">
  <path d="M 175,122 L 175,124 L 174,125 L 174,127 L 173,128 L 173,132 L 169,136 L 169,140 L 170,140 L 171,141 L 172,141 L 174,143 L 177,143 L 178,144 L 179,144 L 180,145 L 181,145 L 182,146 L 182,147 L 184,147 L 185,148 L 188,148 L 189,149 L 191,149 L 190,148 L 190,145 L 191,144 L 192,145 L 192,140 L 191,139 L 191,138 L 192,137 L 192,135 L 193,134 L 193,131 L 192,131 L 191,130 L 189,130 L 188,129 L 187,129 L 186,128 L 186,127 L 184,125 L 183,125 L 182,124 L 181,124 L 180,123 L 176,123 Z" fill="none" stroke="black" stroke-width="1"/>
</svg>