<svg xmlns="http://www.w3.org/2000/svg" width="296" height="251">
  <path d="M 134,95 L 133,96 L 131,96 L 131,97 L 130,98 L 128,98 L 126,100 L 121,100 L 118,97 L 118,96 L 117,97 L 117,99 L 116,100 L 116,102 L 120,106 L 122,106 L 124,108 L 124,109 L 123,110 L 124,110 L 125,111 L 126,111 L 127,112 L 136,112 L 136,111 L 137,110 L 137,109 L 139,107 L 140,107 L 141,106 L 142,106 L 143,105 L 144,105 L 145,104 L 145,103 L 144,102 L 143,102 L 142,101 L 141,101 L 140,100 L 140,98 L 139,98 L 138,97 L 137,97 L 135,95 Z" fill="none" stroke="black" stroke-width="1"/>
</svg>