<svg xmlns="http://www.w3.org/2000/svg" width="296" height="251">
  <path d="M 168,141 L 167,142 L 165,142 L 165,144 L 164,145 L 164,146 L 165,147 L 165,148 L 166,149 L 167,149 L 169,151 L 169,152 L 172,155 L 172,157 L 173,157 L 178,162 L 178,163 L 181,163 L 182,162 L 185,162 L 186,161 L 187,161 L 188,160 L 191,160 L 192,159 L 190,157 L 190,153 L 189,152 L 189,150 L 188,149 L 185,149 L 184,148 L 182,148 L 181,147 L 181,146 L 180,146 L 179,145 L 178,145 L 177,144 L 174,144 L 172,142 L 171,142 L 170,141 Z" fill="none" stroke="black" stroke-width="1"/>
</svg>