<svg xmlns="http://www.w3.org/2000/svg" width="296" height="251">
  <path d="M 192,160 L 191,161 L 188,161 L 187,162 L 186,162 L 185,163 L 182,163 L 181,164 L 179,164 L 179,167 L 181,169 L 182,169 L 184,171 L 185,171 L 187,173 L 188,173 L 190,175 L 190,176 L 192,178 L 192,180 L 193,181 L 193,182 L 194,183 L 194,184 L 196,186 L 199,186 L 200,187 L 201,187 L 202,188 L 203,188 L 203,187 L 204,186 L 210,186 L 212,184 L 208,180 L 208,179 L 207,179 L 204,176 L 204,173 L 206,171 L 206,169 L 205,169 L 203,167 L 201,167 L 200,166 L 199,166 L 198,165 L 198,163 L 197,162 L 197,161 L 196,161 L 195,160 Z" fill="none" stroke="black" stroke-width="1"/>
</svg>