<svg xmlns="http://www.w3.org/2000/svg" width="296" height="251">
  <path d="M 176,183 L 174,185 L 174,186 L 173,187 L 173,189 L 171,191 L 171,192 L 170,193 L 170,195 L 169,196 L 168,196 L 168,197 L 170,199 L 172,199 L 173,200 L 173,201 L 174,202 L 174,205 L 175,204 L 177,204 L 179,206 L 181,206 L 181,205 L 184,202 L 184,201 L 187,198 L 187,197 L 188,196 L 188,194 L 187,193 L 186,193 L 185,192 L 185,191 L 182,191 L 180,189 L 180,187 L 179,186 L 179,185 L 178,185 Z" fill="none" stroke="black" stroke-width="1"/>
</svg>