<svg xmlns="http://www.w3.org/2000/svg" width="296" height="251">
  <path d="M 160,146 L 160,147 L 159,148 L 155,148 L 155,149 L 154,150 L 154,151 L 153,152 L 153,153 L 154,154 L 154,156 L 152,158 L 154,158 L 155,159 L 155,160 L 156,161 L 157,161 L 158,162 L 159,162 L 160,163 L 160,166 L 161,167 L 161,168 L 161,164 L 162,163 L 162,160 L 163,159 L 166,159 L 167,158 L 167,155 L 168,154 L 170,154 L 168,152 L 168,151 L 167,150 L 166,150 L 164,148 L 164,147 L 163,146 Z" fill="none" stroke="black" stroke-width="1"/>
</svg>