<svg xmlns="http://www.w3.org/2000/svg" width="268" height="258">
  <path d="M 206,79 L 205,80 L 203,80 L 202,81 L 201,81 L 199,83 L 196,83 L 194,85 L 191,85 L 190,84 L 189,84 L 188,83 L 186,83 L 185,82 L 185,81 L 181,81 L 181,82 L 180,83 L 180,84 L 178,86 L 177,86 L 176,87 L 176,89 L 175,90 L 174,90 L 174,93 L 177,96 L 178,96 L 179,97 L 180,97 L 182,95 L 185,95 L 186,96 L 187,96 L 189,98 L 189,99 L 188,100 L 188,102 L 189,102 L 190,103 L 190,105 L 191,106 L 193,106 L 194,107 L 195,107 L 196,108 L 203,108 L 204,107 L 207,107 L 208,106 L 211,106 L 212,105 L 213,105 L 214,104 L 214,103 L 215,102 L 215,101 L 217,99 L 217,98 L 218,97 L 218,96 L 219,95 L 219,94 L 221,92 L 221,91 L 222,90 L 222,84 L 221,84 L 217,80 L 210,80 L 209,79 Z" fill="none" stroke="black" stroke-width="1"/>
</svg>