<svg xmlns="http://www.w3.org/2000/svg" width="194" height="180">
  <path d="M 131,45 L 128,48 L 127,48 L 126,49 L 122,49 L 121,48 L 117,48 L 116,49 L 114,49 L 113,50 L 111,50 L 109,52 L 109,54 L 110,55 L 110,56 L 111,57 L 110,58 L 111,58 L 112,59 L 112,62 L 114,62 L 115,63 L 117,63 L 118,64 L 119,64 L 120,65 L 121,65 L 121,64 L 123,62 L 124,62 L 124,61 L 125,60 L 125,58 L 126,57 L 126,56 L 127,55 L 130,55 L 131,54 L 133,54 L 134,53 L 136,53 L 137,54 L 138,54 L 138,53 L 139,52 L 137,50 L 136,50 L 133,47 L 133,46 L 132,45 Z" fill="none" stroke="black" stroke-width="1"/>
</svg>