<svg xmlns="http://www.w3.org/2000/svg" width="194" height="180">
  <path d="M 28,75 L 27,76 L 27,78 L 26,79 L 25,79 L 25,87 L 24,88 L 24,89 L 23,90 L 23,93 L 26,96 L 26,97 L 27,98 L 27,99 L 28,99 L 30,101 L 30,103 L 31,103 L 32,104 L 32,105 L 36,105 L 35,104 L 36,103 L 37,103 L 38,102 L 40,102 L 41,101 L 42,102 L 42,96 L 40,96 L 39,95 L 39,94 L 38,93 L 38,92 L 37,91 L 37,89 L 38,88 L 38,86 L 36,84 L 36,83 L 34,81 L 35,80 L 35,76 L 34,76 L 33,75 Z" fill="none" stroke="black" stroke-width="1"/>
</svg>