<svg xmlns="http://www.w3.org/2000/svg" width="194" height="180">
  <path d="M 75,62 L 74,63 L 72,63 L 71,64 L 70,64 L 67,67 L 65,67 L 64,68 L 61,68 L 60,69 L 55,69 L 54,70 L 54,72 L 55,73 L 55,75 L 56,75 L 57,76 L 57,77 L 58,77 L 60,79 L 60,83 L 63,86 L 63,89 L 65,91 L 65,96 L 67,96 L 68,95 L 68,94 L 69,93 L 72,93 L 73,94 L 75,92 L 75,89 L 76,88 L 77,88 L 81,84 L 81,83 L 82,82 L 82,80 L 83,79 L 83,76 L 85,74 L 86,74 L 86,73 L 88,71 L 88,69 L 87,68 L 86,68 L 85,67 L 82,67 L 81,68 L 80,68 L 76,64 L 76,62 Z" fill="none" stroke="black" stroke-width="1"/>
</svg>