<svg xmlns="http://www.w3.org/2000/svg" width="194" height="180">
  <path d="M 108,0 L 107,1 L 105,1 L 105,2 L 104,3 L 104,6 L 103,7 L 103,8 L 102,9 L 102,10 L 101,11 L 101,13 L 103,15 L 103,17 L 104,18 L 108,18 L 110,20 L 111,20 L 116,25 L 117,25 L 118,26 L 118,27 L 120,29 L 121,29 L 122,30 L 122,33 L 123,34 L 124,34 L 125,35 L 126,35 L 132,29 L 132,28 L 133,27 L 134,27 L 136,29 L 137,29 L 138,28 L 140,28 L 140,27 L 138,25 L 138,23 L 137,22 L 137,18 L 135,16 L 135,14 L 130,14 L 128,12 L 125,12 L 124,11 L 123,11 L 122,10 L 122,5 L 121,4 L 120,4 L 119,3 L 119,2 L 114,2 L 113,1 L 111,1 L 110,0 Z" fill="none" stroke="black" stroke-width="1"/>
</svg>