<svg xmlns="http://www.w3.org/2000/svg" width="296" height="251">
  <path d="M 58,119 L 56,121 L 54,121 L 54,122 L 53,123 L 51,123 L 50,122 L 48,122 L 47,123 L 47,124 L 46,125 L 46,126 L 45,127 L 44,127 L 44,128 L 43,129 L 38,129 L 36,131 L 32,131 L 32,132 L 33,133 L 33,137 L 34,138 L 34,139 L 36,141 L 38,141 L 39,142 L 43,142 L 44,143 L 46,143 L 50,139 L 51,139 L 53,137 L 55,137 L 56,136 L 57,136 L 57,135 L 60,132 L 60,130 L 61,129 L 61,128 L 62,127 L 62,126 L 63,125 L 63,122 L 64,121 L 64,119 Z" fill="none" stroke="black" stroke-width="1"/>
</svg>