<svg xmlns="http://www.w3.org/2000/svg" width="296" height="251">
  <path d="M 29,87 L 28,88 L 25,88 L 25,92 L 22,95 L 22,97 L 23,98 L 23,108 L 22,109 L 23,110 L 23,111 L 24,112 L 24,115 L 25,116 L 25,118 L 26,118 L 27,119 L 28,119 L 30,121 L 33,118 L 34,118 L 34,117 L 37,114 L 38,114 L 39,113 L 40,113 L 40,111 L 41,110 L 40,109 L 40,107 L 41,106 L 41,104 L 43,102 L 43,101 L 44,100 L 44,99 L 45,98 L 44,97 L 44,95 L 45,94 L 45,93 L 46,92 L 47,92 L 46,91 L 45,91 L 44,90 L 37,90 L 36,89 L 33,89 L 31,87 Z" fill="none" stroke="black" stroke-width="1"/>
</svg>