<svg xmlns="http://www.w3.org/2000/svg" width="296" height="251">
  <path d="M 62,87 L 62,89 L 60,91 L 59,91 L 57,93 L 56,93 L 55,94 L 50,94 L 48,92 L 47,93 L 46,93 L 46,94 L 45,95 L 45,97 L 46,98 L 45,99 L 45,100 L 44,101 L 44,102 L 42,104 L 42,106 L 41,107 L 41,109 L 42,110 L 41,111 L 41,113 L 51,113 L 53,111 L 54,111 L 55,110 L 57,110 L 59,108 L 60,108 L 65,103 L 66,103 L 67,102 L 68,102 L 69,101 L 70,101 L 72,99 L 72,98 L 73,97 L 76,97 L 76,94 L 77,93 L 77,92 L 76,92 L 75,91 L 72,91 L 71,90 L 68,90 L 67,89 L 66,89 L 65,88 L 63,88 Z" fill="none" stroke="black" stroke-width="1"/>
</svg>