<svg xmlns="http://www.w3.org/2000/svg" width="268" height="258">
  <path d="M 255,33 L 254,34 L 253,34 L 252,35 L 250,35 L 248,37 L 248,38 L 247,39 L 245,39 L 244,40 L 243,40 L 241,42 L 240,42 L 241,43 L 240,44 L 239,44 L 240,45 L 240,47 L 239,48 L 239,52 L 240,53 L 240,54 L 241,55 L 241,56 L 240,57 L 240,59 L 238,61 L 237,61 L 237,62 L 236,63 L 237,63 L 238,64 L 238,66 L 239,67 L 239,68 L 241,70 L 241,71 L 243,73 L 244,73 L 245,74 L 245,75 L 246,76 L 243,79 L 243,80 L 244,81 L 246,81 L 247,82 L 249,82 L 251,84 L 252,84 L 254,86 L 255,86 L 256,85 L 258,85 L 259,84 L 259,81 L 260,80 L 260,79 L 263,76 L 264,76 L 265,75 L 266,75 L 267,74 L 267,71 L 266,70 L 266,58 L 264,56 L 263,57 L 262,57 L 259,60 L 258,60 L 257,61 L 256,60 L 256,59 L 255,58 L 256,57 L 256,56 L 257,55 L 257,51 L 256,50 L 257,49 L 257,48 L 258,47 L 258,40 L 259,39 L 259,38 L 260,37 L 260,35 L 259,34 L 259,33 Z" fill="none" stroke="black" stroke-width="1"/>
</svg>