<svg xmlns="http://www.w3.org/2000/svg" width="296" height="251">
  <path d="M 71,66 L 71,67 L 70,68 L 69,68 L 68,69 L 68,70 L 67,71 L 66,71 L 66,72 L 65,73 L 61,73 L 60,74 L 57,74 L 57,75 L 56,76 L 55,76 L 54,75 L 53,75 L 52,74 L 52,73 L 51,72 L 48,72 L 48,73 L 49,74 L 49,76 L 48,77 L 48,78 L 47,79 L 47,82 L 46,83 L 46,86 L 45,87 L 45,90 L 46,90 L 47,91 L 48,91 L 50,93 L 55,93 L 56,92 L 57,92 L 59,90 L 60,90 L 61,89 L 61,87 L 62,86 L 63,86 L 65,84 L 66,84 L 66,83 L 67,82 L 68,82 L 69,81 L 70,81 L 71,80 L 74,80 L 75,79 L 75,78 L 76,77 L 77,77 L 80,74 L 81,74 L 82,73 L 84,73 L 84,71 L 82,71 L 81,70 L 80,70 L 79,69 L 78,69 L 77,68 L 76,68 L 75,67 L 74,67 L 73,66 Z" fill="none" stroke="black" stroke-width="1"/>
</svg>