<svg xmlns="http://www.w3.org/2000/svg" width="378" height="221">
  <path d="M 141,157 L 140,158 L 137,158 L 138,159 L 138,160 L 137,161 L 136,161 L 136,162 L 135,163 L 135,164 L 134,165 L 134,168 L 135,169 L 135,171 L 132,174 L 132,175 L 131,176 L 131,178 L 132,179 L 133,179 L 136,182 L 136,183 L 137,184 L 137,190 L 139,192 L 141,192 L 142,191 L 143,191 L 144,192 L 148,192 L 149,193 L 153,193 L 154,192 L 155,192 L 156,191 L 157,191 L 159,193 L 161,193 L 162,194 L 162,193 L 163,192 L 163,190 L 164,189 L 164,186 L 165,185 L 165,181 L 162,178 L 161,178 L 159,176 L 158,176 L 156,174 L 156,173 L 154,171 L 156,169 L 156,166 L 157,165 L 157,163 L 156,163 L 155,162 L 151,162 L 150,161 L 149,161 L 148,160 L 147,160 L 146,159 L 145,159 L 144,158 L 143,158 L 142,157 Z" fill="none" stroke="black" stroke-width="1"/>
</svg>