<svg xmlns="http://www.w3.org/2000/svg" width="378" height="221">
  <path d="M 93,161 L 93,163 L 95,165 L 95,166 L 96,167 L 96,170 L 94,172 L 94,173 L 91,176 L 90,176 L 93,179 L 93,180 L 94,181 L 94,182 L 95,182 L 96,183 L 97,183 L 99,185 L 100,185 L 101,186 L 101,188 L 102,187 L 103,187 L 105,185 L 106,185 L 107,184 L 109,184 L 110,183 L 111,183 L 112,184 L 112,185 L 115,185 L 116,186 L 117,186 L 119,188 L 121,188 L 122,189 L 123,189 L 124,190 L 125,190 L 127,192 L 128,192 L 128,191 L 129,190 L 131,190 L 132,191 L 136,191 L 136,184 L 135,183 L 135,182 L 133,180 L 132,180 L 130,178 L 130,176 L 131,175 L 131,174 L 134,171 L 134,169 L 133,168 L 133,165 L 134,164 L 133,163 L 133,161 L 132,161 L 131,162 L 130,162 L 129,163 L 129,166 L 128,167 L 128,169 L 127,170 L 127,171 L 126,172 L 123,172 L 122,171 L 122,170 L 119,167 L 117,167 L 116,168 L 115,168 L 115,171 L 114,172 L 112,172 L 108,168 L 105,168 L 104,167 L 103,168 L 102,168 L 98,164 L 97,164 L 96,163 L 96,162 L 95,161 Z" fill="none" stroke="black" stroke-width="1"/>
</svg>