<svg xmlns="http://www.w3.org/2000/svg" width="378" height="221">
  <path d="M 62,146 L 55,153 L 54,153 L 54,157 L 55,158 L 56,158 L 57,159 L 57,161 L 58,162 L 58,163 L 60,163 L 61,164 L 62,164 L 67,169 L 69,169 L 71,171 L 72,171 L 73,170 L 77,174 L 79,172 L 81,174 L 84,174 L 85,173 L 90,173 L 91,174 L 90,175 L 91,175 L 93,173 L 93,172 L 95,170 L 95,167 L 94,166 L 94,165 L 92,163 L 92,161 L 93,160 L 93,159 L 92,158 L 91,158 L 90,157 L 89,157 L 87,155 L 86,155 L 85,154 L 78,154 L 75,151 L 69,151 L 68,150 L 67,150 L 65,148 L 64,148 Z" fill="none" stroke="black" stroke-width="1"/>
</svg>