<svg xmlns="http://www.w3.org/2000/svg" width="378" height="221">
  <path d="M 195,176 L 192,179 L 192,180 L 190,182 L 190,183 L 189,184 L 189,185 L 188,186 L 188,187 L 187,188 L 186,188 L 185,189 L 183,189 L 182,190 L 180,190 L 179,191 L 178,191 L 179,191 L 180,192 L 180,194 L 184,194 L 186,196 L 186,198 L 193,198 L 194,199 L 195,199 L 196,200 L 197,200 L 199,198 L 201,198 L 202,199 L 204,199 L 206,201 L 206,202 L 208,200 L 212,200 L 213,199 L 219,199 L 220,198 L 221,198 L 222,197 L 222,194 L 223,193 L 224,193 L 225,192 L 226,192 L 227,191 L 230,191 L 230,189 L 231,188 L 231,184 L 230,183 L 230,182 L 231,181 L 231,180 L 228,177 L 228,176 L 227,176 L 226,177 L 225,177 L 224,178 L 223,178 L 220,181 L 219,180 L 210,180 L 209,179 L 208,180 L 206,180 L 205,179 L 203,179 L 201,177 L 200,178 L 199,178 L 197,176 Z" fill="none" stroke="black" stroke-width="1"/>
</svg>