<svg xmlns="http://www.w3.org/2000/svg" width="378" height="221">
  <path d="M 153,131 L 153,132 L 152,133 L 151,133 L 150,134 L 150,135 L 148,137 L 147,137 L 144,134 L 142,134 L 141,135 L 140,135 L 138,137 L 137,137 L 136,138 L 135,138 L 135,139 L 134,140 L 134,142 L 131,145 L 131,148 L 133,150 L 133,151 L 135,153 L 135,154 L 136,155 L 135,156 L 136,157 L 140,157 L 141,156 L 142,156 L 143,157 L 144,157 L 145,158 L 146,158 L 147,159 L 148,159 L 149,160 L 150,160 L 151,161 L 155,161 L 156,162 L 157,162 L 158,163 L 160,161 L 161,161 L 162,162 L 162,163 L 165,163 L 167,165 L 169,165 L 170,166 L 170,168 L 172,170 L 172,172 L 173,172 L 174,171 L 175,171 L 179,167 L 181,167 L 185,163 L 186,163 L 187,162 L 188,162 L 189,161 L 189,160 L 190,159 L 189,159 L 188,158 L 187,158 L 186,157 L 185,158 L 184,158 L 183,159 L 182,159 L 180,157 L 180,155 L 178,153 L 174,153 L 173,152 L 173,151 L 172,150 L 172,149 L 170,147 L 170,146 L 169,146 L 168,145 L 168,144 L 167,143 L 167,141 L 165,139 L 164,139 L 163,138 L 162,138 L 161,137 L 160,137 L 157,134 L 156,134 Z" fill="none" stroke="black" stroke-width="1"/>
</svg>