<svg xmlns="http://www.w3.org/2000/svg" width="378" height="221">
  <path d="M 195,109 L 193,111 L 192,111 L 191,112 L 192,113 L 191,114 L 190,114 L 191,115 L 190,116 L 187,116 L 183,120 L 183,121 L 182,122 L 181,122 L 177,126 L 179,128 L 179,130 L 176,133 L 173,133 L 171,131 L 170,131 L 169,132 L 167,132 L 166,133 L 162,133 L 161,134 L 159,134 L 159,135 L 160,136 L 161,136 L 162,137 L 163,137 L 164,138 L 165,138 L 168,141 L 168,143 L 169,144 L 169,145 L 170,145 L 171,146 L 171,147 L 173,149 L 173,150 L 174,151 L 174,152 L 178,152 L 181,155 L 181,157 L 182,158 L 183,158 L 184,157 L 185,157 L 186,156 L 187,157 L 188,157 L 189,158 L 190,158 L 191,159 L 192,159 L 193,158 L 193,156 L 192,155 L 194,153 L 195,153 L 198,150 L 198,149 L 197,148 L 197,147 L 195,145 L 195,143 L 194,142 L 194,139 L 199,134 L 200,134 L 203,131 L 204,131 L 203,130 L 203,128 L 202,127 L 202,126 L 208,120 L 208,117 L 209,116 L 209,115 L 210,114 L 209,113 L 208,113 L 207,112 L 202,112 L 201,111 L 199,111 L 198,110 L 197,110 L 196,109 Z" fill="none" stroke="black" stroke-width="1"/>
</svg>