<svg xmlns="http://www.w3.org/2000/svg" width="378" height="221">
  <path d="M 36,77 L 35,78 L 32,78 L 31,79 L 29,79 L 28,80 L 28,82 L 24,86 L 24,87 L 22,89 L 21,89 L 19,87 L 17,87 L 16,86 L 14,86 L 12,88 L 11,88 L 10,89 L 10,90 L 9,91 L 8,91 L 7,92 L 6,92 L 5,91 L 4,92 L 4,94 L 5,95 L 5,97 L 4,98 L 5,99 L 5,101 L 8,104 L 8,105 L 12,109 L 12,111 L 13,112 L 13,113 L 14,114 L 15,114 L 18,117 L 19,117 L 20,118 L 23,118 L 25,116 L 26,117 L 26,118 L 27,118 L 28,119 L 29,119 L 30,120 L 33,120 L 35,118 L 40,118 L 40,117 L 42,115 L 43,116 L 47,116 L 47,115 L 51,111 L 53,111 L 54,110 L 55,110 L 55,107 L 54,106 L 54,105 L 52,103 L 52,102 L 51,101 L 51,99 L 50,98 L 50,95 L 51,94 L 52,94 L 57,89 L 56,88 L 56,85 L 57,84 L 57,83 L 58,82 L 58,81 L 57,81 L 56,82 L 53,82 L 52,83 L 46,83 L 45,82 L 44,82 L 43,81 L 39,81 L 38,80 L 38,79 Z" fill="none" stroke="black" stroke-width="1"/>
</svg>