<svg xmlns="http://www.w3.org/2000/svg" width="710" height="350">
  <path d="M 276,259 L 272,263 L 268,263 L 265,266 L 265,267 L 268,267 L 269,268 L 269,269 L 271,271 L 271,272 L 272,272 L 274,274 L 275,274 L 276,275 L 276,276 L 277,277 L 281,277 L 282,278 L 282,279 L 283,280 L 283,281 L 284,281 L 285,282 L 285,285 L 287,285 L 289,287 L 289,289 L 290,290 L 291,289 L 292,289 L 292,288 L 294,286 L 296,286 L 297,287 L 298,287 L 299,288 L 300,288 L 300,286 L 301,285 L 301,283 L 302,282 L 302,280 L 303,279 L 303,277 L 301,277 L 298,274 L 297,274 L 296,273 L 295,273 L 294,272 L 291,272 L 290,273 L 289,272 L 289,269 L 290,268 L 290,267 L 291,266 L 291,264 L 290,264 L 289,263 L 289,262 L 288,262 L 287,261 L 285,261 L 284,260 L 284,259 Z" fill="none" stroke="black" stroke-width="1"/>
</svg>