<svg xmlns="http://www.w3.org/2000/svg" width="296" height="251">
  <path d="M 92,18 L 91,19 L 91,20 L 90,21 L 90,22 L 91,23 L 91,24 L 92,25 L 92,28 L 95,31 L 94,32 L 95,33 L 95,34 L 96,35 L 93,38 L 92,38 L 93,39 L 93,41 L 94,42 L 94,45 L 95,46 L 95,47 L 96,48 L 97,48 L 99,50 L 99,51 L 100,52 L 100,53 L 101,52 L 101,51 L 104,48 L 105,48 L 106,47 L 106,46 L 107,45 L 108,45 L 110,43 L 111,43 L 112,42 L 112,41 L 115,38 L 118,38 L 120,36 L 121,36 L 122,35 L 122,34 L 119,31 L 119,30 L 118,29 L 118,28 L 121,25 L 121,24 L 119,24 L 117,22 L 117,21 L 114,21 L 113,20 L 111,20 L 110,19 L 108,19 L 107,18 L 105,20 L 100,20 L 98,18 L 97,19 L 93,19 Z" fill="none" stroke="black" stroke-width="1"/>
</svg>