<svg xmlns="http://www.w3.org/2000/svg" width="225" height="121">
  <path d="M 176,22 L 175,23 L 170,23 L 170,24 L 169,25 L 168,25 L 167,26 L 167,27 L 165,29 L 165,34 L 164,35 L 163,35 L 164,36 L 164,39 L 165,40 L 165,41 L 167,43 L 168,43 L 169,44 L 169,45 L 171,47 L 172,47 L 178,53 L 184,53 L 185,52 L 186,52 L 187,51 L 190,51 L 190,47 L 191,46 L 191,40 L 190,39 L 190,38 L 189,37 L 189,35 L 190,34 L 190,31 L 189,30 L 190,29 L 189,29 L 187,27 L 187,26 L 184,26 L 183,25 L 183,24 L 182,24 L 181,23 L 181,22 Z" fill="none" stroke="black" stroke-width="1"/>
</svg>