<svg xmlns="http://www.w3.org/2000/svg" width="225" height="121">
  <path d="M 187,52 L 186,53 L 185,53 L 184,54 L 178,54 L 176,56 L 175,55 L 174,55 L 173,56 L 172,56 L 173,57 L 173,58 L 172,59 L 172,60 L 171,61 L 171,63 L 167,67 L 167,68 L 168,69 L 168,70 L 169,71 L 168,72 L 169,73 L 169,75 L 170,76 L 171,76 L 171,75 L 172,74 L 174,74 L 175,75 L 175,76 L 177,76 L 178,77 L 179,77 L 180,78 L 180,79 L 181,80 L 182,80 L 184,82 L 185,82 L 186,81 L 188,81 L 189,82 L 189,83 L 190,83 L 191,84 L 192,84 L 194,86 L 195,86 L 196,85 L 195,84 L 195,81 L 196,80 L 195,79 L 194,79 L 193,78 L 193,68 L 194,67 L 194,60 L 193,59 L 193,55 L 192,54 L 192,53 L 191,52 Z" fill="none" stroke="black" stroke-width="1"/>
</svg>