<svg xmlns="http://www.w3.org/2000/svg" width="710" height="350">
  <path d="M 309,248 L 308,249 L 308,251 L 307,252 L 305,252 L 304,253 L 303,253 L 302,254 L 298,254 L 295,251 L 294,251 L 294,254 L 289,259 L 289,261 L 290,262 L 290,263 L 291,263 L 292,264 L 292,266 L 291,267 L 291,268 L 290,269 L 290,272 L 291,271 L 294,271 L 295,272 L 296,272 L 297,273 L 298,273 L 301,276 L 303,276 L 304,275 L 305,275 L 307,273 L 310,273 L 311,274 L 312,274 L 313,275 L 315,273 L 316,273 L 317,272 L 318,272 L 319,273 L 320,273 L 321,274 L 325,274 L 325,273 L 328,270 L 330,270 L 331,269 L 332,269 L 332,268 L 330,266 L 330,264 L 331,263 L 331,261 L 330,260 L 329,260 L 327,262 L 326,262 L 323,259 L 323,258 L 321,258 L 319,256 L 319,254 L 320,253 L 320,252 L 319,252 L 318,251 L 317,251 L 315,249 L 313,249 L 312,248 Z" fill="none" stroke="black" stroke-width="1"/>
</svg>