<svg xmlns="http://www.w3.org/2000/svg" width="225" height="121">
  <path d="M 138,101 L 138,102 L 137,103 L 137,104 L 135,106 L 133,106 L 133,108 L 134,108 L 135,109 L 135,110 L 136,110 L 137,111 L 137,112 L 139,114 L 139,117 L 141,117 L 142,118 L 142,119 L 144,119 L 145,118 L 146,118 L 147,117 L 150,117 L 151,118 L 157,118 L 158,117 L 161,117 L 165,113 L 167,113 L 169,111 L 170,111 L 171,110 L 172,110 L 172,108 L 171,108 L 170,107 L 170,106 L 169,105 L 167,105 L 166,106 L 165,106 L 163,104 L 163,101 L 160,101 L 159,102 L 158,102 L 157,103 L 155,103 L 154,104 L 144,104 L 142,102 L 141,102 L 140,101 Z" fill="none" stroke="black" stroke-width="1"/>
</svg>