<svg xmlns="http://www.w3.org/2000/svg" width="171" height="149">
  <path d="M 115,74 L 114,75 L 112,75 L 112,76 L 111,77 L 103,77 L 102,76 L 97,76 L 97,77 L 96,78 L 96,80 L 102,86 L 102,87 L 101,88 L 101,90 L 102,90 L 103,91 L 103,94 L 102,95 L 104,97 L 104,98 L 105,99 L 105,102 L 108,102 L 109,103 L 110,103 L 111,104 L 112,104 L 113,105 L 113,106 L 115,104 L 116,104 L 117,103 L 117,101 L 114,98 L 114,94 L 115,93 L 115,88 L 116,87 L 116,86 L 117,85 L 117,82 L 120,79 L 117,76 L 117,74 Z" fill="none" stroke="black" stroke-width="1"/>
</svg>