<svg xmlns="http://www.w3.org/2000/svg" width="171" height="149">
  <path d="M 121,79 L 118,82 L 118,85 L 117,86 L 117,87 L 116,88 L 116,93 L 115,94 L 115,98 L 118,101 L 118,103 L 116,105 L 115,105 L 114,106 L 115,106 L 116,107 L 116,108 L 117,108 L 118,109 L 118,110 L 122,110 L 123,109 L 125,109 L 125,108 L 126,107 L 132,107 L 133,108 L 136,108 L 137,109 L 138,109 L 139,110 L 139,111 L 140,111 L 140,110 L 141,109 L 142,109 L 143,108 L 145,108 L 145,107 L 147,105 L 147,100 L 145,98 L 145,95 L 144,94 L 144,92 L 143,91 L 143,90 L 142,89 L 140,89 L 137,86 L 137,85 L 136,85 L 135,84 L 134,84 L 130,80 L 127,80 L 126,79 Z" fill="none" stroke="black" stroke-width="1"/>
</svg>