<svg xmlns="http://www.w3.org/2000/svg" width="171" height="149">
  <path d="M 121,121 L 120,122 L 115,122 L 114,123 L 112,123 L 111,124 L 111,125 L 110,126 L 110,128 L 112,128 L 113,129 L 113,130 L 115,130 L 116,131 L 116,132 L 115,133 L 115,134 L 112,137 L 111,137 L 111,138 L 112,139 L 112,140 L 116,140 L 116,139 L 117,138 L 122,138 L 122,137 L 123,136 L 124,136 L 124,135 L 126,133 L 127,133 L 129,131 L 130,131 L 131,132 L 132,132 L 133,133 L 133,134 L 137,134 L 137,133 L 138,132 L 140,132 L 140,131 L 141,130 L 141,128 L 140,127 L 139,127 L 138,126 L 138,125 L 136,125 L 135,124 L 129,124 L 126,121 Z" fill="none" stroke="black" stroke-width="1"/>
</svg>