<svg xmlns="http://www.w3.org/2000/svg" width="299" height="181">
  <path d="M 61,52 L 59,54 L 58,54 L 57,55 L 57,56 L 56,57 L 55,57 L 55,58 L 54,59 L 49,59 L 49,60 L 48,61 L 46,61 L 47,62 L 47,65 L 45,67 L 44,67 L 45,68 L 45,78 L 46,79 L 46,80 L 54,80 L 54,79 L 55,78 L 59,78 L 59,77 L 60,76 L 61,76 L 63,78 L 64,78 L 67,75 L 67,74 L 68,73 L 70,73 L 71,74 L 76,74 L 77,73 L 77,67 L 79,65 L 79,60 L 78,60 L 74,56 L 73,56 L 72,55 L 72,53 L 70,53 L 70,54 L 69,55 L 65,55 L 64,54 L 64,53 L 63,53 L 62,52 Z" fill="none" stroke="black" stroke-width="1"/>
</svg>