<svg xmlns="http://www.w3.org/2000/svg" width="299" height="181">
  <path d="M 45,85 L 45,86 L 44,87 L 44,88 L 41,91 L 40,91 L 39,92 L 38,92 L 35,95 L 35,96 L 34,97 L 33,97 L 31,95 L 30,95 L 29,96 L 29,97 L 28,98 L 27,98 L 26,99 L 25,99 L 24,100 L 23,100 L 22,99 L 21,99 L 21,100 L 23,102 L 23,106 L 22,107 L 22,109 L 20,111 L 19,111 L 19,112 L 18,113 L 18,114 L 20,116 L 21,116 L 22,117 L 23,117 L 24,118 L 26,118 L 27,119 L 28,119 L 28,118 L 29,117 L 30,117 L 30,116 L 29,115 L 30,114 L 31,114 L 33,112 L 33,111 L 34,110 L 34,109 L 35,108 L 36,108 L 37,109 L 37,108 L 38,107 L 38,105 L 40,103 L 40,101 L 41,100 L 41,97 L 44,94 L 44,93 L 45,92 L 48,92 L 48,91 L 49,90 L 49,87 L 47,85 Z" fill="none" stroke="black" stroke-width="1"/>
</svg>