<svg xmlns="http://www.w3.org/2000/svg" width="299" height="181">
  <path d="M 89,115 L 89,116 L 87,118 L 86,118 L 86,121 L 85,122 L 85,124 L 84,125 L 82,125 L 81,126 L 77,126 L 76,127 L 74,127 L 73,126 L 67,126 L 66,127 L 64,127 L 65,127 L 66,128 L 65,129 L 59,129 L 58,130 L 61,133 L 63,133 L 64,134 L 65,134 L 66,135 L 69,135 L 70,136 L 70,141 L 74,141 L 75,140 L 76,140 L 77,139 L 78,139 L 79,138 L 81,138 L 82,137 L 84,137 L 85,136 L 90,136 L 92,134 L 93,134 L 96,131 L 96,123 L 95,122 L 95,119 L 92,116 L 92,115 Z" fill="none" stroke="black" stroke-width="1"/>
</svg>