<svg xmlns="http://www.w3.org/2000/svg" width="299" height="181">
  <path d="M 112,132 L 111,133 L 110,133 L 109,134 L 109,135 L 106,138 L 105,137 L 102,137 L 102,140 L 101,141 L 101,143 L 100,144 L 100,149 L 101,150 L 106,150 L 107,151 L 113,151 L 114,152 L 114,154 L 116,156 L 116,157 L 117,157 L 118,158 L 121,158 L 122,159 L 124,159 L 125,158 L 126,158 L 129,155 L 131,155 L 132,156 L 135,156 L 136,157 L 138,157 L 139,158 L 140,158 L 140,155 L 141,154 L 142,154 L 142,152 L 141,152 L 140,151 L 140,149 L 138,147 L 138,145 L 137,144 L 138,143 L 137,142 L 136,142 L 135,141 L 135,140 L 134,140 L 133,139 L 133,138 L 129,134 L 128,134 L 127,133 L 121,133 L 120,132 Z" fill="none" stroke="black" stroke-width="1"/>
</svg>