<svg xmlns="http://www.w3.org/2000/svg" width="710" height="350">
  <path d="M 249,175 L 248,176 L 243,176 L 242,177 L 234,177 L 233,178 L 234,179 L 236,179 L 237,180 L 238,180 L 239,181 L 243,181 L 244,182 L 238,188 L 240,188 L 241,189 L 241,195 L 242,196 L 242,197 L 243,198 L 243,199 L 244,200 L 244,201 L 245,202 L 245,204 L 246,205 L 246,207 L 247,208 L 247,210 L 250,213 L 253,213 L 254,212 L 256,212 L 258,210 L 259,210 L 261,212 L 262,212 L 264,214 L 265,214 L 268,217 L 268,218 L 272,218 L 273,219 L 275,219 L 276,220 L 277,220 L 279,218 L 280,218 L 281,217 L 281,216 L 286,211 L 286,210 L 291,205 L 291,204 L 295,200 L 295,199 L 296,198 L 296,196 L 297,195 L 297,193 L 298,192 L 298,189 L 297,188 L 297,187 L 294,184 L 294,182 L 293,182 L 292,183 L 290,183 L 289,182 L 288,182 L 287,181 L 286,181 L 284,179 L 284,178 L 283,178 L 282,177 L 282,176 L 281,175 L 279,175 L 278,176 L 277,176 L 276,177 L 274,177 L 273,178 L 271,178 L 269,176 L 262,176 L 261,175 Z" fill="none" stroke="black" stroke-width="1"/>
</svg>