<svg xmlns="http://www.w3.org/2000/svg" width="299" height="181">
  <path d="M 167,102 L 166,103 L 166,104 L 165,105 L 165,108 L 166,109 L 166,118 L 165,119 L 165,120 L 164,121 L 164,126 L 165,127 L 165,134 L 164,135 L 164,136 L 166,138 L 165,139 L 164,139 L 165,140 L 165,143 L 168,143 L 169,144 L 169,146 L 173,146 L 174,147 L 174,148 L 183,148 L 183,144 L 184,143 L 185,143 L 186,142 L 188,142 L 188,139 L 187,138 L 187,134 L 188,133 L 189,133 L 189,132 L 190,131 L 190,128 L 188,126 L 189,125 L 190,125 L 190,123 L 191,122 L 194,122 L 195,121 L 195,117 L 196,116 L 196,114 L 194,112 L 194,110 L 193,109 L 193,108 L 192,107 L 189,107 L 187,105 L 181,105 L 180,104 L 177,104 L 176,103 L 174,103 L 173,102 Z" fill="none" stroke="black" stroke-width="1"/>
</svg>