<svg xmlns="http://www.w3.org/2000/svg" width="299" height="181">
  <path d="M 208,88 L 207,89 L 206,89 L 205,90 L 204,89 L 203,90 L 201,90 L 200,91 L 199,91 L 197,93 L 196,93 L 196,94 L 195,95 L 195,96 L 193,98 L 192,98 L 192,99 L 191,100 L 191,101 L 190,102 L 190,103 L 189,104 L 188,104 L 188,105 L 189,106 L 192,106 L 194,108 L 194,109 L 195,110 L 195,112 L 197,114 L 197,116 L 196,117 L 197,117 L 198,118 L 198,119 L 200,121 L 208,121 L 209,120 L 210,120 L 210,119 L 211,118 L 213,118 L 213,117 L 214,116 L 215,116 L 217,114 L 219,114 L 220,115 L 221,115 L 223,117 L 223,118 L 224,118 L 225,119 L 227,119 L 228,120 L 229,120 L 230,121 L 230,119 L 229,118 L 229,114 L 227,112 L 227,109 L 226,108 L 226,103 L 221,103 L 220,102 L 219,102 L 218,101 L 218,98 L 219,97 L 219,96 L 218,95 L 217,95 L 216,94 L 215,94 L 214,93 L 214,90 L 213,89 L 212,89 L 211,88 Z" fill="none" stroke="black" stroke-width="1"/>
</svg>