<svg xmlns="http://www.w3.org/2000/svg" width="299" height="181">
  <path d="M 111,46 L 109,48 L 109,49 L 107,51 L 106,51 L 103,54 L 102,54 L 101,55 L 100,55 L 99,56 L 98,56 L 98,61 L 99,62 L 97,64 L 97,65 L 98,66 L 99,66 L 100,67 L 101,67 L 103,69 L 103,70 L 104,71 L 104,72 L 106,74 L 106,77 L 107,78 L 107,80 L 108,81 L 108,82 L 109,83 L 109,85 L 110,86 L 110,87 L 111,88 L 111,89 L 112,90 L 113,89 L 114,89 L 114,83 L 116,81 L 116,80 L 117,79 L 118,79 L 119,78 L 122,78 L 122,77 L 125,74 L 126,74 L 127,73 L 130,73 L 130,71 L 131,70 L 131,69 L 122,69 L 120,67 L 120,66 L 119,65 L 119,64 L 118,63 L 118,62 L 116,60 L 117,59 L 117,57 L 115,57 L 113,55 L 113,54 L 112,53 L 112,48 L 111,47 Z" fill="none" stroke="black" stroke-width="1"/>
</svg>