<svg xmlns="http://www.w3.org/2000/svg" width="216" height="145">
  <path d="M 106,81 L 106,82 L 104,84 L 104,86 L 103,87 L 103,88 L 102,89 L 102,94 L 103,95 L 103,97 L 105,97 L 106,98 L 107,98 L 109,100 L 109,101 L 110,102 L 110,104 L 109,105 L 109,106 L 110,107 L 111,107 L 112,108 L 113,108 L 114,107 L 114,105 L 120,99 L 121,99 L 122,98 L 124,98 L 125,97 L 127,97 L 128,96 L 129,96 L 130,95 L 132,95 L 132,92 L 131,91 L 130,91 L 128,89 L 128,86 L 127,87 L 125,87 L 124,86 L 122,86 L 121,85 L 119,85 L 117,87 L 116,86 L 114,86 L 113,85 L 111,85 L 108,82 L 108,81 Z" fill="none" stroke="black" stroke-width="1"/>
</svg>