<svg xmlns="http://www.w3.org/2000/svg" width="216" height="145">
  <path d="M 144,51 L 144,52 L 143,53 L 142,53 L 141,54 L 142,55 L 142,57 L 141,58 L 141,59 L 142,60 L 142,61 L 140,63 L 140,64 L 143,64 L 144,65 L 144,66 L 145,66 L 146,67 L 148,67 L 149,68 L 149,69 L 149,68 L 151,66 L 152,66 L 153,65 L 153,64 L 154,63 L 154,62 L 155,61 L 155,60 L 156,59 L 156,58 L 155,58 L 154,57 L 154,56 L 153,56 L 152,55 L 150,55 L 149,54 L 149,52 L 148,51 Z" fill="none" stroke="black" stroke-width="1"/>
</svg>