<svg xmlns="http://www.w3.org/2000/svg" width="710" height="350">
  <path d="M 292,103 L 292,106 L 291,107 L 291,109 L 290,110 L 290,111 L 288,113 L 288,114 L 287,115 L 287,117 L 290,120 L 290,121 L 289,122 L 286,122 L 285,121 L 285,120 L 284,120 L 283,119 L 282,119 L 277,114 L 271,114 L 270,115 L 268,115 L 267,116 L 264,116 L 263,117 L 262,117 L 263,118 L 263,126 L 264,127 L 264,129 L 265,130 L 264,131 L 264,133 L 265,133 L 267,135 L 267,140 L 268,141 L 269,141 L 270,142 L 271,142 L 273,144 L 274,144 L 275,145 L 275,147 L 276,148 L 276,149 L 277,150 L 279,150 L 280,151 L 284,151 L 285,152 L 286,152 L 288,154 L 288,157 L 289,158 L 289,160 L 290,160 L 291,161 L 291,162 L 292,163 L 293,163 L 294,164 L 294,165 L 295,166 L 295,174 L 296,175 L 296,177 L 297,178 L 300,178 L 301,177 L 312,177 L 313,178 L 317,178 L 318,179 L 319,178 L 322,178 L 323,177 L 325,177 L 331,171 L 331,170 L 332,169 L 332,168 L 333,167 L 333,163 L 331,161 L 331,159 L 332,158 L 332,156 L 334,154 L 334,153 L 335,152 L 335,150 L 336,149 L 336,147 L 337,146 L 337,143 L 338,142 L 338,135 L 337,134 L 337,130 L 336,129 L 336,127 L 335,126 L 335,125 L 334,124 L 334,123 L 333,122 L 333,119 L 332,118 L 332,112 L 330,110 L 330,109 L 329,109 L 328,108 L 327,108 L 326,107 L 325,107 L 324,106 L 323,106 L 321,108 L 319,108 L 318,107 L 315,107 L 314,106 L 313,106 L 312,105 L 311,105 L 310,104 L 297,104 L 296,103 Z" fill="none" stroke="black" stroke-width="1"/>
</svg>