<svg xmlns="http://www.w3.org/2000/svg" width="216" height="145">
  <path d="M 134,29 L 133,30 L 130,30 L 129,31 L 129,33 L 128,34 L 127,34 L 126,35 L 123,35 L 122,34 L 122,33 L 120,33 L 119,32 L 119,34 L 118,35 L 118,40 L 117,41 L 117,42 L 115,44 L 115,48 L 118,48 L 120,50 L 121,50 L 122,49 L 124,49 L 125,48 L 128,48 L 128,47 L 129,46 L 130,46 L 131,47 L 131,43 L 130,42 L 130,41 L 131,40 L 131,39 L 134,36 L 135,36 L 135,35 L 136,34 L 137,34 L 138,33 L 136,31 L 136,30 L 135,29 Z" fill="none" stroke="black" stroke-width="1"/>
</svg>