<svg xmlns="http://www.w3.org/2000/svg" width="710" height="350">
  <path d="M 375,200 L 375,201 L 374,202 L 372,202 L 369,205 L 368,204 L 366,204 L 365,205 L 365,206 L 361,210 L 360,210 L 359,211 L 356,211 L 355,212 L 354,212 L 351,215 L 350,215 L 349,216 L 348,216 L 347,217 L 346,217 L 346,219 L 343,222 L 342,222 L 341,223 L 341,224 L 340,225 L 339,225 L 339,231 L 338,232 L 336,232 L 335,231 L 334,231 L 332,229 L 331,229 L 329,227 L 331,225 L 331,223 L 330,222 L 329,222 L 329,223 L 328,224 L 328,226 L 327,227 L 327,229 L 326,230 L 326,239 L 325,240 L 325,244 L 327,246 L 330,246 L 332,248 L 333,248 L 334,249 L 335,249 L 337,251 L 337,252 L 339,250 L 339,249 L 340,248 L 341,248 L 342,247 L 344,247 L 345,246 L 346,246 L 347,245 L 348,245 L 349,244 L 349,242 L 350,241 L 351,241 L 354,238 L 362,238 L 364,236 L 364,234 L 367,231 L 369,231 L 369,230 L 370,229 L 372,229 L 372,228 L 374,226 L 374,221 L 376,219 L 377,219 L 378,218 L 379,218 L 380,217 L 380,215 L 379,214 L 379,213 L 378,212 L 378,211 L 379,210 L 379,204 L 380,203 L 380,202 L 379,202 L 378,201 L 377,201 L 376,200 Z" fill="none" stroke="black" stroke-width="1"/>
</svg>