<svg xmlns="http://www.w3.org/2000/svg" width="762" height="285">
  <path d="M 172,196 L 171,197 L 169,197 L 169,198 L 170,198 L 171,199 L 172,198 Z" fill="none" stroke="black" stroke-width="1"/>
  <path d="M 182,190 L 182,192 L 183,193 L 184,192 L 185,192 L 185,191 L 184,191 L 183,190 Z" fill="none" stroke="black" stroke-width="1"/>
  <path d="M 197,184 L 195,186 L 194,186 L 193,187 L 189,187 L 189,189 L 191,191 L 191,192 L 192,193 L 193,192 L 194,192 L 196,190 L 196,187 L 198,185 L 199,185 L 199,184 Z" fill="none" stroke="black" stroke-width="1"/>
  <path d="M 172,179 L 172,180 L 173,181 L 173,183 L 174,184 L 174,183 L 175,182 L 175,179 Z" fill="none" stroke="black" stroke-width="1"/>
</svg>