<svg xmlns="http://www.w3.org/2000/svg" width="762" height="285">
  <path d="M 589,42 L 588,43 L 587,43 L 586,44 L 586,46 L 587,47 L 587,49 L 588,50 L 589,50 L 592,53 L 592,54 L 593,54 L 594,55 L 594,58 L 597,61 L 597,62 L 598,62 L 600,64 L 600,65 L 599,66 L 599,69 L 602,72 L 603,72 L 604,73 L 605,73 L 606,74 L 607,74 L 608,75 L 610,73 L 611,73 L 612,72 L 612,71 L 613,70 L 613,68 L 612,68 L 609,65 L 609,61 L 607,59 L 606,59 L 605,58 L 605,51 L 602,48 L 602,45 L 600,45 L 598,43 L 598,42 Z" fill="none" stroke="black" stroke-width="1"/>
</svg>