<svg xmlns="http://www.w3.org/2000/svg" width="762" height="285">
  <path d="M 648,124 L 647,125 L 646,125 L 645,126 L 639,126 L 638,127 L 633,127 L 633,135 L 626,142 L 625,142 L 622,145 L 621,145 L 615,151 L 614,151 L 614,156 L 613,157 L 613,160 L 614,161 L 615,161 L 617,163 L 618,163 L 620,165 L 620,167 L 621,168 L 621,169 L 623,171 L 624,171 L 625,172 L 625,173 L 629,177 L 629,178 L 630,179 L 630,180 L 631,181 L 631,183 L 632,184 L 632,186 L 633,187 L 633,188 L 634,189 L 634,194 L 635,194 L 635,193 L 637,191 L 642,191 L 643,190 L 645,190 L 646,189 L 646,188 L 649,185 L 652,185 L 654,183 L 654,182 L 655,181 L 655,179 L 657,177 L 659,177 L 659,176 L 660,175 L 660,174 L 661,173 L 661,168 L 662,167 L 662,166 L 663,165 L 664,165 L 665,164 L 667,164 L 669,162 L 669,160 L 668,159 L 668,158 L 670,156 L 670,155 L 671,154 L 671,153 L 669,151 L 664,151 L 663,150 L 662,150 L 661,149 L 661,144 L 665,140 L 665,135 L 666,134 L 666,133 L 668,131 L 669,131 L 667,129 L 667,128 L 666,128 L 664,126 L 655,126 L 654,125 L 653,125 L 652,124 Z" fill="none" stroke="black" stroke-width="1"/>
</svg>