<svg xmlns="http://www.w3.org/2000/svg" width="762" height="285">
  <path d="M 344,120 L 344,123 L 342,125 L 340,125 L 340,126 L 338,128 L 338,130 L 340,130 L 341,131 L 340,132 L 340,133 L 341,134 L 341,135 L 343,137 L 344,137 L 345,138 L 345,140 L 346,141 L 347,141 L 348,140 L 349,140 L 349,139 L 350,138 L 351,138 L 352,137 L 355,137 L 356,136 L 358,136 L 359,137 L 361,137 L 362,136 L 362,134 L 363,133 L 367,133 L 367,131 L 365,129 L 362,129 L 359,126 L 355,126 L 354,125 L 353,125 L 352,126 L 351,125 L 351,123 L 349,121 L 349,120 Z" fill="none" stroke="black" stroke-width="1"/>
</svg>