<svg xmlns="http://www.w3.org/2000/svg" width="710" height="350">
  <path d="M 387,243 L 387,245 L 386,246 L 384,246 L 384,248 L 383,249 L 377,249 L 376,248 L 374,248 L 373,249 L 372,249 L 372,250 L 370,252 L 372,254 L 372,255 L 374,257 L 372,259 L 371,259 L 369,261 L 368,261 L 367,262 L 367,264 L 366,265 L 365,265 L 363,267 L 361,267 L 360,268 L 356,268 L 355,269 L 354,269 L 354,271 L 353,272 L 351,272 L 350,273 L 350,275 L 351,276 L 351,279 L 355,279 L 356,278 L 366,278 L 367,277 L 370,277 L 372,279 L 372,280 L 373,281 L 379,281 L 380,282 L 384,282 L 386,284 L 392,284 L 393,285 L 393,286 L 394,286 L 395,285 L 395,284 L 396,283 L 396,281 L 397,280 L 396,279 L 396,278 L 394,276 L 394,274 L 393,273 L 393,272 L 392,271 L 392,270 L 391,269 L 391,267 L 392,266 L 393,266 L 394,267 L 395,267 L 397,265 L 397,264 L 398,263 L 398,261 L 399,260 L 400,260 L 401,259 L 402,259 L 403,258 L 408,258 L 408,257 L 407,257 L 406,256 L 405,256 L 404,255 L 403,255 L 400,252 L 396,252 L 395,251 L 395,249 L 391,249 L 390,248 L 390,245 L 388,243 Z" fill="none" stroke="black" stroke-width="1"/>
</svg>