<svg xmlns="http://www.w3.org/2000/svg" width="248" height="234">
  <path d="M 121,146 L 121,148 L 119,150 L 119,151 L 120,152 L 120,153 L 121,154 L 122,154 L 124,156 L 125,156 L 126,157 L 128,157 L 133,162 L 133,164 L 134,165 L 134,168 L 135,168 L 138,165 L 139,165 L 139,164 L 140,163 L 140,158 L 141,157 L 141,154 L 140,153 L 139,153 L 137,151 L 136,151 L 135,150 L 135,149 L 134,149 L 132,147 L 129,147 L 128,148 L 125,148 L 124,147 L 123,147 L 122,146 Z" fill="none" stroke="black" stroke-width="1"/>
</svg>