<svg xmlns="http://www.w3.org/2000/svg" width="248" height="234">
  <path d="M 105,173 L 105,175 L 106,176 L 106,177 L 107,178 L 107,183 L 108,184 L 109,184 L 110,185 L 111,185 L 113,187 L 115,187 L 116,188 L 122,188 L 123,189 L 124,189 L 125,190 L 125,191 L 126,192 L 128,192 L 128,189 L 129,188 L 129,186 L 128,185 L 128,184 L 127,183 L 127,181 L 126,181 L 125,180 L 124,181 L 122,181 L 121,180 L 118,180 L 116,178 L 115,178 L 111,174 L 109,174 L 108,173 Z" fill="none" stroke="black" stroke-width="1"/>
</svg>