<svg xmlns="http://www.w3.org/2000/svg" width="304" height="349">
  <path d="M 153,183 L 152,184 L 149,184 L 147,186 L 146,186 L 147,187 L 147,190 L 148,191 L 148,194 L 149,195 L 152,195 L 155,198 L 156,198 L 158,200 L 161,200 L 161,199 L 162,198 L 163,198 L 164,199 L 165,199 L 166,200 L 167,200 L 168,201 L 168,204 L 171,204 L 172,205 L 175,205 L 177,207 L 177,209 L 178,209 L 178,208 L 179,207 L 180,207 L 181,206 L 185,206 L 189,202 L 192,202 L 192,201 L 190,201 L 189,200 L 187,200 L 185,198 L 183,198 L 182,197 L 181,197 L 180,196 L 179,196 L 178,195 L 177,195 L 175,193 L 174,193 L 173,192 L 171,192 L 170,191 L 169,191 L 168,190 L 166,190 L 164,188 L 163,188 L 161,186 L 159,186 L 156,183 Z" fill="none" stroke="black" stroke-width="1"/>
</svg>