<svg xmlns="http://www.w3.org/2000/svg" width="248" height="234">
  <path d="M 87,170 L 87,171 L 85,173 L 85,174 L 83,176 L 83,177 L 82,178 L 82,179 L 83,179 L 84,180 L 85,180 L 92,187 L 92,188 L 94,190 L 95,190 L 96,191 L 100,191 L 101,192 L 102,192 L 103,193 L 104,193 L 104,189 L 105,188 L 106,188 L 107,187 L 108,187 L 109,186 L 109,185 L 108,185 L 106,183 L 105,183 L 100,178 L 98,178 L 97,177 L 97,175 L 96,175 L 96,176 L 94,178 L 93,178 L 91,176 L 90,176 L 89,175 L 89,174 L 88,173 L 89,172 L 89,171 L 88,170 Z" fill="none" stroke="black" stroke-width="1"/>
</svg>