<svg xmlns="http://www.w3.org/2000/svg" width="710" height="350">
  <path d="M 410,138 L 405,143 L 404,143 L 403,144 L 402,144 L 402,145 L 401,146 L 400,146 L 398,148 L 397,148 L 396,149 L 395,149 L 392,152 L 391,152 L 389,154 L 388,154 L 387,155 L 385,155 L 384,156 L 383,156 L 382,157 L 381,157 L 380,158 L 378,158 L 376,160 L 375,160 L 374,161 L 373,161 L 371,163 L 370,163 L 369,164 L 369,165 L 367,167 L 367,173 L 368,174 L 368,176 L 370,178 L 370,179 L 372,181 L 373,181 L 375,183 L 375,184 L 377,186 L 378,186 L 379,187 L 379,188 L 380,189 L 380,190 L 386,190 L 387,189 L 391,189 L 392,190 L 397,190 L 401,194 L 402,193 L 403,193 L 404,192 L 407,192 L 408,191 L 409,191 L 410,190 L 412,190 L 413,189 L 415,189 L 415,188 L 416,187 L 416,186 L 418,184 L 421,184 L 422,183 L 423,183 L 424,182 L 429,182 L 430,183 L 431,183 L 432,184 L 432,176 L 433,175 L 433,174 L 434,173 L 435,173 L 437,171 L 438,171 L 438,168 L 439,167 L 437,167 L 436,166 L 435,166 L 434,165 L 430,165 L 429,164 L 427,164 L 421,158 L 421,157 L 420,157 L 417,154 L 417,153 L 416,152 L 416,151 L 414,149 L 414,142 L 413,141 L 413,140 L 412,139 L 411,139 Z" fill="none" stroke="black" stroke-width="1"/>
</svg>