<svg xmlns="http://www.w3.org/2000/svg" width="196" height="218">
  <path d="M 24,77 L 23,78 L 22,78 L 22,80 L 23,81 L 23,82 L 24,83 L 25,83 L 27,85 L 27,86 L 29,88 L 29,89 L 31,91 L 31,92 L 32,93 L 32,94 L 34,94 L 35,95 L 38,95 L 44,101 L 44,102 L 47,102 L 47,101 L 49,99 L 49,98 L 50,97 L 50,94 L 52,92 L 52,91 L 51,90 L 51,88 L 50,88 L 47,85 L 45,85 L 44,84 L 43,84 L 42,83 L 40,83 L 39,82 L 38,82 L 37,81 L 35,81 L 34,80 L 32,80 L 31,79 L 30,79 L 29,78 L 28,78 L 27,77 Z" fill="none" stroke="black" stroke-width="1"/>
</svg>