<svg xmlns="http://www.w3.org/2000/svg" width="710" height="350">
  <path d="M 376,225 L 373,228 L 373,229 L 372,230 L 370,230 L 370,231 L 369,232 L 367,232 L 365,234 L 365,236 L 363,238 L 364,238 L 365,239 L 365,240 L 364,241 L 365,242 L 367,242 L 369,244 L 370,243 L 372,243 L 374,245 L 374,247 L 376,247 L 377,248 L 383,248 L 383,246 L 384,245 L 386,245 L 386,243 L 387,242 L 388,242 L 391,245 L 391,248 L 395,248 L 396,249 L 396,251 L 400,251 L 403,254 L 404,254 L 405,255 L 406,255 L 407,256 L 408,256 L 409,257 L 411,255 L 409,253 L 411,251 L 411,248 L 414,245 L 414,244 L 419,239 L 419,238 L 420,237 L 420,236 L 419,235 L 419,234 L 417,232 L 414,232 L 412,230 L 407,230 L 406,229 L 406,228 L 401,228 L 399,230 L 384,230 L 383,229 L 383,228 L 382,227 L 380,227 L 379,226 L 379,225 Z" fill="none" stroke="black" stroke-width="1"/>
</svg>