<svg xmlns="http://www.w3.org/2000/svg" width="196" height="218">
  <path d="M 158,139 L 157,140 L 156,140 L 154,142 L 153,142 L 152,143 L 152,145 L 153,146 L 153,147 L 154,148 L 151,151 L 150,150 L 149,150 L 149,152 L 150,153 L 150,154 L 151,155 L 151,156 L 152,156 L 154,158 L 154,159 L 155,160 L 159,160 L 160,161 L 161,161 L 162,162 L 162,164 L 164,166 L 169,166 L 170,167 L 170,168 L 172,168 L 173,167 L 173,166 L 175,164 L 176,164 L 176,163 L 175,162 L 175,161 L 174,161 L 173,160 L 174,159 L 174,157 L 175,156 L 175,152 L 174,151 L 174,149 L 167,142 L 167,140 L 165,140 L 164,139 Z" fill="none" stroke="black" stroke-width="1"/>
</svg>