<svg xmlns="http://www.w3.org/2000/svg" width="196" height="218">
  <path d="M 118,96 L 115,99 L 115,100 L 113,102 L 112,102 L 111,103 L 110,103 L 108,105 L 108,106 L 107,107 L 107,108 L 108,109 L 108,110 L 109,111 L 109,113 L 110,114 L 106,118 L 106,119 L 108,121 L 108,122 L 109,122 L 110,121 L 113,121 L 113,120 L 114,119 L 115,119 L 116,118 L 119,118 L 120,117 L 120,116 L 121,115 L 122,115 L 123,114 L 124,114 L 126,112 L 127,112 L 128,111 L 130,111 L 132,109 L 131,108 L 133,106 L 133,105 L 135,103 L 135,102 L 134,102 L 133,101 L 133,99 L 134,98 L 134,97 L 132,97 L 131,96 L 130,97 L 122,97 L 121,96 Z" fill="none" stroke="black" stroke-width="1"/>
</svg>