<svg xmlns="http://www.w3.org/2000/svg" width="491" height="213">
  <path d="M 90,66 L 89,67 L 89,71 L 90,72 L 90,75 L 88,77 L 87,77 L 87,80 L 86,81 L 85,80 L 83,80 L 81,82 L 81,85 L 82,85 L 83,86 L 83,89 L 85,91 L 86,91 L 88,93 L 88,97 L 86,99 L 86,101 L 89,104 L 89,106 L 90,107 L 94,107 L 95,108 L 96,108 L 97,107 L 98,107 L 102,103 L 104,103 L 105,102 L 105,101 L 104,100 L 102,100 L 100,98 L 100,95 L 99,94 L 99,88 L 103,84 L 103,82 L 101,82 L 100,81 L 100,80 L 99,79 L 99,78 L 98,78 L 94,74 L 94,71 L 95,70 L 93,68 L 93,67 L 92,66 Z" fill="none" stroke="black" stroke-width="1"/>
</svg>