<svg xmlns="http://www.w3.org/2000/svg" width="196" height="218">
  <path d="M 160,176 L 160,177 L 162,179 L 162,180 L 166,184 L 169,184 L 171,186 L 171,189 L 172,189 L 173,190 L 173,191 L 174,192 L 177,192 L 183,198 L 184,197 L 185,197 L 186,198 L 188,198 L 190,200 L 190,201 L 193,201 L 195,199 L 194,198 L 193,198 L 191,196 L 190,196 L 186,192 L 186,191 L 185,191 L 184,190 L 184,189 L 183,189 L 182,188 L 182,187 L 180,185 L 180,184 L 178,182 L 178,181 L 177,180 L 177,177 L 176,176 L 175,176 L 175,177 L 174,178 L 170,178 L 169,177 L 168,177 L 167,176 Z" fill="none" stroke="black" stroke-width="1"/>
</svg>