<svg xmlns="http://www.w3.org/2000/svg" width="491" height="213">
  <path d="M 109,49 L 108,50 L 107,50 L 107,51 L 106,52 L 106,53 L 105,54 L 105,55 L 103,57 L 102,57 L 98,61 L 96,61 L 95,62 L 97,64 L 97,70 L 98,71 L 96,73 L 95,73 L 95,74 L 98,77 L 99,77 L 100,78 L 100,79 L 101,80 L 101,81 L 111,81 L 111,80 L 113,78 L 113,77 L 115,75 L 117,75 L 122,70 L 123,70 L 123,64 L 122,64 L 121,63 L 120,63 L 117,60 L 117,58 L 118,57 L 118,53 L 116,51 L 116,50 L 115,49 Z" fill="none" stroke="black" stroke-width="1"/>
</svg>