<svg xmlns="http://www.w3.org/2000/svg" width="491" height="213">
  <path d="M 130,50 L 130,51 L 129,52 L 129,54 L 128,55 L 128,60 L 124,64 L 124,70 L 125,70 L 126,71 L 126,72 L 128,74 L 128,75 L 129,76 L 129,78 L 132,81 L 132,86 L 133,87 L 134,87 L 136,89 L 137,89 L 138,90 L 139,90 L 139,89 L 140,88 L 141,88 L 141,79 L 142,78 L 141,77 L 141,76 L 143,74 L 143,71 L 142,70 L 142,69 L 143,68 L 144,68 L 144,61 L 142,61 L 141,60 L 141,59 L 140,58 L 140,55 L 137,55 L 136,54 L 136,52 L 134,52 L 133,51 L 133,50 Z" fill="none" stroke="black" stroke-width="1"/>
</svg>