<svg xmlns="http://www.w3.org/2000/svg" width="710" height="350">
  <path d="M 499,124 L 498,125 L 496,125 L 496,126 L 493,129 L 492,129 L 492,130 L 490,132 L 490,133 L 489,134 L 489,135 L 488,136 L 475,136 L 473,138 L 473,139 L 471,141 L 471,142 L 470,143 L 470,144 L 468,146 L 468,149 L 467,150 L 467,152 L 466,153 L 465,153 L 464,152 L 464,151 L 460,151 L 459,152 L 458,152 L 457,153 L 454,153 L 449,158 L 448,158 L 447,159 L 445,159 L 444,160 L 442,160 L 441,161 L 441,164 L 440,165 L 440,167 L 439,168 L 439,171 L 438,172 L 437,172 L 435,174 L 434,174 L 434,175 L 433,176 L 433,181 L 438,186 L 440,186 L 441,187 L 449,187 L 450,188 L 452,188 L 453,189 L 457,189 L 457,188 L 458,187 L 460,187 L 461,188 L 464,188 L 465,187 L 466,187 L 467,186 L 472,186 L 473,187 L 479,187 L 480,188 L 495,188 L 496,189 L 497,189 L 498,190 L 502,190 L 503,189 L 505,191 L 504,192 L 505,193 L 506,193 L 507,194 L 507,195 L 508,196 L 511,196 L 512,195 L 513,196 L 515,196 L 516,197 L 517,197 L 518,198 L 518,199 L 519,200 L 519,201 L 520,201 L 520,199 L 519,198 L 520,197 L 519,196 L 519,194 L 518,193 L 519,192 L 519,191 L 521,189 L 523,189 L 524,188 L 525,188 L 524,188 L 522,186 L 523,185 L 524,185 L 526,183 L 527,183 L 528,184 L 529,183 L 528,182 L 528,178 L 527,177 L 527,176 L 526,175 L 526,174 L 525,173 L 525,171 L 524,170 L 524,169 L 523,168 L 523,167 L 522,166 L 522,160 L 521,159 L 521,158 L 522,157 L 522,156 L 524,154 L 524,153 L 522,153 L 521,152 L 519,152 L 518,153 L 517,153 L 514,150 L 516,148 L 517,148 L 518,147 L 523,147 L 524,146 L 525,146 L 526,145 L 529,145 L 529,143 L 528,142 L 528,141 L 530,139 L 530,138 L 529,137 L 526,137 L 525,136 L 524,136 L 521,133 L 520,133 L 518,131 L 517,131 L 515,129 L 514,129 L 513,128 L 511,128 L 510,127 L 509,127 L 508,126 L 507,126 L 506,125 L 503,125 L 502,124 Z" fill="none" stroke="black" stroke-width="1"/>
</svg>