<svg xmlns="http://www.w3.org/2000/svg" width="491" height="213">
  <path d="M 149,23 L 149,24 L 147,26 L 147,30 L 142,35 L 142,36 L 141,37 L 141,40 L 142,41 L 142,44 L 141,45 L 141,47 L 140,48 L 140,51 L 139,52 L 139,54 L 140,54 L 141,55 L 141,58 L 142,59 L 142,60 L 146,60 L 148,58 L 149,58 L 149,57 L 152,54 L 152,52 L 153,51 L 153,49 L 152,49 L 151,48 L 151,47 L 155,43 L 155,34 L 156,33 L 156,30 L 159,27 L 159,25 L 158,25 L 157,24 L 154,24 L 153,23 Z" fill="none" stroke="black" stroke-width="1"/>
</svg>