<svg xmlns="http://www.w3.org/2000/svg" width="491" height="213">
  <path d="M 153,52 L 153,54 L 150,57 L 150,58 L 149,59 L 148,59 L 146,61 L 145,61 L 145,68 L 144,69 L 143,69 L 143,70 L 144,71 L 144,74 L 142,76 L 142,77 L 143,78 L 144,78 L 145,79 L 146,79 L 147,80 L 148,80 L 150,82 L 150,83 L 151,84 L 151,85 L 152,86 L 154,86 L 155,87 L 157,87 L 159,89 L 160,88 L 162,88 L 162,87 L 160,85 L 160,83 L 159,82 L 159,81 L 158,80 L 158,76 L 157,75 L 157,72 L 156,71 L 156,69 L 158,67 L 158,66 L 159,65 L 160,65 L 161,64 L 162,64 L 162,63 L 161,63 L 160,62 L 160,60 L 159,59 L 159,58 L 158,57 L 158,55 L 155,52 Z" fill="none" stroke="black" stroke-width="1"/>
</svg>