<svg xmlns="http://www.w3.org/2000/svg" width="491" height="213">
  <path d="M 142,79 L 142,88 L 141,89 L 140,89 L 140,91 L 139,92 L 138,92 L 138,93 L 137,94 L 135,94 L 135,96 L 134,97 L 133,97 L 133,99 L 132,100 L 132,102 L 135,105 L 136,105 L 137,106 L 138,106 L 138,105 L 142,101 L 143,101 L 145,103 L 150,103 L 155,98 L 156,98 L 158,96 L 158,95 L 159,94 L 159,91 L 158,90 L 158,89 L 157,88 L 155,88 L 154,87 L 152,87 L 150,85 L 150,84 L 149,83 L 149,82 L 148,81 L 147,81 L 146,80 L 145,80 L 144,79 Z" fill="none" stroke="black" stroke-width="1"/>
</svg>