<svg xmlns="http://www.w3.org/2000/svg" width="491" height="213">
  <path d="M 74,159 L 73,160 L 70,160 L 68,162 L 68,163 L 67,164 L 68,165 L 68,166 L 69,167 L 69,170 L 68,171 L 66,171 L 65,170 L 64,170 L 62,172 L 62,173 L 64,173 L 67,176 L 68,176 L 69,177 L 70,177 L 71,178 L 71,181 L 72,182 L 73,182 L 75,184 L 77,184 L 78,185 L 81,185 L 82,186 L 83,186 L 87,190 L 87,192 L 88,193 L 92,193 L 92,192 L 94,190 L 94,187 L 93,186 L 93,179 L 92,179 L 90,177 L 90,176 L 89,175 L 89,174 L 88,173 L 87,173 L 86,172 L 84,172 L 83,171 L 83,166 L 82,165 L 80,165 L 79,164 L 77,164 L 76,163 L 76,160 L 75,160 Z" fill="none" stroke="black" stroke-width="1"/>
</svg>