<svg xmlns="http://www.w3.org/2000/svg" width="491" height="213">
  <path d="M 95,177 L 94,178 L 94,186 L 95,187 L 95,190 L 93,192 L 93,193 L 94,194 L 99,194 L 101,196 L 101,198 L 105,198 L 106,199 L 106,200 L 107,200 L 108,201 L 108,202 L 110,202 L 111,203 L 111,204 L 116,204 L 117,205 L 117,206 L 119,206 L 120,205 L 121,205 L 122,206 L 122,207 L 127,207 L 128,208 L 128,209 L 130,211 L 132,211 L 133,212 L 135,212 L 135,210 L 136,209 L 136,207 L 126,197 L 124,197 L 121,194 L 121,193 L 120,192 L 120,191 L 119,190 L 118,190 L 115,187 L 114,187 L 113,186 L 112,186 L 109,183 L 107,183 L 106,182 L 105,182 L 103,180 L 103,178 L 96,178 Z" fill="none" stroke="black" stroke-width="1"/>
</svg>