<svg xmlns="http://www.w3.org/2000/svg" width="258" height="263">
  <path d="M 110,139 L 106,143 L 105,143 L 103,141 L 100,141 L 100,143 L 99,144 L 99,146 L 98,147 L 98,151 L 95,154 L 95,155 L 92,158 L 91,158 L 90,159 L 90,160 L 91,161 L 91,164 L 93,166 L 93,167 L 95,169 L 95,170 L 96,171 L 96,173 L 95,174 L 96,174 L 99,177 L 100,177 L 102,179 L 102,182 L 105,182 L 106,181 L 107,181 L 111,177 L 112,177 L 113,176 L 113,175 L 114,174 L 114,172 L 116,170 L 116,168 L 115,167 L 115,166 L 114,165 L 114,163 L 115,162 L 115,161 L 118,158 L 118,157 L 122,153 L 122,151 L 121,150 L 121,149 L 119,147 L 119,143 L 117,141 L 115,141 L 114,140 L 112,140 L 111,139 Z" fill="none" stroke="black" stroke-width="1"/>
</svg>