<svg xmlns="http://www.w3.org/2000/svg" width="491" height="213">
  <path d="M 127,118 L 126,119 L 124,119 L 124,120 L 121,123 L 120,123 L 120,125 L 119,126 L 119,127 L 118,128 L 118,129 L 114,133 L 114,135 L 113,136 L 111,136 L 111,138 L 110,139 L 110,143 L 109,144 L 109,145 L 108,146 L 108,147 L 109,148 L 109,149 L 107,151 L 107,152 L 110,152 L 113,149 L 114,149 L 118,145 L 118,143 L 120,141 L 121,141 L 122,142 L 122,145 L 123,145 L 127,141 L 127,139 L 129,137 L 129,136 L 130,135 L 130,134 L 129,133 L 129,130 L 130,129 L 130,122 L 131,121 L 131,120 L 132,119 L 132,118 Z" fill="none" stroke="black" stroke-width="1"/>
</svg>