<svg xmlns="http://www.w3.org/2000/svg" width="491" height="213">
  <path d="M 189,103 L 188,104 L 181,104 L 180,105 L 178,105 L 177,104 L 170,104 L 169,105 L 165,105 L 165,107 L 164,108 L 164,110 L 162,112 L 161,112 L 160,113 L 158,113 L 155,116 L 155,118 L 154,119 L 154,123 L 156,125 L 156,126 L 159,126 L 160,125 L 163,125 L 164,124 L 166,124 L 167,123 L 168,123 L 169,122 L 171,122 L 172,123 L 173,123 L 174,124 L 181,124 L 184,121 L 184,120 L 186,118 L 186,117 L 188,115 L 189,115 L 195,109 L 197,109 L 198,108 L 200,108 L 201,107 L 201,105 L 197,105 L 196,104 L 195,104 L 194,103 Z" fill="none" stroke="black" stroke-width="1"/>
</svg>