<svg xmlns="http://www.w3.org/2000/svg" width="491" height="213">
  <path d="M 203,27 L 202,28 L 196,28 L 195,29 L 194,29 L 194,30 L 193,31 L 192,31 L 192,32 L 195,35 L 195,36 L 196,37 L 196,39 L 195,40 L 196,41 L 198,41 L 199,42 L 200,42 L 201,43 L 203,43 L 204,44 L 207,44 L 208,45 L 209,45 L 210,44 L 211,44 L 211,43 L 212,42 L 213,42 L 214,41 L 216,41 L 218,39 L 219,39 L 219,36 L 221,34 L 222,34 L 222,31 L 220,29 L 219,29 L 218,28 L 212,28 L 211,27 Z" fill="none" stroke="black" stroke-width="1"/>
</svg>