<svg xmlns="http://www.w3.org/2000/svg" width="491" height="213">
  <path d="M 158,42 L 157,43 L 156,43 L 152,47 L 152,48 L 153,48 L 154,49 L 154,51 L 155,51 L 159,55 L 159,57 L 160,58 L 160,59 L 161,60 L 161,62 L 162,62 L 163,63 L 163,64 L 169,64 L 170,63 L 172,63 L 173,62 L 174,62 L 175,61 L 178,61 L 179,60 L 179,59 L 180,58 L 181,58 L 182,57 L 182,54 L 180,54 L 179,55 L 176,55 L 174,53 L 175,52 L 175,49 L 174,49 L 171,46 L 171,45 L 169,43 L 167,43 L 166,42 Z" fill="none" stroke="black" stroke-width="1"/>
</svg>