<svg xmlns="http://www.w3.org/2000/svg" width="194" height="149">
  <path d="M 53,47 L 53,48 L 52,49 L 52,50 L 50,52 L 49,52 L 49,53 L 50,54 L 52,54 L 53,55 L 54,55 L 56,57 L 56,61 L 57,62 L 57,63 L 58,64 L 58,66 L 59,67 L 59,69 L 60,70 L 61,70 L 62,71 L 64,71 L 65,72 L 66,71 L 67,71 L 66,70 L 66,68 L 67,67 L 67,66 L 70,63 L 71,63 L 72,62 L 72,57 L 70,55 L 70,54 L 69,53 L 68,53 L 67,52 L 67,51 L 63,51 L 61,49 L 58,49 L 57,48 L 55,48 L 54,47 Z" fill="none" stroke="black" stroke-width="1"/>
</svg>