<svg xmlns="http://www.w3.org/2000/svg" width="491" height="213">
  <path d="M 225,30 L 224,31 L 223,31 L 223,34 L 222,35 L 221,35 L 220,36 L 220,39 L 224,39 L 225,38 L 232,38 L 233,39 L 234,39 L 237,42 L 238,42 L 239,43 L 241,43 L 242,44 L 244,44 L 245,45 L 246,45 L 247,46 L 248,46 L 251,49 L 254,49 L 255,48 L 255,47 L 256,46 L 256,44 L 254,42 L 254,41 L 251,41 L 250,40 L 249,40 L 248,39 L 248,37 L 247,36 L 246,36 L 242,32 L 231,32 L 229,30 Z" fill="none" stroke="black" stroke-width="1"/>
</svg>