<svg xmlns="http://www.w3.org/2000/svg" width="491" height="213">
  <path d="M 225,39 L 224,40 L 218,40 L 216,42 L 214,42 L 213,43 L 212,43 L 212,44 L 211,45 L 210,45 L 209,46 L 208,46 L 207,45 L 204,45 L 204,46 L 203,47 L 203,50 L 204,51 L 204,52 L 206,54 L 206,55 L 207,55 L 208,56 L 210,56 L 212,58 L 215,58 L 216,59 L 218,59 L 219,60 L 221,60 L 222,61 L 226,61 L 227,62 L 228,62 L 229,63 L 232,63 L 232,58 L 231,57 L 231,55 L 232,54 L 232,52 L 231,51 L 231,50 L 233,48 L 234,48 L 237,45 L 237,43 L 234,40 L 233,40 L 232,39 Z" fill="none" stroke="black" stroke-width="1"/>
</svg>