<svg xmlns="http://www.w3.org/2000/svg" width="491" height="213">
  <path d="M 178,75 L 177,76 L 171,76 L 168,79 L 165,79 L 164,80 L 163,80 L 163,82 L 162,83 L 161,83 L 161,85 L 163,87 L 187,87 L 188,86 L 193,86 L 194,87 L 195,87 L 196,88 L 199,88 L 201,90 L 203,90 L 203,89 L 204,88 L 205,89 L 206,89 L 206,88 L 205,87 L 205,86 L 206,85 L 206,83 L 205,82 L 202,82 L 201,83 L 200,82 L 197,82 L 196,81 L 195,81 L 194,80 L 193,80 L 192,79 L 191,79 L 190,78 L 189,78 L 188,77 L 187,77 L 186,76 L 183,76 L 182,75 Z" fill="none" stroke="black" stroke-width="1"/>
</svg>