<svg xmlns="http://www.w3.org/2000/svg" width="491" height="213">
  <path d="M 281,49 L 280,50 L 277,50 L 279,52 L 280,52 L 282,54 L 283,54 L 285,56 L 285,57 L 286,57 L 288,59 L 288,61 L 285,64 L 285,67 L 281,71 L 281,72 L 279,74 L 279,75 L 283,75 L 284,76 L 287,76 L 288,75 L 289,75 L 292,72 L 293,72 L 294,71 L 295,71 L 296,70 L 298,70 L 299,69 L 303,69 L 304,68 L 305,68 L 306,67 L 307,67 L 308,66 L 309,66 L 310,65 L 310,64 L 306,60 L 305,60 L 304,59 L 303,59 L 302,58 L 301,58 L 300,57 L 300,51 L 299,50 L 298,50 L 297,49 Z" fill="none" stroke="black" stroke-width="1"/>
</svg>