<svg xmlns="http://www.w3.org/2000/svg" width="491" height="213">
  <path d="M 240,106 L 240,113 L 239,114 L 237,114 L 237,127 L 238,128 L 238,132 L 239,133 L 239,134 L 240,135 L 240,137 L 241,138 L 241,136 L 242,135 L 249,135 L 250,136 L 250,139 L 251,139 L 252,140 L 252,141 L 253,141 L 254,142 L 254,143 L 255,143 L 256,144 L 256,146 L 257,146 L 258,147 L 258,149 L 263,149 L 264,148 L 273,148 L 274,149 L 274,151 L 275,151 L 276,152 L 276,153 L 277,153 L 278,154 L 278,157 L 279,158 L 279,159 L 285,159 L 286,158 L 286,157 L 287,156 L 289,156 L 292,153 L 293,153 L 293,148 L 292,147 L 292,143 L 293,142 L 290,139 L 290,136 L 292,134 L 293,134 L 293,133 L 294,132 L 294,130 L 293,129 L 289,129 L 288,128 L 288,127 L 283,122 L 283,121 L 282,120 L 282,117 L 278,113 L 278,112 L 275,112 L 274,111 L 273,111 L 272,110 L 271,110 L 270,111 L 269,111 L 267,113 L 266,113 L 263,116 L 260,116 L 259,115 L 258,115 L 257,114 L 256,115 L 255,115 L 254,116 L 250,116 L 249,115 L 248,115 L 247,114 L 247,113 L 248,112 L 248,111 L 247,111 L 246,110 L 246,108 L 245,108 L 244,107 L 243,107 L 242,106 Z" fill="none" stroke="black" stroke-width="1"/>
</svg>