<svg xmlns="http://www.w3.org/2000/svg" width="401" height="363">
  <path d="M 183,246 L 182,247 L 183,248 L 184,248 L 185,249 L 187,249 L 188,250 L 189,250 L 189,249 L 188,249 L 187,248 L 186,248 L 185,247 L 184,247 Z" fill="none" stroke="black" stroke-width="1"/>
  <path d="M 191,240 L 190,241 L 190,245 L 195,250 L 196,250 L 197,251 L 197,253 L 196,254 L 194,254 L 193,253 L 191,255 L 191,256 L 197,256 L 199,258 L 202,258 L 203,259 L 204,259 L 205,260 L 205,261 L 206,261 L 207,262 L 207,258 L 205,256 L 205,254 L 204,253 L 204,252 L 203,252 L 198,247 L 198,246 L 195,243 L 195,242 L 193,240 Z" fill="none" stroke="black" stroke-width="1"/>
</svg>