<svg xmlns="http://www.w3.org/2000/svg" width="194" height="149">
  <path d="M 42,0 L 40,2 L 38,2 L 37,3 L 29,3 L 29,5 L 28,6 L 27,6 L 25,8 L 20,8 L 19,9 L 19,10 L 18,11 L 16,11 L 16,13 L 17,14 L 17,17 L 18,18 L 22,18 L 23,19 L 24,19 L 26,21 L 26,22 L 27,23 L 28,23 L 29,24 L 29,25 L 30,25 L 31,26 L 32,26 L 33,27 L 33,30 L 32,31 L 32,32 L 35,35 L 35,37 L 37,37 L 38,36 L 39,36 L 41,34 L 45,34 L 46,35 L 47,35 L 48,36 L 51,36 L 52,37 L 52,38 L 55,38 L 56,39 L 56,40 L 57,40 L 59,42 L 62,42 L 62,41 L 61,40 L 61,32 L 62,31 L 62,29 L 63,28 L 63,27 L 61,25 L 61,21 L 60,20 L 60,18 L 56,18 L 55,17 L 52,17 L 50,15 L 50,13 L 49,13 L 48,12 L 48,8 L 47,8 L 46,7 L 46,3 L 44,1 L 44,0 Z" fill="none" stroke="black" stroke-width="1"/>
</svg>