<svg xmlns="http://www.w3.org/2000/svg" width="401" height="363">
  <path d="M 84,182 L 84,183 L 85,184 L 86,184 L 87,185 L 87,186 L 88,186 L 88,185 L 85,182 Z" fill="none" stroke="black" stroke-width="1"/>
  <path d="M 75,180 L 74,181 L 71,181 L 70,182 L 69,182 L 68,183 L 68,185 L 69,186 L 68,187 L 68,190 L 69,191 L 69,193 L 70,193 L 71,194 L 71,196 L 72,197 L 73,197 L 74,198 L 75,198 L 77,200 L 80,200 L 81,201 L 83,201 L 84,202 L 86,202 L 86,197 L 84,195 L 84,191 L 85,190 L 85,187 L 84,187 L 83,186 L 83,185 L 82,184 L 82,183 L 80,183 L 79,182 L 78,182 L 76,180 Z" fill="none" stroke="black" stroke-width="1"/>
</svg>