<svg xmlns="http://www.w3.org/2000/svg" width="401" height="363">
  <path d="M 27,179 L 26,180 L 25,180 L 24,181 L 22,181 L 20,183 L 17,183 L 16,184 L 15,184 L 9,190 L 9,191 L 8,192 L 10,194 L 10,195 L 9,196 L 5,196 L 4,197 L 3,197 L 2,198 L 0,198 L 3,198 L 4,197 L 7,197 L 8,198 L 7,199 L 8,199 L 10,197 L 14,197 L 15,196 L 14,195 L 16,193 L 20,193 L 21,192 L 22,192 L 23,193 L 26,190 L 27,190 L 31,186 L 32,186 L 33,185 L 33,182 L 32,182 L 31,181 L 31,180 L 30,179 Z" fill="none" stroke="black" stroke-width="1"/>
</svg>