<svg xmlns="http://www.w3.org/2000/svg" width="169" height="255">
  <path d="M 86,193 L 86,194 L 87,194 L 87,193 Z" fill="none" stroke="black" stroke-width="1"/>
  <path d="M 78,180 L 77,181 L 74,181 L 73,182 L 72,182 L 71,183 L 69,183 L 69,192 L 70,193 L 70,195 L 71,196 L 71,197 L 73,199 L 73,201 L 74,201 L 75,202 L 79,202 L 80,203 L 81,202 L 86,202 L 86,198 L 87,197 L 86,196 L 85,196 L 84,195 L 84,194 L 83,193 L 83,192 L 85,190 L 83,188 L 83,187 L 82,186 L 82,185 L 81,184 L 81,183 L 80,182 L 80,180 Z" fill="none" stroke="black" stroke-width="1"/>
</svg>