<svg xmlns="http://www.w3.org/2000/svg" width="169" height="255">
  <path d="M 66,181 L 65,182 L 64,182 L 63,183 L 62,183 L 62,184 L 61,185 L 61,186 L 58,189 L 56,189 L 56,198 L 55,199 L 55,201 L 54,202 L 54,205 L 53,206 L 53,208 L 54,209 L 54,210 L 55,210 L 56,209 L 56,208 L 55,207 L 55,205 L 56,204 L 57,205 L 58,205 L 60,207 L 60,209 L 61,209 L 62,208 L 63,208 L 64,207 L 65,207 L 66,206 L 67,206 L 69,204 L 69,203 L 70,202 L 72,202 L 72,199 L 70,197 L 70,196 L 69,195 L 69,193 L 68,192 L 68,183 L 67,183 L 66,182 Z" fill="none" stroke="black" stroke-width="1"/>
</svg>