<svg xmlns="http://www.w3.org/2000/svg" width="258" height="263">
  <path d="M 191,99 L 188,102 L 187,102 L 183,106 L 181,106 L 180,107 L 179,107 L 178,106 L 172,106 L 170,108 L 170,111 L 171,112 L 171,114 L 172,115 L 172,117 L 173,118 L 173,120 L 178,125 L 178,130 L 179,131 L 179,132 L 181,134 L 184,134 L 184,132 L 185,131 L 186,131 L 187,130 L 193,130 L 195,128 L 196,128 L 196,124 L 197,123 L 198,123 L 200,121 L 204,121 L 205,120 L 205,119 L 206,118 L 207,118 L 210,115 L 214,115 L 214,108 L 213,107 L 210,107 L 209,106 L 208,106 L 207,105 L 205,105 L 204,104 L 201,104 L 200,103 L 198,103 L 194,99 Z" fill="none" stroke="black" stroke-width="1"/>
</svg>