<svg xmlns="http://www.w3.org/2000/svg" width="258" height="263">
  <path d="M 67,86 L 66,87 L 62,87 L 61,88 L 52,88 L 51,89 L 51,91 L 54,91 L 66,103 L 66,104 L 67,105 L 67,106 L 69,108 L 72,108 L 73,107 L 74,107 L 76,105 L 79,105 L 80,106 L 82,106 L 85,109 L 86,109 L 87,110 L 90,110 L 91,109 L 93,111 L 95,111 L 96,112 L 97,112 L 98,113 L 103,113 L 104,112 L 104,107 L 102,105 L 102,104 L 100,102 L 99,102 L 94,97 L 94,96 L 92,94 L 93,93 L 94,93 L 95,92 L 95,88 L 93,86 L 92,86 L 91,87 L 85,87 L 84,86 L 81,86 L 80,87 L 69,87 L 68,86 Z" fill="none" stroke="black" stroke-width="1"/>
</svg>