<svg xmlns="http://www.w3.org/2000/svg" width="258" height="263">
  <path d="M 133,88 L 133,89 L 131,91 L 129,91 L 128,92 L 127,92 L 122,97 L 121,97 L 120,98 L 119,98 L 118,99 L 117,99 L 116,100 L 115,100 L 114,101 L 108,101 L 107,102 L 101,102 L 103,104 L 103,105 L 105,107 L 105,111 L 106,112 L 107,112 L 109,114 L 115,114 L 116,115 L 119,115 L 120,114 L 128,114 L 129,113 L 137,113 L 138,114 L 139,114 L 140,115 L 142,115 L 143,116 L 145,116 L 147,118 L 147,119 L 148,119 L 149,118 L 150,118 L 152,116 L 152,115 L 155,112 L 156,112 L 156,109 L 155,108 L 155,107 L 154,107 L 153,106 L 152,106 L 151,105 L 151,101 L 146,96 L 146,95 L 145,95 L 143,93 L 142,93 L 140,91 L 139,91 L 136,88 Z" fill="none" stroke="black" stroke-width="1"/>
</svg>