<svg xmlns="http://www.w3.org/2000/svg" width="258" height="263">
  <path d="M 70,35 L 69,36 L 69,41 L 71,43 L 71,46 L 69,48 L 69,49 L 68,50 L 62,50 L 61,49 L 60,49 L 58,51 L 58,54 L 59,54 L 60,55 L 60,56 L 61,57 L 61,59 L 60,60 L 62,62 L 62,65 L 64,65 L 67,68 L 71,68 L 72,67 L 74,67 L 75,66 L 76,66 L 81,61 L 82,61 L 83,60 L 84,61 L 88,61 L 94,55 L 95,55 L 96,54 L 97,55 L 99,55 L 100,56 L 101,56 L 102,55 L 105,55 L 105,52 L 106,51 L 106,47 L 107,46 L 107,44 L 106,43 L 106,40 L 105,39 L 105,38 L 100,38 L 99,39 L 98,39 L 96,41 L 95,41 L 94,42 L 91,42 L 90,41 L 87,41 L 86,40 L 85,40 L 84,39 L 82,39 L 81,38 L 80,38 L 77,35 Z" fill="none" stroke="black" stroke-width="1"/>
</svg>