<svg xmlns="http://www.w3.org/2000/svg" width="315" height="148">
  <path d="M 295,78 L 293,80 L 292,80 L 290,82 L 289,82 L 288,83 L 287,83 L 282,88 L 281,88 L 274,95 L 274,96 L 273,97 L 273,98 L 271,100 L 271,101 L 270,102 L 270,103 L 269,104 L 269,105 L 268,106 L 268,107 L 267,108 L 267,109 L 266,110 L 266,112 L 268,114 L 268,130 L 267,131 L 268,131 L 269,132 L 271,132 L 272,133 L 274,133 L 276,135 L 277,135 L 279,137 L 280,137 L 282,135 L 283,135 L 285,133 L 285,131 L 287,129 L 287,128 L 288,127 L 288,126 L 289,125 L 289,124 L 291,122 L 291,118 L 292,117 L 293,118 L 298,118 L 299,117 L 301,117 L 302,116 L 303,116 L 307,112 L 309,114 L 310,114 L 310,111 L 311,110 L 313,110 L 314,109 L 313,108 L 313,107 L 311,105 L 310,105 L 309,104 L 307,104 L 305,102 L 303,102 L 301,100 L 301,99 L 303,97 L 304,97 L 305,98 L 309,98 L 309,96 L 304,91 L 304,89 L 303,88 L 303,87 L 298,82 L 298,81 Z" fill="none" stroke="black" stroke-width="1"/>
</svg>