<svg xmlns="http://www.w3.org/2000/svg" width="304" height="349">
  <path d="M 296,122 L 295,123 L 294,123 L 293,124 L 291,124 L 290,123 L 286,123 L 284,125 L 283,125 L 283,126 L 282,127 L 282,128 L 279,131 L 276,131 L 276,133 L 272,137 L 273,138 L 273,139 L 272,140 L 273,141 L 273,144 L 272,145 L 272,149 L 274,151 L 275,151 L 277,153 L 278,153 L 279,154 L 280,154 L 281,155 L 281,153 L 284,150 L 285,150 L 286,151 L 292,151 L 292,150 L 294,148 L 294,145 L 292,143 L 292,138 L 294,136 L 300,136 L 302,134 L 302,133 L 303,132 L 303,126 L 301,124 L 300,124 L 299,123 L 299,122 Z" fill="none" stroke="black" stroke-width="1"/>
</svg>