<svg xmlns="http://www.w3.org/2000/svg" width="304" height="349">
  <path d="M 269,113 L 268,114 L 266,114 L 266,118 L 267,119 L 267,122 L 266,123 L 265,123 L 265,124 L 261,128 L 260,128 L 259,127 L 257,127 L 256,126 L 253,126 L 253,127 L 252,128 L 252,129 L 253,130 L 253,131 L 258,136 L 257,137 L 256,137 L 256,138 L 259,138 L 260,139 L 261,139 L 262,140 L 266,140 L 267,139 L 268,139 L 269,138 L 270,139 L 272,139 L 272,138 L 271,137 L 275,133 L 275,131 L 276,130 L 279,130 L 281,128 L 281,127 L 282,126 L 282,123 L 280,121 L 280,120 L 278,118 L 277,118 L 276,117 L 276,114 L 275,114 L 274,113 Z" fill="none" stroke="black" stroke-width="1"/>
</svg>