<svg xmlns="http://www.w3.org/2000/svg" width="304" height="349">
  <path d="M 209,177 L 207,179 L 207,181 L 204,184 L 204,185 L 202,187 L 201,187 L 200,188 L 198,188 L 195,191 L 194,191 L 193,192 L 193,193 L 191,195 L 190,194 L 185,194 L 184,195 L 181,195 L 181,196 L 182,196 L 183,197 L 185,197 L 187,199 L 189,199 L 190,200 L 192,200 L 193,201 L 194,201 L 195,200 L 196,201 L 197,201 L 198,202 L 199,202 L 200,203 L 212,203 L 213,204 L 220,204 L 221,205 L 228,205 L 228,204 L 231,201 L 228,198 L 228,197 L 226,195 L 226,194 L 225,193 L 225,192 L 224,191 L 224,190 L 223,189 L 223,186 L 222,186 L 220,184 L 220,183 L 219,182 L 219,181 L 218,180 L 213,180 L 212,179 L 212,177 Z" fill="none" stroke="black" stroke-width="1"/>
</svg>