<svg xmlns="http://www.w3.org/2000/svg" width="304" height="349">
  <path d="M 193,137 L 192,138 L 192,139 L 190,141 L 190,143 L 191,144 L 191,145 L 192,146 L 193,146 L 194,147 L 195,147 L 197,149 L 197,151 L 198,152 L 199,152 L 200,153 L 202,153 L 204,155 L 204,158 L 205,159 L 205,160 L 206,161 L 206,162 L 204,164 L 204,167 L 205,167 L 206,168 L 206,169 L 207,170 L 207,173 L 209,175 L 209,176 L 211,176 L 212,175 L 213,175 L 213,174 L 214,173 L 214,171 L 213,170 L 213,168 L 214,167 L 215,167 L 217,165 L 219,165 L 221,163 L 222,163 L 223,162 L 225,162 L 226,163 L 231,163 L 232,164 L 232,165 L 234,165 L 234,162 L 235,161 L 235,159 L 223,147 L 222,148 L 221,147 L 220,147 L 217,144 L 211,144 L 210,143 L 208,143 L 207,142 L 206,142 L 204,140 L 203,140 L 202,139 L 201,139 L 200,138 L 199,138 L 198,137 Z" fill="none" stroke="black" stroke-width="1"/>
</svg>