<svg xmlns="http://www.w3.org/2000/svg" width="304" height="349">
  <path d="M 113,131 L 110,134 L 107,134 L 106,135 L 103,135 L 102,134 L 102,132 L 102,133 L 101,134 L 100,134 L 99,135 L 94,135 L 89,140 L 88,140 L 87,141 L 87,142 L 91,142 L 92,143 L 93,143 L 94,144 L 96,144 L 97,145 L 99,145 L 102,148 L 102,149 L 103,150 L 103,151 L 104,152 L 105,152 L 106,153 L 107,153 L 112,158 L 112,159 L 113,159 L 114,160 L 114,161 L 115,161 L 117,163 L 118,163 L 119,164 L 120,164 L 121,165 L 126,165 L 127,166 L 128,166 L 125,163 L 125,161 L 126,160 L 131,165 L 133,165 L 133,164 L 132,163 L 132,161 L 131,160 L 131,159 L 130,158 L 130,157 L 128,155 L 128,150 L 129,149 L 129,148 L 130,147 L 130,145 L 127,142 L 127,138 L 125,138 L 124,137 L 122,137 L 119,134 L 118,134 L 117,133 L 115,133 Z" fill="none" stroke="black" stroke-width="1"/>
</svg>