<svg xmlns="http://www.w3.org/2000/svg" width="304" height="349">
  <path d="M 68,80 L 67,81 L 66,81 L 64,83 L 64,86 L 63,87 L 63,91 L 64,92 L 64,93 L 65,93 L 73,101 L 73,102 L 76,105 L 77,105 L 78,106 L 78,109 L 79,110 L 79,111 L 80,112 L 80,113 L 79,114 L 80,115 L 80,116 L 79,117 L 83,117 L 84,118 L 85,118 L 86,119 L 87,119 L 88,120 L 88,121 L 90,123 L 91,123 L 93,125 L 96,125 L 96,124 L 97,123 L 97,119 L 95,117 L 95,116 L 94,115 L 94,111 L 91,108 L 91,107 L 86,102 L 86,100 L 85,99 L 85,98 L 83,96 L 83,95 L 82,94 L 82,92 L 80,90 L 80,89 L 79,89 L 78,88 L 77,88 L 76,87 L 74,87 L 69,82 L 69,80 Z" fill="none" stroke="black" stroke-width="1"/>
</svg>