<svg xmlns="http://www.w3.org/2000/svg" width="304" height="349">
  <path d="M 54,81 L 53,82 L 52,82 L 50,84 L 49,84 L 48,85 L 46,85 L 44,83 L 43,83 L 42,84 L 39,84 L 38,83 L 36,83 L 35,84 L 34,84 L 33,85 L 34,86 L 34,87 L 36,89 L 36,91 L 37,92 L 37,94 L 36,95 L 35,95 L 34,94 L 34,93 L 33,92 L 32,92 L 31,91 L 31,89 L 30,89 L 29,90 L 29,91 L 30,92 L 30,93 L 31,94 L 31,98 L 35,102 L 42,102 L 43,103 L 44,103 L 45,104 L 46,104 L 47,105 L 49,105 L 49,99 L 56,92 L 56,84 L 55,83 L 55,81 Z" fill="none" stroke="black" stroke-width="1"/>
</svg>