<svg xmlns="http://www.w3.org/2000/svg" width="304" height="349">
  <path d="M 139,184 L 136,187 L 134,187 L 133,188 L 131,188 L 130,189 L 129,189 L 128,188 L 127,188 L 126,187 L 125,188 L 124,187 L 121,187 L 120,188 L 119,188 L 118,189 L 118,190 L 117,191 L 117,192 L 118,192 L 121,195 L 121,201 L 122,201 L 124,203 L 124,204 L 126,206 L 126,207 L 130,207 L 131,206 L 132,207 L 134,207 L 135,208 L 135,209 L 136,209 L 140,213 L 140,215 L 141,216 L 141,217 L 142,218 L 142,219 L 143,220 L 144,220 L 145,221 L 145,222 L 148,222 L 149,223 L 151,223 L 151,217 L 150,216 L 150,211 L 149,211 L 148,210 L 148,209 L 147,208 L 147,204 L 148,203 L 148,199 L 149,198 L 148,197 L 148,195 L 147,194 L 147,191 L 146,190 L 146,187 L 145,186 L 143,186 L 142,185 L 141,185 L 140,184 Z" fill="none" stroke="black" stroke-width="1"/>
</svg>