<svg xmlns="http://www.w3.org/2000/svg" width="710" height="350">
  <path d="M 78,76 L 76,78 L 75,78 L 75,79 L 74,80 L 73,80 L 73,88 L 75,90 L 75,92 L 74,93 L 74,97 L 75,98 L 75,99 L 77,101 L 77,102 L 78,103 L 78,108 L 79,108 L 82,111 L 84,111 L 85,112 L 86,111 L 89,111 L 91,109 L 93,109 L 94,110 L 99,110 L 100,111 L 101,111 L 102,112 L 102,114 L 103,115 L 101,117 L 101,118 L 100,119 L 102,121 L 102,126 L 101,127 L 101,129 L 100,130 L 100,131 L 101,131 L 102,132 L 104,132 L 105,133 L 106,133 L 107,134 L 108,134 L 109,135 L 110,135 L 113,138 L 113,139 L 115,141 L 115,143 L 116,143 L 117,144 L 118,143 L 131,143 L 131,142 L 134,139 L 135,139 L 135,138 L 136,137 L 136,136 L 137,135 L 139,135 L 140,134 L 142,134 L 142,133 L 137,128 L 136,128 L 130,122 L 130,112 L 129,111 L 129,110 L 128,109 L 128,108 L 127,107 L 126,107 L 125,106 L 125,105 L 123,103 L 123,102 L 122,101 L 122,98 L 121,97 L 121,96 L 117,92 L 115,92 L 115,96 L 114,97 L 113,97 L 112,96 L 111,96 L 110,95 L 108,95 L 107,94 L 101,94 L 99,92 L 98,92 L 97,91 L 96,91 L 95,90 L 94,90 L 90,86 L 90,85 L 89,84 L 89,83 L 88,82 L 88,81 L 84,77 L 82,77 L 81,76 Z" fill="none" stroke="black" stroke-width="1"/>
</svg>