<svg xmlns="http://www.w3.org/2000/svg" width="248" height="234">
  <path d="M 146,101 L 142,105 L 142,109 L 143,110 L 143,111 L 142,112 L 141,112 L 141,113 L 138,116 L 137,115 L 133,115 L 132,114 L 130,114 L 129,115 L 128,115 L 127,116 L 126,116 L 125,117 L 121,117 L 121,118 L 123,120 L 123,121 L 124,122 L 124,124 L 132,124 L 133,125 L 135,125 L 137,127 L 138,127 L 139,128 L 140,128 L 144,132 L 147,132 L 147,128 L 148,127 L 149,127 L 150,126 L 151,126 L 152,125 L 156,125 L 156,124 L 161,119 L 161,117 L 160,116 L 160,115 L 158,113 L 158,112 L 157,111 L 156,111 L 150,105 L 150,104 L 148,102 L 148,101 Z" fill="none" stroke="black" stroke-width="1"/>
</svg>