<svg xmlns="http://www.w3.org/2000/svg" width="248" height="234">
  <path d="M 104,101 L 100,105 L 99,105 L 99,106 L 97,108 L 97,111 L 96,112 L 96,117 L 98,119 L 98,122 L 100,124 L 101,124 L 102,125 L 103,125 L 104,126 L 105,126 L 106,127 L 108,127 L 110,129 L 113,129 L 114,130 L 114,131 L 115,132 L 115,133 L 117,133 L 117,132 L 119,130 L 120,130 L 123,127 L 123,122 L 122,121 L 122,120 L 120,118 L 120,116 L 116,112 L 116,111 L 115,110 L 115,109 L 114,108 L 114,106 L 115,105 L 115,104 L 114,103 L 114,102 L 113,102 L 112,101 Z" fill="none" stroke="black" stroke-width="1"/>
</svg>