<svg xmlns="http://www.w3.org/2000/svg" width="258" height="263">
  <path d="M 38,92 L 36,94 L 33,94 L 32,95 L 31,95 L 29,97 L 29,100 L 26,103 L 24,103 L 23,102 L 22,102 L 21,101 L 13,101 L 12,100 L 7,100 L 5,102 L 5,103 L 4,104 L 0,104 L 0,108 L 1,109 L 1,111 L 0,112 L 0,113 L 1,114 L 1,115 L 2,116 L 4,116 L 6,118 L 7,118 L 10,121 L 10,122 L 14,126 L 14,129 L 13,130 L 13,132 L 14,133 L 14,134 L 17,137 L 17,138 L 18,139 L 19,139 L 20,138 L 23,138 L 24,137 L 23,136 L 23,135 L 24,134 L 25,134 L 26,133 L 27,133 L 28,132 L 31,132 L 31,131 L 32,130 L 30,128 L 30,127 L 29,126 L 29,124 L 31,122 L 31,121 L 32,120 L 32,118 L 40,110 L 40,109 L 42,107 L 42,105 L 45,102 L 45,101 L 47,99 L 47,97 L 46,96 L 47,95 L 47,94 L 40,94 L 39,93 L 39,92 Z" fill="none" stroke="black" stroke-width="1"/>
</svg>