<svg xmlns="http://www.w3.org/2000/svg" width="248" height="234">
  <path d="M 19,0 L 18,1 L 17,1 L 16,2 L 15,2 L 15,3 L 16,4 L 14,6 L 11,6 L 10,7 L 9,7 L 9,8 L 10,8 L 12,10 L 12,11 L 14,13 L 14,14 L 15,14 L 16,15 L 16,16 L 14,18 L 11,18 L 10,19 L 9,19 L 9,25 L 12,28 L 12,31 L 11,32 L 11,34 L 14,37 L 14,39 L 15,40 L 15,43 L 16,44 L 16,45 L 17,46 L 19,46 L 21,48 L 21,50 L 22,51 L 22,53 L 25,56 L 26,56 L 27,57 L 28,57 L 29,58 L 32,58 L 33,59 L 33,60 L 34,61 L 35,61 L 35,60 L 36,59 L 36,57 L 37,56 L 37,55 L 38,54 L 38,53 L 40,51 L 40,49 L 41,48 L 41,46 L 40,45 L 40,41 L 39,40 L 39,39 L 38,38 L 38,36 L 36,34 L 36,33 L 35,32 L 35,31 L 36,30 L 36,25 L 35,24 L 35,22 L 31,18 L 30,18 L 26,14 L 26,11 L 24,9 L 24,8 L 21,5 L 21,3 L 22,2 L 22,0 Z" fill="none" stroke="black" stroke-width="1"/>
</svg>