<svg xmlns="http://www.w3.org/2000/svg" width="248" height="234">
  <path d="M 66,76 L 64,78 L 63,78 L 62,79 L 61,79 L 59,81 L 59,82 L 55,86 L 54,86 L 53,87 L 53,89 L 55,91 L 55,93 L 56,94 L 56,95 L 57,96 L 57,97 L 61,101 L 61,102 L 62,103 L 64,103 L 68,107 L 68,108 L 74,114 L 74,115 L 75,116 L 75,118 L 76,118 L 78,116 L 78,113 L 77,112 L 76,112 L 75,111 L 77,109 L 77,105 L 75,103 L 75,99 L 76,98 L 76,96 L 77,95 L 77,92 L 76,92 L 75,91 L 75,88 L 77,86 L 77,84 L 78,83 L 78,81 L 76,79 L 76,78 L 72,78 L 70,76 Z" fill="none" stroke="black" stroke-width="1"/>
</svg>