<svg xmlns="http://www.w3.org/2000/svg" width="248" height="234">
  <path d="M 48,41 L 47,42 L 45,42 L 45,43 L 44,44 L 44,47 L 43,48 L 43,49 L 39,53 L 39,54 L 38,55 L 38,56 L 37,57 L 37,59 L 36,60 L 36,61 L 35,62 L 35,69 L 36,70 L 36,72 L 38,74 L 38,75 L 39,76 L 40,76 L 41,75 L 42,76 L 42,78 L 46,82 L 46,83 L 49,86 L 49,87 L 52,87 L 54,85 L 55,85 L 58,82 L 58,81 L 61,78 L 62,78 L 63,77 L 64,77 L 64,74 L 63,73 L 63,70 L 62,69 L 62,68 L 61,67 L 61,64 L 60,63 L 60,62 L 61,61 L 61,58 L 60,57 L 60,56 L 62,54 L 62,53 L 60,51 L 60,50 L 56,46 L 56,44 L 55,43 L 52,43 L 50,41 Z" fill="none" stroke="black" stroke-width="1"/>
</svg>