<svg xmlns="http://www.w3.org/2000/svg" width="304" height="349">
  <path d="M 227,248 L 225,250 L 225,252 L 224,253 L 220,253 L 219,254 L 218,254 L 217,255 L 216,255 L 213,258 L 212,258 L 212,261 L 213,262 L 213,263 L 214,264 L 215,264 L 216,265 L 215,266 L 215,267 L 214,268 L 215,269 L 215,270 L 216,271 L 216,273 L 217,273 L 218,274 L 218,275 L 219,276 L 220,276 L 221,277 L 225,277 L 226,278 L 226,281 L 227,282 L 227,283 L 229,285 L 231,283 L 232,283 L 236,287 L 236,288 L 237,289 L 240,289 L 243,286 L 244,286 L 245,285 L 246,285 L 249,282 L 249,281 L 248,280 L 248,279 L 247,278 L 247,275 L 246,274 L 246,272 L 243,269 L 243,267 L 244,266 L 244,263 L 241,260 L 241,256 L 240,255 L 239,255 L 238,254 L 237,254 L 236,255 L 235,254 L 235,253 L 234,253 L 232,251 L 232,250 L 231,250 L 229,248 Z" fill="none" stroke="black" stroke-width="1"/>
</svg>