<svg xmlns="http://www.w3.org/2000/svg" width="304" height="349">
  <path d="M 199,204 L 200,204 L 201,205 L 201,206 L 200,207 L 200,210 L 199,211 L 200,211 L 202,213 L 202,214 L 203,215 L 203,218 L 204,219 L 204,220 L 209,225 L 209,227 L 208,228 L 211,231 L 211,232 L 212,233 L 213,233 L 215,235 L 215,236 L 217,238 L 217,240 L 218,241 L 218,242 L 219,243 L 220,243 L 221,244 L 223,244 L 225,246 L 226,246 L 227,247 L 229,247 L 231,249 L 232,249 L 233,250 L 233,251 L 234,252 L 235,252 L 236,253 L 236,254 L 237,253 L 238,253 L 239,254 L 240,254 L 241,255 L 241,254 L 242,253 L 243,253 L 244,252 L 247,252 L 248,251 L 248,250 L 247,250 L 246,249 L 246,248 L 244,246 L 244,245 L 243,244 L 242,244 L 241,243 L 241,241 L 240,240 L 240,239 L 237,236 L 237,235 L 236,234 L 236,232 L 237,231 L 237,228 L 233,224 L 233,223 L 231,221 L 230,221 L 228,219 L 226,219 L 224,217 L 224,216 L 223,215 L 223,214 L 224,213 L 224,211 L 223,210 L 223,206 L 221,206 L 220,205 L 213,205 L 212,204 Z" fill="none" stroke="black" stroke-width="1"/>
</svg>