<svg xmlns="http://www.w3.org/2000/svg" width="315" height="148">
  <path d="M 247,35 L 247,37 L 245,39 L 244,38 L 243,38 L 243,42 L 244,43 L 244,45 L 241,48 L 241,53 L 240,54 L 240,60 L 241,61 L 240,62 L 240,63 L 239,64 L 239,65 L 238,66 L 237,66 L 237,67 L 235,69 L 235,70 L 236,71 L 236,72 L 238,74 L 238,75 L 239,75 L 240,76 L 240,77 L 241,77 L 242,78 L 243,78 L 245,80 L 246,80 L 248,82 L 248,88 L 249,89 L 249,90 L 251,92 L 253,90 L 254,90 L 255,89 L 257,89 L 258,88 L 261,88 L 263,90 L 265,90 L 268,93 L 269,93 L 270,94 L 271,94 L 273,96 L 273,95 L 281,87 L 282,87 L 287,82 L 288,82 L 289,81 L 290,81 L 292,79 L 293,79 L 294,78 L 288,78 L 287,77 L 285,77 L 285,78 L 284,79 L 283,79 L 282,78 L 281,78 L 280,77 L 280,75 L 279,74 L 279,70 L 280,69 L 280,68 L 278,68 L 276,66 L 276,53 L 277,52 L 278,52 L 278,51 L 279,50 L 279,49 L 276,46 L 276,38 L 277,37 L 277,36 L 276,36 L 275,37 L 274,37 L 273,38 L 271,38 L 268,41 L 264,41 L 263,42 L 262,42 L 261,41 L 260,41 L 257,38 L 255,38 L 254,37 L 249,37 L 248,36 L 248,35 Z" fill="none" stroke="black" stroke-width="1"/>
</svg>