<svg xmlns="http://www.w3.org/2000/svg" width="402" height="344">
  <path d="M 40,280 L 39,281 L 39,282 L 38,283 L 38,287 L 39,288 L 39,289 L 40,290 L 40,292 L 38,294 L 37,294 L 36,295 L 35,295 L 35,297 L 37,299 L 37,302 L 39,302 L 41,304 L 42,304 L 43,303 L 44,304 L 46,304 L 47,305 L 48,305 L 49,304 L 51,304 L 52,305 L 52,302 L 53,301 L 54,302 L 55,302 L 56,303 L 56,304 L 58,304 L 59,305 L 61,305 L 62,306 L 64,306 L 64,304 L 65,303 L 65,302 L 66,301 L 66,298 L 68,296 L 73,296 L 73,295 L 72,294 L 72,292 L 73,291 L 73,290 L 72,289 L 72,288 L 74,286 L 73,285 L 69,285 L 69,286 L 68,287 L 67,287 L 66,286 L 65,286 L 63,284 L 62,284 L 61,283 L 60,283 L 59,282 L 52,282 L 53,283 L 53,284 L 51,286 L 50,286 L 49,285 L 48,285 L 47,284 L 44,284 L 43,283 L 43,280 Z" fill="none" stroke="black" stroke-width="1"/>
</svg>