<svg xmlns="http://www.w3.org/2000/svg" width="402" height="344">
  <path d="M 153,256 L 150,259 L 149,259 L 147,261 L 146,261 L 145,260 L 144,260 L 143,261 L 142,261 L 141,262 L 140,262 L 139,263 L 137,263 L 136,262 L 131,262 L 130,263 L 128,263 L 128,269 L 126,271 L 126,276 L 129,279 L 130,278 L 133,278 L 134,279 L 137,279 L 138,280 L 139,280 L 141,282 L 142,282 L 144,280 L 147,280 L 148,281 L 151,281 L 152,280 L 153,280 L 154,279 L 155,279 L 158,276 L 158,275 L 160,273 L 164,273 L 166,271 L 166,268 L 165,267 L 162,267 L 160,265 L 160,263 L 159,263 L 157,261 L 157,260 L 158,259 L 156,257 L 155,257 L 154,256 Z" fill="none" stroke="black" stroke-width="1"/>
</svg>