<svg xmlns="http://www.w3.org/2000/svg" width="402" height="344">
  <path d="M 189,216 L 188,217 L 185,217 L 184,218 L 182,218 L 181,219 L 180,219 L 179,220 L 177,220 L 176,221 L 174,221 L 174,224 L 175,225 L 175,226 L 176,227 L 176,228 L 175,229 L 173,229 L 173,231 L 174,232 L 174,233 L 173,234 L 173,236 L 172,237 L 171,237 L 171,241 L 172,242 L 173,242 L 174,243 L 175,243 L 176,242 L 177,242 L 179,244 L 179,246 L 181,248 L 182,248 L 183,249 L 184,249 L 185,250 L 190,250 L 191,251 L 191,244 L 192,243 L 192,241 L 191,240 L 191,236 L 190,235 L 190,233 L 189,232 L 189,231 L 187,229 L 187,228 L 188,227 L 191,227 L 192,226 L 193,226 L 194,225 L 195,225 L 196,224 L 197,224 L 198,223 L 198,221 L 197,220 L 194,220 L 191,217 L 191,216 Z" fill="none" stroke="black" stroke-width="1"/>
</svg>