<svg xmlns="http://www.w3.org/2000/svg" width="402" height="344">
  <path d="M 251,213 L 248,216 L 241,216 L 238,219 L 238,222 L 235,225 L 235,226 L 234,227 L 234,228 L 235,229 L 236,229 L 237,230 L 237,231 L 238,232 L 238,235 L 237,236 L 237,237 L 236,238 L 236,240 L 239,243 L 239,245 L 240,246 L 240,247 L 241,247 L 242,246 L 244,246 L 246,244 L 246,243 L 248,241 L 248,240 L 249,239 L 249,238 L 251,236 L 251,235 L 252,234 L 253,234 L 254,233 L 255,233 L 256,234 L 257,234 L 258,233 L 259,233 L 265,227 L 265,226 L 264,225 L 264,223 L 263,222 L 263,220 L 266,217 L 265,216 L 264,216 L 261,213 L 258,213 L 257,214 L 254,214 L 253,213 Z" fill="none" stroke="black" stroke-width="1"/>
</svg>