<svg xmlns="http://www.w3.org/2000/svg" width="402" height="344">
  <path d="M 285,184 L 282,187 L 281,187 L 279,189 L 277,189 L 276,190 L 277,191 L 276,192 L 273,192 L 273,196 L 272,197 L 270,197 L 270,198 L 269,199 L 267,199 L 267,200 L 268,201 L 268,202 L 266,204 L 265,204 L 264,205 L 263,205 L 262,206 L 262,207 L 263,208 L 263,212 L 262,213 L 264,215 L 265,215 L 267,217 L 268,216 L 271,219 L 273,219 L 275,217 L 276,218 L 277,218 L 278,219 L 279,219 L 280,218 L 283,218 L 291,210 L 292,210 L 292,209 L 293,208 L 293,207 L 298,202 L 298,201 L 299,200 L 299,198 L 302,195 L 302,192 L 303,191 L 303,190 L 304,189 L 304,187 L 300,187 L 299,186 L 299,185 L 298,184 L 295,184 L 294,185 L 293,185 L 292,186 L 290,184 Z" fill="none" stroke="black" stroke-width="1"/>
</svg>