<svg xmlns="http://www.w3.org/2000/svg" width="402" height="344">
  <path d="M 370,34 L 369,35 L 370,36 L 368,38 L 367,37 L 366,37 L 366,39 L 367,40 L 368,40 L 369,41 L 369,42 L 371,44 L 371,45 L 370,46 L 370,47 L 369,48 L 370,48 L 370,47 L 371,46 L 372,47 L 372,49 L 371,50 L 367,50 L 367,52 L 368,51 L 369,51 L 370,52 L 370,53 L 369,54 L 368,54 L 368,55 L 367,56 L 363,56 L 362,55 L 362,53 L 361,54 L 359,54 L 358,55 L 357,55 L 356,56 L 357,57 L 357,61 L 359,63 L 359,64 L 358,65 L 358,66 L 357,67 L 357,74 L 354,77 L 354,79 L 355,80 L 355,82 L 354,83 L 354,87 L 355,87 L 357,89 L 357,92 L 361,96 L 361,97 L 362,98 L 362,99 L 363,99 L 364,98 L 364,97 L 368,93 L 370,93 L 373,90 L 373,89 L 375,87 L 376,87 L 376,82 L 377,81 L 377,78 L 379,76 L 378,76 L 377,75 L 378,74 L 379,74 L 378,73 L 380,71 L 380,67 L 379,66 L 379,60 L 378,59 L 378,57 L 376,55 L 376,52 L 375,51 L 375,50 L 373,48 L 373,47 L 372,46 L 372,45 L 373,44 L 373,43 L 374,42 L 374,39 L 372,37 L 372,36 L 371,35 L 371,34 Z" fill="none" stroke="black" stroke-width="1"/>
</svg>