<svg xmlns="http://www.w3.org/2000/svg" width="402" height="344">
  <path d="M 225,54 L 225,55 L 224,56 L 223,56 L 220,59 L 211,59 L 212,60 L 213,60 L 214,61 L 214,62 L 215,63 L 214,64 L 214,67 L 216,69 L 216,70 L 214,72 L 214,73 L 215,74 L 214,75 L 213,75 L 212,76 L 212,79 L 210,81 L 210,83 L 205,88 L 205,89 L 201,93 L 201,94 L 198,97 L 198,100 L 197,101 L 195,101 L 194,102 L 192,102 L 190,104 L 190,105 L 187,108 L 187,111 L 185,113 L 185,114 L 183,116 L 184,116 L 185,115 L 188,118 L 196,118 L 197,119 L 197,120 L 198,121 L 198,122 L 199,123 L 199,124 L 200,125 L 201,125 L 204,128 L 203,129 L 203,130 L 201,132 L 201,134 L 202,135 L 202,137 L 203,138 L 204,138 L 206,140 L 206,141 L 207,142 L 207,143 L 209,143 L 211,145 L 216,145 L 217,144 L 217,143 L 218,142 L 218,139 L 219,138 L 219,137 L 220,136 L 221,136 L 224,133 L 224,132 L 225,131 L 225,130 L 227,128 L 227,127 L 231,123 L 231,122 L 232,121 L 232,116 L 231,115 L 231,113 L 233,111 L 233,110 L 236,107 L 236,106 L 237,105 L 237,104 L 238,103 L 239,103 L 241,101 L 241,100 L 250,91 L 249,90 L 251,88 L 251,85 L 247,85 L 246,86 L 244,86 L 243,85 L 243,79 L 244,78 L 244,77 L 246,75 L 246,74 L 245,73 L 245,69 L 244,68 L 244,67 L 246,65 L 247,65 L 247,62 L 248,61 L 248,60 L 249,59 L 249,57 L 248,56 L 245,56 L 243,54 L 240,54 L 238,56 L 236,56 L 235,57 L 234,57 L 233,56 L 229,56 L 228,55 L 227,55 L 226,54 Z" fill="none" stroke="black" stroke-width="1"/>
</svg>