<svg xmlns="http://www.w3.org/2000/svg" width="402" height="344">
  <path d="M 159,153 L 158,154 L 157,154 L 155,156 L 155,157 L 153,159 L 151,159 L 150,158 L 147,158 L 140,165 L 141,166 L 142,166 L 143,167 L 143,170 L 142,171 L 142,172 L 141,173 L 141,174 L 139,176 L 139,177 L 140,178 L 140,182 L 139,183 L 138,183 L 137,184 L 136,184 L 135,185 L 135,187 L 136,188 L 136,189 L 138,191 L 139,191 L 140,192 L 140,193 L 141,194 L 141,195 L 142,195 L 143,196 L 143,199 L 144,200 L 144,202 L 145,202 L 146,201 L 147,201 L 148,200 L 155,200 L 156,199 L 157,199 L 157,198 L 158,197 L 159,197 L 159,196 L 162,193 L 162,192 L 168,186 L 168,185 L 170,183 L 170,175 L 171,174 L 171,169 L 167,165 L 167,162 L 168,161 L 168,160 L 167,159 L 167,156 L 166,155 L 165,155 L 164,154 L 163,154 L 162,153 Z" fill="none" stroke="black" stroke-width="1"/>
</svg>