<svg xmlns="http://www.w3.org/2000/svg" width="315" height="148">
  <path d="M 197,0 L 195,2 L 192,2 L 191,1 L 190,1 L 189,2 L 187,2 L 186,3 L 184,3 L 183,2 L 182,2 L 184,4 L 183,5 L 180,5 L 180,7 L 179,8 L 179,9 L 178,10 L 178,11 L 177,12 L 177,13 L 176,14 L 176,17 L 173,20 L 171,20 L 170,21 L 169,21 L 167,23 L 167,25 L 166,26 L 166,27 L 168,29 L 168,30 L 171,30 L 172,31 L 173,31 L 175,33 L 175,34 L 177,36 L 179,36 L 180,37 L 181,37 L 182,38 L 184,38 L 185,39 L 185,43 L 186,43 L 187,42 L 201,42 L 202,41 L 205,41 L 205,40 L 207,38 L 207,32 L 212,27 L 212,26 L 214,24 L 214,18 L 215,17 L 215,15 L 216,14 L 218,14 L 217,14 L 216,13 L 216,11 L 214,11 L 212,9 L 211,9 L 210,8 L 210,7 L 208,5 L 205,5 L 204,4 L 204,3 L 201,3 L 199,1 L 199,0 Z" fill="none" stroke="black" stroke-width="1"/>
</svg>