<svg xmlns="http://www.w3.org/2000/svg" width="402" height="344">
  <path d="M 143,230 L 142,231 L 142,232 L 141,233 L 139,233 L 138,234 L 136,234 L 135,235 L 135,239 L 133,241 L 133,243 L 132,244 L 132,251 L 135,254 L 134,255 L 134,259 L 137,262 L 139,262 L 140,261 L 141,261 L 142,260 L 143,260 L 144,259 L 145,259 L 146,260 L 147,260 L 149,258 L 150,258 L 153,255 L 154,255 L 154,254 L 155,253 L 155,247 L 153,245 L 153,244 L 150,241 L 150,240 L 149,239 L 149,238 L 148,237 L 149,236 L 149,234 L 150,233 L 150,232 L 148,230 Z" fill="none" stroke="black" stroke-width="1"/>
</svg>