<svg xmlns="http://www.w3.org/2000/svg" width="402" height="344">
  <path d="M 153,44 L 152,45 L 146,45 L 145,46 L 144,46 L 143,47 L 142,47 L 141,48 L 140,48 L 139,49 L 138,49 L 137,50 L 135,50 L 134,51 L 133,51 L 125,59 L 124,59 L 121,62 L 120,62 L 119,63 L 116,63 L 115,62 L 114,62 L 112,64 L 107,64 L 107,65 L 108,66 L 108,68 L 110,68 L 111,69 L 111,70 L 110,71 L 110,72 L 111,72 L 113,74 L 113,75 L 114,75 L 115,76 L 115,80 L 116,80 L 118,82 L 118,84 L 117,85 L 117,86 L 120,89 L 120,90 L 121,91 L 121,92 L 122,93 L 122,96 L 123,97 L 123,100 L 124,100 L 125,101 L 126,101 L 127,100 L 129,100 L 130,99 L 130,98 L 133,95 L 134,95 L 133,94 L 134,93 L 134,91 L 135,90 L 135,89 L 136,88 L 136,86 L 137,85 L 137,83 L 138,82 L 138,80 L 142,76 L 144,76 L 145,75 L 148,75 L 149,74 L 151,74 L 152,73 L 152,72 L 153,71 L 153,70 L 154,69 L 154,68 L 155,67 L 155,66 L 156,65 L 158,65 L 160,63 L 161,63 L 161,60 L 162,59 L 162,54 L 161,53 L 161,51 L 162,50 L 162,46 L 163,45 L 163,44 Z" fill="none" stroke="black" stroke-width="1"/>
</svg>