<svg xmlns="http://www.w3.org/2000/svg" width="402" height="344">
  <path d="M 240,159 L 239,160 L 236,160 L 235,161 L 234,161 L 233,162 L 231,162 L 230,163 L 229,163 L 227,165 L 220,165 L 218,167 L 217,167 L 213,171 L 213,172 L 212,173 L 211,173 L 208,176 L 208,178 L 209,179 L 209,180 L 210,181 L 210,182 L 207,185 L 207,186 L 206,187 L 203,187 L 202,188 L 202,189 L 201,190 L 199,190 L 199,192 L 200,193 L 200,194 L 201,195 L 201,196 L 200,197 L 200,199 L 198,201 L 196,201 L 194,203 L 194,207 L 193,208 L 193,213 L 192,214 L 192,217 L 194,219 L 197,219 L 198,220 L 199,220 L 201,218 L 202,218 L 203,219 L 203,220 L 204,220 L 205,221 L 206,221 L 207,222 L 208,222 L 210,224 L 212,224 L 213,225 L 215,225 L 216,224 L 219,224 L 220,223 L 220,219 L 221,218 L 221,216 L 222,215 L 223,215 L 224,214 L 225,214 L 226,213 L 226,210 L 227,209 L 228,209 L 228,208 L 230,206 L 230,203 L 231,202 L 232,202 L 233,201 L 233,198 L 232,197 L 232,196 L 233,195 L 233,194 L 234,193 L 235,193 L 235,187 L 236,186 L 236,185 L 237,184 L 238,184 L 238,183 L 237,182 L 237,180 L 240,177 L 242,177 L 243,176 L 244,176 L 244,175 L 245,174 L 245,173 L 246,172 L 246,171 L 244,169 L 244,168 L 243,167 L 243,165 L 244,164 L 245,164 L 245,162 L 246,161 L 244,161 L 243,160 L 242,160 L 241,159 Z" fill="none" stroke="black" stroke-width="1"/>
</svg>