<svg xmlns="http://www.w3.org/2000/svg" width="402" height="344">
  <path d="M 58,90 L 57,91 L 57,92 L 56,93 L 56,95 L 55,96 L 55,97 L 54,98 L 54,99 L 52,101 L 52,102 L 51,103 L 51,104 L 49,106 L 49,107 L 47,109 L 47,112 L 48,113 L 48,114 L 46,116 L 45,116 L 44,117 L 43,117 L 42,118 L 41,118 L 40,119 L 40,120 L 39,121 L 39,122 L 38,123 L 38,124 L 37,125 L 37,126 L 38,126 L 41,129 L 42,129 L 43,130 L 44,130 L 48,134 L 54,134 L 55,133 L 66,133 L 68,131 L 75,131 L 78,128 L 79,129 L 84,129 L 85,130 L 89,130 L 90,129 L 92,129 L 93,128 L 94,129 L 95,128 L 95,127 L 96,126 L 96,125 L 99,122 L 99,121 L 103,117 L 103,116 L 105,114 L 105,112 L 107,110 L 107,107 L 106,106 L 106,105 L 105,104 L 105,101 L 102,98 L 100,98 L 97,95 L 97,94 L 95,94 L 95,95 L 94,96 L 93,96 L 93,97 L 92,98 L 88,98 L 87,99 L 86,99 L 85,100 L 74,100 L 73,101 L 65,101 L 64,100 L 62,100 L 61,99 L 61,98 L 60,97 L 60,96 L 59,95 L 59,92 L 58,91 Z" fill="none" stroke="black" stroke-width="1"/>
</svg>