<svg xmlns="http://www.w3.org/2000/svg" width="749" height="389">
  <path d="M 672,163 L 670,165 L 671,166 L 671,168 L 670,169 L 670,170 L 668,172 L 667,172 L 666,173 L 666,175 L 665,176 L 665,177 L 662,180 L 661,179 L 659,181 L 658,181 L 658,182 L 657,183 L 657,184 L 658,185 L 657,186 L 657,187 L 656,188 L 654,188 L 653,189 L 650,189 L 648,191 L 648,194 L 646,196 L 645,196 L 644,197 L 644,199 L 646,201 L 646,202 L 647,203 L 647,205 L 648,205 L 649,206 L 651,204 L 651,203 L 653,201 L 654,202 L 656,202 L 657,201 L 658,201 L 659,200 L 660,201 L 663,201 L 664,202 L 665,202 L 666,203 L 666,202 L 667,201 L 669,201 L 671,203 L 672,203 L 673,204 L 676,204 L 676,203 L 678,201 L 679,202 L 682,202 L 683,201 L 687,201 L 687,200 L 688,199 L 688,197 L 693,192 L 694,192 L 694,191 L 696,189 L 697,189 L 699,187 L 700,187 L 702,185 L 703,185 L 704,184 L 705,184 L 707,182 L 708,182 L 709,181 L 710,181 L 710,180 L 708,180 L 707,179 L 703,179 L 701,177 L 701,176 L 700,175 L 699,175 L 697,173 L 695,173 L 694,172 L 693,172 L 692,171 L 691,171 L 690,170 L 684,170 L 680,166 L 677,166 L 676,165 L 676,164 L 675,163 Z" fill="none" stroke="black" stroke-width="1"/>
</svg>