<svg xmlns="http://www.w3.org/2000/svg" width="749" height="389">
  <path d="M 639,142 L 637,144 L 633,144 L 632,145 L 628,145 L 623,150 L 622,150 L 619,153 L 618,153 L 617,154 L 615,154 L 614,153 L 612,153 L 611,152 L 607,152 L 606,151 L 604,151 L 603,150 L 602,150 L 601,149 L 600,149 L 599,148 L 596,148 L 595,149 L 595,151 L 594,152 L 594,153 L 592,155 L 592,156 L 590,158 L 590,160 L 588,162 L 587,162 L 585,164 L 585,165 L 587,167 L 586,168 L 585,168 L 583,170 L 583,172 L 584,173 L 584,174 L 583,175 L 583,179 L 581,181 L 581,185 L 586,190 L 587,190 L 587,189 L 589,187 L 590,187 L 591,186 L 592,186 L 593,187 L 596,187 L 597,186 L 602,186 L 603,187 L 604,187 L 607,190 L 609,190 L 616,183 L 623,183 L 624,184 L 627,184 L 632,189 L 633,189 L 634,190 L 635,190 L 636,191 L 636,192 L 638,194 L 639,194 L 640,195 L 640,196 L 641,197 L 642,197 L 643,198 L 643,197 L 645,195 L 646,195 L 647,194 L 647,191 L 650,188 L 653,188 L 654,187 L 656,187 L 656,186 L 657,185 L 656,184 L 656,183 L 657,182 L 657,181 L 658,180 L 659,180 L 661,178 L 662,179 L 664,177 L 664,176 L 665,175 L 665,173 L 666,172 L 666,170 L 664,168 L 663,168 L 662,167 L 660,167 L 658,165 L 658,159 L 657,158 L 654,158 L 651,155 L 651,154 L 649,152 L 650,151 L 650,149 L 649,148 L 649,145 L 647,145 L 644,142 Z" fill="none" stroke="black" stroke-width="1"/>
</svg>