<svg xmlns="http://www.w3.org/2000/svg" width="749" height="389">
  <path d="M 560,138 L 558,140 L 556,140 L 554,142 L 553,142 L 552,143 L 551,143 L 550,144 L 548,144 L 547,145 L 544,145 L 543,146 L 540,146 L 539,147 L 538,147 L 537,148 L 534,148 L 533,149 L 532,149 L 531,150 L 527,150 L 526,151 L 525,151 L 524,152 L 524,154 L 526,156 L 526,158 L 527,159 L 527,160 L 528,161 L 528,167 L 531,170 L 531,171 L 532,172 L 532,173 L 531,174 L 531,175 L 532,176 L 534,176 L 535,175 L 536,175 L 537,174 L 540,174 L 541,175 L 542,175 L 544,177 L 551,177 L 552,176 L 553,176 L 554,175 L 556,175 L 557,174 L 558,175 L 562,175 L 563,176 L 566,176 L 567,175 L 570,175 L 570,174 L 572,172 L 572,170 L 574,168 L 577,168 L 578,169 L 579,169 L 580,170 L 580,171 L 581,171 L 585,167 L 586,167 L 584,165 L 584,164 L 587,161 L 588,161 L 589,160 L 589,158 L 591,156 L 591,155 L 593,153 L 593,152 L 594,151 L 594,149 L 596,147 L 597,147 L 597,146 L 596,145 L 594,145 L 593,144 L 592,144 L 591,143 L 590,143 L 589,144 L 588,144 L 587,145 L 586,145 L 585,146 L 584,146 L 583,147 L 582,146 L 577,146 L 574,143 L 573,143 L 572,142 L 572,141 L 571,140 L 570,140 L 569,139 L 562,139 L 561,138 Z" fill="none" stroke="black" stroke-width="1"/>
</svg>