<svg xmlns="http://www.w3.org/2000/svg" width="749" height="389">
  <path d="M 410,129 L 405,134 L 403,134 L 399,138 L 398,138 L 397,139 L 396,139 L 395,140 L 394,140 L 393,141 L 392,141 L 391,140 L 389,140 L 388,139 L 388,138 L 383,138 L 381,136 L 379,136 L 378,135 L 376,135 L 374,137 L 374,138 L 371,141 L 371,142 L 370,143 L 370,144 L 371,144 L 372,145 L 372,147 L 371,148 L 371,151 L 369,153 L 369,154 L 368,155 L 367,155 L 366,156 L 365,156 L 363,158 L 362,158 L 362,162 L 364,164 L 364,165 L 366,167 L 368,167 L 369,166 L 370,166 L 371,167 L 371,168 L 372,169 L 372,173 L 374,175 L 374,176 L 375,176 L 376,177 L 377,177 L 378,178 L 379,178 L 381,180 L 381,183 L 393,195 L 394,195 L 395,196 L 397,196 L 398,197 L 401,197 L 405,201 L 404,202 L 404,206 L 406,208 L 406,210 L 407,211 L 408,211 L 409,212 L 410,212 L 411,211 L 412,211 L 412,210 L 413,209 L 414,209 L 415,208 L 416,209 L 417,209 L 419,211 L 421,211 L 426,206 L 426,205 L 427,204 L 427,202 L 425,200 L 424,200 L 423,199 L 423,192 L 420,189 L 420,188 L 419,187 L 419,186 L 418,185 L 418,183 L 419,182 L 419,181 L 420,180 L 420,175 L 419,174 L 419,173 L 418,172 L 418,171 L 417,170 L 417,169 L 418,168 L 418,166 L 419,165 L 417,165 L 413,161 L 413,160 L 412,159 L 408,159 L 407,158 L 406,158 L 405,157 L 405,154 L 407,152 L 408,152 L 409,151 L 413,151 L 413,147 L 414,146 L 414,145 L 416,143 L 416,142 L 415,141 L 415,140 L 414,140 L 412,138 L 412,137 L 411,136 L 411,134 L 412,133 L 412,132 L 411,131 L 411,130 Z" fill="none" stroke="black" stroke-width="1"/>
</svg>