<svg xmlns="http://www.w3.org/2000/svg" width="749" height="389">
  <path d="M 474,214 L 474,216 L 472,218 L 472,219 L 471,220 L 471,222 L 469,224 L 470,225 L 470,227 L 471,228 L 471,229 L 470,230 L 470,234 L 471,235 L 471,237 L 470,238 L 470,239 L 466,243 L 461,243 L 460,244 L 461,245 L 460,246 L 460,247 L 458,249 L 459,249 L 462,252 L 462,255 L 463,255 L 464,256 L 464,257 L 465,258 L 465,260 L 463,262 L 463,263 L 464,264 L 466,264 L 467,265 L 469,265 L 470,266 L 471,266 L 472,267 L 473,267 L 474,268 L 474,269 L 475,270 L 475,271 L 481,277 L 482,277 L 484,279 L 484,287 L 486,289 L 486,291 L 487,290 L 488,290 L 489,289 L 490,289 L 491,288 L 492,288 L 493,287 L 496,287 L 497,286 L 499,286 L 504,281 L 504,280 L 510,274 L 511,274 L 512,273 L 515,273 L 517,271 L 519,271 L 522,268 L 524,268 L 524,266 L 523,265 L 523,264 L 521,262 L 520,262 L 519,261 L 519,260 L 515,256 L 515,255 L 516,254 L 516,253 L 518,251 L 518,249 L 519,248 L 519,246 L 524,241 L 525,241 L 525,240 L 524,240 L 523,239 L 523,233 L 519,229 L 519,228 L 520,227 L 520,223 L 518,221 L 518,219 L 517,218 L 516,218 L 515,217 L 514,217 L 513,216 L 512,216 L 509,219 L 508,219 L 507,220 L 506,220 L 505,219 L 502,219 L 500,217 L 500,216 L 499,215 L 497,215 L 496,214 L 492,214 L 490,216 L 489,215 L 487,215 L 486,216 L 483,216 L 482,215 L 479,215 L 478,214 L 477,214 L 476,215 L 475,215 Z" fill="none" stroke="black" stroke-width="1"/>
</svg>