<svg xmlns="http://www.w3.org/2000/svg" width="749" height="389">
  <path d="M 453,292 L 451,294 L 448,294 L 447,295 L 443,295 L 442,296 L 439,296 L 438,297 L 437,297 L 436,298 L 435,298 L 434,299 L 433,299 L 432,300 L 431,300 L 430,301 L 428,301 L 427,302 L 426,302 L 425,303 L 424,303 L 423,304 L 422,304 L 421,305 L 420,305 L 419,306 L 418,306 L 416,308 L 415,308 L 414,307 L 409,307 L 413,311 L 414,311 L 415,312 L 415,313 L 420,318 L 420,319 L 421,319 L 422,320 L 423,320 L 424,321 L 431,321 L 432,322 L 438,322 L 439,323 L 441,323 L 442,324 L 444,324 L 445,325 L 449,325 L 448,324 L 448,323 L 447,322 L 447,319 L 448,318 L 448,317 L 452,313 L 453,313 L 454,312 L 461,312 L 462,313 L 465,313 L 466,312 L 468,312 L 469,313 L 473,313 L 474,314 L 475,314 L 476,315 L 479,315 L 480,316 L 482,316 L 483,315 L 485,315 L 486,314 L 488,314 L 488,313 L 487,313 L 483,309 L 481,309 L 480,308 L 480,307 L 481,306 L 481,303 L 480,302 L 479,302 L 478,301 L 478,300 L 477,299 L 477,298 L 473,294 L 473,292 L 464,292 L 463,293 L 456,293 L 455,292 Z" fill="none" stroke="black" stroke-width="1"/>
</svg>