<svg xmlns="http://www.w3.org/2000/svg" width="315" height="148">
  <path d="M 234,69 L 233,70 L 230,70 L 228,72 L 225,72 L 224,73 L 224,74 L 223,75 L 221,75 L 220,76 L 219,76 L 218,77 L 217,76 L 217,75 L 216,74 L 215,74 L 215,76 L 213,78 L 212,78 L 211,79 L 208,79 L 207,80 L 206,80 L 205,81 L 204,81 L 202,83 L 200,83 L 198,85 L 197,85 L 196,86 L 196,89 L 197,90 L 197,91 L 198,92 L 198,96 L 196,98 L 196,99 L 195,100 L 195,102 L 196,103 L 196,104 L 194,106 L 193,106 L 193,107 L 194,108 L 196,108 L 197,107 L 198,107 L 201,104 L 203,104 L 204,103 L 206,103 L 207,102 L 209,102 L 210,103 L 212,103 L 215,106 L 219,106 L 220,105 L 226,105 L 226,104 L 228,102 L 231,102 L 232,101 L 233,101 L 234,100 L 235,100 L 237,98 L 237,93 L 238,92 L 241,92 L 242,91 L 249,91 L 248,90 L 248,89 L 247,88 L 247,82 L 246,81 L 245,81 L 243,79 L 242,79 L 241,78 L 240,78 L 239,77 L 239,76 L 238,76 L 237,75 L 237,74 L 235,72 L 235,71 L 234,70 Z" fill="none" stroke="black" stroke-width="1"/>
</svg>