<svg xmlns="http://www.w3.org/2000/svg" width="749" height="389">
  <path d="M 569,262 L 568,263 L 566,263 L 565,264 L 564,264 L 563,265 L 563,267 L 562,268 L 562,269 L 561,270 L 560,270 L 556,274 L 548,274 L 543,279 L 543,280 L 541,282 L 541,283 L 540,284 L 540,285 L 539,286 L 539,291 L 540,291 L 541,292 L 541,300 L 542,301 L 542,302 L 543,303 L 542,304 L 545,307 L 545,308 L 546,309 L 546,310 L 549,313 L 549,316 L 550,317 L 551,317 L 552,318 L 553,318 L 554,317 L 556,319 L 558,317 L 559,317 L 561,315 L 561,312 L 562,311 L 563,311 L 564,310 L 565,310 L 567,312 L 569,312 L 570,313 L 570,315 L 571,314 L 575,314 L 576,313 L 577,313 L 577,310 L 576,309 L 576,306 L 577,305 L 577,304 L 578,303 L 579,303 L 580,302 L 582,302 L 582,297 L 584,295 L 585,295 L 587,293 L 588,293 L 588,291 L 587,290 L 587,288 L 588,287 L 588,284 L 587,283 L 587,282 L 584,279 L 584,276 L 587,273 L 587,272 L 586,271 L 586,268 L 588,266 L 588,265 L 587,265 L 586,264 L 584,264 L 582,262 Z" fill="none" stroke="black" stroke-width="1"/>
</svg>