<svg xmlns="http://www.w3.org/2000/svg" width="749" height="389">
  <path d="M 663,268 L 662,269 L 657,269 L 655,271 L 654,271 L 653,270 L 652,270 L 651,269 L 647,269 L 645,271 L 641,271 L 638,274 L 638,283 L 635,286 L 634,286 L 632,288 L 632,289 L 634,289 L 636,291 L 637,291 L 639,293 L 639,294 L 640,295 L 640,296 L 641,297 L 642,297 L 643,298 L 644,298 L 646,300 L 646,301 L 649,304 L 649,305 L 650,305 L 651,306 L 651,310 L 652,311 L 652,313 L 653,313 L 655,311 L 657,311 L 658,310 L 659,311 L 663,311 L 664,312 L 670,312 L 671,311 L 672,311 L 673,310 L 673,308 L 672,307 L 672,306 L 671,305 L 671,301 L 672,300 L 672,299 L 673,298 L 673,297 L 670,297 L 667,300 L 665,298 L 665,296 L 664,295 L 664,291 L 665,290 L 665,289 L 666,288 L 666,286 L 669,283 L 668,282 L 668,280 L 667,279 L 667,278 L 666,277 L 666,276 L 665,275 L 665,273 L 663,271 Z" fill="none" stroke="black" stroke-width="1"/>
</svg>