<svg xmlns="http://www.w3.org/2000/svg" width="749" height="389">
  <path d="M 622,210 L 621,211 L 620,211 L 619,212 L 617,212 L 615,214 L 613,214 L 612,213 L 610,213 L 610,214 L 609,215 L 609,216 L 608,217 L 600,217 L 599,218 L 598,218 L 598,222 L 599,223 L 600,223 L 601,224 L 601,227 L 602,227 L 603,228 L 604,228 L 605,229 L 606,229 L 607,230 L 608,230 L 613,235 L 615,235 L 619,239 L 619,240 L 624,245 L 626,245 L 628,247 L 628,248 L 629,249 L 629,250 L 632,250 L 632,249 L 633,248 L 633,247 L 634,246 L 634,244 L 635,243 L 635,242 L 637,240 L 637,235 L 638,234 L 638,231 L 640,229 L 643,229 L 644,228 L 645,228 L 646,227 L 645,226 L 645,225 L 644,224 L 644,223 L 643,222 L 643,221 L 644,220 L 644,218 L 645,217 L 645,213 L 646,212 L 636,212 L 634,210 L 631,210 L 630,211 L 625,211 L 624,210 Z" fill="none" stroke="black" stroke-width="1"/>
</svg>