<svg xmlns="http://www.w3.org/2000/svg" width="749" height="389">
  <path d="M 659,201 L 658,202 L 657,202 L 656,203 L 654,203 L 653,202 L 652,203 L 652,204 L 649,207 L 649,210 L 646,213 L 646,217 L 645,218 L 645,220 L 644,221 L 644,222 L 645,223 L 645,224 L 646,225 L 646,226 L 647,227 L 646,228 L 647,229 L 649,229 L 652,232 L 653,232 L 654,233 L 654,234 L 654,233 L 657,230 L 658,230 L 659,229 L 660,229 L 661,228 L 662,228 L 664,226 L 665,226 L 666,227 L 668,227 L 670,229 L 671,229 L 674,232 L 675,232 L 676,233 L 679,233 L 680,234 L 681,234 L 682,235 L 683,235 L 684,236 L 685,236 L 685,235 L 686,234 L 687,234 L 688,233 L 688,231 L 691,228 L 692,228 L 693,227 L 693,225 L 694,224 L 695,224 L 696,223 L 696,220 L 695,219 L 695,217 L 694,216 L 694,215 L 695,214 L 696,214 L 697,213 L 698,213 L 699,212 L 697,210 L 695,210 L 694,209 L 693,209 L 691,207 L 691,206 L 689,204 L 689,203 L 688,203 L 687,202 L 683,202 L 682,203 L 679,203 L 678,202 L 677,203 L 677,204 L 676,205 L 673,205 L 672,204 L 671,204 L 669,202 L 667,202 L 667,203 L 666,204 L 665,203 L 664,203 L 663,202 L 660,202 Z" fill="none" stroke="black" stroke-width="1"/>
</svg>