<svg xmlns="http://www.w3.org/2000/svg" width="749" height="389">
  <path d="M 692,252 L 691,253 L 690,253 L 689,254 L 687,254 L 687,255 L 686,256 L 686,257 L 684,259 L 683,259 L 681,261 L 680,261 L 679,262 L 671,262 L 670,261 L 668,261 L 667,260 L 664,260 L 663,261 L 662,261 L 662,262 L 664,264 L 664,271 L 666,273 L 666,275 L 667,276 L 667,277 L 668,278 L 668,279 L 669,280 L 669,282 L 670,283 L 671,282 L 672,282 L 674,284 L 676,282 L 676,280 L 677,279 L 678,279 L 679,278 L 682,278 L 683,279 L 685,279 L 684,278 L 684,277 L 686,275 L 687,275 L 688,276 L 689,276 L 690,277 L 691,277 L 692,278 L 693,278 L 694,277 L 696,277 L 697,276 L 697,274 L 699,272 L 701,272 L 703,270 L 703,269 L 702,268 L 702,267 L 703,266 L 703,265 L 702,264 L 702,262 L 699,259 L 699,258 L 700,257 L 700,255 L 698,253 L 697,253 L 696,254 L 694,254 Z" fill="none" stroke="black" stroke-width="1"/>
</svg>