<svg xmlns="http://www.w3.org/2000/svg" width="749" height="389">
  <path d="M 385,300 L 381,304 L 380,304 L 379,305 L 378,305 L 377,306 L 377,307 L 371,313 L 369,313 L 365,317 L 364,317 L 363,318 L 362,318 L 361,319 L 360,319 L 359,320 L 353,320 L 352,321 L 346,321 L 345,322 L 343,322 L 337,328 L 337,329 L 336,330 L 336,331 L 337,331 L 338,332 L 338,333 L 335,336 L 334,336 L 334,337 L 333,338 L 335,340 L 336,340 L 339,343 L 339,345 L 340,345 L 341,346 L 341,348 L 342,349 L 343,349 L 348,354 L 350,354 L 351,355 L 352,354 L 353,355 L 354,355 L 355,356 L 356,356 L 358,358 L 363,358 L 364,359 L 365,359 L 367,361 L 369,361 L 370,360 L 371,361 L 372,361 L 373,360 L 373,358 L 372,357 L 375,354 L 384,354 L 385,355 L 387,355 L 388,354 L 389,354 L 390,355 L 391,355 L 392,354 L 393,354 L 394,353 L 395,353 L 396,352 L 397,352 L 397,347 L 398,346 L 398,341 L 400,339 L 401,339 L 403,337 L 404,337 L 405,336 L 406,336 L 407,335 L 407,334 L 408,333 L 408,332 L 409,331 L 409,330 L 411,328 L 412,328 L 413,327 L 413,324 L 414,323 L 414,322 L 415,321 L 415,320 L 416,319 L 419,319 L 419,318 L 414,313 L 414,312 L 413,312 L 408,307 L 408,303 L 405,303 L 404,304 L 395,304 L 394,303 L 391,303 L 390,302 L 389,302 L 388,301 L 387,301 L 386,300 Z" fill="none" stroke="black" stroke-width="1"/>
</svg>