<svg xmlns="http://www.w3.org/2000/svg" width="749" height="389">
  <path d="M 399,240 L 398,241 L 395,241 L 394,242 L 390,242 L 389,243 L 388,243 L 387,244 L 386,244 L 385,245 L 384,245 L 383,246 L 381,246 L 380,247 L 371,247 L 370,248 L 370,251 L 371,252 L 371,253 L 372,254 L 373,254 L 374,255 L 376,255 L 377,256 L 377,258 L 376,259 L 376,269 L 377,270 L 377,273 L 375,275 L 375,280 L 371,284 L 370,284 L 368,286 L 367,286 L 367,292 L 370,295 L 371,295 L 372,296 L 380,296 L 381,297 L 382,297 L 383,298 L 384,298 L 385,299 L 386,299 L 387,300 L 388,300 L 389,301 L 390,301 L 391,302 L 394,302 L 395,303 L 404,303 L 405,302 L 408,302 L 408,297 L 410,295 L 410,294 L 411,293 L 411,291 L 412,290 L 412,288 L 414,286 L 414,285 L 415,284 L 415,280 L 418,277 L 418,276 L 419,275 L 419,273 L 420,272 L 420,268 L 418,266 L 418,265 L 416,263 L 416,262 L 415,261 L 415,258 L 416,257 L 416,254 L 414,252 L 413,252 L 412,251 L 411,251 L 408,248 L 408,247 L 407,246 L 406,246 L 401,241 L 401,240 Z" fill="none" stroke="black" stroke-width="1"/>
</svg>