<svg xmlns="http://www.w3.org/2000/svg" width="749" height="389">
  <path d="M 378,186 L 377,187 L 376,187 L 375,188 L 375,190 L 373,192 L 368,192 L 366,194 L 366,201 L 365,202 L 365,203 L 364,204 L 364,205 L 363,206 L 363,208 L 367,212 L 367,215 L 368,216 L 368,219 L 364,223 L 364,225 L 365,226 L 365,227 L 366,228 L 366,232 L 363,235 L 363,238 L 362,239 L 362,242 L 366,242 L 370,246 L 380,246 L 381,245 L 383,245 L 384,244 L 385,244 L 386,243 L 387,243 L 388,242 L 389,242 L 390,241 L 394,241 L 395,240 L 398,240 L 399,239 L 399,238 L 401,236 L 401,234 L 402,233 L 402,221 L 403,220 L 403,218 L 405,216 L 408,216 L 408,215 L 409,214 L 409,213 L 408,212 L 407,212 L 405,210 L 405,208 L 403,206 L 403,202 L 404,201 L 401,198 L 398,198 L 397,197 L 395,197 L 394,196 L 393,196 L 383,186 Z" fill="none" stroke="black" stroke-width="1"/>
</svg>