<svg xmlns="http://www.w3.org/2000/svg" width="749" height="389">
  <path d="M 321,100 L 320,101 L 320,103 L 319,104 L 319,105 L 316,108 L 312,108 L 312,109 L 311,110 L 311,113 L 310,114 L 307,114 L 307,117 L 306,118 L 306,121 L 304,123 L 304,124 L 305,125 L 306,125 L 307,126 L 307,127 L 306,128 L 307,129 L 307,130 L 308,131 L 309,131 L 310,132 L 311,132 L 312,133 L 315,133 L 317,135 L 317,136 L 319,138 L 319,141 L 320,141 L 321,142 L 324,142 L 325,141 L 326,141 L 327,142 L 331,142 L 332,143 L 337,143 L 338,144 L 339,144 L 340,145 L 349,145 L 350,144 L 351,144 L 352,143 L 356,143 L 357,144 L 359,144 L 360,145 L 364,145 L 365,146 L 367,146 L 368,147 L 369,147 L 371,145 L 370,145 L 369,144 L 369,143 L 370,142 L 370,141 L 373,138 L 373,137 L 376,134 L 377,134 L 376,133 L 374,133 L 373,132 L 373,130 L 374,129 L 372,127 L 372,123 L 371,122 L 371,118 L 372,117 L 371,116 L 369,116 L 368,115 L 366,115 L 365,114 L 364,114 L 363,113 L 361,113 L 360,114 L 358,114 L 357,113 L 356,113 L 355,112 L 354,112 L 353,111 L 351,111 L 350,110 L 349,110 L 348,109 L 347,109 L 346,108 L 337,108 L 336,107 L 335,107 L 333,105 L 329,105 L 328,104 L 326,104 L 324,102 L 323,102 Z" fill="none" stroke="black" stroke-width="1"/>
</svg>