<svg xmlns="http://www.w3.org/2000/svg" width="749" height="389">
  <path d="M 243,181 L 243,182 L 239,186 L 239,187 L 238,188 L 237,188 L 237,192 L 235,194 L 235,195 L 234,196 L 233,196 L 233,197 L 230,200 L 230,201 L 229,202 L 229,203 L 228,204 L 228,210 L 229,211 L 229,214 L 230,215 L 230,216 L 232,218 L 233,218 L 235,220 L 236,220 L 238,222 L 239,222 L 241,224 L 241,225 L 247,231 L 247,233 L 248,234 L 248,236 L 249,237 L 249,245 L 248,246 L 248,250 L 249,250 L 252,253 L 253,253 L 255,255 L 256,255 L 257,256 L 259,256 L 260,257 L 261,257 L 262,256 L 265,256 L 266,257 L 267,256 L 268,256 L 271,253 L 271,250 L 274,247 L 274,246 L 275,245 L 275,244 L 270,239 L 270,234 L 273,231 L 274,231 L 277,228 L 277,226 L 278,225 L 278,222 L 279,221 L 279,214 L 278,213 L 278,210 L 277,209 L 277,204 L 278,203 L 278,202 L 280,200 L 280,199 L 279,198 L 279,197 L 277,195 L 276,195 L 274,193 L 274,192 L 273,191 L 268,191 L 267,190 L 264,190 L 263,191 L 262,191 L 260,189 L 259,189 L 258,188 L 257,188 L 256,189 L 251,189 L 250,188 L 249,188 L 248,187 L 247,187 L 246,186 L 246,185 L 243,182 Z" fill="none" stroke="black" stroke-width="1"/>
</svg>