<svg xmlns="http://www.w3.org/2000/svg" width="749" height="389">
  <path d="M 173,151 L 173,152 L 172,153 L 171,152 L 170,152 L 170,153 L 169,154 L 168,154 L 167,155 L 166,155 L 165,154 L 164,154 L 163,155 L 154,155 L 153,156 L 153,158 L 151,160 L 150,160 L 149,161 L 148,161 L 149,162 L 149,164 L 147,166 L 147,167 L 148,168 L 150,168 L 152,170 L 150,172 L 151,173 L 153,173 L 154,174 L 156,174 L 157,175 L 158,175 L 160,177 L 160,180 L 165,180 L 166,181 L 166,183 L 167,184 L 170,184 L 171,183 L 174,183 L 178,187 L 180,187 L 181,186 L 182,186 L 183,187 L 183,188 L 185,190 L 187,190 L 188,191 L 188,192 L 189,193 L 189,194 L 189,192 L 190,191 L 193,191 L 194,190 L 195,190 L 196,189 L 197,189 L 198,188 L 202,188 L 202,187 L 203,186 L 203,181 L 202,180 L 202,179 L 203,178 L 205,178 L 206,177 L 206,172 L 205,171 L 201,171 L 199,169 L 199,168 L 197,166 L 197,165 L 196,164 L 195,164 L 192,161 L 192,160 L 191,160 L 188,157 L 188,156 L 187,155 L 187,154 L 185,154 L 183,152 L 181,152 L 179,154 L 178,154 L 176,152 L 176,151 Z" fill="none" stroke="black" stroke-width="1"/>
</svg>