<svg xmlns="http://www.w3.org/2000/svg" width="749" height="389">
  <path d="M 204,214 L 203,215 L 202,215 L 200,217 L 198,217 L 197,218 L 197,220 L 198,221 L 198,223 L 197,224 L 197,225 L 194,228 L 194,229 L 193,230 L 193,234 L 195,236 L 195,237 L 196,238 L 199,238 L 200,239 L 200,240 L 204,240 L 205,241 L 215,241 L 216,242 L 219,242 L 220,243 L 221,242 L 231,242 L 232,243 L 237,243 L 238,244 L 239,244 L 241,246 L 242,246 L 243,247 L 244,247 L 245,248 L 246,248 L 247,249 L 247,246 L 248,245 L 248,237 L 247,236 L 247,234 L 246,233 L 246,231 L 240,225 L 240,224 L 239,223 L 238,223 L 236,221 L 235,221 L 233,219 L 232,219 L 229,216 L 229,215 L 228,214 L 225,214 L 223,216 L 217,216 L 215,218 L 213,218 L 211,216 L 211,215 L 207,215 L 206,214 Z" fill="none" stroke="black" stroke-width="1"/>
</svg>