<svg xmlns="http://www.w3.org/2000/svg" width="749" height="389">
  <path d="M 171,184 L 170,185 L 167,185 L 166,186 L 166,187 L 168,189 L 168,192 L 167,193 L 167,194 L 166,195 L 166,196 L 165,197 L 164,197 L 163,196 L 162,197 L 161,196 L 159,196 L 159,197 L 157,199 L 157,200 L 156,201 L 155,201 L 154,202 L 153,202 L 153,208 L 152,209 L 152,210 L 151,211 L 151,212 L 150,213 L 149,212 L 144,212 L 143,213 L 142,213 L 140,215 L 140,218 L 139,219 L 139,220 L 138,221 L 137,221 L 135,223 L 135,225 L 136,226 L 136,231 L 137,232 L 137,233 L 140,236 L 141,236 L 142,237 L 143,237 L 144,238 L 146,238 L 147,239 L 148,239 L 149,240 L 150,240 L 151,241 L 153,241 L 158,246 L 159,246 L 160,247 L 161,247 L 162,248 L 163,248 L 164,247 L 166,247 L 168,249 L 169,249 L 170,250 L 171,250 L 172,249 L 172,248 L 173,247 L 173,246 L 174,245 L 175,245 L 175,244 L 176,243 L 176,242 L 178,240 L 179,240 L 180,239 L 183,239 L 184,240 L 185,239 L 192,239 L 193,238 L 195,238 L 194,237 L 194,236 L 192,234 L 192,230 L 193,229 L 193,228 L 196,225 L 196,224 L 197,223 L 197,221 L 196,220 L 196,218 L 197,217 L 197,215 L 198,214 L 198,213 L 197,212 L 198,211 L 198,210 L 197,209 L 197,208 L 196,207 L 196,206 L 195,205 L 194,205 L 193,204 L 193,203 L 190,200 L 190,199 L 189,198 L 189,195 L 188,194 L 188,193 L 187,192 L 187,191 L 185,191 L 182,188 L 182,187 L 181,187 L 180,188 L 178,188 L 174,184 Z" fill="none" stroke="black" stroke-width="1"/>
</svg>