<svg xmlns="http://www.w3.org/2000/svg" width="749" height="389">
  <path d="M 77,128 L 77,129 L 78,130 L 76,132 L 76,135 L 75,136 L 75,138 L 74,139 L 69,139 L 68,140 L 67,140 L 67,144 L 68,145 L 68,146 L 70,148 L 70,149 L 69,150 L 68,150 L 68,151 L 64,155 L 64,158 L 63,159 L 63,160 L 64,161 L 64,162 L 62,164 L 62,165 L 60,167 L 60,168 L 59,169 L 58,169 L 57,170 L 56,170 L 55,171 L 54,171 L 53,172 L 50,172 L 53,175 L 56,175 L 57,176 L 56,177 L 56,179 L 57,180 L 57,182 L 60,182 L 62,184 L 62,185 L 65,188 L 65,190 L 66,190 L 67,191 L 67,193 L 69,195 L 70,195 L 72,197 L 72,198 L 73,199 L 75,199 L 76,200 L 78,200 L 80,202 L 83,202 L 84,203 L 86,203 L 87,204 L 90,204 L 91,203 L 102,203 L 103,202 L 105,202 L 106,203 L 111,203 L 111,202 L 114,199 L 114,196 L 113,195 L 113,191 L 112,190 L 112,187 L 111,186 L 111,185 L 112,184 L 112,181 L 113,180 L 113,179 L 114,178 L 114,177 L 116,175 L 123,175 L 124,174 L 126,174 L 127,173 L 128,173 L 128,172 L 131,169 L 131,166 L 130,165 L 130,164 L 133,161 L 136,161 L 136,160 L 134,158 L 134,157 L 133,156 L 133,155 L 131,153 L 130,153 L 129,152 L 124,152 L 124,153 L 122,155 L 121,155 L 120,154 L 119,154 L 118,153 L 115,153 L 114,152 L 107,152 L 106,151 L 106,149 L 105,148 L 105,147 L 103,145 L 103,142 L 102,142 L 101,141 L 99,141 L 98,140 L 94,140 L 93,139 L 92,139 L 91,138 L 91,136 L 90,135 L 90,134 L 89,133 L 85,133 L 80,128 Z" fill="none" stroke="black" stroke-width="1"/>
</svg>