<svg xmlns="http://www.w3.org/2000/svg" width="710" height="350">
  <path d="M 427,24 L 424,27 L 423,27 L 422,28 L 422,29 L 421,30 L 414,30 L 413,31 L 408,31 L 408,32 L 405,35 L 405,36 L 404,37 L 403,37 L 402,36 L 400,36 L 399,37 L 399,42 L 398,43 L 398,47 L 399,48 L 399,50 L 400,51 L 400,52 L 399,53 L 399,54 L 398,55 L 398,57 L 400,57 L 401,58 L 401,59 L 400,60 L 400,62 L 401,62 L 403,64 L 403,65 L 405,67 L 406,67 L 407,68 L 407,69 L 408,70 L 408,71 L 409,72 L 410,72 L 411,73 L 411,74 L 412,75 L 412,78 L 413,78 L 414,79 L 414,80 L 415,80 L 416,81 L 416,82 L 417,83 L 417,84 L 418,83 L 419,84 L 421,84 L 421,83 L 422,82 L 422,78 L 423,77 L 423,76 L 424,75 L 424,72 L 425,71 L 425,70 L 426,69 L 427,69 L 427,68 L 428,67 L 429,67 L 430,66 L 431,66 L 433,64 L 433,63 L 437,59 L 437,58 L 438,57 L 441,57 L 442,56 L 444,56 L 446,54 L 446,50 L 448,48 L 448,45 L 447,44 L 447,43 L 446,42 L 446,37 L 445,36 L 444,36 L 442,34 L 442,33 L 441,32 L 441,31 L 440,30 L 439,30 L 438,29 L 436,29 L 435,28 L 434,28 L 433,27 L 432,27 L 429,24 Z" fill="none" stroke="black" stroke-width="1"/>
</svg>