<svg xmlns="http://www.w3.org/2000/svg" width="757" height="474">
  <path d="M 214,398 L 213,399 L 212,399 L 211,400 L 207,400 L 206,399 L 204,399 L 204,400 L 203,401 L 203,403 L 205,405 L 204,406 L 204,407 L 203,408 L 203,412 L 202,413 L 201,413 L 197,417 L 197,418 L 196,419 L 196,420 L 195,421 L 195,428 L 194,429 L 194,431 L 198,435 L 198,436 L 199,437 L 199,440 L 200,441 L 200,442 L 201,443 L 201,447 L 204,450 L 205,450 L 206,451 L 207,451 L 208,452 L 210,452 L 211,453 L 212,453 L 214,455 L 214,456 L 215,457 L 215,458 L 216,459 L 217,459 L 219,461 L 219,463 L 221,463 L 222,462 L 226,462 L 228,460 L 229,460 L 230,461 L 232,461 L 235,458 L 236,458 L 237,457 L 238,457 L 239,456 L 240,456 L 241,455 L 242,455 L 243,454 L 247,454 L 251,450 L 254,450 L 255,451 L 258,451 L 258,447 L 257,447 L 255,445 L 255,444 L 253,444 L 252,443 L 252,440 L 248,440 L 247,439 L 247,433 L 246,432 L 242,432 L 241,431 L 240,431 L 239,430 L 239,429 L 238,428 L 238,424 L 237,423 L 237,419 L 238,418 L 238,417 L 236,415 L 234,415 L 233,414 L 232,414 L 230,412 L 230,411 L 229,411 L 228,410 L 226,410 L 222,406 L 222,405 L 221,404 L 220,404 L 216,400 L 216,399 L 215,398 Z" fill="none" stroke="black" stroke-width="1"/>
</svg>