<svg xmlns="http://www.w3.org/2000/svg" width="757" height="474">
  <path d="M 270,380 L 269,381 L 268,381 L 267,382 L 266,382 L 266,384 L 263,387 L 263,388 L 261,390 L 256,390 L 254,388 L 250,388 L 249,387 L 241,387 L 240,386 L 238,386 L 237,385 L 236,385 L 235,386 L 234,386 L 233,385 L 232,385 L 230,383 L 229,383 L 228,384 L 228,385 L 227,386 L 226,386 L 227,387 L 227,390 L 226,391 L 222,391 L 221,390 L 221,389 L 220,389 L 219,388 L 214,388 L 214,396 L 217,399 L 217,400 L 220,403 L 221,403 L 223,405 L 223,406 L 226,409 L 228,409 L 229,410 L 230,410 L 231,411 L 231,412 L 232,413 L 233,413 L 234,414 L 236,414 L 239,417 L 239,418 L 238,419 L 238,423 L 239,424 L 239,428 L 240,429 L 240,430 L 241,430 L 242,431 L 246,431 L 248,433 L 248,439 L 252,439 L 253,440 L 253,443 L 255,443 L 256,444 L 256,445 L 257,446 L 258,446 L 259,447 L 259,453 L 260,453 L 262,455 L 263,455 L 264,456 L 266,456 L 267,457 L 267,458 L 270,458 L 271,459 L 272,459 L 272,458 L 274,456 L 274,455 L 275,454 L 276,454 L 276,450 L 274,448 L 274,446 L 278,442 L 278,440 L 274,436 L 275,435 L 275,434 L 276,433 L 276,431 L 274,429 L 277,426 L 278,426 L 278,417 L 279,416 L 279,415 L 280,414 L 280,413 L 282,411 L 282,409 L 281,408 L 281,407 L 279,405 L 279,402 L 280,401 L 280,397 L 275,392 L 275,386 L 270,381 Z" fill="none" stroke="black" stroke-width="1"/>
</svg>