<svg xmlns="http://www.w3.org/2000/svg" width="757" height="474">
  <path d="M 224,340 L 223,341 L 223,343 L 222,344 L 222,345 L 221,346 L 221,348 L 220,349 L 220,350 L 218,352 L 217,352 L 212,357 L 211,357 L 208,360 L 208,361 L 206,363 L 206,364 L 205,365 L 205,368 L 204,369 L 204,370 L 205,370 L 206,371 L 206,373 L 207,374 L 207,378 L 208,378 L 209,379 L 209,381 L 212,381 L 213,382 L 213,386 L 214,386 L 215,387 L 219,387 L 220,388 L 221,388 L 222,389 L 222,390 L 226,390 L 226,387 L 225,386 L 226,385 L 227,385 L 227,384 L 229,382 L 230,382 L 232,384 L 233,384 L 234,385 L 235,385 L 236,384 L 237,384 L 238,385 L 240,385 L 241,386 L 249,386 L 250,387 L 254,387 L 256,389 L 261,389 L 262,388 L 262,387 L 265,384 L 265,382 L 266,381 L 267,381 L 268,380 L 269,380 L 270,379 L 273,379 L 274,378 L 276,378 L 277,377 L 278,377 L 279,376 L 281,376 L 282,375 L 283,375 L 284,374 L 285,374 L 287,372 L 288,372 L 290,370 L 291,370 L 293,368 L 294,368 L 294,366 L 293,365 L 294,364 L 295,364 L 296,363 L 297,363 L 298,362 L 298,361 L 297,361 L 295,359 L 295,358 L 298,355 L 299,355 L 301,353 L 301,352 L 304,349 L 305,349 L 304,348 L 303,348 L 302,347 L 294,347 L 293,348 L 289,348 L 288,349 L 283,349 L 282,350 L 270,350 L 269,349 L 266,349 L 265,348 L 262,348 L 261,347 L 255,347 L 254,346 L 253,346 L 251,344 L 251,343 L 249,345 L 248,344 L 246,344 L 245,343 L 239,343 L 238,342 L 235,342 L 234,341 L 231,341 L 230,342 L 228,342 L 227,341 L 227,340 Z" fill="none" stroke="black" stroke-width="1"/>
</svg>