<svg xmlns="http://www.w3.org/2000/svg" width="757" height="474">
  <path d="M 167,340 L 166,341 L 166,343 L 163,346 L 161,346 L 161,347 L 159,349 L 159,350 L 155,354 L 154,354 L 154,355 L 152,357 L 150,357 L 149,358 L 148,358 L 146,360 L 146,361 L 145,362 L 148,365 L 148,371 L 149,372 L 151,372 L 153,374 L 153,375 L 152,376 L 151,376 L 151,379 L 152,380 L 152,381 L 151,382 L 149,382 L 150,383 L 150,385 L 151,386 L 153,384 L 155,384 L 156,385 L 156,386 L 158,386 L 159,385 L 159,384 L 160,383 L 163,383 L 165,385 L 166,385 L 164,383 L 164,381 L 165,380 L 166,380 L 170,384 L 169,385 L 170,385 L 171,386 L 178,386 L 180,388 L 180,389 L 184,389 L 185,390 L 187,390 L 187,389 L 189,387 L 191,387 L 192,388 L 191,389 L 191,391 L 190,392 L 186,392 L 186,393 L 185,394 L 185,395 L 183,397 L 184,398 L 185,398 L 186,399 L 185,400 L 186,400 L 187,399 L 188,399 L 188,398 L 189,397 L 190,397 L 191,396 L 196,396 L 197,397 L 198,397 L 200,399 L 201,399 L 202,398 L 206,398 L 207,399 L 211,399 L 212,398 L 213,398 L 214,397 L 213,396 L 213,388 L 214,387 L 213,387 L 212,386 L 212,382 L 209,382 L 208,381 L 208,379 L 207,379 L 206,378 L 206,374 L 205,373 L 205,371 L 202,371 L 201,370 L 195,370 L 194,369 L 194,368 L 190,368 L 189,367 L 189,366 L 187,366 L 186,365 L 186,364 L 185,363 L 185,353 L 186,352 L 189,352 L 189,350 L 188,350 L 186,348 L 186,347 L 182,347 L 181,346 L 180,346 L 179,345 L 179,344 L 175,344 L 173,342 L 169,342 Z" fill="none" stroke="black" stroke-width="1"/>
</svg>