<svg xmlns="http://www.w3.org/2000/svg" width="757" height="474">
  <path d="M 138,302 L 137,303 L 136,303 L 136,306 L 133,309 L 133,310 L 134,311 L 133,312 L 133,313 L 132,314 L 131,314 L 131,317 L 128,320 L 128,321 L 127,322 L 127,323 L 128,324 L 127,325 L 127,326 L 126,327 L 126,330 L 127,331 L 125,333 L 127,335 L 127,336 L 126,337 L 125,337 L 124,338 L 124,339 L 122,341 L 122,342 L 120,344 L 119,344 L 118,345 L 117,345 L 115,347 L 114,347 L 113,348 L 113,350 L 112,351 L 112,358 L 113,359 L 114,359 L 115,360 L 116,360 L 115,359 L 115,358 L 116,357 L 117,358 L 119,358 L 120,359 L 120,360 L 122,358 L 123,359 L 127,359 L 128,360 L 129,360 L 132,363 L 135,363 L 136,364 L 139,361 L 141,361 L 142,360 L 145,360 L 148,357 L 149,357 L 150,356 L 152,356 L 153,355 L 153,354 L 154,353 L 155,353 L 158,350 L 158,349 L 160,347 L 160,346 L 161,345 L 163,345 L 165,343 L 165,341 L 166,340 L 163,337 L 162,337 L 160,335 L 161,334 L 161,333 L 160,332 L 159,332 L 158,331 L 158,329 L 159,328 L 159,326 L 157,324 L 157,323 L 158,322 L 158,319 L 155,316 L 155,312 L 153,310 L 153,308 L 151,308 L 149,306 L 142,306 L 141,305 L 140,305 L 139,304 L 139,303 Z" fill="none" stroke="black" stroke-width="1"/>
</svg>