<svg xmlns="http://www.w3.org/2000/svg" width="710" height="350">
  <path d="M 65,36 L 65,40 L 66,41 L 66,45 L 67,46 L 68,46 L 69,47 L 70,47 L 71,48 L 71,52 L 72,52 L 74,54 L 74,55 L 75,56 L 75,58 L 76,59 L 76,60 L 80,64 L 80,69 L 79,70 L 78,70 L 78,75 L 81,75 L 82,76 L 84,76 L 89,81 L 89,82 L 90,83 L 90,84 L 91,85 L 91,86 L 94,89 L 95,89 L 96,90 L 97,90 L 98,91 L 99,91 L 101,93 L 107,93 L 108,94 L 110,94 L 111,95 L 112,95 L 113,96 L 114,96 L 114,92 L 115,91 L 117,91 L 122,96 L 122,97 L 123,98 L 123,100 L 124,100 L 128,96 L 132,96 L 130,94 L 130,93 L 126,89 L 126,88 L 127,87 L 127,86 L 128,85 L 128,80 L 129,79 L 129,78 L 131,76 L 131,75 L 132,74 L 132,73 L 135,70 L 134,70 L 133,69 L 134,68 L 134,64 L 133,63 L 133,62 L 131,60 L 127,60 L 126,59 L 125,59 L 124,58 L 123,58 L 122,57 L 121,57 L 120,56 L 119,56 L 117,54 L 116,54 L 115,53 L 111,53 L 110,52 L 95,52 L 92,49 L 92,46 L 90,44 L 89,44 L 88,43 L 87,43 L 86,42 L 85,42 L 82,39 L 81,39 L 79,37 L 78,37 L 77,36 L 76,36 L 73,39 L 72,38 L 71,38 L 69,36 Z" fill="none" stroke="black" stroke-width="1"/>
</svg>