<svg xmlns="http://www.w3.org/2000/svg" width="757" height="474">
  <path d="M 123,173 L 122,174 L 121,174 L 121,175 L 120,176 L 116,176 L 116,177 L 115,178 L 114,178 L 113,179 L 112,179 L 110,181 L 105,181 L 103,183 L 102,183 L 101,184 L 100,184 L 100,185 L 99,186 L 98,186 L 97,187 L 96,187 L 95,188 L 95,189 L 92,192 L 91,192 L 88,195 L 87,195 L 86,196 L 86,197 L 83,200 L 82,200 L 82,201 L 81,202 L 83,204 L 83,206 L 84,207 L 84,210 L 85,211 L 85,225 L 86,226 L 86,229 L 87,230 L 87,235 L 88,236 L 88,237 L 89,238 L 89,239 L 90,240 L 90,241 L 91,242 L 92,242 L 94,240 L 95,240 L 96,239 L 98,239 L 99,238 L 103,238 L 104,239 L 109,239 L 111,241 L 113,241 L 115,243 L 119,243 L 120,244 L 124,244 L 125,245 L 125,246 L 126,246 L 127,245 L 129,245 L 130,244 L 132,244 L 133,243 L 135,243 L 136,242 L 137,242 L 138,241 L 139,241 L 141,243 L 143,243 L 143,241 L 144,240 L 147,240 L 150,237 L 155,237 L 156,238 L 159,238 L 160,237 L 161,237 L 161,236 L 160,236 L 153,229 L 153,228 L 152,227 L 152,225 L 151,224 L 151,218 L 150,217 L 150,205 L 149,204 L 149,190 L 148,189 L 148,179 L 147,179 L 146,178 L 146,177 L 145,177 L 144,176 L 143,176 L 142,175 L 141,176 L 135,176 L 134,177 L 133,177 L 131,175 L 130,175 L 129,174 L 128,174 L 127,173 L 126,174 L 125,173 Z" fill="none" stroke="black" stroke-width="1"/>
</svg>