<svg xmlns="http://www.w3.org/2000/svg" width="757" height="474">
  <path d="M 41,395 L 40,396 L 40,399 L 37,402 L 35,402 L 34,403 L 34,404 L 28,410 L 27,410 L 26,411 L 25,411 L 23,413 L 22,413 L 21,414 L 21,415 L 18,418 L 16,418 L 15,419 L 12,419 L 12,420 L 11,421 L 4,421 L 4,422 L 3,423 L 3,424 L 2,425 L 2,426 L 1,427 L 0,427 L 0,434 L 1,435 L 1,443 L 17,443 L 19,445 L 20,445 L 21,446 L 22,446 L 25,449 L 26,449 L 27,450 L 28,450 L 29,451 L 30,451 L 32,453 L 33,453 L 34,454 L 35,454 L 38,457 L 38,459 L 39,460 L 39,461 L 40,462 L 41,461 L 42,461 L 44,459 L 45,459 L 46,458 L 47,458 L 48,457 L 49,457 L 50,456 L 51,456 L 53,454 L 55,454 L 56,453 L 58,453 L 59,452 L 61,452 L 62,451 L 72,451 L 73,452 L 75,452 L 75,447 L 77,445 L 77,443 L 76,442 L 76,440 L 74,438 L 74,437 L 73,436 L 73,431 L 80,424 L 80,423 L 81,422 L 81,421 L 80,420 L 80,419 L 78,417 L 78,415 L 76,415 L 72,411 L 72,410 L 71,409 L 71,408 L 70,407 L 70,406 L 69,405 L 68,405 L 67,404 L 65,404 L 62,401 L 61,401 L 60,400 L 51,400 L 50,399 L 50,398 L 49,397 L 48,397 L 47,396 L 46,396 L 45,395 Z" fill="none" stroke="black" stroke-width="1"/>
</svg>