<svg xmlns="http://www.w3.org/2000/svg" width="710" height="350">
  <path d="M 574,286 L 573,287 L 572,287 L 572,289 L 567,294 L 566,294 L 565,295 L 563,295 L 562,296 L 561,296 L 560,297 L 558,297 L 557,298 L 555,298 L 554,299 L 552,299 L 551,300 L 550,300 L 549,301 L 548,301 L 547,302 L 545,302 L 544,303 L 544,305 L 543,306 L 543,309 L 544,310 L 544,311 L 542,313 L 542,315 L 544,317 L 544,319 L 545,320 L 545,322 L 546,323 L 546,327 L 547,328 L 547,332 L 545,334 L 545,335 L 544,336 L 544,339 L 545,340 L 546,339 L 549,339 L 550,338 L 551,338 L 553,340 L 553,341 L 555,341 L 558,338 L 558,337 L 568,327 L 570,327 L 571,326 L 573,326 L 574,325 L 575,325 L 576,324 L 578,324 L 579,323 L 580,324 L 584,324 L 586,322 L 587,322 L 588,321 L 589,321 L 590,320 L 593,320 L 594,319 L 597,319 L 597,318 L 594,315 L 594,311 L 593,310 L 591,310 L 590,309 L 590,304 L 589,304 L 587,302 L 587,300 L 585,298 L 585,297 L 584,296 L 584,294 L 583,294 L 582,295 L 581,295 L 579,293 L 580,292 L 580,289 L 577,286 Z" fill="none" stroke="black" stroke-width="1"/>
</svg>