<svg xmlns="http://www.w3.org/2000/svg" width="241" height="225">
  <path d="M 103,144 L 102,145 L 99,145 L 99,146 L 101,148 L 101,149 L 102,149 L 101,148 L 102,147 L 103,147 L 104,148 L 107,148 L 108,149 L 108,151 L 107,152 L 106,152 L 105,151 L 102,151 L 102,152 L 101,153 L 100,153 L 99,154 L 99,157 L 100,157 L 101,156 L 101,154 L 102,153 L 103,154 L 104,154 L 106,156 L 106,157 L 107,158 L 107,160 L 108,161 L 108,162 L 109,161 L 110,161 L 111,160 L 112,160 L 113,161 L 116,161 L 117,160 L 122,160 L 123,161 L 126,161 L 127,160 L 128,160 L 128,158 L 129,157 L 128,156 L 126,156 L 124,154 L 124,152 L 123,152 L 122,151 L 122,150 L 121,150 L 118,147 L 118,146 L 117,145 L 117,144 L 116,144 L 115,145 L 114,145 L 113,146 L 112,146 L 111,145 L 110,145 L 109,144 L 108,144 L 107,145 L 106,144 Z" fill="none" stroke="black" stroke-width="1"/>
</svg>