<svg xmlns="http://www.w3.org/2000/svg" width="333" height="139">
  <path d="M 52,50 L 50,52 L 49,52 L 48,53 L 47,53 L 47,54 L 48,55 L 50,55 L 50,54 L 51,53 L 53,53 L 54,54 L 53,55 L 52,55 L 52,57 L 58,57 L 56,55 L 56,54 L 54,52 L 54,51 L 53,51 Z" fill="none" stroke="black" stroke-width="1"/>
  <path d="M 35,38 L 34,39 L 34,41 L 35,42 L 36,42 L 36,41 L 37,40 L 38,41 L 38,42 L 39,42 L 39,40 L 40,39 L 40,38 Z" fill="none" stroke="black" stroke-width="1"/>
  <path d="M 45,35 L 44,36 L 48,36 L 48,35 Z" fill="none" stroke="black" stroke-width="1"/>
  <path d="M 40,28 L 40,30 L 42,32 L 43,32 L 43,30 L 42,29 L 42,28 Z" fill="none" stroke="black" stroke-width="1"/>
</svg>