<svg xmlns="http://www.w3.org/2000/svg" width="710" height="350">
  <path d="M 171,77 L 170,78 L 169,78 L 168,79 L 167,79 L 166,80 L 165,80 L 164,81 L 161,81 L 160,82 L 157,82 L 155,84 L 154,84 L 153,85 L 152,85 L 151,86 L 150,86 L 148,88 L 146,88 L 143,91 L 142,91 L 141,92 L 140,92 L 138,94 L 137,94 L 137,95 L 136,96 L 133,96 L 132,97 L 128,97 L 124,101 L 123,101 L 124,102 L 124,103 L 126,105 L 126,106 L 127,106 L 129,108 L 129,109 L 130,110 L 130,111 L 131,112 L 131,122 L 136,127 L 137,127 L 143,133 L 143,135 L 144,136 L 145,136 L 146,137 L 147,137 L 148,138 L 148,139 L 149,139 L 153,143 L 153,144 L 155,146 L 155,147 L 156,148 L 156,149 L 157,150 L 157,155 L 163,155 L 164,154 L 168,154 L 170,152 L 171,152 L 172,151 L 173,151 L 174,150 L 175,150 L 176,149 L 176,147 L 177,146 L 177,145 L 179,143 L 179,141 L 180,140 L 180,139 L 182,137 L 182,136 L 183,135 L 183,132 L 186,129 L 187,129 L 188,128 L 193,128 L 194,127 L 198,127 L 198,125 L 196,123 L 197,122 L 203,122 L 204,123 L 204,125 L 205,126 L 205,125 L 206,124 L 207,124 L 207,123 L 206,122 L 205,122 L 203,120 L 203,119 L 202,119 L 201,118 L 201,117 L 200,116 L 200,115 L 197,112 L 197,111 L 196,110 L 196,109 L 195,108 L 195,102 L 194,101 L 194,100 L 192,98 L 191,98 L 190,97 L 189,97 L 187,95 L 186,95 L 183,92 L 182,92 L 181,91 L 180,91 L 175,86 L 175,85 L 174,84 L 174,83 L 173,82 L 173,81 L 172,80 L 172,77 Z" fill="none" stroke="black" stroke-width="1"/>
</svg>