<svg xmlns="http://www.w3.org/2000/svg" width="241" height="225">
  <path d="M 124,165 L 125,166 L 125,169 L 122,172 L 122,176 L 125,176 L 126,175 L 127,175 L 128,174 L 129,174 L 130,173 L 132,173 L 134,175 L 134,176 L 136,176 L 137,177 L 138,177 L 139,178 L 138,179 L 138,180 L 139,181 L 142,178 L 144,178 L 142,176 L 141,177 L 139,175 L 139,174 L 138,173 L 138,171 L 137,171 L 136,170 L 136,169 L 134,169 L 133,168 L 132,168 L 130,166 L 128,166 L 127,165 Z" fill="none" stroke="black" stroke-width="1"/>
</svg>