<svg xmlns="http://www.w3.org/2000/svg" width="241" height="225">
  <path d="M 135,99 L 134,100 L 132,100 L 131,101 L 131,102 L 130,103 L 128,103 L 127,104 L 127,105 L 126,106 L 123,106 L 122,107 L 120,107 L 119,108 L 118,108 L 117,109 L 117,111 L 118,112 L 121,112 L 122,113 L 122,115 L 123,116 L 128,116 L 129,115 L 131,115 L 132,114 L 133,114 L 134,113 L 135,113 L 135,112 L 136,111 L 137,111 L 138,112 L 138,113 L 140,111 L 141,111 L 142,112 L 147,112 L 148,111 L 150,111 L 151,112 L 152,111 L 153,112 L 154,112 L 155,111 L 155,105 L 154,104 L 151,104 L 149,102 L 147,102 L 145,100 L 140,100 L 139,99 Z" fill="none" stroke="black" stroke-width="1"/>
</svg>