<svg xmlns="http://www.w3.org/2000/svg" width="241" height="225">
  <path d="M 129,81 L 129,83 L 127,85 L 126,85 L 125,86 L 124,86 L 123,87 L 123,88 L 124,88 L 125,89 L 125,90 L 126,91 L 127,91 L 128,92 L 131,92 L 132,93 L 133,93 L 136,96 L 136,98 L 139,98 L 140,99 L 145,99 L 147,101 L 149,101 L 151,103 L 157,103 L 158,102 L 159,102 L 158,101 L 158,99 L 152,93 L 152,92 L 153,91 L 153,90 L 152,89 L 150,91 L 149,90 L 149,89 L 147,89 L 146,88 L 144,88 L 143,89 L 142,88 L 138,88 L 137,87 L 137,85 L 136,84 L 135,84 L 133,82 L 132,83 L 131,83 L 130,82 L 130,81 Z" fill="none" stroke="black" stroke-width="1"/>
</svg>