<svg xmlns="http://www.w3.org/2000/svg" width="241" height="225">
  <path d="M 198,52 L 197,53 L 196,53 L 194,55 L 192,55 L 188,59 L 185,59 L 184,60 L 178,60 L 177,61 L 176,61 L 176,62 L 173,65 L 173,71 L 174,71 L 175,72 L 175,74 L 176,74 L 177,75 L 177,76 L 179,78 L 185,78 L 186,77 L 189,77 L 190,78 L 193,78 L 194,77 L 195,77 L 195,76 L 196,75 L 198,75 L 199,74 L 201,74 L 202,73 L 202,72 L 201,71 L 201,70 L 202,69 L 202,68 L 204,66 L 204,65 L 205,64 L 204,63 L 204,62 L 205,61 L 205,60 L 204,59 L 204,58 L 206,56 L 206,53 L 205,53 L 204,52 Z" fill="none" stroke="black" stroke-width="1"/>
</svg>