<svg xmlns="http://www.w3.org/2000/svg" width="241" height="225">
  <path d="M 162,116 L 161,117 L 161,118 L 162,119 L 164,119 L 164,117 L 163,116 Z" fill="none" stroke="black" stroke-width="1"/>
  <path d="M 165,97 L 164,98 L 162,98 L 162,99 L 161,100 L 161,101 L 159,103 L 158,103 L 157,104 L 155,104 L 156,105 L 156,111 L 155,112 L 156,113 L 156,114 L 157,114 L 159,112 L 161,112 L 162,113 L 162,114 L 165,114 L 167,112 L 168,112 L 169,111 L 170,111 L 171,112 L 171,113 L 172,112 L 173,112 L 174,113 L 176,113 L 177,114 L 182,114 L 184,116 L 187,113 L 187,111 L 186,110 L 186,105 L 183,102 L 183,101 L 180,101 L 179,102 L 178,102 L 177,101 L 176,101 L 175,100 L 173,102 L 171,100 L 169,100 L 168,99 L 166,99 L 165,98 Z" fill="none" stroke="black" stroke-width="1"/>
</svg>