<svg xmlns="http://www.w3.org/2000/svg" width="241" height="225">
  <path d="M 218,26 L 218,28 L 217,29 L 217,33 L 218,34 L 217,35 L 217,36 L 216,37 L 216,39 L 217,40 L 217,41 L 218,42 L 218,44 L 223,44 L 226,47 L 227,47 L 227,46 L 229,44 L 229,42 L 228,41 L 229,40 L 229,39 L 228,39 L 227,38 L 229,36 L 231,36 L 232,37 L 232,39 L 233,40 L 237,40 L 238,39 L 239,39 L 240,38 L 240,33 L 238,31 L 238,30 L 237,29 L 236,29 L 235,28 L 232,28 L 231,29 L 229,29 L 228,30 L 227,30 L 226,29 L 224,29 L 223,28 L 221,28 L 219,26 Z" fill="none" stroke="black" stroke-width="1"/>
</svg>