<svg xmlns="http://www.w3.org/2000/svg" width="710" height="350">
  <path d="M 156,28 L 155,29 L 151,29 L 150,30 L 149,30 L 147,32 L 145,32 L 144,33 L 144,34 L 142,36 L 144,38 L 143,39 L 144,40 L 142,42 L 141,42 L 141,43 L 140,44 L 138,44 L 137,45 L 137,46 L 136,47 L 136,50 L 135,51 L 134,51 L 134,52 L 133,53 L 133,54 L 131,56 L 131,57 L 132,58 L 131,59 L 134,62 L 134,63 L 135,64 L 135,68 L 134,69 L 135,69 L 136,70 L 133,73 L 133,74 L 132,75 L 132,76 L 130,78 L 130,79 L 129,80 L 129,85 L 128,86 L 128,87 L 127,88 L 127,89 L 131,93 L 131,94 L 132,95 L 136,95 L 136,94 L 137,93 L 138,93 L 140,91 L 141,91 L 142,90 L 143,90 L 146,87 L 148,87 L 150,85 L 151,85 L 152,84 L 153,84 L 154,83 L 155,83 L 157,81 L 160,81 L 161,80 L 164,80 L 165,79 L 166,79 L 167,78 L 168,78 L 169,77 L 170,77 L 171,76 L 172,76 L 172,75 L 173,74 L 174,74 L 176,72 L 177,72 L 178,71 L 178,70 L 181,67 L 181,61 L 182,60 L 182,59 L 183,58 L 183,57 L 184,56 L 185,56 L 188,53 L 189,53 L 191,51 L 191,44 L 193,42 L 194,42 L 194,41 L 196,39 L 196,38 L 197,37 L 196,36 L 189,36 L 188,35 L 187,35 L 185,33 L 184,33 L 182,31 L 182,28 L 181,29 L 163,29 L 162,28 Z" fill="none" stroke="black" stroke-width="1"/>
</svg>