<svg xmlns="http://www.w3.org/2000/svg" width="404" height="430">
  <path d="M 114,346 L 114,351 L 115,352 L 112,355 L 110,355 L 109,356 L 106,356 L 105,357 L 105,358 L 106,358 L 107,359 L 107,361 L 106,362 L 106,363 L 104,365 L 100,365 L 99,366 L 98,366 L 97,367 L 97,368 L 96,369 L 96,370 L 95,371 L 95,372 L 94,373 L 94,376 L 93,377 L 95,379 L 95,380 L 96,381 L 97,381 L 98,382 L 100,382 L 102,384 L 102,386 L 103,387 L 103,388 L 106,388 L 107,389 L 108,389 L 109,390 L 116,390 L 119,387 L 119,386 L 118,385 L 118,384 L 121,381 L 122,381 L 123,382 L 128,382 L 128,381 L 129,380 L 129,379 L 132,376 L 132,375 L 133,374 L 133,371 L 132,371 L 131,370 L 131,369 L 132,368 L 132,365 L 131,364 L 132,363 L 132,362 L 133,361 L 133,359 L 134,358 L 134,357 L 135,356 L 135,355 L 136,354 L 136,353 L 137,352 L 137,350 L 136,349 L 132,349 L 131,348 L 130,348 L 129,347 L 128,347 L 126,349 L 120,349 L 119,348 L 118,348 L 117,347 L 116,347 L 115,346 Z" fill="none" stroke="black" stroke-width="1"/>
</svg>