<svg xmlns="http://www.w3.org/2000/svg" width="404" height="430">
  <path d="M 203,300 L 203,305 L 204,306 L 205,306 L 206,307 L 207,307 L 208,308 L 208,311 L 205,314 L 204,313 L 202,313 L 202,315 L 201,316 L 201,317 L 202,318 L 202,321 L 199,324 L 198,324 L 197,325 L 196,325 L 195,326 L 194,326 L 193,327 L 189,327 L 188,328 L 188,330 L 187,331 L 187,332 L 186,333 L 185,333 L 184,334 L 181,334 L 181,335 L 179,337 L 179,341 L 180,342 L 180,343 L 181,344 L 181,348 L 182,349 L 182,352 L 183,353 L 184,352 L 190,352 L 192,350 L 194,350 L 195,349 L 199,349 L 200,350 L 201,350 L 202,351 L 203,351 L 204,352 L 209,352 L 210,353 L 211,353 L 213,355 L 214,355 L 215,356 L 218,356 L 219,357 L 228,357 L 229,356 L 230,356 L 231,355 L 236,355 L 237,356 L 238,356 L 240,354 L 240,353 L 241,352 L 241,348 L 240,347 L 238,347 L 237,346 L 234,346 L 231,343 L 231,342 L 230,341 L 230,339 L 229,338 L 229,329 L 228,328 L 228,324 L 227,323 L 227,320 L 226,319 L 226,318 L 225,317 L 225,316 L 224,315 L 224,314 L 223,313 L 223,308 L 222,307 L 222,306 L 221,305 L 221,304 L 219,304 L 218,303 L 216,303 L 215,302 L 215,301 L 208,301 L 207,300 Z" fill="none" stroke="black" stroke-width="1"/>
</svg>