<svg xmlns="http://www.w3.org/2000/svg" width="194" height="141">
  <path d="M 137,36 L 136,37 L 134,37 L 134,40 L 133,41 L 133,45 L 132,46 L 132,47 L 131,48 L 131,52 L 132,52 L 133,51 L 134,51 L 135,50 L 137,50 L 139,48 L 140,48 L 139,47 L 140,46 L 141,46 L 142,47 L 142,46 L 143,45 L 144,45 L 145,46 L 146,46 L 146,45 L 147,44 L 148,45 L 149,45 L 151,43 L 152,43 L 152,41 L 153,40 L 153,39 L 147,39 L 146,38 L 145,38 L 144,37 L 143,37 L 142,36 Z" fill="none" stroke="black" stroke-width="1"/>
</svg>