<svg xmlns="http://www.w3.org/2000/svg" width="710" height="350">
  <path d="M 362,23 L 362,25 L 361,26 L 361,27 L 359,29 L 359,30 L 357,32 L 357,33 L 356,34 L 355,34 L 354,35 L 353,35 L 352,36 L 351,36 L 350,37 L 348,37 L 347,38 L 345,38 L 342,41 L 342,43 L 341,44 L 341,45 L 338,48 L 334,48 L 333,49 L 331,49 L 330,50 L 329,50 L 325,54 L 324,54 L 318,60 L 313,60 L 312,61 L 311,61 L 310,62 L 309,62 L 308,63 L 306,63 L 305,64 L 304,64 L 302,66 L 301,66 L 300,67 L 299,67 L 297,69 L 297,70 L 293,74 L 294,75 L 296,75 L 298,77 L 299,77 L 301,79 L 302,79 L 305,82 L 306,82 L 309,85 L 319,85 L 320,84 L 323,84 L 324,83 L 331,83 L 332,84 L 334,84 L 336,82 L 337,82 L 338,81 L 339,81 L 339,77 L 341,75 L 342,75 L 344,73 L 345,73 L 348,70 L 349,70 L 352,67 L 354,67 L 355,66 L 358,66 L 359,65 L 361,65 L 363,67 L 376,67 L 380,63 L 381,63 L 383,61 L 384,61 L 385,60 L 386,60 L 387,59 L 387,58 L 388,57 L 397,57 L 397,55 L 398,54 L 398,53 L 399,52 L 399,51 L 398,50 L 398,48 L 397,47 L 397,43 L 398,42 L 398,37 L 399,36 L 399,35 L 397,35 L 395,33 L 395,32 L 394,31 L 394,30 L 393,30 L 391,28 L 387,28 L 386,27 L 381,27 L 380,26 L 378,26 L 375,23 Z" fill="none" stroke="black" stroke-width="1"/>
</svg>