<svg xmlns="http://www.w3.org/2000/svg" width="241" height="225">
  <path d="M 12,55 L 12,57 L 13,57 L 14,58 L 15,58 L 15,57 L 13,55 Z" fill="none" stroke="black" stroke-width="1"/>
  <path d="M 8,42 L 8,43 L 11,46 L 12,46 L 13,47 L 13,48 L 14,49 L 14,51 L 21,58 L 22,58 L 23,59 L 22,60 L 24,60 L 25,59 L 28,59 L 29,60 L 30,60 L 31,59 L 32,59 L 33,58 L 34,58 L 35,57 L 36,57 L 36,56 L 35,55 L 34,55 L 33,54 L 33,53 L 32,52 L 31,52 L 30,53 L 27,53 L 26,52 L 17,52 L 16,51 L 15,51 L 14,50 L 15,49 L 15,48 L 14,47 L 14,46 L 12,44 L 10,44 Z" fill="none" stroke="black" stroke-width="1"/>
</svg>