<svg xmlns="http://www.w3.org/2000/svg" width="710" height="350">
  <path d="M 388,58 L 388,59 L 386,61 L 385,61 L 384,62 L 383,62 L 381,64 L 380,64 L 377,67 L 377,73 L 375,75 L 375,83 L 374,84 L 374,86 L 372,88 L 372,89 L 371,90 L 371,91 L 370,92 L 370,93 L 369,94 L 369,106 L 368,107 L 368,110 L 367,111 L 367,117 L 368,118 L 368,120 L 369,121 L 369,122 L 370,123 L 370,124 L 371,125 L 372,125 L 375,128 L 376,128 L 378,130 L 378,131 L 379,131 L 381,133 L 381,135 L 384,138 L 384,139 L 388,143 L 389,143 L 392,146 L 392,147 L 394,149 L 395,148 L 396,148 L 397,147 L 398,147 L 400,145 L 401,145 L 401,144 L 402,143 L 403,143 L 404,142 L 405,142 L 412,135 L 412,134 L 415,131 L 416,132 L 416,130 L 418,128 L 417,128 L 416,127 L 419,124 L 420,125 L 421,124 L 422,124 L 422,122 L 425,119 L 426,120 L 427,119 L 428,119 L 428,118 L 429,117 L 431,117 L 431,115 L 433,113 L 437,113 L 438,112 L 438,111 L 437,110 L 437,108 L 436,107 L 436,105 L 437,104 L 436,104 L 435,103 L 435,102 L 434,101 L 435,100 L 435,95 L 434,94 L 433,95 L 432,94 L 429,94 L 428,93 L 427,94 L 426,93 L 426,92 L 425,91 L 426,90 L 424,88 L 425,87 L 424,86 L 424,85 L 419,85 L 418,84 L 417,85 L 416,84 L 416,83 L 415,82 L 415,81 L 414,81 L 413,80 L 413,79 L 412,79 L 411,78 L 411,75 L 410,74 L 410,73 L 409,73 L 407,71 L 407,70 L 406,69 L 406,68 L 405,68 L 402,65 L 402,64 L 401,63 L 400,63 L 399,62 L 399,60 L 400,59 L 400,58 Z" fill="none" stroke="black" stroke-width="1"/>
</svg>