<svg xmlns="http://www.w3.org/2000/svg" width="710" height="350">
  <path d="M 479,27 L 475,31 L 471,31 L 470,32 L 469,32 L 468,33 L 467,33 L 466,34 L 465,34 L 464,35 L 463,35 L 460,38 L 458,38 L 457,37 L 456,37 L 454,39 L 450,39 L 449,40 L 447,40 L 447,42 L 448,43 L 448,44 L 449,45 L 449,48 L 447,50 L 447,53 L 449,55 L 450,55 L 454,59 L 455,59 L 456,60 L 457,60 L 459,62 L 469,62 L 470,63 L 470,64 L 469,65 L 470,66 L 470,67 L 471,67 L 472,68 L 471,69 L 471,70 L 472,71 L 474,71 L 475,72 L 478,72 L 479,73 L 481,73 L 482,74 L 486,74 L 487,73 L 490,73 L 491,74 L 499,74 L 500,73 L 500,72 L 501,71 L 501,70 L 502,69 L 502,68 L 504,66 L 504,65 L 509,60 L 509,56 L 510,55 L 511,55 L 513,53 L 515,53 L 518,50 L 518,48 L 519,47 L 519,46 L 520,45 L 521,45 L 522,44 L 523,44 L 523,42 L 521,42 L 520,41 L 519,41 L 518,40 L 513,40 L 512,39 L 512,38 L 509,38 L 508,37 L 500,37 L 498,35 L 495,35 L 494,34 L 494,33 L 492,33 L 491,32 L 490,32 L 488,30 L 487,30 L 486,29 L 486,28 L 483,28 L 482,27 Z" fill="none" stroke="black" stroke-width="1"/>
</svg>