<svg xmlns="http://www.w3.org/2000/svg" width="186" height="167">
  <path d="M 133,93 L 132,94 L 132,98 L 130,100 L 130,101 L 129,102 L 129,103 L 130,104 L 130,107 L 129,108 L 129,109 L 128,110 L 130,112 L 131,112 L 133,114 L 134,114 L 135,115 L 136,115 L 137,116 L 138,115 L 141,118 L 141,119 L 143,119 L 143,117 L 144,116 L 144,114 L 143,113 L 143,112 L 141,110 L 141,109 L 140,108 L 141,107 L 140,106 L 140,105 L 142,103 L 142,102 L 143,101 L 144,101 L 144,98 L 145,97 L 145,96 L 143,96 L 142,97 L 142,98 L 141,99 L 140,99 L 138,97 L 137,97 L 136,98 L 135,97 L 135,95 L 134,94 L 134,93 Z" fill="none" stroke="black" stroke-width="1"/>
</svg>