<svg xmlns="http://www.w3.org/2000/svg" width="241" height="225">
  <path d="M 206,107 L 205,108 L 202,108 L 200,110 L 194,110 L 193,111 L 190,111 L 189,112 L 188,112 L 188,113 L 185,116 L 185,118 L 186,119 L 189,119 L 190,118 L 194,118 L 195,119 L 194,120 L 193,120 L 192,121 L 191,121 L 190,122 L 189,122 L 188,123 L 187,123 L 186,124 L 185,124 L 185,125 L 187,125 L 188,126 L 188,127 L 187,128 L 187,129 L 188,129 L 188,128 L 192,124 L 193,124 L 193,123 L 195,121 L 196,121 L 197,120 L 198,120 L 199,119 L 200,119 L 201,118 L 202,118 L 203,117 L 204,117 L 204,116 L 206,114 L 206,113 L 207,112 L 208,112 L 208,110 L 207,109 L 207,108 Z" fill="none" stroke="black" stroke-width="1"/>
</svg>