<svg xmlns="http://www.w3.org/2000/svg" width="757" height="474">
  <path d="M 148,383 L 147,384 L 146,384 L 145,385 L 144,385 L 137,392 L 137,394 L 136,395 L 136,397 L 135,398 L 135,400 L 134,401 L 134,403 L 133,404 L 133,413 L 130,416 L 129,416 L 126,419 L 125,419 L 124,420 L 123,420 L 118,425 L 117,425 L 106,436 L 106,437 L 104,439 L 103,439 L 102,440 L 99,440 L 97,442 L 99,442 L 100,441 L 102,441 L 103,440 L 106,440 L 108,438 L 110,438 L 111,437 L 115,437 L 118,440 L 121,440 L 122,441 L 128,441 L 130,443 L 131,443 L 132,444 L 132,445 L 133,446 L 142,446 L 142,441 L 143,440 L 143,438 L 144,437 L 144,436 L 147,433 L 147,432 L 148,431 L 149,431 L 153,427 L 154,427 L 156,425 L 157,425 L 159,423 L 159,421 L 160,420 L 160,412 L 161,411 L 161,399 L 162,398 L 162,397 L 163,396 L 163,395 L 164,394 L 164,393 L 165,392 L 165,386 L 163,384 L 160,384 L 160,385 L 158,387 L 156,387 L 155,386 L 155,385 L 153,385 L 151,387 L 149,385 L 149,383 Z" fill="none" stroke="black" stroke-width="1"/>
</svg>