<svg xmlns="http://www.w3.org/2000/svg" width="337" height="324">
  <path d="M 165,132 L 164,133 L 163,133 L 161,135 L 161,136 L 156,141 L 156,142 L 155,143 L 155,144 L 156,145 L 156,148 L 159,151 L 159,152 L 160,153 L 160,155 L 161,156 L 161,159 L 160,160 L 160,166 L 161,167 L 161,170 L 162,171 L 162,187 L 164,187 L 165,186 L 170,186 L 171,187 L 175,187 L 176,186 L 177,186 L 178,185 L 186,185 L 187,186 L 193,186 L 194,187 L 195,187 L 195,181 L 197,179 L 197,178 L 198,177 L 198,176 L 199,175 L 199,174 L 200,173 L 200,169 L 201,168 L 201,163 L 200,162 L 201,161 L 202,161 L 203,160 L 203,159 L 204,158 L 204,156 L 205,155 L 205,152 L 203,152 L 202,151 L 201,151 L 200,150 L 199,150 L 197,148 L 195,148 L 194,147 L 193,147 L 192,146 L 190,146 L 189,145 L 188,145 L 187,144 L 184,144 L 181,141 L 180,141 L 178,139 L 176,139 L 175,138 L 174,138 L 173,137 L 171,137 L 169,135 L 169,134 L 167,132 Z" fill="none" stroke="black" stroke-width="1"/>
</svg>