<svg xmlns="http://www.w3.org/2000/svg" width="337" height="324">
  <path d="M 153,144 L 147,150 L 147,151 L 144,154 L 143,154 L 142,155 L 139,155 L 138,156 L 137,156 L 136,157 L 135,157 L 134,158 L 133,158 L 132,157 L 127,157 L 126,158 L 124,158 L 122,160 L 121,160 L 120,161 L 119,161 L 118,162 L 117,162 L 116,163 L 116,164 L 115,165 L 115,167 L 116,168 L 116,174 L 115,175 L 115,176 L 114,177 L 114,178 L 113,179 L 113,180 L 109,184 L 108,184 L 107,185 L 105,185 L 104,186 L 104,187 L 103,188 L 103,189 L 102,190 L 102,191 L 100,193 L 100,197 L 102,199 L 110,199 L 111,198 L 114,198 L 115,197 L 119,197 L 120,196 L 122,196 L 124,194 L 126,194 L 127,193 L 129,193 L 130,192 L 138,192 L 140,194 L 142,194 L 143,195 L 146,195 L 147,196 L 149,196 L 150,197 L 151,197 L 152,198 L 153,197 L 155,197 L 155,196 L 156,195 L 160,195 L 160,189 L 161,188 L 162,188 L 161,187 L 161,171 L 160,170 L 160,167 L 159,166 L 159,160 L 160,159 L 160,156 L 159,155 L 159,153 L 158,152 L 158,151 L 155,148 L 155,145 L 154,144 Z" fill="none" stroke="black" stroke-width="1"/>
</svg>