<svg xmlns="http://www.w3.org/2000/svg" width="337" height="324">
  <path d="M 226,141 L 224,143 L 220,143 L 220,144 L 218,146 L 217,146 L 216,147 L 215,147 L 213,149 L 210,149 L 209,150 L 209,152 L 208,153 L 206,153 L 206,155 L 205,156 L 205,158 L 204,159 L 204,160 L 202,162 L 201,162 L 202,163 L 202,168 L 201,169 L 201,173 L 200,174 L 200,175 L 199,176 L 199,177 L 198,178 L 198,179 L 196,181 L 196,188 L 197,189 L 197,192 L 198,193 L 198,194 L 199,195 L 200,195 L 201,196 L 202,196 L 203,197 L 204,197 L 206,199 L 208,197 L 210,197 L 211,198 L 216,198 L 216,196 L 218,194 L 218,193 L 219,192 L 220,192 L 221,191 L 225,191 L 226,190 L 226,188 L 225,187 L 225,185 L 226,184 L 226,183 L 227,182 L 227,176 L 228,175 L 228,174 L 229,173 L 229,172 L 234,167 L 236,167 L 234,165 L 234,162 L 235,161 L 235,160 L 238,157 L 238,154 L 237,153 L 237,151 L 236,150 L 236,148 L 235,147 L 235,146 L 233,144 L 233,143 L 232,143 L 231,142 L 230,142 L 229,141 Z" fill="none" stroke="black" stroke-width="1"/>
</svg>