<svg xmlns="http://www.w3.org/2000/svg" width="337" height="324">
  <path d="M 206,89 L 205,90 L 205,91 L 203,93 L 203,94 L 202,95 L 201,95 L 200,96 L 199,96 L 198,97 L 197,97 L 196,98 L 195,98 L 194,99 L 194,100 L 191,103 L 191,105 L 190,106 L 190,108 L 188,110 L 187,110 L 186,111 L 186,114 L 185,115 L 185,117 L 183,119 L 183,120 L 181,122 L 180,122 L 178,124 L 177,124 L 177,125 L 176,126 L 173,126 L 172,127 L 171,127 L 171,128 L 169,130 L 168,130 L 168,132 L 170,134 L 170,135 L 171,136 L 173,136 L 174,137 L 175,137 L 176,138 L 178,138 L 180,140 L 181,140 L 184,143 L 187,143 L 188,144 L 189,144 L 190,145 L 192,145 L 193,146 L 194,146 L 195,147 L 197,147 L 199,149 L 200,149 L 201,150 L 202,150 L 203,151 L 205,151 L 206,152 L 208,152 L 208,150 L 210,148 L 213,148 L 215,146 L 216,146 L 217,145 L 218,145 L 219,144 L 219,143 L 220,142 L 224,142 L 226,140 L 228,140 L 228,139 L 229,138 L 229,136 L 228,135 L 228,131 L 229,130 L 229,127 L 228,126 L 228,121 L 229,120 L 229,116 L 230,115 L 230,114 L 231,113 L 231,111 L 232,110 L 232,109 L 233,108 L 232,107 L 232,106 L 231,105 L 231,104 L 230,104 L 229,105 L 227,105 L 226,104 L 225,104 L 224,103 L 220,103 L 219,102 L 219,101 L 218,101 L 215,98 L 215,97 L 214,96 L 214,95 L 212,93 L 212,92 L 211,92 L 209,90 L 208,90 L 207,89 Z" fill="none" stroke="black" stroke-width="1"/>
</svg>