<svg xmlns="http://www.w3.org/2000/svg" width="757" height="474">
  <path d="M 352,315 L 353,316 L 353,322 L 352,323 L 352,324 L 351,325 L 351,326 L 346,331 L 345,331 L 344,332 L 343,332 L 341,334 L 340,334 L 339,335 L 338,335 L 336,337 L 335,337 L 331,341 L 331,342 L 330,343 L 330,344 L 328,346 L 328,347 L 327,348 L 327,349 L 325,351 L 320,351 L 318,349 L 314,349 L 313,348 L 307,348 L 305,350 L 304,350 L 302,352 L 302,353 L 299,356 L 298,356 L 296,358 L 296,359 L 297,360 L 298,360 L 299,361 L 299,362 L 297,364 L 296,364 L 295,365 L 294,365 L 295,366 L 295,367 L 299,371 L 300,371 L 301,372 L 306,372 L 307,373 L 314,373 L 315,372 L 316,372 L 317,373 L 316,374 L 317,374 L 318,375 L 319,375 L 320,376 L 322,376 L 323,377 L 324,377 L 325,378 L 326,378 L 327,379 L 328,379 L 329,380 L 330,380 L 333,383 L 333,384 L 335,384 L 335,383 L 337,381 L 338,382 L 338,386 L 337,387 L 337,388 L 336,389 L 336,396 L 337,397 L 337,399 L 338,400 L 338,403 L 340,405 L 340,407 L 341,408 L 341,409 L 342,410 L 342,411 L 343,412 L 343,414 L 345,416 L 346,416 L 348,418 L 349,418 L 350,419 L 350,420 L 351,420 L 354,423 L 356,423 L 357,424 L 360,424 L 362,422 L 362,421 L 363,420 L 363,419 L 364,418 L 364,417 L 365,416 L 366,416 L 370,412 L 371,412 L 372,411 L 374,411 L 377,408 L 378,408 L 379,407 L 377,407 L 376,408 L 373,408 L 372,407 L 373,406 L 373,403 L 374,402 L 374,401 L 375,400 L 375,399 L 376,398 L 377,398 L 383,392 L 384,392 L 385,391 L 385,390 L 387,388 L 387,386 L 388,385 L 387,384 L 387,383 L 386,382 L 386,381 L 383,378 L 384,377 L 384,374 L 385,373 L 385,370 L 386,369 L 386,368 L 385,367 L 385,366 L 380,366 L 378,364 L 382,360 L 382,359 L 383,358 L 384,358 L 384,357 L 387,354 L 387,352 L 388,351 L 388,350 L 387,349 L 387,346 L 386,345 L 386,344 L 387,343 L 387,341 L 386,340 L 386,339 L 385,340 L 382,340 L 381,339 L 380,339 L 379,338 L 378,339 L 377,338 L 376,338 L 375,337 L 374,337 L 373,336 L 374,335 L 373,335 L 372,334 L 372,333 L 371,332 L 371,330 L 370,329 L 370,328 L 369,328 L 368,327 L 366,327 L 365,328 L 364,328 L 360,324 L 359,324 L 358,323 L 358,322 L 356,320 L 356,319 L 353,316 L 353,315 Z" fill="none" stroke="black" stroke-width="1"/>
</svg>