<svg xmlns="http://www.w3.org/2000/svg" width="582" height="484">
  <path d="M 94,362 L 94,364 L 95,365 L 96,365 L 98,363 L 97,362 Z" fill="none" stroke="black" stroke-width="1"/>
  <path d="M 78,341 L 77,342 L 75,342 L 74,343 L 73,343 L 72,344 L 72,347 L 73,348 L 73,349 L 74,350 L 74,351 L 75,352 L 74,353 L 74,354 L 73,355 L 72,355 L 71,356 L 70,356 L 70,359 L 68,361 L 70,361 L 71,362 L 72,362 L 73,363 L 73,364 L 72,365 L 72,367 L 71,368 L 71,369 L 70,370 L 70,372 L 72,374 L 75,374 L 76,375 L 79,375 L 79,371 L 81,369 L 83,369 L 84,368 L 88,368 L 89,369 L 90,369 L 91,368 L 92,368 L 92,364 L 91,363 L 90,364 L 89,364 L 88,363 L 88,362 L 87,361 L 87,360 L 86,359 L 85,359 L 83,357 L 82,357 L 81,356 L 81,355 L 82,354 L 82,353 L 81,352 L 84,349 L 85,349 L 85,348 L 83,348 L 82,347 L 82,344 L 80,342 L 79,342 Z" fill="none" stroke="black" stroke-width="1"/>
</svg>