<svg xmlns="http://www.w3.org/2000/svg" width="240" height="278">
  <path d="M 184,91 L 183,92 L 182,92 L 181,93 L 176,93 L 175,92 L 174,92 L 174,94 L 172,96 L 172,97 L 173,98 L 174,98 L 175,99 L 177,99 L 180,102 L 185,102 L 186,101 L 187,102 L 188,102 L 189,103 L 189,104 L 190,104 L 191,105 L 192,105 L 193,104 L 194,105 L 194,104 L 193,103 L 193,101 L 192,100 L 193,99 L 194,99 L 195,100 L 195,102 L 196,103 L 197,103 L 198,104 L 201,104 L 202,105 L 203,105 L 204,104 L 205,104 L 206,105 L 207,105 L 210,102 L 209,101 L 208,101 L 204,97 L 203,97 L 200,94 L 199,94 L 196,91 L 195,91 L 193,93 L 190,93 L 189,92 L 187,92 L 186,91 Z" fill="none" stroke="black" stroke-width="1"/>
</svg>