<svg xmlns="http://www.w3.org/2000/svg" width="240" height="278">
  <path d="M 153,129 L 152,130 L 148,130 L 146,132 L 146,134 L 145,135 L 145,137 L 144,138 L 144,140 L 143,141 L 143,144 L 144,145 L 145,145 L 146,146 L 148,146 L 150,148 L 150,151 L 152,153 L 155,153 L 157,155 L 157,156 L 158,157 L 158,158 L 159,158 L 161,160 L 161,162 L 162,163 L 163,163 L 164,164 L 165,164 L 166,163 L 166,162 L 164,160 L 166,158 L 167,159 L 167,160 L 168,160 L 168,159 L 169,158 L 169,157 L 168,156 L 168,155 L 167,154 L 169,152 L 170,152 L 171,153 L 171,151 L 172,150 L 172,148 L 171,148 L 170,149 L 168,147 L 169,146 L 170,146 L 170,142 L 168,142 L 167,141 L 168,140 L 167,139 L 166,139 L 163,136 L 162,136 L 161,135 L 160,135 L 158,133 L 158,132 L 157,132 L 155,130 L 155,129 Z" fill="none" stroke="black" stroke-width="1"/>
</svg>