<svg xmlns="http://www.w3.org/2000/svg" width="194" height="141">
  <path d="M 147,45 L 147,46 L 146,47 L 145,47 L 144,46 L 143,46 L 143,47 L 142,48 L 141,47 L 140,47 L 141,48 L 140,49 L 139,49 L 137,51 L 135,51 L 134,52 L 133,52 L 132,53 L 128,53 L 129,54 L 129,55 L 131,57 L 132,57 L 133,58 L 135,58 L 136,59 L 138,59 L 139,58 L 141,58 L 142,57 L 147,57 L 148,58 L 150,58 L 151,59 L 151,60 L 152,60 L 153,59 L 156,59 L 156,55 L 157,54 L 157,52 L 156,51 L 155,51 L 154,50 L 153,50 L 152,49 L 151,49 L 149,47 L 149,46 L 148,46 Z" fill="none" stroke="black" stroke-width="1"/>
</svg>