<svg xmlns="http://www.w3.org/2000/svg" width="240" height="278">
  <path d="M 167,165 L 167,166 L 166,167 L 166,168 L 165,169 L 165,170 L 164,171 L 164,173 L 165,174 L 165,176 L 164,177 L 165,177 L 166,176 L 167,176 L 168,175 L 167,174 L 168,173 L 167,172 Z" fill="none" stroke="black" stroke-width="1"/>
  <path d="M 150,152 L 145,157 L 145,161 L 144,162 L 144,166 L 143,167 L 142,167 L 142,168 L 141,169 L 141,170 L 142,171 L 142,179 L 144,179 L 146,177 L 147,177 L 148,176 L 150,176 L 151,175 L 152,175 L 153,174 L 155,174 L 156,173 L 157,173 L 158,172 L 159,172 L 161,170 L 162,170 L 163,169 L 163,167 L 164,166 L 164,165 L 163,164 L 162,164 L 160,162 L 160,160 L 159,159 L 158,159 L 157,158 L 157,157 L 156,156 L 156,155 L 155,154 L 152,154 Z" fill="none" stroke="black" stroke-width="1"/>
</svg>