<svg xmlns="http://www.w3.org/2000/svg" width="240" height="278">
  <path d="M 65,111 L 63,113 L 62,113 L 61,112 L 60,112 L 59,113 L 58,113 L 57,114 L 57,119 L 58,120 L 58,121 L 57,122 L 55,122 L 55,123 L 56,124 L 56,125 L 57,126 L 57,127 L 58,128 L 59,127 L 60,127 L 62,129 L 62,130 L 61,131 L 60,130 L 58,130 L 59,131 L 59,132 L 60,133 L 63,133 L 64,132 L 69,132 L 70,133 L 70,131 L 72,129 L 72,128 L 73,127 L 73,126 L 72,125 L 72,124 L 68,120 L 68,117 L 67,116 L 67,114 L 66,113 L 66,111 Z" fill="none" stroke="black" stroke-width="1"/>
</svg>