<svg xmlns="http://www.w3.org/2000/svg" width="240" height="278">
  <path d="M 64,85 L 64,86 L 63,87 L 63,90 L 64,91 L 64,92 L 65,93 L 65,94 L 66,95 L 66,97 L 67,98 L 67,99 L 71,103 L 72,103 L 74,105 L 74,106 L 75,106 L 77,108 L 84,108 L 85,107 L 87,107 L 87,105 L 88,104 L 88,103 L 89,102 L 89,101 L 90,100 L 90,97 L 87,97 L 86,96 L 85,96 L 84,95 L 84,94 L 83,94 L 82,93 L 82,94 L 81,95 L 80,94 L 80,93 L 78,93 L 75,90 L 74,91 L 68,91 L 66,89 L 65,89 L 64,88 Z" fill="none" stroke="black" stroke-width="1"/>
</svg>