<svg xmlns="http://www.w3.org/2000/svg" width="240" height="278">
  <path d="M 130,51 L 130,52 L 123,59 L 123,60 L 120,63 L 120,64 L 119,65 L 122,65 L 123,66 L 124,66 L 126,68 L 127,68 L 128,69 L 128,70 L 129,71 L 128,72 L 128,75 L 129,74 L 133,74 L 134,75 L 137,75 L 138,74 L 138,73 L 137,73 L 136,72 L 136,71 L 135,70 L 135,68 L 136,67 L 138,67 L 140,69 L 141,69 L 143,67 L 144,67 L 144,65 L 143,64 L 142,64 L 141,63 L 140,63 L 139,62 L 139,60 L 138,59 L 137,59 L 134,56 L 134,55 L 133,54 L 133,53 L 132,53 Z" fill="none" stroke="black" stroke-width="1"/>
</svg>