<svg xmlns="http://www.w3.org/2000/svg" width="240" height="278">
  <path d="M 136,68 L 136,70 L 137,71 L 137,72 L 138,72 L 139,73 L 139,74 L 137,76 L 134,76 L 133,75 L 129,75 L 128,76 L 127,76 L 124,79 L 123,79 L 122,80 L 121,80 L 119,82 L 119,84 L 118,85 L 117,85 L 115,87 L 108,87 L 108,88 L 109,89 L 109,90 L 110,91 L 110,92 L 112,94 L 112,96 L 114,96 L 115,95 L 121,95 L 122,94 L 123,94 L 124,93 L 124,92 L 125,91 L 126,91 L 127,90 L 127,89 L 128,88 L 128,86 L 130,84 L 134,84 L 135,83 L 138,83 L 139,82 L 139,81 L 140,80 L 140,79 L 144,75 L 144,74 L 145,73 L 146,73 L 146,70 L 145,70 L 144,69 L 144,68 L 143,68 L 141,70 L 140,70 L 138,68 Z" fill="none" stroke="black" stroke-width="1"/>
</svg>