<svg xmlns="http://www.w3.org/2000/svg" width="401" height="363">
  <path d="M 154,176 L 154,177 L 155,177 L 157,179 L 157,180 L 158,181 L 158,177 L 156,177 L 155,176 Z" fill="none" stroke="black" stroke-width="1"/>
  <path d="M 151,169 L 151,170 L 152,171 L 152,170 Z" fill="none" stroke="black" stroke-width="1"/>
  <path d="M 139,168 L 142,171 L 142,170 L 140,168 Z" fill="none" stroke="black" stroke-width="1"/>
  <path d="M 113,158 L 111,160 L 111,162 L 112,163 L 112,164 L 113,165 L 113,166 L 115,166 L 114,165 L 115,164 L 116,164 L 116,163 L 115,162 L 115,160 L 114,159 L 114,158 Z" fill="none" stroke="black" stroke-width="1"/>
  <path d="M 147,155 L 147,156 L 148,157 L 148,159 L 150,159 L 149,158 L 149,157 L 148,157 L 147,156 Z" fill="none" stroke="black" stroke-width="1"/>
  <path d="M 143,150 L 143,151 L 145,153 L 146,153 L 146,152 L 145,151 L 145,150 Z" fill="none" stroke="black" stroke-width="1"/>
  <path d="M 137,147 L 136,148 L 135,148 L 135,149 L 137,149 Z" fill="none" stroke="black" stroke-width="1"/>
  <path d="M 117,144 L 116,145 L 116,146 L 117,146 L 118,145 L 120,145 L 120,144 Z" fill="none" stroke="black" stroke-width="1"/>
  <path d="M 106,142 L 106,147 L 104,149 L 106,151 L 106,152 L 105,153 L 104,153 L 103,152 L 103,151 L 102,151 L 102,152 L 103,153 L 104,153 L 105,154 L 106,154 L 108,156 L 108,157 L 109,156 L 110,156 L 110,155 L 111,154 L 112,154 L 112,151 L 110,149 L 110,148 L 109,147 L 109,145 L 108,144 L 108,143 L 107,143 Z" fill="none" stroke="black" stroke-width="1"/>
  <path d="M 134,140 L 134,141 L 136,143 L 137,143 L 137,142 L 135,140 Z" fill="none" stroke="black" stroke-width="1"/>
  <path d="M 129,135 L 129,138 L 130,138 L 130,137 L 129,136 Z" fill="none" stroke="black" stroke-width="1"/>
  <path d="M 122,119 L 122,120 L 121,121 L 121,126 L 119,128 L 118,128 L 119,128 L 120,129 L 120,130 L 121,129 L 121,124 L 123,122 L 123,120 Z" fill="none" stroke="black" stroke-width="1"/>
  <path d="M 110,115 L 108,117 L 102,117 L 101,116 L 100,116 L 97,119 L 96,119 L 94,117 L 93,117 L 93,118 L 95,118 L 96,119 L 96,120 L 97,121 L 98,121 L 100,119 L 101,119 L 102,118 L 110,118 L 111,117 L 111,115 Z" fill="none" stroke="black" stroke-width="1"/>
  <path d="M 117,114 L 117,115 L 119,117 L 119,119 L 120,119 L 120,116 L 119,116 Z" fill="none" stroke="black" stroke-width="1"/>
  <path d="M 112,112 L 112,113 L 115,113 L 115,112 Z" fill="none" stroke="black" stroke-width="1"/>
</svg>