<svg xmlns="http://www.w3.org/2000/svg" width="561" height="491">
  <path d="M 395,199 L 394,200 L 391,200 L 391,202 L 390,203 L 390,204 L 391,205 L 392,205 L 394,207 L 394,209 L 395,210 L 395,214 L 396,215 L 399,215 L 400,216 L 401,216 L 403,218 L 405,218 L 405,217 L 407,215 L 408,215 L 408,214 L 409,213 L 409,212 L 407,210 L 407,209 L 406,208 L 406,207 L 405,207 L 403,205 L 403,204 L 402,203 L 401,203 L 400,204 L 398,202 L 398,201 L 397,200 L 397,199 Z" fill="none" stroke="black" stroke-width="1"/>
</svg>