<svg xmlns="http://www.w3.org/2000/svg" width="561" height="491">
  <path d="M 434,165 L 435,166 L 435,167 L 435,166 L 436,165 Z" fill="none" stroke="black" stroke-width="1"/>
  <path d="M 446,159 L 445,160 L 441,160 L 440,161 L 439,160 L 438,160 L 437,161 L 437,163 L 438,164 L 438,169 L 437,170 L 437,171 L 438,172 L 438,173 L 439,173 L 441,175 L 443,173 L 444,173 L 446,171 L 447,171 L 448,170 L 448,169 L 447,169 L 444,166 L 446,164 L 446,163 L 448,161 L 447,160 L 447,159 Z" fill="none" stroke="black" stroke-width="1"/>
</svg>