<svg xmlns="http://www.w3.org/2000/svg" width="561" height="491">
  <path d="M 475,174 L 474,175 L 472,175 L 471,176 L 470,176 L 469,177 L 468,177 L 467,178 L 466,178 L 464,176 L 462,176 L 460,178 L 459,177 L 459,176 L 459,177 L 458,178 L 457,178 L 456,179 L 452,179 L 452,181 L 453,181 L 454,182 L 454,185 L 455,185 L 456,186 L 456,191 L 457,192 L 458,192 L 459,193 L 459,194 L 460,194 L 462,196 L 462,197 L 465,200 L 465,201 L 468,201 L 469,202 L 469,203 L 470,203 L 473,206 L 474,206 L 474,204 L 473,203 L 473,202 L 475,200 L 475,194 L 477,192 L 476,191 L 476,188 L 477,187 L 475,185 L 477,183 L 477,176 L 476,175 L 476,174 Z" fill="none" stroke="black" stroke-width="1"/>
</svg>