<svg xmlns="http://www.w3.org/2000/svg" width="561" height="491">
  <path d="M 483,244 L 480,247 L 479,247 L 478,248 L 477,248 L 475,250 L 471,250 L 470,251 L 469,250 L 467,250 L 465,248 L 465,249 L 466,250 L 466,252 L 467,252 L 468,253 L 469,253 L 470,254 L 472,254 L 473,255 L 473,256 L 475,258 L 475,259 L 474,260 L 474,261 L 475,262 L 473,264 L 473,265 L 474,266 L 475,265 L 476,265 L 477,264 L 478,264 L 479,263 L 483,263 L 486,260 L 485,259 L 484,259 L 483,258 L 484,257 L 487,257 L 488,258 L 489,258 L 489,257 L 488,257 L 487,256 L 486,257 L 483,257 L 482,256 L 483,255 L 485,255 L 486,254 L 486,253 L 487,252 L 490,252 L 489,251 L 489,248 L 487,246 L 486,246 L 484,244 Z" fill="none" stroke="black" stroke-width="1"/>
</svg>