<svg xmlns="http://www.w3.org/2000/svg" width="561" height="491">
  <path d="M 430,254 L 429,255 L 428,255 L 428,257 L 433,262 L 433,263 L 434,264 L 435,264 L 436,265 L 436,266 L 437,266 L 440,269 L 440,270 L 441,271 L 441,273 L 443,275 L 444,275 L 444,274 L 445,273 L 445,272 L 446,271 L 447,271 L 448,272 L 448,270 L 446,268 L 446,267 L 445,267 L 444,266 L 443,266 L 442,265 L 442,264 L 441,263 L 441,262 L 440,262 L 436,258 L 436,257 L 435,256 L 434,256 L 433,255 L 432,255 L 431,254 Z" fill="none" stroke="black" stroke-width="1"/>
</svg>