<svg xmlns="http://www.w3.org/2000/svg" width="182" height="244">
  <path d="M 143,41 L 142,42 L 143,43 L 144,43 L 144,42 Z" fill="none" stroke="black" stroke-width="1"/>
  <path d="M 151,35 L 150,36 L 150,37 L 152,35 Z" fill="none" stroke="black" stroke-width="1"/>
  <path d="M 141,21 L 140,22 L 139,22 L 139,23 L 135,27 L 134,27 L 134,30 L 133,31 L 134,31 L 135,32 L 135,33 L 134,34 L 135,34 L 137,36 L 137,37 L 138,38 L 140,38 L 141,39 L 141,40 L 142,39 L 143,39 L 144,38 L 145,39 L 146,39 L 147,38 L 148,38 L 148,35 L 150,33 L 153,33 L 156,30 L 159,30 L 158,30 L 156,28 L 156,27 L 155,28 L 154,27 L 153,27 L 152,28 L 149,28 L 148,27 L 147,27 L 144,24 L 144,23 L 142,21 Z" fill="none" stroke="black" stroke-width="1"/>
</svg>