<svg xmlns="http://www.w3.org/2000/svg" width="182" height="244">
  <path d="M 111,2 L 110,3 L 109,3 L 110,4 L 110,6 L 108,8 L 105,8 L 103,10 L 101,10 L 100,9 L 100,8 L 99,8 L 97,10 L 97,12 L 96,13 L 95,13 L 91,9 L 90,9 L 90,11 L 89,12 L 88,12 L 87,11 L 87,9 L 86,9 L 85,10 L 85,11 L 83,13 L 83,14 L 85,16 L 85,17 L 86,17 L 88,19 L 88,20 L 89,21 L 90,21 L 92,23 L 92,24 L 93,24 L 94,23 L 97,23 L 98,24 L 98,25 L 99,26 L 99,29 L 100,29 L 101,30 L 101,31 L 104,34 L 104,35 L 105,36 L 105,37 L 106,37 L 107,38 L 107,39 L 108,40 L 111,40 L 112,39 L 112,36 L 113,35 L 113,30 L 114,29 L 114,28 L 115,27 L 115,26 L 114,26 L 113,25 L 113,24 L 111,22 L 111,14 L 110,13 L 110,12 L 112,10 L 112,3 Z" fill="none" stroke="black" stroke-width="1"/>
</svg>