<svg xmlns="http://www.w3.org/2000/svg" width="401" height="363">
  <path d="M 185,208 L 185,209 L 184,210 L 183,210 L 182,211 L 181,210 L 178,210 L 176,212 L 176,213 L 184,213 L 184,212 L 185,211 L 185,210 L 186,209 L 186,208 Z" fill="none" stroke="black" stroke-width="1"/>
  <path d="M 211,202 L 211,203 Z" fill="none" stroke="black" stroke-width="1"/>
  <path d="M 205,198 L 205,199 L 206,199 L 207,200 L 208,200 L 209,201 L 209,198 Z" fill="none" stroke="black" stroke-width="1"/>
  <path d="M 200,196 L 199,197 L 200,197 L 202,199 L 203,199 L 203,196 Z" fill="none" stroke="black" stroke-width="1"/>
  <path d="M 185,189 L 185,190 L 186,189 Z" fill="none" stroke="black" stroke-width="1"/>
  <path d="M 165,182 L 165,183 L 166,184 L 167,184 L 168,185 L 169,185 L 170,184 L 171,185 L 171,186 L 172,187 L 172,188 L 171,189 L 170,189 L 167,192 L 168,192 L 169,191 L 170,191 L 171,190 L 172,190 L 173,189 L 173,184 L 172,184 L 171,185 L 169,183 L 167,183 L 166,182 Z" fill="none" stroke="black" stroke-width="1"/>
</svg>