<svg xmlns="http://www.w3.org/2000/svg" width="182" height="244">
  <path d="M 110,57 L 110,58 L 105,63 L 104,63 L 103,62 L 100,62 L 99,63 L 99,64 L 98,65 L 98,66 L 97,67 L 98,67 L 99,68 L 100,68 L 102,70 L 102,71 L 103,71 L 106,74 L 109,74 L 110,73 L 111,73 L 112,72 L 113,72 L 114,71 L 116,73 L 119,73 L 120,74 L 122,74 L 121,73 L 121,71 L 122,70 L 122,69 L 124,67 L 124,61 L 123,61 L 121,59 L 120,59 L 119,58 L 117,58 L 116,59 L 115,59 L 114,58 L 113,58 L 112,57 Z" fill="none" stroke="black" stroke-width="1"/>
</svg>