<svg xmlns="http://www.w3.org/2000/svg" width="182" height="244">
  <path d="M 153,137 L 152,138 L 152,146 L 151,147 L 151,148 L 150,149 L 149,149 L 149,154 L 150,155 L 150,156 L 151,157 L 151,159 L 152,160 L 152,161 L 153,161 L 155,159 L 157,159 L 158,158 L 158,157 L 159,156 L 164,156 L 165,157 L 165,156 L 166,155 L 166,153 L 165,152 L 165,149 L 164,148 L 164,147 L 163,147 L 162,146 L 161,146 L 160,145 L 160,144 L 155,139 L 155,138 L 154,137 Z" fill="none" stroke="black" stroke-width="1"/>
</svg>