<svg xmlns="http://www.w3.org/2000/svg" width="182" height="244">
  <path d="M 94,173 L 93,174 L 92,174 L 92,176 L 94,178 L 94,179 L 93,180 L 92,180 L 91,181 L 90,181 L 89,180 L 88,180 L 87,179 L 84,179 L 83,180 L 82,180 L 81,181 L 78,181 L 78,182 L 77,183 L 77,187 L 78,188 L 78,190 L 80,192 L 80,195 L 81,195 L 82,196 L 82,197 L 83,198 L 83,205 L 84,206 L 85,205 L 86,205 L 87,204 L 87,202 L 88,201 L 89,201 L 89,197 L 91,195 L 92,195 L 92,194 L 94,192 L 94,189 L 96,187 L 97,187 L 97,186 L 98,185 L 98,181 L 99,180 L 99,178 L 97,176 L 97,175 L 96,175 Z" fill="none" stroke="black" stroke-width="1"/>
</svg>