<svg xmlns="http://www.w3.org/2000/svg" width="182" height="244">
  <path d="M 95,214 L 95,215 L 96,216 L 96,218 L 97,217 L 97,214 Z" fill="none" stroke="black" stroke-width="1"/>
  <path d="M 95,192 L 93,194 L 93,195 L 92,196 L 91,196 L 90,197 L 90,202 L 92,204 L 92,207 L 89,210 L 91,212 L 92,212 L 94,210 L 97,210 L 98,211 L 99,210 L 100,210 L 103,213 L 104,213 L 104,212 L 105,211 L 110,211 L 110,210 L 111,209 L 112,209 L 112,206 L 113,205 L 113,204 L 112,203 L 112,201 L 111,201 L 110,200 L 110,197 L 109,196 L 109,194 L 108,193 L 106,195 L 105,195 L 104,196 L 103,196 L 102,195 L 99,195 L 97,193 L 97,192 Z" fill="none" stroke="black" stroke-width="1"/>
</svg>