<svg xmlns="http://www.w3.org/2000/svg" width="182" height="244">
  <path d="M 111,167 L 110,168 L 109,168 L 108,169 L 105,169 L 105,170 L 104,171 L 103,171 L 102,172 L 101,172 L 101,174 L 103,174 L 104,175 L 104,177 L 106,177 L 107,178 L 108,178 L 109,179 L 111,179 L 113,181 L 113,184 L 114,184 L 115,183 L 116,183 L 117,182 L 119,182 L 120,181 L 123,181 L 124,182 L 124,183 L 125,184 L 128,184 L 128,183 L 129,182 L 129,181 L 128,180 L 128,178 L 129,177 L 129,174 L 128,173 L 128,172 L 127,171 L 127,170 L 126,169 L 125,169 L 124,168 L 123,168 L 122,167 Z" fill="none" stroke="black" stroke-width="1"/>
</svg>