<svg xmlns="http://www.w3.org/2000/svg" width="182" height="244">
  <path d="M 107,148 L 106,149 L 102,149 L 104,151 L 105,151 L 107,153 L 107,155 L 111,159 L 111,161 L 113,163 L 111,165 L 111,166 L 122,166 L 123,167 L 124,167 L 125,168 L 126,168 L 127,169 L 128,169 L 130,167 L 131,167 L 132,166 L 132,164 L 131,163 L 131,161 L 130,161 L 128,159 L 128,157 L 125,154 L 123,154 L 122,153 L 120,153 L 119,154 L 118,154 L 115,151 L 115,150 L 113,152 L 111,150 L 111,149 L 110,148 Z" fill="none" stroke="black" stroke-width="1"/>
</svg>