<svg xmlns="http://www.w3.org/2000/svg" width="182" height="244">
  <path d="M 145,184 L 144,185 L 144,186 L 143,187 L 140,187 L 138,189 L 135,189 L 135,193 L 134,194 L 133,194 L 132,193 L 130,193 L 129,192 L 128,192 L 128,193 L 127,194 L 126,194 L 126,200 L 127,200 L 129,202 L 130,202 L 131,203 L 132,202 L 136,202 L 137,201 L 138,201 L 139,200 L 144,200 L 145,199 L 146,199 L 147,200 L 149,200 L 150,199 L 151,199 L 151,197 L 152,196 L 153,196 L 153,195 L 152,194 L 150,194 L 148,192 L 148,190 L 147,189 L 147,188 L 145,186 Z" fill="none" stroke="black" stroke-width="1"/>
</svg>