<svg xmlns="http://www.w3.org/2000/svg" width="182" height="244">
  <path d="M 54,147 L 54,148 L 50,152 L 50,155 L 51,155 L 52,156 L 52,157 L 51,158 L 50,158 L 49,159 L 49,161 L 48,162 L 48,163 L 50,165 L 49,166 L 49,168 L 48,169 L 48,175 L 47,176 L 48,177 L 49,177 L 50,176 L 53,176 L 54,177 L 59,177 L 60,176 L 62,176 L 62,174 L 60,172 L 60,169 L 58,167 L 58,164 L 61,161 L 61,156 L 60,155 L 62,153 L 62,152 L 63,151 L 63,149 L 62,149 L 61,150 L 59,148 L 55,148 Z" fill="none" stroke="black" stroke-width="1"/>
</svg>