<svg xmlns="http://www.w3.org/2000/svg" width="401" height="363">
  <path d="M 31,197 L 29,199 L 30,200 L 30,201 L 31,202 L 31,203 L 30,204 L 28,202 L 28,203 L 29,204 L 30,204 L 31,205 L 32,205 L 33,204 L 35,204 L 36,203 L 37,203 L 37,201 L 35,199 L 35,198 L 34,198 L 33,197 Z" fill="none" stroke="black" stroke-width="1"/>
  <path d="M 42,176 L 41,177 L 39,177 L 38,178 L 37,178 L 36,179 L 32,179 L 32,181 L 33,181 L 34,182 L 34,184 L 49,184 L 51,186 L 52,186 L 52,184 L 53,183 L 53,180 L 54,179 L 54,178 L 53,177 L 47,177 L 46,176 Z" fill="none" stroke="black" stroke-width="1"/>
</svg>