<svg xmlns="http://www.w3.org/2000/svg" width="182" height="244">
  <path d="M 45,112 L 44,113 L 42,113 L 41,114 L 40,113 L 39,113 L 37,115 L 37,116 L 39,118 L 39,122 L 37,124 L 37,125 L 36,126 L 35,126 L 35,129 L 36,130 L 36,131 L 37,130 L 39,130 L 40,129 L 41,129 L 42,130 L 42,132 L 43,132 L 44,131 L 46,131 L 48,129 L 48,128 L 49,127 L 50,127 L 51,128 L 51,129 L 52,129 L 53,128 L 54,128 L 55,127 L 56,127 L 56,123 L 55,122 L 54,122 L 50,118 L 51,117 L 51,113 L 47,113 L 46,112 Z" fill="none" stroke="black" stroke-width="1"/>
</svg>