<svg xmlns="http://www.w3.org/2000/svg" width="182" height="244">
  <path d="M 31,127 L 31,128 L 30,129 L 29,129 L 27,131 L 26,130 L 24,130 L 23,131 L 21,131 L 21,132 L 19,134 L 17,134 L 16,135 L 17,135 L 19,137 L 19,138 L 20,139 L 20,140 L 22,142 L 23,142 L 23,141 L 24,140 L 25,141 L 25,142 L 26,142 L 27,143 L 27,144 L 26,145 L 26,150 L 27,151 L 28,151 L 29,152 L 30,152 L 31,151 L 31,149 L 32,148 L 32,144 L 34,142 L 34,138 L 35,137 L 35,136 L 34,135 L 34,132 L 35,131 L 35,130 L 34,129 L 34,127 Z" fill="none" stroke="black" stroke-width="1"/>
</svg>