<svg xmlns="http://www.w3.org/2000/svg" width="182" height="244">
  <path d="M 77,118 L 77,120 L 74,123 L 73,123 L 72,124 L 68,124 L 67,125 L 66,124 L 65,124 L 64,123 L 63,123 L 62,124 L 61,124 L 60,125 L 59,124 L 57,124 L 57,127 L 56,128 L 55,128 L 54,129 L 53,129 L 52,130 L 51,130 L 51,131 L 52,131 L 53,132 L 53,139 L 54,138 L 56,138 L 58,136 L 60,136 L 62,134 L 64,134 L 65,133 L 67,133 L 68,132 L 75,132 L 76,133 L 80,133 L 81,134 L 81,135 L 83,135 L 83,132 L 84,131 L 85,131 L 86,130 L 86,129 L 87,128 L 87,125 L 84,122 L 84,121 L 81,118 Z" fill="none" stroke="black" stroke-width="1"/>
</svg>