<svg xmlns="http://www.w3.org/2000/svg" width="182" height="244">
  <path d="M 89,111 L 88,112 L 87,112 L 86,113 L 85,113 L 85,116 L 86,117 L 86,118 L 91,118 L 92,119 L 94,119 L 95,120 L 95,121 L 96,122 L 96,123 L 98,125 L 98,126 L 99,127 L 99,130 L 101,132 L 101,136 L 105,136 L 106,137 L 107,136 L 108,136 L 108,133 L 109,132 L 113,132 L 115,134 L 119,134 L 119,133 L 121,131 L 121,127 L 120,126 L 119,126 L 117,124 L 117,123 L 118,122 L 117,122 L 116,121 L 113,121 L 112,120 L 112,118 L 108,114 L 105,114 L 104,113 L 101,113 L 100,112 L 93,112 L 92,111 Z" fill="none" stroke="black" stroke-width="1"/>
</svg>