<svg xmlns="http://www.w3.org/2000/svg" width="182" height="244">
  <path d="M 137,131 L 137,132 L 135,134 L 134,134 L 133,135 L 128,135 L 127,134 L 126,135 L 123,135 L 121,133 L 120,133 L 120,134 L 119,135 L 115,135 L 113,133 L 109,133 L 109,136 L 108,137 L 107,137 L 106,138 L 105,137 L 103,137 L 106,140 L 106,146 L 107,147 L 110,147 L 112,149 L 112,150 L 113,151 L 115,149 L 116,150 L 116,151 L 118,153 L 119,153 L 120,152 L 122,152 L 123,153 L 124,153 L 124,148 L 125,147 L 126,147 L 127,146 L 129,146 L 130,145 L 131,145 L 133,143 L 134,143 L 135,144 L 135,145 L 136,144 L 137,144 L 138,143 L 138,142 L 139,141 L 139,136 L 138,135 L 138,131 Z" fill="none" stroke="black" stroke-width="1"/>
</svg>