<svg xmlns="http://www.w3.org/2000/svg" width="182" height="244">
  <path d="M 134,115 L 134,116 L 132,118 L 131,118 L 127,122 L 124,122 L 123,121 L 118,121 L 119,122 L 118,123 L 118,124 L 119,125 L 120,125 L 122,127 L 122,131 L 121,132 L 123,134 L 126,134 L 127,133 L 128,134 L 133,134 L 134,133 L 135,133 L 136,132 L 136,131 L 137,130 L 139,130 L 139,126 L 143,122 L 143,121 L 142,120 L 141,120 L 140,119 L 139,119 L 138,118 L 137,118 L 136,117 L 135,117 L 134,116 Z" fill="none" stroke="black" stroke-width="1"/>
</svg>