<svg xmlns="http://www.w3.org/2000/svg" width="401" height="363">
  <path d="M 56,239 L 55,240 L 54,240 L 54,241 L 58,241 L 59,240 L 59,239 Z" fill="none" stroke="black" stroke-width="1"/>
  <path d="M 80,233 L 80,234 L 81,234 L 81,233 Z" fill="none" stroke="black" stroke-width="1"/>
  <path d="M 77,233 L 76,234 L 75,234 L 75,235 L 77,235 Z" fill="none" stroke="black" stroke-width="1"/>
  <path d="M 86,188 L 86,190 L 85,191 L 85,195 L 87,197 L 87,203 L 90,203 L 91,202 L 97,202 L 98,203 L 100,203 L 101,202 L 102,202 L 103,201 L 106,201 L 107,200 L 107,195 L 106,195 L 105,194 L 104,194 L 101,191 L 99,191 L 98,190 L 88,190 Z" fill="none" stroke="black" stroke-width="1"/>
  <path d="M 98,187 L 99,188 L 101,188 L 102,189 L 105,189 L 106,190 L 106,191 L 107,191 L 107,190 L 105,188 L 104,188 L 103,187 Z" fill="none" stroke="black" stroke-width="1"/>
</svg>