<svg xmlns="http://www.w3.org/2000/svg" width="182" height="244">
  <path d="M 19,71 L 18,72 L 16,72 L 13,75 L 11,75 L 9,77 L 7,77 L 6,76 L 5,76 L 4,75 L 4,74 L 3,73 L 2,73 L 2,74 L 1,75 L 0,75 L 0,76 L 1,77 L 1,79 L 0,80 L 0,81 L 1,82 L 1,83 L 2,83 L 4,85 L 4,86 L 5,87 L 5,88 L 6,89 L 6,92 L 8,94 L 10,94 L 11,93 L 11,92 L 12,91 L 13,91 L 13,89 L 14,88 L 15,88 L 16,87 L 18,87 L 20,85 L 20,84 L 19,83 L 19,82 L 20,81 L 20,80 L 22,78 L 22,75 L 21,74 L 21,73 L 20,73 L 19,72 Z" fill="none" stroke="black" stroke-width="1"/>
</svg>