<svg xmlns="http://www.w3.org/2000/svg" width="182" height="244">
  <path d="M 18,65 L 18,67 L 19,68 L 19,70 L 20,71 L 20,72 L 21,72 L 22,73 L 22,74 L 23,75 L 23,78 L 21,80 L 21,81 L 20,82 L 20,83 L 24,83 L 26,85 L 26,86 L 28,88 L 28,90 L 29,89 L 32,89 L 33,90 L 34,90 L 35,91 L 35,92 L 37,92 L 38,91 L 39,91 L 41,89 L 42,89 L 40,87 L 40,86 L 39,85 L 39,81 L 37,79 L 38,78 L 38,76 L 39,75 L 39,72 L 38,71 L 37,71 L 36,72 L 27,72 L 26,71 L 26,70 L 24,70 L 22,68 L 22,67 L 21,66 L 20,66 L 19,65 Z" fill="none" stroke="black" stroke-width="1"/>
</svg>