<svg xmlns="http://www.w3.org/2000/svg" width="582" height="484">
  <path d="M 37,319 L 36,320 L 36,322 L 37,323 L 37,324 L 36,325 L 37,326 L 37,329 L 36,330 L 35,330 L 35,331 L 34,332 L 34,337 L 31,340 L 28,340 L 28,343 L 29,343 L 30,344 L 30,345 L 29,346 L 29,352 L 30,353 L 30,354 L 31,354 L 32,353 L 35,353 L 36,352 L 37,352 L 38,353 L 38,351 L 39,350 L 40,350 L 40,347 L 41,346 L 41,344 L 42,343 L 41,342 L 41,340 L 42,339 L 42,337 L 43,336 L 44,336 L 45,335 L 45,333 L 46,332 L 46,331 L 45,330 L 45,329 L 44,328 L 44,325 L 43,324 L 43,323 L 42,322 L 42,321 L 41,321 L 39,319 Z" fill="none" stroke="black" stroke-width="1"/>
</svg>