<svg xmlns="http://www.w3.org/2000/svg" width="550" height="483">
  <path d="M 265,27 L 263,29 L 260,29 L 259,30 L 250,30 L 249,29 L 247,29 L 246,28 L 245,28 L 245,29 L 246,30 L 245,31 L 243,31 L 241,33 L 240,32 L 239,33 L 240,34 L 240,35 L 239,36 L 238,35 L 236,35 L 236,38 L 235,39 L 233,39 L 233,41 L 234,42 L 234,45 L 232,47 L 230,47 L 229,46 L 229,47 L 228,48 L 228,53 L 225,56 L 224,56 L 224,57 L 223,58 L 222,58 L 222,59 L 223,60 L 224,60 L 225,61 L 227,61 L 228,62 L 227,63 L 226,63 L 227,64 L 229,64 L 230,65 L 229,66 L 227,66 L 226,67 L 228,69 L 228,70 L 227,71 L 226,71 L 225,70 L 225,69 L 224,68 L 224,67 L 223,67 L 222,66 L 221,66 L 222,67 L 222,69 L 220,71 L 220,75 L 221,76 L 221,77 L 222,78 L 222,79 L 223,80 L 224,80 L 225,81 L 226,81 L 227,82 L 228,82 L 229,83 L 230,83 L 233,86 L 234,86 L 235,87 L 236,87 L 237,88 L 239,88 L 240,89 L 243,89 L 244,88 L 245,88 L 246,87 L 247,87 L 249,85 L 249,84 L 252,81 L 252,80 L 255,77 L 255,76 L 259,72 L 259,71 L 260,70 L 260,66 L 259,65 L 259,64 L 258,63 L 258,61 L 257,60 L 257,57 L 259,55 L 259,54 L 260,53 L 260,52 L 261,51 L 261,45 L 262,44 L 262,34 L 263,33 L 263,31 L 264,30 L 264,29 L 266,27 Z" fill="none" stroke="black" stroke-width="1"/>
</svg>