<svg xmlns="http://www.w3.org/2000/svg" width="550" height="483">
  <path d="M 325,77 L 325,78 L 326,79 L 326,77 Z" fill="none" stroke="black" stroke-width="1"/>
  <path d="M 308,70 L 307,71 L 307,72 L 306,73 L 305,73 L 304,74 L 304,75 L 303,76 L 303,80 L 304,81 L 304,82 L 307,85 L 309,85 L 310,86 L 312,86 L 313,87 L 314,87 L 315,88 L 315,89 L 317,91 L 318,91 L 321,94 L 321,95 L 324,98 L 325,98 L 326,99 L 327,99 L 328,100 L 330,100 L 331,101 L 342,101 L 343,100 L 343,93 L 341,91 L 340,91 L 339,90 L 338,90 L 335,87 L 335,85 L 334,84 L 329,84 L 328,83 L 328,82 L 326,82 L 325,81 L 322,81 L 321,80 L 321,79 L 319,77 L 319,76 L 318,77 L 316,77 L 315,76 L 315,74 L 314,73 L 313,73 L 311,71 L 310,71 L 309,70 Z" fill="none" stroke="black" stroke-width="1"/>
</svg>