<svg xmlns="http://www.w3.org/2000/svg" width="550" height="483">
  <path d="M 358,97 L 360,97 Z" fill="none" stroke="black" stroke-width="1"/>
  <path d="M 344,93 L 344,100 L 343,101 L 343,102 L 345,104 L 346,104 L 348,106 L 349,106 L 350,107 L 352,107 L 354,109 L 354,110 L 355,110 L 357,112 L 357,114 L 359,114 L 361,112 L 362,113 L 366,113 L 367,114 L 368,114 L 369,115 L 370,115 L 371,116 L 372,116 L 373,117 L 378,117 L 379,116 L 382,116 L 382,115 L 381,114 L 381,112 L 380,111 L 380,109 L 379,108 L 379,107 L 378,106 L 378,105 L 376,103 L 375,103 L 373,105 L 372,105 L 371,106 L 365,106 L 363,104 L 361,104 L 359,102 L 357,102 L 356,101 L 355,101 L 354,100 L 354,97 L 353,96 L 353,95 L 350,95 L 349,94 L 348,94 L 347,93 Z" fill="none" stroke="black" stroke-width="1"/>
  <path d="M 360,88 L 359,89 L 356,89 L 355,90 L 355,91 L 358,91 L 358,90 L 359,89 L 361,89 Z" fill="none" stroke="black" stroke-width="1"/>
</svg>