<svg xmlns="http://www.w3.org/2000/svg" width="550" height="483">
  <path d="M 383,89 L 383,90 L 381,92 L 381,93 L 380,94 L 380,96 L 379,97 L 379,99 L 378,100 L 378,102 L 377,103 L 379,105 L 379,106 L 380,107 L 380,108 L 381,109 L 381,111 L 382,112 L 382,114 L 383,115 L 383,116 L 388,121 L 389,121 L 390,122 L 400,122 L 401,123 L 402,123 L 403,124 L 404,124 L 407,127 L 407,128 L 411,132 L 414,132 L 414,126 L 412,124 L 411,124 L 407,120 L 407,116 L 411,112 L 412,112 L 416,108 L 416,107 L 417,106 L 417,105 L 416,104 L 416,102 L 414,102 L 413,101 L 411,101 L 410,100 L 410,99 L 409,100 L 405,100 L 404,99 L 403,99 L 402,98 L 399,98 L 397,96 L 395,96 L 393,94 L 392,94 L 391,93 L 390,93 L 388,91 L 387,91 L 385,89 Z" fill="none" stroke="black" stroke-width="1"/>
</svg>