<svg xmlns="http://www.w3.org/2000/svg" width="550" height="483">
  <path d="M 488,178 L 488,179 L 487,180 L 486,180 L 485,181 L 484,181 L 484,183 L 485,184 L 485,185 L 486,186 L 486,187 L 488,189 L 489,189 L 490,190 L 490,191 L 492,193 L 492,194 L 493,195 L 493,196 L 494,197 L 494,199 L 495,200 L 496,200 L 497,201 L 497,202 L 500,205 L 502,205 L 503,206 L 525,206 L 526,207 L 528,207 L 529,208 L 533,208 L 531,206 L 530,206 L 529,205 L 528,205 L 527,204 L 527,202 L 526,201 L 526,199 L 525,198 L 524,198 L 523,197 L 522,198 L 521,198 L 519,196 L 519,195 L 518,194 L 516,194 L 514,192 L 515,191 L 516,191 L 517,192 L 517,191 L 515,189 L 514,189 L 513,190 L 512,189 L 512,188 L 511,187 L 511,186 L 508,186 L 506,184 L 506,183 L 505,182 L 503,182 L 502,181 L 499,181 L 499,187 L 500,188 L 498,190 L 497,190 L 496,189 L 495,189 L 493,187 L 493,184 L 492,183 L 492,180 L 491,179 L 491,178 Z" fill="none" stroke="black" stroke-width="1"/>
</svg>