<svg xmlns="http://www.w3.org/2000/svg" width="550" height="483">
  <path d="M 547,241 L 546,242 L 546,244 L 546,243 L 547,242 Z" fill="none" stroke="black" stroke-width="1"/>
  <path d="M 518,226 L 518,229 L 519,230 L 519,231 L 521,233 L 521,234 L 522,235 L 522,236 L 523,237 L 523,238 L 524,239 L 524,245 L 525,246 L 525,247 L 526,248 L 526,249 L 527,250 L 527,255 L 528,256 L 528,257 L 529,257 L 530,258 L 536,258 L 537,257 L 538,257 L 539,256 L 543,256 L 544,255 L 545,255 L 546,254 L 546,253 L 545,252 L 545,251 L 546,250 L 547,250 L 547,249 L 548,248 L 548,247 L 547,247 L 547,249 L 546,250 L 545,249 L 545,248 L 541,244 L 541,243 L 543,241 L 543,236 L 542,235 L 542,229 L 538,229 L 537,230 L 529,230 L 528,229 L 524,229 L 523,228 L 522,228 L 521,227 L 520,227 L 519,226 Z" fill="none" stroke="black" stroke-width="1"/>
</svg>