<svg xmlns="http://www.w3.org/2000/svg" width="550" height="483">
  <path d="M 504,222 L 504,225 L 505,226 L 505,227 L 506,228 L 506,239 L 505,240 L 504,240 L 496,248 L 496,249 L 495,250 L 495,257 L 496,258 L 497,258 L 498,259 L 503,259 L 504,260 L 519,260 L 523,264 L 524,264 L 525,265 L 527,265 L 528,264 L 530,264 L 531,263 L 536,263 L 537,262 L 537,260 L 536,259 L 530,259 L 529,258 L 528,258 L 527,257 L 527,256 L 526,255 L 526,250 L 525,249 L 525,248 L 524,247 L 524,246 L 523,245 L 523,239 L 522,238 L 522,237 L 521,236 L 521,235 L 520,234 L 520,233 L 518,231 L 518,230 L 517,229 L 517,225 L 516,225 L 515,224 L 514,224 L 512,222 Z" fill="none" stroke="black" stroke-width="1"/>
</svg>