<svg xmlns="http://www.w3.org/2000/svg" width="550" height="483">
  <path d="M 503,222 L 502,223 L 500,223 L 499,224 L 497,224 L 496,225 L 495,225 L 494,226 L 493,226 L 492,227 L 491,227 L 489,229 L 487,229 L 487,234 L 486,235 L 486,238 L 485,239 L 485,241 L 483,243 L 483,244 L 480,247 L 480,248 L 473,255 L 472,255 L 471,256 L 470,256 L 468,258 L 466,258 L 464,260 L 463,260 L 462,261 L 461,261 L 460,262 L 459,262 L 457,264 L 456,264 L 455,265 L 455,267 L 478,267 L 479,266 L 484,266 L 485,265 L 489,265 L 490,264 L 492,264 L 494,262 L 495,262 L 497,260 L 497,259 L 496,259 L 494,257 L 494,250 L 495,249 L 495,248 L 504,239 L 505,239 L 505,228 L 504,227 L 504,226 L 503,225 Z" fill="none" stroke="black" stroke-width="1"/>
</svg>