<svg xmlns="http://www.w3.org/2000/svg" width="550" height="483">
  <path d="M 498,260 L 495,263 L 494,263 L 492,265 L 490,265 L 489,266 L 485,266 L 484,267 L 479,267 L 478,268 L 455,268 L 453,270 L 453,280 L 455,282 L 461,282 L 462,283 L 466,283 L 467,284 L 469,284 L 470,285 L 471,285 L 472,286 L 483,286 L 484,287 L 486,287 L 487,288 L 488,287 L 489,287 L 490,286 L 492,286 L 494,284 L 495,284 L 496,283 L 497,283 L 498,282 L 501,282 L 502,281 L 515,281 L 516,280 L 516,279 L 518,277 L 518,276 L 521,273 L 523,273 L 524,272 L 525,272 L 526,271 L 527,271 L 526,270 L 526,266 L 525,266 L 524,265 L 523,265 L 519,261 L 504,261 L 503,260 Z" fill="none" stroke="black" stroke-width="1"/>
</svg>