<svg xmlns="http://www.w3.org/2000/svg" width="550" height="483">
  <path d="M 524,273 L 523,274 L 521,274 L 519,276 L 519,277 L 517,279 L 517,280 L 515,282 L 502,282 L 501,283 L 498,283 L 497,284 L 496,284 L 495,285 L 494,285 L 492,287 L 490,287 L 489,288 L 488,288 L 487,289 L 490,292 L 490,294 L 491,295 L 491,298 L 494,301 L 494,302 L 496,304 L 499,304 L 500,305 L 501,305 L 502,306 L 502,308 L 503,309 L 503,310 L 504,311 L 504,313 L 503,314 L 503,315 L 502,316 L 502,320 L 503,321 L 503,322 L 502,323 L 502,325 L 509,325 L 510,326 L 512,326 L 513,327 L 515,327 L 521,321 L 525,321 L 526,320 L 529,320 L 529,319 L 533,315 L 533,312 L 531,310 L 531,309 L 529,307 L 528,307 L 524,303 L 524,302 L 523,301 L 523,300 L 522,299 L 522,297 L 529,290 L 529,285 L 528,284 L 528,282 L 527,281 L 527,278 L 526,278 L 525,277 L 526,276 L 524,274 Z" fill="none" stroke="black" stroke-width="1"/>
</svg>