<svg xmlns="http://www.w3.org/2000/svg" width="550" height="483">
  <path d="M 504,366 L 503,367 L 502,367 L 500,369 L 500,370 L 496,374 L 495,374 L 494,375 L 494,376 L 493,377 L 493,389 L 492,390 L 492,396 L 494,396 L 495,397 L 496,397 L 498,399 L 498,400 L 499,401 L 500,401 L 500,395 L 499,394 L 499,392 L 500,391 L 500,387 L 501,386 L 501,383 L 502,382 L 502,377 L 503,376 L 503,375 L 504,374 L 504,373 L 505,372 L 505,371 L 507,369 L 507,366 Z" fill="none" stroke="black" stroke-width="1"/>
</svg>