<svg xmlns="http://www.w3.org/2000/svg" width="550" height="483">
  <path d="M 475,365 L 474,366 L 474,368 L 470,372 L 464,372 L 463,373 L 462,373 L 463,373 L 464,374 L 464,375 L 465,376 L 465,379 L 464,380 L 464,381 L 463,382 L 465,384 L 465,387 L 463,389 L 465,389 L 466,390 L 468,390 L 473,395 L 474,395 L 475,396 L 480,396 L 481,395 L 482,395 L 483,394 L 489,394 L 490,395 L 491,395 L 491,390 L 492,389 L 492,377 L 493,376 L 493,375 L 495,373 L 496,373 L 495,372 L 494,372 L 493,371 L 492,371 L 491,370 L 489,370 L 486,367 L 484,367 L 481,370 L 480,370 L 478,368 L 478,367 L 477,366 L 476,366 Z" fill="none" stroke="black" stroke-width="1"/>
</svg>