<svg xmlns="http://www.w3.org/2000/svg" width="550" height="483">
  <path d="M 504,347 L 503,348 L 502,348 L 499,351 L 496,351 L 495,352 L 492,352 L 491,353 L 489,353 L 488,354 L 487,354 L 486,355 L 485,355 L 484,356 L 481,356 L 480,357 L 479,357 L 477,359 L 477,360 L 475,362 L 475,364 L 476,365 L 477,365 L 479,367 L 479,368 L 480,369 L 481,369 L 484,366 L 486,366 L 489,369 L 491,369 L 492,370 L 493,370 L 494,371 L 495,371 L 496,372 L 497,372 L 499,370 L 499,369 L 502,366 L 503,366 L 504,365 L 505,365 L 503,363 L 503,358 L 504,357 L 504,356 L 506,354 L 506,351 L 507,350 L 507,349 L 508,348 L 508,347 Z" fill="none" stroke="black" stroke-width="1"/>
</svg>