<svg xmlns="http://www.w3.org/2000/svg" width="401" height="363">
  <path d="M 110,254 L 109,255 L 105,255 L 103,257 L 103,258 L 107,258 L 109,260 L 109,261 L 110,261 L 112,263 L 112,264 L 118,264 L 120,266 L 121,266 L 121,265 L 123,263 L 124,264 L 125,264 L 125,263 L 126,262 L 128,262 L 129,263 L 130,263 L 131,264 L 135,264 L 135,262 L 134,261 L 134,260 L 133,260 L 132,259 L 129,259 L 128,258 L 127,258 L 125,256 L 122,256 L 121,255 L 116,255 L 115,254 L 114,255 L 113,254 Z" fill="none" stroke="black" stroke-width="1"/>
</svg>