<svg xmlns="http://www.w3.org/2000/svg" width="550" height="483">
  <path d="M 444,325 L 433,336 L 432,336 L 428,340 L 427,340 L 426,341 L 426,342 L 423,345 L 422,345 L 421,346 L 418,346 L 416,348 L 413,348 L 411,350 L 414,353 L 422,353 L 424,355 L 425,355 L 426,356 L 427,356 L 428,357 L 428,358 L 429,358 L 431,360 L 436,360 L 437,361 L 443,361 L 444,362 L 445,362 L 448,365 L 450,365 L 451,366 L 452,366 L 453,367 L 454,367 L 456,369 L 457,369 L 458,370 L 459,370 L 460,371 L 461,371 L 462,372 L 463,372 L 464,371 L 470,371 L 473,368 L 473,366 L 474,365 L 474,362 L 476,360 L 476,359 L 479,356 L 480,356 L 481,355 L 480,355 L 478,353 L 477,353 L 475,351 L 475,350 L 474,349 L 474,348 L 468,342 L 468,341 L 467,340 L 467,339 L 466,339 L 465,338 L 453,338 L 452,337 L 451,337 L 450,336 L 450,333 L 445,328 L 445,327 L 444,326 Z" fill="none" stroke="black" stroke-width="1"/>
</svg>