<svg xmlns="http://www.w3.org/2000/svg" width="550" height="483">
  <path d="M 342,304 L 342,305 L 340,307 L 339,307 L 337,309 L 337,310 L 336,311 L 336,319 L 338,319 L 339,320 L 340,320 L 341,321 L 341,322 L 344,325 L 344,326 L 346,328 L 346,329 L 348,331 L 348,332 L 349,333 L 349,335 L 350,336 L 350,338 L 351,339 L 351,340 L 352,340 L 353,339 L 353,337 L 355,335 L 356,335 L 357,334 L 358,334 L 359,333 L 361,333 L 362,332 L 364,332 L 365,331 L 366,331 L 366,330 L 367,329 L 367,328 L 368,327 L 368,319 L 367,319 L 366,318 L 355,318 L 346,309 L 346,308 L 343,305 L 343,304 Z" fill="none" stroke="black" stroke-width="1"/>
</svg>