<svg xmlns="http://www.w3.org/2000/svg" width="550" height="483">
  <path d="M 71,305 L 71,306 L 69,308 L 69,309 L 68,310 L 68,311 L 67,312 L 67,313 L 64,316 L 64,321 L 66,323 L 66,325 L 72,331 L 72,332 L 73,333 L 75,333 L 77,335 L 78,335 L 79,336 L 99,336 L 100,335 L 101,335 L 102,334 L 103,334 L 104,333 L 104,332 L 105,331 L 105,330 L 106,329 L 106,324 L 105,324 L 104,323 L 103,323 L 102,322 L 101,322 L 100,321 L 99,321 L 98,320 L 97,320 L 96,319 L 95,319 L 94,318 L 93,318 L 92,317 L 91,317 L 89,315 L 88,315 L 87,314 L 86,314 L 85,313 L 84,313 L 83,312 L 82,312 L 80,310 L 79,310 L 76,307 L 75,307 L 74,306 L 73,306 L 72,305 Z" fill="none" stroke="black" stroke-width="1"/>
</svg>