<svg xmlns="http://www.w3.org/2000/svg" width="550" height="483">
  <path d="M 32,267 L 31,268 L 28,268 L 27,269 L 26,269 L 25,270 L 28,273 L 28,275 L 29,276 L 29,287 L 30,288 L 30,295 L 31,296 L 31,297 L 32,298 L 32,299 L 33,299 L 34,300 L 34,302 L 35,303 L 35,304 L 36,305 L 36,306 L 37,307 L 37,309 L 38,310 L 38,311 L 39,311 L 40,312 L 46,312 L 47,313 L 51,313 L 53,315 L 57,315 L 58,316 L 62,316 L 63,317 L 63,316 L 66,313 L 66,312 L 67,311 L 67,310 L 68,309 L 68,308 L 70,306 L 70,304 L 66,300 L 65,300 L 62,297 L 61,297 L 60,296 L 59,296 L 57,294 L 55,294 L 49,288 L 49,287 L 48,286 L 48,285 L 45,282 L 45,281 L 44,280 L 44,279 L 41,276 L 41,275 L 40,274 L 40,273 L 38,271 L 38,270 L 35,267 Z" fill="none" stroke="black" stroke-width="1"/>
</svg>