<svg xmlns="http://www.w3.org/2000/svg" width="550" height="483">
  <path d="M 35,148 L 33,150 L 33,151 L 34,151 L 35,150 Z" fill="none" stroke="black" stroke-width="1"/>
  <path d="M 102,136 L 101,137 L 100,137 L 99,138 L 94,138 L 92,140 L 89,140 L 88,139 L 86,139 L 85,138 L 84,139 L 82,139 L 82,140 L 81,141 L 81,142 L 80,143 L 79,143 L 78,144 L 71,144 L 67,148 L 65,148 L 64,149 L 59,149 L 58,148 L 56,148 L 55,149 L 53,149 L 52,148 L 51,148 L 48,151 L 47,151 L 46,152 L 45,152 L 43,154 L 41,154 L 41,155 L 39,157 L 38,157 L 37,158 L 37,159 L 36,160 L 35,160 L 34,161 L 33,161 L 32,162 L 30,162 L 29,163 L 28,163 L 26,165 L 25,165 L 24,166 L 24,167 L 23,168 L 23,169 L 22,170 L 22,171 L 21,172 L 21,173 L 20,174 L 19,174 L 18,175 L 17,175 L 16,174 L 16,166 L 14,168 L 14,171 L 12,173 L 12,174 L 11,175 L 11,177 L 12,178 L 12,179 L 13,180 L 13,182 L 15,182 L 16,183 L 17,183 L 18,184 L 18,185 L 19,186 L 19,187 L 20,188 L 20,190 L 21,191 L 22,191 L 23,192 L 28,192 L 34,198 L 35,198 L 37,200 L 37,198 L 39,196 L 45,196 L 47,198 L 48,198 L 49,199 L 50,199 L 51,200 L 56,200 L 57,199 L 58,199 L 59,198 L 59,197 L 62,194 L 66,194 L 67,193 L 71,193 L 72,194 L 73,194 L 78,189 L 79,189 L 80,188 L 83,188 L 84,187 L 89,187 L 90,186 L 91,186 L 94,183 L 103,183 L 104,182 L 107,182 L 108,181 L 109,181 L 110,180 L 111,180 L 112,179 L 116,179 L 117,180 L 124,180 L 126,178 L 127,178 L 128,177 L 130,177 L 131,176 L 134,176 L 135,175 L 135,168 L 134,167 L 134,162 L 133,161 L 133,158 L 132,157 L 132,154 L 131,153 L 131,152 L 127,148 L 120,148 L 119,147 L 115,147 L 114,146 L 113,146 L 112,145 L 109,145 L 108,144 L 108,143 L 107,143 L 104,140 L 104,136 Z" fill="none" stroke="black" stroke-width="1"/>
</svg>