<svg xmlns="http://www.w3.org/2000/svg" width="550" height="483">
  <path d="M 176,101 L 175,102 L 171,102 L 170,103 L 168,103 L 167,104 L 164,104 L 163,105 L 161,105 L 160,106 L 154,106 L 153,107 L 151,107 L 150,108 L 147,108 L 146,109 L 142,109 L 141,110 L 129,110 L 129,111 L 124,116 L 123,116 L 122,117 L 121,117 L 120,118 L 120,120 L 119,121 L 119,122 L 118,123 L 118,124 L 117,125 L 117,126 L 113,130 L 113,131 L 111,133 L 110,133 L 109,134 L 108,134 L 107,135 L 105,135 L 105,140 L 107,142 L 108,142 L 109,143 L 109,144 L 112,144 L 113,145 L 114,145 L 115,146 L 119,146 L 120,147 L 127,147 L 132,152 L 132,153 L 133,154 L 133,157 L 134,158 L 134,161 L 135,162 L 135,167 L 136,168 L 136,175 L 137,175 L 145,167 L 145,166 L 147,164 L 148,164 L 152,160 L 156,160 L 157,159 L 159,159 L 160,158 L 166,158 L 167,157 L 168,157 L 170,155 L 171,155 L 173,153 L 174,153 L 183,144 L 183,142 L 184,141 L 184,139 L 185,138 L 185,136 L 186,135 L 186,134 L 187,133 L 187,132 L 188,131 L 188,127 L 189,126 L 189,124 L 190,123 L 190,118 L 187,115 L 186,115 L 185,114 L 186,113 L 186,112 L 185,111 L 185,110 L 186,109 L 186,108 L 187,107 L 188,107 L 189,106 L 189,103 L 188,102 L 180,102 L 179,101 Z" fill="none" stroke="black" stroke-width="1"/>
</svg>