<svg xmlns="http://www.w3.org/2000/svg" width="550" height="483">
  <path d="M 166,60 L 165,61 L 165,62 L 166,62 Z" fill="none" stroke="black" stroke-width="1"/>
  <path d="M 188,51 L 188,54 L 185,57 L 184,57 L 182,55 L 182,56 L 181,57 L 180,57 L 179,56 L 179,54 L 180,53 L 179,53 L 178,52 L 178,53 L 179,54 L 179,57 L 178,58 L 178,60 L 177,61 L 177,62 L 176,63 L 175,62 L 175,60 L 173,60 L 172,59 L 173,58 L 172,58 L 172,61 L 171,62 L 168,62 L 168,63 L 167,64 L 166,64 L 166,65 L 167,66 L 167,67 L 168,67 L 169,68 L 169,69 L 170,70 L 169,71 L 168,71 L 167,70 L 167,69 L 166,69 L 165,70 L 164,69 L 164,68 L 164,69 L 163,70 L 162,70 L 163,71 L 164,71 L 165,72 L 165,74 L 164,75 L 163,74 L 163,73 L 162,73 L 161,72 L 160,72 L 159,71 L 159,72 L 158,73 L 157,72 L 157,71 L 157,73 L 158,73 L 159,74 L 158,75 L 157,75 L 156,76 L 156,80 L 157,80 L 157,79 L 158,78 L 159,78 L 160,79 L 159,80 L 159,81 L 158,82 L 158,83 L 157,84 L 156,84 L 156,86 L 159,86 L 160,87 L 162,87 L 163,88 L 162,89 L 159,89 L 158,88 L 153,88 L 152,87 L 152,86 L 151,85 L 150,85 L 150,86 L 149,87 L 147,87 L 146,86 L 146,85 L 147,84 L 145,84 L 145,86 L 146,86 L 147,87 L 146,88 L 146,89 L 145,90 L 145,91 L 147,93 L 147,94 L 148,94 L 149,95 L 148,96 L 150,98 L 150,99 L 149,100 L 146,97 L 145,97 L 145,102 L 144,103 L 141,100 L 141,99 L 140,98 L 140,97 L 138,95 L 138,94 L 137,93 L 137,91 L 136,90 L 136,89 L 137,88 L 136,88 L 136,89 L 135,90 L 134,90 L 133,91 L 134,92 L 133,93 L 132,93 L 131,94 L 132,95 L 131,96 L 129,96 L 128,97 L 127,97 L 126,98 L 126,108 L 127,109 L 141,109 L 142,108 L 146,108 L 147,107 L 150,107 L 151,106 L 153,106 L 154,105 L 160,105 L 161,104 L 163,104 L 164,103 L 167,103 L 168,102 L 170,102 L 171,101 L 175,101 L 176,100 L 179,100 L 180,101 L 187,101 L 188,100 L 188,99 L 190,97 L 191,97 L 194,94 L 194,93 L 196,91 L 196,90 L 200,86 L 201,86 L 207,80 L 208,80 L 210,78 L 212,78 L 213,77 L 216,77 L 217,76 L 218,76 L 219,75 L 219,69 L 220,68 L 218,66 L 215,66 L 214,65 L 209,65 L 210,66 L 210,68 L 209,69 L 208,68 L 207,69 L 208,70 L 208,71 L 207,72 L 204,69 L 205,68 L 205,66 L 206,65 L 206,64 L 204,62 L 203,62 L 201,60 L 201,58 L 199,56 L 198,56 L 196,54 L 196,53 L 195,52 L 193,52 L 192,53 L 190,51 Z" fill="none" stroke="black" stroke-width="1"/>
</svg>