<svg xmlns="http://www.w3.org/2000/svg" width="550" height="483">
  <path d="M 469,447 L 468,448 L 464,448 L 464,449 L 463,450 L 462,449 L 461,450 L 460,450 L 459,449 L 458,449 L 456,451 L 456,462 L 457,463 L 457,464 L 458,464 L 461,467 L 462,467 L 463,468 L 464,468 L 465,469 L 466,469 L 468,471 L 470,471 L 470,470 L 469,470 L 468,469 L 468,466 L 469,465 L 469,463 L 471,461 L 471,458 L 472,457 L 471,456 L 471,454 L 472,453 L 471,452 L 471,451 L 472,450 L 472,449 L 471,448 L 471,447 Z" fill="none" stroke="black" stroke-width="1"/>
  <path d="M 469,441 L 468,442 L 472,442 L 473,443 L 474,442 L 473,441 Z" fill="none" stroke="black" stroke-width="1"/>
  <path d="M 467,432 L 466,433 L 466,434 L 468,436 L 468,437 L 469,438 L 469,439 L 472,439 L 472,438 L 471,437 L 471,435 L 470,435 L 468,433 L 468,432 Z" fill="none" stroke="black" stroke-width="1"/>
</svg>