<svg xmlns="http://www.w3.org/2000/svg" width="550" height="483">
  <path d="M 436,446 L 435,447 L 435,452 L 437,454 L 437,455 L 438,456 L 438,458 L 440,460 L 440,461 L 441,462 L 441,463 L 443,465 L 442,466 L 440,466 L 441,467 L 441,469 L 442,470 L 442,471 L 443,471 L 444,472 L 444,474 L 445,475 L 446,475 L 450,471 L 451,471 L 454,468 L 454,467 L 455,466 L 455,452 L 449,452 L 447,450 L 446,450 L 444,448 L 442,448 L 441,447 L 438,447 L 437,446 Z" fill="none" stroke="black" stroke-width="1"/>
  <path d="M 419,435 L 419,436 L 418,437 L 418,443 L 419,443 L 421,441 L 421,436 L 420,435 Z" fill="none" stroke="black" stroke-width="1"/>
</svg>