<svg xmlns="http://www.w3.org/2000/svg" width="217" height="184">
  <path d="M 37,104 L 35,106 L 25,106 L 25,108 L 23,110 L 23,111 L 18,116 L 18,117 L 17,118 L 17,119 L 16,120 L 16,121 L 17,122 L 17,123 L 18,124 L 18,125 L 19,126 L 19,127 L 21,127 L 22,128 L 24,128 L 28,124 L 30,124 L 31,123 L 32,123 L 33,122 L 34,122 L 36,120 L 37,120 L 38,119 L 39,119 L 40,118 L 41,118 L 43,116 L 45,116 L 47,114 L 48,114 L 48,113 L 50,111 L 50,110 L 54,106 L 54,105 L 51,105 L 50,106 L 44,106 L 43,105 L 40,105 L 39,104 Z" fill="none" stroke="black" stroke-width="1"/>
</svg>