<svg xmlns="http://www.w3.org/2000/svg" width="217" height="184">
  <path d="M 72,102 L 72,103 L 71,104 L 70,104 L 69,103 L 67,103 L 66,104 L 65,104 L 64,103 L 58,103 L 56,105 L 55,105 L 55,106 L 51,110 L 51,111 L 49,113 L 49,114 L 48,115 L 47,115 L 45,117 L 45,119 L 46,119 L 47,118 L 49,118 L 50,117 L 51,117 L 52,116 L 53,117 L 59,117 L 61,119 L 65,119 L 66,120 L 69,120 L 70,121 L 70,122 L 71,123 L 74,120 L 74,118 L 75,117 L 75,116 L 77,114 L 77,113 L 78,112 L 78,108 L 79,107 L 79,104 L 78,103 L 75,103 L 74,102 Z" fill="none" stroke="black" stroke-width="1"/>
</svg>