<svg xmlns="http://www.w3.org/2000/svg" width="169" height="255">
  <path d="M 47,89 L 46,90 L 45,90 L 45,92 L 44,93 L 44,94 L 43,95 L 43,97 L 45,99 L 45,100 L 51,106 L 51,107 L 56,112 L 56,114 L 57,115 L 57,117 L 58,118 L 58,120 L 59,121 L 59,122 L 61,124 L 60,125 L 60,130 L 61,130 L 62,129 L 62,128 L 67,123 L 67,122 L 68,121 L 68,120 L 70,118 L 71,118 L 72,117 L 72,116 L 71,115 L 70,115 L 68,113 L 68,112 L 66,110 L 66,108 L 65,108 L 60,103 L 60,102 L 58,100 L 57,100 L 52,95 L 52,93 L 49,90 L 48,90 Z" fill="none" stroke="black" stroke-width="1"/>
</svg>