<svg xmlns="http://www.w3.org/2000/svg" width="259" height="209">
  <path d="M 129,107 L 128,108 L 125,108 L 124,109 L 123,109 L 122,110 L 121,110 L 120,109 L 119,110 L 117,110 L 117,112 L 118,113 L 117,114 L 117,116 L 118,117 L 118,122 L 119,123 L 118,124 L 118,127 L 117,128 L 117,130 L 119,130 L 120,129 L 121,129 L 122,128 L 123,128 L 124,127 L 132,127 L 133,126 L 137,126 L 136,125 L 140,121 L 140,116 L 139,115 L 140,114 L 140,112 L 142,110 L 142,109 L 140,109 L 139,108 L 135,108 L 134,107 Z" fill="none" stroke="black" stroke-width="1"/>
</svg>