<svg xmlns="http://www.w3.org/2000/svg" width="259" height="209">
  <path d="M 88,157 L 87,158 L 86,158 L 85,159 L 83,159 L 84,160 L 84,161 L 82,163 L 81,163 L 80,164 L 79,164 L 78,165 L 76,165 L 73,168 L 67,168 L 66,167 L 66,168 L 65,169 L 64,169 L 64,172 L 65,173 L 66,173 L 67,172 L 73,172 L 74,173 L 75,173 L 76,174 L 85,174 L 86,173 L 90,173 L 92,171 L 94,171 L 95,170 L 97,170 L 99,168 L 100,168 L 101,167 L 101,165 L 100,164 L 99,164 L 98,163 L 97,163 L 96,162 L 95,162 L 93,160 L 92,160 L 89,157 Z" fill="none" stroke="black" stroke-width="1"/>
</svg>