<svg xmlns="http://www.w3.org/2000/svg" width="259" height="209">
  <path d="M 72,138 L 71,139 L 70,139 L 69,140 L 66,140 L 65,141 L 61,141 L 60,142 L 59,142 L 59,143 L 58,144 L 57,144 L 55,142 L 53,144 L 52,144 L 51,145 L 50,145 L 50,149 L 49,150 L 49,151 L 48,152 L 48,155 L 50,157 L 50,158 L 52,160 L 52,161 L 53,161 L 54,162 L 54,163 L 61,170 L 63,170 L 63,169 L 64,168 L 65,168 L 65,167 L 66,166 L 66,164 L 72,158 L 72,155 L 71,154 L 71,152 L 72,151 L 73,151 L 73,150 L 72,149 L 72,144 L 73,143 L 73,141 L 74,140 L 74,138 Z" fill="none" stroke="black" stroke-width="1"/>
</svg>