<svg xmlns="http://www.w3.org/2000/svg" width="259" height="209">
  <path d="M 20,100 L 19,101 L 19,102 L 16,105 L 16,108 L 17,109 L 15,111 L 15,113 L 16,114 L 15,115 L 15,117 L 14,118 L 14,121 L 13,122 L 12,122 L 12,124 L 16,128 L 18,128 L 19,127 L 22,127 L 23,128 L 23,129 L 26,129 L 27,130 L 30,130 L 30,129 L 31,128 L 31,126 L 35,122 L 35,120 L 37,118 L 37,117 L 38,116 L 38,114 L 40,112 L 41,112 L 45,108 L 47,108 L 46,107 L 46,104 L 45,104 L 44,103 L 42,103 L 41,102 L 40,102 L 39,101 L 38,101 L 37,100 Z" fill="none" stroke="black" stroke-width="1"/>
</svg>