<svg xmlns="http://www.w3.org/2000/svg" width="259" height="209">
  <path d="M 202,39 L 202,40 L 200,42 L 200,43 L 199,44 L 199,45 L 197,47 L 196,47 L 194,49 L 192,49 L 192,51 L 191,52 L 185,52 L 185,55 L 184,56 L 184,57 L 186,59 L 186,60 L 187,61 L 188,61 L 189,62 L 190,62 L 195,67 L 195,68 L 197,68 L 198,67 L 200,67 L 207,60 L 208,60 L 209,59 L 210,59 L 213,56 L 212,55 L 212,53 L 211,53 L 210,52 L 210,45 L 209,44 L 209,43 L 207,41 L 207,40 L 206,40 L 205,39 Z" fill="none" stroke="black" stroke-width="1"/>
</svg>