<svg xmlns="http://www.w3.org/2000/svg" width="776" height="467">
  <path d="M 241,393 L 241,394 L 240,395 L 240,396 L 239,397 L 238,397 L 237,398 L 236,398 L 235,399 L 235,402 L 234,403 L 234,404 L 237,407 L 237,409 L 240,412 L 242,412 L 243,413 L 244,413 L 245,412 L 249,412 L 251,410 L 260,410 L 261,409 L 262,409 L 263,408 L 264,408 L 266,406 L 267,406 L 268,405 L 268,404 L 270,402 L 272,402 L 273,401 L 275,401 L 275,400 L 273,400 L 272,399 L 269,399 L 268,400 L 262,400 L 260,398 L 251,398 L 250,397 L 250,396 L 248,394 L 248,393 Z" fill="none" stroke="black" stroke-width="1"/>
</svg>