<svg xmlns="http://www.w3.org/2000/svg" width="776" height="467">
  <path d="M 449,389 L 448,390 L 447,390 L 446,391 L 445,391 L 444,392 L 444,393 L 440,397 L 439,397 L 437,399 L 436,399 L 434,401 L 434,402 L 435,401 L 438,401 L 439,400 L 443,400 L 444,401 L 445,400 L 448,400 L 449,401 L 451,401 L 452,400 L 462,400 L 463,401 L 475,401 L 477,399 L 478,399 L 479,398 L 479,397 L 480,396 L 481,396 L 481,393 L 480,392 L 479,393 L 478,393 L 476,395 L 475,395 L 474,396 L 473,396 L 472,397 L 469,394 L 468,394 L 467,393 L 463,393 L 462,394 L 460,394 L 459,393 L 458,393 L 456,391 L 455,391 L 453,393 Z" fill="none" stroke="black" stroke-width="1"/>
</svg>