<svg xmlns="http://www.w3.org/2000/svg" width="776" height="467">
  <path d="M 276,401 L 275,402 L 273,402 L 272,403 L 270,403 L 269,404 L 269,405 L 267,407 L 266,407 L 264,409 L 263,409 L 262,410 L 261,410 L 260,411 L 251,411 L 249,413 L 249,416 L 250,416 L 251,417 L 252,417 L 254,419 L 254,423 L 256,423 L 257,422 L 259,422 L 260,421 L 261,421 L 261,420 L 262,419 L 263,419 L 264,418 L 264,417 L 265,416 L 267,416 L 270,413 L 271,413 L 274,410 L 275,410 L 277,408 L 280,408 L 280,407 L 281,406 L 282,406 L 282,405 L 281,404 L 281,403 L 280,403 L 279,402 L 278,402 L 277,401 Z" fill="none" stroke="black" stroke-width="1"/>
</svg>