<svg xmlns="http://www.w3.org/2000/svg" width="776" height="467">
  <path d="M 327,377 L 326,378 L 325,378 L 324,379 L 323,379 L 322,380 L 321,380 L 320,379 L 318,381 L 317,381 L 317,382 L 314,385 L 311,385 L 310,386 L 309,386 L 309,387 L 308,388 L 308,389 L 310,389 L 311,390 L 311,393 L 312,394 L 312,395 L 313,396 L 313,397 L 314,398 L 317,398 L 318,397 L 319,397 L 320,396 L 324,396 L 325,395 L 326,395 L 331,390 L 333,390 L 334,389 L 335,389 L 337,387 L 337,385 L 336,384 L 336,381 L 335,381 L 334,380 L 332,380 L 331,379 L 330,379 L 328,377 Z" fill="none" stroke="black" stroke-width="1"/>
</svg>