<svg xmlns="http://www.w3.org/2000/svg" width="776" height="467">
  <path d="M 223,367 L 220,370 L 218,370 L 217,371 L 213,371 L 213,375 L 214,376 L 214,377 L 219,382 L 221,382 L 222,383 L 223,383 L 224,384 L 234,384 L 236,386 L 237,386 L 238,387 L 238,388 L 240,388 L 240,386 L 241,385 L 243,385 L 244,384 L 245,384 L 246,383 L 248,383 L 249,382 L 249,381 L 251,379 L 251,378 L 244,378 L 243,377 L 242,377 L 237,372 L 237,371 L 235,369 L 229,369 L 227,367 Z" fill="none" stroke="black" stroke-width="1"/>
</svg>