<svg xmlns="http://www.w3.org/2000/svg" width="776" height="467">
  <path d="M 282,365 L 281,366 L 280,366 L 279,367 L 278,367 L 276,369 L 275,369 L 273,371 L 271,371 L 271,372 L 270,373 L 270,374 L 268,376 L 268,378 L 267,379 L 269,381 L 269,388 L 272,391 L 272,392 L 273,391 L 277,391 L 278,390 L 280,390 L 281,389 L 282,389 L 283,388 L 284,388 L 286,386 L 287,386 L 287,384 L 288,383 L 290,383 L 291,382 L 291,381 L 292,380 L 293,380 L 293,379 L 294,378 L 297,378 L 297,377 L 296,376 L 297,375 L 297,374 L 295,372 L 294,372 L 291,369 L 288,369 L 287,368 L 286,368 L 285,367 L 285,366 L 284,365 Z" fill="none" stroke="black" stroke-width="1"/>
</svg>