<svg xmlns="http://www.w3.org/2000/svg" width="776" height="467">
  <path d="M 391,366 L 391,367 L 389,369 L 389,377 L 388,378 L 389,379 L 389,390 L 388,391 L 388,392 L 390,394 L 390,396 L 391,397 L 392,397 L 393,398 L 395,398 L 395,397 L 400,392 L 401,392 L 403,390 L 404,390 L 405,389 L 408,389 L 409,388 L 415,388 L 416,387 L 417,387 L 419,385 L 419,382 L 418,381 L 418,379 L 416,377 L 415,377 L 414,376 L 413,376 L 412,375 L 409,375 L 405,371 L 403,371 L 401,369 L 399,369 L 398,368 L 395,368 L 393,366 Z" fill="none" stroke="black" stroke-width="1"/>
</svg>