<svg xmlns="http://www.w3.org/2000/svg" width="776" height="467">
  <path d="M 213,376 L 212,377 L 212,378 L 211,379 L 211,383 L 209,385 L 209,386 L 208,387 L 208,388 L 207,389 L 206,389 L 207,390 L 207,392 L 206,393 L 208,395 L 209,395 L 210,396 L 214,396 L 215,397 L 216,397 L 217,396 L 221,396 L 223,398 L 224,398 L 225,399 L 228,399 L 229,400 L 231,400 L 233,402 L 234,402 L 234,399 L 236,397 L 237,397 L 238,396 L 239,396 L 239,395 L 240,394 L 240,393 L 241,392 L 241,390 L 240,390 L 239,389 L 238,389 L 237,388 L 237,387 L 236,387 L 234,385 L 224,385 L 223,384 L 222,384 L 221,383 L 219,383 L 213,377 Z" fill="none" stroke="black" stroke-width="1"/>
</svg>