<svg xmlns="http://www.w3.org/2000/svg" width="219" height="224">
  <path d="M 99,24 L 98,25 L 96,25 L 95,26 L 93,26 L 93,27 L 91,29 L 89,29 L 86,32 L 85,32 L 85,33 L 84,34 L 82,34 L 80,36 L 79,36 L 78,37 L 72,37 L 71,38 L 70,38 L 68,40 L 67,40 L 67,42 L 68,42 L 70,44 L 72,44 L 73,45 L 74,45 L 75,46 L 76,46 L 77,47 L 81,47 L 82,48 L 85,48 L 86,49 L 88,49 L 99,60 L 99,62 L 103,62 L 104,61 L 104,56 L 105,55 L 105,54 L 107,52 L 107,51 L 111,47 L 112,47 L 113,46 L 113,44 L 110,44 L 109,43 L 109,42 L 103,36 L 102,36 L 101,35 L 100,36 L 99,35 L 98,35 L 97,36 L 96,35 L 95,36 L 94,36 L 93,37 L 92,36 L 92,35 L 93,34 L 93,33 L 95,31 L 95,30 L 96,29 L 97,29 L 99,27 L 100,27 L 100,26 L 101,25 L 102,26 L 103,25 L 104,25 L 101,25 L 100,24 Z" fill="none" stroke="black" stroke-width="1"/>
</svg>