<svg xmlns="http://www.w3.org/2000/svg" width="219" height="224">
  <path d="M 78,48 L 77,49 L 72,49 L 71,50 L 70,50 L 69,51 L 67,51 L 66,52 L 66,57 L 65,58 L 65,60 L 66,60 L 67,59 L 71,59 L 72,60 L 74,60 L 75,61 L 76,61 L 77,62 L 78,62 L 79,63 L 81,63 L 83,65 L 83,67 L 84,68 L 85,68 L 86,69 L 86,71 L 88,71 L 93,76 L 93,80 L 95,82 L 99,82 L 99,78 L 101,76 L 101,75 L 103,73 L 104,73 L 106,71 L 105,70 L 104,70 L 102,68 L 102,67 L 101,66 L 101,64 L 102,63 L 99,63 L 98,62 L 98,60 L 88,50 L 86,50 L 85,49 L 82,49 L 81,48 Z" fill="none" stroke="black" stroke-width="1"/>
</svg>