<svg xmlns="http://www.w3.org/2000/svg" width="361" height="306">
  <path d="M 273,134 L 272,135 L 271,135 L 270,136 L 268,136 L 268,137 L 267,138 L 267,139 L 266,140 L 266,148 L 267,149 L 267,150 L 268,151 L 268,152 L 270,154 L 270,157 L 269,158 L 269,160 L 270,160 L 271,161 L 271,162 L 272,163 L 272,165 L 273,166 L 273,177 L 274,178 L 274,180 L 275,179 L 276,179 L 277,180 L 278,180 L 279,179 L 288,179 L 289,178 L 298,178 L 299,179 L 300,179 L 301,180 L 302,180 L 303,179 L 304,179 L 305,178 L 307,178 L 307,173 L 308,172 L 307,171 L 307,170 L 306,169 L 306,165 L 307,164 L 304,161 L 304,160 L 303,159 L 303,158 L 299,154 L 298,154 L 296,152 L 295,152 L 294,151 L 293,151 L 292,150 L 291,150 L 289,148 L 288,148 L 284,144 L 284,142 L 283,141 L 283,138 L 282,137 L 282,136 L 281,135 L 277,135 L 276,134 Z" fill="none" stroke="black" stroke-width="1"/>
</svg>