<svg xmlns="http://www.w3.org/2000/svg" width="401" height="363">
  <path d="M 258,355 L 258,356 L 259,356 L 261,358 L 261,359 L 262,359 L 262,357 L 261,357 L 259,355 Z" fill="none" stroke="black" stroke-width="1"/>
  <path d="M 247,354 L 247,355 L 250,358 L 251,358 L 252,359 L 253,359 L 251,357 L 250,357 Z" fill="none" stroke="black" stroke-width="1"/>
  <path d="M 230,347 L 230,348 L 229,349 L 229,350 L 230,351 L 230,353 L 231,354 L 232,354 L 233,353 L 234,353 L 235,354 L 240,354 L 243,351 L 242,351 L 238,347 Z" fill="none" stroke="black" stroke-width="1"/>
</svg>