<svg xmlns="http://www.w3.org/2000/svg" width="361" height="306">
  <path d="M 260,89 L 260,93 L 261,94 L 261,96 L 262,97 L 262,105 L 263,106 L 263,111 L 264,112 L 264,113 L 265,114 L 265,120 L 266,121 L 266,123 L 267,124 L 267,125 L 268,126 L 268,130 L 267,131 L 267,132 L 269,134 L 272,134 L 273,133 L 276,133 L 277,134 L 281,134 L 283,136 L 283,137 L 283,136 L 284,135 L 286,135 L 286,134 L 288,132 L 289,132 L 289,130 L 290,129 L 290,128 L 291,127 L 291,126 L 292,125 L 293,125 L 294,124 L 298,124 L 299,123 L 298,122 L 298,119 L 297,118 L 297,117 L 295,115 L 294,115 L 293,114 L 292,114 L 288,110 L 288,109 L 287,108 L 287,103 L 286,102 L 285,102 L 284,101 L 283,101 L 282,100 L 280,100 L 278,98 L 278,97 L 279,96 L 280,96 L 280,95 L 279,95 L 278,94 L 277,94 L 276,93 L 276,92 L 275,91 L 274,91 L 273,90 L 273,89 L 267,89 L 267,90 L 266,91 L 265,90 L 262,90 L 261,89 Z" fill="none" stroke="black" stroke-width="1"/>
</svg>