<svg xmlns="http://www.w3.org/2000/svg" width="753" height="314">
  <path d="M 450,250 L 449,251 L 437,251 L 436,252 L 434,252 L 433,251 L 424,251 L 423,252 L 422,252 L 420,254 L 415,254 L 414,253 L 413,253 L 412,252 L 412,251 L 411,251 L 409,253 L 409,256 L 412,259 L 411,260 L 411,262 L 413,264 L 412,265 L 412,266 L 411,267 L 410,267 L 409,268 L 408,268 L 407,269 L 407,271 L 409,273 L 409,275 L 408,276 L 408,277 L 410,279 L 410,280 L 411,281 L 411,282 L 412,283 L 410,285 L 410,288 L 409,289 L 409,290 L 408,291 L 408,292 L 406,294 L 406,297 L 405,298 L 405,301 L 404,302 L 404,304 L 405,303 L 407,303 L 408,304 L 411,304 L 411,298 L 412,297 L 412,295 L 413,294 L 414,294 L 416,296 L 416,295 L 421,290 L 421,289 L 420,288 L 422,286 L 422,285 L 423,284 L 423,283 L 425,281 L 427,281 L 427,278 L 426,277 L 426,276 L 427,275 L 427,274 L 429,272 L 430,272 L 431,273 L 432,273 L 433,274 L 435,274 L 437,272 L 439,272 L 442,269 L 443,269 L 445,267 L 446,267 L 447,266 L 447,264 L 448,263 L 448,261 L 453,256 L 454,256 L 456,254 L 457,254 L 457,252 L 456,252 L 455,251 L 455,250 Z" fill="none" stroke="black" stroke-width="1"/>
</svg>