<svg xmlns="http://www.w3.org/2000/svg" width="219" height="224">
  <path d="M 99,120 L 99,121 L 98,122 L 97,122 L 96,123 L 88,123 L 87,124 L 84,124 L 83,123 L 81,123 L 80,122 L 79,122 L 78,121 L 78,122 L 77,123 L 77,124 L 80,127 L 80,135 L 79,136 L 80,137 L 80,140 L 81,141 L 81,144 L 83,146 L 86,146 L 87,147 L 91,147 L 93,149 L 93,151 L 94,151 L 96,149 L 97,149 L 99,147 L 100,147 L 103,144 L 104,144 L 106,142 L 107,142 L 108,143 L 108,144 L 108,143 L 107,142 L 107,137 L 108,136 L 108,135 L 107,134 L 107,133 L 105,131 L 105,129 L 104,128 L 104,127 L 103,126 L 103,125 L 102,124 L 102,120 Z" fill="none" stroke="black" stroke-width="1"/>
</svg>