<svg xmlns="http://www.w3.org/2000/svg" width="219" height="224">
  <path d="M 87,180 L 86,181 L 84,181 L 82,183 L 74,183 L 73,184 L 73,185 L 72,186 L 72,187 L 71,188 L 70,188 L 67,191 L 66,191 L 65,192 L 65,195 L 63,197 L 63,201 L 64,201 L 65,202 L 65,204 L 67,206 L 69,206 L 71,208 L 72,208 L 73,209 L 73,210 L 74,210 L 76,212 L 76,216 L 77,216 L 78,215 L 78,213 L 80,211 L 80,210 L 82,208 L 82,207 L 83,206 L 83,205 L 84,204 L 84,203 L 85,202 L 85,201 L 86,200 L 86,199 L 87,198 L 87,193 L 88,192 L 88,191 L 89,190 L 89,188 L 90,187 L 90,185 L 89,184 L 89,182 L 88,181 L 88,180 Z" fill="none" stroke="black" stroke-width="1"/>
</svg>