<svg xmlns="http://www.w3.org/2000/svg" width="361" height="306">
  <path d="M 349,142 L 348,143 L 347,143 L 344,146 L 343,146 L 342,147 L 340,147 L 339,148 L 338,148 L 337,149 L 334,149 L 333,150 L 331,150 L 330,151 L 329,151 L 326,154 L 326,157 L 328,159 L 328,160 L 329,161 L 331,161 L 335,165 L 335,166 L 337,168 L 337,169 L 338,170 L 338,172 L 339,173 L 339,175 L 340,176 L 340,177 L 341,178 L 341,179 L 343,179 L 344,178 L 346,178 L 346,176 L 347,175 L 347,174 L 348,173 L 348,171 L 346,169 L 346,166 L 349,163 L 351,163 L 352,162 L 356,162 L 356,160 L 357,159 L 358,159 L 358,157 L 359,156 L 360,156 L 360,152 L 359,151 L 359,150 L 358,149 L 358,146 L 356,144 L 355,144 L 354,143 L 353,143 L 352,142 Z" fill="none" stroke="black" stroke-width="1"/>
</svg>