<svg xmlns="http://www.w3.org/2000/svg" width="219" height="224">
  <path d="M 157,152 L 156,153 L 152,153 L 152,154 L 153,155 L 153,158 L 152,159 L 152,160 L 154,162 L 154,163 L 153,164 L 153,166 L 152,167 L 152,168 L 151,169 L 151,171 L 152,172 L 152,175 L 150,177 L 150,182 L 149,183 L 149,186 L 150,185 L 150,184 L 151,183 L 155,183 L 156,182 L 156,180 L 157,179 L 158,179 L 159,178 L 160,178 L 161,177 L 162,177 L 164,175 L 166,175 L 167,174 L 174,174 L 175,175 L 179,175 L 179,172 L 180,171 L 181,171 L 182,170 L 182,165 L 186,161 L 187,161 L 187,160 L 188,159 L 189,159 L 190,158 L 187,155 L 185,155 L 184,154 L 184,153 L 179,153 L 177,155 L 172,155 L 171,154 L 166,154 L 164,152 Z" fill="none" stroke="black" stroke-width="1"/>
</svg>