<svg xmlns="http://www.w3.org/2000/svg" width="361" height="306">
  <path d="M 262,251 L 259,254 L 259,255 L 258,256 L 258,258 L 256,260 L 253,260 L 252,261 L 252,263 L 250,265 L 250,266 L 248,268 L 248,269 L 245,272 L 246,273 L 246,274 L 249,277 L 250,277 L 251,278 L 253,278 L 256,281 L 257,281 L 258,282 L 264,282 L 265,283 L 266,282 L 269,282 L 270,281 L 273,281 L 274,280 L 283,280 L 284,281 L 285,281 L 288,284 L 289,284 L 292,281 L 292,280 L 293,279 L 292,278 L 292,277 L 293,276 L 292,275 L 292,273 L 291,272 L 291,271 L 290,270 L 290,267 L 289,266 L 289,264 L 288,263 L 288,260 L 287,260 L 286,259 L 285,259 L 281,255 L 280,255 L 279,254 L 274,254 L 272,252 L 270,252 L 269,251 Z" fill="none" stroke="black" stroke-width="1"/>
</svg>