<svg xmlns="http://www.w3.org/2000/svg" width="258" height="263">
  <path d="M 154,42 L 154,43 L 153,44 L 153,45 L 147,51 L 146,51 L 145,52 L 144,52 L 142,54 L 140,54 L 138,56 L 138,60 L 140,60 L 141,61 L 142,61 L 145,64 L 146,64 L 147,65 L 148,65 L 149,66 L 150,66 L 153,69 L 154,69 L 155,70 L 155,71 L 156,72 L 156,73 L 157,74 L 157,75 L 158,76 L 158,79 L 161,82 L 161,80 L 164,77 L 166,77 L 167,76 L 168,76 L 169,75 L 170,75 L 170,74 L 171,73 L 174,73 L 174,70 L 177,67 L 178,67 L 181,64 L 181,63 L 185,59 L 186,59 L 187,58 L 189,58 L 189,55 L 188,55 L 186,53 L 178,53 L 177,52 L 176,52 L 175,51 L 169,51 L 168,50 L 168,48 L 167,48 L 166,47 L 157,47 L 156,46 L 156,44 L 155,44 L 154,43 Z" fill="none" stroke="black" stroke-width="1"/>
</svg>