<svg xmlns="http://www.w3.org/2000/svg" width="258" height="263">
  <path d="M 171,74 L 171,75 L 170,76 L 169,76 L 168,77 L 167,77 L 166,78 L 164,78 L 162,80 L 162,86 L 163,87 L 163,88 L 167,92 L 167,93 L 168,94 L 168,96 L 167,97 L 168,98 L 168,99 L 167,100 L 167,101 L 166,102 L 166,104 L 168,104 L 170,106 L 171,106 L 172,105 L 178,105 L 179,106 L 180,106 L 181,105 L 183,105 L 187,101 L 188,101 L 191,98 L 194,98 L 195,97 L 198,97 L 199,96 L 199,95 L 198,94 L 198,92 L 199,91 L 199,87 L 204,82 L 204,81 L 203,81 L 202,80 L 202,79 L 192,79 L 191,78 L 187,78 L 186,77 L 183,77 L 182,76 L 180,76 L 179,75 L 175,75 L 174,74 Z" fill="none" stroke="black" stroke-width="1"/>
</svg>