<svg xmlns="http://www.w3.org/2000/svg" width="258" height="263">
  <path d="M 237,61 L 236,62 L 234,62 L 233,63 L 232,63 L 231,64 L 226,64 L 225,65 L 224,65 L 220,69 L 220,70 L 215,75 L 215,76 L 220,76 L 221,75 L 223,77 L 226,77 L 227,78 L 228,78 L 229,79 L 230,79 L 232,81 L 232,82 L 233,83 L 233,85 L 235,85 L 236,84 L 236,82 L 237,81 L 239,81 L 240,80 L 241,80 L 243,78 L 243,74 L 244,73 L 244,72 L 245,71 L 246,71 L 246,70 L 249,67 L 249,66 L 250,65 L 248,63 L 245,63 L 244,62 L 244,61 L 241,61 L 240,62 L 238,62 Z" fill="none" stroke="black" stroke-width="1"/>
</svg>