<svg xmlns="http://www.w3.org/2000/svg" width="217" height="184">
  <path d="M 88,49 L 86,51 L 85,51 L 82,54 L 81,54 L 78,57 L 76,57 L 76,58 L 74,60 L 74,61 L 70,65 L 68,65 L 67,66 L 66,66 L 65,67 L 65,68 L 66,69 L 67,69 L 69,71 L 72,71 L 73,70 L 74,70 L 76,68 L 79,68 L 80,67 L 83,67 L 84,66 L 87,66 L 88,65 L 89,65 L 90,64 L 93,64 L 94,63 L 95,63 L 95,59 L 98,56 L 98,55 L 99,54 L 100,54 L 101,53 L 101,50 L 102,49 L 100,49 L 99,50 L 98,50 L 97,49 Z" fill="none" stroke="black" stroke-width="1"/>
</svg>