<svg xmlns="http://www.w3.org/2000/svg" width="259" height="209">
  <path d="M 139,89 L 135,93 L 134,93 L 134,94 L 132,96 L 131,96 L 130,97 L 128,97 L 127,98 L 126,98 L 123,101 L 122,101 L 121,102 L 119,102 L 119,105 L 118,106 L 118,107 L 119,108 L 120,108 L 121,109 L 122,109 L 123,108 L 124,108 L 125,107 L 128,107 L 129,106 L 134,106 L 135,107 L 139,107 L 140,108 L 143,108 L 145,106 L 148,106 L 151,103 L 152,103 L 154,101 L 155,101 L 155,99 L 154,99 L 153,98 L 153,97 L 152,97 L 148,93 L 148,92 L 147,92 L 146,91 L 143,91 L 142,90 L 141,90 L 140,89 Z" fill="none" stroke="black" stroke-width="1"/>
</svg>