<svg xmlns="http://www.w3.org/2000/svg" width="361" height="306">
  <path d="M 275,216 L 274,217 L 273,217 L 272,218 L 270,218 L 269,219 L 267,219 L 266,220 L 264,220 L 261,223 L 261,225 L 257,229 L 257,230 L 255,232 L 255,242 L 256,243 L 256,244 L 254,246 L 254,249 L 256,251 L 257,251 L 258,252 L 260,252 L 262,250 L 269,250 L 270,251 L 272,251 L 274,253 L 279,253 L 280,254 L 281,254 L 285,258 L 286,258 L 286,254 L 287,253 L 287,252 L 288,251 L 287,250 L 287,248 L 291,244 L 291,240 L 290,239 L 290,232 L 291,231 L 291,229 L 290,228 L 290,227 L 289,226 L 289,223 L 288,222 L 288,221 L 287,220 L 287,219 L 285,217 L 285,216 L 279,216 L 278,217 L 276,217 Z" fill="none" stroke="black" stroke-width="1"/>
</svg>