<svg xmlns="http://www.w3.org/2000/svg" width="361" height="306">
  <path d="M 242,159 L 241,160 L 240,160 L 239,161 L 238,161 L 236,163 L 235,163 L 234,164 L 233,164 L 234,165 L 232,167 L 232,168 L 231,169 L 231,170 L 230,171 L 230,173 L 231,174 L 231,176 L 228,179 L 227,179 L 226,180 L 225,180 L 224,181 L 223,181 L 222,182 L 220,182 L 219,183 L 219,185 L 217,187 L 217,188 L 216,189 L 216,190 L 215,191 L 216,191 L 217,192 L 218,192 L 220,194 L 227,194 L 228,193 L 243,193 L 244,194 L 248,194 L 249,195 L 250,195 L 251,196 L 253,196 L 254,195 L 256,195 L 257,194 L 257,192 L 258,191 L 258,189 L 259,188 L 259,187 L 258,186 L 258,180 L 257,179 L 257,178 L 254,175 L 254,174 L 251,171 L 251,169 L 250,168 L 250,167 L 249,166 L 249,164 L 248,163 L 248,162 L 245,159 Z" fill="none" stroke="black" stroke-width="1"/>
</svg>