<svg xmlns="http://www.w3.org/2000/svg" width="361" height="306">
  <path d="M 223,117 L 222,118 L 216,118 L 215,119 L 213,119 L 207,125 L 206,125 L 205,126 L 201,126 L 200,127 L 203,130 L 203,135 L 204,136 L 204,137 L 205,138 L 205,140 L 206,141 L 217,141 L 218,142 L 226,142 L 227,141 L 229,141 L 230,142 L 231,142 L 232,143 L 234,143 L 235,142 L 237,142 L 239,144 L 240,144 L 242,146 L 242,148 L 243,148 L 244,147 L 249,147 L 250,146 L 256,146 L 257,147 L 259,147 L 260,148 L 261,148 L 262,149 L 265,149 L 265,145 L 263,143 L 262,143 L 258,139 L 257,139 L 256,138 L 253,138 L 252,137 L 251,137 L 250,136 L 250,135 L 249,135 L 245,131 L 245,130 L 242,127 L 242,126 L 241,125 L 240,125 L 239,124 L 238,124 L 236,122 L 235,122 L 233,120 L 232,120 L 230,118 L 229,118 L 228,117 Z" fill="none" stroke="black" stroke-width="1"/>
</svg>