<svg xmlns="http://www.w3.org/2000/svg" width="361" height="306">
  <path d="M 11,37 L 11,55 L 10,56 L 10,58 L 11,59 L 11,61 L 12,62 L 12,64 L 13,65 L 13,66 L 14,66 L 15,67 L 15,69 L 14,70 L 15,71 L 15,72 L 20,77 L 20,78 L 21,79 L 21,81 L 22,82 L 22,88 L 24,90 L 24,91 L 25,92 L 25,93 L 32,100 L 33,100 L 35,102 L 46,102 L 46,97 L 50,93 L 50,92 L 53,89 L 54,89 L 53,89 L 49,85 L 49,82 L 48,81 L 48,72 L 49,71 L 49,70 L 48,69 L 48,59 L 45,56 L 42,56 L 41,55 L 40,55 L 39,54 L 39,53 L 36,50 L 34,50 L 33,49 L 32,49 L 31,48 L 30,48 L 29,47 L 25,47 L 24,46 L 24,44 L 23,43 L 22,43 L 17,38 L 16,38 L 15,37 Z" fill="none" stroke="black" stroke-width="1"/>
</svg>