<svg xmlns="http://www.w3.org/2000/svg" width="361" height="306">
  <path d="M 153,34 L 152,35 L 152,38 L 153,39 L 153,40 L 154,41 L 154,45 L 155,46 L 155,49 L 153,51 L 153,53 L 152,54 L 152,55 L 151,56 L 151,58 L 150,59 L 150,62 L 152,64 L 152,72 L 153,73 L 153,74 L 154,75 L 154,76 L 155,77 L 155,82 L 160,87 L 160,86 L 161,85 L 164,85 L 165,84 L 169,84 L 170,83 L 181,83 L 182,82 L 184,82 L 185,81 L 186,81 L 187,80 L 191,80 L 192,79 L 192,74 L 193,73 L 192,72 L 192,70 L 189,67 L 189,66 L 188,65 L 188,62 L 189,61 L 187,59 L 187,55 L 186,55 L 183,52 L 183,51 L 182,50 L 181,50 L 180,49 L 179,49 L 177,47 L 177,45 L 174,42 L 172,42 L 171,41 L 169,41 L 168,40 L 166,40 L 165,39 L 164,39 L 163,38 L 162,38 L 161,37 L 160,37 L 158,35 L 157,35 L 156,34 Z" fill="none" stroke="black" stroke-width="1"/>
</svg>