<svg xmlns="http://www.w3.org/2000/svg" width="753" height="314">
  <path d="M 340,207 L 338,209 L 337,209 L 336,210 L 335,209 L 334,210 L 334,211 L 335,212 L 334,213 L 334,218 L 335,219 L 335,220 L 336,221 L 336,222 L 335,223 L 335,226 L 334,227 L 334,230 L 333,231 L 333,232 L 332,233 L 332,235 L 331,236 L 331,238 L 330,239 L 330,241 L 329,242 L 329,244 L 337,244 L 339,246 L 340,246 L 342,248 L 344,248 L 345,249 L 346,248 L 349,248 L 350,249 L 351,249 L 352,250 L 354,250 L 355,251 L 359,251 L 360,250 L 369,250 L 370,251 L 371,251 L 372,252 L 374,252 L 375,251 L 378,251 L 379,252 L 379,253 L 380,253 L 381,254 L 383,254 L 383,251 L 384,250 L 386,250 L 386,249 L 385,248 L 385,247 L 383,245 L 383,243 L 382,242 L 382,241 L 383,240 L 383,239 L 385,237 L 385,235 L 384,236 L 383,236 L 381,234 L 381,233 L 380,232 L 380,231 L 371,222 L 368,222 L 366,220 L 365,220 L 364,219 L 363,219 L 362,218 L 359,218 L 358,217 L 356,217 L 355,216 L 354,216 L 353,215 L 352,215 L 349,212 L 348,212 L 346,210 L 345,210 L 344,209 L 342,209 L 341,208 L 341,207 Z" fill="none" stroke="black" stroke-width="1"/>
</svg>