<svg xmlns="http://www.w3.org/2000/svg" width="753" height="314">
  <path d="M 323,195 L 321,197 L 320,197 L 319,198 L 317,198 L 316,199 L 314,199 L 313,200 L 309,200 L 308,199 L 307,199 L 306,198 L 304,198 L 303,197 L 301,197 L 300,196 L 293,196 L 292,197 L 290,197 L 289,198 L 286,198 L 285,199 L 278,199 L 277,200 L 276,200 L 276,203 L 281,208 L 281,209 L 285,213 L 286,213 L 288,215 L 289,215 L 290,216 L 291,216 L 292,217 L 293,217 L 294,218 L 294,219 L 296,221 L 296,225 L 298,227 L 298,228 L 299,229 L 300,229 L 301,230 L 301,231 L 303,233 L 303,234 L 305,236 L 306,236 L 307,237 L 308,237 L 309,238 L 310,238 L 311,239 L 312,239 L 314,241 L 315,241 L 316,242 L 318,242 L 319,241 L 324,241 L 326,243 L 327,243 L 328,244 L 328,242 L 329,241 L 329,239 L 330,238 L 330,236 L 331,235 L 331,233 L 332,232 L 332,231 L 333,230 L 333,227 L 334,226 L 334,223 L 335,222 L 335,221 L 334,220 L 334,219 L 333,218 L 333,213 L 334,212 L 333,211 L 333,210 L 335,208 L 335,207 L 334,207 L 333,206 L 332,206 L 328,202 L 329,201 L 329,199 L 326,196 L 326,195 Z" fill="none" stroke="black" stroke-width="1"/>
</svg>