<svg xmlns="http://www.w3.org/2000/svg" width="259" height="209">
  <path d="M 122,54 L 121,55 L 121,58 L 119,60 L 118,59 L 115,59 L 115,66 L 119,70 L 119,72 L 121,74 L 121,76 L 123,78 L 123,79 L 128,79 L 129,78 L 136,78 L 137,79 L 143,79 L 144,78 L 144,75 L 151,68 L 151,66 L 150,66 L 149,65 L 144,65 L 143,66 L 142,66 L 141,67 L 138,67 L 137,66 L 136,66 L 135,65 L 134,65 L 133,64 L 132,64 L 130,62 L 128,62 L 127,61 L 127,60 L 126,59 L 126,56 L 124,54 Z" fill="none" stroke="black" stroke-width="1"/>
</svg>