<svg xmlns="http://www.w3.org/2000/svg" width="219" height="224">
  <path d="M 123,126 L 123,127 L 122,128 L 122,129 L 118,133 L 117,133 L 116,134 L 114,134 L 115,134 L 118,137 L 118,138 L 119,139 L 119,141 L 120,141 L 123,144 L 124,144 L 130,150 L 137,150 L 138,149 L 138,148 L 143,143 L 144,143 L 145,142 L 146,142 L 147,141 L 149,141 L 150,140 L 151,140 L 152,139 L 152,136 L 153,135 L 153,133 L 154,132 L 154,129 L 153,129 L 152,128 L 151,128 L 150,127 L 149,127 L 148,128 L 147,128 L 145,130 L 140,130 L 139,129 L 135,129 L 134,128 L 130,128 L 129,127 L 128,128 L 127,127 L 126,127 L 125,126 Z" fill="none" stroke="black" stroke-width="1"/>
</svg>