<svg xmlns="http://www.w3.org/2000/svg" width="259" height="209">
  <path d="M 71,75 L 69,77 L 68,77 L 67,78 L 66,78 L 65,79 L 64,79 L 64,81 L 65,82 L 65,83 L 66,84 L 66,86 L 63,89 L 62,89 L 61,90 L 63,92 L 64,92 L 67,95 L 67,96 L 70,99 L 70,100 L 71,101 L 72,101 L 73,102 L 73,105 L 74,106 L 74,108 L 75,109 L 75,110 L 76,111 L 76,112 L 81,112 L 81,111 L 82,110 L 82,106 L 83,105 L 84,105 L 85,104 L 86,104 L 88,102 L 88,97 L 89,96 L 89,92 L 88,92 L 87,91 L 86,91 L 83,88 L 83,87 L 82,86 L 82,84 L 81,83 L 81,79 L 80,78 L 79,78 L 77,76 L 75,76 L 74,75 Z" fill="none" stroke="black" stroke-width="1"/>
</svg>