<svg xmlns="http://www.w3.org/2000/svg" width="1790" height="1070">
  <path d="M 1044,47 L 1044,48 L 1045,49 L 1046,49 L 1047,48 L 1046,48 L 1045,47 Z" fill="none" stroke="black" stroke-width="1"/>
  <path d="M 1050,45 L 1049,46 L 1049,47 L 1050,48 L 1052,48 L 1053,49 L 1053,52 L 1054,52 L 1055,51 L 1058,51 L 1059,50 L 1059,49 L 1058,48 L 1057,48 L 1056,47 L 1053,47 L 1052,48 L 1051,47 L 1051,46 Z" fill="none" stroke="black" stroke-width="1"/>
  <path d="M 1041,42 L 1040,43 L 1040,44 L 1041,44 L 1042,43 L 1044,43 L 1045,44 L 1047,44 L 1048,43 L 1042,43 Z" fill="none" stroke="black" stroke-width="1"/>
</svg>