<svg xmlns="http://www.w3.org/2000/svg" width="1790" height="1070">
  <path d="M 650,738 L 650,740 L 649,741 L 646,741 L 645,742 L 645,743 L 647,743 L 648,742 L 649,742 L 649,741 L 650,740 L 651,740 L 652,741 L 654,741 L 654,739 L 653,738 Z" fill="none" stroke="black" stroke-width="1"/>
  <path d="M 712,726 L 712,730 L 713,730 L 713,726 Z" fill="none" stroke="black" stroke-width="1"/>
  <path d="M 665,723 L 665,726 L 666,727 L 667,727 L 667,725 L 666,724 L 666,723 Z" fill="none" stroke="black" stroke-width="1"/>
  <path d="M 658,718 L 658,721 L 659,721 L 659,719 Z" fill="none" stroke="black" stroke-width="1"/>
  <path d="M 709,711 L 709,713 L 710,713 L 710,711 Z" fill="none" stroke="black" stroke-width="1"/>
  <path d="M 693,704 L 693,707 L 694,708 L 695,708 L 695,704 Z" fill="none" stroke="black" stroke-width="1"/>
  <path d="M 694,698 L 694,700 L 696,700 L 696,699 L 695,698 Z" fill="none" stroke="black" stroke-width="1"/>
  <path d="M 694,685 L 694,687 L 695,687 L 696,686 L 696,685 Z" fill="none" stroke="black" stroke-width="1"/>
</svg>