<svg xmlns="http://www.w3.org/2000/svg" width="1790" height="1070">
  <path d="M 678,703 L 677,704 L 677,705 L 676,706 L 676,708 L 677,708 L 677,707 L 678,706 Z" fill="none" stroke="black" stroke-width="1"/>
  <path d="M 675,700 L 674,701 L 673,701 L 673,702 L 674,702 L 675,703 Z" fill="none" stroke="black" stroke-width="1"/>
  <path d="M 672,695 L 671,696 L 669,696 L 667,698 L 665,698 L 664,699 L 662,699 L 660,701 L 659,701 L 657,703 L 656,702 L 655,702 L 654,703 L 654,704 L 655,704 L 657,706 L 657,707 L 658,707 L 658,706 L 659,705 L 661,705 L 662,706 L 662,704 L 664,702 L 666,702 L 667,703 L 667,704 L 670,704 L 669,703 L 669,701 L 671,699 L 672,699 L 674,697 L 674,696 L 675,695 Z" fill="none" stroke="black" stroke-width="1"/>
</svg>