<svg xmlns="http://www.w3.org/2000/svg" width="1790" height="1070">
  <path d="M 696,900 L 696,901 L 695,902 L 693,902 L 692,903 L 691,903 L 691,904 L 690,905 L 690,906 L 688,908 L 686,908 L 685,909 L 682,909 L 681,908 L 679,908 L 678,907 L 675,907 L 674,906 L 674,907 L 672,909 L 672,910 L 673,911 L 673,918 L 671,920 L 669,920 L 669,926 L 673,926 L 674,927 L 675,927 L 676,928 L 679,928 L 680,927 L 680,926 L 681,925 L 683,925 L 685,923 L 685,922 L 687,920 L 688,921 L 689,921 L 691,923 L 692,923 L 693,924 L 694,924 L 695,923 L 695,922 L 696,921 L 697,921 L 697,920 L 698,919 L 699,919 L 700,918 L 700,917 L 701,916 L 700,915 L 701,914 L 700,913 L 701,912 L 701,911 L 700,910 L 700,908 L 701,907 L 701,906 L 704,903 L 703,902 L 701,902 L 700,901 L 699,901 L 698,900 Z" fill="none" stroke="black" stroke-width="1"/>
</svg>