<svg xmlns="http://www.w3.org/2000/svg" width="1028" height="413">
  <path d="M 580,368 L 579,369 L 580,369 L 583,372 L 582,373 L 580,373 L 579,372 L 577,372 L 577,373 L 582,378 L 582,379 L 584,381 L 584,382 L 586,384 L 586,385 L 584,387 L 584,390 L 585,391 L 587,391 L 588,392 L 591,392 L 592,391 L 593,391 L 594,390 L 597,390 L 596,389 L 596,387 L 597,386 L 597,385 L 598,384 L 598,383 L 597,382 L 597,381 L 596,380 L 596,378 L 594,378 L 593,377 L 592,378 L 590,376 L 589,376 L 588,375 L 588,374 L 587,373 L 587,371 L 586,371 L 585,370 L 585,369 L 582,369 L 581,368 Z" fill="none" stroke="black" stroke-width="1"/>
</svg>