<svg xmlns="http://www.w3.org/2000/svg" width="491" height="213">
  <path d="M 342,26 L 341,27 L 337,27 L 336,28 L 333,28 L 335,28 L 336,29 L 336,35 L 335,36 L 334,36 L 333,37 L 332,37 L 331,38 L 329,38 L 340,38 L 341,37 L 342,37 L 343,36 L 343,34 L 342,33 L 342,28 L 344,26 Z" fill="none" stroke="black" stroke-width="1"/>
  <path d="M 350,16 L 349,17 L 348,17 L 346,19 L 344,19 L 344,21 L 349,21 L 350,20 L 351,20 L 351,19 L 352,18 L 353,18 L 353,16 Z" fill="none" stroke="black" stroke-width="1"/>
</svg>