<svg xmlns="http://www.w3.org/2000/svg" width="194" height="180">
  <path d="M 59,94 L 58,95 L 55,95 L 55,96 L 54,97 L 52,97 L 48,101 L 48,102 L 47,103 L 46,103 L 45,102 L 43,102 L 42,103 L 41,102 L 40,103 L 38,103 L 37,104 L 36,104 L 37,105 L 36,106 L 30,106 L 30,107 L 31,108 L 29,110 L 28,110 L 27,111 L 27,114 L 28,115 L 28,116 L 32,120 L 33,120 L 34,121 L 35,121 L 37,123 L 38,123 L 39,124 L 41,124 L 42,125 L 47,125 L 48,124 L 49,124 L 50,123 L 53,123 L 54,122 L 56,122 L 57,121 L 57,120 L 58,119 L 59,119 L 59,118 L 60,117 L 61,117 L 62,116 L 64,116 L 64,114 L 65,113 L 66,113 L 66,111 L 67,110 L 68,110 L 69,109 L 69,106 L 68,105 L 68,104 L 67,103 L 67,97 L 65,97 L 64,96 L 64,95 L 63,94 Z" fill="none" stroke="black" stroke-width="1"/>
</svg>