<svg xmlns="http://www.w3.org/2000/svg" width="194" height="180">
  <path d="M 21,67 L 20,68 L 19,68 L 18,69 L 18,72 L 17,73 L 15,73 L 14,74 L 12,72 L 12,71 L 12,72 L 10,74 L 9,74 L 8,75 L 8,81 L 4,85 L 1,85 L 0,86 L 0,90 L 6,90 L 7,91 L 8,91 L 9,92 L 7,94 L 8,95 L 8,96 L 9,97 L 9,101 L 10,102 L 10,103 L 11,103 L 13,105 L 13,106 L 15,108 L 17,108 L 17,107 L 18,106 L 21,109 L 22,109 L 23,108 L 24,109 L 24,110 L 23,111 L 24,111 L 27,108 L 28,108 L 29,107 L 29,106 L 30,105 L 31,105 L 31,104 L 30,104 L 29,103 L 29,101 L 28,100 L 27,100 L 26,99 L 26,98 L 25,97 L 25,96 L 22,93 L 22,90 L 23,89 L 23,88 L 24,87 L 24,79 L 25,78 L 26,78 L 26,74 L 25,74 L 24,73 L 24,69 L 22,69 L 21,68 Z" fill="none" stroke="black" stroke-width="1"/>
</svg>