<svg xmlns="http://www.w3.org/2000/svg" width="296" height="251">
  <path d="M 89,24 L 83,30 L 79,30 L 77,32 L 77,33 L 76,34 L 76,35 L 74,37 L 73,37 L 73,38 L 72,39 L 72,42 L 73,42 L 74,43 L 74,45 L 73,46 L 73,50 L 72,51 L 69,51 L 68,52 L 67,52 L 67,58 L 68,59 L 68,62 L 69,62 L 70,63 L 69,64 L 70,65 L 70,66 L 71,65 L 73,65 L 74,66 L 75,66 L 76,67 L 77,67 L 78,68 L 79,67 L 81,67 L 83,65 L 85,65 L 88,62 L 89,62 L 91,64 L 92,64 L 93,65 L 94,65 L 95,66 L 100,66 L 101,67 L 103,67 L 105,65 L 108,65 L 109,64 L 110,65 L 112,65 L 112,64 L 113,63 L 114,63 L 113,63 L 110,60 L 108,60 L 107,59 L 105,59 L 99,53 L 99,52 L 98,51 L 98,50 L 97,49 L 96,49 L 94,47 L 94,46 L 93,45 L 93,42 L 92,41 L 92,39 L 91,38 L 92,37 L 93,37 L 95,35 L 94,34 L 94,33 L 93,32 L 94,31 L 91,28 L 91,25 L 90,24 Z" fill="none" stroke="black" stroke-width="1"/>
</svg>