<svg xmlns="http://www.w3.org/2000/svg" width="296" height="251">
  <path d="M 114,60 L 116,62 L 114,64 L 113,64 L 113,65 L 115,67 L 115,71 L 114,72 L 114,73 L 112,75 L 112,76 L 111,77 L 106,77 L 105,76 L 105,77 L 104,78 L 104,79 L 103,80 L 103,81 L 106,84 L 106,86 L 109,86 L 110,87 L 110,91 L 111,91 L 113,93 L 115,93 L 117,95 L 117,96 L 118,95 L 119,96 L 119,97 L 121,99 L 126,99 L 128,97 L 130,97 L 130,96 L 131,95 L 133,95 L 133,93 L 135,91 L 135,90 L 133,88 L 133,87 L 132,86 L 132,85 L 131,84 L 131,83 L 130,82 L 130,80 L 129,79 L 129,77 L 128,76 L 128,74 L 124,70 L 124,69 L 125,68 L 121,64 L 120,64 L 116,60 Z" fill="none" stroke="black" stroke-width="1"/>
</svg>