<svg xmlns="http://www.w3.org/2000/svg" width="296" height="251">
  <path d="M 105,101 L 103,103 L 99,103 L 98,104 L 101,107 L 101,108 L 102,108 L 104,110 L 104,111 L 105,112 L 105,113 L 108,113 L 109,114 L 111,114 L 112,115 L 113,115 L 114,116 L 114,118 L 115,118 L 116,117 L 117,117 L 120,114 L 121,114 L 121,112 L 122,111 L 122,110 L 123,109 L 123,108 L 122,107 L 120,107 L 115,102 L 114,102 L 113,103 L 111,103 L 110,102 L 107,102 L 106,101 Z" fill="none" stroke="black" stroke-width="1"/>
</svg>