<svg xmlns="http://www.w3.org/2000/svg" width="296" height="251">
  <path d="M 145,105 L 144,106 L 143,106 L 142,107 L 141,107 L 140,108 L 139,108 L 138,109 L 138,110 L 137,111 L 137,112 L 136,113 L 136,116 L 137,117 L 137,118 L 138,119 L 139,119 L 140,120 L 142,120 L 143,121 L 148,121 L 150,119 L 152,119 L 153,118 L 157,118 L 158,117 L 159,117 L 160,116 L 160,115 L 161,114 L 161,113 L 160,113 L 159,114 L 158,113 L 157,114 L 155,114 L 151,110 L 151,109 L 150,108 L 150,106 L 148,106 L 147,105 Z" fill="none" stroke="black" stroke-width="1"/>
</svg>