<svg xmlns="http://www.w3.org/2000/svg" width="194" height="180">
  <path d="M 100,14 L 98,16 L 98,17 L 97,18 L 96,18 L 95,19 L 93,19 L 91,21 L 90,21 L 87,24 L 87,28 L 88,28 L 89,29 L 90,29 L 91,30 L 92,30 L 93,31 L 93,36 L 92,37 L 92,40 L 93,40 L 94,41 L 94,43 L 95,43 L 96,44 L 97,44 L 98,45 L 101,45 L 101,44 L 100,43 L 100,41 L 102,39 L 104,39 L 105,40 L 107,40 L 108,39 L 108,38 L 109,37 L 114,37 L 115,36 L 116,36 L 118,34 L 119,34 L 120,35 L 121,34 L 122,34 L 121,33 L 121,30 L 120,30 L 117,27 L 117,26 L 116,26 L 111,21 L 110,21 L 108,19 L 104,19 L 102,17 L 102,15 L 101,14 Z" fill="none" stroke="black" stroke-width="1"/>
</svg>