<svg xmlns="http://www.w3.org/2000/svg" width="194" height="180">
  <path d="M 87,29 L 84,32 L 83,32 L 82,33 L 82,35 L 80,37 L 79,37 L 78,38 L 72,38 L 71,39 L 69,39 L 68,40 L 67,40 L 66,41 L 63,41 L 61,39 L 61,37 L 59,35 L 56,35 L 56,36 L 54,38 L 54,39 L 53,40 L 53,41 L 52,42 L 52,43 L 45,50 L 45,51 L 44,52 L 44,57 L 45,57 L 46,58 L 47,58 L 48,59 L 52,59 L 55,62 L 55,63 L 54,64 L 54,68 L 60,68 L 61,67 L 64,67 L 65,66 L 67,66 L 70,63 L 71,63 L 72,62 L 74,62 L 75,61 L 75,55 L 76,54 L 77,54 L 78,53 L 78,52 L 77,51 L 77,50 L 78,49 L 80,49 L 81,50 L 85,50 L 85,49 L 86,48 L 87,48 L 89,46 L 90,46 L 91,45 L 92,45 L 92,44 L 93,43 L 93,41 L 92,41 L 91,40 L 91,37 L 92,36 L 92,31 L 91,31 L 90,30 L 89,30 L 88,29 Z" fill="none" stroke="black" stroke-width="1"/>
</svg>