<svg xmlns="http://www.w3.org/2000/svg" width="194" height="180">
  <path d="M 93,44 L 93,45 L 92,46 L 91,46 L 90,47 L 89,47 L 87,49 L 86,49 L 86,50 L 85,51 L 81,51 L 80,50 L 78,50 L 78,51 L 79,52 L 79,53 L 77,55 L 76,55 L 76,61 L 77,62 L 77,64 L 80,67 L 81,67 L 82,66 L 85,66 L 86,67 L 87,67 L 89,69 L 89,71 L 91,71 L 93,73 L 96,73 L 97,72 L 98,72 L 99,71 L 100,71 L 102,69 L 102,68 L 103,67 L 104,67 L 105,66 L 110,66 L 112,64 L 113,64 L 114,63 L 112,63 L 111,62 L 111,59 L 110,59 L 109,58 L 110,57 L 109,56 L 109,55 L 108,54 L 108,52 L 106,50 L 105,50 L 102,47 L 102,46 L 98,46 L 97,45 L 96,45 L 95,44 Z" fill="none" stroke="black" stroke-width="1"/>
</svg>