<svg xmlns="http://www.w3.org/2000/svg" width="194" height="180">
  <path d="M 111,120 L 110,121 L 109,121 L 108,122 L 106,122 L 105,123 L 105,124 L 104,125 L 104,133 L 106,135 L 106,138 L 103,141 L 103,142 L 104,143 L 106,143 L 107,144 L 108,144 L 109,145 L 110,145 L 110,144 L 111,143 L 113,143 L 114,142 L 115,142 L 115,141 L 116,140 L 116,139 L 114,137 L 114,136 L 115,135 L 115,134 L 114,133 L 114,130 L 113,129 L 113,128 L 112,128 L 111,127 L 111,126 L 110,125 L 112,123 L 112,122 L 113,121 L 113,120 Z" fill="none" stroke="black" stroke-width="1"/>
</svg>