<svg xmlns="http://www.w3.org/2000/svg" width="194" height="180">
  <path d="M 103,143 L 102,144 L 101,144 L 100,145 L 98,145 L 97,146 L 95,146 L 94,147 L 94,148 L 93,149 L 92,148 L 92,150 L 94,152 L 93,153 L 95,153 L 96,154 L 96,158 L 97,158 L 98,159 L 101,159 L 102,160 L 102,161 L 104,161 L 105,162 L 105,161 L 106,160 L 106,158 L 109,155 L 110,155 L 110,153 L 109,152 L 109,151 L 110,150 L 113,150 L 113,144 L 111,144 L 111,145 L 110,146 L 109,146 L 108,145 L 107,145 L 106,144 L 104,144 Z" fill="none" stroke="black" stroke-width="1"/>
</svg>