<svg xmlns="http://www.w3.org/2000/svg" width="194" height="180">
  <path d="M 136,83 L 135,84 L 135,86 L 134,87 L 130,87 L 129,86 L 128,86 L 127,85 L 121,85 L 120,86 L 120,87 L 119,88 L 119,95 L 120,95 L 121,96 L 121,99 L 122,100 L 123,99 L 124,99 L 126,97 L 128,99 L 128,100 L 129,100 L 130,99 L 131,99 L 132,98 L 133,98 L 134,97 L 135,97 L 136,98 L 136,99 L 142,99 L 142,98 L 143,97 L 142,96 L 141,96 L 140,95 L 139,95 L 138,94 L 138,93 L 137,92 L 137,91 L 138,90 L 138,84 L 137,83 Z" fill="none" stroke="black" stroke-width="1"/>
</svg>