<svg xmlns="http://www.w3.org/2000/svg" width="194" height="180">
  <path d="M 149,38 L 149,42 L 148,43 L 147,43 L 148,44 L 147,45 L 145,45 L 144,46 L 141,46 L 140,47 L 140,48 L 139,49 L 138,49 L 138,50 L 140,52 L 139,53 L 139,56 L 138,57 L 138,58 L 140,60 L 140,62 L 142,62 L 144,64 L 146,64 L 147,65 L 148,65 L 148,64 L 151,61 L 152,61 L 153,60 L 159,60 L 162,57 L 163,57 L 163,55 L 162,54 L 162,53 L 160,51 L 160,48 L 159,47 L 155,47 L 154,48 L 153,48 L 152,47 L 152,45 L 151,44 L 151,43 L 153,41 L 153,40 L 152,39 L 151,39 L 150,38 Z" fill="none" stroke="black" stroke-width="1"/>
</svg>