<svg xmlns="http://www.w3.org/2000/svg" width="194" height="180">
  <path d="M 150,26 L 150,28 L 151,29 L 151,30 L 150,31 L 149,31 L 148,30 L 147,30 L 146,31 L 146,33 L 148,33 L 149,34 L 148,35 L 148,36 L 149,37 L 150,37 L 151,38 L 152,38 L 154,40 L 154,41 L 152,43 L 152,44 L 153,45 L 153,47 L 154,47 L 155,46 L 160,46 L 161,45 L 162,45 L 164,43 L 166,43 L 166,41 L 165,40 L 165,39 L 163,39 L 162,40 L 160,40 L 159,39 L 159,33 L 157,33 L 155,31 L 155,30 L 156,29 L 156,28 L 155,28 L 154,27 L 154,26 Z" fill="none" stroke="black" stroke-width="1"/>
</svg>