<svg xmlns="http://www.w3.org/2000/svg" width="296" height="251">
  <path d="M 125,139 L 126,140 L 125,141 L 124,141 L 123,142 L 122,142 L 121,143 L 118,143 L 117,144 L 117,148 L 116,149 L 116,150 L 117,151 L 119,151 L 120,152 L 120,158 L 122,158 L 123,157 L 126,157 L 127,156 L 128,156 L 129,155 L 130,155 L 130,153 L 131,152 L 132,152 L 133,151 L 134,151 L 135,152 L 137,152 L 138,153 L 139,153 L 140,152 L 142,152 L 142,149 L 141,148 L 141,146 L 139,144 L 139,143 L 137,143 L 136,142 L 134,142 L 133,141 L 131,141 L 130,140 L 129,140 L 128,139 Z" fill="none" stroke="black" stroke-width="1"/>
</svg>