<svg xmlns="http://www.w3.org/2000/svg" width="296" height="251">
  <path d="M 180,169 L 180,174 L 176,178 L 175,178 L 174,177 L 173,178 L 173,180 L 174,181 L 175,181 L 178,184 L 179,184 L 180,185 L 180,186 L 181,187 L 181,189 L 182,190 L 185,190 L 186,191 L 186,192 L 187,192 L 188,193 L 189,193 L 190,194 L 191,194 L 192,193 L 192,192 L 193,191 L 194,191 L 195,190 L 197,190 L 198,191 L 199,191 L 201,189 L 201,188 L 200,188 L 199,187 L 196,187 L 193,184 L 193,183 L 192,182 L 192,181 L 191,180 L 191,178 L 189,176 L 189,175 L 188,174 L 187,174 L 185,172 L 184,172 L 182,170 L 181,170 Z" fill="none" stroke="black" stroke-width="1"/>
</svg>