<svg xmlns="http://www.w3.org/2000/svg" width="296" height="251">
  <path d="M 133,152 L 132,153 L 131,153 L 131,156 L 132,157 L 132,158 L 133,159 L 133,160 L 134,160 L 135,161 L 135,167 L 136,167 L 137,168 L 137,170 L 138,170 L 139,171 L 139,172 L 141,172 L 142,173 L 142,174 L 143,175 L 143,176 L 142,177 L 151,177 L 152,178 L 152,177 L 153,176 L 153,173 L 152,172 L 152,166 L 153,165 L 153,164 L 154,163 L 154,159 L 150,159 L 148,157 L 147,157 L 145,155 L 144,155 L 143,154 L 142,154 L 141,153 L 140,153 L 139,154 L 138,154 L 137,153 L 135,153 L 134,152 Z" fill="none" stroke="black" stroke-width="1"/>
</svg>