<svg xmlns="http://www.w3.org/2000/svg" width="296" height="251">
  <path d="M 137,177 L 136,178 L 135,178 L 135,180 L 133,182 L 130,182 L 130,183 L 129,184 L 127,184 L 127,185 L 126,186 L 125,186 L 124,187 L 123,187 L 122,188 L 121,188 L 119,190 L 119,191 L 118,192 L 116,192 L 115,193 L 115,197 L 116,198 L 116,199 L 117,200 L 119,200 L 120,201 L 121,201 L 122,200 L 125,200 L 126,199 L 127,199 L 128,200 L 128,204 L 129,205 L 129,206 L 130,206 L 132,204 L 138,204 L 138,199 L 141,196 L 142,196 L 142,195 L 143,194 L 146,194 L 147,193 L 147,192 L 148,191 L 149,191 L 150,190 L 152,190 L 152,189 L 151,188 L 151,187 L 153,185 L 153,180 L 151,178 L 140,178 L 139,177 Z" fill="none" stroke="black" stroke-width="1"/>
</svg>