<svg xmlns="http://www.w3.org/2000/svg" width="194" height="180">
  <path d="M 149,118 L 148,119 L 147,119 L 146,120 L 142,120 L 141,121 L 139,121 L 138,120 L 138,119 L 136,119 L 134,121 L 134,122 L 136,124 L 136,125 L 134,127 L 130,127 L 129,128 L 128,128 L 128,131 L 127,132 L 127,133 L 128,134 L 129,134 L 130,135 L 130,137 L 139,137 L 140,136 L 144,136 L 145,135 L 146,135 L 146,134 L 148,132 L 149,132 L 150,131 L 153,131 L 154,130 L 155,131 L 157,131 L 157,129 L 158,128 L 161,128 L 162,127 L 162,125 L 161,124 L 161,123 L 160,122 L 160,120 L 158,120 L 157,121 L 153,121 L 150,118 Z" fill="none" stroke="black" stroke-width="1"/>
</svg>