<svg xmlns="http://www.w3.org/2000/svg" width="194" height="180">
  <path d="M 154,131 L 153,132 L 150,132 L 149,133 L 148,133 L 147,134 L 147,135 L 146,136 L 145,136 L 144,137 L 142,137 L 142,139 L 144,141 L 145,141 L 146,142 L 146,143 L 144,145 L 144,146 L 142,148 L 139,148 L 139,149 L 138,150 L 138,151 L 139,151 L 140,152 L 141,152 L 142,153 L 147,153 L 148,152 L 148,151 L 150,149 L 151,149 L 152,148 L 155,148 L 155,147 L 156,146 L 157,146 L 158,145 L 159,145 L 160,144 L 166,144 L 166,139 L 164,139 L 161,136 L 160,136 L 157,133 L 157,132 L 155,132 Z" fill="none" stroke="black" stroke-width="1"/>
</svg>