<svg xmlns="http://www.w3.org/2000/svg" width="296" height="251">
  <path d="M 113,198 L 112,199 L 112,201 L 111,202 L 110,202 L 108,204 L 105,204 L 103,206 L 103,208 L 102,209 L 100,209 L 99,210 L 98,210 L 98,211 L 99,212 L 99,213 L 100,213 L 101,214 L 102,214 L 104,216 L 103,217 L 103,218 L 102,219 L 101,219 L 100,220 L 100,223 L 102,225 L 102,226 L 101,227 L 101,228 L 102,229 L 103,229 L 104,228 L 105,228 L 106,227 L 107,227 L 108,226 L 108,224 L 111,221 L 112,221 L 113,222 L 114,221 L 115,221 L 117,223 L 118,223 L 118,221 L 120,219 L 121,219 L 122,218 L 122,217 L 121,216 L 121,215 L 120,214 L 120,212 L 123,209 L 125,209 L 127,207 L 129,207 L 128,206 L 128,205 L 127,204 L 127,200 L 126,200 L 125,201 L 122,201 L 121,202 L 120,202 L 119,201 L 117,201 L 115,199 L 115,198 Z" fill="none" stroke="black" stroke-width="1"/>
</svg>