<svg xmlns="http://www.w3.org/2000/svg" width="150" height="272">
  <path d="M 61,240 L 60,241 L 59,241 L 59,246 L 58,247 L 59,248 L 58,249 L 57,249 L 56,248 L 56,245 L 56,249 L 57,250 L 57,252 L 58,253 L 58,254 L 59,255 L 59,256 L 61,256 L 62,257 L 61,258 L 60,258 L 62,260 L 62,261 L 63,262 L 66,262 L 66,261 L 67,260 L 68,260 L 69,259 L 70,259 L 70,256 L 71,255 L 70,254 L 70,252 L 71,251 L 71,250 L 70,249 L 70,246 L 69,245 L 69,244 L 68,243 L 68,241 L 64,241 L 63,240 Z" fill="none" stroke="black" stroke-width="1"/>
</svg>