<svg xmlns="http://www.w3.org/2000/svg" width="123" height="220">
  <path d="M 9,126 L 8,127 L 7,127 L 5,129 L 4,129 L 3,130 L 1,130 L 0,131 L 0,132 L 1,133 L 1,136 L 0,137 L 0,138 L 2,138 L 3,139 L 3,143 L 2,144 L 2,146 L 4,148 L 5,148 L 6,149 L 8,149 L 8,148 L 9,147 L 12,147 L 12,146 L 13,145 L 15,145 L 15,142 L 17,140 L 17,139 L 19,137 L 20,137 L 21,136 L 22,136 L 23,135 L 22,135 L 21,134 L 21,132 L 18,129 L 17,129 L 16,128 L 15,128 L 13,126 Z" fill="none" stroke="black" stroke-width="1"/>
</svg>