<svg xmlns="http://www.w3.org/2000/svg" width="150" height="272">
  <path d="M 65,150 L 63,152 L 62,152 L 60,154 L 58,154 L 56,156 L 50,156 L 47,159 L 46,159 L 46,163 L 48,163 L 49,164 L 49,165 L 50,166 L 51,166 L 51,165 L 53,163 L 56,163 L 58,165 L 58,166 L 60,166 L 61,165 L 61,164 L 62,163 L 63,163 L 64,164 L 64,165 L 66,167 L 66,170 L 67,171 L 68,171 L 68,170 L 69,169 L 73,169 L 73,168 L 72,167 L 72,165 L 74,163 L 75,163 L 75,160 L 71,160 L 68,157 L 68,156 L 67,155 L 67,154 L 66,153 L 66,150 Z" fill="none" stroke="black" stroke-width="1"/>
</svg>