<svg xmlns="http://www.w3.org/2000/svg" width="150" height="272">
  <path d="M 44,87 L 40,91 L 39,90 L 37,90 L 35,92 L 35,94 L 37,96 L 38,96 L 39,97 L 39,98 L 40,99 L 40,100 L 41,101 L 41,102 L 43,104 L 44,104 L 45,103 L 46,103 L 48,101 L 49,101 L 50,102 L 51,102 L 52,103 L 52,104 L 53,104 L 54,105 L 54,104 L 55,103 L 58,103 L 60,105 L 61,105 L 61,96 L 62,95 L 63,95 L 63,94 L 60,91 L 59,91 L 58,90 L 56,90 L 55,89 L 50,89 L 49,88 L 48,88 L 47,87 Z" fill="none" stroke="black" stroke-width="1"/>
</svg>