<svg xmlns="http://www.w3.org/2000/svg" width="150" height="272">
  <path d="M 45,65 L 44,66 L 39,66 L 38,67 L 38,68 L 37,69 L 36,69 L 35,70 L 34,70 L 34,71 L 33,72 L 32,72 L 32,73 L 31,74 L 33,76 L 33,77 L 34,77 L 35,78 L 35,79 L 36,79 L 37,80 L 37,82 L 40,82 L 41,83 L 41,84 L 42,85 L 43,85 L 44,86 L 47,86 L 48,85 L 51,85 L 51,83 L 52,82 L 53,82 L 53,78 L 54,77 L 52,75 L 52,74 L 54,72 L 54,71 L 53,70 L 53,69 L 52,69 L 51,68 L 51,67 L 50,66 L 48,66 L 47,65 Z" fill="none" stroke="black" stroke-width="1"/>
</svg>