<svg xmlns="http://www.w3.org/2000/svg" width="150" height="272">
  <path d="M 113,43 L 111,45 L 110,45 L 107,48 L 106,47 L 102,47 L 101,48 L 99,48 L 97,50 L 96,50 L 95,51 L 93,51 L 92,50 L 91,50 L 91,51 L 90,52 L 86,52 L 85,53 L 85,54 L 86,55 L 86,57 L 87,58 L 87,59 L 89,61 L 89,62 L 90,63 L 90,65 L 91,65 L 93,67 L 94,67 L 96,69 L 97,69 L 98,70 L 99,69 L 100,69 L 102,67 L 103,67 L 104,66 L 116,66 L 119,63 L 120,63 L 121,62 L 122,62 L 122,60 L 121,59 L 121,55 L 122,54 L 123,54 L 125,52 L 125,51 L 126,50 L 126,47 L 124,47 L 123,46 L 120,46 L 118,44 L 115,44 L 114,43 Z" fill="none" stroke="black" stroke-width="1"/>
</svg>