<svg xmlns="http://www.w3.org/2000/svg" width="254" height="186">
  <path d="M 27,157 L 26,158 L 25,158 L 24,159 L 21,159 L 21,160 L 20,161 L 17,161 L 16,160 L 15,160 L 14,159 L 10,159 L 9,160 L 7,160 L 5,162 L 3,162 L 1,164 L 1,176 L 0,177 L 0,178 L 2,178 L 4,180 L 4,181 L 8,181 L 9,182 L 9,183 L 10,184 L 13,184 L 14,185 L 16,185 L 16,184 L 17,183 L 18,183 L 19,182 L 19,179 L 18,178 L 19,177 L 21,177 L 25,173 L 25,171 L 26,170 L 27,170 L 27,169 L 28,168 L 29,168 L 30,167 L 30,163 L 29,162 L 29,158 L 28,157 Z" fill="none" stroke="black" stroke-width="1"/>
</svg>