<svg xmlns="http://www.w3.org/2000/svg" width="150" height="272">
  <path d="M 66,48 L 65,49 L 64,49 L 63,50 L 62,50 L 62,51 L 61,52 L 58,52 L 57,53 L 56,53 L 55,54 L 55,55 L 54,56 L 54,57 L 55,58 L 55,59 L 56,60 L 56,62 L 57,62 L 59,60 L 60,61 L 62,59 L 64,59 L 65,60 L 69,60 L 70,61 L 71,61 L 72,60 L 73,60 L 74,61 L 79,61 L 81,59 L 82,59 L 83,58 L 84,58 L 85,57 L 85,55 L 84,54 L 83,54 L 82,53 L 81,53 L 79,51 L 78,51 L 77,50 L 75,50 L 74,49 L 73,49 L 72,48 Z" fill="none" stroke="black" stroke-width="1"/>
</svg>