<svg xmlns="http://www.w3.org/2000/svg" width="150" height="272">
  <path d="M 107,0 L 104,3 L 102,3 L 102,7 L 104,9 L 104,10 L 103,11 L 102,11 L 102,13 L 101,14 L 101,15 L 99,17 L 98,16 L 96,16 L 95,17 L 94,17 L 95,18 L 96,18 L 97,19 L 97,20 L 98,21 L 98,22 L 99,22 L 100,23 L 103,23 L 104,22 L 106,22 L 107,21 L 111,21 L 112,22 L 112,25 L 113,26 L 115,26 L 115,25 L 116,24 L 118,24 L 119,23 L 119,22 L 120,21 L 121,21 L 123,19 L 123,13 L 125,11 L 125,8 L 124,7 L 124,6 L 123,6 L 122,7 L 121,7 L 119,9 L 118,9 L 117,8 L 116,8 L 115,9 L 114,9 L 113,10 L 111,10 L 110,9 L 110,8 L 109,7 L 109,5 L 110,4 L 110,1 L 109,1 L 108,0 Z" fill="none" stroke="black" stroke-width="1"/>
</svg>