<svg xmlns="http://www.w3.org/2000/svg" width="150" height="272">
  <path d="M 141,11 L 139,13 L 138,13 L 138,14 L 137,15 L 136,15 L 135,16 L 135,17 L 133,19 L 129,19 L 127,21 L 124,21 L 123,20 L 121,22 L 120,22 L 120,23 L 118,25 L 116,25 L 116,26 L 117,27 L 117,29 L 118,30 L 118,32 L 117,33 L 117,36 L 116,37 L 116,43 L 118,43 L 120,45 L 123,45 L 124,46 L 126,46 L 128,44 L 130,44 L 130,43 L 129,42 L 129,38 L 131,36 L 131,35 L 132,34 L 134,34 L 134,33 L 135,32 L 136,32 L 138,30 L 138,29 L 139,28 L 141,28 L 141,26 L 146,21 L 147,21 L 147,20 L 148,19 L 149,19 L 149,13 L 146,13 L 145,12 L 145,11 Z" fill="none" stroke="black" stroke-width="1"/>
</svg>