<svg xmlns="http://www.w3.org/2000/svg" width="254" height="186">
  <path d="M 88,133 L 89,134 L 89,135 L 87,137 L 86,137 L 86,138 L 87,139 L 87,140 L 86,141 L 84,141 L 83,140 L 82,141 L 82,145 L 81,146 L 79,146 L 78,147 L 76,147 L 77,148 L 77,149 L 78,149 L 79,150 L 80,150 L 81,151 L 81,152 L 79,154 L 80,154 L 82,152 L 84,152 L 85,151 L 87,151 L 88,150 L 91,150 L 92,149 L 91,148 L 92,147 L 94,147 L 94,146 L 96,144 L 97,144 L 99,142 L 98,141 L 102,137 L 101,136 L 102,135 L 94,135 L 93,134 L 92,134 L 91,133 Z" fill="none" stroke="black" stroke-width="1"/>
</svg>