<svg xmlns="http://www.w3.org/2000/svg" width="254" height="186">
  <path d="M 48,105 L 47,106 L 46,106 L 44,108 L 44,109 L 43,110 L 42,110 L 42,111 L 40,113 L 40,115 L 41,116 L 41,120 L 42,121 L 42,122 L 44,124 L 44,125 L 44,124 L 45,123 L 45,120 L 47,118 L 48,118 L 49,117 L 52,117 L 53,118 L 53,119 L 56,119 L 57,120 L 59,120 L 61,122 L 61,123 L 62,124 L 63,124 L 64,123 L 66,123 L 67,122 L 67,119 L 68,118 L 69,118 L 69,116 L 70,115 L 70,112 L 68,112 L 66,110 L 65,110 L 64,109 L 61,109 L 58,106 L 57,106 L 56,105 L 55,105 L 54,106 L 53,105 Z" fill="none" stroke="black" stroke-width="1"/>
</svg>