<svg xmlns="http://www.w3.org/2000/svg" width="296" height="251">
  <path d="M 211,186 L 210,187 L 204,187 L 204,188 L 203,189 L 202,189 L 199,192 L 198,192 L 197,191 L 195,191 L 194,192 L 193,192 L 193,193 L 192,194 L 192,195 L 197,200 L 198,200 L 199,201 L 201,201 L 202,202 L 202,199 L 204,197 L 206,197 L 207,198 L 209,198 L 210,197 L 213,197 L 214,198 L 214,197 L 215,196 L 215,195 L 217,193 L 218,193 L 217,192 L 218,191 L 219,191 L 219,190 L 218,189 L 217,189 L 215,187 L 212,187 Z" fill="none" stroke="black" stroke-width="1"/>
</svg>