<svg xmlns="http://www.w3.org/2000/svg" width="296" height="251">
  <path d="M 253,148 L 252,149 L 248,149 L 248,150 L 247,151 L 247,152 L 246,153 L 245,153 L 244,154 L 241,154 L 241,155 L 240,156 L 239,156 L 239,157 L 240,157 L 241,158 L 243,158 L 244,159 L 244,160 L 246,160 L 247,161 L 249,161 L 250,162 L 251,162 L 252,163 L 254,163 L 255,164 L 257,162 L 261,162 L 262,161 L 263,161 L 265,163 L 266,163 L 267,164 L 267,162 L 266,161 L 266,160 L 267,159 L 269,159 L 269,156 L 270,155 L 269,155 L 268,154 L 268,153 L 267,152 L 258,152 L 254,148 Z" fill="none" stroke="black" stroke-width="1"/>
</svg>