<svg xmlns="http://www.w3.org/2000/svg" width="296" height="251">
  <path d="M 237,196 L 236,197 L 235,197 L 234,198 L 234,199 L 233,200 L 233,201 L 232,202 L 232,203 L 231,204 L 231,206 L 232,206 L 233,207 L 234,207 L 235,208 L 236,208 L 238,210 L 239,210 L 244,215 L 245,215 L 246,216 L 247,216 L 249,218 L 249,219 L 250,219 L 250,218 L 251,217 L 253,217 L 253,214 L 256,211 L 257,211 L 255,209 L 255,208 L 256,207 L 256,206 L 257,205 L 256,204 L 256,201 L 255,200 L 254,200 L 253,199 L 248,199 L 247,198 L 240,198 L 239,197 L 239,196 Z" fill="none" stroke="black" stroke-width="1"/>
</svg>