<svg xmlns="http://www.w3.org/2000/svg" width="296" height="251">
  <path d="M 150,191 L 149,192 L 148,192 L 148,193 L 146,195 L 143,195 L 143,196 L 142,197 L 141,197 L 139,199 L 139,206 L 141,208 L 140,209 L 140,212 L 145,212 L 146,213 L 147,213 L 147,212 L 148,211 L 149,211 L 149,210 L 150,209 L 151,209 L 152,208 L 152,207 L 153,206 L 153,205 L 154,204 L 155,204 L 156,203 L 156,202 L 157,201 L 156,201 L 155,200 L 155,199 L 154,198 L 155,197 L 155,195 L 152,192 L 153,191 Z" fill="none" stroke="black" stroke-width="1"/>
</svg>