<svg xmlns="http://www.w3.org/2000/svg" width="254" height="186">
  <path d="M 77,75 L 77,78 L 75,80 L 75,82 L 74,83 L 73,83 L 73,84 L 72,85 L 71,85 L 70,86 L 70,87 L 69,88 L 69,89 L 70,90 L 70,92 L 69,93 L 69,97 L 73,101 L 73,102 L 72,103 L 72,104 L 73,105 L 75,105 L 76,106 L 82,106 L 83,105 L 84,105 L 86,103 L 86,97 L 87,96 L 88,96 L 88,92 L 87,91 L 87,88 L 88,87 L 88,86 L 89,85 L 90,85 L 90,84 L 89,83 L 89,81 L 87,81 L 86,80 L 86,78 L 84,78 L 83,77 L 83,76 L 80,76 L 79,75 Z" fill="none" stroke="black" stroke-width="1"/>
</svg>