<svg xmlns="http://www.w3.org/2000/svg" width="254" height="186">
  <path d="M 134,103 L 134,104 L 132,106 L 129,106 L 127,108 L 125,108 L 122,111 L 122,114 L 121,115 L 121,117 L 120,118 L 120,120 L 120,118 L 121,117 L 122,118 L 122,122 L 122,120 L 123,119 L 124,120 L 124,121 L 125,121 L 125,117 L 126,116 L 127,117 L 127,122 L 127,113 L 128,112 L 129,113 L 129,115 L 129,114 L 130,113 L 131,114 L 131,116 L 130,117 L 130,118 L 129,119 L 129,120 L 130,121 L 130,122 L 132,120 L 133,120 L 134,121 L 135,120 L 134,119 L 134,115 L 135,114 L 136,115 L 136,118 L 138,120 L 138,118 L 139,117 L 139,116 L 138,115 L 138,112 L 137,111 L 137,109 L 136,108 L 136,107 L 135,106 L 135,105 L 134,104 Z" fill="none" stroke="black" stroke-width="1"/>
</svg>