<svg xmlns="http://www.w3.org/2000/svg" width="254" height="186">
  <path d="M 132,25 L 132,26 L 131,27 L 127,27 L 126,28 L 122,28 L 121,27 L 119,27 L 119,28 L 117,30 L 115,30 L 115,32 L 118,35 L 123,35 L 124,36 L 126,36 L 130,40 L 131,40 L 134,43 L 135,43 L 139,47 L 140,47 L 144,51 L 144,53 L 145,53 L 146,54 L 147,54 L 148,53 L 148,49 L 149,48 L 148,47 L 148,46 L 147,45 L 147,39 L 146,38 L 146,32 L 145,31 L 139,31 L 138,30 L 136,30 L 134,28 L 134,27 L 133,26 L 133,25 Z" fill="none" stroke="black" stroke-width="1"/>
</svg>