<svg xmlns="http://www.w3.org/2000/svg" width="378" height="221">
  <path d="M 169,200 L 166,203 L 165,203 L 164,204 L 163,204 L 163,205 L 162,206 L 162,207 L 161,208 L 161,210 L 162,210 L 163,211 L 163,212 L 164,213 L 164,214 L 165,215 L 165,216 L 166,217 L 168,217 L 169,218 L 175,218 L 176,219 L 180,219 L 181,220 L 182,220 L 183,219 L 184,219 L 185,218 L 185,216 L 183,214 L 178,214 L 177,213 L 177,208 L 176,207 L 173,207 L 172,206 L 172,204 L 171,203 L 171,202 L 170,201 L 170,200 Z" fill="none" stroke="black" stroke-width="1"/>
</svg>