<svg xmlns="http://www.w3.org/2000/svg" width="254" height="186">
  <path d="M 227,18 L 227,20 L 222,25 L 222,26 L 220,28 L 219,28 L 216,31 L 213,31 L 212,32 L 210,32 L 209,33 L 204,33 L 203,34 L 201,34 L 201,36 L 202,37 L 201,38 L 201,39 L 200,40 L 199,40 L 198,41 L 198,42 L 201,42 L 202,43 L 203,43 L 204,44 L 208,44 L 209,43 L 210,43 L 210,42 L 211,41 L 216,41 L 221,36 L 224,36 L 228,32 L 229,32 L 230,31 L 228,29 L 228,27 L 227,26 L 227,22 L 229,20 L 229,19 L 228,18 Z" fill="none" stroke="black" stroke-width="1"/>
</svg>