<svg xmlns="http://www.w3.org/2000/svg" width="153" height="229">
  <path d="M 7,112 L 7,116 L 8,116 L 8,114 L 7,113 Z" fill="none" stroke="black" stroke-width="1"/>
  <path d="M 0,98 L 0,100 L 1,101 L 1,99 Z" fill="none" stroke="black" stroke-width="1"/>
  <path d="M 6,90 L 5,91 L 4,91 L 1,94 L 1,95 L 4,98 L 4,99 L 5,100 L 5,102 L 6,103 L 6,104 L 7,105 L 7,107 L 8,108 L 8,109 L 9,110 L 9,111 L 10,112 L 10,117 L 9,118 L 10,119 L 10,122 L 12,124 L 13,124 L 12,123 L 12,118 L 14,116 L 15,116 L 16,117 L 17,117 L 18,118 L 18,119 L 19,119 L 18,118 L 18,108 L 19,107 L 19,106 L 20,105 L 21,105 L 23,107 L 24,107 L 24,105 L 25,104 L 27,104 L 26,103 L 26,99 L 25,98 L 25,97 L 24,97 L 21,94 L 21,92 L 13,92 L 12,93 L 11,93 L 10,92 L 10,91 L 8,91 L 7,90 Z" fill="none" stroke="black" stroke-width="1"/>
</svg>