<svg xmlns="http://www.w3.org/2000/svg" width="150" height="272">
  <path d="M 37,115 L 36,116 L 35,116 L 34,117 L 34,122 L 35,123 L 35,124 L 37,126 L 37,128 L 36,129 L 33,129 L 33,130 L 34,131 L 36,131 L 38,133 L 39,133 L 40,132 L 42,132 L 44,134 L 44,139 L 43,140 L 43,141 L 42,142 L 43,142 L 45,144 L 45,145 L 47,145 L 48,144 L 50,144 L 52,142 L 53,142 L 53,139 L 54,138 L 55,138 L 55,129 L 56,128 L 56,127 L 55,126 L 55,124 L 54,123 L 52,123 L 50,121 L 47,121 L 45,119 L 44,119 L 43,118 L 42,118 L 39,115 Z" fill="none" stroke="black" stroke-width="1"/>
</svg>