<svg xmlns="http://www.w3.org/2000/svg" width="254" height="186">
  <path d="M 232,29 L 231,30 L 231,31 L 229,33 L 228,33 L 224,37 L 221,37 L 216,42 L 211,42 L 211,43 L 210,44 L 209,44 L 208,45 L 204,45 L 203,44 L 202,44 L 201,43 L 198,43 L 195,46 L 195,47 L 196,48 L 196,52 L 197,52 L 199,54 L 205,54 L 206,55 L 210,55 L 211,56 L 212,55 L 212,54 L 216,50 L 221,50 L 221,49 L 222,48 L 222,46 L 223,45 L 223,44 L 227,40 L 228,40 L 232,36 L 233,36 L 236,33 L 235,32 L 235,31 L 233,29 Z" fill="none" stroke="black" stroke-width="1"/>
</svg>