<svg xmlns="http://www.w3.org/2000/svg" width="254" height="186">
  <path d="M 192,21 L 190,23 L 188,23 L 187,24 L 186,24 L 184,26 L 182,26 L 181,25 L 180,25 L 176,29 L 172,29 L 171,30 L 169,30 L 168,31 L 168,38 L 169,39 L 169,40 L 172,40 L 174,42 L 174,43 L 175,43 L 176,44 L 177,44 L 178,45 L 178,48 L 180,48 L 181,47 L 185,47 L 186,46 L 187,46 L 188,45 L 191,45 L 193,47 L 197,43 L 197,41 L 199,39 L 200,39 L 200,38 L 201,37 L 200,36 L 200,34 L 201,33 L 199,31 L 199,30 L 198,29 L 197,29 L 195,27 L 195,24 L 193,22 L 193,21 Z" fill="none" stroke="black" stroke-width="1"/>
</svg>