<svg xmlns="http://www.w3.org/2000/svg" width="254" height="186">
  <path d="M 195,53 L 195,54 L 194,55 L 193,55 L 193,57 L 191,59 L 191,60 L 190,61 L 190,63 L 189,64 L 189,66 L 188,67 L 187,67 L 187,70 L 186,71 L 186,72 L 187,73 L 187,74 L 188,74 L 189,75 L 189,74 L 191,72 L 196,72 L 197,73 L 197,75 L 198,76 L 199,76 L 201,78 L 202,78 L 202,74 L 203,73 L 203,70 L 204,69 L 204,67 L 207,64 L 207,63 L 209,61 L 211,61 L 211,57 L 210,56 L 206,56 L 205,55 L 199,55 L 197,53 Z" fill="none" stroke="black" stroke-width="1"/>
</svg>