<svg xmlns="http://www.w3.org/2000/svg" width="561" height="491">
  <path d="M 334,135 L 333,136 L 332,136 L 332,138 L 334,140 L 334,142 L 335,142 L 335,136 Z" fill="none" stroke="black" stroke-width="1"/>
  <path d="M 312,77 L 312,81 L 314,81 L 314,80 L 315,79 L 314,78 L 314,77 Z" fill="none" stroke="black" stroke-width="1"/>
  <path d="M 322,31 L 321,32 L 321,33 L 320,34 L 320,35 L 319,36 L 318,36 L 318,40 L 319,41 L 319,43 L 318,44 L 318,49 L 317,50 L 317,51 L 318,52 L 317,53 L 317,56 L 316,57 L 316,59 L 315,60 L 315,62 L 316,63 L 316,68 L 316,66 L 317,65 L 317,63 L 319,61 L 319,58 L 318,58 L 317,57 L 319,55 L 319,51 L 320,50 L 321,50 L 321,45 L 320,44 L 320,41 L 321,40 L 322,40 Z" fill="none" stroke="black" stroke-width="1"/>
</svg>