<svg xmlns="http://www.w3.org/2000/svg" width="268" height="258">
  <path d="M 147,230 L 147,231 L 146,232 L 145,232 L 143,234 L 141,234 L 139,236 L 138,236 L 136,238 L 136,239 L 135,240 L 134,240 L 133,241 L 130,241 L 129,240 L 128,240 L 127,239 L 123,239 L 122,240 L 120,240 L 119,241 L 113,241 L 111,239 L 111,238 L 110,239 L 106,239 L 105,238 L 105,237 L 104,238 L 102,238 L 101,239 L 101,243 L 100,244 L 100,245 L 98,247 L 98,252 L 97,253 L 97,254 L 98,254 L 99,255 L 99,257 L 100,257 L 100,256 L 101,255 L 102,255 L 103,254 L 104,254 L 105,253 L 106,253 L 107,254 L 109,254 L 111,252 L 114,252 L 115,253 L 125,253 L 125,252 L 126,251 L 127,251 L 128,250 L 130,250 L 131,251 L 134,251 L 133,250 L 134,249 L 135,249 L 136,250 L 136,251 L 137,252 L 143,252 L 143,249 L 144,248 L 144,247 L 145,246 L 150,246 L 152,244 L 152,243 L 154,241 L 154,239 L 151,236 L 151,231 L 150,231 L 149,230 Z" fill="none" stroke="black" stroke-width="1"/>
</svg>