<svg xmlns="http://www.w3.org/2000/svg" width="268" height="258">
  <path d="M 178,171 L 177,172 L 177,174 L 176,175 L 176,176 L 174,178 L 174,179 L 173,180 L 172,180 L 170,182 L 170,184 L 169,185 L 169,187 L 168,188 L 167,188 L 161,194 L 161,196 L 162,197 L 162,200 L 161,201 L 160,201 L 160,202 L 159,203 L 158,203 L 157,204 L 156,204 L 156,205 L 155,206 L 155,207 L 156,208 L 158,208 L 160,210 L 160,214 L 159,215 L 159,216 L 158,217 L 158,218 L 157,219 L 157,221 L 155,223 L 155,224 L 154,225 L 154,226 L 153,227 L 153,229 L 152,230 L 152,236 L 155,239 L 155,240 L 157,240 L 159,238 L 160,238 L 163,235 L 163,234 L 164,233 L 164,232 L 165,231 L 165,229 L 166,228 L 166,227 L 167,226 L 167,225 L 168,224 L 169,224 L 170,223 L 172,223 L 174,225 L 175,225 L 176,224 L 178,224 L 179,223 L 183,223 L 183,222 L 182,221 L 182,213 L 183,212 L 183,211 L 187,207 L 188,207 L 189,206 L 190,206 L 190,201 L 189,200 L 189,199 L 188,198 L 188,196 L 193,191 L 193,189 L 192,188 L 192,185 L 191,184 L 191,183 L 192,182 L 192,179 L 191,178 L 190,178 L 190,179 L 189,180 L 188,180 L 186,178 L 185,178 L 183,176 L 182,176 L 180,174 L 180,173 Z" fill="none" stroke="black" stroke-width="1"/>
</svg>