<svg xmlns="http://www.w3.org/2000/svg" width="268" height="258">
  <path d="M 199,139 L 196,142 L 194,142 L 194,143 L 193,144 L 190,144 L 191,145 L 192,145 L 193,146 L 192,147 L 189,147 L 186,150 L 185,150 L 184,149 L 182,149 L 181,148 L 178,148 L 177,149 L 176,149 L 176,151 L 173,154 L 171,154 L 171,157 L 170,158 L 170,161 L 171,162 L 171,165 L 170,166 L 170,168 L 171,168 L 172,167 L 173,167 L 174,166 L 175,166 L 176,167 L 177,167 L 179,169 L 179,171 L 181,173 L 181,174 L 182,175 L 183,175 L 185,177 L 186,177 L 188,179 L 189,179 L 189,178 L 190,177 L 191,177 L 193,179 L 193,181 L 194,180 L 195,180 L 195,178 L 197,176 L 198,176 L 199,175 L 201,175 L 202,174 L 202,173 L 201,173 L 200,172 L 200,171 L 198,169 L 198,166 L 199,165 L 199,162 L 198,161 L 198,160 L 200,158 L 200,157 L 203,154 L 203,152 L 205,150 L 205,146 L 206,145 L 206,144 L 208,142 L 208,141 L 207,140 L 205,140 L 204,141 L 203,141 L 202,140 L 201,140 L 200,139 Z" fill="none" stroke="black" stroke-width="1"/>
</svg>