<svg xmlns="http://www.w3.org/2000/svg" width="268" height="258">
  <path d="M 259,85 L 258,86 L 256,86 L 255,87 L 254,87 L 254,88 L 253,89 L 253,91 L 254,91 L 255,92 L 255,93 L 252,96 L 250,96 L 249,95 L 246,95 L 243,98 L 242,98 L 241,99 L 242,100 L 242,101 L 244,103 L 244,108 L 243,109 L 243,114 L 244,115 L 244,116 L 245,117 L 246,117 L 247,118 L 248,117 L 249,117 L 250,116 L 250,115 L 251,114 L 253,114 L 253,110 L 254,109 L 256,109 L 256,106 L 257,105 L 257,104 L 258,103 L 259,103 L 260,102 L 261,102 L 262,101 L 262,97 L 263,96 L 263,94 L 265,92 L 266,92 L 266,91 L 260,85 Z" fill="none" stroke="black" stroke-width="1"/>
</svg>