<svg xmlns="http://www.w3.org/2000/svg" width="153" height="229">
  <path d="M 32,144 L 32,145 Z" fill="none" stroke="black" stroke-width="1"/>
  <path d="M 25,105 L 25,107 L 24,108 L 23,108 L 21,106 L 20,106 L 20,107 L 19,108 L 19,118 L 20,119 L 19,120 L 18,120 L 17,119 L 17,118 L 16,118 L 15,117 L 14,117 L 13,118 L 13,123 L 14,124 L 13,125 L 12,125 L 13,126 L 13,127 L 14,126 L 15,127 L 15,129 L 19,133 L 19,134 L 20,135 L 20,136 L 21,135 L 20,134 L 20,133 L 21,132 L 23,134 L 23,137 L 22,138 L 23,139 L 23,137 L 24,136 L 24,133 L 25,132 L 27,134 L 27,137 L 28,138 L 27,139 L 26,139 L 26,140 L 25,141 L 26,142 L 26,144 L 27,145 L 29,145 L 27,143 L 27,141 L 28,140 L 30,140 L 31,141 L 32,141 L 33,142 L 35,142 L 36,143 L 34,145 L 35,145 L 36,146 L 37,146 L 38,147 L 39,147 L 41,145 L 45,145 L 46,146 L 46,144 L 45,143 L 45,141 L 44,140 L 44,139 L 43,138 L 43,137 L 41,135 L 40,135 L 38,133 L 38,132 L 37,131 L 37,129 L 38,128 L 39,128 L 39,127 L 38,126 L 38,121 L 37,120 L 37,119 L 36,118 L 36,117 L 35,116 L 35,115 L 34,114 L 34,113 L 33,113 L 32,112 L 31,112 L 30,111 L 30,110 L 28,110 L 27,109 L 27,107 L 26,106 L 26,105 Z" fill="none" stroke="black" stroke-width="1"/>
</svg>