<svg xmlns="http://www.w3.org/2000/svg" width="153" height="229">
  <path d="M 40,81 L 40,83 L 38,85 L 38,87 L 37,88 L 37,89 L 36,90 L 36,97 L 35,98 L 33,98 L 33,101 L 34,102 L 34,103 L 36,105 L 36,106 L 39,109 L 39,110 L 41,112 L 41,113 L 42,114 L 42,117 L 43,116 L 43,115 L 45,113 L 45,109 L 46,108 L 46,107 L 45,106 L 45,105 L 46,104 L 46,102 L 45,101 L 45,100 L 46,99 L 46,98 L 45,97 L 46,96 L 47,96 L 47,93 L 46,92 L 46,91 L 43,88 L 43,86 L 42,85 L 42,82 L 41,82 Z" fill="none" stroke="black" stroke-width="1"/>
</svg>