<svg xmlns="http://www.w3.org/2000/svg" width="194" height="141">
  <path d="M 105,73 L 103,75 L 102,75 L 101,76 L 101,77 L 102,78 L 102,79 L 101,80 L 101,81 L 99,83 L 99,84 L 102,84 L 103,85 L 103,87 L 104,88 L 105,88 L 106,87 L 107,87 L 109,85 L 110,85 L 111,84 L 114,84 L 115,83 L 116,83 L 117,82 L 119,82 L 120,81 L 120,80 L 121,79 L 120,78 L 119,78 L 117,76 L 117,75 L 116,76 L 115,76 L 114,77 L 113,77 L 111,75 L 110,75 L 109,74 L 108,74 L 107,73 Z" fill="none" stroke="black" stroke-width="1"/>
</svg>