<svg xmlns="http://www.w3.org/2000/svg" width="153" height="229">
  <path d="M 84,53 L 84,55 L 82,57 L 81,57 L 81,58 L 80,59 L 80,61 L 79,62 L 79,63 L 80,64 L 80,65 L 81,66 L 81,68 L 78,71 L 78,72 L 77,73 L 77,76 L 79,76 L 80,77 L 79,78 L 79,80 L 80,81 L 80,84 L 85,84 L 87,82 L 88,82 L 88,81 L 89,80 L 89,77 L 91,75 L 93,75 L 94,74 L 95,74 L 97,72 L 97,68 L 94,65 L 94,64 L 95,63 L 94,62 L 94,61 L 96,59 L 97,59 L 97,55 L 98,54 L 98,53 L 97,54 L 93,54 L 92,55 L 92,56 L 91,57 L 90,57 L 89,56 L 88,56 L 87,55 L 86,55 Z" fill="none" stroke="black" stroke-width="1"/>
</svg>