<svg xmlns="http://www.w3.org/2000/svg" width="153" height="229">
  <path d="M 106,69 L 103,72 L 102,71 L 101,72 L 100,72 L 99,73 L 97,73 L 95,75 L 94,75 L 93,76 L 91,76 L 90,77 L 90,80 L 89,81 L 89,83 L 90,84 L 95,84 L 96,85 L 96,86 L 98,88 L 98,92 L 99,93 L 100,93 L 101,94 L 101,95 L 102,96 L 102,97 L 104,97 L 106,99 L 106,100 L 107,101 L 108,101 L 109,102 L 111,102 L 112,103 L 113,103 L 114,104 L 114,106 L 115,105 L 116,105 L 118,103 L 119,103 L 120,102 L 122,102 L 122,101 L 123,100 L 123,99 L 124,98 L 124,96 L 125,95 L 126,95 L 127,94 L 127,90 L 126,89 L 126,88 L 121,88 L 120,87 L 119,87 L 117,85 L 117,84 L 116,83 L 116,82 L 115,81 L 115,78 L 113,76 L 114,75 L 115,75 L 115,72 L 112,72 L 111,71 L 110,71 L 109,70 L 108,71 Z" fill="none" stroke="black" stroke-width="1"/>
</svg>