<svg xmlns="http://www.w3.org/2000/svg" width="153" height="229">
  <path d="M 120,103 L 119,104 L 118,104 L 116,106 L 115,106 L 114,107 L 115,108 L 115,111 L 114,112 L 113,112 L 113,119 L 114,120 L 114,121 L 115,122 L 115,124 L 116,125 L 116,126 L 117,126 L 119,128 L 120,128 L 121,129 L 123,129 L 127,133 L 127,135 L 130,135 L 131,134 L 132,134 L 133,133 L 134,134 L 136,134 L 136,130 L 138,128 L 139,128 L 140,127 L 144,127 L 143,127 L 142,126 L 142,124 L 143,123 L 144,123 L 144,120 L 145,119 L 147,119 L 148,118 L 149,118 L 151,116 L 151,115 L 152,114 L 151,113 L 151,112 L 150,112 L 149,113 L 148,113 L 146,115 L 146,116 L 145,117 L 142,117 L 141,116 L 140,116 L 139,117 L 137,117 L 136,116 L 136,115 L 135,114 L 135,113 L 134,113 L 132,111 L 133,110 L 133,107 L 129,107 L 128,106 L 123,106 L 121,104 L 121,103 Z" fill="none" stroke="black" stroke-width="1"/>
</svg>