<svg xmlns="http://www.w3.org/2000/svg" width="153" height="229">
  <path d="M 93,169 L 92,170 L 91,170 L 90,171 L 89,171 L 89,180 L 88,181 L 88,183 L 87,184 L 86,184 L 86,185 L 90,189 L 90,192 L 91,193 L 91,195 L 92,196 L 92,197 L 93,198 L 93,199 L 94,198 L 97,198 L 98,199 L 99,199 L 99,198 L 101,196 L 101,192 L 100,191 L 100,190 L 98,188 L 98,187 L 99,186 L 99,184 L 101,182 L 98,179 L 98,178 L 97,177 L 97,174 L 95,172 L 95,171 L 94,170 L 94,169 Z" fill="none" stroke="black" stroke-width="1"/>
</svg>