<svg xmlns="http://www.w3.org/2000/svg" width="561" height="491">
  <path d="M 401,9 L 398,12 L 398,14 L 399,15 L 399,17 L 400,18 L 400,20 L 401,21 L 401,25 L 402,26 L 402,28 L 401,29 L 402,30 L 402,32 L 402,26 L 403,25 L 404,26 L 404,29 L 405,30 L 405,31 L 406,32 L 406,33 L 407,34 L 407,36 L 409,38 L 409,42 L 410,41 L 411,41 L 412,40 L 414,40 L 415,39 L 417,39 L 417,38 L 418,37 L 418,33 L 417,32 L 417,29 L 416,28 L 416,27 L 415,26 L 415,25 L 411,21 L 410,21 L 408,19 L 408,18 L 407,17 L 407,16 L 403,12 L 403,9 Z" fill="none" stroke="black" stroke-width="1"/>
</svg>