<svg xmlns="http://www.w3.org/2000/svg" width="561" height="491">
  <path d="M 426,102 L 427,103 L 427,107 L 425,109 L 424,109 L 424,110 L 423,111 L 423,112 L 422,113 L 422,114 L 421,115 L 420,115 L 419,116 L 420,117 L 420,118 L 421,119 L 421,120 L 422,121 L 422,122 L 425,125 L 425,126 L 426,127 L 426,128 L 427,129 L 427,133 L 428,133 L 431,136 L 431,138 L 434,141 L 434,143 L 435,143 L 437,145 L 437,146 L 438,146 L 439,147 L 445,147 L 447,145 L 448,145 L 446,143 L 446,141 L 445,141 L 444,140 L 443,140 L 441,138 L 441,137 L 440,136 L 439,137 L 438,137 L 437,136 L 437,135 L 434,132 L 434,131 L 433,130 L 433,127 L 434,126 L 435,126 L 436,127 L 436,128 L 437,129 L 437,130 L 437,128 L 436,127 L 436,123 L 435,122 L 435,117 L 434,116 L 433,117 L 432,116 L 432,115 L 430,113 L 430,111 L 429,110 L 429,104 L 428,103 L 428,102 Z" fill="none" stroke="black" stroke-width="1"/>
  <path d="M 432,97 L 431,98 L 430,98 L 430,99 L 431,100 L 431,99 L 432,98 Z" fill="none" stroke="black" stroke-width="1"/>
</svg>