<svg xmlns="http://www.w3.org/2000/svg" width="561" height="491">
  <path d="M 452,140 L 451,141 L 448,141 L 447,142 L 447,143 L 449,145 L 448,146 L 447,146 L 445,148 L 444,148 L 444,149 L 445,150 L 445,151 L 448,151 L 449,152 L 448,153 L 449,154 L 450,154 L 451,153 L 452,154 L 453,154 L 454,155 L 455,155 L 457,157 L 457,158 L 458,158 L 459,159 L 460,158 L 461,158 L 461,156 L 462,155 L 462,154 L 463,153 L 463,152 L 457,146 L 457,145 L 456,144 L 456,143 L 454,141 L 453,141 Z" fill="none" stroke="black" stroke-width="1"/>
</svg>