<svg xmlns="http://www.w3.org/2000/svg" width="561" height="491">
  <path d="M 488,210 L 488,212 L 487,213 L 486,213 L 485,212 L 484,212 L 483,211 L 481,211 L 480,212 L 480,216 L 481,217 L 480,218 L 479,218 L 477,220 L 476,220 L 474,222 L 475,222 L 476,223 L 477,223 L 479,225 L 480,225 L 481,226 L 482,226 L 483,227 L 484,226 L 487,226 L 488,225 L 489,225 L 490,226 L 491,226 L 492,227 L 492,226 L 493,225 L 494,226 L 494,227 L 495,228 L 495,230 L 497,230 L 497,226 L 496,225 L 496,223 L 495,222 L 495,221 L 494,220 L 494,219 L 493,218 L 493,217 L 492,216 L 492,215 L 491,214 L 491,213 L 490,212 L 490,211 L 489,210 Z" fill="none" stroke="black" stroke-width="1"/>
</svg>