<svg xmlns="http://www.w3.org/2000/svg" width="561" height="491">
  <path d="M 520,204 L 520,206 L 521,206 L 521,205 L 522,204 Z" fill="none" stroke="black" stroke-width="1"/>
  <path d="M 482,189 L 480,191 L 478,191 L 478,192 L 476,194 L 476,200 L 474,202 L 474,203 L 475,204 L 475,208 L 476,208 L 479,211 L 480,211 L 481,210 L 483,210 L 484,211 L 485,211 L 486,212 L 487,212 L 487,210 L 486,209 L 486,208 L 484,206 L 484,195 L 483,194 L 483,189 Z" fill="none" stroke="black" stroke-width="1"/>
</svg>