<svg xmlns="http://www.w3.org/2000/svg" width="561" height="491">
  <path d="M 464,152 L 464,153 L 463,154 L 463,155 L 462,156 L 462,158 L 461,159 L 460,159 L 459,160 L 458,159 L 458,162 L 459,163 L 459,164 L 457,166 L 456,166 L 455,167 L 455,169 L 454,170 L 454,173 L 453,174 L 453,178 L 456,178 L 457,177 L 458,177 L 458,176 L 459,175 L 460,176 L 460,177 L 462,175 L 464,175 L 466,177 L 467,177 L 468,176 L 469,176 L 470,175 L 471,175 L 472,174 L 474,174 L 474,173 L 473,172 L 473,170 L 472,169 L 472,168 L 471,167 L 471,166 L 470,166 L 468,164 L 468,161 L 469,160 L 469,159 L 470,158 L 469,157 L 469,156 L 468,155 L 468,154 L 466,152 L 465,153 Z" fill="none" stroke="black" stroke-width="1"/>
</svg>