<svg xmlns="http://www.w3.org/2000/svg" width="1028" height="413">
  <path d="M 598,314 L 597,315 L 594,315 L 594,316 L 595,317 L 594,318 L 591,318 L 590,319 L 589,319 L 586,322 L 585,321 L 585,318 L 584,318 L 582,320 L 581,320 L 582,321 L 581,322 L 580,322 L 579,323 L 578,323 L 578,325 L 577,326 L 577,327 L 579,329 L 579,330 L 583,330 L 584,329 L 586,329 L 587,330 L 588,330 L 590,332 L 590,334 L 593,334 L 594,333 L 595,333 L 596,334 L 596,336 L 597,337 L 597,338 L 600,338 L 600,336 L 599,335 L 599,334 L 601,332 L 601,330 L 602,329 L 602,327 L 603,326 L 603,325 L 606,322 L 606,320 L 607,319 L 605,319 L 603,317 L 602,317 L 599,314 Z" fill="none" stroke="black" stroke-width="1"/>
</svg>