<svg xmlns="http://www.w3.org/2000/svg" width="182" height="244">
  <path d="M 21,84 L 21,85 L 18,88 L 16,88 L 15,89 L 14,89 L 14,91 L 13,92 L 12,92 L 12,93 L 10,95 L 9,95 L 9,97 L 10,98 L 10,99 L 11,100 L 11,101 L 12,102 L 12,108 L 11,109 L 11,110 L 12,111 L 12,112 L 13,113 L 13,116 L 14,116 L 16,114 L 15,113 L 16,112 L 16,110 L 17,109 L 18,109 L 21,106 L 23,108 L 24,108 L 25,109 L 26,109 L 27,108 L 27,107 L 28,106 L 29,106 L 31,104 L 31,97 L 33,95 L 33,94 L 34,93 L 34,91 L 33,91 L 32,90 L 29,90 L 28,91 L 27,90 L 27,88 L 25,86 L 25,85 L 24,84 Z" fill="none" stroke="black" stroke-width="1"/>
</svg>