<svg xmlns="http://www.w3.org/2000/svg" width="182" height="244">
  <path d="M 33,48 L 32,49 L 31,49 L 30,50 L 27,50 L 27,52 L 25,54 L 24,54 L 24,55 L 23,56 L 23,57 L 21,59 L 22,60 L 22,61 L 21,62 L 21,63 L 20,64 L 20,65 L 21,65 L 23,67 L 23,68 L 24,69 L 26,69 L 27,70 L 27,71 L 36,71 L 37,70 L 39,70 L 39,68 L 42,65 L 42,64 L 41,63 L 41,62 L 40,61 L 40,59 L 41,58 L 41,57 L 42,56 L 42,54 L 43,53 L 42,53 L 39,50 L 39,49 L 38,49 L 36,51 L 35,50 L 35,49 L 34,49 Z" fill="none" stroke="black" stroke-width="1"/>
</svg>