<svg xmlns="http://www.w3.org/2000/svg" width="182" height="244">
  <path d="M 74,193 L 74,194 Z" fill="none" stroke="black" stroke-width="1"/>
  <path d="M 69,186 L 70,187 L 70,188 L 71,188 L 71,187 L 70,186 Z" fill="none" stroke="black" stroke-width="1"/>
  <path d="M 62,157 L 62,161 L 59,164 L 59,167 L 61,169 L 61,172 L 63,174 L 63,177 L 64,178 L 65,178 L 66,179 L 66,180 L 67,181 L 68,181 L 69,182 L 70,182 L 71,183 L 71,184 L 72,185 L 73,185 L 74,184 L 75,184 L 76,185 L 76,186 L 76,183 L 77,182 L 77,181 L 76,180 L 76,179 L 75,178 L 74,178 L 73,177 L 73,173 L 72,172 L 72,171 L 71,170 L 71,169 L 70,168 L 70,160 L 69,159 L 67,159 L 65,157 Z" fill="none" stroke="black" stroke-width="1"/>
</svg>