<svg xmlns="http://www.w3.org/2000/svg" width="182" height="244">
  <path d="M 145,200 L 144,201 L 139,201 L 138,202 L 137,202 L 136,203 L 132,203 L 131,204 L 131,208 L 134,211 L 134,212 L 136,214 L 136,215 L 139,215 L 138,214 L 138,210 L 139,209 L 140,210 L 140,212 L 140,210 L 141,209 L 142,210 L 142,211 L 142,210 L 143,209 L 144,210 L 144,212 L 146,212 L 147,213 L 147,214 L 148,213 L 149,213 L 150,212 L 151,212 L 152,211 L 152,206 L 153,205 L 153,204 L 152,203 L 150,203 L 149,202 L 150,201 L 150,200 L 149,201 L 147,201 L 146,200 Z" fill="none" stroke="black" stroke-width="1"/>
</svg>