<svg xmlns="http://www.w3.org/2000/svg" width="182" height="244">
  <path d="M 167,188 L 165,190 L 163,190 L 159,194 L 158,194 L 157,195 L 156,195 L 155,196 L 154,196 L 153,197 L 152,197 L 152,199 L 151,200 L 151,201 L 150,202 L 152,202 L 154,204 L 154,205 L 153,206 L 153,210 L 154,210 L 156,208 L 158,208 L 159,207 L 159,206 L 161,204 L 163,204 L 164,203 L 165,203 L 167,201 L 168,201 L 171,198 L 174,198 L 174,195 L 175,194 L 176,194 L 177,193 L 177,191 L 174,191 L 173,190 L 171,190 L 170,189 L 169,189 L 168,188 Z" fill="none" stroke="black" stroke-width="1"/>
</svg>