<svg xmlns="http://www.w3.org/2000/svg" width="182" height="244">
  <path d="M 172,142 L 170,144 L 169,144 L 168,145 L 167,145 L 166,146 L 166,147 L 165,148 L 166,149 L 166,152 L 167,153 L 167,155 L 166,156 L 166,157 L 168,159 L 168,162 L 167,163 L 167,167 L 168,168 L 170,166 L 172,166 L 173,167 L 174,167 L 175,168 L 176,168 L 177,169 L 178,169 L 178,166 L 177,165 L 177,164 L 178,163 L 178,162 L 177,161 L 177,157 L 178,156 L 178,155 L 177,154 L 177,151 L 176,150 L 176,148 L 175,147 L 175,143 L 174,142 Z" fill="none" stroke="black" stroke-width="1"/>
</svg>