<svg xmlns="http://www.w3.org/2000/svg" width="182" height="244">
  <path d="M 90,148 L 89,149 L 86,149 L 86,151 L 87,152 L 87,153 L 88,153 L 90,155 L 90,156 L 91,157 L 90,158 L 90,160 L 89,161 L 89,163 L 90,163 L 91,164 L 91,165 L 92,165 L 93,166 L 95,166 L 96,167 L 97,167 L 98,168 L 98,169 L 100,171 L 100,172 L 101,171 L 102,171 L 103,170 L 104,170 L 104,169 L 105,168 L 108,168 L 109,167 L 110,167 L 110,165 L 112,163 L 110,161 L 110,159 L 106,155 L 106,153 L 105,152 L 104,152 L 101,149 L 98,149 L 97,150 L 94,150 L 93,149 L 92,149 L 91,148 Z" fill="none" stroke="black" stroke-width="1"/>
</svg>