<svg xmlns="http://www.w3.org/2000/svg" width="182" height="244">
  <path d="M 108,41 L 107,42 L 107,43 L 106,44 L 106,45 L 104,47 L 103,47 L 103,48 L 106,48 L 109,51 L 110,51 L 112,53 L 112,56 L 113,57 L 114,57 L 115,58 L 116,58 L 117,57 L 119,57 L 120,58 L 121,58 L 123,60 L 124,60 L 125,61 L 125,59 L 126,58 L 126,56 L 127,55 L 130,55 L 130,54 L 129,53 L 128,53 L 127,52 L 126,52 L 124,50 L 124,49 L 123,49 L 122,48 L 122,47 L 121,46 L 118,46 L 114,42 L 112,42 L 111,41 Z" fill="none" stroke="black" stroke-width="1"/>
</svg>