<svg xmlns="http://www.w3.org/2000/svg" width="182" height="244">
  <path d="M 89,74 L 88,75 L 85,75 L 84,76 L 84,77 L 85,78 L 85,81 L 90,81 L 91,82 L 92,82 L 93,83 L 96,83 L 98,85 L 98,87 L 99,87 L 100,88 L 100,89 L 101,90 L 101,91 L 105,95 L 106,95 L 109,98 L 109,100 L 111,98 L 113,98 L 114,97 L 121,97 L 121,95 L 120,94 L 120,93 L 119,92 L 119,91 L 117,89 L 115,89 L 112,86 L 112,85 L 111,84 L 111,82 L 107,78 L 105,78 L 104,77 L 104,76 L 103,76 L 102,75 L 101,75 L 100,74 L 99,74 L 97,76 L 95,76 L 94,75 L 92,75 L 91,74 Z" fill="none" stroke="black" stroke-width="1"/>
</svg>