<svg xmlns="http://www.w3.org/2000/svg" width="182" height="244">
  <path d="M 68,133 L 67,134 L 65,134 L 64,135 L 62,135 L 60,137 L 58,137 L 56,139 L 54,139 L 54,140 L 55,141 L 54,142 L 53,142 L 51,144 L 52,144 L 55,147 L 59,147 L 61,149 L 62,148 L 63,148 L 64,149 L 64,151 L 63,152 L 63,153 L 61,155 L 62,156 L 65,156 L 67,158 L 69,158 L 70,159 L 71,158 L 71,156 L 73,154 L 73,153 L 74,152 L 79,152 L 81,150 L 82,150 L 82,147 L 81,146 L 81,144 L 80,143 L 81,142 L 81,141 L 83,139 L 83,136 L 81,136 L 80,135 L 80,134 L 76,134 L 75,133 Z" fill="none" stroke="black" stroke-width="1"/>
</svg>