<svg xmlns="http://www.w3.org/2000/svg" width="182" height="244">
  <path d="M 117,25 L 116,26 L 116,27 L 115,28 L 115,29 L 114,30 L 114,35 L 113,36 L 113,39 L 112,40 L 112,41 L 114,41 L 118,45 L 121,45 L 123,47 L 123,46 L 124,45 L 126,45 L 127,44 L 127,42 L 132,37 L 132,36 L 133,35 L 133,34 L 134,33 L 134,32 L 133,32 L 132,31 L 133,30 L 133,29 L 132,29 L 131,30 L 130,30 L 129,31 L 128,31 L 126,29 L 125,29 L 124,28 L 123,28 L 121,26 L 119,26 L 118,25 Z" fill="none" stroke="black" stroke-width="1"/>
</svg>