<svg xmlns="http://www.w3.org/2000/svg" width="182" height="244">
  <path d="M 63,66 L 61,68 L 59,68 L 58,69 L 56,69 L 55,70 L 55,72 L 54,73 L 54,78 L 51,81 L 52,82 L 52,84 L 53,85 L 53,87 L 52,88 L 52,89 L 50,91 L 50,93 L 49,94 L 49,95 L 50,96 L 51,96 L 52,97 L 56,93 L 57,93 L 58,92 L 58,91 L 59,90 L 60,90 L 60,89 L 62,87 L 64,87 L 66,85 L 68,85 L 69,86 L 69,87 L 70,87 L 72,89 L 73,88 L 76,91 L 79,88 L 81,88 L 81,87 L 84,84 L 84,78 L 83,77 L 83,76 L 81,74 L 81,70 L 80,69 L 80,68 L 79,67 L 76,67 L 74,69 L 72,69 L 71,68 L 69,68 L 68,67 L 67,67 L 66,66 Z" fill="none" stroke="black" stroke-width="1"/>
</svg>