<svg xmlns="http://www.w3.org/2000/svg" width="182" height="244">
  <path d="M 63,47 L 61,49 L 61,50 L 60,51 L 60,52 L 55,57 L 54,57 L 53,56 L 51,56 L 50,55 L 49,55 L 48,56 L 47,56 L 45,58 L 43,56 L 43,55 L 43,56 L 42,57 L 42,58 L 41,59 L 41,61 L 42,62 L 42,63 L 43,63 L 44,62 L 45,63 L 46,63 L 48,61 L 53,61 L 54,62 L 54,64 L 53,65 L 53,66 L 54,67 L 54,70 L 56,68 L 58,68 L 59,67 L 61,67 L 63,65 L 66,65 L 67,66 L 68,66 L 69,67 L 71,67 L 72,68 L 74,68 L 75,67 L 74,66 L 74,65 L 73,64 L 73,63 L 74,62 L 76,62 L 74,60 L 75,59 L 73,57 L 73,56 L 72,55 L 71,55 L 70,54 L 70,50 L 69,50 L 67,48 L 65,48 L 64,47 Z" fill="none" stroke="black" stroke-width="1"/>
</svg>