<svg xmlns="http://www.w3.org/2000/svg" width="182" height="244">
  <path d="M 115,0 L 114,1 L 113,1 L 112,2 L 113,3 L 113,10 L 111,12 L 111,13 L 112,14 L 112,22 L 114,24 L 114,25 L 116,25 L 117,24 L 118,24 L 119,25 L 121,25 L 123,27 L 124,27 L 125,28 L 126,28 L 128,30 L 129,30 L 130,29 L 131,29 L 132,28 L 133,28 L 133,27 L 134,26 L 135,26 L 138,23 L 138,22 L 139,21 L 139,19 L 137,17 L 137,16 L 136,15 L 136,12 L 138,10 L 139,10 L 139,8 L 138,7 L 132,7 L 130,5 L 129,5 L 128,6 L 125,6 L 124,5 L 123,5 L 122,4 L 121,4 L 120,3 L 120,1 L 119,1 L 118,0 Z" fill="none" stroke="black" stroke-width="1"/>
</svg>