<svg xmlns="http://www.w3.org/2000/svg" width="561" height="491">
  <path d="M 410,212 L 410,213 L 409,214 L 409,215 L 408,216 L 407,216 L 406,217 L 406,218 L 405,219 L 406,219 L 408,221 L 409,221 L 413,225 L 413,226 L 412,227 L 412,229 L 413,230 L 413,232 L 414,233 L 414,235 L 415,236 L 416,236 L 417,235 L 417,234 L 420,231 L 420,230 L 422,228 L 421,227 L 421,226 L 420,225 L 421,224 L 421,222 L 419,220 L 418,220 L 417,219 L 417,217 L 416,216 L 415,216 L 414,215 L 414,214 L 413,213 L 411,213 Z" fill="none" stroke="black" stroke-width="1"/>
</svg>