<svg xmlns="http://www.w3.org/2000/svg" width="561" height="491">
  <path d="M 481,241 L 480,242 L 480,243 L 481,243 L 482,242 Z" fill="none" stroke="black" stroke-width="1"/>
  <path d="M 484,239 L 484,241 L 485,241 L 485,240 Z" fill="none" stroke="black" stroke-width="1"/>
  <path d="M 483,235 L 483,236 L 484,236 Z" fill="none" stroke="black" stroke-width="1"/>
  <path d="M 463,226 L 463,228 L 464,228 L 465,229 L 466,228 L 467,229 L 467,230 L 466,231 L 466,232 L 467,233 L 467,236 L 468,237 L 468,235 L 469,234 L 469,233 L 468,232 L 469,231 L 470,231 L 470,230 L 469,229 L 469,228 L 466,228 L 465,227 L 464,227 Z" fill="none" stroke="black" stroke-width="1"/>
  <path d="M 459,226 L 459,227 L 456,230 L 456,231 L 455,232 L 455,233 L 454,234 L 453,234 L 449,238 L 448,238 L 447,239 L 446,239 L 446,241 L 445,242 L 445,243 L 446,244 L 448,244 L 451,247 L 451,248 L 452,249 L 452,251 L 453,252 L 455,250 L 457,250 L 460,247 L 461,247 L 461,246 L 462,245 L 463,245 L 464,246 L 464,247 L 465,247 L 467,249 L 469,249 L 470,250 L 470,249 L 471,248 L 473,248 L 475,246 L 476,246 L 477,245 L 479,245 L 478,244 L 478,243 L 476,241 L 477,240 L 478,240 L 477,239 L 478,238 L 480,238 L 476,234 L 473,234 L 474,235 L 475,235 L 477,237 L 476,238 L 475,238 L 474,237 L 472,237 L 471,236 L 471,235 L 470,236 L 470,238 L 471,239 L 476,239 L 477,240 L 476,241 L 470,241 L 469,240 L 468,240 L 467,239 L 466,239 L 465,238 L 465,234 L 464,233 L 464,232 L 461,229 L 461,228 L 460,228 L 459,227 Z" fill="none" stroke="black" stroke-width="1"/>
</svg>