<svg xmlns="http://www.w3.org/2000/svg" width="561" height="491">
  <path d="M 464,332 L 465,333 L 466,333 L 467,334 L 468,334 L 468,333 L 467,333 L 466,332 Z" fill="none" stroke="black" stroke-width="1"/>
  <path d="M 468,299 L 468,300 L 467,301 L 467,302 L 466,303 L 466,306 L 467,307 L 467,310 L 468,311 L 469,311 L 473,315 L 474,315 L 476,317 L 477,317 L 481,321 L 482,321 L 483,322 L 483,323 L 484,323 L 485,324 L 486,324 L 487,325 L 488,325 L 489,326 L 490,326 L 493,329 L 493,330 L 494,331 L 494,332 L 496,334 L 497,334 L 499,336 L 499,337 L 502,340 L 502,341 L 504,341 L 504,340 L 503,339 L 503,338 L 501,336 L 501,335 L 502,334 L 501,333 L 500,333 L 496,329 L 496,328 L 490,322 L 490,319 L 491,318 L 491,317 L 493,315 L 492,314 L 491,314 L 490,315 L 489,315 L 486,312 L 486,311 L 485,310 L 485,309 L 484,308 L 484,307 L 482,305 L 481,306 L 479,304 L 479,303 L 478,303 L 477,304 L 476,303 L 474,303 L 473,302 L 474,301 L 471,301 L 469,299 Z" fill="none" stroke="black" stroke-width="1"/>
</svg>