<svg xmlns="http://www.w3.org/2000/svg" width="561" height="491">
  <path d="M 501,278 L 500,279 L 499,279 L 499,280 L 497,282 L 497,283 L 496,284 L 496,285 L 491,290 L 490,290 L 488,292 L 490,294 L 491,294 L 492,295 L 492,297 L 495,300 L 496,300 L 497,299 L 498,299 L 500,301 L 501,301 L 504,304 L 504,309 L 505,310 L 507,310 L 509,308 L 510,309 L 511,308 L 511,307 L 512,306 L 513,306 L 513,305 L 515,303 L 515,302 L 517,300 L 519,300 L 520,299 L 521,299 L 522,298 L 523,298 L 524,299 L 525,299 L 525,295 L 524,294 L 522,294 L 521,293 L 521,291 L 518,288 L 518,285 L 517,286 L 516,286 L 515,285 L 508,285 L 506,287 L 506,288 L 503,291 L 502,291 L 501,290 L 502,289 L 502,288 L 504,286 L 504,285 L 505,284 L 505,283 L 507,281 L 506,280 L 506,279 L 504,279 L 503,278 Z" fill="none" stroke="black" stroke-width="1"/>
</svg>