<svg xmlns="http://www.w3.org/2000/svg" width="561" height="491">
  <path d="M 522,299 L 521,300 L 520,300 L 519,301 L 517,301 L 516,302 L 516,303 L 514,305 L 514,306 L 513,307 L 512,307 L 512,308 L 510,310 L 509,309 L 507,311 L 505,311 L 503,309 L 502,310 L 502,311 L 501,312 L 501,313 L 500,314 L 500,315 L 499,316 L 495,316 L 494,315 L 492,317 L 492,318 L 491,319 L 491,322 L 497,328 L 497,329 L 500,332 L 501,332 L 503,334 L 504,334 L 507,337 L 508,337 L 509,338 L 510,338 L 511,339 L 512,338 L 511,337 L 511,336 L 512,335 L 512,334 L 513,333 L 517,337 L 517,338 L 518,338 L 520,340 L 521,339 L 521,337 L 522,336 L 521,335 L 521,334 L 522,333 L 522,317 L 521,316 L 521,313 L 522,312 L 522,310 L 523,309 L 523,308 L 521,306 L 521,305 L 522,304 L 522,302 L 523,301 L 523,299 Z" fill="none" stroke="black" stroke-width="1"/>
</svg>