<svg xmlns="http://www.w3.org/2000/svg" width="240" height="278">
  <path d="M 132,235 L 131,236 L 130,236 L 129,237 L 127,237 L 126,236 L 125,236 L 124,237 L 123,237 L 122,238 L 121,238 L 120,237 L 119,237 L 118,236 L 117,236 L 117,238 L 116,239 L 116,246 L 117,245 L 118,245 L 119,244 L 120,244 L 121,245 L 122,245 L 123,246 L 124,246 L 125,247 L 126,247 L 127,248 L 128,248 L 129,249 L 132,249 L 133,250 L 136,250 L 137,251 L 138,251 L 139,252 L 140,252 L 141,253 L 142,252 L 141,252 L 140,251 L 139,251 L 138,250 L 138,249 L 137,248 L 137,247 L 138,246 L 138,243 L 139,242 L 139,238 L 138,237 L 136,237 L 135,236 L 134,236 L 133,235 Z" fill="none" stroke="black" stroke-width="1"/>
</svg>