<svg xmlns="http://www.w3.org/2000/svg" width="240" height="278">
  <path d="M 217,248 L 217,251 L 216,252 L 217,252 L 217,250 L 218,249 L 219,249 L 218,248 Z" fill="none" stroke="black" stroke-width="1"/>
  <path d="M 188,243 L 187,244 L 187,246 L 188,246 L 188,244 L 189,243 Z" fill="none" stroke="black" stroke-width="1"/>
  <path d="M 194,242 L 193,243 L 191,243 L 191,245 L 192,246 L 193,246 L 195,248 L 197,248 L 199,250 L 199,251 L 198,252 L 197,251 L 196,252 L 192,252 L 190,250 L 189,250 L 187,248 L 184,248 L 183,247 L 181,247 L 179,249 L 177,249 L 176,250 L 176,257 L 177,257 L 178,258 L 181,258 L 182,257 L 187,257 L 188,256 L 189,256 L 190,255 L 194,255 L 195,254 L 198,254 L 199,253 L 199,252 L 201,250 L 202,251 L 202,252 L 201,253 L 201,254 L 204,254 L 205,253 L 207,253 L 208,254 L 209,254 L 208,253 L 208,252 L 209,251 L 210,252 L 213,252 L 213,251 L 211,251 L 210,250 L 211,249 L 211,248 L 210,247 L 210,246 L 207,246 L 207,248 L 206,249 L 205,248 L 205,246 L 204,245 L 202,245 L 200,247 L 199,247 L 197,245 L 197,243 L 195,243 Z" fill="none" stroke="black" stroke-width="1"/>
</svg>