<svg xmlns="http://www.w3.org/2000/svg" width="582" height="484">
  <path d="M 42,436 L 42,438 Z" fill="none" stroke="black" stroke-width="1"/>
  <path d="M 96,430 L 95,431 L 95,432 L 93,434 L 94,434 L 95,433 L 96,433 L 96,432 L 97,431 L 98,431 L 99,430 Z" fill="none" stroke="black" stroke-width="1"/>
  <path d="M 106,429 L 105,430 L 104,430 L 104,431 L 103,432 L 102,431 L 102,430 L 101,430 L 102,431 L 101,432 L 100,432 L 98,434 L 102,434 L 106,430 L 107,430 L 108,429 Z" fill="none" stroke="black" stroke-width="1"/>
  <path d="M 117,428 L 116,429 L 116,430 L 115,431 L 114,430 L 114,429 L 113,429 L 113,430 L 111,432 L 110,431 L 109,431 L 109,432 L 110,433 L 110,434 L 111,434 L 113,432 L 113,431 L 114,430 L 115,431 L 115,432 L 116,433 L 117,432 L 120,432 L 121,431 L 127,431 L 127,429 L 126,428 L 125,428 L 124,429 L 120,429 L 119,428 Z" fill="none" stroke="black" stroke-width="1"/>
  <path d="M 90,427 L 92,429 L 89,432 L 88,432 L 84,436 L 82,436 L 81,435 L 80,435 L 79,434 L 79,433 L 78,433 L 77,434 L 74,434 L 73,433 L 70,436 L 69,435 L 68,435 L 67,434 L 67,433 L 64,433 L 63,432 L 60,432 L 59,431 L 58,431 L 57,430 L 51,430 L 49,432 L 48,432 L 47,433 L 46,433 L 44,435 L 44,438 L 45,438 L 46,439 L 47,438 L 57,438 L 58,439 L 60,439 L 61,440 L 62,440 L 63,441 L 64,440 L 68,440 L 68,439 L 69,438 L 71,438 L 72,439 L 76,439 L 77,438 L 78,438 L 79,437 L 86,437 L 88,435 L 91,435 L 91,434 L 90,433 L 92,431 L 93,431 L 93,427 Z" fill="none" stroke="black" stroke-width="1"/>
</svg>