<svg xmlns="http://www.w3.org/2000/svg" width="240" height="278">
  <path d="M 219,262 L 218,263 L 213,263 L 212,264 L 211,264 L 210,265 L 210,266 L 212,268 L 218,268 L 219,269 L 220,269 L 222,271 L 224,271 L 227,274 L 227,275 L 228,276 L 230,276 L 231,277 L 232,277 L 233,276 L 237,276 L 239,274 L 239,273 L 238,272 L 237,272 L 235,270 L 235,269 L 233,267 L 232,267 L 231,268 L 229,266 L 229,265 L 228,265 L 225,262 L 224,262 L 223,263 L 221,263 L 220,262 Z" fill="none" stroke="black" stroke-width="1"/>
</svg>