<svg xmlns="http://www.w3.org/2000/svg" width="582" height="484">
  <path d="M 100,465 L 96,469 L 95,469 L 94,470 L 93,470 L 92,471 L 91,471 L 91,472 L 93,472 L 94,471 L 97,471 L 100,468 Z" fill="none" stroke="black" stroke-width="1"/>
  <path d="M 76,465 L 74,467 L 77,467 L 78,466 L 78,465 Z" fill="none" stroke="black" stroke-width="1"/>
  <path d="M 122,442 L 120,444 L 119,444 L 118,445 L 114,445 L 112,447 L 110,447 L 108,449 L 107,449 L 105,451 L 105,455 L 103,457 L 103,458 L 105,458 L 106,459 L 105,460 L 104,460 L 103,461 L 102,461 L 101,460 L 99,462 L 99,463 L 100,463 L 101,462 L 102,463 L 105,463 L 106,464 L 108,462 L 109,462 L 110,461 L 111,461 L 112,460 L 116,460 L 121,455 L 121,452 L 120,451 L 120,449 L 121,448 L 121,447 L 122,446 Z" fill="none" stroke="black" stroke-width="1"/>
</svg>