<svg xmlns="http://www.w3.org/2000/svg" width="240" height="278">
  <path d="M 157,36 L 154,39 L 150,39 L 150,40 L 149,41 L 148,40 L 148,38 L 149,37 L 148,37 L 147,38 L 146,38 L 145,39 L 144,39 L 139,44 L 137,44 L 136,45 L 133,45 L 132,44 L 132,49 L 131,50 L 131,51 L 132,52 L 133,52 L 134,53 L 134,54 L 135,55 L 135,56 L 137,58 L 138,58 L 140,60 L 140,62 L 141,62 L 142,63 L 143,63 L 145,65 L 145,69 L 148,69 L 150,67 L 150,65 L 151,64 L 151,59 L 150,58 L 150,56 L 151,55 L 152,55 L 152,50 L 154,48 L 154,45 L 156,43 L 156,41 L 158,39 L 158,38 L 157,37 Z" fill="none" stroke="black" stroke-width="1"/>
</svg>