<svg xmlns="http://www.w3.org/2000/svg" width="240" height="278">
  <path d="M 175,5 L 175,6 L 174,7 L 174,10 L 172,12 L 172,13 L 170,15 L 169,15 L 167,17 L 167,18 L 165,20 L 165,23 L 162,26 L 162,28 L 161,29 L 156,29 L 154,31 L 154,32 L 158,36 L 158,37 L 161,40 L 162,39 L 163,39 L 165,41 L 167,41 L 168,42 L 174,42 L 174,38 L 175,37 L 176,37 L 176,35 L 177,34 L 177,33 L 178,32 L 182,32 L 183,31 L 183,29 L 184,28 L 183,27 L 183,26 L 182,25 L 182,21 L 180,21 L 179,20 L 179,19 L 177,17 L 177,16 L 179,14 L 182,14 L 183,13 L 185,13 L 185,11 L 186,10 L 186,9 L 186,10 L 184,12 L 183,11 L 183,10 L 182,9 L 182,6 L 180,6 L 180,8 L 178,10 L 178,11 L 177,12 L 176,12 L 175,11 L 175,10 L 176,9 L 176,6 Z" fill="none" stroke="black" stroke-width="1"/>
  <path d="M 181,0 L 180,1 L 180,3 L 181,2 L 182,2 L 183,1 L 183,0 Z" fill="none" stroke="black" stroke-width="1"/>
</svg>