<svg xmlns="http://www.w3.org/2000/svg" width="240" height="278">
  <path d="M 172,98 L 172,99 L 169,102 L 168,102 L 167,103 L 167,104 L 166,105 L 165,104 L 163,104 L 162,105 L 161,105 L 160,106 L 159,106 L 155,110 L 155,116 L 157,116 L 158,117 L 158,118 L 160,118 L 161,119 L 161,120 L 162,121 L 166,121 L 167,122 L 172,122 L 175,119 L 176,119 L 177,120 L 178,120 L 179,121 L 179,122 L 181,124 L 182,124 L 184,126 L 185,126 L 186,125 L 186,124 L 185,123 L 185,122 L 186,121 L 186,114 L 187,113 L 187,112 L 189,110 L 189,108 L 190,107 L 190,105 L 189,105 L 188,104 L 188,103 L 187,103 L 186,102 L 185,103 L 180,103 L 177,100 L 175,100 L 174,99 L 173,99 Z" fill="none" stroke="black" stroke-width="1"/>
</svg>