<svg xmlns="http://www.w3.org/2000/svg" width="240" height="278">
  <path d="M 145,146 L 145,147 L 144,148 L 143,148 L 140,151 L 138,151 L 137,150 L 135,150 L 134,151 L 133,151 L 132,152 L 129,152 L 127,150 L 125,150 L 123,148 L 120,148 L 119,147 L 118,147 L 115,150 L 115,153 L 117,155 L 117,156 L 118,157 L 118,160 L 119,161 L 119,162 L 121,164 L 123,164 L 124,163 L 126,163 L 127,164 L 127,168 L 129,168 L 130,167 L 131,167 L 132,166 L 135,166 L 136,167 L 137,167 L 138,168 L 139,168 L 140,169 L 141,168 L 141,167 L 142,166 L 143,166 L 143,162 L 144,161 L 144,157 L 149,152 L 149,148 L 148,147 L 146,147 Z" fill="none" stroke="black" stroke-width="1"/>
</svg>