<svg xmlns="http://www.w3.org/2000/svg" width="240" height="278">
  <path d="M 61,87 L 60,88 L 60,90 L 57,93 L 56,93 L 55,94 L 55,97 L 54,98 L 55,99 L 54,100 L 54,104 L 53,105 L 52,105 L 53,106 L 53,109 L 54,110 L 54,112 L 53,113 L 55,113 L 56,114 L 58,112 L 59,112 L 60,111 L 61,111 L 62,112 L 63,112 L 65,110 L 69,110 L 70,109 L 73,109 L 74,108 L 76,108 L 75,107 L 74,107 L 73,106 L 73,105 L 72,104 L 71,104 L 66,99 L 66,98 L 65,97 L 65,95 L 64,94 L 64,93 L 63,92 L 63,91 L 62,90 L 62,87 Z" fill="none" stroke="black" stroke-width="1"/>
  <path d="M 42,51 L 40,53 L 39,53 L 39,55 L 40,56 L 41,56 L 42,57 L 41,58 L 41,59 L 42,59 L 44,57 L 44,54 L 42,52 Z" fill="none" stroke="black" stroke-width="1"/>
</svg>