<svg xmlns="http://www.w3.org/2000/svg" width="582" height="484">
  <path d="M 60,414 L 62,414 L 63,415 L 63,414 Z" fill="none" stroke="black" stroke-width="1"/>
  <path d="M 57,410 L 57,411 L 59,411 L 58,411 Z" fill="none" stroke="black" stroke-width="1"/>
  <path d="M 54,400 L 55,400 Z" fill="none" stroke="black" stroke-width="1"/>
  <path d="M 54,391 L 54,397 L 55,398 L 55,392 Z" fill="none" stroke="black" stroke-width="1"/>
  <path d="M 40,377 L 39,378 L 39,379 L 37,381 L 37,384 L 40,387 L 41,387 L 42,388 L 44,388 L 46,386 L 47,386 L 48,387 L 49,386 L 52,386 L 53,387 L 54,387 L 53,386 L 53,384 L 52,383 L 52,382 L 47,382 L 45,380 L 45,378 L 41,378 Z" fill="none" stroke="black" stroke-width="1"/>
</svg>