<svg xmlns="http://www.w3.org/2000/svg" width="582" height="484">
  <path d="M 63,332 L 61,334 L 60,334 L 59,333 L 57,333 L 56,334 L 56,336 L 55,337 L 55,338 L 56,339 L 56,340 L 58,340 L 59,339 L 60,339 L 61,340 L 63,340 L 64,341 L 64,349 L 61,352 L 61,354 L 65,358 L 66,358 L 68,360 L 69,359 L 69,356 L 70,355 L 71,355 L 72,354 L 73,354 L 73,353 L 74,352 L 73,351 L 73,350 L 72,349 L 72,348 L 71,347 L 71,344 L 73,342 L 74,342 L 75,341 L 75,340 L 74,339 L 74,337 L 73,336 L 71,336 L 69,334 L 67,334 L 66,333 L 64,333 Z" fill="none" stroke="black" stroke-width="1"/>
</svg>