<svg xmlns="http://www.w3.org/2000/svg" width="582" height="484">
  <path d="M 99,318 L 99,319 L 98,320 L 97,320 L 97,322 L 96,323 L 97,323 L 97,321 L 98,320 L 100,322 L 102,320 L 102,318 Z" fill="none" stroke="black" stroke-width="1"/>
  <path d="M 92,317 L 92,318 L 91,319 L 91,322 L 92,323 L 94,321 L 94,320 L 96,318 L 97,318 L 97,317 Z" fill="none" stroke="black" stroke-width="1"/>
  <path d="M 95,307 L 94,308 L 90,308 L 92,308 L 93,309 L 92,310 L 81,310 L 81,312 L 80,313 L 74,313 L 72,311 L 71,312 L 70,312 L 67,315 L 67,316 L 66,317 L 66,318 L 65,319 L 65,320 L 64,321 L 61,321 L 60,320 L 57,320 L 56,319 L 56,318 L 55,317 L 55,314 L 54,315 L 54,317 L 53,318 L 53,320 L 52,321 L 52,322 L 51,323 L 51,324 L 50,325 L 50,326 L 49,327 L 54,332 L 59,332 L 60,333 L 61,333 L 63,331 L 64,332 L 66,332 L 67,333 L 69,333 L 71,335 L 73,335 L 75,337 L 75,339 L 76,340 L 76,341 L 77,341 L 78,340 L 78,339 L 76,337 L 76,336 L 73,333 L 72,333 L 69,330 L 68,330 L 67,329 L 67,327 L 68,326 L 69,326 L 72,329 L 74,327 L 74,326 L 76,324 L 78,324 L 79,323 L 81,323 L 82,322 L 83,322 L 88,317 L 88,316 L 90,314 L 90,313 L 92,311 L 95,311 L 98,314 L 99,314 L 99,312 L 100,311 L 100,309 L 98,307 Z" fill="none" stroke="black" stroke-width="1"/>
  <path d="M 77,303 L 78,304 L 78,303 Z" fill="none" stroke="black" stroke-width="1"/>
  <path d="M 75,303 L 74,304 L 73,304 L 73,305 L 72,306 L 73,306 L 74,305 L 76,305 L 75,304 Z" fill="none" stroke="black" stroke-width="1"/>
</svg>