<svg xmlns="http://www.w3.org/2000/svg" width="582" height="484">
  <path d="M 125,270 L 123,272 L 123,274 L 122,275 L 119,275 L 118,276 L 119,277 L 119,278 L 118,279 L 115,279 L 115,280 L 113,282 L 112,282 L 111,283 L 110,283 L 108,285 L 106,285 L 106,286 L 108,288 L 108,289 L 109,290 L 109,291 L 114,291 L 115,290 L 116,290 L 117,289 L 117,288 L 119,286 L 119,285 L 122,282 L 123,282 L 123,281 L 125,279 L 125,278 L 126,277 L 126,275 L 127,274 L 128,274 L 128,273 L 127,272 L 127,271 L 126,271 Z" fill="none" stroke="black" stroke-width="1"/>
  <path d="M 136,238 L 136,239 L 137,240 L 137,241 L 138,242 L 139,242 L 139,241 L 137,239 L 137,238 Z" fill="none" stroke="black" stroke-width="1"/>
  <path d="M 151,224 L 151,228 L 152,229 L 152,231 L 151,232 L 151,233 L 150,234 L 150,235 L 151,235 L 151,234 L 153,232 L 153,230 L 154,229 L 154,226 L 153,225 L 152,225 Z" fill="none" stroke="black" stroke-width="1"/>
</svg>