<svg xmlns="http://www.w3.org/2000/svg" width="582" height="484">
  <path d="M 168,348 L 167,349 L 167,350 L 166,351 L 165,350 L 165,351 L 167,351 L 168,350 Z" fill="none" stroke="black" stroke-width="1"/>
  <path d="M 195,342 L 194,343 L 193,343 L 191,345 L 189,345 L 188,344 L 174,344 L 174,345 L 171,348 L 170,348 L 170,350 L 171,351 L 171,353 L 171,352 L 172,351 L 172,349 L 174,347 L 178,351 L 178,352 L 182,352 L 185,349 L 186,349 L 187,350 L 187,351 L 189,351 L 190,352 L 194,352 L 195,353 L 195,351 L 196,350 L 198,350 L 199,351 L 202,351 L 203,352 L 203,353 L 204,353 L 205,354 L 206,354 L 207,355 L 208,355 L 209,356 L 211,356 L 214,359 L 215,359 L 215,357 L 216,356 L 216,354 L 214,352 L 213,352 L 212,351 L 212,348 L 211,348 L 208,345 L 207,346 L 203,346 L 202,345 L 200,345 L 198,343 L 196,343 Z" fill="none" stroke="black" stroke-width="1"/>
</svg>