<svg xmlns="http://www.w3.org/2000/svg" width="582" height="484">
  <path d="M 192,297 L 195,300 L 196,300 L 195,299 L 195,298 L 194,298 L 193,297 Z" fill="none" stroke="black" stroke-width="1"/>
  <path d="M 178,273 L 176,275 L 175,275 L 174,276 L 174,277 L 175,278 L 175,279 L 174,280 L 172,280 L 171,281 L 171,283 L 169,285 L 167,285 L 166,284 L 166,285 L 165,286 L 165,290 L 166,291 L 166,292 L 167,293 L 167,302 L 168,302 L 171,305 L 171,306 L 172,307 L 172,308 L 173,309 L 174,309 L 176,311 L 176,310 L 173,307 L 173,306 L 172,305 L 172,304 L 171,303 L 171,301 L 170,300 L 170,299 L 169,298 L 169,296 L 170,295 L 169,294 L 169,291 L 170,290 L 174,290 L 175,291 L 179,291 L 180,292 L 182,292 L 182,290 L 181,289 L 180,289 L 179,288 L 177,288 L 174,285 L 175,284 L 175,283 L 176,282 L 179,282 L 181,280 L 182,280 L 182,273 Z" fill="none" stroke="black" stroke-width="1"/>
  <path d="M 180,255 L 176,259 L 176,260 L 175,261 L 176,262 L 176,264 L 179,264 L 180,263 L 180,262 L 181,261 L 181,259 L 182,258 L 180,256 Z" fill="none" stroke="black" stroke-width="1"/>
</svg>