<svg xmlns="http://www.w3.org/2000/svg" width="582" height="484">
  <path d="M 166,319 L 164,321 L 163,321 L 162,322 L 163,323 L 163,324 L 164,325 L 166,325 L 167,324 L 170,324 L 171,325 L 173,325 L 174,324 L 171,321 L 169,321 L 168,320 L 167,320 Z" fill="none" stroke="black" stroke-width="1"/>
  <path d="M 164,317 L 165,317 Z" fill="none" stroke="black" stroke-width="1"/>
  <path d="M 159,308 L 159,310 L 160,310 L 160,308 Z" fill="none" stroke="black" stroke-width="1"/>
  <path d="M 158,302 L 158,305 L 159,305 L 159,304 L 160,303 L 161,304 L 161,306 L 163,308 L 163,310 L 164,310 L 165,309 L 167,311 L 169,311 L 169,309 L 166,309 L 165,308 L 165,306 L 166,305 L 165,304 L 165,303 L 162,303 L 161,304 L 159,302 Z" fill="none" stroke="black" stroke-width="1"/>
</svg>