<svg xmlns="http://www.w3.org/2000/svg" width="582" height="484">
  <path d="M 49,217 L 46,220 L 44,220 L 44,221 L 46,221 L 48,219 L 49,220 L 50,220 L 50,218 Z" fill="none" stroke="black" stroke-width="1"/>
  <path d="M 63,205 L 61,207 L 62,208 L 63,208 L 64,207 L 66,207 L 67,208 L 68,207 L 67,207 L 66,206 L 65,206 L 64,205 Z" fill="none" stroke="black" stroke-width="1"/>
  <path d="M 79,194 L 77,196 L 75,196 L 76,197 L 76,198 L 77,199 L 80,199 L 80,198 L 81,197 L 81,196 L 80,196 L 79,195 Z" fill="none" stroke="black" stroke-width="1"/>
</svg>