<svg xmlns="http://www.w3.org/2000/svg" width="582" height="484">
  <path d="M 105,176 L 105,177 L 106,178 L 108,178 L 109,179 L 110,179 L 111,180 L 111,181 L 112,182 L 112,183 L 113,183 L 114,184 L 114,185 L 110,189 L 110,190 L 109,191 L 109,193 L 110,194 L 110,195 L 111,196 L 111,197 L 110,198 L 111,199 L 111,200 L 112,201 L 112,202 L 113,203 L 114,203 L 117,206 L 118,206 L 119,207 L 120,207 L 121,208 L 123,208 L 124,209 L 125,209 L 126,208 L 126,206 L 128,204 L 129,205 L 129,206 L 130,207 L 128,209 L 128,210 L 130,212 L 130,213 L 131,213 L 132,212 L 132,211 L 133,210 L 133,209 L 134,208 L 135,208 L 135,202 L 134,201 L 134,199 L 133,198 L 132,198 L 130,196 L 130,194 L 126,190 L 126,187 L 127,186 L 127,184 L 124,181 L 123,181 L 121,183 L 120,183 L 119,184 L 118,183 L 117,183 L 113,179 L 112,179 L 111,178 L 111,176 L 110,176 L 109,177 L 108,177 L 107,176 Z" fill="none" stroke="black" stroke-width="1"/>
</svg>