<svg xmlns="http://www.w3.org/2000/svg" width="582" height="484">
  <path d="M 122,158 L 122,161 L 121,162 L 121,163 L 122,164 L 121,165 L 121,166 L 120,167 L 119,166 L 118,166 L 117,165 L 115,165 L 114,166 L 114,170 L 113,171 L 109,171 L 105,175 L 107,175 L 108,176 L 109,176 L 110,175 L 111,175 L 112,176 L 112,178 L 113,178 L 117,182 L 118,182 L 119,183 L 120,182 L 121,182 L 123,180 L 124,180 L 127,183 L 127,181 L 126,180 L 126,178 L 124,176 L 124,175 L 125,174 L 125,173 L 124,172 L 124,171 L 125,170 L 125,169 L 127,167 L 127,164 L 126,163 L 125,163 L 124,162 L 124,161 L 123,160 L 123,158 Z" fill="none" stroke="black" stroke-width="1"/>
</svg>