<svg xmlns="http://www.w3.org/2000/svg" width="582" height="484">
  <path d="M 114,99 L 114,101 L 115,102 L 115,104 L 116,105 L 116,106 L 117,107 L 118,107 L 119,108 L 120,108 L 121,109 L 121,110 L 123,112 L 125,112 L 126,113 L 125,114 L 125,115 L 124,116 L 123,116 L 122,115 L 122,114 L 121,113 L 121,115 L 123,117 L 124,117 L 125,118 L 125,119 L 127,121 L 128,121 L 130,123 L 132,123 L 133,122 L 134,122 L 133,121 L 134,120 L 134,119 L 131,116 L 131,115 L 132,114 L 131,113 L 131,109 L 132,108 L 132,105 L 131,104 L 130,105 L 129,104 L 129,101 L 127,99 L 126,100 L 121,100 L 120,101 L 118,101 L 117,100 L 115,100 Z" fill="none" stroke="black" stroke-width="1"/>
</svg>