<svg xmlns="http://www.w3.org/2000/svg" width="582" height="484">
  <path d="M 0,173 L 0,176 L 1,175 L 0,174 Z" fill="none" stroke="black" stroke-width="1"/>
  <path d="M 25,144 L 21,148 L 21,149 L 20,150 L 19,150 L 19,151 L 16,154 L 14,154 L 12,156 L 11,156 L 8,159 L 8,160 L 5,163 L 5,164 L 4,165 L 4,166 L 3,167 L 3,168 L 4,169 L 4,170 L 5,170 L 5,169 L 4,169 L 3,168 L 6,165 L 7,165 L 9,163 L 10,163 L 13,160 L 14,160 L 16,158 L 16,157 L 18,155 L 19,155 L 20,154 L 21,154 L 24,151 L 24,150 L 25,149 L 25,148 L 26,147 L 27,147 L 26,146 L 26,144 Z" fill="none" stroke="black" stroke-width="1"/>
</svg>