<svg xmlns="http://www.w3.org/2000/svg" width="582" height="484">
  <path d="M 49,78 L 49,79 L 51,81 L 51,80 Z" fill="none" stroke="black" stroke-width="1"/>
  <path d="M 64,61 L 62,63 L 61,63 L 61,64 L 62,65 L 62,66 L 63,67 L 61,69 L 60,69 L 57,72 L 56,72 L 56,73 L 57,74 L 57,77 L 61,77 L 62,78 L 62,79 L 63,79 L 64,80 L 64,81 L 68,81 L 67,80 L 67,79 L 66,78 L 66,76 L 64,74 L 64,73 L 63,72 L 63,71 L 66,68 L 66,67 L 67,66 L 67,65 L 66,64 L 66,63 Z" fill="none" stroke="black" stroke-width="1"/>
</svg>