<svg xmlns="http://www.w3.org/2000/svg" width="582" height="484">
  <path d="M 81,1 L 81,3 L 78,6 L 76,6 L 75,5 L 74,5 L 73,4 L 72,4 L 71,3 L 70,3 L 69,2 L 67,2 L 67,3 L 66,4 L 66,6 L 67,7 L 68,7 L 70,9 L 70,14 L 71,15 L 71,18 L 72,19 L 72,24 L 71,25 L 71,26 L 68,29 L 68,30 L 67,31 L 67,33 L 66,34 L 66,35 L 65,36 L 65,38 L 66,39 L 66,40 L 68,42 L 70,42 L 71,43 L 72,43 L 74,41 L 76,41 L 77,40 L 78,40 L 80,38 L 81,39 L 81,35 L 83,33 L 83,32 L 84,31 L 84,30 L 85,29 L 85,27 L 86,26 L 86,25 L 85,25 L 84,24 L 84,21 L 82,21 L 81,20 L 81,18 L 80,17 L 80,11 L 81,10 L 81,7 L 83,5 L 83,3 Z" fill="none" stroke="black" stroke-width="1"/>
</svg>