<svg xmlns="http://www.w3.org/2000/svg" width="190" height="226">
  <path d="M 24,195 L 24,197 L 22,199 L 21,199 L 21,201 L 20,202 L 20,203 L 19,204 L 19,205 L 18,206 L 18,207 L 19,208 L 24,208 L 25,209 L 29,209 L 30,210 L 30,213 L 29,214 L 30,215 L 31,215 L 32,216 L 32,217 L 33,218 L 33,219 L 35,219 L 36,218 L 37,218 L 38,219 L 41,219 L 41,218 L 44,215 L 45,215 L 46,214 L 47,214 L 48,215 L 48,216 L 49,217 L 48,218 L 48,219 L 49,219 L 50,220 L 50,224 L 51,224 L 52,223 L 55,223 L 57,225 L 58,224 L 58,223 L 56,221 L 57,220 L 57,213 L 55,211 L 55,209 L 54,208 L 54,207 L 55,206 L 55,203 L 56,202 L 59,202 L 60,203 L 62,203 L 61,202 L 61,200 L 59,198 L 58,198 L 57,199 L 54,199 L 53,200 L 51,200 L 50,201 L 50,203 L 49,204 L 48,204 L 47,203 L 45,203 L 44,202 L 44,201 L 39,201 L 37,203 L 35,203 L 33,201 L 32,201 L 31,200 L 32,199 L 31,198 L 31,197 L 30,198 L 29,197 L 29,196 L 28,196 L 27,197 L 26,197 Z" fill="none" stroke="black" stroke-width="1"/>
</svg>