<svg xmlns="http://www.w3.org/2000/svg" width="190" height="226">
  <path d="M 53,132 L 52,133 L 52,135 L 51,136 L 48,136 L 47,137 L 46,137 L 45,138 L 45,139 L 44,140 L 41,140 L 40,139 L 39,139 L 38,138 L 35,141 L 32,141 L 31,140 L 28,140 L 28,141 L 27,142 L 24,142 L 22,140 L 22,139 L 21,138 L 20,138 L 17,141 L 14,141 L 13,140 L 12,140 L 12,142 L 11,143 L 11,144 L 9,146 L 9,147 L 7,149 L 7,151 L 4,154 L 4,156 L 5,157 L 6,157 L 9,160 L 9,162 L 10,163 L 12,163 L 13,164 L 13,166 L 15,168 L 16,168 L 17,169 L 18,169 L 20,171 L 21,171 L 22,172 L 23,172 L 24,173 L 24,174 L 25,175 L 26,174 L 27,174 L 28,175 L 30,173 L 31,173 L 35,169 L 36,169 L 37,168 L 40,168 L 41,167 L 42,167 L 43,166 L 48,166 L 49,165 L 50,165 L 51,164 L 52,164 L 53,163 L 54,163 L 55,162 L 56,162 L 58,160 L 58,159 L 59,158 L 60,158 L 61,157 L 61,156 L 62,155 L 62,153 L 61,152 L 61,150 L 62,149 L 62,148 L 63,147 L 62,146 L 62,145 L 63,144 L 63,143 L 64,142 L 64,141 L 63,142 L 62,142 L 60,140 L 60,138 L 59,138 L 57,136 L 57,134 L 55,132 Z" fill="none" stroke="black" stroke-width="1"/>
</svg>