<svg xmlns="http://www.w3.org/2000/svg" width="190" height="226">
  <path d="M 96,132 L 95,133 L 93,133 L 92,134 L 91,134 L 90,133 L 86,137 L 86,139 L 82,143 L 79,143 L 78,142 L 77,142 L 76,141 L 76,140 L 74,138 L 73,138 L 72,137 L 71,138 L 70,138 L 69,137 L 68,137 L 65,140 L 65,142 L 64,143 L 64,144 L 63,145 L 63,146 L 64,147 L 63,148 L 63,149 L 62,150 L 62,152 L 63,153 L 63,155 L 62,156 L 62,157 L 60,159 L 59,159 L 59,160 L 56,163 L 55,163 L 54,164 L 53,164 L 52,165 L 51,165 L 50,166 L 49,166 L 47,168 L 49,168 L 51,170 L 51,171 L 52,171 L 54,173 L 54,175 L 56,177 L 57,177 L 58,178 L 59,178 L 60,179 L 61,179 L 61,178 L 60,177 L 61,176 L 61,175 L 62,174 L 63,174 L 65,172 L 69,172 L 70,171 L 71,171 L 72,172 L 74,172 L 75,171 L 75,168 L 76,167 L 77,167 L 78,166 L 79,166 L 80,167 L 82,167 L 83,166 L 85,166 L 87,164 L 89,166 L 89,167 L 90,168 L 90,170 L 91,171 L 91,172 L 92,172 L 93,173 L 94,173 L 95,174 L 96,174 L 97,173 L 98,173 L 99,172 L 100,172 L 101,171 L 103,171 L 105,169 L 106,169 L 107,170 L 107,169 L 106,169 L 104,167 L 104,165 L 105,164 L 105,159 L 104,158 L 104,155 L 103,154 L 102,154 L 100,152 L 100,150 L 99,149 L 99,147 L 100,146 L 100,144 L 99,143 L 100,142 L 100,138 L 101,137 L 101,134 L 99,132 Z" fill="none" stroke="black" stroke-width="1"/>
</svg>