<svg xmlns="http://www.w3.org/2000/svg" width="190" height="226">
  <path d="M 87,165 L 85,167 L 83,167 L 82,168 L 80,168 L 79,167 L 78,167 L 77,168 L 76,168 L 76,171 L 74,173 L 72,173 L 71,172 L 70,172 L 69,173 L 65,173 L 63,175 L 62,175 L 62,176 L 61,177 L 63,179 L 64,178 L 65,179 L 65,180 L 66,179 L 70,183 L 69,184 L 69,185 L 68,186 L 68,187 L 65,190 L 65,191 L 63,193 L 64,194 L 63,195 L 62,195 L 60,197 L 60,198 L 62,200 L 62,202 L 63,203 L 64,203 L 67,200 L 67,199 L 69,197 L 70,197 L 71,198 L 73,198 L 75,200 L 75,201 L 77,203 L 80,200 L 80,199 L 82,197 L 83,197 L 84,198 L 84,200 L 85,200 L 85,198 L 86,197 L 87,197 L 91,201 L 92,201 L 92,199 L 95,196 L 96,196 L 97,197 L 97,198 L 99,198 L 101,196 L 104,196 L 105,195 L 105,193 L 104,192 L 105,191 L 106,191 L 107,190 L 108,190 L 109,189 L 110,189 L 111,188 L 114,188 L 115,189 L 117,189 L 117,188 L 118,187 L 118,186 L 119,185 L 120,185 L 121,184 L 124,184 L 125,183 L 125,181 L 126,180 L 126,179 L 125,178 L 125,177 L 124,176 L 124,175 L 121,175 L 120,176 L 118,174 L 117,174 L 116,175 L 114,175 L 113,174 L 111,174 L 110,173 L 110,172 L 109,171 L 108,172 L 106,170 L 105,170 L 103,172 L 101,172 L 100,173 L 99,173 L 98,174 L 97,174 L 96,175 L 95,175 L 94,174 L 93,174 L 92,173 L 91,173 L 90,172 L 90,171 L 89,170 L 89,168 L 88,167 L 88,166 Z" fill="none" stroke="black" stroke-width="1"/>
</svg>