<svg xmlns="http://www.w3.org/2000/svg" width="273" height="267">
  <path d="M 28,151 L 27,152 L 23,152 L 23,154 L 20,157 L 16,157 L 14,155 L 12,155 L 10,153 L 10,152 L 6,152 L 2,156 L 1,156 L 0,157 L 0,159 L 1,160 L 2,160 L 3,161 L 3,163 L 4,162 L 6,164 L 6,165 L 8,165 L 9,166 L 11,166 L 12,165 L 13,165 L 15,167 L 16,166 L 19,166 L 20,167 L 20,168 L 21,169 L 21,170 L 22,171 L 22,172 L 21,173 L 21,175 L 19,177 L 16,177 L 15,178 L 14,178 L 14,179 L 13,180 L 13,181 L 12,182 L 12,184 L 13,184 L 14,185 L 15,185 L 16,186 L 19,186 L 20,185 L 21,185 L 23,187 L 29,187 L 31,189 L 31,190 L 32,189 L 32,187 L 33,186 L 35,186 L 36,185 L 37,185 L 37,183 L 36,182 L 36,181 L 38,179 L 40,179 L 40,177 L 41,176 L 41,174 L 42,173 L 44,173 L 45,172 L 44,171 L 44,170 L 41,167 L 40,167 L 38,165 L 37,165 L 34,162 L 34,161 L 32,159 L 33,158 L 32,157 L 33,156 L 32,155 L 32,154 L 29,151 Z" fill="none" stroke="black" stroke-width="1"/>
</svg>