<svg xmlns="http://www.w3.org/2000/svg" width="273" height="267">
  <path d="M 121,167 L 120,168 L 120,169 L 117,172 L 117,173 L 113,177 L 112,176 L 112,170 L 110,170 L 109,171 L 107,171 L 107,173 L 105,175 L 105,176 L 104,177 L 104,178 L 103,179 L 103,183 L 104,184 L 104,185 L 103,186 L 103,187 L 101,189 L 99,189 L 100,190 L 101,190 L 103,192 L 103,193 L 102,194 L 102,195 L 105,192 L 106,192 L 108,194 L 108,195 L 103,200 L 103,203 L 105,203 L 106,204 L 106,206 L 105,207 L 105,210 L 106,210 L 107,209 L 108,209 L 108,208 L 109,207 L 110,208 L 110,209 L 111,209 L 110,208 L 111,207 L 110,206 L 111,205 L 112,205 L 113,206 L 114,206 L 115,207 L 116,207 L 116,205 L 118,203 L 118,200 L 119,199 L 120,200 L 122,198 L 122,197 L 123,196 L 124,196 L 124,194 L 126,192 L 127,192 L 128,191 L 128,189 L 126,187 L 126,186 L 124,184 L 124,183 L 125,182 L 125,180 L 126,179 L 126,176 L 125,176 L 124,175 L 124,173 L 123,172 L 123,168 L 122,167 Z" fill="none" stroke="black" stroke-width="1"/>
</svg>