<svg xmlns="http://www.w3.org/2000/svg" width="273" height="267">
  <path d="M 125,207 L 124,208 L 124,209 L 125,208 Z" fill="none" stroke="black" stroke-width="1"/>
  <path d="M 146,199 L 148,199 Z" fill="none" stroke="black" stroke-width="1"/>
  <path d="M 138,167 L 138,168 L 135,171 L 133,171 L 132,170 L 131,170 L 131,172 L 130,173 L 129,173 L 128,174 L 127,174 L 126,175 L 127,176 L 127,179 L 126,180 L 126,182 L 125,183 L 125,184 L 127,186 L 127,187 L 129,189 L 129,191 L 127,193 L 126,193 L 125,194 L 125,196 L 124,197 L 123,197 L 123,198 L 120,201 L 119,200 L 119,203 L 117,205 L 117,207 L 118,207 L 119,206 L 122,206 L 122,205 L 124,203 L 125,203 L 126,204 L 126,205 L 127,204 L 127,201 L 129,199 L 130,200 L 130,201 L 131,201 L 131,200 L 130,199 L 130,196 L 131,195 L 131,194 L 134,191 L 135,191 L 135,190 L 134,189 L 136,187 L 138,189 L 138,190 L 139,190 L 141,192 L 141,194 L 142,194 L 143,195 L 143,197 L 141,199 L 142,199 L 144,197 L 147,197 L 148,196 L 149,196 L 148,195 L 147,196 L 146,195 L 146,194 L 148,192 L 150,192 L 151,193 L 151,194 L 152,194 L 151,193 L 151,192 L 148,192 L 146,190 L 146,189 L 147,188 L 147,187 L 146,187 L 145,186 L 145,185 L 144,184 L 142,184 L 140,182 L 144,178 L 145,178 L 149,174 L 148,173 L 149,172 L 147,170 L 146,171 L 145,170 L 144,170 L 142,168 L 142,167 Z" fill="none" stroke="black" stroke-width="1"/>
</svg>