<svg xmlns="http://www.w3.org/2000/svg" width="273" height="267">
  <path d="M 229,142 L 229,143 L 230,144 L 230,143 Z" fill="none" stroke="black" stroke-width="1"/>
  <path d="M 232,141 L 232,143 L 233,144 L 233,141 Z" fill="none" stroke="black" stroke-width="1"/>
  <path d="M 232,124 L 232,126 L 233,127 L 233,128 L 232,129 L 233,129 L 234,128 L 235,128 L 234,128 L 233,127 L 233,126 L 234,125 L 235,125 L 236,124 L 235,124 L 234,125 L 233,125 Z" fill="none" stroke="black" stroke-width="1"/>
  <path d="M 238,121 L 237,122 L 238,123 Z" fill="none" stroke="black" stroke-width="1"/>
  <path d="M 229,106 L 226,109 L 225,109 L 225,112 L 222,115 L 221,114 L 219,114 L 219,115 L 215,119 L 215,125 L 216,126 L 216,127 L 215,128 L 215,129 L 214,130 L 214,131 L 213,132 L 213,134 L 212,135 L 212,138 L 211,139 L 212,140 L 212,141 L 214,143 L 213,144 L 213,145 L 214,145 L 215,146 L 215,147 L 216,147 L 217,148 L 217,149 L 220,149 L 219,148 L 219,147 L 220,146 L 221,146 L 222,147 L 222,149 L 224,149 L 226,147 L 225,146 L 224,146 L 223,145 L 223,144 L 226,141 L 227,141 L 227,140 L 228,139 L 230,139 L 230,136 L 231,135 L 231,134 L 230,135 L 228,135 L 227,136 L 226,136 L 224,134 L 224,133 L 225,132 L 226,133 L 229,133 L 229,132 L 230,131 L 230,130 L 229,129 L 229,126 L 228,125 L 228,123 L 229,122 L 229,121 L 230,120 L 233,120 L 234,121 L 234,122 L 234,121 L 235,120 L 236,120 L 236,119 L 237,118 L 239,118 L 240,117 L 240,116 L 241,115 L 242,115 L 239,112 L 240,111 L 241,111 L 242,112 L 243,112 L 243,110 L 242,109 L 239,109 L 238,110 L 234,110 L 232,108 L 232,107 L 231,106 Z" fill="none" stroke="black" stroke-width="1"/>
</svg>