<svg xmlns="http://www.w3.org/2000/svg" width="273" height="267">
  <path d="M 175,120 L 174,121 L 172,121 L 171,122 L 171,123 L 169,125 L 168,125 L 166,123 L 164,123 L 163,124 L 161,124 L 160,125 L 161,126 L 161,127 L 158,130 L 151,130 L 149,132 L 148,132 L 147,133 L 146,133 L 145,134 L 144,134 L 144,135 L 142,137 L 142,138 L 144,140 L 144,141 L 143,142 L 144,142 L 146,144 L 148,144 L 149,143 L 150,143 L 151,142 L 153,142 L 154,143 L 155,143 L 157,145 L 157,146 L 156,147 L 156,150 L 155,151 L 153,151 L 152,152 L 152,153 L 151,154 L 151,155 L 150,156 L 150,157 L 152,157 L 153,156 L 156,156 L 157,155 L 158,155 L 159,154 L 163,154 L 164,153 L 169,153 L 171,151 L 172,151 L 173,150 L 173,149 L 172,148 L 172,146 L 173,145 L 173,144 L 174,143 L 174,142 L 175,141 L 175,140 L 176,139 L 176,138 L 177,137 L 176,136 L 176,135 L 177,134 L 179,134 L 180,133 L 181,133 L 182,132 L 181,131 L 181,129 L 182,128 L 182,127 L 183,126 L 184,126 L 185,125 L 183,123 L 182,123 L 180,125 L 178,125 L 176,123 L 176,121 Z" fill="none" stroke="black" stroke-width="1"/>
</svg>