<svg xmlns="http://www.w3.org/2000/svg" width="273" height="267">
  <path d="M 139,64 L 138,65 L 136,65 L 132,69 L 132,70 L 129,73 L 128,72 L 128,71 L 127,71 L 127,72 L 126,73 L 127,73 L 129,75 L 129,76 L 128,77 L 129,78 L 129,80 L 128,81 L 128,83 L 127,84 L 127,85 L 126,86 L 125,85 L 121,85 L 120,86 L 119,86 L 118,85 L 118,84 L 117,85 L 115,85 L 114,86 L 111,86 L 110,87 L 108,87 L 107,88 L 102,88 L 101,89 L 98,89 L 97,90 L 96,90 L 96,91 L 94,93 L 93,93 L 95,95 L 95,97 L 96,98 L 97,97 L 98,97 L 100,95 L 101,95 L 106,100 L 105,101 L 106,102 L 106,103 L 105,104 L 106,105 L 107,105 L 113,111 L 114,110 L 114,109 L 116,107 L 120,107 L 121,108 L 122,107 L 124,107 L 125,108 L 128,108 L 131,111 L 130,112 L 131,113 L 130,114 L 132,114 L 133,115 L 134,114 L 135,114 L 136,113 L 137,113 L 138,112 L 139,112 L 140,111 L 140,110 L 139,110 L 137,108 L 137,105 L 139,103 L 139,102 L 142,99 L 143,99 L 144,98 L 144,97 L 148,93 L 148,91 L 147,90 L 147,89 L 146,88 L 146,87 L 147,86 L 146,85 L 146,83 L 143,80 L 143,79 L 146,76 L 147,76 L 147,72 L 145,70 L 145,68 L 144,67 L 144,66 L 143,65 L 143,64 Z" fill="none" stroke="black" stroke-width="1"/>
</svg>