<svg xmlns="http://www.w3.org/2000/svg" width="273" height="267">
  <path d="M 90,61 L 90,62 L 89,63 L 88,63 L 87,62 L 86,63 L 85,63 L 85,64 L 84,65 L 83,65 L 82,64 L 82,63 L 81,62 L 80,63 L 79,63 L 78,64 L 77,63 L 76,64 L 76,65 L 75,66 L 74,66 L 70,70 L 69,70 L 69,71 L 68,72 L 68,73 L 67,74 L 66,74 L 68,76 L 68,77 L 69,78 L 69,79 L 70,80 L 70,81 L 69,82 L 70,83 L 70,86 L 71,86 L 72,85 L 73,85 L 74,84 L 76,84 L 78,86 L 78,88 L 80,90 L 82,90 L 83,89 L 83,88 L 85,86 L 85,85 L 86,84 L 87,84 L 88,83 L 89,84 L 91,84 L 92,85 L 94,85 L 95,86 L 95,87 L 96,88 L 96,89 L 97,89 L 98,88 L 101,88 L 102,87 L 107,87 L 108,86 L 110,86 L 111,85 L 112,85 L 112,84 L 114,82 L 115,82 L 115,80 L 114,80 L 113,81 L 112,80 L 112,79 L 111,79 L 110,78 L 110,77 L 111,76 L 112,76 L 111,75 L 111,74 L 112,73 L 114,75 L 114,76 L 117,76 L 118,75 L 121,75 L 124,72 L 126,72 L 126,70 L 125,70 L 124,69 L 123,69 L 122,70 L 120,70 L 119,69 L 118,69 L 117,70 L 115,70 L 114,69 L 113,69 L 112,68 L 111,68 L 110,67 L 107,67 L 106,66 L 104,66 L 103,65 L 101,65 L 100,64 L 98,64 L 97,63 L 96,63 L 94,61 Z" fill="none" stroke="black" stroke-width="1"/>
</svg>