<svg xmlns="http://www.w3.org/2000/svg" width="190" height="226">
  <path d="M 149,114 L 149,116 L 150,117 L 147,120 L 143,120 L 142,119 L 142,118 L 142,119 L 141,120 L 142,121 L 141,122 L 141,123 L 142,124 L 142,125 L 144,127 L 144,130 L 145,131 L 145,132 L 144,133 L 143,133 L 143,135 L 142,136 L 142,138 L 143,139 L 143,141 L 142,142 L 142,145 L 143,146 L 142,147 L 145,150 L 145,152 L 146,153 L 146,154 L 147,155 L 148,155 L 149,156 L 150,155 L 151,155 L 152,156 L 152,157 L 153,157 L 154,156 L 156,156 L 158,154 L 158,152 L 160,150 L 161,150 L 163,152 L 164,152 L 168,148 L 171,148 L 173,146 L 175,146 L 177,144 L 177,143 L 178,142 L 179,142 L 179,141 L 178,140 L 178,134 L 176,132 L 176,130 L 175,129 L 176,128 L 177,128 L 177,127 L 178,126 L 177,125 L 177,123 L 176,123 L 175,122 L 174,122 L 171,119 L 172,118 L 168,118 L 167,119 L 165,119 L 163,117 L 163,116 L 162,115 L 160,115 L 159,116 L 158,116 L 157,117 L 156,117 L 155,116 L 153,116 L 152,115 L 151,115 L 150,114 Z" fill="none" stroke="black" stroke-width="1"/>
</svg>