<svg xmlns="http://www.w3.org/2000/svg" width="190" height="226">
  <path d="M 130,107 L 129,108 L 128,108 L 125,111 L 125,112 L 123,114 L 121,114 L 120,113 L 118,113 L 117,114 L 115,114 L 113,112 L 112,112 L 112,115 L 113,116 L 113,117 L 111,119 L 109,119 L 107,121 L 105,121 L 105,123 L 106,124 L 106,125 L 105,126 L 105,129 L 104,130 L 104,133 L 103,134 L 102,134 L 102,137 L 101,138 L 101,142 L 100,143 L 101,144 L 101,146 L 100,147 L 100,149 L 101,150 L 101,152 L 102,153 L 103,153 L 105,155 L 105,158 L 106,159 L 106,163 L 107,163 L 111,159 L 115,159 L 116,160 L 116,161 L 117,162 L 119,162 L 121,164 L 125,164 L 127,162 L 127,160 L 128,159 L 132,159 L 135,156 L 137,156 L 138,155 L 139,156 L 140,155 L 140,152 L 141,151 L 142,151 L 143,150 L 144,150 L 141,147 L 142,146 L 141,145 L 141,142 L 142,141 L 142,139 L 141,138 L 141,136 L 142,135 L 142,133 L 143,132 L 144,132 L 144,131 L 143,130 L 143,127 L 141,125 L 141,124 L 140,123 L 140,122 L 141,121 L 140,120 L 141,119 L 141,117 L 135,111 L 134,111 L 131,108 L 131,107 Z" fill="none" stroke="black" stroke-width="1"/>
</svg>