<svg xmlns="http://www.w3.org/2000/svg" width="190" height="226">
  <path d="M 97,101 L 97,104 L 96,105 L 96,106 L 95,107 L 93,107 L 91,109 L 92,110 L 92,112 L 91,113 L 91,114 L 90,115 L 90,116 L 89,117 L 89,118 L 86,121 L 86,122 L 84,124 L 83,124 L 82,123 L 80,123 L 79,122 L 79,120 L 78,121 L 77,121 L 76,122 L 75,122 L 75,123 L 74,124 L 74,125 L 75,126 L 75,127 L 76,128 L 76,132 L 73,135 L 73,137 L 74,137 L 77,140 L 77,141 L 78,141 L 79,142 L 82,142 L 85,139 L 85,137 L 90,132 L 91,133 L 92,133 L 93,132 L 95,132 L 96,131 L 99,131 L 101,133 L 103,133 L 103,130 L 104,129 L 104,126 L 105,125 L 105,124 L 104,123 L 104,121 L 105,120 L 107,120 L 109,118 L 111,118 L 112,117 L 112,116 L 111,115 L 111,114 L 110,113 L 110,112 L 109,111 L 109,108 L 104,103 L 104,102 L 100,102 L 99,101 Z" fill="none" stroke="black" stroke-width="1"/>
</svg>