<svg xmlns="http://www.w3.org/2000/svg" width="378" height="221">
  <path d="M 160,162 L 158,164 L 158,165 L 157,166 L 157,169 L 155,171 L 157,173 L 157,174 L 158,175 L 159,175 L 161,177 L 162,177 L 166,181 L 166,185 L 165,186 L 165,189 L 164,190 L 164,192 L 163,193 L 163,197 L 164,198 L 164,201 L 163,202 L 163,203 L 164,203 L 165,202 L 166,202 L 169,199 L 171,199 L 174,196 L 176,196 L 178,194 L 179,194 L 179,192 L 178,192 L 177,191 L 178,190 L 179,190 L 180,189 L 182,189 L 183,188 L 185,188 L 186,187 L 187,187 L 187,186 L 188,185 L 188,184 L 189,183 L 189,182 L 190,181 L 189,181 L 188,180 L 188,179 L 187,179 L 184,176 L 184,174 L 181,171 L 181,168 L 179,168 L 175,172 L 174,172 L 173,173 L 172,173 L 171,172 L 171,170 L 169,168 L 169,166 L 167,166 L 165,164 L 162,164 L 161,163 L 161,162 Z" fill="none" stroke="black" stroke-width="1"/>
</svg>