<svg xmlns="http://www.w3.org/2000/svg" width="378" height="221">
  <path d="M 221,150 L 218,153 L 216,153 L 214,155 L 214,156 L 213,157 L 208,157 L 207,156 L 207,155 L 206,154 L 206,153 L 205,154 L 201,154 L 199,152 L 199,151 L 198,151 L 195,154 L 194,154 L 193,155 L 194,156 L 194,158 L 192,160 L 190,160 L 190,161 L 188,163 L 187,163 L 186,164 L 185,164 L 182,167 L 182,171 L 185,174 L 185,176 L 187,178 L 188,178 L 189,179 L 189,180 L 191,180 L 191,179 L 195,175 L 197,175 L 199,177 L 200,177 L 201,176 L 203,178 L 205,178 L 206,179 L 208,179 L 209,178 L 210,179 L 219,179 L 220,180 L 223,177 L 224,177 L 225,176 L 226,176 L 228,174 L 228,172 L 229,171 L 229,169 L 233,165 L 234,165 L 235,164 L 235,163 L 236,162 L 236,158 L 234,156 L 234,155 L 231,152 L 230,152 L 229,151 L 226,151 L 225,150 Z" fill="none" stroke="black" stroke-width="1"/>
</svg>