<svg xmlns="http://www.w3.org/2000/svg" width="378" height="221">
  <path d="M 342,135 L 341,136 L 336,136 L 332,140 L 330,140 L 328,142 L 328,143 L 330,145 L 329,146 L 329,147 L 330,148 L 330,152 L 329,153 L 327,153 L 326,154 L 326,155 L 325,156 L 325,161 L 326,162 L 326,165 L 327,166 L 327,168 L 326,169 L 326,177 L 324,179 L 324,180 L 323,181 L 323,189 L 324,190 L 323,191 L 325,193 L 325,194 L 326,195 L 326,196 L 327,196 L 328,195 L 329,196 L 329,195 L 334,190 L 335,190 L 336,189 L 337,189 L 338,188 L 339,188 L 340,187 L 341,187 L 342,186 L 343,186 L 344,185 L 345,185 L 347,183 L 350,183 L 351,184 L 351,187 L 352,188 L 352,191 L 353,192 L 353,194 L 349,198 L 347,198 L 348,198 L 350,200 L 350,201 L 351,202 L 352,201 L 353,201 L 354,200 L 355,200 L 355,199 L 358,196 L 359,196 L 362,193 L 362,192 L 366,188 L 367,188 L 370,185 L 371,185 L 372,184 L 372,183 L 368,179 L 367,179 L 367,182 L 366,183 L 364,183 L 360,179 L 360,178 L 358,176 L 358,172 L 360,170 L 360,169 L 361,168 L 361,167 L 362,166 L 362,160 L 357,160 L 356,159 L 356,158 L 355,157 L 355,154 L 351,150 L 351,148 L 350,147 L 350,142 L 347,139 L 347,135 Z" fill="none" stroke="black" stroke-width="1"/>
</svg>