<svg xmlns="http://www.w3.org/2000/svg" width="190" height="226">
  <path d="M 98,40 L 98,41 L 96,43 L 93,43 L 92,44 L 91,44 L 90,45 L 89,45 L 88,46 L 90,48 L 90,51 L 89,52 L 87,52 L 86,53 L 84,53 L 83,52 L 82,53 L 79,53 L 78,54 L 76,54 L 75,55 L 76,56 L 76,59 L 80,59 L 81,58 L 82,58 L 83,57 L 84,57 L 86,59 L 86,60 L 90,64 L 91,64 L 93,66 L 93,67 L 94,68 L 94,73 L 93,74 L 93,76 L 95,76 L 96,75 L 99,75 L 99,74 L 100,73 L 102,73 L 107,78 L 108,78 L 109,79 L 110,79 L 110,78 L 111,77 L 114,77 L 116,79 L 116,78 L 117,77 L 118,77 L 119,76 L 120,76 L 121,77 L 122,77 L 123,76 L 123,73 L 124,72 L 124,71 L 126,69 L 126,68 L 125,67 L 125,66 L 124,65 L 124,64 L 123,64 L 120,61 L 120,59 L 119,58 L 119,57 L 118,56 L 117,57 L 116,56 L 115,56 L 114,55 L 114,54 L 110,50 L 110,47 L 112,45 L 111,44 L 111,43 L 110,43 L 109,42 L 108,42 L 107,43 L 106,42 L 105,42 L 104,43 L 102,43 L 99,40 Z" fill="none" stroke="black" stroke-width="1"/>
</svg>