<svg xmlns="http://www.w3.org/2000/svg" width="190" height="226">
  <path d="M 181,42 L 180,43 L 179,43 L 177,45 L 176,45 L 174,47 L 172,47 L 171,48 L 171,49 L 169,51 L 168,51 L 167,50 L 165,50 L 164,51 L 163,51 L 162,52 L 162,53 L 161,54 L 161,55 L 160,56 L 159,56 L 157,58 L 155,58 L 154,59 L 154,60 L 152,62 L 149,62 L 148,63 L 147,63 L 146,62 L 145,63 L 144,63 L 143,62 L 142,63 L 141,63 L 138,66 L 136,66 L 136,67 L 134,69 L 132,67 L 130,67 L 128,69 L 127,69 L 125,71 L 125,72 L 124,73 L 124,76 L 122,78 L 121,78 L 120,77 L 119,77 L 118,78 L 117,78 L 117,79 L 114,82 L 114,83 L 117,86 L 120,86 L 121,87 L 121,88 L 122,88 L 124,90 L 125,90 L 126,89 L 129,89 L 129,88 L 130,87 L 131,87 L 132,86 L 133,86 L 135,88 L 136,88 L 138,90 L 139,90 L 140,91 L 141,91 L 142,92 L 143,92 L 144,93 L 145,92 L 145,91 L 149,87 L 151,87 L 153,89 L 156,89 L 158,87 L 159,87 L 160,88 L 160,89 L 161,90 L 161,91 L 162,92 L 162,93 L 163,94 L 163,95 L 164,96 L 164,97 L 166,99 L 166,102 L 167,101 L 169,101 L 172,98 L 173,98 L 172,97 L 173,96 L 172,95 L 174,93 L 174,91 L 173,90 L 174,89 L 174,88 L 173,87 L 173,86 L 172,85 L 172,84 L 166,78 L 165,78 L 162,75 L 162,74 L 164,72 L 164,71 L 163,70 L 163,69 L 164,68 L 164,67 L 165,66 L 165,65 L 166,64 L 167,64 L 170,61 L 178,61 L 182,57 L 184,57 L 185,56 L 189,56 L 188,55 L 188,50 L 189,49 L 185,45 L 184,45 L 182,43 L 182,42 Z" fill="none" stroke="black" stroke-width="1"/>
</svg>