<svg xmlns="http://www.w3.org/2000/svg" width="273" height="267">
  <path d="M 88,37 L 87,38 L 86,38 L 84,40 L 85,41 L 84,42 L 84,47 L 85,48 L 84,49 L 80,49 L 79,50 L 77,50 L 73,54 L 65,54 L 62,57 L 61,57 L 61,58 L 60,59 L 60,60 L 59,61 L 59,62 L 60,63 L 60,64 L 58,66 L 58,67 L 60,69 L 61,69 L 65,73 L 67,73 L 67,72 L 68,71 L 68,70 L 69,69 L 70,69 L 74,65 L 75,65 L 75,64 L 77,62 L 78,63 L 79,62 L 80,62 L 81,61 L 83,63 L 83,64 L 84,64 L 84,63 L 85,62 L 86,62 L 87,61 L 88,62 L 89,62 L 89,61 L 90,60 L 94,60 L 95,61 L 96,60 L 95,59 L 95,57 L 98,54 L 98,53 L 101,50 L 104,50 L 104,48 L 103,47 L 103,46 L 101,44 L 101,43 L 99,41 L 99,38 L 98,38 L 97,37 L 93,37 L 92,38 L 91,38 L 90,37 Z" fill="none" stroke="black" stroke-width="1"/>
</svg>