<svg xmlns="http://www.w3.org/2000/svg" width="273" height="267">
  <path d="M 130,22 L 130,23 L 129,24 L 129,27 L 128,28 L 128,29 L 124,33 L 124,34 L 125,34 L 127,36 L 128,36 L 129,37 L 130,37 L 135,42 L 134,43 L 133,43 L 133,46 L 132,47 L 132,49 L 136,53 L 136,54 L 138,54 L 140,56 L 140,57 L 141,58 L 141,63 L 143,63 L 144,64 L 144,65 L 145,66 L 145,67 L 146,68 L 146,70 L 148,72 L 148,74 L 151,74 L 152,73 L 154,73 L 155,74 L 156,73 L 156,72 L 159,69 L 162,69 L 163,68 L 164,68 L 166,66 L 163,63 L 163,61 L 162,60 L 162,57 L 160,55 L 159,55 L 155,51 L 153,51 L 152,50 L 152,49 L 150,47 L 150,41 L 148,39 L 148,38 L 149,37 L 148,36 L 148,31 L 145,31 L 144,30 L 143,30 L 141,28 L 141,26 L 139,24 L 139,22 L 136,22 L 135,23 L 133,23 L 132,22 Z" fill="none" stroke="black" stroke-width="1"/>
</svg>