<svg xmlns="http://www.w3.org/2000/svg" width="273" height="267">
  <path d="M 171,64 L 170,65 L 169,65 L 168,66 L 167,66 L 164,69 L 163,69 L 162,70 L 159,70 L 157,72 L 157,73 L 155,75 L 154,74 L 152,74 L 151,75 L 148,75 L 148,76 L 147,77 L 146,77 L 144,79 L 144,80 L 147,83 L 147,85 L 148,86 L 147,87 L 147,88 L 148,89 L 148,90 L 149,91 L 149,93 L 145,97 L 145,98 L 143,100 L 142,100 L 140,102 L 140,103 L 138,105 L 138,108 L 139,109 L 141,109 L 142,108 L 144,108 L 145,107 L 148,107 L 149,106 L 150,106 L 151,105 L 152,106 L 153,105 L 154,106 L 155,105 L 159,105 L 160,106 L 161,105 L 162,106 L 164,106 L 165,107 L 168,104 L 169,104 L 169,103 L 172,100 L 172,99 L 174,97 L 174,96 L 179,91 L 182,91 L 181,90 L 181,89 L 180,88 L 180,86 L 178,84 L 178,83 L 176,81 L 176,77 L 175,78 L 174,77 L 174,73 L 175,72 L 175,70 L 177,68 L 179,70 L 178,71 L 178,73 L 177,74 L 178,75 L 178,76 L 179,76 L 179,75 L 180,74 L 180,73 L 182,71 L 182,70 L 185,67 L 183,65 L 182,65 L 181,66 L 180,66 L 179,67 L 177,67 L 175,65 L 174,65 L 173,64 Z" fill="none" stroke="black" stroke-width="1"/>
</svg>