<svg xmlns="http://www.w3.org/2000/svg" width="273" height="267">
  <path d="M 233,42 L 233,44 L 232,45 L 232,48 L 228,52 L 227,52 L 227,54 L 226,55 L 226,56 L 225,57 L 225,58 L 224,59 L 224,60 L 223,61 L 223,62 L 222,63 L 221,63 L 221,64 L 219,66 L 219,68 L 218,69 L 217,69 L 214,72 L 213,72 L 212,73 L 216,77 L 217,77 L 218,78 L 219,77 L 225,77 L 226,76 L 227,76 L 228,75 L 228,73 L 229,72 L 229,71 L 230,70 L 230,68 L 231,67 L 231,65 L 234,62 L 235,62 L 237,60 L 239,60 L 242,57 L 248,57 L 249,58 L 250,58 L 251,57 L 251,55 L 252,54 L 253,54 L 254,53 L 254,52 L 250,48 L 248,48 L 246,50 L 245,50 L 242,47 L 242,46 L 241,46 L 240,45 L 237,45 L 236,44 L 235,44 Z" fill="none" stroke="black" stroke-width="1"/>
</svg>