<svg xmlns="http://www.w3.org/2000/svg" width="273" height="267">
  <path d="M 230,0 L 226,4 L 225,4 L 224,3 L 223,3 L 222,4 L 223,5 L 221,7 L 218,7 L 218,8 L 219,8 L 221,10 L 221,11 L 222,11 L 223,12 L 223,13 L 224,14 L 224,15 L 223,16 L 223,17 L 222,18 L 222,20 L 223,21 L 223,22 L 224,22 L 225,23 L 225,24 L 226,23 L 227,23 L 228,22 L 230,22 L 231,23 L 235,23 L 238,26 L 241,26 L 242,27 L 248,27 L 249,28 L 250,28 L 251,29 L 251,30 L 252,31 L 260,31 L 263,34 L 266,34 L 266,33 L 265,32 L 265,30 L 264,29 L 263,29 L 261,27 L 258,27 L 256,25 L 256,24 L 257,23 L 258,23 L 258,22 L 257,21 L 256,21 L 255,20 L 253,20 L 252,19 L 251,19 L 249,17 L 249,16 L 250,15 L 250,13 L 249,12 L 249,11 L 247,9 L 247,8 L 245,6 L 245,4 L 244,3 L 244,4 L 241,7 L 238,7 L 237,6 L 235,6 L 232,3 L 233,2 L 232,1 L 231,1 Z" fill="none" stroke="black" stroke-width="1"/>
</svg>