<svg xmlns="http://www.w3.org/2000/svg" width="273" height="267">
  <path d="M 191,41 L 190,42 L 189,42 L 188,43 L 186,43 L 185,44 L 182,44 L 181,45 L 180,44 L 179,44 L 178,45 L 177,44 L 176,44 L 175,45 L 173,45 L 171,47 L 169,47 L 167,49 L 170,52 L 171,52 L 174,55 L 174,57 L 175,58 L 175,61 L 177,63 L 176,64 L 176,65 L 177,66 L 179,66 L 180,65 L 181,65 L 182,64 L 183,64 L 186,67 L 184,69 L 186,71 L 189,71 L 190,70 L 190,69 L 192,67 L 192,66 L 194,64 L 194,63 L 196,61 L 197,61 L 199,59 L 202,59 L 204,57 L 204,56 L 205,55 L 205,54 L 207,52 L 207,48 L 206,48 L 203,45 L 201,45 L 200,46 L 195,46 L 191,42 Z" fill="none" stroke="black" stroke-width="1"/>
</svg>