<svg xmlns="http://www.w3.org/2000/svg" width="474" height="213">
  <path d="M 301,161 L 300,162 L 297,162 L 294,165 L 294,170 L 298,174 L 298,177 L 301,177 L 302,178 L 302,179 L 303,180 L 303,181 L 305,181 L 306,182 L 307,182 L 308,183 L 310,183 L 312,185 L 315,185 L 316,186 L 320,186 L 321,185 L 323,185 L 324,184 L 326,184 L 328,186 L 329,186 L 330,187 L 332,187 L 333,186 L 337,186 L 336,185 L 337,184 L 336,183 L 337,182 L 337,180 L 335,178 L 335,177 L 336,176 L 338,176 L 338,174 L 336,172 L 336,170 L 335,169 L 335,168 L 336,167 L 336,166 L 337,165 L 338,165 L 339,164 L 338,164 L 336,162 L 334,162 L 333,161 L 332,161 L 328,165 L 327,164 L 327,163 L 326,164 L 325,164 L 324,165 L 323,164 L 321,164 L 320,165 L 319,165 L 318,164 L 316,164 L 315,163 L 312,163 L 311,164 L 310,163 L 308,163 L 307,164 L 304,161 L 303,162 L 302,161 Z" fill="none" stroke="black" stroke-width="1"/>
</svg>