<svg xmlns="http://www.w3.org/2000/svg" width="474" height="213">
  <path d="M 344,136 L 342,138 L 341,138 L 340,139 L 339,139 L 338,140 L 337,140 L 336,139 L 333,139 L 332,140 L 331,140 L 328,143 L 328,145 L 330,147 L 330,152 L 329,153 L 329,154 L 332,157 L 332,160 L 333,160 L 334,161 L 336,161 L 338,163 L 339,163 L 340,164 L 341,164 L 342,165 L 343,165 L 344,164 L 343,163 L 343,161 L 344,160 L 345,160 L 345,157 L 344,156 L 344,153 L 348,149 L 349,150 L 350,150 L 351,151 L 352,151 L 353,150 L 353,148 L 354,147 L 354,146 L 356,144 L 359,144 L 360,145 L 361,145 L 362,144 L 362,143 L 360,141 L 359,141 L 358,140 L 358,139 L 355,139 L 354,138 L 352,138 L 350,136 Z" fill="none" stroke="black" stroke-width="1"/>
</svg>