<svg xmlns="http://www.w3.org/2000/svg" width="474" height="213">
  <path d="M 226,154 L 224,156 L 225,157 L 225,159 L 224,160 L 224,161 L 222,163 L 221,163 L 220,164 L 219,163 L 215,163 L 213,165 L 212,165 L 212,166 L 215,169 L 215,172 L 212,175 L 212,176 L 213,177 L 215,177 L 216,178 L 217,178 L 218,179 L 219,179 L 220,180 L 222,180 L 223,179 L 231,179 L 236,184 L 238,184 L 240,186 L 241,185 L 242,185 L 246,189 L 247,189 L 249,187 L 252,187 L 253,186 L 254,186 L 255,187 L 255,188 L 256,189 L 257,189 L 259,187 L 260,187 L 261,188 L 262,187 L 263,187 L 264,186 L 265,186 L 266,187 L 266,188 L 267,189 L 267,190 L 268,191 L 271,191 L 271,190 L 270,189 L 270,187 L 271,186 L 271,184 L 273,182 L 276,182 L 277,181 L 278,181 L 279,180 L 278,179 L 278,178 L 276,178 L 274,176 L 274,174 L 273,173 L 273,172 L 271,172 L 270,173 L 263,173 L 263,174 L 262,175 L 261,175 L 257,171 L 256,171 L 255,172 L 252,172 L 250,170 L 248,170 L 247,169 L 247,168 L 246,167 L 246,166 L 247,165 L 247,163 L 245,163 L 244,164 L 240,164 L 238,162 L 237,163 L 236,163 L 232,159 L 231,159 Z" fill="none" stroke="black" stroke-width="1"/>
</svg>