<svg xmlns="http://www.w3.org/2000/svg" width="474" height="213">
  <path d="M 416,98 L 415,99 L 415,101 L 413,103 L 413,105 L 412,106 L 411,106 L 411,107 L 408,110 L 407,110 L 404,113 L 404,114 L 403,115 L 403,122 L 399,126 L 398,126 L 401,129 L 402,129 L 403,130 L 404,130 L 405,129 L 406,129 L 407,130 L 407,131 L 409,133 L 410,133 L 411,134 L 411,135 L 412,136 L 413,136 L 415,138 L 415,139 L 416,139 L 418,137 L 420,137 L 421,136 L 422,137 L 423,137 L 423,136 L 426,133 L 426,132 L 427,131 L 427,130 L 430,127 L 432,127 L 431,127 L 430,126 L 430,124 L 427,121 L 428,120 L 427,119 L 426,119 L 425,118 L 425,117 L 426,116 L 427,116 L 426,115 L 427,114 L 428,114 L 427,113 L 425,113 L 424,112 L 423,112 L 420,109 L 421,108 L 421,107 L 423,105 L 422,104 L 424,102 L 421,102 L 420,101 L 419,101 L 418,100 L 418,99 L 417,98 Z" fill="none" stroke="black" stroke-width="1"/>
</svg>