<svg xmlns="http://www.w3.org/2000/svg" width="474" height="213">
  <path d="M 387,92 L 386,93 L 382,93 L 381,94 L 377,94 L 376,95 L 374,95 L 373,96 L 372,96 L 371,97 L 370,97 L 369,98 L 368,98 L 368,101 L 367,102 L 367,104 L 368,104 L 370,106 L 370,107 L 371,107 L 373,109 L 373,110 L 376,113 L 377,113 L 378,114 L 378,115 L 380,117 L 380,118 L 378,120 L 380,122 L 387,122 L 388,123 L 390,123 L 391,124 L 392,124 L 393,125 L 393,126 L 394,126 L 395,125 L 396,125 L 397,126 L 398,125 L 399,125 L 402,122 L 402,115 L 403,114 L 403,113 L 406,110 L 402,106 L 401,107 L 400,106 L 400,105 L 399,104 L 398,105 L 396,105 L 395,104 L 395,103 L 396,102 L 393,99 L 391,101 L 388,101 L 387,100 L 387,98 L 386,97 L 387,96 L 387,95 L 388,94 L 388,93 Z" fill="none" stroke="black" stroke-width="1"/>
</svg>