<svg xmlns="http://www.w3.org/2000/svg" width="474" height="213">
  <path d="M 339,105 L 339,106 L 336,109 L 335,109 L 334,110 L 333,110 L 335,112 L 335,113 L 337,115 L 337,116 L 336,117 L 336,118 L 335,119 L 335,120 L 334,121 L 334,123 L 333,124 L 333,127 L 331,129 L 330,129 L 329,130 L 328,130 L 327,131 L 324,131 L 323,132 L 323,133 L 325,135 L 326,134 L 327,135 L 328,135 L 331,138 L 330,139 L 330,140 L 331,139 L 332,139 L 333,138 L 336,138 L 337,139 L 338,139 L 339,138 L 340,138 L 341,137 L 342,137 L 344,135 L 349,135 L 349,134 L 348,133 L 348,132 L 347,131 L 347,130 L 352,125 L 352,124 L 353,123 L 353,117 L 352,116 L 352,115 L 351,114 L 350,114 L 348,112 L 347,112 L 346,111 L 346,109 L 344,107 L 342,107 L 341,106 L 340,106 Z" fill="none" stroke="black" stroke-width="1"/>
</svg>