<svg xmlns="http://www.w3.org/2000/svg" width="474" height="213">
  <path d="M 289,81 L 289,82 L 287,84 L 287,86 L 288,87 L 288,88 L 289,89 L 289,90 L 290,91 L 290,93 L 291,94 L 291,100 L 290,101 L 290,102 L 287,105 L 287,106 L 286,107 L 286,109 L 287,110 L 288,110 L 289,111 L 289,113 L 292,113 L 293,114 L 294,114 L 299,109 L 301,109 L 303,111 L 304,111 L 305,110 L 307,110 L 307,109 L 308,108 L 308,106 L 312,102 L 315,102 L 324,93 L 322,91 L 322,89 L 320,87 L 320,86 L 319,85 L 319,83 L 318,82 L 317,83 L 316,83 L 315,82 L 314,82 L 311,85 L 310,85 L 310,87 L 309,88 L 308,88 L 307,89 L 304,89 L 303,88 L 301,88 L 299,86 L 299,85 L 298,84 L 297,84 L 296,83 L 291,83 Z" fill="none" stroke="black" stroke-width="1"/>
</svg>