<svg xmlns="http://www.w3.org/2000/svg" width="474" height="213">
  <path d="M 308,109 L 308,110 L 307,111 L 305,111 L 304,112 L 303,112 L 301,110 L 299,110 L 294,115 L 293,115 L 292,114 L 289,114 L 288,113 L 288,111 L 287,111 L 286,110 L 285,111 L 285,115 L 284,116 L 284,117 L 285,118 L 285,120 L 286,121 L 286,122 L 287,123 L 287,125 L 288,126 L 288,128 L 286,130 L 286,131 L 285,132 L 285,135 L 284,136 L 284,137 L 285,138 L 285,143 L 284,144 L 284,146 L 285,147 L 285,148 L 288,148 L 289,147 L 290,147 L 291,146 L 294,146 L 295,145 L 296,145 L 298,143 L 300,143 L 301,142 L 302,142 L 305,139 L 306,139 L 308,137 L 309,137 L 310,136 L 311,136 L 312,135 L 313,135 L 312,135 L 311,134 L 309,134 L 308,133 L 308,132 L 309,131 L 309,129 L 308,128 L 308,125 L 310,123 L 311,123 L 312,122 L 314,122 L 315,121 L 316,121 L 316,120 L 315,119 L 315,117 L 313,115 L 312,115 L 309,112 L 309,109 Z" fill="none" stroke="black" stroke-width="1"/>
</svg>