<svg xmlns="http://www.w3.org/2000/svg" width="474" height="213">
  <path d="M 390,62 L 389,63 L 388,63 L 387,64 L 386,64 L 385,65 L 384,65 L 383,66 L 383,67 L 382,68 L 380,68 L 379,69 L 378,68 L 375,68 L 374,69 L 374,70 L 373,71 L 373,72 L 372,73 L 372,74 L 371,75 L 370,75 L 368,77 L 368,78 L 369,78 L 370,79 L 371,79 L 372,80 L 372,82 L 374,84 L 374,88 L 372,90 L 372,91 L 371,92 L 371,93 L 369,95 L 369,96 L 368,97 L 369,97 L 370,96 L 371,96 L 372,95 L 373,95 L 374,94 L 376,94 L 377,93 L 381,93 L 382,92 L 386,92 L 387,91 L 387,89 L 389,87 L 390,87 L 392,89 L 395,89 L 396,88 L 396,83 L 395,82 L 397,80 L 398,80 L 398,78 L 396,76 L 396,74 L 395,73 L 395,69 L 397,67 L 398,67 L 398,65 L 399,64 L 397,62 L 395,62 L 394,63 L 393,63 L 392,62 Z" fill="none" stroke="black" stroke-width="1"/>
</svg>