<svg xmlns="http://www.w3.org/2000/svg" width="474" height="213">
  <path d="M 358,48 L 358,49 L 356,51 L 356,52 L 355,53 L 355,54 L 354,55 L 354,59 L 353,60 L 353,61 L 351,63 L 348,63 L 347,64 L 347,65 L 348,65 L 353,70 L 353,71 L 352,72 L 353,72 L 354,73 L 356,73 L 357,74 L 358,74 L 359,75 L 359,76 L 360,77 L 360,78 L 361,79 L 361,80 L 365,80 L 366,79 L 367,79 L 367,77 L 370,74 L 371,74 L 371,73 L 372,72 L 372,71 L 373,70 L 373,69 L 375,67 L 375,62 L 371,58 L 371,57 L 370,56 L 368,56 L 366,54 L 364,54 L 363,53 L 363,52 L 359,48 Z" fill="none" stroke="black" stroke-width="1"/>
</svg>