<svg xmlns="http://www.w3.org/2000/svg" width="474" height="213">
  <path d="M 338,30 L 337,31 L 337,32 L 336,33 L 334,33 L 332,35 L 327,35 L 327,37 L 326,38 L 326,39 L 322,43 L 318,43 L 316,45 L 315,45 L 310,50 L 310,51 L 309,52 L 309,53 L 305,57 L 306,57 L 307,58 L 307,59 L 310,62 L 311,62 L 317,68 L 318,68 L 320,66 L 322,66 L 323,65 L 325,65 L 326,64 L 328,64 L 329,63 L 332,63 L 333,62 L 334,62 L 335,61 L 336,61 L 338,63 L 339,63 L 340,64 L 341,64 L 343,66 L 345,66 L 345,65 L 348,62 L 351,62 L 352,61 L 352,60 L 353,59 L 353,55 L 354,54 L 354,53 L 355,52 L 355,51 L 357,49 L 356,49 L 354,47 L 354,46 L 355,45 L 355,44 L 356,43 L 356,42 L 355,41 L 355,40 L 351,40 L 350,41 L 350,42 L 349,43 L 348,43 L 345,46 L 344,46 L 343,45 L 343,42 L 342,41 L 342,40 L 343,39 L 343,37 L 341,35 L 341,34 L 339,32 L 339,31 Z" fill="none" stroke="black" stroke-width="1"/>
</svg>