<svg xmlns="http://www.w3.org/2000/svg" width="474" height="213">
  <path d="M 226,62 L 225,63 L 222,63 L 219,66 L 218,66 L 217,67 L 216,67 L 214,69 L 213,69 L 212,70 L 212,74 L 210,76 L 210,78 L 207,81 L 207,85 L 206,86 L 205,86 L 205,87 L 206,87 L 208,89 L 208,90 L 205,93 L 201,93 L 200,94 L 198,94 L 197,95 L 196,95 L 195,96 L 195,99 L 196,100 L 197,100 L 198,101 L 199,101 L 202,104 L 203,104 L 204,105 L 203,106 L 203,108 L 205,106 L 207,106 L 208,105 L 212,105 L 213,104 L 214,104 L 215,103 L 216,103 L 217,102 L 220,102 L 221,101 L 222,101 L 223,100 L 224,100 L 225,99 L 226,100 L 227,99 L 233,99 L 233,98 L 234,97 L 234,95 L 236,93 L 236,92 L 235,91 L 236,90 L 235,89 L 235,88 L 233,86 L 232,86 L 230,84 L 229,84 L 228,83 L 226,83 L 225,82 L 224,82 L 222,80 L 222,78 L 223,77 L 223,74 L 224,73 L 224,72 L 225,71 L 225,70 L 228,67 L 229,67 L 229,62 L 228,63 L 227,62 Z" fill="none" stroke="black" stroke-width="1"/>
</svg>