<svg xmlns="http://www.w3.org/2000/svg" width="474" height="213">
  <path d="M 180,94 L 180,96 L 179,97 L 179,98 L 178,99 L 178,101 L 177,102 L 177,105 L 178,106 L 178,108 L 179,109 L 179,116 L 177,118 L 174,118 L 173,119 L 171,119 L 170,118 L 168,118 L 168,119 L 169,120 L 169,121 L 168,122 L 168,123 L 166,125 L 166,128 L 162,132 L 165,135 L 167,135 L 168,134 L 170,134 L 173,137 L 174,136 L 176,136 L 178,138 L 180,138 L 183,141 L 185,141 L 186,142 L 187,142 L 188,143 L 189,143 L 190,144 L 190,146 L 191,146 L 193,148 L 196,148 L 198,150 L 199,150 L 199,148 L 201,146 L 202,146 L 203,145 L 203,144 L 204,143 L 204,142 L 206,140 L 205,140 L 204,139 L 204,136 L 206,134 L 208,134 L 208,132 L 207,131 L 207,125 L 205,123 L 205,122 L 204,121 L 204,119 L 207,116 L 207,115 L 204,112 L 204,111 L 202,109 L 202,106 L 203,105 L 202,105 L 199,102 L 198,102 L 197,101 L 196,101 L 194,99 L 194,96 L 193,97 L 187,97 L 186,98 L 185,98 L 184,97 L 183,97 Z" fill="none" stroke="black" stroke-width="1"/>
</svg>