<svg xmlns="http://www.w3.org/2000/svg" width="474" height="213">
  <path d="M 263,133 L 260,136 L 258,134 L 257,134 L 256,135 L 255,134 L 254,134 L 253,135 L 252,135 L 251,134 L 247,134 L 246,135 L 245,134 L 244,134 L 243,135 L 244,136 L 243,137 L 243,139 L 245,141 L 246,141 L 249,138 L 250,138 L 255,143 L 255,144 L 254,145 L 254,151 L 253,152 L 253,153 L 252,154 L 247,154 L 247,155 L 246,156 L 246,157 L 245,158 L 244,158 L 243,157 L 239,161 L 239,162 L 240,163 L 244,163 L 245,162 L 247,162 L 248,163 L 248,165 L 247,166 L 247,167 L 248,168 L 248,169 L 250,169 L 252,171 L 255,171 L 256,170 L 257,170 L 261,174 L 262,174 L 262,173 L 263,172 L 270,172 L 271,171 L 275,171 L 276,170 L 278,170 L 279,171 L 280,171 L 281,172 L 282,172 L 283,171 L 292,171 L 293,170 L 293,164 L 286,157 L 286,154 L 285,153 L 285,152 L 286,151 L 286,150 L 284,148 L 284,147 L 282,145 L 280,145 L 279,146 L 273,146 L 272,145 L 272,144 L 271,144 L 270,143 L 269,143 L 268,142 L 268,138 L 266,136 L 266,134 L 265,133 Z" fill="none" stroke="black" stroke-width="1"/>
</svg>