<svg xmlns="http://www.w3.org/2000/svg" width="1028" height="413">
  <path d="M 608,243 L 607,244 L 607,245 L 606,246 L 605,246 L 604,247 L 592,247 L 591,248 L 590,248 L 589,249 L 588,249 L 587,250 L 585,250 L 586,251 L 584,253 L 581,253 L 583,255 L 583,257 L 581,259 L 581,260 L 578,263 L 574,263 L 574,264 L 575,265 L 575,266 L 576,267 L 576,269 L 577,270 L 577,272 L 578,273 L 578,274 L 579,274 L 580,275 L 582,275 L 584,273 L 588,273 L 589,274 L 590,274 L 592,276 L 592,277 L 594,277 L 596,279 L 596,280 L 597,280 L 598,281 L 599,281 L 600,280 L 602,280 L 606,276 L 607,276 L 608,277 L 609,277 L 611,275 L 612,275 L 613,274 L 615,276 L 617,274 L 618,274 L 619,273 L 619,272 L 620,271 L 620,269 L 621,268 L 622,268 L 624,266 L 625,266 L 625,265 L 627,263 L 628,263 L 625,260 L 625,259 L 624,258 L 624,257 L 623,257 L 620,254 L 619,254 L 617,252 L 617,249 L 616,249 L 615,248 L 615,246 L 614,245 L 612,245 L 611,244 L 611,243 Z" fill="none" stroke="black" stroke-width="1"/>
</svg>