<svg xmlns="http://www.w3.org/2000/svg" width="749" height="389">
  <path d="M 487,324 L 485,326 L 483,326 L 482,325 L 482,327 L 483,328 L 483,329 L 484,330 L 484,331 L 485,332 L 484,333 L 484,335 L 485,335 L 486,336 L 486,337 L 485,338 L 485,341 L 486,342 L 486,343 L 485,344 L 484,344 L 483,345 L 482,345 L 481,346 L 479,346 L 478,347 L 477,347 L 476,348 L 475,348 L 474,349 L 473,349 L 472,350 L 470,350 L 469,351 L 469,352 L 470,353 L 469,354 L 468,354 L 468,355 L 465,358 L 465,359 L 464,360 L 464,361 L 463,362 L 463,373 L 464,374 L 464,378 L 466,380 L 466,381 L 467,382 L 467,383 L 466,384 L 467,385 L 467,386 L 468,387 L 471,387 L 472,388 L 473,388 L 474,387 L 474,386 L 475,385 L 475,384 L 479,380 L 480,380 L 481,379 L 481,378 L 483,376 L 483,375 L 488,370 L 488,369 L 489,368 L 489,367 L 490,366 L 491,366 L 492,365 L 493,365 L 494,364 L 495,364 L 499,360 L 500,360 L 500,358 L 502,356 L 503,356 L 504,355 L 507,355 L 508,354 L 509,354 L 511,352 L 514,352 L 514,351 L 515,350 L 516,350 L 515,349 L 516,348 L 516,342 L 514,340 L 515,339 L 515,335 L 514,334 L 514,333 L 513,332 L 513,331 L 512,330 L 508,330 L 507,329 L 506,329 L 505,328 L 504,328 L 503,327 L 502,327 L 501,326 L 499,326 L 498,325 L 495,325 L 494,326 L 491,326 L 489,324 Z" fill="none" stroke="black" stroke-width="1"/>
</svg>