<svg xmlns="http://www.w3.org/2000/svg" width="749" height="389">
  <path d="M 539,304 L 537,306 L 530,306 L 529,307 L 528,307 L 527,308 L 526,308 L 525,309 L 524,309 L 521,312 L 521,314 L 520,315 L 514,315 L 512,317 L 511,317 L 510,318 L 505,318 L 502,315 L 501,316 L 494,316 L 493,317 L 492,317 L 491,316 L 490,316 L 489,315 L 486,315 L 485,316 L 483,316 L 482,317 L 480,317 L 479,316 L 478,316 L 478,319 L 476,321 L 476,322 L 477,323 L 479,323 L 480,324 L 482,324 L 483,325 L 485,325 L 487,323 L 489,323 L 491,325 L 494,325 L 495,324 L 498,324 L 499,325 L 501,325 L 502,326 L 503,326 L 504,327 L 505,327 L 506,328 L 507,328 L 508,329 L 512,329 L 514,331 L 514,332 L 515,333 L 515,334 L 516,335 L 516,339 L 515,340 L 517,342 L 517,348 L 516,349 L 518,349 L 519,348 L 520,348 L 520,347 L 521,346 L 520,345 L 524,341 L 524,340 L 525,339 L 525,338 L 531,332 L 532,332 L 534,330 L 538,330 L 541,327 L 541,326 L 542,325 L 542,323 L 543,322 L 548,322 L 550,320 L 552,320 L 552,319 L 551,318 L 550,318 L 548,316 L 548,313 L 545,310 L 545,309 L 544,308 L 544,307 L 541,304 Z" fill="none" stroke="black" stroke-width="1"/>
</svg>