<svg xmlns="http://www.w3.org/2000/svg" width="474" height="213">
  <path d="M 398,0 L 397,1 L 395,1 L 393,3 L 388,3 L 387,4 L 387,6 L 386,7 L 386,8 L 387,9 L 387,11 L 384,14 L 381,14 L 376,9 L 376,8 L 374,6 L 371,6 L 369,8 L 368,8 L 367,9 L 367,14 L 368,15 L 368,16 L 369,17 L 369,18 L 370,19 L 370,20 L 373,23 L 373,25 L 374,26 L 375,26 L 377,28 L 379,28 L 380,29 L 382,29 L 384,27 L 384,26 L 386,24 L 388,24 L 389,25 L 390,25 L 391,26 L 393,26 L 396,29 L 396,32 L 397,33 L 397,34 L 398,34 L 399,35 L 401,35 L 402,34 L 402,33 L 403,32 L 405,32 L 406,31 L 408,31 L 409,30 L 411,30 L 412,29 L 415,29 L 416,30 L 416,32 L 419,35 L 426,35 L 427,36 L 428,35 L 428,34 L 429,33 L 430,33 L 432,31 L 432,28 L 435,25 L 435,23 L 434,22 L 434,18 L 433,18 L 432,17 L 432,16 L 429,13 L 429,12 L 428,11 L 427,11 L 426,10 L 425,10 L 423,8 L 423,7 L 422,6 L 422,5 L 421,6 L 420,6 L 418,8 L 415,8 L 414,9 L 413,9 L 412,10 L 411,10 L 409,12 L 407,12 L 406,11 L 405,11 L 401,7 L 401,4 L 399,2 L 399,1 Z" fill="none" stroke="black" stroke-width="1"/>
</svg>