<svg xmlns="http://www.w3.org/2000/svg" width="402" height="344">
  <path d="M 24,293 L 23,294 L 21,294 L 19,296 L 17,296 L 15,298 L 15,301 L 12,304 L 11,304 L 11,305 L 10,306 L 10,308 L 11,309 L 11,311 L 10,312 L 10,316 L 8,318 L 7,318 L 7,320 L 6,321 L 6,322 L 7,322 L 9,320 L 11,320 L 12,319 L 14,319 L 15,318 L 16,318 L 17,317 L 18,317 L 19,316 L 21,316 L 22,315 L 23,315 L 23,312 L 29,306 L 31,306 L 30,305 L 30,304 L 31,303 L 32,303 L 33,302 L 36,302 L 36,299 L 34,297 L 34,295 L 30,295 L 29,294 L 25,294 Z" fill="none" stroke="black" stroke-width="1"/>
</svg>