<svg xmlns="http://www.w3.org/2000/svg" width="378" height="221">
  <path d="M 253,64 L 251,66 L 251,67 L 250,68 L 250,69 L 251,70 L 251,71 L 252,72 L 252,73 L 251,74 L 251,75 L 243,83 L 242,83 L 242,84 L 239,87 L 238,87 L 237,88 L 232,88 L 231,89 L 230,89 L 228,91 L 227,91 L 226,92 L 221,92 L 220,93 L 220,94 L 221,95 L 221,97 L 220,98 L 219,98 L 217,100 L 217,101 L 218,102 L 215,105 L 209,105 L 209,107 L 206,110 L 206,111 L 207,111 L 208,112 L 209,112 L 210,113 L 212,113 L 215,116 L 222,116 L 223,115 L 224,115 L 225,116 L 230,116 L 231,117 L 232,117 L 233,118 L 239,118 L 240,117 L 243,117 L 244,118 L 245,118 L 246,119 L 248,119 L 250,117 L 252,117 L 254,119 L 254,120 L 255,120 L 257,122 L 258,122 L 260,124 L 261,124 L 263,126 L 263,127 L 265,127 L 266,128 L 266,129 L 267,130 L 267,132 L 268,132 L 269,133 L 271,133 L 272,134 L 274,134 L 274,131 L 275,130 L 278,130 L 280,132 L 280,133 L 281,134 L 283,134 L 284,135 L 285,135 L 285,134 L 286,133 L 286,131 L 289,128 L 289,127 L 291,125 L 291,124 L 292,123 L 292,122 L 293,121 L 293,120 L 295,118 L 295,114 L 296,113 L 296,111 L 297,110 L 298,110 L 298,108 L 299,107 L 300,107 L 302,105 L 303,105 L 304,104 L 305,104 L 304,103 L 304,102 L 305,101 L 305,99 L 306,98 L 307,99 L 308,99 L 307,98 L 307,94 L 308,93 L 308,92 L 309,91 L 311,91 L 311,90 L 312,89 L 312,88 L 313,87 L 313,85 L 312,84 L 312,83 L 311,83 L 310,82 L 310,78 L 307,78 L 306,77 L 306,76 L 304,76 L 303,75 L 303,73 L 300,73 L 300,76 L 299,77 L 298,77 L 297,78 L 292,78 L 291,77 L 287,77 L 286,76 L 286,75 L 282,75 L 281,74 L 281,73 L 278,73 L 277,72 L 277,71 L 275,73 L 274,73 L 273,72 L 272,72 L 271,71 L 270,71 L 269,70 L 267,70 L 266,69 L 265,69 L 261,65 L 256,65 L 255,64 Z" fill="none" stroke="black" stroke-width="1"/>
</svg>