<svg xmlns="http://www.w3.org/2000/svg" width="378" height="221">
  <path d="M 227,2 L 226,3 L 225,3 L 224,4 L 222,4 L 220,6 L 218,6 L 217,5 L 214,5 L 213,6 L 212,6 L 211,7 L 210,7 L 209,8 L 207,8 L 206,9 L 201,9 L 200,10 L 194,10 L 193,11 L 189,11 L 188,12 L 187,12 L 186,11 L 185,11 L 184,10 L 180,10 L 180,11 L 179,12 L 179,14 L 182,17 L 182,18 L 183,18 L 185,20 L 185,26 L 186,27 L 186,29 L 187,30 L 187,33 L 188,33 L 189,34 L 189,35 L 190,36 L 191,36 L 192,37 L 192,39 L 193,40 L 193,44 L 194,44 L 197,47 L 198,47 L 199,46 L 200,46 L 201,45 L 202,45 L 204,43 L 210,43 L 212,41 L 219,41 L 220,40 L 222,40 L 223,41 L 227,41 L 228,42 L 231,42 L 232,43 L 237,43 L 238,44 L 248,44 L 249,43 L 253,43 L 254,42 L 258,42 L 258,41 L 260,39 L 260,37 L 264,33 L 264,31 L 265,30 L 266,30 L 266,28 L 264,26 L 264,25 L 262,23 L 259,23 L 258,22 L 256,22 L 255,21 L 253,21 L 252,20 L 251,20 L 250,19 L 248,19 L 247,18 L 246,18 L 245,17 L 243,17 L 242,16 L 241,16 L 238,13 L 239,12 L 238,11 L 238,10 L 237,10 L 235,8 L 234,8 L 233,7 L 233,5 L 234,4 L 234,2 Z" fill="none" stroke="black" stroke-width="1"/>
</svg>