<svg xmlns="http://www.w3.org/2000/svg" width="474" height="213">
  <path d="M 70,4 L 68,6 L 67,6 L 70,9 L 70,12 L 67,15 L 66,15 L 65,16 L 64,16 L 63,17 L 59,17 L 57,19 L 56,19 L 55,20 L 53,20 L 53,21 L 52,22 L 51,22 L 49,24 L 49,25 L 48,26 L 49,27 L 49,29 L 50,30 L 50,31 L 49,32 L 48,32 L 47,33 L 46,33 L 45,34 L 44,34 L 43,35 L 42,35 L 41,34 L 38,34 L 37,35 L 35,35 L 34,34 L 31,34 L 29,36 L 25,36 L 24,37 L 20,37 L 18,35 L 12,35 L 11,34 L 10,34 L 9,33 L 8,33 L 6,31 L 4,31 L 3,32 L 3,34 L 2,35 L 2,43 L 1,44 L 1,45 L 0,46 L 0,56 L 1,57 L 1,59 L 2,60 L 2,62 L 1,63 L 1,65 L 2,66 L 2,67 L 3,68 L 2,69 L 3,69 L 4,70 L 6,70 L 8,68 L 10,68 L 11,67 L 12,67 L 13,66 L 20,66 L 21,65 L 27,65 L 28,64 L 31,64 L 32,63 L 36,63 L 37,62 L 42,62 L 43,61 L 46,61 L 47,60 L 49,60 L 50,59 L 52,59 L 53,58 L 55,58 L 56,59 L 64,59 L 66,57 L 71,57 L 72,58 L 74,58 L 75,59 L 82,59 L 82,57 L 80,55 L 80,48 L 81,47 L 81,44 L 82,43 L 82,42 L 83,41 L 83,40 L 85,38 L 84,38 L 83,37 L 82,37 L 81,36 L 80,36 L 76,32 L 76,29 L 78,27 L 79,27 L 80,26 L 80,25 L 81,24 L 81,23 L 82,22 L 82,20 L 84,18 L 84,16 L 83,15 L 83,14 L 82,13 L 82,12 L 81,11 L 80,11 L 79,10 L 78,10 L 76,8 L 75,8 L 74,7 L 74,6 L 72,4 Z" fill="none" stroke="black" stroke-width="1"/>
</svg>