<svg xmlns="http://www.w3.org/2000/svg" width="474" height="213">
  <path d="M 85,39 L 84,40 L 84,41 L 83,42 L 83,43 L 82,44 L 82,47 L 81,48 L 81,55 L 83,57 L 83,59 L 85,59 L 86,60 L 87,60 L 88,61 L 89,61 L 90,62 L 93,62 L 94,63 L 95,63 L 96,64 L 97,64 L 98,65 L 99,65 L 102,68 L 103,68 L 104,69 L 105,69 L 107,71 L 108,71 L 109,72 L 110,72 L 111,73 L 113,73 L 115,75 L 116,75 L 120,79 L 122,79 L 124,81 L 125,81 L 126,82 L 126,83 L 127,83 L 128,84 L 129,84 L 130,83 L 131,83 L 132,84 L 133,84 L 134,83 L 135,83 L 136,84 L 139,84 L 140,83 L 140,82 L 142,80 L 142,79 L 143,78 L 143,77 L 144,76 L 142,74 L 142,72 L 143,71 L 142,71 L 140,69 L 139,69 L 138,68 L 137,68 L 136,67 L 135,68 L 134,67 L 132,67 L 127,62 L 126,62 L 124,60 L 124,58 L 123,58 L 122,57 L 122,55 L 120,53 L 119,53 L 116,50 L 117,49 L 117,48 L 118,47 L 119,47 L 121,45 L 121,44 L 120,44 L 119,43 L 117,43 L 116,44 L 114,42 L 106,42 L 105,43 L 104,42 L 102,42 L 101,41 L 93,41 L 92,40 L 89,40 L 88,39 Z" fill="none" stroke="black" stroke-width="1"/>
</svg>