<svg xmlns="http://www.w3.org/2000/svg" width="749" height="389">
  <path d="M 416,320 L 416,321 L 415,322 L 415,323 L 414,324 L 414,327 L 412,329 L 411,329 L 410,330 L 410,331 L 409,332 L 409,333 L 408,334 L 408,335 L 406,337 L 405,337 L 404,338 L 403,338 L 401,340 L 400,340 L 399,341 L 399,346 L 398,347 L 398,352 L 397,353 L 398,354 L 398,356 L 396,358 L 396,359 L 394,361 L 395,362 L 395,365 L 394,366 L 394,367 L 392,369 L 389,369 L 385,373 L 386,373 L 390,377 L 391,377 L 392,378 L 393,378 L 395,380 L 396,380 L 397,381 L 397,382 L 399,384 L 400,384 L 401,385 L 402,385 L 403,384 L 409,384 L 410,383 L 411,383 L 412,382 L 413,382 L 414,381 L 416,381 L 417,380 L 421,380 L 423,378 L 423,377 L 422,376 L 421,376 L 420,375 L 420,374 L 421,373 L 422,373 L 422,369 L 425,366 L 425,364 L 427,362 L 427,358 L 429,356 L 430,356 L 432,354 L 433,354 L 434,353 L 435,353 L 438,350 L 441,350 L 442,349 L 443,349 L 444,350 L 445,349 L 446,349 L 446,344 L 445,343 L 445,341 L 444,340 L 444,337 L 451,330 L 451,327 L 450,326 L 445,326 L 444,325 L 442,325 L 441,324 L 439,324 L 438,323 L 432,323 L 431,322 L 424,322 L 423,321 L 422,321 L 421,320 Z" fill="none" stroke="black" stroke-width="1"/>
</svg>