<svg xmlns="http://www.w3.org/2000/svg" width="710" height="350">
  <path d="M 508,295 L 508,296 L 506,298 L 505,298 L 504,299 L 504,300 L 500,304 L 492,304 L 491,305 L 491,309 L 490,310 L 490,314 L 489,315 L 491,317 L 491,319 L 492,320 L 492,324 L 491,325 L 491,327 L 487,331 L 487,334 L 488,335 L 488,336 L 489,337 L 489,338 L 491,340 L 491,341 L 493,341 L 494,342 L 496,342 L 499,345 L 499,346 L 500,347 L 499,348 L 499,349 L 500,349 L 501,348 L 502,348 L 502,347 L 504,345 L 505,345 L 507,343 L 509,343 L 510,344 L 512,344 L 514,346 L 515,346 L 516,345 L 516,344 L 520,340 L 520,338 L 522,336 L 524,336 L 525,335 L 528,335 L 529,334 L 532,337 L 532,338 L 536,338 L 537,339 L 538,339 L 539,340 L 544,340 L 543,339 L 543,336 L 544,335 L 544,334 L 546,332 L 546,328 L 545,327 L 545,323 L 544,322 L 544,320 L 543,319 L 543,317 L 541,315 L 541,313 L 543,311 L 543,310 L 542,309 L 542,306 L 543,305 L 543,303 L 544,302 L 543,302 L 541,300 L 540,301 L 537,301 L 536,300 L 532,300 L 531,299 L 528,299 L 527,300 L 518,300 L 517,299 L 515,299 L 514,300 L 513,300 L 512,299 L 511,299 L 510,298 L 510,297 L 509,297 L 508,296 Z" fill="none" stroke="black" stroke-width="1"/>
</svg>