<svg xmlns="http://www.w3.org/2000/svg" width="710" height="350">
  <path d="M 622,269 L 620,271 L 619,271 L 617,273 L 616,272 L 616,273 L 615,274 L 613,274 L 612,275 L 611,275 L 609,273 L 608,273 L 605,276 L 604,276 L 603,277 L 602,277 L 601,278 L 600,278 L 596,282 L 595,281 L 594,281 L 593,280 L 583,280 L 580,283 L 579,283 L 577,285 L 576,285 L 577,285 L 581,289 L 581,292 L 580,293 L 581,294 L 582,294 L 583,293 L 584,293 L 585,294 L 585,296 L 586,297 L 586,298 L 588,300 L 588,302 L 589,303 L 590,303 L 591,304 L 591,309 L 593,309 L 595,311 L 595,315 L 598,318 L 601,318 L 602,319 L 605,319 L 607,317 L 609,317 L 609,316 L 611,314 L 612,314 L 615,311 L 616,311 L 617,310 L 619,310 L 620,309 L 622,309 L 623,308 L 634,308 L 635,307 L 638,307 L 640,305 L 647,305 L 648,306 L 651,306 L 652,307 L 654,307 L 655,308 L 657,308 L 659,310 L 660,310 L 661,311 L 668,311 L 669,310 L 679,310 L 681,312 L 684,312 L 685,313 L 686,313 L 687,312 L 688,313 L 689,312 L 690,312 L 691,311 L 691,309 L 690,308 L 690,307 L 689,306 L 689,305 L 687,303 L 686,303 L 685,302 L 685,298 L 684,297 L 684,295 L 683,295 L 681,293 L 681,292 L 680,292 L 679,291 L 679,288 L 678,287 L 678,285 L 677,284 L 677,278 L 676,277 L 675,277 L 674,276 L 674,275 L 670,271 L 669,271 L 668,272 L 667,271 L 663,271 L 662,272 L 659,272 L 658,271 L 654,271 L 653,272 L 652,272 L 649,275 L 648,275 L 645,278 L 644,278 L 642,280 L 640,280 L 639,281 L 636,281 L 635,282 L 634,282 L 633,281 L 633,278 L 631,276 L 631,275 L 630,274 L 630,273 L 629,272 L 629,271 L 625,271 L 624,270 L 623,270 Z" fill="none" stroke="black" stroke-width="1"/>
</svg>