<svg xmlns="http://www.w3.org/2000/svg" width="710" height="350">
  <path d="M 536,222 L 535,223 L 533,223 L 532,224 L 531,224 L 530,225 L 529,225 L 528,224 L 526,224 L 525,225 L 525,226 L 523,228 L 520,228 L 518,226 L 516,226 L 514,224 L 511,224 L 510,223 L 509,223 L 508,224 L 507,223 L 506,223 L 505,224 L 504,224 L 504,225 L 503,226 L 502,226 L 502,227 L 503,228 L 503,229 L 505,231 L 505,234 L 502,237 L 502,238 L 504,238 L 505,237 L 506,238 L 506,239 L 507,240 L 507,241 L 510,241 L 513,244 L 513,246 L 514,247 L 514,248 L 515,249 L 515,251 L 514,252 L 514,254 L 512,256 L 512,257 L 511,258 L 511,261 L 510,262 L 510,263 L 509,264 L 509,267 L 508,268 L 508,273 L 507,274 L 507,275 L 508,275 L 509,274 L 510,274 L 511,273 L 515,273 L 517,271 L 518,271 L 519,270 L 520,270 L 522,268 L 523,268 L 524,267 L 526,267 L 525,266 L 526,265 L 526,264 L 527,263 L 527,262 L 530,259 L 534,259 L 535,260 L 536,259 L 537,259 L 538,260 L 542,256 L 542,254 L 544,252 L 542,250 L 542,247 L 539,244 L 539,243 L 537,241 L 537,237 L 538,236 L 538,232 L 537,231 L 537,226 L 538,225 L 538,223 L 537,222 Z" fill="none" stroke="black" stroke-width="1"/>
</svg>