<svg xmlns="http://www.w3.org/2000/svg" width="749" height="389">
  <path d="M 193,239 L 192,240 L 185,240 L 184,241 L 183,240 L 180,240 L 179,241 L 178,241 L 177,242 L 177,243 L 176,244 L 176,245 L 175,246 L 174,246 L 174,247 L 173,248 L 173,249 L 172,250 L 172,252 L 173,253 L 173,255 L 174,256 L 174,257 L 173,258 L 173,260 L 172,261 L 172,262 L 171,263 L 171,264 L 168,267 L 168,269 L 167,270 L 167,271 L 169,273 L 178,273 L 179,272 L 180,272 L 181,271 L 183,271 L 184,270 L 187,270 L 188,269 L 190,269 L 192,267 L 198,267 L 199,266 L 201,266 L 202,265 L 203,265 L 204,264 L 204,262 L 203,261 L 201,261 L 200,260 L 201,259 L 202,259 L 202,258 L 203,257 L 203,252 L 204,251 L 204,250 L 205,249 L 205,246 L 206,245 L 206,242 L 205,242 L 204,241 L 200,241 L 199,240 L 199,239 Z" fill="none" stroke="black" stroke-width="1"/>
</svg>