<svg xmlns="http://www.w3.org/2000/svg" width="749" height="389">
  <path d="M 145,161 L 144,162 L 143,162 L 142,163 L 141,163 L 140,162 L 133,162 L 131,164 L 131,165 L 132,166 L 132,169 L 129,172 L 129,173 L 128,174 L 127,174 L 126,175 L 124,175 L 123,176 L 116,176 L 115,177 L 115,178 L 114,179 L 114,180 L 113,181 L 113,184 L 112,185 L 112,186 L 113,187 L 113,190 L 114,191 L 114,195 L 115,196 L 115,199 L 112,202 L 112,203 L 111,204 L 106,204 L 105,203 L 103,203 L 102,204 L 102,205 L 101,206 L 101,207 L 99,209 L 99,214 L 101,216 L 102,216 L 103,217 L 105,217 L 108,220 L 110,220 L 113,223 L 113,224 L 119,224 L 120,223 L 131,223 L 132,224 L 134,224 L 134,223 L 137,220 L 138,220 L 138,219 L 139,218 L 139,215 L 142,212 L 143,212 L 144,211 L 149,211 L 150,212 L 150,211 L 151,210 L 151,209 L 152,208 L 152,202 L 153,201 L 154,201 L 155,200 L 156,200 L 156,199 L 158,197 L 158,196 L 159,195 L 161,195 L 162,196 L 163,195 L 164,196 L 165,196 L 165,195 L 166,194 L 166,193 L 167,192 L 167,189 L 165,187 L 165,186 L 166,185 L 166,184 L 165,183 L 165,181 L 160,181 L 159,180 L 159,177 L 158,176 L 157,176 L 156,175 L 154,175 L 153,174 L 151,174 L 149,172 L 151,170 L 150,169 L 148,169 L 146,167 L 146,166 L 148,164 L 148,162 L 147,161 Z" fill="none" stroke="black" stroke-width="1"/>
</svg>