<svg xmlns="http://www.w3.org/2000/svg" width="749" height="389">
  <path d="M 120,224 L 119,225 L 106,225 L 105,226 L 103,226 L 101,228 L 100,228 L 98,230 L 97,230 L 97,240 L 102,245 L 102,246 L 104,248 L 104,249 L 105,250 L 105,257 L 102,260 L 101,260 L 100,261 L 100,269 L 102,271 L 102,275 L 103,276 L 103,277 L 100,280 L 99,280 L 98,281 L 97,281 L 95,283 L 97,283 L 98,284 L 100,284 L 101,285 L 114,285 L 115,284 L 116,284 L 117,285 L 118,285 L 119,286 L 125,286 L 126,287 L 127,287 L 128,288 L 129,288 L 131,290 L 131,291 L 132,292 L 134,292 L 135,293 L 141,293 L 141,292 L 142,291 L 142,290 L 143,289 L 143,288 L 147,284 L 150,284 L 152,282 L 153,282 L 154,283 L 155,282 L 156,282 L 157,281 L 159,283 L 162,283 L 165,280 L 166,280 L 166,277 L 167,276 L 167,275 L 168,274 L 168,273 L 166,271 L 166,270 L 167,269 L 167,267 L 170,264 L 170,263 L 171,262 L 171,261 L 172,260 L 172,258 L 173,257 L 173,256 L 172,255 L 172,253 L 171,252 L 171,251 L 170,251 L 169,250 L 168,250 L 166,248 L 164,248 L 163,249 L 162,249 L 161,248 L 160,248 L 159,247 L 158,247 L 153,242 L 151,242 L 150,241 L 149,241 L 148,240 L 147,240 L 146,239 L 144,239 L 143,238 L 142,238 L 141,237 L 140,237 L 136,233 L 136,232 L 135,231 L 135,226 L 134,225 L 132,225 L 131,224 Z" fill="none" stroke="black" stroke-width="1"/>
</svg>