<svg xmlns="http://www.w3.org/2000/svg" width="749" height="389">
  <path d="M 287,67 L 286,68 L 287,69 L 285,71 L 283,71 L 282,72 L 280,70 L 279,70 L 279,71 L 278,72 L 277,71 L 277,72 L 276,73 L 275,72 L 270,72 L 269,73 L 268,73 L 267,74 L 256,74 L 255,75 L 254,75 L 256,77 L 255,78 L 254,78 L 254,83 L 252,85 L 251,85 L 250,84 L 248,84 L 247,85 L 242,85 L 241,86 L 240,86 L 239,87 L 238,87 L 236,89 L 236,90 L 237,91 L 240,91 L 243,94 L 241,96 L 241,97 L 239,99 L 238,99 L 237,100 L 236,100 L 235,101 L 234,101 L 231,104 L 229,104 L 229,105 L 228,106 L 227,106 L 226,107 L 225,106 L 224,106 L 222,108 L 221,108 L 220,107 L 212,107 L 211,106 L 207,106 L 206,105 L 201,105 L 200,104 L 196,104 L 192,100 L 191,100 L 190,99 L 189,99 L 187,97 L 187,95 L 186,94 L 186,89 L 185,89 L 183,91 L 181,91 L 180,92 L 179,92 L 180,93 L 180,95 L 179,96 L 179,97 L 180,98 L 180,99 L 179,100 L 178,100 L 178,102 L 177,103 L 177,104 L 176,105 L 176,108 L 174,110 L 172,110 L 171,109 L 170,109 L 169,108 L 169,107 L 165,107 L 164,106 L 163,106 L 163,109 L 164,110 L 163,111 L 163,112 L 164,112 L 166,114 L 166,115 L 165,116 L 165,118 L 166,119 L 166,120 L 167,121 L 167,122 L 168,123 L 169,123 L 171,125 L 173,125 L 174,126 L 174,127 L 175,128 L 175,130 L 176,131 L 177,131 L 180,134 L 179,135 L 178,135 L 176,137 L 176,138 L 178,140 L 178,141 L 179,141 L 180,142 L 182,142 L 183,141 L 185,141 L 187,139 L 189,139 L 190,138 L 191,139 L 192,139 L 194,137 L 195,137 L 195,136 L 196,135 L 197,135 L 198,134 L 202,134 L 203,133 L 204,133 L 205,132 L 206,132 L 207,131 L 207,130 L 208,129 L 210,129 L 211,128 L 212,128 L 213,129 L 216,129 L 217,128 L 217,127 L 218,126 L 219,126 L 221,128 L 222,128 L 223,129 L 224,129 L 224,128 L 225,127 L 228,127 L 229,128 L 229,131 L 234,131 L 235,130 L 236,130 L 237,131 L 248,131 L 250,133 L 250,139 L 251,139 L 253,141 L 253,142 L 259,142 L 260,143 L 260,144 L 266,144 L 267,145 L 270,145 L 272,143 L 273,143 L 274,144 L 275,144 L 276,143 L 277,143 L 278,144 L 279,144 L 280,145 L 283,145 L 284,146 L 285,146 L 286,145 L 291,145 L 293,147 L 293,148 L 294,148 L 295,149 L 296,149 L 297,148 L 298,148 L 302,144 L 305,144 L 306,143 L 307,143 L 309,141 L 309,139 L 310,138 L 310,136 L 311,135 L 311,133 L 310,133 L 309,132 L 308,132 L 306,130 L 306,129 L 305,128 L 306,127 L 306,126 L 305,126 L 303,124 L 303,123 L 305,121 L 305,118 L 306,117 L 306,114 L 307,113 L 310,113 L 310,110 L 311,109 L 311,108 L 312,107 L 316,107 L 318,105 L 318,104 L 319,103 L 319,101 L 320,100 L 320,98 L 318,98 L 317,97 L 317,95 L 319,93 L 319,92 L 320,91 L 319,90 L 319,89 L 320,88 L 320,87 L 319,86 L 321,84 L 322,84 L 320,82 L 320,80 L 319,80 L 318,79 L 317,79 L 316,80 L 311,80 L 309,78 L 306,78 L 305,77 L 306,76 L 305,76 L 304,75 L 301,75 L 299,73 L 298,73 L 295,70 L 292,70 L 290,68 L 289,68 L 288,67 Z" fill="none" stroke="black" stroke-width="1"/>
</svg>