<svg xmlns="http://www.w3.org/2000/svg" width="749" height="389">
  <path d="M 519,152 L 518,153 L 489,153 L 488,154 L 488,155 L 487,156 L 486,156 L 482,160 L 482,162 L 481,163 L 480,163 L 476,167 L 476,169 L 475,170 L 475,171 L 474,172 L 474,173 L 473,174 L 473,176 L 472,177 L 472,181 L 473,182 L 473,184 L 475,186 L 475,189 L 471,193 L 471,194 L 470,195 L 469,195 L 467,197 L 467,198 L 466,199 L 466,202 L 465,203 L 465,206 L 466,207 L 466,209 L 467,210 L 468,210 L 470,212 L 471,212 L 472,213 L 474,213 L 475,214 L 476,214 L 477,213 L 478,213 L 479,214 L 482,214 L 483,215 L 486,215 L 487,214 L 489,214 L 490,215 L 492,213 L 496,213 L 497,214 L 499,214 L 501,216 L 501,217 L 502,218 L 505,218 L 506,219 L 507,219 L 508,218 L 509,218 L 511,216 L 511,215 L 512,214 L 512,210 L 511,209 L 511,208 L 513,206 L 513,205 L 514,204 L 514,202 L 515,201 L 515,199 L 516,198 L 516,196 L 519,193 L 520,194 L 524,194 L 524,189 L 526,187 L 527,187 L 528,186 L 533,186 L 533,182 L 532,181 L 532,180 L 531,179 L 531,178 L 530,177 L 530,174 L 531,173 L 531,172 L 530,171 L 530,170 L 527,167 L 527,161 L 526,160 L 526,159 L 525,158 L 525,156 L 523,154 L 523,152 Z" fill="none" stroke="black" stroke-width="1"/>
</svg>