<svg xmlns="http://www.w3.org/2000/svg" width="749" height="389">
  <path d="M 207,168 L 205,170 L 204,170 L 205,170 L 207,172 L 207,177 L 205,179 L 203,179 L 203,180 L 204,181 L 204,186 L 203,187 L 203,188 L 202,189 L 198,189 L 197,190 L 196,190 L 195,191 L 194,191 L 193,192 L 190,192 L 190,198 L 191,199 L 191,200 L 194,203 L 194,204 L 195,204 L 197,206 L 197,207 L 198,208 L 198,209 L 199,210 L 199,211 L 198,212 L 199,213 L 199,214 L 198,215 L 198,216 L 200,216 L 202,214 L 203,214 L 204,213 L 206,213 L 207,214 L 211,214 L 212,215 L 212,216 L 213,217 L 215,217 L 217,215 L 223,215 L 225,213 L 228,213 L 228,211 L 227,210 L 227,204 L 228,203 L 228,202 L 229,201 L 229,200 L 232,197 L 232,196 L 233,195 L 234,195 L 234,194 L 236,192 L 236,188 L 237,187 L 238,187 L 238,186 L 242,182 L 242,176 L 243,175 L 243,174 L 244,173 L 244,172 L 245,171 L 245,170 L 244,171 L 243,171 L 242,172 L 241,172 L 240,173 L 238,173 L 236,175 L 236,176 L 235,177 L 234,177 L 233,178 L 232,178 L 231,177 L 230,177 L 227,174 L 226,174 L 224,176 L 223,176 L 221,174 L 216,174 L 213,171 L 212,171 L 209,168 Z" fill="none" stroke="black" stroke-width="1"/>
</svg>