<svg xmlns="http://www.w3.org/2000/svg" width="749" height="389">
  <path d="M 249,140 L 249,141 L 248,142 L 247,142 L 246,143 L 246,148 L 245,149 L 245,150 L 246,151 L 246,158 L 247,159 L 247,170 L 245,172 L 245,173 L 244,174 L 244,175 L 243,176 L 243,180 L 244,181 L 244,182 L 247,185 L 247,186 L 248,186 L 249,187 L 250,187 L 251,188 L 256,188 L 257,187 L 258,187 L 259,188 L 260,188 L 262,190 L 263,190 L 264,189 L 267,189 L 268,190 L 273,190 L 275,192 L 275,193 L 276,194 L 277,194 L 280,197 L 280,198 L 281,199 L 281,200 L 282,201 L 283,201 L 284,200 L 285,201 L 286,201 L 289,204 L 289,206 L 290,207 L 291,207 L 292,208 L 294,208 L 295,207 L 298,207 L 299,208 L 300,208 L 300,207 L 304,203 L 308,203 L 309,202 L 315,202 L 316,203 L 324,203 L 325,202 L 325,201 L 326,200 L 326,192 L 323,189 L 318,189 L 317,188 L 316,188 L 315,187 L 312,187 L 310,185 L 309,185 L 308,184 L 307,184 L 305,182 L 304,182 L 301,179 L 301,176 L 302,175 L 302,171 L 304,169 L 304,166 L 301,163 L 301,161 L 303,159 L 303,158 L 306,155 L 308,155 L 311,152 L 307,148 L 307,147 L 305,145 L 302,145 L 298,149 L 297,149 L 296,150 L 295,150 L 294,149 L 293,149 L 292,148 L 292,147 L 291,146 L 286,146 L 285,147 L 284,147 L 283,146 L 280,146 L 279,145 L 278,145 L 277,144 L 276,144 L 275,145 L 274,145 L 273,144 L 272,144 L 270,146 L 267,146 L 266,145 L 260,145 L 259,144 L 259,143 L 253,143 L 252,142 L 252,141 L 251,140 Z" fill="none" stroke="black" stroke-width="1"/>
</svg>