<svg xmlns="http://www.w3.org/2000/svg" width="749" height="389">
  <path d="M 456,250 L 455,251 L 454,251 L 453,252 L 452,251 L 449,251 L 448,252 L 442,252 L 441,253 L 440,253 L 438,255 L 436,255 L 435,256 L 434,256 L 433,257 L 432,257 L 431,258 L 429,258 L 428,259 L 426,259 L 425,260 L 424,260 L 423,261 L 416,261 L 417,262 L 417,263 L 419,265 L 419,266 L 421,268 L 421,272 L 420,273 L 420,275 L 419,276 L 419,277 L 416,280 L 416,284 L 415,285 L 415,286 L 413,288 L 413,290 L 412,291 L 412,293 L 411,294 L 411,295 L 409,297 L 409,306 L 414,306 L 415,307 L 416,307 L 418,305 L 419,305 L 420,304 L 421,304 L 422,303 L 423,303 L 424,302 L 425,302 L 426,301 L 427,301 L 428,300 L 430,300 L 431,299 L 432,299 L 433,298 L 434,298 L 435,297 L 436,297 L 437,296 L 438,296 L 439,295 L 442,295 L 443,294 L 447,294 L 448,293 L 451,293 L 453,291 L 455,291 L 456,292 L 463,292 L 464,291 L 473,291 L 474,292 L 477,292 L 478,291 L 485,291 L 485,289 L 483,287 L 483,279 L 482,278 L 481,278 L 474,271 L 474,270 L 473,269 L 473,268 L 472,268 L 471,267 L 470,267 L 469,266 L 467,266 L 466,265 L 464,265 L 462,263 L 462,262 L 464,260 L 464,258 L 463,257 L 463,256 L 462,256 L 461,255 L 461,252 L 459,250 Z" fill="none" stroke="black" stroke-width="1"/>
</svg>