<svg xmlns="http://www.w3.org/2000/svg" width="749" height="389">
  <path d="M 537,175 L 536,176 L 535,176 L 534,177 L 532,177 L 531,176 L 531,177 L 532,178 L 532,179 L 533,180 L 533,181 L 534,182 L 534,186 L 533,187 L 528,187 L 527,188 L 526,188 L 525,189 L 525,194 L 524,195 L 520,195 L 519,194 L 517,196 L 517,198 L 516,199 L 516,201 L 515,202 L 515,204 L 514,205 L 514,206 L 512,208 L 512,209 L 513,210 L 513,214 L 512,215 L 513,215 L 514,216 L 515,216 L 516,217 L 517,217 L 519,219 L 519,221 L 521,223 L 521,227 L 520,228 L 520,229 L 524,233 L 524,239 L 525,239 L 526,240 L 536,240 L 537,241 L 538,241 L 539,242 L 540,242 L 541,243 L 542,243 L 543,244 L 546,244 L 547,245 L 548,245 L 549,246 L 551,246 L 552,245 L 552,244 L 555,241 L 559,241 L 560,240 L 561,240 L 561,239 L 563,237 L 563,236 L 566,233 L 566,232 L 568,230 L 569,230 L 571,232 L 572,232 L 573,233 L 577,233 L 580,230 L 581,230 L 582,229 L 590,229 L 591,228 L 591,224 L 592,223 L 592,222 L 593,221 L 593,220 L 592,219 L 592,218 L 591,217 L 590,217 L 587,214 L 579,214 L 578,215 L 570,215 L 569,214 L 566,214 L 564,212 L 564,211 L 563,210 L 563,207 L 562,206 L 561,206 L 560,205 L 560,203 L 562,201 L 562,199 L 566,195 L 566,194 L 567,193 L 567,192 L 566,191 L 566,190 L 565,189 L 565,187 L 563,185 L 564,184 L 564,183 L 565,182 L 566,182 L 566,181 L 569,178 L 569,176 L 567,176 L 566,177 L 563,177 L 562,176 L 558,176 L 557,175 L 556,176 L 554,176 L 553,177 L 552,177 L 551,178 L 544,178 L 542,176 L 541,176 L 540,175 Z" fill="none" stroke="black" stroke-width="1"/>
</svg>