<svg xmlns="http://www.w3.org/2000/svg" width="749" height="389">
  <path d="M 664,227 L 662,229 L 661,229 L 660,230 L 659,230 L 658,231 L 657,231 L 655,233 L 655,234 L 654,235 L 654,239 L 653,240 L 653,246 L 654,247 L 654,249 L 657,252 L 657,254 L 659,256 L 659,257 L 661,259 L 661,260 L 663,260 L 664,259 L 667,259 L 668,260 L 670,260 L 671,261 L 679,261 L 680,260 L 681,260 L 683,258 L 684,258 L 685,257 L 685,256 L 686,255 L 686,254 L 687,253 L 689,253 L 690,252 L 691,252 L 689,252 L 685,248 L 685,246 L 684,245 L 684,243 L 683,242 L 684,241 L 684,237 L 683,236 L 682,236 L 681,235 L 680,235 L 679,234 L 676,234 L 675,233 L 674,233 L 671,230 L 670,230 L 668,228 L 666,228 L 665,227 Z" fill="none" stroke="black" stroke-width="1"/>
</svg>