<svg xmlns="http://www.w3.org/2000/svg" width="749" height="389">
  <path d="M 597,218 L 597,219 L 595,221 L 594,221 L 593,222 L 593,223 L 592,224 L 592,228 L 590,230 L 582,230 L 581,231 L 580,231 L 577,234 L 573,234 L 572,233 L 571,233 L 569,231 L 568,231 L 567,232 L 567,233 L 564,236 L 564,237 L 562,239 L 562,240 L 561,241 L 560,241 L 559,242 L 555,242 L 553,244 L 553,245 L 552,246 L 557,246 L 558,247 L 559,247 L 560,248 L 572,248 L 573,249 L 574,249 L 575,250 L 575,251 L 576,252 L 576,253 L 578,255 L 579,255 L 580,256 L 581,256 L 583,258 L 583,259 L 582,260 L 582,261 L 584,263 L 586,263 L 587,264 L 588,264 L 589,265 L 595,265 L 597,267 L 598,266 L 600,266 L 601,267 L 604,267 L 605,266 L 607,266 L 609,264 L 610,264 L 610,261 L 615,256 L 618,256 L 619,255 L 621,255 L 623,253 L 624,253 L 626,251 L 627,251 L 628,250 L 628,249 L 627,248 L 627,247 L 626,246 L 624,246 L 618,240 L 618,239 L 615,236 L 613,236 L 608,231 L 607,231 L 606,230 L 605,230 L 604,229 L 603,229 L 602,228 L 601,228 L 600,227 L 600,224 L 599,224 L 597,222 Z" fill="none" stroke="black" stroke-width="1"/>
</svg>