<svg xmlns="http://www.w3.org/2000/svg" width="402" height="344">
  <path d="M 32,57 L 31,58 L 29,58 L 24,63 L 23,63 L 21,65 L 21,66 L 19,68 L 17,68 L 16,69 L 16,71 L 17,72 L 19,72 L 20,71 L 24,71 L 25,72 L 26,72 L 27,73 L 27,75 L 26,76 L 26,78 L 28,80 L 28,83 L 27,84 L 27,86 L 26,87 L 24,87 L 23,88 L 22,88 L 18,92 L 17,92 L 17,93 L 16,94 L 16,96 L 15,97 L 15,99 L 14,100 L 13,100 L 12,101 L 13,102 L 13,103 L 9,107 L 9,109 L 8,110 L 8,111 L 5,114 L 5,115 L 4,116 L 4,117 L 3,118 L 5,118 L 6,119 L 6,123 L 10,123 L 13,126 L 15,126 L 16,127 L 16,130 L 17,131 L 17,133 L 16,134 L 18,136 L 18,137 L 20,139 L 23,139 L 25,141 L 25,147 L 26,148 L 28,148 L 29,149 L 30,149 L 33,152 L 33,153 L 34,153 L 35,152 L 35,151 L 36,150 L 36,148 L 35,147 L 41,141 L 42,141 L 44,139 L 44,138 L 45,137 L 45,135 L 46,134 L 46,133 L 44,131 L 43,131 L 42,130 L 41,130 L 38,127 L 37,127 L 36,126 L 36,125 L 37,124 L 37,123 L 38,122 L 38,121 L 39,120 L 39,119 L 41,117 L 42,117 L 43,116 L 44,116 L 45,115 L 46,115 L 47,114 L 47,113 L 46,112 L 46,109 L 48,107 L 48,106 L 50,104 L 50,103 L 51,102 L 51,101 L 53,99 L 53,98 L 54,97 L 54,96 L 55,95 L 55,93 L 56,92 L 56,91 L 57,90 L 57,83 L 58,82 L 57,81 L 54,81 L 52,79 L 52,78 L 50,76 L 48,76 L 48,77 L 47,78 L 47,79 L 45,81 L 44,81 L 43,80 L 42,80 L 41,79 L 41,78 L 40,78 L 39,77 L 37,77 L 35,75 L 35,74 L 36,73 L 36,72 L 37,71 L 38,71 L 42,67 L 42,66 L 43,65 L 43,63 L 41,61 L 41,60 L 39,58 L 33,58 Z" fill="none" stroke="black" stroke-width="1"/>
</svg>