<svg xmlns="http://www.w3.org/2000/svg" width="749" height="389">
  <path d="M 729,172 L 727,174 L 725,174 L 724,175 L 721,175 L 721,177 L 720,178 L 719,178 L 719,180 L 718,181 L 714,181 L 712,179 L 711,180 L 711,181 L 710,182 L 709,182 L 708,183 L 707,183 L 705,185 L 704,185 L 703,186 L 702,186 L 700,188 L 699,188 L 697,190 L 696,190 L 695,191 L 695,192 L 694,193 L 693,193 L 689,197 L 689,199 L 688,200 L 688,202 L 689,202 L 690,203 L 690,204 L 692,206 L 692,207 L 693,208 L 694,208 L 695,209 L 697,209 L 698,210 L 699,210 L 700,209 L 702,209 L 703,208 L 704,208 L 705,207 L 706,207 L 708,209 L 711,209 L 712,208 L 712,207 L 713,206 L 713,203 L 714,202 L 714,201 L 715,200 L 716,200 L 717,199 L 718,199 L 718,198 L 720,196 L 721,196 L 723,194 L 724,194 L 725,195 L 728,195 L 729,194 L 730,194 L 729,193 L 729,192 L 733,188 L 733,187 L 734,186 L 734,185 L 735,184 L 735,183 L 736,182 L 736,181 L 738,179 L 738,176 L 737,175 L 737,173 L 735,173 L 734,172 Z" fill="none" stroke="black" stroke-width="1"/>
</svg>