<svg xmlns="http://www.w3.org/2000/svg" width="402" height="344">
  <path d="M 70,252 L 67,255 L 65,255 L 64,256 L 64,258 L 62,260 L 60,260 L 59,261 L 58,261 L 57,260 L 56,260 L 55,259 L 54,259 L 53,258 L 52,258 L 51,259 L 51,260 L 52,261 L 51,262 L 49,262 L 48,261 L 45,261 L 44,262 L 43,262 L 43,264 L 40,267 L 38,265 L 37,265 L 36,266 L 35,266 L 33,268 L 33,270 L 32,271 L 32,272 L 31,273 L 31,277 L 32,278 L 32,280 L 33,281 L 36,278 L 39,278 L 40,279 L 43,279 L 44,280 L 44,283 L 47,283 L 48,284 L 49,284 L 50,285 L 51,285 L 52,284 L 52,283 L 51,282 L 52,281 L 59,281 L 60,282 L 61,282 L 62,283 L 63,283 L 65,285 L 66,285 L 67,286 L 68,286 L 68,285 L 69,284 L 73,284 L 75,286 L 75,287 L 76,287 L 77,286 L 83,286 L 84,285 L 84,284 L 88,280 L 89,280 L 90,279 L 94,279 L 96,277 L 97,278 L 98,278 L 99,279 L 100,278 L 100,275 L 97,272 L 96,272 L 95,271 L 92,271 L 91,272 L 86,272 L 85,271 L 83,271 L 82,270 L 82,269 L 83,268 L 83,261 L 81,259 L 80,259 L 79,258 L 78,258 L 77,259 L 76,259 L 75,260 L 72,257 L 72,253 L 71,252 Z" fill="none" stroke="black" stroke-width="1"/>
</svg>