<svg xmlns="http://www.w3.org/2000/svg" width="402" height="344">
  <path d="M 126,107 L 123,110 L 121,110 L 120,111 L 118,111 L 118,113 L 119,114 L 119,115 L 120,116 L 120,117 L 122,119 L 122,121 L 117,126 L 117,130 L 118,131 L 118,133 L 120,135 L 120,136 L 121,137 L 123,137 L 124,138 L 126,138 L 128,140 L 129,140 L 132,143 L 132,144 L 133,145 L 133,146 L 132,147 L 132,148 L 131,149 L 134,152 L 134,155 L 135,156 L 135,159 L 136,160 L 136,161 L 137,162 L 137,163 L 138,164 L 140,164 L 147,157 L 150,157 L 151,158 L 153,158 L 154,157 L 154,156 L 157,153 L 158,153 L 159,152 L 162,152 L 163,153 L 164,153 L 165,154 L 166,154 L 168,156 L 168,159 L 169,160 L 169,161 L 168,162 L 168,164 L 171,164 L 172,163 L 178,163 L 179,162 L 181,162 L 182,163 L 184,163 L 184,162 L 185,161 L 185,159 L 180,154 L 181,153 L 181,152 L 182,151 L 182,149 L 175,149 L 170,144 L 169,144 L 167,142 L 167,141 L 165,141 L 164,140 L 164,138 L 162,138 L 161,139 L 157,139 L 153,135 L 147,135 L 146,136 L 142,136 L 141,135 L 138,135 L 135,132 L 135,131 L 134,131 L 133,130 L 133,128 L 132,127 L 132,126 L 133,125 L 133,124 L 134,123 L 134,122 L 133,121 L 131,121 L 130,120 L 130,113 L 129,112 L 129,111 L 127,109 L 127,108 Z" fill="none" stroke="black" stroke-width="1"/>
</svg>