<svg xmlns="http://www.w3.org/2000/svg" width="402" height="344">
  <path d="M 131,151 L 130,152 L 127,152 L 126,153 L 125,153 L 124,154 L 120,154 L 119,153 L 115,153 L 114,154 L 113,154 L 112,155 L 111,155 L 110,154 L 105,154 L 104,155 L 104,157 L 105,158 L 105,161 L 103,163 L 103,164 L 106,167 L 112,167 L 115,170 L 116,170 L 118,172 L 118,173 L 120,173 L 121,172 L 122,172 L 123,173 L 123,176 L 124,177 L 124,178 L 126,180 L 126,183 L 129,186 L 134,186 L 134,185 L 136,183 L 137,183 L 138,182 L 139,182 L 139,178 L 138,177 L 138,176 L 140,174 L 140,173 L 141,172 L 141,171 L 142,170 L 142,167 L 141,167 L 139,165 L 138,165 L 136,163 L 136,162 L 135,161 L 135,160 L 134,159 L 134,156 L 133,155 L 133,152 L 132,151 Z" fill="none" stroke="black" stroke-width="1"/>
</svg>