<svg xmlns="http://www.w3.org/2000/svg" width="402" height="344">
  <path d="M 325,147 L 324,148 L 323,148 L 320,151 L 317,151 L 316,150 L 314,150 L 313,149 L 312,150 L 311,150 L 310,151 L 307,151 L 306,152 L 305,152 L 303,154 L 302,154 L 300,156 L 297,156 L 296,155 L 294,155 L 293,156 L 290,153 L 288,153 L 287,154 L 285,154 L 284,155 L 283,155 L 282,154 L 281,154 L 279,152 L 271,152 L 270,151 L 268,151 L 267,150 L 258,150 L 256,152 L 253,152 L 251,154 L 251,157 L 249,159 L 249,160 L 248,161 L 247,161 L 246,162 L 246,164 L 245,165 L 244,165 L 244,167 L 245,168 L 245,169 L 247,171 L 247,172 L 246,173 L 246,174 L 247,174 L 248,175 L 249,175 L 250,176 L 252,176 L 254,178 L 255,178 L 258,181 L 258,182 L 260,184 L 262,184 L 263,185 L 267,185 L 268,186 L 270,186 L 271,187 L 272,187 L 273,188 L 279,188 L 281,186 L 282,186 L 285,183 L 290,183 L 292,185 L 293,184 L 294,184 L 295,183 L 298,183 L 300,185 L 300,186 L 304,186 L 305,187 L 305,186 L 313,178 L 313,176 L 314,175 L 314,174 L 316,172 L 316,171 L 327,160 L 328,160 L 328,159 L 329,158 L 328,158 L 327,157 L 327,155 L 326,154 L 325,154 L 324,153 L 324,152 L 325,151 Z" fill="none" stroke="black" stroke-width="1"/>
</svg>