<svg xmlns="http://www.w3.org/2000/svg" width="402" height="344">
  <path d="M 129,229 L 129,230 L 128,231 L 127,231 L 126,232 L 125,232 L 124,233 L 121,233 L 120,234 L 119,234 L 118,235 L 118,236 L 117,237 L 116,237 L 114,235 L 113,235 L 114,236 L 114,237 L 113,238 L 112,238 L 111,239 L 109,239 L 107,241 L 106,241 L 106,243 L 104,245 L 103,245 L 103,247 L 102,248 L 103,248 L 104,249 L 107,249 L 110,252 L 110,253 L 109,254 L 109,255 L 110,255 L 111,256 L 112,256 L 113,255 L 114,255 L 115,256 L 116,256 L 119,259 L 119,260 L 120,260 L 121,261 L 120,262 L 123,265 L 123,266 L 124,266 L 125,267 L 126,266 L 127,266 L 127,263 L 128,262 L 130,262 L 131,261 L 135,261 L 133,259 L 133,255 L 134,254 L 131,251 L 131,244 L 132,243 L 132,241 L 134,239 L 134,235 L 135,234 L 134,233 L 134,231 L 133,230 L 130,230 Z" fill="none" stroke="black" stroke-width="1"/>
</svg>