<svg xmlns="http://www.w3.org/2000/svg" width="402" height="344">
  <path d="M 179,163 L 178,164 L 172,164 L 171,165 L 168,165 L 172,169 L 172,174 L 171,175 L 171,183 L 169,185 L 169,186 L 163,192 L 163,193 L 160,196 L 160,197 L 159,198 L 158,198 L 158,199 L 157,200 L 156,200 L 155,201 L 148,201 L 147,202 L 146,202 L 144,204 L 144,205 L 142,207 L 145,207 L 146,208 L 151,208 L 153,210 L 154,210 L 156,212 L 157,212 L 158,213 L 159,213 L 163,217 L 164,217 L 165,218 L 166,218 L 167,219 L 168,219 L 169,220 L 176,220 L 177,219 L 179,219 L 180,218 L 181,218 L 182,217 L 184,217 L 185,216 L 188,216 L 189,215 L 191,215 L 191,214 L 192,213 L 192,208 L 193,207 L 193,203 L 196,200 L 198,200 L 199,199 L 199,197 L 200,196 L 200,195 L 199,194 L 199,193 L 198,192 L 198,190 L 199,189 L 201,189 L 201,188 L 203,186 L 206,186 L 206,185 L 209,182 L 209,181 L 208,180 L 208,179 L 207,178 L 207,176 L 210,173 L 209,172 L 208,172 L 207,173 L 197,173 L 196,172 L 192,172 L 191,173 L 188,173 L 187,172 L 187,170 L 185,168 L 185,167 L 184,167 L 182,165 L 182,164 L 181,163 Z" fill="none" stroke="black" stroke-width="1"/>
</svg>