<svg xmlns="http://www.w3.org/2000/svg" width="99" height="181">
  <path d="M 43,37 L 42,38 L 42,40 L 44,42 L 43,43 L 43,44 L 42,45 L 42,47 L 44,49 L 43,50 L 41,50 L 41,57 L 40,58 L 39,58 L 38,59 L 35,59 L 35,60 L 34,61 L 34,62 L 36,64 L 36,65 L 38,67 L 37,68 L 38,69 L 37,70 L 37,72 L 39,74 L 40,74 L 43,77 L 43,78 L 44,79 L 46,77 L 47,77 L 48,78 L 48,79 L 49,80 L 50,80 L 50,79 L 51,78 L 51,76 L 50,75 L 50,71 L 48,71 L 47,70 L 47,67 L 48,66 L 49,67 L 49,63 L 48,62 L 48,61 L 51,58 L 53,58 L 54,57 L 55,57 L 55,56 L 56,55 L 61,55 L 62,54 L 63,54 L 65,52 L 66,52 L 66,51 L 68,49 L 69,49 L 70,48 L 71,48 L 70,48 L 69,47 L 68,47 L 67,46 L 67,45 L 65,43 L 65,41 L 64,41 L 63,40 L 59,40 L 55,44 L 54,44 L 53,43 L 53,41 L 52,41 L 50,39 L 50,38 L 48,38 L 47,37 Z" fill="none" stroke="black" stroke-width="1"/>
</svg>