<svg xmlns="http://www.w3.org/2000/svg" width="99" height="181">
  <path d="M 23,75 L 21,77 L 20,77 L 20,78 L 19,79 L 19,80 L 20,81 L 19,82 L 17,82 L 16,81 L 12,81 L 11,82 L 10,82 L 10,84 L 9,85 L 9,86 L 8,87 L 8,89 L 6,91 L 5,91 L 13,91 L 14,92 L 13,93 L 11,93 L 10,94 L 10,95 L 13,95 L 14,94 L 15,95 L 16,94 L 18,96 L 17,97 L 16,97 L 16,98 L 17,97 L 18,97 L 19,96 L 20,96 L 20,94 L 19,94 L 18,93 L 18,91 L 20,89 L 21,89 L 22,88 L 23,88 L 24,87 L 23,86 L 23,84 L 24,83 L 24,82 L 25,81 L 25,80 L 26,79 L 26,78 L 27,77 L 27,76 L 26,75 Z" fill="none" stroke="black" stroke-width="1"/>
</svg>