<svg xmlns="http://www.w3.org/2000/svg" width="99" height="181">
  <path d="M 46,78 L 44,80 L 43,80 L 41,82 L 41,84 L 40,85 L 40,86 L 41,87 L 41,88 L 43,90 L 45,90 L 47,92 L 48,92 L 50,94 L 50,95 L 52,97 L 51,98 L 51,101 L 50,102 L 53,105 L 53,106 L 54,107 L 54,108 L 55,108 L 56,109 L 56,110 L 57,110 L 58,111 L 59,110 L 62,110 L 63,111 L 64,111 L 65,112 L 67,112 L 67,111 L 69,109 L 68,108 L 68,107 L 67,106 L 67,104 L 66,104 L 65,103 L 65,102 L 63,100 L 63,99 L 60,96 L 60,95 L 56,91 L 56,88 L 55,88 L 52,85 L 51,85 L 50,84 L 50,83 L 49,82 L 49,81 L 47,79 L 47,78 Z" fill="none" stroke="black" stroke-width="1"/>
</svg>