<svg xmlns="http://www.w3.org/2000/svg" width="273" height="267">
  <path d="M 241,170 L 241,171 L 239,173 L 239,181 L 238,182 L 238,183 L 239,184 L 239,185 L 240,186 L 240,189 L 241,190 L 241,192 L 243,194 L 244,194 L 247,197 L 247,198 L 248,199 L 248,203 L 250,203 L 250,197 L 251,196 L 251,194 L 252,193 L 252,192 L 255,189 L 254,189 L 253,190 L 252,190 L 251,191 L 250,191 L 245,186 L 245,184 L 244,183 L 244,182 L 243,181 L 243,180 L 242,179 L 242,174 L 241,173 Z" fill="none" stroke="black" stroke-width="1"/>
</svg>