<svg xmlns="http://www.w3.org/2000/svg" width="710" height="350">
  <path d="M 445,232 L 443,234 L 437,234 L 433,238 L 432,238 L 430,240 L 429,240 L 428,241 L 425,241 L 422,244 L 422,245 L 421,246 L 421,247 L 422,248 L 422,250 L 419,253 L 418,253 L 415,256 L 416,257 L 416,259 L 417,260 L 417,263 L 418,264 L 418,267 L 419,268 L 420,268 L 421,269 L 424,269 L 425,268 L 425,267 L 426,266 L 428,266 L 429,267 L 430,267 L 431,268 L 432,268 L 433,269 L 433,270 L 434,270 L 435,269 L 435,268 L 437,266 L 438,266 L 439,265 L 442,265 L 444,263 L 445,263 L 446,262 L 447,262 L 448,261 L 450,261 L 451,262 L 451,263 L 452,264 L 455,264 L 458,267 L 458,268 L 459,269 L 462,269 L 463,270 L 462,271 L 463,271 L 464,270 L 465,270 L 466,269 L 467,269 L 468,268 L 468,267 L 469,266 L 470,266 L 472,264 L 472,260 L 473,259 L 473,258 L 474,257 L 474,256 L 476,254 L 476,253 L 477,252 L 477,247 L 475,245 L 471,245 L 469,243 L 469,242 L 467,240 L 465,240 L 464,239 L 463,239 L 462,238 L 461,238 L 460,237 L 460,236 L 454,236 L 453,237 L 450,237 L 448,235 L 448,233 L 447,232 Z" fill="none" stroke="black" stroke-width="1"/>
</svg>