<svg xmlns="http://www.w3.org/2000/svg" width="296" height="251">
  <path d="M 132,205 L 129,208 L 127,208 L 125,210 L 123,210 L 121,212 L 121,214 L 122,215 L 122,216 L 123,217 L 123,218 L 121,220 L 120,220 L 119,221 L 119,224 L 120,225 L 120,227 L 121,228 L 121,229 L 120,230 L 120,231 L 122,231 L 123,230 L 123,226 L 125,224 L 126,225 L 128,225 L 130,227 L 130,228 L 129,229 L 130,230 L 131,229 L 133,229 L 135,231 L 136,231 L 137,230 L 137,228 L 138,227 L 139,227 L 139,226 L 137,224 L 137,216 L 139,214 L 139,209 L 140,208 L 138,206 L 138,205 Z" fill="none" stroke="black" stroke-width="1"/>
</svg>