<svg xmlns="http://www.w3.org/2000/svg" width="491" height="213">
  <path d="M 309,28 L 308,29 L 305,29 L 304,30 L 303,30 L 302,29 L 298,29 L 297,30 L 293,30 L 292,29 L 292,30 L 300,30 L 301,31 L 299,33 L 295,33 L 294,32 L 293,32 L 293,37 L 294,37 L 295,38 L 295,39 L 296,40 L 296,42 L 298,44 L 298,45 L 299,45 L 301,43 L 304,43 L 305,44 L 317,44 L 318,45 L 319,45 L 321,47 L 321,41 L 320,40 L 320,38 L 318,40 L 314,40 L 313,39 L 312,39 L 311,38 L 312,37 L 317,37 L 317,35 L 316,34 L 313,34 L 312,35 L 311,34 L 311,33 L 312,32 L 314,32 L 313,32 L 312,31 L 313,30 L 322,30 L 323,29 L 327,29 L 328,28 L 329,28 L 327,28 L 326,29 L 321,29 L 320,28 L 315,28 L 314,29 L 313,29 L 312,28 Z" fill="none" stroke="black" stroke-width="1"/>
  <path d="M 275,24 L 275,25 L 277,25 L 276,24 Z" fill="none" stroke="black" stroke-width="1"/>
  <path d="M 298,21 L 295,24 L 294,24 L 293,23 L 290,23 L 291,24 L 294,24 L 295,25 L 297,25 L 299,23 L 298,22 Z" fill="none" stroke="black" stroke-width="1"/>
</svg>