<svg xmlns="http://www.w3.org/2000/svg" width="491" height="213">
  <path d="M 321,63 L 320,64 L 317,64 L 316,65 L 315,65 L 314,66 L 310,66 L 309,67 L 308,67 L 307,68 L 306,68 L 305,69 L 304,69 L 303,70 L 299,70 L 298,71 L 296,71 L 295,72 L 294,72 L 293,73 L 292,73 L 289,76 L 288,76 L 287,77 L 284,77 L 286,79 L 286,80 L 287,81 L 287,83 L 285,85 L 285,86 L 287,88 L 287,92 L 289,94 L 289,99 L 288,100 L 288,102 L 289,102 L 291,104 L 291,105 L 294,108 L 294,110 L 295,111 L 295,113 L 294,114 L 294,118 L 293,119 L 293,123 L 294,124 L 294,126 L 293,127 L 293,128 L 295,130 L 295,132 L 294,133 L 294,134 L 295,134 L 296,135 L 300,135 L 301,134 L 302,134 L 304,136 L 305,136 L 306,135 L 309,138 L 310,138 L 311,139 L 315,139 L 315,135 L 317,133 L 318,133 L 319,132 L 322,132 L 323,133 L 324,133 L 325,132 L 328,132 L 326,130 L 326,128 L 323,125 L 323,124 L 322,123 L 322,121 L 323,120 L 323,118 L 322,117 L 322,116 L 321,115 L 321,113 L 320,112 L 320,109 L 321,108 L 321,106 L 320,105 L 320,101 L 319,100 L 319,99 L 317,97 L 317,91 L 316,90 L 316,87 L 315,86 L 315,80 L 316,79 L 316,78 L 317,77 L 317,75 L 318,74 L 318,73 L 319,72 L 323,72 L 324,71 L 324,70 L 325,69 L 325,68 L 326,67 L 324,67 L 323,66 L 322,66 L 321,65 Z" fill="none" stroke="black" stroke-width="1"/>
</svg>