<svg xmlns="http://www.w3.org/2000/svg" width="491" height="213">
  <path d="M 363,65 L 362,66 L 361,66 L 359,68 L 359,70 L 358,71 L 356,71 L 356,72 L 355,73 L 353,73 L 352,74 L 351,74 L 350,75 L 350,76 L 349,77 L 349,81 L 350,82 L 350,84 L 351,84 L 352,85 L 353,85 L 354,86 L 354,88 L 359,88 L 360,89 L 366,89 L 367,90 L 367,91 L 368,91 L 369,92 L 370,92 L 372,94 L 372,95 L 371,96 L 371,97 L 375,101 L 375,102 L 378,102 L 380,100 L 381,100 L 383,98 L 383,97 L 387,93 L 387,91 L 385,89 L 384,89 L 383,90 L 383,91 L 381,93 L 381,96 L 380,97 L 379,96 L 379,91 L 380,90 L 380,88 L 381,87 L 382,87 L 382,82 L 381,81 L 381,80 L 379,78 L 378,78 L 377,77 L 377,76 L 371,70 L 370,70 L 368,68 L 367,68 L 365,66 L 364,66 Z" fill="none" stroke="black" stroke-width="1"/>
</svg>