<svg xmlns="http://www.w3.org/2000/svg" width="491" height="213">
  <path d="M 388,90 L 388,93 L 384,97 L 384,98 L 381,101 L 380,101 L 378,103 L 375,103 L 375,104 L 374,105 L 374,108 L 375,109 L 375,113 L 376,114 L 376,120 L 377,121 L 377,122 L 378,123 L 378,125 L 379,126 L 379,128 L 381,130 L 383,130 L 384,131 L 384,132 L 386,134 L 386,137 L 387,137 L 388,138 L 388,144 L 389,144 L 389,143 L 390,142 L 391,142 L 392,141 L 393,141 L 392,140 L 392,137 L 391,136 L 391,131 L 392,130 L 392,129 L 393,128 L 393,127 L 392,127 L 391,126 L 391,122 L 392,121 L 393,121 L 395,119 L 399,119 L 400,118 L 400,117 L 401,116 L 402,116 L 402,115 L 401,115 L 400,114 L 400,113 L 401,112 L 402,112 L 403,111 L 403,109 L 402,108 L 402,101 L 399,98 L 398,98 L 397,99 L 396,98 L 396,97 L 390,91 L 389,91 Z" fill="none" stroke="black" stroke-width="1"/>
</svg>