<svg xmlns="http://www.w3.org/2000/svg" width="491" height="213">
  <path d="M 436,103 L 436,104 L 438,104 L 439,105 L 438,106 L 434,106 L 432,104 L 423,104 L 422,105 L 423,106 L 422,107 L 421,107 L 420,106 L 418,106 L 417,105 L 415,105 L 414,104 L 405,104 L 404,105 L 404,111 L 402,113 L 401,113 L 401,114 L 402,114 L 403,115 L 403,118 L 406,118 L 407,117 L 417,117 L 418,118 L 418,119 L 419,120 L 421,120 L 422,121 L 425,121 L 426,120 L 427,120 L 428,119 L 430,119 L 431,118 L 433,118 L 434,119 L 434,120 L 437,120 L 440,117 L 442,117 L 443,118 L 444,118 L 445,119 L 446,119 L 446,118 L 447,117 L 447,116 L 448,115 L 449,115 L 449,113 L 450,112 L 452,112 L 452,109 L 451,108 L 451,106 L 449,106 L 448,105 L 445,105 L 444,104 L 437,104 Z" fill="none" stroke="black" stroke-width="1"/>
</svg>