<svg xmlns="http://www.w3.org/2000/svg" width="491" height="213">
  <path d="M 454,107 L 453,108 L 453,112 L 452,113 L 450,113 L 450,115 L 449,116 L 448,116 L 448,117 L 447,118 L 447,119 L 446,120 L 445,120 L 445,123 L 446,124 L 446,127 L 447,128 L 447,134 L 448,135 L 448,136 L 450,136 L 450,135 L 451,134 L 455,134 L 456,135 L 458,135 L 459,134 L 460,134 L 461,135 L 465,135 L 468,138 L 468,139 L 469,140 L 469,141 L 470,141 L 476,147 L 476,148 L 477,149 L 479,149 L 480,148 L 482,148 L 482,146 L 484,144 L 484,141 L 485,140 L 486,140 L 486,139 L 487,138 L 488,138 L 488,137 L 489,136 L 490,136 L 490,133 L 489,133 L 488,132 L 488,131 L 487,130 L 487,127 L 485,125 L 485,126 L 484,127 L 483,126 L 483,125 L 481,123 L 481,122 L 480,122 L 478,120 L 477,120 L 476,119 L 475,119 L 471,115 L 471,114 L 470,113 L 469,113 L 468,112 L 464,112 L 463,111 L 461,111 L 460,110 L 459,110 L 458,109 L 457,109 L 455,107 Z" fill="none" stroke="black" stroke-width="1"/>
</svg>