<svg xmlns="http://www.w3.org/2000/svg" width="477" height="617">
  <path d="M 233,45 L 230,48 L 230,49 L 227,52 L 224,52 L 222,54 L 219,54 L 214,59 L 213,59 L 213,60 L 212,61 L 207,61 L 207,62 L 206,63 L 204,63 L 202,65 L 201,65 L 200,66 L 199,66 L 199,70 L 197,72 L 197,73 L 196,74 L 196,79 L 194,81 L 194,85 L 192,87 L 191,87 L 192,88 L 192,89 L 194,91 L 195,91 L 199,95 L 199,96 L 202,96 L 203,95 L 204,96 L 204,97 L 205,96 L 208,96 L 209,95 L 209,93 L 212,90 L 212,86 L 217,81 L 217,80 L 218,79 L 218,77 L 221,74 L 222,75 L 222,76 L 220,78 L 220,80 L 221,79 L 221,78 L 222,77 L 222,74 L 225,71 L 227,71 L 228,70 L 228,69 L 230,67 L 230,66 L 231,65 L 231,64 L 233,62 L 234,62 L 234,61 L 235,60 L 236,61 L 236,62 L 237,62 L 239,60 L 237,60 L 236,59 L 238,57 L 239,58 L 240,58 L 240,56 L 241,55 L 239,55 L 238,54 L 240,52 L 241,52 L 241,48 L 238,45 Z" fill="none" stroke="black" stroke-width="1"/>
</svg>