<svg xmlns="http://www.w3.org/2000/svg" width="477" height="617">
  <path d="M 256,99 L 255,100 L 255,101 L 254,102 L 255,102 L 255,101 L 256,100 Z" fill="none" stroke="black" stroke-width="1"/>
  <path d="M 265,91 L 264,92 L 265,92 Z" fill="none" stroke="black" stroke-width="1"/>
  <path d="M 279,84 L 278,85 L 277,85 L 276,86 L 275,85 L 273,85 L 271,87 L 270,86 L 269,87 L 268,87 L 267,88 L 267,89 L 268,90 L 268,92 L 267,93 L 267,94 L 266,95 L 264,95 L 265,96 L 267,96 L 268,97 L 267,98 L 264,98 L 264,99 L 263,100 L 261,98 L 260,98 L 258,100 L 258,103 L 256,105 L 252,105 L 251,106 L 251,108 L 250,109 L 250,110 L 249,111 L 249,113 L 250,114 L 250,117 L 249,118 L 248,118 L 247,119 L 246,119 L 246,126 L 248,128 L 249,128 L 250,127 L 251,127 L 252,126 L 258,126 L 259,125 L 261,125 L 262,124 L 263,124 L 265,122 L 266,122 L 267,121 L 268,121 L 270,119 L 272,119 L 273,118 L 285,118 L 286,117 L 287,117 L 288,116 L 293,116 L 294,115 L 294,114 L 296,112 L 296,111 L 298,109 L 298,107 L 299,106 L 299,105 L 300,104 L 300,102 L 301,101 L 301,93 L 300,92 L 299,93 L 298,92 L 298,90 L 296,90 L 295,91 L 294,91 L 292,89 L 292,87 L 291,87 L 290,88 L 289,87 L 289,86 L 289,87 L 288,88 L 287,87 L 287,85 L 286,86 L 284,86 L 283,85 L 283,84 L 281,84 L 281,86 L 280,87 L 279,86 Z" fill="none" stroke="black" stroke-width="1"/>
</svg>