<svg xmlns="http://www.w3.org/2000/svg" width="477" height="617">
  <path d="M 325,118 L 324,119 L 325,120 L 325,121 Z" fill="none" stroke="black" stroke-width="1"/>
  <path d="M 342,112 L 342,114 L 341,115 L 337,115 L 336,116 L 335,116 L 334,117 L 334,118 L 332,120 L 328,120 L 327,119 L 330,116 L 331,116 L 332,115 L 332,113 L 331,114 L 328,114 L 328,115 L 327,116 L 327,122 L 323,126 L 322,126 L 323,127 L 323,129 L 321,131 L 321,132 L 318,135 L 317,135 L 316,136 L 315,136 L 314,137 L 313,137 L 312,138 L 312,142 L 313,143 L 313,144 L 315,146 L 316,146 L 317,147 L 320,147 L 321,148 L 324,148 L 325,149 L 329,149 L 330,148 L 332,148 L 333,147 L 334,147 L 335,146 L 335,145 L 336,144 L 337,144 L 338,143 L 340,143 L 343,140 L 346,140 L 347,139 L 349,139 L 349,137 L 350,136 L 353,136 L 353,130 L 354,129 L 357,129 L 357,128 L 358,127 L 362,127 L 362,125 L 363,124 L 365,124 L 365,123 L 366,122 L 366,118 L 366,119 L 365,120 L 364,120 L 363,119 L 361,119 L 360,118 L 359,119 L 358,118 L 357,118 L 356,117 L 355,117 L 353,115 L 351,115 L 350,114 L 348,114 L 346,112 Z" fill="none" stroke="black" stroke-width="1"/>
</svg>