<svg xmlns="http://www.w3.org/2000/svg" width="477" height="617">
  <path d="M 412,156 L 410,158 L 409,158 L 407,160 L 402,160 L 401,161 L 397,161 L 396,160 L 395,160 L 394,159 L 391,159 L 390,160 L 389,160 L 388,161 L 387,161 L 386,162 L 384,162 L 384,163 L 383,164 L 382,164 L 382,165 L 383,166 L 383,175 L 384,176 L 384,177 L 389,182 L 389,187 L 392,190 L 392,191 L 393,192 L 393,193 L 394,192 L 400,192 L 401,193 L 405,193 L 408,196 L 408,197 L 409,198 L 410,198 L 412,196 L 413,196 L 414,195 L 416,195 L 416,192 L 417,191 L 416,190 L 416,189 L 415,188 L 415,187 L 414,186 L 414,184 L 415,183 L 415,182 L 416,181 L 416,176 L 417,175 L 417,174 L 418,173 L 418,172 L 420,170 L 420,169 L 422,167 L 423,167 L 426,164 L 426,163 L 427,162 L 427,161 L 425,161 L 424,160 L 421,160 L 420,159 L 419,159 L 418,158 L 417,158 L 416,157 L 414,157 L 413,156 Z" fill="none" stroke="black" stroke-width="1"/>
</svg>