<svg xmlns="http://www.w3.org/2000/svg" width="176" height="123">
  <path d="M 108,50 L 107,51 L 108,52 L 108,53 L 107,54 L 107,57 L 108,58 L 108,59 L 106,61 L 105,60 L 104,60 L 104,61 L 102,63 L 101,63 L 100,64 L 99,64 L 98,65 L 98,66 L 97,67 L 98,67 L 99,66 L 104,66 L 105,67 L 106,67 L 107,66 L 108,66 L 109,67 L 111,67 L 112,66 L 116,66 L 118,64 L 119,64 L 120,63 L 120,62 L 121,61 L 121,60 L 120,59 L 120,58 L 119,57 L 119,55 L 118,56 L 117,56 L 115,54 L 115,52 L 114,53 L 112,53 L 111,52 L 111,51 L 110,51 L 109,50 Z" fill="none" stroke="black" stroke-width="1"/>
</svg>