<svg xmlns="http://www.w3.org/2000/svg" width="477" height="617">
  <path d="M 387,119 L 386,120 L 377,120 L 377,122 L 378,123 L 378,127 L 379,128 L 379,129 L 380,130 L 380,133 L 381,134 L 381,135 L 382,136 L 382,140 L 381,141 L 381,151 L 380,152 L 380,157 L 381,158 L 381,159 L 382,160 L 382,163 L 383,163 L 383,162 L 384,161 L 386,161 L 387,160 L 388,160 L 389,159 L 390,159 L 391,158 L 394,158 L 395,159 L 396,159 L 397,160 L 401,160 L 402,159 L 407,159 L 409,157 L 410,157 L 412,155 L 413,155 L 414,156 L 416,156 L 417,157 L 418,157 L 419,158 L 420,158 L 421,159 L 424,159 L 425,160 L 428,160 L 428,159 L 430,157 L 430,155 L 433,152 L 434,152 L 435,151 L 436,151 L 437,150 L 438,150 L 437,149 L 435,149 L 434,148 L 432,148 L 431,147 L 431,146 L 428,143 L 427,143 L 424,140 L 424,139 L 422,137 L 421,137 L 420,136 L 420,135 L 418,133 L 416,133 L 415,132 L 414,132 L 412,130 L 412,129 L 411,129 L 410,128 L 409,128 L 407,126 L 406,126 L 405,125 L 404,125 L 403,124 L 402,124 L 401,123 L 400,123 L 398,121 L 397,121 L 396,120 L 394,120 L 393,119 Z" fill="none" stroke="black" stroke-width="1"/>
</svg>