<svg xmlns="http://www.w3.org/2000/svg" width="477" height="617">
  <path d="M 378,154 L 378,155 L 377,156 L 375,156 L 374,157 L 373,157 L 369,161 L 368,161 L 367,162 L 366,162 L 365,163 L 363,163 L 362,164 L 361,164 L 360,165 L 357,165 L 355,167 L 353,167 L 351,169 L 348,169 L 348,173 L 351,173 L 352,174 L 352,176 L 351,177 L 350,177 L 350,181 L 349,182 L 342,182 L 342,187 L 343,188 L 343,189 L 342,190 L 342,192 L 341,193 L 341,194 L 340,195 L 340,199 L 339,200 L 339,204 L 338,205 L 338,215 L 340,217 L 340,218 L 341,219 L 341,220 L 342,221 L 342,223 L 343,224 L 345,224 L 346,225 L 348,225 L 349,226 L 353,226 L 354,225 L 356,225 L 358,223 L 359,223 L 361,221 L 362,221 L 363,220 L 365,220 L 367,218 L 367,217 L 369,215 L 370,215 L 372,213 L 372,212 L 373,211 L 375,211 L 376,210 L 377,210 L 378,209 L 379,209 L 379,208 L 382,205 L 384,205 L 384,204 L 387,201 L 387,198 L 392,193 L 392,192 L 391,191 L 391,190 L 388,187 L 388,182 L 383,177 L 383,176 L 382,175 L 382,166 L 381,165 L 381,160 L 380,159 L 380,158 L 379,157 L 379,154 Z" fill="none" stroke="black" stroke-width="1"/>
</svg>