<svg xmlns="http://www.w3.org/2000/svg" width="477" height="617">
  <path d="M 437,151 L 436,152 L 435,152 L 434,153 L 433,153 L 431,155 L 431,157 L 429,159 L 429,160 L 428,161 L 428,162 L 427,163 L 427,164 L 424,167 L 424,171 L 425,172 L 426,172 L 427,173 L 428,173 L 429,174 L 432,174 L 434,176 L 435,176 L 436,177 L 436,178 L 437,179 L 438,179 L 439,180 L 440,180 L 441,181 L 445,181 L 446,180 L 449,180 L 449,178 L 451,176 L 452,176 L 453,175 L 462,175 L 463,174 L 473,174 L 472,173 L 472,171 L 471,170 L 471,169 L 470,168 L 470,163 L 469,162 L 469,161 L 468,160 L 468,159 L 465,156 L 462,156 L 461,155 L 457,155 L 456,156 L 452,156 L 451,155 L 449,155 L 448,156 L 447,156 L 444,153 L 440,153 L 438,151 Z" fill="none" stroke="black" stroke-width="1"/>
</svg>