<svg xmlns="http://www.w3.org/2000/svg" width="477" height="617">
  <path d="M 463,175 L 462,176 L 453,176 L 452,177 L 451,177 L 450,178 L 450,183 L 447,186 L 447,188 L 446,189 L 446,190 L 445,191 L 445,193 L 446,194 L 446,198 L 447,199 L 447,200 L 448,200 L 449,199 L 450,199 L 451,198 L 454,198 L 455,197 L 457,197 L 458,196 L 460,196 L 461,195 L 463,195 L 466,192 L 467,192 L 468,191 L 474,191 L 475,192 L 476,192 L 476,187 L 475,186 L 475,183 L 474,182 L 474,177 L 473,176 L 473,175 Z" fill="none" stroke="black" stroke-width="1"/>
</svg>