<svg xmlns="http://www.w3.org/2000/svg" width="477" height="617">
  <path d="M 468,192 L 467,193 L 466,193 L 463,196 L 461,196 L 460,197 L 458,197 L 457,198 L 455,198 L 454,199 L 451,199 L 450,200 L 449,200 L 448,201 L 447,201 L 447,202 L 446,203 L 446,207 L 447,208 L 447,209 L 448,210 L 448,211 L 450,213 L 450,215 L 452,215 L 453,214 L 455,214 L 456,213 L 462,213 L 463,212 L 468,212 L 469,211 L 473,211 L 473,209 L 474,208 L 474,205 L 475,204 L 475,203 L 476,202 L 476,199 L 475,198 L 475,197 L 476,196 L 476,193 L 475,193 L 474,192 Z" fill="none" stroke="black" stroke-width="1"/>
</svg>