<svg xmlns="http://www.w3.org/2000/svg" width="477" height="617">
  <path d="M 417,281 L 415,283 L 415,284 L 417,282 Z" fill="none" stroke="black" stroke-width="1"/>
  <path d="M 425,254 L 425,255 L 423,257 L 423,258 L 422,259 L 422,261 L 419,264 L 418,264 L 417,265 L 416,265 L 414,267 L 411,267 L 410,268 L 408,268 L 403,273 L 403,274 L 402,275 L 405,275 L 407,277 L 410,277 L 412,279 L 412,278 L 413,277 L 414,278 L 415,278 L 415,276 L 416,275 L 417,276 L 417,277 L 419,277 L 420,278 L 420,281 L 419,282 L 420,282 L 427,275 L 427,274 L 428,273 L 428,272 L 431,269 L 431,267 L 432,266 L 432,265 L 433,264 L 433,263 L 434,262 L 434,261 L 435,260 L 435,258 L 430,258 L 429,257 L 428,257 L 426,255 L 426,254 Z" fill="none" stroke="black" stroke-width="1"/>
</svg>