<svg xmlns="http://www.w3.org/2000/svg" width="477" height="617">
  <path d="M 400,276 L 399,277 L 399,278 L 398,279 L 398,280 L 397,281 L 397,282 L 398,283 L 399,283 L 403,287 L 403,298 L 402,299 L 402,302 L 401,303 L 401,307 L 400,308 L 400,318 L 401,319 L 401,327 L 403,327 L 404,326 L 405,326 L 406,325 L 407,325 L 408,324 L 411,324 L 412,325 L 412,321 L 411,320 L 411,313 L 410,312 L 410,307 L 411,306 L 411,301 L 410,300 L 412,298 L 412,297 L 411,297 L 410,296 L 411,295 L 411,292 L 412,291 L 412,290 L 413,289 L 412,289 L 412,290 L 411,291 L 410,290 L 410,288 L 413,285 L 413,282 L 415,280 L 412,280 L 410,278 L 407,278 L 405,276 Z" fill="none" stroke="black" stroke-width="1"/>
</svg>