<svg xmlns="http://www.w3.org/2000/svg" width="477" height="617">
  <path d="M 227,280 L 226,281 L 226,284 L 223,287 L 223,289 L 221,291 L 221,296 L 218,299 L 218,308 L 217,309 L 217,310 L 215,312 L 212,312 L 211,313 L 210,313 L 207,316 L 203,316 L 203,322 L 204,323 L 204,324 L 209,329 L 209,330 L 210,331 L 211,331 L 213,333 L 215,333 L 217,335 L 225,335 L 226,336 L 232,336 L 233,335 L 234,335 L 235,336 L 236,336 L 237,337 L 239,337 L 240,336 L 241,336 L 242,335 L 243,335 L 245,333 L 246,333 L 247,332 L 254,332 L 255,331 L 256,331 L 257,330 L 258,330 L 259,331 L 263,331 L 265,329 L 266,329 L 266,328 L 267,327 L 266,327 L 265,326 L 265,325 L 264,324 L 264,321 L 265,320 L 265,315 L 262,312 L 262,310 L 260,308 L 258,308 L 257,307 L 254,307 L 253,306 L 252,306 L 250,304 L 250,303 L 249,303 L 248,302 L 247,302 L 245,300 L 245,298 L 244,297 L 244,296 L 243,295 L 243,293 L 244,292 L 244,289 L 246,287 L 246,286 L 248,284 L 248,283 L 245,283 L 244,282 L 242,282 L 241,281 L 234,281 L 233,280 Z" fill="none" stroke="black" stroke-width="1"/>
</svg>