<svg xmlns="http://www.w3.org/2000/svg" width="477" height="617">
  <path d="M 332,310 L 332,312 L 330,314 L 329,314 L 329,317 L 328,318 L 327,318 L 327,320 L 325,322 L 324,322 L 324,324 L 323,325 L 318,325 L 318,329 L 317,330 L 316,330 L 316,345 L 318,345 L 319,346 L 319,351 L 314,356 L 314,357 L 313,358 L 313,360 L 315,360 L 316,361 L 317,361 L 318,362 L 327,362 L 328,363 L 333,363 L 335,365 L 335,366 L 336,367 L 338,367 L 339,366 L 339,365 L 343,361 L 344,361 L 344,360 L 345,359 L 345,358 L 349,354 L 349,353 L 353,349 L 353,348 L 354,347 L 354,346 L 355,345 L 355,343 L 357,341 L 357,339 L 358,338 L 358,337 L 362,333 L 363,333 L 363,332 L 368,327 L 371,327 L 370,326 L 370,323 L 368,321 L 368,320 L 367,320 L 366,319 L 365,319 L 364,318 L 362,318 L 361,317 L 360,317 L 359,316 L 356,316 L 352,312 L 351,312 L 350,311 L 348,311 L 347,310 L 344,310 L 343,311 L 338,311 L 337,310 Z" fill="none" stroke="black" stroke-width="1"/>
</svg>