<svg xmlns="http://www.w3.org/2000/svg" width="477" height="617">
  <path d="M 408,325 L 407,326 L 406,326 L 405,327 L 404,327 L 403,328 L 400,328 L 399,329 L 398,329 L 397,330 L 392,330 L 392,333 L 391,334 L 391,335 L 390,336 L 389,336 L 389,338 L 390,339 L 390,341 L 389,342 L 389,343 L 388,344 L 388,345 L 387,346 L 387,349 L 386,350 L 386,351 L 387,352 L 387,354 L 388,355 L 388,356 L 390,358 L 390,364 L 388,366 L 388,368 L 387,369 L 388,369 L 391,372 L 394,372 L 395,373 L 398,373 L 399,374 L 399,373 L 400,372 L 400,370 L 401,369 L 401,366 L 406,361 L 407,361 L 409,359 L 409,358 L 408,357 L 408,347 L 409,346 L 409,342 L 410,341 L 410,337 L 411,336 L 411,334 L 412,333 L 412,330 L 413,329 L 413,327 L 411,325 Z" fill="none" stroke="black" stroke-width="1"/>
</svg>