<svg xmlns="http://www.w3.org/2000/svg" width="477" height="617">
  <path d="M 381,369 L 380,370 L 376,370 L 375,371 L 374,371 L 374,373 L 373,374 L 373,376 L 372,377 L 372,379 L 373,380 L 373,386 L 372,387 L 372,390 L 370,392 L 369,392 L 364,397 L 364,407 L 359,412 L 359,416 L 361,418 L 361,419 L 362,419 L 363,420 L 368,420 L 369,421 L 377,421 L 378,422 L 379,422 L 379,421 L 380,420 L 380,417 L 382,415 L 382,414 L 383,413 L 383,411 L 384,410 L 386,410 L 389,407 L 389,406 L 390,405 L 390,404 L 391,403 L 390,402 L 390,401 L 391,400 L 392,401 L 392,400 L 393,399 L 393,396 L 395,394 L 395,393 L 397,391 L 398,391 L 399,390 L 399,389 L 400,388 L 400,379 L 399,378 L 399,375 L 398,374 L 395,374 L 394,373 L 391,373 L 388,370 L 387,370 L 386,369 Z" fill="none" stroke="black" stroke-width="1"/>
</svg>