<svg xmlns="http://www.w3.org/2000/svg" width="477" height="617">
  <path d="M 358,416 L 357,417 L 356,417 L 355,418 L 354,418 L 354,419 L 348,425 L 347,425 L 347,428 L 349,430 L 349,433 L 350,434 L 350,439 L 349,440 L 349,443 L 348,444 L 348,446 L 354,446 L 355,445 L 364,445 L 364,444 L 365,443 L 365,442 L 364,441 L 364,440 L 366,438 L 366,437 L 368,435 L 369,435 L 370,434 L 371,434 L 372,433 L 373,433 L 374,432 L 376,432 L 377,431 L 378,431 L 379,430 L 380,430 L 380,424 L 379,423 L 378,423 L 377,422 L 369,422 L 368,421 L 363,421 L 362,420 L 361,420 L 360,419 L 360,418 Z" fill="none" stroke="black" stroke-width="1"/>
</svg>