<svg xmlns="http://www.w3.org/2000/svg" width="477" height="617">
  <path d="M 340,425 L 339,426 L 336,426 L 333,429 L 327,429 L 326,430 L 324,430 L 323,431 L 323,432 L 324,433 L 324,439 L 325,440 L 325,442 L 327,444 L 327,445 L 328,445 L 330,447 L 330,448 L 329,449 L 332,449 L 331,449 L 330,448 L 333,445 L 335,445 L 336,444 L 337,445 L 338,445 L 340,447 L 341,447 L 342,446 L 345,446 L 345,444 L 344,443 L 345,442 L 346,442 L 347,441 L 348,441 L 348,440 L 349,439 L 349,434 L 348,433 L 348,430 L 346,428 L 346,425 Z" fill="none" stroke="black" stroke-width="1"/>
</svg>