<svg xmlns="http://www.w3.org/2000/svg" width="477" height="617">
  <path d="M 321,432 L 320,433 L 319,433 L 318,434 L 318,435 L 316,437 L 315,437 L 314,438 L 312,438 L 311,439 L 310,439 L 309,440 L 295,440 L 294,441 L 294,442 L 295,443 L 295,444 L 297,446 L 298,446 L 299,447 L 302,447 L 303,448 L 303,452 L 305,454 L 306,454 L 308,456 L 309,456 L 310,457 L 312,457 L 313,456 L 314,456 L 315,455 L 317,455 L 317,454 L 319,452 L 325,452 L 325,451 L 323,451 L 322,450 L 322,448 L 323,447 L 325,447 L 326,446 L 326,444 L 324,442 L 324,440 L 323,439 L 323,433 L 322,432 Z" fill="none" stroke="black" stroke-width="1"/>
</svg>