<svg xmlns="http://www.w3.org/2000/svg" width="477" height="617">
  <path d="M 312,360 L 312,362 L 310,364 L 310,366 L 306,370 L 305,370 L 299,376 L 297,376 L 296,377 L 296,378 L 298,380 L 298,383 L 299,384 L 299,391 L 300,392 L 300,393 L 301,394 L 301,395 L 302,396 L 303,396 L 304,397 L 304,401 L 303,402 L 302,402 L 302,406 L 304,408 L 305,408 L 306,409 L 307,409 L 310,412 L 310,413 L 311,414 L 314,414 L 315,415 L 316,415 L 317,416 L 320,416 L 321,417 L 322,417 L 323,418 L 325,418 L 326,419 L 329,419 L 330,418 L 335,418 L 335,412 L 336,411 L 336,403 L 335,402 L 335,400 L 336,399 L 336,398 L 339,395 L 340,395 L 342,393 L 343,393 L 345,391 L 347,391 L 348,390 L 349,390 L 351,388 L 351,387 L 352,386 L 352,385 L 353,384 L 353,383 L 356,380 L 356,378 L 354,376 L 353,376 L 352,375 L 351,375 L 349,373 L 349,369 L 350,368 L 350,365 L 346,361 L 346,360 L 345,360 L 345,361 L 344,362 L 343,362 L 340,365 L 340,366 L 338,368 L 336,368 L 334,366 L 334,365 L 333,364 L 328,364 L 327,363 L 318,363 L 317,362 L 316,362 L 315,361 L 313,361 Z" fill="none" stroke="black" stroke-width="1"/>
</svg>