<svg xmlns="http://www.w3.org/2000/svg" width="477" height="617">
  <path d="M 288,441 L 287,442 L 286,442 L 285,443 L 285,444 L 284,445 L 284,446 L 283,447 L 283,449 L 282,450 L 281,450 L 281,451 L 280,452 L 280,453 L 279,454 L 278,454 L 275,457 L 273,457 L 270,460 L 269,460 L 268,461 L 266,461 L 265,462 L 258,462 L 257,463 L 256,463 L 255,464 L 250,464 L 249,465 L 248,465 L 248,466 L 250,468 L 251,468 L 252,469 L 252,470 L 253,470 L 254,471 L 259,471 L 260,472 L 261,472 L 262,473 L 264,473 L 265,474 L 268,474 L 269,475 L 269,476 L 271,476 L 272,477 L 272,478 L 273,479 L 276,476 L 277,476 L 278,475 L 279,475 L 280,474 L 281,474 L 282,473 L 283,473 L 287,469 L 287,468 L 288,467 L 289,467 L 290,466 L 291,466 L 292,465 L 293,465 L 295,463 L 295,462 L 296,461 L 297,461 L 298,462 L 297,463 L 299,463 L 300,462 L 300,461 L 301,460 L 302,460 L 303,459 L 308,459 L 309,460 L 310,460 L 311,461 L 311,462 L 314,462 L 314,460 L 313,459 L 313,460 L 312,461 L 311,460 L 311,458 L 310,458 L 309,457 L 308,457 L 306,455 L 305,455 L 302,452 L 302,448 L 299,448 L 298,447 L 297,447 L 294,444 L 294,443 L 293,442 L 291,442 L 290,441 Z" fill="none" stroke="black" stroke-width="1"/>
</svg>