<svg xmlns="http://www.w3.org/2000/svg" width="171" height="149">
  <path d="M 72,108 L 71,109 L 71,112 L 70,113 L 70,114 L 69,115 L 67,115 L 65,117 L 65,120 L 64,121 L 62,121 L 62,122 L 61,123 L 60,123 L 60,126 L 59,127 L 59,128 L 58,129 L 58,130 L 57,131 L 57,132 L 54,135 L 53,135 L 53,137 L 55,139 L 55,141 L 57,141 L 58,142 L 59,142 L 60,143 L 63,143 L 64,142 L 70,142 L 71,141 L 73,141 L 76,138 L 78,138 L 78,137 L 79,136 L 81,136 L 82,135 L 82,131 L 81,130 L 81,128 L 80,127 L 80,123 L 82,121 L 83,121 L 85,119 L 85,118 L 84,117 L 84,113 L 83,112 L 83,111 L 80,111 L 79,110 L 77,110 L 76,109 L 75,109 L 74,108 Z" fill="none" stroke="black" stroke-width="1"/>
</svg>