<svg xmlns="http://www.w3.org/2000/svg" width="477" height="617">
  <path d="M 201,431 L 201,432 L 200,433 L 199,433 L 198,434 L 192,434 L 191,433 L 189,433 L 189,435 L 188,436 L 188,438 L 187,439 L 187,441 L 186,442 L 186,444 L 184,446 L 184,448 L 183,449 L 183,451 L 181,453 L 180,453 L 178,455 L 178,456 L 177,457 L 177,461 L 175,463 L 173,463 L 173,473 L 172,474 L 172,488 L 171,489 L 171,491 L 172,491 L 173,490 L 176,490 L 177,491 L 185,491 L 186,492 L 192,492 L 193,493 L 196,493 L 197,494 L 203,494 L 204,495 L 207,495 L 208,496 L 208,497 L 212,497 L 214,495 L 215,495 L 216,494 L 217,494 L 218,493 L 219,493 L 221,491 L 221,488 L 220,487 L 220,484 L 219,483 L 219,480 L 218,479 L 218,477 L 217,477 L 216,476 L 216,475 L 215,474 L 215,472 L 214,471 L 211,471 L 209,469 L 209,465 L 210,464 L 210,463 L 211,462 L 211,457 L 210,457 L 208,455 L 207,455 L 206,454 L 206,453 L 208,451 L 209,451 L 210,450 L 211,450 L 212,449 L 213,449 L 215,447 L 216,447 L 216,446 L 218,444 L 219,444 L 220,443 L 220,442 L 219,441 L 218,441 L 217,442 L 214,442 L 213,441 L 211,441 L 210,440 L 210,439 L 209,439 L 208,438 L 205,438 L 204,437 L 204,433 L 203,432 L 203,431 Z" fill="none" stroke="black" stroke-width="1"/>
</svg>