<svg xmlns="http://www.w3.org/2000/svg" width="477" height="617">
  <path d="M 250,469 L 250,470 L 246,474 L 246,475 L 244,477 L 244,478 L 241,481 L 241,482 L 240,483 L 240,485 L 239,486 L 238,486 L 237,487 L 237,488 L 236,489 L 236,498 L 242,498 L 243,499 L 248,499 L 250,497 L 251,497 L 253,495 L 253,494 L 255,492 L 257,492 L 259,494 L 261,494 L 262,493 L 263,493 L 263,492 L 265,490 L 264,490 L 263,489 L 263,488 L 264,487 L 264,486 L 265,485 L 267,485 L 268,486 L 267,487 L 268,487 L 268,486 L 271,483 L 272,483 L 272,482 L 271,482 L 270,481 L 271,480 L 272,480 L 272,479 L 271,478 L 271,477 L 269,477 L 268,476 L 268,475 L 265,475 L 264,474 L 262,474 L 261,473 L 260,473 L 259,472 L 254,472 L 253,471 L 252,471 L 251,470 L 251,469 Z" fill="none" stroke="black" stroke-width="1"/>
</svg>