<svg xmlns="http://www.w3.org/2000/svg" width="171" height="149">
  <path d="M 149,86 L 147,88 L 147,89 L 146,90 L 144,90 L 144,91 L 145,92 L 145,94 L 146,95 L 146,98 L 148,100 L 148,105 L 146,107 L 146,108 L 145,109 L 143,109 L 142,110 L 141,110 L 141,111 L 142,112 L 142,117 L 147,117 L 148,116 L 153,116 L 153,115 L 154,114 L 158,114 L 158,113 L 159,112 L 161,112 L 161,107 L 162,106 L 162,105 L 163,104 L 163,102 L 162,102 L 160,100 L 160,98 L 163,95 L 163,92 L 165,90 L 165,87 L 164,86 L 159,86 L 158,87 L 154,87 L 153,86 Z" fill="none" stroke="black" stroke-width="1"/>
</svg>