<svg xmlns="http://www.w3.org/2000/svg" width="299" height="181">
  <path d="M 143,0 L 143,2 L 142,3 L 140,3 L 138,1 L 132,1 L 132,2 L 131,3 L 129,3 L 129,4 L 128,5 L 127,5 L 126,6 L 127,7 L 127,10 L 125,12 L 124,12 L 122,14 L 122,16 L 123,17 L 123,18 L 124,19 L 123,20 L 123,21 L 122,22 L 121,22 L 121,23 L 122,24 L 122,30 L 123,31 L 124,31 L 125,32 L 125,33 L 126,34 L 126,35 L 127,35 L 128,36 L 128,38 L 127,39 L 126,39 L 126,40 L 124,42 L 125,43 L 125,44 L 126,45 L 126,46 L 128,48 L 128,49 L 131,49 L 132,48 L 134,48 L 135,47 L 135,45 L 136,44 L 136,41 L 137,40 L 137,39 L 138,38 L 138,37 L 139,36 L 140,36 L 140,35 L 141,34 L 142,34 L 145,31 L 145,26 L 144,25 L 143,25 L 142,24 L 142,23 L 143,22 L 143,20 L 144,19 L 146,19 L 148,21 L 149,21 L 151,19 L 152,19 L 155,16 L 155,14 L 156,13 L 156,7 L 157,6 L 157,3 L 155,1 L 154,2 L 149,2 L 148,3 L 146,3 Z" fill="none" stroke="black" stroke-width="1"/>
</svg>