<svg xmlns="http://www.w3.org/2000/svg" width="588" height="448">
  <path d="M 231,110 L 231,112 L 230,113 L 229,113 L 229,114 L 228,115 L 227,115 L 228,116 L 228,120 L 229,121 L 229,127 L 230,127 L 231,128 L 231,132 L 230,133 L 230,135 L 229,136 L 228,136 L 227,137 L 225,137 L 223,139 L 223,143 L 224,144 L 224,148 L 225,148 L 226,147 L 227,147 L 228,146 L 231,146 L 232,145 L 240,145 L 241,146 L 242,146 L 245,149 L 245,150 L 246,151 L 246,152 L 256,152 L 257,151 L 258,151 L 259,150 L 262,150 L 263,149 L 264,149 L 266,147 L 266,144 L 265,143 L 264,143 L 263,142 L 263,137 L 266,134 L 266,133 L 271,128 L 271,126 L 270,126 L 269,125 L 267,125 L 266,124 L 261,124 L 260,123 L 259,123 L 257,121 L 257,120 L 256,119 L 256,118 L 253,115 L 251,115 L 250,114 L 248,114 L 247,113 L 241,113 L 240,114 L 237,114 L 233,110 Z" fill="none" stroke="black" stroke-width="1"/>
</svg>