<svg xmlns="http://www.w3.org/2000/svg" width="588" height="448">
  <path d="M 291,117 L 292,118 L 292,119 L 291,120 L 290,120 L 289,121 L 289,122 L 288,123 L 288,124 L 287,125 L 286,125 L 285,124 L 284,125 L 281,125 L 280,124 L 279,124 L 277,122 L 275,122 L 273,124 L 273,126 L 272,127 L 272,128 L 267,133 L 267,134 L 264,137 L 264,142 L 265,142 L 267,144 L 267,145 L 270,145 L 271,146 L 272,146 L 274,148 L 275,148 L 276,149 L 276,150 L 277,151 L 277,163 L 278,164 L 278,165 L 279,166 L 279,168 L 278,169 L 278,173 L 280,173 L 281,174 L 281,175 L 291,165 L 291,163 L 292,162 L 292,160 L 293,159 L 294,159 L 298,155 L 299,155 L 300,154 L 301,154 L 304,151 L 304,150 L 306,148 L 306,147 L 307,146 L 307,143 L 308,142 L 308,141 L 307,140 L 307,139 L 306,138 L 305,138 L 304,137 L 304,132 L 305,131 L 305,128 L 304,127 L 304,126 L 303,125 L 303,124 L 301,122 L 299,122 L 296,119 L 295,119 L 293,117 Z" fill="none" stroke="black" stroke-width="1"/>
</svg>