<svg xmlns="http://www.w3.org/2000/svg" width="690" height="339">
  <path d="M 547,231 L 546,232 L 544,232 L 543,233 L 541,233 L 540,232 L 539,232 L 538,233 L 537,233 L 536,234 L 536,235 L 535,236 L 534,236 L 533,237 L 532,237 L 531,238 L 529,238 L 528,239 L 522,239 L 521,240 L 521,246 L 519,248 L 519,249 L 518,250 L 518,252 L 515,255 L 514,255 L 514,257 L 515,257 L 516,258 L 516,259 L 514,261 L 514,264 L 511,267 L 510,267 L 508,269 L 508,272 L 510,274 L 510,275 L 511,276 L 511,277 L 505,283 L 505,284 L 504,285 L 504,286 L 505,287 L 507,287 L 508,288 L 508,289 L 509,290 L 510,290 L 511,291 L 511,294 L 512,295 L 514,293 L 515,293 L 516,292 L 518,292 L 519,291 L 523,291 L 524,290 L 525,290 L 526,291 L 527,291 L 529,293 L 533,293 L 534,292 L 536,292 L 536,287 L 538,285 L 539,285 L 540,284 L 540,280 L 541,279 L 541,278 L 543,276 L 543,275 L 544,274 L 544,273 L 545,272 L 545,271 L 546,270 L 546,268 L 547,267 L 547,264 L 548,263 L 548,262 L 551,259 L 551,258 L 553,256 L 554,256 L 555,255 L 556,255 L 556,244 L 555,243 L 555,242 L 554,241 L 554,239 L 555,238 L 555,234 L 556,233 L 556,232 L 551,232 L 550,231 Z" fill="none" stroke="black" stroke-width="1"/>
</svg>