<svg xmlns="http://www.w3.org/2000/svg" width="284" height="322">
  <path d="M 216,206 L 215,207 L 214,207 L 214,209 L 216,211 L 216,215 L 218,217 L 218,218 L 219,219 L 219,224 L 220,225 L 220,230 L 218,232 L 211,232 L 211,235 L 210,236 L 210,241 L 208,243 L 208,245 L 213,245 L 217,249 L 218,249 L 220,251 L 221,251 L 222,250 L 224,250 L 226,248 L 227,248 L 228,247 L 229,247 L 230,246 L 232,246 L 232,245 L 236,241 L 237,241 L 238,240 L 241,240 L 245,236 L 245,235 L 249,231 L 250,231 L 252,229 L 256,229 L 258,227 L 262,227 L 263,226 L 264,226 L 264,225 L 265,224 L 265,214 L 263,212 L 261,212 L 260,213 L 256,213 L 254,215 L 253,215 L 252,216 L 250,216 L 245,211 L 242,211 L 241,210 L 240,210 L 239,209 L 238,209 L 237,208 L 235,208 L 234,207 L 231,207 L 230,206 Z" fill="none" stroke="black" stroke-width="1"/>
</svg>