<svg xmlns="http://www.w3.org/2000/svg" width="284" height="322">
  <path d="M 252,168 L 251,169 L 248,169 L 247,170 L 246,170 L 245,171 L 243,171 L 242,172 L 238,172 L 234,176 L 230,176 L 229,177 L 223,177 L 222,176 L 219,176 L 218,175 L 213,175 L 212,174 L 205,174 L 205,178 L 204,179 L 204,180 L 203,181 L 202,181 L 200,183 L 199,183 L 199,195 L 200,196 L 200,199 L 202,201 L 203,201 L 204,202 L 207,202 L 208,203 L 210,203 L 212,205 L 212,206 L 215,206 L 216,205 L 230,205 L 231,206 L 234,206 L 235,207 L 237,207 L 238,208 L 239,208 L 240,209 L 241,209 L 242,210 L 245,210 L 250,215 L 252,215 L 253,214 L 254,214 L 256,212 L 260,212 L 261,211 L 263,211 L 265,213 L 268,213 L 269,212 L 269,208 L 270,207 L 270,206 L 273,203 L 274,203 L 275,202 L 275,200 L 276,199 L 276,197 L 278,195 L 278,193 L 279,192 L 279,190 L 280,189 L 280,187 L 281,186 L 281,182 L 282,181 L 282,180 L 283,179 L 283,176 L 282,176 L 281,175 L 280,175 L 279,174 L 277,174 L 276,173 L 271,173 L 270,172 L 268,172 L 267,171 L 265,171 L 264,170 L 262,170 L 261,169 L 258,169 L 257,168 Z" fill="none" stroke="black" stroke-width="1"/>
</svg>