<svg xmlns="http://www.w3.org/2000/svg" width="588" height="448">
  <path d="M 218,42 L 217,43 L 214,43 L 214,55 L 213,56 L 211,56 L 211,64 L 210,65 L 210,70 L 209,71 L 208,71 L 208,73 L 207,74 L 206,74 L 208,76 L 209,76 L 210,77 L 216,77 L 219,80 L 222,80 L 223,81 L 224,81 L 226,83 L 227,83 L 227,82 L 228,81 L 228,80 L 229,79 L 229,77 L 230,76 L 230,73 L 231,72 L 231,71 L 234,68 L 234,67 L 236,65 L 237,65 L 237,64 L 240,61 L 240,60 L 243,57 L 243,56 L 244,55 L 244,50 L 245,49 L 245,46 L 241,46 L 240,45 L 238,45 L 236,43 L 221,43 L 220,42 Z" fill="none" stroke="black" stroke-width="1"/>
</svg>