<svg xmlns="http://www.w3.org/2000/svg" width="588" height="448">
  <path d="M 205,153 L 205,155 L 204,156 L 202,156 L 202,157 L 199,160 L 198,160 L 197,161 L 195,161 L 194,162 L 192,162 L 190,164 L 189,164 L 189,165 L 185,169 L 185,171 L 187,173 L 187,174 L 188,174 L 189,175 L 189,176 L 190,177 L 194,177 L 195,178 L 198,178 L 199,179 L 200,179 L 202,181 L 202,185 L 203,186 L 204,186 L 205,187 L 206,187 L 207,188 L 208,188 L 211,191 L 211,192 L 212,193 L 213,193 L 214,194 L 218,194 L 219,195 L 221,195 L 222,196 L 224,196 L 225,197 L 227,197 L 228,198 L 232,198 L 232,194 L 233,193 L 233,192 L 234,191 L 235,191 L 236,190 L 236,188 L 235,187 L 235,186 L 234,185 L 234,183 L 233,182 L 232,182 L 230,180 L 229,180 L 228,179 L 227,179 L 225,177 L 223,177 L 222,176 L 221,176 L 217,172 L 217,168 L 218,167 L 218,165 L 217,164 L 217,162 L 216,161 L 216,156 L 211,156 L 210,155 L 210,154 L 207,154 L 206,153 Z" fill="none" stroke="black" stroke-width="1"/>
</svg>