<svg xmlns="http://www.w3.org/2000/svg" width="588" height="448">
  <path d="M 225,198 L 225,199 L 226,200 L 226,205 L 225,206 L 225,207 L 224,208 L 224,209 L 223,210 L 218,210 L 217,211 L 216,211 L 215,212 L 210,212 L 209,211 L 209,213 L 208,214 L 208,215 L 207,216 L 207,217 L 206,218 L 206,221 L 205,222 L 204,222 L 202,224 L 201,224 L 200,223 L 196,223 L 194,225 L 193,225 L 192,226 L 185,226 L 184,227 L 179,227 L 177,229 L 175,229 L 174,230 L 174,232 L 173,233 L 173,241 L 174,242 L 174,245 L 175,246 L 175,247 L 179,247 L 180,248 L 184,248 L 185,247 L 189,247 L 189,246 L 190,245 L 201,245 L 202,244 L 210,244 L 210,243 L 211,242 L 214,242 L 215,241 L 217,241 L 218,240 L 219,240 L 220,239 L 221,239 L 222,238 L 223,238 L 224,237 L 225,237 L 226,236 L 227,236 L 230,233 L 230,230 L 231,229 L 231,228 L 232,227 L 233,227 L 233,226 L 235,224 L 235,223 L 237,221 L 237,220 L 240,217 L 240,216 L 242,214 L 242,204 L 241,204 L 240,205 L 239,205 L 238,204 L 237,204 L 233,200 L 233,199 L 228,199 L 227,198 Z" fill="none" stroke="black" stroke-width="1"/>
</svg>