<svg xmlns="http://www.w3.org/2000/svg" width="588" height="448">
  <path d="M 139,291 L 138,292 L 138,294 L 137,295 L 134,295 L 135,296 L 135,300 L 143,300 L 144,299 L 144,294 L 143,293 L 143,291 Z" fill="none" stroke="black" stroke-width="1"/>
  <path d="M 111,276 L 110,277 L 109,277 L 108,278 L 108,280 L 107,281 L 107,282 L 105,284 L 107,286 L 107,287 L 106,288 L 106,289 L 105,290 L 105,291 L 104,292 L 104,293 L 102,295 L 102,297 L 101,298 L 101,299 L 100,300 L 100,301 L 98,303 L 98,304 L 97,305 L 97,306 L 96,307 L 93,307 L 91,309 L 88,309 L 88,312 L 87,313 L 87,318 L 86,319 L 85,319 L 84,320 L 84,321 L 87,321 L 88,322 L 88,324 L 90,324 L 91,325 L 91,326 L 94,329 L 94,330 L 95,331 L 98,331 L 100,329 L 101,329 L 102,328 L 104,328 L 105,327 L 106,327 L 107,326 L 109,326 L 110,325 L 112,325 L 113,326 L 115,326 L 116,327 L 116,325 L 115,325 L 114,324 L 114,323 L 117,320 L 121,320 L 121,319 L 122,318 L 121,317 L 122,316 L 122,315 L 123,314 L 122,313 L 122,312 L 121,311 L 121,309 L 122,308 L 123,308 L 124,307 L 124,306 L 125,305 L 126,305 L 128,303 L 132,303 L 133,302 L 134,302 L 131,302 L 130,301 L 129,301 L 128,300 L 127,300 L 126,299 L 126,298 L 125,297 L 126,296 L 128,296 L 129,295 L 132,295 L 131,295 L 130,294 L 132,292 L 128,292 L 124,288 L 124,287 L 125,286 L 125,285 L 126,284 L 126,282 L 125,281 L 124,281 L 123,282 L 116,282 L 113,279 L 113,278 L 112,277 L 112,276 Z" fill="none" stroke="black" stroke-width="1"/>
</svg>