<svg xmlns="http://www.w3.org/2000/svg" width="588" height="448">
  <path d="M 81,322 L 81,323 L 74,330 L 74,335 L 75,336 L 75,338 L 74,339 L 74,344 L 73,345 L 73,346 L 72,347 L 72,348 L 71,349 L 71,357 L 73,357 L 74,358 L 77,358 L 81,362 L 82,362 L 83,363 L 83,364 L 85,364 L 86,365 L 89,365 L 90,366 L 91,366 L 94,369 L 97,369 L 99,367 L 102,367 L 103,366 L 105,366 L 108,363 L 109,363 L 110,362 L 111,362 L 112,361 L 113,362 L 113,361 L 112,360 L 111,360 L 110,359 L 111,358 L 113,358 L 113,352 L 112,352 L 111,351 L 110,352 L 107,352 L 106,351 L 103,351 L 100,348 L 99,348 L 98,347 L 97,347 L 93,343 L 93,340 L 92,339 L 92,338 L 93,337 L 93,335 L 94,334 L 95,334 L 95,332 L 93,330 L 93,329 L 90,326 L 90,325 L 88,325 L 87,324 L 87,322 Z" fill="none" stroke="black" stroke-width="1"/>
</svg>