<svg xmlns="http://www.w3.org/2000/svg" width="588" height="448">
  <path d="M 92,441 L 92,443 L 93,444 L 94,444 L 95,445 L 95,442 L 94,443 Z" fill="none" stroke="black" stroke-width="1"/>
  <path d="M 85,440 L 88,443 L 88,441 L 87,441 L 86,440 Z" fill="none" stroke="black" stroke-width="1"/>
  <path d="M 124,438 L 124,439 L 125,438 L 127,438 L 128,439 L 129,439 L 130,438 L 131,438 Z" fill="none" stroke="black" stroke-width="1"/>
  <path d="M 62,434 L 65,434 Z" fill="none" stroke="black" stroke-width="1"/>
  <path d="M 71,409 L 71,410 L 70,411 L 65,411 L 65,412 L 64,413 L 63,412 L 63,417 L 73,417 L 74,418 L 74,420 L 73,421 L 67,421 L 67,424 L 69,424 L 70,425 L 71,425 L 72,426 L 73,426 L 74,427 L 75,427 L 76,428 L 77,428 L 78,429 L 77,430 L 73,430 L 72,429 L 71,429 L 70,430 L 67,427 L 67,430 L 68,431 L 68,432 L 67,433 L 68,433 L 69,434 L 69,436 L 70,436 L 71,435 L 71,434 L 72,433 L 73,434 L 73,437 L 72,438 L 73,438 L 74,439 L 75,439 L 74,438 L 75,437 L 79,437 L 81,439 L 83,439 L 84,438 L 85,438 L 80,438 L 77,435 L 76,435 L 75,434 L 76,433 L 77,433 L 78,432 L 81,432 L 83,434 L 82,435 L 81,435 L 82,436 L 84,436 L 84,435 L 85,434 L 87,436 L 87,438 L 93,438 L 94,439 L 98,439 L 99,440 L 99,439 L 98,438 L 97,438 L 96,437 L 94,437 L 93,436 L 94,435 L 99,435 L 102,438 L 108,438 L 109,437 L 112,437 L 113,438 L 116,438 L 118,436 L 112,436 L 111,435 L 109,435 L 108,434 L 107,434 L 105,432 L 103,432 L 101,430 L 100,430 L 99,429 L 98,429 L 96,427 L 95,427 L 93,425 L 92,425 L 87,420 L 87,419 L 84,419 L 82,417 L 82,415 L 83,414 L 85,414 L 84,413 L 83,413 L 82,412 L 82,411 L 75,411 L 73,409 Z" fill="none" stroke="black" stroke-width="1"/>
</svg>