<svg xmlns="http://www.w3.org/2000/svg" width="588" height="448">
  <path d="M 59,432 L 59,433 Z" fill="none" stroke="black" stroke-width="1"/>
  <path d="M 43,423 L 44,424 L 45,424 L 44,423 Z" fill="none" stroke="black" stroke-width="1"/>
  <path d="M 23,409 L 23,410 L 27,410 L 26,410 L 25,409 Z" fill="none" stroke="black" stroke-width="1"/>
  <path d="M 19,406 L 19,407 L 20,408 L 20,407 Z" fill="none" stroke="black" stroke-width="1"/>
  <path d="M 23,401 L 23,402 L 24,402 L 24,401 Z" fill="none" stroke="black" stroke-width="1"/>
  <path d="M 24,399 L 26,399 Z" fill="none" stroke="black" stroke-width="1"/>
  <path d="M 20,396 L 20,397 L 21,398 L 21,396 Z" fill="none" stroke="black" stroke-width="1"/>
  <path d="M 24,394 L 24,397 L 26,397 L 25,396 L 25,395 Z" fill="none" stroke="black" stroke-width="1"/>
  <path d="M 15,394 L 16,395 L 16,396 L 15,397 L 14,396 L 13,396 L 14,397 L 14,399 L 15,398 L 17,400 L 18,400 L 18,398 L 17,398 L 16,397 L 16,394 Z" fill="none" stroke="black" stroke-width="1"/>
  <path d="M 9,382 L 8,383 L 8,384 L 9,385 L 10,384 L 10,383 L 11,382 Z" fill="none" stroke="black" stroke-width="1"/>
  <path d="M 10,377 L 9,378 L 8,378 L 8,379 L 9,378 L 10,378 L 11,379 L 12,378 L 13,378 L 12,378 L 11,377 Z" fill="none" stroke="black" stroke-width="1"/>
  <path d="M 10,353 L 10,357 L 9,358 L 8,358 L 7,357 L 7,356 L 8,355 L 6,355 L 5,354 L 4,354 L 4,355 L 6,357 L 4,359 L 3,359 L 3,360 L 4,361 L 4,363 L 5,363 L 6,364 L 6,365 L 5,366 L 5,367 L 6,367 L 7,368 L 7,369 L 7,368 L 6,367 L 7,366 L 8,366 L 6,364 L 6,363 L 5,362 L 5,361 L 6,360 L 6,359 L 7,358 L 8,359 L 8,361 L 9,362 L 9,359 L 10,358 L 12,358 L 13,359 L 13,360 L 11,362 L 11,364 L 13,366 L 13,369 L 12,370 L 11,369 L 10,370 L 10,373 L 9,374 L 7,372 L 5,372 L 6,373 L 6,374 L 7,373 L 9,375 L 10,374 L 11,375 L 12,375 L 11,374 L 11,371 L 12,370 L 13,370 L 14,371 L 13,372 L 13,373 L 14,374 L 14,376 L 17,376 L 17,373 L 16,372 L 16,371 L 17,370 L 17,368 L 16,367 L 16,363 L 14,361 L 14,359 L 13,358 L 13,357 L 11,355 L 11,353 Z" fill="none" stroke="black" stroke-width="1"/>
  <path d="M 13,319 L 14,319 L 15,320 L 15,321 L 14,322 L 13,322 L 14,323 L 16,321 L 17,321 L 18,322 L 17,323 L 18,324 L 18,326 L 17,327 L 17,328 L 18,329 L 17,330 L 14,330 L 13,329 L 14,328 L 15,328 L 15,327 L 14,326 L 14,325 L 13,325 L 13,328 L 11,330 L 7,330 L 9,332 L 7,334 L 6,333 L 6,334 L 5,335 L 4,335 L 4,336 L 2,338 L 0,338 L 0,339 L 2,341 L 4,341 L 4,340 L 3,340 L 2,339 L 3,338 L 5,338 L 6,337 L 7,338 L 7,339 L 8,339 L 9,340 L 11,340 L 12,341 L 14,341 L 15,340 L 16,340 L 17,341 L 17,342 L 18,343 L 17,344 L 17,345 L 18,345 L 19,344 L 20,345 L 20,346 L 18,348 L 16,348 L 17,349 L 19,349 L 20,350 L 19,351 L 18,351 L 17,352 L 16,352 L 14,350 L 13,351 L 12,351 L 13,351 L 14,352 L 16,352 L 17,353 L 17,354 L 22,354 L 22,353 L 23,352 L 25,354 L 27,354 L 28,355 L 28,356 L 29,357 L 28,358 L 26,358 L 24,356 L 19,356 L 17,358 L 15,356 L 15,355 L 14,355 L 15,356 L 15,357 L 16,358 L 17,358 L 18,359 L 19,359 L 20,358 L 21,359 L 21,361 L 20,362 L 20,363 L 19,364 L 19,368 L 20,369 L 20,370 L 22,368 L 23,369 L 23,371 L 24,372 L 23,373 L 20,373 L 20,374 L 22,374 L 23,373 L 24,373 L 25,374 L 23,376 L 24,377 L 24,379 L 23,380 L 22,379 L 21,379 L 20,378 L 16,378 L 17,379 L 18,379 L 19,380 L 20,380 L 21,381 L 23,381 L 24,382 L 23,383 L 18,383 L 18,386 L 17,387 L 16,386 L 16,385 L 15,384 L 14,385 L 13,384 L 12,384 L 12,385 L 13,385 L 14,386 L 14,387 L 16,389 L 15,390 L 15,391 L 14,392 L 13,391 L 13,390 L 12,390 L 12,392 L 13,391 L 14,392 L 15,392 L 16,391 L 18,391 L 18,390 L 17,389 L 18,388 L 20,388 L 19,387 L 20,386 L 21,386 L 22,385 L 23,386 L 23,388 L 24,389 L 24,391 L 26,389 L 27,390 L 27,391 L 26,392 L 26,393 L 28,395 L 28,397 L 29,398 L 29,399 L 31,401 L 29,403 L 28,403 L 27,402 L 27,401 L 26,401 L 27,402 L 27,403 L 26,404 L 26,405 L 27,406 L 27,405 L 29,403 L 30,404 L 30,406 L 31,405 L 32,406 L 34,404 L 35,405 L 35,406 L 33,408 L 33,409 L 31,411 L 30,411 L 31,411 L 32,410 L 36,410 L 36,409 L 37,408 L 38,409 L 38,411 L 39,412 L 38,413 L 37,413 L 36,412 L 35,412 L 36,413 L 37,413 L 39,415 L 38,416 L 35,416 L 34,415 L 33,415 L 32,414 L 32,413 L 31,414 L 28,414 L 30,414 L 31,415 L 31,416 L 32,417 L 32,416 L 33,415 L 34,416 L 34,420 L 35,420 L 35,419 L 36,418 L 37,419 L 39,419 L 40,420 L 39,421 L 42,421 L 43,420 L 44,420 L 49,425 L 50,424 L 52,424 L 53,423 L 54,424 L 54,427 L 53,428 L 52,427 L 51,427 L 52,427 L 53,428 L 54,428 L 55,429 L 58,429 L 59,430 L 61,430 L 62,431 L 62,432 L 64,430 L 65,431 L 66,431 L 66,430 L 65,430 L 64,429 L 65,428 L 64,428 L 63,429 L 62,429 L 59,426 L 60,425 L 60,423 L 61,422 L 63,424 L 63,425 L 64,425 L 64,424 L 63,423 L 63,421 L 62,420 L 62,419 L 61,419 L 59,421 L 58,421 L 57,420 L 57,415 L 56,414 L 57,413 L 56,412 L 55,412 L 54,413 L 51,413 L 50,414 L 49,414 L 47,412 L 47,411 L 48,410 L 50,410 L 50,409 L 48,409 L 47,408 L 45,408 L 44,409 L 39,409 L 38,408 L 39,407 L 38,406 L 39,405 L 40,405 L 42,407 L 42,406 L 43,405 L 47,405 L 48,406 L 49,406 L 49,400 L 48,399 L 48,397 L 44,393 L 43,393 L 42,392 L 42,391 L 41,390 L 41,389 L 40,388 L 40,387 L 38,385 L 38,384 L 37,384 L 36,383 L 36,381 L 34,379 L 34,378 L 33,377 L 33,376 L 34,375 L 34,374 L 35,373 L 35,364 L 34,363 L 34,357 L 33,356 L 33,353 L 32,352 L 32,344 L 33,343 L 33,339 L 32,338 L 32,337 L 31,336 L 31,334 L 32,333 L 32,331 L 33,330 L 33,329 L 34,328 L 34,327 L 33,327 L 32,326 L 31,326 L 30,325 L 30,324 L 27,324 L 26,325 L 25,325 L 23,327 L 23,328 L 24,329 L 24,330 L 23,331 L 23,333 L 24,334 L 24,335 L 22,337 L 22,338 L 21,339 L 20,339 L 19,338 L 20,337 L 20,332 L 20,334 L 19,335 L 17,335 L 16,334 L 17,333 L 17,332 L 18,331 L 18,330 L 19,329 L 19,326 L 20,325 L 20,324 L 19,323 L 19,321 L 18,320 L 18,319 Z" fill="none" stroke="black" stroke-width="1"/>
</svg>