<svg xmlns="http://www.w3.org/2000/svg" width="588" height="448">
  <path d="M 25,178 L 25,182 L 24,183 L 24,189 L 22,191 L 21,191 L 21,195 L 20,196 L 20,198 L 21,199 L 21,200 L 19,202 L 19,203 L 18,204 L 18,208 L 17,209 L 17,210 L 19,212 L 24,212 L 25,213 L 25,214 L 27,214 L 28,215 L 29,215 L 30,216 L 30,218 L 31,218 L 32,217 L 32,216 L 33,215 L 33,211 L 34,210 L 35,210 L 36,209 L 37,209 L 39,207 L 39,206 L 41,204 L 41,202 L 40,201 L 40,197 L 39,196 L 39,195 L 38,194 L 38,190 L 39,189 L 39,188 L 40,187 L 40,185 L 41,184 L 41,183 L 40,183 L 39,182 L 37,182 L 36,181 L 34,181 L 33,180 L 31,180 L 29,178 Z" fill="none" stroke="black" stroke-width="1"/>
</svg>