<svg xmlns="http://www.w3.org/2000/svg" width="588" height="448">
  <path d="M 41,205 L 40,206 L 40,207 L 37,210 L 36,210 L 35,211 L 34,211 L 34,215 L 33,216 L 33,217 L 31,219 L 31,223 L 32,224 L 32,229 L 33,230 L 33,231 L 32,232 L 32,235 L 33,236 L 33,239 L 32,240 L 32,242 L 39,242 L 40,243 L 43,243 L 44,244 L 44,245 L 45,246 L 47,246 L 48,247 L 53,247 L 54,246 L 57,246 L 59,244 L 60,244 L 61,243 L 62,243 L 63,242 L 64,242 L 65,241 L 66,241 L 67,240 L 68,240 L 68,237 L 69,236 L 71,236 L 72,235 L 83,235 L 84,234 L 85,234 L 85,230 L 84,229 L 84,228 L 83,227 L 83,226 L 82,225 L 81,225 L 80,224 L 79,224 L 77,222 L 73,222 L 72,221 L 72,220 L 73,219 L 73,217 L 72,217 L 71,216 L 70,216 L 69,215 L 69,214 L 67,214 L 66,213 L 65,213 L 64,212 L 64,211 L 63,210 L 63,209 L 62,208 L 62,207 L 61,207 L 59,205 Z" fill="none" stroke="black" stroke-width="1"/>
</svg>