<svg xmlns="http://www.w3.org/2000/svg" width="588" height="448">
  <path d="M 170,248 L 169,249 L 168,249 L 168,250 L 167,251 L 167,252 L 168,252 L 170,250 L 171,250 L 170,249 Z" fill="none" stroke="black" stroke-width="1"/>
  <path d="M 149,230 L 148,231 L 147,231 L 146,232 L 142,232 L 141,233 L 140,233 L 139,234 L 139,235 L 136,238 L 136,239 L 135,240 L 135,245 L 134,246 L 134,247 L 133,248 L 133,249 L 129,253 L 129,254 L 131,256 L 131,257 L 133,259 L 134,259 L 135,260 L 136,260 L 137,261 L 138,261 L 142,265 L 142,267 L 143,268 L 143,275 L 141,277 L 155,277 L 156,276 L 158,276 L 159,275 L 162,275 L 163,274 L 163,272 L 162,271 L 162,270 L 161,269 L 161,268 L 160,267 L 160,266 L 161,265 L 163,265 L 163,262 L 164,261 L 166,261 L 166,256 L 167,255 L 165,253 L 165,251 L 163,249 L 165,247 L 165,246 L 164,245 L 165,244 L 167,244 L 168,245 L 171,245 L 172,246 L 172,247 L 174,247 L 174,246 L 173,245 L 173,242 L 172,241 L 172,234 L 168,234 L 167,233 L 162,233 L 161,232 L 158,232 L 156,230 Z" fill="none" stroke="black" stroke-width="1"/>
</svg>