<svg xmlns="http://www.w3.org/2000/svg" width="588" height="448">
  <path d="M 47,134 L 46,135 L 42,135 L 41,136 L 40,136 L 38,138 L 37,138 L 35,140 L 26,140 L 26,144 L 23,147 L 22,147 L 23,148 L 23,152 L 25,154 L 25,155 L 26,156 L 26,157 L 27,158 L 27,159 L 28,160 L 28,168 L 29,169 L 28,170 L 28,175 L 27,176 L 27,177 L 29,177 L 31,179 L 33,179 L 34,180 L 36,180 L 37,181 L 39,181 L 40,182 L 42,182 L 43,181 L 43,180 L 44,179 L 44,177 L 46,175 L 46,170 L 44,168 L 44,166 L 45,165 L 45,164 L 46,163 L 46,162 L 47,161 L 47,160 L 48,159 L 48,151 L 49,150 L 49,149 L 50,148 L 50,145 L 51,144 L 51,140 L 50,139 L 50,138 L 49,137 L 49,134 Z" fill="none" stroke="black" stroke-width="1"/>
</svg>