<svg xmlns="http://www.w3.org/2000/svg" width="467" height="484">
  <path d="M 176,307 L 175,308 L 175,309 L 173,311 L 173,314 L 174,315 L 174,317 L 172,319 L 170,319 L 169,320 L 168,320 L 167,321 L 165,321 L 164,322 L 163,322 L 163,323 L 162,324 L 162,325 L 161,326 L 160,326 L 156,330 L 155,330 L 152,333 L 150,333 L 149,332 L 144,332 L 144,334 L 143,335 L 143,343 L 145,345 L 145,346 L 149,346 L 150,345 L 151,345 L 152,344 L 153,344 L 154,343 L 156,343 L 157,342 L 158,342 L 159,341 L 163,341 L 164,340 L 166,340 L 167,339 L 167,338 L 168,337 L 169,337 L 171,335 L 172,335 L 173,334 L 174,334 L 178,330 L 179,330 L 179,329 L 178,328 L 179,327 L 180,327 L 182,325 L 182,323 L 183,322 L 184,322 L 184,321 L 187,318 L 187,317 L 185,315 L 182,315 L 181,314 L 181,312 L 180,311 L 180,309 L 179,308 L 178,308 L 177,307 Z" fill="none" stroke="black" stroke-width="1"/>
</svg>