<svg xmlns="http://www.w3.org/2000/svg" width="337" height="324">
  <path d="M 234,168 L 230,172 L 230,173 L 229,174 L 229,175 L 228,176 L 228,182 L 227,183 L 227,184 L 226,185 L 226,187 L 227,188 L 227,190 L 225,192 L 221,192 L 220,193 L 219,193 L 219,194 L 217,196 L 217,203 L 218,204 L 218,208 L 217,209 L 217,210 L 216,211 L 216,215 L 222,215 L 223,214 L 225,214 L 226,215 L 227,215 L 235,223 L 239,223 L 243,219 L 245,219 L 252,212 L 252,210 L 253,209 L 253,208 L 254,207 L 254,204 L 255,203 L 255,198 L 256,197 L 256,195 L 257,194 L 257,192 L 258,191 L 258,189 L 259,188 L 259,180 L 260,179 L 257,179 L 252,174 L 252,173 L 250,171 L 246,171 L 245,170 L 244,170 L 243,169 L 243,168 Z" fill="none" stroke="black" stroke-width="1"/>
</svg>