<svg xmlns="http://www.w3.org/2000/svg" width="284" height="322">
  <path d="M 169,239 L 168,240 L 165,240 L 163,242 L 162,242 L 159,245 L 157,245 L 156,246 L 155,246 L 153,248 L 153,249 L 152,250 L 152,251 L 150,253 L 150,254 L 149,255 L 149,256 L 148,257 L 148,259 L 147,260 L 147,262 L 146,263 L 146,264 L 145,265 L 145,268 L 143,270 L 142,270 L 140,272 L 139,272 L 139,276 L 138,277 L 136,277 L 134,279 L 134,283 L 135,283 L 136,284 L 136,287 L 138,287 L 139,288 L 139,292 L 140,292 L 141,293 L 141,294 L 142,295 L 142,296 L 144,296 L 145,297 L 146,297 L 148,299 L 148,301 L 152,301 L 153,302 L 153,304 L 154,305 L 154,310 L 153,311 L 153,316 L 154,317 L 154,318 L 155,319 L 156,319 L 158,321 L 162,321 L 165,318 L 167,318 L 168,317 L 176,317 L 177,316 L 177,311 L 178,310 L 178,302 L 179,301 L 181,301 L 182,300 L 183,300 L 183,298 L 184,297 L 185,297 L 185,292 L 186,291 L 186,283 L 187,282 L 189,282 L 189,270 L 190,269 L 193,269 L 193,265 L 194,264 L 196,264 L 196,263 L 198,261 L 194,257 L 194,256 L 193,256 L 192,255 L 189,255 L 188,254 L 186,254 L 184,252 L 183,252 L 175,244 L 174,244 L 172,242 L 171,242 L 170,241 L 170,240 Z" fill="none" stroke="black" stroke-width="1"/>
</svg>