<svg xmlns="http://www.w3.org/2000/svg" width="284" height="322">
  <path d="M 63,254 L 63,255 L 60,258 L 58,258 L 56,260 L 56,261 L 55,262 L 55,264 L 52,267 L 50,267 L 49,268 L 44,268 L 41,265 L 41,264 L 39,262 L 37,262 L 37,265 L 36,266 L 36,268 L 35,269 L 35,270 L 33,272 L 33,273 L 32,274 L 32,284 L 30,286 L 30,288 L 31,288 L 32,289 L 33,289 L 34,290 L 35,290 L 36,291 L 37,291 L 38,292 L 39,292 L 40,291 L 48,291 L 49,290 L 60,290 L 61,291 L 62,291 L 62,290 L 63,289 L 68,289 L 69,290 L 70,290 L 72,292 L 72,293 L 73,294 L 73,297 L 74,297 L 75,298 L 79,298 L 80,299 L 81,299 L 83,301 L 84,301 L 87,304 L 87,305 L 90,308 L 93,308 L 97,304 L 97,297 L 96,296 L 96,282 L 94,282 L 93,283 L 89,283 L 87,281 L 87,280 L 86,280 L 83,277 L 83,274 L 80,271 L 80,268 L 82,266 L 82,262 L 80,260 L 80,259 L 78,257 L 78,256 L 76,256 L 75,255 L 73,255 L 72,254 L 71,255 L 67,255 L 66,254 Z" fill="none" stroke="black" stroke-width="1"/>
</svg>