<svg xmlns="http://www.w3.org/2000/svg" width="284" height="322">
  <path d="M 30,239 L 28,241 L 27,241 L 26,242 L 26,243 L 25,244 L 24,244 L 22,246 L 20,246 L 20,247 L 19,248 L 18,248 L 17,249 L 12,249 L 11,250 L 13,252 L 13,253 L 12,254 L 12,256 L 13,257 L 12,258 L 12,264 L 11,265 L 11,266 L 10,267 L 10,268 L 11,269 L 8,272 L 8,277 L 9,278 L 9,279 L 6,282 L 6,292 L 5,293 L 5,294 L 3,296 L 3,299 L 1,301 L 0,301 L 0,307 L 1,307 L 2,308 L 3,307 L 4,307 L 5,306 L 9,306 L 10,307 L 13,307 L 14,308 L 16,308 L 17,309 L 17,310 L 20,313 L 21,313 L 22,314 L 25,314 L 26,313 L 26,309 L 27,308 L 27,305 L 30,302 L 30,293 L 31,292 L 31,289 L 30,289 L 29,288 L 29,286 L 31,284 L 31,274 L 32,273 L 32,272 L 34,270 L 34,269 L 35,268 L 35,266 L 36,265 L 36,258 L 34,256 L 34,251 L 36,249 L 36,245 L 35,244 L 35,239 L 34,240 L 31,240 Z" fill="none" stroke="black" stroke-width="1"/>
</svg>