<svg xmlns="http://www.w3.org/2000/svg" width="284" height="322">
  <path d="M 37,136 L 36,137 L 35,137 L 34,138 L 31,138 L 30,139 L 29,139 L 28,140 L 26,140 L 25,141 L 23,141 L 22,142 L 21,142 L 20,143 L 18,143 L 18,147 L 19,148 L 19,149 L 18,150 L 18,161 L 17,162 L 18,163 L 18,164 L 19,165 L 18,166 L 18,168 L 19,169 L 19,170 L 20,171 L 19,172 L 20,173 L 21,173 L 22,172 L 33,172 L 34,171 L 36,171 L 37,170 L 38,170 L 40,168 L 40,167 L 42,165 L 42,159 L 39,156 L 39,152 L 40,151 L 40,150 L 41,149 L 41,148 L 42,147 L 42,146 L 43,145 L 43,142 L 42,141 L 41,141 L 38,138 L 38,136 Z" fill="none" stroke="black" stroke-width="1"/>
</svg>