<svg xmlns="http://www.w3.org/2000/svg" width="284" height="322">
  <path d="M 92,182 L 92,185 L 93,186 L 93,188 L 94,189 L 94,191 L 95,192 L 95,196 L 93,198 L 90,198 L 89,199 L 86,199 L 85,200 L 84,200 L 83,201 L 83,203 L 82,204 L 82,205 L 83,206 L 83,216 L 84,217 L 84,218 L 86,220 L 86,226 L 87,226 L 88,227 L 88,229 L 89,230 L 89,231 L 93,235 L 95,235 L 96,234 L 99,234 L 101,236 L 107,236 L 109,234 L 110,234 L 111,233 L 112,234 L 113,233 L 114,234 L 114,230 L 115,229 L 117,229 L 119,227 L 121,227 L 121,226 L 122,225 L 123,225 L 128,220 L 129,220 L 131,218 L 131,217 L 132,216 L 132,214 L 133,213 L 133,212 L 134,211 L 134,208 L 136,206 L 136,204 L 138,202 L 138,196 L 139,195 L 139,190 L 137,190 L 135,188 L 135,185 L 134,184 L 133,185 L 129,185 L 128,184 L 125,184 L 124,183 L 121,183 L 120,184 L 120,185 L 118,187 L 117,187 L 116,186 L 107,186 L 106,185 L 105,185 L 104,184 L 101,184 L 100,183 L 95,183 L 94,182 Z" fill="none" stroke="black" stroke-width="1"/>
</svg>