<svg xmlns="http://www.w3.org/2000/svg" width="284" height="322">
  <path d="M 70,133 L 69,134 L 66,134 L 65,135 L 65,139 L 66,140 L 66,143 L 67,144 L 67,146 L 68,147 L 68,148 L 69,149 L 69,150 L 71,152 L 71,156 L 69,158 L 69,159 L 68,160 L 68,161 L 69,161 L 70,162 L 72,162 L 73,163 L 74,163 L 75,162 L 76,162 L 76,161 L 81,156 L 83,158 L 84,158 L 86,156 L 88,156 L 89,155 L 91,155 L 91,151 L 92,150 L 92,147 L 91,146 L 91,141 L 88,138 L 87,138 L 85,140 L 84,139 L 81,139 L 79,137 L 77,137 L 76,136 L 76,134 L 73,134 L 72,133 Z" fill="none" stroke="black" stroke-width="1"/>
</svg>