<svg xmlns="http://www.w3.org/2000/svg" width="284" height="322">
  <path d="M 27,107 L 25,109 L 25,111 L 24,112 L 24,115 L 21,118 L 20,118 L 19,119 L 17,119 L 16,120 L 15,120 L 15,121 L 16,122 L 16,123 L 15,124 L 15,128 L 16,129 L 16,132 L 17,133 L 17,134 L 16,135 L 17,136 L 17,138 L 18,139 L 18,142 L 20,142 L 21,141 L 22,141 L 23,140 L 25,140 L 26,139 L 28,139 L 29,138 L 30,138 L 31,137 L 34,137 L 35,136 L 36,136 L 37,135 L 37,128 L 36,127 L 36,124 L 35,123 L 35,119 L 34,118 L 34,114 L 32,114 L 29,111 L 29,109 L 28,108 L 28,107 Z" fill="none" stroke="black" stroke-width="1"/>
</svg>