<svg xmlns="http://www.w3.org/2000/svg" width="284" height="322">
  <path d="M 59,108 L 57,110 L 56,110 L 56,111 L 55,112 L 52,112 L 50,110 L 43,110 L 41,112 L 40,112 L 38,114 L 35,114 L 35,118 L 36,119 L 36,123 L 37,124 L 37,127 L 38,128 L 38,135 L 39,136 L 39,138 L 41,140 L 42,140 L 44,142 L 45,141 L 46,141 L 49,138 L 52,138 L 53,137 L 55,137 L 56,138 L 62,138 L 63,139 L 64,139 L 64,135 L 66,133 L 66,130 L 64,128 L 64,126 L 63,125 L 63,124 L 67,120 L 66,119 L 66,111 L 65,111 L 64,110 L 62,110 L 60,108 Z" fill="none" stroke="black" stroke-width="1"/>
</svg>