<svg xmlns="http://www.w3.org/2000/svg" width="465" height="369">
  <path d="M 331,103 L 329,105 L 329,106 L 328,107 L 328,108 L 326,110 L 325,110 L 324,111 L 323,111 L 322,112 L 321,112 L 320,111 L 314,111 L 314,116 L 315,117 L 315,120 L 316,121 L 316,124 L 314,126 L 314,127 L 315,128 L 315,129 L 320,129 L 321,130 L 324,130 L 325,131 L 327,131 L 328,132 L 329,132 L 330,131 L 336,131 L 337,130 L 337,129 L 339,127 L 341,127 L 341,124 L 343,122 L 343,121 L 344,120 L 344,116 L 343,115 L 343,114 L 341,114 L 340,113 L 340,110 L 342,108 L 342,106 L 341,105 L 340,106 L 337,106 L 336,105 L 335,105 L 334,104 L 333,104 L 332,103 Z" fill="none" stroke="black" stroke-width="1"/>
</svg>