<svg xmlns="http://www.w3.org/2000/svg" width="284" height="322">
  <path d="M 177,136 L 176,137 L 173,137 L 172,138 L 168,138 L 166,140 L 153,140 L 152,141 L 151,141 L 151,142 L 149,144 L 149,145 L 148,146 L 148,147 L 147,148 L 147,149 L 146,150 L 146,151 L 144,153 L 144,154 L 141,157 L 140,157 L 140,158 L 139,159 L 139,162 L 140,163 L 141,163 L 142,164 L 142,166 L 143,167 L 143,168 L 144,169 L 144,171 L 145,172 L 145,174 L 146,175 L 155,175 L 156,176 L 163,176 L 164,175 L 169,175 L 170,176 L 173,176 L 174,177 L 174,178 L 178,178 L 179,179 L 180,179 L 181,180 L 183,180 L 184,181 L 194,181 L 195,182 L 200,182 L 202,180 L 203,180 L 203,179 L 204,178 L 204,172 L 206,170 L 206,162 L 205,161 L 205,157 L 204,156 L 204,154 L 202,152 L 202,150 L 203,149 L 203,144 L 204,143 L 202,143 L 200,141 L 199,141 L 198,140 L 197,140 L 196,139 L 195,139 L 194,138 L 193,138 L 192,137 L 182,137 L 181,136 Z" fill="none" stroke="black" stroke-width="1"/>
</svg>