<svg xmlns="http://www.w3.org/2000/svg" width="284" height="322">
  <path d="M 133,32 L 132,33 L 131,33 L 130,34 L 128,34 L 125,37 L 124,37 L 118,43 L 118,44 L 117,45 L 117,46 L 116,47 L 116,48 L 114,50 L 114,53 L 113,54 L 113,57 L 114,58 L 114,59 L 116,61 L 116,68 L 117,69 L 117,70 L 116,71 L 116,72 L 115,73 L 114,73 L 112,75 L 110,75 L 109,76 L 104,76 L 104,77 L 105,77 L 106,78 L 106,81 L 111,81 L 112,82 L 112,83 L 118,89 L 119,89 L 120,90 L 121,90 L 122,91 L 123,91 L 134,102 L 134,103 L 135,104 L 135,108 L 136,108 L 137,107 L 144,107 L 145,106 L 146,106 L 148,104 L 149,104 L 150,103 L 153,103 L 154,102 L 159,102 L 160,103 L 162,103 L 163,102 L 164,102 L 165,101 L 166,101 L 168,99 L 169,99 L 170,98 L 170,93 L 173,90 L 173,89 L 174,88 L 174,86 L 179,81 L 184,81 L 185,80 L 186,80 L 187,79 L 189,79 L 189,77 L 188,77 L 186,75 L 186,74 L 185,73 L 183,73 L 182,72 L 181,72 L 180,71 L 179,71 L 178,70 L 177,70 L 176,69 L 176,68 L 175,67 L 175,64 L 174,63 L 174,60 L 173,59 L 173,56 L 171,54 L 171,51 L 172,50 L 172,46 L 171,46 L 170,45 L 170,44 L 165,44 L 164,43 L 164,41 L 155,41 L 154,40 L 148,40 L 147,39 L 147,37 L 145,37 L 144,36 L 144,34 L 138,34 L 137,33 L 137,32 Z" fill="none" stroke="black" stroke-width="1"/>
</svg>