<svg xmlns="http://www.w3.org/2000/svg" width="1028" height="413">
  <path d="M 630,191 L 630,194 L 631,195 L 631,196 L 632,197 L 631,198 L 631,201 L 632,202 L 632,203 L 633,204 L 633,205 L 634,206 L 634,207 L 635,207 L 636,208 L 638,208 L 639,209 L 640,209 L 641,210 L 641,211 L 642,212 L 642,215 L 641,216 L 640,216 L 635,221 L 634,221 L 633,222 L 632,222 L 631,223 L 630,223 L 629,224 L 626,224 L 625,225 L 621,225 L 619,227 L 618,227 L 617,226 L 613,226 L 613,230 L 614,231 L 615,231 L 616,232 L 619,232 L 620,233 L 617,236 L 616,236 L 615,237 L 615,238 L 613,240 L 613,241 L 612,242 L 612,244 L 614,244 L 616,246 L 616,248 L 617,248 L 618,249 L 618,252 L 619,253 L 620,253 L 623,256 L 624,256 L 625,257 L 625,258 L 626,259 L 626,260 L 629,263 L 632,263 L 636,267 L 636,268 L 637,268 L 638,269 L 638,270 L 637,271 L 637,272 L 636,273 L 634,273 L 634,274 L 633,275 L 634,276 L 635,276 L 637,278 L 638,278 L 639,279 L 639,281 L 641,283 L 641,285 L 642,285 L 644,287 L 644,288 L 645,288 L 647,286 L 648,286 L 649,285 L 649,283 L 651,281 L 651,275 L 652,274 L 652,272 L 651,271 L 651,267 L 649,265 L 649,261 L 650,260 L 650,256 L 648,254 L 649,253 L 650,253 L 650,252 L 648,250 L 648,249 L 649,248 L 650,248 L 652,246 L 653,246 L 654,247 L 654,248 L 655,247 L 654,246 L 653,246 L 652,245 L 652,241 L 654,239 L 654,236 L 656,234 L 657,234 L 656,234 L 655,233 L 654,233 L 652,231 L 652,230 L 653,229 L 654,230 L 655,230 L 652,227 L 653,226 L 654,226 L 656,228 L 657,228 L 658,227 L 660,227 L 661,226 L 662,226 L 663,225 L 663,224 L 662,223 L 663,222 L 662,221 L 662,220 L 663,219 L 664,220 L 666,220 L 667,219 L 669,219 L 671,217 L 671,216 L 668,216 L 667,215 L 670,212 L 671,212 L 672,211 L 673,211 L 674,210 L 676,210 L 675,209 L 676,208 L 677,208 L 679,210 L 679,209 L 681,207 L 682,207 L 682,205 L 683,204 L 683,203 L 682,202 L 682,201 L 677,196 L 673,196 L 672,195 L 671,195 L 670,194 L 669,194 L 668,193 L 668,192 L 663,192 L 662,193 L 660,193 L 659,194 L 655,194 L 654,193 L 644,193 L 643,194 L 642,193 L 637,193 L 636,192 L 635,192 L 634,191 Z" fill="none" stroke="black" stroke-width="1"/>
</svg>