<svg xmlns="http://www.w3.org/2000/svg" width="284" height="322">
  <path d="M 98,76 L 95,79 L 94,79 L 93,80 L 91,80 L 90,81 L 89,81 L 88,82 L 85,82 L 83,84 L 80,84 L 78,82 L 77,82 L 76,81 L 75,81 L 74,80 L 72,80 L 71,79 L 67,79 L 67,80 L 68,81 L 68,82 L 69,82 L 71,84 L 71,85 L 72,86 L 72,92 L 73,93 L 73,99 L 74,100 L 74,101 L 82,109 L 82,112 L 84,114 L 87,114 L 88,115 L 88,116 L 89,116 L 90,117 L 90,119 L 91,120 L 92,120 L 93,121 L 93,123 L 94,123 L 95,124 L 95,125 L 99,125 L 99,124 L 100,123 L 102,123 L 103,122 L 103,119 L 104,118 L 104,115 L 105,114 L 105,113 L 107,111 L 107,110 L 108,109 L 108,108 L 109,107 L 109,105 L 110,104 L 110,103 L 111,102 L 111,100 L 110,99 L 110,96 L 109,95 L 109,94 L 106,91 L 108,89 L 109,89 L 110,88 L 112,88 L 113,87 L 114,87 L 114,86 L 111,83 L 111,82 L 106,82 L 105,81 L 105,78 L 104,78 L 103,77 L 103,76 Z" fill="none" stroke="black" stroke-width="1"/>
</svg>