<svg xmlns="http://www.w3.org/2000/svg" width="392" height="319">
  <path d="M 353,252 L 353,253 L 352,254 L 352,255 L 351,256 L 351,257 L 350,258 L 350,259 L 352,261 L 352,263 L 353,264 L 353,270 L 352,271 L 351,271 L 350,272 L 352,274 L 352,275 L 353,276 L 354,276 L 356,278 L 356,279 L 358,279 L 359,280 L 357,282 L 358,283 L 359,283 L 360,284 L 361,284 L 364,287 L 365,287 L 366,288 L 367,288 L 370,291 L 371,290 L 372,290 L 375,287 L 378,287 L 379,286 L 380,286 L 381,285 L 385,285 L 386,286 L 387,286 L 388,287 L 391,287 L 391,285 L 390,284 L 390,283 L 389,282 L 388,282 L 387,281 L 387,280 L 386,279 L 386,278 L 387,277 L 388,277 L 387,276 L 387,275 L 382,270 L 382,268 L 380,266 L 373,266 L 370,263 L 370,261 L 367,258 L 366,258 L 364,256 L 363,256 L 362,255 L 360,255 L 359,254 L 357,254 L 356,253 L 355,253 L 354,252 Z" fill="none" stroke="black" stroke-width="1"/>
</svg>