<svg xmlns="http://www.w3.org/2000/svg" width="284" height="322">
  <path d="M 91,48 L 90,49 L 89,49 L 88,50 L 86,50 L 85,51 L 84,51 L 83,52 L 81,52 L 80,53 L 79,53 L 78,54 L 77,54 L 76,55 L 75,54 L 69,54 L 68,53 L 61,53 L 61,61 L 60,62 L 60,64 L 59,65 L 59,66 L 60,66 L 63,69 L 63,71 L 68,76 L 68,77 L 69,78 L 71,78 L 72,79 L 74,79 L 75,80 L 76,80 L 77,81 L 78,81 L 80,83 L 83,83 L 85,81 L 88,81 L 89,80 L 90,80 L 91,79 L 93,79 L 94,78 L 95,78 L 98,75 L 109,75 L 110,74 L 112,74 L 114,72 L 115,72 L 115,71 L 116,70 L 116,69 L 115,68 L 115,61 L 113,59 L 113,58 L 112,57 L 112,54 L 113,53 L 113,52 L 112,52 L 110,50 L 109,50 L 108,49 L 95,49 L 94,48 Z" fill="none" stroke="black" stroke-width="1"/>
</svg>