<svg xmlns="http://www.w3.org/2000/svg" width="392" height="319">
  <path d="M 336,265 L 336,266 L 333,269 L 329,269 L 328,270 L 325,270 L 325,272 L 324,273 L 324,275 L 323,276 L 323,278 L 324,279 L 324,281 L 326,281 L 327,280 L 328,280 L 329,281 L 333,281 L 334,282 L 334,284 L 335,285 L 335,286 L 336,287 L 336,288 L 337,289 L 337,290 L 338,291 L 338,296 L 339,297 L 339,298 L 341,300 L 346,300 L 348,298 L 349,298 L 352,295 L 352,294 L 355,291 L 355,290 L 354,289 L 354,288 L 355,287 L 355,286 L 354,285 L 353,285 L 352,286 L 351,285 L 349,285 L 348,284 L 348,283 L 349,282 L 349,281 L 347,281 L 346,280 L 344,280 L 343,279 L 341,279 L 340,278 L 341,277 L 340,276 L 341,275 L 342,275 L 343,274 L 343,273 L 342,272 L 342,270 L 341,270 L 337,266 L 337,265 Z" fill="none" stroke="black" stroke-width="1"/>
</svg>