<svg xmlns="http://www.w3.org/2000/svg" width="392" height="319">
  <path d="M 327,281 L 326,282 L 325,282 L 325,283 L 324,284 L 324,285 L 323,286 L 323,287 L 322,288 L 322,289 L 321,290 L 321,291 L 320,292 L 319,292 L 319,293 L 316,296 L 315,296 L 313,298 L 310,298 L 312,300 L 314,300 L 315,301 L 316,301 L 319,304 L 319,307 L 320,308 L 320,309 L 321,309 L 322,310 L 323,310 L 324,311 L 325,311 L 330,316 L 331,316 L 333,318 L 336,318 L 337,317 L 339,317 L 340,316 L 341,316 L 343,314 L 343,311 L 344,310 L 344,308 L 347,305 L 347,303 L 345,301 L 341,301 L 338,298 L 338,297 L 337,296 L 337,291 L 336,290 L 336,289 L 335,288 L 335,287 L 334,286 L 334,285 L 333,284 L 333,282 L 329,282 L 328,281 Z" fill="none" stroke="black" stroke-width="1"/>
</svg>