<svg xmlns="http://www.w3.org/2000/svg" width="392" height="319">
  <path d="M 256,230 L 254,232 L 250,232 L 249,233 L 247,233 L 246,234 L 245,234 L 245,236 L 244,237 L 243,237 L 244,238 L 244,243 L 243,244 L 243,245 L 242,246 L 241,246 L 243,248 L 243,250 L 245,252 L 245,254 L 246,255 L 247,255 L 248,256 L 248,259 L 249,259 L 251,261 L 252,261 L 253,262 L 254,262 L 255,263 L 255,264 L 260,269 L 260,270 L 262,272 L 263,272 L 264,273 L 265,273 L 266,274 L 267,274 L 268,275 L 269,275 L 272,278 L 274,278 L 275,279 L 277,279 L 277,275 L 278,274 L 278,273 L 282,269 L 282,267 L 283,266 L 283,263 L 284,262 L 284,260 L 283,260 L 282,261 L 271,261 L 268,258 L 268,257 L 266,255 L 265,255 L 262,252 L 262,251 L 265,248 L 265,244 L 264,243 L 264,238 L 259,233 L 259,232 L 257,230 Z" fill="none" stroke="black" stroke-width="1"/>
</svg>