<svg xmlns="http://www.w3.org/2000/svg" width="392" height="319">
  <path d="M 279,225 L 279,227 L 277,229 L 274,229 L 274,232 L 272,234 L 272,235 L 271,236 L 269,236 L 267,238 L 265,238 L 265,243 L 266,244 L 266,248 L 263,251 L 263,252 L 265,254 L 266,254 L 269,257 L 269,258 L 271,260 L 282,260 L 283,259 L 289,259 L 290,260 L 291,260 L 292,261 L 293,261 L 294,262 L 296,262 L 296,261 L 297,260 L 297,259 L 298,258 L 298,256 L 302,252 L 302,251 L 303,250 L 303,244 L 301,244 L 299,242 L 297,242 L 296,241 L 292,241 L 291,240 L 290,240 L 288,238 L 287,238 L 285,236 L 285,235 L 284,234 L 284,233 L 283,232 L 283,227 L 281,227 L 280,226 L 280,225 Z" fill="none" stroke="black" stroke-width="1"/>
</svg>