<svg xmlns="http://www.w3.org/2000/svg" width="392" height="319">
  <path d="M 292,208 L 291,209 L 288,209 L 287,210 L 285,210 L 284,211 L 280,211 L 280,214 L 282,216 L 282,217 L 279,220 L 279,224 L 280,224 L 281,225 L 281,226 L 283,226 L 284,227 L 284,232 L 285,233 L 285,234 L 286,235 L 286,236 L 287,237 L 288,237 L 290,239 L 291,239 L 292,240 L 296,240 L 297,241 L 299,241 L 301,243 L 303,243 L 304,244 L 304,245 L 307,245 L 308,244 L 308,238 L 309,237 L 309,235 L 310,234 L 310,228 L 309,227 L 309,225 L 306,222 L 305,222 L 304,221 L 304,220 L 305,219 L 305,216 L 304,215 L 304,212 L 303,211 L 299,211 L 297,209 L 296,209 L 295,208 Z" fill="none" stroke="black" stroke-width="1"/>
</svg>