<svg xmlns="http://www.w3.org/2000/svg" width="392" height="319">
  <path d="M 231,200 L 231,204 L 229,206 L 228,206 L 227,207 L 226,207 L 228,209 L 228,211 L 229,212 L 228,213 L 229,214 L 229,217 L 230,217 L 231,218 L 231,219 L 232,220 L 233,220 L 234,221 L 234,222 L 235,223 L 235,224 L 236,225 L 236,227 L 239,230 L 239,232 L 240,233 L 240,234 L 241,234 L 242,235 L 242,236 L 244,236 L 244,234 L 245,233 L 246,233 L 247,232 L 249,232 L 250,231 L 254,231 L 256,229 L 253,226 L 253,221 L 249,217 L 246,217 L 245,216 L 245,215 L 244,214 L 244,213 L 243,212 L 243,211 L 240,208 L 240,207 L 239,206 L 239,204 L 238,203 L 238,202 L 237,201 L 236,201 L 235,200 Z" fill="none" stroke="black" stroke-width="1"/>
</svg>