<svg xmlns="http://www.w3.org/2000/svg" width="392" height="319">
  <path d="M 262,195 L 261,196 L 259,196 L 258,197 L 257,197 L 256,196 L 244,196 L 243,197 L 241,197 L 240,198 L 239,198 L 238,199 L 238,201 L 239,202 L 239,203 L 240,204 L 240,206 L 241,207 L 241,208 L 244,211 L 244,212 L 245,213 L 245,214 L 246,215 L 246,216 L 250,216 L 251,215 L 251,214 L 256,209 L 261,209 L 262,208 L 264,208 L 266,210 L 269,210 L 270,209 L 272,209 L 273,208 L 274,208 L 274,207 L 273,206 L 273,201 L 272,200 L 271,200 L 270,199 L 270,198 L 267,198 L 266,197 L 264,197 L 263,196 L 263,195 Z" fill="none" stroke="black" stroke-width="1"/>
</svg>