<svg xmlns="http://www.w3.org/2000/svg" width="392" height="319">
  <path d="M 202,145 L 201,146 L 197,146 L 196,147 L 195,147 L 194,148 L 194,149 L 195,150 L 196,150 L 198,152 L 198,153 L 201,156 L 201,158 L 204,161 L 204,164 L 206,166 L 206,168 L 208,170 L 208,172 L 209,173 L 209,176 L 210,177 L 210,178 L 211,179 L 212,179 L 213,178 L 214,178 L 215,177 L 218,177 L 219,176 L 221,176 L 221,173 L 222,172 L 221,171 L 221,170 L 220,169 L 220,165 L 221,164 L 222,164 L 222,162 L 220,160 L 220,159 L 217,156 L 217,155 L 218,154 L 218,150 L 215,147 L 210,147 L 209,146 L 207,146 L 206,145 Z" fill="none" stroke="black" stroke-width="1"/>
</svg>