<svg xmlns="http://www.w3.org/2000/svg" width="392" height="319">
  <path d="M 208,102 L 208,103 L 207,104 L 203,104 L 203,105 L 202,106 L 202,107 L 201,108 L 200,108 L 197,111 L 198,112 L 198,118 L 197,119 L 197,121 L 196,122 L 196,124 L 195,125 L 195,127 L 198,130 L 198,139 L 200,141 L 200,142 L 202,144 L 206,144 L 207,145 L 209,145 L 210,146 L 215,146 L 219,150 L 221,150 L 222,149 L 222,148 L 223,147 L 224,147 L 224,145 L 225,144 L 225,143 L 226,142 L 226,136 L 228,134 L 228,133 L 229,132 L 229,130 L 230,129 L 230,127 L 229,126 L 229,125 L 226,122 L 226,121 L 225,120 L 225,119 L 224,118 L 224,117 L 223,116 L 223,115 L 222,114 L 222,106 L 220,104 L 219,104 L 218,105 L 214,105 L 213,104 L 211,104 L 210,103 L 209,103 Z" fill="none" stroke="black" stroke-width="1"/>
</svg>