<svg xmlns="http://www.w3.org/2000/svg" width="392" height="319">
  <path d="M 241,159 L 240,160 L 240,162 L 239,163 L 239,166 L 240,167 L 240,168 L 241,169 L 240,170 L 240,175 L 241,176 L 241,178 L 242,179 L 242,180 L 243,181 L 243,182 L 245,184 L 245,190 L 246,191 L 246,193 L 247,194 L 247,195 L 256,195 L 257,196 L 258,196 L 259,195 L 261,195 L 262,194 L 263,194 L 264,195 L 264,196 L 266,196 L 267,197 L 270,197 L 272,195 L 272,193 L 271,193 L 270,192 L 270,185 L 269,185 L 268,184 L 268,179 L 267,179 L 266,178 L 266,177 L 265,176 L 265,172 L 266,171 L 266,170 L 265,169 L 262,169 L 261,170 L 260,170 L 259,169 L 258,169 L 256,167 L 255,167 L 253,165 L 251,165 L 247,161 L 246,162 L 245,162 L 242,159 Z" fill="none" stroke="black" stroke-width="1"/>
</svg>