<svg xmlns="http://www.w3.org/2000/svg" width="392" height="319">
  <path d="M 261,33 L 261,35 L 260,36 L 260,37 L 259,38 L 259,39 L 258,40 L 257,40 L 257,42 L 256,43 L 256,46 L 255,47 L 255,49 L 251,53 L 251,54 L 244,61 L 245,61 L 247,63 L 248,63 L 250,65 L 252,65 L 253,66 L 254,66 L 257,69 L 257,70 L 258,71 L 258,74 L 257,75 L 262,80 L 263,80 L 264,81 L 264,90 L 271,90 L 272,91 L 274,91 L 275,90 L 285,90 L 286,91 L 290,91 L 291,92 L 294,92 L 296,90 L 296,85 L 299,82 L 302,82 L 304,80 L 307,80 L 307,74 L 309,72 L 309,69 L 310,68 L 310,67 L 311,66 L 311,65 L 312,64 L 312,61 L 306,61 L 305,62 L 300,62 L 299,63 L 296,63 L 295,62 L 295,61 L 294,61 L 292,59 L 292,53 L 289,53 L 286,50 L 286,49 L 279,49 L 278,48 L 278,47 L 275,47 L 274,46 L 275,45 L 275,44 L 274,43 L 274,42 L 273,41 L 273,38 L 271,38 L 270,37 L 268,37 L 265,34 L 265,33 Z" fill="none" stroke="black" stroke-width="1"/>
</svg>