<svg xmlns="http://www.w3.org/2000/svg" width="392" height="319">
  <path d="M 187,69 L 187,72 L 186,73 L 186,74 L 183,77 L 180,77 L 179,78 L 179,79 L 178,80 L 176,80 L 176,81 L 175,82 L 174,82 L 171,85 L 171,86 L 167,90 L 168,90 L 169,91 L 170,91 L 172,93 L 174,93 L 175,94 L 178,94 L 179,93 L 186,93 L 187,94 L 188,94 L 189,95 L 190,95 L 190,94 L 192,92 L 192,90 L 193,89 L 193,88 L 194,87 L 194,79 L 193,78 L 193,76 L 192,75 L 192,74 L 191,73 L 191,72 L 190,72 L 189,71 L 189,70 L 188,69 Z" fill="none" stroke="black" stroke-width="1"/>
</svg>