<svg xmlns="http://www.w3.org/2000/svg" width="392" height="319">
  <path d="M 211,53 L 210,54 L 210,56 L 207,59 L 206,59 L 205,60 L 204,60 L 203,61 L 200,61 L 199,60 L 197,60 L 197,62 L 196,63 L 196,64 L 195,65 L 195,66 L 193,68 L 193,71 L 192,72 L 192,73 L 193,74 L 193,75 L 194,76 L 194,78 L 195,79 L 195,86 L 196,86 L 197,87 L 197,88 L 198,89 L 199,89 L 200,90 L 200,91 L 202,91 L 203,90 L 205,90 L 206,89 L 206,87 L 208,85 L 208,84 L 209,83 L 209,79 L 211,77 L 212,77 L 213,76 L 213,75 L 218,70 L 219,70 L 220,69 L 221,69 L 223,67 L 224,67 L 227,64 L 230,64 L 230,60 L 227,60 L 226,59 L 226,58 L 223,58 L 222,57 L 222,56 L 219,56 L 216,53 Z" fill="none" stroke="black" stroke-width="1"/>
</svg>