<svg xmlns="http://www.w3.org/2000/svg" width="392" height="319">
  <path d="M 226,19 L 225,20 L 223,20 L 222,21 L 221,21 L 221,25 L 220,26 L 218,26 L 217,27 L 216,27 L 216,32 L 213,35 L 213,36 L 212,37 L 212,38 L 213,39 L 213,42 L 214,43 L 214,45 L 215,46 L 215,47 L 216,48 L 216,49 L 217,50 L 217,51 L 216,52 L 219,55 L 222,55 L 223,56 L 223,57 L 226,57 L 227,58 L 227,59 L 230,59 L 231,60 L 231,64 L 235,64 L 236,65 L 236,64 L 237,63 L 240,63 L 240,62 L 241,61 L 243,61 L 250,54 L 250,53 L 254,49 L 254,47 L 255,46 L 255,43 L 256,42 L 256,40 L 257,39 L 258,39 L 258,38 L 259,37 L 259,36 L 260,35 L 260,33 L 259,32 L 259,31 L 258,31 L 257,32 L 255,32 L 254,31 L 254,30 L 249,30 L 248,29 L 248,28 L 246,28 L 245,27 L 245,26 L 244,26 L 243,25 L 243,24 L 239,24 L 238,23 L 238,21 L 237,20 L 232,20 L 231,19 Z" fill="none" stroke="black" stroke-width="1"/>
</svg>