<svg xmlns="http://www.w3.org/2000/svg" width="392" height="319">
  <path d="M 183,67 L 181,69 L 181,70 L 180,71 L 181,72 L 182,71 L 182,70 L 184,68 L 185,68 L 185,67 Z" fill="none" stroke="black" stroke-width="1"/>
  <path d="M 176,37 L 176,38 L 175,39 L 171,39 L 171,42 L 172,43 L 172,44 L 173,45 L 173,46 L 172,47 L 172,48 L 171,49 L 172,50 L 172,51 L 173,52 L 173,57 L 171,59 L 170,59 L 170,60 L 171,61 L 174,61 L 175,62 L 175,63 L 178,66 L 180,66 L 182,64 L 182,61 L 183,60 L 183,59 L 186,56 L 187,56 L 188,57 L 187,58 L 187,59 L 185,61 L 185,62 L 184,63 L 184,65 L 185,65 L 186,64 L 186,63 L 187,62 L 189,64 L 189,65 L 188,66 L 188,68 L 190,70 L 190,71 L 192,71 L 192,68 L 194,66 L 194,65 L 195,64 L 195,63 L 196,62 L 196,60 L 197,59 L 197,56 L 196,55 L 196,53 L 195,52 L 195,46 L 192,43 L 192,42 L 189,39 L 183,39 L 182,38 L 181,38 L 180,37 Z" fill="none" stroke="black" stroke-width="1"/>
</svg>