<svg xmlns="http://www.w3.org/2000/svg" width="392" height="319">
  <path d="M 210,8 L 210,9 L 209,10 L 209,15 L 206,18 L 204,18 L 203,19 L 200,19 L 199,18 L 197,18 L 196,19 L 195,19 L 195,20 L 192,23 L 192,24 L 193,25 L 193,27 L 194,28 L 194,31 L 196,33 L 196,37 L 195,38 L 195,39 L 194,40 L 194,41 L 193,42 L 193,43 L 196,46 L 196,52 L 197,53 L 197,55 L 198,56 L 198,59 L 199,59 L 200,60 L 203,60 L 204,59 L 205,59 L 206,58 L 207,58 L 209,56 L 209,54 L 211,52 L 215,52 L 216,51 L 216,50 L 215,49 L 215,48 L 214,47 L 214,46 L 213,45 L 213,43 L 212,42 L 212,39 L 211,38 L 211,37 L 212,36 L 212,35 L 215,32 L 215,27 L 216,26 L 217,26 L 218,25 L 220,25 L 220,21 L 221,20 L 222,20 L 223,19 L 225,19 L 225,18 L 224,17 L 224,15 L 221,12 L 220,12 L 219,11 L 216,11 L 215,10 L 213,10 L 211,8 Z" fill="none" stroke="black" stroke-width="1"/>
</svg>