<svg xmlns="http://www.w3.org/2000/svg" width="392" height="319">
  <path d="M 241,62 L 241,63 L 240,64 L 237,64 L 237,65 L 236,66 L 235,65 L 227,65 L 224,68 L 223,68 L 221,70 L 220,70 L 219,71 L 218,71 L 216,73 L 217,73 L 219,75 L 219,76 L 221,78 L 221,84 L 223,86 L 223,94 L 224,94 L 225,95 L 225,98 L 229,98 L 230,99 L 240,99 L 241,100 L 241,101 L 244,101 L 245,102 L 245,103 L 251,103 L 251,99 L 252,98 L 253,98 L 255,96 L 255,95 L 256,94 L 260,94 L 262,92 L 263,92 L 264,91 L 263,90 L 263,81 L 262,81 L 256,75 L 257,74 L 257,71 L 256,70 L 256,69 L 254,67 L 253,67 L 252,66 L 250,66 L 248,64 L 247,64 L 245,62 Z" fill="none" stroke="black" stroke-width="1"/>
</svg>