<svg xmlns="http://www.w3.org/2000/svg" width="491" height="213">
  <path d="M 128,151 L 127,152 L 126,152 L 126,153 L 125,154 L 125,156 L 123,158 L 121,158 L 121,159 L 118,162 L 118,163 L 117,164 L 117,165 L 110,172 L 110,173 L 109,174 L 105,174 L 105,175 L 103,177 L 104,178 L 104,180 L 105,181 L 106,181 L 107,182 L 109,182 L 112,185 L 113,185 L 114,186 L 115,186 L 118,189 L 119,189 L 121,191 L 121,192 L 122,193 L 122,194 L 124,196 L 126,196 L 136,206 L 145,206 L 146,205 L 150,205 L 151,206 L 153,206 L 154,205 L 158,205 L 163,200 L 164,200 L 165,199 L 166,199 L 170,195 L 173,195 L 174,194 L 174,192 L 173,191 L 173,190 L 172,190 L 171,189 L 171,188 L 170,188 L 168,186 L 167,186 L 163,182 L 159,182 L 159,183 L 158,184 L 158,185 L 157,186 L 153,186 L 150,183 L 150,182 L 149,181 L 149,180 L 148,179 L 148,177 L 147,176 L 147,175 L 146,175 L 144,173 L 144,171 L 138,171 L 131,164 L 131,162 L 130,161 L 130,157 L 131,156 L 131,155 L 132,154 L 129,151 Z" fill="none" stroke="black" stroke-width="1"/>
</svg>