<svg xmlns="http://www.w3.org/2000/svg" width="491" height="213">
  <path d="M 75,157 L 75,158 Z" fill="none" stroke="black" stroke-width="1"/>
  <path d="M 90,130 L 89,131 L 88,131 L 88,132 L 87,133 L 86,133 L 86,134 L 87,135 L 87,136 L 87,135 L 89,133 L 90,134 L 90,135 L 89,136 L 89,137 L 90,137 L 91,136 L 92,136 L 93,137 L 92,138 L 92,140 L 87,145 L 87,147 L 86,148 L 86,149 L 83,152 L 83,153 L 81,155 L 82,156 L 82,157 L 81,158 L 79,158 L 78,159 L 77,159 L 77,163 L 79,163 L 80,164 L 82,164 L 84,166 L 85,165 L 85,163 L 89,159 L 89,158 L 91,156 L 95,156 L 98,153 L 98,152 L 103,147 L 107,147 L 107,146 L 108,145 L 108,144 L 109,143 L 109,139 L 110,138 L 110,136 L 111,135 L 113,135 L 113,134 L 109,134 L 108,133 L 104,133 L 103,134 L 99,134 L 95,130 Z" fill="none" stroke="black" stroke-width="1"/>
</svg>