<svg xmlns="http://www.w3.org/2000/svg" width="491" height="213">
  <path d="M 127,93 L 126,94 L 125,94 L 124,95 L 124,96 L 123,97 L 123,98 L 124,99 L 119,104 L 119,106 L 118,107 L 118,111 L 117,112 L 115,112 L 114,111 L 112,111 L 111,110 L 111,114 L 110,115 L 110,116 L 109,117 L 108,117 L 108,119 L 105,122 L 105,123 L 104,124 L 104,125 L 102,127 L 102,130 L 101,131 L 101,133 L 103,133 L 104,132 L 108,132 L 109,133 L 113,133 L 117,129 L 117,128 L 118,127 L 118,126 L 119,125 L 119,123 L 120,122 L 121,122 L 123,120 L 123,119 L 124,118 L 126,118 L 127,117 L 132,117 L 133,118 L 133,115 L 134,114 L 134,113 L 136,111 L 136,110 L 135,109 L 135,107 L 136,106 L 135,106 L 131,102 L 131,100 L 132,99 L 132,97 L 133,96 L 134,96 L 134,95 L 132,95 L 130,93 Z" fill="none" stroke="black" stroke-width="1"/>
</svg>