<svg xmlns="http://www.w3.org/2000/svg" width="491" height="213">
  <path d="M 136,112 L 135,113 L 135,114 L 134,115 L 134,118 L 132,120 L 132,121 L 131,122 L 131,129 L 130,130 L 130,133 L 131,134 L 131,137 L 132,138 L 134,138 L 134,137 L 135,136 L 136,136 L 137,135 L 138,135 L 139,134 L 140,134 L 143,131 L 143,128 L 144,127 L 151,127 L 152,126 L 152,125 L 153,124 L 153,121 L 150,121 L 149,120 L 148,120 L 147,119 L 147,116 L 146,115 L 146,114 L 144,112 L 142,112 L 141,113 L 137,113 Z" fill="none" stroke="black" stroke-width="1"/>
</svg>