<svg xmlns="http://www.w3.org/2000/svg" width="491" height="213">
  <path d="M 105,103 L 104,104 L 102,104 L 98,108 L 97,108 L 96,109 L 95,109 L 94,108 L 90,108 L 88,110 L 86,110 L 86,111 L 88,113 L 88,122 L 89,123 L 89,127 L 88,128 L 88,130 L 87,131 L 86,131 L 87,131 L 88,130 L 89,130 L 90,129 L 95,129 L 99,133 L 100,133 L 100,131 L 101,130 L 101,127 L 103,125 L 103,124 L 104,123 L 104,122 L 107,119 L 107,117 L 108,116 L 109,116 L 109,115 L 110,114 L 110,110 L 108,110 L 106,108 L 106,105 L 105,104 Z" fill="none" stroke="black" stroke-width="1"/>
</svg>