<svg xmlns="http://www.w3.org/2000/svg" width="491" height="213">
  <path d="M 122,71 L 117,76 L 115,76 L 114,77 L 114,78 L 112,80 L 112,81 L 111,82 L 104,82 L 104,84 L 100,88 L 100,94 L 101,95 L 101,98 L 102,99 L 104,99 L 106,101 L 106,104 L 107,105 L 107,108 L 108,109 L 111,109 L 112,110 L 114,110 L 115,111 L 117,111 L 117,107 L 118,106 L 118,104 L 123,99 L 122,98 L 122,97 L 123,96 L 123,95 L 125,93 L 126,93 L 127,92 L 130,92 L 132,94 L 134,94 L 135,93 L 137,93 L 137,92 L 138,91 L 139,91 L 138,91 L 137,90 L 136,90 L 134,88 L 133,88 L 131,86 L 131,81 L 128,78 L 128,76 L 127,75 L 127,74 L 125,72 L 125,71 Z" fill="none" stroke="black" stroke-width="1"/>
</svg>