<svg xmlns="http://www.w3.org/2000/svg" width="491" height="213">
  <path d="M 137,18 L 137,21 L 136,22 L 136,24 L 135,25 L 135,26 L 133,28 L 132,27 L 131,27 L 130,26 L 130,25 L 131,24 L 131,23 L 129,23 L 128,22 L 126,22 L 122,26 L 121,26 L 121,28 L 122,29 L 122,32 L 125,32 L 126,33 L 126,36 L 127,36 L 128,37 L 128,47 L 129,47 L 130,48 L 130,49 L 133,49 L 134,50 L 134,51 L 136,51 L 137,52 L 137,54 L 138,54 L 138,52 L 139,51 L 139,48 L 140,47 L 140,45 L 141,44 L 141,41 L 140,40 L 140,37 L 141,36 L 141,35 L 146,30 L 146,26 L 148,24 L 148,23 L 149,22 L 151,22 L 151,19 L 141,19 L 140,18 Z" fill="none" stroke="black" stroke-width="1"/>
</svg>