<svg xmlns="http://www.w3.org/2000/svg" width="491" height="213">
  <path d="M 163,88 L 162,89 L 160,89 L 159,90 L 160,91 L 160,94 L 159,95 L 159,96 L 156,99 L 155,99 L 150,104 L 145,104 L 143,102 L 142,102 L 139,105 L 139,106 L 138,107 L 136,107 L 136,109 L 137,110 L 137,112 L 141,112 L 142,111 L 144,111 L 147,114 L 147,115 L 148,116 L 148,119 L 149,119 L 150,120 L 153,120 L 153,119 L 154,118 L 154,116 L 158,112 L 160,112 L 161,111 L 162,111 L 163,110 L 163,108 L 164,107 L 164,104 L 163,103 L 163,102 L 164,101 L 164,98 L 169,93 L 169,92 L 170,91 L 170,90 L 171,89 L 171,88 Z" fill="none" stroke="black" stroke-width="1"/>
</svg>