<svg xmlns="http://www.w3.org/2000/svg" width="337" height="324">
  <path d="M 151,249 L 151,250 L 150,251 L 148,251 L 147,252 L 146,252 L 142,256 L 142,257 L 141,258 L 140,258 L 140,261 L 139,262 L 138,262 L 137,263 L 133,263 L 132,262 L 131,262 L 130,263 L 129,263 L 128,264 L 128,265 L 126,267 L 126,268 L 124,270 L 124,271 L 122,273 L 121,273 L 120,274 L 120,275 L 118,277 L 117,277 L 114,280 L 113,280 L 113,282 L 114,282 L 115,283 L 120,283 L 122,285 L 124,285 L 125,286 L 125,287 L 126,288 L 128,288 L 129,289 L 130,289 L 131,290 L 131,293 L 132,294 L 131,295 L 131,296 L 130,297 L 130,299 L 131,300 L 132,300 L 133,301 L 133,302 L 134,303 L 135,303 L 136,304 L 136,305 L 137,306 L 137,308 L 142,308 L 143,309 L 147,309 L 146,308 L 146,306 L 148,304 L 150,304 L 151,303 L 154,303 L 155,304 L 158,304 L 159,305 L 160,304 L 161,304 L 162,303 L 163,303 L 164,302 L 166,302 L 167,301 L 168,301 L 169,300 L 170,300 L 172,298 L 173,298 L 175,296 L 176,296 L 178,294 L 178,293 L 177,292 L 177,291 L 175,289 L 175,287 L 174,287 L 173,286 L 172,286 L 171,285 L 170,285 L 169,284 L 155,284 L 153,282 L 153,279 L 154,278 L 154,273 L 153,272 L 153,270 L 155,268 L 155,266 L 158,263 L 158,262 L 159,261 L 159,257 L 158,256 L 158,252 L 157,251 L 157,250 L 156,249 Z" fill="none" stroke="black" stroke-width="1"/>
</svg>