<svg xmlns="http://www.w3.org/2000/svg" width="491" height="213">
  <path d="M 202,51 L 201,52 L 200,52 L 200,53 L 199,54 L 199,55 L 198,56 L 196,56 L 192,60 L 190,60 L 188,62 L 188,63 L 187,64 L 187,68 L 186,69 L 186,70 L 185,71 L 185,73 L 183,75 L 186,75 L 187,76 L 188,76 L 189,77 L 190,77 L 191,78 L 192,78 L 193,79 L 194,79 L 195,80 L 196,80 L 197,81 L 200,81 L 201,82 L 202,81 L 205,81 L 207,83 L 210,83 L 212,81 L 216,81 L 216,80 L 221,75 L 226,75 L 227,74 L 233,74 L 234,75 L 238,71 L 238,69 L 234,65 L 234,64 L 229,64 L 228,63 L 227,63 L 226,62 L 222,62 L 221,61 L 219,61 L 218,60 L 216,60 L 215,59 L 212,59 L 210,57 L 208,57 L 207,56 L 206,56 L 205,55 L 205,54 L 203,52 L 203,51 Z" fill="none" stroke="black" stroke-width="1"/>
</svg>