<svg xmlns="http://www.w3.org/2000/svg" width="491" height="213">
  <path d="M 63,64 L 63,66 L 64,66 L 64,65 Z" fill="none" stroke="black" stroke-width="1"/>
  <path d="M 53,45 L 53,46 L 50,49 L 49,49 L 48,50 L 47,50 L 45,52 L 44,52 L 43,53 L 40,53 L 39,54 L 38,54 L 41,57 L 41,60 L 40,61 L 43,64 L 43,66 L 45,64 L 46,64 L 48,62 L 49,62 L 49,61 L 50,60 L 50,59 L 49,58 L 50,57 L 51,57 L 52,56 L 53,56 L 54,55 L 55,55 L 56,54 L 58,54 L 59,55 L 62,52 L 63,53 L 63,54 L 62,55 L 64,57 L 65,57 L 68,60 L 71,60 L 71,59 L 73,57 L 73,56 L 74,55 L 75,55 L 77,53 L 77,52 L 75,52 L 74,51 L 73,51 L 72,50 L 71,50 L 70,49 L 61,49 L 60,48 L 60,47 L 55,47 Z" fill="none" stroke="black" stroke-width="1"/>
</svg>