<svg xmlns="http://www.w3.org/2000/svg" width="196" height="218">
  <path d="M 171,190 L 171,191 L 167,195 L 166,195 L 165,196 L 165,198 L 167,198 L 169,200 L 171,200 L 175,204 L 176,204 L 177,205 L 177,207 L 178,208 L 177,209 L 177,210 L 175,212 L 175,213 L 176,213 L 178,215 L 182,215 L 181,214 L 181,213 L 180,213 L 179,212 L 179,211 L 180,210 L 181,210 L 185,214 L 185,216 L 186,217 L 186,216 L 187,215 L 187,213 L 188,212 L 188,211 L 189,210 L 189,208 L 190,207 L 190,206 L 189,205 L 189,200 L 188,199 L 186,199 L 185,198 L 184,198 L 183,199 L 177,193 L 174,193 L 172,191 L 172,190 Z" fill="none" stroke="black" stroke-width="1"/>
</svg>