<svg xmlns="http://www.w3.org/2000/svg" width="196" height="218">
  <path d="M 139,129 L 138,130 L 130,130 L 128,132 L 128,135 L 129,136 L 129,137 L 130,138 L 129,139 L 129,140 L 128,141 L 126,141 L 125,142 L 122,142 L 121,143 L 119,143 L 118,144 L 115,141 L 114,142 L 114,143 L 116,145 L 117,145 L 124,152 L 125,152 L 129,156 L 129,158 L 130,158 L 130,157 L 131,156 L 131,153 L 130,152 L 131,151 L 132,151 L 133,150 L 134,150 L 135,149 L 136,150 L 136,152 L 139,152 L 140,151 L 142,151 L 143,150 L 148,150 L 149,149 L 150,149 L 151,150 L 153,148 L 152,147 L 152,146 L 151,145 L 151,139 L 149,137 L 149,136 L 147,134 L 147,133 L 145,133 L 141,129 Z" fill="none" stroke="black" stroke-width="1"/>
</svg>