<svg xmlns="http://www.w3.org/2000/svg" width="196" height="218">
  <path d="M 179,111 L 178,112 L 176,112 L 175,113 L 170,113 L 169,114 L 171,114 L 172,115 L 172,116 L 173,117 L 173,125 L 172,126 L 172,127 L 168,131 L 168,133 L 169,134 L 169,139 L 168,140 L 168,142 L 175,149 L 176,148 L 177,149 L 177,151 L 178,151 L 178,149 L 177,149 L 176,148 L 176,145 L 177,144 L 178,145 L 178,141 L 177,140 L 177,134 L 178,133 L 178,128 L 179,127 L 179,125 L 180,124 L 181,124 L 181,123 L 182,122 L 182,121 L 183,120 L 183,119 L 182,118 L 182,116 L 181,115 L 181,114 L 180,114 L 179,113 L 179,112 L 180,111 Z" fill="none" stroke="black" stroke-width="1"/>
</svg>