<svg xmlns="http://www.w3.org/2000/svg" width="196" height="218">
  <path d="M 86,117 L 81,122 L 81,126 L 80,127 L 80,128 L 78,130 L 80,132 L 83,132 L 84,133 L 89,133 L 90,134 L 91,134 L 92,135 L 93,135 L 94,136 L 95,136 L 96,137 L 98,137 L 99,136 L 100,137 L 100,138 L 101,137 L 102,138 L 110,138 L 111,137 L 110,136 L 110,135 L 111,134 L 111,129 L 112,128 L 113,128 L 113,122 L 110,122 L 109,123 L 108,123 L 107,124 L 104,124 L 102,122 L 98,122 L 97,121 L 96,121 L 95,120 L 94,120 L 92,118 L 91,118 L 90,117 Z" fill="none" stroke="black" stroke-width="1"/>
</svg>