<svg xmlns="http://www.w3.org/2000/svg" width="196" height="218">
  <path d="M 141,93 L 141,94 L 140,95 L 137,95 L 136,96 L 135,96 L 135,98 L 134,99 L 134,101 L 135,101 L 136,102 L 144,102 L 145,103 L 148,103 L 150,105 L 151,105 L 153,107 L 154,107 L 158,111 L 158,113 L 159,113 L 160,114 L 168,114 L 170,112 L 175,112 L 176,111 L 178,111 L 179,110 L 183,110 L 183,109 L 182,109 L 181,108 L 181,106 L 180,105 L 179,105 L 179,106 L 178,107 L 177,107 L 176,106 L 176,105 L 175,106 L 172,103 L 171,103 L 172,103 L 173,104 L 173,106 L 172,107 L 168,103 L 168,102 L 167,101 L 168,100 L 171,100 L 168,97 L 167,97 L 166,96 L 163,96 L 162,97 L 160,95 L 159,95 L 158,94 L 157,94 L 156,93 L 155,93 L 154,94 L 153,94 L 152,95 L 147,95 L 146,94 L 145,94 L 144,93 Z" fill="none" stroke="black" stroke-width="1"/>
</svg>