<svg xmlns="http://www.w3.org/2000/svg" width="196" height="218">
  <path d="M 111,68 L 110,69 L 111,69 Z" fill="none" stroke="black" stroke-width="1"/>
  <path d="M 110,58 L 110,59 L 109,60 L 109,61 L 110,62 L 110,60 L 111,59 L 111,58 Z" fill="none" stroke="black" stroke-width="1"/>
  <path d="M 102,52 L 93,61 L 92,60 L 90,60 L 88,62 L 88,66 L 87,67 L 88,67 L 90,69 L 90,70 L 91,70 L 92,69 L 94,69 L 96,71 L 98,71 L 99,72 L 99,73 L 100,74 L 103,74 L 103,71 L 104,70 L 104,69 L 105,68 L 104,67 L 104,65 L 105,64 L 105,61 L 106,60 L 106,59 L 107,58 L 107,55 L 106,54 L 104,54 L 103,53 L 103,52 Z" fill="none" stroke="black" stroke-width="1"/>
</svg>