<svg xmlns="http://www.w3.org/2000/svg" width="248" height="234">
  <path d="M 204,207 L 202,209 L 203,210 L 203,212 L 204,213 L 204,215 L 202,217 L 202,219 L 204,221 L 206,221 L 210,225 L 211,225 L 213,227 L 213,229 L 214,229 L 215,228 L 218,228 L 222,224 L 225,224 L 224,223 L 224,222 L 225,221 L 225,216 L 228,213 L 228,212 L 217,212 L 216,213 L 214,213 L 213,214 L 211,214 L 210,213 L 209,213 L 207,211 L 207,209 L 206,209 L 205,208 L 205,207 Z" fill="none" stroke="black" stroke-width="1"/>
</svg>