<svg xmlns="http://www.w3.org/2000/svg" width="248" height="234">
  <path d="M 186,209 L 184,211 L 183,211 L 182,212 L 178,212 L 178,213 L 179,214 L 179,216 L 177,218 L 177,219 L 175,221 L 175,224 L 177,224 L 179,226 L 180,226 L 182,228 L 189,228 L 190,229 L 192,229 L 193,230 L 194,230 L 196,232 L 199,232 L 200,233 L 202,233 L 203,232 L 207,232 L 208,231 L 209,231 L 210,230 L 211,230 L 212,229 L 212,227 L 211,226 L 210,226 L 206,222 L 204,222 L 202,220 L 201,220 L 200,221 L 198,221 L 197,222 L 194,222 L 193,221 L 193,219 L 194,218 L 194,217 L 195,216 L 194,215 L 192,215 L 190,217 L 187,217 L 186,216 L 186,211 L 187,210 L 187,209 Z" fill="none" stroke="black" stroke-width="1"/>
</svg>