<svg xmlns="http://www.w3.org/2000/svg" width="194" height="141">
  <path d="M 17,70 L 16,71 L 15,71 L 13,73 L 12,73 L 12,74 L 13,75 L 13,76 L 12,77 L 9,77 L 9,78 L 10,78 L 11,79 L 12,79 L 13,80 L 14,80 L 15,79 L 16,79 L 18,77 L 19,77 L 21,79 L 22,79 L 23,80 L 24,80 L 25,81 L 25,82 L 27,84 L 27,85 L 29,85 L 30,86 L 31,86 L 31,85 L 32,84 L 33,85 L 33,83 L 35,81 L 35,80 L 37,78 L 36,78 L 35,77 L 33,77 L 30,74 L 30,73 L 24,73 L 23,72 L 21,72 L 19,70 Z" fill="none" stroke="black" stroke-width="1"/>
</svg>