<svg xmlns="http://www.w3.org/2000/svg" width="248" height="234">
  <path d="M 101,72 L 101,76 L 100,77 L 88,77 L 85,80 L 84,80 L 83,81 L 81,81 L 78,84 L 78,86 L 76,88 L 76,91 L 77,91 L 78,92 L 78,93 L 91,93 L 92,94 L 93,94 L 94,95 L 96,95 L 98,97 L 98,98 L 100,100 L 101,100 L 102,101 L 102,102 L 104,100 L 112,100 L 113,101 L 114,101 L 114,99 L 118,95 L 118,93 L 119,92 L 119,91 L 121,89 L 123,89 L 123,88 L 121,86 L 121,85 L 123,83 L 123,79 L 122,78 L 122,77 L 120,77 L 119,78 L 117,78 L 116,79 L 115,79 L 114,80 L 110,76 L 110,75 L 108,73 L 106,73 L 105,72 Z" fill="none" stroke="black" stroke-width="1"/>
</svg>