<svg xmlns="http://www.w3.org/2000/svg" width="248" height="234">
  <path d="M 130,85 L 127,88 L 126,88 L 125,89 L 124,89 L 123,90 L 121,90 L 120,91 L 120,92 L 119,93 L 119,95 L 115,99 L 115,103 L 116,104 L 116,105 L 115,106 L 115,108 L 116,109 L 116,110 L 117,111 L 117,112 L 121,116 L 125,116 L 126,115 L 127,115 L 128,114 L 129,114 L 130,113 L 132,113 L 133,114 L 137,114 L 138,115 L 140,113 L 140,112 L 141,111 L 142,111 L 142,110 L 141,109 L 141,105 L 145,101 L 145,100 L 143,100 L 142,99 L 141,99 L 139,97 L 139,96 L 140,95 L 136,91 L 136,89 L 137,88 L 135,86 L 135,85 Z" fill="none" stroke="black" stroke-width="1"/>
</svg>