<svg xmlns="http://www.w3.org/2000/svg" width="258" height="263">
  <path d="M 175,212 L 174,213 L 174,214 L 173,215 L 173,216 L 171,218 L 171,221 L 166,226 L 166,227 L 165,228 L 165,229 L 164,230 L 164,231 L 163,232 L 163,233 L 162,234 L 162,237 L 161,238 L 161,239 L 165,243 L 166,243 L 168,245 L 168,246 L 170,248 L 170,249 L 171,250 L 171,252 L 172,252 L 173,253 L 174,253 L 175,254 L 176,254 L 177,255 L 178,255 L 179,256 L 180,256 L 182,258 L 183,258 L 184,259 L 185,259 L 188,262 L 191,262 L 191,261 L 190,260 L 190,256 L 189,255 L 189,253 L 188,252 L 188,251 L 189,250 L 189,249 L 190,248 L 190,247 L 191,246 L 191,245 L 190,244 L 190,237 L 191,236 L 191,228 L 188,228 L 185,225 L 184,225 L 181,222 L 181,221 L 179,219 L 179,218 L 178,217 L 178,216 L 177,215 L 177,212 Z" fill="none" stroke="black" stroke-width="1"/>
</svg>