<svg xmlns="http://www.w3.org/2000/svg" width="248" height="234">
  <path d="M 17,47 L 13,51 L 12,51 L 11,52 L 10,52 L 7,55 L 5,55 L 5,56 L 4,57 L 3,57 L 2,58 L 2,59 L 1,60 L 1,61 L 0,62 L 0,64 L 2,66 L 3,66 L 6,69 L 6,70 L 8,70 L 8,69 L 9,68 L 10,68 L 11,69 L 11,71 L 12,71 L 14,73 L 15,73 L 17,75 L 20,75 L 22,77 L 20,79 L 20,80 L 21,81 L 21,79 L 22,78 L 23,79 L 23,82 L 22,83 L 23,84 L 24,84 L 25,85 L 26,85 L 27,86 L 28,86 L 29,87 L 28,88 L 30,90 L 31,90 L 35,94 L 37,94 L 37,93 L 38,92 L 38,89 L 42,85 L 47,85 L 45,83 L 45,82 L 41,78 L 41,76 L 40,77 L 39,77 L 37,75 L 37,74 L 35,72 L 35,70 L 34,69 L 34,62 L 32,60 L 32,59 L 29,59 L 28,58 L 27,58 L 26,57 L 25,57 L 21,53 L 21,51 L 20,50 L 20,48 L 19,47 Z" fill="none" stroke="black" stroke-width="1"/>
</svg>