<svg xmlns="http://www.w3.org/2000/svg" width="248" height="234">
  <path d="M 83,38 L 81,40 L 78,40 L 76,42 L 73,42 L 72,43 L 68,43 L 66,45 L 66,47 L 64,49 L 61,49 L 61,51 L 63,53 L 63,54 L 61,56 L 61,57 L 62,58 L 62,61 L 61,62 L 61,63 L 62,64 L 62,67 L 63,68 L 63,69 L 64,70 L 64,73 L 65,74 L 65,76 L 66,75 L 70,75 L 72,77 L 76,77 L 77,78 L 77,79 L 79,81 L 79,82 L 81,80 L 83,80 L 84,79 L 85,79 L 88,76 L 100,76 L 100,73 L 99,73 L 98,72 L 95,72 L 94,73 L 92,73 L 91,72 L 91,71 L 90,71 L 89,70 L 90,69 L 90,68 L 91,67 L 91,66 L 90,65 L 90,63 L 92,61 L 91,61 L 89,59 L 89,57 L 90,56 L 90,52 L 92,50 L 93,50 L 92,49 L 92,46 L 91,45 L 90,45 L 87,42 L 86,42 L 85,41 L 86,40 L 86,38 Z" fill="none" stroke="black" stroke-width="1"/>
</svg>