<svg xmlns="http://www.w3.org/2000/svg" width="258" height="263">
  <path d="M 122,154 L 119,157 L 119,158 L 116,161 L 116,162 L 115,163 L 115,165 L 116,166 L 116,167 L 117,168 L 117,170 L 115,172 L 115,174 L 114,175 L 114,176 L 112,178 L 111,178 L 110,179 L 110,181 L 111,182 L 112,182 L 115,185 L 117,185 L 118,186 L 126,186 L 127,187 L 128,187 L 131,190 L 132,190 L 133,191 L 135,191 L 137,193 L 139,193 L 139,191 L 142,188 L 144,188 L 145,187 L 146,187 L 149,184 L 149,183 L 150,182 L 150,181 L 151,180 L 149,178 L 149,177 L 148,176 L 148,175 L 147,174 L 147,173 L 143,169 L 141,169 L 137,165 L 136,165 L 134,163 L 134,161 L 132,161 L 130,159 L 129,159 L 126,156 L 125,156 L 123,154 Z" fill="none" stroke="black" stroke-width="1"/>
</svg>