<svg xmlns="http://www.w3.org/2000/svg" width="304" height="349">
  <path d="M 207,229 L 206,230 L 205,230 L 204,231 L 203,231 L 202,232 L 199,232 L 198,233 L 197,233 L 191,239 L 190,239 L 190,242 L 189,243 L 188,242 L 188,241 L 187,241 L 185,243 L 185,247 L 186,247 L 187,248 L 188,248 L 189,247 L 189,245 L 190,244 L 194,248 L 194,249 L 198,253 L 198,254 L 200,254 L 202,256 L 202,257 L 204,259 L 204,260 L 207,263 L 209,263 L 210,264 L 211,263 L 212,263 L 212,262 L 211,261 L 211,258 L 212,257 L 213,257 L 216,254 L 217,254 L 218,253 L 219,253 L 220,252 L 224,252 L 224,250 L 226,248 L 226,247 L 225,247 L 223,245 L 221,245 L 220,244 L 219,244 L 217,242 L 217,241 L 216,240 L 216,238 L 214,236 L 214,235 L 213,234 L 212,234 L 210,232 L 210,231 L 208,229 Z" fill="none" stroke="black" stroke-width="1"/>
</svg>