<svg xmlns="http://www.w3.org/2000/svg" width="258" height="263">
  <path d="M 51,92 L 49,94 L 48,94 L 48,95 L 47,96 L 48,97 L 48,99 L 46,101 L 46,102 L 43,105 L 43,107 L 41,109 L 41,110 L 33,118 L 33,120 L 32,121 L 32,122 L 30,124 L 30,126 L 31,127 L 31,128 L 33,130 L 32,131 L 32,135 L 31,136 L 31,138 L 34,141 L 34,142 L 36,142 L 37,141 L 38,141 L 38,140 L 39,139 L 39,138 L 44,133 L 44,132 L 47,129 L 47,128 L 48,127 L 49,127 L 50,126 L 51,126 L 52,125 L 53,125 L 55,123 L 56,123 L 57,122 L 58,122 L 59,121 L 69,121 L 70,122 L 72,122 L 75,125 L 75,126 L 76,126 L 79,129 L 81,129 L 82,130 L 85,130 L 85,128 L 84,128 L 83,127 L 83,125 L 82,124 L 82,121 L 79,118 L 79,116 L 77,114 L 76,114 L 72,110 L 71,110 L 70,109 L 69,109 L 66,106 L 66,105 L 65,104 L 65,103 L 54,92 Z" fill="none" stroke="black" stroke-width="1"/>
</svg>