<svg xmlns="http://www.w3.org/2000/svg" width="258" height="263">
  <path d="M 59,122 L 58,123 L 57,123 L 56,124 L 55,124 L 53,126 L 52,126 L 51,127 L 50,127 L 49,128 L 48,128 L 48,129 L 45,132 L 45,133 L 40,138 L 40,139 L 39,140 L 39,141 L 38,142 L 37,142 L 36,143 L 35,143 L 36,144 L 36,147 L 39,150 L 40,150 L 45,155 L 45,157 L 46,158 L 46,159 L 48,157 L 48,156 L 59,145 L 60,145 L 61,144 L 63,144 L 64,145 L 70,145 L 71,146 L 73,146 L 74,147 L 77,147 L 78,148 L 80,148 L 81,149 L 84,149 L 85,150 L 86,150 L 87,149 L 88,149 L 90,151 L 90,152 L 91,151 L 92,151 L 94,153 L 95,153 L 97,151 L 97,147 L 98,146 L 98,144 L 99,143 L 99,140 L 98,141 L 96,139 L 93,139 L 91,137 L 90,137 L 89,136 L 88,136 L 87,135 L 86,135 L 85,134 L 85,131 L 82,131 L 81,130 L 79,130 L 76,127 L 75,127 L 74,126 L 74,125 L 72,123 L 70,123 L 69,122 Z" fill="none" stroke="black" stroke-width="1"/>
</svg>