<svg xmlns="http://www.w3.org/2000/svg" width="304" height="349">
  <path d="M 206,296 L 205,297 L 205,299 L 205,298 L 206,297 Z" fill="none" stroke="black" stroke-width="1"/>
  <path d="M 173,259 L 172,260 L 163,260 L 162,261 L 160,261 L 157,264 L 158,265 L 158,266 L 157,267 L 156,266 L 153,266 L 152,267 L 151,266 L 148,266 L 147,265 L 146,265 L 146,266 L 147,267 L 148,267 L 151,270 L 152,270 L 154,272 L 154,273 L 155,274 L 155,275 L 156,276 L 159,276 L 162,279 L 164,279 L 166,281 L 166,282 L 167,282 L 168,283 L 170,281 L 171,282 L 173,282 L 174,283 L 174,284 L 175,284 L 177,286 L 178,286 L 182,290 L 183,290 L 184,291 L 186,291 L 188,293 L 188,295 L 190,297 L 190,298 L 191,299 L 191,300 L 192,301 L 191,302 L 191,304 L 192,305 L 199,305 L 200,304 L 202,304 L 203,303 L 204,303 L 204,301 L 203,300 L 203,299 L 202,298 L 202,293 L 201,292 L 201,289 L 200,288 L 200,287 L 199,286 L 199,284 L 198,284 L 195,281 L 195,282 L 194,283 L 193,282 L 193,281 L 192,280 L 192,279 L 191,278 L 191,277 L 190,277 L 188,275 L 188,272 L 187,271 L 187,270 L 186,270 L 185,269 L 183,269 L 182,268 L 182,267 L 180,265 L 181,264 L 181,262 L 180,261 L 180,259 L 179,260 L 174,260 Z" fill="none" stroke="black" stroke-width="1"/>
  <path d="M 142,256 L 142,259 L 141,260 L 142,260 L 143,261 L 143,257 Z" fill="none" stroke="black" stroke-width="1"/>
</svg>