<svg xmlns="http://www.w3.org/2000/svg" width="304" height="349">
  <path d="M 226,325 L 226,327 L 227,327 L 226,326 Z" fill="none" stroke="black" stroke-width="1"/>
  <path d="M 190,319 L 191,320 L 191,319 Z" fill="none" stroke="black" stroke-width="1"/>
  <path d="M 205,303 L 204,304 L 203,304 L 202,305 L 200,305 L 199,306 L 192,306 L 192,309 L 191,310 L 190,310 L 190,315 L 191,315 L 192,316 L 192,317 L 194,317 L 196,319 L 196,320 L 195,321 L 194,321 L 194,322 L 195,322 L 197,324 L 197,323 L 195,321 L 196,320 L 198,320 L 199,321 L 199,322 L 200,322 L 201,323 L 201,324 L 202,325 L 203,325 L 205,327 L 207,327 L 215,335 L 216,335 L 217,336 L 218,336 L 220,338 L 220,339 L 221,340 L 221,341 L 222,342 L 222,345 L 223,346 L 223,347 L 224,348 L 227,348 L 228,347 L 228,346 L 229,345 L 231,345 L 232,344 L 232,343 L 233,342 L 233,339 L 231,337 L 229,337 L 228,336 L 228,333 L 227,333 L 226,332 L 227,331 L 227,330 L 226,330 L 224,328 L 223,328 L 220,325 L 220,327 L 219,328 L 218,327 L 216,327 L 215,326 L 214,326 L 213,325 L 213,323 L 212,322 L 212,319 L 213,318 L 213,315 L 214,314 L 215,315 L 215,313 L 214,313 L 213,312 L 212,313 L 211,313 L 209,311 L 209,309 L 208,308 L 208,307 L 207,306 L 208,305 L 207,304 L 206,304 Z" fill="none" stroke="black" stroke-width="1"/>
</svg>