<svg xmlns="http://www.w3.org/2000/svg" width="304" height="349">
  <path d="M 134,139 L 133,140 L 131,140 L 130,141 L 129,141 L 128,140 L 128,142 L 131,145 L 131,147 L 130,148 L 130,149 L 129,150 L 129,155 L 131,157 L 131,158 L 132,159 L 132,160 L 133,161 L 133,163 L 134,164 L 134,167 L 135,167 L 138,170 L 138,171 L 142,175 L 142,179 L 141,180 L 140,180 L 140,182 L 141,183 L 141,184 L 142,184 L 143,185 L 147,185 L 149,183 L 152,183 L 153,182 L 154,182 L 154,181 L 155,180 L 155,179 L 154,178 L 154,176 L 152,174 L 152,173 L 153,172 L 153,171 L 155,169 L 155,164 L 154,163 L 154,162 L 155,161 L 155,159 L 157,157 L 157,152 L 158,151 L 159,151 L 158,150 L 157,150 L 156,149 L 156,147 L 155,146 L 155,145 L 154,144 L 154,143 L 144,143 L 143,142 L 142,142 L 141,141 L 140,141 L 138,139 Z" fill="none" stroke="black" stroke-width="1"/>
</svg>