<svg xmlns="http://www.w3.org/2000/svg" width="304" height="349">
  <path d="M 90,174 L 90,175 L 92,177 L 93,177 Z" fill="none" stroke="black" stroke-width="1"/>
  <path d="M 91,166 L 91,167 L 92,168 L 94,168 L 93,167 L 92,167 Z" fill="none" stroke="black" stroke-width="1"/>
  <path d="M 70,156 L 71,157 L 74,157 L 74,156 Z" fill="none" stroke="black" stroke-width="1"/>
  <path d="M 66,156 L 66,158 L 67,157 L 68,157 L 67,156 Z" fill="none" stroke="black" stroke-width="1"/>
  <path d="M 69,133 L 68,134 L 64,134 L 63,135 L 60,135 L 59,136 L 59,146 L 60,146 L 61,147 L 61,148 L 62,147 L 68,147 L 69,148 L 74,148 L 75,149 L 77,149 L 80,152 L 80,153 L 81,154 L 83,154 L 84,155 L 91,155 L 93,157 L 93,158 L 94,159 L 93,160 L 94,161 L 95,161 L 96,160 L 98,160 L 99,161 L 99,162 L 100,162 L 102,164 L 103,164 L 103,163 L 106,160 L 113,160 L 112,160 L 111,159 L 111,158 L 107,154 L 106,154 L 105,153 L 104,153 L 102,151 L 102,150 L 101,149 L 101,148 L 99,146 L 97,146 L 96,145 L 94,145 L 93,144 L 92,144 L 91,143 L 87,143 L 86,142 L 86,141 L 83,138 L 83,137 L 81,137 L 80,136 L 78,136 L 77,137 L 76,137 L 75,136 L 74,136 L 71,133 Z" fill="none" stroke="black" stroke-width="1"/>
</svg>