<svg xmlns="http://www.w3.org/2000/svg" width="304" height="349">
  <path d="M 40,103 L 40,104 L 41,105 L 41,107 L 39,109 L 38,109 L 38,110 L 39,111 L 39,114 L 41,116 L 42,116 L 44,118 L 44,119 L 46,121 L 46,122 L 48,124 L 48,125 L 49,126 L 50,126 L 51,127 L 51,128 L 52,129 L 53,129 L 55,131 L 55,134 L 56,135 L 59,135 L 60,134 L 63,134 L 64,133 L 68,133 L 69,132 L 67,130 L 67,125 L 64,122 L 64,121 L 61,118 L 61,117 L 60,116 L 60,112 L 59,111 L 59,110 L 56,110 L 53,107 L 50,107 L 49,106 L 47,106 L 46,105 L 45,105 L 44,104 L 43,104 L 42,103 Z" fill="none" stroke="black" stroke-width="1"/>
</svg>