<svg xmlns="http://www.w3.org/2000/svg" width="304" height="349">
  <path d="M 57,86 L 57,92 L 50,99 L 50,106 L 53,106 L 56,109 L 59,109 L 60,110 L 60,111 L 61,112 L 61,116 L 62,117 L 62,118 L 65,121 L 66,121 L 67,120 L 69,120 L 69,119 L 71,117 L 72,117 L 73,118 L 74,118 L 74,117 L 75,116 L 75,115 L 76,114 L 78,114 L 79,113 L 79,112 L 78,111 L 78,110 L 77,109 L 77,106 L 76,106 L 72,102 L 72,101 L 65,94 L 64,94 L 63,93 L 63,92 L 62,91 L 62,87 L 61,86 Z" fill="none" stroke="black" stroke-width="1"/>
</svg>