<svg xmlns="http://www.w3.org/2000/svg" width="1133" height="465">
  <path d="M 847,358 L 847,373 L 846,374 L 846,378 L 845,379 L 845,387 L 844,388 L 844,399 L 843,400 L 844,401 L 844,402 L 843,403 L 843,405 L 842,406 L 843,407 L 842,408 L 842,409 L 847,409 L 849,407 L 851,407 L 852,406 L 854,406 L 854,405 L 856,403 L 856,402 L 858,400 L 859,400 L 859,395 L 857,393 L 857,392 L 854,389 L 854,378 L 855,377 L 855,373 L 858,370 L 858,369 L 860,367 L 860,363 L 858,363 L 857,364 L 853,360 L 852,360 L 851,359 L 850,359 L 849,358 Z" fill="none" stroke="black" stroke-width="1"/>
</svg>