<svg xmlns="http://www.w3.org/2000/svg" width="1133" height="465">
  <path d="M 854,342 L 852,344 L 851,344 L 850,345 L 847,345 L 848,346 L 847,347 L 847,348 L 846,349 L 845,348 L 845,344 L 844,344 L 844,348 L 845,348 L 846,349 L 846,350 L 847,351 L 848,351 L 849,350 L 854,350 L 856,352 L 858,352 L 859,353 L 858,354 L 855,354 L 853,352 L 852,353 L 847,353 L 847,357 L 849,357 L 850,358 L 851,358 L 852,359 L 853,359 L 857,363 L 858,362 L 865,362 L 867,364 L 868,364 L 870,366 L 870,368 L 871,369 L 871,370 L 872,371 L 872,372 L 873,373 L 874,373 L 876,375 L 876,376 L 877,376 L 878,375 L 881,375 L 882,374 L 883,374 L 884,373 L 886,373 L 887,372 L 888,372 L 888,370 L 891,367 L 891,366 L 892,365 L 892,363 L 885,363 L 884,362 L 881,362 L 879,360 L 878,360 L 877,359 L 876,359 L 875,358 L 875,357 L 873,355 L 873,353 L 872,352 L 872,350 L 870,348 L 869,348 L 867,346 L 866,346 L 865,345 L 864,345 L 863,344 L 861,344 L 860,343 L 856,343 L 855,342 Z" fill="none" stroke="black" stroke-width="1"/>
</svg>