<svg xmlns="http://www.w3.org/2000/svg" width="1133" height="465">
  <path d="M 868,318 L 867,319 L 867,320 L 866,321 L 866,322 L 865,323 L 864,323 L 864,324 L 861,327 L 861,328 L 862,327 L 863,327 L 864,328 L 864,329 L 865,330 L 865,332 L 865,330 L 866,329 L 867,330 L 868,330 L 870,328 L 869,328 L 868,327 L 868,325 L 867,324 L 867,322 L 868,321 L 869,321 L 869,319 Z" fill="none" stroke="black" stroke-width="1"/>
  <path d="M 881,300 L 880,301 L 869,301 L 869,302 L 870,303 L 870,306 L 869,307 L 866,307 L 867,308 L 868,308 L 869,309 L 870,309 L 871,310 L 871,313 L 872,314 L 872,315 L 871,316 L 870,316 L 869,315 L 869,314 L 867,312 L 867,310 L 866,310 L 866,311 L 865,312 L 868,315 L 869,315 L 870,316 L 870,317 L 871,317 L 872,316 L 873,317 L 873,318 L 871,320 L 871,322 L 870,323 L 871,324 L 871,326 L 872,327 L 876,327 L 877,328 L 878,328 L 880,330 L 886,330 L 887,329 L 888,329 L 889,330 L 891,328 L 891,327 L 890,326 L 890,323 L 891,322 L 889,320 L 889,317 L 890,316 L 890,314 L 895,309 L 896,309 L 896,306 L 895,306 L 894,305 L 893,305 L 891,303 L 890,303 L 889,302 L 888,302 L 886,300 L 884,300 L 883,301 L 882,301 Z" fill="none" stroke="black" stroke-width="1"/>
</svg>