<svg xmlns="http://www.w3.org/2000/svg" width="304" height="349">
  <path d="M 216,96 L 215,97 L 214,97 L 212,99 L 211,99 L 210,100 L 205,100 L 204,101 L 201,101 L 200,102 L 200,103 L 198,105 L 197,105 L 197,106 L 198,107 L 198,111 L 197,112 L 197,115 L 196,116 L 195,116 L 194,117 L 194,118 L 195,119 L 196,119 L 197,120 L 196,121 L 196,123 L 198,123 L 200,121 L 203,121 L 204,120 L 207,120 L 208,119 L 214,119 L 216,121 L 217,121 L 223,127 L 223,128 L 224,129 L 224,131 L 227,131 L 230,128 L 231,128 L 231,126 L 230,125 L 230,124 L 231,123 L 231,122 L 232,121 L 238,121 L 239,120 L 240,120 L 240,119 L 241,118 L 241,114 L 240,113 L 240,112 L 237,109 L 237,108 L 240,105 L 241,105 L 242,104 L 242,100 L 237,100 L 236,101 L 235,101 L 234,100 L 233,100 L 232,99 L 231,99 L 230,98 L 228,98 L 227,97 L 221,97 L 220,96 Z" fill="none" stroke="black" stroke-width="1"/>
</svg>