<svg xmlns="http://www.w3.org/2000/svg" width="304" height="349">
  <path d="M 177,142 L 176,143 L 176,144 L 175,145 L 175,146 L 174,147 L 174,148 L 172,150 L 169,150 L 168,151 L 167,151 L 165,149 L 164,150 L 163,150 L 162,151 L 160,151 L 159,152 L 158,152 L 158,157 L 156,159 L 156,161 L 155,162 L 155,163 L 156,164 L 156,169 L 154,171 L 154,172 L 153,173 L 153,174 L 155,176 L 155,178 L 156,179 L 156,180 L 155,181 L 155,182 L 156,182 L 159,185 L 161,185 L 165,181 L 166,181 L 167,180 L 168,180 L 169,179 L 171,179 L 172,178 L 182,178 L 183,177 L 186,177 L 188,175 L 188,173 L 185,170 L 185,168 L 186,167 L 187,167 L 188,166 L 190,166 L 191,165 L 201,165 L 202,166 L 203,166 L 203,164 L 205,162 L 205,161 L 204,160 L 204,159 L 203,158 L 203,155 L 202,154 L 200,154 L 199,153 L 198,153 L 196,151 L 196,149 L 195,148 L 194,148 L 193,147 L 192,147 L 190,145 L 189,146 L 184,146 L 183,145 L 182,145 L 181,144 L 180,144 L 178,142 Z" fill="none" stroke="black" stroke-width="1"/>
</svg>