<svg xmlns="http://www.w3.org/2000/svg" width="304" height="349">
  <path d="M 191,166 L 190,167 L 188,167 L 187,168 L 186,168 L 186,170 L 189,173 L 189,175 L 186,178 L 183,178 L 182,179 L 172,179 L 171,180 L 169,180 L 168,181 L 167,181 L 166,182 L 165,182 L 162,185 L 162,186 L 163,187 L 164,187 L 166,189 L 168,189 L 169,190 L 170,190 L 171,191 L 173,191 L 174,192 L 175,192 L 177,194 L 178,194 L 179,195 L 180,195 L 181,194 L 184,194 L 185,193 L 190,193 L 191,194 L 192,193 L 192,192 L 194,190 L 195,190 L 198,187 L 200,187 L 201,186 L 202,186 L 203,185 L 203,184 L 206,181 L 206,179 L 208,177 L 208,175 L 206,173 L 206,170 L 205,169 L 205,168 L 204,168 L 203,167 L 202,167 L 201,166 Z" fill="none" stroke="black" stroke-width="1"/>
</svg>