<svg xmlns="http://www.w3.org/2000/svg" width="304" height="349">
  <path d="M 268,97 L 267,98 L 264,98 L 263,99 L 261,99 L 260,100 L 255,100 L 254,101 L 243,101 L 243,104 L 241,106 L 240,106 L 238,108 L 238,109 L 241,112 L 241,113 L 242,114 L 242,118 L 241,119 L 241,120 L 240,121 L 239,121 L 238,122 L 232,122 L 232,123 L 231,124 L 231,125 L 232,126 L 232,127 L 233,127 L 234,128 L 241,128 L 242,127 L 243,127 L 244,128 L 251,128 L 252,127 L 252,126 L 253,125 L 256,125 L 257,126 L 259,126 L 260,127 L 261,127 L 264,124 L 264,123 L 265,122 L 266,122 L 266,119 L 265,118 L 265,114 L 266,113 L 268,113 L 269,112 L 274,112 L 275,113 L 276,113 L 277,114 L 277,115 L 280,112 L 280,111 L 279,110 L 279,109 L 278,108 L 278,107 L 277,106 L 277,104 L 279,102 L 284,102 L 284,101 L 286,99 L 287,99 L 287,98 L 286,98 L 285,97 Z" fill="none" stroke="black" stroke-width="1"/>
</svg>