<svg xmlns="http://www.w3.org/2000/svg" width="304" height="349">
  <path d="M 223,163 L 222,164 L 221,164 L 219,166 L 217,166 L 215,168 L 214,168 L 214,170 L 215,171 L 215,173 L 214,174 L 214,175 L 213,176 L 212,176 L 213,177 L 213,179 L 218,179 L 220,181 L 220,182 L 221,183 L 221,184 L 222,185 L 223,185 L 224,186 L 224,189 L 225,190 L 225,191 L 226,192 L 226,193 L 227,194 L 227,195 L 229,197 L 229,198 L 232,201 L 234,201 L 234,199 L 235,198 L 235,197 L 234,196 L 234,194 L 235,193 L 235,189 L 234,188 L 234,185 L 233,184 L 233,173 L 232,172 L 232,170 L 233,169 L 232,168 L 233,167 L 233,166 L 232,166 L 231,165 L 231,164 L 226,164 L 225,163 Z" fill="none" stroke="black" stroke-width="1"/>
</svg>