<svg xmlns="http://www.w3.org/2000/svg" width="304" height="349">
  <path d="M 288,99 L 287,100 L 286,100 L 285,101 L 285,102 L 284,103 L 279,103 L 278,104 L 278,106 L 279,107 L 279,108 L 280,109 L 280,110 L 281,111 L 281,112 L 277,116 L 277,117 L 278,117 L 281,120 L 281,121 L 283,123 L 283,124 L 284,124 L 286,122 L 290,122 L 291,123 L 293,123 L 294,122 L 295,122 L 296,121 L 298,121 L 298,120 L 301,117 L 301,107 L 300,106 L 300,105 L 299,104 L 296,104 L 293,101 L 291,101 L 290,100 L 289,100 Z" fill="none" stroke="black" stroke-width="1"/>
</svg>