<svg xmlns="http://www.w3.org/2000/svg" width="304" height="349">
  <path d="M 271,150 L 270,151 L 270,152 L 269,153 L 269,154 L 267,156 L 267,159 L 266,160 L 266,162 L 265,163 L 263,163 L 262,164 L 261,164 L 259,166 L 258,166 L 258,167 L 256,169 L 257,170 L 257,171 L 259,173 L 259,181 L 257,183 L 257,185 L 255,187 L 255,196 L 256,196 L 257,195 L 260,195 L 262,193 L 263,193 L 264,194 L 264,195 L 273,195 L 274,194 L 274,191 L 276,189 L 278,189 L 278,186 L 277,185 L 277,180 L 278,179 L 278,178 L 279,177 L 279,174 L 280,173 L 280,171 L 285,166 L 285,164 L 283,162 L 284,161 L 284,159 L 283,158 L 283,157 L 282,157 L 280,155 L 279,155 L 278,154 L 277,154 L 275,152 L 274,152 L 272,150 Z" fill="none" stroke="black" stroke-width="1"/>
</svg>