<svg xmlns="http://www.w3.org/2000/svg" width="258" height="263">
  <path d="M 96,55 L 95,56 L 94,56 L 88,62 L 84,62 L 83,61 L 82,62 L 81,62 L 76,67 L 75,67 L 74,68 L 72,68 L 71,69 L 67,69 L 64,66 L 62,66 L 61,65 L 57,69 L 57,71 L 56,72 L 56,75 L 55,76 L 55,77 L 54,78 L 54,83 L 55,84 L 55,87 L 61,87 L 62,86 L 66,86 L 67,85 L 68,85 L 69,86 L 80,86 L 81,85 L 84,85 L 85,86 L 91,86 L 92,85 L 93,85 L 95,83 L 95,82 L 97,80 L 97,79 L 98,78 L 98,75 L 99,74 L 99,73 L 101,71 L 101,70 L 103,68 L 103,62 L 102,61 L 102,58 L 101,57 L 100,57 L 99,56 L 97,56 Z" fill="none" stroke="black" stroke-width="1"/>
</svg>