<svg xmlns="http://www.w3.org/2000/svg" width="258" height="263">
  <path d="M 166,105 L 165,106 L 164,106 L 163,107 L 162,107 L 161,108 L 161,109 L 160,110 L 160,111 L 158,113 L 155,113 L 153,115 L 153,116 L 150,119 L 149,119 L 149,121 L 150,122 L 150,123 L 152,125 L 152,126 L 153,127 L 156,127 L 157,128 L 157,139 L 158,140 L 158,141 L 159,142 L 159,145 L 160,146 L 160,149 L 161,150 L 162,150 L 163,151 L 163,152 L 166,152 L 167,153 L 168,153 L 170,155 L 172,155 L 173,154 L 176,154 L 177,153 L 177,150 L 178,149 L 178,148 L 179,147 L 179,145 L 180,144 L 180,141 L 181,140 L 181,137 L 182,136 L 182,135 L 181,135 L 178,132 L 178,131 L 177,130 L 177,125 L 172,120 L 172,118 L 171,117 L 171,115 L 170,114 L 170,112 L 169,111 L 169,108 L 170,107 L 168,105 Z" fill="none" stroke="black" stroke-width="1"/>
</svg>