<svg xmlns="http://www.w3.org/2000/svg" width="258" height="263">
  <path d="M 195,129 L 193,131 L 187,131 L 186,132 L 185,132 L 185,134 L 184,135 L 183,135 L 183,136 L 182,137 L 182,140 L 181,141 L 181,144 L 180,145 L 180,147 L 179,148 L 179,149 L 178,150 L 178,152 L 184,152 L 189,157 L 189,158 L 190,158 L 191,159 L 191,161 L 195,161 L 196,162 L 200,162 L 200,160 L 201,159 L 200,159 L 199,158 L 201,156 L 202,157 L 203,157 L 204,158 L 204,159 L 204,157 L 205,156 L 205,153 L 206,152 L 207,152 L 208,153 L 208,154 L 209,153 L 210,153 L 211,152 L 208,149 L 208,148 L 209,147 L 211,149 L 212,149 L 211,148 L 212,147 L 213,147 L 214,148 L 215,147 L 216,148 L 216,149 L 217,149 L 218,148 L 219,149 L 219,148 L 220,147 L 221,148 L 222,147 L 223,147 L 223,144 L 221,142 L 221,139 L 220,139 L 219,138 L 218,138 L 215,135 L 214,135 L 213,134 L 212,134 L 211,133 L 210,133 L 209,132 L 207,132 L 206,131 L 203,131 L 202,130 L 199,130 L 198,129 Z" fill="none" stroke="black" stroke-width="1"/>
</svg>