<svg xmlns="http://www.w3.org/2000/svg" width="258" height="263">
  <path d="M 119,10 L 117,12 L 115,12 L 114,13 L 112,13 L 111,14 L 110,14 L 110,16 L 108,18 L 108,25 L 107,26 L 107,28 L 106,29 L 106,31 L 107,32 L 107,35 L 105,37 L 106,38 L 106,39 L 107,40 L 107,43 L 108,44 L 108,46 L 107,47 L 107,51 L 106,52 L 107,52 L 108,53 L 109,53 L 111,55 L 112,55 L 113,56 L 114,56 L 116,58 L 117,58 L 118,59 L 129,59 L 130,58 L 137,58 L 137,56 L 140,53 L 142,53 L 144,51 L 145,51 L 146,50 L 147,50 L 152,45 L 152,44 L 153,43 L 153,32 L 152,31 L 152,26 L 149,23 L 148,23 L 147,22 L 146,22 L 145,21 L 145,20 L 144,19 L 143,19 L 141,17 L 140,17 L 137,14 L 136,14 L 135,13 L 130,13 L 129,12 L 122,12 L 121,11 L 120,11 Z" fill="none" stroke="black" stroke-width="1"/>
</svg>