<svg xmlns="http://www.w3.org/2000/svg" width="258" height="263">
  <path d="M 193,56 L 192,57 L 190,57 L 190,58 L 189,59 L 187,59 L 186,60 L 185,60 L 182,63 L 182,64 L 178,68 L 177,68 L 175,70 L 175,74 L 179,74 L 180,75 L 182,75 L 183,76 L 186,76 L 187,77 L 191,77 L 192,78 L 202,78 L 203,79 L 203,80 L 206,80 L 207,79 L 210,79 L 213,76 L 214,76 L 214,75 L 219,70 L 219,69 L 224,64 L 225,64 L 226,63 L 231,63 L 232,62 L 233,62 L 234,61 L 236,61 L 236,60 L 233,57 L 233,56 L 232,56 L 231,57 L 229,57 L 228,58 L 223,58 L 222,59 L 215,59 L 214,60 L 213,60 L 211,58 L 205,58 L 204,57 L 202,59 L 199,59 L 198,58 L 196,58 L 194,56 Z" fill="none" stroke="black" stroke-width="1"/>
</svg>