<svg xmlns="http://www.w3.org/2000/svg" width="258" height="263">
  <path d="M 221,76 L 220,77 L 213,77 L 210,80 L 207,80 L 206,81 L 205,81 L 205,82 L 200,87 L 200,91 L 199,92 L 199,94 L 200,95 L 200,96 L 198,98 L 195,98 L 195,99 L 198,102 L 200,102 L 201,103 L 204,103 L 205,104 L 207,104 L 208,105 L 209,105 L 210,106 L 213,106 L 213,105 L 216,102 L 218,102 L 219,101 L 224,101 L 225,100 L 228,100 L 229,99 L 230,99 L 231,98 L 232,98 L 233,97 L 233,96 L 234,95 L 234,90 L 235,89 L 235,86 L 233,86 L 232,85 L 232,83 L 231,82 L 231,81 L 230,80 L 229,80 L 228,79 L 227,79 L 226,78 L 223,78 Z" fill="none" stroke="black" stroke-width="1"/>
</svg>