<svg xmlns="http://www.w3.org/2000/svg" width="258" height="263">
  <path d="M 210,116 L 207,119 L 206,119 L 206,120 L 204,122 L 200,122 L 198,124 L 197,124 L 197,128 L 198,128 L 199,129 L 202,129 L 203,130 L 206,130 L 207,131 L 209,131 L 210,132 L 211,132 L 212,133 L 213,133 L 214,134 L 215,134 L 218,137 L 219,137 L 220,138 L 221,138 L 222,139 L 222,142 L 224,144 L 224,147 L 226,145 L 227,145 L 229,143 L 230,143 L 231,142 L 231,141 L 235,137 L 235,135 L 233,133 L 233,131 L 234,130 L 235,130 L 236,129 L 238,129 L 239,130 L 239,133 L 240,132 L 241,132 L 242,133 L 243,133 L 244,132 L 246,132 L 246,130 L 244,128 L 244,127 L 243,127 L 240,124 L 229,124 L 228,123 L 227,123 L 226,122 L 225,122 L 224,121 L 222,121 L 220,119 L 219,119 L 216,116 Z" fill="none" stroke="black" stroke-width="1"/>
</svg>