<svg xmlns="http://www.w3.org/2000/svg" width="361" height="306">
  <path d="M 151,225 L 150,226 L 150,228 L 151,229 L 151,231 L 149,233 L 149,234 L 147,236 L 147,237 L 146,238 L 146,239 L 144,241 L 143,241 L 142,242 L 142,244 L 141,245 L 140,245 L 140,246 L 141,247 L 141,249 L 143,251 L 144,251 L 149,256 L 150,256 L 152,258 L 158,258 L 159,259 L 163,259 L 164,258 L 166,258 L 167,257 L 169,257 L 171,255 L 172,256 L 173,256 L 174,257 L 181,257 L 182,258 L 186,258 L 186,257 L 189,254 L 189,253 L 190,252 L 192,252 L 191,251 L 191,247 L 192,246 L 192,238 L 193,237 L 193,232 L 192,232 L 190,230 L 188,230 L 186,232 L 186,233 L 185,234 L 180,234 L 179,233 L 175,233 L 174,232 L 171,232 L 170,231 L 167,231 L 166,230 L 165,230 L 163,228 L 162,228 L 161,229 L 154,229 L 152,227 L 153,226 L 153,225 Z" fill="none" stroke="black" stroke-width="1"/>
</svg>