<svg xmlns="http://www.w3.org/2000/svg" width="361" height="306">
  <path d="M 225,213 L 224,214 L 221,214 L 220,215 L 215,215 L 214,216 L 211,216 L 210,217 L 209,217 L 208,218 L 207,218 L 206,219 L 204,219 L 199,224 L 199,225 L 198,226 L 197,226 L 196,227 L 195,227 L 195,231 L 194,232 L 194,237 L 193,238 L 193,246 L 192,247 L 192,251 L 195,251 L 196,252 L 199,252 L 202,249 L 203,249 L 204,248 L 209,248 L 210,249 L 213,249 L 214,248 L 216,248 L 217,247 L 219,247 L 220,246 L 224,246 L 225,247 L 228,247 L 229,248 L 235,248 L 236,247 L 237,247 L 238,246 L 243,246 L 244,247 L 245,247 L 246,246 L 247,246 L 248,247 L 248,248 L 253,248 L 253,246 L 255,244 L 255,243 L 254,242 L 254,232 L 253,231 L 252,231 L 248,227 L 248,223 L 247,222 L 246,222 L 244,220 L 244,219 L 241,216 L 237,216 L 235,214 L 234,214 L 233,213 Z" fill="none" stroke="black" stroke-width="1"/>
</svg>