<svg xmlns="http://www.w3.org/2000/svg" width="361" height="306">
  <path d="M 220,247 L 219,248 L 217,248 L 216,249 L 214,249 L 213,250 L 210,250 L 209,249 L 204,249 L 203,250 L 202,250 L 199,253 L 196,253 L 195,252 L 193,252 L 192,253 L 190,253 L 190,254 L 187,257 L 187,258 L 188,259 L 189,259 L 192,262 L 193,262 L 195,264 L 196,264 L 198,266 L 198,267 L 199,267 L 200,268 L 201,268 L 205,272 L 205,277 L 206,278 L 206,281 L 207,280 L 209,280 L 210,279 L 217,279 L 219,277 L 228,277 L 229,276 L 230,276 L 231,275 L 232,275 L 233,274 L 234,274 L 235,273 L 239,273 L 240,272 L 242,272 L 243,271 L 245,271 L 247,269 L 247,268 L 249,266 L 249,265 L 251,263 L 251,261 L 253,259 L 256,259 L 257,258 L 257,256 L 258,255 L 258,254 L 259,253 L 258,253 L 257,252 L 256,252 L 253,249 L 248,249 L 247,248 L 247,247 L 246,247 L 245,248 L 244,248 L 243,247 L 238,247 L 237,248 L 236,248 L 235,249 L 229,249 L 228,248 L 225,248 L 224,247 Z" fill="none" stroke="black" stroke-width="1"/>
</svg>