<svg xmlns="http://www.w3.org/2000/svg" width="361" height="306">
  <path d="M 243,272 L 242,273 L 240,273 L 239,274 L 235,274 L 234,275 L 233,275 L 232,276 L 231,276 L 230,277 L 229,277 L 228,278 L 219,278 L 217,280 L 210,280 L 209,281 L 207,281 L 206,282 L 206,287 L 207,288 L 207,289 L 208,289 L 209,290 L 209,292 L 218,292 L 219,293 L 220,293 L 221,294 L 221,296 L 227,296 L 228,297 L 229,297 L 230,298 L 238,298 L 240,300 L 240,299 L 241,298 L 241,297 L 243,295 L 247,295 L 248,294 L 250,294 L 252,292 L 253,292 L 253,291 L 255,289 L 255,287 L 257,285 L 258,285 L 258,283 L 257,282 L 256,282 L 253,279 L 251,279 L 250,278 L 249,278 L 245,274 L 245,273 L 244,272 Z" fill="none" stroke="black" stroke-width="1"/>
</svg>