<svg xmlns="http://www.w3.org/2000/svg" width="259" height="209">
  <path d="M 56,179 L 56,181 L 59,184 L 59,185 L 61,187 L 61,188 L 67,194 L 67,195 L 68,196 L 68,200 L 69,200 L 71,202 L 72,202 L 73,203 L 73,204 L 72,205 L 71,204 L 70,204 L 71,205 L 72,205 L 73,206 L 74,205 L 75,206 L 76,206 L 77,207 L 79,207 L 82,204 L 85,204 L 87,206 L 87,208 L 89,206 L 89,202 L 90,201 L 92,201 L 96,205 L 98,205 L 100,207 L 100,208 L 104,208 L 105,207 L 105,206 L 103,204 L 100,204 L 99,203 L 98,203 L 96,201 L 95,201 L 94,200 L 94,199 L 98,195 L 100,195 L 100,193 L 99,192 L 99,191 L 97,193 L 97,194 L 96,195 L 95,195 L 94,194 L 93,194 L 92,193 L 92,192 L 93,191 L 94,191 L 91,191 L 90,192 L 83,192 L 82,193 L 76,193 L 75,192 L 74,192 L 71,189 L 71,188 L 70,187 L 70,186 L 69,186 L 66,183 L 65,183 L 63,181 L 62,181 L 60,179 Z" fill="none" stroke="black" stroke-width="1"/>
</svg>