<svg xmlns="http://www.w3.org/2000/svg" width="259" height="209">
  <path d="M 45,109 L 41,113 L 40,113 L 39,114 L 39,116 L 38,117 L 38,118 L 36,120 L 36,122 L 32,126 L 32,128 L 31,129 L 31,130 L 30,131 L 28,131 L 30,133 L 31,133 L 32,134 L 32,136 L 33,137 L 33,144 L 34,145 L 35,145 L 37,143 L 44,143 L 45,144 L 51,144 L 52,143 L 53,143 L 55,141 L 55,138 L 54,137 L 54,136 L 55,135 L 55,133 L 53,131 L 53,129 L 54,128 L 54,127 L 55,126 L 53,126 L 52,125 L 53,124 L 53,122 L 49,118 L 49,117 L 48,116 L 48,110 L 47,109 Z" fill="none" stroke="black" stroke-width="1"/>
</svg>