<svg xmlns="http://www.w3.org/2000/svg" width="259" height="209">
  <path d="M 74,113 L 74,114 L 71,117 L 70,117 L 69,118 L 68,118 L 67,119 L 63,119 L 62,120 L 61,120 L 60,119 L 58,119 L 58,121 L 57,122 L 57,123 L 56,124 L 56,126 L 55,127 L 55,128 L 54,129 L 54,131 L 56,133 L 56,135 L 55,136 L 55,137 L 56,138 L 56,142 L 57,143 L 58,143 L 58,142 L 59,141 L 60,141 L 61,140 L 65,140 L 66,139 L 69,139 L 70,138 L 71,138 L 72,137 L 72,127 L 73,126 L 73,125 L 74,124 L 75,124 L 77,122 L 78,122 L 78,121 L 80,119 L 80,113 Z" fill="none" stroke="black" stroke-width="1"/>
</svg>