<svg xmlns="http://www.w3.org/2000/svg" width="361" height="306">
  <path d="M 274,281 L 273,282 L 270,282 L 269,283 L 266,283 L 265,284 L 264,283 L 259,283 L 259,285 L 258,286 L 257,286 L 256,287 L 256,289 L 254,291 L 254,292 L 253,293 L 252,293 L 250,295 L 248,295 L 247,296 L 243,296 L 242,297 L 242,298 L 241,299 L 241,300 L 242,301 L 242,302 L 244,302 L 245,301 L 246,301 L 248,303 L 250,303 L 251,304 L 254,304 L 256,302 L 257,303 L 263,303 L 265,305 L 266,305 L 267,304 L 274,304 L 275,303 L 280,303 L 281,302 L 283,302 L 284,301 L 285,301 L 286,300 L 287,300 L 287,297 L 288,296 L 288,294 L 289,293 L 288,292 L 288,290 L 290,288 L 289,287 L 289,285 L 288,285 L 285,282 L 284,282 L 283,281 Z" fill="none" stroke="black" stroke-width="1"/>
</svg>