<svg xmlns="http://www.w3.org/2000/svg" width="259" height="209">
  <path d="M 59,91 L 56,94 L 56,95 L 53,98 L 52,98 L 51,99 L 51,100 L 50,101 L 49,101 L 49,102 L 47,104 L 47,107 L 48,108 L 48,109 L 49,110 L 49,116 L 50,117 L 50,118 L 54,122 L 54,124 L 53,125 L 55,125 L 55,124 L 56,123 L 56,122 L 57,121 L 57,119 L 58,118 L 60,118 L 61,119 L 62,119 L 63,118 L 67,118 L 68,117 L 69,117 L 70,116 L 71,116 L 73,114 L 73,113 L 74,112 L 75,112 L 75,111 L 74,110 L 74,109 L 73,108 L 73,106 L 72,105 L 72,102 L 71,102 L 69,100 L 69,99 L 66,96 L 66,95 L 64,93 L 63,93 L 61,91 Z" fill="none" stroke="black" stroke-width="1"/>
</svg>