<svg xmlns="http://www.w3.org/2000/svg" width="361" height="306">
  <path d="M 274,187 L 269,192 L 265,192 L 264,193 L 263,193 L 262,194 L 259,194 L 258,195 L 257,195 L 256,196 L 254,196 L 253,197 L 251,197 L 248,200 L 248,201 L 247,202 L 247,207 L 246,208 L 246,209 L 243,212 L 243,213 L 242,214 L 242,216 L 245,219 L 245,220 L 246,221 L 247,221 L 249,223 L 249,227 L 252,230 L 253,230 L 254,231 L 255,231 L 256,230 L 256,229 L 260,225 L 260,223 L 264,219 L 266,219 L 267,218 L 269,218 L 270,217 L 272,217 L 273,216 L 274,216 L 275,215 L 276,216 L 278,216 L 279,215 L 285,215 L 285,214 L 286,213 L 287,213 L 287,212 L 289,210 L 289,209 L 287,207 L 287,204 L 288,203 L 287,203 L 285,201 L 285,196 L 282,193 L 282,192 L 280,190 L 278,190 L 276,188 L 275,188 Z" fill="none" stroke="black" stroke-width="1"/>
</svg>