<svg xmlns="http://www.w3.org/2000/svg" width="259" height="209">
  <path d="M 51,48 L 50,49 L 51,50 L 51,51 L 48,54 L 47,54 L 46,55 L 45,55 L 44,56 L 42,56 L 40,58 L 40,59 L 41,60 L 41,64 L 39,66 L 38,66 L 37,67 L 35,67 L 34,68 L 33,68 L 32,69 L 31,69 L 29,71 L 28,71 L 28,73 L 29,73 L 31,75 L 31,76 L 32,76 L 33,75 L 35,75 L 37,73 L 43,73 L 44,74 L 51,74 L 52,75 L 56,75 L 57,76 L 59,76 L 60,77 L 63,77 L 64,78 L 65,78 L 66,77 L 67,77 L 68,76 L 69,76 L 71,74 L 74,74 L 75,75 L 77,75 L 79,77 L 79,74 L 76,71 L 76,69 L 75,68 L 75,66 L 74,65 L 74,64 L 71,61 L 71,60 L 70,59 L 70,57 L 66,53 L 63,53 L 62,52 L 61,52 L 59,50 L 57,50 L 56,49 L 54,49 L 53,48 Z" fill="none" stroke="black" stroke-width="1"/>
</svg>