<svg xmlns="http://www.w3.org/2000/svg" width="1028" height="413">
  <path d="M 601,167 L 601,168 L 600,169 L 599,169 L 596,172 L 596,176 L 597,177 L 599,177 L 600,178 L 600,179 L 601,180 L 601,181 L 602,182 L 602,186 L 603,187 L 602,188 L 601,188 L 600,189 L 598,189 L 597,190 L 593,190 L 592,189 L 583,189 L 582,190 L 581,190 L 580,191 L 579,191 L 575,195 L 575,196 L 572,199 L 572,202 L 571,203 L 571,204 L 569,206 L 569,211 L 570,212 L 570,213 L 571,214 L 571,222 L 570,223 L 570,225 L 573,228 L 573,230 L 574,231 L 574,236 L 573,237 L 573,243 L 572,244 L 572,246 L 574,248 L 575,248 L 576,249 L 578,249 L 579,250 L 579,251 L 580,251 L 581,252 L 584,252 L 585,251 L 584,250 L 585,249 L 587,249 L 588,248 L 589,248 L 590,247 L 591,247 L 592,246 L 604,246 L 605,245 L 606,245 L 606,244 L 608,242 L 611,242 L 612,241 L 612,240 L 614,238 L 614,237 L 616,235 L 617,235 L 619,233 L 616,233 L 615,232 L 614,232 L 612,230 L 612,226 L 613,225 L 617,225 L 618,226 L 619,226 L 621,224 L 625,224 L 626,223 L 629,223 L 630,222 L 631,222 L 632,221 L 633,221 L 634,220 L 635,220 L 640,215 L 641,215 L 641,212 L 640,211 L 640,210 L 639,210 L 638,209 L 636,209 L 635,208 L 634,208 L 633,207 L 633,206 L 632,205 L 632,204 L 631,203 L 631,202 L 630,201 L 630,198 L 631,197 L 630,196 L 630,195 L 629,194 L 629,191 L 627,189 L 627,188 L 626,187 L 626,186 L 618,178 L 618,177 L 616,175 L 616,171 L 615,172 L 614,171 L 612,173 L 611,173 L 610,174 L 608,174 L 606,172 L 606,171 L 605,171 L 604,170 L 604,168 L 603,168 L 602,167 Z" fill="none" stroke="black" stroke-width="1"/>
</svg>