<svg xmlns="http://www.w3.org/2000/svg" width="361" height="306">
  <path d="M 230,164 L 229,165 L 221,165 L 220,166 L 216,166 L 215,167 L 214,167 L 213,168 L 211,168 L 210,169 L 208,169 L 207,170 L 206,170 L 205,171 L 201,171 L 200,172 L 195,172 L 194,173 L 192,173 L 191,174 L 190,174 L 189,173 L 188,173 L 188,174 L 187,175 L 187,190 L 188,191 L 188,192 L 191,195 L 192,194 L 195,194 L 196,193 L 199,193 L 201,191 L 209,191 L 210,190 L 215,190 L 215,189 L 216,188 L 216,187 L 218,185 L 218,183 L 220,181 L 222,181 L 223,180 L 224,180 L 225,179 L 226,179 L 227,178 L 228,178 L 230,176 L 230,174 L 229,173 L 229,171 L 230,170 L 230,169 L 231,168 L 231,167 L 233,165 L 232,164 Z" fill="none" stroke="black" stroke-width="1"/>
</svg>