<svg xmlns="http://www.w3.org/2000/svg" width="259" height="209">
  <path d="M 15,0 L 14,1 L 5,1 L 4,2 L 3,2 L 2,1 L 1,1 L 1,4 L 0,5 L 0,7 L 1,8 L 2,8 L 4,10 L 6,10 L 9,13 L 9,14 L 12,17 L 12,22 L 13,23 L 14,23 L 15,24 L 14,25 L 14,28 L 16,30 L 16,31 L 22,31 L 24,33 L 25,33 L 26,34 L 30,34 L 31,35 L 40,35 L 41,36 L 44,36 L 45,37 L 46,37 L 47,38 L 50,38 L 51,39 L 51,36 L 49,34 L 49,33 L 48,33 L 45,30 L 45,29 L 41,25 L 41,24 L 38,21 L 38,20 L 37,19 L 37,18 L 35,16 L 35,7 L 34,6 L 34,1 L 33,1 L 32,0 L 31,0 L 30,1 L 29,1 L 28,2 L 27,2 L 26,1 L 25,1 L 24,0 Z" fill="none" stroke="black" stroke-width="1"/>
</svg>