<svg xmlns="http://www.w3.org/2000/svg" width="361" height="306">
  <path d="M 235,143 L 234,144 L 233,144 L 233,149 L 235,151 L 235,152 L 236,153 L 237,153 L 242,158 L 245,158 L 249,162 L 249,163 L 250,164 L 250,166 L 251,167 L 251,168 L 252,169 L 252,171 L 255,174 L 255,175 L 258,178 L 258,179 L 259,180 L 259,186 L 260,187 L 260,188 L 259,189 L 259,191 L 258,192 L 258,194 L 259,193 L 262,193 L 263,192 L 264,192 L 265,191 L 269,191 L 273,187 L 273,184 L 274,183 L 274,181 L 273,180 L 273,178 L 272,177 L 272,166 L 271,165 L 271,163 L 270,162 L 270,161 L 269,161 L 268,160 L 268,158 L 269,157 L 269,154 L 267,152 L 267,151 L 266,150 L 266,149 L 265,150 L 262,150 L 261,149 L 260,149 L 259,148 L 257,148 L 256,147 L 250,147 L 249,148 L 244,148 L 243,149 L 242,149 L 241,148 L 241,146 L 240,145 L 239,145 L 237,143 Z" fill="none" stroke="black" stroke-width="1"/>
</svg>