<svg xmlns="http://www.w3.org/2000/svg" width="361" height="306">
  <path d="M 327,106 L 327,107 L 324,110 L 321,110 L 320,111 L 319,111 L 317,113 L 316,113 L 315,114 L 314,114 L 311,117 L 311,119 L 310,120 L 309,120 L 308,121 L 307,121 L 304,124 L 303,124 L 302,123 L 301,124 L 299,124 L 298,125 L 294,125 L 293,126 L 292,126 L 292,127 L 291,128 L 291,129 L 290,130 L 290,132 L 289,133 L 288,133 L 287,134 L 287,135 L 288,135 L 289,136 L 293,136 L 294,137 L 294,138 L 296,138 L 297,137 L 299,137 L 301,135 L 307,135 L 308,136 L 308,137 L 309,137 L 310,136 L 312,136 L 313,135 L 319,135 L 320,134 L 327,134 L 328,133 L 331,133 L 332,132 L 333,132 L 334,131 L 335,131 L 336,130 L 347,130 L 348,129 L 345,126 L 345,121 L 343,119 L 343,118 L 342,117 L 342,116 L 341,116 L 340,115 L 339,115 L 338,114 L 337,114 L 335,112 L 334,112 L 333,111 L 333,109 L 334,108 L 333,108 L 332,107 L 331,107 L 330,106 Z" fill="none" stroke="black" stroke-width="1"/>
</svg>