<svg xmlns="http://www.w3.org/2000/svg" width="361" height="306">
  <path d="M 336,131 L 335,132 L 334,132 L 333,133 L 332,133 L 331,134 L 328,134 L 327,135 L 320,135 L 319,136 L 313,136 L 312,137 L 310,137 L 309,138 L 308,138 L 307,137 L 307,136 L 301,136 L 299,138 L 297,138 L 296,139 L 294,139 L 293,138 L 293,137 L 289,137 L 288,136 L 284,136 L 284,141 L 285,142 L 285,144 L 288,147 L 289,147 L 291,149 L 292,149 L 293,150 L 294,150 L 295,151 L 296,151 L 298,153 L 299,153 L 304,158 L 304,159 L 305,160 L 305,161 L 307,163 L 310,160 L 312,160 L 313,159 L 314,159 L 316,157 L 317,157 L 319,155 L 320,155 L 321,154 L 325,154 L 329,150 L 330,150 L 331,149 L 333,149 L 334,148 L 337,148 L 338,147 L 339,147 L 340,146 L 342,146 L 343,145 L 344,145 L 347,142 L 348,142 L 349,141 L 350,141 L 347,138 L 347,137 L 346,136 L 346,131 Z" fill="none" stroke="black" stroke-width="1"/>
</svg>