<svg xmlns="http://www.w3.org/2000/svg" width="361" height="306">
  <path d="M 221,37 L 220,38 L 219,38 L 218,39 L 217,39 L 217,42 L 215,44 L 215,45 L 216,45 L 217,46 L 217,47 L 216,48 L 216,49 L 220,53 L 220,55 L 219,56 L 219,57 L 218,58 L 218,66 L 216,68 L 216,70 L 217,71 L 217,75 L 218,76 L 218,78 L 219,79 L 219,81 L 221,81 L 222,82 L 222,84 L 223,84 L 224,85 L 224,86 L 226,88 L 229,88 L 230,89 L 233,89 L 234,88 L 236,88 L 237,89 L 239,89 L 240,90 L 242,90 L 243,91 L 254,91 L 255,92 L 259,92 L 259,89 L 258,89 L 257,88 L 257,87 L 255,85 L 257,83 L 257,82 L 253,78 L 253,77 L 251,75 L 251,71 L 242,62 L 242,61 L 239,58 L 236,58 L 235,57 L 235,56 L 234,55 L 234,54 L 233,53 L 233,52 L 231,50 L 231,49 L 230,48 L 230,45 L 229,44 L 229,41 L 225,37 Z" fill="none" stroke="black" stroke-width="1"/>
</svg>