<svg xmlns="http://www.w3.org/2000/svg" width="361" height="306">
  <path d="M 225,88 L 225,89 L 224,90 L 224,93 L 225,94 L 225,99 L 228,102 L 228,103 L 229,104 L 227,106 L 227,107 L 225,109 L 225,110 L 224,111 L 224,116 L 228,116 L 229,117 L 230,117 L 232,119 L 233,119 L 235,121 L 236,121 L 238,123 L 239,123 L 240,124 L 241,124 L 243,126 L 243,127 L 246,130 L 246,131 L 249,134 L 250,134 L 251,135 L 251,136 L 252,136 L 253,137 L 256,137 L 257,138 L 258,138 L 262,142 L 263,142 L 265,144 L 265,140 L 266,139 L 266,138 L 267,137 L 267,136 L 268,135 L 270,135 L 269,135 L 266,132 L 266,131 L 267,130 L 267,126 L 266,125 L 266,124 L 265,123 L 265,121 L 264,120 L 264,114 L 263,113 L 263,112 L 262,111 L 262,106 L 261,105 L 261,97 L 260,96 L 260,94 L 259,93 L 255,93 L 254,92 L 243,92 L 242,91 L 240,91 L 239,90 L 237,90 L 236,89 L 234,89 L 233,90 L 230,90 L 229,89 L 226,89 Z" fill="none" stroke="black" stroke-width="1"/>
</svg>