<svg xmlns="http://www.w3.org/2000/svg" width="361" height="306">
  <path d="M 288,43 L 287,44 L 287,45 L 286,46 L 286,47 L 287,48 L 287,51 L 286,52 L 284,52 L 283,53 L 283,54 L 282,55 L 282,56 L 280,58 L 281,59 L 281,60 L 276,65 L 276,66 L 275,67 L 273,65 L 272,65 L 272,67 L 271,68 L 271,74 L 270,75 L 267,75 L 266,74 L 264,74 L 262,76 L 262,79 L 260,81 L 260,83 L 259,84 L 257,84 L 256,85 L 258,87 L 258,88 L 261,88 L 262,89 L 265,89 L 266,90 L 266,89 L 267,88 L 273,88 L 274,89 L 274,90 L 275,90 L 277,92 L 277,93 L 278,93 L 279,94 L 281,94 L 282,93 L 283,93 L 284,92 L 288,92 L 289,91 L 290,91 L 291,90 L 291,89 L 298,82 L 297,81 L 297,80 L 295,78 L 295,68 L 296,67 L 298,67 L 298,66 L 299,65 L 299,63 L 301,61 L 305,61 L 307,59 L 307,58 L 309,56 L 309,49 L 307,49 L 306,48 L 301,48 L 300,47 L 300,45 L 298,43 L 296,43 L 294,45 L 292,45 L 291,44 L 290,44 L 289,43 Z" fill="none" stroke="black" stroke-width="1"/>
</svg>