<svg xmlns="http://www.w3.org/2000/svg" width="361" height="306">
  <path d="M 212,46 L 211,47 L 211,48 L 206,53 L 189,53 L 189,54 L 188,55 L 188,59 L 190,61 L 189,62 L 189,65 L 190,66 L 190,67 L 193,70 L 193,72 L 194,73 L 193,74 L 193,79 L 192,80 L 194,82 L 195,82 L 196,83 L 201,83 L 202,84 L 217,84 L 218,83 L 221,83 L 221,82 L 219,82 L 218,81 L 218,79 L 217,78 L 217,76 L 216,75 L 216,71 L 215,70 L 215,68 L 217,66 L 217,58 L 218,57 L 218,56 L 219,55 L 219,53 L 215,49 L 215,48 L 216,47 L 216,46 Z" fill="none" stroke="black" stroke-width="1"/>
</svg>