<svg xmlns="http://www.w3.org/2000/svg" width="219" height="224">
  <path d="M 64,60 L 63,61 L 62,61 L 62,65 L 61,66 L 60,66 L 59,67 L 58,67 L 57,68 L 56,68 L 55,69 L 54,69 L 52,71 L 52,72 L 50,74 L 49,74 L 48,75 L 48,78 L 49,79 L 51,79 L 52,80 L 53,80 L 54,81 L 57,81 L 58,82 L 59,82 L 61,84 L 62,84 L 64,86 L 64,88 L 66,90 L 68,90 L 69,91 L 70,91 L 71,92 L 73,92 L 74,93 L 76,93 L 77,94 L 79,94 L 81,96 L 82,96 L 83,97 L 83,98 L 83,95 L 85,93 L 85,91 L 86,90 L 87,90 L 87,88 L 88,87 L 88,82 L 90,80 L 91,80 L 91,79 L 92,78 L 92,76 L 88,72 L 86,72 L 85,71 L 85,69 L 84,69 L 82,67 L 82,65 L 81,64 L 79,64 L 78,63 L 77,63 L 76,62 L 75,62 L 74,61 L 72,61 L 71,60 L 67,60 L 66,61 L 65,61 Z" fill="none" stroke="black" stroke-width="1"/>
</svg>