<svg xmlns="http://www.w3.org/2000/svg" width="219" height="224">
  <path d="M 47,80 L 44,83 L 43,83 L 42,84 L 39,84 L 39,85 L 38,86 L 38,88 L 39,88 L 41,90 L 42,90 L 43,91 L 44,91 L 45,92 L 46,92 L 47,93 L 47,94 L 48,95 L 48,96 L 50,98 L 50,103 L 53,106 L 51,108 L 51,113 L 52,114 L 52,115 L 55,118 L 56,118 L 57,119 L 58,119 L 59,120 L 60,120 L 61,121 L 64,121 L 65,120 L 67,120 L 69,118 L 71,118 L 72,117 L 74,117 L 78,113 L 78,111 L 79,110 L 79,108 L 81,106 L 81,105 L 82,104 L 81,103 L 81,97 L 79,95 L 77,95 L 76,94 L 74,94 L 73,93 L 71,93 L 70,92 L 69,92 L 68,91 L 66,91 L 63,88 L 63,86 L 62,85 L 61,85 L 59,83 L 58,83 L 57,82 L 54,82 L 53,81 L 52,81 L 51,80 Z" fill="none" stroke="black" stroke-width="1"/>
</svg>