<svg xmlns="http://www.w3.org/2000/svg" width="219" height="224">
  <path d="M 116,65 L 116,66 L 115,67 L 114,67 L 113,68 L 113,69 L 112,70 L 111,70 L 111,71 L 109,73 L 109,74 L 108,75 L 106,75 L 104,77 L 104,78 L 102,80 L 101,80 L 101,81 L 99,83 L 95,83 L 92,80 L 92,79 L 92,80 L 91,81 L 90,81 L 89,82 L 89,87 L 88,88 L 88,90 L 87,91 L 86,91 L 86,93 L 84,95 L 84,98 L 83,99 L 82,98 L 82,97 L 82,103 L 83,104 L 82,105 L 82,106 L 80,108 L 80,110 L 79,111 L 79,113 L 75,117 L 79,121 L 80,121 L 81,122 L 83,122 L 84,123 L 87,123 L 88,122 L 96,122 L 97,121 L 98,121 L 98,120 L 99,119 L 102,119 L 102,116 L 103,115 L 103,113 L 102,113 L 101,112 L 102,111 L 101,110 L 101,103 L 102,102 L 102,99 L 104,97 L 104,96 L 103,95 L 103,93 L 104,92 L 104,90 L 106,88 L 107,88 L 107,87 L 106,86 L 106,85 L 107,84 L 107,81 L 109,79 L 109,78 L 110,77 L 110,76 L 111,75 L 111,74 L 113,72 L 113,70 L 115,68 L 115,67 L 117,65 Z" fill="none" stroke="black" stroke-width="1"/>
</svg>