<svg xmlns="http://www.w3.org/2000/svg" width="219" height="224">
  <path d="M 72,118 L 71,119 L 69,119 L 67,121 L 65,121 L 64,122 L 62,122 L 63,123 L 63,126 L 64,127 L 64,128 L 65,129 L 65,133 L 64,134 L 63,134 L 63,136 L 62,137 L 61,137 L 61,139 L 60,140 L 56,140 L 55,141 L 53,141 L 51,143 L 51,146 L 53,148 L 53,150 L 52,151 L 52,152 L 53,152 L 54,153 L 56,153 L 58,155 L 59,155 L 61,157 L 63,157 L 64,158 L 66,158 L 67,159 L 70,159 L 71,158 L 72,158 L 76,154 L 76,153 L 77,152 L 77,151 L 78,150 L 78,149 L 79,148 L 80,148 L 81,147 L 82,147 L 82,146 L 80,144 L 80,141 L 79,140 L 79,137 L 78,136 L 79,135 L 79,127 L 76,124 L 76,123 L 77,122 L 77,120 L 75,118 Z" fill="none" stroke="black" stroke-width="1"/>
</svg>