<svg xmlns="http://www.w3.org/2000/svg" width="219" height="224">
  <path d="M 83,147 L 82,148 L 81,148 L 80,149 L 79,149 L 79,150 L 78,151 L 78,152 L 77,153 L 77,154 L 72,159 L 71,159 L 70,160 L 68,160 L 68,169 L 69,170 L 69,176 L 70,177 L 70,178 L 71,179 L 71,180 L 72,181 L 72,182 L 73,183 L 74,182 L 82,182 L 84,180 L 86,180 L 88,178 L 88,172 L 89,171 L 89,167 L 90,166 L 90,162 L 92,160 L 92,159 L 93,158 L 93,156 L 94,155 L 94,153 L 92,151 L 92,149 L 91,148 L 87,148 L 86,147 Z" fill="none" stroke="black" stroke-width="1"/>
</svg>