<svg xmlns="http://www.w3.org/2000/svg" width="219" height="224">
  <path d="M 51,153 L 51,155 L 50,156 L 48,156 L 47,157 L 47,158 L 46,159 L 46,168 L 47,169 L 47,171 L 48,172 L 48,174 L 49,174 L 52,177 L 52,178 L 54,180 L 55,180 L 56,181 L 56,184 L 58,186 L 58,187 L 61,187 L 62,188 L 64,188 L 65,189 L 65,191 L 66,190 L 67,190 L 70,187 L 71,187 L 71,186 L 72,185 L 72,183 L 71,182 L 71,181 L 70,180 L 70,179 L 69,178 L 69,177 L 68,176 L 68,170 L 67,169 L 67,160 L 66,159 L 64,159 L 63,158 L 61,158 L 59,156 L 58,156 L 56,154 L 54,154 L 53,153 Z" fill="none" stroke="black" stroke-width="1"/>
</svg>