<svg xmlns="http://www.w3.org/2000/svg" width="259" height="209">
  <path d="M 96,84 L 96,87 L 95,88 L 95,89 L 94,90 L 93,90 L 93,91 L 90,94 L 90,96 L 89,97 L 89,102 L 88,103 L 88,104 L 91,107 L 93,107 L 95,109 L 96,108 L 97,108 L 98,109 L 99,109 L 100,108 L 105,108 L 107,110 L 114,110 L 116,112 L 116,110 L 117,109 L 119,109 L 117,107 L 117,106 L 118,105 L 118,103 L 117,102 L 117,98 L 115,96 L 115,93 L 114,92 L 114,91 L 111,91 L 105,85 L 104,86 L 98,86 Z" fill="none" stroke="black" stroke-width="1"/>
</svg>