<svg xmlns="http://www.w3.org/2000/svg" width="259" height="209">
  <path d="M 100,109 L 99,110 L 100,111 L 100,115 L 99,116 L 99,117 L 98,118 L 98,119 L 97,120 L 97,121 L 96,122 L 96,124 L 98,126 L 98,129 L 102,129 L 103,130 L 105,130 L 106,131 L 106,132 L 107,133 L 107,134 L 109,136 L 114,136 L 115,135 L 115,133 L 116,132 L 117,132 L 117,131 L 116,130 L 116,128 L 117,127 L 117,124 L 118,123 L 117,122 L 117,117 L 116,116 L 116,114 L 117,113 L 116,113 L 114,111 L 107,111 L 105,109 Z" fill="none" stroke="black" stroke-width="1"/>
</svg>