<svg xmlns="http://www.w3.org/2000/svg" width="259" height="209">
  <path d="M 98,130 L 98,131 L 95,134 L 95,135 L 93,137 L 93,138 L 91,140 L 91,141 L 87,145 L 87,149 L 86,150 L 86,152 L 89,155 L 89,156 L 92,159 L 93,159 L 95,161 L 96,161 L 97,162 L 98,162 L 99,163 L 100,163 L 103,166 L 108,166 L 108,163 L 109,162 L 109,159 L 110,158 L 110,156 L 111,155 L 111,153 L 112,152 L 112,147 L 114,145 L 114,142 L 113,141 L 113,139 L 114,138 L 114,137 L 109,137 L 106,134 L 106,133 L 105,132 L 105,131 L 103,131 L 102,130 Z" fill="none" stroke="black" stroke-width="1"/>
</svg>