<svg xmlns="http://www.w3.org/2000/svg" width="259" height="209">
  <path d="M 92,172 L 90,174 L 86,174 L 85,175 L 76,175 L 75,174 L 74,174 L 73,173 L 67,173 L 66,174 L 65,174 L 65,178 L 64,179 L 65,180 L 65,182 L 66,182 L 69,185 L 70,185 L 71,186 L 71,187 L 72,188 L 72,189 L 74,191 L 75,191 L 76,192 L 82,192 L 83,191 L 84,191 L 83,190 L 83,189 L 85,187 L 85,186 L 86,185 L 89,185 L 92,188 L 95,188 L 96,189 L 97,189 L 98,188 L 99,188 L 100,187 L 100,184 L 98,182 L 98,176 L 96,174 L 94,174 Z" fill="none" stroke="black" stroke-width="1"/>
</svg>