<svg xmlns="http://www.w3.org/2000/svg" width="259" height="209">
  <path d="M 122,188 L 125,188 Z" fill="none" stroke="black" stroke-width="1"/>
  <path d="M 129,163 L 128,164 L 124,164 L 123,165 L 122,165 L 121,166 L 118,166 L 118,167 L 115,170 L 115,171 L 114,172 L 113,172 L 115,174 L 115,177 L 116,178 L 116,185 L 118,185 L 119,186 L 119,183 L 120,182 L 120,180 L 121,179 L 123,181 L 123,184 L 125,186 L 126,186 L 127,187 L 128,187 L 130,185 L 130,182 L 129,181 L 129,180 L 128,179 L 128,177 L 129,176 L 129,175 L 130,174 L 130,173 L 131,172 L 131,170 L 133,168 L 133,167 L 135,165 L 131,165 Z" fill="none" stroke="black" stroke-width="1"/>
</svg>