<svg xmlns="http://www.w3.org/2000/svg" width="259" height="209">
  <path d="M 135,166 L 134,167 L 134,168 L 132,170 L 132,172 L 131,173 L 131,174 L 130,175 L 130,176 L 129,177 L 129,179 L 130,180 L 130,181 L 131,182 L 131,183 L 132,184 L 132,186 L 133,186 L 133,185 L 135,183 L 137,183 L 138,184 L 137,185 L 138,185 L 139,184 L 140,185 L 143,185 L 145,183 L 147,183 L 147,182 L 149,180 L 149,179 L 150,178 L 150,174 L 152,172 L 151,171 L 149,171 L 146,168 L 142,168 L 141,167 L 141,166 Z" fill="none" stroke="black" stroke-width="1"/>
</svg>