<svg xmlns="http://www.w3.org/2000/svg" width="259" height="209">
  <path d="M 138,146 L 137,147 L 134,147 L 131,150 L 128,150 L 127,151 L 126,151 L 123,154 L 118,154 L 116,156 L 115,156 L 114,157 L 113,157 L 111,159 L 110,159 L 110,162 L 109,163 L 109,165 L 110,165 L 112,167 L 112,170 L 113,171 L 114,171 L 114,170 L 117,167 L 117,166 L 118,165 L 121,165 L 122,164 L 123,164 L 124,163 L 128,163 L 129,162 L 131,164 L 135,164 L 136,165 L 141,165 L 142,166 L 142,167 L 146,167 L 149,170 L 151,170 L 152,171 L 153,171 L 153,170 L 154,169 L 155,169 L 153,167 L 153,164 L 150,161 L 150,160 L 149,160 L 148,159 L 148,153 L 149,152 L 149,151 L 150,150 L 150,149 L 149,148 L 148,148 L 146,146 L 145,147 L 141,147 L 140,146 Z" fill="none" stroke="black" stroke-width="1"/>
</svg>