<svg xmlns="http://www.w3.org/2000/svg" width="259" height="209">
  <path d="M 162,129 L 161,130 L 160,130 L 158,132 L 156,132 L 154,134 L 154,135 L 152,137 L 152,139 L 151,140 L 149,140 L 149,141 L 147,143 L 147,146 L 148,147 L 149,147 L 151,149 L 151,150 L 150,151 L 150,152 L 149,153 L 149,159 L 150,159 L 151,160 L 151,161 L 154,164 L 154,167 L 156,169 L 155,170 L 154,170 L 154,171 L 155,172 L 164,172 L 166,170 L 166,166 L 167,165 L 166,164 L 166,163 L 165,162 L 165,157 L 171,151 L 170,150 L 170,149 L 168,149 L 167,148 L 167,146 L 166,145 L 166,137 L 165,136 L 165,130 L 164,129 Z" fill="none" stroke="black" stroke-width="1"/>
</svg>