<svg xmlns="http://www.w3.org/2000/svg" width="169" height="255">
  <path d="M 73,202 L 72,203 L 72,204 L 74,206 L 73,207 L 73,209 L 74,210 L 74,211 L 75,212 L 75,213 L 76,214 L 76,215 L 77,215 L 78,216 L 78,215 L 79,214 L 83,218 L 82,219 L 82,222 L 83,222 L 87,226 L 88,226 L 89,227 L 93,227 L 94,228 L 96,228 L 96,223 L 95,222 L 95,220 L 94,220 L 93,219 L 94,218 L 93,218 L 92,217 L 93,216 L 93,215 L 92,216 L 91,215 L 91,213 L 92,212 L 91,211 L 91,209 L 90,209 L 89,208 L 89,207 L 88,206 L 89,205 L 88,205 L 87,204 L 88,203 L 88,202 L 87,202 L 86,203 L 81,203 L 80,204 L 79,203 L 75,203 L 74,202 Z" fill="none" stroke="black" stroke-width="1"/>
</svg>