<svg xmlns="http://www.w3.org/2000/svg" width="169" height="255">
  <path d="M 67,157 L 66,158 L 66,162 L 65,163 L 63,163 L 62,162 L 62,161 L 60,161 L 60,163 L 59,164 L 59,166 L 60,167 L 60,168 L 63,171 L 63,173 L 65,175 L 65,177 L 66,178 L 66,180 L 67,181 L 67,182 L 71,182 L 72,181 L 73,181 L 74,180 L 77,180 L 78,179 L 79,179 L 79,178 L 78,177 L 78,175 L 77,174 L 77,171 L 76,170 L 76,167 L 75,166 L 75,162 L 74,161 L 74,159 L 73,158 L 73,157 L 71,159 L 70,159 L 69,158 L 68,158 Z" fill="none" stroke="black" stroke-width="1"/>
</svg>