<svg xmlns="http://www.w3.org/2000/svg" width="169" height="255">
  <path d="M 19,105 L 19,106 L 17,108 L 17,114 L 18,115 L 18,123 L 19,124 L 19,126 L 21,126 L 22,127 L 22,128 L 23,129 L 17,135 L 17,140 L 18,141 L 18,142 L 19,143 L 18,144 L 18,146 L 19,145 L 20,145 L 21,144 L 24,144 L 26,142 L 27,142 L 28,141 L 32,141 L 32,137 L 33,136 L 31,134 L 31,127 L 32,126 L 32,125 L 33,124 L 33,121 L 34,120 L 34,117 L 35,116 L 35,114 L 34,113 L 34,110 L 33,109 L 33,105 L 32,106 L 30,106 L 29,105 L 26,105 L 25,106 L 23,106 L 22,107 L 20,105 Z" fill="none" stroke="black" stroke-width="1"/>
</svg>