<svg xmlns="http://www.w3.org/2000/svg" width="169" height="255">
  <path d="M 29,82 L 28,83 L 21,83 L 19,85 L 17,85 L 16,86 L 13,86 L 13,88 L 12,89 L 12,90 L 13,90 L 14,91 L 12,93 L 12,95 L 13,95 L 14,96 L 13,97 L 13,98 L 15,100 L 15,106 L 16,107 L 17,107 L 18,106 L 18,105 L 20,103 L 20,100 L 21,99 L 21,98 L 22,97 L 22,96 L 26,92 L 27,92 L 28,91 L 30,91 L 31,90 L 32,90 L 33,89 L 35,89 L 36,88 L 36,85 L 35,85 L 34,84 L 33,84 L 32,83 L 32,82 Z" fill="none" stroke="black" stroke-width="1"/>
</svg>