<svg xmlns="http://www.w3.org/2000/svg" width="169" height="255">
  <path d="M 95,101 L 95,102 L 93,104 L 92,104 L 91,105 L 90,105 L 89,106 L 88,106 L 83,111 L 83,113 L 84,114 L 85,114 L 86,115 L 87,115 L 88,116 L 89,116 L 90,117 L 91,116 L 96,116 L 98,118 L 98,120 L 99,119 L 100,120 L 100,121 L 101,120 L 102,120 L 103,119 L 103,118 L 105,116 L 106,117 L 108,115 L 109,115 L 109,113 L 108,112 L 108,111 L 107,110 L 107,107 L 105,105 L 104,105 L 103,104 L 100,104 L 99,103 L 98,103 L 96,101 Z" fill="none" stroke="black" stroke-width="1"/>
</svg>