<svg xmlns="http://www.w3.org/2000/svg" width="169" height="255">
  <path d="M 69,77 L 68,78 L 68,82 L 69,83 L 69,84 L 70,85 L 70,90 L 71,91 L 71,94 L 72,94 L 77,99 L 77,100 L 78,101 L 78,103 L 79,103 L 80,104 L 82,104 L 84,106 L 87,106 L 88,105 L 89,105 L 90,104 L 91,104 L 92,103 L 93,103 L 94,102 L 94,101 L 95,100 L 94,99 L 94,98 L 96,96 L 96,95 L 97,94 L 97,90 L 98,89 L 98,86 L 97,85 L 89,85 L 87,83 L 87,82 L 85,80 L 84,81 L 81,81 L 80,80 L 80,79 L 78,79 L 77,78 L 75,78 L 74,77 Z" fill="none" stroke="black" stroke-width="1"/>
</svg>