<svg xmlns="http://www.w3.org/2000/svg" width="259" height="209">
  <path d="M 178,73 L 177,74 L 174,74 L 173,75 L 168,75 L 167,76 L 161,76 L 160,77 L 159,77 L 158,78 L 154,78 L 153,79 L 148,79 L 147,78 L 145,78 L 143,80 L 139,80 L 139,81 L 141,83 L 141,89 L 142,89 L 143,90 L 146,90 L 147,91 L 148,91 L 149,92 L 149,93 L 152,96 L 154,96 L 157,93 L 158,93 L 168,83 L 168,82 L 169,81 L 169,80 L 173,76 L 174,76 L 175,75 L 176,75 L 178,73 L 180,73 Z" fill="none" stroke="black" stroke-width="1"/>
</svg>