<svg xmlns="http://www.w3.org/2000/svg" width="169" height="255">
  <path d="M 79,51 L 78,52 L 76,52 L 75,53 L 66,53 L 63,56 L 63,58 L 64,59 L 64,63 L 65,63 L 66,64 L 66,66 L 67,67 L 67,73 L 66,74 L 66,76 L 65,77 L 68,77 L 69,76 L 74,76 L 75,77 L 77,77 L 78,78 L 80,78 L 81,77 L 81,76 L 82,75 L 83,75 L 82,74 L 82,69 L 83,68 L 83,65 L 84,64 L 84,63 L 86,61 L 86,60 L 87,59 L 87,58 L 91,54 L 91,53 L 86,53 L 85,52 L 85,51 L 84,51 L 83,52 L 81,52 L 80,51 Z" fill="none" stroke="black" stroke-width="1"/>
</svg>