<svg xmlns="http://www.w3.org/2000/svg" width="169" height="255">
  <path d="M 137,67 L 137,69 L 138,70 L 138,71 L 135,74 L 131,74 L 128,77 L 128,79 L 129,79 L 132,82 L 132,83 L 134,85 L 136,85 L 137,86 L 138,86 L 139,87 L 139,89 L 140,88 L 141,88 L 142,87 L 144,87 L 145,86 L 146,86 L 147,85 L 149,85 L 150,86 L 152,86 L 152,85 L 154,83 L 153,83 L 152,82 L 153,81 L 152,81 L 151,82 L 150,82 L 149,83 L 146,83 L 143,80 L 144,79 L 145,79 L 147,81 L 148,80 L 149,80 L 150,79 L 151,79 L 150,79 L 149,78 L 150,77 L 152,77 L 152,76 L 149,76 L 148,75 L 146,75 L 144,73 L 145,72 L 146,72 L 147,73 L 150,73 L 150,70 L 149,69 L 143,69 L 142,68 L 139,68 L 138,67 Z" fill="none" stroke="black" stroke-width="1"/>
</svg>