<svg xmlns="http://www.w3.org/2000/svg" width="259" height="209">
  <path d="M 129,79 L 128,80 L 122,80 L 122,81 L 121,82 L 119,82 L 118,83 L 111,83 L 110,82 L 108,82 L 106,84 L 106,85 L 111,90 L 114,90 L 115,91 L 115,92 L 116,93 L 116,96 L 118,98 L 118,102 L 119,101 L 121,101 L 122,100 L 123,100 L 126,97 L 127,97 L 128,96 L 130,96 L 131,95 L 132,95 L 133,94 L 133,93 L 134,92 L 135,92 L 139,88 L 140,88 L 140,83 L 138,81 L 138,80 L 137,80 L 136,79 Z" fill="none" stroke="black" stroke-width="1"/>
</svg>