<svg xmlns="http://www.w3.org/2000/svg" width="259" height="209">
  <path d="M 159,43 L 158,44 L 155,44 L 155,48 L 154,49 L 153,49 L 152,50 L 149,50 L 148,49 L 148,46 L 147,46 L 147,47 L 143,51 L 142,51 L 141,50 L 137,50 L 135,52 L 134,52 L 133,51 L 128,51 L 127,52 L 126,51 L 125,52 L 123,52 L 122,53 L 124,53 L 127,56 L 127,59 L 128,60 L 128,61 L 130,61 L 132,63 L 133,63 L 134,64 L 135,64 L 136,65 L 137,65 L 138,66 L 141,66 L 142,65 L 143,65 L 144,64 L 149,64 L 150,65 L 153,65 L 154,64 L 157,64 L 159,62 L 159,60 L 160,59 L 163,59 L 164,58 L 165,58 L 167,56 L 167,55 L 169,53 L 171,53 L 171,51 L 168,48 L 167,48 L 165,46 L 164,46 L 163,45 L 160,45 L 159,44 Z" fill="none" stroke="black" stroke-width="1"/>
</svg>