<svg xmlns="http://www.w3.org/2000/svg" width="259" height="209">
  <path d="M 172,53 L 171,54 L 169,54 L 168,55 L 168,56 L 165,59 L 164,59 L 163,60 L 160,60 L 160,62 L 157,65 L 154,65 L 153,66 L 152,66 L 152,68 L 145,75 L 145,77 L 147,77 L 148,78 L 153,78 L 154,77 L 158,77 L 159,76 L 160,76 L 161,75 L 167,75 L 168,74 L 173,74 L 174,73 L 177,73 L 178,72 L 182,72 L 183,71 L 184,71 L 185,72 L 186,72 L 187,71 L 192,71 L 192,70 L 193,69 L 194,69 L 194,67 L 190,63 L 189,63 L 188,62 L 187,62 L 185,60 L 185,59 L 183,57 L 183,56 L 181,56 L 180,55 L 179,55 L 178,54 L 177,54 L 176,53 L 175,54 L 174,53 Z" fill="none" stroke="black" stroke-width="1"/>
</svg>