<svg xmlns="http://www.w3.org/2000/svg" width="219" height="224">
  <path d="M 109,135 L 109,136 L 108,137 L 108,142 L 109,143 L 109,144 L 110,145 L 110,150 L 108,152 L 109,152 L 110,153 L 110,159 L 109,160 L 109,166 L 108,167 L 108,168 L 107,169 L 107,170 L 108,171 L 106,173 L 106,176 L 108,176 L 109,175 L 111,175 L 112,174 L 113,174 L 114,173 L 115,173 L 118,170 L 118,169 L 120,167 L 120,166 L 124,162 L 124,161 L 127,158 L 127,156 L 128,155 L 128,154 L 129,153 L 129,150 L 124,145 L 123,145 L 120,142 L 119,142 L 118,141 L 118,139 L 117,138 L 117,137 L 115,135 Z" fill="none" stroke="black" stroke-width="1"/>
</svg>