<svg xmlns="http://www.w3.org/2000/svg" width="219" height="224">
  <path d="M 150,141 L 149,142 L 147,142 L 146,143 L 145,143 L 144,144 L 143,144 L 139,148 L 139,149 L 137,151 L 130,151 L 130,153 L 129,154 L 129,155 L 128,156 L 128,158 L 125,161 L 125,162 L 121,166 L 121,167 L 120,168 L 120,169 L 121,169 L 122,170 L 122,173 L 123,174 L 123,176 L 124,177 L 124,178 L 127,181 L 127,182 L 128,183 L 128,184 L 130,184 L 131,183 L 131,182 L 134,179 L 134,175 L 137,172 L 138,172 L 140,170 L 141,170 L 143,168 L 144,168 L 145,167 L 147,167 L 149,165 L 149,164 L 150,163 L 150,160 L 152,158 L 152,155 L 150,153 L 150,149 L 151,148 L 151,141 Z" fill="none" stroke="black" stroke-width="1"/>
</svg>