<svg xmlns="http://www.w3.org/2000/svg" width="219" height="224">
  <path d="M 172,110 L 171,111 L 169,111 L 168,112 L 167,112 L 166,113 L 160,113 L 160,114 L 159,115 L 156,115 L 154,117 L 154,118 L 150,122 L 151,123 L 151,125 L 150,126 L 151,127 L 152,127 L 153,128 L 154,128 L 155,129 L 155,130 L 156,129 L 159,129 L 160,130 L 162,130 L 163,131 L 164,131 L 165,132 L 170,132 L 170,131 L 172,129 L 173,129 L 173,128 L 174,127 L 176,127 L 176,123 L 177,122 L 178,122 L 178,119 L 179,118 L 180,118 L 179,117 L 180,116 L 182,116 L 183,117 L 182,118 L 183,119 L 183,118 L 184,117 L 185,117 L 186,118 L 186,110 Z" fill="none" stroke="black" stroke-width="1"/>
</svg>