<svg xmlns="http://www.w3.org/2000/svg" width="219" height="224">
  <path d="M 130,70 L 130,71 L 129,72 L 128,72 L 129,72 L 131,70 Z" fill="none" stroke="black" stroke-width="1"/>
  <path d="M 153,57 L 153,58 L 152,59 L 147,59 L 144,62 L 145,63 L 145,64 L 146,64 L 147,65 L 146,66 L 142,66 L 140,68 L 140,74 L 139,75 L 138,74 L 138,73 L 138,75 L 137,76 L 136,76 L 135,75 L 136,74 L 136,72 L 137,71 L 136,70 L 137,69 L 136,69 L 136,70 L 134,72 L 134,73 L 133,74 L 132,73 L 131,74 L 130,74 L 129,75 L 130,76 L 128,78 L 127,78 L 127,84 L 126,85 L 126,86 L 125,87 L 125,88 L 123,90 L 123,92 L 124,93 L 124,96 L 122,98 L 123,99 L 123,101 L 124,102 L 124,103 L 125,104 L 125,105 L 126,106 L 126,108 L 127,107 L 133,107 L 134,106 L 135,106 L 135,105 L 136,104 L 137,104 L 138,103 L 142,103 L 144,101 L 144,96 L 145,95 L 145,91 L 150,86 L 150,85 L 151,84 L 151,83 L 152,82 L 153,82 L 154,81 L 154,80 L 157,77 L 157,73 L 156,72 L 156,69 L 157,68 L 157,67 L 158,66 L 159,66 L 161,64 L 161,63 L 160,63 L 158,61 L 157,61 L 156,60 L 154,60 L 153,59 L 154,58 L 155,58 L 154,58 Z" fill="none" stroke="black" stroke-width="1"/>
  <path d="M 138,57 L 138,58 L 137,59 L 137,60 L 136,61 L 138,61 Z" fill="none" stroke="black" stroke-width="1"/>
</svg>