<svg xmlns="http://www.w3.org/2000/svg" width="219" height="224">
  <path d="M 182,132 L 182,133 Z" fill="none" stroke="black" stroke-width="1"/>
  <path d="M 156,130 L 155,131 L 155,132 L 154,133 L 154,135 L 153,136 L 153,139 L 152,140 L 152,148 L 151,149 L 151,153 L 152,152 L 156,152 L 157,151 L 164,151 L 166,153 L 171,153 L 172,154 L 177,154 L 179,152 L 181,152 L 180,151 L 180,148 L 176,144 L 176,143 L 177,142 L 177,138 L 178,137 L 180,137 L 179,136 L 178,137 L 177,137 L 176,136 L 174,136 L 173,135 L 172,135 L 171,134 L 170,134 L 169,133 L 165,133 L 164,132 L 163,132 L 162,131 L 160,131 L 159,130 Z" fill="none" stroke="black" stroke-width="1"/>
</svg>