<svg xmlns="http://www.w3.org/2000/svg" width="219" height="224">
  <path d="M 218,128 L 217,129 L 215,129 L 214,130 L 212,130 L 211,131 L 209,131 L 208,132 L 207,132 L 206,133 L 204,133 L 203,134 L 202,134 L 200,136 L 199,136 L 197,138 L 190,138 L 189,139 L 186,139 L 185,140 L 184,140 L 183,139 L 178,139 L 178,142 L 177,143 L 177,144 L 181,148 L 181,151 L 182,152 L 184,152 L 185,153 L 185,154 L 187,154 L 190,157 L 191,156 L 194,156 L 200,150 L 201,150 L 202,149 L 206,149 L 207,150 L 207,151 L 208,151 L 209,152 L 209,153 L 214,158 L 215,158 L 217,156 L 217,152 L 216,151 L 216,146 L 217,145 L 217,137 L 218,136 Z" fill="none" stroke="black" stroke-width="1"/>
</svg>