<svg xmlns="http://www.w3.org/2000/svg" width="219" height="224">
  <path d="M 202,150 L 201,151 L 200,151 L 194,157 L 191,157 L 191,158 L 189,160 L 188,160 L 188,161 L 187,162 L 186,162 L 183,165 L 183,170 L 181,172 L 180,172 L 180,175 L 183,175 L 184,176 L 185,176 L 192,183 L 192,184 L 193,184 L 194,185 L 194,187 L 195,188 L 196,188 L 197,187 L 197,183 L 198,182 L 198,181 L 199,180 L 201,180 L 202,179 L 206,179 L 206,178 L 207,177 L 207,176 L 208,175 L 210,175 L 210,171 L 209,170 L 210,169 L 210,168 L 209,168 L 208,167 L 208,165 L 211,162 L 215,162 L 215,159 L 214,159 L 208,153 L 208,152 L 207,152 L 206,151 L 206,150 Z" fill="none" stroke="black" stroke-width="1"/>
</svg>