<svg xmlns="http://www.w3.org/2000/svg" width="169" height="255">
  <path d="M 142,39 L 141,40 L 141,41 L 140,42 L 140,44 L 139,45 L 140,46 L 140,47 L 139,48 L 137,48 L 137,50 L 136,51 L 136,52 L 138,54 L 140,54 L 141,55 L 142,55 L 143,56 L 144,56 L 144,55 L 145,54 L 149,54 L 150,55 L 157,55 L 158,54 L 159,54 L 159,53 L 160,52 L 160,47 L 155,47 L 154,48 L 153,48 L 148,43 L 147,43 L 145,41 L 145,40 L 146,39 L 147,39 L 149,41 L 150,41 L 154,45 L 155,45 L 155,43 L 154,42 L 153,42 L 152,41 L 151,41 L 149,39 Z" fill="none" stroke="black" stroke-width="1"/>
  <path d="M 166,28 L 166,30 L 163,33 L 162,33 L 162,34 L 161,35 L 161,37 L 160,38 L 160,41 L 161,41 L 162,40 L 162,38 L 163,37 L 163,36 L 164,35 L 165,36 L 166,35 L 166,32 L 167,31 L 167,30 L 168,29 L 168,28 Z" fill="none" stroke="black" stroke-width="1"/>
</svg>