<svg xmlns="http://www.w3.org/2000/svg" width="217" height="184">
  <path d="M 12,101 L 11,102 L 10,102 L 9,103 L 8,103 L 7,104 L 6,104 L 5,105 L 4,105 L 4,113 L 3,114 L 3,122 L 2,123 L 2,128 L 3,129 L 3,131 L 4,131 L 7,134 L 10,134 L 11,133 L 11,132 L 14,129 L 15,129 L 16,128 L 18,128 L 18,126 L 17,125 L 17,124 L 16,123 L 16,122 L 15,121 L 15,120 L 16,119 L 16,118 L 17,117 L 17,116 L 22,111 L 22,110 L 24,108 L 24,106 L 19,106 L 18,105 L 16,105 L 15,104 L 13,104 L 12,103 Z" fill="none" stroke="black" stroke-width="1"/>
</svg>