<svg xmlns="http://www.w3.org/2000/svg" width="217" height="184">
  <path d="M 80,68 L 79,69 L 76,69 L 74,71 L 73,71 L 72,72 L 69,72 L 68,71 L 67,72 L 66,72 L 69,72 L 70,73 L 70,74 L 71,75 L 71,76 L 74,79 L 74,82 L 75,83 L 75,89 L 78,92 L 78,93 L 80,95 L 80,96 L 81,97 L 82,97 L 83,98 L 83,99 L 83,96 L 84,95 L 84,94 L 85,93 L 85,90 L 86,89 L 86,88 L 87,87 L 87,86 L 88,85 L 88,83 L 89,82 L 89,79 L 88,78 L 88,76 L 87,75 L 87,74 L 84,71 L 84,70 L 83,69 L 83,68 Z" fill="none" stroke="black" stroke-width="1"/>
</svg>