<svg xmlns="http://www.w3.org/2000/svg" width="217" height="184">
  <path d="M 90,139 L 92,141 L 91,142 L 90,142 L 87,145 L 86,145 L 85,146 L 85,148 L 83,150 L 82,150 L 81,151 L 81,154 L 82,155 L 82,156 L 85,159 L 88,159 L 89,160 L 89,163 L 88,164 L 90,164 L 90,163 L 92,161 L 92,160 L 93,159 L 92,158 L 93,157 L 95,157 L 96,156 L 96,154 L 98,152 L 99,152 L 100,151 L 100,148 L 99,148 L 98,147 L 98,144 L 97,144 L 96,143 L 95,143 L 92,140 L 92,139 Z" fill="none" stroke="black" stroke-width="1"/>
</svg>