<svg xmlns="http://www.w3.org/2000/svg" width="217" height="184">
  <path d="M 94,64 L 93,65 L 90,65 L 89,66 L 88,66 L 87,67 L 84,67 L 84,69 L 85,70 L 85,71 L 88,74 L 88,75 L 89,76 L 89,78 L 90,79 L 90,82 L 89,83 L 89,85 L 88,86 L 88,87 L 87,88 L 87,89 L 86,90 L 86,93 L 85,94 L 85,95 L 84,96 L 84,104 L 85,104 L 86,103 L 86,102 L 87,101 L 90,101 L 91,100 L 91,99 L 94,96 L 96,96 L 97,95 L 97,94 L 101,90 L 101,88 L 104,85 L 104,83 L 105,82 L 105,81 L 107,79 L 104,76 L 104,74 L 105,73 L 105,72 L 100,67 L 99,67 L 97,65 L 96,65 L 95,64 Z" fill="none" stroke="black" stroke-width="1"/>
</svg>