<svg xmlns="http://www.w3.org/2000/svg" width="217" height="184">
  <path d="M 109,106 L 109,107 L 108,108 L 105,108 L 102,111 L 101,111 L 100,112 L 99,112 L 98,113 L 98,116 L 97,117 L 97,122 L 98,123 L 99,123 L 100,124 L 101,124 L 103,126 L 104,126 L 105,127 L 105,130 L 103,132 L 103,133 L 104,133 L 105,132 L 106,132 L 107,133 L 108,133 L 109,132 L 112,132 L 113,131 L 120,131 L 121,130 L 126,130 L 127,129 L 128,129 L 129,128 L 130,128 L 131,127 L 132,127 L 132,126 L 130,126 L 129,127 L 128,127 L 127,128 L 125,128 L 124,127 L 127,124 L 131,124 L 131,122 L 130,122 L 129,123 L 127,123 L 126,124 L 125,124 L 124,125 L 123,125 L 123,126 L 122,127 L 117,127 L 116,128 L 109,128 L 108,129 L 107,128 L 107,127 L 108,126 L 108,122 L 110,120 L 110,119 L 108,117 L 108,113 L 109,112 L 109,111 L 110,110 L 110,109 L 111,108 L 111,107 L 110,106 Z" fill="none" stroke="black" stroke-width="1"/>
</svg>