<svg xmlns="http://www.w3.org/2000/svg" width="217" height="184">
  <path d="M 135,103 L 134,104 L 133,104 L 133,106 L 134,107 L 134,110 L 135,111 L 135,113 L 136,114 L 136,119 L 139,119 L 140,118 L 142,118 L 142,117 L 143,116 L 143,112 L 144,111 L 145,112 L 147,110 L 148,110 L 149,111 L 148,112 L 148,113 L 145,116 L 147,116 L 147,115 L 148,114 L 149,115 L 149,116 L 150,115 L 151,115 L 151,114 L 150,113 L 150,110 L 149,110 L 148,109 L 148,107 L 147,106 L 144,106 L 143,105 L 142,105 L 141,104 L 137,104 L 136,103 Z" fill="none" stroke="black" stroke-width="1"/>
</svg>