<svg xmlns="http://www.w3.org/2000/svg" width="217" height="184">
  <path d="M 179,22 L 178,23 L 177,23 L 176,24 L 175,24 L 174,25 L 173,25 L 172,26 L 171,26 L 171,29 L 173,31 L 177,31 L 179,33 L 179,36 L 178,37 L 178,39 L 177,40 L 176,40 L 173,43 L 176,46 L 176,48 L 178,50 L 178,51 L 176,53 L 177,54 L 177,57 L 179,59 L 182,59 L 184,57 L 185,57 L 185,56 L 186,55 L 186,53 L 187,52 L 187,51 L 188,50 L 188,47 L 189,46 L 189,44 L 192,41 L 192,34 L 188,30 L 188,26 L 186,24 L 186,23 L 185,22 Z" fill="none" stroke="black" stroke-width="1"/>
</svg>