<svg xmlns="http://www.w3.org/2000/svg" width="1133" height="465">
  <path d="M 825,270 L 825,271 L 827,273 L 829,271 L 827,271 L 826,270 Z" fill="none" stroke="black" stroke-width="1"/>
  <path d="M 806,264 L 809,264 Z" fill="none" stroke="black" stroke-width="1"/>
  <path d="M 783,257 L 782,258 L 780,258 L 779,259 L 777,259 L 777,260 L 778,261 L 778,262 L 781,265 L 783,265 L 784,266 L 784,268 L 786,268 L 787,269 L 787,271 L 785,273 L 788,273 L 789,272 L 790,272 L 792,274 L 794,274 L 795,273 L 796,273 L 797,274 L 796,275 L 796,277 L 797,278 L 799,278 L 800,277 L 803,277 L 805,279 L 805,280 L 804,281 L 802,279 L 801,279 L 800,280 L 800,281 L 802,283 L 804,283 L 804,282 L 805,281 L 806,281 L 807,282 L 807,283 L 806,284 L 806,288 L 807,287 L 811,287 L 812,288 L 811,289 L 811,290 L 813,290 L 812,289 L 813,288 L 814,288 L 815,287 L 816,288 L 816,290 L 817,289 L 818,290 L 818,291 L 817,292 L 816,292 L 818,292 L 819,291 L 820,291 L 821,292 L 821,293 L 820,294 L 819,294 L 819,295 L 821,297 L 826,297 L 827,296 L 830,296 L 831,295 L 831,294 L 832,293 L 832,292 L 833,291 L 834,292 L 834,295 L 831,298 L 830,298 L 828,300 L 828,301 L 829,302 L 832,302 L 834,304 L 835,304 L 836,305 L 838,305 L 839,306 L 841,306 L 842,307 L 844,307 L 845,308 L 846,308 L 847,309 L 851,309 L 852,310 L 853,309 L 853,308 L 854,307 L 855,307 L 856,308 L 856,306 L 855,305 L 855,304 L 854,304 L 853,305 L 852,304 L 852,302 L 853,301 L 856,301 L 856,300 L 855,300 L 854,299 L 854,298 L 855,297 L 855,296 L 854,296 L 854,297 L 853,298 L 853,301 L 852,302 L 851,301 L 851,300 L 850,299 L 850,298 L 849,297 L 849,295 L 845,291 L 843,291 L 842,290 L 840,290 L 839,289 L 837,289 L 836,288 L 835,288 L 834,287 L 833,287 L 832,286 L 832,285 L 831,284 L 831,281 L 830,280 L 829,280 L 827,278 L 827,277 L 826,276 L 826,275 L 823,272 L 823,270 L 822,269 L 821,269 L 820,268 L 815,268 L 814,267 L 812,267 L 811,266 L 805,266 L 804,265 L 803,265 L 802,264 L 799,264 L 798,263 L 799,262 L 801,262 L 799,262 L 798,263 L 797,263 L 796,262 L 793,262 L 790,259 L 788,259 L 787,258 L 785,258 L 784,257 Z" fill="none" stroke="black" stroke-width="1"/>
</svg>