<svg xmlns="http://www.w3.org/2000/svg" width="1133" height="465">
  <path d="M 862,302 L 860,304 L 859,304 L 859,306 L 860,306 L 861,307 L 864,307 L 863,306 L 862,306 L 861,305 L 862,304 L 863,304 L 864,303 L 865,303 L 865,302 Z" fill="none" stroke="black" stroke-width="1"/>
  <path d="M 876,269 L 876,270 L 869,277 L 868,277 L 867,278 L 866,278 L 865,279 L 861,279 L 859,281 L 859,283 L 858,284 L 858,288 L 859,289 L 861,289 L 863,287 L 864,288 L 864,289 L 862,291 L 858,291 L 858,293 L 860,295 L 860,296 L 860,295 L 861,294 L 862,294 L 863,295 L 864,295 L 865,296 L 865,298 L 866,299 L 866,300 L 867,301 L 868,300 L 880,300 L 881,299 L 882,300 L 883,300 L 884,299 L 885,299 L 885,298 L 886,297 L 886,293 L 887,292 L 887,291 L 889,289 L 889,288 L 891,286 L 891,285 L 894,282 L 894,276 L 895,275 L 895,274 L 896,273 L 896,269 L 895,269 L 894,270 L 893,270 L 891,272 L 890,272 L 889,273 L 886,273 L 885,272 L 884,272 L 883,271 L 881,271 L 879,269 Z" fill="none" stroke="black" stroke-width="1"/>
</svg>