<svg xmlns="http://www.w3.org/2000/svg" width="1133" height="465">
  <path d="M 822,267 L 823,267 L 824,268 L 827,268 L 826,267 Z" fill="none" stroke="black" stroke-width="1"/>
  <path d="M 821,234 L 819,236 L 818,236 L 817,237 L 812,237 L 811,236 L 809,236 L 808,235 L 797,235 L 796,236 L 794,236 L 794,238 L 792,240 L 793,241 L 792,242 L 791,242 L 791,244 L 788,247 L 787,247 L 793,247 L 794,246 L 796,246 L 797,247 L 795,249 L 788,249 L 787,250 L 787,251 L 788,252 L 790,252 L 791,251 L 792,251 L 793,252 L 798,252 L 799,253 L 798,254 L 791,254 L 793,256 L 795,256 L 796,257 L 797,257 L 798,258 L 798,257 L 797,257 L 796,256 L 797,255 L 799,255 L 800,256 L 803,256 L 804,257 L 803,258 L 801,258 L 801,259 L 803,259 L 804,258 L 804,256 L 805,255 L 811,255 L 812,256 L 811,257 L 807,257 L 807,258 L 808,259 L 807,260 L 806,260 L 806,261 L 810,261 L 810,259 L 808,259 L 807,258 L 808,257 L 811,257 L 813,259 L 812,260 L 817,260 L 820,257 L 820,256 L 819,255 L 819,253 L 820,252 L 822,254 L 822,258 L 818,262 L 814,262 L 813,263 L 811,263 L 811,264 L 812,265 L 815,265 L 816,264 L 818,266 L 819,266 L 820,265 L 820,262 L 821,261 L 822,262 L 822,265 L 827,265 L 829,263 L 830,263 L 830,258 L 831,257 L 831,256 L 833,254 L 833,253 L 836,250 L 837,250 L 838,249 L 839,249 L 841,247 L 842,247 L 846,243 L 846,242 L 843,239 L 842,239 L 839,236 L 839,235 L 838,236 L 835,236 L 834,235 L 827,235 L 826,234 Z" fill="none" stroke="black" stroke-width="1"/>
</svg>