<svg xmlns="http://www.w3.org/2000/svg" width="1133" height="465">
  <path d="M 782,240 L 781,241 L 781,242 L 782,243 L 782,244 L 783,245 L 785,245 L 784,244 L 784,242 L 783,241 L 783,240 Z" fill="none" stroke="black" stroke-width="1"/>
  <path d="M 764,216 L 764,218 L 765,219 L 765,220 L 768,223 L 768,220 L 767,220 L 765,218 L 765,217 Z" fill="none" stroke="black" stroke-width="1"/>
  <path d="M 759,209 L 760,209 L 761,210 L 761,211 L 762,212 L 763,212 L 761,210 L 761,209 Z" fill="none" stroke="black" stroke-width="1"/>
  <path d="M 764,205 L 763,206 L 763,209 L 765,209 L 765,207 L 764,206 Z" fill="none" stroke="black" stroke-width="1"/>
  <path d="M 779,176 L 775,180 L 775,181 L 773,183 L 773,186 L 774,187 L 774,191 L 773,192 L 774,193 L 773,194 L 772,194 L 772,196 L 771,197 L 775,201 L 781,201 L 785,205 L 785,206 L 784,207 L 780,203 L 776,203 L 775,204 L 773,202 L 772,202 L 771,201 L 771,200 L 769,200 L 769,201 L 768,202 L 766,200 L 769,197 L 767,197 L 765,199 L 765,203 L 766,202 L 767,203 L 767,204 L 768,204 L 768,203 L 769,202 L 770,203 L 770,205 L 772,207 L 773,207 L 775,209 L 775,210 L 776,211 L 776,215 L 779,215 L 780,214 L 781,214 L 782,215 L 782,217 L 780,219 L 779,218 L 778,219 L 777,218 L 777,223 L 776,224 L 775,223 L 775,221 L 773,221 L 772,220 L 774,218 L 775,219 L 775,217 L 774,216 L 774,213 L 773,212 L 773,210 L 772,210 L 768,206 L 767,206 L 767,210 L 766,211 L 765,211 L 765,213 L 766,213 L 767,214 L 766,215 L 767,216 L 767,217 L 768,218 L 769,218 L 770,219 L 771,218 L 772,219 L 772,221 L 771,222 L 772,223 L 772,226 L 773,226 L 773,224 L 774,223 L 775,223 L 776,224 L 776,225 L 777,224 L 778,224 L 779,223 L 780,224 L 783,221 L 784,222 L 784,221 L 785,220 L 786,221 L 786,223 L 785,224 L 783,224 L 783,225 L 782,226 L 781,226 L 782,227 L 782,228 L 781,229 L 780,229 L 779,228 L 779,226 L 778,226 L 778,230 L 779,231 L 779,232 L 780,233 L 780,237 L 781,238 L 783,238 L 783,236 L 782,235 L 782,231 L 783,230 L 783,229 L 784,228 L 785,228 L 788,225 L 789,225 L 793,221 L 794,221 L 794,220 L 795,219 L 797,219 L 798,220 L 796,222 L 796,225 L 798,225 L 799,224 L 802,224 L 803,225 L 802,226 L 801,226 L 800,227 L 801,227 L 802,228 L 803,228 L 804,229 L 804,231 L 803,232 L 802,231 L 801,231 L 798,228 L 798,227 L 797,227 L 797,228 L 796,229 L 794,229 L 793,230 L 792,230 L 792,231 L 791,232 L 790,232 L 790,233 L 788,235 L 787,234 L 787,232 L 789,230 L 789,229 L 790,228 L 791,228 L 792,227 L 793,227 L 794,226 L 794,224 L 791,227 L 790,227 L 788,229 L 787,229 L 786,230 L 786,232 L 785,233 L 785,234 L 786,235 L 786,236 L 785,237 L 785,239 L 786,240 L 786,241 L 787,242 L 787,244 L 788,243 L 789,243 L 789,240 L 794,235 L 796,235 L 797,234 L 808,234 L 809,235 L 811,235 L 812,236 L 817,236 L 818,235 L 819,235 L 821,233 L 820,233 L 816,229 L 816,227 L 815,226 L 815,224 L 814,223 L 814,217 L 813,216 L 813,215 L 812,214 L 812,213 L 809,210 L 808,210 L 806,208 L 805,208 L 804,207 L 803,207 L 802,206 L 801,206 L 799,204 L 798,204 L 795,201 L 795,198 L 796,197 L 796,195 L 792,191 L 791,191 L 790,190 L 790,189 L 786,185 L 786,184 L 782,180 L 782,179 L 780,177 L 780,176 Z" fill="none" stroke="black" stroke-width="1"/>
</svg>