<svg xmlns="http://www.w3.org/2000/svg" width="1133" height="465">
  <path d="M 728,163 L 728,166 L 727,167 L 727,168 L 729,168 L 730,169 L 729,170 L 730,170 L 731,171 L 732,170 L 733,170 L 732,169 L 731,169 L 730,168 L 730,164 L 729,163 Z" fill="none" stroke="black" stroke-width="1"/>
  <path d="M 723,160 L 723,161 L 724,162 L 724,164 L 725,164 L 725,163 L 726,162 L 724,160 Z" fill="none" stroke="black" stroke-width="1"/>
  <path d="M 696,160 L 695,161 L 695,162 L 696,162 L 696,161 L 697,160 L 698,160 Z" fill="none" stroke="black" stroke-width="1"/>
  <path d="M 697,157 L 697,158 L 698,158 L 699,157 L 701,157 L 699,157 L 698,158 Z" fill="none" stroke="black" stroke-width="1"/>
  <path d="M 694,157 L 695,158 L 695,157 Z" fill="none" stroke="black" stroke-width="1"/>
  <path d="M 685,148 L 685,149 L 686,149 L 687,148 Z" fill="none" stroke="black" stroke-width="1"/>
  <path d="M 690,140 L 690,144 L 691,143 L 691,140 Z" fill="none" stroke="black" stroke-width="1"/>
  <path d="M 696,138 L 696,141 L 700,141 L 701,142 L 700,143 L 697,143 L 693,147 L 694,148 L 696,146 L 697,146 L 698,145 L 699,145 L 700,144 L 700,143 L 701,142 L 702,143 L 702,148 L 701,149 L 700,149 L 701,150 L 700,151 L 698,151 L 697,150 L 696,150 L 696,152 L 698,152 L 699,151 L 700,151 L 701,152 L 700,153 L 700,154 L 701,155 L 702,155 L 703,154 L 704,154 L 705,155 L 705,156 L 704,157 L 704,158 L 705,159 L 706,159 L 707,160 L 706,161 L 704,161 L 703,160 L 702,160 L 702,161 L 701,162 L 700,161 L 699,162 L 699,163 L 701,163 L 701,162 L 702,161 L 703,161 L 704,162 L 703,163 L 703,164 L 702,165 L 702,166 L 703,167 L 703,168 L 704,169 L 704,170 L 708,174 L 708,175 L 710,175 L 709,174 L 709,173 L 710,172 L 711,173 L 711,171 L 710,170 L 709,170 L 709,171 L 708,172 L 706,170 L 706,169 L 705,168 L 705,166 L 704,165 L 704,164 L 703,163 L 704,162 L 705,162 L 706,163 L 707,163 L 708,162 L 709,163 L 709,164 L 708,165 L 708,168 L 709,168 L 710,167 L 709,166 L 709,165 L 711,163 L 713,165 L 713,167 L 712,168 L 712,169 L 715,169 L 717,171 L 717,172 L 718,173 L 717,174 L 718,174 L 719,175 L 720,175 L 721,174 L 721,168 L 720,168 L 719,167 L 721,165 L 721,163 L 720,163 L 719,164 L 717,164 L 716,163 L 717,162 L 718,162 L 718,161 L 716,159 L 716,158 L 717,157 L 718,157 L 717,157 L 713,153 L 713,151 L 711,149 L 711,148 L 710,148 L 707,145 L 704,145 L 703,144 L 704,143 L 704,140 L 703,139 L 697,139 Z" fill="none" stroke="black" stroke-width="1"/>
  <path d="M 686,137 L 686,138 L 687,139 L 686,140 L 686,143 L 687,144 L 687,145 L 688,146 L 688,137 Z" fill="none" stroke="black" stroke-width="1"/>
  <path d="M 685,126 L 684,127 L 684,130 L 685,131 L 685,133 L 688,133 L 689,134 L 689,135 L 690,136 L 690,137 L 691,138 L 692,138 L 691,137 L 691,133 L 692,132 L 693,133 L 693,129 L 692,129 L 692,130 L 690,132 L 689,131 L 689,130 L 690,129 L 690,127 L 689,126 Z" fill="none" stroke="black" stroke-width="1"/>
  <path d="M 712,107 L 712,108 L 711,109 L 711,110 L 708,113 L 705,113 L 704,112 L 703,112 L 701,110 L 700,110 L 698,112 L 698,114 L 700,116 L 698,118 L 698,120 L 702,120 L 703,119 L 704,120 L 704,121 L 705,121 L 706,122 L 707,122 L 708,121 L 709,122 L 709,123 L 708,124 L 708,125 L 709,126 L 709,127 L 707,129 L 706,128 L 706,126 L 704,124 L 699,124 L 698,123 L 695,123 L 694,122 L 690,122 L 690,123 L 691,124 L 692,124 L 694,126 L 694,127 L 695,128 L 695,131 L 696,132 L 696,136 L 697,136 L 698,135 L 703,135 L 703,132 L 704,131 L 707,134 L 710,134 L 711,133 L 711,132 L 708,129 L 708,128 L 709,127 L 710,127 L 711,128 L 712,128 L 713,129 L 713,132 L 714,132 L 715,131 L 716,132 L 716,134 L 715,135 L 716,136 L 716,138 L 715,139 L 714,138 L 713,139 L 712,139 L 712,140 L 711,141 L 710,140 L 710,138 L 711,137 L 710,136 L 706,136 L 705,137 L 705,138 L 707,140 L 710,140 L 711,141 L 710,142 L 710,143 L 711,144 L 713,144 L 715,146 L 715,147 L 716,148 L 717,147 L 718,147 L 718,144 L 714,140 L 715,139 L 716,139 L 718,141 L 719,141 L 720,142 L 720,140 L 717,137 L 718,136 L 719,136 L 720,137 L 721,137 L 722,138 L 722,139 L 723,140 L 723,141 L 722,142 L 722,146 L 720,148 L 720,150 L 719,151 L 718,151 L 717,152 L 718,153 L 718,154 L 720,156 L 722,156 L 722,155 L 723,154 L 723,152 L 724,151 L 722,149 L 723,148 L 725,148 L 726,147 L 728,147 L 729,148 L 729,149 L 728,150 L 726,150 L 727,151 L 727,153 L 726,154 L 726,157 L 725,158 L 724,158 L 725,158 L 726,159 L 727,159 L 728,160 L 728,161 L 728,157 L 729,156 L 730,157 L 730,160 L 730,159 L 732,157 L 733,158 L 733,159 L 734,160 L 734,161 L 733,162 L 733,163 L 734,163 L 736,161 L 736,160 L 737,159 L 737,154 L 736,153 L 736,152 L 734,150 L 734,149 L 733,148 L 729,148 L 728,147 L 729,146 L 732,146 L 735,143 L 736,144 L 736,145 L 735,146 L 735,147 L 738,150 L 738,151 L 739,152 L 739,161 L 736,164 L 736,165 L 737,166 L 737,168 L 738,169 L 738,172 L 740,172 L 741,171 L 741,170 L 743,168 L 744,168 L 748,164 L 748,163 L 750,161 L 749,160 L 749,158 L 748,157 L 748,150 L 751,147 L 752,148 L 752,150 L 751,151 L 751,157 L 753,159 L 753,162 L 754,161 L 754,160 L 755,159 L 755,158 L 756,157 L 758,157 L 758,153 L 757,152 L 757,150 L 756,149 L 756,148 L 749,141 L 748,141 L 747,140 L 746,140 L 744,138 L 743,138 L 741,136 L 740,136 L 736,132 L 735,132 L 732,129 L 732,128 L 731,127 L 731,126 L 727,122 L 726,122 L 721,117 L 720,117 L 716,113 L 716,112 L 715,111 L 715,110 L 713,108 L 713,107 Z" fill="none" stroke="black" stroke-width="1"/>
</svg>