<svg xmlns="http://www.w3.org/2000/svg" width="1133" height="465">
  <path d="M 574,31 L 573,32 L 570,32 L 569,33 L 561,33 L 561,35 L 559,37 L 559,38 L 552,45 L 552,51 L 553,50 L 554,51 L 559,51 L 560,52 L 565,52 L 566,53 L 567,53 L 568,54 L 572,54 L 573,53 L 574,53 L 572,51 L 573,50 L 575,50 L 576,51 L 576,52 L 577,53 L 577,54 L 575,56 L 575,57 L 578,57 L 579,58 L 581,58 L 582,59 L 585,59 L 586,60 L 593,60 L 594,59 L 596,59 L 598,57 L 599,57 L 599,56 L 601,54 L 602,54 L 603,53 L 605,53 L 608,56 L 609,56 L 610,57 L 609,58 L 608,58 L 608,62 L 609,62 L 610,63 L 610,64 L 609,65 L 607,65 L 605,63 L 605,57 L 604,56 L 602,56 L 602,57 L 603,58 L 603,59 L 604,60 L 604,61 L 603,62 L 603,63 L 602,64 L 601,64 L 601,65 L 602,66 L 605,66 L 606,67 L 606,68 L 608,68 L 609,69 L 610,69 L 611,70 L 612,70 L 613,71 L 614,71 L 615,72 L 616,72 L 617,73 L 618,72 L 619,72 L 619,69 L 623,65 L 624,65 L 625,64 L 635,64 L 636,63 L 641,63 L 642,62 L 643,63 L 649,63 L 650,62 L 652,62 L 653,61 L 655,61 L 655,60 L 658,57 L 661,57 L 660,57 L 659,56 L 658,56 L 657,55 L 656,55 L 655,54 L 654,54 L 653,53 L 649,53 L 648,52 L 647,52 L 644,49 L 643,49 L 642,48 L 641,48 L 640,47 L 639,47 L 638,46 L 634,46 L 633,47 L 632,47 L 631,46 L 631,45 L 627,45 L 626,44 L 625,44 L 623,42 L 622,42 L 620,40 L 618,40 L 617,39 L 615,39 L 614,38 L 613,38 L 612,37 L 611,37 L 609,35 L 605,35 L 604,34 L 603,34 L 602,33 L 601,33 L 600,32 L 599,33 L 591,33 L 590,32 L 584,32 L 583,31 Z" fill="none" stroke="black" stroke-width="1"/>
</svg>