<svg xmlns="http://www.w3.org/2000/svg" width="1133" height="465">
  <path d="M 8,240 L 9,240 Z" fill="none" stroke="black" stroke-width="1"/>
  <path d="M 16,236 L 16,237 L 14,239 L 13,239 L 14,240 L 16,240 L 16,237 L 17,236 Z" fill="none" stroke="black" stroke-width="1"/>
  <path d="M 0,236 L 1,237 L 2,237 L 4,239 L 2,241 L 3,241 L 4,242 L 4,241 L 5,240 L 5,238 L 4,237 L 4,236 Z" fill="none" stroke="black" stroke-width="1"/>
  <path d="M 23,235 L 22,236 L 22,237 L 20,239 L 20,240 L 19,241 L 19,242 L 20,242 L 21,241 L 22,241 L 23,240 L 25,240 L 26,239 L 29,239 L 31,237 L 33,237 L 28,237 L 27,238 L 24,238 L 23,237 L 25,235 Z" fill="none" stroke="black" stroke-width="1"/>
  <path d="M 32,232 L 32,234 L 33,234 L 34,233 L 33,232 Z" fill="none" stroke="black" stroke-width="1"/>
  <path d="M 70,231 L 69,232 L 67,232 L 68,233 L 69,232 L 72,232 L 73,233 L 74,233 L 75,232 L 80,232 L 73,232 L 72,231 Z" fill="none" stroke="black" stroke-width="1"/>
  <path d="M 89,226 L 87,228 L 89,228 L 90,227 L 91,227 L 91,226 Z" fill="none" stroke="black" stroke-width="1"/>
  <path d="M 60,226 L 59,227 L 61,227 L 62,228 L 62,229 L 61,230 L 60,230 L 59,229 L 58,230 L 57,230 L 57,231 L 56,232 L 51,232 L 50,233 L 46,233 L 50,233 L 51,232 L 52,233 L 56,233 L 57,232 L 59,232 L 60,231 L 62,231 L 65,228 L 65,227 L 64,226 Z" fill="none" stroke="black" stroke-width="1"/>
  <path d="M 117,219 L 115,221 L 115,222 L 116,221 L 118,221 L 118,220 Z" fill="none" stroke="black" stroke-width="1"/>
  <path d="M 131,215 L 130,216 L 128,216 L 131,216 L 132,217 L 132,215 Z" fill="none" stroke="black" stroke-width="1"/>
  <path d="M 156,201 L 155,202 L 154,202 L 153,203 L 153,205 L 154,206 L 152,208 L 150,208 L 149,207 L 147,209 L 147,212 L 145,214 L 144,214 L 143,215 L 145,215 L 146,214 L 148,214 L 152,210 L 152,209 L 154,207 L 155,207 L 156,206 L 157,206 L 158,205 L 159,205 L 160,204 L 161,204 L 161,202 L 160,201 Z" fill="none" stroke="black" stroke-width="1"/>
  <path d="M 178,191 L 177,192 L 175,192 L 173,194 L 174,195 L 177,195 L 179,197 L 179,198 L 178,199 L 176,197 L 175,197 L 173,199 L 173,200 L 174,201 L 172,203 L 171,203 L 170,204 L 167,204 L 166,205 L 163,205 L 162,206 L 167,206 L 169,204 L 171,204 L 172,203 L 174,203 L 175,202 L 176,203 L 177,203 L 178,202 L 179,202 L 180,201 L 180,200 L 181,199 L 183,199 L 185,197 L 187,197 L 188,196 L 188,195 L 186,195 L 185,196 L 184,196 L 182,198 L 181,197 L 181,196 L 183,194 L 184,194 L 185,193 L 186,193 L 186,192 L 185,191 L 183,193 L 182,193 L 181,194 L 180,193 L 180,191 Z" fill="none" stroke="black" stroke-width="1"/>
  <path d="M 204,188 L 204,189 L 206,189 L 205,189 Z" fill="none" stroke="black" stroke-width="1"/>
  <path d="M 196,185 L 196,187 L 195,188 L 194,188 L 193,187 L 190,187 L 189,188 L 189,189 L 194,189 L 196,187 L 197,188 L 197,187 L 198,186 L 198,185 Z" fill="none" stroke="black" stroke-width="1"/>
  <path d="M 240,180 L 240,181 L 241,181 L 242,182 L 244,182 L 243,181 L 242,181 L 241,180 Z" fill="none" stroke="black" stroke-width="1"/>
  <path d="M 223,168 L 221,170 L 220,170 L 219,171 L 214,171 L 213,172 L 213,173 L 212,174 L 212,175 L 209,178 L 207,178 L 207,179 L 210,182 L 212,182 L 213,181 L 215,181 L 216,180 L 216,179 L 218,177 L 229,177 L 231,175 L 233,175 L 234,176 L 236,176 L 235,175 L 235,174 L 233,174 L 232,173 L 235,170 L 236,170 L 236,169 L 234,169 L 233,170 L 233,171 L 232,172 L 232,173 L 231,174 L 230,173 L 230,170 L 229,169 L 229,168 Z" fill="none" stroke="black" stroke-width="1"/>
  <path d="M 132,133 L 133,133 L 134,134 L 135,133 Z" fill="none" stroke="black" stroke-width="1"/>
  <path d="M 123,119 L 122,120 L 124,120 L 125,119 Z" fill="none" stroke="black" stroke-width="1"/>
</svg>