<svg xmlns="http://www.w3.org/2000/svg" width="776" height="467">
  <path d="M 591,316 L 591,318 L 592,317 L 594,317 L 592,317 Z" fill="none" stroke="black" stroke-width="1"/>
  <path d="M 601,313 L 601,314 L 600,315 L 600,316 L 601,316 L 602,315 L 603,315 L 603,313 Z" fill="none" stroke="black" stroke-width="1"/>
  <path d="M 571,304 L 568,307 L 568,308 L 562,314 L 560,314 L 560,318 L 562,320 L 559,323 L 559,325 L 558,326 L 558,328 L 560,330 L 565,330 L 567,332 L 568,332 L 572,336 L 574,336 L 576,338 L 577,338 L 579,340 L 589,340 L 590,341 L 593,341 L 594,342 L 595,342 L 598,345 L 599,345 L 600,346 L 601,346 L 603,348 L 603,350 L 604,350 L 605,351 L 605,352 L 606,353 L 606,354 L 607,355 L 607,356 L 610,359 L 610,360 L 611,361 L 612,361 L 613,362 L 613,363 L 614,364 L 614,365 L 616,367 L 616,370 L 615,371 L 615,373 L 616,374 L 616,375 L 618,375 L 620,373 L 620,372 L 621,371 L 621,369 L 622,368 L 622,364 L 623,363 L 623,362 L 624,361 L 624,360 L 625,359 L 625,356 L 624,355 L 624,354 L 623,354 L 623,356 L 618,361 L 616,359 L 616,358 L 615,357 L 617,355 L 617,354 L 618,353 L 618,350 L 621,347 L 621,345 L 621,346 L 619,348 L 616,348 L 615,349 L 615,350 L 613,352 L 613,354 L 612,355 L 612,357 L 611,358 L 610,358 L 609,357 L 608,357 L 607,356 L 607,355 L 606,354 L 606,353 L 607,352 L 608,352 L 608,351 L 609,350 L 609,349 L 607,349 L 606,348 L 606,347 L 607,346 L 611,346 L 612,345 L 611,344 L 614,341 L 617,341 L 619,339 L 619,338 L 620,337 L 619,336 L 619,335 L 616,338 L 614,336 L 613,336 L 613,338 L 612,339 L 611,339 L 610,338 L 609,339 L 607,337 L 607,336 L 605,334 L 607,332 L 605,332 L 604,331 L 605,330 L 606,330 L 607,329 L 607,328 L 608,327 L 610,327 L 611,326 L 611,325 L 612,324 L 612,323 L 611,322 L 610,322 L 609,321 L 608,321 L 607,320 L 606,320 L 605,319 L 603,319 L 601,321 L 600,320 L 599,320 L 598,321 L 597,320 L 597,318 L 596,318 L 595,319 L 595,320 L 594,321 L 593,321 L 593,322 L 592,323 L 589,323 L 588,322 L 588,321 L 588,322 L 587,323 L 586,323 L 585,324 L 585,326 L 583,328 L 582,327 L 582,325 L 583,324 L 583,319 L 584,318 L 585,319 L 585,321 L 586,320 L 586,317 L 585,317 L 584,318 L 582,318 L 581,319 L 580,319 L 581,320 L 580,321 L 579,321 L 577,319 L 577,318 L 575,318 L 574,317 L 575,316 L 575,314 L 574,314 L 573,313 L 574,312 L 575,312 L 576,311 L 577,311 L 578,310 L 579,310 L 580,309 L 581,309 L 581,308 L 580,308 L 579,309 L 577,309 L 575,307 L 573,307 L 571,305 Z" fill="none" stroke="black" stroke-width="1"/>
</svg>