<svg xmlns="http://www.w3.org/2000/svg" width="776" height="467">
  <path d="M 579,291 L 579,292 L 580,292 L 581,291 Z" fill="none" stroke="black" stroke-width="1"/>
  <path d="M 574,274 L 572,276 L 571,276 L 570,277 L 568,277 L 567,278 L 565,278 L 564,279 L 563,279 L 562,280 L 562,281 L 561,282 L 561,284 L 560,285 L 560,286 L 559,287 L 559,288 L 555,292 L 554,292 L 553,293 L 555,293 L 556,294 L 555,295 L 553,295 L 551,297 L 551,298 L 550,299 L 550,301 L 549,302 L 549,303 L 548,304 L 548,305 L 547,306 L 547,308 L 545,310 L 545,311 L 544,312 L 544,313 L 543,314 L 543,315 L 545,317 L 546,317 L 547,318 L 546,319 L 544,319 L 543,318 L 541,318 L 539,320 L 539,322 L 540,323 L 541,323 L 542,324 L 543,324 L 544,325 L 543,326 L 540,326 L 541,326 L 544,329 L 543,330 L 541,330 L 539,328 L 538,328 L 536,326 L 535,327 L 535,329 L 534,330 L 534,331 L 532,333 L 532,336 L 531,337 L 530,337 L 529,338 L 528,338 L 527,337 L 527,335 L 526,336 L 525,336 L 523,338 L 529,338 L 530,337 L 535,337 L 536,338 L 536,339 L 535,340 L 533,340 L 527,346 L 526,346 L 525,347 L 524,347 L 521,350 L 521,352 L 522,353 L 522,356 L 523,357 L 525,357 L 526,356 L 535,356 L 536,355 L 538,355 L 539,354 L 543,354 L 545,356 L 555,356 L 556,357 L 559,357 L 560,358 L 561,357 L 563,357 L 564,356 L 566,356 L 562,352 L 561,352 L 559,350 L 559,349 L 556,346 L 556,343 L 558,341 L 556,339 L 556,336 L 557,335 L 557,333 L 558,332 L 558,331 L 559,330 L 557,328 L 557,326 L 558,325 L 558,323 L 561,320 L 559,318 L 559,314 L 560,313 L 561,313 L 560,313 L 559,312 L 560,311 L 561,311 L 561,307 L 564,304 L 564,303 L 566,301 L 566,300 L 567,299 L 567,298 L 570,295 L 570,289 L 571,288 L 572,289 L 572,292 L 572,291 L 574,289 L 574,288 L 576,286 L 576,285 L 577,284 L 577,283 L 576,282 L 575,282 L 574,283 L 571,280 L 571,279 L 572,278 L 575,278 L 576,279 L 580,279 L 581,278 L 581,277 L 582,276 L 582,275 L 581,274 L 580,275 L 579,275 L 578,274 L 578,275 L 579,276 L 578,277 L 577,277 L 575,275 L 575,274 Z" fill="none" stroke="black" stroke-width="1"/>
</svg>