<svg xmlns="http://www.w3.org/2000/svg" width="776" height="467">
  <path d="M 501,369 L 500,370 L 500,371 L 498,373 L 497,373 L 497,374 L 496,375 L 496,376 L 495,377 L 495,378 L 494,379 L 494,380 L 492,382 L 492,383 L 491,384 L 490,384 L 488,386 L 488,388 L 487,389 L 488,390 L 488,393 L 490,395 L 490,396 L 491,397 L 493,397 L 495,399 L 496,398 L 495,398 L 494,397 L 495,396 L 497,396 L 498,397 L 499,396 L 504,396 L 505,395 L 506,395 L 508,393 L 508,392 L 509,391 L 510,391 L 511,390 L 513,390 L 513,385 L 511,385 L 510,384 L 508,384 L 507,383 L 505,383 L 505,384 L 506,385 L 504,387 L 503,387 L 501,389 L 500,389 L 500,391 L 501,391 L 502,392 L 500,394 L 499,394 L 498,395 L 497,394 L 496,394 L 495,395 L 493,395 L 492,394 L 494,392 L 496,392 L 495,392 L 494,391 L 495,390 L 497,390 L 497,388 L 498,387 L 499,387 L 500,386 L 501,386 L 501,385 L 502,384 L 501,383 L 502,382 L 502,381 L 503,380 L 503,379 L 504,378 L 504,376 L 505,375 L 505,373 L 506,372 L 504,372 L 503,371 L 503,369 Z" fill="none" stroke="black" stroke-width="1"/>
</svg>