<svg xmlns="http://www.w3.org/2000/svg" width="776" height="467">
  <path d="M 447,369 L 446,370 L 445,370 L 445,371 L 444,372 L 444,373 L 442,375 L 442,376 L 446,376 L 447,377 L 447,380 L 452,380 L 453,381 L 452,382 L 454,384 L 456,384 L 457,385 L 459,385 L 460,386 L 461,385 L 461,384 L 462,383 L 463,384 L 464,384 L 466,386 L 465,387 L 465,388 L 466,389 L 471,389 L 472,388 L 472,386 L 471,387 L 470,386 L 470,385 L 471,384 L 473,384 L 473,383 L 475,381 L 477,381 L 478,380 L 479,380 L 478,379 L 470,379 L 469,380 L 463,380 L 462,381 L 460,381 L 459,380 L 459,379 L 457,379 L 456,378 L 453,378 L 453,379 L 452,380 L 451,380 L 450,379 L 450,375 L 449,374 L 447,374 L 446,373 L 448,371 L 448,369 Z" fill="none" stroke="black" stroke-width="1"/>
  <path d="M 483,357 L 482,358 L 482,359 L 481,360 L 480,360 L 480,361 L 479,362 L 479,364 L 480,364 L 481,365 L 482,365 L 482,364 L 481,364 L 480,363 L 480,362 L 482,360 L 484,360 L 484,357 Z" fill="none" stroke="black" stroke-width="1"/>
  <path d="M 487,356 L 487,357 L 490,357 L 490,356 Z" fill="none" stroke="black" stroke-width="1"/>
</svg>