<svg xmlns="http://www.w3.org/2000/svg" width="776" height="467">
  <path d="M 454,401 L 456,401 L 457,402 L 456,403 L 451,403 L 450,404 L 449,404 L 448,405 L 447,405 L 447,407 L 446,408 L 444,406 L 443,406 L 442,405 L 442,404 L 443,403 L 442,402 L 441,402 L 442,403 L 440,405 L 437,405 L 436,406 L 435,406 L 433,408 L 432,408 L 431,409 L 430,409 L 429,410 L 428,410 L 426,412 L 425,412 L 424,413 L 423,413 L 424,413 L 425,414 L 424,415 L 435,415 L 436,414 L 438,414 L 439,413 L 441,413 L 443,411 L 448,411 L 449,410 L 453,410 L 454,409 L 455,409 L 456,408 L 459,408 L 461,406 L 462,406 L 466,402 L 468,402 L 463,402 L 462,401 Z" fill="none" stroke="black" stroke-width="1"/>
</svg>