<svg xmlns="http://www.w3.org/2000/svg" width="776" height="467">
  <path d="M 416,364 L 411,369 L 408,369 L 406,371 L 409,374 L 412,374 L 413,375 L 414,375 L 415,376 L 416,376 L 419,379 L 419,381 L 422,384 L 424,384 L 425,385 L 426,385 L 427,386 L 428,386 L 429,387 L 430,387 L 433,390 L 433,391 L 434,392 L 434,394 L 435,395 L 437,395 L 438,394 L 438,392 L 437,391 L 437,390 L 436,389 L 436,388 L 437,387 L 439,389 L 439,390 L 441,392 L 441,393 L 443,391 L 444,391 L 445,390 L 446,390 L 447,389 L 448,389 L 447,388 L 448,387 L 451,387 L 451,386 L 450,386 L 449,385 L 446,385 L 445,384 L 440,384 L 439,383 L 439,382 L 438,381 L 438,378 L 437,377 L 437,375 L 436,375 L 434,373 L 434,370 L 435,369 L 435,367 L 432,367 L 431,368 L 428,368 L 427,367 L 427,365 L 420,365 L 419,364 Z" fill="none" stroke="black" stroke-width="1"/>
</svg>