<svg xmlns="http://www.w3.org/2000/svg" width="776" height="467">
  <path d="M 421,323 L 420,324 L 412,324 L 411,325 L 410,325 L 409,326 L 407,326 L 406,327 L 404,327 L 403,328 L 402,328 L 401,329 L 400,329 L 399,330 L 396,330 L 395,331 L 395,333 L 396,334 L 396,336 L 395,337 L 395,340 L 394,341 L 394,343 L 395,344 L 395,346 L 396,345 L 401,345 L 402,346 L 406,346 L 407,345 L 409,345 L 410,346 L 415,346 L 416,345 L 417,345 L 418,344 L 419,344 L 421,346 L 423,346 L 424,347 L 425,347 L 426,348 L 428,348 L 429,347 L 431,347 L 434,344 L 436,344 L 436,343 L 438,341 L 439,341 L 440,340 L 441,340 L 442,339 L 443,339 L 444,338 L 443,337 L 444,336 L 444,334 L 443,334 L 441,332 L 442,331 L 444,331 L 445,332 L 445,331 L 442,328 L 441,328 L 440,327 L 439,327 L 437,325 L 436,325 L 435,324 L 430,324 L 429,323 Z" fill="none" stroke="black" stroke-width="1"/>
</svg>