<svg xmlns="http://www.w3.org/2000/svg" width="776" height="467">
  <path d="M 173,437 L 171,439 L 171,440 L 167,444 L 166,444 L 164,446 L 163,446 L 162,447 L 161,447 L 161,455 L 160,456 L 159,455 L 158,455 L 158,456 L 159,456 L 160,457 L 160,459 L 159,460 L 156,460 L 155,461 L 154,460 L 151,460 L 151,465 L 155,465 L 156,464 L 158,466 L 159,465 L 159,464 L 160,463 L 161,463 L 162,462 L 163,462 L 164,461 L 166,461 L 167,460 L 168,461 L 168,460 L 169,459 L 169,458 L 170,457 L 171,457 L 173,455 L 174,455 L 175,454 L 176,454 L 177,453 L 184,453 L 185,454 L 187,454 L 188,455 L 192,455 L 191,455 L 190,454 L 191,453 L 192,453 L 194,451 L 198,451 L 199,450 L 204,450 L 205,449 L 206,449 L 207,450 L 208,449 L 210,449 L 211,450 L 212,449 L 213,449 L 213,448 L 212,447 L 212,443 L 210,443 L 209,444 L 202,444 L 201,445 L 200,445 L 199,444 L 197,444 L 195,442 L 194,442 L 193,441 L 181,441 L 180,442 L 178,442 L 177,441 L 177,440 L 176,439 L 176,438 L 175,437 Z" fill="none" stroke="black" stroke-width="1"/>
</svg>