<svg xmlns="http://www.w3.org/2000/svg" width="776" height="467">
  <path d="M 232,411 L 231,412 L 223,412 L 221,414 L 220,414 L 219,415 L 217,415 L 215,417 L 212,417 L 211,418 L 211,422 L 212,423 L 217,423 L 218,424 L 221,424 L 222,425 L 224,425 L 226,427 L 226,429 L 230,429 L 231,428 L 234,428 L 236,430 L 237,430 L 238,429 L 240,429 L 241,430 L 241,431 L 243,431 L 244,430 L 246,430 L 244,430 L 243,429 L 244,428 L 245,428 L 246,427 L 248,427 L 250,425 L 251,425 L 252,424 L 253,424 L 253,419 L 252,418 L 251,418 L 250,417 L 249,417 L 248,416 L 248,413 L 245,413 L 244,414 L 243,414 L 242,413 L 240,413 L 238,411 Z" fill="none" stroke="black" stroke-width="1"/>
</svg>