<svg xmlns="http://www.w3.org/2000/svg" width="776" height="467">
  <path d="M 315,365 L 314,366 L 314,367 L 312,369 L 311,369 L 310,370 L 309,370 L 307,372 L 306,372 L 306,373 L 305,374 L 303,374 L 302,375 L 301,375 L 300,376 L 300,377 L 299,378 L 298,378 L 297,379 L 296,379 L 299,379 L 300,380 L 300,381 L 299,382 L 300,383 L 301,383 L 302,384 L 303,384 L 305,386 L 308,386 L 309,385 L 310,385 L 311,384 L 314,384 L 316,382 L 316,381 L 317,380 L 318,380 L 320,378 L 321,379 L 322,379 L 323,378 L 324,378 L 325,377 L 326,377 L 326,375 L 324,373 L 324,372 L 323,372 L 322,371 L 322,367 L 321,366 L 319,366 L 318,365 Z" fill="none" stroke="black" stroke-width="1"/>
</svg>