<svg xmlns="http://www.w3.org/2000/svg" width="776" height="467">
  <path d="M 204,341 L 203,342 L 202,342 L 201,343 L 199,343 L 195,347 L 195,348 L 192,351 L 192,352 L 191,353 L 191,354 L 189,356 L 189,358 L 185,362 L 185,363 L 183,365 L 183,368 L 179,372 L 178,372 L 177,373 L 177,374 L 181,378 L 181,379 L 182,380 L 182,381 L 183,382 L 183,384 L 188,384 L 189,385 L 191,385 L 194,388 L 195,388 L 197,390 L 198,390 L 200,392 L 201,392 L 202,393 L 205,393 L 206,392 L 206,390 L 205,389 L 206,388 L 207,388 L 207,387 L 208,386 L 208,385 L 210,383 L 210,379 L 211,378 L 211,377 L 212,376 L 212,370 L 211,370 L 207,366 L 207,365 L 206,364 L 206,361 L 205,360 L 205,356 L 206,355 L 206,351 L 207,350 L 205,348 L 205,346 L 207,344 L 207,341 Z" fill="none" stroke="black" stroke-width="1"/>
</svg>