<svg xmlns="http://www.w3.org/2000/svg" width="776" height="467">
  <path d="M 294,379 L 294,380 L 293,381 L 292,381 L 292,382 L 290,384 L 288,384 L 288,386 L 287,387 L 286,387 L 284,389 L 283,389 L 282,390 L 281,390 L 280,391 L 278,391 L 277,392 L 273,392 L 271,394 L 271,395 L 269,397 L 269,398 L 272,398 L 273,399 L 275,399 L 276,400 L 277,400 L 278,401 L 279,401 L 280,402 L 281,402 L 282,403 L 282,404 L 283,404 L 284,403 L 287,403 L 288,402 L 289,402 L 290,401 L 292,401 L 293,400 L 293,399 L 294,398 L 294,397 L 297,394 L 298,394 L 299,393 L 300,393 L 302,391 L 303,391 L 304,390 L 306,390 L 307,389 L 307,388 L 308,387 L 305,387 L 303,385 L 302,385 L 301,384 L 300,384 L 298,382 L 299,381 L 299,380 L 296,380 L 295,379 Z" fill="none" stroke="black" stroke-width="1"/>
</svg>