<svg xmlns="http://www.w3.org/2000/svg" width="776" height="467">
  <path d="M 343,349 L 343,350 L 342,351 L 341,351 L 339,353 L 338,353 L 337,354 L 336,354 L 334,356 L 333,356 L 332,357 L 328,357 L 327,358 L 325,358 L 324,359 L 322,359 L 322,360 L 320,362 L 320,363 L 319,364 L 319,365 L 321,365 L 323,367 L 323,371 L 324,371 L 325,372 L 325,373 L 327,375 L 327,376 L 331,376 L 335,372 L 335,370 L 339,366 L 343,366 L 345,364 L 345,362 L 348,359 L 350,359 L 351,358 L 351,357 L 352,356 L 352,355 L 353,354 L 354,354 L 356,352 L 356,350 L 350,350 L 349,351 L 346,351 L 345,350 L 345,349 Z" fill="none" stroke="black" stroke-width="1"/>
</svg>