<svg xmlns="http://www.w3.org/2000/svg" width="776" height="467">
  <path d="M 364,320 L 364,321 L 355,330 L 355,333 L 354,334 L 354,335 L 345,344 L 344,344 L 343,345 L 343,348 L 345,348 L 346,349 L 346,350 L 349,350 L 350,349 L 357,349 L 357,348 L 358,347 L 358,346 L 361,343 L 362,343 L 364,341 L 364,340 L 365,339 L 365,338 L 368,335 L 368,334 L 371,331 L 372,331 L 374,329 L 375,329 L 375,328 L 377,326 L 382,326 L 382,325 L 379,322 L 377,322 L 376,321 L 368,321 L 367,320 Z" fill="none" stroke="black" stroke-width="1"/>
</svg>