<svg xmlns="http://www.w3.org/2000/svg" width="776" height="467">
  <path d="M 557,264 L 556,265 L 555,265 L 552,268 L 549,268 L 548,269 L 540,269 L 539,270 L 534,270 L 533,271 L 530,271 L 529,272 L 528,272 L 527,273 L 526,273 L 522,277 L 521,277 L 520,278 L 519,278 L 517,280 L 516,280 L 510,286 L 509,286 L 508,287 L 508,288 L 507,289 L 506,289 L 506,290 L 505,291 L 507,293 L 507,297 L 509,299 L 509,302 L 510,302 L 511,301 L 512,301 L 513,300 L 513,299 L 514,298 L 515,298 L 516,297 L 517,297 L 518,296 L 518,295 L 521,292 L 522,292 L 523,291 L 524,291 L 525,290 L 526,291 L 527,290 L 527,286 L 529,284 L 531,284 L 532,283 L 532,282 L 531,281 L 532,280 L 541,280 L 543,278 L 544,278 L 546,276 L 547,277 L 549,277 L 550,276 L 551,276 L 552,275 L 554,275 L 556,277 L 558,277 L 559,276 L 560,276 L 561,275 L 560,274 L 560,270 L 561,269 L 561,267 L 560,267 L 559,266 L 558,266 L 557,265 Z" fill="none" stroke="black" stroke-width="1"/>
</svg>