<svg xmlns="http://www.w3.org/2000/svg" width="776" height="467">
  <path d="M 574,234 L 577,234 Z" fill="none" stroke="black" stroke-width="1"/>
  <path d="M 571,231 L 572,232 L 573,232 L 572,231 Z" fill="none" stroke="black" stroke-width="1"/>
  <path d="M 537,218 L 536,219 L 543,219 L 544,220 L 542,222 L 539,222 L 538,223 L 536,223 L 535,224 L 535,226 L 534,227 L 534,228 L 533,229 L 533,230 L 534,230 L 539,235 L 540,235 L 541,236 L 541,237 L 545,237 L 546,238 L 546,239 L 549,239 L 553,243 L 553,244 L 554,245 L 554,248 L 557,251 L 557,252 L 558,253 L 558,260 L 559,261 L 559,262 L 558,263 L 558,265 L 559,265 L 560,266 L 561,266 L 562,267 L 562,269 L 561,270 L 561,274 L 562,274 L 565,271 L 566,271 L 567,270 L 568,270 L 569,269 L 570,269 L 571,268 L 572,268 L 574,266 L 575,266 L 576,265 L 576,264 L 578,262 L 578,261 L 576,259 L 574,259 L 573,258 L 572,258 L 570,256 L 571,255 L 573,255 L 574,256 L 575,256 L 576,257 L 578,257 L 578,256 L 577,255 L 570,255 L 569,254 L 570,253 L 571,253 L 572,252 L 576,252 L 576,251 L 574,251 L 572,249 L 574,247 L 576,247 L 575,246 L 575,245 L 574,244 L 574,243 L 576,241 L 576,240 L 577,239 L 576,238 L 576,237 L 575,236 L 574,237 L 573,237 L 572,236 L 572,234 L 571,234 L 569,232 L 569,231 L 565,231 L 563,229 L 564,228 L 566,228 L 564,228 L 563,229 L 560,229 L 559,228 L 555,232 L 555,233 L 553,235 L 552,234 L 552,231 L 551,231 L 550,230 L 551,229 L 552,229 L 553,228 L 554,228 L 556,226 L 555,225 L 554,225 L 553,224 L 553,223 L 552,222 L 552,220 L 551,219 L 549,219 L 548,218 Z" fill="none" stroke="black" stroke-width="1"/>
</svg>