<svg xmlns="http://www.w3.org/2000/svg" width="753" height="314">
  <path d="M 701,42 L 701,43 L 702,44 L 702,45 L 703,46 L 704,46 L 707,49 L 707,50 L 709,52 L 709,53 L 711,55 L 711,56 L 712,57 L 712,59 L 713,60 L 713,62 L 714,63 L 714,64 L 715,65 L 715,68 L 716,69 L 715,70 L 715,72 L 716,73 L 716,87 L 715,88 L 715,90 L 714,91 L 714,92 L 709,97 L 709,98 L 708,99 L 707,99 L 707,101 L 703,105 L 702,105 L 699,108 L 698,108 L 695,111 L 694,111 L 694,112 L 695,112 L 696,113 L 697,113 L 698,114 L 699,114 L 700,115 L 701,115 L 702,116 L 707,116 L 708,115 L 709,115 L 711,113 L 712,114 L 712,115 L 713,115 L 716,118 L 715,119 L 715,120 L 717,120 L 720,117 L 721,117 L 722,116 L 723,116 L 727,112 L 728,112 L 729,111 L 730,111 L 732,109 L 733,109 L 734,108 L 736,108 L 738,106 L 739,106 L 741,104 L 741,103 L 745,99 L 745,98 L 750,93 L 750,91 L 751,90 L 752,90 L 752,88 L 751,87 L 750,87 L 748,85 L 747,85 L 746,86 L 742,86 L 740,84 L 740,82 L 739,81 L 743,77 L 747,77 L 747,74 L 746,73 L 746,71 L 745,70 L 744,70 L 742,68 L 741,68 L 740,67 L 739,67 L 736,64 L 736,63 L 732,63 L 732,64 L 731,65 L 729,65 L 728,64 L 728,63 L 730,61 L 730,60 L 732,58 L 732,56 L 731,56 L 725,50 L 724,50 L 721,47 L 720,47 L 719,46 L 718,46 L 717,45 L 715,45 L 714,44 L 712,44 L 711,43 L 709,43 L 708,42 Z" fill="none" stroke="black" stroke-width="1"/>
</svg>