<svg xmlns="http://www.w3.org/2000/svg" width="753" height="314">
  <path d="M 692,112 L 691,113 L 690,113 L 687,116 L 686,116 L 685,117 L 683,117 L 682,118 L 680,118 L 679,119 L 678,119 L 677,120 L 675,120 L 674,121 L 672,121 L 671,122 L 669,122 L 668,123 L 667,123 L 666,124 L 665,124 L 667,124 L 669,126 L 669,129 L 670,130 L 670,131 L 671,132 L 671,133 L 672,134 L 675,134 L 676,135 L 675,136 L 676,137 L 677,137 L 678,138 L 677,139 L 676,139 L 676,140 L 677,141 L 676,142 L 676,143 L 675,144 L 678,147 L 678,148 L 677,149 L 676,149 L 676,150 L 678,152 L 678,153 L 679,154 L 679,157 L 678,158 L 678,160 L 679,161 L 679,162 L 680,162 L 681,163 L 681,164 L 680,165 L 680,166 L 682,168 L 681,169 L 682,169 L 685,172 L 685,175 L 686,175 L 687,176 L 689,176 L 690,177 L 696,177 L 697,178 L 698,178 L 702,182 L 703,182 L 707,186 L 709,186 L 715,180 L 715,172 L 719,168 L 719,167 L 720,166 L 720,165 L 721,164 L 721,153 L 720,152 L 720,149 L 719,148 L 719,147 L 718,146 L 718,145 L 717,144 L 715,144 L 713,142 L 712,142 L 709,145 L 707,145 L 706,144 L 704,144 L 700,140 L 700,139 L 699,138 L 699,136 L 701,134 L 702,134 L 703,135 L 705,133 L 707,133 L 708,132 L 710,132 L 711,133 L 711,132 L 712,131 L 712,127 L 713,126 L 713,124 L 715,122 L 715,121 L 714,120 L 714,119 L 715,118 L 713,116 L 712,116 L 711,115 L 711,114 L 709,116 L 708,116 L 707,117 L 702,117 L 701,116 L 700,116 L 699,115 L 698,115 L 697,114 L 696,114 L 695,113 L 694,113 L 693,112 Z" fill="none" stroke="black" stroke-width="1"/>
</svg>