<svg xmlns="http://www.w3.org/2000/svg" width="753" height="314">
  <path d="M 671,180 L 670,181 L 669,181 L 668,182 L 667,182 L 671,182 L 672,181 L 672,180 Z" fill="none" stroke="black" stroke-width="1"/>
  <path d="M 685,176 L 685,177 L 684,178 L 684,179 L 680,183 L 679,183 L 680,184 L 680,185 L 679,186 L 677,186 L 677,187 L 680,190 L 680,193 L 679,194 L 679,198 L 678,199 L 677,198 L 677,194 L 675,192 L 673,192 L 672,191 L 672,189 L 671,189 L 669,191 L 669,192 L 667,194 L 667,195 L 666,196 L 666,198 L 668,200 L 668,201 L 669,202 L 669,205 L 668,206 L 669,207 L 669,208 L 671,210 L 671,211 L 672,212 L 672,214 L 673,215 L 673,218 L 672,219 L 672,220 L 671,221 L 671,225 L 672,226 L 672,230 L 673,230 L 674,229 L 679,229 L 685,223 L 690,223 L 691,222 L 693,222 L 693,221 L 694,220 L 694,219 L 695,218 L 695,217 L 696,216 L 698,216 L 700,214 L 700,213 L 701,212 L 701,211 L 702,210 L 702,206 L 703,205 L 703,203 L 702,202 L 702,201 L 701,200 L 701,199 L 699,197 L 701,195 L 702,195 L 705,192 L 705,190 L 706,189 L 706,186 L 703,183 L 702,183 L 698,179 L 697,179 L 696,178 L 690,178 L 689,177 L 687,177 L 686,176 Z" fill="none" stroke="black" stroke-width="1"/>
  <path d="M 662,157 L 663,158 L 664,158 L 663,157 Z" fill="none" stroke="black" stroke-width="1"/>
  <path d="M 661,152 L 660,153 L 661,154 L 662,154 L 662,153 Z" fill="none" stroke="black" stroke-width="1"/>
  <path d="M 665,119 L 665,120 L 667,120 L 667,119 Z" fill="none" stroke="black" stroke-width="1"/>
  <path d="M 669,118 L 669,119 L 671,119 L 671,118 Z" fill="none" stroke="black" stroke-width="1"/>
  <path d="M 673,117 L 673,118 L 675,118 L 676,117 Z" fill="none" stroke="black" stroke-width="1"/>
  <path d="M 677,93 L 677,95 L 679,93 Z" fill="none" stroke="black" stroke-width="1"/>
  <path d="M 665,85 L 664,86 L 663,86 L 662,87 L 661,87 L 660,88 L 660,89 L 661,89 L 662,88 L 664,88 L 667,85 Z" fill="none" stroke="black" stroke-width="1"/>
  <path d="M 673,81 L 673,83 L 672,84 L 672,86 L 671,87 L 671,89 L 670,90 L 669,90 L 668,89 L 669,88 L 669,86 L 670,85 L 670,82 L 670,84 L 669,85 L 669,87 L 668,88 L 668,89 L 662,95 L 662,96 L 663,97 L 665,95 L 665,94 L 668,91 L 669,91 L 670,92 L 668,94 L 668,95 L 667,96 L 668,96 L 669,97 L 670,96 L 670,95 L 672,93 L 672,92 L 673,91 L 674,92 L 674,94 L 673,95 L 673,97 L 674,97 L 674,96 L 675,95 L 675,92 L 676,91 L 676,90 L 675,89 L 675,87 L 676,86 L 677,87 L 677,88 L 678,88 L 679,89 L 679,90 L 678,91 L 679,91 L 680,90 L 681,90 L 682,89 L 682,84 L 681,84 L 680,85 L 680,88 L 679,89 L 678,88 L 678,84 L 676,84 L 675,83 L 675,82 L 674,81 Z" fill="none" stroke="black" stroke-width="1"/>
  <path d="M 668,76 L 668,79 L 669,79 L 669,76 Z" fill="none" stroke="black" stroke-width="1"/>
  <path d="M 665,74 L 664,75 L 662,75 L 662,76 L 663,77 L 663,76 L 664,75 L 665,75 Z" fill="none" stroke="black" stroke-width="1"/>
  <path d="M 665,58 L 664,59 L 664,61 L 665,61 L 665,60 L 666,59 Z" fill="none" stroke="black" stroke-width="1"/>
</svg>